<svg id="layer1" xmlns="http://www.w3.org/2000/svg" viewBox="0 0 473.28 356.27"><defs><style>.cls-1{fill:#509de2;}.cls-2{fill:#f941f9;}.cls-3{fill:#86f743;}.cls-4{fill:#ffdd15;}.cls-5{fill:#492d0c;}</style></defs><path class="cls-1" d="M260.33,107.25c0-.4,0-.8,0-1.2a274.36,274.36,0,0,0-.44-28.1c-.22-3.19-13.17-4.61-15.21-4.68-.93,0-4.06.7-4.06,2.08v4.39c0,.2-.25.34-.07.44,1.43.74,2.72,1.47,4.15,2.2a1.29,1.29,0,0,0,.65.11,78.06,78.06,0,0,1,3.55,14.67c-.22,5.9-.21,11.82-.22,17.71,0,.76,1.24.65,2.46.2q-.12,8.39,0,16.78a1.06,1.06,0,0,0-.35.59c-.78,6.69-1.25,13.41-1.69,20.13-1.25.38-2.5,1.15-2.5,1.83v32.93c0,1.43,5-.22,5-1.53v-2.2c0-3.69.63-7.4.94-11.11q.42,12.91.46,25.82c0,1.43,4.77-.22,4.77-1.53q0-8,.4-16.09c.93-.41,1.72-.95,1.72-1.48,0-11.76.26-23.57.34-35.38A318.88,318.88,0,0,0,260.33,107.25ZM249.24,78c-.27-.72-2-.3-3.33.39l-.89-.46a3.25,3.25,0,0,1-.14-1.52c1.13.2,2.25.44,3.38.72a24,24,0,0,1,2.54.77c-.19,1-.34,2.07-.5,3.1C250,79.94,249.61,78.94,249.24,78Z"/><path class="cls-1" d="M346.52,89.93c-1.52-3.32-2.89-8.2-7-8.89a.91.91,0,0,0-.88.71v2.47c0-.11.07-.23,0-.34-.38-.39-.82-.79-1.38-.56-7.45,3.15-11,9.79-12.8,17.64a1.09,1.09,0,0,0-.21.55c-2.14,11.6-2.12,23.37-2.12,35.14a2.49,2.49,0,0,0,.26.87c.22,15.8,1.82,31.67,1.88,47.44,0,1.48,3.41,5.27,3.41,3.22V105.4c2-7.6,5-14.06,11.89-17.28.43.43.87.87,1.29,1.31s1.82,1.16,1.82-.06V86.93c0,1,.82,2,1.28,3C344.92,92.13,348,93.21,346.52,89.93Z"/><path class="cls-1" d="M384.55,134.31c.34-1.93.74-3.85,1.24-5.76s-2.71-4.87-3.81-3.09c-1.15-.78-2.32-.84-2.32,1.1v12.21c-1,11.95-.16,24.09-.1,36.1,0,2.3,4.1,4.71,4.1,1.43v-7.11c0,1.16.08,2.32.09,3.49,0,2.3,4.23,4.7,4.21,1.43C387.87,160.75,386.34,147.52,384.55,134.31Z"/><path class="cls-1" d="M417.93,87.88c-3,9.85-4.47,21.56-2.29,31.73.51,2.38,5.05-.16,4.6-2.23-2-9.43-.82-20.57,2-29.75C423.17,84.56,418.54,85.87,417.93,87.88Z"/><path class="cls-1" d="M151.42,157.33c.87-24.83,2-49.68-2.65-74.21-.08-.46-1.3-.56-2.57-.45-.64-12.41-.38-24.77,2.67-36.88.09-.35-4.84-.8-5.16.49-6.52,25.86-.14,52.84,0,79.05,0,.47,2,.57,3.51.32.08,19.64-1.31,39.35-1.36,59,0,.42,1.31.54,2.72.4,1.47.2,4.08-.12,4.08-.88V157.78C152.66,157.51,152.26,157.36,151.42,157.33Z"/><path class="cls-2" d="M324.31,139.51c-.58.17-4.26.93-4.42,1.92a61.87,61.87,0,0,0-1.23,9.7v-7.26s-.92,0-1,0c-.5.14-3,.6-5,1.27v-7.9s.32,0,.29,0c-.64.19-4.55.9-4.56,1.91-.15,18.33-4,36.56-2,54.9,0,.1,4.74-1,4.89-1.95q.78-5.09,1.23-10.2c.51-.24.89-.5.94-.78s.06-.28.08-.42c1.29-.29,4.27-.95,4.4-1.78.53-3.23,1.77-6.46,1.77-9.7v18.24c0-.1,5-.86,5-1.95V139.48S324.34,139.5,324.31,139.51Z"/><path class="cls-2" d="M352.66,110.08V151.3c-2-15.45-3.26-30.9.52-46,.36-1.44-2.54-4.94-2.7-4.31-6.52,26.09,2.18,53,2.18,79.38v2.19c0,1.21,3,5.13,3,3.66V113.74C355.66,112.53,352.66,108.61,352.66,110.08Z"/><path class="cls-2" d="M374.66,157.52V143.66c0-1.14-4.35-2.51-4.43-2-.92,6-1.28,12.06-1.8,18.12-1.33,7.06-2.58,14.18-2.66,21.41,0,.91,3.89,2,3.89,2.1v.09c0,1.33,5,2.24,5,2V181c0-7.38,1.95-14.6,2.14-22C376.82,158.42,375.66,157.89,374.66,157.52Z"/><path class="cls-2" d="M412.29,83.4c-2,14.21-4.4,28.41-6.21,42.66-.74-1.49-2.26-3.51-2.35-3.13a154.38,154.38,0,0,0-3.51,24.14c-.14-7.34-.15-14.68-.15-22,.26-1-1.37-3.1-2.24-4-.28-.32-.49-.48-.52-.35-4.82,18.4-2.19,38.29-2.13,57.09,0,1.5,2.75,4.25,2.75,4.32,0-12.12-.9-24.38-.41-36.53.24,10.13.76,20.25,1.94,30.32.14,1.16,2.72,4.15,2.72,4,0-12.26.48-24.5,1.48-36.62V151c0,8.29-.4,16.6.13,24.94.08,1.26,2.87,4.09,2.87,4V154.8c1-15.51,3-30.93,5.37-46.33-.6,25.31-1.81,50.61-1.84,75.94,0,1.5,2.74,4.26,2.74,4.31,0-33.68,2.08-67.32,2.13-101C415.06,86.48,412.33,83.1,412.29,83.4Z"/><path class="cls-2" d="M136.63,95.2c-.19-8.37-.07-16.75-.08-25.12,0-.8-.89-1.21-1.89-1.25v-1c0-1.78-6-1.63-6,.22v112c0,1.79,5.24,1.63,5.24-.22,0-1.05.25-2.1.25-3.16,1.49.57,4.51.12,4.51-1.23v-79C138.66,95.71,137.62,95.31,136.63,95.2Z"/><path class="cls-2" d="M101.86,98.8c0-.34-2.69-.46-4.2-.35,0-1.17-.08-2.33-.08-3.49,0-.22-1.13-.35-2.34-.38A118.62,118.62,0,0,1,95.44,79c0-.32-5.15-.67-5.2-.13-1.24,14.49.9,28.8,2.57,43.15.31,7.58.82,15.15,1.71,22.72,0,.21.7.32,1.55.37.18,2.07.37,4.14.59,6.22,0,.22.88.34,1.89.38.13,4.26.23,8.52.25,12.79,0,.48,5.2.51,5.2.13C103.93,142.7,101.93,120.78,101.86,98.8Z"/><path class="cls-3" d="M81.88,78c-.77,1.82-1.44,3.66-2,5.52-1.11-1.07-3.95-2.32-4.39-1.13-4.61,12.58-4.28,26.56-4.29,39.81,0,.76,1.48,1.63,2.8,2,.85,13.37,2.33,26.71,3.1,40.08-1.67-4.78-3.5-9.51-5.34-14.24-.34-.9-4.55-3.25-4.82-1.75-.36,2-.64,4-.9,5.95-.22-.67-.35-1.34-.6-2-.41-1.12-4.75-3.25-4.75-1.47V164a24.61,24.61,0,0,1-1.87-5.24c-.37-1.18-5.13-3.2-5.13-1.46v22c0,1.4,5,3,5,1.46V174c1,1.75,1.15,3.5,1.7,5.24.29.91,3.11,2.33,4.32,2.1,0,1.49,0,3,0,4.48s4.85,3,4.85,1.47c0-9.7,0-19.46,1-29.11a161.27,161.27,0,0,1,7,23.25c.26,1.3,4.81,3.13,4.84,1.47.11-6.48,1.3-12.85,1.86-19.28a.54.54,0,0,0,.28-.49c0-1,0-2-.06-3,0-.45,0-.9.06-1.35a.77.77,0,0,0-.12-.37C84.2,152,83.59,145.55,83,139c0-4.25.11-8.51.2-12.76.23-10.35.45-20.76-.81-31A66.73,66.73,0,0,1,86.69,80C87.24,78.69,82.45,76.62,81.88,78Z"/><path class="cls-3" d="M142.18,47.19c-.84-.84-3.42-4-4.94-3.21-1.24.62-1.46,2.91-1.42,5.08a44.6,44.6,0,0,1-3.58,7.54c-.66.11-1.19.32-1.34.73-.38,1-.73,1.93-1.05,2.9-.95,1.33-1.94,2.62-3,3.87a91.92,91.92,0,0,0-2-10.84c-.17-1.79,0-3.57,0-5.37,0-1.48-3.19-4.32-3.19-3.71V61.74a4.47,4.47,0,0,0,1.64,2.82c.09,1.26,0,2.51,0,3.77a8.36,8.36,0,0,0,1.78,3.24c.1.5.15,1,.26,1.48a5.89,5.89,0,0,0,1.47,2.06c-.93,9.19-.48,18.61-.28,27.79.17,7.54.1,15.09.1,22.64v40.77c0,.67,5,.39,5-.62V124.92c0-7.55.12-15.1,0-22.65-.26-13-1-26.46,2.3-39.09a49.71,49.71,0,0,0,4.18-7.31c.76.66,1.54,1.06,1.54.8V52.28c0-.09-.11-.21-.15-.35.11-2.42.59-4.45,2.42-2.66C144.51,51.82,143.65,48.63,142.18,47.19Z"/><path class="cls-3" d="M193.62,134.24c.21-15.94.73-31.87,2-47.77.18-2.2-4.24-4.73-4.47-1.82-1.25,15.83-1.77,31.69-2,47.56-2-24.8-3.91-49.6.15-74.25.27-1.6-4.38-3.85-4.71-1.89-6.36,38.61,1.61,77.62,1.75,116.38,0,1.7,4.32,3.73,4.32,1.89V166.6c1,.42,2.41.26,2.42-1.08,0-9.41.14-18.84,2.24-28.05A3.33,3.33,0,0,0,193.62,134.24Z"/><path class="cls-3" d="M197.44,124.74c-3.12,0-2.25,5.08.41,5.08C201,129.82,200.1,124.74,197.44,124.74Z"/><path class="cls-3" d="M223.65,87.79a156.15,156.15,0,0,1,1.79-27.62c.08-.44-4.16,1.14-4.38,2.47-5.95,36.52,5.86,73.44-2.12,109.79-.08.36,4.13-1.11,4.43-2.47,5-22.68,2.12-45.58.81-68.46,1.49-.21,3.48-.65,3.48-1.26V87.06A15.89,15.89,0,0,0,223.65,87.79Z"/><path class="cls-3" d="M208.48,53.66c-3.79-3.9-6.54-7.54-8.35-12.8-.67-2-4.9-.72-5,1.13-.22,4-2.63,5.8-4.74,8.36-2.83-.41-5.64-1-8.41-1.55-1.9-.39-5.87,2.65-2.87,3.26,3.28.66,6.62,1.21,10,1.66a2,2,0,0,0,1.29.33h4.28c2.15,0,5.18-3.18,1.73-3.28-.5,0-1,0-1.5,0,.88-1.15,1.81-2.09,2.65-3.1a39.78,39.78,0,0,0,6.4,8.3C205.35,57.43,210.07,55.3,208.48,53.66Z"/><path class="cls-3" d="M278.89,165.25C274.62,136.4,272.56,107,276.75,78a3.34,3.34,0,0,0-1.24-2.6c.82-1.78,1.87-3.48,2.78-5.3.75-1.5-2.27-5.65-3-4.16-1.87,3.73-4.26,7-4.39,11.36a4.68,4.68,0,0,0,1.05,2.94c-3.4,27.85-1.35,56.08,2.74,83.75C275,166.15,279.36,168.45,278.89,165.25Z"/><path class="cls-3" d="M335.66,113.92V177.6c0,1.2,5,1.4,5,.37V114.29C340.66,113.08,335.66,112.89,335.66,113.92Z"/><path class="cls-3" d="M383.57,177.45c-2.3-7.84-2.48-16.19-4.28-24.16a2.31,2.31,0,0,0-.57-1c.17-.5.34-1,.55-1.49,1-2.33-2.73-5.87-3.93-3-2.21,5.25-2.29,10.92-2.3,16.56,0,2.21,3.72,4.15,4.19,1.55a85,85,0,0,0,2.36,12.28C380.45,181,384.56,180.8,383.57,177.45Z"/><path class="cls-3" d="M219.83,214.7c-10.06,1.94-20.34,2-30.55,2a29.87,29.87,0,0,0-6.15-2,6.21,6.21,0,0,1,.26-2.61c3.93.59,7.88,1,11.82,1.45a33.57,33.57,0,0,0,18.14,2.11c.67-.1,2.9-.72,1.07-1.07-5.21-1-10.48-1.59-15.75-2.17-.58-.28-1.15-.57-1.71-.89,4.9-.56,9.79-1.5,14.86-2.56.23-.05,2-.64.88-.88-6.91-1.54-13.82-1.12-20.73,0a58.19,58.19,0,0,1-4.67-4.24c-.92-.94-5.26.4-5,.69a48.52,48.52,0,0,0,4.82,4.27c-2.4.3-5.28.69-7.1,1.63-1.41.24-2.68.63-1.31.9h.08c-1.06,1.14-.87,2.4-.87,4,0,.38,1.15.4,1.32.41A20.27,20.27,0,0,1,185,217.3c-.69.33-.68.75,1.26.75h.45a5.16,5.16,0,0,1,1.71.63q-5,1.15-9.79,2.77c-.24.08-.93.24-.63.61a35.44,35.44,0,0,1,5,8,42.84,42.84,0,0,1-7.12,7.06c-.52.38,1.2.57,1.24.57a61.8,61.8,0,0,1,8.86,1.37,64.93,64.93,0,0,1,1.11,6.72c-2.59,6.44-3.41,14-6.93,19.88-.12.11-.11.21,0,.31,3.67,3.13,5.45,7.77,6.14,13-.89,8.79-1.9,17.58-2,26.42,0,.73,5,.65,5.18-.39,1.26-7.86,2.92-17.32,1.82-25.87a231.06,231.06,0,0,0,1.47-24.25,87,87,0,0,0-.52-9.13,20.92,20.92,0,0,1,3.57-6.46c.42-.48-1.1-.57-1.24-.57a33.29,33.29,0,0,1-3.6-.39,54.24,54.24,0,0,0-2-6.84c-.22-.59-.48-1.17-.74-1.74,3-3.63,5.93-7.39,9.75-10.22.52-.38-1.2-.57-1.24-.58q-.42,0-.84-.09a52.18,52.18,0,0,1,5.33-.87,7.6,7.6,0,0,0,1.74-.28,133.5,133.5,0,0,0,19.51-2.13C225.73,214.9,220.88,214.49,219.83,214.7Zm-13.36-6a109.9,109.9,0,0,1-11.2,1.8c-.68-.44-1.34-.92-2-1.41A40.65,40.65,0,0,1,206.47,208.66ZM190,210.73c-1.26,0-2.53,0-3.81-.13l2.65-.64C189.17,210.23,189.56,210.48,190,210.73Zm-3.69,53a29.49,29.49,0,0,0,1.34-3l-.06,2.08c-.06,1.6-.15,3.19-.25,4.78C186.32,266.34,185.33,265.44,186.26,263.68Zm-.73-26.44c-1.35-.26-2.7-.49-4.07-.63a33.45,33.45,0,0,0,3.07-2.75C184.91,235,185.24,236.1,185.53,237.24Zm7-17.37a42.54,42.54,0,0,0-6.21,6.16,43.57,43.57,0,0,0-2.51-3.69c-.45-.59,3.56-1.7,7.86-2.66C192,219.75,192.27,219.82,192.56,219.87Z"/><path class="cls-3" d="M313.35,204.05c-2.23-.31-4.47-.63-6.71-.86a2.46,2.46,0,0,0-1.85-1.43c-2.88-.36-5.76-.65-8.65-.91a2.4,2.4,0,0,0-.55-2.61,45.06,45.06,0,0,1,8.79,1.71c3.23,1,3.27-3.92.41-4.81-6.52-2-13.11-2.24-19.88-2.25-2.32,0-2.55,3-1,4.26a11,11,0,0,0,1.64,1c-12.29,1.19-24.64,1.28-37,1.28-2.59,0-2.38,3-.79,4.31-1.87,0-3.75.21-5.62.21-3.32,0-2.07,5.06.84,5.06h3.93c-.65,0,1.14,1.54,1.2,1.58a5.92,5.92,0,0,0,2.93,1.42h10.69c.16,0,.21.1.15-.05-.63-1.19-1.61-2.95-2.77-2.95h54.45C316.55,209.05,315.9,204.41,313.35,204.05Z"/><path class="cls-3" d="M129.15,236.09c-.31-2.3-2.34-5.21-4.79-5.37-1.68-.1-3.62.53-5.3.7a43.09,43.09,0,0,1-9.29-.29,44.59,44.59,0,0,1-15.9-5.26,68.17,68.17,0,0,0,21.52-2.24c2.86-.79.24-3.92-1.73-3.89-.19,0-.39,0-.59,0h0q-1.42,0-2.85.15l-.2-.07c-2.26-.54-4.57-.95-6.9-1.28-13.12-2.77-26.67-7.06-39.76-3-1.94.59,0,3,1,3.38s2.15.89,3.24,1.31a3.1,3.1,0,0,0,2.33,1.24h1.33a73,73,0,0,0,17.45,3.94v.05a2.2,2.2,0,0,0,.93,1.9c10.49,6.2,22.26,9.24,34.26,7.64.09,1.91-2.41,3.74-3.37,5.36-1.19,2,3.46,4.32,4.69,2.24C126.26,240.75,129.49,238.54,129.15,236.09ZM85.9,221.33c3.24,0,6.47.08,9.68.26-1.38.14-2.76.24-4.15.29Q88.66,221.72,85.9,221.33Z"/><path class="cls-4" d="M248.19,188.35a49,49,0,0,0-7.68,3,20.9,20.9,0,0,1-6.73,2.08,48.45,48.45,0,0,0-8.75-1c-.76,0-4.47,1.35-4.15,1.46a29.53,29.53,0,0,0,10.55,1.48c2.85.66,5.67,1.48,8.53,2.28a113.3,113.3,0,0,1-15.42.77,83.81,83.81,0,0,1-10.61-1c-3-.42-3.24-2.83-3.16-5.37,3.9.22,6.71-.28,6.79-2.14l-.12-.13a7.5,7.5,0,0,0-5.07.2l-1.49-.13c0-.29,0-.58,0-.85a176.22,176.22,0,0,1,2-27.49c.89-3.51,1.69-7,2.23-10.6.06-.35-4.77-.16-5.09,1.07a107.78,107.78,0,0,0-2.23,10.56c-1.58,6.18-3.46,12.32-4.76,18.55-1.14-.08-2.28-.09-3.42-.07a27.77,27.77,0,0,0-8.11.41c-3.18-.36-5.65-2-8.59-4.31-.76-.61-4.45.17-4.91,1,0,0,0,0,0,.08,1.56-4.69-.4-10-3.4-14V150.9c0-.56-5.14-.08-5.16,1.07a76.91,76.91,0,0,1-.92,10.08c-.72.24-1.27.56-1.27.9,0,2.38,0,4.78-.25,7.15-.59,2.74-1.12,5.48-1.79,8.22a9.85,9.85,0,0,0,4.39-.36v6c-1,1.07-3.29,1.74-5.15,2-1.88-.11-3.83-.19-5.72-.21-.7,0-5.16,1.26-3.9,1.54a27.56,27.56,0,0,0,9.29.47c1.79.16,3.48.36,5.48.58v.93c0,.65,2.35.12,3.85-.4,3.55.52,7,1.14,10.57,1.82-11.3,1.14-22.48,3.7-33.88,3.84a5.29,5.29,0,0,0-1,.19c-2.57-.05-5.16-.08-7.73-.11-4.46-.57-8.93-1.07-13.41-1.46,5.4-2.16,8.75-6.37,5.62-13.65-.43-1-2.32-3-4.14-4.9q-.72-5.73-1.37-11.47c.69-2.46,1.21-5,1.66-7.44,2-10.93,2-22.25,2-33.34,0-.47-3.19-.31-4.19.29V78.46c0-.48-2.84-.3-4.31.29,0-2.29.19-4.58.18-6.87,0-.62-4.87-.15-4.87,1v50.67c-2,21.14-.07,42.38,0,63.51,0,.63,5,.15,5-1v-5.31c1,.07,4-.41,4-1.28,0-.26-.11-.52-.1-.77a11.73,11.73,0,0,1,2.09,8,7,7,0,0,1-4.92,6.27c-4.35-.31-8.72-.52-13.09-.55-.62,0-5.24,1.1-3.88,1.53l.76.21c-21.09-.77-42.15-2.39-63.19-3.94a15.46,15.46,0,0,0-3.69,1q-5.62-.6-11.29-1c-.88-.06-5,1.39-3.87,1.53,6.49.82,13,1.48,19.51,2a132.79,132.79,0,0,0,35.78,8.91c-7.54,1.08-15.07,2.18-22.63,3-1.87.2-4.73,1.82-1.14,1.43,9.6-1,19.16-2.57,28.75-3.9q3.8.33,7.61.54c15.58,4.07,31.91,4.78,48,4.31a317.09,317.09,0,0,0,33.4-2.92c5.33,0,10.63-.14,15.88-.15.74,0,5.09-1.35,3.87-1.53l-4.53-.66q6.61-1.12,13.19-2.39c.25,0,3.43-1.13,2-1.34a389.23,389.23,0,0,0-45.85-4c9.7-1.26,19.34-3.17,29.15-3.3.67,0,5.12-1.28,3.86-1.54-5.86-1.19-11.75-2.28-17.67-3.09a55.47,55.47,0,0,0,5.36-6.49,14.81,14.81,0,0,0,7,2.62,5.45,5.45,0,0,0-1.51,3.86.45.45,0,0,0,.41.22c1.39.37,8,2.19,14.7,3.48-.07,1-.12,1.92-.14,2.89,0,.36,1.24.25,1.36.23a20.37,20.37,0,0,0,2.93-.5c0,1.55,0,3.11,0,4.66a.45.45,0,0,0,.41.22c12.55,2.42,25.35,2,37.93-.06.33-.05,4.11-1.08,2.71-1.45-3.23-.86-6.38-1.78-9.54-2.57,4.28-1.37,8.13-3.8,12.46-5C253.25,188.18,250,187.84,248.19,188.35Zm-92.58,13c-4,.11-8.06.26-12.11.41A100,100,0,0,1,125,197.19C135.32,198,145.67,199.64,155.61,201.34ZM101.23,196a.4.4,0,0,0,.26.1q-4.17.48-8.28,1.3c-5.75-.56-11.49-1.24-17.22-2C84.4,195.76,92.81,195.93,101.23,196Zm-15.59,3.27c-.07,0-2.32.85-1.65,1.1s1.43.51,2.15.76a137.51,137.51,0,0,1-27.76-6c9.71,1.26,19.41,2.56,29.14,3.57Zm8.58,1.64c-1.45-.46-2.89-1-4.33-1.47l1.34-.33c3.69.35,7.39.65,11.09.88Q98.27,200.42,94.22,200.93Zm2.93.89a184,184,0,0,1,19.63-1.29c.86,0,5.75-1.56,3.45-1.57-7.48,0-14.93-.46-22.37-1.1a108.69,108.69,0,0,1,17.82-1.11,92.65,92.65,0,0,0,17.44,5.38c-11.59.4-23.24.65-34.76,0Zm9,2.22c11.2.13,22.46-.32,33.62-.73a194.86,194.86,0,0,0,27.58,1.78C146.85,207.55,125.93,208.14,106.13,204Zm72.78-.53c-8.53.09-17.12.05-25.6-.63,3.53-.09,7-.15,10.53-.16a14.75,14.75,0,0,0,3.89-1.2c4.21.57,8.41,1.17,12.62,1.77Zm8.3-1.33c-10.71-1.55-21.42-3.05-32.16-4.3,1.34-.41,2.72-1,2-1.08l-1.83-.26A392.25,392.25,0,0,1,199,200.07Q193.18,201.15,187.21,202.18Zm5.6-16c-1.55-.41-1.19-.59-1-1.92a4.37,4.37,0,0,0,.55-1.08c.79-.06,1.58-.17,2.36-.17h7.62c.08,0,.21-.06.37-.09-.34,1.82-.63,3.63-.84,5.47C198.86,187.8,195.85,187,192.81,186.22Z"/><path class="cls-4" d="M362.43,199.05H341c-1,0-1.64-.1-2,.28-9.76-.69-19.52-1-29-3.57a72.68,72.68,0,0,1,16.16-2.61c2.28,0,3.38-3.32.9-4.11-13.74-4.36-28-2.53-42-.17-3.19.55-2.81,4.75.43,4.21,8.8-1.5,17.83-2.91,26.73-2.39-3.58.8-7.14,1.77-10.73,2.71a2,2,0,0,0-.22,3.91c13.2,5.49,27.15,4.87,41,6.22.69,3.07,3.77,7.35,4.83,9a6.1,6.1,0,0,0,.49.64c-4.82,4.11-8.61,9.14-13,13.8-1.39,1.47-.12,3.1,1.51,3.39,13.58,2.43,8.31,15.6,2.41,23.43-1.85,2.46,3.12,3.71,4.69,1.64,4-5.37,7.75-12,6.75-19.07-.73-5.1-4.77-7.84-9.16-9.28,3.48-4,6.75-8.1,10.86-11.42,1.24.17,2.28-.41,2.45-2.49a2.33,2.33,0,0,0-2.36-2.45,76.56,76.56,0,0,1-3.69-6.77,2.07,2.07,0,0,0,1.39-1,127.38,127.38,0,0,1,13.4-1.48C365.88,201.45,364.88,199.05,362.43,199.05Z"/><path class="cls-4" d="M145.88,216c.36-.09,3.93-1.95,2.44-1.95H124.79c-1.14,0-5.14,2-4,2h19c-3.69,2-7,3.62-6.08,7.22.84,3.15,2.7,6,3.55,9.19.59,2.22-2,6.79-2.7,8.91a94.56,94.56,0,0,1-3.46,9.55.23.23,0,0,0,.13.35c4.44,2.64,7.12,7.08,10.54,10.84,1,1.09,5.17-1.48,4.91-1.78-3.25-3.57-5.88-7.59-9.78-10.49-1.72-1.27,4.13-14.67,5-16.76,1.22-3-1.29-6.94-2.57-9.74C136.82,218,141.34,217.21,145.88,216Z"/><path class="cls-1" d="M242.21,212.05h-.85c-.74,0-5.7,1.2-3.59,1.2,1.89,0,10.76.22,10.76-.06,0,3.29-5,5.88-7.16,7.91a53.76,53.76,0,0,0-7.81,9.69c-.09.14.87.19.79.19A57.62,57.62,0,0,0,253,228.32l-4.44.3a53,53,0,0,1-8.47,13.06,21,21,0,0,0,4.75-.31c4.61-1.84,10.16-.27,15-2.19l-4.83.42a154.77,154.77,0,0,1-6.42,17.56l5.17-.66c.09-10.42,2.19-20.93.18-31.29-1.93-9.93-10.75-9.46-18.1-5.49-.41.22,1.22.29,1.24.29a50.37,50.37,0,0,0,20.63-5s.55-.23.22-.33c-5.91-1.89-11.64-2.28-17.8-2.28l-3.58,1c9,0,17.84-.41,26.66-2.54.09,0,1.55-.33,1.14-.59-7.35-4.74-15.64-6.32-24.22-6.47-1.19.34-2.39.22-3.58,1.22h32.08a39,39,0,0,0,4.27-1.14c-7.19-2.28-14.61-2.38-22.07-2.38-1.2.34-2.39.63-3.59,1,13.36-.09,27-2.05,40,2.08,1.4.45,4.42-1,4.95-.86-13.46-4.28-27.48-2.38-41.32-2.29-.73,0-5.7,1-3.59,1,7,0,13.95.18,20.71,2.32a20.39,20.39,0,0,1,4.27-.72H240.07c-.72,0-5.71.77-3.58.81a46.26,46.26,0,0,1,18.44,3.87c1,.49,2,1,3,1.56,2.94,1.68-7,1.91-6.38,1.85-3.81.37-7.66.28-11.48.28-.73,0-5.7,1-3.58,1a55.33,55.33,0,0,1,14.56,1.51c3,.81-5.57,3.24-5.27,3.15-5.43,1.65-3.42-.32-1.78.21,3.77,1.22,4.67,6.77,5.14,10.14,1.34,9.55-.52,19.17-.61,28.72,0,.39,4.81.11,5.17-.66a156.82,156.82,0,0,0,6.41-17.57c.1-.3-4.39.25-4.83.42-4.61,1.84-10.16.28-15,2.2l4.75-.31A53.39,53.39,0,0,0,253.7,228a26.58,26.58,0,0,0-4.44.3c-2.07.68-12.11,4.08-8.78-.68a51.45,51.45,0,0,1,5.9-6.86c2.65-2.64,7.32-4.37,7.32-8.3,0-.2-.77-.36-.79-.36H241.36c-.74,0-5.7,2-3.59,2h.86c.73,0,5.7-2,3.58-2Z"/><path class="cls-1" d="M144.91,203c3.17,3.24,6.44,5,11,5.16a23.06,23.06,0,0,1-2-4.13h-4.28a1.46,1.46,0,0,0-1.17,2.25,3.76,3.76,0,0,0,3.19,1.95c3.67.15,7,2.07,10.69,2.23a1.35,1.35,0,0,0,1.18-2.09,3.67,3.67,0,0,0-3.2-1.86c-3.66-.16-7-2.17-10.69-2.33a41,41,0,0,0,2,3.85h4.28a1.26,1.26,0,0,0,1.17-2,3.63,3.63,0,0,0-3.19-1.81c-2.73-.12-4.32-1.58-6.15-3.45-2-2-5.22-.28-2.8,2.2Z"/><path class="cls-1" d="M148.63,228.65c-6.36,9.52-4.69,20.59-4.58,31.52,0,1.56,4.54-.68,4.53-2.29-.1-10.16-2-21,4-30,1.55-2.32-3.15-.42-3.92.73Z"/><path class="cls-1" d="M330.12,201.43a23.31,23.31,0,0,1,10.56-2.17c-.24,0-2.42-3.43-3.75-3.43-3.29,0-4.22-.6-5.86,2.59a5.23,5.23,0,0,0,.16,5.62c2,3.18,6.1,5,9.39,6.2a46.49,46.49,0,0,1-4-3.41v57.09c0,1.47,4,2.81,4,3.39V210.22c0-1.19-2.84-3.06-3.81-3.41-3.05-1.1-3-2.09-1.8-5,1.1-2.75,3.25-2.55,5.61-2.55l-3.74-3.43a23.45,23.45,0,0,0-10.82,2.22c.16-.08,2.94,3.9,4,3.38Z"/><path class="cls-1" d="M413.27,199.38c-4.65,17.18-6.14,35.09-8.56,52.7-.4,2.89,4.73,3.28,5.08.72,2.42-17.6,3.91-35.51,8.55-52.7.76-2.79-4.4-3.24-5.07-.72Z"/><path class="cls-2" d="M90.49,211.77c-1,2.74,2.69,4.13,4.79,4.62,4.4,1,9.55-1.59,12.75-4.53.3-.27-3.65-2.86-4.56-2.39a52.22,52.22,0,0,0-13,8.89c-.54.53,3.76,2.37,4.25,2.41,3.69.26,7,1.93,10.7,2.19l-4.06-2a65.83,65.83,0,0,0,31.44,17.27c2.25.52-2.11-2.19-3-2.38a50,50,0,0,1-15.74-6.65c-3.37-2.12-5.93-5.27-9.18-7.42a7.38,7.38,0,0,0-3.31-1.37c-3.68-.26-7-1.94-10.69-2.2l4.25,2.41A51.43,51.43,0,0,1,107.87,212l-4.55-2.39a18.07,18.07,0,0,1-5.93,3.53,18.26,18.26,0,0,1-3.25.84c-3.61.67.69,1.13,1,.11s-4.45-3-4.7-2.29Z"/><path class="cls-2" d="M309.71,223.84c9.28-1.91,18.79-3.62,27.81-6.59,2.83-.93,1.62-4.34-1-4.34-12,0-23.84-.17-35.67-2.11-2.58-.42-4.45,2.65-1.64,4,9,4.31,18.91,4.54,28.46,6.83,2.16.51,4.34-1.93,2.19-3.63-2.61-2.07-6-2.36-8.55-4.39-1.45-1.15-4.31-.86-4.27,1.48.08,4.87,1.06,7.5,5.8,8.71,3.18.82,3.49,1.88,4.54,4.83,1.16,3.24,2.19,6.54,3.25,9.81,1,2.94,1.92,5.89,3.05,8.77,1.42,3.63,1.36,7.88,1.53,11.75.38,8.26-.05,17.06,3.35,24.76,1.1,2.5,6.16,1.85,4.87-1.06-3.22-7.28-2.78-15.81-3.08-23.63a58.75,58.75,0,0,0-3.63-17.94c-1.93-5.69-3.51-11.54-5.83-17.08-.92-2.19-3.32-3.18-5.41-3.91-3.25-1.12-3.24-1.06-3.3-4.94l-4.28,1.47c2.62,2.07,6,2.36,8.56,4.39l2.19-3.62c-9.05-2.17-18.59-2.27-27.15-6.35l-1.63,4c12.3,2,24.61,2.28,37.05,2.28L335.82,213c-9,3-18.53,4.68-27.81,6.59-3.33.69-1.11,4.86,1.7,4.28Z"/><path class="cls-2" d="M387.67,197.13c7.57,2.34,15.71,2.2,23.53,2.2.21,0-2.64-3.27-3.63-3.57-6.29-1.89-10.65.25-13,6.62-.35,1,2.81,3.13,3.51,3.45,5.35,2.41,10.94,1.89,15.39-2.14.37-.34-3.08-3.84-3.93-3.5-6.51,2.6-10.38,8.39-10.7,15.5,0,.93,2.93,3.36,3.79,3.36h4.27c-1.26-1-2.52-2.23-3.78-3.36-.06,10.27-.92,20.51-.24,30.78a45.87,45.87,0,0,0,3,14.54c2,4.85,1.56,11,1.56,16.18l3.95,3.19a266.71,266.71,0,0,0-10.72-72.46c-.29-1-4-3.51-4-3.19v8.79c0,1.27,4,3.34,4,3.18v-8.78a45.71,45.71,0,0,0-3.94-3.19,267.08,267.08,0,0,1,10.69,72.47c0,1.26,3.95,3.34,3.95,3.18,0-5.45.07-10.93-1.56-16.18a67.48,67.48,0,0,1-2.95-14.54c-.88-10.22.17-20.26.23-30.5,0-.94-2.9-3.11-3.78-3.11H399c1.26,1,2.52,2,3.79,3.11a17,17,0,0,1,10.68-15.34c-1.31-1.17-2.62-2.4-3.93-3.57A12.91,12.91,0,0,1,395,202.47l3.51,3.43c2.26-6.18,6.43-8.44,12.68-6.56l-3.63-3.57c-7.82,0-16,.13-23.52-2.2.4.12,2.21,3.13,3.62,3.56Z"/><path class="cls-5" d="M70.85,87.59c-.1-4-1-7.26-1.86-11.19-1.17-5.63,4.63-4,7.78-5.06s13.58-7.65,15.39-2.59c.89,2.48.14,5.87.68,8.51.07.33.6.38.85.34,7.07-1.13,4.72,11.43,4.82,15.59s.06,7.49,1.79,11.42a21.79,21.79,0,0,1,1.94,7.28c.45,5.52.5,11.08.44,16.61,0,3.87.58,9.88-1.43,13.4-.48.86,1.47.73,1.82.11,1.8-3.16,1.4-8,1.51-11.49.18-5.82,0-11.67-.3-17.49a24.38,24.38,0,0,0-.91-6.19c-.59-1.88-1.56-3.66-2.29-5.49-1.11-2.82-.59-6.85-.66-9.85-.11-4.41,1.37-10.39-1.69-14.11A4.39,4.39,0,0,0,95,76.24c-.82.13-.65-6.29-.76-7.4-.43-4.34-6.43-2.82-9.11-2.26-4.23.89-7.44,4.27-12,4.24-1.7,0-2.81-.46-4.34.43-1.2.7-1.93,3.34-1.83,4.53.35,4.13,1.85,7.78,2,12,0,.89,2,.5,1.94-.21Z"/><path class="cls-5" d="M90.69,82c.51,20.15,1.78,40.27,3.3,60.37.66,8.66,2,17.47,1.46,26.14-.3,4.9-1.4,11.54,1.53,15.86.39.57,2.26-.08,1.79-.77-3.38-5-1.45-13.1-1.2-18.74.36-8.19-1.17-16.76-1.79-24.93-1.47-19.46-2.67-38.94-3.16-58.45,0-.65-2-.26-1.93.52Z"/><path class="cls-5" d="M77.66,71.89c-1.57,2.88.39,7.18.88,10.15,1.08,6.61.69,13.57.66,20.25s-.06,13.24-.22,19.87c-.18,7.31-.31,14.62,0,21.93.09,2.27-.39,9.56,2.51,10.6.71.25,2.27-.78,1.15-1.18-2.42-.86-1.81-12-1.84-13.64-.16-6.93,0-13.88.2-20.81.15-5.66.14-11.3.15-17,0-5.38,0-10.74-.28-16.11A47.65,47.65,0,0,0,80,79.13C79.59,77,78.38,74,79.48,72c.49-.89-1.47-.77-1.82-.13Z"/><path class="cls-5" d="M80.73,153.12c-2.37-5.44-1.44-11.58-4.18-17-.06-.11-.23-.12-.34-.12l-8.68.22c-3.59.09-4.61.17-5.7-3.24-.49-1.52-2.21-1.64-3.49-1.29-7.54,2-3,11-3.25,16.06-.23,4.06-3.43,7.25-4.5,11.05-1.18,4.16.14,9.32.58,13.52S49,189,54.05,190.79a2.84,2.84,0,0,0,1.83-.64c-3.76-1.31-2.74-8.93-2.66-12,.17-5.85-1-11.57-1-17.4,0-5,4.1-8.67,4.79-13.53.43-3.08-.64-5.82-1.25-8.78a6,6,0,0,1,1.13-4.61c2-1.22,3.11-1,3.29.61a8.08,8.08,0,0,1,.07,2.55c0,.12.29.12.33.12,4-.1,13.54-2.21,15.26,2.32s1,9.64,2.94,14.16c.19.44,2.07-.21,1.93-.52Z"/><path class="cls-5" d="M54.25,155.93c9.08-.18,18.27.16,27.1-2.32,1.11-.32,1-.84-.14-.52-8.35,2.35-17.11,1.94-25.69,2.11-.37,0-2.19.75-1.27.73Z"/><path class="cls-5" d="M82.69,155.55c-2.61,3.66-1.24,11.76-1.1,15.9.18,5.38,0,11.85,1.82,17,.28.77,2.2.22,1.93-.52-1.73-4.79-1.54-10.71-1.77-15.72q-.24-5.13-.08-10.25c.07-1.82-.1-4.7,1-6.27.56-.79-1.4-.72-1.82-.13Z"/><path class="cls-5" d="M.08,208.49c5,4,14.55,2.54,20.52,1.69,2.62-.38,12.72-2.57,6-5.45l-.66.87c14.55-4.34,28.64.34,43.29,1.23s29.28-.07,43.93-.3c11.39-.17,22.69.77,34.06,1.19,7.15.27,15.9.1,21.36-5.24.28-.27.25-.53-.16-.61-1-.19-2-.51-3-.7-.46-.08-1.57.14-1.57.75,0,6.94,17.29,4,21.27,3.65,19.74-1.64,39.74.16,59.54-.87a459.44,459.44,0,0,1,48.67-.36c4.26.23,20.68,2.36,22-4.26.05-.22-.17-.34-.36-.36-.9-.08-.92-.69-1.18-1.28s-2.17,0-1.93.52c-.22-.49,1.21,3,1.45,1.85-.46,2.28-5.07,2.38-6.84,2.55a96.73,96.73,0,0,1-15.41-.2c-14.6-.86-29.13-.36-43.74.42-18.2,1-36.33.35-54.54.76-4.74.11-27,3.8-27-2.94l-1.56.75c3.83.71,1.29,1.69-1,2.76-3,1.42-6.6,1.65-9.87,1.81a123.45,123.45,0,0,1-14.39-.53c-12.15-.83-24.33-.76-36.5-.39-14.54.44-29.08.93-43.53-1.19-11.31-1.67-22-3.21-33.17.13-.23.06-1.32.59-.66.87,3.79,1.64.48,2.63-1.83,3.17a30.32,30.32,0,0,1-5.2.75c-4.93.25-12,1.51-16.16-1.77-.5-.4-2.27.35-1.8.73Z"/><path class="cls-5" d="M318.32,202c11.35-.19,22.64,1.24,34,1.4,11,.17,22-.48,33-.76,4.06-.11,22.77-.64,16.76-8.78l-1.6.64c20.81,1.68,41.89,1,62.74.51.38,0,2.19-1,1.26-1h0c-.38,0-2.19,1-1.26,1,2.78-.06.36-.62-.35-.61-1.63,0-3.26.12-4.89.15-5.55.09-11.09.17-16.63.2-13.19,0-26.45,0-39.6-1-.17,0-1.82.36-1.6.65,4.15,5.63-4.18,6.79-8.37,7.21-6.4.64-12.95.89-19.37,1-8.8.1-17.65.29-26.44-.14s-17.58-1.31-26.41-1.16c-.39,0-2.19.78-1.26.76Z"/><path class="cls-5" d="M66.44,87.92c-5.9,2.67-.56,11.22-.14,15.79.88,9.64,4.43,19.62,0,28.91-.49,1,1.46,1.1,1.86.27,3.26-6.74,2.45-14.18,1.33-21.35-.54-3.5-1-7-1.36-10.48-.26-3-4.82-10.06-.76-11.9,1.2-.54.14-1.7-.88-1.24Z"/><path class="cls-5" d="M57.18,142l2.27-.06a1.73,1.73,0,0,0,1.28-.5c.28-.36-.24-.5-.51-.49L58,141a1.77,1.77,0,0,0-1.28.51c-.28.36.23.5.5.49Z"/><path class="cls-5" d="M56.64,143.34c.07,1.76,1,3.27,2.92,3.29a1.65,1.65,0,0,0,1.28-.51c.28-.36-.24-.5-.51-.5-1.3,0-1.72-1.78-1.76-2.8,0-.55-2-.18-1.93.52Z"/><path class="cls-5" d="M58.46,151.52l1.51,0c.43,0,1-.31,1.07-.78s-.52-.64-.9-.63l-1.51,0a1.1,1.1,0,0,0-1.06.78c-.06.5.51.64.89.63Z"/><path class="cls-5" d="M65.07,143.59l3.78-.09c1.09,0,1.49-1.44.17-1.41l-3.78.1c-1.09,0-1.49,1.44-.17,1.4Z"/><path class="cls-5" d="M64.19,143.15c0,1.55.08,3.1.11,4.65,0,.2.46.18.56.17l2.27-.06a2,2,0,0,0,1.29-.47c.31-.33-.27-.39-.48-.38l-2.26.05.56.17-.12-4.65c0-.4-1.94-.08-1.93.52Z"/><path class="cls-5" d="M64,151.8l3-.08a3,3,0,0,0,1.37-.36c.31-.18.27-.37-.1-.36l-3,.08a3.06,3.06,0,0,0-1.36.36c-.31.18-.27.37.09.36Z"/><path class="cls-5" d="M55.35,161.36l3-.07a2.12,2.12,0,0,0,1.29-.47c.33-.31-.29-.32-.45-.32l-3,.08a2.16,2.16,0,0,0-1.3.46c-.33.31.29.33.46.32Z"/><path class="cls-5" d="M54.8,161.23c0,1,.05,2,.07,3,0,.5.81.85,1.22,1a5,5,0,0,0,1.67.19,1.53,1.53,0,0,0,1.27-.54c.24-.37-.21-.61-.53-.6a4,4,0,0,1-1-.07c-.59-.13-.67-.53-.68-1l-.06-2.4c0-.65-1.95-.26-1.93.52Z"/><path class="cls-5" d="M55,169.76a1,1,0,0,0,.18.77c.25.24.85.15,1.15.14a2,2,0,0,0,1.28-.47c.32-.32-.27-.37-.46-.36H57l.06,0a1.31,1.31,0,0,1-.07-.62c0-.38-1.95-.07-1.93.52Z"/><path class="cls-5" d="M55,175.42l1.51,0a1.76,1.76,0,0,0,1.28-.5c.3-.34-.24-.45-.49-.45l-1.51,0a1.84,1.84,0,0,0-1.28.5c-.29.35.25.46.49.45Z"/><path class="cls-5" d="M54.84,180.74l1.51,0a2.84,2.84,0,0,0,1.37-.37c.31-.17.27-.37-.1-.36l-1.51,0a3,3,0,0,0-1.37.36c-.3.18-.26.38.1.37Z"/><path class="cls-5" d="M56,187.82c1.35-.69,3-.82,4.13-1.9a.44.44,0,0,0-.21-.79,1.5,1.5,0,0,0-1.37.36,3.17,3.17,0,0,1-1.39.61,13.79,13.79,0,0,0-2,.78c-.27.14-.8.5-.49.87a1.18,1.18,0,0,0,1.29.07Z"/><path class="cls-5" d="M64.47,163.47l3-.08a2.11,2.11,0,0,0,1.29-.46c.33-.32-.28-.34-.46-.34l-3,.08a2.16,2.16,0,0,0-1.29.46c-.33.32.29.34.46.34Z"/><path class="cls-5" d="M63.1,168.28l2.27-.06a1.7,1.7,0,0,0,1.28-.51c.26-.37-.23-.54-.52-.53l-2.26.06a1.67,1.67,0,0,0-1.28.51c-.27.37.23.54.51.53Z"/><path class="cls-5" d="M62.52,167.87A3.9,3.9,0,0,0,62.7,171a3.12,3.12,0,0,0,2.77,1.13,1.57,1.57,0,0,0,1.28-.53c.25-.38-.21-.6-.53-.6-2,0-2.22-1.76-1.77-3.37.21-.72-1.74-.44-1.93.23Z"/><path class="cls-5" d="M64.08,177.54l1.5,0a1.76,1.76,0,0,0,1.29-.51c.28-.35-.24-.49-.5-.48l-1.51,0a1.8,1.8,0,0,0-1.29.5c-.28.36.24.49.51.49Z"/><path class="cls-5" d="M64.24,183.81l3-.08a1.58,1.58,0,0,0,1.28-.53c.25-.38-.21-.6-.53-.59l-3,.07a1.61,1.61,0,0,0-1.28.54c-.25.37.21.59.53.59Z"/><path class="cls-5" d="M71.49,163.91c.09,1,1.34,1,2.1,1a1.76,1.76,0,0,0,1.28-.5c.29-.35-.24-.47-.49-.46-.48,0-.91.07-1-.52s-2-.13-1.93.52Z"/><path class="cls-5" d="M70.7,169.68l2.27-.05a1.56,1.56,0,0,0,1.27-.54c.25-.38-.2-.6-.53-.6l-2.26.06a1.58,1.58,0,0,0-1.28.54c-.24.37.21.6.53.59Z"/><path class="cls-5" d="M70.27,168.83c-1.07,1.29-.75,3-.07,4.42a.83.83,0,0,0,.88.45l1.51,0c1.1,0,1.49-1.44.18-1.41l-1.52,0,.88.45c-.45-.94-1-2.41-.25-3.34s-1.06-1.24-1.61-.57Z"/><path class="cls-5" d="M69.66,178.3l2.27-.06c.38,0,1-.28,1.08-.71s-.55-.53-.87-.52l-2.26.05c-.39,0-1,.29-1.08.72s.55.53.86.52Z"/><path class="cls-5" d="M68.8,177.94c.08,1.9.65,3.75,2.44,4.67a1.67,1.67,0,0,0,1.24-.1c.07,0,.9-.4.58-.56-1.75-.9-2.25-2.68-2.32-4.53,0-.35-2,0-1.94.52Z"/><path class="cls-5" d="M70.06,185l3-.07a3,3,0,0,0,1.36-.37c.31-.17.27-.36-.09-.35l-3,.07a3,3,0,0,0-1.37.37c-.31.17-.27.36.1.35Z"/><path class="cls-5" d="M75.28,162.33a4.1,4.1,0,0,0,2.58,1.53,2.75,2.75,0,0,0,1.37-.36c.32-.19.25-.35-.1-.36-.76,0-1.52-1-2-1.45-.34-.33-2.06.4-1.83.64Z"/><path class="cls-5" d="M76.28,169.71l.76,0a1.1,1.1,0,0,0,1.06-.79c.05-.51-.51-.67-.9-.66l-.76,0a1.1,1.1,0,0,0-1.06.79c0,.51.51.67.9.66Z"/><path class="cls-5" d="M75.41,169.16a5.27,5.27,0,0,0-.71,2.33c0,.88,1.21.95,1.86.95a3,3,0,0,0,1.37-.37c.3-.18.26-.38-.11-.37-.66,0-1.2-.18-1.19-.93a5.15,5.15,0,0,1,.68-2c.14-.3-.67-.17-.76-.15-.29.05-1,.18-1.14.5Z"/><path class="cls-5" d="M76.22,178.53H76l-.75,1.12L77,179.6a1.56,1.56,0,0,0,1.27-.53c.25-.37-.21-.59-.53-.58l-1.71,0a1.57,1.57,0,0,0-1.28.53c-.25.38.21.59.53.59h.2a1.57,1.57,0,0,0,1.28-.53c.25-.37-.21-.59-.53-.58Z"/><path class="cls-5" d="M73.58,184.94c1.08,1,2.43.94,3.81.91.39,0,1-.28,1.09-.71s-.56-.5-.86-.5a2.93,2.93,0,0,1-2.26-.49c-.55-.51-2.38.24-1.78.79Z"/><path class="cls-5" d="M59.41,182c-.37,0,.1,0,0,0l.4.13h0c0,.25,0,.51,0,.76-.19.26-.41.27-.15.12a3.38,3.38,0,0,0,.41-.24,4.54,4.54,0,0,0,.79-.66.48.48,0,0,0-.23-.85,1.42,1.42,0,0,0-1.36.37c-.11.11-.21.2-.33.3l-.18.11a1.85,1.85,0,0,0-.54.37c-.22.29-.25.52,0,.77s.68.13,1,.13,1-.3,1.07-.74-.54-.56-.87-.55Z"/><path class="cls-5" d="M60.66,170.18l.74-.79c.32-.35-.28-.52-.51-.52a1.7,1.7,0,0,0-1.28.51l-.74.79c-.32.35.28.52.51.53a1.74,1.74,0,0,0,1.28-.52Z"/><path class="cls-5" d="M62.13,164.65c0-.8.78-1.45,1.28-2a.58.58,0,0,0-.26-1,1.27,1.27,0,0,0-1.36.37,4.59,4.59,0,0,0-1.62,2.73c0,1,1.93.77,2-.13Z"/><path class="cls-5" d="M70,132.92c.09,1,1.35.94,2.09.92a1.92,1.92,0,0,0,1.29-.49c.31-.33-.27-.4-.48-.39-.49,0-.92,0-1-.56s-2-.08-1.93.52Z"/><path class="cls-5" d="M71.92,132.4c0-1.07.65-2,.69-3.12l-1.12.71a4.4,4.4,0,0,0,1.12-.29c.36-.14.75-.5,1.12-.54s1-.22,1.12-.6-.64-.33-.81-.31a5,5,0,0,0-1.13.3c-.35.13-.75.49-1.12.54s-1.1.25-1.12.71c0,1.07-.65,2-.68,3.12,0,.46,1.92.15,1.93-.52Z"/><path class="cls-5" d="M72.91,124h.75c.41,0,1-.31,1.07-.76s-.52-.6-.88-.59H73.1c-.42,0-1,.31-1.08.76s.53.6.89.59Z"/><path class="cls-5" d="M73,117.87l.74-.79c.32-.34-.27-.47-.49-.46a1.87,1.87,0,0,0-1.29.5l-.73.79c-.32.34.27.46.49.46a1.82,1.82,0,0,0,1.28-.5Z"/><path class="cls-5" d="M72,111.12l.73-.8c.28-.3.23-.63-.19-.73a1.58,1.58,0,0,0-1.37.36l-.74.8c-.27.3-.23.63.2.73a1.58,1.58,0,0,0,1.37-.36Z"/><path class="cls-5" d="M69.92,105.31l.75,0a1.58,1.58,0,0,0,1.28-.53c.25-.38-.21-.6-.53-.59l-.76,0a1.55,1.55,0,0,0-1.27.53c-.25.38.21.6.53.59Z"/><path class="cls-5" d="M69,99.89l.75,0a1.62,1.62,0,0,0,1.28-.53c.25-.37-.22-.57-.52-.57l-.76,0a1.58,1.58,0,0,0-1.27.53c-.26.37.21.57.52.57Z"/><path class="cls-5" d="M70.37,99.08c-.57-1.18-1.09-3.22-.17-4.36.29-.37-.26-.59-.54-.6a1.62,1.62,0,0,0-1.27.54c-1,1.3-.61,3.57,0,4.94.33.69,2.22.08,1.93-.52Z"/><path class="cls-5" d="M69.16,93.82c1.09,0,1.5-1.37.19-1.37-1.09,0-1.5,1.37-.19,1.37Z"/><path class="cls-5" d="M72.92,92.23s.38,0,.18,0c.1,0,.1,0,0,0,.08,0,.09,0,0,0a3.77,3.77,0,0,1,.66.6c.64.63,2.3-.34,1.49-1.14a3.75,3.75,0,0,0-1-.78,2.71,2.71,0,0,0-1.2-.12c-.43,0-1,.32-1.06.8s.51.68.91.67Z"/><path class="cls-5" d="M72.07,93.3a2.62,2.62,0,0,0,2.14,2.55,1.65,1.65,0,0,0,1.28-.52c.28-.37-.24-.5-.51-.51.16,0,.17,0,0,0a1.68,1.68,0,0,1-.21-.18,2.33,2.33,0,0,1-.43-.61A2.77,2.77,0,0,1,74,92.78c0-.57-2-.18-1.93.52Z"/><path class="cls-5" d="M74.57,98.85H74c-.38,0-2.19.78-1.26.76h.57c.38,0,2.18-.78,1.26-.76H74c-.38,0-2.19.78-1.26.76h.57c.38,0,2.18-.78,1.26-.76Z"/><path class="cls-5" d="M73,99.49c0,1,0,2.06.07,3.1,0,.41,1.95.09,1.94-.52,0-1,0-2.07-.08-3.1,0-.42-1.94-.1-1.93.52Z"/><path class="cls-5" d="M72.33,104.16c.07.92,1.16.88,1.86.86a2.73,2.73,0,0,0,1.37-.37c.3-.18.27-.41-.11-.4-.54,0-1.13.07-1.19-.61,0-.34-2,0-1.93.52Z"/><path class="cls-5" d="M72.33,104.16A6.18,6.18,0,0,0,74,108.1c.43.44,2.25-.27,1.81-.73a5.74,5.74,0,0,1-1.54-3.73c0-.53-2-.16-1.93.52Z"/><path class="cls-5" d="M72.49,111.13a1.89,1.89,0,0,0,1.89,1.65,2.53,2.53,0,0,0,1.37-.36c.31-.2.26-.42-.12-.43a1.43,1.43,0,0,1-1.2-1.37c0-.37-2,0-1.94.51Z"/><path class="cls-5" d="M72.5,111a4.93,4.93,0,0,0,.93,4.88c.43.47,2.27-.23,1.8-.74a4.46,4.46,0,0,1-.81-4.4c.24-.58-1.68-.35-1.92.26Z"/><path class="cls-5" d="M72.68,118.89c.1,1.16,1.52,1.11,2.38,1.09.39,0,1-.28,1.09-.71s-.55-.53-.87-.52-.63.07-.67-.38c-.06-.76-2-.32-1.93.52Z"/><path class="cls-5" d="M73.67,124l.75,0c.42,0,1-.31,1.07-.77s-.52-.64-.89-.63l-.76,0a1.1,1.1,0,0,0-1.06.78c-.06.49.52.63.89.62Z"/><path class="cls-5" d="M75,127.36h-.57c-.73,0-2.05,1.14-.75,1.11h.57c.73,0,2-1.14.75-1.11h-.57c-.73,0-2.05,1.14-.75,1.11h.57c.73,0,2-1.14.75-1.11Z"/><path class="cls-5" d="M83.51,83.83c.11,0,.32,0,.37,0a1.43,1.43,0,0,1,.07.62c0,.28,1.94,0,1.93-.52,0-.27,0-.55-.19-.75s-.68-.13-.92-.12a2.87,2.87,0,0,0-1.37.37c-.3.17-.27.39.11.38Z"/><path class="cls-5" d="M83.21,85.26a3.3,3.3,0,0,0,.88,2.43c.46.48,2.3-.23,1.79-.76a3,3,0,0,1-.74-2.19c0-.6-2-.22-1.93.52Z"/><path class="cls-5" d="M84.09,90.67a1,1,0,0,0,.19.77c.24.24.85.14,1.14.13a2.08,2.08,0,0,0,1.29-.47c.32-.31-.28-.34-.46-.34h-.16a1.29,1.29,0,0,1-.06-.62c0-.36-2-.05-1.94.52Z"/><path class="cls-5" d="M84.2,95.15c0,.32,0,.77.21,1a1.9,1.9,0,0,0,1.44.31c.4,0,1-.3,1.07-.75s-.53-.58-.88-.57H86c-.18,0,.11.07.19.15s0,0,0-.08a1,1,0,0,1,0-.25c0-1-2-.63-2,.17Z"/><path class="cls-5" d="M84.32,100a2.9,2.9,0,0,0,.18,1.21,1.22,1.22,0,0,0,1.19.59,1.6,1.6,0,0,0,1.28-.51c.27-.38-.23-.53-.51-.54.09,0,0,0,0-.09a.63.63,0,0,1-.1-.27,4.55,4.55,0,0,1-.07-.9c0-.58-2-.21-1.93.51Z"/><path class="cls-5" d="M83.58,101.34c0,1.12-.63,2-.68,3.13,0,.58.88,1.13,1.28,1.46a3,3,0,0,0,1.68.71,1.23,1.23,0,0,0,1.26-.61.66.66,0,0,0-.61-.88c-.76-.06-1.38-.83-1.89-1.33.08.18.16.35.25.53a4.15,4.15,0,0,1,.37-1.29,6.07,6.07,0,0,0,.31-1.84c0-1.06-2-.81-2,.12Z"/><path class="cls-5" d="M83.85,109.4c.34.35.58.78.94,1.11a2.65,2.65,0,0,0,1.87.51,1.73,1.73,0,0,0,1.28-.5c.29-.36-.24-.48-.5-.48-.93,0-1.21-.78-1.79-1.36s-2.25.27-1.8.72Z"/><path class="cls-5" d="M83.78,109.3c.72,2.13.88,4.57,2.49,6.28.52.55,2.36-.18,1.79-.79-1.53-1.62-1.67-4-2.34-6-.26-.77-2.18-.22-1.94.52Z"/><path class="cls-5" d="M84,117.83a1.89,1.89,0,0,0,1.89,1.65,2.51,2.51,0,0,0,1.36-.37c.31-.19.26-.42-.11-.43a1.45,1.45,0,0,1-1.21-1.37c0-.37-2,0-1.93.52Z"/><path class="cls-5" d="M81.91,123.37a4.49,4.49,0,0,0,3.33,1.53,2.76,2.76,0,0,0,1.37-.37c.31-.18.26-.38-.1-.38a3.87,3.87,0,0,1-2.78-1.42c-.34-.33-2.08.4-1.82.64Z"/><path class="cls-5" d="M81.89,124.86a4.7,4.7,0,0,0,2.56,4,1.46,1.46,0,0,0,1.37-.17c.27-.17.57-.58.16-.79a4.08,4.08,0,0,1-2.16-3.6c0-.66-2-.26-1.93.52Z"/><path class="cls-5" d="M82,131.06a2.1,2.1,0,0,0,2.13,1.8,1.62,1.62,0,0,0,1.28-.53c.27-.38-.23-.54-.52-.55-.57,0-.92-.76-1-1.23,0-.62-2-.21-1.93.51Z"/><path class="cls-5" d="M82,130.93c-.5,2.36-.94,5.49,1.85,6.49a1.7,1.7,0,0,0,1.37-.19c.22-.13.62-.55.18-.71-2.46-.89-1.9-3.82-1.47-5.84.14-.69-1.8-.37-1.93.25Z"/><path class="cls-5" d="M83,140.35c.09,1.18,1.52,1.15,2.39,1.13.41,0,1-.29,1.08-.74s-.54-.58-.88-.57a3,3,0,0,1-.52,0c-.15,0-.13-.17-.14-.33,0-.46-.85-.43-1.13-.35s-.84.4-.8.87Z"/><path class="cls-5" d="M83.05,141.9a3.39,3.39,0,0,0,.88,2.43c.48.49,2.31-.23,1.8-.76a3,3,0,0,1-.74-2.19c0-.62-1.95-.23-1.94.52Z"/><path class="cls-5" d="M83.16,146.55c.07.84.75,1.47.82,2.31s2,.27,1.93-.52-.75-1.47-.81-2.31-2-.27-1.94.52Z"/><path class="cls-5" d="M83.94,147.89a5,5,0,0,0,2.79,4.42c.82.42,2.21-.77,1.1-1.34a3.77,3.77,0,0,1-1.93-3.21c0-1-2-.77-2,.13Z"/><path class="cls-5" d="M97.57,123.29c.21,0-.09,0,.06,0-.12,0,0,0,0,0a.61.61,0,0,1,.09.35c.06.76,2,.32,1.93-.51a1.31,1.31,0,0,0-1.38-1.12,1.44,1.44,0,0,0-1.27.56c-.22.39.19.68.56.68Z"/><path class="cls-5" d="M98.89,122.41a3.83,3.83,0,0,1-.53-1.37c0-.22.1-.24-.08-.08s-.31.11-.08,0c-.12,0,.27,0,.32,0,.41,0,1-.29,1.08-.74s-.54-.58-.88-.57a2.44,2.44,0,0,0-2.2,1.08,2.68,2.68,0,0,0,.44,2.18.92.92,0,0,0,1.13.35c.27-.07,1-.45.8-.87Z"/><path class="cls-5" d="M96.61,115.49l.75,0a1.62,1.62,0,0,0,1.28-.53c.25-.37-.22-.58-.53-.58l-.75,0a1.63,1.63,0,0,0-1.28.53c-.25.38.21.59.53.58Z"/><path class="cls-5" d="M96.48,111.5c.58,0,2.11-.88.81-.88-.57,0-2.1.88-.81.88Z"/><path class="cls-5" d="M96.5,111.54c.63,0,2.08-1,.78-1-.64,0-2.08,1-.78,1Z"/><path class="cls-5" d="M85.58,152.69c.24,10.09.39,20.14-.78,30.18l1.92-.42c0-3.63.48-7.24.5-10.87l-1.93.52c1.56,5.29,1.08,10.81,1.14,16.26,0,.42,1.88.06,1.92-.42.54-5.3.65-10.57,2.65-15.58l-1.92.42c.09,3.62.18,7.23.26,10.85,0,.43,1.91.07,1.93-.51a9.29,9.29,0,0,1,2-6.05l-1.85.3a14.61,14.61,0,0,1,1.64,5.39c.05.45,2,.06,1.93-.52a14.61,14.61,0,0,0-1.64-5.39c-.25-.5-1.6,0-1.85.31a10.71,10.71,0,0,0-2.2,6.47l1.93-.51q-.12-5.43-.26-10.86c0-.5-1.77,0-1.92.41-2,5-2.11,10.28-2.65,15.59l1.92-.42c-.06-5.45.42-11-1.14-16.26-.15-.52-1.93,0-1.93.52,0,3.63-.48,7.24-.5,10.87,0,.41,1.87.07,1.93-.41,1.17-10.11,1-20.23.79-30.38,0-.42-2-.09-1.93.51Z"/><path class="cls-5" d="M115.5,53.41c-3.17,1.61-9.22,2.57-11.59,5.21S102,67,102.28,70.34c.39,5.11,1.73,10.15,2.85,15.15,1.62,7.28,2.28,14.86,3.09,22.26,1.7,15.46,1.5,31.1,1.66,46.63.07,6.81.34,13.6-.1,20.4s-1.1,13.29-.53,20c.08.84,2,.39,1.94-.51-.56-6.57.07-13.09.54-19.64.49-6.79.18-13.59.1-20.39-.15-13.15-.13-26.31-1-39.44a246.9,246.9,0,0,0-5.25-36.3c-1.08-5-1.92-10.14-1.35-15.26.65-5.84,7.6-6.47,12.07-8.73,1.18-.6.12-1.56-.84-1.08Z"/><path class="cls-5" d="M117.3,55c6.3,4.65,16.78,3,20.61,11,.26.55,2.13-.1,1.93-.52-3.91-8.16-14.34-6.49-20.73-11.2-.47-.35-2.19.41-1.81.69Z"/><path class="cls-5" d="M106.78,67.13c11.16-.06,23.41,4.19,34-1,1.2-.59.09-1.22-.77-.8-9.94,4.87-21.94.63-32.47.69-.72,0-2,1.11-.75,1.1Z"/><path class="cls-5" d="M138.72,68.35c.3,12.38.56,24.75.33,37.13-.25,13.47-2.18,26.88-3.67,40.25-1.06,9.5-1.72,19-2.18,28.54-.26,5.33-.67,13.2,4.85,16.08.52.27,2.31-.49,1.55-.89-6.25-3.27-4.58-13.93-4.25-19.61.63-10.72,1.59-21.34,2.82-32C139.42,126.91,140.73,116,141,105c.29-12.38,0-24.77-.33-37.14,0-.55-2-.19-1.93.52Z"/><path class="cls-5" d="M109,121.85c1.82,9.78,5.22,19.18,6.59,29.06,1.61,11.64,1.5,23.24,1.74,35,0,.9,2,.52,1.94-.2-.21-10.58.08-21.16-1.28-31.67-1.44-11.14-5-21.67-7.06-32.67-.14-.76-2.08-.28-1.93.52Z"/><path class="cls-5" d="M116.15,54.62c2-8.46,1.15-17.17.9-25.76l-1.86.63c5.09,5.28,8.18,12.11,14,16.71.52.42,2.3-.34,1.79-.74-5.82-4.6-8.9-11.44-14-16.72-.42-.44-1.88,0-1.86.64.25,8.51,1.1,17.12-.9,25.49-.16.69,1.78.38,1.93-.25Z"/><path class="cls-5" d="M130.37,48.69c-.26-6.18-1.67-12.48.31-18.51l-1.36.61c4.67-.22,9.54-1.61,14.09-.05,6,2.06,5.78,11.31,5.7,16.32-.12,6.58-1.4,13.11-2,19.67-.62,7-.76,14.06-.81,21.09-.22,31,.34,61.86,1.14,92.79,0,.47,2,.13,1.94-.52-.86-32.86-1.67-65.77-1.08-98.65A221.42,221.42,0,0,1,150,57.71c.77-6.21,1.43-12.44.63-18.67-1.56-12.09-11.55-9.6-20.56-9.18-.38,0-1.21.16-1.35.61-2,6.11-.59,12.48-.32,18.74,0,.48,2,.13,1.93-.52Z"/><path class="cls-5" d="M150.88,103c2.34,10.56,2.82,21.35,3.68,32.1.89,11.23,3.57,22.12,3.93,33.46l1.94-.33c-2.7-13.5-4.9-27.09-6.7-40.74a154.39,154.39,0,0,1-1.43-22c0-1.13-.38-6.5.84-6.87,3.27-1,7.06-4.18,10.66-1.83a1.22,1.22,0,0,0,1.66-.45q3.67-4.69,5.32-1.44a5.87,5.87,0,0,1,1.14,2.92c.17.92,2.1.42,1.93-.51C173.44,95,172.2,92,169.58,92a5.7,5.7,0,0,0-6,4.07l1.67-.45c-5.18-3.38-8.21,1.05-13.46,1.72-.42.05-1,.29-1.06.79-2,23.46,3.16,47.67,7.74,70.59.17.84,2,.46,1.95-.33-.35-10.74-2-21.33-3.8-31.9-2-11.27-1.34-22.77-3.83-34-.21-.91-2.14-.41-1.94.52Z"/><path class="cls-5" d="M176,79.82c.49,19.29,1.68,38.56,2.14,57.85q.33,13.32.64,26.64c.23,9.42-1.77,18.48-.09,27.93.08.43,1.65-.23,1.84-.36,1.08-.73.7-.41,1.55-1.67a2.48,2.48,0,0,0-1.9.36l-1.39,1.51,1.84-.36c-1.55-8.67-.61-17.46,0-26.17s-.28-17.84-.49-26.63C179.66,119,178.46,99.18,178,79.3c0-.26-1.94,0-1.93.52Z"/><path class="cls-5" d="M176.88,80.35c-.63.8.94.77,1.36.78,1.3,0,2.82-.28,4,.24.48.21,2.25-.53,1.57-.83a7.36,7.36,0,0,0-2.84-.36c-.53,0-1,0-1.58,0-.31,0-.69,0-.78.07.45-.58-1.45-.34-1.77.07Z"/><path class="cls-5" d="M183.9,61.78c.21,6.72,1,13.41,1.24,20.13,0,.26,2,0,1.93-.51-.21-6.73-1-13.42-1.24-20.14,0-.26-1.94,0-1.93.52Z"/><path class="cls-5" d="M179.13,51.81C178,61,191,58.65,196.73,58.75c2.73,0,6.44.44,9-.74,3.71-1.7,2.34-6.54,3.19-9.66,0-.12,0-.18-.15-.19-9-1.22-17.79,2.52-26.75,3-.14,0-1.58.34-1.39.63.49.77.59.33,1.58.81.51.24,2-.56,1.83-.65a12.31,12.31,0,0,1-1.48-.67l-1.39.63c5.46-.28,10.76-1.6,16.13-2.57,1-.19,9.68-1.91,9.36.73-.28,2.3.64,7.32-2.79,7.78-4.43.6-9,0-13.49.08-5,.11-10.08-.56-9.33-6.62,0-.21-1.86,0-1.93.52Z"/><path class="cls-5" d="M185.57,49.82c-.07-2.82-.13-5.64-.2-8.47-.05-2.16,5.25-3.56,6.9-4.22a.88.88,0,0,0,.54-.68c0-5.72,1.09-11.37,1.1-17.09l-1.86.5c2.82,3.09,3.07,6.36,3.18,10.4,0,1.68-.11,3.67.77,5.19,1,1.73,2.7,3.32,3.5,5.1,1.39,3.07.75,6.71,1.51,9.93.23,1,2.16.44,1.93-.51-.78-3.32-.52-6.63-1.51-9.94-.48-1.64-2.35-3.31-3.25-4.73-1.52-2.4-.88-5.54-1.11-8.25A12.31,12.31,0,0,0,193.81,19c-.46-.51-1.86-.36-1.86.49,0,4-.52,8-.9,12-.22,2.34.32,4.34-2.1,5.42-1.68.76-3.33,1.57-5,2.26a.85.85,0,0,0-.54.67L183.61,50c0,1.06,2,.8,2-.13Z"/><path class="cls-5" d="M199.8,62.93c.57,23.28,1.57,46.55,2.33,69.83.3,8.93.61,17.81.24,26.73-.16,4-1.19,11.61,2.42,14.37.55.42,2.33-.35,1.79-.76-4-3-2.34-12.71-2.13-16.95.44-8.59-.16-17.25-.45-25.84-.74-22.64-1.72-45.26-2.27-67.9,0-.62-1.95-.24-1.93.52Z"/><path class="cls-5" d="M185.89,81.9c.5,20.5,1.08,41,3.12,61.41.93,9.31,1.21,18.75,1.28,28.11.05,7.53-1.91,15.69,1.32,22.82.25.56,2.13-.07,1.93-.52-3-6.64-1.61-14.51-1.35-21.56a234.31,234.31,0,0,0-1.25-29.37c-1.84-20.45-2.62-40.89-3.11-61.41,0-.46-2-.12-1.94.52Z"/><path class="cls-5" d="M198.65,32.1c3.63.22,12.31-3.3,12.94,1.2a139.77,139.77,0,0,1,1,19c0,13.39-.23,26.75,0,40.15.22,14.62.24,29.25.43,43.87.18,13.81.19,27.62,3.92,41,.15.51,2.08,0,1.94-.52-3.2-11.48-3.63-23.19-3.84-35-.24-13.3-.27-26.6-.4-39.89-.12-12.54-.52-25.07-.27-37.62.22-11.58.55-23.23-1.29-34.71,0-.13-.25-.17-.35-.17-4.43-.26-8.38,2.14-12.8,1.87-.45,0-2.23.8-1.23.86Z"/><path class="cls-5" d="M216.31,42.26c2.56-4.73,7.72-7.14,10.3-11.9l-1.91-.07c-.15,25.39,2.85,50.67,3.3,76,.23,13,.32,26,1,38.93.59,11.93,1,24.67,3.9,36.3.24.95,2.17.43,1.94-.52-2.83-11.51-3.24-24.12-3.88-35.91-.7-13-.74-25.95-1-38.92-.42-25.38-3.45-50.66-3.3-76,0-1.06-1.56-.72-1.91-.07-2.56,4.73-7.72,7.15-10.29,11.9-.54,1,1.42,1,1.85.26Z"/><path class="cls-5" d="M234.69,68.25c1,4.37,3,8.22,4.82,12.29.88,2,.87,5,1.22,7.2.5,3.05.94,6.11,1.35,9.18A229.15,229.15,0,0,1,244,131.15c-.24,12.26-1.67,24.55-3.17,36.71-.51,4.13-1,8.25-1.43,12.38-.12,1.22-.93,4-.14,5.08.27.39,1.4,0,1.66-.26a2.59,2.59,0,0,0,.71-1c.21-.4-1.63-.24-1.92.3l-.3.5,1.66-.26c-.83-1.17.35-4.91.4-6.34.17-5.3,1.29-10.7,1.9-16,1.23-10.53,2.24-21.09,2.56-31.69a227.78,227.78,0,0,0-1.72-32.39c-.62-5.5-1.55-11-2.49-16.44-.83-4.88-4-9.16-5.13-14.06-.13-.54-2.06,0-1.93.51Z"/><path class="cls-5" d="M237.52,68.39c8.32-.09,16.62,1,25,.92.6,0,2.1-.93.81-.91-8.34.13-16.63-1-25-.92-.6,0-2.1.93-.8.91Z"/><path class="cls-5" d="M276.54,53.42c-16.29,2-14.94,25.85-15.8,37.88-1.21,16.81-.22,33.71.5,50.52.71,16.6,0,33.28,1.34,49.85,0,.17.46.12.54.11a6.27,6.27,0,0,0,3.4-1.19c.8-.5-1.14-.23-1.46,0S264,182.22,264,181.5c-.14-3.8-.16-7.6-.18-11.41,0-7-.07-14.08-.3-21.12-.47-14.15-1.36-28.28-1.34-42.44,0-9.75.49-19.64,1.45-29.36.72-7.39,2.56-21.83,12.11-23,.47-.06,2.11-.89.85-.73Z"/><path class="cls-5" d="M275.58,53.72c-.12-8.82,1-17.59.87-26.4,0-.88-1.94-.5-1.94.21,0,5-.57,10-.7,15.08-.11,3.85-.48,9.19,2.19,12.32.56.66,2.81.61,3.56.71,3.45.45,6,4.34,7.94,6.93,5,6.7,5.86,15.66,6.21,23.77.76,17.73.73,35.82.23,53.56-.49,17.33-1.54,34.42-.38,51.77,0,.34.63.34.85.33,1.93-.1,3-.51,4-2.17.51-.83-1.45-.7-1.81-.1-1.08,1.76-1.44-4.16-1.44-4.06-.16-3-.25-6.09-.31-9.14-.1-4.38-.08-8.76,0-13.14.12-8.56.86-17.09,1.1-25.65.47-16.68.23-33.6-.25-50.29-.22-7.57-1-15-4.06-22-1.3-3-6.18-10.6-9.83-10.86-2.74-.19-4.33-.08-5.27-2.8-.87-2.55-.79-5.55-.8-8.19,0-5.44.77-10.85.72-16.29l-1.94.21c.12,8.81-1,17.58-.87,26.4,0,.88,1.94.49,1.94-.21Z"/><path class="cls-5" d="M264.55,112.14l24.17-.62c1.06,0,1.52-1.34.2-1.3l-24.17.61c-1.06,0-1.52,1.34-.2,1.31Z"/><path class="cls-5" d="M264.27,80.23c6.81-.11,13.6.39,20.41.26.73,0,2.05-1.14.75-1.11-6.81.12-13.61-.38-20.41-.26-.73,0-2,1.13-.75,1.11Z"/><path class="cls-5" d="M266.64,124.51c8.26-2.37,17,.2,25.43.17,1.1,0,1.48-1.42.17-1.41-8.66,0-17.44-2.53-26-.08-1.18.34-.83,1.66.36,1.32Z"/><path class="cls-5" d="M272.31,132.71c4.49-.12,8.9-.11,13.25,1.15.52.15,2.26-.65,1.55-.86-4.6-1.34-9.26-1.38-14-1.26-.63,0-2.09,1-.79,1Z"/><path class="cls-5" d="M304.16,177.61c-2.51-4.26-.19-10.73-.3-15.46-.16-7-.08-14,1.77-20.76l-1.33.71,6.8-.18c.35,0,1.33-.17,1.33-.7a29.87,29.87,0,0,1,.24-4c.4-3.16,3.41-7.44,6-2,.35.72,2.24.12,1.93-.52-1.36-2.87-3.66-4.73-6.87-3.12s-3.24,6.94-3.22,9.9l1.33-.7-6.79.17c-.48,0-1.19.16-1.34.7-2,7.39-1.9,14.94-1.72,22.54.11,4.68-2.15,9.91.41,14.24.35.61,2.23,0,1.78-.78Z"/><path class="cls-5" d="M319.21,94.74c-2.94,14.61-.36,29.2,1.18,43.79,1.85,17.39,2.2,34.92,2.62,52.39,0,.28,1.94,0,1.93-.52-.4-16.86-.84-33.73-2.43-50.54-1.43-15.16-4.46-30.28-1.4-45.47.08-.39-1.81-.09-1.9.35Z"/><path class="cls-5" d="M319.75,92.83c8.43,1,6.58-7.75,6.31-13.39l-1.86.65,2.32,2.27a1.34,1.34,0,0,0,1.8-.34,15.36,15.36,0,0,0,1.45-5.62l-1.33.7c4.5.25,5.87-3.19,4.2-7.13l-1.33.85c1.72,0,3.91-1,4,1,0,.85,1.38.43,1.75.09a8.47,8.47,0,0,0,3.06-6.58l-1.73.6a4.44,4.44,0,0,1,2.56,2.38c.74,1.31.28,4.16,1.27,5.17,1.83,1.88,4.49,1.44,6.13,3.73,2.62,3.62,2.41,11,2.57,15.31,0,.7,2,.29,1.93-.52-.17-4.57-.15-11-2.42-15.06-1.47-2.65-6-2.79-6.75-5.65s-.68-4.93-3.77-6.35c-.43-.2-1.7-.07-1.73.6a7.47,7.47,0,0,1-2.69,6l1.76.09c0-.51,0-1,0-1.55,0-.33-.28-.49-.61-.49l-4.53.12c-.32,0-1.58.26-1.33.85.67,1.57,2,5.63-1.54,5.43-.38,0-1.3.18-1.33.7a13.63,13.63,0,0,1-1.32,5.31l1.8-.34L326,79.31c-.49-.49-1.89-.12-1.86.65.16,3.45,2.52,12.37-3.66,11.68-.81-.09-2,1-.72,1.19Z"/><path class="cls-5" d="M325.07,95c4.83-.13,9.64-.28,14.45-.67,4.5-.37,10.07-2,14,1.11,2.14,1.72,2.5,5.06,2.78,7.59.54,4.88.39,9.9.5,14.8l1.71,71.44c0,.61,1.95.23,1.94-.52q-1-39.54-1.9-79.08c-.12-5.27.56-12.72-4.58-15.94-2.05-1.29-5.1-1.34-7.4-1.18-6.92.48-13.76,1.17-20.71,1.35-.72,0-2.06,1.13-.76,1.1Z"/><path class="cls-5" d="M329.09,97.68c1.06,15.75,3,31.42,4.42,47.15s-.66,32,3.13,47.3c.13.54,2.07,0,1.93-.52-3.64-14.67-1.76-30.43-3-45.42-1.33-16.36-3.48-32.65-4.58-49,0-.48-2-.11-1.93.52Z"/><path class="cls-5" d="M341.87,94.9c-2.15,6.11-.43,14.32-.13,20.64.4,8.67,1,17.33,1.25,26,.43,16-1.5,32.44,3.41,48,.2.65,2.13.1,1.93-.51-4.72-15-3.22-30.88-3.38-46.34-.08-8-.66-15.94-1.09-23.89q-.36-6.7-.55-13.43c-.1-3.65-.76-7.19.49-10.74.22-.61-1.71-.36-1.93.26Z"/><path class="cls-5" d="M332.13,96.14c2.82,3.27,1,9.92,1,13.85,0,.43,1.94.11,1.93-.52,0-4.08,1.79-10.62-1.15-14-.35-.41-2.19.26-1.81.7Z"/><path class="cls-5" d="M336.25,79c.48.51.66,1.16,1.37,1.41,1.05.38,2.5-.46,3.32-1,.28-.19.28-.42-.11-.41l-1.51,0c-.33,0-1.61.15-1.6.65a8.23,8.23,0,0,1-.64,3.8c-.14.31,1.69.15,1.9-.34a8.75,8.75,0,0,0,.68-4l-1.6.64,1.51,0c0-.14-.07-.28-.11-.41l-.53.35c.31,0,.37,0,.17-.09a1.15,1.15,0,0,1-.39-.4,7.79,7.79,0,0,0-.64-.87c-.33-.35-2.11.35-1.82.66Z"/><path class="cls-5" d="M347.66,103.2l-.71,0a1.08,1.08,0,0,0-1.06.81c0,.51.5.71.91.7l3-.07a1.08,1.08,0,0,0,1.06-.82c.05-.51-.5-.71-.91-.7l-3,.08-.15,1.51.72,0a1.07,1.07,0,0,0,1.05-.81c.05-.51-.49-.71-.91-.7Z"/><path class="cls-5" d="M345.9,105.63c0,1.69.16,3.36,1.82,4.23a1.46,1.46,0,0,0,1.37-.16c.28-.18.56-.61.15-.83-1.31-.69-1.37-2.13-1.4-3.45,0-.88-1.95-.49-1.94.21Z"/><path class="cls-5" d="M346.06,112c.05.66.74.9.79,1.53s2,.25,1.93-.52-.74-.9-.79-1.53-2-.26-1.93.52Z"/><path class="cls-5" d="M345.44,118a2.8,2.8,0,0,0,.1.91,3.07,3.07,0,0,0,.78.94,1.18,1.18,0,0,0,1.3.09c.26-.12.82-.57.48-.91a4.77,4.77,0,0,1-.62-.65,1.09,1.09,0,0,1-.09-.56c0-.94-2-.59-1.95.18Z"/><path class="cls-5" d="M345.62,125.19c.07.91,1,1.13,1.62,1.67a1.18,1.18,0,0,0,1.31.12c.26-.13.83-.62.47-1a6.57,6.57,0,0,0-1-.78c-.28-.17-.4-.25-.43-.58s-.84-.45-1.14-.37a.91.91,0,0,0-.79.89Z"/><path class="cls-5" d="M345.73,126.9a2.63,2.63,0,0,1,.72,2c0,1,2,.71,2-.15a3.68,3.68,0,0,0-.91-2.66,1.14,1.14,0,0,0-1.31-.14c-.29.15-.8.64-.46,1Z"/><path class="cls-5" d="M345.82,134.3a5.84,5.84,0,0,0,1.69,3.43,1.11,1.11,0,0,0,1.32.17c.31-.15.79-.68.44-1a4.94,4.94,0,0,1-1.48-2.69c-.07-1-2-.78-2,.13Z"/><path class="cls-5" d="M346,141.47a5.3,5.3,0,0,0,.42,1.83,4.27,4.27,0,0,1,.41,1.25c0,.31,2,0,1.93-.52a4.08,4.08,0,0,0-.41-1.25,5.25,5.25,0,0,1-.42-1.83c0-.29-2,0-1.93.52Z"/><path class="cls-5" d="M347,147.43c-.83,1,0,1.88.79,2.62.41.4,2.21-.31,1.81-.7s-1.43-1.26-.83-2c.28-.35-.24-.43-.48-.42a1.84,1.84,0,0,0-1.29.49Z"/><path class="cls-5" d="M346.34,155.42c.08,1.26,1.55,2,2.53,2.53a1.42,1.42,0,0,0,1.38-.15c.27-.19.57-.67.13-.88-.81-.4-2-1-2.11-2,0-.46-.86-.39-1.12-.32s-.84.37-.81.83Z"/><path class="cls-5" d="M347.28,163.16a4.23,4.23,0,0,0,.89,3.15c.34.35,2.11-.35,1.82-.66a4.19,4.19,0,0,1-.78-3c0-.32-1.94,0-1.93.52Z"/><path class="cls-5" d="M348.33,171.48a4.73,4.73,0,0,0-.77,3.31c0,.34,1.94,0,1.93-.52a4.44,4.44,0,0,1,.59-2.93c.28-.32-.24-.35-.46-.33a2.08,2.08,0,0,0-1.29.47Z"/><path class="cls-5" d="M347.67,179.44a8.47,8.47,0,0,0,.85,3.86c.27.54,2.13-.12,1.93-.52a8.57,8.57,0,0,1-.85-3.86c0-.43-1.94-.1-1.93.52Z"/><path class="cls-5" d="M333.33,117a4.67,4.67,0,0,0,2.55,4c.53.27,2.32-.51,1.55-.91a4.14,4.14,0,0,1-2.17-3.62c0-.58-2-.2-1.93.51Z"/><path class="cls-5" d="M333.53,125.49a4.53,4.53,0,0,0,1.64,3.13c.36.35,2.11-.37,1.82-.65a4.25,4.25,0,0,1-1.52-3c0-.32-2,0-1.94.52Z"/><path class="cls-5" d="M335.3,136.31c.09,1.58.78,3.05.87,4.63,0,.43,2,.08,1.93-.52-.09-1.58-.78-3-.86-4.63,0-.43-2-.08-1.94.52Z"/><path class="cls-5" d="M337.09,147.9c0,.26,0,.52,0,.77,0,.6,1.95.22,1.93-.51,0-.26,0-.52,0-.78,0-.59-1.95-.22-1.93.52Z"/><path class="cls-5" d="M337.5,158.17a3.71,3.71,0,0,0-.86,2.73c0,1.07,2,.82,2-.12a2.54,2.54,0,0,1,.54-2,.63.63,0,0,0-.27-1,1.26,1.26,0,0,0-1.37.36Z"/><path class="cls-5" d="M338.22,172.1c.56,0,2.11-.85.82-.85-.55,0-2.11.85-.82.85Z"/><path class="cls-5" d="M340.19,179.38a3.51,3.51,0,0,0-.77,2.59c0,.53,1.95.17,1.93-.51a2.79,2.79,0,0,1,.63-2.1c.3-.35-.26-.49-.51-.49a1.81,1.81,0,0,0-1.28.51Z"/><path class="cls-5" d="M323.27,107.13a4.6,4.6,0,0,0,2.55,4c.49.26,2.27-.48,1.55-.86a4.17,4.17,0,0,1-2.17-3.65c0-.51-2-.14-1.93.52Z"/><path class="cls-5" d="M323.47,115.66a5.66,5.66,0,0,0,1.66,3.19c.5.51,2.33-.21,1.79-.77a5,5,0,0,1-1.51-2.94c-.05-.67-2-.26-1.94.52Z"/><path class="cls-5" d="M325.23,125.7a4.32,4.32,0,0,0,1.63,2.42c.53.51,2.36-.23,1.79-.78s-1.42-1.26-1.49-2.16c-.06-.7-2-.27-1.93.52Z"/><path class="cls-5" d="M327,135.54a11.58,11.58,0,0,0,1,5c.4.83,2.23.08,1.76-.87a10,10,0,0,1-.76-4.26c0-1.06-2-.8-2,.12Z"/><path class="cls-5" d="M327.28,148.15l0,1.55c0,.51,1.95.16,1.93-.52l0-1.55c0-.51-1.95-.16-1.93.52Z"/><path class="cls-5" d="M329,157.23c0,1,.05,2.07.07,3.1s2,.69,2-.15c0-1-.06-2.07-.08-3.1s-2-.69-1.95.15Z"/><path class="cls-5" d="M330.87,172.1c.05,4.18-.44,8.39,1.05,12.39.21.56,2.12,0,1.93-.52-1.49-4-1-8.21-1.05-12.38,0-.45-1.94-.12-1.93.51Z"/><path class="cls-5" d="M265.28,123.53l17.37-.44.81-.88-8.31.21c-.58,0-2.1.92-.81.89l8.31-.22c.58,0,2.1-.92.81-.88l-17.37.44c-.58,0-2.1.92-.81.88Z"/><path class="cls-5" d="M266.61,123.22c1.94-3.22,5.49-2.68,8.74-2.74,1.13,0,1.47-1.5.16-1.48-4.27.07-8.29-.12-10.75,4-.57,1,1.39,1,1.85.26Z"/><path class="cls-5" d="M268.26,120.47l6-.15a1.55,1.55,0,0,0,1.27-.53c.25-.38-.21-.6-.53-.59l-6,.15a1.59,1.59,0,0,0-1.27.54c-.25.37.21.59.53.58Z"/><path class="cls-5" d="M280.4,123.2l1.51,0a1.73,1.73,0,0,0,1.28-.5c.28-.36-.24-.49-.5-.48l-1.51,0a1.77,1.77,0,0,0-1.28.51c-.28.36.24.49.5.48Z"/><path class="cls-5" d="M281.51,123.07a20.53,20.53,0,0,0,6.44.65c.56,0,2.11-.88.82-.85a17.82,17.82,0,0,1-5.68-.59c-.47-.15-2.2.6-1.58.79Z"/><path class="cls-5" d="M286.4,122.2l5.29-.13c.55,0,2.1-.87.82-.84l-5.29.13c-.55,0-2.11.87-.82.84Z"/><path class="cls-5" d="M285.65,120.84l3.78-.1a1.52,1.52,0,0,0,1.27-.54c.24-.38-.2-.64-.54-.63l-3.78.09a1.52,1.52,0,0,0-1.27.54c-.23.39.2.65.54.64Z"/><path class="cls-5" d="M264.94,108.84l11.33-.29c.62,0,2.08-1,.78-1l-11.32.28c-.63,0-2.09,1-.79,1Z"/><path class="cls-5" d="M278.93,109.26a11.14,11.14,0,0,0,4.95.75,1.52,1.52,0,0,0,1.27-.54c.24-.38-.2-.62-.53-.61a9.33,9.33,0,0,1-4.16-.57,1.49,1.49,0,0,0-1.37.17c-.25.16-.59.61-.16.8Z"/><path class="cls-5" d="M290,111.39a10,10,0,0,0,4.74-1.13c.28-.15.56-.57.16-.77a1.55,1.55,0,0,0-1.37.17,5.68,5.68,0,0,1-2.78.61,1.62,1.62,0,0,0-1.28.53c-.24.38.21.6.53.59Z"/><path class="cls-5" d="M266.51,80.07l7.55-.19c.6,0,2.1-.94.8-.91l-7.55.19c-.59,0-2.09.94-.8.91Z"/><path class="cls-5" d="M280.1,79.72a3.54,3.54,0,0,1,2.54.6c.43.38,2.19-.35,1.81-.69-.94-.84-2.36-.83-3.54-.8a1.94,1.94,0,0,0-1.29.48c-.3.34.26.42.48.41Z"/><path class="cls-5" d="M288.22,81l3.78-.1a2.72,2.72,0,0,0,1.36-.37c.3-.18.27-.42-.11-.41l-3.77.09a2.84,2.84,0,0,0-1.37.37c-.3.18-.27.43.11.42Z"/><path class="cls-5" d="M268.78,130c6.83-.06,13.59,1.09,20.42,1,1.13,0,1.47-1.49.16-1.48-6.83.06-13.6-1.09-20.43-1-1.13,0-1.46,1.49-.15,1.48Z"/><path class="cls-5" d="M267.74,141.71h-.1c-.05.49-.1,1-.16,1.46,1.29-.07,2.58-.07,3.87-.1,1.12,0,1.48-1.49.17-1.46s-2.59,0-3.88.1c-1.11,0-1.47,1.49-.16,1.46h.1c1.11,0,1.47-1.48.16-1.45Z"/><path class="cls-5" d="M267.66,149a3.67,3.67,0,0,0,2.78.83,1.88,1.88,0,0,0,1.29-.49c.3-.34-.26-.42-.48-.41a2.29,2.29,0,0,1-1.78-.62c-.42-.39-2.2.33-1.81.69Z"/><path class="cls-5" d="M266.24,152.87a5.49,5.49,0,0,0,3.35,1.56,2.34,2.34,0,0,0,1.36-.36c.3-.2.26-.48-.13-.49a4.69,4.69,0,0,1-2.77-1.39c-.4-.37-2.17.35-1.81.68Z"/><path class="cls-5" d="M267.14,159c.77.76,1.54,1.52,2.32,2.27.33.33,2.06-.4,1.82-.63L269,158.4c-.33-.33-2.06.4-1.82.63Z"/><path class="cls-5" d="M266.55,166.05a12,12,0,0,0,3.08,2.25,1.7,1.7,0,0,0,1.25-.09c.06,0,.9-.42.56-.58a12.15,12.15,0,0,1-3.07-2.25c-.38-.37-2.15.34-1.82.67Z"/><path class="cls-5" d="M267.52,173.87l1.54,1.51a1.14,1.14,0,0,0,1.31.13c.29-.13.82-.63.46-1L269.29,173a1.13,1.13,0,0,0-1.31-.13c-.28.13-.82.62-.46,1Z"/><path class="cls-5" d="M266.92,181.56a2.34,2.34,0,0,1,.74,1.45c0,.43,2,.06,1.93-.52a2.71,2.71,0,0,0-.85-1.61c-.39-.38-2.17.33-1.82.68Z"/><path class="cls-5" d="M272.66,188.45l.75,0a2.72,2.72,0,0,0,1.37-.36c.29-.19.27-.43-.11-.42l-.76,0a2.8,2.8,0,0,0-1.36.37c-.3.18-.27.42.11.41Z"/><path class="cls-5" d="M243.16,75c0,.26,0,.52,0,.78s1.94,0,1.93-.52c0-.26,0-.52,0-.78s-1.94,0-1.93.52Z"/><path class="cls-5" d="M243.22,74.4c-.16-.3,0,.07.06.13s.18.38.26.58a4.49,4.49,0,0,1,.41,1.44c0,.47.86.42,1.13.35s.83-.39.8-.87a6.47,6.47,0,0,0-.89-2.45c-.2-.41-1-.25-1.3-.11s-.69.51-.47.93Z"/><path class="cls-5" d="M247.67,74c0,1,.15,2,1.4,2a1.41,1.41,0,0,0,1.27-.56c.23-.4-.2-.66-.55-.67,0,0,.13.16,0,0a.68.68,0,0,1-.08-.24,3.74,3.74,0,0,1-.07-.75c0-.91-2-.53-1.94.2Z"/><path class="cls-5" d="M250.27,73.78c.14-.1.17-.14.09-.11l-.73.23.07,0-.62,0c.13,0,.12.85.12,1,0,.34,2,0,1.93-.52,0-.33.07-1.12-.4-1.2a2.64,2.64,0,0,0-2.21.77c-.31.31.27.34.46.33a2.17,2.17,0,0,0,1.29-.47Z"/><path class="cls-5" d="M254.65,73.49c-.25.27-.85.75-.73,1.18s1,.42,1.42.41,1-.28,1.08-.71-.56-.5-.85-.5.05-.11.21.14c0,.1.05.2.08.3,0-.09,0,0,0,0,.13-.16.27-.3.4-.44.29-.31.22-.67-.21-.78a1.5,1.5,0,0,0-1.36.36Z"/><path class="cls-5" d="M255.22,73.94l.06,2.33c0,.58,2,.21,1.93-.52s0-1.55,0-2.33c0-.58-2-.21-1.94.52Z"/><path class="cls-5" d="M245.69,80.9c-.23,0-.13,0,0,.1s.18.18.28.26a1.7,1.7,0,0,0,1,.37,1.23,1.23,0,0,0,1.25-.61.64.64,0,0,0-.6-.87c-.2,0-.32-.19-.53-.37a1.93,1.93,0,0,0-1.25-.38,1.09,1.09,0,0,0-1.06.81c-.05.53.51.67.91.69Z"/><path class="cls-5" d="M245,80.56a6.46,6.46,0,0,1,3.69,3.63c.28.55,2.14-.11,1.93-.52a7,7,0,0,0-4-3.93,1.91,1.91,0,0,0-1.36.22c-.2.11-.64.46-.21.6Z"/><path class="cls-5" d="M252.39,81.77c.09,1,1.32,1.08,2.13,1.06a1.53,1.53,0,0,0,1.27-.54c.24-.38-.2-.63-.54-.63s-.88.14-.93-.41-2-.27-1.93.52Z"/><path class="cls-5" d="M254.49,82l2.27-.06-.6-.31.06,2.33c0,.64,1.95.25,1.93-.52s0-1.55,0-2.32c0-.24-.44-.31-.6-.31l-2.26.06a1.57,1.57,0,0,0-1.28.53c-.25.38.21.6.53.6Z"/><path class="cls-5" d="M246.5,88.71a5.84,5.84,0,0,0,.27,2.08,3.28,3.28,0,0,0,1.74,1.58c.83.42,2.22-.78,1.11-1.34s-1.13-1.36-1.16-2.46-2-.77-2,.14Z"/><path class="cls-5" d="M247.34,89.72a16,16,0,0,1,2.31,3.75c.23.46,2.07-.24,1.93-.51a16.22,16.22,0,0,0-2.41-3.89c-.34-.34-2.1.37-1.83.65Z"/><path class="cls-5" d="M253.46,91.42l.76,0c.38,0,1-.28,1.08-.7s-.55-.52-.85-.51l-.76,0c-.38,0-1,.28-1.08.7s.55.52.85.51Z"/><path class="cls-5" d="M254,91.33c-.09,0,0,0,.07.08a2.12,2.12,0,0,1,.29.38,5.32,5.32,0,0,0,.67.89c.46.47,2.29-.24,1.8-.75a12.57,12.57,0,0,1-.89-1.18,1.46,1.46,0,0,0-1.18-.49,1.63,1.63,0,0,0-1.27.52c-.27.38.22.54.51.55Z"/><path class="cls-5" d="M247.51,99a3.1,3.1,0,0,0,.18,1.21,1.22,1.22,0,0,0,1.2.58,1.59,1.59,0,0,0,1.27-.51c.28-.38-.23-.52-.51-.53.09,0,0,0,0-.09s-.07-.2-.09-.28a3.87,3.87,0,0,1-.08-.9c0-.57-1.95-.2-1.93.52Z"/><path class="cls-5" d="M249.08,98.31a3.88,3.88,0,0,0,1.35,1.52,17.23,17.23,0,0,0,2,.94c.78.37,2.23-.75,1.13-1.27-.52-.25-1.07-.44-1.58-.71a3,3,0,0,1-1.18-1.32c-.39-.74-2.24,0-1.77.84Z"/><path class="cls-5" d="M256.68,98.41c1.09,0,1.49-1.39.18-1.39-1.1,0-1.5,1.39-.18,1.39Z"/><path class="cls-5" d="M256.56,98.56c0,.26,0,.52,0,.77,0,1,2,.62,1.95-.17,0-.26,0-.52,0-.78,0-1-2-.62-1.95.18Z"/><path class="cls-5" d="M247,107.32a2,2,0,0,0,.8,1.81,4.52,4.52,0,0,0,2.39.32c.43,0,1-.32,1.07-.78s-.52-.65-.9-.64l-.61,0-.3,0-.19,0c.08,0,.08,0,0,0a.19.19,0,0,1-.14-.13,1.65,1.65,0,0,1-.15-.69c0-1-2-.71-2,.15Z"/><path class="cls-5" d="M248.67,107.68c1.39.69,2.59,1.53,4.2,1.54a1.6,1.6,0,0,0,1.28-.53c.26-.38-.22-.58-.53-.58-1.28,0-2.31-.82-3.42-1.37a1.56,1.56,0,0,0-1.36.18c-.27.16-.59.56-.17.76Z"/><path class="cls-5" d="M256.1,106.32c-.2.22-.65.56-.65.89s.77.2.91.19a2.82,2.82,0,0,0,1.36-.36c.3-.19.27-.41-.1-.4h-.33s.11,0,.1.06c.06-.2.31-.39.45-.54.29-.31-.25-.31-.45-.29a2.26,2.26,0,0,0-1.29.45Z"/><path class="cls-5" d="M256.83,107.33a4.19,4.19,0,0,1,.78,3c0,.31,1.94,0,1.93-.52a4.22,4.22,0,0,0-.89-3.15c-.34-.34-2.1.37-1.82.66Z"/><path class="cls-5" d="M250.2,116.73a1.12,1.12,0,0,0,.2.82,2.13,2.13,0,0,0,2.45-.28c.24-.38-.21-.62-.54-.61H252c-.24,0,.1,0,.18.09s0-.06,0-.11a2,2,0,0,1,0-.42c0-.66-2-.27-1.94.51Z"/><path class="cls-5" d="M251,116.71a3.36,3.36,0,0,0,.9,1.61,20.39,20.39,0,0,0,1.51,1.57c.53.52,2.36-.22,1.79-.78s-1-1-1.4-1.45a2.87,2.87,0,0,1-.87-1.46c-.07-.72-2-.28-1.93.51Z"/><path class="cls-5" d="M257.77,117.32c0,.52,0,1,0,1.55s1.95.12,1.93-.52l0-1.55c0-.46-1.95-.12-1.94.52Z"/><path class="cls-5" d="M249,126.15l.78.76c.37.37,2.15-.34,1.81-.67s-.51-.51-.77-.76-2.15.34-1.82.67Z"/><path class="cls-5" d="M251.07,127.94c.8,0,2-1.22.72-1.22-.8,0-2,1.22-.72,1.22Z"/><path class="cls-5" d="M256.45,125.11a3.19,3.19,0,0,0,.86,2.37c.33.34,2.09-.37,1.83-.64a3.06,3.06,0,0,1-.76-2.25c0-.28-1.94,0-1.93.52Z"/><path class="cls-5" d="M249.83,132.86c0,.25,0,.51,0,.77,0,1,2,.67,2-.16,0-.26,0-.52,0-.77,0-1-2-.68-1.95.16Z"/><path class="cls-5" d="M249.91,133.15c1.69,1.65,3.4,3.11,5.88,3.13a1.62,1.62,0,0,0,1.27-.52c.27-.38-.22-.55-.52-.55-2,0-3.48-1.48-4.84-2.81-.48-.46-2.3.26-1.79.75Z"/><path class="cls-5" d="M258.16,133.44a3.51,3.51,0,0,0,.89,2.61c.54.57,2.38-.18,1.78-.81a2.71,2.71,0,0,1-.73-2c0-.93-2-.57-1.94.19Z"/><path class="cls-5" d="M251,143.55l.75,0c.42,0,1-.31,1.07-.77s-.52-.63-.89-.62l-.75,0c-.42,0-1,.31-1.07.77s.52.63.89.62Z"/><path class="cls-5" d="M251,143.27a12.76,12.76,0,0,0,5.69.69,1.76,1.76,0,0,0,1.28-.5c.29-.35-.24-.47-.49-.47a10.78,10.78,0,0,1-4.92-.58c-.5-.23-2.28.53-1.56.86Z"/><path class="cls-5" d="M258.4,143.68c.07.84.75,1.47.82,2.31,0,.42,2,0,1.93-.52-.07-.84-.75-1.47-.81-2.31,0-.42-2-.06-1.94.52Z"/><path class="cls-5" d="M248.81,153.23a2.37,2.37,0,0,0,2.44,2,1.1,1.1,0,0,0,1.06-.81c.05-.52-.51-.67-.91-.68.2,0-.05,0-.11-.07a1.08,1.08,0,0,1-.28-.24,1.19,1.19,0,0,1-.27-.72c0-.49-.82-.53-1.15-.44a.93.93,0,0,0-.78,1Z"/><path class="cls-5" d="M253.34,151.19a4,4,0,0,0-.48,2.17,4.12,4.12,0,0,0,1.37,2.23c.63.63,2.46-.17,1.77-.85a4.16,4.16,0,0,1-1.15-1.58,2.54,2.54,0,0,1,.34-1.74c.46-1-1.49-1-1.85-.23Z"/><path class="cls-5" d="M257.26,155.14a3.42,3.42,0,0,0-.79,2.55c0,.39,1.95.07,1.94-.52A2.86,2.86,0,0,1,259,155c.29-.33-.25-.39-.47-.37a2,2,0,0,0-1.29.47Z"/><path class="cls-5" d="M247.37,164.35a7.47,7.47,0,0,0,2.14-.43c.22-.07.43-.18.65-.27s.7-.18.21-.15a1.88,1.88,0,0,0,1.29-.49c.29-.34-.25-.46-.49-.45a5,5,0,0,0-1.61.42,3.81,3.81,0,0,1-1.39.43,2,2,0,0,0-1.29.5c-.29.34.25.45.49.44Z"/><path class="cls-5" d="M248.71,164.44a11.41,11.41,0,0,0,2.32.42,1.28,1.28,0,0,1,1.17.84c.34.6,1.8.12,1.87-.49s.94-.93,1.29-1.27a.46.46,0,0,0-.22-.82,1.47,1.47,0,0,0-1.37.36c-.64.62-1.54.93-1.65,1.91l1.86-.5c-.87-1.56-2.63-1.2-4.13-1.64-.73-.22-2.28.86-1.14,1.19Z"/><path class="cls-5" d="M256.56,161.4c0,1.55.07,3.1.11,4.65,0,1,2,.61,1.95-.18,0-1.55-.08-3.1-.11-4.65,0-1-2-.61-1.95.18Z"/><path class="cls-5" d="M250.11,170.76c1.12,0,1.46-1.47.15-1.47-1.12,0-1.46,1.47-.15,1.47Z"/><path class="cls-5" d="M252.49,176.08c1.08,0,1.5-1.36.18-1.36-1.08,0-1.5,1.36-.18,1.36Z"/><path class="cls-5" d="M256.9,175.52l0,.78c0,.47,1.94.13,1.93-.52,0-.26,0-.52,0-.77,0-.48-1.94-.14-1.93.51Z"/><path class="cls-5" d="M192.42,101.9a1.51,1.51,0,0,0,.74,1.47,4.75,4.75,0,0,0,2.12.21,2,2,0,0,0,1.29-.49c.31-.33-.27-.4-.48-.39a3.24,3.24,0,0,1-1.28-.1c-.42-.17-.45-.86-.46-1.22s-2-.09-1.93.52Z"/><path class="cls-5" d="M193.21,103.43c.06.66.74.91.79,1.53s2,.27,1.94-.51-.74-.91-.8-1.54-2-.26-1.93.52Z"/><path class="cls-5" d="M194.13,110.39c.09,1,1.33,1.07,2.13,1a1.55,1.55,0,0,0,1.27-.53c.25-.38-.2-.62-.53-.61s-.89.13-.93-.43-2-.25-1.94.52Z"/><path class="cls-5" d="M194.3,115.11l.77.76c.36.35,2.12-.37,1.83-.66l-.78-.75c-.35-.35-2.11.37-1.82.65Z"/><path class="cls-5" d="M192.88,121.28a1.84,1.84,0,0,0,.13.81,3.4,3.4,0,0,0,.73.83c.46.45,2.27-.27,1.8-.73a3.13,3.13,0,0,1-.63-.68,1.7,1.7,0,0,1-.09-.74c0-.55-1.95-.19-1.94.51Z"/><path class="cls-5" d="M192.92,123.41c0,1,.05,2.07.08,3.1s2,.81,2-.12-.05-2.07-.07-3.1-2-.81-2,.12Z"/><path class="cls-5" d="M193.92,132.89c0,.26,0,.52,0,.78,0,.68,1.95.28,1.93-.52,0-.26,0-.52,0-.77,0-.68-1.95-.28-1.93.51Z"/><path class="cls-5" d="M194.07,139.69c0,.26,0,.52,0,.78,0,1,2,.67,2-.16,0-.26,0-.52,0-.78,0-1-2-.67-2,.16Z"/><path class="cls-5" d="M196.85,145.26a2.05,2.05,0,0,0-1.63.86,2.79,2.79,0,0,0-.19,1.49c0,.58,1.94.21,1.93-.52a4.85,4.85,0,0,1,0-.66,1.7,1.7,0,0,1,0-.22c.07-.36.21,0-.44.09.36,0,1-.24,1.1-.65s-.59-.41-.82-.39Z"/><path class="cls-5" d="M196,152.72c-.63,1.33-1.47,2.53-1.48,4.06,0,.85,1.93.46,1.94-.22,0-1.43.76-2.52,1.35-3.77.42-.88-1.52-.68-1.81-.07Z"/><path class="cls-5" d="M194.63,163a18.17,18.17,0,0,0,2,15c.46.72,2.31,0,1.78-.85-2.82-4.42-3.15-9.36-1.78-14.35.25-.9-1.72-.67-2,.16Z"/><path class="cls-5" d="M185.08,103.88a5,5,0,0,0-.85,3.48c0,1,2,.69,2-.16a4.15,4.15,0,0,1,.5-2.76.54.54,0,0,0-.24-.92,1.34,1.34,0,0,0-1.37.36Z"/><path class="cls-5" d="M183.75,119c0,1,.05,2.07.08,3.11s2,.69,1.95-.16c0-1-.05-2.06-.07-3.1s-2-.69-2,.15Z"/><path class="cls-5" d="M184,130a2.69,2.69,0,0,1-.52,1.91c-.26.3-.24.62.2.72a1.54,1.54,0,0,0,1.36-.37,3.66,3.66,0,0,0,.89-2.78c0-.65-2-.26-1.93.52Z"/><path class="cls-5" d="M185,139.25a11.08,11.08,0,0,0-.66,4.75c0,.26,1.94,0,1.93-.52a10.67,10.67,0,0,1,.63-4.59c.11-.26-1.7-.11-1.9.36Z"/><path class="cls-5" d="M185.3,151.73a2.8,2.8,0,0,1-.62,2.09c-.31.35.26.5.5.5a1.77,1.77,0,0,0,1.28-.51,3.48,3.48,0,0,0,.77-2.6c0-.53-1.95-.17-1.93.52Z"/><path class="cls-5" d="M186.28,160.89a5.56,5.56,0,0,0,.11,4.78c.3.62,2.18,0,1.93-.52a5.18,5.18,0,0,1-.11-4.53c.23-.54-1.68-.32-1.93.27Z"/><path class="cls-5" d="M187.29,171.71a17.38,17.38,0,0,0-.51,10.24c.18.71,2.11.2,1.93-.52a16.9,16.9,0,0,1,.52-10c.24-.7-1.71-.45-1.94.23Z"/><path class="cls-5" d="M183.29,148.79l2.27-.06a2.94,2.94,0,0,0,1.36-.36c.31-.18.27-.37-.09-.36l-2.27.05a3,3,0,0,0-1.36.37c-.31.18-.27.37.09.36Z"/><path class="cls-5" d="M184.93,143.51l1.51,0a1.58,1.58,0,0,0,1.28-.53c.25-.37-.22-.57-.53-.57l-1.51,0a1.58,1.58,0,0,0-1.27.53c-.26.37.21.58.52.57Z"/><path class="cls-5" d="M186.25,141.33c0-.26,0-.52,0-.77,0-1-2-.68-2,.15,0,.26,0,.52,0,.78,0,1,2,.68,2-.16Z"/><path class="cls-5" d="M185.34,135.84a11.88,11.88,0,0,1,2.11-3.05c.31-.33-.26-.38-.46-.37a2.05,2.05,0,0,0-1.29.48,12.72,12.72,0,0,0-2.27,3.26c-.16.34.67.25.78.23.34,0,1-.19,1.13-.55Z"/><path class="cls-5" d="M185.22,133.68a4.87,4.87,0,0,0,.75-3.38c0-.56-1.94-.19-1.93.52a4.15,4.15,0,0,1-.61,2.85c-.3.36.26.52.52.53a1.72,1.72,0,0,0,1.27-.52Z"/><path class="cls-5" d="M185.13,126.44a2.87,2.87,0,0,1,.61-2.14c.29-.33-.25-.37-.47-.36a2.06,2.06,0,0,0-1.29.47,3.41,3.41,0,0,0-.78,2.55c0,.37,1.94.06,1.93-.52Z"/><path class="cls-5" d="M185.09,125c.75-2.59,1.32-5.22,2.08-7.81.17-.6-1.75-.32-1.93.28-.75,2.58-1.32,5.22-2.08,7.81-.17.59,1.75.31,1.93-.28Z"/><path class="cls-5" d="M186.31,115.45a1.3,1.3,0,0,1-.06-2c.3-.35-.26-.48-.5-.48a1.82,1.82,0,0,0-1.24,3.18c.42.44,2.24-.26,1.8-.72Z"/><path class="cls-5" d="M187,107.78c0-.26,0-.52,0-.78s-2,0-1.93.52c0,.26,0,.51,0,.77s1.94,0,1.93-.51Z"/><path class="cls-5" d="M186.89,105.45c0-1.15-.18-2.65.6-3.59.31-.38-.26-.62-.54-.63a1.57,1.57,0,0,0-1.27.54c-.93,1.13-.75,2.83-.72,4.2,0,.67,1.95.27,1.93-.52Z"/><path class="cls-5" d="M186.87,98.1c.27,0,.16.12.06-.09a2,2,0,0,1-.15-.52,6.75,6.75,0,0,1-.11-1.19c0-.9-2-.52-1.94.2,0,1.07,0,2.75,1.43,2.82a1.39,1.39,0,0,0,1.26-.55c.24-.4-.2-.65-.55-.67Z"/><path class="cls-5" d="M186.62,94c0-.78,0-1.55-.05-2.33,0-1-2-.66-1.95.17s0,1.55,0,2.32c0,1,2,.66,2-.16Z"/><path class="cls-5" d="M188,87.58c0-.26,0-.52,0-.77s-2,0-1.94.51c0,.26,0,.52,0,.78s2,.05,1.93-.52Z"/><path class="cls-5" d="M168.94,105.62c-.51,0-1.67.13-1.65.83,0,.33.87.41,1.09.46a18.94,18.94,0,0,0,3.59.44,1.62,1.62,0,0,0,1.28-.52c.27-.36-.23-.53-.52-.53a15,15,0,0,1-2-.21c-.39-.06-.79-.12-1.19-.2l-.39-.08c-.21,0,0,0,0,.12l-.2.4-.82.34c.08,0,.07,0,0,0a1.63,1.63,0,0,0,1.27-.52c.27-.36-.22-.54-.51-.53Z"/><path class="cls-5" d="M167.59,106.4c.07.84.75,1.48.81,2.31,0,.49.83.52,1.15.43a.92.92,0,0,0,.78-.94c-.06-.84-.74-1.47-.81-2.31,0-.49-.82-.52-1.15-.43a.92.92,0,0,0-.78.94Z"/><path class="cls-5" d="M160.66,107c.85,0,2-1.3.69-1.3-.85,0-2,1.3-.69,1.3Z"/><path class="cls-5" d="M155.56,104.8l3.78-.09c1.06,0,1.52-1.35.2-1.32l-3.78.1c-1.06,0-1.52,1.35-.2,1.31Z"/><path class="cls-5" d="M166,99.57a15.62,15.62,0,0,0,4,2.31c.52.25,2.3-.52,1.56-.88a14.64,14.64,0,0,1-3.71-2.16c-.46-.42-2.27.3-1.8.73Z"/><path class="cls-5" d="M169.74,108.25c.78,0,2-1.18.73-1.18-.78,0-2,1.18-.73,1.18Z"/><path class="cls-5" d="M169.18,91.34a75.57,75.57,0,0,1,.44-13.2l-2,.16q.15,6.2.29,12.4c0,1,2,.68,2-.16l-.3-12.4c0-1-1.83-.67-2,.16a73.67,73.67,0,0,0-.44,13.2c0,1,2,.67,2-.16Z"/><path class="cls-5" d="M165.55,115.77a4.41,4.41,0,0,1-.59,2.94c-.27.32.24.32.45.3a2.23,2.23,0,0,0,1.3-.46,4.76,4.76,0,0,0,.77-3.3c0-.31-1.94,0-1.93.52Z"/><path class="cls-5" d="M166.88,126a5.48,5.48,0,0,0,2.19-.43,3.36,3.36,0,0,0,1.62-1.74c.14-.3-.68-.17-.77-.16-.3.06-1,.19-1.13.52a3.37,3.37,0,0,1-.73,1.09c-.23.21.09,0,.22,0s-.13,0-.14,0a2.86,2.86,0,0,0-1.37.36c-.3.19-.27.41.11.4Z"/><path class="cls-5" d="M165.36,126.43a1.82,1.82,0,0,0-1.52.88c-.3.5.06,1.19.36,1.59a1.21,1.21,0,0,0,.79.56h.25a.16.16,0,0,1-.15,0,2,2,0,0,1,.22.19,2,2,0,0,0,1.46.57,1.08,1.08,0,0,0,1.06-.81c0-.52-.5-.67-.91-.68.24,0,.13,0,0-.1l-.28-.26a1.94,1.94,0,0,0-1.26-.38l.81.31a3.06,3.06,0,0,1-.42-.53,1.34,1.34,0,0,1-.07-.18c0-.08-1.41.42-.5.34.44,0,1-.31,1-.81s-.5-.72-.9-.68Z"/><path class="cls-5" d="M164.49,132.51a3.05,3.05,0,0,0-.49,1.79c.14.62,1,.91,1.47,1.15a1.34,1.34,0,0,0,1.39-.13c.27-.2.56-.74.11-.95-.26-.13-.52-.25-.77-.39l-.22-.14s-.06-.08,0,0,0-.19,0-.05a.94.94,0,0,1,.06-.29,6.26,6.26,0,0,1,.35-.8c.45-1-1.5-.93-1.84-.19Z"/><path class="cls-5" d="M166.63,146.91c.4,0,2.2-.79,1.25-.79-.4,0-2.2.79-1.25.79Z"/><path class="cls-5" d="M168.76,155.25c0,.52,0,1,0,1.55s1.95.14,1.93-.52c0-.51,0-1,0-1.55s-1.95-.14-1.93.52Z"/><path class="cls-5" d="M359.54,138.8c.79,2.46,6.68,1,8.42.92l-.85-.49c0,1,.05,2.07.07,3.1,0,.67,1,.53,1.37.35,2.05-.84,4-2.09,6.23-2.36.31,0,1.1-.26,1.09-.7,0-.25,0-.51,0-.77l-1.55.67,2,1.32c.54.52,2.37-.24,1.78-.79a5.87,5.87,0,0,0-2.61-1.67c-.39-.1-1.57.09-1.55.68,0,.26,0,.51,0,.77l1.08-.7c-2.64.31-4.83,1.64-7.25,2.64l1.36.35c0-1-.05-2.07-.07-3.1,0-.47-.48-.51-.85-.49-1.13.05-6.29,1.11-6.73-.25-.24-.75-2.16-.21-1.93.52Z"/><path class="cls-5" d="M386.38,123.38c1.08,19.91-2,39.71-1.6,59.61l1.94-.35c-.83-12.55,1.08-24.95,2.44-37.39.55-5.05,0-10-.35-15.08-.15-1.94-1.28-7.62.46-8.87A32.27,32.27,0,0,0,394,117l-1.55.29c2.87,2,5.83,3.71,9.44,2.84,3.3-.81,5.64-1.79,5.71,3.08a121.53,121.53,0,0,1-.76,12.5c-1.46,16-1.23,32.26-.91,48.28,0,1,2,.62,2-.17-.23-11.22.1-22.43,0-33.65-.11-10.88,2.29-21.6,1.46-32.5,0-.35-.62-.44-.86-.4a45.06,45.06,0,0,0-5,1.15c-3.81,1.1-6.36,0-9.47-2.19a1.33,1.33,0,0,0-1.55.28,19.06,19.06,0,0,1-5.55,4.54c-.2.1-.57.33-.56.6.15,4.26.51,8.5.84,12.74a91.88,91.88,0,0,1-.8,18.38c-1.2,10.11-2.26,20.19-1.58,30.38,0,.76,1.95.37,1.94-.35-.36-20,2.67-39.93,1.58-59.94,0-.8-2-.36-1.93.51Z"/><path class="cls-5" d="M408.16,110l-1.47,1.6,1.75.09c-.2-9.63-.08-19.25-.08-28.88,0-1.92,0-3.84,0-5.76,0-1.47-.88-5,.45-5.09,3-.2,6-.58,8.94-.74,3.26-.19,7.44-.36,10.12,1.83,2.25,1.83,1.32,6.4,1,8.82-.74,6-2.8,12-2.25,18,0,.35.62.34.85.33,4.36-.23,1.8,10.89,1.47,13.19-1,7-.78,14.27-.7,21.34.19,16.49,2.38,33,1.91,49.46,0,.87,1.92.5,1.94-.21.49-17.13-1.74-34.29-1.93-51.43a133.35,133.35,0,0,1,.87-20.38c.52-3.65,1.91-8.85-.26-12.21a2.8,2.8,0,0,0-2.34-1c-.26,0,.73-7.8.83-8.4.88-5.22,2.72-11,1.53-16.3-1.72-7.67-18.44-3.66-23.41-3.45-.3,0-1.1.28-1.09.7.29,13.44-.07,26.89.21,40.33,0,.82,1.4.48,1.76.1l1.47-1.59c.8-.86-1.08-.93-1.57-.41Z"/><path class="cls-5" d="M408.16,83.42l.78.76a1.16,1.16,0,0,0,1.3.11c.27-.13.82-.6.47-.94l-.77-.75a1.16,1.16,0,0,0-1.3-.11c-.27.12-.82.59-.48.93Z"/><path class="cls-5" d="M410.62,89.15l.75,0a1.08,1.08,0,0,0,1.06-.81c.05-.51-.5-.7-.91-.69l-.75,0a1.08,1.08,0,0,0-1.06.81c0,.51.5.7.91.69Z"/><path class="cls-5" d="M414.43,95.52c0,1.55.07,3.1.11,4.65,0,.37,1.94.06,1.93-.51,0-1.55-.08-3.11-.11-4.66,0-.36-1.95,0-1.93.52Z"/><path class="cls-5" d="M422.57,85.7c-1.08,2.4-.93,4.94-.78,7.51.28,5.1.34,10.2.35,15.31,0,10.15-.12,20.29.12,30.43q.58,24.35,1.17,48.68l1.94-.21v-.17c0-.89-2-.49-1.94.21v.17c0,.88,2,.49,1.94-.21q-.51-22.44-1.07-44.87c-.25-10.13-.25-20.24-.22-30.37q0-7.83-.13-15.66c-.08-3.51-1.07-7.39.43-10.72.41-.91-1.52-.74-1.81-.1Z"/><path class="cls-5" d="M422.31,109.29c-.4,10.59-.24,21.19,0,31.79.23,10.28,1.43,20.81-.76,30.95-.13.59,1.79.27,1.91-.29,1.95-9,1.14-18.17.87-27.29-.34-11.89-.54-23.79-.1-35.68,0-.44-1.9-.14-1.93.52Z"/><path class="cls-5" d="M420.9,144.87a78.5,78.5,0,0,0-3.9,26.61c0,.59,1.94.22,1.93-.51a77.71,77.71,0,0,1,3.9-26.35c.22-.63-1.71-.38-1.93.25Z"/><path class="cls-5" d="M417.18,147.43c-.47,10.08-.27,20.17,0,30.25,0,.26,1.94,0,1.93-.51a125.75,125.75,0,0,1,.38-15.53l-1.93.52c.15,8.28-.3,16.55-.16,24.83,0,.25,1.94,0,1.93-.52-.14-8.28.31-16.55.16-24.83,0-.26-1.88,0-1.93.52a123.71,123.71,0,0,0-.38,15.52l1.93-.51c-.24-10.09-.44-20.17,0-30.26,0-.21-1.91,0-1.93.52Z"/><path class="cls-5" d="M406,122.89q.72,30.22,1.45,60.47c0,.29,1.94,0,1.93-.52,0-1-.05-2.06-.07-3.1,0-.28-1.95,0-1.93.52,0,1,.05,2.07.07,3.1l1.93-.52q-.72-30.22-1.45-60.47c0-.29-1.94,0-1.93.52Z"/><path class="cls-5" d="M406.57,146.15c.34,11.07,1.89,22.1.79,33.18l1.94-.21c-.22-9.61-.29-19.16.83-28.72l-1.94.21c.23,9.83.41,19.65-.05,29.48,0,.87,1.9.51,1.94-.21.46-9.83.28-19.65.05-29.48,0-.88-1.86-.51-1.94.21-1.12,9.55-1.05,19.11-.83,28.72,0,.88,1.87.51,1.94-.21,1.11-11.18-.45-22.32-.8-33.49,0-.71-2-.3-1.93.52Z"/><path class="cls-5" d="M384.44,118.5a139.69,139.69,0,0,0,2.15-35.93c-.07-.87-2-.5-1.95.32.29,10.34,1.21,20.65,1.5,31,0,.51.45.7.9.68l.76,0a1.15,1.15,0,0,0,1-.61c3.75-10,1.84-20.93,3.09-31.3l-2,.13c.39,11.39,2.64,22.65,2.32,34.07,0,1,1.94.8,2-.13.31-11.43-1.94-22.67-2.33-34.07,0-1.06-1.85-.79-2,.13-1.09,9,0,18.2-1.81,27.15-.94,4.63,0,2.8-.13.26-.11-3-.29-6.1-.47-9.14-.36-6.09-.74-12.17-.92-18.27l-1.94.33c1,11.84-.11,23.86-2.19,35.54-.18,1,1.8.78,2-.13Z"/><path class="cls-5" d="M382.47,117.2c-1.39,5.08-1.28,10.39-1.16,15.62,0,.28,1.95,0,1.94-.52-.13-5.17-.25-10.43,1.12-15.46.09-.35-1.78-.1-1.9.36Z"/><path class="cls-5" d="M381.85,142c-2.39.09-4.14.36-6,2-.64.56-.21,1.17.55,1.15,4.93-.13,2.25,34,2.32,38.85l2-.15a15.67,15.67,0,0,1,.57-5.26c.33-1.07-1.59-1-1.85-.22a17.2,17.2,0,0,0-.68,5.63c0,1,2,.71,2-.15-.2-13.16,2.43-26.91-1.72-39.71-.12-.37-.53-.45-.88-.44l-1.51,0,.56,1.14a6.64,6.64,0,0,1,4.52-1.41c1.09,0,1.49-1.46.17-1.42Z"/><path class="cls-5" d="M377.42,159.88c-1.37,5.15-.68,10.63-3.35,15.42-.54.95,1.43,1,1.85.23,2.74-4.9,2.05-10.51,3.46-15.79.25-.94-1.73-.72-2,.14Z"/><path class="cls-5" d="M372.18,161.75a159.44,159.44,0,0,0-1.08,17.87l1.93-.51-.39-16.29c0-.31-1.94,0-1.93.52q.18,7.36.35,14.73c0,.31,1.95,0,1.93-.51q-.17-7.38-.35-14.74l-1.93.52.39,16.28c0,.31,1.94,0,1.93-.51a164.17,164.17,0,0,1,1.08-17.87c0-.25-1.87-.06-1.93.51Z"/><path class="cls-5" d="M199.57,204.22c12,1.27,24,.77,36,.72,12.4-.05,24.42,3,36.79,2.89.22,0,1.84-.56,1.55-.68-15.13-6.32-34.92.27-48.91,6.86-.12.05-.68.37-.25.44,11.11,1.79,21.81-1.74,32.61-3.88,1.59-.31,3.19-.56,4.8-.76.83-.12,7.41-1,3.73.36a89.8,89.8,0,0,1-12.2,3.23A63.26,63.26,0,0,0,241,217.48c-.28.13-.66.47-.09.45l21.52-.54c2.8-.07-1.95.64-2.27.74-1.2.36-2.39.74-3.59,1.11-3.72,1.16-7.44,2.33-11.18,3.41-.05,0-1.16.43-.85.57,3.87,1.65,7.88,2.1,12.05,2.41,2.62.19,5.22.36,7.82.7,1.92.26-2.87,3.78-3.25,4.06-6.22,4.68-12.28,8-14.59,15.91-.09.31,1.77.09,1.9-.36,2.9-10,12.4-12.94,19.09-19.79.12-.13.13-.22-.07-.26-6.57-1.15-13.39-.6-19.78-2.73-2.15-.72,2.29-1.33,2.55-1.41,1.2-.36,2.39-.74,3.58-1.11,3.73-1.16,7.44-2.33,11.19-3.41.21-.06,1.42-.63.57-.61l-12.58.31-7.1.18c-5.72.15,1.56-1.56,3-2,7-2,14.18-3,20.93-5.94.31-.13.65-.45.09-.45-6.43,0-12.65,1.23-18.9,2.64-3.37.77-6.73,1.53-10.14,2.13a54.74,54.74,0,0,1-8,.78c-1.35,0-7.46.17-4.69-1.08,12.74-5.77,30.32-11.11,43.9-5.44l1.55-.68c-11.74.12-23.14-2.78-34.9-2.88-12.55-.11-25,.62-37.56-.7-.44-.05-2,.65-1.6.7Z"/><path class="cls-5" d="M121.81,211.05c11.08-1.26,22.18-.83,33.29-.28,5,.24,9.89.49,14.83.62,5.82.16,12.26-.16,17.79,1.79.21-.33.42-.65.64-1-17,5.21-37.36-5.71-52.65,6.29-.34.27-.17.61.19.7,10.92,2.77,22.13-.32,32.9-2.35.92-.18,1.58-1.35.26-1.1-7.53,1.42-15,3.17-22.68,3.45a37.35,37.35,0,0,1-6.25-.39c-3.86-.52,1.15-2.53,2.19-3,3.77-1.66,8.1-2,12.16-2.06,11.33-.3,23,2.85,34.14-.55.23-.07,1.36-.72.64-1-4.41-1.55-8.87-1.62-13.51-1.7-6-.1-12-.49-18-.79-11.9-.59-23.79-1.14-35.65.21-.95.11-1.6,1.25-.26,1.1Z"/><path class="cls-5" d="M176.39,216.46c-3.92,1.08-7.81,2-11.13,4.45-.2.15-.33.44,0,.55,3.36,1.16,6.73.83,10.22.65a23.09,23.09,0,0,1,4.24.19c3.94.54.81,2.45-1,2.94a25.59,25.59,0,0,0-4.6,1.45c-.15.07-.87.42-.54.69a7.75,7.75,0,0,0,4.68,1.65c.92.07,5.11-.66,5.13.33l.6-.6c-3.85,1.57-7.77,2.17-10.86,5.14-.78.76,1.13.61,1.53.23,2.82-2.72,6.56-3.28,10.06-4.7.25-.1.61-.28.6-.59s0-.52,0-.78-.45-.24-.57-.23c-3.14.13-6.69.95-9.34-1.17l-.54.69c3.37-1.58,7-1.39,9.49-4.45.15-.17.08-.33-.11-.42-3.29-1.57-6.67-1.44-10.24-1.23-1.72.11-8.71.12-3.9-2a47.68,47.68,0,0,1,6.53-2c1.14-.32.92-1.15-.22-.84Z"/><path class="cls-5" d="M184,219.35c2.44,2.21,5.6,2.33,8.67,3,.51.11,2.26-.69,1.22-.92-2.86-.62-5.81-.72-8.09-2.78-.43-.4-2.22.33-1.8.7Z"/><path class="cls-5" d="M198.77,225.86c-5.14.92-10.13,1.37-14.41,4.6a.36.36,0,0,0,0,.64,30.26,30.26,0,0,0,5.5,2.5c3.17,1.09-.8,4.86-1.75,5.73-2.66,2.46-5.66,4.28-7.27,7.65a.33.33,0,0,0,.14.5,24.87,24.87,0,0,1,4.32,2.52c2.47,1.93-1.65,4.22-3.2,5.21-.26.17-.46.39-.29.69.94,1.65,2.43,2.44,3.85,3.64,2.77,2.35-1.56,4.22-2.38,5.86-1.26,2.5-1.53,5.05.93,6.73,5.68,3.87,2,9.85.21,15.07-1,2.83-.88,5.64-1.32,8.56-.49,3.24-1.58,6.2-1.69,9.53,0,.33.3.43.6.44,8.4.2-2.36,10.73,1.34,14.52.48.5,2.32-.23,1.79-.77-3.21-3.28,7.29-14.64-1.35-14.85-.86,0,2.91-18.69,3.59-20.53,1.38-3.74,4-9.37-.43-12.17-3.13-2-3.74-5-.47-7.84,1.28-1.12,2-1.8,1.85-3.52-.21-2.13-2.9-3.23-4.22-4.54-.34-.34,3.36-3.23,3.65-4,.61-1.6-.2-2.45-1.45-3.42a16.52,16.52,0,0,0-2.37-1.39c-2.25-1.21,1.19-3.7,2.08-4.52,2.95-2.71,7.2-4.89,6.95-9.42,0-.17-.26-.24-.38-.28-2.12-.67-9.43-2.09-2.28-4.5,2.61-.88,5.49-1.07,8.19-1.56.93-.17,1.59-1.34.26-1.1Z"/><path class="cls-5" d="M230,218c-2.13,13.34-1.33,26.81-2.45,40.22s-2.71,27-3.17,40.6c0,.83,1.91.44,1.93-.23.47-13.57,2-27.07,3.17-40.6s.33-26.88,2.45-40.22c.13-.78-1.82-.45-1.93.23Z"/><path class="cls-5" d="M181.7,222.42l2,81.4c0,.6,1.95.22,1.93-.52l-2-81.4c0-.59-1.94-.22-1.93.52Z"/><path class="cls-5" d="M212.72,224c4.51,12.94,2.92,27.31,3.24,40.79q.58,24.15,1.16,48.31c0,.3,1.95,0,1.93-.52l-1.11-46.34c-.33-14,1.42-29.27-3.29-42.76-.15-.43-2.06.15-1.93.52Z"/><path class="cls-5" d="M204.5,227.89c.68,27.65,2,55.29,2,83,0,.9,1.94.53,1.94-.2,0-27.67-1.31-55.31-2-83,0-.91-2-.53-1.94.2Z"/><path class="cls-5" d="M212.76,257.32l.93,38.76c0,.58,1.95.21,1.93-.52q-.45-19.38-.92-38.76c0-.57-1.95-.2-1.94.52Z"/><path class="cls-5" d="M292,221.19c.45,19.72.39,39.44-.5,59.14-.76,16.69-2.44,33.62.09,50.25.11.67,2.05.21,1.94-.52-2.72-17.8-.69-36,.07-53.84.79-18.51.76-37,.33-55.55,0-.63-1.95-.24-1.93.52Z"/><path class="cls-5" d="M284.25,220.87c4.57-.22,1,32.1,1.05,36.17,0,.63,1.67,0,1.86-.26,5.37-8.38,6.36-21,4.63-30.63-.12-.7-1.75,0-1.93.39-3.3,7.59-6.69,19.33-3.12,27.36.28.63,2.17,0,1.93-.52-3.53-7.92-.17-19.54,3.12-27.1l-1.93.39c1.68,9.34.77,21.91-4.49,30.11l1.86-.26c0-4.55,4.55-37-2.21-36.67-.66,0-2.06,1.09-.77,1Z"/><path class="cls-5" d="M284.57,257.72l-1.45,2.37a.17.17,0,0,0,.05.2c2.63,2.23,12.89,5.38,7.63,9.56-3.54,2.81-7.71,4.88-11,8-.16.15-.07.31.1.38a20.77,20.77,0,0,0,7.29,1.37c4,.14-.66,3.64-2,4.78-1.14,1-4.36,4.87-3,6.39.32.35,1.51.12,1.87.1,2-.11,3.67,1.22,5.61,1.37.68,0-2,5.14-2.06,5.21-1.67,2-3.22,3.24-3.51,6,0,.23.15.27.34.3,2.08.35,4.22.25,6.27.76,1.61.4.18,3-.09,3.73-1.05,3-2.23,5.89-3.18,8.9-1.43,4.5-2.6,10.44,1.89,13.53.49.35,2.2-.43,1.81-.69-7.81-5.38.78-18.72,2.46-25.46,0-.16-.05-.21-.17-.27a11,11,0,0,0-5-1.06c-4.61-.19-.61-4.17.91-5.81.68-.73,3.35-5.5,1.94-6a19.64,19.64,0,0,0-7.06-1.43c-.78.05.63-3.15.61-3.09.62-1.61,2.28-2.73,3.54-3.81a11.39,11.39,0,0,0,3.07-4.11c.13-.29-.43-.31-.56-.31a28,28,0,0,1-8.12-.72c-1.65-.44,2.76-3.28,3-3.47,2.54-1.78,5.56-3.36,7.74-5.6,1.34-1.39.55-3.07-.58-4.38-2.27-2.61-9.3-2.66-6.56-7.12.21-.35-1.6-.21-1.92.3Z"/><path class="cls-5" d="M283.57,215.86c-3.53,10.27-6.41,20.73-9.08,31.26-.13.53,1.78.24,1.92-.3,2.67-10.53,5.55-21,9.07-31.27.17-.48-1.72-.24-1.91.31Z"/><path class="cls-5" d="M271.79,228.58c-3.13,4.57-3.5,10.33-3.42,15.7,0,.35,1.94.05,1.93-.52-.08-5.33.3-11,3.39-15.51.16-.23-1.58-.14-1.9.33Z"/><path class="cls-5" d="M265.24,247.71c.66,0,2.08-1,.78-1-.65,0-2.08,1-.78,1Z"/><path class="cls-5" d="M335.73,213.48c4.79-.2,9.54-.93,14.33-1.13l-.51-1c-6.25,3.5-14.92,3.06-19.6,9.16-.35.46-.08.78.44.85,7.93,1.14,15.17-3.14,22.81-4.45l-.3-1.11c-8,3.9-16.52,6.82-24.12,11.59-.38.24-.54.85,0,.95,7.39,1.31,14.72-1,21.82-2.87l-.95-.8c-4.49,3.8-9.91,6.29-14.1,10.44a.46.46,0,0,0,.22.82c4.6,1.39,9.35.66,14.07.46l-.8-.69c-3.05,6.38-10.84,7.84-13.78,14.55-.3.69-.9,2.3.09,2.84,2.54,1.38,5.13,1.51,7.33,3.72,4.66,4.7,1.78,13.73.21,19.12-1.77,6.1-4.48,12.07-5.36,18.4l1.95-.19c1.13-17.46,7.33-34,9-51.44,1.09-11.81,2.34-26.28-8.93-33.54-.11.33-.23.67-.35,1a24.78,24.78,0,0,1,11.4-1.15c.23,0,5.44,1.63,5.07,1.93-2.17,1.75-6,.73-8.34.12-6-1.55-11.36-5-17.15-7.17l-.93,1.21c7.9.61,15.77,1.1,23.7,1,.38,0,1.66-.76.86-1.14-8.11-3.85-16.54-2.42-25.21-2.48a19.38,19.38,0,0,1,4.16-1.71,21.1,21.1,0,0,1,4.4-.68,37.39,37.39,0,0,1,7.69.44c4.87.59,9.63,1.53,14.55,1.53.83,0,2-1.26.71-1.26-11.84,0-23.33-5-34.18,1.87-.55.35-.38,1,.26,1C335,204,344,202,352.29,206l.86-1.14c-7.76.14-15.47-.37-23.2-1-.61-.05-2,.8-.93,1.22,7.6,2.87,20.57,12.51,28.55,6.06.32-.26.51-.57.14-.88-4.95-4.07-13.72-3.25-19.33-1.06-.38.15-.84.68-.35,1,12.21,7.87,9.51,25.66,7.89,38.07-2,15.52-7.33,30.39-8.35,46.07-.06.92,1.84.56,1.95-.19,1.55-11.23,9.52-22.34,7.11-34-.92-4.44-4.88-6.81-9-7.8-2.5-.61,1.53-5.69,2.07-6.29a26.88,26.88,0,0,1,4.9-3.69c2.63-1.78,4.89-3.66,6.28-6.56.27-.55-.39-.7-.8-.69-2.1.09-4.19.24-6.29.35-3.24.17-8,.79-3.36-2.77,3.52-2.68,7.43-4.73,10.83-7.6.73-.62-.51-.92-.95-.8-2.74.71-5.49,1.43-8.25,2.08a52.49,52.49,0,0,1-6.45,1c-3.37.36-5.81.61-1.27-1.86,6.22-3.39,13-5.71,19.35-8.8.78-.38.65-1.27-.3-1.11a65.55,65.55,0,0,0-8.58,2.23c-1.95.62-3.9,1.2-5.89,1.71,0,0-7.2,1.08-6.74.48,3.93-5.12,13.15-5,18.59-8,.8-.45.1-1-.51-1-4.79.2-9.54.93-14.33,1.14-1,0-1.54,1.3-.22,1.24Z"/><path class="cls-5" d="M408.58,205a4.9,4.9,0,0,0-3.4,1.23c-.41.37-.05.76.41.75l7.55-.19c.75,0,2.05-1.18.74-1.14l-7.55.19.41.74,1.1-.43a1.59,1.59,0,0,0,1.27-.54c.25-.38-.2-.62-.53-.61Z"/><path class="cls-5" d="M415,208.2l-9,2.55c-.3.09-1.39.62-.53.76,1.63.25,3.25.44,4.88.63.9.1,8.52.36,2.66,2.73-2.81,1.14-5.78,1.84-8.6,3-.21.08-.63.23-.63.51,0,.52,0,1,0,1.55,0,.13.28.15.35.16,2.58.36,5.18.33,7.74.87,4.63,1,1.47,2.69-.48,3.55-2.42,1.07-5.11,2.13-6.88,4.16s1,3.69,2.42,4.42a15.9,15.9,0,0,0,4.38,1.24c2.65.49,2.2.47.12,2.47-8,7.68-4.67,18.51-4.05,28.36a297,297,0,0,1-.06,39.24c0,.33,1.88.1,1.93-.51a300,300,0,0,0,.27-35.48c-.28-5.86-1.12-11.64-1.46-17.48a24,24,0,0,1,1.27-9.17c1.07-3.12,4.23-5.37,6.47-7.66.21-.22,0-.36-.26-.36-3.22-.05-13.71-2.43-7.55-6.67,2.79-1.92,6.44-2.45,9-4.63.09-.08.13-.21,0-.29a10.54,10.54,0,0,0-4.9-2.25c-.91-.19-6.43.09-6.47-1.26,0-1.15,10.71-4.4,12.49-5.44.21-.12.33-.35.05-.44a40.59,40.59,0,0,0-8.31-1.62c-2-.22-2.89,0-.17-.72l5.4-1.53c1.12-.32.95-1-.18-.67Z"/><path class="cls-5" d="M415.61,208c.26,11.09.46,22.18-.72,33.23-.09.82,1.86.46,1.94-.23,1.19-11.14,1-22.33.71-33.52,0-.65-2-.26-1.93.52Z"/><path class="cls-5" d="M402.24,213.4l1.51,0c.06-.44.13-.89.19-1.33-2,.09-5.92.57-5.56,3.45.29,2.32,2.2,4.21,3.27,6.2.38.7,2.23,0,1.78-.83-.83-1.54-2-2.89-2.71-4.47-1.17-2.52.83-2.93,3-3,1.06-.05,1.51-1.36.19-1.33l-1.51,0c-1.06,0-1.51,1.36-.19,1.33Z"/><path class="cls-5" d="M151.35,221.21c-21.22,6.5-43.69,2.62-65.46,3-.37,0-2.18.74-1.27.73,22.52-.45,45.42,3.3,67.37-3.42,1.33-.4.06-.56-.64-.35Z"/><path class="cls-5" d="M113.7,219.77a3.4,3.4,0,0,0,2.4-1.19c.41-.39.06-.68-.4-.7-16.28-.46-33-2.94-48.81,2.06-.56.18-1.35,1.05-.25,1l4.53-.11c.71,0,2.06-1.12.75-1.09l-4.53.12c-.08.34-.16.68-.25,1,8.17-2.58,16.57-3.07,25.09-2.93,7,.11,14.84,1.79,21.74.74-.92.14-1.6,1.26-.27,1.06Z"/><path class="cls-5" d="M96.55,216.46A114.3,114.3,0,0,0,109.31,213c.65-.22,1.28-1.31.16-1.35-13-.47-26.53-.26-38.95,4.11-.93.33-1.08,1.39.09,1.36,9.07-.17,18.14.27,27.21.09,1.09,0,1.48-1.43.17-1.41-9.07.18-18.14-.26-27.2-.08,0,.45.06.9.08,1.36,12.1-4.25,25.25-4.48,37.93-4,.06-.46.11-.91.16-1.36a117.07,117.07,0,0,1-12.76,3.42c-1.21.28-.84,1.59.35,1.32Z"/><path class="cls-5" d="M110.58,245.6c7.36-.92,14.68-2.34,22.12-2.26.27,0-4.6,3.29-4.2,3.07-1.26.68-2.57,1.25-3.86,1.87a29.06,29.06,0,0,0-6.11,3.77c-.35.29-.53.9.07,1,4.54,1.09,8.73,0,13.31-.27l-.83-.78a40.65,40.65,0,0,0-3.17,27.59c.2.86,2.13.35,1.93-.52a39.32,39.32,0,0,1,3.08-26.88c.27-.55-.38-.8-.82-.77-2.16.14-4.27.45-6.41.74a12.69,12.69,0,0,1-4.83-.19,23.75,23.75,0,0,1,4.62-2.65c3.68-1.82,7.15-3.43,10.12-6.34.42-.4,0-.91-.46-.94-8.21-.44-16.26,1.14-24.37,2.16-1,.13-1.51,1.52-.19,1.36Z"/><path class="cls-5" d="M145,235.67c-2.27,4.47-1.95,10.13-1.84,15,.14,6.43.93,12.82,1.13,19.24,0,.3,1.95,0,1.93-.51-.17-5.53-.75-11.05-1-16.57s-.88-12.39,1.71-17.5c.13-.24-1.66-.13-1.9.35Z"/></svg>