<svg id="layer1" xmlns="http://www.w3.org/2000/svg" viewBox="0 0 320.46 255.54"><defs><style>.cls-1{fill:#efddcb;}.cls-2{fill:#efbc97;}.cls-3{fill:#e0d0c1;}.cls-4{fill:#492d0c;}</style></defs><path class="cls-1" d="M274.26,46.39c-1.6-4.79-5.69-5.78-10.35-6.45-3.17-.45-6.24-.64-8.34-3.37-1.66-2.15-2.78-3.92-5.31-5.08-2-.94-4.31-.44-6.42-.11-2.5.38-5.54-.81-8.26-2-.46-.63-.94-1.13-1.2-1.16s-.7-.07-1-.1c-.17-1-1.78-3.21-2.4-3.21-.81,0-1.59,0-2.38.07-.32-.42-.65-.68-.93-.62-3,.77-6,1.65-9,2.56a5.07,5.07,0,0,1-.56-.13,21,21,0,0,1-3.81-2.43,7.94,7.94,0,0,0-3.05-1.2c-.46-.61-.95-1.06-1.23-1a36.59,36.59,0,0,0-8.6,3.2c-.3-.32-.59-.51-.76-.45-2,.74-4,1.52-6,2.34-4.88.56-9.89,0-14.82,1.32a95.83,95.83,0,0,0-20,8.19c-2.6,1.39-4.88,3.25-7.81,3.81-1.83.35-3.65.74-5.46,1.07a1.8,1.8,0,0,0-1.42-.41,73.42,73.42,0,0,1-9.92,1.1c-1.5,0-1.75,1.32-1.27,2.44a19.45,19.45,0,0,0-6.37,5.61c-.56.46-1.12.92-1.69,1.36-.9.68-1.79,1.39-2.68,2.08a20.74,20.74,0,0,0-2.52,1.93c-1,.77-2.06,1.51-3.15,2.2a5.74,5.74,0,0,1-.53.32c-.27-.25-.5-.38-.65-.3a21.39,21.39,0,0,0-3.52,2.44l-1.72.8c-.33-.36-.63-.58-.82-.49A17.42,17.42,0,0,0,106.84,63c-5,.55-7.47,7-8.88,12.14a46.52,46.52,0,0,1-8.72,8.39c-5,3.77-8.76,8-8.06,14.64a.45.45,0,0,0,.1.21,7,7,0,0,0-2.92,2.7,1.69,1.69,0,0,0-.56.38c-.56.57-1.07,1.13-1.55,1.71a1.38,1.38,0,0,0-.66.5,19.62,19.62,0,0,0-1,1.77l-.38.64c-.08.12-.14.23-.22.34h0c-.08.14-.17.26-.25.41a1.37,1.37,0,0,0-.09,1.1c-1.92,5.09-2.78,10.57-5.42,15.42-.62,1.15.77,2.62,1.81,2.84,4.33.92,7.9-.64,11-3.14l.23-.07a2.76,2.76,0,0,0,2,1.07c6.28.15,11.26-3.32,15.84-7.2,4.27-.25,8.51-1,12.81-1.07a2,2,0,0,0,.89-.21,17.16,17.16,0,0,0,1.31,4.82,2.28,2.28,0,0,0,1,1c1,1,2.82,1.69,3.3.1a2.77,2.77,0,0,0,.57.17,16.31,16.31,0,0,0,7.91-1.23c8.74-1.16,16.32-5.55,23.88-9.9,4.23,1.54,10.3.5,14.3.53,3.83,0,7.55.37,11.39-.07,5.67-.66,11.21-2,16.8-3.12,2.41-.49-1.13-2.66-2.52-2.37-8.33,1.7-16.51,3.77-25.08,3.17-2.35-.16-4.71-.08-7.06-.06-1.67,0-5.74.66-7.15-.35a3.26,3.26,0,0,0-3-.44c-5.64,3.25-11.43,6.87-17.69,8.87.63-1-2.81-1.94-3.4-1.83-.3,0-.59.12-.87.19.41-.3.81-.6,1.23-.89.71-.4,1.41-.79,2.11-1.2-.45,1.3,1.84,1.4,2.59,1.09a40.8,40.8,0,0,0,6.58-3.53c.45-.19.9-.37,1.34-.58.16,1,2,1.32,3.07.55,2.13-1.51,4.25-3.06,6.35-4.62a1.4,1.4,0,0,0,.29-.09,31.65,31.65,0,0,0,6.65-3.64c0,.5.49.75,1.18.81a1.64,1.64,0,0,0,.22.14,2.22,2.22,0,0,0,2.69.37c.22.76,1.41,1.14,2.48.67,1.22-.52,2.44-1,3.67-1.5a3,3,0,0,0,.74,0A43.85,43.85,0,0,0,175.3,101a45,45,0,0,0-4.17,3.78c-2,2,1.52,2.9,2.91,1.47a49.29,49.29,0,0,1,16.57-10.92q2.53-.6,5.07-1.17a2.51,2.51,0,0,0,1.65,0c1.13-.34,2.24-.7,3.36-1.07,9.29-2,18.63-3.77,27.84-6.07,10.52-1.15,21.1-1.82,31.61-3.16,1-.13,3.33-2,1.54-2.8a34.29,34.29,0,0,0-8.43-2.32c.8-.73,1.22-1.85-.25-2.23-7.58-1.94-15.92,1.3-23.09,3.92l-.31.07a171.19,171.19,0,0,0-22.95,7,102,102,0,0,0-16.32,4.89,2.55,2.55,0,0,0-1.17.23l-1,.43c-5.29,1.3-10.53,2.74-15.69,4.47.85-1,1.74-1.89,2.66-2.82a179.75,179.75,0,0,1,19.29-10.17c4.37-1.55,8.75-3.09,13.1-4.67,10.83-3.93,22.27-8.06,33.91-10.2,8.6-.7,17.33-.37,25.91-.66,1.39,0,4.22-2.59,1.67-3a80.37,80.37,0,0,0-27.88.84c-2,.17-4,.37-6.07.64-9.58,1.31-19.17,4.65-28.34,7.64-2.06.67-4.14,1.38-6.23,2.11a1.88,1.88,0,0,0-1.37-.2c-1.37.31-2.72.68-4.05,1.09,3.24-1.61,6.47-3.23,9.65-4.89,10.69-5.59,21.61-12.8,33.26-17.1.31.34.6.56.81.51A60.58,60.58,0,0,0,248,53.34a47.13,47.13,0,0,1,6.62-.81c1.11-.06,3.15-1.58,2.6-2.48a24.56,24.56,0,0,1,3-.52s0,0,0-.1a50.32,50.32,0,0,1,8.68-.45c.4,0-1.05-3.63-2-3.66a51.76,51.76,0,0,0-9.65.55l-1.85,0a5.47,5.47,0,0,0-1.09-2.12l2.09-1.4a.21.21,0,0,0,.08-.16,22.29,22.29,0,0,0,6.22,1.63c2.36.36,6.78.3,7.67,3C271.15,49.17,275.15,49.07,274.26,46.39ZM77.41,115.21a8.71,8.71,0,0,0-2,.94,65.8,65.8,0,0,1,2.69-8l.06,0a34.81,34.81,0,0,0-.73,4.06,2.25,2.25,0,0,0,1,1.86C78.07,114.45,77.73,114.83,77.41,115.21ZM247.33,81.33a38.08,38.08,0,0,1,4.89.53c-2.93.3-5.85.58-8.78.85C244.74,82.27,246,81.81,247.33,81.33Zm-16.94,1.9q2.78-.63,5.64-1.1-3.71,1.08-7.45,2l-1,.11C228.48,84,229.43,83.6,230.39,83.23ZM212.26,33.4q3.47-1.15,6.93-2.25a16,16,0,0,0,4.15-.42c.45,1.16,1.64,3.07,2.2,2.83a18.71,18.71,0,0,1,2.18-.83,8.36,8.36,0,0,0,1.61,2.77c-.39.15-.76.31-1.16.45-.18.06.17,1,.67,1.93-16,4.24-29.43,17.09-43.34,25.38-5.29,3.15-10.76,6.23-16.13,9.5,2.7-3.75,5.21-7.63,7.76-11.46C185.74,48.34,199.11,40.94,212.26,33.4ZM85.43,96.54l.21-.22a8.13,8.13,0,0,0,.45.73c-.23.09-.46.17-.68.27C85.41,97.05,85.42,96.79,85.43,96.54Zm4.74,9.57c-.19.48-.36,1-.52,1.47a1.8,1.8,0,0,0-1.14,0l-.86.32c.34-.79.67-1.58,1-2.38a11.36,11.36,0,0,1,2.14-2C90.61,104.34,90.41,105.23,90.17,106.11Zm9.54,1.54a13.8,13.8,0,0,0-.72,3.72,15,15,0,0,0-2,.29,21,21,0,0,1,2.77-5l0,0C99.74,107,99.74,107.32,99.71,107.65Zm3.65,4.84-.24,0c.11-.54.22-1.15.33-1.79C103.4,111.31,103.38,111.91,103.36,112.49Zm19.22.75c-1.13.81-2.25,1.65-3.35,2.52a13.92,13.92,0,0,0-.06-1.72,3.31,3.31,0,0,0,1.76-1l.4-.56a4,4,0,0,0,1.28-.11.82.82,0,0,0,.39.34A.81.81,0,0,0,122.58,113.24Zm6.63-11q-1.82,2.57-3.6,5.11l-.55.4c.06-.25.11-.49.17-.73.75-1.09,1.5-2.18,2.23-3.28.78-.8,1.53-1.61,2.27-2.45Zm7,6.61-.33.21q.51-.84,1.05-1.65l.34-.2Zm1-38.17a3.31,3.31,0,0,0-2,0l-.36.12c.28-1,.54-2,.75-3.08a.78.78,0,0,0-.27-.85,27.48,27.48,0,0,0,1.31-3.29c.38-1.24-1.4-3.78-2.78-3.25a9.18,9.18,0,0,0-4,3.21.58.58,0,0,0-.54.32,38.56,38.56,0,0,0-2.2,4.41c-.28.74.6,2.2,1.5,2.93a55.91,55.91,0,0,0-11.48,27.08c-.14,1,.8,1.19,1.76,1-.63,1.55-1.2,3.1-1.68,4.64-.42,1.37.91,1.62,2.08,1.37a24.75,24.75,0,0,0-.51,2.88,1.26,1.26,0,0,0,0,.4c-.23.57-.46,1.14-.68,1.71A9.66,9.66,0,0,0,116.4,108a2.23,2.23,0,0,0-2-.49,8.44,8.44,0,0,0-.92-1,2.74,2.74,0,0,0-1.78-2.36,2.42,2.42,0,0,0-2.77-1.65,6.77,6.77,0,0,0-2.54,1.23,2.34,2.34,0,0,0-.83-.19,6.74,6.74,0,0,0-2.28.3,3.57,3.57,0,0,0-3.29-2.25,3.63,3.63,0,0,0-2.48.82v-.29a2.78,2.78,0,0,0-2.35-2.47,2.46,2.46,0,0,0-2.76-1.55,10.74,10.74,0,0,0-1.52.47A2.49,2.49,0,0,0,88,96.51l-.56.14a7,7,0,0,1-.08-2.07,1.29,1.29,0,0,0-.13-.5,16,16,0,0,0,1.17-1.57.79.79,0,0,0,0-.69q.42-.52.84-1c.38.44.71.71.81.61,2-1.9,3.79-3.55,5-6.06,0,0,0,0,0-.07,1.17-1.21,2.38-2.38,3.59-3.56.45.53.83.88.86.74.3-1.31.67-3,1.17-4.69a39.42,39.42,0,0,0,3.91-5l.31-.22c.68,1,1.63,1.92,1.71,1.82,1-1.24,1.91-2.49,2.78-3.78h0c.53,1.21,2,2.91,2.17,2.69a79.82,79.82,0,0,0,5.85-7.32c.56.78,1.17,1.4,1.31,1.26,2.18-2.22,4.22-4.52,6.18-6.91.23.21.4.34.44.29,1-1.23,1.75-2.62,2.75-3.85a.36.36,0,0,0,.06-.19c.38-.54.76-1.07,1.15-1.6a9.87,9.87,0,0,0,1.66.45c-.73.82-1.47,1.64-2.24,2.43-.32.33,3.39,1.5,4.13.76l3.3-3.31s0-.12-.12-.2c1-1.19,2-2.41,3-3.62.26.26.48.4.58.32a12.72,12.72,0,0,1,6.52-3.1c.59,1.09,1.41,2.28,1.74,2l.59-.52a7.33,7.33,0,0,0,1,1.29A97,97,0,0,0,137.21,70.66Zm4.17,3.76c-.11.12-.22.27-.33.27h0v.11c-.18.19-.36.44-.54.63a4.62,4.62,0,0,0-1.22.14c.91-2,1.85-4,2.84-5.91a95.59,95.59,0,0,1,12.47-19.25,233.25,233.25,0,0,0-11.86,23.33A2.48,2.48,0,0,0,141.38,74.42Zm1.38,8.1c6.12-13.55,12-27.23,20.62-39.38,1.05-.77,2.08-1.54,3.13-2.28.48.64,1,1.1,1.18,1,1.93-1.26,3.77-2.66,5.66-4,.38.46.74.75,1,.66a29.77,29.77,0,0,0,3.47-1.78c.58,1.14,1.65,2.53,2,2.33,4.59-2.45,9.25-4.74,14-6.81.51.79,1.09,1.44,1.42,1.3a28.66,28.66,0,0,0,4.45-2.39c1.63-.89,3.26-1.77,4.93-2.57.14.24.3.48.46.7-.37.21-.75.41-1.15.59s.42,1.7,1.17,2.75C193,38.79,182.25,47.9,171.71,56.07A223.45,223.45,0,0,0,142.76,82.52ZM153.2,83.9c.24-.59-.1-.92-.68-1.05,4.91-4.79,9.57-9.84,14.14-14.94,1.59-1.78-1.8-2-2.81-1.43l-.29.19c2.91-2.54,5.88-5,8.88-7.42,1.75-1.4,3.51-2.83,5.29-4.27-1.2,1.41-2.36,2.88-3.44,4.44-4.53,6.56-8.81,13-13.78,19C158,80.18,155.55,82,153.2,83.9Zm34.7-6.61a3.25,3.25,0,0,0-2,.21c-10,5.25-19.06,11.83-28,18.57a79.53,79.53,0,0,1,6.28-6.31c1.61-1.46,0-2.23-1.53-2,6.82-6.8,14.53-12.79,22.12-18.57,14.93-11.36,30.34-24.81,49-29.37a2.62,2.62,0,0,0,1.93-1.7,56.23,56.23,0,0,1,6.92-1.42l.3.47c-.48.14-1,.28-1.44.45s1.43,3.83,2.32,3.67l.27-.06c.55,1,1.45,2.26,1.93,2.26a3.91,3.91,0,0,0,1.31-.24c.52.81,1.12,1.49,1.45,1.35s.77-.33,1.17-.48l.18.28A56.56,56.56,0,0,1,244.15,47c-.21.08.21,1.17.79,2.15l-.38.14c-13.26,2.13-26.16,11.55-36.95,17.87C201.39,70.77,194.58,73.91,187.9,77.29Z"/><path class="cls-1" d="M166.44,198.67c-1.37-3.38-2.87-6.7-4.26-10.07s-3.5-7.41-3.25-11.08c.12-1.62-3.39-4-3.54-1.79-.23,3.3,1.29,6.71,2.42,9.74,1.67,4.46,3.7,8.77,5.5,13.18C164,200.38,167.51,201.31,166.44,198.67Z"/><path class="cls-1" d="M154.88,177.59c-.16-.84-4.23-.68-4.26-.83l.21,1a10.29,10.29,0,0,0-3.74-1.88,1.88,1.88,0,0,0-2.46,1.25,19,19,0,0,0-.39,2.68l-.23-.24c-1-1-2.21-2.3-3.66-2.7-.12,0-.66-.16-.75-.07a4.28,4.28,0,0,0-.56.78,4.17,4.17,0,0,0-.54,2c0,.58,1,1.36,1.37,1.7a12.37,12.37,0,0,0,1.18,1c-.05,0,.61.41.61.28a4.47,4.47,0,0,1,.65-2.16c.19-.33.37-.61.78-.56a1.47,1.47,0,0,1,.35.08,6,6,0,0,0,.77.66c-.26,6,1.86,12,2,18,.07,2.39,4.27,2.9,4.19.22-.17-6-2.52-12.11-2-18.13,3,2.24,4.17,6.9,5.88,10.07a2.21,2.21,0,0,0,.46.57c1.68,4.73,3.54,9.41,5.23,14.13.34,1,4.13.48,4.26.83C160.87,196.78,156.78,187.51,154.88,177.59Z"/><path class="cls-1" d="M135.35,174.74a51.59,51.59,0,0,0-4,9.73c-.6,1.8,3.69,1.39,4.24-.27a47.8,47.8,0,0,1,3.72-9C140.44,173.25,136.19,173.29,135.35,174.74Z"/><path class="cls-1" d="M130.92,171.39c.08-.15.16-.3.23-.45.33-.66-3.49-.11-4,.21l-.15.11c.54-1.6,1-3.22,1.43-4.87.12-.48-2.62-.1-2.78-.07a19.39,19.39,0,0,0-10.84,6.48c.33-1.51.65-3,1-4.6l-.09-.11a5.27,5.27,0,0,0-3.46-.06l.15-.54c.13-.53-3.08,0-3.3.06a13.78,13.78,0,0,0-7.55,4.84c-.14.17,3.45.53,4.18-.35a14.87,14.87,0,0,1,1.84-1.94c-.32,1.11-.68,2.2-1.11,3.28a9.54,9.54,0,0,0-.56,1.36c-.06.19,3.84.38,4.24-.5.18-.4.34-.81.5-1.21.06-.13.13-.24.2-.36-1.1,3.8-3,9.2-3.23,9.64s3.61.43,4.18-.36c3.26-4.55,6.69-11,12-13.76a71.35,71.35,0,0,1-4.39,11.62c-1.13,2-2.11,4.12-3.06,6.26-1.48,3-3,5.9-4.31,8.91-.22.5,3.69.47,4.18-.35a62.35,62.35,0,0,0,3.07-6.18c-.26.93-.49,1.87-.7,2.82-.06.25,4,.42,4.29-.64a66.89,66.89,0,0,1,4.51-12.16,22.56,22.56,0,0,1,6.26-6.84C134.29,171.22,132.27,171.17,130.92,171.39Z"/><path class="cls-1" d="M107.27,163.21a5.05,5.05,0,0,0-2.94-.47,4,4,0,0,0-2.68,1.42c-.54.54,1.23.91,1.44.94a6.68,6.68,0,0,0,1.67.07,1.79,1.79,0,0,0,1-.32c.19-.2.39-.38.59-.57s.21-.16.31-.24l-.27,0,.3,0h0a.28.28,0,0,1,.2,0C107.38,163.83,107.83,163.57,107.27,163.21Z"/><path class="cls-1" d="M106.69,164c.23,0,.27-.07.24-.08l-.21.06Z"/><path class="cls-1" d="M189,110.17c-2.3,1-4.63,1.9-6.95,2.82a39.79,39.79,0,0,0-6,.47c-1.26.19-1.76.94-1.68,1.63a2.37,2.37,0,0,0-1.08-.39,33.94,33.94,0,0,0-5.12-.2c0-1.11-2.88-1.64-3.62-1.33-3.15,1.32-6.12,3.59-9.35,4.9a5.4,5.4,0,0,0-1.17-.47l1.4-1.4c1.56-1.55-.7-3.55-2.4-3a26.77,26.77,0,0,0-8.41,4.4,2.23,2.23,0,0,0-1.38.24l-.8.54c-6.58-.32-12.72,2.89-18.18,6.44a12.11,12.11,0,0,0-5.67,3.83c-6.25,3.68-11.52,9-17.23,13.43-1.85,1.46,2.18,2.78,3.47,2,4.95-3.11,9.39-7,13.95-10.67a3.61,3.61,0,0,0,2.75.41,16.17,16.17,0,0,0,2.23-1.28c-.83.82-1.68,1.63-2.56,2.41a1,1,0,0,0-.41.92,11.28,11.28,0,0,0-3,3,1.85,1.85,0,0,0,1,2.5,3.14,3.14,0,0,0,2.11.28,1.83,1.83,0,0,0,1.79-2.17c1.3-1.18,3.28-2.38,4.26-3.19a126.27,126.27,0,0,1,11-8.13,51.4,51.4,0,0,0,4.65-3.64,1.5,1.5,0,0,0,.42,0c2.57-.76,4.94-2,7.41-3a3.76,3.76,0,0,0,1.5.41,16.87,16.87,0,0,0,4.09-.83,4,4,0,0,0,3,.65l.68-.22c1.07.59,2.79.65,3.28-.27a7.3,7.3,0,0,1,.59-.95c3-.91,5.95-1.75,9-2.49-.19,1.14,2.47,2.49,3.81,1.77a72.27,72.27,0,0,1,7.34-3.32c.8.07,1.6.16,2.4.28a1.79,1.79,0,0,0,.4,0c1.08.79,3.11.91,3.57-.39s.33-2.31,1.72-3.2C193.78,111.6,190.46,109.55,189,110.17Z"/><path class="cls-1" d="M286.21,155.53a136.39,136.39,0,0,1-39.61,10.58,1.41,1.41,0,0,0,.13-.64c7.43-1.1,14.83-2.39,22.15-4.12,2.19-.52.47-3.33-1-3.62l-1-.17a52.59,52.59,0,0,0,15.6-9.61c1.5-1.37-.2-3.47-1.9-3.5-4-.07-7.17,2.27-10.29,4.49a36.87,36.87,0,0,1-6.51,3.68,2.59,2.59,0,0,0-1.42-1,41.85,41.85,0,0,0-14.85,0c-7.87-1.36-15.83.81-23,4.42h-.28a15.76,15.76,0,0,0,3.86-3.83,2,2,0,0,0-.4-2.38,1.42,1.42,0,0,0-.09-1.63c.42-.22.85-.46,1.27-.72,1-.63.72-1.69,0-2.49,2.38-1.2,4.75-2.43,7.17-3.57a1.16,1.16,0,0,0,.52-1.67c2.07-1,4.11-2.09,6.09-3.29a1.25,1.25,0,0,0,.58-1.43l.87-.53c7.07-1.67,13.91-4.23,17.61-9.84.92-1.4-.85-3.54-2.42-3.32-6.85,1-12.13,6.17-17.88,9.8-5.08,1.17-10.29,1.89-14.47,3-1.11.28-.73,1.51.13,2.43l-5.76,1.79a3.92,3.92,0,0,0-2.79-2.12l-.56,0a16.12,16.12,0,0,0,1.32-1.06c1.18-1.06-.54-2.69-1.63-3.18.64-.41,1.28-.84,1.9-1.29,7.09-3,13.71-7.9,19.79-11.83,1.43-.93.06-3-1.16-3.39-5.18-1.73-9.93-.7-14.53,1.34a3.56,3.56,0,0,0-2.37-1.5,50.54,50.54,0,0,0-7.6.72,2.1,2.1,0,0,0-2.17-.63c-1.4.66-2.78,1.37-4.17,2.09a80.22,80.22,0,0,0-15.11,6.18c-1.34.7-.4,2.45.8,3.21l-.25.09c-2,.72.67,3.27,1.64,3.53a21.81,21.81,0,0,0,11.49-.17c-.28.51,0,1.12.46,1.66-.48.15-1,.31-1.47.49-1.41.53-.43,2.3.78,3.13-1.22-.72-2.43-1.41-3.67-2a2.87,2.87,0,0,0-1.2-1.26,34.59,34.59,0,0,0-4.86-1.06c-.39-.11-.79-.2-1.19-.29a22.65,22.65,0,0,0-3.53-1.89c-.49-1.11-1.53-2.39-2.19-2.23l-3,.7-.1,0c-.27-1.21-1.64-3.24-2.41-2.89-2,.93-4.1,1.78-6.17,2.62-.54,0-1.07.12-1.6.19-.47-.66-1-1.2-1.39-1.19-6.94.18-13.55,3.27-19.39,6.81a48,48,0,0,0-8.06,6c-5.56,2.73-8.07,8.63-10.89,13.81-.42.76,1.56,4.14,2.37,3.54a38.28,38.28,0,0,0,3.48-2.93c-.12.35-.23.69-.34,1-.29.9,1.61,3.72,2.32,3.52.43,1.27,1.79,3.34,2.26,2.78.61-.75,1.17-1.53,1.7-2.32.55,1.28,1.82,2.84,2.28,2.15.12-.18.23-.36.34-.54.4,1.24,1.81,3.52,2.29,2.91.88-1.11,1.71-2.25,2.52-3.41.65,1.12,1.7,2.15,2,1.59q1.22-2.19,2.45-4.36a4.84,4.84,0,0,0,1.34,1.7c-.08,1.52-.16,3-.27,4.52a4.72,4.72,0,0,0,1.13,2.14c0,.39,0,.78,0,1.17,0,.73,2.22,4.09,2.53,3.1a54.72,54.72,0,0,0,2.33-11c.27-2.64,1.19-6.69.41-9.5.57-1.07,1.12-2.15,1.67-3.23a1.93,1.93,0,0,0-.26-1.35.93.93,0,0,1,.14-.14.78.78,0,0,0,.17-.69,37.17,37.17,0,0,1,5.19-4l2.17-1.19a80.9,80.9,0,0,1,10.65-4.07c.14,0,.19-.21.17-.45a1.53,1.53,0,0,0,.73.49c3.49.51,7,1.07,10.46,1.65a.3.3,0,0,0,.29-.08c3.57,1.35,7.08,2.9,10.47,4.39.73.32.52-.56.06-1.54a2.43,2.43,0,0,0,1.23.47c1.34,0,2.67.12,4,.21a14.69,14.69,0,0,1-1.69,1.2,1.33,1.33,0,0,0-.43.42l-2.32.68c-2,.57.71,4,2.49,3.45,2.12-.61,4.25-1.2,6.38-1.79a66.22,66.22,0,0,0-6.67,3.85c-1.64,1.09.48,3.94,2.09,3.55l.4-.1h0c.53-.13,1-.28,1.57-.43l-.19.29c-.51.88.37,2.1,1.36,2.68-.39.46-.77.93-1.15,1.4a1.37,1.37,0,0,0-.31.78,1.47,1.47,0,0,0-1.13,1.87,2,2,0,0,0,.52,1.5,2.5,2.5,0,0,0,1,2.06,1.81,1.81,0,0,0,.19,1,26.89,26.89,0,0,0-4.2.14c-1.77.21-1.93,2.27-.51,3.2.63.4,1.27.78,1.93,1.13a2.11,2.11,0,0,0,.83,1.07l.3.17-.91,0c-1.45-.25-2.91-.45-4.39-.58s-1.64,1.16-1.11,2.24c-.74.21-.92,1-.7,1.77a1.59,1.59,0,0,0-.12.44,1.38,1.38,0,0,0-1.35.5,16.4,16.4,0,0,0-7.11.07c-1.39.34-1.08,1.88-.46,2.74.22.3.45.59.68.88a12.15,12.15,0,0,1-1.4.18c-1.48.09-1.67,1-1.27,1.95a27.8,27.8,0,0,0-4.83-1.34c-1.16-.21-1.76.32-1.88,1a1.52,1.52,0,0,0-.9.11c-.84-.29-1.69-.53-2.55-.75a34.35,34.35,0,0,0-9.55-3.71,1.47,1.47,0,0,0-1.95,1.36c-1.35-1.48-3.62-.65-3.32.9-2.27-.67-4.65-1.17-7.15-1.93-1.09-.34-4.37.79-3.31,2.44,7,10.75,16.5,19.32,27.24,26.2,1.57,1,5.13-1.44,3.42-2.53A90.69,90.69,0,0,1,168,178.06l1.82.43c3.17.76,5.23,2.51,7.55,4.68,3.73,3.49,7,7.2,11.48,9.81,10.58,6.17,23.46,5.65,34.72,9.92,1.69.64,4.92-2.13,2.72-3-7.4-2.83-14.76-5.77-22-9a1.06,1.06,0,0,0,.34-.28l.52.23c1.11.54,1.93.16,2.25-.53a1.8,1.8,0,0,0,1.93-.26c1.17.46,2.35.91,3.53,1.34,1.63.6,2.78-.58,2.44-1.78l.31.13c1.56.65,2.41-.22,2.4-1.27,1.93.54,3.87,1,5.83,1.45,1,.22,1.61-.16,1.81-.75,7.58,2.32,15.39,4.14,22.59,7.61,1.06.51,4-.86,4.11-.8-7-3.4-14.64-5.21-22.05-7.45a161,161,0,0,0,22.92,1.18c.55,0,4.22-.75,3.31-1s-1.58-.38-2.36-.57c1.09,0,2.17-.09,3.24-.11.62.13,1.23.27,1.84.45.92.25,3-.52,3.81-.75l.31-.06a47.88,47.88,0,0,0-10.42-2.22,85.6,85.6,0,0,0-15.4-1.77,2.48,2.48,0,0,0-.48-.17c-.8-.18-1.59-.39-2.38-.61a2.54,2.54,0,0,0-1.47-1l-1.14-.32a137.26,137.26,0,0,0,14.7-2.6,85.84,85.84,0,0,0,31.29-6.91c1-.43-1.74-.36-1.94-.33-8.91,1.24-18.24,4-27.63,6.16a79,79,0,0,1-10.88-.36,2.32,2.32,0,0,0-1.1-.6l-.79-.2.74,0c1.33,0,1.62-.88,1.35-1.79a2.06,2.06,0,0,0-.31-1.75c.73-.11,1.46-.24,2.19-.38,1.27-.25,1.18-1.68.58-2.57a134.68,134.68,0,0,0,47.9-11.2C290.51,158.14,288.14,154.7,286.21,155.53ZM157.84,139.9h0c-.11-.2-.22-.4-.34-.59.33-.22.68-.42,1-.63a2.48,2.48,0,0,0,.18.31C158.39,139.3,158.11,139.59,157.84,139.9Zm74.63-21.55a101.85,101.85,0,0,1-13.34,8,.35.35,0,0,0-.11,0,13.49,13.49,0,0,0-3-.28l.22-.12C221,123.37,226.7,119.17,232.47,118.35ZM207,136c.43-.07.85-.16,1.27-.25a.94.94,0,0,0-.7,1l-1.46-.89A1.57,1.57,0,0,0,207,136Zm-15.47,54a25.86,25.86,0,0,1-6.32-4.82c.78.32,1.57.63,2.35.93l.75.28a1.06,1.06,0,0,0,.51,1.63c3.73,1.85,7.51,3.6,11.32,5.29A50.75,50.75,0,0,1,191.57,190Zm80.07-16.66a70.57,70.57,0,0,1-19.23,4.39C258.92,176.16,265.36,174.5,271.64,173.35ZM238.35,179c1.67.1,3.33.15,5,.15-1.72.35-3.43.67-5.14.94A1.54,1.54,0,0,0,238.35,179Zm-1.31,8.3c1,.14,1.51-.17,1.75-.65,1.44.2,2.88.32,4.33.4l2.8.84a46.43,46.43,0,0,1-14.76-1.37C233.13,186.71,235.1,187,237,187.25ZM229.8,181a106.84,106.84,0,0,1-12.46-5.22c1.89.46,3.76.93,5.63,1.41a81.29,81.29,0,0,0,12.36,3.29C233.49,180.69,231.64,180.88,229.8,181Z"/><path class="cls-2" d="M189.72,108.21a161.54,161.54,0,0,1-24.57,1.29,2.33,2.33,0,0,0-1.45-.61c-1.57,0-3.1.15-4.63.22,1.05-.83,1.43-2.18-.47-2.33-4.16-.34-8.34,0-11.81,2.09-4.17,1-7.86,3.61-11.15,6.55a30.71,30.71,0,0,0-9.16,2.27c-3.45-1-7-.68-9,1.93a17,17,0,0,1-3.25-3.37,7.65,7.65,0,0,0-5-2.28c-4.7-.41-9.21,1.17-13.6,2.65-3.19,1.07-6.42,2.09-9.65,3-1.33.39-10.08,3.12-9.56.55.4-2-3.87-1.34-4.23.46-1.47,7.28,15.13,1.59,17.69.78,4.1-1.29,8.16-2.76,12.31-3.9,3-.83,6.52-1.36,8.75,1.28,1,1.22.71,1.59,1.89,2.53a16.61,16.61,0,0,0,4.34,2.16,2.66,2.66,0,0,0,3.3-1.64,4,4,0,0,1,1.62-1.46c-.7,1.39,2.55,1.52,3.54.89a18.72,18.72,0,0,1,6.34-2.5l-.68.67c-.8.8-.3,1.47.44,1.8-.42.16-.83.32-1.23.49a2.33,2.33,0,0,0-1.13.16,34.93,34.93,0,0,0-4.62,2.51,1.73,1.73,0,0,0-.92,1.58c-.36.38-.73.76-1.09,1.18-1.59,1.84,1.86,2.73,3.08,2.24a14.42,14.42,0,0,0,4.71-3.19,10,10,0,0,0,2-1.3,2.61,2.61,0,0,0,.33-.34c8.37-3.48,17.41-5.75,24.49-11.55l.92-.12,4.26,0c-2.29,1-4.48,2.19-6.73,3.25-1.27.48-2.53,1-3.77,1.54-1.81.82.89,1.46,2.21,1.41-.22.23-.44.46-.65.71-.82,1,2.44,1,2.72,1a51.46,51.46,0,0,0,10.14-2.79c-.08.17-.17.33-.27.51-.65,1.14,3.54,1.46,4.21.3s.16-1.39,1.47-2.71-2.45-1.31-3-1.13c-3,.87-5.83,2-8.77,2.94a28.81,28.81,0,0,1,3.27-2.15c3.3-1,6.64-2,10-2.94a128.16,128.16,0,0,0,16.47-1.24C192.52,111.28,192.43,107.81,189.72,108.21Zm-34.41,1.48h-.54V110s-.11,0-.3.06c-1.11.17-1.39.83-1.32,1.53a51.47,51.47,0,0,1-12.92,6.59c.3-.3.64-.61.93-.94a1.17,1.17,0,0,0-.64-2,23.86,23.86,0,0,1,3.06-2.15,3.36,3.36,0,0,0,2.13.35,9.61,9.61,0,0,0,5.2-2.59,2.24,2.24,0,0,0,.53-.8,17.45,17.45,0,0,1,5.23-.46A6.33,6.33,0,0,1,155.31,109.69Z"/><path class="cls-2" d="M242.88,81.45a238,238,0,0,0-41.33,9.1,6.47,6.47,0,0,0-3.25,0c-2.84,1.5-5.84,2.57-8.81,3.78-.72.29-.67.29-.28.5-7,2.87-13.76,6.88-20.28,9.88h0c-.11,0-.22.39-.33.46-1.32.8,2.65,1.43,3.46,1,8.78-4.64,19-6.81,27.06-12.7,14.5-5.18,29.74-8.36,45-10.43C247.06,82.62,244.71,81.2,242.88,81.45Z"/><path class="cls-2" d="M243.08,66.8a219,219,0,0,0-36.14,9.59c-1.82.64-3.62,1.33-5.41,2,0-1-2.77-2-3.74-1.44s-1.89,1.16-2.84,1.74c-8.44,3.42-16.39,7.86-24.43,12.11-1.85,1,1.91,2.51,2.91,2.24,1.65-.46,3.28-1,4.89-1.54a4.81,4.81,0,0,0,3.06.57q2.1-1,4.16-2.14a2.42,2.42,0,0,0,2-.16L192.15,86l.35-.23c4.89-2.18,9.77-4.39,14.78-6.21a216.51,216.51,0,0,1,38.33-10.38C248,68.77,244.46,66.57,243.08,66.8Z"/><path class="cls-2" d="M161.42,34.22a46.29,46.29,0,0,0-4.55,2.91,3.93,3.93,0,0,0-1.63-1.05c-3.79-.9-7.53-2-11.33-2.94-1.93-.45-1.33,1-.36,1.84-1.53-.41-3.09-.74-4.67-1s-1.49.33-1,1c-1.78-.23-3.55-.45-5.34-.63-1.56-.15-.73,1,.28,1.86A122.5,122.5,0,0,0,117.46,39c-1.85.4,1.69,2.8,2.84,2.65a32.36,32.36,0,0,1,5-.26c.69.79,2.22,1.66,3,1.51a41.67,41.67,0,0,1,6.29-.83c1.51-.07-.58-1.81-1.82-2.44,2.27,0,4.55,0,6.83,0a81.17,81.17,0,0,0,10.12.75c1,0,1.06-.45.66-1a.41.41,0,0,0,.13-.48c.71.17,1.41.36,2.11.57a2.32,2.32,0,0,0,.65.12,20.73,20.73,0,0,1-6.49,2.9c-5.7,1.33-11.33,1.67-16.8,3.91a.67.67,0,0,0-.32.3c-3.42,1.5-6.32,3.94-9.22,6.39a9,9,0,0,0-2.71-.83,22,22,0,0,0-3,.36,13,13,0,0,0-1.69-.72,10.62,10.62,0,0,0-6.91.36,10.12,10.12,0,0,0-2.12.17c-.72-.26-1.41-.36-1.7-.09-.6.55-1.21,1.06-1.84,1.55a23,23,0,0,0-1.94,1.39c-.15.12-.14.28,0,.46a.41.41,0,0,0,0,.49.39.39,0,0,0,0,.28l-1.89,0c-2.1,0,.91,1.73,1.5,1.9a24.66,24.66,0,0,0,5.8.92,52.39,52.39,0,0,0,11.94,2.63c1.65.18.1-1.16-.43-1.47l-1.91-1.1c.13-.07.12-.18,0-.33.34,0,.69.26,1,.24.68,0,.41-.55-.12-.55h.91c.28,1,1.69,2.8,2.49,2.21,5-3.63,9.49-9.09,15.55-10.95.57-.13.89-.34,1.45-.49,0,0-.11-.1-.11-.11h0a3.93,3.93,0,0,1,.51-.07.64.64,0,0,0,.46-.41c4.61-1.3,9.41-1.77,14.12-2.87a15.55,15.55,0,0,0,3.47-1.29,1.86,1.86,0,0,0,1.35.79,2.83,2.83,0,0,0,1.31-.72,10,10,0,0,1,1.47-1c.29-.15.24-.66.19-.9a3.29,3.29,0,0,0-.23-.69l.55-.4a.83.83,0,0,0,.62,0,14.76,14.76,0,0,0,2.59-1.5l1.18-.6a.77.77,0,0,0,.37-.71c.37-.37.73-.75,1.09-1.17C164.6,36.82,162.63,33.57,161.42,34.22Zm-7.58,5a2.07,2.07,0,0,0-.7-1.39l2,.51C154.72,38.62,154.28,38.91,153.84,39.2Z"/><path class="cls-2" d="M180.73,28.36a15.77,15.77,0,0,1-9.08-1.7,5.21,5.21,0,0,0-2.44.53c-1.13-.61-2.28-1.21-3.43-1.79a1.73,1.73,0,0,0-1.14,0c-1.15-.58-2.31-1.14-3.48-1.71-.84-.41-3.28.95-3.87,1.2l-.13,0c.25.14.5.27.75.42-1.24,0-3.34,1.35-3.69,1.25.41.11.81.25,1.22.38l-.94.38-.28.08,12.59,5c.85.34,3.1-.88,3.8-1.18l.2-.06-.77-.4a11,11,0,0,0,3.81-1.22l0-.05a24,24,0,0,0,4.06,0C178.48,29.51,182.5,28.2,180.73,28.36Z"/><path class="cls-2" d="M203.83,24.58a50.65,50.65,0,0,0-8.17,0l-.41,0-.35-.31a3.34,3.34,0,0,0-1.57-.19c-1.18-1.45-2.31-2.95-3.47-4.43-.4-.51-2.87,0-3.89.16l-.44,0c.07.17.16.34.24.5-1.13-.34-3.56.63-3.94.39.41.25.8.52,1.19.79l-.77.05c2.94,1.89,4.9,4.78,7.47,7.08.47.42,2.31,0,3.44-.14l.9,0c-.38-.61-.79-1.2-1.22-1.77a23.93,23.93,0,0,0,2.48-.33l-.06-.15a7.39,7.39,0,0,0,2.16-.26c-.12-.45.36-.67.42-1.05a13.85,13.85,0,0,1,2.25.06,12.82,12.82,0,0,0,3,0C203.2,24.9,204.67,24.68,203.83,24.58Z"/><path class="cls-2" d="M98.33,73.46c.43-1.18-2.21-4-3.21-2.83a14.08,14.08,0,0,1-1.26,1.3,2.28,2.28,0,0,0-1.48-.65,16.75,16.75,0,0,0-5.89,1.58,9.61,9.61,0,0,0-5.64,2.39c-1.08,1,1.18,3,2,3.21A16.86,16.86,0,0,0,92.29,78a1.12,1.12,0,0,0,1.26-.09l.33-.29c1.22.06,2.44.07,3.66.07a.74.74,0,0,0,.83-.81A11.11,11.11,0,0,0,98,74.12,4.18,4.18,0,0,0,98.33,73.46Z"/><path class="cls-2" d="M78.85,94.5a5.05,5.05,0,0,0-2.69-.25,13.82,13.82,0,0,1-3.6.75c-.75,0-.87.34-.15.68l.1,0c-.68.06-1.36.11-2.05.12s-.85.35-.15.68a7,7,0,0,0,3,.68c1.23,0,2.44-.15,3.66-.26l.27.06c.11,0,2.32.4,2.23,0a.93.93,0,0,0-.08-.2h.22c.76,0,.86-.35.15-.69a6,6,0,0,0-.59-.23,4.85,4.85,0,0,1,1-.43C80.75,95.23,78.91,94.52,78.85,94.5Z"/><path class="cls-2" d="M135.05,93.9a35.54,35.54,0,0,1-4.72-5.64c1.36.1,3.65-1.32,3.09-2.34-2.1-3.85-3.78-7.9-5.87-11.75-.74-1.35-4.61.6-3.91,1.9,1.46,2.68,2.73,5.46,4.07,8.21l-1.81-2.85c-1.62-2.49-3.17-5-4.57-7.67-.51-1-1-1.94-1.39-2.93-.68-1.63.06-1.49-1.16-.88,2.53-1.27-.11-4.2-2.32-3.09-6.2,3.11,12.41,26.75,15.62,29.76C133.83,98.26,137.06,95.78,135.05,93.9Z"/><path class="cls-2" d="M137.21,61.1c-2.77,1.55-2.4,7.05-2.51,9.65-.09,2.15-.08,4.3,0,6.45-.22-.28-.46-.54-.64-.74s-1.44-1.42-1.43-.8a66.83,66.83,0,0,0,.84,8.81,4.79,4.79,0,0,0,1.38,2.31s1.51,1.39,1.43.8c-.06-.42-.12-.84-.17-1.26,1.27.55,3,.19,3-1.33,0-3.64-.15-7.29-.13-10.94,0-1.65-.5-9.22,1.05-10.09C142.39,62.62,139.22,60,137.21,61.1Z"/><path class="cls-2" d="M269,161.61c-15.27,6.16-32.37,7-48.73,6.7-1.11-.07-2.22-.11-3.36-.07-1.36.06-.81,1.35.14,2.32a20.37,20.37,0,0,1-3.51-1c-.53-.25-1.07-.5-1.63-.71-2.75-1.07-1.21,2.3.24,3,.57.29,1.15.54,1.74.77q-1.41-.39-2.82-.87c-1.25-.44-1.63,0-1.53.71-.61-.23-1.22-.46-1.82-.71-2.69-1.14-1.25,2.3.24,3,2.61,1.29,5.27,2.53,7.82,3.93a58,58,0,0,1-11.37-5.89c-2.49-1.58-2.4,1.32-.7,2.54l.88.65a20.28,20.28,0,0,0-2.36-.26c-1.67-.09-.31,2.16,1.06,3L200,177.1c-.83-.42-4.78.22-3.71.81a33.25,33.25,0,0,1,5.13,3.26c-.86-.39-1.71-.79-2.55-1.22l-2.23-1.18a4.11,4.11,0,0,0-1.84-.08c-.57-.34-1.14-.68-1.71-1-1-.61-4.5.3-4.16.54.61.42,1.19.87,1.78,1.31a26.08,26.08,0,0,0-4.19-.52,4.31,4.31,0,0,0-2.3.56c-1.5-1-3-1.95-4.57-2.85-1.71-3.61-7.47-6.62-10.77-8.44a10.62,10.62,0,0,1-1.74-8c.29-1.26-3.13-3.74-3.44-2.44a9.66,9.66,0,0,0-.27,2.44,13.42,13.42,0,0,1,.73-6.29c.78-2.2-3.51-2.75-4.2-.77-2.05,5.82-.7,11,2.76,15.94.89,1.27,3.31.83,3.9-.33.23.33.47.65.72,1,3.33,6.56,11,9,16.87,13.18a47.13,47.13,0,0,1,5.37,5.3c.82,1,3.84,2.05,2.35-.12a20.65,20.65,0,0,0-2.15-2.66,136.5,136.5,0,0,0,14.3,9c8,4.12,17.15,5.26,25.79,7.28,1.5.35-1-2.91-2.18-3.18-9.18-2.15-18.5-3.47-26.84-8.15-5.42-3-10.42-6.76-15.61-10.21h.19c4.62.2,8.82,2.26,12.54,4.88.48.36,1,.72,1.45,1.06.94.66,4.53-.25,4.16-.54s-.78-.58-1.18-.86c-.57-.42-1.14-.83-1.7-1.27h.49c2.4,1,4.83,1.89,7.27,2.82a8.66,8.66,0,0,0,3.23-.29,233.75,233.75,0,0,0,27.82,12c.92.32,4.71-.47,3.71-.81-13.75-4.8-26.78-11.3-39.58-18.18a1.63,1.63,0,0,0,.54.15,22.85,22.85,0,0,1,7.84,2,27.93,27.93,0,0,0,5.85,2.74l.12.06v0c.16.05.31.12.46.16,1.27.38,1.29-.4.88-1.28a35.24,35.24,0,0,0,4.16.86c1.93.28,1.11-1.84.23-2.58s-1.7-1.37-2.58-2c1.35.32,1.05-.85.39-1.88l1.12.17c2.51.32.45-2.54-.63-3.15,4.4.29,8.92-.13,13.22-.17,1.55,0,.66-1.55-.37-2.54,12.58-.44,25.21-2.09,36.81-6.77C273.4,164.18,270.5,161,269,161.61Z"/><path class="cls-2" d="M228.09,152.77a52.73,52.73,0,0,0-11.58,1.82c-.22,0-3,1.11-1.62,1.4a13.1,13.1,0,0,1,3.16,1.19l-.48-.13c-.87-.26-4.83.94-3.52,1.46.95.38,2,.92,3,1.41a4.77,4.77,0,0,0-2.74.84c-.73.63.57.78,1,.77,2-.06,3.91-.38,5.87-.42a4.82,4.82,0,0,0,2.86-.86c.62-.53-.2-.7-.71-.75l-.24-.11c.84-.18,3.48-1,2.73-1.38-1.83-1-3.57-2.12-5.48-2.89a32.27,32.27,0,0,1,5.88-.73,4.71,4.71,0,0,0,2.85-.85C229.78,152.91,228.47,152.77,228.09,152.77Z"/><path class="cls-2" d="M163.13,180.71h.09l.11,0A14.93,14.93,0,0,1,161,176.4a8,8,0,0,0,2.83.22c0-.23,0-.46,0-.7.52.61,2.66.55,3.68.61l.54.09c-.53-1.27-1.14-2.5-1.68-3.77-.16-.39-.79-.55-1.53-.61-.34-.39-.68-.78-1.05-1.16s-4.23-.93-4.21-.67a21.29,21.29,0,0,1,0,2.88c-1.25-.31-3.37-.6-3.35-.36a11.58,11.58,0,0,0,.84,3.5h-1.2l-.42-.05c7.9,8.32,15.81,16.63,23.92,24.75.81.82,3.93.36,4.15.58C176.59,194.81,169.85,187.77,163.13,180.71Z"/><path class="cls-2" d="M160.43,191.22A115.86,115.86,0,0,0,154,180.85a1.91,1.91,0,0,0,.17-3.1c-.61-.52-1.2-1.06-1.76-1.63a2.28,2.28,0,0,0-2.62-.9l-.66-.83c-1.65-2-4,.4-3,2.4a123.55,123.55,0,0,0,8,13.85,2.22,2.22,0,0,0,2.09,1l.85,1.53A2,2,0,1,0,160.43,191.22Z"/><path class="cls-2" d="M146,195c-1.67-5.95-3-12.19-1.26-18.27.49-1.68-2.33-4.89-3-2.71-2,7.09-.68,14.22,1.26,21.18C143.62,197.46,146.73,197.79,146,195Z"/><path class="cls-2" d="M135.11,177a12.94,12.94,0,0,0-1.52-.22,11.17,11.17,0,0,0-1.53,0c-.19,0-.51,0-.66.16-.43.48-.4,1.19-.84,1.68-.08.09.68.27.62.26a12.94,12.94,0,0,0,1.52.22,11.32,11.32,0,0,0,1.54,0c.18,0,.51,0,.65-.15.43-.49.41-1.2.84-1.68C135.82,177.17,135.06,177,135.11,177Z"/><path class="cls-2" d="M128.16,169.87A2.33,2.33,0,0,0,126,171.6l0,.11a2.6,2.6,0,0,1-.16.34,2.75,2.75,0,0,0-.26,1c-.1,1.11,1.17,1.65,2.08,1.57a2.34,2.34,0,0,0,2.14-1.74l0-.1a2.11,2.11,0,0,1,.16-.34,2.85,2.85,0,0,0,.26-1C130.34,170.32,129.07,169.78,128.16,169.87Z"/><path class="cls-2" d="M122,177.31c-2.87,0-1.77,2.9.55,2.9C125.38,180.21,124.28,177.31,122,177.31Z"/><path class="cls-3" d="M179.59,174.38Z"/><path class="cls-3" d="M211.51,154.51a1,1,0,0,0,0-.24c0-.5-.13-1-.23-1.53a16.66,16.66,0,0,0-1.1-4.2c0-.14-.08-.27-.11-.39.85.1.6-.89.32-1.38a20.27,20.27,0,0,0-4.27-5.09c-2.61-3.18-6-5.49-10-5.76a.35.35,0,0,0-.33.12,22.22,22.22,0,0,0-6.8-1c-1.09,0,1.11,3.47,2.43,3.44a21.14,21.14,0,0,1,6.34.94c1.08,1.23,2.2,2.47,3.4,3.62a1.77,1.77,0,0,0-.24,2c3.21,6.1,4.55,14.84.43,20.69a24.23,24.23,0,0,1-9.63,3c-4.84.37-9.59-1.45-13.9-3.62-.73-.7-1.45-1.4-2.14-2.13a16,16,0,0,1-1.08-2.5c-.41-1.22-1.78-1.27-2.82-.75a1.35,1.35,0,0,0-1.29.07c-1.2.94-.49,2.67,1,4.56a1.47,1.47,0,0,0,.39.8l.33.34c.34.6.7,1.19,1.09,1.75a1.39,1.39,0,0,0-.1,1.57c.87,1.6,2.76,2.87,4.17,4a18.33,18.33,0,0,0,2.24,1.64h0a3.55,3.55,0,0,0,1.43.44l.49.36a2.65,2.65,0,0,0,2.91-.41c7,2.6,14.1-1,21.07-4.52.5-.26.48-.77.17-1.31a1.45,1.45,0,0,0,1,.19C212.12,166.63,212.43,160.27,211.51,154.51Zm-8.76-12.46c-.45-.38-.9-.78-1.32-1.2A20.78,20.78,0,0,1,203.5,142,1.91,1.91,0,0,0,202.75,142.05Zm5.45,17.1-.32-.13c.07-.55.11-1.11.14-1.68a2.45,2.45,0,0,0,.31.6C208.3,158.35,208.26,158.75,208.2,159.15Zm-.36-7.71q.27,1.5.42,3c-.06.61-.14,1.18-.22,1.71a27.55,27.55,0,0,0-.56-5.42C207.6,151,207.71,151.22,207.84,151.44Z"/><path class="cls-3" d="M194.45,164.74c7.19.6,8.15-10.29,8.19-15.36,0-1.55-3.87-3.33-3.88-1.67a43.29,43.29,0,0,1-.37,5.33,2.5,2.5,0,0,0-.66-.12c-1.3,0-2.26.71-1.84,2.16a2.34,2.34,0,0,0,.62.88c-.78,2.39-3.38,4.07-4.79,6.14C190.87,163.34,193.6,164.67,194.45,164.74Z"/><path class="cls-4" d="M186.17,133.44c-11.78.91-18.92,11.06-19.27,22.34-.4,12.8,10.19,22.32,22.79,21.71,12.87-.63,22.35-8.57,23.89-21.53,1.7-14.24-11.21-24.23-24.75-22.52-1,.12-1.59,1.28-.25,1.12,13.42-1.7,24,8.44,23.07,21.63-.92,12.27-10.67,20.22-22.75,20.17-11.47-.05-19.35-8.81-20.05-19.75-.67-10.42,6.14-21.21,17.06-22.05,1-.08,1.59-1.22.26-1.12Z"/><path class="cls-4" d="M171.76,162.89c.36,7.59,8.73,13.22,15.65,14.13.43.06,2.23-.68,1.25-.81-6.69-.88-14.63-6.61-15-13.84,0-.37-2,0-1.93.52Z"/><path class="cls-4" d="M177.83,168.36a12.8,12.8,0,0,0,8.3,6.18c.72.16,2.29-.92,1.15-1.18a11.76,11.76,0,0,1-7.67-5.8c-.35-.66-2.22,0-1.78.8Z"/><path class="cls-4" d="M182.47,169.63a29.93,29.93,0,0,0,4.66,3.33c.49.33,2.17-.45,1.81-.69a29.93,29.93,0,0,1-4.66-3.33c-.39-.38-2.18.33-1.81.69Z"/><path class="cls-4" d="M187.14,170.32a15.87,15.87,0,0,0,4.12,2.75c.53.26,2.31-.52,1.55-.9a14.65,14.65,0,0,1-3.87-2.59c-.47-.45-2.29.27-1.8.74Z"/><path class="cls-4" d="M191.73,170.88c.07.93,1.22.93,1.92.93a1.65,1.65,0,0,0,1.28-.52c.26-.37-.23-.53-.52-.53s-.71.07-.75-.4-2-.2-1.93.52Z"/><path class="cls-4" d="M201.12,139.05c2.78,2.75,6.4,5.64,6.59,9.86,0,.67,2,.26,1.93-.52-.19-4.31-3.89-7.31-6.73-10.12-.51-.5-2.34.23-1.79.78Z"/><path class="cls-4" d="M207.05,143.58c0,.78.1,1.45,1,1.51a2.22,2.22,0,0,0,1.37-.37c.3-.21.25-.48-.14-.51s-.31-.89-.31-1.15c0-.41-1.93-.1-1.93.52Z"/><path class="cls-4" d="M117.41,127.48c-.65,3.53-7.67,5.43-10.39,7.39-2,1.48-3.32,3.64-5.57,5.1-1.75,1.14-3.37,2.44-5.12,3.58-3.22,2.09-7.26,3.74-9.44,7a3,3,0,0,0,0,3.2,23.75,23.75,0,0,1,2.64,3.1c.82,1.39,0,3.85-.16,5.35-.69,5.12,3.3,9.19,4,14.09.36,2.58.65,4,3,5.32s5.67,2.69,7,5.25c4.44,8.31,15.56,13,24.23,15.44.54.16,2.28-.67,1.55-.88-9-2.56-19.62-7.16-24.19-15.71-2.54-4.76-8.7-3.54-9.75-9.94-.47-2.84-.69-4.72-2.36-7.07-2-2.76-1.73-6.08-1.31-9.29.16-1.28.21-3.07-.76-4.09-2.83-3-2.78-5,.48-7.47,3.82-3,8.34-5.53,12.39-8.17,3.35-2.17,5.38-5.15,9-7,2.24-1.17,6.06-2.64,6.58-5.48.13-.67-1.81-.34-1.92.27Z"/><path class="cls-4" d="M120.23,124.84c.27-.2.65-.38.66-.75,0-.55-.75-.44-1.1-.37a4.75,4.75,0,0,0-2,.89c-.35.26-.18.6.18.69,4.32,1.16,9.18-3.35,12.73-4.87,4.35-1.86,9-2.55,13.38-4.52,4.08-1.84,7.91-4.21,11.88-6.25,1.16-.6-.56-.92-1.2-.59-3.84,2-7.56,4.15-11.44,6-3.51,1.7-7.24,2.31-10.85,3.59-2.21.77-5,1.53-6.84,3a10.08,10.08,0,0,1-5.85,2.47c-.83,0-.5.73.23.58l-1.1-.37-.28.18c-.88.68,1.06.71,1.55.33Z"/><path class="cls-4" d="M158.4,109.55c6.68-2.44,14.2.31,21.1,0A21.93,21.93,0,0,0,190.1,106c.79-.49-1.14-.21-1.46,0-9.89,6.12-20.67-.59-30.89,3.15-1.3.48-.06.63.65.37Z"/><path class="cls-4" d="M197.52,104.38c4.43,4,10.54,3.46,16.13,3.41,4.73,0,9.41-.8,14.12-1.08s8.11,2,12.48,2.41c2.94.28,5.73-1.47,8.79-1.19,3.74.36,8.92.9,11.76,3.52,1.49,1.38,1.83,2.18,3.77,2.64,2.64.63,4.67.79,7.05,2.36,2.94,2,3.72,5.6,7.05,7.24.53.26,2.11-.54,1.81-.68-2.8-1.38-4.14-4-6.08-6.33-2.82-3.35-7.76-1.91-10.67-4.75-3.78-3.7-10.37-5.45-15.76-5-3.84.33-7.16,1.35-11.08-.17-3.16-1.23-6.68-1-10-.81-8.21.5-20.81,3.9-27.55-2.26-.41-.37-2.17.35-1.82.68Z"/><path class="cls-4" d="M128.79,202.35c3.45-.06,6.7-.48,9.92,1.24,1.8,1,3.12,2.35,5.1,3.11,3.14,1.22,7,.78,10.24.43a38.52,38.52,0,0,1,17.14,1.79,27,27,0,0,0,12.08,1.21c3.36-.45,6.58-2.1,9.65-3.45,4.06-1.78,8.17-2.88,12.64-1.87a50.57,50.57,0,0,1,5.95,2.09c6.6,2.36,12.48-.58,18-4.13,5.78-3.72,11.28-3.76,17.8-2.93a21.42,21.42,0,0,0,8.84-.48,18,18,0,0,0,7.6-5.08,64.59,64.59,0,0,0,3.93-5.46c1.95-2.7,6.57-3.67,9.57-5a10.61,10.61,0,0,0,6.07-6c1.28-3.59-.59-7.57,1.14-11.19s5.59-5.63,5.66-10.14c.05-3.89-1.59-7.45-1.38-11.39,0-.38-1.9-.11-1.93.52-.18,3.25.73,6.1,1.29,9.25.87,4.84-2.72,7.69-5.06,11.31-1.52,2.35-1.46,4.8-1.42,7.53.1,7.14-3.81,8.9-10.09,11.72-2.58,1.15-4.9,2.22-6.45,4.67-3.85,6.07-9,9.73-16.54,8.91-6.92-.76-12-1.41-18.19,2.18-5.07,2.95-9.64,6.86-16.09,5.3-3.42-.82-6.47-2.47-10-3-8.86-1.27-16.22,6.38-25.08,6-4.53-.17-8.52-2.58-12.89-3.36a36.08,36.08,0,0,0-10.48,0,40.64,40.64,0,0,1-7.95.29c-3.66-.3-5.68-2.65-8.65-4.23-2.73-1.45-6.68-.78-9.61-.73-.57,0-2.1.91-.81.88Z"/><path class="cls-4" d="M288.65,143.57c-2.75-4.36.59-7.2.83-11.65,0-.3-.16-.43-.4-.53-3-1.29-4-4.13-6.52-5.91-.65-.46-2.37.44-1.5,1.06,1.64,1.18,2.64,3,4.09,4.42,1.83,1.76,2.79,1.55,1.73,4.52-1.28,3.57-2.23,5.4,0,8.92.43.68,2.28,0,1.77-.83Z"/><path class="cls-4" d="M154,209.23c7.62,3.39,16.21,2.13,24.3,2.05,1.1,0,1.48-1.43.17-1.42-7.78.07-16,1.32-23.36-1.94-.81-.36-2.23.8-1.11,1.31Z"/><path class="cls-4" d="M189.89,209.87c7,0,13.85-.17,20.61-2.05,1.17-.32.86-1.49-.31-1.16-6.44,1.78-13,1.94-19.59,1.94-.84,0-2,1.27-.71,1.27Z"/><path class="cls-4" d="M154.37,209.42c-5-.9-10.27-1.35-14.87-3.57-3.22-1.54-6.16-3.12-9.7-3.76-.55-.1-2.27.78-1.2,1,4.35.78,7.9,3.12,11.9,4.82,3.82,1.62,8.6,1.77,12.66,2.5.55.1,2.27-.78,1.21-1Z"/><path class="cls-4" d="M232.26,203.46c3.93-1.59,8.28-1.5,12.14-3.42,1.14-.57-.66-.48-1.12-.25-3.68,1.83-7.91,1.7-11.68,3.24-1.28.51-.07.73.66.43Z"/><path class="cls-4" d="M280,167.65a150.92,150.92,0,0,1-40.4,9.4c-9.74.85-22.24.22-30.64-5.45-.51-.35-2.22.43-1.81.71,8.76,5.91,21.51,6.45,31.66,5.68a151.17,151.17,0,0,0,41.91-9.72c1.27-.49.08-.93-.72-.62Z"/><path class="cls-4" d="M286.62,146.84c-5.68,2.34-10.89,5.62-16.54,8-6.87,2.92-14.45,3.93-21.79,4.82C237.35,161,226,161.62,215,160c-.84-.12-2,1.05-.72,1.24,11.12,1.63,22.65.94,33.76-.34a96.17,96.17,0,0,0,20.9-4.36c6.48-2.26,12.13-6.15,18.45-8.76,1.24-.51.12-1.33-.8-.95Z"/><path class="cls-4" d="M211,167.88a149.53,149.53,0,0,0,35.94-.18c11.76-1.31,24-3.72,34.54-9.29,1.17-.62.09-1.35-.79-.88-10.29,5.42-22.07,7.63-33.51,9a142.56,142.56,0,0,1-35.45.16c-.8-.1-2,1-.73,1.18Z"/><path class="cls-4" d="M285.71,133.18c-18.12,10-39.26,17.65-60.07,19-.53,0-2.1.91-.82.82,21.47-1.44,43.31-9.24,62-19.57,1.12-.62-.66-.56-1.13-.3Z"/><path class="cls-4" d="M202.6,175.8c18,13.33,40.77,10.33,61.65,11.43.85.05,2-1.19.71-1.26-20.62-1.09-43.07,2-60.85-11.21-.61-.44-2.35.42-1.51,1Z"/><path class="cls-4" d="M194.47,178.35c5.25,5.8,15.47,7.67,22.64,9.73,11.27,3.26,22.15,6.79,33.82,8.47.86.13,2-1.07.71-1.26-11.18-1.61-21.53-5-32.32-8.09-7.27-2.09-17.79-3.82-23.07-9.66-.52-.58-2.37.16-1.78.81Z"/><path class="cls-4" d="M154.66,205.54c-5.09-3.5-6.9-7.44-8.48-13.33-1.39-5.22-2.14-10.6-3.36-15.86-.15-.63-2.09-.13-1.93.52,1.22,5.26,2.07,10.61,3.36,15.85,1.51,6.13,3.35,9.95,8.62,13.56.54.37,2.29-.4,1.79-.74Z"/><path class="cls-4" d="M134.63,200.32c-1.87-3-1.56-7.17-1.45-10.57a128,128,0,0,1,1.44-14c.07-.53-1.84-.17-1.91.32-.54,3.88-1,7.76-1.33,11.66s-.92,9.46,1.32,13.07c.31.51,2.11-.22,1.93-.52Z"/><path class="cls-4" d="M146.84,175.54c3.59,8.31,9.47,15.57,15.84,21.91,4.87,4.84,11.17,10.32,18.27,11.07.83.09,2-1.09.72-1.23-7.53-.8-14.14-7.46-19.13-12.59C157,189,151.93,182.34,148.77,175c-.32-.76-2.23-.18-1.93.52Z"/><path class="cls-4" d="M157.34,174.36c8.37,14.3,24.9,24.95,40.52,29.49.74.21,2.28-.87,1.14-1.21-15.35-4.45-31.65-15-39.88-29.1-.39-.66-2.25,0-1.78.82Z"/><path class="cls-4" d="M170,173c6.88,7.3,15.49,12.53,24.16,17.51,9.83,5.64,21.59,10.85,33.18,10,1-.07,1.6-1.19.26-1.09-11.62.9-23.3-4.87-33.12-10.51-8.16-4.68-16.22-9.75-22.69-16.62-.47-.51-2.31.21-1.79.76Z"/><path class="cls-4" d="M120.64,195.56l-1.49.67,1.34.1c-.44-10.15,5.19-20.76,12.45-27.58.81-.75-1.11-.66-1.53-.26-7.49,7-13.31,17.89-12.86,28.36,0,.46,1.15.18,1.34.1l1.49-.67c1.23-.55.09-1.09-.74-.72Z"/><path class="cls-4" d="M109.31,183.11c1.16-6.22,6.31-10.88,9.68-16,.16-.25-1.6-.16-1.91.33-3.35,5.06-8.53,9.78-9.68,16-.09.49,1.82.17,1.91-.32Z"/><path class="cls-4" d="M107.75,169.24a37.2,37.2,0,0,1,4.46-5.32c.35-.32-.29-.4-.47-.4a2.1,2.1,0,0,0-1.29.49,37.94,37.94,0,0,0-4.47,5.32c-.43.58,1.47.32,1.77-.09Z"/><path class="cls-4" d="M116,124.25c-3.65,1.56-3.73-4.39-3.56-5.93l-.06-.07c-4.4-2.83-8.61-2.57-13.41-.88-3.27,1.15-6.23,3.28-9.29,4.86-7.14,3.71-14.76,5.71-22.47,2.58-.47.27-.94.88-1.41.88H68c.42,0,2.21-1,1.24-1H67.08c-.24,0-2.12.52-1.41.81,9.31,3.77,18.24.62,26.72-3.78,5.24-2.72,9.79-6.84,16.75-3.75,2.21,1,.82,5,2.7,6.43s3.38,1,5.32.14c1.18-.5-.64-.5-1.12-.29Z"/><path class="cls-4" d="M68.15,124.86c-1.91-5.86,2.58-4,3.92-7.43,2.23-5.69,1.48-12.33,6.07-16.84,1.68-1.65,3.61-2.88,5.15-4.67s1.84-4.36,2.28-6.48c1.28-6.12,6.3-8.1,10.62-11.79,3.83-3.26,4.69-8.69,7.33-12.75S114,61,118.33,59.39s7.48-4.68,10.3-8.08c1.67-2,2.92-4.26,4.8-6.1,4-3.9,9.89-1.92,14.77-1.63.76,0,2.05-1.06.74-1.14-5.09-.3-10.31-2.11-15,.93-4.14,2.67-6.43,7.28-9.76,10.8-2.75,2.91-6.41,4.49-10.19,5.55-2.75.78-6,.65-8.67,1.76-4.9,2.1-6.1,9.27-8.55,13.29C94,79.29,88.26,80.9,85.18,85.22c-1.13,1.59-1.4,3.79-1.79,5.63-1,4.5-3.62,6.5-6.81,9.39-4.19,3.81-3.89,8.49-5,13.64s-7.42,5.13-5.34,11.5c.23.71,2.16.16,1.93-.52Z"/><path class="cls-4" d="M148.25,43a9,9,0,0,0,6.4-2.28c1.41-1.11,2.64-2.48,4-3.65,2.8-2.39,6.38-2.29,9.82-2.6,5.94-.53,11.33-7.75,17.33-5.24,3.42,1.43,6.17,2.22,9.81.66,3.84-1.65,6.93-4.54,10.69-6.33C211.61,21,211,25.3,214.83,27c2.49,1.06,5.81,0,8.25-.65a39.14,39.14,0,0,1,5.66-1.24c3.22-.35,5.1,2.12,7,4.25a8.58,8.58,0,0,0,7.36,2.81c3.23-.26,5.4-1.69,8.94-.75s4.19,4.69,5.11,7.68a5.79,5.79,0,0,0,6.43,4.27c3.38-.37,6.27-1.66,9.69.18,2.65,1.43,1.5,5.25,1.77,7.58.55,4.66,4,6.8,6.7,10.27,3.47,4.45-.52,9.31-4.49,11.19-4.2,2-11.29,2.52-13.36,7.4-.44,1,1.51,1.09,1.86.26,3-7.07,16.44-3.87,18.67-12.52,1.53-5.93-2.58-8.59-5.93-12.74-4.14-5.14,1.22-11-6.44-13.8-1.85-.67-4.12,0-6,.36-6.76,1.39-6.28-3-8.35-7.26-2.68-5.55-8.41-4.92-13.48-3.78-7,1.57-8.11-7.07-14.49-6.9-5.69.15-14.34,5.82-17-1.88-.14-.4-.52-.47-.89-.48-4.47-.11-7.92,1.74-11.52,4.21s-7.48,5.14-12,3.2c-2.23-.95-4-2.05-6.55-1.43a20.66,20.66,0,0,0-7.14,3.53c-3.75,2.65-7.51,2.11-11.69,2.89-5.37,1-8.69,8.14-14,7.95-1,0-2,1.42-.65,1.46Z"/><path class="cls-4" d="M264.67,78.62c-4.43,7.12-13.25,7.18-20.68,8.16a57.83,57.83,0,0,0-14.12,4c-6.34,2.57-12.13,5.1-18.83,6.68A34,34,0,0,0,198,103.19c-.76.57.56.64.88.57a4.18,4.18,0,0,0,3-1.89c.51-.63-1.43-.45-1.79,0l-1.4,1,.88.57c6.07-4.59,13.51-5.23,20.57-7.38,5.89-1.8,11.15-5.16,17.09-6.93,9.74-2.91,23.06-.45,29.32-10.53.45-.72-1.48-.49-1.79,0Z"/><path class="cls-4" d="M65.25,124.14c-1.84-19.55,9.53-37.43,20.55-52.38,12.8-17.37,28.52-32,48.29-41,18.52-8.46,39.1-11.33,59.27-12.22,10.29-.45,19.88,1.56,30,2.95,9.66,1.32,18,6.85,27.33,9.21,1,.25,1.91-1.18.64-1.5-10-2.51-18.69-8-29.06-9.44S202.45,16.61,192,17.08c-21.18.93-42.37,4.62-61.64,13.74S95.85,55.26,83.3,72.28c-11,15-21.81,33-20,52.37.09,1,2,.47,1.93-.51Z"/><path class="cls-4" d="M112.13,60a83.78,83.78,0,0,0-13.3-1.46c-.6,0-2.09.9-.79.91A83,83,0,0,1,110.9,60.9c.5.08,2.26-.73,1.23-.9Z"/><path class="cls-4" d="M145.85,41.24c-5.46-4.63-16.28-2.3-22.8-2.23-.37,0-2.19.74-1.27.73,6.46-.07,16.92-2.37,22.25,2.13.37.32,2.05-.44,1.82-.63Z"/><path class="cls-4" d="M145.77,26c7.92.1,13.86,3,20.79,6.47.52.26,2.08-.54,1.82-.68-7.17-3.6-13.2-6.51-21.36-6.61-.43,0-2.22.81-1.25.82Z"/><path class="cls-4" d="M79.72,80c3.8-.81,7.44-2.05,11.36-2.14,1.11,0,1.49-1.45.17-1.42-4.1.09-7.91,1.38-11.89,2.23-1.21.26-.84,1.58.36,1.33Z"/><path class="cls-4" d="M70.48,97.45c2.64.07,4.72,1.35,6.86,2.77.66.44,2.39-.48,1.5-1.07-2.38-1.58-4.75-3-7.67-3-.88,0-2,1.29-.69,1.33Z"/><path class="cls-4" d="M178.92,19.39c3.22,3.85,8,6,10.9,10.17.33.47,2.2-.15,1.8-.72-2.92-4.16-7.67-6.32-10.9-10.17-.38-.45-2.23.21-1.8.72Z"/><path class="cls-4" d="M266.67,75.9c-30.48.18-59.57,8.94-87.23,21.23-1.23.55-.1,1.14.76.76C207.38,85.81,236,77.14,265.91,77c.7,0,2.07-1.08.76-1.07Z"/><path class="cls-4" d="M279.5,62.07c-35,3.69-72.5,5.82-102.46,26.41-1.09.74.57,1.06,1.21.62,29.52-20.29,66.5-22.27,101-25.91,1-.1,1.58-1.26.25-1.12Z"/><path class="cls-4" d="M268.58,44.55c-18.13,1.29-36.28,9.5-52.59,17-10,4.58-19.64,9.75-29.64,14.25-6.88,3.1-13.94,6.52-18.34,12.9-.57.83,1.4.77,1.82.15,4.95-7.17,13.59-10.35,21.23-13.8,8.68-3.94,17.1-8.48,25.74-12.51,16-7.42,33.82-15.46,51.57-16.72,1-.08,1.53-1.37.21-1.28Z"/><path class="cls-4" d="M244.11,33.89c-18,6.15-34.81,15.6-51.36,24.84C179.3,66.24,165.05,74.91,156.39,88c-.49.75,1.46.57,1.8,0,8.81-13.35,23.37-21.86,37-29.49,16-8.93,32.27-18,49.64-23.9,1.28-.44.11-1.09-.76-.8Z"/><path class="cls-4" d="M217.21,28.75c-26.42,13.62-51.56,29.36-68.82,54.18-.54.77,1.43.66,1.82.09,17-24.44,41.77-40,67.79-53.37,1.19-.61.1-1.35-.79-.9Z"/><path class="cls-4" d="M168.77,38c-10.4,10.57-18.47,22.9-27,35-.14.2,1.58.13,1.9-.34,8.45-12,16.47-24.27,26.81-34.78.42-.42-1.42-.19-1.75.14Z"/><path class="cls-4" d="M137.44,52.6c-4.24,8.38-4.39,17.79-5.81,26.89-.1.63,1.83.27,1.92-.29,1.42-9.1,1.57-18.51,5.81-26.89.22-.44-1.64-.26-1.92.29Z"/><path class="cls-4" d="M113.44,70.69c.32,7.42,5.27,14.13,10.27,19.26.63.64,2.46-.16,1.77-.87-4.8-4.91-9.77-11.4-10.08-18.53,0-1-2-.75-2,.14Z"/><path class="cls-4" d="M96.21,86.33c4.64,2.35,9.16,4.93,13.81,7.27.53.27,2.31-.51,1.54-.9-4.64-2.35-9.16-4.92-13.81-7.27-.53-.27-2.31.52-1.54.9Z"/><path class="cls-4" d="M85.72,98.84c9.21.76,18.36,2.09,27.61,2.18.81,0,2-1.2.72-1.21-9.25-.09-18.4-1.43-27.61-2.18-.82-.07-2,1.1-.72,1.21Z"/><path class="cls-4" d="M87.48,94.4c-4,3.5-5.24,9.06-6,14.11-.13.85,1.83.52,1.94-.21.72-4.8,1.79-10.16,5.63-13.49.87-.76-1-.87-1.57-.41Z"/><path class="cls-4" d="M88.79,99.55c-1.34,2.63-2.87,5.13-3.64,8-.3,1.11,1.62,1.16,1.86.27.77-2.87,2.3-5.37,3.64-8,.51-1-1.45-1.08-1.86-.27Z"/><path class="cls-4" d="M88.76,103.49a14.27,14.27,0,0,0-1.46,5.9c0,.3,1.92,0,1.93-.51a13.75,13.75,0,0,1,1.44-5.73c.14-.29-1.67-.15-1.91.34Z"/><path class="cls-4" d="M94,102.43a6.27,6.27,0,0,0-1.64,6.24c.21.69,2.14.16,1.93-.52a5.41,5.41,0,0,1,1.27-5.39c.78-.83-1.1-.81-1.56-.33Z"/></svg>