<svg id="layer1" xmlns="http://www.w3.org/2000/svg" viewBox="0 0 278.4 336.55"><defs><style>.cls-1{fill:#5b7c46;}.cls-2{fill:#492d0c;}</style></defs><path class="cls-1" d="M212.39,222.4c.57-2.61,1.14-5.18,1.51-7.68,1.49-10.13.23-20.34-.26-30.52,0-2-.09-3.93-.17-5.9a6.14,6.14,0,0,0-.37-1.94c.58-6.37,1.08-12.75,1.24-19.15.32-13.71,1.56-28-.65-41.7.14-2.46.28-5,.27-7.42.27-3,.49-6,.6-9,.18-5-1.2-10-5.81-12.52-3.4-1.9-7-1.4-10.27.11a5.5,5.5,0,0,0-2.26-.47c-9.68,0-19.36.89-29,.89-9,0-19.15,0-27.11,4.8-5.45,3.26-8.77,8.87-11.37,14.47a81.2,81.2,0,0,1-4.55,9.28,36.81,36.81,0,0,1-4.8,3.4,5.5,5.5,0,0,0-2.14,2,20,20,0,0,0-2.46,1.43c-.41,0-.82-.09-1.23-.1a4.92,4.92,0,0,0-1.33-1.32c-1.48-2.43-2.64-5-4.61-7,.66-5-.75-10.16-5.68-12.49-5.12-2.42-10.75-1.29-15.7,1-4.34,2-8.43,6.24-9.23,11.09-1.24,7.5,3.75,13,9.49,17a5.8,5.8,0,0,0,1.82.87,19.6,19.6,0,0,0-.24,3c-6.39,1.82-8.66,9.94-9.24,16.23-.82,8.88.63,18.06,2,26.81.18,1.12.34,2.24.5,3.36-1.73,6.83-.59,14.22.36,21.13l0,.23c-.12,2.27-.2,4.54-.26,6.81-.23,8.51-.68,17-.72,25.5,0,7.75.76,16.1,4.22,22.86a12.73,12.73,0,0,0,.56,1.68,5.28,5.28,0,0,0,.09.68c1.56,7,7.18,10.62,13.81,12.05a5.57,5.57,0,0,0,5-1.25c4.18.72,8.81.89,12.49-.15,12.87,1.8,25.85,1.23,38.8,2.06a149.08,149.08,0,0,0,17.68.37,44.86,44.86,0,0,0,9.72-1.43c5.23.1,10.87-.68,14.54-3.89a21.13,21.13,0,0,0,6.18-1.91c6.47-3.15,8.73-10.37,9.68-16.94.69-4.71,1.83-12.49-1.93-16,.26-3.26.52-6.51.75-9.77C212.36,222.81,212.37,222.61,212.39,222.4Zm-87.6-57.08c.35,0,.69,0,1,0a7.73,7.73,0,0,0,1-.16c5.6.4,11.36-1.1,17-1.63,7.74-.71,15.47-.9,23.23-.89,7,0,15,.16,20.82,3.92.58,8.93.2,17.92.2,26.83h0v-.23h.59a5.82,5.82,0,0,0,2.68,4.88c.07,1.7.17,3.45.3,5.14-2.3,4-4.38,8.22-6.66,12.28a102.94,102.94,0,0,0-5,9.25c-5.45,2-11.43,1.08-17.13,1.23-7.72.21-15.42,1-23.14,1.25-7.16.25-14.34,0-21.32-1.71a16.05,16.05,0,0,1-5-2,26.21,26.21,0,0,0-4.44-6.11c-1.92-5.66-2-11.84-1.55-18a104.09,104.09,0,0,0,1-11.26,7.24,7.24,0,0,0-.11-1.35c.84-6.36,1.49-12.76,2-19.16a6.15,6.15,0,0,1,1.44-1C116.3,166.5,121.17,165.55,124.79,165.32Zm18-63.63c2.34-2.1,5.08-6.59,8-7.12,4.37-.79,14.26,0,18.69,0,5.89,0,12.54-.79,18.43-1-1.28,1.49-5.7,7.35-7,8.84-3.4,4-6,8.17-10.68,10.8-5,2.83-12,3.2-17.65,3.67-2.6.21-5.21.33-7.81.4s-5.34-.09-8,0a5.8,5.8,0,0,0-.15-.85C139,111.39,138.61,105.43,142.76,101.69Z"/><path class="cls-2" d="M100,129.82c-4.56,2.52-9.49,4.49-13.93,7.21-2.2,1.34-4.54,3-5.17,5.66-.86,3.67-.73,7.69-.85,11.43-.52,16.14-.27,32.33-.06,48.48.19,14.85.46,29.7,1,44.54.2,5.77-.48,15.55,4.62,19.57,5.89,4.66,16.7,5.21,23.88,4.47,1.07-.12,1.49-1.54.17-1.4-7.52.78-21.3.29-24.86-7.64-2.49-5.54-1.82-13.47-2-19.52-.44-14.19-.69-28.39-.87-42.59s-.3-28.52,0-42.77c.09-4.29.16-8.61.64-12.88C83.41,137,95.3,134,100.88,130.94c1.15-.63.11-1.64-.85-1.12Z"/><path class="cls-2" d="M109,270.93c12.83,1.32,26.22.31,39.09.2,14.87-.14,29.81-.06,44.66-.87,6.87-.37,15.28-2.63,19.15-8.81,3.62-5.79,2.14-14.06,2.26-20.5.34-18.12.82-36.21.87-54.34,0-13.71.09-27.43-.21-41.14,0-.46-1.95-.13-1.93.51.76,35.35.14,70.77-.66,106.09-.08,3.83-.72,7.62-3,10.78-3.49,4.83-10.95,6.26-16.48,6.53-6.25.31-12.51.38-18.76.5-17.47.31-35,.5-52.42.41-3.76,0-7.6.12-11.34-.26-.5-.06-2.25.8-1.23.9Z"/><path class="cls-2" d="M102.18,130.11c7.22-4.11,14.6-11.72,23-12.66,10.37-1.17,20.81-1.56,31.18-2.62,6-.6,13.1-.37,17.8-4.69S182.26,100,186.8,95.31a33.87,33.87,0,0,1,12.32-8c2.86-1.07,11.68-4.23,13.19-.43,2.1,5.34,1.59,12.29,1.66,17.9.17,13.74-1,27.43-1.11,41.15,0,.44,1.92.13,1.93-.51.11-14.39,1.32-28.72,1.08-43.12-.08-5.1.49-12.28-2.09-16.92-.91-1.63-3.13-1-4.63-.87a40.42,40.42,0,0,0-12.85,3c-6.85,2.84-12.05,8.14-16.55,13.87-1.93,2.46-3.75,5-5.87,7.3-3.31,3.61-7.11,4-11.78,4.61-11.44,1.42-23,1.92-34.46,3-7.37.69-12.56,4.33-18.7,8.35-2.61,1.71-5.19,3.46-7.91,5-1.12.64.63.68,1.15.38Z"/><path class="cls-2" d="M86.42,125.13c.57,3.27,1.41,6.4,0,9.59-.26.58,1.65.36,1.93-.25,1.44-3.27.59-6.49,0-9.86-.12-.64-2.06-.17-1.93.52Z"/><path class="cls-2" d="M106.48,114.45c2.21,3,4.57,6.51,8.64,6.68.78,0,2-1.12.73-1.17-3.52-.15-5.7-3.76-7.58-6.29-.42-.58-2.29.1-1.79.78Z"/><path class="cls-2" d="M75.67,115c3.45,3.21,4.55,14.08,11.14,10.63a57.12,57.12,0,0,0,6.35-4.36c3.44-2.45,7.5-3.61,11.33-5.23s5.3-5,4.15-9.12c-2.15-7.74-11.26-6.11-16.65-4.09-3.54,1.33-16.93,5.16-14.76,11,.21.57,2.12,0,1.93-.52-1.8-4.85,8.66-8,11.8-9.21,1.74-.67,3.55-1.24,5.25-2,4.56-2.13,9.7,2.47,10.8,6.45,1.65,5.93-4.59,7.24-8.64,9.07a45.87,45.87,0,0,0-9.58,5.61c-4.74,3.66-5.75,1.12-7.28-2.78a16.15,16.15,0,0,0-4-6.12c-.44-.41-2.23.32-1.81.7Z"/><path class="cls-2" d="M121.51,118.76c5.06-4,10.55-9.72,12.24-16.14.89-3.36,1.45-6.74,3.16-9.82,2.6-4.68,11.15-3.54,15.51-3.5,9.35.07,18.66-2.23,28-2.15,7.84.07,15.6.81,23.29-1.15,1.19-.3.87-1.47-.31-1.17-9.13,2.32-18.52.61-27.79,1.29S157.17,87.76,147.88,88c-5.45.13-10.59.7-13.43,5.81-1.78,3.21-1.82,7.13-3.31,10.47A36.15,36.15,0,0,1,120.26,118c-1,.82.56,1.3,1.25.76Z"/><path class="cls-2" d="M137.47,114.79c-.9-1.23,1.94-6.6,2.41-7.76a49.13,49.13,0,0,1,5.64-10.8c3.75-5,16.06-1.36,21.49-1.09,6.83.33,13.67-1,20.49-1.17.59,0,2.1-.92.81-.9-4.94.09-9.82.68-14.74,1s-9.53-.25-14.34-.83c-4.51-.54-10.74-1-14.58,2.06-3.09,2.45-4.78,7.59-6.28,11-.67,1.55-4,7.42-2.71,9.11.31.42,2.17-.21,1.81-.7Z"/><path class="cls-2" d="M115.68,177.59c-.24,9.72-5.75,21-1.87,30.5,1.39,3.39,6,4.54,9.28,4.25A17.93,17.93,0,0,0,136,205.53c3.21-4.05,3.44-11.16,3.94-16.05.46-4.52,1.11-10.41-2.79-13.58-4.93-4-17-5.52-19.82,1.69-.27.7,1.67.47,1.94-.21,1.89-4.76,8.36-3.75,12.23-2.6,4,1.19,6.15,3.55,6.63,7.65.85,7.2-.21,19.23-5.42,24.7-3.74,3.93-12.12,6.11-16.23,1.58-2.32-2.55-1.87-7.47-1.68-10.55.43-7,2.68-13.79,2.85-20.78,0-.87-1.92-.49-1.94.21Z"/><path class="cls-2" d="M121.86,179.1c-5.22,3.37-4.88,14.05-5.06,19.44-.1,2.78-.55,6.74,2,8.57,1.89,1.38,5.56-.15,7.38-.79,7.12-2.5,10.6-13.72,9-20.5-1.32-5.61-8-10.57-12.91-6.09-.39.35,1.41.13,1.74-.17,3-2.77,6.65,2.05,7.93,4,1.47,2.18,1.63,4.33,1.49,6.87a28.62,28.62,0,0,1-2,8.74c-1.5,3.81-9,11.74-12.07,5.81-1.58-3-.58-8.42-.33-11.69.31-4,.46-11.65,4.33-14.15.79-.51-1.15-.22-1.47,0Z"/><path class="cls-2" d="M147,174.35c-.13,12.76-2.63,25.23-4.33,37.83,0,.44.54.52.85.46,2.56-.44,5.83-.11,7.77-2.15.94-1,1.16-2.67,1.43-3.93.86-4.12,1.19-8.32,2.16-12.43.82-3.46,1.08-7.2,1.67-10.72.42-2.47.93-5,.16-7.5-.94-3-6.18-2.1-8.38-2.09-.76,0-2,1.31-.73,1.31h1.08c.77,0,2-1,.73-1h-1.08c-.24,0-.49.54-.73.93,2.12,0,5.33-.66,6.92,1,1.87,2,.19,7-.19,9.33-1.26,7.53-2.24,15.16-3.81,22.63-.41,1.95-6,4.86-5.66,2.06.51-3.74,1.11-7.48,1.69-11.22A174.12,174.12,0,0,0,149,174.13c0-.85-1.93-.46-1.94.22Z"/><path class="cls-2" d="M162.7,173.8c-1.21,11.78-4.67,23.23-4.87,35.13,0,.34.29.52.62.53,6.5.19,13.89,3,19.9-.48,4.9-2.82,6-9.95,5.74-15,0-.17-.26-.3-.39-.33-2.79-.55-4.95-.11-5.94,2.78a30.93,30.93,0,0,0-.64,3.07c-.47,2.16-3,1.95-4.76,2.09-1.38.11-4.39.93-4.75-.81-.46-2.26.08-4.8.49-7,.63-3.43,1.71-6.76,2.33-10.19.44-2.5,1.5-5.29,1.14-7.86-.49-3.44-3.9-5.29-6.9-3.45-1.12.69.53,1.17,1.24.73,5.61-3.43,2.37,11.93,2,13.54-1.15,5.34-3.12,10.57-2,16.08.05.25.39.37.61.37,3,0,9.11.87,11.41-1.48a7,7,0,0,0,1.41-3.73c.42-2.3,2.91-2.08,2.73.34a18.74,18.74,0,0,1-1.58,5.93c-2.44,5.68-8.25,5.54-13.53,4.92-2.12-.25-4.22-.54-6.35-.7-1.69-.13-.52-6.08-.43-7,.93-9.3,3.47-18.37,4.42-27.68.09-.89-1.87-.57-1.94.2Z"/><path class="cls-2" d="M119.1,178.89c-3.84,3.91-3.39,10.43-4.5,15.45l1.94-.2c.75-5.49,3-10.64,3.25-16.21,0-1-1.58-.43-1.89,0-4.69,6.87-3.33,17.68-3.3,25.56,0,.91,1.91.56,1.94-.19.16-3.81.92-7.7,1.08-11.51a.69.69,0,0,0-.61-.69h-.54a1.45,1.45,0,0,0-1.33.88c-1.56,4.53-.64,9.46-.54,14.14,0,.88,1.6.57,1.88,0,1.19-2.43,1.13-5.05,1.14-7.71,0-1-1.73-.45-1.94.21-1.13,3.48-1.42,9.62,1.7,12.2a1.28,1.28,0,0,0,1.87-.5,5.79,5.79,0,0,0-2.38-6.9c-.47-.33-1.89.05-1.73.77,1.22,5.31,12.63,9.22,14.91,2.89a.37.37,0,0,0-.21-.41c-4-2-9.39-1.62-12.36,1.91a.46.46,0,0,0,.22.81,15.84,15.84,0,0,0,9.91,0c.47-.15,1.34-.91.43-1.16a6.86,6.86,0,0,0-4.32,0c-.27.07-.63.31-.63.67v.54c0,.34.09.52.42.52,6.37.07,11.48-5.76,13.13-11.53.22-.79-1.37-.44-1.64-.26-2.58,1.66-4,4-5.18,6.78-.39.89,1.11.72,1.51.43,3.06-2.25,4.78-5.5,6.23-8.95.35-.81-.89-.71-1.31-.54-3.58,1.38-4.69,5.84-5.44,9.22-.17.78,1.29.5,1.59.27,4.12-3.23,7.8-10.47,6.83-15.75-.13-.73-1.46-.27-1.75,0-2.19,2.25-2.32,4.83-2.34,7.89,0,.95,1.75.49,1.94-.2,1.33-4.76,3.42-11.45.46-16-.34-.52-1.59-.16-1.8.33-1,2.31-.6,4.22.56,6.41.34.66,1.71,0,1.86-.5,1.2-4.1-.3-10-5.3-10.13-3.63-.11-1.89,3.16.51,3.79.44.12,1.74-.14,1.54-.84-1.17-4.13-5.76-3.63-9.26-3.6-.81,0-2,1.26-.71,1.26h3.25c.53,0,2.09-.95.93-1.22a15.59,15.59,0,0,0-8.3,0c-.47.14-1.33.91-.42,1.15a7.46,7.46,0,0,0,4.51,0c.57-.16,1.24-.83.42-1.16a5.74,5.74,0,0,0-6.06.76l1.24.73c4.32-3.41,9.76-4.32,14.17-.5l1.24-1c-4.23-.06-8.64-.35-12.57-2.05-.29.38-.58.75-.86,1.13,4-.27,10.74,1.72,12.65,5.59l1.08-.88c-3.14.27-4.94-1.14-6.25-3.57l-1,1c9.34-.94,5.17,16.79,3,21.48l1.89,0c.23-6.32,4-14.58-.09-20.3-.38-.54-2.07-.08-1.85.66,2,6.83,1.47,13.88,1.43,20.92a11.63,11.63,0,0,0,1.76-.2V180.09a13.87,13.87,0,0,1-1.76.19,55.16,55.16,0,0,0,1.18,13.14c.19.78,1.85.27,2-.36,1-4.65.62-9.51.57-14.23a.69.69,0,0,0-.6-.7h-.54a1.46,1.46,0,0,0-1.33.9c-.84,2.61-.51,4.2.55,6.69a.68.68,0,0,0,.61.41h.54c.45,0,1.24-.12,1.33-.68,1.68-9.84-9.28-10.31-16.26-8.56-1,.25-1.07,1.23,0,1.2a8.87,8.87,0,0,0,5-1.33c.55-.34.38-1-.27-1-4.27-.1-7.81,2.22-8.35,6.66-.1.86,1.45.5,1.76.13,1.6-1.89,2.73-4.06,4.33-5.95.37-.44.06-.77-.44-.84a5.3,5.3,0,0,0-4.76,1.34c-1,.84.56,1.17,1.24.73a21.65,21.65,0,0,0,3.42-2.85c.83-.82-.93-.9-1.41-.58l-1.63,1.08c-1.09.73.55,1.18,1.24.72,4.85-3.14,7.8-1.05,11.06,1.23l1.11-1.13a48.69,48.69,0,0,1-6.81-1.58L126,176c4.9.54,8.91,1.62,10.74,6.66l1.86-.66a42.8,42.8,0,0,0-3.24-4.33l-1.65.92c3.78,2.79,2.63,9.36.89,13.08-2.18,4.64-3.37,9.72-5.37,14.44l1.88,0a28.14,28.14,0,0,1,2.11-8.49l-1.88.2c.58,7.24-5.19,9-11.08,10.52-.67.17-1.26,1.15-.2,1.19,2.66.1,5,.29,7.53-.59.3-.1,1.34-.75.61-1.08a19.33,19.33,0,0,0-7.43-1.81c-.24.41-.47,1.16-.71,1.16h4.86c.16,0,.31-.74.47-1.16a12,12,0,0,0-7.22,2.46c-.31.24-.52.61-.13.89,3.24,2.43,8,1.75,11.1-.68.38-.3.52-.76,0-.94-3.73-1.2-8.26-1.17-11.47,1.31-.23.18-.6.68-.13.87,5.49,2.28,12.23.62,15.17-4.77.5-.9-1.18-.63-1.53-.43l-.89.29.3,1.1c2.43-1.07,3.48-3.09,4.83-5.28l-1.82-.13c-.55.9-1.09,1.8-1.63,2.7s1.17.71,1.53.43a17.28,17.28,0,0,0,3.54-4.08c.55-.81-1.41-.73-1.82-.13l-3,3.48,1.53.43c.55-.9,1.09-1.8,1.63-2.7s-1.45-.75-1.82-.13c-1.06,1.71-1.86,3.59-3.82,4.45-.85.37-.6,1.17.29,1.1a4.45,4.45,0,0,0,2.35-.8l-1.53-.43a7.49,7.49,0,0,1-3.71,3.73l-3,.89c-2.18.72-2.74.29-1.69-1.31.52-.09,7.52-.55,2.94,1l-5-.36a6.82,6.82,0,0,1,4.79-1.61c.77,0,1.65-1.2.46-1.2h-4.86c-.8,0-2.05,1.15-.71,1.21a17,17,0,0,1,6.62,1.48l.61-1.09c-2.29.8-4.25.56-6.52.48-.07.4-.13.79-.2,1.19,6.85-1.72,13.36-3.92,12.7-12.18-.06-.73-1.69-.28-1.88.2a29.49,29.49,0,0,0-2.22,8.81c-.05.88,1.64.53,1.88,0a134.3,134.3,0,0,0,6.28-16.83c1.07-4,1.59-9.11-2.11-11.85-.48-.35-2.22.26-1.64.92a41.58,41.58,0,0,1,3.24,4.32c.37.55,2.12.06,1.85-.66-2-5.5-6.55-6.79-12-7.39-.61-.07-2,.94-.93,1.21a51.75,51.75,0,0,0,7.25,1.66c.47,0,1.91-.58,1.11-1.14-4.71-3.31-8.85-4.15-13.81-.93l1.24.72,1.62-1.08-1.41-.58a15.08,15.08,0,0,1-3.07,2.56l1.24.73c3.53-2.83-1.91,4.23-2,4.28l1.77.12a10.83,10.83,0,0,1,1.83-5.38c0,.39,0,.79,0,1.18,6.24-1.56,15.49-1.05,14,7.64L137,185c-1.45,0-.82-4.86-.46-6l-1.33.72c.46,0-.3,12-.62,13.52l1.94-.35a54.15,54.15,0,0,1-1.28-12.81c0-.92-2.16-.55-2.16.19v20.54c0,.92,2.15.55,2.16-.2,0-7.15.53-14.29-1.53-21.23l-1.8.66c3.89,5.4.17,13.66,0,19.69,0,.89,1.63.52,1.89,0,2.74-5.88,6.68-24-4.58-22.84-.47,0-1.31.42-1,1a7.52,7.52,0,0,0,7.81,4c.29,0,1.32-.39,1.07-.88-2.26-4.57-9.65-6.62-14.37-6.31-.35,0-1.69.78-.86,1.13,4.2,1.82,8.84,2.21,13.37,2.28.29,0,1.88-.48,1.25-1-5.18-4.48-12.05-3.47-17.19.58-1,.83.56,1.2,1.24.73l3.67-.32.42-1.16h-3l-.42,1.15a11.25,11.25,0,0,1,6.84.16c.31-.41.62-1.08.93-1.08h-3.25c-.23,0-.47.7-.71,1.11,2.86,0,7.05-.67,8,2.81l1.54-.87c2.44.64,2.29,5.67,1.7,7.69l1.86-.51a5.74,5.74,0,0,1-.52-5.48l-1.8.33c2.77,4.24.62,10.89-.62,15.37l1.94-.2c0-2.64-.08-5.13,2-7.25l-1.76,0c.87,4.73-2.44,11.62-6.14,14.51l1.6.27c.57-2.63,1.41-7,4.29-8.07l-1.31-.55c-1.32,3.13-2.85,6.29-5.66,8.35l1.53.43c1.08-2.46,2.24-4.68,4.58-6.19l-1.6-.26a16.24,16.24,0,0,1-3.42,6.15,15.89,15.89,0,0,1-2.76,2.48c-4.53.94-5,1.64-1.52,2.13l.42-1.16c-1.33.42-11.3.88-5.36-1.19a9.63,9.63,0,0,1,4.8,0c-.62,1.8-1.73,2.36-3.3,1.69-2.7-.49-5.73-2.24-6.37-5.06l-1.73.77a4.92,4.92,0,0,1,2,6.07l1.86-.5c-3-2.47-2.63-8.23-1.54-11.59l-1.94.2c0,2.5.11,5.09-1,7.4l1.88,0c-.1-4.69-1-9.52.54-14.05l-1.33.72c.63,0-.27,2.47-.35,3.26-.27,2.53-.69,5-.8,7.56l1.94-.19c0-7.72-1.39-18.53,3.18-25.24l-1.88,0c-.26,5.57-2.49,10.72-3.24,16.22-.12.89,1.78.52,1.94-.2,1-4.68.58-11.19,4.14-14.81.83-.85-1.06-1-1.58-.44Z"/><path class="cls-2" d="M150.45,180.53c-2.26,2.39-1.94,6.24-2.13,9.31a98.94,98.94,0,0,1-3.45,19.09c-.21.79,1.74.51,1.94-.21,2.75-10.26,6.32-20.3,8.1-30.8.06-.35-.34-.47-.61-.49-4.49-.39-5.54,7.68-6.18,10.6a111.42,111.42,0,0,0-2.71,22c0,.95,1.7.38,1.94-.22a82.49,82.49,0,0,0,5.94-29.72c0-.45-.49-.52-.85-.49-4.73.47-5.38,7.07-5.87,10.69-.92,6.71-.66,13.52-.62,20.28,0,.92,1.73.43,1.94-.21,3.31-10.58,6.3-21.28,6.48-32.43,0-.88-1.39-.39-1.75-.1-3.32,2.74-3.32,8.54-3.85,12.45-.89,6.58-2.14,13.24-1.74,19.9.05.75,1.66.18,1.87-.21,4.34-7.94,6.45-16.64,7.63-25.56.12-.85-1.64-.45-1.87.06-3.69,7.91-4.4,16.55-6,25-.16.82,1.79.51,1.94-.22,1.26-6.3,2.61-12.58,3.53-18.93.55-3.74,2.14-8.82-.37-12.16-.36-.49-1.57-.13-1.8.34-1.66,3.45-1.67,7.21-1.68,11,0,.81,1.42.5,1.76.09,2.34-2.84,5.38-11.42,2.21-14.45-3.94-3.78-4.54,6.1-4.51,7.43a.6.6,0,0,0,.61.58h.54a1.55,1.55,0,0,0,1.27-.64c1.46-2.62,2.71-8.14-1.41-8.77-.5-.08-1.41,0-1.55.65-.6,2.66-.92,5.11,0,7.71.28.78,1.73.2,1.94-.37,1-2.85.22-4.84-2.55-5.87-.38-.14-1.57.11-1.55.67a11.55,11.55,0,0,0,1.08,5.15.75.75,0,0,0,.61.47h.54c.46,0,1.2-.3,1.33-.83.44-1.79.64-3.68,1.08-5.48-.45.24-.89.44-1.33.67.56,0,1.18,4.9,2.72,5.59a1.48,1.48,0,0,0,1.38-.17c.82-.64.85-1.3,1-2.37l-1.94.21c-.14,1.63-.4,3.24-.54,4.87-.08.9,1.75.43,1.94-.21.78-2.67,1.87-5-.08-7.32-.43-.51-1.48-.1-1.79.34-6,8.39-4.9,19.26-7.63,28.8l1.94-.21c1.69-8.1,4.14-16,4.32-24.32,0-.88-1.85-.5-1.94.21-1.21,9.19-3.1,18.27-3.24,27.57,0,.87,1.93.5,1.94-.22.14-9.29,2-18.37,3.24-27.56l-1.94.21c-.18,8.34-2.63,16.22-4.32,24.32-.18.84,1.74.47,1.94-.21,2.7-9.42,1.53-20.2,7.5-28.49l-1.8.35c1.8,2.13.56,4.56-.08,6.74l1.94-.22c.14-1.63.4-3.23.54-4.86.08-.87-1.83-.5-1.94.21-.31,2.05.13,0-.34-1.24-.37-1-.65-2-1-3a.69.69,0,0,0-.61-.41h-.54c-.46,0-1.2.24-1.33.77-.44,1.79-.64,3.65-1.08,5.44.44-.23.89-.45,1.33-.69-1,0-1-4.75-1-4.36l-1.55.68c2.64,1,2.52,2.86,1.77,4.94l1.93-.36c-.89-2.52-.56-4.89,0-7.41l-1.55.67c3.26.5,1.8,5.17,1,7,.15-.35,1.06.26,1-.32a21.76,21.76,0,0,1,.25-4.49c.44-2.45,1.41.75,1.46,1.11a13.92,13.92,0,0,1-.25,3.75c-.36,2.42-1.07,5.4-2.66,7.32l1.76.1c0-3.61-.05-7.33,1.56-10.65L152,179c2.47,3.3.61,8.9.06,12.61-.87,6-2.19,12-3.38,17.91l1.94-.22c1.59-8.34,2.25-16.9,5.88-24.7l-1.88.06c-1.16,8.8-3.21,17.39-7.5,25.24l1.87-.21c-.38-6.32.93-12.51,1.63-18.76.41-3.72.5-10.11,3.6-12.67l-1.76-.09c-.18,11.15-3.17,21.86-6.48,32.43l1.94-.21c0-7.1-.21-14.19.75-21.24a31.46,31.46,0,0,1,1.13-5.09c1.65-5.26,1.4,1.52,1.23,3.51A79.45,79.45,0,0,1,145.41,210l1.94-.22a115.91,115.91,0,0,1,2.92-22.94,43.45,43.45,0,0,1,1.41-5,14.59,14.59,0,0,1,1-2.24c.42-.7.41-.59,0,.34-.22,1.22-.46,2.42-.73,3.63-1.83,8.58-4.79,16.9-7.06,25.36l1.94-.21a113.86,113.86,0,0,0,3.06-15.52c.42-3.44-.37-9.6,2.16-12.27.8-.85-1.09-.92-1.58-.4Z"/><path class="cls-2" d="M167.9,176c-3,1.76-3.39,7-3.91,10-1,5.44-1.26,10.95-1.84,16.43-.09.91,1.67.64,1.9,0,3.41-9.29,5.84-18.87,6-28.81,0-.37-.29-.56-.63-.58-5.2-.35-6,7.87-6.56,11.41a142.59,142.59,0,0,0-1.25,21.76c0,1,1.93.65,1.95-.17.33-9.85,6.32-19.45,3.78-29.36-.09-.35-.57-.44-.87-.4-4.15.5-4.7,6.43-5.18,9.63-1,6.55-.67,13.19-1.3,19.76-.09,1,1.78.6,1.95-.17,2.31-10.18,5.2-20.26,4.87-30.79,0-.5-.46-.58-.88-.58h-1.08a1.23,1.23,0,0,0-1,.57c-4.56,9.35-3.35,20.36-3.3,30.44,0,.85,1.41.66,1.78.16,2.33-3.18,2.88-7.05,3.33-10.88.72-6.23,1.36-12.43,2.25-18.64.13-.92-1.65-.61-1.9,0-4,9.76-4.35,20.58-4.38,31,0,.91,1.66.67,1.9,0,1.4-4,3-8,1.67-12.24-.25-.83-1.56-.3-1.89.17-2.32,3.34-4.77,10.32-2.13,14,.42.59,1.51.17,1.81-.32,1.8-3,2.13-6.45,2.22-9.9,0-1-1.57-.54-1.9,0a16,16,0,0,0-2.22,8.28c0,1,1.56.5,1.9,0a17.78,17.78,0,0,0,2.76-9.91c0-.49-.49-.59-.88-.58-5,.12-4.91,9.51-4.31,12.82.12.67,1.26.38,1.6.14,2.83-1.93,5.59-7.31,4.14-10.67-1-2.41-4.15-1-5,.64-1.41,2.8-.31,7.4,1.71,9.61,2.36,2.58,5.71,0,7.41-1.89a.5.5,0,0,0,0-.79c-2.14-1.74-4.17-2.17-6.9-2.29-.4,0-1.32.18-1.32.75.12,8.68,20,.78,7.34-3.08-2.67-.81-11.61,1.18-7.79,5.57,3,3.43,11.28,1.62,14.12-1.24a.5.5,0,0,0-.23-.87,41.17,41.17,0,0,0-11-1.67c-.42,0-2,.7-1.09,1.2,3.94,2.12,8.19,1.81,12.54,1.75.45,0,1.63-.77.85-1.2-1.47-.81-12.7-4.57-12.15.26.46,4.08,9.74,3.41,12.36,2.43.32-.12.77-.59.47-1a13.81,13.81,0,0,0-8.07-4.88c-1.21-.2-4.55,1-3.77,2.77,1.62,3.71,10.22,3.59,12.83,1.16a.51.51,0,0,0,.09-.67,6.81,6.81,0,0,0-11.53,1.41.45.45,0,0,0,.16.62c4.42,2.8,13.56-1,13.62-6.56,0-.71-1-.64-1.39-.45-2.58,1.12-3.55,2.85-3.26,5.66.09.79,1.47.27,1.77,0a16.33,16.33,0,0,0,5-11.15c0-.84-1.19-.57-1.61-.32-3.31,2.09-3,6.88-4.12,10.22-.31.92,1.48.43,1.77.17a15.11,15.11,0,0,0,5-10.07c.07-.83-1.21-.59-1.61-.32-4,2.71-4,8.72-5.2,12.92-.26.88,1.61.57,1.89,0l1.62-3.25c.49-1-1.31-.77-1.72-.34-1.12,1.19-4.61,6.26-6.55,4.58-.61-.52-2.32.37-1.5,1.08,3.47,3,7.64-3,9.65-5.15l-1.71-.34c-.55,1.08-1.09,2.16-1.63,3.24h1.9c1.08-3.68,1-9.58,4.52-11.94l-1.61-.32a14,14,0,0,1-4.69,9.39l1.78.17c.91-2.78.71-7.52,3.44-9.24l-1.61-.32a15.16,15.16,0,0,1-4.69,10.47h1.77q1.07-2,2.15-4.08l-1.39-.44c0,2.49-2,3.91-4,5a9.8,9.8,0,0,1-3.55,1q-4.92-3.44,4.18-2.19c2.53,1.32-3,1.37-3.39,1.35a13.8,13.8,0,0,1-2.46-.44c-3.28-.81,1.17-1.7,2.48-1,.63.36,3.43,2.28,2.75,2.38a17.85,17.85,0,0,1-4.32-.08,11.59,11.59,0,0,1-2.39-.52q-3.28-1.12,1.08-2a15.65,15.65,0,0,1,6,1.79l.85-1.2c-3.87.05-7.67.42-11.24-1.49l-1.09,1.2c1.36,0,12.62.55,7.4,2.18a15.3,15.3,0,0,1-4.75.59c-5.29,0-2.94-5,1.25-4.73,2.39.13,6,3.13,2.08,4.19-2,.53-5.71.3-5.74-2.44l-1.32.75c1.09.05,6.52.68,5.31,2.05-2,2.24-3.07,1.22-4-.14a9.92,9.92,0,0,1-1.31-5.56c0-2.54,2.07-3.74,1.95-.37-.09,2.35-1.85,5.93-3.82,7.28l1.59.14a21.46,21.46,0,0,1,.51-8.21c.11-.48.9-4,.68-1.06a14.81,14.81,0,0,1-2.53,7.28H163a15.16,15.16,0,0,1,2.11-7.93h-1.9c-.08,3.32-.35,6.63-2.1,9.55l1.81-.32c-2.38-3.33.15-10.08,2.19-13l-1.89.17c1.23,4.07-.24,7.7-1.57,11.54h1.89c0-10.26.32-21,4.27-30.63h-1.89c-.7,4.89-1.53,9.78-1.91,14.71-.36,4.66-.45,10.22-3.32,14.13l1.77.17c0-9.19-.93-18.8,2.09-27.65,1.13-3.29.34-.57.33,1.2a63.22,63.22,0,0,1-1,9.2c-.95,6-2.59,12-3.95,18l1.95-.17c.72-7.54.32-15.12,1.79-22.59a11.3,11.3,0,0,1,1.89-4.93s.42,5.2.42,4.52a28.12,28.12,0,0,1-.51,4.39c-1.06,6.52-3.69,12.65-3.92,19.32l1.95-.17A148.77,148.77,0,0,1,165,183.32a34.69,34.69,0,0,1,1.33-5.7,15.24,15.24,0,0,1,.81-1.85c1.31-2.57.94.1.88,1.47-.4,8.55-2.85,17-5.78,25h1.9c.41-4,.7-7.94,1.18-11.91.4-3.35.58-11.58,3.88-13.54,1.12-.67-.51-1.26-1.27-.81Z"/><path class="cls-2" d="M108.62,170.15c-2.13,6.08-1.11,11.58-1.16,17.83-.06,7.23-.81,14.45-1.34,21.65-.63,8.46-.82,15.78,8.81,18,12.59,3,26.28-.4,39.11.45,10.21.67,22.34,2.41,30.48-5.16,7-6.52,7.53-18.11,8.23-27s1.92-23.34-5.88-29.59c-2.77-2.23-6.79-2.76-10.19-3.14a167.26,167.26,0,0,0-20.52-.52c-15,.17-30,1.81-44.92,3.75-1.07.13-1.5,1.62-.16,1.62h1.08c1.11,0,1.48-2,.17-2h-1.09a13.39,13.39,0,0,1-.16,1.52c11.65-1.51,23.33-2.62,35.07-3.2,11-.54,22.6-1.19,33.46.74,12,2.14,11.54,16.15,11.42,25.74-.11,8.93-.76,19.53-5.08,27.52-6.29,11.63-22.2,8.84-33.09,8.12-10.72-.7-21.36,1.23-32,.51-4.84-.33-10.51-1.34-12.48-6.34-1.54-3.89-.41-9.21-.12-13.22.44-5.9.94-11.8,1.16-17.72.24-6.68-1.19-12.91,1.08-19.42.38-1.06-1.56-1-1.84-.23Z"/><path class="cls-2" d="M102.63,146.2c1.23,3.87,3.09,7.49,4.32,11.35s1,8,2.7,11.89c.23.52,2.11-.11,1.94-.51a39.32,39.32,0,0,1-2.52-10.6c-.62-4.4-3.17-8.42-4.51-12.64-.16-.51-2.08.05-1.93.51Z"/><path class="cls-2" d="M182.56,163.51c4.32-2.4,5.45-7.63,7.86-11.61,4.32-7.09,7.93-14.64,12.43-21.61.49-.75-1.46-.54-1.79,0L200,131.88c-.49.73,1.45.54,1.79,0l1.08-1.62-1.79,0c-3.59,5.56-6.39,11.57-9.69,17.29-1.23,2.14-2.78,4.1-3.86,6.32-1.56,3.21-2.82,7.24-6.15,9.09-1.14.64.58.9,1.2.55Z"/><path class="cls-2" d="M181,224.44c-.2,2.8,3.78,6.57,5.24,8.7,4.48,6.58,7,14.75,11,21.69.35.63,2.2,0,1.93-.51-3.52-6.17-6.43-12.64-9.52-19a31.85,31.85,0,0,0-2.74-4.56c-1.13-1.6-4.1-4.5-4-6.55.06-.75-1.88-.35-1.92.26Z"/><path class="cls-2" d="M97.53,242.43c-.15-.65,2.54-2.37,3-2.72a52.05,52.05,0,0,0,3.89-4c2.78-3,5.44-6,8.11-9.07.77-.88-1.1-.93-1.57-.4-3.19,3.65-6.39,7.28-9.73,10.78A47.59,47.59,0,0,1,96.86,241c-.57.47-1.45,1.1-1.26,1.94s2.11.24,1.93-.51Z"/><path class="cls-2" d="M145.88,129.37c-1.77,6-6.64,10.6-9.16,16.27-2.87,6.42,2.7,9.4,8.43,10,4.43.45,10.08-.61,12.8-4.44,2.28-3.21-.74-7.53-2.74-9.93a34.08,34.08,0,0,1-4.21-5.57c-1.31-2.4-1.66-5.3-2.66-7.83-.17-.42-2.06.2-1.94.52,1.2,3,1.77,6.18,3.33,9.06s4.42,5,6.06,7.94c5.35,9.6-10.73,11.46-16.5,6.9-6.13-4.85,7-18.23,8.49-23.26.1-.33-1.76-.1-1.9.36Z"/><path class="cls-2" d="M145.11,134.14c-5.68,3.94-6.18,11.14-7.91,17.28-.25.89,1.47.68,1.79.22a38.07,38.07,0,0,0,6.66-16.57c.15-1.07-1.58-.57-1.91,0-3.26,5.1-5.77,10.78-5.46,16.94.05,1,1.33.67,1.79.22,4.3-4.14,5.87-10.35,7.69-15.85.34-1-1.28-1-1.74-.41-3.83,4.83-5,10.79-6.65,16.58-.28.95,1.46.58,1.79.22a34.11,34.11,0,0,0,7.73-13.87c.26-.91-1.46-.64-1.79-.22-3.07,3.93-4.39,8.51-6.06,13.14-.37,1,1.29,1,1.74.41,2.8-3.64,4.45-7.79,6.06-12.06.35-.94-1.08-1-1.57-.57-3.91,3.21-5.05,9.23-5.2,14,0,.91,1.4.74,1.79.22a34.8,34.8,0,0,0,5-9.36c.38-1.07-1.51-1-1.85-.23-1.8,4.12-3.57,8.07-3.84,12.61-.06,1,1.69.78,1.9.05,1.26-4.3,3.61-8.13,4.87-12.43.31-1.08-1.57-1.06-1.85-.23-1.19,3.45-2.52,6.78-2.76,10.45-.06,1,1.62.72,1.91.05a115.16,115.16,0,0,0,4.32-11.35c.33-1.08-1.59-1.07-1.85-.23a42.42,42.42,0,0,0-2.22,11.53c0,1.06,1.79.7,2-.14.5-2.5.59-5.06,1.08-7.56l-2,.14-.48,3.05L150,150a53.82,53.82,0,0,1-2.15-12.78l-1.94.33c.17.9.35,1.8.53,2.7s1.81.38,1.95-.33a36.77,36.77,0,0,0,.54-7l-2,.15a63.11,63.11,0,0,0,1.64,13.69c.19.84,2,.47,1.94-.33A37.06,37.06,0,0,0,148.88,136c-.28-.9-2.19-.39-1.93.52.8,2.83,2.54,5.22,3.24,8.1.2.85,1.92.47,1.94-.33.08-3,.25-5.29-1.17-7.92l-1.77.86a47.32,47.32,0,0,1,5.2,9.85c2.27,5.55-3.43,8.51-8.31,7.38l-.15,1.39a48.58,48.58,0,0,0,7.57-1.63c.66-.22,1.26-1.34.15-1.38a71.25,71.25,0,0,1-10.27-1.62c-.79-.15-1.91.86-.89,1.37,4.06,2,9.51,2.24,13.14-.78,4.41-3.66,1.23-9.45-2.65-11.79-.74-.45-2.43.56-1.49,1.12,3.79,2.28,6.56,7.81,1.48,10.74-2.74,1.58-6.75.69-9.37-.61l-.88,1.37A70,70,0,0,0,153,154.22l.15-1.38a49.87,49.87,0,0,1-7.56,1.62c-.88.15-1.08,1.17-.15,1.38,4.21,1,8,.48,10.44-3.29,3.2-5-2.08-12.27-4.9-16.22-.52-.73-2.26-.05-1.77.86,1.33,2.46,1.05,4.66,1,7.2l2-.33c-.7-2.89-2.43-5.26-3.24-8.1l-1.93.52a36.17,36.17,0,0,1,1.6,10.08l1.95-.33a61,61,0,0,1-1.61-13.33c0-1-2-.74-2,.15a36.73,36.73,0,0,1-.54,7l2-.33-.54-2.7c-.17-.84-2-.46-2,.33A55,55,0,0,0,148,150.53c.21.76,1.69.52,1.89-.14a8.34,8.34,0,0,0,.59-3.43c.05-1.06-1.79-.7-2,.14-.49,2.5-.58,5.06-1.08,7.56l2-.14a40.87,40.87,0,0,1,2.11-11.16l-1.85-.23a113.69,113.69,0,0,1-4.33,11.35l1.91,0c.23-3.53,1.5-6.77,2.65-10.08l-1.85-.23c-1.26,4.29-3.61,8.13-4.87,12.43l1.91,0c.26-4.4,2-8.26,3.73-12.24l-1.85-.23a33.52,33.52,0,0,1-4.75,9l1.79.22c.13-4.32,1-10.09,4.52-13l-1.56-.57c-1.56,4.13-3.12,8.19-5.83,11.72l1.73.41c1.62-4.49,2.85-9,5.83-12.8l-1.79-.22a32.46,32.46,0,0,1-7.39,13.15l1.79.22c1.59-5.53,2.65-11.24,6.31-15.85l-1.73-.41c-1.77,5.35-3.28,11.47-7.46,15.5l1.79.22c-.3-6,2.16-11.57,5.35-16.57l-1.9,0a36.48,36.48,0,0,1-6.32,15.85l1.79.22c1.59-5.67,2-12.59,7.23-16.23,1.08-.75-.5-1.45-1.28-.91Z"/></svg>