<svg id="layer1" xmlns="http://www.w3.org/2000/svg" viewBox="0 0 472.7 393.74"><defs><style>.cls-1{fill:#704812;}.cls-2{fill:#492d0c;}</style></defs><path class="cls-1" d="M172.8,317.18c24.68,5.35,49.34,11.09,74.33,14.83,7.89.79,15.79,1.57,23.59,2.84a252.66,252.66,0,0,0,38.71.47c16.8-1.14,33.44-4,50.05-6.64a3.75,3.75,0,0,1,2.56.48,25.79,25.79,0,0,1,5.7-2c1.38-.47,2.78-.94,4.15-1.43,3.84-2,7.68-4,11.57-5.83,1.25-.59,5.81.62,3.74,2.21a42.13,42.13,0,0,1-11.33,5.78c.42.61.25,1.26-1.11,1.57a45.31,45.31,0,0,0-5.49,1.67l-.16.07c-1.92,1-3.84,1.92-5.77,2.86a3.7,3.7,0,0,1-1.17,1A81.11,81.11,0,0,1,338,344l-1.45.46c-8.05,4.16-16.37,7.79-25.59,8.07a1.39,1.39,0,0,1-.43-.05c-7.69,1.84-16,2.11-23.71,2.18-18.9,3.16-38.1,4.05-57.08.62-1.15-.21-1.64-.93-1.56-1.6H227a5.15,5.15,0,0,1-2.12-.72l-1.71-.2c-1.21.09-2.43.2-3.64.35a2.68,2.68,0,0,1-2.72-1.24,59.13,59.13,0,0,1-23.26-9.17c-8.67-5.75-16.06-13.2-24.16-19.68C166.44,320.67,169.7,316.51,172.8,317.18Z"/><path class="cls-1" d="M110.32,258.62l.63.28a3.23,3.23,0,0,0,1,2.05,172.69,172.69,0,0,0,14.37,13.22,3.77,3.77,0,0,0,1.89.78c.33.31.64.64,1,.94a3.42,3.42,0,0,0,3.13.87c9.43,7.16,20.66,9.55,32,13.1,6.53,2,15.65,5.7,23.43,5a63.22,63.22,0,0,0,7.65.47,116.76,116.76,0,0,0,11.94,2.52c29.17,6.24,59,9,88.85,9.29,6.39.27,12.79.34,19.19.11a3,3,0,0,0,3.06,1.85A119.29,119.29,0,0,0,340,305.45c2-.33,3.92-.75,5.87-1.2a91.4,91.4,0,0,0,11.62-2.91c1.46-.35,2.92-.68,4.39-1a3,3,0,0,0,1.42-.63c2.61-.67,5.19-1.45,7.75-2.32a3.38,3.38,0,0,0,2.9.65c12.61-2.64,24.17-9.66,34.17-17.57,9.83-7.78,19-16.89,25.41-27.72,1.7-3.16-1.67-6-4.28-5,0-.05,0-.1,0-.15a1,1,0,0,0,.13-.5c0-.26,0-.52,0-.78.32-3.18.56-6.36.58-9.57,0-1.11-1.63-2.14-3-2.35,2.06-1.57,4.16-3.11,6.21-4.7-.1,4.25-.52,8.48-.56,12.74,0,1.62,4.86,2.29,4.87,1,0-4.6.48-9.19.52-13.79,0-.9-1.69-1.51-3-1.66a22.55,22.55,0,0,0,4.14-4.07v6.61c0,1.55,5-.21,5-1.65v-9.77a.5.5,0,0,0-.44-.56,21.35,21.35,0,0,0,2-4.62,2.38,2.38,0,0,0,1.63-1.69c.72-5.09,2.76-10.8,1.93-16,.15-2.13.34-4.26.39-6.39a1.41,1.41,0,0,0-1.06-1.42l-.17-.07a3.31,3.31,0,0,0-3.41,1c-1.54,2-1.36,5.44-1.56,7.88-.42,5.16-.58,10.34-1,15.5a1.31,1.31,0,0,0,.36,1.08,5.61,5.61,0,0,0-.65.59c-5.52,6.22-11.24,12.26-16.84,18.4,1.55-11.46,1.61-23.05,1.61-34.61,0-.85-2.08-.13-3.35.86-1.27.32-3.25,1.55-3.26,2.49-.13,8.08-1.6,16.06-1.73,24.14,0,.26.21.37.53.36a65.79,65.79,0,0,0,.92,11.95,140.45,140.45,0,0,1-15.8,10.91l-1.12-.37-.7-.34,0,1.8a33.51,33.51,0,0,0-8.4,6.43c0-3.64.05-7.28,0-10.91a1,1,0,0,0,.92.16h0c-.52.67-.7,1.27.28,1.19-1,1.1-.77,2.32,1.35,1.31l.27-.11c-.13.39.07.64,1,.49,3.07-.52,6.14-1.12,9.2-1.73a5,5,0,0,0,3-1.89c.33-.47.5-1.24-.32-1.24-1.28,0-2.54,0-3.81.08.54-.36,2-1.39,1.49-2.13s-1.64-.07-2.07.16l-.57.35v0a5.84,5.84,0,0,1-1.31.62,1.93,1.93,0,0,0-.76,0c.29-.44.27-.77-.44-.76s-1.67,0-2.49.11a.81.81,0,0,0-.38-.05h-2.87A4.18,4.18,0,0,0,394,243c-.05-3.4-.15-6.84-.33-10.23.08-2.42.14-4.85.16-7.28a2.16,2.16,0,0,0-.82-1.64q-.37-3.78-.91-7.55c-.35-2.42-5.12-3.57-4.7-.68.79,5.42,1.27,10.86,1.56,16.31v.55c-.52,14.51-2.06,29-2.13,43.5a2.49,2.49,0,0,0,1.77,2.2c-3.6,1.86-7.23,3.68-10.93,5.3a76.6,76.6,0,0,0-12.36,2.64,36.56,36.56,0,0,0-5.36,1.45,60,60,0,0,0,4.93-4.41c.92,1.11,2.78,1.64,3.78.48.88-1,1.72-2,2.55-3.07a2.42,2.42,0,0,0,2.63-.38c.8-.8,1.6-1.59,2.43-2.34-.08.27-.15.53-.25.79-.69,1.9,1.83,4.39,3.69,3a19.27,19.27,0,0,0,4.47-4.36,2.08,2.08,0,0,0,.24-2.22l.67-1.11c.88-1.46-.35-2.63-1.75-3a36.39,36.39,0,0,0,1.75-3.86,2.24,2.24,0,0,0-.21-1.94,38.37,38.37,0,0,0,1.53-4.34,1.75,1.75,0,0,0-.48-1.81A23.81,23.81,0,0,0,387,255a2,2,0,0,0-.67-1.95c-.66-2.1-4.5-2.93-4.71-.38,0,.11,0,.22,0,.33a2.47,2.47,0,0,0-2.66.86c-.39.54-.77,1.08-1.17,1.61a3.23,3.23,0,0,0-2.09-1,3.42,3.42,0,0,0-1.67-1,1.73,1.73,0,0,0,.28-.56c1.86-.09,3.72-.19,5.58-.36a2.12,2.12,0,0,0,1.56-.75c1.94-.82.67-4.21-1.83-4.21h-.88a1.43,1.43,0,0,0,.15-.44c1.57.09,3.13.17,4.7.2a2.11,2.11,0,0,0,2-.92c1.62-1,.84-3.75-1.6-4l-.29,0a2.82,2.82,0,0,0-1.43-.56c-3.52-.39-7-.52-10.56-.56a2.77,2.77,0,0,0-1.51-.59c-4.43-.38-8.8-1.13-13.19-1.68-3.64-.8-7.25-1.78-10.87-2.81a2.34,2.34,0,0,0-3,1.39c-.14.53-.31,1-.49,1.55a2.45,2.45,0,0,0-2.35.38,29.89,29.89,0,0,0-3.89,4.39c-.91.46-1.8.94-2.69,1.43a2.83,2.83,0,0,0-3.42-1,63.85,63.85,0,0,0-7.28,4.09,2.47,2.47,0,0,0-.21-.27,88.18,88.18,0,0,0,18-12.18c8.41-6.35,16.36-13.31,24.32-20.32.37-.33-1-.9-2.35-1.13a3,3,0,0,0-3-2.11c-8.94,1.58-17,5.77-24.62,10.49-4.07,2.06-8.13,4.14-12.25,6-11.31,5.21-23,9.56-33.82,15.82a2,2,0,0,0-.89,2.62Q274.78,253,261.4,258.39a131.58,131.58,0,0,0-39.63,16.42h0l-.49.3c-1.46.93-.7,2.56.58,3.42-3.68,1.11-7.32,2.38-11,3.62a459.78,459.78,0,0,1-50.05-12.08,100.46,100.46,0,0,0-14.71-4.77q-15.22-5.24-30-11.72c-1-.48-2.07-.94-3.14-1.35C109.33,250.8,106.72,257,110.32,258.62Zm318.34-27.26a99.5,99.5,0,0,0,13.69-15.17,14.19,14.19,0,0,1-1.25,2.92c-.91.45-1.94,1.08-1.94,1.67v1C437.16,225.52,432.34,228.57,428.66,231.36Zm-22.22,37.78c.06-.42.12-.85.17-1.28l.67.25.17.08Zm-.21-19.47c3.41-2.29,6.64-4.8,9.88-7.36.05.24.09.49.12.73l-.45.56a1.08,1.08,0,0,0-.26.32l-.12.15-.11.13h0l-.37.48c-1,1.35-.42,1.23.39.72a87.69,87.69,0,0,0-.43,9.59.08.08,0,0,0,0,0h0c0,.19,0,.38,0,.56,0,.9,4.58.08,4.83-.93,1.16-4.65,2.21-9.24,1.2-14-.05-.22-.29-.34-.65-.4l.25-.27s-.05,0,0,0c.67.32,2.68-1.15,3.68-2.14v12.52a2.4,2.4,0,0,0,1.34,1.76,62.37,62.37,0,0,1-7,8.42,3.36,3.36,0,0,0-3.67.68c-2.44,2.31-4.87,4.67-7.34,7,.71-5.12,2.17-10.3,1.15-15.47-.1-.51-.85-.87-1.71-1.16,0-.38,0-.76,0-1.14S406.64,249.89,406.23,249.67ZM394,263.43c-.16-5.43,3.15-8.21,7.29-10.67,0,5,.07,10,.57,14.95.07.69,2.8,1.6,4,2-.86.79-1.73,1.58-2.6,2.35a3.5,3.5,0,0,0-3.18.05l-5.15,2.72a.86.86,0,0,0,0-.21,38.39,38.39,0,0,0-.52-6.79c0-1.18,0-2.36,0-3.56,0-.06-.12,0-.31.07C394,264,394,263.74,394,263.43Zm-97.15-14.3c-5.81,3.64-11.43,7.58-17.12,11.43l-1.19.68c-5.32,2.35-10.44,5.15-15.57,7.91-8.88,2-17.67,4.54-26.59,6.36a53.62,53.62,0,0,0-6.08.88l3-1.26a2.2,2.2,0,0,0,1.35.53,5.29,5.29,0,0,0,2.4-.6q2-.71,4-1.5a2.47,2.47,0,0,0,2.22.2c8.19-3.42,16.72-5.9,24.72-9.77a3.16,3.16,0,0,0,.45-.28c3.11-1.06,6.22-2.1,9.32-3.17,1.89-.66,1.32-2.6,0-3.61Q287.29,253,296.84,249.13Zm25.49-10.28a1.31,1.31,0,0,0-.25,0c-1.7.57-3.37,1.23-5,1.94a11.46,11.46,0,0,0-1.55-.24c5-2.64,9.82-5.51,14.69-8.67,2.56-1.66,5.16-3.36,7.8-5a173.93,173.93,0,0,1,17.93-8.15q-3.92,3.43-7.87,6.79a3.08,3.08,0,0,0-1.27.11,120.65,120.65,0,0,0-10.52,6.23,1.7,1.7,0,0,0-.4.09C331.28,234.11,326.78,236.42,322.33,238.85Zm37.53,16.21.15-.18a2.06,2.06,0,0,0-.05-2.67,2.94,2.94,0,0,0,2,1h.86c-.52.62-1,1.25-1.54,1.87l-.64.74A3,3,0,0,0,359.86,255.06ZM295.41,290.6c1.24-.1,2.46-.22,3.66-.34,3.25-.34,6.48-.78,9.7-1.28a2.58,2.58,0,0,0,2.51.15c.43-.24.83-.5,1.25-.75l2-.33a3.2,3.2,0,0,0,3,.51c.95-.44,1.86-.92,2.75-1.42,2-.16,4-.34,6-.54-.11.21-.24.42-.34.64-1,2,1.91,4.07,3.68,3,.55-.32,1.06-.67,1.58-1a2.44,2.44,0,0,0,1.74-.47c.31-.25.59-.51.89-.77a2.8,2.8,0,0,0,4.29,1.34c.53-.45,1-.92,1.55-1.39a2.89,2.89,0,0,0,3.62.24c.16-.12.3-.25.46-.38-.05.17-.12.34-.17.51a1.68,1.68,0,0,0,.09,1.13c-4.64.75-9.25,1.73-13.86,2.69C318.38,291.68,306.89,291.18,295.41,290.6Zm-1.66-27.2c.77-.26,1.55-.5,2.34-.73-.76.61-1.52,1.22-2.27,1.84A1.78,1.78,0,0,0,293.75,263.4Zm-1.56-4.17,1.73-1.17a2.62,2.62,0,0,0,1.34-.12c1-.55,2-1.11,3-1.68a3.62,3.62,0,0,0,1.56,0c1.42-.64,2.82-1.32,4.2-2,1.16.42,3.33.63,3.85.29l.38-.24c-.78.68-1.53,1.38-2.28,2.09A55.09,55.09,0,0,0,292.19,259.23Zm-14.84,26.34c1.09-.53,2.14-1.11,3.19-1.71l.85-.31a2.81,2.81,0,0,0,3.45,1c1.81-1,3.55-2,5.25-3.16-.78.83-1.54,1.67-2.29,2.54a2,2,0,0,0,0,2.64A46.19,46.19,0,0,1,277.35,285.57Zm-29,2c2.21-.55,4.39-1.19,6.54-1.9a3.07,3.07,0,0,0,3,1.39c.35-.07.68-.16,1-.24a3,3,0,0,0,3.55,1.19c.53-.25,1.05-.52,1.57-.78a3.07,3.07,0,0,0,2.45.21c.52-.22,1-.46,1.54-.69a2.92,2.92,0,0,0,3.09,1.46l.22-.08a32,32,0,0,0,4.15,1.38Q261.87,288.64,248.32,287.54ZM216,283c4.25-1.47,8.5-3,12.83-4.09a20.68,20.68,0,0,0,11.25-2h0c4.84-1,9.65-2.21,14.45-3.4l-1.95.91c-4.06,1.5-8.14,2.93-12.13,4.63-.7.3-.09.65.83.92-1.41.6-2.81,1.22-4.2,1.89-2.7,1.31.33,4.33,2.37,4,.55-.08,1.09-.18,1.64-.27a3.41,3.41,0,0,0,2.38.85l1.64-.23a3.79,3.79,0,0,0,1.4,1.17q-8.39-.7-16.78-1.53A2.9,2.9,0,0,0,228,285C224,284.39,220,283.73,216,283Z"/><path class="cls-1" d="M447,214.06c-.26-1.17,3.92-3,3.9-3.14a32.21,32.21,0,0,1-.58,14.51c-.2.82-1.6,1.7-2.22,2.15-.09.07-1.79,1.21-1.67.71A31.42,31.42,0,0,0,447,214.06Z"/><path class="cls-2" d="M448.57,225c-15.65,24.44-36.59,45.12-63.9,55.78C355.88,292,323.15,293,292.61,291.9c-27-1-53.58-5.56-80-11a713.19,713.19,0,0,1-76.74-20.15c-10.74-3.51-21.4-7.32-31.85-11.61-.51-.21-2.28.56-1.56.85,47.23,19.41,98.27,31.65,148.72,39.08a371.61,371.61,0,0,0,83.45,2.88c25.94-2.06,51.82-7.89,73.85-22.33,17-11.1,31-27.76,41.82-44.67.43-.68-1.49-.43-1.78,0Z"/><path class="cls-2" d="M438.54,240.42c-6.91,9.76-11.37,21.12-16.43,31.89a207,207,0,0,1-16.92,30c-12.81,18.44-34.35,28.84-55,36.12C323.12,348,294.91,351.18,266.32,351c-13.14-.08-26.28-.3-39.4-.93-7.73-.37-17,.16-23.92-3.87-20.29-11.9-37.61-29.06-53.79-45.91-15.74-16.38-30.43-33.73-45-51.13-.41-.48-2.26.19-1.8.75,15.27,18.21,30.69,36.29,47.21,53.4a386.23,386.23,0,0,0,28.16,26.57c8,6.8,16.72,13.91,26.17,18.64,5.72,2.87,14.7,2.2,20.87,2.53,13,.71,26.07.88,39.1,1,26.43.22,52-2.31,77.48-9.78,21.86-6.41,45.78-16.43,61-34,7.62-8.8,13.09-19.51,18.47-29.76,6.61-12.58,11.18-26.36,19.44-38,.49-.7-1.44-.5-1.79,0Z"/><path class="cls-2" d="M452.24,223.77c0-5.08.51-10.85-1.82-15.49-.18-.36-.77-.23-1.08-.16-4.93,1.1-8,5.49-10.64,9.47-1.81,2.72-3.37,5.59-5.09,8.36-2.41,3.88-6.26,7-9.77,9.82-6.3,5.11-14.7,8.73-20,14.87-4.5,5.2-2.77,13.89-2.7,20.11,0,.51,1.94.17,1.93-.52-.07-6.61-1.46-13.86,2.56-19.61,2-2.91,6-4.88,8.92-6.85,3.22-2.2,6.43-4.41,9.54-6.76,4.8-3.62,9.34-7.77,12.46-12.94,3-5,6.75-13.7,13-15.11l-1.08-.16c2.33,4.64,1.82,10.41,1.82,15.49,0,.51,1.94.17,1.93-.52Z"/><path class="cls-2" d="M407.16,256.92v8.2c0,.91,2,.54,2-.2V250.35c0,.23-.61.68-1.05.68H409c-.21,0-.86-.31-.86-.49v14.58c0,.91,2,.54,2-.2V250.35c0-.34-.1-.32-.43-.32h-.91c-.37,0-1.66,0-1.66.51v14.58c0,.91,2,.54,2-.2v-8.2c0-.91-2-.54-2,.2Z"/><path class="cls-2" d="M417.16,243.26V255.1c0,.9,2,.52,2-.2V243.05c0-.89-2-.51-2,.21Z"/><path class="cls-2" d="M425.71,236c0,5,.08,10,1.83,14.73.28.78,2.2.22,1.93-.51-1.71-4.65-1.81-9.53-1.81-14.42,0-.91-2-.55-2,.2Z"/><path class="cls-2" d="M432.17,228.09c1.34,1.63,1.32,4.52,1.49,6.52.24,2.87.25,5.76.25,8.63,0,1,1.95.64,1.95-.17,0-2.74-.05-5.48-.21-8.21-.14-2.35-.13-5.68-1.7-7.6-.53-.64-2.37.1-1.78.83Z"/><path class="cls-2" d="M441.16,215.9v15.48c0,1,2,.76,2-.13V215.76c0-1-2-.75-2,.14Z"/><path class="cls-2" d="M446.16,215v5.59c0,1,2,.78,2-.13v-.12c0-1-2-.78-2,.13v.12c0,1,2,.78,2-.13v-5.59c0-1-2-.78-2,.13Z"/><path class="cls-2" d="M446.67,215.18a12.28,12.28,0,0,1-.9,5.36c-.19.39,1.67.21,1.91-.31a12.78,12.78,0,0,0,.92-5.57c0-.4-1.93-.1-1.93.52Z"/><path class="cls-2" d="M404.82,253.24c3-4.45,7.69-7.22,12.2-9.93a89.5,89.5,0,0,0,10.91-8.09c8.41-7.05,13-16.81,20.5-24.64l-1.76,0c2.5,4.87,1.92,10.39,3.64,15.49.27.78,2.19.24,1.93-.52-1.72-5.1-1.14-10.62-3.64-15.49-.32-.62-1.35-.38-1.76,0-7.85,8.2-12.65,18.4-21.69,25.58a149.76,149.76,0,0,1-13.16,9.2,29.48,29.48,0,0,0-9,8.19c-.55.82,1.41.74,1.82.13Z"/><path class="cls-2" d="M404.16,253.29v10.93a8.4,8.4,0,0,1,1.78-.37,29.46,29.46,0,0,1-1.9-8.2c0-.66-2-.24-2,.52,0,3.31,1.4,8.76-.87,11.55-.55.69,1.39.57,1.8.07,2.39-3,1-8.66,1-12.14l-1.94.52c.12,2.86,1.12,5.5,2,8.2.21.64,2.12.25,2.12-.38V253.06c0-.84-2-.43-2,.23Z"/><path class="cls-2" d="M445,210.1c-.16-7.06-1.47-13.38,1.81-19.94l-1.92.42A85,85,0,0,1,443,205.05l1.92-.31a115.6,115.6,0,0,1,4.55-18.22l-1.92.42a79.16,79.16,0,0,1-4.55,25.4c-.15.45,1.73.22,1.92-.31a80.11,80.11,0,0,0,4.56-25.61c0-.45-1.78,0-1.92.41A116.73,116.73,0,0,0,443,205.05c-.08.55,1.82.19,1.92-.31a85.4,85.4,0,0,0,1.83-14.68c0-.49-1.75.08-1.92.42-3.34,6.67-2,12.92-1.83,20.14,0,.41,1.94.09,1.93-.52Z"/><path class="cls-2" d="M423.09,235.61c-.83-12.09,0-24.19,0-36.29l-1.94.37c4.7,11.55-.71,24.47,0,36.44,0,.69,2,.27,1.93-.52-.71-12,4.72-24.85,0-36.44-.25-.63-1.93-.3-1.93.37,0,12.2-.83,24.4,0,36.59,0,.69,2,.27,1.93-.52Z"/><path class="cls-2" d="M460.43,182c.05-.19.09-.38.13-.57a.14.14,0,0,0,0-.18c-1.84-1.19-5.61,1.37-7.33,1.81-7.43,1.93-14.1,5.85-21.27,8.49-15.25,5.62-30.83,10.53-45,18.69-1.12.65.64.6,1.13.32,11.5-6.63,24-11.13,36.45-15.59,5.41-1.93,11.05-3.61,16.2-6.18a56.14,56.14,0,0,1,14-5.32c.74-.15,3.93-1.85,3.77-1.15-.11.5,1.8.2,1.91-.32Z"/><path class="cls-2" d="M385.19,208.14c-9.06.45-17.85-1.78-26.64-3.66-7.63-1.63-15.12-2-22.91-2.22q-25.78-.73-51.56.41c-.53,0-2.11.86-.83.81,18.32-.81,36.66-.86,55-.29a139.84,139.84,0,0,1,25.43,3.5c6.83,1.48,13.68,2.6,20.69,2.25.53,0,2.11-.87.83-.8Z"/><path class="cls-2" d="M458,179.78c-16.69-.09-33.26-2.15-49.89-3.31-13.89-1-27.88-3.64-41.69-.72-15.95,3.37-32.63,5.46-48.27,10.09a319.22,319.22,0,0,0-43.1,16c-.33.15-1,.78-.23.87,1.58.18,3,.73,4.56.91.57.06,2.27-.88,1.19-1-4.73-.55-3.12-.81,0-2.21s6.62-2.8,10-4.12c8-3.14,16.08-5.87,24.25-8.41,15.1-4.69,30.94-6.4,46.34-9.85,8.06-1.8,15.53-2.94,23.81-2.4,7.47.48,14.9,1.45,22.38,1.93,16.64,1.08,33.19,3.23,49.88,3.31.69,0,2.07-1,.77-1Z"/><path class="cls-2" d="M436.42,238.23c-8.07.14-15.92,1.84-23.89,3-8.24,1.16-16.74.69-25,.42-16-.53-32.18-2.08-47.45-7-.42-.14-2.12.55-1.6.72,14.88,4.81,30.57,6.32,46.12,7,7.19.31,14.47.55,21.67.19,9.73-.5,19.16-3.34,28.94-3.51.38,0,2.19-.77,1.26-.75Z"/><path class="cls-2" d="M355.58,222.34c-1.37,4.77-6.88,8-10.78,10.52a155.34,155.34,0,0,1-14.71,8.06c-11.83,5.87-23.42,12.19-35.2,18.15-15.4,7.8-31.39,14.09-48.46,17-13.08,2.25-26.93-.2-39.66,4.06-1.29.43-.1,1,.74.69,8.05-2.7,16.91-2.31,25.29-2.57a115.21,115.21,0,0,0,20.59-2.62c15.5-3.3,30.08-9.74,44.16-16.86,12.29-6.22,24.46-12.7,36.74-18.93a128.05,128.05,0,0,0,14.78-8.59c3.26-2.24,7.28-5.2,8.43-9.21.18-.62-1.75-.33-1.92.27Z"/><path class="cls-2" d="M366.54,214.79c-1.61,5.24-8.33,7.64-12.47,10.58l1.46.79c4.89-5.5,11.47-8.93,17.15-13.5a.65.65,0,0,0-.33-1.21c-6.54-.58-11.76,2.68-17.82,4.59-7.68,2.41-15.36,6-22.69,9.33-16.62,7.5-32.65,16.34-49.31,23.82q-24.7,11.1-50.07,20.59c-6.92,2.6-13.45,5.21-20.72,6.48-4.29.75-9.61,1.44-12.71,4.84-.82.92,1,1.31,1.64.63,3.5-3.86,11.09-4,15.85-4.77,7.33-1.23,14.82-5.21,21.78-7.82,14.66-5.5,29.1-11.62,43.41-18,14.87-6.61,29.82-13.37,44.1-21.17,7.18-3.92,14.86-6.86,22.44-9.86,6.92-2.74,15.87-7.88,23.45-7.22l-.33-1.21c-5.8,4.67-12.47,8.2-17.47,13.82-.81.91.87,1.22,1.47.8,4.39-3.13,11.3-5.66,13-11.28.34-1.1-1.59-1.14-1.86-.26Z"/><path class="cls-2" d="M213.8,281h2c.42,0,2.21-.87,1.25-.87-2.39,0-4.94.1-7.18-.87a20,20,0,0,0-2.1-.42,11.85,11.85,0,0,0-2.74-.58c-.43,0-2.22.74-1.25.81a25.19,25.19,0,0,1,5.58,1.33c2,.64,4.36.45,6.44.45.42,0,2.21-.85,1.25-.85h-2c-.42,0-2.21,1-1.25,1Z"/><path class="cls-2" d="M387.46,211.53c5.33,9.55,1.2,23.38,0,33.59l1.93-.4c-2.67-11.68-1-23.68-.91-35.53l-1.94.52c3.94,6.77,2.07,16,1.84,23.41-.17,5.61.59,11.36.74,17,.17,6.57.16,13.16.16,19.73,0,.51,1.89.16,1.92-.39.74-13.2-2.56-26.13-2.72-39.3l-1.36.76c1.71,0,.54,21.28.45,23.21-.34,7.7-.5,15.39.8,23,.09.57,2,.12,1.93-.52-2.62-15.38.7-30.93-.91-46.39,0-.22-.44-.18-.58-.18h-.91c-.41,0-1.36.15-1.36.69.17,13.08,3.47,25.91,2.74,39l1.93-.41c0-11.85,0-23.71-.91-35.53-.59-8.05,2.51-17.15-1.82-24.6-.33-.56-1.93-.13-1.94.51-.08,11.84-1.75,23.85.92,35.53.13.57,1.86.11,1.92-.4,1.19-10.16,5.34-24.28,0-33.83-.33-.59-2.18.07-1.93.52Z"/><path class="cls-2" d="M407.9,247.07c-4.68-.36-8.48,4.15-11.44,7.17-1.45,1.48-4.35,3.46-5.31,5.24-1.24,2.29,1.6,8.64,1.77,11.27.05.75,1.94.36,1.94-.35a20.05,20.05,0,0,1,1-7.12c-.63,0-1.72,0-1.72,0V276c0,.95,1.74.61,1.78-.18.22-4.61,1.55-9,1.74-13.66l-2,.18A81.7,81.7,0,0,1,393.85,276c-.18.89,1.78.61,1.93-.18a80.78,80.78,0,0,0,1.82-13.66c0-.94-1.92-.61-2,.18-.19,4.62-1.41,9.05-1.63,13.66.65-.06,1.14-.12,2.14-.18V263.11c0-.89-1.85-.63-2.08,0a20.89,20.89,0,0,0-1.07,7.46l1.89-.35c-.27-4.18-3.36-9,0-12.2,3-2.88,7.67-10,12.36-9.67.87.06,2-1.2.68-1.29Z"/><path class="cls-2" d="M279.05,205.16c2.31,4.54.73,10.83,1.2,15.85.63,6.91,2.31,13.61,2.45,20.58l1.93-.51c-1.72-11.8-1.93-23.74-3.65-35.53l-1.86.63c5.32,5.11,2.06,17.14,1.77,23.65a97.1,97.1,0,0,0,.69,14.06c.54,5.26,2.94,10.77,2.94,15.92,0,.56,1.93.21,1.93-.51,0-4.65-2.13-9.67-2.75-14.38a89.61,89.61,0,0,1-.8-17c.38-6.18,3.12-17.56-2-22.47-.4-.39-2-.05-1.87.63,1.72,11.79,1.93,23.73,3.65,35.52.09.64,1.94.15,1.93-.51-.13-6.4-1.38-12.62-2.26-18.93-.76-5.5,1.19-12.45-1.39-17.51-.32-.64-2.19,0-1.93.52Z"/><path class="cls-2" d="M324.6,205.16c.12,12.09,2.64,24.68-1.82,36.32l1.93-.4c.13-11.37,4.45-25.75-.91-36.44-.26-.51-1.89-.15-1.93.4-.82,12.5,1.05,25,1.13,37.47,0,.49,2.16.15,2.16-.52V212.84a20.16,20.16,0,0,0-2.16.51,115.34,115.34,0,0,0,1.71,17.31c.09.56,2,.11,1.88-.52a114,114,0,0,1-1.66-17.3c0-.51-1.77-.16-1.77.51v29.16c0-.18,1.1-.35,1.74-.52-.09-12.42-1.83-24.82-1-37.23l-2,.4c5.4,10.76,1,25,.89,36.43,0,.58,1.76,0,1.92-.39,4.48-11.71,1.94-24.39,1.82-36.56,0-.5-2-.16-1.94.52Z"/><path class="cls-2" d="M346.16,206.82v17.31c1-.07,1.44-.14,2.09-.21a83.09,83.09,0,0,0-1.75-14.73c-.14-.71-1.91-.29-1.9.36.09,5.79.84,11.53.93,17.31,0,.93,1.76.47,2-.2,1.7-6,1-12.12.91-18.22,0-.9-1.94-.52-1.93.2.05,9.42.86,18.82.91,28.24,0,.9,1.94.52,1.94-.2,0-10.4.93-21.19-2.74-31.13-.25-.68-1.93-.33-1.93.36,0,7.13.2,14.12,1.82,21.11.18.76,2.11.26,1.93-.52-1.59-6.88-1.81-13.76-1.81-20.8l-1.94.37c3.63,9.85,2.77,20.5,2.73,30.81l1.94-.2c-.05-9.42-.85-18.82-.91-28.24l-1.94.2c.07,6.11.79,12.26-.91,18.22l1.94-.2c-.09-5.79-.82-11.53-.91-17.31l-1.94.36a81.22,81.22,0,0,1,1.7,14.42c0,.89,1.82.52,1.82-.21v-17.3c0-.9-2-.52-2,.2Z"/><path class="cls-2" d="M399.75,247.24c-18,0-35.84-1.15-53.36-5.42l-1.39.89c7.16,1.43,14.31,2.84,21.52,4,3.65.6,7.32,1.09,11,1.52,1.86.22,3.73.39,5.6.56a4,4,0,0,0,3-.19,29.51,29.51,0,0,1-3.83.77c-13.69,2.14-28.31-3.15-41.35-6.66-.52-.14-2.25.67-1.56.85,15.24,4.1,32.5,10.24,48.26,5.44.28-.09,1.42-.8.5-.86-14.14-1-28-3.6-41.91-6.38-.43-.09-2.08.72-1.38.89,17.78,4.33,35.88,5.49,54.13,5.52.63,0,2.09-.95.79-.95Z"/><path class="cls-2" d="M373.52,261.73c-7.51-1.74-15.27-1.91-22.78-3.64l-.94,1.14c4.79.16,8.88,1.77,13.26,3.55l1.13-1.08a83.13,83.13,0,0,1-14.36-.88c-.66-.12-2.28.92-1.16,1.11a86.08,86.08,0,0,0,14.79.95c.32,0,2-.71,1.13-1.08-4.64-1.89-9-3.58-14.06-3.74-.53,0-2.08.88-.95,1.14,7.51,1.74,15.26,1.91,22.77,3.64.67.16,2.29-.85,1.17-1.11Z"/><path class="cls-2" d="M353.65,269.06c-5.13-2.89-11-3.77-16.58-5.54-.73-.24-2.28.82-1.15,1.18,5.42,1.74,11.21,2.58,16.22,5.39.65.37,2.39-.53,1.51-1Z"/><path class="cls-2" d="M447.55,181.79c-18.8,5.57-38.86,9-55.32,20.32-.82.56,1.13.35,1.49.1,16.06-11,35.67-14.33,54-19.76,1.12-.33.95-1-.17-.66Z"/><path class="cls-2" d="M443.23,182c-13.54,9.31-30.39,11.31-45.15,18-1.23.56-.08,1,.73.66,15.05-6.82,32.12-8.92,45.94-18.44.86-.59-1.09-.51-1.52-.21Z"/><path class="cls-2" d="M412.38,191.72c-5.65,4.39-12.86,5.23-19.57,7.07-1.19.33-.85,1.61.34,1.28,7.06-1.94,14.55-2.89,20.51-7.51,1-.8-.54-1.41-1.28-.84Z"/><path class="cls-2" d="M400.1,191.51c-4.54,1-8.73,2.91-13,4.65-1.23.5-.13,1.47.84,1.08,4.12-1.67,8.14-3.52,12.5-4.47,1.21-.26.86-1.52-.33-1.26Z"/><path class="cls-2" d="M377.6,196.43a4.77,4.77,0,0,1-1.67.71,5.53,5.53,0,0,0-2,1.11.53.53,0,0,0,.24.9,1.41,1.41,0,0,0,1.37-.37,4.75,4.75,0,0,1,1.67-.7,5.43,5.43,0,0,0,2-1.12.52.52,0,0,0-.23-.89,1.41,1.41,0,0,0-1.37.36Z"/><path class="cls-2" d="M314.2,290.68c.49-21.7-.45-43.42-.45-65.13,0-21,0-42,.19-63,.22-31.78,1.24-63.49.72-95.27,0-.89-2-.51-2,.21.52,31.77-.47,63.49-.72,95.26-.15,20.47-.17,40.93-.18,61.39,0,22.26.95,44.53.45,66.78,0,.89,1.93.52,1.94-.21Z"/><path class="cls-2" d="M314.66,67.28c-.51-13.7-1.15-27.44-2.72-41.07-.1-.88-1.84-.39-1.94.34-2.81,20.07-2.62,40.8-3.33,61-.58,16.52-1,33-1.06,49.53-.22,37.75-.06,75.51,0,113.27,0,12.83.44,25.76-.13,38.59,0,1,1.92.73,2-.15,1.18-26.85.09-53.95.05-80.81,0-34.61-.59-69.31.57-103.9.5-14.85,1-29.7,1.65-44.54.49-11,.71-22.22,2.24-33.16l-1.94.33c1.55,13.51,2.19,27.12,2.7,40.7,0,1,2,.72,2-.15Z"/><path class="cls-2" d="M310.46,254.91c1.35,12.64.06,25.37,0,38l1.93-.52c-1.31-13.28-.06-26.63,0-39.93l-1.93.51c0,11.37.46,22.79-.9,34.11l1.93-.4c-.9-12.65,0-25.35,0-38l-1.93.52q0,20.88-1.35,41.71l1.93-.39c-2.12-14.85.77-29.82-.91-44.69-.06-.58-1.93-.12-1.93.52,0,12.36-.43,24.72-.45,37.08,0,.51,1.88.15,1.93-.4,1.82-19,1.37-38.11,1.36-57.17l-1.93.52c1.83,14.5.93,29.17.9,43.74l1.93-.52c0-20.92.44-41.83.45-62.75l-1.93.52c0,16.8.84,33.59.45,50.39l1.93-.52c-2.32-20.84-.06-41.86,0-62.75L310,195c0,17.08-.41,34.18-1.8,51.22l1.93-.4c0-19.65.87-39.29.9-59,0-.51-1.93-.17-1.93.52,0,16.17-.87,32.32-.9,48.49l1.93-.52c0-20.6.43-41.2.45-61.8,0-.51-1.93-.17-1.93.52-.05,17.12-1.31,34.22-1.36,51.34l1.93-.52c0-21.41-1.34-43.38,2.71-64.53l-1.93.4c3.94,20-.31,40.74-.9,60.85l1.93-.52c0-25.32-.43-50.72,2.25-75.94l-1.93.4c-.05,17.13-1.32,34.22-1.8,51.34l1.93-.52c-.36-27.3,3.08-54.47,3.16-81.76l-1.93.51a565,565,0,0,1-3.61,61.68l1.93-.4c-.35-30.18,4.41-60.14,4.51-90.32l-1.93.52c.33,24.47-3.5,48.75-3.61,73.21l1.93-.52c-.37-27.61,2.64-55.11,2.71-82.72l-1.93.52c0,30.42-1.79,60.78-3.16,91.15l1.93-.39q0-25.11.71-50.21c.23-8.3.67-16.6.78-24.9.12-9.49-.26-19,.76-28.4l-1.92.39c-.09,33-4.43,65.86-4.52,98.88l1.93-.52c-.32-15.79.45-31.57,1-47.36.59-16.49.56-33,1.7-49.49l-1.93.39c1.67,11.54.71,23.27.14,34.86-.6,12.13-1,24.3-1,36.45l1.93-.52c0-29.17,2.21-58.29,2.26-87.47,0-.51-1.93-.17-1.94.52-.05,4.76-.39,9.5-.45,14.26l1.94-.52c-1.56-8.72-.51-17.81-.46-26.62,0-.52-1.86-.14-1.92.4-3,23.58-1.75,47.88-2,71.6-.26,28.8.11,57.66,2.85,86.35.06.55,2,.15,1.94-.52-2.63-27.41-3.05-55-2.89-82.48.07-12.62.32-25.24.35-37.87,0-12.45.08-25,1.63-37.36l-1.93.4c0,8.81-1.1,17.89.45,26.62.11.61,1.93.1,1.94-.52,0-4.75.39-9.5.45-14.26l-1.94.52c0,29.17-2.2,58.3-2.25,87.47,0,.51,1.93.17,1.93-.52,0-12.6.49-25.21,1.11-37.79.55-11.15,1.4-22.42-.21-33.51-.08-.57-1.89-.13-1.93.39-1.05,15.26-1.09,30.59-1.57,45.88-.53,17.07-1.49,34.14-1.14,51.22,0,.53,1.93.16,1.93-.52.09-33,4.43-65.85,4.52-98.88,0-.51-1.87-.14-1.93.4-1.77,16.39-.93,33.21-1.44,49.68q-.84,27-.82,54.08c0,.51,1.9.15,1.93-.4,1.36-30.45,3.12-60.9,3.16-91.4,0-.51-1.93-.17-1.93.52-.07,27.6-3.08,55.11-2.71,82.72,0,.52,1.93.16,1.93-.52.11-24.46,3.94-48.73,3.61-73.21,0-.52-1.93-.16-1.93.52-.1,30.18-4.86,60.13-4.51,90.32,0,.53,1.87.14,1.93-.39a569.56,569.56,0,0,0,3.61-61.92c0-.52-1.93-.18-1.93.51-.08,27.3-3.53,54.47-3.16,81.77,0,.53,1.91.15,1.93-.52.49-17.12,1.76-34.21,1.81-51.34,0-.52-1.87-.15-1.93.4-2.69,25.3-2.27,50.77-2.26,76.18,0,.52,1.91.16,1.93-.52.6-20.09,4.84-40.88.9-60.85-.12-.59-1.83-.09-1.93.4-4.06,21.22-2.73,43.29-2.71,64.77,0,.51,1.93.17,1.93-.52,0-17.12,1.31-34.21,1.36-51.34l-1.93.52c0,20.6-.44,41.2-.45,61.8,0,.51,1.93.17,1.93-.52,0-16.17.86-32.32.9-48.49l-1.93.52c0,19.65-.87,39.3-.9,59,0,.51,1.88.15,1.92-.4,1.4-17.11,1.8-34.29,1.81-51.46,0-.51-1.93-.17-1.93.52-.06,20.89-2.32,41.91,0,62.75.07.58,1.92.11,1.93-.52.4-16.8-.42-33.59-.45-50.39,0-.51-1.93-.17-1.93.52,0,20.91-.44,41.83-.45,62.75,0,.51,1.93.17,1.93-.52,0-14.57.93-29.24-.9-43.74-.08-.58-1.94-.11-1.93.52,0,19,.46,38-1.36,56.93l1.93-.4c0-12.36.43-24.72.45-37.08l-1.93.52c1.68,14.87-1.21,29.84.91,44.68.08.57,1.89.13,1.92-.39q1.31-21,1.36-42c0-.51-1.93-.17-1.93.52,0,12.67-.9,25.37,0,38,0,.56,1.86.13,1.93-.39,1.36-11.4.92-22.9.9-34.35,0-.52-1.93-.17-1.93.51-.06,13.31-1.32,26.65,0,39.94.06.57,1.93.12,1.93-.52.06-12.67,1.36-25.4,0-38-.06-.56-2-.15-1.93.51Z"/><path class="cls-2" d="M309.05,70.28c-.17,9.63-2.65,19-4.15,28.46-1.62,10.23-2.16,20.7-3.26,31-2.36,22.07-6.31,43.91-8.47,66-1.06,10.82-1.92,21.66-3,32.47-1.05,10.18-2.9,20.21-4.14,30.35-.7,5.79-1.51,11.55-2.62,17.28-.93,4.78-2.12,14.7-7.05,17.26-1.17.61-.12,1.62.85,1.12,3.5-1.82,4.95-6.31,6-9.83a132,132,0,0,0,4-19.8c2.77-19.8,5.29-39.52,7.08-59.45,2.1-23.42,6.09-46.53,8.73-69.88,1.26-11.13,2.3-22.28,3.45-33.41,1.1-10.65,4.4-20.94,4.59-31.7,0-1-1.94-.7-2,.15Z"/><path class="cls-2" d="M296.71,174.1a11.29,11.29,0,0,1-1.66,9.13l2.11.05v-9.51c0-1-2-.74-2,.14v9.51c0-.17,1.06-.33,1.68-.5-.94-1.8-1.84-3.26-1.9-5.35,0-1-2-.75-2,.15-.06,2.26-.9,4.38-1,6.65l1.94-.33a32.35,32.35,0,0,1-.95-9.56,2,2,0,0,1-1.07.55h.95a1.82,1.82,0,0,1-.88-.22,9.74,9.74,0,0,1,0,7.35c-.45,1,1.5,1.1,1.85.3a10.41,10.41,0,0,0,0-8A.83.83,0,0,0,293,174h-.95c-.39,0-1.06.35-1.06.81,0,3.27,0,6.56,1,9.71.26.82,1.92.49,1.95-.33.07-2.26.88-4.38,1-6.65l-2,.14c.07,2.38,1.13,4,2.2,6.07.34.65,2.07.21,2.07-.5v-9.51c0-1-2-.74-2,.14v9.51c0,1.06,1.35.62,1.72.05a12.34,12.34,0,0,0,1.85-9.89c-.2-.91-2.23-.4-2,.52Z"/><path class="cls-2" d="M287.2,259.67a24.25,24.25,0,0,1-.95,7.48l1.93-.39c0-3.26,0-6.41,1.83-9.25l-1.86.26c0,3.39.68,6.53-1.84,9.24.62-.08.85-.17,1.85-.25V260.1c0-.55-1.89-.19-1.92.39-.1,1.94-.85,3.76-.95,5.71,0,.75,1.9.34,1.93-.26.1-1.95.81-3.77.91-5.71a18.91,18.91,0,0,1-2,.39v6.65c0,.7,1.7,0,1.9-.25,2.67-2.86,2-6.18,2-9.77,0-.64-1.66-.05-1.85.25-1.89,3-2,6.32-2,9.77,0,.63,1.78.09,1.93-.38a25,25,0,0,0,1-7.74c0-.55-1.93-.2-1.93.52Z"/><path class="cls-2" d="M308.11,69.36c-.29,9.06-4,17.82-6.54,26.44-2.72,9.29-5.36,18.6-7.8,28-4.9,18.76-9.68,37.49-15.54,56-11.54,36.38-25.61,73.88-50.75,103.2-.71.82.69.89,1.19.69,1.26-.5,1.55-1.19,2.41-2.31.58-.76-1.39-.69-1.82-.12a4.61,4.61,0,0,1-1.4,1.48l1.2.7c24.17-28.2,37.86-63.61,49.38-98.49,6.26-19,11.47-38.24,16.32-57.61,2.5-10,5.33-19.93,8.21-29.84,2.67-9.19,6.77-18.65,7.08-28.3,0-.9-1.92-.55-1.94.2Z"/><path class="cls-2" d="M291,126.56c1.64,4.09-.64,8.11-.86,12.24.64-.13,1-.26,2-.4v-7.6c0-.51-2-.17-2,.52v7.6a11.65,11.65,0,0,0,1.87-.52c-.14-2.25-.87-4.39-1-6.65,0-.54-1.95-.15-1.95.52,0,3.47,0,7-.95,10.33l1.92-.39c-1.85-4.28-1-9.09.95-13.19l-1.93.39a33.43,33.43,0,0,1,.95,9.51l1.93-.52c-.24-1.61-.81-3.11-1-4.75,0-.57-1.93-.13-1.93.52a14.05,14.05,0,0,1-1,5.58c-.21.54,1.69.31,1.93-.27a15,15,0,0,0,.95-5.83l-1.93.52c.14,1.64.71,3.14.95,4.75.09.59,1.93.11,1.93-.52a33.36,33.36,0,0,0-1-9.5c-.19-.66-1.73,0-1.93.39-1.93,4.16-2.83,9.1-1,13.43.25.59,1.78.12,1.93-.39,1-3.44.95-7,.95-10.58l-1.93.52c.1,2.26.89,4.4,1,6.65,0,.55,2,.14,2-.52v-7.6c0-.51-2-.17-2,.52v7.6c0,.51,1.84.16,1.87-.39.22-4.24,2.61-8.3.93-12.49-.24-.6-2.17,0-2,.52Z"/><path class="cls-2" d="M266.27,217.66c-.17,4.06-2,7.65-3.75,11.23l1.89-.16A15.83,15.83,0,0,1,269,215l-1.78-.19c-.11,4.61-1.7,8.92-5.36,11.87l1.6.16c-.76-3.91,1-7.17,3.64-9.94l-1.78-.18a22.71,22.71,0,0,1-.95,6.65c-.27.88,1.7.65,1.95-.16a22.08,22.08,0,0,0,.95-6.66c0-.92-1.37-.61-1.78-.18-2.89,3-4.79,6.71-4,11,.12.66,1.25.44,1.6.16a16.46,16.46,0,0,0,6-12.86c0-.93-1.38-.6-1.78-.18a17,17,0,0,0-4.91,14.78c.12.84,1.64.33,1.88-.16,1.84-3.69,3.69-7.39,3.86-11.58,0-1-1.92-.68-2,.16Z"/><path class="cls-2" d="M307.16,67.48c-.32,9.92-5.08,18.92-8.85,27.88-4.32,10.25-6.77,21.55-10.24,32.13-6.48,19.74-13.23,39.54-21.39,58.67-7.9,18.48-17.44,36.42-29.8,52.33-6.44,8.28-12.76,16.46-19.73,24.32-5.05,5.71-11.75,11.36-14.57,18.6-.23.59,1.69.35,1.93-.26,2.94-7.55,10.32-13.68,15.61-19.65,6.93-7.82,13.14-16,19.54-24.27,12.08-15.55,21.16-33.33,29-51.33,8-18.51,14.38-37.76,20.79-56.87,3.59-10.71,6.82-21.54,10.19-32.33,3.13-10,9.15-18.61,9.5-29.47,0-.77-1.91-.35-1.93.25Z"/><path class="cls-2" d="M311.92,81.76c-1.28,17-.8,34,.21,51,1.1,18.52,2.38,37.06,3.69,55.57,1.29,18.27,3.35,36.5,7.54,54.35,4,17,7.92,34.36,15.18,50.28l1.87-.61c-.72-.94-1-1.55-2-2-.5-.2-2.26.56-1.57.83A6.24,6.24,0,0,1,338.6,293c.29.38,2.08-.15,1.87-.61-7-15.43-10.59-32.07-14.73-48.43-4.5-17.76-6.47-36.08-7.85-54.3-1.36-17.93-2.4-35.89-3.6-53.82-1.2-18.1-1.82-36.3-.45-54.41.05-.64-1.88-.24-1.92.29Z"/><path class="cls-2" d="M313,84.9c2.41,3.25,1.78,10.26,2.06,14,.53,7.08,1.89,14.07,2.93,21.09a417.55,417.55,0,0,0,12.21,55.81c10.94,37.55,21.58,75.37,36.91,111.42l1.85-.69-1.9-1.9c-.64-.64-2.46.17-1.77.86l1.9,1.9c.49.49,2.24.21,1.85-.69-15.33-36.05-26-73.87-36.91-111.42a417.21,417.21,0,0,1-12.21-55.81c-1.09-7.36-2.46-14.66-3-22.08-.28-3.87.28-10.09-2.15-13.37-.54-.73-2.38,0-1.77.86Z"/><path class="cls-2" d="M327.13,257.77A22.85,22.85,0,0,1,330,269.18l1.93-.52c-2-3.45-2-7.6-2.85-11.41l-1.93.52A46.82,46.82,0,0,1,330,273.93l1.87-.6c-3.81-5.13-4.63-11.76-4.69-18l-1.87.6c4.42,3.91,4.68,9.62,4.69,15.13l1.93-.52c-2-3-3.6-5.83-3.8-9.51l-1.93.52a27.11,27.11,0,0,1,.95,7.61c0,.41,1.93.1,1.93-.52a27.15,27.15,0,0,0-.95-7.61c-.15-.51-2,0-1.93.52.2,3.67,1.81,6.5,3.8,9.51.31.46,1.93.06,1.93-.52,0-5.6-.35-11.35-4.81-15.3-.37-.32-1.88.05-1.87.61.06,6.33.94,12.94,4.81,18.15.3.39,1.88-.1,1.87-.61a46.82,46.82,0,0,0-2.85-16.16c-.19-.51-2.05,0-1.93.52.86,3.81.86,8,2.85,11.41.28.48,1.95,0,1.93-.52a22.88,22.88,0,0,0-2.85-11.41c-.32-.54-2.14.17-1.93.52Z"/><path class="cls-2" d="M355.73,253.16a12.54,12.54,0,0,1,1.82,7.3l1.73-.61c-2.87-2.08-3.55-5.76-3.59-9.09l-1.94.35a32.89,32.89,0,0,1,1.9,9.35l1.86-.5c-2-2.1-2.68-4.8-3.57-7.46-.24-.71-1.78-.35-1.78.35v6.66c0,.91,2,.55,2-.2v-6.65c-1,.12-1.48.23-2.13.35.93,2.77,1.77,5.58,3.79,7.75.39.42,1.83.21,1.82-.5a33.64,33.64,0,0,0-1.93-9.66c-.23-.71-2-.34-1.95.35.05,3.75.81,7.6,4,9.92.41.3,1.72,0,1.72-.61a13.67,13.67,0,0,0-2-7.91c-.4-.63-2.27,0-1.78.81Z"/><path class="cls-2" d="M378.47,274.74c-.88,2.06-3.69,3.34-5.53,4.38-2.34,1.33-4.79,2.45-7.2,3.64-1.2.6-.1,1.27.77.84,2.77-1.37,5.56-2.69,8.25-4.21,2-1.16,4.68-2.61,5.64-4.88.28-.64-1.66-.42-1.93.23Z"/><path class="cls-2" d="M376.64,272.73c-3.5,4.35-9.25,6.49-13.95,9.27-1.12.66.61.79,1.17.46,4.93-2.91,10.88-5.18,14.57-9.75.49-.61-1.43-.42-1.79,0Z"/><path class="cls-2" d="M422.22,263.38c-11.33,17.35-32.84,28.49-52.08,34.56-25.16,7.93-52.36,10.09-78.6,9.33-27-.78-54-4.85-80.5-9.6-25.46-4.55-50.91-9.47-75.16-18.68-.44-.17-2.19.54-1.58.77,26.59,10.1,54.79,15.36,82.77,20,28.52,4.7,57.25,8.73,86.22,8.5,24.09-.18,49.35-3.27,72.16-11.37,18.09-6.42,37.94-17.36,48.68-33.81.16-.25-1.6-.16-1.91.33Z"/><path class="cls-2" d="M393.14,317.28c-17.48,7.34-35.17,14-54.17,15.9-19.73,2-39.24,3.39-59.1,2.44-19.16-.92-37.5-4.76-56.28-8.19-18.55-3.4-37.2-6.24-55.38-11.35-.45-.12-2.15.59-1.59.75,19.37,5.44,39.29,8.35,59,12,20.26,3.76,39.92,7.25,60.59,7.85a355.79,355.79,0,0,0,57.51-3.41c17.59-2.34,34.25-8.93,50.5-15.76,1.18-.49-.65-.44-1.11-.25Z"/><path class="cls-2" d="M107.34,251.35c-9.94-6.23-16.82-16.28-23.54-25.65-6.15-8.56-12.84-16.49-19.66-24.51-3.31-3.9-6.64-7.78-10.06-11.59q-2.36-2.64-4.86-5.15c-.55-.56-7.07-6.11-1.47-5.58,6.12.58,12.38,5.91,17.13,9.39,4,2.9,7.55,6.14,11.29,9.29,7.14,6,14.76,11.47,22.18,17.11A100.36,100.36,0,0,0,107,221c4.77,2.88,10.22,4.22,15.55,5.59,13,3.34,22.3,12.39,31.27,21.9,8.47,9,16.72,17.57,26.93,24.64.54.37,2.28-.4,1.8-.74C172,265,163.47,256,154.68,246.69c-8.51-9-17.4-17.37-29.57-20.79-7-2-13.4-3.67-19.54-7.74-3.49-2.31-6.72-5.23-10.06-7.75-7.68-5.79-15.08-11.82-22.49-17.93a132.09,132.09,0,0,0-14.35-10.41C54.73,179.62,50,177,45.22,178c-1.28.26-3.08,1.47-2,3,2.66,3.76,6.86,6.92,10,10.37,7.41,8.26,14.9,16.69,21.72,25.43,7.72,9.9,14.21,20.75,23.25,29.57a46.19,46.19,0,0,0,7.65,5.93c.5.32,2.3-.43,1.55-.9Z"/><path class="cls-2" d="M62.82,188.24c-1.69,4-1,8.39-2.72,12.35.64-.13,1.06-.26,2.06-.39V187.84c0-.53-2-.19-2,.52V195c0,.54,2,.19,2-.52V182.14c0-.54-2.06-.19-2.06.52,0,2.52-.19,4.4-1.9,6.39l1.83-.26c-.16-2.24-.81-4.4-1-6.65,0-.59-1.94-.16-1.94.52a16.23,16.23,0,0,1-.95,6.53l1.92-.4c-1-2.46-.94-5-1-7.6l-1.93.52c.12,3.19.83,6.31.95,9.5l1.87-.62c-2-3.11-3.7-6.4-5.71-9.51l-1.8.73c3.77,3,6.32,7,8.49,11.31l1.74-.71A26.84,26.84,0,0,1,48.52,182l-1.5.86a25.92,25.92,0,0,1,11.11,5.58l1.5-.86a7,7,0,0,1-6.29-4.52l-1.74.71A21.73,21.73,0,0,1,61,189.42c.46.44,2.27-.28,1.8-.73a22.1,22.1,0,0,0-9.63-5.79c-.31-.08-2,.06-1.74.71a7.88,7.88,0,0,0,7,5c.24,0,2.07-.34,1.5-.86-3.31-3-7.42-4.69-11.71-5.84-.38-.1-1.89.25-1.5.86A27.4,27.4,0,0,0,59.2,193.3c.31.14,2-.12,1.75-.7-2.21-4.33-4.8-8.45-8.63-11.52-.43-.34-2.23.07-1.8.73,2,3.11,3.7,6.4,5.71,9.51.32.5,1.88,0,1.86-.62-.11-3.2-.83-6.32-1-9.51,0-.57-1.93-.18-1.93.52a20.55,20.55,0,0,0,.95,7.6c.26.66,1.73.09,1.93-.39a16.79,16.79,0,0,0,.95-6.78l-1.93.52c.16,2.24.8,4.41,1,6.65,0,.68,1.65,0,1.86-.26,1.8-2.09,2.06-4.24,2.07-6.91-.64.17-1.83.34-1.83.52V195c0,.54,2,.19,2-.52v-6.66c0-.53-2-.19-2,.52v12.36c0,.65,1.66,0,1.83-.39,1.69-4,1.11-8.39,2.8-12.36.24-.55-1.72-.33-2,.27Z"/><path class="cls-2" d="M58.83,186.61c-2.72-2.38-6.33-3.68-9.7-4.84,0,.39-.09.78-.14,1.17,5.53-2.24,10,4.19,11.92,8.47a1,1,0,0,0,.88.62h1.9c-.29-1-.53-.79-.53-1v7.6c0,1,1.71.67,1.78-.16.24-2.94,1.81-5.61,1.81-8.56,0-1-2-.66-2,.17,0,3.07.23,6.42-.91,9.33h1.88A53.88,53.88,0,0,1,67.62,188a.48.48,0,0,0-.23-.46c-6-3.17-12.37-9.4-19.68-8.69-.51,0-1.1.36-1.06.93.52,7.59,10.72,8.83,13.32,15.22.33.83,2.25.28,1.93-.52-2.6-6.39-12.81-7.86-13.32-15.21l-1,.93c4.93-.47,9.56,3.09,13.53,5.59,2.42,1.53,4.69,1.94,3.9,5.23a41.16,41.16,0,0,0-1.2,8.55c0,.94,1.64.67,1.89,0,1.21-3.06,1-6.45,1-9.69,0-1-2-.66-2,.17,0,2.95-1.46,5.61-1.7,8.55.65,0,1.15-.11,2.15-.16v-7.61c0-.5-.67-.59-1.08-.59-1.82,0-2.23-1.87-3.14-3.27A17.89,17.89,0,0,0,57,183a8.55,8.55,0,0,0-8.86-1.1c-.53.21-.83.93-.15,1.17,3.27,1.12,6.68,2.36,9.32,4.66.61.54,2.31-.36,1.49-1.08Z"/><path class="cls-2" d="M74.23,197.87A34.57,34.57,0,0,1,71.38,212l1.93-.39c.06-5.08.88-10.12,1-15.21,0-.53-1.92-.19-1.94.52-.07,4.46-.93,8.85-1,13.31.64-.17,1.86-.35,1.86-.52V198.3c0-.54-1.86-.19-1.86.52a30.21,30.21,0,0,1-.91,8.43l2-.39c.09-3.83.87-7.59,1-11.41l-1.93.52c-.07,4.14-.87,8.22-1,12.36,0,.53,1.92.19,1.93-.52.08-4.14.89-8.22,1-12.36,0-.53-1.91-.19-1.93.52-.09,3.82-.86,7.58-1,11.41,0,.58,1.79.09,1.93-.39a31,31,0,0,0,.85-8.69,16.86,16.86,0,0,1-2,.52v11.41c0,.54,2,.18,2-.52.08-4.45.93-8.85,1-13.31l-1.9.52c-.07,5.08-.87,10.12-.94,15.21,0,.66,1.75,0,1.94-.39a35,35,0,0,0,2.85-14.39c0-.53-1.91-.19-1.92.52Z"/><path class="cls-2" d="M424.17,257.49c-2.8,4.44-7.64,7-10.45,11.41-.48.76,1.46.56,1.79,0,2.81-4.43,7.65-7,10.46-11.41.48-.75-1.46-.55-1.8,0Z"/><path class="cls-2" d="M418.44,262.13c-2.44,4.56-7.08,8-11.13,11.06-1.05.79.5,1.56,1.3,1,4.29-3.24,9.11-6.92,11.69-11.76.53-1-1.43-1.06-1.86-.26Z"/><path class="cls-2" d="M410.81,267.19c-1.33,4.51-5.84,7.66-9.43,10.36-.41.31,1.38.13,1.75-.15,3.64-2.74,8.23-6,9.58-10.55.12-.4-1.76-.15-1.9.34Z"/><path class="cls-2" d="M405.1,271c-2.3,4.37-6,7.85-9.43,11.31-.41.41,1.43.19,1.75-.14,3.52-3.52,7.25-7.07,9.59-11.51.15-.28-1.65-.15-1.91.34Z"/><path class="cls-2" d="M397.49,276.66c-2.26,5.17-7.43,8.41-11.34,12.24-.52.51,1.39.36,1.78,0,4-3.92,9.17-7.19,11.48-12.48.22-.51-1.67-.3-1.92.27Z"/><path class="cls-2" d="M390.84,280.48c-2.36,4.26-7.9,6.1-11.34,9.39-.47.46,1.4.28,1.77-.08,3.55-3.4,9-5.18,11.48-9.62.21-.36-1.62-.21-1.91.31Z"/><path class="cls-2" d="M385.14,280.49c-2.23,5-7.55,7.77-10.46,12.36-.19.28,1.59.17,1.91-.32,2.92-4.6,8.22-7.29,10.46-12.36.17-.39-1.68-.2-1.91.32Z"/><path class="cls-2" d="M378.48,284.27c-3,5.64-7.84,9.72-12.29,14.14-.52.51,1.39.35,1.78,0,4.54-4.5,9.41-8.65,12.43-14.39.24-.45-1.63-.28-1.92.28Z"/><path class="cls-2" d="M371.89,287c-3.12,5-7.7,8.78-11.4,13.31-.48.58,1.43.37,1.77-.05,3.7-4.52,8.29-8.33,11.41-13.31.42-.68-1.49-.41-1.78.05Z"/><path class="cls-2" d="M367.23,289.58c-3.44,4.44-7.86,8-11.41,12.36-.77.94,1.08,1.15,1.6.51,3.55-4.35,8-7.92,11.41-12.36.74-1-1.1-1.16-1.6-.51Z"/><path class="cls-2" d="M361.37,290C359,294.54,355,298.27,351,301.34c-.37.28,1.39.07,1.73-.19,4.06-3.1,8.14-6.93,10.54-11.5.1-.19-1.65-.1-1.9.37Z"/><path class="cls-2" d="M355.09,290.56c-5.29,3.32-9.27,8.21-13.62,12.6-.51.52,1.39.36,1.78,0,4.15-4.19,7.95-9,13-12.12,1.1-.69-.62-.79-1.16-.45Z"/><path class="cls-2" d="M350.5,290.26c-6,2.2-10.26,7.24-14.65,11.68-.84.85,1,1.08,1.6.51,4.18-4.22,8.15-9,13.88-11.14,1.25-.45.14-1.41-.83-1.05Z"/><path class="cls-2" d="M342.72,293.38c-5.8,3.08-9,8.86-13.49,13.43-.78.8,1.12.7,1.54.28,4.32-4.44,7.52-10.2,13.13-13.19,1.15-.61-.59-.84-1.18-.52Z"/><path class="cls-2" d="M335.7,294.76c-3.67,4.6-9.51,6.87-13.31,11.41a2.68,2.68,0,0,0,1.9-.35c3.81-4.54,9.63-6.8,13.31-11.41a2.63,2.63,0,0,0-1.9.35Z"/><path class="cls-2" d="M329.08,293.54c-1.33,2.89-4.24,4.61-6.8,6.3a33.55,33.55,0,0,0-7.35,5.9c-.78.92,1.07,1.15,1.61.52,4-4.77,11.67-6.64,14.38-12.53.45-1-1.5-.92-1.84-.19Z"/><path class="cls-2" d="M322.57,293.5c-5.25,4.09-11.4,6.91-15.34,12.49-.49.7,1.45.5,1.79,0,3.85-5.46,9.94-8.22,15.09-12.23.86-.66-1.08-.62-1.54-.27Z"/><path class="cls-2" d="M314.85,293.68c-3.77,3.63-8.58,5.88-12.36,9.51-.46.45,1.41.26,1.77-.09,3.77-3.63,8.58-5.88,12.36-9.51.46-.45-1.41-.25-1.77.09Z"/><path class="cls-2" d="M307.38,294.51c-4.74,2.94-8.11,7.22-11.54,11.53-.45.56,1.44.32,1.76-.08,3.36-4.21,6.64-8.42,11.28-11.3.85-.52-1.1-.39-1.5-.15Z"/><path class="cls-2" d="M301.64,294.38a111.84,111.84,0,0,1-11.24,9.37c-1,.79.56,1.2,1.23.7a113.88,113.88,0,0,0,11.58-9.65c.84-.82-1.06-.93-1.57-.42Z"/><path class="cls-2" d="M294.81,294.73c-2.17,5-7,8.15-10.39,12.24-.48.58,1.43.37,1.78,0,3.45-4.19,8.31-7.4,10.53-12.49.21-.48-1.68-.27-1.92.29Z"/><path class="cls-2" d="M291.1,294.68c-3.15,3.24-5.42,7.21-8.56,10.46-.37.38,1.43.13,1.74-.18,3.14-3.25,5.41-7.22,8.56-10.46.36-.38-1.44-.14-1.74.18Z"/><path class="cls-2" d="M285.62,293.2c-4.12,3.17-7.12,7.33-9.79,11.74-.56.92,1.41.93,1.85.22,2.52-4.16,5.34-8.09,9.22-11.08,1-.81-.52-1.46-1.28-.88Z"/><path class="cls-2" d="M280.59,291.66c-2.25,5.16-7.38,8.38-11.29,12.2-.84.83,1.05,1,1.59.47,4-3.92,9.21-7.22,11.53-12.52.42-1-1.52-.84-1.83-.15Z"/><path class="cls-2" d="M274.89,291.66c-2.57,4.78-7.88,8.9-12.81,11-1.22.52-.12,1.39.82,1,5.32-2.26,11-6.68,13.82-11.83.48-.91-1.47-.81-1.83-.15Z"/><path class="cls-2" d="M267.3,291.74a33,33,0,0,1-12.78,10.1c-1.25.53-.1,1.06.74.7a35.44,35.44,0,0,0,13.83-10.81c.5-.64-1.43-.44-1.79,0Z"/><path class="cls-2" d="M258.75,292.72A41.16,41.16,0,0,1,246,300.94c-1.26.53-.08.93.71.6a44.64,44.64,0,0,0,13.85-8.88c.49-.48-1.4-.31-1.78.06Z"/><path class="cls-2" d="M251.26,291.6c-3.84,2.83-8.08,5-12.18,7.48-1.12.67.59.88,1.19.53,4.22-2.52,8.57-4.82,12.53-7.73.88-.64-1.07-.63-1.54-.28Z"/><path class="cls-2" d="M245,289.44c-5.23,2.26-8.84,6.74-12.76,10.7-.79.8,1.11.76,1.55.31,3.66-3.7,7.08-8.11,12-10.22,1.24-.54.1-1.16-.76-.79Z"/><path class="cls-2" d="M235,289l-11.41,8.56c-.39.29,1.39.09,1.74-.17l11.41-8.56c.39-.29-1.38-.1-1.74.17Z"/><path class="cls-2" d="M229.35,287.63c-2.24,3.1-6.22,4.47-9.34,6.49-1.1.71.48,1.46,1.3.93,3.27-2.12,7.31-3.55,9.67-6.81.73-1-1.09-1.36-1.63-.61Z"/><path class="cls-2" d="M223.41,287.56c-4.18,1.2-6.72,4.55-10.16,6.95-.84.58,1.11.44,1.51.16,2.94-2.05,5.29-5.34,8.85-6.36,1.13-.33.94-1.08-.2-.75Z"/><path class="cls-2" d="M217.4,286.5l-14.26,5.71c-1.24.49-.12,1.33.81,1l14.26-5.71c1.24-.49.12-1.33-.81-1Z"/><path class="cls-2" d="M211.94,283.54c-5.84,1.38-10.73,5.75-14.9,9.86-.84.84,1.05,1,1.59.47,3.8-3.75,8.29-7.89,13.63-9.15,1.19-.28.86-1.46-.32-1.18Z"/><path class="cls-2" d="M204.66,282A36.11,36.11,0,0,1,191,290.24c-1.13.39-.87,1.49.29,1.09a39.13,39.13,0,0,0,14.9-8.9c.84-.81-1.06-.9-1.57-.41Z"/><path class="cls-2" d="M200.11,282c-5.41,3.35-11.66,3.67-17.59,5.51-1.13.35-.92,1.2.22.84,6.28-2,12.83-2.35,18.54-5.89,1.1-.68-.61-.81-1.17-.46Z"/><path class="cls-2" d="M190.34,277.8c-6.86,1.19-13.77,3.13-19,8-.86.8,1,.95,1.58.45,4.68-4.41,11-6.14,17.17-7.21,1-.17,1.53-1.48.21-1.25Z"/><path class="cls-2" d="M183.69,276.85c-5.84.13-11.41,1.83-17.12,2.85-1,.17-1.53,1.49-.21,1.26,5.7-1,11.29-2.72,17.11-2.86,1,0,1.54-1.28.22-1.25Z"/><path class="cls-2" d="M173.71,274.3,156.6,280c-1.3.43-.09.9.72.63l17.11-5.7c1.3-.43.09-.91-.72-.64Z"/><path class="cls-2" d="M166.3,273.05c-5.76,1.09-11,3.6-16.41,5.8-1.24.5-.14,1.45.83,1,5.23-2.13,10.32-4.56,15.91-5.61,1.22-.23.86-1.46-.33-1.24Z"/><path class="cls-2" d="M157.31,268.63c-4.84,2.76-10.37,3.9-15.21,6.66-1.14.64.57.92,1.2.57,4.83-2.76,10.36-3.9,15.21-6.66,1.13-.64-.58-.92-1.2-.57Z"/><path class="cls-2" d="M151.09,267.36c-5.1,1.14-9.61,3.79-13.78,6.87-1.05.78.54,1.32,1.26.79,3.9-2.88,8.07-5.37,12.85-6.44,1.2-.27.86-1.49-.33-1.22Z"/><path class="cls-2" d="M142.89,266c-3.31,2.17-6.77,4-9.64,6.78-.52.5,1.39.34,1.78,0,2.76-2.67,6.19-4.44,9.38-6.53.87-.57-1.09-.49-1.52-.21Z"/><path class="cls-2" d="M136.22,265a56.42,56.42,0,0,1-8.38,6.53c-1.09.72.59.94,1.19.54a59.13,59.13,0,0,0,8.73-6.78c.8-.78-1.1-.72-1.54-.29Z"/><path class="cls-2" d="M128.42,262.52a7.13,7.13,0,0,1-3.58,5.42c-.33.18-.23.41.11.42a2.73,2.73,0,0,0,1.37-.37,7.8,7.8,0,0,0,4-6c0-.28-1.91,0-1.93.52Z"/><path class="cls-2" d="M129.47,261.56a17.9,17.9,0,0,0-7.17,2c-1.19.58-.12,1.62.86,1.14A15.45,15.45,0,0,1,129.3,263c1.1,0,1.49-1.45.17-1.41Z"/><path class="cls-2" d="M119.85,261.4v1c0,.95,2,.6,2-.18v-.95c0-.94-2-.6-2,.18Z"/><path class="cls-2" d="M352.89,333.65c-6.38,4.89-15,5.33-22.27,8.27-1.28.51-.07.71.66.42,7.72-3.11,16.58-3.65,23.36-8.85.4-.31-1.39-.12-1.75.16Z"/><path class="cls-2" d="M338.12,334.87c-6.82,3.8-14.11,6.65-20.92,10.46-1.14.63-.11,1.75.87,1.2,6.82-3.8,14.11-6.65,20.92-10.45,1.14-.64.11-1.76-.87-1.21Z"/><path class="cls-2" d="M323.22,339.78a70.06,70.06,0,0,0-18.53,8.75c-1.09.72.6.88,1.18.5a66.09,66.09,0,0,1,17.59-8.36c1.14-.34.91-1.23-.24-.89Z"/><path class="cls-2" d="M314,338.87c-6.75,1-13.46,2.82-19,7-.81.61,1.13.4,1.5.12,5-3.8,11-5.38,17.15-6.32.81-.12,1.69-1,.33-.8Z"/><path class="cls-2" d="M300.69,339.09c-5.12,4.81-12.34,6.15-17.89,10.33-1,.79.59,1.1,1.22.63,5.66-4.27,13-5.67,18.24-10.59.83-.79-1.08-.83-1.57-.37Z"/><path class="cls-2" d="M291.36,339c-5.31,3.82-11.54,6-16.33,10.59-.83.79,1.08.79,1.55.34,4.69-4.48,10.79-6.6,16-10.33,1.06-.76-.59-1-1.21-.6Z"/><path class="cls-2" d="M282.54,340.31c-4.75,4.33-12,4.71-17.12,8.55-.39.3,1.39.11,1.75-.16,5.17-3.85,12.29-4.16,17.11-8.56.4-.36-1.41-.14-1.74.17Z"/><path class="cls-2" d="M275.46,339.75c-8.52-.66-15.54,4.4-22.29,8.93-.86.58,1.09.5,1.53.21,5.83-3.92,12.12-8.77,19.55-8.19.52,0,2.25-.87,1.21-.95Z"/><path class="cls-2" d="M266.6,336.91c-6.58,4.61-13.73,8.27-20.71,12.23-1.14.65-.1,1.74.87,1.19,7.13-4,14.41-7.79,21.13-12.5,1.08-.75-.49-1.48-1.29-.92Z"/><path class="cls-2" d="M252.87,334.1c-6.77,2-13.27,5.41-17.89,10.89-.51.6,1.42.41,1.78,0,4.22-5,10.13-8.15,16.34-10,1.13-.34.92-1.19-.23-.84Z"/><path class="cls-2" d="M246.2,336a28,28,0,0,0-14,7c-.81.78,1.1.74,1.55.31a25.14,25.14,0,0,1,12.67-6.33c1.18-.25.9-1.2-.26-.95Z"/><path class="cls-2" d="M241.38,335.71c-8,2.36-16.32,5.91-21.54,12.75-.76,1,1.06,1.4,1.64.64,4.91-6.44,12.72-9.74,20.29-12,1.19-.35.81-1.78-.39-1.43Z"/><path class="cls-2" d="M235,334.58c-5.52,6.1-14.42,7.27-20.78,12.25-.79.62,1.14.38,1.49.1,6.46-5.06,15.42-6.24,21.05-12.47.43-.47-1.43-.24-1.76.12Z"/><path class="cls-2" d="M227,334.2c-5.47,1.93-10.06,5.31-14.66,8.77-.84.64,1.1.53,1.52.21,4.35-3.27,8.68-6.5,13.87-8.34,1.28-.45.09-.93-.73-.64Z"/><path class="cls-2" d="M222.61,333.52c-4.54,6.15-13.48,7.22-19.68,11.13-1.11.7.56,1.08,1.23.66,6.52-4.11,15.45-5.17,20.26-11.69.55-.76-1.41-.65-1.81-.1Z"/><path class="cls-2" d="M216.92,330.76c-4.43,4.22-10.26,6.61-15.08,10.34-.81.63,1.12.45,1.51.15,4.91-3.81,10.81-6.27,15.34-10.57.48-.46-1.4-.27-1.77.08Z"/><path class="cls-2" d="M211.22,329.81c-4.22,4.06-9.54,6.75-14.13,10.35-.81.63,1.13.43,1.5.13,4.69-3.66,10.08-6.42,14.39-10.57.47-.45-1.4-.26-1.76.09Z"/><path class="cls-2" d="M202.59,327.08c-1.15,4.78-6,7.17-10.07,9.19-1.15.57.65.55,1.13.31,4.27-2.14,9.63-4.75,10.85-9.83.11-.48-1.79-.18-1.91.33Z"/><path class="cls-2" d="M198,327.62a35.78,35.78,0,0,1-9.12,6.39c-1.18.6-.11,1.49.83,1a39.09,39.09,0,0,0,9.89-6.93c.84-.83-1-1-1.6-.48Z"/><path class="cls-2" d="M190.28,325.93a10.51,10.51,0,0,1-4.45,4.48c-.29.15-.56.58-.16.79A1.59,1.59,0,0,0,187,331a12.12,12.12,0,0,0,5.05-5c.44-.84-1.5-.64-1.81-.06Z"/><path class="cls-2" d="M192,325.49c-3.31-2.1-6.27-.65-8.32,2.34-.52.76,1.43.6,1.8.06a7.39,7.39,0,0,1,2-2.14c1-.61,2.2.18,3,.69.55.35,2.33-.45,1.53-.95Z"/><path class="cls-2" d="M253.5,341.54c-6.64,3.8-13.27,7.64-19.22,12.49-1,.83.52,1.53,1.28.91,5.83-4.75,12.3-8.51,18.81-12.23,1.13-.65.1-1.72-.87-1.17Z"/><path class="cls-2" d="M254.76,339.76a33.43,33.43,0,0,0-13,6c-.88.64,1.06.63,1.54.28A30.09,30.09,0,0,1,255,340.69c1.18-.26.91-1.18-.25-.93Z"/></svg>