<svg id="layer1" xmlns="http://www.w3.org/2000/svg" viewBox="0 0 201.78 211.59"><defs><style>.cls-1{fill:#492d0c;}</style></defs><path class="cls-1" d="M123.85,92A20,20,0,0,1,126,92a3.43,3.43,0,0,0,2,2c8.11,2.47,20.54,15.37,29.4,9.24a1.15,1.15,0,0,0,.5-.67,15,15,0,0,0,3.27-2.49s0,0,0,0c4.15-4.28,4-10.32-.06-16.27a18.66,18.66,0,0,0-12-8,30.56,30.56,0,0,0-15.51-3.59c-5.3.37-11.81,2.53-16.11,6.45-4.39,3.15-8.16,7.92-11,11.75-.09.07-.19.12-.27.19l0,.09-.13.18c-.62.83,1.66,4.8,2.49,4.17a24.21,24.21,0,0,1,3.86-2.34c.43.53.89.88,1.29.77,2.65-.73,5.32-1.38,8-2.06A3.39,3.39,0,0,0,123.85,92Z"/><path class="cls-1" d="M160.52,112.41c1.49-1.19,1.19-5.18-1.26-4.61a17.45,17.45,0,0,0-5.22,2.59,1.53,1.53,0,0,0-1-.15,15.73,15.73,0,0,1-8.2-.82,18.42,18.42,0,0,0-4.76-2.37c-.42-.26-.83-.53-1.24-.81a16.57,16.57,0,0,0-6.16-5,1.24,1.24,0,0,0-1.87.73,16,16,0,0,0-3.86-1.75c-.39-.21-.76-.44-1.16-.64a1.18,1.18,0,0,0-1.25,0c-.72-.15-1.46-.26-2.2-.36a6.26,6.26,0,0,0-1.8-1c-1.64-2-3.82-3.17-6.42-1.72A6.81,6.81,0,0,0,112.19,98a6.86,6.86,0,0,0-3.31,1.73,7,7,0,0,0-1.31,1.57,4.87,4.87,0,0,0-1.31,3.74,7,7,0,0,0,.81,4.51,9.94,9.94,0,0,0,3.27,4.47,3.39,3.39,0,0,0,.71,1.91c1.94,2,4.13,3.49,6.36,3.52a8.17,8.17,0,0,0,3.23.68,1.47,1.47,0,0,0,1-.36c.3.12.6.23.91.32,4,2.53,9.51,2.41,14.84,1.29.65,0,1.3-.08,1.93-.13a36.13,36.13,0,0,0,9.45-2.23c.89-.19,1.8-.38,2.73-.53A2.06,2.06,0,0,0,153,117.2,45.27,45.27,0,0,0,160.52,112.41Z"/><path class="cls-1" d="M104.69,96.54c-.07-5.24,4.82-10.13,8.15-13.68a27.34,27.34,0,0,1,17.94-8.81c11.05-1.09,36.84,4.48,33.61,20-1.08,5.17-5.62,9.62-10.88,10-5.95.41-11.89-4.17-16.72-7.07-4.57-2.75-9.1-4.56-14.5-4.73-6.45-.2-12.84,2.32-19.05,3.71l1.57,1.12-.12-.56c-.12-.54-1.71-1.21-1.66-1l.12.55a1.94,1.94,0,0,0,1.57,1.12c9.59-2.16,18.62-5.74,28.27-1.64,5.34,2.26,9.88,6.11,15.28,8.34,4.72,2,9.59,1.93,13.54-1.57a12.56,12.56,0,0,0,2.29-16.57c-6.1-9.18-20.24-12.38-30.37-13-7.37-.48-14.95,1.69-20.38,6.81-4.13,3.88-10.41,9.86-10.32,16C103,96.07,104.69,96.88,104.69,96.54Z"/><path class="cls-1" d="M163.73,103.88c-3.93,3-6.48,5.66-11.75,5.47-3.91-.14-7.73-1.88-11.2-3.54-5.16-2.47-9.91-6.14-15.46-7.71-6.84-1.94-22.22-3.2-22.12,7.31.13,12.6,18.14,17,27.68,17.86,14,1.2,30.53-4.4,34.86-18.94.2-.67-1.27-1.67-1.7-1l-.44.68c-.46.71,1.18,1.85,1.63,1.15l.44-.67-1.7-1c-4.25,14.31-20.22,19.06-33.74,18.26-6.74-.4-13.63-2.26-19.22-6.11-5.84-4-9.17-13.38-.89-16.35,10.11-3.63,19.6,2.08,28.12,6.64a42.22,42.22,0,0,0,13.23,4.84c6,1,9.12-2.09,13.64-5.49C165.86,104.7,164.35,103.41,163.73,103.88Z"/><path class="cls-1" d="M83.11,147.77c-.56.61-1.13,1.24-1.65,1.9a.94.94,0,0,0-.47.23L79.92,151l-.27.27h0l-.3.3a17.59,17.59,0,0,0-5.07.88,12.36,12.36,0,0,0-4.86,3.29,41.61,41.61,0,0,0-7.15-.05c-5.15-1.29-10.63-1.47-15.94-2.21l-.63-.19c-.72-.45-1.44-.88-2.15-1.3a21,21,0,0,0-3.75-2.36,5.39,5.39,0,0,0-2.78.07A16.86,16.86,0,0,0,33,146c-.07-.18-.16-.36-.22-.54s-.69-.33-1.43-.3a13.35,13.35,0,0,0-.8-5.35,7,7,0,0,0-1.82-2.17c-.1-.09-1.66-1.44-1.66-.81s0,1,0,1.51c-.42-.26-.9-.46-.63.17a18.15,18.15,0,0,1,.77,2.33,14.36,14.36,0,0,0,.63,3,8.29,8.29,0,0,0,.67,1.49c-.83.06-1.47.16-1.45.27a22.94,22.94,0,0,0,2.83,7,7.4,7.4,0,0,1-2.12.11A38.67,38.67,0,0,0,33.23,157a14,14,0,0,0,6.73,4.3,10.93,10.93,0,0,0,1.78,0,41.79,41.79,0,0,0,4.33,1.34,13.89,13.89,0,0,0,5.88,1.6,37.27,37.27,0,0,0,3.87-.2c4.48,4.78,18.58.22,22.58-3.21A28.63,28.63,0,0,0,80.93,159L81,159l-.09-.07.71-.56c.2-.16-.13-.19-.26-.21l-.86-.11.32-.36a8.38,8.38,0,0,0,2.9-4c.46-.05.79-.16.83-.34a7.93,7.93,0,0,1,1.22-2.83,6.58,6.58,0,0,0,2.32-2.84l-.73,0C86.12,147.54,83.63,147.22,83.11,147.77ZM70.38,160.89l.48,0c-.27.19-.56.38-.85.55Zm-14-3.62-.18-.05a2.32,2.32,0,0,1,.38-.06Zm7.69,7.52-.22,0Zm1.8-8.52a19.6,19.6,0,0,1,2.29.17,23.64,23.64,0,0,0-2.52.26c-.34-.13-.69-.24-1-.35A10.38,10.38,0,0,1,65.89,156.27Zm-8.09-.15a17.3,17.3,0,0,0-4.6.23l-.49-.13c-1-.51-1.9-1-2.88-1.42A69,69,0,0,1,57.8,156.12Z"/><path class="cls-1" d="M81.25,139.85c-.44.14-.88.29-1.31.46a9.84,9.84,0,0,0-2.09-.09,12.12,12.12,0,0,0-5,.74,111.06,111.06,0,0,0-14.32-1.73,2.25,2.25,0,0,0-.66.08c-5.49-2.12-11.28-1.7-17.06-.62H38.68c-1.1,0-1.45.34-1.39.79-.27.16-.26.39-.07.64-.79.23-1.58.47-2.36.73-1.39.46.19,1.79.83,2.07l.65.27c-1.17,3.41,6.28,5.46,12.24,6.48,5.46,3.78,15.11,3.57,21.94,1.79a27.26,27.26,0,0,0,9.55-2.64c3-1.47,8.63-5.44,8.63-9.13,0-1.14-2.4-1.88-3.23-1.88C83.72,137.81,82.52,138.79,81.25,139.85ZM43.11,146l1.25.48-.1,0A4.37,4.37,0,0,1,43.11,146Z"/><path class="cls-1" d="M35.06,135.36c8.6-2.52,17.15.21,25.83.2,4.11,1.51,8.26,1.3,12.73,1.23l.29,0,.42,0a1.63,1.63,0,0,0,.49,0c2,0,3.93,0,5.89,0,.71,0,.9-.17.82-.42,1.17.34,4,.67,2.41-.78l-.41-.35c1.09.08,2.36-.07,1.12-1.07-.53-.42-1-.84-1.54-1.26l.1,0c1.94.54,3.93-.39,1.18-1.46l-.63-.23h0l-.08,0c-1.45-.55-2.89-1.05-4.34-1.46l-1.27-.53a16.49,16.49,0,0,0-3.52-1.53c-1.78-.53-3.39,0-1.91,1-.36,0-.74,0-1.11,0-.28-.13-.55-.24-.79-.33-.26-.24-.53-.48-.79-.75H61c-3.91-.35-7.83-.73-11.76-.78-4.24,0-13.65-.59-15.65,4.43a.55.55,0,0,0,.08.49c-.79.38-1.59.81-2.39,1.27l-.06,0h0c-.11.07-.22.12-.32.19C29.83,134,34.18,135.62,35.06,135.36Zm22.54-3.31.08,0-.24,0Zm7.26-.08a.67.67,0,0,0,.17.45,18.19,18.19,0,0,0-2.86,0q-.45-.24-.87-.51C62.49,131.85,63.67,131.88,64.86,132Zm-17.55-1.09-.47.11c-1.13.27,0,1,1.11,1.55-1.87-.2-3.74-.38-5.61-.48A37,37,0,0,1,47.31,130.88Z"/><path class="cls-1" d="M32.65,142c-1.93-3.2,7.31-4.35,9.26-4.64,4.9-.71,9.73.76,14.5,1.71,10.65,2.12,20.15,1.17,30.75-.62.83-.14,1.67-1.09.32-.86-8.39,1.42-16.45,2.68-25,1.48-5.76-.81-11.74-3.14-17.61-2.84-2.11.11-16.89,1.79-14.17,6.29.33.54,2.15-.16,1.93-.52Z"/><path class="cls-1" d="M31.64,144.24c3.53,5.42,9.43,8.32,15.6,9.68,8.06,1.76,16.87,3.88,25,1.55,3.32-.95,25.31-12.81,16.25-17.78-.78-.43-2.45.62-1.48,1.15,4.38,2.4-2.13,7.43-4.11,9.09a31.7,31.7,0,0,1-15.15,7c-6.47.95-13.55-1.49-19.86-2.52a21.65,21.65,0,0,1-14.48-9.07c-.51-.78-2.34,0-1.77.87Z"/><path class="cls-1" d="M87.37,136.11c-6.83-9.42-18-9.36-28.51-10.5-10.4-1.12-20.5-1.94-28.86,5.55-1.79,1.61-2.53,4.25-.38,5.82s7.71-.55,10-1.11a27.89,27.89,0,0,1,13.91.21c3.53.83,7,2.14,10.62,2.6,7,.87,14.15-.62,21.12-1.56,1-.13,1.53-1.44.21-1.26-4.58.62-9.15,1.32-13.76,1.7-6.61.55-12.52-1.61-18.83-3.09A24,24,0,0,0,42.53,134c-1.92.37-3.81.83-5.72,1.25l-2,.48c-2.74.64-5.46-1.67-3.24-4.15,6.93-7.74,19.08-5.55,28-4.58,9.77,1,19.66,1.17,26,9.88.46.63,2.32-.08,1.78-.81Z"/><path class="cls-1" d="M88.48,140.14c-1.12,6.61-2.86,13.11-7.55,18.13-7,7.47-18.72,6.8-27.82,5.1-6.66-1.25-14.35-2.77-19.38-7.65s-6.94-13.47-5.28-20.1c.2-.83-1.76-.56-1.95.2a23.05,23.05,0,0,0,6.27,21.5c5.46,5.31,15.37,6.73,22.52,7.88,8.63,1.38,17.79.51,25.1-4.64,6.55-4.61,8.78-13.18,10-20.62.15-.87-1.81-.57-1.94.2Z"/><path class="cls-1" d="M121.67,138.2c.81.16,1.65.31,2.49.4a1.08,1.08,0,0,0,.44.29l1.54.34a2.69,2.69,0,0,1,.44.09h0s.21.07.34.1a17.94,17.94,0,0,0,3.38,3.85,12.3,12.3,0,0,0,5.33,2.4,41.47,41.47,0,0,0,3.71,6.11c1.61,5.07,4.34,9.82,6.5,14.72.06.21.11.42.17.64,0,.85,0,1.68,0,2.51a21.13,21.13,0,0,0,0,4.43,5.27,5.27,0,0,0,1.52,2.33,16.76,16.76,0,0,0-1,5.31c-.11.16-.22.33-.34.48s.07.75.49,1.37a13.61,13.61,0,0,0-4.13,3.49,7,7,0,0,0-.88,2.69c0,.14-.36,2.17.18,1.84l1.27-.8c0,.49.09,1,.48.44a20.4,20.4,0,0,1,1.58-1.88,14.47,14.47,0,0,0,2.24-2.12,8.63,8.63,0,0,0,.91-1.35c.49.67.91,1.17,1,1.09a23,23,0,0,0,4.45-6.08,7.72,7.72,0,0,1,1.21,1.75,40.07,40.07,0,0,0,.79-6.86,14,14,0,0,0,.12-8,11.67,11.67,0,0,0-.93-1.51,44.93,44.93,0,0,0-1.14-4.39,13.8,13.8,0,0,0-1.74-5.84,34.16,34.16,0,0,0-2.2-3.19c1.72-6.33-9.58-15.92-14.6-17.52a26.39,26.39,0,0,0-2.88-1.2l-.11,0s0,.08,0,.12l-.85-.32c-.24-.08-.09.21,0,.33l.36.8-.48-.09a8.33,8.33,0,0,0-4.94-.35c-.29-.37-.55-.59-.73-.52a8.07,8.07,0,0,1-3,.44,6.65,6.65,0,0,0-3.64-.48c.13.21.27.41.4.61C119.9,135.77,120.93,138.05,121.67,138.2Zm17.86,3.93-.28-.4.92.44Zm4.27,13.79c0,.06,0,.12,0,.18a2.26,2.26,0,0,1-.25-.28Zm2.35-10.49.1.2ZM138,148.38a20.7,20.7,0,0,1-1.06-2,23.34,23.34,0,0,0,1.55,2c.07.36.16.71.24,1.07A10.24,10.24,0,0,1,138,148.38Zm4.12,7a17.78,17.78,0,0,0,2.62,3.8c0,.16.1.32.14.48.07,1.07.17,2.13.31,3.19A69.33,69.33,0,0,1,142.08,155.34Z"/><path class="cls-1" d="M115.92,144q.52.45,1.08.87a10.13,10.13,0,0,0,1,1.83,12.09,12.09,0,0,0,3.25,3.86,112.45,112.45,0,0,0,6.06,13.09,2,2,0,0,0,.42.52c1.09,5.78,4.48,10.48,8.44,14.84.38.6.75,1.21,1.12,1.81.58.93,1.05,1,1.4.77.28.14.47,0,.59-.28.61.55,1.22,1.1,1.86,1.63,1.12.93,1.42-1.11,1.32-1.8,0-.24-.08-.47-.11-.7,3.52-.79,1.34-8.21-.93-13.81.35-6.64-4.9-14.73-10-19.61a27.17,27.17,0,0,0-7.27-6.74c-2.81-1.75-9.16-4.47-12.29-2.54-1,.61-.34,3,.1,3.74C112.88,142.91,114.35,143.42,115.92,144Zm25.24,29.22c-.08-.43-.16-.87-.25-1.31a.49.49,0,0,1,0,.11A4.45,4.45,0,0,1,141.16,173.17Z"/><path class="cls-1" d="M136.38,185.6c-6.67-6-8.84-14.7-13.41-22.08-.87-4.29-3.23-7.71-5.65-11.48a2.29,2.29,0,0,0-.17-.23l-.2-.37a1.46,1.46,0,0,0-.3-.39c-1-1.69-2-3.37-3.05-5-.37-.6-.62-.67-.79-.47-.33-1.18-1.54-3.77-1.93-1.65,0,.18-.06.36-.09.54-.5-1-1.3-2-1.49-.39-.09.67-.18,1.32-.26,2l0-.09c-.56-1.95-2.41-3-1.86-.06,0,.22.09-.17.13.83h0s0-.12,0-.09c.3,1.52.63,2.92,1,4.37.08.45.14.86.22,1.31a16.41,16.41,0,0,0,.54,3.78c.49,1.79,1.81,2.85,1.9,1.06.19.31.39.61.6.92,0,.31.08.6.13.85s-.13.7-.22,1.06l4.7,7.6c1.76,3.51,3.49,7,5.52,10.42,2.19,3.63,6.67,11.92,12,11a.52.52,0,0,0,.36-.32c.75.48,1.58.93,2.39,1.36,0,0,.1,0,.1.05v0c0,.05.16.12.28.18C138,190.77,137.06,186.22,136.38,185.6Zm-14.67-17.43s0-.06,0-.1l.09.23ZM117.83,162a.73.73,0,0,0,.29-.39,19.66,19.66,0,0,0,1.46,2.46,8.58,8.58,0,0,1,0,1C119,164.11,118.38,163.09,117.83,162Zm8.3,15.49c.12.12.22.24.34.35.83.81.87-.5.73-1.77.82,1.7,1.65,3.39,2.55,5A35.25,35.25,0,0,1,126.13,177.53Z"/><path class="cls-1" d="M143.08,185c-.77,1.51-7-5.27-7.53-5.82-2.89-3.31-4.33-7.09-5.85-11.19A86.2,86.2,0,0,0,122,151.48c-2.76-4.41-6.51-8.21-9.92-12.1-.37-.41-2.2.26-1.81.7,5.3,6,10.43,11.9,13.91,19.23,2.73,5.76,3.83,12.63,7.47,17.91,1.59,2.3,10.25,13.49,13.34,7.46.2-.4-1.65-.23-1.92.3Z"/><path class="cls-1" d="M145.83,183.44c3.33-7.06,1.43-14-1-20.94-2.58-7.59-5.85-15.58-12.43-20.49-2.82-2.11-22.92-12.84-22.28-2.7.06,1.06,2,.79,2-.12-.3-4.8,7.55-1.61,10-.77a31.17,31.17,0,0,1,13.58,9.27c4.17,5.05,5.8,12.22,8.26,18.16,2.24,5.42,2.48,12,0,17.34-.48,1,1.47,1.08,1.86.25Z"/><path class="cls-1" d="M109.41,141.18c-4.89,12.09,2.92,23,7.88,33.72,3.46,7.51,10.16,17,19.5,17.25,1.47,0,4.17-1.15,4-3-.5-4.22-6.11-7.78-8.73-10.79-4.65-5.35-5.37-13.09-7.89-19.51s-8-11.81-12.36-17.08c-.5-.61-2.35.11-1.78.8,2.93,3.58,5.93,7.09,8.68,10.81,3.63,4.92,5.07,10.45,6.82,16.18a27.44,27.44,0,0,0,5.69,10.69c1.22,1.4,2.6,2.67,3.9,4,.83.85,7.34,7.64.74,6.46-9.38-1.68-14.35-11.63-17.94-19.19-4.56-9.61-11-19.32-6.64-30.21.39-1-1.55-.84-1.83-.14Z"/><path class="cls-1" d="M112.17,137.36c8.8-3.56,17.65-5.33,26,.39,5.78,4,9.54,10.41,11.91,16.87s4.87,12.85,4.58,19.85c-.3,7.38-7.45,14.7-14.1,16.82-1.15.36-.86,1.52.31,1.15,6.65-2.12,11.62-7.2,14.49-13.48,3.58-7.82-.5-17.48-3.35-24.86-3.24-8.39-8.28-15.87-16.61-19.86-7.63-3.66-16.69-.81-24,2.15-1.24.5-.13,1.35.81,1Z"/></svg>