<svg id="layer1" xmlns="http://www.w3.org/2000/svg" viewBox="0 0 251.04 423.24"><defs><style>.cls-1{fill:#ef2525;}.cls-2{fill:#492d0c;}</style></defs><path class="cls-1" d="M89.26,225.82c-.32-.63-.66-1.24-1-1.86a2.51,2.51,0,0,0-.36-2.21c-.32-.48-.65-1-1-1.42a35.53,35.53,0,0,0-7.34-18.18c-.38-1.65-.81-3.29-1.25-4.94.27-10.6.83-21.24,1.52-31.68.17-1.84.34-3.69.5-5.53a136.62,136.62,0,0,1,4.48-16.59,2.75,2.75,0,0,0,.09-1.59,8,8,0,0,1,1.93-2.42l2-1a2.56,2.56,0,0,0,1-.93c2-1.62,1-5.33-1.86-5.25-18.89.51-35.76,17.47-38.19,35.72a73.35,73.35,0,0,0-.63,8.45c-.93,7.55-.57,15.69,2.88,22A11.84,11.84,0,0,0,53.23,200c-.5,9.82,6.94,18.19,15.73,22.53.82.57,1.64,1.12,2.48,1.64a21.41,21.41,0,0,0,11.09,6,3.31,3.31,0,0,0,2.08-.33c.43.11.86.23,1.31.33A3,3,0,0,0,89.26,225.82ZM61.41,168.13a2.36,2.36,0,0,0-.7,0,31.9,31.9,0,0,1,2.74-7.7A59.31,59.31,0,0,1,61.41,168.13Z"/><path class="cls-1" d="M154.12,172.66a58.19,58.19,0,0,0-12.77-29c-6.3-7.4-15.7-10.72-24.72-13.4-3-.88-4.42,2.43-3.11,4.47a2.54,2.54,0,0,0-1.27-.46c-1.77-1.89-3.55-3.67-5.16-5.28-2.42-2.43-6.22.65-4.64,3.58l.29.57a3.1,3.1,0,0,0-1.88-.09,2.7,2.7,0,0,0-4,0,38.14,38.14,0,0,0-4.52,6.12,17.28,17.28,0,0,0-2.55,4.19,58.56,58.56,0,0,0-2.33,7.2c-2.77,4-3,11.11-3.3,14.74s-.42,7.43-.44,11.15c0,2.4,0,4.79,0,7.2a50.14,50.14,0,0,0,.06,6.13V190a2.52,2.52,0,0,0,.09.67c0,.56.11,1.12.2,1.68.41,2.84.95,5.65,1.62,8.41A43.69,43.69,0,0,0,89.55,213c1,2.58,2.2,5.12,3.49,7.6.51,1.83,1.06,3.63,1.66,5.43a2.93,2.93,0,0,0,2.06,2.07c.46.06.93.16,1.41.26a3.11,3.11,0,0,0,5.51,1.21,8.92,8.92,0,0,0,3.44-.78c1.5,1.21,4.23.9,4.8-1.4.08-.32.15-.65.21-1a15,15,0,0,0,3.77-1.8c7.25-5.27,9.91-16.73,11.6-25a3,3,0,0,0-1.69-3.35,59.81,59.81,0,0,0,.94-20.16,88.11,88.11,0,0,0-4.43-17.67,3.16,3.16,0,0,0,1.22-2.29,16.91,16.91,0,0,0-.13-2.76c1.46,2,2.94,4.09,4.37,6.16.74,1.3,1.45,2.62,2.11,4,.4,3.1.91,6.2,1.48,9.28.7,7,1.61,14,2.29,21.07-1,5.93-4.2,11.6-6.44,17.06s-2.59,11.17-6.69,15.63c-2.06,2.24.29,6,3,4.94a3,3,0,0,0,4.57.6c8.52-7.82,17.75-17,22.41-27.78A58.12,58.12,0,0,0,154.12,172.66ZM90.63,194.27a3.35,3.35,0,0,0,.71,0c.18,1.88.35,3.76.47,5.65,0,.08,0,.16,0,.24-.39-1.38-.74-2.77-1-4.17C90.74,195.41,90.68,194.84,90.63,194.27Zm23.68-58.62-.1-.17.12.1A.64.64,0,0,0,114.31,135.65Z"/><path class="cls-1" d="M122.46,247.5a2.41,2.41,0,0,0-2.3-1.46v-2.47a2.93,2.93,0,0,0-4.24-2.59c-.74-2.71-5.11-3.49-5.64-.23-.07.42-.14.84-.22,1.27a3.11,3.11,0,0,0-1,0,15.25,15.25,0,0,0,.21-1.8c.22-3.59-4.66-3.65-5.8-.78-.17.4-.33.81-.49,1.21-.79-2.1-4-3-5.31-.56-.35.64-.68,1.33-1,2a3.23,3.23,0,0,0-4.44.67,12.29,12.29,0,0,0-.75,1.13c-.19.3-.38.6-.6.9a2.67,2.67,0,0,0-.54,1.35,35.53,35.53,0,0,0-2.57,11,2.77,2.77,0,0,0,1.34,2.45c0,.32,0,.63,0,.94,0,3.81,5.94,3.82,5.91,0,0-1,0-2.08-.07-3.16a18.38,18.38,0,0,0,1.74-2.19,5.45,5.45,0,0,0,.66.45,3,3,0,0,0,4-.94,21.72,21.72,0,0,0,1.08-2h0a5.35,5.35,0,0,0,.72,1,3.77,3.77,0,0,0,2.86,1.36c0,.27,0,.53,0,.79,0,2.18,2.58,3.53,4.33,2.72a2.89,2.89,0,0,0,4.32-.24c0,.53.1,1.06.16,1.58.31,2.77,3.54,3.81,5.15,2,.31,2.34.59,4.68,1.05,6.95.77,3.74,6.47,2.15,5.71-1.57C125.46,260.54,125.32,253.76,122.46,247.5Z"/><path class="cls-1" d="M118.56,351.69c0-.24-.5-.28-1-.16,0-.56,0-1.12,0-1.68,0-3.1-.07-6.22-.08-9.3,0-.48-1.94-.14-1.94.51,0,3.2.18,6.38.26,9.57-.08,5-.45,10-2.45,14.63V345c0-.47-2.26-.14-2.26.52a65.74,65.74,0,0,1-1.74,13.55v-8.5c0-.29-.44-.27-1-.11,0-.7.1-1.41.1-2.12,0-.29-.48-.27-1-.13a50.16,50.16,0,0,1,2.1-5.21c.35,0,.68.08,1,.13a3.32,3.32,0,0,0,.67.23h0a2.2,2.2,0,0,0,1,0c.19-.05,1.11-.35.82-.69a1.58,1.58,0,0,0-.84-.33,6.06,6.06,0,0,0-1.33-.71l-.8-.42a2,2,0,0,0,.36-.17l.21.08c.05.06.1.13.16.19a1.76,1.76,0,0,0,2.11.09c.13.24.25.49.39.77.23.48,1.95,0,1.93-.52a4.49,4.49,0,0,0-.37-1.91c.3-.14.51-.3.31-.4l-1.08-.55c1-.37,1.14-1.25,1.14-2.71,0-.49-1.68.08-1.85.31s-.74.86-1.15,1.48a9.4,9.4,0,0,0-2.92-.84c-.26,0-1.92.28-1.53.76l.27.33a4.53,4.53,0,0,0-.71-.16c-2.15-.23-2.41,2.3-2.88,3.89a1.19,1.19,0,0,0-.19.2c-.05.08,0,.15.07.19v0c.43.51,2.51.46,3.11.54l.63.06a.84.84,0,0,0-.37.31c-4,8.56-5.46,18.57-5.57,28,0,.47,1.92.15,1.93-.51a63.64,63.64,0,0,1,2.32-15,46.94,46.94,0,0,1-.9,6.51c-.13.61,1.57.25,1.72-.29a4,4,0,0,0,.11-1.14v6c0,.53,2.11,0,2.25-.41a23.22,23.22,0,0,1,1.75-5.15v7.79c0,.56,1.54,0,1.72-.29a24.92,24.92,0,0,0,3.15-7.18c.14,1.75.27,3.49.47,5.24,0,.23.37.27.77.21.16,2.52.29,5.05.32,7.59,0,.47,1.94.14,1.93-.52C119.58,366.53,118.63,359.13,118.56,351.69Zm-10.62-12.08a2.43,2.43,0,0,0-.53.16c-.24.1-.57.22-.62.5l.36-1.07.52.26Z"/><path class="cls-2" d="M88.32,129.24v-6.86a3.3,3.3,0,0,0-1.46.73c7.36-.08,37-6,31.4,8.89-.37,1,1.53.84,1.79.14,6.24-16.57-24.67-10.38-32.5-10.3-.38,0-1.23.17-1.23.73v6.86c0,.93,2,.57,2-.19Z"/><path class="cls-2" d="M89.06,132.55c2.14,1.31,6.67.09,8.92-.13,5.87-.56,12.82-1.85,18.53.13.6.2,2.35-.66,1.54-.94-4.1-1.42-8.61-1.11-12.87-.86-2.67.16-5.34.44-8,.69-1.66.16-5.09,1.08-6.59.17-.54-.33-2.32.46-1.53.94Z"/><path class="cls-2" d="M86.29,132.52c-22,.29-35.76,20.37-38.79,40.4-4,26.09,10.44,49.87,34.91,59.21.48.18,2.23-.56,1.57-.82-22.9-8.73-36.45-29.76-35-54.19,1.16-20,14.17-43.41,36.54-43.71.59,0,2.1-.91.81-.89Z"/><path class="cls-2" d="M122,132.49c8,3.69,15.62,7.93,21.73,14.4,7.25,7.68,11.59,18.22,13.16,28.54,1.54,10.16.45,22.39-4.83,31.4-5.57,9.51-14.67,17.16-23.82,23-.85.54,1.1.41,1.5.15,9.16-5.86,17.49-13.24,23.53-22.35,5.55-8.37,6.44-19.47,5.91-29.25-.6-11-5.18-21.73-12-30.29-6.1-7.67-14.89-12.42-23.63-16.44-.47-.21-2.24.51-1.57.82Z"/><path class="cls-2" d="M94.72,133.19c-6.23,3.1-9.41,10.08-11.58,16.32-3.39,9.81-4.54,20.58-4.58,30.91,0,10.53,1,21.17,4.18,31.23,2.23,7,6.07,14.72,13.15,17.83.55.25,2.32-.57,1.54-.91-7-3.06-10.47-10.62-12.75-17.44-3.12-9.29-4.07-19.33-4.19-29.07A106.7,106.7,0,0,1,84,152.72c1.88-6.9,5-15.59,11.9-19,1.16-.58-.58-.84-1.19-.53Z"/><path class="cls-2" d="M112.35,132.2c-1.42.66-.64.55.3,1.87.71,1,1.33,2.06,2,3.11,1.87,3.14,3.56,6.4,5.23,9.65,3,5.74,5.78,11.22,7.09,17.57,4.48,21.68,3.6,45.85-10.57,63.9-.13.16,1.55.11,1.9-.34,7.48-9.53,11.29-20.75,12.59-32.71a95,95,0,0,0-.1-18.85c-.52-5.65-1.11-12.08-3-17.45-2.34-6.6-6-12.95-9.37-19.07-1.11-2-3.8-9.48-7.13-7.92-1.16.53.66.45,1.11.24Z"/><path class="cls-2" d="M90.44,231.46c0,.13,30.05-1.06,32.76-1.06.61,0,2.09-.94.79-.94-4.49,0-9,0-13.47.11-5.07.11-10.29,1-15.35.7-1.28-.08-7.07-.92-6.66,1.71.08.53,2,.09,1.93-.52Z"/><path class="cls-2" d="M84,234.67c2.12,6.2,11.65,6,16.89,5.93a89.92,89.92,0,0,0,22.77-3.17c.28-.08.84-.23.88-.58.16-1.54.63-2.9.89-4.39.08-.51-1.83-.17-1.91.32-.27,1.56-.75,3-.91,4.58l.88-.58A93.43,93.43,0,0,1,105,239.64c-5.44.36-16.76,1.18-19-5.49-.16-.49-2.08.09-1.93.52Z"/><path class="cls-2" d="M89.62,241.51c-4.11,3.22-4.63,10.27-5.29,15A145.57,145.57,0,0,0,83.13,276c0,.44,1.92.13,1.93-.52a159.56,159.56,0,0,1,1-18c.53-4.62,1-12.6,5-15.75.82-.64-1.12-.48-1.51-.17Z"/><path class="cls-2" d="M85,277.5c2.35-3.33,2.86-7.28,4.56-10.9.24-.51-1.65-.31-1.92.27-1.66,3.53-2.14,7.4-4.42,10.64-.48.68,1.45.46,1.78,0Z"/><path class="cls-2" d="M92.24,256.73a40.4,40.4,0,0,1,4.42-8L94.8,249c-.13,7.52-1.67,14.92-1.8,22.44,0,.53,1.92.2,1.93-.52.13-7.52,1.67-14.92,1.8-22.44,0-.63-1.67,0-1.86.26A42,42,0,0,0,90.31,257c-.22.58,1.69.34,1.93-.26Z"/><path class="cls-2" d="M97.61,265.67c2.3-4,3.41-8.43,5.39-12.57.16-.33-1.67-.17-1.91.33-2,4.13-3.08,8.58-5.38,12.57-.17.29,1.62.17,1.9-.33Z"/><path class="cls-2" d="M102.86,249.75c-.06,6.9-.83,13.75-.89,20.65,0,1,1.56.63,1.9,0a50.6,50.6,0,0,0,5.42-16.34c-.65,0-1,.1-2,.15V269.5c0,1,1.6.68,1.92,0a41,41,0,0,0,4.55-17.25c0-1-1.93-.71-2,.15a40,40,0,0,1-4.43,16.88l1.91,0V254.09c0-1-1.82-.69-2,.15a49.58,49.58,0,0,1-5.34,16l1.9,0c.06-6.9.84-13.75.9-20.65,0-1-1.95-.71-2,.15Z"/><path class="cls-2" d="M111.85,251.73c1.85,6,1.78,12.4,1.78,18.66,0,1.05,2,.79,2-.13,0-6.37.06-12.89-1.81-19-.29-.93-2.22-.4-1.94.52Z"/><path class="cls-2" d="M118.14,247.24c-1,10.63-2.33,23.09,1.79,33.22.21.5,1.71-.13,1.92-.43,6.4-9.08,2.92-21.38,1.81-31.51,0-.38-1.93,0-1.93.52-.1,9-1.66,18.32,1.79,26.93.19.45,1.77-.07,1.92-.43,5.21-12.41.18-25.7-3.58-37.79-.13-.45-2.06.1-1.93.51,3.74,12,8.79,25.26,3.61,37.62l1.92-.43c-3.46-8.61-1.9-17.91-1.8-26.93l-1.93.52c1.1,10.08,4.57,22.32-1.78,31.33l1.91-.43c-4.11-10.13-2.82-22.59-1.79-33.22,0-.26-1.88-.06-1.93.52Z"/><path class="cls-2" d="M92.57,120.87c10-4.83,13.43-16.38,15.15-26.51A110.41,110.41,0,0,0,107.5,58a.76.76,0,0,0-.61-.5H106c-.41,0-1.29.32-1.33.87-.91,12.72-2.87,25.43-2.88,38.21,0,4.79-.05,9.78,2.22,14.11,1.85,3.52,5.32,6.21,7.92,9.15.5.57,2.35-.15,1.78-.79-2.83-3.2-6.27-6-8.28-9.82-2.41-4.58-1.74-11.22-1.67-16.19.18-11.62,2-23.15,2.85-34.73l-1.33.71c2.74,0,1.44,27.79,1.13,30.79-1.09,10.66-4,24.92-14.64,30.08-1.2.58-.11,1.38.8.94Z"/><path class="cls-2" d="M96.52,134.26l-.69-.66c-.17-.67-1.46-.29-1.76.05C81.24,148.35,79,169.17,78.64,187.91c-.18,9.5,1.88,17.94,5.31,26.68,2.44,6.23,5.68,13.56,12,16.74.64.32,2.39-.57,1.52-1-6.48-3.29-9.5-11.06-12-17.44a67.77,67.77,0,0,1-4.8-27c.34-17.81,2.89-37.87,15-51.79l-1.75.05c.19.79.29.68,1.1,1.15.63.35,2.38-.52,1.52-1Z"/><path class="cls-2" d="M112.81,132.56a1.53,1.53,0,0,0-1.07-.94c-.5-.13-1.44.09-1.55.69-.4,2.15,3.44,5.23,4.69,7a66.63,66.63,0,0,1,6.8,12.5A87.77,87.77,0,0,1,127.89,177c1.85,17.37-1.09,36.17-10.6,51-.53.84,1.43.75,1.83.13,9-14.06,11.82-31.06,11-47.52a90.81,90.81,0,0,0-5.54-26.91,73.45,73.45,0,0,0-5.16-10.91,61.68,61.68,0,0,0-3.52-5.4c-.75-1.06-4-4-3.79-5.34l-1.54.68a1.57,1.57,0,0,1,.44.58c.36.64,2.23,0,1.78-.81Z"/><path class="cls-2" d="M83.57,134.23c-8.66-.4-15.36,5.63-20.57,11.92-7.21,8.71-11.88,19.53-14.16,30.55-2.15,10.36-1.75,22.76,3.83,32.05a56.77,56.77,0,0,0,26.16,23.43c.54.23,2.34-.54,1.54-.92C60.37,221.73,49,200,49.71,178.2,50.25,161,62.64,133,83.5,135.27c.58.07,2.26-.9,1.19-1-20.25-2.19-32.78,20.07-36.13,37.13-4.69,23.93,8.31,50.33,30.27,60.8l1.54-.92C61.25,223,48.61,205,49.77,184c.55-10.06,4-20,8.85-28.73,4.74-8.57,13.27-20.48,24.19-20,.71,0,2.07-1,.76-1.06Z"/><path class="cls-2" d="M120.33,132.66c19.07,3.44,30.46,22.55,34.39,40.1,2,9,2,18.66-1.18,27.35-4.5,12.29-15.89,21.1-24.46,30.49-.81.89,1.07,1,1.59.45,7.31-7.37,14.15-15.2,18.93-24.48s6.43-19.76,6.45-30.15c0-9.36-.27-18.12-6-25.91s-15.21-16.62-25.18-18.18c-.85-.13-2,1.06-.7,1.27,10.23,1.6,20,11.57,25.61,19.86,5.32,7.84,4.59,18.66,4.27,27.68-.72,20.14-11.15,35.56-24.94,49.46l1.59.45c8.8-9.64,19.7-18.38,24.7-30.8,3.39-8.44,3.15-18.05,1.52-26.84-3.39-18.31-15.84-38.41-35.42-41.94-.73-.13-2.29,1-1.14,1.19Z"/><path class="cls-2" d="M86.72,125.15c.75,2.09,2.86,3.61,4.69,4.73.47.28,2.22-.21,1.65-.9-1-1.16-1.73-2.43-2.69-3.59l-1.78.79L94,131.57c.49.49,2.3,0,1.78-.8a38.4,38.4,0,0,0-4.48-5.38l-1.79.79a50.85,50.85,0,0,0,6.42,5.49c.4.29,2-.07,1.73-.76a14.65,14.65,0,0,0-5.6-6.52c-.49-.35-2.25.35-1.65.89a23.47,23.47,0,0,0,7.32,4.6c.41.16,2.32-.23,1.65-.9A60.05,60.05,0,0,0,92,122.59c-.39-.28-2,.1-1.72.76,2.34,4.89,6.86,8,12.06,9.29.47.12,1.92-.23,1.47-1-2.34-3.82-6.46-5.67-10-8.18-.58-.41-2.34.39-1.52,1a84,84,0,0,0,10.77,7.18c.46.24,2.28-.27,1.65-.9l-7.18-7.18-1.78.79c3.06,2.81,6.65,4.88,10,7.29.41.3,2-.06,1.72-.76-1.35-3.86-4.39-6.34-7.25-9.11l-1.66.9c4.36,2.76,8.21,6.21,12.57,9,.58.37,2.34-.37,1.52-1-3.55-2.76-6.82-5.87-10.77-8.08l-1.52,1a48.72,48.72,0,0,1,10.64,8l1.78-.8c-2.31-2.19-4.85-4.11-7.18-6.28l-1.65.9c3,1.31,5.42,3.49,8.08,5.39.48.33,2.16-.19,1.65-.9-2-2.78-4.29-5.3-6.28-8.08l-1.65.9c3.35,2,5.62,5.19,9,7.18.49.28,2.17-.16,1.66-.9a26.86,26.86,0,0,0-4.49-4.49c-.54-.48-2.39.2-1.79.79l5.39,5.39c.42.43,2.09.12,1.86-.66-.45-1.51-.23-3.08-.9-4.48l-1.86.65a48.68,48.68,0,0,0,6.42,4.6c.6.38,2.36-.46,1.52-1a46,46,0,0,1-6.15-4.38c-.41-.37-2.21-.08-1.86.65.66,1.41.45,3,.9,4.49l1.85-.65-5.38-5.39-1.79.79a26.86,26.86,0,0,1,4.49,4.49l1.65-.9c-3.35-2-5.62-5.19-9-7.18-.47-.28-2.17.17-1.65.9,2,2.78,4.3,5.3,6.29,8.08l1.65-.9c-2.66-1.89-5.07-4.07-8.08-5.38-.43-.19-2.33.27-1.65.89,2.33,2.17,4.87,4.09,7.18,6.29.54.51,2.37-.23,1.78-.8a49.76,49.76,0,0,0-10.9-8.18c-.62-.33-2.39.52-1.52,1,3.94,2.21,7.22,5.32,10.77,8.08l1.52-1c-4.36-2.76-8.21-6.22-12.57-9-.47-.3-2.26.31-1.65.9,2.78,2.69,5.79,5.06,7.11,8.84l1.72-.76c-3.26-2.35-6.76-4.35-9.74-7.08-.53-.49-2.38.2-1.78.79l7.18,7.19,1.65-.9a85.09,85.09,0,0,1-10.77-7.18l-1.52,1c3.45,2.44,7.47,4.26,9.74,8l1.47-1a16.59,16.59,0,0,1-11.28-8.67l-1.73.76a58.42,58.42,0,0,1,7,6.18l1.65-.9a22,22,0,0,1-7-4.38l-1.66.9c2.46,1.74,4,3.23,5.18,6l1.73-.76a48.5,48.5,0,0,1-6.15-5.28c-.53-.53-2.37.2-1.79.79A38.67,38.67,0,0,1,94,131.57l1.78-.8-5.38-5.38c-.5-.5-2.35.11-1.78.79,1,1.16,1.73,2.43,2.69,3.59l1.65-.9c-1.62-1-3.61-2.35-4.28-4.24-.27-.76-2.19-.21-1.93.52Z"/><path class="cls-2" d="M82,234.23c4,.88,7.63,3.91,11.45,5.34.53.19,1.74-.17,1.52-.93-1.1-3.87-2.74-7-6.69-8.48-.65-.24-2.2.56-1.3,1.23,3.11,2.31,5.59,5.24,9,7.18.71.41,2.43-.45,1.48-1.13a67.15,67.15,0,0,1-7.94-7.05c-.6-.59-2.43.05-1.76.86,3.47,4.22,8.08,7.2,12.71,10,.62.38,1.79,0,1.7-.83-.48-4.88-4.21-8-8.3-10.18-.54-.29-2.37.25-1.62,1,3,3,6.07,6,10.2,7.42.61.21,1.91-.28,1.44-1.09-2.18-3.76-5.32-6.2-9.12-8.22-.71-.38-2.36.3-1.48,1.13,3.7,3.52,8,6.36,11.67,9.88.5.47,1.92-.06,1.7-.83a14.62,14.62,0,0,0-10.28-10.28c-.52-.14-2.07.31-1.44,1.1,3.28,4.1,7.7,7.9,13.12,8.36.5.05,1.75-.44,1.21-1.14a28.88,28.88,0,0,0-7.32-6.43c-.6-.4-2.16.13-1.63,1a14.39,14.39,0,0,0,11.33,6.57c.6.05,1.37-.27,1.3-1-.52-5.27-4.87-8.29-9.39-10.29-.51-.22-1.76.19-1.52.93a15.86,15.86,0,0,0,10.29,10.28c.61.18,1.61-.13,1.52-.92-.52-4.3-3.62-7.13-7.6-8.49-.69-.23-2.11.48-1.29,1.23a48,48,0,0,0,11,7.28c.62.32,1.86-.34,1.43-1.1-2-3.49-4.68-5.48-8.22-7.31-.55-.28-2.3.15-1.62,1,2.44,3.08,5.85,4.77,9.3,6.51.5.25,1.78-.21,1.52-.92-1-2.81-2.12-4.59-4.9-5.79-.57-.25-2,.33-1.43,1.09,2,2.9,4.28,4.51,7.9,4.78.45,0,1.48-.19,1.48-.78v-3.6c0-1-2-.76-2,.14v.9a.56.56,0,0,0,.5.65c1.87.42,1.85-.29,3.38-1,1.19-.58.09-1.66-.9-1.18-.12.06-1.15.81-1.15.52,0-1-1.83-.76-1.83.14v3.59c0-.26.72-.52,1.16-.78-3.23-.25-4.9-1.66-6.7-4.21-.48.37-1,.73-1.48,1.1,2.54,1.1,3.21,2.62,4.06,5l1.51-.93c-3.24-1.63-6.35-3.15-8.65-6l-1.63,1c3.37,1.75,6,3.67,7.94,7l1.44-1.1a46.65,46.65,0,0,1-10.59-7.08l-1.3,1.23c3.62,1.24,6.3,3.74,6.77,7.67l1.52-.92a14.59,14.59,0,0,1-9.46-9.47l-1.52.92c4.18,1.85,8.08,4.58,8.57,9.47l1.29-1a12.9,12.9,0,0,1-10.22-6l-1.62,1a27.58,27.58,0,0,1,7,6.15l1.21-1.15c-5-.43-9-4-12-7.79l-1.43,1.09a13.36,13.36,0,0,1,9.46,9.47l1.71-.82c-3.7-3.52-8-6.36-11.67-9.88l-1.48,1.13c3.66,1.95,6.72,4.3,8.83,7.95l1.44-1.1c-3.88-1.31-6.71-4.12-9.55-7l-1.62,1c3.87,2.09,7.4,4.92,7.85,9.57l1.71-.83c-4.51-2.74-9-5.62-12.43-9.74l-1.76.86a67.93,67.93,0,0,0,8.22,7.32l1.48-1.13c-3.38-1.95-5.87-4.88-9-7.18l-1.29,1.23c3.55,1.28,4.91,4.28,5.87,7.67l1.52-.92c-4-1.49-7.73-4.52-11.9-5.44-1-.21-1.94,1.15-.66,1.43Z"/><path class="cls-2" d="M105.49,274.22c-.87,9.92,1.85,19.58,3.14,29.35,1.43,11,.27,22,.2,33l1.93-.52c-1.41-22.77-11.05-46.89-1.13-69l-1.91.42c-1.27,9.66-3.21,19.19-3.35,29,0,.32,1.93.05,1.94-.52.13-9.77,2.07-19.31,3.34-29,0-.33-1.75.05-1.92.42-10,22.15-.31,46.34,1.1,69.17,0,.36,1.93,0,1.93-.52.07-10.41,1-20.81,0-31.19s-4.26-20.62-3.34-31.2c0-.27-1.88-.06-1.93.52Z"/><path class="cls-2" d="M108.92,337.52a10.92,10.92,0,0,0-1.61,1.5,5.56,5.56,0,0,0-.71,3.16c0,.12.28.15.35.16a5.52,5.52,0,0,1,1.76.58,8,8,0,0,0,2.69.53c.41,0,1.54-.13,1.59-.68s1.56-2.87,1.06-3.42c-.85-.91-1.15-2.17-2.52-2.3-.44-.05-2.23.73-1.24.83a3.43,3.43,0,0,1,1.8,2.58c-.24,1-.94,1.77-1,2.83l1.58-.67c-1.6-.05-2.9-1-4.45-1.12l.34.16a4.8,4.8,0,0,1,.72-3,13,13,0,0,1,1.42-1.26c.33-.32-.28-.38-.46-.36a2.06,2.06,0,0,0-1.29.47Z"/><path class="cls-2" d="M105.53,342.91c-3.36,10.9-2.34,22.37-2.28,33.61,0,.94,1.36.76,1.79.24,4.25-5.07,3.28-13.12,5.43-19.12l-2.15-.06V371c0,1.05,2.2.78,2.21-.13a24.67,24.67,0,0,1,1.38-7.61c-.64,0-1.59,0-1.59-.06v10c0,1,1.36.71,1.71.06a53.48,53.48,0,0,0,3.25-6.68l-2-.07a56,56,0,0,1-1.14,12.26l1.95-.13c.34-12.22,7.25-23.6,3.32-35.85-.29-.92-2.23-.39-1.93.52,3.88,12.11-3,23.39-3.36,35.46,0,1.09,1.77.72,2-.13a55.41,55.41,0,0,0,1.11-12.26c0-1-1.63-.8-1.91-.06A52.17,52.17,0,0,1,110.2,373l2.12.06V363c0-1-1.89-.83-2.12-.06a26.35,26.35,0,0,0-1.51,8,15.45,15.45,0,0,0,1.63-.13V357.45c0-1-1.41-.81-1.68-.06-2.1,5.83-1.26,13.89-5.34,18.76l1.85.24c-.05-11.07-1.11-22.49,2.2-33.23.34-1.09-1.56-1.12-1.82-.25Z"/></svg>