<svg id="layer1" xmlns="http://www.w3.org/2000/svg" viewBox="0 0 262.78 152.77"><defs><style>.cls-1{fill:#ff6a1f;}.cls-2{fill:#ffd939;}.cls-3{fill:#fff0b3;}.cls-4{fill:#fc7f2b;}.cls-5{fill:#fff;}.cls-6{fill:#382006;}</style></defs><path class="cls-1" d="M170.12,34.57c-1.82-2.11-5.13-3.13-7.55-4.33A129.32,129.32,0,0,1,142.65,19c-5.43-4.22-15.09-10-14.17,1.49.3,2.72,1.51,6,0,8.43s-4.82,4.22-6.63,6.34c-5.42,6.33-5.11,13.87-3.9,21.71h0c2.11-.6,4.52-3,6.63-4.23,4.22-2.12,7.53-5.44,11.45-8.16a61.66,61.66,0,0,1,21.36-9.37,51.07,51.07,0,0,1,11.71-.92v.78h-.5Z"/><path class="cls-1" d="M170.81,126c-6.64-.3-13-.59-19.31-2.09a64.23,64.23,0,0,1-13-3.91c-1.2-.6-3.92-2.71-5.13-1.5-1.2.9-.29,4.52-.29,5.73,0,1.81-.3,3.31,1.21,3.62s4.52-2.12,5.73-2.72c.6,3.61.91,6.63-.9,9.95-1.2,2.72-5.12,7.55-.89,9.65,3.62,1.51,8.14-2.72,10.85-5.14a64.21,64.21,0,0,1,9.94-7.85c3.62-2.41,7.54-3.93,11.46-5.74a1.13,1.13,0,0,1-.3.91Z"/><path class="cls-1" d="M113.19,110.09c-5.73-2.1-15.08-.28-20.51,1.83-2.11.91-6,2.42-7.24-.59-1.21-2.71,2.41-4.83,3.92-6.64,3.91-4.23.29-13.57,8.73-9.66a31.32,31.32,0,0,1,14.8,14.46Z"/><path class="cls-2" d="M40,53.76C44,56,52.25,62.12,55.88,64.4c6.51,3.8,13.75,6.83,21,7.58,4.34.76,13,0,18.45-2.23,14.09-5.08,14.7-8.24,24-16.09,14-13.74,31.68-26.5,51.27-18.68,22.39,8.8,38.28,31.89,58.81,43.63,3.08,2.47,7.32,3.52,7.45,6.3h-5.6c.94,2,5.47,2.67,5.6,4.9,0,0-8.38,5.89-12.11,8.84a95.16,95.16,0,0,1-27.95,20.61C172.57,131.05,139.35,129.64,117,114c-9.33-6.85-15.26-17.62-26.31-19.19-4.81-1.61-16,2.58-20.73,4.58-10.83,4.57-15.87,5.51-21.65,10.84-4.34,4.57-3.76,8.6-4.34-2.27C43.15,93.22,54.19,88,61,85.69,47.1,81.68,33.67,70.15,40,53.76Z"/><path class="cls-3" d="M236.76,84.46c-.78-3.91-7-5.53-9.9-7.35-4.16-2.6-7.55-5.76-11.2-8.88-2.87-2.86-6-6.51-9.9-8.33-7.29-3.38-11.45,6.25-13.52,11.72-2.6,6.77-4.16,13.79-2.59,21.08,1.57,9.37,7.57,16.13,14.34,22.63,2.87-1.83,4.95-4.43,7.54-6.26s5.47-3.39,8.07-4.95c5.46-3.91,10.66-8.86,15.87-13,3.38-2.61-1.31-3.25-3.13-6.11,1.3-.26,2.86.13,4.16.13H236Z"/><path class="cls-4" d="M192.73,51c-1,.78-2.6.79-3.38,1.31-1.56,1-1.82,3.12-2.6,4.69-1.56,2.34-2.34,5.2-3.63,7.81-1,2.86-.78,6-2.34,8.85-1,2.09-.51,7.29-3.9,7.29-4.94-.25-.78-4.68-.52-6.76.26-1.31-.26-2.35.25-3.91.52-1.3,1.3-1.82,1.3-3.64-.26-1.3-1-2.35-.26-3.39s2.34-1,2.86-2.34-.26-2.35,1-3.39c1.3-1.3,2.34-.78,2.86-2.87.78-1.82,0-1.3,1.56-2.6,1.56-1,2.34-1,1.81-3.38a5.67,5.67,0,0,1,4.43,1.81Z"/><path class="cls-4" d="M167.76,68.11s-.78,3.85-1,5.15a18,18,0,0,0,.79,8.3c1.05,3.38,2.09,6.22,1.31,9.61-1.29,3.65,1.05,5.46,1.06,9.1a31.29,31.29,0,0,0,0,4.94c0,1.05.53,1.82.53,2.87-2.87-1.56-6-3.38-5.22-7a6.21,6.21,0,0,0,.78-2.34c-.26-.78-1.3-1.3-1.56-2.34-.27-1.56.78-2.61.25-4.17-.26-.78-1-1.56-1.3-2.34,0-1,.78-1.56.78-2.61.26-1.56-.53-2.6-.27-4.16.26-.78.78-1,.78-2.08,0-.78-.78-1.56-.78-2.35,0-1.3,1-1.82,1-3.12,0-.78-.52-1.56-.52-2.34.26-.78,1-1.5,1.3-2.28.52-.79,1.56-2.81,1.56-2.81Z"/><path class="cls-4" d="M166.16,34.78c-2.86,1.57-3.64,2.55-5.19,5.68-1.05,2.6-.52,3.61,0,6.22.79,3.64-.52,3.89-2.85,6.23A8.44,8.44,0,0,0,155,58.64c-.51,2.34-1.29,2.6-2.85,4.42s-1,3.13-.52,5.21a4.7,4.7,0,0,1,.79,3.12c-.52,1.3-1.83,1.56-2.34,2.6-1.3,2.09,0,4.17.26,6.25.52,2.08-.25,3.91.79,6-2.61-3.64-4.17-6-3.92-10.41,0-2.86-.26-5.21.78-8.07.51-1,1.3-3.39.25-4.69-1-1.56-2.08-.25-2.34,1.31s-.26,2.86-.51,4.42a7.16,7.16,0,0,0-.52,3.38c0-2.86,0-6.24-.27-9.1,0-1.83-.79-2.09-1.83-3.39-1-2.08.26-1.82.26-3.64,0-1.31-1.05-2.34-.78-3.65.51-1.3,1.56-1.82,1.81-3.38,0-.78-.26-1.3,0-1.83s1.3-.52,1.56-1c1-1.83-1-2.61-2.09-4.17.53-.52,1.83-.26,2.35-.78.26-.26-.26-1,0-1.3.52-1,2.07-3.65,1.81-4.43A24.7,24.7,0,0,1,156,33.23c2.34-.26,7.29-1.12,9.11.88h-.52Z"/><path class="cls-4" d="M134.18,64.64c.26,3.38-3.9,4.69-3.12,8.07.26,1.3,1.31,2.34,1.57,3.38.52,1.82-.26,2.35-1.3,3.91-.78,2.08-.52,2.34.26,4.16.53,1.83.79,1-.51,2.61-2.87,3.13-.78,6-1.82,9.37-1,2.86-.25,6,1.31,8.59a70.09,70.09,0,0,0-4.17-7.54c-.26-.78-1.83-1.83-2.09-2.61-.52-1.56.26-.26.26-1.3a3.93,3.93,0,0,0,.52-2.08c-.26-1-1-2.08-1.3-3.39-.53-2.07.78-2.86.51-4.68-.26-1.3-.78-1.82-.78-3.12.26-1,1-1.82,1-2.61.52-2.6-1-3.38.78-5.46,1-1.31,1.56-1.31,1.55-2.87,0-1.3-1.3-2.6-1.3-3.64.25-1.82,2.86-4.17,3.37-6,.52-1.57,1.3-1.83,2.08-3.39.78-1.3,0-2.34.52-3.64.78-1.31,2.34-1.57,3.12-2.87a18.31,18.31,0,0,1,.78-3.65c.26,3.65-.77,6.51-1,9.9-.26,2.34.26,4.68.26,7Z"/><path class="cls-4" d="M154.51,99.5c.27,2.08-1.29,4.69-.51,6.77,1.05,3.12,4.43,2.86,3.39,6.76-.77,3.39,1.05,3.65,2.87,6.51.79,1.82,0,2.34.79,3.9.52,1.3,1.82,2.08,2.09,3.64-4.71-.24-7.51.35-10.94-.51a60.84,60.84,0,0,0-6.51-1.55c-2.08,0-5.47.26-6.77-1.82-.78-1,0-2.08.26-3.64.26-1,1-2.08,1.3-2.87.26-1.56-1-1.82-1.31-3.12-.26-1.82.26-.52,1-1.82.52-1.3.26-1.56,0-3.64-.79-2.87,1.3-4.17,1.55-7,0-2.86-.52-5.46-.27-8.32,0-1.31.26-2.35.26-3.91-.26-1.56-.53-2.86.26-4.43a17,17,0,0,1,1.31,7c.26,1.82,1,3.39,1,5,.27,1.82-.52,3.38,0,5.2.52,1.56,1.82,2.08,1.3,3.65-.78,1.82-1.82,1.82-1,4.16.52,1.3,1,3.64,1.56,4.95,2.35,4.16.78-3.39.78-4.69.26-1.82.26-3.91.51-5.47.52-2.08,1.56-3.38,1.3-5.46,1.57,1.29,1.31,6.24,1.57,8.06.52,2.87,2.87,3.9,2.61,6.77-.26,2.6.26,2.6,1.83,4.42.78,1.3,0,2.6.78,3.65a9.24,9.24,0,0,0,2.34,1c-2.08-2.61-1.82-2.61-1.82-5.73a13.5,13.5,0,0,0-.53-2.86,17,17,0,0,1-1-2.87c-1.05-3.12,0-7.29,0-10.67,0,.26-.26.26-.52.52Z"/><path class="cls-4" d="M108.41,72.21c5,3.38-1.55,4.69-.77,8.07.26.78,1.3,1.3,1.56,2.35.53,1.56-.25,2.34-.51,3.64-.52,2.86,1.82,3.38,1.3,5.73-.25,3.38-2.08,3.38,0,6.5,2.09,2.86,1,5.47-2.34,2.61-2.34-1.82-1.3-4.68-2.35-7.29-.78-2.6-1.83-4.94-2.09-7.81s-.53-5.46,1.56-7.54c1.56-1.83,3.11-3.13,3.63-5.74Z"/><path class="cls-4" d="M94.36,78c.78,1-1,1.3-1.82,2.08-1.82,1.56-.52,1.3-.25,3.12,0,2.09-1,3.13,0,5.21a28.3,28.3,0,0,0,1.57,2.86c-5.73-3.12-7.31-12,.24-13.27a.75.75,0,0,0-.52.26Z"/><path class="cls-4" d="M82.9,73.8c-.51.78-2.08.79-2.6,1.56-1.56,2.09.79,1.83.79,3.65,0,1.3-1.56,1.56-1.56,3.12,0,.79.78,1.57,1,2.35.52,1,.26,2.34.79,3.38-.53-3.12-4.43-5.2-3.92-8.85.52-2.86,1.82-3.9.52-6.51a8.5,8.5,0,0,1,4.42,0c0,.26-.26.26-.52.26Z"/><path class="cls-1" d="M73.34,70.93C71.23,73,66.1,70,64,68.83a110.11,110.11,0,0,1-17.2-10.54c-2.42-1.51-4.53-3-6.95-4.52-.9,2.11-.9,5.13-.89,7.24A16.36,16.36,0,0,0,41.37,71c4.23,6.93,11.47,11.45,18.71,14.46-5.72,3-12.36,5.74-15.07,12.38-1.5,3.62-2.09,12.67-.58,16.59,2.11.3,2.41-2.42,3.31-3.93a18.45,18.45,0,0,1,4.52-3.92c3-1.82,6.64-2.42,10-3.33,5.73-1.82,11.46-5.44,17.19-7.56-2.12,0-5.43,0-7.24-.59-4.22-.9.08-2.72,1-4.83-1.21-.3-4-1.81-2-3.32v-.3c-2-.6-1.6-1.5-1.9-2.71-.3-2.11.56-2.71.56-4.23,0-3.31-6.35-2.4-7-6,2.11-.3,3.91,1.81,6,1.5-1.51-2.71-3-3,.9-3.31a7.18,7.18,0,0,0,3.61-.61Z"/><path class="cls-1" d="M191,100.36c-2.11-.3-4.22,3-5.42,4.23a15.3,15.3,0,0,0-3.31,6.64c-.6,2.11-.6,4.83-2.11,6.34-2.71,3-10.25,1.21-11.76-2.4-2.42-5.13,5.72-7.85,9-8.76,4.23-1.51,8.45-5.14,12.67-5.74Z"/><path class="cls-5" d="M213.9,73.3c.92.38,1.53,2.31,1.53,3.86,0,3.87-2.81,7.37-5.48,6.34-12.51-4.79,0-15.38,4.26-9.82Z"/><path class="cls-6" d="M213,73.67c1.5,1,1.55,3.33,1.37,4.89s-1.51,5.12-3.65,4.49c-2.31-.67-4.84-2.48-5.2-5-.55-3.89,5.09-7.25,7.79-4,.39.48,2.24-.17,1.8-.74l-.31-.38c-.38-.49-2.24.17-1.8.74.11.12.21.25.31.38l1.8-.74c-3.66-4.4-12.24.21-11.48,5.57.46,3.21,5.47,6.19,8.46,5.05A6.84,6.84,0,0,0,216,79.51c.68-1.91.71-5.34-1.21-6.58C214.25,72.57,212.52,73.35,213,73.67Z"/><path class="cls-6" d="M212.06,74.77c1.44,0,2.76,4.88-1.2,4.63C207.57,79.18,208.46,74.77,212.06,74.77Z"/><path class="cls-6" d="M39.17,54.21c7.06,4.09,13.27,9.41,20.55,13.12A46.78,46.78,0,0,0,85.55,72.5C102.34,70.93,113.16,60,124.9,49.27c9.45-8.6,20.9-16.22,34.12-16.15,11.47.06,22.3,7.73,30.93,14.53,8,6.29,15.26,13.46,23,20.06a124.68,124.68,0,0,0,11.85,9c3.07,2,10.2,4.7,11.1,8.47l1.35-.77h-5.59c-.31,0-1.7.32-1.29.88,1.22,1.65,3.19,2.27,4.8,3.47,1.77,1.3-.79,2.15-1.91,3A88.29,88.29,0,0,0,221.57,101a87.94,87.94,0,0,1-37.18,22.49c-26,7.61-55.75,1.7-75-17.54-6-6-13.34-13-22.57-12-10.16,1.12-20.1,6-29.42,9.93a35.17,35.17,0,0,0-9.86,6.16,17.59,17.59,0,0,0-2.73,3.51c-1.19,1.78.35-.2.55.53a16.34,16.34,0,0,1-.26-3.35c-.34-6.35,0-11.86,4-17,3-3.89,7.74-6.1,12.26-7.68.22-.08,1-.63.41-.8C47.55,80.9,35.38,69.43,40.91,53.63c.21-.6-1.71-.34-1.93.27-3.72,10.64.27,20,9.14,26.52A38.8,38.8,0,0,0,54,83.81c1.2.58,2.45,1,3.7,1.52.88.33,3,0,1.4.55a31.48,31.48,0,0,0-9.47,5.44C43.16,96.76,41.32,107,43.46,115c.25.9,1.75.22,2.16-.12a11.34,11.34,0,0,0,1.74-2.47,21.4,21.4,0,0,1,7-5.91c4.93-2.9,10.7-4.55,16-6.74,5.7-2.37,12.61-5.42,18.9-4.66,12.43,1.51,19.51,14.54,29.31,20.9,19.18,12.45,44.45,14.3,66.14,8.39,10.8-2.94,20.75-8.54,29.6-15.31,4.89-3.74,8.89-8.5,13.8-12.18,3.16-2.37,6.38-4.66,9.61-6.93.1-.07.24-.24.2-.39-.82-2.64-4.12-2.91-5.67-5l-1.28.88h5.59c.33,0,1.48-.23,1.35-.77-.74-3.12-5.15-5-7.64-6.49a106.17,106.17,0,0,1-13.12-9.25c-7.91-6.4-15.16-13.56-23-20.08-7.35-6.15-15.32-11.55-24.34-14.9-8.47-3.14-17.62-1.93-25.82,1.32-17.63,7-27.39,25-44.46,32.38-11.75,5.11-23.2,5.15-35,.28C55.76,64.33,48.78,58,40.72,53.32,40.22,53,38.42,53.78,39.17,54.21Z"/><path class="cls-6" d="M199.67,59.3c-6.86,5.38-11.93,15.19-12.44,23.85-.52,9,1.67,20.4,8.69,26.62.47.41,2.26-.32,1.81-.72-6.52-5.77-8.31-15.55-8.59-23.86-.32-9.27,4.74-19.94,12.05-25.67.84-.66-1.09-.56-1.52-.22Z"/><path class="cls-6" d="M189.16,100a35.66,35.66,0,0,0-7.64,9,15.64,15.64,0,0,0-1.59,5.53,13.23,13.23,0,0,1-.8,3c-.79,1.89-4.84.43-6.34,0-1.83-.55-6-1.63-5-4.38,1.16-3.33,7.3-5.23,10.21-6.6,4.28-2,9.29-3.9,13-6.84l-1.57-.56-.51,1.2c-.44,1,1.51,1,1.85.23l.51-1.21c.4-.93-1.1-.92-1.56-.55-5.83,4.61-13.82,6.51-20.1,10.49-4.32,2.73-5.38,6.25-.44,8.61,2.7,1.29,9.27,3.88,11.46.44,1.58-2.47,1.24-5.64,2.34-8.31,1.4-3.44,4.69-6.8,7.5-9.14C191.45,100.05,189.91,99.38,189.16,100Z"/><path class="cls-6" d="M169.4,126.16c-7.89,1.47-15.54,8.13-21.73,12.92A39.76,39.76,0,0,1,144,141.6l-1.33.71q-4.43,3.18-5.51-2.2c.77-1.23,1.84-2.27,2.56-3.53,2.05-3.56,1.91-8.41,1-12.31-.11-.49-.76-.54-1.15-.45-1.59.38-2.74,1.53-4,2.56-2.18,1.8-2.22-4.15-2.68-5s-2.26-.06-1.76.88c.66,1.25-1,6.52,1.86,6.63,3.08.12,4.19-3,6.93-3.62l-1.16-.46a19.57,19.57,0,0,1-.56,10.83c-.72,2-2.82,3.7-3.78,5.71-1.46,3,2.56,3.5,4.49,3.55,5,.11,9.85-4.78,13.5-7.56,5-3.76,11.1-8.58,17.27-9.74,1.23-.23.82-1.65-.38-1.42Z"/><path class="cls-6" d="M111.48,109.08c-7.24-1.1-13.26.45-20.22,2.49-1.75.51-5.75,0-3.67-2.44,1-1.19,2.15-2.26,3.17-3.44,2.32-2.68,1.89-6.94,3.06-10.09.4-1.08-1.54-1.12-1.86-.26a31.53,31.53,0,0,0-1.41,6.33c-.47,3-2.69,4.77-4.6,6.83-1.33,1.45-2.64,3.46-.56,4.86,1.83,1.24,5.37-.14,7.16-.66,6.11-1.78,11.9-3.12,18.28-2.15,1,.16,2-1.27.65-1.47Z"/><path class="cls-6" d="M176.19,36.59A211.12,211.12,0,0,1,145.37,19.4C141.69,17,134.05,10,129,12.62c-1.62.84-2.14,2.63-2.12,4.36.06,6.19,1.8,10.43-3,15.52-3,3.13-5.67,5.37-7.49,9.4-1.9,4.24-1.39,9.06-.12,13.36.16.53,2.08,0,1.93-.51-2.5-8.47-.16-15.48,6.35-21.3,2.41-2.16,4.22-4.44,4.9-7.65s-.84-7-.53-10.42c.49-5.37,9.83,1.58,11.62,2.72,3.59,2.27,7.08,4.68,10.65,7A172.47,172.47,0,0,0,174.62,37.4c.47.21,2.24-.52,1.57-.81Z"/><path class="cls-6" d="M161.43,127c-7.73,6.44-15.36,12.32-24.49,16.77-.6.29-.06.81.43.57,9.17-4.47,16.92-10.42,24.7-16.9.5-.42-.27-.75-.64-.44Z"/><path class="cls-6" d="M157.55,127.41c-5.62,6.76-14.89,9.91-22.18,14.48-.41.26.56.15.74,0,7.32-4.59,16.67-7.79,22.31-14.58.21-.25-.72-.12-.87.06Z"/><path class="cls-6" d="M155.07,126.73c-1.91.6-3.34,2.07-4.78,3.41a29.25,29.25,0,0,1-11.66,6.66c-.59.19-.42.83.17.65a30.81,30.81,0,0,0,7.82-3.42c2.79-1.83,5.45-5.66,8.63-6.65.58-.19.42-.84-.18-.65Z"/><path class="cls-6" d="M150.85,126.78A30,30,0,0,1,140,133.36c-.63.24-.07.67.4.48A30.77,30.77,0,0,0,151.64,127c.42-.41-.52-.48-.79-.22Z"/><path class="cls-6" d="M146.4,126c-1.28,1.65-2.91,5.17-5.38,5-.23,0-1.11.41-.61.44,3.41.18,5.08-3.21,6.87-5.52.22-.29-.73-.16-.88,0Z"/><path class="cls-6" d="M143.45,125.47c-1.28,1.07-2,3-3.51,3.74-.6.28-.06.8.43.57,1.7-.8,2.34-2.71,3.72-3.87.5-.42-.27-.75-.64-.44Z"/><path class="cls-6" d="M136.64,123.93c-.81,1.21-1,2.69-2,3.8-.27.3.7.23.9,0,1-1.1,1.17-2.58,2-3.79.24-.36-.72-.26-.89,0Z"/><path class="cls-6" d="M134.37,123.12c-.28,1.5-.51,3.54-1.85,4.48-.54.38.29.51.6.29,1.57-1.1,1.89-3.12,2.22-4.89.07-.37-.9-.21-1,.12Z"/><path class="cls-6" d="M109.39,107A30.17,30.17,0,0,0,100,108c-4.67,1.51-9.13,3.49-14.14,3.47-.38,0-1,.57-.37.57a29.1,29.1,0,0,0,8.95-1.57c5-1.54,9.24-2.93,14.56-3,.38,0,1-.58.37-.58Z"/><path class="cls-6" d="M107.45,105.26c-7.56,0-13.57,4.25-21,5-.45,0-.82.56-.14.49,7.26-.75,13.41-5,20.76-5,.33,0,1-.51.39-.51Z"/><path class="cls-6" d="M105,102.73c-5.06,3.07-11.23,3.36-16.76,5.19-.56.18-.44.69.14.5,5.7-1.89,12-2.21,17.22-5.39.56-.34-.28-.49-.6-.3Z"/><path class="cls-6" d="M102.51,101.05c-2.32,1.29-4.43,3.14-7.1,3.7-1.72.37-3.48.46-5.19.91-.57.15-.48.48.09.33,2.19-.57,4.53-.53,6.67-1.27s4.07-2.39,6.09-3.52c.57-.31-.32-.29-.56-.15Z"/><path class="cls-6" d="M99.62,99c-1.44,1.27-2.24,3.25-4.21,3.81-1.55.44-3.21.32-4.74.86-.64.23-.06.59.39.43,1.76-.62,3.69-.42,5.45-1.09s2.59-2.68,3.89-3.83c.42-.38-.54-.4-.78-.18Z"/><path class="cls-6" d="M97.33,97.33c-1.67,1.81-3.22,4.92-5.88,5.32-.45.07-.82.59-.15.49,3.26-.49,4.88-3.61,6.92-5.82.26-.28-.7-.2-.89,0Z"/><path class="cls-6" d="M94.61,96.1a5.48,5.48,0,0,0-1.28,2.15c-.19.47-.68,2.38-1.33,2.42-.31,0-1,.52-.4.48,2.59-.18,2.23-3.53,3.77-4.94.39-.37-.57-.29-.76-.11Z"/><path class="cls-6" d="M189.09,100.56c-3.37.41-5.67,3.16-7.88,5.51-3.5,3.72-7.49,6.72-8.42,12.09,0,.08.92,0,1-.26.7-4.07,3.36-7.17,6.22-10,2.16-2.13,5.55-6.61,8.69-7,.23,0,1.05-.43.42-.36Z"/><path class="cls-6" d="M175.81,118.48c0-3.54,2.95-8.37,5.43-10.73,2.64-2.53,5.31-5,8-7.46.21-.18-.7-.08-.87.07-5,4.44-13.61,10.83-13.57,18.37,0,.16,1,0,1-.25Z"/><path class="cls-6" d="M177.69,119.33c2.05-2.92,1.66-6.46,3.61-9.48a46.26,46.26,0,0,1,8-9c.42-.37-.54-.37-.78-.16a59.22,59.22,0,0,0-7.05,7.71,19.53,19.53,0,0,0-2.51,4.15c-1,2.32-.56,4.54-2.14,6.79-.25.37.72.28.9,0Z"/><path class="cls-6" d="M169.65,116.68c.18-4.05,4.46-6.91,7.47-9s6.07-3.65,9.16-5.37c.57-.32-.28-.47-.6-.29A94.58,94.58,0,0,0,175,108.47c-2.69,2-6.17,4.66-6.32,8.33,0,.4.95.2,1-.12Z"/><path class="cls-6" d="M172.11,117.33c-.52-7.4,10.69-11.83,15.48-15.66.41-.33-.55-.26-.76-.1-4.86,3.89-16.22,8.39-15.68,16,0,.25,1,.06,1-.26Z"/><path class="cls-6" d="M129.45,13.58c2.86-1.17,6.57,2.13,8.69,3.73A97.51,97.51,0,0,0,148,23.52c3.52,2.05,7.16,3.88,10.76,5.77,2.79,1.46,5.21,3.29,8.22,4.3.21.07,1.07-.28.8-.37-4.93-1.65-9.6-5-14.18-7.42-4.78-2.54-9.4-5.37-13.92-8.35-3.24-2.13-6.64-5.67-10.77-4-.58.24.34.2.56.11Z"/><path class="cls-6" d="M128.83,16.16c3.32-1.43,7.93,3,10.43,4.7a72.42,72.42,0,0,0,7.53,4.26c5.5,2.78,12.78,4.45,17.41,8.57.33.29,1.17-.19.75-.57a23.68,23.68,0,0,0-7.22-3.93c-4.52-1.8-8.95-4-13.28-6.21-4-2.05-7.51-4.92-11.25-7.4-1.74-1.15-3.11-.73-4.8,0-.61.26-.07.79.43.58Z"/><path class="cls-6" d="M127.61,18.53c6.79.39,12,4.65,17.71,7.79,2.46,1.35,5,2.51,7.57,3.64,1,.46,2.15.91,3.2,1.34.36.15,4.66.62,3.09.62-.42,0-1,.63-.36.63a5.23,5.23,0,0,0,.56,0c.29,0,1-.39.46-.61a116.43,116.43,0,0,1-18.21-8.68c-4.43-2.65-8.42-5.06-13.67-5.36-.42,0-1,.59-.35.63Z"/><path class="cls-6" d="M127.87,21.68c5.58.18,9.54,2.18,14.3,4.72,4.35,2.33,8.91,4.27,13.38,6.35.25.12,1.14-.26.78-.43-5.05-2.36-10.14-4.62-15.06-7.25-4.3-2.3-8.12-3.73-13-3.88-.33,0-1,.47-.39.49Z"/><path class="cls-6" d="M129,24.68c8.06.33,13.81,6.42,21.35,8.45.37.1,1.14-.44.57-.6-7.63-2.05-13.4-8.15-21.57-8.49-.43,0-1,.61-.35.64Z"/><path class="cls-6" d="M128.59,26.49c7.11-.27,12.91,5.15,19.27,7.56.43.16,1.13-.45.55-.67-6.52-2.48-12.41-7.91-19.74-7.63-.56,0-.74.76-.08.74Z"/><path class="cls-6" d="M128.24,28.47c1.21-1.47,15.74,5.08,16.35,7.14.1.32,1.06.06,1-.26-.25-.88-1.94-1.58-2.64-2a63.92,63.92,0,0,0-7.55-3.64c-1.59-.66-6.45-3.18-8-1.27-.26.32.71.24.9,0Z"/><path class="cls-6" d="M126.37,30.41a24.81,24.81,0,0,1,9.39,2.35c1.82.77,4.85,1.73,6,3.43.16.23,1-.16,1-.26-1.23-1.75-4.22-2.67-6.1-3.49A24.8,24.8,0,0,0,127,30c-.2,0-1.1.37-.63.38Z"/><path class="cls-6" d="M125,32.06c2.9-.19,5.57,1,8.19,2.07a24.46,24.46,0,0,1,6.53,3.4c.36.29,1.19-.22.74-.58-2.2-1.79-4.92-2.78-7.52-3.83s-5.1-2-7.86-1.81c-.56,0-.73.8-.08.75Z"/><path class="cls-6" d="M123,33.76c5-.15,10.55,2.26,14.38,5.44.3.24,1.2-.14.89-.4-4.08-3.38-9.81-5.83-15.16-5.66-.52,0-.77.64-.11.62Z"/><path class="cls-6" d="M121.63,36.16c4.74,0,9.73.8,13.6,3.71.36.26,1.2-.23.75-.57-4.07-3-9.3-3.82-14.27-3.87-.56,0-.73.72-.08.73Z"/><path class="cls-6" d="M119.67,38.16c4.8-.17,9.55,1.53,13.89,3.44.33.15,1.2-.32.75-.51-4.56-2-9.48-3.74-14.53-3.56-.52,0-.78.65-.11.63Z"/><path class="cls-6" d="M118.7,40.45c4,0,8.2.26,11.44,2.84.26.21,1.15-.17.9-.37-3.39-2.69-7.79-3-12-3-.34,0-1,.53-.38.53Z"/><path class="cls-6" d="M117,42a28.05,28.05,0,0,1,12.07,2.85c.34.17,1.2-.3.75-.52a28.85,28.85,0,0,0-12.47-3c-.43,0-1,.64-.35.65Z"/><path class="cls-6" d="M116.9,44c3.81,0,7.84,0,11.09,2.27.34.23,1.2-.23.75-.54-3.44-2.42-7.7-2.4-11.75-2.4-.54,0-.75.67-.09.67Z"/><path class="cls-6" d="M116.6,46.34c2.47-1.12,6.59.12,8.61,1.74.34.27,1.19-.22.75-.57-2.39-1.9-6.91-3-9.79-1.75-.6.27-.06.8.43.58Z"/><path class="cls-6" d="M116.19,48.09a7.61,7.61,0,0,1,6.51,1.13c.3.2,1.18-.23.76-.5a8.68,8.68,0,0,0-7.42-1.2c-.57.2-.43.77.15.57Z"/><path class="cls-6" d="M116.76,49.52c1.52,0,3.54-.05,4.48,1.39.15.24,1.09-.06.9-.36-1-1.57-3.34-1.53-5-1.53-.32,0-1,.5-.38.5Z"/><path class="cls-6" d="M116.89,51.3a3.64,3.64,0,0,1,3.24,1.09c.24.24,1.16-.12.89-.39a4.52,4.52,0,0,0-4-1.25c-.47.09-.8.67-.13.55Z"/><path class="cls-6" d="M117.34,52.83a1.72,1.72,0,0,1,1.12.45c.31.3,1.22-.1.89-.41a2.55,2.55,0,0,0-1.67-.72.67.67,0,0,0-.63.29c-.1.21.09.38.29.39Z"/><path class="cls-6" d="M75.34,71.59c-2.81.24-5.61.45-8.44.5-.21,0-.69.06-.79.28l-.24.5s0,0,0,.07,3,2,1.17,1.72a33.27,33.27,0,0,1-3.88-1.06c-.12,0-1,.11-.88.31,1.21,2.87,5.15,2.7,7,5,1.19,1.46-1,3.09-1.54,4.42-.63,1.67,3.31,1.57,1,3.7,0,0-.06.08,0,.13,1.1.93,2.92,4.92,2,5.56-.29.22-2.29,1.82-1.09,2.43,2.16,1.09,6.35.52,8.69.52.2,0,1.1-.39.63-.39-1,0-1.91-.27-2.92-.22-1.18,0-2.36.13-3.55.14-1.85-1.07-2.15-1.93-.89-2.56a5,5,0,0,0,1.11-.94c.85-.83-.37-1.54-1-1.79-1.53-.63-1.46-2.49-1.35-3.74.16-1.86-2.35-2.8-.16-5,.79-.8.24-2.49-.49-3.09-1.57-1.26-3.52-1.8-5.24-2.8-1-.55-1.78-1.18.36-.57a13.32,13.32,0,0,0,4,.53c.09,0,.9-.14.8-.32a11.19,11.19,0,0,0-2.74-2.46c.22-.47,7.2-.41,8-.48.24,0,1.06-.43.42-.37Z"/><path class="cls-6" d="M73,71.51c-6.92-.4-13-3.2-18.78-6.77-4.59-2.82-10-6.26-13.76-10.1-.23-.23-1.15.12-.9.37,4.29,4.34,10.18,7.91,15.37,11.1A37.87,37.87,0,0,0,72.57,72c.35,0,1-.49.38-.53Z"/><path class="cls-6" d="M67,72.12C57.57,68.56,46.2,64.48,39.73,56.2c-.18-.23-1,.17-1,.26,6.5,8.32,17.85,12.4,27.37,16a1.33,1.33,0,0,0,.91-.32Z"/><path class="cls-6" d="M68.38,74.26c-3.55-2.82-8-3.57-12.27-4.88-5.4-1.66-13-5.57-16.65-10-.26-.32-1.19.05-.89.41,3.2,3.86,8.68,6.53,13.12,8.64,5.16,2.45,11.4,2.77,15.94,6.37.31.25,1.17-.2.75-.53Z"/><path class="cls-6" d="M63.17,73.57c-3.26-1.84-7.63-2.58-11.17-4-4.73-1.87-8.46-5.29-12.83-7.73-.24-.13-1.14.24-.78.43,3.94,2.19,7.36,5,11.41,7.08S58.66,71.89,62.39,74c.24.13,1.14-.23.78-.43Z"/><path class="cls-6" d="M64.28,75.33c-5.06-.59-10.16-2.67-14.77-4.75-3.23-1.45-7.47-3.18-10-5.68-.18-.18-1.06.18-.91.33,2.95,2.88,7.84,4.69,11.53,6.36a47.38,47.38,0,0,0,13.57,4.14c.21,0,1.11-.34.62-.4Z"/><path class="cls-6" d="M66.33,76.37C58,73.18,48.21,73.94,40.67,68.65c-.22-.14-1,.25-.92.32,7.54,5.28,17.34,4.52,25.67,7.72.26.1,1-.3.91-.32Z"/><path class="cls-6" d="M69.27,77.47a48.72,48.72,0,0,0-11.39-1.91,58.69,58.69,0,0,1-16.33-4c-.27-.1-1.16.31-.78.45,4.27,1.63,7.75,3,12.31,3.51,5.12.62,10.5.7,15.42,2.38.27.09,1.15-.32.77-.45Z"/><path class="cls-6" d="M70.31,78.83c-8-2.55-17.12-2.31-25.42-3.72-.24,0-1.08.34-.79.38,8.29,1.41,17.43,1.19,25.42,3.73.23.07,1.09-.3.79-.39Z"/><path class="cls-6" d="M69.73,79.7A119.7,119.7,0,0,1,57,79c-3.58-.26-7.48-.27-10.73-1.93-.34-.17-1.21.3-.76.53,3.07,1.56,6.59,1.72,10,2,4.71.35,9.4,1,14.13.82.52,0,.76-.67.1-.64Z"/><path class="cls-6" d="M68.68,81.27c-6,.11-12.8,2.1-18.33-1-.25-.14-1.15.24-.78.44,5.65,3.11,12.65,1.13,18.73,1,.33,0,1-.52.38-.5Z"/><path class="cls-6" d="M68.68,83.24c-4.17.12-9.17,2.26-13.05,0-.28-.17-1.17.24-.76.47,4.06,2.37,9.11.22,13.44.09.37,0,1-.58.37-.56Z"/><path class="cls-6" d="M69.61,84.74c-2.89,1-6,.5-9,.47-.41,0-1,.61-.36.62,3.16,0,6.46.5,9.52-.53.57-.2.43-.76-.15-.56Z"/><path class="cls-6" d="M70,86.64c-4.94,0-9.86.07-14.62,1.54-.59.18-.41.88.19.69,4.67-1.44,9.5-1.48,14.35-1.49.57,0,.74-.74.08-.74Z"/><path class="cls-6" d="M70.54,88.52c-3-1.18-6.49,0-9.45.81-4.89,1.27-9.43,2.18-13.56,5.29-.52.39.3.55.61.31,3.61-2.72,7.83-4,12.22-4.88,3-.57,6.37-2.25,9.42-1,.31.13,1.18-.32.76-.48Z"/><path class="cls-6" d="M70.35,89.37c-10.17.19-19.13,3.63-26,11.26-.41.46.52.61.81.29,6.66-7.4,15.27-10.66,25.1-10.84.55,0,.75-.72.09-.71Z"/><path class="cls-6" d="M72.62,90.8c-5.49,0-9.69.72-14.55,3.28-4.56,2.41-12.06,6.16-14.5,11-.08.16.83.09,1-.16,1.55-3.08,5.24-5,8-6.87,6-4.15,12.08-6.83,19.48-6.86.21,0,1.1-.41.63-.41Z"/><path class="cls-6" d="M72.06,91.58c-5,0-9.7,2-14,4.34a48.07,48.07,0,0,0-8.14,5.72c-2.33,2-4.09,5.43-6.64,7-.56.33.28.51.61.32C47,107,49.09,103.17,52,100.77c5.25-4.42,12.72-8.66,19.74-8.61.39,0,1-.58.37-.58Z"/><path class="cls-6" d="M70.81,92.25c-4.42.88-9,3.73-12.82,6.11-5.49,3.42-9.6,7.88-14.56,11.82-.44.34.53.37.77.17,3.94-3.12,7.35-6.66,11.48-9.62,4.34-3.1,9.92-6.92,15.27-8,.59-.11.44-.61-.14-.5Z"/><path class="cls-6" d="M69.32,94.25c-5.25,3.36-10.45,6.58-15.94,9.56-3.88,2.11-7.28,4.42-9.56,8.29-.07.11.81.06,1-.17,3-5,8-7.44,13-10,4.29-2.16,8.2-5.1,12.24-7.68.4-.26-.57-.13-.74,0Z"/><path class="cls-6" d="M76.27,95c-12.46,3.42-24.44,8.68-32.19,19.27-.29.4.69.37.91.08C52.54,104,64.32,98.86,76.42,95.54c.59-.16.44-.75-.15-.59Z"/><path class="cls-6" d="M195.44,55.19a3.09,3.09,0,0,0-2.43.68c-1.15,1.05.08,3.09-1.15,3.68-1.42.67-1,.37-2.06,1.45-.78.82.55,1.86-1.07,2.66-3.13,1.54,0,3.89-2.47,5.58,0,0-.12.08-.12.15.31,3.93-1.24,6.78-2.67,10.19-1.16,2.76-2.81,9.69.17,11.76.22.15,1-.24.91-.33-3.16-2.19-1.47-12.36,1.6-14.14,0,0,.14-.09.11-.14-1.36-2.37,1.45-1.77,1.28-3.58-.26-2.61-.33-3.8,1.26-5.77v0c-.77-1.82.67-3.59,2.34-4.28,0,0,.25-.12.2-.19q-2.28-2.09,2-3.28c.07,0,.65-.15.58-.3-.53-1.08-1.31-3.66.9-3.7.2,0,1.09-.4.63-.39Z"/><path class="cls-6" d="M191.31,49.84a7.59,7.59,0,0,0-4-1.4c-.22,0-.79.06-.78.37,0,2.08,1.27,2.52-.45,3a5.4,5.4,0,0,0-3.36,1.94c-.53.74.88,2.16.29,2.35-1.17.37-2.91.86-3.31,2.26s-.35.77-.18,2.27-1.55,2.12-2.55,3c-2.07,1.82,1.26,3.28.21,5.16-.62,1.09-2.66,1.93-1.59,3.54.93,1.39-.79,2.17-1.19,3-.78,1.66-.77,2.2.25,3.89.18.29,1.09,0,1-.26q-2.46-2.76,1.59-5.63c.09-.07.14-.14.07-.24-2.12-3.17.71-3.3,1.3-5.26a1.18,1.18,0,0,0-.29-1c-1.58-2.05.81-4.19,2.65-5.09.06,0,.25-.16.19-.25-1.59-2-.55-3.7,3.15-5,.12,0,.88-.19.64-.43l2.76-4c.16,0,.83-.15.64-.43q-2.36-3.36,2.08-1.43c.26.18,1.13-.21.9-.36Z"/><path class="cls-6" d="M164,71.45c-1.37,3.74-1.26,7.59-2.18,11.41a2.09,2.09,0,0,0,.52,2.22c1.24,1.67-.34,2.42-.34,4,0,1.81,2,2.75,1.62,5-.3,1.88.32,3.65-.11,5.57-.49,2.23,2.1,6.14,4.23,6.65.5.12,1-.59.32-.75-.8-.19-1.42-1.4-1.85-2.08-1.51-2.44-2.08-3.65-.83-6.42a.3.3,0,0,0,0-.29c-.77-1-1.94-9.05-1-9.83a.34.34,0,0,0,.11-.46c-.53-.81-1.07-1.59-1.65-2.37-.76-1,.91-3.86,1.26-4.92a1.4,1.4,0,0,0,.05-1.06c-.83-2.26,0-4.35.78-6.57.2-.54-.77-.57-.93-.13Z"/><path class="cls-6" d="M149.16,103.42c.17,1.18-.67,2.49-.47,3.8.13.92,2.62,3.67,2.49,4.38-.15.87-1.67,1.8-1.54,2.77.26,1.8,3.59,1.58,1.54,3-2.3,1.57,1.2,5,1.06,5.11-2.41,1.37,2.17,3.57,3,3.85.28.1,1.16-.32.77-.46-1.07-.36-5.14-2-2.22-3.65.15-.09.27-.26.09-.37-3.14-1.9-.76-3.12-.76-5.71a.17.17,0,0,0-.1-.1c-3.89-1.61-.26-3.54-1-6-.26-.92-1.88-2-2.4-3.08-.67-1.44.67-2.46.48-3.8,0-.32-1-.09-1,.26Z"/><path class="cls-6" d="M149.86,89.18c-1.44.74-3.08,1.74-3.6,3.41-.39,1.26-.77,2.26-.18,3.46,1.66,3.38-.31,1.75-.33,3.71,0,2.26-1,3.88-1.92,5.92-.44,1,1.56,4.45.52,5-.12.06-.35.2-.29.37.29.74.57,1.49.86,2.23.14.38.88.14,1-.18-.82.09-1.1.47-.83,1.14-.41,1.13-.16,1.58.73,1.34-.2-.12-1,0-.86.39,1,2.12.18,3.1,0,5.19s1.65,4.33,3,5.61c.27.26,1.19-.12.89-.4-1.79-1.68-4.44-5.34-1.76-7.74a.25.25,0,0,0,0-.31c-.07-1.45-.73-2.17-2-2.14.23.14.82,0,.86-.31a11.07,11.07,0,0,0-.12-2.93c-.05-.41-.89-.11-1,.18.3-1.14.88-.29.23-2-.13-.35-.17.08.05-.3,1.13-1.94-1-4,0-6,.79-1.8,1.48-2.83,1.55-4.84,0-.54,1.41-2.31,1.27-2.59-1.51-3.1-2.06-5.47,2.27-7.69.59-.31.05-.71-.4-.48Z"/><path class="cls-6" d="M142.43,81.45c-4.46.66-3.63,5.24-1.58,8s-.92,4-1.27,6,1,3.77-.43,5.87c-.89,1.32-2.75,3.31-1.53,5,.92,1.24-.4,3.51-.21,5.26.1,1,1.27,5.24.34,5.74-2.95,1.61.71,7.49,2.7,8.35.43.18,1.13-.43.55-.67-1.72-.74-4.93-5.93-2.19-7.41.12-.07.27-.19.27-.34a45.27,45.27,0,0,0-.6-5c-.25-2.09.36-3.23,1-5.15a.26.26,0,0,0,0-.28c-.92-1.24-1.76-1.85-.15-4.27.51-.76,1.92-2.1,1.89-3.15-.07-2.65-.12-4.71,1-7.16,1.3-2.76-6.09-9,.13-9.89.54-.08.73-.83.08-.74Z"/><path class="cls-6" d="M134.41,64.23c-1.22.91-2.69,2.14-3.1,3.68-.54,2,1.3,3.78-.42,4.67-2.85,1.48-1,5.54-1.79,7.76a6.94,6.94,0,0,0-.66,2.64c.23.83,1.88,3.37,1,4-1.14.83-.77,2-.43,3.11.52,1.75-1,2.24-1.16,3.43-.3,2.57.22,3.76,2.16,5.51.28.24,1.19-.13.9-.39a5.73,5.73,0,0,1-2.21-3.11c-.89-3.44.75-1.56,1.44-3.07,1-2.21-2-3.71,1-6,.11-.09.25-.22.14-.36-1.78-2.33-2.44-4.76-.26-7.11a2.06,2.06,0,0,0,.54-.81c.38-1.9-2.59-4.61,1.46-5.94.12,0,.59-.26.37-.46-2.71-2.5-.93-5.37,1.56-7.24.52-.4-.29-.58-.61-.33Z"/><path class="cls-6" d="M132.54,54.35c-1.88-.54-3.35.34-3.37,2.56,0,2.66-.47,2-2,3.74-1.83,2-.54,4.94-2.25,6.9-.31.36.52,4.54.18,1.88.28,2.19.2,3.14-1.36,4.86-.84.94-.54,1-.24,2.18.62,2.36.17,3.8-.71,6.09-.74,2,.13,2.93-.09,5-.13,1.22-.65,2.43-.88,3.63-.39,2.06.66,3.06,2.33,3.82.23.11,1.12-.25.78-.41-4.15-1.9-1.07-5-1.19-8a17.53,17.53,0,0,1,1.06-7.1,4,4,0,0,0-.33-3.33c-.81-1.61,1.37-2.82,2.19-3.78.28-.33-.54-3-.59-3.26-.67-2.72,1.82-8.67,4.14-9.55.08,0,.35-.15.31-.28-.31-.94-1.08-5.25,1.25-4.59.24.08,1.11-.31.78-.4Z"/><path class="cls-6" d="M163.16,32.86a3.61,3.61,0,0,0-2.25.18c-1.14.53-.33,1.5-.33,2.38l.69-.32a4.47,4.47,0,0,0-3.52,1.8c-.43.61.42,1.5-.41,2a2.37,2.37,0,0,0-.77.74c-.21.35-.75,3.58-.45,3.43-2.12,1-.35,4.36-.91,4.6-2.17.94-.05,2.94,1.16,3.41.26.1,1-.29.91-.33-1.35-.52-3.46-2.12-.61-3.35.07,0,.28-.13.18-.22-1.35-1.36-1.86-3.45.55-4.21,0,0,.38-.15.32-.23-1.24-1.81-.85-3.05,1.16-4.34,0,0,.14-.08.11-.14-.87-1.27-.26-2.21,1.86-2.81.15,0,.7-.1.69-.32,0-.67-1.06-2.16.82-1.93.23,0,1-.34.8-.37Z"/><path class="cls-6" d="M157.61,33.71c-4.05-2.76-2.56,3.9-3.93,5.06a2.52,2.52,0,0,0-1.1,1.87,8.6,8.6,0,0,1-2,4.11c-2.44,3.45-1.7,6.81-.22,10.36.15.35,1.1.06,1-.26-1.53-3.7-1.87-6.41.16-10.06a20.3,20.3,0,0,0,2-2.39c.25-1.62-.47-2.79,1.83-3.76.12,0,.34-.18.29-.35-.21-.71-1-5.65,1.26-4.1.28.19,1.16-.21.76-.48Z"/><path class="cls-6" d="M149.79,33.7c-1.45.76-3.58,2.59-2.32,4.5s-.59,3.9-1.32,6c.18-.54-2.6,3.47-2.58,3.75.13,1.8-.54,2.31-1.15,3.63-.93,2,.29,3.61.27,5.89a6.74,6.74,0,0,0,1.79,4.87c.26.3,1.19-.07.88-.42-2.64-3-2.47-9.31-.05-12.19.05-.06.12-.16.08-.25-.71-1.72,2.49-8.63,4.4-9.46.21-.09.39-.34.16-.52.09-1.77.17-3.53.26-5.3.59-.3,0-.76-.42-.51Z"/><path class="cls-6" d="M109.13,63.59c-1,2.13-3.51,3-2.65,5.51.68,2,1.06,1.78-.29,3.82a4.47,4.47,0,0,0-.8,2.44,10.6,10.6,0,0,0,1.19,2.38c.53,1.06-2.51,1.93-3.12,2.28-1.26.71-1.28,2-.85,3.22.92,2.69,3.49,1,1.49,4.11-1.31,2.06,2.14,3.35.9,5.45-1,1.64,1.72,2.36.8,3.82-1.16,1.84,1.4,3.55,2.61,4.24.24.14,1.14-.22.77-.43l-1.65-5.15c.06-.09.06-.18-.06-.22-1.62-1.61-1.75-2.88-.37-3.81a.12.12,0,0,0,0-.18q-3.26-1.56-.5-5.57c.1-.1.15-.2,0-.28-1.38-.75-2.76-1.43-3.31-3-.73-2.14,2-2.26,3-2.84s1.63-1.14,1-2.41c-1.11-2.25-1-2.73.54-5.13.2-.3.55-.44.56-.84,0-1.44-1.46-3.4-.38-4.8a14.64,14.64,0,0,0,2.09-2.71c.12-.25-.83-.15-1,.14Z"/><path class="cls-6" d="M101.09,70.7c-3.08,3.57-.81,7.76-3,11.75-1.08,2,.33,3.65-.47,5.76-.51,1.33,1.5,4.17,1.28,5.81,0,.3.92.11,1-.15a8.91,8.91,0,0,0-.67-3.76c-.54-1.8.7-3.61-.19-5-1-1.65.77-4.35,1.16-6,.79-3.29-.87-5.42,1.76-8.46.23-.27-.71-.16-.88,0Z"/><path class="cls-6" d="M94.07,78c-3,.2-4.44,2.45-2.31,5,.1.12-1.59,1.46-1.58,2.14,0,1.73,1.8,3.18.29,4.76-.27.28.69.2.89,0,2.21-2.32-2.3-4.9,1.43-6.53.09,0,.42-.21.27-.36-1.26-1.18-2.79-4.27.63-4.49.32,0,1-.55.38-.51Z"/><path class="cls-6" d="M85.48,80.32c-2,1.51-1.18,3.3.31,4.91.11-.18.23-.36.35-.54a2.72,2.72,0,0,0-1.63,4.12c.21.37,1.13,0,.89-.43-.61-1.12-.54-2.53.92-3,.17-.06.57-.3.35-.54-1.11-1.2-2.33-2.73-.55-4,.53-.39-.26-.72-.64-.44Z"/><path class="cls-6" d="M80.76,84.53c0-.15,0-.3,0-.45,0-.48-1-.31-1,.09v.45c0,.48,1,.31,1-.09Z"/><path class="cls-6" d="M79.61,83.86h-.85a.8.8,0,0,0-.64.26c-.14.19.11.27.26.27h.85a.81.81,0,0,0,.64-.26c.13-.19-.11-.27-.26-.27Z"/><path class="cls-6" d="M75.64,83.36h-.43c-.53,0-.75.65-.1.65h.43c.53,0,.76-.66.1-.65Z"/><path class="cls-6" d="M119.86,61.21a4.88,4.88,0,0,0-2,2.95c-.18,1.18,1.44,1.32,1.44,2.16l.42-.34a3.05,3.05,0,0,0-2.39,1.9c-.5,1.51.7,3.11-.12,4.58-.21.37.76.25.9,0,1.12-2-1.37-5.14,1.63-6,.16,0,.33-.14.33-.35v-.44c0-.05,0-.08,0-.09-2.34-1-1-3,.47-4.2.41-.35-.5-.3-.72-.12Z"/><path class="cls-6" d="M119.56,56.48c-3.47-.26-3.27,2.06-3.21,4.84,0,.31.84,1.74.78,1.81A19.17,19.17,0,0,0,116,64.65a17.68,17.68,0,0,0-1.28,1.95c-.4.75.28,1.44.31,2.15l.66-.37-.56-.21c-.34-.16-1.2.31-.75.53a2.34,2.34,0,0,0,1,.33c.19,0,.67-.1.66-.37,0-1-.6-1.62,0-2.65a20.52,20.52,0,0,1,2.1-2.83c.39-.44-.77-2.12-.78-2.43,0-1.45-.73-3.82,1.9-3.63.44,0,1-.6.35-.64Z"/><path class="cls-6" d="M114.68,61.25A13.06,13.06,0,0,0,113,66.7c0,.43,1,.25,1-.11a12.77,12.77,0,0,1,1.67-5.29c.21-.45-.76-.36-.91,0Z"/><path class="cls-6" d="M122.36,104.73a15.23,15.23,0,0,0-.77,3.37c0,1.29,1.2,1.45.84,3-.47,2,.51,3.43.79,5.35,0,.27,1,.06,1-.26a11.49,11.49,0,0,0-.76-2.77c-.51-1.24,0-2.67.33-3.88,0-.08,0-.11-.09-.15-1.94-1.1-.77-3.17-.34-4.77.08-.3-.88-.15-1,.14Z"/><path class="cls-6" d="M119.38,106.58c.57,1.56-.29,2.93,0,4.47a33.12,33.12,0,0,1,.86,4.92c0,.18,1,0,1-.26a43.75,43.75,0,0,0-.84-4.4c-.23-1.73.59-3.3,0-5-.09-.24-1,.06-1,.26Z"/></svg>