<svg id="layer1" xmlns="http://www.w3.org/2000/svg" viewBox="0 0 300.38 275.47"><defs><style>.cls-1{fill:#686c6d;}.cls-2{fill:#492d0c;}</style></defs><path class="cls-1" d="M252.72,102.87a88.3,88.3,0,0,0-36.25-40,79.71,79.71,0,0,0-27.89-9.54,73.35,73.35,0,0,0-13.29-.68c-29.7-3-60.45,6.59-80.6,29.88a90,90,0,0,0-21.81,56.14,102.14,102.14,0,0,0-1.27,18.84c.59,20.69,9.61,39.12,24.33,53.38,26.24,25.43,68.76,37.22,104.05,27a8.24,8.24,0,0,0,5.88-5.61A85.59,85.59,0,0,0,240,208.82C265.63,179.74,268.22,137.35,252.72,102.87Zm-84.81,2.62A47.41,47.41,0,0,1,194.72,108c.64.25,2.91,1.43,4.1,2.12.78.44,1.53.94,2.27,1.44l.36.23.52.45a27,27,0,0,1,2.78,2.78c.07.12.75,1,.87,1.18a22.13,22.13,0,0,1,1.4,2.52h0c0,.1.07.23.14.41.23.67.41,1.35.58,2,.11.41.19.82.26,1.23-.12-.61.1,1,.12,1.31.25,4.36,0,4.32-.93,8a43.36,43.36,0,0,1-3.58,8.63,31.34,31.34,0,0,0-9.14-18.85c-7.52-7.62-18.24-11.87-29-13.39A8.23,8.23,0,0,0,167.91,105.49Zm2.31,21.8A27.48,27.48,0,0,1,183,135c.14.14.55.65.77.91s.45.67.66,1c.36.56.67,1.15,1,1.74l.12.23v0a17.43,17.43,0,0,1,.66,2.24,8.84,8.84,0,0,0-1.4,2.13c-3.46,7.23-8.55,15.18-15.31,17.08a7.32,7.32,0,0,1-4.14.22,20.49,20.49,0,0,0,4.79-2.85,11.13,11.13,0,0,0,3.38-4.79c4.08-3.7,3.68-11.75-1.63-14.22a20.81,20.81,0,0,0-2.53-1,24.68,24.68,0,0,0-9.95-5.12,10.26,10.26,0,0,0-.18-7.61A41.09,41.09,0,0,1,170.22,127.29Zm-26,41.43.7.64-.28-.25a18,18,0,0,1-4.32-4.78A38.5,38.5,0,0,0,144.24,168.72Zm-48.39-2.88A79.53,79.53,0,0,1,92.48,131q.8-2.91,1.76-5.76a10.92,10.92,0,0,0,1.83-1.52,81.48,81.48,0,0,0,10.16-13.9c.82-.74,1.64-1.46,2.48-2.17-.61,1.16-1.16,2.35-1.67,3.56a8.9,8.9,0,0,0-2.57,3.16l-7.89,15.79c-1.74,3.47-1.35,6.6.16,8.92-.27,2.12-.58,4.24-1,6.34a9,9,0,0,0,6.18,10.67c3.27,11.38,9.59,21.87,18.39,29.34h0a8.39,8.39,0,0,0-1.19,4.11,9.58,9.58,0,0,0-.16,8.23c-.07.17-.13.33-.19.51A71.55,71.55,0,0,1,95.85,165.84Zm131.32,11.75a60.67,60.67,0,0,1-14.32,24.1,70,70,0,0,1-5.62,4.28c-16.46,11.14-36.53,13.33-55.24,8.82a9.12,9.12,0,0,0,.44-1.63c32.38-1.62,74.61-24.55,73.87-60.08a8.41,8.41,0,0,0-3.23-6.7,9,9,0,0,0-1.72-2.76,49.72,49.72,0,0,0,4.16-17.76,8.32,8.32,0,0,0,.78.3A82.21,82.21,0,0,1,227.17,177.59Z"/><path class="cls-2" d="M140.81,55.46C105,60.76,77.36,89.87,70.26,125c-4.05,20-1.33,41.56,6.38,60.34,8.67,21.12,24.69,36.44,45.3,45.8,40.8,18.54,92.93,12.4,121.21-24.54,13.33-17.41,20.22-39.74,20.67-61.52.45-21.17-7.1-40.71-19.15-57.86a83.63,83.63,0,0,0-45.58-32.81,102.17,102.17,0,0,0-58.54,1.15c-1.12.37-.89,1.36.26,1,19.74-6.57,42.95-6.19,62.61.68,19.08,6.67,33.8,20.93,44.16,38a94.75,94.75,0,0,1,13,64.88c-3.38,22.5-14.15,44.57-31.48,59.54-38.59,33.35-107.26,25.3-138.71-14.32C65.94,174.37,64,128.12,84.19,94.82c12.46-20.57,32.43-34.74,56.36-38.28C141.48,56.4,142.15,55.26,140.81,55.46Z"/><path class="cls-2" d="M163.64,132.67c-7.6-1-12.9,4.52-14,11.71-1.28,8.58,5.05,14.32,13.19,14.36,6.9,0,13.07-5.16,14.74-11.71,2.13-8.36-5.75-13.09-12.76-14.36-.94-.17-2,1.15-.68,1.38,5.95,1.08,11.76,4.3,11.76,11,0,5.62-4.65,10.31-9.76,11.83-18.08,5.37-19.1-25.07-3.19-22.86.94.13,2-1.2.68-1.38Z"/><path class="cls-2" d="M151.52,92.34c-35.33,4-48.46,43.13-39.76,73.79,9.49,33.44,47.26,47.66,78.47,36.1,26-9.65,40.93-35.58,36.92-62.86-2.41-16.43-10.65-34.83-25.4-43.5-14.48-8.51-33.13-6.23-49-4.72-1,.1-1.59,1.23-.25,1.11,11.68-1.11,23.56-2.25,35.18,0,12.51,2.41,22.1,10.18,28.26,21.15,10,17.91,13.8,39.92,5.16,59.11-15.93,35.37-64.91,42.8-92.85,17.51-29.53-26.73-21.13-91.51,23.06-96.56.95-.11,1.59-1.26.25-1.11Z"/><path class="cls-2" d="M107.63,121.37c-5.13,8.37-4.87,19.7-2.43,28.92.22.85,2.16.33,1.93-.52-2.38-9-2.66-20,2.33-28.22.55-.89-1.42-.87-1.83-.18Z"/><path class="cls-2" d="M99.3,129.73C97,134.74,98,140,98.05,145.37c0,.91,2,.55,2-.2-.06-5.16-1.08-10.45,1.12-15.31.43-.94-1.51-.8-1.82-.13Z"/><path class="cls-2" d="M92.15,132.08a23.53,23.53,0,0,0-2.44,9.7c0,1,1.94.67,2-.16A22.48,22.48,0,0,1,94,132.27c.47-1-1.48-.92-1.84-.19Z"/><path class="cls-2" d="M86.16,133.49c-1.36,3-1.19,6.44-1.2,9.66,0,.56,1.94.2,1.94-.52,0-3.13-.13-6.48,1.18-9.39.26-.56-1.65-.35-1.92.25Z"/><path class="cls-2" d="M80.81,143.5c.8,0,2-1.22.72-1.22-.8,0-2,1.22-.72,1.22Z"/><path class="cls-2" d="M193.83,87.35c15.8-1.9,24.56,14.7,29.21,27.23.18.49,2.08-.11,1.93-.52-4.88-13.13-14-29.49-30.31-27.52-.51.06-2.1,1-.83.81Z"/><path class="cls-2" d="M208,88.81c7.18,2.64,11.45,9.29,13.87,16.25.31.91,2.24.38,1.93-.52-2.56-7.36-7.11-14.29-14.7-17.08-.86-.32-2.27.92-1.1,1.35Z"/><path class="cls-2" d="M214.79,87.37a66.08,66.08,0,0,0,8.33,9.52c.6.6,2.43-.18,1.77-.85a66.16,66.16,0,0,1-8.33-9.52c-.48-.7-2.33,0-1.77.85Z"/><path class="cls-2" d="M220.65,84.65c.08,3,1.62,5.38,3.66,7.47.57.6,2.41-.17,1.77-.83-1.83-1.88-3.41-4.1-3.48-6.81,0-1-2-.64-1.95.17Z"/><path class="cls-2" d="M226.61,81.25c.08,1.51,1.46,2.7,2.45,3.69.47.47,2.29-.25,1.79-.75-.94-.94-2.23-2-2.31-3.46,0-.6-2-.21-1.93.52Z"/><path class="cls-2" d="M145.67,152.67c2.94,6.55,11.38,12.09,18.69,11,.95-.14,1.59-1.31.25-1.12-6.58,1-14.38-4.56-17-10.41-.31-.7-2.21-.1-1.93.52Z"/><path class="cls-2" d="M146.86,158.62c.17,6.31,5.41,9.78,11.09,11,.65.14,2.29-.85,1.17-1.09-5.42-1.17-10.17-4.46-10.33-10.43,0-.65-1.95-.26-1.93.52Z"/><path class="cls-2" d="M145.75,167.13a10.9,10.9,0,0,0,5.09,5c.83.42,2.21-.77,1.11-1.34a9.62,9.62,0,0,1-4.43-4.52c-.41-.8-2.24-.07-1.77.87Z"/><path class="cls-2" d="M144.54,175.37c1.06,1,2.51,1.37,3.57,2.38.4.37,2.17-.34,1.81-.69-1.06-1-2.51-1.37-3.57-2.38-.4-.37-2.17.35-1.81.69Z"/><path class="cls-2" d="M197.21,210c11,.83,18.87-8.28,25.3-16,.5-.6-1.42-.41-1.78,0-5.53,6.61-12.71,15.7-22.31,15-.53,0-2.25.88-1.21,1Z"/><path class="cls-2" d="M202.67,211.08c5.24-1.37,10.13-3.9,12.77-8.84.18-.35-1.64-.2-1.92.32-2.31,4.33-6.41,6.62-11,7.83-1.14.29-1,1,.18.69Z"/><path class="cls-2" d="M208.13,211.22c2.47,0,4.88-.71,6.12-3,.2-.37-.68-.34-.81-.32a1.5,1.5,0,0,0-1.11.6,3.35,3.35,0,0,1-3.41,1.76,1.78,1.78,0,0,0-1.28.5c-.29.36.24.47.49.47Z"/><path class="cls-2" d="M207.56,210.83c0,1-.06,2.26,1,2.75s2.08-.26,3-.75a10.28,10.28,0,0,0,5.07-5.77c.27-.75-1.69-.51-1.94.2a8.19,8.19,0,0,1-2.87,4,14.85,14.85,0,0,1-1.89,1.11c-.42.21-.16.15-.34-.38a4.25,4.25,0,0,1-.1-1.33c0-.9-1.95-.52-1.94.2Z"/><path class="cls-2" d="M214,217.88c2.47-1.32,3.76-3.71,5-6.13.12-.24-1.66-.12-1.9.35-1.11,2.22-2.26,4.55-4.54,5.77-.33.17-.25.38.1.38a3,3,0,0,0,1.37-.37Z"/><path class="cls-2" d="M116.26,62.15c8.94-5.5,14.25-14.83,20.52-22.93,3.78-4.89,8.16-9.41,13.9-11.9,4.94-2.15,11.86-1.13,17-.86,3.3.17,6.59.26,9.89.22,5.35-.07,10.91-.64,16.13.82,6,1.66,8.37,7.16,10.9,12.23,5.84,11.7,11.78,23.71,23.21,30.9.51.32,2.2-.46,1.81-.7-13.79-8.68-18.17-23.45-26.1-36.66-5.63-9.37-17.21-7.61-26.54-7.5-12.7.16-25.25-3.08-35.46,6.31-9.74,9-14.95,22.6-26.46,29.67-1.1.68.63.72,1.15.4Z"/><path class="cls-2" d="M124.94,59.67c5.08-8.16,12.29-15.5,19.21-22.1,3.56-3.38,7.08-6.18,11.84-7.57,5.42-1.58,11.33-1.67,16.91-1.35,11,.64,20.82,3.76,27.48,12.82s10.86,20.53,20.5,27c.69.46,2.39-.5,1.49-1.1-11.34-7.58-15-22-24.14-31.62-6.73-7-19.48-8.59-28.64-8.61-10.29,0-18.39,2-26,9-7.48,6.79-15.09,14.75-20.45,23.37-.56.91,1.4.91,1.84.21Z"/><path class="cls-2" d="M127.19,57.39C133.7,50.94,141.1,44.64,144,35.66c.28-.85-1.5-.33-1.75-.11-8.61,7.57-15.46,16.7-21.55,26.34-.52.82,1.33.71,1.69.26,10.27-12.67,20.57-31.41,38.28-34,17.54-2.57,37.68,1,46.94,17.53.32.58,2,0,1.85-.65-1.57-5.91-6.69-9.29-9.59-14.42l-1.79.79c5.59,8.07,9.33,17.3,15.48,25,.39.49,2.08.08,1.86-.65-1.52-4.89-4.82-8.77-7.22-13.23-.31-.58-2.11,0-1.86.65,2.69,7.23,8,13,10.72,20.24.28.75,2.19.19,1.93-.52-2.69-7.23-8-13-10.72-20.23l-1.85.65c2.34,4.35,5.58,8.18,7.06,13l1.86-.65c-6.15-7.69-9.88-16.92-15.47-25-.42-.6-2.22,0-1.79.79,2.85,5,7.91,8.35,9.45,14.14l1.86-.65c-9.76-17.44-29.12-19.2-47.2-18.06C143,28,131.62,48.45,120.85,61.74l1.7.26c6-9.54,12.79-18.56,21.3-26l-1.76-.11c-2.85,8.73-10.16,14.86-16.48,21.12-.83.82,1.07.92,1.58.41Z"/><path class="cls-2" d="M175.12,127c9.13-.74,9.78,12,9.81,18.38,0,1,2,.77,2-.13,0-7.67-1.18-20.55-11.61-19.7-1.1.08-1.47,1.56-.16,1.45Z"/><path class="cls-2" d="M182.57,127.67a41,41,0,0,0,4.76,9.52c.35.53,2.14-.2,1.93-.51a41,41,0,0,1-4.76-9.53c-.18-.52-2.09,0-1.93.52Z"/><path class="cls-2" d="M189.69,129.87c.08,1.78,1.89,1.82,3.28,1.83a1.1,1.1,0,0,0,1.06-.79c.06-.51-.51-.64-.89-.64s-1.46.14-1.49-.55c0-1-2-.72-2,.15Z"/><path class="cls-2" d="M192.16,130.18c1.07,1,2.52,1.39,3.57,2.39.53.5,2.36-.25,1.79-.78-1.06-1-2.51-1.39-3.57-2.38-.53-.51-2.35.24-1.79.77Z"/></svg>