<svg id="_ÎÓÈ_1" data-name="—ÎÓÈ_1" xmlns="http://www.w3.org/2000/svg" viewBox="0 0 57.79 126.8"><defs><style>.cls-1{fill:#c37c34;}.cls-2{fill:#b26a29;}.cls-3{fill:#99561a;}.cls-4{fill:#d38540;}.cls-5{fill:#f0deb4;}.cls-6{fill:#2b2b2b;}.cls-7{fill:#707f8f;}.cls-8{fill:#ffab03;}</style></defs><rect class="cls-1" x="22.52" y="63.07" width="19.34" height="55.87"/><rect class="cls-1" x="21.43" y="26.42" width="21.54" height="4.73"/><rect class="cls-2" x="21.43" y="29.1" width="21.54" height="2.05"/><rect class="cls-2" x="22.53" y="63.07" width="19.34" height="2.13"/><path class="cls-1" d="M21.43,58.59H43v3a1.79,1.79,0,0,1-1.8,1.8H23.23a1.79,1.79,0,0,1-1.8-1.8Z"/><rect class="cls-2" x="21.43" y="58.59" width="21.54" height="2.12"/><path class="cls-3" d="M26.1,102a.5.5,0,0,1-.5-.5V93.44a.5.5,0,0,1,1,0v8.07A.5.5,0,0,1,26.1,102Z"/><path class="cls-3" d="M30.16,102a.51.51,0,0,1-.5-.5V96.05a.5.5,0,0,1,.5-.5.5.5,0,0,1,.5.5v5.46A.5.5,0,0,1,30.16,102Z"/><path class="cls-3" d="M34.23,102a.5.5,0,0,1-.5-.5V96.05a.5.5,0,0,1,.5-.5.5.5,0,0,1,.5.5v5.46A.51.51,0,0,1,34.23,102Z"/><path class="cls-3" d="M38.29,102a.5.5,0,0,1-.5-.5V93.44a.5.5,0,0,1,1,0v8.07A.5.5,0,0,1,38.29,102Z"/><path class="cls-3" d="M26.1,90.17a.5.5,0,0,1-.5-.5V81.61a.5.5,0,0,1,1,0v8.06A.5.5,0,0,1,26.1,90.17Z"/><path class="cls-3" d="M30.16,90.17a.5.5,0,0,1-.5-.5V84.21a.51.51,0,0,1,.5-.5.5.5,0,0,1,.5.5v5.46A.5.5,0,0,1,30.16,90.17Z"/><path class="cls-3" d="M34.23,90.17a.5.5,0,0,1-.5-.5V84.21a.5.5,0,0,1,.5-.5.51.51,0,0,1,.5.5v5.46A.5.5,0,0,1,34.23,90.17Z"/><path class="cls-3" d="M38.29,90.17a.5.5,0,0,1-.5-.5V81.61a.5.5,0,0,1,1,0v8.06A.5.5,0,0,1,38.29,90.17Z"/><path class="cls-3" d="M26.1,78.34a.5.5,0,0,1-.5-.5V69.78a.5.5,0,0,1,1,0v8.06A.5.5,0,0,1,26.1,78.34Z"/><path class="cls-3" d="M30.16,78.34a.51.51,0,0,1-.5-.5V72.38a.5.5,0,0,1,.5-.5.5.5,0,0,1,.5.5v5.46A.5.5,0,0,1,30.16,78.34Z"/><path class="cls-3" d="M34.23,78.34a.5.5,0,0,1-.5-.5V72.38a.5.5,0,0,1,.5-.5.5.5,0,0,1,.5.5v5.46A.51.51,0,0,1,34.23,78.34Z"/><path class="cls-3" d="M38.29,78.34a.5.5,0,0,1-.5-.5V69.78a.5.5,0,0,1,1,0v8.06A.5.5,0,0,1,38.29,78.34Z"/><rect class="cls-4" x="18.09" y="30.8" width="28.2" height="28.2" rx="4.74"/><circle class="cls-5" cx="32.2" cy="44.9" r="10.77"/><rect class="cls-6" x="31.7" y="36.09" width="1" height="2.83"/><rect class="cls-6" x="28" y="37.08" width="1" height="2.83" transform="translate(-15.43 19.4) rotate(-29.99)"/><rect class="cls-6" x="25.29" y="39.79" width="1" height="2.83" transform="translate(-22.79 42.93) rotate(-60)"/><rect class="cls-6" x="23.38" y="44.4" width="2.83" height="1"/><rect class="cls-6" x="24.37" y="48.1" width="2.83" height="1" transform="translate(-20.84 19.4) rotate(-29.99)"/><rect class="cls-6" x="27.08" y="50.81" width="2.83" height="1" transform="translate(-30.19 50.31) rotate(-59.98)"/><rect class="cls-6" x="31.7" y="50.88" width="1" height="2.83"/><rect class="cls-6" x="35.39" y="49.89" width="1" height="2.83" transform="translate(-20.85 24.83) rotate(-30.01)"/><rect class="cls-6" x="38.1" y="47.19" width="1" height="2.83" transform="matrix(0.5, -0.87, 0.87, 0.5, -22.79, 57.72)"/><rect class="cls-6" x="38.18" y="44.4" width="2.83" height="1"/><rect class="cls-6" x="37.19" y="40.7" width="2.83" height="1" transform="translate(-15.43 24.82) rotate(-29.99)"/><rect class="cls-6" x="34.48" y="38" width="2.83" height="1" transform="translate(-15.4 50.31) rotate(-59.98)"/><rect class="cls-1" x="28.33" y="14.88" width="7.74" height="4.38"/><polygon class="cls-7" points="42.96 26.42 21.43 26.42 28.33 19.25 36.06 19.25 42.96 26.42"/><polygon class="cls-7" points="35.94 14.88 28.45 14.88 30.85 10.07 33.54 10.07 35.94 14.88"/><path class="cls-1" d="M32.93,10.07H31.46V6.92a.69.69,0,0,1,.73-.63h0a.69.69,0,0,1,.74.63Z"/><path class="cls-8" d="M41.86,78.84H22.53a1,1,0,0,1,0-2H41.86a1,1,0,0,1,0,2Z"/><path class="cls-8" d="M41.86,90.67H22.53a1,1,0,0,1,0-2H41.86a1,1,0,0,1,0,2Z"/><path class="cls-8" d="M41.86,102.51H22.53a1,1,0,0,1,0-2H41.86a1,1,0,0,1,0,2Z"/><path class="cls-8" d="M41.86,108.13H22.53a1,1,0,0,1,0-2H41.86a1,1,0,1,1,0,2Z"/><rect class="cls-3" x="29.66" y="117.41" width="1" height="1.53"/><path class="cls-3" d="M30.16,117.91a.5.5,0,0,1-.5-.5v-3.92a.5.5,0,0,1,.5-.5.5.5,0,0,1,.5.5v3.92A.5.5,0,0,1,30.16,117.91Z"/><rect class="cls-3" x="33.73" y="117.41" width="1" height="1.53"/><path class="cls-3" d="M34.23,117.91a.5.5,0,0,1-.5-.5v-3.92a.5.5,0,0,1,.5-.5.5.5,0,0,1,.5.5v3.92A.5.5,0,0,1,34.23,117.91Z"/><rect class="cls-3" x="37.79" y="117.41" width="1" height="1.53"/><path class="cls-3" d="M38.29,117.91a.5.5,0,0,1-.5-.5v-3.92a.5.5,0,0,1,1,0v3.92A.5.5,0,0,1,38.29,117.91Z"/><rect class="cls-3" x="25.6" y="117.41" width="1" height="1.53"/><path class="cls-3" d="M26.1,117.91a.5.5,0,0,1-.5-.5v-3.92a.5.5,0,0,1,1,0v3.92A.5.5,0,0,1,26.1,117.91Z"/></svg>