<svg id="_ÎÓÈ_1" data-name="—ÎÓÈ_1" xmlns="http://www.w3.org/2000/svg" viewBox="0 0 96.25 92.25"><defs><style>.cls-1{fill:#b8c9f1;}.cls-2{fill:#e74c3c;}.cls-3{fill:#c0392b;}.cls-4{fill:#7f8c8d;}.cls-5{fill:#2b2b2b;}.cls-6{fill:#ffcd02;}.cls-7{fill:#3498db;}.cls-8{fill:#fff;}</style></defs><path class="cls-1" d="M73.5,69,56.44,47.79a2.83,2.83,0,0,0-4.4,0L35,69a2.82,2.82,0,0,0,2.2,4.59H71.3A2.83,2.83,0,0,0,73.5,69Z"/><path class="cls-1" d="M57.22,69.77,42.92,52a2.37,2.37,0,0,0-3.69,0L24.94,69.77a2.37,2.37,0,0,0,1.84,3.85H55.37A2.37,2.37,0,0,0,57.22,69.77Z"/><path class="cls-1" d="M32.71,70.68,21.79,57.09a1.8,1.8,0,0,0-2.81,0L8.07,70.68a1.81,1.81,0,0,0,1.41,2.94H31.3A1.81,1.81,0,0,0,32.71,70.68Z"/><path class="cls-1" d="M84.41,70.68,73.5,57.09a1.81,1.81,0,0,0-2.82,0L59.77,70.68a1.81,1.81,0,0,0,1.41,2.94H83A1.81,1.81,0,0,0,84.41,70.68Z"/><path class="cls-2" d="M75,21.65H17.17V24a2.49,2.49,0,0,0,2.41,2.49c4.88.13,16.31.4,26.53.4s21.64-.27,26.52-.4A2.48,2.48,0,0,0,75,24Z"/><path class="cls-2" d="M75,33.1H17.17v2.33a2.48,2.48,0,0,0,2.41,2.48c4.88.14,16.31.41,26.53.41s21.64-.27,26.52-.41A2.47,2.47,0,0,0,75,35.43Z"/><path class="cls-3" d="M75,17.51H17.17v4.74s17.37,1.34,28.94,1.34S75,22.25,75,22.25Z"/><path class="cls-4" d="M79.18,16.63a263.38,263.38,0,0,1-66.15,0q1.49,1.66,3,3.32a266.49,266.49,0,0,0,60.15,0C77.2,18.85,78.19,17.74,79.18,16.63Z"/><path class="cls-5" d="M84,14.13a301.45,301.45,0,0,1-75.69,0c1.12,1.39,2.24,2.77,3.39,4.15a306.54,306.54,0,0,0,68.91,0C81.71,16.9,82.83,15.52,84,14.13Z"/><polygon class="cls-2" points="33.11 30.09 29.05 30.09 27.14 70.4 33.11 70.4 33.11 30.09"/><rect class="cls-2" x="28.49" y="26.19" width="5.19" height="3.91"/><rect class="cls-5" x="25.89" y="70.4" width="8.47" height="3.22"/><polygon class="cls-5" points="34.84 45.86 30.6 43.93 26.37 45.86 26.37 47.15 34.84 47.15 34.84 45.86"/><rect class="cls-2" x="27.01" y="47.15" width="7.18" height="1.55"/><path class="cls-3" d="M28.67,38.13l-.11,2.31,4.55.08V38.21Z"/><path class="cls-6" d="M30.6,50.49h0a.71.71,0,0,0-.71.71v1.51a.71.71,0,0,0,.71.72h0a.72.72,0,0,0,.72-.72V51.2A.71.71,0,0,0,30.6,50.49Z"/><path class="cls-6" d="M41.08,25.42h0a.71.71,0,0,0,.71.72H43.3a.72.72,0,0,0,.72-.72h0a.71.71,0,0,0-.72-.71H41.79A.71.71,0,0,0,41.08,25.42Z"/><path class="cls-6" d="M51.13,25.42h0a.71.71,0,0,1-.71.72H48.91a.72.72,0,0,1-.72-.72h0a.71.71,0,0,1,.72-.71h1.51A.71.71,0,0,1,51.13,25.42Z"/><path class="cls-6" d="M30.32,62.77h0a.71.71,0,0,0-.71.71V65a.71.71,0,0,0,.71.72h0A.72.72,0,0,0,31,65V63.48A.71.71,0,0,0,30.32,62.77Z"/><polygon class="cls-3" points="33.11 30.09 29.05 30.09 28.99 31.35 33.11 31.35 33.11 30.09"/><polygon class="cls-2" points="59.1 30.09 63.16 30.09 65.07 70.4 59.1 70.4 59.1 30.09"/><rect class="cls-2" x="58.54" y="26.19" width="5.19" height="3.91" transform="translate(122.26 56.28) rotate(180)"/><rect class="cls-5" x="57.85" y="70.4" width="8.47" height="3.22" transform="translate(124.17 144.02) rotate(180)"/><polygon class="cls-5" points="57.37 45.86 61.61 43.93 65.84 45.86 65.84 47.15 57.37 47.15 57.37 45.86"/><rect class="cls-2" x="58.02" y="47.15" width="7.18" height="1.55" transform="translate(123.22 95.84) rotate(180)"/><path class="cls-3" d="M63.54,38.13l.11,2.31-4.55.08V38.21Z"/><path class="cls-6" d="M61.61,50.49h0a.71.71,0,0,1,.71.71v1.51a.71.71,0,0,1-.71.72h0a.72.72,0,0,1-.72-.72V51.2A.71.71,0,0,1,61.61,50.49Z"/><path class="cls-6" d="M61.89,62.77h0a.71.71,0,0,1,.71.71V65a.71.71,0,0,1-.71.72h0a.72.72,0,0,1-.72-.72V63.48A.71.71,0,0,1,61.89,62.77Z"/><polygon class="cls-3" points="59.1 30.09 63.16 30.09 63.22 31.35 59.1 31.35 59.1 30.09"/><rect class="cls-5" x="42.65" y="24.71" width="6.92" height="9.5"/><path class="cls-7" d="M83,75.79h0a2.17,2.17,0,0,0-2.17-2.17H11.38a2.17,2.17,0,0,0-2.17,2.17h0A2.17,2.17,0,0,0,11.38,78h8.36a2.17,2.17,0,0,1,2.17,2.17h0a2.17,2.17,0,0,1-2.17,2.17H16.67a2.17,2.17,0,0,0-2.17,2.17h0a2.17,2.17,0,0,0,2.17,2.17H68.91a2.17,2.17,0,0,0,2.17-2.17h0a2.17,2.17,0,0,0-2.17-2.17H65.39a2.17,2.17,0,0,1-2.17-2.17h0A2.17,2.17,0,0,1,65.39,78H80.83A2.17,2.17,0,0,0,83,75.79Z"/><path class="cls-7" d="M77.63,82.3h0a2.17,2.17,0,0,0-2.17,2.17h0a2.17,2.17,0,0,0,2.17,2.17h0a2.17,2.17,0,0,0,2.17-2.17h0A2.17,2.17,0,0,0,77.63,82.3Z"/><path class="cls-8" d="M32.84,78h0a2.17,2.17,0,0,0-2.17,2.17h0a2.17,2.17,0,0,0,2.17,2.17h0A2.17,2.17,0,0,0,35,80.13h0A2.17,2.17,0,0,0,32.84,78Z"/></svg>