<svg id="_ÎÓÈ_1" data-name="—ÎÓÈ_1" xmlns="http://www.w3.org/2000/svg" viewBox="0 0 95.97 81.77"><defs><style>.cls-1{fill:#c9e8f7;}.cls-2{fill:#9b8764;}.cls-3{fill:#cfea5e;}.cls-4{fill:#af9b74;}.cls-5{fill:#8eb021;}.cls-6{fill:#a5c63b;}</style></defs><path class="cls-1" d="M44.24,49.64h0a1.2,1.2,0,0,0,1.2,1.19H71.77A1.19,1.19,0,0,0,73,49.64h0a1.19,1.19,0,0,0-1.19-1.2H66a1.19,1.19,0,0,1-1.2-1.19h0A1.19,1.19,0,0,1,66,46.06h5.73A1.19,1.19,0,0,0,73,44.86h0a1.19,1.19,0,0,0-1.19-1.19H69.64a1.19,1.19,0,0,1-1.19-1.19h0a1.19,1.19,0,0,0-1.19-1.2H65a1.19,1.19,0,0,1-1.2-1.19h0a1.19,1.19,0,0,0-1.19-1.19H49.25a1.19,1.19,0,0,0-1.19,1.19h0a1.19,1.19,0,0,0,1.19,1.19h4.69a1.19,1.19,0,0,1,1.19,1.2h0a1.19,1.19,0,0,1-1.19,1.19H47.8a1.19,1.19,0,0,0-1.2,1.19h0a1.2,1.2,0,0,0,1.2,1.2h1.42a1.19,1.19,0,0,1,1.2,1.19h0a1.19,1.19,0,0,1-1.2,1.19H45.44A1.2,1.2,0,0,0,44.24,49.64Z"/><path class="cls-1" d="M17.31,39.44h0a1.19,1.19,0,0,0,1.19,1.19H44.83A1.19,1.19,0,0,0,46,39.44h0a1.19,1.19,0,0,0-1.19-1.19H39.1a1.19,1.19,0,0,1-1.19-1.2h0a1.19,1.19,0,0,1,1.19-1.19h5.73A1.19,1.19,0,0,0,46,34.67h0a1.19,1.19,0,0,0-1.19-1.2H42.7a1.19,1.19,0,0,1-1.19-1.19h0a1.19,1.19,0,0,0-1.19-1.19H38.06a1.2,1.2,0,0,1-1.2-1.19h0a1.19,1.19,0,0,0-1.19-1.2H22.31a1.19,1.19,0,0,0-1.19,1.2h0a1.19,1.19,0,0,0,1.19,1.19H27a1.19,1.19,0,0,1,1.19,1.19h0A1.19,1.19,0,0,1,27,33.47H20.86a1.2,1.2,0,0,0-1.2,1.2h0a1.19,1.19,0,0,0,1.2,1.19h1.43a1.19,1.19,0,0,1,1.19,1.19h0a1.2,1.2,0,0,1-1.19,1.2H18.5A1.19,1.19,0,0,0,17.31,39.44Z"/><path class="cls-2" d="M48.67,37.65H40.74a1.9,1.9,0,0,1-1.83-2.39l1-3.64a1.91,1.91,0,0,1,1.83-1.41h6a1.89,1.89,0,0,1,1.83,1.41l1,3.64A1.89,1.89,0,0,1,48.67,37.65Z"/><path class="cls-3" d="M52.42,36l-5.53-1.35a4.31,4.31,0,0,0-.61-.1l-8.71-.64a3.72,3.72,0,0,0-3.74,2.35L27,53.51a3.82,3.82,0,0,1-.94,1.37l-3,2.78A3.71,3.71,0,0,0,22,59.58L19.11,72.22a3.72,3.72,0,0,0,3.63,4.54H76.87A3.73,3.73,0,0,0,80.48,74l1-4.14a3.72,3.72,0,0,0-1.54-4h0c-.27-.18-11-12.18-11-12.18a3.72,3.72,0,0,0-1.51-1l-6.79-2.46a3.7,3.7,0,0,1-2.24-2.25L55,38.39A3.73,3.73,0,0,0,52.42,36Z"/><polygon class="cls-4" points="47.31 30.21 42.1 30.21 41.1 12.77 44.71 11.77 48.31 12.77 47.31 30.21"/><polygon class="cls-4" points="53.08 12.77 36.33 12.77 38.33 15.85 44.71 16.85 51.08 15.85 53.08 12.77"/><path class="cls-4" d="M36.56,13.73a.46.46,0,0,1-.46.46H34.48a.71.71,0,0,1-.71-.71h0a.71.71,0,0,1,.71-.71h2.08Z"/><path class="cls-4" d="M53.31,14.19h1.63a.71.71,0,0,0,.71-.71h0a.71.71,0,0,0-.71-.71H52.85v1A.47.47,0,0,0,53.31,14.19Z"/><path class="cls-4" d="M46,12.77H43.4V9.41A1.31,1.31,0,0,1,44.71,8.1h0A1.31,1.31,0,0,1,46,9.41Z"/><path class="cls-5" d="M79.59,69.33h0a1.74,1.74,0,0,0-.71-1.86c-.28-.18-.48-.32-11.39-12.51a1.77,1.77,0,0,0-.7-.47L60,52a5.72,5.72,0,0,1-3.44-3.46l-3.4-9.49A1.72,1.72,0,0,0,51.94,38l-5.53-1.35a1.26,1.26,0,0,0-.28,0l-8.71-.64H37.3A1.72,1.72,0,0,0,35.69,37l-6.8,17.22a5.67,5.67,0,0,1-1.44,2.11l-3,2.78a1.74,1.74,0,0,0-.51.89L21.06,72.66a1.63,1.63,0,0,0,0,.76v2.94a3.75,3.75,0,0,0,1.68.4H76.87a3.68,3.68,0,0,0,2.77-1.25V69.32Z"/><path class="cls-6" d="M38.85,52.69H34.76a.5.5,0,0,1-.5-.5.5.5,0,0,1,.5-.5h4.09a.5.5,0,0,1,.5.5A.51.51,0,0,1,38.85,52.69Z"/><path class="cls-6" d="M40.89,55.85H36.8a.5.5,0,0,1-.5-.5.5.5,0,0,1,.5-.5h4.09a.5.5,0,0,1,.5.5A.5.5,0,0,1,40.89,55.85Z"/><path class="cls-6" d="M48.8,43.06H44.71a.5.5,0,0,1,0-1H48.8a.5.5,0,0,1,0,1Z"/><path class="cls-6" d="M65.55,66.94H61.46a.51.51,0,0,1-.5-.5.5.5,0,0,1,.5-.5h4.09a.5.5,0,0,1,.5.5A.5.5,0,0,1,65.55,66.94Z"/><path class="cls-6" d="M33.71,70.81H29.62a.5.5,0,0,1,0-1h4.09a.5.5,0,1,1,0,1Z"/><path class="cls-6" d="M69.64,69.69H65.55a.5.5,0,0,1-.5-.5.5.5,0,0,1,.5-.5h4.09a.5.5,0,0,1,.5.5A.5.5,0,0,1,69.64,69.69Z"/></svg>