<?xml version="1.0" encoding="utf-8"?>
<!-- Generator: Adobe Illustrator 26.0.2, SVG Export Plug-In . SVG Version: 6.00 Build 0)  -->
<svg version="1.1" id="_ÎÓÈ_1" xmlns="http://www.w3.org/2000/svg" xmlns:xlink="http://www.w3.org/1999/xlink" x="0px" y="0px"
	 viewBox="0 0 59.7 120.2" style="enable-background:new 0 0 59.7 120.2;" xml:space="preserve">
<style type="text/css">
	.st0{fill:#F0B27A;}
	.st1{fill:#C89369;}
	.st2{fill-rule:evenodd;clip-rule:evenodd;fill:#AE7C5B;}
	.st3{fill-rule:evenodd;clip-rule:evenodd;fill:#FFFFFF;}
	.st4{fill-rule:evenodd;clip-rule:evenodd;}
</style>
<rect x="24.3" y="58.3" class="st0" width="15.5" height="45.3"/>
<rect x="28.2" y="58.3" class="st1" width="7.7" height="45.3"/>
<rect x="28" y="27.9" class="st0" width="8.2" height="4.4"/>
<rect x="30" y="27.9" class="st1" width="4.1" height="4.4"/>
<rect x="23.4" y="42.6" class="st0" width="17.3" height="15.7"/>
<polygon class="st2" points="28,32.2 36.2,32.2 38.9,38.3 25.2,38.3 "/>
<polygon class="st2" points="32,16.8 36.2,27.9 28,27.9 "/>
<path class="st3" d="M32,56.6c3.4,0,6.1-2.7,6.1-6c0-3.4-2.7-6.1-6-6.1c-3.4,0-6.1,2.7-6.1,6c0,0,0,0,0,0C26,53.8,28.7,56.5,32,56.6
	z"/>
<rect x="25.2" y="38.3" class="st0" width="13.6" height="4.3"/>
<rect x="28" y="38.3" class="st1" width="8.2" height="4.3"/>
<path class="st4" d="M24.6,58.7v14.5h3.3V58.7H24.6z M35.2,47.9c-0.1-0.1-0.1-0.3,0.1-0.4c0.1-0.1,0.3-0.1,0.4,0
	c1.2,1.4,1.4,3.4,0.6,5c-0.1,0.1-0.3,0.2-0.4,0.1c-0.1-0.1-0.1-0.2-0.1-0.3C36.4,50.8,36.2,49.1,35.2,47.9L35.2,47.9z M33.4,54.3
	c0.2,0,0.3,0.1,0.3,0.2c0,0.1,0,0.3-0.2,0.3c-1.4,0.5-3,0.3-4.2-0.6c-0.1-0.1-0.1-0.3,0-0.4c0.1-0.1,0.2-0.1,0.3-0.1
	C30.8,54.6,32.2,54.8,33.4,54.3z M32.4,49.6c0.4,0.1,0.7,0.5,0.7,0.9c-0.1,0.5-0.7,0.9-1.2,0.7c-0.4-0.1-0.6-0.4-0.7-0.7
	c0-0.1,0-0.1,0-0.2l-2.7-1.5c-0.1-0.1-0.2-0.3-0.1-0.4c0.1-0.1,0.3-0.2,0.4-0.1l2.7,1.5c0.1-0.1,0.2-0.2,0.4-0.2v-1.9
	c0-0.2,0.1-0.3,0.3-0.3c0,0,0,0,0,0c0.2,0,0.3,0.1,0.3,0.3L32.4,49.6L32.4,49.6z M32.1,50.1c-0.2,0-0.4,0.2-0.4,0.4
	c0,0.2,0.2,0.4,0.3,0.4c0,0,0,0,0,0c0.2,0,0.4-0.2,0.4-0.4C32.5,50.3,32.3,50.1,32.1,50.1C32.1,50.1,32.1,50.1,32.1,50.1z
	 M32.1,44.1c-3.5,0-6.4,2.8-6.4,6.3s2.8,6.4,6.3,6.4c3.5,0,6.4-2.8,6.4-6.3c0-1.7-0.7-3.3-1.9-4.5C35.4,44.8,33.7,44.1,32.1,44.1
	L32.1,44.1z M36.2,46.4c-2.3-2.3-5.9-2.3-8.2,0c-2.3,2.3-2.3,5.9,0,8.2c2.3,2.3,5.9,2.3,8.2,0c1.1-1.1,1.7-2.6,1.7-4.1
	C37.9,49,37.3,47.5,36.2,46.4z M28.5,58.7v14.5h3.3V58.7H28.5z M32.3,58.7v14.5h3.3V58.7H32.3z M36.2,58.7v14.5h3.3V58.7H36.2z
	 M40.1,58.7v45c0,0.2-0.1,0.3-0.3,0.3c0,0,0,0,0,0H24.3c-0.2,0-0.3-0.1-0.3-0.3c0,0,0,0,0,0v-45h-0.6c-0.2,0-0.3-0.1-0.3-0.3V42.6
	c0-0.2,0.1-0.3,0.3-0.3c0,0,0,0,0,0h1.5v-4c0,0,0-0.1,0-0.1l2.7-6v-4.4c0,0,0-0.1,0-0.1l4.1-11v-2.4c0-0.2,0.1-0.3,0.3-0.3
	c0.2,0,0.3,0.1,0.3,0.3l0,0v2.4l4.1,11c0,0,0,0.1,0,0.1v4.3l2.7,6c0,0,0,0.1,0,0.1v4h1.6c0.2,0,0.3,0.1,0.3,0.3v15.8
	c0,0.2-0.1,0.3-0.3,0.3L40.1,58.7z M29.7,42.3v-3.8h-1.5v3.8H29.7z M30.3,38.6v3.8h1.5v-3.8H30.3z M27.7,42.3v-3.8h-2.1v3.8H27.7z
	 M32.4,38.6v3.8h1.4v-3.8H32.4z M34.4,38.6v3.8h1.5v-3.8H34.4z M36.4,38.6v3.8h2.1v-3.8H36.4z M29.7,31.9v-3.8h-1.5v3.8H29.7z
	 M30.3,28.1v3.8h1.5v-3.8H30.3z M32.4,28.1v3.8h1.4v-3.8H32.4z M34.4,28.1v3.8h1.5v-3.8H34.4z M25.7,38h12.7L36,32.5h-7.9L25.7,38z
	 M28.4,27.6h7.3l-3.7-9.9C32.1,17.6,28.4,27.6,28.4,27.6z M40.4,42.9H23.7V58h16.7L40.4,42.9L40.4,42.9z M24.6,73.8v14.5h3.3V73.8
	H24.6z M24.6,88.9v14.5h3.3V88.9H24.6z M28.5,73.8v14.5h3.3V73.8H28.5z M28.5,88.9v14.5h3.3V88.9H28.5z M32.4,73.8v14.5h3.3V73.8
	H32.4z M32.4,88.9v14.5h3.3V88.9H32.4z M36.2,73.8v14.5h3.3V73.8H36.2z M36.2,88.9v14.5h3.3V88.9H36.2z"/>
</svg>
