<svg id="layer1" xmlns="http://www.w3.org/2000/svg" viewBox="0 0 358.47 376.47"><defs><style>.cls-1{fill:#c11e1e;}.cls-2{fill:#1fbf44;}.cls-3{fill:#1f61a3;}.cls-4{fill:#e8c325;}.cls-5{fill:#a02784;}.cls-6{fill:#755332;}.cls-7{fill:#a09e9d;}.cls-8{fill:#efce73;}.cls-9{fill:#2daa4a;}.cls-10{fill:#7c3613;}.cls-11{fill:#492d0c;}</style></defs><path class="cls-1" d="M245.24,162c-4.26-11.81-11.1-22.45-15.82-34-1.23-3-3.9-5.18-7.36-4.25a5,5,0,0,0-.77.27c-.53-.29-1.07-.57-1.63-.83a7.21,7.21,0,0,0-8.3,2.24,5.44,5.44,0,0,0-2.77-.73q-6.32,0-12.63.18c-7-1.43-14-.3-21,1.2a242.46,242.46,0,0,0-24.8,3.46,6.21,6.21,0,0,0-1.49.49,190.83,190.83,0,0,1-27.81-2.21,6.29,6.29,0,0,0-3.49-.59,6.66,6.66,0,0,0-6.92,3.51,7.32,7.32,0,0,0-1.2.58c-28.89,17.66-23.64,68.87,5.84,83.44a5.92,5.92,0,0,0,5.28.11c.54.37,1.1.72,1.67,1.05,5.34,3,9.95-2.35,8.52-7.14,4.1-.43,8.22-.78,12.28-1.54a5,5,0,0,0,4.35-4.54,5.43,5.43,0,0,0,2.34-1,107.32,107.32,0,0,0,12.58-1.8A34.25,34.25,0,0,0,169,204.7a40.13,40.13,0,0,1,3.63,6.35,6.66,6.66,0,0,0,4.85,4.08c1.51,4,6.08,4.67,9.08,2.53A6.2,6.2,0,0,0,190,219a43.89,43.89,0,0,0,14.37-1.53A4.67,4.67,0,0,0,208.5,219c12-1.49,23-6,30.72-15.41a6.08,6.08,0,0,0,7.59-4.09A60.55,60.55,0,0,0,245.24,162ZM136,169.9a6.14,6.14,0,0,0-.72.54c-.09-.33-.19-.66-.28-1A7.4,7.4,0,0,0,136,169.9Zm-23.46-26.18c-.18,1.42-.34,2.85-.39,4.29a5.27,5.27,0,0,0,2.71,5.15,5.86,5.86,0,0,0-1.34,2.58,29.13,29.13,0,0,0-.82,5.87,5.63,5.63,0,0,0-.55,2.63A42.85,42.85,0,0,0,118,185.16c1,2.25,2,4.44,3,6.52a5.76,5.76,0,0,0,3.81,2.8c.58.64,1.17,1.28,1.79,1.91a6.09,6.09,0,0,0,.84.71c-2.1.22-4.2.46-6.28.79A5,5,0,0,0,118,200a5.27,5.27,0,0,0-2.4.65C100,187.5,96.27,157,112.49,143.72Zm68.69,50.08a7,7,0,0,0-.84-1.12,4.92,4.92,0,0,0,.39-1.3c0-.19,0-.38.07-.56.21,1,.36,2,.48,3Zm10-50.6-.28-.31a.56.56,0,0,1,0-.12,5.37,5.37,0,0,0,1.35-2.33h.06C192,141.36,191.58,142.28,191.2,143.2Z"/><path class="cls-1" d="M164.53,208.74h-4.64a5.76,5.76,0,0,0-3.57.85c-2.44-1.53-5.48-1.78-7.7.47s-2.51,6.36,0,8.43c2.26,1.83,4.51,2.08,7,3.21a7.22,7.22,0,0,0,4.29.62c2.38.19,4.47-.41,5.73-2C172.19,219.13,171.84,208.74,164.53,208.74Z"/><path class="cls-1" d="M260.93,68.11c0-3-2.7-6.37-6-6.06-5.82.55-10.81,5.67-15.24,9-2.8,2.14-5.62,4.25-8.55,6.2a40.5,40.5,0,0,1-4,2.34l0,0a5.64,5.64,0,0,0-5.51,1.55c-2.12,2.15-2.51,6.45,0,8.51,6.41,5.16,14-.84,19.43-4.75,3.3-2.38,6.5-4.91,9.75-7.36,1.23-.92,2.47-1.82,3.74-2.68.54-.37,1.1-.72,1.67-1l.25-.15A5.86,5.86,0,0,0,260.93,68.11Z"/><path class="cls-1" d="M310,267.76v-.11a2.64,2.64,0,0,0-.83-2c-3.08-6.17-11.28-10.13-17.34-12.82-6.48-2.89-12.73-6.21-19.79-7.44-7.61-1.32-14.87.64-21.84,3.6-1.86.78-1.71,3.39-.38,4.58a2.57,2.57,0,0,0-.91,2.86,36,36,0,0,0,3.7,10.07c1.38,2.29,5.4,1.47,5.23-1.41,0-.31,0-.61-.08-.9a2.26,2.26,0,0,0,0-1.56c-.25-.66-.53-1.31-.82-1.95a13.91,13.91,0,0,1,.36-1.65c2.13-.41,4.27-1,6.41-.64a2.81,2.81,0,0,0,1.49-5.41c-1.45-.58-2.9-1.15-4.35-1.69a27.7,27.7,0,0,1,9.71-.48c6.07.82,11.43,3.78,16.94,6.2a83.4,83.4,0,0,1,10.49,5,3,3,0,0,0-.35,2.13c.16.88.35,1.75.54,2.62-2.24-2.15-4.54-4.24-6.95-6.2a2.81,2.81,0,0,0-4,4c.9,1.06,1.85,2.07,2.81,3.05-1.12-.08-2.25-.14-3.39-.15-3.06,0-3.52,3.71-1.4,5.16a2.4,2.4,0,0,0-2.15,2.51l-.73,0a2.52,2.52,0,0,0-1.87.7c-.17,0-.33-.06-.49-.06h-.2v.13c-.25,0-.5.1-.75.13a2.29,2.29,0,0,0-1.4.73,21,21,0,0,0-6.8.11l-.45,0a2.24,2.24,0,0,0-2.32,1.08,2,2,0,0,0-.34.22,42,42,0,0,0-5-.44,2.61,2.61,0,0,0-1.24.28,2.76,2.76,0,0,0-1.44-1l-15.38-5.13a4.15,4.15,0,0,0-.48-.11c-.27-.38-.54-.78-.8-1.17a15.53,15.53,0,0,0-3.93-10,25,25,0,0,0-1.66-3.64,2.56,2.56,0,0,0-1.81-1.37,15.41,15.41,0,0,1-.37-3.2,2.55,2.55,0,0,0-1.68-2.5,2.46,2.46,0,0,0-.85-1.19c-3.19-2.53-5.73-5.64-8.55-8.55-1.82-1.87-4.16-.48-4.59,1.47-1.22-.65-2.44-1.28-3.67-1.91a2.83,2.83,0,0,0-3.69,1c-1.58,1.06-2.16,3.6,0,4.73,5,2.59,9.48,6,14.12,9.12a2.79,2.79,0,0,0-.6.71c-1.87,3.17-2.69,6.79-4.21,10.12a43.93,43.93,0,0,1-8.51,4.87c-.89.28-1.79.55-2.69.81a2.61,2.61,0,0,0-2,2.92,11.16,11.16,0,0,0-1.86.65c-3.38,1.54-7.25,2.16-10.85,3a63.36,63.36,0,0,1-13.63,1.86,2.68,2.68,0,0,0-1.76.65,3.28,3.28,0,0,0-2.4-.55,14.93,14.93,0,0,0-4,1.16,19.71,19.71,0,0,0-3.07-1.16c-2.57-.75-4.95,2.85-2.73,4.7.35.29.72.56,1.09.83l0,.07c-.67.69-1.32,1.41-2,2.13a11.28,11.28,0,0,0-3.59,3.35c-.26.28-.52.56-.76.86-6,.44-11.65,2.59-17.43,4.3a2.62,2.62,0,0,0-1.92,1.92l-.9.2a2.68,2.68,0,0,0-.43-.54c-1.53-1.46-3.18-2.78-4.79-4.15l.1-.14a2.34,2.34,0,0,0,.37-.94,33.82,33.82,0,0,0,9.26-4.6,24.08,24.08,0,0,0,10.73-3.71c2.3-1.37,1.46-5.41-1.42-5.23a9.34,9.34,0,0,0-4.57,1.12c-.39-.22-.78-.46-1.18-.67a3,3,0,0,0-2.05-2.92c-2.45-.63-4.89-1.34-7.34-2-.55-.45-1.06-.86-1.41-1.12s-.19-.46-1.19-.51v-6.47a2.64,2.64,0,0,0-.67-1.86c.8-2.6,1.51-5.2,2.31-7.65,1-3.11-3.49-4.8-5.13-2.16a27.58,27.58,0,0,0-2.9,6.45l-.11.15a2.71,2.71,0,0,0-1.26,1.09,38.15,38.15,0,0,0-3.91,8c-.87,2.07-1.64,4.19-2.36,6.32-.8,2.39,1.46,3.72,3.4,3.32-.35.42-.71.85-1,1.28a14.25,14.25,0,0,0-1.27,1.63,49.16,49.16,0,0,0-3,4.62,94.82,94.82,0,0,0-9,4.07,64.29,64.29,0,0,0-9.07,4.77,2.82,2.82,0,0,0-1.29,1.82c-6.24,4.9-11.19,11.06-12.82,18.67a2.84,2.84,0,0,0,3.45,3.45,32,32,0,0,0,11.14-5.23,112.77,112.77,0,0,0-7.59,8.7c-5.48-3.13-11.43-5.42-17.3-7.8-4.74-2.88-9.3-6.1-13.78-9.35a2.47,2.47,0,0,0-3.55.7,20.93,20.93,0,0,1-4.84-4.78c5.17.21,10.33.71,15.52.77a2.49,2.49,0,0,0,2.67-2.86c3.9-.31,7.8-.53,11.71-.56,4.48.39,9.09.19,12.67-2.1,3-1.94.23-6.8-2.83-4.84-2.4,1.53-5.7,1.7-9,1.45a4.11,4.11,0,0,0-.73-.13c-.51,0-1-.08-1.51-.14,1.07-.07,2.14-.18,3.21-.27a2.65,2.65,0,0,0,2.5-1.75h.07c3.67,0,3.56-5.28,0-5.57-6.58-.53-13.12-1.35-19.67-2.13a17.76,17.76,0,0,0,4.11-6.26c5.56-2.86,11.09-5.8,17.16-7.43a2.52,2.52,0,0,0,2-2.81c2.72-1,5.45-1.59,8-1,1.36.3,3.28,1,5.1,1.24-.4.63-.79,1.26-1.17,1.9a2.65,2.65,0,0,0,2,4.06,2.89,2.89,0,0,0,4.53-.37c.59-.9,1.17-1.81,1.75-2.73,4.8-4.25,7.5-10.9,11.07-16.07,1.59-2.3-1.47-5.25-3.6-4.2,1.06-1.64.32-4.6-2.24-4.6H112c-4,0-4,6,0,6h.4c-2.68,1-4.46,1.94-5.63,4-.82.5-1.62,1-2.4,1.6a2.65,2.65,0,0,0-1,.93,2.92,2.92,0,0,0-.52,2.26,7.4,7.4,0,0,0-2.16.11,80.43,80.43,0,0,0-12.51,4.25c-7.12.88-14.36,1.64-21.06,4.35a3,3,0,0,0-1.88,2,23.75,23.75,0,0,0-6.51,6.48,2.37,2.37,0,0,0-.83.33,13.08,13.08,0,0,0-4,3.95,2.84,2.84,0,0,0-3.36,2.74A5.75,5.75,0,0,1,50,287.6c-.54,1.27-.51,3.18,1,3.84l1.23.55c0,.11,0,.22,0,.34a2.31,2.31,0,0,0,1.17,1.6c-1.5,0-3.2,1.11-3,2.78.08.56.18,1.11.3,1.64a2.85,2.85,0,0,0-3.33,4l.39.85c-.61,4.88-.33,9.58,2.71,13.4a2.41,2.41,0,0,0,.32,2A35.13,35.13,0,0,0,55.35,324a3,3,0,0,0,.23,3.73c8,7.89,17.66,15.45,28.59,18.67a2.75,2.75,0,0,0,3.2-1.42c.46.15.92.29,1.38.41s.85.36,1.29.51a24.09,24.09,0,0,0,15.62,3c6.9,1.65,14.21.1,21-2.54a2.81,2.81,0,0,0,1.17-4.66l0-.33a27.82,27.82,0,0,0,7.77-7.39,30.11,30.11,0,0,0,8.16-7.92,3.13,3.13,0,0,0,.8.49s0,.08,0,.11c-.52,3,3.48,5.11,5.13,2.17,2.77-4.92,6.57-8.89,10.63-12.67a3.36,3.36,0,0,0,4.32.41,56.41,56.41,0,0,0,8.46-8.39,22.29,22.29,0,0,0,9.07-10.12,3.29,3.29,0,0,0-.51-3.37,2.87,2.87,0,0,0-.49-1.39l.56-.66a1.7,1.7,0,0,0,.26-.34l.6-.51c2.41-2.06-.84-6.31-3.4-4.41l-.2.13c.62-1,1.21-2,1.79-3a2.69,2.69,0,0,0,1.53.44c11.08,0,21.86-.82,32.34-3.71a3.34,3.34,0,0,0,2,1.9,53.76,53.76,0,0,0,11,1.81,2.83,2.83,0,0,0,1.36-.26,33.33,33.33,0,0,0,13.05,4.51,41.27,41.27,0,0,0,22,9.42c1.11.14,1.94-.4,1.94-1.2v7.37c0-.49-1-1-1.6-1.56-1.64-1.49-4.91-.63-4.64,2,.07.69.28,1.38.41,2.06a2.68,2.68,0,0,0-.32,4.2,6.85,6.85,0,0,0,3,1.57,3,3,0,0,0,2.42-.46,7.82,7.82,0,0,0,1.78-.42,8.85,8.85,0,0,1,1,1.3,2.68,2.68,0,0,0,1.12,1.05l.27.33c-.84.73-1.7,1.46-2.61,2.16a28,28,0,0,0-14.43,6c-14.18.49-27.59,4.76-40.85,9.46a88,88,0,0,0-21.19,4.06,121.17,121.17,0,0,0-22.34,1,2.34,2.34,0,0,0-1.21.55l-.28,0a33.91,33.91,0,0,0-14.86-4c-2.42-.06-3.19,2.3-2.37,4.05a2.61,2.61,0,0,0,1,3.75,92.05,92.05,0,0,0,23.74,9.68,3,3,0,0,0,2.47-.57,52.51,52.51,0,0,0,17.83-1.14l.09,0c5.37,2,11.36,1.76,17.1.71,13.28,3,29.23-1.54,39.74-9.69,8-4.73,15.19-11.85,22.37-16.92a3,3,0,0,0,.27-4.65c1-1.17,1.9-2.33,2.87-3.48a2.87,2.87,0,0,0,.63-2.6,30.94,30.94,0,0,0,4.55-13.66c.25-1,.48-1.94.67-2.93a3.43,3.43,0,0,0,0-1,7.89,7.89,0,0,0,4,3,20.26,20.26,0,0,0,10.24-5.19,3.07,3.07,0,0,0,.69-.22c5.25-2.37,8.67-7.14,11.26-12.12a3,3,0,0,0-1-3.86c.09-.31.15-.62.24-.92a2.71,2.71,0,0,0,1.89-1.87C310.55,272,311,269.75,310,267.76ZM118.84,251.65h.43l0,0c-.12.27-.26.53-.39.8l-.36,0C118.61,252.21,118.73,251.93,118.84,251.65ZM73.06,294.11c2.1,0,4.21,0,6.32,0l-.13.18c-2.16.15-4.31.33-6.46.52A2.61,2.61,0,0,0,73.06,294.11ZM56.42,294l.17-.13c1.43.58,2.85,1.12,4.3,1.55-1.77-.32-3.53-.67-5.29-1.07A2,2,0,0,0,56.42,294Zm56.12,7.29c-4.25,4.08-9,8.56-14.42,11.25a33.21,33.21,0,0,1,10.11-11.29,20.77,20.77,0,0,0,5.2-.83Zm43.13,6a4.49,4.49,0,0,0-.24-.42l.14-.06c.65-.42,1.28-.86,1.9-1.31C156.85,306.1,156.26,306.7,155.67,307.31Zm80.56-29q-3.19-1.29-6.31-2.8a2.78,2.78,0,0,0-2.87.19c-.29-.35-.55-.72-.82-1.1a2.79,2.79,0,0,0,.71-1.05q.24-.61.42-1.26a2.33,2.33,0,0,0,.58.38l.52.23a2.84,2.84,0,0,0,3.44,1.63c2.18,1.06,4.36,2.15,6.56,3.22A2.56,2.56,0,0,0,236.23,278.28Zm45.88,16.08a2.65,2.65,0,0,0-.44-.56,2.55,2.55,0,0,0-.19-.55l.71.23A2.63,2.63,0,0,0,282.11,294.36Z"/><path class="cls-2" d="M203.45,53c-2.2-4.52-9.92-5.39-11.15.72l-.05.25a8.11,8.11,0,0,0-.51.65c-3.88,5.53-5.11,12.32-6.39,18.81-1.39,7,7,10,11,4.6S204.48,67.48,208,61.8C210.54,57.57,207.24,53.6,203.45,53Z"/><path class="cls-3" d="M159.24,104.43a4.42,4.42,0,0,0-.44-.76,7.84,7.84,0,0,0-.71-2.71c.57,1.23-.06-.28-.12-.5s-.14-.8-.17-1c-.05-.8-.05-1.6-.05-2.4a6.11,6.11,0,0,0-3.85-5.64c-1.55-5-7.85-4.66-10.47-1.2a6,6,0,0,0-1.52,7.52,74.15,74.15,0,0,1,5.17,13.59,5.72,5.72,0,0,0,2.31,3.4s0,0,0,.07c1.29,6.77,11.88,5.17,11.83-1.51A20.69,20.69,0,0,0,159.24,104.43Z"/><path class="cls-4" d="M134.07,67a4.89,4.89,0,0,0,.29-4c-.46-1.19-1-2.36-1.5-3.52-.2-2.31-.46-4.61-.82-6.91-.68-4.43-6.53-5.56-9.65-3.09a5.91,5.91,0,0,0-4.26,1.06l-.41.09c-2.88.77-5.48,4.32-4.26,7.37,1.68,4.19,3.76,11.35,7.27,16,.28.83.57,1.66.85,2.5,2,5.84,10.55,5.59,11.7-.18a5.6,5.6,0,0,0,1.29-3.66A42.47,42.47,0,0,0,134.07,67Z"/><path class="cls-5" d="M111.18,83.9a52.14,52.14,0,0,0-3.44-9.14,6.39,6.39,0,0,0-.66-2.79c-.23-.47-.44-1-.66-1.42a39.51,39.51,0,0,0-4-10.17A5.6,5.6,0,0,0,96.6,57.6a4,4,0,0,0-.68-.48c-.08-.1-.16-.19-.23-.29-4.21-5.09-10.93.59-10,5.84,1.47,8.75,6.22,16.25,11.06,23.51a6.19,6.19,0,0,0,3.68,2.59C104.18,93.91,113,90.55,111.18,83.9Z"/><path class="cls-6" d="M161.11,266.37c-.91-4.82-6.83-6-10-3.37-1.1-.66-2.21-1.32-3.35-1.91-6.88-3.56-12.92,6.85-6,10.42l.07,0a6.49,6.49,0,0,0,3.95,2.84l.4.21c.37.17.74.36,1.1.54s.77.52,1.15.78a40.18,40.18,0,0,0,3.77,2.55,6.2,6.2,0,0,0,8.24-2.25,8,8,0,0,0,1.36-1.05C164.88,272.24,163.71,268.39,161.11,266.37Z"/><path class="cls-6" d="M214.83,255.5a4.26,4.26,0,0,0-1.79-.31,5,5,0,0,0-2.65-6.85c-2.67-1.25-5.45-2.23-8.11-3.48a6.35,6.35,0,0,0-6.26.32,6,6,0,0,0-4.92,2.36A6.09,6.09,0,0,0,187,249.2a5.65,5.65,0,0,0-5.68-1.56,5.15,5.15,0,0,0-5.07,3.61,6.23,6.23,0,0,0-.85,1.12c-2.7,4.77,3,11.76,8,8.39,1.86.16,3.69.59,5.53.88l-1.12.52a41.77,41.77,0,0,0-4.81,1.61,25,25,0,0,0-2.77.45l-.37-.27a5.72,5.72,0,0,0-6.89-.7c-5.08,3-6.47,12.78.36,14.65a11.59,11.59,0,0,0,4.75.08,6.57,6.57,0,0,0,3.9,1.57,5.38,5.38,0,0,0,2.61-.48,10.31,10.31,0,0,0,1.62-.84c4.4,0,8.43-1.47,12.32-3.4a5.85,5.85,0,0,0,7.33-.82,54.21,54.21,0,0,1,4.87-4.08c1-.79,2.09-1.55,3.16-2.28l.78-.5a6,6,0,0,0,4.31-3.9C220.26,259.79,217.87,256.75,214.83,255.5Zm-12.35,3.87a6.64,6.64,0,0,0-2-.24l-.69,0a6.38,6.38,0,0,0,.72-.75,5,5,0,0,0,2.34-.33c.52.22,1,.44,1.53.68a6.64,6.64,0,0,0,.76.3l-.35.24A6.39,6.39,0,0,0,202.48,259.37Z"/><path class="cls-6" d="M164,245.63a5.07,5.07,0,0,0-5.69-1.37,33,33,0,0,1-10,2.11c-7.79.15-7.81,11.67-.09,12h.11a5.78,5.78,0,0,0,6.13,2.1,6.86,6.86,0,0,0,2.32-.94l.86-.39a4.15,4.15,0,0,0,.63.16,6,6,0,0,0,6.44-2.65l.52-.28C170.32,253.68,168.22,247.21,164,245.63Z"/><path class="cls-7" d="M87,148.29a4.79,4.79,0,0,0-3-.08,22.63,22.63,0,0,0-3.12-1.27c-2.34-.77-5-.76-7.26-1.78-3.11-1.4-6.62-.62-8.24,2.28l-.13.06a5.36,5.36,0,0,0-2.91,4.55c-2.23,4.74,1.2,9.7,7.07,10.14a5.93,5.93,0,0,0,5.78-4.25c2.2.44,3.65.77,5.1,2.51a6.46,6.46,0,0,0,.81.77c3.19,3.5,10.62,2.25,10.6-3.85C91.67,153.36,91.28,149.85,87,148.29Z"/><path class="cls-7" d="M273.68,145.79a6,6,0,0,0-6-6h-1.16a5.66,5.66,0,0,0-5.58,5.95v.82c-1-.07-1.65-.13-2.34-.21s-1.36-.16-2-.25l-1.23-.16-1.21-.16c-3.24-.46-6.46.76-7.4,4.21-.79,2.86.95,6.93,4.2,7.4,2.92.41,5.89,1,8.85,1.24.1.21.19.43.3.64,2,4.12,6.86,3.58,9.47.86a5.54,5.54,0,0,0,3-4.9,5.76,5.76,0,0,0,1.31-3.6v-4.11a7,7,0,0,0-.22-1C273.77,146.25,273.67,146,273.68,145.79Z"/><path class="cls-7" d="M142.33,86.56a29.4,29.4,0,0,0-5-8.08,2.82,2.82,0,0,0-4,0,2.85,2.85,0,0,0-.05,3.9h0l.05.06,0,.06s.05.07.09.13c.39.51.77,1,1.14,1.57s.89,1.32,1.31,2c.23.39.45.78.65,1.18.08.15.16.31.23.46s0,.1.08.21a2.85,2.85,0,0,0,3.45,2A2.82,2.82,0,0,0,142.33,86.56Z"/><path class="cls-7" d="M223.49,114.51A208.33,208.33,0,0,1,192,119.19a3.5,3.5,0,0,0,.43-.55c6.22-10.11,18.42-14.34,28.05-20.36,3.07-1.92.25-6.78-2.83-4.85-10.59,6.62-23.23,11.26-30.07,22.37a2.57,2.57,0,0,0,.86,3.64q-5.44.34-10.91.51a2.83,2.83,0,0,0,.65-1.13c3.57-11.25,9.19-21.64,15.1-31.81,1.83-3.13-3-6-4.84-2.83-6.16,10.59-12,21.44-15.67,33.15a2.41,2.41,0,0,0,.72,2.72c-11.63.24-23.29,0-34.95-.23-8-9.29-12.31-21.32-21.76-29.37-2.74-2.33-6.74,1.62-4,4,8.06,6.86,12.45,16.74,18.56,25.26-4.68-.07-9.35-.13-14-.14-3.63,0-3.63,5.61,0,5.62,36,0,72.18,3,107.58-5.23C228.51,119.11,227,113.69,223.49,114.51Z"/><path class="cls-7" d="M177.5,217.8c-3.85-4.69-6.8-10.78-12.68-13.18-3.26-1.34-7.29-.85-10.67-.46a65.09,65.09,0,0,0-15.28,3.52,2.85,2.85,0,0,0-2,3.45c1.09,3.36,2.16,6.64,5,8.93a2.84,2.84,0,0,0,1.13.58c-7.61,11.07-11.76,24.28-16.43,36.75-2.54,6.8-5.13,14.84-10.27,20.16-3.47,3.6-8.55,6.25-10.77,10.91-1.55,3.25,3.29,6.1,4.85,2.83,2.22-4.66,8-7.57,11.39-11.38,4.44-5,6.77-12.23,9.19-18.35,5.3-13.4,9.28-27.7,17.88-39.5,1.39-1.91-.2-3.76-2-4a2.31,2.31,0,0,0-1-2,8.94,8.94,0,0,1-2.71-4c6.07-2,13.64-3.78,19.53-2.27,2.13.55,3.61,2.48,4.88,4.15,2,2.61,3.87,5.27,5.95,7.8C175.83,224.57,179.78,220.58,177.5,217.8Z"/><path class="cls-7" d="M178.69,220.64c-1,8.86-5.12,17.08-7.69,25.54-2,6.46-3,13.19-4.76,19.71-1.45,5.4-3.43,10.79-6.94,15.21-4.1,5.15-10,8.23-16.16,10.34-2.82,1-2.4,5.86.92,5.51a7.2,7.2,0,0,0,.91-.1h0s-.15,0-.14,0c1.46-.22,2.8-.59,4.27-.74a2.84,2.84,0,0,0,2.49-2.11,36.94,36.94,0,0,0,10.57-7.63c4.33-4.54,6.87-10.4,8.73-16.31,2.17-6.88,3.31-14,5.14-21,2.51-9.6,7.17-18.44,8.28-28.41C184.71,217,179.09,217.08,178.69,220.64Z"/><path class="cls-7" d="M268.68,270a151.86,151.86,0,0,1-17.44-1.43,154.08,154.08,0,0,0-10.48-27.2c-4.27-8.73-9.42-17.41-16.25-24.39-2.53-2.6-6.5,1.38-4,4,6.52,6.67,11.23,15,15.37,23.25a139.47,139.47,0,0,1,10.4,27.65,2.91,2.91,0,0,0,2.71,2.06,172.68,172.68,0,0,0,19.66,1.71C272.3,275.62,272.3,270,268.68,270Z"/><path class="cls-7" d="M248,194.25c-2.78,9.93-13.18,14.29-22,17.7-3.34,1.3-1.89,6.73,1.49,5.42,10.76-4.18,22.52-9.57,25.9-21.62C254.42,192.25,249,190.77,248,194.25Z"/><path class="cls-7" d="M165.5,224.92a2.6,2.6,0,0,0-.85-2v-.59c0-3.62-5.62-3.62-5.62,0a50.09,50.09,0,0,0,1,11,2.49,2.49,0,0,0,.7,1.29c0,.46,0,.92.05,1.39.07,3.61,5.69,3.62,5.62,0S165.57,228.63,165.5,224.92Z"/><path class="cls-7" d="M155.84,277.65c-2.88-.79-6-1.54-8.9-2.64a2.39,2.39,0,0,0-1.25-3c-3.2-1.43-4.07-4-6.32-6.44a2,2,0,0,0-.26-.24c.29-1.31.59-2.63,1-3.92a2.48,2.48,0,0,0-.93-2.9,30.64,30.64,0,0,1,.93-3c1.1-3-3.8-5-5.13-2.16-2.27,4.9-3.18,10.17-4.22,15.43a2.82,2.82,0,0,0,.3,2,12,12,0,0,0,.74,5.14,2.49,2.49,0,0,0,.09.37,2.66,2.66,0,0,0,.57,3.09c.63.5,1.24,1,1.85,1.54s.92.81,1.36,1.23l.08.09a2.72,2.72,0,0,0,2.63,1.9,3.12,3.12,0,0,0,1-.22,27.94,27.94,0,0,0,12.78,3.17,3,3,0,0,0,2.77-3.59,3.4,3.4,0,0,0,.32-.34C158.06,283.08,159,278.53,155.84,277.65Zm-17.22-2.74c-.52-.32-1-.67-1.55-1a6.5,6.5,0,0,1-.4-2.8c.81,1,1.5,2,2.3,2.94A2.91,2.91,0,0,0,138.62,274.91Z"/><path class="cls-7" d="M227.47,263.18l-1,.67c1.13-3.19-3.51-5.85-4.92-2.62A18.65,18.65,0,0,1,213,270c-1.92.62-3.85,1.18-5.81,1.68a2.78,2.78,0,0,0-1.4.34l0,0c-10.75,2.58-21.94,3.62-32.76,5.6a2.45,2.45,0,0,0-1.76,3.61,3.22,3.22,0,0,0-.3,1.21h-1.13a2.86,2.86,0,0,0-.73.1,2.62,2.62,0,0,0-2,2.69,2.66,2.66,0,0,0,2.71,2.83c3.63.11,7.19.88,10.83,1a2.72,2.72,0,0,0,2.74-2.92c6.42-.39,12.45-2.71,18.4-5.66,1.66-.59,3.36-1.18,5.06-1.8a2.8,2.8,0,0,0,2.09.44c6.1-1,11.66-3.77,17.71-4.92a2.32,2.32,0,0,0,2-2.5,2.93,2.93,0,0,0,1-2.72,3.79,3.79,0,0,0,.05-.58,3.79,3.79,0,0,0,.6-.38C233.29,266,230.48,261.14,227.47,263.18Z"/><path class="cls-8" d="M267.68,296.15c-1.08-2.46-4.59-1.4-5.15.82a2.82,2.82,0,0,0-2.86-.11A17.16,17.16,0,0,0,257,293a2.86,2.86,0,0,0-4.68,1.15,21.86,21.86,0,0,0-2.16-3.1c-1.4-1.52-3.85-.32-4.58.68h0c-.66,0-1.41-1.59-2.26-2.39a2.85,2.85,0,0,0-4.41.69.5.5,0,0,1,0,.12,2.47,2.47,0,0,0-2.79-.29,22.56,22.56,0,0,0-7.69-4.43,3.06,3.06,0,0,0-.57-.12,30.37,30.37,0,0,0-6.45-3.86c-2.48-1.12-5.24,1.45-4,3.69l-9.72-5.4c-3.19-1.77-5.83,2.87-2.83,4.85l.35.23a2.27,2.27,0,0,0-.09.59c-2.14-.4-3.58,1.46-3.26,3.49,0,.24.09.48.14.72a16.06,16.06,0,0,0-4.06.6,2.37,2.37,0,0,0-.74-1.41c.42-.18.84-.35,1.27-.51,3.35-1.25,2-6.62-1.49-5.42a32.73,32.73,0,0,0-6.17,2.86c-1.06.51-2.13,1-3.23,1.42a3.14,3.14,0,0,0-2.07,3.07,12.45,12.45,0,0,0-2.63,5.72,5.27,5.27,0,0,0-1.82.29c-2.75.91-4,3.62-4.55,6.38a16.58,16.58,0,0,0-4.26,6.74,14.64,14.64,0,0,0-7.83,6.08c-.46.28-.91.56-1.35.85A9.08,9.08,0,0,0,161,317a3.16,3.16,0,0,0-1.46.32c-5.34,2.62-7.22,8.83-7.38,14.39a2.54,2.54,0,0,0,2.81,2.7,2.8,2.8,0,0,0,5,.43c.21-.31.4-.62.59-.93a10.52,10.52,0,0,0,8.2.94,10.4,10.4,0,0,0,3.4-1.68c.37-.15.73-.31,1.07-.48a23.6,23.6,0,0,0,11.87,1.84c16.48,1.23,33.64-1.87,49.17-7.33a84.48,84.48,0,0,0,15.5-7.11c4.23-.95,8.59-2.48,11.83-5.24a3,3,0,0,0,3.35-2.8v-1.71a2.71,2.71,0,0,0-1.25-2.2,7.91,7.91,0,0,1,4.08-1.92,2.76,2.76,0,0,0,2-2.71A24.27,24.27,0,0,0,267.68,296.15Zm-60.15,16.94-.84.15c.45-1.25.85-2.53,1.2-3.83.23.74.49,1.46.76,2.17A6.44,6.44,0,0,0,207.53,313.09Zm18.46-5.9a10.27,10.27,0,0,0-2.08.23c-.17-.33-.35-.65-.53-1,0-.6-.1-1.19-.19-1.76s-.23-1.19-.38-1.76l.07,0A19.68,19.68,0,0,1,226,307.19Zm9.61-1.12.15-.08a40.09,40.09,0,0,0,1.4,3.79l-1,0A8.3,8.3,0,0,0,235.6,306.07Zm-1.36-7.86c0,.43.08.87.13,1.3l-.7-.67A2.85,2.85,0,0,0,234.24,298.21Zm8.77,9a11.47,11.47,0,0,1-.63-2.82l.22-.12c.17.6.37,1.19.59,1.77Q243.11,306.59,243,307.18Zm-64.35,1.62c.09,0,.18-.06.27-.06h.86a2.8,2.8,0,0,0,2.71-2,9,9,0,0,1,1.42-2.7l.17-.24.11.27a2.59,2.59,0,0,0,.43.66,17.22,17.22,0,0,0,.06,8.44,9.61,9.61,0,0,0-3.22,2.63,2.09,2.09,0,0,0-.47-.3l.21-.16c1.61-1.22,2-3.7,0-4.85a12.74,12.74,0,0,0-2.82-1.22C178.47,309.14,178.57,309,178.66,308.8Zm-15.95,20a30.58,30.58,0,0,0,.84-4.68,7.26,7.26,0,0,0,1.66-.2,2.58,2.58,0,0,0,.19,2.42,17.89,17.89,0,0,0,1.69,2.05c0,.37.09.74.14,1.11A4.64,4.64,0,0,1,162.71,328.79Z"/><path class="cls-9" d="M109.08,276.55a2.68,2.68,0,0,0-.13-1l.46-.34a2.83,2.83,0,0,0-.67-5.13l-.82-.26a2.4,2.4,0,0,0-1.07-1.17,16.45,16.45,0,0,0-5.33-1.92A37.52,37.52,0,0,1,98.45,262c-1.58-3-5.75-.78-5.1,2.12a3.16,3.16,0,0,0-2.7,2.61,80.6,80.6,0,0,0-9,.63c-1,.15-1.62,1.42-1.87,1.42H77.61c-.89-1-1.77-2.12-2.67-3.26-1.76-2.22-5.58.26-4.7,2.82a14,14,0,0,0,.89,2.08c-7.7-.22-15.29,1.19-23,1.28-3.07,0-3.94,4.94-.74,5.52,5.91,1.08,11.82,2.13,17.78,2.8a2.46,2.46,0,0,0-.14.61c-1.32.16-2.65.35-4,.59-2.66.49-2.71,5,0,5.42,10.21,1.67,20.41.18,30.66.1a2.84,2.84,0,0,0,2.71-3.56,5,5,0,0,0-.29-.73l.6-.23a2.49,2.49,0,0,0,3.53.72c.63-.38,1.27-.72,1.93-1a2.26,2.26,0,0,0,1.78.56c1.74-.18,3.4-.67,5.13-.85A3.05,3.05,0,0,0,109.08,276.55Z"/><path class="cls-10" d="M127.65,297.32a30.06,30.06,0,0,1-4.18-.39,43,43,0,0,0-11.31-3.78,3.13,3.13,0,0,0-3.38,1.94l-.89-.23a2.67,2.67,0,0,0-3.44,2.89c-2-.47-4-.87-6-1.18a2.91,2.91,0,0,0-2.4.67,20,20,0,0,0-8-6.37,3,3,0,0,0-4,1.41,3,3,0,0,0-3.51,2,14.47,14.47,0,0,0-.84,5.2,28,28,0,0,0-8.53-4.59c-2.48-.89-4.68,2.6-3,4.46L66.11,299a2.42,2.42,0,0,0-.38,0c-1.32-.55-2.66-1.08-4-1.59a2.44,2.44,0,0,0-3,1.15,3,3,0,0,0-1,3.83c.15.32.32.63.48.94a2.28,2.28,0,0,0,.68,1.21C63.28,312,71,317.44,79,320.45c1.25,1.59,2.63,3.1,3.92,4.74a2.81,2.81,0,0,0,4.41-.57c.29-.67.6-1.29.93-1.9a7.63,7.63,0,0,0,5.9,1.18,21,21,0,0,0,9.21-4.39c4.42-.64,8.28-3.6,11.32-7.18h.13a2.52,2.52,0,0,0,2.33-1.3c.93.17,1.86.33,2.8.44,2.17.27,3.18-2.19,2.52-3.92a3,3,0,0,0,.56-4.06l1.3.19a3.15,3.15,0,0,0,2.57-.79l.74,0C131.28,303,131.27,297.4,127.65,297.32Zm-40.72,4.24.32.45a2.17,2.17,0,0,0,0,1.21,1.3,1.3,0,0,0-.18.23c-.28-.18-.55-.36-.84-.53a7.91,7.91,0,0,1-.93-2.92A15.8,15.8,0,0,1,86.93,301.56Z"/><path class="cls-11" d="M113.07,122.31c-6.3,10.45-15.64,19.06-19.82,30.74a51.36,51.36,0,0,0-.52,32.82c7.34,22.83,30.84,33.42,53.08,35.63,12.9,1.28,26.09-.2,39-.28a160.3,160.3,0,0,0,27.49-2.38c16.59-3,34.53-10.5,39.93-27.94,8.32-26.91-11.5-54-28-73.21-.47-.55-2.32.16-1.78.78,17,19.84,36.75,47.29,27.09,74.85-7.28,20.77-34.55,25.06-53.46,26.35-11.92.81-24,.74-36,1-14.27.33-28.4-1.68-41.34-8C95.75,201.41,87.26,175,95.67,151.47c3.92-10.95,13.29-19.26,19.21-29.08.5-.82-1.46-.67-1.81-.08Z"/><path class="cls-11" d="M110.62,122.72c18.53,6.56,38.46,6,57.76,4.14,10.25-1,20.46-2.44,30.68-3.76s20.06-1.32,29.78-4.81c.07,0,.88-.37.58-.54-2.68-1.55-4-.91-6.06,1.26-.4.42,1.44.18,1.75-.16.51-1.12.91-1.23,1.21-.32a49.34,49.34,0,0,1-6.87,1.73,85.7,85.7,0,0,1-8.89,1.13c-4.21.39-8.45.56-12.63,1.2-9.52,1.46-19.14,2.54-28.72,3.51-19,1.91-38.75,2.34-57-4.12-.43-.15-2.16.54-1.59.74Z"/><path class="cls-11" d="M112.3,121.07a3.58,3.58,0,0,1-.78-2.4l-1.29,1a72.76,72.76,0,0,1,12.92,2.07,101.67,101.67,0,0,0,16,1.74c11.22.59,22.48-.14,33.67-.89,10.75-.72,21.5-1.25,32.25-1.87a75.69,75.69,0,0,0,13-1.82,29.85,29.85,0,0,0,4.8-1.55c1-.39,2-.83,2.92-1.31.26-.13.42-1.42,0,.42-.22,1,1.76.73,2-.14.11-.42.22-.85.32-1.27a.56.56,0,0,0-.18-.69l-.38-.25a1.19,1.19,0,0,0-1.17,0c-8,4.39-16.93,5-25.89,5.43-9.81.45-19.61,1.09-29.41,1.75a276.09,276.09,0,0,1-33.17.67c-9.14-.48-17.93-3.4-27-3.71-.56,0-1.41.26-1.3,1a5.35,5.35,0,0,0,.94,2.73c.55.72,2.39,0,1.77-.85Z"/><path class="cls-11" d="M242.13,143.21c2.6,2.38,6.41,3.68,9.7,4.7,2.47.76,5.59,1.55,8,.27,1.14-.6-.63-.65-1.15-.38-2,1-6.3-1-8.22-1.71a20.07,20.07,0,0,1-6.54-3.58c-.42-.38-2.2.34-1.81.7Z"/><path class="cls-11" d="M254.17,162.47c2.27-2.32,4.54-6.22,8.12-6.36.55,0,2.1-.9.81-.85-5,.19-7.53,4.07-10.69,7.31-.45.47,1.42.26,1.76-.1Z"/><path class="cls-11" d="M260.93,148.26c1.86-2.62,4.06-8.8,7.81-8.76,4.12,0,4.95,6.38,5.06,9.29a20,20,0,0,1-2,9.68c-2.15,4.26-9,4.43-9-1.16,0-1-2-.67-2,.16,0,1.79-.4,2.51.91,3.58a11,11,0,0,0,3.34,1.8,6.54,6.54,0,0,0,5.09-.48c4.19-2.14,5.33-8.16,5.54-12.35.24-4.51-.72-9.89-5.39-11.69-5.41-2.09-8.76,6.21-11,9.4-.71,1,1.11,1.22,1.6.53Z"/><path class="cls-11" d="M259.17,151.67c0,1.31,0,2.52.92,3.53.42.46,1.86,0,1.86-.63a11.83,11.83,0,0,0-.85-5.13c-.32-.67-1.7-.1-1.93.39a9.54,9.54,0,0,0-.86,4.4c0,.57,1.93.21,1.93-.51a8.88,8.88,0,0,1,.86-4.15l-1.93.39a11.79,11.79,0,0,1,.85,5.13l1.87-.63c-.86-.93-.79-2.12-.79-3.31,0-.56-1.94-.21-1.93.52Z"/><path class="cls-11" d="M78.36,149.44c6.41,2.41,12.15-.1,18.08-2.66,1.22-.53.12-1.4-.82-1-5.3,2.29-10.35,4.63-16.11,2.47-.73-.28-2.27.77-1.15,1.19Z"/><path class="cls-11" d="M75.75,159.53c6.83.14,11.69,3.81,14.18,10.09l1.88-.6A147.5,147.5,0,0,0,80.7,158.76c-.44-.36-2.18.39-1.82.68A145.75,145.75,0,0,1,90,169.7c.3.3,2.06-.14,1.88-.6-2.61-6.55-7.82-10.28-14.88-10.43-.45,0-2.22.84-1.24.86Z"/><path class="cls-11" d="M79,147.73c-1-4.49-5.37-5.63-9.4-4.15a13.15,13.15,0,0,0-8,8.53c-1.15,3.43-.95,7.76,1.5,10.57,2.61,3,7.13,1.79,10.15.28,1.2-.6.1-1.32-.78-.87-6.42,3.21-10.11-1.51-9.47-7.74a13,13,0,0,1,3.65-7.66c3.27-3.35,9.15-3.71,10.37,1.56.17.73,2.11.22,1.93-.52Z"/><path class="cls-11" d="M75,152.34v8.54c0,1,1.72.73,1.74-.14.06-2.32.47-4.53.53-6.84-.65,0-1.27.1-2.27.15v4.27c0,1,2,.73,2-.15V153.9c0-1-1.75-.73-1.77.15-.06,2.31-.46,4.52-.52,6.83.65,0,1.29-.09,2.29-.14v-8.55c0-1-2-.72-2,.15Z"/><path class="cls-11" d="M146.19,220.09a17.71,17.71,0,0,1-8.73-5.11c-1.45-1.5-5.26-8-1.08-8.73,6.8-1.18,13.66-2.49,20.48-3.49s11.36.14,15,6c2.51,4,4,8.56,7,12.29.45.54,2.3-.15,1.79-.77-4.26-5.2-5.63-12.52-10.9-16.91-5.11-4.26-14-1.6-19.73-.46-4.74.94-9.49,1.55-14.24,2.38-1,.18-2.8.71-3.12,1.93-1.77,6.92,6.77,12.6,12.33,14,.64.16,2.28-.82,1.17-1.1Z"/><path class="cls-11" d="M176.41,219.4c-3.73-3.32-5.46-8.2-9.46-11.29-3.15-2.44-7.72-2.3-11.48-2-7.89.7-14,5.68-8.2,13.18.42.54,2.28-.14,1.79-.77-2-2.66-3.78-5.84-1-8.69s7.78-2.83,11.27-2.71c8.44.31,10,8.28,15.33,13,.53.47,2.34-.28,1.79-.77Z"/><path class="cls-11" d="M178,218.34c.16,2,1.5,1.73,3.27,2.15,2.8.66,4.23,2.34,3.72,5.14a30.75,30.75,0,0,1-2.25,6c-1.57,3.84-2.93,7.78-4.33,11.68-5.22,14.56-9.94,29.34-14.2,44.2.64-.14,1.79-.29,1.79-.43v-1.71c0-.32-2,0-2,.52v1.71c0,.36,2,0,2.08-.43q6.66-23.2,14.79-46c1.93-5.38,5.12-11,6.13-16.69.93-5.21-6.84-3.49-7.09-6.67,0-.36-1.95,0-1.91.52Z"/><path class="cls-11" d="M178,224.32c.38,8.22-3.78,15.35-7.46,22.39-2.15,4.13-3.11,8.36-4.29,12.83-1.31,5-2.65,9.9-4.11,14.81-.69,2.32-1.9,9.71-4.27,11-1.14.63.6.77,1.17.46,2.09-1.15,2.83-5,3.52-7,2-5.76,3.51-11.67,5.08-17.54,1.21-4.54,2.06-9.26,4.14-13.49,3.78-7.7,8.57-15.08,8.15-24,0-.53-2-.16-1.93.52Z"/><path class="cls-11" d="M148.1,222.26c-8,20.23-19.13,39.49-24,60.86-.2.9,1.77.65,2-.17,4.83-21.24,15.91-40.39,23.88-60.51.4-1-1.54-.93-1.84-.18Z"/><path class="cls-11" d="M142.07,222.61c.26,5.53-2.22,10.16-4.87,14.82s-4.57,9.43-6.91,14.19c-4.7,9.6-11,19.1-12.15,30,0,.24,1.87.06,1.93-.51,1.19-11.24,7.91-21.21,12.78-31.13,2.34-4.77,4.36-9.53,7-14.16,2.45-4.3,4.4-8.67,4.16-13.69,0-.32-1.95,0-1.93.52Z"/><path class="cls-11" d="M166,288.31c-1.7,3.36-7.43,4.35-10.68,5.34a39.29,39.29,0,0,0-7.74,2.86l1.53.05a5.08,5.08,0,0,1,1.64-2.44c.49-.51-1.41-.33-1.77.05a6,6,0,0,0-1.78,2.69c-.18.6,1.35.15,1.53.05,3.76-2.08,8.26-2.83,12.29-4.27,2.52-.89,5.62-2.1,6.9-4.62.21-.43-1.65-.25-1.92.29Z"/><path class="cls-11" d="M156.82,285.56c-4,2.8-9.7,3-12.95,6.94-.4.49.79.3,1,.25.63-.16,1.17-.71,1.71-.85,1.13-.3,1-.93-.17-.63-.63.16-1.17.71-1.71.85l1,.25c3.12-3.75,8.8-4,12.69-6.73.81-.56-1.13-.33-1.49-.08Z"/><path class="cls-11" d="M144.37,292.13c1.17.08,2.23.78,3.42.86l-.59-.29c.38,1.34.47,2.93-.66,3.94a3.06,3.06,0,0,1-2.77.47,2.81,2.81,0,0,1-2.23-2c-.37-1.64,1.19-3.23,2.27-4.21.3-.28.22-.6-.18-.69a1.7,1.7,0,0,0-1.37.37c-1.38,1.26-3.09,3.11-2.63,5.16.34,1.48,2,2.26,3.32,2.5a6.41,6.41,0,0,0,5-1.12,4.39,4.39,0,0,0,1.23-4.93c-.07-.24-.39-.28-.59-.29-1.17-.08-2.23-.78-3.42-.86-.73,0-2.06,1-.75,1.1Z"/><path class="cls-11" d="M124.05,284.05c-6,1.05-10.66,4.82-16.24,6.84.33.33.66.67,1,1a4.74,4.74,0,0,1,1.33-1.42c1.23-.49.14-1.61-.87-1.2s-1.37,1.06-2.09,2c-.53.69.36,1.24,1,1,5.56-2,10.33-5.79,16.24-6.84,1.23-.22.83-1.6-.37-1.39Z"/><path class="cls-11" d="M115.9,281.73c-3,2-6.72,3.87-10.39,4-1.1,0-1.48,1.48-.16,1.43,4.2-.15,8.37-2.29,11.83-4.54,1.1-.71-.48-1.42-1.28-.9Z"/><path class="cls-11" d="M104.2,287.74h3.42a1.61,1.61,0,0,1-.52-.11c.66.93,2,3,.92,4-.06.06-.34.22-.26.19a2.4,2.4,0,0,1-.83.16,7.07,7.07,0,0,1-2.05-.22,5.23,5.23,0,0,1-3.27-2c-.85-1.34.89-2.49,1.86-3,.28-.15.57-.57.16-.77a1.56,1.56,0,0,0-1.37.17c-1.57.88-3.63,2.52-2.4,4.47,1,1.51,3.23,2.18,4.89,2.4s4.3.1,5.3-1.61a2.88,2.88,0,0,0,0-2.59,9.56,9.56,0,0,0-1-1.73c-.49-.7-2.33-.35-3.08-.35h-1a1.5,1.5,0,0,0-1.28.48c-.25.37.21.52.53.52Z"/><path class="cls-11" d="M255.75,190.84c-.42,7-5.95,12.69-10.43,17.63-2.53,2.8-4.55,4.71-8.32,5.93a44.31,44.31,0,0,1-12.52,2.25c-.73,0-2,1.09-.75,1.09h1.84c.74,0,2.05-1,.75-1h-1.84c-.73,0-2,1.08-.75,1.08,5.26,0,16.48-1.31,20.21-5.68,5.31-6.23,13.22-12.76,13.74-21.52.05-.81-1.89-.44-1.93.22Z"/><path class="cls-11" d="M254.91,192.8c-1.83-.74-3.13-1.74-5.53-1.81a1.32,1.32,0,0,0-1.33.7c-2.64,7.89-8.33,14-14.61,19.26-3.63,3-13.14,2.39-15.08,7.81-1.36,3.82,4.74,7.85,6.86,10.3,5.59,6.44,9.05,14.58,12.58,22.25a78.22,78.22,0,0,1,4.15,9.38c.94,3,1.51,6.07,2.44,9.06.75,2.43,3.46,8.31,7,7.16,2.13-.7,3.77-2,6.22-1.88,3.3.15,6.59.91,9.88,1.3,4,.47,8.42.48,11.41-2.5a.44.44,0,0,0,.1-.59c-2.56-4-8.27-3.17-12.36-2.85-4.55.35-8.55.31-12-3.18-2.41-2.42-3.34-6-5.05-8.93-4.82-8.09-9.16-16.52-13.58-24.85-2.43-4.57-7.56-9.51-8.22-14.76-.09-.72-2-.27-1.93.52.33,2.65,2.35,5.3,3.71,7.51,2.27,3.69,4.54,7.31,6.62,11.12,5,9.11,9.45,18.62,14.79,27.5,3.91,6.51,9.75,6.68,16.62,6.15,2.65-.21,5.4-.38,7.89.75,1.91.9,1.65,1.84-.79,2.8a14.53,14.53,0,0,1-5.22.24c-4.42-.26-8.74-1.5-13.18-1.45-2.71,0-4.58,2.87-7,.63-3.36-3.11-4-8.83-5-13-1.23-4.73-3.81-9.13-5.85-13.56a129.48,129.48,0,0,0-7.63-14.46,67.89,67.89,0,0,0-9-10.72c-2.91-3-1.12-5,2.25-6.82,2.22-1.21,6.54-1,8.55-2.56,7.48-5.73,14.4-12.68,17.45-21.81l-1.33.7,3,1.26c0,.25.4.33.6.33a3.82,3.82,0,0,1,1.17,0c.63.26,2.38-.64,1.52-1Z"/><path class="cls-11" d="M166,222.61c0,5.86,1.65,14.39-1.69,19.58a2.39,2.39,0,0,0,1.9-.36c3.4-5.29,1.76-13.8,1.72-19.74,0-.25-1.93,0-1.93.52Z"/><path class="cls-11" d="M141.41,258.71c6.64,2.91,15.53,2.61,22.62,2.65.72,0,2.06-1.09.75-1.09-6.88,0-15.41.32-21.83-2.49-.57-.25-2.34.58-1.54.93Z"/><path class="cls-11" d="M176,260.37A126.72,126.72,0,0,0,201.67,257c5.29-1.17,10.57-2.42,15.87-3.54,2.41-.5,4.83-.94,7.26-1.35-.25,0-3.15,2.24-3.45,2.4-11.67,6.16-27.27,7.54-40.29,7.62-.55,0-2.11.84-.83.83a135.43,135.43,0,0,0,25.24-2.76c7.65-1.5,16.15-3.64,22.21-8.83.43-.37-.58-.35-.71-.33-16.78,2.64-33.07,8.31-50.19,8.52-.55,0-2.11.85-.82.83Z"/><path class="cls-11" d="M138.65,262.78c3,6,6,12,13.66,11.42,1-.08,1.59-1.24.25-1.13-6.79.55-9.44-5.69-12-10.81-.34-.69-2.23-.08-1.93.52Z"/><path class="cls-11" d="M138.65,263.63c2.74,6,8,11.73,14.71,13,.47.08,2.16-.68,1.58-.78-6.6-1.2-11.69-6.82-14.36-12.69-.23-.51-2.1.13-1.93.51Z"/><path class="cls-11" d="M223.27,256.8c.49,7.4-7.47,11.73-13.13,14.58l1.05,1c5.38-4.23,13.64-9.08,14-16.74,0-.93-1.64-.67-1.9,0-1.88,4.92-2.86,10.07-7.4,13.35-1.07.77.52,1.38,1.27.84,4.8-3.48,6-8.74,8-14l-1.89,0c-.36,7.23-8.25,11.74-13.34,15.75-.94.74.32,1.33,1.06,1,6.35-3.2,14.77-8,14.22-16.19-.06-.84-2-.39-1.93.52Z"/><path class="cls-11" d="M171.16,280.35c7,.12,14.07,1.57,20.78-.9.74-.27,1.2-1.21.14-1.41-5.05-1-9.72-1.39-14.43,1-.64.32-.77,1.24.1,1.32,9.48.88,20.63-.4,29-5.26,1.13-.66.1-1.75-.87-1.19-7.89,4.6-18.46,5.84-27.44,5,0,.44.07.88.1,1.32,4.23-2.13,8.47-1.58,12.92-.72,0-.48.09-.95.14-1.42-6.51,2.4-13.49.94-20.25.81-1.12,0-1.46,1.44-.16,1.47Z"/><path class="cls-11" d="M143.46,257.09c2.41-.9,4.43-2.51,6.84-3.42,1.08-.4.34-1.45-.6-1.2a20.86,20.86,0,0,0-9.18,5.5l1.78.2c.29-5.47,7.46-8.27,10.94-11.61.87-.84-1-1.13-1.61-.55-3.73,3.58-11,6.36-11.28,12.32,0,.95,1.38.58,1.78.19a17.94,17.94,0,0,1,7.92-4.76l-.6-1.19c-2.4.9-4.43,2.51-6.84,3.42-1.24.46-.14,1.47.85,1.1Z"/><path class="cls-11" d="M204.64,243.24c5.44,1.11,9.79,4.81,14.41,7.65l1.09-.7c-3.45.58-6.38-2-8.67-4.24l-1.7.71c3.62,1,7.29,2.45,9.22,5.86.28.49,2.1-.22,1.94-.51-2-3.54-5.81-5.12-9.58-6.11-.28-.07-2.1.33-1.7.71,2.86,2.78,6,5,10.13,4.31.1,0,1.49-.45,1.09-.7-4.7-2.88-9.11-6.61-14.65-7.74-.46-.09-2.14.65-1.58.76Z"/><path class="cls-11" d="M211.77,240.74h-3.42c-.38,0-2,.5-1.12,1,5.8,3.4,10.54,7.95,15.26,12.67.53.53,2.36-.24,1.78-.82-4.8-4.8-9.63-9.49-15.52-12.94-.37.37-.74,1.08-1.12,1.08h3.42c.8,0,2-1,.72-1Z"/><path class="cls-11" d="M162,243.43c2.39,2.07,6.36,1,9.21,1,1.11,0,1.48-1.46.16-1.44-2.38,0-5.91,1-7.88-.7-.66-.58-2.34.39-1.49,1.13Z"/><path class="cls-11" d="M180.27,246c7,0,16.62.14,20.93-6.51.25-.39-.2-.6-.53-.6-3.78,0-8.17.26-11.57-1.62-.57-.32-2.35.5-1.53,1a13,13,0,0,0,5,1.46c1.49.17,3,.26,4.46.31,1.76.06,2.77-.54.88,1.34-4,4-11.68,3.54-16.85,3.54-.74,0-2,1.13-.74,1.13Z"/><path class="cls-11" d="M170.84,238.12c-2.46,1.06-5.1,1-7.23,2.82-.86.74.92.9,1.41.57,2.42-1.63,5.11-3.77,8.21-3.19.14-.39.28-.77.43-1.15-3.89.94-9.25,1.34-11.88,4.78-.16.21,0,.43.16.57a6.07,6.07,0,0,0,3.82,1c.81,0,2-1.22.71-1.23-.48,0-3-.06-2.42-.69a9.05,9.05,0,0,1,3.71-1.77c2-.63,4.13-1,6.2-1.49.45-.11,1.34-1,.42-1.15-4-.75-7.37,1.48-10.59,3.65l1.4.57c1.76-1.52,4.39-1.41,6.45-2.31,1.23-.53.12-1.34-.8-.94Z"/><path class="cls-11" d="M182.81,245.05c4.66,0,13.87.83,14.18-5.86,0-.45-1.9-.16-1.93.51-.26,5.49-7.62,4.42-11.46,4.4-.62,0-2.09.94-.79,1Z"/><path class="cls-11" d="M202.82,242.39c2.41,2.21,5.93,2.7,9.08,2.74.74,0,2-1.1.74-1.12-2.77,0-5.9-.43-8-2.38-.52-.47-2.33.27-1.8.76Z"/><path class="cls-11" d="M186.67,239.46c2.35-3.42,2.64-7.55,4.34-11.25.32-.7-1.61-.17-1.86.11-3.19,3.55-3.36,9.35-4.23,13.81.65-.12,1.05-.25,2.05-.38v-12a19.25,19.25,0,0,0-2.05.52c0,1.31-.6,4.68,1,5.33.57.23,2.3-.6,1.52-.92-1.08-.44-.6-4.08-.6-4.93,0-.57-1.86-.21-1.86.52v12c0,.6,1.74.16,1.85-.39.85-4.35,1.07-10.09,4.16-13.53l-1.88.11c-1.65,3.61-1.92,7.64-4.21,11-.5.72,1.43.53,1.78,0Z"/><path class="cls-11" d="M154.32,255.49c5.13-1.24,9-5.33,12.6-8.93.86-.85-1-1.16-1.61-.56-3.23,3.22-6.74,7.06-11.34,8.17-1.2.29-.84,1.61.35,1.32Z"/><path class="cls-11" d="M160.19,254.9c1.19-2.23,3.24-4.05,5-5.82.84-.84-1-1-1.59-.47-1.87,1.87-4,3.79-5.25,6.15-.48.91,1.48.81,1.83.14Z"/><path class="cls-11" d="M162.72,253.07c1.88-1.84,4.1-3.29,6-5.13.33-.32-.28-.39-.47-.38a2.13,2.13,0,0,0-1.29.48c-1.88,1.84-4.1,3.29-6,5.13-.33.32.28.39.47.38a2.13,2.13,0,0,0,1.29-.48Z"/><path class="cls-11" d="M185,248.5c2.29,1.56,4.37,3.4,7,4.35.71.26,2.26-.77,1.14-1.17-2.49-.9-4.48-2.73-6.65-4.2-.61-.42-2.36.45-1.51,1Z"/><path class="cls-11" d="M192.52,247.74h3.42c.42,0,1-.12,1.07-.57s-.52-.43-.89-.43H192.7c-.42,0-1,.12-1.07.58s.52.42.89.42Z"/><path class="cls-11" d="M197.7,248.38a3,3,0,0,1,.78,2.29c0,.85,1.94.45,1.94-.23a3.82,3.82,0,0,0-.93-2.84c-.49-.51-2.33.21-1.79.78Z"/><path class="cls-11" d="M143,260.29c6.38,5.79,16.38,4.93,23.7,1.53,1.16-.54-.65-.53-1.13-.31-6.56,3.05-15.15,3.18-20.75-1.89-.4-.36-2.15.37-1.82.67Z"/><path class="cls-11" d="M163.44,223.33c-1.52,3.38-.91,6.81-.86,10.39,0,.62,1.94.23,1.94-.52,0-3.09,0-6.42-.86-9.4-.22-.74-1.73-.09-1.93.38a10.5,10.5,0,0,0-.86,4.28c0,.8,1.93.39,1.94-.25a10.47,10.47,0,0,1,.85-4.27l-1.93.38c.9,3,.85,6.31.85,9.4l1.94-.52c-.06-3.48-.62-6.83.85-10.12.27-.59-1.65-.38-1.93.25Z"/><path class="cls-11" d="M177.67,289.38c-4.87,2.19-8.53,7.54-12.42,11.11-4.71,4.32-9.69,8.33-14.26,12.8-4.16,4.08-13.31,12.64-8,18.87,1.79,2.09,6.22,2.2,8.69,2.51,5.15.65,10.29,1.18,15.44,1.87,13.23,1.78,26.86.63,39.93-1.77,11.34-2.08,22.61-5.62,33.69-8.83,9.88-2.86,19.64-6.34,28.56-11.53,7.23-4.21,15.54-11,17.21-19.63,1.4-7.22-7.83-9.35-13-10.2-14.33-2.35-27.66-4.75-40.84-11.23-.37.39-.74.39-1.11,1.39h2.57c.84,0,2-2,.7-2h-2.56c-.37,0-2.05.82-1.11,1.28a121.69,121.69,0,0,0,33.76,10.59c6.62,1.15,21.43,1.13,19.46,11.32s-14.61,17.22-23,21.22c-9.72,4.63-20.22,7.51-30.58,10.28-11.93,3.18-23.59,6.53-35.92,7.9C182,336.75,170,335,157.24,333.87c-4.23-.37-11.93.11-13.74-4.63-1.73-4.51,4.06-10.22,6.72-13.09a140.25,140.25,0,0,1,11.1-10.29q4.22-3.66,8.28-7.47c2.71-2.52,5.47-6.48,8.89-8,1.21-.55.12-1.41-.82-1Z"/><path class="cls-11" d="M191.8,298c-2.53-3.48-4.71-7.12-7.69-10.25-.18.25-.35.51-.52.77l12.82-5.13-1.35-.14a57.44,57.44,0,0,0,6.05,12.09l.52-.77c-.93.46-6.18,2.24-6.35,2.83.2-.69-1.74-.4-1.93.25-.66,2.38,8.38-2,9-2.3.27-.13.78-.4.52-.77A56,56,0,0,1,197,282.78c-.19-.48-1-.27-1.34-.14l-12.82,5.13c-.23.09-.82.45-.52.77,3,3.13,5.16,6.78,7.69,10.26.39.52,2.25-.13,1.8-.76Z"/><path class="cls-11" d="M206.38,300.8c2.69-3.64,3.71-9.41,5.13-13.67l-1.75.54c5.29,1.08,9.2,5.23,13.69,7.93.62.37,3.41,1,2.51,2.45-.77,1.22-1.69,2.36-2.57,3.5-2.08,2.7-4.26,5.28-6.09,8.16l1.86-.5c-1.52-1.14-3.06-2.27-4.63-3.34-1.23-.85-4.86-3.72-6.31-3.66.37,0,2.18-.78,1.26-.74-1.28,0-2.74.09-3.29,1.4a.09.09,0,0,0,0,.14,55,55,0,0,1,11.11,6.84c.37.28,1.63-.14,1.86-.5,2.85-4.49,6.56-8.33,9.4-12.82a.09.09,0,0,0,0-.14c-6.31-2.14-10.59-8.08-17.21-9.44-.37-.07-1.61.1-1.75.54-1.42,4.26-2.44,10-5.13,13.67a2.54,2.54,0,0,0,1.9-.36Z"/><path class="cls-11" d="M212.79,287.18c4.4.36,7.51-1.79,11.33-3.65,4.84-2.37,12,7.06,15.61,9.48.11-.39.21-.78.31-1.17-3.62,1.65-7.49,2.63-11.11,4.28-1.2.54-.14,1.64.87,1.18,3.62-1.64,7.48-2.63,11.11-4.27.42-.19.82-.82.3-1.16-4.71-3.13-8.19-7.88-13.53-10.06-4.51-1.84-9.43,4.32-14.23,3.92-1-.08-2,1.34-.66,1.45Z"/><path class="cls-11" d="M238.81,294.72c-1.77,2.58-4.14,4.88-5.24,7.86-.39,1.05,1.55,1,1.84.22,1.06-2.85,3.33-5,5-7.51.69-1-1.12-1.31-1.62-.57Z"/><path class="cls-11" d="M225.73,312.53a22.25,22.25,0,0,0,4.29-4.64c1-1.33,1.89-3.64,3.71-3.64.37,0,1.24-.32,1.24-.78v-.85a6.09,6.09,0,0,0-1.72.72c3.36.78,6.51,2,9.85,2.84a27.43,27.43,0,0,0,3.24.56c1.33.17-.58,3.4-.84,4-1.88,4.14-5.07,5.19-9.26,3.79-2.21-.73-7.41-2.15-8.47-4.36-.4-.84-2.31-.28-1.93.51,1.68,3.52,10.06,5.86,13.56,6,5.8.27,8.26-5.92,9.69-10.45a.6.6,0,0,0-.59-.81c-5-.23-9.34-2.25-14.15-3.36-.47-.11-1.38,0-1.38.72v.85c0-.26.55-.52.91-.78-4.7,0-5.84,6.1-9.35,8.82-1,.8.44,1.45,1.2.87Z"/><path class="cls-11" d="M219.56,308.74h6.84c.6,0,2.09-1,.8-1h-6.84c-.6,0-2.09,1-.8,1Z"/><path class="cls-11" d="M184.87,310.75c4.16,4.09,8.75,7.89,12,12.82.28.43,1.58,0,1.79-.38,2.68-4.47,7.16-13.43,13.25-13.17.29,0,2-.69,1.17-.92-4.06-1.22-8.11-3.27-10.82-6.61-.88-1.09-1.46-1.57-2.93-1.42-4.7.47-8.22,3.66-11.73,6.64-.82.7,1.11.58,1.53.22,2-1.7,7.94-7.61,10.62-5.62,1.6,1.18,2.62,3,4.39,4.16a27.78,27.78,0,0,0,7.38,3.5l1.17-.93c-7.68-.33-12.45,8.57-15.81,14.18l1.79-.37c-3.21-4.93-7.8-8.73-12-12.83-.43-.43-2.25.29-1.8.73Z"/><path class="cls-11" d="M199.18,302.93a10.51,10.51,0,0,1,4.15-1.45,1.73,1.73,0,0,0,1.28-.5c.28-.36-.23-.51-.5-.5a14.9,14.9,0,0,0-6.1,2c-.25.12-.61.51-.19.68a1.72,1.72,0,0,0,1.36-.2Z"/><path class="cls-11" d="M210.16,310c2-.07,3.51-1.08,5.25-2,.2-.1.63-.46.21-.6a1.86,1.86,0,0,0-1.36.22c-1,.54-2.09,1.41-3.3,1.45a1.91,1.91,0,0,0-1.29.48c-.3.34.26.43.49.43Z"/><path class="cls-11" d="M187.08,294.54a32.88,32.88,0,0,0-10.76,8.95c-.23.3.08.54.33.63,2.64.95,5,2.43,7.91,2.6.81,0,2-1.14.72-1.21-2.67-.16-5-1.64-7.48-2.53l.33.62a30,30,0,0,1,9.75-8.14c1.18-.61.1-1.38-.8-.92Z"/><path class="cls-11" d="M168.57,311.5c-.2,5-2.37,9.55-2.57,14.53,0,.2.47.2.57.2,5.14-.08,10.24-.78,15.38-.86.39,0,1.36-.2,1.37-.71A35.23,35.23,0,0,1,185.88,312c.05-.14-.07-.23-.18-.27-4.36-1.49-8.68-1-13.2-.9-.6,0-2.1.94-.8.92,2.14,0,4.27-.18,6.41-.22a17.21,17.21,0,0,1,4.74.59c1.49.35.2,2.62,0,3.26a32.18,32.18,0,0,0-1.45,9.84l1.36-.71c-2.34,0-4.66.18-7,.37l-4.2.33c-1.74.12-3.79,1-3.44-2,.46-4.13,2.21-7.94,2.38-12.14,0-.42-1.91-.13-1.93.52Z"/><path class="cls-11" d="M181.16,326.46a10.05,10.05,0,0,1,6.29,3.15,1.19,1.19,0,0,0,1.86-.5c1-3.35,3.41-5.79,5.81-8.2.86-.85-1-1.13-1.61-.54-2.63,2.64-5.08,5.25-6.15,8.9l1.86-.5a11.8,11.8,0,0,0-7.38-3.69c-.92-.06-2,1.29-.68,1.38Z"/><path class="cls-11" d="M166.36,327.94c8.8,1.09,16.88,4.63,25.12-.25,1.12-.66-.62-.74-1.16-.42-7.28,4.32-15.1.69-22.74-.25-.51-.06-2.26.79-1.22.92Z"/><path class="cls-11" d="M205.32,318.34a54.35,54.35,0,0,0,3.42,10.25c.24.51.94.46,1.38.25,4.09-1.95,9.9-2.92,12.79-6.71,3.32-4.37-5-7.61-7.19-9.59-.59-.54-2.42.24-1.78.82,2.19,2,10.44,5.19,6.7,9.06-2.77,2.89-7.83,3.72-11.35,5.4l1.38.26a55.17,55.17,0,0,1-3.42-10.26c-.21-.82-2.14-.31-1.93.52Z"/><path class="cls-11" d="M141.22,331.16c2.09,6.92,7,16.81,14.9,18.21.62.11,2.28-.85,1.18-1.05-7.47-1.33-12.19-11.18-14.15-17.68-.21-.68-2.13-.15-1.93.52Z"/><path class="cls-11" d="M161.07,350.16c10.78,4.54,23.15,3.53,34.58,3.49,13.11,0,26.21-.87,39-4a74,74,0,0,0,32.57-17.18c10.21-9.42,15-23.12,19.54-35.85.22-.63-1.71-.38-1.93.26-4.34,12.12-8.81,24.81-18,34.19-8.81,9-20.39,14.46-32.41,17.65-11.83,3.13-24.23,3.81-36.41,3.9-11.61.1-24.43,1.27-35.36-3.34-.56-.23-2.33.59-1.54.92Z"/><path class="cls-11" d="M249.76,294.25a27.63,27.63,0,0,1-.79,7.69c.64-.07,1-.14,2-.2v-8.55c0,.23-.79.47-1.15.7,4.54-.35,8,1.44,11.24,4.5a40.88,40.88,0,0,1,3,3.3c1.51,1.77,0,5.33-2.6,4.75-4.13-.92-6.45-5.67-10-7.67-.62-.35-2.38.52-1.52,1,4.11,2.31,9.09,11.07,14.67,7,1.33-1,1.94-2.67,2.45-4.17.29-.86-3.63-4.34-4.27-5a15.64,15.64,0,0,0-12.8-4.9c-.32,0-1.05.27-1.05.7v8.55c0,.93,1.72.46,1.91-.2a27.7,27.7,0,0,0,.84-7.7c0-.89-2-.51-2,.21Z"/><path class="cls-11" d="M229.25,316.63a4.32,4.32,0,0,1-.66,2.17c-.11.17-1,.93-1.05,1.25a19.9,19.9,0,0,1-.42,3c-.13.71-1.11,3.48-.63,4.14.25.37,1.22,0,1.52-.14a1.15,1.15,0,0,0,.59-.56c.13-.24-1.64-.13-1.9.35-.16.24-.1.23.2,0l1.52-.14c-.21-.3.11-1.3.15-1.57.19-1.08.41-2.15.6-3.23.13-.72,0-2,.57-2.5a4.78,4.78,0,0,0,1.44-3.23c0-.25-1.89,0-1.93.52Z"/><path class="cls-11" d="M233.52,316.63c.5,1.36,5.71,1.34,6.82,1.46,1.51.15,3,.27,4.53.35,1,.05.35.21.27,1.14-.14,1.57.08,3.16-.49,4.66-.12.32,1.72.13,1.9-.35.74-1.95.13-4.05.86-6,.07-.19-.21-.2-.32-.21a61.69,61.69,0,0,1-6.24-.45c-.81-.09-5-.18-5.39-1.13-.16-.44-2.07.15-1.94.52Z"/><path class="cls-11" d="M247.58,310.92c4.46.82,11,.37,14.22,4.12.44.52,2.29-.17,1.79-.76-3.41-4-10.12-3.56-14.83-4.43-.63-.11-2.29.86-1.18,1.07Z"/><path class="cls-11" d="M197.7,323.62a40,40,0,0,1,7.42,10c.43.82.95,2,2.06,1.85s1.55-1.11,1.79-2.13-1.77-.61-1.95.18a3.52,3.52,0,0,1-.27.89c.94.06,1.21-.1.82-.47a7.53,7.53,0,0,1-.78-1.35c-.46-.92-.89-1.85-1.4-2.75a34.17,34.17,0,0,0-5.91-7.07c-.58-.58-2.41.18-1.78.82Z"/><path class="cls-11" d="M185,330.3v4.28c0,.19.3.16.39.16h1.71c.56,0,2.11-1,.82-1h-1.71a1.9,1.9,0,0,1,.79.32v-4.28c0-.38-2-.08-2,.52Z"/><path class="cls-11" d="M238,289.36a14.93,14.93,0,0,1,6.45-.16,13.2,13.2,0,0,1,2.2.73c.87.34.47,2.08.47,2.76,0,.39,1.85.09,1.85-.51v-2.57c0-.07,0-.12-.1-.13a16.47,16.47,0,0,0-11.09-.81c-1.15.27-.91.95.22.69Z"/><path class="cls-11" d="M208,287.78c-1.47-2.25-2.81-4.58-4.28-6.83l-1.27.93a26.17,26.17,0,0,0,6.89-1.37c4-1.21,5.65.88,7.05,4.49.26.69,2.17.11,1.93-.51-1-2.69-2.35-5.25-5.47-5.58s-6.41,1.77-9.65,1.86c-.37,0-1.68.31-1.27.93,1.47,2.26,2.8,4.59,4.27,6.84.36.55,2.23-.08,1.8-.76Z"/><path class="cls-11" d="M166.62,316.09c-3.49,1.46-7.35.76-11,.7-.41,0-1.41.09-1.57.59-1.89,5.78-.05,12.74-4.2,17.84-.2.24,0,.36.26.39,5.27.49,9.4-3.9,14.53-3.42.47,0,2.24-.78,1.24-.87a11.4,11.4,0,0,0-4.92.53c-1.05.36-2.05.78-3.06,1.22-.54.24-6.17,2.24-5.58,1.17a30.34,30.34,0,0,0,2.6-7.35c.75-3.25,0-6.56,1-9.82l-1.57.59c4.4.07,8.75.73,12.93-1,1.26-.53.07-.87-.7-.55Z"/><path class="cls-11" d="M262.28,298.16c1.89-1.05,4.05-2.33,6.3-2s3.54,3.28,4.26,5.12c.36.91,2.28.36,1.93-.52-.95-2.42-2.32-5.35-5.14-6s-5.77.84-8.22,2.22c-1.15.64-.11,1.74.87,1.19Z"/><path class="cls-11" d="M102,293.7c3.55,4.26,11.56,6.7,16.87,7.16a122.31,122.31,0,0,0,16.69,0A81.49,81.49,0,0,0,155.25,298c3.31-1,7.49-2.75,8.42-6.46.21-.86-1.75-.59-1.95.18-1,4.07-6.94,5.24-10.39,6.05a94,94,0,0,1-16.65,1.95,133.23,133.23,0,0,1-14,0c-5.39-.3-13.37-2.49-16.94-6.77-.51-.61-2.36.12-1.77.82Z"/><path class="cls-11" d="M159.34,293.93c-3.86,3.54-9,5.49-13.69,7.52-5,2.15-10,4.39-14.92,6.9-11,5.67-21.65,12.72-34,15.15-.25.05-.82.33-.82.66.18,10.26,3.12,21.9,14.15,24.72,8.92,2.29,20.93-.57,26.19-8.52.54-.81-1.42-.71-1.82-.12-5.72,8.65-21.66,11.15-29.73,4.45-3.3-2.74-4.68-7.61-5.69-11.6A44.55,44.55,0,0,1,98,327c-.4-3.67,4.09-3.58,6.81-4.5C115.87,318.73,125.74,312,136.2,307c8.12-3.94,18-6.39,24.72-12.59.86-.79-1-.91-1.58-.43Z"/><path class="cls-11" d="M95.65,323.68c-4.92,2.38-11.1-.06-16.12-1-6.19-1.14-12.42-3.93-18-6.81-9-4.68-12.34-11.31-12.43-21.15l-1.35.79c15.5.1,31,2.35,46.4,0,.91-.13,1.62-1.23.28-1-15.27,2.33-30.58.08-45.91,0-.45,0-1.36.21-1.35.79,0,4.7.36,9.18,2.86,13.27,2.82,4.62,8.39,7.56,13.08,9.84a82.18,82.18,0,0,0,19.08,6.13c4.67,1,9.7,2.1,14.18-.06,1.22-.59.1-1.16-.75-.76Z"/><path class="cls-11" d="M44.63,297.66c.51,31.21,33.42,59.17,64.37,50.91,1.18-.31.87-1.47-.31-1.16-30,8-61.63-20-62.12-49.94,0-.93-2-.56-1.94.19Z"/><path class="cls-11" d="M254.23,275.8c3.21,1.93,7.28,1.5,10.85,1.16,7.24-.69,14.22-1.84,21.55-1.93,5.42-.07,10.83,0,16.25-.27,3-.16,6.41-.27,9.13-1.72,1.15-.61-.59-.85-1.19-.53-3.29,1.76-8.41,1.3-12,1.4-4.42.12-8.84,0-13.27.09a89.54,89.54,0,0,0-15.25,1.21c-4.43.83-10.42,2.14-14.5-.32-.52-.31-2.31.45-1.55.91Z"/><path class="cls-11" d="M312.16,273.89c-.51,12.54-12.72,22.15-23.33,26.77-.54.24-.9.82,0,.8a7.31,7.31,0,0,0,4.57-1.23c.86-.58-1.09-.49-1.52-.2-2.89,2,.68-.11,1.32-.43a41,41,0,0,0,3.68-2.14,51.21,51.21,0,0,0,8-6.27c4.95-4.9,8.93-10.65,9.22-17.82,0-.46-1.9-.15-1.93.52Z"/><path class="cls-11" d="M266.09,248.41c1.93,2.17,5.43,2.54,8.13,3.05,4.68.9,9.22,1.38,13.78,2.85,8.44,2.74,22,7.11,24.16,17,.19.88,2.13.38,1.93-.52-1.91-8.71-12.2-13-19.63-15.89a58.93,58.93,0,0,0-11.72-3.64c-4.13-.67-11.91-.39-14.89-3.71-.58-.65-2.41.13-1.76.84Z"/><path class="cls-11" d="M69.62,309.68c-5.09.43-3.44-6.47-3.38-9.63l-1.32.78c2.1.13,3.63,1.65,5.66,1.73a32.62,32.62,0,0,1,6.11,1.09c1.21.28,10,2.29,8.17,4.74-1.38,1.88-6,2.11-8,2.39a60.36,60.36,0,0,1-8.06.61l.56,1.14c1.09-.92,2.33-1.63,3.42-2.56s-.55-1.5-1.28-.88c-1.09.93-2.33,1.64-3.42,2.57-.66.56-.19,1.15.55,1.14a64.75,64.75,0,0,0,10.86-1.05c2.34-.42,6.24-1,7.44-3.45,1.32-2.68-4.21-4.64-5.82-5.1a76.44,76.44,0,0,0-7.76-1.78c-2.66-.47-5-1.83-7.72-2-.44,0-1.3.18-1.31.77-.08,4.53-1.49,11.46,5.17,10.89,1.08-.09,1.49-1.52.17-1.41Z"/><path class="cls-11" d="M79.82,301.83c2.39-3.36,4.06-7.2,6.84-10.26l-1.49.49c5.39.38,9.57,5.4,11.6,10l1.36-.75c-3.73.07-7.39.76-11.11.85-.64,0-2.08,1-.78,1,3.72-.09,7.38-.77,11.11-.85.24,0,1.57-.26,1.35-.75-2.11-4.8-6.06-9.31-11.36-10.41-1.55-.32-2.21.15-3.2,1.24-2.5,2.74-4,6.43-6.1,9.44-.46.66,1.46.43,1.78,0Z"/><path class="cls-11" d="M72.2,299.12a13.45,13.45,0,0,1,.88-3.91c.51-1.19,1.13-1.21,2.17-.67a15.87,15.87,0,0,1,4.49,4.23c.34.42,2.18-.23,1.81-.7-1.6-2-3.81-4.73-6.58-4.88-3.53-.19-4.39,3.43-4.69,6.23-.06.62,1.86.23,1.92-.3Z"/><path class="cls-11" d="M62.18,301.17c-2.37-.14-5.08,0-6.88,1.75-1.28,1.22-1.06,3-.26,4.45,2.55,4.46,8.78,4.05,12.56,1.72,1.11-.69-.51-1.29-1.26-.82-3,1.85-7,1.65-9.23-1.28a3,3,0,0,1-.48-3.22c.83-1.49,3.48-1.34,4.87-1.26.9.05,2-1.27.68-1.34Z"/><path class="cls-11" d="M85.85,310.81c5.44,2.56,7.38,12.47-1.08,11.85-3.15-.23-6.57-1.74-7.85-4.79-1.46-3.46,2-6.55,4.48-8.24.86-.58-1.09-.48-1.52-.2-3.26,2.2-6.66,5.79-4.44,9.9,1.9,3.53,7.25,4.72,10.89,4.24,8.13-1.08,7.66-10.51,1.08-13.61-.49-.23-2.28.51-1.56.85Z"/><path class="cls-11" d="M93.35,309.79c1.89,5.84,9.53,1.69,10.74-2.49.91-3.09-1.91-5-4.45-5.95-1.94-.69-5.17-1.77-6.68.08-2,2.42-2,5,.59,6.87.55.4,2.32-.39,1.53-1-2.44-1.79-1.85-4.18,0-6.17l-1.15.39c3.53.35,10.47,2.1,7.74,7.08-1.42,2.59-5.2,4.35-6.41.63-.23-.72-2.15-.18-1.93.52Z"/><path class="cls-11" d="M102,302.13c5.31-7.74,11.9,4.25,14.54,8.68l1-1.14c-3.73,0-8.76,1.19-12.16-.7-.75-.42-2.44.59-1.49,1.12,3.92,2.19,9.21,1.07,13.48,1,.55,0,1.33-.54,1-1.14-3.47-5.81-11.35-18-17.93-8.42-.7,1,1.11,1.34,1.62.59Z"/><path class="cls-11" d="M95.91,312.19c-.43,4,.65,7.86,5.4,6.09,4.35-1.62,7.37-5.25,11.37-7.4,1.16-.63.1-1.48-.82-1-2.69,1.45-5,3.63-7.51,5.34-1.38.94-3.24,2.27-5,2.24-2.19-.05-1.63-4.24-1.5-5.47.09-.91-1.87-.59-2,.19Z"/><path class="cls-11" d="M117.31,306.74H125c1.1,0,1.49-1,.17-1h-7.69c-1.1,0-1.48,1-.17,1Z"/><path class="cls-11" d="M106.21,318.74h1.71c.44,0,1-.08,1.06-.56s-.5-.44-.91-.44h-1.71c-.44,0-1,.09-1.06.56s.5.44.91.44Z"/><path class="cls-11" d="M261.79,258.2c-1.78,3.16.48,8.08,4.52,7,2.21-.59,3.21-2.94,3.74-4.94a5.94,5.94,0,0,0-.22-4.39c-2.31-4.08-11.12-.42-8.92,4.15a6,6,0,0,0,1.75,2c.58.46,2.38-.31,1.78-.79-1.46-1.17-2.75-3.08-1.21-4.75a3.32,3.32,0,0,1,3.94-.81c2.33,1.34,1,5.46,0,7.16s-2.07,1.53-3.19.21a4.29,4.29,0,0,1-.4-4.78c.48-.86-1.47-.71-1.81-.1Z"/><path class="cls-11" d="M272.85,258.41c-.86,4.09,3.28,6.1,6.77,5.34.3-.07,1.11-.21,1.14-.63.13-2-.18-4.32-2.1-5.39a6,6,0,0,0-4.91,0c-1.32.51-2.79,1.49-3.07,3-.35,1.89,1.63,3.14,3.07,3.81a1.75,1.75,0,0,0,1.25-.09c.06,0,.9-.42.57-.57-1.29-.61-2.86-1.52-3-3.11a2.83,2.83,0,0,1,1.81-2.53,2.94,2.94,0,0,1,2.93.44c1.49,1.1,1.61,3.26,1.5,4.93L280,263a4.25,4.25,0,0,1-5.2-4.92c.1-.47-1.8-.16-1.91.33Z"/><path class="cls-11" d="M279.83,263.92c-3.38,3.77,5.52,7.18,8,7.83a1.19,1.19,0,0,0,1.53-.75c.69-3.06-.22-6.85-3.1-8.53a3.26,3.26,0,0,0-3.25-.11c-1.28.75-1.57,2.28-1.6,3.65,0,1,1.95.79,2-.13,0-.67,0-2,.67-2.4.5-.29,1.49.65,1.78.95a7.28,7.28,0,0,1,1.57,6.7l1.53-.74c-1.55-.41-9.67-3.35-7.43-5.85.82-.92-1-1.3-1.63-.62Z"/><path class="cls-11" d="M285,261.63c1.37-1.35,3.4-3.36,5.52-3.18a3.19,3.19,0,0,1,2.61,2.29,3.49,3.49,0,0,1-.55,3.31,1.64,1.64,0,0,1-1.3.62c-1.28.06-1.89-2.29-1.93-3.26,0-.45-2-.1-1.93.52.06,1.49.95,3.59,2.66,3.63a6.24,6.24,0,0,0,3.22-.75,3.89,3.89,0,0,0-1.89-7.26c-3.19-.14-6,2-8.18,4.16-.33.32.28.41.48.4a2,2,0,0,0,1.29-.48Z"/><path class="cls-11" d="M278,254.23c.09,3.58,3.24,4.24,6.2,3.57.25-.06.79-.25.85-.55a5.56,5.56,0,0,0-1.31-5.13,5,5,0,0,0-4.88-1.12c-.23.05-1,.31-.86.67s.84.2,1.07.15c3.14-.67,4.59,3.31,4.06,5.72L284,257c-2.42.55-4-.89-4.05-3.27,0-.5-1.95-.15-1.93.51Z"/><path class="cls-11" d="M261.43,254.34c-.8.31-2.37-.48-3.14-.71a9.63,9.63,0,0,0-3.28-.44c-1.63.08-3.69,1.47-3.83,3.21-.12,1.56,1.62,2.51,2.9,2.79a5.77,5.77,0,0,0,5.13-1.57c.87-.79-1-1-1.58-.45a2.87,2.87,0,0,1-3.57.39c-1.24-.71-1.09-2,0-2.77,1.32-1,3.67.22,5.06.6a4.85,4.85,0,0,0,3.17-.07c1.24-.48.13-1.35-.82-1Z"/><path class="cls-11" d="M269.64,267a3.63,3.63,0,0,0-1.07.3c-.19.1-.95.6-.63.55-.42.07-1.38.43-1,1,1.2,1.87,3.23,3,5.43,2.1a5.52,5.52,0,0,0,3.27-5.16c0-.9-1.92-.54-1.94.2a4.65,4.65,0,0,1-1.63,3.76c-1.32,1-2.71-.7-3.34-1.69-.34.33-.67.67-1,1a3.35,3.35,0,0,0,1.08-.31c.18-.09.95-.6.63-.55,1-.14,1.55-1.42.22-1.22Z"/><path class="cls-11" d="M294.21,266.2c.2,4.05,4.74,5.46,8.14,4.23,1.54-.55,1.54-3.53,1.44-4.87a6.45,6.45,0,0,0-3.43-5.08c-.49-.27-2.06.53-1.82.66,3.42,1.89,4.08,5.87,2.52,9.24l1.13-.52c-3,.64-5.89-1-6.05-4.18,0-.34-2,0-1.93.52Z"/><path class="cls-11" d="M266,254.23v.86c0,.25,1.94,0,1.94-.52v-.85c0-.26-1.94,0-1.94.51Z"/><path class="cls-11" d="M266.49,247.44c-5.28.14-10.15,2.41-15.38,2.57.07.28.14.56.22.83,1.11-.77,2.79-1.07,4.06-1.59s.1-1.17-.77-.8c-1.52.63-3.13.87-4.49,1.82-.48.33-.46.86.23.84,5.25-.16,10.12-2.43,15.38-2.57.72,0,2.05-1.13.75-1.1Z"/><path class="cls-11" d="M235.43,256.38c-1.27,1.09-3,1.56-4.28,2.66a3.84,3.84,0,0,1,1.15-.3h-.85c-.47,0-1.35.12-1.34.71a14.4,14.4,0,0,0,.85,5.94c.3.67,2.19.05,1.93-.54a14.66,14.66,0,0,1-.85-6l-1.35.79a3.46,3.46,0,0,0,2.39-.69c1.24-.86,2.74-1.26,3.89-2.26.85-.73-1.07-.72-1.54-.32Z"/><path class="cls-11" d="M51.67,284.05c-1.49.14-1.75.08-2.6,1.28a.57.57,0,0,0,.47,1c7.92.55,15.79,1.75,23.69,2.51,3.12.31,6.28.52,9.41.52,2.88,0,7.07-1.32,9.08,1,.57.65,2.41-.12,1.78-.84l-.78-1.55c0-.36-.6-.46-.88-.43a100.76,100.76,0,0,1-21.61-.41c-6.12-.65-12.81-2.17-18.74-1.63,1.07-.09,1.5-1.5.18-1.38Z"/><path class="cls-11" d="M51.34,281.64a24.27,24.27,0,0,0,6.6-5.94c3.89-4.7,7.37-8.07,13.38-9.91,8.63-2.64,17.91-1.61,26.56-4.46,1.13-.37.87-1.42-.28-1-9.12,3-18.88,2.11-28,4.92a23.86,23.86,0,0,0-8.69,4.87C57,273.51,54.8,278.31,50.12,281c-1.13.65.55,1,1.22.63Z"/><path class="cls-11" d="M100.25,262.48c-1.15,2.27,2.81,4.4,4.29,5.32,2.83,1.74,6.52,3.7,9.93,3.85.77,0,2-1.11.73-1.16-2.62-.12-5.3-1.6-7.58-2.79-1.12-.59-6.51-3.27-5.56-5.14.44-.87-1.5-.69-1.81-.08Z"/><path class="cls-11" d="M47.2,286.71a12.33,12.33,0,0,0,5.18,6.05c.45.3,2.07-.48,1.82-.65a12.06,12.06,0,0,1-5.07-5.92c-.15-.43-2.06.15-1.93.52Z"/><path class="cls-11" d="M81.4,278.92c-.24.41-.24.35-.27.71,0,.2.48.18.56.18,1.37-.08,2.42-1,3.44-1.84s1.92-1.59,2.86-2.41c3.5-3.06,8.37-3.25,12.79-3.3,1.28,0,7.6-1,3.68,1.18a46.38,46.38,0,0,1-11.09,4.12c-3,.81-6.11,1-9.14,1.65-.81.17-2.81,1.42-1.85.36.45-.5-1.43-.28-1.76.09-.57.64-.63.59-.88,1.19-.09.22.21.25.34.28a3.15,3.15,0,0,0,1.76-.29c3.26-1.32,6.68-1.54,10.11-2.17a50.7,50.7,0,0,0,16.61-6.58c.53-.31.45-.59-.16-.6-5.65-.05-12-.77-17.35,1.35a13.17,13.17,0,0,0-4.29,2.34c-.79.72-1.61,1.41-2.42,2.09-.45.37-.91.74-1.37,1.09-.89.53-.77.61.34.24.19-.33-1.62-.19-1.91.32Z"/><path class="cls-11" d="M82.12,278.34c-9.9-1.55-20-1.76-29.75-4.25l-1.2.82c7.27-.22,14.32-2.49,21.29.77,2.53,1.18,5,4.05,8,3.48.8-.15,1.69-1.05.34-.79-1.8.34-5-2.51-6.54-3.37A15.86,15.86,0,0,0,69,273.22c-5.73-.78-11.28.67-17,.84-.22,0-1.9.64-1.2.82,9.86,2.51,20.07,2.73,30.09,4.3.45.07,2.24-.68,1.24-.84Z"/><path class="cls-11" d="M79,278c4.72-8.19,12-11.23,21.21-11.35,0-.48-.07-1-.1-1.43-8.31,2-17.31,3.86-22.11,11.67-.34.55.43.89.85.87A12.06,12.06,0,0,0,86.42,275c.91-.78-.29-1.47-1.08-1.07-6.89,3.38-7.1-5.41-7.13-9.72,0-1-1.64-.82-1.91-.07-1.79,5-1.38,10.65,4.87,11.12,1,.07,2-1.37.65-1.46-5.44-.41-5-5.6-3.67-9.4l-1.91-.06c.06,6.68,1.65,14.88,10,10.79L85.12,274A9.3,9.3,0,0,1,79,276.31l.85.87c4.41-7.17,13.07-8.69,20.63-10.54,1-.25,1-1.45-.11-1.44-10.07.13-18.08,3.65-23.23,12.58-.55,1,1.41,1,1.86.25Z"/><path class="cls-11" d="M78.9,281.35c-1.54,1.56-7.47,0-9.56-.13a10.94,10.94,0,0,0-4.44.64c-.33.13-1,.73-.25.78,10,.71,19.83-1.56,29.83-.85.43,0,1.49-.11,1.49-.72v-.86c0-.14-.19-.2-.27-.2-.48-.25-.9-.5-1.38-.75-.32-.45-2.17.17-1.78.71s1.66,1.23,1.66,1.61l1.58-.72c-9.39-.66-19.11.58-28.46,1.3,3.91-.3,10.12,2.43,13.36-.86.5-.51-1.4-.34-1.78.05Z"/><path class="cls-11" d="M90,279.13c1.86,2.77,3.84,5,7.09,6.06.49.15,1.88,0,1.88-.7v-3.42a17.85,17.85,0,0,0-2.07.51c1.33,8.42,10.63-2.1,12.91-4.43.33-.35-.35-.41-.57-.41h-1.71c-.67,0-2.08.92-.78.92,1.77,0,1-.33.13.57s-1.84,1.92-2.81,2.85c-2,1.89-4.64,4-5.27,0-.1-.62-1.83-.13-1.83.5V285c0-.23,1.06-.46,1.64-.7-3.21-1-5-3.22-6.76-5.9-.33-.49-2.25.12-1.85.73Z"/><path class="cls-11" d="M106.74,272.37a2.33,2.33,0,0,0,2-1,5.24,5.24,0,0,0,.2-2.27c0-.42-1.93-.11-1.93.52a12.7,12.7,0,0,1,0,1.51,2.05,2.05,0,0,1-.1.48c-.14.4-.19-.1.66-.13a2,2,0,0,0-1.28.48c-.31.34.26.41.48.41Z"/><path class="cls-11" d="M131,321.61c-.71,5.7,1.62,11.1,3.42,16.38.24.71,2.16.16,1.93-.51-1.76-5.18-4.11-10.51-3.42-16.1.1-.8-1.85-.45-1.93.23Z"/><path class="cls-11" d="M133.52,321.59a21.59,21.59,0,0,0,3.5,12.27c.44.62,2.3-.06,1.78-.8a20.77,20.77,0,0,1-3.34-11.66c0-.92-2-.55-1.94.19Z"/><path class="cls-11" d="M136.07,319.86c0,3.85.08,7.74,1.73,11.3.4.86,2.31.3,1.93-.52-1.6-3.45-1.69-7.18-1.7-10.92,0-1-2-.75-2,.14Z"/><path class="cls-11" d="M138.65,315.77c0,2.47,0,5,1.78,6.94.4.44,2.23-.25,1.8-.72-1.69-1.84-1.64-4.38-1.65-6.74,0-.49-1.93-.16-1.93.52Z"/><path class="cls-11" d="M142.07,313.21a22,22,0,0,0,.86,6.84c.2.63,2.12.09,1.93-.52a21.93,21.93,0,0,1-.86-6.84c0-.55-1.93-.2-1.93.52Z"/><path class="cls-11" d="M145.48,308.76a8.76,8.76,0,0,0,2.65,6.31c.58.6,2.42-.17,1.78-.83a7.91,7.91,0,0,1-2.48-5.65c0-1-2-.64-2,.17Z"/><path class="cls-11" d="M150.6,306.18c0,2.1.31,3.91,1.81,5.49.63.67,2.46-.13,1.77-.87a6.21,6.21,0,0,1-1.61-4.75c0-1.05-2-.79-2,.13Z"/><path class="cls-11" d="M155.75,303.81a5,5,0,0,0,.92,3.53c.45.5,2.29-.2,1.79-.75a4.86,4.86,0,0,1-.78-3.3c0-.6-1.93-.23-1.93.52Z"/><path class="cls-11" d="M156.37,304.23a4.33,4.33,0,0,1,1.94.75l.84.54a4.7,4.7,0,0,1,0,.53,1.75,1.75,0,0,1,0,.32c-.1.19,0,.16.28-.09-.42,0-1,.29-1.07.77s.52.63.88.6a2,2,0,0,0,1.71-1c.27-.46.4-1.56,0-1.94a6.5,6.5,0,0,0-3.84-1.85,1.3,1.3,0,0,0-1.26.58c-.2.41.18.76.58.78Z"/><path class="cls-11" d="M123.27,327.74c.1,4.15,1.52,8,2.56,12,.15.57,2.08.06,1.93-.51-1-4-2.45-7.81-2.56-12,0-.49-2-.14-1.93.52Z"/><path class="cls-11" d="M120,332.69v6.84c0,1,2,.64,2-.17v-6.84c0-1-2-.63-2,.17Z"/><path class="cls-11" d="M117.28,336.29c.89,1.77,1.82,3.57,3.64,4.54a1.35,1.35,0,0,0,1.38-.14c.28-.2.55-.69.12-.92-1.6-.85-2.42-2.44-3.2-4-.4-.78-2.29-.2-1.94.52Z"/><path class="cls-11" d="M261.73,279c1,1.79,2.7,2.69,4.46,3.57.46.23,2.24-.48,1.56-.82-1.58-.79-3.22-1.64-4.09-3.27-.29-.55-2.14.12-1.93.52Z"/><path class="cls-11" d="M261.91,279.18c3.19.81,6,1.88,8.43,4.21.42.4,2.22-.31,1.81-.71a18.38,18.38,0,0,0-8.67-4.34c-.51-.13-2.24.67-1.57.84Z"/><path class="cls-11" d="M272,279.68c.13,2.37,2.09,4.08,3.66,5.65.66.66,2.3-.35,1.48-1.17-1.2-1.2-3.08-2.77-3.18-4.6-.05-1.07-2-.82-2,.12Z"/><path class="cls-11" d="M272.61,280.3c4.41.13,5.38,4.7,8,7.43.6.62,2.43-.16,1.77-.84-1.56-1.63-2.52-3.63-3.84-5.42a6.43,6.43,0,0,0-5.25-2.54c-.91,0-2,1.33-.68,1.37Z"/><path class="cls-11" d="M281.39,283.29A24.27,24.27,0,0,0,284,293.55c.25.51,2.11-.15,1.93-.52a24.41,24.41,0,0,1-2.56-10.25c0-.39-1.94-.07-1.93.51Z"/><path class="cls-11" d="M286.51,282.28a61.54,61.54,0,0,0,1.72,11.27c.15.77,2.09.28,1.93-.52-.73-3.62-1.65-7.24-1.71-10.95,0-.91-1.95-.53-1.94.2Z"/><path class="cls-11" d="M289.94,286.71a21.92,21.92,0,0,0,.85,6.84c.15.48,2.07-.07,1.93-.52a21.92,21.92,0,0,1-.85-6.84c0-.35-1.93-.06-1.93.52Z"/><path class="cls-11" d="M294.2,290v.86c0,.9,1.95.52,1.95-.2v-.86c0-.9-1.95-.52-1.95.2Z"/><path class="cls-11" d="M101.9,254.08a1.94,1.94,0,0,1-.26,1l1.55-.67c-.41-.11,3.88-4.24,4.2-4.47a27.61,27.61,0,0,1,5.8-2.77,37.74,37.74,0,0,1,10.14-2.2c4.62-.5,9.88-.37,14.12-2.54,1.18-.61.1-1.34-.79-.89-6.08,3.12-14.25,1.91-20.84,3.52-5.75,1.4-11.7,4.48-14.71,9.7-.18.3,0,.53.32.61l.6.16a1.38,1.38,0,0,0,1.55-.67,1.92,1.92,0,0,0,.25-1c.07-.85-1.88-.49-1.93.21Z"/><path class="cls-11" d="M105.82,257.81c1.69-.65,4.55.37,6.22.79a19.24,19.24,0,0,1,6.3,2.69c.53.37,2.31-.41,1.53-1a23.38,23.38,0,0,0-8.64-3.27c-2-.4-4.27-.82-6.19-.09-1.26.48-.11,1.16.78.83Z"/><path class="cls-11" d="M118.14,254.08a12.64,12.64,0,0,0,.85,5.28c.3.67,1.58.27,1.88-.21,1.68-2.69,1.9-5.62,1.9-8.7a11.68,11.68,0,0,0-1.8.22v6c0,.73,1.07.49,1.44.21,2.54-1.86,2.83-4.43,3.71-7.27l-1.58.67a1,1,0,0,1,.45,1.26c0,.87,1.94.47,1.93-.22,0-1.09-.08-1.89-1.24-2.16-.53-.12-1.38.1-1.56.67-.73,2.33-.78,4.85-2.89,6.4a16.34,16.34,0,0,0,1.74.22v-6c0-.87-2.1-.48-2.11.22,0,3-.1,5.8-1.72,8.39l1.83-.22a11.87,11.87,0,0,1-.88-5c0-.87-2-.48-2,.21Z"/><path class="cls-11" d="M139.57,251.76c1.79,1.63,4.63.13,6.06-1.24.34-.32-.29-.43-.48-.42a2,2,0,0,0-1.29.49c-.77.73-1.58,1.29-2.48.47-.43-.39-2.22.33-1.81.7Z"/><path class="cls-11" d="M210.79,237.29A44.4,44.4,0,0,1,226,240.68c.44.17,2.18-.53,1.58-.76A45.32,45.32,0,0,0,212,236.47c-.43,0-2.22.8-1.25.82Z"/><path class="cls-11" d="M103.07,176.59c-8.88,9.92,12.71,25.33,19.8,29.49.51.3,2.3-.45,1.54-.9-6.82-4-27.94-19.21-19.55-28.59.53-.59-1.4-.44-1.79,0Z"/><path class="cls-11" d="M110.54,183.05c-2.8,6.59,4.62,12.59,9.54,15.63.7.44,2.41-.52,1.5-1.09-4.39-2.71-11.75-8.35-9.2-14.34.43-1-1.51-1-1.84-.2Z"/><path class="cls-11" d="M118,189.82a5.19,5.19,0,0,0,.89,3.32,6.68,6.68,0,0,0,3.24,1.8c.65.22,2.27-.72,1.17-1.1a5.8,5.8,0,0,1-2.62-1.48,4.22,4.22,0,0,1-.75-2.77c0-.85-1.94-.45-1.93.23Z"/><path class="cls-11" d="M125.56,192.92l.94.93c.54.54,2.37-.2,1.78-.8l-.94-.93c-.54-.55-2.37.2-1.78.8Z"/><path class="cls-11" d="M226.67,136.56c3.72,7,9,12.77,11.51,20.47,2.74,8.51,3.43,17.49,3.47,26.38,0,.57,1.94.21,1.94-.52a94.38,94.38,0,0,0-3.48-26.38c-2.29-7.77-7.79-13.44-11.51-20.46-.34-.65-2.21,0-1.93.51Z"/><path class="cls-11" d="M227.6,149.68c3.92,8.94,7.27,18.25,7.5,28.11,0,.67,2,.27,1.93-.52-.23-9.86-3.58-19.17-7.5-28.11-.31-.72-2.21-.13-1.93.52Z"/><path class="cls-11" d="M231,167.31v13.12c0,.94,2,.59,2-.18V167.13c0-.94-2-.59-2,.18Z"/><path class="cls-11" d="M228.54,180.48a13.2,13.2,0,0,0-.94,5.74c0,.48,1.93.15,1.93-.52a12.58,12.58,0,0,1,.94-5.5c.22-.48-1.66-.28-1.93.28Z"/><path class="cls-11" d="M185.83,116.26c1.45.53,3.75-1.57,4.76-2.27,4-2.74,7.86-5.73,11.71-8.68,6.22-4.77,12.87-9.38,18.62-14.71.85-.79-1-.88-1.57-.4-4.68,4.34-10.07,8.08-15.11,12-3.52,2.73-7.07,5.44-10.65,8.09-1.4,1-2.8,2-4.22,3-.73.51-2.92,1.61-2.38,1.81-.68-.25-2.27.73-1.16,1.13Z"/><path class="cls-11" d="M192.76,117.57c5.8-3.92,11.64-7.8,17.56-11.52,5.07-3.18,10.9-6.23,14.51-11.15a2.59,2.59,0,0,0-1.9.36c-3.76,5.12-10,8.21-15.25,11.52-5.54,3.48-11,7.12-16.38,10.78-.78.53,1.15.23,1.46,0Z"/><path class="cls-11" d="M217.27,90c-.68-1,1.1-2.41,1.74-2.9a3.32,3.32,0,0,1,3.47-.31,7.79,7.79,0,0,1,3.67,3.39c1.54,2.45,2.28,7.36-1.94,7l.65.64a3.21,3.21,0,0,1,.77-2.44c.78-1-1-1.29-1.62-.59A4.56,4.56,0,0,0,222.9,98a.66.66,0,0,0,.65.65c6.41.51,6.81-5.78,3.9-10A8.06,8.06,0,0,0,220.66,85c-2.12,0-6.83,3.38-5.15,5.87.5.74,2.33,0,1.76-.86Z"/><path class="cls-11" d="M216,87.81c7.89-5,15-11.08,23-16,5.33-3.25,12.47-6.76,15.68-12.36.42-.72-1.5-.45-1.78,0-3.49,6.07-11.57,9.75-17.32,13.25-7.27,4.44-13.63,10-20.78,14.61-1.1.7.62.81,1.17.45Z"/><path class="cls-11" d="M229.52,96.78c5-6.64,12-11.1,18.65-15.84,4.17-3,9.25-4.56,13.59-7.28,2.69-1.69,5.66-4.2,3.4-7.45s-8.24-3.29-11.6-3.35c-.37,0-2.19.72-1.27.73,3.94.07,11.23.48,11.85,5.52.49,4-9.19,7.53-11.78,8.8-9.18,4.46-18.56,11-24.74,19.23a2.68,2.68,0,0,0,1.9-.36Z"/><path class="cls-11" d="M184.16,117.74h.93a1.6,1.6,0,0,0,1.28-.49c.27-.37-.23-.51-.52-.51h-.93a1.62,1.62,0,0,0-1.28.49c-.27.37.22.51.52.51Z"/><path class="cls-11" d="M104.93,88.85c6.58,4.11,11.29,12.42,15.95,18.45,2.13,2.75,7.45,12,11.7,11.57.48,0,2.12-.85.85-.73-1.63.14-4.09-3.35-5-4.36-3-3.37-5.66-7-8.4-10.56-3.82-5-7.87-11.62-13.31-15-.45-.28-2,.51-1.82.65Z"/><path class="cls-11" d="M110.71,87.18c12.27,7.66,15.12,25.34,28.1,31.85.69.34,2.42-.6,1.51-1-6.49-3.26-10.43-10.36-14.29-16.2s-7.81-11.9-13.82-15.65c-.65-.41-2.39.5-1.5,1.05Z"/><path class="cls-11" d="M107.87,90.2c-1.8,1.52-4.87.75-4.76-1.88.06-1.5,1.33-2.95,2.29-4,.77-.82,3.6-.26,4.62-.19,1.3.1,2.42.27,3.72.3-.2-.17.23-.33-.77-.49v3.74c0,.88,2,.5,2-.21V83.73c0-.34-.15-.48-.47-.49-2.59,0-5.07-.49-7.67-.38-2.43.11-3.62,1.45-4.86,3.43-1.35,2.15-1,4.26,1.22,5.54,2,1.12,4.63.13,6.24-1.23.87-.74-1-.84-1.56-.4Z"/><path class="cls-11" d="M99.25,56.93c4.93,8.14,8.19,17.15,13.12,25.3.34.56,2.17-.13,1.93-.52-4.93-8.14-8.19-17.15-13.12-25.3-.34-.56-2.16.13-1.93.52Z"/><path class="cls-11" d="M81.45,64.43c1.89,4.41,6,7.76,8.69,11.75,2.91,4.33,5.2,9.22,9.18,12.71.47.42,2.27-.32,1.8-.73-3.61-3.16-5.9-7.53-8.42-11.54-2.74-4.36-7.3-8-9.32-12.71-.26-.62-2.15,0-1.93.52Z"/><path class="cls-11" d="M84.23,60.37a43.29,43.29,0,0,1,4.57-4.1c2.85-2.12,5.44-1.71,7.7.74l1.32-.76a24.48,24.48,0,0,0-12.4,3.18c-.75.46.57.47.84.39,3.67-1.07,6.64-3.62,10.3-4.68,1.12-.33,1-1-.18-.68-3.67,1.07-6.65,3.62-10.3,4.69l.83.39A19.79,19.79,0,0,1,97,57.09c.21,0,1.7-.34,1.32-.76-5.26-5.69-11.75.06-15.84,4.14-.45.45,1.41.24,1.75-.1Z"/><path class="cls-11" d="M142.52,89.23A7.61,7.61,0,0,0,145,101.47c3.82,1.72,8.83.71,12.08-1.74,2.85-2.14,4.08-7.45.65-9.75-3.85-2.59-9-1.22-13.34-1.15-1,0-1.54,1.29-.22,1.26,2.84,0,5.64-.5,8.49-.28,4.09.32,6.47,4,4.42,7.76-1.73,3.17-6.43,3.85-9.6,3.16-5.09-1.12-6.63-7.34-3.34-11,.79-.89-1.08-1-1.59-.46Z"/><path class="cls-11" d="M140.47,97.22c3.38,7.29,9.92,12.74,12.18,20.61.17.58,2.1,0,1.94-.52-2.27-7.88-8.8-13.31-12.18-20.61-.28-.6-2.16,0-1.94.52Z"/><path class="cls-11" d="M157.34,94.41A214.74,214.74,0,0,1,162,117.7c.45-.28.89,0,1.34-1H156.8a2.75,2.75,0,0,1-.49,1.28c3.05-.36,4.46-1.88,6.52-4.08.8-.84-1.09-.84-1.56-.34-1.34,1.43-2.49,2.92-4.72,3.18-.68.08-1.71,1-.49,1h6.56c.44,0,1.42,0,1.33-.63a210.11,210.11,0,0,0-4.68-23.32c-.18-.73-2.11-.12-1.93.62Z"/><path class="cls-11" d="M156.48,120.8a9,9,0,0,0,1.57,2.86,1.38,1.38,0,0,0,1.92-.47,4.16,4.16,0,0,0,.25-2c0-1-1.95-.72-2,.15,0,.4,0,.8,0,1.2a2.33,2.33,0,0,1-.06.35.36.36,0,0,1,.18-.23l.46-.22q1.11.32.75.06c.08.08.09.09,0,0a1,1,0,0,1-.15-.21,5.49,5.49,0,0,1-.34-.63c-.28-.59-.55-1.19-.84-1.78-.21-.42-1-.3-1.31-.14a.72.72,0,0,0-.46,1Z"/><path class="cls-11" d="M158.21,120.74h1.87c.4,0,1-.14,1.07-.58s-.53-.42-.88-.42H158.4c-.4,0-1,.14-1.07.59s.53.41.88.41Z"/><path class="cls-11" d="M172.67,113.27c4.57.37,7.56-8,9.1-11,3.75-7.31,6.68-15,10.28-22.37.13-.28-1.67-.14-1.91.35-2.51,5.16-4.64,10.52-7.06,15.74-1.58,3.4-3.23,6.77-5,10.06-.46.84-3.4,6.48-4.14,6.43-.4,0-2.21.69-1.25.77Z"/><path class="cls-11" d="M193.92,80c-5.06,13.31-9,27.28-16.86,39.34-.56.87,1.41.84,1.84.18,7.81-12.06,11.79-26,16.86-39.35.38-1-1.55-.92-1.84-.17Z"/><path class="cls-11" d="M176.45,112.64c-2.37,1.26-3.15,3.56-3.19,6.12,0,.53,1.93.19,1.94-.51,0-2,.53-4.11,2.43-5.12.24-.13.6-.52.19-.69a1.7,1.7,0,0,0-1.37.2Z"/><path class="cls-11" d="M188.89,84.32c-2-.46-3.1-1.6-1.91-3.55,1-1.65,2.68-3.52,4.73-3.6,2.92-.1,5.95,4.14,2.09,5.34-1.12.35-.93,1.14.21.79,1.85-.58,4.15-1.82,3.47-4.12s-3.27-3-5.26-2.93c-2.94.1-5.21,2-6.85,4.33a3.31,3.31,0,0,0-.79,2.9c.41,1.18,2.06,1.53,3.09,1.76.52.11,2.26-.69,1.22-.92Z"/><path class="cls-11" d="M196.74,84.65a161.85,161.85,0,0,1,13-29.84c.07-.12.13-.27,0-.38-5.77-5.1-13.87-3.82-18.82,1.79-5.5,6.23-3.69,16.51-5.73,24a7.65,7.65,0,0,0,1.73-.38v-15c0-.56-1.7-.2-1.73.39-.23,4.83-1.67,9.36-2.71,14-.16.73,1.79.33,2-.25,3.54-10.52,7.71-20.64,14-29.84.49-.72-1.43-.52-1.78,0-6.36,9.29-10.54,19.48-14.11,30.11l1.93-.25c1-4.69,2.35-9.22,2.57-14-.64.13-1.16.25-2.16.38v15c0,.63,2,.12,2.17-.38,2.34-8.59-.16-20.69,8.47-26.27,3.58-2.31,7.87-1.76,11.23.51,1.51,1-.46,3.52-.93,4.4-1.25,2.38-2.4,4.8-3.55,7.22a144,144,0,0,0-7.55,19.07c-.21.66,1.74.39,1.93-.25Z"/><path class="cls-11" d="M190.2,76.26c0-2.21.11-4.51,1.69-6.22.82-.88-1-1.1-1.6-.51-1.78,1.92-2,4.39-2,6.9,0,1,1.95.64,2-.17Z"/><path class="cls-11" d="M130,78.9a128.68,128.68,0,0,1,8,12.61c.39.76,2.28.17,1.93-.52a130.54,130.54,0,0,0-8.19-12.9c-.44-.65-2.3,0-1.78.81Z"/><path class="cls-11" d="M134.61,77.7q3.46,5.22,6.95,10.44c.32.48,2.2-.13,1.8-.73l-7-10.44c-.33-.48-2.2.13-1.8.73Z"/><path class="cls-11" d="M129.43,81.54c-2.5-3.19.74-6,3.8-6.83,4.46-1.23,6.6,2.06,5.93,6.17-.17,1,1.81.8,2-.12.39-2.46.2-5.08-1.9-6.7-1.76-1.37-4.33-1.26-6.38-.76-4,1-8.4,5-5.18,9.11.58.74,2.41,0,1.76-.87Z"/><path class="cls-11" d="M128.15,79.14c-5.06-3.77-6.92-10.33-9.61-15.77a27,27,0,0,0-4.42-6.47c-4-4.32,4.95-7.28,7.63-8C134.62,45.69,134,63.8,135.7,71.8c.17.8,2.1.31,1.93-.52-1.29-6.15-1-13.46-4.16-19.06-2.93-5.24-7.83-5.51-13.19-4.16-2.78.71-5.37,1.64-7.38,3.76-2.38,2.5-1.66,4.7.29,6.8,5.88,6.31,6.28,16.22,13.45,21.56.6.45,2.34-.42,1.51-1Z"/><path class="cls-11" d="M132.22,57.89c.27,6.91,4.36,12.38,7,18.55.2.48,2.09-.15,1.93-.52-2.6-6.16-6.69-11.64-7-18.55,0-.36-2,0-1.93.52Z"/><path class="cls-11" d="M131.13,80a81.74,81.74,0,0,1,9.21,17.29c.24.59,2.13,0,1.93-.51a81.43,81.43,0,0,0-9.34-17.49c-.33-.45-2.2.18-1.8.71Z"/></svg>