<svg id="layer1" xmlns="http://www.w3.org/2000/svg" viewBox="0 0 268.64 258.01"><defs><style>.cls-1{fill:#d81e1e;}.cls-2{fill:#492d0c;}.cls-3{fill:#fff;}</style></defs><path class="cls-1" d="M40.4,63.15c15.8-.35,164.4-6.42,190.89-3.06,2.51.32-.4,125.77-1,141.9,0,0-150.06,3.06-187,3-2.07,0-2.62-54.28-1.85-74.44-.78-18.21-1.71-49.23-1-67.38Z"/><path class="cls-2" d="M40,63.76c59.44-1.37,119-5.59,178.49-3.84,1.43,0,11.57-.18,11.95.62,1,2.13.57,5.67.65,7.95.44,13.85.2,27.73.05,41.59-.32,29.66-.85,59.34-1.78,89,0,1-.06,2-.1,3l1.33-.71c-56.71,1.16-113.43,2.35-170.16,2.9q-6.26.06-12.5.08c-.56,0-3.91.24-4,0a13.36,13.36,0,0,1-.64-3.93c-1.34-13.13-1.15-26.51-1.23-39.69-.09-13.59.39-27.15-.1-40.72-.68-18.95-1.29-38-.61-56.94,0-.88-1.92-.52-1.94.21-.43,12-.25,24,0,36,.23,11.19,1.28,22.52.93,33.7-.57,18.23-.37,36.55.26,54.78.19,5.44-.13,11.58,1.31,16.88.58,2.13,8.64.92,10.42.91,15.1-.1,30.2-.33,45.3-.56q66.14-1,132.25-2.4c.38,0,1.31-.16,1.33-.71,1-27.54,1.39-55.13,1.77-82.68.2-15,.39-30.06.18-45.09-.05-4-.09-8-.43-12-.24-2.71-.76-2.68-3.49-2.92-12.06-1.09-24.31-.81-36.4-.74-18,.1-35.9.49-53.84,1-30.6.78-61.19,1.88-91.78,2.9-2.17.07-4.33.15-6.49.2C40,62.57,38.73,63.79,40,63.76Z"/><rect class="cls-3" x="123.91" y="86.86" width="22" height="85"/><rect class="cls-3" x="93.91" y="117.86" width="82" height="23"/></svg>