<svg id="layer1" xmlns="http://www.w3.org/2000/svg" viewBox="0 0 279.3 467.38"><defs><style>.cls-1{fill:#ffcd3b;}.cls-2{fill:#ff4e11;}.cls-3{fill:#6b4b00;}.cls-4{fill:#492d0c;}</style></defs><path class="cls-1" d="M233,222.4l-6.2-6.19a3.21,3.21,0,0,0-5.42,1.08c-.08.24-.16.37-.24.37h-.76a3.57,3.57,0,0,0-3.16,4.29,3.22,3.22,0,0,0-1,3.43c.68,1.92,1.58,4.24,3.56,5.12a4.07,4.07,0,0,0,2.73.24,15.56,15.56,0,0,0-.14,6.53c-5.85-2.19-12.83,2.44-14.85,8.09-3,8.45,1.72,17.78,4,25.85,2.62,9.44-.73,19.38-6,27.29,0-.31.08-.6.12-.86l.06-.56c5.32-12.65,6.17-27.26-5.74-36.49a3.39,3.39,0,0,0-1.64-.69,87.91,87.91,0,0,0-9.21-18.27,3.45,3.45,0,0,0-.42-.51c-1.05-3-2.32-6-3.51-9-.21-.52,0-1-1-1.3v-.93c0-3.64-4.49-4.13-6-1.35l-.75-.11c-9.83-1.11-19.08-1.87-29-1-9.5.84-18.92,2.41-28.44,3.06a127.63,127.63,0,0,0-13.38-3.29,3.37,3.37,0,0,0-.39-.57,197.82,197.82,0,0,0,20.75-.87c15.57,1.75,31.38,1,47,.15a3.12,3.12,0,0,0,3-4.13c2.43.4,4.88.72,7.35,1a2.48,2.48,0,0,0,2.59-1.14l.93.7c3.35,2.51,6.58-3.13,3.27-5.6-4.11-3.08-8.19-6-13.16-7.55a2.79,2.79,0,0,0-3.23.91l-1.16-.59-.24-.09a2.86,2.86,0,0,0-.95-.3c.25-2.35.57-4.68.71-7,0-.71.05-1.43,0-2.14A3.23,3.23,0,0,0,174,197c-.24-1.34-.41-3.13-1.53-4.08a3.28,3.28,0,0,0-4.58,0c-1.6,1.75-1.27,4.56-1.29,6.77a66.68,66.68,0,0,1-.5,6.91,4.75,4.75,0,0,0-.53,1.88,10.56,10.56,0,0,1-.09,1.19h-5.88a3.71,3.71,0,0,0-.05-2,57.75,57.75,0,0,0-3-7.12c0-.09-.07-.24-.09-.33a3.44,3.44,0,0,0-.57-1,68.09,68.09,0,0,0-5.93-9.06s0,0,0-.06h0l-.5-.66a2.88,2.88,0,0,0-.69-.63,39.77,39.77,0,0,0-1.9-4.91,3,3,0,0,0-4.29-1.16,13.48,13.48,0,0,0,.2-2.27,2.87,2.87,0,0,0,1,0,2.92,2.92,0,0,0,2.57-.87c1.82-1.95,4.58-5.06,5.61-8a3.15,3.15,0,0,0,.25-1.54v-.45a2.94,2.94,0,0,0-.82-2.29c.62-1.55,1.3-3.1,1.93-4.65,1.37-3.43-3.32-5.12-5.5-2.85a3.33,3.33,0,0,0-1.54-.11l-18.57,3.1c-2.66.44-2.87,3.48-1.49,5.2a4.45,4.45,0,0,0-.73.12,3.41,3.41,0,0,0-3.93-2.1c-2.26-.88-5.26,1.2-4.37,3.86a46.74,46.74,0,0,0,4.46,10.07,3.12,3.12,0,0,0,2.11,1.46l.71,1.18c-6.22,4.2-9.2,11.29-10.37,18.6a3.71,3.71,0,0,0,.13,1.87,97.91,97.91,0,0,0-12.74,3.26c.4-1.27.83-2.53,1.28-3.78.14-.39,1.29-3.24.74-1.95,1.61-3.8-4-7.11-5.6-3.27a78.26,78.26,0,0,0-3.8,10.66,42.29,42.29,0,0,0-4.22,1.34,50.87,50.87,0,0,0-6.56,2,3.5,3.5,0,0,0-2.16,2.55c-1.15.76-2.29,1.55-3.4,2.42a2.44,2.44,0,0,0-1,2.36,3.55,3.55,0,0,0-1.58,4.66,90.63,90.63,0,0,0,7,12A14.4,14.4,0,0,1,78,245.92a3.58,3.58,0,0,0-.54.56l-.76.69a3.06,3.06,0,0,0-.94,1.93,37.55,37.55,0,0,0-4,6.73,2.16,2.16,0,0,0-.13.41l-.44.67a46.76,46.76,0,0,0-6.8,9.35c0-1.2.09-2.38.06-3.55-.19-7.92-2.57-17.44-9.18-22.46a17,17,0,0,0-4-2.17c-.64-4.87.92-9.5,5.62-11.62,3.06-1.38,1.39-6-1.64-6.05a51.7,51.7,0,0,1-11.52-.91,3.33,3.33,0,0,0-3.85,2,10.87,10.87,0,0,0-1.14-.05c-3.09,0-4.62,4.58-1.64,6l2.07,1.06c.16.22.32.45.49.67a7,7,0,0,0,3.22,2.67A2.67,2.67,0,0,0,44.73,234a17.27,17.27,0,0,0-.07,2.88c-3.41,0-6.65,1.22-8.6,4.17-2.78,4.21-.86,8.09,2.5,10.5a7.37,7.37,0,0,0,.15.88c.63,2.79,3.75,2.86,5.37,1.32,2.52-.21,4.32-3.56,2.11-5.51a6.32,6.32,0,0,0-4-1.74c-.73-.4-1.26-.93-1-1.58,1.06-2.35,5.58-1.51,7.33-1,6.35,1.76,7.89,9.75,9,15.19,1.34,6.6-.19,13.81-.75,20.43s0,13,2.84,19.1c1,2.24,3.37,2,4.79.67a3.45,3.45,0,0,0,.9.6c0,15.27,11.3,29.5,20.57,40.55,10.69,12.73,23,23.91,35.14,35.22a3.36,3.36,0,0,0,2.56.86,8.81,8.81,0,0,0-.23,2.77q-1.05.09-2.1.12a3.18,3.18,0,0,0-2.54,1.37c-2.09,1-2.14,4.19-.13,5.71l.59.43s0,.06,0,.1l-1.21.39a3.44,3.44,0,0,0-4.56-1.36c-2,.92-2.47-.06-4.39,1.06a5.2,5.2,0,0,0-1.93,2.45l-.64-.23a22.86,22.86,0,0,0-2-4.62c-.49-1-1.73-1-2.8-1h-1c-1.7,0-3.34.88-3.25,2.65.47,9.13-10.66,9.13-17.4,9.88-2.59.28-3.83,2.35-2.8,4.73,1.51,3.47,2.18,6.87,4.64,9.87a2.59,2.59,0,0,0,2.25.95c-.08,2.69-.1,5.36-.1,8.05,0,4.19,6.38,4.17,6.48,0,.14-5.7,1.54-11.24,2.62-16.82,7.88-1.08,15.54,1.73,23.12,3.75a42.67,42.67,0,0,0,13.5,1.64c1,.12,1.94.19,2.94.22a2.86,2.86,0,0,0,2.3-1,28.87,28.87,0,0,0,3.57-1.13,15.26,15.26,0,0,0,6.58,1.14c5.5,2,12.15,1.93,15.84-3.16a6.89,6.89,0,0,0,1-2.1c2.09.38,4.34-1.6,3.78-3.78a25.72,25.72,0,0,1,3.17.63,2.87,2.87,0,0,0,2.27-.12,7.39,7.39,0,0,1,5.1,4.26c1.4,3.5,1.26,7.62,1.6,11.31.4,4.13,6.88,4.17,6.49,0-.06-.62-.11-1.23-.16-1.86,2.87-4.05,5-8.69,4.12-13.75-.89-5.32-6.71-7.12-11.33-7.24a2.85,2.85,0,0,0-2.74,1.52,26.07,26.07,0,0,0-4.28-1.09,5.33,5.33,0,0,0-.57-3c.21-1.48.43-3,.51-4.47.22-3.87-5.18-4.11-6.37-.86-.46,1.25-.91,2.45-1.33,3.65a20.68,20.68,0,0,0-5.41-4.47c-1.06-1.27-2.16-2.51-3.32-3.71a3.37,3.37,0,0,0-4.53,0l0,0c-.07-2.73-2.4-5.29-5.3-6.5-.22-.09-.45-.16-.68-.24.29-.56.58-1.12.85-1.68.31,2.44,3.71,3.24,5.63,1.52a2.82,2.82,0,0,0,3-.86c.78-.85,1.55-1.71,2.32-2.58a3.12,3.12,0,0,0,4.91.52A127.09,127.09,0,0,0,170.89,355q2.27-2.64,4.47-5.34c8.34-9.3,16.32-19.87,21.63-31.18,4-1.93,6.28-8.74,7.52-14.31a3.53,3.53,0,0,0,5.27-.41c8.43-11.49,11-25,6.65-38.65-1.81-5.68-5.76-14.16-1.55-19.56,2-2.49,4.74-2.48,6.33-1.27a3,3,0,0,0-2.9,2.28,8.59,8.59,0,0,0,1.36,7.66,3.33,3.33,0,0,0,5.09.65c4.25-3.29,5.35-8,3.44-12.06a3.45,3.45,0,0,0,1.19-4.25c-1.87-4.24-.92-8.44,3-11A3.29,3.29,0,0,0,233,222.4ZM130,198.83c.13-.28.27-.56.39-.84,0,.19,0,.39,0,.58-.16.43-.33.85-.51,1.27C129.92,199.51,130,199.17,130,198.83ZM67.17,275.64v-1.4c0-.06.29-.1.29-.16.12-.32.34-.64.48-1h-.13A15.38,15.38,0,0,0,67.17,275.64Zm5.76,31.77c1,1.31,2,2.65,3,4a38.11,38.11,0,0,0,1.84,7.23A47.15,47.15,0,0,1,72.93,307.41Zm7.87-7.06a119.08,119.08,0,0,1-.14-26.15c-.18,3.95-.2,7.85-.16,11.57,0,4.41.24,8.9.59,13.41C81,299.57,80.9,300,80.8,300.35Zm8.81-58.72a46.34,46.34,0,0,0-6.75,15.77,3.54,3.54,0,0,0-3-1.82c.31-.46.61-.93.92-1.38a2.8,2.8,0,0,0,.48-1.78l.12-.17a4.54,4.54,0,0,0,1.75-2,4.94,4.94,0,0,0,.19-.49,20.5,20.5,0,0,0,4.87-9.56,7.11,7.11,0,0,0,1.14.1,3.07,3.07,0,0,0,2.23-.93,3.94,3.94,0,0,0,.52.8A3.56,3.56,0,0,0,89.61,241.63Zm3.13,55.26c-.11-.64-.24-1.28-.34-1.93-.53-3.24-1.06-6.77-1.44-10.42q.67-3.6,1.24-7.21c.1,4.46.37,8.9.78,13.31Q92.89,293.78,92.74,296.89Zm-5.43-79.36.67-.37a36.75,36.75,0,0,0,4.9-1.29,24.17,24.17,0,0,0,.11,2.95C91.08,218.47,89.19,218.05,87.31,217.53Zm14.06,9.2c-1.55.53-2,2.36-1.54,3.92a87.82,87.82,0,0,0-2.06,9,3.07,3.07,0,0,0-1.26,1.74c-.18.59-.34,1.18-.5,1.77l-.36-.07a2.89,2.89,0,0,0-.65-1.89,3.25,3.25,0,0,0,2.6-3.94,28,28,0,0,0-2-6.68,18.88,18.88,0,0,1-.39-4.82c2.16.3,4.35.51,6.54.65A3.8,3.8,0,0,0,101.37,226.73Zm2.69-6.77,0,.08-.6,0,1.09-.71Zm7,30.24c0-4.59.09-9.18.1-13.76a3.45,3.45,0,0,0,1.9.78v0q-1.06,7-1.84,14Zm1,108a3,3,0,0,0,1.08-3.29c-.36-1.13-.76-2.24-1.17-3.34l.22-.09c.53.75,1.07,1.5,1.62,2.23a109.37,109.37,0,0,0,4.84,10.71Q115.29,361.34,112,358.21Zm-12.3,38.2a12.71,12.71,0,0,0,2-2.12,3.86,3.86,0,0,0,2.1.86,16.35,16.35,0,0,1,3.53,1.62,3.14,3.14,0,0,0,4.23-1,3.33,3.33,0,0,0,.54.65,3.55,3.55,0,0,0,.48,2.56A68.35,68.35,0,0,0,99.7,396.41Zm26.71-157c-.41,1.32-.78,2.64-1.14,4a2.69,2.69,0,0,0-.59.29c0-1.59-.07-3.19-.11-4.79Zm-3.07,112.17a43.75,43.75,0,0,0-2.83-7.15l0-1a1.56,1.56,0,0,0,.16-.2,2.85,2.85,0,0,0,3.24,1.12Q123.54,348,123.34,351.59Zm3.76,42a23.83,23.83,0,0,0-3.7-1.43l.75-.26a18.36,18.36,0,0,0,3.1.9A5,5,0,0,0,127.1,393.55Zm6.22-30.87-.3-1.51c.36-.41.71-.82,1.06-1.25C133.84,360.85,133.59,361.77,133.32,362.68Zm-1.15-104.26V241.18c1,.21,1.55.41,2.33.61C133.59,247.29,133.17,252.84,132.17,258.42Zm8.21,29q.42-4.6,1.05-9.23c-.45,4.94-.71,9.9-.83,14.86l-.33.49Q140.33,290.49,140.38,287.43Zm2.1,69.33q-.69,2.12-1.47,4.2c0-.82,0-1.63,0-2.45l.21-1.07C141.66,357.23,142.07,357,142.48,356.76ZM138.7,395.4a.91.91,0,0,1,.28-.57c.35.05.7.12,1.05.19,0,.13.07.25.1.37Zm2.65-15.58a8.43,8.43,0,0,1-3.41,1.07,3,3,0,0,0-.71-2.24,10.69,10.69,0,0,1,1.53-.17,8.82,8.82,0,0,1,3.18.53C143.13,379.39,142.74,378.8,141.35,379.82Zm.05-130.49c.12-2,.24-4,.39-6l1.61.32Q142.33,246.46,141.4,249.33ZM154.56,280c-.27.58-.53,1.17-.77,1.76l-.28-.11q.48-4.06,1.18-8.1Q154.63,276.75,154.56,280Zm-1.17-32.51A3.25,3.25,0,0,0,152.2,245c1,.11,1.92.19,2.88.25C154.48,246,153.93,246.71,153.39,247.46Zm9,.84c-.26-.93-.53-1.87-.81-2.79,0-.06,0-.12-.07-.17.55,0,1.09-.07,1.64-.12C162.91,246.24,162.65,247.27,162.41,248.3Zm7.56-4c0-.12,0-.23,0-.34a25.65,25.65,0,0,0,4.31-1.72q-.31,1.54-.54,3.12a3.91,3.91,0,0,0-.58-.1A3.63,3.63,0,0,0,170,244.29Zm2.88,77.46c-.33-.95-.62-1.92-.89-2.89,0-.34.09-.67.14-1,.6-2.25,1.13-4.62,1.56-7,.37,1.23.73,2.46,1.11,3.69A57.55,57.55,0,0,1,172.85,321.75Zm18.06-8c0-.81.09-1.62.12-2.42l.24.28a3.05,3.05,0,0,0,1.07.79A2.93,2.93,0,0,0,190.91,313.76Z"/><path class="cls-2" d="M94.47,302a3,3,0,0,0-1.09.21,3.07,3.07,0,0,0,.21-1.1c0-2.68-.12-5.35-2-7.45a3.26,3.26,0,0,0-4.59,0,3.07,3.07,0,0,0-.92,2.21c-3.4.26-6.36,1.18-9.6-.65a3.26,3.26,0,0,0-4.44,4.43,38.33,38.33,0,0,0,2.1,3.6c-1.49,1.22-2.71,2.75-2.54,4.06a4.84,4.84,0,0,0,2.22,4c1.47,1,3.84.37,5.46.29a5.14,5.14,0,0,0,.87-.08v5.09a3,3,0,1,0,6,0v-5.16a3.3,3.3,0,0,0-4-3.16,3.45,3.45,0,0,0-.59-2,3.54,3.54,0,0,0,.35-3.37c1.78-.16,3.56-.58,5.34-.62h.08a3.3,3.3,0,0,0,2.54,2,3.15,3.15,0,0,0-.7,2,3.27,3.27,0,0,0,3.24,3.25,7.26,7.26,0,0,0,3.15-.61,4.14,4.14,0,0,0,2.16-3.67A3.27,3.27,0,0,0,94.47,302Z"/><path class="cls-2" d="M114.69,328.21c-2-1.2-3.14-3.4-4.53-5.38a9.63,9.63,0,0,0,1.89-3.35,3.27,3.27,0,0,0-4-4,38.87,38.87,0,0,1-5.79.65,21.89,21.89,0,0,0-2.41-2.91c-2.93-3-7.51,1.6-4.58,4.59a16,16,0,0,1,2.59,3.47,3.26,3.26,0,0,0,3.66,1.49c.36-.09.72-.16,1.08-.22a2.92,2.92,0,0,0,.92,2.48,16,16,0,0,1,2.42,2.69,9.27,9.27,0,0,0-4.88,3.72,27.06,27.06,0,0,0-4.9-1.91v-.6a3.76,3.76,0,0,0-1.06-3c2.11-1.61,1.72-6.31-1.67-6.31H84.15c-3.92,0-4.07,5.49-.86,6.81a29.14,29.14,0,0,1,4.35,2.61c-2.44,1.63-1.72,6.54,1.67,6.09,3.87-.51,6.26.71,9.44,2.13a7.55,7.55,0,0,0,1.18,2.54,3.26,3.26,0,0,0,6-1.62c.17-4.51,2.13-5.31,6.22-4.09C115.78,335.19,117.8,330.09,114.69,328.21Z"/><path class="cls-2" d="M117.51,304.42a5.46,5.46,0,0,0,1.77-2.49,3.24,3.24,0,0,0-.84-3.15,22.62,22.62,0,0,1-3.62-5.54c-1.88-3.73-7.47-.45-5.6,3.28a33,33,0,0,0,2.25,3.84c-1.25.79-2.47,2.32-2,3.75a9.92,9.92,0,0,0-2.32.4v-3.44c0-.81.19-1.46-.2-1.95,0,0,.24,0,.24-.06a7.19,7.19,0,0,0,.72-3.15,3.19,3.19,0,0,0-6.37-.3,3.12,3.12,0,0,0-1,2.37,3.21,3.21,0,0,0,.91,2.41c0,.21-.25.44-.25.68v7.23a3.44,3.44,0,0,0,3.43,3.24,17.93,17.93,0,0,0,4.33-.35,4.19,4.19,0,0,0,1,.79,4.63,4.63,0,0,0,3.57.38,10.17,10.17,0,0,0,1,.8c2.49,1.57,5.44-1,4.77-3.66A26.2,26.2,0,0,0,117.51,304.42Z"/><path class="cls-2" d="M140.92,340.66h-.7a2.23,2.23,0,0,0-.65-1.52,12,12,0,0,0-2.55-2.3c-3.14-2.72-7.75,1.91-4.58,4.65a13.23,13.23,0,0,0,1.33,1,4.09,4.09,0,0,1-.1,1,3.53,3.53,0,0,0,.9,3.19,1.85,1.85,0,0,0,0,.23l-.28-.19a16.32,16.32,0,0,0-1.49-.78,3,3,0,0,0-.95-1.8c-2.83-2.77-5.8-2.54-8.71,0a3.23,3.23,0,0,0,0,4.58c1.78,1.54,3.82,1.93,5.82,2.66a12.82,12.82,0,0,0-.58,2.27c-.23,1.76,1.65,3.25,3.24,3.25,1.21,0,2.62.19,3.7-.45a4.68,4.68,0,0,0,1.81-2,10,10,0,0,0,1.72.41,3.22,3.22,0,0,0,3.24-3.24,25.36,25.36,0,0,0-.79-3.68,21.09,21.09,0,0,0,1.91-1.51C145.53,344.62,143.52,340.66,140.92,340.66Z"/><path class="cls-2" d="M164.37,303.56c-.51-.9-1.16-2-.75-2.67a5.59,5.59,0,0,0,1.07-2.05c.56-3.36-3.56-5.14-5.42-3.38a3.21,3.21,0,0,0-.57-.81l-.14-.13-.14-.12a19.72,19.72,0,0,0-2-1.73,3.68,3.68,0,0,0-3.86-.25,3.27,3.27,0,0,0-1.63,2.63c-3.13.91-5.88,2.34-5.88,6a2.39,2.39,0,0,0,1.15,2.35v.75c0,1.77,1.24,2.49,3,2.49h1.49c.39,0,.86,1,1.39,1.19,2.87.79,6.54.41,9.5.41A3.14,3.14,0,0,0,164.37,303.56Zm-10-1.9h-.82c1.2-1,2.46-.86,3.54-1.17a5.34,5.34,0,0,0-.06,1.69c-.11,0-.23.29-.34.3A2.79,2.79,0,0,0,154.34,301.66Z"/><path class="cls-2" d="M192.76,302.91c-1.07-1.38-.62-4.14-1.23-5.8a3.5,3.5,0,0,0-5.75-1.17,3,3,0,0,0-.24-.26c-1.32-1.12-2.82-2-4.13-3.09-2.27-1.93-6.58-.17-5.42,3.15,0,.07.06.16.1.26-2.31,2.13-4.19,4.41-6.87,6a3,3,0,0,0,1.64,5.65h3.4a31.8,31.8,0,0,1,.58,4.37c.14,2.36,2.67,4.37,4.88,3a15.89,15.89,0,0,0,2.28-1.7,5.56,5.56,0,0,0,4.34,2.29,3.24,3.24,0,0,0,3.13-2.36c.43-1.93,2.82-4.09,3.73-6.13A3.72,3.72,0,0,0,192.76,302.91Zm-6.63,3.82a3.36,3.36,0,0,0-4.52-1.23,10.43,10.43,0,0,0-1.2.86c0-.38-.1-.77-.12-1.16a3.43,3.43,0,0,0-1.7-2.83,19.57,19.57,0,0,1,2.39-2.08,3.38,3.38,0,0,0,4.66-.3,44.84,44.84,0,0,0,1.31,5.4A10.73,10.73,0,0,1,186.13,306.73Z"/><path class="cls-2" d="M177.67,323.12a3.45,3.45,0,0,0-1-1.11,17.18,17.18,0,0,0-3.83-1.43,43,43,0,0,1-.76-5.05c-.12-2.3-2-3.45-4.1-3.13s-3.18,1.27-4.53,2.89a4.16,4.16,0,0,0-.66,1.4,3.13,3.13,0,0,0-3.24-3h-3.09c-1.65,0-3.41,1.31-3.25,3.07.41,4.34-1.3,8.55-.46,12.85.71,3.68,4.47,5,7.47,5.45v2.17a3.36,3.36,0,0,0,5,2.8,9,9,0,0,0,3.37-3.44c1.44.26,2.9.62,4.36.79a3.25,3.25,0,0,0,3.26-3.25,29,29,0,0,0-.57-3.25,7,7,0,0,0,3.56-4.14A3,3,0,0,0,177.67,323.12Zm-18.57,2.15c.05-.57.12-1.13.18-1.69,2.81-1,3.34-2.91,3.44-5.31A3.49,3.49,0,0,0,166,321a10.41,10.41,0,0,0,1,3.43,4.66,4.66,0,0,0,3,2,3.3,3.3,0,0,0-1.23,3.41c0,.11.05.21.07.32a18.6,18.6,0,0,0-2.1-.29,2.4,2.4,0,0,0-.7.06,3.36,3.36,0,0,0-2.4-1.09C160.14,328.71,158.78,328.79,159.1,325.27Z"/><path class="cls-3" d="M157.27,132.8c-1.52-.35-3.1-.7-4.68-.9-.05,0-.1-.24-.15-.24H153c1.08,0,1.88.33,2.4-.31a2.85,2.85,0,1,0-.4-5.69h-6.8a4.83,4.83,0,0,0-.37-2.26,55.76,55.76,0,0,0-1-5.85c.21-.22.42-.59.63-.81s.51-.54.76-.76c1.62,1.3,4.51.13,5.14-1.86.37-1.17,1-2.4,1.34-3.63a3.31,3.31,0,0,0,1.49-2.44V105c0-.08-.32-.17-.32-.25a51.15,51.15,0,0,0,.44-9.09c.83-7.81,2.25-15.6,3-23.38.5-5.5,1.11-12.31,0-18.41a3.13,3.13,0,0,0,0-3.15,8.41,8.41,0,0,0-1.63-2.16,16.55,16.55,0,0,0-3-4.69,3,3,0,0,0-3.38-.72c-.79-.64-1.6-1.26-2.43-1.85a2.77,2.77,0,0,0-3.15-.06,56.53,56.53,0,0,0-15.18-5.43,3.45,3.45,0,0,0-3.4,1.35,116.35,116.35,0,0,0-17.42-2.77,3.22,3.22,0,0,0-2.75-1.79c-2.12-.16-4.29-.28-6.48-.33a3.28,3.28,0,0,0-1.78-.7c-9.36-.7-19-.5-26.88,3.45A13.7,13.7,0,0,0,60.38,46.29,3.36,3.36,0,0,0,65.1,50a405.72,405.72,0,0,0,43,18.84,2.53,2.53,0,0,0,1.26.13c1.49,2.11,3.05,4.16,4.71,6.1a3.22,3.22,0,0,0,2.09,3,3.42,3.42,0,0,0,2.78,4.26q-1,.84-2,1.74a3.32,3.32,0,0,0-.28,4.18c-5.55,6.48-3.92,16.87-4.79,24.95a2.76,2.76,0,0,0,.39,1.84,4.27,4.27,0,0,0,.7,4.26c-.25,1.81,1,4.35,3.18,4.35h10.32a3.41,3.41,0,0,0,2.51-1.74c2.75-.37,5.52-.89,8.31-1-.13.35-.23.56-.33.91a35.64,35.64,0,0,0-8.25,1.76c-.46.16-.5.37-.82.66-.35.07.28.11-.72.19h0c-5,.13-7.89.91-11.7,1a3.59,3.59,0,0,0-2.27.83c-.57-.31-1.25,0-1.85-.24-.6-.62-1.53-.39-2.43-.39h-1a2.89,2.89,0,0,0-1.36,5.56,4.64,4.64,0,0,0,1.69,1.86,3.16,3.16,0,0,0,.7,6.24,15.19,15.19,0,0,1,1.91.12c-.1,2.37-.31,4.6-.26,6.88a3,3,0,0,0-.32,3.64c1.4,2.1,2.94,5.22,5.61,6a5.3,5.3,0,0,0,3-.13c9,3.88,17.82.46,26.88-1.94.41.19.88-.19,1.43-.19h4c5,0,5-5,0-5h-.83a2.35,2.35,0,0,0-2.19-1.28c-2.43-.17-4.79-1-7.23-1.16-1.61-.2-3.24-.46-4.86-.61a22.19,22.19,0,0,0-9.38-4,52.93,52.93,0,0,1,9.21-3.38,3.3,3.3,0,0,0,2.8.82,54.65,54.65,0,0,1,5.71-.57,57.9,57.9,0,0,0,5.68,2c2.93.86,4.42.89,6.55-1.24.08-.07.12-.16.19-.23C159.91,138.38,161,133.63,157.27,132.8ZM124.1,102.9c.27-1.35.5-2.71.66-4.07,0-.1,0-.2.08-.3q.27,1.06.57,2.13a3,3,0,0,0,.23.52A11.35,11.35,0,0,0,124.1,102.9Zm11.51-41.74a3.49,3.49,0,0,0,.2-.44h.62l0,1.43A3.43,3.43,0,0,0,135.61,61.16Zm-18.66,84c0-.39,0-.78,0-1.17l.18,0a3.75,3.75,0,0,0,.16,1.1C117.2,145.11,117.08,145.13,117,145.14Zm5.35-9.25a6.47,6.47,0,0,1-2.77.77h-.27a3.9,3.9,0,0,0-.33-1.52c.3-.22.56-.28.77-.56.61-.15,1.21-.19,1.78-.32a3.19,3.19,0,0,0,.85.32A2,2,0,0,0,122.3,135.89Z"/><path class="cls-4" d="M112.43,157.43a54.19,54.19,0,0,0,3,15.36c1.09,3.37,2.76,8.71,6.44,10.1.68.26,2.26-.72,1.16-1.14-3.55-1.34-5-7.46-6-10.64a49.57,49.57,0,0,1-2.65-13.89c0-.89-2-.5-1.94.21Z"/><path class="cls-4" d="M122.52,184.39c-1.1,1.33-2,2.8-3.09,4.13-.22.26,0,.42.29.47,8.94,1.93,18,.14,27.07,0,.41,0,1.38-.2,1.38-.75v-5.16c0-.22-.48-.24-.6-.24-7.93,0-15.68.93-23.61.93-.65,0-2.09.88-.79.88h.89c.64,0,2.08-1,.78-1H124c-.65,0-2.08,1-.78,1h9.18c2.46,0,4.85-.61,7.32-.8,1.73-.13,3.47-.06,5.21-.07,2,0,1.31,3.9,1.31,5l1.36-.74c-5.07.08-10.11.63-15.16.87a54.49,54.49,0,0,1-8.28-.25c-3.6-.38-1.23-2.54.2-4.26.49-.6-1.43-.4-1.79,0Z"/><path class="cls-4" d="M148.8,181.62c6.34-4.31,9.54-15,8.61-22.27-.09-.73-2-.28-1.93.51.86,6.76-2,17.11-7.9,21.09-1.09.73.55,1.12,1.22.67Z"/><path class="cls-4" d="M116.34,160.67l-3.1,3.1c-.23.23-.08,1-.08,1.26,0,.13.27.18.35.19,1.32.1,2.76,1.25,3.84,2a1.71,1.71,0,0,0,1.79-.38c1-1.07,2.12-2.4,1.91-4-.19-1.43-1.88-2.18-3-2.6-.41-.14-1.77.08-1.75.68a13.88,13.88,0,0,0,.24,1.8c.06.37.12.74.17,1.11.08.58-.15.54.37.3l1.35-.22a2.58,2.58,0,0,0-.2-.41c-.29-.56-2.15.11-1.93.51s.39.79.95.77,1.35-.21,1.43-.76c.15-1.17-.41-2.44-.45-3.62l-1.75.67a3.87,3.87,0,0,1,2.62,2.06c.52,1.39-.83,2.86-1.69,3.76l1.79-.39c-1.26-.83-2.87-2-4.42-2.16l.35.19c0-.52-.09-.8.26-1.15l2.76-2.76c.32-.32-.28-.42-.49-.42a2,2,0,0,0-1.28.49Z"/><path class="cls-4" d="M125.64,160.72a4.45,4.45,0,0,0-1.53,3.14c0,1.44,1.47,2.56,2.52,3.29.33.23,1.74-.09,1.86-.5.24-.75.56-1.68,0-2.35-.31-.35-.94-.26-1-.82,0-.32-2,0-1.93.51s.43.58.8.75c.86.4.45,1.6.24,2.27l1.87-.5a5.12,5.12,0,0,1-2.38-2.9c-.28-1.16.55-2.28,1.3-3.06.38-.39-1.43-.14-1.74.17Z"/><path class="cls-4" d="M133.81,160.77c-.81,1.68-1.26,3.49-2.07,5.16-.07.15.09.26.19.31a9,9,0,0,0,4.52,1.1c.43,0,1.35-.2,1.35-.77a8.06,8.06,0,0,0-.87-4.13c-.3-.6-1.76-.13-1.76.52V165c0-.21,1.08-.42,1.7-.63a8.33,8.33,0,0,1-1-1.35c-.3-.48-1.22-.2-1.6,0s-.43.48-.44.92,1.92.19,1.93-.51v-.28l-.38.38,0,0h-1.56a11.71,11.71,0,0,0,1.26,1.57c.4.44,2.07,0,2.07-.63v-2.07A20.89,20.89,0,0,0,135,163a8.21,8.21,0,0,1,.93,4.13c.45-.25.85-.51,1.3-.77a7.53,7.53,0,0,1-3.76-1l.17.32c.81-1.68,1.25-3.49,2.06-5.16.25-.52-1.65-.32-1.93.26Z"/><path class="cls-4" d="M141.17,160.7v6.19a.69.69,0,0,0,.75.77H144c.41,0,1.3-.51,1-1a11.49,11.49,0,0,1-1-5c0-1.06-1.9-.82-1.9.1v3.1c0,1.06,2,.8,2-.12v-3.1c-1,0-1.39.08-2,.12a11.53,11.53,0,0,0,1,5.15c.35-.34.66-.22,1-1.22h-2.06c.3,1,1.1.88,1.1,1.11v-6.19c0-1.06-2-.81-2,.12Z"/><path class="cls-4" d="M149.17,160.9v6.19c0,.2.58.57.67.57h3.1c.23,0,1.69-.54,1.32-1-1-1.19-1.09-3-2.14-4.23-.32-.36-2,0-2,.5V165c0,.39,2,.09,2-.52v-3.1c0-.39-2-.09-2,.52V165c0,.39,2,.09,2-.52v-2.07a10.26,10.26,0,0,0-1.83.6c1,1.19,1,3.06,2.08,4.26.44-.25.9-.64,1.34-.64h-3.1c.19,0,.51-.14.51-.09v-6.19c0-.39-2-.09-2,.52Z"/><path class="cls-4" d="M110.29,157.07c13.26,8.49,31.44-.83,45.82.15.95.06,2-1.33.67-1.42-6.89-.47-13.83,1-20.62,2-7.75,1.06-17.41,2.64-24.39-1.82-.72-.47-2.41.53-1.48,1.12Z"/><path class="cls-4" d="M156.87,156c2.71-1.53,5.15-3.79,5.53-7a3.51,3.51,0,0,0-1.11-2.74,6.37,6.37,0,0,0-1.95-1.29c-.82.09-1.11-.22-.88-.93,0-.84,0-1,0-.35,8.15-.63,3.86-11.75-.22-14.58l-.84,1.25c6.27-.53,9-9.26,1.21-8.62l.33,1.26c4.82-2.39,6.22-7.66.14-9.46-.82-.24-2.29.94-1.12,1.28,4,1.2,4.72,4.78.13,7.06-.82.41-.6,1.33.34,1.25,5.61-.46,3,5.51-.85,5.84-.51,0-1.59.73-.84,1.24,2.93,2,8.06,11.6.67,12.17-.37,0-1.23.3-1.23.78v2.06c0,.29.31.47.58.57,5.72,2,3.12,6.89-.81,9.12-1.15.65,0,1.66.93,1.12Z"/><path class="cls-4" d="M109.85,112.59c-6.35,2-1.66,9.13,1.32,12.32l1.25-1c-1.33,0-5.45-.88-6.43.56-2.18,3.2.7,5.89,3.25,7.8l1.11-1.13c-1.89-.14-5.35-.18-6.1,2.17-.92,2.85,1.74,5.75,4.27,6.7,2,.77.36,1.5-.42,3.51a16.19,16.19,0,0,0-1,5.93c0,3.11,1.51,5.34,4.62,5.64.84.08,2-1.12.71-1.25-6-.57-3-10.88-.6-13.6.27-.31.23-.71-.22-.81-2.91-.69-10-7.61-2-7,.49,0,1.9-.78,1.11-1.37.21.15-6.07-6.33-3.25-6.33h4.21c.33,0,1.81-.17,1.24-.78-1.6-1.72-7.35-8.81-2.8-10.27,1.15-.37.86-1.4-.3-1Z"/><path class="cls-4" d="M124.85,145.62c9.76-4.19,20.75,3.92,31,0,.5-.19.86-.83.18-1-8-2.47-16.68-3.06-25-3.13l-.72,1.22c6.19,0,12.1-.3,18.06-2.12,1.15-.36.87-1.46-.3-1.11-5.63,1.73-11.19,2-17,2-.79,0-2,1.2-.72,1.22,8.17.06,16.71.62,24.55,3.06l.18-1c-10.12,3.89-20.87-4.32-31,0-1.24.53-.12,1.32.8.93Z"/><path class="cls-4" d="M110.67,136.48c6.18,0,12-.26,17.49-3.36,1.14-.64-.53-1.1-1.23-.7-4.86,2.73-10.12,2.83-15.54,2.84-.81,0-2,1.22-.72,1.22Z"/><path class="cls-4" d="M112.7,122.92c5.91,0,11.67-.13,17.27-2.22,1.28-.48.09-.94-.72-.63-5.08,1.9-10.41,1.9-15.76,1.9-.63,0-2.09,1-.79,1Z"/><path class="cls-4" d="M143.16,125.91c1.28,1.82,4.86,1.27,6.7,1a15.35,15.35,0,0,0,8.39-3.34c.11-.1.33-.38.13-.51-4.66-3.14-10.49-2.36-15.61-4.22l-1.16,1c5.08.08,10,.66,14.4-2.33,1.08-.73-.6-.93-1.19-.53-3.83,2.58-8.12,1.87-12.44,1.8-.29,0-2,.68-1.16,1,4.53,1.64,9.53,1.26,13.95,3.19,2.3,1-.18,1.56-1.33,2a16.36,16.36,0,0,1-3.71.91c-1.4.22-4.2.61-5.17-.76-.36-.51-2.24.13-1.8.74Z"/><path class="cls-4" d="M159.47,112.9c-.21-7.71-2.66-15.23-3.2-22.93-.69-9.86,4.17-18.79,6.47-28.11,1.94-7.88.34-16.42-5.93-21.93-5.26-4.62-13.18-5.42-19.86-5.75-9.27-.46-18.06-.23-27.28-2-9.38-1.82-19.19-4.35-28.81-3-5.59.78-11.8,2.07-16.31,5.71C59.4,39,57.07,45.13,55.35,51.34c-.21.76,1.75.48,1.94-.22,1.72-6.21,4-12.36,9.41-16.28,6.51-4.71,16.16-5.14,23.79-4.59,8.92.64,17.53,3.37,26.38,4.46,7.31.89,14.65.31,22,.8,9.06.61,17.18,3.53,21.2,12.17,3.69,7.9.24,16.87-2.38,24.5-2.4,7-3.81,13.66-3.11,21,.66,6.77,2.79,13.41,3,20.22,0,.68,2,.28,1.93-.52Z"/><path class="cls-4" d="M60.71,52.71c15,4.52,30.5,9.3,44.08,17.29,6.11,3.59,10.83,9.68,9,17.08-2,8-3.58,16-3.72,24.27,0,.54,1.92.2,1.93-.52a89.74,89.74,0,0,1,1.79-15.4c.71-3.71,2.54-7.94,2.4-11.71-.24-6.28-3.67-10.5-8.71-13.91-13.2-8.92-30.16-13.46-45.21-18-.56-.17-2.31.67-1.55.9Z"/><path class="cls-4" d="M112.4,74.17a44,44,0,0,0,5.79-2.68c1.07-.59,2.14-1.21,3.21-1.8,1.95-1.08,5.4-3.19,7.45-3.32-4.95.3-9.07,4-13.78,5.18-.06,0-1.2.49-.82.65,4.76,2,9.92,1.19,14.95,1.11.38,0,2-.82,1-.82-4.43,0-8.39.57-11.82,3.57-.07.06-.15.21,0,.27,4.39,2.4,9.61.76,13.85-1.22,1.16-.54-.64-.51-1.12-.29-2.91,1.36-5.92,2.27-9.16,1.63l4.23-3.06c.94-.07,1.87-.09,2.81-.08l1-.81c-4.66.07-9.52.93-14-1l-.83.65c4.79-1.18,9-4.78,14-5.07.52,0,2.11-.88.82-.82-6.89.35-12,5.1-18.3,7.4-1.29.47-.07.75.68.47Z"/><path class="cls-4" d="M157.33,44.6c-5.17-5.48-14.16-6.63-21.21-7.83-9.14-1.54-18.37-2.84-27.55-4.12-18-2.54-39.66-3.6-53.06,11.06-.82.9,1,1.23,1.62.58,13.46-14.72,35.55-12.44,53.42-9.84,7.44,1.07,14.87,2.23,22.3,3.34,7.26,1.07,17.37,2,22.71,7.67.61.65,2.44-.14,1.77-.86Z"/><path class="cls-4" d="M117.84,191.07a11.17,11.17,0,0,0-6.75,9.91c0,1,1.92.65,2-.17.12-3.57,2.17-7.36,5.63-8.68,1.24-.47.13-1.43-.83-1.06Z"/><path class="cls-4" d="M151.61,188.69c-.65.22.5,1.22.8,1.77a18.85,18.85,0,0,1,1.15,2.83c.78,2.23,1.35,4.54,1.92,6.83.09.37,2-.13,1.93-.52a54.42,54.42,0,0,0-2.87-9.25c-.77-1.72-1.69-2.68-3.58-2-1.31.45-.06.6.65.36Z"/><path class="cls-4" d="M112,207c0-2.21-1-6.47,1.59-6.54,1.75,0,3.5-.15,5.25-.24,4.73-.24,9.47-.48,14.21-.59,4.12-.1,24.78-1.64,24.49,5.5,0,.91,1.91.56,1.94-.19.28-6.69-13.26-6.38-17.31-6.54-9.94-.37-19.83.78-29.75.85-.4,0-1.1.11-1.27.56a20.5,20.5,0,0,0-1.09,7.39c0,.91,1.94.55,1.94-.2Z"/><path class="cls-4" d="M101.59,207.05c1.16-1.23,1.11-2.75,1.11-4.35,0-.2-.46-.18-.56-.18a15.58,15.58,0,0,0-4.51.44,5.14,5.14,0,0,0-1.61.79,2,2,0,0,0-.67,1.54,1.8,1.8,0,0,0,1.86,2.24c.58,0,2.1-.86.81-.88.33,0,0,0-.15-.1a1.22,1.22,0,0,1-.57-.85c-.18-.73,0-1.86.81-2.1a11.6,11.6,0,0,1,3.22-.2l-.56-.18c0,1.41.08,2.82-1,3.91-.31.33.27.41.48.4a2,2,0,0,0,1.29-.48Z"/><path class="cls-4" d="M99.55,201.59c-1.25-1.23-3.66-2.78-4-4.6-.2-.93.75-1.94,1.27-2.56,1.16-1.39,2.5-2.64,3.78-3.92l-1.84.32A26,26,0,0,0,105,200.2l.34-.49c-1.33.7-2.63,1.7-4.18,1.8-.54,0-2.11.91-.83.83,2.37-.15,4.08-1.24,6.14-2.33.14-.07.55-.28.34-.48a25.66,25.66,0,0,1-6.13-9.22c-.19-.51-1.61.09-1.84.32-1.49,1.48-5.07,4-5.24,6.42-.14,2,2.93,4,4.17,5.21.38.37,2.16-.34,1.82-.67Z"/><path class="cls-4" d="M169.17,200.64v-.86c0-.3-2,0-2,.51v5c0,.3,1.76,0,1.76-.52,0-1.67.37-4.47,2.56-4.51-.11,0-.32-.09-.32-.13v5.16c0,.3,2,0,2-.52V199.6c0-.11-.42-.12-.47-.12a6.84,6.84,0,0,0-4.4,1.41c-1.2,1.07-1.21,2.89-1.23,4.39a20,20,0,0,1,2.1-.52v-5c0-.3-2,0-2,.51v.86c0,.3,2,0,2-.51Z"/><path class="cls-4" d="M167.72,200.66H175a1.13,1.13,0,0,0,1.06-.83c.68-3.38-1.64-5.58-3.77-7.84-.88-.94-1.29-2.14-2.66-2.14s-1.71.53-2.5,1.46c-1.34,1.59-2.81,3.88-2.6,6.05.25,2.69,3.08,3.18,5.3,3.23,1.13,0,1.47-1.43.16-1.46-2.21,0-3.87-.86-3.4-3.27.37-1.89,1.79-3.46,3.1-4.81-.29.15-.59-.39-.89.61h1c-.26,0-.53-.38-.8-.48,2,2.82,5.86,4.68,5.07,8.6.35-.26.7-.12,1.06-1.12h-7.23c-1.12,0-1.47,2-.16,2Z"/><path class="cls-4" d="M97.53,207.82a166.7,166.7,0,0,1,21.43,1c6,.79,11.79,1.73,17.92,1.71a84.42,84.42,0,0,0,16.26-1.62c5.34-1,12.07-2.72,17.2-.14.82.41,2.22-.78,1.11-1.34-8.33-4.18-20.21.84-28.89,1.44a84.49,84.49,0,0,1-22.94-1.49c-7-1.47-14.79-1-21.93-1-1.12,0-1.47,1.46-.16,1.46Z"/><path class="cls-4" d="M94,207a14.93,14.93,0,0,0-3.37,1.79c-1,.73-1.92,1.49-2.83,2.3-.52.45-1.54,1.92-2.18,2.13-2.1.69-4.18,1.42-6.22,2.26-2.29.94-8.8,3.86-4.34,6.39.47.27,2-.54,1.83-.64-4.81-2.72,4-5.76,6.11-6.52,1.26-.47,2.62-.77,3.85-1.32a7.52,7.52,0,0,0,1.83-1.69,20.26,20.26,0,0,1,6.42-4.5c1.18-.48-.67-.37-1.1-.2Z"/><path class="cls-4" d="M174.14,205.43c3,2.76,7.1,4.33,10.68,6.18,3.18,1.63,10.23,4.56,9.88,9-.08.91,1.88.58,1.94-.19.31-3.89-4.1-6.33-6.95-8-4.42-2.61-10-4.25-13.77-7.77-.58-.53-2.41.23-1.78.81Z"/><path class="cls-4" d="M73.75,223.15c23.42-1.25,46.92,3.56,70.35,4,8.52.17,16.82.61,25.15-1.26,3.9-.88,7.79-1.77,11.73-2.44,3.34-.57,8.86-1.85,11.73.51.56.47,2.37-.3,1.79-.78-3.95-3.25-11.28-1.27-15.71-.46-3.66.67-7.28,1.54-10.91,2.35-5.8,1.3-11.61,1-17.53,1-12.89-.1-25.73-.84-38.56-2.1-12.58-1.24-25.14-2.65-37.8-2-1,0-1.57,1.23-.24,1.16Z"/><path class="cls-4" d="M75,227.05c12.86,10.43-2.21,24.52-9,33.48-8.1,10.73-7.61,24.54-4.44,37.06,3.45,13.64,11.37,25.87,19.86,36.9,10.34,13.45,21.46,26.49,32.78,39.13.38.42,2.2-.26,1.81-.7-11-12.27-21.56-25-31.81-37.88-9.36-11.78-17.39-24.84-21.11-39.53a59.12,59.12,0,0,1-1-22.87c1-6.87,5.71-12.39,10-17.57,6.68-8.11,15.5-20,4.72-28.72-.46-.37-2.21.38-1.81.7Z"/><path class="cls-4" d="M192.65,226c-10.74,1.11-3.38,14.86-.54,20.1A159.46,159.46,0,0,0,202.27,262c1.14,1.61,2.31,3.21,3.46,4.81,3,4.15,3.69,11.11,4,16.05,1.58,23.21-15.12,43.89-28.32,61.22-3.78,5-7.27,10.09-11.26,14.9-2.42,2.93-12.33,16.34-17.12,13.73-.77-.41-2.45.61-1.48,1.14,3.67,2,7.91-1.73,10.5-4,5.75-4.95,10.54-11.09,15.13-17.09,11.57-15.13,24.18-30.69,30.94-48.66a51.82,51.82,0,0,0,2.06-31c-1.42-5.67-4.25-9.19-7.5-13.84-2.69-3.86-21.41-30.66-10.22-31.81,1.1-.12,1.48-1.59.16-1.46Z"/><path class="cls-4" d="M92.93,237.7c9.32,4.33,19.17,3.83,29.17,4.22,6.13.24,12.26,1.41,18.35,2.06,8.67.92,27.31,4.05,32.41-5.79.52-1-1.44-1.08-1.86-.27-2.52,4.87-9.65,5.14-14.42,5.34-6.63.29-13.32-.48-19.9-1.26-4.81-.56-9.64-1.39-14.49-1.58-9.69-.38-19.13.12-28.16-4.08-.86-.4-2.23.84-1.1,1.36Z"/><path class="cls-4" d="M62.45,295.6c-4.33-9.1-5-17.66-2.07-27.22,1.92-6.27,5.5-14.88.95-20.91-4.14-5.46-11.6-7.81-18.33-7.05-5.29.6-10.73,3.85-8.82,10,1.48,4.75,8,6.94,12.34,4.9,3.47-1.65,6.92-5.41,1.75-7.48-3-1.2-6.9,0-8.2,3-2.54,5.86,5.48,5.65,8.58,4,1.14-.61-.61-.74-1.17-.44-8.76,4.7-5.71-11.29,1.19-4.42,1.72,1.72-1.09,3.72-2.22,4.42-3.53,2.17-7.27-.24-9.39-2.76A6.5,6.5,0,0,1,35.87,246c1-5,7.62-4.9,11.43-4.44,5.25.62,10,2.92,12.77,7.53,3.95,6.47-.45,15.54-2.34,22-2.53,8.6-1,17,2.79,25,.28.59,2.16-.05,1.93-.52Z"/><path class="cls-4" d="M43.87,239c.08-1.94.81-3.76,1-5.68.11-1,3-.84,3.84-.84l-.6-.49c0,2.35,0,4.88-1,7.07-.42.9,1.52.73,1.81.1a17.49,17.49,0,0,0,1.1-7.39c0-.33-.29-.49-.61-.49a12.6,12.6,0,0,0-5.48.85c-1.16.57-1,1.26-1.17,2.44a38.71,38.71,0,0,0-.88,4.64c0,.87,1.92.51,1.94-.21Z"/><path class="cls-4" d="M43.52,231.41c-4.73-.32-7.57-3.69-7.91-8.27a3.19,3.19,0,0,1-1.36.52h5.16c.33,0,1.42,0,1.36-.52-.48-4.13,5-6.76,6.94-2.8a2.47,2.47,0,0,0,2.15,1.17c2.37,0,5.12-1.41,6.53,1.29,1.71,3.27-2.92,7-5.9,6.13-.3-.09-2.17.27-1.68.77l.42.44c.39.41,2.2-.28,1.8-.7l-.42-.43-1.68.76a8.45,8.45,0,0,0,9.2-4A3.92,3.92,0,0,0,56,220.2c-2.78-.8-5.88,2.18-6.93-2,0-.15-.24-.17-.35-.19-4.5-.93-10.52-.19-9.84,5.63.46-.24.91,0,1.37-1H35.05c-.35,0-1.41.45-1.37,1a8.77,8.77,0,0,0,8.61,8.57c.49,0,2.25-.71,1.23-.78Z"/><path class="cls-4" d="M205.29,299.18c13.45-5,14.35-17.72,11.41-30.06-1.79-7.53-4.92-17.29.53-24,5.92-7.26,17.58,4.41,7,8.16-.14.05-1,.47-.45.6,5.45,1.35,10-1.53,8.71-7.55-1.46-7-11.42-10.36-17.5-7.6-7.7,3.5-6,14.61-4.66,21.23,2.27,10.94,8.29,25.9.9,36-.14.19,1.57.12,1.91-.34,9.86-13.53-2.84-32.23-1.93-47,.28-4.71,1.75-10,7.72-9.95,4.67.08,8.94,2.26,11,6.45a9.37,9.37,0,0,1,.87,4.07c.06,3.27-2,3.06-4.84,4.07a7.47,7.47,0,0,0,4.34-3.64c1.78-3.64-2.95-7.31-6.08-7.68-4.43-.53-7.9,1.69-10.32,5.29-4.51,6.74-.14,18.08,1.48,25.08,2.44,10.59.57,22.11-10.81,26.3-1.29.48-.06.73.67.46Z"/><path class="cls-4" d="M228.41,244.72c-2.95-2.47-7.83.07-9.54,2.94-1.17,2,0,4,1.71,5.18,4.3,3,11,1.3,11.16-4.54,0-1-1.94-.74-2,.15,0,1.68-.55,3.49-2.29,4.13a6.3,6.3,0,0,1-4.68-.44c-1.22-.55-2.5-1.68-2.44-3.13.1-2.67,4.63-4.78,6.55-3.17.67.56,2.35-.4,1.49-1.12Z"/><path class="cls-4" d="M221.74,230.69c-1.18,1.22-2,2.88-1.37,4.53.27.64,1.8.13,1.8-.52v-4.13a.89.89,0,0,1-.06.39c1-.82,2.88-.65,4.07-.65l-.55-.26c.07,2.36,1,4.83,0,7.1-.24.56,1.68.34,1.94-.26,1-2.35.07-4.92,0-7.35,0-.23-.45-.26-.58-.26a13.38,13.38,0,0,0-5.65.86c-.85.41-1.2.69-1.2,1.6v3.48a20,20,0,0,0,2.1-.52,3.65,3.65,0,0,1,.92-3.74c.77-.8-1-.69-1.45-.27Z"/><path class="cls-4" d="M221.72,228.57c-2.13,2-5.08-.73-6.21-2.59a3.85,3.85,0,0,1-.47-3.46c.81-1.73,3.5-1.52,5-1.42.45,0,1.41-.24,1.33-.85-.24-1.7.41-4.13,2.51-4.19,2.43-.08,3,2.67,2.78,4.55-.07.57.78.51,1.11.43,2.56-.61,7.13-.69,6,3.22-.91,3.2-4.65,4.55-7.64,3.94-.67-.13-2.28.89-1.16,1.12,4.16.85,9.08-.87,10.68-5.08a3.27,3.27,0,0,0-1-3.92c-2-1.4-4.93-.88-7.16-.35l1.12.43c.35-3-1.14-5.82-4.47-5.51a5,5,0,0,0-4.69,5.87l1.33-.84c-2.37-.16-5.26-.06-7,1.75-1.29,1.33-1,3.27-.23,4.77,1.84,3.5,6.55,5.55,9.75,2.52.84-.8-1.07-.87-1.57-.39Z"/><path class="cls-4" d="M130.17,303.34v17.55c0,.06-.16.1-.08.1,3.59.33,7.11-.24,9.78-2.84,3.37-3.28,2.49-9.64,0-13.1-1.81-2.48-5.06-4.48-8.2-4.1-3.51.43-4.22,3.42-4,6.52,0,.31,2,0,1.92-.52a7.61,7.61,0,0,1,.73-4.63c.93-1.58,3.47-.06,4.48.52,2.9,1.68,4.33,4.32,5,7.5a10.77,10.77,0,0,1-.34,5.63,8.83,8.83,0,0,1-1.26,1.9c-.84,1.22-7,4.39-7,1.19V302.82c0-.27-1,0-1,.52Z"/><path class="cls-4" d="M130.58,299.72c-.06-5.06-1.9-14.74,5.2-15.94a3.61,3.61,0,0,1-.61,0v17.54c0,.25,2,0,2-.51V283.21c0-.2-.9-.07-1-.06-8.94,1.52-7.52,10-7.45,17.09,0,.25,1.84,0,1.84-.52Z"/><path class="cls-4" d="M134.7,281.15c-.58-11.2,21.3-2.18,17.55-16.52-.21-.79-2.14-.27-1.93.52.75,2.88.83,5.79-2.25,7.15-2.35,1.05-5.17,1.06-7.67,1.55-4.41.86-7.89,2.85-7.63,7.81,0,.76,2,.33,1.93-.51Z"/><path class="cls-4" d="M138.78,281.49c2.6-4.38,6.64-3.15,10.71-4.7,4.85-1.84,5.56-7.44,5.87-12,.06-.95-1.9-.64-2,.18-.21,3.19-.47,6.89-2.64,9.43-1.3,1.52-3.47,1.66-5.31,1.89-3.68.46-6.55,1.73-8.5,5-.53.9,1.43.85,1.83.17Z"/><path class="cls-4" d="M151.14,262.41c-1.29-1.3-2-2.31-3.83-2.71-1.05-.23-2.12-.27-3.17-.54q-2.83-2.46,1-4.91a5.35,5.35,0,0,1,3.36.87c.62.34,1.78,0,1.72-.81a6.85,6.85,0,0,1,2.22-6.14c3.32-2.76,4.23,2.37,4.09,4.41-.05.72,1,.69,1.4.48,6-2.93,7,5.6,3.4,6.73-2.08.65-4.26.63-6.31,1.45-1.23.49-.14,1.5.85,1.11,4.32-1.73,8.58-.41,9.45-6.23.75-4.94-5-5.74-8.23-4.17l1.4.48c.2-3-.85-7-4.75-6.23-4.08.84-5.74,4.8-5.46,8.63L150,254c-2.88-1.62-7.64-1.88-9,1.86a4,4,0,0,0,1.18,4.17,5.49,5.49,0,0,0,2.59.75,7.08,7.08,0,0,1,4.59,2.45c.6.6,2.43-.18,1.77-.84Z"/><path class="cls-4" d="M114.53,375.72c11.87,0,23.76.89,35.54-1.07.76-.13,1.73-.92.36-.69-11.47,1.92-23.08,1-34.64,1-.4,0-2.2.77-1.26.77Z"/><path class="cls-4" d="M115.45,378c5,4.56,12.7,4.93,19.11,4.67,6.13-.24,13.7-1.52,18.4-5.81,1-.89-.56-1.57-1.29-.9-7.67,7-26.92,8-34.74.92-.64-.59-2.32.36-1.48,1.12Z"/><path class="cls-4" d="M119.62,378.77c-4.46-.83-6.65,7.05-7.5,10.06-.08.27.21.49.42.57,6.53,2.61,12.81,4.48,19.9,4.08a75,75,0,0,0,13.9-2.07c3-.75,6.61-1.84,8.41-4.55,2.26-3.38-3.76-6.76-5.82-7.95-.72-.42-2.42.57-1.49,1.11,3.12,1.8,8.62,5.38,3.43,8.32-3.44,1.94-7.88,2.52-11.72,3.08a63.69,63.69,0,0,1-11,.71c-3.92-.13-7.73-1.45-11.36-2.8-2.2-.81-2.33-2-1.5-4.12.46-1.17,2.06-5.35,3.69-5,.94.17,2-1.15.67-1.39Z"/><path class="cls-4" d="M113.44,382.94c-7.49-.54-10.11,7-5.36,12.42,2.47,2.82,8.27,3.72,11.67,4.36a70.63,70.63,0,0,0,16.3.9c8.25-.36,16.2-2,21.47-8.81,5-6.52,1.8-12.18-5.89-13-.88-.09-2,1.16-.7,1.3,7.78.83,8.69,6.4,4.4,12-4.05,5.28-10.31,6.45-16.54,7.05A66.29,66.29,0,0,1,118.43,398a25.82,25.82,0,0,1-8-3.06c-4.1-2.47-4.51-11.2,2.27-10.71.87.06,2-1.2.69-1.3Z"/><path class="cls-4" d="M110.61,385.22c-7.79-.61-10.77,8.58-18.46,8.41-4.93-.1-9.81-1.41-13.74,2.35-7.87,7.54,18.82,22.95,2.59,26.48-.16,0-1.34.59-.69.76,1.08.28,2,.75,3.1,1,.48.13,2.21-.64,1.57-.81a5.68,5.68,0,0,1-2.07-.76c-.89.36-.73.34.48-.05a10.4,10.4,0,0,0,2.33-1,4.7,4.7,0,0,0,2.58-3.72c.42-4.42-4.72-9.54-6.94-12.92a13.51,13.51,0,0,1-2.54-6.08c-.52-6.37,9.35-4.47,13.14-4.39a11.06,11.06,0,0,0,5.31-1.13c3.74-2,7.61-7.66,12.11-7.31.47,0,2.24-.79,1.23-.87Z"/><path class="cls-4" d="M85.63,422.19c2.72.26,6,.14,7.78-2.2,2.07-2.63.8-7.39.5-10.37a14.59,14.59,0,0,1,.41-6.44c1.74-4.83,9.45-2.2,12.94-1.19,8.43,2.44,15.85,6.54,24.82,6.78.42,0,2.21-.78,1.25-.81-9.29-.24-17.16-4.61-25.9-7.14-4.17-1.2-9.05-1.95-13,.28-7.3,4.13,4.18,21.41-7.55,20.28-.42,0-2.22.71-1.25.81Z"/><path class="cls-4" d="M137.8,407.07a1.83,1.83,0,0,1-.63-1.35l-1.75.64a22.62,22.62,0,0,1,3.44,1.19c1.49.46,3.38.22,4.92.29,3.06.13,6.28.41,9.31-.27,5.18-1.15,9.36-4,14-6.4,3.29-1.66,7.53-3.16,9.39,1,1.32,2.94.69,6.69-.82,9.38-3.57,6.37,4.07,8.52,8.74,10.61.52.23,2-.57,1.81-.67-3.58-1.6-7.51-2.37-9.49-6.11-1.19-2.25,1.78-5.65,2.23-7.88.81-4-.65-8.79-5.19-8.92-3.67-.11-7.52,2.14-10.6,3.84a51.85,51.85,0,0,1-7.09,3.69c-4.18,1.55-8.52,1.08-12.8.89-2.24-.09-4.18-1.08-6.31-1.36-.33-.05-1.82.08-1.76.64a1.8,1.8,0,0,0,.63,1.35c.29.49,2.1-.24,1.93-.52Z"/><path class="cls-4" d="M185.2,418.27c-2.28-3.41-2.51-5.11.14-8.18a16,16,0,0,0,3.54-6.38c.94-3.74.65-6.9-2.9-8.91-4.21-2.38-10-2.16-14.57-3.51A22.14,22.14,0,0,1,165,388c-1.24-.84-4-3.56-4.79-3,1-.79-.54-1.39-1.27-.83l-.1.07a.62.62,0,0,0-.25.84c1.46,2.52,5.55,4.51,8,6,4.41,2.65,10.41,2.83,15.31,3.91,8.61,1.9,5.48,10.43,1.22,15.35-2.72,3.15-1.85,5.44.37,8.76.46.7,2.31,0,1.77-.83Z"/><path class="cls-4" d="M162.51,384.66a23.35,23.35,0,0,1,4-5.21,3.38,3.38,0,0,1-1.15.21h4.12a1.15,1.15,0,0,1-.59-.13c1,3.5.19,7.3,2.13,10.55.35.57,2.23,0,1.79-.73-1.87-3.12-1-6.8-2-10.17-.07-.24-.39-.3-.6-.3-1.4,0-3.86-.51-5.1.27-1.78,1.12-3.45,3.64-4.43,5.44-.45.83,1.49.65,1.81.07Z"/><path class="cls-4" d="M107.86,384.37c-1.7-3.21-5-4.8-8.21-2.57-3.64,2.48-4.37,7.4-3,11.34.2.57,2.12,0,1.94-.52a10.1,10.1,0,0,1,.84-8.89c.74-1.14,1.94-2.32,3.39-2s2.46,1.87,3.12,3.11c.31.57,2.16-.1,1.93-.51Z"/><path class="cls-4" d="M95.8,402a5.15,5.15,0,0,1-.7.57,1.5,1.5,0,0,0-.68.66c-.24.69,1.5.55,1.79.55l.74-1.14a3.28,3.28,0,0,0-2.3.51c-.74.75.64,1.31,1.16,1.58a1.52,1.52,0,0,0,1.37-.17c.27-.17.58-.58.16-.8a8.94,8.94,0,0,1-.8-.44.61.61,0,0,1-.15-.12s-.08-.14,0,0c.13.36-.51.59-.77.63l.2,0c-.23,0,0,0,.08,0h.35a1.52,1.52,0,0,0,1.27-.53c.25-.39-.21-.61-.53-.61h-.89c-.07,0-.29,0,0,0q.43.48.06.69l.09-.06a9.4,9.4,0,0,0,1.17-.91c.29-.29.22-.63-.2-.72a1.6,1.6,0,0,0-1.36.36Z"/><path class="cls-4" d="M169.48,403.66h3.1a1.59,1.59,0,0,0,1.27-.48c.28-.38-.23-.5-.51-.52a4.22,4.22,0,0,1-1.5-.6,4,4,0,0,0-1.6-.42c-.32,0-2,.58-1.15,1l.55.3a3.57,3.57,0,0,1,.38.25l.13.1c.51.44-1.3-.5,1.13-.59a1.69,1.69,0,0,0-1.28.52c-.27.36.22.54.51.53.51,0,2.23-.43,1.44-1.2a5.21,5.21,0,0,0-1.31-.81l-1.16,1a4.38,4.38,0,0,1,1.5.62,4,4,0,0,0,1.6.41c.25-.35.51-1.06.76-1.06h-3.1a1.64,1.64,0,0,0-1.27.49c-.27.37.22.51.51.51Z"/><path class="cls-4" d="M104.6,322.32a9.22,9.22,0,0,0-7.41,1.88c-2.55,2.15-.81,4.78,1.57,6.05a6.9,6.9,0,0,0,7.12-1c2.44-2.13-.2-4.8-2.2-5.85-.5-.27-2.06.53-1.82.65,1.5.8,3.13,2,3,3.86-.1,2.16-2.53,2.24-4.07,1.77-1.7-.53-3.43-2.28-2.9-4.16.61-2.12,3.18-2.78,5.08-2.45a2.34,2.34,0,0,0,1.35-.25c.14-.06.68-.42.24-.5Z"/><path class="cls-4" d="M99.61,323.47c-2.17-4.35-3.78-8.44-2.06-13.27l-1.34.7c1,0,1.18.87,1.93,1.68,1,1.1,2.23,2.05,3.35,3.06,2.57,2.31,4.71,5,1.53,7.89-.85.77,1.06.85,1.57.39,6.19-5.58-3.62-9.62-6.09-14a.7.7,0,0,0-.52-.23h-1a1.37,1.37,0,0,0-1.33.73c-1.75,4.91-.16,9.12,2.07,13.58.35.71,2.24.12,1.93-.5Z"/><path class="cls-4" d="M105.8,322.44c.16-3,2-5,4-7.06l-1.5.46c3-.1,5.39-1.27,8.18-2.25h-1.27a39.4,39.4,0,0,1-3.18,6.49A34,34,0,0,1,110,323.3a6.52,6.52,0,0,1-1,1.18c1,.17,1.39,0,1.06-.37a1.56,1.56,0,0,1-.09-.64c0-.28-2,0-1.93.51.09,2.55,3.27-.2,3.9-1a36.9,36.9,0,0,0,5.24-9.73c.14-.39-1.16,0-1.28,0-2.08.73-4,1.81-6.26,1.88a2.45,2.45,0,0,0-1.51.46c-2.12,2.12-4.06,4.25-4.22,7.39,0,.23,1.9,0,1.93-.51Z"/><path class="cls-4" d="M108.82,325.26c5.52-.7,8.23,3.6,11.63,7.09.18-.24.35-.49.53-.74-2.76,1.22-5.7,1.19-8.65,1.1-1.37,0-2.74-.12-4.1-.18-1.84-.07-1.26-1.36-1.26-2.87,0-.56-1.8-.2-1.8.52v3.09c0,.23.31.26.45.27,5.4.06,11.06,1.06,16.17-1.19.21-.09.79-.43.49-.74-4-4.11-6.88-8.16-13.16-7.36-.91.12-1.64,1.18-.3,1Z"/><path class="cls-4" d="M100.44,331.51c-1-.5-2.45-.87-3.39.08s.1,2.64.5,3.51a53.67,53.67,0,0,0,3.13,5.65c.65,1.1,2,2.58,2.16,3.88.09.65,1.91.22,1.93-.38.14-4,1.79-7.6,3.1-11.35.23-.68-1.71-.43-1.94.23-1.3,3.75-3,7.32-3.09,11.36l1.93-.38c-.27-1.84-2.26-4-3.18-5.59a45.8,45.8,0,0,1-2.26-4.27,9.38,9.38,0,0,1-.6-1.71c-.23-.91-.69-.49.18-.08.58.27,2.35-.57,1.53-.95Z"/><path class="cls-4" d="M96.34,327.49a8.46,8.46,0,0,0-5.79.95c-2.19,1.26-3.46,3.91-5.17,5.69-.2.22,0,.3.25.3,3.75.05,8.67,1.24,11.82-1.5.4-.34-1.4-.13-1.74.17-1.36,1.17-3.58.84-5.23.76l-2.16-.14c-.83-.06-1.15.22-.48-.52,2-2.24,3.31-5.58,6.91-5,.45.07,2.1-.65,1.59-.73Z"/><path class="cls-4" d="M96.32,321.22c-5-2.15-10.24,0-14.78,2.27-.16.07-.44.28-.38.49,1.52,5.89,9.4,5.2,13.72,3.19,1.22-.58.09-1.07-.73-.69-2.92,1.36-6.71,1.77-9.44-.25a4.74,4.74,0,0,1-1.26-1.62c-.62-1.2,1.49-1.69,2.3-2,2.94-1.23,6-1.78,9-.49.52.23,2.3-.56,1.55-.88Z"/><path class="cls-4" d="M109.72,338.28c5.73-3.76,1.41,11.25.76,13.33-1.45,4.67-1.78,6.91,1.75,11.12,2.74,3.26,8.75,7.18,13.17,4.75,5-2.72,4.24-8.86-1.59-9.14-.64,0-2.09.9-.79,1,4.25.2,4.6,3.38,2.77,6.45s-5.82.77-7.72-.33a16.28,16.28,0,0,1-6.61-7.46c-1.33-3.08,1.21-7.33,2-10.32.77-2.82,2.41-7.69.72-10.46-1.27-2.06-4.7.05-6,.9-.87.56,1.09.48,1.51.2Z"/><path class="cls-4" d="M85.63,301.62a5.69,5.69,0,0,0-4.25,1.66c-1.2,1.36-1.24,3.52-1.25,5.22a.21.21,0,0,0,.18.14c3,.85,8.84.88,8.85-3.49a3.4,3.4,0,0,0-2.1-3.06c-1.73-.78-4,0-5.5.82-1.13.63.64.61,1.13.34a2.84,2.84,0,0,1,3.71.3,3.13,3.13,0,0,1,.58,3.33c-.71,1.74-2.66,1.53-4.19,1.21-.91-.2-.73-.74-.68-1.56a8.9,8.9,0,0,1,.43-2.22,2.32,2.32,0,0,1,2.28-1.83c.56,0,2.1-.89.81-.86Z"/><path class="cls-4" d="M84.38,300.68c-.82.15,2.42-4.87,2.68-5.2a57,57,0,0,1,4.2-4.87l-1.84.34c.08,2.19.64,4.32.88,6.49.26,2.38-1.67,3.71,2.24,4.32,2.13.33,3.91,2,5.14,3.65l.63-.46c-2.4.82-4.67,1.77-7.29,1.88-.39,0-2.19.8-1.26.76,3.28-.14,6.13-1.18,9.21-2.24.06,0,.76-.29.64-.46-3-4.07-7.35-4.83-11.84-2.95-1,.41.16.52.62.39,6-1.63,3.13-7.33,3-11.89,0-.42-1.67.17-1.84.34a59.65,59.65,0,0,0-5.8,7c-1,1.44-2.74,4.15.3,3.59.75-.13,1.72-.92.37-.67Z"/><path class="cls-4" d="M82.89,298.46a36.46,36.46,0,0,0-10.5-4.19c-.51-.14-1.6.13-1.55.81.34,5.13,3.85,8.33,8.64,9.59l1-1.14c-2.94-.12-12.43.3-9.85,5.74,2,4.23,7.73,2.86,10.27.2l-1.69-.24c-1.76,3.16-1.72,9.5,2.37,10.81,1.36.43,3.47-.41,4.48-1.29,2.83-2.46,1.53-5.56,3.22-8.4.49-.82-1.47-.67-1.82-.09-.8,1.35-1.47,12.25-6,7.87-2-2-1.69-6.58-.45-8.81.48-.87-1.34-.6-1.69-.24-4.6,4.85-12.81-4.9.42-4.38.53,0,2.07-.85,1-1.14-4.51-1.18-7.56-4.28-7.88-9l-1.55.82a35.15,35.15,0,0,1,10.14,4.06c.58.36,2.35-.46,1.53-1Z"/><path class="cls-4" d="M96.5,293.62c2.28-3.94,4.09-7.38,4.31-12,.31-6.63-1.76-12.19.87-18.69,5.15-12.73,13.53,3.88,6.17,5.82-1.12.29-1,.88.16.58,7-1.84,5.7-12.41-1.51-12.13-4.49.17-6.58,5.42-7.78,8.91-1.38,4.05-.38,8.79,0,12.91.56,5.84-1.32,10.1-4.14,15-.13.24,1.63.14,1.91-.34Z"/><path class="cls-4" d="M97.54,290.44c.1-6.22,2-13.84-2.43-19-2.67-3.14-9.38-2.78-12.42-.35-3.3,2.65-4.42,7.43-1.33,10.74,2.29,2.46,6,.4,7.83-1.5.42-.43-1.43-.19-1.75.14-3.22,3.42-5.54-.15-6-3.15-.75-5.44,4.72-7.87,9.34-6.57,7.6,2.14,4.88,14.56,4.79,20.23,0,.32,1.93.05,1.93-.51Z"/><path class="cls-4" d="M110.09,300.66H107c-.35,0-1.09.15-1.07.6.21,5,7.37,4,8.53,0,.48-1.68-1.56-2.57-2.85-2.7a4.4,4.4,0,0,0-4.59,2.42c-.39,1,1.55.95,1.84.18.53-1.38,3.32-2,3.68-.17.24,1.18-1.52,2.23-2.47,2.29a2.28,2.28,0,0,1-2.18-2.32c-.36.25-.72.74-1.07.74h3.09c1.09,0,1.5-1,.19-1Z"/><path class="cls-4" d="M109.93,299.72c.12-3.59,1.55-7.45,5.34-8.62l-1.08-.15a8.13,8.13,0,0,1-2,8c-.53.58,1.05.39,1.25.3,6.31-2.89,7.89,4.86,2.3,4.37-.46,0-2.31.71-1.21.94,2.75.57,5,2.5,2.4,4.93-3.14,2.92-5.16-.35-5-3.47,0-.69-1.89-.27-1.92.28-.3,4.78,2.9,6.41,7,4.36a5.28,5.28,0,0,0,3.06-3.7c.26-2.24-2.75-3-4.36-3.34l-1.21.94c2.73.24,6.84-.42,6.82-3.93,0-4.37-6.36-3.06-8.64-2l1.25.3a8.67,8.67,0,0,0,2.14-8.49c-.09-.36-.85-.22-1.07-.15-4.62,1.43-6.89,5.2-7,9.95,0,.47,1.91.16,1.93-.52Z"/><path class="cls-4" d="M109.93,297.66c-.45-2.05-1.51-3.75-3.7-4.08-1.9-.29-3.84.81-5.17,2.05s-2.21,2.89-1.64,4.54c.79,2.28,4.14,2.5,6.1,2.53l.45-1.3c-1.84.25-3.94.93-4.62,2.85-.61,1.69.28,3.51,1.4,4.76,3.22,3.63,8,2.06,10.23-1.72.52-.89-1.45-.82-1.83-.16-.8,1.37-1.92,2.78-3.66,2.67a4.86,4.86,0,0,1-3.14-1.81c-1.84-2.06-1.65-4.88,1.41-5.29.73-.1,1.69-1.28.46-1.3-1.62,0-3.78-.06-4.78-1.56-.68-1,.08-2.43.74-3.23a4.34,4.34,0,0,1,3.14-1.76c1.69,0,2.38,2,2.68,3.33.18.82,2.11.32,1.93-.52Z"/><path class="cls-4" d="M171.79,323.33c-2.38-2.24-6.74-3.46-9.53-1.29a4.92,4.92,0,0,0,.13,7.74c3.61,2.45,13.7,0,9.4-5.42-.46-.58-2.32.12-1.79.79,3.1,3.9-2.9,5.2-5.67,3.87-2.14-1-2.26-3.48-1.41-5.44,1.22-2.87,5.49-1,7.08.54.55.51,2.37-.24,1.79-.79Z"/><path class="cls-4" d="M163.55,323.41c-3.71-3.54-8.14-5.79-9.24-11.3l-1.39.62c5.87-.86,9.76,2.51,10.82,8.16.06.35,2-.09,1.93-.52-1.17-6.23-5.7-9.25-11.89-8.35-.22,0-1.47.23-1.4.61,1.11,5.58,5.58,7.83,9.35,11.41.34.33,2.07-.4,1.82-.63Z"/><path class="cls-4" d="M162.73,324.08c-4.7.11-13.65,2.46-9.3,8.88,2.14,3.17,10.19,4,10.19-1.06l-2,.16c0,2.48-.27,10.41,4.3,9.24,2.33-.6,4-2.27,5.74-3.89.83-.8.17-4.4.17-5.51l-1.94.34c.87,4.76,4.34,8.73,9.17,5.56,6.18-4.08-1.77-8.71-5.58-9.55l-.9,1.31c4.82.08,10,.66,11.64-4.88.48-1.64-4.54-3.86-5.63-4.26-2.67-1-5.64-.37-8.15.7l1.39.46a35,35,0,0,0,1-9.29c0-.5-.47-.6-.88-.6-1.34,0-5.07-.79-6.06.42a10.91,10.91,0,0,0-2.22,9.81c.2.86,2.13.36,1.93-.52a10.19,10.19,0,0,1,.52-6.73c.81-2.13,2-1.62,3.68-1.62,2.5,0,.56,6.82,0,8.69-.2.73,1.07.6,1.4.46,3.77-1.59,7.24-.75,10.18,1.93-.58,2.9-2,4.29-4.17,4.15-1.32.08-2.7,0-4-.07-.61,0-2.09,1.05-.9,1.31,2.8.61,8.08,2.12,6.55,6.06a3.15,3.15,0,0,1-4.61,1.46c-1.72-1-2.15-3.53-2.48-5.32-.14-.8-1.94-.4-1.94.34,0,2.82.59,4.55-1.68,6.51-4.75,4.12-4.59-4.29-4.62-6.67,0-1-2-.67-2,.16,0,4.27-5.56,1.39-6.77-.4-3.28-4.84,4.59-6.15,7.66-6.22,1.08,0,1.5-1.4.18-1.36Z"/><path class="cls-4" d="M180.42,301.79c-1.09,1.4-1.63,3.25-.14,4.57a4.94,4.94,0,0,0,4.91.7,3.85,3.85,0,0,0,2.34-4.43c-.13-1-.38-1.17-1.32-1.43a7,7,0,0,0-2.46-.23,5.45,5.45,0,0,0-3.33,1.85.52.52,0,0,0,.23.89,1.39,1.39,0,0,0,1.37-.36,4.23,4.23,0,0,1,1.24-1,4,4,0,0,1,2.55.28l-.4-.37c.49,1.8.14,3.95-2,3.71a2.56,2.56,0,0,1-1.87-1.15c-.53-.83,0-1.88.53-2.56.75-1-1.09-1.19-1.6-.52Z"/><path class="cls-4" d="M184.25,301.79c.8-5.2-1.36-8.16-6.36-9.39-.35-.09-1.64.1-1.75.54a8.73,8.73,0,0,0,3.14,9.43c.31.25,1.89-.12,1.89-.58v-1s0,0-.06-.07c-3.62-2-8.86-1.84-9.6,3.14-.92,6.18,6,5.23,9.41,3.39l-1.6.08c-3.08,2.22-4.11,4.68-4.23,8.43a.22.22,0,0,0,.17.1c5.73.62,8.68-3.31,8.92-8.88a16.16,16.16,0,0,1-2,.52v9.29c0,.06.17.1.24.1a7.87,7.87,0,0,0,6.87-1.21c2.95-2.31.54-6.46-2-7.73l-1.53.7c3.1.18,8.7.07,10-3.55,1.58-4.28-7.39-3.62-9.22-3.35-.46.07-1.8.8-.61.7,3.44-.31,12.43-2.5,7.47-7.46-3.84-3.84-8.9.25-10.06,4.17-.1.35,1.77.11,1.91-.35.75-2.57,2.31-5.42,5.44-3.81a4.09,4.09,0,0,1,2.19,3.17,2.63,2.63,0,0,1-1,2.09c-3.2.41-3.74,1.08-1.62,2a6.33,6.33,0,0,1,2.19.71,2.55,2.55,0,0,1,1.43,2.09c.37,3-4.89,3-6.92,2.85-.22,0-1.88.53-1.54.7a5.11,5.11,0,0,1,3.11,4.9c0,1.84-4.41,4.45-4.41.91V307c0-.28-1.87,0-1.89.52a16,16,0,0,1-.69,4.12c-.15.33-.28.65-.42,1q-.93,2.38-4.11,1.35c.09-3.05,1.62-5.07,4-6.78.44-.33-1.34-.08-1.61.07-3.64,2-5.88-.09-6-3.35-.18-3.6,5.81-5.13,5.81-1.54l1.88-.58a8.45,8.45,0,0,1-3.06-9.15l-1.75.54c4.93,1.21,6.78,4.3,6,9.19,0,.18,1.84.05,1.93-.52Z"/><path class="cls-4" d="M176,291.47a25.71,25.71,0,0,1-.82-14.17c.89-4,4.14-6,8-3.71,2.56,1.52,5.75,7.82-.26,7.35-.52-.05-2.26.85-1.22.94,2.93.22,6.65-.37,6.57-4-.09-4-5.3-6.92-8.9-6.35-8.53,1.36-7.47,14.52-5.25,20.49.22.59,2.13,0,1.93-.52Z"/><path class="cls-4" d="M172.89,287.34c-2.6-5.14-.84-12.77-.88-18.33,0-3,.13-8.39-3.84-8.82-.77-.08-2,1-.74,1.14,5.49.59,1.28,22.09,3.53,26.53.35.69,2.23.07,1.93-.52Z"/><path class="cls-4" d="M155.48,300.24c.39.8.71,1.93,1.54,2.4,1.14.64,2.78,0,3.9-.33.16-.05.83-.34.56-.6-1.12-1.07-2.92-1.4-4.28-2.07-.41-.2-2,0-2,.6v4.13c0,.39,2,.09,2-.52v-4.13c0,.2-1.13.4-1.75.6,1.36.67,3.07,1,4.19,2.07.18-.2.4-.4.59-.6-.64.21-1.21.4-1.74-.1a6.69,6.69,0,0,1-1.06-2c-.26-.52-2.11.15-1.92.52Z"/><path class="cls-4" d="M158.45,299.89c.6-2.17,1.34-5.34-.38-7.23-1.16-1.27-3.19-1-4.58-.34a5.2,5.2,0,0,0-2.93,4.21c-.19,2.67,2.07,4.7,4.1,6,.41.28,2-.05,1.72-.77-1.37-3.56-4.93-4.42-8.34-3.41-.32.1-.76.3-.82.67-1,5.82,5.44,5.54,9.38,4.6,1.19-.28.87-1.42-.31-1.14-3.24.78-7.9,1-7.13-3.66l-.82.67c2.67-.79,5.08.13,6.11,2.79l1.72-.77c-2.56-1.68-5.56-5.59-2.13-8.09a1.67,1.67,0,0,1,2.48.29c1.3,1.65.47,4.57,0,6.34-.23.81,1.74.55,1.94-.19Z"/><path class="cls-4" d="M154.84,302.9c-2.57,1.49-3.39,3.73-3.49,6.63a.27.27,0,0,0,.18.15c4.57.87,8.92-1.78,7.94-6.86-.09-.49-2,0-1.93.52.37,6.37,10.91,6.55,10.19-.51,0-.2-.44-.17-.56-.17H160s0,.47-.06.71a11.51,11.51,0,0,0,6.27-5.37c2-3.75-2.64-3.6-5.18-3.61-.39,0-1.19.18-1.36.59a15.56,15.56,0,0,0-1,6.3c0,.4,1.93.1,1.93-.52a15,15,0,0,1,1-6.09l-1.36.59c2,0,5.27-.08,4.08,3a9,9,0,0,1-5.06,4.58c-.56.22-.89.78-.05.78h5.71c1.91,0,.94,2.69-.07,3.52s-3.07-.49-3.85-1.14a4.34,4.34,0,0,1-1.46-3.2l-1.93.51a5.28,5.28,0,0,1-1.07,4.81l-3.07-.77a7.55,7.55,0,0,1,.37-1.49,4.69,4.69,0,0,1,2.21-2.64c1.12-.65-.64-.65-1.14-.36Z"/><path class="cls-4" d="M132.77,344.49c0,1.15-.14,2.5.59,3.48.84,1.15,2.9,1.08,4.13,1.09.48,0,1.35-.22,1.34-.82,0-1.74-.63-3.39-2.56-3.54s-3.49,1.33-4.47,2.74c-.51.74,1.44.58,1.81.05s1.31-1.94,2.15-1.62c1,.4,1.12,2,1.14,2.89l1.34-.82c-1,0-2.38.1-3.09-.73s-.45-2.11-.45-3-1.93-.41-1.93.24Z"/><path class="cls-4" d="M133.67,345.14c-1.81-3.29-.39-7.44,2-10.07l-1.28.51c4.89,0,1.25,6.87-.5,8.8l1.78,0a11.31,11.31,0,0,1,3.21-3.18c3.63-2.29,4.73-.31,4.18,2.35s-3.32,3.85-5.55,4.63c-1.11.39-.35.95.48.76,2.93-.66,5.77.43,3.92,3.68-2.25,4-5.14.56-6.17-2.3l-1.93.52c.3.68,3.17,10,.16,8.77-3.22-1.29-2-6.85-1.32-9.16.2-.66-1.37-.2-1.55-.1-2.82,1.44-6.89,2-8-1.79s3.24-4.33,5.88-3.69c0-.24,0-.48,0-.72-1.36.72-4.2,1.65-3.34-.92.94-2.84,3.8-.92,5.09.49.42.45,2.25-.24,1.8-.73-2.34-2.55-6.64-3.44-8.63.12a1.88,1.88,0,0,0,.66,2.83c1.71.77,4.15-.56,5.6-1.32.4-.21.53-.59,0-.71-3.58-.88-9.58-.18-9.08,4.82.55,5.55,8.08,3.65,11.13,2.09l-1.55-.1c-.92,3-1.79,10.06,3.16,10,5.48,0,3-7.73,1.86-10.43-.25-.59-2.13,0-1.93.52,1.61,4.46,5.7,6.41,9.28,2.59,1-1.06,2-3.22,1-4.57-1.4-1.85-4.4-1.2-6.3-.77l.48.77c4.18-1.46,7.51-4,6.79-8.86,0-.15-.24-.2-.36-.22-4.47-.88-8.18,1-10.78,4.62-.51.71,1.45.34,1.78,0a11.87,11.87,0,0,0,3.14-7.58c.07-2.14-2-2.19-3.64-2.2s-2.39,1.89-3,3a8.45,8.45,0,0,0-.4,8c.33.6,2.18-.06,1.93-.52Z"/><path class="cls-4" d="M153.77,342c-.88.65-.89,1.3-.79,2.45.31,3.41.66,6.75,1.2,10.13s.54,6.33-1.7,9c-3.8,4.55-11.14,4.27-12.62-1.83-.44.28-.88.92-1.33.92h5.16c.78,0,2-1,.73-1h-5.16c-.39,0-1.48.06-1.33.68,1.81,7.51,10.15,6.4,15.11,2.61a9,9,0,0,0,3.39-7.69,62.85,62.85,0,0,0-.89-6.71c-.17-1-1.27-7.38-.55-7.91,1.06-.77-.57-1.13-1.22-.66Z"/></svg>