<svg id="layer1" xmlns="http://www.w3.org/2000/svg" viewBox="0 0 292.91 206.14"><defs><style>.cls-1{fill:#d81e1e;}.cls-2{fill:#492d0c;}.cls-3{fill:#fff;}.cls-4{fill:#2756a8;}</style></defs><path class="cls-1" d="M39.22,39.77c18.73-.12,40.19-1.12,54.13-1.36,35.58-.61,135.77-3.27,167.21-.06,3,.31,1.31,103.82.76,117.76,0,0-196.14,2.69-222.31,1.66-2.46-.09-2.39-51.81-1.7-69.23-1.13-15.74-.51-31.42.1-47.09Z"/><path class="cls-2" d="M38.86,40.38c42.66-.34,85.33-2.13,128-2.7,21-.27,42.12-.44,63.17-.09,7.95.14,15.91.35,23.84.85,1,.07,5.81-.14,6.1.82a20,20,0,0,1,.55,4.15c1.63,19.69.86,39.75.71,59.48-.14,17.77-.2,35.57-.88,53.32l1.33-.71q-78.18,1.08-156.37,1.72-21.34.15-42.69.18c-2.72,0-22.53,1.31-23.17-.79-1.69-5.56-1.16-12.4-1.32-18.13-.28-9.68-.3-19.36-.24-29,0-7.65.76-15.49.25-23.12-.57-8.44-.55-16.91-.4-25.37.07-3.92.2-7.84.34-11.76.12-3.31-.6-6.87,1.93-9.2.85-.79-1-.89-1.57-.41s-2,1.33-2,2q-.22,5.88-.43,11.76c-.29,8.5-.39,17-.17,25.5.26,9.55.21,19,.12,28.55-.14,15.93-1.26,32.92,1.33,48.71.51,3.08,2.73,2.36,5.37,2.41,4.38.09,8.76.11,13.14.12,13.65,0,27.31,0,41-.12q81.9-.53,163.77-1.76H261c.38,0,1.31-.17,1.33-.71,1.1-28.77,1.13-57.65.92-86.44,0-6.64-.14-13.28-.39-19.91-.13-3.55,0-7.44-.92-10.91-.63-2.42-9.4-1.63-11.39-1.74-8.46-.44-16.94-.59-25.41-.7-61.88-.79-123.67,2.38-185.52,2.87C38.79,39.17,37.56,40.39,38.86,40.38Z"/><path class="cls-3" d="M260.57,38.08c3,.19,1.13,32.78.92,38,0,0-197.84,3.86-224,2.83,0,0-.23-33.12,0-39C37.48,39.92,229.08,36.1,260.57,38.08Z"/><path class="cls-2" d="M260,38.65c2.63.75,1.27,16.66,1.23,18.77-.11,6.26-.44,12.51-.7,18.76l1.34-.71Q183.71,77,105.54,78.06c-19.39.24-38.79.51-58.19.41-2.57,0-5.15,0-7.72-.11l-1.24,0c-.36,0,.06.84,0-.13l0-5c-.06-11.09-.35-22.24,0-33.33-.45.23-.89.47-1.33.71,53.13-1.06,106.27-1.94,159.41-2.31,21.17-.15,42.54-.83,63.68.46.81,0,2-1.13.72-1.21-25.22-1.54-50.74-.58-76-.36-34.49.3-69,.83-103.47,1.41q-21.81.38-43.63.8c-.38,0-1.31.16-1.33.71-.45,13-.09,26,0,39,0,.34.28.48.61.5,23.52.89,47.19,0,70.72-.29q51.42-.66,102.86-1.62,25.22-.45,50.43-.93c.39,0,1.31-.16,1.34-.71.31-7.66.69-15.31.75-23,0-2.49,1.26-14.53-2.07-15.48C260.46,37.31,258.87,38.33,260,38.65Z"/><path class="cls-4" d="M260.57,77.08c3,.19,1.84,31.35,1.63,36.57,0,0-199.26,1.74-225.43.71,0,0,.48-29.57.71-35.44C37.48,78.92,229.08,75.1,260.57,77.08Z"/><path class="cls-2" d="M260,77.65c2.59.75,1.62,15.74,1.63,17.56,0,6.18-.14,12.37-.39,18.54l1.34-.7q-78,.67-156,1c-19.27.06-38.54.13-57.81,0-2.8,0-5.61-.07-8.41-.13l-2.92-.08c.46,0,.33.8.35-.18,0-.82,0-1.64,0-2.46.18-10.77.26-21.55.66-32.31l-1.33.7c53.13-1,106.27-1.93,159.41-2.3,21.17-.15,42.54-.83,63.68.46.81,0,2-1.12.72-1.2-25.22-1.54-50.74-.59-76-.37-34.49.3-69,.83-103.47,1.41q-21.81.38-43.63.8c-.38,0-1.31.16-1.33.71-.44,11.8-.52,23.62-.71,35.43,0,.35.29.49.61.5,23.43.89,47,.35,70.41.27q51.51-.15,103-.57,26-.18,52-.41c.38,0,1.31-.17,1.33-.7.29-7.26.45-14.53.37-21.79,0-2.63,1-14.27-2.39-15.25C260.46,76.31,258.87,77.32,260,77.65Z"/></svg>