<svg id="layer1" xmlns="http://www.w3.org/2000/svg" viewBox="0 0 377.62 232.08"><defs><style>.cls-1{fill:#77540c;}.cls-2{fill:#ffc300;}.cls-3{fill:#e02d2d;}.cls-4{fill:#492d0c;}</style></defs><path class="cls-1" d="M123.63,128.32a12.89,12.89,0,0,0,2-4.6,10.92,10.92,0,0,0,1.56-2.83c1.42-3.9-1.09-8-3.69-10.71l-.54-.53a17.78,17.78,0,0,0-2-2.54c-7-7.37-18.1-1.42-21.77,6.38-1.9,4.07-1.42,7.44.44,10,.83,5.27,6.63,8.63,11.49,9.55S120.67,132.43,123.63,128.32Z"/><path class="cls-1" d="M322.83,90.84v-.9a6,6,0,0,0-12,.13V91a6,6,0,0,0,12-.13Z"/><path class="cls-1" d="M303.5,97.25c-.08-7-11.38-6.87-11.3.13S303.58,104.25,303.5,97.25Z"/><path class="cls-1" d="M288,103.82v-.9a5.5,5.5,0,1,0-11,.13v.9a5.5,5.5,0,1,0,11-.13Z"/><path class="cls-2" d="M41.1,209.53c10.59-7.9,19-18.07,28.24-27.34l2.08-1.48a157.26,157.26,0,0,0,31.27-23q1.86-1.56,3.67-3.18a6.27,6.27,0,0,0,2.48-.59,64.29,64.29,0,0,0,16.84-11,79.21,79.21,0,0,0,18-14.38c24.25,2.52,48.64.2,73,1.21,15.57.64,33,2,48.52-2.35,2.11.23,4.21.49,6.31.8a6.39,6.39,0,0,0,1.52.34c.64.07,1.27.13,1.92.18q5.52.91,11,2.17a5.7,5.7,0,0,0,3.85-.31l1,.15c10.74,3.09,21.87,4.59,32.88,6.57,1.88,3.24,7.39,4.56,10.09.35,8.58-13.35,6.18-29.78-2.28-42.56a5.83,5.83,0,0,0-9.26-.64,4.45,4.45,0,0,0-3.42,0l-2.42,1c-12.86,1.29-24.91,6.21-36.58,11.72a4.82,4.82,0,0,0-2.7,4.69l-2,.05c-.17,0-.34-.05-.52-.06q-8.73-.24-17.46-.32a544.32,544.32,0,0,0-59.24-1.21,5.16,5.16,0,0,0-3.39-1.16c-13,.16-26.31,1.27-39.27-.33a77.16,77.16,0,0,1-28.36-9.72,5.58,5.58,0,0,0-2.56-5.48c-14.91-9.9-30.85-18.15-45.59-28.31C65.71,56.28,54,44.84,39.6,38l-.19-.16a5.76,5.76,0,0,0-5-1.35C29.54,37,26.45,43.64,31,46.4c.27.83.53,1.66.79,2.49a6,6,0,0,0-.93,3c-.52,8.85.39,17.59,1.61,26.31.08.77.15,1.54.23,2.3a5.18,5.18,0,0,0-2.37,4.68c.14,12.85,0,25.71-.11,38.56-.09,11.29-.86,22.9.35,34.15.86,8,2.46,15.93,3.46,23.93.74,6,2.26,15-.71,20.12C30.61,206.52,36.39,213.05,41.1,209.53ZM46.92,59.76c-.12-.43-.25-.86-.38-1.28l1.59,1.22c0,.1,0,.21,0,.31A6.58,6.58,0,0,0,46.92,59.76Zm53.75,68.85a93.39,93.39,0,0,1-7.22-7.4,20.44,20.44,0,0,1,3.25-7.76l.15-.22c3.13-4.64,7.73-8.69,11.62-12.44l4.53,3a116.81,116.81,0,0,0,14.45,8.28,5.09,5.09,0,0,0-.57,2.56,24,24,0,0,1-5.82,16.86l-2.43,1.88h-.28C111.83,133.64,105.72,133.06,100.67,128.61Z"/><path class="cls-3" d="M72.48,85.11a5,5,0,0,1,.53.11c1,.16,2.73-1.21,2.71-2.26V82c0-.24.06-.35-.13-.4,0-.9.35-1.11-.09-1.63,0-.18.2-.29.2-.36l0-1.34c0-.06,1.59-.26,2.43-.53,1-.33.82-2.67.42-3.36,0,0-.08,0-.1-.07a2.12,2.12,0,0,0,.38-1,4.17,4.17,0,0,0,.48-.73c.13-.27.3-.79-.23-.78l-2.7,0a2,2,0,0,0-1.07.27c-.13.07-.26,0-.38.12a9.53,9.53,0,0,0-3.52.36,1.09,1.09,0,0,0-.69.79s0,0-.07-.06a3.64,3.64,0,0,0-.79-.43c0-2.66-1.55-5.85-4.48-5.61-1.64.13-1.47,3-1.16,4a9.89,9.89,0,0,0,.62,1.48c-.18.61-.33,1.23-.48,1.8a6.3,6.3,0,0,0-.85-.09c-2.51-1.75-5.64-1.81-7.72,1.21-.51.76,1.11,3,1.75,3.34,1.28.72,5.45,1.92,6.87.37a10.09,10.09,0,0,0,1.44-.06,4.08,4.08,0,0,0-1.57,1,3.45,3.45,0,0,0-2.67,2c-.56,2.26.28,3.84,2.61,4.34a3.28,3.28,0,0,0,2.74-1.18,16,16,0,0,1,2.13,1.65C69.88,87.83,72.5,86.21,72.48,85.11Zm-4.21-4.69c.19-.53-.13-1-.82-.8l-.18,0c-.18-.12-.34-.25-.52-.36a.94.94,0,0,0-.38-.12l.43-.07a1.3,1.3,0,0,0,1.62-.89,2.91,2.91,0,0,1,.72-1.68c-.06,0,.21.07.43.26a6.57,6.57,0,0,1,1.81,3.08,3.24,3.24,0,0,0-.85.54c-.41-.39-1.15-.15-1.83.37C68.56,80.68,68.41,80.53,68.27,80.42Z"/><path class="cls-3" d="M44.9,70.2a2.42,2.42,0,0,0,1.65-2.86,6.79,6.79,0,0,0,1.2-.15,1.23,1.23,0,0,0,.23-.08c.64,1,1.56,1.69,2.4,1.38l.09,0h.32c.17.23.3.34.33.22a1,1,0,0,1,.07-.25c2.06-.35,1.77-3.44,1-5.66,1.55,1.12,3.55,1.38,5,0a2.36,2.36,0,0,0,1.3-1.45c.09-.15.18-.29.27-.46.36-.75-.56-3.36-1.37-3.64l-.54-.16A3.11,3.11,0,0,0,55,56.34a10.77,10.77,0,0,0-3.54.29c0-.13.08-.26.11-.4A1.54,1.54,0,0,0,52,55.08c0-.33,0-.66,0-1a5.15,5.15,0,0,0,.37-1.77c0-.81-.49-3.12-1.42-3.41a5.21,5.21,0,0,0-2.37-.26,2.82,2.82,0,0,0-2.91,1.8,2.13,2.13,0,0,1-1,.72H43.56a3,3,0,0,0-2.29-2.42,1.2,1.2,0,0,0-1.15-.54c0-.05-.09-.05-.15-.11-.42-.44-.47.06-.43.58a2.9,2.9,0,0,0-.44.72,1.81,1.81,0,0,0-.47,2,5.85,5.85,0,0,0,1.24,4c0,.11,0,.23,0,.35l0,.15-.09,0a2.45,2.45,0,0,0-1.91-.32,6.72,6.72,0,0,0-1.22.22.39.39,0,0,0-.15.35c0,.06,0,.11,0,.17a5.9,5.9,0,0,0-.62.61c-.52.58.67,3.45,1.37,3.65,1.53.44,3.08.77,4.59,1.21a2,2,0,0,0-.37,1.32,5.1,5.1,0,0,0-1,2,6.53,6.53,0,0,0-.52,1.8,3.19,3.19,0,0,0,0,.7c0,.11,0,.22,0,.31-.1.78.61,3.36,1.58,3.43A3.53,3.53,0,0,0,44.9,70.2ZM42.54,55.09l.08,0c.09,0,.16-.15.21-.19a.65.65,0,0,0,.61.26l3,0s0,.12,0,.11a2.78,2.78,0,0,0,1.21,1.31,3.2,3.2,0,0,0,.55.18c.16,1.24.37,2.5.56,3.73a4.19,4.19,0,0,0-.71,1,.08.08,0,0,0,0,0,6.22,6.22,0,0,0-.44,1,3.08,3.08,0,0,0-.46-.58A3.21,3.21,0,0,0,46,61.16a4,4,0,0,0-.73-1.08,13.43,13.43,0,0,0-3.23-1.63,7.21,7.21,0,0,0-.42-.91C41.81,56.78,42.51,56,42.54,55.09Z"/><path class="cls-3" d="M46.53,97.57c0-.12,0-.22,0-.32a6.94,6.94,0,0,0,1-.84,5.6,5.6,0,0,0,1,0,4.64,4.64,0,0,0,.89.28c0,.09.37.17.41.25-.13.19.05.36.06.51v.34a7.31,7.31,0,0,1-.43-.7h.68c.5,0,3.37-1.6,3.11-2.1,0-.09-.11,0-.18-.1a2.59,2.59,0,0,1,.4-.33c-.18,0-.42-.06-.43-.21s-.18,0-.18,0h0c1-.27.57-.5.52-.67a5.93,5.93,0,0,0-.3-.9,2,2,0,0,0,0-1.43,4.12,4.12,0,0,0,.69-.27c1-.56,4.1-2.48,3-3.95a1.69,1.69,0,0,0-1-.6,6.35,6.35,0,0,0,.32-1.19c.05-.1,0-.14-.09-.13a7,7,0,0,0-1.46.22,7,7,0,0,0-4.28.2,7.92,7.92,0,0,0-1.51-1.44c.74-2.17,1-4.54-1.48-5.59-.23-.1-.69.1-1.19.42L46,78.94c-.62-.27-3.06,1.73-3.2,2.33l-.09.36-.36.3a3.83,3.83,0,0,0-1-.72,5.51,5.51,0,0,0-1.4-.85,11.13,11.13,0,0,0-1-.67c-.54-.32-3.21,1.85-3.21,2.45a7.1,7.1,0,0,0,1.34,4.21,12.92,12.92,0,0,0,1.58,1.73c.06.2.13.41.19.62-1,.53-2.39,1.68-2.33,2.18a2.61,2.61,0,0,0,0,.31l0,0,0,0a4.44,4.44,0,0,0,2.34,3.33c.24.15,1-.27,1.71-.81l.37.5c-.49.41-.84.79-.72,1s.24.34.36.5a.52.52,0,0,0,0,.17,4.92,4.92,0,0,0,.8,2.21,5.48,5.48,0,0,0-.09,1s.07.15.11.15h.7c.35,0,.75.52,1.22.85S46.47,98.1,46.53,97.57Zm-4-8.94a7.82,7.82,0,0,1-.16-1.57c.1-.19.29-.47.38-.67,0,0,.12-.19.1-.2l-.06-.06s.11-.31.22-.51a24.41,24.41,0,0,1,2.54,1.07.32.32,0,0,0,.26,0A8.24,8.24,0,0,1,47,87.83c-.46.61-.49,1.29.43,2.07a11.83,11.83,0,0,0-1.11,1.44.45.45,0,0,1,0,.11,5.32,5.32,0,0,0,1.89.56,4.71,4.71,0,0,0-.71.77l-.7.16a2.28,2.28,0,0,0-2.15-.52A11.37,11.37,0,0,1,42.56,88.63Z"/><path class="cls-3" d="M47.68,162.68v0a2,2,0,0,0,.1-.21c2,1.4,5.26,1.79,6.14-.93.27-.18.54-.37.81-.58a2.19,2.19,0,0,0-.66-3.57,14.59,14.59,0,0,1,1.3-1.08,1.38,1.38,0,0,0,2-1.29,5.57,5.57,0,0,0,0-1,5,5,0,0,0,.59-.84,2.26,2.26,0,0,0-1.09-3.3,18.79,18.79,0,0,0-5.85-1,1.37,1.37,0,0,0-1.09.53,3,3,0,0,0-2.12-2.71,1.9,1.9,0,0,0-2-.69,1.84,1.84,0,0,0-1.18,1.35,3,3,0,0,0-.89,3.38A2,2,0,0,1,42,152.28a8.9,8.9,0,0,0-2.09.12,2,2,0,0,0-1.38,1.91v.34a2.5,2.5,0,0,0,1.72,1.91c-.63.77-.14,2.13.44,2.86a4.87,4.87,0,0,0,.78.65,3.75,3.75,0,0,0,1.77,2.4,14.41,14.41,0,0,0,2,1.93C46.5,165.34,47.84,163.9,47.68,162.68Zm.79-5.19a2.14,2.14,0,0,0-.09.27c-.85-.22-1.75-.32-2.67-.53a6.14,6.14,0,0,0-.18-2.09,2.25,2.25,0,0,0,0-.44A5.72,5.72,0,0,0,46.66,153a11.38,11.38,0,0,0,1.3.1,1.61,1.61,0,0,0,1.64-.54,1.88,1.88,0,0,0,.61,1,8.19,8.19,0,0,0,1,.75A11.09,11.09,0,0,0,48.47,157.49Z"/><path class="cls-3" d="M69.73,176.79c.78.25,1.49-1.23,1.71-2.4a1.65,1.65,0,0,0,1.59.7,6.52,6.52,0,0,1,1.53,1c1.14,1.06,2.42-.19,2.57-1.36,0,0,0,0,0-.08a2.31,2.31,0,0,0,.25-.55,1.87,1.87,0,0,0,.07-.22,2.59,2.59,0,0,0,.26-.8,2.29,2.29,0,0,0-1.2-2.56,1.61,1.61,0,0,0-.36-.1l-.08,0a2.26,2.26,0,0,0-.67-1.37,1.48,1.48,0,0,0,.3-.5,2.79,2.79,0,0,0,1.28-.92c.38-.47.18-4-.56-3.93a8.54,8.54,0,0,0-1.25.14,3,3,0,0,0-.3-.32c-.85-.72-2.14-.4-3.08-.1-.3.09-.18.82-.18,1v.43c0,.14-.1.29-.09.43a7.82,7.82,0,0,1-1.28,0,3.44,3.44,0,0,0-.17-.88c.11-1.9-.78-3.32-2.72-3.15a5.88,5.88,0,0,0-1.6-.36c-.9-.11-1.49,1.26-1.72,2.22a4,4,0,0,0-.75,2.19,1.36,1.36,0,0,0,.4,1,4.44,4.44,0,0,0-2,3.85A2.5,2.5,0,0,0,64,172.79a2.32,2.32,0,0,0,3.23.26.56.56,0,0,0,.05.08,4.18,4.18,0,0,0-.31,1c-.26,1.58.65,1.75,1.72,1.85C68.61,176.88,68.85,177.51,69.73,176.79Zm1-6.41c-.22.07-.48.16-.69.25a2.39,2.39,0,0,1-.84-1.56,12.5,12.5,0,0,0,3.52-.44,5,5,0,0,0,.44.33,2.45,2.45,0,0,0-.26.35,4.82,4.82,0,0,0-.54,1.56s0,.16-.07.26a1.36,1.36,0,0,0-.32.22c-.12.06-.23.14-.23.23v-.41C71.71,170.55,71.33,170.18,70.71,170.38Z"/><path class="cls-3" d="M44.94,192.09a3.4,3.4,0,0,0,2.62-1.76,1.7,1.7,0,0,0,.19-1.05,2,2,0,0,0,.3-.48,5.19,5.19,0,0,1,.5-.31l.16.2a5.1,5.1,0,0,0,2.4,1.68c0,.07,0,.13.07.19.57,1.63,1.59,1.73,1.83.85a3.06,3.06,0,0,0,1.41.36c.46,0,.52-.4.52-.81v-.67c0-.1.1-.19.1-.29.35-.74-.4-2.24-.71-2.72-.09-.12-.15-.24-.23-.35,0-.44,0-.83,0-1.11a4,4,0,0,0-.94-2.2.53.53,0,0,0,.2,0A3.31,3.31,0,0,0,55.67,185a8.19,8.19,0,0,0,1.83.68c.48.12.59-.5.63-.81.45-3.38-1.2-6.07-4.51-5.74a3.9,3.9,0,0,0,.38-2c0-1-.52-2.7-1.62-3-1.82-.46-3-.27-4.05,1-1.34-1.5-2.63-4.05-4.54-3.24a5,5,0,0,0-.66-.27c-.41-.45-.87-.7-1.11,0a.75.75,0,0,0-.41.76c0,.36,0,.69,0,1a10.18,10.18,0,0,0,.18,3c.87,4.45-1.06,1.24-3,2.5a1.37,1.37,0,0,0-.29.24,5.5,5.5,0,0,0-.63.25c-.33,0-.66,0-1,0-1.51,0-.06,3,.43,3.46a11.43,11.43,0,0,0,3.7,2.33,2.61,2.61,0,0,0-.08.57,3.12,3.12,0,0,0-.09.85,6.64,6.64,0,0,0,.31,1.85c-.5.92.47,3,1.26,3.33C43.83,192.41,44.46,192.42,44.94,192.09ZM44,178.6A7.58,7.58,0,0,0,45.71,180c.57.35.88-.18.9-.7a11.39,11.39,0,0,0,0-1.43,1.06,1.06,0,0,0,0-.25,14.44,14.44,0,0,0-.12-1.69c.22.09.25.36.59,1a6.35,6.35,0,0,0,1.21,1.62,3,3,0,0,0,.61.9c.25.29.53.7.81.69H50c.33,0,.51-.37.6-.61,0,0,0-.11,0-.11.33,1,.67,1.87,1.09,2.8a4.5,4.5,0,0,0,1,1.18,1.17,1.17,0,0,0-.24-.09,7.87,7.87,0,0,0-1.08,0c-1.35-.24-3-.55-3.89.6l-.14-.09-.13-.07a2,2,0,0,0-.26-.38l-.27-.24c-.31-.28-.6-.42-.93-.21l-1.84-.34A10.25,10.25,0,0,0,44,178.6Z"/><path class="cls-4" d="M332.77,90.75c-2.95-3.94-11.75,1.53-14.73,3-5.13,2.45-11.33,3.31-16.79,4.81a224,224,0,0,0-21.67,6.82c-1.64.64-8.55,2.81-7.82,5.61.17.69,2.11.17,1.93-.52-1-4,24.78-10.08,27.82-10.92,4.52-1.25,9.07-2.42,13.6-3.65,3.36-.91,13.4-7.64,15.87-4.35.4.54,2.26-.12,1.79-.76Z"/><path class="cls-4" d="M270,109.72c-3.05,5.74-2.56,16.3,4,19.47.71.35,2.43-.62,1.5-1.07-6.06-2.94-6.47-12.89-3.64-18.22.5-.94-1.46-.89-1.84-.18Z"/><path class="cls-4" d="M273.28,130.24c8.61,2.38,17.07,5,25.9,6.43,11,1.8,22.08,2.89,32.72,6.4.86.29,2.27-1,1.1-1.34-9.09-3-18.53-4.35-28-5.73-10.49-1.52-20.45-4.29-30.64-7.1-.87-.24-2.29,1-1.11,1.34Z"/><path class="cls-4" d="M331.84,94.08c1.57,4.32,3.59,8.44,4.89,12.86a64.75,64.75,0,0,1,2.1,16.34c.1,4.83-1.47,8.66-3.76,12.81-1.42,2.55-3.29,5.23-3.57,8.21-.09.89,1.87.55,1.94-.2.34-3.65,3.06-7.12,4.75-10.29,2.15-4,2.64-7.86,2.55-12.41-.22-10.12-3.58-18.53-7-27.84-.28-.77-2.2-.22-1.93.52Z"/><path class="cls-4" d="M271.82,109.49c-5.41-1.82-12.88-.77-18.47-.85-13.49-.18-27-.15-40.46-.11q-32.74.1-65.49.5c-.37,0-2.18.76-1.26.75q31.68-.36,63.36-.5c13.12,0,26.24-.07,39.36.07,4.64,0,9.28.11,13.92.26,2.23.07,5.07-.2,7.22.52a2.89,2.89,0,0,0,1.82-.64Z"/><path class="cls-4" d="M274.74,129.22c-1.53-1.1-4.11-1.09-5.89-1.26-4.55-.45-9.14-.53-13.7-.62-13.91-.27-27.83,0-41.73.3-22.9.5-45.81,1.73-68.71,2-.6,0-2.1.92-.81.91,21.84-.29,43.67-1.45,65.5-2,13.61-.31,27.24-.56,40.86-.43,5.1.05,10.22.15,15.32.49,2.06.15,5.57-.05,7.35,1.24.48.34,2.2-.42,1.81-.7Z"/><path class="cls-4" d="M146.86,107.84c-3.22,0-5.22-2.13-7.83-4l-12.56-9Q108.73,82.27,90.9,69.77q-18.5-13-37.15-25.67C46.21,39,38.67,33.47,30.59,29.23c-.7-.36-2.42.59-1.5,1.07C37.44,34.68,45.22,40.41,53,45.69,65.83,54.37,78.53,63.22,91.2,72.1q18,12.59,35.79,25.29,5.91,4.2,11.79,8.42c3,2.14,4.13,3.4,7.89,3.36,1.06,0,1.51-1.34.19-1.33Z"/><path class="cls-4" d="M144.65,129.47c-1.51-.21-3.47,1.53-4.61,2.27-3.85,2.55-7.57,5.31-11.3,8-11.85,8.71-23.53,17.65-35.2,26.61-19.89,15.26-39.6,30.76-59.48,46-1,.8.54,1.33,1.25.79,18.77-14.42,37.37-29,56.13-43.46,11.55-8.88,23.12-17.73,34.82-26.42,4-3,8-5.88,12-8.73,1.3-.91,2.61-1.81,3.95-2.68.54-.34,2.26-1.07,1.74-1.14.88.12,2-1.12.69-1.31Z"/><path class="cls-4" d="M27.94,28c.63,56.85.55,114,4.19,170.72.29,4.6.14,9.89,1.59,14.32.3.93,2.23.4,1.93-.52-2.42-7.42-1.76-16.69-2.14-24.38-.76-15.71-1.2-31.43-1.61-47.16-.84-32.39-1.38-64.8-1.81-97.21q-.11-8-.19-15.9c0-1.06-2-.8-2,.13Z"/><path class="cls-4" d="M126.25,118.52c.18-8.62-6.78-15-15.25-15-8.75.08-15.47,8.73-15.19,17,.36,10.27,11,14,19.59,13,8.11-1,8.53-8.75,10.85-15,.22-.6-1.7-.36-1.93.26-1.5,4.07-1.9,10.32-5.84,12.87-3.53,2.29-9.71,1.18-13.26-.42a13.78,13.78,0,0,1-6.83-7.94c-3.15-8.45,4.12-18.62,13-18.7,7.47-.07,13.12,7.19,13,14.19,0,.75,1.92.33,1.93-.26Z"/><path class="cls-4" d="M320.09,91.57c1.48-1.54,1.62-3,1-5.06a.75.75,0,0,0-.63-.46c-3.15-.59-7-.35-8.9,2.61-1.8,2.77-.38,6.2,1.5,8.5.56.69,2.4-.08,1.77-.86-1.49-1.83-2.68-4.21-1.85-6.59,1-2.79,4.46-2.68,6.82-2.23l-.64-.45c.49,1.62.5,2.72-.69,4-.85.88,1,1.22,1.62.59Z"/><path class="cls-4" d="M305,97.67c-.2-3.13-2.48-4.65-5.45-4.88a10.23,10.23,0,0,0-4.48.71c-1.23.48-2.63,1.85-3.58,1.86-.37,0-1.08.33-1.06.79.11,2.46.75,4.6,3,5.87.76.43,2.44-.6,1.49-1.14-1.89-1.06-2.43-2.79-2.52-4.86l-1.06.79c2.07,0,3.37-1.81,5.41-2.36,2.7-.73,6.1.14,6.3,3.36.07,1,2,.75,2-.14Z"/><path class="cls-4" d="M288,103.23c-.14-5.23-5.47-5.76-9.4-4-1.49.67-3.33,1.92-3.55,3.69-.29,2.21,2.62,3.28,4.24,3.78.72.22,2.28-.83,1.15-1.18s-3.55-1.13-3.45-2.8c.08-1.22,1.44-2.06,2.42-2.53,3-1.42,6.54-.54,6.65,3.24,0,.92,2,.55,1.94-.2Z"/><path class="cls-4" d="M319.61,113.68a7.64,7.64,0,0,0-.37-3,1.93,1.93,0,0,0-2-1.26,4.6,4.6,0,0,0-4,1.64,2.91,2.91,0,0,0,0,3.25c.83,1.41,2.7,1.89,4.22,1.9.4,0,1.32-.17,1.32-.75,0-1.2,0-2.4,0-3.59,0-1-2-.63-1.95.17,0,1.2,0,2.4,0,3.6l1.32-.75c-1.53,0-3.15-.6-3.44-2.29s1.47-1.95,2.69-1.79l-.55-.25c.88.92.84,2.06.86,3.27,0,1,2,.62,1.95-.18Z"/><path class="cls-4" d="M305.18,116.29a3.66,3.66,0,0,0-2.36-.93c-1-.08-2.57-.26-3.2.69a2.59,2.59,0,0,0,.09,3.31,3.26,3.26,0,0,0,3.5.49c1.53-.55,2-2,2-3.48,0-.39-1.93-.09-1.93.52a3.36,3.36,0,0,1-.7,2.32s-.21.16-.15.13.4-.08.19-.07a1.86,1.86,0,0,1-.54-.15,2.22,2.22,0,0,1-.56-3.4l-1.29.48c1.16,0,2.21-.06,3.11.77.4.38,2.17-.34,1.81-.68Z"/><path class="cls-4" d="M289.08,123.69c-.88-.91-1.27-1.78-2.7-1.81a8.4,8.4,0,0,0-3.52.39c-1.52.6-1.42,2.15-.54,3.29a2.76,2.76,0,0,0,4,.18,4.62,4.62,0,0,0,1.64-2.31c.18-1.18-1.78-2-2.55-2.4a1.91,1.91,0,0,0-1.24.14s-.87.36-.59.5c1.34.66,3.19,1.57,2,3.19a9,9,0,0,1-.83.91,1.52,1.52,0,0,1-.25.26c.45-.3,1.17-.16.74-.24a2.14,2.14,0,0,1-1.08-.84,2.06,2.06,0,0,1-.34-2.39s.21-.16.12-.11c-.44.21-.28.08,0,.08a8.22,8.22,0,0,1,1.48.13c.83.15,1.27,1.11,1.8,1.66.32.34,2.07-.38,1.83-.63Z"/><path class="cls-4" d="M315.65,111.65c-47.17.57-94.23,3.3-141.42,3-24.47-.13-48.94-.52-73.41-.52-11.59,0-23.17.07-34.75.62-5.73.27-11.46.56-17.19.72-6.77.19-13.35,2.15-19.87-.6a2.7,2.7,0,0,0-1.83.64,20.84,20.84,0,0,0,10.22,1.67c6-.57,11.92-1,18-1.25,12.09-.51,24.13-1,36.24-1,25.15-.13,50.3.28,75.45.46,49.17.36,98.19-2.41,147.34-3,.37,0,2.19-.74,1.27-.73Z"/><path class="cls-4" d="M303.27,117.15c-6.15-2-13.32-1.14-19.64-.76-8.73.52-17.37,1.13-26.12,1.23-24.6.28-49.21.73-73.82.63-25.19-.1-50.38-.68-75.57-.67-26.15,0-52.36,1.7-78.48-.08-.35,0-2.08.7-1.4.83l1.69.82c.5.31,2.16-.47,1.81-.69-1.19-.73-.93-.75-1.93-.93l-1.4.83c23.62,1.62,47.3.29,71,.12,25.19-.18,50.38.38,75.56.59,24.71.21,49.41-.21,74.11-.49,9.47-.1,18.86-.25,28.31-.94,7.72-.57,16.84-2.09,24.36.31.48.15,2.21-.6,1.57-.8Z"/><path class="cls-4" d="M282.64,121.89c-11.1-2.57-22.47.09-33.66.35-15.28.35-30.59-.26-45.87-.31-14.52-.05-28.92-.6-43.43-1.2-14.93-.62-29.58,1.15-44.47,1.7-18.68.71-37-1-55.63-1.71a193.38,193.38,0,0,0-21.4.09c-1.59.12-7.92.22-8.25,2.65-.07.54,1.85.17,1.91-.32.35-2.56,14.12-1.81,16-1.8,7.27,0,14.55.34,21.8.76,18.17,1,36.15,1.81,54.37.7,14.12-.87,27.82-1.6,42-.88,13.26.67,26.43.79,39.71.86,12.85.07,25.69.37,38.54.32,12.13,0,24.84-3.19,36.8-.43.47.11,2.17-.64,1.58-.78Z"/><path class="cls-4" d="M162.9,110.37c-.12,2-.16,3.92-.15,5.88,0,2.64-.18,6.14,1.22,8.5.31.53,2.13-.18,1.93-.51-1.31-2.23-1.16-5.4-1.21-7.88-.05-2.17,0-4.34.15-6.5,0-.36-1.9-.11-1.94.51Z"/><path class="cls-4" d="M172.83,113c0,5.42-1.67,12.17,2.93,16.22.38.33,2.08-.42,1.83-.64-4.53-4-2.85-10.79-2.83-16.1,0-.27-1.93,0-1.93.52Z"/><path class="cls-4" d="M189.93,113.67c0,4.93-1,10.64,1.07,15.28.22.49,2.1-.16,1.93-.52-2.1-4.64-1.06-10.35-1.07-15.28,0-.35-1.93-.06-1.93.52Z"/><path class="cls-4" d="M204.32,113.51c0,4.44-.95,10.35,2.91,13.54.45.37,2.19-.38,1.81-.69-3.77-3.11-2.78-9-2.79-13.37,0-.42-1.93-.11-1.93.52Z"/><path class="cls-4" d="M223.22,113.21c-1.77,4-2.18,10.6.15,14.47.28.48,2.08-.26,1.93-.51-2.3-3.84-1.91-10.37-.17-14.31.13-.31-1.69-.15-1.91.35Z"/><path class="cls-4" d="M229.51,114c0,4.71-.95,10.09,1.07,14.52.31.69,2.21.09,1.93-.52-2-4.37-1.06-9.58-1.06-14.23,0-.84-1.94-.43-1.94.23Z"/><path class="cls-4" d="M247.5,113.92c0,4.53-.77,9.52,1.95,13.47.36.52,2.14-.22,1.93-.52-2.72-4-1.94-8.93-1.95-13.47,0-.41-1.93-.1-1.93.52Z"/><path class="cls-4" d="M49.06,61.45c0-1.8.18-3.7-.49-5.41-.81-2.09-2.93-2.64-5-2.67-2.43,0-5.46,1.65-4.17,4.39a9.9,9.9,0,0,0,6.08,4.78c2.59.73,5-.47,5-3.35,0-1-2-.78-2,.14,0,2-1,2.26-2.66,1.63a9.09,9.09,0,0,1-4.39-3.46c-1.17-1.8.21-2.49,1.92-2.66,4-.38,3.65,4.11,3.66,6.74,0,1.05,2,.78,2-.13Z"/><path class="cls-4" d="M48.86,58.83c1.3-1.53,4.07-1.56,5.89-1.47,2.26.12,5.86,3.48,2.68,5.29-2.28,1.3-6.89-.93-8.62-2.45l-1.29,1.23c2.84.91,4.81,2.92,4.26,6-.24,1.35-1.25,2.31-2.34,1-1.25-1.48-1.55-3.87-1.87-5.7l-1.93.52a8.8,8.8,0,0,1-1.79,6.57c-2.78.78-4.14,0-4.1-2.41A5,5,0,0,1,41,64.93a9.45,9.45,0,0,1,3.79-2.79c1.09-.45.33-1.47-.61-1.27-2.36.52-6.21,1.16-7.31-1.75-.76-2,.94-4.16,3-2.92.71.43,2.38-.37,1.49-1.14-1.73-1.49-3.54-3.69-2.51-6.1.69-1.6,2.05-.37,2.64.51,1,1.49,1.06,3.77,1.12,5.45,0,.94,1.66.82,1.91,0,.91-2.88,3.48-8.27,6.65-4.23,2.17,2.76.53,6-2.5,7.1-1.16.4-.82,1.77.36,1.36,4.46-1.54,6.94-6.21,3.25-10.08-4.3-4.5-8.47,2-9.62,5.61l1.91.05c-.1-2.65-1.22-10-5.74-7.8-4.28,2.11-1.53,7,1,9.22l1.49-1.14a4.14,4.14,0,0,0-6.5,2.8c-1.11,5.43,6.68,5,9.73,4.37L43.92,61c-4.26,1.76-9.42,8.21-3.13,11,4.79,2.15,7.37-6,6.78-9.25-.17-.92-2.09-.42-1.93.52.4,2.3,3.15,11,7,6.33,3.13-3.85,0-8.22-4-9.51-.68-.21-2.15.49-1.3,1.24,3,2.61,11.47,5.37,13-.11,1.87-6.76-10.21-6.39-13.08-3-.8.94,1,1.29,1.62.6Z"/><path class="cls-4" d="M70.76,74.34c-1.61-1.46-3.86.14-4.42,1.83-.89,2.7,1.21,4.62,3.73,5,.43.06,1.41-.1,1.56-.62.68-2.3-.21-4-2.47-4.74-.52-.18-2.28.61-1.55.87a3,3,0,0,1,2.1,4.15l1.57-.61a3.28,3.28,0,0,1-3.18-3.09,3.6,3.6,0,0,1,.47-1.92,1.59,1.59,0,0,1,.43-.5c-.54.33-.52,0,0,.38s2.25-.31,1.8-.71Z"/><path class="cls-4" d="M72.76,79.48C75,78,78,79.86,79.51,77a3.11,3.11,0,0,0-.85-4.31c-3.34-2.41-8.59-2.08-10.45,1.94l1.87-.05c.34-2.69.75-9.43-4.08-8.14-4.15,1.11-3.1,7.93-.74,10.16.49.47,2.27,0,1.78-.79-2.45-3.94-9.31-6-11.94-1.24-3.32,6,7.58,6.42,10.73,5.08.61-.25.83-1,0-1-5.21-.08-7.9,3.16-4,7.45,1.1,1.22,2.68,2.19,4.35,1.74,2.51-.68,1.48-4.2,1-5.87l-1.93.51c1.1,2.93,2.63,5.13,5.88,5.51.35,0,1.34-.21,1.33-.71A11.77,11.77,0,0,0,70.83,81c-.34-.57-2.18,0-1.86.66,1.49,2.84,4.53,5.75,7.39,2.59s-1.19-5.36-4.09-5c-1,.13-1.56,1.36-.23,1.18,1.88-.26,3.51.32,3.17,2.42-.62,3.84-3.86-.89-4.31-1.75L69,81.8a9.58,9.58,0,0,1,1.48,5.66l1.34-.7c-2.7-.31-3.82-2.54-4.68-4.82-.27-.73-2.13-.24-1.93.51a9.73,9.73,0,0,1,.49,3.93c-.12.88-1.81-.75-2.16-1.09-2.35-2.32-2.87-5.54,1.49-5.47l0-1c-2.78,1.17-8.54.86-8.37-3.27.23-5.89,7.62-.43,8.59,1.12L67,75.83A6.82,6.82,0,0,1,65.89,68a2.12,2.12,0,0,1,2.39,1.37,7.34,7.34,0,0,1,.14,2.24,28.23,28.23,0,0,1-.28,3.18c-.1.85,1.64.46,1.88-.06,1.49-3.21,8.17-3,8.11,1.13,0,2.26-4.91,1.85-6.6,2.93-1.1.7.56,1.1,1.23.67Z"/><path class="cls-4" d="M47.64,85.69a4.09,4.09,0,0,0-5.85,2.24c-.8,2.22.48,5.09,3,5.13A4.07,4.07,0,0,0,49,89.84c.39-2.49-2.39-2.89-4.21-2.68-.91.11-1.63,1.15-.29,1s2.47.21,2.59,1.62c.06.74-.61,2.21-1.32,2.25-1.59.09-2.31-2-2.26-3.27a3.82,3.82,0,0,1,.73-2.09c.54-.73,1.15-.46,1.85-.08.52.28,2.31-.49,1.55-.9Z"/><path class="cls-4" d="M49.59,92.81c5.62.53,8.6-2,7.93-7.78,0-.29-.4-.44-.64-.48a11.54,11.54,0,0,0-9.9,2.6l1.58.61c1.34-2.94,3.27-10.3-2.53-9.93-4.66.31-4.63,6.06-2.28,8.77.5.58,2.11.23,1.84-.69-1.15-4.1-4.15-6.17-8.17-7.11a1.22,1.22,0,0,0-1.25.61c-2.11,4.37,0,10.18,5.42,9.77.87-.06,1.61-1.32.41-1.48-4.07-.53-7.77.92-7.21,5.54.19,1.56,4,1.76,5.1,1.65,1.86-.19,2.92-1.77,3.49-3.35.34-1-1.06-1-1.58-.6-3.1,2.48-3.57,7.36.59,9.22,4.8,2.13,5.88-3.26,5.53-6.82L46,93.86c.84,3.33,3.9,7.06,7.18,3.51,3-3.26.85-6.22-3.17-6-1.12,0-1.47,1.55-.15,1.49,2.2-.1,3.41.86,2.45,2.94-1.7,3.67-3.9-.54-4.37-2.42-.25-1-2-.42-1.94.52.26,2.6-.52,7.3-3.66,4-1.85-2-1.15-4.42.78-6l-1.58-.61q-4.2-3.06-.18-2.11c.14-.49.27-1,.41-1.47-4.53.34-5.17-5-3.73-8l-1.25.6c3.48.82,5.9,2.63,6.89,6.16l1.85-.7a5.12,5.12,0,0,1-1.41-2.3c-.43-1.17.57-6.26,3.5-3,1.69,1.88-.05,5.22-.9,7.09-.43.92,1.1,1,1.58.6,1.34-1.17,7.31-4.65,7.45-.7.12,3.4-2.67,4.21-5.49,3.94-1-.09-2,1.35-.65,1.47Z"/><path class="cls-4" d="M52.65,183.64A4.49,4.49,0,0,0,51,179.1c-1.62-1.33-3.82-1.09-5.66-.49-1.29.42-4.32,1.62-3.11,3.48,1,1.49,3.17,2.17,4.81,2.5s4.37.43,5.57-1.09c.89-1.13,0-2.69-.7-3.68-.34-.51-2.12.24-1.93.52A4.48,4.48,0,0,1,51,183.07a1.18,1.18,0,0,1-.33.71c-.15.16-.06.09-.26.13a8.46,8.46,0,0,1-4.87-1.19c-1-.54-2.48-1.84-1.14-2.87a4,4,0,0,1,4.16-.46A4.21,4.21,0,0,1,50.74,184c-.13.47,1.76.2,1.91-.32Z"/><path class="cls-4" d="M53.33,180.93c1.65-2.79,3.6-.32,4.4,1.63,1.8,4.39-3.47,1.81-5.29.67l-1.3,1.24a5.81,5.81,0,0,1,3.33,4q.6,3-3.66,2.33c-.46-1.65-.65-3.36-1.11-5-.25-.9-1.8-.42-1.94.33-.48,2.54-2.29,7.9-5.49,4.4-1.89-2.06-.94-4.74,1.12-6.18.84-.59-.07-1.39-.83-1.14-8,2.62-5.34-6.44-.61-3.23.47.32,2.09,0,1.71-.82-.49-1-4-10.09.41-7.71,2.11,1.14,2.34,4.47,2.1,6.49-.12,1,1.65.74,1.91.05.45-1.19,2.14-5.68,4.62-3.1,1.55,1.61-.48,3.77-1.69,4.71-1,.81.51,1.52,1.29.92,2.35-1.83,4.33-5.18,1.19-7.34-3.31-2.27-6.31,2.05-7.27,4.57l1.91.05c.56-4.73-2.08-9.2-7.21-8a1,1,0,0,0-.8.75,14.74,14.74,0,0,0,1.61,9.12l1.71-.82c-2.88-2-6.8-1.76-8,2-1.63,4.9,4.74,4.68,7.52,3.76l-.83-1.14c-3.35,2.35-3.83,6.75-.21,9.17,4.5,3,7.21-3.32,7.83-6.61l-1.95.33c.61,2.22,1,4.48,1.57,6.7a.7.7,0,0,0,.63.46c7.18.23,8.55-7.21,2.28-10.35-.67-.34-2.19.67-1.3,1.23,2.84,1.77,10.52,4.55,8.85-1.91-1.15-4.43-5.86-5.94-8.32-1.78-.56.95,1.41,1,1.85.25Z"/><path class="cls-4" d="M72.48,166.46l-3,0a1.13,1.13,0,0,0-1.07.78,4.73,4.73,0,0,0,.76,4.14c1.11,1.36,3,1.64,4.66,1.65a1.12,1.12,0,0,0,1.07-.78,4.14,4.14,0,0,0-.66-3.76c-1-1.11-2.62-1.28-4-1.29-1.09,0-1.49,1.39-.18,1.39a2.67,2.67,0,0,1,2.9,3.82l1.06-.77a4,4,0,0,1-3.2-1.26,3.87,3.87,0,0,1-.44-3.3l-1.07.77,3,0c1.1,0,1.49-1.4.18-1.39Z"/><path class="cls-4" d="M72.57,169.21c3.12.61,8-.66,5.61-4.72a4,4,0,0,0-3.85-1.81c-2.45.18-4.07,2.48-5.08,4.45l1.88,0c0-1.87.3-4.81-1.51-5.9a5,5,0,0,0-5.58,0,4,4,0,0,0-1,4.69c.82,2.23,3.12,3.19,5.3,3.46.45.06,1.91-.58,1.12-1.1-2.07-1.35-5.17-3.36-7.73-2.08-1.81.91-1.62,3.06-1.06,4.69s1.86,3.7,3.74,4.21c2.35.62,3.86-1.55,4.55-3.43.28-.78-1.5-.39-1.76-.1-1.86,2.05-1.8,5.73,1.23,6.73,4.3,1.41,4.6-4.08,4.25-6.83-.09-.74-2-.27-1.93.52C71,175,75.4,178.27,78,175.41c1.08-1.2,1.24-4-.29-4.93-1.81-1.12-3.8-.36-5.27.94-.86.77,1,.87,1.57.4,3.45-3,3.52,4.25,1.23,3.21a4.63,4.63,0,0,1-2.54-3.65l-1.93.52c.12,1,.69,6.39-1.6,4.91a3.28,3.28,0,0,1-.38-4.93L67,171.79c-.45,1.22-.93,2.59-2.28,1.67a6.63,6.63,0,0,1-2.14-3.18c-.32-.86-.74-2.38-.07-3.2.87-1.08,4.69,1.64,5.41,2.11l1.12-1.1c-2.64-.32-5.33-2.76-4.17-5.64.61-1.49,3.22-1,3.81.31a11.9,11.9,0,0,1,.5,4.53c0,.86,1.61.48,1.88-.06,1.08-2.1,3.11-4.82,5.19-2.17a2.91,2.91,0,0,1,.57,2.22c-.24,1.39-2.15,1-3.09.79-.68-.13-2.28.92-1.16,1.14Z"/><path class="cls-4" d="M50.27,153.54l-3.73.05c-.35,0-1.24.17-1.36.59-.36,1.27-.87,3.39.67,4.08,1.34.59,3.2-.26,4.3-1s2-1.75,2-3c-.07-1.67-2.6-2-3.81-2.11-.6-.05-1.2-.06-1.8-.06a2,2,0,0,0-1.29.49c-.31.33.27.4.48.4,1.24,0,3.73-.07,4.38,1.34.42.92-.39,1.9-1,2.47a4.75,4.75,0,0,1-.62.45c.11-.07-.17.1-.22.12l-.2.1c.2-.1,0,0-.06,0-.28.1.13,0-.15,0h0c-.24,0,.07,0-.16,0l-.21-.07c-1.17-.46-.59-2.71-.34-3.58l-1.36.6,3.73-.05a1.89,1.89,0,0,0,1.29-.48c.31-.33-.27-.4-.48-.4Z"/><path class="cls-4" d="M52.52,157.52c3-.08,6.41-1.31,7.26-4.49,0-.18-.08-.29-.21-.38-3.64-2.53-9.47-3.58-11.42,1.45l1.94-.22c.09-2.13,1.43-5,.11-7A4.57,4.57,0,0,0,45,145.14c-3.54,1.57-2.5,7.67.42,9.38.57.32,2.35-.4,1.53-1-2.41-1.72-6.53-2.61-8.36.46-2.3,3.86,4.79,4.46,6.77,4.34.5,0,1.73-.89.71-1.13-2-.48-5.26-1.12-6.66,1-1.08,1.61.86,4,1.89,5.07,1.28,1.35,3,2.49,5,2.06,2.76-.62,2.07-4.37,1.69-6.32-.15-.72-2.06-.24-1.93.52.72,4.19,4.12,6.75,8,4.09A3.6,3.6,0,0,0,55.74,160c-.42-2.2-3.74-2.68-5.47-2.91-.79-.11-2,1-.73,1.17,2.14.29,6,1.76,3.54,4.37-2.66,2.84-4.79-1.49-5.17-3.69L46,159.5c.1.51.78,4.75-.08,4.75-1.15,0-2.34-1.24-3.06-2A6.28,6.28,0,0,1,41.05,159c-.31-1.94,2.88-.94,3.8-.72l.71-1.13c-1.69.1-5.48.07-5.38-2.49.11-2.89,4-1,5.19-.18l1.53-1c-2-1.19-2.53-4.45-1.95-6.54.47-1.67,2.45-.52,3.17.22a3.82,3.82,0,0,1,.62,2.77c-.07,1.39-.53,2.72-.59,4.11,0,.93,1.72.36,1.94-.22,1.37-3.54,5.09-2.07,7.49-.58,1.23.77-2.2,2.63-2.6,2.75a9,9,0,0,1-1.73.3c-.76,0-2,1.2-.73,1.17Z"/></svg>