<svg id="layer1" xmlns="http://www.w3.org/2000/svg" viewBox="0 0 296.39 229.7"><defs><style>.cls-1{fill:#fccc77;}.cls-2{fill:#492d0c;}</style></defs><path class="cls-1" d="M85.37,112.23c-7.54,6.92-10,20.87,1.21,25.48,3.69,1.51,6.34-4.1,2.64-5.61-7.17-2.94-3.81-10.95.25-15.24,1.91-2,4.76-3.67,7.35-3.21,3.38.61,5,5.43,5.85,8.71a9.45,9.45,0,0,0-1.24.26c-5.4,1.53-8,7.33-9.41,12.25a28.16,28.16,0,0,0-.21,15.86c1.62,5.11,6.44,6.7,10.91,4,3.43-2.07-.17-7.13-3.57-5.06-.15.09-.65.25-.83.32a6.21,6.21,0,0,1-1-2.57,25.8,25.8,0,0,1,.81-11.48c.7-2.57,2.17-6.17,4.75-7.26,3.61-1.53,7.9,4.27,9.75,6.74a3.08,3.08,0,0,0,1.15.95l-.11.13c-6.77,5.21-7.83,16.39-2.33,23.73a3.11,3.11,0,0,0,5.44-2.86,21.07,21.07,0,0,1,1-15.85c.09-.17.18-.32.27-.48a8.67,8.67,0,0,1,3.94-1.2,2.82,2.82,0,0,0,2-1,16.65,16.65,0,0,1,5.4,3.46c-4.76,1.32-8.49,5-9.85,11-2.19,9.74,4.17,19.15,13.55,21.58a2.54,2.54,0,0,0,3.33-2,13.48,13.48,0,0,0,3.17,4.69c-.41,1.67.34,3.79,2.4,4a26.45,26.45,0,0,0,4.38-.08l.52,0a2.87,2.87,0,0,0,1-.43c1.32-.32,2.64-.81,4-1.25,3.81-1.24,1.63-7.08-2.17-5.85-1,.32-1.94.65-2.93.93a10.37,10.37,0,0,1-1.48-.79.13.13,0,0,0,0-.06c-1.23-5.53-1.53-11.58.86-16.85,2.84-6.25,9.11-3.34,13.33-.27a15.2,15.2,0,0,0-4.86,11.69,14.83,14.83,0,0,0,3,9.09,2.82,2.82,0,0,0,.92,3.18c4.57,3.9,10.1,4.53,15.72,2.72,3.33-1.06,2.1-6.54-1.39-6-6.42,1-11.44-2.3-12-8.94s4.94-10,11-9.1c3.95.59,5-5.52,1.06-6.11a18.37,18.37,0,0,0-8.1.52,2.76,2.76,0,0,0-1.13-1.69c-5.08-3.75-11.4-6.48-16.87-4.08a2.23,2.23,0,0,0-1.6-2.39,2.77,2.77,0,0,0-.62-.15v0s-.39-.13-.5-.15c-.53-.15-1.16-.32-1.7-.43a2.57,2.57,0,0,0-1.84-2.09,21.12,21.12,0,0,0-5.78-1.19,3.07,3.07,0,0,0-.68-3.63c-4.5-4.31-10.43-7.21-15.73-5.11a3.09,3.09,0,0,0-.58-1.22c-2.19-2.93-5.11-6.32-8.57-8.18a2.86,2.86,0,0,0-.06-1c-1.35-6-3.86-13-10.45-15C93.67,106.29,88.91,109,85.37,112.23Zm54.84,42.67a2.72,2.72,0,0,0-3,1.72,24.21,24.21,0,0,0-1.78,12.82,3.42,3.42,0,0,0-.51-.39c-4.65-2.84-8.83-7.85-6.35-13.51,1.88-4.3,6.77-5.38,11.07-4.79.94.26,1.87.5,2.82.71A15.19,15.19,0,0,0,140.21,154.9Z"/><path class="cls-1" d="M186.93,154c-8-.27-13.84,4.3-13.15,12.61a16.27,16.27,0,0,0,.26,1.82,19.28,19.28,0,0,0,.64,4,14.05,14.05,0,0,0,6.73,8.9,22.76,22.76,0,0,0,5.15,3.68c2.33,1.17,4.24-.79,4.32-2.8a14.93,14.93,0,0,0,4.66-2.47c3.16-2.44-.4-7.52-3.57-5.07-2.57,2-5,2.38-6.95,1.53a21.92,21.92,0,0,1-4.58-7.89,12.48,12.48,0,0,1-.42-1.68c.24-3.72,2.92-6.43,7.51-6.5C191.59,160.13,190.81,154.14,186.93,154Z"/><path class="cls-1" d="M209.7,143.93a21,21,0,0,0-6.65,2.43,13.9,13.9,0,0,0-4.22,2c-.59.23-1.18.45-1.78.65a2.71,2.71,0,0,0-1.92,3.31,16.84,16.84,0,0,0-2.4,6.69c-1.15,8.13,3.39,17.06,12,18.24a3.1,3.1,0,0,0,1.19-.06,12.34,12.34,0,0,0,8.67-1.85c2-.47,3.3-1.78,5.31-3.4a3,3,0,0,0,1.16-2.07c1.73-2.88-2.57-6.1-5.15-3.43-.16.17-.32.33-.49.48l-.1.1a32,32,0,0,1-4.53,2.9,2.58,2.58,0,0,0-.41.33c-3.6,1.32-7.17.3-9.16-4.73a10.83,10.83,0,0,1,2.13-11.8c2.46-.61,4.93-1.2,7.37-1.91a2.81,2.81,0,0,0,1.93-3.31C213.69,146.56,212.38,143.43,209.7,143.93Z"/><path class="cls-1" d="M214.66,143.58a21.65,21.65,0,0,0,1.27,8.21,2.45,2.45,0,0,0-1.27,2.88,13,13,0,0,0,2.63,5.56,2.92,2.92,0,0,0,1.05,1.14c3.34,3.21,8.3,4.64,13.26,5.55a2.91,2.91,0,0,0,3.46-2.43,2.88,2.88,0,0,0,2.28-.51c3-2.09,6.12-3.69,8-7a3.09,3.09,0,0,0-1.34-4c1.22-6.63-4.23-11.4-10.76-14.18a3,3,0,0,0-1.61-2C224.35,132.83,215.13,133.65,214.66,143.58Zm22,11.22a2.55,2.55,0,0,0-.19,2.46c-.94.57-1.9,1.1-2.71,1.66a2.8,2.8,0,0,0-1.25,1.85,4,4,0,0,1-.61-.21,3.08,3.08,0,0,0-1.21-1,12.88,12.88,0,0,1-1.53-.77A11.5,11.5,0,0,0,228,158l-.11-.06A17.83,17.83,0,0,1,221,146.49a8.69,8.69,0,0,1,.18-4.44l1,.1C228.94,142.94,241.57,146.41,236.67,154.8Z"/><path class="cls-1" d="M197.38,85.59c-8.12,7.6-4.7,20.14,1.93,27.24a2.4,2.4,0,0,0,3.07.58,3.3,3.3,0,0,0,4.33-.81c-1.06,4.78.57,9.8,6.31,13.62a3.38,3.38,0,0,0,1.41.52,11.26,11.26,0,0,0,1.2,6.81c1.78,3.53,7.61,1.4,5.81-2.17a6,6,0,0,1,.66-6.87,2.68,2.68,0,0,0,4,.46c3.08-2.46,6.54-3.93,9.91-1.17a7.23,7.23,0,0,1,2.1,7.14c-.21.73-.42,1.4-.61,2-1.26,3.69,4,6.38,5.61,2.64a15.79,15.79,0,0,0,1.19-4.16c1-4.37,1-8.94-1.76-12.74a10.45,10.45,0,0,0-4.79-3.57,2.52,2.52,0,0,0,1.36-2.09c.45-5.72-.66-11.48-6.13-14.36a12.89,12.89,0,0,0-7.87-1.09c-6.7-.65-13.95,2.32-17.14,9.22a2.87,2.87,0,0,0,0,2.54c-.17.36-.34.72-.48,1.08a2.6,2.6,0,0,0-1.2-1.78c-5.93-4-7.13-10.17-2.38-15.73A9.54,9.54,0,0,1,210,89.39,18.26,18.26,0,0,1,214.78,95c1.85,3.26,6.32.29,5.44-2.88-1.3-4.67-4.06-7.31-7.34-8.22C208.17,81,202.5,80.8,197.38,85.59ZM219.31,106a16.28,16.28,0,0,1,6.32-2.28,9,9,0,0,1,7.3,9,2.51,2.51,0,0,0,.39,1.37,18.29,18.29,0,0,0-3.14,0,19.44,19.44,0,0,0-13.38,7.19c-2.84-1.92-5.16-4.24-4.33-7.88C213.22,110.17,216.64,107.65,219.31,106Z"/><path class="cls-1" d="M185.46,76a16.19,16.19,0,0,0-9,9c-3.94,9.77,4,17.34,12.87,19.52,3.89,1,4.92-5.16,1.06-6.11a12.85,12.85,0,0,1-7.43-4.53,2.45,2.45,0,0,0,1.5-1.53C186.58,85.92,190.88,81,198,80.92c.48.08,1,.18,1.4.29,3.54.87,4.83-4.3,1.85-5.86C195,72.1,189.51,72.88,185.46,76Z"/><path class="cls-1" d="M178.67,66.92a24.83,24.83,0,0,0-3,0,2.67,2.67,0,0,0-1.71-.25,25.13,25.13,0,0,0-5.88,1.66,3.16,3.16,0,0,0-2.21-2.17,16.48,16.48,0,0,0-12.28.89A3.09,3.09,0,0,0,152.12,63c-6-3.25-12.57-2-18.79,1.18h0l-.55.28c-1.42.75-1.5,2.27-1,3.57A16.94,16.94,0,0,0,127,77.53c-1.74,10.07,5.82,18,15.86,16.83a2.94,2.94,0,0,0,1.88-.9c3.82,3.94,8,5.34,12.7,4.22l.94.34c2.7,1,4.56-1.75,4.18-3.8v0a25,25,0,0,0,11.19,6.59c3.87,1,5-5.06,1.16-6.08a14.86,14.86,0,0,1-7.34-4.5,2.72,2.72,0,0,0,.6-1.52c.46-5.93,3.79-10.61,7.22-15.21.84-.57,1.07-.5,2.94-.43l.61,0a2.76,2.76,0,0,0,2.51.89c1.85-.22,3.66-.38,4.64-2.2.87-1.62-.11-3.28-1.48-4.13C183,66.7,180.38,67,178.67,66.92Zm-34.22,21.9a2.85,2.85,0,0,0-2.23-.64c-6.59.73-10.11-3.92-9-10.24,1.3-7.52,8.41-9.47,14.94-7.59a2.38,2.38,0,0,0,1.15.05,16.93,16.93,0,0,0-4,9,17.21,17.21,0,0,0,.93,8.55A2.75,2.75,0,0,0,144.45,88.82Zm13.71-5.92A15.61,15.61,0,0,0,160,90.23h-.13c-6.17.87-9-4.18-8.47-9.83.67-6.6,5.5-9.49,11.29-8.63A14.83,14.83,0,0,0,158.16,82.9Z"/><path class="cls-1" d="M125,70.68c-5-1.88-10.67-2.15-14.84,1.64-3.75,3.42-4.83,8.5-4.11,13.37a16.44,16.44,0,0,0,6.61,11,13.89,13.89,0,0,0,4.52,3.29,2.89,2.89,0,0,0,3.79-1.13A22,22,0,0,0,130,95.35c3.38-2.16-.21-7.23-3.57-5.07-3.51,2.24-7.15,2.71-9.9,1.29-4.19-6-1.1-17.17,7.54-15.36,3.37.7,5.22-4.81,1.86-5.86-.27-.09-.58.13-.85.05l0,.29Z"/><path class="cls-2" d="M111.35,122.15c1.51-15.07-20.44-21.68-29.45-10.87-6.33,7.6-8.35,30.4,6.45,28.83.84-.09,1.68-1,.32-.83C76.45,140.57,78.51,121.69,81.4,115c3.22-7.44,10.43-9.71,17.9-7.06,6.14,2.17,10.8,7.87,10.14,14.53-.06.6,1.86.2,1.91-.31Z"/><path class="cls-2" d="M91,130.47c-2.59-4.3-6.06-9.77,0-13.1,3-1.66,6.36-.1,8.08,2.5.64,1,2.68,6.59,4.34,3,.46-1-1.49-.95-1.84-.2s1.33.31,1-.27a12.56,12.56,0,0,1-.6-1.29,16.05,16.05,0,0,0-1.65-2.87,7.2,7.2,0,0,0-6.49-2.79,9.16,9.16,0,0,0-7.58,4.47c-2.41,3.79,1.12,8.27,3,11.38.43.73,2.28,0,1.77-.84Z"/><path class="cls-2" d="M120.7,130.55c-1.88-6-6.94-7.93-12.84-7.39-4.55.42-12.87,3.47-14.82,8.13-3.79,9.05-7.34,17.73.8,25.42,4.5,4.26,10.67,3.93,14.31-1,.46-.62-1.45-.39-1.77.05-5.26,7.13-12.47-.38-14.84-5.29C88.7,144.55,92,138,94.3,132.58c4-9.22,21-12.76,24.47-1.51.18.58,2.1,0,1.93-.52Z"/><path class="cls-2" d="M105.5,146.27c-5.3-.58-8-5.7-6.85-10.62,1.86-7.82,11.11-.63,14.87,1.09.53.24,2.06-.56,1.82-.67-5.09-2.33-12-7.86-17.42-2.58-2,2-1.71,6-.86,8.43,1.12,3.13,4,4.82,7.19,5.16.43,0,2.23-.71,1.25-.81Z"/><path class="cls-2" d="M97.39,140.58a2.16,2.16,0,0,0,2.8,1.13,7.91,7.91,0,0,0,4.1-3.11c.39-.5-1.47-.23-1.76.14a10.66,10.66,0,0,1-1.94,2c-.34.26-.32.3-.59.16a1.74,1.74,0,0,1-.68-.87c-.22-.48-2.09.18-1.93.52Z"/><path class="cls-2" d="M104.39,137.76c1-1.66,2.28-3.09,3.26-4.74.52-.87-1.44-.79-1.82-.14-1,1.65-2.28,3.08-3.27,4.74-.52.87,1.44.78,1.83.14Z"/><path class="cls-2" d="M89.85,119.33a22.34,22.34,0,0,0,4.49,8.33c.47.55,2.33-.16,1.79-.78a21.33,21.33,0,0,1-4.35-8.07c-.2-.73-2.14-.21-1.93.52Z"/><path class="cls-2" d="M99.89,136.05a41.44,41.44,0,0,0,8.73,5.57c.74.31,2.25-.74,1.14-1.21A40.13,40.13,0,0,1,101.4,135c-.62-.47-2.35.41-1.51,1.05Z"/><path class="cls-2" d="M118.91,164.85c-11.23-.16-12.45-17.78-8.25-25,6.08-10.44,22.06-5.16,27.12,3.32.35.59,2.18-.09,1.93-.52-5.69-9.53-20.2-12.85-28.79-5.23-8.16,7.22-5.47,28.24,7.21,28.43.65,0,2.08-1,.78-1Z"/><path class="cls-2" d="M119,157.14a14.81,14.81,0,0,1-1.57-10.84,7.9,7.9,0,0,1,3.25-4.72c2.34-1.52,5.36-.08,7.44,1.16.54.31,2.32-.47,1.54-.93-3.94-2.34-8.69-2.82-12,.77-3.77,4-3,10.64-.54,15.08.35.65,2.22,0,1.93-.52Z"/><path class="cls-2" d="M116.06,146l5.72,3.33c.62.37,2.38-.5,1.52-1L117.58,145c-.62-.36-2.37.51-1.52,1Z"/><path class="cls-2" d="M151.34,145.28c-6.05-4.23-15.35-5.73-22.53-4.05-8.87,2.07-10.57,11.19-10.13,19.28.32,5.85,15.13,27.45,18.94,14.74.15-.5-1.75-.23-1.91.31-1.78,5.93-7.82-1.6-9.6-3.87-2.31-2.93-4.81-6.7-5.39-10.48-.94-6.11.08-16.82,7.17-19,6.61-2,16-.16,21.64,3.76.48.34,2.18-.43,1.81-.69Z"/><path class="cls-2" d="M132.54,164.37c1,0,1.08-.11.36-.37a4.08,4.08,0,0,1-.63-.54,10.77,10.77,0,0,1-1.88-2.61A9.38,9.38,0,0,1,129,155.3a6.74,6.74,0,0,1,3.71-5c2.66-1.41,5.62,0,7.48,2,.37.38,2.17-.32,1.82-.68a9,9,0,0,0-14.63,2.85c-1.21,3,.57,6.53,2.38,8.92,1,1.36,3.13,2.59,4.51.88.42-.53-1.45-.28-1.76.1Z"/><path class="cls-2" d="M129.37,156.62c2.72.23,5.09,1.41,7.58,2.44.45.19,2.22-.53,1.57-.8-2.61-1.07-5.07-2.26-7.92-2.5-.46,0-2.24.77-1.23.86Z"/><path class="cls-2" d="M152.24,180.32c-3.75,6.78-9.64.28-12.37-3.73-2.46-3.61-4.13-7.88-3.35-12.26,2-11.11,17.21-22.64,25.39-10.57.47.69,2.32,0,1.78-.83-9.6-14.16-27.09,0-29.3,12.57-1.55,8.78,12.64,27.74,19.69,15,.51-.93-1.45-.89-1.84-.19Z"/><path class="cls-2" d="M155.31,157.52l.26,0c.23-.46.46-.91.68-1.37-2.89-.17-5.78-.36-8.68-.55s-4.54,3.69-5,6.08c-.91,5.19,3.1,15.45,9.72,11.13,1.09-.71-.51-1.34-1.27-.84-2.72,1.78-4.83-1.85-5.69-4a11.88,11.88,0,0,1-.23-8.6c1.11-2.9,1.91-2.45,4.68-2.27l5.75.37c.91.05,2-1.28.68-1.37H156c-.91-.06-2,1.28-.68,1.36Z"/><path class="cls-2" d="M143.68,162.58a39.79,39.79,0,0,0,8.8,4.58c.73.29,2.26-.74,1.15-1.19a37.76,37.76,0,0,1-8.44-4.43c-.6-.45-2.35.42-1.51,1Z"/><path class="cls-2" d="M176,184.64c-10.36,6.39-18.59-3.46-20.32-13-.92-5.07.66-10,3.54-14.11a12.26,12.26,0,0,1,10.55-5.3c2.19,0,5.52.62,5.77,3.26.06.56,2,.16,1.93-.52-.46-4.84-8.83-3.88-12-3.21-6.83,1.45-11.14,9.18-11.9,15.56-1.6,13.42,11.2,25.48,23.59,17.82,1.11-.68-.6-.84-1.17-.48Z"/><path class="cls-2" d="M172.88,159.43c-6.78-1-15,1-12.65,9.52,1.06,3.83,6,11.44,10.74,7.69.82-.64-1.12-.47-1.51-.16-2.5,2-6.65-6.15-7.16-7.63a8.47,8.47,0,0,1-.13-5.85c1.41-3.67,6.41-3.11,9.49-2.67.49.07,2.25-.75,1.22-.9Z"/><path class="cls-2" d="M193.92,150.67c-6.95-.43-13.57-.65-18.47,5-4.38,5.06-4.46,12.79-2.5,18.81,1.76,5.4,6,10.24,11.59,11.66,6.2,1.57,11.58-2.89,15-7.49.74-1-1.09-1.22-1.61-.54-3.45,4.6-8,8.3-14,6.25-4.5-1.53-7.47-6.2-9.07-10.39a20.06,20.06,0,0,1,.36-14.7c3.21-7.77,10.89-7.69,18-7.25.92.06,2-1.28.68-1.36Z"/><path class="cls-2" d="M193.15,174.38c-3.15.4-8.12,1.35-9.74-2.28a12.62,12.62,0,0,1-.68-5.07c0-1.57,0-2.6,1.28-3.71a6.26,6.26,0,0,1,7.15-.65c.71.36,2.43-.61,1.5-1.09a9,9,0,0,0-9.33.48,4.38,4.38,0,0,0-2.51,3.86,27,27,0,0,0,.14,4.67c.79,6.21,7.2,5.76,12,5.14,1-.14,1.51-1.52.19-1.35Z"/><path class="cls-2" d="M183.59,172.18c3.13-.89,6-2.48,9.12-3.37,1.19-.34.81-1.77-.39-1.43-3.12.89-6,2.49-9.11,3.38-1.2.34-.82,1.76.38,1.42Z"/><path class="cls-2" d="M213.76,143.28c-1.45-2.41-7.17-1.6-9.47-1.25a17.17,17.17,0,0,0-9.55,5.06c-6,6-6.18,17-2.79,24.23a16.47,16.47,0,0,0,14.9,9.42c7.57,0,13.47-5.57,17.17-11.62.52-.84-1.44-.74-1.82-.12-3.47,5.67-8.53,10.53-15.56,10.49-4.94,0-9.14-3.17-11.83-7.08-3.26-4.74-3.48-10.89-2.54-16.36a17.23,17.23,0,0,1,4.89-9.37,13.94,13.94,0,0,1,5.85-3.17c1.82-.56,7.73-1.49,9,.57.39.64,2.25,0,1.79-.8Z"/><path class="cls-2" d="M214.83,165.35c-2.2,1.12-3.94,3-6,4.34-3.26,2.19-6.13-.44-7-3.54-1.42-4.83,3.22-17.54,9.47-11.26.46.45,2.28-.26,1.8-.74-6.18-6.21-13.57,3-13.53,9.32,0,3.57,1.39,7.77,5.58,8.05,4.66.31,7.11-3.73,10.89-5.66,1.16-.59-.59-.82-1.18-.51Z"/><path class="cls-2" d="M202.76,165.33a46.71,46.71,0,0,0,10.63-4.5c1.14-.64-.54-1.07-1.22-.68a43.34,43.34,0,0,1-9.7,4.1c-1.17.32-.88,1.41.29,1.08Z"/><path class="cls-2" d="M213.05,141.67c-3.65,11.27.83,24.68,13.5,27.25,8.55,1.74,15.8-5.75,17.89-13.32,6.09-22.09-34.18-31.81-31.68-9.62.1.88,2,.41,1.93-.52-1.23-10.89,9-12.43,17.27-9.35a17,17,0,0,1,10.73,18.71c-1.19,7.33-7.85,13.68-15.47,12.71-12-1.52-15.44-16-12.32-25.65.34-1.06-1.58-1-1.85-.21Z"/><path class="cls-2" d="M221.37,150.48c1,4.2,5.27,7.25,9.37,7.84,3.26.47,6.72-1.67,8.75-4.1,3-3.61-.26-7.1-3.6-8.77-3.66-1.83-8.79-3-12.74-1.41-5.2,2.07-2.43,7.49,0,10.67.53.7,2.37-.06,1.77-.84-1.6-2.09-4.95-6.93-1.13-8.62,2.9-1.28,7-.17,9.75.94,2.3.93,6.05,3.14,5.05,6.18-.62,1.87-2.65,3.11-4.27,4-4.22,2.36-10.08-2.34-11-6.42-.21-.89-2.14-.38-1.93.52Z"/><path class="cls-2" d="M225.73,152.52c11.51-6,7.91-20.9,4.32-30.8-.17-.47-2.08.12-1.93.52,3.31,9.13,7.41,24.33-3.51,30-1.14.59.65.51,1.12.27Z"/><path class="cls-2" d="M217.1,137.62c-4-3.15-2.65-8.75-1.12-12.89,2.69-7.25,7.82-11.57,15.69-12.12,14.8-1,16,19.17,9.19,28-.42.54,1.46.28,1.76-.1,4.82-6.24,5.74-16.16,1.93-23.15-2.86-5.24-9.28-6-14.59-5.38a18,18,0,0,0-13.77,8.77c-2.94,4.62-6.2,13.38-.9,17.52.44.35,2.16-.4,1.81-.68Z"/><path class="cls-2" d="M239.15,134.32c.67-6.49-2.51-12.61-9.79-11.71-6.14.75-9.66,6.45-7,12.11.35.76,2.25.17,1.93-.51-2.11-4.47-.4-9.5,4.83-10.37,6.42-1.07,8.59,5.55,8.07,10.68-.09.88,1.86.55,1.94-.2Z"/><path class="cls-2" d="M212,126.77c-.13.19-4.67-5.94-5.07-6.61-2.93-5,.31-12.37,1.58-17.44l-1.31.77,1,.06c.46,0,1.28-.19,1.32-.77.14-2.2,6.22-4.77,7.79-5.59,4.91-2.58,10.61-3.08,15.25.25,4,2.9,9.78,11.13,6.13,16-.74,1,1.09,1.25,1.61.56,4.48-6-2.43-16.19-8.13-18.88-4.79-2.27-9.41-1.64-14.21.24-2.8,1.09-10.19,4.23-10.4,7.56l1.32-.77-1-.06a1.19,1.19,0,0,0-1.31.76c-2,7.89-4.29,14.32.69,21.35,1.29,1.83,4.5,5.91,6.59,2.76.59-.88-1.39-.89-1.84-.21Z"/><path class="cls-2" d="M231.66,112.05A10.22,10.22,0,0,0,226,101c-4-1.87-8.36.42-11,3.48-2.79,3.29-2,8.2-.53,11.92.72,1.82,3,3.23,4,.71.21-.54-1.69-.31-1.92.28q1.13.27.54-.21a5.38,5.38,0,0,1-.7-1.29,15.77,15.77,0,0,1-1-3.21c-.51-2.36-.76-5.4.76-7.45,2.9-3.89,7-5.05,10.73-1.68a10,10,0,0,1,2.8,8.75c-.09.67,1.84.3,1.92-.28Z"/><path class="cls-2" d="M225.64,113.68c.12-4-2.66-6.4-5.63-8.67-.58-.45-2.33.4-1.51,1,2.66,2,5.3,4.19,5.19,7.84,0,.91,1.92.56,1.95-.2Z"/><path class="cls-2" d="M204.9,114.92c-13.12.84-15.9-21.74-9-29.33,7.94-8.79,26.63-6.25,26.2,7.44,0,.82,1.92.43,1.94-.24.45-14.6-18.33-16.56-27.71-9.27-6.21,4.82-7,12.29-5.35,19.56,1.55,6.69,6.21,13.42,13.71,13,1-.06,1.59-1.19.25-1.11Z"/><path class="cls-2" d="M217.9,95.23a11.43,11.43,0,0,0-10.91-6c-3.48.27-6.87,2.51-7.8,5.93-1.4,5.21,1.06,15.21,8,10.63.87-.57-1.09-.49-1.52-.2-4.35,2.89-5-7.55-4.72-9.65.45-3.73,3.41-6.15,7.44-5.74,3.24.34,6.07,2.82,7.62,5.54.33.58,2.17-.09,1.93-.51Z"/><path class="cls-2" d="M216.46,112.79a7.74,7.74,0,0,0,7.89-10.23c-.18-.61-2.1-.07-1.93.52,1.13,3.84-.44,8.85-5.18,8.71-.66,0-2.08,1-.78,1Z"/><path class="cls-2" d="M212.71,97.71a22.46,22.46,0,0,0-7.89-5.64c-.78-.33-2.25.78-1.13,1.26a20.7,20.7,0,0,1,7.24,5.21c.57.63,2.41-.13,1.78-.83Z"/><path class="cls-2" d="M190,105.06c-12-.3-17.27-16.57-11.71-25.89,6.28-10.55,23.61-9.07,26.72,3,.17.67,2.1.16,1.93-.51-3.25-12.63-19-13.12-27.63-5.82-10.61,8.92-4.12,29.94,9.94,30.3.72,0,2.06-1.06.75-1.09Z"/><path class="cls-2" d="M198.9,82.08c-6.08-5.07-13.89-.08-15.05,7-.34,2.09-.57,5.68,1.06,7.36,1.48,1.53,3.85.29,5.19-.81.42-.34-1.39-.14-1.74.15-2.74,2.23-2.78-5.38-2.65-6.66a8.09,8.09,0,0,1,1.16-3.69,17.74,17.74,0,0,1,2.66-3.51c2.68-2.44,5.47-.91,7.55.82.4.34,2.11-.41,1.82-.65Z"/><path class="cls-2" d="M211.72,97.63c-2.75-3.06-5.87-5.46-10.09-5.84-1-.08-2,1.32-.66,1.43,3.79.34,6.52,2.53,9,5.27.6.67,2.43-.12,1.77-.86Z"/><path class="cls-2" d="M186.7,84.43a13.39,13.39,0,0,1,5.38,2.19c.78.45,2.44-.6,1.47-1.17a15.52,15.52,0,0,0-6.2-2.5c-1-.1-1.95,1.35-.65,1.48Z"/><path class="cls-2" d="M176.39,101.31c-12.67.18-17.66-11-15-22.11,1.15-4.91,3.93-9.91,8.35-12.55,6.17-3.69,13,1.24,17.18,5.56.4.41,2.2-.29,1.81-.69-4.55-4.65-10.18-8.16-16.85-6.59-5.28,1.24-9,5.87-11.07,10.58a23.38,23.38,0,0,0-.52,18.27c2.65,6.23,9,8.53,15.33,8.44.6,0,2.1-.92.81-.91Z"/><path class="cls-2" d="M181.25,75.05c-2.53,1.2-5.52.3-8,1.65a9.35,9.35,0,0,0-4.31,5c-1.4,3.45-1.6,9.76,3.16,10.43.59.08,2.27-.87,1.19-1-4.08-.57-3.45-6.14-2.65-9a6.9,6.9,0,0,1,6.82-5.36,11.65,11.65,0,0,0,4.56-1c1.21-.58.09-1.17-.75-.76Z"/><path class="cls-2" d="M170.08,81.37l3.94.25a1.26,1.26,0,0,0,1.26-.6.63.63,0,0,0-.6-.85l-3.94-.25a1.27,1.27,0,0,0-1.26.6.63.63,0,0,0,.6.85Z"/><path class="cls-2" d="M157.33,89.3c-3.09,2.24-3.93-8.07-3.84-9.32.34-5.09,4.91-5.82,9.08-5,1,.18,2-1.16.67-1.4-5.85-1.09-11.32.75-11.76,7.36-.24,3.56,1.83,13.14,7.13,9.29,1.06-.77-.51-1.44-1.28-.88Z"/><path class="cls-2" d="M169.25,66.33c-16.07-7.33-27.44,7.4-26.86,22.92.26,6.85,7.52,9.86,13.23,11.36,3.53.92,9.09.87,9.75-3.69.08-.54-1.84-.18-1.91.32-.79,5.47-8.91,1.92-11.85.54-3.58-1.68-6.19-3.72-7.12-7.72-1.17-5.07.74-11.41,2.92-16a20.73,20.73,0,0,1,4.33-5.89c4.52-4.43,10.54-3.54,15.69-1.2.54.25,2.09-.55,1.82-.67Z"/><path class="cls-2" d="M133.09,78.66c3.57-.85,7.19-.74,10.51-2.51,1.15-.61-.6-.74-1.16-.45-2.94,1.57-6.4,1.38-9.57,2.14-1.16.28-.92,1.1.22.82Z"/><path class="cls-2" d="M154.66,62.44C149,58.61,142.5,56.59,136,59.54c-6,2.75-9.15,9.56-10.37,15.71-1.18,6-.75,13.32,3.47,18.09s11.31,3,16.29.62c1.15-.56-.67-.43-1.1-.22-12.81,6.2-18.22-6.06-17-16.94a24.81,24.81,0,0,1,6.33-14.45c5.65-5.88,13.38-3.24,19.26.74.44.3,2.06-.49,1.82-.65Z"/><path class="cls-2" d="M140.78,85.34c-1.24.8-4.42-3.37-5-4.15-1.49-2-2.31-4.59-1.29-7,2.18-5.2,10.43-4.21,13.92-1.3.57.48,2.31-.36,1.51-1-4.81-4-14.8-3.69-17.5,2.77-1.76,4.2,4.55,14.71,9.59,11.47,1.1-.72-.53-1.21-1.25-.75Z"/><path class="cls-2" d="M135.61,78c3,.12,5.94-.54,8.93-.42.65,0,2.08-.92.78-1-3-.12-5.94.54-8.93.42-.65,0-2.08.92-.78,1Z"/><path class="cls-2" d="M126.57,68.52C110.93,58.4,96.88,81,104.45,94.59c5.84,10.5,26.13,11,27.63-2.75.08-.69-1.86-.31-1.92.27-1.44,13.13-16.51,10-23.07,2.93-3.74-4-2.91-10.68-1.64-15.45,2.38-9,9.89-16.45,19.32-10.34.54.35,2.25-.43,1.8-.73Z"/><path class="cls-2" d="M124.39,90.67c-2.43,2.09-5.5,3.92-8,1-1.75-2.1-2.06-5.33-2-7.94s.81-5.88,2.73-8c2.46-2.66,6.15.56,8,2.41.39.37,2.17-.34,1.82-.68-2.75-2.7-6.45-4.86-10.19-2.72-3.12,1.78-4.09,5.84-4.3,9.16s.38,7.51,3.27,9.49c3.34,2.28,7.86-.68,10.37-2.84.45-.39-1.39-.21-1.76.11Z"/><path class="cls-2" d="M116.48,86.34c2.18-2.63,6-2.73,8.26-5.41.79-.94-1-1.26-1.62-.58-2.17,2.62-6,2.72-8.26,5.4-.78,1,1.06,1.28,1.62.59Z"/><path class="cls-2" d="M88.65,105.85A58.46,58.46,0,0,0,90.46,93l-1.14.61c5-.91,12.49-2.1,14.44-7.58.12-.34-1.73-.13-1.9.35-1.72,4.81-7.76,5.73-12.18,6.54-.28,0-1.12.21-1.15.6a56.85,56.85,0,0,1-1.79,12.66c-.11.38,1.77.13,1.91-.34Z"/><path class="cls-2" d="M89.66,92.76c.83.7,1,.85,2.07.65a1.1,1.1,0,0,0,.82-.68c1.52-4.46,0-11.06-1.84-15.19-2.06-4.72-5.95-8.24-11.23-8.31-.44,0-1.25.17-1.33.73-1.27,10,4.12,17.51,10.4,24.71l1-1c-7.8.69-36.39-1.38-35,12.05C56.28,122.94,87.08,104.3,88.44,94c.12-.9-1.85-.59-2,.19-.82,6.21-9.44,11.58-14.35,14.31-3.37,1.88-7.59,3.64-11.46,2.51-3.13-.91-4.73-5.17-4.1-8.1,1.3-6,12.92-6.71,17.58-7.2,5-.53,10.13-.41,15.17-.86.36,0,1.47-.5,1-1-6.1-7-11.47-14.32-10.23-24.09l-1.33.73c5.77.08,9,4.7,10.84,9.62a20.78,20.78,0,0,1,1.29,6.66c0,1.14-.06,2.29,0,3.43V91.4c-.32,1-.13,1.23.58.55-.6-.51-2.42.27-1.78.81Z"/><path class="cls-2" d="M88.36,93.76c-5.23-6.05-10.16-14-18.15-16.64C65,75.4,59.88,78.6,57.11,82.89c-3.44,5.31-5.06,11.74-7.59,17.49a26,26,0,0,1-5.77,8.83c-3,2.82-11.92,3.85-11.55-2,0-.74-1.88-.34-1.92.26-.07,1-.13,2-.19,3a.28.28,0,0,0,.19.32c11.67,5,18.1-3.13,22.26-13.22,2.37-5.72,4-12.21,8.1-17,8.7-10.26,21.13,8.42,25.92,14,.42.48,2.27-.2,1.8-.74Z"/><path class="cls-2" d="M85.46,90.51C74.3,84.53,58.61,76.46,57,62.38c-.49-4.12,2.63-7.91,3.67-11.78.68-2.52-.26-5-1.55-7.12C55.9,38.29,49,35,43.16,34.34c-.77-.09-2,1-.74,1.14,7.37.81,17.33,6.88,16.27,15.35C58.29,54,56,57,55.16,60.13c-.75,2.73.3,5.88,1.32,8.38,4.47,11,17.6,17.69,27.45,23,.59.31,2.36-.52,1.53-1Z"/><path class="cls-2" d="M162.52,169.38c3.72.65,7.54,1.33,11.32.86.83-.1,1.69-1,.33-.82-3.44.43-7-.31-10.41-.9-.47-.08-2.25.69-1.24.86Z"/></svg>