<svg id="layer1" xmlns="http://www.w3.org/2000/svg" viewBox="0 0 395.12 481.98"><defs><style>.cls-1{fill:#ffb021;}.cls-2{fill:#ec2b18;}.cls-3{fill:#9e231d;}.cls-4{fill:#2d1a06;}.cls-5{fill:#492d0c;}.cls-6{fill:#9b671c;}.cls-7{fill:#593200;}.cls-8{fill:#47a3e2;}</style></defs><path class="cls-1" d="M319.58,304.17c.4-5.57.49-11.16.51-16.76a2.84,2.84,0,0,0-1.54-2.44c0-1.7-.09-3.39-.1-5.08,0-3.87-5.88-3.85-6,0,0,0,0,.08,0,.13a2.77,2.77,0,0,0-3,2.88,17.24,17.24,0,0,1-.32,3.67,2.72,2.72,0,0,0-1.18,2.35c0,.16,0,.32,0,.49a3.1,3.1,0,0,0-1.43-.37c-.07-.31-.13-.61-.21-.92a3.43,3.43,0,0,0-.39-.95c-.31-2.32-.61-4.64-.88-7l-1.53-23a3,3,0,0,0,2.5-4.42c-1.39-2.58-3.12-4.86-4.51-7.44a2.92,2.92,0,0,0-2.59-1.4h-.5c-16.43-15-40.78-13.66-62.69-13.62a2.9,2.9,0,0,0-2.78,2.15c-7.2-.12-14.46,1.15-21.56,2.78-2.59.59-5.22,1.27-7.89,1.95-3.3.11-6.6.12-9.89.4-1.17.1-2,.34-2.48,1.34H163.46a2.92,2.92,0,0,0-2.85,3.56c-.09,0-.18.19-.26.26a112.62,112.62,0,0,0-1.15-14.09c-.1-.75-.22-1.5-.38-2.28a2.49,2.49,0,0,0-1.38-1.89c0-1.1,0-2.21,0-3.31a2.78,2.78,0,0,0-.73-2,288.32,288.32,0,0,0-2-37.86c-1.69-16-4.26-31.85-7.48-47.58a3,3,0,0,0,2.24-1.45,2.45,2.45,0,0,0,3-1.41c1.85-4.36,1.92-8.87,1.92-13.55a3,3,0,0,0-1.68-2.67,9.47,9.47,0,0,0-5-6.94,11.86,11.86,0,0,0-2.37-1,3,3,0,0,0-4.51-2.53c-5.45,3.13-11,3.88-16.95,4.06-11.63-1.45-23.48-2.89-35,.15a3,3,0,0,0-2.09,3.22l-3.13-.31c-1.66-.18-3,1.49-3,3-.12,5.79-1.46,11.65.11,17.35A3,3,0,0,0,85,133.59c.67,1.7,1.42,3.34,2.17,4.88,1.12,2.31,4.95,1.75,5.47-.71.1-.49.19-1,.27-1.46a3.15,3.15,0,0,0,1,1.33,23.67,23.67,0,0,0,.38,5.72c-.73,13.94-.64,28.18-1.48,42.29-3,11.9-6.7,23.62-9.18,35.64C80.5,225.7,77.17,230,74,234.21c-4.59,6.11-8.73,12.06-10.78,19.52-3.12,11.39-2.78,24-2.79,35.69,0,11.47-.87,22.85-1.36,34.3-.7,16.28-1,33,2.76,48.95a60.85,60.85,0,0,0,5.63,15.08c-1.67,6.37-1.66,13.06,2.63,18.56s11.06,7.47,17.67,8.09c.45.51.9,1,1.38,1.51,1.77,1.84,4.28.65,4.92-1.34a49.36,49.36,0,0,0,9.32-1.26,3.08,3.08,0,0,0,2.92,3.48,151.07,151.07,0,0,0,18.77-1.5h2.3a3,3,0,0,0,.75-.25c.23.06.48-.07.75-.07h27.08a2.61,2.61,0,0,0,2.46-1.18c2.18,0,4.37.06,6.57-.08a3,3,0,0,0,2.55-1.47c15.54,0,31.47.18,47.23,1.19a2.45,2.45,0,0,0,1.37.54h4.52a2.91,2.91,0,0,0,2.58-2h17s.05.15.08.15a2.47,2.47,0,0,0,2.5-1.4c1.26-2.53,2.44-5,3.59-7.61a2.87,2.87,0,0,0,2.73-2.07c2.86-8.58,5.7-17.16,9-25.57h0q2.38-4,4.42-8.21a62.44,62.44,0,0,0,8.33-8.17,49.65,49.65,0,0,0,11.37-5.41,26.5,26.5,0,0,0,9.34-1.27,13,13,0,0,1,2.14.57c2.44,2.56,8.43,3.48,11.16,3.64a2.72,2.72,0,0,0,2.73-1.88l1,.26a2.11,2.11,0,0,0,.59.11l.5.32c.47,1.16.92,2.32,1.33,3.5,1,2.73,4.76,2.76,5.68.36a2.71,2.71,0,0,0,1.71-2.66c0-.05.36-.09.36-.13a3,3,0,0,0,3.38-2.88V307C322.15,305.51,320.77,304.53,319.58,304.17Zm-97.87-50.53c.46.53.94,1,1.41,1.57l-.21.18-2.59-1.45ZM111.55,366c.53.16,1.06.3,1.59.45-.31.74-.61,1.48-.89,2.22C112.05,367.78,111.82,366.89,111.55,366Zm4.76,14.49c1.43-4,2.71-8.11,3.77-12.25l1.89.43A83.2,83.2,0,0,0,116.31,380.5ZM96.82,367.57c-.41-.62-.84-1.22-1.29-1.81-.08-1.54-.14-3.09-.16-4.63a99,99,0,0,1,.85-15.34C96.48,353,96.75,360.31,96.82,367.57Zm1.9-138.41a37.35,37.35,0,0,0,1.42-4.14,2.82,2.82,0,0,0,.11-1l.44-.48c-.31,2.12-.63,4.24-1,6.34A3.29,3.29,0,0,0,98.72,229.16ZM85.37,321.34a3,3,0,0,0,1.13,1.51c0,.31,0,.61,0,.92-.38,1.65-.76,3.31-1.11,5a3,3,0,0,0,.57,2.47c-.22,2.51-.47,5-.77,7.53-.37-5.42-.51-10.85-.47-16.28C84.89,322.08,85.12,321.7,85.37,321.34Zm4.46,56.27.23-.06c.26,2,.54,4,.84,5.95-.3-1.29-.64-2.57-1-3.85-.07-.67-.13-1.33-.18-2Zm13.39-73.68c-.32,1.08-.65,2.16-1,3.24a4.16,4.16,0,0,0-.48.22C102.26,306.24,102.74,305.09,103.22,303.93Zm-20-28.25c-1.26,6.55-2.23,13.16-3,19.77.16-3.87.41-7.79.79-11.71.1-.75.21-1.51.32-2.27q.94-5.62,2.08-11.22Q83.38,273,83.26,275.68ZM102.54,404.8c.15.42.32.84.47,1.25l-.88-.19C102.26,405.51,102.42,405.16,102.54,404.8ZM67.69,321.92c-.29.84-.56,1.69-.82,2.55,0-.86-.06-1.71-.07-2.57A3.32,3.32,0,0,0,67.69,321.92Zm75.13-73.6a2.3,2.3,0,0,0,.86-.2,5.09,5.09,0,0,0,1.07-.27c.16,1.1.37,2.11.61,3.11H143.9a3.48,3.48,0,0,0-1.59.63c-.21-.12-.43-.05-.66-.12C142.05,250.4,142.44,249.37,142.82,248.32Zm-3.41-116.7a20.36,20.36,0,0,0,2.28-1,2.69,2.69,0,0,0-.54,1.81v2a4.26,4.26,0,0,0-2.05-.31A3.45,3.45,0,0,0,139.41,131.62Zm-3,3.9h.13l.31,0a3.08,3.08,0,0,0-.39,1.22c0-.4,0-.8-.06-1.21Zm-22.23-2.9a3,3,0,0,0-.32,1.33c0,.11,0,.21,0,.32,0-.11,0-.21,0-.32a3,3,0,0,0-.31-1.34Zm-6-.12a3.08,3.08,0,0,0-.39,1.45,39.17,39.17,0,0,1-.58,5.76,2.55,2.55,0,0,0-.92-.84l0-.41a3.14,3.14,0,0,0-.39-1.38c-.22-1.55-.45-3.09-.74-4.63ZM78.88,405.9a3.45,3.45,0,0,0,1.54-2c.71,1.17,1.42,2.32,2.16,3.47A22.09,22.09,0,0,1,78.88,405.9Zm145.18-8.83c-1.91,3.42-4.79,5.89-7.63,8.89h-51.2a3.12,3.12,0,0,0-2.28.87,58.55,58.55,0,0,0-33.37-1.94l-4.47-.72A59.42,59.42,0,0,0,129.72,391c.49-1.21,1-2.42,1.46-3.63,27.39-15.9,64.73-16.38,90,3.23.26.34.53.68.79,1,.72,1.78,1.46,3.57,2.2,5.36C224.17,397.09,224.11,397,224.06,397.07Zm-61.45-33.2,1.45-.09c5-.32,10-.75,14.94-1.19a3.05,3.05,0,0,0-.32.92q-7.08.28-14.15.45h-.14C163.8,363.91,163.21,363.89,162.61,363.87Zm22.88,6.49h4.07a2.93,2.93,0,0,0,.64.68C188.63,370.76,187.07,370.54,185.49,370.36Zm10.72-9.4c13.48,0,26.89-.31,40.35,0-.21.14-.42.26-.62.41-3,.14-5.91.29-8.87.48a2.7,2.7,0,0,0-1.93-.84Zm21.31,7.57a2.64,2.64,0,0,0,0,.49c-.39-.14-.78-.29-1.18-.42ZM224.77,406c.79-1,1.56-1.78,2.27-2.72a23.6,23.6,0,0,1,2.09,2.72Zm5.76-37.16a0,0,0,0,0,0,0l-.29.07c-.68-.36-1.36-.71-2.07-1l2.81-.17C230.81,368.06,230.66,368.42,230.53,368.8Zm5.56,20.92c-.42-1.74-.75-3.5-1-5.27q.66.65,1.35,1.23C236.29,387,236.18,388.37,236.09,389.72Zm1.1-15.27c-.38-.44-.77-.86-1.18-1.27,0-.09,0-.18,0-.26a2.72,2.72,0,0,0,1.16.29Zm7.62-19.33c-16.36-.1-32.61-1.06-49,.06-9.86.67-19.69,1.75-29.54,2.46a266.68,266.68,0,0,1-35.19.57c-7.57-.46-15.81-1.37-22.92-4.51,1.61-13.8,2.29-27.76,6.07-41.15,3-10.81,9-19.48,14.87-28.89q4.91-7.87,9-16.16a2.71,2.71,0,0,0,3.8-1.15c.7-1.47,1.33-3,1.95-4.5,0,2.86,4.21,4.22,5.58,1.5,1.83-3.64,3.66-7.18,5.25-10.74a3.06,3.06,0,0,0,5.34.1q1.78-.17,3.57-.42a3,3,0,0,0,2.81,2c4.08-.15,8-1.53,12-1.67a2.7,2.7,0,0,0,2.55-1.67h2.63c5.91,4,11.94,5.07,18.08,5.18a3.25,3.25,0,0,0,.81.68c4.76,2.34,9.65,4.46,14.49,6.67l2.08,1.36a3,3,0,0,0,.41,1.5,183.34,183.34,0,0,0,12.78,18.55c3.64,6.75,7.21,13.54,10.93,20.24a3.26,3.26,0,0,0,0,.33c-.86,11,1.39,21.85,2.54,32.76C245.18,343.85,244.92,349.48,244.81,355.12Zm6.12-23.38c-.31-2.31-.68-4.62-1-6.93a2.87,2.87,0,0,0,2.19-2.79c0-.34,0-.68,0-1,.55,1.34.86,2.7,1.28,4.09-.54,3.09-.27,6.24-1.27,9.4v-.44A2.75,2.75,0,0,0,250.93,331.74Zm2.79,17.34a2,2,0,0,0-1.21.28c0-1.64,0-3.27,0-4.91a2.54,2.54,0,0,0,1.8,1.43C254.11,346.94,253.91,348,253.72,349.08Zm9.33-99q-3.68-2.09-7.51-3.84l2.26.55a33,33,0,0,1,5.52,2.63Zm2.54,87.29c.38-1.39.75-2.77,1.12-4.15a3.08,3.08,0,0,0,.72.61C266.81,335,266.2,336.19,265.59,337.38Zm18.83-9c0-.11,0-.22.05-.33a3.31,3.31,0,0,0,2.61-.77c0,.25,0,.5,0,.75A22.08,22.08,0,0,0,284.42,328.35Zm3.22-70-.24-2.13q1,.6,2.07,1.17A3.3,3.3,0,0,0,287.64,258.38Zm9.37,87.9a2.73,2.73,0,0,0-2.66-1.68h-.47a2.71,2.71,0,0,0,.46-1.52l0-1.27.07-.1a2.68,2.68,0,0,0,1.66,2.48,2.36,2.36,0,0,0,.24.4c.42.58.86,1.12,1.32,1.64A3.81,3.81,0,0,0,297,346.28Zm14-14.63c0-.8-.09-1.6-.15-2.39,0-.35.05-.69.08-1a2.5,2.5,0,0,0,.11.88C311,330,311,330.8,311,331.65Z"/><path class="cls-2" d="M321.07,241.39c-7.17-30.16-43.56-29.42-69.13-28.16-15.81.77-30.31-.62-45.95,1.68-3.4.5-6.81,1-10.22,1.48l-1.63.22-1.57.21-2.1.26a7.48,7.48,0,0,0-5.94-1.84c-.82.07-1.38.18-2.38.32h0c-1.18.21-2.35.47-3.53.79-.65.17-2.12.4-3,.57a9.46,9.46,0,0,0-2.86.93c-.88.21-1.76.45-2.63.72-9.8,3-7.77,17.22,2.39,17.65,11.3.47,22.81-1.73,33.94-3.35,14.57-2.12,25.27-.3,40.18-1.43,13.54-1,25.35-1.15,36.74,1.88,1.2.32,4.47.85,5.65,1.25.41.15.22,1.1.62,1.26.14,4.31.75-.41.95-.31,1.24.58,1,1.16,2.19,1.88.55.34,2.62,1.2,3.14,1.57.08.07,1.74.81,1.89.94a12.44,12.44,0,0,1,1.88,1.89c.07.07-.05-1.32,0-1.26s0,1.23,0,1.26c.39.53,1.22.06,1.57.62s1.5.36,1.48.18a33.86,33.86,0,0,1,1,3.57C306.42,257.44,323.75,252.66,321.07,241.39Z"/><path class="cls-3" d="M141.1,175.57c-1.25-2.55-5.38-2.61-7.73-2.61h-5.1l.44-.19a2.23,2.23,0,0,0,1-1,13.76,13.76,0,0,0,1.85.51,30.09,30.09,0,0,0,4.9.68c.26,0,5.77,0,4.63-1a10.72,10.72,0,0,0-5.41-2.42,46.41,46.41,0,0,0-5.5-.72v-.29c0-3.15-2.35-8.53-6.23-8.53h-15c-1.22,0-1.92.43-2.21,1.38-.27,0-.53-.14-.8-.15-3-.16-2.36,4.27-1.88,5.9,0,.18.1.34.16.53a3.4,3.4,0,0,0-2.23-.28c-2.83.66-6.87.27-6.85,4.28,0,6.75,6,9.75,11,12.65,2.35,1.34,4.22.58,4.47-2.24a7.48,7.48,0,0,1,.29-1.5,8.7,8.7,0,0,0,1.07.72,6.07,6.07,0,0,0,2.34.79c1.42,1.25,4.64,2.62,5.13-.3.05-.27.09-.55.14-.83a8.3,8.3,0,0,0,3,1.12c1.68.26,2.7-1.24,3.35-3.13a23.94,23.94,0,0,0,3,.06h7.52C137.88,179,142.3,178,141.1,175.57Z"/><path class="cls-3" d="M115,262.79c-3-6.57-9.55-11-16.56-12.54-6.3-1.37-10.51,3.42-12.92,8.68-1,2.08,10.62,7.63,11.45,5.81.38-.82.78-1.61,1.22-2.37,5.14,2.2,10.18,2.62,15.72,2.63,1.53,0,1.17-.76.43-1.51C114.77,263.47,115.25,263.35,115,262.79Z"/><path class="cls-3" d="M161.72,253.28c-2.81,1.45-5.48,3.23-8.35,4.47a1.51,1.51,0,0,0-.67.05,23.93,23.93,0,0,1-5.42,1.42c-.89.06-1.1,1-.87,2.34a5.62,5.62,0,0,0-1.24.75c-2.67,2.17,4.48,12.7,6.48,11.09,2.43-2,5.44-1.85,7.43-4.36,3.11-1.23,6-3.05,9.12-4.67C170.76,263.05,164.56,251.82,161.72,253.28Z"/><path class="cls-3" d="M145.29,272.29c-2.62-2.15-6.52-1.19-8.72,1.06a46.43,46.43,0,0,0-10.64,16.27,5,5,0,0,0,4.24,6.54,7.26,7.26,0,0,0,7.62-4.94c1.36-3.78,4.44-7.77,7.42-10.81C147.35,278.21,147.86,274.39,145.29,272.29Z"/><path class="cls-3" d="M129.75,297.27c-2.7-1.06-6.87-.49-8.91,1.72-4.26,4.6-5.71,10.59-5.81,16.72-.06,3,5.28,3.12,7.07,2.78,2.78-.54,5.48-2.17,5.53-5.21.06-3.29.9-7.86,3.21-10.36C132.72,300.89,132.52,298.35,129.75,297.27Z"/><path class="cls-3" d="M163.23,355.88a3.54,3.54,0,0,0-1-1.76c.61-.15.87-.46.9-.84a1.27,1.27,0,0,0,.06-.41c0-3.63-2.57-5.69-5.67-7.28a16.78,16.78,0,0,0-5.83-1.8c-1-.15-2.39-.28-3.11.62a1.23,1.23,0,0,0-.23.57c-1.8-.81-4.89-1.87-5.69-.32a1.47,1.47,0,0,0,.05,1.35.5.5,0,0,0-.05.13,1.92,1.92,0,0,0,0,.82H141a1.24,1.24,0,0,0-1.25.61l-.23-.07c-1-.32-2.09-.56-3.14-.79a5.38,5.38,0,0,0-2.79-.81,22.28,22.28,0,0,1-5.3-.52c-.16,0-1-.36-1.3-.44-.92-1.58-2.82-2.17-4.82-2a3.32,3.32,0,0,0,.9-2.37c0-5.19-.07-10.44,1.46-15.46,1.59-5.19-10.83-8.45-12.44-3.14-1.73,5.66-1.55,11.77-1.55,17.64,0,2.85,4,4.74,7.43,4.76-1.68,1-3.1,2.48-2.87,4.26.81,6.24,10.21,6.64,15,6.69A9.7,9.7,0,0,0,135,354c2.45.29,5.33-.19,7-1.83a3.11,3.11,0,0,0,.48-.59,12.17,12.17,0,0,0,6.24,2.54c4.19.16,7.82,2.78,12,3C161.56,357.21,163.48,357.32,163.23,355.88Z"/><path class="cls-3" d="M190.93,350.43c-.18-3.37-3.86-4.47-6.68-4.47H173.72a5.61,5.61,0,0,0-1.09-.06c-.63,0-1.27-.17-1.92-.19-2.82-.07-6.31,2.18-6.14,5.27.18,3.41,3.85,4.55,6.67,4.62,3.51.08,7,1.39,10.27,2.49,3,1,6.79.53,8.68-2.26a3.58,3.58,0,0,0,.41-3.68A3.65,3.65,0,0,0,190.93,350.43Z"/><path class="cls-3" d="M237.15,327.24a22.23,22.23,0,0,1-2.63,9.18,4,4,0,0,0,2.09,5.51c-3.79.36-7.52,1.27-11.32,1.36h-.07a6.37,6.37,0,0,0-5,1.88,2.2,2.2,0,0,0-.2.23,3.82,3.82,0,0,0-.43.6l-.13.23a5.5,5.5,0,0,0-.36.82,5.19,5.19,0,0,0-.22,2.39l-.15-.1a9.57,9.57,0,0,0-1.17-.5c-.15-.59-.87-.88-2.13-.88h-.85c-1.49-1-3-.59-4.39-.61-5.55-.09-11-1.47-16.55-1.56-.74,0-5,.1-2.63,1.58a15.21,15.21,0,0,0,6,1.9,12.72,12.72,0,0,0-2.23,1.35,3.58,3.58,0,0,0-1,1.14c-.16.12-.32.17-.47.28-1.89,1.47-1.41,2.92,1,2.92h13.55a14.71,14.71,0,0,0,8.59-2.84,2.7,2.7,0,0,0,1.11-1.36,4.94,4.94,0,0,0,1.59-.32c.06.16.13.36.2.52a6.68,6.68,0,0,0,4,3.58c4.51,1.53,8.89,3.25,13.72,3.37,2.66.06,5.33-1.06,6.24-3.76a5.08,5.08,0,0,0,.22-2.5,4.85,4.85,0,0,0,1.56-3.53,6.67,6.67,0,0,0-4.38-6,7.78,7.78,0,0,0,2.83-1.49c2.6-.71,5.66-3,5.66-5.75v-9C249.15,318.33,237.32,321.14,237.15,327.24Z"/><path class="cls-3" d="M243.16,312.61c-.38-2.86-1.14-5.65-1.23-8.55a5.11,5.11,0,0,0-2.33-4.17,8.27,8.27,0,0,0-6.59-3.83c.67-1,.14-2.92-.59-4-.61-.94-1.16-1.9-1.7-2.87,2.59-.95.35-4.73-.73-5.92-3.62-4-5.82-9.75-12.41-9.75-2,0-2.32,1.39-2,2.81a5,5,0,0,0,.81,3.51c2.86,4.42,4.8,9.42,8.45,13.3,1.45,1.54,3.34,3.22,5.52,3.63a5.64,5.64,0,0,0-1.21.91c-2.87,2.82-.92,6.8,0,10.09.43,1.54.85,3.08,1.26,4.63.07.26.29,1.17.38,1.53a4.26,4.26,0,0,1,.06.5c.12,3.67,3.51,5.6,6.84,5.48,2.94-.08,5.49-1.77,5.49-5.27V314A5.48,5.48,0,0,0,243.16,312.61Z"/><path class="cls-3" d="M215.73,270.75c-1.17-4.24-3.09-8.44-6.94-10.88-2.25-1.44-5-1.42-7.45-2.2h0c-.63-.33-1.26-.64-1.89-1-2.27-1.13-4.24-.55-4.16,2.34.08,2.73,1.89,6.63,4.45,7.91l2.62,1.3a5.78,5.78,0,0,0,1.35.7,30.27,30.27,0,0,1,7,4.65c1,.92,2.7,2.13,4.1,1.34S216.08,272,215.73,270.75Z"/><path class="cls-3" d="M191,264.17a1.12,1.12,0,0,0-.41-.62,19.94,19.94,0,0,0-1.79-1.77l.76-.43c.37-.23-4.34-4-4.59-4.21-1.24-1-3.66-3.18-5.41-3.18H172c-.23,0,1.32,1.36,1.17,1.21.4.4.82.61,1.24,1-.12,0-.24-.15-.36-.1s-.28-.1-.42-.1h-3.14c-.15,0,.44.87.84,1.33-.28.11-.56.3-.84.43s4.33,4.38,4.59,4.59c.69.56,4.33,4,5.41,3.53a14.84,14.84,0,0,1,3.94-1.17,11.66,11.66,0,0,1,2.69.9c1.45.69.65-.29-.19-1.15,1.35-.07,2.72-.06,4.09-.06C191.07,264.36,191,264.28,191,264.17Z"/><path class="cls-3" d="M220,400.11a3.42,3.42,0,0,0-.45-1c-.09-1-.42-1.95-.49-2.92a1.78,1.78,0,0,0-.45-1.09,1.16,1.16,0,0,0-.63-1.16c0-.55.09-1.11.09-1.69a1.46,1.46,0,0,0-.71-1.35v0a1.78,1.78,0,0,0-1.9-.78.21.21,0,0,0,0-.11c-.06-.21-.12-.41-.18-.59.17-.17.25-.31.18-.39q-.45-.6-.93-1.17l0,0c-7-8.23-17.74-10.63-28.22-11.12a53.38,53.38,0,0,0-6.32-.57,30.06,30.06,0,0,0-4-1,3.41,3.41,0,0,0-1.64.5l-1.54.06c-3.43-.37-7.58.56-10.9,1.07-1,.11-1.93.22-2.89.31a4.32,4.32,0,0,0-1.11.42,2.09,2.09,0,0,0-2,.13.34.34,0,0,0,0,.1,4.1,4.1,0,0,0,.26.43,39.82,39.82,0,0,0-4.86,1A25,25,0,0,0,140.61,382l0,.05c.18.19.84,1,1.52,1.72l-.68.43c-.38.09-.74.19-1.09.31a.39.39,0,0,0-.3-.05c-.56.22-1.07.44-1.54.68-6.19,2.13-8.27,8.56-9.28,14.57-.12.71,2,2,2.84,2.59l.32.29c.14-.43.06-.87.19-1.31a1.25,1.25,0,0,1,.51.82v-3.73c1-2.27,1.68-4.22,4.08-5.53,3-1.63,6.59-1.8,9.29-4,0,0-.21-.49-.7-1A103.51,103.51,0,0,1,156,382.92c-.06-.06-.1-.12-.17-.18l-.26-.32c1.29-.54,2.63-.94,3.92-1.47a4,4,0,0,0-.35-.41.28.28,0,0,1,.19-.35l.13,0a5.89,5.89,0,0,1,1.9.29c-.14,0-.35-.27-.61-.6,3.24-.79,6.51-1.45,9.81-2a8.68,8.68,0,0,1,1.09.34c-.31.25-.49.51-.43.73a32,32,0,0,0,2,5.23,26,26,0,0,0,1,3.13c.25.69,3.92-.88,3.9-1.76,0-.25,0-.5,0-.74a.43.43,0,0,0,0-.24l-.07-.27a19.58,19.58,0,0,0-.69-4,4.19,4.19,0,0,0,1-.61c2.33.74,4.71,1.29,7.09,1.85-.26.21-.37.37-.24.42,7.32,2.94,14.61,6,22.13,8.36a1,1,0,0,0,.42,0c.45.3.92.58,1.39.86l.52.5c.31.3,1.1.1,1.9-.25,0,.08,0,.16.07.25.09.28,1,.12,1.87-.22a1.35,1.35,0,0,0-.06.41c0,1.37.11,2.76.12,4.14a11.38,11.38,0,0,1-.35,1.27c-.73.89-1.7,1.64-2.39,2.57-1.36,1.85,1.22,3,2.83,2.17a2.26,2.26,0,0,0,2.38.08c-.39.24.13.1.44.14s.58.09.88.11C218.59,402.47,220.34,401.72,220,400.11Z"/><path class="cls-3" d="M203.67,401.34a3.06,3.06,0,0,0-2.21-1.38H200c-.87,0,.1,1.42.25,1.62a3,3,0,0,0,2.2,1.38h1.48C204.78,403,203.81,401.54,203.67,401.34Z"/><path class="cls-3" d="M186,397a1.85,1.85,0,0,0-1.87,1.76v3c0,1.07,1.29,1.48,2.12,1.41a1.84,1.84,0,0,0,1.88-1.75v-3C188.15,397.39,186.85,397,186,397Z"/><path class="cls-4" d="M203.2,316.28a11.5,11.5,0,0,0,.13-1.91v-.09a6.38,6.38,0,0,0-5.27-6.48l-.21,0c-.14-.15-.26-.3-.41-.45a1.89,1.89,0,0,0-2-.51,2.23,2.23,0,0,0-1-.48c0-.35,0-.7,0-1.06a2.76,2.76,0,0,0-.06-.53c0-.15,0-.3.06-.46a1.85,1.85,0,0,0-2.37-1.9,14.71,14.71,0,0,0-1.46.49,2.16,2.16,0,0,0-.46-.05c-6.39,0-12.78-.46-19.18-.5-1,0-2.33.78-2.33,1.9a7.16,7.16,0,0,0,.66,2.77c-13.13,3.67-7,18.79-.61,26.6.75,5.62,6.42,6.39,11.79,5.82a2.28,2.28,0,0,0,.8.22,7.54,7.54,0,0,0,1.5,0,33.71,33.71,0,0,0,5.93-.54,2,2,0,0,0,1.53-1.14,2.89,2.89,0,0,0,2.82-.74,52.62,52.62,0,0,0,6.73-11.83C202.11,322.5,203.59,319.28,203.2,316.28Z"/><path class="cls-5" d="M344,416.86c-.53-8.21-3-16.32-6.18-24a.33.33,0,0,0,0-.17c-.43-1.71-1-3.38-1.53-5,.39-.33.64-.66.55-.87-1.65-3.88-3.89-7.42-5.83-11.14-.35-.72-.7-1.43-1.06-2.14-.14-.29-1,0-1.89.44a33.46,33.46,0,0,0-13.24-12.18c-8.08-5.37-17.84-8.13-27.4-6.26a28.42,28.42,0,0,0-12.06,5.8c-6.82,2.58-11.47,9.45-14.82,16.25a41.47,41.47,0,0,0-3.79,7c-6,9.89-11.36,21.91-9.93,33.37.05.38.05.64.29.81,0,.26,0,.46,0,.63v.2a2.23,2.23,0,0,0,.35.73c-.57.47,2,2.69,2.91,2.69h4.43a1.35,1.35,0,0,0,.67-.27c3.23-.13,6.47-.42,9.69-.68a41.39,41.39,0,0,0,16.31-.63c6.83,1.23,13.84.62,20.83-.13a81.4,81.4,0,0,0,11-1l.47,0a.7.7,0,0,0,.39-.11l1.44-.24a22.33,22.33,0,0,0,9.4.94,107.33,107.33,0,0,0,11.19-.43,17.76,17.76,0,0,0,2.78.33c.53,0,1.14-.16.85-.83l-.14-.27c.25,0,.5.09.76.12a1.54,1.54,0,0,0,.7-.11c.7.19,1.32.2,1.21-.42a2.93,2.93,0,0,0,0-.29A2.09,2.09,0,0,0,344,416.86Zm-52-27.73-.95-.07.2-.26,1.08.09C292.21,389,292.1,389.05,292,389.13Zm.85,16.72c.6-.44,1.18-.91,1.75-1.38l-.2.27c-.8.84-1.63,1.63-2.47,2.4Zm-21.58,7.87c.24-.63.47-1.27.68-1.91.12.65.25,1.29.39,1.93ZM288,358.49l0,0,.46.22-.21.13-1.16-.13C287.42,358.65,287.71,358.56,288,358.49Zm-1.95,16.65a5,5,0,0,1,1.2-.59c3.61-.75,7.46-.59,11.11-.59h0a11.84,11.84,0,0,1,2.85.84c0,.33,0,.75-.05,1.12,0,.22.38.23.89.06.13,1.3.24,2.61.32,3.91a5.55,5.55,0,0,1-2,.87,22.22,22.22,0,0,1-7.63,0,23.89,23.89,0,0,1-6.09-1.65C286.12,378.9,286,376.88,286.06,375.14Z"/><path class="cls-5" d="M161.44,386.79c-.09-.33-.65-.69-1.33-1-.07-.75-.12-1.5-.14-2.26,0-1.29-4.07-2.11-4.09-1.24a13.82,13.82,0,0,1-.09,1.63h-.63c-.14,0-.76.07-.76.34s0,.47,0,.7c-.86-.18-1.7-.14-2,.28s-.47.76-.76,1.13c-.34,0-.53.1-.53.34v.5c0,.1-.06.19,0,.29a3.5,3.5,0,0,0-1.21-.09c-2.84.79-5.18,2.5-7.66,4.05a.23.23,0,0,0-.12.31s0,.05,0,.08c0,.22.07.44.1.65a.35.35,0,0,0-.1.34,15.5,15.5,0,0,0,.9,2.75l.57,1.68a1.09,1.09,0,0,0,.27.37c.08.2.15.41.23.61s.61.65,1.22.9c-.37.38-.74.77-1.1,1.16-1,1,2.9,1.9,3.56,1.71a27.5,27.5,0,0,0,10.1-5.52c.43-.35-.41-1-1.43-1.4a31,31,0,0,1,5.11-2.42.51.51,0,0,0,.39-.29A22.7,22.7,0,0,0,161.44,386.79Z"/><path class="cls-5" d="M174.85,391a81.26,81.26,0,0,0-3.27-10c-.06-.45-.12-.9-.17-1.36-.13-1.06-1-2.47-2.23-2.53l-1.72-.1a1.72,1.72,0,0,0-1.13-.37,17.23,17.23,0,0,0-2,.32l-1,.17a1,1,0,0,0-.4.17l-.73.22c-.88-.09-1.16.92-1,1.75a.13.13,0,0,0,0,.06,2.39,2.39,0,0,0,.41.88,34.84,34.84,0,0,0,2.73,15.84,3.4,3.4,0,0,0,2.19,1.58c0,.13,0,.26.08.39.21,1.12,2.85,3.3,3.24,1.24.07-.38.13-.76.2-1.15a1,1,0,0,0,1.14-.45l.08-.11a1.15,1.15,0,0,0,.42-.38c.48-.73.93-1.45,1.36-2.19C174.05,393.57,174.93,392,174.85,391Z"/><path class="cls-5" d="M207.8,389.35c-5.58-1.63-10.6-4.57-15.76-7.17a1.57,1.57,0,0,0-2.46,1.13c-.49-.65-1-1-1.25-.66-.12.19-.22.39-.34.58-.46-.6-.93-.94-1.13-.58l-.32.6c-.58-1.1-1.43-2.18-1.65-1.58s-.45,1.33-.67,2h0a1,1,0,0,0-.32-.2l0-.05a4.7,4.7,0,0,0-.35-.43.69.69,0,0,0,.11-.13,1.65,1.65,0,0,0,.26-1.16,3.1,3.1,0,0,0-.9-1.65A21.09,21.09,0,0,0,180,377.1c-.76-.54-1.9-.92-2.54,0a1.59,1.59,0,0,0-.23,1.28s-.36.06-.39.1a1.7,1.7,0,0,0-1.72,1.47v4.43c0,1.81,2.89,3.24,3.74,1.91.08.06.32.11.4.16-.48.46-.87.93-1.3,1.43a15.29,15.29,0,0,0-4,5.56c-.34.74,1.08,4.36,2,3.7a24.64,24.64,0,0,1,3.81-2.13c.8.9,1.51,1.89,2.32,2.78.51.56.73.46.79.09.45.62.92,1,1.12.57l0,0c.23.18.41.23.47,0,.45-1.31,1-2.58,1.51-3.84a3.06,3.06,0,0,0,1.58.72c-.12.5-.24,1-.37,1.5-.37,1.41,3.8,2.2,4.22.69.27-1,.56-2.05.86-3.08,2,0,2.87-1.74,3.15-3.71,1.3.21,2.81,0,2.36-.88-.13-.26-.27-.49-.4-.72.49.24,1,.49,1.47.72a2.44,2.44,0,0,0,.29,1.44l.05.09a2.24,2.24,0,0,0,.44.89l0,.05a59,59,0,0,1,2.65,7.31c.58,1.77,3.31,2.18,3.62.06a18.72,18.72,0,0,0-.26-6.51c.38,0,.75.1,1.13.12a1.74,1.74,0,0,0,.62,0C210,393.83,210,390,207.8,389.35Z"/><path class="cls-6" d="M140.25,394.1c-1.05-.9-3.65-.5-3.65,1.17,0,.45,0,.91,0,1.37a.44.44,0,0,0,0,.1c0,.15,0,.29,0,.44s0,0,0,.05,0,.18,0,.28,0,.27,0,.41,0,.33,0,.5.16.26.17.39c0,.37.31.74.31,1.09h0s-.13,0-.12.08a10,10,0,0,0,.71,2.59,1.66,1.66,0,0,0,.7.8c.15.19.28.38.45.57.93,1,3.4,1.2,3.89-.42A8.43,8.43,0,0,0,140.25,394.1Z"/><path class="cls-6" d="M162.84,400.17a30.83,30.83,0,0,0-6.34-1.66c-.66-.15-3.26,0-3.23,1.11-.51.22-1,.59-.92,1.13,0,1,1.45,1.2,2.19,1.2h1c1,.39,2.13.5,3.32.84a3.17,3.17,0,0,0,2.63-.34,2.64,2.64,0,0,0,1.75-.74A1,1,0,0,0,162.84,400.17Z"/><path class="cls-6" d="M181.6,399.92a.19.19,0,0,1,0-.08c.1-.69-2.53-1.25-3-1.35s-.87-.19-1.35-.26c-1.06-.5-3-1.26-3.22-.69-.1.29-.19.57-.29.85-.12,0-.2.05-.2.13a1.35,1.35,0,0,0,0,.29,1.78,1.78,0,0,0-.47,2.12,4.87,4.87,0,0,0-.06.55c0,.24.29.46.68.65.11.16.23.32.34.46a4.81,4.81,0,0,0,2.41,1.1c.07,0,1.92.37,1.59-.05l-.27-.35a5.29,5.29,0,0,0,1.58.06,2,2,0,0,0,1.06.06l1,.28c.14,0,1.56.44,1.62.09A3.7,3.7,0,0,0,181.6,399.92Z"/><path class="cls-6" d="M172.67,404.21c-.16-.65-.28-1.3-.4-2a1.19,1.19,0,0,0,.4-1c-.09-.55-.64-.88-.86-1.38,0-.19-.08-.39-.13-.59-.29-1.22-4,.3-3.94,1.48a3.17,3.17,0,0,0,.14.72c0,.13.05.26.08.39a5.87,5.87,0,0,0-.52.34,1.55,1.55,0,0,0-.68,1,.47.47,0,0,0,.3.54l0,0c.16.27.32.55.49.82a4.39,4.39,0,0,0,1.36,1.54C170,406.78,173,405.65,172.67,404.21Z"/><path class="cls-6" d="M199.86,395a2.16,2.16,0,0,0-.24-.87c-.09-.57-.2-1.11-.31-1.57-.17-.72-2.16-3.48-2.94-1.86-.19.38-.35.76-.5,1.14a7.39,7.39,0,0,0-4.1,3.61c-.79,1.11-1.84,2.88-1.49,4,.28.9,1.15,2.47,2.35,2.23a3.24,3.24,0,0,0,.41-.13,4.2,4.2,0,0,0,5.43-.15c1.19-1.23,1.46-3.27,1.36-5.23C199.85,395.81,199.86,395.43,199.86,395Z"/><path class="cls-6" d="M212.2,391.11a8.63,8.63,0,0,0-3.54,1l-.4,0c-.66,0-1.66.21-1.68,1.08a1.23,1.23,0,0,1,0,.19l-.09.07c-.67.44-.48,2.19-.55,2.9a6.7,6.7,0,0,0,.33,3.11,2.17,2.17,0,0,0,1,.95l0,0a2.73,2.73,0,0,0,2.67,1.42,1.28,1.28,0,0,0,1.1-1.73,8.49,8.49,0,0,0,1-2.8l.38-.49c.86-1.07,2.63-2,2.63-3.43A2.54,2.54,0,0,0,212.2,391.11Z"/><path class="cls-6" d="M133,336.36a23.1,23.1,0,0,0,2.51-1.2,13.45,13.45,0,0,1,2.81-.37,2,2,0,0,0,2.1-1.58c0-.35.07-.7.1-1a1.37,1.37,0,0,0,.32-.51c.2-.58.39-1.17.57-1.75l0,0,.2-.31a1.34,1.34,0,0,0,.63-.7,1.48,1.48,0,0,0,.62-1.06c0-.28.06-.55.09-.83a31,31,0,0,0,1.83-10.67c4.13-6.6,7.84-13.75,9.9-21.06,9.58-6.58,18.49-14,31.09-12.26a30.82,30.82,0,0,1,12.94,5.19c3,3.4,6.15,6.71,8.83,10.4a31.19,31.19,0,0,1,3.8,7.13c1.14,8.57,3.8,16.89,6.52,25.07.31.93,1.76,1.27,2.86,1a1.29,1.29,0,0,0,.17.15c2.08,1.56,4.18,3.06,6.4,4.43a2.46,2.46,0,0,0,1.54.28,2.36,2.36,0,0,0,.88.1c.56,1.21,2.84,1.32,3.76.43.87-.18,1.55-.68,1.38-1.49l-.09-.4h0c-.56-2.61-1.12-5.21-1.69-7.82a56.06,56.06,0,0,0-2.74-12.35,1.48,1.48,0,0,0-.42-.61c-1.14-9.14-3.19-18-8.66-25.82,0,0-.06-.06-.08-.1A1.39,1.39,0,0,0,221,288l-.23-.35h0c-.71-1.12-1.42-2.22-2.16-3.26a1.3,1.3,0,0,0-.3-1.16,47.81,47.81,0,0,0-9.69-10.14,2.71,2.71,0,0,0-3,.17,26.78,26.78,0,0,0-7.41-5.27,32.79,32.79,0,0,0-17.42-3.24,45.21,45.21,0,0,0-6.61,1.22l-.36.05a38,38,0,0,0-7.64,2.1c-1,.25-1.95.49-2.94.69s-1.4.68-1.44,1.19c-2.85,1.35-5.63,2.88-8.41,4.39-1.09.6-1.17,1.33-.74,1.9-6,3.88-11.1,9.54-15.26,15.39a1.07,1.07,0,0,0,0,1.57c-5,3.89-6.79,10.46-8,16.52a120.87,120.87,0,0,0-1.59,12.85c-1.39,3.17-1.59,6.76-1.6,10.31q-.5,2.18-.9,4.38c-.31,1.79,2,2.24,3.33,1.55a5.07,5.07,0,0,0,1.91,1.29c.24.05.48-.07.72,0a4.6,4.6,0,0,0,2.21.8h1.31c0,1,2,2,2.67,2.11a121.85,121.85,0,0,0,13.24.6c.9,0,.92-.3.56-.72l6.39-.3,2.3.05s.1.14.13.14c7.5,1.43,15,1.12,22.59,1.12h8.56c1.08,0,2.16-.06,3.25-.1s.86-.51.23-1c3.17-.24,6.33-.87,9.49-.87h5c.53,0,.74-.21.77-.39,3.33.19,6.66.22,10,.25,1.33,0,2.66,0,4,0,1.15.19,2.32.32,3.5.45.87.1,1.21-.18,1.17-.56a2,2,0,0,0,1.05,0,2,2,0,0,0,1-.09,2.64,2.64,0,0,0,.49.08c1.11.32,2.53.43,2.54,0,.69-.32.09-1.35-1.22-1.84l-1.47-.56a32,32,0,0,0-11.37-6c-1.24-.34-1.81.1-1.57.69l-.53-.08c1.55-.38-2.06-2.22-2.79-2.22a42.07,42.07,0,0,0-9.89,1,25.57,25.57,0,0,0-6.6,1h-.73c-.79,0-.89.27-.66.62-.26.18-.06.51.33.86h-.16c-1.81,0,.08,1.46,1.47,2.05-.82,0-1.64-.07-2.46-.08-1,0-.88.47-.34,1h-1.13c-.71,0-.85.23-.68.53l-1.29,0c-1,0-.85.47-.23,1-.71.08-.6.47-.13.9-2.63.2-5.26.38-7.89.6h-1.32c-2.4-.25-4.8-.55-7.2-.77l-3.23-.81a2.26,2.26,0,0,0-.68-.31c-1.85-.45-3.64-1.1-5.45-1.67a20,20,0,0,0,2.08-.77c1.24-.54-2.24-2-2.55-2.09a99.36,99.36,0,0,0-12.26-1.5c-.66,0-.83.16-.74.42-2.05-.21-4.09-.38-6.15-.42-.75,0-.89.22-.73.55l-.29,0c-1.7-.19-1.29.8-.45,1.47l-.5,0c-.79,0-.89.25-.66.59-1.25,0-2.5-.08-3.76-.09-.75,0-.88.23-.71.55-.1,0-.21,0-.31,0-1.43-.15-1.37.44-.82,1-1.85-.05-3.69-.08-5.54-.08-1.14,0-.9.54-.31,1.08l-1.7-.05C131.77,337.53,132.38,337,133,336.36ZM174.05,280a13.22,13.22,0,0,1,3.89-.38l.4.12a30.77,30.77,0,0,0-5.75,1.31Zm-26.74,23.19,1.62-3.65c-.59,1.53-1.24,3-1.94,4.55Z"/><path class="cls-7" d="M214.16,324.34c-.23-1-.47-2-.71-2.95-.56-4-1.3-7.9-2.25-11.81a2.19,2.19,0,0,0-1-1.27,1.43,1.43,0,0,0-.08-1.17,58.08,58.08,0,0,0-5.89-9.88A39,39,0,0,0,185.39,283a2.31,2.31,0,0,0-2.61.62,23.57,23.57,0,0,0-3.42-.35,1.6,1.6,0,0,0-1.73,1c-11.07-1.54-20.78,8.35-28.22,15.28-1.33,1.24-.21,2.49,1.16,2.87a35.56,35.56,0,0,0-2.24,4.34,39.6,39.6,0,0,0-2.34,5.94,1.57,1.57,0,0,0,1.16,2c0,.2-.1.39-.14.59-1.95,4.5-1.56,9.78-1.53,14.6,0,1.78,2.45,2.22,3.62,1.22.24,0,.46,0,.69-.06,4.22,1.44,8.71,1.63,13.19,2,1.27.12,3.1-.73,2.35-2.33-2.62-5.62-9-17-1.42-21.43,3.48-2,4.4-5.13,4.07-8.57.37.07.74.11,1.11.17a27.49,27.49,0,0,0,14.2,1,34.77,34.77,0,0,0,6.33.75,1.73,1.73,0,0,0,1.28-.45,13.93,13.93,0,0,0,3.76-.74,1.88,1.88,0,0,0,.39.81c.15.19.28.38.41.57a1.51,1.51,0,0,0,.45,2.26l2,1.47a2.42,2.42,0,0,0,.63.34c2.62,1.7,5.13,3.15,6.48,5.56a39.13,39.13,0,0,1-.31,5,1.38,1.38,0,0,0-.47.63c-.23.56-.44,1.12-.65,1.68a1.38,1.38,0,0,0-.53.39,24.81,24.81,0,0,0-3.25,5.8,1.8,1.8,0,0,0-.17,1.06c-.41.64-.84,1.27-1.31,1.89-1.16,1.55,1,2.85,2.62,2.58a2.83,2.83,0,0,0,2,.56,61.36,61.36,0,0,1,8.32-.91,1.91,1.91,0,0,0,1.89-1.42c0-.23,0-.47.08-.7l.19-.21a1.59,1.59,0,0,0,.74-1.55c-.06-.61-.14-1.21-.21-1.82A1.33,1.33,0,0,0,214.16,324.34ZM183.49,292a18,18,0,0,0-1.92-.49,1.62,1.62,0,0,0,0-.58,12.71,12.71,0,0,1,2.14.57A1.52,1.52,0,0,0,183.49,292Zm-10.14-3.66c-.67,0-1.34,0-2,.11a15,15,0,0,1,1.85-.42A1.23,1.23,0,0,0,173.35,288.33Z"/><path class="cls-8" d="M167,64.93c-.23-.8-4.13-1.46-4.15-.74-.13,7.33-3.12,14.09-8.19,17.84l-.31.1c-1.12-.12-2.19-.28-3.12-.38-8.63-.93-19-1.87-23,7.63-.27.62,3.76,1.89,4.18.91a11.63,11.63,0,0,1,4.73-5.66A3.33,3.33,0,0,0,138,85c6.44,2,13.26,2.54,19.37-.74.37-.19.72-.41,1.06-.63,3,.12,7-.07,8.92-2.69C170.62,76.59,168.32,69.6,167,64.93ZM150.79,83a65.44,65.44,0,0,1-12.07.85C142.26,82.43,146.55,82.6,150.79,83Zm10.32-1.41-.08,0a18.64,18.64,0,0,0,3.74-5.63,7.38,7.38,0,0,1-2.06,4.61A5.28,5.28,0,0,1,161.11,81.59Z"/><path class="cls-8" d="M227.45,53.69a38.57,38.57,0,0,1-19.9,10.69,17,17,0,0,1-13.13-2.74,4,4,0,0,1-.44-.4,16.25,16.25,0,0,0-2.83-5.69c0-.11-.09-.21-.13-.31-3-6.41-8.76-17.35-16.06-8.89-.42.49.44,1.68,1.38,2.44a11.48,11.48,0,0,0-5.57,2.8c-.76.68,2.2,3.77,3,3,3.53-3.16,7.27-3.71,11.6-1.83a9.65,9.65,0,0,1,3.19,2.09,44.15,44.15,0,0,0,2.26,4.51c.16.59.31,1.21.46,1.87.9,3.9,4,6.57,7.49,8.18,10.84,5,24.89-4.85,31.68-12.72C231.2,55.88,228.21,53,227.45,53.69Zm-48.77-5.1c1.33-1.45,3.16-3,5.13-2.24,1.46.6,2.56,3.46,3.3,5.25A15.11,15.11,0,0,0,178.68,48.59Zm16.15,15.34a18.06,18.06,0,0,0,8,3.59C199.46,67.72,196.31,66.87,194.83,63.93Z"/><path class="cls-8" d="M169.65,19.37c-4.06,5.51-8.22,6.67-14.6,7.82a27.92,27.92,0,0,0-6.28,2,1.35,1.35,0,0,1-.18,0l-1.32-.08h-.09c-5.93-.24-11.62,1.18-13.47,7.59-1.93,6.68.61,13.9-1.17,20.67-2,7.42-9.51,9.65-16.08,11.63-1.38.28-2.77.54-4.18.77-5.82.94-8.72,3.92-9.9,8.11a24.54,24.54,0,0,0-3.54,7.54c-.53,1.85,1.81,2.68,3.18,1.9.6,2.16,4.39,1.53,4.15-.79a38.39,38.39,0,0,1-.34-5.43c3.17-4.21,7.4-6.56,12.37-8.35l.44-.06c3.86-.69,7.59-1.91,11.45-2.62,3.24-.59,6.18-1.56,8.43-4.07,3.25-3.61,3.77-8.39,3.27-13a32.75,32.75,0,0,0,.07-10c-.51-3.46-.47-4.73,2.59-6.87,4.85-3.39,9.66-4.75,15.36-5.76s9.65-4,13-8.54A2,2,0,1,0,169.65,19.37Zm-28.8,14.51A8.88,8.88,0,0,0,139,35.75a3.71,3.71,0,0,1,2.76-2.52C141.45,33.44,141.14,33.66,140.85,33.88Z"/><path class="cls-2" d="M278,247.81a5.3,5.3,0,0,0-2.39-1,.88.88,0,0,0-.89.31h-.31a7.28,7.28,0,0,0-3.25-.32.73.73,0,0,0-.56.32h0c-.71-.12-1,.34-1,.87a5.62,5.62,0,0,0-.84-.24.75.75,0,0,0-.87.3c-.37-.93-.73-1.86-1.09-2.8a13.65,13.65,0,0,0-.58-1.51,2.75,2.75,0,0,0-1.25-1.2c-.72-.63-1.55-.53-1.87,0,0,0,0,.42-.06.42h-.31c-.39,0-.61,0-.69.31a6.18,6.18,0,0,0,.08,3.75,7.66,7.66,0,0,0,.29,1.21,22.66,22.66,0,0,1-3.45,1.46c-2.39.71-4.78-.52-7.21.65-1.87.9-.78,3.56,0,4.71,1.31,1.8,3.74,2.29,5.89,2.42a5.7,5.7,0,0,0,.47.92,9,9,0,0,0-2.35,1.74c-1.05,1,.19,3.11,1.34,3.52,2.16.78,3.66.65,4.77-1.2a3.36,3.36,0,0,1,2.34.33c0,1.59.46,3.13,2.31,3.65a2.79,2.79,0,0,0,2.21-.08l.18,0,.12.07a1,1,0,0,0,1.47-.61,14.53,14.53,0,0,0,.3-1.7,38.45,38.45,0,0,0,2.21-3.85,4.35,4.35,0,0,0,3,1,3,3,0,0,0,1.33-.29c.77.34,1.81.19,1.62-.95a18.62,18.62,0,0,0-3.81-7.38,2.64,2.64,0,0,0,.4-.12,5.55,5.55,0,0,0,2.71-.57.82.82,0,0,0,.51-.82C279.92,250.86,278.73,248.27,278,247.81Zm-16.14,10.9a3.47,3.47,0,0,0-.5-.54l-.72-2.94a2.58,2.58,0,0,0-.22-1.86,7.19,7.19,0,0,0,1.38-.28c1.78-.53,3.23-2.53,5.35-1.69a1,1,0,0,0,1.38-.4,5.11,5.11,0,0,0,1.91,1.76,9.41,9.41,0,0,0,.42,3c-.19.48-.52,1-1,2-.25.47-.51.94-.77,1.4a1,1,0,0,0-.87-.08,1.1,1.1,0,0,0-.51,0,3,3,0,0,0-2.09,1.53A7,7,0,0,0,261.84,258.71Z"/><path class="cls-2" d="M301.15,259a1.81,1.81,0,0,0-.63-1.14c0-.14,0-.52-.08-.66a2.79,2.79,0,0,0-2.28-2.19h-.63a2.59,2.59,0,0,0-1.2.58c-.61-.4-1.19-.74-1.8-1.22a3.79,3.79,0,0,0-.34-.2,1.14,1.14,0,0,0-.09-.26c-.23-1.43-2.46-2.7-3.55-1.55-.2.22-.39.45-.57.67a3.59,3.59,0,0,0-1.83,2.11v.23c-1,.57-.71,1.15-1.07,1.74h0a1.93,1.93,0,0,0-.45-.1h-.37a.58.58,0,0,0-.61.46,4.25,4.25,0,0,0-.52.87,1.44,1.44,0,0,0-.25.18c-.69.58-.24,1.84-.41,2.09-.72,1,1.19,2.41,1.91,2.75l.07,0a1.84,1.84,0,0,0-1.72,1.34,1.54,1.54,0,0,0-.05.43.42.42,0,0,0-.29.38c0,2,2.88,4.46,5.12,4.26a2.22,2.22,0,0,0,1.5-.47c.83-.67,1.59-2.66,2.79-1.87a2.22,2.22,0,0,0,.41.23c.62.49,1.34.79,1.83.48a4.27,4.27,0,0,0,2.24-3.56c.1-1.43-3.43-3.62-3.53-2.21a5.65,5.65,0,0,1-.14.87,4.56,4.56,0,0,0-1.7-.4c-.76,0-.72.66-.54,1.18,0,.07.05.14.07.2a3,3,0,0,0-2-.14l0,0a.66.66,0,0,0,.05-.15,5.6,5.6,0,0,0-1-3.4c0-.2.05-.44.06-.65a1.55,1.55,0,0,0,1.35-.7c.2-.3.4-.59.61-.87a1.65,1.65,0,0,0,1-.36,1.89,1.89,0,0,0,.47-.64l.7.55a17.08,17.08,0,0,0,1.73,1.13,6.5,6.5,0,0,0,2.57,2.74c1,.6,3.1.4,2.81-1.21,0-.07,0-.14,0-.21a1.52,1.52,0,0,0,.4-1Z"/><path class="cls-2" d="M284.84,281.66c1.86.4,1.38-2.27,1.23-3.24-.13-.77-1.18-3.48-2.23-3.32a5.41,5.41,0,0,0-.95.22,1.38,1.38,0,0,0-.4-.1c-1.38-.08-2.06.49-2.3,1.3a6.33,6.33,0,0,0-2.47-1.42c-.21-.07-.27.14-.26.31-.08,0-.16-.05-.21,0a5.52,5.52,0,0,1-.77.69,9.66,9.66,0,0,0-.15-1.14c-.12-.67-1.24-3.61-2.23-3.32a3.19,3.19,0,0,0-1.19.62c-.08,0-.14,0-.15.14a2.68,2.68,0,0,0-.52.77c-.4.17-.41.83-.25,1.62a8.9,8.9,0,0,0,.67,2.71,3.61,3.61,0,0,0,.15.35c-2.5.23-6.67,1.31-6.41,3.56a5.44,5.44,0,0,0,1.58,3c.95.85,1.83.45,3,.07a.58.58,0,0,0,.17-.39V284l.19,0a3.28,3.28,0,0,1,0,.7c-.08,1.33-.71,2.26-.44,3.64.11.56,1.34,3.75,2.22,3.32a6.51,6.51,0,0,0,2.43-1.93,11.53,11.53,0,0,1,3.22-1.52c.1,0,.11-.22.06-.48.52.88,1.19,1.62,1.5,1.42a10.75,10.75,0,0,1,1.27-.69.65.65,0,0,0,.3.06c.18,0,.34,0,.5-.06a2.49,2.49,0,0,0,.91.38c.28.05.25-.2.25-.39a2.26,2.26,0,0,0,0-.26c.27-.09.54-.19.81-.31a7.79,7.79,0,0,1,.83,0c.56,0-.51-2.77-1.45-3.53a1.59,1.59,0,0,0-.49-.44,3.6,3.6,0,0,0,0-.36h.18C284.19,283.4,284.63,282.64,284.84,281.66Zm-6.74,4.28c-.46-.84-1-1.55-1.48-1.42a11.86,11.86,0,0,0-1.12.4c-.33-.41-.66-.7-.92-.72a5.44,5.44,0,0,0-1.55.08,5.32,5.32,0,0,1-.15-.84,5.41,5.41,0,0,0-.49-1.43,15.18,15.18,0,0,1,3.57-.46,11.93,11.93,0,0,1,3.41.56c.06.47.14.92.24,1.37a9.76,9.76,0,0,1-1.42,2A.63.63,0,0,0,278.1,285.94Z"/><path class="cls-5" d="M78.27,106.34c-.23,9.52-6.83,28.31,7.07,30.95,5.8,1.1,12.24.43,18.09.25,9.23-.27,18.61-1.88,27.82-1.17,7,.54,22,3.35,25.8-5,3.11-6.78,2.78-22-3.4-27.15-.59-.49-2.4.29-1.78.8,5.92,4.9,5.41,17.25,4,23.94-2.17,10.68-20.25,6.2-28,5.89-6.07-.25-12.39.85-18.45,1.18-6.7.37-13.45.58-20.16.32-16.11-.61-9.32-19.76-9.07-30.25,0-.9-1.93-.54-1.94.2Z"/><path class="cls-5" d="M82.78,106.67c23.2,0,46.37-1.54,69.57-1.58.57,0,2.1-.86.81-.86-23.2,0-46.36,1.54-69.56,1.58-.57,0-2.11.86-.82.86Z"/><path class="cls-5" d="M87.81,139c4.75,4.72,3.66,14.46,3.42,20.48-.3,7.56-.86,15.15-1.29,22.7a104.54,104.54,0,0,1-6,29.1c-1.2,3.33-2.41,6.66-3.43,10.06-.39,1.28-1.49,4-.69,5.34.28.46,2.07-.28,1.93-.52-1-1.7.7-5.35,1.24-7,1.07-3.4,2.34-6.74,3.53-10.09A106.35,106.35,0,0,0,92,179.86c.41-7.37.94-14.77,1.23-22.15.23-5.85,1-14.84-3.58-19.38-.34-.35-2.09.37-1.82.65Z"/><path class="cls-5" d="M149.42,138.91c3.41,13,1.7,26.75,2.6,40a125.12,125.12,0,0,0,10,41.43c.37.85,2.28.29,1.93-.52A129,129,0,0,1,154,178.39c-1.07-13.28.83-27-2.6-40-.23-.88-2.16-.37-1.93.52Z"/><path class="cls-5" d="M104.61,167.17c-3.68,0-10.49-1.07-12.22,3.36-1.06,2.74.28,5.05,3.1,5.66a13.4,13.4,0,0,0,9-1.44c2.23-1.21,3.81-3.52,1.77-5.7-.62-.66-2.45.14-1.77.86,3.45,3.68-5.18,5.22-7.4,5s-3.4-1.44-3-3.61c.79-3.88,7.53-2.69,10.36-2.66,1.13,0,1.47-1.44.16-1.46Z"/><path class="cls-5" d="M103.12,165.4c.86-5.7,9.69-4.52,14.13-4.47s11.29.17,14.05,4.17c.34.49,2.21-.13,1.8-.73-3.38-4.89-12.33-4.49-17.52-4.45-5.45,0-13.36-1-14.38,5.75-.1.68,1.83.33,1.92-.27Z"/><path class="cls-5" d="M98.82,176.86c.54,3,1.22,5.93,4.48,6.85A49.66,49.66,0,0,0,116,185.25c6.23.08,14.08-1.31,16.34-8,.22-.66-1.72-.4-1.93.24-2.37,7-11.14,6.9-17.27,6.52a58.47,58.47,0,0,1-7.67-1.07c-3.55-.7-4.2-3.56-4.75-6.62-.12-.65-2.06-.18-1.94.52Z"/><path class="cls-5" d="M127.28,175.28c.42,5.27,11.35,2.29,14,1,.22-.1.71-.44.56-.76-2.26-4.67-9.86-2.88-13.78-1.91-1.19.29-.86,1.47.32,1.18,3.08-.76,9.73-2.48,11.52,1.25l.56-.76c-2.16,1-11,3.49-11.27-.55-.07-.79-2-.34-1.94.52Z"/><path class="cls-5" d="M127.15,167.37v3.95c0,.12.35.13.4.13,4-.06,7.93-.74,11.89-.79.31,0,1.64-.16,1.62-.65-.28-4.95-7.4-3.33-10.61-3.28-.39,0-2.19.78-1.25.76,3.1-.05,9.68-1.66,9.94,3l1.6-.64c-2.21,0-4.4.23-6.6.45-1.21.12-2.43.22-3.64.3-1.9.12-1.35-2.72-1.35-3.79,0-.29-2,0-2,.52Z"/><path class="cls-5" d="M160.11,223.91c-14.76,6.18-31.23,2.38-46.59,1.29-10.58-.75-21.18.09-31,4.41C65.8,237,61.47,254.94,61,271.63c-.25,9.52.63,19,1.16,28.52A262.91,262.91,0,0,1,61.33,336c-1.92,24.16-3.78,52.86,16.48,70.3,17.26,14.85,43.39,11.26,64.19,9.25a354.08,354.08,0,0,1,50.56-1c9,.41,17.94.93,26.92,1.24q6.75.24,13.51.23c1.94,0,3.87,0,5.81-.08.06,0,6.08-.46,4.13.95-.78.57,1.15.29,1.48.05,1.21-.88,1.09-.65,1.79-1.78.16-.24-.46-.21-.53-.21-32.17,1.43-64.3-3.76-96.44-.79-21.8,2-47.09,6.62-66.54-6.23-23-15.24-21.43-46.78-19.56-70.87.95-12.16,1.66-24.15,1-36.35-.47-9.49-1.32-19-1.23-28.46C63.11,253,68.81,234,89.09,227.85c23.65-7.23,48.78,6.09,72.13-3.69,1.17-.5-.66-.44-1.11-.25Z"/><path class="cls-5" d="M246.15,423.51v1.58c0,.55,1.76.2,1.79-.39a105,105,0,0,1,9.3-38.92c6.23-13.71,17.08-28.09,33-30.23,14.26-1.91,28.2,7,37.12,17.37,10.8,12.54,12.71,29.43,15.78,45.06.13.62,2.06.15,1.93-.52-3.44-17.47-5.91-34.89-18.65-48.28-9.22-9.68-22.46-15.9-35.94-14.64-13.9,1.3-24.23,12.42-31.08,23.67C250.9,392.09,246.74,408.8,246,425c.65-.13,1.11-.26,2.11-.39V423c0-.55-2-.2-2,.52Z"/><path class="cls-5" d="M248.84,423.06c14.08-.05,28.22-.4,42.28-.89,16.76-.58,33.47-2.62,50.22-.69.81.09,2-1.05.72-1.2-15-1.72-30-.32-45,.47-15.75.84-31.73,1.06-47.5,1.11-.79,0-2,1.2-.73,1.2Z"/><path class="cls-5" d="M285.4,376c-.82,4.64,3.67,6.47,7.54,6.81s8-.64,10.06-4.13c3.55-5.9-13.14-4.14-15.46-4.1-.64,0-2.08,1-.78,1,2.2,0,4.4-.29,6.61-.33s6.09-.34,7.85,1.48c.89.93-.18,2.35-.76,3.08-1.37,1.72-3.37,2.05-5.45,2.09-3.7.08-8.47-1.7-7.69-6.16.12-.65-1.82-.31-1.92.28Z"/><path class="cls-5" d="M322.55,362.48l1.14-1.29c0-1.27,0-2.53,0-3.79,0-1.91-.05-3.82-.08-5.72-.07-4.49-.16-9-.21-13.47-.1-8.62.07-17.22.59-25.83.92-15,2.58-30.37-1.07-45.13-.19-.76-2.12-.25-1.93.52,3.62,14.64,2,30,1.06,44.82-1.08,16.89-.31,33.77-.27,50.68,0,.44.48.56.85.5l.69-.1c.38-.05,1-.25,1.09-.7,0-.23.06-.46.1-.7.12-.85-1.84-.53-1.94.21Z"/><path class="cls-5" d="M163.8,222.15c-3.13,4.18-1.06,11.36-1,16.18a.66.66,0,0,0,.65.65c14.09,1.16,27.87-2.68,41.69-4.69a256.55,256.55,0,0,1,47.57-2.21c12.27.53,25.07,1.72,36.75,5.74,8.48,2.92,20.14,8.83,18.81,19.48-.13,1,1.41.63,1.79.23,2.51-2.56,9.7-9,8.06-13.2-.35-.9-2.27-.35-1.93.51,1.39,3.57-5.47,9.76-7.76,12.1l1.8.23c1.27-10.17-8.44-16.05-16.56-19.49-13.07-5.55-28.22-6.52-42.2-7.12a246.2,246.2,0,0,0-51.59,3.12c-9.19,1.58-18.32,3.51-27.65,4-1.06.06-7.47.44-7.49-.39,0-1.48-.19-3-.3-4.47-.21-3-1-7.54,1-10.11.74-1-1.08-1.33-1.63-.6Z"/><path class="cls-5" d="M167.88,219.29c2-2.83,6.85-1.91,9.79-1.86,3.88.07,7.78-.1,11.65-.24,7.72-.27,15.43-.83,23.13-1.34,15.26-1,30.59-1.71,45.87-1.28a204.76,204.76,0,0,1,24.6,2.22c6.89,1,13.94,2.2,20.11,5.6,9.6,5.29,13.1,16.28,14.78,26.41.1.6,2,.14,1.93-.52-1.79-10.77-5.46-20.86-15.17-26.78-6-3.69-13.62-4.6-20.45-5.71a207.59,207.59,0,0,0-26.93-2.3c-18.55-.53-37.12.94-55.62,2.09-8.34.52-16.76,1-25.12.77-3.55-.11-8.08-.29-10.36,2.94-.48.68,1.45.48,1.79,0Z"/><path class="cls-5" d="M289.72,216.65c-10.79,5.51.31,12.74,5.69,17.73,3.14,2.9,6.26,6.14,10.7,6.65,3.63.41,6.92-2,9.48-4.21.84-.72-1.09-.67-1.54-.28-8.54,7.35-13.77-.34-19.86-5.62-4.39-3.81-11.86-9.35-3.28-13.74,1.15-.59-.58-.84-1.19-.53Z"/><path class="cls-5" d="M226.15,216.05v-.4c0-1-2-.69-2,.16v7.51c0,.5.25.61.67.61,6.69,0,13.41.53,20.08.08,5.53-.37,6.19-3.51,8.44-7.78.51-1-1.48-.94-1.87-.21a20.67,20.67,0,0,0-1.39,3.46c-1.26,3.91-7.51,3.31-10.44,3.2-3.11-.11-6-.13-9.08-.13-.36,0-4.41-.28-4.41.33v-7.23c0-1-2-.69-2,.16v.39c0,1,2,.69,2-.15Z"/><path class="cls-5" d="M170,220.67c-.43.07.71,9.36.73,10.58,0,.34.28.49.61.49,6.43,0,13.16.51,19.36-1.51a9.33,9.33,0,0,0,5.14-3.7c2.35-3.68-1.83-7.45-.31-11.15.39-.92-1.54-.74-1.81-.09-.7,1.69-1.18,2.82-.31,4.5,1.06,2,1.63,4.48.62,6.64-1.8,3.82-8.56,3.88-12.1,4.09-1.75.1-9.22,1-9.3-.92-.12-2.72.21-7.63-1.46-9.94-.15-.21-.55-.23-.78-.2l-.15,0c-1,.16-1.56,1.4-.24,1.18Z"/><path class="cls-5" d="M189.57,225h12.65c.86,0,2-2,.69-2H190.26c-.87,0-2,2-.69,2Z"/><path class="cls-5" d="M185.14,226.08c-1.79,2-.9,4.63-.14,6.91.31.94,2.24.41,1.93-.52-.6-1.79-1.59-4.12-.15-5.75.82-.92-1-1.34-1.64-.64Z"/><path class="cls-5" d="M176.3,226.53a30.13,30.13,0,0,1-3.09,7c-.47.71,1.47.49,1.79,0a31.84,31.84,0,0,0,3.23-7.25c.2-.61-1.72-.35-1.93.26Z"/><path class="cls-5" d="M168.16,225.26a21.88,21.88,0,0,0,6.83-.87c.2-.06,1-.27.87-.62s-.87-.16-1.06-.1a18.51,18.51,0,0,1-5.83.71c-.58,0-2.1.88-.81.88Z"/><path class="cls-5" d="M219.33,221.26c2.89,0,6.33,0,8.61-2,.42-.37-1.4-.16-1.74.15-1.46,1.31-3.79,1.11-5.62,1.12-.4,0-2.2.78-1.25.78Z"/><path class="cls-5" d="M238,221c-.9,2-.79,4.31-.79,6.46,0,.59,1.93.22,1.93-.51,0-2.07-.07-4.28.79-6.2.26-.57-1.65-.36-1.93.25Z"/><path class="cls-5" d="M243.15,220v-.2a20.11,20.11,0,0,0-2,.37c.56,2.61-.35,5.58.77,8.11.3.69,2.18.09,1.92-.51-1.12-2.54-.23-5.51-.79-8.12-.14-.64-1.92-.21-1.92.38v.21c0,.82,2,.4,2-.24Z"/><path class="cls-5" d="M248,218.94a34.29,34.29,0,0,1,7.53,1.55c.49.12,2.21-.66,1.57-.82a37.43,37.43,0,0,0-8.29-1.62c-.6,0-2.1.87-.81.89Z"/><path class="cls-5" d="M287.71,229.7c1.07-.55,2.09-1.19,3.13-1.8s2.57-1.81,3.8-1.89c.51,0,2.11-.87.83-.79-3.22.21-6.11,2.79-8.88,4.21-1.13.59.66.5,1.12.27Z"/><path class="cls-5" d="M291.46,232.23a32.31,32.31,0,0,0,7.51-3.38c.33-.21.22-.48-.14-.52a2.18,2.18,0,0,0-1.36.36,29,29,0,0,1-6.72,3c-1.3.43-.08.84.71.58Z"/><path class="cls-5" d="M308.33,235.27c-.54.75.17,2.15.43,2.89a14.78,14.78,0,0,1,1.14,4.31c0,.35,2,0,1.93-.51a13.48,13.48,0,0,0-1-4c-.26-.71-1.1-2.31-.57-3,.14-.19-1.57-.13-1.91.34Z"/><path class="cls-5" d="M310.69,234.57a29.24,29.24,0,0,1,1.58,8.69c0,.59,2,.22,1.94-.52a29.62,29.62,0,0,0-1.58-8.69c-.22-.66-2.14-.11-1.94.52Z"/><path class="cls-5" d="M307.15,263v22.13c0,.27,2-.06,2.12-.52,1.63-8.66,3.88-17.22,4.05-26.08l-1.88.51c0,6.66.13,13.25,1.6,19.77.08.36,1.9-.11,1.94-.52.87-7.38,2.26-14.69,2.38-22.13l-1.93.51a135,135,0,0,0,4,18.19c.1.36,1.82-.12,1.91-.45,2.12-7.31.93-14.73.81-22.21l-1.93.52c.9,5.2,2,10.93,5.53,15,.27.31,2-.07,1.93-.52a24.42,24.42,0,0,0-2.37-9.48c-.19-.42-2,.25-1.93.51a24.51,24.51,0,0,1,2.37,9.49l1.93-.52c-3.56-4.09-4.62-9.82-5.53-15-.06-.33-1.94.08-1.93.52.11,7.43,1.33,14.79-.77,22.06l1.91-.44a133,133,0,0,1-3.95-18.18c-.05-.32-1.93.06-1.93.51-.13,7.45-1.51,14.76-2.38,22.14l1.94-.52c-1.47-6.52-1.58-13.11-1.58-19.76,0-.24-1.93,0-1.94.51-.16,8.87-2.48,17.43-4.11,26.09.65-.17,1.78-.34,1.78-.52V262.51c0-.24-2,0-2,.52Z"/><path class="cls-5" d="M87.31,263.4c2.79-8.78,8.42-15.15,18.84-12,5.4,1.63,7.95,8.14,10.86,12.41l1.58-.68c-11,0-22-.71-32.86.82-.1,0-1.5.48-1.08.73,1,.59,2.16,1,3.16,1.58.5.29,2.12-.5,1.82-.68-1-.6-2.12-1-3.16-1.58l-1.08.73c10.6-1.49,21.3-.81,32-.76.16,0,1.85-.29,1.59-.68-2.3-3.37-4.17-7.13-7-10.1s-6.94-3.4-10.73-3.5c-8.7-.21-13.4,6.45-15.8,14-.14.44,1.74.19,1.91-.32Z"/><path class="cls-5" d="M78.55,271.06l-.18-.26-1.86.66c2.18,2.27,3.69,5.17,5.79,7.52l1.24-1A13.48,13.48,0,0,0,69.22,291.6c.13,8.59,9.19,13.7,15.59,17.54.64.38,2.38-.51,1.51-1-4.36-2.61-8.7-5.22-12-9.12-6.15-7.18-2.48-20.37,8.56-19.77.37,0,1.79-.42,1.24-1-2.1-2.36-3.61-5.26-5.79-7.53-.42-.44-2.22,0-1.85.66a4.56,4.56,0,0,0,.33.56c.41.64,2.28,0,1.78-.81Z"/><path class="cls-5" d="M103.86,272.69c-3-2.82-7.8,2.43-9.7,4.33-.08.07-.14.26,0,.34,7.74,4.77,13.42,11.18,7.92,20.21-2.88,4.75-9.12,6.16-13.31,9.36-.84.65,1.1.54,1.52.22,6.09-4.66,12.84-6.13,15.74-14,1.39-3.79-.17-7.57-2.52-10.55a24.22,24.22,0,0,0-5.11-4.41c-1.7-1.21-2.52-1.2-.7-2.88.79-.73,3.22-3,4.37-1.91.44.42,2.24-.3,1.81-.71Z"/><path class="cls-5" d="M86.17,308.09c1.65,5.09.81,10.6.79,15.87,0,5.59-.37,11.17-.73,16.74-.79,12.24-1.31,24.42-1.48,36.68-.3,21.39-.16,42.78-.16,64.17,0,.83,1.94.41,1.94-.23,0-22-.13-44.09.18-66.12.17-12.25.78-24.42,1.58-36.64.36-5.53.58-11.07.61-16.62,0-4.84.72-9.68-.79-14.37-.23-.69-2.15-.15-1.94.52Z"/><path class="cls-5" d="M126.05,340.77c-2.59-3.53.49-12.68,1.23-16.36a141.62,141.62,0,0,1,4.84-19c6.53-18.53,21.44-35.52,41.39-39.19A48.16,48.16,0,0,1,219,283.36c5.59,7.06,7.67,16,10,24.51a223.89,223.89,0,0,1,6.65,35c0,.33,2,0,1.93-.51a236.13,236.13,0,0,0-7.64-38.61c-2.58-9.27-5.53-17.56-12.23-24.66-11.34-12-29.14-16.19-45-13.27-17.94,3.3-31.71,17.24-39.54,33.09-3.71,7.52-5.53,15.62-7.29,23.76-.78,3.6-1.47,7.22-2,10.88-.3,2.14-1.13,5.82.28,7.74.33.46,2.06-.35,1.93-.52Z"/><path class="cls-5" d="M126.84,343.15c0-.16,12.27.89,13.16,1a165.16,165.16,0,0,0,16.94.63c11.38-.09,22.75-.77,34.12-1.19a192.5,192.5,0,0,1,27.28.47c5.64.58,12.51,1.62,17.82-1,1.2-.59.1-1.3-.78-.87-6.9,3.39-17,.43-24.37-.08-10.81-.76-22,.4-32.82.86-12.49.53-25,1.08-37.46,0-1.62-.14-16.3-3.26-15.82.69.09.7,2,.25,1.93-.51Z"/><path class="cls-5" d="M128.33,341c4.41-3.31,10.13-4.36,15.27-6,1.32-.43.07-.66-.66-.43-5.57,1.82-11.58,3-16.35,6.62-.41.3,1.38.12,1.74-.15Z"/><path class="cls-5" d="M214.86,333a32.69,32.69,0,0,1,21.6,10c.53.6,2.37-.15,1.78-.81a34.21,34.21,0,0,0-22.68-10.52c-.85,0-2,1.24-.7,1.29Z"/><path class="cls-5" d="M144.71,334.38c3.62-2.4,10-1.05,14-.65,3.26.32,6.51.84,9.79.91,1.12,0,1.46-1.42.16-1.45-7.44-.17-18.48-4.19-25.23.27-1.1.72.48,1.45,1.29.92Z"/><path class="cls-5" d="M198.22,332.83a128.49,128.49,0,0,0,17.63-1.6c.87-.14,1.65-1.16.3-1A124.8,124.8,0,0,1,199,331.85c-.64,0-2.08,1-.78,1Z"/><path class="cls-5" d="M216.18,329.87c.73-20.56-13-46.95-36-47.54-9.92-.25-19,5.42-25.49,12.5-9.78,10.7-10.11,24.05-12.41,37.6-.15.89,1.81.6,1.95-.18,1.94-11.45,2.2-22.61,8.73-32.66,6.06-9.33,16.48-16.23,27.82-15.94,21.6.55,34.1,27.76,33.44,46.41,0,.93,1.92.59,1.94-.19Z"/><path class="cls-5" d="M167.61,301.64c-1,1.89-.51,3.66,0,5.66l.86-.68c-16.92,5.46-5.4,23.62,2.37,32.4.4.46,2.24-.23,1.8-.72-6.38-7.21-19.47-25.83-3.95-30.84.24-.08.95-.3.85-.68-.46-1.85-.92-3.63,0-5.41.24-.47-1.63-.29-1.92.27Z"/><path class="cls-5" d="M168.17,302.78c9.14.09,18.42,1.5,27.39-.87l-1.08-.15c-.24,1-.47,1.95-.71,2.93-.45.66,1.47.41,1.78,0a5.24,5.24,0,0,0,.86-3.4c0-.36-.93-.19-1.07-.15-8.59,2.28-17.62.81-26.38.72-.63,0-2.08.94-.79,1Z"/><path class="cls-5" d="M194.15,304v3.16c0,.15-.2.29,0,.35a60.09,60.09,0,0,1,6.66,2.41c4.11,2.07,3.37,6.61,2,10.07-2.61,6.43-7.64,11.59-10.55,17.86-.39.85,1.52.62,1.79,0,3.28-7.05,8.88-12.8,11.43-20.24a7.19,7.19,0,0,0-2.24-8,11.3,11.3,0,0,0-3.84-1.81c-2.53-.85-3.49-1.17-3.49-4.05,0-.82-1.7-.41-1.7.24Z"/><path class="cls-5" d="M172.92,340c6.52.11,12.62,1.17,18.94-.95,1.29-.43.1-1-.73-.68-5.75,1.92-11.54.73-17.43.64-.66,0-2.08,1-.78,1Z"/><path class="cls-5" d="M170.32,263.3c-1.44-3.71-1.37-6.66,3.35-8.11a33.75,33.75,0,0,1,10.22-1c6,.11,7.32,4.46,7.43,9.64l1.59-.66c-6.6,0-13.17.72-19.76.79-.41,0-2.2.81-1.25.8,6.59-.07,13.16-.74,19.76-.79.34,0,1.6-.14,1.59-.66-.07-3.29-.34-6.84-3.31-8.8-2.49-1.65-6.31-1.17-9.1-1-6.43.39-15.76,1.78-12.45,10.33.19.47,2.08-.14,1.93-.52Z"/><path class="cls-5" d="M200.26,257h-5.53c-.46,0-1,.1-1,.58-1.06,7.22,6,13.42,11.66,16.65,2.81,1.62,10.91,4.2,13.09.07,1.79-3.4-3.56-7.78-5.65-9.69-2.55-2.32-7-6.89-10.69-7.27-1-.11-2,1.34-.64,1.48,2.48.26,5.63,3.43,7.47,4.9,2.82,2.25,6.39,5.06,7.7,8.55.8,2.13-1.46,2.38-3,2.46-3.05.14-5.68-1.07-8.22-2.65-4.77-3-10.62-8.73-9.72-14.88-.35.27-.7.8-1.06.8h5.54c1.13,0,1.45-1,.14-1Z"/><path class="cls-5" d="M220.7,270.9c-2.16-1.25-4.25-.51-6.13.9-3.28,2.45-1.44,6.46.17,9.19,2.34,4,4.63,8,7.15,11.89,1.87,2.88,4.3,3.88,7.59,2.92,7.14-2.08,4.79-10,1.83-14.23-1.89-2.67-7.52-10.69-11.54-10-1.23.21-.83,1.57.37,1.37,1.39-.24,5.47,4.8,6.2,5.59,2.37,2.56,4.82,5.53,5.93,8.88,1.41,4.28-4.65,9.31-8,5.49a28.35,28.35,0,0,1-3.05-5c-1-1.78-2.4-3.45-3.26-5.27a28.17,28.17,0,0,0-1.48-2.55l-.7-1.18q-3.06-4.26,3.4-6.91c.76.44,2.44-.58,1.49-1.13Z"/><path class="cls-5" d="M231.17,293.16c-5.47,4.59-3.36,14-1.36,19.8,1.35,3.91,7,11.32,10.8,5.22,3.91-6.36,1.34-13.11-1.52-19.21-1.07-2.3-4.6-9.25-7.41-4.69-.57.92,1.4.94,1.85.22s4.73,7.43,5.06,8.2c1.55,3.69,2.4,6.83,1.8,10.93a12.31,12.31,0,0,1-1.18,3.59c-1.88,3.95-4.66.21-5.72-1.12-1.43-1.79-2.08-4.49-2.67-6.65-1.23-4.47-2.44-12,1.63-15.41,1-.84-.54-1.51-1.28-.88Z"/><path class="cls-5" d="M240.89,319.15c-5.37.25-6.55,4.33-6,9.08.28,2.56,1,5,1.54,7.53.58,2.75.57,6.05,3.29,7.68,6.83,4.07,12.37-21,3.19-24.21-.57-.2-2.32.64-1.54.92,4.36,1.53,4.44,7.19,4.26,11.05-.09,2-1.56,13.69-5,10.89-2.58-2.12-2.5-7.58-3.19-10.7s-2.44-10.94,2.7-11.17c.69,0,2.06-1.12.76-1.07Z"/><path class="cls-5" d="M240.49,343.74a31.19,31.19,0,0,0-19.34-.61c-5.38,1.65-6.29,6.92-.74,9.14,3.37,1.36,7.33,1.48,10.92,1.54,2.86.05,6.67.22,9.24-1.3,6-3.54,4-10.63-3.09-9.62-.91.13-1.61,1.22-.27,1,3.14-.45,5.47.95,5.13,4.2-.39,3.67-4.46,4.42-7.45,4.58-4.71.26-10.08.13-14.38-2a3.47,3.47,0,0,1-1.54-5.11c1.3-2,4.91-2.22,7-2.42a29.24,29.24,0,0,1,13,1.46c.56.22,2.32-.6,1.54-.91Z"/><path class="cls-5" d="M194.78,346.24a2.21,2.21,0,0,0-1-.81c-.37-.19-1.87.05-1.88.59,0,1.91-.28,5.91,1.4,7.29s3.94,1.3,5.92,1.65a30.43,30.43,0,0,0,14.16-.86c2.8-1,7.55-5.19,2.64-7.09-6.5-2.52-14.85-.91-21.57-.83-.4,0-2.19.79-1.25.78,5.75-.07,11.49-.69,17.22,0a19.83,19.83,0,0,1,4.47,1c1.58.61,1.21,2.33.91,3.55-.57,2.34-4.44,2.55-6.44,2.8a39.74,39.74,0,0,1-11.05-.48c-4.47-.68-4.55-4.37-4.48-8.3l-1.88.59a2.06,2.06,0,0,1,1,.81c.36.35,2.11-.37,1.82-.66Z"/><path class="cls-5" d="M168.17,344.52c-2,.79-2.11,3.32-2.22,5.18-.2,3.2,1.12,5.19,3.91,6.56,4.95,2.45,13.61,1.59,18.8.18,4.26-1.16,6.52-5.72,2.12-8.48-2.12-1.33-5.25-1.21-7.62-1.22-3.93,0-9.19-.77-12.86.39,1.15-.37.87-1.49-.3-1.12a3.35,3.35,0,0,0-1.44.7.43.43,0,0,0,0,.72c1.6,1.11,4.9.54,6.74.54,4.23,0,11.74-1.26,15.17,1.94,5.73,5.36-8.86,6.32-11.3,6.32-3.08,0-6.08-.11-8.91-1.51-1.86-.92-4.22-8.1-1.32-9.26,1.24-.5.12-1.31-.8-.94Z"/><path class="cls-5" d="M144.24,346.31c-.58-1.29-2-1-2.59.13a9.46,9.46,0,0,0,.11,7.54c1.2,2.12,4,2.3,6.17,2.66a72,72,0,0,0,9.71.89c5.08.14,11.15-3.41,7.53-9-4.45-6.83-15.58-4.72-22.07-3.42-1.22.24-.85,1.54.35,1.3,5.1-1,10.92-2.2,15.86,0,2.29,1,4.33,2.45,5,5,.9,3.51-3.36,4.65-5.91,4.74A53.62,53.62,0,0,1,147.23,355c-2-.37-3.41-.72-4-2.88A9.81,9.81,0,0,1,143,349c0-.4.07-.8.14-1.2,0-.17.08-.34.11-.52.47-.82.14-1-1-.43.37.84,2.29.28,1.93-.52Z"/><path class="cls-5" d="M117.61,347.18c5.52-.06,17.14-2.56,21.25,2.11,1.87,2.12-1.65,4.78-3.19,5.51-2.94,1.39-6.61,1.46-9.79,1.41a30.25,30.25,0,0,1-7.15-1,12.6,12.6,0,0,1-2.91-1.21c-3.23-1.77-4.42-8.22,2.37-6.82.7.14,2.29-.93,1.15-1.16-2.19-.45-5.57-.82-7.12,1.35-1.89,2.65-.43,5.94,2.09,7.65,5.33,3.61,15.52,3.32,21.28,1.09,3.56-1.38,8.84-6.83,2.88-9.1-6.27-2.4-13.59-1.1-20.14-1-.81,0-2,1.25-.72,1.23Z"/><path class="cls-5" d="M122.9,333.82c0-4.12.74-14.32-4.23-16.13-6.14-2.24-8,5.15-8.57,9.49-.69,5.75-1.15,15.8,5,19.07,5.42,2.89,7-9,7-11.64,0-.91-1.93-.56-2,.2a26.7,26.7,0,0,1-.93,6.28,12.73,12.73,0,0,1-1.28,3c-1.64,2.94-4.21-2-4.62-2.71-2.18-3.73-1.67-9.35-1.38-13.45a24.6,24.6,0,0,1,1.33-6.7c1.32-3.56,4.94-2.64,6.21.31C121.09,325.35,121,330,121,334c0,.92,2,.55,2-.2Z"/><path class="cls-5" d="M123.89,296h-.79a1.67,1.67,0,0,0-1.28.5c-.27.37.23.5.51.5h.79a1.64,1.64,0,0,0,1.28-.5c.28-.36-.23-.5-.51-.5Z"/><path class="cls-5" d="M124.47,296.5c-.26-.52-.52-1.05-.79-1.58-.34-.69-1.54-.37-1.88.19-3.12,5.24-8.65,12.87-8,19.3.64,5.88,10.66,5.32,13.18,1.21,2.83-4.63,7.74-28-4.14-20-1.09.74.54,1.24,1.25.76,7.64-5.14,3.18,12.63,2.53,15.59a9.39,9.39,0,0,1-2,4.1c-2.62,3.14-8.29,1.3-8.93-2.15-.4-2.11.78-4.62,1.53-6.49a86.45,86.45,0,0,1,6.32-12.15l-1.88.19c.26.53.53,1.05.79,1.58.38.77,2.28.18,1.93-.52Z"/><path class="cls-5" d="M137.92,272a40.66,40.66,0,0,0-12.44,11.67,6.72,6.72,0,0,0,5.19,10.65c5.7.5,7.46-6.89,10.25-10.18,3.84-4.52,6.84-8.45,0-11.53-.59-.26-2.36.58-1.54.95,2.08.93,4.4,2,4,4.63-.26,1.58-1.81,3.12-2.79,4.29-2.64,3.15-6.56,13.93-12.45,9.39-7.65-5.88,6.7-16.55,11.07-19.28,1.11-.69-.57-1-1.21-.59Z"/><path class="cls-5" d="M143.08,264.42c-.05,5.47.43,9.7,7,9.3,5.68-.35,12.86-4.82,16.19-9.29,3.08-4.14-1.3-8-5.42-8-6,.08-12.46,3.68-16.06,8.41-.74,1,1.09,1.28,1.62.58,2.57-3.38,6.46-5.6,10.38-7,4.83-1.74,11.53,1.39,6.74,6.81-2.81,3.16-7.29,5.27-11.23,6.58-2.31.77-5.67,1-6.92-1.6-.81-1.71-.4-4.11-.38-5.94,0-1-1.95-.73-2,.14Z"/><path class="cls-5" d="M266.93,251.77c-2.67-.32-6.61.67-6.83,3.94s4.49,4.45,6.94,4.16a4.92,4.92,0,0,0,4.5-4.62c0-2.66-2.55-3.72-4.86-3.48-1.09.11-1.48,1.58-.16,1.44,1.53-.16,2.82.41,3.05,2a3,3,0,0,1-2,3.08c-1.74.56-4.77-.34-5.44-2.16-.87-2.41,2.49-3.16,4.12-3,1,.11,2-1.28.66-1.44Z"/><path class="cls-5" d="M264.35,250.59c-4.23-1.5-2.06-7.66,0-10.14l-1.87.5c3.61,2.25,5.22,6.12,5.48,10.22,0,.32,1.87-.06,1.93-.52.56-3.71,4.22-4.63,7.25-2.88,4.11,2.37-3.62,4.88-5.12,5.25-.05,0-1.16.47-.84.58,2.6.93,5.29,2.07,6.85,4.47a2.29,2.29,0,0,1-2.27,3.48,8.48,8.48,0,0,1-4.34-2.26c-.28-.25-2,.31-1.88.57,1.18,2,1.58,4,.22,6.09-3,4.51-3.93-4.66-3.82-5.81,0-.35-1.67.18-1.83.35-5.47,5.48-12.94.81-3.55-2.28.27-.09,1-.53.31-.55a18.52,18.52,0,0,1-8.63-2.19c-3.23-1.85-1.75-5.78,3.87-5.05a8.27,8.27,0,0,1,4,1.6c.4.31,2.06-.46,1.83-.64-3.26-2.53-8.59-2.46-12-.38-5.7,3.45,5.1,6.88,7.2,7.2.49.08,2.31-.2,1.35.12a9.54,9.54,0,0,0-2.69,1.34c-1,.79-2.81,2.65-1.12,3.84,3.62,2.56,8.63-.62,11.2-3.19l-1.84.35c-1.13,11.76,11.78,6.06,7.47-1.31l-1.88.58c2.74,2.38,7.65,3.82,10.23.44,2.08-2.73-2.29-5.34-4.09-6.29s-2.95-.5-.56-1.37a13.83,13.83,0,0,0,3.32-1.51c3.64-2.59-.07-5.12-3.25-5.14-3.49,0-6.72,1.34-7.29,5.11l1.93-.52c-.26-4.17-2-8.08-5.58-10.34-.44-.27-1.56.15-1.86.5-2.17,2.56-4.29,8.88,0,10.42a2.89,2.89,0,0,0,1.83-.64Z"/><path class="cls-5" d="M292,257.35a2.46,2.46,0,0,0-1.93.76,1.87,1.87,0,0,0-.27.65c-.1.34-.37.59-.45.93a4.27,4.27,0,0,0,.39,3.39c1.13,1.74,3.81,1.63,5.44.8a3.4,3.4,0,0,0,1.07-5.44c-1-1.23-2.69-.92-3.89-.21a4.94,4.94,0,0,0-2.22,3.83c0,1,1.92.67,1.95-.16a3.8,3.8,0,0,1,1.15-2.53c.88-.92,1.57.17,1.87,1a1.91,1.91,0,0,1-1,2.52,2.14,2.14,0,0,1-2.48-.56,2.55,2.55,0,0,1-.47-1.72,2.18,2.18,0,0,1,.28-1.13,2.41,2.41,0,0,0,.25-.57c.09-.31,0-.23.15-.24,1.08,0,1.51-1.42.19-1.35Z"/><path class="cls-5" d="M292,258.42a3.9,3.9,0,0,1-1.5-3.69,2.1,2.1,0,0,1,2.14-1.91c1.48,0,.85,3.92.66,4.52s1.11.48,1.36.35c2-1,4.13-1.09,5.46.87,1.86,2.74-2.23,3.05-3.91,2.82-.43-.06-1.95.63-1.12,1.1,1.41.79,2.52,1.84,2.28,3.57-.39,2.88-2.95,1.41-3.72-.38-.29-.68-1.83-.31-1.93.37-.21,1.31-.63,3.63-2.27,3.87a4.53,4.53,0,0,1-3.18-1.31,4.42,4.42,0,0,1-1.57-2.4c-.4-1.85,2.7-1.35,3.67-1.25.81.09,2-1.05.72-1.2-2-.22-4.53-1-4.38-3.42.13-2,1.89-2.8,3.13-1.12.44.59,2.3-.1,1.79-.79-1.72-2.32-4.7-1.71-6.25.47-2.56,3.62,2.13,5.74,5,6.06l.72-1.2c-1.76-.19-4.88-.41-6,1.42-.94,1.52.28,3.19,1.4,4.22,3.84,3.52,8.42,1.21,9.18-3.56l-1.94.36c2.92,6.77,11.81-.83,4.89-4.71l-1.12,1.1c2.55.36,7.59,0,6.85-3.84s-6-3.23-8.47-2l1.37.35c.55-1.71.13-3.14,0-4.9,0-.17-.25-.27-.38-.31-1.85-.5-4.16-.42-5.45,1.24a4.34,4.34,0,0,0,.81,6c.57.48,2.38-.28,1.79-.79Z"/><path class="cls-5" d="M273.61,281.74a2.31,2.31,0,0,0,.63,3.49,4.68,4.68,0,0,0,5.1-.29c1.53-1.12,1.87-2.86.21-4a6.08,6.08,0,0,0-5.51-.55c-2.46,1-2.21,3.5-1.29,5.56.27.63,2.16,0,1.93-.51-.53-1.2-1.31-3.29,0-4.29a1,1,0,0,1,.26-.11,3,3,0,0,1,.81,0,4.3,4.3,0,0,1,1.68.5c.9.44,1.75,1.41,1.13,2.42-1.34,2.18-4.81-.37-3.16-2.18.31-.35-.27-.51-.51-.51a1.77,1.77,0,0,0-1.28.51Z"/><path class="cls-5" d="M278.64,280.06c0-2.18.32-4.59-.75-6.59s-3.7-2-5.65-1.82c-.32,0-.88.2-1,.55-1.42,3.54-.11,6.47,2.39,9.15l1.65-.9a11.21,11.21,0,0,0-8.81-1.64,1.06,1.06,0,0,0-.82.66c-1.4,6,4,6.73,8.48,5.11l-.8-.94c-3.43,1.85-5.56,6-.86,7.91,4.43,1.81,6.62-2.3,6.18-6.11l-1.93.51c1.66,3.65,5.31,4.57,8.7,2.57a3.15,3.15,0,0,0,1.71-2.83c-.11-1.75-3.15-2.05-4.34-2.19,0,.36,0,.72,0,1.08,3.66-1.7,7.64-5.62,3.75-9.37-2.67-2.57-6.68-1.31-8.22,1.73-.46.9,1.49.76,1.81.12,1.4-2.75,4-2.21,5.54,0,2,2.9-1.37,5.49-3.68,6.57-.64.3-.79,1,0,1.09,1.8.2,4.58,1.32,2.11,3.08-2.28,1.64-4.59-.32-5.53-2.37-.33-.74-2-.3-1.93.51.3,2.61-.46,6-3.68,4.11-2.75-1.64-1.07-4.31,1.09-5.48,1.21-.65.12-1.27-.8-.94-3.8,1.38-6.74-.13-5.74-4.37l-.82.66a8.9,8.9,0,0,1,7,1.53c.47.29,2.25-.26,1.65-.91a12.13,12.13,0,0,1-2.59-3.91c-.95-2.35.48-5.24,2.93-2.92,1.54,1.45,1,4.68,1,6.54,0,.9,1.94.53,1.95-.2Z"/><path class="cls-5" d="M129.2,401.73c4.72-20.61,26.53-26.61,45.23-26.6,17.7,0,43.34,4.73,45.35,26.24,0,.36,2,0,1.93-.51-2.19-23.56-32-27.14-50.76-26.43-18.21.69-39.13,7.88-43.65,27.65-.1.42,1.79.13,1.9-.35Z"/><path class="cls-5" d="M173.5,401.83a4.72,4.72,0,0,1,1.8-3.72c.71-.58,3-1.75,3.83-.92a19.8,19.8,0,0,1,4.28,6.56l1.06-1c-3.22,0-7.49,1-10.41-.65-.73-.41-2.43.57-1.49,1.11,3.41,2,8,1,11.72.94.4,0,1.26-.43,1.06-1a21.31,21.31,0,0,0-3.21-5.44c-1.4-1.82-1.77-2.12-4-2.12a6.84,6.84,0,0,0-6.6,6.31c0,1,1.91.71,2-.15Z"/><path class="cls-5" d="M172.7,400.86c.38-7.7,7.5-13,12.55-18,.41-.4-1.42-.17-1.74.15-5.15,5.08-12.36,10.52-12.75,18.36,0,.28,1.91.05,1.94-.51Z"/><path class="cls-5" d="M184.54,402.53c1.88-6.76,6.07-12.68,6.34-19.86,0-.11-.29-.14-.34-.14a20.41,20.41,0,0,0-7.29,1c-1.29.48-.06.73.67.45a4.14,4.14,0,0,1,5,.49,20.4,20.4,0,0,1-.62,3.56,34,34,0,0,1-1.65,4.7c-1.36,3.39-3,6.63-4,10.16-.12.42,1.77.16,1.9-.33Z"/><path class="cls-5" d="M189.3,401c1.75-4.68,6.82-6.83,9.43-10.91l-1.27.56c1.34,0,2.4,3.51,2.76,4.79a5.49,5.49,0,0,1-.8,5c-2.54,3.1-7.67,1.14-10.33-.65-.61-.4-2.36.46-1.51,1a12.25,12.25,0,0,0,10.29,2,6.14,6.14,0,0,0,4.53-6.44c-.1-2.2-1.3-4.3-2.46-6.11-.57-.88-2.3-1.43-3-.3-2.71,4.24-7.72,6.34-9.55,11.23-.28.75,1.68.52,1.94-.19Z"/><path class="cls-5" d="M192.19,384.13c2.11,2.11,4.58,4.69,7.43,5.74.76.28,2.27-.81,1.14-1.23-2.59-.95-4.88-3.42-6.8-5.33-.57-.57-2.41.19-1.77.82Z"/><path class="cls-5" d="M185.27,381.74a11.45,11.45,0,0,0-8.62-5c-.39,0-1.5.18-1.5.73v5.13c0,1.47,2,1.73,3.17,1.74.84,0,2.1-1.26.79-1.27a3.22,3.22,0,0,1-1.68-.34c-.38-.22-.28-1.35-.28-1.7v-3.74c0,.24-.74.48-1.18.73a10,10,0,0,1,7.45,4.51c.44.64,2.38-.06,1.85-.81Z"/><path class="cls-5" d="M171.56,379.24a27.11,27.11,0,0,0,1,6.38c.21.8.56,3,1.56,3.29.55.16,2.29-.67,1.55-.89s-1.24-3.17-1.41-3.83a25.31,25.31,0,0,1-.77-5.47c0-.54-2-.18-1.93.52Z"/><path class="cls-5" d="M160.49,378.31c-.7,9.88.82,25.64,12.23,28.87.62.17,2.28-.75,1.18-1.06-10.78-3.06-12.13-18.84-11.48-28.05.06-.8-1.89-.42-1.93.24Z"/><path class="cls-5" d="M167.91,401.23a4.31,4.31,0,0,1,3.73-1.78c1.1,0,1.49-1.44.18-1.41-2.18,0-4.66,1-5.76,3-.52,1,1.44,1,1.85.23Z"/><path class="cls-5" d="M214.78,391c-3.74-.09-8.41-.8-10.17,3.5-1.36,3.34,1.33,7.32,4.31,8.66a1.43,1.43,0,0,0,1.66-.44c2.43-3.39,3.73-7.36,5.54-11.07.44-.9-1.51-.74-1.82-.1-1.81,3.71-3.1,7.68-5.53,11.06l1.67-.44a7.15,7.15,0,0,1-4.19-6.36,3.94,3.94,0,0,1,1.84-3.22c1.48-1.2,4.21-.43,6-.39.8,0,2-1.17.72-1.2Z"/><path class="cls-5" d="M211.82,390.21c-8.09-2-15.68-5.85-22.74-10.19-.68-.42-2.4.52-1.5,1.08,7.16,4.4,14.91,8.38,23.11,10.36.79.19,2.29-1,1.13-1.25Z"/><path class="cls-5" d="M140.06,393.43a3.44,3.44,0,0,0-4.09-.91c-1.68.63-1.8,3.54-1.74,5,.12,2.55,1.65,5,2.91,7.14.93,1.6,2.8,1.54,4.53,1.21,7-1.35,2.46-10.29.11-13.87-.49-.76-2.33,0-1.76.86,1.76,2.7,3.73,6.17,3.43,9.52a2.24,2.24,0,0,1-1.16,1.85c-1.68.91-3,.16-3.88-1.28a18.71,18.71,0,0,1-2.1-4.91c-.42-1.64,0-5.64,2.27-3.46.64.62,2.3-.34,1.48-1.14Z"/><path class="cls-5" d="M140,392.13c2.47-.32,5-2.2,7.1-3.37,3.81-2.12,7.56-4.56,11.59-6.26,1.25-.52.1-1.07-.74-.72a82.54,82.54,0,0,0-8.32,4.39c-2.6,1.46-6.34,4.57-9.35,5-.9.12-1.63,1.17-.28,1Z"/><path class="cls-5" d="M145.8,404.89C149,400,155.56,396.1,161,394.18c1.3-.47,0-.61-.65-.36-5.88,2.09-13,6.1-16.44,11.43-.09.14,1.6.09,1.9-.36Z"/><path class="cls-5" d="M156.06,398.47c2.71-.57,8.28.74,4.61,4l1.15-.4c-3.92,0-8.18.7-11.33-2.17-.53-.49-2.35.26-1.79.77,2.22,2,4.89,2.57,7.81,2.65s5.25.5,7-1.9c2.95-3.95-5.85-4.44-7.77-4-1.19.25-.89,1.29.28,1Z"/><path class="cls-5" d="M130.74,403.17c-.27-.32,0-.31-.48-.2a5.08,5.08,0,0,1,1-.08c.84,0,1.68,0,2.52,0,1.39,0,2.78.15,4.17.16.38,0,2.19-.74,1.26-.75-2.4,0-4.81-.31-7.21-.16-.65,0-4.13.38-3,1.65.3.34,2.09-.34,1.82-.64Z"/><path class="cls-5" d="M201.36,402h-.53c-.72,0-2.06,1-.75,1h20.29c.72,0,2.06-1,.75-1H200.83c-.72,0-2.06,1-.75,1h.53c.72,0,2-1,.75-1Z"/><path class="cls-5" d="M103.13,92.54a43.17,43.17,0,0,0-3.24-6c-2.71-4.58-.58-8.91,3.22-11.9,4.43-3.48,10.48-4.48,15.62-6.47,8.19-3.18,12.6-6.79,12.85-15.77.17-6.25-.58-12.16,3.5-17.46,4.31-5.62,12.07-4.84,18.26-4.21,8.65.89,14.94-.72,17.74-9.72-.64,0-1.28,0-1.91-.06-1.24,8.22-6.4,8.68-13.46,8.42a30.28,30.28,0,0,0-13.51,2.2c-3.19,1.39-6.38,5.25-6.07,8.91.22,2.63,1.51,4.35,3.19,6.32a21.13,21.13,0,0,1,4.92,9.29c1.81,8.46-7.72,14.63-14.6,16.33-7.06,1.74-14.46-.26-21.33,2.86a11.4,11.4,0,0,0-6.93,8.66c-.5,2.37-1.09,9.19,1.81,10.35.86.34,2.26-.88,1.11-1.34-1.91-.76-1.17-6.21-1.11-7.86.17-4.47,2.9-7.56,7.06-9,6.94-2.33,14.3-1,21.35-2.72,8.49-2.1,16.25-10,14.3-19.08-1.13-5.29-6.27-8.22-7.74-13.18s4.51-8.51,8.26-9.56a31.67,31.67,0,0,1,9.71-.72c8.14.3,13.66-1.12,15-10,.14-1-1.68-.79-1.91-.06-2.29,7.37-6.9,9.24-14.15,8.62-4.86-.42-9.5-1-14.3.22-10.82,2.81-11,13.87-11.15,22.94-.07,5.46-1.29,9-6.19,11.84s-10.74,4.16-16.07,6.31c-3.92,1.58-7.38,3.88-9.59,7.53-3.34,5.52,1.48,10,3.43,14.87.36.9,2.28.36,1.93-.52Z"/><path class="cls-5" d="M128.44,91.93c-.23-6.54,6.72-9,12.2-9.48,4.54-.4,8.6,1.65,13.08.14,3.32-1.12,7.11-4.53,8.14-7.94,1.43-4.76-.54-9.5-.22-14.34l-1.95.16c-.22,4.64,2.88,7.3,5.18,11,4.59,7.35-6.12,16-12.64,16.8-5.9.74-11.81-2.62-17.68-3-2.09-.14-8.11.61-8.06,3.53,0,.78,1.17.72,1.62.34.19-.16.34-.43.56-.54,1.19-.58.12-1.56-.84-1.09a3.66,3.66,0,0,0-1,.79l1.61.34c-.09-4.71,18,.67,20.77,1,4.58.5,8.45-1.31,12-4.06,2.84-2.23,7.07-6.4,6.77-10.4-.43-5.81-6.59-8.94-6.31-14.84.05-1-1.9-.68-1.95.16-.3,4.43,1.3,8.8.56,13.2-.89,5.29-7.08,8.67-12,8.11a44.29,44.29,0,0,0-6.5-.73c-6.43.2-15.56,3.25-15.3,11,0,1,2,.67,2-.16Z"/><path class="cls-5" d="M170.15,51.11c4.95-4.77,17-12.39,21-2.71,1.3,3.11.15,6.9,2,9.88,3,4.86,8.75,4.7,13.69,3.37,6.27-1.69,12-5.34,17.72-8.23,6.28-3.14,14.3-6.38,18.11,1.69l1.72-.76c-8.15-4.32-12.71-.34-18.52,5.53a28.66,28.66,0,0,1-17.86,8.57c-4.89.59-14.52,1.35-16.41-4.51-1-3.21-.66-6.56-2-9.75-1.27-3-3.93-4.34-6.88-5.4-2.74-1-12.2-2.94-12,2.37,0,.71,2,.3,1.94-.52-.15-4.08,10.07-.31,11.49.38,3.29,1.59,4.31,5.11,4.82,8.46.77,5,1.17,9,7.08,9.87a42.23,42.23,0,0,0,22-2.27,28.29,28.29,0,0,0,8.41-5.84c5.06-4.6,8.65-10,16.4-5.89.38.21,2.06-.05,1.73-.76-6.7-14.22-26,1.17-34.9,4.86-4.27,1.77-9.65,3.11-13.51-.24-3.6-3.13-1.33-8.63-3.55-12.35-5.76-9.63-18.64-1.43-24.11,3.83-.84.81,1.06.91,1.58.42Z"/></svg>