<svg id="layer1" xmlns="http://www.w3.org/2000/svg" viewBox="0 0 344.69 231.89"><defs><style>.cls-1{fill:#4db6db;}</style></defs><path class="cls-1" d="M71.16,87.53l-.3-.44a12.45,12.45,0,0,0-4.4-4l-.31-.17-.56-.28L61,93.77ZM66.1,84a11.52,11.52,0,0,1,3.62,3.22l-6.65,4.07Z"/><path class="cls-1" d="M73.11,95.79l0-.52A14.08,14.08,0,0,0,72,89.21l-.24-.53-10.13,6.2Zm-1-1.09-7.31-.58,6.49-4A13,13,0,0,1,72.13,94.7Z"/><path class="cls-1" d="M64.4,82.11,63.87,82a14,14,0,0,0-6.37-.43l-.53.09,2.79,11.66Zm-6.2.33a12.89,12.89,0,0,1,4.83.32L60,90Z"/><path class="cls-1" d="M98.25,96.78l-3.2-.25,2.27-2.62a1.65,1.65,0,0,0,.32-1.71,1.77,1.77,0,0,0-1.38-1.14,1.47,1.47,0,0,0-1.33.54l-4,4.6L88.59,96l2.21-2.55a1.63,1.63,0,0,0,.31-1.71,1.76,1.76,0,0,0-1.38-1.14,1.49,1.49,0,0,0-1.32.54l-3.94,4.53-1.16-.09,2-2.32a1.65,1.65,0,0,0,.32-1.71,1.79,1.79,0,0,0-1.38-1.14,1.5,1.5,0,0,0-1.33.54l-3.73,4.3L75.46,95a16.05,16.05,0,0,0-1.29-6.57l2.39-1.46,5.58,2.79a1.59,1.59,0,0,0,.55.17,1.74,1.74,0,0,0,1.85-1.25,1.48,1.48,0,0,0-.8-1.83L79.9,84.9,81.36,84l5.32,2.65a1.93,1.93,0,0,0,.56.18,1.75,1.75,0,0,0,1.84-1.26,1.49,1.49,0,0,0-.8-1.83L84.7,82,87,80.57l5.23,2.61a1.93,1.93,0,0,0,.56.18,1.76,1.76,0,0,0,1.85-1.26,1.5,1.5,0,0,0-.8-1.83l-3.5-1.75,3.17-1.93a1.61,1.61,0,0,0,.75-1.74,1.7,1.7,0,0,0-1.4-1.37,1.56,1.56,0,0,0-1,.24L89,75.46l.32-3.65A1.46,1.46,0,0,0,88,70.17a1.85,1.85,0,0,0-1.38.39A1.63,1.63,0,0,0,86,71.74l-.52,5.88-2,1.22.31-3.55a1.46,1.46,0,0,0-1.32-1.63A1.82,1.82,0,0,0,81,74a1.7,1.7,0,0,0-.62,1.18L79.91,81l-1,.61.29-3.24a1.47,1.47,0,0,0-1.32-1.64,1.91,1.91,0,0,0-1.39.38,1.7,1.7,0,0,0-.62,1.19l-.48,5.46-2.86,1.76a15.93,15.93,0,0,0-2.69-2.93,15.19,15.19,0,0,0-2.45-1.68l1-2.33,6.34-1A1.45,1.45,0,0,0,76,76a1.79,1.79,0,0,0-1.52-1.75,1.52,1.52,0,0,0-.52,0L69.85,75l.66-1.58,6-1a1.44,1.44,0,0,0,1.27-1.49,1.78,1.78,0,0,0-1.52-1.75,1.52,1.52,0,0,0-.52,0L72,69.77l1-2.48,5.95-1a1.43,1.43,0,0,0,1.27-1.49,1.78,1.78,0,0,0-1.51-1.75,1.58,1.58,0,0,0-.53,0l-3.68.61,1.38-3.33a1.71,1.71,0,0,0-.1-1.54,1.86,1.86,0,0,0-1.34-.91,1.38,1.38,0,0,0-1.5.91L71.65,62l-1.82-3a1.64,1.64,0,0,0-1.18-.79A1.8,1.8,0,0,0,67,59a1.53,1.53,0,0,0,0,1.68l3.11,5.18L69.17,68,67.4,65a1.64,1.64,0,0,0-1.18-.79,1.8,1.8,0,0,0-1.69.79,1.53,1.53,0,0,0,0,1.68l3.06,5.09-.44,1.07-1.62-2.69a1.63,1.63,0,0,0-1.17-.79,1.83,1.83,0,0,0-1.7.79,1.55,1.55,0,0,0,0,1.68l2.9,4.83-1.22,2.93a15.89,15.89,0,0,0-6.9-.44l-.62-2.56,4.42-4.48a1.59,1.59,0,0,0,.39-1.66,1.8,1.8,0,0,0-1.42-1.18,1.55,1.55,0,0,0-1.32.48l-3,3-.4-1.66,4.21-4.27a1.56,1.56,0,0,0,.4-1.65A1.8,1.8,0,0,0,58.69,64a1.56,1.56,0,0,0-1.33.49l-2.77,2.81L54,64.75l4.14-4.21a1.56,1.56,0,0,0,.4-1.65,1.82,1.82,0,0,0-1.42-1.19,1.56,1.56,0,0,0-1.33.49l-2.7,2.74-.88-3.67a1.51,1.51,0,0,0-1.31-1.2,1.77,1.77,0,0,0-1.55.57A1.59,1.59,0,0,0,49,58.1l.77,3.2L46.58,60a1.93,1.93,0,0,0-.47-.13,1.84,1.84,0,0,0-2,1.34A1.41,1.41,0,0,0,45,62.9l5.66,2.4.54,2.29-3-1.29a1.57,1.57,0,0,0-.47-.13,1.84,1.84,0,0,0-2,1.34,1.41,1.41,0,0,0,.87,1.73l5.56,2.36.27,1.14-2.77-1.17a1.57,1.57,0,0,0-.47-.13,1.81,1.81,0,0,0-1.94,1.34,1.39,1.39,0,0,0,.86,1.72l5.28,2.25L54.21,80a16.22,16.22,0,0,0-4.61,2.63,13.26,13.26,0,0,0-1.12,1l-2.16-1.84.92-6.12a1.66,1.66,0,0,0-.32-1.28,1.86,1.86,0,0,0-1.24-.72A1.45,1.45,0,0,0,44,75l-.65,4.3L42,78.18l.88-5.83a1.65,1.65,0,0,0-.32-1.28,1.86,1.86,0,0,0-1.24-.72,1.45,1.45,0,0,0-1.68,1.27l-.61,4-2-1.75.86-5.73a1.66,1.66,0,0,0-.32-1.28,1.86,1.86,0,0,0-1.24-.72,1.45,1.45,0,0,0-1.68,1.27l-.59,3.92L31.29,69a1.69,1.69,0,0,0-.88-.4,1.81,1.81,0,0,0-1.85,1A1.47,1.47,0,0,0,29,71.38l2.59,2.21-3.51.81A1.52,1.52,0,0,0,26.85,76a1.71,1.71,0,0,0,1.44,1.65,1.81,1.81,0,0,0,.61,0l5.82-1.34L36.5,77.8l-3.41.79a1.52,1.52,0,0,0-1.22,1.61,1.71,1.71,0,0,0,1.44,1.65,1.81,1.81,0,0,0,.61,0l5.72-1.32.88.75L37.41,82a1.54,1.54,0,0,0-1.23,1.61,1.73,1.73,0,0,0,1.45,1.65,1.81,1.81,0,0,0,.61,0l5.42-1.25,2.75,2.36a15.65,15.65,0,0,0-2.19,6.2l-3.32-.27L38,86.58a1.51,1.51,0,0,0-1.17-.84,1.78,1.78,0,0,0-1.64.75,1.6,1.6,0,0,0-.1,1.71L37,91.91l-1.71-.13L32.5,86.39a1.5,1.5,0,0,0-1.16-.84,1.78,1.78,0,0,0-1.65.76,1.6,1.6,0,0,0-.1,1.7l1.8,3.45-2.66-.21L26,86a1.52,1.52,0,0,0-1.16-.85,1.79,1.79,0,0,0-1.65.76,1.6,1.6,0,0,0-.1,1.71l1.75,3.36L21,90.64A1.46,1.46,0,0,0,19.35,92,1.74,1.74,0,0,0,20.93,94l3.2.26-2.28,2.62a1.65,1.65,0,0,0-.31,1.71,1.76,1.76,0,0,0,1.38,1.14,1.48,1.48,0,0,0,1.32-.54l4-4.61,2.34.19-2.22,2.54A1.65,1.65,0,0,0,28.06,99a1.77,1.77,0,0,0,1.38,1.14,1.47,1.47,0,0,0,1.33-.54l3.93-4.52,1.16.09-2,2.31a1.65,1.65,0,0,0-.31,1.71,1.75,1.75,0,0,0,1.38,1.14,1.46,1.46,0,0,0,1.32-.54L40,95.48l4.14.33a16.7,16.7,0,0,0,1.64,6.07l-3.15,1.92L37,101a1.93,1.93,0,0,0-.56-.18,1.76,1.76,0,0,0-1.85,1.26,1.5,1.5,0,0,0,.8,1.83l3.84,1.92-1.46.89-5.31-2.66a1.65,1.65,0,0,0-.56-.17,1.75,1.75,0,0,0-1.85,1.25,1.51,1.51,0,0,0,.8,1.84l3.58,1.78-2.28,1.4L27,107.56a1.84,1.84,0,0,0-.55-.17,1.76,1.76,0,0,0-1.85,1.25,1.5,1.5,0,0,0,.8,1.84l3.49,1.74-3.16,1.94a1.59,1.59,0,0,0-.76,1.74,1.72,1.72,0,0,0,1.4,1.37,1.64,1.64,0,0,0,1-.24l2.85-1.75-.32,3.65a1.47,1.47,0,0,0,1.32,1.64,1.87,1.87,0,0,0,1.39-.38,1.66,1.66,0,0,0,.62-1.18l.51-5.88,2-1.23-.31,3.55a1.45,1.45,0,0,0,1.32,1.64,1.89,1.89,0,0,0,1.38-.38,1.7,1.7,0,0,0,.62-1.19l.51-5.77,1-.61L40,112.39A1.47,1.47,0,0,0,41.3,114a1.84,1.84,0,0,0,1.38-.39,1.63,1.63,0,0,0,.62-1.18l.48-5.47,3.78-2.31a15,15,0,0,0,4.76,3.88l-1.5,3.61-6.33,1.06a1.43,1.43,0,0,0-1.27,1.49,1.78,1.78,0,0,0,1.51,1.75,1.81,1.81,0,0,0,.52,0l4.07-.68-.66,1.59-6,1a1.42,1.42,0,0,0-1.26,1.49,1.78,1.78,0,0,0,1.51,1.75,1.81,1.81,0,0,0,.52,0l3.78-.63-1,2.47-6,1a1.44,1.44,0,0,0-1.27,1.49,1.75,1.75,0,0,0,2,1.74l3.69-.61-1.38,3.32a1.71,1.71,0,0,0,.09,1.54,1.87,1.87,0,0,0,1.34.92,1.42,1.42,0,0,0,1.51-.92l1.33-3.19,1.82,3a1.57,1.57,0,0,0,1.17.79,1.79,1.79,0,0,0,1.7-.79,1.53,1.53,0,0,0,0-1.67l-3.12-5.18.9-2.17,1.77,3a1.57,1.57,0,0,0,1.17.79,1.79,1.79,0,0,0,1.7-.79,1.53,1.53,0,0,0,0-1.67l-3.06-5.1.44-1.06,1.61,2.68a1.59,1.59,0,0,0,1.17.79,1.77,1.77,0,0,0,1.7-.79,1.51,1.51,0,0,0,0-1.67l-2.9-4.83,1.76-4.27a16.37,16.37,0,0,0,6.06.55l.91,3.79L58,118.6a1.57,1.57,0,0,0-.4,1.65A1.82,1.82,0,0,0,59,121.44,1.55,1.55,0,0,0,60.3,121l3-3,.4,1.66-4.21,4.27a1.59,1.59,0,0,0-.39,1.66,1.76,1.76,0,0,0,1.42,1.18,1.53,1.53,0,0,0,1.32-.48l2.77-2.81L65.2,126l-4.14,4.2a1.57,1.57,0,0,0-.39,1.66A1.78,1.78,0,0,0,62.09,133a1.57,1.57,0,0,0,1.32-.48l2.7-2.74.88,3.66a1.52,1.52,0,0,0,1.31,1.21,1.85,1.85,0,0,0,1.56-.57,1.6,1.6,0,0,0,.35-1.48l-.76-3.19,3.15,1.34a1.91,1.91,0,0,0,.47.12A1.82,1.82,0,0,0,75,129.58a1.41,1.41,0,0,0-.86-1.73l-5.66-2.4-.55-2.3,3,1.3a2.14,2.14,0,0,0,.48.13,1.84,1.84,0,0,0,1.94-1.34,1.41,1.41,0,0,0-.87-1.73L67,119.15,66.71,118l2.77,1.18a2.21,2.21,0,0,0,.47.13,1.84,1.84,0,0,0,2-1.34,1.41,1.41,0,0,0-.87-1.73L65.75,114l-1-4.35.86-.31a15.15,15.15,0,0,0,4.55-2.77l2.73,2.34L71.93,115a1.69,1.69,0,0,0,.32,1.29,1.86,1.86,0,0,0,1.24.71,1.45,1.45,0,0,0,1.69-1.27l.65-4.3,1.3,1.12-.87,5.82a1.63,1.63,0,0,0,.31,1.29,1.86,1.86,0,0,0,1.24.71,1.44,1.44,0,0,0,1.69-1.27l.6-4,2,1.74-.87,5.73a1.69,1.69,0,0,0,.32,1.29,1.86,1.86,0,0,0,1.24.71,1.45,1.45,0,0,0,1.69-1.27l.59-3.92,2.77,2.37a1.66,1.66,0,0,0,.89.41h0a1.81,1.81,0,0,0,1.84-1,1.46,1.46,0,0,0-.42-1.75l-2.59-2.22,3.5-.81a1.51,1.51,0,0,0,1.23-1.6,1.7,1.7,0,0,0-1.44-1.65,1.63,1.63,0,0,0-.62,0l-5.82,1.34-1.77-1.52,3.4-.78a1.53,1.53,0,0,0,1.23-1.61,1.72,1.72,0,0,0-1.44-1.65,1.86,1.86,0,0,0-.62,0l-5.72,1.32-.88-.75,3.12-.72a1.51,1.51,0,0,0,1.22-1.6,1.7,1.7,0,0,0-1.44-1.65,1.63,1.63,0,0,0-.62,0l-5.42,1.25-3.14-2.68a18.26,18.26,0,0,0,1.07-1.58,16.58,16.58,0,0,0,1.63-4.28l3.2.25,2.93,5.64a1.51,1.51,0,0,0,1.16.85,1.79,1.79,0,0,0,1.65-.76,1.6,1.6,0,0,0,.1-1.7l-1.93-3.71,1.7.13,2.8,5.38a1.53,1.53,0,0,0,1.16.85,1.79,1.79,0,0,0,1.64-.76,1.6,1.6,0,0,0,.1-1.71l-1.79-3.45,2.66.21,2.75,5.3a1.53,1.53,0,0,0,1.16.85,1.81,1.81,0,0,0,1.65-.76,1.62,1.62,0,0,0,.1-1.71L94.36,99.8l3.83.31a1.48,1.48,0,0,0,1.64-1.37A1.74,1.74,0,0,0,98.25,96.78Zm0,2.32-5.65-.44,2.59,5a.61.61,0,0,1,0,.66.78.78,0,0,1-.69.34.55.55,0,0,1-.4-.32l-3-5.79-5-.4,2.63,5.07a.61.61,0,0,1,0,.66.78.78,0,0,1-.69.34.53.53,0,0,1-.4-.31l-3-5.88-4.07-.33L83.21,103a.62.62,0,0,1,0,.67.8.8,0,0,1-.69.33.51.51,0,0,1-.4-.31l-3.18-6.14-4.65-.37-.09.44a15.24,15.24,0,0,1-1.6,4.41,16.37,16.37,0,0,1-1.28,1.84l-.31.38,4.26,3.65,5.92-1.37a.69.69,0,0,1,.82.68.51.51,0,0,1-.44.58L76.48,109l2.78,2.38,6.22-1.43a.68.68,0,0,1,.82.68.52.52,0,0,1-.44.57l-5.36,1.24,3.69,3.15,6.31-1.46a.69.69,0,0,1,.82.68.51.51,0,0,1-.44.58l-5.46,1.26,4.11,3.51a.47.47,0,0,1,.16.58.83.83,0,0,1-.79.46.75.75,0,0,1-.36-.17l-4.16-3.56-.86,5.72a.44.44,0,0,1-.56.42.87.87,0,0,1-.56-.32.66.66,0,0,1-.13-.53l1-6.28-3.84-3.29L78.5,119a.45.45,0,0,1-.56.43.85.85,0,0,1-.56-.33.66.66,0,0,1-.13-.53l1-6.38L75.1,109.5l-.92,6.1a.45.45,0,0,1-.56.42.84.84,0,0,1-.56-.32.66.66,0,0,1-.13-.53l1-6.66-3.84-3.29-.33.31a14,14,0,0,1-4.55,2.87,12.9,12.9,0,0,1-1.24.42l-.46.14,1.38,5.77,5.75,2.44a.41.41,0,0,1,.29.54.8.8,0,0,1-1.05.54l-4.61-2,.85,3.59,6,2.56a.41.41,0,0,1,.29.53.8.8,0,0,1-1,.55l-4.89-2.08,1.13,4.73,6.12,2.6a.42.42,0,0,1,.29.54.8.8,0,0,1-1.05.55l-5-2.12,1.23,5.14a.58.58,0,0,1-.12.56.82.82,0,0,1-.68.25.53.53,0,0,1-.46-.44l-1.3-5.44-4,4a.54.54,0,0,1-.47.19.78.78,0,0,1-.6-.51.57.57,0,0,1,.16-.62l4.53-4.6-1.17-4.9-4,4.1a.54.54,0,0,1-.47.19.78.78,0,0,1-.6-.51.57.57,0,0,1,.16-.62l4.6-4.67-1-4-4.25,4.31a.55.55,0,0,1-.47.2.79.79,0,0,1-.6-.52.56.56,0,0,1,.16-.62l4.8-4.87-1.25-5.21-.44,0a15.38,15.38,0,0,1-6.53-.58l-.44-.14-2.31,5.58,3.17,5.27a.53.53,0,0,1,0,.6.77.77,0,0,1-.73.34.58.58,0,0,1-.43-.31l-2.65-4.39L50.47,119l3.32,5.53a.53.53,0,0,1,0,.6.8.8,0,0,1-.73.34.6.6,0,0,1-.44-.31l-2.8-4.66L48,125l3.37,5.62a.51.51,0,0,1,0,.6.77.77,0,0,1-.72.34.6.6,0,0,1-.44-.31l-2.85-4.75-2.09,5.05c-.13.3-.32.32-.45.3a.84.84,0,0,1-.59-.42.68.68,0,0,1,0-.65l2.08-5-5.48.91a.77.77,0,0,1-.87-.76.44.44,0,0,1,.43-.48l6.5-1.08,1.94-4.67-5.57.93a.79.79,0,0,1-.87-.77.45.45,0,0,1,.43-.48l6.6-1.1L51,114.49l-5.86,1a.78.78,0,0,1-.86-.77.44.44,0,0,1,.42-.48l6.89-1.15,2.07-5-.43-.21a14.28,14.28,0,0,1-5.1-4.16l-.28-.36-5,3-.52,6a.67.67,0,0,1-.25.49.89.89,0,0,1-.62.17.46.46,0,0,1-.45-.55l.46-5.24-3.13,1.92-.55,6.28a.67.67,0,0,1-.25.48.88.88,0,0,1-.63.17.46.46,0,0,1-.44-.55l.49-5.54-4.15,2.54-.56,6.38a.68.68,0,0,1-.24.49.87.87,0,0,1-.63.16.45.45,0,0,1-.44-.55l.49-5.64-4.56,2.79a.62.62,0,0,1-.38.1.71.71,0,0,1-.54-.58.57.57,0,0,1,.29-.67l4.72-2.89-5.12-2.55a.5.5,0,0,1-.29-.64.72.72,0,0,1,1-.47l5.73,2.86,4.31-2.63-5.21-2.6a.49.49,0,0,1-.28-.64.71.71,0,0,1,1-.47l5.81,2.9,3.49-2.13L35.88,103a.49.49,0,0,1-.28-.64.72.72,0,0,1,1-.47l6.07,3,4.43-2.71-.22-.42a15.57,15.57,0,0,1-1.77-6.51l0-.45-5.53-.44-4.07,4.68a.47.47,0,0,1-.43.2.79.79,0,0,1-.57-.49.69.69,0,0,1,.13-.7l3.32-3.82L34.28,94,30,98.92a.48.48,0,0,1-.44.2.79.79,0,0,1-.57-.5.67.67,0,0,1,.13-.69l3.53-4.05-4.84-.38-4.34,5a.49.49,0,0,1-.43.2.79.79,0,0,1-.57-.5.67.67,0,0,1,.13-.69l3.59-4.13L21,93H21a.74.74,0,0,1-.61-.84.47.47,0,0,1,.56-.47l5.64.45-2.59-5a.6.6,0,0,1,0-.66.79.79,0,0,1,.7-.34.51.51,0,0,1,.39.31l3,5.79,5,.4-2.63-5.06a.59.59,0,0,1,0-.67.77.77,0,0,1,.69-.33.51.51,0,0,1,.4.31l3,5.88,4.07.32L36,87.74a.62.62,0,0,1,0-.67.79.79,0,0,1,.7-.34.53.53,0,0,1,.39.32l3.19,6.13,4.85.39.05-.49a14.56,14.56,0,0,1,2.32-6.61l.25-.37-3.81-3.26L38,84.2a.69.69,0,0,1-.83-.68.51.51,0,0,1,.45-.57l5-1.17L39.91,79.4,33.7,80.83a.7.7,0,0,1-.83-.68.53.53,0,0,1,.45-.58l5.35-1.23L35,75.19l-6.32,1.45a.68.68,0,0,1-.82-.68.51.51,0,0,1,.45-.57l5.45-1.26-4.11-3.52a.44.44,0,0,1-.15-.57.79.79,0,0,1,.79-.46.63.63,0,0,1,.36.17l4.15,3.55.86-5.71a.45.45,0,0,1,.56-.43.89.89,0,0,1,.57.32.69.69,0,0,1,.12.53L36,74.3l3.84,3.28.87-5.81a.45.45,0,0,1,.56-.42.89.89,0,0,1,.57.32.69.69,0,0,1,.12.53l-1,6.38,3.12,2.66.91-6.1a.45.45,0,0,1,.56-.42.89.89,0,0,1,.57.32.69.69,0,0,1,.12.53l-1,6.67,3.31,2.83.33-.35a13.38,13.38,0,0,1,1.35-1.27A15.46,15.46,0,0,1,55,80.84l.43-.15L54.29,76l-5.75-2.44a.41.41,0,0,1-.29-.54.8.8,0,0,1,1-.55l4.61,2-.86-3.58-6-2.56a.42.42,0,0,1-.28-.54.8.8,0,0,1,1-.54l4.89,2.07-1.13-4.73L45.42,62a.42.42,0,0,1-.28-.54.8.8,0,0,1,1-.54l5,2.12-1.23-5.14a.6.6,0,0,1,.13-.57.77.77,0,0,1,.68-.24.51.51,0,0,1,.45.44l1.3,5.43,4-4A.6.6,0,0,1,57,58.7a.79.79,0,0,1,.59.52.54.54,0,0,1-.16.61l-4.53,4.61L54,69.34l4-4.11a.57.57,0,0,1,.48-.19.8.8,0,0,1,.59.51.55.55,0,0,1-.16.62L54.4,70.85l.94,4,4.25-4.32a.57.57,0,0,1,.48-.19.78.78,0,0,1,.6.51.58.58,0,0,1-.16.62L55.7,76.32l1,4,.47-.09a14.9,14.9,0,0,1,7.33.47l.44.14,1.77-4.25-3.17-5.27a.54.54,0,0,1,0-.61.79.79,0,0,1,.72-.34.62.62,0,0,1,.44.31l2.64,4.4,1.41-3.38L65.38,66.2a.54.54,0,0,1,0-.61.8.8,0,0,1,.72-.34.6.6,0,0,1,.44.31l2.8,4.66,1.86-4.47-3.38-5.62a.53.53,0,0,1,0-.6.79.79,0,0,1,.72-.35.6.6,0,0,1,.44.31l2.85,4.75,2.1-5c.13-.31.31-.32.45-.3a.85.85,0,0,1,.59.42A.7.7,0,0,1,75,60l-2.08,5,5.48-.91a.77.77,0,0,1,.86.77.45.45,0,0,1-.42.48l-6.51,1.08-1.94,4.67L76,70.13a.77.77,0,0,1,.86.76.45.45,0,0,1-.42.49l-6.6,1.09-1.57,3.79,5.86-1a.78.78,0,0,1,.86.77.45.45,0,0,1-.42.48l-6.89,1.14-1.54,3.7.42.21a14.39,14.39,0,0,1,2.67,1.77A15,15,0,0,1,72,86.46l.27.41,4.11-2.52.53-6a.66.66,0,0,1,.24-.48.83.83,0,0,1,.63-.17.46.46,0,0,1,.44.55l-.46,5.24,3.14-1.92.55-6.28a.69.69,0,0,1,.25-.49.84.84,0,0,1,.62-.16.44.44,0,0,1,.44.54l-.48,5.54,4.14-2.53L87,71.83a.67.67,0,0,1,.25-.49.91.91,0,0,1,.63-.17.46.46,0,0,1,.44.55l-.5,5.65,4.56-2.79a.52.52,0,0,1,.38-.1.73.73,0,0,1,.55.58.6.6,0,0,1-.3.67l-4.71,2.88,5.12,2.56a.49.49,0,0,1,.28.64.72.72,0,0,1-1,.47l-5.73-2.86-4.3,2.63,5.2,2.6a.49.49,0,0,1,.29.64.67.67,0,0,1-1,.47l-5.82-2.91L77.83,85l5.46,2.73a.5.5,0,0,1,.29.64.72.72,0,0,1-1,.47l-6.08-3L72.88,88l.19.41a15,15,0,0,1,1.37,7l0,.49,5.2.41,4.07-4.68a.51.51,0,0,1,.44-.2.76.76,0,0,1,.56.5.63.63,0,0,1-.13.69l-3.32,3.82,3.66.29,4.27-4.91a.49.49,0,0,1,.43-.2.79.79,0,0,1,.57.5.63.63,0,0,1-.13.69l-3.52,4,4.84.39,4.33-5a.48.48,0,0,1,.44-.2.76.76,0,0,1,.56.5.63.63,0,0,1-.13.69L93,97.38l5.2.41h0a.74.74,0,0,1,.62.84A.47.47,0,0,1,98.27,99.1Z"/><path class="cls-1" d="M48.75,87l-.31.5c-.11.18-.22.36-.32.55a13.63,13.63,0,0,0-1.63,5.15l-.06.51,11.21.89ZM49,88.5h0l5.63,4.81-7.07-.56A12.73,12.73,0,0,1,49,88.5Z"/><path class="cls-1" d="M63.2,107.64l.51-.16a13.53,13.53,0,0,0,4.93-2.74l.44-.39-8.39-7.17Zm.72-1.29L62.39,100l5.14,4.39A12.29,12.29,0,0,1,63.92,106.35Z"/><path class="cls-1" d="M46.4,95l0,.58A13.93,13.93,0,0,0,48,101.09l.25.47,9.32-5.7Zm1.09,1.1,6.87.54-5.75,3.52A13,13,0,0,1,47.49,96.08Z"/><path class="cls-1" d="M48.92,102.67l.35.44a12.64,12.64,0,0,0,3.81,3.25l.55.28.48.24L58.22,97Zm4.68,2.82,0,0a11.5,11.5,0,0,1-3.14-2.54l5.67-3.48Z"/><path class="cls-1" d="M70,103.41l.33-.41a12,12,0,0,0,2.52-5.35l.12-.56-11.41-.91Zm.57-2.52a11.65,11.65,0,0,1-.71,1.07l-5.29-4.53,7.16.57A12.57,12.57,0,0,1,70.55,100.89Z"/><path class="cls-1" d="M55.31,107.35l.54.16A13.16,13.16,0,0,0,58,108a13.49,13.49,0,0,0,3.36,0l.56-.06L59.42,97.47Zm5.36-.31a12.8,12.8,0,0,1-4-.34l2.48-6Z"/><path class="cls-1" d="M55.7,81.93l-.53.18a13.14,13.14,0,0,0-5.26,3.43l-.36.39,8.93,7.64ZM55,83.26l1.8,7.53L51,85.85A12.18,12.18,0,0,1,55,83.26Z"/><path class="cls-1" d="M269.31,86.16l-.14-.22a6.27,6.27,0,0,0-2.18-2l-.16-.08-.28-.14-2.3,5.54Zm-2.5-1.75A5.6,5.6,0,0,1,268.6,86l-3.3,2Z"/><path class="cls-1" d="M270.28,90.26V90a7,7,0,0,0-.55-3l-.11-.26-5,3.08Zm-.48-.54-3.63-.29,3.22-2A6.41,6.41,0,0,1,269.8,89.72Z"/><path class="cls-1" d="M266,83.47l-.26-.08a6.91,6.91,0,0,0-3.16-.22l-.27,0L263.66,89Zm-3.07.16a6.42,6.42,0,0,1,2.39.16l-1.49,3.6Z"/><path class="cls-1" d="M282.76,90.75l-1.59-.13,1.13-1.3a.8.8,0,0,0,.15-.85.86.86,0,0,0-.68-.56.73.73,0,0,0-.66.27l-2,2.28L278,90.37l1.09-1.26a.83.83,0,0,0,.16-.85.89.89,0,0,0-.69-.57.73.73,0,0,0-.65.27l-2,2.25-.57,0,1-1.15a.82.82,0,0,0,.15-.85.88.88,0,0,0-.68-.56.73.73,0,0,0-.66.27L273.3,90l-1.85-.15a7.91,7.91,0,0,0-.64-3.26l1.19-.72,2.76,1.38a1.52,1.52,0,0,0,.28.09.88.88,0,0,0,.92-.63.74.74,0,0,0-.4-.91l-1.91-1,.73-.44L277,85.73a.92.92,0,0,0,.27.08.85.85,0,0,0,.92-.62.74.74,0,0,0-.4-.91L276,83.39l1.13-.69,2.59,1.3a1,1,0,0,0,.28.09.88.88,0,0,0,.92-.63.76.76,0,0,0-.4-.91l-1.73-.86,1.57-1a.8.8,0,0,0,.37-.87.86.86,0,0,0-.69-.68.82.82,0,0,0-.52.12l-1.41.87.15-1.81a.73.73,0,0,0-.65-.82.91.91,0,0,0-.69.2.84.84,0,0,0-.31.58l-.25,2.92-1,.61.16-1.76a.73.73,0,0,0-.66-.82.91.91,0,0,0-.68.19.84.84,0,0,0-.31.59l-.25,2.86-.5.31.14-1.61a.73.73,0,0,0-.65-.82A1,1,0,0,0,272,81a.88.88,0,0,0-.31.59l-.23,2.71-1.42.87a8.39,8.39,0,0,0-1.34-1.45,7.63,7.63,0,0,0-1.21-.83l.47-1.16,3.15-.52a.71.71,0,0,0,.63-.74.89.89,0,0,0-.75-.87.75.75,0,0,0-.26,0l-2,.33.32-.79,3-.5a.71.71,0,0,0,.63-.74.89.89,0,0,0-.76-.86.53.53,0,0,0-.25,0l-1.88.31.51-1.22,2.95-.5a.7.7,0,0,0,.63-.74.89.89,0,0,0-.75-.87.77.77,0,0,0-.26,0l-1.83.3.69-1.65a.85.85,0,0,0-.05-.76.94.94,0,0,0-.66-.46.69.69,0,0,0-.75.46l-.66,1.58-.91-1.5a.78.78,0,0,0-.58-.39.87.87,0,0,0-.84.39.74.74,0,0,0,0,.83l1.54,2.57-.44,1.07L267.45,75a.78.78,0,0,0-.58-.39A.9.9,0,0,0,266,75a.78.78,0,0,0,0,.83l1.52,2.53-.22.53-.8-1.33a.77.77,0,0,0-.58-.4.89.89,0,0,0-.84.39.77.77,0,0,0,0,.84l1.44,2.39-.6,1.46A7.78,7.78,0,0,0,262.5,82l-.3-1.27,2.19-2.22a.8.8,0,0,0,.19-.83.87.87,0,0,0-.7-.58.77.77,0,0,0-.66.24l-1.48,1.49-.19-.82,2.09-2.12a.79.79,0,0,0,.19-.82.9.9,0,0,0-.7-.59.8.8,0,0,0-.66.24l-1.37,1.4-.31-1.29,2-2.08a.78.78,0,0,0,.2-.83.88.88,0,0,0-.71-.58.75.75,0,0,0-.65.24L260.33,73l-.43-1.82a.75.75,0,0,0-.65-.6.89.89,0,0,0-.77.28.8.8,0,0,0-.18.73l.38,1.59-1.56-.66a1.19,1.19,0,0,0-.23-.07.91.91,0,0,0-1,.67.69.69,0,0,0,.43.85l2.81,1.2.27,1.14-1.52-.65a.86.86,0,0,0-.23-.06.92.92,0,0,0-1,.66.7.7,0,0,0,.43.86l2.76,1.17.14.57-1.38-.58a.62.62,0,0,0-.23-.07.9.9,0,0,0-1,.67.68.68,0,0,0,.42.85l2.62,1.12.4,1.63a7.88,7.88,0,0,0-2.29,1.31,6.47,6.47,0,0,0-.56.5L257,83.33l.46-3a.85.85,0,0,0-.16-.64.93.93,0,0,0-.62-.35.71.71,0,0,0-.83.63l-.32,2.13-.65-.55.43-2.89a.84.84,0,0,0-.15-.64.91.91,0,0,0-.62-.36.73.73,0,0,0-.84.63l-.3,2-1-.87.43-2.84a.8.8,0,0,0-.16-.64.91.91,0,0,0-.61-.35.72.72,0,0,0-.84.63l-.29,1.94L249.53,77a.84.84,0,0,0-.44-.2.88.88,0,0,0-.91.53.71.71,0,0,0,.21.86l1.28,1.1-1.74.4a.75.75,0,0,0-.6.8.85.85,0,0,0,.71.82.83.83,0,0,0,.31,0l2.88-.66.89.75-1.69.39a.75.75,0,0,0-.61.8.85.85,0,0,0,.71.82,1.1,1.1,0,0,0,.31,0l2.84-.65.43.37-1.54.35a.77.77,0,0,0-.61.8.85.85,0,0,0,.72.82.76.76,0,0,0,.3,0l2.69-.62L257,85.54A7.68,7.68,0,0,0,256,88.62l-1.65-.13-1.45-2.8a.74.74,0,0,0-.58-.42.88.88,0,0,0-.81.37.79.79,0,0,0-.05.85l1,1.84-.84-.07-1.39-2.67a.79.79,0,0,0-.58-.42.87.87,0,0,0-.81.38.79.79,0,0,0-.05.85l.89,1.71-1.32-.1-1.37-2.63a.72.72,0,0,0-.57-.42.9.9,0,0,0-.82.37.79.79,0,0,0-.05.85l.87,1.67-1.9-.15a.72.72,0,0,0-.81.68.86.86,0,0,0,.78,1l1.59.13-1.13,1.3a.81.81,0,0,0-.16.84.89.89,0,0,0,.69.57.71.71,0,0,0,.65-.27l2-2.28,1.16.09L248.08,91a.83.83,0,0,0-.15.85.87.87,0,0,0,.68.57.75.75,0,0,0,.66-.27l1.95-2.25.58,0-1,1.15a.8.8,0,0,0-.15.85.86.86,0,0,0,.68.56.73.73,0,0,0,.66-.27l1.85-2.13,2.06.16a8.21,8.21,0,0,0,.81,3l-1.56,1-2.77-1.38-.27-.09a.88.88,0,0,0-.92.63.74.74,0,0,0,.4.91l1.9,1-.72.44-2.64-1.32a.9.9,0,0,0-.28-.08.84.84,0,0,0-.91.62.74.74,0,0,0,.39.91l1.78.88-1.13.7-2.6-1.3a1,1,0,0,0-.27-.09.88.88,0,0,0-.92.63.74.74,0,0,0,.4.91l1.73.86-1.57,1a.8.8,0,0,0-.37.87.84.84,0,0,0,.69.67.76.76,0,0,0,.52-.11l1.41-.87-.16,1.81a.73.73,0,0,0,.66.81.87.87,0,0,0,.69-.19.79.79,0,0,0,.3-.58l.26-2.92,1-.61-.15,1.76a.73.73,0,0,0,.65.82.94.94,0,0,0,.69-.19.84.84,0,0,0,.31-.59l.25-2.86.5-.31-.15,1.61a.74.74,0,0,0,.66.82.91.91,0,0,0,.68-.19.81.81,0,0,0,.31-.59l.24-2.72,1.87-1.14A7.68,7.68,0,0,0,260,96.6l-.75,1.79-3.14.52a.7.7,0,0,0-.63.74.89.89,0,0,0,.75.87.76.76,0,0,0,.26,0l2-.33-.33.79-3,.5a.7.7,0,0,0-.63.74.9.9,0,0,0,.75.87,1.13,1.13,0,0,0,.26,0l1.88-.31L256.9,104l-3,.5a.71.71,0,0,0-.63.74.91.91,0,0,0,.76.87.77.77,0,0,0,.26,0l1.83-.3-.69,1.65a.82.82,0,0,0,.05.76.92.92,0,0,0,.66.46.69.69,0,0,0,.75-.46l.66-1.58.9,1.5a.8.8,0,0,0,.59.39.87.87,0,0,0,.84-.39.78.78,0,0,0,0-.83l-1.54-2.57.44-1.07.88,1.46a.78.78,0,0,0,.58.39.88.88,0,0,0,.84-.39.76.76,0,0,0,0-.83l-1.52-2.53.22-.53.8,1.33a.77.77,0,0,0,.58.4.9.9,0,0,0,.84-.39.76.76,0,0,0,0-.83l-1.44-2.4.87-2.12a8.08,8.08,0,0,0,3,.27l.45,1.88-2.19,2.22a.78.78,0,0,0-.19.83.87.87,0,0,0,.7.58.78.78,0,0,0,.66-.24l1.47-1.5.2.83-2.09,2.12a.79.79,0,0,0-.19.82.88.88,0,0,0,.7.59.8.8,0,0,0,.66-.24l1.37-1.4.31,1.29-2.05,2.08a.78.78,0,0,0-.2.83.88.88,0,0,0,.7.58.76.76,0,0,0,.66-.24l1.34-1.36.44,1.82a.75.75,0,0,0,.65.6.89.89,0,0,0,.77-.28.8.8,0,0,0,.18-.73l-.38-1.59,1.56.66a1,1,0,0,0,.23.07.91.91,0,0,0,1-.67.7.7,0,0,0-.43-.86L268,105l-.27-1.14,1.51.65a1.05,1.05,0,0,0,.24.06.91.91,0,0,0,1-.66A.7.7,0,0,0,270,103l-2.76-1.17-.13-.57,1.37.58a.73.73,0,0,0,.24.07.9.9,0,0,0,1-.67.69.69,0,0,0-.43-.85l-2.62-1.12-.51-2.16a3.52,3.52,0,0,0,.42-.15,7.55,7.55,0,0,0,2.26-1.38l1.36,1.17-.46,3a.85.85,0,0,0,.16.64.91.91,0,0,0,.61.35.71.71,0,0,0,.84-.63l.32-2.13.65.55-.43,2.89a.8.8,0,0,0,.15.64.94.94,0,0,0,.62.36.72.72,0,0,0,.83-.63l.3-2,1,.87-.42,2.84a.84.84,0,0,0,.15.64.93.93,0,0,0,.62.35.7.7,0,0,0,.83-.63l.3-1.94,1.37,1.18a.88.88,0,0,0,.44.2h0a.91.91,0,0,0,.92-.53.72.72,0,0,0-.21-.86l-1.29-1.1,1.74-.4a.76.76,0,0,0,.61-.8.86.86,0,0,0-.71-.82.81.81,0,0,0-.31,0l-2.89.66-.88-.75,1.69-.39a.76.76,0,0,0,.61-.8.86.86,0,0,0-.72-.82,1,1,0,0,0-.3,0l-2.84.65-.43-.37,1.54-.36a.75.75,0,0,0,.61-.79.85.85,0,0,0-.72-.82.76.76,0,0,0-.3,0l-2.69.62-1.56-1.34a8.23,8.23,0,0,0,.53-.78,8.15,8.15,0,0,0,.81-2.12l1.59.12,1.45,2.8a.74.74,0,0,0,.57.42.89.89,0,0,0,.82-.37.79.79,0,0,0,.05-.85l-1-1.84.85.07L277,94.51a.79.79,0,0,0,.57.42.9.9,0,0,0,.82-.38.79.79,0,0,0,0-.85L277.57,92l1.32.1,1.36,2.63a.76.76,0,0,0,.58.42.91.91,0,0,0,.82-.37.84.84,0,0,0,.05-.85l-.87-1.67,1.9.15a.73.73,0,0,0,.81-.68A.86.86,0,0,0,282.76,90.75Zm0,1.15-2.8-.22,1.28,2.47a.3.3,0,0,1,0,.33.43.43,0,0,1-.35.17.23.23,0,0,1-.19-.16l-1.5-2.87-2.49-.2,1.3,2.51a.28.28,0,0,1,0,.33.36.36,0,0,1-.34.17.25.25,0,0,1-.2-.16L276,91.36l-2-.16,1.37,2.64a.3.3,0,0,1,0,.33.41.41,0,0,1-.34.17.26.26,0,0,1-.2-.16l-1.58-3L270.85,91l0,.22a7.38,7.38,0,0,1-.8,2.19,7.79,7.79,0,0,1-.63.91l-.15.19,2.11,1.81,2.94-.68a.35.35,0,0,1,.41.34.27.27,0,0,1-.22.29L272,96.8,273.34,98l3.08-.71a.34.34,0,0,1,.41.33.25.25,0,0,1-.22.29L274,98.5l1.83,1.57,3.13-.73a.35.35,0,0,1,.41.34.26.26,0,0,1-.22.29l-2.71.62,2,1.75a.22.22,0,0,1,.08.28.39.39,0,0,1-.39.23.48.48,0,0,1-.18-.08L275.88,101l-.43,2.84a.22.22,0,0,1-.28.21.5.5,0,0,1-.28-.16.39.39,0,0,1-.06-.26l.47-3.12-1.91-1.63-.43,2.88a.22.22,0,0,1-.28.21.39.39,0,0,1-.28-.16.33.33,0,0,1-.06-.26l.48-3.17-1.55-1.32-.45,3a.23.23,0,0,1-.28.21.46.46,0,0,1-.28-.16.31.31,0,0,1-.06-.26l.49-3.31-1.9-1.63-.17.15a7.27,7.27,0,0,1-2.26,1.43l-.61.2-.23.07.68,2.86,2.86,1.22a.2.2,0,0,1,.14.26.4.4,0,0,1-.52.27l-2.29-1,.43,1.78,3,1.27a.21.21,0,0,1,.14.27.4.4,0,0,1-.52.27L267,103l.56,2.34,3,1.29a.21.21,0,0,1,.14.27.4.4,0,0,1-.52.27l-2.47-1,.61,2.55a.28.28,0,0,1-.06.28.39.39,0,0,1-.34.12c-.12,0-.19-.09-.23-.22l-.64-2.69-2,2a.27.27,0,0,1-.24.1.41.41,0,0,1-.3-.26.29.29,0,0,1,.08-.31l2.25-2.28-.58-2.43-2,2a.28.28,0,0,1-.24.09.39.39,0,0,1-.29-.25.29.29,0,0,1,.08-.31l2.28-2.32-.47-2-2.11,2.14a.26.26,0,0,1-.24.1.4.4,0,0,1-.29-.26.27.27,0,0,1,.08-.3l2.38-2.42-.62-2.59-.22,0a7.58,7.58,0,0,1-3.24-.29l-.22-.07-1.14,2.77,1.57,2.61a.27.27,0,0,1,0,.3.37.37,0,0,1-.36.17.27.27,0,0,1-.21-.15l-1.31-2.19-.7,1.68,1.65,2.75a.27.27,0,0,1,0,.3.41.41,0,0,1-.36.17.33.33,0,0,1-.21-.16l-1.39-2.31-.92,2.22,1.67,2.79a.26.26,0,0,1,0,.3.41.41,0,0,1-.36.17.31.31,0,0,1-.22-.16l-1.41-2.35-1,2.5c-.07.15-.16.16-.22.15a.41.41,0,0,1-.3-.21.34.34,0,0,1,0-.32l1-2.49-2.72.46a.38.38,0,0,1-.42-.38A.22.22,0,0,1,254,105l3.22-.54,1-2.31-2.77.46a.39.39,0,0,1-.43-.38.22.22,0,0,1,.21-.24l3.28-.55.78-1.87-2.91.48a.38.38,0,0,1-.43-.38.23.23,0,0,1,.21-.24l3.42-.57,1-2.47-.21-.11a7,7,0,0,1-2.54-2.06l-.14-.18-2.47,1.51-.26,3a.32.32,0,0,1-.12.25.47.47,0,0,1-.31.08.22.22,0,0,1-.22-.27l.23-2.6-1.56,1-.27,3.12a.35.35,0,0,1-.12.24.47.47,0,0,1-.31.08.22.22,0,0,1-.22-.27l.24-2.75-2.06,1.26-.28,3.16a.32.32,0,0,1-.12.25.47.47,0,0,1-.31.08.23.23,0,0,1-.22-.27l.25-2.8-2.27,1.38a.26.26,0,0,1-.18,0,.38.38,0,0,1-.28-.29.29.29,0,0,1,.15-.33l2.34-1.43-2.54-1.27a.25.25,0,0,1-.14-.32.36.36,0,0,1,.49-.23L250,98l2.14-1.31-2.58-1.29a.24.24,0,0,1-.14-.32.35.35,0,0,1,.49-.23l2.88,1.44,1.73-1.06-2.71-1.35a.25.25,0,0,1-.14-.32.36.36,0,0,1,.49-.23l3,1.5,2.19-1.34-.11-.21a7.62,7.62,0,0,1-.87-3.23V89.8l-2.75-.22-2,2.33a.26.26,0,0,1-.21.1.37.37,0,0,1-.28-.25.32.32,0,0,1,.06-.35l1.65-1.89L251,89.37l-2.12,2.44a.22.22,0,0,1-.21.1.37.37,0,0,1-.28-.25.33.33,0,0,1,.06-.34l1.75-2-2.4-.19-2.15,2.47a.24.24,0,0,1-.22.1.37.37,0,0,1-.28-.24.34.34,0,0,1,.06-.35l1.79-2-2.58-.21h0a.37.37,0,0,1-.31-.42.24.24,0,0,1,.28-.23l2.8.22L245.9,86a.3.3,0,0,1,0-.33.41.41,0,0,1,.34-.17.25.25,0,0,1,.2.16l1.49,2.87,2.5.2-1.31-2.51a.3.3,0,0,1,0-.33.36.36,0,0,1,.34-.17.25.25,0,0,1,.2.15l1.51,2.92,2,.16-1.37-2.64a.28.28,0,0,1,0-.33.4.4,0,0,1,.34-.17.26.26,0,0,1,.2.16L254,89l2.4.19,0-.24a7.33,7.33,0,0,1,1.15-3.28l.13-.18-1.89-1.62-2.94.68a.35.35,0,0,1-.41-.34.26.26,0,0,1,.22-.29l2.51-.58-1.38-1.18-3.08.71a.34.34,0,0,1-.41-.33.25.25,0,0,1,.22-.29l2.65-.61L251.37,80l-3.14.73a.34.34,0,0,1-.4-.34.25.25,0,0,1,.22-.29l2.7-.62-2-1.75a.21.21,0,0,1-.07-.28.39.39,0,0,1,.39-.23.48.48,0,0,1,.18.08l2.06,1.77.43-2.84a.21.21,0,0,1,.27-.21.46.46,0,0,1,.28.16.33.33,0,0,1,.07.26l-.47,3.12,1.9,1.63.44-2.88a.22.22,0,0,1,.28-.21.4.4,0,0,1,.28.16.38.38,0,0,1,.06.26l-.48,3.17L255.88,83l.45-3a.23.23,0,0,1,.28-.21.46.46,0,0,1,.28.16.3.3,0,0,1,.06.26l-.5,3.31,1.65,1.41.16-.18a6.59,6.59,0,0,1,.67-.63,7.7,7.7,0,0,1,2.35-1.29l.22-.08-.56-2.31-2.85-1.22A.2.2,0,0,1,258,79a.4.4,0,0,1,.52-.27l2.29,1-.43-1.78-3-1.27a.2.2,0,0,1-.14-.27.4.4,0,0,1,.52-.27l2.43,1-.57-2.34-3-1.29a.22.22,0,0,1-.15-.27.4.4,0,0,1,.52-.27l2.48,1-.61-2.55a.28.28,0,0,1,.06-.28.38.38,0,0,1,.34-.12.24.24,0,0,1,.22.22l.65,2.69,2-2a.26.26,0,0,1,.24-.1.4.4,0,0,1,.29.26.27.27,0,0,1-.07.3l-2.25,2.29.58,2.43,2-2a.27.27,0,0,1,.23-.09.4.4,0,0,1,.3.25.29.29,0,0,1-.08.31L261,77.88l.47,2,2.11-2.14a.26.26,0,0,1,.23-.1.41.41,0,0,1,.3.26.27.27,0,0,1-.08.3l-2.38,2.42.48,2,.23,0a7.31,7.31,0,0,1,3.63.23l.22.07.88-2.11-1.57-2.61a.27.27,0,0,1,0-.3.38.38,0,0,1,.36-.17.28.28,0,0,1,.22.15L267.4,80l.7-1.67-1.65-2.75a.27.27,0,0,1,0-.3.43.43,0,0,1,.36-.17.32.32,0,0,1,.22.16l1.39,2.31.92-2.22-1.67-2.79a.26.26,0,0,1,0-.3.4.4,0,0,1,.36-.17.31.31,0,0,1,.22.16l1.41,2.35,1-2.5c.06-.15.16-.16.22-.15a.44.44,0,0,1,.3.21.37.37,0,0,1,0,.32l-1,2.49,2.72-.46a.39.39,0,0,1,.43.38.22.22,0,0,1-.21.24l-3.23.54-1,2.31,2.77-.46a.39.39,0,0,1,.43.38.22.22,0,0,1-.21.24l-3.28.55-.78,1.87,2.91-.48a.39.39,0,0,1,.43.38.23.23,0,0,1-.21.24l-3.42.56-.76,1.84.2.1a7.11,7.11,0,0,1,2.71,2.43l.13.2,2-1.25.26-3a.32.32,0,0,1,.13-.24.47.47,0,0,1,.31-.08.23.23,0,0,1,.22.27l-.23,2.6,1.55-1,.28-3.12a.35.35,0,0,1,.12-.24.42.42,0,0,1,.31-.08.22.22,0,0,1,.22.27l-.24,2.75,2.06-1.26.27-3.16a.33.33,0,0,1,.13-.25.47.47,0,0,1,.31-.08.23.23,0,0,1,.22.27l-.25,2.8,2.26-1.38a.29.29,0,0,1,.19,0,.35.35,0,0,1,.27.29.3.3,0,0,1-.14.33l-2.34,1.43L280.34,83a.26.26,0,0,1,.14.32.36.36,0,0,1-.49.23l-2.85-1.42L275,83.44l2.58,1.29a.24.24,0,0,1,.14.32.37.37,0,0,1-.37.27l-.12,0-2.89-1.44-1.73,1,2.72,1.36a.26.26,0,0,1,.14.32.36.36,0,0,1-.49.23l-3-1.51-1.8,1.11.09.2a7.36,7.36,0,0,1,.68,3.47v.24l2.59.21,2-2.33a.24.24,0,0,1,.21-.1.39.39,0,0,1,.28.25.3.3,0,0,1-.06.34l-1.65,1.9,1.81.14,2.12-2.43a.24.24,0,0,1,.22-.1.39.39,0,0,1,.28.25.33.33,0,0,1-.06.34l-1.75,2,2.4.19,2.15-2.48a.26.26,0,0,1,.22-.09.37.37,0,0,1,.28.24.33.33,0,0,1-.07.34L280.14,91l2.58.21h0a.37.37,0,0,1,.31.42A.24.24,0,0,1,282.77,91.9Z"/><path class="cls-1" d="M258.2,85.88l-.16.24c-.05.09-.11.18-.16.28a6.8,6.8,0,0,0-.8,2.55l0,.26,5.56.44Zm.12.76h0L261.11,89l-3.5-.28A6.2,6.2,0,0,1,258.32,86.64Z"/><path class="cls-1" d="M265.36,96.14l.26-.08a6.79,6.79,0,0,0,2.45-1.36l.21-.19L264.12,91Zm.37-.64L265,92.33l2.54,2.18A6.48,6.48,0,0,1,265.73,95.5Z"/><path class="cls-1" d="M257,89.85l0,.29a6.88,6.88,0,0,0,.75,2.75l.13.23,4.62-2.83Zm.54.55,3.41.27-2.85,1.74A6,6,0,0,1,257.57,90.4Z"/><path class="cls-1" d="M258.28,93.67l.17.22a6.39,6.39,0,0,0,1.9,1.61l.27.14.24.12,2-4.92Zm2.32,1.4h0A5.77,5.77,0,0,1,259,93.8l2.81-1.72Z"/><path class="cls-1" d="M268.73,94l.16-.2a7.19,7.19,0,0,0,.56-.8,6.83,6.83,0,0,0,.69-1.86l.06-.28-5.66-.45Zm.29-1.25a6.18,6.18,0,0,1-.36.53L266,91.07l3.56.28A6.45,6.45,0,0,1,269,92.79Z"/><path class="cls-1" d="M261.45,96l.27.07a6.47,6.47,0,0,0,1.06.23,7.18,7.18,0,0,0,1.67,0l.28,0-1.24-5.18Zm2.66-.16a6.31,6.31,0,0,1-2-.17l1.23-3Z"/><path class="cls-1" d="M261.64,83.38l-.26.09a6.47,6.47,0,0,0-2.61,1.7l-.18.19,4.44,3.8Zm-.35.66.89,3.73-2.86-2.45A6.09,6.09,0,0,1,261.29,84Z"/><path class="cls-1" d="M99.17,193.81l-.48-.54-.21.69a11.2,11.2,0,0,0-.33,4.19l.71,1.84.24,0a26,26,0,0,1,5.88,1.34l1.52.54-1.08-1.19C103.35,198.45,101.25,196.12,99.17,193.81Zm.54,5.47-.28,0L99,198a10.76,10.76,0,0,1,.13-3.11c1.57,1.74,3.15,3.49,4.72,5.21A26.55,26.55,0,0,0,99.71,199.28Z"/><path class="cls-1" d="M75.92,201.68a1.56,1.56,0,0,0-1.15.3,1.4,1.4,0,0,0-.5,1,1.53,1.53,0,0,0,3,.39v0A1.54,1.54,0,0,0,75.92,201.68Zm-.22,2.18a.71.71,0,0,1-.63-.8.64.64,0,0,1,.21-.45.69.69,0,0,1,.54-.13.75.75,0,0,1,.69.78A.71.71,0,0,1,75.7,203.86Z"/><path class="cls-1" d="M93.7,195.8l-.56-.31,0,.64c-.15,2.66-.29,5.41-.41,8.17l-.09,1.9.85-1.7a15.48,15.48,0,0,1,3.78-5,.33.33,0,0,1,.12-.06l.73-.13-.5-.54A15.38,15.38,0,0,0,93.7,195.8Zm-.12,6.81c.1-2,.19-3.89.3-5.78A15,15,0,0,1,96.64,199,16,16,0,0,0,93.58,202.61Z"/><path class="cls-1" d="M103.59,214.5a1.52,1.52,0,0,0,1.71-1.27v0a1.6,1.6,0,0,0-2-1.63l-.07,0-.08,0-.07,0a1.37,1.37,0,0,0-.82,1.2A1.53,1.53,0,0,0,103.59,214.5Zm-.21-2.12.15,0a.88.88,0,0,1,.28,0,.74.74,0,0,1,.69.78.7.7,0,0,1-.8.6.72.72,0,0,1-.64-.8A.6.6,0,0,1,103.38,212.38Z"/><path class="cls-1" d="M105.59,182.79l-.16-.48-.41.25,0,0-.06,0a15.61,15.61,0,0,0-2.74,3.86l-.28.55.62,0c2.75.15,5.45.29,8,.41l1.94.09-1.74-.86a15.43,15.43,0,0,1-5.08-3.83A.21.21,0,0,1,105.59,182.79Zm-2.41,3.52a15.14,15.14,0,0,1,2-2.75,15.81,15.81,0,0,0,3.66,3Z"/><path class="cls-1" d="M81.33,211.65a1.43,1.43,0,0,0-.5,1,1.53,1.53,0,0,0,3,.39v0a1.55,1.55,0,0,0-1.39-1.67A1.6,1.6,0,0,0,81.33,211.65Zm1.75,1.29a.73.73,0,0,1-1.44-.21.6.6,0,0,1,.2-.45.75.75,0,0,1,.54-.13A.76.76,0,0,1,83.08,212.94Z"/><path class="cls-1" d="M108.93,205.76a1.5,1.5,0,0,0,1.71-1.26v0a1.55,1.55,0,0,0-1.4-1.67,1.58,1.58,0,0,0-1.15.3,1.41,1.41,0,0,0-.5,1A1.51,1.51,0,0,0,108.93,205.76Zm-.32-2a.69.69,0,0,1,.54-.13.75.75,0,0,1,.69.78.7.7,0,0,1-.8.6.71.71,0,0,1-.63-.8A.6.6,0,0,1,108.61,203.72Z"/><path class="cls-1" d="M91,210.37a1.53,1.53,0,0,0,3,.39v0a1.59,1.59,0,0,0-2.55-1.36A1.41,1.41,0,0,0,91,210.37Zm1-.39a.75.75,0,0,1,.54-.13.76.76,0,0,1,.7.79.73.73,0,0,1-1.44-.21A.6.6,0,0,1,92,210Z"/><path class="cls-1" d="M119.56,177.87a1.5,1.5,0,0,0,1.71-1.26v-.05a1.55,1.55,0,0,0-1.4-1.66,1.48,1.48,0,0,0-1.15.3,1.41,1.41,0,0,0-.5,1A1.51,1.51,0,0,0,119.56,177.87Zm-.32-2a.69.69,0,0,1,.54-.13.74.74,0,0,1,.69.78.69.69,0,0,1-.8.59.7.7,0,0,1-.64-.8A.64.64,0,0,1,119.24,175.83Z"/><path class="cls-1" d="M110.41,172.68a1.51,1.51,0,0,0,1.71-1.27v0a1.55,1.55,0,0,0-1.4-1.67,1.53,1.53,0,0,0-1.15.31,1.37,1.37,0,0,0-.5,1A1.51,1.51,0,0,0,110.41,172.68Zm-.32-2.05a.73.73,0,0,1,.54-.13.75.75,0,0,1,.69.79.7.7,0,0,1-.81.59.71.71,0,0,1-.63-.8A.64.64,0,0,1,110.09,170.63Z"/><path class="cls-1" d="M118.88,196.62a1.51,1.51,0,0,0-1.16.3,1.41,1.41,0,0,0-.5,1,1.53,1.53,0,0,0,3,.4v-.05A1.55,1.55,0,0,0,118.88,196.62Zm-.22,2.17a.71.71,0,0,1-.64-.8.64.64,0,0,1,.21-.44.69.69,0,0,1,.54-.13.74.74,0,0,1,.69.78A.69.69,0,0,1,118.66,198.79Z"/><path class="cls-1" d="M67.59,197.19l0-.1a.49.49,0,0,1,0-.11l0-.1a1.6,1.6,0,0,0-1.25-.86,1.48,1.48,0,0,0-1.15.3,1.37,1.37,0,0,0-.5,1A1.5,1.5,0,0,0,65.91,199a1.52,1.52,0,0,0,1.71-1.27v0A2,2,0,0,0,67.59,197.19Zm-1.58,1a.71.71,0,0,1-.63-.8.54.54,0,0,1,.21-.44.69.69,0,0,1,.54-.13.78.78,0,0,1,.6.37,1.43,1.43,0,0,0,.08.22,1.15,1.15,0,0,1,0,.19A.7.7,0,0,1,66,198.19Z"/><path class="cls-1" d="M104.76,162.12a1.5,1.5,0,0,0,1.71-1.26v0a1.59,1.59,0,0,0-2.54-1.37,1.38,1.38,0,0,0-.5,1A1.5,1.5,0,0,0,104.76,162.12Zm-.32-2A.69.69,0,0,1,105,160a.75.75,0,0,1,.69.78.73.73,0,0,1-1.44-.21A.64.64,0,0,1,104.44,160.08Z"/><path class="cls-1" d="M119.14,195.21a2.64,2.64,0,0,0-2.15.57c-2.61-1.09-5.38-2.27-8.44-3.57a25.66,25.66,0,0,1,5.56-3,3.21,3.21,0,0,0,2.16,1.47,2.93,2.93,0,0,0,3.24-2.24,1.57,1.57,0,0,0,.06-.28,1.22,1.22,0,0,0,0-.27,3,3,0,0,0-2.51-3,2.85,2.85,0,0,0-3,1.67,17,17,0,0,1-6.65-3.85c0-.09,0-.18,0-.26,3.51-1.4,7-2.79,10.21-4.12a3.3,3.3,0,0,0,1.74.93,2.93,2.93,0,0,0,3.23-2.25.73.73,0,0,0,.06-.26.93.93,0,0,0,0-.29,2.91,2.91,0,0,0-5.8-.5,1.75,1.75,0,0,0,0,.32c-2.88,1.18-5.88,2.39-9.14,3.69a25.31,25.31,0,0,1,1.81-6.13,3,3,0,0,0,.72.22,2.92,2.92,0,0,0,3.23-2.25,1.31,1.31,0,0,0,.06-.27.82.82,0,0,0,0-.27,2.92,2.92,0,0,0-5.81-.5,2.7,2.7,0,0,0,0,1.06,16.85,16.85,0,0,1-7.53,2h0c1.56-3.64,3-7,4.4-10.34a2.91,2.91,0,0,0,3.2-2.25.88.88,0,0,0,.06-.28.8.8,0,0,0,0-.27,2.91,2.91,0,0,0-5.8-.5,2.6,2.6,0,0,0,.61,2.2c-1.24,2.95-2.57,6.07-4,9.53a25.22,25.22,0,0,1-3.23-5.86,3.21,3.21,0,0,0,1.61-2,.9.9,0,0,0,.07-.27,2.53,2.53,0,0,0,0-.28,2.92,2.92,0,0,0-5.81-.49A2.8,2.8,0,0,0,92.74,166,17.15,17.15,0,0,1,89,172.63c-1.42-3.57-2.83-7.11-4.21-10.51a3.45,3.45,0,0,0,.88-1.5,1.31,1.31,0,0,0,.06-.27,1.22,1.22,0,0,0,0-.27,2.92,2.92,0,0,0-5.81-.5,2.66,2.66,0,0,0,.59,2.18,3.33,3.33,0,0,0,1.91,1.11l.3,0c1.25,3.07,2.51,6.22,3.86,9.6a25.6,25.6,0,0,1-6.68-1.92A3.09,3.09,0,0,0,80,170a.87.87,0,0,0,0-.28,2.92,2.92,0,1,0-3.31,2.8,2.6,2.6,0,0,0,1.3-.09,17,17,0,0,1,2,7.36c-3.76-1.62-7.22-3.1-10.53-4.5a2.92,2.92,0,0,0-5.81-.41,2.63,2.63,0,0,0,.59,2.17,3.24,3.24,0,0,0,1.91,1.12,2.66,2.66,0,0,0,2.45-.85c3,1.25,6.1,2.59,9.57,4.08a25.38,25.38,0,0,1-5.75,3.21,1.21,1.21,0,0,0-.46.17,3,3,0,0,0-2.2-1.62,3,3,0,0,0-3.3,2.51A3,3,0,0,0,69,189a2.81,2.81,0,0,0,3-1.65,17,17,0,0,1,6.86,3.92v.08c-3.66,1.45-7.22,2.87-10.58,4.23a3.14,3.14,0,0,0-1.77-1,3,3,0,0,0-3.3,2.5,2.92,2.92,0,0,0,5.74,1,1.57,1.57,0,0,0,.06-.28.91.91,0,0,0,0-.23c3-1.22,6.17-2.48,9.59-3.84a25.61,25.61,0,0,1-1.95,6.58,3.9,3.9,0,0,0-.46-.12,3,3,0,0,0-3.3,2.5,2.62,2.62,0,0,0,.6,2.18,3.27,3.27,0,0,0,1.9,1.12,3,3,0,0,0,3.24-2.25,1.31,1.31,0,0,0,.06-.27.87.87,0,0,0,0-.28,3.12,3.12,0,0,0-.2-1.11,17,17,0,0,1,7.55-2l.24.27c-1.48,3.43-2.8,6.56-4.05,9.52a3,3,0,0,0-2.78,2.55,2.94,2.94,0,0,0,2.5,3.29l.14,0a2.94,2.94,0,0,0,3.09-2.27.9.9,0,0,0,.07-.27,2.53,2.53,0,0,0,0-.28,3,3,0,0,0-1-2.25c1.08-2.57,2.24-5.31,3.55-8.36a25.45,25.45,0,0,1,3.08,5.74,3.25,3.25,0,0,0-1.34,2.08,2.66,2.66,0,0,0,.59,2.18,3.33,3.33,0,0,0,1.91,1.11,2.91,2.91,0,0,0,3.23-2.25.9.9,0,0,0,.07-.27,2.44,2.44,0,0,0,0-.27,3,3,0,0,0-1.82-2.8,16.81,16.81,0,0,1,3.82-6.57l.5,0c1.39,3.47,2.66,6.62,3.88,9.61a3.26,3.26,0,0,0-.88,1.69,2.92,2.92,0,0,0,5.73,1.07,1.45,1.45,0,0,0,.06-.29,1.27,1.27,0,0,0,0-.28,3,3,0,0,0-2.52-3l-.38,0c-1.11-2.71-2.23-5.49-3.42-8.47a25,25,0,0,1,6,1.81,4.05,4.05,0,0,0-.12.47,2.62,2.62,0,0,0,.59,2.18,3.26,3.26,0,0,0,1.91,1.12,2.92,2.92,0,0,0,3.23-2.25.9.9,0,0,0,.07-.27,1.27,1.27,0,0,0,0-.26,3,3,0,0,0-2.52-3,2.53,2.53,0,0,0-1.31.11,16.74,16.74,0,0,1-2-7.41l.35-.32c3.27,1.4,6.3,2.69,9.26,3.93v0a2.94,2.94,0,0,0,2.5,3.3l.14,0h0a2.94,2.94,0,0,0,3.09-2.27.9.9,0,0,0,.07-.27,1.31,1.31,0,0,0,0-.28A3,3,0,0,0,119.14,195.21Zm1.7,3.19a.29.29,0,0,1,0,.09v0a2.12,2.12,0,0,1-2.32,1.68,2.16,2.16,0,0,1-1.85-2.35c0-.1,0-.19.07-.29l.12-.35-.34-.14c-3.13-1.31-6.34-2.67-9.81-4.16l-.24-.1-.19.17c-.23.2-.47.41-.69.62l-.13.11v.18a17.85,17.85,0,0,0,2.22,8.29l.19.37.37-.2a1.7,1.7,0,0,1,1.17-.18,2.18,2.18,0,0,1,1.85,2.25v.14a.29.29,0,0,1,0,.09v0a2.14,2.14,0,0,1-2.32,1.69,2.53,2.53,0,0,1-1.43-.84A1.84,1.84,0,0,1,107,204a2.21,2.21,0,0,1,.22-.64l.19-.38-.38-.17a26.26,26.26,0,0,0-7.25-2.15l-.69-.1.25.65c1.34,3.33,2.58,6.4,3.8,9.4l.11.27.29,0a1.46,1.46,0,0,1,.47,0,2.17,2.17,0,0,1,1.86,2.22v.18a.87.87,0,0,1,0,.13,2.11,2.11,0,0,1-4.17-.68,2.41,2.41,0,0,1,.83-1.42l.22-.19-.11-.28c-1.28-3.13-2.61-6.44-4.07-10.1l-.1-.23-.25,0-1-.06h-.18l-.12.12a17.76,17.76,0,0,0-4.28,7.4l-.13.4.41.11a2.15,2.15,0,0,1,1.63,2.17v.05a.11.11,0,0,1,0,.08v.05a.16.16,0,0,1,0,.09v0a2.13,2.13,0,0,1-2.32,1.68,2.48,2.48,0,0,1-1.43-.84,1.83,1.83,0,0,1-.42-1.52,2.43,2.43,0,0,1,1.23-1.68l.32-.16-.12-.34a26,26,0,0,0-3.73-6.83l-.42-.55-.27.63c-1.47,3.43-2.76,6.47-3.95,9.29l-.12.3.26.19a2.13,2.13,0,0,1,.89,1.82v0a.26.26,0,0,1,0,.09v0a.18.18,0,0,1,0,.09v0A2.13,2.13,0,0,1,82.11,215a2.12,2.12,0,0,1,.35-4.23l.3,0,.11-.27c1.31-3.11,2.7-6.39,4.26-10l.1-.23-.17-.19q-.27-.31-.54-.6l-.12-.13h-.17a17.92,17.92,0,0,0-8.44,2.3l-.37.19.2.36a2.14,2.14,0,0,1,.27,1.12v.05a.25.25,0,0,1,0,.09v.05a.51.51,0,0,1,0,.09l0,0a2.1,2.1,0,0,1-2.31,1.68,2.43,2.43,0,0,1-1.43-.83,1.84,1.84,0,0,1-.42-1.52A2.16,2.16,0,0,1,76,201.07a2.8,2.8,0,0,1,.64.2l.36.18.18-.37a25.88,25.88,0,0,0,2.27-7.85l.09-.67-.64.25c-3.77,1.49-7.2,2.87-10.49,4.2l-.28.11,0,.29a2.45,2.45,0,0,0,0,.25.22.22,0,0,1,0,.09v.05s0,.06,0,.09l0,0a2.12,2.12,0,0,1-2.31,1.68,2.12,2.12,0,1,1,.5-4.21,2.26,2.26,0,0,1,1.46.9l.18.26.3-.12c3.52-1.42,7.25-2.92,11.1-4.44l.23-.09,0-.26c0-.18,0-.35,0-.52V191l-.12-.12a18,18,0,0,0-7.66-4.36l-.37-.12-.14.37a2.1,2.1,0,0,1-2.25,1.49,2.12,2.12,0,1,1,2.24-2.75l.13.4.39-.14c.13-.05.27-.09.4-.15l.06,0,.05,0a.44.44,0,0,1,.16-.06l.12,0a26.2,26.2,0,0,0,6.55-3.77l.53-.42-.62-.27c-3.83-1.65-7.26-3.11-10.48-4.47l-.28-.12-.19.25a1.93,1.93,0,0,1-1.87.79,2.47,2.47,0,0,1-1.44-.84,1.83,1.83,0,0,1-.42-1.52,2.11,2.11,0,0,1,4.21.37v0a.11.11,0,0,1,0,.08l0,.3.28.12c3.49,1.47,7.11,3,11.1,4.73l.23.11.2-.18.25-.23.13-.12v-.17a17.74,17.74,0,0,0-2.25-8.34l-.19-.37-.36.19a1.77,1.77,0,0,1-1.15.18,2.12,2.12,0,1,1,2.36-2V170a.37.37,0,0,1,0,.09l0,0a2.16,2.16,0,0,1-.2.51l-.19.37.38.18a25.83,25.83,0,0,0,8,2.25l.67.08-.25-.63c-1.47-3.71-2.85-7.15-4.21-10.49l-.11-.27-.28,0a2.83,2.83,0,0,1-.41,0,2.47,2.47,0,0,1-1.44-.84,1.83,1.83,0,0,1-.42-1.52,2.11,2.11,0,0,1,4.21.37v0a.14.14,0,0,1,0,.09v0a.47.47,0,0,1,0,.09v0a2.5,2.5,0,0,1-.84,1.29l-.23.18.11.29c1.46,3.59,3,7.34,4.46,11.11l.1.25.73,0,.12-.12a17.9,17.9,0,0,0,4.32-7.54l.12-.35-.34-.14a2.08,2.08,0,0,1-1.34-2.2,2.11,2.11,0,0,1,4.21.37v.17a.44.44,0,0,1,0,.1v0a2.32,2.32,0,0,1-1.47,1.62l-.41.13.15.4a26.06,26.06,0,0,0,3.9,7l.42.53.27-.62c1.63-3.81,3.08-7.21,4.42-10.4l.11-.25-.2-.2a1.86,1.86,0,0,1-.57-1.68,2.11,2.11,0,0,1,4.21.36v.18a.29.29,0,0,1,0,.09v0a2.16,2.16,0,0,1-2.22,1.7l-.1,0-.24-.06-.34-.1-.14.34c-1.47,3.48-3,7-4.63,10.88l-.11.24.18.19c.1.11.2.23.31.34l.12.13H100a17.85,17.85,0,0,0,8.38-2.27l.33-.17-.13-.34a1.74,1.74,0,0,1-.1-1,2.11,2.11,0,0,1,4.21.37v.18a.37.37,0,0,1,0,.09v0a2.14,2.14,0,0,1-2.32,1.68,2.54,2.54,0,0,1-.78-.29l-.3-.18-.22.28,0,0-.15.14,0,.08a26.26,26.26,0,0,0-2,7.21l-.09.68.64-.25c3.61-1.44,6.9-2.77,10-4l.27-.11,0-.29a1.49,1.49,0,0,1,0-.42,2.15,2.15,0,0,1,2.35-1.86,2.17,2.17,0,0,1,1.86,2.22v.05a.78.78,0,0,1,0,.13.29.29,0,0,1,0,.09v0a2.14,2.14,0,0,1-2.32,1.68,2.42,2.42,0,0,1-1.45-.86l-.19-.24-.28.11c-3.42,1.4-7,2.85-10.7,4.32l-.24.1,0,.25,0,.71v.17l.12.13a17.75,17.75,0,0,0,7.45,4.29l.38.13.13-.38a2.11,2.11,0,0,1,2.26-1.51,2.17,2.17,0,0,1,1.85,2.22v0a.31.31,0,0,1,0,.1v0s0,.06,0,.09l0,0a2.12,2.12,0,0,1-2.31,1.68,2.35,2.35,0,0,1-1.74-1.34l-.15-.36-.36.14A25.86,25.86,0,0,0,107.5,192l-.56.42.64.27c3.41,1.46,6.46,2.75,9.33,4l.25.11.19-.19A1.86,1.86,0,0,1,119,196a2.18,2.18,0,0,1,1.86,2.22v.18Z"/><path class="cls-1" d="M116.48,189.3a1.52,1.52,0,0,0,1.71-1.27v0a1.54,1.54,0,0,0-1.39-1.66,1.48,1.48,0,0,0-1.15.3,1.37,1.37,0,0,0-.5,1A1.5,1.5,0,0,0,116.48,189.3Zm-.33-2a.73.73,0,0,1,.55-.13.74.74,0,0,1,.69.78.73.73,0,0,1-1.44-.21A.56.56,0,0,1,116.15,187.26Z"/><path class="cls-1" d="M105,192.8l.43-.42-.54-.24-.11,0h-.07a15.77,15.77,0,0,0-4.84.71l-.6.19.42.47c1.79,2,3.6,4,5.37,5.95l1.26,1.38-.58-1.78a15.43,15.43,0,0,1-.8-6.06A.16.16,0,0,1,105,192.8Zm-.49,4.81-3.8-4.21a15,15,0,0,1,3.42-.5A15.8,15.8,0,0,0,104.46,197.61Z"/><path class="cls-1" d="M69.51,184.61a1.52,1.52,0,0,0-1.15.31,1.37,1.37,0,0,0-.5,1,1.53,1.53,0,0,0,3,.39v0A1.54,1.54,0,0,0,69.51,184.61Zm-.22,2.18a.71.71,0,0,1-.63-.8.64.64,0,0,1,.21-.45.73.73,0,0,1,.54-.13.75.75,0,0,1,.69.79A.7.7,0,0,1,69.29,186.79Z"/><path class="cls-1" d="M66.7,173.83a1.51,1.51,0,0,0-1.16.3,1.45,1.45,0,0,0-.5,1,1.52,1.52,0,0,0,1.34,1.66,1.5,1.5,0,0,0,1.7-1.27v0A1.54,1.54,0,0,0,66.7,173.83ZM66.48,176a.7.7,0,0,1-.63-.8.6.6,0,0,1,.2-.45.79.79,0,0,1,1.24.66A.7.7,0,0,1,66.48,176Z"/><path class="cls-1" d="M77.25,168.17a1.52,1.52,0,0,0-1.15.31,1.37,1.37,0,0,0-.5,1,1.53,1.53,0,0,0,3,.39v0A1.54,1.54,0,0,0,77.25,168.17ZM77,170.35a.71.71,0,0,1-.63-.8.64.64,0,0,1,.21-.45.78.78,0,0,1,.54-.13.75.75,0,0,1,.69.79A.7.7,0,0,1,77,170.35Z"/><path class="cls-1" d="M84.31,160.17v0a1.53,1.53,0,0,0-1.39-1.66,1.51,1.51,0,0,0-1.16.3,1.45,1.45,0,0,0-.5,1,1.51,1.51,0,0,0,1.34,1.66H83l.1-.09a.36.36,0,0,1,.29-.1h.15l.13-.08a1.52,1.52,0,0,0,.61-1Zm-1,.29a1.16,1.16,0,0,0-.59.2.7.7,0,0,1-.65-.8.6.6,0,0,1,.2-.45.77.77,0,0,1,.55-.13.75.75,0,0,1,.69.79A.81.81,0,0,1,83.31,160.46Z"/><path class="cls-1" d="M112.88,188.18l-1.58-.08c-2.91-.13-5.82-.27-8.64-.43l-.75,0,.38.65a12.13,12.13,0,0,0,3,3.29l.08.08.06.1.92.39.19-.15a25.86,25.86,0,0,1,4.93-3.12Zm-6.66,3-.28-.11a.71.71,0,0,0-.15-.15,12.26,12.26,0,0,1-2.38-2.43l6.36.32A27.76,27.76,0,0,0,106.22,191.21Z"/><path class="cls-1" d="M92.54,195.79l0-.7-.62.32a10.51,10.51,0,0,0-3,2.35l0,.05-1,2.32.15.19a25.55,25.55,0,0,1,3.24,5.11l.7,1.44.07-1.59C92.21,202.11,92.37,198.91,92.54,195.79ZM88.84,200l.75-1.75a10.23,10.23,0,0,1,2.11-1.77c-.13,2.4-.25,4.83-.37,7.26A26.42,26.42,0,0,0,88.84,200Z"/><path class="cls-1" d="M94.09,174.92l-.08,3,.61-.33a11.62,11.62,0,0,0,3.57-3.15l.06-.06.32-.25-.26-.32a26.43,26.43,0,0,1-3.3-5.11l-.71-1.45,0,1.61C94.18,170.9,94.14,172.91,94.09,174.92Zm3.38-.84a11.77,11.77,0,0,1-2.62,2.45l0-1.59c0-1.5.07-3,.12-4.5A25.81,25.81,0,0,0,97.47,174.08Z"/><path class="cls-1" d="M97.58,177.88q-1.33,3.09-2.69,6.18l-.73,1.69,1.37-1.22,3.33-3,.18-.16-.06-.23a.39.39,0,0,1,0-.24l.08-.15-.06-.16a15.6,15.6,0,0,1-.68-2.65l-.22-1.34Zm.64,2.87a1.34,1.34,0,0,0,0,.35l-1.8,1.61c.48-1.12,1-2.23,1.45-3.34C97.93,179.84,98.07,180.3,98.22,180.75Z"/><path class="cls-1" d="M95.68,163.67v0a1.59,1.59,0,0,0-2.55-1.36,1.41,1.41,0,0,0-.5,1,1.53,1.53,0,0,0,3,.39Zm-2.23-.33a.6.6,0,0,1,.2-.45.73.73,0,0,1,.54-.13.74.74,0,0,1,.69.79.69.69,0,0,1-.8.59A.7.7,0,0,1,93.45,163.34Z"/><path class="cls-1" d="M81.37,181h.41a15.48,15.48,0,0,0,4.5-.63l.63-.18-2.38-2.53L81,174l-1.34-1.44.67,1.85a16.09,16.09,0,0,1,1,6.23Zm2.57-2.78,1.47,1.55a14.72,14.72,0,0,1-3.21.42,15.75,15.75,0,0,0-.56-4.41C82.41,176.63,83.18,177.44,83.94,178.26Z"/><path class="cls-1" d="M99.51,180.23l.19.58.46-.41c2-1.8,4.07-3.66,6.13-5.55l1.53-1.39-1.94.72a15.85,15.85,0,0,1-6.74,1.06l-.44,0v.45A15.57,15.57,0,0,0,99.51,180.23Zm4.87-4.73-4.29,3.88a15,15,0,0,1-.56-3.31A15.73,15.73,0,0,0,104.38,175.5Z"/><path class="cls-1" d="M84,186l.68,0-.3-.62a10.69,10.69,0,0,0-2.64-3.31l-1.39-.62-.19.16a25.78,25.78,0,0,1-4.74,3.17l-1.33.69,1.5.07C78.44,185.71,81.27,185.85,84,186Zm-3.51-3.57.76.33a10.21,10.21,0,0,1,2.07,2.4L77,184.84A27.24,27.24,0,0,0,80.49,182.43Z"/><path class="cls-1" d="M91,183.82l1.46,1.6-.79-2c-.72-1.86-1.45-3.71-2.18-5.57L89,176.39l-.21,1.53a8.69,8.69,0,0,1-.64,2.38l-.1.24.18.2C89.13,181.76,90.09,182.79,91,183.82Zm-1.76-4.43.9,2.3-1.23-1.32A9.38,9.38,0,0,0,89.27,179.39Z"/><path class="cls-1" d="M91,184.64c-1.06-1.16-2.19-2.4-3.48-3.77l-.17-.18-.25.08a16.13,16.13,0,0,1-3.32.74l-1.49.17,1.37.6,6.88,3,1.74.76Zm-5.74-2.55a14.35,14.35,0,0,0,1.85-.48l2,2.17Z"/><path class="cls-1" d="M81.82,191l1.43-.56,7-2.76,1.72-.67-1.84-.11-5.07-.29-.26,0-.12.24a16.3,16.3,0,0,1-1.94,3Zm3.51-3.57,3,.16-4,1.57A16.28,16.28,0,0,0,85.33,187.47Z"/><path class="cls-1" d="M85.29,186.07l.26,0,3.93.22,2.26.14-2.07-.91-5-2.16-1.29-.56.79,1.16a8.7,8.7,0,0,1,1,1.85Zm2-.69-1.43-.08c-.09-.23-.2-.46-.31-.68Z"/><path class="cls-1" d="M92.86,177.44l.58.31.07-2.95c0-1.77.09-3.53.14-5.29l.06-1.89-.82,1.7a15.77,15.77,0,0,1-3.62,4.93l-.32.29.31.3A15.77,15.77,0,0,0,92.86,177.44Zm-.06-6.26q-.06,1.8-.09,3.6l0,1.63a15.13,15.13,0,0,1-2.53-1.86A15.68,15.68,0,0,0,92.8,171.18Z"/><path class="cls-1" d="M100.74,180.66l-.57.51.74.19a9.32,9.32,0,0,0,1.1.2,13.16,13.16,0,0,0,3.26,0,.27.27,0,0,1,.2,0l.21.08.41-.16,0-.25a27.23,27.23,0,0,1,1.16-5.5l.48-1.45-1.13,1C104.62,177.16,102.64,179,100.74,180.66Zm4.62.08h-.18a12.51,12.51,0,0,1-3.31,0c1.38-1.24,2.8-2.52,4.22-3.82A26.91,26.91,0,0,0,105.36,180.74Z"/><path class="cls-1" d="M85,177.32l2.15,2.28.47.5.21-.65a11.5,11.5,0,0,0,.38-4.95l-.12-.43-.26,0a25.77,25.77,0,0,1-6-1.23l-1.5-.5,1.07,1.15Zm2.43-2.49a11.28,11.28,0,0,1-.17,3.7c-.56-.58-1.11-1.17-1.67-1.76L83,174A28.25,28.25,0,0,0,87.39,174.83Z"/><path class="cls-1" d="M86.35,192.69l.51-.46-.65-.23a10.07,10.07,0,0,0-3.87-.51h-.07l-2.09.82,0,.25a26.24,26.24,0,0,1-1.22,5.82l-.49,1.47,1.15-1C81.81,196.77,84.09,194.71,86.35,192.69Zm-5.42.19,1.51-.59a10.16,10.16,0,0,1,2.84.27c-1.72,1.55-3.45,3.11-5.16,4.67A26.21,26.21,0,0,0,80.93,192.88Z"/><path class="cls-1" d="M94.24,189.88l-.67-1.7L93.46,190l-.27,4.6v.27l.24.11a17.29,17.29,0,0,1,2.69,1.69l1.16.9-.54-1.36Q95.47,193,94.24,189.88Zm-.23,4.5.15-2.5,1.32,3.36C95,194.93,94.51,194.64,94,194.38Z"/><path class="cls-1" d="M93.41,178.75v-.12l-.06-.1,0-.08-.06-.15-.15-.07a16.94,16.94,0,0,1-2.63-1.6l-1.14-.85.52,1.32q1.31,3.3,2.6,6.63l.69,1.77.09-1.9C93.3,182.09,93.36,180.5,93.41,178.75ZM91.09,178a16,16,0,0,0,1.51.84c0,1-.06,1.89-.09,2.77C92,180.44,91.57,179.23,91.09,178Z"/><path class="cls-1" d="M98.18,193l.09-.23-.17-.18c-.79-.89-1.58-1.77-2.36-2.66l-1.51-1.69.83,2.11L96.89,195l.53,1.35.24-1.44A9.18,9.18,0,0,1,98.18,193Zm-1,.48-.52-1.32.7.78Z"/><path class="cls-1" d="M88.92,196.3c1-2.23,1.93-4.46,2.91-6.69l.73-1.68-1.37,1.22-3.64,3.24-.19.18.08.25a16.46,16.46,0,0,1,.71,3.36l.16,1.53Zm-.64-3.48L90.35,191c-.53,1.24-1.07,2.47-1.61,3.71A16.83,16.83,0,0,0,88.28,192.82Z"/><path class="cls-1" d="M93,188.47l-.91,2.07c-.64,1.47-1.28,2.93-1.91,4.4l-.54,1.24,1.13-.75a10.29,10.29,0,0,1,1.64-.86l.24-.09v-.26c.07-1.16.13-2.33.2-3.49Zm-1.6,5.67.53-1.2-.06,1Z"/><path class="cls-1" d="M87.08,191.72l.23.1.2-.17,2.75-2.45,1.68-1.49-2.1.81-4.68,1.83-1.25.5,1.32.27A9.75,9.75,0,0,1,87.08,191.72Zm1-1.63-.88.79c-.18-.08-.38-.15-.57-.22Z"/><path class="cls-1" d="M96.52,186.74l4.26.25H101l.13-.17a.4.4,0,0,1,.18-.13l.15-.06.07-.14a15.62,15.62,0,0,1,1.35-2.29l.78-1.1-1.26.49-6,2.36-1.7.67Zm5-1.92c-.24.39-.45.79-.65,1.2a.86.86,0,0,0-.22.15L98.4,186Z"/><path class="cls-1" d="M102.42,183l1.57-.62-1.68-.16a9.07,9.07,0,0,1-2.38-.51l-.23-.08-.18.16-3,2.71L94.79,186l2.11-.83Zm-2.54-.45c.29.09.58.17.88.24l-2.05.81Z"/><path class="cls-1" d="M97.09,177.55l.66-1.52-1.29,1.05a9.72,9.72,0,0,1-2.23,1.37l-.24.11v.25c0,1.46-.09,2.89-.15,4.26l-.09,2.15.86-2Q95.85,180.4,97.09,177.55Zm-2.3,1.54a10.37,10.37,0,0,0,1-.53l-1,2.4Z"/><path class="cls-1" d="M102.54,189.68a9.53,9.53,0,0,1-1.16-1.86l-.1-.22-.24,0-3.78-.21L95,187.23l2.08.91,5,2.16,1.46.63Zm-3.06-1.38,1.27.08c.11.21.22.42.35.62Z"/><path class="cls-1" d="M98.64,192.34l.11,0,.07,0,.15.07.16-.06a16.72,16.72,0,0,1,2.83-.7l1.38-.22-1.28-.55c-2-.86-4-1.71-5.93-2.58l-1.68-.73L95.66,189l2.9,3.25Zm1.91-1.18a15.16,15.16,0,0,0-1.5.43l-1.57-1.76Z"/><path class="cls-1" d="M80.69,191.22l.3-.29a15.34,15.34,0,0,0,2.92-3.77l.32-.57-.65,0c-2.77-.15-5.69-.29-8.7-.43l-2.16-.1,2,.87a16.14,16.14,0,0,1,5.72,4Zm2.19-3.89a14.75,14.75,0,0,1-2.14,2.73,16.45,16.45,0,0,0-4-3C78.86,187.12,80.91,187.22,82.88,187.33Z"/><path class="cls-1" d="M87.07,193.6l-.18-.62-.48.43c-2,1.8-4.12,3.72-6.28,5.68l-1.49,1.36,1.9-.68a15.71,15.71,0,0,1,6.61-1l.48.07,0-.45A15.74,15.74,0,0,0,87.07,193.6Zm-5,4.86c1.51-1.37,3-2.72,4.44-4a14.43,14.43,0,0,1,.39,3.49A15.83,15.83,0,0,0,82,198.46Z"/><path class="cls-1" d="M241.87,153.16l-.3-.33-.12.43a6.74,6.74,0,0,0-.21,2.6l.44,1.15h.15a16.6,16.6,0,0,1,3.66.84l.94.33-.67-.74C244.47,156.05,243.16,154.6,241.87,153.16Zm.34,3.4-.17,0-.3-.76a6.68,6.68,0,0,1,.08-1.93c1,1.09,2,2.17,2.93,3.24A17.38,17.38,0,0,0,242.21,156.56Z"/><path class="cls-1" d="M227.42,158.06a.9.9,0,0,0-.72.19.83.83,0,0,0-.31.62.94.94,0,0,0,.82,1,1,1,0,0,0,1.07-.79h0v0A1,1,0,0,0,227.42,158.06Zm-.14,1.35a.43.43,0,0,1-.39-.5.38.38,0,0,1,.12-.27.49.49,0,0,1,.34-.09.47.47,0,0,1,.43.49A.44.44,0,0,1,227.28,159.41Z"/><path class="cls-1" d="M238.47,154.4l-.34-.19,0,.39c-.09,1.66-.17,3.37-.25,5.08l-.06,1.19.53-1.06a9.51,9.51,0,0,1,2.35-3.09.12.12,0,0,1,.08,0l.45-.08-.31-.34A9.51,9.51,0,0,0,238.47,154.4Zm-.07,4.24q.09-1.83.18-3.6a9.06,9.06,0,0,1,1.72,1.33A9.8,9.8,0,0,0,238.4,158.64Z"/><path class="cls-1" d="M244.62,166a1,1,0,0,0,1.07-.79h0v0a1,1,0,0,0-1.25-1h0l-.05,0h0a.85.85,0,0,0-.51.75A.94.94,0,0,0,244.62,166Zm-.13-1.32.09,0h.18a.47.47,0,0,1,.43.49.44.44,0,0,1-.5.37.44.44,0,0,1-.4-.5A.38.38,0,0,1,244.49,164.71Z"/><path class="cls-1" d="M245.86,146.31l-.1-.3-.25.16h0l0,0a9.75,9.75,0,0,0-1.7,2.4l-.17.34.38,0c1.71.09,3.39.18,5,.25l1.2.06-1.08-.53a9.77,9.77,0,0,1-3.16-2.39A.21.21,0,0,1,245.86,146.31Zm-1.49,2.19a8.74,8.74,0,0,1,1.23-1.71,9.61,9.61,0,0,0,2.28,1.89Z"/><path class="cls-1" d="M230.78,164.26a.89.89,0,0,0-.31.63,1,1,0,0,0,1.89.24h0a1,1,0,0,0-.86-1A1,1,0,0,0,230.78,164.26Zm1.08.8a.42.42,0,0,1-.5.36.43.43,0,0,1-.39-.49.36.36,0,0,1,.13-.28.4.4,0,0,1,.33-.08A.46.46,0,0,1,231.86,165.06Z"/><path class="cls-1" d="M247.94,160.6a1,1,0,0,0,1.07-.79h0v0a1,1,0,0,0-.87-1,.89.89,0,0,0-.71.19.83.83,0,0,0-.31.62A.94.94,0,0,0,247.94,160.6Zm-.2-1.28a.54.54,0,0,1,.34-.08.47.47,0,0,1,.43.49.44.44,0,0,1-.5.37.43.43,0,0,1-.39-.5A.43.43,0,0,1,247.74,159.32Z"/><path class="cls-1" d="M236.76,163.46a1,1,0,0,0,.83,1,.93.93,0,0,0,1.06-.79h0a1,1,0,0,0-.87-1,1,1,0,0,0-.72.19A.89.89,0,0,0,236.76,163.46Zm.63-.24a.43.43,0,0,1,.34-.08.46.46,0,0,1,.43.49.43.43,0,0,1-.5.36.43.43,0,0,1-.4-.49A.39.39,0,0,1,237.39,163.22Z"/><path class="cls-1" d="M254.55,143.25a.94.94,0,0,0,1.07-.79h0a1,1,0,0,0-.87-1,1,1,0,0,0-.71.19.82.82,0,0,0-.31.63A.94.94,0,0,0,254.55,143.25Zm-.2-1.27a.44.44,0,0,1,.34-.08.46.46,0,0,1,.43.49.45.45,0,0,1-.89-.13A.39.39,0,0,1,254.35,142Z"/><path class="cls-1" d="M248.86,140a.94.94,0,0,0,1.07-.79h0a1,1,0,0,0-1.58-.85.85.85,0,0,0-.31.63A.94.94,0,0,0,248.86,140Zm-.2-1.27a.44.44,0,0,1,.34-.08.46.46,0,0,1,.43.49.45.45,0,0,1-.89-.13A.39.39,0,0,1,248.66,138.75Z"/><path class="cls-1" d="M254.13,154.91a.94.94,0,0,0-.72.19.87.87,0,0,0-.31.63A1,1,0,0,0,255,156h0v0A1,1,0,0,0,254.13,154.91Zm-.14,1.35a.43.43,0,0,1-.39-.5.35.35,0,0,1,.13-.27.4.4,0,0,1,.33-.08.46.46,0,0,1,.43.48A.43.43,0,0,1,254,156.26Z"/><path class="cls-1" d="M222.23,155.26l0-.06a.14.14,0,0,1,0-.07l0-.06a1,1,0,0,0-.77-.54,1,1,0,0,0-.72.19.89.89,0,0,0-.31.63,1,1,0,0,0,1.89.25v0h0A1.06,1.06,0,0,0,222.23,155.26Zm-1,.63a.44.44,0,0,1-.39-.5.37.37,0,0,1,.13-.28.4.4,0,0,1,.33-.08.49.49,0,0,1,.38.24.69.69,0,0,0,.05.13.48.48,0,0,1,0,.12A.43.43,0,0,1,221.25,155.89Z"/><path class="cls-1" d="M245.35,133.46a.94.94,0,0,0,1.06-.79h0v0a1,1,0,0,0-.87-1,.9.9,0,0,0-.72.19.87.87,0,0,0-.31.63A.94.94,0,0,0,245.35,133.46Zm-.2-1.27a.43.43,0,0,1,.34-.08.47.47,0,0,1,.43.48.44.44,0,0,1-.51.37.44.44,0,0,1-.39-.5A.35.35,0,0,1,245.15,132.19Z"/><path class="cls-1" d="M254.29,154a1.61,1.61,0,0,0-1.33.36l-5.25-2.22a15.52,15.52,0,0,1,3.45-1.85,2.07,2.07,0,0,0,1.35.92,1.83,1.83,0,0,0,2-1.4,1,1,0,0,0,0-.17,1,1,0,0,0,0-.17,1.87,1.87,0,0,0-1.57-1.87,1.77,1.77,0,0,0-1.87,1,10.55,10.55,0,0,1-4.14-2.39c0-.06,0-.11,0-.17,2.18-.87,4.32-1.73,6.35-2.56a2,2,0,0,0,1.08.58,1.82,1.82,0,0,0,2-1.4.55.55,0,0,0,0-.16.36.36,0,0,0,0-.18,1.81,1.81,0,0,0-3.61-.31,1.36,1.36,0,0,0,0,.2l-5.68,2.29a15.74,15.74,0,0,1,1.12-3.81,2.15,2.15,0,0,0,.45.14,1.82,1.82,0,0,0,2-1.4.85.85,0,0,0,0-.17.48.48,0,0,0,0-.17,1.81,1.81,0,0,0-3.61-.31,1.63,1.63,0,0,0,0,.66,10.65,10.65,0,0,1-4.69,1.27h0c1-2.26,1.87-4.37,2.73-6.43a1.8,1.8,0,0,0,2-1.4.35.35,0,0,0,0-.17,1,1,0,0,0,0-.17,1.87,1.87,0,0,0-1.56-1.87,1.85,1.85,0,0,0-2.05,1.56,1.66,1.66,0,0,0,.38,1.37c-.77,1.83-1.6,3.77-2.52,5.92a15.77,15.77,0,0,1-2-3.64,2,2,0,0,0,1-1.25.55.55,0,0,0,0-.17.49.49,0,0,0,0-.17A1.81,1.81,0,0,0,237,134a1.75,1.75,0,0,0,.92,1.81,10.52,10.52,0,0,1-2.36,4.14c-.88-2.22-1.76-4.42-2.62-6.54a2,2,0,0,0,.55-.93.85.85,0,0,0,0-.17.48.48,0,0,0,0-.17,1.84,1.84,0,0,0-1.56-1.86,1.86,1.86,0,0,0-2.05,1.55,1.67,1.67,0,0,0,.37,1.36,2,2,0,0,0,1.19.69l.19,0c.77,1.91,1.56,3.87,2.39,6a16.07,16.07,0,0,1-4.15-1.2l.06-.17a1,1,0,0,0,0-.17,1,1,0,0,0,0-.17,1.81,1.81,0,0,0-3.61-.31,1.84,1.84,0,0,0,1.55,2,1.58,1.58,0,0,0,.81-.06,10.52,10.52,0,0,1,1.24,4.58c-2.34-1-4.49-1.93-6.55-2.8a1.81,1.81,0,0,0-3.61-.26,1.63,1.63,0,0,0,.37,1.36,2,2,0,0,0,1.18.69,1.67,1.67,0,0,0,1.53-.53l6,2.54a16.14,16.14,0,0,1-3.58,2,.67.67,0,0,0-.28.1,1.88,1.88,0,0,0-1.38-1,1.82,1.82,0,0,0-.49,3.6,1.74,1.74,0,0,0,1.87-1,10.57,10.57,0,0,1,4.27,2.43v0c-2.28.9-4.49,1.79-6.58,2.63a2,2,0,0,0-1.11-.6,1.84,1.84,0,0,0-2,1.55,1.81,1.81,0,0,0,3.56.66.58.58,0,0,0,0-.18.71.71,0,0,0,0-.14l6-2.39a16,16,0,0,1-1.21,4.1,1.57,1.57,0,0,0-.29-.08,1.84,1.84,0,0,0-2.05,1.56,1.6,1.6,0,0,0,.37,1.35,2.08,2.08,0,0,0,1.19.7,1.83,1.83,0,0,0,2-1.4,1.36,1.36,0,0,0,0-.17.49.49,0,0,0,0-.17,2,2,0,0,0-.12-.7,10.65,10.65,0,0,1,4.69-1.27l.15.17c-.92,2.13-1.74,4.07-2.52,5.92a1.88,1.88,0,0,0-1.73,1.58,1.84,1.84,0,0,0,1.56,2.05h.09a1.82,1.82,0,0,0,1.92-1.41.53.53,0,0,0,0-.17.91.91,0,0,0,0-.17,1.86,1.86,0,0,0-.61-1.4c.67-1.6,1.4-3.3,2.21-5.2a15.55,15.55,0,0,1,1.91,3.57,2.07,2.07,0,0,0-.83,1.29,1.63,1.63,0,0,0,.37,1.36,2,2,0,0,0,1.18.69,1.82,1.82,0,0,0,2-1.4.51.51,0,0,0,0-.17.47.47,0,0,0,0-.17,1.83,1.83,0,0,0-1.13-1.73,10.2,10.2,0,0,1,2.38-4.09h.31c.86,2.16,1.65,4.12,2.41,6a2,2,0,0,0-.55,1.06,1.84,1.84,0,0,0,1.56,2,1.81,1.81,0,0,0,2-1.39.65.65,0,0,0,.05-.18.48.48,0,0,0,0-.17A1.85,1.85,0,0,0,245,163.3l-.24,0c-.69-1.69-1.38-3.42-2.13-5.27a15.83,15.83,0,0,1,3.72,1.12c0,.1-.06.2-.08.3a1.6,1.6,0,0,0,.37,1.35,2.08,2.08,0,0,0,1.19.7,1.83,1.83,0,0,0,2-1.4,1.36,1.36,0,0,0,0-.17.4.4,0,0,0,0-.16,1.86,1.86,0,0,0-1.56-1.88,1.53,1.53,0,0,0-.82.07,10.45,10.45,0,0,1-1.22-4.61l.22-.2c2,.87,3.92,1.67,5.76,2.44v0a1.84,1.84,0,0,0,1.56,2h.09a1.82,1.82,0,0,0,1.92-1.41,1,1,0,0,0,0-.17,1,1,0,0,0,0-.17A1.87,1.87,0,0,0,254.29,154Zm1.06,2a.09.09,0,0,1,0,0v0a1.32,1.32,0,0,1-1.44,1,1.34,1.34,0,0,1-1.15-1.46,1.16,1.16,0,0,1,0-.18l.07-.22-.21-.08c-1.94-.82-3.94-1.66-6.1-2.59l-.14-.06-.12.1-.43.39-.08.07v.11a11,11,0,0,0,1.38,5.15l.12.23.22-.12a1.09,1.09,0,0,1,.73-.11,1.34,1.34,0,0,1,1.15,1.4s0,0,0,.06h0v0l0,0v0a1.33,1.33,0,0,1-1.44,1,1.48,1.48,0,0,1-.89-.52,1.14,1.14,0,0,1-.27-.94,1.9,1.9,0,0,1,.14-.4l.12-.23-.24-.11a16.3,16.3,0,0,0-4.51-1.34l-.43-.06.16.4c.83,2.07,1.6,4,2.36,5.85l.07.17.19,0a1.41,1.41,0,0,1,.29,0,1.34,1.34,0,0,1,1.15,1.38v.09h0v0s0,0,0,.08a1.32,1.32,0,0,1-2.6-.42,1.56,1.56,0,0,1,.52-.89l.14-.12-.07-.17c-.8-2-1.63-4-2.53-6.28l-.06-.14-.16,0-.59,0h-.11l-.08.07a11.08,11.08,0,0,0-2.66,4.6l-.08.25.26.07a1.34,1.34,0,0,1,1,1.35v.1h0s0,0,0,.06v0a1.31,1.31,0,0,1-1.44,1,1.65,1.65,0,0,1-.89-.52,1.16,1.16,0,0,1-.26-1,1.53,1.53,0,0,1,.76-1l.2-.1-.07-.2a16,16,0,0,0-2.32-4.25l-.26-.35-.17.4c-.91,2.13-1.72,4-2.45,5.78l-.08.18.16.12a1.35,1.35,0,0,1,.56,1.13v0a.07.07,0,0,1,0,.05v0h0a.13.13,0,0,1,0,.06v0a1.32,1.32,0,0,1-1.44,1.05,1.32,1.32,0,0,1,.22-2.63l.19,0,.07-.17c.81-1.94,1.68-4,2.64-6.23l.07-.14-.11-.12-.33-.38-.08-.08h-.1a11.18,11.18,0,0,0-5.25,1.43l-.23.12.12.23a1.33,1.33,0,0,1,.17.69v0a.06.06,0,0,1,0,.06h0v0a.17.17,0,0,1,0,.05v0a1.32,1.32,0,0,1-1.44,1,1.48,1.48,0,0,1-.89-.52,1.1,1.1,0,0,1-.26-.94,1.33,1.33,0,0,1,1.46-1.15,1.42,1.42,0,0,1,.4.12l.22.11.11-.23a16,16,0,0,0,1.42-4.88l.05-.42-.4.16c-2.34.93-4.48,1.78-6.52,2.61l-.17.07v.18s0,.09,0,.16v.06h0v0a.11.11,0,0,1,0,0v0a1.32,1.32,0,0,1-1.44,1.05,1.32,1.32,0,0,1,.31-2.62,1.4,1.4,0,0,1,.91.56l.12.16.18-.07c2.19-.89,4.51-1.82,6.9-2.76l.15-.06v-.16c0-.11,0-.22,0-.33v-.11l-.08-.07a11.14,11.14,0,0,0-4.76-2.71l-.23-.08-.09.23a1.3,1.3,0,0,1-1.4.93,1.32,1.32,0,1,1,1.4-1.71l.08.25.24-.09.25-.09h0l0,0a.23.23,0,0,1,.1,0h.07a16,16,0,0,0,4.07-2.35l.33-.26-.38-.16c-2.39-1-4.51-1.94-6.52-2.78l-.18-.08-.11.16a1.2,1.2,0,0,1-1.17.49,1.51,1.51,0,0,1-.89-.52,1.15,1.15,0,0,1-.26-.95,1.32,1.32,0,0,1,2.62.23v.07l0,.2.18.07c2.16.91,4.42,1.87,6.9,2.94l.14.06.12-.1.16-.15.08-.07v-.11a11,11,0,0,0-1.4-5.19l-.11-.22-.23.11a1.11,1.11,0,0,1-.71.12,1.36,1.36,0,0,1-1.16-1.47,1.32,1.32,0,0,1,2.62.23v.1h0a.14.14,0,0,1,0,.06v0a1.79,1.79,0,0,1-.13.32l-.12.23.24.11a16,16,0,0,0,4.95,1.4l.41.05-.15-.39c-.92-2.31-1.78-4.45-2.62-6.53l-.07-.16h-.18a1.1,1.1,0,0,1-.25,0,1.51,1.51,0,0,1-.89-.52,1.15,1.15,0,0,1-.26-.95,1.31,1.31,0,0,1,2.61.23v0a.06.06,0,0,1,0,.06h0s0,0,0,.06v0a1.54,1.54,0,0,1-.52.8l-.15.11.07.18c.91,2.24,1.84,4.56,2.77,6.91l.06.15.46,0,.08-.07a11.11,11.11,0,0,0,2.68-4.69l.07-.22-.21-.09a1.29,1.29,0,0,1-.83-1.36,1.32,1.32,0,0,1,2.62.23v.08h0v0s0,0,0,.05v0a1.41,1.41,0,0,1-.91,1l-.25.08.09.25a16.12,16.12,0,0,0,2.42,4.34l.26.33.17-.39c1-2.37,1.92-4.48,2.75-6.47l.07-.15-.12-.12a1.21,1.21,0,0,1-.36-1.05,1.34,1.34,0,0,1,1.47-1.15,1.35,1.35,0,0,1,1.15,1.38v.08h0v0a.09.09,0,0,1,0,.05v0a1.33,1.33,0,0,1-1.38,1h-.06l-.14,0-.22-.07-.09.21c-.91,2.17-1.85,4.38-2.88,6.77l-.06.15.11.12.19.21.07.08h.11a11.05,11.05,0,0,0,5.22-1.42l.2-.1-.09-.21a1.26,1.26,0,0,1-.06-.61,1.32,1.32,0,0,1,2.62.23v0s0,0,0,.05v0h0a.14.14,0,0,1,0,.06v0a1.32,1.32,0,0,1-1.44,1,1.81,1.81,0,0,1-.49-.18l-.19-.11-.13.17,0,0-.1.08,0,0a16.15,16.15,0,0,0-1.27,4.49l-.06.42.4-.16c2.24-.9,4.29-1.72,6.24-2.52l.17-.06v-.18a1.22,1.22,0,0,1,0-.27,1.32,1.32,0,0,1,2.62.23v0s0,0,0,.08a.14.14,0,0,1,0,.06v0a1.34,1.34,0,0,1-1.44,1,1.53,1.53,0,0,1-.91-.54l-.11-.15-.18.07c-2.12.87-4.36,1.77-6.65,2.69l-.15.06v.15c0,.15,0,.3,0,.45v.1l.08.08a11,11,0,0,0,4.63,2.67l.23.08.08-.23a1.31,1.31,0,0,1,1.41-.94,1.34,1.34,0,0,1,1.15,1.38v0a.11.11,0,0,1,0,.06h0v0s0,0,0,0v0a1.32,1.32,0,0,1-1.44,1,1.43,1.43,0,0,1-1.08-.83l-.1-.22-.22.08a16.11,16.11,0,0,0-4.15,2.26l-.34.26.4.17,5.8,2.45.15.07.12-.12a1.15,1.15,0,0,1,1-.33,1.34,1.34,0,0,1,1.15,1.38v0a.09.09,0,0,1,0,.05v0Z"/><path class="cls-1" d="M252.64,150.36a.94.94,0,0,0,1.06-.79h0v0a1,1,0,0,0-.86-1,.9.9,0,0,0-.72.19.84.84,0,0,0-.31.63A.94.94,0,0,0,252.64,150.36Zm-.2-1.27a.4.4,0,0,1,.33-.08.46.46,0,0,1,.43.48.45.45,0,0,1-.89-.13A.35.35,0,0,1,252.44,149.09Z"/><path class="cls-1" d="M245.47,152.53l.27-.25-.34-.16-.07,0h0a9.79,9.79,0,0,0-3,.45l-.37.11.26.29c1.12,1.25,2.24,2.49,3.35,3.7l.78.87-.36-1.11a9.68,9.68,0,0,1-.5-3.77A.12.12,0,0,1,245.47,152.53Zm-.31,3-2.36-2.61a8.63,8.63,0,0,1,2.13-.31A9.72,9.72,0,0,0,245.16,155.52Z"/><path class="cls-1" d="M223.43,147.44a1,1,0,0,0-.72.19.89.89,0,0,0-.31.63,1,1,0,0,0,1.89.25v0h0A1,1,0,0,0,223.43,147.44Zm-.14,1.36a.45.45,0,0,1-.39-.5A.37.37,0,0,1,223,148a.42.42,0,0,1,.34-.08.47.47,0,0,1,.43.49A.45.45,0,0,1,223.29,148.8Z"/><path class="cls-1" d="M221.68,140.73a1,1,0,0,0-.72.19.89.89,0,0,0-.31.63,1,1,0,0,0,1.89.25v0h0A1,1,0,0,0,221.68,140.73Zm-.14,1.36a.44.44,0,0,1-.39-.5.37.37,0,0,1,.13-.28.42.42,0,0,1,.34-.08.47.47,0,0,1,.43.49A.45.45,0,0,1,221.54,142.09Z"/><path class="cls-1" d="M228.24,137.22a1,1,0,0,0-.71.19.86.86,0,0,0-.32.63,1,1,0,0,0,.83,1,.94.94,0,0,0,1.07-.79h0A1,1,0,0,0,228.24,137.22Zm-.13,1.35a.42.42,0,0,1-.39-.49.35.35,0,0,1,.12-.28.44.44,0,0,1,.34-.08.46.46,0,0,1,.43.48A.42.42,0,0,1,228.11,138.57Z"/><path class="cls-1" d="M232.63,132.24h0a1,1,0,0,0-.86-1,1,1,0,0,0-.72.19.89.89,0,0,0-.31.63.93.93,0,0,0,.83,1h.26l.06-.06a.21.21,0,0,1,.18-.06h.1l.07-.06a.93.93,0,0,0,.39-.62Zm-.62.18a.72.72,0,0,0-.37.13.43.43,0,0,1-.4-.5.37.37,0,0,1,.13-.28.44.44,0,0,1,.33-.08.46.46,0,0,1,.43.49A.46.46,0,0,1,232,132.42Z"/><path class="cls-1" d="M250.4,149.66l-1,0-5.38-.26-.46,0,.23.4a7.32,7.32,0,0,0,1.87,2.05l0,0,0,.06.57.25.12-.1a17,17,0,0,1,3.06-1.94Zm-4.14,1.89-.17-.08-.1-.09a7.45,7.45,0,0,1-1.48-1.51l4,.2A16.69,16.69,0,0,0,246.26,151.55Z"/><path class="cls-1" d="M237.75,154.39l0-.43-.39.19a6.57,6.57,0,0,0-1.87,1.47l0,0-.62,1.44.09.12a16.16,16.16,0,0,1,2,3.18l.43.9.05-1C237.55,158.32,237.65,156.34,237.75,154.39Zm-2.3,2.62.47-1.09a6.23,6.23,0,0,1,1.31-1.1c-.08,1.49-.16,3-.23,4.51A16.44,16.44,0,0,0,235.45,157Z"/><path class="cls-1" d="M238.71,141.42l-.05,1.87.39-.2a7.44,7.44,0,0,0,2.22-2l0,0,.2-.16-.16-.19a15.72,15.72,0,0,1-2.05-3.18l-.44-.9,0,1C238.77,138.91,238.74,140.17,238.71,141.42Zm2.1-.53a7.14,7.14,0,0,1-1.62,1.53l0-1c0-.93,0-1.87.08-2.8A16.84,16.84,0,0,0,240.81,140.89Z"/><path class="cls-1" d="M240.89,143.25l-1.68,3.85-.45,1.05.85-.76,2.07-1.84.11-.1,0-.15a.2.2,0,0,1,0-.15l0-.09,0-.1a9.28,9.28,0,0,1-.42-1.65l-.15-.83Zm.39,1.79a.78.78,0,0,0,0,.22l-1.12,1,.9-2.08C241.1,144.47,241.19,144.76,241.28,145Z"/><path class="cls-1" d="M239.7,134.42h0v0a1,1,0,0,0-.87-1,.91.91,0,0,0-.72.19.87.87,0,0,0-.31.63,1,1,0,0,0,1.89.24Zm-1.39-.21a.39.39,0,0,1,.13-.27.43.43,0,0,1,.34-.08.45.45,0,0,1,.43.48.45.45,0,0,1-.9-.13Z"/><path class="cls-1" d="M230.8,145.22h.26a9.5,9.5,0,0,0,2.79-.39l.4-.12-1.48-1.56-2.18-2.32-.84-.9.42,1.15a9.88,9.88,0,0,1,.64,3.88Zm1.6-1.73.91,1a9,9,0,0,1-2,.26A9.79,9.79,0,0,0,231,142C231.45,142.48,231.93,143,232.4,143.49Z"/><path class="cls-1" d="M242.08,144.71l.13.37.28-.26c1.25-1.12,2.53-2.28,3.81-3.45l.95-.86-1.2.44a9.91,9.91,0,0,1-4.2.67l-.27,0v.27A9.79,9.79,0,0,0,242.08,144.71Zm3-2.93-2.66,2.41a8.55,8.55,0,0,1-.35-2.06A9.86,9.86,0,0,0,245.11,141.78Z"/><path class="cls-1" d="M232.44,148.31l.42,0-.18-.38a6.72,6.72,0,0,0-1.65-2.06l-.86-.39-.12.1a15.8,15.8,0,0,1-3,2l-.82.43.93,0C229,148.13,230.74,148.21,232.44,148.31Zm-2.19-2.23.48.21a6.17,6.17,0,0,1,1.28,1.49l-3.9-.19A16.43,16.43,0,0,0,230.25,146.08Z"/><path class="cls-1" d="M236.81,147l.91,1-.49-1.25c-.45-1.16-.9-2.31-1.36-3.47l-.35-.89-.13.95a5.48,5.48,0,0,1-.4,1.48l-.06.15.11.12Zm-1.1-2.75.57,1.43-.77-.82A4.35,4.35,0,0,0,235.71,144.2Z"/><path class="cls-1" d="M236.79,147.46c-.66-.72-1.37-1.49-2.17-2.34l-.11-.12-.15.05a9.56,9.56,0,0,1-2.07.46l-.92.11.85.37,4.28,1.87,1.08.47Zm-3.58-1.58a11,11,0,0,0,1.16-.3l1.25,1.34Z"/><path class="cls-1" d="M231.08,151.44l.9-.35,4.38-1.72,1.06-.41-1.14-.07c-1.05-.06-2.1-.13-3.15-.18H233l-.08.14a9.67,9.67,0,0,1-1.2,1.86Zm2.19-2.22,1.84.1-2.5,1A12,12,0,0,0,233.27,149.22Z"/><path class="cls-1" d="M233.24,148.35h.17l2.44.14,1.4.08L236,148l-3.08-1.34-.8-.35.49.72a5.81,5.81,0,0,1,.62,1.15Zm1.24-.43-.89,0c-.06-.14-.12-.29-.19-.42Z"/><path class="cls-1" d="M238,143l.36.19,0-1.83.09-3.29,0-1.17-.51,1.05a9.93,9.93,0,0,1-2.25,3.07l-.2.18.19.18A9.57,9.57,0,0,0,238,143Zm0-3.89-.06,2.23,0,1a9.14,9.14,0,0,1-1.58-1.15A10.18,10.18,0,0,0,237.91,139.09Z"/><path class="cls-1" d="M242.85,145l-.35.31.45.12c.22.05.46.1.69.13a8.63,8.63,0,0,0,2,0,.16.16,0,0,1,.12,0l.13.05.26-.1v-.15a16.28,16.28,0,0,1,.72-3.42l.3-.9-.7.64Zm2.87,0h-.11a7.82,7.82,0,0,1-2.06,0l2.63-2.38A18,18,0,0,0,245.72,145Z"/><path class="cls-1" d="M233,142.91l1.34,1.42.28.31.14-.4a7.27,7.27,0,0,0,.23-3.09l-.07-.26h-.16a16.89,16.89,0,0,1-3.75-.77l-.93-.31.67.71C231.53,141.32,232.29,142.11,233,142.91Zm1.51-1.55a7.06,7.06,0,0,1-.11,2.3c-.35-.36-.69-.73-1-1.1l-1.61-1.71A16.53,16.53,0,0,0,234.55,141.36Z"/><path class="cls-1" d="M233.9,152.46l.32-.28-.4-.14a6.16,6.16,0,0,0-2.41-.32h0l-1.3.51v.16a16.45,16.45,0,0,1-.76,3.62l-.31.91.71-.65C231.08,155,232.49,153.72,233.9,152.46Zm-3.37.13.94-.37a6.09,6.09,0,0,1,1.76.17l-3.2,2.9A17.07,17.07,0,0,0,230.53,152.59Z"/><path class="cls-1" d="M238.81,150.72l-.42-1.06-.07,1.14c-.06.95-.11,1.9-.16,2.85v.17l.15.07a10.86,10.86,0,0,1,1.67,1.05l.72.56-.33-.85C239.84,153.34,239.32,152,238.81,150.72Zm-.14,2.8.09-1.56c.27.7.54,1.39.82,2.09C239.28,153.86,239,153.68,238.67,153.52Z"/><path class="cls-1" d="M238.29,143.8v-.08l0-.06s0,0,0,0l0-.09-.09-.05a9.8,9.8,0,0,1-1.64-1l-.71-.53.32.82,1.62,4.12.43,1.11.05-1.19C238.22,145.87,238.26,144.89,238.29,143.8Zm-1.44-.45a9.66,9.66,0,0,0,.94.52c0,.61,0,1.18-.06,1.72C237.44,144.84,237.14,144.1,236.85,143.35Z"/><path class="cls-1" d="M241.26,152.68l.05-.14-.1-.12-1.47-1.65-.94-1.05.52,1.31,1.13,2.88.34.85.14-.9A5.71,5.71,0,0,1,241.26,152.68Zm-.64.3c-.1-.28-.21-.55-.32-.83.14.17.29.33.44.49Z"/><path class="cls-1" d="M235.5,154.71c.6-1.39,1.2-2.77,1.81-4.16l.45-1-.85.75-2.26,2-.12.11.05.15a9.93,9.93,0,0,1,.44,2.1l.1,1Zm-.4-2.16,1.29-1.15c-.33.77-.67,1.53-1,2.3A8.79,8.79,0,0,0,235.1,152.55Z"/><path class="cls-1" d="M238,149.84l-.57,1.29-1.19,2.73-.33.78.7-.47a6.19,6.19,0,0,1,1-.53l.15-.06v-.16l.12-2.17Zm-1,3.53c.1-.25.21-.5.32-.75l0,.61Z"/><path class="cls-1" d="M234.35,151.86l.15.07.12-.11,1.71-1.52,1-.93-1.31.5L233.16,151l-.78.31.82.17A5.52,5.52,0,0,1,234.35,151.86Zm.6-1-.54.49-.36-.14Z"/><path class="cls-1" d="M240.23,148.76l2.64.16H243l.08-.11a.19.19,0,0,1,.11-.08l.09,0,0-.09a9.74,9.74,0,0,1,.84-1.43l.49-.68-.79.3c-1.23.5-2.48,1-3.72,1.47l-1.06.42Zm3.1-1.19c-.15.24-.28.49-.41.75a.55.55,0,0,0-.14.09l-1.38-.08Z"/><path class="cls-1" d="M243.9,146.42l1-.39-1-.1a5.89,5.89,0,0,1-1.49-.32l-.14-.05-.11.1-1.89,1.69-1,.93,1.31-.51Zm-1.58-.28.54.15-1.28.5Z"/><path class="cls-1" d="M240.58,143.05l.41-.94-.8.65a6,6,0,0,1-1.39.85l-.15.07v.16c0,.9-.06,1.79-.09,2.64l-.06,1.34.54-1.23Zm-1.43,1c.2-.1.41-.21.61-.33-.22.5-.43,1-.65,1.49C239.12,144.79,239.14,144.4,239.15,144Z"/><path class="cls-1" d="M244,150.59a5.24,5.24,0,0,1-.72-1.15l-.07-.14H243l-2.35-.13-1.41-.09,1.3.57,3.1,1.34.91.39Zm-1.91-.85.8,0a2.93,2.93,0,0,0,.21.39Z"/><path class="cls-1" d="M241.54,152.25l.07,0h0l.09.05.1,0a11.33,11.33,0,0,1,1.76-.44l.86-.13-.8-.34-3.69-1.6-1-.46.75.85,1.8,2Zm1.19-.73a9.07,9.07,0,0,0-.93.26l-1-1.09Z"/><path class="cls-1" d="M230.38,151.55l.19-.18a9.79,9.79,0,0,0,1.82-2.34l.19-.35-.4,0-5.41-.26-1.34-.06,1.23.54a10,10,0,0,1,3.55,2.49Zm1.36-2.42a8.93,8.93,0,0,1-1.33,1.7,10,10,0,0,0-2.47-1.89Z"/><path class="cls-1" d="M234.35,153l-.11-.38-.3.26c-1.25,1.13-2.56,2.31-3.9,3.54l-.93.84,1.18-.42a9.79,9.79,0,0,1,4.11-.63l.3,0V156A9.85,9.85,0,0,0,234.35,153Zm-3.14,3c.94-.86,1.86-1.7,2.76-2.5a9,9,0,0,1,.24,2.17A9.77,9.77,0,0,0,231.21,156.06Z"/><path class="cls-1" d="M156,104.89l.86,1,.08-1.29q.34-5.61.65-11.2l0-.25-.18-.17a.81.81,0,0,1-.21-.33l-.08-.2-.19-.1a29.47,29.47,0,0,1-6.5-4.28l-.9-.78v1.19a18.69,18.69,0,0,1-1.28,7.31l-.13.31.23.25Q152.16,100.6,156,104.89Zm-5.38-15.31a30.39,30.39,0,0,0,5.68,3.63,2.2,2.2,0,0,0,.21.32q-.27,4.84-.56,9.67l-6.55-7.35A19.1,19.1,0,0,0,150.58,89.58Z"/><path class="cls-1" d="M143.08,106.06l.35,0c3.68.2,7.36.42,11,.64l1.29.08-.86-1Q151,101.39,147,97l-.24-.27-.34.12a29.2,29.2,0,0,1-7.55,1.54l-1.19.08.85.84a18.46,18.46,0,0,1,4.41,6.46Zm-3-6.73A29.72,29.72,0,0,0,146.45,98l6.79,7.62-9.41-.55A18.94,18.94,0,0,0,140.1,99.33Z"/><path class="cls-1" d="M159.17,107l1.3.08c3.43.2,6.85.41,10.28.6l.29,0,.17-.24a1,1,0,0,1,.4-.28l.2-.08.09-.19a29.57,29.57,0,0,1,4.29-6.49l.78-.9h-1.19a24.37,24.37,0,0,1-3-.18,17.11,17.11,0,0,1-3.59-.85l-.3-.1-.24.21-8.46,7.52Zm9.92-7.38a18.71,18.71,0,0,0,3.51.8c.66.08,1.34.14,2,.16a30.85,30.85,0,0,0-3.62,5.68,2.21,2.21,0,0,0-.47.33l-8.72-.51Q165.47,102.87,169.09,99.63Z"/><path class="cls-1" d="M156.54,110.57l.08-1.3-1,.86-8.51,7.58-.26.24.1.33a29.53,29.53,0,0,1,1.38,7.06l.08,1.19.84-.85a18.35,18.35,0,0,1,6.33-4.36l.32-.13,0-.34C156.13,117.42,156.33,114,156.54,110.57Zm-7.22,13.56a30.57,30.57,0,0,0-1.22-5.85l7.29-6.48c-.18,2.88-.35,5.77-.51,8.65A19.12,19.12,0,0,0,149.32,124.13Z"/><path class="cls-1" d="M195,107.82l-5.53-.25c1.38-1,2.72-2,4-3l.61-.48a1.67,1.67,0,0,0,.63-1.8,1.91,1.91,0,0,0-1.54-1.39,1.7,1.7,0,0,0-1.27.36l-.64.49a82.47,82.47,0,0,1-7.66,5.49,1,1,0,0,0-.17.1l-8.7-.46A26.5,26.5,0,0,1,180,100a1.86,1.86,0,0,0,.54-2,1.75,1.75,0,0,0-1.9-1.2,21.54,21.54,0,0,1-6.38-.11l6.05-5.45,1.56,0c3-.05,6.14-.09,9.22-.44a1.66,1.66,0,0,0,1.52-1.69,1.79,1.79,0,0,0-1.52-1.85,1.85,1.85,0,0,0-.47,0c-2.15.24-4.34.33-6.33.38L186.38,84a1.81,1.81,0,0,0,.51-1.91,1.85,1.85,0,0,0-1.47-1.31,1.59,1.59,0,0,0-1.29.44q-2,1.88-4.09,3.74c.28-1.72.5-3.46.71-5.15l.09-.63a1.72,1.72,0,0,0-1.55-2,1.83,1.83,0,0,0-1.36.34,1.7,1.7,0,0,0-.64,1.16l-.09.68a86.1,86.1,0,0,1-1.54,9.36,1.82,1.82,0,0,0-.07.25c-2.05,1.86-4.11,3.71-6.18,5.57a26.32,26.32,0,0,1-1.11-8.66,1.89,1.89,0,0,0-1.6-2,1.76,1.76,0,0,0-1.59.67,21.49,21.49,0,0,1-4.83,4.62q.21-4,.41-7.93l1.07-1.11c2.11-2.16,4.28-4.4,6.22-6.83a1.66,1.66,0,0,0,.27-1.69,1.93,1.93,0,0,0-1.52-1.17,1.74,1.74,0,0,0-1.57.66c-1.35,1.7-2.84,3.31-4.22,4.76.08-1.83.17-3.66.25-5.49a1.85,1.85,0,0,0-1.66-1.92,1.71,1.71,0,0,0-1.35.36,1.63,1.63,0,0,0-.55,1.19c-.07,1.84-.16,3.68-.24,5.52-1-1.37-2-2.73-3.07-4l-.46-.6a1.7,1.7,0,0,0-1.14-.68,1.91,1.91,0,0,0-1.84.95,1.66,1.66,0,0,0,.15,1.91l.48.63a84.62,84.62,0,0,1,5.5,7.67,1.4,1.4,0,0,0,.09.17c-.13,2.61-.26,5.21-.4,7.82A26.32,26.32,0,0,1,150,84.2a1.89,1.89,0,0,0-1.15-.61,1.81,1.81,0,0,0-1.5.49,1.76,1.76,0,0,0-.51,1.48,20.89,20.89,0,0,1-.27,7.19q-2.72-3-5.45-6l0-1.56c0-3-.08-6.14-.43-9.23a1.63,1.63,0,0,0-1.46-1.5,2,2,0,0,0-1.59.52,1.74,1.74,0,0,0-.5,1.45c.25,2.16.34,4.35.38,6.34q-1.84-2-3.71-4.06a1.75,1.75,0,0,0-1.1-.58,2,2,0,0,0-1.95,1,1.56,1.56,0,0,0,.28,1.82L134.75,85c-1.31-.2-2.6-.38-3.84-.54L129,84.2a1.79,1.79,0,0,0-.46,3.55l2,.25a79.48,79.48,0,0,1,8,1.37,1,1,0,0,0,.25.07l5,5.57a26.13,26.13,0,0,1-7.93.92A1.88,1.88,0,0,0,134,97.14a1.72,1.72,0,0,0,.57,2,20.46,20.46,0,0,1,5.14,5.68c-2.87-.16-5.75-.31-8.62-.45L130,103.28c-2.17-2.11-4.41-4.29-6.84-6.22a1.63,1.63,0,0,0-.87-.38,1.81,1.81,0,0,0-1.85,1.14,1.7,1.7,0,0,0,.53,2.06c1.69,1.35,3.31,2.84,4.76,4.22l-5.5-.25a1.86,1.86,0,0,0-1.93,1.75,1.57,1.57,0,0,0,1.57,1.8l5.52.25c-1.38,1-2.73,2-4.05,3.07l-.6.46a1.66,1.66,0,0,0-.62,1.81,1.89,1.89,0,0,0,1.53,1.38,1.73,1.73,0,0,0,1.28-.36l.62-.49a86,86,0,0,1,7.67-5.49l.17-.09,7.54.38a26.28,26.28,0,0,1-4.75,5.9,1.86,1.86,0,0,0-.54,2,1.75,1.75,0,0,0,1.9,1.2,22.89,22.89,0,0,1,5.55,0,15,15,0,0,1,2.2.44c-2.26,2-4.53,4.07-6.78,6.12l-1.57,0c-3,0-6.14.09-9.22.44a1.66,1.66,0,0,0-1.52,1.69,1.8,1.8,0,0,0,1.53,1.85,1.77,1.77,0,0,0,.46,0c2.15-.24,4.34-.33,6.33-.38l-4.06,3.72a1.78,1.78,0,0,0-.5,1.91,1.86,1.86,0,0,0,1.46,1.3,1.63,1.63,0,0,0,1.3-.44q2-1.87,4.08-3.73c-.28,1.71-.5,3.45-.71,5.14l-.08.64a1.72,1.72,0,0,0,1.55,2,1.86,1.86,0,0,0,1.35-.35,1.65,1.65,0,0,0,.64-1.16l.09-.69a86.33,86.33,0,0,1,1.54-9.35,2.17,2.17,0,0,0,.07-.24l5.88-5.31a25.84,25.84,0,0,1,.78,7.41,1.89,1.89,0,0,0,1.6,2,1.74,1.74,0,0,0,1.58-.67,20.87,20.87,0,0,1,5.55-5.07q-.26,4.68-.48,9.36L153.09,135c-2.11,2.17-4.28,4.41-6.22,6.83a1.67,1.67,0,0,0-.27,1.69,1.94,1.94,0,0,0,1.52,1.17,1.69,1.69,0,0,0,1.57-.66c1.35-1.7,2.84-3.31,4.22-4.76-.08,1.83-.17,3.66-.24,5.5a1.86,1.86,0,0,0,1.66,1.92,1.74,1.74,0,0,0,1.34-.37,1.63,1.63,0,0,0,.55-1.19c.08-1.84.16-3.68.25-5.52,1,1.38,2,2.73,3.06,4.05l.46.59a1.7,1.7,0,0,0,1.14.68,1.91,1.91,0,0,0,1.84-1,1.66,1.66,0,0,0-.15-1.91l-.48-.63a83.83,83.83,0,0,1-5.49-7.66,1,1,0,0,0-.1-.18c.14-2.8.29-5.61.44-8.41a25.73,25.73,0,0,1,6,4.82,1.89,1.89,0,0,0,1.16.61,1.83,1.83,0,0,0,1.5-.49,1.76,1.76,0,0,0,.5-1.48,21.58,21.58,0,0,1,.22-7c2,2.27,4.09,4.55,6.15,6.81,0,.52,0,1,0,1.56,0,3,.09,6.14.43,9.23a1.64,1.64,0,0,0,1.46,1.5,1.92,1.92,0,0,0,1.59-.52,1.71,1.71,0,0,0,.5-1.45c-.24-2.16-.34-4.34-.38-6.34q1.85,2,3.71,4.06a1.82,1.82,0,0,0,1.11.59,2,2,0,0,0,1.94-1,1.54,1.54,0,0,0-.28-1.82l-3.73-4.08c1.3.2,2.59.38,3.81.54l2,.25a1.79,1.79,0,0,0,.46-3.55l-2-.25a76.77,76.77,0,0,1-8-1.37,1,1,0,0,0-.25-.07c-2-2.16-3.91-4.33-5.85-6.5a26.17,26.17,0,0,1,8.13-1,1.9,1.9,0,0,0,1.86-1.21,1.72,1.72,0,0,0-.57-2,21.47,21.47,0,0,1-4.53-4.7q4.32.24,8.65.45l1.1,1.08c2.17,2.1,4.41,4.28,6.84,6.21a1.71,1.71,0,0,0,.87.39h0a1.8,1.8,0,0,0,1.85-1.15,1.69,1.69,0,0,0-.52-2.05c-1.7-1.36-3.32-2.84-4.76-4.23l5.49.25a1.86,1.86,0,0,0,1.93-1.74A1.58,1.58,0,0,0,195,107.82Zm-.32,2.48-6.61-.3-1.73-.08,1,1c1.71,1.65,3.71,3.56,5.86,5.28a.62.62,0,0,1,.21.79.69.69,0,0,1-1.06.34c-2.39-1.9-4.61-4.06-6.76-6.14L184.34,110l-.15-.15H184l-9.88-.52-1-.05.5.86a21.44,21.44,0,0,0,5.33,5.86.64.64,0,0,1,.24.76.8.8,0,0,1-.8.51,27.47,27.47,0,0,0-9.31,1.26l-.8.25.56.62q3.27,3.65,6.55,7.28l.15.12.24.06.15,0,.09,0a81.14,81.14,0,0,0,8.18,1.4l2,.25a.65.65,0,0,1,.57.79.67.67,0,0,1-.75.62l-2-.25c-1.7-.22-3.51-.47-5.3-.79l-1.57-.29,1.07,1.18q2.38,2.63,4.79,5.24a.5.5,0,0,1,.12.6.9.9,0,0,1-.86.44.69.69,0,0,1-.45-.25L177.47,131l-1.25-1.37,0,1.42c0,2.38.11,5.14.42,7.87a.67.67,0,0,1-.18.56.83.83,0,0,1-.7.22.57.57,0,0,1-.53-.55c-.34-3-.38-6.13-.42-9.12l0-1.77v-.2l-.13-.15q-3.48-3.84-6.94-7.71l-.65-.72-.27.93a21,21,0,0,0-.51,8.34.72.72,0,0,1-.18.6.73.73,0,0,1-.61.19.83.83,0,0,1-.5-.27,27.43,27.43,0,0,0-7-5.46l-.75-.41-.05.85c-.17,3.16-.34,6.31-.49,9.47V134l.12.2.08.13,0,.06a84.44,84.44,0,0,0,5.58,7.79l.48.63a.59.59,0,0,1,.07.71.82.82,0,0,1-.77.42.64.64,0,0,1-.42-.26l-.47-.6c-1.32-1.71-2.69-3.48-3.94-5.28l-.9-1.31-.08,1.59q-.17,3.54-.32,7.09a.51.51,0,0,1-.17.41.67.67,0,0,1-.5.12.79.79,0,0,1-.73-.81c.1-2.3.21-4.6.31-6.92l.07-1.42-1,1c-1.66,1.71-3.57,3.72-5.28,5.87a.62.62,0,0,1-.59.26.86.86,0,0,1-.66-.5.58.58,0,0,1,.11-.62c1.91-2.38,4.06-4.6,6.15-6.75l1.22-1.26.14-.14v-.21c.17-3.5.36-7,.55-10.51l.05-.93-.83.42a20.69,20.69,0,0,0-6.74,5.8.64.64,0,0,1-.6.28.81.81,0,0,1-.67-.84,27.33,27.33,0,0,0-1-8.59l-.24-.83-.64.57c-2.23,2-4.46,4-6.68,6l-.13.13-.05.19v0a.8.8,0,0,1,0,.18l0,.08a87.65,87.65,0,0,0-1.57,9.51l-.09.69a.64.64,0,0,1-.22.44.76.76,0,0,1-.56.13.67.67,0,0,1-.63-.76l.09-.64c.27-2.18.56-4.44,1-6.63l.27-1.55-1.18,1.07L130,133.22a.53.53,0,0,1-.43.18.81.81,0,0,1-.58-.57.74.74,0,0,1,.21-.79c1.67-1.54,3.35-3.06,5-4.59l1.15-1-1.42,0c-2.38,0-5.14.11-7.87.41a.72.72,0,0,1-.79-.77.58.58,0,0,1,.56-.63c3-.34,6.12-.39,9.12-.43l1.77,0h.2l.15-.14,7.63-6.88.68-.6-.86-.3a15.38,15.38,0,0,0-3.31-.78,23.93,23.93,0,0,0-5.8,0,.74.74,0,0,1-.21,0,.64.64,0,0,1-.54-.46.77.77,0,0,1,.24-.83,27.42,27.42,0,0,0,5.39-6.92l.42-.75-.86,0q-4.29-.24-8.6-.45h-.15l-.23.14-.13.09-.06,0a83,83,0,0,0-7.79,5.57l-.63.49a.65.65,0,0,1-.48.15.86.86,0,0,1-.64-.6.62.62,0,0,1,.25-.68l.6-.46c1.71-1.32,3.48-2.69,5.28-3.94l1.31-.91-1.59-.07-7.09-.32a.54.54,0,0,1-.53-.64.78.78,0,0,1,.81-.76l6.47.29,1.87.08-1-1c-1.71-1.66-3.72-3.58-5.86-5.29a.63.63,0,0,1-.21-.79.69.69,0,0,1,1.06-.34c2.39,1.9,4.61,4.06,6.76,6.15l1.25,1.22.15.14h.2c3.26.15,6.52.33,9.77.5l.92,0-.41-.82a20.3,20.3,0,0,0-5.87-6.87.63.63,0,0,1-.23-.76.79.79,0,0,1,.8-.51,27.59,27.59,0,0,0,9.11-1.2l.81-.25-.56-.63-5.73-6.35-.14-.12-.25-.06-.15,0-.08,0a76,76,0,0,0-8.19-1.4l-2-.26a.65.65,0,0,1-.57-.79.67.67,0,0,1,.75-.62l1.95.25c1.7.22,3.52.47,5.33.8l1.56.28-1.07-1.18c-1.59-1.75-3.19-3.49-4.79-5.24a.49.49,0,0,1-.11-.6.88.88,0,0,1,.85-.44.73.73,0,0,1,.45.25l4.53,5,1.1,1.21,0-1.42c0-2.37-.11-5.14-.42-7.87a.67.67,0,0,1,.18-.56.86.86,0,0,1,.7-.22.58.58,0,0,1,.53.55c.34,3,.38,6.13.43,9.13,0,.59,0,1.17,0,1.76v.2l.13.15q3.13,3.47,6.25,6.93l.64.71.28-.91a20.88,20.88,0,0,0,.56-8.56.7.7,0,0,1,.19-.59.73.73,0,0,1,.61-.19.86.86,0,0,1,.5.27A27.61,27.61,0,0,0,157,90.76l.73.37,0-.82q.24-4.43.45-8.85V81.3l-.13-.22a.55.55,0,0,1-.09-.14l0-.06a86.28,86.28,0,0,0-5.57-7.79l-.49-.63a.59.59,0,0,1-.07-.71.82.82,0,0,1,.77-.42.64.64,0,0,1,.43.27l.46.6c1.33,1.71,2.69,3.48,3.94,5.27l.9,1.31.08-1.59q.17-3.54.32-7.08a.55.55,0,0,1,.17-.42.69.69,0,0,1,.51-.12.79.79,0,0,1,.72.81c-.1,2.31-.2,4.61-.31,6.92l-.07,1.42,1-1C162.38,76,164.29,74,166,71.83a.65.65,0,0,1,.6-.26.92.92,0,0,1,.66.5.6.6,0,0,1-.12.62c-1.9,2.38-4.06,4.6-6.15,6.75l-1.22,1.26-.14.15v.2q-.23,4.58-.47,9.15l-.05,1,.85-.49a21.44,21.44,0,0,0,6-5.41.66.66,0,0,1,.61-.28.79.79,0,0,1,.66.84,27.52,27.52,0,0,0,1.42,9.83l.26.78.61-.55,6.94-6.25.12-.12.06-.2v0a.78.78,0,0,1,0-.19l0-.08a87.65,87.65,0,0,0,1.57-9.51l.09-.68a.62.62,0,0,1,.23-.45.79.79,0,0,1,.56-.13.67.67,0,0,1,.62.76l-.08.64c-.28,2.18-.57,4.44-1,6.63l-.28,1.57,1.17-1.08q2.63-2.39,5.24-4.78a.51.51,0,0,1,.43-.17.78.78,0,0,1,.58.56.72.72,0,0,1-.21.79q-2.46,2.26-4.94,4.51l-1.23,1.13,1.43,0c2.37,0,5.13-.1,7.86-.41a.74.74,0,0,1,.8.77.59.59,0,0,1-.57.63,90.14,90.14,0,0,1-9.11.43l-1.77,0h-.21l-.15.14q-3.48,3.15-7,6.29l-.75.67,1,.25a17.42,17.42,0,0,0,2,.37,24.45,24.45,0,0,0,5.8,0H179a.64.64,0,0,1,.54.46.79.79,0,0,1-.24.83,27.64,27.64,0,0,0-5.9,7.85l-.36.74.82,0q4.86.27,9.72.51h.17l.21-.14.13-.08.06,0a85,85,0,0,0,7.79-5.58l.63-.49a.65.65,0,0,1,.48-.15.86.86,0,0,1,.64.61.59.59,0,0,1-.25.67l-.61.48c-1.71,1.32-3.47,2.68-5.27,3.92l-1.31.91,1.59.07,7.09.32a.55.55,0,0,1,.54.64A.8.8,0,0,1,194.66,110.3Z"/><path class="cls-1" d="M171.52,109.15l-.32,0q-5.41-.3-10.81-.63l-1.3-.08.86,1q3.47,3.92,6.94,7.81l.11.12.15,0a.44.44,0,0,1,.16.06l.2.09.21-.07a29.18,29.18,0,0,1,7.61-1.56l1.19-.08-.85-.84a18.81,18.81,0,0,1-4-5.52Zm2.6,5.76a30.19,30.19,0,0,0-6.54,1.44q-3-3.34-6-6.7c3.06.19,6.13.36,9.2.54A19.53,19.53,0,0,0,174.12,114.91Z"/><path class="cls-1" d="M155.68,108.22l-1.3-.08q-5.88-.36-11.76-.69l-.36,0-.15.32a29.41,29.41,0,0,1-4.08,6.06l-.78.9h1.19a18.46,18.46,0,0,1,7.79,1.49l.31.15.26-.24,7.9-7Zm-9.34,6.85a18.1,18.1,0,0,0-4.73-1.26c-.66-.08-1.34-.14-2-.16a30.32,30.32,0,0,0,3.34-5.11l10.11.59Z"/><path class="cls-1" d="M158.89,110.33l-.86-1-.08,1.3q-.33,5.45-.64,10.89l0,.35.32.16a29.48,29.48,0,0,1,6.19,4.14l.9.78v-1.19a18.66,18.66,0,0,1,1.22-7.13l.12-.31-.22-.24Q162.35,114.23,158.89,110.33Zm4.74,14.33a30,30,0,0,0-5.22-3.4q.26-4.62.54-9.24,2.91,3.28,5.83,6.56A19.73,19.73,0,0,0,163.63,124.66Z"/><path class="cls-1" d="M167.18,98l.23-.21-.07-.31a.85.85,0,0,1,.07-.56l.09-.2-.07-.21a29.26,29.26,0,0,1-1.56-7.61l-.09-1.19-.83.85a18.75,18.75,0,0,1-5.65,4.07l-.29.13,0,.33q-.33,5.77-.68,11.56l-.08,1.3,1-.86Zm-2.28-7.89a29.89,29.89,0,0,0,1.45,6.57,1.73,1.73,0,0,0-.1.71l-6.78,6c.2-3.32.39-6.63.57-10A19.56,19.56,0,0,0,164.9,90.11Z"/></svg>