<svg id="layer1" xmlns="http://www.w3.org/2000/svg" viewBox="0 0 387.65 349.48"><defs><style>.cls-1{fill:#f4be38;}.cls-2{fill:#7c471d;}.cls-3{fill:#492d0c;}</style></defs><path class="cls-1" d="M303.84,156.63a47,47,0,0,0-7.08-3.57,46.15,46.15,0,0,0-13.89-5.66c-1.78-.71-3.59-1.36-5.43-1.92-9.87-3-20.2-3.44-30.39-2.38-11.69-.07-23.51.85-35,1.57-2.55.16-3,3.5-1.56,5-2.64.3-5.26.68-7.85,1.19a48.87,48.87,0,0,0-7.12,2,2.47,2.47,0,0,0-.29-.06,3.11,3.11,0,0,0-3.6,1.71c-5.59,2.79-10.14,7.1-10.83,13.59a2.79,2.79,0,0,0-1.65,3.09,16.12,16.12,0,0,0,1.61,4.54,2.78,2.78,0,0,0-1.2,2.76c.87,5.2,1.74,10.41,2.37,15.64a3.1,3.1,0,0,0-1.46,3.79c.59,1.45,1.21,2.9,1.83,4.35a95.37,95.37,0,0,0,1.83,10.59c-2.38,7.91,2.1,17.3,5.46,24.17.22.45.45.89.68,1.34,1.72,8.09,4.71,15.73,11.12,22.26a3.31,3.31,0,0,0-.11,2.57c3.82,10.46,15.56,17.5,27.63,19.64,11.69,5.92,27.65,6.1,38.55.77a51.67,51.67,0,0,0,8.43-2.56c16.86-6.79,30.16-22.14,37.33-39.18,10-10.44,13.65-25.63,12.24-40.24a56.57,56.57,0,0,0-2.38-17.58C319.76,173,313.8,162.85,303.84,156.63ZM241.46,277.29a2.55,2.55,0,0,0,.34-.68c.24.15.49.32.73.49Zm4.35-32c-.06-.19-.12-.39-.19-.58v0q2.52,1.55,5,3.19Q248.2,246.69,245.81,245.31Zm61.42-4.12-.14-.18a4.21,4.21,0,0,0-1.3-3.91V237a7.56,7.56,0,0,1,.41-1.1c2.58,1,4.56-1.89,3.64-4,.32-.22.64-.43,1-.63q-.79,2.84-1.85,5.62c-.4.74-.81,1.49-1.23,2.23a3.05,3.05,0,0,0-.38,1.7C307.32,241,307.28,241.08,307.23,241.19ZM189.06,170.73a13.53,13.53,0,0,1,1.48.32l-.74,1.36C189.55,171.86,189.31,171.3,189.06,170.73ZM308.53,224c-.14-.41-.28-.83-.41-1.25l.17-.21a3.51,3.51,0,0,0,.73-.71q-.09.87-.12,1.77l-.24.32A1.48,1.48,0,0,1,308.53,224ZM295.3,255.28l-.29-.12a3,3,0,0,0,.43-1l1.16.05A5.16,5.16,0,0,1,295.3,255.28Zm-5.43-8.15c-.52-.19-1-.39-1.54-.61a3.39,3.39,0,0,0,0-1.27c.83.36,1.65.72,2.46,1.11C290.48,246.61,290.17,246.87,289.87,247.13Zm-38.15-39.55-2.05-1.14.68-.5,1.28.6A3.08,3.08,0,0,0,251.72,207.58Zm46.11,31.71c-1.12-.79-2.28-1.54-3.48-2.24a3.15,3.15,0,0,0-.29-1q2.43,1.13,4.82,2.29Q298.34,238.81,297.83,239.29Zm-70.94-30-8.62,1.45a2.61,2.61,0,0,0-.58.17c-1,0-2-.09-3-.22a31.74,31.74,0,0,0-4.81-.9,2.69,2.69,0,0,0-.86.07l-.93-.29a2.9,2.9,0,0,0-1.7,0l-.79-.34-.13-.17a104.34,104.34,0,0,1-10.9-17.6,2.75,2.75,0,0,0-.37-3c-1.36-1.68-2.55-3.43-3.8-5.13a3.54,3.54,0,0,0,1.08-1.31l.07-.15a2.35,2.35,0,0,0,1.29-.31l.28-.16a3.24,3.24,0,0,0,2-.5,23.4,23.4,0,0,0,6.11-6.43,2.65,2.65,0,0,0,.31-2.79,63.27,63.27,0,0,1,9.74-11.52,3.1,3.1,0,0,0,1-2.33,2.69,2.69,0,0,0,1.38.58c1.35.16,2.69.38,4,.66a5.23,5.23,0,0,1,.53.26,3,3,0,0,0,2.06.36,39.21,39.21,0,0,1,4.75,1.65l.1.1,1,.82a2.78,2.78,0,0,0,1.13,2.1,52.25,52.25,0,0,0,10.66,6.06,3.68,3.68,0,0,0,.54.16,121.63,121.63,0,0,0,19.78,8.7,2.83,2.83,0,0,0,3.72-3.46c1.32.39,2.65.78,4,1.15q1.15.78,2.31,1.53c-2.47-.22-3.74,3.7-1.66,5.45,1,.86,2.1,1.67,3.19,2.43a34.53,34.53,0,0,0-18.48.9,2.76,2.76,0,0,0-.88.49l-.1,0c-2.95-1.09-4.92,2.51-3.19,4.65q-1.77-.57-3.57-1a3.26,3.26,0,0,0-2.25.11,3.2,3.2,0,0,0-3.1,1.9A66.6,66.6,0,0,1,226.89,209.32Z"/><path class="cls-2" d="M95.3,77.1a57.76,57.76,0,0,0-6.48-5.81,3,3,0,0,0-4.1.74,2.89,2.89,0,0,0-1.64-1.89c-10.9-5-20.67-12-30.4-19a2.93,2.93,0,0,0-4.59,2.31c-1.22-.84-2.43-1.7-3.64-2.56a2.84,2.84,0,0,0-4.29,1.21,3,3,0,0,0-3.9,1.44,3,3,0,0,0-4.09,3.15c.71,6.25,4,10.88,8.47,14.54a17.76,17.76,0,0,0,13.83,7.51A3,3,0,0,0,57,74l-.48-.61a3.35,3.35,0,0,0,3.39-1.93c1.16.49,2.33,1,3.5,1.42a2.63,2.63,0,0,0,3.73-2.31l1.71.58a2.87,2.87,0,0,0,2.68-.46c3.1,1.78,6.27,3.45,9.54,5a2.43,2.43,0,0,0,3.28-1c0,.07-.12.4-.08.47,1.36,2.53,3.06,4.62,4,7.76l-1.41-1c-2.84-2-5.56,1.34-3.79,4,.6.9,1.32,1.64,2,2.49-1.56-1-3.07-2.21-4.62-3.32-2.62-1.87-6.34,1.82-4,4.2L79,91.77a3.08,3.08,0,0,0-2.61,4,3.21,3.21,0,0,0-.75,4,3.09,3.09,0,0,0-1.92,4.07l-1.33-.21c-3.73-.58-4.25,5.25-.52,5.84l21.39,3.34c26.25,20.76,55.73,36.72,83,56.05a2.89,2.89,0,0,0,4-.74l.66-.93a2.92,2.92,0,0,0-.62-4c-4-3.76-7.91-7.67-11.83-11.65,3.84,1.94,7.68,3.87,11.42,5.8a2.37,2.37,0,0,0,3-.61,9.24,9.24,0,0,0,3.28,0c3.69-.79,2.73-6.57-1-5.77-.79.17-2.9-.53-4.49-1.16A61.84,61.84,0,0,1,175,147c-22.76-15.22-45.08-31.06-67.38-46.94-2.67-1.9-6.17,1.71-4,4.23a60.58,60.58,0,0,0,7.34,7,2.6,2.6,0,0,0,.63,1.53c11.1,12.74,25.59,22.07,40.65,30.24,2.48,2.46,4.92,4.95,7.36,7.45-21.15-13.71-42.81-26.66-62.62-42.29a3,3,0,0,0-1.09-.9l-.14-.07-1-.77a2.64,2.64,0,0,0-1.18-2.31,3,3,0,0,0,1.8-3.78q.69.26,1.38.48c2.59.85,5.37-2.39,3.28-4.6L98.84,95a2.71,2.71,0,0,0,1.47-3.78l-.35-.64a2.91,2.91,0,0,0,4.19-4l-.87-1.2a2.66,2.66,0,0,0-.2-2c-1.22-2.49-2.19-4.51-4.3-6.36A2.67,2.67,0,0,0,95.3,77.1Z"/><path class="cls-2" d="M211.29,167.27c-10,1.47-15.68,9.7-14.06,19.34a2.72,2.72,0,0,0-1.88,2.39c-1.66,15.71,12.92,26.69,27.58,20.59,10.86-4.51,19-20.77,13.17-31.73C231.52,169.24,220.43,165.92,211.29,167.27Zm18.36,11.44c6.17,7.18.23,18.59-5.91,23.62a15,15,0,0,1-15.58,1.79c-5.31-2.32-7.28-7.94-7.06-13.31a2.5,2.5,0,0,0,2.32-3.23c-1.81-6.9.5-12.67,7.79-14.34C217.56,171.79,225.32,173.69,229.65,178.71Z"/><path class="cls-3" d="M174,170.08c3.64,9,4.94,19,6.42,28.58,1.67,10.74,2.94,21.55,4.89,32.24,3.57,19.6,13.28,38.12,30.5,48.91C232,290,254.61,291.07,272.24,284c20.27-8.11,35.76-27.55,46-46.14,9-16.34,13.31-34.24,9-52.66-4.47-19-19.33-34.4-37.79-40.43-17.27-5.65-36.81-3.31-54.4-.66-9,1.36-18,3.15-27,4.71-5.67,1-12.76,2.86-18.48,1.21-.44-.13-2.14.58-1.59.74,5,1.43,10.82.15,15.8-.61,9.47-1.45,18.85-3.42,28.31-5,22.15-3.58,47-6.26,67.23,5.57,19.49,11.43,29,32.94,27.57,55-1.48,23.13-16.53,45.86-32.48,61.77-6.89,6.87-14.92,12.85-24,16.48-9.57,3.83-21,4.21-31.08,2.84-16.68-2.25-30.9-12.06-40.24-25.83-8.89-13.11-11.71-28.44-14-43.8-2.3-15.68-3.21-32.88-9.21-47.71-.19-.46-2.08.17-1.93.52Z"/><path class="cls-3" d="M175.63,169.38l-54.45-38.76c-5-3.53-10-6.61-15.25-9.7-2.45-1.45-4.88-2.92-7.26-4.47-1.11-.71-4.48-2.4-4.65-3.89-.1-.86-2-.39-1.93.52.32,2.92,7.4,6,9.49,7.22,5,3,10.15,5.75,14.9,9.13l57.65,41c.68.48,2.39-.46,1.5-1.1Z"/><path class="cls-3" d="M103.19,94.66c5.55,2.36,10.72,5.8,15.84,9,8.45,5.19,16.77,10.59,25.07,16,15,9.81,29.88,19.75,44.48,30.12.46.33,2.15-.43,1.81-.68-14.93-10.61-30.2-20.76-45.51-30.8-8.22-5.39-16.49-10.72-24.87-15.86-4.92-3-9.91-6.28-15.25-8.55-.45-.19-2.21.52-1.57.79Z"/><path class="cls-3" d="M93.08,115.25c-6.17-4.94-14-.2-20.73-3.32-.62-.29-2.37.59-1.52,1,6.5,3,14.75-1.45,20.47,3.12.57.46,2.37-.31,1.78-.78Z"/><path class="cls-3" d="M72,105c1.09-11.53,8.32-22.86,17.65-29.57,5.31-3.82,12-4.07,13.38,3.3.8,4.27,0,8.75,2.14,12.72.37.68,2.24.06,1.93-.52-2.69-5-.3-11.58-3.45-16.27C101,70.75,97,70.83,93,72.34c-12.33,4.55-21.72,20.52-22.88,32.93-.08.82,1.87.46,1.93-.23Z"/><path class="cls-3" d="M67.69,108.52c-1.06.7-2.46-1.77-3.09-2.36-1.07-1-3.47-1.33-4.83-1.67-2.29-.57-4.62-.84-6.89-1.44-1.32-.35-5-1.26-3.39-3.43,1.08-1.47,2.93-.87,4.28-.46,4.19,1.29,8.37,3.67,10.92-1.36L63,98.25c1.4.75,2.93,1.19,4.34,1.94l1.08-1.26c-3.25-.44-4.91-2.64-5.12-5.76a.72.72,0,0,0-.89-.63,14.65,14.65,0,0,1-4.13.14q-4.9.12-1.87-5.09c1.39-.22,2.84-.15,4.24-.28a8.09,8.09,0,0,0,5.61-3l-1.69.14c2.61,3.07,4.89,5.33,8.91,6.23.58.13,1.91-.72,1.08-1.26-1.07-.7-8.92-4.18-8-5.82a3.88,3.88,0,0,0,0-3.67,15.59,15.59,0,0,0-4.65-4.12c-1.12-.75.21-2.6.48-3.88l-1.72.63,9.88,7c.52.37,1.92,0,1.71-.82.25.94,2.8.45,4.07,1.87a31,31,0,0,0,2.14,2.3c.54.5,2.26-.32,1.63-1q-1.51-1.59-3.07-3.15c-1.52-1.5-.31-3.1.21-5s.55-2.94-.61-4.62c-1.34-1.92-6.19-3.6-4.55-5.89l-1.56.27c3,1.81,8,2.42,10,5.32,2.26,3.14,1.93,6,5.6,8.1.46.26,2.08,0,1.71-.81-.83-1.87-2.48-3.19-3.55-4.93-.49-.79-.38-.66-1.21-1.13-2.54-1.44.71-2.89,1.39-3.43a.69.69,0,0,0,.32-.7c-.12-.4,1.41-1.56,1.58-1.91.51-1.06-.5-2.79-.9-3.68-.81-1.82.67-1.29-.42-2.52s-1.32-2.65-2.31-3.76l-1.44,1.08c.84.3,7.48,2.72,6.11,4.46a5.38,5.38,0,0,0-1,3.08c.29,3.86,3.17,6.32,6.1,8.5.57.42,2.17-.17,1.63-1s-4.45-6.8-2.61-7.79A16.54,16.54,0,0,0,95.33,60a7.88,7.88,0,0,0,2.61-7.57l-1.85.68c4,5.56-1.19,12.22,3.6,17.45.6.65,2.43-.13,1.77-.85-4.59-5,.39-11.9-3.6-17.45-.47-.65-2-.15-1.85.69C96.8,57.65,93.2,60,89.52,62c-.31.16-.62.44-.54.82a23.22,23.22,0,0,0,3.45,8.29l1.63-1c-3.65-2.71-7.79-6.31-4-11.18a.54.54,0,0,0-.06-.84,32.59,32.59,0,0,0-7.56-4.21c-.5-.18-2.08.37-1.45,1.08,2.77,3.1,4.57,9.67.29,12S85,74.42,86,76.66l1.71-.81c-3.54-2-3.85-5.79-6-8.86-1.7-2.37-7.14-3.07-9.58-4.56a1.26,1.26,0,0,0-1.55.27l-1.08,1.52a.56.56,0,0,0-.08.71C71,66.84,73.12,68.2,74.89,70s.1,4.9-.47,7c-.7,2.57,2.34,4.11,3.94,5.8l1.63-1c-2.92-2.7-4.64-5.34-9.15-3.54-.3.12-.63.47-.53.83a1.21,1.21,0,0,0,0,.18l1.71-.82-9.88-7a1.2,1.2,0,0,0-1.72.63,6.32,6.32,0,0,1-1.24,3.22c-.19.29-.26.62.07.85,3,2.07,7.25,4.19,4.71,8.54a.51.51,0,0,0,.18.66c2.88,1.89,6,3.3,8.9,5.19l1.08-1.26c-3.67-.81-5.52-3-7.81-5.67a1.2,1.2,0,0,0-1.69.14c-4,4.58-10.88.24-13.77,6.48a.52.52,0,0,0,0,.54,11.54,11.54,0,0,0,5.06,3c.44.14,5.42.32,5.45.77.22,3.4,3.28,5.37,6.32,5.78.52.07,2-.77,1.08-1.25-1.41-.75-2.94-1.2-4.34-2a1.26,1.26,0,0,0-1.67.45c-2.21,4.36-7.48-.28-10.72-.29-2.66,0-4.22,1.38-5.43,3.67a.53.53,0,0,0,.18.67c4.5,3.85,10.57,3.27,15.81,5.49,3,1.27,2.54,4.77,6.29,2.28,1.1-.73-.49-1.4-1.28-.88Z"/><path class="cls-3" d="M59.64,81.12c-5-1.13-9.87-2.55-14.24-5.33-3.27-2.08-4.75-5.23-6.71-8.33A34.78,34.78,0,0,1,34,57.08a7.8,7.8,0,0,1,1.35-6.91c2.37-3,5.85-1,8.29.24,4,2.05,18.07,12.2,9.32,16.9-6.31,3.39-16.29-3.88-18.3-9.62-.31-.87-2.23-.33-1.93.52,2.47,7.05,13,13.44,20.43,10.47,11.3-4.49-2.07-15.8-7.08-18.84C42.94,48,39.28,46.21,35.81,48c-4.55,2.31-4.47,7.49-3.19,11.72,1.42,4.72,4.48,9.39,7.22,13.42C43.78,78.9,52.16,81,58.52,82.4c.81.18,2.29-1,1.12-1.28Z"/><path class="cls-3" d="M42.2,49C51,53,60.07,54.5,66.83,62c.55.6,2.39-.15,1.78-.83-7-7.71-16.19-9.3-25.28-13.39-.74-.33-2.24.73-1.13,1.23Z"/><path class="cls-3" d="M32.93,59.51c1.85,4.36,5.59,7.74,9.14,10.74s7.82,6.26,12.43,6.87c.89.11,2-1.16.69-1.33-4-.52-7.73-3.55-10.79-5.94C40.75,67,36.71,63.34,34.86,59c-.35-.81-2.26-.25-1.93.52Z"/><path class="cls-3" d="M44.78,46.25c7.18,5.91,18,7.26,23.27,15.37.37.56,2.18-.14,1.93-.52-5.36-8.24-16.13-9.58-23.39-15.56-.47-.38-2.23.36-1.81.71Z"/><path class="cls-3" d="M72.68,108.23c6.56-.23,13,1.24,19.38,2.62.8.18,2.29-1,1.12-1.27-6.69-1.45-13.42-3-20.31-2.73-1.09,0-1.5,1.42-.19,1.38Z"/><path class="cls-3" d="M72.63,102.71c6.18,1.77,12.64,2.17,18.76,4.2.72.24,2.27-.81,1.14-1.19-6.12-2-12.57-2.43-18.76-4.19-.73-.21-2.28.86-1.14,1.18Z"/><path class="cls-3" d="M76.25,97.38a40.59,40.59,0,0,0,15.49,6.32c1,.17,1.94-1.26.65-1.48a38.75,38.75,0,0,1-14.67-6c-.75-.52-2.41.52-1.47,1.16Z"/><path class="cls-3" d="M76.51,91.76a148.57,148.57,0,0,0,17.17,9.92c.55.29,2.33-.52,1.54-.93A146.23,146.23,0,0,1,78.31,91c-.56-.39-2.32.39-1.8.76Z"/><path class="cls-3" d="M79.52,85.84,94,96.12c.42.3,2-.49,1.82-.64L81.35,85.2c-.42-.3-2,.48-1.83.64Z"/><path class="cls-3" d="M83.32,80.57q6.36,8,12.71,15.92c.39.49,2.25-.18,1.8-.74Q91.47,87.8,85.12,79.83c-.39-.49-2.24.18-1.8.74Z"/><path class="cls-3" d="M86.67,80.62c6.61,2.37,10.12,10.29,14,15.64.23.33,2-.11,1.93-.52-.53-3.13-1-6.2-2.83-8.88-.3-.44-2,.35-1.94.52,1.82,2.68,2.31,5.75,2.84,8.88l1.93-.52C98.72,90.38,95.15,82.37,88.5,80c-.53-.19-1.92.6-1.83.63Z"/><path class="cls-3" d="M96.7,80.87c2.65,3.27,4,7.36,5.87,11,.19.37,2-.13,1.93-.51-.67-3.76-1.7-7.32-1.21-11.17,0-.16-1.86,0-1.93.52-.49,3.85.54,7.41,1.21,11.16l1.93-.51c-1.91-3.7-3.21-7.79-5.87-11-.35-.44-2,.4-1.93.51Z"/><path class="cls-3" d="M203.34,168.72c-4.15,5.9-8.06,12.15-8.16,19.57s5.42,14.44,11,18.75c8.94,6.85,20.27,2.55,26.4-5.71,6.61-8.91,6.76-23.38-2-31-6.36-5.55-21.53-10.25-26.64-.87-.53,1,1.44,1,1.85.24,4.86-8.92,20.93-2,25.51,4.21,5.92,8,5.06,18.9-.34,26.85-5.76,8.46-16,10.75-24.24,4.45-5.59-4.28-9.69-11.26-9.6-18.35.08-6.43,4.26-12.49,7.8-17.52.71-1-1.1-1.34-1.62-.6Z"/><path class="cls-3" d="M204.4,180.35c-4.1,6.14-3.76,12.67.23,18.78a11,11,0,0,0,8.71,5c7.24.43,14-5.09,17.63-10.86,5-8,2.91-16.85-5.28-21.48-8.71-4.93-22.17.62-22.92,10.94,0,.31,1.89.08,1.93-.52,1-13.11,18-14.09,24.85-5,3.74,4.93,2.44,11.45-.48,16.39-3.21,5.42-9.82,10.93-16.49,9.44-3.32-.74-5.63-3.48-7.15-6.34a15.41,15.41,0,0,1,.88-16.67c.16-.24-1.59-.15-1.91.33Z"/><path class="cls-3" d="M243.05,220.1c6.35-8.91,12.62-17.86,18.25-27.25l-1.93.41c2.58,4.44-4.58,13.7-6.72,17.06-3.45,5.43-7.29,10.58-11,15.8l1.84-.17c.44-2.33,1.07-4.62,1.51-6.95.11-.6-1.81-.26-1.92.3-.44,2.32-1.07,4.61-1.51,6.94-.12.67,1.63.13,1.85-.18,4.18-5.83,8.43-11.61,12.24-17.7,2.08-3.33,8.13-11.38,5.67-15.62-.33-.58-1.66,0-1.92.41-5.58,9.31-11.81,18.17-18.1,27-.45.62,1.47.38,1.77-.06Z"/><path class="cls-3" d="M175.18,165.87c3.34-4.82,6.06-10.05,9.44-14.86.41-.58-1.48-.3-1.76.1l-7.57,10.63,1.83-.21c.67-1.16.84-2.39,1.41-3.58.18-.37-1.66-.2-1.91.32-.58,1.18-.74,2.42-1.41,3.58-.21.36,1.57.16,1.84-.21L184.62,151l-1.76.1c-3.43,4.88-6.2,10.18-9.59,15.08-.19.26,1.57.17,1.91-.32Z"/><path class="cls-3" d="M166.77,160.11c3.74-5.36,6.85-11.14,10.6-16.5.52-.74-1.44-.55-1.8-.05-3.16,4.34-7,8.33-8.51,13.6-.22.8,1.62.27,1.87-.09l1.08-1.52c.52-.73-1.43-.57-1.8-.05L167.13,157l1.87-.1c1.46-5.15,5.29-9.07,8.37-13.31l-1.8-.05c-3.75,5.36-6.86,11.14-10.6,16.5-.52.73,1.43.57,1.8.05Z"/><path class="cls-3" d="M160.45,154.42c3.26-4.77,5.07-10.24,7.54-15.41.22-.48-1.6-.15-1.85.19-3,4.09-6.56,7.81-8,12.8-.16.6,1.63.12,1.85-.18l1.62-2.28c.43-.61-1.47-.35-1.77.07l-1.62,2.28,1.84-.19c1.38-4.9,4.89-8.56,7.82-12.58l-1.84.19c-2.42,5.09-4.19,10.5-7.38,15.18-.43.62,1.48.35,1.76-.07Z"/><path class="cls-3" d="M152.66,147.77a114.66,114.66,0,0,1,9.51-15c.53-.74-1.42-.59-1.8-.06a114.17,114.17,0,0,0-9.52,15c-.42.85,1.52.64,1.81.05Z"/><path class="cls-3" d="M145.67,141.32c-.67-1,2-4.78,2.45-5.6a87.62,87.62,0,0,1,4.67-7.55c.13-.19-1.58-.13-1.91.34a88.64,88.64,0,0,0-4.66,7.56c-.49.85-3.21,4.71-2.49,5.76.33.48,2.09-.29,1.94-.51Z"/><path class="cls-3" d="M136.61,136.67c2.87-4.27,3.55-9.53,6.38-13.78.68-1-1.13-1.3-1.62-.56-2.84,4.26-3.51,9.51-6.38,13.77-.68,1,1.13,1.3,1.62.57Z"/><path class="cls-3" d="M127.82,131.29c2.66-3.91,3.94-8.55,6.6-12.47.58-.86-1.39-.86-1.84-.2-2.66,3.92-3.94,8.56-6.6,12.48-.58.86,1.39.86,1.84.19Z"/><path class="cls-3" d="M118.53,123.26c.83-4.39,3.44-8,6-11.59.46-.64-1.46-.41-1.78,0-2.59,3.64-5.28,7.36-6.12,11.84-.12.63,1.81.29,1.92-.29Z"/><path class="cls-3" d="M110.13,117.55a75.92,75.92,0,0,1,6.6-12.48c.58-.84-1.39-.83-1.84-.18a77,77,0,0,0-6.6,12.47c-.44,1,1.51.92,1.84.19Z"/><path class="cls-3" d="M102.69,108.43a3.3,3.3,0,0,1,.8-2.51c.28-.39-.23-.64-.55-.66a1.47,1.47,0,0,0-1.27.55,4.16,4.16,0,0,0-.92,3.14c.11.75,2,.29,1.94-.52Z"/><path class="cls-3" d="M242.13,225.67c8,6.45,17.85,9.61,27.19,13.56,11.51,4.87,21.71,12.09,31.84,19.3.46.33,2.14-.44,1.81-.67-9.33-6.64-18.72-13.38-29.19-18.14-10.1-4.58-21.08-7.66-29.83-14.73-.43-.35-2.16.4-1.82.68Z"/><path class="cls-3" d="M305.14,254.83c-18.27-12.94-37.5-24.47-55.78-37.42-.43-.31-2.07.47-1.82.65,18.27,12.95,37.5,24.48,55.78,37.42.43.31,2.07-.47,1.82-.65Z"/><path class="cls-3" d="M249.28,212.47c19.26,13.68,39,26.66,58.27,40.34.54.39,2.3-.39,1.8-.74-19.26-13.68-39-26.66-58.27-40.34-.54-.39-2.3.38-1.8.74Z"/><path class="cls-3" d="M309.42,252.18c.61-4.53-3.33-8.61-6.18-11.63a109.45,109.45,0,0,0-15-12.61c-4.36-3.21-8.8-6.35-13.41-9.2-6.9-4.26-15.57-8.35-19.83-15.58-.25-.44-2.05.31-1.93.52,3.61,6.12,10.4,9.87,16.28,13.47,5,3.06,9.83,6.24,14.6,9.64a151,151,0,0,1,15,12c3.51,3.26,9.21,8.48,8.48,13.89,0,.16,1.85,0,1.93-.52Z"/><path class="cls-3" d="M256.62,200.48c18.57,13.45,32.54,32.12,51.13,45.56.42.31,2.07-.46,1.82-.64C291,232,277,213.28,258.44,199.84c-.43-.31-2.07.46-1.82.64Z"/><path class="cls-3" d="M311.47,244.48c-1.57-10.43-12.43-17.94-20-24.19-9.25-7.69-21.36-13.79-28.26-23.87-.35-.51-2.13.23-1.93.52,6.65,9.72,17.86,15,26.6,22.54,7.89,6.81,19.93,14.36,21.6,25.52.07.46,2,0,1.94-.52Z"/><path class="cls-3" d="M243.2,224.47c-23.77-18.48-45.3-39.58-68.11-59.19A415,415,0,0,0,138,136.51C124,127,109.2,118.7,95.37,108.92c-.43-.31-2.06.48-1.82.64,13.35,9.45,27.5,17.6,41.12,26.62A389.91,389.91,0,0,1,172,164.8c23.35,19.86,45.2,41.48,69.42,60.31.41.32,2.07-.45,1.83-.64Z"/><path class="cls-3" d="M246.05,218.36c-25.92-18.58-49.14-40.71-74.21-60.4q-19.25-15.11-39.1-29.4c-13.41-9.69-27.42-18.46-40.91-28-.72-.51-2.4.48-1.49,1.13,13,9.19,26.45,17.63,39.37,26.9q19.89,14.28,39.16,29.36c25.63,20,49.26,42.61,75.7,61.56.72.51,2.39-.48,1.48-1.14Z"/><path class="cls-3" d="M247.6,214.93c-7.12-7.21-15.2-13.54-23-20-12.89-10.56-26-20.88-39.1-31.14-25.23-19.69-50.58-39.34-76.7-57.84-3-2.09-5.93-4.17-9-6.13-1.2-.77-2.68-1.94-4.14-2.15-.93-.13-2,1.19-.68,1.38,1.63.22,4.19,2.41,5.68,3.41,4.12,2.75,8.13,5.63,12.14,8.53,12.38,8.92,24.56,18.11,36.71,27.34,27,20.5,53.84,41.22,79.88,62.9,5.6,4.66,11.32,9.31,16.45,14.5.6.61,2.43-.17,1.77-.84Z"/><path class="cls-3" d="M250.26,207.61c-20.89-14.93-40.75-31.43-61.06-47.13-25.38-19.62-50.67-39.68-77.39-57.47-3.82-2.55-10.54-8.46-15.56-8.18-1.13.06-1.46,1.57-.15,1.5,2.23-.12,5.24,2.21,7,3.26,4.45,2.64,8.74,5.58,13,8.52,12.69,8.76,25,18,37.34,27.32,26.5,20,52.61,40.51,78.86,60.84,5.45,4.21,10.85,8.5,16.45,12.51.75.53,2.41-.5,1.48-1.17Z"/><path class="cls-3" d="M253.08,200.51c-25.79-18.36-51.61-36.71-77.75-54.58q-20.1-13.74-40.53-27c-5.79-3.73-11.43-7.38-16.84-11.65-4.59-3.62-9.46-7.16-15.36-8-.87-.14-2,1.08-.7,1.28,6.52,1,11.87,5.68,16.87,9.65,5.5,4.37,11.58,7.91,17.47,11.72,13.16,8.5,26.16,17.25,39.1,26.09,25.63,17.52,50.94,35.53,76.23,53.55.63.44,2.37-.44,1.51-1.05Z"/><path class="cls-3" d="M257.08,196.46C232.63,179.09,207.29,163,182,146.92c-12.37-7.89-24.72-15.81-37-23.91-6.21-4.11-12.26-8.5-18.58-12.43-6-3.72-12.43-6.66-18.6-10-.74-.41-2.43.6-1.48,1.12,5.66,3.11,11.48,5.94,17.09,9.16,6.39,3.66,12.35,8.18,18.49,12.26,12.74,8.49,25.65,16.74,38.56,25,25.28,16.12,50.61,32.17,75.06,49.54.7.5,2.39-.48,1.49-1.12Z"/><path class="cls-3" d="M227.16,170.23c15.67,3.86,34.33,2.73,44.43,17.62l1.63-1c-4.53-2.91-11-5.17-16.46-4.16-4.46.83-15.18,6.19-19,2.76-.64-.59-2.32.37-1.48,1.12,3,2.72,8.58.68,11.93-.22a74.76,74.76,0,0,1,9.54-2.39c4.58-.62,10.23,1.61,14,4,.58.37,2.21-.15,1.63-1-10.31-15.2-29.1-14.15-45.09-18.09-.84-.2-2.29,1-1.11,1.32Z"/><path class="cls-3" d="M238.64,182.24c7.08-.51,14.7-2.58,21.52.26.56.24,2.43-.44,1.52-1-7.83-4.83-17.63-.61-26,.07-.08.4-.15.8-.23,1.2a126.48,126.48,0,0,1,23.25-1.48c.78,0,2.06-1,.72-1.22a80.52,80.52,0,0,0-24-.09c-1,.14-1.55,1.4-.23,1.2,9.08-1.38,18.91-1.09,27.68,1.79l.94-1.19c-9.55-1.19-18.31-5.66-28-5.93-.78,0-2.05,1.09-.72,1.22,9.4.92,19.06,1.5,27.62,5.83.59.29,2.39-.43,1.52-1-8.23-5.49-18.35-6.53-27.8-8.53-.66-.13-2.32.81-1.16,1.16,10.13,3,20.79,3.89,30.63,7.84l1.12-1.11c-11-.89-21.12-5.28-31.52-8.55l-1.16,1.15c7.7,2.41,15.26,5.35,23.24,6.74.14-.38.29-.75.43-1.13-6.7,1.77-13.69.16-20.29,2.64-.24.09-.84.56-.49.86,5,4.38,11.77,1.75,17.5.66.94-.17,1.08-1.34,0-1.15A82.91,82.91,0,0,0,241,185.59l.76.9a51.09,51.09,0,0,1,10.4-4.94c.61-.23.81-1.1,0-1.07a104,104,0,0,1-16.46-.51l-.72,1.22a96.43,96.43,0,0,0,21.48-.31c.48-.07,1.75-.88.69-1.17-6.62-1.83-13.49-1.72-20.18-3.16l-.94,1.19a151.83,151.83,0,0,1,25.68,3l1.15-1.15c-8.2-1.35-16.36-3.56-23.33-8.25l-1.51,1c6,3.91,13,5.25,19.39,8.2l1.52-1c-5.77-2.5-11.77-4.38-17.54-6.88l-1.11,1.12c8.91.58,16.95,5,25.54,7.09.7.17,2.29-.88,1.16-1.15-8.75-2.09-16.9-6.57-26-7.16-.38,0-2,.72-1.11,1.11,5.76,2.5,11.76,4.38,17.53,6.88.63.27,2.4-.6,1.52-1-6.4-2.94-13.46-4.29-19.4-8.2-.59-.39-2.35.44-1.51,1,7.06,4.75,15.36,7,23.69,8.39.66.11,2.31-.9,1.15-1.15a154.77,154.77,0,0,0-26.11-3c-.55,0-2.07.94-.93,1.18,6.68,1.44,13.56,1.33,20.18,3.16l.69-1.18a94.44,94.44,0,0,1-21,.29c-.81-.06-2,1-.72,1.22a102.79,102.79,0,0,0,16.46.5c0-.35,0-.71,0-1.07a53.1,53.1,0,0,0-10.83,5.18c-.85.57.08,1.14.76.9a79.85,79.85,0,0,1,13.15-3c0-.38,0-.77,0-1.15-2.33.44-4.63,1-7,1.42a18.79,18.79,0,0,1-3.59.24c-2.94,0-4.27-1.84-.18-2.38,4.89-.64,9.8,0,14.62-1.23.43-.12,1.36-1,.43-1.13-8-1.39-15.54-4.33-23.24-6.74-.7-.21-2.28.8-1.16,1.15,10.56,3.31,20.82,7.72,32,8.62.39,0,2-.75,1.12-1.11-10-4-20.73-5-31-8l-1.16,1.16c9.33,2,19.33,3,27.44,8.38l1.52-1c-8.82-4.45-18.75-5.09-28.42-6l-.72,1.22c9.7.27,18.48,4.74,28,5.93.61.08,2-.82.94-1.18-9.06-3-19.23-3.27-28.61-1.84-.08.4-.15.8-.23,1.2a78.91,78.91,0,0,1,23.52.11l.72-1.22a128.29,128.29,0,0,0-23.74,1.5c-1,.15-1.59,1.31-.23,1.2,7.88-.63,17.39-4.78,24.71-.27l1.52-1c-7.32-3.06-15.21-1-22.82-.47-1,.08-1.56,1.3-.22,1.21Z"/><path class="cls-3" d="M196.25,193c4.36,9.06,14.38,16.9,24.82,15.57,9.87-1.26,14.78-11,14.94-20,0-.52-1.92-.19-1.93.52-.16,8.89-4.82,18.18-14.77,18.69-8.7.45-17.62-8-21.13-15.3-.3-.62-2.18,0-1.93.52Z"/><path class="cls-3" d="M197.77,185.16c0-7.55,5.35-14.93,10.84-19.77,9.37-8.27,18.64,1.42,23.06,9.35l1.87-.62c-5.93-4.21-14.9-11.2-22.63-8.82,9.75-3,22,3.34,25.41,12.75.2.57,2.11,0,1.93-.52-4-11.08-17.76-16-28.57-12.7-.54.17-1.36.84-.29.86,8.91.15,15.28,4.12,22.34,9.14.33.24,2.15-.11,1.87-.61-4-7.23-11.33-15.37-20.56-12.27-8.94,3-17.25,14.31-17.2,23.73,0,.46,1.94.13,1.93-.52Z"/><path class="cls-3" d="M51.07,103.66c2.78,2,4.93,3.14,8.33,2.83.13,0,1.72-.46,1.33-.71a38.56,38.56,0,0,0-9.81-4.14,2,2,0,0,0-1.75.54l-.66.93c-.08.12.09.17.16.2,4.21,1.5,8.66,2.06,12.88,3.56.35.13,2-.49,1.71-.69-3.93-2.53-8.56-3.56-12.49-6.09-.46-.29-2.07.49-1.82.65,5,3.28,11.11,3.94,16.6,6.22.4.16,2.14-.44,1.82-.66a63.84,63.84,0,0,0-12.49-6.08c-.38-.15-2.14.43-1.82.65a35.23,35.23,0,0,0,14.2,5.86c.26,0,2.09-.42,1.7-.69l-4.65-3.31-1.82.65c2.64,1.69,4.79,1.23,7.85,1.24.18,0,1.94-.43,1.54-.71l-7.44-5.3-1.82.65c1.72.95,3.57,1.43,5.31,2.38.42.24,2.11-.44,1.82-.65l-5.58-4-1.82.65c1.73,1,3.57,1.42,5.31,2.38.49.27,2-.53,1.82-.65-1.72-1-3.57-1.43-5.31-2.38-.42-.24-2.11.44-1.82.65l5.58,4,1.82-.65c-1.72-.95-3.57-1.42-5.31-2.38-.42-.23-2.11.45-1.82.65l7.44,5.3,1.54-.71c-2.62,0-4.94.39-7.29-1.12-.43-.28-2.09.46-1.82.65l4.65,3.31,1.71-.7a34.93,34.93,0,0,1-14-5.77l-1.82.65A63.32,63.32,0,0,1,65.55,107l1.82-.66c-5.47-2.27-11.56-2.94-16.6-6.21l-1.82.65c3.93,2.53,8.55,3.56,12.48,6.09l1.71-.69A57.21,57.21,0,0,0,56,104.2c-1-.21-6-.9-4.91-2.36l-1.75.54a37.53,37.53,0,0,1,9.58,4.06l1.33-.71c-3.21.3-5-1.08-7.34-2.72-.44-.31-2.08.47-1.83.65Z"/><path class="cls-3" d="M53.61,91.37l15.13,2.36c.52.08,1.91-.62,1.11-1.17-4.31-2.94-9.18-5-14.47-4.34-.44,0-1.6.66-.85,1.16,5.06,3.41,10.93,4.87,16.78,6.3.52.12,2.26-.55,1.33-1.13-3.33-2.09-7.31-2.61-10.63-4.76-.42-.28-2,0-1.72.78,1.78,3.9,5.48,5.53,8.85,7.82.64.43,2.37-.44,1.51-1l-8.37-6-1.51,1.05c2.77,1.82,5.8,2.59,8.95,3.52.54.16,1.89-.25,1.46-1-2.25-4-5.36-6.63-9-9.26l-1.51,1c3.5,2.48,6.93,4.46,11.27,3.24.41-.11,1.24-.72.6-1.12C69,86.7,65,86.61,61.07,86.48c-.59,0-2.07.9-.92,1.25A47.54,47.54,0,0,0,71.39,90c.87,0,2-1.22.7-1.29a45.25,45.25,0,0,1-10.8-2.2c-.3.42-.61.83-.92,1.25,3.66.12,7.41.14,10.62,2.12l.59-1.12c-3.72,1-6.64-1.12-9.44-3.1-.63-.44-2.37.44-1.51,1,3.59,2.56,6.59,5.15,8.77,9l1.46-1c-3-.89-5.93-1.62-8.58-3.36-.63-.42-2.37.43-1.51,1.05l8.37,6,1.51-1c-3.12-2.12-6.77-3.66-8.43-7.29l-1.71.78c3.32,2.16,7.3,2.68,10.62,4.77l1.33-1.13C66.73,93.08,61,91.67,56,88.34c-.29.39-.58.77-.86,1.16,4.85-.56,9.25,1.44,13.16,4.11l1.1-1.17L54.31,90.07c-.88-.13-2,1.09-.7,1.3Z"/><path class="cls-3" d="M62.87,75.7c4.35,3.25,7.35,7.88,11.7,11.14l1.51-1.06-11.17-8c-.51-.36-2.21.2-1.64.94a35.45,35.45,0,0,0,7.85,7l1.5-1.06L68,81.41c-.51-.37-2.21.2-1.64.94,2.4,3.14,5.58,5.39,8.78,7.67.55.39,2.09-.14,1.64-.94-2.38-4.23-6.13-7.43-8.52-11.67-.54.32-1.09.63-1.64.94a35.44,35.44,0,0,0,9.22,5.11c.58.2,2.16-.48,1.32-1.13-2.13-1.67-3.71-3.9-5.85-5.57l-1.5,1.06a15.43,15.43,0,0,0,5.72,2.5c.88.16,2-1.07.69-1.3a13.9,13.9,0,0,1-4.91-2.26c-.63-.42-2.36.39-1.5,1.06,2.13,1.66,3.72,3.9,5.85,5.56L77,82.24a34.09,34.09,0,0,1-8.85-4.95c-.55-.39-2.09.14-1.64.94,2.38,4.24,6.13,7.44,8.51,11.67L76.61,89c-3.1-2.2-6.17-4.39-8.5-7.43-.55.31-1.1.62-1.64.94l4.65,3.31c.63.45,2.37-.44,1.5-1.06A34.15,34.15,0,0,1,65.05,78l-1.64.94,11.16,8c.63.45,2.36-.42,1.51-1.06-4.35-3.25-7.35-7.88-11.7-11.13-.63-.47-2.36.42-1.51,1Z"/><path class="cls-3" d="M75,66a20.1,20.1,0,0,0,6.45,8.84l1.81-.7a16.15,16.15,0,0,1-4.86-4.81c-.29-.47-2.06,0-1.93.52.71,3.22,2.48,6.06,3.2,9.28l1.93-.51c-.78-3.48-2.79-6.28-4.86-9.11-.28-.39-2,.08-1.87.6.91,5,2.45,9.88,5.66,13.89.32.4,1.9-.07,1.87-.61a37.26,37.26,0,0,0-5.47-17.91L75,66c2.43,3.64,3.54,9.34,9,6.92,1.24-.55.08-.92-.71-.58-3.38,1.49-5-4.79-6.39-6.86-.35-.52-2.16.15-1.93.52A37.26,37.26,0,0,1,80.46,83.9l1.87-.61c-3.16-4-4.65-8.79-5.54-13.7l-1.87.6c2,2.79,4,5.52,4.74,8.93.11.53,2,0,1.93-.51-.72-3.23-2.49-6.06-3.2-9.29l-1.93.52a16.92,16.92,0,0,0,5,5c.46.34,2.21-.39,1.81-.7a19.84,19.84,0,0,1-6.33-8.66c-.23-.55-2.12.06-1.93.52Z"/><path class="cls-3" d="M87.13,69.08c.82.53,3.27,1,3.27-.64,0-2.72-2.49-6.24-4.52-7.87-.41-.32-2-.07-1.87.63.9,5,2.45,9.9,5.66,13.9.37.47,1.91,0,1.87-.62C91.18,68.87,87.62,64.74,85,60c-.31-.57-1.79-.2-1.93.39-1,4.31.64,8.86,2.14,12.86.22.59,1.86.17,1.93-.38a18.86,18.86,0,0,0-4.07-14.31c-.39-.48-1.85,0-1.86.63a68.15,68.15,0,0,0,1.21,12.08c.11.66,1.64,0,1.86-.26a12.92,12.92,0,0,0,2.45-5.44c.13-.7-1.81-.37-1.92.26A12.58,12.58,0,0,1,82.5,71l1.86-.26a68.05,68.05,0,0,1-1.21-12.08l-1.86.63a18.26,18.26,0,0,1,3.93,13.83l1.93-.39C85.69,68.85,84,64.35,85,60.15l-1.93.38c2.6,4.72,6.17,8.87,6.53,14.46l1.86-.63c-3.16-3.93-4.65-8.78-5.53-13.68l-1.86.63a13.63,13.63,0,0,1,3.3,4.33,13.81,13.81,0,0,1,.91,2.17c.32,1,1.1.82.39.37-.5-.32-2.29.43-1.55.9Z"/><path class="cls-3" d="M94.09,62.59a4.15,4.15,0,0,0,0,2,.71.71,0,0,0,.63.44,1.54,1.54,0,0,0,1.44-.59.58.58,0,0,0,.08-.71c-.8-1.42-2-2.73-2.32-4.34-.21-.94-1.75-.32-1.94.33-1.18,4.12-.75,8.1,2,11.5a1.16,1.16,0,0,0,1.86-.5A27.59,27.59,0,0,0,96,62.26l-1.93.51c.41,2.75.45,4.85,2.08,7.2.46.67,2,.15,1.85-.68a31,31,0,0,0-2.35-8.79c-.35-.73-2-.12-1.85.68a27.82,27.82,0,0,0,3,7.86c.38.73,2,.12,1.85-.68l-.81-4.78c-.15-.89-2.08-.4-1.93.52.27,1.59.54,3.18.8,4.78l1.86-.69a26.44,26.44,0,0,1-2.86-7.53l-1.85.69c1.3,2.63,1.71,5.6,2.19,8.46L98,69.12c-1.56-2.25-1.53-4.27-1.92-6.86-.13-.9-2.06-.41-1.93.51a26.51,26.51,0,0,1-.27,8l1.87-.5c-2.58-3.23-2.9-6.91-1.78-10.8l-2,.34c.4,1.74,1.62,3.13,2.48,4.67,0-.23,0-.47.08-.71l-.19.19,1.15-.41-.12,0L96,64a3.52,3.52,0,0,1,0-1.58c.15-1-1.82-.72-2,.15Z"/><path class="cls-3" d="M222.76,174.42a10.57,10.57,0,0,0-7.53-5.62c-7.28-1.17-12.76,6.43-13.92,12.66a18.69,18.69,0,0,0,.8,10c-.63,9.33,10.92,13.64,19,11.13,10.8-3.34,14.81-23.62,2.82-27.85A11.37,11.37,0,0,0,222.76,174.42Z"/></svg>