<svg id="layer1" xmlns="http://www.w3.org/2000/svg" viewBox="0 0 477.31 329.22"><defs><style>.cls-1{fill:#319938;}.cls-2{fill:#492d0c;}</style></defs><path class="cls-1" d="M420.15,206.69c.35-7,1-15.22-1-22.25-3-10-15.33-5.07-16.37,5.47l-1.32-.3c.27,0,.36-.06-.77-.48-10.45-2.74-19.86-1.57-25.43,9.76-6.12,12.44-3.13,32.39,5.57,42.93,4.88,5.86,11.15,10.93,17.77,5.47,2.09-1.57,5.85-8.83,8.36-7.42,2.09,1.17-1.05,9,5.92,9,7.48,0,7.32-12.49,7.32-16.79C420.15,224.65,419.8,214.11,420.15,206.69Zm-14.39,14.74c-.85,6.19-5.65,15.55-14.07,11.3-5.58-3.23-7-12.37-7.44-18.27-.56-9.84,9.63-19.13,18.55-10.13l0,.39C405.77,209.29,406.11,216.37,405.76,221.43Z"/><path class="cls-2" d="M421.13,206.62c.38-7.35,3.32-25.38-6.52-28.13-6.84-1.91-12,5.82-12.86,11.49l1.54-.72L402,189c0,.4-.09.8-.13,1.2l.13-.08c.51-.3.83-.89.14-1.2a23.72,23.72,0,0,0-19.58.65c-6.62,3.46-9.74,11.27-11,18.19-1.59,8.83.08,18.37,3.55,26.53,2.9,6.83,8.62,14.38,16.22,16,3,.63,6.24-1.06,8.4-3,.79-.7,6.52-8.65,7.07-5.23.8,5,2.05,8.67,8.09,7.18,5.27-1.31,5.95-9,6.2-13.27.56-9.75-.33-19.56.07-29.32,0-1-1.93-.71-2,.15-.3,7.48-.09,15,0,22.45,0,5.19.29,10.68-1.75,15.56s-7.86,3.81-8.51-1c-.16-1.2.12-3.23-.91-4.14-2.37-2.09-5.24,1.39-6.57,3-3.39,4.09-6.83,8.08-12.93,5-3.78-1.92-6.76-5.82-9.05-9.3-4.28-6.49-6.08-14.66-6.45-22.32s1.35-15.55,6.12-21.66S394,187.06,401,190.18c0-.41.09-.81.13-1.21l-.13.08c-.41.24-.93,1-.14,1.21l1.32.29c.54.12,1.44,0,1.54-.72.92-6.39,9.56-15.4,14-6.25,3.27,6.69,1.8,16,1.43,23.19C419.12,207.77,421.08,207.48,421.13,206.62Z"/><path class="cls-2" d="M404.78,221.5c-1.16,7-7.5,16.43-14.79,8.59-3.84-4.12-4.73-11.66-4.78-17.05a13.7,13.7,0,0,1,3.73-8.89,8.15,8.15,0,0,1,8.38-2.38c.2,0,4.55,2,4.49,2.83-.11,1.54,1.71,4,2.18,5.62a34.21,34.21,0,0,1,.79,11.28c-.06,1,1.91.71,2-.15.46-8.24-.11-18.79-9.51-21.17-7.78-2-13.38,6.37-14,13-.66,7.55,2.31,18.79,10.41,21.08,7.6,2.15,12.08-7,13.06-12.93C406.9,220.39,404.92,220.65,404.78,221.5Z"/><path class="cls-1" d="M267.27,189.1c-1.82,9.35-.64,30.31.27,42,.91,12.84,8.55,21.28,18.57,18.94,10.94-3.5,14.24-16.61,17.89-29.45h0c.91,5.83-.88,18.46,1.85,23.13,4.56,9.34,10.35-.88,10-9.12-.58-13.3-.7-21.89-1-40.31-.12-7.1-3.14-14.95-8.52-13.22-3.17,1-5.95,11.49-6.86,18.49-1.82,8.18-9.16,45.53-17.36,31.52-4.56-7-4.63-22.82-4-31,.9-12.65-1.8-25.3-9.87-13.8Z"/><path class="cls-2" d="M266.31,189.24c-1.69,9.49-1,19.51-.57,29.07.47,9.77-.06,21.15,7.17,28.71,4.83,5,13.13,5,18.5.87,8.41-6.43,10.82-17.8,13.55-27.45l-1.93.39c.62,4.85.18,9.79.28,14.66.08,3.52.44,9.83,4.11,11.8,6.95,3.73,9.4-8.72,9.39-13,0-11.56-.72-23.15-.92-34.71-.09-4.9-.21-22.84-10-18.91-2.66,1.08-3.74,4.4-4.65,6.85-1.71,4.6-2.22,9.46-3.26,14.21a181.78,181.78,0,0,1-5.83,22,27.81,27.81,0,0,1-4.51,8.86c-3.37,4-6.65-6.16-7.2-8.16-3.08-11.26-.61-22.78-1.54-34.17-.23-2.84-1.06-9.66-5.37-9.05-4,.56-6.18,4.54-7.26,8-.19.6,1.74.33,1.92-.27a12.3,12.3,0,0,1,3.59-5.94c3.12-2.94,4.48,3.51,4.81,5.08,1.17,5.47.35,11.11.23,16.64-.2,9.09-.36,20.22,5.16,27.95,7.42,10.38,14.71-17.6,15.48-20.6,1.88-7.34,2.88-14.9,4.88-22.2a25.24,25.24,0,0,1,3.18-7.5c2.51-3.71,5.6,1.5,6.29,2.76a17,17,0,0,1,1.3,3.73c1.66,6.06.83,13.13,1,19.37q.15,8,.38,16c.18,5.76,1,11.73-.56,17.33a13.87,13.87,0,0,1-2.12,4.16c-2.37,3.3-4.84-2-5.36-3.06-.95-1.9-1-4.36-1.14-6.43-.36-5.31.33-10.66-.34-15.94-.08-.63-1.79-.07-1.92.39-2.41,8.51-4.52,17.78-10.49,24.6C284,255,273.17,247.65,269.83,238c-2.58-7.47-2-16.74-2.35-24.55-.32-8.08-.67-16.44.75-24.43C268.35,188.3,266.42,188.64,266.31,189.24Z"/><path class="cls-1" d="M215.06,232.61a145.5,145.5,0,0,1-15.86-18c5.8-.35,14.53-6.21,15.09-11.42,1.93-18-11.61-20.07-24-20.76-4.65-.35-16.64,0-20.51,3.46l-.77,1.38c-2.71,8.31.38,19,.38,27.34,0,5.88,1.16,11.42,1.16,16.95.39,4.85-1.93,14.88,3.87,17.3,7,3.12,11.22-5.19,10.84-9.69,0-3.8-3.49-15.91,3.09-16.6s11.4,11.95,14.32,15.22c6.19,6.92,7.35,12.11,15.09,11.07C229.77,247.49,218.93,236.42,215.06,232.61Zm-30.57-23.53c-4.25-2.42-4.64-12.46-3.48-16.61l1.16-.34c5.42-2.08,12-.7,16.64,2.07C211.19,201.81,194.17,214.27,184.49,209.08Z"/><path class="cls-2" d="M216,232.18a155,155,0,0,1-15.87-18l-1,1.14a22.65,22.65,0,0,0,11.33-5c4-3.11,5.07-6.69,5-11.61-.14-8.57-6-13.62-13.77-15.61a61.86,61.86,0,0,0-25.24-.57c-2.4.42-6.44,1.24-7.76,3.59-2.58,4.63-1.82,10.83-1.35,15.91.62,6.83.95,13.67,1.61,20.49.61,6.3.34,12.38.57,18.66.25,7,6.41,11.83,12.68,7.22,6.58-4.83,3-13.73,3.19-20.29.15-4.19,3.95-5.68,7.25-3,1.94,1.55,3.34,3.91,4.66,6,2.68,4.22,5.37,8,8.41,12,4,5.22,11.25,10.07,17.43,4.44,4.66-4.23-4.5-12.64-7.16-15.28-.63-.62-2.46.18-1.77.86a46.43,46.43,0,0,1,6.61,7.8c2.23,3.45,1.77,6.57-2.93,7.32-4,.62-6.46-1.14-8.84-4A81.52,81.52,0,0,1,201.28,234c-2.13-3.55-4.14-7.13-7.19-10-4.14-3.9-9.63-2.07-10.59,3.36-.63,3.51.32,7.34.72,10.83a11.86,11.86,0,0,1-1.12,6.44c-2.17,4.83-8.6,5.66-10.89.52-1.69-3.79-.62-8.73-.63-12.76,0-6.93-.94-13.91-1.31-20.83-.33-6.07-1.51-12-1.34-18.11.07-2.63.25-6.44,2.76-7.93s5.85-1.77,8.62-2.09c8.37-1,19.12-.76,26.61,3.5,4.88,2.78,6.49,8.07,6.57,13.37.12,7.52-7.18,12.84-14.21,13.64-.46,0-1.42.54-1,1.14a154.23,154.23,0,0,0,15.87,18C214.82,233.65,216.64,232.85,216,232.18Z"/><path class="cls-2" d="M185.24,208.52c-4.14-2.78-4.11-9.85-3.62-14.22.13-1.19-.2-1.22.43-1.41a23.65,23.65,0,0,1,4.27-1c4.05-.46,8.26.9,11.75,2.86,5,2.82,5.05,7.88,1,11.46-3.74,3.25-9.48,4.4-14,2.2-.81-.39-2.22.78-1.11,1.32,5.37,2.62,11.84.94,16.36-2.62,4.79-3.77,4.89-9.3,0-13-3.19-2.4-7.51-3.46-11.42-3.72-2.06-.14-7.22,0-8.72,1.75s-.75,6.85-.5,9.07c.34,3.09,1.34,6.58,4.05,8.39C184.47,210.13,186.16,209.14,185.24,208.52Z"/><path class="cls-1" d="M430.68,133.64c-7.26,1-4.16,29.71-4.06,33.24.54,21.08-1.56,71.86,3.12,80.06,4.68,7.81,10.15,2.75,12.1-3.89,2-9.76-.39-47.22,0-55.81.39-9.36.94-46.12-4.14-52.76-.78-1.17-2.34-1.84-5.62-.84Z"/><path class="cls-2" d="M430.52,133.17c-5.33,1.06-5.32,9.65-5.53,13.69-.35,6.76.39,13.45.65,20.18.75,19.59-.4,39.22.3,58.82.23,6.6.15,13.91,2.32,20.23,2.53,7.38,9.43,6.29,12.94.76,3.9-6.14,2.44-16.24,2.37-23.11-.09-9.6-.5-19.19-.73-28.79-.29-12.52.44-25-.15-37.55-.31-6.44-.69-13.06-2.37-19.32-.38-1.41-1-3.68-2.33-4.6-2.31-1.64-4.43-.35-7-.35-.85,0-2,1.3-.69,1.3,1.73,0,5.78-.29,6.48.54a10.17,10.17,0,0,1,1.58,3.63,62.18,62.18,0,0,1,1.89,12.21,282.24,282.24,0,0,1,.78,29.23c-.23,16.18.57,32.31.59,48.49,0,3.82-.06,7.65-.37,11.46a16.6,16.6,0,0,1-1.31,5.54c-.94,2.22-3.33,5.79-6.61,4.14-1.44-.72-2.59-2.62-3.17-4.1-2.6-6.66-2.16-15.21-2.38-22.2-.61-19,.78-38-.24-57-.28-5.21-.7-10.4-.72-15.62,0-3.32-.65-15.5,4-16.42C432.05,134.14,431.7,132.94,430.52,133.17Z"/><path class="cls-1" d="M370.05,231.58c-2.13-11.35-.71-22.69-2.13-34,0-5.67,0-17-7.8-14.89-2.83,1.42-5.67,6.38-7.09,9.22l-1.07-.56c-1.93,1-4.35-.48-6.77-1a20.83,20.83,0,0,0-19.81,7.26c-8.7,11.6-6.29,37.21,4.35,47.37,8.21,7.73,16.92,4.83,24.65-2.42l2.2,1.07c4.25,12.76,2.83,24.81-8.51,33.32-14.18,9.92-24.1,5-32.61-7.8-2.13-3.55-5.67-9.22-10.63-7.09-5.68,1.42-7.09,9.22-7.09,14.18,1.41,14.18,16.3,19.14,28.35,20.56,22,2.12,40.41-6.38,46.79-28.36C376.43,255.68,371.46,244.34,370.05,231.58Zm-19.14-5c-6.39,20.56-27.65-7.79-14.89-19.85,5-5,9.92-3.54,13.47-.7l.71,1.41C355.16,211.73,353,221.65,350.91,226.61Z"/><path class="cls-2" d="M371,231.32c-1.49-8.77-1.22-17.62-1.53-26.47-.21-5.85,0-12.72-1.71-18.39-1.1-3.68-3.94-4.93-7.49-4.22-3.93.8-6.58,6.63-8.2,9.79l1.86-.5c-.6-.31-1.12-.74-1.81-.63-2.64.43-5.2-.81-7.78-1.22-4.29-.68-8.69.53-12.57,2.27-8.89,4-11.88,13.36-12.57,22.36-.76,9.82,1.56,20.62,7.46,28.61,5.68,7.69,15.38,9,23.18,3.83,1.36-.9,4-3.67,4.84-3.25,2.1,1,2.35,5.53,2.71,7.65a27,27,0,0,1-3.2,18.36c-4.4,7.6-14.41,13.75-23.22,11.79-6.38-1.41-11.07-7.33-14.55-12.41-1.86-2.71-3.87-7-7.53-7.56a9.61,9.61,0,0,0-7.87,2.31c-6.52,6.6-4.92,17.57.83,24,6.31,7,17.43,9.23,26.4,9.83a51.93,51.93,0,0,0,26.06-4.77c8.56-4.13,14.62-11.67,18.15-20.35,5.54-13.61.25-27.24-1.46-41-.06-.48-2-.07-1.93.51,1.66,13.38,6.49,26.12,2,39.5A36.64,36.64,0,0,1,350.1,293.7c-14.76,6-51.82,4.12-51.38-18.75.11-5.74,4.58-18.08,12.44-10.28,3.42,3.4,5.49,8.14,8.88,11.68a19,19,0,0,0,19.85,5.27,28.79,28.79,0,0,0,18.53-17.31c1.6-4.35,1.53-9.17.92-13.68-.52-3.85-.71-6.79-4.18-8.48a1.86,1.86,0,0,0-1.66.45c-20.07,18-31.95-7.74-32.45-24.94-.2-6.92,1.15-14.36,5.21-20.1,4.25-6,12.76-8.21,19.6-6.42,1.65.43,4.84.34,6.27,1.08a1.66,1.66,0,0,0,1.86-.5c2-3.81,7.77-13.25,11.51-5.62,1.44,3,1.39,6.74,1.45,10,.09,5.62.69,11.24.77,16.88a123.07,123.07,0,0,0,1.36,18.9C369.16,232.33,371.11,231.88,371,231.32Z"/><path class="cls-2" d="M350,226.77c-.81,2.44-2.24,6.39-5.33,6.66-2.25.2-4.4-1.61-5.89-3.06A20.79,20.79,0,0,1,333,216.65a13.55,13.55,0,0,1,2.37-8.16c3.17-4.68,11.06-6.4,13.88-.76.68,1.35,1.88,2.33,2.44,3.86a14.67,14.67,0,0,1,.59,4.93A27.72,27.72,0,0,1,350,226.77c-.18.44,1.69.23,1.91-.31,3.21-7.84,4.06-19.11-5.22-22.88-7.53-3.06-15.23,5-15.55,12.11-.31,6.67,3,14.71,9.21,17.86,5.66,2.87,9.93-2.2,11.56-7.09C352,226,350.13,226.23,350,226.77Z"/><path class="cls-1" d="M231.76,129c14.18-2.84,8.59,43.88,8.59,51,0,3.81,13.14-2.07,13.49,6.23.25,6.06-14.47-.32-14.19,4.85.34,6.05-.69,15.09-.69,20.76s-1.07,13,.35,18.68c1.42,9.22,11.07,16.61,15.14-1.53.79-3.52,8-4.69,9.08,1.88.34,5.54-2.08,11.77-9.08,15.85-10,5.85-18.48,4.47-23.45-6.16-3.54-7.8-3.59-19.87-3.11-27.68.69-11.42,4.5-23.53-5.19-23.88-15.94-.57-5.19-9.69,6.22-8.21.71-7.09-7.48-49.52,1.74-51.65Z"/><path class="cls-2" d="M231.6,129.4c12-1.87,8.79,32.87,8.46,39-.13,2.41-2.26,11.9.48,13.15,2.3,1,5.83.13,8.27.44s3.79,2,4.06,4.42c.35,3.12-5.8,2-7.66,1.94-1.65-.07-4-.17-5.42.87a2.1,2.1,0,0,0-1.07,1.47c-.2,3.14,0,6.34-.17,9.49-.29,6-.48,12-.78,17.94-.28,5.63-.42,11.53,1.84,16.8,1.67,3.88,6.29,7.57,10.38,4.46,3.31-2.52,4.47-6.74,5.41-10.61,1.35-5.49,6.52-.43,7.16,2.28.75,3.17-1.06,7.28-2.68,9.87-3.71,5.95-12.56,10-19.35,8.1-5-1.45-7.95-6.86-9.57-11.39-3.39-9.49-2.66-20.87-1.58-30.69.49-4.52,3.11-15.52-2.87-17.78-3.08-1.16-9,.23-10.81-3.06-2.31-4.31,11-5.09,12.61-4.94.33,0,1.54-.11,1.57-.6.61-8-1.39-16.59-2.07-24.58-.35-4.2-3.34-25.92,3.55-26.56.58-.06,2.08-1,.8-.92-8.13.75-7,12.62-6.84,18.49.16,6.65.87,13.29,1.56,19.9.48,4.55,1.43,9.38,1.09,14l1.57-.6c-4.51-.44-13.87,0-15.81,5.34-.76,2.09,2.86,3.11,4.12,3.32,2.85.49,6,0,8.39,2,1.95,1.61,2,5,2,7.21.08,5.39-1.09,10.82-1.39,16.2a82.39,82.39,0,0,0,1.06,19.53c1.57,8.5,7.4,18.11,17.34,16.55,8.85-1.39,17.41-7.15,19.1-16.38,1.16-6.32-4-10.74-9.51-7-1.24.84-1.44,2.37-1.76,3.7a18.7,18.7,0,0,1-3.55,7.55c-4.16,5-8.43-4.49-9.09-7.22-1.45-6-.74-12.08-.53-18.12.22-6.48.7-13,.78-19.45,0-2.14-.38-4.21,2.69-4.26,1.34,0,2.7.12,4,.18a17.66,17.66,0,0,0,4.53-.34,3.56,3.56,0,0,0,2.12-5.77c-2.26-3-6.59-2.42-9.9-2.38-4.38,0-2.68-5.08-2.48-8.19.67-10.22,1.26-20.6,0-30.81-.67-5.51-2.42-14.56-9.78-13.41C231.08,128.66,230.25,129.62,231.6,129.4Z"/><path class="cls-1" d="M155.29,192.1c-7.63-7.63-21-7.63-27.07-7.24C113,186.38,105.06,201,103.53,215.52c-1.91,14.1,6.86,26.3,19.82,31.64,14.49,6.48,27.83,0,35.07-13.73C165.66,219.33,166.34,203.53,155.29,192.1ZM145.4,224c-3.46,6.54-9.83,9.64-16.74,6.54-6.18-2.54-10.37-8.36-9.46-15.09.73-6.91,4.51-13.9,11.79-14.63,2.91-.18,9.27-.18,12.91,3.45C149.17,209.73,148.85,217.27,145.4,224Z"/><path class="cls-2" d="M156,191.52c-10.46-9.74-30.62-10.54-41.62-1.46-13,10.74-16,33.17-6.26,46.66,10.14,14.12,30.67,18.3,43.92,6.52,14.31-12.73,17.22-37.3,4.1-51.58-.63-.68-2.46.12-1.76.88,12.26,13.33,9.76,33.2-.91,46.81-11.85,15.09-32.85,10.12-43.58-3.5-9.55-12.11-6-31,3.24-42.25,9.43-11.47,31-10.63,41.39-.92C155.22,193.3,156.87,192.3,156,191.52Z"/><path class="cls-2" d="M144.47,223.87c-4.61,8-12.83,8.81-19.81,3.17-5.85-4.73-5.25-12.78-2.4-18.93,3.24-7,11.12-7.69,17.63-5.39,8.85,3.13,7.72,14.54,4.58,21.15-.49,1,1.46,1.08,1.86.26,4-8.51,3.5-19.65-6.63-23.23-7.65-2.7-15.4-.1-19.3,6.94-4.63,8.38-2,18,6.23,22.69,7.74,4.35,15.53.82,19.7-6.4C146.88,223.16,144.92,223.09,144.47,223.87Z"/><path class="cls-1" d="M92.81,43.11C56.94,48,63.62,117.37,63,148.47c-1.26,31.73-7,90.23,3.81,99.64,2.91,2.53,6.85,2.29,11.43,0C95.35,243,94.08,223.36,92.81,209.4c-.63-13.33-1.9-35.55,9.52-50.14,9.67-12.35,32.37-.64,47.61-4.45,18.4-4.44,30.09-26.58,31.09-45.69C183.57,60.88,139.78,36.76,92.81,43.11Zm35,87.57c-15.68,2.11-29.92-13.41-34.91-27.53s5.7-29.65,20-34.59c5-1.41,10,0,15,0h1.42c11.4,2.12,25.65,18.35,26.36,30.35C157,113.74,142.73,129.26,127.77,130.68Z"/><path class="cls-2" d="M92.91,42.46C78.26,44.68,70.76,57,66.87,70.22c-5.21,17.79-5.07,37.1-5,55.47s-.66,36.77-1.62,55.24c-1,19.16-3.11,40.11,1.4,59,1.47,6.15,4.51,11.16,11.57,10.52,8.61-.78,16.24-7.23,19.16-15.07,3.24-8.69,1.75-18.14,1.32-27.13-.54-11.24-.66-22.5,2.12-33.48,1.57-6.18,4.56-13.36,9.56-17.55s12.94-3.27,19-2.65c10,1,19.87,3.16,29.64-.38,20.13-7.29,28.67-32.66,28-52.14-.66-20.21-11.33-37.83-28.3-48.55-17.85-11.27-40.29-13.68-60.84-11-1,.13-1.52,1.48-.19,1.31,22.29-2.88,46,.53,64.42,14.13,18.07,13.33,25.69,36.09,22.17,57.91-2,12.17-8,24.3-17.52,32.28-10.46,8.79-22.86,6.82-35.36,5.31-8.31-1-17.72-1.65-24.12,4.71-7.72,7.65-9.85,20.76-10.61,31s.5,20.24.79,30.4c.3,10.55-1.64,22.32-12.25,27.18-4,1.83-9.73,4.05-13.26.27a11.83,11.83,0,0,1-2-3.37,40.18,40.18,0,0,1-2.5-10.37c-1.46-10.11-1.3-20.49-1.09-30.68.41-20.35,2.67-40.67,2.61-61,0-18.22-.69-36.46,1.52-54.59,2-16.7,7.36-40.19,27.2-43.2C93.73,43.61,94.23,42.25,92.91,42.46Z"/><path class="cls-2" d="M127.87,130c-16.17,1.66-28.92-13.33-34-27.13-2.73-7.36-.64-15.19,3.45-21.55a32.16,32.16,0,0,1,8.6-8.57c5.49-3.9,11.24-4.36,17.8-3.75,2.87.27,5.36.1,8.11,1.07,3.87,1.37,7.31,4.11,10.31,6.84a41.59,41.59,0,0,1,11.66,17.72C159,111,143.46,128.1,127.87,130c-1,.13-1.53,1.48-.2,1.31,16.26-2,30.28-17.07,28.74-33.78-.79-8.64-7.41-16.8-13.55-22.37A31.58,31.58,0,0,0,134,69.31c-3.87-1.61-7.35-1.39-11.5-1.78-9.4-.87-16.8,2.52-23.43,9.14A27.73,27.73,0,0,0,90.9,99.41c1.08,9.06,8,18.1,14.52,24,6.12,5.55,14,8.77,22.25,7.92C128.71,131.23,129.19,129.88,127.87,130Z"/></svg>