<svg id="layer1" xmlns="http://www.w3.org/2000/svg" viewBox="0 0 255.3 279.62"><defs><style>.cls-1{fill:#ceac7a;}.cls-2{fill:#492d0c;}</style></defs><path class="cls-1" d="M207,101.21c-5.19-10.81-13-22-22.52-29.4-6.84-5.34-15-8.23-23.3-10.36a85.15,85.15,0,0,0-27.22-7.52c-22.55-2.27-49.38,7.26-63.21,25.7a2,2,0,0,0-.44,1.2A48.73,48.73,0,0,0,60.65,94.4c-1.61,2.46-3.18,4.95-4.75,7.43a2.12,2.12,0,0,0,.22,2.56l-.27.55-.12.13c-10.48,12.69-9.56,32.61-5.88,47.71a2.19,2.19,0,0,0,1.47,1.51c.26.83.53,1.65.83,2.46.12.79.23,1.58.34,2.37a1.83,1.83,0,0,0,1,1.46v0a33.85,33.85,0,0,0,4.29,12.51A52.21,52.21,0,0,0,69,190.53c1.6,2.12,3.29,4.17,5.07,6.11a42.35,42.35,0,0,0,5.5,5.62,2.37,2.37,0,0,0,1,2.65,46.58,46.58,0,0,0,7.4,4.43,42.85,42.85,0,0,0,13.79,6.36A60.69,60.69,0,0,0,112.05,219,39,39,0,0,0,116,220a2.51,2.51,0,0,0,1,0c17.86,2.57,36.42-2.39,53-10.28a64.55,64.55,0,0,0,25.85-22.89A81.6,81.6,0,0,0,205.24,174a2.18,2.18,0,0,0,1.62-1.07C220.06,151.49,217.47,123.13,207,101.21ZM109.07,60.87A114.12,114.12,0,0,0,93,67.54a2.25,2.25,0,0,0-.74-.12A79.18,79.18,0,0,1,109.07,60.87Zm83.26,122.76a82.48,82.48,0,0,1-11,10.16,103.63,103.63,0,0,1-29.14,15.26c-10.48,3.63-21.41,4.53-32.43,4.25a2.12,2.12,0,0,0-1.51.53c-5-2.07-10.19-3.66-15.37-5.28a2.34,2.34,0,0,0-1-1.28c-5.29-3.48-9.69-8.18-15.58-10.53-3.51-4.32-6.84-8.81-10.73-12.74A69.17,69.17,0,0,0,71,178.45c-.81-1.68-1.67-3.34-2.57-4.95a55.81,55.81,0,0,0-10.16-13.69c-.43-.93-.83-1.88-1.21-2.83a38,38,0,0,0-2-12.3c.27-5.7,0-11.41-.09-17.13.52-2.29,1-4.59,1.73-6.84a.87.87,0,0,0-.43-1.08q.36-1.35.69-2.7c.14-.42.28-.84.41-1.26a2.45,2.45,0,0,0,.37-.41c4.32-6.18,6.35-13.56,10-20.09a2.15,2.15,0,0,0,.29-.92c3.63-4.37,7.05-8.92,10.39-13.53l.13,0Q82,78.8,85.24,76.83c8-4.33,16-8.46,24.59-11.37A61.8,61.8,0,0,1,148.74,65a2,2,0,0,0,2.58-1.14c2.88.63,5.76,1.28,8.61,2l.81.37c27.69,13.53,47.36,42.58,48.45,73.49a58.36,58.36,0,0,1-.39,9,2.26,2.26,0,0,0-.42,1.26c-.26,6.11-4.38,11.87-7.08,17.18C198.48,172.8,195.67,178.36,192.33,183.63Z"/><path class="cls-1" d="M114.34,126.15c-2.16-4.37-4.08-8.76-7.76-12.1a2.33,2.33,0,0,0-3.94,1.63,6,6,0,0,0,.19,1.45,2.61,2.61,0,0,0-.64.26A9.91,9.91,0,0,0,98,122.54a2.41,2.41,0,0,0-.58,1c-.41,1.4-.64,2.83-1.05,4.23a2.07,2.07,0,0,0,.47,2.07,2.38,2.38,0,0,0,4.23.89,2.33,2.33,0,0,0,1.83.41c3.14-.56,6.23-1.42,9.44-1.51A2.34,2.34,0,0,0,114.34,126.15Z"/><path class="cls-1" d="M122.84,104.47a40.87,40.87,0,0,0-7.43,2.35,1.87,1.87,0,0,0-1.11,2.31l-.12,0a2.18,2.18,0,0,0-1.09.16,2.87,2.87,0,0,0-2.76,1.1,2.33,2.33,0,0,0-.21,4.07,38.59,38.59,0,0,0,5.68,3.17h.41c0,.08,0,.16.15.24a1.58,1.58,0,0,0,1.14.12s0,.08,0,.12c0,.58-.06,1.17-.06,1.76,0,2.52,3.22,2.9,4.27,1.17a2.22,2.22,0,0,0,2.42-2.22c.07-3.91,1-7.69,1.5-11.55C125.91,105.6,124.71,104,122.84,104.47Z"/><path class="cls-1" d="M155.22,109.82a15.45,15.45,0,0,0-8.95-5.35,2.5,2.5,0,0,0-1.43.14l-.67-.43a2,2,0,0,0-1.72-.21c-.13-.11-.25-.22-.39-.32-1.4-1.06-3.54.37-3.47,2a25.64,25.64,0,0,0,2.2,8.54,2.55,2.55,0,0,0,.8,1.11c0,.36.09.73.12,1.09l-.16.26a2.17,2.17,0,0,0-.25,1.65c-.67,2,1.75,3.35,3.4,2.56,2.92-1.4,6.41-3.2,7.77-6.32a2.8,2.8,0,0,0,.84-.69A2.47,2.47,0,0,0,155.22,109.82Z"/><path class="cls-1" d="M164.27,128.29a22.24,22.24,0,0,0-1.92-5.38l-.11-.23a12.23,12.23,0,0,0-3.85-6.51,2.27,2.27,0,0,0-3.78,2.19,12.55,12.55,0,0,0-3.45,2.17,18.44,18.44,0,0,0-5.38,6.15,2.33,2.33,0,0,0,2,3.47,67.6,67.6,0,0,1,10,.45h.09l.42.29a2.14,2.14,0,0,0,2.4-.07,2.24,2.24,0,0,0,2,.21A2.05,2.05,0,0,0,164.27,128.29Z"/><path class="cls-1" d="M163,144.65,156.39,146c-2.34.18-4.69.18-7,.18-2.56,0-3.22,4-.62,4.53.35.07.69.15,1,.25a2.8,2.8,0,0,0,.24.8,13.58,13.58,0,0,0,6.56,6.35c0,2.39,3.06,2.74,4.29,1,2.08-2.84,2.78-6.26,3.78-9.56.32-.52.65-1,1-1.54C166.82,146.22,164.86,144.28,163,144.65Z"/><path class="cls-1" d="M155.58,164.22c-.13-.2-.29-.39-.43-.58a1.89,1.89,0,0,0-.46-2.53l-.47-.36h0l-.07-.05a31.18,31.18,0,0,0-7.78-4.67.69.69,0,0,1-.16-.51v-2.4c0-3-5.51-3-5.51,0,0,6-1.14,10-2.19,14.73-.29.19-.57.68-.83.91-1.88,1.6,0,4.23,2,4a2.41,2.41,0,0,0,1.26.11,14,14,0,0,0,5.38-2.45l.75-.16a30.2,30.2,0,0,0,7.64-2.85A2.3,2.3,0,0,0,155.58,164.22Z"/><path class="cls-1" d="M121.55,158.55c.23-.33.47-.67.72-1,1.1-1.44-.41-3.47-2-3.47a3.34,3.34,0,0,0-3,1.83,2.52,2.52,0,0,0-.6.33,2.3,2.3,0,0,0-1.21.63,33.79,33.79,0,0,1-8.52,5.45c-1.68.85-1.43,3.93.55,4.22a33.41,33.41,0,0,1,3.42,1c.58.3,1.16.61,1.73.93a28.52,28.52,0,0,0,3.29,2.09,2.18,2.18,0,0,0,2.09.11c.56,2.44,4.61,2.27,4.55-.52,0-.36,0-.73,0-1.09a2,2,0,0,0,0-.5A68.63,68.63,0,0,0,121.55,158.55Z"/><path class="cls-1" d="M111.24,146.3l-.46.42a1.85,1.85,0,0,0-1-.48l-9.52-1.59a2.33,2.33,0,0,0-2.6,3.39c.13.32.23.66.33,1a2.69,2.69,0,0,0,.3,1.74,15.06,15.06,0,0,0,3.07,8.89,2.36,2.36,0,0,0,3.62.47,36.63,36.63,0,0,0,6.17-6.81,1.89,1.89,0,0,0,.37-.84,32.87,32.87,0,0,1,3-2.92C116.78,147.64,113.5,144.4,111.24,146.3Z"/><path class="cls-1" d="M125.56,84.83c-25.16-.23-45.74,24.68-48.3,48.3-.32,3,4.3,2.93,4.61,0,2.29-21.15,21.24-43.89,43.69-43.69C128.54,89.47,128.54,84.85,125.56,84.83Z"/><path class="cls-1" d="M126.62,185.81c-11.26.65-21.23-6.37-28.7-14.13s-14-18.19-15-29c-.27-2.94-4.89-3-4.61,0,1.15,12.25,8.08,23.47,16.34,32.29s19.64,16.2,32,15.48C129.58,190.25,129.59,185.64,126.62,185.81Z"/><path class="cls-1" d="M182.86,143.18c-.11-3-4.73-3-4.62,0,.39,10.82-6.39,20.65-13.74,28s-18,14.24-28.89,14.11c-3,0-3,4.58,0,4.61,12,.14,23.09-6.89,31.51-14.83S183.3,155.38,182.86,143.18Z"/><path class="cls-1" d="M169,101.26c-8.4-8.55-20.09-11.76-30.66-16.65-2.68-1.24-5,2.74-2.33,4,9.37,4.34,19.43,7.23,27.53,13.92,7.9,6.51,15.17,19.06,14.15,29.55-.28,3,4.33,2.94,4.62,0C183.38,121.16,176.45,108.82,169,101.26Z"/><path class="cls-2" d="M123,127.81c2-11.85,4.42-23.84,5.4-35.82.78-9.66-.4-20.21,2.68-29.53.16-.49-1.74-.24-1.92.31-2.77,8.39-2.05,18-2.5,26.72-.67,12.92-3.46,25.88-5.57,38.63-.1.58,1.82.23,1.91-.31Z"/><path class="cls-2" d="M129.11,62.87c.3,10.86,3.92,22.05,6.31,32.63,2.31,10.28,5.27,20.64,5.44,31.25,0,.27,1.94,0,1.93-.51-.17-10.6-3.09-21-5.44-31.26-2.42-10.55-6-21.78-6.3-32.62,0-.27-2,0-1.94.51Z"/><path class="cls-2" d="M120.65,128.09c-21,3.79-42.2,5.76-63.15,9.55l.29,1.07a4,4,0,0,0,1.68-.85c1-.82-.57-1.22-1.23-.7l-1.25.62c-.85.31-.61,1.23.28,1.07,21-3.79,42.2-5.76,63.15-9.55,1-.17,1.55-1.45.23-1.21Z"/><path class="cls-2" d="M57.76,140.29c11,.1,21.62,2.66,32.45,4.29,4.31.65,8.57,1.7,12.94,1.81,4.95.13,10.45-.8,15.15,1.15.62.26,2.37-.62,1.53-1-3.3-1.37-6.86-1.38-10.38-1.38a101.65,101.65,0,0,1-16.23-1.43c-11.55-1.84-23-4.53-34.73-4.63-.77,0-2,1.15-.73,1.16Z"/><path class="cls-2" d="M119.57,147.31c2.52,8.19,2.5,17.24,3.91,25.67,2.28,13.62,5.06,27.32,5.63,41.15,0,.6,2,.22,1.94-.52-.56-13.33-3.17-26.56-5.39-39.68-1.51-8.9-1.5-18.5-4.16-27.13-.2-.67-2.13-.13-1.93.51Z"/><path class="cls-2" d="M133.25,213.74A384.88,384.88,0,0,1,137.93,174c1-5.38,2-10.75,2.73-16.17.3-2.3,1.39-6.79-.13-8.9-.36-.49-2.23.15-1.8.73,1.69,2.34.08,7.94-.29,10.52-.71,5-1.69,10-2.61,15A378.08,378.08,0,0,0,131.32,214c-.06.73,1.88.33,1.93-.27Z"/><path class="cls-2" d="M124.29,129.79c-9.22,8.46,3.75,24,13.5,15.9a10.57,10.57,0,0,0,3-12.22c-2.64-5.78-10.54-7-15.73-4.38-1.18.6-.12,1.58.84,1.09,4.9-2.45,11.45-.38,13.41,4.89,1.23,3.33-.24,7.11-2.57,9.54-7.49,7.81-18.62-7.18-10.87-14.28.88-.81-1-1.09-1.61-.54Z"/><path class="cls-2" d="M128.39,132.4c-4-.12-4.93,3.36-4.07,6.68,1.05,4,4.38,6.86,8.62,5.76,4.44-1.15,6.86-6.59,4.55-10.51-1.6-2.73-6.72-2.37-9.35-1.92-.95.16-1.56,1.38-.24,1.16a13.66,13.66,0,0,1,5.73.15c4.1,1.1,3.18,6.35,1,8.77-2.87,3.14-6.32.65-7.76-2.31-.7-1.44-2.11-6.69.81-6.6.78,0,2-1.15.73-1.18Z"/><path class="cls-2" d="M140.21,126.13v2.51c0,.13.4.15.46.16,12.15,1.25,24.18,3.63,36.27,5.36,9.58,1.38,19.91,1.1,29.32,3.4.47.11,2.19-.63,1.6-.78-8.93-2.18-18.63-1.92-27.73-3.17-6.95-1-13.86-2.19-20.78-3.3-3.62-.59-17.09-.66-17.09-4.69,0-.36-2-.07-2,.51Z"/><path class="cls-2" d="M141.12,148.62c.14-.38.27-.77.41-1.16l-1.37.57c12.55-.36,25.3-4.2,37.68-6.18a189.63,189.63,0,0,1,20.46-2.12,29.14,29.14,0,0,0,11-2.41c1.16-.55-.65-.52-1.13-.3-6.13,2.89-14,1.91-20.59,2.73-7.57.93-15.09,2.25-22.59,3.6-6.88,1.24-13.78,2.85-20.72,3.69-2,.24-4.88-.58-5.1,2.1,0,.31,1.88.08,1.93-.52Z"/><path class="cls-2" d="M141.28,122.65l0,.17c-.1.42.58.45.83.4,5.71-1,11.59-6.25,15.59-10.16l-1.74,0c-1.48,3.54-5,6.24-7.54,9-1.77,1.88-4.21,4.26-4.17,7,0,.59,1.94.22,1.93-.52,0-3.25,4-6.45,6-8.53s4.52-4.39,5.71-7.23c.29-.69-1.51-.25-1.74,0a52.89,52.89,0,0,1-6.46,5.39c-2,1.42-4.88,3.57-7.31,4l.83.4s0-.11,0-.17c.16-.7-1.78-.39-1.93.25Z"/><path class="cls-2" d="M117.28,128.13a30.92,30.92,0,0,0-3.8-8.91,35.09,35.09,0,0,0-3.44-4.87c-.37-.44-2.37-2-2.37-2.35l-1.72.64a141,141,0,0,0,15.89,11.71c.73.49,2.41-.51,1.49-1.13a142.47,142.47,0,0,1-15.9-11.72c-.46-.4-1.72,0-1.72.64s.1.81.71,1.26a18.42,18.42,0,0,1,3.86,4.44,30.14,30.14,0,0,1,5.06,10.8c.2.92,2.13.42,1.94-.51Z"/><path class="cls-2" d="M115.7,147.3c-2.06,1.1-3.27,3.78-4.53,5.64-2.36,3.46-4.7,7.54-7.77,10.39-.71.65.5.8.92.72,6.54-1.25,10.07-7.29,15.73-10.13,1.19-.59.1-1.32-.79-.88-5.42,2.72-9.05,8.77-15.22,10l.92.72c2.46-2.28,4.12-5.17,6-7.94.91-1.36,2-2.6,2.86-4s1.74-3.11,3.13-3.85c1.15-.61-.55-1-1.22-.65Z"/><path class="cls-2" d="M139.82,151.08c5.64,4,12,7.69,17,12.43.44.42,2.22.15,1.86-.67a33.44,33.44,0,0,0-5.78-8.5c-1.92-2.19-5.07-4.35-6.35-7-.39-.79-2.29-.21-1.93.52,1.1,2.25,3.36,3.73,5,5.59,2.72,3.08,5.45,6.07,7.13,9.88l1.85-.67c-5.11-4.83-11.54-8.63-17.29-12.67-.64-.45-2.37.45-1.5,1.06Z"/><path class="cls-2" d="M129.57,148.19c-1,3.25.19,7.93.21,11.3,0,6.28.51,12.53.49,18.81-.05,12.17-1,24.34-1.12,36.51,0,.46,1.92.14,1.93-.51.11-10.93.67-21.85,1-32.77.19-5.66-.18-11.27-.38-16.93-.1-3.12,0-6.25-.07-9.37,0-2.18-.82-5.19-.18-7.33.17-.55-1.75-.28-1.92.29Z"/><path class="cls-2" d="M129.56,63.24q0,21.46.78,42.92c.22,6,.15,12.13.45,18.17.26,5,5.44,6.38,8.47,9.46.37.38,1.86.16,1.86-.5a49.71,49.71,0,0,1,.42-7.11c.12-.8-1.83-.47-1.93.23a49.63,49.63,0,0,0-.42,7.11l1.86-.5c-3.1-3.15-7.66-4.27-8.33-9.2-.78-5.82-.23-12.31-.45-18.18q-.78-21.3-.77-42.62c0-.85-1.94-.45-1.94.22Z"/><path class="cls-2" d="M140.6,138.48c14.24,0,28.48-.58,42.72-.78,5.88-.08,11.7.19,17.56.38,1.59,0,4.05.43,5.21-1a.27.27,0,0,0,.08-.24l-.21-.4c-.32-.58-2.17.09-1.93.52-.3-.55-9.36-.26-10.56-.29-5.73-.12-11.47.05-17.19.16-11.63.24-23.26.63-34.89.65-.63,0-2.09.95-.79.95Z"/><path class="cls-2" d="M136.44,147.12h3.35c.45,0,1,0,1.27-.45s-.2-.55-.54-.55h-3.35a1.44,1.44,0,0,0-1.27.45c-.24.39.2.55.54.55Z"/><path class="cls-2" d="M123.21,147V144a8.39,8.39,0,0,0-1.79.66c2.84.62,4.3,3.67,7.26,4.22.48.09,2.24-.68,1.22-.87-2.78-.52-4.18-3.56-6.94-4.15-.41-.09-1.75,0-1.75.66v2.93c0,.41,2,.1,2-.52Z"/><path class="cls-2" d="M120,137c-13.44,0-26.87.29-40.3.39-4.61,0-9.19-.08-13.79-.17-2.44-.05-5.43-.15-7.54,1.3-1.08.74.59,1,1.2.59,2.58-1.78,7.89-.71,10.9-.59,5.39.21,10.83,0,16.22-.09,10.86-.12,21.71-.31,32.56-.32.73,0,2.06-1.11.75-1.11Z"/><path class="cls-2" d="M122.45,130.59a43.11,43.11,0,0,1-4.11,6.55c-.52.77,1.2.56,1.5.34a10.37,10.37,0,0,0,3.71-5.86c.2-.66-1.12-.41-1.35-.31-2.6,1-3.93,2.86-5.12,5.41-.39.84,1.16.59,1.51.34a10.82,10.82,0,0,0,4.13-6.28c.15-.56-.86-.44-1.11-.39-3.16.65-5,3.34-5.43,6.48-.1.79,1.46.37,1.75.06a22.49,22.49,0,0,0,4.79-8.24c.21-.64-1.13-.41-1.36-.31a12.87,12.87,0,0,0-6.43,7.23c-.32.77,1.52.26,1.74.06a8.85,8.85,0,0,0,3.54-5.73c.05-.35-.34-.43-.6-.45-4-.4-6.27,2.79-8,6-.34.64.68.64,1,.54,2.62-.73,3.82-2.66,4.6-5.22.1-.33-.37-.46-.6-.45a7.52,7.52,0,0,0-7.19,5.28c-.11.32.38.46.59.46,2.6-.11,3.72-1.17,5-3.47.23-.4-.2-.58-.53-.6a17.06,17.06,0,0,0-10.18,2.35c-.56.33-.39.86.24.88,3.44.1,6-1.08,9.29-2.15.88-.3,1.14-1.13,0-1.07-5.55.26-10.78,2.25-16.32,2.51-.72,0-1.67,1.16-.49,1.13,4.63-.15,9.17-1.11,13.8-1.26.72,0,2.07-1.13.74-1.14-6.51,0-13-.27-19.33,1.32-.67.17-1.27,1-.23,1.08,6.33.58,12.5-1.06,18.82-.84l.24-1.08c-4.77,1.65-9.79,0-14.65,1.26-.61.16-1.3,1.08-.23,1.08,5.94,0,11.88,0,17.81-.43.48,0,1.72-.85.71-1.11-4.47-1.12-9-.95-13.6-1.28-.35,0-2,.66-1.13,1.05,5.68,2.64,11.47,1.88,17.54,1.77.73,0,2.08-1.1.75-1.14-5.86-.18-11.92-2-17.3,1.09-.54.31-.4.9.24.88a53.12,53.12,0,0,0,15.15-2.57c.58-.19,1.33-1.06.23-1.08-5.91-.07-11.82-.73-17.66.48-.92.19-1.11,1.21,0,1.07,4.66-.6,9.08-2.3,13.8-2.51.49,0,1.72-.86.71-1.1a31.83,31.83,0,0,0-8.16-.45c-.25.38-.5.76-.74,1.14,3.78-.12,7.51-.71,11.29-.83.08-.36.16-.72.23-1.08-8.41,2.35-17.06,5.25-25.86,5.55-6.94.24-13.78-1.44-20.57.72-.58.19-1.33,1.07-.23,1.08,3.65.05,7.35.39,11,.12,4.91-.36,9.6-2,14.51-2.21l.24-1.08c-3.64.77-7.32,1-10.88,2.09-.89.28-1.13,1.13,0,1.07,5-.26,9.65-2.25,14.65-2.51.08-.37.16-.75.25-1.12-4.46.39-8.91.5-13.23,1.73-.65.18-1.29,1-.24,1.07,5.15.42,10-1,15.07-1.83q3.09-.26.39-.23c-1.6.26-3.26.31-4.88.44a26.53,26.53,0,0,0-6.83,1.47c-.47.16-.89.78-.2,1,5,1.31,10.5.59,15.36-.87.63-.18,1.31-1,.24-1.07-5.86-.34-11.71,0-17.57,0-.74,0-2.05,1.13-.74,1.13,3.78,0,7.53.07,11.29.42.25-.38.5-.76.74-1.14-3.63-.06-7.24-.35-10.87-.41-3-.06-6,1-9,1.26-1,.07-1.59,1.21-.25,1.12,7-.49,14-1.56,21.09-1.66.16-.38.33-.76.49-1.13-6.09.95-12.06-.28-18.16-.43-.75,0-2,1.08-.74,1.14,6.17.26,12.25-.73,18.41-.84.73,0,2.06-1.12.74-1.14-4.16,0-8.27-.3-12.38.43-.65.12-1.74,1-.49,1.13,5.54.59,10.8-1.6,16.31-1.82.71,0,2.07-1.29.74-1.29h-5c-.25,1-.49.91-.74,1.29,2.66-.07,5.29-.27,7.95-.35.7,0,2.09-1,.74-1.1-4.23-.37-8.08.32-11.19,3.34-.29.28-.22.64.19.73,5.22,1.07,10.41.53,15.7.45.71,0,2.08-1.08.74-1.14-3.92-.18-7.54-.92-11.39.07-.41.1-1.36.88-.45,1.05,5,.92,10.11,0,15.06,1.25l1.18-1.08a62.6,62.6,0,0,0-11.93-1.7c-.51,0-2.08.85-1,1.11a33.73,33.73,0,0,0,11.34.43c.36,0,1.61-.59.89-1-1.88-1.14-3.91-1.91-5.86-2.92l-1.35,1a30,30,0,0,0,7.33,1.7c.76.06,2-1,.74-1.14a27.37,27.37,0,0,1-6.9-1.65c-.48-.16-2.18.59-1.35,1,2,1,4,1.78,5.86,2.92l.89-1A31.17,31.17,0,0,1,105.6,135l-.95,1.12a60.28,60.28,0,0,1,11.49,1.64c.63.14,2.3-.79,1.18-1.08-5-1.28-10-.33-15.06-1.26l-.45,1c3.45-.88,6.91-.1,10.37.06.24-.38.49-.76.74-1.13-2.88,0-5.74.21-8.61.27a33,33,0,0,1-5-.32l3.66-2.2a15.6,15.6,0,0,1,3.74,0c.24-.38.49-.76.74-1.14l-8,.2c-.73,0-2.06.92-.74.92h5c.25,0,.49-.54.74-.92-5.48.23-10.8,2.37-16.31,1.78-.17.38-.33.81-.5,1.18,3.94-.7,7.9-.42,11.89-.38.24-.38.49-.74.74-1.12-6.15.11-12.25,1.1-18.41.84-.24.38-.49.76-.74,1.14,6.27.16,12.39,1.39,18.65.41.64-.1,1.74-1.14.5-1.12-7.23.11-14.38,1.19-21.58,1.68-.08.37-.17.75-.25,1.12,3.52-.26,6.83-1.27,10.39-1.22,3,.06,6,.34,9,.39.73,0,2.08-1,.74-1.14-3.76-.35-7.51-.41-11.29-.41-.25.37-.49.75-.74,1.13,5.86,0,11.71-.33,17.57,0,.08-.36.15-.71.23-1.07a36.42,36.42,0,0,1-6.32,1.24c-1.08.13-11.12.69-3.61-.5,4-.63,7.85-.56,11.71-1.91.64-.22.81-1,0-1-6.66-.13-13,2.63-19.66,2.1-.07.35-.15.71-.23,1.07,4.15-1.17,8.44-1.25,12.71-1.62,1-.09,1.59-1.19.25-1.12-5,.26-9.65,2.25-14.64,2.51,0,.36,0,.71,0,1.07,3.54-1.12,7.25-1.33,10.87-2.09.64-.14,1.29-1.13.23-1.08a47.75,47.75,0,0,0-8.56,1.31c-5.63,1.28-11.24.85-17,.78-.08.36-.16.72-.23,1.08,7.35-2.35,15.19-.13,22.74-.79,8-.69,16-3.33,23.69-5.49.59-.16,1.31-1.11.23-1.07-3.78.12-7.51.71-11.29.83-.74,0-2,1.17-.74,1.14a29.92,29.92,0,0,1,7.73.39c.24-.36.47-.73.71-1.1-4.74.21-9.12,1.91-13.8,2.51,0,.36,0,.71,0,1.07,5.47-1.14,11.1-.43,16.64-.36.08-.36.16-.72.23-1.08-1.82.58-3.64,1.09-5.51,1.53-.31.08-9,.68-3,.5,3.31-.1,6.62.63,9.92.73l.75-1.14c-5.75.1-11.36.92-16.76-1.59l-1.14,1c4.42.32,8.84.15,13.17,1.23.24-.37.48-.73.71-1.1-5.77.37-11.54.41-17.32.41-.08.36-.16.72-.23,1.07,4.9-1.3,9.79.42,14.64-1.25.58-.2,1.33-1,.23-1.08-6.31-.22-12.51,1.42-18.82.84l-.24,1.08c6-1.51,12.17-1.23,18.32-1.2l.74-1.14c-4.63.15-9.17,1.11-13.8,1.26-.17.37-.33.75-.5,1.13,5.54-.27,10.78-2.25,16.31-2.51,0-.36,0-.71,0-1.07-1.57.52-3.19.94-4.75,1.45,2.56-1.57,3.8-1.49,3.7.25l-.35-.13q4.21-1.06.15,1.36l1,.54A18.83,18.83,0,0,1,116,131.7l2-.28a8.62,8.62,0,0,1-3,3.9l1.75.06a10.82,10.82,0,0,1,5.28-6.16l-1.36-.3a20.7,20.7,0,0,1-4.41,7.66l1.75.06c.26-2.12,1.24-4.72,3.77-5.24l-1.11-.39a9.2,9.2,0,0,1-3.4,5.43l1.51.34c.93-2,1.76-3.7,4.08-4.63l-1.35-.3c-.57,1.89-1.29,3.79-3,5l1.51.34a45.11,45.11,0,0,0,4.25-6.84c.28-.64-1.65-.42-1.94.23Z"/><path class="cls-2" d="M133.75,110.24c.05,4.46.36,8.92.42,13.38,0,.29,1.92,0,1.93-.51.11-4.85,1.22-10-.42-14.64-.14-.4-1.82.08-1.91.43a29.38,29.38,0,0,0-.44,14.72c.1.4,1.93-.07,1.93-.51.05-4.12.25-8.12-.83-12.14-.11-.39-1.83.09-1.92.44-1.46,5.54-.12,11,1.24,16.4.11.45,1.75-.16,1.92-.44,1.78-3,1.49-8-.88-10.6-.27-.3-1.73.14-1.86.5-1.26,3.35-.72,9,3,10.6.39.17,1.81-.05,1.87-.58.44-3.44,1.1-8.34-1.72-10.94-.31-.28-1.85.14-1.88.58a28.8,28.8,0,0,0,2.09,12.13c.15.4,1.83-.07,1.92-.43a31.54,31.54,0,0,0-.41-15.56c-.1-.4-1.83.08-1.91.43a23.72,23.72,0,0,0,1.24,14.31c.16.41,1.92-.08,1.93-.52.05-3.59.18-7-.84-10.46-.12-.41-1.89.08-1.93.52a55.36,55.36,0,0,0,.42,11.29c0,.41,1.77-.12,1.91-.43,3.2-6.93,1-17.47-2.49-23.93-.23-.42-1.86.09-1.93.52-.94,5.23.62,10.25.84,15.48,0,.3,1.93,0,1.93-.52a125.38,125.38,0,0,0-2.09-20.91c-.07-.39-1.83.07-1.92.43-1.89,7.22-.17,14.52,0,21.83,0,.3,1.93,0,1.94-.51.11-7.19,1.71-14.73-.42-21.75-.13-.41-1.92.07-1.93.51-.23,5.06.69,10,.83,15.06,0,.3,1.93,0,1.93-.52.07-6.63.64-13.2-1.25-19.66-.12-.4-1.82.09-1.92.44-1.1,4.06-.12,8.13.41,12.21,0,.35,1.92,0,1.93-.52,0-5.37.25-10.67-1.26-15.89-.11-.41-1.91.08-1.93.52-.23,4.63.69,9.17.84,13.8,0,.3,1.93,0,1.93-.52-.09-8.1-1.16-16.15-1.26-24.26,0-.29-1.92,0-1.93.52-.19,9.86,2.77,19.26,4.6,28.86.07.38,1.93-.06,1.93-.52.1-6.35-2.67-12.14-3.34-18.4,0-.35-1.91,0-1.93.52-.19,4.18,1.12,8.1,2.09,12.13,1.06,4.43,1.21,9,2.51,13.38.12.41,1.92-.07,1.93-.52.25-7.86-1.88-15.55-4.18-23-.12-.4-2,.07-1.93.52.64,8.23,3.92,16,4.18,24.26,0,.3,1.92,0,1.93-.52.14-9.26-3.51-18-3.76-27.19,0-.29-1.95,0-1.94.52.24,11.26,4.42,21.88,5.44,33l1.93-.51c-.55-5.63-2-11.11-2.51-16.74,0-.33-1.93,0-1.93.52,0,6,.52,11.86,2.51,17.57.14.41,1.92-.08,1.93-.52.06-2.9.21-5.6-.83-8.36-.16-.42-1.9.08-1.94.52-.32,4,0,8.07,0,12.13l1.94-.52-.42-3.35c-.05-.36-1.84.07-1.92.44-.5,2.2-.18,4.1,0,6.35,0,.33,1.91,0,1.93-.51a9.76,9.76,0,0,0-1.26-5c-.18-.4-1.94.07-1.93.51a7.3,7.3,0,0,0,.42,2.93l1.93-.52c-.39-1-1.05-2.84-2.34-3.16-2-.49-2-5.33-3.1-6.88-.27-.37-1.9,0-1.93.52a19.94,19.94,0,0,0,2.09,9.62c.19.41,1.94-.07,1.94-.51a21.15,21.15,0,0,0-.84-6.28c-.13-.4-1.92.08-1.93.52-.08,3.75,1.63,6.38,4.65,8.43.36.25,1.81-.11,1.88-.58a46.91,46.91,0,0,0,.42-6.7l-1.93.52c.34,1.53.55,3.07.83,4.6.07.38,1.93,0,1.93-.51a30,30,0,0,1,.35-5,15.72,15.72,0,0,1-2,.51v.84a14,14,0,0,0,2-.52c0-5.88.13-12.15-2.47-17.57-.19-.4-1.91.08-1.92.52-.09,4.52-.62,8.94.43,13.39.09.38,2-.07,1.94-.52-.47-5.7-1.15-11.31-3.35-16.63,0-.11-.23,0-.33,0h-.42c-.35,0-1.56,0-1.59.53a48.57,48.57,0,0,0,.83,12.5c.07.37,1.93-.08,1.93-.55A62.6,62.6,0,0,0,134,101c-.1-.41-1.79.1-1.92.43-1.61,4.18-.59,8.75,0,13,0,.37,1.83-.07,1.91-.43a21.1,21.1,0,0,0,0-9.71c-.09-.4-1.81.09-1.92.44a12.59,12.59,0,0,0,0,7.61c.12.4,1.93-.07,1.93-.52,0-5.62-.28-11.23-.61-16.84s.11-11.36-.23-17c0-.36-1.79.08-1.91.43-1.87,5.35,0,12.6,2.07,17.66.17.4,1.94-.08,1.93-.52,0-4.09-.29-8.4-2.1-12.13-.2-.4-1.95.07-1.95.52v2.5a15.07,15.07,0,0,0,1.95-.51,99.18,99.18,0,0,0-.83-10c0-.35-1.94,0-1.93.52.28,11.6,5.19,22.38,6.28,33.88,0,.33,1.95,0,1.93-.52-.17-4.24-1.15-8.35-1.67-12.55-.05-.35-1.93,0-1.93.52-.07,9.77,5.06,18.64,4.6,28.44,0,.25,1.9,0,1.93-.51.47-9.81-4.67-18.68-4.6-28.45l-1.93.52c.52,4.2,1.5,8.31,1.67,12.55l1.93-.52c-1.09-11.5-6-22.27-6.27-33.88l-1.94.52a96.23,96.23,0,0,1,.86,10c0,.3,2,0,2-.51V83.37a13.41,13.41,0,0,0-2,.52c1.81,3.73,2,8,2.08,12.13l1.93-.52c-2-5-3.94-12.25-2.11-17.49l-1.92.44c.31,5.07-.2,10.13.11,15.21.39,6.22.69,12.44.73,18.67l1.93-.52a12.15,12.15,0,0,1,0-7.45l-1.91.44a20.51,20.51,0,0,1,0,9.54l1.92-.44c-.57-4.22-1.6-8.77,0-12.88l-1.91.43a62.6,62.6,0,0,1,1.25,14.65l1.93-.52a49,49,0,0,1-.83-12.55l-1.6.63c2.16,0,3.27,14.72,3.43,16.62l1.93-.52c-1.05-4.45-.51-8.87-.42-13.39l-1.93.52c2.6,5.42,2.47,11.68,2.48,17.57,0,.28,1.89,0,1.89-.52v-.83c0-.32-1.81,0-1.89.51a29.22,29.22,0,0,0-.4,5l1.94-.51c-.29-1.54-.49-3.08-.84-4.61-.08-.38-1.92.07-1.93.52a46.9,46.9,0,0,1-.41,6.7l1.87-.59c-3.05-2.08-4.62-4.63-4.54-8.3l-1.93.52a20.75,20.75,0,0,1,.83,6.27l1.94-.51a19.9,19.9,0,0,1-2.1-9.63l-1.93.52c1.25,1.72,1.4,3.55,1.76,5.59.41,2.23,2.88,2.32,3.68,4.45.15.41,2-.12,1.93-.52a7.25,7.25,0,0,1-.42-2.92l-1.93.51a9.79,9.79,0,0,1,1.26,5l1.93-.51c-.16-2.16-.51-4,0-6.2l-1.91.44c.14,1.11.28,2.23.41,3.35.05.34,1.94,0,1.94-.52,0-4-.33-8.09,0-12.13l-1.94.52c1.05,2.76.9,5.46.84,8.36l1.93-.52c-2-5.71-2.46-11.55-2.51-17.57l-1.93.52c.55,5.62,2,11.11,2.51,16.73,0,.33,2,0,1.93-.51-1-11.17-5.2-21.79-5.43-33l-1.94.52c.26,9.22,3.91,17.93,3.77,27.19l1.93-.52c-.26-8.29-3.54-16-4.18-24.26l-1.93.52c2.29,7.45,4.43,15.14,4.18,23l1.93-.52a96.61,96.61,0,0,1-2.25-11.94c-.74-4.59-2.56-8.85-2.35-13.57l-1.93.52c.67,6.25,3.44,12,3.34,18.4l1.93-.52c-1.83-9.59-4.79-19-4.6-28.86l-1.93.52c.1,8.1,1.17,16.15,1.26,24.26l1.93-.52c-.14-4.62-1.06-9.16-.84-13.8l-1.93.52c1.51,5.22,1.29,10.52,1.26,15.89l1.93-.52c-.52-4-1.52-8-.44-12l-1.91.43c1.89,6.45,1.32,13,1.25,19.66l1.93-.52c-.14-5-1.06-10-.83-15.05l-1.93.51c2.12,7,.53,14.57.41,21.75l1.94-.51c-.16-7.26-1.89-14.51,0-21.67l-1.92.43a124.46,124.46,0,0,1,2.1,20.92l1.93-.52c-.22-5.22-1.77-10.25-.84-15.48l-1.93.52c3.43,6.38,5.66,16.94,2.52,23.76l1.92-.43a55.48,55.48,0,0,1-.42-11.3l-1.93.52c1,3.48.89,6.87.84,10.46l1.93-.52a23.48,23.48,0,0,1-1.27-14.14l-1.92.43a31.14,31.14,0,0,1,.43,15.4l1.92-.44a28.8,28.8,0,0,1-2.09-12.13l-1.88.59c2.75,2.52,2,7.5,1.62,10.81l1.88-.58c-3.53-1.51-4.09-7.14-2.89-10.32l-1.86.5c2.28,2.48,2.46,7.53.8,10.31l1.91-.43c-1.34-5.37-2.71-10.73-1.27-16.23l-1.91.43c1.08,4,.88,8,.83,12.13l1.93-.51a29,29,0,0,1,.41-14.56l-1.92.43c1.64,4.7.53,9.79.42,14.64l1.93-.51c0-4.47-.36-8.92-.42-13.39,0-.29-1.94,0-1.93.52Z"/><path class="cls-2" d="M103.62,135.72a45,45,0,0,0,10.09.89c.88,0,1.59-1.37.43-1.39-3.77-.06-7.53-.36-11.3-.42-.88,0-2,1.26-.67,1.39A78.1,78.1,0,0,1,111,137c.76.16,2-1.09.9-1.34a43.82,43.82,0,0,0-10.09-.89c-.64,0-1.67,1.1-.65,1.34a48,48,0,0,0,9.84,1.31c.23-.47.45-.93.68-1.39-3.35-.07-6.69-.36-10-.42-.88,0-2,1.15-.68,1.39a38.8,38.8,0,0,0,11.13.24c1.07-.11,1.51-1.15.17-1.15h-.41c.18,0,.36.51.55.89a52.9,52.9,0,0,0,6.44-5.71c.56-.56-.21-1.06-.72-1A66.55,66.55,0,0,0,106.43,132c-5.91,1.28-12.08.75-18.06,1.53-.8.1-1.64,1.18-.42,1.38a53.61,53.61,0,0,0,13.21.5c1.09-.09,1.5-1.32.18-1.32H90.05c-.64,0-1.67,1-.65,1.26,4.46,1.12,8.87.9,13.44.86,0-.47.11-1,.17-1.42-3.32.52-6.66-.18-9.88.87-.67.22-1.26,1.29-.16,1.34,4.09.22,7.83-.85,11.8-1.72.54-.11,1.3-1.09.39-1.29A58.72,58.72,0,0,0,93,132.7c-.06.47-.11.94-.17,1.4,5.67-.15,11.22-1.47,16.9-1.26l-.09-1.25C104.2,134,98.24,134,92.43,134.24c-7,.26-13.9,2.06-21,1.82l-.42,1.39c8.6.13,17.34,2,25.78-.46,1-.28,1-1.39-.09-1.36-3.93.11-8.36,1.26-12.08-.36-.21.45-.43.9-.65,1.34,2-.08,3.9-.33,5.86-.41.87,0,1.59-1.18.42-1.4a31.75,31.75,0,0,0-5.68-.42l.09,1.35a31,31,0,0,1,5.59-.79c1.09-.05,1.49-1.4.17-1.4a28.37,28.37,0,0,0-7.79.88c-.57.16-1.25,1-.38,1.3,6.85,2.39,14,1.41,21.13,1.73,5.27.23,10.37,1.7,15.41-.56,1.21-.54.13-1.56-.85-1.12-5,2.24-10.51.29-15.7.21-6.34-.1-12.77.58-18.87-1.55l-.39,1.3a27,27,0,0,1,7.27-.79c.06-.47.11-.93.17-1.4a34.33,34.33,0,0,0-6.12.88c-1,.24-1,1.35.09,1.36a28.93,28.93,0,0,1,5.19.41c.14-.46.28-.93.43-1.39-2,.08-3.9.33-5.86.42-.69,0-1.6.92-.65,1.34,4.07,1.77,8.76.59,13,.47,0-.45,0-.9-.08-1.35-8.22,2.39-16.87.5-25.26.37-.87,0-1.59,1.36-.42,1.4,7.22.25,14.26-1.5,21.45-1.81,6.22-.27,12.43-.35,18.21-2.93.64-.28.78-1.22-.09-1.26-5.85-.22-11.56,1.1-17.4,1.25-1.1,0-1.48,1.38-.17,1.4A54.47,54.47,0,0,1,104,135.3c.13-.43.26-.86.38-1.29-3.59.77-7.06,1.82-10.78,1.63,0,.45-.11.9-.16,1.35,3-1,6.25-.31,9.36-.79,1-.17,1.53-1.42.17-1.4-4.21,0-8.36.13-12.49-.91-.22.45-.43,1.23-.65,1.23h11.29a7.9,7.9,0,0,0,.18-1.28,52.07,52.07,0,0,1-12.72-.35c-.14.46-.28,1-.42,1.42,4.91-.64,9.86-.58,14.79-1s9.81-2.15,14.91-2.32l-.72-1a49.12,49.12,0,0,1-6.11,5.33c-.74.53-.13,1.18.55,1.18H112a12.13,12.13,0,0,1,.17-1.44,37.41,37.41,0,0,1-10.62,0l-.68,1.38c3.36.06,6.69.35,10,.41.92,0,2-1.36.68-1.39a44.5,44.5,0,0,1-9.4-1.21l-.65,1.35a39,39,0,0,1,9.15.78l.9-1.34a78.27,78.27,0,0,0-8.79-.84l-.67,1.39c3.77.06,7.53.36,11.29.42.15-.47.29-.93.43-1.39a40.1,40.1,0,0,1-9.15-.79c-.82-.19-2.29,1-1.12,1.29Z"/><path class="cls-2" d="M123.3,147.76c-1,4.68,1.45,10.25,2.5,14.77.15.62,2,.13,1.93-.52-.49-4.92-1.29-9.9-3.34-14.43a.8.8,0,0,0-.58-.46h-.42c-.42,0-1.37.41-1.35,1a57.34,57.34,0,0,0,1.67,10.56c.15.64,1.93.16,1.93-.47,0-4.08-.19-7.92-1.67-11.76a.61.61,0,0,0-.58-.31H123c-.31,0-1.33.26-1.35.72-.17,3.75.82,7.12,2.09,10.63.21.56,1.92.18,1.93-.38.09-3.55.7-7.12-1.32-10.26-.27-.42-1.84,0-1.86.51-.15,4,1.09,7.66,2.51,11.42.21.57,1.88.16,1.92-.39A21.82,21.82,0,0,0,124.81,147c-.27-.53-1.89-.19-1.93.39a7.79,7.79,0,0,0,2.57,6.51c.36.34,1.81.08,1.86-.5a7.49,7.49,0,0,0-2.57-6.93c-.44-.36-1.88,0-1.87.63.06,2.25,1.74,3.32,3.54,4.37.4.23,2.1-.19,1.68-.81-1.16-1.7-2.06-3.41-3.77-4.6-.6.24-1.12.48-1.72.73,3,1.95,4.61,3.39,4.61,7.14v13.67c0-.18,1.21-.35,1.86-.52a134.76,134.76,0,0,0-1.3-17.15c-.09-.66-1.8-.07-2,.39-2.63,8.14,1.42,18.19,1.67,26.48l1.92-.52c-.55-7.59-2.37-15-2.93-22.59,0-.67-1.76,0-1.93.39-1.35,3.21-.49,6.73.27,10a141.69,141.69,0,0,1,3.08,16.06l1.93-.51c-.76-4.6-1.49-9.2-2.24-13.79s-.22-9.12-2-13.4c-.25-.62-1.78-.13-1.93.39-1.06,3.66-.59,7.38.14,11.07,1.09,5.52,1.86,11.11,2.79,16.66.1.59,1.91.15,1.93-.39a92.27,92.27,0,0,0-2.93-28.66c-.06-.22-.39-.34-.58-.34h-.42c-.32,0-1.32.27-1.34.73a55.09,55.09,0,0,0,1.17,14.37c1,5,1.21,10.14,2.59,15.11.16.58,1.9.16,1.93-.38.21-5.31-.88-10.43-1.82-15.62-.88-4.88,0-10.08-2.36-14.62-.3-.57-1.8-.17-1.93.39-1.9,7.92,1,15.81,2.5,23.56.12.59,1.92.14,1.93-.39.24-7.45-1.52-14.63-2.92-21.88-.13-.64-1.94-.12-1.93.51,0,10.84.76,21.86,4.18,32.21.21.65,1.93.12,1.93-.51,0-6.56-.38-13.11-.42-19.66,0-.54-1.91-.18-1.93.39-.19,6.24,1.48,12.3,1.68,18.53,0,.56,1.93.18,1.93-.52,0-6.28-.51-12.54-.55-18.82,0-.54-2.07-.19-2.07.52v11.29c0,.54,2,.19,2-.52V149.88c0,.17-1.19.34-1.83.51.12,3.37.76,6.68.88,10,0,.57,2,.18,2-.51a45,45,0,0,0-.82-10c-.06-.23-.4-.26-.58-.26s-3.49-3.11-4.08-3.61l-1.8.73c3.1,2.13,5,2.55,5.19,6.66.19,5.7-.95,11.36-.75,17.07,0,.56,1.83.18,1.83-.51V156.15c0-.54-1.82-.18-1.83.52-.08,4.6-.52,9.19-.27,13.79.23,4.19.82,8.37-.49,12.44l1.94-.39c0-5.58.38-11.16.42-16.74l-1.93.52c.07,3.77.36,7.53.42,11.29,0,.55,1.95.19,1.94-.51-.08-5.7-.51-11.38.57-17a7.45,7.45,0,0,0-1.77.39v18.41c0,.54,1.77.19,1.78-.52,0-5.16.29-10.31.33-15.48,0-.53-2-.18-2,.52-.07,6.15-.78,12.26-.85,18.41l1.92-.52c0-5.72.53-11.43.57-17.15-.64.17-1.78.35-1.78.52v20.91c0,.54,2,.19,2-.52V160.75c0-.54-2.12-.18-2.12.52-.06,9.35-.88,18.68-.94,28,0,.54,1.87.18,1.89-.52.08-3.68.86-7.76-.45-11.29-.23-.65-1.93-.12-1.94.51-.1,5.49-1.33,11.4.41,16.73.19.59,1.9.16,1.93-.39.27-4.66-.32-9.27-.42-13.93l-1.93.52c.13,5.88,1.32,11.69,1.45,17.57,0,.55,2.12.18,2.12-.52V177.07a18.57,18.57,0,0,0-2.12.51c.06,3.77.26,7.53.32,11.3,0,.55,1.88.18,1.88-.52,0-9.06.37-18.12.4-27.19l-1.95.52c.07,9.11,1,18.18.21,27.28-.67,8.11-.28,16-.22,24.17,0,.54,1.94.19,1.93-.52-.07-9.29-.07-18.33.47-27.61.45-7.93-.41-15.9-.47-23.84,0-.54-1.93-.18-1.93.52,0,9.06-.39,18.12-.42,27.19l1.93-.52c-.06-3.77-.19-7.52-.25-11.29,0-.55-1.78-.18-1.78.51V198.5c0-.17,1.13-.35,1.78-.52-.13-5.88-1.21-11.69-1.34-17.57,0-.54-2-.18-2,.52.09,4.57.67,9.1.4,13.68l1.92-.39c-1.75-5.36-.53-11.22-.42-16.73l-1.94.51c1.32,3.58.5,7.57.42,11.3l1.93-.52c0-9.35.94-18.68,1-28-.65.18-1.78.35-1.78.52v24.26c0,.54,2,.19,2-.52V164.1c0-.54-2.12-.19-2.12.52-.05,5.72-.48,11.43-.52,17.15,0,.53,1.88.19,1.89-.52.07-6.15.73-12.26.81-18.41l-1.94.52c-.05,5.16-.19,10.32-.24,15.48a18.81,18.81,0,0,1,2.12-.52v-18.4c0-.57-2-.14-2.12.39-1.1,5.74-.6,11.48-.52,17.27l1.89-.51c-.07-3.77-.39-7.53-.45-11.3,0-.55-1.94-.17-1.94.52,0,5.58-.38,11.15-.43,16.73,0,.61,1.78.08,1.93-.39,1.19-3.69.89-7.49.62-11.3-.36-5.07,0-10.11.09-15.18a17.57,17.57,0,0,1-2.07.52v13.8a17.85,17.85,0,0,0,2.07-.51c-.24-7,1.09-13.92.48-20.92a.26.26,0,0,0-.16-.19,20.08,20.08,0,0,1-4.88-2.84c-.47-.33-2.3.29-1.79.73.86.73,3.61,3.74,4.49,3.89,1.19.2.89,8.36.89,9.8l1.93-.51c-.12-3.37-.84-6.68-1-10,0-.57-2.07-.17-2.07.51v25.94c0,.54,2,.19,2-.52V164.52c0,.17-1.19.34-1.83.52,0,6.27.43,12.54.47,18.82l2-.52c-.19-6.14-1.85-12.12-1.66-18.28l-1.93.39c0,6.56.39,13.11.43,19.66l1.93-.51c-3.42-10.36-4.14-21.37-4.18-32.21l-1.93.51c1.38,7.17,3.16,14.28,2.93,21.63l1.93-.39c-1.46-7.65-4.4-15.47-2.52-23.3l-1.93.39c1.89,3.65,1.76,7.78,2,11.78.36,6.16,2.45,12,2.2,18.21l1.93-.39a106.58,106.58,0,0,1-2.3-13.42c-.77-5.25-1.79-10.39-1.47-15.73l-1.35.64c.72,0,2.08,10.88,2.23,12.16a99.48,99.48,0,0,1,.54,15.91l1.93-.4q-1.14-6.83-2.23-13.67c-.73-4.64-2-9.13-.7-13.81l-1.93.39c1.52,3.77,1.3,7.74,1.67,11.72.48,5.15,1.67,10.36,2.52,15.47.1.61,2,.15,1.93-.51-.53-4.66-1.63-9.21-2.51-13.81-.76-3.94-2.51-8.05-.84-12l-1.93.39c.55,7.59,2.37,15,2.93,22.59,0,.58,2,.16,1.93-.52-.24-8.15-4.27-18.25-1.68-26.23l-1.93.39a135.15,135.15,0,0,1,1.37,17.16c0,.54,2,.18,2-.52V149.46c0-.09-.21-.16-.3-.19-1.74-.77-3-2.24-4.53-3.26-.53-.35-2.32.39-1.83.73,1.71,1.2,2.59,2.91,3.75,4.6l1.67-.81c-1.67-1-3.11-2-3.16-4l-1.87.63a7,7,0,0,1,2.45,6.46l1.86-.5a7.25,7.25,0,0,1-2.45-6l-1.93.39a21.28,21.28,0,0,1,2.1,11.16l1.93-.39c-1.38-3.67-2.66-7.17-2.51-11.16l-1.87.5c1.93,3,1.28,6.44,1.19,9.8l1.93-.39c-1.24-3.43-2.26-6.63-2.09-10.33l-1.35.64c1.45,0,1.51,10.18,1.51,11.46l1.93-.52A56.18,56.18,0,0,1,124,147.79l-1.35.77c1.71,0,3,12.31,3.18,14l1.93-.52c-1-4.39-3.45-10-2.51-14.52.14-.67-1.8-.34-1.92.27Z"/><path class="cls-2" d="M142.11,142.29a4.51,4.51,0,0,0-.42,2.51c0,.91,1.6.48,1.88,0a7.31,7.31,0,0,0,.9-3.93c0-.47-.49-.53-.86-.51-3.3.13-2.88,2.86-2.75,5.47,0,.75,1.68.25,1.88-.19a21.6,21.6,0,0,0,1.31-4.77.38.38,0,0,0-.21-.41,3.31,3.31,0,0,0-2.07-.52c-.45,0-1.24.18-1.33.71l-.42,2.51c-.14.85,1.46.48,1.76.12,1.27-1.51,1.08-3.17,1-5.07,0-.73-1.69-.27-1.87.19a16.65,16.65,0,0,1-2.81,5.29c-.7.81.7.89,1.19.69l2.09-.84-1-.83a5.36,5.36,0,0,0-2.26,1.81c-.48.54.14.9.68.83a14,14,0,0,0,5.33-1.93c.77-.44.12-1-.51-1a8,8,0,0,0-5.08,2c-.44.37,0,.74.43.74h4.18c.53,0,2.1-.83.94-1.1-2.26-.52-3.85-.57-5.8.69-.55.35-.38,1,.26,1a17.58,17.58,0,0,0,7.46-1.38c.64-.24.79-1.08-.05-1.09-3.3-.06-6.43-.23-9.34,1.52-.43.25-.49.78,0,.94A16.46,16.46,0,0,0,151,142.82c.36-.3.15-.67-.21-.8a12.23,12.23,0,0,0-9.35.53c-.56.3-.85,1,.05,1.09A37.56,37.56,0,0,0,155,141.5c.63-.21,1.29-1.12.2-1.19a31.19,31.19,0,0,0-13.73,2.24c-.63.25-.79,1.06.05,1.09,4,.14,7.6-1.07,11.54-1.68.44-.06,1.78-1,.69-1.19a58.1,58.1,0,0,0-11.1-.67c-.8,0-2,1-.71,1h11.29c.53,0,2.1-.74.94-1a56.9,56.9,0,0,0-11.52-.76c-.24.41-.47.88-.71,1.29a97.92,97.92,0,0,0,10.28-.39c.5-.06,1.74-.94.69-1.19a41.31,41.31,0,0,0-9.42-.86l-.47,1.23c2.79-.07,5.57-.34,8.37-.41.77,0,1.65-1.2.46-1.24-3.66-.11-7-.51-10.17,1.52-.57.37-.36.91.26,1,5.06.52,10.14,1.15,15.15-.06.67-.16,1.26-1.16.2-1.18-4.66-.09-9.32-.73-13.89.47-.48.13-1.33.92-.43,1.15,5.39,1.36,10.52-.16,16-.39.76,0,1.66-1.14.46-1.23a76.43,76.43,0,0,0-16.56.42c-.54.08-1.68.82-.68,1.2,5.23,2,11.67,1.78,17,.4.52-.14,1.28-.86.42-1.15-4.34-1.46-9.68-1-13.94.53-.43.15-.81.64-.36,1,3.23,2.43,8.53,1.91,12.21.89.65-.18,1.28-1.15.2-1.18-4.52-.13-9.29-1.07-13.1,1.94-.34.26-.57.81,0,.94a20.52,20.52,0,0,0,11.18-.44c.43-.15,1.36-.92.43-1.15-4.32-1.06-9.14-1.14-12.91,1.48-.4.28-.51.78,0,.94a17.06,17.06,0,0,0,9.1.4c.49-.12,1.31-.91.42-1.14-3.66-1-7.51-1.65-11,.1-.3.15-.92.7-.35,1,2.39,1.19,4.72,1,7.34.94.77,0,1.65-1.18.47-1.23-3.81-.16-7.64-1.14-11.22.56-.35.16-.88.66-.36,1a6.61,6.61,0,0,0,3.75.92c.24-.41.48-1.26.71-1.26h-3.76c-.54,0-2.09,1-.93,1.23a7.89,7.89,0,0,0,4.23,0c.44-.07,1.78-1,.68-1.19-1.53-.3-3.07-.53-4.6-.83-.65-.13-2.33.78-1.15,1.16,9.49,3.14,20.57-2,29.42-5.12.65-.23.79-1.09,0-1.1-6.76-.06-13.71-.72-20,2.24-.57.27-.85,1.1,0,1.09,6.11-.08,12.15-.78,18.23-1.26.51,0,1.74-1,.69-1.19-5.71-1.27-11.54-1.29-17.37-1.29l-.46,1.23c7.25-.28,14.42.57,21.59-.89.38-.07,1.25-.71.61-1.07-4-2.23-9.88-3.07-14.13-1.22-.46.2-.9.87-.18,1.06,4.19,1.09,8.34.54,12.6.45.78,0,1.66-1.13.47-1.24-5.36-.45-10.31-.92-15.57.48-.64.17-1.28,1.2-.2,1.18,2.92-.06,5.77-.23,8.56.8l.93-1.2a62.26,62.26,0,0,1-11.49-.8l-.93,1.2a194.89,194.89,0,0,0,20.91,1.25c.54,0,2.1-.94.94-1.2a59.9,59.9,0,0,0-11.52-1.71c-.79,0-2.05,1-.71,1.24a73,73,0,0,0,12.55.42c.79,0,2-1.21.71-1.24a44,44,0,0,0-10.13.48c-.71.14-1.24,1.11-.2,1.18a50,50,0,0,0,10.28-.84c.7-.1,1.71-1.24.47-1.24a111.56,111.56,0,0,0-16.14.85c-1,.14-1.58,1.27-.22,1.22a21.85,21.85,0,0,1,5.81.39l.93-1.2c-4.1-.22-8-1.46-12.13-1.67l-.72,1.23a18.49,18.49,0,0,1,4.39.38l.93-1.2-3.35-.41c-.23.41-.47.82-.71,1.23,4.62,0,9.13-.26,13.58,1.22l.69-1.19c-3.95.25-7.69-.08-11.56.88-.46.12-1.33,1-.42,1.15,4.66,1,10.36,1.55,14.95,0,.6-.21,1.32-1.16.21-1.18-5-.12-10.43-1.17-14.78,1.93-.51.36-.42.95.26,1a55.6,55.6,0,0,0,20.17-3.4c.87-.3,1.13-1.28,0-1.18-4.88.39-9.72.59-14.49,1.72-.47.11-1.33,1-.42,1.15,6.84,1.45,13.32-1.77,20.12-2.06.77,0,1.66-1.22.47-1.23a61,61,0,0,0-13.89,1c-.68.14-1.26,1.3-.21,1.3h11.71c.79,0,2-1.29.72-1.36-4.53-.21-9.47-2.14-13.73.09-.38.19-1,.89-.17,1a74.58,74.58,0,0,0,12.76.86c.78,0,2.07-1.11.72-1.24-3.58-.34-6.69-.46-10.13.67-.6.19-1.31,1-.21,1h3.35c.15,0,.31-.61.47-1-6.68.19-13,2.21-19.51,3.51-.68.14-1.25,1.25-.2,1.23,13.88-.25,27.08-5.56,41-5.41.54,0,2.09-.87.93-1.18-5.44-1.48-11.87-2.23-17.29-.27-.64.23-.79,1.14.05,1.14h6.69c.81,0,2-1,.71-1h-8.78c-.81,0-2,1-.71,1H185c.79,0,2.05-1.21.72-1.28-2-.09-3.9-.11-5.86-.19a3.37,3.37,0,0,0-.71,1.47h5a3.37,3.37,0,0,1,.71-1.49c-3.49,0-6.81,0-10.13,1.19-.4.14-1.38.89-.42,1.09a29.73,29.73,0,0,0,13.69,0c.45-.13,1.35-1,.43-1.17a12.37,12.37,0,0,0-3.57-.46c-.24.41-.48.82-.71,1.23,5,0,10-.37,15.06-.42l.46-1.23c-3.91.27-7.8-.24-11.71,0-4.25.27-7.93,2.37-12.3,2.29-.24.41-.48,1-.72,1h9.21c.8,0,2-1,.71-1-4.19-.06-8.36-.26-12.55-.32-.24.41-.48,1.34-.71,1.34h8.78c.81,0,2-1.22.72-1.23-6.39-.07-12.7-.61-18.75,1.82-.65.26-.79,1,0,1.09,3.87.27,7.67-.69,11.38-1.72.64-.18,1.28-1.16.2-1.18-5-.09-9.83-.56-14.56,1.39-.63.27-.8,1.06.05,1.1a62.14,62.14,0,0,0,19.33-2.15c.68-.18,1.26-1.09.2-1.18-4.49-.36-8.38-.2-12.47,1.82-.84.41-.61,1.12.29,1.08,3.37-.12,6.68-.71,10-.83.78,0,1.66-1.22.47-1.23-4.16-.05-8.17-.21-12.22.89-.68.18-1.26,1.1-.21,1.18a49.93,49.93,0,0,0,15.57-.89c.7-.17,1.25-1.11.21-1.18-4.43-.33-8.53.07-12.47,2.23-.58.32-.84,1,0,1.09,6.71.6,12.95-2.21,19.33-3.81.72-.18,1.24-1.06.21-1.19-3.9-.45-7.57-.74-11.22.89-.59.27-.83,1,.05,1h7.53c.8,0,2-1.12.71-1.15-6.73-.14-13.35-1.48-20.08-1.63-.79,0-2.05,1-.71,1.26,8.89,1.39,17.72.33,26.64.56,3.4.09,10,1,12.57-1.78.81-.86-1.07-1-1.58-.43-1.41,1.51-6.34,1-8.07,1-2.19,0-4.37-.1-6.56-.16-7.51-.19-14.78.75-22.29-.42l-.71,1.23c6.73.15,13.34,1.56,20.08,1.71.23-.42.47-1.21.71-1.21h-7.53s0,.7.05,1.06c3.19-1.43,6.37-1.09,9.7-.7.06-.4.13-.8.2-1.19-6,1.51-12,4.26-18.31,3.7,0,.37,0,.73,0,1.09,3.5-1.91,7-2.24,10.95-2l.21-1.18a46.75,46.75,0,0,1-14.55.78l-.21,1.19c3.72-1,7.4-.83,11.21-.79.15-.41.31-.82.47-1.23-3.37.13-6.68.71-10,.84.09.36.19.72.29,1.09,3.6-1.78,7.07-1.84,10.95-1.53l.21-1.18a59,59,0,0,1-18.32,2c0,.37,0,.73.05,1.09,4.24-1.75,8.6-1.19,13-1.11l.21-1.18c-3.38.94-6.83,1.87-10.37,1.62,0,.36,0,.73,0,1.09,5.52-2.22,11.43-1.48,17.23-1.42.24-.41.48-1.12.72-1.12H172.3c-.81,0-2,1.11-.71,1.12,4.18.06,8.36.21,12.55.27a3,3,0,0,0,.71-1.39h-9.2c-.81,0-2,1.31-.72,1.33,3.5.07,6.59-.9,9.92-1.88,4.73-1.39,9.75-.23,14.59-.56.76,0,1.66-1.23.47-1.22-5,.05-10,.38-15.06.43-.79,0-2,1.2-.71,1.24l3.12.38c.15-.38.29-.76.43-1.14a26.5,26.5,0,0,1-12.24,0l-.43,1.15a27.15,27.15,0,0,1,9.12-1.34c.81,0,2-1.37.71-1.37h-5c-.79,0-2,1.32-.71,1.37,2,.07,3.9.55,5.85.64.24-.41.48-1,.72-1H175.23c-.81,0-2,1-.71,1h8.78c.81,0,2-1,.71-1h-6.69s0,.57.05.94c4.67-1.7,10.66-.83,15.33.44.31-.4.62-.84.94-1.24-13.94-.15-27.12,5.17-41,5.42-.07.4-.14.78-.2,1.17,6.32-1.26,12.48-3.22,19-3.4.78,0,1.64-1.33.46-1.33h-3.34a5,5,0,0,1-.21,1.28,21.26,21.26,0,0,1,9.11-.73c.24-.42.48-.8.72-1.22a71.62,71.62,0,0,1-12.33-.78l-.18,1.06c3.56-1.86,8.46.21,12.21.38.24-.41.48-1,.72-1H166.86a3.94,3.94,0,0,0-.2.94,57.32,57.32,0,0,1,12.88-.9c.15-.41.31-.88.46-1.29-6.4.27-12.79,3.46-19.19,2.09-.14.39-.28.75-.43,1.13,4.61-1.09,9.27-1.25,14-1.63,0-.39,0-.79,0-1.18a63.15,63.15,0,0,1-14.5,3.24c-7.73.76,1.88-.65,3.29-.62,1.72,0,3.43.19,5.15.23l.21-1.18c-4.09,1.4-9.33.89-13.5,0l-.42,1.15c3.65-.91,7.32-.55,11-.79.56,0,1.68-.86.69-1.19-4.59-1.53-9.25-1.33-14-1.29-.77,0-2.07,1.06-.71,1.23l3.35.42c.63.08,2-1,.93-1.2a25.89,25.89,0,0,0-4.82-.45c-.8,0-2.05,1.16-.72,1.23,4.11.22,8,1.46,12.14,1.68.56,0,2.06-.9.93-1.21a22.07,22.07,0,0,0-6.74-.44c-.08.41-.15.81-.22,1.22a107.57,107.57,0,0,1,15.65-.83l.46-1.23a46.59,46.59,0,0,1-9.79.83l-.21,1.18a40.31,40.31,0,0,1,9.12-.36l.71-1.24a73,73,0,0,1-12.55-.42l-.71,1.24a58.24,58.24,0,0,1,11.07,1.64l.94-1.2a194.93,194.93,0,0,1-20.92-1.26c-.62-.07-2,1-.93,1.2a64.39,64.39,0,0,0,11.93.88c.56,0,2.06-.79.93-1.21-3-1.09-5.88-.93-9-.87-.07.4-.14.79-.2,1.19,4.9-1.3,9.57-.79,14.54-.37.16-.41.32-.82.47-1.23-3.93.09-7.79.62-11.66-.39L156,138.9c3.46-1.51,8.62-.5,11.81,1.29l.61-1.07c-7,1.41-14,.51-21.07.78-.78,0-1.66,1.23-.47,1.23,5.67,0,11.37,0,16.93,1.22l.69-1.19c-5.92.46-11.8,1.17-17.74,1.25,0,.36,0,.73,0,1.09,5.78-2.72,12.28-2,18.48-1.95,0-.36,0-.73,0-1.09-8.2,2.91-18.72,7.8-27.47,4.91l-1.15,1.17c1.53.3,3.07.53,4.6.83l.69-1.19c-1.1,0-2.2-.13-3.3-.12-.31.4-.62,1.06-.93,1.06h3.76c.8,0,2-1.06.71-1.09-1-.25-2-.41-2.94-.66-.12.33-.24.69-.36,1,2.93-1.39,6.62-.39,9.7-.25l.47-1.23a16.41,16.41,0,0,1-6.05-.72c-.12.32-.23.65-.35,1,2.91-1.45,6.15-.66,9.06.11l.42-1.15c-.49.12-11.18.33-3.78-1a16.47,16.47,0,0,1,6.7.48c.15-.39.29-.77.43-1.15a12.06,12.06,0,0,1-4,.91c-3.12.66-3.72.27-1.82-1.17,2.37-.37,4.94.12,7.32.19.07-.4.13-.79.2-1.19-3.17.88-7.61,1.31-10.38-.78l-.36,1a19.35,19.35,0,0,1,12-.31c.14-.39.28-.77.43-1.15-4.89,1.26-10.81,1.36-15.59-.44l-.69,1.2a73.82,73.82,0,0,1,16.07-.41l.47-1.23c-5.06.2-10,1.72-15,.44-.15.39-.29.77-.43,1.15,4.21-1.1,8.59-.44,12.88-.36.07-.4.14-.79.2-1.18a31.38,31.38,0,0,1-9.91.36c-1.09-.08-5.4.13-.93-.56a30.22,30.22,0,0,1,5.2.12l.47-1.23c-2.79.07-5.57.35-8.37.42-.78,0-1.64,1.23-.47,1.23a38.78,38.78,0,0,1,9,.8l.69-1.19a94.35,94.35,0,0,1-9.8.41c-.81,0-2,1.23-.71,1.24a53.21,53.21,0,0,1,11.07.7c.31-.4.63-.3.94-1.3H142.6c-.24,1-.47.92-.71,1.33a57.59,57.59,0,0,1,10.66.43l.68-1.17c-3.71.58-7.24,1.82-11,1.68,0,.37,0,.74,0,1.1a27.66,27.66,0,0,1,12.21-1.94c.07-.4.13-.79.2-1.18a34.82,34.82,0,0,1-12.46,2c0,.36,0,.73,0,1.09a10.05,10.05,0,0,1,6.62-.59c-.9-.17-4.8,1.76-6,2-.59.09-5.4.2-2.38-.33a26.76,26.76,0,0,1,4.74-.05c0-.36,0-.73-.05-1.09l-2.27,1.89.94-1.2c-1,0-6-.05-.47-.44l-.51-1L139,144.09l.68.82,1.92-1.53c1.08-.61-.37-1.09-1-.83l-2.09.84,1.19.69a17.9,17.9,0,0,0,3.05-5.59l-1.88.19c0,1.42.34,2.94-.66,4.13l1.76.12.42-2.51-1.33.71a3.23,3.23,0,0,1-.13,4.34l1.87-.19c-.14-2.88.64-3.68-1-.64l1.89,0a4.51,4.51,0,0,1,.41-2.51c.26-.77-1.7-.53-1.94.2Z"/><path class="cls-2" d="M125.39,103.26c-8.21,1.75-16.17,3.73-22.14,10-4.28,4.52-10.93,12.29-8.82,19.12.2.64,2.12.09,1.93-.52-1.86-6,3.43-12.56,7.06-16.83,5.83-6.87,13.7-9.09,22.21-10.91,1.18-.25.92-1.14-.24-.89Z"/><path class="cls-2" d="M94.43,144.54c2.85,6.72,3.71,13.83,8.61,19.54,5.62,6.56,13.39,6.61,20.73,9.81.52.23,2-.57,1.82-.66-6.42-2.8-13-3.3-18.68-7.83-6.73-5.37-7.41-14-10.55-21.38-.2-.47-2.08.16-1.93.52Z"/><path class="cls-2" d="M137.6,173.12h-.3c-.71,0-2.06,1.24-.76,1.24,15.3,0,30.38-15.24,30.93-30.28,0-.79-1.91-.35-1.93.28-.51,13.78-13.91,28.86-28.24,28.86-.71,0-2.06.9-.76.9h.31c.71,0,2.06-1,.75-1Z"/><path class="cls-2" d="M139.22,104c7.31-.16,15.19,5.37,19.4,11,3.65,4.89,5,11.36,6.92,17,.29.84,2.21.3,1.93-.52-2.46-7.24-4.23-14.68-9.64-20.39-4.47-4.71-11.85-8.61-18.42-8.46-1.07,0-1.51,1.36-.19,1.33Z"/><path class="cls-2" d="M120,93.51c.5,2.68,1.6,5.18,1.67,7.94,0,.33,1.95,0,1.93-.51-.07-2.77-1.17-5.27-1.67-8-.08-.41-2,0-1.93.52Z"/><path class="cls-2" d="M113.84,95.52c-.71,1-.24,2.23.08,3.25a32.72,32.72,0,0,0,1.84,4.36c.39.77,2.29.19,1.94-.52-.55-1.1-1-2.23-1.5-3.38-.21-.55-1.2-2.66-.77-3.23.73-1-1.11-1.12-1.59-.48Z"/><path class="cls-2" d="M107.48,99.52c1.32,1.83,2.2,3.92,3.34,5.86.43.72,2.28,0,1.78-.84-1.14-1.94-2-4-3.35-5.86-.5-.68-2.35,0-1.77.84Z"/><path class="cls-2" d="M102.38,101.87c1.29,2.51,2.93,4.81,3.76,7.53.15.48,2.07-.06,1.93-.52-.83-2.72-2.47-5-3.76-7.53-.26-.5-2.11.18-1.93.52Z"/><path class="cls-2" d="M96.3,105.41a14.13,14.13,0,0,1,6.91,6.5c.34.64,2.2,0,1.93-.52a14.72,14.72,0,0,0-7.3-6.88c-.56-.21-2.32.62-1.54.9Z"/><path class="cls-2" d="M93.79,111.71c1.86.79,3.09,2.27,4.47,3.67.49.49,2.32-.23,1.8-.76-1.46-1.48-2.78-3-4.73-3.86a1.58,1.58,0,0,0-1.37.18c-.25.15-.6.58-.17.77Z"/><path class="cls-2" d="M90.2,118c2.6.53,4.63,2.5,6.94,3.71.56.29,2.34-.53,1.53-1-2.44-1.27-4.53-3.26-7.29-3.82-.62-.13-2.28.83-1.18,1.06Z"/><path class="cls-2" d="M89.5,124.5a2.34,2.34,0,0,0-1.07.28c-.14.08-.47.32-.38.53.24.51,1.6.59,2.06.69a14.49,14.49,0,0,1,2.84.75c.56.26,2.33-.55,1.54-.92a12.91,12.91,0,0,0-2.47-.69l-1.53-.35-.5-.12c-.3-.08-.1-.09,0,.12l-.37.54-.88.24a1.64,1.64,0,0,0,1.28-.52c.26-.37-.22-.55-.52-.55Z"/><path class="cls-2" d="M86.53,130.36c2.1,0,4.17.39,6.27.42,1.12,0,1.47-1.42.17-1.44-2.1,0-4.18-.39-6.28-.42-1.11,0-1.47,1.42-.16,1.44Z"/><path class="cls-2" d="M85.83,146.54c2.71,0,5.5-.4,8.15.39.66.19,2.27-.78,1.16-1.11-2.79-.83-5.71-.48-8.58-.45-.77,0-2,1.18-.73,1.17Z"/><path class="cls-2" d="M87.49,151.94c2.85-.08,5.53-1.18,8.37-1.26.71,0,2-1.13.75-1.09-2.85.08-5.53,1.18-8.37,1.26-.71,0-2,1.12-.75,1.09Z"/><path class="cls-2" d="M91.63,158.62c1.89-1.06,3.44-3.11,5.76-3.21,1.07,0,1.51-1.4.19-1.35a8,8,0,0,0-3.78,1.33c-1,.64-1.94,1.56-3,2.16s-.1,1.6.84,1.07Z"/><path class="cls-2" d="M95.93,165.45a5.53,5.53,0,0,1,4.31-3.22c.33-.06,1-.19,1.13-.55s-.67-.23-.78-.21c-2.67.49-5.43,1.68-6.57,4.31-.15.36,1.69.18,1.91-.33Z"/><path class="cls-2" d="M99.52,170.81l4.18-4.18c.29-.29.23-.63-.19-.72a1.62,1.62,0,0,0-1.37.36q-2.08,2.1-4.18,4.18c-.29.29-.22.63.2.73a1.6,1.6,0,0,0,1.36-.37Z"/><path class="cls-2" d="M103.74,174.71c1.32-2.11,3.26-3.7,5-5.44a.6.6,0,0,0-.27-1,1.27,1.27,0,0,0-1.36.37,31.48,31.48,0,0,0-5,5.43c-.66,1.06,1.13,1.43,1.63.63Z"/><path class="cls-2" d="M109.74,176.77a14.8,14.8,0,0,1,3.57-5.18c.31-.24.22-.55-.16-.61a1.86,1.86,0,0,0-1.37.36,16.13,16.13,0,0,0-4,5.7c-.25.5,1.63.31,1.92-.27Z"/><path class="cls-2" d="M116.44,180.41c.1-2.7,1.57-5.16,2.92-7.42.2-.33-1.61-.2-1.91.31-1.41,2.35-2.84,4.83-2.94,7.63,0,.39,1.91.11,1.93-.52Z"/><path class="cls-2" d="M123.13,182.21c.45-1.8.88-3.61,1.25-5.44.14-.66-1.8-.33-1.92.27-.37,1.83-.8,3.63-1.26,5.44-.15.64,1.78.34,1.93-.27Z"/><path class="cls-2" d="M140,176.33a48.57,48.57,0,0,0,.84,7.11c.08.48,2,0,1.93-.52a47.07,47.07,0,0,1-.83-7.11c0-.41-1.94-.09-1.94.52Z"/><path class="cls-2" d="M146.77,174.34c-.53,1,0,2.22.34,3.22a14.54,14.54,0,0,1,1.28,4.21c0,.74,2,.31,1.93-.52a11.34,11.34,0,0,0-1-3.53c-.32-.82-1.16-2.38-.71-3.26s-1.48-.77-1.82-.12Z"/><path class="cls-2" d="M150.15,172.32a43.89,43.89,0,0,0,5,7.11c.57.71,2.4-.07,1.76-.86a43.89,43.89,0,0,1-5-7.11c-.41-.8-2.24-.07-1.76.86Z"/><path class="cls-2" d="M155.26,170.2c2.17.51,3.63,2.43,4.9,4.12.31.41,2.16-.22,1.81-.68-1.33-1.78-2.86-3.71-5.13-4.24a2.07,2.07,0,0,0-1.36.22c-.16.09-.67.47-.22.58Z"/><path class="cls-2" d="M161.12,164.75c-.83,1.06-1.83,0-1,.65.28.21.55.45.82.68.7.64,1.37,1.32,2,2a28.47,28.47,0,0,0,3.44,3.33c.49.35,2.21-.42,1.81-.7a44.36,44.36,0,0,1-4.71-4.59c-.91-.88-2.89-3-4.19-1.3-.46.58,1.44.35,1.77-.06Z"/><path class="cls-2" d="M162.36,161.37a13.3,13.3,0,0,1,6.58,3.73c.34.33,2.08-.4,1.83-.64a13.71,13.71,0,0,0-6.81-3.81,2.54,2.54,0,0,0-1.35.26c-.14.06-.67.38-.25.46Z"/><path class="cls-2" d="M166.32,154.81a20.36,20.36,0,0,1,6.1,2.46c.5.29,2.3-.45,1.55-.88a21.48,21.48,0,0,0-6.44-2.56c-.56-.12-2.28.75-1.21,1Z"/><path class="cls-2" d="M167.81,150.53a30.41,30.41,0,0,0,8.54,1.7c.43,0,2.21-.82,1.23-.84a29.16,29.16,0,0,1-8.19-1.65c-.47-.15-2.2.59-1.58.79Z"/><path class="cls-2" d="M169.92,147.12h5.43c.46,0,1,0,1.27-.44s-.19-.56-.56-.56h-5.43c-.46,0-1,0-1.27.43s.19.57.56.57Z"/><path class="cls-2" d="M169.57,130.38c-.07.31-.22.24.19.11s.69-.18,1.05-.26c.84-.2,1.69-.36,2.54-.56a7.89,7.89,0,0,0,3.57-1.47c.88-.77-1-.95-1.59-.46-1.09,1-3.47,1-4.84,1.32-.87.19-2.61.44-2.86,1.51-.2.85,1.76.58,1.94-.19Z"/><path class="cls-2" d="M167.23,124a12.37,12.37,0,0,0,7-2.77c1.06-.78-.56-1.19-1.23-.69a9.68,9.68,0,0,1-5.54,2.25c-1,0-1.56,1.25-.23,1.21Z"/><path class="cls-2" d="M165.87,119.52c2-1.45,4.34-2.3,5.73-4.47.52-.81-1.44-.7-1.82-.1-1.21,1.88-3.4,2.62-5.14,3.89-1.07.77.56,1.16,1.23.68Z"/><path class="cls-2" d="M161.39,115.66a8.31,8.31,0,0,0,6.45-4.34c.5-.93-1.46-.86-1.83-.17a5.9,5.9,0,0,1-4.42,3.19c-1.06,0-1.52,1.37-.2,1.32Z"/><path class="cls-2" d="M159.44,112c2.15-2.18,4.12-4.52,6.27-6.7.45-.45-1.41-.23-1.76.11-2.15,2.18-4.12,4.52-6.27,6.7-.45.45,1.41.23,1.76-.11Z"/><path class="cls-2" d="M155.17,107.7c1.93-2.34,4.62-4.28,5.2-7.44.16-.87-1.81-.58-2,.19-.52,2.88-3.08,4.66-4.84,6.79-.76.92,1.1,1.05,1.59.46Z"/><path class="cls-2" d="M150.75,104c.56-2.8,2.48-5.07,2.92-8,.14-.85-1.82-.53-1.94.21-.44,2.87-2.36,5.13-2.93,7.94-.16.84,1.8.54,1.95-.2Z"/><path class="cls-2" d="M144.46,101.9a69.41,69.41,0,0,0,.84-9.33c0-.53-1.92-.19-1.93.52a69.17,69.17,0,0,1-.83,9.08c-.1.69,1.84.33,1.92-.27Z"/><path class="cls-2" d="M140.21,99.26V92.57c0-.56-1-.21-1,.52v6.69c0,.57,1,.21,1-.52Z"/><path class="cls-2" d="M128.08,89.51c-2.42-2-6.82-.26-9.34.62a79.34,79.34,0,0,0-15.47,7c-13.17,8.11-18.6,22.93-21.81,37.19-.18.8,1.78.5,1.94-.22,1.52-6.75,2.85-13.14,6.24-19.26a55.33,55.33,0,0,1,9.65-13c3.85-3.74,8.56-6,13.41-8.15,2.74-1.2,10.86-5.7,13.59-3.44.57.47,2.38-.29,1.79-.78Z"/><path class="cls-2" d="M80.88,134c-.41-11.31,5.83-20.89,12.12-29.77,7.08-10,22.16-17.32,34.19-17.67.54,0,2.11-.85.83-.81a39.25,39.25,0,0,0-14.91,3.49c-3.8,1.67-7.51,3.51-11.36,5-1.82.72-3.68,3.33-5.22,4.61-9.7,8-18,22.82-17.58,35.63,0,.37,2,.05,1.93-.52Z"/><path class="cls-2" d="M79.69,141.32c-2.15,1.71.15,7,.73,8.93a62.76,62.76,0,0,0,5.79,14.26c8.72,14.75,24.38,21.83,40.42,25.6.83.2,2.29-1,1.11-1.31-14.61-3.44-28-9.29-37.33-21.53A45.06,45.06,0,0,1,84,154.72c-.55-1.57-4.62-11.23-3-12.51,1-.81-.53-1.48-1.29-.89Z"/><path class="cls-2" d="M82.71,143.13c-.1,5.38,2.66,10.12,5,14.79A55.55,55.55,0,0,0,96.39,171c7.23,7.81,18.59,14.49,29.18,15.76.84.09,2-1.08.72-1.23-10.71-1.28-21.79-8.49-29-16.31a46.72,46.72,0,0,1-7.59-11.78c-2.21-4.63-5.12-9.17-5-14.49,0-.9-1.93-.53-2,.21Z"/><path class="cls-2" d="M134.37,188.88c2.53-.61,5.31-.4,7.89-.86a33.24,33.24,0,0,0,6.45-2.08c6-2.42,11.4-5,16.47-9,10.59-8.43,18.88-23.06,19.44-36.66,0-.24-1.91,0-1.93.51-.48,11.73-6.93,23.72-14.8,32.2a47.24,47.24,0,0,1-14.35,10.35,72.24,72.24,0,0,1-9.7,3.75c-3.13,1-6.45.52-9.61,1.29-1.13.27-1,.8.14.52Z"/><path class="cls-2" d="M135.44,186.72c10.56-.77,19.92-5.62,27.82-12.5,8.9-7.76,17-20.54,17.6-32.55,0-.9-1.9-.55-1.94.2-.55,10.45-7,21.1-13.9,28.65-7.57,8.27-18.09,14.16-29.36,15-1,.07-1.55,1.32-.22,1.22Z"/><path class="cls-2" d="M134.5,89.44c10.25.54,22.12,7.49,29.74,14.22,9.18,8.12,10.79,19.75,14.27,30.84.13.41,2.05-.15,1.93-.52-3.58-11.39-5.36-22.42-14.38-31-4.05-3.84-9.06-6.6-14-9-5.23-2.57-10.37-5-16.26-5.29-.39,0-2.21.7-1.27.75Z"/><path class="cls-2" d="M134,87c5.38,2.29,11.14,3.21,16.78,4.68a41.27,41.27,0,0,1,16.46,9c10.1,8.86,11.95,21.61,15.5,33.8.21.71,2.14.18,1.93-.52C181,121.37,179,109.33,169,99.93a42.71,42.71,0,0,0-14.1-8.33c-6.29-2.44-13.15-2.86-19.4-5.53-.6-.25-2.36.61-1.53,1Z"/><path class="cls-2" d="M54.26,140.17c-1.61,13.59,4.69,25.3,12.23,36.14S83.87,197.89,95,205.15c19.39,12.66,44.72,12,65.66,4.09,23.4-8.88,40.74-31,47.5-54.7,7.47-26.22-3.84-51.64-21.75-70.77a77.3,77.3,0,0,0-38.61-22.84c-15.35-3.59-31.45-.57-45.73,5.52a80.37,80.37,0,0,0-34,27.68c-10,14.19-12.78,30-14.65,46.87,0,.37.32.62.65.65l.84.27c.76.44,2.44-.58,1.49-1.14-1.86-1.08-.62-3.5-.39-5.56.36-3.29.71-6.57,1.25-9.84a78.52,78.52,0,0,1,5.44-18.1,76.14,76.14,0,0,1,21-27.89C103,63.1,130.82,56.23,154.91,64.64s43.8,31.51,51.19,55.41c8.62,27.92-6.19,60.67-28.56,78.09-20.86,16.25-50.46,19.94-74.58,9.35-12.8-5.61-23.16-17.08-31.63-27.88-8.88-11.32-16.88-24.7-15.11-39.58.12-1-1.86-.76-2,.14Z"/><path class="cls-2" d="M50.52,113.49c-5.37,13.91-4.81,26.68-1.07,40.94,3.4,13,9,25.85,17.23,36.53,15.66,20.28,39.32,30.37,64.79,30,25.16-.34,48.57-13.71,65-32.19a77.36,77.36,0,0,0,15.75-75.27c-11.47-35.69-46.4-60.27-83.81-59.39a81.63,81.63,0,0,0-49,17.23c-14.14,11.1-22.63,26.84-29.77,43-.16.37,1.68.19,1.91-.32,5.31-12,11.14-23.45,19.8-33.41a75.57,75.57,0,0,1,38.37-23.4c29.25-7.5,60.69,3.17,81.3,24.53,19.92,20.63,28,51,19.89,78.53-8.44,28.7-36.24,52.38-65.17,58.43C119.13,224.25,89,215,71.4,194c-9-10.73-15.06-23.52-19.1-36.85-4.56-15-5.61-29.14.13-44,.15-.4-1.71-.19-1.91.33Z"/><path class="cls-2" d="M84.15,108.74c-1.55-2.7-4.44-4.21-6.27-6.7l-1.64.93a54.78,54.78,0,0,0,8.54,3c.46.13,1.51-.07,1.55-.69a6.35,6.35,0,0,0-1.24-3.63c-.51-.84-3-3.52-2.58-4.57s-1.54-.86-1.83-.15c-.43,1,.35,2.06.89,2.91,1,1.62,3,3.57,2.81,5.62l1.55-.69a52.57,52.57,0,0,1-8.19-2.85c-.48-.24-2.23.13-1.64.93,1.83,2.49,4.72,4,6.28,6.69.38.67,2.24,0,1.77-.81Z"/><path class="cls-2" d="M84.61,95.05a25.69,25.69,0,0,1,5,3.35c.46.42,2-.07,1.71-.81-.77-2.26-1.62-4.48-2.51-6.69L87,91.58a19.1,19.1,0,0,0,5.76,4c.5.21,1.47-.11,1.54-.72.35-3-.6-6.16-1.68-9-.33-.86-2.25-.31-1.93.51,1,2.68,2,5.71,1.66,8.61l1.53-.72a16.88,16.88,0,0,1-5.11-3.55c-.46-.45-2.2-.19-1.85.68.89,2.22,1.74,4.44,2.51,6.7l1.71-.81a26.62,26.62,0,0,0-5-3.35c-.71-.4-2.42.58-1.49,1.1Z"/><path class="cls-2" d="M166.18,95.46c2.32,1.44,5.68-3.19,7.23-4.31l-1.61-.33c-.57,2.5-2,5.11-1.24,7.71.2.65,1.2.42,1.6.15,1.26-.84,2.53-1.66,3.78-2.51.71-.49,2-1.14,2.36-2,.42-1-1.53-.94-1.84-.19s-2,1.47-2.56,1.88c-1,.68-2,1.32-3,2l1.6.15c-.74-2.43.73-5,1.27-7.35.19-.84-1.28-.57-1.61-.33a21.83,21.83,0,0,0-2.06,1.79,28.29,28.29,0,0,0-2.42,2.26c-.68-.43-2.4.52-1.49,1.08Z"/><path class="cls-2" d="M184.2,100.94c-.22-1.64-.5-3.68-2.23-4.37s-3.82.25-5.32,1.24c-1.77,1.17-3.29,3.11-2.74,5.32.32,1.31,2.44,3,3.73,3.23.67.15,2.29-.88,1.16-1.13a5.78,5.78,0,0,1-2.46-1.84c-1.36-1.46-.28-3.28.9-4.42.88-.84,2.62-2,3.81-1.1,1,.76,1.07,2.48,1.22,3.58.1.73,2,.27,1.93-.51Z"/><path class="cls-2" d="M176.18,100.78a10.73,10.73,0,0,1,2.39,2c.41.41,2.22-.3,1.81-.7a11.36,11.36,0,0,0-2.63-2.16,1.77,1.77,0,0,0-1.36.22c-.26.14-.58.42-.21.62Z"/><path class="cls-2" d="M180.5,171a5.75,5.75,0,0,0-5.12,2.15c-1.27,1.72.1,3,1.81,3.36a5.69,5.69,0,0,0,3-.43c1.27-.45,3.22-1.67,4.47-.72,2.57,2-1.45,3.26-3,3.37-.14,0-1.86.52-1.29.86a3.84,3.84,0,0,0,1,.32c.54.13,2.26-.7,1.21-1l-.42-.09-1.29.86a12.45,12.45,0,0,0,5-1.43c1.6-.87,2-2.94.15-3.92s-4.41.22-6.27.92c-1.09.4-2.75.34-3-1.08-.17-1.23,1.42-2.33,2.48-2.25.53,0,2.25-.88,1.21-1Z"/><path class="cls-2" d="M171.23,181.77c.43-.69.83-1.41,1.26-2.11.68-1.09,1.08-1.65,2.24-.95a17.29,17.29,0,0,1,3.65,3.34c.48.53.93,1.09,1.38,1.65.61.77-1.21,1.23-1.68,1.44a6.81,6.81,0,0,0-3.33,2.38c-.18.3,1.6.18,1.91-.31,1.06-1.66,3.65-2.06,5.24-3.13,0,0,.29-.21.21-.32-1.64-2.37-4-5.22-6.7-6.31-3-1.19-4.89,2.72-6.09,4.64-.19.29,1.59.18,1.91-.32Z"/><path class="cls-2" d="M174.91,183.09c.92-.9,2-1.61,2.92-2.51.31-.3-.27-.28-.44-.26a2.35,2.35,0,0,0-1.29.44c-.93.9-2,1.61-2.93,2.52-.3.29.27.28.44.26a2.48,2.48,0,0,0,1.3-.45Z"/><path class="cls-2" d="M96.25,182.86c.76-.9,1.39.12.53-.79-.21-.23-.42-.47-.65-.69a6.48,6.48,0,0,0-1.65-1.25,3,3,0,0,0-3.21.55c-2,2,.87,5.67.63,8l.79-.77a3.84,3.84,0,0,1-3.94-1.4c-.61-.73-2.43.07-1.77.88,1.64,2,3.66,2.35,6.1,1.94a1,1,0,0,0,.79-.77,8.66,8.66,0,0,0-.56-3.37c-.17-.57-1.27-3.26-.56-3.71,1.61-1,3.1,4.44,5.14,2,.8-.95-1-1.36-1.64-.64Z"/><path class="cls-2" d="M78.17,174.72c2.44,1.22,6.73-.43,9-1.49H85.74a12.6,12.6,0,0,0-3.44,6.44c0,.18.73.06.77,0,2.08-.46,4.07-1.18,6.12-1.73l-1-.07A11.23,11.23,0,0,1,86,181.14c-.46.57-1.41,1.49-1.23,2.3.07.35,2-.12,1.93-.52-.18-.82,1-1.94,1.49-2.51a9.81,9.81,0,0,0,1.84-2.85c.11-.34-.9-.1-1-.07-1.87.51-3.69,1.2-5.59,1.62l.77,0a12,12,0,0,1,3.25-6.11c.43-.45-1.24-.07-1.41,0-1.56.72-4.42,1.86-6.08,1-.48-.24-2,.56-1.82.64Z"/><path class="cls-2" d="M228.06,133a3.93,3.93,0,0,0,.49-2.24c0-.34-.3-.45-.6-.46-2.2,0-6-1.08-7.68,1-2.15,2.64-.74,6.72-1.61,9.78-.06.23.19.4.39.43,2.5.37,5.07.46,7.57.84.38.05,1.59-.07,1.59-.66V140c0-.84-2-.44-2,.23v1.67c0-.22,1-.44,1.55-.66-2.5-.37-5-.46-7.54-.83l.38.43c.68-2.39.24-5,.62-7.44.26-1.67.77-2.12,2.4-2.09,1.2,0,2.39.16,3.59.18l-.6-.46a3.42,3.42,0,0,1-.35,1.94c-.5.79,1.45.64,1.8.07Z"/><path class="cls-2" d="M221.25,136.12h-.05c-.32,0-1.8.41-1.26,1,.26.29.93.22,1.29.25a11.16,11.16,0,0,1,2.22.35c.38.12,1.76-.09,1.76-.66v-1.67c0-.87-2-.48-2,.22v2.5c0,.87,2,.48,2-.21v-2.51c0-.87-2-.48-2,.22v1.67c0-.22.85-.45,1.37-.67a13.52,13.52,0,0,0-3.29-.45c.18.07.31.14.48.2l0-.11c-.42.33-.86.87-1.28.87h.05c.45,0,1-.05,1.27-.46s-.2-.54-.54-.54Z"/><path class="cls-2" d="M176.92,103.71c.91,1.59,2.88.32,3.78-.56a.55.55,0,0,0-.25-.93,1.35,1.35,0,0,0-1.37.36,2.46,2.46,0,0,1-.57.45c0,.1.08.11.28,0s-.06-.12-.11-.2c-.43-.75-2.27,0-1.76.85Z"/><path class="cls-2" d="M174.21,180.73c-.53.07-1.43.31-1.19,1a14.49,14.49,0,0,0,.89,1.7c.24.49,2.09-.2,1.93-.52s-.43-.79-.65-1.19c-.07-.14-.39-.62-.28-.78l-.21.2,0,0-.92.33h.05c.32-.05,1-.2,1.13-.54s-.68-.21-.78-.19Z"/><path class="cls-2" d="M21.22,134.76c-.85,3,1.83,6.74,2.94,9.36a.64.64,0,0,0,.61.37c1.7,0,2.44-1.19,3.11-2.68s.8-2.88,1.43-4.25c1.15-2.53,3.36,2.62,3.94,3.48,3.47,5.11,7.44-5,8.26-7.15.37-1-1.56-.83-1.82-.13a29.79,29.79,0,0,1-2.51,5c-.4.64-.89,2.92-2.15,1.46a16.51,16.51,0,0,1-2-3.35c-.9-1.75-2.08-2.33-3.83-1.38-1.35.74-3.84,7.73-3.56,7.73s-1.34-3.58-1.51-4c-.59-1.38-1.44-3.2-1-4.71.23-.81-1.74-.55-2,.2Z"/><path class="cls-2" d="M124.81,50.47c.52-3.39,2-6.58,2.09-10l-1.86.5c1.45,2.16,2.3,4.63,3.51,6.92.61,1.16,1.4,2.9,2.87,2.9s2.23-2,2.69-3.19a59.47,59.47,0,0,0,2-7.55c.19-.78-1.76-.49-1.94.22-.82,3.41-1.3,6.91-3.28,9.89l1.27-.55c-1,0-2.37-3.62-2.83-4.62a32.56,32.56,0,0,0-2.49-4.8c-.34-.49-1.84-.11-1.87.5-.12,3.46-1.57,6.64-2.09,10-.12.82,1.83.49,1.94-.22Z"/><path class="cls-2" d="M134.87,224.57a2.78,2.78,0,0,0-1.75.77l1.54-.33a8.08,8.08,0,0,0-6.09.17c-1.29.59-2.43,2-1.41,3.37,1.51,2,4.05,3,5.44,5.24s-1.93,2.64-3.61,2.12a6.22,6.22,0,0,1-3.77-2.79c-.29-.57-2.15.09-1.93.52,1.83,3.59,8.42,5.06,11.27,1.87,1.27-1.44-.95-3.54-1.87-4.42s-2-1.55-2.95-2.35a2.27,2.27,0,0,1-1-2.27c.4-1.73,3.27-1,4.31-.62a1.82,1.82,0,0,0,1.54-.33l-.08-.06c.86-.11,1.66-1.06.31-.89Z"/></svg>