<svg id="layer1" xmlns="http://www.w3.org/2000/svg" viewBox="0 0 255.05 326.02"><defs><style>.cls-1{fill:#93d175;}.cls-2{fill:#3d9630;}.cls-3{fill:#492d0c;}</style></defs><path class="cls-1" d="M117.47,223.43c-.28-3.38-3.49-5.21-6.52-5.81-2.72-.54-6.49-.55-8.49,1.73a4.74,4.74,0,0,0-1.17,4,10.33,10.33,0,0,0-.19,3.94c.64,4,4.58,5.86,8.28,4.67C112.72,230.83,117.83,227.53,117.47,223.43Zm-9.53-.59h0Z"/><path class="cls-1" d="M156.84,173.3a10.88,10.88,0,0,1-4.24.3,31.81,31.81,0,0,0-7.46-2.7c-3-.82-4.46,3.11-2.2,4.83a2.55,2.55,0,0,0-1.41,1.77,69,69,0,0,1-7.41.8c.06-.21.11-.41.17-.61a2.57,2.57,0,0,0-1.11-3c-1.29-.54-2.22-1.31-3.65-1.43a2.73,2.73,0,0,0-2.65,2.38,3,3,0,0,0-.52,4.51,2.48,2.48,0,0,0,0,3.65,2.79,2.79,0,0,0,0,3.3,2.92,2.92,0,0,0,1.46,3.15v0l.31.07.14,0,1.14.29a2.27,2.27,0,0,0,.21.41,15.89,15.89,0,0,0,1.65,2.13c-2.18,0-4.35-.07-6.55-.05a2.63,2.63,0,0,0-2.52,1.79l-1.47.19a8.32,8.32,0,0,0-3.24-1.06l-.2,0a2.46,2.46,0,0,0-.35-1.13,17.56,17.56,0,0,0-1.46-2c1.08-3.26-.47-6.07-4.88-7.42-2.11-.65-3.44,1.21-3.29,2.92-1.59.45-2.76,2.43-1.7,4,.33.47.67.93,1,1.37-2.57,0-4.1,3.54-1.52,5a13.13,13.13,0,0,0,4,1.49,11.53,11.53,0,0,1-1.83,1.48,39.48,39.48,0,0,1-4,2.56,12.5,12.5,0,0,0-5.75-.76,6.62,6.62,0,0,0-5.14,3.24,8.52,8.52,0,0,0-2.49,3.78c-1.44,4.78,3.89,8.68,7.92,9.45a8.82,8.82,0,0,0,10.11-6,11.18,11.18,0,0,0,2.3-3.87,2.67,2.67,0,0,0-1.19-3,19.77,19.77,0,0,0,4.38-3.77l.14.15a7.78,7.78,0,0,0,1,.9,2.54,2.54,0,0,0-.32,2.9,2.51,2.51,0,0,0-.54,5c.06,0,.13-.14.19-.14h0c3,2,6.39,1.95,9.41,3.27a8.44,8.44,0,0,0,.52,1.73,6.54,6.54,0,0,1-2.61.22c-.93-.34-1.88-.63-2.84-.92-2.88-.84-4.85,3.6-2.08,5a14.3,14.3,0,0,0,2.43.94,2.74,2.74,0,0,0,1,3.46c2.87,1.89,5.54,3.21,8.65,3.26,1.25,1.56,4.26.63,4.68-1.59a2.85,2.85,0,0,0,.33-2.18c2.68.28,5.12-.43,6.43-2.63,3.24.43,6.61-.56,9.89-1.67a2.82,2.82,0,0,0,1.92-2.48c1.91-.3,3.82-.64,5.72-1a2.79,2.79,0,0,0,.76,1.15,2.72,2.72,0,0,0,.61,1.21l.4.47a5,5,0,0,1-2,1,16.24,16.24,0,0,1-5.28.77,2.71,2.71,0,0,0-1.87,4.58,9.92,9.92,0,0,0-1.9,2.16,2.72,2.72,0,0,0,1.62,4c5.84,1.58,13.79,3.2,17.39-3.16a2.75,2.75,0,0,0-1.61-4l-1.35-.36a15.5,15.5,0,0,0-1.81-.64,5,5,0,0,0,2.13-4.21,15.87,15.87,0,0,0,4.3.13,3.27,3.27,0,0,0,1.06-.33,2.51,2.51,0,0,0,.32.41,3,3,0,0,0-.44.93c-.1.36-.19.72-.29,1.08a2.67,2.67,0,0,0,1.84,3.29l.25.06a2.54,2.54,0,0,0-.55,4.09,6.1,6.1,0,0,0,6.4,1.55,2.37,2.37,0,0,0,.84,1.57,7.45,7.45,0,0,1,2,2.27,2.76,2.76,0,0,0,1,4.77l1.07.29a1.66,1.66,0,0,0,.22,0,2.84,2.84,0,0,0,3.71,1.27c-.47.22.1.12.34.12a5.55,5.55,0,0,0,1.81-.26c1.79-.59,2.67-2.15,3.21-3.85a2.71,2.71,0,0,0-1.9-3.31,15.12,15.12,0,0,0-4.3-.63,11.23,11.23,0,0,0-3.29-4.47,2.66,2.66,0,0,0-.78-.49,10.88,10.88,0,0,0,2.13-3.68,2.58,2.58,0,0,0-.72-2.61,2.26,2.26,0,0,0-.73-1.35,28.32,28.32,0,0,0-4.27-3,6.22,6.22,0,0,0,1.64-3.08,2.68,2.68,0,0,0-2.71-2.68,3.59,3.59,0,0,0-1.57.44,2.35,2.35,0,0,0-1.3,1.46c-.23.22-.47.43-.71.64a9.8,9.8,0,0,1-1,.74,1.38,1.38,0,0,1-.46.23H172a3,3,0,0,0-.43,0c-.08,0-.12,0-.1,0a2.42,2.42,0,0,0-.56.15l-.11-.16c2.56-1,2.35-5.1-.86-5.19a39,39,0,0,0-4.59.14,38.53,38.53,0,0,0-5.23-2.7,2.47,2.47,0,0,0-.23-3.33,9.41,9.41,0,0,0-2.74-1.89,2.84,2.84,0,0,0-.56-2.26,3,3,0,0,0-1-3.19c.31,0,.62-.05.93-.06a2.72,2.72,0,0,0,2.16-4.24,11.36,11.36,0,0,0,10.57-5.75,2.72,2.72,0,0,0-1.62-4,37.24,37.24,0,0,0-7.82-1.23A21.36,21.36,0,0,0,156,178.9a13,13,0,0,0,7.66-3.44,2.74,2.74,0,0,0-1.18-4.55l-1.07-.29-1.48-.4C158,169.71,156.74,171.63,156.84,173.3Zm2.34,45.07c.35.43.07.17,0,0Zm-16.63-6.49a2.49,2.49,0,0,0-2.11,1.08,14.8,14.8,0,0,0-2.66-5.57c0-.06,0-.13,0-.19a23.23,23.23,0,0,0-3.29-6.25,6.82,6.82,0,0,0-.42-1.09,5.26,5.26,0,0,0-1-1.29,76,76,0,0,0,8.93-.44,2.72,2.72,0,0,0,.41,2.53,2.51,2.51,0,0,0,.48,2.55,9.22,9.22,0,0,0-1.65,2.14,2.71,2.71,0,0,0,1.61,4c.28.07.57.13.85.18-.16.58-.34,1.25-.47,1.74a2.74,2.74,0,0,0-.09.63Zm-19.25-9.73,0-.08a17.27,17.27,0,0,0,2.45-1.66q.85.59,1.8,1.11c2,1.14,2,1.81-.13,3a15.94,15.94,0,0,1-7.13,1.52A8.54,8.54,0,0,0,123.3,202.15Zm51,9.61c.08-.14.1-.13,0,0Zm-19.89-1.18.82-.67.92.36Zm-5.51-19.43a16.32,16.32,0,0,0-5.71-3.13,2.78,2.78,0,0,0-1.33-2.9c-1.11-.58-2.24-1.11-3.38-1.61a.8.8,0,0,0,0-.15c2.53-.32,5-.64,7.6-.94a3.16,3.16,0,0,0,.79-.22c.73.26,1.48.5,2.23.73a15.28,15.28,0,0,0-2,1.44,2.71,2.71,0,0,0,1.19,4.52,38.61,38.61,0,0,0,6.14,1.24,1.29,1.29,0,0,0,.17.16C152.74,190.46,150.84,190.81,148.94,191.15Z"/><path class="cls-1" d="M168.55,176.56c-.1.36-.19.72-.29,1.07a2.71,2.71,0,0,0,1.58,3.19,2.62,2.62,0,0,0,1.91,2.86,14,14,0,0,0,5.16.31A2.83,2.83,0,0,0,181,186.5c2.19-1.1,3.4-1.67,4.24-4.12a2.57,2.57,0,0,0-1.94-3.15l-.06,0c-.07-1.05-.54-1.18-1.07-1.51a19.25,19.25,0,0,0-11-3.06A2.62,2.62,0,0,0,168.55,176.56Z"/><path class="cls-1" d="M177.46,190.94h-.82a3.23,3.23,0,0,0-3.1,1.71c-1.94,3-7.22.43-10.32,1.43h0a1.47,1.47,0,0,1-.05-.29l.12-.55a2.68,2.68,0,0,0-2.08,4.82,2.67,2.67,0,0,0-1,3.63,8.65,8.65,0,0,0,8,4.72c3.15,2.33,7.21,1.14,9.85-2.31a2.7,2.7,0,0,0-1-3.7c-1.21-.67-2.44-1.31-3.7-1.87a9.19,9.19,0,0,0,3.59-2.18,9.81,9.81,0,0,0,5.13-.8c3.41-1.91.93-5.09-1.71-5.9A2.38,2.38,0,0,0,177.46,190.94Z"/><path class="cls-1" d="M125.83,245.79c2.81-.41,5.61-1.54,6.58-3.69a4.58,4.58,0,0,0,.48-.31h0c5.48,6.42,14.11.38,16.1-6a2.73,2.73,0,0,0-2-3.28l-1.27-.31a2.46,2.46,0,0,0-.28-.5,2.68,2.68,0,0,0-2-3.64l-6.39-1.72c-2.8-.75-4.21,2.68-2.7,4.44a2.75,2.75,0,0,0-1.38,4.11c-5.8-.14-11.26,1.45-15,6.22a3.38,3.38,0,0,0-.72,2.2,2.8,2.8,0,0,0,2.74,4.48A30.16,30.16,0,0,0,125.83,245.79Zm10.89-7.36a2.33,2.33,0,0,0-.1-1.56,9.42,9.42,0,0,0,5.56.06C140.72,238.76,138.51,240.08,136.72,238.43Z"/><path class="cls-1" d="M173.42,232.76A14.17,14.17,0,0,0,163,234.22a1.94,1.94,0,0,0-.47.34,15.66,15.66,0,0,0-7.17,5.09c-4.33-.1-8.89,2.73-10.29,6.69a2.39,2.39,0,0,0,.2,1.92,41.08,41.08,0,0,1-6.78-2.93c-2.83-1.53-5.12,1.89-3.29,4.22a7.54,7.54,0,0,1,1.1,1.9,35.5,35.5,0,0,0-3.68,4,2.74,2.74,0,0,0-.45,3.27,7.5,7.5,0,0,0,1.08,1.38,5,5,0,0,0,.39,1.18c3.46,7.18,15.18.58,14.13-6.06a6,6,0,0,0-.13-.61,27.1,27.1,0,0,0,4.27.65,11.37,11.37,0,0,0-3.56,3.06c-1.94,2.56-1.5,4.51,0,5.92a9.33,9.33,0,0,0-2,3.24,2.6,2.6,0,0,0,.68,2.59q.36.29.72.54a8.05,8.05,0,0,0,1.73,3.73c3.68,4.42,12.13,2.23,17.12-1.66a12.26,12.26,0,0,0,1.51.54c-.22.29-.42.6-.61.91a5.15,5.15,0,0,0-1.5.19c-3.27,1-2.88,4.63-1.78,7a9.54,9.54,0,0,0,6.62,5.35,6.39,6.39,0,0,0,3.08-.25,31.25,31.25,0,0,0,3.08,1.11,2.43,2.43,0,0,0,.6,2.29c.62.56,1.17,1.09,1.79,1.64,1.66,1.48,3.69.72,4.49-1.2a14.92,14.92,0,0,0-.58-13.36c2-.27,3.58-3.15,1.73-4.71-1.09-.94-2.24-1.81-3.41-2.66a2.26,2.26,0,0,0,1.42-2.29,13.6,13.6,0,0,0-1.35-4.46,8.61,8.61,0,0,0,5.28-2.59,2.79,2.79,0,0,0-.65-4.27c-1.67-1.15-3.3-2.31-5-3.39,1.57-1.88,1-3.6-.37-5.07,1.56-1.17,1.42-4.29-.88-4.85l-.41-.09a15.6,15.6,0,0,0-5.51-3.2,2.47,2.47,0,0,0-.62-1.35C175.84,237.38,176.13,233.37,173.42,232.76Zm5.76,24.73a34.92,34.92,0,0,1-4-1.2,2.92,2.92,0,0,0-.39-.07c.51-.15,1-.32,1.51-.5A31.07,31.07,0,0,1,179.18,257.49Zm-5.52-8.31a2.26,2.26,0,0,0-1.32.59h-.05a14.28,14.28,0,0,0-6-.15,25.17,25.17,0,0,1-3.49-.37c0-.13.07-.26.1-.39.7-.26,1.4-.45,1.75-.57a25.7,25.7,0,0,1,5.52-1.08,2.93,2.93,0,0,0,1.42,1c.67.24,1.38.48,2.09.75ZM161.54,241l-.76.46a7.08,7.08,0,0,1,.78-.62C161.55,240.85,161.55,240.9,161.54,241Zm17.71,42-1.05-.25a14.49,14.49,0,0,0,1-1.72,9.66,9.66,0,0,1,.39,1.85Zm-4.23-20s0-.06,0-.09l.15.14Zm-13.69-4.4c0,.26,0,.53,0,.82s0,.33.05.5a9.21,9.21,0,0,0-1.61,1.52,6.94,6.94,0,0,0-.9,1.36,2.26,2.26,0,0,0-1.36-.81,13.32,13.32,0,0,0-3.11-.25,4.74,4.74,0,0,1-1.54-.43,5.68,5.68,0,0,1,1.33-1A12.45,12.45,0,0,1,161.33,258.51Z"/><path class="cls-1" d="M171.6,214l-.16,0h.1Z"/><path class="cls-2" d="M139.89,38.08a2.68,2.68,0,0,0-2.59,2,14.39,14.39,0,0,0-.24,3.22,2.28,2.28,0,0,0-1.13-.61c-4.73-.94-8.19,1.08-10.93,4.86a2.26,2.26,0,0,0-.45,1.76,2.38,2.38,0,0,0,0,.26A20.52,20.52,0,0,0,120,51.37a17.87,17.87,0,0,0-5.22,1.42c-4.4-1.15-9-.44-11.82,3.79a2,2,0,0,0-.18.32,10,10,0,0,0-5.86,5,2.84,2.84,0,0,0-.2,2.28l-.21.26c-2.59,3.81.75,8.25-1.22,12a2.83,2.83,0,0,0,.4,3.26,9.13,9.13,0,0,1,.58.85,10.05,10.05,0,0,0,.13,8.93A2.67,2.67,0,0,0,96,90.7a2.74,2.74,0,0,0,1.06,3.49c.61.37,1.23.7,1.87,1a39.35,39.35,0,0,0,6.88,5.18c2.54,1.6,5.26,3.49,6.42,6.39s1.69,6.31,2.61,9.39c1.12,3.79,3.61,7.32,6,10.43,4.22,5.57,9.72,10.48,12.61,16.94-.18.5-.36,1-.53,1.49a12.07,12.07,0,0,0-6.34-.24c-6.61,1.3-11.83,6.89-16.52,11.33-3.52,3.32-8.81,9.39-14.27,9.3a20.86,20.86,0,0,0-3.22-1c-.12-.18-.26-.36-.39-.54,1.22-.34,2.41-.71,3.55-1.15a2.88,2.88,0,0,0,1.41-4.33,3.15,3.15,0,0,0-1.91-3.32l-.83-.3A16.13,16.13,0,0,0,97,152.89a2.48,2.48,0,0,0,.79-1.8A9,9,0,0,0,99,150a2.74,2.74,0,0,0,0-3.81,18.63,18.63,0,0,0-1.72-1.48,2.66,2.66,0,0,0,0-1.19,3,3,0,0,0,.61-2.41,10,10,0,0,0,.84-1.8,2.1,2.1,0,0,0,.09-.5,1.69,1.69,0,0,0,0-.32v0a2.08,2.08,0,0,0-.37-1.18l0,0a2.36,2.36,0,0,0-.33-.45,10.68,10.68,0,0,0-.78-1,2.76,2.76,0,0,0-.17-2.39,15.92,15.92,0,0,0-4.58-4.53,2.7,2.7,0,0,0-1.3-2.27l-.36-.22c-1.14-.68-1.56-.38-2.33.3h.58l-.69,0-.35,0H88a2.83,2.83,0,0,0-3.22,3.71l-.13.08c-1.09-.24-2.22-.49-3.35-.76-2.8-.7-4.27,2.85-2.77,4.59a8.57,8.57,0,0,0-4.37,2.29A8.84,8.84,0,0,0,68.32,142a1.62,1.62,0,0,0-.19.37,17.54,17.54,0,0,0-3.16.43,5.13,5.13,0,0,0-3.74,2.75,17,17,0,0,0-6.49-.41,9.18,9.18,0,0,0-7.55,7.16,2.73,2.73,0,0,0-.36,2.09,10.54,10.54,0,0,0,0,1.26c-.13.13-.28.24-.4.38a2.94,2.94,0,0,0-.63,3,2.19,2.19,0,0,0-.67.8c-2.46,5-1.1,8.93,2.38,13l.14.14a2.75,2.75,0,0,0,.64,1.23c.4.42.8.82,1.21,1.2A27.66,27.66,0,0,0,48,178.6,2.7,2.7,0,0,0,50.6,182c2.67-.29,5.26-.81,7.89-1.35a4.15,4.15,0,0,1,1.49,0c.3.55.58,1.11.87,1.66a2.42,2.42,0,0,0,.71,2.39c.27.23.57.45.88.67a40.5,40.5,0,0,0,4.12,6.45,2.21,2.21,0,0,0,2.25.8,15.6,15.6,0,0,0,2.25,3.88,2.31,2.31,0,0,0,2.31.77,2.4,2.4,0,0,0,2.57,2c3.26-.3,6.83-.71,9.2-3.07L89,194a2.71,2.71,0,0,0,1-3.65c1.48.17,2.59-1.4,2.64-2.71a11.85,11.85,0,0,0-.2-2.74,27.76,27.76,0,0,0,1.57-2.32,2.93,2.93,0,0,0-.19-3.1,9.63,9.63,0,0,0,.86-3.73c.37-.07.74-.15,1.11-.25a2.73,2.73,0,0,0,1.34-4.37,2.92,2.92,0,0,0,.6-.34c8.47-1.22,15.94-10.91,21.71-15.88a23.22,23.22,0,0,1,6.77-4.4,11.74,11.74,0,0,1,3.38-.57c2.08-.17,2.31,1.15,2.66,2.88.64,3.1.84,6.54-.46,9.43a32.71,32.71,0,0,1-8.85,7,2.57,2.57,0,0,0-1.19,1.49c-.63.38-1.24.77-1.83,1.16-2.4,1.61-1,6.06,2,4.94,4.81-1.76,9.17-4.92,13.21-8,3.78-2.88,8-6.78,5.8-11.95-.18-.43-.38-.83-.59-1.22a20.77,20.77,0,0,0,.22-4.64,26.81,26.81,0,0,0-1.59-7.59,7.94,7.94,0,0,0-.45-6.08c-.56-1.26-1.32-2.45-1.81-3.74-.16-.42,1.2-.76,2.56-1,2.28,4.22,7.39,7,12.64,7.59,1.87.22,2.86-1.88,2.59-3.4-1-5.46-5.73-8.68-10.85-9.55a8.19,8.19,0,0,1,.76-3c2.2-4.92,7-6.6,11.85-5.82a13.21,13.21,0,0,0,2.89.76h0c.05,0,.12,0,.12,0a.08.08,0,0,0,0,0,2.7,2.7,0,0,0,1.38-5.14v0s-.06,0-.1,0l-.05,0a18.94,18.94,0,0,0-3.29-.9,4.14,4.14,0,0,1-2.15-2.83c-.75-2.79,1.58-6.4,4.05-7.42,4.5-1.87,9.4-1.09,13-5,1.36-1.45.87-3.56.83-5.34,0-2.11,5.77-1.33,6.86-1.15,5.55.95,10,2.56,15.35-.15,3.1-1.59.4-6.26-2.69-4.68-3.8,1.94-6.48,0-10.34-.26-3.22-.21-6.08-.78-9.32-.08A7,7,0,0,0,167.75,91a10.06,10.06,0,0,0-.07,3.59,6.18,6.18,0,0,1-1.35.86,10.48,10.48,0,0,1-2.71.81c-2.83.65-5.53.94-8.15,2.31-3.05,1.6-4.74,5-5.61,8.18a9.11,9.11,0,0,0,.49,6.44,16,16,0,0,0-11.43,10,12.6,12.6,0,0,0-.9,4c-2.46.47-5.22,1.89-6.33,4.17-.71-.89-1.45-1.77-2.2-2.65l-.24-.28A2.75,2.75,0,0,0,129,127a91.05,91.05,0,0,1-4.22-10.41,31.69,31.69,0,0,1-1.24-4.54,15.9,15.9,0,0,0,4.45-.54,2.57,2.57,0,0,0,1.38-.91,2.61,2.61,0,0,0,1.64-1.84c.1-.36.2-.72.29-1.08a2.66,2.66,0,0,0,.07-.39,17.92,17.92,0,0,0,3.24,1.16c2.56.49,4.2-.24,6.11-1.78A54.64,54.64,0,0,0,151,95.24a2.27,2.27,0,0,0,0-2.62,2.23,2.23,0,0,0,1.76-.82c3.66-4.41,5.6-10.94,1.68-15.17,3.34-6.5.57-15.83-1.86-22.13a2.37,2.37,0,0,0,.51-2.35,13.62,13.62,0,0,0-1.29-2.39,4.53,4.53,0,0,0-.29-3.45,3.78,3.78,0,0,0-.22-.33,11.89,11.89,0,0,0,.82-1.95,2.67,2.67,0,0,0-1.8-3.32l-5.06-1.37A12,12,0,0,0,139.89,38.08ZM65.83,176.86c1.11.38,2.2.7,3.21,1a2.73,2.73,0,0,0,0,.94c.08.36.16.72.23,1.09a3,3,0,0,0-.64-.7c-.65-.49-1.32-.94-2-1.36C66.39,177.49,66.11,177.18,65.83,176.86Zm10.29,12.33A14.19,14.19,0,0,0,78,190.54a2.38,2.38,0,0,0,1.81.35,6.16,6.16,0,0,1,.58.56c-1.5.62-3,1.29-4.43,2A25.8,25.8,0,0,0,76.12,189.19Zm8.06-6.88c-.4-.59-.83-1.16-1.27-1.72a8.26,8.26,0,0,0-.69-1.89l.65,0a18.22,18.22,0,0,1,3.54,5.11A15.26,15.26,0,0,1,84.18,182.31ZM104.42,75.54c.46.35.93.69,1.38,1,.73.53,1.48,1,2.24,1.51.45.54.92,1.06,1.39,1.53a2.15,2.15,0,0,0-.14.45c-.52,0-1,.06-1.53.12a3.36,3.36,0,0,0-1.35.43c-.16-.22-.32-.45-.48-.66A30,30,0,0,1,104.42,75.54ZM145.53,78a17.85,17.85,0,0,1-.75,2.59,12,12,0,0,1-.61-2.45l.23,0a3.72,3.72,0,0,0,.87-.23ZM128.36,95.91h.15l-.14,0ZM133,69.52a30.21,30.21,0,0,1,3.28,1.36c-.59-.07-1.17-.15-1.75-.24-.62-.32-1.26-.64-1.91-.94Zm-20.61,5.21c-.29-.38-.57-.75-.88-1.11a24.92,24.92,0,0,1,4.37.25c1.32.45,2.62.94,3.89,1.44a15.79,15.79,0,0,0-.92,2.51C117,77,114.7,76,112.43,74.73Zm12.23,2.63A62.29,62.29,0,0,1,133.52,82a22.92,22.92,0,0,1-3.11-.37,37.81,37.81,0,0,1-6.57-1.79A9.76,9.76,0,0,1,124.66,77.36Zm-11.3,21.86.08.17-.24-.22Zm2.23,2.92c.68.51,2.08,1,2,1.31v0c0,.14-.71.22-1.12.36A13.49,13.49,0,0,0,115.59,102.14Z"/><path class="cls-3" d="M102.37,197.25c-1.06-.6-1.71,0-2.76-.81a1.27,1.27,0,0,0-1.28,0C92.6,199.2,88.14,204.47,88,211.06c-.17,6.18,5,9.07,10.57,8.8,5.8-.28,12.59-3.52,12.55-10.09,0-6.87-7.79-11.45-13.87-11.55-.73,0-2.06,1.08-.75,1.1a13.35,13.35,0,0,1,12,8.08c3.15,7.27-4.84,11.48-11.07,11.39-5.28-.08-7.87-4.62-7.45-9.39.46-5.35,4.45-9.92,9.11-12.18l-1.28,0c1.11.83,2.36.61,3,1s2.33-.49,1.53-.94Z"/><path class="cls-3" d="M108.53,205.61c3,4.09,7.59,5.06,12.23,3.22,3.9-1.55,7.93-5.83,7.65-10.3-.31-5.12-5.91-8.84-10.73-7.32-5.15,1.62-8.34,8.28-6.37,13.26.29.73,2.2.16,1.93-.52a9.55,9.55,0,0,1,4.41-11.52c4.13-2.16,8.87,3,8.82,6.95,0,3.34-2.6,6.26-5.27,7.94-4,2.48-8.24,1.08-10.88-2.49-.43-.58-2.29.1-1.79.78Z"/><path class="cls-3" d="M129.34,195.37c-3.43,6,6.4,6.38,10,6.12,5.16-.38,9.88-4.15,10-9.57.15-5.09-4.71-8.83-9.57-8.07-7.06,1.1-13.47,8.21-7.49,14.53.38.4,2.19-.29,1.81-.7-2.69-2.84-3.27-5.89-.93-9.14a8.65,8.65,0,0,1,9-3.59c3.31.88,5.17,4.27,5.28,7.49.15,4.77-4.17,8-8.54,8.23-3.38.15-10.48-.69-7.66-5.61.2-.36-1.62-.21-1.92.31Z"/><path class="cls-3" d="M149.28,186.32c-1.54,8.59,12.56,8.21,17.25,5.14,4.4-2.89,5.68-9.37.32-11.62-4.7-2-11.28-1.21-15.73,1-1.86.94-3.78,2.36-4.11,4.56-.42,2.85,2.39,5.28,4.36,6.8.5.39,2.27-.36,1.8-.72-3.1-2.41-6.31-6.39-2.13-9.45,3.32-2.43,8.57-2.67,12.45-1.9,4.27.84,6.27,4,4.06,7.94-2,3.52-5.06,4.45-8.94,4.34s-8.2-2-7.41-6.41c.12-.67-1.82-.33-1.92.27Z"/><path class="cls-3" d="M168.31,180.3c3.36,11.86,22.76,5.39,18.65-6.28-1.65-4.71-7.17-5.46-11.28-3.79-4.48,1.84-8.08,8.92-4.37,13,.42.47,2.26-.22,1.8-.73-2.83-3.11-.84-8.17,1.88-10.61,3.68-3.32,8.77-.95,10.21,3.14a8.42,8.42,0,0,1-2.8,9.07c-4.17,3.5-10.77.61-12.16-4.31-.17-.62-2.1-.09-1.93.52Z"/><path class="cls-3" d="M99.36,224.63c-6.28,6.93,3.87,11.11,9.84,10.54a11.72,11.72,0,0,0,8.6-4.69c2.28-3.24,2.6-9.44.27-12.7-6.68-9.36-33.67,9.22-12.68,16.64.45.16,2.19-.56,1.58-.77-5.75-2-10.35-6.57-5.67-12.27,3.1-3.78,10.51-7.61,14.64-3.32,2.22,2.32,1.81,6.53,1.31,9.37a8.44,8.44,0,0,1-7.77,7c-5.57.54-13.75-4-8.37-9.89.43-.47-1.43-.23-1.75.12Z"/><path class="cls-3" d="M116.36,216.71c-1.21,9.89,9.91,12.41,17.49,9.92,3.71-1.21,7.1-3.46,8.3-7.34,1.44-4.64-1.91-11.1-5.19-14.26-11.44-11.06-26.82,24.94-8.83,20.3,1.14-.3.94-1-.19-.72-13,3.35-2.28-29.39,8.09-18,5.55,6.1,6.5,16-2.23,19.24-7.06,2.65-16.58-.88-15.52-9.46.07-.59-1.85-.21-1.92.3Z"/><path class="cls-3" d="M141.11,208.53c-3.65,9.31,9.51,9,14.66,6,4-2.26,4.85-6.23,4.54-10.52-.2-2.78-1.52-5.74-4.5-6.34-5.59-1.14-11.65,3.39-14.65,7.71-1.43,2.06-2.46,4.81-1.2,7.19,1.64,3.1,6.27,3.58,9.32,3.77.52,0,2.25-.88,1.21-1-4.84-.3-11-2.19-8.57-8.18,1.66-4.14,6.72-8.46,11.26-8.73,6.24-.37,6.21,9.7,3.95,13.25-3.66,5.74-17.57,5.33-14.1-3.51.21-.53-1.69-.3-1.92.28Z"/><path class="cls-3" d="M160.09,200.4c-.86,6.18,5,9.81,10.56,9.64,6.9-.23,9.59-7.53,6-12.93-3.36-5-11.43-4.84-15.12-.44-2.59,3.08-3.43,7.31-1.15,10.74s7.07,3.8,10.68,3c1.21-.28.84-1.62-.36-1.35-8.32,1.9-13.19-7.17-6.5-12.85,4.06-3.45,10.17-.45,11.8,4,1.9,5.13-2.06,9-7,8.34-4.18-.53-7.47-3.95-6.87-8.24.14-1-1.84-.74-2,.14Z"/><path class="cls-3" d="M179.26,196.51c.66.9.34,1.94,1,2.86.21.29.75.27,1,.18,2-.63,4.28-1.72,5-3.87a4.86,4.86,0,0,0-1.5-4.84c-3.83-3.85-9.78-2-13.16,1.37a.51.51,0,0,0-.17.48c1,2.76,2,5.6,4.06,7.73.55.57,2.39-.19,1.78-.81a13.68,13.68,0,0,1-2.63-4.07c-.32-.73-.59-1.48-.87-2.22-.43-1.17.15-1.41,1.08-2.09a6.47,6.47,0,0,1,6.54-.67,5.35,5.35,0,0,1,3.07,3.73c.44,2.2-1.67,3.52-3.46,4.09l1,.18c-.66-.9-.34-1.94-1-2.85-.46-.63-2.32.07-1.78.8Z"/><path class="cls-3" d="M113.05,239.57c-4.24,9.67,7.44,12.58,14.23,8.63,4-2.31,5.6-7.22,5.41-11.62-.11-2.54-1.11-4.63-3.82-5-5.52-.65-11.4,5.42-14,9.64-1.29,2.14-2.16,4.82-.9,7.15,1.64,3,6.49,3.14,9.39,3.11.8,0,2-1.22.72-1.21-5,.05-10.67-1.61-8.08-7.62a18.55,18.55,0,0,1,10.29-9.61c6.39-2.08,4.26,8.49,2.79,11.24-4.09,7.64-18.49,5-14.26-4.65.41-.92-1.53-.76-1.82-.11Z"/><path class="cls-3" d="M134,233.44c-4,4.51,0,9.6,5.28,9.89,7.18.39,10.32-8.52,7.51-14.07-3.63-7.14-12.13-4.59-15,1.63a9.08,9.08,0,0,0,.95,9.09c2,2.76,5.81,3.05,8.9,2.46.88-.17,1.61-1.27.27-1-5.66,1.07-9.62-3-8.84-8.58.41-3,2.89-6.79,6.16-7,2.92-.2,5.16,2.75,6.17,5.1,1.88,4.38-.72,12.26-6.47,11.19-4.31-.81-6-5.45-3.14-8.69.54-.6-1.4-.45-1.79,0Z"/><path class="cls-3" d="M151,225.58c-3.31,6.13,3.93,9.16,9,7.91,7.46-1.82,8.05-10,4.16-15.7-6.8-10-19.67,5.76-18.28,13.65.81,4.63,6.38,4.56,10,3.93.83-.15,1.66-1.11.32-.87-2.59.45-5.7.64-7.52-1.62-1.41-1.76-1-4.45-.45-6.44,1.14-4,5-10.46,9.69-10.78,2.66-.18,4.42,2.42,5.38,4.52,1.52,3.31,2.32,7.69-.22,10.7-4,4.72-13.55.78-10.11-5.6.21-.39-1.63-.23-1.92.3Z"/><path class="cls-3" d="M167.26,222.49c.34,6.71,8.48,6.67,12.81,3.77,2.92-1.94,3.73-5.3,3-8.58-.64-2.84-2.4-6.38-5.31-7.43-4.74-1.72-8.55,3.89-9.43,7.7-1.59,6.88,3.57,10.88,10,11.15.4,0,2.21-.73,1.26-.77-5.16-.22-9.47-2.88-9.56-8.4,0-2.65,2-9.6,5.67-9.07,2.24.31,3.62,2.78,4.49,4.6,1.29,2.73,1.88,5.82.41,8.6-2.76,5.26-11,4-11.35-2.09,0-.33-2,0-1.93.52Z"/><path class="cls-3" d="M127.81,257.55c-3,3.66-.19,6.63,3.46,8.22s8.11.71,11.51-1.2c8.56-4.8.25-16.21-4.81-20a1.62,1.62,0,0,0-1.67.25c-4.1,3.51-7.19,8.8-6.56,14.35.65,5.76,6.92,6.17,11.4,5.31.85-.17,1.64-1.19.3-.93-13.77,2.66-10.46-12.66-3.61-18.51l-1.67.25c4.19,3.15,7.84,7.82,8.26,13.21.91,11.89-21,6.61-14.83-1,.49-.6-1.43-.39-1.78,0Z"/><path class="cls-3" d="M148.81,249.16l-3.75,3.91a.55.55,0,0,0-.08.7c2,3,5.13,5.72,9,4.76a11.2,11.2,0,0,0,7.36-6.94c3-7.22-3.45-13.93-10.88-12.13-6.07,1.47-6.42,9.56-4.81,14.33,2.34,6.93,9,7.62,14.35,3.54,1-.79-.52-1.42-1.28-.86-4.85,3.66-9.38,2-11.28-3.6-1.25-3.72-1.26-10,2.9-12,2.58-1.2,6.47.48,8.25,2.36,2.18,2.31,1.81,5.89.7,8.59s-3.77,5.64-7,5.41c-1.94-.14-3.49-1.67-4.64-3.07s1.71-3.38,2.78-4.49c.84-.88-1-1.17-1.61-.56Z"/><path class="cls-3" d="M162.92,236.43c-1.71,2.23-3.48,5.54-.61,7.62,2.35,1.7,6.09,1.07,8.55,0,6.7-2.93,2.5-13-3.94-12.36-6.16.62-7.61,10.21-7.3,14.9.2,2.9,1.32,6,4,7.43,3.33,1.72,7.41,0,10.38-1.65,1.15-.63.11-1.61-.84-1.08-5,2.78-10.1,2.8-11.43-3.59-.9-4.32.14-10,3.09-13.42,3.63-4.16,9.94,4.09,6.65,7.67-1.55,1.69-4.57,2.06-6.67,1.49-3.48-1-1.81-4.51-.31-6.47.74-1-1.09-1.21-1.61-.53Z"/><path class="cls-3" d="M179,235.48c.16,3.24,2.21,7.58,6.2,6,3.83-1.53,4.15-7.13,2.84-10.46-1.23-3.12-4.75-3.91-7.7-3.08a8.76,8.76,0,0,0-6.11,8.62c0,1,1.94.66,1.95-.16a7.65,7.65,0,0,1,3.18-6.58,4.62,4.62,0,0,1,6,.52c1.86,2,1.69,5.92.77,8.26-.59,1.49-1.89,2.25-3.31,1.35s-1.78-3.07-1.86-4.61c-.05-1-2-.65-1.95.16Z"/><path class="cls-3" d="M148.42,267.31c-4.94,3.6-3.34,8.43,2,10.35,5.91,2.12,11.36-1.49,11.32-7.77,0-4.23-2-7.38-5.94-8.89a9.53,9.53,0,0,0-10.3,2.76c-5.46,6.18,2.37,18.41,10.06,13.7,1.11-.68-.55-1.1-1.23-.68-3.69,2.25-7.09-2.55-8.26-5.46a7.08,7.08,0,0,1,2.79-8.74c3-2,7.15-.46,9.3,2,1.88,2.17,2,5.91,1.31,8.57-2.14,8.61-18.09.82-9.86-5.18,1.07-.78-.56-1.17-1.22-.69Z"/><path class="cls-3" d="M161.33,259.88c-4,5.42,1.32,10.39,7,10.38a8.76,8.76,0,0,0,6.86-3.07c2.36-3,1.82-7.62,1.07-11.06-2.75-12.68-21.71,1.93-15.09,10.12,2,2.48,5.38,3.08,8.38,3.31.43,0,2.23-.75,1.24-.83-5.82-.44-10.61-3.7-8.14-10,1.31-3.32,6.35-9.51,10.07-5.63,2.14,2.24,2.25,6.6,2.18,9.47-.08,3.12-1.77,6.51-5.2,6.8-5.59.46-10-5-6.43-9.86.16-.22-1.57-.15-1.91.32Z"/><path class="cls-3" d="M174.69,249.57l-2.82,2.93a.61.61,0,0,0-.15.56c1.76,5.69,8.34,9.66,13.95,6.63,4.76-2.57,5.94-9.81,1.74-13.33-3.39-2.84-8.72-1.9-12.09.38-5.7,3.85-4.82,11.35-2.43,16.83.38.88,2.3.33,1.93-.51-2-4.5-3.11-10,.31-14.09a8.45,8.45,0,0,1,9.69-2.18c4.74,2.1,3.71,8.79.26,11.54-2.31,1.85-5.58.83-7.77-.63a9.69,9.69,0,0,1-2.76-3c-1.34-2.11.31-3,1.76-4.53.85-.88-1-1.23-1.62-.59Z"/><path class="cls-3" d="M161.75,281.05c1.15,3.48,3.5,6.36,7.26,7a8.64,8.64,0,0,0,7.53-2.45c5-5.25-3.39-12.57-8.59-13s-7.54,5-7,9.38c.88,6.59,7.37,8.3,13,6.94l.52-.14c1.17-.31.88-1.4-.29-1.08-4.75,1.28-9.54.05-11.05-5-.85-2.86-.31-7.91,3.17-8.81,2.28-.58,4.82,1.45,6.41,2.76,2.11,1.75,3.94,4.39,3.05,7.21-.78,2.44-3.71,3.42-6,3-3.21-.54-5.16-3.43-6.11-6.31-.25-.75-2.17-.2-1.93.52Z"/><path class="cls-3" d="M178.56,265.57c-6.71,2.19-3.75,8.88,1.06,11.5a6.47,6.47,0,0,0,7.08-.32c2.78-2.28,3.21-6.59,2.61-9.92-2.25-12.48-26.11-3.47-15.17,7.39.51.51,2.34-.22,1.78-.77-3.12-3.11-4-7.41,0-10.16,3.35-2.26,8.26-1.91,10.54,1.63,2.4,3.73,1.18,14.05-5,11.34-3.18-1.39-8.15-7.85-2.64-9.65,1.14-.37.88-1.42-.28-1Z"/><path class="cls-3" d="M181.05,288.15c-.88,3.58.67,6.35,3.14,8.89a1.25,1.25,0,0,0,1.69-.16c4.12-4.67,4.58-11.11,2.7-16.86-.12-.36-.54-.42-.87-.4-5.8.29-14.44,4.49-8.45,10.81.57.6,2.41-.16,1.78-.82-5-5.24,1.5-8.41,6.48-8.66l-.87-.41c1.75,5.36,1.5,11.45-2.37,15.83l1.68-.16c-2.29-2.35-3.78-4.87-3-8.23.22-.89-1.75-.63-1.95.17Z"/><path class="cls-3" d="M102.57,196.09c11,7.81,21.47-9.34,13-18.13-.31-.32-1.35.15-1.65.31a37.91,37.91,0,0,0-7.59,5.13c-2.69,2.41-3.44,4.35-2.2,7.79,1.51,4.16,5.51,6.17,9.52,4.49,1.17-.49-.66-.42-1.1-.23-4,1.65-6.76-4.82-7.21-7.59-.68-4.11,7.21-8,10.06-9.56l-1.65.31a11.48,11.48,0,0,1,2.59,11.94c-1.7,5.35-7,8.4-11.91,4.88-.43-.3-2.08.47-1.82.66Z"/><path class="cls-3" d="M121.28,176.34c-1.57,6.49,3.45,10.64,9.68,10,2.26-.24,4.79-1.31,5.88-3.42,1.39-2.66-.57-5.67-2.23-7.68-3-3.57-7.42-3.88-10.37-.17A14.66,14.66,0,0,0,122,188c2.17,6.28,9.62,3.26,13.53.71,1.09-.72-.59-.95-1.19-.56-2.21,1.44-5.28,3.38-8,2.21-1.88-.81-2.62-3-2.89-4.88-.55-3.77.6-9.68,4.14-11.81,1.89-1.13,4.09,1,5.2,2.33,1.83,2.09,3.86,5.69,1.38,8.07-2,1.94-5.59,1.47-7.87.35-3.21-1.59-3.89-5.09-3.11-8.31.17-.7-1.77-.4-1.93.25Z"/><path class="cls-3" d="M139.46,175c-3.48,12.16,23.53,4.32,13.85-3.09-4.19-3.2-11.16-4.18-12.72,2.18-1.28,5.21,2.45,10.38,8,9.6a13.81,13.81,0,0,0,5.07-2c1.12-.68-.56-1-1.21-.63-2.3,1.39-5.11,2.43-7.49.65a7.37,7.37,0,0,1-2.53-4.91,7,7,0,0,1,1.31-5.36c1.82-2.13,4.92-.42,6.84.66,10.75,6-12.11,13.08-9.15,2.71.21-.74-1.74-.46-1.93.23Z"/><path class="cls-3" d="M154.71,171c.16,2.91,2,5.62,5.1,5.95,3.51.37,6.33-1.78,8.3-4.49a.39.39,0,0,0,.06-.3c-1.77-3.28-4.25-6.62-8.22-7-2.8-.31-5.44,1.4-7,3.62a7.27,7.27,0,0,0-.54,7.61c1.88,3.37,6.63,3.64,10,3.45,1-.06,1.58-1.21.25-1.14-3.41.2-7.68-.41-8.9-4.14-.84-2.53.37-5.44,2.27-7.14,2.6-2.33,5.76-.51,7.74,1.67a17.47,17.47,0,0,1,2,2.78c1.11,1.83-2.77,3.8-4.09,4-3.1.49-4.88-2.75-5-5.34,0-.68-2-.26-1.93.52Z"/><path class="cls-3" d="M118.89,172c3.22.17,6.23-1.18,9.08-2.53,3.79-1.79,11-7.57,15.28-5.7.4.18,1.64,0,1.73-.58,1.33-7.83-2.88-14-7.17-20.2l-1.81.73c6,6.28,7.86,16.19,6.2,24.56-.13.67,1.76.28,1.92-.28.94-3.1,1.52-5.58.79-8.76-.15-.67-1.61,0-1.86.27L136.79,166h1.78l1.57-1.64c.59-.61-1.37-.31-1.65-.11-6.1,4.27-14.51,5.73-19.05,12-.34.47.47.52.74.47,5.57-1,9.69-5.48,13-9.77,4-5.14,8.21-12.4,7.64-19.15,0-.57-1.94-.15-1.93.51.11,4.81.86,9.75,4.17,13.44.41.45,2.25-.23,1.8-.73-3.25-3.62-3.93-8.53-4-13.22l-1.93.51c.66,7.79-4.95,15.91-9.8,21.46a25.77,25.77,0,0,1-5.4,4.7c-3.85,2.5,1.87-2.31,3.08-3,4.36-2.51,9.07-4.08,13.23-7l-1.66-.1L136.79,166c-.53.55,1.39.39,1.78,0q3.13-3.27,6.26-6.53l-1.85.27c.69,3,.09,5.63-.78,8.52l1.92-.28c1.7-8.56-.14-18.58-6.31-25-.4-.41-2.22.14-1.81.73,4.22,6,8.37,12,7.06,19.75l1.74-.58c-2.69-1.17-5.71.09-8.22,1.17-5.24,2.24-11,7.26-16.92,6.94-.66,0-2.08.93-.77,1Z"/><path class="cls-3" d="M144.08,155.84c-4.4-5-8.37-10.65-9.71-17.24-2.56-12.66,16.19-15.06,21.62-5.66,2.55,4.43-1.32,6.46-5.29,4.07-3.53-2.12-5.92-6.48-7-10.33a9.15,9.15,0,0,1,2.54-9.14C151,112.8,158.89,116,163.48,119l1.71-.7c-5.47-.69-10.42-6.07-11.64-11.25-2.29-9.68,13.12-4.13,17.35-2.78.33.1,2-.48,1.7-.71-3.08-2-5.4-4.54-5.71-8.34-.63-7.62,9.48-8.75,15.06-7.19,4.64,1.3,9.2,2.24,12.84-1.56.4-.42-1.43-.18-1.75.15-3.83,4-11.29-.32-15.79-.48a14.41,14.41,0,0,0-7.36,1.93c-7.16,4.38-5.52,11.94.89,16.15l1.7-.7c-6-1.93-14.11-5.61-19.7-.76-6.25,5.43,5.85,15.66,10.82,16.29.25,0,2.12-.43,1.7-.71-7-4.58-19.88-6.48-23.49,3.4-2.1,5.75,2.7,12.63,7.07,15.9,2.12,1.58,6.43,2.65,8.68.57,4-3.69-1.67-9.24-5.15-10.69a20.05,20.05,0,0,0-14.58.25c-12.85,5.11-1,22.58,4.43,28.7.32.36,2.12-.33,1.82-.66Z"/><path class="cls-3" d="M138.56,155.64c-2.6-4.58-9.83-13.76-16.2-11.51-2.94,1-5.09,4.18-6.74,6.63-3.1,4.61-5.52,8.73-9.93,12.28-8.77,7.08-24.29,3.65-34.3,1.68-9.16-1.8-18.12-4.46-27.22-6.5-.21-.05-2,.28-1.76.61,4.81,7.59,4.92,16.8,8,25.06.17.47,1.72-.15,1.91-.43,1.31-1.94,4.15-2.07,5.46-4l-1.92.43c1,3.44,4,5.83,5.83,8.84.23.38,1.78-.06,1.91-.44.79-2.28,1.2-.28,1.89,1.06s1.29,3,1.91,4.47a14.57,14.57,0,0,0,5,6.67,1.94,1.94,0,0,0,1.86-.5c1.12-2.29,3.43-3.39,4.55-5.7l-1.91.44c1.75,2.51,4.41,4.27,6.66,6.3.29.26,1.88-.14,1.88-.58,0-3.2,2.31-4.72,3.63-7.31l-1.92.44a5.49,5.49,0,0,0,2.26,2.14,2.06,2.06,0,0,0,1.78-.41c3-2.81,4.66-7.17,6.14-10.92,1.27-3.2,3.69-8.68,2.31-12.2-.17-.44-2.07.18-1.94.52,1.28,3.25-.78,7.86-1.86,10.94-1.4,4-3.23,8.9-6.39,11.84l1.78-.41a5.15,5.15,0,0,1-2.15-2c-.24-.41-1.73.08-1.91.44-1.34,2.62-3.68,4.29-3.66,7.47l1.87-.58c-2.2-2-4.84-3.73-6.55-6.18-.27-.39-1.74.06-1.92.43-1.11,2.3-3.43,3.4-4.55,5.71l1.86-.5C69.43,196.5,69,190.45,65.7,186c-1.47-2-3.84,2.17-4,2.64l1.92-.44c-1.84-3-4.81-5.39-5.83-8.83-.13-.47-1.73.16-1.91.43-1.31,1.94-4.15,2.07-5.46,4l1.92-.43c-3.08-8.26-3.19-17.48-8-25.06l-1.76.62c17,3.8,35.2,11,52.83,8.37,6.78-1,12.43-3.71,16.92-9,3.42-4,5.22-9.05,9.16-12.67,4.66-4.27,13.42,7.5,15.14,10.52.25.45,2.06-.28,1.93-.52Z"/><path class="cls-3" d="M45.12,155.86q1.38-4.53,2.74-9.08l-1.55.65c5,1.36,12.77,2.4,17.2-1.24,4.23-3.49,6.2-13.63,13.14-10.83a1.55,1.55,0,0,0,1.67-.45c2.73-3.18,3.36-7.07,4.56-11,1.43-4.64,6.92-.54,8.82,1.49,2.68,2.85,4,7,5.77,10.4.34.65,1.73.2,1.94-.38-.86,2.36-.81,7.52-.71,10.15s.79,4.11,3.4,4.52c.62.1,2.28-.88,1.19-1-4.85-.76-1.77-11.06-2.2-14.66,0-.17-.25-.24-.37-.27-1.68-.42-2.64-.12-3.25,1.55l1.94-.38C97.2,131,95.53,126.15,91.7,123c-1.64-1.36-5-3.26-7.36-2.51-1.91.62-2.73,1.86-3.4,3.71-1.36,3.77-1.69,7.5-4.42,10.68l1.67-.45c-3.26-1.31-6.72-1.32-9.14,1.59a55,55,0,0,0-4.11,6.41c-3.75,6.08-11.31,5.64-17.45,4-.48-.14-1.4.11-1.56.64-.91,3-1.83,6.06-2.74,9.08-.21.69,1.73.42,1.93-.24Z"/><path class="cls-3" d="M137.15,151.12c3.27-8.94-5.75-17-11.17-22.85-7.22-7.84-11.74-16.78-8.39-27.57,5.33-17.17,25-26,25.83-45.34,0-.9-1.91-.55-1.94.2-.81,19-19.92,28.55-25.83,45.34-2.84,8-.6,17,4.52,23.55,5.61,7.21,18.89,16.32,15,26.87-.27.75,1.68.52,2-.2Z"/><path class="cls-3" d="M114.12,110c.32-5.35-3.81-8.39-7.94-11-2.52-1.57-5.18-2.92-7.73-4.45s-1-3-.55-5.33a40.68,40.68,0,0,0,.32-14A9.16,9.16,0,0,0,96.61,71C95,68.77,95.34,65.52,94.35,63l-1.58.7c2.89.21,6-.18,7.75-2.87,1.48-2.35,3.27-8.87,7.06-8.11,2,.39,3.36,1.73,5.51,1.39,3.5-.56,7.48-4.6,10.42-6.46,4.13-2.62,7.07-3.41,7.86-8.75l-1.86.5c2.64,2,6,2.07,8.69,4a1.63,1.63,0,0,0,1.86-.5,23,23,0,0,1,5.26-8.18l-1.85.3c1.13,2.72,3.06,4,5.67,5.22,4.32,2,3.55,7.9,3.52,12,0,.48-.35,3.79.05,4.05a5.91,5.91,0,0,1,3,5.39c.21,4.67-2,8.84-.94,13.56,1,4.25,4,7.61.62,11.43-1.7,1.91-2.43,3.53-1.67,6.07s.87,2.39-1.44,3.58A41.67,41.67,0,0,0,148,98.91,11.54,11.54,0,0,0,143,107l1.74-.56c-3-.83-6.38-1.71-9.45-.77-3.84,1.18-6.74,3.91-10.78,4.74-.8.17-1.67,1.12-.32.84a23.43,23.43,0,0,0,5.93-2c.83-.42,1.61-.94,2.39-1.43,3.56-2.22,6.85-1.62,10.66-.57.37.11,1.66,0,1.74-.56,1-6.46,6.46-8.83,11.71-11.58.08,0,.5-.27.39-.44-1.62-2.62-2.39-4.88-.3-7.47a10.64,10.64,0,0,0,2.46-3.73c.71-2.39-1.7-6.43-2.42-8.69-1.24-3.93.36-8.34.87-12.29.21-1.69.15-4.06-1.17-5.35-2.9-2.83-1.71-7.41-1.95-11.16-.13-2-.38-4.47-2.12-5.69-2.8-2-5.46-2.15-6.94-5.73-.23-.55-1.59,0-1.85.3a23.29,23.29,0,0,0-5.41,8.41l1.87-.5c-2.64-2-6-2.06-8.69-4-.35-.26-1.79,0-1.86.5-.66,4.48-3.41,5.81-6.87,7.93-3,1.81-8,7-11.56,5.56-2-.81-4.72-1.79-6.7-.14C100.67,55.65,99.7,63.26,94,62.84c-.25,0-1.78.2-1.58.7.76,1.92.47,6.39,2,7.75,1.71,1.54,1.9,4.33,2.13,6.47.53,4.85.65,11.71-2,16a.14.14,0,0,0,0,.19c6,4.06,18.1,7.67,17.55,16.56,0,.38,1.9.12,1.94-.52Z"/><path class="cls-3" d="M115.5,100.88c13-16.26,4.67-35.78-7.84-49.51-.49-.55-2.34.17-1.78.78,12.28,13.49,20.59,32.58,7.81,48.63-.58.73,1.39.64,1.81.1Z"/><path class="cls-3" d="M124.78,84.14c6.5-8.37,5.63-18.39,2.8-28.06-.26-.9-2.19-.38-1.93.52,2.69,9.21,3.76,18.91-2.49,26.95-.76,1,1.07,1.3,1.62.59Z"/><path class="cls-3" d="M133.66,73.65A19,19,0,0,0,132.38,59c-.4-.78-2.29-.2-1.93.51a18.63,18.63,0,0,1,1.26,14.37c-.24.85,1.73.6,1.95-.18Z"/><path class="cls-3" d="M133.16,81.42c2.63-.45,5.3-1,7.94-.25.49.13,2.21-.64,1.57-.81-3-.8-6.14-.29-9.19.24-.81.14-1.67,1.05-.32.82Z"/><path class="cls-3" d="M124,89.93c-.33,8,13.41,3.73,17.46,2.52,1.15-.35.88-1.39-.28-1-3.46,1-15.52,5-15.24-1.7,0-.85-1.91-.47-1.94.22Z"/><path class="cls-3" d="M100.29,163.78C90.5,161.83,84.38,150.2,82,141.39c-.16-.61-2.09-.09-1.93.52,2.48,9.2,8.85,20.82,19,22.84.55.11,2.27-.76,1.21-1Z"/><path class="cls-3" d="M83.86,163.13A24.58,24.58,0,0,1,70.3,152c-.25-.45-2.06.29-1.93.51A24.81,24.81,0,0,0,82,163.77c.54.18,1.92-.61,1.83-.64Z"/><path class="cls-3" d="M73,161.23a22.71,22.71,0,0,1-10.38-7.37c-.32-.38-2.14.29-1.82.67A23.05,23.05,0,0,0,71.39,162c.45.14,2.18-.58,1.58-.77Z"/><path class="cls-3" d="M75.66,165.67c-2,2.89-6.13,3.29-9.16,4.47a12,12,0,0,0-6.43,5c-.55.92,1.42.91,1.84.2,3.43-5.75,11.9-4,15.59-9.44.59-.87-1.38-.88-1.84-.21Z"/><path class="cls-3" d="M81.83,173.43c-.85,2.81-1.92,5.09-4.58,6.59-1.14.65.57.94,1.2.58,3-1.69,4.34-4.21,5.31-7.41.21-.68-1.73-.41-1.93.24Z"/><path class="cls-3" d="M82.23,173.94c2.27.74,4.56,1.87,5.46,4.23.83,2.17-.57,4.38-2,5.92-.81.9,1.05,1.13,1.6.52,1.74-1.94,3-4.3,2.29-7s-3.82-4.17-6.27-5c-.78-.25-2.28.87-1.13,1.25Z"/><path class="cls-3" d="M117.53,93.28c6-3.75-9.43-13.77-12.11-15.67-.52-.36-2.25.41-1.81.72,2,1.4,16.91,11.9,12.75,14.49-1.1.69.62.8,1.17.46Z"/></svg>