<svg id="layer1" xmlns="http://www.w3.org/2000/svg" viewBox="0 0 172.12 174.62"><defs><style>.cls-1{fill:#423407;}</style></defs><path class="cls-1" d="M58.55,55.4c-.28,2.11,1,4.61,1.55,6.62a111,111,0,0,0,4,12.6c.33.82,2.25.26,1.93-.52A90.54,90.54,0,0,1,62.3,62.61c-.56-2.17-2.1-5.15-1.8-7.38.13-.94-1.84-.65-2,.17Z"/><path class="cls-1" d="M65.8,75.25c2-.79,7.63,1,9.68,1.36,5.38.9,11.55,1.15,16.67,3,.85.31,2.27-.9,1.11-1.33-5.88-2.14-12.81-2.4-19-3.43-2.76-.46-6.67-1.84-9.37-.79-1.23.48-.14,1.56.87,1.17Z"/><path class="cls-1" d="M60.25,54.92c3-1.71,5-4.34,7.68-6.48,3.3-2.68,6.93-4.95,10.35-7.47,1.06-.78-.53-1.35-1.26-.81-3.07,2.27-6.27,4.38-9.33,6.67-2.88,2.16-5.15,5.23-8.27,7-1.14.66-.1,1.59.83,1.06Z"/><path class="cls-1" d="M78.79,40.7c5.91-.06,11.26,1.11,17,2.12,3,.53,5.91,2.27,9,1.85.84-.11,1.68-1,.33-.84-2,.26-4.26-1-6.14-1.52-2.31-.59-4.77-.86-7.1-1.36a52.5,52.5,0,0,0-12.33-1.14c-.58,0-2.1.91-.8.89Z"/><path class="cls-1" d="M103.93,45.08c2.4,1.67,3,5.59,3.78,8.21,1.16,3.72,2.31,7.44,3.39,11.19.23.8,2.16.28,1.93-.52-1.22-4.24-2.53-8.45-3.84-12.66-.82-2.63-1.36-5.6-3.75-7.26-.62-.44-2.36.44-1.51,1Z"/><path class="cls-1" d="M94.59,77.91c1.33-2.89,4.53-4.85,6.94-6.79,3-2.43,6.29-5,10-6.18,1.11-.37.91-1.2-.22-.83-3.93,1.29-7.27,3.65-10.51,6.15-2.84,2.19-6.61,4.57-8.16,7.93-.23.48,1.66.28,1.92-.28Z"/><path class="cls-1" d="M92.36,80.55c1.43,0,4.77,10.82,5.27,12.17,1.55,4.14,3.5,8.55,4.25,12.93.14.84,2.08.35,1.93-.52-.92-5.36-3.4-10.77-5.34-15.82-.65-1.71-2.83-10.06-5.42-10.09-.88,0-2,1.32-.69,1.33Z"/><path class="cls-1" d="M103.6,105.79c7.81,1.69,15.27,0,23.15,0,.58,0,2.1-.88.81-.88h-.35c-.58,0-2.1.88-.81.88h.35c.58,0,2.1-.88.81-.88-7.58,0-14.86,1.66-22.39,0-.49-.1-2.2.68-1.57.81Z"/><path class="cls-1" d="M128.07,104.9c3.34-8.79,4.31-16.87,4.31-26.19,0-.26-1.93,0-1.93.52,0,9.2-1,17.34-4.28,26-.11.29,1.72.11,1.9-.36Z"/><path class="cls-1" d="M111.77,65.48c6.86,3.87,14.34,7.21,19.36,13.52.31.4,2.15-.25,1.81-.68-5-6.31-12.49-9.65-19.36-13.52-.5-.28-2.12.51-1.81.68Z"/><path class="cls-1" d="M133.77,79.26c-.25.36,0,.1.32,0l1.21-.37,3.11-.89a33.94,33.94,0,0,0,4.81-1.51c1.2-.55.13-1.63-.87-1.17a41.36,41.36,0,0,1-5.93,1.78c-1,.3-3.59.58-4.28,1.58s1.11,1.34,1.63.59Z"/><path class="cls-1" d="M105.23,44.17c3-.11,5.65-1.7,8.6-1.53.73,0,2.07-1,.76-1.08-3-.17-5.64,1.42-8.6,1.54-.7,0-2.06,1.13-.76,1.07Z"/><path class="cls-1" d="M75.15,36.83a22.73,22.73,0,0,1,1.54,4.3c.2.8,2.14.29,1.93-.52a22.73,22.73,0,0,0-1.54-4.3c-.37-.77-2.27-.18-1.93.52Z"/><path class="cls-1" d="M58.78,54.92l-.27,0c-.25,0-1.08.22-1.13.55l0,.27,1.37-.58c-2.63.14-20.43,5.78-19.2,9,.2.51,2.1-.09,1.94-.52-.89-2.27,14.31-7.49,16.44-7.61.28,0,1.31-.18,1.36-.58a2.51,2.51,0,0,0,0-.27l-1.12.55.26,0c.81-.11,1.7-1,.35-.78Z"/><path class="cls-1" d="M38.3,64.09c-3.74,7.82-6,16.88-5.54,25.58,0,.31,2,0,1.93-.52-.48-8.66,1.78-17.62,5.51-25.41.12-.26-1.67-.13-1.9.35Z"/><path class="cls-1" d="M32.76,89.56c-.24,1.41,5,2.66,5.83,3,1.86.65,3.73,1.25,5.59,1.9,1,.36,2.59.69,3.38,1.5.41.41,2.22-.29,1.81-.7-1.48-1.51-15-4.37-14.69-5.95.11-.6-1.82-.25-1.92.3Z"/><path class="cls-1" d="M64.57,74.31c-3.26.78-5.3,5.15-7.07,7.72-3,4.43-6.61,8.68-8.17,13.91-.27.91,1.71.69,2-.15,1.35-4.56,4.42-8.41,7.14-12.23,1.46-2,3.92-7.31,6.5-7.93,1.2-.28.84-1.6-.36-1.32Z"/><path class="cls-1" d="M48.73,96.12A69.45,69.45,0,0,0,52.09,109c1.59,4.64,4,8.89,5.55,13.51.23.71,2.16.16,1.93-.51-1.33-4-3.52-7.65-4.9-11.68a79.37,79.37,0,0,1-4-14.74c-.09-.69-2-.24-1.93.51Z"/><path class="cls-1" d="M58.36,122.63c4.1,1.11,8,2.39,12.2,3.32a69.1,69.1,0,0,0,7.58.81c2,.22,4.66-.32,6.45.69.74.42,2.43-.58,1.49-1.11-2.37-1.33-5.48-.78-8.09-1.07a118,118,0,0,1-18.52-3.94c-.83-.23-2.29,1-1.11,1.3Z"/><path class="cls-1" d="M86.91,126.13c1.46-2.64,4.66-4.91,6.59-7.24a119,119,0,0,0,9.69-14c.2-.33-1.6-.2-1.92.3a128,128,0,0,1-10.55,15c-1.74,2.09-4.4,3.86-5.73,6.24-.2.36,1.63.22,1.92-.3Z"/><path class="cls-1" d="M84.37,127.32c-.29,2.06,1.7,5.55,2.41,7.44a42.65,42.65,0,0,0,6.87,12.17c.42.52,2.28-.16,1.8-.75a42.33,42.33,0,0,1-6.27-10.76c-.78-1.86-3.17-6.24-2.88-8.34.11-.76-1.84-.41-1.93.24Z"/><path class="cls-1" d="M126.24,106.63c2.41,1.05,3.35,6.07,4.12,8.27,1.27,3.64,2.38,7.33,3.47,11,.25.85,2.18.33,1.93-.51-1.36-4.61-2.79-9.19-4.42-13.72-.81-2.28-1.56-5.26-4-6.31-.76-.34-2.24.76-1.13,1.25Z"/><path class="cls-1" d="M135.54,126.86c3.42-2,7.41-3.21,10.35-6,1-.89-.57-1.58-1.29-.9-2.81,2.64-6.64,3.8-9.93,5.71-1.13.66-.1,1.72.87,1.16Z"/><path class="cls-1" d="M151.43,90.52c0-5.52-4.32-9.63-6.14-14.58-.26-.7-2.18-.13-1.94.52,1.78,4.81,6.19,8.94,6.15,14.3,0,.83,1.93.43,1.93-.24Z"/><path class="cls-1" d="M144.69,75.82a24.68,24.68,0,0,0-1.91-9.53c-.67-1.71-1.55-4.73-3.43-5.49-.83-.34-2.26.85-1.11,1.31,1.63.66,2.51,4.43,3.07,5.91a21.37,21.37,0,0,1,1.42,8c0,1,2,.74,2-.15Z"/><path class="cls-1" d="M94.84,147.61a52,52,0,0,0,23.86-1c1.2-.34.83-1.75-.37-1.42a49.69,49.69,0,0,1-22.84.89c-1-.19-1.94,1.24-.65,1.49Z"/><path class="cls-1" d="M133.91,126.6a15.82,15.82,0,0,0-2.62,4.24,39.28,39.28,0,0,1-4.53,6.9,33.2,33.2,0,0,1-5.45,5.41c-1.07.84-2.6,1.67-3.38,2.81-.45.67,1.47.43,1.78,0,.83-1.22,2.59-2.15,3.74-3.05a41.71,41.71,0,0,0,8.62-10.14c1.13-2,1.94-4.52,3.62-6.17.51-.51-1.39-.35-1.78,0Z"/><path class="cls-1" d="M117.64,146c-.49.65.15,1.56.48,2.15a15.77,15.77,0,0,1,1.58,3c.14.49,2.07,0,1.93-.52a11,11,0,0,0-1.25-2.4c-.2-.33-1.3-1.89-1-2.31s-1.47-.29-1.76.1Z"/><path class="cls-1" d="M74.48,154.35c6.75-.3,14.53-3.55,20.2-7.13.83-.52-1.12-.33-1.49-.1-4.88,3.09-12,6.14-17.89,6.39-.54,0-2.11.89-.82.84Z"/><path class="cls-1" d="M57,122.68c0,2.71-2.15,6-3.23,8.51-1.14,2.66-2.37,5.44-2.3,8.39,0,1,2,.64,1.95-.17-.08-3.18,1.35-6.1,2.59-9,1.06-2.46,3-5.21,2.94-7.94,0-1-2-.64-1.95.17Z"/><path class="cls-1" d="M51.86,140.13C59,145.19,65.29,151.33,73.79,154c.45.14,2.17-.57,1.58-.76-8.41-2.64-14.65-8.77-21.69-13.77-.45-.32-2.12.45-1.82.66Z"/><path class="cls-1" d="M73.35,153.8a3.41,3.41,0,0,0,.24,2.13c.29,1,.69,1.89,1,2.87s2.18.41,1.93-.52c-.2-.75-.48-1.47-.73-2.2-.16-.46-.7-1.56-.54-2,.38-1.07-1.56-1.09-1.85-.25Z"/><path class="cls-1" d="M52.18,139.07c-5.12-.17-11.72-2.86-14.81-7.08-.54-.73-2.38,0-1.77.87,3.34,4.54,10.39,7.48,15.92,7.66,1,0,2-1.4.66-1.45Z"/><path class="cls-1" d="M31.9,90.3a29.12,29.12,0,0,0-5.29,16.43c0,.83,1.92.43,1.93-.23A28.61,28.61,0,0,1,33.7,90.36c.52-.74-1.43-.59-1.8-.06Z"/><path class="cls-1" d="M39.84,63.24c-.14-.14-.39-.25-.48-.43a3.19,3.19,0,0,1-.07-1.31c0-.53-1.93-.18-1.93.52a4.42,4.42,0,0,0,.06,1.31c.1.29.41.44.62.64.47.43,2.28-.3,1.8-.73Z"/><path class="cls-1" d="M75.33,35.92C63.47,38,54.92,43.19,46.45,51.63A83,83,0,0,0,25.84,84.41c-7.61,23.52,6.73,49.51,24.85,63.91,18.75,14.91,45.25,16.25,66.52,6.29,23.17-10.86,35.71-35.85,35-60.9-1.07-36.63-40.71-67.29-76.26-57.79-1.19.32-.84,1.62.35,1.3,30.57-8.16,62.58,14.25,71.71,43.25,4.51,14.33,1.93,30-3.58,43.62s-16.23,23.85-29.52,30.08c-13.63,6.38-28.69,6.84-43.08,3-12.78-3.4-23.56-11.71-31.64-22C31.32,123.85,25.74,110.29,26,95.8S34.6,67.48,43.83,56.74c8.79-10.23,18.43-17.15,31.85-19.52,1.22-.21.84-1.51-.35-1.3Z"/><path class="cls-1" d="M96.06,75.44c-.88,3.24-.7,6.66-1.85,9.84-.14.39,1.73.17,1.91-.33,1.15-3.18,1-6.6,1.84-9.84.12-.43-1.77-.16-1.9.33Z"/><path class="cls-1" d="M99.13,72.69c-1.87,5-2.14,10.44-2.47,15.75,0,.25,1.89,0,1.93-.52.33-5.25.59-10.6,2.44-15.58.12-.32-1.72-.13-1.9.35Z"/><path class="cls-1" d="M102.8,69.88c-1.28,3.43-1.17,7-1.76,10.57A86.52,86.52,0,0,0,99.42,92c0,.79,1.6.27,1.86-.12l.62-.92c.48-.72-1.46-.52-1.79,0-.21.31-.41.62-.62.92l1.86-.12A76.44,76.44,0,0,1,103,80.19c.65-3.57.47-7.12,1.76-10.57.23-.6-1.7-.36-1.93.26Z"/><path class="cls-1" d="M106.26,68.55c-1.87,2.88-1.66,6.74-1.8,10-.23,5.59-.52,11.69-2,17.1-.15.57,1.77.27,1.92-.29,1.21-4.57,1.25-9.36,1.69-14,.38-4.08-.38-9.33,1.92-12.87.43-.65-1.48-.39-1.77.06Z"/><path class="cls-1" d="M109.26,68.07c-1.91,6.35-1.54,13.59-1.93,20.14-.32,5.42,1.29,12.94-.83,18-.16.37,1.69.18,1.91-.33,1.72-4.06.57-9.1.58-13.37,0-7.75-.06-17.28,2.18-24.73.14-.43-1.75-.18-1.91.33Z"/><path class="cls-1" d="M112.32,67.09c-.06,6.61-.62,13.19-.86,19.79s.69,13.3-.68,19.84c-.16.81,1.79.51,1.94-.21,1.25-6,.58-12,.64-18.06.06-7.2.84-14.37.9-21.57,0-.88-1.93-.49-1.94.21Z"/><path class="cls-1" d="M116,69.4c.17,11.91-2,23.71-1.53,35.63,0,.74,1.76.12,1.93-.37,3.4-10.08,4.25-20.76,4.3-31.34,0-.83-1.88-.44-1.93.23-.92,10.94-1.51,21.89-1.54,32.87,0,.84,1.91.45,1.93-.22.36-10.76,5.21-21,4.92-31.79,0-.24-.44-.31-.6-.31-3.17,0-3.08,5.27-3.24,7.43-.59,8.16-.83,16.4-.86,24.59,0,.84,1.92.44,1.94-.23.22-10.19,3.81-19.78,5.22-29.8.11-.83-1.77-.41-1.94.23-1.27,4.77-1.23,9.66-1.74,14.54a107.11,107.11,0,0,0-.71,15.4c0,.74,1.77.13,1.93-.37,2.86-8.82,3.61-18.76,4.61-28l-1.93.37c.18,7.16-.86,14.24-1.24,21.37,0,.82,1.9.44,1.94-.23a119.48,119.48,0,0,1,2.77-20.28l-1.94.23c-.11,6.8-1.18,13.51-1.84,20.28-.08.81,1.86.45,1.93-.23.67-6.76,1.74-13.47,1.85-20.28,0-.85-1.79-.42-1.94.23a121.53,121.53,0,0,0-2.77,20.28l1.94-.23c.39-7.23,1.42-14.4,1.23-21.65,0-.65-1.87-.24-1.94.37-1,9.19-1.74,19.14-4.6,28l1.93-.38A120.21,120.21,0,0,1,125,88.68c.45-4.26.43-8.42,1.54-12.59l-1.94.23c-1.41,10-5,19.61-5.22,29.8l1.94-.23c0-9.3-.24-19.18,1.3-28.38.54-3.26-.84,3.63-.94,4.3-.4,2.8-1.15,5.55-1.66,8.33-1,5.45-2.61,10.71-2.79,16.28l1.93-.22c0-11,.62-21.94,1.54-32.88l-1.93.23c-.06,10.58-.91,21.26-4.31,31.34l1.94-.38c-.46-11.92,1.7-23.72,1.53-35.63,0-.65-1.94-.26-1.93.52Z"/><path class="cls-1" d="M120.94,146.11a7.81,7.81,0,0,0,0,3.47c0,.39,1.86-.06,1.93-.52a33.5,33.5,0,0,1,.91-4.52l-1.92.43v5.22c0,.36,1.79-.06,1.92-.43.82-2.35,1.56-4.73,2.45-7.06l-1.91.43V149c0,.32,1.87,0,1.93-.52a47.54,47.54,0,0,1,1.83-8.52l-1.92.43V148c0,.31,1.9,0,1.93-.51.24-4,1.74-7.65,3.37-11.28l-1.91.34a50.66,50.66,0,0,0-.93,8.69c0,.38,1.76-.11,1.92-.43,2.13-4.23,2.48-8.93,3.38-13.52l-1.92.43c-.34,4.2-.84,8.38-.92,12.6,0,.34,1.79-.05,1.92-.43,1.69-5,2.25-10.23,3.37-15.36.11-.48-1.7,0-1.9.34-1.94,3.41-1,7.72-.94,11.45,0,.36,1.82,0,1.92-.43,1.34-4.84,1.68-9.84,2.77-14.74.09-.42-1.78-.12-1.91.34-1.07,3.88-.42,7.8-.32,11.76,0,.38,1.78-.08,1.92-.43,1.52-3.88,1.85-8,2.47-12.07l-1.93.52c-.05,2.88-.2,5.73,0,8.6,0,.38,1.8-.06,1.92-.43a63.93,63.93,0,0,0,2.47-9.61l-1.93.52a25.75,25.75,0,0,0,.3,6.14c.09.42,1.81-.08,1.92-.43a29.44,29.44,0,0,0,1.55-6.23l-1.59.65-.33,2.55c-.08.43,1.82.12,1.91-.35a9.49,9.49,0,0,0,.32-2.85c0-.12-.29-.13-.34-.13h-.31c-.37,0-1.54.14-1.59.65a28.23,28.23,0,0,1-1.52,6l1.92-.43a25.73,25.73,0,0,1-.31-6.14c0-.31-1.86,0-1.93.52a61.77,61.77,0,0,1-2.45,9.44l1.92-.43c-.2-2.88-.05-5.73,0-8.61,0-.32-1.85,0-1.93.52-.61,4-.95,8.08-2.44,11.89l1.91-.43c-.1-3.9-.76-7.75.3-11.58l-1.91.34c-1.08,4.89-1.42,9.91-2.76,14.75l1.92-.43c-.09-3.67-1-7.95.9-11.28l-1.9.34c-1.12,5.14-1.68,10.36-3.38,15.36l1.92-.43c.08-4.22.58-8.4.92-12.6,0-.28-1.83,0-1.92.43-.89,4.59-1.25,9.29-3.38,13.52l1.92-.43a48.69,48.69,0,0,1,.91-8.51c.09-.46-1.73-.06-1.91.34-1.66,3.7-3.15,7.37-3.39,11.45l1.93-.51v-7.68c0-.35-1.8.05-1.92.43a49.41,49.41,0,0,0-1.85,8.69l1.93-.52v-5.84c0-.37-1.78.07-1.92.43-.9,2.33-1.63,4.71-2.46,7.07l1.92-.43v-5.23c0-.34-1.81.05-1.92.44a37,37,0,0,0-.93,4.69l1.93-.52a9.82,9.82,0,0,1,0-3.29c.11-.37-1.76-.14-1.91.34Z"/><path class="cls-1" d="M59.78,125.75a127.71,127.71,0,0,0,.62,15.53c.1.78,1.94.37,1.94-.34,0-5.27,1.4-12.4-.62-17.38-.29-.72-1.59-.38-1.88.18-1.37,2.63-.64,5.71-.7,8.57-.06,3.59-.34,7,.65,10.51.22.78,1.87.36,1.94-.35.45-5,1.84-11.5-1-16-.33-.53-1.61-.2-1.8.33-1.61,4.57-.48,9.59-.37,14.31,0,.95,2,.61,2-.18,0-3.44.07-7.06-1.62-10.15-.37-.69-1.7-.06-1.86.49-1,3.34-.44,6.41-.31,9.84l1.95-.18a28.22,28.22,0,0,0-.93-6.32c-.23-.85-1.76-.28-1.94.35a10.6,10.6,0,0,0,0,6c.21.76,1.91.37,1.94-.35,0-1.74.14-3.08-.7-4.62-.35-.63-1.54-.1-1.81.33a3.93,3.93,0,0,0-.36,4c.3.73,1.59.39,1.89-.17a6.51,6.51,0,0,0,.67-3.86l-1.86.5c1.2,1.93,1.54,4.13,3.07,5.84a1.25,1.25,0,0,0,1.68-.17c2.76-3.07,4.44-12.32,1.63-15.71-.48-.58-1.67-.14-1.86.5-1.43,4.73-1.83,16.19,2.68,19.49a1.27,1.27,0,0,0,1.73-.62c1.35-4.26.82-8.74,1.16-13.14.18-2.44.58-5.84-1.25-7.77a1.26,1.26,0,0,0-1.8.33c-1.4,2.77-.89,5.88-.5,8.84.55,4.1,1,8.37,2.9,12.09.37.72,1.78.4,1.94-.35.77-3.47.52-7.09.3-10.62s.25-7.27-.92-10.75c-.26-.77-1.85-.37-1.94.35-1.13,8.48.52,17.07,3.39,25,.29.81,1.76.33,1.94-.34,1-4,.41-7.92.31-12-.1-3.76.49-7.26-.63-10.93-.22-.71-1.67-.4-1.88.18-1.15,3.14-.58,6.54-.17,9.78.68,5.4,1.53,10.77,3.81,15.75.36.8,1.72.34,1.94-.35,1.18-3.63.51-7.78.3-11.53-.3-5.21-.85-10.18-1.58-15.33,0-.27-.4-.36-.62-.39l-.26,0a1.33,1.33,0,0,0-1.27.57c-1.51,3.14-.19,7,.43,10.26,1,5.06,1.56,10.27,3.82,15,.33.68,1.89.44,1.94-.35.45-7.25.38-15.87-1.54-22.9-.23-.84-1.78-.3-1.94.34-.83,3.37-.12,7,.7,10.34,1.09,4.39,1.67,8.85,3,13.18.24.77,1.87.37,1.94-.34.79-7.89-.55-15.68-1.23-23.52-.08-.89-1.76-.21-1.94.34-1,3.14.13,6.24.62,9.39.76,4.85,1.12,9.78,2.76,14.44.29.82,1.76.31,1.94-.35,1.23-4.37.21-8.84.34-13.3.1-3.44.71-6.93-1-10.06-.33-.6-1.81-.14-1.86.5-.57,8.06-.2,16.64,3.08,24.13.29.66,1.65.46,1.88-.17,2.5-6.85-.41-16.18-.55-23.22,0-.95-1.85-.61-2,.18a40.8,40.8,0,0,0,.5,11.72c.61,3.63.64,7.22,2.66,10.42.36.57,1.81.15,1.86-.5a103.94,103.94,0,0,0-.93-21.37c-.11-.84-1.81-.29-1.94.35-.66,3.21.14,6.18.62,9.38.54,3.62.62,7.38,2.15,10.75.36.8,1.72.34,1.94-.34,1.63-5-.67-10-.92-15.06,0-.94-1.93-.62-2,.18a29,29,0,0,0,2.78,12.15c.29.69,1.94.43,1.94-.35V140c0-1-1.93-.62-2,.17a21.16,21.16,0,0,0,.31,5.4c.18.82,2.12.32,1.93-.52a18.24,18.24,0,0,1-.29-5l-2,.17V147l1.94-.35A28.13,28.13,0,0,1,86,134.79l-2,.18c.25,5,2.53,10.1.92,15.05l1.94-.34a26.26,26.26,0,0,1-1.77-8c-.45-3.88-1.78-7.87-1-11.76l-1.94.35a102.65,102.65,0,0,1,.91,21l1.86-.5c-3.32-5.27-3.71-15.63-3-21.49l-2,.18c.09,4.22.83,8.39,1,12.6.08,3.35.91,7-.28,10.27l1.88-.17c-3.24-7.42-3.63-15.83-3.06-23.8l-1.86.5c2,3.49.77,7.9.86,11.71s.69,7.36-.33,11l1.94-.35a54.06,54.06,0,0,1-2.26-11.29c-.5-3.85-2.34-8.4-1.12-12.19l-1.94.34c.68,7.73,2,15.42,1.22,23.18l1.94-.34c-1.16-3.8-1.84-7.68-2.63-11.56s-2-7.76-1-11.62l-1.94.34c1.82,6.65,1.94,15.73,1.52,22.57l1.94-.35c-1.73-3.61-2.44-7.48-3.15-11.39s-1.86-7.73-1.69-11.62q-1.83-2.34-.72.52c.22,1.09.39,2.19.51,3.29.38,2.83.41,5.69.57,8.54.24,4.18,1.1,8.8-.22,12.85l1.94-.34a46,46,0,0,1-3.27-11.86c-.66-4-1.89-9.11-.47-13l-1.88.18c1.19,3.92.54,8,.64,12,.1,3.6.57,7-.34,10.55l1.94-.34c-2.84-7.89-4.49-16.34-3.37-24.72l-1.94.35c1,3.12.64,6.3.84,9.52.24,3.81.6,7.76-.24,11.51l1.94-.35c-2.37-4.65-5-15.35-2.5-20.24l-1.81.32c2.1,2.21,1.14,6.43.92,9.18-.3,3.8.17,7.38-1,11.09l1.72-.62c-4.17-3.05-3.55-14.25-2.23-18.61l-1.86.5c2.36,2.86.89,11.8-1.45,14.4l1.69-.16c-1.5-1.67-1.9-4-3.08-5.84-.33-.55-1.88-.18-1.86.5a6,6,0,0,1-.55,3.51l1.88-.17a2.93,2.93,0,0,1,.25-3.35l-1.8.33a9.2,9.2,0,0,1,.53,4l1.94-.35a10,10,0,0,1,0-5.67l-1.94.35a25.44,25.44,0,0,1,.91,6c0,.95,2,.6,1.95-.18-.13-3.34-.63-6.58.31-9.83l-1.87.5c1.58,2.87,1.44,6.33,1.45,9.51l2-.18c-.11-4.57-1.31-9.54.25-14l-1.8.32c2.68,4.24,1.26,10.64.83,15.35l1.94-.35c-.95-3.34-.75-6.73-.63-10.17.1-2.71-.73-5.71.58-8.23l-1.88.18c1.92,4.75.61,12,.61,17l1.94-.35a122.34,122.34,0,0,1-.61-15.19c0-1-1.95-.62-1.95.17Z"/><path class="cls-1" d="M104,73.73c-2,1.07-1.06,9.11-1.06,10.88,0,4.66-.86,12.58,1.76,16.73.23.37,1.82,0,1.91-.43,2-9.28,2.27-19.79,1.86-29.27,0-.44-1.75.2-1.92.44-2.42,3.34-1.88,8.26-1.71,12.15.3,6.74-.42,13.45-.14,20.19,0,.44,1.74-.19,1.91-.44,2.61-3.65,2.88-8.53,3.27-12.86.65-7.06.89-14.27,2.26-21.24.08-.41-1.77-.09-1.9.35-1.48,4.88-1.24,9.94-1.24,15v19.2c0,.32,1.81,0,1.91-.44a76.73,76.73,0,0,0,1.86-13.6c.45-5.85,1.39-11.65,1.84-17.51l-1.93.52c0,8.2-.56,16.38-.61,24.58,0,.3,1.84,0,1.92-.44.79-4.39.78-8.86,1.84-13.21.09-.38-1.79-.11-1.9.35-1.06,4.35-1,8.82-1.85,13.21l1.92-.43c0-8.2.57-16.38.61-24.58,0-.29-1.89,0-1.93.52-.36,4.73-1.15,9.41-1.53,14.13-.46,5.62-.71,11.34-2.14,16.81l1.92-.43V86.62c0-5.58-.43-11.34,1.21-16.74l-1.9.35c-1.24,6.27-1.45,12.69-2.08,19-.5,5-.4,10.8-3.45,15.07l1.92-.43c-.25-6,.5-12,.25-18-.18-4.45-1.2-10.32,1.57-14.15l-1.91.43c.4,9.4.2,19.9-1.83,29.1l1.92-.43c-2.2-3.49-1.6-9.76-1.71-13.68-.05-1.62-1.05-12.54.56-13.39.81-.43-1.14-.21-1.48,0Z"/><path class="cls-1" d="M39.56,64.13c-1.15,2.53-.75,5.15-.67,7.86.15,4.8.27,9.63.31,14.44,0,1,1.95.63,1.95-.17,0-4.45-.11-8.91.05-13.35.1-3,.62-5.71-.06-8.64-.18-.78-1.65-.36-1.89.17C36,71.53,36.8,81.58,36.74,89.19L38.69,89c0-5.43,0-10.86-.31-16.28-.05-1-1.72-.56-2,.17-1.73,5.6-.72,11.46-.61,17.2l2-.17c-.06-2.77-.26-5.53-.31-8.29,0-1-1.76-.59-2,.17-.46,1.83-.46,9,3.14,7.33,2-.92,2.48-4.18,3-6.05,1.1-4.33.87-9,1.08-13.43,0-1-1.77-.59-2,.17-1,4.1-.24,8.44-.44,12.63-.16,3.07-.17,6.19,1.45,8.89.35.58,1.59.18,1.81-.32,1.57-3.66,1.86-7.5,2-11.44.24-5.68.78-11.3.79-17,0-.94-1.37-.54-1.78-.17-2.53,2.29-1.77,6.49-1.71,9.56a119.32,119.32,0,0,0,2.47,19.83c.15.77,1.68.38,1.88-.17,2.41-6.54.6-13.35.72-20.1,0-2.68.8-9.57-2.46-10.76-7.09-2.59-3,28.09-2.6,30.11.17.82,1.62.3,1.89-.17,2.08-3.72,1.47-8.22,1.3-12.32-.19-4.83.63-9.53-1.26-14.14-.29-.72-1.6-.43-1.88.17-1.82,4-.86,8.53,0,12.64C44,82.45,43,88,46,92.9c.38.59,1.55.16,1.81-.33C50.68,87.31,49.4,80.73,49.41,75c0-4.22,2.39-9.54-.36-13.35-.43-.59-1.5-.15-1.81.33-2.14,3.28-1,7.81-.46,11.41.91,6.43.09,12.71,1.95,19,.23.79,1.86.37,1.94-.35.91-7.56.59-15.15.64-22.74,0-1.37.61-7.48-1.6-7.69-6-.58-1.09,26.88-.37,29.55.2.74,1.67.4,1.89-.17,1.89-5,1.26-11.47,1.28-16.78,0-4.92,1.28-10.09,0-14.91-.23-.88-1.75-.28-1.94.35-1.41,4.65-.61,9.87-.63,14.68,0,4.31.06,8.75,1.56,12.83.31.83,1.76.34,1.95-.34,1.24-4.66,1.06-9.39,1.16-14.17.1-5.07.87-10.12.36-15.19-.08-.79-1.68-.34-1.88.17C51.19,62.52,52.21,68,52,73.07s-.84,10.86,1.35,15.68c.34.75,1.53.38,1.88-.17,2.08-3.29,1.5-8.77,1.57-12.52.13-6.22,0-12.46,0-18.68,0-1-1.55-.53-1.9,0-2.32,3.49-1.24,7.84-1.3,11.78-.08,4.52-.76,9.23,1.25,13.46.31.64,1.65.49,1.89-.18,2.75-7.67,1.1-15.89,1-23.83,0-1-1.83-.62-2,.18-.92,5.8-1.34,14.69,1.24,20.14.36.78,1.73.38,1.94-.35,1.44-5.2,1-10.55.29-15.84-.1-.79-1.93-.38-1.94.35-.06,4.32-.48,8.61.93,12.77.24.71,1.67.44,1.89-.17.94-2.68.89-5.43,1.59-8.16l-1.94.34c.26,2.6.29,5.2.3,7.81,0,1,1.95.64,1.95-.17,0-2.73,0-5.44-.32-8.16-.09-.87-1.78-.27-1.94.35-.67,2.6-.58,5.25-1.48,7.81l1.89-.17c-1.38-4-1-8.23-.92-12.42l-1.94.34c.66,5.19,1.1,10.4-.31,15.49L59,78.4c-2.48-5.24-2.12-14.15-1.22-19.8l-2,.18c.11,7.78,1.83,16-.87,23.48l1.89-.17C54.86,78,55.4,73.37,55.57,69c.14-3.82-1.07-8,1.19-11.43H54.87c0,5.68,0,11.36,0,17,0,3.92.72,10.35-1.47,13.81l1.88-.17c-2-4.36-1.59-9.34-1.39-14,.23-5.27-.91-11.4,1-16.37L53,58c.49,4.91-.16,9.92-.38,14.84s.09,9.47-1.16,14.17l1.94-.34c-1.64-4.46-1.56-9.27-1.54-14,0-4.39-.67-9,.62-13.21l-1.94.34c1.25,4.68,0,9.78,0,14.56,0,5.09.66,11.59-1.17,16.43l1.89-.17c-1.73-6.38-1.86-12.92-2.14-19.49-.06-1.35-.18-2.69-.23-4A18.17,18.17,0,0,1,49,65.07c0-.31-.42-2.91,0-1.36.7,2.48.37,5.41.34,8-.08,6.89.21,13.72-.61,20.58l1.94-.34C48.94,86.06,49.09,80,48.83,74c-.17-3.84-2-8.3.25-11.81l-1.81.32c2.62,3.63.19,9.69.18,13.83,0,5.25,1.17,11.25-1.44,16.09l1.81-.33c-2.43-3.83-2.42-8.62-2.75-13-.35-4.75-2.41-9.85-.29-14.45l-1.89.18c1.81,4.44,1.15,9.12,1.24,13.79.07,4,.84,8.35-1.19,12l1.88-.17a103.75,103.75,0,0,1-1.55-18.12c-.05-1.93,0-3.85.11-5.77.11-1.57,1-6.2,2.07-2.6.88,3,.58,6.5.51,9.62-.14,6.09,1.63,12-.56,18l1.88-.17c-.89-4.72-1.73-9.42-2.21-14.2C44.76,74,43.4,65.46,46.19,62.94l-1.77-.17c0,4.78-.43,9.45-.69,14.2s-.11,9.46-2,13.89l1.81-.32c-1.91-3.17-1.33-7.13-1.17-10.65s-.49-6.8.33-10.22l-2,.17c-.19,4-.23,8-.79,11.94-.12.82-1.75,6.36-2.26,5.11a8.76,8.76,0,0,1-.22-5.24l-2,.17c.05,2.77.25,5.53.31,8.29,0,1,2,.64,2-.17-.11-5.76-1.12-11.6.61-17.2l-2,.17c.27,5.42.31,10.85.31,16.28,0,1,1.94.64,1.95-.17.06-7.43-.74-17.49,2.4-24.41l-1.88.18c.74,3.19.1,6.42,0,9.65-.14,4,0,8,0,12l1.95-.17c0-3.65-.16-7.29-.26-10.94-.09-3.37-.93-7.85.51-11,.44-1-1.51-.9-1.84-.18Z"/><path class="cls-1" d="M76.69,38.06a5.64,5.64,0,0,0,.61,2.15c.18.44,1.74-.15,1.92-.44.92-1.48.64-.78.94-2.54l-1.94.52a3.33,3.33,0,0,0,.62,2.46c.2.41,1.76-.1,1.92-.44.49-1.11.8-2.24,1.22-3.38l-1.91.44c.07,4.12,3.75,2.44,4.37-.44l-1.92.44a6.33,6.33,0,0,0,.62,3.69c.22.42,1.73-.12,1.92-.44A8.21,8.21,0,0,0,86.3,36l-1.93.52a11.21,11.21,0,0,0,.31,4c.12.42,1.76-.14,1.91-.44a8.36,8.36,0,0,0,.94-3.46l-1.93.52a31.35,31.35,0,0,0,.61,4.3c.1.47,1.73-.21,1.92-.44a6.36,6.36,0,0,0,1.24-4.07l-1.93.51a14.77,14.77,0,0,0,.31,3.69c0,.37,1.8-.1,1.91-.44a26.71,26.71,0,0,0,.94-4.07l-1.93.52c0,1.79-.08,3.07.92,4.61.25.38,1.75-.08,1.92-.44a11.26,11.26,0,0,0,.94-5l-1.94.52a12.39,12.39,0,0,0,.92,5.22c.19.43,1.75-.12,1.92-.44a10.79,10.79,0,0,0,1.25-5l-1.94.52c0,1.63-.23,4.11,1.87,4.1.4,0,1.38-.12,1.59-.55A10.77,10.77,0,0,0,96.74,36c0-.26-1.92,0-1.93.52a14.94,14.94,0,0,0,.62,5.84c.18.48,1.7-.2,1.91-.44,1.41-1.62,1.61-3.51,2.16-5.53l-1.92.44A32.28,32.28,0,0,0,97,43.9c0,.38,1.76-.15,1.91-.44a48.08,48.08,0,0,0,2.46-6.15l-1.92.44c-.19,1.87-.57,3.39,0,5.22.14.44,1.63-.16,1.84-.34,1.51-1.39,1.85-3,2.23-5l-1.92.44v3.69c0,.37,1.68-.17,1.84-.35,1.29-1.44.91-.78,1.62-2.55l-1.92.44a11.31,11.31,0,0,0,.31,3.38c.07.42,1.76-.16,1.91-.44a18.93,18.93,0,0,0,1.54-3.69L105,39c-.08,1.44-.23,2.86-.3,4.3,0,.29,1.78-.07,1.91-.44a6.23,6.23,0,0,1,1.23-2.45l-1.92.43v1.23c0,.43,1.75-.24,1.92-.44l1.46-1.44-1.84.35c.21.3.41.61.62.92s2-.33,1.93-.52l-.62-.92c-.28-.42-1.56.11-1.83.34A9.62,9.62,0,0,0,105.89,42l1.92-.44V40.3c0-.38-1.75.18-1.92.44a6.34,6.34,0,0,0-1.23,2.46l1.92-.44c.08-1.43.22-2.86.3-4.3,0-.27-1.79,0-1.91.44a18.59,18.59,0,0,1-1.54,3.68l1.92-.43a11.65,11.65,0,0,1-.31-3.38c0-.34-1.78.1-1.92.44l-1.45,2.36,1.83-.34V37.54c0-.29-1.83,0-1.91.44-.36,1.84-.59,3.47-2.07,4.82l1.83-.34c-.57-1.84-.19-3.36,0-5.23,0-.26-1.77.05-1.91.44A47.94,47.94,0,0,1,97,43.81l1.92-.43a32.28,32.28,0,0,1,.61-7.07c0-.2-1.8,0-1.92.44-.54,2-.74,3.9-2.15,5.53l1.92-.44A14.94,14.94,0,0,1,96.74,36l-1.93.52a10.38,10.38,0,0,1-.6,4.53l1.59-.55c-1.41,0-1.2-3.1-1.2-3.88,0-.28-1.91,0-1.94.52A10.83,10.83,0,0,1,91.45,42l1.92-.44a12.21,12.21,0,0,1-.92-5.22c0-.27-1.93,0-1.94.52a11.35,11.35,0,0,1-.9,4.83l1.91-.43c-1-1.54-1-2.82-.92-4.61,0-.28-1.84,0-1.93.52a27.71,27.71,0,0,1-.91,3.91l1.92-.44a14.66,14.66,0,0,1-.31-3.68c0-.29-1.9,0-1.93.51a6.4,6.4,0,0,1-1.21,3.92l1.91-.44a31.13,31.13,0,0,1-.61-4.3c0-.31-1.89,0-1.93.52a5.82,5.82,0,0,1-.91,3.29L86.61,40a11.19,11.19,0,0,1-.31-4c0-.24-1.89,0-1.93.52a6,6,0,0,1-1.22,3.91L85.07,40a6.24,6.24,0,0,1-.61-3.69c0-.27-1.83,0-1.92.44C82,39,82,37.2,82,36.31c0-.33-1.79.09-1.92.44-.42,1.13-.73,2.27-1.23,3.38l1.92-.44a3.31,3.31,0,0,1-.61-2.46c0-.33-1.86.06-1.94.52l-.9,2.38,1.91-.44a5.77,5.77,0,0,1-.61-2.15c-.07-.36-2,.08-1.93.52Z"/><path class="cls-1" d="M144,74a13.49,13.49,0,0,0,3.14,3.8c.37.36,2,0,1.86-.63a9.11,9.11,0,0,0-1.91-3.8c-.38-.43-1.94,0-1.86.63.42,3.37,2.38,6.23,3.07,9.53.14.65,2,.14,1.93-.52a11.53,11.53,0,0,0-2.83-7.18c-.41-.45-2.23.11-1.8.74l.62.93c.34.51,2.21-.11,1.79-.75l-.61-.92-1.8.74a11.16,11.16,0,0,1,2.7,7L150.2,83c-.69-3.29-2.65-6.16-3.07-9.52l-1.86.63A8.63,8.63,0,0,1,147,77.69l1.87-.63a12.56,12.56,0,0,1-3-3.57c-.3-.65-2.19,0-1.93.51Z"/><path class="cls-1" d="M27.22,113.94c.82,2.7,2.32,5.09,3.38,7.68a55.46,55.46,0,0,0,5.23,9.83c.29.44,2.09-.22,1.93-.51C35.87,127.5,34,124,32,120.66c-1-1.61-.94-4.29-2.86-5.15-.52-.24-2,.56-1.82.65,1.86.84,2,3.85,3,5.46,1.93,3.21,3.72,6.55,5.53,9.83l1.93-.51a62,62,0,0,1-4.71-8.71,70.4,70.4,0,0,1-3.89-8.81c-.14-.44-2.06.11-1.94.52Z"/></svg>