<svg id="Layer_1" data-name="Layer 1" xmlns="http://www.w3.org/2000/svg" viewBox="0 0 229.26 118.04"><defs><style>.cls-1{fill:#d1bca9;}.cls-2{opacity:0.16;}.cls-3{fill:#542c20;}.cls-4{fill:#70d8ff;}.cls-5{opacity:0.4;}.cls-6{fill:#fffefa;}.cls-7{opacity:0.24;}.cls-8{opacity:0.06;}.cls-15,.cls-9{opacity:0.2;}.cls-10{fill:#fff;}.cls-11{opacity:0.12;}.cls-12{opacity:0.09;}.cls-13{opacity:0.34;}.cls-14{opacity:0.08;}.cls-16,.cls-17{opacity:0.15;}.cls-18{opacity:0.29;}.cls-19{opacity:0.18;}</style></defs><polygon points="157.27 32.47 140.92 56.04 142.43 60.15 146.85 60.15 151.56 61.45 153.03 64.2 145.24 61.76 157.27 32.47"/><rect class="cls-1" x="37.78" y="54.61" width="19.89" height="4.05"/><rect class="cls-2" x="37.78" y="54.61" width="19.89" height="4.05"/><path class="cls-3" d="M57.31,51.44v3.4H35.92a.21.21,0,0,1-.13-.38l7.93-2.4,1.38-.42,6.36-.1Z"/><rect class="cls-4" x="38.45" y="55.42" width="18.56" height="4.14"/><rect class="cls-5" x="38.45" y="55.42" width="18.56" height="4.14"/><path class="cls-6" d="M66.19,36.4l-3,4.7-.48,11.81,2.4,6.72,2.64.22,1.43-.77s.37-16.7.37-16.86S66.19,36.4,66.19,36.4Z"/><path class="cls-6" d="M86,31.2,83.29,42.66s1.07,10.41,1.12,10.57,3.77,8.4,3.77,8.4l2.21.13s.86-6,.86-6.18-.91-16.83-1-17.37S86,31.2,86,31.2Z"/><path class="cls-6" d="M160,48l4.16,8.57v5.94l-5.9.46s-.79-10.56-.61-10.83S160,48,160,48Z"/><g class="cls-7"><path class="cls-8" d="M64.8,35.25s-14.14,10-15.21,19.53l14.68,3.65S70.75,30.51,64.8,35.25Z"/><path d="M66.19,36.4l-3,4.7-.48,11.81,2.4,5.72,2.64.22,1.43.43s.37-16.9.37-17.06S66.19,36.4,66.19,36.4Z"/><path d="M86.12,30.81,83.29,42.66s1.07,10.41,1.12,10.57,3.77,8.4,3.77,8.4l2.21.13s.86-6,.86-6.18-.91-16.83-1-17.37S86.12,30.81,86.12,30.81Z"/><path d="M160,48l4.16,8.57v5.94l-5.9.46s-.79-10.56-.61-10.83S160,48,160,48Z"/></g><path class="cls-6" d="M157.27,32.47s-12.64,19.46-14.84,27.18h-6.12L120.16,41S133.1,26.65,157.27,32.47Z"/><path class="cls-8" d="M157.27,32.47s-12.64,19.46-14.84,27.18h-6.12L120.16,41S133.1,26.65,157.27,32.47Z"/><path class="cls-8" d="M157.27,32.47c-9.84-2.37-17.82-1.4-23.82.59h0A33,33,0,0,0,120.16,41l16.15,18.66h6.12c0-.13.08-.27.12-.4h0C145.06,51.27,157.27,32.47,157.27,32.47ZM138.92,59.25l-6.94-8a11.8,11.8,0,0,1,5.7-19.08,43.14,43.14,0,0,1,12.57,0,3.35,3.35,0,0,1,2.4,5.08c-3.29,5.28-8.79,14.45-11.27,20.41a2.68,2.68,0,0,1-2.46,1.64Z"/><path d="M188.27,43.2s-11.89,15.1-12.81,18.23l-11.31,1.73s2.9-9.27,3-9.56,8.7-6.79,10.09-7.37,8.59-3,8.59-3Z"/><path class="cls-6" d="M160,48s13.1-9.62,28.25-4.8c0,0-20.47,11.43-23.37,20h-2S160.72,49.31,160,48Z"/><path class="cls-9" d="M44.37,57.49a10.34,10.34,0,0,0,.05-2.65,10.83,10.83,0,0,0-.7-2.78l1.38-.42,6.36-.1.1,3.3,0,1.23Z"/><rect class="cls-1" x="164.83" y="60.15" width="19.89" height="4.05"/><rect class="cls-2" x="164.83" y="60.15" width="19.89" height="4.05"/><path class="cls-3" d="M186.58,60.37H165.19v-5h14.95a.87.87,0,0,1,.49.16l.29.21L186.71,60A.21.21,0,0,1,186.58,60.37Z"/><rect class="cls-4" x="165.5" y="60.95" width="18.56" height="4.14"/><rect class="cls-5" x="165.5" y="60.95" width="18.56" height="4.14"/><path class="cls-9" d="M180.92,55.74a32.28,32.28,0,0,0-5.68,4.63,11.82,11.82,0,0,0-3,4.92L165,65.1l-.16-4,.39-.82c.58-1.22,1.61-3.38,1.65-3.45s4.08-1.47,4.08-1.47h9.22a.87.87,0,0,1,.49.16Z"/><path class="cls-6" d="M160,48s13.1-9.62,28.25-4.8c0,0-20.47,11.43-23.37,20h-2S160.64,49.48,160,48Z"/><path class="cls-6" d="M160,48s13.1-9.62,28.25-4.8c0,0-20.47,11.43-23.37,20h-2S160.64,49.48,160,48Z"/><path class="cls-8" d="M181.29,41.91h0l-.6,0h-2.15A36.33,36.33,0,0,0,160,48c.62,1.48,2.87,15.16,2.87,15.16h2c2.9-8.53,23.37-20,23.37-20A28.36,28.36,0,0,0,181.29,41.91Zm2.33,2.84c-4.4,2.67-13.22,8.38-17.93,13.9a.86.86,0,0,1-1.5-.41c-.06-.36-.12-.74-.19-1.11a11.91,11.91,0,0,1,8.36-13.48,33.22,33.22,0,0,1,10-1.39l.81.15A1.28,1.28,0,0,1,183.62,44.75Z"/><path class="cls-10" d="M160.11,48.15S154.9,43.73,143,43.73c0,0,7.35,11,7.75,17l3.48,1Z"/><path class="cls-11" d="M148.32,44.86a32,32,0,0,1,10.45,2.39c-2.23-1.28-7.31-3.52-15.77-3.52,0,0,7.35,11,7.75,17l2,.57c-.48-4.12-3.88-10.31-6-13.85A1.72,1.72,0,0,1,148.32,44.86Z"/><path class="cls-11" d="M159.27,47.55s-7.66,9.74-8.1,13.08l1.24.67,6.49-8.55L160,48Z"/><path class="cls-11" d="M159.27,47.55s-7.66,9.74-8.1,13.08l1.24.67,6.49-8.55L160,48Z"/><path class="cls-6" d="M160.11,47.81s1.07,12.24,3.75,15.18l-12.44-2.24S152.63,57.58,160.11,47.81Z"/><path class="cls-12" d="M160.11,47.81s1.07,12.24,3.75,15.18l-12.44-2.24S152.63,57.58,160.11,47.81Z"/><path class="cls-6" d="M67.4,35.76c-5.32,6.84-8.63,8.88-12.7,12.47h0a36.07,36.07,0,0,0-2.61,6v.81H49.87C49.56,51.89,41,32.47,41,32.47a33.41,33.41,0,0,1,10.7-1.12A37.11,37.11,0,0,1,67.4,35.76Z"/><path class="cls-8" d="M67.4,35.76c-5.32,6-9,9.62-12.7,12.47h0a32.1,32.1,0,0,0-2.61,6.6H49.87C49.33,51.58,41,32.47,41,32.47a33.41,33.41,0,0,1,10.7-1.12A37.11,37.11,0,0,1,67.4,35.76Z"/><path class="cls-11" d="M64.89,34.51s-14.1,9.61-13.26,20l7.57.91s5-16.71,5-16.83,3.49-4.08,3.49-4.08l-1.27.86Z"/><path class="cls-6" d="M66.8,35.25s-14.13,10-15.21,19.53l14.68,3.65S59.2,48.38,66.8,35.25Z"/><path class="cls-11" d="M66.8,35.25s.2-.32-1.76,1.34c-5.22,10.24-2.38,19.1-1.14,21.25l2.37.59S59.2,48.38,66.8,35.25Z"/><path class="cls-6" d="M63.56,22.56,67.7,59.85h1.91L85.86,28.76S77.28,22.38,63.56,22.56Z"/><path class="cls-8" d="M63.56,22.56,67.7,59.85h1.91L85.86,28.76S77.28,22.38,63.56,22.56Z"/><path class="cls-11" d="M84.38,27.81S73.05,37.9,69.5,58.67l6.64-1.1s5.07-15.11,5.36-15.46S86,31.2,86,31.2l.42-2.83Z"/><path class="cls-6" d="M86.5,27.12s-13.88,19.55-17,31.55l19.44,3.09S82,54,86.5,27.12Z"/><path class="cls-11" d="M84.7,29.74c-5.12,21.46.8,30,2,31.66l2.28.36S82,54,86.5,27.12C86.5,27.12,86.25,27.4,84.7,29.74Z"/><path class="cls-6" d="M78.83,8.19s29.19.27,42,31.53l-27.78,21H89.77A236.45,236.45,0,0,0,78.83,8.19Z"/><path class="cls-8" d="M120.86,39.72,94.65,59.56l-1.57,1.19H89.77A236.45,236.45,0,0,0,78.83,8.19a47.07,47.07,0,0,1,23.59,8.15C109.27,21,116.16,28.27,120.86,39.72Z"/><path class="cls-11" d="M120.86,39.72,94.65,59.56h-.71c25-19.51,8.48-43.23,8.48-43.23C109.27,21,116.16,28.27,120.86,39.72Z"/><polygon class="cls-4" points="93.17 60.15 120.78 39.72 140.04 60.15 93.17 60.15"/><polygon class="cls-5" points="93.17 60.15 120.78 39.72 140.04 60.15 93.17 60.15"/><path class="cls-6" d="M115.72,56.85h2.17s2-3.22,2-3.6.92-13.53.92-13.53l-4,6.34-3.09,6.18Z"/><path class="cls-13" d="M115.72,56.85h2.17s2-3.22,2-3.6.92-13.53.92-13.53l-4,6.34-3.09,6.18Z"/><rect class="cls-1" x="115.72" y="56.85" width="2.17" height="2.72"/><rect class="cls-14" x="115.72" y="56.85" width="2.17" height="2.72"/><path class="cls-4" d="M52.09,55l1.34-4.23s6.79.46,9.26,1.42c0,0,2.6,5.42,2.77,6.2,0,0-11.24-1.1-11.46-1.58A11.56,11.56,0,0,0,52.09,55Z"/><path class="cls-4" d="M70.19,59A15.91,15.91,0,0,1,72,53.58s11.1.83,13.21,1.43l2.07,6.36s-14.11.18-14.32,0Z"/><path class="cls-5" d="M52.09,55l1.34-4.23s6.79.46,9.26,1.42c0,0,2.6,5.42,2.77,6.2,0,0-11.24-1.1-11.46-1.58A11.56,11.56,0,0,0,52.09,55Z"/><path class="cls-5" d="M70.19,59A15.91,15.91,0,0,1,72,53.58s11.1.83,13.21,1.43l2.07,6.36s-14.11.18-14.32,0Z"/><path class="cls-4" d="M152,60.37s1.4-2.66,2.07-3.06c0,0,6.36,1,7.22,1.53a27.52,27.52,0,0,0,2.07,4.35L155.5,63Z"/><path class="cls-5" d="M163.32,63.19,155.5,63l-3.2-2.36-.34-.26s1.4-2.66,2.07-3.06h0a63.58,63.58,0,0,1,6.89,1.39h0a1.24,1.24,0,0,1,.28.13h0A27.52,27.52,0,0,0,163.32,63.19Z"/><path class="cls-12" d="M163.15,62.86l.71.13c-2.68-2.94-3.75-15.18-3.75-15.18-.18.24.06,0-.12.21C159.5,51.23,160.93,60.17,163.15,62.86Z"/><path class="cls-9" d="M161.25,58.84l-7-1a11,11,0,0,0-1.67,2.76h-.28l-.34-.26s1.4-2.66,2.07-3.06h0a63.58,63.58,0,0,1,6.89,1.39h0l.28.13Z"/><polygon class="cls-1" points="206.39 70.62 163.86 70.62 163.86 64.2 194.35 64.2 206.39 70.62"/><polygon class="cls-9" points="165.46 69.02 165.46 65.8 193.95 65.8 199.97 69.02 165.46 69.02"/><rect class="cls-1" x="68.04" y="58.67" width="9.84" height="11.95"/><polygon class="cls-1" points="83.82 70.62 77.87 70.62 77.87 58.67 83.82 59.57 83.82 70.62"/><rect class="cls-1" x="34" y="56.2" width="9.25" height="14.43"/><g class="cls-15"><rect class="cls-10" x="34" y="56.2" width="9.25" height="14.43"/></g><polygon class="cls-1" points="43.25 56.2 47.83 54.51 52.42 54.51 62.08 57.57 62.08 70.62 43.25 70.62 43.25 56.2"/><polygon class="cls-8" points="62.08 57.56 62.08 70.62 43.25 70.62 43.25 56.2 47.83 54.51 52.25 54.51 52.09 55.04 52.92 54.81 52.96 54.68 62.08 57.56"/><polygon class="cls-9" points="56.01 70.62 34.5 70.62 34.5 60.06 37.96 60.06 56.01 70.62"/><polygon class="cls-1" points="54 70.62 32.49 70.62 32.49 60.06 35.95 60.06 54 70.62"/><polygon class="cls-1" points="62.08 57.57 68.04 58.67 68.04 70.62 62.08 70.62 62.08 57.57"/><rect class="cls-8" x="68.04" y="58.67" width="9.84" height="11.95"/><polygon class="cls-16" points="83.82 70.62 77.87 70.62 77.87 58.67 83.82 59.57 83.82 70.62"/><polygon class="cls-1" points="148.81 59.57 83.82 59.57 83.82 70.62 148.81 70.62 165.23 70.62 165.23 63.28 148.81 59.57"/><g class="cls-17"><rect x="85.86" y="63.21" width="27.87" height="0.4"/></g><rect class="cls-8" x="128.08" y="62.79" width="25.28" height="0.4"/><polygon class="cls-9" points="108.71 66.31 92.45 66.31 92.45 67.61 92.92 67.61 92.92 70.82 93.44 70.82 93.44 67.61 97.85 67.61 97.85 70.82 98.38 70.82 98.38 67.61 102.79 67.61 102.79 70.82 103.31 70.82 103.31 67.61 107.73 67.61 107.73 70.82 108.25 70.82 108.25 67.61 108.71 67.61 108.71 66.31"/><rect class="cls-1" x="91.85" y="66.1" width="16.26" height="1.3"/><rect class="cls-1" x="92.31" y="67.05" width="0.52" height="3.58"/><rect class="cls-1" x="97.25" y="67.05" width="0.52" height="3.58"/><rect class="cls-1" x="102.19" y="67.05" width="0.52" height="3.58"/><rect class="cls-1" x="107.12" y="67.05" width="0.52" height="3.58"/><g class="cls-18"><rect class="cls-10" x="91.85" y="66.1" width="16.26" height="1.3"/><rect class="cls-10" x="92.31" y="67.05" width="0.52" height="3.58"/><rect class="cls-10" x="97.25" y="67.05" width="0.52" height="3.58"/><rect class="cls-10" x="102.19" y="67.05" width="0.52" height="3.58"/><rect class="cls-10" x="107.12" y="67.05" width="0.52" height="3.58"/></g><polygon class="cls-9" points="136.6 66.31 110.91 66.31 110.91 67.61 111.15 67.61 111.15 70.82 111.67 70.82 111.67 67.61 116.08 67.61 116.08 70.82 116.61 70.82 116.61 67.61 121.02 67.61 121.02 70.82 121.55 70.82 121.55 67.61 125.96 67.61 125.96 70.82 126.48 70.82 126.48 67.61 130.9 67.61 130.9 70.82 131.42 70.82 131.42 67.61 135.83 67.61 135.83 70.82 136.36 70.82 136.36 67.61 136.6 67.61 136.6 66.31"/><rect class="cls-1" x="110.31" y="66.1" width="25.69" height="1.3"/><rect class="cls-1" x="115.48" y="67.05" width="0.52" height="3.58"/><rect class="cls-1" x="125.36" y="67.05" width="0.52" height="3.58"/><rect class="cls-1" x="135.23" y="67.05" width="0.52" height="3.58"/><rect class="cls-1" x="110.55" y="67.05" width="0.52" height="3.58"/><rect class="cls-1" x="120.42" y="67.05" width="0.52" height="3.58"/><rect class="cls-1" x="130.29" y="67.05" width="0.52" height="3.58"/><g class="cls-18"><rect class="cls-10" x="110.31" y="66.1" width="25.69" height="1.3"/><rect class="cls-10" x="115.48" y="67.05" width="0.52" height="3.58"/><rect class="cls-10" x="125.36" y="67.05" width="0.52" height="3.58"/><rect class="cls-10" x="135.23" y="67.05" width="0.52" height="3.58"/><rect class="cls-10" x="110.55" y="67.05" width="0.52" height="3.58"/><rect class="cls-10" x="120.42" y="67.05" width="0.52" height="3.58"/><rect class="cls-10" x="130.29" y="67.05" width="0.52" height="3.58"/></g><g class="cls-17"><path d="M146.85,71.37h-4V65.6h4ZM143.2,71h3.25V66H143.2Z"/></g><rect class="cls-16" x="69.76" y="63.41" width="13.53" height="0.4"/><rect class="cls-16" x="62.69" y="63.41" width="4.72" height="0.4"/><rect class="cls-1" x="25.9" y="70.62" width="182" height="3.99"/><rect class="cls-19" x="25.9" y="70.62" width="182" height="3.99"/><polygon class="cls-8" points="52.96 54.68 52.92 54.81 52.09 55.04 52.25 54.51 52.42 54.51 52.96 54.68"/><path class="cls-9" d="M62.69,52.23,54,51.75l-1,2.93-.54-.17h-.17l1.18-3.7C60.21,51.28,62.69,52.23,62.69,52.23Z"/><path class="cls-9" d="M70.24,58.68A16.2,16.2,0,0,1,72,53.58S83.91,54.5,85.2,55l-12.53-.39a19.64,19.64,0,0,0-1.13,4.06Z"/><path class="cls-6" d="M102.42,53.3s12.18,2.19,13.3,3.56c0,0,3-12.68,5.06-17.14Z"/><path class="cls-11" d="M120.16,40.18c-1.57,4.43-5.61,13.29-6.23,15.79a4.54,4.54,0,0,1,1.79.89s3-12.68,5.06-17.14Z"/><path class="cls-9" d="M115.72,56.86c-3.15-1-13.27-2.24-13.27-2.24l-6.42,5H93.94l8.48-6.27S114.6,55.49,115.72,56.86Z"/><path class="cls-6" d="M120.78,39.72c-.8,1.49-2.89,17.14-2.89,17.14,2.33-1.21,16.78-2.41,16.78-2.41Z"/><path class="cls-11" d="M120.78,39.72c-.13.23.18-.82,0,0l11.88,14.73s-10,.83-14.69,1.8l-.08.61c2.33-1.21,16.78-2.41,16.78-2.41Z"/><path class="cls-9" d="M139.5,59.57l-5.07-4.66c-10,1.17-14.27,2.25-15.8,2.73v1.93h-.74V56.86c2.33-1.21,16.78-2.41,16.78-2.41Z"/><rect class="cls-16" x="165.23" y="64.2" width="1.26" height="6.43"/><path class="cls-9" d="M37.78,54.84v.73a27.26,27.26,0,0,1,6.64-.73Z"/><path class="cls-9" d="M175.24,60.37s9.15.49,9.48,1.39V60.37Z"/></svg>