<svg id="Layer_1" data-name="Layer 1" xmlns="http://www.w3.org/2000/svg" viewBox="0 0 309.7 248.83"><defs><style>.cls-1{fill:#baae91;}.cls-2,.cls-3{opacity:0.07;}.cls-10,.cls-4,.cls-6{fill:#fff;}.cls-11,.cls-4,.cls-5{opacity:0.2;}.cls-7{fill:#fbebc4;}.cls-10,.cls-8,.cls-9{opacity:0.15;}.cls-12,.cls-13{opacity:0.1;}</style></defs><polygon class="cls-1" points="151.68 26.89 151.22 44.65 152.24 44.65 151.78 26.89 151.68 26.89"/><polygon class="cls-1" points="149.46 44.85 154.1 44.85 151.73 42.85 149.46 44.85"/><path class="cls-1" d="M153.25,41.71a1.52,1.52,0,0,1-3,0,1.53,1.53,0,1,1,3,0Z"/><path class="cls-1" d="M153.81,37.55a2.21,2.21,0,0,1-2.08,2.23h-.26a2.25,2.25,0,0,1-1.82-2.21,2.32,2.32,0,0,1,1.89-2.29h.19A2.27,2.27,0,0,1,153.81,37.55Z"/><path class="cls-1" d="M153.25,32.75a2.8,2.8,0,0,1-1.06,2.08.56.56,0,0,1-.16.07l-.14,0-.16,0a.69.69,0,0,1-.25,0,2.56,2.56,0,0,1-1.27-2.17A1.8,1.8,0,0,1,151.57,31h.15a1.38,1.38,0,0,1,.87.34A2,2,0,0,1,153.25,32.75Z"/><path class="cls-1" d="M153.47,28.89a1.8,1.8,0,0,1-.15.5A1.93,1.93,0,0,1,153,30a2.13,2.13,0,0,1-.77.54l-.2.07h0l-.22.06h-.07l-.09,0a2.59,2.59,0,0,1-.3-.1,2.11,2.11,0,0,1-1.3-1.61l.21.25.13.11a1.39,1.39,0,0,0,.38.25l.1.05a2.12,2.12,0,0,0,.66.25H152a2,2,0,0,0,.66-.25l.11-.05.06,0,.16-.1a1.64,1.64,0,0,0,.28-.23.76.76,0,0,0,.16-.2S153.45,28.89,153.47,28.89Z"/><path class="cls-2" d="M153.25,41.72A1.52,1.52,0,0,1,152,43.21a.75.75,0,0,1-.24-.08,1.47,1.47,0,0,0,1-1.41,1.72,1.72,0,0,0-1-1.56,1,1,0,0,1,.23-.08h0A1.7,1.7,0,0,1,153.25,41.72Z"/><path class="cls-2" d="M152,35.28h0l-.12,0Z"/><path class="cls-2" d="M153.81,37.55a2.23,2.23,0,0,1-1.83,2.2.86.86,0,0,1-.23-.06,2.25,2.25,0,0,0,1.55-2.13,2.34,2.34,0,0,0-1.61-2.21,1.43,1.43,0,0,1,.28-.07A2.31,2.31,0,0,1,153.81,37.55Z"/><path class="cls-2" d="M151.73,35l.13,0a.32.32,0,0,1-.14,0,.64.64,0,0,1-.23,0A.67.67,0,0,0,151.73,35Z"/><path class="cls-2" d="M151.87,34.94l.11,0a.32.32,0,0,1-.09,0Z"/><path class="cls-2" d="M153.25,32.75a2.8,2.8,0,0,1-1.06,2.08.56.56,0,0,1-.16.07H152a1.34,1.34,0,0,1-.24-.12,2.81,2.81,0,0,0,1-2,1.91,1.91,0,0,0-1-1.65A1.48,1.48,0,0,1,152,31a1.42,1.42,0,0,1,.61.31A2,2,0,0,1,153.25,32.75Z"/><g class="cls-3"><path d="M151.5,29.79h0Z"/><path d="M153.47,28.88a1.83,1.83,0,0,1-.15.51A1.93,1.93,0,0,1,153,30a2.13,2.13,0,0,1-.77.54l-.21.07-.18-.07,0,0a2.36,2.36,0,0,0,.71-.5,2.16,2.16,0,0,0,.31-.48l.06,0,.16-.1a2.59,2.59,0,0,0,.28-.23.76.76,0,0,0,.16-.2S153.45,28.89,153.47,28.88Z"/></g><path class="cls-4" d="M152,40.08a1,1,0,0,0-.23.08h0a1,1,0,0,0-.23-.08l.24,0A.93.93,0,0,1,152,40.08Z"/><path class="cls-4" d="M152,43.21a1.9,1.9,0,0,1-.25,0,1,1,0,0,1-.25,0,.75.75,0,0,0,.24-.08h0A.75.75,0,0,0,152,43.21Z"/><path class="cls-4" d="M151.72,43.13a.75.75,0,0,1-.24.08,1.52,1.52,0,0,1-1.27-1.49,1.68,1.68,0,0,1,1.28-1.64,1,1,0,0,1,.23.08,1.72,1.72,0,0,0-1,1.56A1.47,1.47,0,0,0,151.72,43.13Z"/><path class="cls-4" d="M152,35.28a1.37,1.37,0,0,0-.29.07.79.79,0,0,0-.22-.06l.07,0h.32Z"/><path class="cls-4" d="M152,39.75l-.12,0h-.13l-.26,0a.89.89,0,0,0,.28-.07A.86.86,0,0,0,152,39.75Z"/><path class="cls-4" d="M151.75,39.69a.89.89,0,0,1-.28.07,2.25,2.25,0,0,1-1.82-2.21,2.32,2.32,0,0,1,1.89-2.29l-.07,0a.79.79,0,0,1,.22.06,2.37,2.37,0,0,0-1.54,2.2A2.23,2.23,0,0,0,151.75,39.69Z"/><path class="cls-4" d="M152,31a1.48,1.48,0,0,0-.27.1,1.06,1.06,0,0,0-.25-.09l.11,0h.16A1.9,1.9,0,0,1,152,31Z"/><path class="cls-4" d="M152,34.91l-.11,0h0l-.13,0a.67.67,0,0,1-.24,0,1.49,1.49,0,0,0,.25-.13A1.34,1.34,0,0,0,152,34.91Z"/><path class="cls-4" d="M151.74,34.79a1.49,1.49,0,0,1-.25.13,2.52,2.52,0,0,1-1.28-2.17A1.82,1.82,0,0,1,151.46,31a1.06,1.06,0,0,1,.25.09,1.91,1.91,0,0,0-1,1.64A2.78,2.78,0,0,0,151.74,34.79Z"/><g class="cls-5"><path class="cls-6" d="M152,30.56l-.22.06h-.07l-.09,0-.09,0,.17-.06.07,0,0,0Z"/><path class="cls-6" d="M151.74,30.47l-.07,0-.17.06a1.28,1.28,0,0,1-.21-.07,2.11,2.11,0,0,1-1.3-1.61l.21.25.13.11a1.39,1.39,0,0,0,.38.25,1.72,1.72,0,0,0,.3.46A2.46,2.46,0,0,0,151.74,30.47Z"/><path class="cls-6" d="M152,29.78h0Z"/></g><path class="cls-7" d="M134.64,174.73V132a8,8,0,0,1,3.7-6.77L152,116.45l13.65,8.74a8.06,8.06,0,0,1,3.7,6.77v42.77H181V99.94h-58.1v74.79Z"/><rect class="cls-8" x="134.64" y="112.35" width="34.69" height="62.37"/><path class="cls-7" d="M171.35,174.73V132a10,10,0,0,0-4.63-8.47L152,114.05l-14.73,9.44a10,10,0,0,0-4.63,8.47v42.77Z"/><path class="cls-1" d="M169.33,174.73V132a8.06,8.06,0,0,0-3.7-6.77L152,116.45l-13.64,8.74a8,8,0,0,0-3.7,6.77v42.77Z"/><g class="cls-9"><polygon points="131.02 174.73 131.02 108.14 172.95 108.14 172.95 174.73 176.99 174.73 176.99 103.98 126.97 103.98 126.97 174.73 131.02 174.73"/></g><rect class="cls-7" x="97.67" y="109.54" width="25.26" height="65.18"/><rect class="cls-8" x="97.67" y="109.54" width="25.26" height="65.18"/><rect class="cls-7" x="208.4" y="107.57" width="1.29" height="3.99"/><rect class="cls-1" x="219.79" y="103.81" width="1.29" height="10.05"/><rect class="cls-7" x="215.74" y="97.25" width="1.29" height="16.61"/><rect class="cls-7" x="205" y="99.49" width="1.29" height="10.05"/><rect class="cls-8" x="205" y="99.49" width="1.29" height="10.05"/><polygon class="cls-10" points="205.38 99.52 206.28 99.52 206.28 99.49 205 99.49 205 109.54 205.38 109.54 205.38 99.52"/><polygon class="cls-1" points="216.15 96.81 216.4 93.62 216.63 96.81 216.15 96.81"/><polygon class="cls-2" points="216.63 96.81 216.54 96.81 216.4 94.85 216.44 94.24 216.63 96.81"/><polygon class="cls-2" points="216.44 94.23 216.44 94.24 216.4 94.85 216.35 94.24 216.4 93.63 216.44 94.23"/><polygon class="cls-4" points="216.4 94.85 216.24 96.81 216.15 96.81 216.35 94.24 216.4 94.85"/><polygon class="cls-1" points="217.37 97.28 217.37 97.46 215.4 97.46 215.4 97.28 215.72 97.07 216.16 96.81 216.38 96.67 216.61 96.81 217.37 97.28"/><polygon class="cls-2" points="217.37 97.28 217.37 97.46 217.21 97.46 217.06 97.37 216.69 97.14 216.38 96.95 216.61 96.81 217.37 97.28"/><polygon class="cls-2" points="216.61 96.81 216.38 96.95 216.16 96.81 216.38 96.67 216.61 96.81"/><polygon class="cls-4" points="216.38 96.95 216.07 97.14 215.77 97.33 215.55 97.46 215.4 97.46 215.4 97.28 215.72 97.07 216.16 96.81 216.38 96.95"/><polygon class="cls-1" points="220.19 103.29 220.44 100.1 220.67 103.29 220.19 103.29"/><polygon class="cls-2" points="220.67 103.29 220.58 103.29 220.44 101.33 220.49 100.71 220.67 103.29"/><polygon class="cls-2" points="220.49 100.71 220.49 100.71 220.44 101.33 220.39 100.72 220.44 100.1 220.49 100.71"/><polygon class="cls-4" points="220.44 101.33 220.28 103.29 220.19 103.29 220.39 100.72 220.44 101.33"/><polygon class="cls-1" points="221.41 103.75 221.41 103.93 219.44 103.93 219.44 103.75 219.77 103.55 220.2 103.29 220.42 103.14 220.66 103.29 221.41 103.75"/><polygon class="cls-2" points="221.41 103.75 221.41 103.93 221.25 103.93 221.1 103.84 220.74 103.62 220.42 103.43 220.66 103.29 221.41 103.75"/><polygon class="cls-2" points="220.65 103.29 220.43 103.42 220.2 103.29 220.43 103.14 220.65 103.29"/><polygon class="cls-4" points="220.42 103.43 220.11 103.62 219.81 103.8 219.59 103.93 219.44 103.93 219.44 103.75 219.77 103.55 220.2 103.29 220.42 103.43"/><polygon class="cls-1" points="208.81 107.13 209.05 103.93 209.28 107.13 208.81 107.13"/><polygon class="cls-2" points="209.28 107.12 209.19 107.12 209.05 105.16 209.1 104.55 209.28 107.12"/><polygon class="cls-2" points="209.1 104.54 209.1 104.55 209.05 105.16 209.01 104.55 209.06 103.94 209.1 104.54"/><polygon class="cls-4" points="209.05 105.16 208.9 107.12 208.81 107.12 209.01 104.55 209.05 105.16"/><polygon class="cls-1" points="210.03 107.58 210.03 107.77 208.06 107.77 208.06 107.58 208.38 107.38 208.82 107.12 209.04 106.98 209.27 107.12 210.03 107.58"/><polygon class="cls-2" points="210.03 107.58 210.03 107.77 209.87 107.77 209.72 107.68 209.35 107.45 209.04 107.26 209.27 107.12 210.03 107.58"/><polygon class="cls-2" points="209.26 107.12 209.04 107.26 208.81 107.12 209.04 106.98 209.26 107.12"/><polygon class="cls-4" points="209.04 107.26 208.72 107.45 208.42 107.64 208.21 107.77 208.06 107.77 208.06 107.58 208.38 107.38 208.82 107.12 209.04 107.26"/><polygon class="cls-8" points="205.91 99.49 205.91 99.8 205 99.8 205 100.07 205.91 100.07 205.91 109.54 206.28 109.54 206.28 100.07 206.28 99.8 206.28 99.49 205.91 99.49"/><polygon class="cls-10" points="208.41 107.73 208.41 110.14 208.79 110.26 208.79 107.73 208.41 107.73"/><polygon class="cls-8" points="209.33 107.73 209.33 110.42 209.7 110.53 209.7 107.73 209.33 107.73"/><polygon class="cls-10" points="219.78 104.23 219.78 113.43 220.16 113.53 220.16 104.23 219.78 104.23"/><polygon class="cls-8" points="220.7 104.23 220.7 113.69 221.07 113.8 221.07 104.23 220.7 104.23"/><polygon class="cls-4" points="215.75 97.73 215.75 112.27 216.13 112.38 216.13 97.73 215.75 97.73"/><polygon class="cls-8" points="216.67 97.73 216.67 112.53 217.04 112.64 217.04 97.73 216.67 97.73"/><rect class="cls-8" x="208.4" y="107.77" width="1.29" height="0.27"/><rect class="cls-8" x="215.74" y="97.46" width="1.29" height="0.28"/><rect class="cls-8" x="219.79" y="103.93" width="1.29" height="0.3"/><polygon class="cls-1" points="205.38 99.16 205.63 95.97 205.85 99.16 205.38 99.16"/><polygon class="cls-2" points="205.86 99.16 205.76 99.16 205.62 97.2 205.67 96.58 205.86 99.16"/><polygon class="cls-2" points="205.67 96.58 205.67 96.58 205.62 97.2 205.58 96.59 205.63 95.97 205.67 96.58"/><polygon class="cls-4" points="205.62 97.2 205.47 99.16 205.38 99.16 205.58 96.59 205.62 97.2"/><polygon class="cls-1" points="206.6 99.62 206.6 99.8 204.63 99.8 204.63 99.62 204.95 99.42 205.39 99.16 205.61 99.01 205.84 99.16 206.6 99.62"/><polygon class="cls-2" points="206.6 99.62 206.6 99.8 206.44 99.8 206.29 99.71 205.92 99.49 205.61 99.3 205.84 99.16 206.6 99.62"/><polygon class="cls-2" points="205.84 99.16 205.61 99.29 205.38 99.16 205.61 99.01 205.84 99.16"/><polygon class="cls-4" points="205.61 99.3 205.3 99.49 204.99 99.67 204.78 99.8 204.63 99.8 204.63 99.62 204.95 99.42 205.39 99.16 205.61 99.3"/><rect class="cls-7" x="94.27" y="107.57" width="1.29" height="3.99"/><rect class="cls-1" x="82.88" y="103.81" width="1.29" height="10.05"/><rect class="cls-7" x="86.92" y="97.25" width="1.29" height="16.61"/><rect class="cls-7" x="97.67" y="99.49" width="1.29" height="10.05"/><rect class="cls-8" x="97.67" y="99.49" width="1.29" height="10.05"/><polygon class="cls-10" points="98.58 99.52 97.67 99.52 97.67 99.49 98.96 99.49 98.96 109.54 98.58 109.54 98.58 99.52"/><polygon class="cls-1" points="87.8 96.81 87.56 93.62 87.33 96.81 87.8 96.81"/><polygon class="cls-2" points="87.32 96.81 87.42 96.81 87.56 94.85 87.51 94.24 87.32 96.81"/><polygon class="cls-2" points="87.51 94.23 87.51 94.24 87.56 94.85 87.6 94.24 87.55 93.63 87.51 94.23"/><polygon class="cls-4" points="87.56 94.85 87.71 96.81 87.8 96.81 87.6 94.24 87.56 94.85"/><polygon class="cls-1" points="86.58 97.28 86.58 97.46 88.55 97.46 88.55 97.28 88.23 97.07 87.79 96.81 87.57 96.67 87.34 96.81 86.58 97.28"/><polygon class="cls-2" points="86.58 97.28 86.58 97.46 86.74 97.46 86.89 97.37 87.26 97.14 87.57 96.95 87.34 96.81 86.58 97.28"/><polygon class="cls-2" points="87.34 96.81 87.57 96.95 87.8 96.81 87.57 96.67 87.34 96.81"/><polygon class="cls-4" points="87.57 96.95 87.88 97.14 88.19 97.33 88.4 97.46 88.55 97.46 88.55 97.28 88.23 97.07 87.79 96.81 87.57 96.95"/><polygon class="cls-1" points="83.76 103.29 83.51 100.1 83.28 103.29 83.76 103.29"/><polygon class="cls-2" points="83.28 103.29 83.37 103.29 83.52 101.33 83.47 100.71 83.28 103.29"/><polygon class="cls-2" points="83.47 100.71 83.47 100.71 83.52 101.33 83.56 100.72 83.51 100.1 83.47 100.71"/><polygon class="cls-4" points="83.52 101.33 83.67 103.29 83.76 103.29 83.56 100.72 83.52 101.33"/><polygon class="cls-1" points="82.54 103.75 82.54 103.93 84.51 103.93 84.51 103.75 84.19 103.55 83.75 103.29 83.53 103.14 83.3 103.29 82.54 103.75"/><polygon class="cls-2" points="82.54 103.75 82.54 103.93 82.7 103.93 82.85 103.84 83.22 103.62 83.53 103.43 83.3 103.29 82.54 103.75"/><polygon class="cls-2" points="83.3 103.29 83.53 103.42 83.75 103.29 83.53 103.14 83.3 103.29"/><polygon class="cls-4" points="83.53 103.43 83.84 103.62 84.14 103.8 84.36 103.93 84.51 103.93 84.51 103.75 84.19 103.55 83.75 103.29 83.53 103.43"/><polygon class="cls-1" points="95.15 107.13 94.9 103.93 94.67 107.13 95.15 107.13"/><polygon class="cls-2" points="94.67 107.12 94.76 107.12 94.9 105.16 94.85 104.55 94.67 107.12"/><polygon class="cls-2" points="94.85 104.54 94.85 104.55 94.9 105.16 94.95 104.55 94.9 103.94 94.85 104.54"/><polygon class="cls-4" points="94.9 105.16 95.05 107.12 95.15 107.12 94.95 104.55 94.9 105.16"/><polygon class="cls-1" points="93.92 107.58 93.92 107.77 95.89 107.77 95.89 107.58 95.57 107.38 95.14 107.12 94.92 106.98 94.68 107.12 93.92 107.58"/><polygon class="cls-2" points="93.92 107.58 93.92 107.77 94.09 107.77 94.24 107.68 94.6 107.45 94.92 107.26 94.68 107.12 93.92 107.58"/><polygon class="cls-2" points="94.69 107.12 94.91 107.26 95.14 107.12 94.91 106.98 94.69 107.12"/><polygon class="cls-4" points="94.92 107.26 95.23 107.45 95.53 107.64 95.74 107.77 95.89 107.77 95.89 107.58 95.57 107.38 95.14 107.12 94.92 107.26"/><polygon class="cls-8" points="98.04 99.49 98.04 99.8 98.96 99.8 98.96 100.07 98.04 100.07 98.04 109.54 97.67 109.54 97.67 100.07 97.67 99.8 97.67 99.49 98.04 99.49"/><polygon class="cls-10" points="95.54 107.73 95.54 110.14 95.16 110.26 95.16 107.73 95.54 107.73"/><polygon class="cls-8" points="94.63 107.73 94.63 110.42 94.26 110.53 94.26 107.73 94.63 107.73"/><polygon class="cls-10" points="84.17 104.23 84.17 113.43 83.79 113.53 83.79 104.23 84.17 104.23"/><polygon class="cls-8" points="83.25 104.23 83.25 113.69 82.88 113.8 82.89 104.23 83.25 104.23"/><polygon class="cls-4" points="88.2 97.73 88.2 112.27 87.82 112.38 87.82 97.73 88.2 97.73"/><polygon class="cls-8" points="87.28 97.73 87.28 112.53 86.91 112.64 86.91 97.73 87.28 97.73"/><rect class="cls-8" x="94.27" y="107.77" width="1.29" height="0.27"/><rect class="cls-8" x="86.92" y="97.46" width="1.29" height="0.28"/><rect class="cls-8" x="82.88" y="103.93" width="1.29" height="0.3"/><polygon class="cls-1" points="98.58 99.16 98.33 95.97 98.1 99.16 98.58 99.16"/><polygon class="cls-2" points="98.1 99.16 98.19 99.16 98.33 97.2 98.28 96.58 98.1 99.16"/><polygon class="cls-2" points="98.28 96.58 98.28 96.58 98.33 97.2 98.38 96.59 98.33 95.97 98.28 96.58"/><polygon class="cls-4" points="98.33 97.2 98.48 99.16 98.58 99.16 98.38 96.59 98.33 97.2"/><polygon class="cls-1" points="97.35 99.62 97.35 99.8 99.32 99.8 99.32 99.62 99 99.42 98.57 99.16 98.34 99.01 98.11 99.16 97.35 99.62"/><polygon class="cls-2" points="97.35 99.62 97.35 99.8 97.52 99.8 97.67 99.71 98.03 99.49 98.34 99.3 98.11 99.16 97.35 99.62"/><polygon class="cls-2" points="98.12 99.16 98.34 99.29 98.57 99.16 98.34 99.01 98.12 99.16"/><polygon class="cls-4" points="98.34 99.3 98.66 99.49 98.96 99.67 99.17 99.8 99.32 99.8 99.32 99.62 99 99.42 98.57 99.16 98.34 99.3"/><path class="cls-7" d="M102.07,115.68v26.15h1.42V125a3.19,3.19,0,0,1,1.45-2.66l5.36-3.43,5.36,3.43a3.17,3.17,0,0,1,1.45,2.66v16.8h1.43V115.68Z"/><rect class="cls-8" x="103.49" y="117.33" width="13.62" height="24.49"/><path class="cls-7" d="M117.91,141.83V125a3.93,3.93,0,0,0-1.82-3.32L110.3,118l-5.79,3.71A3.94,3.94,0,0,0,102.7,125v16.8Z"/><path class="cls-1" d="M117.11,141.83V125a3.17,3.17,0,0,0-1.45-2.66l-5.36-3.43-5.36,3.43a3.19,3.19,0,0,0-1.45,2.66v16.8Z"/><polygon class="cls-1" points="102.07 141.83 102.07 115.68 118.53 115.68 118.53 141.83 120.12 141.83 120.12 114.05 100.48 114.05 100.48 141.83 102.07 141.83"/><path class="cls-7" d="M102.07,142V168.1h1.42V151.31a3.16,3.16,0,0,1,1.45-2.66l5.36-3.44,5.36,3.44a3.14,3.14,0,0,1,1.45,2.66V168.1h1.43V142Z"/><rect class="cls-8" x="103.49" y="143.61" width="13.62" height="24.49"/><path class="cls-7" d="M117.91,168.1V151.31a3.93,3.93,0,0,0-1.82-3.33l-5.79-3.71L104.51,148a3.94,3.94,0,0,0-1.81,3.33V168.1Z"/><path class="cls-1" d="M117.11,168.1V151.31a3.14,3.14,0,0,0-1.45-2.66l-5.36-3.44-5.36,3.44a3.16,3.16,0,0,0-1.45,2.66V168.1Z"/><path class="cls-11" d="M110.3,118.94h0l-5.36,3.43a3.19,3.19,0,0,0-1.45,2.66v16.8h6.81Z"/><path class="cls-11" d="M110.3,145.22h0l-5.36,3.44a3.16,3.16,0,0,0-1.45,2.66V168.1h6.81Z"/><polygon class="cls-1" points="102.07 168.1 102.07 141.95 118.53 141.95 118.53 168.1 120.12 168.1 120.12 140.32 100.48 140.32 100.48 168.1 102.07 168.1"/><polygon class="cls-7" points="97.67 174.73 82.01 174.73 82.01 114.05 97.67 109.54 97.67 174.73"/><path class="cls-7" d="M83.71,115.68v26.15h1.06V125a3.57,3.57,0,0,1,1.08-2.66l4-3.43,4,3.43A3.57,3.57,0,0,1,94.91,125v16.8H96V115.68Z"/><polygon class="cls-8" points="94.91 141.83 94.91 117.33 84.77 120.36 84.77 141.83 94.91 141.83"/><path class="cls-7" d="M95.5,141.83V125a4.41,4.41,0,0,0-1.35-3.32L89.84,118l-4.31,3.71A4.37,4.37,0,0,0,84.18,125v16.8Z"/><path class="cls-1" d="M94.91,139.58V125a3.57,3.57,0,0,0-1.08-2.66l-4-3.43-4,3.43A3.57,3.57,0,0,0,84.77,125v16.8Z"/><path class="cls-11" d="M87.8,125a3.57,3.57,0,0,1,1.08-2.66l2.47-2.12-1.51-1.31-4,3.43A3.57,3.57,0,0,0,84.77,125v16.8l3-.68Z"/><polygon class="cls-1" points="83.71 143.85 83.71 118.94 95.97 115.68 95.97 141.83 97.15 141.83 97.15 114.05 82.53 118.09 82.53 143.85 83.71 143.85"/><path class="cls-7" d="M83.71,142V168.1h1.06V151.31a3.54,3.54,0,0,1,1.08-2.66l4-3.44,4,3.44a3.54,3.54,0,0,1,1.08,2.66V168.1H96V142Z"/><polygon class="cls-8" points="94.91 168.1 94.91 143.6 84.77 146.64 84.77 168.1 94.91 168.1"/><path class="cls-7" d="M95.5,168.1V151.31A4.42,4.42,0,0,0,94.15,148l-4.31-3.71L85.53,148a4.38,4.38,0,0,0-1.35,3.33V168.1Z"/><path class="cls-1" d="M94.91,168.1V151.31a3.54,3.54,0,0,0-1.08-2.66l-4-3.44-4,3.44a3.54,3.54,0,0,0-1.08,2.66V168.1Z"/><path class="cls-11" d="M87.87,148.65l3-2.57-1-.87-4,3.44a3.54,3.54,0,0,0-1.08,2.66V168.1h2V151.31A3.54,3.54,0,0,1,87.87,148.65Z"/><polygon class="cls-1" points="83.71 168.1 83.72 144.54 95.97 141.95 95.97 168.1 97.15 168.1 97.15 140.32 82.53 143.35 82.53 168.1 83.71 168.1"/><rect class="cls-7" x="102.07" y="139" width="16.47" height="1.32"/><rect class="cls-7" x="181.02" y="109.54" width="25.26" height="65.18"/><rect class="cls-8" x="181.02" y="109.54" width="25.26" height="65.18"/><path class="cls-7" d="M201.89,115.68v26.15h-1.43V125a3.17,3.17,0,0,0-1.45-2.66l-5.36-3.43-5.36,3.43a3.19,3.19,0,0,0-1.45,2.66v16.8h-1.42V115.68Z"/><rect class="cls-8" x="186.84" y="117.33" width="13.62" height="24.49"/><path class="cls-7" d="M186.05,141.83V125a3.93,3.93,0,0,1,1.82-3.32l5.78-3.71,5.79,3.71a3.93,3.93,0,0,1,1.82,3.32v16.8Z"/><path class="cls-1" d="M186.84,141.83V125a3.19,3.19,0,0,1,1.45-2.66l5.36-3.43,5.36,3.43a3.17,3.17,0,0,1,1.45,2.66v16.8Z"/><polygon class="cls-1" points="201.88 141.83 201.88 115.68 185.42 115.68 185.42 141.83 183.83 141.83 183.83 114.05 203.47 114.05 203.47 141.83 201.88 141.83"/><path class="cls-7" d="M201.89,142V168.1h-1.43V151.31a3.14,3.14,0,0,0-1.45-2.66l-5.36-3.44-5.36,3.44a3.16,3.16,0,0,0-1.45,2.66V168.1h-1.42V142Z"/><rect class="cls-8" x="186.84" y="143.61" width="13.62" height="24.49"/><path class="cls-7" d="M186.05,168.1V151.31a3.93,3.93,0,0,1,1.82-3.33l5.78-3.71,5.79,3.71a3.93,3.93,0,0,1,1.82,3.33V168.1Z"/><path class="cls-1" d="M186.84,168.1V151.31a3.16,3.16,0,0,1,1.45-2.66l5.36-3.44,5.36,3.44a3.14,3.14,0,0,1,1.45,2.66V168.1Z"/><path class="cls-11" d="M193.65,118.94h0l5.36,3.43a3.17,3.17,0,0,1,1.45,2.66v16.8h-6.81Z"/><path class="cls-11" d="M193.65,145.22h0l5.36,3.44a3.14,3.14,0,0,1,1.45,2.66V168.1h-6.81Z"/><polygon class="cls-1" points="201.88 168.1 201.88 141.95 185.42 141.95 185.42 168.1 183.83 168.1 183.83 140.32 203.47 140.32 203.47 168.1 201.88 168.1"/><polygon class="cls-7" points="206.28 174.73 221.94 174.73 221.94 114.05 206.28 109.54 206.28 174.73"/><path class="cls-7" d="M220.24,115.68v26.15h-1.06V125a3.53,3.53,0,0,0-1.08-2.66l-4-3.43-4,3.43A3.54,3.54,0,0,0,209,125v16.8H208V115.68Z"/><polygon class="cls-8" points="209.04 141.83 209.04 117.33 219.18 120.36 219.18 141.83 209.04 141.83"/><path class="cls-7" d="M208.45,141.83V125a4.38,4.38,0,0,1,1.36-3.32l4.31-3.71,4.3,3.71a4.37,4.37,0,0,1,1.35,3.32v16.8Z"/><path class="cls-1" d="M209,139.58V125a3.54,3.54,0,0,1,1.09-2.66l4-3.43,4,3.43a3.53,3.53,0,0,1,1.08,2.66v16.8Z"/><path class="cls-11" d="M216.15,125a3.57,3.57,0,0,0-1.08-2.66l-2.47-2.12,1.52-1.31,4,3.43a3.53,3.53,0,0,1,1.08,2.66v16.8l-3-.68Z"/><polygon class="cls-1" points="220.24 143.85 220.24 118.94 207.98 115.68 207.98 141.83 206.8 141.83 206.8 114.05 221.42 118.09 221.42 143.85 220.24 143.85"/><path class="cls-7" d="M220.24,142V168.1h-1.06V151.31a3.5,3.5,0,0,0-1.08-2.66l-4-3.44-4,3.44a3.51,3.51,0,0,0-1.09,2.66V168.1H208V142Z"/><polygon class="cls-8" points="209.04 168.1 209.04 143.6 219.18 146.64 219.18 168.1 209.04 168.1"/><path class="cls-7" d="M208.45,168.1V151.31a4.39,4.39,0,0,1,1.36-3.33l4.31-3.71,4.3,3.71a4.38,4.38,0,0,1,1.35,3.33V168.1Z"/><path class="cls-1" d="M209,168.1V151.31a3.51,3.51,0,0,1,1.09-2.66l4-3.44,4,3.44a3.5,3.5,0,0,1,1.08,2.66V168.1Z"/><path class="cls-11" d="M216.08,148.65l-3-2.57,1-.87,4,3.44a3.5,3.5,0,0,1,1.08,2.66V168.1h-2V151.31A3.5,3.5,0,0,0,216.08,148.65Z"/><polygon class="cls-1" points="220.24 168.1 220.23 144.54 207.98 141.95 207.98 168.1 206.8 168.1 206.8 140.32 221.42 143.35 221.42 168.1 220.24 168.1"/><rect class="cls-7" x="185.42" y="139" width="16.47" height="1.32"/><rect class="cls-7" x="122.94" y="89.15" width="58.08" height="10.79"/><rect class="cls-1" x="122.93" y="97.68" width="58.1" height="2.27"/><polygon class="cls-7" points="164.76 53.88 139.21 53.88 139.48 53.63 141.78 51.61 151.73 42.85 162.08 51.6 162.08 51.61 164.47 53.63 164.76 53.88"/><path class="cls-7" d="M182.22,81.84c0,.17,0,.33,0,.5l0,1a30.17,30.17,0,0,1-1,6.35c0,.17-.09.33-.15.51H122.94c0-.18-.09-.34-.14-.51a30.17,30.17,0,0,1-1-6.35c0-.34,0-.67,0-1,0-.17,0-.33,0-.5s0-.33,0-.51c0-.44,0-.88,0-1.31,0-.17,0-.34,0-.51a1.15,1.15,0,0,1,0-.19c0-.34.06-.68.1-1s.12-1,.2-1.42a.59.59,0,0,1,0-.13c.08-.45.17-.88.26-1.32,0-.06,0-.12,0-.18.09-.4.19-.81.29-1.2a1.37,1.37,0,0,1,.07-.24,11.7,11.7,0,0,1,.36-1.19,1.43,1.43,0,0,1,.09-.27c.11-.36.23-.72.37-1.07.06-.19.13-.37.21-.56.2-.51.42-1,.66-1.52a2.55,2.55,0,0,1,.13-.29c.12-.25.23-.48.35-.71s.29-.57.45-.84.26-.48.39-.71a1.76,1.76,0,0,1,.14-.23c.14-.23.28-.47.43-.7a1.28,1.28,0,0,1,.14-.21c.16-.27.34-.54.53-.8s.31-.45.47-.67.32-.43.49-.64.38-.5.58-.74.32-.39.5-.59a27.74,27.74,0,0,1,2.69-2.73c.26-.24.52-.47.79-.69.49-.41,1-.8,1.49-1.17s.75-.54,1.13-.79.81-.53,1.22-.77h0c.35-.21.69-.41,1-.6s.46-.25.69-.36a2.58,2.58,0,0,1,.37-.19l.79-.38c.38-.18.75-.34,1.14-.49h0c.19-.09.39-.16.58-.23,0,0,0,0,0,0l.83-.31c.29-.11.59-.21.88-.29s.54-.17.82-.24a.48.48,0,0,1,.17-.05l.83-.22a9.39,9.39,0,0,1,1.05-.24,6,6,0,0,1,.61-.12c.64-.13,1.32-.24,2-.31h.11l.74-.08c.92-.09,1.84-.13,2.78-.13.41,0,.8,0,1.2,0l.58,0,.59,0c.39,0,.78.06,1.16.11h0a29.36,29.36,0,0,1,7.33,1.81,6.25,6.25,0,0,1,.6.24,27.69,27.69,0,0,1,4,2,30.19,30.19,0,0,1,14.72,25.43C182.22,81.51,182.22,81.67,182.22,81.84Z"/><path class="cls-2" d="M182.22,81.84c0,.17,0,.33,0,.5l0,1a30.17,30.17,0,0,1-1,6.35c0,.17-.09.33-.15.51H174c.05-.18.09-.34.14-.51l.12-.48a.14.14,0,0,0,0-.07,23.75,23.75,0,0,0,.5-2.37,29.73,29.73,0,0,0,.37-3.43c0-.34,0-.67,0-1,0-.17,0-.33,0-.5s0-.33,0-.51A30.15,30.15,0,0,0,160.41,55.9a28.62,28.62,0,0,0-4-2q-.31-.14-.63-.24A27.84,27.84,0,0,0,152,52.46h0a29.1,29.1,0,0,0-3.52-.63l.74-.08c.92-.09,1.84-.13,2.78-.13.41,0,.8,0,1.2,0h.13l.45,0,.59,0,.32,0,.84.09h0a29.36,29.36,0,0,1,7.33,1.81,6.25,6.25,0,0,1,.6.24,27.69,27.69,0,0,1,4,2,30.19,30.19,0,0,1,14.72,25.43C182.22,81.51,182.22,81.67,182.22,81.84Z"/><path class="cls-4" d="M155.51,51.82a31.62,31.62,0,0,0-3.52.64h0a28.87,28.87,0,0,0-3.77,1.17,5.36,5.36,0,0,0-.62.25,27.09,27.09,0,0,0-4,2,30.18,30.18,0,0,0-14.73,25.43c0,.17,0,.33,0,.51s0,.33,0,.5a30.35,30.35,0,0,0,1,7.37l.15.5h-7.08l-.14-.5a29.87,29.87,0,0,1-1-7.37c0-.17,0-.33,0-.5s0-.34,0-.51c0-.44,0-.88,0-1.31,0-.18,0-.35,0-.52a1.09,1.09,0,0,1,0-.18c0-.34.06-.69.1-1,.05-.49.12-1,.2-1.43a.59.59,0,0,1,0-.13c.08-.44.17-.88.26-1.31,0-.06,0-.12,0-.18.09-.41.19-.81.29-1.21a1.37,1.37,0,0,1,.07-.24c.1-.4.22-.8.35-1.18,0-.09.06-.18.1-.27.11-.37.23-.72.37-1.07a4.63,4.63,0,0,1,.21-.56q.3-.78.66-1.53a2.55,2.55,0,0,1,.13-.29l.35-.71c.14-.28.29-.56.45-.83s.26-.48.39-.71a1.76,1.76,0,0,1,.14-.23c.14-.24.28-.47.43-.7a1.28,1.28,0,0,1,.14-.21,8.52,8.52,0,0,1,.53-.8c.15-.23.31-.46.47-.67l.49-.65c.18-.24.38-.49.58-.73a7.08,7.08,0,0,1,.5-.59,29,29,0,0,1,2.69-2.74c.26-.23.52-.46.79-.68.49-.41,1-.8,1.49-1.18l1.13-.79c.39-.26.81-.52,1.22-.76h0c.35-.22.69-.42,1-.6s.46-.25.69-.36.24-.14.37-.2l.79-.37c.38-.18.75-.34,1.14-.49,0,0,0,0,0,0a4.74,4.74,0,0,1,.58-.24s0,0,0,0l.83-.3c.29-.11.59-.21.88-.29l.82-.25a.48.48,0,0,1,.17-.05l.83-.22c.34-.09.69-.17,1.05-.23q.3-.08.6-.12c.69-.14,1.4-.25,2.11-.33l.74-.08c.92-.09,1.84-.13,2.78-.13.41,0,.8,0,1.2,0C154,51.67,154.74,51.73,155.51,51.82Z"/><g class="cls-12"><path d="M125.21,90.68a.51.51,0,0,1-.51-.5V86.89a.51.51,0,0,1,1,0v3.29A.51.51,0,0,1,125.21,90.68Z"/><path d="M127.23,90.68a.51.51,0,0,1-.51-.5V86.89a.5.5,0,0,1,.51-.5.5.5,0,0,1,.5.5v3.29A.5.5,0,0,1,127.23,90.68Z"/><path d="M129.25,90.68a.51.51,0,0,1-.51-.5V86.89a.5.5,0,0,1,.51-.5.5.5,0,0,1,.5.5v3.29A.5.5,0,0,1,129.25,90.68Z"/><path d="M131.27,90.68a.51.51,0,0,1-.51-.5V86.89a.5.5,0,0,1,.51-.5.5.5,0,0,1,.5.5v3.29A.5.5,0,0,1,131.27,90.68Z"/><path d="M133.29,90.68a.51.51,0,0,1-.51-.5V86.89a.5.5,0,0,1,.51-.5.5.5,0,0,1,.5.5v3.29A.5.5,0,0,1,133.29,90.68Z"/><path d="M135.31,90.68a.5.5,0,0,1-.5-.5V86.89a.5.5,0,0,1,.5-.5.5.5,0,0,1,.51.5v3.29A.51.51,0,0,1,135.31,90.68Z"/><path d="M137.33,90.68a.5.5,0,0,1-.5-.5V86.89a.5.5,0,0,1,.5-.5.5.5,0,0,1,.51.5v3.29A.51.51,0,0,1,137.33,90.68Z"/><path d="M139.35,90.68a.5.5,0,0,1-.5-.5V86.89a.5.5,0,0,1,.5-.5.5.5,0,0,1,.51.5v3.29A.51.51,0,0,1,139.35,90.68Z"/><path d="M141.37,90.68a.5.5,0,0,1-.5-.5V86.89a.5.5,0,0,1,.5-.5.5.5,0,0,1,.51.5v3.29A.51.51,0,0,1,141.37,90.68Z"/><path d="M143.39,90.68a.5.5,0,0,1-.5-.5V86.89a.5.5,0,0,1,.5-.5.5.5,0,0,1,.51.5v3.29A.51.51,0,0,1,143.39,90.68Z"/><path d="M145.42,90.68a.51.51,0,0,1-.51-.5V86.89a.51.51,0,0,1,1,0v3.29A.51.51,0,0,1,145.42,90.68Z"/><path d="M147.44,90.68a.51.51,0,0,1-.51-.5V86.89a.5.5,0,0,1,.51-.5.5.5,0,0,1,.5.5v3.29A.5.5,0,0,1,147.44,90.68Z"/><path d="M149.46,90.68a.51.51,0,0,1-.51-.5V86.89a.5.5,0,0,1,.51-.5.5.5,0,0,1,.5.5v3.29A.5.5,0,0,1,149.46,90.68Z"/><path d="M151.48,90.68a.51.51,0,0,1-.51-.5V86.89a.5.5,0,0,1,.51-.5.5.5,0,0,1,.5.5v3.29A.5.5,0,0,1,151.48,90.68Z"/><path d="M153.5,90.68a.51.51,0,0,1-.51-.5V86.89a.5.5,0,0,1,.51-.5.5.5,0,0,1,.5.5v3.29A.5.5,0,0,1,153.5,90.68Z"/><path d="M155.52,90.68a.51.51,0,0,1-.51-.5V86.89a.51.51,0,0,1,1,0v3.29A.51.51,0,0,1,155.52,90.68Z"/><path d="M149.46,90.68a.51.51,0,0,1-.51-.5V86.89a.5.5,0,0,1,.51-.5.5.5,0,0,1,.5.5v3.29A.5.5,0,0,1,149.46,90.68Z"/><path d="M151.48,90.68a.51.51,0,0,1-.51-.5V86.89a.5.5,0,0,1,.51-.5.5.5,0,0,1,.5.5v3.29A.5.5,0,0,1,151.48,90.68Z"/><path d="M153.5,90.68a.51.51,0,0,1-.51-.5V86.89a.5.5,0,0,1,.51-.5.5.5,0,0,1,.5.5v3.29A.5.5,0,0,1,153.5,90.68Z"/><path d="M155.52,90.68a.51.51,0,0,1-.51-.5V86.89a.51.51,0,0,1,1,0v3.29A.51.51,0,0,1,155.52,90.68Z"/><path d="M157.54,90.68a.5.5,0,0,1-.5-.5V86.89a.5.5,0,0,1,.5-.5.5.5,0,0,1,.51.5v3.29A.51.51,0,0,1,157.54,90.68Z"/><path d="M159.56,90.68a.5.5,0,0,1-.5-.5V86.89a.5.5,0,0,1,.5-.5.5.5,0,0,1,.51.5v3.29A.51.51,0,0,1,159.56,90.68Z"/><path d="M161.58,90.68a.5.5,0,0,1-.5-.5V86.89a.5.5,0,0,1,.5-.5.5.5,0,0,1,.51.5v3.29A.51.51,0,0,1,161.58,90.68Z"/><path d="M163.6,90.68a.5.5,0,0,1-.5-.5V86.89a.5.5,0,0,1,.5-.5.5.5,0,0,1,.51.5v3.29A.51.51,0,0,1,163.6,90.68Z"/><path d="M165.62,90.68a.51.51,0,0,1-.5-.5V86.89a.51.51,0,0,1,1,0v3.29A.51.51,0,0,1,165.62,90.68Z"/><path d="M167.65,90.68a.51.51,0,0,1-.51-.5V86.89a.51.51,0,0,1,1,0v3.29A.51.51,0,0,1,167.65,90.68Z"/><path d="M169.67,90.68a.51.51,0,0,1-.51-.5V86.89a.5.5,0,0,1,.51-.5.5.5,0,0,1,.5.5v3.29A.5.5,0,0,1,169.67,90.68Z"/><path d="M171.69,90.68a.51.51,0,0,1-.51-.5V86.89a.5.5,0,0,1,.51-.5.5.5,0,0,1,.5.5v3.29A.5.5,0,0,1,171.69,90.68Z"/><path d="M173.71,90.68a.51.51,0,0,1-.51-.5V86.89a.5.5,0,0,1,.51-.5.5.5,0,0,1,.5.5v3.29A.5.5,0,0,1,173.71,90.68Z"/><path d="M175.73,90.68a.51.51,0,0,1-.51-.5V86.89a.5.5,0,0,1,.51-.5.5.5,0,0,1,.5.5v3.29A.5.5,0,0,1,175.73,90.68Z"/><path d="M177.75,90.68a.5.5,0,0,1-.5-.5V86.89a.5.5,0,0,1,.5-.5.5.5,0,0,1,.51.5v3.29A.51.51,0,0,1,177.75,90.68Z"/><path d="M179.77,90.68a.5.5,0,0,1-.5-.5V86.89a.5.5,0,0,1,.5-.5.5.5,0,0,1,.51.5v3.29A.51.51,0,0,1,179.77,90.68Z"/></g><path class="cls-1" d="M124.7,90.68a.5.5,0,0,1-.5-.5V86.89a.5.5,0,0,1,.5-.5.5.5,0,0,1,.51.5v3.29A.51.51,0,0,1,124.7,90.68Z"/><path class="cls-1" d="M126.72,90.68a.5.5,0,0,1-.5-.5V86.89a.5.5,0,0,1,.5-.5.5.5,0,0,1,.51.5v3.29A.51.51,0,0,1,126.72,90.68Z"/><path class="cls-1" d="M128.74,90.68a.5.5,0,0,1-.5-.5V86.89a.5.5,0,0,1,.5-.5.5.5,0,0,1,.51.5v3.29A.51.51,0,0,1,128.74,90.68Z"/><path class="cls-1" d="M130.76,90.68a.5.5,0,0,1-.5-.5V86.89a.5.5,0,0,1,.5-.5.5.5,0,0,1,.51.5v3.29A.51.51,0,0,1,130.76,90.68Z"/><path class="cls-1" d="M132.78,90.68a.51.51,0,0,1-.5-.5V86.89a.51.51,0,0,1,1,0v3.29A.51.51,0,0,1,132.78,90.68Z"/><path class="cls-1" d="M134.81,90.68a.51.51,0,0,1-.51-.5V86.89a.51.51,0,0,1,1,0v3.29A.51.51,0,0,1,134.81,90.68Z"/><path class="cls-1" d="M136.83,90.68a.51.51,0,0,1-.51-.5V86.89a.5.5,0,0,1,.51-.5.5.5,0,0,1,.5.5v3.29A.5.5,0,0,1,136.83,90.68Z"/><path class="cls-1" d="M138.85,90.68a.51.51,0,0,1-.51-.5V86.89a.5.5,0,0,1,.51-.5.5.5,0,0,1,.5.5v3.29A.5.5,0,0,1,138.85,90.68Z"/><path class="cls-1" d="M140.87,90.68a.51.51,0,0,1-.51-.5V86.89a.5.5,0,0,1,.51-.5.5.5,0,0,1,.5.5v3.29A.5.5,0,0,1,140.87,90.68Z"/><path class="cls-1" d="M142.89,90.68a.51.51,0,0,1-.51-.5V86.89a.5.5,0,0,1,.51-.5.5.5,0,0,1,.5.5v3.29A.5.5,0,0,1,142.89,90.68Z"/><path class="cls-1" d="M144.91,90.68a.51.51,0,0,1-.51-.5V86.89a.51.51,0,0,1,1,0v3.29A.51.51,0,0,1,144.91,90.68Z"/><path class="cls-1" d="M146.93,90.68a.5.5,0,0,1-.5-.5V86.89a.5.5,0,0,1,.5-.5.5.5,0,0,1,.51.5v3.29A.51.51,0,0,1,146.93,90.68Z"/><path class="cls-1" d="M149,90.68a.5.5,0,0,1-.5-.5V86.89a.5.5,0,0,1,.5-.5.5.5,0,0,1,.51.5v3.29A.51.51,0,0,1,149,90.68Z"/><path class="cls-1" d="M151,90.68a.5.5,0,0,1-.5-.5V86.89a.5.5,0,0,1,.5-.5.5.5,0,0,1,.51.5v3.29A.51.51,0,0,1,151,90.68Z"/><path class="cls-1" d="M153,90.68a.5.5,0,0,1-.5-.5V86.89a.5.5,0,0,1,.5-.5.5.5,0,0,1,.51.5v3.29A.51.51,0,0,1,153,90.68Z"/><path class="cls-1" d="M155,90.68a.51.51,0,0,1-.5-.5V86.89a.51.51,0,0,1,1,0v3.29A.51.51,0,0,1,155,90.68Z"/><path class="cls-1" d="M149,90.68a.5.5,0,0,1-.5-.5V86.89a.5.5,0,0,1,.5-.5.5.5,0,0,1,.51.5v3.29A.51.51,0,0,1,149,90.68Z"/><path class="cls-1" d="M151,90.68a.5.5,0,0,1-.5-.5V86.89a.5.5,0,0,1,.5-.5.5.5,0,0,1,.51.5v3.29A.51.51,0,0,1,151,90.68Z"/><path class="cls-1" d="M153,90.68a.5.5,0,0,1-.5-.5V86.89a.5.5,0,0,1,.5-.5.5.5,0,0,1,.51.5v3.29A.51.51,0,0,1,153,90.68Z"/><path class="cls-1" d="M155,90.68a.51.51,0,0,1-.5-.5V86.89a.51.51,0,0,1,1,0v3.29A.51.51,0,0,1,155,90.68Z"/><path class="cls-1" d="M157,90.68a.51.51,0,0,1-.51-.5V86.89a.51.51,0,0,1,1,0v3.29A.51.51,0,0,1,157,90.68Z"/><path class="cls-1" d="M159.06,90.68a.51.51,0,0,1-.51-.5V86.89a.5.5,0,0,1,.51-.5.5.5,0,0,1,.5.5v3.29A.5.5,0,0,1,159.06,90.68Z"/><path class="cls-1" d="M161.08,90.68a.51.51,0,0,1-.51-.5V86.89a.5.5,0,0,1,.51-.5.5.5,0,0,1,.5.5v3.29A.5.5,0,0,1,161.08,90.68Z"/><path class="cls-1" d="M163.1,90.68a.51.51,0,0,1-.51-.5V86.89a.5.5,0,0,1,.51-.5.5.5,0,0,1,.5.5v3.29A.5.5,0,0,1,163.1,90.68Z"/><path class="cls-1" d="M165.12,90.68a.51.51,0,0,1-.51-.5V86.89a.5.5,0,0,1,.51-.5.5.5,0,0,1,.5.5v3.29A.5.5,0,0,1,165.12,90.68Z"/><path class="cls-1" d="M167.14,90.68a.5.5,0,0,1-.5-.5V86.89a.5.5,0,0,1,.5-.5.5.5,0,0,1,.51.5v3.29A.51.51,0,0,1,167.14,90.68Z"/><path class="cls-1" d="M169.16,90.68a.5.5,0,0,1-.5-.5V86.89a.5.5,0,0,1,.5-.5.5.5,0,0,1,.51.5v3.29A.51.51,0,0,1,169.16,90.68Z"/><path class="cls-1" d="M171.18,90.68a.5.5,0,0,1-.5-.5V86.89a.5.5,0,0,1,.5-.5.5.5,0,0,1,.51.5v3.29A.51.51,0,0,1,171.18,90.68Z"/><path class="cls-1" d="M173.2,90.68a.5.5,0,0,1-.5-.5V86.89a.5.5,0,0,1,.5-.5.5.5,0,0,1,.51.5v3.29A.51.51,0,0,1,173.2,90.68Z"/><path class="cls-1" d="M175.22,90.68a.5.5,0,0,1-.5-.5V86.89a.5.5,0,0,1,.5-.5.5.5,0,0,1,.51.5v3.29A.51.51,0,0,1,175.22,90.68Z"/><path class="cls-1" d="M177.25,90.68a.51.51,0,0,1-.51-.5V86.89a.51.51,0,0,1,1,0v3.29A.51.51,0,0,1,177.25,90.68Z"/><path class="cls-1" d="M179.27,90.68a.51.51,0,0,1-.51-.5V86.89a.5.5,0,0,1,.51-.5.5.5,0,0,1,.5.5v3.29A.5.5,0,0,1,179.27,90.68Z"/><g class="cls-3"><path d="M182.21,82.34l0,1H121.76c0-.18,0-.34,0-.51s0-.33,0-.51Z"/></g><path class="cls-1" d="M182.22,81.84c0,.17,0,.33,0,.5H121.76c0-.17,0-.33,0-.5s0-.34,0-.51h60.45C182.22,81.5,182.22,81.66,182.22,81.84Z"/><path class="cls-1" d="M181.17,89.71l-.15.5v.51H122.94v-.51l-.14-.5Z"/><polygon class="cls-4" points="151.73 42.85 147.59 53.87 139.21 53.87 151.73 42.85"/><polygon class="cls-2" points="164.76 53.88 156.38 53.88 156.28 53.63 155.52 51.83 155.51 51.83 155.43 51.61 155.42 51.59 151.73 42.85 162.08 51.6 162.08 51.61 164.47 53.63 164.76 53.88"/><path class="cls-2" d="M167.49,55.9h-31c.35-.22.69-.42,1-.6s.46-.25.69-.36.24-.14.37-.2l.79-.37c.38-.18.75-.34,1.14-.49h-1.3v-.25h25.55v.25h-1.31A26.73,26.73,0,0,1,167.49,55.9Z"/><rect class="cls-1" x="139.21" y="51.61" width="25.54" height="2.26"/><polygon class="cls-4" points="139.21 51.61 139.21 53.87 147.59 53.87 148.45 51.59 139.21 51.61"/><polygon class="cls-2" points="164.76 51.61 164.76 53.88 156.38 53.88 156.28 53.63 155.52 51.83 155.51 51.83 155.43 51.61 155.42 51.59 162.08 51.6 164.76 51.61"/><path class="cls-7" d="M203.43,97.23v.16a9.38,9.38,0,0,1-.34,2.39s0,.11,0,.16H184.26s0-.11,0-.16a9.85,9.85,0,0,1-.34-2.39v-.32a9.78,9.78,0,0,1,19.56,0Z"/><path class="cls-2" d="M203.43,97.07a9.77,9.77,0,0,0-9.78-9.62,10.57,10.57,0,0,0-1.14.07,9.78,9.78,0,0,1,8.63,9.55v.32a9.38,9.38,0,0,1-.34,2.39.94.94,0,0,1,0,.16h2.29s0-.11,0-.16a9.38,9.38,0,0,0,.34-2.39v-.32Z"/><path class="cls-4" d="M186.16,97.39v-.32a9.78,9.78,0,0,1,8.64-9.55,10.92,10.92,0,0,0-1.15-.07,9.79,9.79,0,0,0-9.78,9.62v.32a9.85,9.85,0,0,0,.34,2.39s0,.11,0,.16h2.28s0-.11,0-.16A9.38,9.38,0,0,1,186.16,97.39Z"/><path class="cls-7" d="M189.43,99.94v9.6h.86v-4.73a3.32,3.32,0,0,1,3.32-3.32h0a3.32,3.32,0,0,1,3.32,3.32v4.73h.86v-9.6Z"/><path class="cls-8" d="M189.43,99.94v9.6h.86v-4.73a3.32,3.32,0,0,1,3.32-3.32h0a3.32,3.32,0,0,1,3.32,3.32v4.73h.86v-9.6Z"/><path class="cls-7" d="M186.79,101.54a2.44,2.44,0,0,1,.5.16c-1,.45-1.32,1.67-1.32,3.11h0v4.73H184.1v-6.19C184.32,102.41,185.81,101.71,186.79,101.54Z"/><path class="cls-7" d="M200.52,101.54a2.35,2.35,0,0,0-.51.16c1,.45,1.32,1.67,1.32,3.11h0v4.73h1.87v-6.19C203,102.41,201.49,101.71,200.52,101.54Z"/><path class="cls-8" d="M200.52,101.54a2.35,2.35,0,0,0-.51.16c1,.45,1.32,1.67,1.32,3.11h0v4.73h1.87v-6.19C203,102.41,201.49,101.71,200.52,101.54Z"/><path class="cls-1" d="M197.83,99.94v9.6h.86v-4.73h0c0-1.66.4-3,1.83-3.27,1.42.25,1.82,1.61,1.82,3.27h0v4.73h.86v-9.6Z"/><path class="cls-8" d="M186.79,101.54a2.44,2.44,0,0,1,.5.16c-1,.45-1.32,1.67-1.32,3.11h0v4.73H184.1v-6.19C184.32,102.41,185.81,101.71,186.79,101.54Z"/><path class="cls-7" d="M189.47,99.94v9.6h-.86v-4.73h0c0-1.66-.4-3-1.82-3.27-1.43.25-1.83,1.61-1.83,3.27h0v4.73h-.86v-9.6Z"/><rect class="cls-1" x="183.71" y="99.25" width="19.88" height="0.69"/><rect class="cls-8" x="184.1" y="99.94" width="19.1" height="0.48"/><polygon class="cls-1" points="193.62 86.02 190.4 88 196.91 88 193.62 86.02"/><polygon class="cls-4" points="193.05 86.37 193.62 86.72 191.54 88 190.4 88 193.05 86.37"/><polygon class="cls-4" points="194.19 86.36 194.18 86.37 193.62 86.02 194.19 86.36"/><polygon class="cls-2" points="194.18 86.37 193.62 86.72 193.05 86.37 193.62 86.02 194.18 86.37"/><polygon class="cls-2" points="193.62 86.02 193.05 86.37 193.04 86.36 193.62 86.02"/><polygon class="cls-2" points="196.91 88 195.7 88 193.62 86.72 194.19 86.36 196.91 88"/><polygon class="cls-1" points="193.03 86.39 193.65 78.38 194.23 86.39 193.03 86.39"/><polygon class="cls-2" points="194.23 86.38 194 86.38 193.65 81.46 193.77 79.92 194.23 86.38"/><polygon class="cls-2" points="193.77 79.91 193.77 79.92 193.65 81.46 193.53 79.93 193.66 78.38 193.77 79.91"/><polygon class="cls-4" points="193.65 81.46 193.26 86.38 193.03 86.38 193.53 79.93 193.65 81.46"/><path class="cls-7" d="M120.08,97.06v.34c0,.22,0,.44,0,.66s0,.34-.05.5-.07.46-.12.69-.08.36-.13.53,0,.1,0,.16H100.9c0-.06,0-.11,0-.16s-.09-.35-.13-.53a10.38,10.38,0,0,1-.21-1.85v-.34a9.76,9.76,0,0,1,5.41-8.58A7.55,7.55,0,0,1,107.1,88a9.59,9.59,0,0,1,1.81-.45l.25,0a5.25,5.25,0,0,1,.57,0,5.43,5.43,0,0,1,.57,0h.28a1.45,1.45,0,0,1,.3,0,5.29,5.29,0,0,1,.56,0l.16,0c.26,0,.52.08.76.14l.36.08a6.43,6.43,0,0,1,.78.24l.13,0a3.8,3.8,0,0,1,.47.18c.2.08.38.16.58.26s.3.16.44.25a6,6,0,0,1,.6.36,1.88,1.88,0,0,1,.23.16,1.64,1.64,0,0,1,.33.26,1.33,1.33,0,0,1,.19.14,6.75,6.75,0,0,1,.64.56l.44.46a6.31,6.31,0,0,1,.53.63,4.56,4.56,0,0,1,.27.39,8.78,8.78,0,0,1,1,1.75,5.12,5.12,0,0,1,.25.65c.1.3.19.61.26.92a5.6,5.6,0,0,1,.12.59s0,.05,0,.08c0,.22.06.45.08.69S120.08,96.83,120.08,97.06Z"/><path class="cls-2" d="M120.08,97.06v.34c0,.22,0,.44,0,.66s0,.34-.05.5-.07.46-.12.69-.08.36-.13.53,0,.1,0,.16h-2.3a1.66,1.66,0,0,0,.06-.16,4.54,4.54,0,0,0,.12-.53,9.53,9.53,0,0,0,.21-1.85.92.92,0,0,0,0-.16,1,1,0,0,0,0-.18,9.76,9.76,0,0,0-5.41-8.58,7.33,7.33,0,0,0-1.15-.48,7.59,7.59,0,0,0-.93-.27,8.79,8.79,0,0,0-1.14-.21,5.25,5.25,0,0,1,.57,0,5.43,5.43,0,0,1,.57,0h.28a1.45,1.45,0,0,1,.3,0,5.29,5.29,0,0,1,.56,0l.16,0c.26,0,.52.08.76.14l.36.08a6.43,6.43,0,0,1,.78.24l.13,0a3.8,3.8,0,0,1,.47.18c.2.08.38.16.58.26s.3.16.44.25a6,6,0,0,1,.6.36,1.88,1.88,0,0,1,.23.16,1.64,1.64,0,0,1,.33.26,1.33,1.33,0,0,1,.19.14c.22.18.44.36.64.56l.44.46a6.31,6.31,0,0,1,.53.63,4.56,4.56,0,0,1,.27.39,8.78,8.78,0,0,1,1,1.75,5.12,5.12,0,0,1,.25.65c.1.3.19.61.26.92a5.6,5.6,0,0,1,.12.59s0,.05,0,.08c0,.22.06.45.08.69S120.08,96.83,120.08,97.06Z"/><path class="cls-4" d="M111.44,87.52a9.12,9.12,0,0,0-1.14.21,7.59,7.59,0,0,0-.93.27,7.75,7.75,0,0,0-1.15.48,9.78,9.78,0,0,0-5.41,8.58,1,1,0,0,0,0,.18.92.92,0,0,0,0,.16,8.83,8.83,0,0,0,.22,1.85,4.54,4.54,0,0,0,.12.53s0,.1,0,.16h-2.3c0-.06,0-.11,0-.16s-.09-.35-.13-.53a10.38,10.38,0,0,1-.21-1.85v-.34a9.76,9.76,0,0,1,5.41-8.58A7.55,7.55,0,0,1,107.1,88a9.59,9.59,0,0,1,1.81-.45l.25,0a5.25,5.25,0,0,1,.57,0,5.43,5.43,0,0,1,.57,0,5.62,5.62,0,0,1,.58,0A5.29,5.29,0,0,1,111.44,87.52Z"/><path class="cls-7" d="M106.08,99.94v9.6h.86v-4.73a3.32,3.32,0,0,1,3.32-3.32h0a3.32,3.32,0,0,1,3.32,3.32v4.73h.86v-9.6Z"/><path class="cls-8" d="M106.08,99.94v9.6h.86v-4.73a3.32,3.32,0,0,1,3.32-3.32h0a3.32,3.32,0,0,1,3.32,3.32v4.73h.86v-9.6Z"/><path class="cls-7" d="M103.44,101.54a2.44,2.44,0,0,1,.5.16c-1,.45-1.32,1.67-1.32,3.11h0v4.73h-1.87v-6.19C101,102.41,102.46,101.71,103.44,101.54Z"/><path class="cls-7" d="M117.17,101.54a2.35,2.35,0,0,0-.51.16c1,.45,1.32,1.67,1.32,3.11h0v4.73h1.87v-6.19C119.64,102.41,118.14,101.71,117.17,101.54Z"/><path class="cls-8" d="M117.17,101.54a2.35,2.35,0,0,0-.51.16c1,.45,1.32,1.67,1.32,3.11h0v4.73h1.87v-6.19C119.64,102.41,118.14,101.71,117.17,101.54Z"/><path class="cls-1" d="M114.48,99.94v9.6h.86v-4.73h0c0-1.66.4-3,1.83-3.27,1.42.25,1.82,1.61,1.82,3.27h0v4.73h.86v-9.6Z"/><path class="cls-8" d="M103.44,101.54a2.44,2.44,0,0,1,.5.16c-1,.45-1.32,1.67-1.32,3.11h0v4.73h-1.87v-6.19C101,102.41,102.46,101.71,103.44,101.54Z"/><path class="cls-7" d="M106.12,99.94v9.6h-.86v-4.73h0c0-1.66-.4-3-1.82-3.27-1.43.25-1.83,1.61-1.83,3.27h0v4.73h-.86v-9.6Z"/><rect class="cls-1" x="100.36" y="99.25" width="19.88" height="0.69"/><rect class="cls-8" x="100.75" y="99.94" width="19.1" height="0.48"/><polygon class="cls-1" points="113.56 88 107.05 88 109.67 86.38 109.69 86.37 109.92 86.23 110.26 86.02 110.27 86.02 110.64 86.24 110.84 86.36 110.87 86.38 110.88 86.38 113.56 88"/><polygon class="cls-4" points="110.26 86.72 108.91 87.56 108.19 88 107.05 88 109.67 86.38 109.69 86.37 109.72 86.38 110.26 86.72"/><polygon class="cls-4" points="110.84 86.36 110.83 86.37 110.27 86.02 110.84 86.36"/><polygon class="cls-2" points="110.83 86.37 110.27 86.72 109.7 86.37 110.27 86.02 110.83 86.37"/><polygon class="cls-2" points="110.27 86.02 109.7 86.37 109.69 86.36 110.27 86.02"/><polygon class="cls-2" points="113.56 88 112.34 88 111.61 87.55 110.26 86.72 110.81 86.38 110.83 86.37 110.84 86.36 110.87 86.38 110.88 86.38 113.56 88"/><polygon class="cls-1" points="109.68 86.39 110.3 78.38 110.88 86.39 109.68 86.39"/><polygon class="cls-2" points="110.88 86.38 110.65 86.38 110.3 81.46 110.42 79.92 110.88 86.38"/><polygon class="cls-2" points="110.42 79.91 110.42 79.92 110.3 81.46 110.18 79.93 110.31 78.38 110.42 79.91"/><polygon class="cls-4" points="110.3 81.46 109.91 86.38 109.68 86.38 110.18 79.93 110.3 81.46"/><path class="cls-2" d="M114.68,88.48h-8.75A7.55,7.55,0,0,1,107.1,88h6.4l.13,0a3.8,3.8,0,0,1,.47.18C114.3,88.3,114.48,88.38,114.68,88.48Z"/><path class="cls-2" d="M198,88.48h-8.75a7.55,7.55,0,0,1,1.17-.48h6.4l.13,0a3.8,3.8,0,0,1,.47.18C197.65,88.3,197.83,88.38,198,88.48Z"/><path class="cls-8" d="M181,90.72c0,.27,0,.19,0,.5v.51H122.94v-.51c0-.17,0-.33,0-.5Z"/><polygon class="cls-2" points="233.7 90.87 233.7 90.87 233.65 91.49 233.61 90.88 233.66 90.26 233.7 90.87"/><polygon class="cls-7" points="239.14 181.5 225.73 181.5 226.88 153.45 226.9 153.11 226.9 153.04 226.94 151.99 226.94 151.93 226.96 151.6 227.72 133.05 227.73 132.94 227.78 131.65 227.79 131.49 228.67 110.08 228.68 109.86 228.71 109.02 236.16 109.02 236.19 109.86 236.2 110 236.2 110.09 237.07 131.49 237.09 131.63 237.14 132.94 237.15 133.09 237.9 151.6 237.91 151.93 237.91 151.99 237.96 153.04 237.96 153.11 237.97 153.45 239.14 181.5"/><polygon class="cls-13" points="239.14 181.5 225.73 181.5 226.88 153.45 226.9 153.11 226.9 153.04 226.94 151.99 226.94 151.93 226.96 151.6 227.72 133.05 227.73 132.94 227.78 131.65 227.79 131.49 228.67 110.08 228.68 109.86 228.71 109.02 236.16 109.02 236.19 109.86 236.2 110 236.2 110.09 237.07 131.49 237.09 131.63 237.14 132.94 237.15 133.09 237.9 151.6 237.91 151.93 237.91 151.99 237.96 153.04 237.96 153.11 237.97 153.45 239.14 181.5"/><path class="cls-7" d="M236.36,103.45a.17.17,0,0,1,0,.07,3.57,3.57,0,0,1-.08.74,1.42,1.42,0,0,1-.05.22.64.64,0,0,0,0,.07h-7.55a.15.15,0,0,0,0-.07,1.42,1.42,0,0,1,0-.22,3,3,0,0,1-.09-.74v-.13a4,4,0,0,1,2.16-3.44,2.46,2.46,0,0,1,.47-.2h0a3.38,3.38,0,0,1,.73-.17.22.22,0,0,1,.12,0h.08a3.43,3.43,0,0,1,.74,0H233a3.32,3.32,0,0,1,.77.18h0a2.46,2.46,0,0,1,.47.2,3.92,3.92,0,0,1,2.15,3.44A.13.13,0,0,1,236.36,103.45Z"/><path class="cls-8" d="M236.36,103.45a.17.17,0,0,1,0,.07,3.57,3.57,0,0,1-.08.74,1.42,1.42,0,0,1-.05.22.64.64,0,0,0,0,.07h-7.55a.15.15,0,0,0,0-.07,1.42,1.42,0,0,1,0-.22,3,3,0,0,1-.09-.74v-.13a4,4,0,0,1,2.16-3.44,2.46,2.46,0,0,1,.47-.2h0a3.38,3.38,0,0,1,.73-.17.22.22,0,0,1,.12,0h.08a3.43,3.43,0,0,1,.74,0H233a3.32,3.32,0,0,1,.77.18h0a2.46,2.46,0,0,1,.47.2,3.92,3.92,0,0,1,2.15,3.44A.13.13,0,0,1,236.36,103.45Z"/><path class="cls-2" d="M236.36,103.39a3.93,3.93,0,0,0-3.93-3.86,3.44,3.44,0,0,0-.46,0,3.92,3.92,0,0,1,3.47,3.83v.13a4.36,4.36,0,0,1-.14,1,.14.14,0,0,1,0,.06h.92s0,0,0-.06a4.36,4.36,0,0,0,.14-1v-.13Z"/><path class="cls-4" d="M232.88,99.56a2.39,2.39,0,0,0-.45.09,2.24,2.24,0,0,0-.37.1,2.86,2.86,0,0,0-.48.2,3.89,3.89,0,0,0-2.16,3.44v.13a4.28,4.28,0,0,0,.09.74,1.43,1.43,0,0,0,0,.22l0,.07h-.93a.15.15,0,0,0,0-.07,1.42,1.42,0,0,1,0-.22,3,3,0,0,1-.09-.74v-.13a4,4,0,0,1,2.16-3.44,2.46,2.46,0,0,1,.47-.2h0a3.38,3.38,0,0,1,.73-.17.22.22,0,0,1,.12,0h.08a3.43,3.43,0,0,1,.74,0Z"/><path class="cls-7" d="M230.73,104.54v3.86h.35v-1.9a1.32,1.32,0,0,1,1.33-1.33h0a1.33,1.33,0,0,1,1.33,1.33v1.9h.35v-3.86Z"/><path class="cls-8" d="M230.73,104.54v3.86h.35v-1.9a1.32,1.32,0,0,1,1.33-1.33h0a1.33,1.33,0,0,1,1.33,1.33v1.9h.35v-3.86Z"/><path class="cls-7" d="M229.87,105.25c-.4.18-.52.68-.52,1.25v1.9h-.76v-2.48c.09-.39.69-.66,1.08-.73A.66.66,0,0,1,229.87,105.25Z"/><path class="cls-7" d="M235.19,105.19a.65.65,0,0,0-.21.06c.41.18.53.67.53,1.25h0v1.9h.76v-2.49C236.18,105.53,235.58,105.26,235.19,105.19Z"/><path class="cls-8" d="M235.19,105.19a.65.65,0,0,0-.21.06c.41.18.53.67.53,1.25h0v1.9h.76v-2.49C236.18,105.53,235.58,105.26,235.19,105.19Z"/><path class="cls-1" d="M234.11,104.54v3.86h.34v-1.9h0c0-.67.16-1.21.74-1.31.57.1.73.64.73,1.31h0v1.9h.35v-3.86Z"/><path class="cls-8" d="M229.87,105.25c-.4.18-.52.68-.52,1.25v1.9h-.76v-2.48c.09-.39.69-.66,1.08-.73A.66.66,0,0,1,229.87,105.25Z"/><path class="cls-7" d="M230.75,104.54v3.86h-.34v-1.9c0-.58-.13-1.07-.54-1.25a.66.66,0,0,0-.2-.06c-.57.1-.73.64-.73,1.31v1.9h-.35v-3.86Z"/><rect class="cls-1" x="228.44" y="104.27" width="7.98" height="0.28"/><rect class="cls-8" x="228.59" y="104.54" width="7.67" height="0.19"/><polygon class="cls-1" points="233.72 99.75 231.13 99.75 231.14 99.75 232 99.21 232.18 99.1 232.19 99.1 232.28 99.04 232.42 98.96 232.57 99.05 232.64 99.09 232.65 99.09 232.65 99.1 232.66 99.1 233.7 99.75 233.72 99.75"/><polygon class="cls-4" points="232.19 99.09 232.41 99.23 231.58 99.75 231.12 99.75 232.19 99.09"/><polygon class="cls-4" points="232.65 99.09 232.64 99.09 232.41 98.95 232.65 99.09"/><polygon class="cls-2" points="232.64 99.09 232.41 99.23 232.19 99.09 232.41 98.95 232.64 99.09"/><polygon class="cls-2" points="232.41 98.95 232.19 99.09 232.18 99.09 232.41 98.95"/><polygon class="cls-2" points="233.7 99.75 233.25 99.75 232.97 99.57 232.96 99.57 232.42 99.23 232.63 99.1 232.64 99.1 232.64 99.09 232.65 99.09 232.66 99.1 233.7 99.75"/><polygon class="cls-1" points="232.18 99.1 232.43 95.88 232.66 99.1 232.18 99.1"/><polygon class="cls-2" points="232.66 99.1 232.57 99.1 232.43 97.12 232.47 96.5 232.66 99.1"/><polygon class="cls-2" points="232.47 96.5 232.47 96.5 232.43 97.12 232.38 96.5 232.43 95.88 232.47 96.5"/><polygon class="cls-4" points="232.43 97.12 232.27 99.1 232.18 99.1 232.38 96.5 232.43 97.12"/><path class="cls-8" d="M237.6,131.71h-.2v.82h-.25v.56H237v1.14a.19.19,0,0,1-.19.19.18.18,0,0,1-.18-.14.09.09,0,0,1,0-.05v-1.14h-.38v1.14a.19.19,0,0,1-.2.19.19.19,0,0,1-.18-.14.09.09,0,0,1,0-.05v-1.14h-.37v1.14a.19.19,0,0,1-.19.19.2.2,0,0,1-.19-.14.09.09,0,0,1,0-.05v-1.14h-.38v1.14a.18.18,0,0,1-.19.19.19.19,0,0,1-.18-.14.09.09,0,0,1,0-.05v-1.14H234v1.14a.18.18,0,0,1-.19.19.18.18,0,0,1-.17-.14.09.09,0,0,1,0-.05v-1.14h-.39v1.14a.19.19,0,0,1-.19.19.18.18,0,0,1-.18-.14.09.09,0,0,1,0-.05v-1.14h-.38v1.14a.19.19,0,0,1-.2.19.19.19,0,0,1-.18-.14.09.09,0,0,1,0-.05v-1.14h-.37v1.14a.19.19,0,0,1-.19.19.18.18,0,0,1-.18-.14.09.09,0,0,1,0-.05v-1.14h-.39v1.14a.18.18,0,0,1-.19.19.19.19,0,0,1-.18-.14.09.09,0,0,1,0-.05v-1.14h-.39v1.14a.18.18,0,0,1-.19.19.18.18,0,0,1-.17-.14.09.09,0,0,1,0-.05v-1.14h-.38v1.14a.2.2,0,0,1-.2.19.18.18,0,0,1-.18-.14.09.09,0,0,1,0-.05v-1.14h-.38v1.14a.18.18,0,0,1-.19.19.2.2,0,0,1-.19-.14.09.09,0,0,1,0-.05v-1.14H228a.79.79,0,0,1-.23,0h0v-.61h-.48s0-.05,0-.07a.73.73,0,0,1,.56-.71l.17,0h9.34A.62.62,0,0,1,237.6,131.71Z"/><path class="cls-2" d="M234.22,100h-3.56a2.46,2.46,0,0,1,.47-.2h2.6l.05,0a.89.89,0,0,1,.19.07Z"/><path class="cls-1" d="M237.82,132.22a.74.74,0,0,1-.67.73h-9.44a.75.75,0,0,1-.68-.73.72.72,0,0,1,.73-.73h9.34A.72.72,0,0,1,237.82,132.22Z"/><path class="cls-1" d="M228.23,132.65a.19.19,0,0,0-.19.2v1.24a.19.19,0,0,0,.19.19.2.2,0,0,0,.19-.19v-1.24A.2.2,0,0,0,228.23,132.65Z"/><path class="cls-1" d="M229,132.65a.2.2,0,0,0-.19.2v1.24a.2.2,0,0,0,.19.19.19.19,0,0,0,.19-.19v-1.24A.19.19,0,0,0,229,132.65Z"/><path class="cls-1" d="M229.75,132.65a.2.2,0,0,0-.19.2v1.24a.2.2,0,0,0,.19.19.2.2,0,0,0,.2-.19v-1.24A.2.2,0,0,0,229.75,132.65Z"/><path class="cls-1" d="M230.52,132.65a.19.19,0,0,0-.19.2v1.24a.19.19,0,0,0,.19.19.2.2,0,0,0,.19-.19v-1.24A.2.2,0,0,0,230.52,132.65Z"/><path class="cls-1" d="M231.28,132.65a.2.2,0,0,0-.19.2v1.24a.2.2,0,0,0,.19.19.19.19,0,0,0,.19-.19v-1.24A.19.19,0,0,0,231.28,132.65Z"/><path class="cls-1" d="M232.05,132.65a.19.19,0,0,0-.19.2v1.24a.19.19,0,0,0,.19.19.2.2,0,0,0,.19-.19v-1.24A.2.2,0,0,0,232.05,132.65Z"/><path class="cls-1" d="M232.81,132.65a.2.2,0,0,0-.19.2v1.24a.2.2,0,0,0,.19.19.19.19,0,0,0,.19-.19v-1.24A.19.19,0,0,0,232.81,132.65Z"/><path class="cls-1" d="M233.57,132.65a.2.2,0,0,0-.19.2v1.24a.2.2,0,0,0,.19.19.2.2,0,0,0,.2-.19v-1.24A.2.2,0,0,0,233.57,132.65Z"/><path class="cls-1" d="M234.34,132.65a.19.19,0,0,0-.19.2v1.24a.19.19,0,0,0,.19.19.2.2,0,0,0,.19-.19v-1.24A.2.2,0,0,0,234.34,132.65Z"/><path class="cls-1" d="M232.05,132.65a.19.19,0,0,0-.19.2v1.24a.19.19,0,0,0,.19.19.2.2,0,0,0,.19-.19v-1.24A.2.2,0,0,0,232.05,132.65Z"/><path class="cls-1" d="M232.81,132.65a.2.2,0,0,0-.19.2v1.24a.2.2,0,0,0,.19.19.19.19,0,0,0,.19-.19v-1.24A.19.19,0,0,0,232.81,132.65Z"/><path class="cls-1" d="M233.57,132.65a.2.2,0,0,0-.19.2v1.24a.2.2,0,0,0,.19.19.2.2,0,0,0,.2-.19v-1.24A.2.2,0,0,0,233.57,132.65Z"/><path class="cls-1" d="M234.34,132.65a.19.19,0,0,0-.19.2v1.24a.19.19,0,0,0,.19.19.2.2,0,0,0,.19-.19v-1.24A.2.2,0,0,0,234.34,132.65Z"/><path class="cls-1" d="M235.1,132.65a.2.2,0,0,0-.19.2v1.24a.2.2,0,0,0,.19.19.19.19,0,0,0,.19-.19v-1.24A.19.19,0,0,0,235.1,132.65Z"/><path class="cls-1" d="M235.87,132.65a.19.19,0,0,0-.19.2v1.24a.19.19,0,0,0,.19.19.2.2,0,0,0,.19-.19v-1.24A.2.2,0,0,0,235.87,132.65Z"/><path class="cls-1" d="M236.63,132.65a.2.2,0,0,0-.19.2v1.24a.2.2,0,0,0,.19.19.19.19,0,0,0,.19-.19v-1.24A.19.19,0,0,0,236.63,132.65Z"/><path class="cls-8" d="M238,153.45h-.2v.88a.19.19,0,0,1-.18.19.19.19,0,0,1-.19-.16v-.91H237v.88a.2.2,0,0,1-.19.19.19.19,0,0,1-.19-.16v-.91h-.38v.88a.19.19,0,0,1-.2.19.18.18,0,0,1-.18-.16,0,0,0,0,1,0,0v-.88h-.37v.88a.2.2,0,0,1-.19.19.2.2,0,0,1-.2-.16v-.91h-.38v.88a.19.19,0,0,1-.19.19.18.18,0,0,1-.18-.16,0,0,0,0,1,0,0v-.88H234v.88a.19.19,0,0,1-.37,0v-.91h-.39v.88a.2.2,0,0,1-.19.19.19.19,0,0,1-.19-.16v-.91h-.38v.88a.19.19,0,0,1-.2.19.18.18,0,0,1-.18-.16,0,0,0,0,1,0,0v-.88h-.37v.88a.2.2,0,0,1-.19.19.19.19,0,0,1-.19-.16v-.91h-.39v.88a.19.19,0,0,1-.19.19.18.18,0,0,1-.18-.16,0,0,0,0,1,0,0v-.88h-.39v.88a.19.19,0,0,1-.37,0v-.91h-.38v.88a.21.21,0,0,1-.2.19.19.19,0,0,1-.19-.16v-.91h-.38v.88a.19.19,0,0,1-.19.19.19.19,0,0,1-.19-.16,0,0,0,0,1,0,0v-.88h-.37v.88a.2.2,0,0,1-.19.19.19.19,0,0,1-.19-.16v-.91h-.59l0-.34V153l0-1H238v1.46Z"/><path class="cls-8" d="M236.2,108.63v1.46h-.35v1.1a.18.18,0,0,1-.19.19.19.19,0,0,1-.19-.19v-1.1h-.39v1.1a.18.18,0,0,1-.18.19.18.18,0,0,1-.19-.19v-1.1h-.38v1.1a.19.19,0,0,1-.2.19.18.18,0,0,1-.19-.19v-1.1h-.38v1.1a.18.18,0,0,1-.19.19.2.2,0,0,1-.2-.19v-1.1h-.37v1.1a.19.19,0,0,1-.19.19.18.18,0,0,1-.19-.19v-1.1H232v1.1a.18.18,0,0,1-.19.19.19.19,0,0,1-.19-.19v-1.1h-.39v1.1a.18.18,0,0,1-.19.19.17.17,0,0,1-.1,0,.18.18,0,0,1-.08-.16v-1.1h-.38v1.1a.19.19,0,0,1-.19.19.19.19,0,0,1-.2-.19v-1.1h-.38v1.1a.18.18,0,0,1-.19.19.19.19,0,0,1-.19-.19v-1.1h-.7v-1.44h7.54Z"/><path class="cls-1" d="M237.05,109.13a.73.73,0,0,1-.72.73h-.66V111a.19.19,0,0,1-.19.19h0a.19.19,0,0,1-.18-.19v-1.1h-.39V111a.18.18,0,0,1-.19.19.19.19,0,0,1-.19-.19v-1.1h-.39V111a.18.18,0,0,1-.19.19.18.18,0,0,1-.18-.19v-1.1h-.38V111a.19.19,0,0,1-.2.19h0A.19.19,0,0,1,233,111v-1.1h-.38V111a.18.18,0,0,1-.19.19.2.2,0,0,1-.2-.19v-1.1h-.37V111a.19.19,0,0,1-.19.19h0a.19.19,0,0,1-.18-.19v-1.1h-.39V111a.18.18,0,0,1-.1.17l-.09,0a.19.19,0,0,1-.19-.19v-1.1h-.38V111a.19.19,0,0,1-.2.19.18.18,0,0,1-.18-.19v-1.1h-.38V111a.19.19,0,0,1-.19.19h0a.19.19,0,0,1-.19-.19v-1.1h-.63a.73.73,0,1,1,0-1.46h7.79A.72.72,0,0,1,237.05,109.13Z"/><path class="cls-1" d="M227.46,152.74a.19.19,0,0,0-.19.19v1.24a.2.2,0,0,0,.19.19.19.19,0,0,0,.19-.19v-1.24A.18.18,0,0,0,227.46,152.74Z"/><path class="cls-1" d="M228.23,152.74a.18.18,0,0,0-.19.19v1.24a.19.19,0,0,0,.19.19.2.2,0,0,0,.19-.19v-1.24A.19.19,0,0,0,228.23,152.74Z"/><path class="cls-1" d="M229,152.74a.19.19,0,0,0-.19.19v1.24a.2.2,0,0,0,.19.19.19.19,0,0,0,.19-.19v-1.24A.18.18,0,0,0,229,152.74Z"/><path class="cls-1" d="M229.75,152.74a.19.19,0,0,0-.19.19v1.24a.2.2,0,0,0,.19.19.2.2,0,0,0,.2-.19v-1.24A.19.19,0,0,0,229.75,152.74Z"/><path class="cls-1" d="M230.52,152.74a.18.18,0,0,0-.19.19v1.24a.19.19,0,0,0,.19.19.2.2,0,0,0,.19-.19v-1.24A.19.19,0,0,0,230.52,152.74Z"/><path class="cls-1" d="M231.28,152.74a.19.19,0,0,0-.19.19v1.24a.2.2,0,0,0,.19.19.19.19,0,0,0,.19-.19v-1.24A.18.18,0,0,0,231.28,152.74Z"/><path class="cls-1" d="M232.05,152.74a.18.18,0,0,0-.19.19v1.24a.19.19,0,0,0,.19.19.2.2,0,0,0,.19-.19v-1.24A.19.19,0,0,0,232.05,152.74Z"/><path class="cls-1" d="M232.81,152.74a.19.19,0,0,0-.19.19v1.24a.2.2,0,0,0,.19.19.19.19,0,0,0,.19-.19v-1.24A.18.18,0,0,0,232.81,152.74Z"/><path class="cls-1" d="M233.57,152.74a.19.19,0,0,0-.19.19v1.24a.2.2,0,0,0,.19.19.2.2,0,0,0,.2-.19v-1.24A.19.19,0,0,0,233.57,152.74Z"/><path class="cls-1" d="M234.34,152.74a.18.18,0,0,0-.19.19v1.24a.19.19,0,0,0,.19.19.2.2,0,0,0,.19-.19v-1.24A.19.19,0,0,0,234.34,152.74Z"/><path class="cls-1" d="M235.1,152.74a.19.19,0,0,0-.19.19v1.24a.2.2,0,0,0,.19.19.19.19,0,0,0,.19-.19v-1.24A.18.18,0,0,0,235.1,152.74Z"/><path class="cls-1" d="M235.87,152.74a.18.18,0,0,0-.19.19v1.24a.19.19,0,0,0,.19.19.2.2,0,0,0,.19-.19v-1.24A.19.19,0,0,0,235.87,152.74Z"/><path class="cls-1" d="M236.63,152.74a.19.19,0,0,0-.19.19v1.24a.2.2,0,0,0,.19.19.19.19,0,0,0,.19-.19v-1.24A.18.18,0,0,0,236.63,152.74Z"/><path class="cls-1" d="M237.39,152.74a.19.19,0,0,0-.19.19v1.24a.2.2,0,0,0,.19.19.2.2,0,0,0,.2-.19v-1.24A.19.19,0,0,0,237.39,152.74Z"/><path class="cls-1" d="M238.86,152.32a.88.88,0,0,1,0,.17.72.72,0,0,1-.7.55H226.72a.7.7,0,0,1-.7-.55.47.47,0,0,1,0-.17.71.71,0,0,1,.73-.72h11.42A.71.71,0,0,1,238.86,152.32Z"/><path class="cls-4" d="M231.08,108.4V109l-.08,2.11v.22l-.73,20.14v.14l0,1.32v.14l-.67,18.51V152l0,1,0,.41-1,28.05h-2.69l1.15-28.05,0-.34V153h-.18a.7.7,0,0,1-.7-.55.47.47,0,0,1,0-.17.71.71,0,0,1,.73-.72H227l.76-18.55h0V133a.75.75,0,0,1-.68-.73.72.72,0,0,1,.73-.73h0l.88-21.41h0v-.22h-.12a.73.73,0,1,1,0-1.46h2.54Z"/><path class="cls-2" d="M233.77,108.4V109l.09,2.11v.22l.72,20.14v.14l0,1.32v.14l.68,18.51V152l0,1,0,.41,1,28.05h2.69L238,153.45l0-.34V153h.18a.71.71,0,0,0,.7-.55.47.47,0,0,0,0-.17.72.72,0,0,0-.73-.72h-.24l-.76-18.55h0V133a.75.75,0,0,0,.68-.73.73.73,0,0,0-.73-.73h0l-.88-21.41h0v-.22h.12a.73.73,0,0,0,0-1.46h-2.55Z"/><polygon class="cls-7" points="268.3 181.91 250.11 181.91 251.68 143.86 251.7 143.39 251.7 143.31 251.76 141.88 251.76 141.8 251.78 141.34 252.81 116.16 252.82 116.02 252.89 114.28 252.9 114.06 254.09 85 254.1 84.7 254.15 83.56 264.26 83.56 264.31 84.7 264.32 85.02 265.51 114.06 265.52 114.25 265.59 116.02 265.6 116.22 266.63 141.34 266.65 141.8 266.65 141.88 266.71 143.31 266.71 143.39 266.73 143.86 268.3 181.91"/><path class="cls-7" d="M264.54,76a.28.28,0,0,1,0,.09,4.88,4.88,0,0,1-.11,1c0,.1,0,.19-.07.29s0,.06,0,.09H254.08s0-.06,0-.09-.05-.19-.07-.29a5.69,5.69,0,0,1-.12-1v-.18a5.34,5.34,0,0,1,2.93-4.66,2.82,2.82,0,0,1,.64-.28h0a4.38,4.38,0,0,1,1-.23.41.41,0,0,1,.16,0h.11a4.07,4.07,0,0,1,.5,0,4.12,4.12,0,0,1,.51,0h.12a.15.15,0,0,1,.09,0,4.38,4.38,0,0,1,1,.24h0a2.82,2.82,0,0,1,.64.28,5.31,5.31,0,0,1,2.92,4.66A.25.25,0,0,1,264.54,76Z"/><path class="cls-2" d="M264.53,75.93a5.32,5.32,0,0,0-5.33-5.24,4.21,4.21,0,0,0-.62,0,5.33,5.33,0,0,1,4.71,5.2v.18a5.59,5.59,0,0,1-.19,1.3s0,.06,0,.09h1.24l0-.09a5.1,5.1,0,0,0,.18-1.3.41.41,0,0,0,0-.18Z"/><path class="cls-4" d="M259.82,70.73a4.52,4.52,0,0,0-.62.12,2.75,2.75,0,0,0-.49.14,3.19,3.19,0,0,0-.66.28,5.27,5.27,0,0,0-2.93,4.66v.18a5.58,5.58,0,0,0,.12,1,1.36,1.36,0,0,0,.06.29l0,.09h-1.25s0-.06,0-.09-.05-.19-.07-.29a5.69,5.69,0,0,1-.12-1v-.18a5.34,5.34,0,0,1,2.93-4.66,2.82,2.82,0,0,1,.64-.28h0a4.38,4.38,0,0,1,1-.23.41.41,0,0,1,.16,0h.11a4.07,4.07,0,0,1,.5,0,4.12,4.12,0,0,1,.51,0Z"/><path class="cls-7" d="M256.9,77.5v5.23h.47V80.15a1.81,1.81,0,0,1,1.81-1.81h0A1.81,1.81,0,0,1,261,80.15v2.58h.47V77.5Z"/><path class="cls-8" d="M256.9,77.5v5.23h.47V80.15a1.81,1.81,0,0,1,1.81-1.81h0A1.81,1.81,0,0,1,261,80.15v2.58h.47V77.5Z"/><path class="cls-7" d="M255.46,78.37l.28.08c-.56.25-.72.92-.72,1.7h0v2.58h-1V79.36C254.12,78.84,254.93,78.46,255.46,78.37Z"/><path class="cls-7" d="M263,78.37a1.58,1.58,0,0,0-.28.08c.55.25.72.92.72,1.7h0v2.58h1V79.36C264.29,78.84,263.48,78.46,263,78.37Z"/><path class="cls-8" d="M263,78.37a1.58,1.58,0,0,0-.28.08c.55.25.72.92.72,1.7h0v2.58h1V79.36C264.29,78.84,263.48,78.46,263,78.37Z"/><path class="cls-1" d="M261.48,77.5v5.23H262V80.15h0c0-.9.22-1.64,1-1.78.77.14,1,.88,1,1.78h0v2.58h.47V77.5Z"/><path class="cls-8" d="M255.46,78.37l.28.08c-.56.25-.72.92-.72,1.7h0v2.58h-1V79.36C254.12,78.84,254.93,78.46,255.46,78.37Z"/><path class="cls-7" d="M256.93,77.5v5.23h-.47V80.15h0c0-.9-.22-1.64-1-1.78-.78.14-1,.88-1,1.78h0v2.58H254V77.5Z"/><rect class="cls-1" x="253.79" y="77.12" width="10.83" height="0.38"/><rect class="cls-8" x="254" y="77.5" width="10.41" height="0.26"/><polygon class="cls-1" points="260.96 70.99 257.44 70.99 258.74 70.19 258.86 70.11 258.86 70.1 258.87 70.1 259 70.02 259.18 69.91 259.39 70.03 259.4 70.03 259.4 70.04 259.49 70.09 259.5 70.09 259.5 70.1 259.52 70.11 260.96 70.99"/><polygon class="cls-4" points="258.88 70.1 259.18 70.29 258.06 70.99 257.43 70.99 258.88 70.1"/><polygon class="cls-4" points="259.5 70.1 259.49 70.1 259.18 69.91 259.5 70.1"/><polygon class="cls-2" points="259.49 70.1 259.18 70.29 258.88 70.1 259.18 69.91 259.49 70.1"/><polygon class="cls-2" points="259.18 69.91 258.88 70.1 258.87 70.1 259.18 69.91"/><polygon class="cls-2" points="260.96 70.99 260.32 70.99 259.18 70.29 259.5 70.1 260.96 70.99"/><polygon class="cls-1" points="258.86 70.11 259.2 65.74 259.52 70.11 258.86 70.11"/><polygon class="cls-2" points="259.52 70.11 259.39 70.11 259.2 67.42 259.27 66.58 259.52 70.11"/><polygon class="cls-2" points="259.27 66.58 259.27 66.58 259.2 67.42 259.14 66.59 259.21 65.75 259.27 66.58"/><polygon class="cls-4" points="259.2 67.42 258.99 70.11 258.86 70.11 259.14 66.59 259.2 67.42"/><path class="cls-8" d="M266.23,114.35h-.29v1.11h-.34v.76h-.18v1.56a.26.26,0,0,1-.25.26.27.27,0,0,1-.26-.19.17.17,0,0,1,0-.07v-1.56h-.51v1.56a.26.26,0,0,1-.26.26.25.25,0,0,1-.25-.19.17.17,0,0,1,0-.07v-1.56h-.52v1.56a.26.26,0,0,1-.51.07.17.17,0,0,1,0-.07v-1.56h-.51v1.56a.27.27,0,0,1-.27.26.26.26,0,0,1-.25-.19.17.17,0,0,1,0-.07v-1.56h-.51v1.56a.27.27,0,0,1-.27.26.25.25,0,0,1-.24-.19.17.17,0,0,1,0-.07v-1.56h-.51v1.56a.27.27,0,0,1-.27.26.26.26,0,0,1-.25-.19.17.17,0,0,1,0-.07v-1.56h-.52v1.56a.26.26,0,0,1-.26.26.25.25,0,0,1-.24-.19.17.17,0,0,1,0-.07v-1.56h-.53v1.56a.25.25,0,0,1-.5.07.17.17,0,0,1,0-.07v-1.56h-.52v1.56a.26.26,0,0,1-.26.26.26.26,0,0,1-.25-.19.17.17,0,0,1,0-.07v-1.56h-.52v1.56a.25.25,0,0,1-.5.07.17.17,0,0,1,0-.07v-1.56h-.52v1.56a.26.26,0,0,1-.26.26.26.26,0,0,1-.25-.19.17.17,0,0,1,0-.07v-1.56H254v1.56a.26.26,0,0,1-.26.26.25.25,0,0,1-.24-.19.17.17,0,0,1,0-.07v-1.56h-.39a1.07,1.07,0,0,1-.31-.06h0v-.83h-.64a.29.29,0,0,1,0-.09,1,1,0,0,1,.75-1,.85.85,0,0,1,.23,0H265.8A1,1,0,0,1,266.23,114.35Z"/><path class="cls-2" d="M261.62,71.27H256.8a2.82,2.82,0,0,1,.64-.28H261l.07,0,.27.11Z"/><path class="cls-1" d="M266.53,115a1,1,0,0,1-.93,1H252.82s0,0,0,0a1,1,0,0,1,.07-2h12.67A1,1,0,0,1,266.53,115Z"/><path class="cls-1" d="M253.5,115.64a.26.26,0,0,0-.26.26v1.69a.26.26,0,0,0,.26.25.25.25,0,0,0,.26-.25V115.9A.26.26,0,0,0,253.5,115.64Z"/><path class="cls-1" d="M254.54,115.64a.26.26,0,0,0-.26.26v1.69a.26.26,0,0,0,.52,0V115.9A.26.26,0,0,0,254.54,115.64Z"/><path class="cls-1" d="M255.58,115.64a.26.26,0,0,0-.26.26v1.69a.26.26,0,0,0,.51,0V115.9A.26.26,0,0,0,255.58,115.64Z"/><path class="cls-1" d="M256.61,115.64a.26.26,0,0,0-.26.26v1.69a.26.26,0,0,0,.26.25.25.25,0,0,0,.26-.25V115.9A.26.26,0,0,0,256.61,115.64Z"/><path class="cls-1" d="M257.65,115.64a.26.26,0,0,0-.26.26v1.69a.26.26,0,0,0,.52,0V115.9A.26.26,0,0,0,257.65,115.64Z"/><path class="cls-1" d="M258.69,115.64a.26.26,0,0,0-.26.26v1.69a.26.26,0,0,0,.51,0V115.9A.26.26,0,0,0,258.69,115.64Z"/><path class="cls-1" d="M259.72,115.64a.26.26,0,0,0-.26.26v1.69a.26.26,0,0,0,.26.25.25.25,0,0,0,.26-.25V115.9A.26.26,0,0,0,259.72,115.64Z"/><path class="cls-1" d="M260.76,115.64a.26.26,0,0,0-.26.26v1.69a.26.26,0,0,0,.52,0V115.9A.26.26,0,0,0,260.76,115.64Z"/><path class="cls-1" d="M261.8,115.64a.26.26,0,0,0-.26.26v1.69a.26.26,0,0,0,.51,0V115.9A.26.26,0,0,0,261.8,115.64Z"/><path class="cls-1" d="M258.69,115.64a.26.26,0,0,0-.26.26v1.69a.26.26,0,0,0,.51,0V115.9A.26.26,0,0,0,258.69,115.64Z"/><path class="cls-1" d="M259.72,115.64a.26.26,0,0,0-.26.26v1.69a.26.26,0,0,0,.26.25.25.25,0,0,0,.26-.25V115.9A.26.26,0,0,0,259.72,115.64Z"/><path class="cls-1" d="M260.76,115.64a.26.26,0,0,0-.26.26v1.69a.26.26,0,0,0,.52,0V115.9A.26.26,0,0,0,260.76,115.64Z"/><path class="cls-1" d="M261.8,115.64a.26.26,0,0,0-.26.26v1.69a.26.26,0,0,0,.51,0V115.9A.26.26,0,0,0,261.8,115.64Z"/><path class="cls-1" d="M262.83,115.64a.26.26,0,0,0-.26.26v1.69a.26.26,0,0,0,.26.25.25.25,0,0,0,.26-.25V115.9A.26.26,0,0,0,262.83,115.64Z"/><path class="cls-1" d="M263.87,115.64a.26.26,0,0,0-.26.26v1.69a.26.26,0,0,0,.52,0V115.9A.26.26,0,0,0,263.87,115.64Z"/><path class="cls-1" d="M264.91,115.64a.26.26,0,0,0-.26.26v1.69a.26.26,0,0,0,.51,0V115.9A.26.26,0,0,0,264.91,115.64Z"/><path class="cls-8" d="M266.73,143.86h-.27V145a.25.25,0,0,1-.26.26.25.25,0,0,1-.25-.21.07.07,0,0,1,0-.05v-1.18h-.52V145a.25.25,0,0,1-.25.26.26.26,0,0,1-.26-.21.07.07,0,0,1,0-.05v-1.18h-.51V145a.26.26,0,0,1-.26.26.24.24,0,0,1-.25-.21.07.07,0,0,1,0-.05v-1.18h-.52V145a.25.25,0,0,1-.26.26.24.24,0,0,1-.25-.21.07.07,0,0,1,0-.05v-1.18h-.51V145a.26.26,0,0,1-.27.26.25.25,0,0,1-.25-.21.07.07,0,0,1,0-.05v-1.18h-.51V145a.26.26,0,0,1-.27.26.24.24,0,0,1-.24-.21.07.07,0,0,1,0-.05v-1.18h-.51V145a.27.27,0,0,1-.27.26.25.25,0,0,1-.25-.21.07.07,0,0,1,0-.05v-1.18h-.52V145a.26.26,0,0,1-.26.26.24.24,0,0,1-.24-.21.07.07,0,0,1,0-.05v-1.18h-.53V145a.25.25,0,0,1-.5.05.07.07,0,0,1,0-.05v-1.18h-.52V145a.26.26,0,0,1-.26.26.25.25,0,0,1-.25-.21.07.07,0,0,1,0-.05v-1.18h-.52V145a.25.25,0,0,1-.25.26h0a.24.24,0,0,1-.24-.21.07.07,0,0,1,0-.05v-1.18h-.52V145a.26.26,0,0,1-.26.26.25.25,0,0,1-.25-.21.07.07,0,0,1,0-.05v-1.18H254V145a.25.25,0,0,1-.26.26.24.24,0,0,1-.24-.21.07.07,0,0,1,0-.05v-1.18H253V145a.25.25,0,0,1-.25.26.26.26,0,0,1-.26-.21.07.07,0,0,1,0-.05v-1.18h-.78l0-.47v-.08l0-1.43h15.06v1.51h0Z"/><path class="cls-8" d="M264.32,83.05v2h-.47v1.5a.26.26,0,1,1-.52,0V85h-.52v1.5a.26.26,0,1,1-.51,0V85h-.52v1.5a.26.26,0,1,1-.52,0V85h-.52v1.5a.26.26,0,0,1-.26.26.25.25,0,0,1-.25-.26V85h-.53v1.5a.25.25,0,0,1-.25.26.27.27,0,0,1-.27-.26V85h-.51v1.5a.27.27,0,0,1-.53,0V85h-.51v1.5a.25.25,0,0,1-.25.26.25.25,0,0,1-.27-.26V85h-.51v1.5a.27.27,0,0,1-.53,0V85h-.51v1.5a.25.25,0,0,1-.27.26.25.25,0,0,1-.25-.26V85h-.87l-.08,0h0V83.07l.09,0Z"/><path class="cls-1" d="M265.48,83.72a1,1,0,0,1-1,1h-.89V86.2a.26.26,0,0,1-.26.26h0a.26.26,0,0,1-.26-.26V84.71h-.51V86.2a.25.25,0,0,1-.26.26.26.26,0,0,1-.26-.26V84.71h-.51V86.2a.26.26,0,0,1-.26.26h0a.26.26,0,0,1-.26-.26V84.71h-.51V86.2a.26.26,0,0,1-.26.26.25.25,0,0,1-.26-.26V84.71h-.52V86.2a.25.25,0,0,1-.26.26h0a.26.26,0,0,1-.25-.26V84.71h-.51V86.2a.26.26,0,0,1-.27.26h0a.26.26,0,0,1-.25-.26V84.71h-.51V86.2a.26.26,0,0,1-.26.26h0a.25.25,0,0,1-.25-.26V84.71h-.52V86.2a.26.26,0,0,1-.26.26h0a.26.26,0,0,1-.25-.26V84.71h-.52V86.2a.26.26,0,1,1-.51,0V84.71h-.87a1,1,0,0,1,0-2h10.57A1,1,0,0,1,265.48,83.72Z"/><path class="cls-1" d="M252.47,142.89a.26.26,0,0,0-.26.26v1.68a.26.26,0,1,0,.51,0v-1.68A.26.26,0,0,0,252.47,142.89Z"/><path class="cls-1" d="M253.5,142.89a.26.26,0,0,0-.26.26v1.68a.26.26,0,0,0,.26.26.25.25,0,0,0,.26-.26v-1.68A.26.26,0,0,0,253.5,142.89Z"/><path class="cls-1" d="M254.54,142.89a.26.26,0,0,0-.26.26v1.68a.26.26,0,1,0,.52,0v-1.68A.26.26,0,0,0,254.54,142.89Z"/><path class="cls-1" d="M255.58,142.89a.26.26,0,0,0-.26.26v1.68a.26.26,0,1,0,.51,0v-1.68A.26.26,0,0,0,255.58,142.89Z"/><path class="cls-1" d="M256.61,142.89a.26.26,0,0,0-.26.26v1.68a.26.26,0,0,0,.26.26.25.25,0,0,0,.26-.26v-1.68A.26.26,0,0,0,256.61,142.89Z"/><path class="cls-1" d="M257.65,142.89a.26.26,0,0,0-.26.26v1.68a.26.26,0,0,0,.52,0v-1.68A.26.26,0,0,0,257.65,142.89Z"/><path class="cls-1" d="M258.69,142.89a.26.26,0,0,0-.26.26v1.68a.26.26,0,1,0,.51,0v-1.68A.26.26,0,0,0,258.69,142.89Z"/><path class="cls-1" d="M259.72,142.89a.26.26,0,0,0-.26.26v1.68a.26.26,0,0,0,.26.26.25.25,0,0,0,.26-.26v-1.68A.26.26,0,0,0,259.72,142.89Z"/><path class="cls-1" d="M260.76,142.89a.26.26,0,0,0-.26.26v1.68a.26.26,0,1,0,.52,0v-1.68A.26.26,0,0,0,260.76,142.89Z"/><path class="cls-1" d="M261.8,142.89a.26.26,0,0,0-.26.26v1.68a.26.26,0,1,0,.51,0v-1.68A.26.26,0,0,0,261.8,142.89Z"/><path class="cls-1" d="M262.83,142.89a.26.26,0,0,0-.26.26v1.68a.26.26,0,0,0,.26.26.25.25,0,0,0,.26-.26v-1.68A.26.26,0,0,0,262.83,142.89Z"/><path class="cls-1" d="M263.87,142.89a.26.26,0,0,0-.26.26v1.68a.26.26,0,1,0,.52,0v-1.68A.26.26,0,0,0,263.87,142.89Z"/><path class="cls-1" d="M264.91,142.89a.26.26,0,0,0-.26.26v1.68a.26.26,0,1,0,.51,0v-1.68A.26.26,0,0,0,264.91,142.89Z"/><path class="cls-1" d="M265.94,142.89a.26.26,0,0,0-.26.26v1.68a.26.26,0,0,0,.26.26.25.25,0,0,0,.26-.26v-1.68A.26.26,0,0,0,265.94,142.89Z"/><path class="cls-1" d="M267.93,142.32a.85.85,0,0,1,0,.23,1,1,0,0,1-.95.76h-15.5a1,1,0,0,1-.95-.76.85.85,0,0,1,0-.23,1,1,0,0,1,1-1H267A1,1,0,0,1,267.93,142.32Z"/><path class="cls-4" d="M256.9,82.73v.83l0,1.46v.08l-.49,29v.19l0,1.78v.19l-.42,25.12v.54l0,1.43,0,1.41v.58l-.63,36.61h-5.09l1.57-38,0-.47v-.08h-.25a1,1,0,0,1-.95-.76.85.85,0,0,1,0-.23,1,1,0,0,1,1-1h.33l1-25.18h0V116a1,1,0,0,1,.07-2h0L254.09,85h0v-.29h-.16a1,1,0,0,1,0-2Z"/><path class="cls-2" d="M261.46,82.73v.83l0,1.46v.08l.49,29v.19l0,1.78v.19l.43,25.12v.54l0,1.43,0,1.41v.58l.63,36.61h5.14l-1.59-38.6h.22a1,1,0,0,0,1-.76.85.85,0,0,0,0-.23,1,1,0,0,0-1-1h-.3l-1-25.32a1,1,0,0,0,.94-1,1,1,0,0,0-1-1l-1.2-29.35h.18a1,1,0,0,0,1-1,1,1,0,0,0-1-1Z"/><polygon class="cls-2" points="70.25 90.87 70.25 90.87 70.3 91.49 70.34 90.88 70.3 90.26 70.25 90.87"/><polygon class="cls-7" points="64.82 181.5 78.22 181.5 77.07 153.45 77.05 153.11 77.05 153.04 77.01 151.99 77.01 151.93 76.99 151.6 76.23 133.05 76.22 132.94 76.17 131.65 76.16 131.49 75.28 110.08 75.28 109.86 75.24 109.02 67.8 109.02 67.77 109.86 67.76 110 67.76 110.09 66.88 131.49 66.87 131.63 66.82 132.94 66.81 133.09 66.05 151.6 66.04 151.93 66.04 151.99 65.99 153.04 65.99 153.11 65.98 153.45 64.82 181.5"/><polygon class="cls-13" points="64.82 181.5 78.22 181.5 77.07 153.45 77.05 153.11 77.05 153.04 77.01 151.99 77.01 151.93 76.99 151.6 76.23 133.05 76.22 132.94 76.17 131.65 76.16 131.49 75.28 110.08 75.28 109.86 75.24 109.02 67.8 109.02 67.77 109.86 67.76 110 67.76 110.09 66.88 131.49 66.87 131.63 66.82 132.94 66.81 133.09 66.05 151.6 66.04 151.93 66.04 151.99 65.99 153.04 65.99 153.11 65.98 153.45 64.82 181.5"/><path class="cls-7" d="M67.59,103.45a.17.17,0,0,0,0,.07,3.57,3.57,0,0,0,.08.74c0,.08,0,.15,0,.22a.64.64,0,0,1,0,.07H75.3a.2.2,0,0,0,0-.07,1.41,1.41,0,0,0,.06-.22,4.4,4.4,0,0,0,.09-.74v-.13A4,4,0,0,0,73.3,100a2.76,2.76,0,0,0-.47-.2h0a3.44,3.44,0,0,0-.72-.17.25.25,0,0,0-.12,0H71.9a2.36,2.36,0,0,0-.38,0,2.3,2.3,0,0,0-.37,0H71a3.24,3.24,0,0,0-.76.18h0a2.76,2.76,0,0,0-.47.2,3.92,3.92,0,0,0-2.15,3.44A.13.13,0,0,0,67.59,103.45Z"/><path class="cls-8" d="M67.59,103.45a.17.17,0,0,0,0,.07,3.57,3.57,0,0,0,.08.74c0,.08,0,.15,0,.22a.64.64,0,0,1,0,.07H75.3a.2.2,0,0,0,0-.07,1.41,1.41,0,0,0,.06-.22,4.4,4.4,0,0,0,.09-.74v-.13A4,4,0,0,0,73.3,100a2.76,2.76,0,0,0-.47-.2h0a3.44,3.44,0,0,0-.72-.17.25.25,0,0,0-.12,0H71.9a2.36,2.36,0,0,0-.38,0,2.3,2.3,0,0,0-.37,0H71a3.24,3.24,0,0,0-.76.18h0a2.76,2.76,0,0,0-.47.2,3.92,3.92,0,0,0-2.15,3.44A.13.13,0,0,0,67.59,103.45Z"/><path class="cls-2" d="M67.6,103.39a3.92,3.92,0,0,1,3.92-3.86,3.44,3.44,0,0,1,.46,0,3.91,3.91,0,0,0-3.46,3.83.15.15,0,0,0,0,.07.13.13,0,0,0,0,.06,3.83,3.83,0,0,0,.13,1s0,0,0,.06h-.92s0,0,0-.06a3.83,3.83,0,0,1-.13-1,.13.13,0,0,1,0-.06A.15.15,0,0,1,67.6,103.39Z"/><path class="cls-4" d="M71.07,99.56a6.33,6.33,0,0,1,.82.19,2.55,2.55,0,0,1,.48.2,3.89,3.89,0,0,1,2.16,3.44v.13a4.28,4.28,0,0,1-.09.74.78.78,0,0,1,0,.22l0,.07h.92a.2.2,0,0,0,0-.07,1.41,1.41,0,0,0,.06-.22,4.4,4.4,0,0,0,.09-.74v-.13A4,4,0,0,0,73.3,100a2.76,2.76,0,0,0-.47-.2h0a3.44,3.44,0,0,0-.72-.17.25.25,0,0,0-.12,0H71.9a2.36,2.36,0,0,0-.38,0,2.3,2.3,0,0,0-.37,0Z"/><path class="cls-7" d="M73.22,104.54v3.86h-.35v-1.9a1.32,1.32,0,0,0-1.33-1.33h0a1.33,1.33,0,0,0-1.33,1.33v1.9h-.34v-3.86Z"/><path class="cls-8" d="M73.22,104.54v3.86h-.35v-1.9a1.32,1.32,0,0,0-1.33-1.33h0a1.33,1.33,0,0,0-1.33,1.33v1.9h-.34v-3.86Z"/><path class="cls-7" d="M74.08,105.25c.41.18.53.68.53,1.25v1.9h.76v-2.48c-.1-.39-.7-.66-1.09-.73A.66.66,0,0,0,74.08,105.25Z"/><path class="cls-7" d="M68.77,105.19a.66.66,0,0,1,.2.06c-.41.18-.53.67-.53,1.25h0v1.9h-.75v-2.49C67.77,105.53,68.38,105.26,68.77,105.19Z"/><path class="cls-8" d="M68.77,105.19a.66.66,0,0,1,.2.06c-.41.18-.53.67-.53,1.25h0v1.9h-.75v-2.49C67.77,105.53,68.38,105.26,68.77,105.19Z"/><path class="cls-1" d="M69.85,104.54v3.86H69.5v-1.9h0c0-.67-.16-1.21-.73-1.31-.58.1-.74.64-.74,1.31h0v1.9h-.34v-3.86Z"/><path class="cls-8" d="M74.08,105.25c.41.18.53.68.53,1.25v1.9h.76v-2.48c-.1-.39-.7-.66-1.09-.73A.66.66,0,0,0,74.08,105.25Z"/><path class="cls-7" d="M73.2,104.54v3.86h.35v-1.9c0-.58.12-1.07.53-1.25a.66.66,0,0,1,.2-.06c.57.1.73.64.73,1.31v1.9h.36v-3.86Z"/><rect class="cls-1" x="67.53" y="104.27" width="7.98" height="0.28"/><rect class="cls-8" x="67.69" y="104.54" width="7.67" height="0.19"/><polygon class="cls-1" points="70.23 99.75 72.83 99.75 71.87 99.16 71.78 99.1 71.78 99.09 71.77 99.09 71.67 99.04 71.54 98.95 71.39 99.04 71.38 99.04 71.38 99.05 71.31 99.09 71.31 99.09 71.31 99.09 71.29 99.1 70.23 99.75"/><polygon class="cls-4" points="71.77 99.09 71.54 99.23 72.37 99.75 72.83 99.75 71.77 99.09"/><polygon class="cls-4" points="71.31 99.09 71.31 99.09 71.54 98.95 71.31 99.09"/><polygon class="cls-2" points="71.31 99.09 71.54 99.23 71.77 99.09 71.54 98.95 71.31 99.09"/><polygon class="cls-2" points="71.54 98.95 71.77 99.09 71.77 99.09 71.54 98.95"/><polygon class="cls-2" points="70.22 99.75 70.7 99.75 71.54 99.23 71.31 99.09 70.22 99.75"/><polygon class="cls-1" points="71.77 99.1 71.52 95.88 71.29 99.1 71.77 99.1"/><polygon class="cls-2" points="71.29 99.1 71.38 99.1 71.53 97.12 71.48 96.5 71.29 99.1"/><polygon class="cls-2" points="71.48 96.5 71.48 96.5 71.53 97.12 71.57 96.5 71.52 95.88 71.48 96.5"/><polygon class="cls-4" points="71.53 97.12 71.68 99.1 71.77 99.1 71.57 96.5 71.53 97.12"/><path class="cls-8" d="M66.35,131.71h.2v.82h.26v.56h.13v1.14a.19.19,0,0,0,.19.19.18.18,0,0,0,.18-.14.09.09,0,0,0,0-.05v-1.14h.39v1.14a.18.18,0,0,0,.19.19.19.19,0,0,0,.18-.14.09.09,0,0,0,0-.05v-1.14h.37v1.14a.19.19,0,0,0,.2.19.18.18,0,0,0,.18-.14.09.09,0,0,0,0-.05v-1.14h.38v1.14a.18.18,0,0,0,.19.19.2.2,0,0,0,.19-.14.09.09,0,0,0,0-.05v-1.14H70v1.14a.18.18,0,0,0,.19.19.18.18,0,0,0,.17-.14.09.09,0,0,0,0-.05v-1.14h.39v1.14a.19.19,0,0,0,.19.19.18.18,0,0,0,.18-.14.09.09,0,0,0,0-.05v-1.14h.39v1.14a.18.18,0,0,0,.19.19.19.19,0,0,0,.18-.14.09.09,0,0,0,0-.05v-1.14h.37v1.14a.19.19,0,0,0,.2.19.18.18,0,0,0,.18-.14.09.09,0,0,0,0-.05v-1.14h.38v1.14a.18.18,0,0,0,.19.19.2.2,0,0,0,.19-.14.09.09,0,0,0,0-.05v-1.14h.38v1.14a.18.18,0,0,0,.19.19.18.18,0,0,0,.17-.14.09.09,0,0,0,0-.05v-1.14h.39v1.14a.19.19,0,0,0,.19.19.18.18,0,0,0,.18-.14.09.09,0,0,0,0-.05v-1.14h.39v1.14a.18.18,0,0,0,.19.19.19.19,0,0,0,.18-.14.09.09,0,0,0,0-.05v-1.14H76a.79.79,0,0,0,.23,0h0v-.61h.48s0-.05,0-.07a.72.72,0,0,0-.56-.71l-.17,0H66.67A.63.63,0,0,0,66.35,131.71Z"/><path class="cls-2" d="M69.72,100H73.3a2.76,2.76,0,0,0-.47-.2H70.22l0,0-.2.07Z"/><path class="cls-1" d="M66.13,132.22a.75.75,0,0,0,.68.73h9.43a.75.75,0,0,0,.68-.73.72.72,0,0,0-.73-.73H66.86A.72.72,0,0,0,66.13,132.22Z"/><path class="cls-1" d="M75.73,132.65a.2.2,0,0,1,.19.2v1.24a.2.2,0,0,1-.19.19.2.2,0,0,1-.2-.19v-1.24A.2.2,0,0,1,75.73,132.65Z"/><path class="cls-1" d="M75,132.65a.19.19,0,0,1,.19.2v1.24a.19.19,0,0,1-.19.19.2.2,0,0,1-.19-.19v-1.24A.2.2,0,0,1,75,132.65Z"/><path class="cls-1" d="M74.2,132.65a.2.2,0,0,1,.19.2v1.24a.2.2,0,0,1-.19.19.19.19,0,0,1-.19-.19v-1.24A.19.19,0,0,1,74.2,132.65Z"/><path class="cls-1" d="M73.43,132.65a.19.19,0,0,1,.19.2v1.24a.19.19,0,0,1-.19.19.2.2,0,0,1-.19-.19v-1.24A.2.2,0,0,1,73.43,132.65Z"/><path class="cls-1" d="M72.67,132.65a.19.19,0,0,1,.19.2v1.24a.19.19,0,0,1-.38,0v-1.24A.19.19,0,0,1,72.67,132.65Z"/><path class="cls-1" d="M71.91,132.65a.2.2,0,0,1,.19.2v1.24a.2.2,0,0,1-.19.19.2.2,0,0,1-.2-.19v-1.24A.2.2,0,0,1,71.91,132.65Z"/><path class="cls-1" d="M71.14,132.65a.19.19,0,0,1,.19.2v1.24a.19.19,0,0,1-.19.19.2.2,0,0,1-.19-.19v-1.24A.2.2,0,0,1,71.14,132.65Z"/><path class="cls-1" d="M70.38,132.65a.2.2,0,0,1,.19.2v1.24a.2.2,0,0,1-.19.19.19.19,0,0,1-.19-.19v-1.24A.19.19,0,0,1,70.38,132.65Z"/><path class="cls-1" d="M69.61,132.65a.19.19,0,0,1,.19.2v1.24a.19.19,0,0,1-.19.19.2.2,0,0,1-.19-.19v-1.24A.2.2,0,0,1,69.61,132.65Z"/><path class="cls-1" d="M71.91,132.65a.2.2,0,0,1,.19.2v1.24a.2.2,0,0,1-.19.19.2.2,0,0,1-.2-.19v-1.24A.2.2,0,0,1,71.91,132.65Z"/><path class="cls-1" d="M71.14,132.65a.19.19,0,0,1,.19.2v1.24a.19.19,0,0,1-.19.19.2.2,0,0,1-.19-.19v-1.24A.2.2,0,0,1,71.14,132.65Z"/><path class="cls-1" d="M70.38,132.65a.2.2,0,0,1,.19.2v1.24a.2.2,0,0,1-.19.19.19.19,0,0,1-.19-.19v-1.24A.19.19,0,0,1,70.38,132.65Z"/><path class="cls-1" d="M69.61,132.65a.19.19,0,0,1,.19.2v1.24a.19.19,0,0,1-.19.19.2.2,0,0,1-.19-.19v-1.24A.2.2,0,0,1,69.61,132.65Z"/><path class="cls-1" d="M68.85,132.65a.19.19,0,0,1,.19.2v1.24a.19.19,0,0,1-.38,0v-1.24A.19.19,0,0,1,68.85,132.65Z"/><path class="cls-1" d="M68.09,132.65a.2.2,0,0,1,.19.2v1.24a.2.2,0,0,1-.19.19.2.2,0,0,1-.2-.19v-1.24A.2.2,0,0,1,68.09,132.65Z"/><path class="cls-1" d="M67.32,132.65a.19.19,0,0,1,.19.2v1.24a.19.19,0,0,1-.19.19.2.2,0,0,1-.19-.19v-1.24A.2.2,0,0,1,67.32,132.65Z"/><path class="cls-8" d="M66,153.45h.2v.88a.19.19,0,0,0,.18.19.19.19,0,0,0,.19-.16v-.91h.39v.88a.2.2,0,0,0,.19.19.19.19,0,0,0,.19-.16v-.91h.39v.88a.19.19,0,0,0,.19.19.18.18,0,0,0,.18-.16,0,0,0,0,0,0,0v-.88h.37v.88a.2.2,0,0,0,.2.19.19.19,0,0,0,.19-.16v-.91h.38v.88a.19.19,0,0,0,.19.19.19.19,0,0,0,.19-.16,0,0,0,0,0,0,0v-.88H70v.88a.19.19,0,0,0,.37,0v-.91h.39v.88a.2.2,0,0,0,.19.19.19.19,0,0,0,.19-.16v-.91h.39v.88a.19.19,0,0,0,.19.19.18.18,0,0,0,.18-.16,0,0,0,0,0,0,0v-.88h.37v.88a.2.2,0,0,0,.2.19.19.19,0,0,0,.19-.16v-.91h.38v.88a.19.19,0,0,0,.19.19.19.19,0,0,0,.19-.16,0,0,0,0,0,0,0v-.88h.38v.88a.19.19,0,0,0,.37,0v-.91h.39v.88a.2.2,0,0,0,.19.19.19.19,0,0,0,.19-.16v-.91h.39v.88a.19.19,0,0,0,.19.19.18.18,0,0,0,.18-.16,0,0,0,0,0,0,0v-.88h.37v.88a.2.2,0,0,0,.2.19.19.19,0,0,0,.19-.16v-.91h.58l0-.34V153l0-1H66v1.46Z"/><path class="cls-8" d="M67.76,108.63v1.46h.34v1.1a.18.18,0,0,0,.19.19.19.19,0,0,0,.19-.19v-1.1h.39v1.1a.18.18,0,0,0,.18.19.18.18,0,0,0,.19-.19v-1.1h.39v1.1a.19.19,0,0,0,.19.19.18.18,0,0,0,.19-.19v-1.1h.38v1.1a.19.19,0,0,0,.2.19.19.19,0,0,0,.19-.19v-1.1h.37v1.1a.19.19,0,0,0,.19.19.19.19,0,0,0,.2-.19v-1.1h.38v1.1a.18.18,0,0,0,.19.19.19.19,0,0,0,.19-.19v-1.1h.39v1.1a.18.18,0,0,0,.19.19.17.17,0,0,0,.1,0,.18.18,0,0,0,.08-.16v-1.1h.39v1.1a.19.19,0,0,0,.19.19.18.18,0,0,0,.19-.19v-1.1h.38v1.1a.19.19,0,0,0,.2.19.19.19,0,0,0,.19-.19v-1.1h.69v-1.44H67.76Z"/><path class="cls-1" d="M66.9,109.13a.73.73,0,0,0,.73.73h.65V111a.19.19,0,0,0,.19.19h0a.19.19,0,0,0,.19-.19v-1.1h.38V111a.18.18,0,0,0,.19.19.19.19,0,0,0,.19-.19v-1.1h.39V111a.18.18,0,0,0,.19.19.18.18,0,0,0,.18-.19v-1.1h.39V111a.19.19,0,0,0,.19.19h0A.19.19,0,0,0,71,111v-1.1h.38V111a.19.19,0,0,0,.2.19.19.19,0,0,0,.19-.19v-1.1h.37V111a.19.19,0,0,0,.19.19h0a.2.2,0,0,0,.19-.19v-1.1h.38V111a.18.18,0,0,0,.1.17l.09,0a.19.19,0,0,0,.19-.19v-1.1h.39V111a.18.18,0,0,0,.19.19A.18.18,0,0,0,74,111v-1.1h.39V111a.19.19,0,0,0,.19.19h0a.19.19,0,0,0,.18-.19v-1.1h.64a.73.73,0,0,0,0-1.46H67.63A.72.72,0,0,0,66.9,109.13Z"/><path class="cls-1" d="M76.49,152.74a.18.18,0,0,1,.19.19v1.24a.19.19,0,0,1-.38,0v-1.24A.18.18,0,0,1,76.49,152.74Z"/><path class="cls-1" d="M75.73,152.74a.19.19,0,0,1,.19.19v1.24a.2.2,0,0,1-.19.19.2.2,0,0,1-.2-.19v-1.24A.19.19,0,0,1,75.73,152.74Z"/><path class="cls-1" d="M75,152.74a.18.18,0,0,1,.19.19v1.24a.19.19,0,0,1-.19.19.2.2,0,0,1-.19-.19v-1.24A.19.19,0,0,1,75,152.74Z"/><path class="cls-1" d="M74.2,152.74a.19.19,0,0,1,.19.19v1.24a.2.2,0,0,1-.19.19.19.19,0,0,1-.19-.19v-1.24A.18.18,0,0,1,74.2,152.74Z"/><path class="cls-1" d="M73.43,152.74a.18.18,0,0,1,.19.19v1.24a.19.19,0,0,1-.19.19.2.2,0,0,1-.19-.19v-1.24A.19.19,0,0,1,73.43,152.74Z"/><path class="cls-1" d="M72.67,152.74a.18.18,0,0,1,.19.19v1.24a.19.19,0,0,1-.38,0v-1.24A.18.18,0,0,1,72.67,152.74Z"/><path class="cls-1" d="M71.91,152.74a.19.19,0,0,1,.19.19v1.24a.2.2,0,0,1-.19.19.2.2,0,0,1-.2-.19v-1.24A.19.19,0,0,1,71.91,152.74Z"/><path class="cls-1" d="M71.14,152.74a.18.18,0,0,1,.19.19v1.24a.19.19,0,0,1-.19.19.2.2,0,0,1-.19-.19v-1.24A.19.19,0,0,1,71.14,152.74Z"/><path class="cls-1" d="M70.38,152.74a.19.19,0,0,1,.19.19v1.24a.2.2,0,0,1-.19.19.19.19,0,0,1-.19-.19v-1.24A.18.18,0,0,1,70.38,152.74Z"/><path class="cls-1" d="M69.61,152.74a.18.18,0,0,1,.19.19v1.24a.19.19,0,0,1-.19.19.2.2,0,0,1-.19-.19v-1.24A.19.19,0,0,1,69.61,152.74Z"/><path class="cls-1" d="M68.85,152.74a.18.18,0,0,1,.19.19v1.24a.19.19,0,0,1-.38,0v-1.24A.18.18,0,0,1,68.85,152.74Z"/><path class="cls-1" d="M68.09,152.74a.19.19,0,0,1,.19.19v1.24a.2.2,0,0,1-.19.19.2.2,0,0,1-.2-.19v-1.24A.19.19,0,0,1,68.09,152.74Z"/><path class="cls-1" d="M67.32,152.74a.18.18,0,0,1,.19.19v1.24a.19.19,0,0,1-.19.19.2.2,0,0,1-.19-.19v-1.24A.19.19,0,0,1,67.32,152.74Z"/><path class="cls-1" d="M66.56,152.74a.19.19,0,0,1,.19.19v1.24a.2.2,0,0,1-.19.19.19.19,0,0,1-.19-.19v-1.24A.18.18,0,0,1,66.56,152.74Z"/><path class="cls-1" d="M65.09,152.32a.88.88,0,0,0,0,.17.72.72,0,0,0,.71.55H77.23a.7.7,0,0,0,.7-.55.47.47,0,0,0,0-.17.71.71,0,0,0-.73-.72H65.82A.71.71,0,0,0,65.09,152.32Z"/><path class="cls-4" d="M72.87,108.4V109l.08,2.11v.22l.73,20.14v.14l0,1.32v.14l.68,18.51V152l0,1,0,.41,1,28.05h2.69l-1.16-28.05,0-.34V153h.18a.7.7,0,0,0,.7-.55.47.47,0,0,0,0-.17.71.71,0,0,0-.73-.72H77l-.76-18.55h0V133a.75.75,0,0,0,.68-.73.72.72,0,0,0-.73-.73h0l-.88-21.41h0v-.22h.13a.73.73,0,0,0,0-1.46H72.87Z"/><path class="cls-2" d="M70.18,108.4V109l-.08,2.11v.22l-.73,20.14v.14l0,1.32v.14L68.6,151.6V152l0,1,0,.41-1,28.05H64.82L66,153.45l0-.34V153h-.18a.7.7,0,0,1-.69-.55.47.47,0,0,1,0-.17.71.71,0,0,1,.72-.72h.25l.75-18.55h0V133a.74.74,0,0,1-.67-.73.72.72,0,0,1,.72-.73h0l.88-21.41h0v-.22h-.12a.73.73,0,0,1,0-1.46h2.55Z"/><polygon class="cls-7" points="35.65 181.91 53.84 181.91 52.28 143.86 52.26 143.39 52.26 143.31 52.2 141.88 52.2 141.8 52.17 141.34 51.15 116.16 51.13 116.02 51.06 114.28 51.05 114.06 49.86 85 49.85 84.7 49.8 83.56 39.7 83.56 39.65 84.7 39.63 85.02 38.44 114.06 38.43 114.25 38.36 116.02 38.35 116.22 37.32 141.34 37.3 141.8 37.3 141.88 37.24 143.31 37.24 143.39 37.22 143.86 35.65 181.91"/><path class="cls-7" d="M39.41,76a.28.28,0,0,0,0,.09,4.88,4.88,0,0,0,.11,1c0,.1,0,.19.07.29a.32.32,0,0,1,0,.09H49.87s0-.06,0-.09,0-.19.07-.29a5.69,5.69,0,0,0,.12-1v-.18a5.34,5.34,0,0,0-2.93-4.66,3,3,0,0,0-.63-.28h0a4.66,4.66,0,0,0-1-.23.43.43,0,0,0-.17,0h-.11a4.07,4.07,0,0,0-.5,0,4.24,4.24,0,0,0-.51,0h-.12a.15.15,0,0,0-.09,0A4.5,4.5,0,0,0,43,71h0a3.27,3.27,0,0,0-.64.28,5.33,5.33,0,0,0-2.92,4.66A.25.25,0,0,0,39.41,76Z"/><path class="cls-2" d="M39.42,75.93a5.34,5.34,0,0,1,5.33-5.24,4.21,4.21,0,0,1,.62,0,5.32,5.32,0,0,0-4.7,5.2.41.41,0,0,0,0,.18,5.1,5.1,0,0,0,.18,1.3l0,.09H39.63l0-.09a5.58,5.58,0,0,1-.18-1.3v-.18Z"/><path class="cls-4" d="M44.13,70.73a4.25,4.25,0,0,1,.62.12,2.75,2.75,0,0,1,.49.14,3,3,0,0,1,.66.28,5.27,5.27,0,0,1,2.93,4.66v.18a5.58,5.58,0,0,1-.12,1,1.36,1.36,0,0,1-.06.29l0,.09h1.25s0-.06,0-.09,0-.19.07-.29a5.69,5.69,0,0,0,.12-1v-.18a5.34,5.34,0,0,0-2.93-4.66,3,3,0,0,0-.63-.28h0a4.66,4.66,0,0,0-1-.23.43.43,0,0,0-.17,0h-.11a4.07,4.07,0,0,0-.5,0,4.24,4.24,0,0,0-.51,0Z"/><path class="cls-7" d="M47.05,77.5v5.23h-.47V80.15a1.81,1.81,0,0,0-1.81-1.81h0a1.81,1.81,0,0,0-1.81,1.81v2.58h-.47V77.5Z"/><path class="cls-8" d="M47.05,77.5v5.23h-.47V80.15a1.81,1.81,0,0,0-1.81-1.81h0a1.81,1.81,0,0,0-1.81,1.81v2.58h-.47V77.5Z"/><path class="cls-7" d="M48.49,78.37l-.27.08c.55.25.71.92.71,1.7h0v2.58h1V79.36C49.84,78.84,49,78.46,48.49,78.37Z"/><path class="cls-7" d="M41,78.37l.27.08c-.55.25-.72.92-.72,1.7h0v2.58h-1V79.36C39.66,78.84,40.48,78.46,41,78.37Z"/><path class="cls-8" d="M41,78.37l.27.08c-.55.25-.72.92-.72,1.7h0v2.58h-1V79.36C39.66,78.84,40.48,78.46,41,78.37Z"/><path class="cls-1" d="M42.47,77.5v5.23H42V80.15h0c0-.9-.22-1.64-1-1.78-.78.14-1,.88-1,1.78h0v2.58h-.47V77.5Z"/><path class="cls-8" d="M48.49,78.37l-.27.08c.55.25.71.92.71,1.7h0v2.58h1V79.36C49.84,78.84,49,78.46,48.49,78.37Z"/><path class="cls-7" d="M47,77.5v5.23h.47V80.15h0c0-.9.21-1.64,1-1.78.78.14,1,.88,1,1.78h0v2.58H50V77.5Z"/><rect class="cls-1" x="39.33" y="77.12" width="10.83" height="0.38"/><rect class="cls-8" x="39.54" y="77.5" width="10.41" height="0.26"/><polygon class="cls-1" points="42.99 70.99 46.52 70.99 45.21 70.19 45.09 70.11 45.09 70.1 45.08 70.1 44.95 70.02 44.77 69.91 44.57 70.03 44.56 70.03 44.56 70.04 44.47 70.09 44.45 70.09 44.45 70.1 44.44 70.11 42.99 70.99"/><polygon class="cls-4" points="45.08 70.1 44.77 70.29 45.9 70.99 46.52 70.99 45.08 70.1"/><polygon class="cls-4" points="44.45 70.1 44.46 70.1 44.77 69.91 44.45 70.1"/><polygon class="cls-2" points="44.46 70.1 44.77 70.29 45.08 70.1 44.77 69.91 44.46 70.1"/><polygon class="cls-2" points="44.77 69.91 45.08 70.1 45.08 70.1 44.77 69.91"/><polygon class="cls-2" points="42.98 70.99 43.63 70.99 44.77 70.29 44.45 70.1 42.98 70.99"/><polygon class="cls-1" points="45.09 70.11 44.75 65.74 44.44 70.11 45.09 70.11"/><polygon class="cls-2" points="44.43 70.11 44.56 70.11 44.75 67.42 44.69 66.58 44.43 70.11"/><polygon class="cls-2" points="44.69 66.58 44.69 66.58 44.75 67.42 44.81 66.59 44.75 65.75 44.69 66.58"/><polygon class="cls-4" points="44.75 67.42 44.96 70.11 45.09 70.11 44.81 66.59 44.75 67.42"/><path class="cls-8" d="M37.73,114.35H38v1.11h.34v.76h.18v1.56a.26.26,0,0,0,.51.07.17.17,0,0,0,0-.07v-1.56h.51v1.56a.27.27,0,0,0,.27.26.25.25,0,0,0,.24-.19.17.17,0,0,0,0-.07v-1.56h.53v1.56a.25.25,0,0,0,.5.07.17.17,0,0,0,0-.07v-1.56h.52v1.56a.26.26,0,0,0,.26.26.26.26,0,0,0,.25-.19.17.17,0,0,0,0-.07v-1.56h.52v1.56a.26.26,0,0,0,.26.26.25.25,0,0,0,.24-.19.17.17,0,0,0,0-.07v-1.56h.52v1.56A.26.26,0,0,0,44,118a.26.26,0,0,0,.25-.19.17.17,0,0,0,0-.07v-1.56h.52v1.56A.26.26,0,0,0,45,118a.25.25,0,0,0,.24-.19.17.17,0,0,0,0-.07v-1.56h.53v1.56a.25.25,0,0,0,.5.07.17.17,0,0,0,0-.07v-1.56h.52v1.56a.26.26,0,0,0,.26.26.28.28,0,0,0,.26-.19.17.17,0,0,0,0-.07v-1.56h.51v1.56a.26.26,0,0,0,.25.26.27.27,0,0,0,.26-.19.17.17,0,0,0,0-.07v-1.56h.51v1.56a.26.26,0,0,0,.26.26.26.26,0,0,0,.26-.19.17.17,0,0,0,0-.07v-1.56h.51v1.56a.26.26,0,0,0,.26.26.25.25,0,0,0,.25-.19.17.17,0,0,0,0-.07v-1.56h.38a1.07,1.07,0,0,0,.31-.06v-.83h.64a.29.29,0,0,0,0-.09,1,1,0,0,0-.75-1,.85.85,0,0,0-.23,0H38.15A1,1,0,0,0,37.73,114.35Z"/><path class="cls-2" d="M42.3,71.29l4.85,0a3,3,0,0,0-.63-.28H43l-.07,0a2.15,2.15,0,0,0-.27.1C42.52,71.16,42.41,71.24,42.3,71.29Z"/><path class="cls-1" d="M37.42,115a1,1,0,0,0,.93,1H51.13s0,0,0,0a1,1,0,0,0-.07-2H38.41A1,1,0,0,0,37.42,115Z"/><path class="cls-1" d="M50.45,115.64a.26.26,0,0,1,.26.26v1.69a.26.26,0,0,1-.52,0V115.9A.26.26,0,0,1,50.45,115.64Z"/><path class="cls-1" d="M49.41,115.64a.26.26,0,0,1,.26.26v1.69a.25.25,0,0,1-.26.25.26.26,0,0,1-.26-.25V115.9A.26.26,0,0,1,49.41,115.64Z"/><path class="cls-1" d="M48.38,115.64a.26.26,0,0,1,.26.26v1.69a.26.26,0,0,1-.26.25.25.25,0,0,1-.26-.25V115.9A.26.26,0,0,1,48.38,115.64Z"/><path class="cls-1" d="M47.34,115.64a.26.26,0,0,1,.26.26v1.69a.26.26,0,0,1-.52,0V115.9A.26.26,0,0,1,47.34,115.64Z"/><path class="cls-1" d="M46.3,115.64a.26.26,0,0,1,.26.26v1.69a.25.25,0,0,1-.26.25.26.26,0,0,1-.26-.25V115.9A.26.26,0,0,1,46.3,115.64Z"/><path class="cls-1" d="M45.27,115.64a.26.26,0,0,1,.26.26v1.69a.26.26,0,0,1-.26.25.25.25,0,0,1-.26-.25V115.9A.26.26,0,0,1,45.27,115.64Z"/><path class="cls-1" d="M44.23,115.64a.26.26,0,0,1,.26.26v1.69a.26.26,0,0,1-.52,0V115.9A.26.26,0,0,1,44.23,115.64Z"/><path class="cls-1" d="M43.19,115.64a.26.26,0,0,1,.26.26v1.69a.25.25,0,0,1-.26.25.26.26,0,0,1-.26-.25V115.9A.26.26,0,0,1,43.19,115.64Z"/><path class="cls-1" d="M42.16,115.64a.26.26,0,0,1,.26.26v1.69a.26.26,0,0,1-.26.25.25.25,0,0,1-.26-.25V115.9A.26.26,0,0,1,42.16,115.64Z"/><path class="cls-1" d="M45.27,115.64a.26.26,0,0,1,.26.26v1.69a.26.26,0,0,1-.26.25.25.25,0,0,1-.26-.25V115.9A.26.26,0,0,1,45.27,115.64Z"/><path class="cls-1" d="M44.23,115.64a.26.26,0,0,1,.26.26v1.69a.26.26,0,0,1-.52,0V115.9A.26.26,0,0,1,44.23,115.64Z"/><path class="cls-1" d="M43.19,115.64a.26.26,0,0,1,.26.26v1.69a.25.25,0,0,1-.26.25.26.26,0,0,1-.26-.25V115.9A.26.26,0,0,1,43.19,115.64Z"/><path class="cls-1" d="M42.16,115.64a.26.26,0,0,1,.26.26v1.69a.26.26,0,0,1-.26.25.25.25,0,0,1-.26-.25V115.9A.26.26,0,0,1,42.16,115.64Z"/><path class="cls-1" d="M41.12,115.64a.26.26,0,0,1,.26.26v1.69a.26.26,0,0,1-.52,0V115.9A.26.26,0,0,1,41.12,115.64Z"/><path class="cls-1" d="M40.08,115.64a.26.26,0,0,1,.26.26v1.69a.25.25,0,0,1-.26.25.26.26,0,0,1-.26-.25V115.9A.26.26,0,0,1,40.08,115.64Z"/><path class="cls-1" d="M39.05,115.64a.26.26,0,0,1,.26.26v1.69a.26.26,0,0,1-.26.25.25.25,0,0,1-.26-.25V115.9A.26.26,0,0,1,39.05,115.64Z"/><path class="cls-8" d="M37.22,143.86h.27V145a.25.25,0,0,0,.27.26.24.24,0,0,0,.24-.21.07.07,0,0,0,0-.05v-1.18h.52V145a.25.25,0,0,0,.26.26.25.25,0,0,0,.25-.21.07.07,0,0,0,0-.05v-1.18h.51V145a.27.27,0,0,0,.27.26.24.24,0,0,0,.24-.21.07.07,0,0,0,0-.05v-1.18h.53V145a.25.25,0,0,0,.25.26.24.24,0,0,0,.25-.21.07.07,0,0,0,0-.05v-1.18h.52V145a.26.26,0,0,0,.26.26.25.25,0,0,0,.25-.21.07.07,0,0,0,0-.05v-1.18h.52V145a.25.25,0,0,0,.26.26.24.24,0,0,0,.24-.21.07.07,0,0,0,0-.05v-1.18h.52V145a.26.26,0,0,0,.26.26.25.25,0,0,0,.25-.21.07.07,0,0,0,0-.05v-1.18h.52V145a.26.26,0,0,0,.26.26.24.24,0,0,0,.24-.21.07.07,0,0,0,0-.05v-1.18h.53V145a.25.25,0,0,0,.5.05.07.07,0,0,0,0-.05v-1.18h.52V145a.26.26,0,0,0,.26.26.27.27,0,0,0,.26-.21.07.07,0,0,0,0-.05v-1.18h.51V145a.25.25,0,0,0,.25.26h0a.25.25,0,0,0,.25-.21.07.07,0,0,0,0-.05v-1.18h.51V145a.26.26,0,0,0,.26.26.25.25,0,0,0,.26-.21.07.07,0,0,0,0-.05v-1.18h.51V145a.25.25,0,0,0,.26.26.24.24,0,0,0,.25-.21.07.07,0,0,0,0-.05v-1.18H51V145a.25.25,0,0,0,.26.26.25.25,0,0,0,.25-.21.07.07,0,0,0,0-.05v-1.18h.79l0-.47v-.08l0-1.43H37.23v1.51h0Z"/><path class="cls-8" d="M39.64,83.05v2h.46v1.5a.26.26,0,0,0,.26.26.27.27,0,0,0,.27-.26V85h.51v1.5a.26.26,0,1,0,.52,0V85h.51v1.5a.27.27,0,0,0,.53,0V85h.51v1.5a.26.26,0,0,0,.27.26.25.25,0,0,0,.25-.26V85h.52v1.5a.25.25,0,0,0,.26.26.26.26,0,0,0,.26-.26V85h.51v1.5a.27.27,0,0,0,.27.26.26.26,0,0,0,.26-.26V85h.51v1.5a.26.26,0,0,0,.26.26.25.25,0,0,0,.26-.26V85h.52v1.5a.26.26,0,1,0,.52,0V85h.52v1.5a.26.26,0,1,0,.51,0V85h.87l.08,0V83.07l-.09,0Z"/><path class="cls-1" d="M38.47,83.72a1,1,0,0,0,1,1h.89V86.2a.26.26,0,0,0,.27.26h0a.26.26,0,0,0,.25-.26V84.71h.51V86.2a.25.25,0,0,0,.27.26.25.25,0,0,0,.25-.26V84.71h.51V86.2a.27.27,0,0,0,.27.26h0A.26.26,0,0,0,43,86.2V84.71h.51V86.2a.27.27,0,0,0,.27.26A.25.25,0,0,0,44,86.2V84.71h.53V86.2a.25.25,0,0,0,.25.26h0A.26.26,0,0,0,45,86.2V84.71h.52V86.2a.26.26,0,0,0,.26.26h0a.26.26,0,0,0,.25-.26V84.71h.52V86.2a.25.25,0,0,0,.25.26h0a.25.25,0,0,0,.25-.26V84.71h.52V86.2a.26.26,0,0,0,.26.26h0a.26.26,0,0,0,.25-.26V84.71h.52V86.2a.26.26,0,1,0,.51,0V84.71H50a1,1,0,1,0,0-2H39.46A1,1,0,0,0,38.47,83.72Z"/><path class="cls-1" d="M51.49,142.89a.26.26,0,0,1,.26.26v1.68a.26.26,0,0,1-.26.26.25.25,0,0,1-.26-.26v-1.68A.26.26,0,0,1,51.49,142.89Z"/><path class="cls-1" d="M50.45,142.89a.26.26,0,0,1,.26.26v1.68a.26.26,0,0,1-.52,0v-1.68A.26.26,0,0,1,50.45,142.89Z"/><path class="cls-1" d="M49.41,142.89a.26.26,0,0,1,.26.26v1.68a.25.25,0,0,1-.26.26.26.26,0,0,1-.26-.26v-1.68A.26.26,0,0,1,49.41,142.89Z"/><path class="cls-1" d="M48.38,142.89a.26.26,0,0,1,.26.26v1.68a.26.26,0,0,1-.26.26.25.25,0,0,1-.26-.26v-1.68A.26.26,0,0,1,48.38,142.89Z"/><path class="cls-1" d="M47.34,142.89a.26.26,0,0,1,.26.26v1.68a.26.26,0,0,1-.52,0v-1.68A.26.26,0,0,1,47.34,142.89Z"/><path class="cls-1" d="M46.3,142.89a.26.26,0,0,1,.26.26v1.68a.25.25,0,0,1-.26.26.26.26,0,0,1-.26-.26v-1.68A.26.26,0,0,1,46.3,142.89Z"/><path class="cls-1" d="M45.27,142.89a.26.26,0,0,1,.26.26v1.68a.26.26,0,0,1-.26.26.25.25,0,0,1-.26-.26v-1.68A.26.26,0,0,1,45.27,142.89Z"/><path class="cls-1" d="M44.23,142.89a.26.26,0,0,1,.26.26v1.68a.26.26,0,0,1-.52,0v-1.68A.26.26,0,0,1,44.23,142.89Z"/><path class="cls-1" d="M43.19,142.89a.26.26,0,0,1,.26.26v1.68a.25.25,0,0,1-.26.26.26.26,0,0,1-.26-.26v-1.68A.26.26,0,0,1,43.19,142.89Z"/><path class="cls-1" d="M42.16,142.89a.26.26,0,0,1,.26.26v1.68a.26.26,0,0,1-.26.26.25.25,0,0,1-.26-.26v-1.68A.26.26,0,0,1,42.16,142.89Z"/><path class="cls-1" d="M41.12,142.89a.26.26,0,0,1,.26.26v1.68a.26.26,0,1,1-.52,0v-1.68A.26.26,0,0,1,41.12,142.89Z"/><path class="cls-1" d="M40.08,142.89a.26.26,0,0,1,.26.26v1.68a.25.25,0,0,1-.26.26.26.26,0,0,1-.26-.26v-1.68A.26.26,0,0,1,40.08,142.89Z"/><path class="cls-1" d="M39.05,142.89a.26.26,0,0,1,.26.26v1.68a.26.26,0,0,1-.26.26.25.25,0,0,1-.26-.26v-1.68A.26.26,0,0,1,39.05,142.89Z"/><path class="cls-1" d="M38,142.89a.26.26,0,0,1,.26.26v1.68a.26.26,0,1,1-.52,0v-1.68A.26.26,0,0,1,38,142.89Z"/><path class="cls-1" d="M36,142.32a.85.85,0,0,0,0,.23,1,1,0,0,0,1,.76H52.5a1,1,0,0,0,1-.76.85.85,0,0,0,0-.23,1,1,0,0,0-1-1H37A1,1,0,0,0,36,142.32Z"/><path class="cls-4" d="M47.05,82.73v.83l0,1.46v.08l.5,29v.19l0,1.78v.19l.42,25.12v.54l0,1.43,0,1.41v.58l.63,36.61h5.09l-1.56-38,0-.47v-.08h.24a1,1,0,0,0,1-.76.85.85,0,0,0,0-.23,1,1,0,0,0-1-1h-.32l-1-25.32a1,1,0,0,0,.94-1,1,1,0,0,0-1-1h0L49.86,85v-.29H50a1,1,0,1,0,0-2Z"/><path class="cls-2" d="M42.5,82.73v.83l0,1.46v.08l-.49,29v.19l0,1.78v.19l-.43,25.12v.54l0,1.43,0,1.41v.58l-.62,36.61H35.65l1.59-38.6H37a1,1,0,0,1-1-.77.85.85,0,0,1,0-.23,1,1,0,0,1,1-1h.27l1-25.32a1,1,0,0,1-.94-1,1,1,0,0,1,1-1h0l1.21-29.35h-.14a1,1,0,1,1,0-2Z"/><path class="cls-7" d="M146.59,143.61V136a3.7,3.7,0,0,1,1.65-3.08l1.95-1.29a3.2,3.2,0,0,1,3.59,0l1.95,1.29a3.69,3.69,0,0,1,1.64,3.08v7.6Z"/><path class="cls-8" d="M156.36,142.6H147.6V136a2.69,2.69,0,0,1,1.2-2.24l1.95-1.29a2.22,2.22,0,0,1,2.47,0l1.95,1.29a2.71,2.71,0,0,1,1.19,2.24Z"/><path class="cls-7" d="M157.28,136.81v-.75H154V132h-.75v2.78h-2.53V132H150v4.05h-3.27v.75H150v4.3h-3.27v.76H150v.82h.76v-1.9h2.53v1.9H154v-.82h3.28v-.76H154v-4.3ZM150.72,140v-4.49h2.53V140Z"/><path class="cls-7" d="M144.17,170.68v-11a5.33,5.33,0,0,1,2.39-4.46l2.82-1.88a4.63,4.63,0,0,1,2.6-.79,4.68,4.68,0,0,1,2.61.79l2.82,1.88a5.35,5.35,0,0,1,2.39,4.46v11Z"/><path class="cls-8" d="M158.33,169.21H145.64v-9.55a3.9,3.9,0,0,1,1.73-3.24l2.82-1.88a3.2,3.2,0,0,1,3.58,0l2.83,1.88a3.9,3.9,0,0,1,1.73,3.24Z"/><path class="cls-7" d="M159.66,160.82v-1.09h-4.75v-5.86h-1.1v4h-3.66v-4h-1.1v5.86h-4.74v1.09h4.74v6.23h-4.74v1.1h4.74v1.19h1.1v-2.75h3.66v2.75h1.1v-1.19h4.75v-1.1h-4.75v-6.23Zm-9.51,4.67V159h3.66v6.5Z"/><rect class="cls-7" x="134.64" y="143.61" width="34.69" height="1.6"/><path class="cls-11" d="M152,116.45l-13.64,8.74a8,8,0,0,0-3.7,6.77v42.77h17.42Z"/><rect class="cls-7" x="30.98" y="170.68" width="242" height="15.49"/><rect class="cls-1" x="30.98" y="170.68" width="242" height="2.02"/></svg>