<svg id="Layer_1" data-name="Layer 1" xmlns="http://www.w3.org/2000/svg" viewBox="0 0 261.91 282.35"><defs><style>.cls-1{fill:#caa676;}.cls-2{fill:#e6c08c;}.cls-3,.cls-4{opacity:0.41;}.cls-5{opacity:0.67;}.cls-24,.cls-6{opacity:0.19;}.cls-12,.cls-7{opacity:0.4;}.cls-8{opacity:0.46;}.cls-9{opacity:0.25;}.cls-10,.cls-31{opacity:0.14;}.cls-11{fill:#a68861;}.cls-13{fill:#bd8f51;}.cls-14,.cls-15{opacity:0.55;}.cls-16{opacity:0.16;}.cls-17{fill:#d03000;}.cls-18{fill:#a6793f;}.cls-19,.cls-21{opacity:0.13;}.cls-20{fill:#8f7553;}.cls-22{fill:#b39168;}.cls-23{fill:#b5946a;}.cls-25{fill:#735e43;}.cls-26{opacity:0.35;}.cls-27{opacity:0.18;}.cls-28{opacity:0.2;}.cls-29{opacity:0.45;}.cls-30{opacity:0.61;}.cls-31{fill:#fff;}</style></defs><path class="cls-1" d="M175.21,148.75a.51.51,0,0,1-.55.47h-4a.51.51,0,0,1-.55-.47v-7.11a.52.52,0,0,1,.55-.48h4a.52.52,0,0,1,.55.48Zm64.64,34.49V172.45a3.63,3.63,0,0,1,.4-1.63,2,2,0,0,0,0-1.76,4.2,4.2,0,0,1-.42-1.8V151.34a.6.6,0,0,0-.17-.43c-10.53-11.42-78.23-13.18-91.57-13.41a2.44,2.44,0,0,0-2.55,1.92l-2.7,19.12,18.44,26,.88,1.23L187,218.91a123.75,123.75,0,0,0,16.32-.78h0l.91-.12.42-.06a170.06,170.06,0,0,0,19.92-4.06h.06c9.48-2.72,15.47-5.16,15.47-5.16l-.28-21.28a2.82,2.82,0,0,1,.31-1.26,2.14,2.14,0,0,0-.07-2.08A1.64,1.64,0,0,1,239.85,183.24Z"/><path class="cls-2" d="M224.6,213.89c-.7.2-1.41.41-2.15.6l-.43.11-.87.23c-.68.18-1.36.34-2.07.51l-.66.16-.43.1c-.83.19-1.68.38-2.55.56-1.35.29-2.73.56-4.17.81l-1.77.31-.42.06c-1.85.3-3.76.57-5.73.79l.91-.12.42-.06c4.67-.65,9.16-1.5,13.31-2.44l.43-.09,1-.24,2.57-.62.43-.11C223.18,214.27,223.9,214.08,224.6,213.89Z"/><g class="cls-3"><path d="M174.66,141.16a.52.52,0,0,1,.55.48v7.11a.51.51,0,0,1-.55.47h-4a.51.51,0,0,1-.55-.47v-7.11a.52.52,0,0,1,.55-.48h4m0-.36h-4a.92.92,0,0,0-1,.84v7.11a.92.92,0,0,0,1,.84h4a.92.92,0,0,0,1-.84v-7.11a.92.92,0,0,0-1-.84Z"/></g><path class="cls-4" d="M199.44,150.55l-2.77-.23a.76.76,0,0,1-.73-.7v-6a.77.77,0,0,1,.89-.7l2.77.23a.74.74,0,0,1,.73.7v6A.77.77,0,0,1,199.44,150.55Z"/><path class="cls-4" d="M199.6,143.16l-2.77-.23a.84.84,0,0,0-.5.1l1.57.13a.75.75,0,0,1,.74.7v6a.68.68,0,0,1-.4.6l1.2.1a.77.77,0,0,0,.89-.7v-6A.74.74,0,0,0,199.6,143.16Z"/><path class="cls-5" d="M217.24,153.29l-.89-.15a.59.59,0,0,1-.51-.54v-6.3a.62.62,0,0,1,.76-.54l.88.15a.57.57,0,0,1,.51.54v6.3A.62.62,0,0,1,217.24,153.29Z"/><path class="cls-5" d="M231.07,154l-1.35-.42a.64.64,0,0,1-.48-.6v-2.9a.44.44,0,0,1,.59-.36l1.22.38a.69.69,0,0,1,.52.65v2.94A.37.37,0,0,1,231.07,154Z"/><path class="cls-4" d="M224.57,164.64h15.19a2.39,2.39,0,0,1-.14-.79v-3.74a.26.26,0,0,0-.17-.23l-1.53-.57a.29.29,0,0,0-.4.23v4.53a.54.54,0,0,1-.72.45l-1.45-.4a.48.48,0,0,1-.38-.45V159.4a.34.34,0,0,0-.27-.31l-1.81-.44a.37.37,0,0,0-.47.31v3.82a.86.86,0,0,1-.78.81l-2.29.34a.51.51,0,0,1-.6-.38l-.74-5.49a.91.91,0,0,0-.31-.55l-1.36-1.14a.2.2,0,0,0-.33.13v6.56a.32.32,0,0,1-.44.25l-2.82-1a1,1,0,0,1-.72-.88l-.4-6a.93.93,0,0,0-.51-.74l-1.66-.89a.63.63,0,0,0-1,.46v6.61a.46.46,0,0,1-.73.32l-.92-.6a2.23,2.23,0,0,1-1-1.53l-.43-3.06a4.71,4.71,0,0,0-2.57-3.46l-.28-.14a.75.75,0,0,0-1.14.55v6.27a1.14,1.14,0,0,1-1.49,1l-2.51-.64a1.7,1.7,0,0,1-1.33-1.41l-.53-5.62a1.81,1.81,0,0,0-1.66-1.54l-1.37-.17a1,1,0,0,0-1.16.86v7.75A1.36,1.36,0,0,1,200,160.6l-4.07.32a1.39,1.39,0,0,1-1.59-1.26v-7.94a.74.74,0,0,0-.71-.7l-2.81-.33a.79.79,0,0,0-.93.7v9.13a1.48,1.48,0,0,1-1.73,1.33l-4.28-.44a1.43,1.43,0,0,1-1.36-1.33V149a.89.89,0,0,0-.84-.83l-3.16-.34a.93.93,0,0,0-1.08.82v7.42a1.25,1.25,0,0,1-1.76,1l-.76-.29a1.84,1.84,0,0,0-2.25.74l0,0a1.64,1.64,0,0,1-1.75.75,3.56,3.56,0,0,1-3.11-3.33v-6.57a.75.75,0,0,0-.8-.69h-3.3a.75.75,0,0,0-.79.63l-1.08,10.81-1.48,4.13h64.2Z"/><path class="cls-2" d="M243,187a1,1,0,0,0-.13.52l.38,20.4s-3.28,1.33-8.71,3.09c-.8.26-1.65.53-2.54.8s-1.53.47-2.34.7l-.42.13h0l-.43.12c-.88.26-1.8.51-2.75.77l-.43.12-.42.11-.55.15h-.06A170.06,170.06,0,0,1,204.68,218l-.42.06-.91.12h0c-2,.26-3.93.47-5.92.65l-.43,0a107.78,107.78,0,0,1-13.58.31c-.68,0-22-32.29-22-32.29l-.14-2.28-1.1-18.44,2.5-7,1.08-10.81a.75.75,0,0,1,.79-.63h3.3a.75.75,0,0,1,.8.69V155a3.55,3.55,0,0,0,3.11,3.33,1.23,1.23,0,0,0,.33,0,1.6,1.6,0,0,0,1.42-.78l0,0a1.84,1.84,0,0,1,2.25-.74l.76.29a1.25,1.25,0,0,0,1.76-1v-7.42a.93.93,0,0,1,1.08-.82l3.16.35a.88.88,0,0,1,.84.82v11.07a1.43,1.43,0,0,0,1.36,1.34l4.28.45a1.5,1.5,0,0,0,1.74-1.34v-9.13a.78.78,0,0,1,.92-.7l2.81.33a.75.75,0,0,1,.71.7v7.94a1.39,1.39,0,0,0,1.59,1.26l4.07-.32a1.36,1.36,0,0,0,1.33-1.26v-7.75a1,1,0,0,1,1.15-.86l1.38.17a1.81,1.81,0,0,1,1.66,1.54l.53,5.62a1.68,1.68,0,0,0,1.32,1.41l2.52.64a1.14,1.14,0,0,0,1.49-1v-6.27a.75.75,0,0,1,1.13-.55l.29.14a4.71,4.71,0,0,1,2.57,3.46l.43,3.06a2.23,2.23,0,0,0,1,1.53l.92.6a.47.47,0,0,0,.73-.32v-6.61a.63.63,0,0,1,.95-.46l1.66.89a.93.93,0,0,1,.51.74l.4,6a1,1,0,0,0,.72.88l2.82,1a.31.31,0,0,0,.43-.26V156.5a.2.2,0,0,1,.34-.13l1.35,1.14a.87.87,0,0,1,.32.55l.74,5.49a.5.5,0,0,0,.6.38l2.29-.35a.85.85,0,0,0,.78-.8V159a.37.37,0,0,1,.47-.31l1.81.44a.34.34,0,0,1,.27.31v4.27a.48.48,0,0,0,.38.45l1.45.4a.54.54,0,0,0,.72-.45v-4.53a.28.28,0,0,1,.39-.23l1.09.41.45.16a.26.26,0,0,1,.17.23v3.74a2.51,2.51,0,0,0,.57,1.58l.2.25a1.51,1.51,0,0,1,.35,1v1.47l.9,3.41a3.65,3.65,0,0,1,.12.93V183a1.56,1.56,0,0,0,.63,1.23l.44.35a.65.65,0,0,1,.19.84Z"/><g class="cls-6"><path d="M193.9,219.49h-9.48V200.8c0-2.26,2.13-4.1,4.74-4.1s4.74,1.84,4.74,4.1Zm-8.63-.73h7.78v-18a3.93,3.93,0,0,0-7.78,0Z"/><path d="M200.83,196.7A3.62,3.62,0,0,0,197,200v18.78q3.92-.31,7.7-.86V200A3.62,3.62,0,0,0,200.83,196.7Zm3,21.37-6,.67V200a3,3,0,0,1,6,0Z"/><path d="M212.26,196.08a3,3,0,0,0-3.18,2.76v18.5l.42-.06h0l1.77-.31c1.44-.25,2.82-.52,4.17-.81V198.84A3,3,0,0,0,212.26,196.08Zm2.34,20.23-4.67.89V198.84a2.36,2.36,0,0,1,4.67,0Z"/><path d="M220.22,196.81a1.3,1.3,0,0,0-1.38,1.2v16.91l2.76-.56V198A1.3,1.3,0,0,0,220.22,196.81Zm0-.73A2.1,2.1,0,0,0,218,198V215.6l.43-.1.66-.16,2.94-.74h0l.43-.11V198A2.1,2.1,0,0,0,220.22,196.08Z"/><path d="M227.44,196.08a2.1,2.1,0,0,0-2.23,1.93v15.72l.42-.11.43-.12V198a1.39,1.39,0,0,1,2.75,0v14.73l.43-.13h0l.42-.13V198A2.1,2.1,0,0,0,227.44,196.08Z"/><path d="M231.57,211.91V197.55a1.72,1.72,0,0,1,3.4,0v13.29Zm1.7-15.1a.8.8,0,0,0-.85.74v14.1l1.7-.56V197.55A.8.8,0,0,0,233.27,196.81Z"/><path d="M235.82,210.56v-13a1.71,1.71,0,0,1,3.39,0V209.4Zm1.7-13.75a.8.8,0,0,0-.85.74v12.73l1.7-.59V197.55A.81.81,0,0,0,237.52,196.81Z"/></g><path class="cls-7" d="M193.47,219.13h-8.63V201.38a4.33,4.33,0,0,1,4.32-4.32h0a4.32,4.32,0,0,1,4.31,4.32Z"/><path class="cls-7" d="M204.26,200v18c-2.25.31-4.54.57-6.85.77V200a2.84,2.84,0,0,1,1.3-2.33,3.54,3.54,0,0,1,.47-.26l.25-.11.22-.09h.06l.25-.07h0l.27,0a1.43,1.43,0,0,1,.29,0h0l.29,0A3.23,3.23,0,0,1,204.26,200Z"/><path class="cls-7" d="M215,198.84v17.38l-3.75.75-1.77.31V198.84a2.6,2.6,0,0,1,2.76-2.39,2.92,2.92,0,0,1,2,.7A2.23,2.23,0,0,1,215,198.84Z"/><path class="cls-7" d="M222,198V214.6l-.87.23-1.7.42-1,.25V198a1.69,1.69,0,0,1,1.8-1.56,2,2,0,0,1,1.28.45A1.5,1.5,0,0,1,222,198Z"/><path class="cls-7" d="M229.24,198v14.6l-.43.13h0c-.88.26-1.8.51-2.75.77l-.43.12V198a1.7,1.7,0,0,1,1.81-1.56,1.94,1.94,0,0,1,1.27.45A1.48,1.48,0,0,1,229.24,198Z"/><path class="cls-7" d="M234.54,211l-2.54.8V197.55a1.19,1.19,0,0,1,1.27-1.1h0a1.19,1.19,0,0,1,1.27,1.1Z"/><path class="cls-7" d="M238.79,209.54l-2.55.88V197.55a1.2,1.2,0,0,1,1.28-1.1h0a1.19,1.19,0,0,1,1.27,1.1Z"/><path class="cls-7" d="M215,198.84v17.41l-3.75.72-1.77.31V198.84a2.6,2.6,0,0,1,2.76-2.39,2.92,2.92,0,0,1,2,.7A2.23,2.23,0,0,1,215,198.84Z"/><path class="cls-7" d="M222,198V214.6l-2.94.74-.66.16V198a1.69,1.69,0,0,1,1.8-1.56,2,2,0,0,1,1.28.45A1.5,1.5,0,0,1,222,198Z"/><path class="cls-7" d="M229.24,198v14.6l-.43.13h0c-.88.26-1.8.51-2.75.77l-.43.12V198a1.7,1.7,0,0,1,1.81-1.56,1.94,1.94,0,0,1,1.27.45A1.48,1.48,0,0,1,229.24,198Z"/><path class="cls-7" d="M234.54,197.55V211c-.8.26-1.65.53-2.54.8V197.55a1.19,1.19,0,0,1,1.27-1.1,1.37,1.37,0,0,1,.9.32A1,1,0,0,1,234.54,197.55Z"/><path class="cls-7" d="M238.79,209.54l-2.55.88V197.55a1.2,1.2,0,0,1,1.28-1.1h0a1.19,1.19,0,0,1,1.27,1.1Z"/><path class="cls-8" d="M204.26,200v18c-2.25.31-4.54.57-6.85.77h0l2.62-.25V200a2.87,2.87,0,0,0-1.31-2.33,3.54,3.54,0,0,1,.47-.26l.25-.11.22-.09h.06l.25-.07h0l.27,0a1.43,1.43,0,0,1,.29,0h0l.29,0A3.23,3.23,0,0,1,204.26,200Z"/><path class="cls-8" d="M189.16,197.06h0a4.76,4.76,0,0,0-2.12.49,3.7,3.7,0,0,1,2.19,3.25v18.33h4.24V200.8A4.06,4.06,0,0,0,189.16,197.06Z"/><path class="cls-9" d="M194.17,219.43l.05.11-3.28.13c-1.65-.75-9.69-5.3-15.3-8.68l-.85-.51a31.31,31.31,0,0,1-4.74-3.18c-.2-.43-3.43-6.21-6.9-12.61-.13-.23-.26-.46-.38-.7-1.32-2.42-2.65-4.91-3.85-7.21-2.54-4.84-4.5-8.84-4.5-9.66,0-2.28-4.32-23.82-4.32-23.82l9.23-7.11s4.83-1.61,5.54,8.75a2.42,2.42,0,0,0,1.15,1.8,4.49,4.49,0,0,1,2,5,2.09,2.09,0,0,0,.06,1.11c1.1,3.31,6.66,19.4,11.41,21.78l2.17-.9s4.72-.54,4.8,4.06a4.45,4.45,0,0,0,.57,2.08,11.12,11.12,0,0,1,1.46,6.09,12.27,12.27,0,0,0,1.77,7.34c2.89,4.86,7.61,12.23,11.24,14.79a6.82,6.82,0,0,0,1,.61C199.81,219,197,219.28,194.17,219.43Z"/><g class="cls-3"><path d="M191.45,191.19a156.45,156.45,0,0,1-16.72-.58l.13-.72c12,1.59,67.48-.71,68-.74v.8C242.5,190,212.19,191.19,191.45,191.19Z"/></g><g class="cls-10"><path d="M191.7,187.32a159.09,159.09,0,0,1-16.72-.58l.13-.73c12,1.6,68.27-.79,68.83-.82l-.45.88C243.08,186.09,212.44,187.32,191.7,187.32Z"/></g><path class="cls-11" d="M243.43,208.22a182.45,182.45,0,0,1-40.85,10.45c-2.77.35-5.59.61-8.41.76l-2.91.12,0-.74c.86,0,1.72-.05,2.57-.1,2.59-.13,5.17-.36,7.73-.65a182.26,182.26,0,0,0,41.7-10.57Z"/><g class="cls-12"><path d="M192,184.94H183.4a.4.4,0,0,1-.43-.37V168.46c0-2.26,2.13-4.11,4.74-4.11s4.74,1.85,4.74,4.11v16.11A.39.39,0,0,1,192,184.94Zm-8.21-.73h7.78V168.46a3.93,3.93,0,0,0-7.78,0Z"/><path d="M179.11,185h-8.63a.39.39,0,0,1-.42-.37V167.75c0-2.26,2.12-4.1,4.73-4.1s4.74,1.84,4.74,4.1V184.6A.39.39,0,0,1,179.11,185Zm-8.21-.73h7.78V167.75a3.93,3.93,0,0,0-7.78,0Z"/><path d="M204.26,185.27h-6.85a.4.4,0,0,1-.43-.37V168a3.89,3.89,0,0,1,7.7,0V184.9A.4.4,0,0,1,204.26,185.27Zm-6.43-.74h6V168a3,3,0,0,0-6,0Z"/><path d="M215,181.63h0l-5.52-.37a.39.39,0,0,1-.39-.37v-13a3.21,3.21,0,0,1,6.36,0v13.34a.34.34,0,0,1-.13.27A.48.48,0,0,1,215,181.63Zm-5.09-1.08,4.67.31V167.92a2.36,2.36,0,0,0-4.67,0Z"/><path d="M222,183.37h-3.6A.4.4,0,0,1,218,183V168.2a2.25,2.25,0,0,1,4.46,0V183A.4.4,0,0,1,222,183.37Zm-3.18-.74h2.76V168.2a1.39,1.39,0,0,0-2.76,0Z"/><path d="M229.24,184.64h-3.61a.39.39,0,0,1-.42-.37v-14.6a2.25,2.25,0,0,1,4.45,0v14.6A.39.39,0,0,1,229.24,184.64Zm-3.18-.74h2.75V169.67a1.39,1.39,0,0,0-2.75,0Z"/><path d="M234.54,185H232a.4.4,0,0,1-.43-.37v-14a1.72,1.72,0,0,1,3.4,0v14A.4.4,0,0,1,234.54,185Zm-2.12-.74h1.7V170.68a.86.86,0,0,0-1.7,0Z"/><path d="M238.79,185h-2.55a.4.4,0,0,1-.42-.37V171.79a1.71,1.71,0,0,1,3.39,0v12.87A.4.4,0,0,1,238.79,185Zm-2.12-.74h1.7v-12.5a.86.86,0,0,0-1.7,0Z"/></g><g class="cls-12"><path d="M192,184.57H183.4V169a4.31,4.31,0,0,1,4.31-4.31h0A4.32,4.32,0,0,1,192,169Z"/><path d="M179.11,184.6h-8.63V168.33a4.32,4.32,0,0,1,4.31-4.32h0a4.32,4.32,0,0,1,4.32,4.32Z"/><path d="M204.26,184.9h-6.85V168a3.22,3.22,0,0,1,3.42-3h0a3.22,3.22,0,0,1,3.43,3Z"/><path d="M215,181.26l-5.52-.37v-13a2.6,2.6,0,0,1,2.76-2.39h0a2.6,2.6,0,0,1,2.76,2.39Z"/><path d="M222,183h-3.6V168.2a1.69,1.69,0,0,1,1.8-1.56h0a1.69,1.69,0,0,1,1.8,1.56Z"/><path d="M229.24,184.27h-3.61v-14.6a1.7,1.7,0,0,1,1.81-1.56h0a1.7,1.7,0,0,1,1.8,1.56Z"/><path d="M234.54,184.66H232v-14a1.19,1.19,0,0,1,1.27-1.1h0a1.19,1.19,0,0,1,1.27,1.1Z"/><path d="M238.79,184.66h-2.55V171.79a1.2,1.2,0,0,1,1.28-1.11h0a1.2,1.2,0,0,1,1.27,1.11Z"/></g><g class="cls-12"><path d="M192,184.57H183.4V169a4.31,4.31,0,0,1,4.31-4.31h0A4.32,4.32,0,0,1,192,169Z"/><path d="M179.11,184.6h-8.63V168.33a4.32,4.32,0,0,1,4.31-4.32h0a4.32,4.32,0,0,1,4.32,4.32Z"/><path d="M204.26,184.9h-6.85V168a3.22,3.22,0,0,1,3.42-3h0a3.22,3.22,0,0,1,3.43,3Z"/><path d="M215,181.26l-5.52-.37v-13a2.6,2.6,0,0,1,2.76-2.39h0a2.6,2.6,0,0,1,2.76,2.39Z"/><path d="M222,183h-3.6V168.2a1.69,1.69,0,0,1,1.8-1.56h0a1.69,1.69,0,0,1,1.8,1.56Z"/><path d="M229.24,184.27h-3.61v-14.6a1.7,1.7,0,0,1,1.81-1.56h0a1.7,1.7,0,0,1,1.8,1.56Z"/><path d="M234.54,184.66H232v-14a1.19,1.19,0,0,1,1.27-1.1h0a1.19,1.19,0,0,1,1.27,1.1Z"/><path d="M238.79,184.66h-2.55V171.79a1.2,1.2,0,0,1,1.28-1.11h0a1.2,1.2,0,0,1,1.27,1.11Z"/></g><path class="cls-1" d="M162.18,164.52c4-3.68,0-7.55,0-7.55v-3.31H111.1V187c33.1.83,61.9-.57,61.9-.57Z"/><path class="cls-13" d="M165.19,170.61a13.48,13.48,0,0,1-1.31-8.83c.56-2.63-1.7-4.81-1.7-4.81v-3.31H111.1V187c33.1.83,61.9-.57,61.9-.57Zm-34.12,16.24h-.84v-21c0-3.28-3.09-6-6.88-6s-6.87,2.68-6.87,6V186.7l-.85,0V165.85c0-3.69,3.47-6.69,7.72-6.69s7.72,3,7.72,6.69Zm23.35-.23-.85,0V165.85c0-3.28-3.08-6-6.87-6s-6.87,2.68-6.87,6v20.8h13.38c-4.25.08-9.05.15-14.23.18v-21c0-3.69,3.46-6.69,7.72-6.69s7.72,3,7.72,6.69Z"/><g class="cls-14"><path d="M139.83,187.22c5,0,9.63-.11,13.74-.19v-20.7a6.89,6.89,0,0,0-13.74,0v20.32h13.38c-4,.08-8.53.14-13.38.18Z"/><path d="M130.23,187.24V166.33a6.89,6.89,0,0,0-13.75,0V187.1C121.21,187.19,125.81,187.23,130.23,187.24Z"/></g><path class="cls-15" d="M149.33,166.33a6.46,6.46,0,0,0-4.75-6.07,7.39,7.39,0,0,1,2.12-.31,6.64,6.64,0,0,1,6.87,6.38v20.32h-4.24Z"/><path d="M126,187.1V166.33a6.45,6.45,0,0,0-4.75-6.07,7.39,7.39,0,0,1,2.12-.31,6.65,6.65,0,0,1,6.88,6.38V187.1c-4.73.09-9.33.13-13.75.14v0Q121.13,187.19,126,187.1Z"/><g class="cls-16"><path d="M116.48,188.66V166.33a6.89,6.89,0,0,1,13.75,0v22.49h.84V166.33a7.74,7.74,0,0,0-15.44,0v22.32Z"/><path d="M153.21,188.61H139.83V166.33a6.89,6.89,0,0,1,13.74,0V188.6l.85,0V166.33a7.74,7.74,0,0,0-15.44,0V188.8C144.16,188.77,149,188.7,153.21,188.61Z"/></g><path class="cls-17" d="M173,186.05c-.56,0-29.14,1.35-61.88.53v.77l2.09.05c6.74.15,13.29.21,19.43.21,22.91,0,40.19-.82,40.4-.83Z"/><path class="cls-18" d="M138,148.41H127.37v-7.35a.74.74,0,0,1,.74-.74h9.13a.74.74,0,0,1,.74.74Z"/><path class="cls-18" d="M160.48,146.16l-49.38,1.35v10.38l51.08-.92v-5C162.18,151.2,161.41,146.14,160.48,146.16Z"/><g class="cls-19"><path d="M160.48,146.16l-49.38,1.35v10.38l51.08-.92v-5C162.18,151.2,161.41,146.14,160.48,146.16Z"/></g><path class="cls-1" d="M183.4,197.64c4-3.68,0-7.55,0-7.55v-3.31H126.66V220c35.41,1.14,67.56-.41,67.56-.41Z"/><path class="cls-13" d="M194.17,219.43l-.36-.72-7.4-15a13.56,13.56,0,0,1-1.31-8.83c.56-2.64-1.7-4.82-1.7-4.82v-3.31H126.66v6.16a6.69,6.69,0,0,1,4.42,6v20.7l-.85,0V199a5.9,5.9,0,0,0-3.57-5.21v26.18c28.69.93,55.24.09,64.28-.27l3.28-.13ZM152.3,220h-.85V199c0-3.28-3.08-5.95-6.87-5.95s-6.87,2.67-6.87,5.95v20.85l-.85,0V199c0-3.69,3.46-6.69,7.72-6.69s7.72,3,7.72,6.69Zm23.34-.22h-.85V199c0-3.28-3.08-5.95-6.87-5.95a7.47,7.47,0,0,0-4.77,1.67,5.62,5.62,0,0,0-2.1,4.28v21c4.86,0,9.36-.1,13.38-.18l-13.38.44V220h-.85V199a6.33,6.33,0,0,1,2.57-5,8.41,8.41,0,0,1,5.15-1.71c4.26,0,7.72,3,7.72,6.69Z"/><g class="cls-14"><path d="M161.05,220.34c5,0,9.63-.11,13.74-.19v-20.7a6.89,6.89,0,0,0-13.74,0V220l13.38-.18c-4,.08-8.52.15-13.38.18Z"/><path d="M126.66,193.86V220l3.57.1v-20.6A6.34,6.34,0,0,0,126.66,193.86Z"/><path d="M151.45,220.36V199.45a6.89,6.89,0,0,0-13.74,0v20.77C142.43,220.31,147,220.35,151.45,220.36Z"/></g><path class="cls-15" d="M170.55,199.45a6.47,6.47,0,0,0-4.75-6.07,7.39,7.39,0,0,1,2.12-.31,6.64,6.64,0,0,1,6.87,6.38v20.32l-4.25.1Z"/><path d="M126.66,219.79V220l3.57.1v-.13Z"/><path d="M147.2,220.22V199.45a6.46,6.46,0,0,0-4.74-6.07,7.34,7.34,0,0,1,2.12-.31,6.64,6.64,0,0,1,6.87,6.38v20.77c-4.73.09-9.33.13-13.74.14v0C140.8,220.32,144,220.28,147.2,220.22Z"/><g class="cls-16"><path d="M137.71,221.78V199.45a6.89,6.89,0,0,1,13.74,0v22.49h.85V199.45a7.74,7.74,0,0,0-15.44,0v22.32Z"/><path d="M175.64,199.45V220.5h-.85V199.45a6.89,6.89,0,0,0-13.74,0v21.26h-.85V199.45a7.74,7.74,0,0,1,15.44,0Z"/><path d="M126.66,193v.88a6.34,6.34,0,0,1,3.57,5.59V221.6l.84,0V199.45A7.15,7.15,0,0,0,126.66,193Z"/></g><path class="cls-20" d="M194.25,219.9c-.14,0-7.36.35-18.61.6h-.85c-4.11.09-8.74.16-13.74.2h-.85l-6.36,0c-6.14,0-12.69-.06-19.42-.2-2.53-.06-5.11-.13-7.76-.22v-.77c11.91.39,23.46.47,33.54.41h.85c5,0,9.63-.1,13.74-.19h.85c10.13-.22,17-.51,18.32-.57a.23.23,0,0,1,.25.2Z"/><path class="cls-18" d="M181.7,183.7l-55,1.5v5.92l56.74-1v-5A1.55,1.55,0,0,0,181.7,183.7Z"/><path class="cls-21" d="M130.05,187l49.88-1.36a1.24,1.24,0,0,1,1.35,1.13v.46a1.22,1.22,0,0,1-1.29,1.13l-49.87.91a1.24,1.24,0,0,1-1.34-1.14h0A1.23,1.23,0,0,1,130.05,187Z"/><path class="cls-21" d="M130.09,188.48a.44.44,0,0,1-.46-.4.44.44,0,0,1,.45-.4L180,186.32a.44.44,0,0,1,.48.4v.46a.43.43,0,0,1-.45.4Z"/><path class="cls-9" d="M113.46,147.32h4.7c1.19,0,2.26,5,2.73,5.94a19.12,19.12,0,0,1,1.42,3.5,4.65,4.65,0,0,0,.85,1.71c1.06,1.3,3,3.94,3.32,5.9a5.35,5.35,0,0,0,.52,1.55c2.05,4,10.21,19.15,16.29,21.76h0a2.1,2.1,0,0,1,2.23,1.93v3.23a2.55,2.55,0,0,0,.53,1.55c.89,1.16,2.48,3.7,1.69,6.28l-.38,1.06a3.77,3.77,0,0,0,.5,3.49l8.69,12.28a2.83,2.83,0,0,1-1.09,4.18l-5.36,3s-10.55-2.4-10.27-2.76-16.92-30.27-16.92-30.27l-9-34.69Z"/><path class="cls-22" d="M117.26,152.7c1.43,2.38,3.78,6.69,4.38,10.25a11.2,11.2,0,0,0,1,3.09c2.59,5.31,10.7,21.26,15.61,22.82l-9.51,4s-9.93-3-9.93-4-5.85-22.42-6.5-24.53-2-12.87-2-12.87l3.62-.34A3.58,3.58,0,0,1,117.26,152.7Z"/><path class="cls-23" d="M92.38,117.61l-.35,0c-2.14.31-13.92,2.08-27.81,5.1-3.76.82-7.68,1.73-11.61,2.73h0c-5.94,1.52-11.88,3.22-17.32,5.13a93.32,93.32,0,0,0-12.46,5.24c-1,.54-2,1.1-2.94,1.67l-.78.49-.64.43c-.54.37-1.06.75-1.55,1.13l-.35.29-.21.17V122.31a3.63,3.63,0,0,0-.62-2l-.06-.1-.47-.66a1.82,1.82,0,0,1,.34-2.48l.2-.17L17.86,115a4.3,4.3,0,0,0,1.54-3.24v-.92a4.86,4.86,0,0,0-.48-2.11,3.25,3.25,0,0,1-.31-1,2.47,2.47,0,0,1-.05-.54,3.43,3.43,0,0,1,.05-.56,3.62,3.62,0,0,1,.64-1.52C22.31,100.87,32.16,90,57.73,81.5l1.18-.38c.85-.28,1.73-.56,2.62-.83,1.2-.36,2.42-.72,3.67-1.07l.56-.16c1.58-.44,3.21-.86,4.9-1.28l.33-.09h0l.18,0h0c1.52-.38,3.09-.74,4.71-1.1V72.8a2.62,2.62,0,0,0,.52.57l.11.1c.79.66,2.44,1.59,5.56,1.81l.94-.18a1.88,1.88,0,0,1,1.25.21h0a1.37,1.37,0,0,1,.74,1.18v2.22l.69,4.84a1.19,1.19,0,0,0,1,1,2.1,2.1,0,0,1,1.18.61,1.68,1.68,0,0,1,.5,1.11L89,98.35a5.46,5.46,0,0,0,2.77,4.41l.08,1.9.12,2.78,0,.75.2,4.58v1l.12,2.56V117Z"/><path class="cls-1" d="M83.89,115s-2.08.3-5.57.86l-3.72.63s0,0,0,0c-4.32.74-9.83,1.76-15.88,3l-3,.64c-3.76.81-7.68,1.73-11.61,2.72h0q-2.45.61-4.88,1.29l-.36.1c-3.84,1.06-7.63,2.2-11.2,3.43q-1.47.49-2.88,1c-3,1.09-5.78,2.24-8.31,3.45l-.13.06a52.91,52.91,0,0,0-5,2.68c-.8.5-1.55,1-2.24,1.5l-.72.55h0l-.29.23a3.11,3.11,0,0,0-.28.23V119.74a3.61,3.61,0,0,0-.68-2.11L6.71,117a2,2,0,0,1-.21-.38h0a1.7,1.7,0,0,1-.12-.83,2,2,0,0,1,.67-1.25l2.32-2a4.32,4.32,0,0,0,1.54-3.25v-.92a4.75,4.75,0,0,0-.46-2h0l0,0a3.47,3.47,0,0,1-.36-1.53,3.63,3.63,0,0,1,.69-2.09c3.92-5.49,19-21.74,63.83-30.06A1.85,1.85,0,0,1,76,72.8a1.5,1.5,0,0,1,.52.57,1.31,1.31,0,0,1,.12.56v2.22L77.28,81a1.19,1.19,0,0,0,1,1,2.07,2.07,0,0,1,1.18.61,1.72,1.72,0,0,1,.5,1.11l.49,12.1a5.46,5.46,0,0,0,2.77,4.42l.2,4.68,0,.74,0,1.14.29,6.58,0,.4,0,.48v.25l0,.38Z"/><path class="cls-24" d="M91.58,106v7.51c-.35,0-.7,0-1.07,0a59.5,59.5,0,0,0-6.68.23l0,.48v.25a134.65,134.65,0,0,0-20.35,3.66c-2.35.58-4.71,1.21-7.07,1.87l-.71.2c-1.5.42-3,.87-4.51,1.31-4.4,1.33-8.75,2.74-12.88,4.14-3.92,1.34-7.66,2.68-11.08,3.94l-2,.73-1.11.42c-1.76.66-3.42,1.3-4.95,1.89l-2.9,1.15-.69.27-.24.1c-.75.29-1.45.58-2.09.84-2.61,1.06-4.34,1.79-4.9,2h0l-.19.08-.38.16v-.82l-.11-.38L7,133.59a.68.68,0,0,1,.2-.68l.62-.59v-1.06a61,61,0,0,1,8.49-6.35,91.21,91.21,0,0,1,12.07-6.33c19.57-8.61,42.85-12.29,55-13.71l0,.74c3-.36,5.34-.57,6.71-.69A1.22,1.22,0,0,1,91.58,106Z"/><path class="cls-20" d="M98.67,104.92l-.88.21a5.75,5.75,0,0,1-2.61,0l-2.12-.46a3.94,3.94,0,0,0-1.37,0l-1.51.25.54.84c-17.51,2.16-55.22,8.73-74.37,26.56l-.62.59a.66.66,0,0,0-.2.68l.82,2.84s1.27-.55,3.53-1.48c5.9-2.43,18.53-7.45,32.72-12h0c13.3-4.29,28-8.19,39.71-9.18a57.16,57.16,0,0,1,7.75-.19V106A1.22,1.22,0,0,0,98.67,104.92Z"/><path class="cls-1" d="M91.58,106v7.51c-.35,0-.7,0-1.07,0a59.5,59.5,0,0,0-6.68.23A121.47,121.47,0,0,0,68,116.3q-3.49.77-7.07,1.7t-7.19,2c-2.78.8-5.54,1.64-8.24,2.51l-1.36.43h0c-2.31.74-4.58,1.5-6.78,2.26q-2.53.87-4.95,1.72l-3.3,1.2-.09,0q-2.35.85-4.52,1.68L21.23,131l-3.56,1.38-1.32.53-.83.33c-1.61.64-3,1.2-4.13,1.67l-.31.13c-2.06.85-3.22,1.35-3.22,1.35l-.11-.38L7,133.59a.68.68,0,0,1,.2-.68l.62-.59a60.2,60.2,0,0,1,8.49-6.5A90.81,90.81,0,0,1,28,119.59c19.62-8.8,43.29-12.54,55.47-14,3-.36,5.34-.57,6.71-.69A1.22,1.22,0,0,1,91.58,106Z"/><path class="cls-25" d="M100.63,114.34c-.06-.79.4-1.68-.51-1.62q-3.09.21-6,.45a24.89,24.89,0,0,1-2.46-.45l.74.6c-55.86,5-75.67,21.92-79.06,25.24a.94.94,0,0,0-.15,1.19l1.09,1.75v2.27c0,.24.34.34.52.16,24.17-24,82.46-27.63,82.46-27.63C97.29,114.7,100.69,115.12,100.63,114.34Z"/><path class="cls-23" d="M102.11,142.62l-4.88-20.06c1.28-4.42,0-6.26,0-6.26C26.14,119.8,10,142.8,10,142.8v21.53c12-7.84,92.92-12.69,104.69-13.35a1.42,1.42,0,0,0,1.42-1.32v-4.33a3.56,3.56,0,0,0-4-3.24ZM32.8,151.77l-6,1.47V138.53A3.82,3.82,0,0,1,30.9,135h0a1.78,1.78,0,0,1,1.9,1.64Zm11.1-2.48-7.42,1.47V135.65a4,4,0,0,1,4.27-3.7h0a3,3,0,0,1,3.15,2.73Zm12.05-2-8,1.11V133.07a3.84,3.84,0,0,1,4.09-3.54h1A2.7,2.7,0,0,1,56,132Zm17-2.27-10.83,1.1v-14c0-3.24,3-5.86,6.77-5.86a3.82,3.82,0,0,1,4.06,3.52Zm18.26-1.47-12.67.73V128c0-2.62,2.44-4.74,5.46-4.74h1.74c3,0,5.47,2.12,5.47,4.74Z"/><path class="cls-1" d="M110.18,142.2a1.94,1.94,0,0,0-.34,0l-7.76.28-4.21.16L93,122.56a10.75,10.75,0,0,0,.44-5,4.62,4.62,0,0,0-.27-.94.61.61,0,0,0,0-.12,2.37,2.37,0,0,0-.12-.23l-.67,0h-.13c-9.54.49-18.07,1.34-25.7,2.43-5.56.8-10.63,1.72-15.27,2.73-5.16,1.13-9.77,2.37-13.89,3.68-1.45.45-2.84.92-4.17,1.39s-2.79,1-4.08,1.53l-.09,0c-1.63.65-3.17,1.3-4.6,2q-2.82,1.29-5.14,2.54c-1,.56-2,1.11-2.9,1.65l-.53.32A44.23,44.23,0,0,0,7,141.34a14.84,14.84,0,0,0-1.28,1.46v21.53A18.79,18.79,0,0,1,10,162.47a79.61,79.61,0,0,1,8.76-2.21l1-.2c2-.39,4.17-.78,6.44-1.15h0c12.44-2,28.43-3.7,43.21-5h.16c20.45-1.78,38.56-2.81,41.75-3l.5,0v-7A1.81,1.81,0,0,0,110.18,142.2Zm-23.25,1.35-8.42.49-4.25.24V128c0-2.62,2.45-4.74,5.46-4.74H82l.19,0a2.48,2.48,0,0,1,.27,0l.3,0A4.93,4.93,0,0,1,86.93,128Zm-64.34-5a3.1,3.1,0,0,1,.2-1.09,3.52,3.52,0,0,1,1-1.4,4.33,4.33,0,0,1,2.87-1h0a2.06,2.06,0,0,1,.62.09l.21.08a.53.53,0,0,1,.1.06,1.62,1.62,0,0,1,.39.25,1.38,1.38,0,0,1,.3.34,1.47,1.47,0,0,1,.25.82v15.12l-1.71.42-4.25,1.05Zm9.64-2.87a1.09,1.09,0,0,1,0-.18A3.51,3.51,0,0,1,33.48,133a4.67,4.67,0,0,1,3-1.08,3,3,0,0,1,.43,0l.15,0a.37.37,0,0,1,.15,0l.12,0,.17,0,.07,0,.2.07a2.35,2.35,0,0,1,.45.22.83.83,0,0,1,.16.09l.05,0h0a3.15,3.15,0,0,1,.29.22,2.58,2.58,0,0,1,.92,1.93v14.61l-3.18.63-3.68.73-.57.11Zm11.5-2.59a3.85,3.85,0,0,1,4.08-3.55h1l.26,0,.22,0,.11,0,.2,0,.13,0,.08,0a3.85,3.85,0,0,1,.47.19h0A2.43,2.43,0,0,1,51.7,132v15.27l-3.72.52-4.08.56-.17,0Zm14.12-.95c0-3.24,3-5.86,6.76-5.86h.25l.26,0a1.46,1.46,0,0,1,.22,0l.24,0,.24.06a4.26,4.26,0,0,1,.63.22h0a3.5,3.5,0,0,1,2.22,3.15V145l-6.59.67-4.24.44Z"/><path class="cls-1" d="M78.51,128a4.93,4.93,0,0,1,4.21-4.61,6.38,6.38,0,0,0-1.25-.13H79.72c-3,0-5.46,2.12-5.46,4.74v16.33l4.25-.25Z"/><path class="cls-24" d="M78.51,128a4.93,4.93,0,0,1,4.21-4.61,6.38,6.38,0,0,0-1.25-.13H79.72c-3,0-5.46,2.12-5.46,4.74v16.33l4.25-.25Z"/><path class="cls-1" d="M62.09,132.12a6,6,0,0,1,4.37-5.48,4.67,4.67,0,0,0-1.85-.38c-3.73,0-6.76,2.62-6.76,5.86v14l4.24-.43Z"/><path class="cls-24" d="M62.09,132.12a6,6,0,0,1,4.37-5.48,4.67,4.67,0,0,0-1.85-.38c-3.73,0-6.76,2.62-6.76,5.86v14l4.24-.43Z"/><path class="cls-1" d="M48,133.07a3.54,3.54,0,0,1,2.32-3.19,3.21,3.21,0,0,0-1.46-.35h-1a3.84,3.84,0,0,0-4.09,3.54V148.4l4.24-.59Z"/><path class="cls-24" d="M48,133.07a3.54,3.54,0,0,1,2.32-3.19,3.21,3.21,0,0,0-1.46-.35h-1a3.84,3.84,0,0,0-4.09,3.54V148.4l4.24-.59Z"/><path class="cls-1" d="M36.48,135.65a3.58,3.58,0,0,1,2-3.11,3.43,3.43,0,0,0-2-.59h0a4,4,0,0,0-4.27,3.7v15.11l4.25-.84Z"/><path class="cls-24" d="M36.48,135.65a3.58,3.58,0,0,1,2-3.11,3.43,3.43,0,0,0-2-.59h0a4,4,0,0,0-4.27,3.7v15.11l4.25-.84Z"/><path class="cls-1" d="M26.84,138.53a3.36,3.36,0,0,1,1.45-2.7,1.93,1.93,0,0,0-1.63-.82h0a3.83,3.83,0,0,0-4.07,3.52v14.71l4.25-1.05Z"/><path class="cls-24" d="M26.84,138.53a3.36,3.36,0,0,1,1.45-2.7,1.93,1.93,0,0,0-1.63-.82h0a3.83,3.83,0,0,0-4.07,3.52v14.71l4.25-1.05Z"/><path class="cls-26" d="M21,153.66l-4.59,1.48v-14.4a2.56,2.56,0,0,1,2.72-2.35h0A1.76,1.76,0,0,1,21,140Z"/><path class="cls-26" d="M15.25,155.53l-4,1.84V143.76a2.61,2.61,0,0,1,2.78-2.4h0a1.13,1.13,0,0,1,1.2,1Z"/><path class="cls-26" d="M10.15,157.66,6.93,159.5V147.74a2.26,2.26,0,0,1,2.4-2.08h0a.76.76,0,0,1,.82.71Z"/><path class="cls-26" d="M21,153.66l-4.59,1.48v-14.4a2.56,2.56,0,0,1,2.72-2.35h0A1.76,1.76,0,0,1,21,140Z"/><path class="cls-26" d="M15.25,155.53l-4,1.84V143.76a2.61,2.61,0,0,1,2.78-2.4h0a1.13,1.13,0,0,1,1.2,1Z"/><path class="cls-26" d="M10.15,157.66,6.93,159.5V147.74a2.26,2.26,0,0,1,2.4-2.08h0a.76.76,0,0,1,.82.71Z"/><g class="cls-6"><path d="M73.84,144.67V128c0-2.82,2.64-5.11,5.88-5.11h1.75c3.25,0,5.89,2.29,5.89,5.11v15.94Zm5.88-21.09c-2.77,0-5,2-5,4.37v15.94l11.82-.69V128c0-2.41-2.26-4.37-5-4.37Z"/><path d="M57.43,146.54V132.12c0-3.43,3.22-6.23,7.18-6.23,2.48,0,4.49,1.75,4.49,3.89v15.57Zm7.18-19.91c-3.49,0-6.34,2.46-6.34,5.49v13.59l10-1V129.78A3.43,3.43,0,0,0,64.61,126.63Z"/><path d="M43.31,148.83V133.07c0-2.16,2-3.91,4.51-3.91h1a3.11,3.11,0,0,1,3.3,2.86v15.59Zm4.51-18.94a3.46,3.46,0,0,0-3.67,3.18V148l7.13-1V132a2.31,2.31,0,0,0-2.45-2.13Z"/><path d="M31.81,151.22V135.65c0-2.24,2.1-4.07,4.69-4.07a3.37,3.37,0,0,1,3.58,3.1v14.9Zm4.69-18.9a3.61,3.61,0,0,0-3.84,3.33V150.3l6.57-1.3V134.68A2.57,2.57,0,0,0,36.5,132.32Z"/><path d="M22.17,153.73v-15.2c0-2.14,2-3.89,4.49-3.89a2.18,2.18,0,0,1,2.32,2V152Zm4.49-18.36A3.43,3.43,0,0,0,23,138.53v14.22l5.11-1.26V136.65A1.39,1.39,0,0,0,26.66,135.37Z"/><path d="M15.94,155.67V140.74A3,3,0,0,1,19.08,138a2.16,2.16,0,0,1,2.29,2v13.91Zm3.14-16.92a2.15,2.15,0,0,0-2.29,2v13.87l3.73-1.2V140A1.37,1.37,0,0,0,19.08,138.75Z"/><path d="M10.85,158V143.76a3,3,0,0,1,3.2-2.77,1.53,1.53,0,0,1,1.62,1.41v13.35Zm3.2-16.26a2.21,2.21,0,0,0-2.35,2v13l3.12-1.45V142.4A.74.74,0,0,0,14.05,141.72Z"/><path d="M6.51,160.19V147.74a2.66,2.66,0,0,1,2.82-2.45,1.17,1.17,0,0,1,1.25,1.08v11.49ZM9.33,146a1.85,1.85,0,0,0-2,1.71v11.08l2.37-1.35v-11.1A.37.37,0,0,0,9.33,146Z"/></g><path class="cls-11" d="M93.46,116.51v.11c0,.3,0,.63,0,1h0l-1.4.07c-2.85.15-9.8.62-18.71,1.8-6.63.87-14.35,2.14-22.28,4a143.71,143.71,0,0,0-25.75,8.26l-1.56.71a79,79,0,0,0-7.38,3.88l0,0c-.56.32-1.1.66-1.64,1a50.43,50.43,0,0,0-8.4,6.63c-.18.17-.52.07-.52-.17V141.5l-1.09-1.75a.93.93,0,0,1,.16-1.19,30.86,30.86,0,0,1,2.92-2.51l.11-.08a64.66,64.66,0,0,1,8.49-5.41c1.67-.9,3.54-1.84,5.62-2.8,1.15-.53,2.36-1.06,3.64-1.59,12.36-5.14,31-10.41,58.2-12.84q3.78-.35,7.77-.6h0a1.87,1.87,0,0,1,.53,0,1.72,1.72,0,0,1,.45.16,1.5,1.5,0,0,1,.69.72,1.37,1.37,0,0,1,.1.41A24.08,24.08,0,0,1,93.46,116.51Z"/><path class="cls-21" d="M7,141.22l-1.23-2c3.72-3.63,25-21.45,85.91-25.44h0a.37.37,0,0,1,.4.31c.05.69.07,1.5.06,2.41a265.54,265.54,0,0,0-33.54,4.15C34.82,125.24,17.48,132.27,7,141.6Z"/><path class="cls-21" d="M7.36,139.42c5-4.48,26.45-20.54,83.54-24.43,0,.17,0,.34,0,.52a269.13,269.13,0,0,0-32.54,4.1c-23,4.41-40.14,11.14-50.87,20Z"/><path class="cls-1" d="M125.53,190.55l-2.9,0h-.69l-31.55.28L18,191.53l-3.57,0-10.1.09V163.5s.48-.19,1.48-.54,2.36-.78,4.25-1.34l.55-.16c2.17-.62,4.93-1.36,8.31-2.17,15.7-3.72,44.72-8.77,90.19-10.09l.82,0c.66,0,1.33,0,2-.06l2.5-.06h.12v3.13a9.34,9.34,0,0,0,.14,1.67c0,.19.07.38.11.56a13.06,13.06,0,0,0,2.15,4.64,3.69,3.69,0,0,1,.43,3.62,9,9,0,0,0,.07,6.3l7.48,19.85.41,1.09Z"/><path class="cls-1" d="M150.08,224.32l-1.31.06c-2.57.11-8.76.35-17.27.53l-.85,0-1.57,0c-.54,0-1.1,0-1.66,0l-.77,0-6.48.09h-1l-2.27,0h-.85c-2.55,0-5.19,0-7.9,0h-.85c-.28,0-.56,0-.83,0H103l-3.08,0-2.88,0L93.56,225l-.85,0c-1.91,0-3.83-.08-5.78-.13l-.85,0c-2.81-.08-5.65-.17-8.51-.29-1.74-.06-3.49-.14-5.23-.22l-.85,0-3.66-.19-.85,0-2.08-.12-2.52-.16-1.53-.1c-1.32-.09-2.62-.18-3.92-.29l-.72,0-.85-.07c-1.51-.12-3-.24-4.51-.38L50,222.8l-2.62-.25-2.6-.26L42.4,222l-1.77-.2-1-.12-.85-.11-2.33-.29-.85-.12-.2,0L33.87,221,30,220.37l-1.46-.24L27.7,220l-1.83-.32-.84-.16c-1.69-.31-3.33-.63-4.93-1l-.09,0-.76-.17-1.77-.4-.85-.2-2.23-.56-.85-.23q-1.25-.33-2.43-.69h0L10,215.93l-.22-.07-.88-.28h0c-.83-.27-1.65-.55-2.43-.84l-1.14-.42-.55-.22-.55-.22h0l-1.42-.6V191.57H139.25v3.31a6.15,6.15,0,0,1,1.8,4,2.44,2.44,0,0,1,0,.27h0c0,.07,0,.14,0,.22a.06.06,0,0,1,0,0,5,5,0,0,1-1.76,3.06l3.8,7.69L149.9,224Z"/><g class="cls-27"><path d="M108.58,181.86H94a.4.4,0,0,1-.43-.36v-16c0-3.69,3.47-6.69,7.72-6.69s7.72,3,7.72,6.69v16A.39.39,0,0,1,108.58,181.86Zm-14.17-.73h13.74V165.48c0-3.28-3.08-5.95-6.87-5.95s-6.87,2.67-6.87,5.95Z"/><path d="M72.76,183.34a.44.44,0,0,1-.29-.11.35.35,0,0,1-.13-.26V166.59c0-3.69,3.46-6.7,7.72-6.7s7.72,3,7.72,6.7v16a.4.4,0,0,1-.41.37l-14.59.37Zm7.3-22.71c-3.79,0-6.87,2.67-6.87,6v16l13.74-.35V166.59C86.93,163.3,83.85,160.63,80.06,160.63Z"/><path d="M56.64,184.07a.45.45,0,0,1-.3-.1.35.35,0,0,1-.13-.26v-16A6.49,6.49,0,0,1,63.08,161c3.72,0,5.6,2.25,5.6,6.69v15.65a.38.38,0,0,1-.41.36l-11.62.37Zm6.44-22.34a5.73,5.73,0,0,0-6,6v15.63L67.83,183V167.69C67.83,163.68,66.28,161.73,63.08,161.73Z"/><path d="M40.08,184.81a.48.48,0,0,1-.29-.1.34.34,0,0,1-.13-.27V169.53c0-4.25,2.19-6.69,6-6.69s6,2.44,6,6.69v14.54a.4.4,0,0,1-.41.37l-11.19.37Zm5.6-21.24c-4.5,0-5.17,3.74-5.17,6v14.53l10.34-.34V169.53C50.85,167.31,50.18,163.57,45.68,163.57Z"/><path d="M29,185.55a.46.46,0,0,1-.3-.11.35.35,0,0,1-.13-.26V169.9c0-2.4.46-5.59,4.39-5.59s4.39,3.19,4.39,5.59v14.91a.4.4,0,0,1-.4.37l-7.93.36Zm4-20.5c-2.48,0-3.54,1.45-3.54,4.85v14.89l7.08-.33V169.9C36.48,166.5,35.42,165.05,32.94,165.05Z"/><path d="M20.52,185.91a.45.45,0,0,1-.29-.1.33.33,0,0,1-.13-.26V171.74c0-2.6.37-5.59,3.31-5.59s3.31,3,3.31,5.59v13.44a.39.39,0,0,1-.39.36l-5.78.37Zm2.89-19c-1.22,0-2.46.57-2.46,4.85v13.41l4.92-.31v-13.1C25.87,167.46,24.63,166.89,23.41,166.89Z"/><path d="M14.82,186.28a.45.45,0,0,1-.29-.1.35.35,0,0,1-.13-.27v-12.7c0-4,.57-5.59,2-5.59s2,1.62,2,5.59v12.5a.39.39,0,0,1-.39.36l-3.09.21Zm1.54-17.92c-.51,0-1.11.84-1.11,4.85v12.31l2.23-.15V173.21C17.48,169.2,16.87,168.36,16.36,168.36Z"/><path d="M12.81,186.4H9.73A.4.4,0,0,1,9.3,186V174.68c0-4,.57-5.59,2-5.59s2,1.62,2,5.59V186A.4.4,0,0,1,12.81,186.4Zm-2.66-.74h2.24v-11c0-4-.61-4.85-1.12-4.85s-1.12.84-1.12,4.85Z"/><path d="M8.15,186.4H5.06a.4.4,0,0,1-.42-.37v-9.87c0-4,.56-5.59,2-5.59s2,1.62,2,5.59V186A.4.4,0,0,1,8.15,186.4Zm-2.67-.74H7.72v-9.5c0-4-.61-4.86-1.12-4.86s-1.12.84-1.12,4.86Z"/></g><path class="cls-1" d="M150.08,224.32l-1.31.06c-2.57.11-8.76.35-17.27.53l-.85,0-1.57,0c-.54,0-1.1,0-1.66,0l-.77,0-6.48.09h-1l-2.27,0h-.85c-2.55,0-5.19,0-7.9,0h-.85c-.28,0-.56,0-.83,0H103l-3.08,0-2.88,0L93.56,225l-.85,0c-1.91,0-3.83-.08-5.78-.13l-.85,0c-2.81-.08-5.65-.17-8.51-.29-1.74-.06-3.49-.14-5.23-.22l-.85,0-3.66-.19-.85,0-2.08-.12-2.52-.16-1.53-.1c-1.32-.09-2.62-.18-3.92-.29l-.72,0-.85-.07c-1.51-.12-3-.24-4.51-.38L50,222.8l-2.62-.25-2.6-.26L42.4,222l-1.77-.2-1-.12-.85-.11-2.33-.29-.85-.12-.2,0L33.87,221,30,220.37l-1.46-.24L27.7,220l-1.83-.32-.84-.16c-1.69-.31-3.33-.63-4.93-1l-.09,0-.76-.17-1.77-.4-.85-.2-2.23-.56-.85-.23q-1.25-.33-2.43-.69h0L10,215.93l-.22-.07-.88-.28h0c-.83-.27-1.65-.55-2.43-.84l-1.14-.42-.55-.22-.55-.22h0l-1.42-.6V191.57H139.25v3.31a6.15,6.15,0,0,1,1.8,4,2.44,2.44,0,0,1,0,.27h0c0,.07,0,.14,0,.22a.06.06,0,0,1,0,0,5,5,0,0,1-1.76,3.06l3.8,7.69L149.9,224Z"/><path class="cls-1" d="M126.77,198.4a7.57,7.57,0,0,0-3-.6c-3.79,0-6.87,2.67-6.87,6v.47a6.65,6.65,0,0,1,6.87-6.38h.55l.27,0,.27,0,.52.1a6.87,6.87,0,0,1,1.45.49,6.36,6.36,0,0,1,3.81,5.71v-.47A6,6,0,0,0,126.77,198.4Zm-26.34-.6c-3.79,0-6.87,2.67-6.87,6v.47a6.65,6.65,0,0,1,6.87-6.38H101l.26,0,.27,0,.53.1a6.52,6.52,0,0,1,5.26,6.2v-.47C107.31,200.47,104.22,197.8,100.43,197.8Zm-21.22,0c-3.79,0-6.87,2.67-6.87,6v.47a6.65,6.65,0,0,1,6.87-6.38h.55l.27,0,.27,0,.52.1a6.51,6.51,0,0,1,5.26,6.2v-.47C86.08,200.47,83,197.8,79.21,197.8Zm-17,0a5.73,5.73,0,0,0-6,6v.47c0-3.75,2.48-6.38,6-6.38a5.45,5.45,0,0,1,1.38.16c2.27.55,3.37,2.6,3.37,6.22v-.47C67,199.75,65.43,197.8,62.23,197.8Zm-17.4.37c-4.5,0-5.17,3.73-5.17,6v.5c0-2.38.67-6.38,5.17-6.38h.39l.36,0a4.6,4.6,0,0,1,.68.11l.31.09.29.1.28.11h0c2.43,1.11,2.85,4,2.85,5.92v-.5C50,201.9,49.33,198.17,44.83,198.17Zm-12.74.73c-1.52,0-3.54.55-3.54,5.23v.5c0-5,2-5.59,3.54-5.59a3.15,3.15,0,0,1,1.93.54l.14.11a3.07,3.07,0,0,1,.26.25c.7.77,1.21,2.17,1.21,4.69v-.5C35.63,199.45,33.61,198.9,32.09,198.9ZM25,203.45c0-.26,0-.5,0-.73C25,203,25,203.2,25,203.45Zm-4.83-1.06c0,.32-.06.67-.07,1.06C20.13,203.07,20.15,202.71,20.18,202.39ZM149.9,224l-6.85-13.85a18.86,18.86,0,0,1-2-10.75.06.06,0,0,0,0,0c0-.08,0-.15,0-.22h0a2.44,2.44,0,0,0,0-.27,6.15,6.15,0,0,0-1.8-4v-3.31H2.79v21.71l1.42.6h0l.55.22.55.22,1.14.42c.78.29,1.6.57,2.43.84h0l.88.28.22.07,1.14.35h0q1.19.36,2.43.69l.85.23,2.23.56.85.2,1.77.4.76.17.09,0c1.6.34,3.24.66,4.93,1l.84.16,1.83.32.85.14,1.46.24,3.86.58,1.56.22.2,0,.85.12,2.33.29.85.11,1,.12,1.77.2,2.38.26,2.6.26,2.62.25.85.08c1.5.14,3,.26,4.51.38l.85.07.72,0c1.3.11,2.6.2,3.92.29l1.53.1,2.52.16,2.08.12.85,0,3.66.19.85,0c1.74.08,3.49.16,5.23.22,2.86.12,5.7.21,8.51.29l.85,0c1.95,0,3.87.1,5.78.13l.85,0,3.52.05,2.88,0,3.08,0h3.44c.27,0,.55,0,.83,0h.85c2.71,0,5.35,0,7.9,0h.85l2.27,0h1l6.48-.09.77,0c.56,0,1.12,0,1.66,0l1.57,0,.85,0c8.51-.18,14.7-.42,17.27-.53l1.31-.06ZM6.45,214.34v-9.85c0-4-.61-5.22-1.12-5.22s-1.12,1.21-1.12,5.22v9c-.29-.11-.57-.23-.85-.36v-8.62c0-4,.57-6,2-6s2,2,2,6v10.16Zm4.67,1.54V204.49c0-4-.61-4.85-1.12-4.85s-1.12.84-1.12,4.85v10.7l-.81-.27,0,0V204.49c0-3.55.45-5.22,1.55-5.53a1.47,1.47,0,0,1,.42-.06,1.42,1.42,0,0,1,.42.06c1.09.32,1.55,2,1.55,5.53v11.64Zm5.51,1.48v-13.1c0-.94,0-1.72-.08-2.36-.18-2.12-.64-2.63-1-2.63s-.86.51-1,2.63c-.05.64-.08,1.42-.08,2.36V216.8l-.06,0-.79-.21V204.26c0-.91,0-1.72.08-2.41.21-2.32.79-3.31,1.89-3.31s1.72,1.06,1.9,3.59c0,.63.06,1.33.06,2.13v13.3Zm8.4,1.76V204.26c0-.14,0-.28,0-.42s0-.26,0-.39,0-.5,0-.73l0-.33c0-.1,0-.21,0-.31a7.91,7.91,0,0,0-.23-1.07c-.46-1.48-1.29-1.74-2.11-1.74-1,0-2,.38-2.34,2.81,0,.1,0,.21,0,.31,0,.32-.06.67-.07,1.06,0,.13,0,.26,0,.39v14.3l-.14,0-.71-.16V203.74c0-.18,0-.36,0-.54s0-.35,0-.53,0-.35.05-.52c.25-1.94,1-3.61,3.21-3.61s3,1.67,3.21,3.61c0,.17,0,.35.05.52a4.84,4.84,0,0,1,0,.53c0,.18,0,.36,0,.54v15.53Zm10.6,1.67V204.13c0-4.68-2-5.23-3.54-5.23s-3.54.55-3.54,5.23v15.6l-.85-.14V204.13c0-4,1.48-6,4.39-6s4.39,2,4.39,6v16.78ZM50,222.4V204.13c0-2.23-.67-6-5.17-6s-5.17,3.73-5.17,6v17.18l-.85-.1V204.13c0-4.26,2.19-6.7,6-6.7s6,2.44,6,6.7v18.35Zm17,1.24V203.76c0-4-1.55-6-4.75-6a5.73,5.73,0,0,0-6,6v19.17l-.85-.07v-19.1a6.42,6.42,0,0,1,6.13-6.66c.24,0,.49,0,.74,0h.35c3.48.14,5.25,2.39,5.25,6.69v19.93Zm19.1.79V203.76c0-3.29-3.08-6-6.87-6s-6.87,2.67-6.87,6v20.16l-.85,0V203.76c0-3.69,3.46-6.7,7.72-6.7s7.72,3,7.72,6.7v20.7Zm21.23.32v-21c0-3.29-3.09-6-6.88-6s-6.87,2.67-6.87,6V224.6h-.85V203.76c0-3.69,3.47-6.7,7.72-6.7s7.73,3,7.73,6.7v21Zm23.34-.2V203.76a6,6,0,0,0-3.88-5.36,7.57,7.57,0,0,0-3-.6c-3.79,0-6.87,2.67-6.87,6v20.8h13.33l-1,0h-3.31l-1.51,0h-3.06l-1.25,0h-4v-21c0-3.69,3.46-6.7,7.72-6.7a8.68,8.68,0,0,1,2.42.34,6.88,6.88,0,0,1,5.3,6.36v20.77Z"/><g class="cls-14"><path d="M35.63,221.19V204.63c0-5-2-5.59-3.54-5.59s-3.54.58-3.54,5.59v15.5C30.85,220.51,33.22,220.86,35.63,221.19Z"/><path d="M25,219.15V204.26c0-4.58-1.24-5.2-2.46-5.2s-2.46.62-2.46,5.2v13.91C21.7,218.51,23.34,218.84,25,219.15Z"/><path d="M50,222.81V204.63c0-2.38-.67-6.38-5.17-6.38s-5.17,4-5.17,6.38v17.08C43,222.12,46.49,222.48,50,222.81Z"/><path d="M16.63,217.38V204.26c0-4.3-.6-5.2-1.11-5.2s-1.12.9-1.12,5.2v12.56Z"/><path d="M6.45,214.75V203.92c0-4.3-.61-5.2-1.12-5.2s-1.12.9-1.12,5.2v10C4.93,214.18,5.68,214.47,6.45,214.75Z"/><path d="M11.12,216.28V203.92c0-4.3-.61-5.2-1.12-5.2s-1.12.9-1.12,5.2v11.66C9.61,215.82,10.35,216.05,11.12,216.28Z"/><path d="M67,224.05V204.23c0-4.29-1.55-6.38-4.75-6.38-3.54,0-6,2.63-6,6.38v19.1C59.77,223.61,63.37,223.84,67,224.05Z"/><path d="M116.91,225.13c5,0,9.63-.11,13.74-.2v-20.7a6.89,6.89,0,0,0-13.74,0v20.69l13.38-.36c-4,.08-8.53.14-13.38.17Z"/><path d="M86.08,224.84V204.23a6.89,6.89,0,0,0-13.74,0v20.1C77,224.54,81.55,224.71,86.08,224.84Z"/><path d="M107.31,225.15V204.23a6.89,6.89,0,0,0-13.75,0V225C98.29,225.09,102.89,225.14,107.31,225.15Z"/></g><g class="cls-14"><path d="M16.63,217.38V204.26c0-4.3-.6-5.2-1.11-5.2s-1.12.9-1.12,5.2v12.56Z"/><path d="M6.45,214.75V203.92c0-4.3-.61-5.2-1.12-5.2s-1.12.9-1.12,5.2v10C4.93,214.18,5.68,214.47,6.45,214.75Z"/><path d="M11.12,216.28V203.92c0-4.3-.61-5.2-1.12-5.2s-1.12.9-1.12,5.2v11.66C9.61,215.82,10.35,216.05,11.12,216.28Z"/></g><g class="cls-14"><path d="M16.63,217.38V204.26c0-4.3-.6-5.2-1.11-5.2s-1.12.9-1.12,5.2v12.56Z"/><path d="M6.45,214.75V203.92c0-4.3-.61-5.2-1.12-5.2s-1.12.9-1.12,5.2v10C4.93,214.18,5.68,214.47,6.45,214.75Z"/><path d="M11.12,216.28V203.92c0-4.3-.61-5.2-1.12-5.2s-1.12.9-1.12,5.2v11.66C9.61,215.82,10.35,216.05,11.12,216.28Z"/></g><path d="M32.8,220.5V205c0-3,.72-4.41,1.62-5.06a3,3,0,0,0-2.33-.9c-1.52,0-3.54.58-3.54,5.59v15.5c2.3.38,4.67.73,7.08,1.06V221Z"/><path d="M24.34,219.27v-15a12.74,12.74,0,0,1,.34-3.29c-.45-1.62-1.29-1.91-2.12-1.91-1.22,0-2.46.62-2.46,5.2v13.91c1.6.34,3.24.67,4.92,1v.26Z"/><path d="M43.9,222.08V205c0-2.05.5-5.3,3.5-6.16a5.22,5.22,0,0,0-2.57-.59c-4.5,0-5.17,4-5.17,6.38v17.08c3.37.41,6.83.77,10.34,1.1v-.05Q46.91,222.45,43.9,222.08Z"/><path d="M60.46,223.33v-19.1a6.05,6.05,0,0,1,3.83-6,5.22,5.22,0,0,0-2.06-.38c-3.54,0-6,2.63-6,6.38v19.1c3.56.28,7.16.51,10.77.72v-.26C64.8,223.65,62.62,223.5,60.46,223.33Z"/><path class="cls-15" d="M121.15,204.23a6.45,6.45,0,0,1,4.75-6.06,7.4,7.4,0,0,0-2.12-.32,6.65,6.65,0,0,0-6.87,6.38v20.69h4.24Z"/><path d="M76.58,224.33v-20.1a6.45,6.45,0,0,1,4.75-6.06,7.4,7.4,0,0,0-2.12-.32,6.65,6.65,0,0,0-6.87,6.38v20.1c4.61.21,9.21.38,13.74.51v-.13C82.93,224.6,79.76,224.48,76.58,224.33Z"/><path d="M97.81,225V204.23a6.44,6.44,0,0,1,4.75-6.06,7.41,7.41,0,0,0-2.13-.32,6.66,6.66,0,0,0-6.87,6.38V225c4.73.08,9.33.13,13.75.14v0C104.21,225.1,101,225.07,97.81,225Z"/><g class="cls-16"><path d="M17.48,204.26v13.66l-.85-.22V204.26c0-.94,0-1.72-.08-2.36-.17-2.29-.63-2.84-1-2.84s-.86.55-1,2.84c-.05.64-.08,1.42-.08,2.36v13.21l-.85-.25v-13c0-.91,0-1.72.08-2.41.2-2.51.79-3.58,1.89-3.58s1.72,1.15,1.9,3.86C17.46,202.76,17.48,203.46,17.48,204.26Z"/><path d="M8.88,215.37V203.92c0-4.3.61-5.2,1.12-5.2s1.12.9,1.12,5.2v12.2l.85.27V203.92c0-4.25-.57-6-2-6s-2,1.74-2,6v11.15Z"/><path d="M4.21,213.54v-9.62c0-4.3.61-5.2,1.12-5.2s1.12.9,1.12,5.2v10.55l.85.33V203.92c0-4.25-.57-6-2-6s-2,1.74-2,6v9.23Z"/><path d="M25.87,204.26v15.49l-.84-.16V204.26c0-.14,0-.28,0-.42s0-.26,0-.39,0-.5,0-.73l0-.33c0-.1,0-.21,0-.31a7.26,7.26,0,0,0-.22-1.11,1.31,1.31,0,0,0-.09-.28c0-.05,0-.1,0-.14a4,4,0,0,0-.22-.46c0-.05,0-.1-.08-.14a2.14,2.14,0,0,0-.28-.36.86.86,0,0,0-.14-.13.91.91,0,0,0-.16-.11l-.1-.07-.11-.05-.22-.08-.11,0-.12,0a2.28,2.28,0,0,0-.45,0c-1,0-2,.41-2.34,3,0,.1,0,.21,0,.31,0,.32-.05.68-.07,1.06,0,.13,0,.26,0,.39v15l-.85-.2V203.74c0-.18,0-.36,0-.54l0-.53c0-.17,0-.35.05-.52.25-2.08,1-3.88,3.21-3.88s3,1.8,3.21,3.88c0,.17,0,.35.05.52l0,.53c0,.18,0,.36,0,.54Z"/><path d="M108.16,204.23v21.28c-.29,0-.57,0-.85,0V204.23a6.89,6.89,0,0,0-13.75,0v21.15l-.85,0V204.23a7.75,7.75,0,0,1,15.45,0Z"/><path d="M131.5,204.23v21.05l-.85,0V204.23a6.89,6.89,0,0,0-13.74,0v21.26h-.85V204.23a7.74,7.74,0,0,1,15.44,0Z"/><path d="M86.93,204.23v21l-.85,0v-21a6.89,6.89,0,0,0-13.74,0v20.46l-.85-.05V204.23a7.74,7.74,0,0,1,15.44,0Z"/><path d="M50.85,204.63v18.6l-.85-.07V204.63c0-2.38-.67-6.38-5.17-6.38s-5.17,4-5.17,6.38v17.43l-.85-.11V204.63c0-4.56,2.19-7.17,6-7.17S50.85,200.07,50.85,204.63Z"/><path d="M36.48,204.63v17l-.85-.11V204.63c0-5-2-5.59-3.54-5.59s-3.54.57-3.54,5.59v15.85l-.85-.14V204.63c0-4.24,1.48-6.38,4.39-6.38S36.48,200.39,36.48,204.63Z"/><path d="M67.83,204.23v20.23l-.85-.05V204.23c0-4.29-1.55-6.38-4.75-6.38-3.54,0-6,2.63-6,6.38v19.45l-.85-.07V204.23c0-4.22,2.83-7.17,6.87-7.17C66,197.06,67.83,199.47,67.83,204.23Z"/></g><path class="cls-11" d="M150.1,224.69c-.14,0-7.36.35-18.6.59l-.85,0c-4.12.08-8.74.15-13.74.19h-.85l-6.36,0h-1.54c-.29,0-.57,0-.85,0-4.42,0-9,0-13.75-.13l-.85,0-2.44-.05-3.34-.08-.85,0c-4.43-.12-9-.29-13.74-.51l-.85-.05-3.66-.18-.85-.05c-3.57-.21-7.17-.45-10.77-.73l-.85-.07c-1.51-.11-3-.24-4.51-.38l-.85-.07c-3.49-.33-7-.69-10.34-1.1l-.85-.11c-.78-.1-1.56-.19-2.33-.3l-.85-.11Q32,221,28.55,220.48l-.85-.14L25.87,220l-.84-.15c-1.69-.31-3.33-.64-4.93-1l-.05,0-.8-.17-1.77-.4-.85-.19-2.23-.56-.85-.22a75.06,75.06,0,0,1-11-3.73L3,213l.37.16c.28.13.56.25.85.36.72.3,1.46.59,2.24.87l.85.31.73.25,0,0,.81.27c.72.24,1.47.47,2.24.7l.85.24c.52.15,1,.3,1.58.44l.79.21.06,0c.73.19,1.47.38,2.23.56l.85.2,1.77.4.71.16.14,0c1.59.35,3.24.67,4.93,1l.84.15c.61.12,1.22.22,1.83.32l.85.14h0c1.39.23,2.81.45,4.25.66l2.83.4.85.11,2.33.3.85.1,4.24.49c2,.21,4.05.42,6.1.6l.85.08c1.5.14,3,.26,4.51.38l.85.07c1.41.11,2.83.21,4.24.3,2.17.16,4.35.29,6.53.41l.85.05,3.66.19.85,0,4.24.19q4.78.19,9.5.32l.85,0,5.78.13h.85c1.43,0,2.85.06,4.25.07,3.24.05,6.41.07,9.5.08h.85c2.71,0,5.35,0,7.9,0h4l1.25,0h3.06l1.51,0h3.31l1,0h.41l.85,0c7.28-.15,12.86-.35,15.92-.47l2.48-.1h.15Z"/><path class="cls-11" d="M139.25,189.91v5l-14.34.26-72.46,1.31L18.14,196l-15.35-.19v-.38a9,9,0,0,0-.44-2.77L2,191.55A.39.39,0,0,1,2.4,191H4.28L17.93,191l34.31-.14L118.82,189l3.38-.09,2.68-.08,12.53-.34h.15A1.54,1.54,0,0,1,139.25,189.91Z"/><path class="cls-21" d="M4.07,194.73h0a5.32,5.32,0,0,0-.27-1.68l-.31-.94,48.76-.2L138,189.58v4.22l-85.53,1.54Z"/><polygon class="cls-21" points="5.31 193.64 5.17 193.21 52.25 193.02 136.71 190.72 136.71 192.72 52.44 194.24 5.31 193.64"/><g class="cls-28"><path d="M23.41,166.89c-1.22,0-2.46.57-2.46,4.85v13.41l4.92-.31v-13.1C25.87,167.46,24.63,166.89,23.41,166.89Z"/><path d="M16.36,168.36c-.51,0-1.11.84-1.11,4.85v12.31l2.23-.15V173.21C17.48,169.2,16.87,168.36,16.36,168.36Z"/><path d="M45.68,163.57c-4.5,0-5.17,3.74-5.17,6v14.53l10.34-.34V169.53C50.85,167.31,50.18,163.57,45.68,163.57Z"/><path d="M32.94,165.05c-2.48,0-3.54,1.45-3.54,4.85v14.89l7.08-.33V169.9C36.48,166.5,35.42,165.05,32.94,165.05Z"/><path d="M32.94,165.05c-2.48,0-3.54,1.45-3.54,4.85v14.89l7.08-.33V169.9C36.48,166.5,35.42,165.05,32.94,165.05Z"/><path d="M6.6,171.3c-.51,0-1.12.84-1.12,4.86v9.5H7.72v-9.5C7.72,172.14,7.11,171.3,6.6,171.3Z"/><path d="M11.27,169.83c-.51,0-1.12.84-1.12,4.85v11h2.24v-11C12.39,170.67,11.78,169.83,11.27,169.83Z"/><path d="M101.28,159.53c-3.79,0-6.87,2.67-6.87,5.95v15.65h13.74V165.48C108.15,162.2,105.07,159.53,101.28,159.53Z"/><path d="M63.08,161.73a5.73,5.73,0,0,0-6,6v15.63L67.83,183V167.69C67.83,163.68,66.28,161.73,63.08,161.73Z"/><path d="M80.06,160.63c-3.79,0-6.87,2.67-6.87,6v16l13.74-.35V166.59C86.93,163.3,83.85,160.63,80.06,160.63Z"/></g><g class="cls-28"><path d="M23.41,166.89c-1.22,0-2.46.57-2.46,4.85v13.41l4.92-.31v-13.1C25.87,167.46,24.63,166.89,23.41,166.89Z"/><path d="M16.36,168.36c-.51,0-1.11.84-1.11,4.85v12.31l2.23-.15V173.21C17.48,169.2,16.87,168.36,16.36,168.36Z"/><path d="M45.68,163.57c-4.5,0-5.17,3.74-5.17,6v14.53l10.34-.34V169.53C50.85,167.31,50.18,163.57,45.68,163.57Z"/><path d="M32.94,165.05c-2.48,0-3.54,1.45-3.54,4.85v14.89l7.08-.33V169.9C36.48,166.5,35.42,165.05,32.94,165.05Z"/><path d="M32.94,165.05c-2.48,0-3.54,1.45-3.54,4.85v14.89l7.08-.33V169.9C36.48,166.5,35.42,165.05,32.94,165.05Z"/><path d="M6.6,171.3c-.51,0-1.12.84-1.12,4.86v9.5H7.72v-9.5C7.72,172.14,7.11,171.3,6.6,171.3Z"/><path d="M11.27,169.83c-.51,0-1.12.84-1.12,4.85v11h2.24v-11C12.39,170.67,11.78,169.83,11.27,169.83Z"/><path d="M101.28,159.53c-3.79,0-6.87,2.67-6.87,5.95v15.65h13.74V165.48C108.15,162.2,105.07,159.53,101.28,159.53Z"/><path d="M63.08,161.73a5.73,5.73,0,0,0-6,6v15.63L67.83,183V167.69C67.83,163.68,66.28,161.73,63.08,161.73Z"/><path d="M80.06,160.63c-3.79,0-6.87,2.67-6.87,6v16l13.74-.35V166.59C86.93,163.3,83.85,160.63,80.06,160.63Z"/></g><g class="cls-28"><path d="M23.41,166.89c-1.22,0-2.46.57-2.46,4.85v13.41l4.92-.31v-13.1C25.87,167.46,24.63,166.89,23.41,166.89Z"/><path d="M16.36,168.36c-.51,0-1.11.84-1.11,4.85v12.31l2.23-.15V173.21C17.48,169.2,16.87,168.36,16.36,168.36Z"/><path d="M6.6,171.3c-.51,0-1.12.84-1.12,4.86v9.5H7.72v-9.5C7.72,172.14,7.11,171.3,6.6,171.3Z"/><path d="M11.27,169.83c-.51,0-1.12.84-1.12,4.85v11h2.24v-11C12.39,170.67,11.78,169.83,11.27,169.83Z"/></g><g class="cls-29"><path class="cls-30" d="M23.41,166.89c-1.22,0-2.46.57-2.46,4.85v13.41l4.92-.31v-13.1C25.87,167.46,24.63,166.89,23.41,166.89Z"/><path d="M16.36,168.36c-.51,0-1.11.84-1.11,4.85v12.31l2.23-.15V173.21C17.48,169.2,16.87,168.36,16.36,168.36Z"/><path d="M44.75,169.53c0-1.81.45-4.63,3-5.61a6,6,0,0,0-2.12-.35c-4.5,0-5.17,3.74-5.17,6v14.53l4.24-.14Z"/><path d="M33.65,169.9c0-2.19.44-3.57,1.41-4.28a3.5,3.5,0,0,0-2.12-.57c-2.48,0-3.54,1.45-3.54,4.85v14.89l4.25-.2Z"/><path d="M6.6,171.3c-.51,0-1.12.84-1.12,4.86v9.5H7.72v-9.5C7.72,172.14,7.11,171.3,6.6,171.3Z"/><path d="M11.27,169.83c-.51,0-1.12.84-1.12,4.85v11h2.24v-11C12.39,170.67,11.78,169.83,11.27,169.83Z"/><path d="M103.41,159.82a7.83,7.83,0,0,0-2.13-.29c-3.79,0-6.87,2.67-6.87,5.95v15.65h4.25V165.48A6.11,6.11,0,0,1,103.41,159.82Z"/><path d="M61.3,167.69a5.65,5.65,0,0,1,3.84-5.6,5.42,5.42,0,0,0-2.06-.36,5.73,5.73,0,0,0-6,6v15.63l4.24-.13Z"/><path d="M77.43,166.59a6.13,6.13,0,0,1,4.75-5.67,7.75,7.75,0,0,0-2.12-.29c-3.79,0-6.87,2.67-6.87,6v16l4.24-.11Z"/></g><path class="cls-11" d="M114.78,150.39v3a.71.71,0,0,1-.14.43,1,1,0,0,1-.78.41l-3.25.13c-14.94.62-66.29,3.13-92.11,9.07C11.4,165.1,6.23,167,4.28,169.18v-1.44a2,2,0,0,0-.62-1.42L2.32,165a.52.52,0,0,1,0-.76A15.7,15.7,0,0,1,5.76,162a42.33,42.33,0,0,1,4.25-1.9,83.5,83.5,0,0,1,9.08-2.9c14.89-4,42.32-8.28,92.45-9.51h.34a3.23,3.23,0,0,1,2.5,1.39l.12.2A2.45,2.45,0,0,1,114.78,150.39Z"/><path class="cls-21" d="M5.58,166.2a3.72,3.72,0,0,0-.64-.85l-.69-.67c1.89-1.39,7.14-4.34,20.43-7.35,19.89-4.51,49.13-7.27,86.91-8.2h0a1.37,1.37,0,0,1,1.45,1.26v2.43c-6.2.24-30.32,1.26-54.31,3.5C22.26,159.72,10.09,163.65,5.58,166.2Z"/><path class="cls-21" d="M18.38,160.45c2-.56,4.19-1.13,6.73-1.7,19.72-4.47,48.74-7.21,86.27-8.14v.81c-8.38.34-30.57,1.37-52.79,3.43C41.35,156.46,27.91,158.33,18.38,160.45Z"/><path class="cls-24" d="M53.76,104l-1.88.47a1.21,1.21,0,0,1-1.59-1V98a1.11,1.11,0,0,1,.89-1l1.88-.47a1.21,1.21,0,0,1,1.59,1V103A1.12,1.12,0,0,1,53.76,104Z"/><path class="cls-24" d="M28.91,112.46l-.95.39a.87.87,0,0,1-1.24-.68v-4.35a.73.73,0,0,1,.5-.67l.94-.39a.86.86,0,0,1,1.24.67v4.35A.75.75,0,0,1,28.91,112.46Z"/><path class="cls-24" d="M15.35,120.84l-1,.57a.83.83,0,0,1-1.26-.61v-4.32a.69.69,0,0,1,.38-.6l1-.57a.84.84,0,0,1,1.27.61v4.32A.7.7,0,0,1,15.35,120.84Z"/><path class="cls-24" d="M63.79,114.34h0A1.34,1.34,0,0,1,62.45,113h0a1.35,1.35,0,0,1,1.34-1.35h0A1.36,1.36,0,0,1,65.14,113h0A1.35,1.35,0,0,1,63.79,114.34Z"/><path class="cls-24" d="M38.32,120.23h0A1.34,1.34,0,0,1,37,118.88h0a1.34,1.34,0,0,1,1.34-1.35h0a1.34,1.34,0,0,1,1.35,1.35h0A1.34,1.34,0,0,1,38.32,120.23Z"/><path class="cls-24" d="M78.43,88.09,75,88.24c-1.1.05-2.44.19-4,.31-.76.06-1.58.18-2.43.28s-1.76.2-2.69.36-1.9.29-2.9.46l-3.08.6c-1.06.22-2.13.48-3.23.73s-2.21.57-3.34.85-2.26.66-3.41,1-2.3.74-3.46,1.12-2.3.83-3.46,1.25l-1.18.47c-.75.29-1.5.58-2.25.89-1.13.49-2.27,1-3.37,1.47l-1.67.76L33,99.58c-2.16,1-4.24,2.15-6.23,3.25s-3.87,2.23-5.61,3.34c-.87.54-1.7,1.08-2.5,1.61l-2.35,1.6c-2.94,2.05-5.27,3.88-6.86,5.19S6.71,117,6.71,117l-.21-.38h0a.77.77,0,0,1-.12-.83.75.75,0,0,1,.18-.27c.43-.37,1.1-.94,2-1.66,1.63-1.32,4-3.13,7-5.16.95-.64,2-1.3,3-2,.62-.4,1.27-.8,1.93-1.2,1.77-1.1,3.7-2.18,5.71-3.29S30.39,100,32.59,99l1.65-.77,1.69-.74c1.12-.5,2.28-.95,3.42-1.42s2.15-.83,3.21-1.23l.26-.1c1.18-.41,2.34-.83,3.5-1.21s2.33-.75,3.49-1.08,2.31-.67,3.45-1,2.26-.58,3.37-.81,2.19-.49,3.25-.69l3.1-.56c1-.16,2-.29,2.92-.42s1.84-.23,2.7-.33,1.67-.19,2.44-.24c1.53-.1,2.87-.22,4-.26Z"/><path class="cls-24" d="M71.21,77.64l-.18,0h0a3.33,3.33,0,0,0-.53.21,5.91,5.91,0,0,0-.83.48c-.32.2-.68.45-1.12.68a3.13,3.13,0,0,1-1.67.38,14.55,14.55,0,0,1-1.64-.22l-.34-.06a4.51,4.51,0,0,0-1,0,1.36,1.36,0,0,0-.27,0l-.24.07a2.41,2.41,0,0,0-.5.21,14.16,14.16,0,0,0-1.28.85c-.22.15-.46.31-.73.46l-.31.14-.34.12a2.93,2.93,0,0,1-.73.11h-.51l-.5,0L58,81a9.59,9.59,0,0,0-1.39-.13A3.11,3.11,0,0,0,56,81a2.42,2.42,0,0,0-.58.25,8.17,8.17,0,0,0-1.13.81,5.89,5.89,0,0,1-1.33.87,3.22,3.22,0,0,1-.85.23,8.33,8.33,0,0,1-.86,0c-.56,0-1.1-.09-1.62-.11a4.4,4.4,0,0,0-.74,0l-.16,0-.2,0-.3.13a5.63,5.63,0,0,0-1.18.89,6.54,6.54,0,0,1-1.36,1,3,3,0,0,1-.91.3,7.3,7.3,0,0,1-.92.08c-.6,0-1.18,0-1.71,0a2.73,2.73,0,0,0-.73.11,2.14,2.14,0,0,0-.64.32,8.53,8.53,0,0,0-1.13,1.06,7,7,0,0,1-.62.59,3.07,3.07,0,0,1-.82.51,5.69,5.69,0,0,1-1.86.32,10.37,10.37,0,0,0-1.65.14,2,2,0,0,0-.66.25,3,3,0,0,0-.56.45c-.35.35-.65.78-1,1.19a3.36,3.36,0,0,1-1.47,1,7.57,7.57,0,0,1-1.75.33,5.77,5.77,0,0,0-1.5.3,2.57,2.57,0,0,0-1.05.86c-.28.38-.53.79-.83,1.2a3.06,3.06,0,0,1-1.25,1.07c-1,.46-2.12.48-3,.8A3.16,3.16,0,0,0,20,97.94a6.29,6.29,0,0,1-.66,1.1,3.21,3.21,0,0,1-1.1.81c-.82.37-1.65.53-2.32.83a2.13,2.13,0,0,0-.45.26l-.11.08,0,0,0,0,0,0c-.05.06-.12.12-.16.18a3,3,0,0,0-.49.81c-.25.56-.38,1.13-.62,1.64a2.71,2.71,0,0,1-.21.37,2.62,2.62,0,0,1-.28.3,3.57,3.57,0,0,1-.28.27l-.3.23a3.21,3.21,0,0,1-1.22.55,2.2,2.2,0,0,0-.87.41,2.33,2.33,0,0,0-.36.39s0,0,0,0l-.11.14s0-.07.1-.15l0,0a2,2,0,0,1,.33-.41,1.64,1.64,0,0,1,.36-.25,3,3,0,0,1,.51-.21,3.46,3.46,0,0,0,1.15-.58,2.76,2.76,0,0,0,.27-.23,2.23,2.23,0,0,0,.26-.27,1.81,1.81,0,0,0,.25-.3,2.55,2.55,0,0,0,.17-.33c.21-.49.31-1.06.54-1.66a2.77,2.77,0,0,1,1.4-1.63c.74-.35,1.56-.53,2.29-.88a2.58,2.58,0,0,0,.91-.7,6.09,6.09,0,0,0,.58-1,6.22,6.22,0,0,1,.66-1.16,2.58,2.58,0,0,1,.51-.54,2.64,2.64,0,0,1,.32-.22l.38-.18c1-.38,2.06-.43,2.89-.84s1.17-1.26,1.8-2.09a4.46,4.46,0,0,1,.55-.61,2.93,2.93,0,0,1,.77-.48,6.7,6.7,0,0,1,1.74-.37,7.85,7.85,0,0,0,1.56-.3,2.51,2.51,0,0,0,1.13-.84c.33-.38.64-.81,1-1.22a3.66,3.66,0,0,1,.7-.58,3.1,3.1,0,0,1,.92-.36,10.71,10.71,0,0,1,1.81-.17,4.87,4.87,0,0,0,1.55-.27,2.31,2.31,0,0,0,.6-.37,6.89,6.89,0,0,0,.56-.52,8.85,8.85,0,0,1,1.26-1.15,2.78,2.78,0,0,1,.86-.43,4.24,4.24,0,0,1,1-.15c.62,0,1.2,0,1.74,0a3.12,3.12,0,0,0,1.47-.28,6,6,0,0,0,1.19-.9,6.19,6.19,0,0,1,1.36-1,2.77,2.77,0,0,1,.45-.19l.2,0,.25,0a4.59,4.59,0,0,1,.9,0,7.54,7.54,0,0,0,3-.06,6,6,0,0,0,1.17-.74A9.64,9.64,0,0,1,55,80.77a3.86,3.86,0,0,1,.77-.3,3.37,3.37,0,0,1,.79-.07,10.67,10.67,0,0,1,1.47.16,9.42,9.42,0,0,0,1,.11h.32a2.55,2.55,0,0,0,1.16-.29c.71-.37,1.32-.9,2-1.26a4.82,4.82,0,0,1,.57-.22l.31-.07a2.4,2.4,0,0,1,.28,0,4.73,4.73,0,0,1,1.15.08l.84.17a9.31,9.31,0,0,0,1.1.18,3,3,0,0,0,1.57-.3c.87-.44,1.5-.89,2-1.08l.22-.08a2,2,0,0,1,.37-.11Z"/><path class="cls-31" d="M76.59,73.93s-.22,0-.64.09a50.38,50.38,0,0,0-16.87,6.65l-.67.41-.68.42A67.31,67.31,0,0,0,42.56,94.84l-.69.83a88.33,88.33,0,0,0-13.45,22.91l-.42,1q-1,2.66-2,5.52h0l-.36,1.06-.45,1.4c-.13.39-.25.79-.37,1.19a2,2,0,0,0-.07.23c-.06.17-.11.34-.16.52s-.06.19-.09.3a2.76,2.76,0,0,0-.08.27c-.06.22-.13.43-.19.65l-.06.2v0c-.14.48-.28,1-.41,1.45l0,.12q-.14.48-.27,1h0c-.21.77-.41,1.55-.61,2.35-.08.36-.17.72-.26,1.08l-.18.78-.21.9c-.28,1.23-.54,2.48-.8,3.76-.14.72-.29,1.45-.42,2.2s-.29,1.58-.43,2.38q-.56,3.28-1,6.77c0,.14,0,.28-.05.41s0,.27-.05.41c-.11.86-.22,1.74-.32,2.62-.05.52-.11,1.05-.17,1.58,0,.18,0,.36-.05.54s-.06.65-.1,1v.1c0,.29-.05.58-.07.87s0,.45-.07.68l-.12,1.56c-.17,2.05-.3,4.14-.41,6.29-.26,5.16-.36,10.59-.27,16.32,0,1.6.06,3.22.11,4.87,0,.19,0,.39,0,.58v0l0,.48c0,.37,0,.73,0,1.11l0,.64c0,.37,0,.74.05,1.11s0,.73.05,1.1q.36,7.32,1.11,15.23.32,3.39.71,6.88c0,.13,0,.26.05.4s.18.39,0,.36l-.8-.17-1.77-.4-.85-.19-2.23-.56-.85-.22a75.06,75.06,0,0,1-11-3.73l.19-.33V195.44a9,9,0,0,0-.44-2.77L2,191.55A.39.39,0,0,1,2.4,191H4.28V167.74a2,2,0,0,0-.62-1.42L2.32,165a.52.52,0,0,1,0-.76A15.7,15.7,0,0,1,5.76,162V141.5l-1.09-1.75a.93.93,0,0,1,.16-1.19,30.86,30.86,0,0,1,2.92-2.51L7,133.59a.68.68,0,0,1,.2-.68l.62-.59V119.74a3.61,3.61,0,0,0-.68-2.11L6.71,117a2,2,0,0,1-.21-.38h0a.77.77,0,0,1-.12-.83,2,2,0,0,1,.67-1.25l2.32-2a4.32,4.32,0,0,0,1.54-3.25v-.92a4.75,4.75,0,0,0-.46-2s0,0,0,0l-.11.14s0-.07.1-.15l0,0,0,0a3.47,3.47,0,0,1-.36-1.53,3.63,3.63,0,0,1,.69-2.09c3.92-5.49,19-21.74,63.83-30.06A1.85,1.85,0,0,1,76,72.8a1.5,1.5,0,0,1,.52.57l.11.1Z"/><g class="cls-3"><path d="M176.74,153.48a.2.2,0,0,1-.22-.18V140.8a.2.2,0,0,1,.22-.19.2.2,0,0,1,.21.19v12.5A.2.2,0,0,1,176.74,153.48Z"/></g><g class="cls-3"><path d="M200.83,154.42a.21.21,0,0,1-.21-.19v-11a.21.21,0,0,1,.21-.19.2.2,0,0,1,.21.19v11A.2.2,0,0,1,200.83,154.42Z"/></g></svg>