<svg id="Layer_1" data-name="Layer 1" xmlns="http://www.w3.org/2000/svg" viewBox="0 0 280.54 298.04"><defs><style>.cls-1{fill:#272b2e;}.cls-2{opacity:0.43;}.cls-12,.cls-3{fill:#fff;}.cls-3{opacity:0.09;}.cls-4{fill:#535354;}.cls-5{fill:#ef5350;}.cls-6{fill:#e53935;}.cls-7{opacity:0.05;}.cls-8{opacity:0.07;}.cls-9{fill:#606061;}.cls-10{opacity:0.1;}.cls-11{opacity:0.85;}.cls-12{opacity:0.12;}</style></defs><path class="cls-1" d="M99.47,209.87v24.61c0,2-3.53,3.81-8.74,4.69a46.38,46.38,0,0,1-7.91.66,39.75,39.75,0,0,1-11.46-1.49c-3.2-1-5.21-2.34-5.21-3.86V209.87h1.62s.06,0,.09-.05c2.67-1.77,8.35-3,15-3s12.07,1.22,14.83,2.92l.22.14Z"/><g class="cls-2"><path d="M99.47,209.87v24.61c0,2-3.53,3.81-8.74,4.69a46.38,46.38,0,0,1-7.91.66c-.94,0-1.85,0-2.75-.08a42.38,42.38,0,0,0,5.24-.58c5.21-.88,8.74-2.65,8.74-4.69V209.87h-1.6l-.22-.14c-2.36-1.47-6.83-2.57-12.14-2.85.88,0,1.8-.07,2.73-.07,6.48,0,12.07,1.21,14.83,2.92l.22.14Z"/></g><path class="cls-3" d="M76.78,238.34a36,36,0,0,0,8.71,1.41c-.86.05-1.76.08-2.67.08a39.75,39.75,0,0,1-11.46-1.49c-3.2-1-5.22-2.34-5.22-3.86V209.87h1.64s0,0,.08-.05c2.67-1.77,8.35-3,15-3,.91,0,1.81,0,2.68.07-5.41.29-9.93,1.42-12.23,2.94,0,0,0,0-.08.05H71.56v24.61C71.56,236,73.58,237.38,76.78,238.34Z"/><path class="cls-4" d="M99.47,209.87c0,2.1-3.75,3.92-9.21,4.77a43.89,43.89,0,0,1-7.44.58,39.75,39.75,0,0,1-11.46-1.49c-3.2-1-5.21-2.34-5.21-3.86a1.77,1.77,0,0,1,.27-1c1.41-2.48,8.22-4.38,16.4-4.38s15.05,1.92,16.4,4.43A2,2,0,0,1,99.47,209.87Z"/><path class="cls-5" d="M249.25,106.75l-111,10.33L38,106.75s.06-.06.06-.06h0a3.07,3.07,0,0,1,1.31-1L43.41,104a9.67,9.67,0,0,1,4-.63c3.16.18,9.87.53,19.28.92h0q2.78.12,5.87.23h0c14.49.56,33.88,1.14,55.94,1.38,7.57.09,15.47.12,23.59.11,27.72,0,58.06-.72,87.44-2.64a9.82,9.82,0,0,1,4,.63l4.27,1.66a3.18,3.18,0,0,1,1.32,1S249.25,106.72,249.25,106.75Z"/><path class="cls-6" d="M249.25,106.75s0,0,0-.06c-7,.39-46,2.47-97.06,2.68V88.06H128.57v21.28C80.64,109,44.66,107.07,38,106.69c0,0-.06,0-.06.06a3.14,3.14,0,0,0-.6,2.26s0,.13,0,.19L39,117.38a4.93,4.93,0,0,0,4.57,4.06c11.8.66,49.61,2.53,100.1,2.53,51.42,0,88.46-1.87,100.09-2.53a5,5,0,0,0,4.6-4l1.55-8.18A3.07,3.07,0,0,0,249.25,106.75Z"/><path class="cls-7" d="M93.25,113.66l.13,4.81c-25.07-.62-42.91-1.53-49.59-1.9,0,0,0,0,0-.06l-.9-4.67C51.77,112.28,69.72,113.1,93.25,113.66Z"/><path class="cls-7" d="M215,117.86c-18,.64-42.41,1.24-71.34,1.24-16.78,0-32.21-.22-45.74-.52l-.33-4.82c9.56.21,20,.37,31,.45l4.91,0V92.94h13.84v21.33l4.9,0c24.26-.1,45.88-.63,62.64-1.2Z"/><path class="cls-7" d="M244.4,111.83l-.88,4.68s-.05.06-.05.06c-5,.28-13.34.71-24.4,1.13l-.24-4.78C230.15,112.52,238.94,112.11,244.4,111.83Z"/><path class="cls-5" d="M92.85,97.51l0-1.9h-20l0,1.46L70.09,208.63c0,1.27,1.82,2.4,4.68,3.14a32.41,32.41,0,0,0,8,.94A31.69,31.69,0,0,0,89.9,212c3.42-.71,5.65-2,5.65-3.36Z"/><path class="cls-3" d="M85.58,212.61c-.88.07-1.8.1-2.76.1a32.41,32.41,0,0,1-8-.94c-2.86-.74-4.68-1.87-4.68-3.14L72.81,97.08l0-1.47h5.42l0,1.47L75.51,208.63c0,1.27,1.82,2.4,4.68,3.14A28.52,28.52,0,0,0,85.58,212.61Z"/><path class="cls-8" d="M95.55,208.63c0,1.41-2.23,2.65-5.65,3.37a32.33,32.33,0,0,1-7.08.71c-.91,0-1.8,0-2.65-.1a27.91,27.91,0,0,0,4.32-.61c3.41-.72,5.65-2,5.65-3.37L87.43,97.51l-.05-1.9H92.8l0,1.9Z"/><path class="cls-6" d="M96.29,88.71C93.9,87.09,88.77,86,82.82,86s-11.09,1.12-13.47,2.74H67.91V94c0,2.64,6.67,4.78,14.91,4.78s14.9-2.14,14.9-4.78v-5.3Z"/><ellipse class="cls-5" cx="82.82" cy="88.71" rx="14.91" ry="4.78"/><path class="cls-1" d="M189.37,209.88c2.67-1.81,8.4-3.06,15-3.06s12.39,1.25,15.06,3.06h1.6v24.6c0,3-7.46,5.34-16.66,5.34s-16.66-2.39-16.66-5.34v-24.6Z"/><g class="cls-2"><path d="M221.08,209.87v24.61c0,2-3.52,3.81-8.74,4.69a46.26,46.26,0,0,1-7.9.66c-.94,0-1.85,0-2.75-.08a42.38,42.38,0,0,0,5.24-.58c5.21-.88,8.74-2.65,8.74-4.69V209.87h-1.6l-.22-.14c-2.37-1.47-6.83-2.57-12.15-2.85.89,0,1.81-.07,2.74-.07,6.47,0,12.07,1.21,14.82,2.92a1.76,1.76,0,0,0,.23.14Z"/></g><path class="cls-3" d="M198.39,238.34a36.19,36.19,0,0,0,8.72,1.41c-.87.05-1.76.08-2.67.08A39.87,39.87,0,0,1,193,238.34c-3.19-1-5.21-2.34-5.21-3.86V209.87h1.63s.06,0,.08-.05c2.68-1.77,8.35-3,15-3,.91,0,1.81,0,2.68.07-5.42.29-9.93,1.42-12.23,2.94,0,0,0,0-.08.05h-1.63v24.61C193.18,236,195.2,237.38,198.39,238.34Z"/><path class="cls-9" d="M187.76,209.88c0,3,7.46,5.34,16.66,5.34s16.66-2.39,16.66-5.34-7.46-5.34-16.66-5.34S187.76,206.93,187.76,209.88Z"/><path class="cls-9" d="M264.24,62.16l-23.73,8.1-96.29,7.41v.11l-.6,0-.61,0v-.11L46.72,70.26,23,62.16a2.2,2.2,0,0,1,.17-.25,3.29,3.29,0,0,1,1.65-1.27,1,1,0,0,1,.16,0l7.17-2a10.68,10.68,0,0,1,4.46-.27c9.1,1.4,45.42,6.5,97.48,6.5,2.92,0,5.9,0,8.93,0h1.21c56.83.63,96.82-5,106.41-6.45a10.68,10.68,0,0,1,4.46.27l7.17,2,.11,0a3.33,3.33,0,0,1,1.71,1.3Z"/><path class="cls-5" d="M214.4,95.62h-20l-2.76,113c0,2.25,5.7,4.08,12.73,4.08s12.73-1.83,12.73-4.08Z"/><path class="cls-3" d="M207.19,212.61c-.88.07-1.81.1-2.76.1a32.35,32.35,0,0,1-8.05-.94c-2.87-.74-4.69-1.87-4.69-3.14l2.73-111.55,0-1.47h5.41l0,1.47-2.73,111.55c0,1.27,1.82,2.4,4.68,3.14A28.5,28.5,0,0,0,207.19,212.61Z"/><path class="cls-8" d="M217.16,208.63c0,1.41-2.23,2.65-5.65,3.37a32.4,32.4,0,0,1-7.08.71c-.92,0-1.8,0-2.66-.1a27.56,27.56,0,0,0,4.32-.61c3.42-.72,5.65-2,5.65-3.37L209,97.51l-.06-1.9h5.42l.06,1.9Z"/><path class="cls-6" d="M191,88.71c2.39-1.62,7.52-2.74,13.47-2.74s11.09,1.12,13.47,2.74h1.44V94c0,2.64-6.67,4.78-14.91,4.78s-14.9-2.14-14.9-4.78v-5.3Z"/><ellipse class="cls-5" cx="204.42" cy="88.71" rx="14.91" ry="4.78"/><path class="cls-8" d="M70.09,89.13s18.4,2.4,18.65,9.27c0,0,8.69-1.1,9-4.39V90.53Z"/><path class="cls-8" d="M191.12,90.45s19,1.08,19.22,8c0,0,8.84-1.14,9-4.39V89Z"/><path class="cls-6" d="M252.86,75.72v6.69a3.89,3.89,0,0,1-3.43,3.88c-4.27.51-12.49,1.4-24.46,2.3-18.35,1.34-45.53,2.72-80.75,2.78H143C84.79,91.3,48.62,87.58,37.8,86.29a3.88,3.88,0,0,1-3.43-3.88V75.72l109.24,4.77Z"/><path class="cls-10" d="M252.86,75.72V82c-52.94,5.2-103.31,4.83-109.25,4.78S87.34,87.17,34.37,82V75.72l109.24,4.77Z"/><path class="cls-1" d="M264.35,65l-5.29,12.21a2.69,2.69,0,0,1-2.2,1.63C202.48,84.48,149.71,84.09,143.62,84s-58.84.44-113.24-5.18a2.73,2.73,0,0,1-2.21-1.63L22.88,65a.47.47,0,0,1-.06-.19A3.34,3.34,0,0,1,23,62.16a2.2,2.2,0,0,1,.17-.25c10.14,1.73,63.3,10.3,120.46,10.39,57.1-.09,110.23-8.66,120.46-10.39l.16.25A3.36,3.36,0,0,1,264.35,65Z"/><path class="cls-11" d="M149.88,79.19c-3.13,0-5.26,0-6.22,0h-.09c-1,0-3.09,0-6.22,0-16.78,0-60.4-.5-105.21-5l-2.71-6.27c18.74,2.92,64.87,9.23,114.18,9.3,49-.07,95.38-6.39,114.2-9.31l-2.72,6.28C210.33,78.69,166.67,79.19,149.88,79.19Z"/><path class="cls-7" d="M219.07,117.7l-4.12.16-.13-4.81,4-.13Z"/><path class="cls-7" d="M218.83,112.92l-4,.13-.13-4.89,3.89-.11Z"/><path class="cls-7" d="M219.33,122.57l-4.26.16-.12-4.87,4.12-.16Z"/><path class="cls-7" d="M97.87,118.58l-4.49-.11-.13-4.81,4.29.1Z"/><path class="cls-7" d="M97.54,113.76l-4.29-.1-.12-4.88,4.08.09Z"/><path class="cls-7" d="M98.2,123.33H93.5l-.12-4.86,4.49.11Z"/><polygon class="cls-8" points="152.16 106.05 156.97 106.02 161.21 109.31 152.16 109.37 152.16 106.05"/><polygon class="cls-8" points="93.13 108.78 93.04 105.25 96.45 105.34 97.21 108.87 93.13 108.78"/><polygon class="cls-8" points="214.63 104.75 217.72 104.61 218.58 108.05 214.69 108.16 214.63 104.75"/><path class="cls-12" d="M66.72,104.33a71,71,0,0,0-20.37,2.79h-.53l-.45,0c-1.11,0-3-.14-5.1-.26l-.44,0H39.6l-.26,0L38,106.68a3.07,3.07,0,0,1,1.31-1L43.41,104a9.67,9.67,0,0,1,4-.63C50.6,103.59,57.31,103.94,66.72,104.33Z"/></svg>