<svg id="layer1" xmlns="http://www.w3.org/2000/svg" viewBox="0 0 296.16 284.32"><defs><style>.cls-1{fill:#b71c1c;}.cls-2{fill:#492d0c;}</style></defs><path class="cls-1" d="M212.88,111.21c-2.44-10.49-7.64-20.59-15.38-26.73-12.22-9.7-28.23-8.17-41.94-2.69a7.11,7.11,0,0,0-4.72-1.72,29.81,29.81,0,0,0-25,15.46,37.7,37.7,0,0,0-4.23,13.11c-5,13.78-4.74,28.88,2.8,42.13,9,15.84,28.34,25.61,46.32,24.83a47.37,47.37,0,0,0,40.43-27.34A48.92,48.92,0,0,0,212.88,111.21Z"/><path class="cls-2" d="M132.36,86.93c6.9-3,14-3.92,21.35-5.39a160.54,160.54,0,0,0,21.62-6.06c1.27-.45.12-1.18-.78-.86a161.86,161.86,0,0,1-24,6.44c-6.54,1.24-12.8,2.34-19,5-1.24.53-.11,1.24.78.86Z"/><path class="cls-2" d="M128.59,87.27c-7,4.51-8.78,15.6-10.57,23.07-2.71,11.38-2.86,21.86,1.68,32.88,8.54,20.7,30.57,36,53.13,34.1C191.1,175.79,207.2,163.22,215,147c9.34-19.57,2.87-42-10.79-57.79-6-7-14.34-12.57-23.82-12.72-.4,0-2.21.76-1.26.78,21.8.34,36.21,27.12,38.24,46.09,2.25,21-11.66,41.3-30.42,49.77-24.56,11.09-51.15-4.43-63.28-26.24a46.9,46.9,0,0,1-4.37-34c1.86-7.84,3.41-20.78,10.81-25.54.8-.52-1.14-.27-1.48,0Z"/><path class="cls-2" d="M155.59,82.89c4.49,14.13,13,26.73,17.11,41a221.2,221.2,0,0,1,8,48.85c0,.47,2,.11,1.93-.52a233.89,233.89,0,0,0-7.54-47.19c-4-15-12.9-28-17.55-42.68-.18-.55-2.1,0-1.94.52Z"/><path class="cls-2" d="M147.2,115.53a9,9,0,0,0-8.4,7.6c-.54,3.45,3.82,5.19,6.52,4.77,3.4-.54,6.2-2.93,6.23-6.56,0-4-3.83-6.51-7.49-5.94-2.1.33-5.51,1.77-6,4.14-.37,2,1.63,3.61,3.07,4.52,2.51,1.58,9.32,2.84,8.86-2-.4-4.16-4.23-8-8-4.61-2.32,2.08-4.06,7.8-1.21,10.1,1.39,1.13,4.24.71,5.7-.07,2.65-1.43,3.3-4.76,2.69-7.53a3.81,3.81,0,0,0-5.52-2.64c-2.37,1.25-2.29,4.9-.17,6.43.36.26,2.14-.29,1.82-.66-.54-.62-.9-1.33-1.43-1.94-.26-.3-1.8.11-1.87.5-.16.92-.69,3.22.64,3.6a3.54,3.54,0,0,0,2.82-.67c2.66-1.81,1.63-4.72-1.14-5.51-.39-.12-1.7.11-1.76.63-.09.95-1.32,3.78.64,3.86,1.3,0,2.2-.86,3.2-1.51.81-.53-1.13-.29-1.48-.06a5.57,5.57,0,0,0-.59.4c-.49.54-.61.37-.38-.5-.23-.5.48-2.05.55-2.71l-1.76.64c1.86.53,2.93,1.84,2,3.72a3.09,3.09,0,0,1-.54.76c-.59.64,0,.27-.23,0-.54-.74-.22-2.17-.08-2.94l-1.86.5c.53.61.89,1.32,1.43,1.94l1.82-.66a4.17,4.17,0,0,1-1.14-4.85c.53-1.26,2,.12,2.45.75a5.68,5.68,0,0,1,.83,2.79c.16,1.69-.37,4.95-2.36,5.51a2.78,2.78,0,0,1-3.27-1.32c-1.11-2-.36-4.76.54-6.66a5.24,5.24,0,0,1,2-2.42c.81-.44,2.31,2,2.59,2.48.85,1.54,2.41,5.88-.79,5.32a8.69,8.69,0,0,1-5.75-3.7,2.68,2.68,0,0,1-.15-2.6c1.12-2.3,4.65-2.68,6.58-1.51,4.66,2.83,2.72,12.33-3.39,9.93-5.36-2.11-1.74-10.05,2.89-10.48.5,0,2.11-.9.84-.78Z"/><path class="cls-2" d="M187.55,102.39c-2.88,2.2-2.6,6.89-1.3,9.88,1,2.35,4,3.31,6.4,3,4.92-.72,4.83-6.83,3.59-10.44-1.65-4.79-6-6.44-10.17-3.35-2.88,2.14-3.37,5.7-2.12,8.93,1.1,2.85,4.65,5.12,7.69,3.67,3.32-1.57,5-5.7,4.82-9.22a5.24,5.24,0,0,0-4.69-4.49c-4.41,0-4.89,6.45-4.34,9.59.28,1.64,1.14,3.45,3,3.66,2.12.23,4.75-1.3,5.28-3.38.72-2.86-1.35-7-4.53-7-3.69,0-3.66,3.77-2.13,6.16a4.94,4.94,0,0,0,2.28,2.17c.48.19,1.77,0,1.74-.71-.1-1.85-.29-3.37-1.63-4.73-.42-.43-1.9,0-1.86.63a9.89,9.89,0,0,0,.86,4c.25.53,1.19.2,1.56,0,2.46-1.33,1.57-4.3,1.41-6.61,0-.68-1.76-.06-1.93.39l-.08.24.84-.59c.37-.12-.15-.08-.36-.17-.47-.2-1.77,0-1.73.72,0,.89.08,1.78.13,2.67,0,.59,2,.2,1.93-.52,0-.89-.09-1.78-.13-2.67l-1.74.71c1,.41,2.62.58,3.07-.65l-1.93.39c.1,1.49,1,4.64-.67,5.55h1.56a9.89,9.89,0,0,1-.86-4l-1.87.64c1.29,1.31,1.41,2.74,1.5,4.49l1.73-.71c-1.67-.64-2.6-2.78-2.93-4.41s.84-2.3,2.05-1.26a6.09,6.09,0,0,1,1.65,3c.54,1.88.16,3.63-1.71,4.47-.87.39-1.61-.55-2-1.23-1-1.93-.9-4.52-.47-6.6a6.92,6.92,0,0,1,1.13-2.73c.67-.91,1.43-.24,2.13.36a4.92,4.92,0,0,1,1.7,4.88c-.31,2.36-1.9,6.59-4.87,6.13-4.28-.66-5.36-7.25-3.27-10.28,1.76-2.54,4.52-2.76,6.47-.5a11.2,11.2,0,0,1,2.29,6.86c.07,2.53-.88,5.46-3.88,4.71-4.24-1.07-5.5-8.76-2.08-11.37.87-.67-1.07-.65-1.54-.29Z"/><path class="cls-2" d="M137.56,121.45c-3.41,3.48.3,5.94,3.88,6.57,2.94.52,6.84-.69,7.89-3.76,2.61-7.67-8.46-11.34-13.13-6.19-5.58,6.14,6.63,13.56,11.15,7.44,4.26-5.78-4.47-10.76-9-6.5s.36,12.8,6.25,9.47c1.14-.64-.52-1.16-1.24-.75-4,2.28-7.39-8-1.78-8.91,6.5-1,6.19,9.12-.27,7.5-3.65-.92-6-5.1-3.23-8.17,2.54-2.79,7-1.13,8.74,1.56,1.36,2.08,1.16,5.31-1.16,6.6-2.76,1.52-10.26-.62-6.56-4.4.83-.84-1-1-1.58-.46Z"/><path class="cls-2" d="M130.29,87c.25-4.76-.92-9.42-.17-14.2,1-6.53,9.94-9.1,15.25-10.94,6.59-2.28,13.16-4.37,19.65-.83,5,2.71,9.73,8.19,9,14.15-.07.53,1.85.16,1.91-.32.91-7.14-5.35-12.84-11.26-15.61-5.48-2.58-11.52-.44-17,1.16-6,1.76-13.28,4.06-17.71,8.72-4.23,4.46-1.32,13-1.6,18.39,0,.34,1.9.09,1.93-.52Z"/><path class="cls-2" d="M133.08,62.68c-1.68-1.6-1.08-4.39-.72-6.38.68-3.8,3.95-5.18,7.33-5.91,1.83-.39,3.69-1.55,5.41-2.27,3.78-1.58,7-.93,10.28,1.4,1.41,1,3.36,2.83,2.28,4.78-1.94,3.53-11.16,3.64-14.54,4.33a20.81,20.81,0,0,0-7.76,2.77c-.87.6,1.08.54,1.52.24,5.79-4,14-2.17,20.16-5.57,5.78-3.18.7-8.63-4.25-9.64a12.71,12.71,0,0,0-7.19.55c-3.77,1.4-7.69,2.31-11.41,3.73s-5.86,9.89-2.92,12.7c.45.43,2.26-.29,1.81-.73Z"/><path class="cls-2" d="M136.8,54.33c0,.33-.44.59-.64.84s-.1.84.07,1.2,1.93-.07,1.93-.52c0-1.16.51-2.21.51-3.37l-1.93.51.06,1.34c0,.38,1.78-.11,1.92-.43.61-1.37,1.21-2.74,1.81-4.11l-1.92.43c0,1.37-.47,2.68-.47,4.05,0,.28,1.93,0,1.93-.52,0-1.37.48-2.67.47-4,0-.37-1.77.1-1.91.43-.61,1.37-1.21,2.74-1.81,4.11l1.92-.44-.07-1.33c0-.32-1.93,0-1.93.51,0,1.16-.51,2.22-.51,3.38l1.93-.52c-.51-1.1.47-1.12.58-2,0-.21-1.87-.05-1.94.52Z"/><path class="cls-2" d="M146.06,51.87a8.53,8.53,0,0,0,3.69,3.37c.44.21,1.79-.06,1.74-.7a6.11,6.11,0,0,0-3.78-5.37c-.4-.13-2.1.12-1.68.81s1.56,2.1,2.54,2.2c.43,0,1.61-.11,1.57-.75,0-.1-.14-.21-.21-.28-.45-.44-2.27.28-1.8.73l.07.07,1.57-.75c-.48-.05-1.6-1.4-1.94-2l-1.67.81c2.05.67,3.25,2.94,3.4,5l1.74-.71a7.78,7.78,0,0,1-3.31-3c-.36-.61-2.2.06-1.93.51Z"/><path class="cls-2" d="M150.29,47.11c2.3-3.1,5.73-5.73,5.81-9.9.12-5.95-1.92-11.91,5.79-13.75-.2-.42-.41-.84-.61-1.27a6.28,6.28,0,0,1-1.73.67c-1,.27-1,1.4.11,1.41,3.61,0,5.26-2.49,6.18-5.73.1-.37-.37-.61-.65-.65a6.08,6.08,0,0,0-6.39,2.68c-.45.58.12,1.08.73,1a6.67,6.67,0,0,0,3.37-1.06c1-.65-.33-1.39-1.08-1.05-1.47.64-1.59,1.13-2.4,2.57-.55,1,1.42,1,1.85.24a3.13,3.13,0,0,1,1.41-1.63l-1.08-1.05-1.91.53.73,1-.6,1.65c0,.47.07.94.1,1.41a10,10,0,0,0,2.22-.86c1-.53.37-1.5-.61-1.27-3.81.9-6.61,2.51-7.47,6.51-.52,2.4,0,5.11.06,7.54.2,4.64-3,7-5.46,10.36-.74,1,1.08,1.33,1.63.6Z"/><path class="cls-2" d="M135.27,51.3c-.16-3.11-.18-7.19-3.72-8.43-2.66-.94-5.52-.5-8-2-3.25-2-5.08-6.23-6.65-9.45-.36-.73-1.75-.33-1.94.35-.54,1.9-1.69,2-3.71,1.58-.72-.15-2.29.94-1.15,1.18a36.69,36.69,0,0,0,7,1.05c.48,0,1.66-.34,1.25-1a6.67,6.67,0,0,0-3.64-3.29c-.58-.25-2.44.43-1.51,1,1.54,1,2,.39,3.58-.07,1.17-.34.87-1.49-.31-1.15-.66.19-1.16.57-1.76.19l-1.51,1a6.57,6.57,0,0,1,3.37,3.06l1.24-1a35.15,35.15,0,0,1-6.53-1l-1.15,1.18a14.89,14.89,0,0,0,5.15-.19,1.22,1.22,0,0,0,1.08-.72l.57-2-1.94.35c2.05,4.18,4.11,8.18,8.21,10.65,2,1.21,3.94.6,6.13,1.07,3.94.84,3.87,5,4,8.16,0,.75,2,.32,1.94-.52Z"/><path class="cls-2" d="M127.88,159c-4.68,7.73,3.41,17.74,8,23.73,3.71,4.86,6.29,8.53,2.9,14.2-2.62,4.38-6.65,8-10.37,11.48-.79.73,1.13.58,1.52.21,4.45-4.1,14.23-11.75,12.52-18.72-1.13-4.59-5.49-8.75-8.18-12.43-3.41-4.66-8-12.92-4.59-18.51.43-.7-1.49-.43-1.77,0Z"/><path class="cls-2" d="M218.23,128.28c8.48,2.55,7.71,10.11,8,17.45.26,5.91.45,11.89,2.31,17.56,3.25,9.93,17.57,5.37,24.78,2.76,1.28-.46.09-1-.73-.67-5.32,1.92-12.08,3.43-17.73,2.58-5.36-.8-5.9-11.27-6.28-15.22-.88-9.07,2.18-22-8.82-25.34-.54-.16-2.28.66-1.56.88Z"/><path class="cls-2" d="M199.76,84.91c6.47-.93,9.66,7.63,12,12.13,1.29,2.47,3.44,7.2,6.66,7.71a9.16,9.16,0,0,0,6.27-1.09,23.47,23.47,0,0,0,4.25-3.38c1.47-1.43,3.54-4.64,5.71-5,.75-.13,1.73-.9.37-.66-6.81,1.2-12.06,15.41-18.93,6-4-5.53-6.58-17.7-15.49-16.42-.46.07-2.1.91-.84.73Z"/><path class="cls-2" d="M119.73,106.19c-10.13,1.59-7.25,14.61-6.66,21.88a25.8,25.8,0,0,1-.12,7.13c-.72,3.54-5.54,3.76-8.44,4.16-4,.56-14.2,2.17-17.35-1.42-.3-.34-2.08.35-1.83.64,2.67,3,10.35,2.07,13.81,1.91,4.54-.22,9.72-.69,13.79-2.91,3.61-2,2.19-8.8,1.91-12-.43-4.94-2.85-17.62,4.51-18.78.75-.12,1.74-.86.38-.65Z"/><path class="cls-2" d="M173.73,68.76c4.8,6.42,16.61-1.61,21.11-4.85,2.79-2,6.3-5.72,5.62-9.55-.59-3.32-2.38-6.23-3.57-9.36s-.67-7.4-.83-10.69c0-.71-2-.29-1.93.51.16,3.48-.12,7.35.83,10.7,1.13,4,4,7.06,3.37,11.49-.87,6-18.4,16.87-22.82,11-.43-.58-2.29.11-1.78.79Z"/><path class="cls-2" d="M127.1,81.08a56,56,0,0,1-13.33,5.16c-5.59,1.34-7.51-1.71-10.56-5.54-4.11-5.16-10.11-11.13-10.92-18-.08-.62-2-.19-1.94.52.55,4.54,3.67,8.57,6.31,12.15s5.67,8.07,9.22,11c5.43,4.57,17.59-2.27,22.41-4.86,1.15-.61-.58-.86-1.19-.53Z"/><path class="cls-2" d="M140.55,64.61c.34,3,.35,6-1.06,8.7-1.79,3.44-5.84,3.91-9.32,3.83l-.8.76c1.06-.16,1.91-.66,2.92-.89.75-.16,1.71-1,.36-.71-1,.22-1.92.73-2.92.88-.27,0-1.75.73-.81.75,3.44.08,7.39-.25,10.23-2.43,3.55-2.73,3.8-7.27,3.34-11.41-.05-.37-2,0-1.94.52Z"/><path class="cls-2" d="M142.07,65.28a20.31,20.31,0,0,0,1.06,6.62c.26.65,1.74.09,1.93-.39a26.91,26.91,0,0,0,1.72-10.59c0-.64-1.66,0-1.86.26-1.44,2.07-2.76,7.58,1.11,8.23s3.37-4.86,3-7.12c-.08-.59-2-.15-1.93.52A7.93,7.93,0,0,0,149.68,68c.4.41,1.89,0,1.86-.62q-.15-3.33-.32-6.66c0-.22-.44-.26-.58-.25l-.74,0c-.41,0-1.38.2-1.35.77a15,15,0,0,0,1.83,7.33c.34.56,2,.16,1.94-.52-.08-1.48-.15-3-.22-4.44l-1.93.52c.86,8.22,14.09,7.13,17.51,1.21.43-.75-1.5-.5-1.79,0-3,5.29-13.09,5-13.79-1.73-.06-.59-2-.15-1.93.52l.21,4.44,1.94-.52a14.91,14.91,0,0,1-1.84-7.33l-1.35.77c.42,0,.43,5.42.48,6.37l1.87-.62a7.76,7.76,0,0,1-2.41-5l-1.93.52c.17,1.13.92,7-1,4.72-1.56-1.87-.61-4.63.59-6.35l-1.86.26a26,26,0,0,1-1.72,10.34l1.93-.4A20.26,20.26,0,0,1,144,64.76c0-.56-2-.18-1.93.52Z"/><path class="cls-2" d="M147.36,67.13c-.26,3.47.94,5.92,2.64,8.89.32.55,1.92.1,1.94-.52.06-3.83-1.46-9.94-6.54-6.9-3.91,2.35-4.74,7.06-.32,9.32.43.22,1.58-.07,1.74-.57.85-2.62,1.79-9.3-3.18-7.28-4.41,1.78-3.55,6.39-.83,9.36.37.41,1.7,0,1.86-.5a9.4,9.4,0,0,0,.57-3.85c0-.28-.67-.21-.81-.19-3.76.5-6.26,2.42-9.44,4.36-.16.1-.67.53-.2.65a9.92,9.92,0,0,0,6.32-.36c.59-.2.87-.81,0-.8-3.53.07-6.43-.07-9.22,2.25-.43.36-.06.6.36.58,4.44-.14,8.68,0,12.14-3.13.4-.36.08-.59-.36-.58-4.51.14-9-.16-12.92,2.43-.18.12-.34.45,0,.53,7.22,1.81,14.11-1.36,19.82-5.66.32-.24.23-.51-.15-.57-3.11-.48-5.38.46-8,2.17-.32.21-.22.54.16.57,5.47.46,11.63-.49,15.37-4.87.22-.25,0-.42-.28-.45A72.72,72.72,0,0,0,146,71.84c-.27,0-1.52.23-1.36.73,1.85,5.88,12.61,3.42,17,3.14.21,0,1.77-.37,1.3-.84-3.25-3.22-8.14-4-12.56-4-.19,0-1.81.43-1.3.83,4.38,3.45,9.4,3.39,14.75,3.15.39,0,2-.88,1-1-8-.56-17.73-3.49-23.59,3.78a.24.24,0,0,0,0,.34c3.65,3.42,10.67,2.65,14.87.69.22-.1.63-.5.2-.64-7.19-2.35-21.62-2-26.68,4.62-.12.16-.1.34.11.41,3.59,1.15,7.08.57,10.78.29.35,0,2.09-.78,1-1A25.74,25.74,0,0,0,131.2,83c-.14,0-1.19.46-.79.76,5.32,4,15.23.84,18-5,.14-.29-.42-.34-.56-.34l-3.7.18c-.23,0-2,.6-1.18.9,6.95,2.65,15,1.06,21.27-2.65.23-.14.61-.46.2-.64-4.58-2.08-9.64-1.82-14.55-1.59-.28,0-1.92.48-1.17.9,4.4,2.48,14.26,2.91,17.94-1.23a.24.24,0,0,0-.11-.41c-3.69-1.09-13.26-5.54-16.45-1.58-2,2.47,3.38,4.72,4.78,5,4,.84,9,1.22,12.84-.53.15-.07.86-.41.54-.68a19.22,19.22,0,0,0-12.6-4.73c-.26,0-2,.67-1.17.91,4.4,1.33,8.48,3.08,13.14,3.14.17,0,1.82-.5,1.3-.83-2.58-1.65-4.75-3.23-7.87-3.46-.28,0-2,.26-1.51.83a13.3,13.3,0,0,0,7,4.92c.37.11,1.69,0,1.74-.56.3-3.8-2.18-5.81-5.82-6-.3,0-1.93.23-1.51.82,1.61,2.27,3,4.56,5.59,5.74.41.19,1.6,0,1.74-.56.69-2.71,1-5-.35-7.52a.58.58,0,0,0-.57-.22l-.74,0c-.35,0-1.43.2-1.36.73a7.59,7.59,0,0,0,3.3,5.88c.4.29,1.75.06,1.87-.5a26.83,26.83,0,0,0,.42-6.81l-1.93.52a13.78,13.78,0,0,1,1.73,5.1c.07.55,2,.11,1.93-.51-.1-2-.19-4-.29-5.92l-1.93.51a17.8,17.8,0,0,1,1,5.89c0,.5,2,.13,1.93-.52a17.49,17.49,0,0,0-1-5.88c-.23-.58-2-.08-1.93.51.1,2,.19,3.95.29,5.92l1.93-.51a13.59,13.59,0,0,0-1.73-5.11c-.29-.54-2-.1-1.93.52a26.78,26.78,0,0,1-.41,6.57l1.86-.5a7.53,7.53,0,0,1-3.18-5.68l-1.36.74c2.06-.1.84,5.8.53,7L168.1,76c-2.51-1.14-3.82-3.45-5.34-5.6l-1.51.82c3.23.17,5.38,2,5.11,5.35L168.1,76a13,13,0,0,1-6.79-4.79l-1.51.83c2.91.21,4.93,1.73,7.28,3.23l1.3-.84c-4.37,0-8.27-1.79-12.37-3l-1.18.91a17.63,17.63,0,0,1,10.5,3.58c1.91,1.35-2.46,1-2.8,1.06a27.25,27.25,0,0,1-4.33-.2c-2.15-.24-4.79-.77-6-2.76-1.43-2.39,1.81-2.05,3.25-1.83a59.59,59.59,0,0,1,8.81,2.35c.87.27-5.59,1.62-7,1.62a14.47,14.47,0,0,1-7-1.48l-1.17.9c1.94-.09,3.87-.15,5.81-.14.07,0,7.95,1.12,7.11,1.61a21,21,0,0,1-17.49,1.61l-1.17.9,2.74-.13c.35,0-3.13,3.39-3.42,3.56-3,1.82-7.49,2.26-10.42,0-.27.25-.54.5-.8.76a21.42,21.42,0,0,1,8.9-.4l1-1c-2,.15-4,.37-6,.46-8.17.39.67-3.31,2.49-3.81a37.87,37.87,0,0,1,13-.93c1.4.11,5.9.17,1,1-1,.17-10.17.19-8-2.55,4.2-5.21,14.11-2.14,19.74-1.74l1-.95c-4.93.23-9.65.32-13.73-2.9l-1.3.83c4.1,0,8.54.77,11.54,3.75.44-.27.87-.55,1.3-.83-4.17.27-14.2,2.65-15.88-2.69l-1.36.73c1.68-.08,3.36-.14,5.05-.18a48.52,48.52,0,0,1,5,.14q.09,3.21-4.17,3.16l-2.34.45c-2.95.4-3.12.23-.49-.51a22.86,22.86,0,0,1-11.61,4.62c0-.46,0-.93,0-1.39,1.33-.13,2.67-.2,4-.21,5-.09-4.68,1.68-6.29,1.71a8.87,8.87,0,0,1,4.54-.86c-1.56-.23-2-.52-1.35-.88,1.51-1,6.71-3.88,5.22.38l1.86-.5c-1.71-1.88-2.88-4-1.83-6.51.68-1.62,2.38-1.52,2.9,0s-.27,3.82-.78,5.39l1.74-.56c-2.67-1.37-3.45-3.76-1.88-6.34,3.64-6,5.28,3,5.24,5.29l1.94-.52c-1.67-2.9-2.93-5.17-2.66-8.65.05-.67-1.88-.27-1.92.28Z"/><path class="cls-2" d="M137.91,54.51c1.06,1.39,3.8.84,5.27.78.47,0,1.58-.71.85-1.2-2.26-1.48-4.77-1.39-7.39-1.28-.35,0-1.49.56-1,1.07,2.69,2.7,6.72,4.71,9.86,1.51,2.12-2.16.76-5.37-2.27-5.2-1.75.1-9.93,2.76-6.42,5.38s10.43.12,13.09-2.46c.42-.4,0-.88-.45-.91-6.5-.34-13.77,1.27-17.26,7.28-.19.33.07.59.36.7,6.09,2.47,11-2.34,14.39-6.92.34-.45.09-.86-.45-.92l-2.78-.55c-.69-.14-2.33.79-1.13,1.24a12.46,12.46,0,0,0,10.82-.69.53.53,0,0,0-.07-1,27,27,0,0,0-6.95-1.21c-.15.44-.29.88-.44,1.33a15.39,15.39,0,0,1,7.59,1.7c.69.36,2.42-.6,1.5-1.07a18.13,18.13,0,0,0-8.9-2c-.83,0-1.61,1.31-.44,1.33a25.23,25.23,0,0,1,6.51,1.11l-.06-1c-2.62,1.57-5.73,1.24-8.43.25L142.6,53c1.13.22,2.06.52,3.22.64-.15-.31-.31-.61-.46-.92a41.13,41.13,0,0,1-2.87,3.46A15.12,15.12,0,0,1,140,58.34c-5.67,4.15-6.09,1-4.21-1,3.11-3.41,8.72-4,13-3.8l-.46-.91c-2,1.94-4.88,2.47-7.57,2.42-4.64-.1-.93-3.05,1.71-3.48,2-.33,2.5,1.34,1.83,2.8-1.5,3.24-5.38.18-6.86-1.29-.33.35-.65.71-1,1.07,2.14-.09,4.15-.24,6.07,1l.85-1.2a9.93,9.93,0,0,1-3.68-.27c-.5-.65-2.35.08-1.78.82Z"/><path class="cls-2" d="M130.64,160.81h.13c.41,0,1-.29,1.08-.75s-.54-.58-.88-.57l-.59,0c-.4,0-1,.29-1.07.74s.53.59.87.57l.59,0c.07-.44.13-.88.2-1.32h-.13c-.4,0-1,.29-1.07.74s.53.59.87.57Z"/><path class="cls-2" d="M129.79,160.31c-2.43,3.84-.11,9,1.53,12.68a93.09,93.09,0,0,0,8,13.74c.33.5,2.14-.16,1.93-.52-5.07-8.55-10.24-17-11-27.17,0-.44-1.95-.07-1.93.52.19,4.89.24,9.61,2.07,14.21.2.51,2,0,1.93-.52-.16-4.14-.07-8.29-2.42-11.88-.29-.45-2-.06-1.93.51.67,8.31,4.35,15.82,9.49,22.25,3,3.69,3.85,6.74,0,10.06-2.45,2.12-.29,4.82,1.19,6.51.33.37,1.71-.08,1.86-.5a18.66,18.66,0,0,0,1.08-6.62c0-.52-1.75.08-1.92.42-.77,1.54-1.31,3.17-2.08,4.71-.22.45,1.59.12,1.84-.2a14,14,0,0,0,2.59-5.31c.16-.61-1.52,0-1.71.09a8.4,8.4,0,0,0-3.64,5.47c-.14.57,1.34.12,1.52,0a5,5,0,0,0,3-4.15c.08-.63-1.49-.08-1.71.09-.73.54-1.6.77-1.52,1.72,0,.55,1.76-.09,1.93-.41l.21-.21c.83-.58-1.11-.4-1.5-.14a1.66,1.66,0,0,0-.63.66l1.93-.42a2.48,2.48,0,0,1,1.08-1.07l-1.71.09a3.63,3.63,0,0,1-2.19,3.49l1.52,0a7.11,7.11,0,0,1,3.23-5l-1.7.09a12.53,12.53,0,0,1-2.45,5.09l1.84-.2c.77-1.54,1.32-3.17,2.08-4.72l-1.92.42a18.36,18.36,0,0,1-1.06,6.41l1.86-.5c-3.44-3.92-1.21-4.93,1.42-8.08,1.7-2-.64-5.63-1.72-7.27-5-7.51-9.52-14-10.28-23.29l-1.93.51c2.35,3.59,2.26,7.75,2.42,11.89l1.93-.52c-1.83-4.6-1.87-9.32-2.07-14.21l-1.93.52c.77,10.15,5.94,18.61,11,27.17l1.93-.52a120.22,120.22,0,0,1-7-11.62c-2.05-3.94-5.29-10.3-2.58-14.59.19-.31-1.6-.19-1.91.31Z"/><path class="cls-2" d="M136.2,198.9a11,11,0,0,0-4.66,3.89c-1.29,2.17.72,4,2.43,5.07a1.71,1.71,0,0,0,1.79-.38c1.76-1.66,1.7-4.11,2.55-6.24.23-.59-1.39-.13-1.54-.06-1.91.95-2.92,3.14-3.38,5.12-.16.68,1.62.08,1.84-.18a9.06,9.06,0,0,0,2.18-4.37c.13-.61-1.33-.19-1.54-.06a4.81,4.81,0,0,0-2.49,4.72c0,.58,1.67-.07,1.85-.29a8.94,8.94,0,0,0,2.12-5.87c0-.58-1.67.08-1.86.29-.92,1.05-2.73,2.92-2.18,4.49.2.56,2.11,0,1.93-.52-.49-1.41,1.18-3.07,2-4l-1.86.29a8.23,8.23,0,0,1-1.95,5.41l1.85-.29c0-1.59.28-2.91,1.72-3.79l-1.54-.06a8.54,8.54,0,0,1-2,4.14l1.84-.18c.36-1.55,1.09-3.66,2.62-4.41l-1.53-.06c-.81,2-.73,4.43-2.4,6l1.79-.38c-1.47-.89-3.06-2.11-2.59-4s2.65-3,4.16-3.82c1.15-.6-.62-.69-1.15-.41Z"/><path class="cls-2" d="M130.17,206.49a23.71,23.71,0,0,1-5.2,5.24.21.21,0,0,0-.1.17,5.65,5.65,0,0,0,2,2.27,2.06,2.06,0,0,0,1.86-.5c1.19-2,1.75-4.19,2.94-6.14.17-.28-1.58.07-1.82.27a8.36,8.36,0,0,0-2.67,3.91c-.1.3.65.15.76.13a6,6,0,0,0,5.11-4.38c.13-.44-1.62.11-1.82.28-1.67,1.38-3.37,2.74-4,4.89-.13.42,1.35,0,1.49-.09a8.26,8.26,0,0,0,3.91-4.14c.18-.35-1.61.12-1.82.28a61.75,61.75,0,0,0-4.91,4.8,26.53,26.53,0,0,0-4.33,6.35c-.14.26,1.63-.05,1.9-.36,1.36-1.57,2.56-3.25,3.92-4.81a3.07,3.07,0,0,0-1.9.36c-1.36,1.56-2.56,3.25-3.92,4.81l1.9-.36a34.51,34.51,0,0,1,3.79-5.76c.55-.66,1.88-1.26,2.3-1.93a13,13,0,0,1,3-3.29l-1.82.28a7.17,7.17,0,0,1-3.1,3.59l1.5-.09c.61-2.07,2.23-3.38,3.84-4.72l-1.82.27c-.39,1.35-1.2,3.12-2.83,3.39l.76.14a7.88,7.88,0,0,1,2.51-3.74l-1.82.28c-1.19,2-1.75,4.19-2.94,6.15l1.86-.5c-.38-.25-2.31-1.75-1.62-2.28s1.3-1.12,1.92-1.71a20.41,20.41,0,0,0,3.07-3.43,2.45,2.45,0,0,0-1.9.37Z"/><path class="cls-2" d="M219,129l-.92,0c-.35,0-1.66.71-.88,1.09,6.3,3.06,6.3,10.76,7.08,16.86s1.63,11.72,4.59,17.1c.32.57,2,0,1.86-.65a107.93,107.93,0,0,1-3.33-19.05c-.46-5.43-2.28-11.5-5.8-15.74-.46-.55-2.28.06-1.79.79,1.88,2.73,3.28,5.72,5,8.52.35.56,2.05,0,1.86-.65-.85-3.11-2-6.29-4.18-8.71-.4-.44-2.13-.07-1.86.66.63,1.69,1.46,3.28,2.09,5l1.72-.75c-1.28-.85-2.53-1.74-3.81-2.59-.41-.27-2,.06-1.73.76A28.77,28.77,0,0,0,222,138.1c.39.6,2.21,0,1.78-.79l-3-5.39c-.31-.57-2.09,0-1.86.65,1.37,4,4.17,7.2,5.17,11.29l1.93-.51c-1-3.75-3.59-6.7-4.66-10.4-.22-.75-2.06-.25-1.93.52,1.14,6.54,4.94,12.17,6.44,18.62a63.2,63.2,0,0,0,6.44,17.37c.25.44,1.22.16,1.51-.06a26.28,26.28,0,0,0,4.56-5c.23-.29.26-.7-.21-.77a50.73,50.73,0,0,1-7-1.51c-.46-.14-1.93.26-1.47,1,1.09,1.69,2.37,3.23,3.47,4.91.35.55,2.16,0,1.86-.65a28.05,28.05,0,0,0-2.58-4.17c-.37-.51-2.12,0-1.86.65.69,1.86,1.39,3.28,3.17,4.25.54.3,1.76,0,1.73-.75l-.18-3.69-1.93.52a5.84,5.84,0,0,0,1.1,2.39c.35.57,1.75.07,1.86-.49s.25-1.25.38-1.87l-1.87.5.51.9c.34.62,2.22,0,1.78-.79-.16-.3-.33-.6-.5-.9-.33-.58-1.75-.05-1.86.5s-.25,1.24-.38,1.87l1.87-.5-1-2.13c-.24-.77-2-.23-1.93.52.06,1.23.12,2.46.17,3.69l1.73-.76a5.25,5.25,0,0,1-2.76-3.77l-1.86.65a21.21,21.21,0,0,1,2.43,3.9l1.86-.65c-1.09-1.69-2.37-3.23-3.47-4.92l-1.47,1c4.38,1.31,8.73.9,2.58,5.43l1.51-.06c-3.35-5.83-5.16-12.19-6.67-18.7-1.37-5.91-5-11-6.07-17l-1.93.52c1.07,3.7,3.68,6.65,4.66,10.39.19.75,2.11.24,1.93-.51-1-4.12-3.79-7.32-5.16-11.3l-1.86.65,3,5.4,1.78-.79a27.8,27.8,0,0,1-3-6.18l-1.72.76c1.28.84,2.53,1.74,3.81,2.58.41.27,2-.06,1.73-.75-.63-1.7-1.46-3.29-2.09-5l-1.86.65c2.14,2.35,3.21,5.42,4,8.44l1.86-.65c-1.75-2.81-3.16-5.8-5-8.53l-1.79.79c3.52,4.23,5,10.1,5.66,15.47.37,3.05.32,6.12.77,9.17a96.64,96.64,0,0,0,2.56,9.87l1.86-.65c-3.73-6.76-4-14.32-5.14-21.77-.82-5.24-1.66-9.9-6.79-12.39-.3.36-.59.72-.88,1.09l.92,0c1-.05,1.56-1.25.23-1.18Z"/><path class="cls-2" d="M233.77,168.17c3.24,1.77,6.84,1.69,10.42,1.52.43,0,1-.3,1.07-.77.69-4.75-6.27-2-8.36-1.07-.84.38-.58,1.34.34,1.25,1.09-.11,2.12-.48,3.2-.62.56-.06,1.73-1,.65-1.33a17.23,17.23,0,0,0-4.66-.78c-.63,0-1.67,1.11-.65,1.34a16.43,16.43,0,0,0,4.64.31l.18-1.39a16.31,16.31,0,0,0-4.39.71c-.68.23-1.25,1.25-.16,1.34,3.14.27,6.29-1.51,8.67-3.4l-1.62-.36a25.8,25.8,0,0,1-1.17,3.11c-.47,1.08,1.44.83,1.85.21.31-.46.54-1,.85-1.42l-1.84-.21c-.48,1.29-1.66.78-2.74.54a11.53,11.53,0,0,0-2.68-.36c-.06.46-.12.93-.17,1.39a6.52,6.52,0,0,1,3.53.58l.83-1.25a17.62,17.62,0,0,0-4.84.73c-.58.19-1.25.94-.39,1.29,2,.81,4.11,1.2,6.1,2,.44.17,1.57-.09,1.54-.72l-.18-3.69c0-1-2-.69-2,.15,0,.46,0,.92.07,1.39,0,1,2,.69,2-.16,0-.46-.05-.92-.07-1.38l-2,.15L242,171l1.54-.72c-2-.81-4.11-1.2-6.1-2l-.39,1.3a16.2,16.2,0,0,1,4.33-.64c.44,0,1.65-.82.83-1.25a9.1,9.1,0,0,0-4.85-.86c-1.09.05-1.49,1.38-.17,1.39,2.52,0,6.17,2,7.43-1.36.42-1.12-1.43-.83-1.84-.21-.32.47-.54,1-.86,1.42l1.85.21a30,30,0,0,0,1.28-3.47c.25-.82-1.3-.61-1.62-.35-1.8,1.43-4.31,3.08-6.72,2.88-.05.44-.11.89-.16,1.34a14.09,14.09,0,0,1,3.86-.62c1.08-.05,1.5-1.45.18-1.39a13.12,13.12,0,0,1-3.7-.21c-.22.45-.43.9-.65,1.34a14.26,14.26,0,0,1,3.72.67l.65-1.34c-1.09.14-2.11.51-3.2.62l.33,1.25c1.32-.59,6-2.84,5.55.11l1.07-.77c-3.09.14-6.3.3-9.1-1.23-.73-.4-2.43.58-1.5,1.1Z"/><path class="cls-2" d="M244.37,168.34a58.2,58.2,0,0,1,7-3.93l-1.34-.1.27,5.53,1.35-.77c-.77,0-2.18-1-3.13-1.15a7.25,7.25,0,0,0-4.12.7c-.41.18-.93.67-.23.84,2.67.68,5,.26,7.63-.38.17,0,1.2-.49.78-.81a8.58,8.58,0,0,0-5.67-1.74c-.3,0-1.7.33-1.28.88a5.85,5.85,0,0,0,2.51,1.81c.38.17,1.7,0,1.74-.58a10.9,10.9,0,0,1,2-5c.45-.73-1.48-.49-1.79,0-.93,1.51-.84,3.2-.77,4.91,0,.59,1.82.12,1.93-.39.27-1.24.38-2.51.74-3.73l-1.92.39c0,.77.07,1.54.11,2.31,0,.38.9.23,1.08.18l5.46-1.65c.86-.26,1.18-1,0-.93a13.69,13.69,0,0,0-6.2,1.89c-.72.45-.18.81.45.74,1.39-.16,2.73-.5,4.12-.66.25,0,1.67-.62.92-.94a5.51,5.51,0,0,0-5.05.38c-.24.11-.48.35-.31.61a4.73,4.73,0,0,0,2.06,1.83c.45.24,1.57,0,1.73-.57,1.22-4.07-2.34-5.82-4.67-2.47-.82,1.19.44,2.17,1.5,2.27a3,3,0,0,0,3.06-2.11l-1.1.63c1.81-.15,3.55-.46,5.38.12.55.18,2.29-.65,1.55-.89-2.25-.71-4.32-.4-6.65-.22a1.35,1.35,0,0,0-1.1.63c-.89,2.14-1.08-2.49,0-.65a4,4,0,0,1,.15,2.95l1.74-.58a3.92,3.92,0,0,1-1.81-1.67l-.31.61,2.32,0,.92-.94c-1.39.17-2.74.5-4.12.66.14.25.29.5.44.75a10.38,10.38,0,0,1,4.73-1.41c0-.31,0-.62,0-.93L251,166.38l1.09.18c0-.77-.08-1.54-.11-2.3s-1.79-.08-1.93.39c-.37,1.22-.48,2.48-.75,3.73l1.93-.4c-.06-1.5-.2-3,.63-4.39h-1.79a11.83,11.83,0,0,0-2.13,5.31l1.74-.57a5.42,5.42,0,0,1-2.26-1.66l-1.29.88a6.81,6.81,0,0,1,4.64,1.45l.78-.8a12.74,12.74,0,0,1-6.19.28c-.07.28-.15.56-.23.85,3.36-1.49,3.42.87,5.74.76.41,0,1.38-.19,1.35-.77-.09-1.84-.18-3.68-.26-5.52,0-.47-1.15-.19-1.34-.1a60.45,60.45,0,0,0-7.41,4.15c-1.1.71.6.87,1.18.49Z"/><path class="cls-2" d="M200.75,86.64c4.1,2.64,6.5,7,9.17,11l1.78-.82c-2.89-3.51-3.65-9.69-8.08-11.74-.5-.23-2.26.12-1.64.94,3.29,4.38,6.78,8.57,9.41,13.4.38.69,2.23,0,1.78-.83-2.34-4.38-5.33-8.35-8-12.54-.4-.62-2-.1-1.86.67,1.26,5.88,6.26,10.07,10,14.45l1.78-.82c-2.48-2.58-3.93-5.89-6.41-8.47-.45-.46-2.13-.16-1.85.67,1.3,4,4,10.48,8.27,12a5.51,5.51,0,0,0,4.22,0,11.33,11.33,0,0,0,2.36-1.61c.57-.81,1.3-.81,2.18,0,.78,1-4.7,1-4.75,1-.6,0-1.68,1-.67,1.27a8.37,8.37,0,0,0,6.49-.83c.84-.41.59-1.22-.32-1.17l-4.6.22.7.9c1-1,2.07-1.92,3.09-2.92.52-.51-.18-1-.7-.9-2.07.34-2.73,1.12-3.27,3.16-.22.85,1.3.48,1.6.31a14.91,14.91,0,0,0,2.85-2.13c.87-.81-1-1-1.6-.49a10,10,0,0,1-2.5,1.83l1.6.3,1.12-1.67-.7-.9c-1,1-2.07,1.93-3.09,2.92-.56.54.21.93.7.9l4.6-.22c-.1-.39-.2-.78-.31-1.17l-4.52.63c-.23.42-.45.84-.67,1.27a19.71,19.71,0,0,0,6.94-.91.68.68,0,0,0,.47-.93c-1.31-2.54-2.8-3.6-5.27-1.83-6.52,4.66-10.58-4.41-12.29-9.63l-1.86.67c2.48,2.57,3.94,5.89,6.41,8.46.55.57,2.39-.11,1.78-.82-3.66-4.28-8.62-8.41-9.84-14.15l-1.86.67c2.67,4.19,5.65,8.16,8,12.55l1.78-.83c-2.64-4.83-6.12-9-9.42-13.39l-1.64.94c4.27,2,5,8,7.81,11.5.51.61,2.32,0,1.78-.82-2.76-4.06-5.23-8.5-9.44-11.22-.66-.42-2.39.49-1.51,1.07Z"/><path class="cls-2" d="M224.46,103.08a60.37,60.37,0,0,1,4.63-6.55l-1.54.3a6.06,6.06,0,0,1,2.72,2.87l.83-.75a17.94,17.94,0,0,0-7,2.94c-.62.48.25.75.65.72,2.26-.2,4.48-1.3,5.1-3.63.18-.66-1.11-.38-1.35-.3-1,.35-1.82.36-2.31,1.4-.41.85,1.17.52,1.5.33a5.9,5.9,0,0,0,2.51-2.23c.44-.8-1.18-.57-1.5-.33a2.74,2.74,0,0,0-1.19,2.45c0,.63,1.94.25,1.93-.52a1.69,1.69,0,0,1,.47-1.33l-1.51-.33a4.47,4.47,0,0,1-1.91,1.69l1.5.32c.25-.53-.34-.16.05-.25a9.74,9.74,0,0,0,1.23-.37l-1.35-.3a3,3,0,0,1-2.92,2.3l.65.72a15,15,0,0,1,5.7-2.29c.23,0,1-.37.83-.75a6.87,6.87,0,0,0-3.12-3.31,1.5,1.5,0,0,0-1.54.31,60.93,60.93,0,0,0-4.88,6.83c-.51.76,1.44.59,1.8.06Z"/><path class="cls-2" d="M230.79,97.43c2.56-1.65,3.63-4.67,6.16-6.3l-1.49.12c3.91,3.14-.79,5.67-4,6.36l.48.78a18.53,18.53,0,0,0,5.31-3.7c.42-.35.07-.64-.37-.62a6.34,6.34,0,0,0-4.34,1.46c-.83.77,1.13.55,1.53.24a14,14,0,0,0,2.32-2.54c.51-.62-1-.44-1.26-.34-1.56.7-3,1.54-3.22,3.38-.09.74,1.47.19,1.73,0,2.12-1.65,4.58-2.82,6.7-4.47.81-.63-.78-.64-1.13-.47a17.18,17.18,0,0,0-2.45,1.6c-1,.68.4.78.95.58a8.51,8.51,0,0,0,4.54-3.31c.49-.74-1.37-.38-1.66-.12-.57.52-1.21,1-1.77,1.47s.18.67.61.61a5.59,5.59,0,0,0,4.18-2.49c.43-.73-1.49-.48-1.79,0a2.66,2.66,0,0,1-2.09,1.51c.2.2.41.4.61.61.57-.52,1.21-1,1.78-1.47l-1.66-.12A6.51,6.51,0,0,1,237,92.8l.95.59A16.1,16.1,0,0,1,240,92l-1.13-.47c-2.13,1.66-4.59,2.82-6.71,4.48h1.72a2.48,2.48,0,0,1,2-2.42l-1.26-.34a13.23,13.23,0,0,1-2.07,2.29l1.53.24a2.35,2.35,0,0,1,2-.69c-.12-.21-.25-.42-.38-.63a16,16,0,0,1-4.51,3.24c-1.1.43-.35,1,.48.78,3.55-.77,10.33-4.09,5.52-8a1.49,1.49,0,0,0-1.49.13c-2.56,1.64-3.63,4.67-6.16,6.3-1.09.7.61.84,1.18.48Z"/><path class="cls-2" d="M119.39,107.56c.48-.38-1.46-.15-1.66-.08a8.64,8.64,0,0,0-2.42,1.12c-1.92,1.21-2.57,4.26-3.13,6.22-2.16,7.52-2.19,15.71-1.48,23.43,0,.35,1.86-.08,1.93-.52.94-5.38,1-10.85,1.61-16.27.44-3.62.55-5.81,3.26-8.35a2.72,2.72,0,0,0,1.19-2.91.18.18,0,0,0-.16-.1,4.67,4.67,0,0,0-4.91,2.07c-.12.16,1.57,0,1.9-.35a21.46,21.46,0,0,0,3-4.76c.17-.37-1.6.06-1.82.26a10.91,10.91,0,0,0-3.5,5.8c-.11.49,1.62-.11,1.82-.27a6.11,6.11,0,0,0,2.28-2.5l-1.9.35a19.92,19.92,0,0,0-2.55,4.74c-.12.36.91.12,1,.09,2.78-.69,4-2.14,5.28-4.81.13-.26-1.66-.08-1.9.36-2.16,3.82-4.07,7.41-4.53,11.84,0,.26,1.78-.06,1.92-.44,1.14-3.07,1.64-6.3,2.78-9.37.14-.38-1.67,0-1.9.36-3.88,5-2.78,11.4-2.88,17.3,0,.32,1.78-.09,1.92-.44a31.62,31.62,0,0,0,1.72-12.63c0-.29-1.91,0-1.94.52-.28,5.57-1.16,11.08-1,16.67l1.93-.52c-.42-7.38-2.75-18,2.9-24,.38-.4-1.44-.1-1.74.18a17.58,17.58,0,0,0-3.13,3.93c-.2.31,1.59-.09,1.82-.27A11.52,11.52,0,0,0,119,108c.11-.41-1.14-.06-1.28,0-4.94,1.68-5.33,7.82-5.66,12.27-.26,3.48-.2,7-.28,10.45a42.72,42.72,0,0,1-.31,4.53,8.28,8.28,0,0,1-.51,2c-.41,1.09.64-1.14.61-1.69,0-.31-1.18,0-1.29.07-1.82.57-4,.12-5.72,1.07-2.14,1.2-1.7,2.42-1.59,4.73.23,4.81,7.53-2.47,8.24-3.46.21-.31-1.51.07-1.69.17l-2.7,1.52c-1.81.72-1.8,1,0,.76a16.67,16.67,0,0,0,3.32-2.78c.22-.21,0-.28-.24-.28a10.11,10.11,0,0,0-6.36,2s-.38.25-.18.33a4.48,4.48,0,0,0,5.5-1.6c.09-.1-.08-.17-.15-.18-2.24-.24-7.06,1.26-4.9,4.1,1.69,2.23,4.44-4,4.57-4.36s-.21-.2-.32-.19c-2.49.08-5.52.85-4.66,4,0,.11.25.12.33.11l.46,0c.37,0,1.42-.12,1.58-.55a11.83,11.83,0,0,0,.78-3.35c0-.37-1.73.2-1.91.44-1.55,2.05-.77.51-1.73,2.39l1.91-.44c-1.22-2.18-5.38-2.07-7.67-2.51-.33-.06-1.78.13-1.76.62a25.63,25.63,0,0,1-.24,4.63c0,.11.3.11.33.11a18.67,18.67,0,0,0,6.9-1.39c.25-.08,1-.59.31-.56-1.88.07-8.07.61-3.13.37.15,0,1.8-.3,1.6-.63a4.82,4.82,0,0,0-3.53-2.71c-.37-.09-1.7.13-1.76.62-.31,2.58,1.9,3.12,4,3.61.24,0,1.92-.21,1.76-.62-.63-1.65-1.81-2.07-3.5-2.25-.32,0-1.79.11-1.76.62s0,1,.07,1.55c0,.3,2,0,1.93-.51s0-.73,0-1.1-2,0-1.93.52,0,.73.05,1.09,2,0,1.93-.51,0-1-.07-1.56l-1.77.62a2.89,2.89,0,0,1,3.17,2l1.77-.62c-2-.46-4-1-3.7-3.41l-1.76.62,3.19,2.51,1.6-.63-3.23.15c-.26,0-2,.64-1.43.73a14.85,14.85,0,0,0,3.43.31c1.8-.26,1-.66-2.28-1.22a20.19,20.19,0,0,0,0-2.91l-1.76.62c1.77.34,6.4.64,7.33,2.31.23.41,1.74-.1,1.92-.44a26.52,26.52,0,0,1,1.73-2.39l-1.92.44a8.76,8.76,0,0,1-.75,3.19l1.58-.56c-.86,0,1.68-4.17.15-.72-.59.49-.69.77-.27.86l2.07-2.11a15.72,15.72,0,0,1-3.31,2.34c-.81.48,1.15.19,1.47,0l5.39-3-1.68.17L106,141.45c-.92,1-1.27,1-1.06-.12-.38-.55-.12-2.48-.15-3.17-.08-1.51,4.83-1.82,6.15-2.24l-1.29.07c0,.77.07,1.54.11,2.3,0,.22.69.09.78.07,3.81-.72,3.14-6.19,3.2-9.1.12-4.91-1.52-18.84,4.64-20.94h-1.27a11.09,11.09,0,0,1-3.78,6.1l1.82-.27c-1,1.58,2-4.87.44-2.73a14.33,14.33,0,0,0-1.59,2.8,19.8,19.8,0,0,0-1.22,6.05c-.47,4.86.23,9.78.51,14.63,0,.3,1.94,0,1.93-.52-.12-5.58.76-11.1,1.05-16.67l-1.94.52a31,31,0,0,1-1.68,12.47l1.91-.44c.1-5.83-1-12.23,2.85-17.14l-1.9.36c-1.15,3.06-1.64,6.3-2.78,9.37l1.91-.44c.47-4.43,2.35-7.88,4.5-11.68l-1.9.36c-.34.72-2,2.31-2.07,2.68a15.86,15.86,0,0,1,2.11-3.41c.11-.17-1.6-.1-1.9.35L113.28,113l1.82-.27a10.14,10.14,0,0,1,3.34-5.61l-1.82.26a21.23,21.23,0,0,1-3,4.76l1.9-.35a1.43,1.43,0,0,1-.62,2.27,11.43,11.43,0,0,0-.91.93,8.77,8.77,0,0,0-1.39,5.13,152.76,152.76,0,0,1-1.9,18.1l1.93-.52a77.32,77.32,0,0,1,.43-18.43c.45-3.09,1.36-10.57,5.43-11.43a2.35,2.35,0,0,0,1.18-.53c.4-.38-1.44-.06-1.74.18l-.29.22c-.38.3,1.39.1,1.75-.18Z"/><path class="cls-2" d="M96.83,138.48c-2.08-.1-3.49-1.46-5.26-2.35a1.28,1.28,0,0,0-1.38.11c-1.67,1.28-3.17,2.63-3.36,4.82-.06.6.73.72,1.15.59,1.75-.54,3.37-1.81,5.18-2.06,1-.15,1.52-1.48.17-1.42l-3.23.16c-.71,0-1.57.91-.64,1.36a21.56,21.56,0,0,0,4.9,1.21l.42-1.41c-2.16,0-4.13-.55-6.28-.13-.84.16-1.11,1.17-.15,1.37a19.86,19.86,0,0,0,4.87.24c.06-.47.12-.95.17-1.42a18.84,18.84,0,0,0-4.84.73c-.35.11-1.14.62-.71,1.09,1.57,1.67,3.76,1.92,6,1.88.68,0,1.6-1,.64-1.36a15.44,15.44,0,0,0-6.07-1.17c-1.1,0-1.48,1.42-.17,1.42,1.86,0,3.7.2,5.55.19.9,0,1.56-1.18.42-1.41l-5.59-1.12c-.76-.15-2,1.09-.9,1.36,2.07.5,4.34,1.78,6.32.47a.64.64,0,0,0,.24-.87,5,5,0,0,0-3.87-2c-.67,0-2,1-.89,1.36.94.29,1.88.49,2.81.78s2.29-.86,1.12-1.3c-3.66-1.38-7.23-2.78-11.2-2.31-.56.07-1.54.69-.83,1.27,2.26,1.84,5,2.64,7.73,3.42.65.19,2.14-.45,1.3-1.21a14.63,14.63,0,0,0-4.48-3.12c-.65-.25-2.17.54-1.31,1.21a8.44,8.44,0,0,0,5.11,1.77c.93,0,2-1.37.67-1.41a7,7,0,0,1-4.29-1.47L84.81,139a13.38,13.38,0,0,1,4.11,2.93l1.31-1.21c-2.63-.75-5.21-1.48-7.36-3.24L82,138.74c3.64-.44,6.92.94,10.25,2.19.37-.43.75-.86,1.12-1.3-.93-.29-1.88-.49-2.81-.79l-.89,1.36a3.09,3.09,0,0,1,2.76,1.41l.24-.87c-.71.47-3.09-.69-3.91-.89l-.89,1.36,5.59,1.11.42-1.41c-1.85,0-3.69-.2-5.55-.19-.05.47-.11.94-.17,1.42a13,13,0,0,1,5.12,1.05c.22-.45.43-.9.65-1.36-1.56,0-3.21-.09-4.36-1.31l-.71,1.09a16.66,16.66,0,0,1,4.32-.64c1.1-.06,1.49-1.48.17-1.42a17.27,17.27,0,0,1-4.37-.23c-.06.45-.11.91-.16,1.37,1.88-.37,3.85.19,5.75.21.91,0,1.54-1.16.42-1.41a19.87,19.87,0,0,1-4.45-1.11c-.22.46-.43.91-.65,1.36l3.23-.15c0-.47.11-1,.17-1.42-2.09.29-3.71,1.54-5.7,2.15l1.15.59c.17-1.79,1.35-2.76,2.69-3.78l-1.39.11c2.07,1.06,3.67,2.53,6.08,2.65.94,0,2-1.35.67-1.41Z"/><path class="cls-2" d="M173.35,68.29c.7,2.82,8.83.78,10.45.23,5.81-2,10.1-7.32,14.42-11.37l-1.85.33c-.64,7.74-13.57,15.5-20.62,13.83l-1.21.78a84.23,84.23,0,0,0,9.89-1c.15,0,1.63-.56,1-.75a28.31,28.31,0,0,0-8.74-1c-.35,0-2,.78-1,.8,8.57.25,14.17-3.73,20.82-8.69.43-.32.07-.48-.33-.44-6.67.77-13.37,5.78-17.89,10.5-.47.5,1.07.23,1.22.17,6.22-2.53,10.75-7.19,15.2-12.08.42-.46-1.43-.22-1.75.13-4.12,4.52-8.33,9.13-14.13,11.48l1.22.17a41,41,0,0,1,5.5-4.68c2.43-1.78,7-3.47,8.32-4.46-2.06,1.53-4.08,3.09-6.25,4.47a17.6,17.6,0,0,1-8,2.63c-3.6.34,3.46,1.53,4.23,1.76l1-.75a80.11,80.11,0,0,1-9.41.9c-.21,0-1.88.62-1.21.78,8.28,2,23.4-6.13,24.15-15.11,0-.45-1.68.17-1.85.32-2.17,2-4.25,4.17-6.45,6.18a35.4,35.4,0,0,1-3.95,3.07c-1.83,1.24-10.06,4.16-10.78,1.24-.11-.45-2.05,0-1.93.52Z"/><path class="cls-2" d="M174,70.21c5.95,4.82,18.12-6.13,22.45-9.55.58-.46-.22-.69-.62-.62-4,.74-6.3,3.78-9.7,5.75-1.08.63.41.82,1,.61,3.92-1.46,6.64-4.21,9.42-7.25.56-.61-1.08-.42-1.26-.35a8.71,8.71,0,0,0-3.1,1.74l1.67.13c1.84-2,5.38-4.21,5.3-7.11,0-.88-1.13-2-1.61-2.57q.48-1.74.48,0a7.41,7.41,0,0,1-.38,2.61l1.93-.39c-.07-1.54-.15-3.07-.22-4.61,0-.22-.44-.26-.58-.25l-.46,0c-.41,0-1.21.16-1.35.65a14.42,14.42,0,0,0-.2,5.67c.05.58,2,.17,1.93-.51-.12-2-.26-3.29-1.66-4.65-.36-.34-2.11,0-1.87.62l1.05,2.72,1.93-.51a9.2,9.2,0,0,0-3.57-3.26c-.44-.27-2.17.45-1.67.81a16.81,16.81,0,0,1,4.37,4.41c.29.45,2,0,1.86-.63-.33-1.22-1.43-3.73.54-4.52l-1.33-.09c.09,1.84.18,3.68.26,5.52,0,.56,2,.19,1.94-.51l-.27-5.53c0-.47-1.14-.18-1.34-.1-2.91,1.16-2.49,2.93-1.73,5.75l1.87-.62a16.66,16.66,0,0,0-4.37-4.41L193,50a7,7,0,0,1,3.19,2.88c.33.56,2.16.08,1.93-.51L197,49.64l-1.86.62c1.43,1.39,1.42,2.64,1.53,4.43l1.93-.51a14.36,14.36,0,0,1,.2-5.43l-1.35.65s.07,3.69.1,4.33,1.8.09,1.93-.39c1.09-4.09-.68-6.71-4.52-4.13-.13.09-.46.29-.37.5.64,1.61,1.89,2.76,2.54,4.37S193,59.63,192,60.67c-.56.59,1.32.43,1.66.13l2.3-1.29-1.27-.36c-2.48,2.73-4.84,5.22-8.37,6.54l1,.6c2.66-1.54,4.8-3.68,7.22-5.58q-1.89,1.49-3.83,2.89c-3,2.16-11.26,8.82-14.91,5.88-.5-.41-2.27.34-1.79.73Z"/><path class="cls-2" d="M197.36,48.51c-1.13-1.42-3.56-2.42-3.37-4.53l-1.05.81a16.43,16.43,0,0,0,4.61-1.26L196.13,43a17,17,0,0,1-.62,4.92l1.91.07c-.08-1.53-.11-3.3-1.22-4.48-.45-.47-1.91-.37-1.87.5a16.76,16.76,0,0,0,.7,4.78l1.93-.52c-.65-1.63-1.6-3.35-3.35-4-.66-.23-1.87.28-1.43,1.12.6,1.15.81,2.16,2.27,2.08.39,0,1.08-.32,1.06-.81s0-.92-.07-1.38c-.05-1.06-2-.79-2,.13l.06,1.38L194.6,46l-.46,0,.81.31a7.51,7.51,0,0,1-1-1.79l-1.43,1.11c1.31.47,2,1.92,2.52,3.13.37.9,2.26.4,1.93-.52a15.09,15.09,0,0,1-.66-4.38l-1.87.5c.94,1,1,2.44,1,3.72.05.94,1.69.89,1.92.07a17.94,17.94,0,0,0,.72-5.3c0-.77-.88-.76-1.42-.55a12.78,12.78,0,0,1-3.58,1c-.44,0-1,.31-1.06.81-.24,2.6,2.19,3.55,3.57,5.29.58.73,2.41-.06,1.76-.88Z"/><path class="cls-2" d="M195.32,42.79c-.41-1.38-.77-2.78-1.22-4.15-.1-.31-1-2-.67-2.17a5.2,5.2,0,0,1,2.72-.8l-.84-.44c0,2.74-1.48,5.17-1.47,7.92l1.94-.38c-.08-2.36.11-4.65-.8-6.89-.26-.63-1.62-.25-1.87.23a10.26,10.26,0,0,0-.74,5.4L194.3,41a7.79,7.79,0,0,0-.61-3.2l-1.86.65c.43.55.57,1.24,1,1.79s2.22-.06,1.79-.76-1-1.47-1.49-2.24c-.32-.52-2.12,0-1.87.64a17.27,17.27,0,0,0,2.1,3.72c.41.57,1.64,0,1.86-.5A52.22,52.22,0,0,1,197.68,36l-1.87.08a43.8,43.8,0,0,1-1.49,7.46c-.22.7,1.72.44,1.94-.23a44.79,44.79,0,0,0,1.49-7.46c.12-.83-1.62-.34-1.87.09a52.55,52.55,0,0,0-2.59,5.34l1.87-.49a15.67,15.67,0,0,1-1.95-3.48l-1.87.65c.47.76,1,1.47,1.5,2.23l1.79-.76c-.43-.56-.58-1.24-1-1.8s-2.16,0-1.86.64a7.79,7.79,0,0,1,.61,3.2c0,.66,2,.25,1.93-.52a9.32,9.32,0,0,1,.62-4.82l-1.87.23c.91,2.23.72,4.53.79,6.89,0,.63,1.94.25,1.94-.38,0-2.74,1.48-5.17,1.46-7.92,0-.44-.49-.46-.84-.43a8,8,0,0,0-5,2c-.09.08-.27.29-.19.43a33.78,33.78,0,0,1,2.15,6.36c.21.7,2.14.17,1.94-.52Z"/><path class="cls-2" d="M195,36.07a13.89,13.89,0,0,1,.08-3.09,3.77,3.77,0,0,0,.17-1.1l-.06-1.36c-.05-1-2-.73-2,.15.07,1.38.13,2.76.2,4.14,0,1,2,.73,2-.14,0-.16,0-.31,0-.46l-2,.14.06,1.38c.05,1,2,.73,2-.14l-.06-1.38c-.05-1-2-.73-2,.14,0,.15,0,.31,0,.46l2-.14c-.07-1.38-.13-2.77-.2-4.15l-2,.15c.09,1.87-.28,3.65-.19,5.54.05,1,2,.73,2-.14Z"/><path class="cls-2" d="M127.42,78.49a16.27,16.27,0,0,0-6,2.75c-4.09,2.58-8.37,3.44-13.12,3.71-.43,0-1.56.58-.89,1.06,5.85,4.2,14.88,1.4,20.19-2.46.68-.49.2-1-.48-.89-4.7.4-9,2.53-13.71,3-1,.09-1.59,1.21-.25,1.14l6-.29c.74,0,1.68-1,.49-1.15a61.14,61.14,0,0,0-8.34-.52c-.48,0-2.09.8-1,1.13a14.69,14.69,0,0,0,9.29,0c.68-.25.78-.94,0-1a68.17,68.17,0,0,0-9.48,0c-.49,0-1.73.91-.71,1.12,4.24.87,9.34,1.09,13.15-1.27.42-.26.5-.71,0-.87a6.75,6.75,0,0,0-6.85,1.55c-.56.5.2.82.66.76,3.35-.49,6-2.35,8.55-4.45.6-.49-.24-.8-.66-.76a13.43,13.43,0,0,0-8.14,3.51c-.53.51.19.82.66.75,3.66-.49,6.7-2.61,9.46-4.95.57-.49-.22-.82-.66-.76-2.65.4-4.66,1.49-5.54,4.13-.11.33.38.47.6.47,3,0,4.8-1.56,7-3.45.57-.49-.22-.81-.66-.75A6.67,6.67,0,0,0,123,81.82a.4.4,0,0,0,.2.74c2.34.47,5.68-.16,4.66-3.27-.22-.67-1.64-.26-1.87.22a7.19,7.19,0,0,0-.85,3c0,.46.52.47.85.46a2.24,2.24,0,0,0,1.8-.89c.62-.69-.45-.8-.92-.71-3.44.67-6.61,1.46-9.55,3.41-.71.47-.18,1,.49.89A27.08,27.08,0,0,0,126,83.27c.83-.36.63-1.1-.27-1a8.8,8.8,0,0,0-5,2c-.47.39,0,.71.41.76a7.75,7.75,0,0,0,7-2.53c.76-.88-1.11-.89-1.56-.37a4.93,4.93,0,0,1-4.75,1.74l.41.77,3.18-1.2-.27-1A23.43,23.43,0,0,1,118,84.49l.49.89c2.66-1.77,5.54-2.41,8.61-3l-.92-.7c-.58.63.63.08,0,.12l.85.45a4.26,4.26,0,0,1,.72-2.65l-1.87.22.89,1.23-.66-.76-.89.76q-3.41,2.82.14-.39l-.65-.76c-2.21,1.87-4.7,3.78-7.65,4.18l.66.76a10.18,10.18,0,0,1,6.33-2.74l-.66-.75c-2,1.62-4.09,3.29-6.75,3.68l.66.75,4.12-.82,0-.87c-3.05,1.9-7.39,1.5-10.76.8l-.7,1.13a65.64,65.64,0,0,1,9,0c0-.33,0-.67,0-1a11.59,11.59,0,0,1-7.34-.18c-.32.38-.63.76-1,1.13a61.34,61.34,0,0,1,8.34.52l.49-1.15-6,.29c-.08.38-.17.76-.25,1.14,4.68-.44,9-2.57,13.71-3l-.48-.89c-4.7,3.42-12.3,5.83-17.45,2.13l-.89,1.06a32.55,32.55,0,0,0,9-1.47c3.4-1.22,6.54-4.38,10-5,.94-.17,1.57-1.38.25-1.15Z"/><path class="cls-2" d="M107,85.86c-3.07,0-4.17-2.67-6.48-4.15l.16.61c.89-1.7,2.89-2.32,4-3.88l-1.88.17a22.54,22.54,0,0,0,1.76,7.77c.31.72,1.86.42,1.94-.35a5.23,5.23,0,0,0-3.23-5.37c-.44-.21-1.77-.12-1.73.61a8.3,8.3,0,0,0,1.21,4.43c.39.59,2.12.09,1.85-.67-.69-2-2.24-3-4.07-3.78-.46-.21-2,0-1.72.79a5.19,5.19,0,0,0,4.94,3.88c.32,0,1.89-.48,1.24-1.07L103,83.1c-.54-.49-2.31,0-1.77.82a4.66,4.66,0,0,0,2.07,1.88c.69.33,2.42-.62,1.5-1.07A4,4,0,0,1,103,83.1l-1.77.82,1.93,1.76,1.23-1.07c-1.94,0-3.11-1.34-3.7-3.09L99,82.31c1.59.72,3,1.5,3.65,3.24l1.85-.67a7.07,7.07,0,0,1-1-3.78l-1.73.62a4.36,4.36,0,0,1,2.79,4.49l1.94-.35a22.54,22.54,0,0,1-1.76-7.76c-.05-.88-1.63-.19-1.88.17-1.09,1.57-3,2.1-4,3.89a.45.45,0,0,0,.16.61c1.36.87,2.2,2.2,3.45,3.18a6.39,6.39,0,0,0,4.34,1.22c1.06,0,1.52-1.34.2-1.31Z"/><path class="cls-2" d="M102,80.41a43.17,43.17,0,0,1-6.3-6.16l-.12.55a8.38,8.38,0,0,0,3.26-3.67l-1.93.38a42.25,42.25,0,0,1,2.68,7.72c.16.69,2,.19,1.93-.52a7.65,7.65,0,0,0-3.1-5.51c-.42-.32-1.8-.18-1.87.5a9.07,9.07,0,0,0,2.23,6.62c.35.45,2.09,0,1.86-.64a11.57,11.57,0,0,0-3.52-4.57l-1.79.76a28.46,28.46,0,0,0,4,3.13c.54.34,2.33-.44,1.54-.94a27.08,27.08,0,0,1-3.72-3c-.51-.47-2.32.27-1.79.76a11,11,0,0,1,3.38,4.33l1.86-.64a8.33,8.33,0,0,1-2.08-6.1l-1.87.5a7.23,7.23,0,0,1,3,5.27l1.93-.52A42.25,42.25,0,0,0,98.8,71c-.31-.68-1.73-.17-1.94.38A7.27,7.27,0,0,1,94,74.47a.37.37,0,0,0-.12.54,42.59,42.59,0,0,0,6.29,6.16c.56.42,2.34-.35,1.8-.76Z"/><path class="cls-2" d="M95.92,71.26c-1.79-.09-2.93-1.75-4-3-.86-1-1.17-.94-2.42-.88l.65.73a9.44,9.44,0,0,1,3.21-1.77L92,66.21c1,2,1.16,4.33,2.16,6.36.32.65,2.18.16,1.93-.52a13.17,13.17,0,0,0-3.54-5c-.45-.42-2-.1-1.86.64a9.54,9.54,0,0,0,2.13,4.65c.37.5,2,0,1.86-.65-.78-3.9-4.09-6.56-2.83-10.8l-1.93.38c.13,1.08.47,2.12.61,3.2.09.7,2,.22,1.93-.52,0-.28,0-.56,0-.84,0-.66-2-.25-1.93.52,0,.12,0,.25,0,.38,0,.65,2,.25,1.93-.52,0-.13,0-.25,0-.38l-1.93.52c0,.28,0,.56,0,.84l1.93-.52c-.13-1.08-.47-2.12-.61-3.2-.1-.74-1.78-.14-1.94.37-1.29,4.37,2,7.06,2.84,11.09l1.86-.64a9.07,9.07,0,0,1-2-4.39l-1.86.64a12.41,12.41,0,0,1,3.4,4.79l1.93-.52c-1-2-1.16-4.33-2.15-6.36-.24-.48-1-.32-1.36-.16a11.69,11.69,0,0,0-4,2.26c-.56.53.22.75.66.73.94,0,2.15,2,2.9,2.67a4.68,4.68,0,0,0,3,1.2c.76,0,2-1.07.74-1.13Z"/><path class="cls-2" d="M129.51,77c-1,2.3.12,5.41.77,7.68.24.85,2,.29,1.93-.51l-.33-6.91c0-.37-.63-.4-.86-.39l-.47,0a1.15,1.15,0,0,0-1.07.73,7.6,7.6,0,0,0,1.32,6.72c.42.64,1.68.08,1.86-.5a18.42,18.42,0,0,0,.61-6.49c0-.95-2-.59-2,.18.08,2.79,0,5.35,1.82,7.62.4.5,1.56.21,1.81-.33,1.3-2.87.35-6.1.09-9.11,0-.36-.62-.4-.87-.39l-.46,0c-.33,0-1.09.29-1.08.73.06,2.61,0,4.88,1.34,7.18.36.6,1.79.13,1.87-.5a32.13,32.13,0,0,0,.19-5.55l-1.94.36c.14,2.39.41,4.36,2.21,6,.46.43,1.78.26,1.86-.5a50.16,50.16,0,0,0,.09-7.85c-.05-.94-2-.59-1.95.18.07,2.83-.07,5.59,1.38,8.11.38.65,1.71.07,1.86-.5a24,24,0,0,0,.57-7.42c0-.94-2-.59-2,.18.08,2.85,0,5.35,1.31,8,.36.73,1.77.38,1.94-.35.68-3,.24-5.93,0-8.94-.05-.75-2-.37-1.94.35.08,2.93,0,5.73,1.33,8.41.36.71,1.8.41,1.94-.35a41.05,41.05,0,0,0,.45-9.72c0-.94-2-.59-1.94.19.1,3.24,0,6.3,1.37,9.33.34.78,1.74.34,1.94-.35,1.51-5.21.91-10.56.62-15.89-.05-.82-1.81-.28-1.94.35-1,5,.41,10,1.64,14.86.21.84,1.78.28,1.94-.35,1.55-6.1.4-12.46,0-18.64-.05-.86-1.76-.21-1.94.35-1.8,5.79-.07,13.5,2.82,18.66.38.69,1.67,0,1.86-.5,2.18-6.2-.47-13.23-.94-19.52,0-.75-1.69-.31-1.88.19-2.22,6,2,13.1,4.06,18.6.31.83,2,.3,1.93-.52-.29-5.94-.69-11.76-2.68-17.41-.29-.83-1.74-.28-1.94.35-1.78,5.51,2.05,12.9,4.61,17.64.38.7,1.89,0,1.86-.67-.21-4.22-.1-9.54-3-12.93-.49-.57-1.92-.13-1.85.66.37,4.39,1.58,8.92,4.36,12.41.38.48,1.89.21,1.86-.5-.13-3.7-.1-7.27-2.41-10.36-.45-.6-2-.1-1.86.67A17.35,17.35,0,0,0,156,79.43c.51.55,1.92.15,1.86-.66a86.55,86.55,0,0,0-1.39-9.63c-.15-.77-1.94-.35-1.94.35,0,3.66,1.89,6.87,3.26,10.17.31.75,1.8.36,1.94-.35a31.75,31.75,0,0,0,0-8.49c0-.36-.62-.39-.86-.38l-.46,0c-.47,0-1.12.36-1.07.9a23.84,23.84,0,0,0,1.71,6.85c.32.77,1.78.34,1.94-.35.69-3,.24-5.93,0-8.94,0-.37-.63-.4-.87-.39l-.46,0c-.36,0-1,.29-1.08.74a13.06,13.06,0,0,0,2.35,9c.43.58,1.72.13,1.87-.5.62-2.71.27-5.28.07-8,0-.36-.62-.4-.86-.39l-.46,0c-.49,0-1.1.35-1.07.9a11.42,11.42,0,0,0,1.75,6.07c.4.62,1.7.1,1.86-.5a11.81,11.81,0,0,0-.36-7.54c-.3-.83-2-.3-1.94.52a12.37,12.37,0,0,0,1.77,6.53c.4.62,1.73.11,1.87-.5.62-2.71.27-5.28.07-8-.06-.79-2-.34-1.93.52a23.16,23.16,0,0,0,1.25,6.86c.3.81,1.76.31,1.94-.35.67-2.37.31-4.67.12-7.09-.06-.8-2-.34-1.93.51.17,3.19.46,6.16,2.34,8.81.36.51,1.61.22,1.81-.33,1.18-3.24.28-6.37-.86-9.52-.3-.83-2-.31-1.93.52A21.31,21.31,0,0,0,169.22,77c.15.24.55.24.79.23l.46,0c.35,0,1.06-.29,1.07-.73a35.59,35.59,0,0,0-1.46-11.18c-.23-.84-2-.3-1.93.52A24,24,0,0,0,171,76.4c.32.56,1.88.15,1.86-.5-.08-3.11-.06-6-1.35-8.88-.34-.76-2.2-.28-1.93.52.67,2,1.46,3.92,2.13,5.9.29.84,2,.3,1.93-.52l-.09-1.84-1.93.52c0,.3,0,.61.05.92,0,.78,2,.35,1.93-.52,0-.31,0-.61,0-.92,0-.78-2-.35-1.93.52l.09,1.84,1.93-.52c-.67-2-1.45-3.92-2.13-5.9l-1.93.52c1.25,2.81,1.25,5.5,1.34,8.54l1.86-.5a23.19,23.19,0,0,1-2.74-10.33l-1.93.52c.39,1.4,1.61,10.15,2.29,10.11-1.13.06-2.09-8.62-2.16-9.62l-1.93.52c1,2.82,2,5.87,1,8.85l1.8-.33c-1.84-2.59-2-5.46-2.19-8.51L165,67.3c.18,2.33.5,4.5-.13,6.77l1.93-.35a23.28,23.28,0,0,1-1.25-6.87l-1.93.52c.19,2.63.5,5.1-.09,7.68l1.86-.5c-1.32-2-1.48-3.89-1.61-6.23l-1.94.52a11.37,11.37,0,0,1,.35,7.2l1.86-.5a10.65,10.65,0,0,1-1.59-5.77l-1.07.9c-.19,0-.18,5.9-.49,7.28l1.86-.5c-.67-.91-2.7-7.64-3-7.62-.82,0-.4,7-.68,8.21l1.94-.35a23.55,23.55,0,0,1-1.72-6.84l-1.07.9c-.16,0-.2,6.34-.47,7.74l1.94-.35c-1.31-3.15-3.24-6.33-3.24-9.83l-1.94.35a84.4,84.4,0,0,1,1.38,9.62l1.86-.66a16.72,16.72,0,0,1-4.08-9.35l-1.85.67c2.2,2.94,2.12,6.2,2.25,9.73l1.86-.5c-2.71-3.4-3.85-7.85-4.21-12.11l-1.85.66c2.78,3.25,2.64,8.59,2.85,12.64l1.85-.67c-2.44-4.51-6.13-11.79-4.44-17l-1.94.35c2,5.65,2.39,11.47,2.68,17.41l1.93-.52c-1.88-5.11-6.22-12.39-4.16-17.93l-1.88.18c.47,6.21,3.07,13.09.92,19.18l1.87-.5c-2.79-5-4.37-12.51-2.65-18l-1.94.35c.37,6.09,1.49,12.3,0,18.3l1.94-.35c-1.2-4.74-2.64-9.62-1.63-14.53l-1.93.35c.29,5.25.84,10.45-.64,15.56l1.94-.35c-1.3-2.93-1.26-5.81-1.36-9l-1.94.19a41,41,0,0,1-.46,9.71l1.94-.35c-1.32-2.59-1.23-5.2-1.31-8.08l-1.94.35c.2,2.9.61,5.75,0,8.61l1.94-.35c-1.22-2.47-1.22-4.87-1.29-7.62l-2,.18a24.33,24.33,0,0,1-.56,7.42l1.86-.5c-1.35-2.33-1.15-4.88-1.21-7.47l-1.95.18a51.55,51.55,0,0,1-.08,7.86l1.86-.5c-1.71-1.6-1.93-3.55-2.06-5.75,0-.75-2-.37-1.94.35a32.17,32.17,0,0,1-.19,5.55l1.86-.5a8.21,8.21,0,0,1-1.14-5.12c-.52-.91-1-1-1.42-.14.21,2.48,1,5.08-.07,7.48l1.8-.33c-1.71-2.15-1.58-4.38-1.65-7l-2,.18a18.42,18.42,0,0,1-.61,6.49l1.86-.5c-.36-.54-1.79-5.37-2-5.36-1.07,0-.33,5.85-.3,6.51l1.93-.51c-.55-1.92-1.76-5.08-.87-7,.44-1-1.5-.86-1.83-.16Z"/><path class="cls-2" d="M135.33,54.07c-.77,1.75-.42,3.15.18,5,.25.76,2,.44,1.94-.34-.08-2.7,0-5.54-3-6.43-.5-.15-1.47.06-1.54.71a16.08,16.08,0,0,0,.83,7.53c.27.75,2,.45,1.94-.34,0-2.35.22-4.88-.8-7.07-.32-.68-1.34-.46-1.77,0-1.84,1.92-2.36,6.07.22,7.69,3.42,2.14,3.85-5.56,3.91-6.7l-1.94.34a12.66,12.66,0,0,0,2.67,6c.45.61,1.71.17,1.86-.5a31.11,31.11,0,0,0,.52-8.34l-2,.16c.17,3.19.37,6.22,2.79,8.52A1.22,1.22,0,0,0,143,60c1.57-3.4,1.16-6.91.94-10.55-.06-.92-1.77-.26-2,.34a8.66,8.66,0,0,0,1.85,8.1,1.19,1.19,0,0,0,1.87-.5,27.12,27.12,0,0,0,.52-8.34c0-.48-.45-.62-.89-.6l-.46,0c-.34,0-1.09.31-1.07.76.07,1.36.9,10.46,4.43,7.7,2.28-1.78,1.46-7.21-.61-9-.42-.35-1.23-.07-1.55.28-1.91,2.11,1.93,6.65,3.22,8a1.23,1.23,0,0,0,1.81-.32c1.39-2.64,1.81-7.85-1.68-9-.47-.15-1.52.07-1.54.71a9.77,9.77,0,0,0,3.86,8.6,1.26,1.26,0,0,0,1.66-.44c1.83-3.24,1-7.52-2.6-8.94-.45-.17-1.53.09-1.54.72,0,3.4,2,7.16,5.4,8.16.49.14,1.5-.06,1.54-.71.21-3.26-.42-6-3.35-7.71-.56-.33-1.84,0-1.71.81a10.74,10.74,0,0,0,5.18,7.43c.59.38,1.79,0,1.71-.8-.23-2.5-.68-4.29-2.78-5.7-.54-.37-2.3.26-1.64,1a24.09,24.09,0,0,1,3.47,4.91c.4.71,1.95.1,1.85-.68a7.23,7.23,0,0,0-2.14-4.68c-.42-.45-1.9-.29-1.86.5s.08,1.85.13,2.77l1.86-.5c-1.89-2.13-3.83-3.81-6.73-4.12a1.2,1.2,0,0,0-1.32.76,10.53,10.53,0,0,0,.93,8.15c.39.73,1.69.07,1.86-.5,1.78-5.74-4.21-7.15-8.62-6-4.1,1.1-1.73,7.75,1.18,8.81.43.16,1.58-.07,1.54-.71-.2-3.83-.76-8-5.38-7.77-3.75.16-5,5.64-2.37,7.76a1.25,1.25,0,0,0,1.66-.44c1.28-3.34-2-4.63-4.92-4.73-.41,0-1.34.18-1.32.76.06,2.18,1.33,3,3.33,3.65.8.26,2.28-.89,1.13-1.27a2.7,2.7,0,0,1-2.51-2.54c-.43.26-.87.51-1.31.76,1.37,0,4.82.4,3.76,3.17l1.67-.45c-3.39-2.76,2.35-6.52,3.72-3a14.28,14.28,0,0,1,.59,4.26l1.54-.71c-.55-.2-4.56-5.82-1.76-6.31,3.92-.69,7.42.67,6.12,4.89l1.86-.5a9.74,9.74,0,0,1-.75-7.47l-1.31.76c2.53.27,4.08,1.84,5.64,3.6.41.46,1.9.28,1.86-.5s-.09-1.85-.13-2.77l-1.86.5a7.15,7.15,0,0,1,2,4.36l1.85-.68a24.37,24.37,0,0,0-3.47-4.91l-1.63,1c2,1.37,2.16,3.06,2.35,5.13l1.72-.81a9.76,9.76,0,0,1-4.75-6.86l-1.71.81c2.62,1.57,3.07,3.9,2.89,6.77l1.54-.72c-2.88-.85-4.61-4.23-4.57-7.05l-1.54.71c3.1,1.2,3.29,5,1.88,7.47l1.67-.45a8.7,8.7,0,0,1-3.39-7.67l-1.54.72c2.79.9,1.9,5.73,1,7.51l1.81-.32c-1-1-4.67-5.23-3.4-6.63l-1.55.27a5.34,5.34,0,0,1,1.19,2.86c.53,2.23-.38,4-1.14,1a21,21,0,0,1-.31-2.23q-.93-1.71-1.53-.06a22.67,22.67,0,0,1-.59,6.92l1.87-.5a7.8,7.8,0,0,1-1.67-7.42l-1.95.33c.22,3.44.64,6.63-.84,9.85l1.8-.32c-2.26-2.15-2.45-4.9-2.61-7.85-.05-1-2-.66-2,.16a32,32,0,0,1-.52,8.34l1.86-.5a12.14,12.14,0,0,1-2.51-5.72c-.12-.82-1.91-.39-1.95.34s-.35,6.43-1.35,4.32a4.45,4.45,0,0,1,.79-4.94h-1.77c1,2.1.74,4.44.78,6.71l1.94-.34a15.42,15.42,0,0,1-.8-7.17l-1.54.72c2.41.72,2.12,3.51,2.18,5.32l1.94-.34a6.19,6.19,0,0,1-.27-4.25c.44-1-1.51-.95-1.84-.19Z"/><path class="cls-2" d="M160,20.37a3.55,3.55,0,0,0,.12,2.85c.13.39,2-.09,1.93-.52,0-.77-.08-1.54-.11-2.3,0-.41-1.75.17-1.92.43a5,5,0,0,0-.78,3.35c0,.4,1.75-.16,1.92-.43l.85-1.43c.07-.12-.07-.16-.15-.18a5,5,0,0,0-2.61-.19c-.59.12,0,.48.31.31a5.44,5.44,0,0,0,1.38-1.19c.44-.46-1.38-.06-1.6.08-9.44,5.75-2.7,18.33-10,25l1.84-.34.4-.87a2.65,2.65,0,0,0-1.9.36c-.47.59-.38.36-.43,1,0,.39,1.67-.19,1.83-.34,3-2.71,4-5.52,4.08-9.46a33.25,33.25,0,0,1,.64-7.57c.35-.89.67-1.8,1-2.71,0,.09,2.35-4.47.54-3.73-1,.4.16.51.63.38q2.64-.22,1.35,1.17l1.91-.44a4.15,4.15,0,0,1,.75-3.18l-1.91.43c0,.77.07,1.54.11,2.31L162,22.7a3,3,0,0,1-.15-2.68c.11-.31-1.73-.12-1.9.35Z"/><path class="cls-2" d="M112.8,30.78c-2,1.66-1.17,2.71,1.13,3.41.47.15,1.56,0,1.53-.74-.11-2.31-3.31-2.12-4.92-1.84-.47.08-1,.65-.69,1.13a4.18,4.18,0,0,0,4.57,2c.61-.09,1.5-.71.82-1.32l-1-.88c-.28.44-.55.88-.82,1.32,3.26-.47,3.72,3.54,4.61,5.82a7.17,7.17,0,0,0,3.73,3.62c2.82,1.22,6.15,1.61,8.33,4,1.57,1.73,2.42,3.77,4.35,5.2.73.54,2.39-.47,1.48-1.15-2.15-1.6-2.91-4.24-5-5.87-2.61-2.09-6.08-2.37-8.94-4-3.95-2.3-2.45-9.94-8.46-9.07-.6.08-1.49.7-.81,1.31l1,.88.82-1.32-3-1.36c-.23.38-.46.76-.7,1.14,1.76-.63,2.62-.44,2.59.57l1.53-.74-.93-1.11c1-.85-.53-1.6-1.3-.95Z"/></svg>