<svg id="layer1" xmlns="http://www.w3.org/2000/svg" viewBox="0 0 227.44 406.15"><defs><style>.cls-1{fill:#ff9b24;}.cls-2{fill:#48b74b;}.cls-3{fill:#492d0c;}</style></defs><path class="cls-1" d="M165.93,115a12.89,12.89,0,0,0,0-1.4c-.16-2.77-1-6.19-3.18-8a12.6,12.6,0,0,0-1.6-3.3c-2.49-3.64-7.84-3.89-11.27-1.57-3.94,2.67-5.53,8.77-5.16,14.76a8.91,8.91,0,0,0-.43,1.16,10.89,10.89,0,0,0,2,13.21,9.75,9.75,0,0,0,12.46,1.14,10.53,10.53,0,0,0,2.89-3.12c3.38-.75,4.71-5.15,4.52-9A8.17,8.17,0,0,0,165.93,115Zm-6.84-10a7.2,7.2,0,0,1,.84.82,5.87,5.87,0,0,0-2-.68l-.17-.13A3.45,3.45,0,0,1,159.09,104.93Zm-4.19,9.18.07,0c.1,2.21.29,4.41.61,6.61,0-.1-.07-.2-.11-.3A20.61,20.61,0,0,1,154.9,114.11Zm2.72,6.79c-.16-1-.3-2-.4-3a13.57,13.57,0,0,1,.57,2.5C157.73,120.56,157.68,120.73,157.62,120.9Zm-4.53,6.81,0,0h0Zm-3.75-3.41c.08.26.17.52.25.77a13.91,13.91,0,0,1-.66-1.26Zm7.55-18c-.2,0-.39,0-.59,0a3.91,3.91,0,0,0-1.6.33l.15-.31.24-.17a4.46,4.46,0,0,1,1.64.06ZM150.65,129a4.94,4.94,0,0,0,2.27.85,4.82,4.82,0,0,0,3.22.35c-2.13,1-4.33.87-5.79-1.43A3.4,3.4,0,0,0,150.65,129ZM157,104.47a3.2,3.2,0,0,0-.43-.17,1.91,1.91,0,0,1,1.39,0C157.64,104.32,157.32,104.39,157,104.47Zm-2.95,1a12.27,12.27,0,0,0-2.24,1.05,3.12,3.12,0,0,1,2.47-1.3Zm-5.32-1.2c1.61-3.47,5-5,8.56-3.2a6.37,6.37,0,0,1,2.6,2.69,4.59,4.59,0,0,0-4.11.32c-2.57-.39-4.93,1.88-6.41,4.35a12.68,12.68,0,0,0-2.47,3.36A21.86,21.86,0,0,1,148.73,104.29Zm-3.83,18.55a10.52,10.52,0,0,0,1.83,2.49c.14.21.3.42.46.63a16.07,16.07,0,0,0,1.11,3.31A10.74,10.74,0,0,1,144.9,122.84Z"/><path class="cls-2" d="M148.33,192.05c-4-4.33-9.54-4-15.13-2.18-7.69.65-15.33,2.79-21.42,7.58a33,33,0,0,0-4.3,3.34c4.15-16.58,10.24-32.52,20.14-46.89,1.52-2.21-3.24-3.12-4.35-1.49-10.55,15.3-16.88,32.28-21.15,49.92,0-2.37,0-4.73-.1-7.1-.28-6.54-.85-13.56-4.36-19.24-5.85-9.46-19.49-7.86-28.92-7.84-2.72,0-1.92,4,.15,4.57,6.92,1.86,14.64,1.85,20.87,5.71,9.08,5.62,6.22,18.57,6.12,27.44a3.36,3.36,0,0,0,1.94,2.76c-.19,4.86-.46,9.72-.49,14.58a2.58,2.58,0,0,0,.42,1.29c-1.08,6.7-2,13.44-2.85,20.16-2.42,19-2.28,38.24-2.3,57.34a163,163,0,0,1-2.14,23.76c-1,7.2-1.57,14.51.79,21.51.64,1.91,5.56,1.31,4.8-.95-2.43-7.22-1.43-14.88-.36-22.26a151,151,0,0,0,1.91-22.17c0-17.9-.36-36.15,1.87-53.94,1.3-10.41,2.69-20.91,4.6-31.29a41.08,41.08,0,0,1,5.4-9.82c10-3.29,19.26-8.37,28.88-12.56a1.37,1.37,0,0,0,.82-1c2.7-.32,5.08.13,6.74,1.93C148.13,197.59,150.27,194.16,148.33,192.05Z"/><path class="cls-3" d="M95.43,347.71c0-33.32.61-66.68,3.41-99.89,1.45-17.24,3.5-34.52,7.28-51.43a143.08,143.08,0,0,1,6.7-22.06c4.31-10.81,11.59-20.17,19.7-28.39l-1.58-.43c-15.06,18.84-24.45,41.38-30.16,64.67a224.33,224.33,0,0,0-5.66,36.89c-.44,6-.59,12.08-.54,18.13,0,4.6.78,9.35.54,13.93-.7,13.1-2.11,26.17-2.84,39.27-.43,7.61-.79,15.25-.58,22.87.06,2.08-.44,8.38,2,9.53.64.31,2.39-.6,1.51-1-2.37-1.13-1.61-9.88-1.63-11.76-.07-7.3.33-14.61.75-21.89.71-12.42,2-24.8,2.72-37.21.21-3.61-.37-7.36-.48-11-.17-6,0-12,.29-18A225.89,225.89,0,0,1,102,213c5.34-24.09,15-47.73,30.51-67.1.76-1-1.08-.94-1.58-.43-13.12,13.31-21.1,28.59-25.69,46.59-4.31,16.87-6.36,34.34-8,51.65-3.22,34.6-3.77,69.43-3.78,104.16,0,.91,1.94.54,1.94-.2Z"/><path class="cls-3" d="M102.89,217.7a86.31,86.31,0,0,1,5.81-15.91c1.59-3.25,7.23-3.43,10.4-5.19,4.38-2.42,7.88-6,12.7-7.7,7.13-2.46,14.24,2.09,18.1,7.77l1.63-1c-6.61-4-11.94-2.45-18.2,1.42-2.85,1.76-5.4,3.55-8.66,4.54-2.66.8-5.57.88-8.32,1.28a21.32,21.32,0,0,0-10.16,4.1c-5.14,3.92-6,11.19-6.57,17.13-.56,5.74-5.82,14.85-1.07,19.7.59.62,2.43-.16,1.77-.84-4.32-4.42.55-11.52,1-16.58.56-5.91.86-12.06,4.56-17,4.71-6.25,13.84-4.93,20.57-7,8.65-2.63,13.75-11.61,23.56-5.71.55.34,2.19-.13,1.63-1-6.65-9.78-17.56-11-27-4.7-2.91,1.92-5.55,4.07-8.71,5.59a16.44,16.44,0,0,1-6.45,1.33,1.27,1.27,0,0,0-.89.42c-4.19,4.77-6.06,13.37-7.63,19.4-.24.91,1.74.67,2-.16Z"/><path class="cls-3" d="M101.23,227.46a177.37,177.37,0,0,0,.55-22.23c-.17-7,.31-16.78-3.58-22.95-1.32-2.09-5.13-3.24-7.27-4.17a87.09,87.09,0,0,0-12.8-4.3c-4.23-1.1-11.31-3.05-15.18.15-.47.38,1.34.11,1.61-.06,4.4-2.7,8.15-4.17,13.39-3.3,3,.49,5.9,1.69,8.9,1.82,1.57.06,4.92-.81,6.23.41a23.66,23.66,0,0,1,6,9.61c3.88,11-.41,23.54-.56,34.77,0,.29,1.92,0,1.93-.52.18-13.51,6.37-30.59-3.44-42.22-1-1.14-2.42-3.89-4.23-3.36-5.64,1.65-10.71-1.41-16.2-1.67-5.16-.24-9.12,1.76-13.45,4.42l1.61-.05c2.58-2.13,9,0,11.86.74a85.22,85.22,0,0,1,11.61,3.82,37.13,37.13,0,0,1,7.46,3.79c1.82,1.27,2.27,4.53,2.69,6.51,2.65,12.45,2.3,26.68,1,39.31,0,.24,1.88.05,1.94-.52Z"/><path class="cls-3" d="M153.22,105.33c6.88-5.72,12.09,2.94,13.47,9,1.93,8.41-1.91,16.86-11.4,16.75-.16.39-.32.78-.49,1.17a5.33,5.33,0,0,0,3.22-1.08c1.13-.66-.55-1-1.22-.65l-1.76.57c-.71.06-1.69,1.16-.48,1.17,10.81.12,16.05-8.3,14.06-18.45-1.65-8.44-9.15-15.34-17-8.83-.87.72,1,.82,1.57.38Z"/><path class="cls-3" d="M148.48,106.34c-9.78,6-7.78,23.62,3.4,26.79.85.24,2.29-1,1.11-1.32-10.09-2.86-12.12-19.11-3.22-24.56,1.11-.69-.48-1.4-1.29-.91Z"/><path class="cls-3" d="M147.38,101.73c1.07.31,1.19,0,.36-.88a17.66,17.66,0,0,1-.86-2.44,19.31,19.31,0,0,1-.93-4.3c-.2-2.64-1.47-5.56-2.15-8.13-.9-3.35-1.65-6.73-2.22-10.15-.91-5.47.23-10.16.49-15.5.18-3.68,0-7.39.79-11,1-4.45,6,4.35,6.66,5.56A80.14,80.14,0,0,1,155,67.1c3.6,10,4.32,22.94.66,33-.38,1,1.56,1,1.84.2C162,88,160,73.29,154.92,61.48c-.91-2.15-9-20.78-13.18-14-2.2,3.61-1.49,8.94-1.62,13-.1,3-.92,5.92-1,8.95a50.59,50.59,0,0,0,1.52,12,160.08,160.08,0,0,0,4.89,19.19c.57,1.64,2.65,4.16,3.71,1.3.38-1-1.55-1-1.84-.2Z"/><path class="cls-3" d="M160,99.26c-.06-14-2.2-30.35,5.48-42.9.18-.29,2.3-3.55,3-3.55.05,0,1.76,5.68,1.92,6.19a53.66,53.66,0,0,1,2.27,14.94c.13,10.21-6.3,18.14-10.4,27-.46,1,1.49.93,1.83.19,3.78-8.13,9.32-15.28,10.39-24.42,1-8.27-1.33-17.26-4.54-24.8-.16-.37-.51-.42-.87-.42-2.57,0-4.1,2.8-5.41,4.72-2.72,4-3.92,9-4.75,13.63-1.73,9.77-.9,19.77-.85,29.62,0,1,1.95.67,1.95-.16Z"/><path class="cls-3" d="M171.56,88.59c5.88-11.4,14.46-21.86,23.89-30.5l-1.74.1c0,10.47,0,21.26-4.73,30.87-3.87,7.82-12.49,11.8-19.75,15.79-1.14.63.57.92,1.2.57,7.8-4.29,15.74-8.34,20.35-16.32,5.33-9.23,4.86-21.16,4.86-31.43,0-.65-1.53-.09-1.74.1-9.52,8.73-18.21,19.28-24.14,30.79-.42.82,1.51.59,1.8,0Z"/><path class="cls-3" d="M174.39,104.84c2.42-.91,30.41-18.16,32.74-12.3,1.41,3.55-3.18,6.71-5.66,7.82-2.67,1.19-5.55,1.79-8.27,2.84-7,2.7-12.82,7.51-19.64,10.53-1.22.53-.13,1.47.83,1,4.5-2,8.54-5,12.82-7.38,4-2.27,8.33-3.57,12.67-5.06,2.81-1,5.74-2.15,7.65-4.51,1-1.27,2.41-4.8,1.27-6.39-2.35-3.31-8.81-.36-11.59.69-8.29,3.12-15.46,8.58-23.65,11.67-1.25.47-.14,1.41.83,1Z"/><path class="cls-3" d="M174.65,114.72c7.49-1.25,14.79-4.94,22.45-3.58,3.89.69,14.54,3.26,9.85,9-3.29,4-13.2,3.12-17.8,3.12-2.45,0-12.64.81-14.21-1.83-.35-.6-2.19.08-1.93.51,1.91,3.22,12.33,2.28,15.36,2.31,5.75,0,13.94.45,19-2.88,6.48-4.28.14-8.57-4.43-10.07a35.88,35.88,0,0,0-9.06-1.69c-6.17-.38-12.89,3.14-18.92,4.15-.87.14-1.64,1.17-.3.94Z"/><path class="cls-3" d="M172.57,122.28c6.67,2.45,13.7,2.7,20.64,3.92,8.85,1.55,14.57,6.5,17.89,14.81l1.33-.87c-13.12-.88-33.07-1.29-40.88-13.87-.39-.62-2.26,0-1.78.8,8,12.91,28.53,13.4,41.94,14.3.36,0,1.57-.28,1.33-.88-3-7.42-7.73-12.47-15.48-14.73s-16.11-1.8-23.84-4.63c-.7-.26-2.26.75-1.15,1.15Z"/><path class="cls-3" d="M171.41,128.66A136.7,136.7,0,0,1,190,139.57c5.41,3.88,12.71,9.76,12.05,17.18l1.14-.61c-14.91,3-32.72-9.09-35.66-23.93-.07-.4-2,.06-1.93.52,3.11,15.69,21.74,27.27,37.23,24.11.3-.06,1.11-.21,1.15-.61.63-7.13-6.1-12.67-11.16-16.57-6-4.63-12.78-8.27-19.54-11.66-.51-.25-2,.55-1.82.66Z"/><path class="cls-3" d="M167.41,137.09c6.73,4.61,9.41,12.34,12.53,19.53,1.61,3.72,4.65,8.71,3.86,12.91-.58,3.06-10.2-4.28-10.74-4.76a29.06,29.06,0,0,1-6.21-8.45c-3.18-6.09-4.25-13.18-4.34-20,0-.64-1.94-.26-1.93.52.12,9.24,2.31,18.3,8,25.74,3,4,10.18,10.4,15.71,8.4,4.21-1.53-.39-10.27-1.34-12.5-3.49-8.1-6.41-17.18-14-22.38-.55-.37-2.32.42-1.53,1Z"/><path class="cls-3" d="M158.91,135c.27,13.17,7.18,28.18,1.75,41-1.79,4.24-7,4.92-10.19,1.74-2.88-2.83-3.26-8-3.42-11.73-.45-10.83,2.62-21.77,6.32-31.81.39-1.07-1.55-1.08-1.86-.24-4.11,11.19-7.32,23.28-6.21,35.3.66,7.07,5.34,14.59,13.39,11.16,6.79-2.9,5.76-14.63,5.39-20.32-.54-8.44-3-16.83-3.21-25.26,0-1-2-.76-2,.13Z"/><path class="cls-3" d="M149,134.83c-2.74,5.74-4,12.17-5.82,18.24-2.07,6.9-4.66,15.85-11.18,19.86-5.18,3.19-8.39-.47-8.21-5.49a22.77,22.77,0,0,1,2.93-9.69c5.14-9.71,14.64-16.59,21.53-25,.79-1-1.05-1.31-1.62-.6-7.69,9.36-19,17.17-23.39,28.85-1.58,4.2-3.36,14.54,3.86,14.56,7.81,0,12.15-7.19,14.89-13.57,3.74-8.69,4.79-18.39,8.86-26.93.49-1-1.47-1.05-1.85-.25Z"/><path class="cls-3" d="M144.34,132.83c-7.61,4.88-13.06,12-22,14.65-7.82,2.27-16.45.88-24.46.81l.85.87c2.7-8.92,13.91-13.55,21.8-16.75a66.74,66.74,0,0,1,12.38-3.76c3.91-.76,8-1.34,11.1-4,1-.85-.53-1.6-1.3-.94-4.21,3.57-10.94,3.41-16.06,5a96.45,96.45,0,0,0-11.46,4.42c-7,3.15-15.94,7.91-18.31,15.79-.18.6.31.86.85.87,8.37.06,16.75,1.05,25-.9,9.35-2.21,15.18-10.13,22.94-15.11,1.1-.7-.47-1.47-1.29-.94Z"/><path class="cls-3" d="M141.21,124.42c-7.7-.29-15.36,1.72-22.91,2.89-8.85,1.37-19.91,2.61-26.48-4.82-5.06-5.71,9-9.34,12.59-10.18a31.5,31.5,0,0,1,16.16.3c5.2,1.52,13.9,5.82,19.23,2.81,1.14-.65-.54-1.07-1.23-.68-3.26,1.84-10.22-1.28-13.51-2.26-4.06-1.22-7.64-2.28-11.91-2.29A39.39,39.39,0,0,0,87.88,119c-.1.08-.25.31-.18.46,9.44,19.17,37.14,5.56,52.78,6.14.8,0,2-1.15.73-1.2Z"/><path class="cls-3" d="M139.55,113.66c-4.94-.27-9.27-2.48-13.86-4.11-3.3-1.17-7.41-1.19-10.86-1.84a47.5,47.5,0,0,1-12.19-3.89c-.86-.42-6-3.22-5-4.21a12.91,12.91,0,0,1,5.78-3c7.13-2,15.45.68,22.25,2.78,6.29,2,12.37,4.53,18.71,6.29.67.19,2.29-.81,1.17-1.12-14.06-3.91-37.24-17.52-50.23-4.6-.14.13-.3.41-.11.58,5.53,5.16,12.59,7.17,19.86,8.54,4.23.8,8.42,1.12,12.46,2.69,3.72,1.44,7.24,2.83,11.27,3,.79,0,2-1.11.73-1.18Z"/><path class="cls-3" d="M142.23,102.84c-5.77-2.32-11-6.56-15.75-10.47-4.51-3.68-12.1-9.43-12.08-15.91,0-8.3,13.72.63,16.44,2.74,6.54,5.07,11.07,15.42,14,22.89.33.85,2.25.3,1.93-.52-3.54-9-8.51-19.41-16.64-25.08-3.39-2.37-12.3-7.82-16.22-3.52-5,5.5,2.71,12.83,6.38,16.37,5.9,5.68,13.13,11.69,20.81,14.78.8.32,2.26-.82,1.12-1.28Z"/></svg>