<svg id="layer1" xmlns="http://www.w3.org/2000/svg" viewBox="0 0 306.18 197.07"><defs><style>.cls-1{fill:#b71c1c;}.cls-2{fill:#492d0c;}.cls-3{fill:#fff;}</style></defs><path class="cls-1" d="M49.66,37.77c18.73-.12,40.18-1.12,54.13-1.36,35.57-.61,135.76-3.27,167.2-.06,3,.31,1.31,103.82.76,117.76,0,0-196.13,2.69-222.31,1.66-2.46-.1-3.13-50.28-2.45-67.69-1.12-15.75.24-33,.86-48.63Z"/><path class="cls-2" d="M49.3,38.38c42.66-.34,85.33-2.14,128-2.7,21.06-.27,42.12-.44,63.17-.09,7.95.13,15.91.35,23.85.85,1,.07,5.8-.14,6.09.82a20.72,20.72,0,0,1,.56,4.15c1.62,19.69.85,39.75.7,59.48-.13,17.77-.2,35.57-.88,53.32l1.33-.71q-78.18,1.08-156.37,1.72-21.34.15-42.68.18c-4.91,0-9.81,0-14.72-.06-1.68,0-8.05.6-8.48-.75-1.72-5.37-1.32-12-1.56-17.51-.43-10-.56-20-.59-30.06,0-8.25.3-16.47-.05-24.71s0-16.26.3-24.37c.16-3.76.35-7.51.53-11.27.15-3.21-.49-6.43,1.95-8.69.85-.79-1-.89-1.57-.41s-2,1.33-2,2c-.15,3.69-.32,7.37-.5,11.06-.4,8.2-.76,16.39-.78,24.59,0,9.93.19,19.84.18,29.77,0,16-.92,33.2,1.91,49.06.55,3.1,2.72,2.4,5.42,2.45,4.37.09,8.75.11,13.13.12,13.66,0,27.31,0,41-.12Q189.08,156,271,154.72h.42c.38,0,1.31-.17,1.34-.71,1.1-28.77,1.13-57.65.91-86.44-.05-6.64-.14-13.28-.38-19.91-.13-3.55,0-7.44-.93-10.91-.63-2.42-9.4-1.64-11.39-1.74-8.46-.44-16.94-.59-25.41-.7C173.66,33.51,111.87,36.68,50,37.17,49.22,37.17,48,38.39,49.3,38.38Z"/><path class="cls-3" d="M271.68,81c1.66.06,1,20.79.48,29.49,0,0-196.38.33-226.22,1,0,0,.26-24.09.49-30C46.43,81.43,257,80.42,271.68,81Z"/><path class="cls-2" d="M270.92,81.45c1.84.8.84,10.66.83,12.29,0,5.61-.26,11.21-.56,16.8l1.33-.71q-78.84.14-157.7.45-27.31.12-54.63.33l-8.55.1-3.31.05-1.4,0c-.37,0,0,.85,0-.28.11-9.73.13-19.46.48-29.18L46.07,82q75-.36,150-.57c25.05-.06,50.22-.77,75.26.08.8,0,2-1.16.72-1.2-19.94-.68-40-.16-59.92-.12q-50.16.09-100.32.32-32.51.12-65,.28c-.38,0-1.31.17-1.33.71-.36,10-.38,20-.49,30a.54.54,0,0,0,.61.5c59.06-1.23,118.18-.73,177.24-.87l49-.1c.39,0,1.3-.17,1.33-.71.35-6.37.56-12.76.57-19.14,0-1.79.85-9.82-1.26-10.74C271.8,80.17,270.05,81.07,270.92,81.45Z"/></svg>