<svg id="layer1" xmlns="http://www.w3.org/2000/svg" viewBox="0 0 202.94 374.58"><defs><style>.cls-1{fill:#754316;}.cls-2{fill:#492d0c;}</style></defs><path class="cls-1" d="M79.31,162.48a3.18,3.18,0,0,0,1.73,3c-2.71,2.36-1.08,7.25,2.91,6.21,25.12-6.58,49.34-10.67,74.73-2.89,3.45,1.05,5.3-3,3.74-5.39a3.24,3.24,0,0,0,.89-2.32v-1.66a3.17,3.17,0,0,0,1.24-2.66c-.06-9.88-.93-19.73-1.24-29.6V122a3.43,3.43,0,0,0-.53-1.78c.2-6.59.34-13.18.35-19.78a3.42,3.42,0,0,0-3.38-3.36c-2.92-13-10.39-22.1-27.33-20.49h-.11l-.16,0a3.67,3.67,0,0,0-3.13,5,10.58,10.58,0,0,0-3.76,3,20.25,20.25,0,0,0-1.3-5.45,3.68,3.68,0,0,0-3.37-2.57,10,10,0,0,0-6.79,1.53c-.14,0-.29,0-.44,0h-1.49A3.52,3.52,0,0,0,109,76.61a6.48,6.48,0,0,0-4.61,1.93,3.91,3.91,0,0,0-.76.54c-5.25,5-8.11,11.74-9.74,18.85-.51,1.21-1,2.45-1.39,3.7a51.17,51.17,0,0,0-6,18.6c-3,5-4.07,11.17-4.4,17.45-.16.48-.32,1-.46,1.46a3.62,3.62,0,0,0-2.27,3h-.14v1.2a34.7,34.7,0,0,0,0,6.76Zm60.75-16.94c0-.47,0-.94.05-1.41h0l0,1.46Zm-4.41-61.09a2.57,2.57,0,0,0,0-.68c4.48.35,8.87,1.44,12.2,4.69s4.37,8.78,4.88,13.28c.35,3.09.54,6.17.61,9.24a3.6,3.6,0,0,0-.11.88c-.09,10.36-2,21.49-1.79,32.24h-.12v1.52a20.37,20.37,0,0,1-.59,2.57c-1.19-.68-2.37-1.38-3.54-2.11a219.93,219.93,0,0,0-5.87-49.55h0c0-1.79-1.76-2.53-3.13-2.5-.46-1.39-1-2.77-1.56-4.14a2.87,2.87,0,0,0-1.41-1.54C135.35,87,135.49,85.74,135.65,84.45Zm-9.84,64c1.33.31,2.64.68,3.92,1.08l-1.88.35c-.81-.1-1.61-.24-2.4-.39C125.58,149.11,125.69,148.76,125.81,148.42ZM106.57,105a4,4,0,0,0,2.21.1l0,.49a3.39,3.39,0,0,0-2.46,1.22C106.38,106.22,106.47,105.62,106.57,105Zm-6.84,51.42.16.13-.18.05A1.1,1.1,0,0,1,99.73,156.44Zm-13.31,3.79.29,0c0,.49,0,1,0,1.46l-.31.18Z"/><path class="cls-1" d="M164.43,291.65a3,3,0,0,0-1.23-1.82c0-6.34-.09-12.66-.09-18.73a3.52,3.52,0,0,0-2.21-3.51,3.8,3.8,0,0,0-2.09-1.76,5.76,5.76,0,0,0-3,.21,3.33,3.33,0,0,0-1.55.82l-.92.4c-2.13.76-4.28,1.48-6.42,2.21a47,47,0,0,1-16.29,2.86c-13.41,0-26.79-1.25-40.18-1.8a40.75,40.75,0,0,0-6.48-3,3.2,3.2,0,0,0-3.9,1.67,2.92,2.92,0,0,0-1.6,1.52,3.64,3.64,0,0,0-1.66,3.88,3.79,3.79,0,0,0-.16.84,106.54,106.54,0,0,0,0,13.25c.16,5.63.82,11.27,1.46,16.91-2.17,9.71-3.43,20.42,2.77,27.24,3.39,3.73,8,5,13,5.14a30.27,30.27,0,0,0,8.11,1.36,38.22,38.22,0,0,0,6.22,2.85,3.59,3.59,0,0,0,4.36-2.49,85.58,85.58,0,0,0,10.12-.09,97,97,0,0,0,17.73-3.19,3.59,3.59,0,0,0,1.69-5.74,3.51,3.51,0,0,0,2.31-3.54V281.6c0-.17,0-.33,0-.5h0V281a3.1,3.1,0,0,0-1.67-2.9c2.34-.6,4.65-1.36,7.09-2.19l.84-.26a3.47,3.47,0,0,0,3.74,3.47h.07a20.21,20.21,0,0,0-.46,2.45,147.65,147.65,0,0,0-.7,16.83,3.17,3.17,0,0,0,2.52,3.27c-1.2,8.28-4.49,16.1-6.89,24.2a8.74,8.74,0,0,1-1.56.86l-.17,0v0h0a3.47,3.47,0,0,0,1.07,6.79c1.61,2,5.37,2.1,6.12-1.1l.16-.61C169.22,325.42,167.25,305.93,164.43,291.65Zm-34.78,37c-.35,0-.73.07-1.12.11l.27-1a3.51,3.51,0,0,0,2-.24l.42,1.07Z"/><path class="cls-1" d="M101.32,39.13a9.86,9.86,0,0,0,2.91,4.25,3.55,3.55,0,0,0,2.42,4,27.93,27.93,0,0,0,9.64,1.51c.88.18,1.75.38,2.58.58a49.75,49.75,0,0,0-13.66,2.72c-3,1.12-3.62,5.88,0,6.75,6.77,1.62,21.67,4.58,25.84-3.26a3.53,3.53,0,0,0,1-5,7.37,7.37,0,0,0-3-4.75,21.16,21.16,0,0,0,6.42-1.76,3.55,3.55,0,0,0,1.84-3V39.65c0-1.41-1.16-3.55-2.67-3.55h0c1.28-1,1.08-3.25.1-4.54,1.7-2.33-.11-6.49-3.61-5.45-4.44,1.33-8.87,1.34-13.47,1.35h-.34v0a3.43,3.43,0,0,0-2.85,4.62c-2,.28-3.94.68-5.89,1.14-1.34,0-2.65,0-3.88,0a3.56,3.56,0,0,0-3.42,4.1A2.9,2.9,0,0,0,101.32,39.13Z"/><path class="cls-2" d="M108.6,28.12c-5.41.48-7.13,4.95-7.49,9.8-.25,3.37-.91,11,2.68,13,.63.34,2.38-.54,1.52-1C102.78,48.53,103,43,103,40.67c-.07-3.89-.09-10.86,5.4-11.35,1-.09,1.56-1.32.23-1.2Z"/><path class="cls-2" d="M108.9,28.54l-.57.31,1.48-.17a1.45,1.45,0,0,0-1.14-.23c-.33.05-1.13.24-1.13.67s0,.59,0,.89.47.18.56.18c8.22,0,15.38-1.82,23.37-3.18,13.54-2.29,8.78,19.37,1.42,17.82-.47-.1-1.54,0-1.75.56L130,47c-.45-.36-2.18.39-1.81.69,2.31,1.88,4-.48,4.81-2.56l-1.75.55c8,1.69,11.68-8.09,10.26-14.57-.91-4.1-4.86-5.44-8.6-5-3.07.35-23.53,5.29-23.48,2.54l-1.13.67a4.82,4.82,0,0,0,1.7-.38c1.14-.61-.64-.62-1.14-.35Z"/><path class="cls-2" d="M109.1,52c8.34.11,28.09,4.74,29.85-7.91.07-.55-.79-.5-1.11-.41a7.77,7.77,0,0,0-3.59,2.4c-.81.82,1.08.85,1.56.37a5.1,5.1,0,0,1,2.31-1.73L137,44.31c-1.54,11.12-19.48,6.64-27.17,6.54-.76,0-2,1.13-.74,1.15Z"/><path class="cls-2" d="M102.83,44.76c6.17,4.05,16.85,1.47,23.53.11.41-.08,1.09-.64.71-1.1-4.13-4.9-12.43-6.43-18.5-5.45-.56.09-1.74,1.07-.64,1.38a13.19,13.19,0,0,0,10.82-1.11c.65-.38.75-1.13-.1-1.29a73.92,73.92,0,0,0-14-1c-.06.48-.11,1-.17,1.43a36.1,36.1,0,0,0,10.1-1.07c.81-.24,1.13-1.16.15-1.39-3.93-.9-7.87-1.35-11.58-3l-.63,1.37c7.55.08,15,1,22.61,1,1.11,0,1.47-1.42.16-1.44-6.68-.08-13.42-.89-19.92,1.08-.41.12-1.27.85-.57,1.23,6.15,3.37,13.6,2.29,20.33,2.22,0-.46-.07-.92-.1-1.39-7.4,1.91-15.33.21-22.09,4.35a.6.6,0,0,0,.09,1.11c8.59,4,18,1.28,27,1.09,1.11,0,1.48-1.46.17-1.43-8.71.17-17.79,2.88-26.07-1l.08,1.11c6.29-3.84,14.26-2.12,21.17-3.9,1-.26,1-1.4-.1-1.39-6.21.06-13.32,1.2-19-1.91-.19.41-.38.82-.56,1.23,6.32-1.91,12.9-1.06,19.4-1,0-.48.11-1,.16-1.44-7.55-.08-15.06-.95-22.61-1-.73,0-1.56,1-.64,1.38,3.88,1.76,7.91,2.2,12,3.15l.15-1.39a34.17,34.17,0,0,1-9.56,1c-1.12,0-1.48,1.43-.17,1.43a72.86,72.86,0,0,1,13.52,1c0-.43-.07-.86-.1-1.29a11.06,11.06,0,0,1-8.85,1c-.21.46-.42.92-.64,1.38,5.47-.88,13.15.42,16.9,4.87l.7-1.1c-6,1.21-16.23,3.69-21.69.11-.72-.48-2.41.52-1.48,1.12Z"/><path class="cls-2" d="M105.64,53.55c-1.73,1.88-3.29,4.84-3.16,7.46.18,3.48,5.44.6,6.75-.25.83-.53-1.12-.33-1.49-.1-.73.48-2.13,1.68-3,.86-.54-.52-.36-1.66-.25-2.3a12.09,12.09,0,0,1,2.89-5.79c.43-.47-1.43-.24-1.76.12Z"/><path class="cls-2" d="M133.94,54.11c2.26-.29,3.29,1.06,2.46,3.18a6,6,0,0,1-5.19,3.84c-1,0-1.55,1.27-.22,1.23a8.35,8.35,0,0,0,7.33-5.19c1.25-3.18-1.25-4.66-4.16-4.3-1,.13-1.55,1.4-.22,1.24Z"/><path class="cls-2" d="M104.94,62.27a45.36,45.36,0,0,0,29.49-3.22c1.2-.59.09-1.22-.77-.8a42.2,42.2,0,0,1-27.53,3c-.62-.14-2.28.79-1.19,1.05Z"/><path class="cls-2" d="M102.5,67.59c12.13,0,24.24-1,36.37-1,.64,0,1.65-1,.66-1.32-11.47-3.83-23,1.67-34.64,1,0,.41.06.81.08,1.22.74-.27,1.25-.77,2-1,.52-.19.84-1,.14-1.18l-1.64-.82c-.62-.56-2.44.22-1.77.84A5,5,0,0,0,106,66.51c.05-.39.09-.79.14-1.18-.74.27-1.24.77-2,1s-.74,1.18.08,1.23c11.42.66,23-4.82,34.19-1.08l.66-1.31c-12.14,0-24.25,1-36.38,1-1.08,0-1.5,1.36-.18,1.36Z"/><path class="cls-2" d="M98,66.57c-3.57,2.39-10.4-5.71-13.37-7.38-.59-.34-2.37.46-1.52,1A106,106,0,0,0,97.9,67.4c.63.27,2.38-.63,1.52-1a107.09,107.09,0,0,1-14.75-7.22l-1.52,1C87.48,62.62,93.63,71,99.27,67.24c1.09-.73-.56-1.12-1.23-.67Z"/><path class="cls-2" d="M104.92,69.64c-3.63,2.28-5.78,6.6-7.71,10.27-3.07,5.86-5.78,11.75-9.1,17.52-4.11,7.14-8.29,14.24-12.62,21.25-3.33,5.4-6.43,10.85-11,15.09a.45.45,0,0,0,0,.74c4.19,2.13,8.45,4,13.19,4.24a1.34,1.34,0,0,0,1.26-.56c5.58-11.94,9.27-24.62,13.6-37,2.57-7.37,5.64-14.43,8.74-21.58.46-1,2.26-7.87,3.41-8.32a1.61,1.61,0,0,0,.86-1.34c.12-.93-1.61-.45-1.89,0-12.39,21.18-22,43.84-34.4,65-.51.86,1.33.76,1.7.29,5.76-7.31,9.51-15.74,13.88-23.89.49-.91-1.46-.77-1.82-.14-3.77,6.63-6.68,14-10.68,20.44-.48.77,1,.7,1.31.55a3.89,3.89,0,0,0,1.24-1.09c.82-.85-1.06-1-1.58-.44-.16.18-.31.37-.47.56l1.32.55c4-6.42,6.91-13.8,10.68-20.43L83,111.22c-4.3,8-8,16.39-13.64,23.58l1.7.3c12.39-21.19,22-43.84,34.41-65l-1.89,0c0-.19-1.78,3.43-1.56,2.76a124.32,124.32,0,0,1-4.77,11.53C94.51,90.51,92.19,96.71,90,103c-2.38,6.83-4.56,13.73-7,20.54q-2,5.74-4.46,11.34c-1.21,2.8-1.43,2.67-4.69,1.85a34.7,34.7,0,0,1-6.35-2.52c-.12-.06,7-11,7.81-12.23,4.07-6.42,7.94-13,11.76-19.51,3.41-5.84,7.12-11.62,9.78-17.84,2-4.78,4.76-11.43,9.31-14.3,1.11-.7-.54-1.18-1.24-.73Z"/><path class="cls-2" d="M66.23,136.32a3.47,3.47,0,0,1,.14,1.45c0,.43,1.37,0,1.53-.11l.84-.42-1.47.19a6.68,6.68,0,0,0,3.07,2.11c.4.13,2-.56,1.7-.72-7.29-3.43-13.92-9-20.16-14a122.32,122.32,0,0,1-10.63-9.46c-1.53-1.55-5.22-4.77-4.56-7.32.12-.46-1.78-.18-1.91.33-.55,2.12,1.74,4.41,3,5.86a85.27,85.27,0,0,0,10.59,9.87c6.67,5.53,14,11.68,21.86,15.4l1.7-.72a6.05,6.05,0,0,1-2.83-2c-.29-.3-1.19,0-1.47.18l-.85.42,1.53-.11c-.15-1.62.6.42-.14-1.45-.19-.49-2.09.12-1.93.52Z"/><path class="cls-2" d="M39.05,101.28C57,93.94,71.41,79.67,85.65,67c.77-.68-.79-.52-1.12-.41C67,72.7,53.45,86.76,38.91,97.77c-.83.64,1,.52,1.34.31,9.27-5.46,17.15-12.77,25.93-18.93C73,74.39,82.67,71.3,86.84,63.67c.22-.42-1.63-.26-1.92.29C81,71.18,71.27,74.5,64.66,79c-8.78,5.93-16.4,13.31-25.57,18.71l1.34.31C54.7,87.16,68,73.21,85.25,67.22l-1.12-.41c-14,12.44-28.23,26.64-45.8,33.85-1.26.51-.09,1,.72.62Z"/><path class="cls-2" d="M93.55,64.45c-7.47-1.6-7.66-13.53-7.69-19.48l-1.93.52c3.09,6.72,5.3,18.15,13.94,19.74.27,0,1.92-.12,1.75-.65a43.93,43.93,0,0,0-3.93-9.29c-.26-.44-2,0-1.93.52a30.71,30.71,0,0,0,2,8.26c.15.46,1.86,0,1.92-.42a18.91,18.91,0,0,1,2-5.16l-1.92.42c.12,2.78,1.15,4.31,3,6.27.35.38,2.15-.32,1.81-.67-1.81-1.92-2.77-3.46-2.89-6.12,0-.48-1.76.09-1.92.42a19.5,19.5,0,0,0-2,5.16l1.92-.42a30.53,30.53,0,0,1-2-8.26l-1.93.52a43.93,43.93,0,0,1,3.93,9.29l1.76-.65C91.06,62.91,88.88,51.53,85.86,45c-.22-.47-1.94,0-1.93.52,0,6.19.27,18.08,8,19.74.47.1,2.16-.65,1.58-.78Z"/><path class="cls-2" d="M134.13,67.28c1.05,1,1.59,1.3.92,2.85-.07.15.08.27.19.32l1.66.88c.39.2.1.15-.05.61a7,7,0,0,1-1.73,2.19.28.28,0,0,0-.07.26c.48,1,.91,1.81,2.12,1.3.85-.36.79-1,.79-1.82,0-.55-1.93-.2-1.93.52s-.28.86.4.57l1.14-.09c-1-.46,0-1.48.39-1.89a3.84,3.84,0,0,0,1-2.07.27.27,0,0,0-.19-.32l-1-.52-.68-.36c-.48-.25-.06.05.09-.31.62-1.41-.35-2-1.25-2.86-.46-.45-2.28.27-1.8.74Z"/><path class="cls-2" d="M106.68,74.74a87.2,87.2,0,0,1,15.47-2.18c.82,0,1.62-1.46.45-1.46H107.85a4.34,4.34,0,0,1-.45,1.46c8.54-.06,17-.88,25.56-1,.83,0,1.62-1.27.45-1.27a39.76,39.76,0,0,0-14.52,2.22c-.91.35-.55,1.23.31,1.18,4.6-.23,8.66-1.86,13-3.14,1.17-.34.86-1.55-.32-1.21-4.2,1.23-8.09,2.83-12.52,3.06.11.39.21.78.31,1.17,4.34-1.64,8.44-1.92,13-1.93l.45-1.31c-8.53.07-17,1.16-25.56,1.22-.83,0-1.61,1.5-.44,1.5H121.9a4.78,4.78,0,0,1,.45-1.5,89.68,89.68,0,0,0-16,2c-1.21.25-.86,1.36.32,1.12Z"/><path class="cls-2" d="M135.31,56.84V65.1c0,.31,2,0,2-.52V56.94a26.19,26.19,0,0,1,.72-3.88,20.46,20.46,0,0,0,0-2.93l-1.92.59c4.51,4.07,4.8,10.86-.84,14.1l1.61,0c1.66-1.92,2.44-4.34,4-6.29a.11.11,0,0,0,0-.16,6.3,6.3,0,0,0-3.07-2.11c-.45-.1-2.13.62-1.59.75,1.93.46,2.8,1.63,1.88,3.26a26.26,26.26,0,0,1-2.94,4.7c-.46.53,1.4.07,1.61,0,5.88-3.39,6.06-10.39,1.16-14.8-.32-.29-1.88.11-1.88.58a17.3,17.3,0,0,1-.14,3.81,12.84,12.84,0,0,0-.58,3V65.1c0,.31,2,0,2-.52V56.33c0-.31-2,0-2,.51Z"/><path class="cls-2" d="M139.2,75.71c5.86,4.13,16.44,4.31,19.35,11.84a43.92,43.92,0,0,1,2.07,9.57c1.71,11.9,2.15,24,2.6,36,1.3,34.29,1.11,68.66.79,103-.28,30.83-1.36,61.68-1.39,92.51,0,1,2,.69,2-.15,0-56.33,2.19-112.61,1.28-169-.3-18.53-.67-37.13-2.45-55.59a86.16,86.16,0,0,0-2.47-15.5c-2.59-9-13.67-9.18-20.25-13.81-.68-.48-2.38.46-1.49,1.09Z"/><path class="cls-2" d="M75.58,138.52c0,64.24-1.46,128.47-1.49,192.71,0,.93,1.94.57,1.94-.19,0-64.23,1.45-128.47,1.49-192.71,0-.93-1.94-.57-1.94.19Z"/><path class="cls-2" d="M75.2,334.34c12.77,13,33.63,10.83,50.24,10.65,13.57-.15,32.16-2.58,39.08-16.34.49-1-1.47-.95-1.84-.21-6.86,13.64-25.34,15-38.58,15.18-15.62.17-35.17,2.06-47.13-10.12-.6-.61-2.43.17-1.77.84Z"/><path class="cls-2" d="M49.78,95.45c7,7.41,14.14,14.91,18.76,24.14l1.86-.65c-5.4-9-13.71-15.78-18.76-25l-1.86.64c5,7.78,10.85,15,16.26,22.47.38.52,2,0,1.86-.65-1.45-10.11-10.31-17-15.48-25.29L50.94,92c9.84,3.37,11.21,16.13,19.51,21.5.46.3,2.11-.16,1.66-.87-5-7.86-10.38-15.5-15.41-23.36l-1.79.77c5.5,5.32,7.75,13.08,13.7,18,.48.4,2.25,0,1.79-.77C67,101.65,65.33,95.17,61,90.18L59.19,91c4.08,4.51,7,9.86,11.13,14.38.39.43,2.09.06,1.86-.65a58.64,58.64,0,0,0-7.77-16.3c-.41-.56-2.24.06-1.79.77,3.48,5.56,6.69,11.3,11.12,16.18.4.44,2.05.07,1.86-.65-1.79-6.9-5-13.22-7.7-19.77L66,85.57c4.64,4.88,9.15,9.81,11.91,16,.31.71,2,.23,1.93-.51-.38-7.33-4.81-13.88-8.63-19.9L69.46,82c3.53,4.72,6.75,9.66,10.27,14.38.35.47,1.82.1,1.87-.5.58-7.29-3-14.7-7.78-20-.39-.44-2.2,0-1.86.64,3.54,6.39,7.58,12.49,11.13,18.87.35.64,2,.27,1.93-.51C83.9,87.65,80.12,81.59,77.31,75l-1.73.74C80,79,81.76,84.56,85.73,88.26c.41.39,2,.11,1.86-.64-1.32-5.21-4.79-9.48-6.85-14.38l-1.86.65A84.22,84.22,0,0,1,90,86.47c.37.47,2.09,0,1.87-.65a56,56,0,0,0-7.78-15.41l-1.79.78c4.75,3.65,7.2,9.08,11.13,13.48.41.46,2,.08,1.86-.65a43,43,0,0,0-8.63-19l-1.79.78c3.2,3.65,5.16,10.35,9.54,12.68.59.31,2.36-.53,1.53-1-4.2-2.23-6.2-9-9.28-12.49-.45-.51-2.29.12-1.79.78a42.38,42.38,0,0,1,8.49,18.74l1.86-.65c-3.93-4.39-6.38-9.83-11.13-13.48-.47-.36-2.33,0-1.79.78a54.49,54.49,0,0,1,7.63,15.15l1.86-.65A84.22,84.22,0,0,0,80.67,73.11c-.4-.34-2.17-.07-1.86.65,2.06,4.9,5.53,9.17,6.84,14.37l1.86-.64c-4.05-3.79-5.87-9.37-10.4-12.68-.37-.27-2,.11-1.73.74,2.81,6.56,6.59,12.62,7.71,19.77L85,94.81c-3.55-6.39-7.58-12.49-11.13-18.87L72,76.58c4.62,5.18,8.2,12.4,7.63,19.5l1.86-.5C78,90.86,74.78,85.92,71.25,81.2c-.41-.55-2.24.06-1.79.77,3.78,6,8.12,12.39,8.49,19.64l1.93-.51c-2.8-6.32-7.34-11.35-12-16.31-.39-.41-2.15,0-1.86.65,2.74,6.55,5.91,12.86,7.7,19.77l1.86-.65c-4.43-4.88-7.64-10.62-11.12-16.17l-1.79.77a57.76,57.76,0,0,1,7.63,16l1.86-.65C68,100.05,65.06,94.7,61,90.18c-.47-.52-2.31.17-1.79.78,4.34,5,6.07,11.48,9.42,17.07l1.79-.77c-6-4.89-8.2-12.65-13.7-18-.47-.46-2.26,0-1.79.77,5,7.86,10.38,15.5,15.41,23.36l1.66-.87c-8.5-5.5-9.67-18.14-19.87-21.63-.45-.15-1.9.26-1.48.94,5.12,8.17,13.9,15,15.34,25l1.86-.65c-5.41-7.5-11.24-14.68-16.26-22.46-.35-.54-2.17.08-1.86.64,5.1,9.35,13.45,16.2,18.9,25.29.32.55,2.15,0,1.86-.64-4.66-9.32-11.78-16.91-18.9-24.39-.5-.52-2.33.2-1.79.77Z"/><path class="cls-2" d="M50.56,97.12c2.73,9.41,11.5,15.78,14.55,25.16l1.76-.65c-9.22-3.69-15.09-13.18-22.14-19.72-.34-.31-2.1.28-1.87.6,5,7.2,9.23,14.91,13.69,22.47l1.88-.6C52.38,119,46,114.1,39.6,109.1c-.39-.3-2.19.27-1.82.68,4.12,4.49,7.47,10.35,13.82,11.74.48.11,2.18-.66,1.57-.79-6.24-1.37-9.54-7.23-13.57-11.63l-1.82.68c6.36,5,12.79,9.9,18.83,15.28.32.28,2.1-.22,1.88-.6C54,116.9,49.84,109.19,44.79,102l-1.87.6c7.14,6.63,13,16.1,22.37,19.83.29.12,1.92-.15,1.75-.66C64,112.38,55.22,106,52.49,96.6c-.14-.5-2.07,0-1.93.52Z"/><path class="cls-2" d="M81.87,171.85a146.13,146.13,0,0,1,43.35-8.8,121.86,121.86,0,0,1,22.26,1c3.38.46,6.72,1.15,10,1.93,2.73.65,7.27,1.1,8.59,3.88.32.68,2.21.07,1.93-.52-1.19-2.49-1.57-2.21-4.44-3.1A102.07,102.07,0,0,0,152,163.57a120.89,120.89,0,0,0-24.33-1.7A145.22,145.22,0,0,0,81.1,171c-1.27.46-.11,1.14.77.81Z"/><path class="cls-2" d="M81.64,183.72c14.13-3.33,28.11-7.16,42.61-8.52,11.39-1.07,27.61-2.12,36.93,5.75.59.5,2.32-.36,1.51-1-9.06-7.65-23.41-6.76-34.52-6.26-15.94.73-31.41,5.24-46.85,8.88-1.19.29-.86,1.47.32,1.19Z"/><path class="cls-2" d="M78.89,249.14c7.31,8,21.77,6.26,31.53,6.63,17.36.68,33.71-3.44,50-9.1,1.14-.4.83-1.69-.35-1.29-14.28,5-28.54,8.76-43.74,9.07-6,.12-12.18,0-18.18-.44-5.83-.41-13.29-1.13-17.47-5.71-.58-.63-2.42.14-1.77.84Z"/><path class="cls-2" d="M78.13,265.31c25.5,7.37,59.74,11.14,82.85-4.82.85-.58-1.1-.45-1.51-.17-12.1,8.35-27.29,10.11-41.64,9.94a143.56,143.56,0,0,1-38.13-5.78c-.5-.14-2.24.64-1.57.83Z"/><path class="cls-2" d="M79.66,172.6a18,18,0,0,0,6.21,7.45,1.27,1.27,0,0,0,1.72-.61,15.51,15.51,0,0,0,0-8.25l-1.86.66a15.14,15.14,0,0,0,4.64,5.5c.41.3,1.94,0,1.94-.61v-3.59c-1,.12-1.51.23-2.16.35,1.73,3.5,3.55,6.33,6.95,8.35.42.25,1.69.06,1.67-.62-.09-4.8-.8-9.56-.88-14.37l-2,.19c.19,4.82,1.74,8.92,6.2,11.2.55.28,1.56.06,1.73-.61a36.14,36.14,0,0,0,.85-9l-1.94.36a11.89,11.89,0,0,0,6.2,6.55,1.38,1.38,0,0,0,1.67-.45c2.35-4,1.86-8.23,1.77-12.75l-1.94.36c.29,4.61,2.19,8.55,6.16,11,.43.27,1.68.05,1.68-.61v-8.09a11.39,11.39,0,0,0-1.81.5c1.55,2.63,2.78,5.19,5.15,7.19a1.26,1.26,0,0,0,1.88-.5,40,40,0,0,0,.86-9.89l-1.94.36c.27,3.48,1.63,6.55,2.57,9.88.22.76,1.61.3,1.88-.19a20.35,20.35,0,0,0,2.63-9.15l-1.33.73c.7,0,3.05,7.51,3.75,8.76.36.64,1.71.06,1.86-.5a31.89,31.89,0,0,0,.85-8.09l-1.86.5a19.32,19.32,0,0,0,7.84,8.2c.43.25,1.73.07,1.73-.61a17.44,17.44,0,0,0-.86-6.46c-.31-.78-2.22-.23-1.94.52a23.11,23.11,0,0,0,4.12,7.34c.39.45,1.62.21,1.62-.5V166c0,.16-1,.33-1.62.5,1.89,3.1,3.48,6.23,5.88,9,.39.46,1.74.22,1.74-.5v-7.18c0,.24-.65.48-1.09.72,1.09,0,2.27,3.14,2.79,4a6.9,6.9,0,0,0,3.86,3.11c.41.17,1.44-.1,1.44-.69v-6.29a8,8,0,0,1-1.78.36,76.41,76.41,0,0,0,2.65,7.19c.35.79,1.75.28,2-.36a21.23,21.23,0,0,0,.87-7.19l-1.93.36c1.52,4.1,2.81,8.15,5.22,11.82.42.65,2.29,0,1.78-.8-2.36-3.59-3.58-7.55-5.06-11.54-.25-.7-1.93-.37-1.93.35a21,21,0,0,1-.86,7.19l1.94-.35a74.41,74.41,0,0,1-2.75-7.19c-.23-.72-2.13-.36-2.13.35v6.29a6.19,6.19,0,0,0,1.73-.69c-3.36-1.31-3.58-7.22-6.73-7.22-.39,0-1,.17-1,.73v7.18c0-.16,1-.33,1.63-.49-2.4-2.76-4-5.89-5.88-9-.33-.54-1.75-.15-1.75.5v7.19c0-.17,1-.34,1.63-.5a23.13,23.13,0,0,1-4.32-7.05c-.64.18-1.34.35-2,.52a16.66,16.66,0,0,1,.82,6.13l1.71-.61a18.92,18.92,0,0,1-7.57-8c-.3-.57-1.86-.12-1.87.5a32.35,32.35,0,0,1-.85,8.09l1.86-.5a42.31,42.31,0,0,1-3.35-8.65c-.08-.25-.37-.19-.61-.19h-.86c-.41,0-1.3,0-1.33.54a19.26,19.26,0,0,1-2.5,8.73c.62-.07,1.25-.18,1.88-.24-.94-3.33-2.31-6.42-2.57-9.91-.06-.74-1.94-.35-1.94.35a39.87,39.87,0,0,1-.86,9.87l1.87-.5c-2.38-2-3.65-4.56-5.21-7.19-.33-.54-1.94-.14-1.94.5v8.09a8.43,8.43,0,0,0,1.8-.62c-3.77-2.37-5.47-6.17-5.74-10.52-.05-.73-1.94-.35-1.92.35.08,4.34.64,8.5-1.64,12.42l1.67-.45a10.76,10.76,0,0,1-5.78-6c-.28-.68-1.93-.39-1.94.35a36.14,36.14,0,0,1-.85,9l1.73-.61c-4.15-2.12-5.6-5.91-5.78-10.36,0-.93-2-.57-1.94.19.08,4.8.76,9.57.85,14.37l1.73-.61c-3.27-1.94-4.79-4.49-6.44-7.83-.32-.64-1.75-.41-1.75.36v3.59c0-.2,1-.41,1.54-.61A14.13,14.13,0,0,1,87.61,171c-.33-.62-2.09-.07-1.91.66a15.13,15.13,0,0,1,0,7.93l1.72-.61a16.4,16.4,0,0,1-5.79-6.94c-.33-.78-2.24-.21-1.94.52Z"/><path class="cls-2" d="M81.63,255.44c-7,.78,1.32,10.3,4.21,11.69.37.18,1.89-.07,1.75-.69-1.13-5-3.28-9.63-5.14-14.38-.23-.59-2.1-.07-1.93.52,1.58,5.65,7.37,9.65,12,12.68.41.27,2,.08,1.86-.62-.37-3.13-1.85-5.57-3.49-8.19l-1.8.72c4,4.37,6.91,9.59,12.11,12.66.36.21,1.69-.06,1.74-.57.44-5.21-2.33-9-4.28-13.6-.24-.58-2.07-.1-1.93.51,1.44,6.4,7.67,13,14.06,14.6.35.09,1.51-.12,1.56-.62.48-4.55-1.77-7.48-4.34-11l-1.8.73c3.93,3.26,7.15,7,12.28,8.21.41.1,1.62-.16,1.57-.74-.35-4.24-2.45-7.93-4.28-11.68l-1.93.51c2.21,4.16,5.9,8.45,10.46,10.06.34.13,1.93-.06,1.74-.69-1.07-3.47-3.21-6.42-4.28-9.88l-1.87.62c3.56,2.27,5.43,6.21,8.56,9,.41.37,1.9,0,1.87-.62-.19-4.09-1.53-7.76-2.57-11.68-.16-.6-2.07-.09-1.93.52a19.25,19.25,0,0,0,6.74,10.88c.43.37,1.69,0,1.69-.62v-7.19c0,.18-1.11.35-1.76.52,3,8.07,9.39,4.26,7.16-3.21-.18-.6-2-.11-1.89.52.47,4.14,3.08,7.07,5.84,10,.4.42,1.65,0,1.65-.62v-9c0,.17-1.05.34-1.69.51,1,2.49,2.56,4.71,3.54,7.19.26.66,1.76,0,2-.39,1.46-2.86,1.79-5.92,2.59-9l-1.91.4a18.2,18.2,0,0,0,3.49,6.39c.34.4,1.77,0,1.87-.5.49-2.61.85-5,2.62-1.64a50,50,0,0,1,2.3,5.63c.23.61,2.14,0,1.94-.52-.78-2-2.16-8.24-4.91-8.65-3-.46-3.49,3.43-3.87,5.45l1.86-.5a17.87,17.87,0,0,1-3.35-6.18c-.21-.6-1.8-.1-1.93.39-.8,3.08-1.1,6.13-2.57,9l1.93-.4c-1-2.48-2.21-4.7-3.2-7.18-.24-.62-1.7-.1-1.7.51v9c0-.21,1-.41,1.64-.62-2.69-2.84-5.58-5.73-6-9.78-.64.17-1.35.34-2,.52a11.47,11.47,0,0,1,.58,4.7c-.34,3.67-3.67-1.55-4-2.53-.23-.61-2.16-.09-2.16.52v7.19a14.65,14.65,0,0,0,2.08-.62A19.13,19.13,0,0,1,127.71,253l-1.88.52c1,3.91,2.4,7.59,2.59,11.68l1.88-.62c-3.13-2.77-5-6.71-8.55-9-.36-.23-2.07-.05-1.86.62,1.07,3.47,3.2,6.42,4.28,9.89l1.74-.7c-4.33-1.53-8-5.75-10.08-9.7-.31-.59-2.17,0-1.93.51,1.83,3.76,3.93,7.45,4.28,11.68l1.57-.74c-4.9-1.19-8-4.88-11.69-8-.41-.34-2.24.13-1.8.73,2.48,3.4,4.68,6.14,4.22,10.56l1.56-.62c-6-1.5-12-8.21-13.33-14.15l-1.93.51c1.91,4.52,4.72,8.22,4.28,13.36l1.74-.58c-5.09-3-8-8.23-11.86-12.5-.38-.42-2.18.11-1.8.72,1.67,2.67,3,4.87,3.36,8l1.87-.62c-4.58-3-10.38-7-11.92-12.48l-1.93.52c1.86,4.74,4,9.38,5.13,14.38l1.75-.7c-1.55-.74-8.66-9.58-6.06-9.87.89-.1,1.64-1.1.29-.95Z"/><path class="cls-2" d="M85.65,330.59c-.32,3.18,13.91,4.34,16.13,4.64,12,1.63,24.09-2.14,36.09-2.31.8,0,1.62-1.27.46-1.26-18.66.15-37,4.35-55.64,4.5-.53,0-2.1.93-.92,1.22,9.11,2.22,18,4.41,27.49,4.16,10.62-.28,21.46-2.12,32-3.23.36,0,1.68-.74.86-1.14-7.16-3.51-19.05-5.64-25.51.29a.45.45,0,0,0,0,.74c11.34,5.85,28.76,0,38.19-7.33,1-.81-.57-1.27-1.25-.74a45.3,45.3,0,0,1-28.13,8.92c-.27,0-8-1.06-5.23-2.59,2.4-1.32,5.55-1.3,8.2-1.21a30.48,30.48,0,0,1,12.19,2.95l.86-1.14c-9.46,1-19,1.69-28.4,2.94-10.23,1.35-20.34-1.4-30.19-3.81L82,337.42c18.65-.15,37-4.35,55.63-4.49.15-.42.3-.84.46-1.26-10.82.15-21.63,3.3-32.44,2.64-1.91-.12-18.24-1.94-18-3.91.09-.9-1.87-.58-1.94.19Z"/><path class="cls-2" d="M79.66,326.26A11,11,0,0,0,84.14,331c.56.3,2.34-.5,1.53-.94a10.21,10.21,0,0,1-4.08-4.28c-.33-.68-2.21-.06-1.93.51Z"/><path class="cls-2" d="M84,283.93c-3.56,13.2-.89,27.08-1.72,40.54,0,.34,1.89.09,1.93-.52.83-13.39-1.84-27.2,1.7-40.34.13-.48-1.77-.2-1.91.32Z"/><path class="cls-2" d="M82.21,298.21a158.76,158.76,0,0,0-1.71,21.56c0,1.07,2,.82,2-.12a158.76,158.76,0,0,1,1.71-21.56c.15-1-1.83-.82-2,.12Z"/><path class="cls-2" d="M82.79,308.46c.56,0,2.1-.85.81-.85-.56,0-2.1.85-.81.85Z"/><path class="cls-2" d="M80.51,140.08c-1.64,6.78-.91,13.76-.86,20.67l1.95-.17c-.06-6.3-.78-12.57-.85-18.87,0-1-2-.65-2,.17.06,6.3.79,12.56.85,18.87,0,1,2,.64,1.95-.17,0-6.91-.78-13.88.86-20.67.21-.9-1.76-.64-1.95.17Z"/><path class="cls-2" d="M78.14,204.75c.06,7,1.06,14.3-1,21.12l2-.17c-.09-5.14-1-10.22-.43-15.37.08-.74,2.69-8.81,4.1-7.38,3.26,3.31-1.14,7.76-3.38,10.13-.82.87.91,1,1.43.65,3.36-2.25,5.72-1.24,5.08,2.75a7.18,7.18,0,0,1-5.36,6l.33,1.24a4,4,0,0,0,1.5-.76c1.09-.73-.52-1.3-1.26-.81l-.57.33c-1.21.25-.86,1.48.33,1.24,4.11-.84,7.54-5.08,7.12-9.38-.5-5.07-5.54-3.33-8.43-1.39l1.43.65c2.43-2.56,5.29-5.55,4.71-9.34-.33-2.17-2.48-3.86-4.29-2.23-7,6.35-4.42,15.36-4.26,23.86,0,1,1.73.55,2-.17,2.09-6.82,1.1-14.1,1-21.12,0-1-2-.63-2,.17Z"/><path class="cls-2" d="M92.17,206.36c-1.55,1.54-1.88,4.17-2.3,6.21-.62,3-.93,6-1.39,9.05l1.58-.57c-.51,0,.36-7.16.47-8,.44-3.24,1-7.14,3.18-9.75,3.15-3.85,4,6,4,7a43.28,43.28,0,0,1-.68,6.43c-.13.74-.3,1.47-.48,2.2-.42,1.6-.91.9.78,1-.43,0-2.22.75-1.25.8,3.13.18,3-5.15,3.28-7.19.38-3.05,1.68-11.5-3.34-11.68-8-.29-8,14.58-8,19.93,0,.13.28.27.34.27h.52c.31,0,1.51-.24,1.58-.69.37-2.44.66-4.95,1.07-7.38s.67-6,2.46-7.77c.42-.43-1.42-.24-1.75.1Z"/><path class="cls-2" d="M90.54,217.38a8,8,0,0,1,6.37-.35c.55.21,2.31-.61,1.55-.9a11.39,11.39,0,0,0-9.1.73c-.26.13-.59.53-.19.71a1.74,1.74,0,0,0,1.37-.19Z"/><path class="cls-2" d="M103.47,203c-1.21,2.68-1,5.63-.93,8.51a43.11,43.11,0,0,1-1.71,11.16c-.12.48.57.6.88.58,3.05-.2,6-1.34,9-1.08a1.25,1.25,0,0,0,1.32-.75c.54-1.8,1-3.62,1.55-5.42.25-.86-1.72-.62-2,.17-.54,1.8-1,3.62-1.54,5.42l1.32-.75c-3.29-.28-6.28.86-9.53,1.08l.88.58a68,68,0,0,0,1.65-9.06c.38-3.42-.6-7,.87-10.26.44-1-1.51-.91-1.84-.18Z"/><path class="cls-2" d="M97.81,217.63c-1,1.71-1.18,3.65-1.61,5.56l1.94-.23a33.11,33.11,0,0,1,.51-7c.17-.78-1.78-.47-1.93.22a32.52,32.52,0,0,0-.52,7c0,.86,1.79.43,1.94-.23.4-1.79.53-3.65,1.48-5.26.48-.82-1.47-.65-1.81-.07Z"/><path class="cls-2" d="M127.84,204.17c-5.32-3.1-13.46-.62-13,6.39.17,2.82,3.18,3.79,5.39,4.54,2.37.81,4.05,2.84,1.92,5.2-1.72,1.9-5.79,1.63-8.1,1.63l-.72,1.21a28.69,28.69,0,0,0,11.31-2c1.94-.86,4.44-3.41,3.23-5.64-1.09-2-5.51-1.88-7.41-2.18-2.4-.37-8-6.05-2.8-6.73a50.38,50.38,0,0,1,6.5-.22c.79,0,2-1.2.72-1.2-2.9,0-6.24-.3-9,.68-3.35,1.2-2.13,4.87-.32,6.65,2.34,2.31,5.61,2,8.57,2.73,3.81.91,1.47,4.22-1,5.34-2.71,1.2-6.09,1.35-9,1.38-.78,0-2,1.21-.72,1.21,3,0,6-.11,8.85-1.38,1.94-.88,3.9-3.58,2.47-5.71s-4.26-2.18-6.25-3.34c-2.17-1.26-1.91-4.25-.95-6.17,1.63-3.28,6.25-2.91,8.89-1.37.61.35,2.37-.51,1.52-1Z"/><path class="cls-2" d="M134.45,204.16c-3.6,4.4-2.59,11.11-3.69,16.36l1.93-.41c0-1.61,2-16.81,4.65-15.17,3.47,2.16,1.69,11.43.64,14.5l1.75-.56c-3.51-.8-5.93-3.69-9.67-3.49-.56,0-2.12.71-.8.71h10.83c.38,0,1.35,0,1.36-.52.07-2.16.48-4.25-1.09-5.94-.35-.39-1.86.11-1.87.65-.1,4.54-.93,9-1,13.56,0,.45,1.83.09,1.92-.39a1.7,1.7,0,0,1,.52-1.08c.21-.35-1.6-.21-1.92.3a1.79,1.79,0,0,0-.51,1.09l1.92-.41c.1-4.53.93-9,1-13.54l-1.87.61c1.5,1.63,1,3.62,1,5.62.46-.23.91,0,1.37-1H130.06c-.27,1-.54.85-.8,1.15,3.28-.18,5.8,2.62,8.9,3.33.45.1,1.55,0,1.74-.5,1-2.92,3.18-16.36-2.86-15.41-5.79.91-6.21,12.57-6.28,16.94,0,.46,1.82.08,1.92-.4,1.06-5.1,0-11.86,3.54-16.12.45-.56-1.44-.33-1.77.07Z"/><path class="cls-2" d="M150.16,207.58a1.54,1.54,0,0,0-1.32-.63c-.36,0-1.47.13-1.57.58a137.19,137.19,0,0,0-2.58,14.08l1.92-.42c0-5.4.35-11,2-16.14l-1.74.56c3.16,1,2.61,6.51,3.43,9.06.17.52,1.47,0,1.72-.19,3.47-2.17,4.74-6.34,7.35-9.32l-1.85.31c1.4,5.19.11,10.44,0,15.7,0,.38,1.92.09,1.94-.52.16-5.57,2.48-11.31.51-16.78-.11-.32-.85-.15-1.06-.09-4.55,1.34-6.16,6.87-9,10.14l1.85-.31c0-1.78,1.61-10.4-1.74-9.85-6.66,1.1-4.38,13.05-5.86,17.31-.15.45,1.73.21,1.92-.32.87-2.52.81-5.24.93-7.88a19.92,19.92,0,0,1,.89-5.27,7.9,7.9,0,0,1,1.14-2c.51-.73,1-.61.34-1,1.81,1,.48,7.8.45,9.5,0,.51,1.67-.11,1.84-.31,2.23-2.53,4.11-8.36,7.47-9.35l-1.06-.09c2,5.48-.36,11.21-.52,16.79l1.94-.52c.11-5.26,1.4-10.51,0-15.7-.15-.54-1.64.06-1.85.31-2.51,2.87-3.77,7-7.09,9.09l1.72-.19c-.93-2.87-.24-8.24-3.79-9.35-.42-.13-1.58.06-1.75.56-1.72,5.21-2,10.89-2.07,16.34,0,.41,1.86.06,1.92-.41a140,140,0,0,1,2.58-14.08l-1.57.58.74.46c.41.37,2.17-.35,1.81-.68Z"/><path class="cls-2" d="M98.13,237.44c-.8-3.23,9.84-.74,11.07-.26,3.52,1.39,6.53,3.62,10.33,4.28a6.86,6.86,0,0,0,5.22-1.5c2-1.44,3.46-3.94,5.42-5.53,3.82-3.13,6.77-2.89,9.67-.64,1.43,1.1.16,3.17-1,1.93l-1.29.83c6.22.17,1.95-5.32-2.3-4.83-3.24.38-5.39,1.89-7.48,4.37a42.63,42.63,0,0,1-3.75,3.85c-2.63,2.43-5.44-.35-7.35-1.7-2.26-1.6-4.24-3.56-6.5-5.16-4-2.87-11.29-3.7-14,1.49s1.18,8.08,6.06,6.15c.21-.08.81-.37.54-.67-1.81-2.06-4.75-2-6,.61-.14.29.43.44.57.44h1.55c.62,0,2.08-1.06.78-1.06,1.34.18.87.22-1.39.22a2.91,2.91,0,0,1-1.08-1.94c-.52-2,.83-4.3,2.25-5.58,5.44-4.94,13.67,5.58,17.92,7.95,2.55,1.42,4.63,1.64,7.18.21a18.73,18.73,0,0,0,3.92-3.68c2.09-2.23,4-5.42,8.17-4.22-.06,0,4.15,2.66,1.72,2.6-.24,0-1.74.36-1.3.83l1,1.08c.21.22.76.13,1,.05,4.26-1.37,4.44-4,.12-5.93-5.11-2.22-10.77,2.45-14,5.83-4.89,5.11-9.58,1.09-14.42-1.13a22.3,22.3,0,0,0-7.5-1.49c-2-.15-7.92-.33-7.06,3.12.15.56,2.08.06,1.93-.52Z"/><path class="cls-2" d="M105.76,183.42c-3.4-.36-5.84.77-7.45,3.83a.47.47,0,0,0,0,.51,10.27,10.27,0,0,0,9.1,4.54c5.58-.24,12.62-3.66,17.21.87a1.23,1.23,0,0,0,1.68-.16c4.94-5.57,18.29,1.89,19.78-9,.49-3.62-6.57-4.93-6.6-.38,0,.62.7.62,1.15.54q1.4,5.94-3.12,5.71a19.36,19.36,0,0,1-4.62-.26,32.37,32.37,0,0,0-4.28-.36c-2.82,0-5.1,1.94-7,3.78l1.69-.16c-2.36-2.56-5-3-8.35-2.76-2.9.21-5.65,1.06-8.57,1a5.92,5.92,0,0,1-4.7-2.13c-1.62-2,0-5.52,4-3.31.7.39,2.42-.56,1.5-1.07-3.45-1.92-8.56-1.31-7.92,3.7.31,2.41,3.19,3.74,5.28,4,5.49.67,12.69-3.31,17,1.37a1.25,1.25,0,0,0,1.69-.16c4.12-4,7.82-2.45,12.78-2.29,2,.06,4.78-.27,6.42-1.54,3.24-2.54,2.5-7.64-2.12-6.79l1.14.54c2.57-1.24,3.28-.32,2.16,2.76a7.42,7.42,0,0,1-5.26,3.35c-2.08.34-4.26-.13-6.35-.07-3,.1-5.26.71-7.28,3l1.69-.16c-2.59-2.57-5.56-3-9.1-2.74-2.53.21-5,.87-7.55,1.21a13.86,13.86,0,0,1-4.72-.13,7.42,7.42,0,0,1-2.62-1.23q-4.31-2.65,2.65-4.69c.9.1,2-1.2.68-1.34Z"/></svg>