<svg id="layer1" xmlns="http://www.w3.org/2000/svg" viewBox="0 0 419.26 500.94"><defs><style>.cls-1{fill:#ffe299;}.cls-2{fill:#d69547;}.cls-3{fill:#fcd8b1;}.cls-4{fill:#b71c1c;}.cls-5{fill:#5b3010;}.cls-6{fill:#844c23;}.cls-7{fill:#492d0c;}</style></defs><path class="cls-1" d="M219.65,115.14h0a1.27,1.27,0,0,0,.1-.12c-1.18-8.54-4.35-16.69-6.35-25v-.27a3.38,3.38,0,0,0-.7-2c-.13-.55-.32-1.09-.45-1.64a1.34,1.34,0,0,0-1.14-1c-.05-.18-.12-.36-.17-.55a3.3,3.3,0,0,0-1.38-1.92c-1.3-2.44-6-2.19-6.45.86-.39,2.57-.88,5.14-1.06,7.72a3.37,3.37,0,0,0-1.65,2.8v3.87c0,.17-.28.36-.42.57a3.71,3.71,0,0,0-1.58,3v2.13a3.19,3.19,0,0,0,1,2.27c-.41,6.21-.9,12.36,1.37,18.37a1.51,1.51,0,0,0,2.9-.8A35.53,35.53,0,0,1,203.2,110a3.72,3.72,0,0,0,3.15-.27,4.14,4.14,0,0,0,.38.35,75.69,75.69,0,0,0,3.79,10.33c.75,1.57,3.18.44,2.75-1.16a60.24,60.24,0,0,1-1.89-9.74,3.35,3.35,0,0,0,.82-3.2c-.12-.42-.25-.82-.4-1.22a3.12,3.12,0,0,0,.32-1.42l0-1.06.25-.1,4.43,13.32c.5,1.52,3.17,1.41,2.94-.35A1.23,1.23,0,0,0,219.65,115.14Z"/><path class="cls-1" d="M165.33,102.46c0-.32-.07-.63-.08-.95a3.39,3.39,0,0,0-2.51-3.22,42.5,42.5,0,0,1-1-4.77c-.14-1.6-.33-3.2-.33-4.8h0c0-.31-.29-.62-.34-.93-.59-4-7.09-3-7,.93a37.83,37.83,0,0,0,.66,6.17c.05.69-.11,1.38-.07,2.07a1.64,1.64,0,0,0-2.27,1.35v4.26c0,.2.24.38.31.55a29.27,29.27,0,0,0,1.09,6.24,1.46,1.46,0,0,0,1.21,1c0,.19.1.37.14.56a3.93,3.93,0,0,0,.2.55,49,49,0,0,0,.88,5.84,3.06,3.06,0,0,0,3,2.5,26.87,26.87,0,0,0-.08,6V126h0l0,.4c.25,1.72,2.93,1.23,3-.4a61.23,61.23,0,0,1,.55-7.33l.24-.1c.21,2.12.4,4.23.46,6.37a1.49,1.49,0,0,0,3,0v-5.33c0-1.59.57-3.05.34-4.51a3.13,3.13,0,0,0,1.69-3A19,19,0,0,0,166.9,104,2.87,2.87,0,0,0,165.33,102.46Z"/><path class="cls-2" d="M140.83,188.51a111.71,111.71,0,0,0-1.08-14.95,1.19,1.19,0,0,0-1-1c0-4.43-.15-8.86-.44-13.28-.28-8.24-.57-16.47-.59-24.71,0-1.21-1.7-2.1-2.57-1.06-.62.76-1.67,1.76-2.47,2.8a1.81,1.81,0,0,0-.42.16c-3.6,2.08-5.45,3-7.61,6.32-3.09.82-3.91,5.77-4.52,8.55-1.36,6.14-.62,12.73.79,18.79a1.42,1.42,0,0,0,1.27,1.07,78.28,78.28,0,0,0,1.92,8.52,1.55,1.55,0,0,0,.31.53q-.06,1.24-.09,2.49a1.45,1.45,0,0,0-.27.84c0,1.05,0,2.12-.08,3.2a48.8,48.8,0,0,0-.3,7.74A28.76,28.76,0,0,0,125,210.2c-.91,9.09,1.45,20.25,9.45,24.35v.13a1.74,1.74,0,0,0,1.77,1.46h1.06a1.5,1.5,0,0,0,1.45-1.08c.62-2.13.44-4.24,1.06-6.38a1.33,1.33,0,0,0-.43-1.47c.13-1.27.2-2.55.24-3.87,0-.12-.15-.24-.15-.38v-2.13a1.39,1.39,0,0,0-.22-.84c-.21-1.73.22-3.47-.78-5.19v-3.56c0-.61-.14-1-.56-1.25-.12-.89-.14-1.79-.24-2.69a1.62,1.62,0,0,0,.88-2.14c-.56-1.25-1.24-1.89-1.89-2,0-.48,0-1,0-1.45a1.51,1.51,0,0,0-2.6-1c0-1,.06-1.89.06-2.84a16.35,16.35,0,0,1,1.71-3.22,1.65,1.65,0,0,0,1.74-.85c.18.41.37.81.57,1.21.67,1.39,2.79.67,2.79-.75v-.74a1.4,1.4,0,0,0,1-1.79Zm-15.65-17.4c-.18-1-.34-2.1-.47-3.16.18-.5.32-1,.46-1.5.08.53.17,1.06.26,1.59C125.36,169.06,125.28,170.09,125.18,171.11ZM134,230.34l0,.21c-3.61-3-5.44-8-6-13.11,1.9,4.1,4,8.17,5.57,12.31A1.72,1.72,0,0,0,134,230.34Z"/><path class="cls-2" d="M161.48,145c.22.75.4,1.51.55,2.28-4.76,14,.34,31.27,2.54,45.2.24,1.55,2.19,1.23,2.79.16,0,.51,0,1,0,1.54v0h.29s0,.3.06.43a1.38,1.38,0,0,0,1.93,1l.18.08c.8.23,1.58.5,2.36.78a23.45,23.45,0,0,0,.85,3.5c.43,1.26,2.67,1.59,2.9,0,0-.28.06-.56.1-.84.75.19,1.49.34,2.23.46,0,.13.07.26.1.38.37,1.35,2.65,1.53,2.89,0h0l.06,0c.9.05,1.8.08,2.74.08a1.43,1.43,0,0,0,1.35-2,1.76,1.76,0,0,0,0-1,1.06,1.06,0,0,0,.09-.25c.33-1.85.62-3.7.9-5.55a1.57,1.57,0,0,0,2.35-1.24c0-.26.05-.52.07-.77a1.48,1.48,0,0,0,2-1c1.46-6.53,3-13.06,4.22-19.63,3.26-5.29,6.09-10.84,9.73-15.88,2-1.27,4-2.6,6.07-3.82a9.08,9.08,0,0,1,.91-.05,1.48,1.48,0,0,0,1.44-1.29,34,34,0,0,1,4.29-2l.21-.1a1.31,1.31,0,0,0,1.9-.95c.18-1,.33-2.05.46-3.08,3.51.16,6.78.21,10.21-1.2l0,0c.66.3,1.33.61,2,.94a1.51,1.51,0,0,0,2.21-1.63l1.75,1.39a1.52,1.52,0,0,0,2.56-1.06,4.77,4.77,0,0,0-1-2.86c.64.34,1.29.66,2,1a1.65,1.65,0,0,0,1,.1c.56.84,1.1,1.69,1.64,2.56,1,1.65,3.6.14,2.59-1.52l-.66-1a1.71,1.71,0,0,0,.42-2.46,35.69,35.69,0,0,0-7.46-6.72,33.5,33.5,0,0,0-3.19-2.86,1.52,1.52,0,0,0-2.1,0,28.82,28.82,0,0,0-5-1.51,1.51,1.51,0,0,0-.3,0l-1.47-.9a1.35,1.35,0,0,0-.73-.2,25.07,25.07,0,0,0-1.93-4.59,1.51,1.51,0,0,0-2.79.76c0,.27,0,.54.05.8a1.52,1.52,0,0,0-2.18,1.33,29.25,29.25,0,0,0,.32,4.09,1.67,1.67,0,0,0-2.32.7,27.83,27.83,0,0,0-1.6-3.42c-.58-1-2.56-1-2.74.36-.11.81-.19,1.61-.25,2.4l-.06-.5v0a1.62,1.62,0,0,0-.14-.94,21.79,21.79,0,0,0-2.15-6.6,1.49,1.49,0,0,0-1.79-.64,1.55,1.55,0,0,0-2.07,1.39,45.5,45.5,0,0,0,.49,5.74c0,.3,0,.6,0,.9-.71-.9-2.3-1-2.57.42-.15.73-.28,1.47-.42,2.2a1.62,1.62,0,0,0-1.72,1c-.09.22-.17.45-.27.68a1.51,1.51,0,0,0-2.54-1.34c-6.74,8.25-9.86,18.4-13.17,28.36l0,.15a1.67,1.67,0,0,0-1.26,0c0-.62,0-1.24,0-1.86a1.38,1.38,0,0,0-1.16-1.41c-.43-1.32-2.5-1.67-2.85-.06l0,.13c-.11-2.4-.21-4.79-.22-7.19A1.55,1.55,0,0,0,177,145c-.3-2.41-.61-4.86-.93-7.26a1.58,1.58,0,0,0-1.5-1.55h-1.07c-.07,0-.14.06-.22.07-.48-1.79-1-3.54-1.53-5.29a1.5,1.5,0,0,0-2.94.43c0,.92,0,1.79,0,2.79h-.66a1.47,1.47,0,0,0-1.3.72,39,39,0,0,0-1.7,4.83c-.28-1.49-.53-3-.83-4.48-.35-1.69-2.9-1.27-2.9.39v1.81c-1-.42-2.58.52-2.13,1.78C160,141.15,160.74,143.06,161.48,145Zm62.06-8.34h0a1.39,1.39,0,0,0,.91.42c.18.12.37.23.56.34-.56,0-1.13.09-1.69.15C223.4,137.26,223.47,137,223.54,136.65Zm-12.36-6a29.26,29.26,0,0,0,.69,4.58c-.36-.75-.68-1.51-1-2.28C211,132.19,211.11,131.43,211.18,130.66ZM206,144.46a1.7,1.7,0,0,0,1.5-.39,2.79,2.79,0,0,0,.4.44,5.62,5.62,0,0,1-.91.33,1.33,1.33,0,0,0-1,1.1l-.13-.06a1.35,1.35,0,0,0-.2-.44C205.78,145.12,205.91,144.79,206,144.46Zm-6.7,3.87c.49-1.29,1-2.58,1.46-3.88a1.49,1.49,0,0,0,1.51-.48c-.15,1-.31,2-.45,2.95a2,2,0,0,0,0,.73c-.87,1.57-1.73,3.14-2.56,4.73l-.28.27a1.5,1.5,0,0,0-.41.7c-.07.1-.15.19-.23.29Q199,151,199.33,148.33ZM195.16,151c.09-.18.19-.36.27-.54a1.56,1.56,0,0,0,.4,1,2.08,2.08,0,0,1-.05.3c0,.18-.07.36-.1.53a1.8,1.8,0,0,0-.56.21C195.14,152,195.15,151.52,195.16,151Zm-8.67,11.71c-.21,2.46-.41,4.92-.63,7.37-.05-1.9-.1-3.81-.14-5.72Zm-11.08,8V171c0,.06-.06.13-.09.19-.31-1.66-.61-3.31-.88-5A22.14,22.14,0,0,1,175.41,170.68Zm-5,16a1.12,1.12,0,0,0,.27-.57v0l.3,1.1a1.55,1.55,0,0,0,.18.39c-.26.76-.53,1.53-.81,2.28C170.31,188.75,170.33,187.69,170.38,186.64Zm-4.9-14.07,0,1.67c-.16-1.32-.3-2.64-.41-4C165.23,171,165.35,171.81,165.48,172.57Z"/><path class="cls-2" d="M234.19,269.21a1.66,1.66,0,0,0,.45-.12,71.1,71.1,0,0,0,7.68,2.2,1.57,1.57,0,0,0,1-.1,1.71,1.71,0,0,0,.43.08,1.37,1.37,0,0,0,1.26-.5c.31.4.59.8.91,1.2.84,1,2.58.15,2.56-1.06,0-.28,0-.55,0-.82l.11,0,.15.93a3.06,3.06,0,0,0,.05.32,1.16,1.16,0,0,0,.74.93c.1.38.21.75.31,1.13a1.51,1.51,0,0,0,3-.4,97.91,97.91,0,0,0-1.12-17.45,1.41,1.41,0,0,0-2.1-.9c-.2-.47-.42-.93-.65-1.39-.21-1.93-.35-3.88-.39-5.83a1.53,1.53,0,0,0-2.26-1.3c-.7.31-1.41.59-2.13.86a1.32,1.32,0,0,0-.71.06,4.72,4.72,0,0,0-.66,0c-.63,0-1.24.08-1.45,1.08h-3.5s-.08,0-.13,0a1.57,1.57,0,0,0-1.32-1.05c-5.09-.5-10.76-.95-16-2.38a66.29,66.29,0,0,0-5.81-4.54,79.16,79.16,0,0,0-6.34-5c-1.27-1.1-2.55-2.19-3.86-3.26a63.91,63.91,0,0,0-10.62-17.41,1.56,1.56,0,0,0-2.2.05c-.61-1.36-1.22-2.7-1.82-4s-2.82-.66-2.8.75.1,2.86.2,4.28c-3.23-1.34-6.45-3-9.88-3.56l-.14,0h0l-.4-.07c-1.69-.18-2,2.59-.4,2.95a12.76,12.76,0,0,1,2.31.73,6.46,6.46,0,0,0-1.49,1,15,15,0,0,0-3.22-1.46,1.24,1.24,0,0,0-.63,0c-.2-.53-.43-1.05-.67-1.57,0-.06,0-.11,0-.15a2.39,2.39,0,0,0-1.33-2.21l-.07,0s-.09-.07-.15-.1l-.06,0a2.18,2.18,0,0,0-.27-.11l-.19,0-.18,0a1.52,1.52,0,0,0-1.2.54l0,0a1.38,1.38,0,0,0-.2.33s-.21.06-.22.09-.26.31-.26.48v2.32c0,.15.2.29.24.41a35.42,35.42,0,0,0,.52,5.05,1.49,1.49,0,0,0-2.76.74v1.07a1.61,1.61,0,0,0,.71,1.18c.45,2,.71,4.3,1.8,6a13.24,13.24,0,0,1,1.61,3.36,1.45,1.45,0,0,0-.51.45,25.11,25.11,0,0,0-1.6,2.54,3.82,3.82,0,0,0-2,1.1,1.59,1.59,0,0,0-1.47-1.36h-1.35a1.44,1.44,0,0,0-1.38,1.13c-.35.35-.69.75-1,1.12a5.49,5.49,0,0,0-1.33-.72c-4.56-1.71-7.19,1.82-8.68,7.35-.21.45-.4.92-.58,1.38-7.19,5.12-5.12,19.28-2.43,28.1.1,1.16.21,2.31.32,3.45-1.07.42-1.56,2.16-.29,2.71l.36.14h0l.12,0c1.2.5,2.39.93,3.59,1.31,2.61,1.13,5.09,2.51,7.65,3.83a1.56,1.56,0,0,0,2.17-1.9c.69.05,1.39.1,2.08.13a35.36,35.36,0,0,0,5.7,1.92,1.38,1.38,0,0,0,.4,0,24.62,24.62,0,0,0,3.86,1,1.54,1.54,0,0,0,1.76-.91c6.35,2.57,14.07,1.55,20.38-1.84.46-.18.93-.38,1.39-.59a1.23,1.23,0,0,0,.58-.57,25.74,25.74,0,0,0,4.47-3.69,29.88,29.88,0,0,0,9.87-3.2,1.34,1.34,0,0,0,.65-1.69C220.14,271.85,227,270,234.19,269.21Zm-3.05-4.57,1.12-.36,2.19,1.58C233.34,265.46,232.24,265.06,231.14,264.64Zm-.46-14.59a1.52,1.52,0,0,0,.63.84l.45.31a1.39,1.39,0,0,0,1,.91h0a1.4,1.4,0,0,0,.14.37c.21.38.41.76.6,1.15-1.27-1.16-2.57-2.3-3.92-3.43C229.94,250.14,230.31,250.1,230.68,250.05ZM225,266.64c.56-.16,1.12-.34,1.68-.53l2.18.86c-1.49.26-3,.55-4.46.87A1.33,1.33,0,0,0,225,266.64Zm-72.52-8v-.14a84.5,84.5,0,0,1,.68-10.9q.34,2,.51,4.08A43.82,43.82,0,0,0,152.5,258.65Zm9.88,7.25a1.91,1.91,0,0,0,.82.07c-.18.44-.37.88-.56,1.31l-.08,0c-.11-.37-.2-.73-.3-1.1ZM155,242.14a5.92,5.92,0,0,1,2.42-2.46c.76-.3,1.14-.28,1.62.16-.92,1.23-1.67,2.4-2.67,3.72v-.35c0-.82-.24-1.07-1.06-1.07Zm1.78,29h0a2.79,2.79,0,0,0-.84.3c0-.36-.12-.6-.17-1,.14-.46.27-1,.39-1.44.25.61.52,1.16.82,1.75C157,271,156.89,271.14,156.82,271.14Zm1.07-16.74c0-2.05,0-4.08,0-6.06a30.64,30.64,0,0,1,2.7-5.21c0,.28.08.58.11.88A42.37,42.37,0,0,0,157.89,254.4ZM162,276.69c-.4-.36-.8-.74-1.19-1.12a1.14,1.14,0,0,0,.26,0l2.13.56.24.36v.75C163,277,162.47,276.86,162,276.69Zm5.77-10.14-.49,0a16.2,16.2,0,0,1,0-2.2c.18.14.36.29.52.44C167.78,265.41,167.76,266,167.75,266.55Zm4.66-38.21c-1-.51-.7-1.16-.93-1.72a30.1,30.1,0,0,1-1.1-3.48h1.46c-.06,0-.18.14.57.1Zm9-11.19a20.41,20.41,0,0,1,3.71,3.87.6.6,0,0,1-.08.08,18,18,0,0,1-3.64-1C181.35,219.09,181.36,218.12,181.36,217.15ZM184,254.21q-.35,3.32-.9,6.6a152.79,152.79,0,0,1,.64-15.72C183.75,248.13,183.85,251.17,184,254.21Zm-4.63,17.08h.24l.84.3c0,.07,0,.15,0,.23-.18.46-.35.94-.51,1.42l-.65-.05C179.34,272.55,179.36,271.92,179.39,271.29Zm.16,10.68,1.51-.28a39.41,39.41,0,0,0,8.11.37,1.72,1.72,0,0,0,.07.21A31,31,0,0,1,179.55,282Zm10.26-31.36q-.31-3.81-.31-7.65c.16,1.15.33,2.3.52,3.44C190,247.81,189.91,249.21,189.81,250.61Zm3.23-6c0-1.11,0-2.22,0-3.32.26.69.53,1.38.8,2.07q.34,3,.48,5.91C193.8,247.77,193.38,246.22,193,244.63Zm7.77-4.95a1.66,1.66,0,0,0-.37.14c-.07-.35-.14-.71-.22-1.06l-.09-.36C200.35,238.83,200.58,239.25,200.81,239.68Zm-.54,26.83c-.59.4-1.16.81-1.73,1.24-.47-.15-1-.29-1.44-.42a27.87,27.87,0,0,1,4.06-1.92C200.87,265.78,200.57,266.15,200.27,266.51Zm2-10.95a1.25,1.25,0,0,0-.71.2c.06-.55.1-1.09.13-1.64.25.49.52,1,.78,1.44Zm-1-11.27a1.7,1.7,0,0,1,0-.22l0-.24c0-.16,0-.32-.07-.48.67.8,1.38,1.56,2.1,2.29Z"/><path class="cls-2" d="M221.41,173.52a1.5,1.5,0,0,0,0,3A1.5,1.5,0,0,0,221.41,173.52Z"/><path class="cls-2" d="M188.69,361.24c-.19.14-.39.26-.59.39l-.82-.22a1.55,1.55,0,0,0-1.22-.3c-5.36-1.2-10.58-1-14.72,3.56a1.56,1.56,0,0,0-.35,1.56,1.16,1.16,0,0,0-.09.56c.18,2,.4,3.94.63,5.9a49.83,49.83,0,0,0,.45,15.17,103.7,103.7,0,0,0,1.9,15.1l-.32.65a57.49,57.49,0,0,0-3.86,6.17,22,22,0,0,0-4.06,5.8,26,26,0,0,0-3.41,4.74c-3.08,1.71-4.76,5-2.66,9.57a11.78,11.78,0,0,0,.94,1.69,10.14,10.14,0,0,0,.82,2.55c0,.29,0,.57,0,.85a1.52,1.52,0,0,0,1.5,1.5H163a8,8,0,0,0,2.21,1.61,8.53,8.53,0,0,0,4.84.73,1.51,1.51,0,0,0,2.63.1c.27-.42.54-.86.81-1.3a8.07,8.07,0,0,0,1.46-.9,10.24,10.24,0,0,0,4-6.3l.27-.44a1.43,1.43,0,0,0,.87-.64,32.76,32.76,0,0,0,3.76-10.88,43.68,43.68,0,0,0,.77-17.2c0-.66,0-1.32,0-2a95,95,0,0,0,3.53-16.22,30,30,0,0,0,.28-6.91,40.08,40.08,0,0,0,2.5-12.26,1.75,1.75,0,0,0,0-.51c0-.29,0-.58,0-.87A1.51,1.51,0,0,0,188.69,361.24Zm-19.82,69.4c0,.24,0,.47,0,.71-.23.14-.44.28-.68.41,0-.08,0-.16,0-.23C168.41,431.23,168.65,430.94,168.87,430.64Zm-1.32,4.9.2-.09a7.75,7.75,0,0,0,1.44-.25c0,.16.05.32.08.48A7.64,7.64,0,0,1,167.55,435.54ZM175.68,381c-.12-.79-.24-1.59-.35-2.39.11-.87.26-1.72.43-2.57.13.28.27.57.39.86C176,378.27,175.79,379.64,175.68,381Zm.25-14.5a5.47,5.47,0,0,1-1.32-.8,9.61,9.61,0,0,1,2.76-1.6Q176.59,365.27,175.93,366.5Zm1.84,5.63c-.18-.38-.37-.75-.57-1.13.15-.37.3-.74.46-1.11l.51-.16.06.43C178.08,370.81,177.91,371.47,177.77,372.13Zm6.47-8.15-.74.4v-.73l.8.14Z"/><path class="cls-2" d="M270.22,449a1.51,1.51,0,0,0,.74-1.67,4.14,4.14,0,0,0-1-1.66,28.84,28.84,0,0,1-4.51-7.86h0l-.15-.36a1.45,1.45,0,0,0-2.26-.36,38.26,38.26,0,0,0-10.89-11.77c-.9-1.23-1.8-2.4-2.69-3.49a117,117,0,0,0-1.84-20.13l.16-.39a1.66,1.66,0,0,0,1.69-1.06,104.73,104.73,0,0,0,3.42-15c.82.17,1.5-.28,1.5-1.41V355.08a1.36,1.36,0,0,0-1.87-1.38c0-1,.09-1.92.08-2.89a1.45,1.45,0,0,0-2-1.37,1.48,1.48,0,0,0-1.55.31l-.75.67a1.42,1.42,0,0,0-1.06.16,14.08,14.08,0,0,0-1.28.81q-1.55.94-3.12,1.77a1.51,1.51,0,0,0-2.52.09c-.23.34-.43.7-.63,1.05a1.5,1.5,0,0,0-2.72.38c-.07.28-.13.8-.19,1.09-.21.05-.42.37-.64.37h-9.44a6.83,6.83,0,0,1-2.52,2.91c-2.19,8.23-.56,17.55,3.84,25.09a43.67,43.67,0,0,0,6.81,14.77c-1.41,10.88.94,22.21,4.14,32.7,0,.2.09.39.13.58a1.54,1.54,0,0,0,.19.47c.29.91.58,1.82.88,2.72a1.63,1.63,0,0,0,2.16.93c.88,8.18,7.71,24,15.79,23.51a1.56,1.56,0,0,0,1.57-.31c.21-.07.42-.16.62-.25l.79.46a1.54,1.54,0,0,0,2.21-.93,1.37,1.37,0,0,0,.9-.68c.19-.34.36-.69.53-1a20.92,20.92,0,0,0,2.21,4.24,1.52,1.52,0,0,0,2.74-.36,18.5,18.5,0,0,0,.55-10.88A5.76,5.76,0,0,0,270.22,449Zm-21.55-94.92v.71a1.84,1.84,0,0,0-.78-.07Zm-14.31,9c-.28-.55-.57-1.09-.86-1.63.35.35.69.72,1,1.1C234.46,362.73,234.4,362.9,234.36,363.08Zm1.38,23-.38-1.19c.08-1.35.1-2.7.07-4,.1.71.2,1.42.33,2.13C235.72,384,235.72,385,235.74,386Zm7.71,22.84c-.06-.42-.14-.85-.2-1.27a1.26,1.26,0,0,0,.91-1c0-.16,0-.33.07-.5.11.61.22,1.23.31,1.85A1.35,1.35,0,0,0,243.45,408.88Zm2-50.9a1.54,1.54,0,0,0-.55-.14c-.06-.17-.13-.35-.2-.53l.15-.11c.56-.5,1.14-1,1.72-1.45C246.16,356.48,245.78,357.22,245.44,358Z"/><path class="cls-3" d="M198,73.37a33.11,33.11,0,0,0-16.11,2.57c-.69-.58-1.79-.71-2.23.3-.14.31-.25.64-.37,1-.52.28-1,.58-1.52.89l-.32-.29a1.14,1.14,0,0,0-1.4,0c-.13-.79-.63-1.64-1.49-1.64h-1.07c-.89,0-1.4.9-1.5,1.71s-.14,1.43-.19,2.17a25,25,0,0,0-3.64-4.08,1.52,1.52,0,0,0-2.35.3c-2.7,5.51-1.08,11.41,1.16,16.8.39.94.91,2.3,1.54,3.78a13.71,13.71,0,0,0,2.07,4.55c.85,1.9,2,3.74,3.53,4.48,0,.63.12,1.27.2,1.9A1.51,1.51,0,0,0,172,109a28,28,0,0,0-.11,3.68A15.29,15.29,0,0,0,171,116a1.57,1.57,0,0,0,1.05,1.87l.46.18a50.22,50.22,0,0,0,9.07,20.15c0,.56,0,1.13,0,1.69a1.51,1.51,0,0,0,2.95.4c.32-1.15.59-2.31.84-3.48a1.52,1.52,0,0,0,2.41-1.18c0-1.33.08-2.65.16-4a1.65,1.65,0,0,0,1.92-1c1-2.5,1.84-5,2.55-7.64a1.31,1.31,0,0,0,.64-.85h0c2.12-5.64,3-11,1.07-16.84a1.85,1.85,0,0,0-.39-.65A28.88,28.88,0,0,0,196,97c.28-.7.54-1.42.76-2.16,1.76-3.64,2.78-8.11,2.24-11.73.32-2.3.48-4.17.51-5.07a1.47,1.47,0,0,0-1.59-1.47,8.46,8.46,0,0,1,.85-.43C200.27,75.51,199.25,73.52,198,73.37Zm-13.83,31.34a1.58,1.58,0,0,0,.15.12q.47.81,1,1.59c-.05.61-.11,1.21-.17,1.78a12.86,12.86,0,0,0-1.42-3.17A1.17,1.17,0,0,0,184.14,104.71ZM189,79c.21.16.16.33.11.87-.22.23-.45.45-.68.66l-.1-.06C188.52,80,188.74,79.46,189,79Zm2-2.34-.12,0,.18,0Zm-5.3,2.17c-.11-.23-.21-.46-.33-.68a1.88,1.88,0,0,0-.12-.18l1-.31C186.09,78,185.91,78.42,185.74,78.81ZM178.84,128c.32.42.66.84,1,1.24a1.37,1.37,0,0,0,1.38.38c0,1,.1,2.1.14,3.16A47.09,47.09,0,0,1,178.84,128Z"/><path class="cls-3" d="M155.66,237.05a1.54,1.54,0,0,0,2.2-.9c.16-.37.31-.79.45-1.23a1.29,1.29,0,0,0,.62-.89h0c5.47-.59,7.14-15.12,3.2-18.83v0a1.21,1.21,0,0,0-.72-.84v-2.27l0-.07a6.43,6.43,0,0,0,5-4.61,1.5,1.5,0,0,0-.69-1.69c-2-1-3.59-1.08-4.77-.56-.53-2.61-1.69-4.74-3.75-5.84a1.54,1.54,0,0,0-2.06.54,13.71,13.71,0,0,0-1.36,3.55,19.29,19.29,0,0,0-2.67-3.85,1.52,1.52,0,0,0-2.36.3,16,16,0,0,0-2.12,5.27,10.85,10.85,0,0,0-1.24.44,1.72,1.72,0,0,0-1.1,1.73,12.82,12.82,0,0,0-2.76,1.85,1.51,1.51,0,0,0,.66,2.5c.74.27,1.47.5,2.21.7a34.1,34.1,0,0,0-1.18,8.51c0,2.42-.07,14.87,5.56,12.52a7.38,7.38,0,0,0,3,1.71,1.47,1.47,0,0,0,.75,0A15.15,15.15,0,0,0,155.66,237.05Zm1.21-34a7.44,7.44,0,0,1,.76,3.24,2.33,2.33,0,0,0-1.22-.32v0c0-.47,0-.84-.27-1.09A11.59,11.59,0,0,1,156.87,203Zm-7.55,25.63c-.13-.24-.23-.5-.34-.75A28.18,28.18,0,0,1,148,220c.69,2.2,1.5,4.35,2.33,6.39l.15.39-.3.64a3.66,3.66,0,0,0-.85,1.36A.93.93,0,0,1,149.32,228.67ZM159,228a35,35,0,0,1-.49-4.16c.41-1.14.84-2.48,1.22-3.93A22.17,22.17,0,0,1,159,228Zm-8.09-14.39c0,.59,0,1.19,0,1.79a22.38,22.38,0,0,1-.27-2.31C150.77,213.25,150.85,213.42,150.93,213.6ZM155,230.32a23.52,23.52,0,0,0,.73,2.83v0a5.92,5.92,0,0,1-1.38-1C154.58,231.59,154.8,231,155,230.32Zm-4.63-26.81-.18.05.09-.2Zm12.51,4.32a3.79,3.79,0,0,1-1.52,1.06,1.27,1.27,0,0,0-.06-.28A1.5,1.5,0,0,1,162.89,207.83Z"/><path class="cls-3" d="M248.65,297.05c2.29-7,3-17.92-2.75-21.65-7-4.48-18.85-3-26.27-.31a1.36,1.36,0,0,0-.47.29c-2.33.42-4.64,1-7,1.62-.78.2-.75.6-.35,1a17.05,17.05,0,0,0-3.18,2.33c-.74.66-.09,1.33.85,1.83l-.2.05a1.26,1.26,0,0,0-.83.55,7.69,7.69,0,0,0-1.57-.55,1.53,1.53,0,0,0-1.9,1.44c-.63,6.14,1.74,12.68,3.88,18.32s4.84,11.72,9.35,15.77a2.43,2.43,0,0,0,.28.2c.25.64.51,1.27.77,1.9a91.35,91.35,0,0,0,4.95,10.67,89,89,0,0,0,1.22,15.4,2.36,2.36,0,0,0,1.15,1.28.88.88,0,0,0,0,.15c.42,1.11,2.48,1.81,3.55,1.69a7.24,7.24,0,0,0,2.11-.58,12.83,12.83,0,0,0,2.67.22c4.43.64,8.19-1.75,11.65-4.94a.7.7,0,0,0,.52-.49l.89-.86c.61-.61.17-1.2-.55-1.67v-.4c1.56-4.26-.37-7.45-3.63-9a112.52,112.52,0,0,0,1.5-11.85c.53-2.52,1-5.06,1.49-7.6a120.24,120.24,0,0,0,2.44-13.31s0-.05,0-.08h0c0-.11,0-.22,0-.33C249.37,297.77,249.09,297.39,248.65,297.05ZM229.14,320.5l-.28,0c-.18-1.48-.39-3-.65-4.43C228.56,317.55,228.87,319,229.14,320.5Zm2.28-30.81c0-.45.09-.9.15-1.34.09.64.19,1.27.28,1.91Zm6.18,47.47c0-1.18-.06-2.59-.19-4.09a15.91,15.91,0,0,0,1.16,3.81C238.24,337,237.92,337.06,237.6,337.16Zm-.37-6.93a1,1,0,0,0,.16.26,1,1,0,0,0-.14.15C237.25,330.5,237.24,330.37,237.23,330.23Zm-8.91-48.05a8.65,8.65,0,0,1-2.71.9c.64-.41,1.27-.83,1.88-1.29a1.14,1.14,0,0,0,.19-.19l.82.2C228.43,281.92,228.38,282.05,228.32,282.18Zm-11.55,2c.18,0,.35-.1.53-.15h.17a2,2,0,0,0,0,.25c-.69.38-1.37.77-2,1.18a1.51,1.51,0,0,0-1.87,1.23l-.58.43c-.15-.23-.3-.47-.47-.69A26,26,0,0,0,216.77,284.16ZM214,299.92q.36,2.59.88,5.21a32,32,0,0,1-4.66-12A69.34,69.34,0,0,1,214,299.92Zm-4.68-12.75c.19.2.36.41.53.62a8.52,8.52,0,0,0-.87-.22,1.8,1.8,0,0,0-1,.11c0-.31-.06-.62-.07-.92A7.8,7.8,0,0,0,209.36,287.17Zm34.29-9.74a8.76,8.76,0,0,1,.47.85c-1.14-.53-2.39-.69-2.66.22l-.12.47a7.6,7.6,0,0,0-2-.87c-.77-.21-2.08-.31-2.18.73,0,.07,0,.14,0,.2a1.31,1.31,0,0,0-.88.36,3.32,3.32,0,0,0-1.55-1.12l.36-.13h.44l-.13-.12c.19-.08.39-.15.58-.24,1.44-.63.17-1.52-1.19-2.09C238,275.44,242.33,275.39,243.65,277.43Z"/><path class="cls-3" d="M193.64,285.46c-1-1.17-4.16-1.84-4.44-.41-.1.49-.18,1-.27,1.46-1.07.16-2.14.26-3.22.33a4.39,4.39,0,0,0-1.36-.4,26.15,26.15,0,0,0-8,1.11c-1.19.37-1.19,1-.68,1.54-.37.07-.74.12-1.11.18a8.42,8.42,0,0,0-3.46-.77,5.71,5.71,0,0,0-2.1.35c-.43-.18-.85-.37-1.25-.56l-.69-.32a3.51,3.51,0,0,0-2.64-.06l-2.06-1.67-.11-.09h0a3.61,3.61,0,0,0-3.65-.24c-1.07-.52-3-1.08-3.49.21-1.88,5.2.05,11.24,1.64,16.27.37,1.17.77,2.32,1.19,3.47a62,62,0,0,0,2.68,10.48,62,62,0,0,0,4.31,12.79c.31,1.08.59,2.13.81,3.18a2.78,2.78,0,0,0,1.72,1.56c-5.71,5.05,1.53,23.72,7.11,26.52.78.39,2.51.87,3.22,0,.28-.33.53-.68.77-1a6.29,6.29,0,0,0,2.45.49,3.84,3.84,0,0,0,3-1.24,2.2,2.2,0,0,0,2.52-.67c.33-.57.63-1.14.92-1.72,1.18.52,2.77.5,3.34-.42,4.12-6.7,4.3-16.75,4.49-24.37.1-4.4.23-10.79-2.42-14.87a1,1,0,0,0,.06-.18c.06-.45.13-.91.19-1.36a1,1,0,0,0,.88-.77c.9-5.92,1.07-12,2.31-17.81.28-1.17.56-2.33.88-3.5.18-.65-.31-1.26-1-1.7.34-1.21.68-2.42,1-3.62C197.62,286.07,195.12,285.4,193.64,285.46Zm-18.18,15.89a5.48,5.48,0,0,0-.7,0,4.7,4.7,0,0,0-1.74.46,34.32,34.32,0,0,0-2.72-6,38,38,0,0,0,5.8,2.84A15.09,15.09,0,0,0,175.46,301.35Zm-11.23,8.94-.36-.9c-.3-1.89-.52-3.82-.64-5.74A58.17,58.17,0,0,1,164.23,310.29Zm24.35,14.52c.16-1.73.28-3.46.37-5.19.07-.16.14-.32.22-.48a1.17,1.17,0,0,0,.35-.28,43.88,43.88,0,0,1,.66,4.73c0,.5.1,1,.14,1.51A4.78,4.78,0,0,0,188.58,324.81Zm-8.12,28.63h.09c0,.28-.09.56-.14.84C180.43,354,180.45,353.72,180.46,353.44Zm7.73-62.71-.13,0a7,7,0,0,0-1.55.51,2.74,2.74,0,0,0-1.45-1.15l.6-.25c.9-.05,1.8-.1,2.7-.17C188.3,290,188.25,290.39,188.19,290.73ZM180,356.48a3,3,0,0,0,.1-.32C180.06,356.48,180.09,356.65,180,356.48Z"/><path class="cls-4" d="M189.45,203.14h-1.07a1.56,1.56,0,0,0-.95.46c-.41.08-.82.2-1.23.27a47.23,47.23,0,0,0-14.87-2.68,1.52,1.52,0,0,0-.75,2.81l.79.46c-1.07.11-1.9,1.29-1.46,2.15a1.5,1.5,0,0,0-.4,2.73,18.67,18.67,0,0,0,1.86.59c.27.26.61.21,1,.21h.3c4.78,2,11.49,2.12,15-.89a1.45,1.45,0,0,0,1.1-1,1.62,1.62,0,0,0,1.05-2s0-.08,0-.09C191.54,205.83,191.1,203.14,189.45,203.14Z"/><path class="cls-4" d="M200.33,63.46a40.7,40.7,0,0,0-15.45-14.39l0,0c-.59-.63-1.18-1.25-1.79-1.88a1.4,1.4,0,0,0-2.4.62c-.36-.29-.72-.58-1.1-.85-1.05-.76-2.57.61-2.21,1.79-.17.08-.34.41-.51.41h-.17a1.4,1.4,0,0,0-1.44,1c-.71.54-1.36,1-1.91,1.53a3.29,3.29,0,0,0-2.45.17A5.85,5.85,0,0,0,168,55.44c-.19.28-.39.56-.56.85a14.54,14.54,0,0,0-2.92,7.59c0,.13,0,.25-.07.38a7.94,7.94,0,0,0-.3,3.91,19.67,19.67,0,0,0,1.64,7.46,1.5,1.5,0,0,0,2.35.3c.81-.7,1.59-1.42,2.33-2.15a26.38,26.38,0,0,0,16,.46h.81a1.46,1.46,0,0,0,1.27-.76,19.5,19.5,0,0,0,4.15-2.4l1,0a1.4,1.4,0,0,0,1.09-.5,1.63,1.63,0,0,0,.62.39l0,.08c.44,1.58,3.14,1.29,2.94-.44a2.15,2.15,0,0,0-.06-.43h0s0,0,0,0A16.32,16.32,0,0,0,198,68.4a1.4,1.4,0,0,0,.36-.64,1.54,1.54,0,0,0,1-2.06A1.56,1.56,0,0,0,200.33,63.46Zm-27.25-7c-.14,0-.28.19-.4.46a12.31,12.31,0,0,0-2.37,4.74c-.05.09-.09.18-.14.26,0-.85,0-1.7.07-2.53.77-1,1.57-2,2.32-2.8a5,5,0,0,1,.54-.21l0,0Z"/><path class="cls-1" d="M159.18,61.16c-.35-.2-.77-.25-.77-.08v-.82c0-1.59-4-4.92-4-2.74V78.83c0,1.34,3.2,5.22,3.69,2.74.3-1.57.65-3.13,1-4.7,1,1.09,2.29,1.77,2.32.44,0-.87.07-1.73.14-2.59.52.22.9.11.9-.61V64.52C162.41,63.2,159.94,60.46,159.18,61.16Z"/><path class="cls-1" d="M204.37,53.42c-1.27-1.79-4.94-.14-4.52,2,.13.63.25,1.27.37,1.91a2.06,2.06,0,0,0-1.43,2.35,50,50,0,0,0,3.3,7.71q.47,2.55,1,5.08c.2,1,1.2,1.28,2.24,1.12,1.39.32,3.46-.81,3.64-2.18A24.9,24.9,0,0,0,204.37,53.42Z"/><path class="cls-5" d="M284.57,186.07c-1-10.56-4.62-22.09-11.58-30.55a27.42,27.42,0,0,0-9.33-8,3.62,3.62,0,0,0-1.65-.43c-14.85-9.94-35.42-5.68-50.89,1.5-2.21,1-2.07,3.76-.78,5.37a43.22,43.22,0,0,0-15.4,21.92c-9.52,30.76,18.23,74.55,52.91,69.57,13.64-2,22.69-12.1,28.12-24C283.8,211.83,285.77,198.37,284.57,186.07Zm-37-18.73.49.41.17.18-.4.51a14.85,14.85,0,0,0-2.93-1.34h0c-.17-.5-.35-1-.54-1.51C245.44,166.12,246.52,166.7,247.57,167.34Zm-27.78,10.12c-.06.2-.13.39-.19.59,0-1-.06-1.92,0-2.87a16.5,16.5,0,0,1,1.87-3.88A42.6,42.6,0,0,0,219.79,177.46Zm20.57,9.14a41,41,0,0,0-1.5,6.21s0-.05,0-.08a2.07,2.07,0,0,0-.22-.35,63.59,63.59,0,0,1,2.16-10.63c.09.61.17,1.22.25,1.84C240.78,184.59,240.56,185.59,240.36,186.6Zm-.23-21.81c.2-.14.4-.27.61-.39.1.23.21.45.31.68C240.74,165,240.43,164.88,240.13,164.79Zm1.08,73.63a33.18,33.18,0,0,0,5.88-.57,28.23,28.23,0,0,0,3.79-.47A26.69,26.69,0,0,1,241.21,238.42Z"/><path class="cls-2" d="M230.77,184.13c2,1-1.29-2.61-2.07-3-11.23-5.4-1.22-22.15-1.15-30.75,0-1.27-.88-2.09-.88-1.66-.06,7.65-7.81,14.39-9,21.8C216.53,177.23,225.48,181.59,230.77,184.13Z"/><path class="cls-2" d="M226,188.63c2.91-.4,2.66-2.25-.26-1.84-5.92.82-11.88-.64-15.59-5.57-3.59-4.78-6.49-11-3.87-15.67.58-1,.7-1.27,0,0-3.51,6.26-4.52,13.5,1,18.9C212,189.13,219.75,189.49,226,188.63Z"/><path class="cls-2" d="M229.48,195.65c.7,3,3.53,4.82,6.35,5.53,4.19,1,8.82-.2,10-4.65A13.69,13.69,0,0,0,244,186a4.42,4.42,0,0,0-3.56-1.86,6.74,6.74,0,0,0-.72-2.32c-2.75-4.89,8.89-10.49,11.81-12.83,4.11-3.3,5.79-10.35,2.78-14.42-1.62-2.19-.53-3.27-.45-2.19.61,8.67-4.35,12.15-10.84,16.53-6,4-7.25,8.45-3.79,14.63.14.25.27.44.38.61a8.4,8.4,0,0,0-5.44,2.62,4.39,4.39,0,0,0-1.56.49C229.63,188.93,228.72,192.41,229.48,195.65Zm7.46-8.19a2.72,2.72,0,0,0,1.85-.6l.27-.34a7.71,7.71,0,0,1,.93,1.61,14.92,14.92,0,0,1,1,7.79,7.66,7.66,0,0,1-1.14,3.28,3.35,3.35,0,0,1-.62.68l-.17-.06a7,7,0,0,1-4.78-5.22C233.72,192,234.58,188.85,236.94,187.46Z"/><path class="cls-2" d="M247.34,180.8c-.62,1.18,2.45,4.1,2.26,4.46,2.83-5.39,6.86-5.26,12.24-4.76,6.42.6,7.09-6.51,7.71-11.91.15-1.35-1.61-2.18-1.57-2.5-.69,6-2.37,10.52-9,9.9C253.8,175.5,250,175.66,247.34,180.8Z"/><path class="cls-2" d="M275.4,198.25c-9.74,9.13-16.29-18.09-27.06-7.21-.87.89,2.15,4.73,2.6,4.27,5.42-5.47,8.84-2.05,13.05,2.6,3.55,3.91,7.23,5.74,11.55,1.69C276.42,198.78,275.91,197.78,275.4,198.25Z"/><path class="cls-2" d="M262.52,226c-6-2.42,2-13,.51-17.87-1.95-6.39-11.31-7.7-16.92-6.49-3.18.69-1.23,4.84,1.6,4.23s7.89-.29,10,2c1.71,1.88,0,5.75-.54,7.78-1.43,5.15-.79,9.66,4.63,11.83C264.57,228.58,265.55,227.18,262.52,226Z"/><path class="cls-2" d="M239.79,203.81c1.58-2-3-.35-3.72.59-5.25,6.76,5.77,8.07,5.13,14.33-.23,2.27-6.43,5.07-8.1,6.79-3.24,3.31-.83,8.76.7,12.2.5,1.12,1.58-.71,1-2-1.05-2.36-.58-2.83-.78-5.46-.23-3.07,4-6.34,6.22-7.71a13.9,13.9,0,0,0,5-4.6C248.93,211.83,235.54,209.29,239.79,203.81Z"/><path class="cls-2" d="M231.52,204.14a7.89,7.89,0,0,1,1.72-1.47c-2.18.32-5.29,2.16-5.92,4.38-.47,1.67.16,3.76.1,5.48-.06,2-2.21,2.22-3.85,2.93-5.62,2.43-11.4,6-8,12.7.13.25.5,1.76.5-1.41s1.2-7.27,4.12-8.58a51.53,51.53,0,0,0,6.48-3.13c1.43-.91,3.25-2,4.2-3.47C232.32,209.31,230.74,206.45,231.52,204.14Z"/><path class="cls-2" d="M226.58,195.91c.37-1.57-4.22-.11-4.62,1.56-1,4.36-11.19,1.54-14.57,1.68-4,.16-8.08,2.43-7.28,6.9.35,2,1.41,1.19,1.13-.38-.56-3.11,4.06-3.49,7.09-3.29,2.73.18,5.43.53,8.17.44C221,202.66,225.45,200.6,226.58,195.91Z"/><path class="cls-2" d="M275.81,155.08c-9.23-11.41-27.33-11.57-40.58-12.85a2.84,2.84,0,0,0-2.21.85,2.2,2.2,0,0,0-1.51-.5c-25.55.13-40.72,31.14-39.27,53.43,1.55,23.83,16.12,45.08,40.23,50.25,10.22,2.2,25.88-2,34.35-8.19,8.09-5.93,11.61-13.21,15.22-22.25C290,195.94,290.26,173,275.81,155.08Zm-.56,59c-3.66,9.8-6.85,17.2-15.85,23.21-9.57,6.41-24.14,7.67-34,3.13-11-5-18.62-15-23.55-25.68-6.32-13.75-6.16-29.22-.61-43.14,4.85-12.14,15.94-24.55,29.89-24.62a2.44,2.44,0,0,0,1.68-.67,2.19,2.19,0,0,0,.84.24c10.67,1,21.68,1.46,31.45,6.33,10.62,5.31,14.68,17.86,15.73,28.89S279.11,203.73,275.25,214.07Z"/><path class="cls-6" d="M165.18,369.31a1.66,1.66,0,0,0,.21-.91,41.38,41.38,0,0,0-1.14-7.2c-.06-.77-.1-1.54-.13-2.32-.07-2.42-3.54-2.24-4.6-.55a2,2,0,0,0-1.28-1.14c1.07-1.17,1.1-3.09-1-3.31a189.7,189.7,0,0,1-23.39-3.62,66.42,66.42,0,0,0-13.4-7.64c-6-5.59-11.92-11.29-18.34-16.41-11.11-8.88-25.33-16-38.89-8.38A2.7,2.7,0,0,0,59.93,319c-.43-.28-.84-.58-1.28-.86a2.76,2.76,0,0,0-4.08,1.53c-1.83.13-3.56,2-2,3.59a1.46,1.46,0,0,0,.36,1.65c5.13,5.63,11.32,10,17.53,14.35l.06,0a1.74,1.74,0,0,0,.18.22c.36.35.73.68,1.09,1,1,1.48,1.93,3,2.76,4.52a2.41,2.41,0,0,0-1,1.68C72.4,358.55,53,360.09,44.22,362.91c-2.12.68-2.08,2.79-.81,3.65a2.2,2.2,0,0,0,1.48,1c4.58,1.08,6.7,4.66,9.18,8.14-1,.79-1.53,2-.11,2.87,4.46,2.77,9.68,3.69,14.88,4.55a33.43,33.43,0,0,1,14,9.3c6,6.86,11.47,13.1,20.29,15.82a4.53,4.53,0,0,0-.9.26c-.76.29-1.15.74-.44,1.36C103,411,104.3,412,105.55,413l.07,0c1.59,1.7,3,3.6,4.48,5.39a11.55,11.55,0,0,0,3.7,6,4.71,4.71,0,0,0,2.59.56c3.8,1.37,9.07-.54,12.13-3.3,2.16-1.93,4-4.88,2.87-7.8a4,4,0,0,0-.46-.84l0,0a2.43,2.43,0,0,0,.86.44c6.4,1.61,11.88-.94,18.08-1.59a8.52,8.52,0,0,0,.87-.08l.63,0a4.38,4.38,0,0,0,.67.22,10.77,10.77,0,0,0,3.52.35,6.82,6.82,0,0,0,1.85.82c3.09.91,5.33,0,6.75-1.87a1.16,1.16,0,0,0,.5-.4c3.37-5.36,3.69-12.12,3.12-18.61C167.88,384.56,166.66,376.93,165.18,369.31ZM72.94,318.8a23.93,23.93,0,0,1,11.93,2.06A33.38,33.38,0,0,0,72.94,318.8ZM91,324.46a21,21,0,0,0-3.28-2.26,53.22,53.22,0,0,1,4.64,2.74Zm16.67,71.29a15.81,15.81,0,0,1-4,1.69c-.83-.35-1.66-.69-2.48-1.07a4.17,4.17,0,0,0-1.61-.13,24.8,24.8,0,0,0-4.94-7.94,27.58,27.58,0,0,0,4.15-.77c2.13.74,4.27,1.42,6.34,2.3a6.73,6.73,0,0,1,3.82,4.72A9.3,9.3,0,0,1,107.69,395.75Zm2.7,10c0,.08,0,.16-.08.24a1.72,1.72,0,0,0-.43-.21,8,8,0,0,0,1.33-1.23c0,.15,0,.29.05.44A1.31,1.31,0,0,0,110.39,405.74Zm14.87,13.56c-1.72,2.36-4.36,4.14-6.27,3.2a.6.6,0,0,0,0-.82,53,53,0,0,0-4.44-6.34q0-.49-.12-1c1.28.07,2.65-.34,2.74-1.26a9.75,9.75,0,0,0-.18-3.39l.08-.09c.2-.29.37-.58.55-.87.69.43,1.4.84,2.1,1.25-1.43.3-2.81,1.54-.62,2.21a35.43,35.43,0,0,0,6,1.29C126.88,414.6,127.31,416.49,125.26,419.3Zm3.55-13.36-.5-.19c-.19-.25-.37-.5-.57-.74.34.23.69.44,1,.65,0,.09,0,.18,0,.26Zm2,5.92-.32-.42c.45-.16.73-.45.65-.88l.55.1A9.75,9.75,0,0,0,130.85,411.86Zm26.45-10.09a6,6,0,0,0-.74-.09c.08-.73.15-1.5.21-2.28a2.26,2.26,0,0,0,.29-.63c.09-.33.17-.67.26-1C157.32,399.17,157.31,400.53,157.3,401.77Zm2.5,8.74v0a.6.6,0,0,1-.67.07,3.47,3.47,0,0,0,.31-.54l.5-.14C159.89,410.12,159.85,410.32,159.8,410.51Z"/><path class="cls-6" d="M101,310.74a24.65,24.65,0,0,0,1.39,5.32,21.45,21.45,0,0,0,1.52,4.74,1,1,0,0,0-.43,1.06c3.17,10.06,12,16.6,22.25,20.78a75.87,75.87,0,0,0,7.13,4.21c.56.3,2.76,0,3.93-.66.54.14,1.07.27,1.61.39a30.88,30.88,0,0,0,4.93,1.71,5.9,5.9,0,0,0,2.28-.31c2.91.47,5.71.8,8.32,1a2.82,2.82,0,0,0,.65-.08c1,1.2,2,2.44,3,3.64a1.17,1.17,0,0,0,.83.3l1.71,1.6c.91.87,5.3-.66,4.56-1.85-.2-.31-.39-.64-.58-1a.48.48,0,0,0-.06-.31c-.41-.62-.8-1.24-1.18-1.86l-.72-1.35c1.13-.41,2.11-1.14,1.9-1.86-.37-1.26-.76-2.45-1.21-3.6a146.71,146.71,0,0,1-3.91-15,.78.78,0,0,0,0-.45c-.17-.86-.45-1.68-.63-2.54-.08-.38-.49-.55-1-.57a11,11,0,0,1-1.49-4.84c0-1.18-2.13-1-3.54-.28-.4-.21-.78-.44-1.18-.66.35-.34.45-.67.09-.88-1.45-.86-2.93-1.69-4.41-2.52a42.35,42.35,0,0,0-6.82-4.63,91.08,91.08,0,0,0-7.52-5.55c.51-.42.73-.89.35-1.26-2.07-2-4.28-3.76-6.35-5.71-.73-.7-3.17-.06-4.14.87l-.3-.24c-1-.83-5.08.58-4.52,1.88-2,.17-3.87.37-5.67.41a7.59,7.59,0,0,0-2.64,1.21,3,3,0,0,0-1.26,1.22,10.92,10.92,0,0,0-.39,1.08,11.39,11.39,0,0,0-5.2.58c-.79.25-3.37,2.33-1.08,2.33h.2c-.08,0-.15.2-.2.31-1.45.46-2.81,1.38-2,2Z"/><path class="cls-6" d="M226.28,388.32c-.13-1-1.39-1.27-2.59-1-.45-1.11-.9-2.21-1.36-3.32a46,46,0,0,0-2.7-13.94,66.81,66.81,0,0,0-.84-10.23l.09-1.82a2.68,2.68,0,0,0,1.71-1.65c.07-.32.13-.64.18-.95a1.44,1.44,0,0,0,.45-.95c.18-4.75.54-10.09-1.41-14.55-.54-2.3-1.17-4.58-1.78-6.83-.21-.75-1-.95-1.66-1,.62-.77.55-1.63-1.16-1.92a55.39,55.39,0,0,0-8.81-.63h-.65a2.59,2.59,0,0,0-1.19.3,21.18,21.18,0,0,0-5.85,1.08c-1.05.37-2.46,1.21-1.86,2.47a2.19,2.19,0,0,0-.81,1.19,30.92,30.92,0,0,0-.5,11.41q0,.72,0,1.44a2.32,2.32,0,0,0-.77,1.11,38.79,38.79,0,0,0-1,13.19,82.81,82.81,0,0,1-.65,18.15c-1.71,10.95-4.44,21.6-4.12,32.77,0,1.13,1,1.54,2,1.48a1.37,1.37,0,0,0-.62,1.06v.63c0,.75.33,1.05,1,1.34a13,13,0,0,0,1.64.61c.21.24.43.5.7.78.9.93,3.1.76,4.12-.22a21.9,21.9,0,0,0,2.65-.29c5.36.21,10.49-1.73,15.39-4.11,2.62,1.34,6.65.47,9.67-1.29,1.82.37,3.66-.24,5-2.55,1.87-3.28,0-6.89-2-10.33A102.83,102.83,0,0,1,226.28,388.32Z"/><path class="cls-6" d="M282.14,317.2a77.85,77.85,0,0,0,8.63-1.19c9.73-1.2,19.52-2.17,28.83-5.3a2.23,2.23,0,0,0,1.73-1.87c1.09-.32,2.08-1.08,2.08-2V300.1a71.43,71.43,0,0,0,.7-22.5c4.39-6.26,6.74-14,7.55-21.55.14-1.28-1-1.65-2.2-1.54a2.27,2.27,0,0,0-2-.63c.1-.38.2-.77.29-1.15a1.54,1.54,0,0,0-.25-1.45c1.1-1.24.15-2.05-1.06-2.32.81-1.81-2.3-2.72-4-1.36a15.73,15.73,0,0,1-8.66,3.12c-1.9-.59-2.6-2.11-.29-5.14,1.36-1.81-.67-2.54-2.25-2.39-.26-1.08-1.95-1.86-3.51-1a41.55,41.55,0,0,0-13.61,12.2c-.53.71-.55,1.24-.29,1.62-7.26,6.13-9.85,16.58-11.46,25.52A122.42,122.42,0,0,0,281,312.92c0,.32,1,.47,2,.47l-.66.1C279.67,313.92,278.81,317.44,282.14,317.2Zm33.12-60.76a11.89,11.89,0,0,0,2.74-.19l-.15.18a4.87,4.87,0,0,0-1.21.34c-.45.2-.91.38-1.37.56l-.37-.54A4,4,0,0,0,315.26,256.44ZM301,308.2c-.05.62-.09,1.23-.14,1.85l-1.44.36C300,309.69,300.54,309,301,308.2Zm-3.89-2.46h.52c-.22.38-.43.76-.66,1.13,0-.32-.08-.64-.11-1ZM291,312.19a22.23,22.23,0,0,0,1.61-1.61q.17.66.36,1.32l-2.17.44h0A1,1,0,0,0,291,312.19Zm-5,.5.12-.35a1.72,1.72,0,0,0,1.19.43l-1.72.24A.71.71,0,0,0,286,312.69Z"/><path class="cls-6" d="M403.5,341.87a23.43,23.43,0,0,0-1.3-5.4c-2.38-6.21-8.37-3.62-11.43.35a3.18,3.18,0,0,0-.39.68,9.49,9.49,0,0,0-3.36,4.27,16.32,16.32,0,0,0-.64,1.9,22.91,22.91,0,0,0-2.36-9.53c.45-7.75.53-15.52.54-23.3a48.21,48.21,0,0,0,7-14.46,1,1,0,0,0,1.24-.62c3.17-8.65,6-18.89,5.51-28.57.12-2,.18-4,.22-6a23.36,23.36,0,0,0,1.92-9.6.85.85,0,0,0,0-.23c.47-1.56-1.81-3.27-3.15-3.33-2-.08-3.94-.29-5.9-.18a1.51,1.51,0,0,0,0-1.33c1-1.39-2.06-4.25-3.43-3.49l-.09.05a1.44,1.44,0,0,0-1.18-.05,21.16,21.16,0,0,0-4.63,3.31,10.13,10.13,0,0,1-.92.48c0-.17.09-.33.13-.5s.15-.16.23-.21c2-1.07-1.34-3.94-2.65-3.94h-.64a.91.91,0,0,0-.89.8,49.81,49.81,0,0,0-7.4,5.32c-11.69,3.08-18.24,18.41-22.51,28.32A181.06,181.06,0,0,0,341,294.09a130.78,130.78,0,0,1-11.78,13.29,70.8,70.8,0,0,1-15.39,7.29C309.92,316,306,317.05,302,318c-2.65,0-5.31,0-7.9.1a49.48,49.48,0,0,0-13.37,3,21.4,21.4,0,0,0-7.52,1.73c-6.76,2.93-14.64,3.27-21.95,3.89a1,1,0,0,0-.83,1.49c.17.42.32.85.47,1.29-.77,3.18-.16,6.38,2.42,8l.45,1.45a1.42,1.42,0,0,0-.24,1.17c1.21,10.36,4.36,20.38,5.06,30.81.38,5.72-.87,11.26-2.07,16.81-1,4.54-1.25,9.28-2.59,13.72a8.43,8.43,0,0,0-.3,1.48,16.58,16.58,0,0,0-1.87,2.23c-.83,1.19.75,2.88,1.63,3.44a14.18,14.18,0,0,0,2.26,1.16,4.59,4.59,0,0,0,3.91,1.06,20.67,20.67,0,0,0,2.75.23,3.21,3.21,0,0,0,2.26,1.66c6.61.19,13.21.16,19.77-.13,5,0,9.94-.13,14.91-.54a85.49,85.49,0,0,0,10-1.44c9.19,1.07,21-4,27.86-6.65a96.48,96.48,0,0,0,17.1-8.3c4.86-.89,9.38-4.49,12.92-7.56a58.09,58.09,0,0,0,10.46-11.45q.75-.82,1.47-1.65a1.76,1.76,0,0,0,.39-1.53,24.45,24.45,0,0,0,1.16-2.63s0-.06,0-.08A34.07,34.07,0,0,0,383.41,359a41.09,41.09,0,0,0,2.15-6.72c.06,4.56.42,9.17-1,13.46-.9,2.62,3.6,3.28,4.71,1.23.26-.46.58-1,.95-1.6a2.36,2.36,0,0,0,3.5-.94c.53-1.37,1-2.75,1.43-4.15l.82-1.62a2.85,2.85,0,0,0,1.21-.73,24.09,24.09,0,0,0,2-2.42,2.37,2.37,0,0,0,2.8-1.23,22.69,22.69,0,0,0,1.79-9.14A8.62,8.62,0,0,0,403.5,341.87Zm-10.35-68c0-.49.07-1,.11-1.46l.39-1.06c-.15,1.29-.34,2.57-.55,3.85C393.12,274.77,393.13,274.32,393.15,273.88ZM267.31,345.26c-.08-.23-.17-.46-.26-.69l1.62,0A3.68,3.68,0,0,0,267.31,345.26Zm13,31c-1.2,1.23-2.39,2.5-3.54,3.82l.62-.87c1.07-1.47,2.29-3.07,3.64-4.64C280.76,375.13,280.52,375.69,280.27,376.25Zm3.15,32c.64-.19,1.27-.39,1.9-.61a3.23,3.23,0,0,0,.79.47Zm8.21-24.6a51.87,51.87,0,0,1-10.26,10.95,66.8,66.8,0,0,1,10.06-13.38,14.79,14.79,0,0,0,1.72.31C292.64,382.23,292.14,382.93,291.63,383.63Zm13-61.8h1.17l-.31.13c-1.62.35-3.24.65-4.85.92H300C301.55,322.53,303.09,322.19,304.62,321.83Zm-6,17.72.42-.16q-.43.45-.9.9h-.42Zm-.5,67.5c.79-.21,1.58-.44,2.37-.68.1.11.19.23.3.34C299.88,406.83,299,407,298.1,407.05Zm7-15.36-.07.05c-.27.06-.55.12-.82.16l0-.06q1.1-.87,2.13-1.8h0C305.93,390.58,305.51,391.12,305.11,391.69Zm9,1.58h0c.55-.32,1.09-.65,1.63-1,0,.4.06.8.1,1.2C315.3,393.38,314.72,393.33,314.14,393.27Zm7.69-1.16c-.69.28-1.39.53-2.09.75a17,17,0,0,1,.26-3.24q1.81-.64,3.66-1.17A22.33,22.33,0,0,0,321.83,392.11Zm22.58-43.52a2.62,2.62,0,0,0-.51-.3l.45-.73a24.13,24.13,0,0,1,2.84-1.2C346.25,347.08,345.33,347.83,344.41,348.59ZM367,333.38a30.5,30.5,0,0,0-2.05,3.2l-.12.11c-.27.15-.54.3-.8.46a28,28,0,0,1,2.64-5.21,1.5,1.5,0,0,0,.63,0Z"/><path class="cls-7" d="M163,74.93c-4.3,5.11-1.13,15.35.48,20.91,2,7.09,7.81,14.26,15.48,15.79,21,4.19,25.82-26.3,24-40.89-.07-.58-2-.15-1.93.51,1.08,8.79.33,18.62-3.16,26.85a28.53,28.53,0,0,1-7.56,10.39c-5.74,5-12.19,2-17.29-1.82s-7-8.5-8.52-14.6c-1.18-4.75-3.27-13,.26-17.16.51-.6-1.42-.42-1.79,0Z"/><path class="cls-7" d="M178.08,74.06c1.88,6.07,2.87,13.61,0,19.51-.14.3.43.35.57.35a8.86,8.86,0,0,1,4.54,1c.39.27,1.79.09,1.86-.5.29-2.19,0-2.88,2.26-3.32.2,0,1.47-.4,1.05-.83-4.15-4.23-2.77-13.56-2.74-19,0-.5-1.93-.17-1.93.51,0,5.57-1.41,14.81,2.86,19.17l1.06-.83c-.9.18-1.94.45-2.81.57-.28,0-1.06.22-1.11.6-.15,1.14-.41,2.23-.56,3.37l1.86-.5A6.16,6.16,0,0,0,181.62,93c-2.19-.12-.32-3.38-.07-5.11A33.82,33.82,0,0,0,180,73.54c-.19-.6-2.11-.05-1.93.52Z"/><path class="cls-7" d="M163.19,72c-.24-8.52,4.1-17.16,10.25-22.89,7-6.52,16.44,1.23,20.93,6.55,3.19,3.77,4.73,8.87,6.7,13.33.34.76,2.24.18,1.93-.52-4.56-10.32-11.5-24.62-25.25-22.81-10.36,1.37-16.76,17.65-16.5,26.54,0,.9,2,.52,1.94-.2Z"/><path class="cls-7" d="M162.55,74.2c12.27,3.64,28.63,3.42,39.68-3.7.84-.54-1.11-.39-1.5-.14-10.09,6.5-25.42,6.35-36.61,3-.48-.14-2.21.62-1.57.81Z"/><path class="cls-7" d="M162.57,73.14c4.44,2.47,11.25.64,16.09.63,7.68,0,15.11-.6,22.07-4.07.78-.39.69-1-.24-.91-5.37.66-10.3,2.7-15.4,4.39-6.62,2.19-13.92,1.76-20.81,1.76-.7,0-2.07,1.06-.76,1.08,5.26.06,10.61.74,15.86.22A49.84,49.84,0,0,0,186,75.09c3.26-.79,5.63-2.72,9.13-3,.94-.08,1.61-1.16.27-1-3.95.34-7.12,2.5-10.91,3.42-6.61,1.6-13.54.58-20.25.49L163.52,76c5.52,0,11,0,16.51-.58,6.35-.62,12.27-4.19,18.51-5.4-2.43.47-6.29,1.74-9.34,2.19a79.66,79.66,0,0,1-11.46.47c-4.11,0-9.89,1.59-13.63-.48-.54-.3-2.32.48-1.54.92Z"/><path class="cls-7" d="M189.54,80.27c0,.14.83-.34,1.19-.48a15.84,15.84,0,0,1,2.35-.69c1.34-.32,3.15-.71,4.48-.15.83.35,2.25-.85,1.11-1.33-2.15-.91-5-.17-7.14.42-1,.28-4.35,1.14-3.92,2.75.25.91,2.18.4,1.93-.52Z"/><path class="cls-7" d="M187.11,81.41a11.62,11.62,0,0,0,10.61-.88c.78-.53-1.15-.22-1.46,0-2,1.39-5.14,1.25-7.33.25a2.47,2.47,0,0,0-1.82.64Z"/><path class="cls-7" d="M167.81,82.31c2.32-1.13,5.32-2.27,7.52-.34l.18-.32c-1.12.7-5.31,2.58-6.16.86-.21-.43-2.06.26-1.93.52.65,1.32,3,.79,4.08.59a15.62,15.62,0,0,0,5.47-2c.1-.06.33-.19.18-.32-2.8-2.46-7.54-.62-10.43.79-1.14.55.67.39,1.09.19Z"/><path class="cls-7" d="M178.89,99.34c-.41-.81,7.62-1.52,8.73-1.53.6,0,2.09-.93.8-.92s-12.61.71-11.46,3c.28.56,2.14-.1,1.93-.52Z"/><path class="cls-7" d="M176,100.51a19.64,19.64,0,0,0,13.69-1.38c1.14-.55-.68-.39-1.1-.19a15.48,15.48,0,0,1-11,.86c-.43-.1-2.1.6-1.6.71Z"/><path class="cls-7" d="M163.11,59.37c-2.24-2.21-5-4.94-8.34-4.11-2.63.64-2.86,5.88-3.13,7.82-.83,6.12-1.58,19.24,7.42,19.21.85,0,2-1.29.71-1.28-6.57,0-6.83-9.28-6.56-14a54.66,54.66,0,0,1,.9-7.31c.43-2.21.63-4.24,3.66-2.54a17.65,17.65,0,0,1,3.56,3c.57.56,2.4-.2,1.78-.82Z"/><path class="cls-7" d="M199.08,56.29c1.25-6.19,5.33-3.08,7,.38a32.75,32.75,0,0,1,2.08,6.2c1.59,6.21.51,12.6-5.08,16.34-.5.34-.44.93.23.93h1.12c.72,0,2.05-1.19.75-1.19-1.13,0-1,0,.29,0a13.52,13.52,0,0,0,2.12-2,12.28,12.28,0,0,0,2.54-4.54c1.6-4.4.26-9.66-1.17-13.88-1-3.08-2.71-7.67-6.59-7.76-2.39-.06-4.85,3.66-5.26,5.72-.15.74,1.8.41,1.93-.25Z"/><path class="cls-7" d="M160.13,92.57a32.68,32.68,0,0,0,2.75,13.78c2.09,4.84-1.58,8.09-4.65,11.41-2.4,2.59-3.7,5.61-2.85,9.12.52,2.13,1.38,2.92.83,5.37-.63,2.81-1.86,5.06-1.69,8,0,.68,1.78.08,1.93-.38a28.51,28.51,0,0,1,4.76-8.83,5.06,5.06,0,0,0,1.22-4.12c-.36-3.52-1-5.89,1.42-8.79,2-2.39,3.93-4.24,4.38-7.42.1-.74-1.84-.38-1.93.25-.53,3.75-3.43,5.94-5.56,8.81-1.14,1.53-.79,3.6-.61,5.34a24.49,24.49,0,0,1,.42,3.72c-.07,1.57-2.1,3.4-2.9,4.62a29.42,29.42,0,0,0-3.13,6.67l1.93-.38c-.25-4.37,3.39-8.3,1.23-12.47-2.47-4.76,1.73-8.79,4.68-12,2.27-2.45,3.93-5.1,2.88-8.4-.68-2.18-1.79-4.2-2.47-6.39-.83-2.69-.7-5.66-.71-8.44,0-.58-1.93-.22-1.93.52Z"/><path class="cls-7" d="M168.59,111.29a31.26,31.26,0,0,0-1.4,10c-.09,3.64.39,9-2.79,11.52l1.6.31a66.13,66.13,0,0,1,.56-9.54c.13-.92-1.84-.63-1.95.18a66.07,66.07,0,0,0-.56,9.53c0,.78,1.18.65,1.6.31,6.09-4.87,2.37-15.57,4.78-22.18.36-1-1.57-.91-1.84-.17Z"/><path class="cls-7" d="M203.37,80.29c8.48,4.5,8.45,15,5.73,22.9-3.12,9.13,2.8,15.71,6.55,23.58l1.88-.58c-2.92-1.94-5.88-3.49-6.84-7.1-.8-3,.18-6-1.47-8.87-1.26-2.21-3-2.47-3.09-5.44-.07-3.29.24-6.63.24-9.93,0-.28-1.93,0-1.93.52,0,3.32-.05,6.61-.25,9.92-.2,3.48,2.1,3.7,3.61,6.34s.54,6.4,1.29,9.23c.8,3,4.27,4.41,6.62,6,.28.19,2-.21,1.88-.58-2-4.16-4.66-7.93-6.43-12.19-2.33-5.58-.27-10,1.12-15.41,1.78-7-.47-15.5-7.09-19-.49-.26-2,.54-1.82.65Z"/><path class="cls-7" d="M197.23,102.28c4.1,5.65-.07,10.41.83,16.36.75,5,5.75,7.49,7.5,12.06l1.84-.7c-3.68-5.56-3.79-13.39-3.26-19.81.09-1-1.88-.81-2,.12-.56,6.71-.37,14.78,3.46,20.57.45.67,2.17.15,1.85-.7-2.18-5.72-8.07-7.93-7.31-14.86.57-5.23,2.14-9.33-1.19-13.92-.54-.75-2.37,0-1.76.88Z"/><path class="cls-7" d="M206.43,79.52c8.16-.6,9.48,12.51,9.06,18.18-.25,3.43-.51,6.2.57,9.52,1.55,4.73,4,9.29,5.76,14l1.72-.8c-3.34-2-10-8.47-8.25-12.83.41-1-1.53-.94-1.83-.19-2,5,4.63,11.77,8.58,14.1.46.27,2,0,1.71-.8-2.08-5.48-5.33-11-6.52-16.78-.88-4.2.67-8.74,0-13.06-.83-5.72-3.81-13.14-10.65-12.64-1.07.08-1.51,1.45-.19,1.35Z"/><path class="cls-7" d="M146.89,94.41c-4.8,1.66-5.62,10.6-6.42,14.71-1.52,7.83-2,15.78-2.82,23.7-1.42,14.2-.32,28.7,2.19,42.72.78,4.37,1.62,8.77,2.61,13.1.4,1.78.85,6.21,3,7,.87.32,2.27-.93,1.1-1.35-1.62-.59-2.29-6.85-2.59-8.27-.79-3.64-1.44-7.31-2.14-11a158.7,158.7,0,0,1-2.43-38.86c.41-6.91,1.11-14,2.06-20.81q.72-5.26,1.9-10.46c.46-2,1.51-8.23,4-9.08,1.15-.4.8-1.81-.38-1.4Z"/><path class="cls-7" d="M147.23,94.81c1.47,7,4.35,13.88,6,20.9a196.29,196.29,0,0,1,4.66,26.36c1.82,18.11,1.1,36.48,1.1,54.66,0,.91,1.56.36,1.87-.07l.83-.84c1.11-.69-.56-1.06-1.22-.65a3.76,3.76,0,0,0-1.42,1.41l1.87-.07c0-17.67.49-35.41-.92-53A180.82,180.82,0,0,0,155.61,117c-1-4.2-2-8.38-3.18-12.53-1-3.4-2.54-6.74-3.27-10.19-.15-.73-2.09-.24-1.93.52Z"/><path class="cls-7" d="M142.38,196.52c4.08,2.31,9.4,1.62,13.86,1.2,3-.29,6-.77,9-1.19,1.11-.16,3.47-1.16,3.4.55-.09,2.24-3.49,2.68-5.16,2.94-4.46.69-9,0-13.44.87a33.4,33.4,0,0,1-10.25.81c-4-.49-3.33-3.65,0-4.77a17.14,17.14,0,0,1,4.7-.89c.71,0,2-1.15.75-1.09-3.4.15-8.52.91-10.62,3.93-2.85,4.09,9.3,3.93,10.48,3.81,3-.3,5.93-1.12,9-1.18a90.44,90.44,0,0,0,9.16-.43c3.32-.39,7.93-1.66,7.27-5.84-.06-.32-.62-.3-.84-.28-7.59.73-18.67,4.61-25.72.63-.55-.31-2.33.49-1.54.93Z"/><path class="cls-7" d="M141.15,204c-2.14,3.26-2.29,6.53-1.77,10.31.27,2,.93,4,1.37,5.9.6,2.66-.14,5-.41,7.57a2.58,2.58,0,0,0,.79,2.1c1.18.83-.37,3.3-.45,4.32-.18,2.24,1.73,3,3.54,3.29.48.07,2.25-.75,1.23-.89-4.1-.55-3-4.34-1.41-6.32.06-.08.14-.22,0-.31-2.93-2-.88-7-1.38-10.28-.84-5.52-3.22-10.5.23-15.77.42-.63-1.48-.35-1.76.08Z"/><path class="cls-7" d="M146.43,237.69c7.34,0,15.08.1,21.44-4.1,4.85-3.2-1.23-5.2-4.19-5.69-.06.44-.11.89-.17,1.33,2.56-.6,6.42-1.74,5.89-5.09s-5.87-3.59-8.21-3.53c0,.44.05.88.08,1.33,2.25-.59,6.83-2,7.07-5,.29-3.64-4.22-4.1-6.9-4.21.1.37.2.74.29,1.11,4.35-2.93,8.22-7.62,1.52-10.21-4.59-1.77-12.67-2.19-16.81,1-1.05.79.53,1.41,1.27.84,3-2.26,8.27-1.71,11.72-1.2,1.87.29,4,.87,5.34,2.33,2.11,2.36-2.85,5.46-4.31,6.44a.59.59,0,0,0,.3,1.11c1.89.08,3.89.09,5.33,1.57,2.41,2.48-4,4.65-5.16,5-1,.26-1,1.36.08,1.33,4.77-.12,9.86,4.15,2.16,6-.79.19-1.17,1.17-.17,1.33,2.84.47,6.57,1.86,2.29,4.27a20.47,20.47,0,0,1-4.48,1.73c-4.49,1.32-9.57,1-14.2,1-1.09,0-1.5,1.38-.18,1.38Z"/><path class="cls-7" d="M170.23,108.27c0,.74,0,1.44-.73,1.82-.17.09-.65.43-.22.56a2.09,2.09,0,0,0,1.36-.23,3,3,0,0,0,1.33-1.15,3.4,3.4,0,0,0,.19-1.52c0-.39-1.93-.09-1.93.52Z"/><path class="cls-7" d="M137.44,129.51c-9.78,3.15-16.58,11.5-19.13,21.3-1.63,6.26-.33,12.55,2.06,18.41a24.85,24.85,0,0,1,2,13.22c-.49,3.92-2.07,7.65-2.66,11.58-1.73,11.48,5.06,20.47,7.43,31.18,1.55,7,3.86,14.58,12.45,13.34.84-.12,1.68-1,.33-.84-9.12,1.31-10.17-10.35-11.68-16.7-.87-3.61-2.74-6.77-4.17-10.17a33.79,33.79,0,0,1-2.45-17.12c.56-5.16,2.75-9.9,2.95-15.14.24-6.26-3.54-11.76-4.74-17.77-2.43-12.27,5.88-26.73,17.78-30.55,1.11-.36.93-1.1-.2-.74Z"/><path class="cls-7" d="M194.33,107.51a13.52,13.52,0,0,0,4,8.79c.65.67,2.47-.15,1.76-.88a12.53,12.53,0,0,1-3.82-8c0-1.06-2-.8-2,.12Z"/><path class="cls-7" d="M158.5,81.34c-3.49,1.35-3.68,5-3.61,8.31a45.61,45.61,0,0,0,.75,6.28c.63,3.77-1.16,6.06-3.24,8.82a.31.31,0,0,0-.08.24c.31.72.56.55,1.44.67.5.07,2.25-.77,1.22-.91-.12,0,1.79-3.34,1.94-3.73a15.64,15.64,0,0,0,.66-5.61c0-3.43-3-11.65,1.63-13.45,1.28-.5.09-.93-.71-.62Z"/><path class="cls-7" d="M153.4,82.33c0,4.46.54,11.25-2.62,14.85-.76.87,1.12.85,1.56.35,3.44-3.92,3-10.56,3-15.43,0-.84-1.94-.43-1.94.23Z"/><path class="cls-7" d="M233.51,142.3c-8.45-1.1-17.35,4-23.43,9.39-8.94,8-15.28,20.69-18,32.23-5.05,21.69,6.7,46.44,26.24,56.78,16.57,8.77,38.8,2.77,52-9.33,16-14.65,18.89-42.47,13.15-62.31-6.37-22-27.7-31.48-49.06-26.72-.73.16-1.73.94-.38.64,11.94-2.66,24.08-1.12,34,6.28,9.35,7,13.84,18.33,15.42,29.52,3.49,24.73-5.36,52.48-30.06,62.18-12,4.71-25.73,3.94-36.7-2.87-10.21-6.34-17.33-16.92-21.15-28.14a50.48,50.48,0,0,1,1.67-36.18,78.7,78.7,0,0,1,9.36-16.55c5.41-7.23,15.57-15.47,25.27-14.21.44.06,2.07-.65,1.6-.71Z"/><path class="cls-7" d="M243,185.75a3.56,3.56,0,0,1-.52-1c0-.24-.4-.26-.59-.28-5.18-.46-9.91,3.35-11.43,8.18-1.8,5.74,4.34,8.59,9.14,7.95,8.07-1.08,12.75-15.8,2.29-16.13-.71,0-2.06,1-.76,1.07,8,.26,5.05,12-.57,13.85-4.34,1.45-9.09-1.86-8.3-6.46a10.19,10.19,0,0,1,3.46-5.58c1.2-1.07,4.38-3,5.34-1,.33.65,2.21,0,1.94-.52Z"/><path class="cls-7" d="M240.2,183.52c-2.87-.92-3.47-4.82-2.93-7.19.58-2.59,3.66-4,5.75-5.28,2.71-1.65,5.54-3.09,8.2-4.84a14.89,14.89,0,0,0,7.23-14c0-.52-1.93-.13-1.93.52,0,4.7,0,9.3-3,13.17-2.26,2.94-5.86,4.53-8.87,6.57-2.47,1.67-10.47,7.6-4,9.33.52.14,2.26-.67,1.55-.86-7.08-1.89,7.24-10.26,9.57-11.89,6-4.18,6.59-10,6.62-16.84l-1.93.52c.51,10.46-8,13.83-15.67,18.5-2.36,1.44-4.33,2.82-5.5,5.39s.57,6.89,3.29,7.76c.52.17,2.27-.63,1.56-.85Z"/><path class="cls-7" d="M248.14,182.84c2.8-11.8,21.62,1.57,23.74-12.38l-2,.14c-.24,3-.67,5.89-2.57,8.29-2.6,3.28-8.06,2.46-11.44,1.43-3.17-1-6.62-.24-8.1,3a.54.54,0,0,0,.19.68c.64.52,1.16.29,1.92.08,1.2-.32.84-1.67-.36-1.35,2.68-.71,3.31-1.7,6.57-.71a14.11,14.11,0,0,0,3.83.6,13.18,13.18,0,0,0,5.86-.94c4.54-2.14,5.68-6.57,6.06-11.24.08-1-1.83-.73-2,.14-1.82,12-20.63-.72-23.74,12.38-.23,1,1.75.73,2-.14Z"/><path class="cls-7" d="M252.77,191.56c.14-.79,5.17-1.19,5-1.18,2.06-.12,3.75,2,5,3.31,1.4,1.48,2.82,3.3,4.66,4.26,3.4,1.77,6.27.51,8.87-2l-1.66-.15c-2.72,3.92-7.45,8.69-12.51,3.35-1.18-1.25-2.15-2.67-3.31-3.93-2-2.12-5-2.33-7.75-2.33-.69,0-2.07,1.24-.76,1.24h1.1c.7,0,2.07-1,.77-1h-1.11c-.69,0-2.07.84-.76.84,7.79,0,8.47,7.48,15.05,9.42,4.61,1.35,8.94-4.46,11.07-7.52.52-.75-1.36-.48-1.66-.18-6.41,6.16-9.6-4.91-15-6.28-1.63-.41-8.54.2-9,2.4-.13.71,1.81.37,1.93-.26Z"/><path class="cls-7" d="M232.37,183.58c-2,.39-7.25-3.42-9-4.5a8.65,8.65,0,0,1-3.92-10.47c2.32-6.55,10.59-10.67,9.11-18.47-.08-.42-2,0-1.94.52.87,4.62,1.81,7.87-1,12.12a14.21,14.21,0,0,0-2.63,7.49c-.33,5.75,3.79,11.38,8.31,14.52.46.32,2.11-.46,1.82-.66-5.65-3.93-9.17-10.36-7.86-17.27.48-2.48,2.5-4.72,3.78-6.82,1.74-2.86,0-7-.5-9.9l-1.94.52c1.69,8.84-9.42,13.22-9.73,21.63-.16,4.38,3.89,7.1,7.22,8.92,2,1.09,5.49,3.58,8,3.1.76-.15,1.71-1,.35-.73Z"/><path class="cls-7" d="M228.23,187.78c-6.3,2.63-14.06,1.67-18.91-3.24-4.4-4.46-4.21-11.35-2-16.74l-1.93.41c.43,6.18.74,12.26,6,16.32a11.17,11.17,0,0,0,5.77,2.11c2.28.27,7.89-.47,8.86,2.21.2.55,2.11,0,1.93-.52-1.3-3.61-9-2.25-11.93-3-7.75-2-8.27-11.27-8.71-17.65,0-.56-1.77,0-1.93.41-2.86,6.9-1.81,14.51,4.4,19.15,5.14,3.85,13.42,3.5,19.11,1.12,1.25-.53.08-.92-.71-.59Z"/><path class="cls-7" d="M225.61,196.8c-.3,0-2.28-1.11-2.86-1.2a4.55,4.55,0,0,0-2.29.05c-3.37,1.43-4.53,3.87-8.7,3.37-6.49-.77-12.7,2.19-12.53,9.44,0,.73,1.77.12,1.93-.37,2.94-8.71,11.22-3.46,17.23-3.24a6.16,6.16,0,0,0,3.18-1.09c1.41-.75,2-5.42,4.18-4.37.59.28,2.36-.56,1.53-1-2.05-1-3.18-.44-4.81,1.18a6.76,6.76,0,0,0-1.66,2.72c-.7,2.25-6.3.23-7.89,0-5.74-.95-11.63-.08-13.69,6l1.93-.38c-.14-6.41,5-8.51,10.75-7.64a8.49,8.49,0,0,0,3.51.12c1.72-.46,3.14-2,4.52-3,.88-.63,3.82.69,5.42.5.95-.11,1.59-1.27.25-1.12Z"/><path class="cls-7" d="M231.49,202.83c-2-.18-4.2.18-5.38,2.15a7.06,7.06,0,0,0-1.18,4.53c.22,4.69-4.35,5.67-7.86,7-7,2.59-5.94,12.06-2.27,16.92.45.59,1.8.27,1.86-.5.34-4.39-1.83-10.83,4-12.78,2.56-.87,5.09-.83,7.5-2.22,4.75-2.75,1.36-9.38,4.86-13,.85-.88-1-1.25-1.63-.6-2,2.06-2.09,4-2.36,6.83-.28,3,.4,5.11-3.91,6.63a43.07,43.07,0,0,1-4.83,1c-7,1.57-5.18,9.07-5.58,14.29l1.86-.5a13,13,0,0,1-2.51-9.93c.67-4.91,6.25-5.33,9.81-7.11,1.17-.58,2.79-1.94,3-3.36.45-2.9-1-8.29,4-7.86,1,.09,2-1.33.66-1.45Z"/><path class="cls-7" d="M239.09,204.24c-8.07,1.12-2.3,8-.69,12.63.87,2.5-2.43,4.91-4,6.17a12.27,12.27,0,0,0-4.24,5.3c-2.27,5.37,2.67,9.46,6.82,11.67.31.16,2.1-.29,1.88-.59-3.06-4-3.77-7.64-2.18-12.54,1.12-3.47,7-5.45,9.45-8.19a4.61,4.61,0,0,0-.1-6.53c-.41-.46-6.46-6.66-6.26-6.7.75-.17,1.72-1,.37-.71s-2.36.63-1.62,2.28c1.62,3.62,6.13,4.41,7.06,8.7,1.12,5.2-8.17,6.79-10.21,10.42-2.67,4.77-1.64,9.57,1.56,13.79l1.87-.58c-3.66-2-6.91-4.46-7.2-8.87-.34-5.05,4.51-6.69,7.13-9.88,2-2.41,1.88-4,.51-6.63-1.06-2-5.12-8.4-.5-9,.78-.11,1.73-.89.37-.7Z"/><path class="cls-7" d="M244.74,205.68c4.38-1.17,13.43.77,11,7.09-.85,2.24-3,4.29-2.75,6.86.56,7,7.27,7.93,12.68,9.81.55.19,2.22-.61,1.33-1.11-2.58-1.45-5.12-2.76-7-5.11-2.57-3.17.1-6.79,1.82-9.51a9,9,0,0,0-.27-9.77c-3.32-4.95-12.59-.51-16.85,0,.23.29.46.57.68.86l1.16-.77c1.24-.52.13-1.37-.81-1a4.9,4.9,0,0,0-1.93,1.29c-.56.51.2.92.68.86,2.66-.33,5.22-1.16,7.83-1.73,6-1.33,10.89,2.57,8.25,9.06-1.38,3.4-3.78,5.16-3.38,9.1s5.47,6.11,8.33,7.71l1.33-1.11c-4.35-1.5-9.58-2.05-11.48-6.89-1.67-4.26,2.8-7.21,2.82-11.29,0-5.92-9.85-6.59-13.74-5.54-1.18.31-.87,1.47.31,1.15Z"/><path class="cls-7" d="M215.44,151.84c-9.35,6.13-14.95,16.53-18.66,26.79a43,43,0,0,0,1.5,34.05c7.93,17,27.28,31.25,46.62,28.61,14.86-2,25.45-14.57,31.19-27.54,6.56-14.79,8.09-33.3,1.2-48.23-5.52-12-17.91-17.88-30.36-19.72-9.24-1.36-21.15-.87-28.91,5-.84.64,1.1.53,1.52.21,7.36-5.59,18.63-5.4,27.31-4.11,10.16,1.5,19.93,6.3,26,14.75,10.15,14.11,8,35.22,2.09,50.47-6.6,17-21.54,31.75-41,27.79-25-5.07-43.35-33.14-36.47-57.71,3.19-11.39,9.37-23.52,19.5-30.16.86-.57-1.09-.49-1.52-.21Z"/><path class="cls-7" d="M224,121.74c8.46-.48,20.12,8.53,21.8,16.74.11.53,2.05.06,1.93-.52-1.79-8.78-14-17.66-22.93-17.14-.6,0-2.09,1-.8.92Z"/><path class="cls-7" d="M171.87,203.21c6.9,0,14,.78,20.84-.74,1.19-.26.88-1.37-.3-1.11-6.45,1.43-13.27.67-19.82.62-.81,0-2,1.22-.72,1.23Z"/><path class="cls-7" d="M171.35,209.81c4.68,5.55,15,1.91,20.73.27,1.19-.34.81-1.76-.38-1.42-4.92,1.4-14.6,5-18.59.27-.6-.72-2.43.09-1.76.88Z"/><path class="cls-7" d="M170.65,120.28a29.74,29.74,0,0,1,8.07,13.9c1.36,5.58,1.46,11.26,4.07,16.5.28.55,1.76.09,1.92-.4,3.33-10,6.71-19.95,12.13-29,.42-.7-1.5-.43-1.78,0-5.47,9.15-8.91,19.19-12.27,29.26l1.93-.4c-2.58-5.17-2.93-10.92-4.07-16.5s-4.34-10.11-8.19-14.09c-.42-.43-2.23.27-1.81.71Z"/><path class="cls-7" d="M247,244.07a171.71,171.71,0,0,0,6.19,16.51c2.3,5.67,1.64,11.58,1.55,17.55l.85-.7c-2.6.57-6.29-2.05-8.61-3.07a33.76,33.76,0,0,0-5.06-1.78,44.55,44.55,0,0,0-13.7-1.41c-6.9.32-14.12,1.55-19.64,6-1.53,1.22-2.92,2.61-4.46,3.83-2.59,2-6.29,2.15-9.42,2.59-4.5.64-8.6,2.72-13.07,3.52-5.11.91-11.3-.75-16.33-1.81a66,66,0,0,1-16.16-5.94c-.39.32-.78.8-1.17.8h1.55c.67,0,2.08-1,.78-1h-1.55c-.3,0-2,.69-1.17,1.1,9,4.56,18.62,6.75,28.56,7.86a24.74,24.74,0,0,0,9.74-1.13c4.49-1.31,8.87-2.18,13.42-3.18a17.63,17.63,0,0,0,8.66-4.48c5.64-4.91,12-6.93,19.49-7.13a43.69,43.69,0,0,1,18,3.06c3.71,1.47,6.35,3.95,10.4,3.07.33-.08.84-.3.84-.7.09-5.42.58-10.68-.93-16-1.76-6.17-5-11.89-6.81-18.09-.18-.62-2.11-.09-1.93.52Z"/><path class="cls-7" d="M150.67,237.58c-5.79,4.45-5.59,17-5.52,23.63.07,5.32-.92,10.07-1.41,15.24-.25,2.68.7,3.37,3.11,2.76,1.14-.28,1-.9-.16-.62-2.24.56-.23-6.22,0-7.17.82-4.12.46-8.33.42-12.5-.07-5.85,0-17.37,5.09-21.27.78-.6-1.15-.33-1.49-.07Z"/><path class="cls-7" d="M210,270.91c4-4.09,9.41-6.29,14.81-7.81a28.61,28.61,0,0,1,19.95,1.46c.3-.43.61-.86.91-1.3-4.27-.57-8.45-1.63-12.75-2-4.63-.41-9.29.66-13.87-.52,0,.39-.09.77-.14,1.16,5.78-2.84,14.23-6.94,20.51-3.61.7.38,2.42-.59,1.49-1.08-7.12-3.79-16.27.39-22.84,3.62-.45.22-.89,1-.15,1.16,3.35.87,6.77.72,10.2.62,5.8-.17,11.17,1.25,16.86,2,.71.09,2-.84.91-1.3-12.06-5.19-28.09-2.56-37.49,7.07-.84.87,1,1.11,1.6.53Z"/><path class="cls-7" d="M151.68,264.41c5.1,1.81,10.36,2.14,15.71,2.53,6,.43,11.79,1.66,17.71.08,1.16-.31.89-1.32-.27-1-5,1.33-10,.47-15-.07-5.64-.6-11.22-.57-16.63-2.49-.61-.21-2.36.66-1.54,1Z"/><path class="cls-7" d="M154.12,258.08c4.17,4.89,12.49,4.48,18.18,6.24.29.09,2.09-.33,1.7-.72a37.32,37.32,0,0,0-8.26-6.71c-.5-.27-2.08.53-1.81.67a36.94,36.94,0,0,1,8.25,6.71l1.71-.71c-5.63-1.75-13.85-1.33-17.95-6.15-.32-.37-2.13.3-1.82.67Z"/><path class="cls-7" d="M155.31,252.62c4.2,2.2,9.59,1.75,13.42,4.64.68.51,2.38-.44,1.5-1.1-3.89-2.93-9.2-2.43-13.42-4.65-.74-.38-2.44.61-1.5,1.11Z"/><path class="cls-7" d="M155.27,247.79a28.57,28.57,0,0,0,6.36,1.06,2.7,2.7,0,0,0,1.36-.37c.31-.19.26-.41-.11-.42a26.32,26.32,0,0,1-6-1c-.44-.11-2.13.61-1.58.74Z"/><path class="cls-7" d="M158.3,244.14h7.22a1.7,1.7,0,0,0,1.26-.91.84.84,0,0,0-.57-1.09H159a1.72,1.72,0,0,0-1.26.92.83.83,0,0,0,.57,1.08Z"/><path class="cls-7" d="M173.22,219.53a65.37,65.37,0,0,1,16.13,2.53c.54.14,2.27-.69,1.55-.88a68.29,68.29,0,0,0-16.9-2.64c-.66,0-2.08,1-.78,1Z"/><path class="cls-7" d="M177,216a20.08,20.08,0,0,0,9.7,2.2c.89,0,2-1.35.68-1.36a18.25,18.25,0,0,1-8.88-1.93c-.71-.4-2.42.57-1.5,1.09Z"/><path class="cls-7" d="M179.75,215c2.66,1,5.49,1,8.25,1.55.75.14,2.29-1,1.15-1.2-2.76-.51-5.61-.57-8.26-1.55-.74-.27-2.27.79-1.14,1.2Z"/><path class="cls-7" d="M133,177.24c-1.11,1.44.61,3.84,1.34,5.06a69,69,0,0,0,4.32,6.13c.36.48,2.23-.17,1.81-.72-1.18-1.57-2.36-3.14-3.46-4.77-.66-1-3.25-4.39-2.23-5.71.49-.64-1.44-.44-1.78,0Z"/><path class="cls-7" d="M130.32,153.24c1.87,5.56,3.85,11.29,7.29,16.1.33.46,1.92,0,1.87-.62a9.54,9.54,0,0,0-1-3.62c-.3-.61-2.17,0-1.93.52a9.73,9.73,0,0,1,1,3.61l1.87-.62c-3.39-4.73-5.33-10.42-7.16-15.89-.21-.61-2.13-.06-1.94.52Z"/><path class="cls-7" d="M133.93,156.85c.07,1.81,1,3.48,1.55,5.16.22.63,2.14.07,1.93-.52-.58-1.68-1.48-3.35-1.54-5.16,0-.56-2-.18-1.94.52Z"/><path class="cls-7" d="M135.47,160.29a10.58,10.58,0,0,0,.53,4.3c.36.8,2.27.22,1.93-.52a9.46,9.46,0,0,1-.51-4c0-1-1.95-.61-1.95.18Z"/><path class="cls-7" d="M136.52,175.94c.5,1.56.95,3.13,1.52,4.66.34.91.8,2.57,1.93,2.77.5.08,2.26-.74,1.22-.92-.68-.11-1.37-2.77-1.55-3.3-.43-1.23-.79-2.49-1.19-3.72-.19-.57-2.1,0-1.93.51Z"/><path class="cls-7" d="M200.07,152c2.49.09,4.71,1.45,7.22,1.55.72,0,2.06-1,.76-1.08-2.5-.09-4.71-1.46-7.23-1.55-.71,0-2.06,1-.75,1.08Z"/><path class="cls-7" d="M203.68,149.24c.63.59,1.44.95,2.06,1.54s2.35-.24,1.79-.77-1.44-1-2.06-1.55-2.35.25-1.79.78Z"/><path class="cls-7" d="M207.81,147.33a3.25,3.25,0,0,1,1.54.87c.5.47,2.32-.26,1.8-.76a4.26,4.26,0,0,0-2.59-1.21,1.55,1.55,0,0,0-1.27.53c-.27.39.22.56.52.57Z"/><path class="cls-7" d="M211.42,148.7l.51.51c.44.45,2.26-.26,1.8-.73l-.51-.51c-.45-.45-2.26.26-1.8.73Z"/><path class="cls-7" d="M171.61,127.43c1.62,5,4,9.67,6.19,14.45,1.06,2.33,1.1,5.49,3.15,7.29.37.32,2.07-.43,1.83-.64-2.23-1.95-2.51-6-3.68-8.56a123.94,123.94,0,0,1-5.56-13.06c-.13-.4-2,.16-1.93.52Z"/><path class="cls-7" d="M180.38,144c.87,2.75,1.6,5.54,2.59,8.25.22.63,1.62.19,1.86-.24,1.9-3.35,2.51-7.22,3.63-10.87,1.68-5.46,5.14-10.58,8.75-14.93.54-.66-1.4-.51-1.79,0a50.69,50.69,0,0,0-7.1,11c-2.2,4.76-2.72,10.27-5.29,14.81l1.87-.24c-1-2.72-1.72-5.51-2.59-8.26-.21-.67-2.13-.13-1.93.52Z"/><path class="cls-7" d="M201.18,283.23c1.84,15.37,10,28.54,16.37,42.29.32.71,2.22.11,1.93-.52-6.33-13.75-14.53-26.92-16.37-42.28-.09-.7-2-.26-1.93.51Z"/><path class="cls-7" d="M250,279.24a362.85,362.85,0,0,1-3.17,45c-.13,1,1.84.77,2-.14a362.58,362.58,0,0,0,3.17-45c0-1-2-.77-2,.14Z"/><path class="cls-7" d="M217.55,325.52a38.5,38.5,0,0,0,2,6.9c1.33,3.84,1.44,8,1.91,12,.5,4.34,1,8.66,1.1,13,.07,4.55-.91,9-.64,13.54.48,8,4.64,15.53,7.63,22.81a64.66,64.66,0,0,1,4.61,21.63c0,.39,2,.06,1.93-.52a65.49,65.49,0,0,0-4.11-20.39c-3.06-8-7.16-15.45-8.13-24.05-.44-4,.42-7.93.61-11.89a77.49,77.49,0,0,0-.87-13c-.5-4.21-.7-8.51-1.79-12.63-.71-2.69-1.85-5.15-2.28-7.93-.07-.44-2,0-1.93.52Z"/><path class="cls-7" d="M247.48,323.05c-1,7.4.87,13,3.5,19.81,2.78,7.19,3.92,15,4.43,22.67a72.76,72.76,0,0,1-2.22,23.19c-1.75,6.77-3.68,13.29-4.58,20.26-.1.79,1.85.44,1.94-.23,1.78-13.84,7.11-26.42,6.92-40.57a84.07,84.07,0,0,0-3.62-23.1c-2.4-7.93-5.62-13.59-4.44-22.26.11-.79-1.84-.45-1.93.23Z"/><path class="cls-7" d="M234.12,415.4c.62,4.36-.21,8.65-.31,13-.08,3.22,1.25,5.86,2.75,8.62,2.93,5.39,6.46,10.38,9.33,15.83,4,7.57,10.39,17.78,20.31,13.8,8.6-3.45,12.23-17.47,6.46-24.58-3.83-4.71-9.35-8.29-13.43-12.88-5-5.58-9.63-12.63-8.67-20.42.12-1-1.85-.74-2,.14-1.28,10.43,6.73,19.32,13.6,26.11,3.28,3.25,8.28,6.22,10.3,10.42,2.58,5.33.23,12.69-3.16,17.05-9.41,12.06-19.43-6.05-23.11-13.25-2.33-4.55-5.34-8.66-7.91-13.08-4.06-7-1.2-13.79-2.27-21.3-.12-.9-2.06-.42-1.93.52Z"/><path class="cls-7" d="M200.19,283.14A142.18,142.18,0,0,0,196,307.58c-1.06,10.45-3.17,20.79-3.55,31.35-.09,2.57.59,5.15.79,7.71s-.52,5.37-.53,7.91c0,6.42.86,12.36-.67,18.73-2,8.2-3.8,16.43-6,24.58-.12.45,1.78.17,1.91-.33,2.14-8.06,3.91-16.2,5.89-24.29a48.2,48.2,0,0,0,1-14.38c-.28-5.23.72-10.46,0-15.61-.8-5.62.2-10.93.55-16.54a130.83,130.83,0,0,1,2.4-18.49c1.75-8.44,1.88-17,4.25-25.41.12-.44-1.77-.17-1.91.33Z"/><path class="cls-7" d="M151.41,279.85c.05,14.24.7,28.5,6.54,41.66,2.53,5.7,5,11.24,5.16,17.57s1,12.44,4.35,17.87c.36.59,2.19-.1,1.93-.52-3-5-4-10.74-4.32-16.51-.3-6.38-2-11.68-4.55-17.51-6.12-13.79-7.12-28.1-7.18-43.08,0-.5-1.94-.17-1.93.52Z"/><path class="cls-7" d="M167.47,356.85c-.7,3.23-.45,6.5-.35,9.78.13,4.63-.05,8.52,1.18,13.09,1.18,4.42,2.85,8.65,2.42,13.3-.13,1.41-.48,2.8-.56,4.22-.11,1.94.54,4.13.06,6-1.3,5-6.88,9.63-9.6,14-3.6,5.73-5.89,11.64-4.29,18.42,2.39,10.12,14.23,8.89,21.18,4.79,14.18-8.35,8.68-28.42,10.71-41.83.09-.58-1.83-.22-1.91.3-2,13.23,3.26,31.63-9.3,40.74-4.94,3.58-12.16,4.56-16.58-.21-4.19-4.51-3-12-.88-17.09,2.24-5.39,6.21-9.93,9.68-14.56,2.67-3.57,2.92-5.23,2.78-9.57-.11-3.32,1-6.44.63-9.79-.35-3.61-1.9-7.28-2.84-10.77a33.83,33.83,0,0,1-.74-10.13c.11-3.68-.47-7.29.32-10.95.12-.55-1.79-.23-1.91.31Z"/><path class="cls-7" d="M224.9,352.82c1.32,4,7.85,1.76,10.54.94a90.58,90.58,0,0,0,9.32-3.6c1.57-.67,5.1-3,6.75-2.88.55.05,2.26-.89,1.2-1-4.77-.43-23.6,12.86-25.88,6-.21-.63-2.13-.07-1.93.52Z"/><path class="cls-7" d="M223.31,353.67c-1.44,6-3.06,11.61-2.41,17.82.77,7.26,5.07,13.52,7.67,20.18a63.81,63.81,0,0,1,4.18,23.18c0,5.72,0,11.19,2.73,16.36.44.82,2.26.06,1.76-.88-3.1-5.84-2.43-12.28-2.55-18.66A67.06,67.06,0,0,0,231,392.72c-2-6.34-5.83-11.93-7.57-18.38-1.93-7.16.14-13.86,1.81-20.79.24-1-1.75-.79-2,.12Z"/><path class="cls-7" d="M235.39,428.93a13.48,13.48,0,0,0,2.77,6.6,75.26,75.26,0,0,1,5.1,9.75,34.7,34.7,0,0,0,10.48,13.19c7.43,5.62,16.29,5.34,21.34-2.9.6-1-1.29-.92-1.74-.44-1.3,1.37-2.53,2.8-3.81,4.19-3.87,4.21-8.37,2.64-12.67.69-.64-.29-1.59.21-1.52.94.76,7.63,15,6,15.6-1.37.08-1.05-1.89-.8-2,.12-.45,5.72-11.12,6.57-11.7.73l-1.51.94c3.56,1.61,6.38,3.38,10.34,2.32,3.68-1,6.43-5.36,8.87-7.94l-1.74-.44c-6.33,10.31-17.13,4-23.27-2.85-2.86-3.22-4.48-7.17-6.32-11-2-4.15-5.85-8.43-6.31-13-.1-.94-2-.45-1.94.52Z"/><path class="cls-7" d="M157.18,432.08c1.89,4.79,8.17,8.82,13.41,8.17,6.12-.76,10-4.89,13.14-9.95l-1.88.05c-3.45,9.12-10.85,14.43-20.32,9.37l-1.12,1.1c6.36.62,21.56,2.07,22.85-7,.12-.86-1.83-.53-1.94.2-1.09,7.69-14.62,6.13-20.19,5.59-.41,0-2,.65-1.12,1.11,10.63,5.69,19.78,0,23.78-10.58.29-.78-1.6-.41-1.88.05-2.79,4.56-6.3,8.84-12.17,8.86-4.13,0-9.18-3.81-10.63-7.49-.29-.75-2.21-.18-1.93.52Z"/><path class="cls-7" d="M169.78,360.69c1,2,6.64.48,8.35.17,4.91-.89,9.49-3.29,13.82-5.67.81-.45-1.14-.2-1.47,0a63.76,63.76,0,0,1-8.39,4c-1.05.4-9.32,3.11-10.38,1-.23-.45-2.07.25-1.93.52Z"/><path class="cls-7" d="M168.73,363.84c-.06,3.83,4.1,6.37,7,8,3.32,1.88,7.33,3.56,11.19,3.7.45,0,2.22-.83,1.23-.86-5.38-.2-17.6-4.72-17.5-11.38,0-.39-1.92-.1-1.93.52Z"/><path class="cls-7" d="M173,362.34c4.49,3.87,9.08,8.12,14.81,10,.45.15,2.18-.57,1.58-.77-5.63-1.87-10.16-6.12-14.58-9.92-.4-.35-2.14.39-1.81.67Z"/><path class="cls-7" d="M180.86,361.83c1.79,2.38,3.64,4.71,5.19,7.26.34.54,2.15-.17,1.93-.52-1.59-2.61-3.47-5-5.3-7.44-.32-.42-2.18.21-1.82.7Z"/><path class="cls-7" d="M170.3,371.19c.91,3.16,3.92,5.5,6.35,7.5,3.19,2.62,6.67,4.85,10,7.3.51.37,2.26-.39,1.8-.72-2.85-2.11-5.8-4.08-8.63-6.23s-6.56-4.84-7.57-8.37c-.18-.6-2.1-.07-1.94.52Z"/><path class="cls-7" d="M170.3,375.39c3,7.09,10.13,11.3,13.13,18.37.38.91,2.3.36,1.93-.52-3-7.09-10.12-11.3-13.12-18.37-.39-.91-2.31-.36-1.94.52Z"/><path class="cls-7" d="M172.93,385.89c.34,5.77,6.32,10,9.52,14.31.45.61,2.31-.09,1.78-.8-3.13-4.22-9-8.39-9.37-14,0-.74-2-.31-1.93.52Z"/><path class="cls-7" d="M174,397.85c-.93,5.33,6.51,9.87,9.5,13.33.37.43,2.21-.25,1.81-.71-1.74-2-3.79-3.75-5.63-5.66s-4.25-4.45-3.77-7.26c.11-.61-1.82-.26-1.91.3Z"/><path class="cls-7" d="M172.47,406.59c-1.12,2,2.12,4.89,3.24,6.12,2.16,2.35,4.76,4.39,6.74,6.9.44.55,2.3-.13,1.79-.78a76.94,76.94,0,0,0-5.59-5.69c-1-1-5.32-4.82-4.38-6.48.48-.83-1.47-.66-1.8-.07Z"/><path class="cls-7" d="M170.68,413.71l-1.05.52c-.14.07-.47.33-.38.53,2.75,5.64,8.3,9.46,12.67,13.76.47.46,2.29-.26,1.8-.75-2.2-2.15-4.52-4.18-6.75-6.29-1.11-1.06-2.16-2.17-3.17-3.32-.7-.79-3.18-3.3-1.94-3.92s-.58-.84-1.18-.53Z"/><path class="cls-7" d="M164.53,417.38c-.23,1.94,4.33,5.28,5.48,6.38,3.06,2.92,6.45,5.63,9.22,8.84.37.44,2-.4,1.93-.51a101.59,101.59,0,0,0-7.83-7.56c-1.56-1.46-3.1-2.93-4.59-4.46-.63-.66-2.41-2.11-2.28-3.21,0-.18-1.86,0-1.93.52Z"/><path class="cls-7" d="M161.94,422.77c-.93,1.52,3.68,4.55,4.49,5.22,2.9,2.35,6.13,4.43,8.83,7,.64.62,2.3-.35,1.48-1.15-1.33-1.28-13.52-9.9-12.94-10.85s-1.39-1-1.86-.25Z"/><path class="cls-7" d="M164.8,434.3c8.8-1.49,16.09-7.53,21.07-14.72.16-.23-1.58-.14-1.91.33-4.41,6.37-11,12.3-18.82,13.63-.78.14-1.7,1-.34.76Z"/><path class="cls-7" d="M162.49,427.64c4.81-1.55,8.5-5.08,12.21-8.37,4-3.53,8.84-5.16,11.65-10,.5-.85-1.46-.71-1.81-.1-2.37,4-6.4,6.17-10.21,8.63-4.26,2.76-7.06,7.08-12.13,8.72-1.14.37-.87,1.47.29,1.09Z"/><path class="cls-7" d="M165.2,417.75c7.74-5,15.06-11,19.63-19.14.23-.42-1.62-.26-1.92.28-4.46,8-11.68,13.75-19.22,18.66-.87.56,1.09.48,1.51.2Z"/><path class="cls-7" d="M170.83,399.09c8.3-4.64,16.17-12.62,17.16-22.49.09-.87-1.87-.53-1.94.21-1,9.51-8.44,17.11-16.45,21.6-1.13.63.54,1.07,1.23.68Z"/><path class="cls-7" d="M176.29,383.85c4.06-4.49,9.38-7.7,10.66-14,.2-1-1.78-.8-2,.12-1.2,5.93-6.54,9.07-10.34,13.27-.83.92,1,1.33,1.64.64Z"/><path class="cls-7" d="M178.85,371a37.31,37.31,0,0,0,5.9-6.94c.43-.58-1.46-.32-1.76.09-1.76,2.36-3.35,4.81-5.65,6.71-.79.65,1.13.45,1.51.14Z"/><path class="cls-7" d="M227,359.64c2.38,8.13,13.95,13.36,21.37,15.52.66.19,2.28-.78,1.17-1.11-7.13-2.07-18.34-7.17-20.61-14.93-.21-.72-2.14-.19-1.93.52Z"/><path class="cls-7" d="M231.19,356c2.31,8.48,13.88,14.31,21.71,16.44.51.13,2.24-.66,1.57-.84-7.65-2.07-19.08-7.8-21.34-16.11-.15-.56-2.08,0-1.94.51Z"/><path class="cls-7" d="M238.19,356.08c5.62.78,9.95,4.76,14.06,8.35.38.34,2.1-.4,1.82-.65-4.18-3.66-8.58-7.65-14.29-8.45-.45-.06-2.1.68-1.59.75Z"/><path class="cls-7" d="M244.37,354.64c2.61.11,4.79,2.1,6.31,4.06.38.48,2.24-.18,1.8-.73-1.81-2.34-4.29-4.22-7.34-4.34-.67,0-2.07,1-.77,1Z"/><path class="cls-7" d="M226.47,370.66c1.49,3.43,5.88,5.38,8.95,7.07,4.55,2.51,9.51,4.54,13.68,7.7.42.32,2.09-.45,1.82-.65-3.55-2.69-7.71-4.55-11.63-6.61-3.51-1.84-9.19-4.13-10.89-8-.2-.47-2.08.18-1.93.51Z"/><path class="cls-7" d="M226,372.24c4.11,9.39,13.9,17.45,23.29,21.22.62.24,2.37-.63,1.53-1-9.18-3.68-18.86-11.55-22.89-20.77-.31-.71-2.21-.12-1.93.52Z"/><path class="cls-7" d="M229.62,384.31c1.59,3.8,5.34,6,7.95,9.07s5.32,6.68,9.06,8.52c.67.33,2.41-.6,1.51-1-3.73-1.84-6-5.37-8.79-8.29-2.6-2.71-6.31-5.23-7.8-8.78-.33-.78-2.24-.22-1.93.52Z"/><path class="cls-7" d="M232.77,395.33c.89,3.26,3.42,5.93,5.69,8.32a72.44,72.44,0,0,0,8.7,7.71c.63.48,2.35-.42,1.5-1.07a77.35,77.35,0,0,1-7.83-6.86c-2.4-2.39-5.21-5.26-6.13-8.61-.23-.84-2.16-.32-1.93.51Z"/><path class="cls-7" d="M236.44,407.41c2.8,5.72,9.18,9.59,14.39,12.86.65.41,2.39-.49,1.51-1-5-3.14-11.28-6.84-14-12.33-.38-.78-2.28-.19-1.94.52Z"/><path class="cls-7" d="M239.59,416.86c.33,3.66,5.15,6.6,7.77,8.53,3.65,2.7,7.69,4.92,11.19,7.81.41.35,2.13-.4,1.82-.66-3.27-2.7-7-4.84-10.46-7.29-2.78-2-8-5.13-8.38-8.91,0-.39-2,0-1.94.52Z"/><path class="cls-7" d="M240.64,425.25c.64,4.29,6.71,7.33,9.93,9.38,5.82,3.7,12,8,16.4,13.36.56.69,2.4-.08,1.77-.85a59,59,0,0,0-14-12c-3.59-2.26-11.43-5.76-12.12-10.42-.14-.9-2.07-.42-1.94.51Z"/><path class="cls-7" d="M240.64,435.75c1.88,3.81,6.36,5.73,10,7.47,5.8,2.79,12,5,15.82,10.53.44.63,2.3-.06,1.78-.81-2.92-4.2-7.24-6.67-11.81-8.79s-11.51-4.19-13.83-8.91c-.38-.77-2.28-.18-1.94.51Z"/><path class="cls-7" d="M248.07,449a51.9,51.9,0,0,0,21.32,10.69c.74.18,2.29-.92,1.14-1.21a50.28,50.28,0,0,1-20.68-10.3c-.6-.52-2.42.26-1.78.82Z"/><path class="cls-7" d="M227.28,364.44c3.65-1.67,6.07-4.8,9.32-7,.87-.6-1.09-.54-1.53-.23-3,2-5.2,5.08-8.52,6.6-1.24.56-.09,1.05.73.67Z"/><path class="cls-7" d="M226.2,374.31c9-3,16.13-12.34,20.56-20.35.15-.27-1.63-.15-1.9.34-4.12,7.43-10.92,16.8-19.33,19.55-1.31.43-.07.7.67.46Z"/><path class="cls-7" d="M230.33,380.6c7.2-8.17,15.59-15.32,21.11-24.83.51-.87-1.45-.76-1.82-.13-5.46,9.4-13.76,16.45-20.87,24.52-.79.89,1.08,1,1.58.44Z"/><path class="cls-7" d="M231.37,386.34c7-7,14.14-13.75,20.07-21.67.55-.74-1.41-.62-1.81-.08-5.85,7.81-12.93,14.51-19.82,21.37-.82.82,1.07.86,1.56.38Z"/><path class="cls-7" d="M230.85,400c8.63-7.59,17.19-16.69,21.64-27.45.4-1-1.54-.81-1.82-.13-4.42,10.67-12.83,19.6-21.4,27.14-.87.77,1,.92,1.58.44Z"/><path class="cls-7" d="M233.32,407.56c4.15-1.13,6.63-5.45,8.75-8.86,3.17-5.1,5.48-10.72,8.83-15.71.45-.68-1.47-.44-1.78,0-2.25,3.35-4,7-5.91,10.59-2,3.73-5.5,11.86-10.11,13.12-1.14.32-.92,1.15.22.83Z"/><path class="cls-7" d="M235.75,419.3c7.53-4,6.28-14.39,12.81-19,1.07-.76-.49-1.51-1.3-.94-6.4,4.55-5.3,15-12.39,18.76-1.16.61-.12,1.73.88,1.21Z"/><path class="cls-7" d="M241,429.8c3.07-5.25,5.35-10.92,9.33-15.59.78-.91-1.08-1.07-1.59-.48-4.07,4.78-6.43,10.55-9.57,15.91-.52.89,1.44.82,1.83.16Z"/><path class="cls-7" d="M244.52,436.84c3-4.16,5.33-8.85,8.93-12.59.85-.88-1-1.24-1.63-.6-3.6,3.74-5.88,8.43-8.92,12.6-.73,1,1.08,1.33,1.62.59Z"/><path class="cls-7" d="M251,443.71c2.73-3.37,4.69-7.26,6.82-11,.11-.18-1.63-.1-1.9.36-2.13,3.76-4.09,7.65-6.82,11a2.74,2.74,0,0,0,1.9-.36Z"/><path class="cls-7" d="M255.12,449.72c2.48-3.21,2.41-8.44,6-10.74,1.11-.7-.55-1.11-1.23-.68-4,2.56-3.87,7.8-6.59,11.32-.57.74,1.39.65,1.82.1Z"/><path class="cls-7" d="M258.52,454.3a37.61,37.61,0,0,0,6.47-6.45c.77-1-1.07-1.25-1.62-.57a35.68,35.68,0,0,1-6.13,6.15c-1,.79.52,1.45,1.28.87Z"/><path class="cls-7" d="M265.35,456.4A22.16,22.16,0,0,0,272,445.92c.27-.89-1.7-.67-2,.15a20.22,20.22,0,0,1-6,9.47c-1,.84.55,1.47,1.28.86Z"/><path class="cls-7" d="M168.28,350.88c3,5.85,9.44,2.54,14.18,1.26,1.19-.32.85-1.59-.34-1.27-4.09,1.1-9.47,4.24-12.06-.83-.38-.73-2.23-.05-1.78.84Z"/><path class="cls-7" d="M235.21,339.84c10.26.16,10.12-11.15,12.6-18.42.14-.41-1.73-.18-1.91.33-1.7,5-1.88,17.39-9.44,17.27-.43,0-2.22.81-1.25.82Z"/><path class="cls-7" d="M44.59,380c10.58,1.6,20.89,5.86,31.69,5.87.62,0,2.09-.93.8-.93-10.65,0-20.83-4.28-31.27-5.86-.51-.08-2.26.76-1.22.92Z"/><path class="cls-7" d="M44.62,379.59c-1.74-2.06-2.37-4.55-3-7.11-.16-.68-.7-1.81-.36-2.44l.83-1.54-1.57.6a14.66,14.66,0,0,1,5.11,1.61c.48.23,1.87.57,1.51,1.23s-.3.49,0,1.28a13.13,13.13,0,0,0,5.43,7.37c.51.32,2.18-.47,1.81-.69-2.25-1.37-6.54-5.92-5-8.73a.16.16,0,0,0,0-.2c-2.38-1.28-4.78-2.53-7.51-2.77a1.75,1.75,0,0,0-1.57.6c-1,1.85-1,2.07-.49,4.19.64,2.65,1.32,5.18,3.1,7.3.36.42,2.2-.25,1.81-.7Z"/><path class="cls-7" d="M41.68,366.92c-.49-7.5,13.09-7.47,18.22-8.41a39,39,0,0,0,10.45-3.28c3.9-2,6-5.36,3.85-9.46-5.41-10.32-19.27-13.44-26.85-21.66l-1,.87,2.76.54c.53.27,2.31-.52,1.54-.9a6,6,0,0,0-4-.64c-.26,0-1.46.41-1,.87,7.49,8.13,19.23,11.36,26,20.39s-9,11.88-14.69,12.85c-6,1-17.72.67-17.15,9.34,0,.59,2,.19,1.93-.51Z"/><path class="cls-7" d="M49,327.39a6.54,6.54,0,0,0-2,4.11c-.12.73,1.48.16,1.72,0,1.43-1.11.53-2.44,1.91-4l-1.85.27c.56,1.19,1.27,2.26,1.84,3.47.2.43,1,.21,1.33.08,3.61-1.48,4.5,2.19,4.86,4.5.07.46,1.11.16,1.33.08,4.1-1.45,6.58,6.12,6.18,8.8-.1.68,1.3.22,1.55.1,1.59-.77,3.51-.2,5.15,0,.54.05,2.26-.86,1.21-1-2.92-.28-4.89-.75-7.53.53l1.54.1c.74-4.89-3.5-11.1-8.83-9.21l1.33.08c-.7-4.46-3.35-6.37-7.53-4.66l1.34.08c-.56-1.2-1.28-2.27-1.84-3.47-.29-.61-1.55-.07-1.86.27-.7.78-1.08,3.27-1.65,3.72l1.72,0a5.82,5.82,0,0,1,1.59-3.6c.79-.74-1.12-.61-1.53-.23Z"/><path class="cls-7" d="M45.82,359.25c.57-3.31,1-6.41.31-9.73l-1.94.51,4.2,6c.26.38,1.73-.09,1.92-.44.51-1,1-1.91,1.55-2.87l-1.87.5a16.49,16.49,0,0,0,15.81-1.34l-1.64.32a12.91,12.91,0,0,0,5.42,1.67c.43,0,2-.66,1.6-.7-2.15-.2-4.37-2.17-6.43-1.46-1.88.65-3.13,2.18-5.2,2-2.86-.31-4.9.18-7.73-1.09a2.08,2.08,0,0,0-1.86.5l-1.55,2.88,1.91-.44-4.19-6c-.24-.34-2,.13-1.94.51.72,3.33.26,6.43-.3,9.74,0,.13,1.84,0,1.93-.52Z"/><path class="cls-7" d="M72.08,387.08c7.07-1.05,9.7,3.47,12.77,8.86a30.86,30.86,0,0,0,10.8,11.68c.49.3,2.13-.48,1.82-.67-6.71-4.1-9.45-10.29-13.69-16.5C81,386.38,77,385.62,72.42,386.3c-.8.11-1.69,1-.34.78Z"/><path class="cls-7" d="M50.63,323.27c1-3.61,2.36-5.79,6.68-6.23,2.47-.25,5-.12,7.46-.33A55.07,55.07,0,0,1,87.3,319.6c5.93,2,11.33,4.68,17.31,6.5.42.13,2.11-.55,1.6-.71C96,322.28,86.61,317.06,75.8,316a75.77,75.77,0,0,0-18.91.48c-4.39.72-7,2.7-8.16,7.16-.1.34,1.77.09,1.9-.36Z"/><path class="cls-7" d="M99.1,390.89c0-.48.26-.39-.12-.36a3.63,3.63,0,0,1,.87.1,9.38,9.38,0,0,1,2.06.74,7.86,7.86,0,0,1,3.59,2.76l1.57-.75a26.39,26.39,0,0,1-7.1-3l-1.37.93a10.67,10.67,0,0,1,4.33,1.5c.51.27,2.3-.48,1.55-.89l-2.19-1.18-1.55.88.12.07c.51.27,2.3-.48,1.55-.88l-.12-.07c-.5-.25-2.31.47-1.55.88l2.19,1.19,1.55-.89a11.58,11.58,0,0,0-4.68-1.59c-.32,0-2.22.48-1.38.93a27.44,27.44,0,0,0,7.45,3.09c.24.05,1.87-.24,1.56-.75-1.19-2-3.87-3.36-6.08-3.89-1.41-.33-4.23-.39-4.18,1.69,0,.53,1.94.18,1.93-.52Z"/><path class="cls-7" d="M44.94,375.2a3.45,3.45,0,0,1-.49-2.62l-1.93.41a21.83,21.83,0,0,1-.56,6.19l1.92-.41c-.32-1-1.78-4.5-.21-5.16l-1.32,0c.25,1.18.65,2.32.9,3.5l1.87-.6a6.67,6.67,0,0,1-1.33-6l-1.87.5c2.32,1.57,2.5,4.75,2.94,7.27l1.87-.61A8.22,8.22,0,0,1,43,370.75l-1.87.61c2.43,1.42,3.12,3.72,3.89,6.25l1.87-.6a4.84,4.84,0,0,1-1.27-4.08l-1.87.5a7.41,7.41,0,0,1,2.87,5.31l1.93-.52c-.31-1.64-.82-3.23-1.14-4.87l-1.87.61a13.76,13.76,0,0,1,4.83,5.24c.31.55,2.14-.14,1.93-.52a14.42,14.42,0,0,0-5-5.42c-.36-.22-2,0-1.87.61.32,1.64.82,3.23,1.14,4.87.1.51,2,.05,1.93-.52a7.68,7.68,0,0,0-3-5.49c-.36-.28-1.76,0-1.86.5a5.2,5.2,0,0,0,1.38,4.47c.3.34,2-.08,1.87-.6-.79-2.62-1.51-5-4-6.44-.42-.25-1.87,0-1.87.61a8.52,8.52,0,0,0,3.83,7c.36.23,2,0,1.87-.61-.45-2.6-.66-5.83-3.06-7.45-.39-.26-1.73,0-1.86.5a7.1,7.1,0,0,0,1.44,6.43c.29.37,2-.08,1.87-.6-.25-1.19-.65-2.32-.9-3.51-.09-.41-1.12-.11-1.32,0-2.8,1.18-1.73,3.94-1,6.26.17.54,1.81,0,1.93-.41a23,23,0,0,0,.58-6.41c0-.47-1.83-.06-1.93.41a3.84,3.84,0,0,0,.48,2.84c.29.55,2.14-.12,1.93-.52Z"/><path class="cls-7" d="M103.81,391.85c-.3-.15-.41-.47-.7-.63a1.59,1.59,0,0,0-1.67.45c-.68.83.19,1.69.77,2.18a5.58,5.58,0,0,0,3.66,1.24c.47,0,2.06-.73,1-1l-6.54-1.93c-.44-.13-2.15.46-1.37,1a19.52,19.52,0,0,0,5.35,2.24c.4-.34.8-.68,1.19-1l-3-.88c-.33-.09-2,.34-1.5.89,2.09,2.17,5.45,1.19,7.56-.43.86-.66-1.08-.65-1.55-.29-1.35,1-3,1.27-4.21,0l-1.49.89,3,.88c.59.17,2.27-.71,1.19-1a18.1,18.1,0,0,1-5-2.12l-1.36,1,6.54,1.93,1-1a4.13,4.13,0,0,1-2.12-.56c-.36-.19-1.77-1.17-1.28-1.77l-1.67.45c.25.13.42.48.7.63.55.27,2.33-.53,1.55-.92Z"/><path class="cls-7" d="M91.79,404.71c6.34,2.87,13.42,9.33,16.35,15.71,1.92,4.19,2.34,6.12,7.3,7.08,4.19.81,8.27.46,11.81-2,4.41-3.1,5.68-9.27,11.32-10.82,1.14-.31.93-1.1-.21-.78a14.09,14.09,0,0,0-7.67,5.57c-1.26,1.63-2.38,3.31-3.79,4.81-3.34,3.57-9,3.12-13.2,1.51-2.09-.8-2.61-3.16-3.29-5a18.78,18.78,0,0,0-3.37-5.57c-3.7-4.47-8.35-8.88-13.69-11.3-.49-.22-2.26.52-1.56.84Z"/><path class="cls-7" d="M136.87,416.73c6.72-2.45,13.82.69,20.7-.9,1.19-.28.88-1.39-.3-1.12-7.12,1.65-14.14-1.49-21.2,1.08-1.26.46-.12,1.28.8.94Z"/><path class="cls-7" d="M192,421.9c4.75,0,9.19.25,13.78-1,5.7-1.61,11.06-4.47,17.15-3.94.88.07,2-1.19.7-1.31-4.28-.37-8.2.71-12.24,2.05a56.17,56.17,0,0,1-18.7,2.94c-.85,0-2,1.3-.69,1.3Z"/><path class="cls-7" d="M254.66,324.32c5.51.33,10.76-1.15,16-2.78,4.14-1.29,8.22-2.76,12.41-3.88,5-1.33,10.29-1.25,15.4-1.37,12.21-.28,23.79-1.27,33.45-9.47,10.19-8.66,13-22.32,17.93-34.06,6.12-14.49,17.19-26.44,32.21-31.69l-1.28,0c-.75,1.16-1,2.46-1.8,3.61-.19.28.71.17.76.16a24.25,24.25,0,0,0,7.36-2.87c1.06-.57,4.4-3.11,5.07-1.52.78,1.84-.87,5.21-1.45,6.94-.11.31.64.18.76.16,3.16-.54,8.33-1.84,9.59,2.2,1.16,3.71-.84,8.71-1.38,12.44-.84,5.91-1,11.91-1.58,17.85-.56,6.1-3.23,11.75-6,17.11-2.65,5.13-5.18,9.83-6.6,15.46a78,78,0,0,0-2,17c-.27,10,.49,20.11-.3,30.11-2,25.21-23.75,38.1-46.1,43.86-12.28,3.16-24.66,4.38-37.28,5.22-6.33.42-12.65.88-19,1.6-2.62.3-5.22.7-7.82,1.12-1.27.22-2.53.45-3.8.71,3.7-.72-6.11,1.5-1.62-.54,1.16-.52-.67-.4-1.1-.21-1.67.76-1.45.43-2.21,2.09-.15.35.94.12,1,.09,16.66-3.81,33.78-3.73,50.7-5.51a141,141,0,0,0,34.66-8.22c10.39-3.93,20.12-10.17,26.81-19.15,7.17-9.61,8-21.4,7.92-33-.15-14.44-1.56-30.64,4.93-44,2.82-5.81,6.13-11.27,8.23-17.42,2.27-6.66,2-14.08,2.62-21,.58-6.13,6.18-19.27-4.08-19.13-1,0-4.63,1.18-4-.73a16.84,16.84,0,0,0,1-5c0-1.86-2-1.48-3.16-1.17a18,18,0,0,0-3.87,1.83c-2.39,1.31-7.71,4.56-4.46-.39.21-.34-1.2,0-1.28,0a54.48,54.48,0,0,0-25.61,18.74c-7.81,10.19-10.45,22.63-15.82,34a42,42,0,0,1-12.1,15.41c-8.48,6.6-19.6,6.48-29.81,6.72a70.38,70.38,0,0,0-16.69,1.94c-8.37,2.24-16.57,6.58-25.42,6.05-.39,0-2.21.69-1.27.75Z"/><path class="cls-7" d="M279.74,315.56c1.61-18.77,2.81-38.63,11.27-55.82a37.43,37.43,0,0,1,8.18-11.14,22,22,0,0,1,6.91-4.22,20.47,20.47,0,0,1,5.52-1.19c2-.19.86,1.64.42,2.82-1.58,4.3-.24,4.77,3.87,5.33,3.92.54,7.85-4.29,11.07-5.68h-1.32a8.12,8.12,0,0,1-.89,4.41c-.08.12.08.21.17.25,1.94.72,7.08.13,7.27,2.49.27,3.31-1.09,6.91-2.12,10-1.95,5.82-6.24,12.7-6.23,19,0,4.78,0,9.56.11,14.34,0,1.81-.84,9.8.85,11,.47.34,2.18-.42,1.81-.69-1.4-1-.67-8.28-.71-9.79-.11-4.79-.13-9.58-.13-14.38,0-10.84,10.2-20.66,8.12-31.72,0-.21-.42-.18-.56-.18-1.93,0-6.83.88-6-2.34a12.25,12.25,0,0,0,.2-2.9c0-.39-1.17-.08-1.31,0-2.77,1.19-5,3.21-7.65,4.72-2.25,1.3-6.05.85-5.31-2.33.39-1.69,1.2-3.28,1.62-5,.08-.29-.37-.28-.55-.28-15.54.29-24.14,12.89-28.83,26.34-5.3,15.21-6.38,31.57-7.75,47.5,0,.36,1.87.11,1.93-.52Z"/><path class="cls-7" d="M386.28,340.84c-2.47-4.41,12.27-5.81,11.19-5.92a8.63,8.63,0,0,1,5.9,3.54c2.72,3.52,1.31,8.64-.48,12.18-4.17,8.25-12.32,15.56-20,20.52-.72.46.55.33.8.26l.12,0h-1c.38.49-2.18,3.49-2.47,3.89-.64.86-1.31,1.71-2,2.55-.3.38-1.67,1.59-.87,1.33h1.28c.37-1.4,1.93-2.94,2.75-4.07a2.44,2.44,0,0,0-1.9.36c-.82,1.13-2.38,2.67-2.75,4.07-.11.4,1.13.05,1.27,0,1.37-.45,7.27-7.8,6.6-8.65-.19-.25-.79-.08-1,0,6.14-1.7,11.67-8.37,15.78-13.05,4.44-5.06,9.34-12,6.38-19-4-9.26-23.86-1.73-21.48,2.53.25.44,2.06-.29,1.93-.52Z"/><path class="cls-7" d="M215.64,328.62c-5.41-.05-11.63-1.2-16.76,1-1.21.53-.14,1.65.87,1.2,4.7-2.05,10.76-.81,15.74-.76,1.13,0,1.46-1.47.15-1.48Z"/><path class="cls-7" d="M153.87,314.44c-4.89-1.14-8.75-4.49-12.73-7.37-3.16-2.29-6.28-4.56-9.36-7-2.52-2-9-6.76-12.46-4.06a4.17,4.17,0,0,0-1.13,1.47c-1.06,2.09-1.18,1.15-3.06.48-1.27-.46-3.18-.1-4.6-.29-3.71-.49-3.64,3-3.38,5.73l1.57-.73c-4.1-.67-9.09-.4-10.54,4.23-1.8,5.77,2.43,13.42,5.06,18.28,8.81,16.27,28,24.94,45.81,26.3.53,0,2.25-.88,1.21-1-15.62-1.18-33-8.16-42.31-21.32-3.87-5.47-15.67-28.08-.44-25.58.4.07,1.63-.14,1.57-.73-.32-3.37-.14-4.25,3-3.83a20.78,20.78,0,0,1,4.26.91c2.14.7,3.3-2,4.09-3.35,1.73-2.89,15.73,9.07,17.7,10.32,4.81,3.06,8.79,7.09,14.5,8.42.54.12,2.26-.71,1.21-.95Z"/><path class="cls-7" d="M122.45,290.13c-2.13-.71-.75-9-.72-10.69l-1.14.67c7.26-.81,11.93-.45,13.77-8.69L133,272c3.15-.09,6.45-.72,9.44.81.52.27,2.13-.53,1.81-.69-3.35-1.71-6.77-1.1-10.43-1-.33,0-1.27.17-1.37.59-.69,3.13-1.5,6.43-5.18,7-2.08.34-4.24.3-6.33.53-.32,0-1.13.24-1.14.67,0,2.14-1.63,10.07,1.09,11,.47.15,2.21-.59,1.57-.81Z"/><path class="cls-7" d="M119.86,282.08c-3-2.16-4.22-6-7.22-8.13-.32-.23-2.08.31-1.88.59,2,2.8,5.12,4.43,8.3,5.53.24.09,2-.24,1.76-.63-.82-1.56-1.89-3-2.71-4.51-.22-.42-2,0-1.93.51.13,2.6,1.95,3.82,3.67,5.49.36.35,2.12-.37,1.82-.66-1.68-1.62-3.43-2.83-3.56-5.34l-1.93.51c.82,1.56,1.89,3,2.71,4.52l1.76-.63c-3-1.05-6.06-2.65-8-5.31l-1.87.59c3,2.16,4.23,6,7.22,8.13.44.31,2.1-.46,1.82-.66Z"/><path class="cls-7" d="M130.53,275.51a39,39,0,0,0-9.22-7.33c-.37.45-.73.91-1.1,1.37,2.8,1,5.33,2.61,8.13,3.61.68.25,2.25-.73,1.28-1.27-1.91-1.05-3.5-2.56-5.41-3.61-.75-.41-2.46.49-1.48,1.17,2.83,1.95,5.3,4.37,8.13,6.32.76.52,2.41-.52,1.47-1.17-2.83-2-5.29-4.37-8.12-6.32l-1.48,1.17c1.91,1.05,3.51,2.56,5.42,3.61l1.28-1.27c-2.79-1-5.32-2.61-8.12-3.61-.87-.32-2.23.77-1.1,1.37a38.14,38.14,0,0,1,8.84,7.12c.66.66,2.3-.35,1.48-1.16Z"/><path class="cls-7" d="M138.88,270.41c-.19-4.05-5.38-5.13-8.33-6.57-.6-.29-2.41.41-1.52,1,2.84,1.94,5.29,4.38,8.13,6.32.49.33,2.26-.31,1.65-.91a3,3,0,0,0-2.34-1.13c-.83,0-2,1.23-.72,1.25a1.68,1.68,0,0,1,1.27.68l1.65-.91c-2.83-1.94-5.29-4.38-8.12-6.32l-1.52,1c2.75,1.34,7.74,2.32,7.92,6.07,0,.74,2,.32,1.93-.52Z"/><path class="cls-7" d="M102.76,303.82c-1.88-4-2.74-8.33-3.61-12.64-.15-.79-2-.39-1.94.34.06,5.22.93,10.81,4.6,14.78a1.22,1.22,0,0,0,1.87-.5,11.13,11.13,0,0,0-2.8-10.26c-.42-.46-1.86-.27-1.86.5a13.87,13.87,0,0,0,.91,5.59c.34.82,2.26.25,1.93-.52a13,13,0,0,1-.89-5.24l-1.86.5a10.31,10.31,0,0,1,2.62,9.6l1.86-.5c-3.5-3.78-4.37-9.13-4.43-14.12l-1.94.35c.87,4.31,1.72,8.64,3.61,12.64.38.8,2.29.22,1.93-.52Z"/><path class="cls-7" d="M106.26,290.68c-.55,1.44.16,3.15.68,4.49a30.08,30.08,0,0,0,2.92,5.56c.37.55,1.66,0,1.93-.41,1.77-3,.86-6.36-.9-9.14-.32-.51-1.93-.1-1.93.52a27.41,27.41,0,0,0,.9,8.12c.17.56,2.1,0,1.93-.51a27.48,27.48,0,0,1-.9-8.13l-1.93.52c1.72,2.71,2.65,6,.91,8.91l1.92-.4a34.63,34.63,0,0,1-2.71-5.06c-.59-1.34-1.47-3.3-.9-4.76.19-.5-1.71-.27-1.92.29Z"/><path class="cls-7" d="M115.28,292.6a17.65,17.65,0,0,0,4.58,6.41c.32.33,2-.06,1.87-.61-.88-2.61-1.75-5.28-3.68-7.32-.32-.33-2,.08-1.87.62,1,2.85,2,5.52,4.58,7.31.5.35,2.21-.41,1.81-.7-2.49-1.76-3.53-4.35-4.46-7.13l-1.86.61c1.86,2,2.7,4.6,3.54,7.13l1.87-.61a17.19,17.19,0,0,1-4.45-6.23c-.2-.57-2.11,0-1.93.52Z"/><path class="cls-7" d="M312.05,244.64c3-2.67,6.15-5.29,9-8.13.38-.38.08-.7-.4-.69-4.15.07-8.16,1.2-10.3,5-.4.72,1,.55,1.28.4,1.48-.68,3-1.12,4.51-1.8.41-.19.94-.73.22-.91-3.43-.84-7,.68-9.5,3-.41.38-.06.6.4.6h3.61c.71,0,2.06-1,.76-1H308c.14,0,.27.51.4.74,1.82-1.68,4.21-2.95,6.76-2.32l.21-.89c-1.47.68-3,1.13-4.51,1.81l1.28.41c1.68-3,4.44-3.94,7.75-4-.13-.23-.26-.46-.4-.69-2.88,2.83-6,5.46-9,8.12-.84.74,1.08.71,1.54.31Z"/><path class="cls-7" d="M321.12,248.39c3.44-3.49,6.48-7.35,9.93-10.84.67-.68-.46-1.08-1-1-4.78,1.11-7.75,4.76-10.56,8.51-.37.48-.06.9.47,1,4.29.82,7.36-2.13,10.17-4.94.87-.85-1-1.19-1.61-.58-2.18,2.17-4.52,4.74-7.89,4.1l.48,1c2.48-3.31,5.05-6.76,9.3-7.75l-1-1c-3.45,3.49-6.49,7.35-9.93,10.84-.86.86,1,1.2,1.62.58Z"/><path class="cls-7" d="M329.49,249.54c2.86,2.52,6.3-3.18,7.87-4.8.54-.56-.2-.94-.71-.93-3.25.1-4,3-5.52,5.33-.36.55.46,1,.82,1h1.81c1.07,0,1.5-2,.19-2h-1.81c.27,0,.55.6.82.86.94-1.44,1.52-3.83,3.5-3.89-.23-.31-.47-.6-.7-.91-.83.85-1.55,1.81-2.32,2.71-.51.6-1.64,2.26-2.45,1.54-.61-.53-2.32.37-1.5,1.09Z"/><path class="cls-7" d="M377.79,242.07a31.08,31.08,0,0,0,7.52-8.39c.42-.61-.73-.61-1-.53a10.35,10.35,0,0,0-7.15,6.94c-.19.53.88.43,1.1.38a32.3,32.3,0,0,0,9.49-4.72c1.09-.72-.58-1-1.2-.59a29.36,29.36,0,0,1-8.56,4.32l1.1.37c.95-2.7,2.63-4.89,5.49-5.7l-1-.53c-1.93,2.88-4.06,5.84-6.92,7.86-1.07.75.59,1,1.2.59Z"/><path class="cls-7" d="M389.55,243c2.82-1.93,5.47-4.41,6.67-7.68.09-.25-.21-.44-.4-.49-3.89-1.06-5.26,3.39-6.9,5.94-.48.75,1,.7,1.31.54,1.92-.93,4.19-1.53,5.81-3,.87-.77-1-.91-1.58-.43-1.34,1.19-3.44,1.68-5,2.45l1.31.54c.75-1.16,2.22-5.37,3.93-4.9l-.39-.48c-1,2.87-3.51,5.08-6,6.76-1.08.74.55,1.19,1.24.72Z"/><path class="cls-7" d="M395.38,249.5c4.34-1.3,6.69-5.38,9.68-8.45.74-.78-.75-.74-1.17-.59-2.75,1-4.95,2.86-5.09,5.95,0,.44.51.46.84.43,3.73-.31,5.52-4.06,7.34-6.84.52-.79-1.34-.56-1.67-.2-1.78,1.92-2.75,4.4-4.52,6.32-.78.84,1.11.83,1.56.34,1.77-1.92,2.74-4.4,4.51-6.32l-1.68-.2c-1.19,1.83-2.82,5.59-5.29,5.8l.84.43c.12-2.54,1.61-4,3.93-4.88l-1.16-.59c-2.52,2.6-4.74,6.71-8.39,7.8-1.14.34-.89,1.35.27,1Z"/><path class="cls-7" d="M116.18,416.14c.27,8.3,15.49,5.4,11.87-2.4-.12-.24-.35-.6-.62-.6h-.9a1.51,1.51,0,0,0-1.33,1,9.62,9.62,0,0,1-4.16,5.07c.51.15,1,.35,1.53.49.87-2.31-.69-4.23-.84-6.52-.45.29-.88,1-1.33,1h.24c.83,0,2-1,.71-1h-1.14c-.43,0-1.06-.1-1.27.34a11.78,11.78,0,0,0-1,5.48c0,.55.72.56,1.13.42,2.61-.88,3.55-1.87,4.43-4.5.11-.33-.38-.74-.62-.74h-1.81c-.41,0-1.28.35-1.32.91a2.67,2.67,0,0,1-.73,1.58c-.2.25-.27.58,0,.78.13.09,1.59.65,1.6.67.22.79,2.15.28,1.93-.5-.3-1.06-1.18-.6-2-1.16,0,.25,0,.5,0,.74a3.3,3.3,0,0,0,1.08-1.93c-.44.24-.88-.09-1.33.91h1.81c-.21-1-.41-.54-.62-.72-.61,1.83-1,2.24-2.79,2.85.38.16.75.27,1.13.43a11.21,11.21,0,0,1,.84-5.19c-.42.19-.85.63-1.27.63h1.14c.83,0,2-1,.71-1h-.24c-.52,0-1.36,0-1.32.67.14,1.94,1.69,3.95,1,5.89-.34.9,1.1.67,1.53.37,2.37-1.59,3.92-3,4.87-5.76-.44.24-.89-.17-1.33.83h.91c-.21,0-.41-.38-.62-.51,3,6.33-7.79,7.48-8,1.38,0-.92-2-.62-1.94.13Z"/><path class="cls-7" d="M366.63,308.14h4.51a2.86,2.86,0,0,0,1.37-.48c.31-.19.26-.52-.11-.52h-4.51a2.9,2.9,0,0,0-1.37.48c-.3.19-.26.52.11.52Z"/><path class="cls-7" d="M372.63,315.09c-.66.89-1.15,1.82-1.81,2.71-.12.17.26.2.32.2,3.24,0,2,5.16,1.49,7-.06.19.19.2.32.2,3.25,0-.08,4.83-1.15,6-.37.42,1.45.16,1.75-.17a10.52,10.52,0,0,0,2.8-6.49c0-.11-.29-.12-.34-.12-1.67,0-1.08-.53-.91-2a12.41,12.41,0,0,0-.56-5.13c0-.11-.25-.17-.33-.17h-1.54c.57,0,1.58-2.08,1.86-2.46a2.58,2.58,0,0,0-1.9.41Z"/><path class="cls-7" d="M286.06,309.24c-.78-4.21,2.11-7.95,5.22-10.42l-1.74,0c-.75,2.06-.15,4.07-.9,6.13-.12.32.39.23.59.23h.9c.41,0,1.06.06,1.28-.33,1.07-1.9,2.67-3.43,3.74-5.32a8.47,8.47,0,0,0-1.74.33v5.42a.28.28,0,0,0,.25.26c3.91.8,5.71-2.9,6.83-6.06a20.2,20.2,0,0,1-2.08.38v10.84c0,.59,2,.23,2-.52V299.31c0-.69-1.72-.09-1.88.38a15,15,0,0,1-1.78,3.92c-1.38.53-2.34.18-1.34-1.05v-3.25c0-.67-1.83-.1-2,.24-1.08,1.89-2.63,3.37-3.7,5.27.43-.18.77-.68,1.2-.68H290c.2,0,.4.43.59.57.75-2.06.15-4.18.91-6.25.27-.76-1.53-.16-1.74,0-3.36,2.66-6.45,6.75-5.61,11.27.12.66,2.06.2,1.93-.5Z"/><path class="cls-7" d="M297.64,267.34a7.46,7.46,0,0,0,2-4.87c0-1-1.93-.72-1.95.15a6.29,6.29,0,0,1-1.64,4.15.56.56,0,0,0,.25.94,1.35,1.35,0,0,0,1.37-.37Z"/><path class="cls-7" d="M303.09,260a27.71,27.71,0,0,0-1.81,8.12c0,.33.3.47.6.46a6.33,6.33,0,0,0,3.12-.64,12.86,12.86,0,0,0,2.54-2.46c.81-.83-1.09-.84-1.56-.36-1.08,1.12-1.68,2.28-3.36,2.32l.6.46a27.83,27.83,0,0,1,1.8-8.13c.24-.7-1.71-.45-1.93.23Z"/><path class="cls-7" d="M309.4,259.93c-.9,3.48-3.61,10.41,2.67,9.56,1-.14,1.54-1.43.22-1.25-4.46.6-1.5-6.34-.94-8.5.21-.83-1.75-.56-2,.19Z"/><path class="cls-7" d="M365.5,281.34a58.28,58.28,0,0,1,8.74-10.87c.75-.73,1.55-1.41,2.35-2.08s5.68-4,3.9-.8c-1.67,3-3.55,5.85-5.06,8.93-.57,1.19-3.79,7.78-.23,7.15,1.28-.23,2.21-1.35,3.13-2.16,2.84-2.48,5.23-5.51,7.86-8.2l-1.83.24c-1.13,3.06-2.7,5.88-3.61,9-.11.4,1.77.15,1.91-.34.9-3.15,2.48-6,3.61-9,.17-.47-1.62,0-1.83.24-2,2.06-3.93,4.22-5.91,6.31-.94,1-1.94,1.89-3,2.78.11-.09.65-3.55.8-4,1.56-4.83,4.87-9,7.19-13.47.13-.25-.44-.22-.53-.22-8.48.56-15.39,10.24-19.43,16.82-.15.23,1.61.14,1.9-.34Z"/><path class="cls-7" d="M300.35,341.77c6.77-.16,13.39-1.88,20.19-1.53.51,0,5.15.79,4.58,1.58-1.38,1.93-4,2.93-6.09,3.88a42.41,42.41,0,0,0-7.48,4c-.41.3-.49.85.07,1,4.91,1.62,9.83,1.05,14.91.95l-.82-.76c-2.44,3.75-7.74,4.62-10.72,8a.51.51,0,0,0,.24.88c2.76,1,5.69.94,8.59,1l-.53-1.08c-4.2,3.19-8.92,5.59-12.81,9.18a.5.5,0,0,0,0,.8,9.88,9.88,0,0,0,5.82,2.84c.91.11,2-1.18.69-1.34-6.68-.84-2.55-3.92.14-5.69,2.48-1.64,5-3.17,7.37-5,.71-.54.16-1.08-.53-1.08a51.86,51.86,0,0,1-5.58-.27c-1.83-.2,3.85-3.66,4.11-3.8a12.47,12.47,0,0,0,5-4.2c.35-.55-.46-.77-.83-.76-3.16.06-6.29.29-9.45.13-6.64-.33-1-2.08,1.33-3.15,3.35-1.52,6.63-2.91,8.83-6,.17-.24.3-.63-.05-.8-8.22-4-18.2-.33-26.84-.13-1.08,0-1.51,1.37-.19,1.34Z"/><path class="cls-7" d="M267.54,403.86c2.7,0,5.46,0,8-1.06.26-.11.91-.46.42-.72-1.55-.83-3-1.88-4.51-2.71-.15.24-.29.48-.43.72,2.8-.94,5.55-1.91,7.76-3.94a.23.23,0,0,0,0-.33c-1.2-1.2-2.41-2.4-3.61-3.61-.41-.41-2.22.3-1.81.71l3.28,3.28c.65.64-5.7,3.07-6.34,3.28-.28.1-.9.47-.43.73,1.56.83,3,1.88,4.52,2.71l.42-.73c-2,.87-4.31.74-6.46.75-.62,0-2.1.93-.8.92Z"/><path class="cls-7" d="M204.16,404.89c3.23,1.07,6.43,1.62,8.71-1.42a.41.41,0,0,0-.16-.58,60,60,0,0,1-6.32-3.62l-1.33,1.11c3.47.86,8.34,1.95,9.67-2.5.25-.8-1.72-.54-1.94.2-.9,3-4.34,1.68-6.58,1.12-.5-.13-2.22.51-1.33,1.1a61.68,61.68,0,0,0,6.32,3.61c0-.19-.1-.38-.16-.58-1.5,2-3.77,1-5.73.38-.72-.23-2.28.81-1.15,1.18Z"/><path class="cls-7" d="M121.08,382.3c4.63.95,8.1,4.3,12.64,5.41.49.12,1.43-.08,1.55-.67.7-3.24-1.05-5.8-2.78-8.41l-1.47,1c1.22.28,9.49,2.89,10-.17.2-1.17-.74-2.38-1.3-3.33a17.78,17.78,0,0,1-2.65-6.36c-.12-.74-2.06-.27-1.94.52a18.85,18.85,0,0,0,2.8,6.63,8.26,8.26,0,0,1,1.18,2.47c.1.49-6.45-.78-6.94-.9s-2,.24-1.48,1c1.61,2.43,3.28,4.81,2.63,7.84l1.55-.67c-4.53-1.11-8-4.46-12.64-5.42-.68-.14-2.29.91-1.16,1.14Z"/><path class="cls-7" d="M102.86,358.8c1.07.89,2.55.93,3.61,1.81a1.26,1.26,0,0,0,1.67-.45c1.81-3.91-.25-7.17-3.79-9-.28.41-.56,1-.84,1H108c1.09,0,1.49-1,.18-1H103.7c-.46,0-1.64.87-.84,1.29,3,1.58,5,4.06,3.44,7.5l1.66-.43c-1.07-.89-2.55-.92-3.61-1.8-.64-.53-2.34.4-1.49,1.1Z"/><path class="cls-7" d="M171.79,82.14h3.1c.44,0,1-.61,1.28-1s-.22-1-.52-1h-3.1c-.31,0-2,.83-1.15,1.25.41.2.83.53,1.24.74.13-.28.26-.5.39-.78-.44.2-.9.28-1.36.45a4,4,0,0,0-1.51.85c-.4.39-.07.49.39.49h3.1c.37,0,1.91-.27,1.15-.78a4.26,4.26,0,0,0-1.34-.73,1.89,1.89,0,0,0-1,.19c-.72.3.26,0,.08,0-.39,0-1.65.3-1.28.92.7,1.18,2.45.76,3-.35.42-.8-1.51-.57-1.8,0,0,.07-.07.12-.1.18l0,.07c.83,0,1.06-.2.71-.6l-1.28.91a4.21,4.21,0,0,0,1-.12,2.47,2.47,0,0,0,.53-.22c.25-.13,0,0-.33.12l-.72,0c-.21,0,0,0,.07.1.3.21.61.24.92.45.38-.34.76-.18,1.15-1.18h-3.1c.13,1,.26.64.39.87a1.68,1.68,0,0,1,.7-.47,6.16,6.16,0,0,0,1.39-.41c.27-.12.93-.55.39-.82s-.83-.19-1.24-.39c-.38.33-.77.22-1.15,1.22h3.1c.44,0,1-.61,1.28-1s-.22-1-.52-1h-3.1c-.44,0-1,.61-1.28,1s.22,1,.52,1Z"/><path class="cls-7" d="M190.7,81.92a10.54,10.54,0,0,0,4.24-1.41c.88-.43.55-1.37-.36-1.37h-3.1c-.4,0-1.07.38-1.07.86v1.24a.94.94,0,0,0,.91.9h1.86c.78,0,1.53-1.08.63-1.53-.41-.21-.82-.47-1.24-.68-.36.45-.73.88-1.1,1.33a2.42,2.42,0,0,0,2.49,0,.71.71,0,0,0,.2-1,1.61,1.61,0,0,0-1.19-.41,1.26,1.26,0,0,0-1.26.6.65.65,0,0,0,.61.87c.68,0-.07.06,0-.48l.33-.54q.76-.15.39-.21a2.18,2.18,0,0,1-.48-.19c-.85-.38-2.22.8-1.1,1.36.41.21.83.27,1.24.48a4.74,4.74,0,0,0,.63-1.57h-1.86c.3,1,.93.74.93,1V79.87c0,.27-.73.27-1.09,1.27h3.11a6.6,6.6,0,0,0-.37-1.58,7.87,7.87,0,0,1-3.2,1c-1.13,0-1.47,1.41-.16,1.37Z"/><path class="cls-7" d="M165,69.22c5.38,0,10.74.58,16.13.62.6,0,2.09-.9.79-.91-5.38,0-10.74-.58-16.12-.62-.61,0-2.1.9-.8.91Z"/><path class="cls-7" d="M166,66.65c4,.08,7.82,1.16,11.79,1.24.37,0,2.19-.71,1.27-.73-4-.08-7.83-1.16-11.79-1.24-.37,0-2.19.71-1.27.73Z"/><path class="cls-7" d="M168.51,63.82c3,1.38,6.51,1.29,9.77,1.29,1.09,0,1.5-1.37.19-1.37-3,0-6.09.06-8.84-1.19-.78-.36-2.24.76-1.12,1.27Z"/><path class="cls-7" d="M167.27,61.35c2.68,1.25,5.63,1.3,8.54,1.3,1.1,0,1.48-1.42.17-1.42a17.7,17.7,0,0,1-7.6-1.18c-.8-.37-2.23.79-1.11,1.3Z"/><path class="cls-7" d="M168.93,58.11a8.22,8.22,0,0,0,5.88.06c.32-.1.93-.38.81-.83s-.8-.41-1.12-.31a5.71,5.71,0,0,1-4.05.06,1.45,1.45,0,0,0-1.38.15c-.26.18-.58.67-.14.87Z"/><path class="cls-7" d="M170.64,54.84c.94.84,2.45.72,3.61.72a2,2,0,0,0,1.29-.48c.31-.34-.27-.4-.48-.4a3.86,3.86,0,0,1-2.61-.53c-.42-.38-2.18.36-1.81.69Z"/><path class="cls-7" d="M171.7,55.06a11.29,11.29,0,0,0,5.72-4.22c.28-.4-.23-.66-.55-.68a1.44,1.44,0,0,0-1.27.55,8.55,8.55,0,0,1-4.2,3.22c-.32.11-.94.37-.82.83s.8.41,1.12.3Z"/><path class="cls-7" d="M177.38,50.14h1.24a1.56,1.56,0,0,0,1.27-.48c.26-.37-.22-.52-.52-.52h-1.24a1.58,1.58,0,0,0-1.28.48c-.26.38.22.52.53.52Z"/><path class="cls-7" d="M307.58,403.22c4.33.09,13.56,2.31,15.46-3.31l-1.48.54c8.4,2.26,9.81-6.72,17-8.11,1.22-.24.84-1.59-.37-1.36-6.08,1.18-9,9.9-15.51,8.15-.48-.13-1.29,0-1.48.54-1.44,4.25-10.11,2.18-13.44,2.1-1.12,0-1.47,1.42-.17,1.45Z"/></svg>