<svg id="Layer_1" data-name="Layer 1" xmlns="http://www.w3.org/2000/svg" viewBox="0 0 158.02 126.65"><defs><style>.cls-1{fill:#782014;}.cls-2{fill:#9d350e;}.cls-3{fill:#932816;}.cls-4{fill:#9f3f17;}.cls-5{fill:#537461;}.cls-6{fill:#1a3126;}.cls-7{fill:#304a3d;}.cls-8{fill:#356344;}</style></defs><polygon class="cls-1" points="126.37 85.67 126.37 79.99 129.4 80.07 129.4 85.67 126.37 85.67"/><polygon class="cls-2" points="129.16 85.43 126.61 85.43 126.61 80.23 129.16 80.31 129.16 85.43"/><polygon class="cls-1" points="126.37 106.99 129.22 106.94 129.24 112.36 126.37 112.46 126.37 106.99"/><polygon class="cls-2" points="129 112.13 126.61 112.21 126.61 107.22 128.99 107.18 129 112.13"/><polygon class="cls-1" points="65.72 86.34 65.72 81.18 68.71 81.26 68.71 86.34 65.72 86.34"/><polygon class="cls-2" points="68.47 86.11 65.96 86.11 65.96 81.42 68.47 81.49 68.47 86.11"/><polygon class="cls-1" points="65.72 105.51 68.54 105.46 68.55 110.39 65.72 110.48 65.72 105.51"/><polygon class="cls-2" points="68.31 110.16 65.96 110.24 65.96 105.74 68.3 105.7 68.31 110.16"/><rect class="cls-3" x="59.9" y="76.07" width="3.03" height="38.72"/><rect class="cls-4" x="62.93" y="76.07" width="3.03" height="38.72"/><polygon class="cls-1" points="62.93 73.31 56.93 73.31 56.93 76.07 62.93 76.07 68.93 76.07 68.93 73.31 62.93 73.31"/><path class="cls-5" d="M67.09,71.67a14.42,14.42,0,0,1-4.16-1.42,14.42,14.42,0,0,1-4.16,1.42,29.07,29.07,0,0,1-4.8.54A5.19,5.19,0,0,0,55.3,73a7.08,7.08,0,0,0,1.63.34h12A7,7,0,0,0,70.55,73a5.36,5.36,0,0,0,1.34-.76A29.07,29.07,0,0,1,67.09,71.67Z"/><rect class="cls-3" x="120.46" y="74.29" width="3.07" height="42.97"/><rect class="cls-4" x="123.53" y="74.29" width="3.07" height="42.97"/><polygon class="cls-1" points="123.53 71.23 117.44 71.23 117.44 74.29 123.53 74.29 129.63 74.29 129.63 71.23 123.53 71.23"/><path class="cls-5" d="M127.76,69.41a14,14,0,0,1-4.23-1.58,13.84,13.84,0,0,1-4.22,1.58,26.8,26.8,0,0,1-4.87.6,5.24,5.24,0,0,0,1.35.84,6.58,6.58,0,0,0,1.65.38h12.19a6.68,6.68,0,0,0,1.65-.38,5.24,5.24,0,0,0,1.35-.84A26.71,26.71,0,0,1,127.76,69.41Z"/><polygon class="cls-1" points="52.16 86.28 52.04 81.18 62.33 81.32 62.33 86.41 52.16 86.28"/><polygon class="cls-1" points="112.6 85.59 112.48 79.99 122.92 80.14 122.92 85.75 112.6 85.59"/><polygon class="cls-2" points="62.09 86.17 52.39 86.04 52.28 81.42 62.09 81.56 62.09 86.17"/><polygon class="cls-2" points="122.68 85.5 112.84 85.36 112.73 80.23 122.68 80.38 122.68 85.5"/><polygon class="cls-1" points="52.62 105.78 61.93 105.55 61.93 110.64 52.75 110.88 52.62 105.78"/><polygon class="cls-2" points="61.69 110.41 52.98 110.64 52.87 106.01 61.69 105.79 61.69 110.41"/><polygon class="cls-1" points="113.08 107.28 122.51 107.03 122.51 112.63 113.2 112.9 113.08 107.28"/><polygon class="cls-2" points="122.27 112.4 113.43 112.66 113.32 107.52 122.27 107.28 122.27 112.4"/><path class="cls-4" d="M25.56,51.09v6.64s22.14-.83,51.27-2.39,54.31-4.29,54.31-4.29V44.12s-33.27,4.74-55.27,5.65S25.56,51.09,25.56,51.09Z"/><path class="cls-1" d="M25.56,51.09v1.06c4.23-.06,32.63-.51,53.9-1.78,17.28-1,45.82-4.45,51.68-5.16V44.12s-33.27,4.74-55.27,5.65S25.56,51.09,25.56,51.09Z"/><path class="cls-4" d="M25,51.64s31.41-.41,54.44-1.79c19.33-1.15,52.76-5.29,52.76-5.29V43.17S102.77,47,77.07,48.7c-20,1.3-52,1.67-52,1.67Z"/><polygon class="cls-1" points="42.74 117.42 44.52 42.93 51.61 42.93 53.38 117.42 42.74 117.42"/><polygon class="cls-4" points="51.37 43.17 44.75 43.17 42.99 117.18 53.13 117.18 51.37 43.17"/><polygon class="cls-1" points="29.89 85.96 29.83 80.86 45.88 81.09 45.85 86.19 29.89 85.96"/><polygon class="cls-2" points="45.61 85.94 30.13 85.72 30.07 81.11 45.64 81.33 45.61 85.94"/><polygon class="cls-1" points="29.83 106.7 45.9 106.23 45.87 111.32 29.89 111.79 29.83 106.7"/><polygon class="cls-2" points="45.63 111.09 30.13 111.55 30.07 106.93 45.66 106.47 45.63 111.09"/><rect class="cls-3" x="42.99" y="39.15" width="10.15" height="4.26"/><rect class="cls-3" x="23.35" y="74.44" width="3.34" height="42.73"/><polygon class="cls-1" points="103.04 120.15 104.84 37.54 112.04 37.54 113.83 120.15 103.04 120.15"/><polygon class="cls-4" points="111.8 37.78 105.08 37.78 103.29 119.91 113.59 119.91 111.8 37.78"/><rect class="cls-4" x="26.69" y="74.44" width="3.34" height="42.73"/><polygon class="cls-1" points="26.7 71.4 20.07 71.4 20.07 74.44 26.7 74.44 33.32 74.44 33.32 71.4 26.7 71.4"/><polygon class="cls-6" points="138.3 24.43 148.18 22.32 148.18 17.5 144.84 13.19 142.21 13.98 136.75 18.46 138.3 24.43"/><path class="cls-5" d="M31.29,69.59A16.26,16.26,0,0,1,26.69,68a16.1,16.1,0,0,1-4.59,1.57,31.51,31.51,0,0,1-5.29.6,5.87,5.87,0,0,0,1.47.83,7.65,7.65,0,0,0,1.79.38H33.32A7.75,7.75,0,0,0,35.11,71a5.87,5.87,0,0,0,1.47-.83A31.41,31.41,0,0,1,31.29,69.59Z"/><polygon class="cls-1" points="89.99 85.24 89.93 79.64 106.22 79.89 106.19 85.49 89.99 85.24"/><polygon class="cls-2" points="105.95 85.25 90.23 85.01 90.17 79.88 105.98 80.13 105.95 85.25"/><rect class="cls-1" x="21.26" y="80.76" width="1.53" height="5.11"/><polygon class="cls-1" points="22.8 85.86 22.8 80.76 25.8 80.81 25.8 85.9 22.8 85.86"/><polygon class="cls-2" points="25.56 81.04 22.8 81 22.8 85.62 25.56 85.66 25.56 81.04"/><polygon class="cls-1" points="89.93 108.31 106.24 107.79 106.21 113.39 89.99 113.91 89.93 108.31"/><polygon class="cls-2" points="105.97 113.16 90.23 113.67 90.17 108.54 106 108.03 105.97 113.16"/><rect class="cls-1" x="21.26" y="106.59" width="1.53" height="5.1"/><polygon class="cls-1" points="22.56 111.68 22.56 106.58 25.8 106.63 25.8 111.72 22.56 111.68"/><polygon class="cls-2" points="25.56 106.87 22.8 106.83 22.8 111.44 25.56 111.48 25.56 106.87"/><rect class="cls-3" x="103.46" y="34.69" width="9.95" height="4.72"/><rect class="cls-3" x="75.04" y="37.88" width="3.61" height="10.83"/><path class="cls-1" d="M23.35,34.85,25,40s11.59,1.23,49.54-1.31c35.19-2.37,56.58-5.54,56.58-5.54l2.91-6.68,4.61-1.12,1-8.32L17.7,29.92l2.37,4.61Z"/><polygon class="cls-6" points="66.56 36.84 75.99 36.27 78.66 49.9 70.26 50.34 66.56 36.84"/><rect class="cls-3" x="83.35" y="72.49" width="3.39" height="47.43"/><rect class="cls-4" x="86.75" y="72.49" width="3.39" height="47.43"/><polygon class="cls-1" points="86.75 69.11 80.02 69.11 80.02 72.49 86.75 72.49 93.47 72.49 93.47 69.11 86.75 69.11"/><path class="cls-5" d="M91.41,67.1a15.33,15.33,0,0,1-4.66-1.74,15.47,15.47,0,0,1-4.67,1.74,29.36,29.36,0,0,1-5.37.66,5.66,5.66,0,0,0,1.49.93,7.37,7.37,0,0,0,1.82.42H93.47a7.37,7.37,0,0,0,1.82-.42,5.66,5.66,0,0,0,1.49-.93A29.36,29.36,0,0,1,91.41,67.1Z"/><path class="cls-7" d="M8.07,30.4a319.05,319.05,0,0,0,61.6.52A453,453,0,0,0,136,19.58l10-7.28h-1.55S99.1,23.39,72.61,25.88C45,28.47,8.07,29.28,8.07,29.28Z"/><path class="cls-8" d="M8.07,29.28a320,320,0,0,0,61.6.52A453,453,0,0,0,136,18.46l10-7.28S102.59,21.94,72.61,24.76c-27.58,2.59-58.93.15-58.93.15Z"/><polygon class="cls-7" points="146.06 11.18 144.51 12.3 148.18 22.32 149.8 21.09 146.06 11.18"/><path class="cls-5" d="M13.68,24.91l-2.5-5.18s12.69,8.12,64,2.59S149.8,5.73,149.8,5.73l-1.17,4.55-2.57.9s-29.86,9.93-75.18,14C26.2,29.28,13.68,24.91,13.68,24.91Z"/><rect class="cls-1" x="81.23" y="79.52" width="1.56" height="5.62"/><polygon class="cls-1" points="82.55 85.13 82.55 79.53 85.83 79.58 85.83 85.18 82.55 85.13"/><polygon class="cls-2" points="85.59 79.81 82.79 79.77 82.79 84.89 85.59 84.93 85.59 79.81"/><rect class="cls-1" x="81.23" y="108.19" width="1.56" height="5.6"/><polygon class="cls-1" points="82.55 113.78 82.55 108.19 85.83 108.23 85.83 113.83 82.55 113.78"/><polygon class="cls-2" points="85.59 108.47 82.79 108.43 82.79 113.55 85.59 113.59 85.59 108.47"/><rect class="cls-6" x="131.14" y="44.62" width="0.56" height="6.42"/><polygon class="cls-8" points="127.89 33.55 130.48 26.29 136.75 24.75 137.27 18.69 139.62 16.98 138.66 25.3 134.05 26.42 131.14 33.1 127.89 33.55"/></svg>