<svg id="Layer_1" data-name="Layer 1" xmlns="http://www.w3.org/2000/svg" viewBox="0 0 64.52 190.52"><defs><style>.cls-1{fill:#fdd691;}.cls-2{fill:#7b5b2c;}.cls-3{fill:#fedf8c;}.cls-4{fill:#e2b95d;}.cls-5{fill:#9c733b;}.cls-6{fill:#717662;}.cls-7{fill:#d6a950;}.cls-8{fill:#ffdb8a;}.cls-9{fill:#d9b97e;}.cls-10{fill:#658ca1;}.cls-11{fill:#fdff97;}.cls-12{fill:#3a3436;}.cls-13{fill:#3e4436;}.cls-14{fill:#47473b;}.cls-15{fill:#141608;}.cls-16{fill:#537486;}</style></defs><rect class="cls-1" x="22.14" y="88.74" width="24.67" height="93.36"/><rect class="cls-2" x="25.08" y="88.74" width="1.03" height="1.98"/><rect class="cls-3" x="25.2" y="88.85" width="0.79" height="1.75"/><rect class="cls-2" x="27.61" y="88.74" width="1.03" height="1.98"/><rect class="cls-3" x="27.73" y="88.85" width="0.79" height="1.75"/><rect class="cls-2" x="30.15" y="88.74" width="1.03" height="1.98"/><rect class="cls-3" x="30.27" y="88.85" width="0.79" height="1.75"/><rect class="cls-2" x="32.69" y="88.74" width="1.03" height="1.98"/><rect class="cls-3" x="32.81" y="88.85" width="0.79" height="1.75"/><rect class="cls-2" x="35.23" y="88.74" width="1.03" height="1.98"/><rect class="cls-3" x="35.35" y="88.85" width="0.79" height="1.75"/><rect class="cls-2" x="37.77" y="88.74" width="1.03" height="1.98"/><rect class="cls-3" x="37.89" y="88.85" width="0.79" height="1.75"/><rect class="cls-2" x="40.3" y="88.74" width="1.03" height="1.98"/><rect class="cls-3" x="40.42" y="88.85" width="0.79" height="1.75"/><rect class="cls-2" x="42.84" y="88.74" width="1.03" height="1.98"/><rect class="cls-3" x="42.96" y="88.85" width="0.79" height="1.75"/><rect class="cls-2" x="25.2" y="90.49" width="0.79" height="0.72"/><rect class="cls-2" x="27.73" y="90.49" width="0.79" height="0.72"/><rect class="cls-2" x="30.27" y="90.49" width="0.79" height="0.72"/><rect class="cls-2" x="32.81" y="90.49" width="0.79" height="0.72"/><rect class="cls-2" x="35.35" y="90.49" width="0.79" height="0.72"/><rect class="cls-2" x="37.89" y="90.49" width="0.79" height="0.72"/><rect class="cls-2" x="40.42" y="90.49" width="0.79" height="0.72"/><rect class="cls-2" x="42.96" y="90.49" width="0.79" height="0.72"/><rect class="cls-4" x="30.27" y="105.56" width="0.79" height="2.89"/><rect class="cls-2" x="28.4" y="105.44" width="1.99" height="3.12"/><rect class="cls-3" x="28.52" y="105.56" width="1.75" height="2.89"/><rect class="cls-4" x="32.81" y="105.56" width="0.79" height="2.89"/><rect class="cls-2" x="30.94" y="105.44" width="1.99" height="3.12"/><rect class="cls-3" x="31.06" y="105.56" width="1.75" height="2.89"/><rect class="cls-4" x="35.35" y="105.56" width="0.79" height="2.89"/><rect class="cls-2" x="33.48" y="105.44" width="1.99" height="3.12"/><rect class="cls-3" x="33.6" y="105.56" width="1.75" height="2.89"/><rect class="cls-4" x="37.89" y="105.56" width="0.79" height="2.89"/><rect class="cls-2" x="36.02" y="105.44" width="1.99" height="3.12"/><rect class="cls-3" x="36.14" y="105.56" width="1.75" height="2.89"/><rect class="cls-2" x="38.56" y="105.44" width="1.99" height="3.12"/><rect class="cls-3" x="38.68" y="105.56" width="1.75" height="2.89"/><path class="cls-2" d="M30.94,105V92a1,1,0,0,1,2,0v13Z"/><rect class="cls-5" x="42.1" y="88.74" width="0.27" height="19.71"/><rect class="cls-5" x="43.87" y="88.74" width="0.27" height="19.71"/><rect class="cls-5" x="26.57" y="90.84" width="0.27" height="17.6" transform="translate(53.42 199.29) rotate(180)"/><path class="cls-3" d="M32.81,104.91H31.06V92.08a.87.87,0,0,1,.88-.88h0a.87.87,0,0,1,.87.88Z"/><path class="cls-2" d="M33.48,105V92a1,1,0,0,1,2,0v13Z"/><path class="cls-3" d="M35.35,104.91H33.6V92.08a.87.87,0,0,1,.87-.88h0a.87.87,0,0,1,.88.88Z"/><path class="cls-6" d="M32.32,98.86h-.77V93.62a.38.38,0,0,1,.39-.38h0a.38.38,0,0,1,.38.38Z"/><path class="cls-6" d="M32.32,104.91h-.77V99.67a.38.38,0,0,1,.39-.38h0a.38.38,0,0,1,.38.38Z"/><path class="cls-2" d="M28.4,105V92a1,1,0,0,1,2,0v13Z"/><path class="cls-3" d="M30.27,104.91H28.52V92.08a.88.88,0,0,1,.88-.88h0a.87.87,0,0,1,.87.88Z"/><path class="cls-6" d="M29.78,98.86H29V93.62a.38.38,0,0,1,.39-.38h0a.38.38,0,0,1,.38.38Z"/><path class="cls-6" d="M29.78,104.91H29V99.67a.38.38,0,0,1,.39-.38h0a.38.38,0,0,1,.38.38Z"/><path class="cls-2" d="M36,105V92a1,1,0,0,1,2,0v13Z"/><path class="cls-3" d="M36.14,104.91h1.75V92.08A.88.88,0,0,0,37,91.2h0a.87.87,0,0,0-.87.88Z"/><path class="cls-6" d="M36.63,98.86h.77V93.62a.38.38,0,0,0-.39-.38h0a.38.38,0,0,0-.38.38Z"/><path class="cls-6" d="M36.63,104.91h.77V99.67a.38.38,0,0,0-.39-.38h0a.38.38,0,0,0-.38.38Z"/><path class="cls-2" d="M38.56,105V92a1,1,0,0,1,2,0v13Z"/><path class="cls-3" d="M38.68,104.91h1.74V92.08a.87.87,0,0,0-.87-.88h0a.87.87,0,0,0-.87.88Z"/><path class="cls-6" d="M39.16,98.86h.78V93.62a.39.39,0,0,0-.39-.38h0a.39.39,0,0,0-.39.38Z"/><path class="cls-6" d="M39.16,104.91h.78V99.67a.39.39,0,0,0-.39-.38h0a.39.39,0,0,0-.39.38Z"/><path class="cls-2" d="M42.84,104.78h.48v-3.1a.24.24,0,0,0-.24-.24h0a.24.24,0,0,0-.24.24Z"/><path class="cls-7" d="M42.84,104.91h.48V101.8a.24.24,0,0,0-.24-.24h0a.24.24,0,0,0-.24.24Z"/><path class="cls-2" d="M42.84,108.32h.48v-2a.24.24,0,0,0-.24-.24h0a.24.24,0,0,0-.24.24Z"/><path class="cls-7" d="M42.84,108.45h.48v-2a.24.24,0,0,0-.24-.24h0a.24.24,0,0,0-.24.24Z"/><path class="cls-2" d="M44.4,108.32h.48v-2a.24.24,0,0,0-.24-.24h0a.24.24,0,0,0-.24.24Z"/><path class="cls-7" d="M44.4,108.45h.48v-2a.24.24,0,0,0-.24-.24h0a.24.24,0,0,0-.24.24Z"/><path class="cls-2" d="M45.29,108.32h.48v-2a.24.24,0,0,0-.24-.24h0a.24.24,0,0,0-.24.24Z"/><path class="cls-7" d="M45.29,108.45h.48v-2a.24.24,0,0,0-.24-.24h0a.24.24,0,0,0-.24.24Z"/><path class="cls-2" d="M26.11,108.32h-.48v-2a.24.24,0,0,1,.24-.24h0a.24.24,0,0,1,.24.24Z"/><path class="cls-7" d="M26.11,108.45h-.48v-2a.24.24,0,0,1,.24-.24h0a.24.24,0,0,1,.24.24Z"/><path class="cls-2" d="M24.55,108.32h-.48v-2a.24.24,0,0,1,.24-.24h0a.24.24,0,0,1,.24.24Z"/><path class="cls-7" d="M24.55,108.45h-.48v-2a.24.24,0,0,1,.24-.24h0a.24.24,0,0,1,.24.24Z"/><path class="cls-2" d="M23.66,108.32h-.48v-2a.24.24,0,0,1,.24-.24h0a.24.24,0,0,1,.24.24Z"/><path class="cls-7" d="M23.66,108.45h-.48v-2a.24.24,0,0,1,.24-.24h0a.24.24,0,0,1,.24.24Z"/><path class="cls-2" d="M44.4,104.78h.48v-3.1a.24.24,0,0,0-.24-.24h0a.24.24,0,0,0-.24.24Z"/><path class="cls-7" d="M44.4,104.91h.48V101.8a.24.24,0,0,0-.24-.24h0a.24.24,0,0,0-.24.24Z"/><path class="cls-2" d="M45.29,104.78h.48v-3.1a.24.24,0,0,0-.24-.24h0a.24.24,0,0,0-.24.24Z"/><path class="cls-7" d="M45.29,104.91h.48V101.8a.24.24,0,0,0-.24-.24h0a.24.24,0,0,0-.24.24Z"/><path class="cls-2" d="M42.84,101h.48V97.92a.24.24,0,0,0-.24-.24h0a.24.24,0,0,0-.24.24Z"/><path class="cls-7" d="M42.84,101.15h.48V98a.23.23,0,0,0-.24-.23h0a.23.23,0,0,0-.24.23Z"/><path class="cls-2" d="M44.4,101h.48V97.92a.24.24,0,0,0-.24-.24h0a.24.24,0,0,0-.24.24Z"/><path class="cls-7" d="M44.4,101.15h.48V98a.23.23,0,0,0-.24-.23h0a.23.23,0,0,0-.24.23Z"/><path class="cls-2" d="M45.29,101h.48V97.92a.24.24,0,0,0-.24-.24h0a.24.24,0,0,0-.24.24Z"/><path class="cls-7" d="M45.29,101.15h.48V98a.23.23,0,0,0-.24-.23h0a.23.23,0,0,0-.24.23Z"/><path class="cls-2" d="M42.84,97.27h.48V94.16a.23.23,0,0,0-.24-.23h0a.23.23,0,0,0-.24.23Z"/><path class="cls-7" d="M42.84,97.4h.48V94.29a.24.24,0,0,0-.24-.24h0a.24.24,0,0,0-.24.24Z"/><path class="cls-2" d="M44.4,97.27h.48V94.16a.23.23,0,0,0-.24-.23h0a.23.23,0,0,0-.24.23Z"/><path class="cls-7" d="M44.4,97.4h.48V94.29a.24.24,0,0,0-.24-.24h0a.24.24,0,0,0-.24.24Z"/><path class="cls-2" d="M45.29,97.27h.48V94.16a.23.23,0,0,0-.24-.23h0a.23.23,0,0,0-.24.23Z"/><path class="cls-7" d="M45.29,97.4h.48V94.29a.24.24,0,0,0-.24-.24h0a.24.24,0,0,0-.24.24Z"/><rect class="cls-5" x="26.57" y="88.74" width="0.27" height="19.71" transform="translate(53.42 197.19) rotate(180)"/><rect class="cls-5" x="24.81" y="88.74" width="0.27" height="19.71" transform="translate(49.88 197.19) rotate(180)"/><path class="cls-2" d="M26.11,104.78h-.48v-3.1a.24.24,0,0,1,.24-.24h0a.24.24,0,0,1,.24.24Z"/><path class="cls-7" d="M26.11,104.91h-.48V101.8a.24.24,0,0,1,.24-.24h0a.24.24,0,0,1,.24.24Z"/><path class="cls-2" d="M24.55,104.78h-.48v-3.1a.23.23,0,0,1,.24-.24h0a.24.24,0,0,1,.24.24Z"/><path class="cls-7" d="M24.55,104.91h-.48V101.8a.24.24,0,0,1,.24-.24h0a.24.24,0,0,1,.24.24Z"/><path class="cls-2" d="M23.66,104.78h-.48v-3.1a.24.24,0,0,1,.24-.24h0a.24.24,0,0,1,.24.24Z"/><path class="cls-7" d="M23.66,104.91h-.48V101.8a.24.24,0,0,1,.24-.24h0a.24.24,0,0,1,.24.24Z"/><path class="cls-2" d="M26.11,101h-.48V97.92a.24.24,0,0,1,.24-.24h0a.24.24,0,0,1,.24.24Z"/><path class="cls-7" d="M26.11,101.15h-.48V98a.23.23,0,0,1,.24-.23h0a.23.23,0,0,1,.24.23Z"/><path class="cls-2" d="M24.55,101h-.48V97.92a.24.24,0,0,1,.24-.24h0a.24.24,0,0,1,.24.24Z"/><path class="cls-7" d="M24.55,101.15h-.48V98a.23.23,0,0,1,.24-.23h0a.23.23,0,0,1,.24.23Z"/><polygon class="cls-2" points="33.53 107.74 34.47 106.84 35.42 107.74 34.47 108.64 33.53 107.74"/><polygon class="cls-2" points="36.07 107.74 37.01 106.84 37.96 107.74 37.01 108.64 36.07 107.74"/><polygon class="cls-2" points="30.99 107.74 31.94 106.84 32.88 107.74 31.94 108.64 30.99 107.74"/><polygon class="cls-2" points="28.45 107.74 29.4 106.84 30.34 107.74 29.4 108.64 28.45 107.74"/><path class="cls-2" d="M23.66,101h-.48V97.92a.24.24,0,0,1,.24-.24h0a.24.24,0,0,1,.24.24Z"/><path class="cls-7" d="M23.66,101.15h-.48V98a.23.23,0,0,1,.24-.23h0a.23.23,0,0,1,.24.23Z"/><path class="cls-2" d="M26.11,97.27h-.48V94.16a.23.23,0,0,1,.24-.23h0a.23.23,0,0,1,.24.23Z"/><path class="cls-7" d="M26.11,97.4h-.48V94.29a.24.24,0,0,1,.24-.24h0a.24.24,0,0,1,.24.24Z"/><path class="cls-2" d="M24.55,97.27h-.48V94.16a.23.23,0,0,1,.24-.23h0a.23.23,0,0,1,.24.23Z"/><path class="cls-7" d="M24.55,97.4h-.48V94.29a.24.24,0,0,1,.24-.24h0a.24.24,0,0,1,.24.24Z"/><path class="cls-2" d="M23.66,97.27h-.48V94.16a.23.23,0,0,1,.24-.23h0a.23.23,0,0,1,.24.23Z"/><path class="cls-7" d="M23.66,97.4h-.48V94.29a.24.24,0,0,1,.24-.24h0a.24.24,0,0,1,.24.24Z"/><rect class="cls-2" x="22.14" y="104.91" width="24.67" height="0.65"/><rect class="cls-8" x="22.14" y="104.91" width="24.67" height="0.32"/><rect class="cls-2" x="22.14" y="108.45" width="24.67" height="0.65"/><polygon class="cls-2" points="38.61 107.74 39.55 106.84 40.49 107.74 39.55 108.64 38.61 107.74"/><rect class="cls-8" x="22.14" y="108.45" width="24.67" height="0.32"/><polygon class="cls-2" points="38.61 106.3 39.55 105.39 40.49 106.3 39.55 107.2 38.61 106.3"/><polygon class="cls-3" points="39.55 107.03 38.77 106.3 39.55 105.56 40.32 106.3 39.55 107.03"/><polygon class="cls-3" points="39.55 108.48 38.77 107.74 39.55 107 40.32 107.74 39.55 108.48"/><polygon class="cls-2" points="36.07 106.3 37.01 105.39 37.96 106.3 37.01 107.2 36.07 106.3"/><polygon class="cls-3" points="37.01 107.03 36.24 106.3 37.01 105.56 37.79 106.3 37.01 107.03"/><polygon class="cls-3" points="37.01 108.48 36.24 107.74 37.01 107 37.79 107.74 37.01 108.48"/><polygon class="cls-2" points="33.53 106.3 34.47 105.39 35.42 106.3 34.47 107.2 33.53 106.3"/><polygon class="cls-3" points="34.47 107.03 33.7 106.3 34.47 105.56 35.25 106.3 34.47 107.03"/><polygon class="cls-3" points="34.47 108.48 33.7 107.74 34.47 107 35.25 107.74 34.47 108.48"/><polygon class="cls-2" points="30.99 106.3 31.94 105.39 32.88 106.3 31.94 107.2 30.99 106.3"/><polygon class="cls-3" points="31.94 107.03 31.16 106.3 31.94 105.56 32.71 106.3 31.94 107.03"/><polygon class="cls-3" points="31.94 108.48 31.16 107.74 31.94 107 32.71 107.74 31.94 108.48"/><polygon class="cls-2" points="28.45 106.3 29.4 105.39 30.34 106.3 29.4 107.2 28.45 106.3"/><polygon class="cls-3" points="29.4 107.03 28.62 106.3 29.4 105.56 30.17 106.3 29.4 107.03"/><polygon class="cls-3" points="29.4 108.48 28.62 107.74 29.4 107 30.17 107.74 29.4 108.48"/><rect class="cls-4" x="30.27" y="123.81" width="0.79" height="2.89"/><rect class="cls-2" x="28.4" y="123.69" width="1.99" height="3.12"/><rect class="cls-3" x="28.52" y="123.81" width="1.75" height="2.89"/><rect class="cls-4" x="32.81" y="123.81" width="0.79" height="2.89"/><rect class="cls-2" x="30.94" y="123.69" width="1.99" height="3.12"/><rect class="cls-3" x="31.06" y="123.81" width="1.75" height="2.89"/><rect class="cls-4" x="35.35" y="123.81" width="0.79" height="2.89"/><rect class="cls-2" x="33.48" y="123.69" width="1.99" height="3.12"/><rect class="cls-3" x="33.6" y="123.81" width="1.75" height="2.89"/><rect class="cls-4" x="37.89" y="123.81" width="0.79" height="2.89"/><rect class="cls-2" x="36.02" y="123.69" width="1.99" height="3.12"/><rect class="cls-3" x="36.14" y="123.81" width="1.75" height="2.89"/><rect class="cls-2" x="38.56" y="123.69" width="1.99" height="3.12"/><rect class="cls-3" x="38.68" y="123.81" width="1.75" height="2.89"/><path class="cls-2" d="M30.94,123.27v-13a1,1,0,0,1,2,0v13Z"/><rect class="cls-5" x="42.1" y="109.09" width="0.27" height="17.6"/><rect class="cls-5" x="43.87" y="109.09" width="0.27" height="17.6"/><rect class="cls-5" x="26.57" y="109.09" width="0.27" height="17.6" transform="translate(53.42 235.79) rotate(180)"/><path class="cls-3" d="M32.81,123.16H31.06V110.33a.87.87,0,0,1,.88-.88h0a.87.87,0,0,1,.87.88Z"/><path class="cls-2" d="M33.48,123.27v-13a1,1,0,0,1,2,0v13Z"/><path class="cls-3" d="M35.35,123.16H33.6V110.33a.87.87,0,0,1,.87-.88h0a.87.87,0,0,1,.88.88Z"/><path class="cls-6" d="M32.32,117.11h-.77v-5.23a.38.38,0,0,1,.39-.39h0a.38.38,0,0,1,.38.39Z"/><path class="cls-6" d="M32.32,123.16h-.77v-5.24a.38.38,0,0,1,.39-.38h0a.38.38,0,0,1,.38.38Z"/><path class="cls-2" d="M28.4,123.27v-13a1,1,0,0,1,2,0v13Z"/><path class="cls-3" d="M30.27,123.16H28.52V110.33a.88.88,0,0,1,.88-.88h0a.87.87,0,0,1,.87.88Z"/><path class="cls-6" d="M29.78,117.11H29v-5.23a.38.38,0,0,1,.39-.39h0a.38.38,0,0,1,.38.39Z"/><path class="cls-6" d="M29.78,123.16H29v-5.24a.38.38,0,0,1,.39-.38h0a.38.38,0,0,1,.38.38Z"/><path class="cls-2" d="M36,123.27v-13a1,1,0,0,1,2,0v13Z"/><path class="cls-3" d="M36.14,123.16h1.75V110.33a.88.88,0,0,0-.88-.88h0a.87.87,0,0,0-.87.88Z"/><path class="cls-6" d="M36.63,117.11h.77v-5.23a.38.38,0,0,0-.39-.39h0a.38.38,0,0,0-.38.39Z"/><path class="cls-6" d="M36.63,123.16h.77v-5.24a.38.38,0,0,0-.39-.38h0a.38.38,0,0,0-.38.38Z"/><path class="cls-2" d="M38.56,123.27v-13a1,1,0,0,1,2,0v13Z"/><path class="cls-3" d="M38.68,123.16h1.74V110.33a.87.87,0,0,0-.87-.88h0a.87.87,0,0,0-.87.88Z"/><path class="cls-6" d="M39.16,117.11h.78v-5.23a.39.39,0,0,0-.39-.39h0a.39.39,0,0,0-.39.39Z"/><path class="cls-6" d="M39.16,123.16h.78v-5.24a.39.39,0,0,0-.39-.38h0a.39.39,0,0,0-.39.38Z"/><path class="cls-2" d="M42.84,123h.48v-3.1a.24.24,0,0,0-.24-.24h0a.24.24,0,0,0-.24.24Z"/><path class="cls-7" d="M42.84,123.16h.48v-3.11a.24.24,0,0,0-.24-.24h0a.24.24,0,0,0-.24.24Z"/><path class="cls-2" d="M42.84,126.57h.48v-2a.24.24,0,0,0-.24-.24h0a.24.24,0,0,0-.24.24Z"/><path class="cls-7" d="M42.84,126.7h.48v-2a.24.24,0,0,0-.24-.24h0a.24.24,0,0,0-.24.24Z"/><path class="cls-2" d="M44.4,126.57h.48v-2a.24.24,0,0,0-.24-.24h0a.24.24,0,0,0-.24.24Z"/><path class="cls-7" d="M44.4,126.7h.48v-2a.24.24,0,0,0-.24-.24h0a.24.24,0,0,0-.24.24Z"/><path class="cls-2" d="M45.29,126.57h.48v-2a.24.24,0,0,0-.24-.24h0a.24.24,0,0,0-.24.24Z"/><path class="cls-7" d="M45.29,126.7h.48v-2a.24.24,0,0,0-.24-.24h0a.24.24,0,0,0-.24.24Z"/><path class="cls-2" d="M26.11,126.57h-.48v-2a.24.24,0,0,1,.24-.24h0a.24.24,0,0,1,.24.24Z"/><path class="cls-7" d="M26.11,126.7h-.48v-2a.24.24,0,0,1,.24-.24h0a.24.24,0,0,1,.24.24Z"/><path class="cls-2" d="M24.55,126.57h-.48v-2a.24.24,0,0,1,.24-.24h0a.24.24,0,0,1,.24.24Z"/><path class="cls-7" d="M24.55,126.7h-.48v-2a.24.24,0,0,1,.24-.24h0a.24.24,0,0,1,.24.24Z"/><path class="cls-2" d="M23.66,126.57h-.48v-2a.24.24,0,0,1,.24-.24h0a.24.24,0,0,1,.24.24Z"/><path class="cls-7" d="M23.66,126.7h-.48v-2a.24.24,0,0,1,.24-.24h0a.24.24,0,0,1,.24.24Z"/><path class="cls-2" d="M44.4,123h.48v-3.1a.24.24,0,0,0-.24-.24h0a.24.24,0,0,0-.24.24Z"/><path class="cls-7" d="M44.4,123.16h.48v-3.11a.24.24,0,0,0-.24-.24h0a.24.24,0,0,0-.24.24Z"/><path class="cls-2" d="M45.29,123h.48v-3.1a.24.24,0,0,0-.24-.24h0a.24.24,0,0,0-.24.24Z"/><path class="cls-7" d="M45.29,123.16h.48v-3.11a.24.24,0,0,0-.24-.24h0a.24.24,0,0,0-.24.24Z"/><path class="cls-2" d="M42.84,119.28h.48v-3.11a.24.24,0,0,0-.24-.24h0a.24.24,0,0,0-.24.24Z"/><path class="cls-7" d="M42.84,119.4h.48v-3.11a.23.23,0,0,0-.24-.23h0a.23.23,0,0,0-.24.23Z"/><path class="cls-2" d="M44.4,119.28h.48v-3.11a.24.24,0,0,0-.24-.24h0a.24.24,0,0,0-.24.24Z"/><path class="cls-7" d="M44.4,119.4h.48v-3.11a.23.23,0,0,0-.24-.23h0a.23.23,0,0,0-.24.23Z"/><path class="cls-2" d="M45.29,119.28h.48v-3.11a.24.24,0,0,0-.24-.24h0a.24.24,0,0,0-.24.24Z"/><path class="cls-7" d="M45.29,119.4h.48v-3.11a.23.23,0,0,0-.24-.23h0a.23.23,0,0,0-.24.23Z"/><path class="cls-2" d="M42.84,115.52h.48v-3.11a.23.23,0,0,0-.24-.23h0a.23.23,0,0,0-.24.23Z"/><path class="cls-7" d="M42.84,115.65h.48v-3.11a.24.24,0,0,0-.24-.24h0a.24.24,0,0,0-.24.24Z"/><path class="cls-2" d="M44.4,115.52h.48v-3.11a.23.23,0,0,0-.24-.23h0a.23.23,0,0,0-.24.23Z"/><path class="cls-7" d="M44.4,115.65h.48v-3.11a.24.24,0,0,0-.24-.24h0a.24.24,0,0,0-.24.24Z"/><path class="cls-2" d="M45.29,115.52h.48v-3.11a.23.23,0,0,0-.24-.23h0a.23.23,0,0,0-.24.23Z"/><path class="cls-7" d="M45.29,115.65h.48v-3.11a.24.24,0,0,0-.24-.24h0a.24.24,0,0,0-.24.24Z"/><rect class="cls-5" x="26.57" y="109.09" width="0.27" height="17.6" transform="translate(53.42 235.79) rotate(180)"/><rect class="cls-5" x="24.81" y="109.09" width="0.27" height="17.6" transform="translate(49.88 235.79) rotate(180)"/><path class="cls-2" d="M26.11,123h-.48v-3.1a.24.24,0,0,1,.24-.24h0a.24.24,0,0,1,.24.24Z"/><path class="cls-7" d="M26.11,123.16h-.48v-3.11a.24.24,0,0,1,.24-.24h0a.24.24,0,0,1,.24.24Z"/><path class="cls-2" d="M24.55,123h-.48v-3.1a.23.23,0,0,1,.24-.24h0a.24.24,0,0,1,.24.24Z"/><path class="cls-7" d="M24.55,123.16h-.48v-3.11a.24.24,0,0,1,.24-.24h0a.24.24,0,0,1,.24.24Z"/><path class="cls-2" d="M23.66,123h-.48v-3.1a.24.24,0,0,1,.24-.24h0a.24.24,0,0,1,.24.24Z"/><path class="cls-7" d="M23.66,123.16h-.48v-3.11a.24.24,0,0,1,.24-.24h0a.24.24,0,0,1,.24.24Z"/><path class="cls-2" d="M26.11,119.28h-.48v-3.11a.24.24,0,0,1,.24-.24h0a.24.24,0,0,1,.24.24Z"/><path class="cls-7" d="M26.11,119.4h-.48v-3.11a.23.23,0,0,1,.24-.23h0a.23.23,0,0,1,.24.23Z"/><path class="cls-2" d="M24.55,119.28h-.48v-3.11a.24.24,0,0,1,.24-.24h0a.24.24,0,0,1,.24.24Z"/><path class="cls-7" d="M24.55,119.4h-.48v-3.11a.23.23,0,0,1,.24-.23h0a.23.23,0,0,1,.24.23Z"/><polygon class="cls-2" points="33.53 125.99 34.47 125.09 35.42 125.99 34.47 126.89 33.53 125.99"/><polygon class="cls-2" points="36.07 125.99 37.01 125.09 37.96 125.99 37.01 126.89 36.07 125.99"/><polygon class="cls-2" points="30.99 125.99 31.94 125.09 32.88 125.99 31.94 126.89 30.99 125.99"/><polygon class="cls-2" points="28.45 125.99 29.4 125.09 30.34 125.99 29.4 126.89 28.45 125.99"/><path class="cls-2" d="M23.66,119.28h-.48v-3.11a.24.24,0,0,1,.24-.24h0a.24.24,0,0,1,.24.24Z"/><path class="cls-7" d="M23.66,119.4h-.48v-3.11a.23.23,0,0,1,.24-.23h0a.23.23,0,0,1,.24.23Z"/><path class="cls-2" d="M26.11,115.52h-.48v-3.11a.23.23,0,0,1,.24-.23h0a.23.23,0,0,1,.24.23Z"/><path class="cls-7" d="M26.11,115.65h-.48v-3.11a.24.24,0,0,1,.24-.24h0a.24.24,0,0,1,.24.24Z"/><path class="cls-2" d="M24.55,115.52h-.48v-3.11a.23.23,0,0,1,.24-.23h0a.23.23,0,0,1,.24.23Z"/><path class="cls-7" d="M24.55,115.65h-.48v-3.11a.24.24,0,0,1,.24-.24h0a.24.24,0,0,1,.24.24Z"/><path class="cls-2" d="M23.66,115.52h-.48v-3.11a.23.23,0,0,1,.24-.23h0a.23.23,0,0,1,.24.23Z"/><path class="cls-7" d="M23.66,115.65h-.48v-3.11a.24.24,0,0,1,.24-.24h0a.24.24,0,0,1,.24.24Z"/><rect class="cls-2" x="22.14" y="123.16" width="24.67" height="0.65"/><rect class="cls-8" x="22.14" y="123.16" width="24.67" height="0.32"/><rect class="cls-2" x="22.14" y="126.7" width="24.67" height="0.65"/><polygon class="cls-2" points="38.61 125.99 39.55 125.09 40.49 125.99 39.55 126.89 38.61 125.99"/><rect class="cls-8" x="22.14" y="126.7" width="24.67" height="0.32"/><polygon class="cls-2" points="38.61 124.55 39.55 123.64 40.49 124.55 39.55 125.45 38.61 124.55"/><polygon class="cls-3" points="39.55 125.28 38.77 124.55 39.55 123.81 40.32 124.55 39.55 125.28"/><polygon class="cls-3" points="39.55 126.73 38.77 125.99 39.55 125.25 40.32 125.99 39.55 126.73"/><polygon class="cls-2" points="36.07 124.55 37.01 123.64 37.96 124.55 37.01 125.45 36.07 124.55"/><polygon class="cls-3" points="37.01 125.28 36.24 124.55 37.01 123.81 37.79 124.55 37.01 125.28"/><polygon class="cls-3" points="37.01 126.73 36.24 125.99 37.01 125.25 37.79 125.99 37.01 126.73"/><polygon class="cls-2" points="33.53 124.55 34.47 123.64 35.42 124.55 34.47 125.45 33.53 124.55"/><polygon class="cls-3" points="34.47 125.28 33.7 124.55 34.47 123.81 35.25 124.55 34.47 125.28"/><polygon class="cls-3" points="34.47 126.73 33.7 125.99 34.47 125.25 35.25 125.99 34.47 126.73"/><polygon class="cls-2" points="30.99 124.55 31.94 123.64 32.88 124.55 31.94 125.45 30.99 124.55"/><polygon class="cls-3" points="31.94 125.28 31.16 124.55 31.94 123.81 32.71 124.55 31.94 125.28"/><polygon class="cls-3" points="31.94 126.73 31.16 125.99 31.94 125.25 32.71 125.99 31.94 126.73"/><polygon class="cls-2" points="28.45 124.55 29.4 123.64 30.34 124.55 29.4 125.45 28.45 124.55"/><polygon class="cls-3" points="29.4 125.28 28.62 124.55 29.4 123.81 30.17 124.55 29.4 125.28"/><polygon class="cls-3" points="29.4 126.73 28.62 125.99 29.4 125.25 30.17 125.99 29.4 126.73"/><rect class="cls-4" x="30.27" y="142.06" width="0.79" height="2.89"/><rect class="cls-2" x="28.4" y="141.94" width="1.99" height="3.12"/><rect class="cls-3" x="28.52" y="142.06" width="1.75" height="2.89"/><rect class="cls-4" x="32.81" y="142.06" width="0.79" height="2.89"/><rect class="cls-2" x="30.94" y="141.94" width="1.99" height="3.12"/><rect class="cls-3" x="31.06" y="142.06" width="1.75" height="2.89"/><rect class="cls-4" x="35.35" y="142.06" width="0.79" height="2.89"/><rect class="cls-2" x="33.48" y="141.94" width="1.99" height="3.12"/><rect class="cls-3" x="33.6" y="142.06" width="1.75" height="2.89"/><rect class="cls-4" x="37.89" y="142.06" width="0.79" height="2.89"/><rect class="cls-2" x="36.02" y="141.94" width="1.99" height="3.12"/><rect class="cls-3" x="36.14" y="142.06" width="1.75" height="2.89"/><rect class="cls-2" x="38.56" y="141.94" width="1.99" height="3.12"/><rect class="cls-3" x="38.68" y="142.06" width="1.75" height="2.89"/><path class="cls-2" d="M30.94,141.52v-13a1,1,0,0,1,2,0v13Z"/><rect class="cls-5" x="42.1" y="127.35" width="0.27" height="17.6"/><rect class="cls-5" x="43.87" y="127.35" width="0.27" height="17.6"/><rect class="cls-5" x="26.57" y="127.35" width="0.27" height="17.6" transform="translate(53.42 272.3) rotate(180)"/><path class="cls-3" d="M32.81,141.41H31.06V128.58a.87.87,0,0,1,.88-.87h0a.87.87,0,0,1,.87.87Z"/><path class="cls-2" d="M33.48,141.52v-13a1,1,0,0,1,2,0v13Z"/><path class="cls-3" d="M35.35,141.41H33.6V128.58a.87.87,0,0,1,.87-.87h0a.87.87,0,0,1,.88.87Z"/><path class="cls-6" d="M32.32,135.36h-.77v-5.23a.38.38,0,0,1,.39-.39h0a.38.38,0,0,1,.38.39Z"/><path class="cls-6" d="M32.32,141.41h-.77v-5.23a.38.38,0,0,1,.39-.39h0a.38.38,0,0,1,.38.39Z"/><path class="cls-2" d="M28.4,141.52v-13a1,1,0,0,1,2,0v13Z"/><path class="cls-3" d="M30.27,141.41H28.52V128.58a.88.88,0,0,1,.88-.87h0a.87.87,0,0,1,.87.87Z"/><path class="cls-6" d="M29.78,135.36H29v-5.23a.38.38,0,0,1,.39-.39h0a.38.38,0,0,1,.38.39Z"/><path class="cls-6" d="M29.78,141.41H29v-5.23a.38.38,0,0,1,.39-.39h0a.38.38,0,0,1,.38.39Z"/><path class="cls-2" d="M36,141.52v-13a1,1,0,0,1,2,0v13Z"/><path class="cls-3" d="M36.14,141.41h1.75V128.58a.88.88,0,0,0-.88-.87h0a.87.87,0,0,0-.87.87Z"/><path class="cls-6" d="M36.63,135.36h.77v-5.23a.38.38,0,0,0-.39-.39h0a.38.38,0,0,0-.38.39Z"/><path class="cls-6" d="M36.63,141.41h.77v-5.23a.38.38,0,0,0-.39-.39h0a.38.38,0,0,0-.38.39Z"/><path class="cls-2" d="M38.56,141.52v-13a1,1,0,0,1,2,0v13Z"/><path class="cls-3" d="M38.68,141.41h1.74V128.58a.87.87,0,0,0-.87-.87h0a.87.87,0,0,0-.87.87Z"/><path class="cls-6" d="M39.16,135.36h.78v-5.23a.39.39,0,0,0-.39-.39h0a.39.39,0,0,0-.39.39Z"/><path class="cls-6" d="M39.16,141.41h.78v-5.23a.39.39,0,0,0-.39-.39h0a.39.39,0,0,0-.39.39Z"/><path class="cls-2" d="M42.84,141.29h.48v-3.11a.24.24,0,0,0-.24-.24h0a.24.24,0,0,0-.24.24Z"/><path class="cls-7" d="M42.84,141.41h.48V138.3a.24.24,0,0,0-.24-.24h0a.24.24,0,0,0-.24.24Z"/><path class="cls-2" d="M42.84,144.83h.48v-2a.24.24,0,0,0-.24-.24h0a.24.24,0,0,0-.24.24Z"/><path class="cls-7" d="M42.84,145h.48v-2a.24.24,0,0,0-.24-.24h0a.24.24,0,0,0-.24.24Z"/><path class="cls-2" d="M44.4,144.83h.48v-2a.24.24,0,0,0-.24-.24h0a.24.24,0,0,0-.24.24Z"/><path class="cls-7" d="M44.4,145h.48v-2a.24.24,0,0,0-.24-.24h0a.24.24,0,0,0-.24.24Z"/><path class="cls-2" d="M45.29,144.83h.48v-2a.24.24,0,0,0-.24-.24h0a.24.24,0,0,0-.24.24Z"/><path class="cls-7" d="M45.29,145h.48v-2a.24.24,0,0,0-.24-.24h0a.24.24,0,0,0-.24.24Z"/><path class="cls-2" d="M26.11,144.83h-.48v-2a.24.24,0,0,1,.24-.24h0a.24.24,0,0,1,.24.24Z"/><path class="cls-7" d="M26.11,145h-.48v-2a.24.24,0,0,1,.24-.24h0a.24.24,0,0,1,.24.24Z"/><path class="cls-2" d="M24.55,144.83h-.48v-2a.24.24,0,0,1,.24-.24h0a.24.24,0,0,1,.24.24Z"/><path class="cls-7" d="M24.55,145h-.48v-2a.23.23,0,0,1,.24-.24h0a.24.24,0,0,1,.24.24Z"/><path class="cls-2" d="M23.66,144.83h-.48v-2a.24.24,0,0,1,.24-.24h0a.24.24,0,0,1,.24.24Z"/><path class="cls-7" d="M23.66,145h-.48v-2a.24.24,0,0,1,.24-.24h0a.24.24,0,0,1,.24.24Z"/><path class="cls-2" d="M44.4,141.29h.48v-3.11a.24.24,0,0,0-.24-.24h0a.24.24,0,0,0-.24.24Z"/><path class="cls-7" d="M44.4,141.41h.48V138.3a.24.24,0,0,0-.24-.24h0a.24.24,0,0,0-.24.24Z"/><path class="cls-2" d="M45.29,141.29h.48v-3.11a.24.24,0,0,0-.24-.24h0a.24.24,0,0,0-.24.24Z"/><path class="cls-7" d="M45.29,141.41h.48V138.3a.24.24,0,0,0-.24-.24h0a.24.24,0,0,0-.24.24Z"/><path class="cls-2" d="M42.84,137.53h.48v-3.11a.24.24,0,0,0-.24-.24h0a.24.24,0,0,0-.24.24Z"/><path class="cls-7" d="M42.84,137.65h.48v-3.1a.24.24,0,0,0-.24-.24h0a.24.24,0,0,0-.24.24Z"/><path class="cls-2" d="M44.4,137.53h.48v-3.11a.24.24,0,0,0-.24-.24h0a.24.24,0,0,0-.24.24Z"/><path class="cls-7" d="M44.4,137.65h.48v-3.1a.24.24,0,0,0-.24-.24h0a.24.24,0,0,0-.24.24Z"/><path class="cls-2" d="M45.29,137.53h.48v-3.11a.24.24,0,0,0-.24-.24h0a.24.24,0,0,0-.24.24Z"/><path class="cls-7" d="M45.29,137.65h.48v-3.1a.24.24,0,0,0-.24-.24h0a.24.24,0,0,0-.24.24Z"/><path class="cls-2" d="M42.84,133.77h.48v-3.1a.24.24,0,0,0-.24-.24h0a.24.24,0,0,0-.24.24Z"/><path class="cls-7" d="M42.84,133.9h.48v-3.11a.24.24,0,0,0-.24-.24h0a.24.24,0,0,0-.24.24Z"/><path class="cls-2" d="M44.4,133.77h.48v-3.1a.24.24,0,0,0-.24-.24h0a.24.24,0,0,0-.24.24Z"/><path class="cls-7" d="M44.4,133.9h.48v-3.11a.24.24,0,0,0-.24-.24h0a.24.24,0,0,0-.24.24Z"/><path class="cls-2" d="M45.29,133.77h.48v-3.1a.24.24,0,0,0-.24-.24h0a.24.24,0,0,0-.24.24Z"/><path class="cls-7" d="M45.29,133.9h.48v-3.11a.24.24,0,0,0-.24-.24h0a.24.24,0,0,0-.24.24Z"/><rect class="cls-5" x="26.57" y="127.35" width="0.27" height="17.6" transform="translate(53.42 272.3) rotate(180)"/><rect class="cls-5" x="24.81" y="127.35" width="0.27" height="17.6" transform="translate(49.88 272.3) rotate(180)"/><path class="cls-2" d="M26.11,141.29h-.48v-3.11a.24.24,0,0,1,.24-.24h0a.24.24,0,0,1,.24.24Z"/><path class="cls-7" d="M26.11,141.41h-.48V138.3a.24.24,0,0,1,.24-.24h0a.24.24,0,0,1,.24.24Z"/><path class="cls-2" d="M24.55,141.29h-.48v-3.11a.24.24,0,0,1,.24-.24h0a.24.24,0,0,1,.24.24Z"/><path class="cls-7" d="M24.55,141.41h-.48V138.3a.24.24,0,0,1,.24-.24h0a.24.24,0,0,1,.24.24Z"/><path class="cls-2" d="M23.66,141.29h-.48v-3.11a.24.24,0,0,1,.24-.24h0a.24.24,0,0,1,.24.24Z"/><path class="cls-7" d="M23.66,141.41h-.48V138.3a.24.24,0,0,1,.24-.24h0a.24.24,0,0,1,.24.24Z"/><path class="cls-2" d="M26.11,137.53h-.48v-3.11a.24.24,0,0,1,.24-.24h0a.24.24,0,0,1,.24.24Z"/><path class="cls-7" d="M26.11,137.65h-.48v-3.1a.24.24,0,0,1,.24-.24h0a.24.24,0,0,1,.24.24Z"/><path class="cls-2" d="M24.55,137.53h-.48v-3.11a.24.24,0,0,1,.24-.24h0a.24.24,0,0,1,.24.24Z"/><path class="cls-7" d="M24.55,137.65h-.48v-3.1a.24.24,0,0,1,.24-.24h0a.24.24,0,0,1,.24.24Z"/><polygon class="cls-2" points="33.53 144.25 34.47 143.34 35.42 144.25 34.47 145.15 33.53 144.25"/><polygon class="cls-2" points="36.07 144.25 37.01 143.34 37.96 144.25 37.01 145.15 36.07 144.25"/><polygon class="cls-2" points="30.99 144.25 31.94 143.34 32.88 144.25 31.94 145.15 30.99 144.25"/><polygon class="cls-2" points="28.45 144.25 29.4 143.34 30.34 144.25 29.4 145.15 28.45 144.25"/><path class="cls-2" d="M23.66,137.53h-.48v-3.11a.24.24,0,0,1,.24-.24h0a.24.24,0,0,1,.24.24Z"/><path class="cls-7" d="M23.66,137.65h-.48v-3.1a.24.24,0,0,1,.24-.24h0a.24.24,0,0,1,.24.24Z"/><path class="cls-2" d="M26.11,133.77h-.48v-3.1a.24.24,0,0,1,.24-.24h0a.24.24,0,0,1,.24.24Z"/><path class="cls-7" d="M26.11,133.9h-.48v-3.11a.24.24,0,0,1,.24-.24h0a.24.24,0,0,1,.24.24Z"/><path class="cls-2" d="M24.55,133.77h-.48v-3.1a.24.24,0,0,1,.24-.24h0a.24.24,0,0,1,.24.24Z"/><path class="cls-7" d="M24.55,133.9h-.48v-3.11a.24.24,0,0,1,.24-.24h0a.24.24,0,0,1,.24.24Z"/><path class="cls-2" d="M23.66,133.77h-.48v-3.1a.24.24,0,0,1,.24-.24h0a.24.24,0,0,1,.24.24Z"/><path class="cls-7" d="M23.66,133.9h-.48v-3.11a.24.24,0,0,1,.24-.24h0a.24.24,0,0,1,.24.24Z"/><rect class="cls-2" x="22.14" y="141.41" width="24.67" height="0.65"/><rect class="cls-8" x="22.14" y="141.41" width="24.67" height="0.32"/><rect class="cls-2" x="22.14" y="144.95" width="24.67" height="0.65"/><polygon class="cls-2" points="38.61 144.25 39.55 143.34 40.49 144.25 39.55 145.15 38.61 144.25"/><rect class="cls-8" x="22.14" y="144.95" width="24.67" height="0.32"/><polygon class="cls-2" points="38.61 142.8 39.55 141.9 40.49 142.8 39.55 143.7 38.61 142.8"/><polygon class="cls-3" points="39.55 143.54 38.77 142.8 39.55 142.06 40.32 142.8 39.55 143.54"/><polygon class="cls-3" points="39.55 144.98 38.77 144.25 39.55 143.51 40.32 144.25 39.55 144.98"/><polygon class="cls-2" points="36.07 142.8 37.01 141.9 37.96 142.8 37.01 143.7 36.07 142.8"/><polygon class="cls-3" points="37.01 143.54 36.24 142.8 37.01 142.06 37.79 142.8 37.01 143.54"/><polygon class="cls-3" points="37.01 144.98 36.24 144.25 37.01 143.51 37.79 144.25 37.01 144.98"/><polygon class="cls-2" points="33.53 142.8 34.47 141.9 35.42 142.8 34.47 143.7 33.53 142.8"/><polygon class="cls-3" points="34.47 143.54 33.7 142.8 34.47 142.06 35.25 142.8 34.47 143.54"/><polygon class="cls-3" points="34.47 144.98 33.7 144.25 34.47 143.51 35.25 144.25 34.47 144.98"/><polygon class="cls-2" points="30.99 142.8 31.94 141.9 32.88 142.8 31.94 143.7 30.99 142.8"/><polygon class="cls-3" points="31.94 143.54 31.16 142.8 31.94 142.06 32.71 142.8 31.94 143.54"/><polygon class="cls-3" points="31.94 144.98 31.16 144.25 31.94 143.51 32.71 144.25 31.94 144.98"/><polygon class="cls-2" points="28.45 142.8 29.4 141.9 30.34 142.8 29.4 143.7 28.45 142.8"/><polygon class="cls-3" points="29.4 143.54 28.62 142.8 29.4 142.06 30.17 142.8 29.4 143.54"/><polygon class="cls-3" points="29.4 144.98 28.62 144.25 29.4 143.51 30.17 144.25 29.4 144.98"/><rect class="cls-4" x="30.27" y="160.31" width="0.79" height="2.89"/><rect class="cls-2" x="28.4" y="160.2" width="1.99" height="3.12"/><rect class="cls-3" x="28.52" y="160.31" width="1.75" height="2.89"/><rect class="cls-4" x="32.81" y="160.31" width="0.79" height="2.89"/><rect class="cls-2" x="30.94" y="160.2" width="1.99" height="3.12"/><rect class="cls-3" x="31.06" y="160.31" width="1.75" height="2.89"/><rect class="cls-4" x="35.35" y="160.31" width="0.79" height="2.89"/><rect class="cls-2" x="33.48" y="160.2" width="1.99" height="3.12"/><rect class="cls-3" x="33.6" y="160.31" width="1.75" height="2.89"/><rect class="cls-4" x="37.89" y="160.31" width="0.79" height="2.89"/><rect class="cls-2" x="36.02" y="160.2" width="1.99" height="3.12"/><rect class="cls-3" x="36.14" y="160.31" width="1.75" height="2.89"/><rect class="cls-2" x="38.56" y="160.2" width="1.99" height="3.12"/><rect class="cls-3" x="38.68" y="160.31" width="1.75" height="2.89"/><path class="cls-2" d="M30.94,159.78v-13a1,1,0,0,1,2,0v13Z"/><rect class="cls-5" x="42.1" y="145.6" width="0.27" height="17.6"/><rect class="cls-5" x="43.87" y="145.6" width="0.27" height="17.6"/><rect class="cls-5" x="26.57" y="145.6" width="0.27" height="17.6" transform="translate(53.42 308.81) rotate(180)"/><path class="cls-3" d="M32.81,159.66H31.06V146.83a.87.87,0,0,1,.88-.87h0a.87.87,0,0,1,.87.87Z"/><path class="cls-2" d="M33.48,159.78v-13a1,1,0,0,1,2,0v13Z"/><path class="cls-3" d="M35.35,159.66H33.6V146.83a.87.87,0,0,1,.87-.87h0a.87.87,0,0,1,.88.87Z"/><path class="cls-6" d="M32.32,153.61h-.77v-5.23a.38.38,0,0,1,.39-.38h0a.38.38,0,0,1,.38.38Z"/><path class="cls-6" d="M32.32,159.66h-.77v-5.23a.39.39,0,0,1,.39-.39h0a.39.39,0,0,1,.38.39Z"/><path class="cls-2" d="M28.4,159.78v-13a1,1,0,0,1,2,0v13Z"/><path class="cls-3" d="M30.27,159.66H28.52V146.83a.88.88,0,0,1,.88-.87h0a.87.87,0,0,1,.87.87Z"/><path class="cls-6" d="M29.78,153.61H29v-5.23a.38.38,0,0,1,.39-.38h0a.38.38,0,0,1,.38.38Z"/><path class="cls-6" d="M29.78,159.66H29v-5.23a.39.39,0,0,1,.39-.39h0a.39.39,0,0,1,.38.39Z"/><path class="cls-2" d="M36,159.78v-13a1,1,0,0,1,2,0v13Z"/><path class="cls-3" d="M36.14,159.66h1.75V146.83A.88.88,0,0,0,37,146h0a.87.87,0,0,0-.87.87Z"/><path class="cls-6" d="M36.63,153.61h.77v-5.23A.38.38,0,0,0,37,148h0a.38.38,0,0,0-.38.38Z"/><path class="cls-6" d="M36.63,159.66h.77v-5.23A.39.39,0,0,0,37,154h0a.39.39,0,0,0-.38.39Z"/><path class="cls-2" d="M38.56,159.78v-13a1,1,0,0,1,2,0v13Z"/><path class="cls-3" d="M38.68,159.66h1.74V146.83a.87.87,0,0,0-.87-.87h0a.87.87,0,0,0-.87.87Z"/><path class="cls-6" d="M39.16,153.61h.78v-5.23a.39.39,0,0,0-.39-.38h0a.39.39,0,0,0-.39.38Z"/><path class="cls-6" d="M39.16,159.66h.78v-5.23a.4.4,0,0,0-.39-.39h0a.4.4,0,0,0-.39.39Z"/><path class="cls-2" d="M42.84,159.54h.48v-3.11a.24.24,0,0,0-.24-.24h0a.24.24,0,0,0-.24.24Z"/><path class="cls-7" d="M42.84,159.66h.48v-3.1a.24.24,0,0,0-.24-.24h0a.24.24,0,0,0-.24.24Z"/><path class="cls-2" d="M42.84,163.08h.48v-2a.23.23,0,0,0-.24-.23h0a.23.23,0,0,0-.24.23Z"/><path class="cls-7" d="M42.84,163.21h.48v-2a.24.24,0,0,0-.24-.24h0a.24.24,0,0,0-.24.24Z"/><path class="cls-2" d="M44.4,163.08h.48v-2a.23.23,0,0,0-.24-.23h0a.23.23,0,0,0-.24.23Z"/><path class="cls-7" d="M44.4,163.21h.48v-2a.24.24,0,0,0-.24-.24h0a.24.24,0,0,0-.24.24Z"/><path class="cls-2" d="M45.29,163.08h.48v-2a.23.23,0,0,0-.24-.23h0a.23.23,0,0,0-.24.23Z"/><path class="cls-7" d="M45.29,163.21h.48v-2a.24.24,0,0,0-.24-.24h0a.24.24,0,0,0-.24.24Z"/><path class="cls-2" d="M26.11,163.08h-.48v-2a.23.23,0,0,1,.24-.23h0a.23.23,0,0,1,.24.23Z"/><path class="cls-7" d="M26.11,163.21h-.48v-2a.24.24,0,0,1,.24-.24h0a.24.24,0,0,1,.24.24Z"/><path class="cls-2" d="M24.55,163.08h-.48v-2a.23.23,0,0,1,.24-.23h0a.23.23,0,0,1,.24.23Z"/><path class="cls-7" d="M24.55,163.21h-.48v-2a.24.24,0,0,1,.24-.24h0a.24.24,0,0,1,.24.24Z"/><path class="cls-2" d="M23.66,163.08h-.48v-2a.23.23,0,0,1,.24-.23h0a.23.23,0,0,1,.24.23Z"/><path class="cls-7" d="M23.66,163.21h-.48v-2a.24.24,0,0,1,.24-.24h0a.24.24,0,0,1,.24.24Z"/><path class="cls-2" d="M44.4,159.54h.48v-3.11a.24.24,0,0,0-.24-.24h0a.24.24,0,0,0-.24.24Z"/><path class="cls-7" d="M44.4,159.66h.48v-3.1a.24.24,0,0,0-.24-.24h0a.24.24,0,0,0-.24.24Z"/><path class="cls-2" d="M45.29,159.54h.48v-3.11a.24.24,0,0,0-.24-.24h0a.24.24,0,0,0-.24.24Z"/><path class="cls-7" d="M45.29,159.66h.48v-3.1a.24.24,0,0,0-.24-.24h0a.24.24,0,0,0-.24.24Z"/><path class="cls-2" d="M42.84,155.78h.48v-3.1a.24.24,0,0,0-.24-.24h0a.24.24,0,0,0-.24.24Z"/><path class="cls-7" d="M42.84,155.91h.48V152.8a.24.24,0,0,0-.24-.24h0a.24.24,0,0,0-.24.24Z"/><path class="cls-2" d="M44.4,155.78h.48v-3.1a.24.24,0,0,0-.24-.24h0a.24.24,0,0,0-.24.24Z"/><path class="cls-7" d="M44.4,155.91h.48V152.8a.24.24,0,0,0-.24-.24h0a.24.24,0,0,0-.24.24Z"/><path class="cls-2" d="M45.29,155.78h.48v-3.1a.24.24,0,0,0-.24-.24h0a.24.24,0,0,0-.24.24Z"/><path class="cls-7" d="M45.29,155.91h.48V152.8a.24.24,0,0,0-.24-.24h0a.24.24,0,0,0-.24.24Z"/><path class="cls-2" d="M42.84,152h.48v-3.11a.24.24,0,0,0-.24-.24h0a.24.24,0,0,0-.24.24Z"/><path class="cls-7" d="M42.84,152.15h.48v-3.1a.24.24,0,0,0-.24-.24h0a.24.24,0,0,0-.24.24Z"/><path class="cls-2" d="M44.4,152h.48v-3.11a.24.24,0,0,0-.24-.24h0a.24.24,0,0,0-.24.24Z"/><path class="cls-7" d="M44.4,152.15h.48v-3.1a.24.24,0,0,0-.24-.24h0a.24.24,0,0,0-.24.24Z"/><path class="cls-2" d="M45.29,152h.48v-3.11a.24.24,0,0,0-.24-.24h0a.24.24,0,0,0-.24.24Z"/><path class="cls-7" d="M45.29,152.15h.48v-3.1a.24.24,0,0,0-.24-.24h0a.24.24,0,0,0-.24.24Z"/><rect class="cls-5" x="26.57" y="145.6" width="0.27" height="17.6" transform="translate(53.42 308.81) rotate(180)"/><rect class="cls-5" x="24.81" y="145.6" width="0.27" height="17.6" transform="translate(49.88 308.81) rotate(180)"/><path class="cls-2" d="M26.11,159.54h-.48v-3.11a.24.24,0,0,1,.24-.24h0a.24.24,0,0,1,.24.24Z"/><path class="cls-7" d="M26.11,159.66h-.48v-3.1a.24.24,0,0,1,.24-.24h0a.24.24,0,0,1,.24.24Z"/><path class="cls-2" d="M24.55,159.54h-.48v-3.11a.24.24,0,0,1,.24-.24h0a.24.24,0,0,1,.24.24Z"/><path class="cls-7" d="M24.55,159.66h-.48v-3.1a.23.23,0,0,1,.24-.24h0a.24.24,0,0,1,.24.24Z"/><path class="cls-2" d="M23.66,159.54h-.48v-3.11a.24.24,0,0,1,.24-.24h0a.24.24,0,0,1,.24.24Z"/><path class="cls-7" d="M23.66,159.66h-.48v-3.1a.24.24,0,0,1,.24-.24h0a.24.24,0,0,1,.24.24Z"/><path class="cls-2" d="M26.11,155.78h-.48v-3.1a.24.24,0,0,1,.24-.24h0a.24.24,0,0,1,.24.24Z"/><path class="cls-7" d="M26.11,155.91h-.48V152.8a.24.24,0,0,1,.24-.24h0a.24.24,0,0,1,.24.24Z"/><path class="cls-2" d="M24.55,155.78h-.48v-3.1a.23.23,0,0,1,.24-.24h0a.24.24,0,0,1,.24.24Z"/><path class="cls-7" d="M24.55,155.91h-.48V152.8a.24.24,0,0,1,.24-.24h0a.24.24,0,0,1,.24.24Z"/><polygon class="cls-2" points="33.53 162.5 34.47 161.6 35.42 162.5 34.47 163.4 33.53 162.5"/><polygon class="cls-2" points="36.07 162.5 37.01 161.6 37.96 162.5 37.01 163.4 36.07 162.5"/><polygon class="cls-2" points="30.99 162.5 31.94 161.6 32.88 162.5 31.94 163.4 30.99 162.5"/><polygon class="cls-2" points="28.45 162.5 29.4 161.6 30.34 162.5 29.4 163.4 28.45 162.5"/><path class="cls-2" d="M23.66,155.78h-.48v-3.1a.24.24,0,0,1,.24-.24h0a.24.24,0,0,1,.24.24Z"/><path class="cls-7" d="M23.66,155.91h-.48V152.8a.24.24,0,0,1,.24-.24h0a.24.24,0,0,1,.24.24Z"/><path class="cls-2" d="M26.11,152h-.48v-3.11a.24.24,0,0,1,.24-.24h0a.24.24,0,0,1,.24.24Z"/><path class="cls-7" d="M26.11,152.15h-.48v-3.1a.24.24,0,0,1,.24-.24h0a.24.24,0,0,1,.24.24Z"/><path class="cls-2" d="M24.55,152h-.48v-3.11a.24.24,0,0,1,.24-.24h0a.24.24,0,0,1,.24.24Z"/><path class="cls-7" d="M24.55,152.15h-.48v-3.1a.23.23,0,0,1,.24-.24h0a.24.24,0,0,1,.24.24Z"/><path class="cls-2" d="M23.66,152h-.48v-3.11a.24.24,0,0,1,.24-.24h0a.24.24,0,0,1,.24.24Z"/><path class="cls-7" d="M23.66,152.15h-.48v-3.1a.24.24,0,0,1,.24-.24h0a.24.24,0,0,1,.24.24Z"/><rect class="cls-2" x="22.14" y="159.66" width="24.67" height="0.65"/><rect class="cls-8" x="22.14" y="159.66" width="24.67" height="0.32"/><rect class="cls-2" x="22.14" y="163.21" width="24.67" height="0.65"/><polygon class="cls-2" points="38.61 162.5 39.55 161.6 40.49 162.5 39.55 163.4 38.61 162.5"/><rect class="cls-8" x="22.14" y="163.21" width="24.67" height="0.32"/><polygon class="cls-2" points="38.61 161.05 39.55 160.15 40.49 161.05 39.55 161.95 38.61 161.05"/><polygon class="cls-3" points="39.55 161.79 38.77 161.05 39.55 160.31 40.32 161.05 39.55 161.79"/><polygon class="cls-3" points="39.55 163.24 38.77 162.5 39.55 161.76 40.32 162.5 39.55 163.24"/><polygon class="cls-2" points="36.07 161.05 37.01 160.15 37.96 161.05 37.01 161.95 36.07 161.05"/><polygon class="cls-3" points="37.01 161.79 36.24 161.05 37.01 160.31 37.79 161.05 37.01 161.79"/><polygon class="cls-3" points="37.01 163.24 36.24 162.5 37.01 161.76 37.79 162.5 37.01 163.24"/><polygon class="cls-2" points="33.53 161.05 34.47 160.15 35.42 161.05 34.47 161.95 33.53 161.05"/><polygon class="cls-3" points="34.47 161.79 33.7 161.05 34.47 160.31 35.25 161.05 34.47 161.79"/><polygon class="cls-3" points="34.47 163.24 33.7 162.5 34.47 161.76 35.25 162.5 34.47 163.24"/><polygon class="cls-2" points="30.99 161.05 31.94 160.15 32.88 161.05 31.94 161.95 30.99 161.05"/><polygon class="cls-3" points="31.94 161.79 31.16 161.05 31.94 160.31 32.71 161.05 31.94 161.79"/><polygon class="cls-3" points="31.94 163.24 31.16 162.5 31.94 161.76 32.71 162.5 31.94 163.24"/><polygon class="cls-2" points="28.45 161.05 29.4 160.15 30.34 161.05 29.4 161.95 28.45 161.05"/><polygon class="cls-3" points="29.4 161.79 28.62 161.05 29.4 160.31 30.17 161.05 29.4 161.79"/><polygon class="cls-3" points="29.4 163.24 28.62 162.5 29.4 161.76 30.17 162.5 29.4 163.24"/><rect class="cls-4" x="30.27" y="178.57" width="0.79" height="2.89"/><rect class="cls-2" x="28.4" y="178.45" width="1.99" height="3.12"/><rect class="cls-3" x="28.52" y="178.57" width="1.75" height="2.89"/><rect class="cls-4" x="32.81" y="178.57" width="0.79" height="2.89"/><rect class="cls-2" x="30.94" y="178.45" width="1.99" height="3.12"/><rect class="cls-3" x="31.06" y="178.57" width="1.75" height="2.89"/><rect class="cls-4" x="35.35" y="178.57" width="0.79" height="2.89"/><rect class="cls-2" x="33.48" y="178.45" width="1.99" height="3.12"/><rect class="cls-3" x="33.6" y="178.57" width="1.75" height="2.89"/><rect class="cls-4" x="37.89" y="178.57" width="0.79" height="2.89"/><rect class="cls-2" x="36.02" y="178.45" width="1.99" height="3.12"/><rect class="cls-3" x="36.14" y="178.57" width="1.75" height="2.89"/><rect class="cls-2" x="38.56" y="178.45" width="1.99" height="3.12"/><rect class="cls-3" x="38.68" y="178.57" width="1.75" height="2.89"/><path class="cls-2" d="M30.94,178v-13a1,1,0,0,1,2,0v13Z"/><rect class="cls-5" x="42.1" y="163.85" width="0.27" height="17.6"/><rect class="cls-5" x="43.87" y="163.85" width="0.27" height="17.6"/><rect class="cls-5" x="26.57" y="163.85" width="0.27" height="17.6" transform="translate(53.42 345.31) rotate(180)"/><path class="cls-3" d="M32.81,177.92H31.06V165.09a.87.87,0,0,1,.88-.88h0a.87.87,0,0,1,.87.88Z"/><path class="cls-2" d="M33.48,178v-13a1,1,0,0,1,2,0v13Z"/><path class="cls-3" d="M35.35,177.92H33.6V165.09a.87.87,0,0,1,.87-.88h0a.87.87,0,0,1,.88.88Z"/><path class="cls-6" d="M32.32,171.87h-.77v-5.23a.38.38,0,0,1,.39-.39h0a.38.38,0,0,1,.38.39Z"/><path class="cls-6" d="M32.32,177.92h-.77v-5.24a.38.38,0,0,1,.39-.38h0a.38.38,0,0,1,.38.38Z"/><path class="cls-2" d="M28.4,178v-13a1,1,0,0,1,2,0v13Z"/><path class="cls-3" d="M30.27,177.92H28.52V165.09a.88.88,0,0,1,.88-.88h0a.87.87,0,0,1,.87.88Z"/><path class="cls-6" d="M29.78,171.87H29v-5.23a.38.38,0,0,1,.39-.39h0a.38.38,0,0,1,.38.39Z"/><path class="cls-6" d="M29.78,177.92H29v-5.24a.38.38,0,0,1,.39-.38h0a.38.38,0,0,1,.38.38Z"/><path class="cls-2" d="M36,178v-13a1,1,0,0,1,2,0v13Z"/><path class="cls-3" d="M36.14,177.92h1.75V165.09a.88.88,0,0,0-.88-.88h0a.87.87,0,0,0-.87.88Z"/><path class="cls-6" d="M36.63,171.87h.77v-5.23a.38.38,0,0,0-.39-.39h0a.38.38,0,0,0-.38.39Z"/><path class="cls-6" d="M36.63,177.92h.77v-5.24a.38.38,0,0,0-.39-.38h0a.38.38,0,0,0-.38.38Z"/><path class="cls-2" d="M38.56,178v-13a1,1,0,0,1,2,0v13Z"/><path class="cls-3" d="M38.68,177.92h1.74V165.09a.87.87,0,0,0-.87-.88h0a.87.87,0,0,0-.87.88Z"/><path class="cls-6" d="M39.16,171.87h.78v-5.23a.39.39,0,0,0-.39-.39h0a.39.39,0,0,0-.39.39Z"/><path class="cls-6" d="M39.16,177.92h.78v-5.24a.39.39,0,0,0-.39-.38h0a.39.39,0,0,0-.39.38Z"/><path class="cls-2" d="M42.84,177.79h.48v-3.1a.24.24,0,0,0-.24-.24h0a.24.24,0,0,0-.24.24Z"/><path class="cls-7" d="M42.84,177.92h.48v-3.11a.24.24,0,0,0-.24-.24h0a.24.24,0,0,0-.24.24Z"/><path class="cls-2" d="M42.84,181.33h.48v-2a.24.24,0,0,0-.24-.24h0a.24.24,0,0,0-.24.24Z"/><path class="cls-7" d="M42.84,181.46h.48v-2a.24.24,0,0,0-.24-.24h0a.24.24,0,0,0-.24.24Z"/><path class="cls-2" d="M44.4,181.33h.48v-2a.24.24,0,0,0-.24-.24h0a.24.24,0,0,0-.24.24Z"/><path class="cls-7" d="M44.4,181.46h.48v-2a.24.24,0,0,0-.24-.24h0a.24.24,0,0,0-.24.24Z"/><path class="cls-2" d="M45.29,181.33h.48v-2a.24.24,0,0,0-.24-.24h0a.24.24,0,0,0-.24.24Z"/><path class="cls-7" d="M45.29,181.46h.48v-2a.24.24,0,0,0-.24-.24h0a.24.24,0,0,0-.24.24Z"/><path class="cls-2" d="M26.11,181.33h-.48v-2a.24.24,0,0,1,.24-.24h0a.24.24,0,0,1,.24.24Z"/><path class="cls-7" d="M26.11,181.46h-.48v-2a.24.24,0,0,1,.24-.24h0a.24.24,0,0,1,.24.24Z"/><path class="cls-2" d="M24.55,181.33h-.48v-2a.24.24,0,0,1,.24-.24h0a.24.24,0,0,1,.24.24Z"/><path class="cls-7" d="M24.55,181.46h-.48v-2a.24.24,0,0,1,.24-.24h0a.24.24,0,0,1,.24.24Z"/><path class="cls-2" d="M23.66,181.33h-.48v-2a.24.24,0,0,1,.24-.24h0a.24.24,0,0,1,.24.24Z"/><path class="cls-7" d="M23.66,181.46h-.48v-2a.24.24,0,0,1,.24-.24h0a.24.24,0,0,1,.24.24Z"/><path class="cls-2" d="M44.4,177.79h.48v-3.1a.24.24,0,0,0-.24-.24h0a.24.24,0,0,0-.24.24Z"/><path class="cls-7" d="M44.4,177.92h.48v-3.11a.24.24,0,0,0-.24-.24h0a.24.24,0,0,0-.24.24Z"/><path class="cls-2" d="M45.29,177.79h.48v-3.1a.24.24,0,0,0-.24-.24h0a.24.24,0,0,0-.24.24Z"/><path class="cls-7" d="M45.29,177.92h.48v-3.11a.24.24,0,0,0-.24-.24h0a.24.24,0,0,0-.24.24Z"/><path class="cls-2" d="M42.84,174h.48v-3.11a.24.24,0,0,0-.24-.24h0a.24.24,0,0,0-.24.24Z"/><path class="cls-7" d="M42.84,174.16h.48v-3.11a.23.23,0,0,0-.24-.23h0a.23.23,0,0,0-.24.23Z"/><path class="cls-2" d="M44.4,174h.48v-3.11a.24.24,0,0,0-.24-.24h0a.24.24,0,0,0-.24.24Z"/><path class="cls-7" d="M44.4,174.16h.48v-3.11a.23.23,0,0,0-.24-.23h0a.23.23,0,0,0-.24.23Z"/><path class="cls-2" d="M45.29,174h.48v-3.11a.24.24,0,0,0-.24-.24h0a.24.24,0,0,0-.24.24Z"/><path class="cls-7" d="M45.29,174.16h.48v-3.11a.23.23,0,0,0-.24-.23h0a.23.23,0,0,0-.24.23Z"/><path class="cls-2" d="M42.84,170.28h.48v-3.11a.23.23,0,0,0-.24-.23h0a.23.23,0,0,0-.24.23Z"/><path class="cls-7" d="M42.84,170.41h.48V167.3a.24.24,0,0,0-.24-.24h0a.24.24,0,0,0-.24.24Z"/><path class="cls-2" d="M44.4,170.28h.48v-3.11a.23.23,0,0,0-.24-.23h0a.23.23,0,0,0-.24.23Z"/><path class="cls-7" d="M44.4,170.41h.48V167.3a.24.24,0,0,0-.24-.24h0a.24.24,0,0,0-.24.24Z"/><path class="cls-2" d="M45.29,170.28h.48v-3.11a.23.23,0,0,0-.24-.23h0a.23.23,0,0,0-.24.23Z"/><path class="cls-7" d="M45.29,170.41h.48V167.3a.24.24,0,0,0-.24-.24h0a.24.24,0,0,0-.24.24Z"/><rect class="cls-5" x="26.57" y="163.85" width="0.27" height="17.6" transform="translate(53.42 345.31) rotate(180)"/><rect class="cls-5" x="24.81" y="163.85" width="0.27" height="17.6" transform="translate(49.88 345.31) rotate(180)"/><path class="cls-2" d="M26.11,177.79h-.48v-3.1a.24.24,0,0,1,.24-.24h0a.24.24,0,0,1,.24.24Z"/><path class="cls-7" d="M26.11,177.92h-.48v-3.11a.24.24,0,0,1,.24-.24h0a.24.24,0,0,1,.24.24Z"/><path class="cls-2" d="M24.55,177.79h-.48v-3.1a.23.23,0,0,1,.24-.24h0a.24.24,0,0,1,.24.24Z"/><path class="cls-7" d="M24.55,177.92h-.48v-3.11a.24.24,0,0,1,.24-.24h0a.24.24,0,0,1,.24.24Z"/><path class="cls-2" d="M23.66,177.79h-.48v-3.1a.24.24,0,0,1,.24-.24h0a.24.24,0,0,1,.24.24Z"/><path class="cls-7" d="M23.66,177.92h-.48v-3.11a.24.24,0,0,1,.24-.24h0a.24.24,0,0,1,.24.24Z"/><path class="cls-2" d="M26.11,174h-.48v-3.11a.24.24,0,0,1,.24-.24h0a.24.24,0,0,1,.24.24Z"/><path class="cls-7" d="M26.11,174.16h-.48v-3.11a.23.23,0,0,1,.24-.23h0a.23.23,0,0,1,.24.23Z"/><path class="cls-2" d="M24.55,174h-.48v-3.11a.24.24,0,0,1,.24-.24h0a.24.24,0,0,1,.24.24Z"/><path class="cls-7" d="M24.55,174.16h-.48v-3.11a.23.23,0,0,1,.24-.23h0a.23.23,0,0,1,.24.23Z"/><polygon class="cls-2" points="33.53 180.75 34.47 179.85 35.42 180.75 34.47 181.65 33.53 180.75"/><polygon class="cls-2" points="36.07 180.75 37.01 179.85 37.96 180.75 37.01 181.65 36.07 180.75"/><polygon class="cls-2" points="30.99 180.75 31.94 179.85 32.88 180.75 31.94 181.65 30.99 180.75"/><polygon class="cls-2" points="28.45 180.75 29.4 179.85 30.34 180.75 29.4 181.65 28.45 180.75"/><path class="cls-2" d="M23.66,174h-.48v-3.11a.24.24,0,0,1,.24-.24h0a.24.24,0,0,1,.24.24Z"/><path class="cls-7" d="M23.66,174.16h-.48v-3.11a.23.23,0,0,1,.24-.23h0a.23.23,0,0,1,.24.23Z"/><path class="cls-2" d="M26.11,170.28h-.48v-3.11a.23.23,0,0,1,.24-.23h0a.23.23,0,0,1,.24.23Z"/><path class="cls-7" d="M26.11,170.41h-.48V167.3a.24.24,0,0,1,.24-.24h0a.24.24,0,0,1,.24.24Z"/><path class="cls-2" d="M24.55,170.28h-.48v-3.11a.23.23,0,0,1,.24-.23h0a.23.23,0,0,1,.24.23Z"/><path class="cls-7" d="M24.55,170.41h-.48V167.3a.24.24,0,0,1,.24-.24h0a.24.24,0,0,1,.24.24Z"/><path class="cls-2" d="M23.66,170.28h-.48v-3.11a.23.23,0,0,1,.24-.23h0a.23.23,0,0,1,.24.23Z"/><path class="cls-7" d="M23.66,170.41h-.48V167.3a.24.24,0,0,1,.24-.24h0a.24.24,0,0,1,.24.24Z"/><rect class="cls-2" x="22.14" y="177.92" width="24.67" height="0.65"/><rect class="cls-8" x="22.14" y="177.92" width="24.67" height="0.32"/><rect class="cls-2" x="22.14" y="181.46" width="24.67" height="0.65"/><polygon class="cls-2" points="38.61 180.75 39.55 179.85 40.49 180.75 39.55 181.65 38.61 180.75"/><rect class="cls-8" x="22.14" y="181.46" width="24.67" height="0.32"/><polygon class="cls-2" points="38.61 179.31 39.55 178.4 40.49 179.31 39.55 180.21 38.61 179.31"/><polygon class="cls-3" points="39.55 180.04 38.77 179.31 39.55 178.57 40.32 179.31 39.55 180.04"/><polygon class="cls-3" points="39.55 181.49 38.77 180.75 39.55 180.01 40.32 180.75 39.55 181.49"/><polygon class="cls-2" points="36.07 179.31 37.01 178.4 37.96 179.31 37.01 180.21 36.07 179.31"/><polygon class="cls-3" points="37.01 180.04 36.24 179.31 37.01 178.57 37.79 179.31 37.01 180.04"/><polygon class="cls-3" points="37.01 181.49 36.24 180.75 37.01 180.01 37.79 180.75 37.01 181.49"/><polygon class="cls-2" points="33.53 179.31 34.47 178.4 35.42 179.31 34.47 180.21 33.53 179.31"/><polygon class="cls-3" points="34.47 180.04 33.7 179.31 34.47 178.57 35.25 179.31 34.47 180.04"/><polygon class="cls-3" points="34.47 181.49 33.7 180.75 34.47 180.01 35.25 180.75 34.47 181.49"/><polygon class="cls-2" points="30.99 179.31 31.94 178.4 32.88 179.31 31.94 180.21 30.99 179.31"/><polygon class="cls-3" points="31.94 180.04 31.16 179.31 31.94 178.57 32.71 179.31 31.94 180.04"/><polygon class="cls-3" points="31.94 181.49 31.16 180.75 31.94 180.01 32.71 180.75 31.94 181.49"/><polygon class="cls-2" points="28.45 179.31 29.4 178.4 30.34 179.31 29.4 180.21 28.45 179.31"/><polygon class="cls-3" points="29.4 180.04 28.62 179.31 29.4 178.57 30.17 179.31 29.4 180.04"/><polygon class="cls-3" points="29.4 181.49 28.62 180.75 29.4 180.01 30.17 180.75 29.4 181.49"/><rect class="cls-5" x="20.74" y="66.36" width="27.47" height="22.35"/><rect class="cls-1" x="23.42" y="63.92" width="22.11" height="27.23" transform="translate(112.01 43.06) rotate(90)"/><rect class="cls-1" x="30.73" y="51.83" width="7.49" height="21.56" transform="translate(97.08 28.13) rotate(90)"/><rect class="cls-9" x="34.12" y="47.73" width="0.71" height="21.56" transform="translate(92.98 24.03) rotate(90)"/><rect class="cls-1" x="34.12" y="46.75" width="0.71" height="22.11" transform="translate(92.27 23.33) rotate(90)"/><polygon class="cls-10" points="23.42 57.45 28.93 47.5 40.02 47.5 45.53 57.45 23.42 57.45"/><rect class="cls-2" x="24.37" y="65.72" width="20.2" height="16.6" transform="translate(108.49 39.54) rotate(90)"/><path class="cls-2" d="M43.51,87.37H44V85.16a.24.24,0,0,0-.24-.24h0a.24.24,0,0,0-.24.24Z"/><path class="cls-7" d="M43.51,87.49H44V85.28a.24.24,0,0,0-.24-.24h0a.24.24,0,0,0-.24.24Z"/><path class="cls-2" d="M44.16,87.37h.48V85.16a.24.24,0,0,0-.24-.24h0a.24.24,0,0,0-.24.24Z"/><path class="cls-7" d="M44.16,87.49h.48V85.28A.24.24,0,0,0,44.4,85h0a.24.24,0,0,0-.24.24Z"/><path class="cls-2" d="M45.21,87.37h.48V85.16a.24.24,0,0,0-.24-.24h0a.24.24,0,0,0-.24.24Z"/><path class="cls-7" d="M45.21,87.49h.48V85.28a.24.24,0,0,0-.24-.24h0a.24.24,0,0,0-.24.24Z"/><path class="cls-2" d="M45.86,87.37h.48V85.16a.24.24,0,0,0-.24-.24h0a.24.24,0,0,0-.24.24Z"/><path class="cls-7" d="M45.86,87.49h.48V85.28A.24.24,0,0,0,46.1,85h0a.24.24,0,0,0-.24.24Z"/><path class="cls-2" d="M43.51,82.11H44v-3a.24.24,0,0,0-.24-.24h0a.24.24,0,0,0-.24.24Z"/><path class="cls-7" d="M43.51,82.23H44v-3a.24.24,0,0,0-.24-.24h0a.24.24,0,0,0-.24.24Z"/><path class="cls-2" d="M44.16,82.11h.48v-3a.24.24,0,0,0-.24-.24h0a.24.24,0,0,0-.24.24Z"/><path class="cls-7" d="M44.16,82.23h.48v-3A.24.24,0,0,0,44.4,79h0a.24.24,0,0,0-.24.24Z"/><path class="cls-2" d="M45.21,82.11h.48v-3a.24.24,0,0,0-.24-.24h0a.24.24,0,0,0-.24.24Z"/><path class="cls-7" d="M45.21,82.23h.48v-3a.24.24,0,0,0-.24-.24h0a.24.24,0,0,0-.24.24Z"/><path class="cls-2" d="M45.86,82.11h.48v-3a.24.24,0,0,0-.24-.24h0a.24.24,0,0,0-.24.24Z"/><path class="cls-7" d="M45.86,82.23h.48v-3A.24.24,0,0,0,46.1,79h0a.24.24,0,0,0-.24.24Z"/><rect class="cls-1" x="26.65" y="64.4" width="15.64" height="19.24"/><rect class="cls-2" x="27.24" y="67.71" width="14.46" height="14.46" transform="translate(109.41 40.47) rotate(90)"/><rect class="cls-11" x="27.36" y="67.83" width="14.22" height="14.22"/><path class="cls-12" d="M30.44,73.2c-.07.17,5,2.28,5.17,2.83a1.31,1.31,0,0,0,.36-.44A1.26,1.26,0,0,0,36,75C35.53,75.27,30.52,73,30.44,73.2Z"/><path class="cls-12" d="M36.16,73.8l.37.1.71-1.07-1.22.4v.38c-.91.61-2.39,1.66-2.71,1.52a1.1,1.1,0,0,0,.15.58A1,1,0,0,0,34,76C33.93,75.66,35.34,74.52,36.16,73.8Z"/><path class="cls-2" d="M34.47,68.28a6.66,6.66,0,1,0,6.66,6.66A6.66,6.66,0,0,0,34.47,68.28Zm-3.26,11-.6.83-.34-.28L31,79A2.43,2.43,0,0,0,31.21,79.23Zm.19.14.27.18-.51.88-.36-.23Zm.48.3.29.15-.41.93c-.14-.06-.26-.13-.39-.2Zm.51.25.3.11-.31,1a3.39,3.39,0,0,1-.41-.15Zm.53.19.31.08-.21,1-.41-.11Zm.55.13.32.05-.11,1-.42-.07Zm.56.08h.32v1l-.43,0Zm.56,0h.33l.11,1-.44,0Zm.57,0,.32-.05.21,1-.43.07Zm.55-.1.32-.08.31,1-.41.11Zm.55-.16.3-.11.41.93a2.74,2.74,0,0,1-.4.15Zm.52-.21.29-.15.51.88-.39.2Zm.49-.27.28-.18.6.83-.36.23Zm.47-.32A2.43,2.43,0,0,0,38,79l.68.75a3,3,0,0,1-.33.28Zm-3.27.87a5.16,5.16,0,1,1,5.16-5.16A5.16,5.16,0,0,1,34.47,80.1Zm-4.29-8.43-.82-.6a3.92,3.92,0,0,1,.27-.33l.76.68Zm-.14.2-.18.27L29,71.63a3.75,3.75,0,0,1,.24-.36Zm-.3.48a2.59,2.59,0,0,0-.14.29l-.94-.42c.06-.13.13-.26.2-.38Zm-.24.51-.12.3-1-.32.15-.4Zm-.19.53-.09.31-1-.21c0-.14.07-.28.11-.42Zm-.14.55c0,.1,0,.21-.05.32l-1-.11c0-.14,0-.29.06-.43Zm-.07.56c0,.1,0,.21,0,.32h-1c0-.15,0-.29,0-.43Zm0,.56c0,.11,0,.22,0,.32l-1,.11c0-.14,0-.29,0-.43Zm0,.56c0,.11,0,.22.05.32l-1,.22c0-.14-.05-.29-.06-.43Zm.1.56.09.31-1,.32c0-.14-.07-.28-.11-.42Zm.16.54.12.3-.94.42-.15-.4Zm.22.52a2.59,2.59,0,0,0,.14.29l-.88.51c-.07-.12-.14-.25-.2-.38Zm.26.5L30,78l-.82.6a3.75,3.75,0,0,1-.24-.36Zm.32.47.21.25-.76.68a3.92,3.92,0,0,1-.27-.33Zm7.56-7.56.6-.83.34.27-.69.76A2.43,2.43,0,0,0,37.74,70.65Zm-.19-.14-.28-.18.52-.88.36.23Zm-.48-.3-.29-.15.41-.93.39.2ZM36.56,70l-.3-.11.31-1A2.74,2.74,0,0,1,37,69ZM36,69.77l-.32-.08.22-1,.41.11Zm-.55-.13-.32,0,.1-1,.43.07Zm-.56-.08h-.33v-1l.44,0Zm-.57,0H34l-.11-1,.43,0Zm-.56,0-.32,0-.21-1,.42-.07Zm-.56.1-.31.08-.31-1,.41-.11Zm-.54.16-.3.11L32,69a3.39,3.39,0,0,1,.41-.15Zm-.52.21-.29.15-.51-.88c.13-.07.25-.14.39-.2Zm-.5.27-.27.18-.6-.83.36-.24Zm-.46.32a2.43,2.43,0,0,0-.25.2l-.69-.76.34-.27Zm8.57,3.29,1-.22c0,.14,0,.29.07.43l-1,.11C39.81,74.15,39.8,74,39.78,73.94Zm-.06-.24c0-.1,0-.21-.08-.31l1-.32c0,.14.08.28.11.42Zm-.15-.54-.12-.3.93-.42c.06.13.11.27.16.4Zm-.22-.52a1.59,1.59,0,0,0-.15-.29l.89-.51c.07.12.13.25.2.38Zm-.27-.5c0-.09-.11-.18-.17-.27l.82-.6.24.36Zm-.31-.47-.21-.25.76-.68.27.33Zm0,6.54.82.6-.27.33-.76-.68Zm.14-.2c.06-.09.12-.18.17-.27l.89.51-.24.36Zm.29-.48a1.59,1.59,0,0,0,.15-.29l.94.42c-.07.13-.13.26-.2.38Zm.25-.51.12-.3,1,.32c0,.13-.1.27-.16.4Zm.19-.53c0-.1.06-.21.08-.31l1,.21c0,.14-.07.28-.11.42Zm.14-.55c0-.1,0-.21,0-.32l1,.11c0,.14,0,.29-.07.43Zm.07-.56c0-.1,0-.21,0-.32h1c0,.14,0,.29,0,.43Zm0-.56c0-.11,0-.22,0-.32l1-.11c0,.14,0,.28,0,.43Zm-.71-4.26-.76.68c-.07-.08-.15-.15-.23-.23l.68-.75C39,70.35,39.06,70.46,39.16,70.56Zm-9.07-.3.69.75c-.08.08-.16.15-.23.23l-.76-.68C29.89,70.46,30,70.35,30.09,70.26Zm-.3,9.06.76-.68.23.23-.69.75C30,79.53,29.89,79.42,29.79,79.32Zm9.06.3-.68-.75.23-.23.76.68C39.06,79.42,39,79.53,38.85,79.62Z"/><path class="cls-2" d="M34.47,71.15a3.79,3.79,0,1,0,3.8,3.79A3.79,3.79,0,0,0,34.47,71.15Zm0,7.34A3.55,3.55,0,1,1,38,74.94,3.55,3.55,0,0,1,34.47,78.49Z"/><rect class="cls-2" x="34.22" y="69.91" width="0.5" height="1.09"/><rect class="cls-2" x="31.98" y="70.51" width="0.5" height="1.09" transform="translate(-31.21 25.63) rotate(-30)"/><rect class="cls-2" x="30.34" y="72.15" width="0.5" height="1.09" transform="translate(-47.66 62.83) rotate(-60)"/><rect class="cls-2" x="29.44" y="74.69" width="1.09" height="0.5"/><rect class="cls-2" x="30.04" y="76.94" width="1.09" height="0.5" transform="translate(-34.51 25.65) rotate(-30.01)"/><rect class="cls-2" x="31.69" y="78.58" width="1.09" height="0.5" transform="translate(-52.15 67.33) rotate(-60)"/><rect class="cls-2" x="34.22" y="78.89" width="0.5" height="1.09"/><rect class="cls-2" x="36.47" y="78.29" width="0.5" height="1.09" transform="translate(-34.5 28.92) rotate(-30)"/><rect class="cls-2" x="38.11" y="76.64" width="0.5" height="1.09" transform="translate(-47.66 71.82) rotate(-60.01)"/><rect class="cls-2" x="38.42" y="74.69" width="1.09" height="0.5"/><rect class="cls-2" x="37.82" y="72.45" width="1.09" height="0.5" transform="translate(-31.2 28.92) rotate(-30)"/><rect class="cls-2" x="36.18" y="70.8" width="1.09" height="0.5" transform="translate(-43.17 67.32) rotate(-59.99)"/><path class="cls-6" d="M27.56,84.73a.72.72,0,0,0-.72.72v2.1h1.44v-2.1A.72.72,0,0,0,27.56,84.73Z"/><path class="cls-13" d="M27.56,84.32a.73.73,0,0,0-.72.73v.4a.72.72,0,0,1,1.44,0v-.4A.73.73,0,0,0,27.56,84.32Z"/><path class="cls-6" d="M29.86,84.73a.72.72,0,0,0-.72.72v2.1h1.45v-2.1A.73.73,0,0,0,29.86,84.73Z"/><path class="cls-13" d="M29.86,84.32a.73.73,0,0,0-.72.73v.4a.72.72,0,0,1,.72-.72.73.73,0,0,1,.73.72v-.4A.73.73,0,0,0,29.86,84.32Z"/><path class="cls-6" d="M32.17,84.73a.72.72,0,0,0-.72.72v2.1h1.44v-2.1A.72.72,0,0,0,32.17,84.73Z"/><path class="cls-13" d="M32.17,84.32a.73.73,0,0,0-.72.73v.4a.72.72,0,0,1,1.44,0v-.4A.73.73,0,0,0,32.17,84.32Z"/><path class="cls-6" d="M34.47,84.73a.72.72,0,0,0-.72.72v2.1H35.2v-2.1A.73.73,0,0,0,34.47,84.73Z"/><path class="cls-13" d="M34.47,84.32a.73.73,0,0,0-.72.73v.4a.72.72,0,0,1,.72-.72.73.73,0,0,1,.73.72v-.4A.73.73,0,0,0,34.47,84.32Z"/><path class="cls-6" d="M36.78,84.73a.72.72,0,0,0-.72.72v2.1H37.5v-2.1A.72.72,0,0,0,36.78,84.73Z"/><path class="cls-13" d="M36.78,84.32a.73.73,0,0,0-.72.73v.4a.72.72,0,0,1,1.44,0v-.4A.73.73,0,0,0,36.78,84.32Z"/><path class="cls-6" d="M39.08,84.73a.72.72,0,0,0-.72.72v2.1h1.45v-2.1A.73.73,0,0,0,39.08,84.73Z"/><path class="cls-13" d="M39.08,84.32a.73.73,0,0,0-.72.73v.4a.72.72,0,0,1,.72-.72.73.73,0,0,1,.73.72v-.4A.73.73,0,0,0,39.08,84.32Z"/><path class="cls-6" d="M41.39,84.73a.72.72,0,0,0-.72.72v2.1h1.44v-2.1A.72.72,0,0,0,41.39,84.73Z"/><path class="cls-13" d="M41.39,84.32a.73.73,0,0,0-.72.73v.4a.72.72,0,0,1,1.44,0v-.4A.73.73,0,0,0,41.39,84.32Z"/><path class="cls-14" d="M27.56,59.78a.73.73,0,0,0-.72.73v3.41h1.44V60.51A.73.73,0,0,0,27.56,59.78Z"/><path class="cls-15" d="M27.56,59.38a.72.72,0,0,0-.72.72v.41a.72.72,0,1,1,1.44,0V60.1A.72.72,0,0,0,27.56,59.38Z"/><path class="cls-14" d="M29.86,59.78a.73.73,0,0,0-.72.73v3.41h1.45V60.51A.73.73,0,0,0,29.86,59.78Z"/><path class="cls-15" d="M29.86,59.38a.72.72,0,0,0-.72.72v.41a.73.73,0,0,1,.72-.73.73.73,0,0,1,.73.73V60.1A.73.73,0,0,0,29.86,59.38Z"/><path class="cls-14" d="M32.17,59.78a.73.73,0,0,0-.72.73v3.41h1.44V60.51A.73.73,0,0,0,32.17,59.78Z"/><path class="cls-15" d="M32.17,59.38a.72.72,0,0,0-.72.72v.41a.72.72,0,1,1,1.44,0V60.1A.72.72,0,0,0,32.17,59.38Z"/><path class="cls-14" d="M34.47,59.78a.73.73,0,0,0-.72.73v3.41H35.2V60.51A.73.73,0,0,0,34.47,59.78Z"/><path class="cls-15" d="M34.47,59.38a.72.72,0,0,0-.72.72v.41a.73.73,0,0,1,.72-.73.73.73,0,0,1,.73.73V60.1A.73.73,0,0,0,34.47,59.38Z"/><path class="cls-14" d="M36.78,59.78a.73.73,0,0,0-.72.73v3.41H37.5V60.51A.73.73,0,0,0,36.78,59.78Z"/><path class="cls-15" d="M36.78,59.38a.72.72,0,0,0-.72.72v.41a.72.72,0,1,1,1.44,0V60.1A.72.72,0,0,0,36.78,59.38Z"/><path class="cls-14" d="M39.08,59.78a.73.73,0,0,0-.72.73v3.41h1.45V60.51A.73.73,0,0,0,39.08,59.78Z"/><path class="cls-15" d="M39.08,59.38a.72.72,0,0,0-.72.72v.41a.73.73,0,0,1,.72-.73.73.73,0,0,1,.73.73V60.1A.73.73,0,0,0,39.08,59.38Z"/><path class="cls-14" d="M41.39,59.78a.73.73,0,0,0-.72.73v3.41h1.44V60.51A.73.73,0,0,0,41.39,59.78Z"/><path class="cls-15" d="M41.39,59.38a.72.72,0,0,0-.72.72v.41a.72.72,0,1,1,1.44,0V60.1A.72.72,0,0,0,41.39,59.38Z"/><rect class="cls-2" x="45.21" y="77.6" width="1.13" height="1.13" transform="translate(68.67 -9.47) rotate(45)"/><rect class="cls-7" x="45.33" y="77.72" width="0.89" height="0.89" transform="translate(133.41 101.08) rotate(135)"/><rect class="cls-2" x="43.53" y="77.6" width="1.13" height="1.13" transform="translate(68.19 -8.28) rotate(45)"/><rect class="cls-7" x="43.65" y="77.72" width="0.89" height="0.89" transform="translate(130.54 102.27) rotate(135)"/><path class="cls-2" d="M43.51,77.17H44v-3a.24.24,0,0,0-.24-.24h0a.24.24,0,0,0-.24.24Z"/><path class="cls-7" d="M43.51,77.29H44v-3a.24.24,0,0,0-.24-.24h0a.24.24,0,0,0-.24.24Z"/><path class="cls-2" d="M44.16,77.17h.48v-3A.24.24,0,0,0,44.4,74h0a.24.24,0,0,0-.24.24Z"/><path class="cls-7" d="M44.16,77.29h.48v-3a.24.24,0,0,0-.24-.24h0a.24.24,0,0,0-.24.24Z"/><path class="cls-2" d="M45.21,77.17h.48v-3a.24.24,0,0,0-.24-.24h0a.24.24,0,0,0-.24.24Z"/><path class="cls-7" d="M45.21,77.29h.48v-3a.24.24,0,0,0-.24-.24h0a.24.24,0,0,0-.24.24Z"/><path class="cls-2" d="M45.86,77.17h.48v-3A.24.24,0,0,0,46.1,74h0a.24.24,0,0,0-.24.24Z"/><path class="cls-7" d="M45.86,77.29h.48v-3a.24.24,0,0,0-.24-.24h0a.24.24,0,0,0-.24.24Z"/><rect class="cls-2" x="45.21" y="72.66" width="1.13" height="1.13" transform="translate(65.18 -10.92) rotate(45)"/><rect class="cls-7" x="45.33" y="72.78" width="0.89" height="0.89" transform="translate(129.92 92.65) rotate(135)"/><rect class="cls-2" x="43.53" y="72.66" width="1.13" height="1.13" transform="translate(64.69 -9.73) rotate(45)"/><rect class="cls-7" x="43.65" y="72.78" width="0.89" height="0.89" transform="translate(127.05 93.84) rotate(135)"/><path class="cls-2" d="M43.51,72.23H44v-3a.23.23,0,0,0-.24-.23h0a.23.23,0,0,0-.24.23Z"/><path class="cls-7" d="M43.51,72.35H44v-3a.24.24,0,0,0-.24-.24h0a.24.24,0,0,0-.24.24Z"/><path class="cls-2" d="M44.16,72.23h.48v-3A.23.23,0,0,0,44.4,69h0a.23.23,0,0,0-.24.23Z"/><path class="cls-7" d="M44.16,72.35h.48v-3a.24.24,0,0,0-.24-.24h0a.24.24,0,0,0-.24.24Z"/><path class="cls-2" d="M45.21,72.23h.48v-3a.23.23,0,0,0-.24-.23h0a.23.23,0,0,0-.24.23Z"/><path class="cls-7" d="M45.21,72.35h.48v-3a.24.24,0,0,0-.24-.24h0a.24.24,0,0,0-.24.24Z"/><path class="cls-2" d="M45.86,72.23h.48v-3A.23.23,0,0,0,46.1,69h0a.23.23,0,0,0-.24.23Z"/><path class="cls-7" d="M45.86,72.35h.48v-3a.24.24,0,0,0-.24-.24h0a.24.24,0,0,0-.24.24Z"/><rect class="cls-2" x="45.21" y="67.72" width="1.13" height="1.13" transform="translate(61.69 -12.37) rotate(45)"/><rect class="cls-7" x="45.33" y="67.84" width="0.89" height="0.89" transform="translate(126.43 84.21) rotate(135)"/><rect class="cls-2" x="43.53" y="67.72" width="1.13" height="1.13" transform="translate(61.2 -11.18) rotate(45)"/><rect class="cls-7" x="43.65" y="67.84" width="0.89" height="0.89" transform="translate(123.56 85.39) rotate(135)"/><rect class="cls-5" x="46.81" y="66.48" width="0.58" height="20.89"/><path class="cls-2" d="M25.43,87.37H25V85.16a.24.24,0,0,1,.24-.24h0a.23.23,0,0,1,.23.24Z"/><path class="cls-7" d="M25.43,87.49H25V85.28A.24.24,0,0,1,25.2,85h0a.23.23,0,0,1,.23.24Z"/><path class="cls-2" d="M24.78,87.37h-.47V85.16a.23.23,0,0,1,.23-.24h0a.24.24,0,0,1,.24.24Z"/><path class="cls-7" d="M24.78,87.49h-.47V85.28a.23.23,0,0,1,.23-.24h0a.24.24,0,0,1,.24.24Z"/><path class="cls-2" d="M23.74,87.37h-.48V85.16a.24.24,0,0,1,.24-.24h0a.24.24,0,0,1,.24.24Z"/><path class="cls-7" d="M23.74,87.49h-.48V85.28A.24.24,0,0,1,23.5,85h0a.24.24,0,0,1,.24.24Z"/><path class="cls-2" d="M23.09,87.37h-.48V85.16a.24.24,0,0,1,.24-.24h0a.24.24,0,0,1,.24.24Z"/><path class="cls-7" d="M23.09,87.49h-.48V85.28a.24.24,0,0,1,.24-.24h0a.24.24,0,0,1,.24.24Z"/><path class="cls-2" d="M25.43,82.11H25v-3a.23.23,0,0,1,.24-.24h0a.23.23,0,0,1,.23.24Z"/><path class="cls-7" d="M25.43,82.23H25v-3A.24.24,0,0,1,25.2,79h0a.23.23,0,0,1,.23.24Z"/><path class="cls-2" d="M24.78,82.11h-.47v-3a.23.23,0,0,1,.23-.24h0a.23.23,0,0,1,.24.24Z"/><path class="cls-7" d="M24.78,82.23h-.47v-3a.23.23,0,0,1,.23-.24h0a.24.24,0,0,1,.24.24Z"/><path class="cls-2" d="M23.74,82.11h-.48v-3a.24.24,0,0,1,.24-.24h0a.24.24,0,0,1,.24.24Z"/><path class="cls-7" d="M23.74,82.23h-.48v-3A.24.24,0,0,1,23.5,79h0a.24.24,0,0,1,.24.24Z"/><path class="cls-2" d="M23.09,82.11h-.48v-3a.24.24,0,0,1,.24-.24h0a.24.24,0,0,1,.24.24Z"/><path class="cls-7" d="M23.09,82.23h-.48v-3a.24.24,0,0,1,.24-.24h0a.24.24,0,0,1,.24.24Z"/><rect class="cls-2" x="22.61" y="77.6" width="1.13" height="1.13" transform="translate(94.84 117.05) rotate(134.99)"/><rect class="cls-7" x="22.73" y="77.72" width="0.89" height="0.89" transform="translate(62.07 6.51) rotate(45)"/><rect class="cls-2" x="24.29" y="77.6" width="1.13" height="1.13" transform="translate(97.7 115.87) rotate(135)"/><rect class="cls-7" x="24.41" y="77.72" width="0.89" height="0.89" transform="translate(62.55 5.32) rotate(45)"/><path class="cls-2" d="M25.43,77.17H25v-3A.23.23,0,0,1,25.2,74h0a.23.23,0,0,1,.23.24Z"/><path class="cls-7" d="M25.43,77.29H25v-3a.24.24,0,0,1,.24-.24h0a.23.23,0,0,1,.23.24Z"/><path class="cls-2" d="M24.78,77.17h-.47v-3a.23.23,0,0,1,.23-.24h0a.23.23,0,0,1,.24.24Z"/><path class="cls-7" d="M24.78,77.29h-.47v-3a.23.23,0,0,1,.23-.24h0a.24.24,0,0,1,.24.24Z"/><path class="cls-2" d="M23.74,77.17h-.48v-3A.24.24,0,0,1,23.5,74h0a.24.24,0,0,1,.24.24Z"/><path class="cls-7" d="M23.74,77.29h-.48v-3a.24.24,0,0,1,.24-.24h0a.24.24,0,0,1,.24.24Z"/><path class="cls-2" d="M23.09,77.17h-.48v-3a.24.24,0,0,1,.24-.24h0a.24.24,0,0,1,.24.24Z"/><path class="cls-7" d="M23.09,77.29h-.48v-3a.24.24,0,0,1,.24-.24h0a.24.24,0,0,1,.24.24Z"/><rect class="cls-2" x="22.61" y="72.66" width="1.13" height="1.13" transform="translate(91.34 108.61) rotate(134.99)"/><rect class="cls-7" x="22.73" y="72.78" width="0.89" height="0.89" transform="translate(58.57 5.06) rotate(45)"/><path class="cls-11" d="M28.65,37.05l.06-.17a69.35,69.35,0,0,0,5.13-19.81V17H35.1v.11a69,69,0,0,0,5.13,19.81l.06.17Z"/><path class="cls-10" d="M35,17.08H34a69.59,69.59,0,0,1-5.14,19.85H40.13A69.26,69.26,0,0,1,35,17.08Z"/><rect class="cls-2" x="24.29" y="72.66" width="1.13" height="1.13" transform="translate(94.21 107.43) rotate(135)"/><rect class="cls-7" x="24.41" y="72.78" width="0.89" height="0.89" transform="translate(59.06 3.87) rotate(45)"/><path class="cls-2" d="M25.43,72.23H25v-3A.23.23,0,0,1,25.2,69h0a.23.23,0,0,1,.23.23Z"/><path class="cls-7" d="M25.43,72.35H25v-3a.24.24,0,0,1,.24-.24h0a.23.23,0,0,1,.23.24Z"/><path class="cls-2" d="M24.78,72.23h-.47v-3a.23.23,0,0,1,.23-.23h0a.23.23,0,0,1,.24.23Z"/><path class="cls-7" d="M24.78,72.35h-.47v-3a.23.23,0,0,1,.23-.24h0a.24.24,0,0,1,.24.24Z"/><path class="cls-2" d="M23.74,72.23h-.48v-3A.23.23,0,0,1,23.5,69h0a.23.23,0,0,1,.24.23Z"/><path class="cls-7" d="M23.74,72.35h-.48v-3a.24.24,0,0,1,.24-.24h0a.24.24,0,0,1,.24.24Z"/><path class="cls-2" d="M23.09,72.23h-.48v-3a.23.23,0,0,1,.24-.23h0a.23.23,0,0,1,.24.23Z"/><path class="cls-7" d="M23.09,72.35h-.48v-3a.24.24,0,0,1,.24-.24h0a.24.24,0,0,1,.24.24Z"/><rect class="cls-2" x="22.61" y="67.72" width="1.13" height="1.13" transform="translate(87.85 100.18) rotate(134.99)"/><rect class="cls-7" x="22.73" y="67.84" width="0.89" height="0.89" transform="translate(55.08 3.62) rotate(45.01)"/><rect class="cls-2" x="24.29" y="67.72" width="1.13" height="1.13" transform="translate(90.72 99) rotate(135)"/><rect class="cls-7" x="24.41" y="67.84" width="0.89" height="0.89" transform="translate(55.57 2.43) rotate(45)"/><rect class="cls-5" x="21.56" y="66.48" width="0.58" height="20.89" transform="translate(43.7 153.84) rotate(180)"/><rect class="cls-7" x="21.85" y="61.09" width="1" height="5.26"/><polygon class="cls-7" points="22.56 58.17 22.14 58.17 21.85 61.13 22.85 61.13 22.56 58.17"/><rect class="cls-7" x="23.45" y="52.19" width="0.5" height="5.26"/><polygon class="cls-7" points="23.8 49.27 23.59 49.27 23.45 52.24 23.94 52.24 23.8 49.27"/><rect class="cls-7" x="45" y="52.19" width="0.5" height="5.26" transform="translate(90.51 109.64) rotate(180)"/><polygon class="cls-7" points="45.15 49.27 45.36 49.27 45.5 52.24 45.01 52.24 45.15 49.27"/><rect class="cls-7" x="28.7" y="31.57" width="0.5" height="5.26" transform="translate(57.9 68.39) rotate(180)"/><polygon class="cls-7" points="28.85 28.64 29.05 28.64 29.2 31.61 28.7 31.61 28.85 28.64"/><rect class="cls-7" x="39.75" y="31.57" width="0.5" height="5.26"/><polygon class="cls-7" points="40.1 28.64 39.89 28.64 39.75 31.61 40.25 31.61 40.1 28.64"/><rect class="cls-7" x="46.1" y="61.09" width="1" height="5.26" transform="translate(93.2 127.44) rotate(180)"/><polygon class="cls-7" points="46.39 58.17 46.8 58.17 47.1 61.13 46.1 61.13 46.39 58.17"/><polygon class="cls-11" points="40.38 55.87 40.38 54.54 40.98 53.81 41.58 54.54 41.58 55.87 40.38 55.87"/><polygon class="cls-14" points="41.45 55.87 40.51 55.87 40.51 54.58 40.98 54.01 41.45 54.58 41.45 55.87"/><polygon class="cls-11" points="36.04 55.87 36.04 54.54 36.64 53.81 37.24 54.54 37.24 55.87 36.04 55.87"/><polygon class="cls-14" points="37.12 55.87 36.17 55.87 36.17 54.58 36.64 54.01 37.12 54.58 37.12 55.87"/><polygon class="cls-11" points="31.7 55.87 31.7 54.54 32.3 53.81 32.91 54.54 32.91 55.87 31.7 55.87"/><polygon class="cls-14" points="32.78 55.87 31.83 55.87 31.83 54.58 32.3 54.01 32.78 54.58 32.78 55.87"/><polygon class="cls-11" points="27.36 55.87 27.36 54.54 27.97 53.81 28.57 54.54 28.57 55.87 27.36 55.87"/><polygon class="cls-14" points="28.44 55.87 27.5 55.87 27.5 54.58 27.97 54.01 28.44 54.58 28.44 55.87"/><polygon class="cls-11" points="38.21 52.08 38.21 50.75 38.81 50.02 39.41 50.75 39.41 52.08 38.21 52.08"/><polygon class="cls-14" points="39.28 52.08 38.34 52.08 38.34 50.79 38.81 50.22 39.28 50.79 39.28 52.08"/><polygon class="cls-11" points="33.87 52.08 33.87 50.75 34.47 50.02 35.08 50.75 35.08 52.08 33.87 52.08"/><polygon class="cls-14" points="34.95 52.08 34 52.08 34 50.79 34.47 50.22 34.95 50.79 34.95 52.08"/><polygon class="cls-11" points="29.53 52.08 29.53 50.75 30.14 50.02 30.74 50.75 30.74 52.08 29.53 52.08"/><polygon class="cls-14" points="30.61 52.08 29.66 52.08 29.66 50.79 30.14 50.22 30.61 50.79 30.61 52.08"/><polygon class="cls-11" points="36.78 34.07 36.78 33.41 37.2 33.12 37.62 33.41 37.62 34.07 36.78 34.07"/><polygon class="cls-14" points="37.5 33.95 36.91 33.95 36.91 33.47 37.2 33.26 37.5 33.47 37.5 33.95"/><polygon class="cls-11" points="34.06 34.07 34.06 33.41 34.47 33.12 34.89 33.41 34.89 34.07 34.06 34.07"/><polygon class="cls-14" points="34.77 33.95 34.18 33.95 34.18 33.47 34.47 33.26 34.77 33.47 34.77 33.95"/><polygon class="cls-11" points="35.42 29.96 35.42 29.3 35.84 29 36.26 29.3 36.26 29.96 35.42 29.96"/><polygon class="cls-14" points="36.13 29.84 35.54 29.84 35.54 29.36 35.84 29.15 36.13 29.36 36.13 29.84"/><polygon class="cls-11" points="32.69 29.96 32.69 29.3 33.11 29 33.53 29.3 33.53 29.96 32.69 29.96"/><polygon class="cls-14" points="33.41 29.84 32.81 29.84 32.81 29.36 33.11 29.15 33.41 29.36 33.41 29.84"/><polygon class="cls-11" points="34.06 25.84 34.06 25.18 34.47 24.89 34.89 25.18 34.89 25.84 34.06 25.84"/><polygon class="cls-14" points="34.77 25.72 34.18 25.72 34.18 25.24 34.47 25.03 34.77 25.24 34.77 25.72"/><polygon class="cls-11" points="31.33 34.07 31.33 33.41 31.75 33.12 32.16 33.41 32.16 34.07 31.33 34.07"/><polygon class="cls-14" points="32.04 33.95 31.45 33.95 31.45 33.47 31.75 33.26 32.04 33.47 32.04 33.95"/><rect class="cls-2" x="28.81" y="46.46" width="11.33" height="1.04"/><rect class="cls-14" x="29.35" y="40.57" width="10.25" height="5.89"/><rect class="cls-2" x="28.82" y="38.11" width="11.3" height="2.87"/><path class="cls-11" d="M39.81,39.78l-.91-.66-.87.66-.91-.66-.87.66-.91-.66-.87.66-.9-.66-.87.66-.91-.66-.87.66L30,39.12l-.87.66h-.33v6.68h.66V41.65h0s.36-.53.56-.53.56.53.56.53h0v4.81h.66V41.65s.36-.53.56-.53.56.53.56.53v4.81H33V41.65s.37-.53.56-.53.57.53.57.53v4.81h.65V41.65s.37-.53.56-.53.56.53.56.53v4.81h.66V41.65h0s.36-.53.56-.53.56.53.56.53h0v4.81h.66V41.65h0s.36-.53.56-.53.56.53.56.53h0v4.81h.66V41.65h0V39.78Z"/><path class="cls-2" d="M33.21,40l.36-.28L34,40v.74a.66.66,0,0,0-.38-.11.66.66,0,0,0-.37.11Z"/><path class="cls-2" d="M35,40l.36-.28.38.28v.74a.62.62,0,0,0-.37-.11.66.66,0,0,0-.37.11Z"/><path class="cls-2" d="M36.77,40l.36-.28.38.28v.74a.62.62,0,0,0-.37-.11.64.64,0,0,0-.37.11Z"/><path class="cls-2" d="M38.55,40l.36-.28.38.28v.74a.68.68,0,0,0-.74,0Z"/><path class="cls-2" d="M31.43,40l.36-.28.39.28v.74a.66.66,0,0,0-.37-.11.66.66,0,0,0-.38.11Z"/><path class="cls-2" d="M29.66,40l.36-.28.38.28v.74a.64.64,0,0,0-.37-.11.62.62,0,0,0-.37.11Z"/><rect class="cls-11" x="33.76" y="31.75" width="1.42" height="11.54" transform="translate(71.99 3.04) rotate(90)"/><rect class="cls-16" x="28.82" y="36.93" width="11.3" height="1.18"/><rect class="cls-7" x="33.85" y="16.31" width="1.23" height="0.65"/><rect class="cls-7" x="33.68" y="15.66" width="1.56" height="0.65"/><rect class="cls-7" x="34.25" y="10.21" width="0.42" height="5.46"/><path class="cls-7" d="M35,10a.5.5,0,1,1-.49-.5A.49.49,0,0,1,35,10Z"/></svg>