<svg id="Layer_1" data-name="Layer 1" xmlns="http://www.w3.org/2000/svg" viewBox="0 0 121.5 154.47"><defs><style>.cls-1{fill:#724426;}.cls-2{fill:#a96640;}.cls-3{fill:#d7ccae;}.cls-4{fill:#d07f54;}.cls-5{fill:#feea87;}.cls-6{fill:#e5a62c;}.cls-7{fill:#b64d2a;}.cls-8{fill:#cd5733;}.cls-9{fill:#d0d1b2;}.cls-10{fill:#d48052;}.cls-11{fill:#edffe2;}.cls-12{fill:#9c4121;}.cls-13{fill:#c1c2ba;}.cls-14{fill:#af4a28;}.cls-15{fill:#d8d8ce;}.cls-16{fill:#ffffef;}.cls-17{fill:#538667;}.cls-18{fill:#ebdbc2;}.cls-19{fill:#8d592a;}.cls-20{fill:#fff8e4;}.cls-21{fill:#1f0d01;}.cls-22{fill:#9e3313;}.cls-23{fill:#3b6444;}.cls-24{fill:#637b61;}.cls-25{fill:#a64625;}.cls-26{fill:#522818;}.cls-27{fill:#8d5533;}.cls-28{fill:#9a9b62;}.cls-29{fill:#2b5035;}.cls-30{fill:#ffc87a;}.cls-31{fill:#fae9d5;}.cls-32{fill:#465a46;}.cls-33{fill:#c0b681;}.cls-34{fill:#667741;}.cls-35{fill:#a49b5e;}.cls-36{fill:#fffada;}.cls-37{fill:#413129;}.cls-38{fill:#253914;}.cls-39{fill:#394b2a;}.cls-40{fill:#d7d1b1;}.cls-41{fill:#feefea;}.cls-42{fill:#d7574a;}.cls-43{fill:#7f4b2c;}.cls-44{fill:#cb7447;}.cls-45{fill:#3f5340;}.cls-46{fill:#7a492a;}.cls-47{fill:#94927d;}</style></defs><rect class="cls-1" x="50.15" y="76.74" width="23.39" height="37.86"/><rect class="cls-2" x="56.39" y="76.74" width="1.76" height="37.86"/><rect class="cls-3" x="56.07" y="78.4" width="2.41" height="1.74"/><rect class="cls-3" x="56.07" y="81.35" width="2.41" height="1.74"/><rect class="cls-3" x="56.07" y="84.3" width="2.41" height="1.74"/><rect class="cls-3" x="56.07" y="87.26" width="2.41" height="1.74"/><polygon class="cls-4" points="61.84 25.48 58.8 26.21 59.79 28.06 59.79 34.41 61.84 34.41 63.89 34.41 63.89 28.06 64.89 26.21 61.84 25.48"/><path class="cls-5" d="M65.83,24.37c-.19-1.81-2.1-2.28-2.77-3.28a7,7,0,0,1-1-2.26h-.46a7,7,0,0,1-1,2.26c-.67,1-2.58,1.47-2.77,3.28a3.09,3.09,0,0,0,1.46,2.81s.1-1.3,2.53-1.3,2.53,1.3,2.53,1.3A3.09,3.09,0,0,0,65.83,24.37Z"/><polygon class="cls-6" points="61.84 17.2 61.61 17.2 61.61 18.83 61.84 18.83 62.07 18.83 62.07 17.2 61.84 17.2"/><polygon class="cls-6" points="61.84 10.76 61.61 10.76 61.61 16.13 61.84 16.13 62.07 16.13 62.07 10.76 61.84 10.76"/><polygon class="cls-6" points="63.4 12.48 63.4 12.25 60.28 12.25 60.28 12.48 60.28 12.71 63.4 12.71 63.4 12.48"/><path class="cls-6" d="M62.46,16.75a.62.62,0,1,1-1.24,0,.62.62,0,1,1,1.24,0Z"/><polygon class="cls-7" points="63.89 34.41 61.84 34.41 59.79 34.41 53.5 56.65 61.84 56.65 70.18 56.65 63.89 34.41"/><polygon class="cls-8" points="63.07 34.41 61.84 34.41 60.61 34.41 56.86 56.65 61.84 56.65 66.82 56.65 63.07 34.41"/><path class="cls-9" d="M62.65,34.42H61V32.54a.81.81,0,0,1,.81-.81h0a.81.81,0,0,1,.81.81Z"/><path class="cls-4" d="M61.23,34.22V32.54a.61.61,0,0,1,.61-.61h0a.61.61,0,0,1,.61.61v1.68Z"/><path class="cls-9" d="M64.28,34.42H62.65V32.54a.82.82,0,0,1,.82-.81h0a.81.81,0,0,1,.81.81Z"/><path class="cls-4" d="M62.85,34.22V32.54a.61.61,0,0,1,.62-.61h0a.61.61,0,0,1,.61.61v1.68Z"/><path class="cls-9" d="M60.22,31.73h0a.81.81,0,0,1,.81.81v1.88a0,0,0,0,1,0,0H59.4a0,0,0,0,1,0,0V32.54A.81.81,0,0,1,60.22,31.73Z"/><path class="cls-4" d="M59.6,34.22V32.54a.61.61,0,0,1,.61-.61h0a.61.61,0,0,1,.62.61v1.68Z"/><rect class="cls-2" x="51.61" y="57.51" width="20.45" height="19.23"/><rect class="cls-10" x="56.76" y="57.51" width="10.17" height="19.23"/><path class="cls-11" d="M63.59,54h-3.5c0-1.06,1.75-3.4,1.75-3.4S63.59,53,63.59,54Z"/><path class="cls-8" d="M63.18,54a9.4,9.4,0,0,0-1.34-2.53A9.4,9.4,0,0,0,60.5,54l1.34,1.14Z"/><path class="cls-11" d="M65.14,55.17H61.63a1.76,1.76,0,1,1,3.51,0Z"/><path class="cls-8" d="M64.73,55.17c-.14-.86-.69-1.49-1.34-1.49s-1.2.63-1.34,1.49l1.34,1.14Z"/><path class="cls-11" d="M58.54,55.17h3.51a1.76,1.76,0,1,0-3.51,0Z"/><path class="cls-8" d="M59,55.17c.14-.86.69-1.49,1.34-1.49s1.2.63,1.34,1.49L60.37,56.5Z"/><path class="cls-11" d="M63.59,56.65h-3.5a1.76,1.76,0,1,1,3.5,0Z"/><path class="cls-8" d="M63.18,56.65c-.14-.85-.69-1.48-1.34-1.48s-1.2.63-1.34,1.48Z"/><path class="cls-11" d="M66.69,56.65H63.18a1.76,1.76,0,1,1,3.51,0Z"/><path class="cls-8" d="M66.28,56.65c-.14-.85-.69-1.48-1.34-1.48s-1.21.63-1.35,1.48Z"/><path class="cls-11" d="M57,56.65H60.5a1.76,1.76,0,1,0-3.51,0Z"/><path class="cls-8" d="M57.4,56.65c.14-.85.69-1.48,1.34-1.48s1.21.63,1.35,1.48Z"/><path class="cls-12" d="M67.22,68.09H56.46c0-3.25,2.63-5.89,5.38-5.89S67.22,64.84,67.22,68.09Z"/><path class="cls-13" d="M66,68.09c-.44-2.61-2.11-4.56-4.12-4.56s-3.68,2-4.12,4.56Z"/><rect class="cls-12" x="56.46" y="68.09" width="1.27" height="4.08"/><rect class="cls-12" x="65.96" y="68.09" width="1.27" height="4.08" transform="translate(133.18 140.27) rotate(180)"/><rect class="cls-13" x="57.72" y="68.09" width="8.23" height="4.08"/><path class="cls-14" d="M67.22,72.18H56.46c0-3.26,2.63-5.89,5.38-5.89S67.22,68.92,67.22,72.18Z"/><path class="cls-15" d="M66,72.18c-.44-2.62-2.11-4.57-4.12-4.57s-3.68,2-4.12,4.57Z"/><rect class="cls-14" x="56.46" y="72.18" width="1.27" height="4.08"/><rect class="cls-14" x="65.96" y="72.18" width="1.27" height="4.08" transform="translate(133.18 148.44) rotate(180)"/><rect class="cls-15" x="57.72" y="72.18" width="8.23" height="4.08"/><path class="cls-8" d="M67.22,76.74H56.46c0-3.25,2.63-5.89,5.38-5.89S67.22,73.49,67.22,76.74Z"/><path class="cls-16" d="M66,76.74c-.44-2.61-2.11-4.56-4.12-4.56s-3.68,1.95-4.12,4.56Z"/><path class="cls-12" d="M56.77,68.09H50.36c0-3.25,1.57-5.89,3.21-5.89S56.77,64.84,56.77,68.09Z"/><path class="cls-13" d="M56,68.09c-.26-2.61-1.26-4.56-2.45-4.56s-2.2,2-2.45,4.56Z"/><rect class="cls-12" x="50.36" y="68.09" width="0.75" height="4.08"/><rect class="cls-12" x="56.02" y="68.09" width="0.75" height="4.08" transform="translate(112.79 140.27) rotate(180)"/><rect class="cls-13" x="51.12" y="68.09" width="4.9" height="4.08"/><path class="cls-14" d="M56.77,72.18H50.36c0-3.26,1.57-5.89,3.21-5.89S56.77,68.92,56.77,72.18Z"/><path class="cls-13" d="M56,72.18c-.26-2.62-1.26-4.57-2.45-4.57s-2.2,2-2.45,4.57Z"/><rect class="cls-14" x="50.36" y="72.18" width="0.75" height="4.08"/><rect class="cls-14" x="56.02" y="72.18" width="0.75" height="4.08" transform="translate(112.79 148.44) rotate(180)"/><rect class="cls-15" x="51.12" y="72.18" width="4.9" height="4.08"/><path class="cls-8" d="M56.77,76.74H50.36c0-3.25,1.57-5.89,3.21-5.89S56.77,73.49,56.77,76.74Z"/><path class="cls-13" d="M56,76.74c-.26-2.61-1.26-4.56-2.45-4.56s-2.2,1.95-2.45,4.56Z"/><path class="cls-12" d="M66.91,68.09h6.41c0-3.25-1.57-5.89-3.21-5.89S66.91,64.84,66.91,68.09Z"/><path class="cls-13" d="M67.66,68.09c.26-2.61,1.26-4.56,2.45-4.56s2.2,2,2.45,4.56Z"/><rect class="cls-12" x="72.56" y="68.09" width="0.75" height="4.08" transform="translate(145.88 140.27) rotate(180)"/><rect class="cls-12" x="66.91" y="68.09" width="0.75" height="4.08"/><rect class="cls-13" x="67.66" y="67.19" width="4.75" height="4.08" transform="translate(140.08 138.46) rotate(180)"/><path class="cls-14" d="M66.91,72.18h6.41c0-3.26-1.57-5.89-3.21-5.89S66.91,68.92,66.91,72.18Z"/><path class="cls-15" d="M67.66,72.18c.26-2.62,1.26-4.57,2.45-4.57s2.2,2,2.45,4.57Z"/><rect class="cls-14" x="72.56" y="72.18" width="0.75" height="4.08" transform="translate(145.88 148.44) rotate(180)"/><rect class="cls-14" x="66.91" y="72.18" width="0.75" height="4.08"/><rect class="cls-15" x="67.66" y="72.18" width="4.9" height="4.08" transform="translate(140.23 148.44) rotate(180)"/><path class="cls-8" d="M66.91,76.74h6.41c0-3.25-1.57-5.89-3.21-5.89S66.91,73.49,66.91,76.74Z"/><path class="cls-16" d="M67.66,76.74c.26-2.61,1.26-4.56,2.45-4.56s2.2,1.95,2.45,4.56Z"/><path class="cls-11" d="M55.85,54H54.56a19.35,19.35,0,0,1,.64-3.4A19.09,19.09,0,0,1,55.85,54Z"/><path class="cls-8" d="M55.7,54a17.7,17.7,0,0,0-.5-2.53A18.17,18.17,0,0,0,54.71,54l.49,1.14Z"/><path class="cls-11" d="M56.42,55.17H55.13c0-1.06.31-1.92.64-1.92S56.42,54.11,56.42,55.17Z"/><path class="cls-8" d="M56.27,55.17c-.05-.86-.26-1.49-.5-1.49s-.44.63-.49,1.49l.49,1.14Z"/><path class="cls-11" d="M54,55.17h1.3c0-1.06-.32-1.92-.65-1.92S54,54.11,54,55.17Z"/><path class="cls-8" d="M54.14,55.17c0-.86.25-1.49.49-1.49s.44.63.5,1.49l-.47,1.33Z"/><path class="cls-11" d="M55.85,56.65H54.56c0-1.06.31-1.92.64-1.92S55.85,55.59,55.85,56.65Z"/><path class="cls-8" d="M55.7,56.65c-.05-.85-.26-1.48-.5-1.48s-.44.63-.49,1.48Z"/><path class="cls-11" d="M57,56.65H55.7c0-1.06.31-1.92.64-1.92S57,55.59,57,56.65Z"/><path class="cls-8" d="M56.84,56.65c-.05-.85-.25-1.48-.5-1.48s-.44.63-.49,1.48Z"/><path class="cls-11" d="M53.41,56.65h1.3c0-1.06-.32-1.92-.65-1.92S53.41,55.59,53.41,56.65Z"/><path class="cls-8" d="M53.57,56.65c0-.85.25-1.48.49-1.48s.44.63.5,1.48Z"/><path class="cls-11" d="M67.83,54h1.29a19.35,19.35,0,0,0-.64-3.4A19.09,19.09,0,0,0,67.83,54Z"/><path class="cls-8" d="M68,54a17.7,17.7,0,0,1,.5-2.53A18.17,18.17,0,0,1,69,54l-.49,1.14Z"/><path class="cls-11" d="M67.26,55.17h1.29c0-1.06-.31-1.92-.64-1.92S67.26,54.11,67.26,55.17Z"/><path class="cls-8" d="M67.41,55.17c0-.86.26-1.49.5-1.49s.44.63.49,1.49l-.49,1.14Z"/><path class="cls-11" d="M69.7,55.17H68.4c0-1.06.32-1.92.65-1.92S69.7,54.11,69.7,55.17Z"/><path class="cls-8" d="M69.54,55.17c-.05-.86-.25-1.49-.49-1.49s-.44.63-.5,1.49L69,56.5Z"/><path class="cls-11" d="M67.83,56.65h1.29c0-1.06-.31-1.92-.64-1.92S67.83,55.59,67.83,56.65Z"/><path class="cls-8" d="M68,56.65c0-.85.26-1.48.5-1.48s.44.63.49,1.48Z"/><path class="cls-11" d="M66.69,56.65H68c0-1.06-.31-1.92-.64-1.92S66.69,55.59,66.69,56.65Z"/><path class="cls-8" d="M66.84,56.65c0-.85.25-1.48.5-1.48s.44.63.49,1.48Z"/><path class="cls-11" d="M70.27,56.65H69c0-1.06.32-1.92.65-1.92S70.27,55.59,70.27,56.65Z"/><path class="cls-8" d="M70.11,56.65c0-.85-.25-1.48-.49-1.48s-.44.63-.5,1.48Z"/><polygon class="cls-17" points="61.84 56.65 53.41 56.65 50.55 57.51 61.84 57.51 72.1 57.51 72.73 56.65 61.84 56.65"/><rect class="cls-2" x="19.73" y="97.28" width="21.97" height="21.31"/><rect class="cls-10" x="25.03" y="97.28" width="11.36" height="21.31"/><rect class="cls-18" x="19.77" y="102.35" width="21.88" height="0.79"/><rect class="cls-2" x="24.62" y="81.33" width="12.18" height="15.93"/><rect class="cls-10" x="27.65" y="81.33" width="6.12" height="13.63"/><rect class="cls-19" x="25.16" y="85.1" width="0.92" height="7.3"/><rect class="cls-20" x="25.24" y="85.4" width="0.75" height="7"/><rect class="cls-21" x="25.49" y="86.05" width="0.25" height="6.35"/><rect class="cls-19" x="35.29" y="85.1" width="0.92" height="7.3" transform="translate(71.51 177.51) rotate(180)"/><rect class="cls-20" x="35.38" y="85.4" width="0.75" height="7" transform="translate(71.51 177.8) rotate(180)"/><rect class="cls-21" x="35.63" y="86.05" width="0.25" height="6.35" transform="translate(71.51 178.45) rotate(180)"/><rect class="cls-19" x="29.71" y="85.1" width="1.95" height="7.3"/><rect class="cls-20" x="29.88" y="85.4" width="1.6" height="7"/><rect class="cls-21" x="30.42" y="86.05" width="0.53" height="6.35"/><polygon class="cls-10" points="24.62 81.33 24.03 80.38 25 78.62 35.89 78.39 37.4 80.38 36.8 81.33 24.62 81.33"/><path class="cls-5" d="M30.71,79.73c2.95,0,5.46.43,6.45,1l.24-.38-1.51-2L25,78.62l-1,1.76.24.38C25.25,80.16,27.77,79.73,30.71,79.73Z"/><path class="cls-22" d="M39.12,75.82c-.27-4.4-4.68-7.1-5.78-8.81a15.8,15.8,0,0,1-1.9-5H30a16,16,0,0,1-1.91,5c-1.1,1.71-5.51,4.41-5.77,8.81A6.34,6.34,0,0,0,24,80.38s2.18-1.78,6.68-1.78,6.69,1.78,6.69,1.78A6.39,6.39,0,0,0,39.12,75.82Z"/><path class="cls-23" d="M23.54,78.14a9.54,9.54,0,0,1-1.22-1.52A6.49,6.49,0,0,0,24,80.38a7.07,7.07,0,0,1,1.5-.83A12.67,12.67,0,0,1,23.54,78.14Z"/><path class="cls-23" d="M25.3,75a30.52,30.52,0,0,1-1.57-3.16,9.59,9.59,0,0,0-.89,1.64,13.68,13.68,0,0,0,1.22,2.53,12.55,12.55,0,0,0,2.82,3,11.27,11.27,0,0,1,1.23-.28A19.12,19.12,0,0,1,25.3,75Z"/><path class="cls-23" d="M31.16,78.6a28.45,28.45,0,0,1-4.61-9.91c-.39.38-.81.8-1.24,1.24.22,2.19,2.14,6.11,4.56,8.69.27,0,.55,0,.84,0Z"/><path class="cls-23" d="M34.91,79.2a10.19,10.19,0,0,0-1.23-4.56c-1.36-2.92-3.69-4.93-4.47-6.47a12.33,12.33,0,0,1-.72-1.84c-.13.23-.26.46-.41.68a5.07,5.07,0,0,1-.33.45,9.09,9.09,0,0,0,.88,2.3c1,1.87,2.61,4.33,3.27,5.69.79,1.65,1.32,2.91,1.51,3.38a11.76,11.76,0,0,1,1.5.37Z"/><path class="cls-23" d="M37,80.08a8.29,8.29,0,0,0,.51-5.84c-1-3.11-5.19-5.7-6.35-7.09a14.42,14.42,0,0,1-1.76-2.83c-.1.28-.21.58-.34.88a11,11,0,0,0,1.31,2.53c1.37,1.91,4.51,3.72,5.33,6.22A13.23,13.23,0,0,1,36,79.61,8.41,8.41,0,0,1,37,80.08Z"/><path class="cls-23" d="M33.52,67.26a3,3,0,0,1-.18-.25,11.68,11.68,0,0,1-.89-1.72,5.52,5.52,0,0,1-2.66-2.47h0c0,.19-.1.4-.16.63A9,9,0,0,0,33.52,67.26Z"/><path class="cls-23" d="M31.58,62.63c-.09-.41-.14-.66-.14-.66H30s0,.25-.15.66Z"/><polygon class="cls-6" points="31.08 59.7 30.71 59.7 30.71 61.97 31.44 61.97 31.08 59.7"/><polygon class="cls-6" points="30.35 59.7 30.71 59.7 30.71 61.97 29.98 61.97 30.35 59.7"/><path class="cls-6" d="M31.7,59.44a1,1,0,1,1-1-1A1,1,0,0,1,31.7,59.44Z"/><rect class="cls-6" x="30.51" y="50.7" width="0.4" height="8.11"/><rect class="cls-6" x="30.51" y="51.11" width="0.4" height="3.57" transform="translate(83.61 22.19) rotate(90)"/><path class="cls-24" d="M26.24,91.43A3.83,3.83,0,0,0,25.32,90a6.41,6.41,0,0,1-.49-.87,6.41,6.41,0,0,1-.49.87,3.83,3.83,0,0,0-.92,1.39,4.3,4.3,0,0,0-.29,1.34h3.4A4.3,4.3,0,0,0,26.24,91.43Z"/><path class="cls-8" d="M23.28,92.57a4.67,4.67,0,0,1,.25-1,3.32,3.32,0,0,1,.78-1.2l.11-.13a4,4,0,0,0,.41-.7,4,4,0,0,0,.41.7l.11.13a3.32,3.32,0,0,1,.78,1.2,4.67,4.67,0,0,1,.25,1Z"/><path class="cls-20" d="M25.94,92.77H23.72c0-1,.5-1.71,1.11-1.71S25.94,91.82,25.94,92.77Z"/><path class="cls-24" d="M30.24,91.43A4.3,4.3,0,0,0,28.83,90a6.35,6.35,0,0,1-.75-.87,7.18,7.18,0,0,1-.75.87,4.12,4.12,0,0,0-1.41,1.39,3,3,0,0,0-.45,1.34h5.21A3.05,3.05,0,0,0,30.24,91.43Z"/><path class="cls-8" d="M25.69,92.57a3.38,3.38,0,0,1,.4-1,3.72,3.72,0,0,1,1.18-1.2l.18-.13a4.91,4.91,0,0,0,.63-.7,4.34,4.34,0,0,0,.62.7l.18.13a3.63,3.63,0,0,1,1.18,1.2,3.38,3.38,0,0,1,.4,1Z"/><path class="cls-20" d="M29.78,92.77H26.37a1.71,1.71,0,1,1,3.41,0Z"/><path class="cls-24" d="M35.51,91.43A4.3,4.3,0,0,0,34.1,90a7.18,7.18,0,0,1-.75-.87,7.18,7.18,0,0,1-.75.87,4.3,4.3,0,0,0-1.41,1.39,3,3,0,0,0-.45,1.34H36A3,3,0,0,0,35.51,91.43Z"/><path class="cls-8" d="M31,92.57a3.06,3.06,0,0,1,.39-1,3.64,3.64,0,0,1,1.19-1.2l.17-.13a4.37,4.37,0,0,0,.63-.7,4.37,4.37,0,0,0,.63.7l.17.13a3.64,3.64,0,0,1,1.19,1.2,3.57,3.57,0,0,1,.39,1Z"/><path class="cls-20" d="M35.05,92.77H31.64a1.71,1.71,0,1,1,3.41,0Z"/><path class="cls-24" d="M30.68,92.12c-5.31,0-5.31,5.16-5.31,5.16H36S36,92.12,30.68,92.12Z"/><path class="cls-8" d="M30.68,92.27c-5.16,0-5.16,5-5.16,5H35.84S35.84,92.27,30.68,92.27Z"/><path class="cls-20" d="M30.68,93.16a4.07,4.07,0,0,0-4.24,4.12h8.48A4.07,4.07,0,0,0,30.68,93.16Z"/><path class="cls-25" d="M30.68,94a3.26,3.26,0,0,0-3.39,3.3h6.79A3.26,3.26,0,0,0,30.68,94Z"/><path class="cls-20" d="M31.8,95.77a1.12,1.12,0,1,1-1.12-1.11A1.12,1.12,0,0,1,31.8,95.77Z"/><path class="cls-21" d="M31.3,95.77a.62.62,0,0,1-.62.62.62.62,0,1,1,0-1.24A.62.62,0,0,1,31.3,95.77Z"/><path class="cls-24" d="M22.5,92.4c-3,0-3,4.88-3,4.88h5.95S25.47,92.4,22.5,92.4Z"/><path class="cls-8" d="M22.5,92.54c-2.9,0-2.9,4.74-2.9,4.74h5.79S25.39,92.54,22.5,92.54Z"/><path class="cls-20" d="M22.5,93.39c-2.38,0-2.38,3.89-2.38,3.89h4.75S24.87,93.39,22.5,93.39Z"/><path class="cls-25" d="M22.5,94.16c-1.91,0-1.91,3.12-1.91,3.12H24.4S24.4,94.16,22.5,94.16Z"/><path class="cls-20" d="M23.12,95.85c0,.58-.28,1.05-.62,1.05s-.63-.47-.63-1.05.28-1,.63-1S23.12,95.27,23.12,95.85Z"/><path class="cls-21" d="M22.84,95.85c0,.33-.15.59-.34.59s-.35-.26-.35-.59.15-.59.35-.59S22.84,95.53,22.84,95.85Z"/><path class="cls-24" d="M38.87,92.4c3,0,3,4.88,3,4.88h-6S35.89,92.4,38.87,92.4Z"/><path class="cls-8" d="M38.87,92.54c2.89,0,2.89,4.74,2.89,4.74H36S36,92.54,38.87,92.54Z"/><path class="cls-20" d="M38.87,93.39c2.38,0,2.38,3.89,2.38,3.89H36.49S36.49,93.39,38.87,93.39Z"/><path class="cls-25" d="M38.87,94.16c1.9,0,1.9,3.12,1.9,3.12H37S37,94.16,38.87,94.16Z"/><path class="cls-26" d="M30.68,99a.62.62,0,0,0-.62.62v2.71H31.3V99.64A.62.62,0,0,0,30.68,99Z"/><path class="cls-26" d="M33.77,99a.62.62,0,0,0-.62.62v2.71h1.24V99.64A.62.62,0,0,0,33.77,99Z"/><path class="cls-26" d="M27.59,99a.62.62,0,0,1,.62.62v2.71H27V99.64A.62.62,0,0,1,27.59,99Z"/><path class="cls-26" d="M23.13,99a.62.62,0,0,1,.62.62v2.71H22.51V99.64A.62.62,0,0,1,23.13,99Z"/><path class="cls-26" d="M21,99a.62.62,0,0,1,.62.62v2.71H20.36V99.64A.62.62,0,0,1,21,99Z"/><rect class="cls-18" x="24.13" y="103.96" width="1.48" height="6.35"/><rect class="cls-18" x="35.65" y="103.96" width="1.48" height="6.35"/><ellipse class="cls-20" cx="38.87" cy="95.85" rx="0.62" ry="1.05"/><path class="cls-21" d="M38.52,95.85c0,.33.16.59.35.59s.35-.26.35-.59-.16-.59-.35-.59S38.52,95.53,38.52,95.85Z"/><rect class="cls-27" x="91.79" y="86.58" width="15.28" height="15.93"/><rect class="cls-2" x="95.59" y="86.58" width="7.68" height="13.63"/><rect class="cls-19" x="92.46" y="90.35" width="1.15" height="7.3"/><rect class="cls-20" x="92.56" y="90.65" width="0.94" height="7"/><rect class="cls-21" x="92.87" y="91.29" width="0.31" height="6.35"/><rect class="cls-19" x="105.18" y="90.35" width="1.15" height="7.3" transform="translate(211.51 188) rotate(180)"/><rect class="cls-20" x="105.28" y="90.65" width="0.94" height="7" transform="translate(211.51 188.3) rotate(180)"/><rect class="cls-21" x="105.6" y="91.29" width="0.31" height="6.35" transform="translate(211.51 188.94) rotate(180)"/><rect class="cls-19" x="98.17" y="90.35" width="2.44" height="7.3"/><rect class="cls-20" x="98.39" y="90.65" width="2.01" height="7"/><rect class="cls-21" x="99.06" y="91.29" width="0.67" height="6.35"/><polygon class="cls-2" points="91.79 86.58 91.04 85.63 92.27 83.86 105.93 83.64 107.82 85.63 107.07 86.58 91.79 86.58"/><path class="cls-5" d="M99.43,85c3.7,0,6.85.43,8.09,1l.3-.38-1.89-2-13.66.22L91,85.63l.3.38C92.58,85.4,95.73,85,99.43,85Z"/><path class="cls-28" d="M88.88,81.06c.34-4.4,5.87-7.1,7.25-8.8a14.09,14.09,0,0,0,2.39-5h1.83a14,14,0,0,0,2.38,5c1.38,1.7,6.92,4.4,7.25,8.8a5.84,5.84,0,0,1-2.16,4.57s-2.74-1.79-8.39-1.79S91,85.63,91,85.63A5.87,5.87,0,0,1,88.88,81.06Z"/><path class="cls-29" d="M108.43,83.38A10,10,0,0,0,110,81.86a6.18,6.18,0,0,1-2.15,3.77,8.66,8.66,0,0,0-1.89-.83A16.32,16.32,0,0,0,108.43,83.38Z"/><path class="cls-29" d="M106.22,80.28a27,27,0,0,0,2-3.15,8.51,8.51,0,0,1,1.12,1.64,12.85,12.85,0,0,1-1.53,2.52,14,14,0,0,1-3.54,3c-.47-.1-1-.19-1.54-.27A20.43,20.43,0,0,0,106.22,80.28Z"/><path class="cls-29" d="M98.87,83.85a26.62,26.62,0,0,0,5.79-9.91c.49.38,1,.79,1.55,1.24-.28,2.18-2.69,6.1-5.71,8.68l-1.07,0Z"/><path class="cls-29" d="M94.16,84.44S94,82.8,95.71,79.88s4.63-4.92,5.6-6.46a10.89,10.89,0,0,0,.92-1.85,6.72,6.72,0,0,0,.5.69,4.38,4.38,0,0,0,.43.44A8.39,8.39,0,0,1,102.05,75c-1.25,1.87-3.29,4.33-4.11,5.69-1,1.65-1.65,2.9-1.89,3.38a17.78,17.78,0,0,0-1.89.36Z"/><path class="cls-29" d="M91.6,85.33A6.84,6.84,0,0,1,91,79.49c1.29-3.11,6.52-5.71,8-7.1a13.61,13.61,0,0,0,2.21-2.83c.13.29.27.59.42.89A9.78,9.78,0,0,1,99.93,73c-1.72,1.92-5.67,3.72-6.69,6.22a10.73,10.73,0,0,0-.48,5.67A12.31,12.31,0,0,0,91.6,85.33Z"/><path class="cls-29" d="M95.91,72.5a2.4,2.4,0,0,0,.22-.24,9.85,9.85,0,0,0,1.06-1.6,17.53,17.53,0,0,0,3.39-2.59h0c.06.18.13.39.22.62A13.18,13.18,0,0,1,95.91,72.5Z"/><path class="cls-29" d="M98.34,67.88c.12-.41.18-.66.18-.66h1.83s.05.25.17.66Z"/><polygon class="cls-6" points="98.97 64.95 99.43 64.95 99.43 67.22 98.52 67.22 98.97 64.95"/><polygon class="cls-6" points="99.89 64.95 99.43 64.95 99.43 67.22 100.34 67.22 99.89 64.95"/><path class="cls-6" d="M98.2,64.69a1.27,1.27,0,1,0,1.23-1A1.13,1.13,0,0,0,98.2,64.69Z"/><rect class="cls-6" x="99.18" y="55.95" width="0.5" height="8.11" transform="translate(198.86 120) rotate(180)"/><rect class="cls-6" x="99.23" y="55.9" width="0.4" height="4.49" transform="translate(157.58 -41.29) rotate(90)"/><rect class="cls-27" x="88.47" y="102.53" width="21.97" height="18.11"/><rect class="cls-2" x="93.78" y="102.53" width="11.36" height="18.11"/><rect class="cls-18" x="88.52" y="107.6" width="21.88" height="0.79"/><path class="cls-24" d="M95,96.67a4,4,0,0,0-.92-1.39,6.41,6.41,0,0,1-.49-.87,7.77,7.77,0,0,1-.49.87,3.89,3.89,0,0,0-.92,1.39A4.35,4.35,0,0,0,91.88,98h3.4A4.35,4.35,0,0,0,95,96.67Z"/><path class="cls-8" d="M92,97.81a4.92,4.92,0,0,1,.26-1,3.37,3.37,0,0,1,.77-1.2l.12-.13a4.46,4.46,0,0,0,.41-.7,4.46,4.46,0,0,0,.41.7l.11.13a3.12,3.12,0,0,1,.77,1.2,4.36,4.36,0,0,1,.26,1Z"/><path class="cls-20" d="M94.69,98H92.47c0-.94.49-1.7,1.11-1.7S94.69,97.07,94.69,98Z"/><path class="cls-24" d="M106.55,96.67a3.89,3.89,0,0,0-.92-1.39,7.77,7.77,0,0,1-.49-.87,6.41,6.41,0,0,1-.49.87,4.19,4.19,0,0,0-.92,1.39,4.35,4.35,0,0,0-.29,1.34h3.4A4.35,4.35,0,0,0,106.55,96.67Z"/><path class="cls-8" d="M103.59,97.81a4.36,4.36,0,0,1,.26-1,3.12,3.12,0,0,1,.77-1.2l.11-.13a4.46,4.46,0,0,0,.41-.7,5.41,5.41,0,0,0,.41.7l.12.13a3.37,3.37,0,0,1,.77,1.2,4.92,4.92,0,0,1,.26,1Z"/><path class="cls-20" d="M106.25,98H104c0-.94.5-1.7,1.11-1.7S106.25,97.07,106.25,98Z"/><path class="cls-24" d="M99,96.67a4.41,4.41,0,0,0-1.4-1.39,6.35,6.35,0,0,1-.75-.87,7.18,7.18,0,0,1-.75.87,4.32,4.32,0,0,0-1.41,1.39A3,3,0,0,0,94.22,98h5.21A3,3,0,0,0,99,96.67Z"/><path class="cls-8" d="M94.44,97.81a3.45,3.45,0,0,1,.4-1A3.62,3.62,0,0,1,96,95.57l.18-.13a5.52,5.52,0,0,0,.63-.7,4.82,4.82,0,0,0,.62.7l.18.13a3.62,3.62,0,0,1,1.18,1.2,3.45,3.45,0,0,1,.4,1Z"/><path class="cls-20" d="M98.53,98H95.12a1.71,1.71,0,0,1,3.41,0Z"/><path class="cls-24" d="M104.26,96.67a4.52,4.52,0,0,0-1.41-1.39,6.35,6.35,0,0,1-.75-.87,7.18,7.18,0,0,1-.75.87,4.42,4.42,0,0,0-1.41,1.39A3,3,0,0,0,99.49,98h5.21A3.09,3.09,0,0,0,104.26,96.67Z"/><path class="cls-8" d="M99.71,97.81a3.45,3.45,0,0,1,.4-1,3.62,3.62,0,0,1,1.18-1.2l.18-.13a5.52,5.52,0,0,0,.63-.7,4.33,4.33,0,0,0,.63.7l.17.13a3.53,3.53,0,0,1,1.18,1.2,3.45,3.45,0,0,1,.4,1Z"/><path class="cls-20" d="M103.8,98h-3.41a1.71,1.71,0,0,1,3.41,0Z"/><path class="cls-24" d="M99.43,97.37c-5.31,0-5.31,5.16-5.31,5.16h10.62S104.74,97.37,99.43,97.37Z"/><path class="cls-8" d="M99.43,97.52c-5.16,0-5.16,5-5.16,5h10.32S104.59,97.52,99.43,97.52Z"/><path class="cls-20" d="M99.43,98.41a4.07,4.07,0,0,0-4.24,4.12h8.48A4.07,4.07,0,0,0,99.43,98.41Z"/><path class="cls-25" d="M99.43,99.23a3.26,3.26,0,0,0-3.39,3.3h6.79A3.26,3.26,0,0,0,99.43,99.23Z"/><path class="cls-20" d="M100.55,101a1.12,1.12,0,1,1-1.12-1.12A1.12,1.12,0,0,1,100.55,101Z"/><path class="cls-21" d="M100.05,101a.62.62,0,1,1-.62-.63A.62.62,0,0,1,100.05,101Z"/><path class="cls-24" d="M91.24,97.65c-3,0-3,4.88-3,4.88h6S94.22,97.65,91.24,97.65Z"/><path class="cls-8" d="M91.24,97.79c-2.89,0-2.89,4.74-2.89,4.74h5.79S94.14,97.79,91.24,97.79Z"/><path class="cls-20" d="M91.24,98.63c-2.37,0-2.37,3.9-2.37,3.9h4.75S93.62,98.63,91.24,98.63Z"/><path class="cls-25" d="M91.24,99.41c-1.9,0-1.9,3.12-1.9,3.12h3.81S93.15,99.41,91.24,99.41Z"/><path class="cls-20" d="M91.87,101.1c0,.58-.28,1.05-.63,1.05s-.62-.47-.62-1.05.28-1.06.62-1.06S91.87,100.52,91.87,101.1Z"/><path class="cls-21" d="M91.59,101.1c0,.32-.15.58-.35.58s-.34-.26-.34-.58.15-.59.34-.59S91.59,100.77,91.59,101.1Z"/><path class="cls-24" d="M107.62,97.65c3,0,3,4.88,3,4.88h-6S104.64,97.65,107.62,97.65Z"/><path class="cls-8" d="M107.62,97.79c2.89,0,2.89,4.74,2.89,4.74h-5.78S104.73,97.79,107.62,97.79Z"/><path class="cls-20" d="M107.62,98.63c2.38,0,2.38,3.9,2.38,3.9h-4.76S105.24,98.63,107.62,98.63Z"/><path class="cls-25" d="M107.62,99.41c1.9,0,1.9,3.12,1.9,3.12h-3.81S105.71,99.41,107.62,99.41Z"/><path class="cls-26" d="M99.43,104.27a.62.62,0,0,0-.62.62v2.71h1.24v-2.71A.62.62,0,0,0,99.43,104.27Z"/><path class="cls-26" d="M102.52,104.27a.62.62,0,0,0-.62.62v2.71h1.24v-2.71A.61.61,0,0,0,102.52,104.27Z"/><path class="cls-26" d="M96.34,104.27a.62.62,0,0,1,.62.62v2.71H95.72v-2.71A.62.62,0,0,1,96.34,104.27Z"/><path class="cls-26" d="M91.88,104.27a.62.62,0,0,1,.62.62v2.71H91.26v-2.71A.62.62,0,0,1,91.88,104.27Z"/><path class="cls-26" d="M89.73,104.27a.62.62,0,0,1,.62.62v2.71H89.11v-2.71A.61.61,0,0,1,89.73,104.27Z"/><rect class="cls-18" x="92.88" y="109.21" width="1.48" height="6.35"/><rect class="cls-18" x="104.4" y="109.21" width="1.48" height="6.35"/><path class="cls-20" d="M107,101.1c0,.58.28,1.05.63,1.05s.62-.47.62-1.05S108,100,107.62,100,107,100.52,107,101.1Z"/><path class="cls-21" d="M107.27,101.1c0,.32.16.58.35.58s.35-.26.35-.58-.16-.59-.35-.59S107.27,100.77,107.27,101.1Z"/><rect class="cls-1" x="36.35" y="118.03" width="9.79" height="25.89"/><path class="cls-1" d="M79.48,85.19s3.6,8.61,6,10.75a53.13,53.13,0,0,0,5.74,4.26l1.64,18.23h-13Z"/><rect class="cls-10" x="16.83" y="118.59" width="12.97" height="25.13"/><polygon class="cls-10" points="39.68 93.36 39.09 92.64 40.06 91.32 50.95 91.15 52.46 92.64 51.86 93.36 39.68 93.36"/><path class="cls-5" d="M45.77,92.15a19.79,19.79,0,0,1,6.45.78l.44-.35L51,91.15l-10.89.17-1.17,1.26.44.35A19.71,19.71,0,0,1,45.77,92.15Z"/><polygon class="cls-6" points="45.77 73.02 45.54 73.02 45.27 75.45 46.34 75.45 46.01 73.02 45.77 73.02"/><polygon class="cls-6" points="45.77 66.58 45.54 66.58 45.54 71.94 45.77 71.94 46.01 71.94 46.01 66.58 45.77 66.58"/><polygon class="cls-6" points="47.33 68.3 47.33 68.07 44.22 68.07 44.22 68.3 44.22 68.53 47.33 68.53 47.33 68.3"/><path class="cls-6" d="M46.39,72.57a.62.62,0,0,1-.62.62.63.63,0,1,1,.62-.62Z"/><path class="cls-23" d="M54.23,87.32c-1.08-5.82-7.89-5.54-7.89-11.87H45.21c0,6.33-6.82,6-7.89,11.87a5.49,5.49,0,0,0,1.57,5.26s2-1,6.88-1,6.89,1,6.89,1A5.52,5.52,0,0,0,54.23,87.32Z"/><path class="cls-30" d="M54,90.49c-.45-.13-.9-.25-1.35-.35.33-.39.67-.77,1-1.15Q53.85,89.74,54,90.49Z"/><path class="cls-30" d="M52.65,90.14l-1.36-.3c.31-.4.63-.8,1-1.19C52.39,89.15,52.53,89.64,52.65,90.14Z"/><path class="cls-30" d="M51.29,89.84c-.46-.08-.92-.16-1.37-.22.29-.42.59-.83.9-1.24C51,88.87,51.14,89.36,51.29,89.84Z"/><path class="cls-30" d="M49.92,89.62c-.46-.07-.92-.12-1.38-.17.27-.42.55-.85.85-1.27C49.57,88.66,49.75,89.14,49.92,89.62Z"/><path class="cls-30" d="M48.54,89.45q-.69-.06-1.38-.09.38-.66.78-1.32Q48.26,88.75,48.54,89.45Z"/><path class="cls-30" d="M47.16,89.36c-.46,0-.93,0-1.39,0,.23-.46.48-.91.73-1.36C46.73,88.43,47,88.89,47.16,89.36Z"/><path class="cls-30" d="M45.77,89.33q-.69,0-1.38,0c.21-.47.43-.93.66-1.39C45.3,88.42,45.54,88.87,45.77,89.33Z"/><path class="cls-30" d="M44.39,89.36q-.69,0-1.38.09c.19-.47.38-.94.59-1.41C43.88,88.48,44.14,88.92,44.39,89.36Z"/><path class="cls-30" d="M43,89.45c-.46,0-.92.1-1.38.17.17-.48.34-1,.53-1.44C42.45,88.6,42.74,89,43,89.45Z"/><path class="cls-30" d="M41.63,89.62c-.46.06-.91.14-1.37.22.14-.48.3-1,.46-1.46C41,88.79,41.34,89.2,41.63,89.62Z"/><path class="cls-30" d="M40.26,89.84c-.45.09-.91.19-1.36.3.12-.5.25-1,.39-1.49C39.63,89,40,89.44,40.26,89.84Z"/><path class="cls-30" d="M38.9,90.14c-.45.1-.9.22-1.35.35q.15-.75.33-1.5C38.23,89.37,38.57,89.75,38.9,90.14Z"/><path class="cls-30" d="M54.42,89c-.47-.13-1-.24-1.42-.35.35-.38.71-.76,1.08-1.13C54.2,88,54.32,88.47,54.42,89Z"/><path class="cls-30" d="M53,88.61c-.48-.11-1-.2-1.43-.29.33-.4.67-.79,1-1.18Q52.8,87.88,53,88.61Z"/><path class="cls-30" d="M51.57,88.32c-.48-.09-1-.16-1.44-.22.31-.42.62-.82.95-1.23C51.26,87.35,51.42,87.84,51.57,88.32Z"/><path class="cls-30" d="M50.13,88.1c-.48-.07-1-.12-1.45-.17.29-.42.58-.84.89-1.26C49.77,87.14,50,87.62,50.13,88.1Z"/><path class="cls-30" d="M48.68,87.93c-.48,0-1-.07-1.45-.09.26-.44.54-.87.83-1.3C48.27,87,48.48,87.47,48.68,87.93Z"/><path class="cls-30" d="M47.23,87.84c-.49,0-1,0-1.46,0,.25-.45.5-.9.76-1.34C46.78,86.92,47,87.38,47.23,87.84Z"/><path class="cls-30" d="M45.77,87.81c-.48,0-1,0-1.45,0,.22-.46.45-.92.69-1.37C45.28,86.91,45.53,87.36,45.77,87.81Z"/><path class="cls-30" d="M44.32,87.84c-.49,0-1,0-1.45.09.19-.46.4-.93.62-1.39C43.78,87,44.05,87.4,44.32,87.84Z"/><path class="cls-30" d="M42.87,87.93c-.49,0-1,.1-1.45.17.17-.48.36-1,.55-1.43Q42.44,87.3,42.87,87.93Z"/><path class="cls-30" d="M41.42,88.1c-.48.06-1,.13-1.44.22.15-.48.31-1,.48-1.45C40.79,87.28,41.11,87.68,41.42,88.1Z"/><path class="cls-30" d="M40,88.32c-.48.09-1,.18-1.43.29.12-.49.26-1,.41-1.47C39.31,87.53,39.65,87.92,40,88.32Z"/><path class="cls-30" d="M38.55,88.61c-.48.11-.95.22-1.42.35.1-.49.22-1,.34-1.48C37.84,87.85,38.2,88.23,38.55,88.61Z"/><path class="cls-30" d="M54.13,87.29c-.45-.12-.91-.23-1.37-.33.34-.36.69-.72,1-1.07C53.92,86.36,54,86.82,54.13,87.29Z"/><path class="cls-30" d="M52.76,87q-.69-.15-1.38-.27c.32-.38.64-.75,1-1.12C52.51,86,52.64,86.5,52.76,87Z"/><path class="cls-30" d="M51.38,86.69c-.46-.09-.93-.16-1.4-.22.3-.39.61-.77.93-1.16C51.08,85.77,51.23,86.23,51.38,86.69Z"/><path class="cls-30" d="M50,86.47c-.46-.06-.93-.11-1.4-.15q.42-.6.87-1.2C49.64,85.57,49.82,86,50,86.47Z"/><path class="cls-30" d="M48.58,86.32c-.46,0-.93-.07-1.4-.09.26-.41.52-.83.8-1.23Q48.3,85.66,48.58,86.32Z"/><path class="cls-30" d="M47.18,86.23q-.7,0-1.41,0c.24-.43.48-.85.74-1.27C46.74,85.36,47,85.79,47.18,86.23Z"/><path class="cls-30" d="M45.77,86.2c-.47,0-.94,0-1.4,0,.21-.44.43-.87.67-1.3C45.29,85.35,45.54,85.77,45.77,86.2Z"/><path class="cls-30" d="M44.37,86.23q-.7,0-1.41.09c.19-.44.39-.88.61-1.32C43.84,85.4,44.11,85.82,44.37,86.23Z"/><path class="cls-30" d="M43,86.32c-.47,0-.93.09-1.4.15q.25-.68.54-1.35C42.4,85.52,42.68,85.92,43,86.32Z"/><path class="cls-30" d="M41.56,86.47c-.46.06-.93.13-1.39.22.14-.46.3-.92.47-1.38C41,85.7,41.26,86.08,41.56,86.47Z"/><path class="cls-30" d="M40.17,86.69c-.46.08-.93.17-1.39.27.13-.46.26-.93.41-1.39C39.52,85.94,39.85,86.31,40.17,86.69Z"/><path class="cls-30" d="M38.78,87l-1.37.33c.1-.47.21-.93.33-1.4C38.1,86.24,38.45,86.6,38.78,87Z"/><path class="cls-30" d="M53.71,85.64c-.43-.1-.86-.2-1.3-.28a5.79,5.79,0,0,0,.66-.8A4.13,4.13,0,0,1,53.71,85.64Z"/><path class="cls-30" d="M52.41,85.36c-.44-.09-.87-.16-1.31-.23q.45-.48.93-.93C52.17,84.58,52.29,85,52.41,85.36Z"/><path class="cls-30" d="M51.1,85.13c-.44-.07-.88-.13-1.33-.18.29-.32.58-.65.88-1Q50.89,84.56,51.1,85.13Z"/><path class="cls-30" d="M49.77,85c-.44,0-.88-.09-1.33-.12.27-.34.54-.67.82-1C49.44,84.2,49.61,84.58,49.77,85Z"/><path class="cls-30" d="M48.44,84.83c-.44,0-.89-.06-1.33-.08.24-.35.5-.69.76-1Q48.17,84.28,48.44,84.83Z"/><path class="cls-30" d="M47.11,84.75c-.45,0-.89,0-1.34,0,.23-.35.46-.7.7-1C46.69,84,46.91,84.39,47.11,84.75Z"/><path class="cls-30" d="M45.77,84.72c-.44,0-.89,0-1.33,0q.3-.54.63-1.08C45.32,84,45.55,84.37,45.77,84.72Z"/><path class="cls-30" d="M44.44,84.75c-.45,0-.89,0-1.34.08.18-.37.38-.74.58-1.11C43.94,84.06,44.19,84.4,44.44,84.75Z"/><path class="cls-30" d="M43.1,84.83,41.77,85c.16-.37.33-.75.51-1.12C42.57,84.16,42.84,84.49,43.1,84.83Z"/><path class="cls-30" d="M41.77,85q-.66.08-1.32.18.21-.57.45-1.14C41.2,84.3,41.49,84.63,41.77,85Z"/><path class="cls-30" d="M40.45,85.13c-.44.07-.88.14-1.31.23.11-.39.24-.78.38-1.16Q40,84.65,40.45,85.13Z"/><path class="cls-30" d="M39.14,85.36c-.44.08-.87.18-1.31.28a5.75,5.75,0,0,1,.65-1.18A4.73,4.73,0,0,0,39.14,85.36Z"/><path class="cls-30" d="M52.41,84.11l-1.31-.23a4.08,4.08,0,0,0,.58-.93A5.65,5.65,0,0,1,52.41,84.11Z"/><path class="cls-30" d="M51.1,83.88c-.44-.07-.88-.12-1.33-.18l.88-1Q50.89,83.31,51.1,83.88Z"/><path class="cls-30" d="M49.77,83.7c-.44,0-.88-.09-1.33-.12.27-.34.54-.67.82-1C49.44,83,49.61,83.33,49.77,83.7Z"/><path class="cls-30" d="M48.44,83.58c-.44,0-.89-.06-1.33-.08.24-.34.5-.69.76-1Q48.17,83,48.44,83.58Z"/><path class="cls-30" d="M47.11,83.5c-.45,0-.89,0-1.34,0,.23-.36.46-.71.7-1.06C46.69,82.78,46.91,83.14,47.11,83.5Z"/><path class="cls-30" d="M45.77,83.48c-.44,0-.89,0-1.33,0q.3-.54.63-1.08C45.32,82.77,45.55,83.12,45.77,83.48Z"/><path class="cls-30" d="M44.44,83.5c-.45,0-.89,0-1.34.08.18-.37.38-.74.58-1.11C43.94,82.81,44.19,83.16,44.44,83.5Z"/><path class="cls-30" d="M43.1,83.58l-1.33.12c.16-.37.33-.75.51-1.12C42.57,82.91,42.84,83.24,43.1,83.58Z"/><path class="cls-30" d="M41.77,83.7l-1.32.18q.21-.57.45-1.14Q41.35,83.22,41.77,83.7Z"/><path class="cls-30" d="M40.45,83.88l-1.31.23A4.33,4.33,0,0,1,39.88,83,4.09,4.09,0,0,0,40.45,83.88Z"/><path class="cls-30" d="M50.8,82.53l-1-.17a1.18,1.18,0,0,0,.23-.7A3.51,3.51,0,0,1,50.8,82.53Z"/><path class="cls-30" d="M49.8,82.36l-1-.14c.22-.24.44-.49.67-.73Q49.65,81.93,49.8,82.36Z"/><path class="cls-30" d="M48.8,82.22c-.33,0-.67-.07-1-.09.2-.26.41-.51.62-.76C48.55,81.66,48.68,81.94,48.8,82.22Z"/><path class="cls-30" d="M47.79,82.13c-.33,0-.67,0-1-.06l.58-.78C47.51,81.57,47.66,81.85,47.79,82.13Z"/><path class="cls-30" d="M46.78,82.07l-1,0c.17-.27.35-.53.53-.8C46.47,81.52,46.63,81.8,46.78,82.07Z"/><path class="cls-30" d="M45.77,82.05l-1,0c.15-.27.32-.55.48-.82C45.43,81.52,45.6,81.78,45.77,82.05Z"/><path class="cls-30" d="M44.76,82.07c-.34,0-.67,0-1,.06.14-.28.28-.56.44-.84Q44.49,81.68,44.76,82.07Z"/><path class="cls-30" d="M43.75,82.13l-1,.09c.13-.28.25-.56.39-.85C43.35,81.62,43.55,81.87,43.75,82.13Z"/><path class="cls-30" d="M42.74,82.22l-1,.14c.11-.29.22-.58.34-.87C42.31,81.73,42.53,82,42.74,82.22Z"/><path class="cls-30" d="M41.74,82.36l-1,.17c.09-.29.75-.82.75-.82A1.11,1.11,0,0,0,41.74,82.36Z"/><path class="cls-30" d="M49.24,81.16q-.35-.07-.69-.12a.83.83,0,0,0,.18-.45S49.18,81,49.24,81.16Z"/><path class="cls-30" d="M48.55,81q-.34-.06-.69-.09l.46-.51C48.4,80.64,48.48,80.84,48.55,81Z"/><path class="cls-30" d="M47.86,81l-.69-.07c.14-.18.28-.35.43-.52C47.69,80.55,47.78,80.75,47.86,81Z"/><path class="cls-30" d="M47.17,80.88l-.7,0,.4-.54Z"/><path class="cls-30" d="M46.47,80.84h-.7c.12-.19.24-.37.37-.55C46.25,80.46,46.37,80.65,46.47,80.84Z"/><path class="cls-30" d="M45.77,80.83h-.69a6.32,6.32,0,0,1,.33-.56C45.53,80.46,45.66,80.64,45.77,80.83Z"/><path class="cls-30" d="M45.08,80.84l-.7,0c.09-.19.19-.39.3-.58Z"/><path class="cls-30" d="M44.38,80.88l-.7.07.27-.59C44.1,80.53,44.24,80.7,44.38,80.88Z"/><path class="cls-30" d="M43.68,81q-.34,0-.69.09c.08-.2.15-.4.24-.6C43.38,80.61,43.54,80.78,43.68,81Z"/><path class="cls-30" d="M43,81c-.23,0-.46.07-.68.12.06-.2.47-.51.47-.51A1.11,1.11,0,0,0,43,81Z"/><path class="cls-30" d="M47.79,80l-.5-.07c.1-.12.22-.24.33-.36C47.68,79.69,47.74,79.84,47.79,80Z"/><path class="cls-30" d="M47.29,79.91l-.51,0,.31-.38C47.16,79.63,47.23,79.77,47.29,79.91Z"/><path class="cls-30" d="M46.78,79.87a4.07,4.07,0,0,0-.5,0l.29-.39C46.64,79.59,46.72,79.73,46.78,79.87Z"/><path class="cls-30" d="M46.28,79.84h-.51l.27-.4Z"/><path class="cls-30" d="M45.77,79.83h-.5a3.38,3.38,0,0,1,.24-.41C45.6,79.56,45.69,79.69,45.77,79.83Z"/><path class="cls-30" d="M45.27,79.84a4.36,4.36,0,0,0-.51,0c.07-.14.14-.28.22-.42Z"/><path class="cls-30" d="M44.76,79.87l-.5,0c.06-.14.12-.28.19-.42C44.56,79.61,44.66,79.74,44.76,79.87Z"/><path class="cls-30" d="M44.26,79.91l-.5.07c.05-.14.11-.29.17-.43Z"/><path class="cls-30" d="M47.29,79.05l-.51,0,.31-.38C47.16,78.76,47.23,78.9,47.29,79.05Z"/><path class="cls-30" d="M46.78,79l-.5,0,.29-.39C46.64,78.72,46.72,78.86,46.78,79Z"/><path class="cls-30" d="M46.28,79h-.51l.27-.4Z"/><path class="cls-30" d="M45.77,79h-.5a4.36,4.36,0,0,1,.24-.41Z"/><path class="cls-30" d="M45.27,79l-.51,0c.07-.14.14-.28.22-.42Z"/><path class="cls-30" d="M44.76,79l-.5,0c.06-.15.12-.29.19-.43C44.56,78.74,44.66,78.87,44.76,79Z"/><path class="cls-30" d="M46.78,78.1a4.07,4.07,0,0,0-.5,0l.29-.39C46.64,77.82,46.72,78,46.78,78.1Z"/><path class="cls-30" d="M46.28,78.07h-.51l.27-.4Z"/><path class="cls-30" d="M45.77,78.06h-.5a3.38,3.38,0,0,1,.24-.41C45.6,77.79,45.69,77.92,45.77,78.06Z"/><path class="cls-30" d="M45.27,78.07a4.36,4.36,0,0,0-.51,0c.07-.14.14-.28.22-.42Z"/><path class="cls-30" d="M46.53,77.11H46l.26-.4C46.37,76.84,46.46,77,46.53,77.11Z"/><path class="cls-30" d="M46,77.1h-.51l.24-.41Z"/><path class="cls-30" d="M45.52,77.11l-.51,0,.22-.42Z"/><path class="cls-30" d="M46.28,76.18h-.51l.24-.41C46.11,75.91,46.19,76.05,46.28,76.18Z"/><path class="cls-30" d="M45.77,76.19l-.5,0,.21-.42Z"/><path class="cls-30" d="M53.49,91.59c-.42-.11-.84-.22-1.27-.31.31-.37.62-.74.94-1.1Q53.34,90.89,53.49,91.59Z"/><path class="cls-30" d="M52.22,91.28c-.42-.09-.85-.18-1.28-.25l.89-1.14C52,90.35,52.1,90.82,52.22,91.28Z"/><path class="cls-30" d="M50.94,91c-.42-.08-.85-.14-1.28-.2l.83-1.17C50.65,90.12,50.8,90.57,50.94,91Z"/><path class="cls-30" d="M49.66,90.83l-1.29-.14q.38-.6.78-1.2C49.33,89.93,49.5,90.38,49.66,90.83Z"/><path class="cls-30" d="M48.37,90.69l-1.3-.08c.23-.42.48-.83.73-1.24Q48.1,90,48.37,90.69Z"/><path class="cls-30" d="M47.07,90.61c-.43,0-.86,0-1.3,0,.22-.42.44-.85.68-1.27C46.67,89.74,46.87,90.18,47.07,90.61Z"/><path class="cls-30" d="M45.77,90.58q-.65,0-1.29,0c.19-.43.4-.87.62-1.3C45.33,89.73,45.56,90.16,45.77,90.58Z"/><path class="cls-30" d="M44.48,90.61l-1.3.08q.27-.66.57-1.32C44,89.78,44.24,90.19,44.48,90.61Z"/><path class="cls-30" d="M43.18,90.69l-1.29.14c.16-.45.33-.9.51-1.34Q42.81,90.09,43.18,90.69Z"/><path class="cls-30" d="M41.89,90.83c-.43.06-.86.12-1.29.2.14-.46.29-.91.45-1.37Q41.49,90.25,41.89,90.83Z"/><path class="cls-30" d="M40.6,91c-.43.07-.85.16-1.28.25.12-.46.26-.93.4-1.39C40,90.27,40.32,90.65,40.6,91Z"/><path class="cls-30" d="M39.32,91.28c-.42.09-.85.2-1.27.31.1-.47.22-.94.34-1.41C38.71,90.54,39,90.91,39.32,91.28Z"/><path class="cls-30" d="M52.66,92.58l-.24-.1c.27-.28.7-.63,1-.9C53.5,92,52.66,92.58,52.66,92.58Z"/><path class="cls-30" d="M52.57,92.54a7.69,7.69,0,0,0-1.12-.42c.26-.28.52-.57.8-.84C52.36,91.65,52.47,92.17,52.57,92.54Z"/><path class="cls-30" d="M51.45,92.12l-1.12-.22c.24-.3.49-.59.75-.88C51.21,91.39,51.34,91.75,51.45,92.12Z"/><path class="cls-30" d="M50.33,91.9c-.38-.07-.76-.12-1.14-.17.23-.31.47-.61.72-.91C50.06,91.18,50.19,91.54,50.33,91.9Z"/><path class="cls-30" d="M49.19,91.73c-.38,0-.75-.09-1.13-.12.21-.32.44-.63.67-.94C48.89,91,49.05,91.37,49.19,91.73Z"/><path class="cls-30" d="M48.06,91.61c-.38,0-.76-.06-1.14-.08.2-.32.41-.65.63-1C47.73,90.91,47.89,91.26,48.06,91.61Z"/><path class="cls-30" d="M46.92,91.53l-1.15,0c.19-.34.39-.67.6-1C46.56,90.85,46.74,91.19,46.92,91.53Z"/><path class="cls-30" d="M45.77,91.51l-1.14,0c.18-.34.36-.68.55-1C45.39,90.84,45.58,91.17,45.77,91.51Z"/><path class="cls-30" d="M44.63,91.53c-.38,0-.76,0-1.14.08q.24-.52.51-1C44.21,90.88,44.43,91.21,44.63,91.53Z"/><path class="cls-30" d="M43.49,91.61q-.57,0-1.14.12c.15-.36.3-.71.46-1.06C43.05,91,43.27,91.29,43.49,91.61Z"/><path class="cls-30" d="M42.35,91.73c-.37,0-.75.1-1.13.17q.2-.54.42-1.08C41.88,91.12,42.12,91.42,42.35,91.73Z"/><path class="cls-30" d="M41.22,91.9l-1.12.22c.11-.37.23-.73.36-1.1C40.72,91.31,41,91.6,41.22,91.9Z"/><path class="cls-30" d="M40.1,92.12A7.47,7.47,0,0,0,39,92.5s.15-.85.26-1.22C39.57,91.55,39.84,91.84,40.1,92.12Z"/><path class="cls-30" d="M39.11,92.47l-.22.11-.84-1C38.34,91.85,38.84,92.2,39.11,92.47Z"/><rect class="cls-10" x="39.76" y="93.3" width="12.02" height="8.62"/><rect class="cls-31" x="39.76" y="94.98" width="12.02" height="0.41"/><rect class="cls-31" x="39.76" y="94.16" width="12.02" height="0.41"/><rect class="cls-31" x="39.76" y="100.28" width="12.02" height="0.41"/><rect class="cls-19" x="44.97" y="95.85" width="1.6" height="4.43"/><rect class="cls-20" x="45.12" y="96.03" width="1.31" height="4.25"/><rect class="cls-21" x="45.55" y="96.42" width="0.44" height="3.85"/><rect class="cls-19" x="48.43" y="95.85" width="1.6" height="4.43"/><rect class="cls-20" x="48.57" y="96.03" width="1.31" height="4.25"/><rect class="cls-21" x="49.01" y="96.42" width="0.44" height="3.85"/><rect class="cls-19" x="41.52" y="95.85" width="1.6" height="4.43" transform="translate(84.64 196.13) rotate(180)"/><rect class="cls-20" x="41.66" y="96.03" width="1.31" height="4.25" transform="translate(84.64 196.31) rotate(180)"/><rect class="cls-21" x="42.1" y="96.42" width="0.44" height="3.85" transform="translate(84.64 196.7) rotate(180)"/><rect class="cls-32" x="39.76" y="101.92" width="12.02" height="5"/><path class="cls-24" d="M45.77,104C43,104,43,106.9,43,106.9H48.6S48.6,104,45.77,104Z"/><path class="cls-20" d="M45.77,104.14c-2.64,0-2.64,2.76-2.64,2.76h5.29S48.42,104.14,45.77,104.14Z"/><path class="cls-25" d="M45.77,104.69a2.14,2.14,0,0,0-2.12,2.21h4.24A2.14,2.14,0,0,0,45.77,104.69Z"/><path class="cls-24" d="M50.12,104c-1.69,0-1.69,2.94-1.69,2.94h3.38S51.81,104,50.12,104Z"/><path class="cls-20" d="M50.12,104.14c-1.59,0-1.59,2.76-1.59,2.76h3.18S51.71,104.14,50.12,104.14Z"/><path class="cls-25" d="M50.12,104.69c-1.27,0-1.27,2.21-1.27,2.21h2.54S51.39,104.69,50.12,104.69Z"/><path class="cls-24" d="M41.43,104c1.69,0,1.69,2.94,1.69,2.94H39.73S39.73,104,41.43,104Z"/><path class="cls-20" d="M41.43,104.14c1.58,0,1.58,2.76,1.58,2.76H39.84S39.84,104.14,41.43,104.14Z"/><path class="cls-25" d="M41.43,104.69c1.27,0,1.27,2.21,1.27,2.21H40.15S40.15,104.69,41.43,104.69Z"/><rect class="cls-32" x="38.55" y="106.92" width="14.44" height="3.89"/><path class="cls-24" d="M45.77,108.51c-3.39,0-3.39,2.29-3.39,2.29h6.79S49.17,108.51,45.77,108.51Z"/><path class="cls-20" d="M45.77,108.65c-3.18,0-3.18,2.15-3.18,2.15H49S49,108.65,45.77,108.65Z"/><path class="cls-25" d="M45.77,109.08c-2.54,0-2.54,1.72-2.54,1.72h5.09S48.32,109.08,45.77,109.08Z"/><path class="cls-24" d="M51,108.51c-2,0-2,2.29-2,2.29H53S53,108.51,51,108.51Z"/><path class="cls-20" d="M51,108.65c-1.91,0-1.91,2.15-1.91,2.15H52.9S52.9,108.65,51,108.65Z"/><path class="cls-25" d="M51,109.08c-1.53,0-1.53,1.72-1.53,1.72h3.05S52.52,109.08,51,109.08Z"/><path class="cls-24" d="M40.55,108.51c2,0,2,2.29,2,2.29H38.52S38.52,108.51,40.55,108.51Z"/><path class="cls-20" d="M40.55,108.65c1.91,0,1.91,2.15,1.91,2.15H38.64S38.64,108.65,40.55,108.65Z"/><path class="cls-25" d="M40.55,109.08c1.53,0,1.53,1.72,1.53,1.72H39S39,109.08,40.55,109.08Z"/><rect class="cls-32" x="37.21" y="110.81" width="17.13" height="3.89"/><path class="cls-24" d="M45.77,112.4c-4,0-4,2.29-4,2.29h8S49.8,112.4,45.77,112.4Z"/><path class="cls-20" d="M45.77,112.54c-3.77,0-3.77,2.15-3.77,2.15h7.55S49.55,112.54,45.77,112.54Z"/><path class="cls-25" d="M45.77,113c-3,0-3,1.72-3,1.72h6S48.8,113,45.77,113Z"/><path class="cls-24" d="M52,112.4a2.28,2.28,0,0,0-2.41,2.29h4.82A2.28,2.28,0,0,0,52,112.4Z"/><path class="cls-20" d="M52,112.54a2.14,2.14,0,0,0-2.26,2.15h4.52A2.14,2.14,0,0,0,52,112.54Z"/><path class="cls-25" d="M52,113a1.71,1.71,0,0,0-1.81,1.72h3.62A1.71,1.71,0,0,0,52,113Z"/><path class="cls-24" d="M39.58,112.4A2.28,2.28,0,0,1,42,114.69H37.16A2.29,2.29,0,0,1,39.58,112.4Z"/><path class="cls-20" d="M39.58,112.54a2.14,2.14,0,0,1,2.26,2.15H37.32A2.14,2.14,0,0,1,39.58,112.54Z"/><path class="cls-25" d="M39.58,113a1.71,1.71,0,0,1,1.81,1.72H37.77A1.71,1.71,0,0,1,39.58,113Z"/><polygon class="cls-2" points="96.65 95.43 97.13 94.82 96.35 93.7 87.65 93.56 86.44 94.82 86.92 95.43 96.65 95.43"/><path class="cls-5" d="M91.79,94.4a14.92,14.92,0,0,0-5.15.66l-.19-.24,1.2-1.26,8.7.14.78,1.12-.2.24A14.9,14.9,0,0,0,91.79,94.4Z"/><path class="cls-33" d="M98.5,91.91c-.21-2.8-3.73-4.51-4.61-5.6a8.87,8.87,0,0,1-1.52-3.21H91.2a8.87,8.87,0,0,1-1.52,3.21c-.87,1.09-4.4,2.8-4.61,5.6a3.73,3.73,0,0,0,1.38,2.91,10.36,10.36,0,0,1,5.34-1.14,10.4,10.4,0,0,1,5.34,1.14A3.74,3.74,0,0,0,98.5,91.91Z"/><path class="cls-23" d="M86.06,93.39a6,6,0,0,1-1-1,3.9,3.9,0,0,0,1.37,2.4,5.48,5.48,0,0,1,1.2-.53A9.55,9.55,0,0,1,86.06,93.39Z"/><path class="cls-23" d="M87.46,91.42a18.28,18.28,0,0,1-1.25-2,5,5,0,0,0-.71,1,8.32,8.32,0,0,0,1,1.6A9.12,9.12,0,0,0,88.72,94q.45-.1,1-.18A12.9,12.9,0,0,1,87.46,91.42Z"/><path class="cls-23" d="M92.14,93.69a16.88,16.88,0,0,1-3.68-6.31c-.31.24-.65.5-1,.79.18,1.39,1.71,3.89,3.64,5.53l.68,0Z"/><path class="cls-23" d="M95.14,94.07a5.76,5.76,0,0,0-1-2.91c-1.06-1.86-3.11-2-4.14-5.29a4.59,4.59,0,0,1-.33.44,3.2,3.2,0,0,1-.26.28A7.82,7.82,0,0,0,90,88.1c.71,1.41,2.32,2.74,2.84,3.6a17.27,17.27,0,0,1,1.07,2.13q.68.11,1.2.24Z"/><path class="cls-23" d="M96.77,94.63a4.37,4.37,0,0,0,.41-3.72c-.82-2-4.15-3.63-5.08-4.51a9,9,0,0,1-1.4-1.81q-.12.28-.27.57a6.23,6.23,0,0,0,1,1.6c1.1,1.23,3.61,2.37,4.26,4a6.83,6.83,0,0,1,.3,3.61C96.35,94.44,96.59,94.55,96.77,94.63Z"/><path class="cls-23" d="M94,86.47l-.14-.16a6.46,6.46,0,0,1-.68-1,10.77,10.77,0,0,1-2.16-1.65h0c0,.12-.08.26-.13.4A8.56,8.56,0,0,0,94,86.47Z"/><path class="cls-23" d="M92.48,83.52a4.26,4.26,0,0,1-.11-.42H91.2a4.26,4.26,0,0,1-.11.42Z"/><polygon class="cls-6" points="92.08 81.66 91.78 81.66 91.78 83.1 92.37 83.1 92.08 81.66"/><polygon class="cls-6" points="91.5 81.66 91.78 81.66 91.78 83.1 91.2 83.1 91.5 81.66"/><path class="cls-6" d="M92.57,81.49a.8.8,0,1,1-.78-.63A.72.72,0,0,1,92.57,81.49Z"/><rect class="cls-6" x="91.63" y="75.93" width="0.32" height="5.16"/><rect class="cls-6" x="91.66" y="75.9" width="0.25" height="2.85" transform="translate(169.11 -14.46) rotate(90)"/><rect class="cls-10" x="86.92" y="95.43" width="9.73" height="6.98"/><rect class="cls-31" x="86.92" y="96.78" width="9.73" height="0.33"/><rect class="cls-31" x="86.92" y="96.12" width="9.73" height="0.33"/><rect class="cls-31" x="86.92" y="101.07" width="9.73" height="0.33"/><rect class="cls-19" x="91.14" y="97.49" width="1.29" height="3.58"/><rect class="cls-20" x="91.25" y="97.64" width="1.06" height="3.44"/><rect class="cls-21" x="91.61" y="97.95" width="0.35" height="3.12"/><rect class="cls-19" x="93.93" y="97.49" width="1.29" height="3.58"/><rect class="cls-20" x="94.05" y="97.64" width="1.06" height="3.44"/><rect class="cls-21" x="94.4" y="97.95" width="0.35" height="3.12"/><rect class="cls-19" x="88.34" y="97.49" width="1.29" height="3.58" transform="translate(177.98 198.56) rotate(180)"/><rect class="cls-20" x="88.46" y="97.64" width="1.06" height="3.44" transform="translate(177.98 198.71) rotate(180)"/><rect class="cls-21" x="88.81" y="97.95" width="0.35" height="3.12" transform="translate(177.98 199.03) rotate(180)"/><rect class="cls-32" x="86.92" y="102.41" width="9.73" height="4.04"/><path class="cls-24" d="M91.79,104.05a2.31,2.31,0,0,0-2.29,2.39h4.57A2.31,2.31,0,0,0,91.79,104.05Z"/><path class="cls-20" d="M91.79,104.2a2.17,2.17,0,0,0-2.15,2.24h4.29A2.16,2.16,0,0,0,91.79,104.2Z"/><path class="cls-25" d="M91.79,104.65a1.73,1.73,0,0,0-1.72,1.79H93.5A1.73,1.73,0,0,0,91.79,104.65Z"/><path class="cls-24" d="M95.3,104.05c-1.37,0-1.37,2.39-1.37,2.39h2.74S96.67,104.05,95.3,104.05Z"/><path class="cls-20" d="M95.3,104.2c-1.28,0-1.28,2.24-1.28,2.24h2.57S96.59,104.2,95.3,104.2Z"/><path class="cls-25" d="M95.3,104.65c-1,0-1,1.79-1,1.79h2S96.33,104.65,95.3,104.65Z"/><path class="cls-24" d="M88.27,104.05c1.37,0,1.37,2.39,1.37,2.39H86.9S86.9,104.05,88.27,104.05Z"/><path class="cls-20" d="M88.27,104.2c1.28,0,1.28,2.24,1.28,2.24H87S87,104.2,88.27,104.2Z"/><path class="cls-25" d="M88.27,104.65c1,0,1,1.79,1,1.79H87.24S87.24,104.65,88.27,104.65Z"/><rect class="cls-32" x="86.06" y="106.44" width="11.45" height="4.76"/><path class="cls-24" d="M91.79,108.37c-2.69,0-2.69,2.81-2.69,2.81h5.38S94.48,108.37,91.79,108.37Z"/><path class="cls-20" d="M91.79,108.55a2.55,2.55,0,0,0-2.53,2.63h5A2.54,2.54,0,0,0,91.79,108.55Z"/><path class="cls-25" d="M91.79,109.07a2,2,0,0,0-2,2.11h4A2,2,0,0,0,91.79,109.07Z"/><path class="cls-24" d="M95.93,108.37c-1.62,0-1.62,2.81-1.62,2.81h3.23S97.54,108.37,95.93,108.37Z"/><path class="cls-20" d="M95.93,108.55c-1.51,0-1.51,2.63-1.51,2.63h3S97.44,108.55,95.93,108.55Z"/><path class="cls-25" d="M95.93,109.07c-1.21,0-1.21,2.11-1.21,2.11h2.42S97.14,109.07,95.93,109.07Z"/><path class="cls-24" d="M87.64,108.37c1.62,0,1.62,2.81,1.62,2.81H86S86,108.37,87.64,108.37Z"/><path class="cls-20" d="M87.64,108.55c1.52,0,1.52,2.63,1.52,2.63h-3S86.13,108.55,87.64,108.55Z"/><path class="cls-25" d="M87.64,109.07c1.22,0,1.22,2.11,1.22,2.11H86.43S86.43,109.07,87.64,109.07Z"/><rect class="cls-32" x="85.18" y="111.18" width="13.21" height="5.49"/><path class="cls-24" d="M91.79,113.41c-3.11,0-3.11,3.24-3.11,3.24h6.21S94.89,113.41,91.79,113.41Z"/><path class="cls-20" d="M91.79,113.62c-2.91,0-2.91,3-2.91,3h5.81S94.69,113.62,91.79,113.62Z"/><path class="cls-25" d="M91.79,114.22a2.35,2.35,0,0,0-2.33,2.43h4.66A2.35,2.35,0,0,0,91.79,114.22Z"/><path class="cls-24" d="M96.56,113.41c-1.86,0-1.86,3.24-1.86,3.24h3.72S98.42,113.41,96.56,113.41Z"/><path class="cls-20" d="M96.56,113.62c-1.74,0-1.74,3-1.74,3h3.49S98.31,113.62,96.56,113.62Z"/><path class="cls-25" d="M96.56,114.22c-1.39,0-1.39,2.43-1.39,2.43H98S98,114.22,96.56,114.22Z"/><path class="cls-24" d="M87,113.41c1.86,0,1.86,3.24,1.86,3.24H85.15S85.15,113.41,87,113.41Z"/><path class="cls-20" d="M87,113.62c1.74,0,1.74,3,1.74,3H85.27S85.27,113.62,87,113.62Z"/><path class="cls-25" d="M87,114.22c1.4,0,1.4,2.43,1.4,2.43h-2.8S85.61,114.22,87,114.22Z"/><rect class="cls-32" x="19.38" y="114.6" width="39.61" height="3.99"/><polygon class="cls-34" points="19.38 114.61 16.83 118.59 19.38 118.59 19.38 114.61"/><rect class="cls-35" x="23.25" y="134.02" width="2.64" height="9.89"/><rect class="cls-36" x="19.73" y="137.75" width="9.7" height="2.45" transform="translate(163.55 114.4) rotate(90)"/><rect class="cls-37" x="25.9" y="130.17" width="11.66" height="13.75"/><path class="cls-35" d="M25.65,143.26H23.5v-2h2.15Zm-1.75-.4h1.35V141.6H23.9Z"/><path class="cls-35" d="M25.65,138.79H23.5v-2h2.15Zm-1.75-.4h1.35v-1.25H23.9Z"/><rect class="cls-35" x="37.62" y="134.02" width="2.64" height="9.89" transform="translate(77.88 277.94) rotate(180)"/><rect class="cls-36" x="34.09" y="137.75" width="9.7" height="2.45" transform="translate(177.91 100.03) rotate(90)"/><path class="cls-35" d="M40,143.26H37.86v-2H40Zm-1.75-.4h1.35V141.6H38.26Z"/><path class="cls-35" d="M40,138.79H37.86v-2H40Zm-1.75-.4h1.35v-1.25H38.26Z"/><rect class="cls-34" x="22.93" y="125.29" width="17.65" height="1.05"/><polygon class="cls-38" points="40.26 125.29 23.25 125.29 31.76 109.65 40.26 125.29"/><polygon class="cls-39" points="37.03 125.29 26.48 125.29 31.76 109.65 37.03 125.29"/><path class="cls-35" d="M31.76,126.35H23.25V134H25.9a4.08,4.08,0,0,1,3-1.5,3.44,3.44,0,0,1,2.4,1v1.31l.47,1.37.46-1.37V133.5a3.46,3.46,0,0,1,2.4-1,4.11,4.11,0,0,1,3,1.5h2.64v-7.67Z"/><path class="cls-36" d="M31.39,134.79v-1.34l0,0a3.61,3.61,0,0,0-2.47-1,4.11,4.11,0,0,0-3,1.51h-2.5v-7.48H40.16v7.48h-2.5a4.09,4.09,0,0,0-3-1.51,3.63,3.63,0,0,0-2.47,1l0,0v1.34l-.36,1.08Z"/><path class="cls-35" d="M32.83,132H30.68v-2h2.15Zm-1.75-.4h1.35v-1.26H31.08Z"/><rect class="cls-35" x="23.25" y="126.31" width="2.64" height="7.71"/><rect class="cls-36" x="20.8" y="128.95" width="7.56" height="2.45" transform="translate(154.75 105.59) rotate(90)"/><rect class="cls-35" x="37.62" y="126.31" width="2.64" height="7.71"/><rect class="cls-36" x="35.16" y="128.95" width="7.56" height="2.45" transform="translate(169.11 91.23) rotate(90)"/><polygon class="cls-32" points="111.84 120.64 79.52 120.69 79.52 116.65 110.53 116.65 111.84 120.64"/><polygon class="cls-10" points="63.26 77.1 61.81 75.87 63.22 73.9 79.02 73.66 81.2 75.87 79.74 77.1 63.26 77.1"/><path class="cls-5" d="M71.5,75.38c4.28,0,7.48.48,8.91,1.15l.79-.66L79,73.66l-15.8.24-1.41,2,.71.6C64,75.79,67.23,75.38,71.5,75.38Z"/><rect class="cls-10" x="58.99" y="112.97" width="25.02" height="7.72"/><rect class="cls-40" x="58.99" y="116.44" width="25.02" height="0.77"/><rect class="cls-40" x="58.99" y="118.13" width="25.02" height="0.6"/><rect class="cls-34" x="58.99" y="112.97" width="25.02" height="1.27"/><rect class="cls-2" x="60.09" y="94.55" width="22.83" height="18.39"/><rect class="cls-10" x="64.68" y="94.55" width="13.65" height="18.39"/><rect class="cls-2" x="63.26" y="77.1" width="16.48" height="17.45"/><rect class="cls-10" x="66.45" y="77.1" width="10.11" height="17.45"/><path class="cls-6" d="M71.83,41.25v-2.1h-.65v2.1H69.31v.66h1.87v4.88a.87.87,0,0,0-.55.81.89.89,0,0,0,.53.81l-.37,3.28H72.3l-.45-3.28a.88.88,0,0,0,0-1.62V41.91H73.7v-.66Z"/><path class="cls-41" d="M83.45,68.45C81.93,60.23,72.3,60.62,72.3,51.69H70.71c0,8.93-9.63,8.54-11.15,16.76a7.77,7.77,0,0,0,2.22,7.43s2.79-1.41,9.72-1.41,9.73,1.41,9.73,1.41A7.77,7.77,0,0,0,83.45,68.45Z"/><path class="cls-42" d="M71.5,71.94a26.07,26.07,0,0,0-11.06,2.27,6.33,6.33,0,0,0,1.34,1.67s2.79-1.41,9.72-1.41,9.73,1.41,9.73,1.41a6.58,6.58,0,0,0,1.4-1.78A28.67,28.67,0,0,0,71.5,71.94Z"/><path class="cls-42" d="M59.39,70.09a14.24,14.24,0,0,0,.25,2.15c1-.52,5-2.38,11.85-2.38s10.89,1.87,11.88,2.38A13.6,13.6,0,0,0,83.61,70c-1.86-.84-5.78-2.16-12.11-2.16A31.51,31.51,0,0,0,59.39,70.09Z"/><path class="cls-42" d="M60,66.8a9.61,9.61,0,0,0-.44,1.6A34.69,34.69,0,0,1,71.5,66.54a34.79,34.79,0,0,1,11.94,1.85A11.41,11.41,0,0,0,83,66.71,39.47,39.47,0,0,0,71.5,65.22,40.21,40.21,0,0,0,60,66.8Z"/><path class="cls-42" d="M61.26,64.46a10.7,10.7,0,0,0-.83,1.36A32.67,32.67,0,0,1,71.5,64.07a32.53,32.53,0,0,1,11.07,1.74,9,9,0,0,0-.91-1.46A39.1,39.1,0,0,0,71.5,63.14,38.38,38.38,0,0,0,61.26,64.46Z"/><path class="cls-42" d="M63.41,62.18a15.43,15.43,0,0,0-1.36,1.32A29.27,29.27,0,0,1,71.51,62a29.75,29.75,0,0,1,9.43,1.43c-.45-.48-.93-.93-1.42-1.36a33.19,33.19,0,0,0-8-1A32.59,32.59,0,0,0,63.41,62.18Z"/><path class="cls-42" d="M71.52,59a30.57,30.57,0,0,0-4.6.35c-.45.39-.92.76-1.39,1.13a31.5,31.5,0,0,1,6-.55,31.93,31.93,0,0,1,5.94.53c-.47-.37-.94-.75-1.4-1.14A32.19,32.19,0,0,0,71.52,59Z"/><path class="cls-42" d="M71.52,56.87q-1.22,0-2.37.09a10.82,10.82,0,0,1-.78,1c1-.09,2-.14,3.14-.14s2.15.05,3.12.14a11,11,0,0,1-.78-1C73.1,56.9,72.32,56.87,71.52,56.87Z"/><path class="cls-42" d="M71.51,55.59a7,7,0,0,1,1.66.2,9.31,9.31,0,0,1-.87-4.1H70.71a9.18,9.18,0,0,1-.88,4.11A7.16,7.16,0,0,1,71.51,55.59Z"/><rect class="cls-19" x="77.76" y="82.18" width="1.25" height="7.3"/><rect class="cls-20" x="77.87" y="82.47" width="1.03" height="7"/><rect class="cls-21" x="78.21" y="83.12" width="0.34" height="6.35"/><rect class="cls-19" x="64" y="82.18" width="1.25" height="7.3" transform="translate(129.25 171.65) rotate(180)"/><rect class="cls-20" x="64.11" y="82.47" width="1.03" height="7" transform="translate(129.25 171.95) rotate(180)"/><rect class="cls-21" x="64.45" y="83.12" width="0.34" height="6.35" transform="translate(129.25 172.59) rotate(180)"/><polygon class="cls-43" points="69.06 78.54 66.91 79.55 69.06 80.56 71.2 79.55 69.06 78.54"/><polygon class="cls-3" points="67.16 79.67 69.06 80.56 70.95 79.67 69.06 78.78 67.16 79.67"/><polygon class="cls-43" points="73.92 78.54 71.77 79.55 73.92 80.56 76.07 79.55 73.92 78.54"/><polygon class="cls-3" points="72.02 79.67 73.92 80.56 75.81 79.67 73.92 78.78 72.02 79.67"/><polygon class="cls-43" points="78.21 78.54 76.91 79.55 78.21 80.56 79.52 79.55 78.21 78.54"/><polygon class="cls-3" points="77.06 79.67 78.21 80.56 79.36 79.67 78.21 78.78 77.06 79.67"/><polygon class="cls-43" points="64.78 78.54 66.11 79.55 64.78 80.56 63.44 79.55 64.78 78.54"/><polygon class="cls-3" points="65.95 79.67 64.78 80.56 63.6 79.67 64.78 78.78 65.95 79.67"/><path class="cls-43" d="M63.37,90.18l3.08-5.88,4.76,5.88-5,4.37Z"/><path class="cls-44" d="M63.7,90l2.78-5.33L70.79,90l-4.56,4Z"/><path class="cls-45" d="M66.27,93.73l.31-1,.5-1.22L68.69,90a2.61,2.61,0,0,0-2-1,3.13,3.13,0,0,0-2.08.82l.79,1.14.46,1.17Z"/><path class="cls-43" d="M79.64,90.18,76.56,84.3,71.8,90.18l5,4.37Z"/><path class="cls-44" d="M79.31,90c-.46-.89-1.89-3.61-2.79-5.33L72.22,90l4.56,4Z"/><path class="cls-45" d="M76.73,93.73l-.31-1-.49-1.22L74.32,90a2.58,2.58,0,0,1,2-1,3.17,3.17,0,0,1,2.08.82l-.79,1.14-.46,1.17Z"/><path class="cls-24" d="M79.85,89.33C83,89.33,83,94.5,83,94.5H76.66S76.66,89.33,79.85,89.33Z"/><path class="cls-8" d="M79.85,89.48c3.1,0,3.1,5,3.1,5h-6.2S76.75,89.48,79.85,89.48Z"/><path class="cls-20" d="M79.85,90.38c2.55,0,2.55,4.12,2.55,4.12H77.31S77.31,90.38,79.85,90.38Z"/><path class="cls-44" d="M79.85,90.51c2.47,0,2.47,4,2.47,4H77.39S77.39,90.51,79.85,90.51Z"/><path class="cls-25" d="M79.85,91.19c2,0,2,3.31,2,3.31H77.81S77.81,91.19,79.85,91.19Z"/><rect class="cls-19" x="70.53" y="82.18" width="1.95" height="7.3"/><rect class="cls-20" x="70.7" y="82.47" width="1.6" height="7"/><rect class="cls-21" x="71.24" y="83.12" width="0.53" height="6.35"/><path class="cls-24" d="M71.5,89.33c-5.31,0-5.31,5.17-5.31,5.17H76.82S76.82,89.33,71.5,89.33Z"/><path class="cls-8" d="M71.5,89.48c-5.16,0-5.16,5-5.16,5H76.66S76.66,89.48,71.5,89.48Z"/><path class="cls-20" d="M71.5,90.38a4.07,4.07,0,0,0-4.24,4.12h8.48A4.07,4.07,0,0,0,71.5,90.38Z"/><path class="cls-44" d="M71.5,90.51a3.94,3.94,0,0,0-4.1,4h8.21A4,4,0,0,0,71.5,90.51Z"/><path class="cls-25" d="M71.5,91.19a3.27,3.27,0,0,0-3.39,3.31H74.9A3.27,3.27,0,0,0,71.5,91.19Z"/><path class="cls-24" d="M63.15,89.33C60,89.33,60,94.5,60,94.5h6.38S66.34,89.33,63.15,89.33Z"/><path class="cls-8" d="M63.15,89.48c-3.09,0-3.09,5-3.09,5h6.19S66.25,89.48,63.15,89.48Z"/><path class="cls-20" d="M63.15,90.38c-2.54,0-2.54,4.12-2.54,4.12H65.7S65.7,90.38,63.15,90.38Z"/><path class="cls-44" d="M63.15,90.51c-2.46,0-2.46,4-2.46,4h4.93S65.62,90.51,63.15,90.51Z"/><path class="cls-25" d="M63.15,91.19c-2,0-2,3.31-2,3.31h4.08S65.19,91.19,63.15,91.19Z"/><rect class="cls-40" x="60.08" y="98.09" width="22.84" height="0.99"/><rect class="cls-40" x="64.13" y="105.13" width="14.75" height="0.99" transform="translate(177.13 34.13) rotate(90)"/><rect class="cls-40" x="70.85" y="95.38" width="1.31" height="1.31"/><rect class="cls-40" x="73.59" y="95.38" width="1.31" height="1.31"/><rect class="cls-40" x="76.33" y="95.38" width="1.31" height="1.31"/><rect class="cls-40" x="78.9" y="95.38" width="1.18" height="1.31"/><rect class="cls-40" x="81.36" y="95.38" width="1.18" height="1.31"/><rect class="cls-40" x="62.93" y="95.38" width="1.18" height="1.31" transform="translate(127.05 192.06) rotate(180)"/><rect class="cls-40" x="60.47" y="95.38" width="1.18" height="1.31" transform="translate(122.12 192.06) rotate(180)"/><rect class="cls-40" x="68.11" y="95.38" width="1.31" height="1.31" transform="translate(137.52 192.06) rotate(180)"/><rect class="cls-40" x="65.36" y="95.38" width="1.31" height="1.31" transform="translate(132.04 192.06) rotate(180)"/><path class="cls-26" d="M80.78,107.29c-.26,0-.47.27-.47.62v5h.94v-5C81.25,107.56,81,107.29,80.78,107.29Z"/><polygon class="cls-40" points="80.78 105.57 79.61 105.57 79.61 112.94 80.06 112.94 80.06 106.17 80.78 106.17 81.49 106.17 81.49 112.94 81.95 112.94 81.95 105.57 80.78 105.57"/><path class="cls-26" d="M62.23,107.29c.26,0,.47.27.47.62v5h-1v-5A.56.56,0,0,1,62.23,107.29Z"/><polygon class="cls-40" points="62.23 105.57 63.39 105.57 63.39 112.94 62.94 112.94 62.94 106.17 62.23 106.17 61.51 106.17 61.51 112.94 61.06 112.94 61.06 105.57 62.23 105.57"/><path class="cls-26" d="M67.79,107.29a.62.62,0,0,1,.62.62v5H67.17v-5A.62.62,0,0,1,67.79,107.29Z"/><polygon class="cls-40" points="67.79 105.57 69.33 105.57 69.33 112.94 68.73 112.94 68.73 106.17 67.79 106.17 66.85 106.17 66.85 112.94 66.25 112.94 66.25 105.57 67.79 105.57"/><path class="cls-26" d="M75.21,107.29a.62.62,0,0,0-.62.62v5h1.25v-5A.62.62,0,0,0,75.21,107.29Z"/><polygon class="cls-40" points="75.22 105.57 73.68 105.57 73.68 112.94 74.27 112.94 74.27 106.17 75.22 106.17 76.16 106.17 76.16 112.94 76.75 112.94 76.75 105.57 75.22 105.57"/><polygon class="cls-34" points="58.99 120.69 37.72 120.69 41.84 118.59 58.99 118.59 58.99 120.69"/><rect class="cls-46" x="46.11" y="120.69" width="16.29" height="23.23"/><rect class="cls-2" x="42.84" y="124.35" width="22.83" height="15.9" transform="translate(186.56 78.05) rotate(90)"/><rect class="cls-46" x="80.73" y="120.69" width="19.23" height="23.23"/><rect class="cls-2" x="78.93" y="122.89" width="22.83" height="18.83" transform="translate(222.65 41.96) rotate(90)"/><rect class="cls-46" x="99.91" y="120.69" width="11.85" height="23.23"/><rect class="cls-2" x="94.42" y="126.58" width="22.83" height="11.45" transform="translate(238.14 26.47) rotate(90)"/><rect class="cls-46" x="62.38" y="120.69" width="18.36" height="23.23"/><rect class="cls-2" x="60.14" y="123.32" width="22.83" height="17.96" transform="translate(203.86 60.74) rotate(90)"/><rect class="cls-47" x="46.11" y="120.69" width="16.29" height="12.31"/><rect class="cls-40" x="48.3" y="118.89" width="11.91" height="15.9" transform="translate(181.1 72.59) rotate(90)"/><polygon class="cls-47" points="99.96 133 80.73 133 80.73 120.69 99.96 120.64 99.96 133"/><rect class="cls-40" x="84.39" y="117.43" width="11.91" height="18.83" transform="translate(217.19 36.5) rotate(90)"/><rect class="cls-47" x="99.91" y="120.64" width="11.85" height="12.36"/><rect class="cls-40" x="99.88" y="121.12" width="11.91" height="11.45" transform="translate(232.68 21.01) rotate(90)"/><rect class="cls-19" x="74.08" y="137.98" width="1.65" height="3.59" transform="translate(149.8 279.55) rotate(180)"/><rect class="cls-20" x="74.22" y="138.13" width="1.35" height="3.44" transform="translate(149.8 279.69) rotate(180)"/><rect class="cls-21" x="74.67" y="138.44" width="0.45" height="3.13" transform="translate(149.8 280.01) rotate(180)"/><rect class="cls-19" x="65.43" y="137.98" width="1.65" height="3.59" transform="translate(132.5 279.55) rotate(180)"/><rect class="cls-20" x="65.57" y="138.13" width="1.35" height="3.44" transform="translate(132.5 279.69) rotate(180)"/><rect class="cls-21" x="66.02" y="138.44" width="0.45" height="3.13" transform="translate(132.5 280.01) rotate(180)"/><rect class="cls-47" x="62.38" y="120.69" width="18.36" height="12.31"/><rect class="cls-40" x="65.6" y="117.86" width="11.91" height="17.96" transform="translate(198.4 55.28) rotate(90)"/><rect class="cls-25" x="47.04" y="128.03" width="2.38" height="2.38"/><rect class="cls-40" x="47.36" y="128.36" width="1.73" height="1.73"/><rect class="cls-25" x="50.05" y="128.03" width="2.38" height="2.38"/><rect class="cls-40" x="50.38" y="128.36" width="1.73" height="1.73"/><rect class="cls-25" x="53.07" y="128.03" width="2.38" height="2.38"/><rect class="cls-40" x="53.39" y="128.36" width="1.73" height="1.73"/><rect class="cls-25" x="56.08" y="128.03" width="2.38" height="2.38"/><rect class="cls-40" x="56.41" y="128.36" width="1.73" height="1.73"/><rect class="cls-25" x="59.1" y="128.03" width="2.38" height="2.38"/><rect class="cls-40" x="59.43" y="128.36" width="1.73" height="1.73"/><rect class="cls-25" x="46.11" y="124.34" width="16.27" height="2.95"/><rect class="cls-40" x="46.11" y="124.89" width="16.1" height="1.85"/><path class="cls-37" d="M51.24,123.29a1.15,1.15,0,0,0-1.19,1.1v2.9h2.38v-2.9A1.15,1.15,0,0,0,51.24,123.29Z"/><path class="cls-37" d="M57.27,123.29a1.15,1.15,0,0,0-1.19,1.1v2.9h2.38v-2.9A1.15,1.15,0,0,0,57.27,123.29Z"/><rect class="cls-25" x="100.12" y="128.03" width="2.38" height="2.38"/><rect class="cls-40" x="100.45" y="128.36" width="1.73" height="1.73"/><rect class="cls-25" x="103.13" y="128.03" width="2.38" height="2.38"/><rect class="cls-40" x="103.46" y="128.36" width="1.73" height="1.73"/><rect class="cls-25" x="106.15" y="128.03" width="2.38" height="2.38"/><rect class="cls-40" x="106.48" y="128.36" width="1.73" height="1.73"/><rect class="cls-25" x="109.16" y="128.03" width="2.38" height="2.38"/><rect class="cls-40" x="109.49" y="128.36" width="1.73" height="1.73"/><rect class="cls-25" x="99.96" y="124.34" width="11.76" height="2.95"/><rect class="cls-40" x="100.12" y="124.89" width="11.6" height="1.85"/><path class="cls-37" d="M106.61,123.29a1.16,1.16,0,0,0-1.19,1.1v2.9h2.39v-2.9A1.16,1.16,0,0,0,106.61,123.29Z"/><rect class="cls-25" x="63.43" y="128.03" width="2.69" height="2.38"/><rect class="cls-40" x="63.8" y="128.36" width="1.95" height="1.73"/><rect class="cls-25" x="66.84" y="128.03" width="2.69" height="2.38"/><rect class="cls-40" x="67.21" y="128.36" width="1.95" height="1.73"/><rect class="cls-25" x="70.25" y="128.03" width="2.69" height="2.38"/><rect class="cls-40" x="70.62" y="128.36" width="1.95" height="1.73"/><rect class="cls-25" x="73.66" y="128.03" width="2.69" height="2.38"/><rect class="cls-40" x="74.03" y="128.36" width="1.95" height="1.73"/><rect class="cls-25" x="77.06" y="128.03" width="2.69" height="2.38"/><rect class="cls-40" x="77.44" y="128.36" width="1.95" height="1.73"/><rect class="cls-25" x="62.38" y="124.34" width="18.4" height="2.95"/><rect class="cls-40" x="62.64" y="124.89" width="17.94" height="1.85"/><path class="cls-37" d="M71.59,122.35a1.53,1.53,0,0,0-1.66,1.36v3.58h3.33v-3.58A1.54,1.54,0,0,0,71.59,122.35Z"/><path class="cls-37" d="M77.2,122.35a1.53,1.53,0,0,0-1.66,1.36v3.58h3.33v-3.58A1.54,1.54,0,0,0,77.2,122.35Z"/><path class="cls-37" d="M66,122.35a1.54,1.54,0,0,1,1.66,1.36v3.58H64.32v-3.58A1.54,1.54,0,0,1,66,122.35Z"/><path class="cls-37" d="M54.26,135.05c2.85,0,5.17,1.09,5.17,2.44v6.43H49.09v-6.43C49.09,136.14,51.4,135.05,54.26,135.05Z"/><path class="cls-37" d="M90.9,135.05c2.85,0,5.17,1.09,5.17,2.44v6.43H85.73v-6.43C85.73,136.14,88,135.05,90.9,135.05Z"/><rect class="cls-25" x="81.96" y="128.03" width="2.8" height="2.38"/><rect class="cls-40" x="82.34" y="128.36" width="2.02" height="1.73"/><rect class="cls-25" x="85.49" y="128.03" width="2.8" height="2.38"/><rect class="cls-40" x="85.88" y="128.36" width="2.02" height="1.73"/><rect class="cls-25" x="89.03" y="128.03" width="2.8" height="2.38"/><rect class="cls-40" x="89.42" y="128.36" width="2.02" height="1.73"/><rect class="cls-25" x="92.57" y="128.03" width="2.8" height="2.38"/><rect class="cls-40" x="92.95" y="128.36" width="2.02" height="1.73"/><rect class="cls-25" x="96.11" y="128.03" width="2.8" height="2.38"/><rect class="cls-40" x="96.49" y="128.36" width="2.02" height="1.73"/><rect class="cls-25" x="80.78" y="124.34" width="19.18" height="2.95"/><rect class="cls-40" x="80.96" y="124.89" width="18.85" height="1.85"/><path class="cls-37" d="M90.43,122.35a1.58,1.58,0,0,0-1.73,1.36v3.58h3.46v-3.58A1.58,1.58,0,0,0,90.43,122.35Z"/><path class="cls-37" d="M96.25,122.35a1.58,1.58,0,0,0-1.73,1.36v3.58H98v-3.58A1.57,1.57,0,0,0,96.25,122.35Z"/><path class="cls-37" d="M84.61,122.35a1.58,1.58,0,0,1,1.73,1.36v3.58H82.88v-3.58A1.58,1.58,0,0,1,84.61,122.35Z"/><rect class="cls-47" x="45.99" y="131.43" width="65.75" height="0.6"/><rect class="cls-40" x="45.99" y="133.89" width="65.75" height="0.63"/><rect class="cls-25" x="45.99" y="133" width="65.75" height="0.63"/></svg>