<svg id="Layer_1" data-name="Layer 1" xmlns="http://www.w3.org/2000/svg" viewBox="0 0 175.01 109.78"><defs><style>.cls-1{fill:#a66835;}.cls-2{fill:#eeb47a;}.cls-3{fill:#7b4d22;}.cls-4{fill:#c38f5b;}.cls-5{fill:#fdc281;}.cls-6{fill:#fed4a5;}.cls-7{fill:#b98f60;}.cls-8{fill:#e5a76a;}.cls-9{fill:#d69d63;}.cls-10{fill:#edb77a;}</style></defs><path class="cls-1" d="M69.81,54a3.18,3.18,0,0,1,3-3.3,2.87,2.87,0,0,1,1.09.22,3,3,0,0,0-2.41-1.27A3.19,3.19,0,0,0,68.49,53v7.1l1.32-.13Z"/><path class="cls-1" d="M61.71,54.42a3,3,0,0,1,3.05-3h.11a2.9,2.9,0,0,0-2-.77,3.17,3.17,0,0,0-3,3.27v7l1.85-.2Z"/><path class="cls-1" d="M53.51,55.72a3.1,3.1,0,0,1,2.36-3.14,2.67,2.67,0,0,0-2-.89,3,3,0,0,0-2.84,3.19V62l2.44-.36Z"/><path class="cls-1" d="M47.27,57.54a3.09,3.09,0,0,1,1.67-2.95A2.25,2.25,0,0,0,47,53.26c-1.3,0-2.35,1.38-2.35,3.09V63l2.61-.41Z"/><path class="cls-1" d="M41.61,59.29a3.39,3.39,0,0,1,1.31-2.87,2.1,2.1,0,0,0-1.74-1.56c-1.12,0-2,1.44-2,3.08v6.37l2.45-.59Z"/><path class="cls-2" d="M97.09,59.09v.32H92.87L90.21,51.3s.23-.23,0-1.42a2.82,2.82,0,0,0-1.33-1.79v-1h.5V44.6h-.5V39.38H86.33s-5.06-12.52-5.75-13.94a4.15,4.15,0,0,0-2.24-1.93V21.77l-.94-.94c-17.08.33-39.07,9.38-44.55,15.7l.83,2.94s-.64.59-1.33,1.14S31,41.71,31,41.71l-1.6-.78a15,15,0,0,0-1.17,3.12,7.43,7.43,0,0,0,.39,4.17V70.36l58.55-8.61L99.94,62V59.09ZM71.22,41.68l1.34-.16v2.1l-1.34.16Zm-9.16-7.44,2-.41v3.9l-2,.41ZM43.19,63.34l-4,1V57.94c0-1.64.9-3.08,2-3.08s2,1.44,2,3.08Zm6.17-1.07-4.7.74V56.35c0-1.71,1.05-3.09,2.35-3.09s2.35,1.38,2.35,3.09Zm7.38-1.13L51.07,62V54.88a2.85,2.85,0,1,1,5.67,0ZM66,60.28l-6.1.66v-7a3.06,3.06,0,1,1,6.1,0Zm8.63-.8-6.1.58V53a3.06,3.06,0,1,1,6.1,0Zm10.58-.62h-6.1V51.75a3.06,3.06,0,1,1,6.1,0Z"/><path class="cls-3" d="M30.54,59.58c-.32,0-.58,1-.58,2.32v5.44l1.15-.44v-5C31.11,60.62,30.86,59.58,30.54,59.58Z"/><path class="cls-3" d="M36.73,56.23c-.89,0-1.61,1.09-1.61,2.64v6.64l3.21-1V58.87C38.33,57.32,37.61,56.23,36.73,56.23Z"/><polygon class="cls-3" points="55.52 46.02 54.18 46.38 54.18 44.27 55.52 43.91 55.52 46.02"/><polygon class="cls-4" points="77.53 60.22 75.05 60.44 75.05 62.76 77.53 62.76 77.53 60.22"/><polygon class="cls-5" points="77.99 59.05 74.59 59.36 74.59 60.48 77.99 60.18 77.99 59.05"/><polygon class="cls-4" points="67.91 61.15 65.43 61.37 65.43 63.69 67.91 63.69 67.91 61.15"/><polygon class="cls-5" points="68.37 59.98 64.97 60.29 64.97 61.41 68.37 61.11 68.37 59.98"/><polygon class="cls-6" points="67.5 49.29 65.85 49.29 65.85 60.21 67.5 60.06 67.5 49.29"/><polygon class="cls-7" points="67.5 49.03 65.85 49.2 65.85 49.69 67.5 49.52 67.5 49.03"/><polygon class="cls-6" points="68.37 47.74 64.97 48.05 64.97 49.29 68.37 48.94 68.37 47.74"/><polygon class="cls-4" points="58.4 62.06 56.3 62.28 56.3 64.6 58.4 64.6 58.4 62.06"/><polygon class="cls-6" points="58.05 49.84 56.66 50.01 56.66 61.26 58.05 61.01 58.05 49.84"/><polygon class="cls-5" points="58.79 60.8 55.92 61.26 55.92 62.42 58.79 62.02 58.79 60.8"/><polygon class="cls-7" points="58.05 49.94 56.66 50.11 56.66 50.69 58.05 50.54 58.05 49.94"/><polygon class="cls-6" points="58.79 48.87 55.92 49.33 55.92 50.46 58.79 50.06 58.79 48.87"/><polygon class="cls-4" points="50.83 63.13 48.96 63.35 48.96 65.67 50.83 65.67 50.83 63.13"/><polygon class="cls-6" points="50.52 50.91 49.27 51.08 49.27 62.33 50.52 62.08 50.52 50.91"/><polygon class="cls-5" points="51.18 61.87 48.62 62.33 48.62 63.49 51.18 63.09 51.18 61.87"/><polygon class="cls-7" points="50.52 51.01 49.27 51.18 49.27 51.96 50.52 51.69 50.52 51.01"/><polygon class="cls-6" points="51.18 50.24 48.62 50.82 48.62 51.69 51.18 51.13 51.18 50.24"/><polygon class="cls-4" points="44.45 64.01 42.81 64.4 42.81 66.79 44.45 66.79 44.45 64.01"/><polygon class="cls-6" points="44.18 52.03 43.08 52.47 43.08 63.45 44.18 63.19 44.18 52.03"/><polygon class="cls-5" points="44.76 62.99 42.51 63.5 42.51 64.61 44.76 64.1 44.76 62.99"/><polygon class="cls-7" points="44.18 52.59 43.08 52.76 43.08 53.54 44.18 53.27 44.18 52.59"/><polygon class="cls-6" points="44.76 51.83 42.51 52.51 42.51 53.38 44.76 52.75 44.76 51.83"/><polygon class="cls-4" points="39.16 65.24 37.86 65.63 37.86 68.02 39.16 68.02 39.16 65.24"/><polygon class="cls-6" points="38.94 54.24 38.07 54.64 38.07 64.68 38.94 64.42 38.94 54.24"/><polygon class="cls-5" points="39.4 64.22 37.62 64.73 37.62 65.84 39.4 65.33 39.4 64.22"/><polygon class="cls-7" points="38.94 54.17 38.07 54.48 38.07 55.32 38.94 55.03 38.94 54.17"/><polygon class="cls-6" points="39.4 53.6 37.62 54.28 37.62 55.15 39.4 54.52 39.4 53.6"/><path class="cls-3" d="M33.3,58.06c-.62,0-1.13,1.3-1.13,2.64v5.91l2.27-.8V60.7C34.44,59.36,33.93,58.06,33.3,58.06Z"/><polygon class="cls-4" points="34.94 66.49 33.98 66.88 33.98 69.27 34.94 69.27 34.94 66.49"/><polygon class="cls-6" points="34.78 55.58 34.14 55.94 34.14 65.93 34.78 65.67 34.78 55.58"/><polygon class="cls-5" points="35.12 65.47 33.8 65.98 33.8 67.09 35.12 66.58 35.12 65.47"/><polygon class="cls-7" points="34.78 55.74 34.14 56.05 34.14 56.89 34.78 56.6 34.78 55.74"/><polygon class="cls-6" points="35.12 55.4 33.8 56.08 33.8 56.82 35.12 56.18 35.12 55.4"/><polygon class="cls-4" points="31.96 67.64 31 68.03 31 70.42 31.96 70.42 31.96 67.64"/><polygon class="cls-6" points="31.8 57.63 31.16 57.99 31.16 67.08 31.8 66.83 31.8 57.63"/><polygon class="cls-5" points="32.14 66.62 30.82 67.14 30.82 68.24 32.14 67.73 32.14 66.62"/><polygon class="cls-7" points="31.8 57.68 31.16 57.99 31.16 58.68 31.8 58.31 31.8 57.68"/><polygon class="cls-6" points="32.11 57.09 30.83 57.94 30.82 58.59 32.14 57.8 32.11 57.09"/><polygon class="cls-4" points="29.63 68.56 28.67 68.96 28.67 71.34 29.63 71.34 29.63 68.56"/><polygon class="cls-6" points="29.47 59.24 28.83 59.6 28.83 68 29.47 67.75 29.47 59.24"/><polygon class="cls-5" points="29.81 67.54 28.49 68.06 28.49 69.16 29.81 68.65 29.81 67.54"/><polygon class="cls-7" points="29.47 59.42 28.83 59.73 28.83 60.5 29.47 60.05 29.47 59.42"/><polygon class="cls-6" points="29.78 58.76 28.5 59.85 28.49 60.5 29.81 59.47 29.78 58.76"/><polygon class="cls-6" points="77.11 48.36 75.46 48.36 75.47 59.28 77.11 59.13 77.11 48.36"/><polygon class="cls-7" points="77.11 48.25 75.46 48.32 75.46 48.76 77.11 48.68 77.11 48.25"/><rect class="cls-4" x="85.95" y="59.84" width="2.48" height="2.31"/><polygon class="cls-3" points="42.51 49.62 41.41 50.04 41.41 48.18 42.51 47.75 42.51 49.62"/><polygon class="cls-3" points="35.22 52.34 34.33 52.84 34.33 51.32 35.22 50.82 35.22 52.34"/><polygon class="cls-3" points="48.66 41.15 47.42 41.51 47.42 38.34 48.66 37.85 48.66 41.15"/><polygon class="cls-3" points="38.31 45.24 37.59 45.59 37.59 42.43 38.31 41.94 38.31 45.24"/><path class="cls-1" d="M77.83,29.73v1.94l1.42-.1V29.63Z"/><path class="cls-1" d="M74.12,30.08V32l1.42-.14V29.93Z"/><path class="cls-1" d="M70.86,30.49v1.9l1.43-.17V30.3Z"/><path class="cls-1" d="M67.59,31v1.85L69,32.63V30.76Z"/><path class="cls-1" d="M64.47,31.56v1.78l1.42-.24V31.29Z"/><path class="cls-1" d="M61.62,32.14v1.72L63,33.59V31.84Z"/><path class="cls-1" d="M58.9,32.76v1.65l1.42-.29V32.43Z"/><path class="cls-1" d="M55.94,33.5v1.59l1.42-.34V33.14Z"/><path class="cls-1" d="M53.24,34.25v1.52l1.42-.37V33.85Z"/><path class="cls-1" d="M50.58,35.05v1.46l.2-.06L52,36.11V34.62Z"/><path class="cls-1" d="M48.26,35.82v1.42l1.42-.46V35.34Z"/><path class="cls-1" d="M46.13,36.6V38c.46-.18.94-.35,1.42-.52V36.07C47.06,36.24,46.59,36.42,46.13,36.6Z"/><path class="cls-1" d="M44,37.48v1.39c.46-.2.93-.39,1.42-.58v-1.4Z"/><path class="cls-1" d="M41.8,38.44v1.4l1.42-.66V37.79Z"/><path class="cls-1" d="M39.85,39.41v1.41c.45-.24.93-.48,1.42-.72V38.7C40.78,38.93,40.3,39.17,39.85,39.41Z"/><path class="cls-1" d="M37.81,40.54V42c.45-.28.93-.55,1.42-.82V39.74C38.73,40,38.26,40.27,37.81,40.54Z"/><path class="cls-1" d="M35.65,41.88v1.48c.45-.31.93-.62,1.42-.93V41C36.57,41.28,36.1,41.58,35.65,41.88Z"/><path class="cls-1" d="M33.68,43.28v1.53c.44-.35.92-.7,1.42-1.06v-1.5C34.59,42.6,34.12,43,33.68,43.28Z"/><path class="cls-1" d="M31.87,44.76v1.59c.43-.39.9-.8,1.42-1.23V43.58C32.77,44,32.3,44.39,31.87,44.76Z"/><path class="cls-1" d="M30,46.6v1.63c.39-.43.86-.92,1.42-1.46V45.18C30.84,45.7,30.37,46.18,30,46.6Z"/><path class="cls-1" d="M28.64,48.22a1.38,1.38,0,0,1,0,.47v1.23a13.93,13.93,0,0,1,1-1.3V47A15.36,15.36,0,0,0,28.64,48.22Z"/><path class="cls-8" d="M87.19,99.53c-39.67,0-55-4.62-58.26-5.79-.47-.17-.48-.26-.48-.26V92.12l.55-.78V84.12l-.75-.73v-2.5L29,79.75v-7l-.75-.94V70.68c1.83-1.36,19-8.93,58.94-8.93Z"/><path class="cls-3" d="M82.12,68.21a3.19,3.19,0,0,0-3.05,3.31v7.1h6.1v-7.1A3.19,3.19,0,0,0,82.12,68.21Z"/><path class="cls-1" d="M82.75,49.51a3.82,3.82,0,0,1,2,.56,3,3,0,0,0-2.62-1.62,3.19,3.19,0,0,0-3.05,3.3V53A3.59,3.59,0,0,1,82.75,49.51Z"/><path class="cls-3" d="M71.54,68.21a3.19,3.19,0,0,0-3.05,3.31v7.1h6.1v-7.1A3.18,3.18,0,0,0,71.54,68.21Z"/><path class="cls-1" d="M72.14,68.28a2.9,2.9,0,0,0-.6-.07,3.19,3.19,0,0,0-3.05,3.31v7.1h1.2v-7.1A3.24,3.24,0,0,1,72.14,68.28Z"/><path class="cls-3" d="M62.23,68.7a3.16,3.16,0,0,0-3,3.26v7h6.1V72A3.16,3.16,0,0,0,62.23,68.7Z"/><path class="cls-1" d="M63.05,68.82a2.81,2.81,0,0,0-.82-.12,3.16,3.16,0,0,0-3,3.26v7h1.64V72A3.25,3.25,0,0,1,63.05,68.82Z"/><rect class="cls-5" x="85.49" y="58.76" width="3.39" height="1.1"/><rect class="cls-6" x="85.49" y="46.9" width="3.39" height="0.76"/><rect class="cls-6" x="86.36" y="47.66" width="1.65" height="11.07"/><rect class="cls-7" x="86.33" y="47.66" width="1.71" height="0.41"/><path class="cls-3" d="M53.91,69.32a3,3,0,0,0-2.84,3.19v6.87h5.67V72.51A3,3,0,0,0,53.91,69.32Z"/><path class="cls-3" d="M47,69.81c-1.3,0-2.35,1.39-2.35,3.09v6.66h4.7V72.9C49.36,71.2,48.31,69.81,47,69.81Z"/><path class="cls-3" d="M41.18,70.51c-1.12,0-2,1.44-2,3.07V80l4-.16V73.58C43.19,72,42.29,70.51,41.18,70.51Z"/><path class="cls-3" d="M36.73,71.5c-.89,0-1.61,1.09-1.61,2.64v6L38.33,80v-5.9C38.33,72.59,37.61,71.5,36.73,71.5Z"/><polygon class="cls-6" points="77.99 47.12 74.59 47.28 74.59 48.36 77.99 48.21 77.99 47.12"/><path class="cls-3" d="M33.3,72.45c-.62,0-1.13,1.3-1.13,2.65v5.22l2.27-.12V75.1C34.44,73.75,33.93,72.45,33.3,72.45Z"/><path class="cls-3" d="M30.54,73.19c-.32,0-.58,1-.58,2.32v5l1.15-.12V75.51C31.11,74.23,30.86,73.19,30.54,73.19Z"/><path class="cls-1" d="M42.35,71.07a1.61,1.61,0,0,0-1.17-.56c-1.12,0-2,1.44-2,3.07V80l2.35-.09V73.58A3.81,3.81,0,0,1,42.35,71.07Z"/><path class="cls-1" d="M48,70.11a1.92,1.92,0,0,0-1-.3c-1.3,0-2.35,1.39-2.35,3.09v6.66h2V72.9A3.26,3.26,0,0,1,48,70.11Z"/><path class="cls-1" d="M54.84,69.5a2.48,2.48,0,0,0-.93-.18,3,3,0,0,0-2.84,3.19v6.87h1.86V72.51A3.18,3.18,0,0,1,54.84,69.5Z"/><path class="cls-3" d="M82.12,87a3.19,3.19,0,0,0-3.05,3.3v9.18l6.1.07V90.28A3.19,3.19,0,0,0,82.12,87Z"/><path class="cls-3" d="M71.54,87a3.19,3.19,0,0,0-3.05,3.3v8.85l6.1.22V90.28A3.18,3.18,0,0,0,71.54,87Z"/><path class="cls-2" d="M127.36,63v-.79l.67-1,1.06,1.07-.55.69Zm18.76,7.7V64s-3.09-2.6-15.38-5.17a90.94,90.94,0,0,0-21.26-2.07,14.76,14.76,0,0,1-.39,2.26c-.22.67-1.12.33-1.39.46a.77.77,0,0,0-.36.47l-3,.32V63ZM123.82,63l-2.3-.33-.1-3.69,2.29.33Zm10.58,1.45-2.3-.59L132,60.16l2.3.59ZM136,64l.55-1.85.78,1.3v.83h-.92Z"/><path class="cls-1" d="M72.14,87.05a2.35,2.35,0,0,0-.6-.07,3.19,3.19,0,0,0-3.05,3.3v8.85l1.2,0V90.28A3.24,3.24,0,0,1,72.14,87.05Z"/><path class="cls-3" d="M62.23,87.11a3.17,3.17,0,0,0-3,3.27v8.23l6.1.38V90.73C65.28,88.93,63.91,87.11,62.23,87.11Z"/><path class="cls-1" d="M63.05,87.24a2.81,2.81,0,0,0-.82-.13,3.17,3.17,0,0,0-3,3.27v8.23l1.64.1V90.38A3.24,3.24,0,0,1,63.05,87.24Z"/><path class="cls-3" d="M53.91,87.11a3,3,0,0,0-2.84,3.19v7.61l5.67.52V90.3A3,3,0,0,0,53.91,87.11Z"/><path class="cls-3" d="M47,86.94c-1.3,0-2.35,1.39-2.35,3.1v7.11l4.7.58V90C49.36,88.33,48.31,86.94,47,86.94Z"/><path class="cls-3" d="M41.18,86.6c-1.12,0-2,1.44-2,3.08v6.56l4,.66V89.68C43.19,88,42.29,86.6,41.18,86.6Z"/><path class="cls-3" d="M36.73,86.6c-.89,0-1.61,1.09-1.61,2.64v6.19l3.21.66V89.24C38.33,87.69,37.61,86.6,36.73,86.6Z"/><path class="cls-3" d="M33.3,86.47c-.62,0-1.13,1.3-1.13,2.65v5.6l2.27.56V89.12C34.44,87.77,33.93,86.47,33.3,86.47Z"/><path class="cls-3" d="M30.54,86.34c-.32,0-.58,1-.58,2.32v5.45l1.15.32V88.66C31.11,87.38,30.86,86.34,30.54,86.34Z"/><path class="cls-1" d="M28.64,59.9v-.32c.1-.13,2.54-3.23,11.3-6.46,8.05-3,23.08-6.5,48.94-6.5V47c-25.76,0-40.73,3.52-48.76,6.46C31.44,56.64,28.66,59.87,28.64,59.9Z"/><path class="cls-1" d="M42.35,87.16a1.61,1.61,0,0,0-1.17-.56c-1.12,0-2,1.44-2,3.08v6.56l2.35.38V89.68A3.85,3.85,0,0,1,42.35,87.16Z"/><path class="cls-1" d="M48,87.24a1.92,1.92,0,0,0-1-.3c-1.3,0-2.35,1.39-2.35,3.1v7.07l2,.28V90A3.27,3.27,0,0,1,48,87.24Z"/><path class="cls-1" d="M54.84,87.29a2.7,2.7,0,0,0-.93-.18,3,3,0,0,0-2.84,3.19v7.61l1.86.17V90.3A3.19,3.19,0,0,1,54.84,87.29Z"/><rect class="cls-5" x="28.25" y="82.29" width="58.94" height="1.1"/><polygon class="cls-9" points="28.25 82.34 87.19 82.34 87.19 79.73 53.35 80.32 28.25 81.23 28.25 82.34"/><rect class="cls-3" x="28.25" y="82.98" width="58.94" height="0.41"/><path class="cls-8" d="M87.19,99.53c39.66,0,55-4.62,58.25-5.79.47-.17.48-.26.48-.26V92.12l-.55-.78V84.12l.75-.73v-2.5l-.75-1.14v-7l.75-.94V70.68c-1.83-1.36-19.05-8.93-58.93-8.93Z"/><path class="cls-3" d="M92.25,68.21a3.18,3.18,0,0,1,3,3.31v7.1H89.2v-7.1A3.19,3.19,0,0,1,92.25,68.21Z"/><path class="cls-3" d="M102.83,68.21a3.19,3.19,0,0,1,3,3.31v7.1h-6.1v-7.1A3.18,3.18,0,0,1,102.83,68.21Z"/><path class="cls-1" d="M102.23,68.28a2.9,2.9,0,0,1,.6-.07,3.19,3.19,0,0,1,3,3.31v7.1h-1.2v-7.1A3.24,3.24,0,0,0,102.23,68.28Z"/><path class="cls-3" d="M112.14,68.7a3.16,3.16,0,0,1,3,3.26v7h-6.1V72A3.16,3.16,0,0,1,112.14,68.7Z"/><path class="cls-1" d="M111.32,68.82a2.81,2.81,0,0,1,.82-.12,3.16,3.16,0,0,1,3,3.26v7h-1.64V72A3.23,3.23,0,0,0,111.32,68.82Z"/><path class="cls-3" d="M120.46,69.32a3,3,0,0,1,2.84,3.19v6.87h-5.67V72.51A3,3,0,0,1,120.46,69.32Z"/><path class="cls-3" d="M127.36,69.81c1.3,0,2.35,1.39,2.35,3.09v6.66H125V72.9C125,71.2,126.06,69.81,127.36,69.81Z"/><path class="cls-3" d="M133.2,70.51c1.11,0,2,1.44,2,3.07V80l-4-.16V73.58C131.18,72,132.08,70.51,133.2,70.51Z"/><path class="cls-3" d="M137.65,71.5c.88,0,1.6,1.09,1.6,2.64v6L136,80v-5.9C136,72.59,136.76,71.5,137.65,71.5Z"/><path class="cls-3" d="M141.07,72.45c.63,0,1.13,1.3,1.13,2.65v5.22l-2.27-.12V75.1C139.93,73.75,140.44,72.45,141.07,72.45Z"/><path class="cls-3" d="M143.83,73.19c.32,0,.58,1,.58,2.32v5l-1.15-.12V75.51C143.26,74.23,143.52,73.19,143.83,73.19Z"/><path class="cls-1" d="M132,71.07a1.63,1.63,0,0,1,1.18-.56c1.11,0,2,1.44,2,3.07V80l-2.36-.09V73.58A3.81,3.81,0,0,0,132,71.07Z"/><path class="cls-1" d="M126.36,70.11a1.86,1.86,0,0,1,1-.3c1.3,0,2.35,1.39,2.35,3.09v6.66h-2V72.9A3.28,3.28,0,0,0,126.36,70.11Z"/><path class="cls-1" d="M119.54,69.5a2.39,2.39,0,0,1,.92-.18,3,3,0,0,1,2.84,3.19v6.87h-1.86V72.51A3.17,3.17,0,0,0,119.54,69.5Z"/><path class="cls-3" d="M92.25,87a3.18,3.18,0,0,1,3,3.3v9.18l-6.1.07V90.28A3.19,3.19,0,0,1,92.25,87Z"/><path class="cls-3" d="M102.83,87a3.19,3.19,0,0,1,3,3.3v8.85l-6.1.22V90.28A3.18,3.18,0,0,1,102.83,87Z"/><path class="cls-1" d="M102.23,87.05a2.35,2.35,0,0,1,.6-.07,3.19,3.19,0,0,1,3,3.3v8.85l-1.2,0V90.28A3.24,3.24,0,0,0,102.23,87.05Z"/><path class="cls-3" d="M112.14,87.11a3.17,3.17,0,0,1,3,3.27v8.23l-6.1.38V90.73C109.09,88.93,110.46,87.11,112.14,87.11Z"/><path class="cls-1" d="M111.32,87.24a2.81,2.81,0,0,1,.82-.13,3.17,3.17,0,0,1,3,3.27v8.23l-1.64.1V90.38A3.22,3.22,0,0,0,111.32,87.24Z"/><path class="cls-3" d="M120.46,87.11a3,3,0,0,1,2.84,3.19v7.61l-5.67.52V90.3A3,3,0,0,1,120.46,87.11Z"/><path class="cls-3" d="M127.36,86.94c1.3,0,2.35,1.39,2.35,3.1v7.11l-4.7.58V90C125,88.33,126.06,86.94,127.36,86.94Z"/><path class="cls-3" d="M133.2,86.6c1.11,0,2,1.44,2,3.08v6.56l-4,.66V89.68C131.18,88,132.08,86.6,133.2,86.6Z"/><path class="cls-3" d="M137.65,86.6c.88,0,1.6,1.09,1.6,2.64v6.19l-3.21.66V89.24C136,87.69,136.76,86.6,137.65,86.6Z"/><path class="cls-3" d="M141.07,86.47c.63,0,1.13,1.3,1.13,2.65v5.6l-2.27.56V89.12C139.93,87.77,140.44,86.47,141.07,86.47Z"/><path class="cls-3" d="M143.83,86.34c.32,0,.58,1,.58,2.32v5.45l-1.15.32V88.66C143.26,87.38,143.52,86.34,143.83,86.34Z"/><path class="cls-1" d="M132,87.16a1.63,1.63,0,0,1,1.18-.56c1.11,0,2,1.44,2,3.08v6.56l-2.36.38V89.68A3.85,3.85,0,0,0,132,87.16Z"/><path class="cls-1" d="M126.36,87.24a1.86,1.86,0,0,1,1-.3c1.3,0,2.35,1.39,2.35,3.1v7.07l-2,.28V90A3.29,3.29,0,0,0,126.36,87.24Z"/><path class="cls-1" d="M119.54,87.29a2.6,2.6,0,0,1,.92-.18,3,3,0,0,1,2.84,3.19v7.61l-1.86.17V90.3A3.18,3.18,0,0,0,119.54,87.29Z"/><rect class="cls-5" x="87.19" y="82.29" width="58.94" height="1.1" transform="translate(233.31 165.68) rotate(180)"/><polygon class="cls-9" points="146.12 82.34 87.19 82.34 87.19 79.73 121.02 80.32 146.12 81.23 146.12 82.34"/><rect class="cls-3" x="87.19" y="82.98" width="58.94" height="0.41" transform="translate(233.31 166.37) rotate(180)"/><rect class="cls-4" x="96.84" y="79.77" width="2.48" height="2.45" transform="translate(196.16 161.98) rotate(180)"/><rect class="cls-10" x="96.39" y="78.62" width="3.39" height="1.19" transform="translate(196.16 158.43) rotate(180)"/><rect class="cls-5" x="97.26" y="67.01" width="1.65" height="11.65"/><rect class="cls-4" x="107.34" y="79.89" width="2.14" height="2.4"/><rect class="cls-10" x="106.95" y="79.03" width="2.93" height="0.86" transform="translate(216.83 158.92) rotate(180)"/><rect class="cls-5" x="107.7" y="67.33" width="1.43" height="11.7"/><rect class="cls-4" x="115.95" y="80.18" width="2.14" height="2.11"/><rect class="cls-10" x="115.55" y="79.41" width="2.93" height="0.77" transform="translate(234.04 159.59) rotate(180)"/><rect class="cls-5" x="96.39" y="83.39" width="3.39" height="0.82" transform="translate(196.16 167.6) rotate(180)"/><polygon class="cls-5" points="97.26 84.21 98.91 84.21 98.91 99.38 97.26 99.42 97.26 84.21"/><rect class="cls-7" x="97.23" y="84.21" width="1.71" height="0.44" transform="translate(196.16 168.86) rotate(180)"/><rect class="cls-5" x="106.9" y="83.39" width="3.03" height="0.82" transform="translate(216.83 167.6) rotate(180)"/><polygon class="cls-5" points="107.68 84.21 109.15 84.21 109.15 98.99 107.68 99.06 107.68 84.21"/><rect class="cls-7" x="107.65" y="84.21" width="1.53" height="0.44" transform="translate(216.83 168.86) rotate(180)"/><rect class="cls-5" x="115.48" y="83.39" width="3.08" height="0.82" transform="translate(234.04 167.6) rotate(180)"/><polygon class="cls-5" points="116.27 84.21 117.77 84.21 117.77 98.43 116.27 98.53 116.27 84.21"/><rect class="cls-7" x="116.24" y="84.21" width="1.56" height="0.44" transform="translate(234.04 168.86) rotate(180)"/><rect class="cls-5" x="123.18" y="83.39" width="2.59" height="0.82" transform="translate(248.95 167.6) rotate(180)"/><polygon class="cls-5" points="123.84 84.21 125.1 84.21 125.1 97.72 123.84 97.83 123.84 84.21"/><rect class="cls-7" x="123.82" y="84.21" width="1.31" height="0.44" transform="translate(248.95 168.86) rotate(180)"/><rect class="cls-5" x="129.68" y="83.39" width="2.12" height="0.82" transform="translate(261.48 167.6) rotate(180)"/><polygon class="cls-5" points="130.22 84.21 131.26 84.21 131.26 96.9 130.22 97.01 130.22 84.21"/><rect class="cls-7" x="130.2" y="84.21" width="1.07" height="0.44" transform="translate(261.48 168.86) rotate(180)"/><rect class="cls-5" x="134.89" y="83.39" width="1.96" height="0.82" transform="translate(271.73 167.6) rotate(180)"/><polygon class="cls-5" points="135.39 84.21 136.34 84.21 136.34 96.03 135.39 96.2 135.39 84.21"/><rect class="cls-7" x="135.37" y="84.21" width="0.99" height="0.44" transform="translate(271.73 168.86) rotate(180)"/><rect class="cls-5" x="139.21" y="83.39" width="1.4" height="0.82" transform="translate(279.83 167.6) rotate(180)"/><polygon class="cls-5" points="139.57 84.21 140.25 84.21 140.25 95.19 139.57 95.36 139.57 84.21"/><rect class="cls-7" x="139.56" y="84.21" width="0.71" height="0.44" transform="translate(279.83 168.86) rotate(180)"/><rect class="cls-5" x="142.19" y="83.39" width="1.4" height="0.82" transform="translate(285.78 167.6) rotate(180)"/><polygon class="cls-5" points="142.55 84.21 143.23 84.21 143.23 94.43 142.55 94.63 142.55 84.21"/><rect class="cls-7" x="142.54" y="84.21" width="0.71" height="0.44" transform="translate(285.78 168.86) rotate(180)"/><rect class="cls-5" x="144.38" y="83.39" width="1.4" height="0.82" transform="translate(290.16 167.6) rotate(180)"/><polygon class="cls-5" points="144.74 84.21 145.42 84.21 145.42 93.75 144.74 93.98 144.74 84.21"/><rect class="cls-7" x="144.72" y="84.21" width="0.71" height="0.44" transform="translate(290.16 168.86) rotate(180)"/><rect class="cls-5" x="116.3" y="67.72" width="1.43" height="11.69"/><rect class="cls-4" x="123.57" y="80.28" width="1.8" height="2.01"/><rect class="cls-10" x="123.24" y="79.55" width="2.47" height="0.73" transform="translate(248.95 159.84) rotate(180)"/><rect class="cls-5" x="123.87" y="68.45" width="1.2" height="11.1"/><rect class="cls-4" x="129.94" y="80.41" width="1.6" height="1.88"/><rect class="cls-10" x="129.65" y="79.73" width="2.19" height="0.68" transform="translate(261.48 160.14) rotate(180)"/><polygon class="cls-5" points="130.21 69.31 131.27 69.38 131.27 79.73 130.21 79.73 130.21 69.31"/><rect class="cls-4" x="135.2" y="80.53" width="1.34" height="1.76"/><rect class="cls-10" x="134.95" y="79.89" width="1.83" height="0.64" transform="translate(271.73 160.42) rotate(180)"/><polygon class="cls-5" points="135.42 70.36 136.31 70.46 136.31 79.89 135.42 79.89 135.42 70.36"/><rect class="cls-4" x="139.41" y="80.67" width="1" height="1.62"/><rect class="cls-10" x="139.23" y="80.08" width="1.37" height="0.59" transform="translate(279.83 160.75) rotate(180)"/><polygon class="cls-5" points="139.58 71.34 140.25 71.48 140.25 80.08 139.58 80.08 139.58 71.34"/><rect class="cls-4" x="142.39" y="80.83" width="1" height="1.46"/><rect class="cls-10" x="142.2" y="80.29" width="1.37" height="0.53" transform="translate(285.78 161.12) rotate(180)"/><polygon class="cls-5" points="142.56 72.27 143.22 72.42 143.22 80.3 142.56 80.3 142.56 72.27"/><rect class="cls-4" x="144.59" y="80.93" width="1" height="1.36"/><polygon class="cls-7" points="142.56 72.27 143.22 72.52 143.22 72.84 142.56 72.63 142.56 72.27"/><rect class="cls-10" x="144.41" y="80.43" width="1.37" height="0.5" transform="translate(290.19 161.36) rotate(180)"/><polygon class="cls-5" points="144.41 72.27 145.56 72.84 145.56 73.46 144.41 72.9 144.41 72.27"/><polygon class="cls-5" points="144.76 73.02 145.43 73.25 145.43 80.43 144.76 80.43 144.76 73.02"/><polygon class="cls-7" points="144.76 73.07 145.43 73.4 145.43 73.74 144.76 73.47 144.76 73.07"/><rect class="cls-4" x="85.95" y="79.79" width="2.48" height="2.5"/><rect class="cls-10" x="85.49" y="78.62" width="3.39" height="1.19"/><rect class="cls-5" x="85.49" y="65.78" width="3.39" height="0.82"/><rect class="cls-5" x="86.36" y="66.6" width="1.65" height="11.98"/><rect class="cls-4" x="75.05" y="79.77" width="2.48" height="2.45"/><rect class="cls-10" x="74.59" y="78.62" width="3.39" height="1.19"/><polygon class="cls-5" points="77.99 65.88 74.59 65.96 74.59 67.01 77.99 67.01 77.99 65.88"/><rect class="cls-5" x="75.46" y="67.01" width="1.65" height="11.65"/><rect class="cls-4" x="64.89" y="79.89" width="2.14" height="2.4"/><rect class="cls-10" x="64.49" y="79.03" width="2.93" height="0.86"/><polygon class="cls-5" points="67.42 66.24 64.49 66.4 64.49 67.33 67.42 67.33 67.42 66.24"/><rect class="cls-5" x="65.24" y="67.33" width="1.43" height="11.7"/><rect class="cls-4" x="56.28" y="80.18" width="2.14" height="2.11"/><rect class="cls-10" x="55.89" y="79.41" width="2.93" height="0.77"/><rect class="cls-7" x="86.33" y="66.6" width="1.71" height="0.44"/><rect class="cls-5" x="85.49" y="83.39" width="3.39" height="0.82"/><rect class="cls-5" x="86.36" y="84.21" width="1.65" height="15.32"/><rect class="cls-7" x="86.33" y="84.21" width="1.71" height="0.44"/><rect class="cls-5" x="74.59" y="83.39" width="3.39" height="0.82"/><polygon class="cls-5" points="77.11 84.21 75.46 84.21 75.46 99.38 77.11 99.42 77.11 84.21"/><rect class="cls-7" x="75.43" y="84.21" width="1.71" height="0.44"/><rect class="cls-5" x="64.45" y="83.39" width="3.03" height="0.82"/><polygon class="cls-5" points="66.69 84.21 65.22 84.21 65.22 98.99 66.69 99.06 66.69 84.21"/><rect class="cls-7" x="65.19" y="84.21" width="1.53" height="0.44"/><rect class="cls-5" x="55.81" y="83.39" width="3.08" height="0.82"/><polygon class="cls-5" points="58.1 84.21 56.6 84.21 56.6 98.43 58.1 98.53 58.1 84.21"/><rect class="cls-7" x="56.58" y="84.21" width="1.56" height="0.44"/><rect class="cls-5" x="48.6" y="83.39" width="2.59" height="0.82"/><polygon class="cls-5" points="50.53 84.21 49.27 84.21 49.27 97.72 50.53 97.83 50.53 84.21"/><rect class="cls-7" x="49.24" y="84.21" width="1.31" height="0.44"/><rect class="cls-5" x="42.57" y="83.39" width="2.12" height="0.82"/><polygon class="cls-5" points="44.15 84.21 43.11 84.21 43.11 96.9 44.15 97.01 44.15 84.21"/><rect class="cls-7" x="43.1" y="84.21" width="1.07" height="0.44"/><rect class="cls-5" x="37.53" y="83.39" width="1.96" height="0.82"/><polygon class="cls-5" points="38.98 84.21 38.03 84.21 38.03 96.03 38.98 96.2 38.98 84.21"/><rect class="cls-7" x="38.01" y="84.21" width="0.99" height="0.44"/><rect class="cls-5" x="33.76" y="83.39" width="1.4" height="0.82"/><polygon class="cls-5" points="34.8 84.21 34.12 84.21 34.12 95.19 34.8 95.36 34.8 84.21"/><rect class="cls-7" x="34.1" y="84.21" width="0.71" height="0.44"/><rect class="cls-5" x="30.78" y="83.39" width="1.4" height="0.82"/><polygon class="cls-5" points="31.82 84.21 31.14 84.21 31.14 94.43 31.82 94.63 31.82 84.21"/><rect class="cls-7" x="31.13" y="84.21" width="0.71" height="0.44"/><rect class="cls-5" x="28.59" y="83.39" width="1.4" height="0.82"/><polygon class="cls-5" points="29.63 84.21 28.95 84.21 28.95 93.75 29.63 93.98 29.63 84.21"/><rect class="cls-7" x="28.94" y="84.21" width="0.71" height="0.44"/><rect class="cls-7" x="75.47" y="67.01" width="1.64" height="0.44"/><rect class="cls-7" x="65.24" y="67.33" width="1.43" height="0.44"/><polygon class="cls-5" points="58.82 66.8 55.89 67.05 55.89 67.72 58.82 67.72 58.82 66.8"/><rect class="cls-5" x="56.64" y="67.72" width="1.43" height="11.69"/><rect class="cls-4" x="49" y="80.28" width="1.8" height="2.01"/><rect class="cls-10" x="48.66" y="79.55" width="2.47" height="0.73"/><polygon class="cls-5" points="51.13 67.55 48.66 67.86 48.66 68.45 51.13 68.45 51.13 67.55"/><rect class="cls-5" x="49.3" y="68.45" width="1.2" height="11.1"/><rect class="cls-4" x="42.83" y="80.41" width="1.6" height="1.88"/><rect class="cls-10" x="42.54" y="79.73" width="2.19" height="0.68"/><polygon class="cls-5" points="44.73 68.44 42.54 68.81 42.54 69.61 44.73 69.28 44.73 68.44"/><polygon class="cls-5" points="44.16 69.31 43.1 69.38 43.1 79.73 44.16 79.73 44.16 69.31"/><rect class="cls-4" x="37.84" y="80.53" width="1.34" height="1.76"/><rect class="cls-10" x="37.59" y="79.89" width="1.83" height="0.64"/><polygon class="cls-5" points="39.42 69.42 37.59 69.83 37.59 70.64 39.42 70.31 39.42 69.42"/><polygon class="cls-5" points="38.95 70.36 38.06 70.46 38.06 79.89 38.95 79.89 38.95 70.36"/><rect class="cls-4" x="33.96" y="80.67" width="1" height="1.62"/><rect class="cls-10" x="33.77" y="80.08" width="1.37" height="0.59"/><polygon class="cls-5" points="35.15 70.46 33.77 70.86 33.77 71.55 35.15 71.26 35.15 70.46"/><polygon class="cls-5" points="34.79 71.34 34.12 71.48 34.12 80.08 34.79 80.08 34.79 71.34"/><rect class="cls-4" x="30.98" y="80.83" width="1" height="1.46"/><rect class="cls-10" x="30.79" y="80.29" width="1.37" height="0.53"/><polygon class="cls-5" points="32.17 71.39 30.79 71.91 30.79 72.63 32.17 72.19 32.17 71.39"/><polygon class="cls-5" points="31.82 72.27 31.15 72.42 31.15 80.3 31.82 80.3 31.82 72.27"/><rect class="cls-4" x="28.78" y="80.93" width="1" height="1.36"/><rect class="cls-7" x="56.64" y="67.72" width="1.43" height="0.44"/><rect class="cls-7" x="49.3" y="68.45" width="1.21" height="0.44"/><polygon class="cls-7" points="44.17 69.34 43.1 69.52 43.1 69.85 44.17 69.7 44.17 69.34"/><polygon class="cls-7" points="38.95 70.39 38.06 70.55 38.06 70.9 38.95 70.77 38.95 70.39"/><polygon class="cls-7" points="34.79 71.34 34.12 71.48 34.12 71.83 34.79 71.7 34.79 71.34"/><polygon class="cls-7" points="31.82 72.27 31.15 72.52 31.15 72.84 31.81 72.63 31.82 72.27"/><rect class="cls-10" x="28.59" y="80.43" width="1.37" height="0.5"/><polygon class="cls-5" points="29.96 72.27 28.81 72.84 28.81 73.46 29.96 72.9 29.96 72.27"/><polygon class="cls-5" points="29.61 73.02 28.94 73.25 28.94 80.43 29.61 80.43 29.61 73.02"/><polygon class="cls-7" points="29.61 73.07 28.94 73.4 28.94 73.74 29.61 73.47 29.61 73.07"/><polygon class="cls-5" points="96.39 65.88 99.78 65.96 99.78 67.01 96.39 67.01 96.39 65.88"/><polygon class="cls-5" points="106.95 66.24 109.88 66.4 109.88 67.33 106.95 67.33 106.95 66.24"/><rect class="cls-7" x="97.26" y="67.01" width="1.64" height="0.44" transform="translate(196.16 134.47) rotate(180)"/><rect class="cls-7" x="107.7" y="67.33" width="1.43" height="0.44" transform="translate(216.83 135.11) rotate(180)"/><polygon class="cls-5" points="115.55 66.8 118.49 67.05 118.49 67.72 115.55 67.72 115.55 66.8"/><polygon class="cls-5" points="123.24 67.55 125.71 67.86 125.71 68.45 123.24 68.45 123.24 67.55"/><polygon class="cls-5" points="129.65 68.44 131.84 68.81 131.84 69.61 129.65 69.28 129.65 68.44"/><polygon class="cls-5" points="134.95 69.42 136.78 69.83 136.78 70.64 134.95 70.31 134.95 69.42"/><polygon class="cls-5" points="139.23 70.46 140.6 70.86 140.6 71.55 139.23 71.26 139.23 70.46"/><polygon class="cls-5" points="142.2 71.39 143.58 71.91 143.58 72.63 142.2 72.19 142.2 71.39"/><rect class="cls-7" x="116.3" y="67.72" width="1.43" height="0.44" transform="translate(234.04 135.89) rotate(180)"/><rect class="cls-7" x="123.87" y="68.45" width="1.21" height="0.44" transform="translate(248.94 137.35) rotate(180)"/><polygon class="cls-7" points="130.2 69.34 131.27 69.52 131.27 69.85 130.21 69.7 130.2 69.34"/><polygon class="cls-7" points="135.42 70.39 136.31 70.55 136.31 70.9 135.42 70.77 135.42 70.39"/><polygon class="cls-7" points="139.58 71.34 140.25 71.48 140.25 71.83 139.58 71.7 139.58 71.34"/><polygon class="cls-7" points="142.56 72.27 143.22 72.52 143.22 72.84 142.56 72.63 142.56 72.27"/><polygon class="cls-5" points="144.41 72.27 145.56 72.84 145.56 73.46 144.41 72.9 144.41 72.27"/><polygon class="cls-7" points="144.76 73.07 145.43 73.4 145.43 73.74 144.76 73.47 144.76 73.07"/><path class="cls-1" d="M134.32,69c-7.8-1.59-22.31-3.5-47.13-3.5S47.85,67.41,40.05,69c-8.48,1.74-11.11,3.48-11.22,3.55l.19.32c-.1,0,2.73-1.8,11.17-3.52,7.78-1.59,22.25-3.48,47-3.48s39.21,1.89,47,3.48c8.44,1.72,11.13,3.47,11.16,3.49l.19-.26C145.42,72.51,142.81,70.74,134.32,69Z"/><polygon class="cls-1" points="122.96 62.85 123.82 62.98 123.71 59.29 122.87 59.17 122.96 62.85"/><polygon class="cls-3" points="133.53 64.21 134.4 64.43 134.29 60.75 133.45 60.53 133.53 64.21"/><polygon class="cls-3" points="140.06 62.48 141.07 62.82 141.07 66.67 140.06 66.24 140.06 62.48"/><polygon class="cls-3" points="144.65 63.67 144.65 66.38 144.99 66.67 144.99 64.01 144.65 63.67"/><polygon class="cls-1" points="127.84 61.51 128.43 62.29 128.43 62.98 128.54 62.98 129.09 62.29 128.03 61.22 127.84 61.51"/><polygon class="cls-3" points="136.88 64.23 137.37 64.23 137.37 63.4 136.88 62.6 136.88 64.23"/><rect class="cls-1" x="75.48" y="22.71" width="0.12" height="24.29"/><rect class="cls-1" x="65.79" y="23.92" width="0.12" height="23.97"/><rect class="cls-1" x="56.59" y="25.37" width="0.12" height="23.84"/><rect class="cls-1" x="43.13" y="31.24" width="0.12" height="21.01"/><rect class="cls-1" x="38.01" y="33.85" width="0.12" height="20.23"/><rect class="cls-1" x="34.08" y="37.28" width="0.12" height="18.74"/><polygon class="cls-1" points="31.22 41.55 31.1 41.64 31.1 57.74 31.22 57.74 31.22 41.55"/><path class="cls-1" d="M28.74,57.87l-.06-.45s3.44-3.49,12.65-7.05c8.47-3.28,23.6-7.19,47.55-7.19v.37c-23.87,0-38.94,3.89-47.39,7.15C32.35,54.23,28.78,57.83,28.74,57.87Z"/><rect class="cls-1" x="28.64" y="48.21" width="0.12" height="11.42"/><rect class="cls-1" x="49.22" y="28.56" width="0.12" height="21.91"/><path class="cls-3" d="M32.85,36.53l.51,1.79c1.28-1.4,5.55-5.91,20.82-11,13.75-4.54,22.42-4.79,24.16-4.75v-.84l-.94-.94C60.32,21.16,38.33,30.21,32.85,36.53Z"/><path class="cls-5" d="M78.16,21.6l-.76-.77c-17.08.33-39.07,9.38-44.55,15.7l.22.75C39.36,31,61.17,22,78.16,21.6Z"/></svg>