<svg id="Layer_1" data-name="Layer 1" xmlns="http://www.w3.org/2000/svg" viewBox="0 0 141.38 123.17"><defs><style>.cls-1{fill:#293748;}</style></defs><path class="cls-1" d="M134.2,13.59l1-3.88s-19.91,9.43-63.64,14.14S17,21.65,17,21.65l2.14,4.41-4.78,3.73v.95s3.24.42,8.83.81l1.4,2.72,2.8.27,1.42,4.34a142.21,142.21,0,0,0,15.32.18v2.77h1.29l-.13,5.63c-9.3.23-16.48.31-16.48.31v1.09h.46v5.2s6.08-.23,15.88-.67l-.49,20.56-11.57-.16V68.3h2.79V65.7a6.83,6.83,0,0,0,1.53-.32,5.25,5.25,0,0,0,1.26-.71,27.38,27.38,0,0,1-4.52-.51,13.52,13.52,0,0,1-3.91-1.34,13.67,13.67,0,0,1-3.92,1.34,27.38,27.38,0,0,1-4.52.51,5.25,5.25,0,0,0,1.26.71,6.83,6.83,0,0,0,1.53.32v2.6h2.8v5.39H25.6V78h1.79V95.71H25.6v4.35h1.79v4.67h5.7v-4.59L44,99.82l-.12,5.12H53l-.14-5.58,5.7-.16v3.5h5.16V99L65.92,99V94.74l-2.2,0V78.44h2.35V74.11L63.71,74V69.68h2.54V67.33A5.9,5.9,0,0,0,67.63,67a4.53,4.53,0,0,0,1.14-.65,23.9,23.9,0,0,1-4.09-.46,12.27,12.27,0,0,1-3.55-1.21,12.27,12.27,0,0,1-3.55,1.21,23.8,23.8,0,0,1-4.09.46,4.53,4.53,0,0,0,1.14.65,5.9,5.9,0,0,0,1.38.29v2.35h2.54v4.45l-6.3-.08-.5-21C58,52.78,65.19,52.43,73,52c8.5-.45,16.61-1,23.59-1.58l-.49,22.48-11.75-.18v-6.1h2.84V63.75a6.39,6.39,0,0,0,1.55-.36A4.94,4.94,0,0,0,90,62.6,25.43,25.43,0,0,1,85.42,62a13.13,13.13,0,0,1-4-1.49,13.28,13.28,0,0,1-4,1.49,25.53,25.53,0,0,1-4.58.56,5,5,0,0,0,1.27.79,6.39,6.39,0,0,0,1.55.36v2.88h2.84v6h-1.8v4.8h1.8V97.08h-1.8v4.77h1.8v5.22h5.79V102l11.13-.36-.13,5.68h9.2l-.13-6.19,5.78-.17v3.9h5.25V100.7l2.24-.07V96l-2.23,0V77.87h2.38V73.1L115.43,73V68.17H118V65.56a5.63,5.63,0,0,0,1.41-.33,4.57,4.57,0,0,0,1.15-.71,22.71,22.71,0,0,1-4.15-.52,11.9,11.9,0,0,1-3.61-1.34A11.76,11.76,0,0,1,109.2,64a22.71,22.71,0,0,1-4.15.52,4.35,4.35,0,0,0,1.15.71,5.63,5.63,0,0,0,1.41.33v2.61h2.57v5l-6.39-.1-.51-23.16c9.71-.84,16-1.52,16-1.52h.48V42.87h0l.44,0V41.63s-7.11.93-17.06,2L103,38.43h1.14V34.9c5.64-.61,9.82-1.14,12.34-1.47h0l2.74-.38,2.48-5.7,3.93-1,.1-.83,8-1.72,1.38-1L132,14.36ZM64.76,38.17l2.33,8.52c-5,.25-10.35.44-15.47.6l-.13-5.46h1.29v-3C56.3,38.63,60.28,38.43,64.76,38.17ZM52.75,95l-.39-16.61,6.19.08V94.86ZM33.09,78.12l11.46.16-.41,17.19-11,.32Zm71.2,18.17-.4-18.48,6.29.09V96.13Zm-20-18.78L96,77.69l-.42,19.12-11.23.36Zm12.5-39.08-.13,5.9c-7,.71-14.7,1.42-22.16,1.93V37.52c8-.56,15.11-1.17,21.15-1.76v2.67Z"/></svg>