<svg id="Layer_1" data-name="Layer 1" xmlns="http://www.w3.org/2000/svg" viewBox="0 0 76.2 128.67"><defs><style>.cls-1{fill:#293748;}</style></defs><rect class="cls-1" x="19.9" y="102.49" width="33.84" height="0.36" transform="translate(10.05 -3.07) rotate(5.52)"/><polygon class="cls-1" points="53.08 109.06 19.25 108.97 18.71 112.76 52.86 112.77 53.08 109.06"/><polygon class="cls-1" points="36.54 112.76 35.04 112.76 36.28 99.89 37.77 100.04 36.54 112.76"/><polygon class="cls-1" points="37.77 100.04 36.28 99.89 36.18 97.69 38.29 97.89 37.77 100.04"/><rect class="cls-1" x="35.84" y="97.02" width="2.87" height="0.77" transform="translate(9.55 -3.13) rotate(5.52)"/><polygon class="cls-1" points="44.09 112.76 42.6 112.76 43.77 100.62 45.26 100.76 44.09 112.76"/><polygon class="cls-1" points="45.26 100.76 43.77 100.62 43.67 98.41 45.78 98.62 45.26 100.76"/><rect class="cls-1" x="43.33" y="97.74" width="2.87" height="0.77" transform="translate(9.65 -3.85) rotate(5.52)"/><polygon class="cls-1" points="49.37 112.76 48.13 112.76 49.25 101.15 50.48 101.27 49.37 112.76"/><polygon class="cls-1" points="50.48 101.27 49.25 101.15 49.2 98.95 50.96 99.12 50.48 101.27"/><rect class="cls-1" x="48.86" y="98.26" width="2.5" height="0.77" transform="translate(9.73 -4.36) rotate(5.52)"/><polygon class="cls-1" points="52.86 112.77 51.7 112.76 52.79 101.49 53.94 101.6 52.86 112.77"/><polygon class="cls-1" points="53.94 101.6 52.79 101.49 52.76 99.29 54.39 99.45 53.94 101.6"/><rect class="cls-1" x="52.51" y="98.59" width="2.03" height="0.77" transform="translate(9.78 -4.69) rotate(5.52)"/><polygon class="cls-1" points="20.91 91 20.53 94.9 22.7 91.57 24.49 95.47 27.37 92.11 29.81 96.3 33.09 92.78 34.63 92.92 37.21 97.01 40.36 93.63 42.06 93.75 44.8 97.75 47.85 94.14 48.76 94.9 50.09 98.34 52.23 94.8 53.16 95.13 54.19 98.65 54.56 94.25 20.91 91"/><path class="cls-1" d="M41.48,93c-4.06-.39-4.17,4-4.17,4l1.42.14s.06-3.14,2.62-2.9,2,3.35,2,3.35l1.43.14S45.54,93.38,41.48,93Z"/><path class="cls-1" d="M48,93.61c-3.08-.29-3.19,4.14-3.19,4.14l1.42.13s.24-3.12,1.65-3,1,3.25,1,3.25l1.24.12S50.92,93.9,48,93.61Z"/><path class="cls-1" d="M52.65,94.06c-2.36-.22-2.55,4.2-2.55,4.2l1.09.1s.25-3.12,1.33-3,.73,3.22.73,3.22l.94.09S54.89,94.28,52.65,94.06Z"/><path class="cls-1" d="M39.07,96.69l2.23-1.83,1.83,2.23L40.9,98.92Zm3.06.3-.93-1.13-1.13.93L41,97.92Z"/><rect class="cls-1" x="44.44" y="6.96" width="1.12" height="21.13" transform="translate(23.23 60.62) rotate(-84.48)"/><rect class="cls-1" x="44.81" y="0.01" width="1.12" height="21.13" transform="translate(30.48 54.71) rotate(-84.48)"/><rect class="cls-1" x="37.52" y="10.24" width="3.11" height="0.52" transform="translate(76.95 24.72) rotate(-174.48)"/><path class="cls-1" d="M39,10.75c1.11.11,1.38,1.57,1.19,3.58S40,16.72,40,16.72l-1.52-.15-1.52-.14L37.18,14C37.37,12,37.92,10.65,39,10.75Zm-1.36,3.17-.24,2.55,2.08.2s.12-1.16.25-2.55,0-2.39-.81-2.46S37.8,12.54,37.66,13.92Z"/><rect class="cls-1" x="35.14" y="10.13" width="1.91" height="0.52" transform="translate(71.01 24.21) rotate(-174.47)"/><path class="cls-1" d="M36.05,10.64c.68.07.8,1.52.6,3.53s-.23,2.38-.23,2.38l-.93-.09-.93-.09s0-.38.23-2.38S35.37,10.58,36.05,10.64Zm-.95,3.21c-.14,1.38-.25,2.55-.25,2.55l1.28.13s.11-1.17.25-2.55,0-2.38-.41-2.43S35.23,12.47,35.1,13.85Z"/><rect class="cls-1" x="41.12" y="10.45" width="4.27" height="0.52" transform="translate(85.29 25.53) rotate(-174.48)"/><path class="cls-1" d="M43.21,11c1.51.14,1.94,1.62,1.75,3.63L44.73,17l-2.09-.2-2.08-.2.23-2.39C41,12.18,41.69,10.81,43.21,11Zm-1.75,3.13-.25,2.55,2.87.28.24-2.55c.14-1.39-.16-2.4-1.2-2.5S41.59,12.71,41.46,14.09Z"/><rect class="cls-1" x="50.61" y="11.51" width="3.11" height="0.52" transform="translate(1.37 -4.97) rotate(5.52)"/><path class="cls-1" d="M53.34,15.6c-.19,2-.23,2.39-.23,2.39l-1.51-.15-1.52-.14s0-.38.23-2.39.74-3.39,1.85-3.29S53.54,13.6,53.34,15.6Zm-1.27-2.67c-.76-.07-1.14.88-1.27,2.26s-.25,2.55-.25,2.55l2.09.2s.11-1.16.25-2.55S52.83,13,52.07,12.93Z"/><rect class="cls-1" x="54.15" y="11.97" width="1.91" height="0.52" transform="translate(1.43 -5.25) rotate(5.52)"/><path class="cls-1" d="M55.7,16c-.2,2-.23,2.38-.23,2.38l-.94-.09-.93-.09s0-.37.23-2.38.59-3.41,1.27-3.35S55.89,14,55.7,16ZM55,13.39c-.47,0-.74.92-.87,2.3l-.25,2.55,1.28.13.25-2.55C55.55,14.44,55.47,13.44,55,13.39Z"/><polygon class="cls-1" points="35.07 6.38 37.39 6.28 40 6.38 42.82 6.57 47.5 7.05 45.84 8.98 44.66 7.37 43.39 9.01 42.48 7.02 41.11 8.79 40.28 6.99 39.05 8.59 38.44 7.03 37.37 8.43 36.92 7 36.07 8.3 35.66 6.97 34.91 8.07 35.07 6.38"/><rect class="cls-1" x="45.1" y="10.52" width="0.51" height="6.5" transform="translate(1.53 -4.3) rotate(5.52)"/><polygon class="cls-1" points="45.42 17.6 44.57 17.52 44.79 16.98 45.3 17.03 45.42 17.6"/><path class="cls-1" d="M35.29,7.68c.11-.33.26-.59.46-.6s.37.59.36,1.17c.13-.59.38-1.21.8-1.2s.53.61.55,1.2c.16-.59.44-1.19.95-1.17s.72.68.75,1.31c.17-.63.49-1.27,1.07-1.25s.81.83.86,1.53c.2-.7.59-1.48,1.29-1.41s1,1,1,1.74c.23-.74.66-1.63,1.4-1.56,1.24.12,1,2.76,1,2.76l-.54,0s.17-1.77-.59-1.85-1,1.84-1,1.84l-.55-.05h0l-.32,0s.06-1.88-.55-1.94-.79,1.94-.79,1.94l-.46,0-.2,0-.35,0s.38-2-.23-2.06-.64,2.1-.64,2.1L39.07,10h-.14l-.39,0s.56-2.08.09-2.13S38.08,10,38.08,10l-.72-.07h-.13l-.37,0s.44-2.48.22-2.23C37,7.73,36.77,10,36.77,10L36,9.92H35.9l-.36,0h-.11l-.31.11L35,10l-.23,0L35,7.07C35.19,7,35.27,7.32,35.29,7.68Z"/><rect class="cls-1" x="42.85" y="9.77" width="0.87" height="0.66" transform="translate(85.4 24.32) rotate(-174.48)"/><rect class="cls-1" x="40.34" y="10.33" width="0.51" height="6.32" transform="translate(79.71 30.81) rotate(-174.48)"/><rect class="cls-1" x="40.5" y="9.67" width="0.87" height="0.66" transform="translate(80.72 23.9) rotate(-174.48)"/><polygon class="cls-1" points="39.81 17.18 40.67 17.23 40.55 16.66 40.04 16.61 39.81 17.18"/><polygon class="cls-1" points="56.87 8.49 54.62 7.94 52.04 7.54 49.23 7.19 44.55 6.76 45.8 8.97 47.27 7.62 48.2 9.48 49.48 7.7 50.48 9.7 51.64 8.09 52.55 9.9 53.44 8.48 54.23 10.06 54.94 8.74 55.52 10.18 56.19 8.96 56.71 10.18 56.87 8.49"/><path class="cls-1" d="M56.41,9.72c0-.34-.14-.62-.34-.67s-.48.51-.57,1.07c0-.6-.14-1.25-.56-1.33s-.63.5-.77,1.08c0-.61-.2-1.25-.7-1.33s-.84.52-1,1.14c0-.65-.24-1.34-.81-1.43s-1,.65-1.14,1.34c-.07-.73-.3-1.57-1-1.64s-1.13.79-1.33,1.51c-.08-.77-.33-1.73-1.08-1.8-1.24-.12-1.51,2.52-1.51,2.52l.53.06s.17-1.78.94-1.71.58,2,.58,2l.55.06h0l.32,0s.31-1.86.92-1.8.4,2.06.4,2.06l.46,0,.2,0,.35,0s0-2,.62-2,.22,2.18.22,2.18l.57.06h.13l.4,0s-.16-2.16.32-2.11.11,2.28.11,2.28l.72.07h.13l.37,0s0-2.52.22-2.23c.06.11-.15,2.37-.15,2.37l.8.08h.07l.36,0h.1l.29.16.16,0,.23,0,.28-2.87C56.63,9.11,56.5,9.37,56.41,9.72Z"/><rect class="cls-1" x="47.66" y="10.23" width="0.87" height="0.66" transform="translate(1.24 -4.58) rotate(5.52)"/><rect class="cls-1" x="45.87" y="10.91" width="4.27" height="0.52" transform="matrix(1, 0.1, -0.1, 1, 1.3, -4.57)"/><rect class="cls-1" x="49.83" y="11.24" width="0.51" height="6.32" transform="translate(1.62 -4.76) rotate(5.53)"/><rect class="cls-1" x="49.99" y="10.59" width="0.87" height="0.66" transform="matrix(1, 0.1, -0.1, 1, 1.29, -4.8)"/><polygon class="cls-1" points="50.15 18.18 49.31 18.06 49.53 17.52 50.04 17.57 50.15 18.18"/><rect class="cls-1" x="51.93" y="10.91" width="0.87" height="0.66" transform="translate(1.33 -4.99) rotate(5.52)"/><rect class="cls-1" x="53.43" y="11.86" width="0.51" height="6.25" transform="translate(1.69 -5.1) rotate(5.53)"/><rect class="cls-1" x="53.67" y="11.87" width="0.27" height="6.25" transform="translate(1.69 -5.1) rotate(5.52)"/><rect class="cls-1" x="53.58" y="11.2" width="0.87" height="0.66" transform="translate(1.36 -5.15) rotate(5.52)"/><polygon class="cls-1" points="53.75 18.74 52.9 18.61 53.13 18.07 53.64 18.12 53.75 18.74"/><rect class="cls-1" x="54.88" y="11.46" width="0.87" height="0.66" transform="translate(1.39 -5.26) rotate(5.52)"/><rect class="cls-1" x="55.69" y="12.34" width="0.51" height="6.17" transform="translate(1.74 -5.31) rotate(5.52)"/><rect class="cls-1" x="55.76" y="12.34" width="0.44" height="6.17" transform="matrix(1, 0.1, -0.1, 1, 1.74, -5.3)"/><rect class="cls-1" x="55.88" y="11.69" width="0.76" height="0.66" transform="translate(1.42 -5.35) rotate(5.51)"/><polygon class="cls-1" points="56.01 19.16 55.17 19.01 55.4 18.48 55.9 18.53 56.01 19.16"/><path class="cls-1" d="M56.45,9.4c-.05-.35-.15-.63-.35-.67s-.47.5-.57,1.07c0-.6-.14-1.26-.56-1.33s-.63.49-.77,1.07c0-.61-.2-1.25-.7-1.33s-.84.53-1,1.14c0-.64-.24-1.33-.81-1.42s-1,.65-1.14,1.33c-.06-.72-.29-1.56-1-1.63s-1.13.79-1.33,1.51c-.08-.77-.33-1.73-1.08-1.8-1.23-.12-1.51,2.52-1.51,2.52l.53.05s.17-1.77.94-1.7.58,2,.58,2l.56.05h0l.31,0s.31-1.86.92-1.8.54,2.07.54,2.07l.32,0,.2,0,.35,0s.13-2,.74-2,.33,2.19.33,2.19l.34,0,.14,0,.39,0s.13-2.13.6-2.08.18,2.29.18,2.29l.38,0h.12l.37,0S54.64,9,54.92,9s0,2.39,0,2.39l.44,0h.07l.36,0s.23-2.16.28-2.15-.18,2.29-.18,2.29l.29,0h.16l.23,0,.28-2.86C56.66,8.79,56.53,9.05,56.45,9.4Z"/><rect class="cls-1" x="38.54" y="9.62" width="0.87" height="0.66" transform="translate(76.81 23.6) rotate(-174.48)"/><rect class="cls-1" x="36.71" y="10.24" width="0.51" height="6.25" transform="translate(72.46 30.23) rotate(-174.47)"/><rect class="cls-1" x="36.71" y="10.23" width="0.27" height="6.25" transform="translate(72.23 30.19) rotate(-174.48)"/><rect class="cls-1" x="36.86" y="9.59" width="0.87" height="0.66" transform="translate(73.46 23.38) rotate(-174.48)"/><polygon class="cls-1" points="36.18 17.04 37.03 17.07 36.91 16.5 36.41 16.45 36.18 17.04"/><rect class="cls-1" x="35.54" y="9.59" width="0.87" height="0.66" transform="translate(70.82 23.26) rotate(-174.48)"/><rect class="cls-1" x="45.27" y="9.87" width="0.87" height="0.66" transform="translate(1.19 -4.35) rotate(5.52)"/><rect class="cls-1" x="34.4" y="10.28" width="0.51" height="6.17" transform="translate(67.86 30.01) rotate(-174.49)"/><rect class="cls-1" x="34.4" y="10.28" width="0.44" height="6.17" transform="translate(67.79 30) rotate(-174.48)"/><rect class="cls-1" x="34.61" y="9.63" width="0.76" height="0.66" transform="translate(68.87 23.24) rotate(-174.48)"/><polygon class="cls-1" points="33.87 17.02 34.73 17.04 34.61 16.47 34.1 16.42 33.87 17.02"/><path class="cls-1" d="M35.32,7.36c.11-.33.26-.59.47-.6s.37.59.35,1.17c.14-.59.38-1.21.8-1.21s.53.61.55,1.21c.16-.59.44-1.19.95-1.17s.72.67.75,1.31c.17-.63.49-1.27,1.07-1.25s.81.82.86,1.53c.2-.7.59-1.48,1.29-1.41s1,1,1,1.74c.23-.75.66-1.64,1.4-1.57,1.24.12,1,2.77,1,2.77l-.54-.05s.18-1.78-.59-1.85-1,1.84-1,1.84l-.55-.05h0l-.32,0s0-1.88-.56-1.94-.93,1.93-.93,1.93l-.32,0-.19,0-.36,0s.27-2-.34-2.06-.75,2.09-.75,2.09l-.34,0-.14,0-.39,0s.28-2.12-.19-2.16-.62,2.21-.62,2.21l-.37,0h-.13l-.37,0s.29-2.29,0-2.26-.45,2.35-.45,2.35L36,9.59h-.06l-.36,0s.19-2.15.14-2.16-.27,2.28-.27,2.28l-.29,0H35l-.23,0L35,6.74C35.22,6.72,35.3,7,35.32,7.36Z"/><path class="cls-1" d="M57.09,8.87a107.73,107.73,0,0,0-22.3-2.15c-.07-.2-.13-.41-.2-.61A108.5,108.5,0,0,1,57.4,8.32Z"/><path class="cls-1" d="M57,7.62A108.14,108.14,0,0,0,35.1,5.5l-.51.61A108.5,108.5,0,0,1,57.4,8.32Z"/><path class="cls-1" d="M49.77,15.06c-.2,2-.23,2.38-.23,2.38l-2.09-.2L45.37,17s0-.38.23-2.39.9-3.37,2.42-3.23S50,13.05,49.77,15.06Zm-1.84-2.73c-1-.1-1.53.84-1.67,2.22L46,17.1l2.87.28.24-2.55C49.27,13.45,49,12.43,47.93,12.33Z"/><path class="cls-1" d="M46.27,97.39l1.54-1.9L49,97.65l-1.54,1.9Zm2,.2-.58-1.1-.79,1,.59,1.1Z"/><path class="cls-1" d="M51.27,97.87l1.12-1.94.73,2.12L52,100Zm1.4.14-.37-1.08-.57,1L52.1,99Z"/><polygon class="cls-1" points="27.47 112.76 28.98 112.76 30.27 99.31 28.79 99.17 27.47 112.76"/><polygon class="cls-1" points="28.79 99.17 30.27 99.31 30.8 97.17 28.68 96.96 28.79 99.17"/><rect class="cls-1" x="28.35" y="96.3" width="2.87" height="0.77" transform="translate(50.11 195.78) rotate(-174.47)"/><polygon class="cls-1" points="22.2 112.76 23.45 112.76 24.8 98.78 23.56 98.66 22.2 112.76"/><polygon class="cls-1" points="23.56 98.66 24.8 98.78 25.27 96.63 23.51 96.46 23.56 98.66"/><rect class="cls-1" x="23.18" y="95.78" width="2.5" height="0.77" transform="translate(39.49 194.23) rotate(-174.48)"/><polygon class="cls-1" points="30.69 17.61 33.69 17.57 37.08 17.74 40.75 18.02 46.83 18.63 44.73 20.52 43.16 18.87 41.56 20.48 40.31 18.46 38.59 20.2 37.47 18.36 35.91 19.94 35.08 18.36 33.72 19.73 33.1 18.28 32.04 19.56 31.46 18.22 30.52 19.3 30.69 17.61"/><rect class="cls-1" x="43.91" y="22.06" width="0.67" height="6.5" transform="translate(2.64 -4.14) rotate(5.52)"/><polygon class="cls-1" points="44.43 29.16 43.33 29.05 43.6 28.52 44.26 28.58 44.43 29.16"/><path class="cls-1" d="M31,18.91c.13-.32.32-.58.59-.58s.5.6.5,1.18c.15-.58.45-1.2,1-1.18s.71.62.75,1.22c.18-.59.53-1.18,1.2-1.15s1,.7,1,1.34c.2-.62.59-1.26,1.35-1.22s1.07.85,1.16,1.56c.24-.7.72-1.47,1.63-1.38s1.28,1,1.38,1.77c.27-.74.8-1.62,1.77-1.53,1.61.16,1.38,2.81,1.38,2.81L44,21.68s.17-1.78-.83-1.87S42,21.63,42,21.63l-.72-.07h0l-.41,0s0-1.88-.78-2-1,1.92-1,1.92l-.6,0-.25,0-.46,0s.44-2-.36-2.07c-.63-.05-.76,2.09-.76,2.09L36,21.3l-.17,0-.52-.05s.68-2.07.06-2.13-.64,2.21-.64,2.21l-1-.09-.16,0-.48,0s.5-2.48.21-2.24A19.62,19.62,0,0,0,33,21.28l-1.05-.1h-.09l-.46-.05h-.14l-.4.09-.21,0-.3,0,.28-2.86C30.86,18.27,31,18.55,31,18.91Z"/><rect class="cls-1" x="40.78" y="21.89" width="0.67" height="6.39" transform="translate(79.62 54.02) rotate(-174.47)"/><rect class="cls-1" x="40.88" y="21.24" width="1.14" height="0.66" transform="matrix(-1, -0.1, 0.1, -1, 80.64, 47.03)"/><polygon class="cls-1" points="40.2 28.78 41.3 28.87 41.13 28.3 40.47 28.23 40.2 28.78"/><rect class="cls-1" x="37.73" y="21.73" width="0.67" height="6.32" transform="translate(73.55 53.32) rotate(-174.48)"/><rect class="cls-1" x="37.83" y="21.08" width="1.14" height="0.66" transform="translate(74.55 46.42) rotate(-174.47)"/><polygon class="cls-1" points="37.15 28.57 38.25 28.64 38.09 28.07 37.42 28 37.15 28.57"/><rect class="cls-1" x="35.18" y="21.62" width="0.67" height="6.29" transform="translate(68.48 52.83) rotate(-174.48)"/><rect class="cls-1" x="35.18" y="21.59" width="0.18" height="6.29" transform="translate(68.01 52.74) rotate(-174.51)"/><polygon class="cls-1" points="59.03 20.35 56.09 19.73 52.73 19.25 49.08 18.82 42.99 18.26 44.68 20.51 46.55 19.2 47.81 21.09 49.42 19.34 50.77 21.37 52.23 19.79 53.45 21.63 54.58 20.24 55.64 21.84 56.53 20.55 57.33 22.01 58.15 20.8 58.87 22.04 59.03 20.35"/><path class="cls-1" d="M58.47,21.57c-.07-.35-.2-.63-.47-.68s-.6.49-.71,1.06c0-.6-.21-1.27-.76-1.36s-.81.48-1,1.06c-.07-.61-.3-1.26-1-1.35s-1.07.5-1.25,1.11c-.08-.65-.34-1.35-1.09-1.45s-1.22.62-1.44,1.3c-.11-.73-.43-1.58-1.34-1.66s-1.45.75-1.69,1.47c-.13-.77-.48-1.74-1.45-1.83-1.61-.16-1.89,2.48-1.89,2.48l.7.07s.17-1.78,1.17-1.68.81,2,.81,2l.71.07h0l.42,0s.34-1.85,1.14-1.77.58,2.07.58,2.07l.6.06.25,0,.46,0s0-2,.75-2c.62.07.35,2.2.35,2.2l.74.07.17,0,.51.05s-.26-2.17.35-2.11.21,2.29.21,2.29l.95.09.16,0,.48.05s0-2.53.22-2.24a19.83,19.83,0,0,1-.12,2.38l1,.1h.09l.46,0,.14,0,.38.17.21,0,.3,0L59,21C58.73,21,58.57,21.22,58.47,21.57Z"/><rect class="cls-1" x="47.03" y="22.5" width="0.67" height="6.39" transform="translate(2.69 -4.44) rotate(5.52)"/><rect class="cls-1" x="47.14" y="21.84" width="1.14" height="0.66" transform="translate(2.36 -4.49) rotate(5.52)"/><polygon class="cls-1" points="47.55 29.49 46.45 29.37 46.73 28.84 47.39 28.9 47.55 29.49"/><rect class="cls-1" x="50.06" y="22.92" width="0.67" height="6.32" transform="translate(2.74 -4.73) rotate(5.52)"/><rect class="cls-1" x="50.17" y="22.27" width="1.14" height="0.66" transform="translate(2.41 -4.78) rotate(5.52)"/><polygon class="cls-1" points="50.59 29.87 49.49 29.73 49.76 29.2 50.42 29.26 50.59 29.87"/><rect class="cls-1" x="52.59" y="23.3" width="0.67" height="6.29" transform="translate(2.79 -4.97) rotate(5.53)"/><rect class="cls-1" x="53.08" y="23.32" width="0.18" height="6.29" transform="translate(2.81 -5.02) rotate(5.55)"/><rect class="cls-1" x="52.69" y="22.65" width="1.14" height="0.66" transform="translate(2.46 -5.02) rotate(5.52)"/><polygon class="cls-1" points="53.13 30.22 52.01 30.08 52.29 29.55 52.95 29.61 53.13 30.22"/><rect class="cls-1" x="54.74" y="23.64" width="0.67" height="6.25" transform="translate(2.83 -5.17) rotate(5.52)"/><rect class="cls-1" x="55.06" y="23.66" width="0.35" height="6.25" transform="translate(2.83 -5.19) rotate(5.52)"/><rect class="cls-1" x="54.84" y="22.99" width="1.14" height="0.66" transform="translate(2.5 -5.22) rotate(5.52)"/><polygon class="cls-1" points="55.27 30.54 54.17 30.38 54.44 29.85 55.1 29.91 55.27 30.54"/><rect class="cls-1" x="56.43" y="23.94" width="0.67" height="6.22" transform="translate(2.86 -5.33) rotate(5.52)"/><rect class="cls-1" x="56.63" y="23.95" width="0.47" height="6.22" transform="translate(2.87 -5.35) rotate(5.52)"/><rect class="cls-1" x="56.53" y="23.28" width="1.14" height="0.66" transform="translate(2.54 -5.39) rotate(5.53)"/><polygon class="cls-1" points="56.96 30.81 55.86 30.64 56.13 30.11 56.8 30.17 56.96 30.81"/><rect class="cls-1" x="57.69" y="24.19" width="0.67" height="6.17" transform="translate(2.89 -5.45) rotate(5.52)"/><rect class="cls-1" x="57.78" y="24.2" width="0.58" height="6.17" transform="translate(2.89 -5.46) rotate(5.52)"/><rect class="cls-1" x="57.84" y="23.54" width="0.99" height="0.66" transform="matrix(1, 0.1, -0.1, 1, 2.57, -5.51)"/><polygon class="cls-1" points="58.22 31.03 57.12 30.85 57.4 30.32 58.06 30.38 58.22 31.03"/><path class="cls-1" d="M58.5,21.25c-.07-.35-.2-.63-.47-.69s-.6.5-.71,1.06c0-.6-.21-1.26-.76-1.35s-.81.48-1,1.06c-.06-.62-.29-1.26-1-1.36s-1.07.51-1.25,1.12c-.08-.65-.34-1.35-1.09-1.45s-1.22.62-1.44,1.3c-.1-.73-.43-1.58-1.34-1.67s-1.45.76-1.69,1.48c-.13-.78-.48-1.74-1.45-1.84-1.6-.15-1.89,2.49-1.89,2.49l.7.07s.17-1.78,1.17-1.68.81,2,.81,2l.72.07h0l.41,0s.34-1.85,1.14-1.78.76,2.1.76,2.1l.42,0,.25,0,.46,0s.1-2,.9-1.95.49,2.21.49,2.21l.45.05h.17l.51.05s.11-2.13.73-2.07.29,2.3.29,2.3l.49.05.16,0L56,23s.13-2.29.5-2.2.05,2.39.05,2.39l.58.06h.09l.46,0s.24-2.15.3-2.14-.16,2.29-.16,2.29l.38,0,.21,0,.3,0L59,20.71C58.76,20.64,58.6,20.9,58.5,21.25Z"/><rect class="cls-1" x="35.28" y="20.96" width="1.14" height="0.66" transform="translate(69.48 45.94) rotate(-174.48)"/><polygon class="cls-1" points="34.58 28.43 35.71 28.5 35.54 27.93 34.88 27.86 34.58 28.43"/><rect class="cls-1" x="33" y="21.54" width="0.67" height="6.25" transform="matrix(-1, -0.1, 0.1, -1, 64.15, 52.42)"/><rect class="cls-1" x="33.01" y="21.52" width="0.35" height="6.25" transform="translate(63.84 52.38) rotate(-174.48)"/><rect class="cls-1" x="33.1" y="20.89" width="1.14" height="0.66" transform="translate(65.14 45.58) rotate(-174.48)"/><polygon class="cls-1" points="32.43 28.33 33.53 28.38 33.37 27.81 32.7 27.75 32.43 28.33"/><rect class="cls-1" x="31.29" y="21.51" width="0.67" height="6.22" transform="translate(60.73 52.16) rotate(-174.48)"/><rect class="cls-1" x="31.29" y="21.5" width="0.47" height="6.22" transform="translate(60.54 52.13) rotate(-174.48)"/><rect class="cls-1" x="31.39" y="20.85" width="1.14" height="0.66" transform="translate(61.72 45.35) rotate(-174.48)"/><polygon class="cls-1" points="30.71 28.28 31.82 28.32 31.66 27.74 30.99 27.68 30.71 28.28"/><rect class="cls-1" x="44.02" y="21.41" width="1.14" height="0.66" transform="translate(2.3 -4.19) rotate(5.52)"/><rect class="cls-1" x="30.01" y="21.52" width="0.67" height="6.17" transform="translate(58.18 52.01) rotate(-174.48)"/><rect class="cls-1" x="30.01" y="21.51" width="0.58" height="6.17" transform="translate(58.1 52) rotate(-174.48)"/><rect class="cls-1" x="30.19" y="20.86" width="0.99" height="0.66" transform="translate(59.19 45.25) rotate(-174.47)"/><polygon class="cls-1" points="29.44 28.24 30.55 28.28 30.38 27.71 29.72 27.64 29.44 28.24"/><path class="cls-1" d="M31,18.59c.14-.33.32-.58.59-.58s.5.6.5,1.18c.15-.59.45-1.2,1-1.19s.71.63.75,1.23c.18-.59.53-1.18,1.2-1.15s1,.7,1,1.33c.2-.62.59-1.25,1.35-1.21s1.07.84,1.16,1.55c.24-.69.72-1.46,1.64-1.38s1.27,1,1.37,1.78c.27-.74.8-1.62,1.77-1.53,1.61.16,1.38,2.8,1.38,2.8l-.69-.06s.17-1.78-.83-1.88-1.18,1.82-1.18,1.82l-.72-.07h0l-.41,0s0-1.89-.78-2S39,21.13,39,21.13l-.42,0-.25,0L37.86,21s.29-2-.51-2.07-.9,2.07-.9,2.07L36,21l-.17,0-.52-.05s.31-2.12-.31-2.17-.73,2.2-.73,2.2l-.49,0-.16,0-.48-.05s.3-2.28-.07-2.26-.52,2.34-.52,2.34L32,20.85h-.08l-.47,0s.19-2.16.12-2.16-.28,2.28-.28,2.28l-.38,0-.21,0-.3,0L30.65,18C30.89,18,31,18.23,31,18.59Z"/><path class="cls-1" d="M59.32,20.74a182,182,0,0,0-29-2.8l-.27-.62A183.12,183.12,0,0,1,59.7,20.19Z"/><path class="cls-1" d="M59.19,19.48A184.1,184.1,0,0,0,30.7,16.72l-.65.6A183.12,183.12,0,0,1,59.7,20.19Z"/><polygon class="cls-1" points="29.25 29.17 32.32 29.13 35.79 29.3 39.54 29.59 45.75 30.21 43.61 32.14 42 30.45 40.36 32.1 39.09 30.04 37.33 31.81 36.18 29.94 34.59 31.55 33.74 29.93 32.35 31.33 31.72 29.85 30.64 31.16 30.05 29.79 29.09 30.89 29.25 29.17"/><rect class="cls-1" x="42.77" y="33.72" width="0.68" height="6.65" transform="translate(3.77 -3.98) rotate(5.53)"/><polygon class="cls-1" points="43.3 40.97 42.17 40.86 42.45 40.32 43.13 40.38 43.3 40.97"/><path class="cls-1" d="M29.58,30.5c.13-.33.32-.59.6-.6s.5.62.5,1.21c.16-.6.47-1.23,1-1.21s.72.64.77,1.25c.18-.6.54-1.2,1.22-1.17s1,.71,1,1.36c.21-.63.61-1.28,1.38-1.24s1.1.86,1.19,1.59c.25-.71.74-1.5,1.67-1.41s1.3,1,1.4,1.81c.28-.75.83-1.65,1.82-1.56,1.64.16,1.41,2.87,1.41,2.87l-.71-.07s.17-1.82-.85-1.92-1.21,1.86-1.21,1.86l-.73-.07h0l-.42,0s0-1.92-.79-2-1,2-1,2l-.62-.06L37,33l-.46,0s.44-2-.37-2.11c-.64-.06-.78,2.13-.78,2.13l-.76-.07-.18,0L34,32.87s.69-2.12.06-2.18c-.48,0-.66,2.26-.66,2.26l-1-.09-.17,0-.49-.05s.51-2.53.22-2.28a18.68,18.68,0,0,0-.35,2.41l-1.06-.11h-.09l-.48,0-.14,0-.41.1-.21,0-.31,0,.29-2.93C29.43,29.84,29.54,30.13,29.58,30.5Z"/><rect class="cls-1" x="39.57" y="33.54" width="0.68" height="6.53" transform="translate(76.09 77.29) rotate(-174.47)"/><rect class="cls-1" x="39.68" y="32.88" width="1.16" height="0.68" transform="translate(77.13 70.15) rotate(-174.48)"/><polygon class="cls-1" points="38.98 40.59 40.1 40.68 39.93 40.09 39.26 40.03 38.98 40.59"/><rect class="cls-1" x="36.45" y="33.38" width="0.68" height="6.46" transform="translate(69.88 76.59) rotate(-174.47)"/><rect class="cls-1" x="36.55" y="32.71" width="1.16" height="0.68" transform="matrix(-1, -0.1, 0.1, -1, 70.91, 69.52)"/><polygon class="cls-1" points="35.86 40.37 36.99 40.44 36.82 39.85 36.14 39.79 35.86 40.37"/><rect class="cls-1" x="33.85" y="33.26" width="0.68" height="6.43" transform="translate(64.7 76.08) rotate(-174.47)"/><rect class="cls-1" x="33.85" y="33.24" width="0.18" height="6.43" transform="translate(64.18 76.03) rotate(-174.44)"/><polygon class="cls-1" points="58.22 31.97 55.22 31.34 51.78 30.85 48.05 30.41 41.83 29.83 43.56 32.14 45.47 30.79 46.75 32.72 48.4 30.93 49.78 33.02 51.27 31.4 52.52 33.28 53.67 31.86 54.76 33.5 55.67 32.17 56.48 33.66 57.32 32.42 58.05 33.7 58.22 31.97"/><path class="cls-1" d="M57.65,33.21c-.07-.35-.21-.64-.48-.69s-.61.5-.73,1.08c0-.61-.22-1.29-.77-1.38s-.83.49-1,1.08c-.07-.63-.31-1.29-1-1.39s-1.09.52-1.27,1.14c-.09-.66-.35-1.37-1.12-1.48s-1.24.64-1.47,1.33c-.11-.75-.44-1.61-1.37-1.7S47,32,46.74,32.71c-.13-.8-.49-1.78-1.47-1.88-1.65-.16-1.94,2.54-1.94,2.54l.71.07s.18-1.82,1.2-1.72.83,2.06.83,2.06l.73.07h0l.42,0s.35-1.89,1.17-1.81.59,2.12.59,2.12l.61.06.26,0,.47,0s0-2.09.77-2c.64.07.35,2.24.35,2.24l.76.08h.18l.52.05s-.27-2.21.36-2.15.21,2.34.21,2.34l1,.1h.17l.49,0s0-2.58.22-2.28a20.7,20.7,0,0,1-.12,2.43l1.06.1h.09l.48,0,.14,0,.38.17.22,0,.3,0,.28-2.93C57.92,32.6,57.76,32.86,57.65,33.21Z"/><rect class="cls-1" x="45.96" y="34.16" width="0.68" height="6.53" transform="translate(3.82 -4.28) rotate(5.53)"/><rect class="cls-1" x="46.07" y="33.49" width="1.16" height="0.68" transform="matrix(1, 0.1, -0.1, 1, 3.48, -4.34)"/><polygon class="cls-1" points="46.49 41.31 45.37 41.19 45.65 40.64 46.32 40.71 46.49 41.31"/><rect class="cls-1" x="49.06" y="34.6" width="0.68" height="6.46" transform="translate(3.87 -4.58) rotate(5.53)"/><rect class="cls-1" x="49.16" y="33.93" width="1.16" height="0.68" transform="translate(3.53 -4.63) rotate(5.52)"/><polygon class="cls-1" points="49.59 41.7 48.47 41.55 48.75 41.01 49.43 41.08 49.59 41.7"/><rect class="cls-1" x="51.64" y="34.98" width="0.68" height="6.43" transform="translate(3.92 -4.83) rotate(5.53)"/><rect class="cls-1" x="52.14" y="35.01" width="0.18" height="6.43" transform="translate(3.95 -4.88) rotate(5.56)"/><rect class="cls-1" x="51.74" y="34.32" width="1.16" height="0.68" transform="matrix(1, 0.1, -0.1, 1, 3.58, -4.88)"/><polygon class="cls-1" points="52.19 42.06 51.05 41.91 51.33 41.37 52.01 41.43 52.19 42.06"/><rect class="cls-1" x="53.84" y="35.33" width="0.68" height="6.39" transform="translate(3.96 -5.04) rotate(5.53)"/><rect class="cls-1" x="54.16" y="35.35" width="0.36" height="6.39" transform="translate(3.98 -5.07) rotate(5.54)"/><rect class="cls-1" x="53.94" y="34.66" width="1.16" height="0.68" transform="matrix(1, 0.1, -0.1, 1, 3.62, -5.09)"/><polygon class="cls-1" points="54.38 42.38 53.26 42.22 53.53 41.67 54.21 41.74 54.38 42.38"/><rect class="cls-1" x="55.57" y="35.63" width="0.68" height="6.35" transform="translate(4 -5.2) rotate(5.53)"/><rect class="cls-1" x="55.77" y="35.64" width="0.48" height="6.35" transform="matrix(1, 0.1, -0.1, 1, 4, -5.21)"/><rect class="cls-1" x="55.67" y="34.97" width="1.16" height="0.68" transform="translate(3.66 -5.25) rotate(5.53)"/><polygon class="cls-1" points="56.1 42.66 54.98 42.48 55.26 41.94 55.94 42.01 56.1 42.66"/><rect class="cls-1" x="56.85" y="35.89" width="0.68" height="6.31" transform="matrix(1, 0.1, -0.1, 1, 4.03, -5.33)"/><rect class="cls-1" x="56.94" y="35.9" width="0.59" height="6.31" transform="translate(4.03 -5.33) rotate(5.52)"/><rect class="cls-1" x="57.01" y="35.23" width="1.01" height="0.68" transform="translate(3.69 -5.37) rotate(5.52)"/><polygon class="cls-1" points="57.39 42.88 56.27 42.7 56.55 42.16 57.23 42.22 57.39 42.88"/><path class="cls-1" d="M57.68,32.88c-.07-.35-.21-.64-.48-.7s-.61.51-.72,1.09c0-.61-.22-1.29-.78-1.38s-.83.49-1,1.08c-.07-.63-.3-1.29-1-1.39s-1.09.52-1.27,1.14c-.08-.66-.35-1.37-1.12-1.48s-1.24.64-1.47,1.33c-.1-.75-.43-1.61-1.37-1.7s-1.48.77-1.72,1.51c-.13-.8-.49-1.78-1.48-1.88C43.65,30.34,43.36,33,43.36,33l.71.07s.18-1.82,1.2-1.72.83,2.06.83,2.06l.73.07h0l.43,0s.35-1.89,1.16-1.81.78,2.14.78,2.14l.43,0,.25,0,.47.05s.11-2.07.92-2,.51,2.26.51,2.26l.45.05h.18l.52,0s.11-2.18.74-2.11.31,2.35.31,2.35l.49,0h.17l.49,0s.14-2.35.51-2.25.06,2.44.06,2.44l.59.06h.09l.48,0s.23-2.19.3-2.19S57,35.17,57,35.17l.38,0,.22,0,.3,0,.29-2.93C58,32.27,57.79,32.53,57.68,32.88Z"/><rect class="cls-1" x="33.95" y="32.59" width="1.16" height="0.68" transform="translate(65.73 69.04) rotate(-174.48)"/><polygon class="cls-1" points="33.24 40.22 34.38 40.3 34.22 39.71 33.54 39.65 33.24 40.22"/><rect class="cls-1" x="31.62" y="33.18" width="0.68" height="6.39" transform="translate(60.27 75.67) rotate(-174.47)"/><rect class="cls-1" x="31.62" y="33.17" width="0.36" height="6.39" transform="translate(59.96 75.62) rotate(-174.47)"/><rect class="cls-1" x="31.72" y="32.52" width="1.16" height="0.68" transform="translate(61.29 68.67) rotate(-174.47)"/><polygon class="cls-1" points="31.03 40.12 32.16 40.18 31.99 39.59 31.32 39.53 31.03 40.12"/><rect class="cls-1" x="29.87" y="33.15" width="0.68" height="6.35" transform="translate(56.78 75.39) rotate(-174.47)"/><rect class="cls-1" x="29.87" y="33.14" width="0.48" height="6.35" transform="matrix(-1, -0.1, 0.1, -1, 56.59, 75.37)"/><rect class="cls-1" x="29.97" y="32.48" width="1.16" height="0.68" transform="translate(57.8 68.43) rotate(-174.48)"/><polygon class="cls-1" points="29.28 40.07 30.41 40.11 30.24 39.52 29.57 39.46 29.28 40.07"/><rect class="cls-1" x="42.88" y="33.05" width="1.16" height="0.68" transform="translate(3.41 -4.02) rotate(5.52)"/><rect class="cls-1" x="28.56" y="33.16" width="0.68" height="6.31" transform="translate(54.18 75.24) rotate(-174.48)"/><rect class="cls-1" x="28.56" y="33.15" width="0.59" height="6.31" transform="translate(54.09 75.23) rotate(-174.48)"/><rect class="cls-1" x="28.75" y="32.49" width="1.01" height="0.68" transform="translate(55.21 68.33) rotate(-174.48)"/><polygon class="cls-1" points="27.98 40.04 29.11 40.07 28.94 39.49 28.26 39.42 27.98 40.04"/><path class="cls-1" d="M29.61,30.17c.13-.33.32-.59.6-.6s.51.62.51,1.21c.16-.6.46-1.23,1-1.21s.72.64.77,1.25c.19-.6.54-1.2,1.22-1.17s1,.71,1,1.36c.21-.63.61-1.28,1.38-1.24s1.1.86,1.19,1.59c.25-.71.74-1.5,1.67-1.41s1.31,1,1.41,1.81c.28-.75.82-1.65,1.81-1.56,1.64.16,1.41,2.87,1.41,2.87L42.92,33s.17-1.82-.85-1.92-1.2,1.86-1.2,1.86l-.74-.07h0l-.42,0s0-1.92-.79-2-1.18,2-1.18,2l-.42,0-.26,0-.47,0s.29-2-.52-2.13-.93,2.12-.93,2.12l-.46,0-.17,0L34,32.54s.31-2.16-.32-2.22-.75,2.25-.75,2.25l-.49,0-.17,0-.49,0s.31-2.33-.07-2.31-.53,2.39-.53,2.39l-.59-.06h-.09l-.47,0s.18-2.21.12-2.21-.29,2.33-.29,2.33l-.38,0-.22,0-.31,0,.29-2.93C29.46,29.51,29.57,29.8,29.61,30.17Z"/><path class="cls-1" d="M58.52,32.37A186.54,186.54,0,0,0,28.88,29.5l-.27-.63a189,189,0,0,1,30.3,2.93Z"/><path class="cls-1" d="M58.38,31.08a187.07,187.07,0,0,0-29.11-2.82l-.66.61a189,189,0,0,1,30.3,2.93Z"/><polygon class="cls-1" points="27.81 40.95 30.94 40.9 34.48 41.09 38.3 41.37 44.65 42.01 42.47 43.98 40.82 42.26 39.15 43.95 37.85 41.83 36.06 43.65 34.88 41.73 33.26 43.38 32.39 41.72 30.97 43.15 30.32 41.65 29.22 42.98 28.61 41.58 27.64 42.71 27.81 40.95"/><rect class="cls-1" x="41.61" y="45.59" width="0.69" height="6.79" transform="translate(4.91 -3.81) rotate(5.53)"/><polygon class="cls-1" points="42.15 53 41 52.89 41.28 52.33 41.98 52.4 42.15 53"/><path class="cls-1" d="M28.14,42.31c.13-.34.33-.61.61-.61s.52.63.52,1.23c.16-.61.47-1.25,1.05-1.23s.73.65.78,1.27c.19-.61.55-1.23,1.24-1.2s1,.73,1.06,1.4c.21-.65.62-1.31,1.41-1.27s1.12.88,1.21,1.62c.25-.73.75-1.53,1.71-1.44s1.33,1.07,1.43,1.85c.29-.77.84-1.69,1.85-1.59,1.68.16,1.44,2.92,1.44,2.92l-.72-.07s.18-1.85-.87-1.95-1.23,1.9-1.23,1.9l-.75-.07h0l-.43,0s0-2-.81-2.05-1,2-1,2L36,44.92l-.27,0-.48,0s.46-2.09-.37-2.16c-.66,0-.8,2.18-.8,2.18l-.77-.07-.18,0-.54-.05s.7-2.17.06-2.23c-.48,0-.67,2.31-.67,2.31l-1-.1h-.18l-.5-.05s.53-2.59.23-2.33a19.25,19.25,0,0,0-.35,2.45l-1.09-.1H29l-.49,0H28.4l-.42.1-.22,0-.31,0,.29-3C28,41.64,28.1,41.93,28.14,42.31Z"/><rect class="cls-1" x="38.34" y="45.42" width="0.69" height="6.67" transform="matrix(-1, -0.1, 0.1, -1, 72.5, 100.99)"/><rect class="cls-1" x="38.45" y="44.73" width="1.19" height="0.69" transform="translate(73.56 93.71) rotate(-174.48)"/><polygon class="cls-1" points="37.73 52.61 38.88 52.7 38.71 52.1 38.02 52.03 37.73 52.61"/><rect class="cls-1" x="35.15" y="45.25" width="0.69" height="6.59" transform="translate(66.17 100.28) rotate(-174.48)"/><rect class="cls-1" x="35.26" y="44.57" width="1.19" height="0.69" transform="translate(67.22 93.06) rotate(-174.48)"/><polygon class="cls-1" points="34.55 52.38 35.7 52.46 35.53 51.86 34.84 51.79 34.55 52.38"/><rect class="cls-1" x="32.5" y="45.13" width="0.69" height="6.57" transform="translate(60.87 99.76) rotate(-174.47)"/><rect class="cls-1" x="32.5" y="45.1" width="0.18" height="6.57" transform="translate(60.35 99.7) rotate(-174.46)"/><polygon class="cls-1" points="57.38 43.81 54.32 43.16 50.81 42.66 47 42.21 40.65 41.63 42.41 43.98 44.36 42.6 45.67 44.58 47.35 42.75 48.77 44.88 50.29 43.23 51.57 45.15 52.74 43.69 53.85 45.37 54.78 44.01 55.61 45.54 56.47 44.27 57.21 45.57 57.38 43.81"/><path class="cls-1" d="M56.8,45.08c-.07-.36-.21-.66-.49-.71s-.63.51-.74,1.1c0-.62-.22-1.32-.79-1.41s-.85.5-1,1.1c-.07-.64-.31-1.31-1-1.41s-1.11.53-1.3,1.16c-.09-.67-.36-1.4-1.14-1.51s-1.27.65-1.5,1.36c-.11-.76-.45-1.65-1.4-1.74s-1.51.79-1.76,1.54c-.14-.81-.5-1.82-1.51-1.92-1.68-.16-2,2.6-2,2.6l.73.07s.18-1.85,1.22-1.75.85,2.1.85,2.1l.74.07h0l.44,0s.35-1.93,1.18-1.85.61,2.16.61,2.16l.62.06.27,0,.48.05s0-2.14.78-2.05c.65.08.36,2.3.36,2.3l.77.07.19,0,.53.05s-.27-2.26.37-2.2.22,2.39.22,2.39l1,.1.17,0,.51.05s0-2.64.22-2.34a19.44,19.44,0,0,1-.12,2.48l1.08.11h.1l.48,0,.14,0,.39.17.23,0,.31,0,.29-3C57.07,44.45,56.91,44.72,56.8,45.08Z"/><rect class="cls-1" x="44.86" y="46.05" width="0.69" height="6.67" transform="translate(4.96 -4.12) rotate(5.52)"/><rect class="cls-1" x="44.97" y="45.37" width="1.19" height="0.69" transform="translate(4.61 -4.17) rotate(5.52)"/><polygon class="cls-1" points="45.41 53.35 44.26 53.22 44.54 52.66 45.23 52.73 45.41 53.35"/><rect class="cls-1" x="48.03" y="46.49" width="0.69" height="6.59" transform="translate(5.01 -4.42) rotate(5.52)"/><rect class="cls-1" x="48.13" y="45.81" width="1.19" height="0.69" transform="translate(4.67 -4.47) rotate(5.52)"/><polygon class="cls-1" points="48.57 53.74 47.43 53.59 47.71 53.04 48.4 53.1 48.57 53.74"/><rect class="cls-1" x="50.66" y="46.89" width="0.69" height="6.57" transform="translate(5.07 -4.68) rotate(5.53)"/><rect class="cls-1" x="51.17" y="46.91" width="0.18" height="6.57" transform="matrix(1, 0.1, -0.1, 1, 5.12, -4.74)"/><rect class="cls-1" x="50.77" y="46.2" width="1.19" height="0.69" transform="translate(4.72 -4.73) rotate(5.52)"/><polygon class="cls-1" points="51.23 54.11 50.06 53.96 50.35 53.41 51.04 53.47 51.23 54.11"/><rect class="cls-1" x="52.91" y="47.24" width="0.69" height="6.52" transform="translate(5.11 -4.9) rotate(5.53)"/><rect class="cls-1" x="53.24" y="47.26" width="0.37" height="6.52" transform="translate(5.12 -4.92) rotate(5.54)"/><rect class="cls-1" x="53.01" y="46.56" width="1.19" height="0.69" transform="translate(4.76 -4.94) rotate(5.52)"/><polygon class="cls-1" points="53.46 54.44 52.31 54.27 52.6 53.72 53.29 53.78 53.46 54.44"/><rect class="cls-1" x="54.68" y="47.55" width="0.69" height="6.49" transform="translate(5.15 -5.06) rotate(5.53)"/><rect class="cls-1" x="54.88" y="47.56" width="0.49" height="6.49" transform="translate(5.14 -5.06) rotate(5.52)"/><rect class="cls-1" x="54.78" y="46.87" width="1.19" height="0.69" transform="translate(4.8 -5.11) rotate(5.52)"/><polygon class="cls-1" points="55.22 54.73 54.08 54.55 54.37 53.99 55.06 54.06 55.22 54.73"/><rect class="cls-1" x="55.99" y="47.82" width="0.69" height="6.44" transform="translate(5.17 -5.18) rotate(5.52)"/><rect class="cls-1" x="56.08" y="47.82" width="0.6" height="6.44" transform="translate(5.16 -5.17) rotate(5.51)"/><rect class="cls-1" x="56.15" y="47.13" width="1.03" height="0.69" transform="translate(4.83 -5.23) rotate(5.52)"/><polygon class="cls-1" points="56.54 54.95 55.4 54.77 55.68 54.21 56.37 54.28 56.54 54.95"/><path class="cls-1" d="M56.83,44.74c-.07-.36-.21-.65-.48-.71-.42-.09-.63.52-.75,1.11,0-.63-.22-1.32-.79-1.42s-.85.5-1,1.11c-.07-.64-.31-1.32-1-1.42s-1.11.53-1.3,1.17c-.08-.68-.36-1.41-1.14-1.52s-1.27.65-1.5,1.36c-.11-.76-.45-1.65-1.4-1.74s-1.51.79-1.76,1.54c-.13-.81-.5-1.82-1.51-1.91-1.68-.17-2,2.59-2,2.59l.73.07s.18-1.85,1.22-1.75.85,2.1.85,2.1l.75.07h0l.43,0s.36-1.93,1.18-1.85.8,2.18.8,2.18l.44,0,.26,0,.48,0s.11-2.11.94-2,.51,2.31.51,2.31l.47,0,.18,0,.53,0s.12-2.23.76-2.16.31,2.4.31,2.4l.5,0,.18,0,.5,0s.14-2.4.52-2.3.06,2.49.06,2.49l.61.06h.09l.48,0s.24-2.25.31-2.24-.16,2.39-.16,2.39l.39,0,.22,0,.31,0,.29-3C57.11,44.11,56.94,44.38,56.83,44.74Z"/><rect class="cls-1" x="32.6" y="44.45" width="1.19" height="0.69" transform="translate(61.92 92.57) rotate(-174.48)"/><polygon class="cls-1" points="31.87 52.24 33.05 52.31 32.87 51.72 32.18 51.65 31.87 52.24"/><rect class="cls-1" x="30.22" y="45.05" width="0.69" height="6.52" transform="translate(56.36 99.34) rotate(-174.48)"/><rect class="cls-1" x="30.23" y="45.03" width="0.37" height="6.52" transform="translate(56.03 99.29) rotate(-174.48)"/><rect class="cls-1" x="30.33" y="44.37" width="1.19" height="0.69" transform="translate(57.39 92.19) rotate(-174.48)"/><polygon class="cls-1" points="29.62 52.13 30.78 52.19 30.6 51.59 29.91 51.52 29.62 52.13"/><rect class="cls-1" x="28.44" y="45.01" width="0.69" height="6.49" transform="translate(52.79 99.06) rotate(-174.47)"/><rect class="cls-1" x="28.44" y="45" width="0.49" height="6.49" transform="translate(52.58 99.03) rotate(-174.47)"/><rect class="cls-1" x="28.54" y="44.33" width="1.19" height="0.69" transform="translate(53.83 91.95) rotate(-174.48)"/><polygon class="cls-1" points="27.84 52.08 28.99 52.12 28.82 51.52 28.13 51.45 27.84 52.08"/><rect class="cls-1" x="41.72" y="44.91" width="1.19" height="0.69" transform="translate(4.55 -3.86) rotate(5.52)"/><rect class="cls-1" x="27.1" y="45.02" width="0.69" height="6.44" transform="translate(50.13 98.91) rotate(-174.48)"/><rect class="cls-1" x="27.1" y="45.02" width="0.6" height="6.44" transform="translate(50.04 98.89) rotate(-174.49)"/><rect class="cls-1" x="27.29" y="44.34" width="1.03" height="0.69" transform="translate(51.18 91.85) rotate(-174.47)"/><polygon class="cls-1" points="26.5 52.04 27.66 52.08 27.48 51.48 26.79 51.42 26.5 52.04"/><path class="cls-1" d="M28.17,42c.14-.34.33-.6.61-.61s.52.63.52,1.23c.16-.61.47-1.25,1.05-1.23s.73.65.78,1.27c.19-.61.56-1.23,1.25-1.19s1,.73,1,1.39c.21-.65.62-1.31,1.41-1.27s1.12.88,1.21,1.62c.26-.72.76-1.53,1.71-1.44s1.33,1.07,1.43,1.86c.29-.77.84-1.69,1.85-1.6,1.68.17,1.45,2.93,1.45,2.93l-.73-.07s.18-1.86-.86-2-1.24,1.9-1.24,1.9l-.74-.07h0l-.44,0s0-2-.81-2-1.19,2-1.19,2l-.44,0-.27,0-.47-.05s.29-2.09-.53-2.17-1,2.17-1,2.17l-.47,0-.18,0-.53,0s.31-2.21-.33-2.26-.77,2.29-.77,2.29l-.5,0-.17,0-.51,0s.32-2.38-.07-2.36-.54,2.44-.54,2.44l-.6-.06h-.09l-.49,0s.2-2.25.13-2.26-.3,2.38-.3,2.38l-.39,0-.22,0-.31,0,.29-3C28,41.3,28.13,41.59,28.17,42Z"/><path class="cls-1" d="M57.69,44.21a190.82,190.82,0,0,0-30.26-2.92c-.1-.22-.19-.43-.29-.64a190.06,190.06,0,0,1,31,3Z"/><path class="cls-1" d="M57.55,42.9A192.49,192.49,0,0,0,27.82,40l-.68.63a190.06,190.06,0,0,1,31,3Z"/><polygon class="cls-1" points="26.23 52.99 29.45 52.95 33.09 53.13 37.02 53.43 43.54 54.09 41.29 56.11 39.6 54.34 37.89 56.07 36.55 53.9 34.71 55.76 33.5 53.8 31.83 55.49 30.94 53.79 29.48 55.26 28.82 53.71 27.68 55.09 27.06 53.64 26.05 54.8 26.23 52.99"/><rect class="cls-1" x="40.41" y="57.77" width="0.71" height="6.97" transform="translate(6.09 -3.64) rotate(5.52)"/><polygon class="cls-1" points="40.97 65.37 39.79 65.26 40.08 64.69 40.79 64.76 40.97 65.37"/><path class="cls-1" d="M26.57,54.39c.14-.35.34-.62.63-.63s.53.65.53,1.27c.17-.63.49-1.29,1.08-1.27s.75.67.8,1.31c.2-.63.57-1.26,1.28-1.23s1,.75,1.09,1.43c.22-.66.64-1.35,1.45-1.3s1.15.91,1.24,1.67c.26-.75.78-1.58,1.76-1.48s1.36,1.09,1.47,1.9c.29-.79.86-1.74,1.9-1.64,1.72.17,1.48,3,1.48,3l-.75-.07s.19-1.91-.88-2-1.27,1.95-1.27,1.95l-.77-.08h0l-.44,0s0-2-.83-2.1-1,2.06-1,2.06l-.64-.06-.28,0-.49,0s.47-2.14-.39-2.21c-.67-.06-.81,2.23-.81,2.23L31.9,57l-.19,0-.55,0s.72-2.23.06-2.29c-.5-.05-.69,2.37-.69,2.37l-1-.1-.18,0-.52-.05s.55-2.65.24-2.39a20.64,20.64,0,0,0-.36,2.52l-1.12-.1h-.1L27,56.76l-.15,0-.43.1-.23,0-.32,0,.3-3.07C26.42,53.7,26.53,54,26.57,54.39Z"/><rect class="cls-1" x="37.05" y="57.58" width="0.71" height="6.85" transform="translate(68.77 125.34) rotate(-174.48)"/><rect class="cls-1" x="37.17" y="56.88" width="1.22" height="0.71" transform="matrix(-1, -0.1, 0.1, -1, 69.86, 117.85)"/><polygon class="cls-1" points="36.43 64.97 37.61 65.07 37.44 64.45 36.73 64.38 36.43 64.97"/><rect class="cls-1" x="33.78" y="57.41" width="0.71" height="6.78" transform="translate(62.26 124.6) rotate(-174.48)"/><rect class="cls-1" x="33.89" y="56.71" width="1.22" height="0.71" transform="translate(63.34 117.19) rotate(-174.47)"/><polygon class="cls-1" points="33.16 64.74 34.34 64.82 34.17 64.2 33.46 64.14 33.16 64.74"/><rect class="cls-1" x="31.05" y="57.29" width="0.71" height="6.75" transform="translate(56.83 124.07) rotate(-174.48)"/><rect class="cls-1" x="31.05" y="57.26" width="0.19" height="6.75" transform="translate(56.28 124) rotate(-174.46)"/><polygon class="cls-1" points="56.62 55.93 53.47 55.27 49.86 54.76 45.95 54.29 39.43 53.69 41.24 56.1 43.24 54.69 44.59 56.72 46.32 54.85 47.77 57.03 49.33 55.33 50.65 57.3 51.85 55.81 52.99 57.53 53.94 56.14 54.8 57.71 55.68 56.41 56.45 57.74 56.62 55.93"/><path class="cls-1" d="M56,57.24c-.07-.37-.22-.68-.5-.74s-.64.53-.76,1.14c0-.64-.23-1.35-.82-1.45s-.87.51-1,1.13c-.08-.65-.32-1.35-1-1.45s-1.14.54-1.34,1.2c-.08-.7-.36-1.45-1.17-1.56s-1.3.67-1.54,1.4c-.11-.78-.46-1.69-1.44-1.79s-1.55.81-1.81,1.58c-.13-.83-.51-1.86-1.55-2-1.72-.16-2,2.67-2,2.67l.75.07s.18-1.9,1.25-1.8.87,2.16.87,2.16l.77.07h0l.45,0s.36-2,1.21-1.91.63,2.23.63,2.23l.64.06.27,0,.49,0s0-2.19.81-2.09c.67.07.37,2.35.37,2.35l.79.08.19,0,.55,0s-.28-2.32.38-2.26c.5.05.22,2.46.22,2.46l1,.1h.18l.52,0s0-2.7.23-2.39a20.5,20.5,0,0,1-.13,2.55l1.12.1h.09l.5,0,.15,0,.4.18.23,0,.32,0,.29-3.07C56.3,56.59,56.13,56.86,56,57.24Z"/><rect class="cls-1" x="43.76" y="58.23" width="0.71" height="6.85" transform="translate(6.13 -3.96) rotate(5.52)"/><rect class="cls-1" x="43.87" y="57.53" width="1.22" height="0.71" transform="translate(5.78 -4.02) rotate(5.53)"/><polygon class="cls-1" points="44.32 65.73 43.14 65.6 43.43 65.03 44.14 65.1 44.32 65.73"/><rect class="cls-1" x="47.01" y="58.69" width="0.71" height="6.78" transform="translate(6.19 -4.27) rotate(5.52)"/><rect class="cls-1" x="47.12" y="57.99" width="1.22" height="0.71" transform="translate(5.83 -4.32) rotate(5.52)"/><polygon class="cls-1" points="47.57 66.14 46.39 65.98 46.69 65.42 47.4 65.48 47.57 66.14"/><rect class="cls-1" x="49.72" y="59.09" width="0.71" height="6.75" transform="translate(6.25 -4.53) rotate(5.52)"/><rect class="cls-1" x="50.24" y="59.12" width="0.19" height="6.75" transform="translate(6.21 -4.53) rotate(5.49)"/><rect class="cls-1" x="49.82" y="58.39" width="1.22" height="0.71" transform="translate(5.89 -4.58) rotate(5.52)"/><polygon class="cls-1" points="50.3 66.51 49.1 66.36 49.39 65.79 50.1 65.86 50.3 66.51"/><rect class="cls-1" x="52.03" y="59.46" width="0.71" height="6.7" transform="translate(6.29 -4.75) rotate(5.52)"/><rect class="cls-1" x="52.36" y="59.47" width="0.38" height="6.7" transform="translate(6.29 -4.77) rotate(5.52)"/><rect class="cls-1" x="52.13" y="58.76" width="1.22" height="0.71" transform="translate(5.93 -4.8) rotate(5.52)"/><polygon class="cls-1" points="52.59 66.86 51.41 66.68 51.7 66.11 52.42 66.18 52.59 66.86"/><rect class="cls-1" x="53.84" y="59.78" width="0.71" height="6.67" transform="translate(6.32 -4.92) rotate(5.52)"/><rect class="cls-1" x="54.05" y="59.79" width="0.5" height="6.67" transform="translate(6.32 -4.93) rotate(5.52)"/><rect class="cls-1" x="53.94" y="59.08" width="1.22" height="0.71" transform="translate(5.98 -4.98) rotate(5.53)"/><polygon class="cls-1" points="54.4 67.15 53.23 66.96 53.52 66.39 54.23 66.46 54.4 67.15"/><rect class="cls-1" x="55.19" y="60.05" width="0.71" height="6.62" transform="translate(6.35 -5.05) rotate(5.52)"/><rect class="cls-1" x="55.28" y="60.05" width="0.62" height="6.62" transform="translate(6.36 -5.06) rotate(5.52)"/><rect class="cls-1" x="55.35" y="59.35" width="1.06" height="0.71" transform="translate(6 -5.1) rotate(5.52)"/><polygon class="cls-1" points="55.75 67.38 54.58 67.19 54.87 66.62 55.58 66.69 55.75 67.38"/><path class="cls-1" d="M56.05,56.89c-.07-.37-.21-.67-.49-.73s-.65.53-.77,1.13c0-.64-.23-1.35-.81-1.45s-.87.52-1,1.14c-.07-.66-.32-1.35-1-1.46s-1.15.54-1.34,1.2c-.09-.7-.37-1.44-1.17-1.56s-1.31.67-1.54,1.4c-.12-.78-.46-1.69-1.44-1.79s-1.56.82-1.81,1.59c-.14-.83-.52-1.87-1.56-2-1.72-.17-2,2.66-2,2.66l.75.08S42,55.22,43,55.32s.88,2.16.88,2.16l.76.08h0l.45,0s.37-2,1.22-1.9.82,2.24.82,2.24l.44,0,.28,0,.49,0s.11-2.17,1-2.08.53,2.37.53,2.37l.48,0,.18,0,.55.05s.12-2.29.78-2.22.32,2.47.32,2.47l.52,0,.17,0,.52,0s.15-2.46.54-2.37S54,59,54,59l.62.06h.1l.49,0s.25-2.31.32-2.3-.17,2.45-.17,2.45l.4,0,.23,0,.32,0,.3-3.07C56.34,56.24,56.17,56.52,56.05,56.89Z"/><rect class="cls-1" x="31.16" y="56.59" width="1.22" height="0.71" transform="translate(57.9 116.68) rotate(-174.48)"/><polygon class="cls-1" points="30.41 64.59 31.61 64.67 31.44 64.06 30.73 63.99 30.41 64.59"/><rect class="cls-1" x="28.72" y="57.2" width="0.71" height="6.7" transform="matrix(-1, -0.1, 0.1, -1, 52.17, 123.63)"/><rect class="cls-1" x="28.72" y="57.19" width="0.38" height="6.7" transform="translate(51.85 123.58) rotate(-174.48)"/><rect class="cls-1" x="28.82" y="56.5" width="1.22" height="0.71" transform="translate(53.25 116.29) rotate(-174.48)"/><polygon class="cls-1" points="28.1 64.49 29.28 64.54 29.11 63.93 28.39 63.86 28.1 64.49"/><rect class="cls-1" x="26.88" y="57.17" width="0.71" height="6.67" transform="translate(48.51 123.35) rotate(-174.47)"/><rect class="cls-1" x="26.88" y="57.16" width="0.5" height="6.67" transform="translate(48.3 123.32) rotate(-174.46)"/><rect class="cls-1" x="26.98" y="56.47" width="1.22" height="0.71" transform="translate(49.59 116.04) rotate(-174.48)"/><polygon class="cls-1" points="26.26 64.43 27.45 64.47 27.27 63.85 26.56 63.79 26.26 64.43"/><rect class="cls-1" x="40.53" y="57.07" width="1.22" height="0.71" transform="translate(5.72 -3.69) rotate(5.52)"/><rect class="cls-1" x="25.51" y="57.18" width="0.71" height="6.62" transform="translate(45.78 123.19) rotate(-174.48)"/><rect class="cls-1" x="25.51" y="57.17" width="0.62" height="6.62" transform="translate(45.68 123.18) rotate(-174.47)"/><rect class="cls-1" x="25.7" y="56.48" width="1.06" height="0.71" transform="translate(46.87 115.93) rotate(-174.47)"/><polygon class="cls-1" points="24.89 64.39 26.08 64.43 25.9 63.82 25.19 63.75 24.89 64.39"/><path class="cls-1" d="M26.6,54c.14-.35.35-.62.63-.62.44,0,.54.64.53,1.26.17-.62.49-1.28,1.08-1.27s.76.67.81,1.31c.19-.63.57-1.26,1.28-1.23s1,.75,1.08,1.44c.22-.67.64-1.35,1.45-1.31s1.15.91,1.24,1.67c.27-.75.78-1.57,1.76-1.48s1.37,1.1,1.47,1.9c.3-.79.87-1.73,1.9-1.63,1.73.16,1.49,3,1.49,3L40.57,57s.18-1.91-.89-2-1.27,2-1.27,2l-.76-.07h0l-.45,0s0-2-.83-2.11-1.23,2.05-1.23,2.05l-.45,0-.27,0-.49-.05s.3-2.14-.55-2.23-1,2.23-1,2.23l-.48,0-.19,0-.55,0s.33-2.27-.33-2.33-.79,2.36-.79,2.36l-.52-.05h-.17l-.52,0S29.18,54,28.78,54s-.55,2.51-.55,2.51l-.62-.06h-.09l-.5-.05s.2-2.31.13-2.32-.31,2.45-.31,2.45l-.4,0-.23,0-.31,0,.29-3.08C26.45,53.35,26.56,53.65,26.6,54Z"/><path class="cls-1" d="M56.94,56.35a195.45,195.45,0,0,0-31.1-3c-.09-.22-.19-.44-.29-.66a196.06,196.06,0,0,1,31.8,3.08C57.21,56,57.07,56.15,56.94,56.35Z"/><path class="cls-1" d="M56.79,55a198,198,0,0,0-30.55-3l-.69.64a196.06,196.06,0,0,1,31.8,3.08Z"/><polygon class="cls-1" points="24.38 65.35 27.74 65.31 31.53 65.51 35.63 65.82 42.42 66.51 40.09 68.56 38.32 66.76 36.54 68.51 35.14 66.3 33.23 68.19 31.96 66.19 30.23 67.9 29.29 66.17 27.78 67.67 27.08 66.09 25.9 67.49 25.25 66.01 24.2 67.19 24.38 65.35"/><rect class="cls-1" x="39.18" y="70.25" width="0.74" height="7.1" transform="translate(7.3 -3.47) rotate(5.53)"/><polygon class="cls-1" points="39.77 77.99 38.54 77.87 38.84 77.29 39.59 77.36 39.77 77.99"/><path class="cls-1" d="M24.74,66.77c.15-.35.35-.63.66-.63s.55.66.55,1.29c.18-.64.51-1.31,1.12-1.29s.79.68.84,1.34c.21-.64.59-1.29,1.34-1.25s1.06.76,1.13,1.46c.23-.68.66-1.37,1.5-1.33s1.21.93,1.31,1.7c.27-.76.8-1.6,1.82-1.5s1.43,1.12,1.54,1.94c.31-.8.9-1.76,2-1.66,1.8.17,1.55,3.06,1.55,3.06l-.78-.07s.19-1.94-.93-2-1.31,2-1.31,2l-.8-.07h0l-.47-.05s0-2-.87-2.14-1.08,2.1-1.08,2.1l-.67-.07-.28,0-.51,0s.48-2.18-.41-2.26c-.7,0-.85,2.28-.85,2.28l-.82-.08-.2,0-.57-.05s.75-2.26.06-2.33c-.52,0-.72,2.41-.72,2.41l-1.05-.1-.18,0-.54,0s.55-2.7.23-2.44A21.5,21.5,0,0,0,27,69.36l-1.16-.11h-.1l-.52,0-.16,0-.44.1-.24,0-.33,0,.3-3.13C24.58,66.07,24.7,66.38,24.74,66.77Z"/><rect class="cls-1" x="35.68" y="70.05" width="0.74" height="6.97" transform="translate(64.86 150.21) rotate(-174.48)"/><rect class="cls-1" x="35.79" y="69.34" width="1.27" height="0.73" transform="translate(65.97 142.59) rotate(-174.47)"/><polygon class="cls-1" points="35.04 77.57 36.28 77.67 36.09 77.04 35.35 76.97 35.04 77.57"/><rect class="cls-1" x="32.27" y="69.87" width="0.74" height="6.9" transform="translate(58.07 149.44) rotate(-174.47)"/><rect class="cls-1" x="32.37" y="69.15" width="1.27" height="0.73" transform="translate(59.17 141.89) rotate(-174.47)"/><polygon class="cls-1" points="31.63 77.33 32.87 77.41 32.68 76.78 31.94 76.71 31.63 77.33"/><rect class="cls-1" x="29.42" y="69.74" width="0.74" height="6.87" transform="translate(52.41 148.87) rotate(-174.48)"/><rect class="cls-1" x="29.42" y="69.71" width="0.2" height="6.87" transform="translate(51.87 148.79) rotate(-174.48)"/><polygon class="cls-1" points="56.07 68.41 52.78 67.73 49.02 67.2 44.94 66.72 38.14 66.09 40.03 68.56 42.12 67.12 43.53 69.19 45.32 67.29 46.84 69.51 48.47 67.79 49.84 69.8 51.09 68.28 52.29 70.04 53.28 68.62 54.17 70.22 55.09 68.9 55.89 70.26 56.07 68.41"/><path class="cls-1" d="M55.44,69.74c-.07-.37-.22-.68-.52-.74s-.67.54-.79,1.15c-.05-.65-.24-1.38-.85-1.48s-.91.52-1.08,1.15c-.08-.66-.34-1.37-1.07-1.48s-1.19.55-1.4,1.22c-.09-.71-.38-1.47-1.22-1.59s-1.36.68-1.6,1.42c-.12-.8-.49-1.72-1.51-1.82s-1.61.82-1.88,1.61c-.14-.85-.54-1.91-1.62-2-1.8-.18-2.11,2.7-2.11,2.7l.78.08s.18-1.94,1.3-1.83.91,2.2.91,2.2l.8.07h0l.47,0s.38-2,1.26-1.93.66,2.26.66,2.26l.67.07.28,0,.51.05s0-2.23.84-2.13c.7.08.39,2.4.39,2.4l.83.08.19,0,.58,0S50,69,50.64,69s.24,2.5.24,2.5l1.06.1.18,0,.54,0s0-2.76.24-2.44a21.17,21.17,0,0,1-.13,2.59l1.16.12H54l.52,0h.16l.41.19.24,0,.33,0L56,69.16C55.74,69.09,55.56,69.36,55.44,69.74Z"/><rect class="cls-1" x="42.67" y="70.73" width="0.74" height="6.97" transform="translate(7.35 -3.8) rotate(5.53)"/><rect class="cls-1" x="42.78" y="70.02" width="1.27" height="0.73" transform="translate(6.98 -3.85) rotate(5.52)"/><polygon class="cls-1" points="43.26 78.37 42.03 78.23 42.34 77.65 43.08 77.72 43.26 78.37"/><rect class="cls-1" x="46.06" y="71.2" width="0.74" height="6.9" transform="translate(7.41 -4.13) rotate(5.53)"/><rect class="cls-1" x="46.17" y="70.49" width="1.27" height="0.73" transform="translate(7.04 -4.18) rotate(5.53)"/><polygon class="cls-1" points="46.66 78.78 45.43 78.63 45.73 78.05 46.47 78.12 46.66 78.78"/><rect class="cls-1" x="48.88" y="71.62" width="0.74" height="6.87" transform="translate(7.46 -4.4) rotate(5.53)"/><rect class="cls-1" x="49.43" y="71.65" width="0.2" height="6.87" transform="translate(7.46 -4.42) rotate(5.52)"/><rect class="cls-1" x="48.99" y="70.91" width="1.27" height="0.73" transform="translate(7.09 -4.45) rotate(5.52)"/><polygon class="cls-1" points="49.5 79.17 48.25 79.02 48.56 78.44 49.3 78.51 49.5 79.17"/><rect class="cls-1" x="51.29" y="72" width="0.74" height="6.82" transform="translate(7.5 -4.62) rotate(5.52)"/><rect class="cls-1" x="51.64" y="72.01" width="0.39" height="6.82" transform="translate(7.49 -4.64) rotate(5.52)"/><rect class="cls-1" x="51.39" y="71.28" width="1.27" height="0.73" transform="translate(7.14 -4.68) rotate(5.53)"/><polygon class="cls-1" points="51.89 79.53 50.66 79.35 50.97 78.77 51.71 78.84 51.89 79.53"/><rect class="cls-1" x="53.18" y="72.32" width="0.74" height="6.79" transform="translate(7.54 -4.8) rotate(5.52)"/><rect class="cls-1" x="53.4" y="72.34" width="0.52" height="6.79" transform="translate(7.55 -4.82) rotate(5.53)"/><rect class="cls-1" x="53.28" y="71.61" width="1.27" height="0.73" transform="translate(7.18 -4.86) rotate(5.53)"/><polygon class="cls-1" points="53.78 79.83 52.55 79.64 52.86 79.06 53.6 79.13 53.78 79.83"/><rect class="cls-1" x="54.59" y="72.61" width="0.74" height="6.74" transform="translate(7.56 -4.93) rotate(5.52)"/><rect class="cls-1" x="54.69" y="72.61" width="0.65" height="6.74" transform="translate(7.55 -4.93) rotate(5.51)"/><rect class="cls-1" x="54.75" y="71.89" width="1.11" height="0.73" transform="translate(7.22 -4.99) rotate(5.53)"/><polygon class="cls-1" points="55.19 80.07 53.97 79.87 54.27 79.29 55.01 79.36 55.19 80.07"/><path class="cls-1" d="M55.48,69.39c-.08-.38-.23-.69-.52-.75s-.68.54-.8,1.16c0-.66-.24-1.38-.85-1.48s-.9.52-1.08,1.15c-.08-.67-.33-1.37-1.07-1.48s-1.19.55-1.39,1.22c-.09-.71-.39-1.48-1.22-1.59s-1.37.68-1.61,1.42c-.12-.8-.48-1.73-1.5-1.83s-1.62.83-1.89,1.61c-.14-.85-.54-1.9-1.62-2-1.8-.17-2.11,2.71-2.11,2.71l.78.08s.19-1.94,1.3-1.83.92,2.19.92,2.19l.8.08h0l.46,0s.38-2,1.27-1.94.86,2.29.86,2.29l.46,0,.29,0,.51,0s.11-2.2,1-2.12.56,2.42.56,2.42l.49,0,.2,0,.57.06s.11-2.33.8-2.26.34,2.51.34,2.51l.54.06h.19l.54.06s.14-2.51.55-2.41.07,2.61.07,2.61l.65.06h.1l.51,0s.26-2.34.33-2.34-.17,2.5-.17,2.5l.42,0,.24,0,.33,0L56,68.8C55.77,68.73,55.6,69,55.48,69.39Z"/><rect class="cls-1" x="29.53" y="69.02" width="1.27" height="0.73" transform="translate(53.5 141.35) rotate(-174.48)"/><polygon class="cls-1" points="28.77 77.17 30.02 77.25 29.84 76.63 29.09 76.55 28.77 77.17"/><rect class="cls-1" x="26.99" y="69.65" width="0.74" height="6.82" transform="translate(47.56 148.41) rotate(-174.47)"/><rect class="cls-1" x="26.99" y="69.63" width="0.39" height="6.82" transform="translate(47.19 148.37) rotate(-174.45)"/><rect class="cls-1" x="27.09" y="68.93" width="1.27" height="0.73" transform="translate(48.65 140.94) rotate(-174.47)"/><polygon class="cls-1" points="26.36 77.06 27.59 77.12 27.41 76.49 26.66 76.42 26.36 77.06"/><rect class="cls-1" x="25.08" y="69.61" width="0.74" height="6.79" transform="translate(43.74 148.11) rotate(-174.47)"/><rect class="cls-1" x="25.08" y="69.6" width="0.52" height="6.79" transform="translate(43.52 148.08) rotate(-174.47)"/><rect class="cls-1" x="25.18" y="68.89" width="1.27" height="0.73" transform="translate(44.83 140.68) rotate(-174.47)"/><polygon class="cls-1" points="24.44 76.99 25.68 77.04 25.49 76.41 24.75 76.34 24.44 76.99"/><rect class="cls-1" x="39.3" y="69.53" width="1.27" height="0.73" transform="translate(6.92 -3.52) rotate(5.53)"/><rect class="cls-1" x="23.65" y="69.61" width="0.74" height="6.74" transform="translate(40.9 147.94) rotate(-174.48)"/><rect class="cls-1" x="23.65" y="69.61" width="0.65" height="6.74" transform="translate(40.8 147.92) rotate(-174.48)"/><rect class="cls-1" x="23.84" y="68.9" width="1.11" height="0.73" transform="translate(42.01 140.55) rotate(-174.48)"/><polygon class="cls-1" points="23.01 76.95 24.25 77 24.06 76.37 23.32 76.3 23.01 76.95"/><path class="cls-1" d="M24.77,66.42c.15-.35.36-.63.66-.63s.56.66.56,1.29c.17-.64.5-1.31,1.12-1.29s.78.68.84,1.33c.2-.64.59-1.28,1.33-1.25s1.06.77,1.13,1.46c.23-.67.67-1.37,1.51-1.32s1.2.93,1.3,1.7c.27-.76.8-1.6,1.83-1.5s1.42,1.12,1.54,1.94c.3-.81.89-1.77,2-1.66,1.8.17,1.56,3.06,1.56,3.06l-.78-.08s.18-1.93-.93-2-1.32,2-1.32,2l-.8-.08h0l-.46,0s0-2.06-.87-2.14-1.28,2.08-1.28,2.08l-.47,0-.29,0-.51-.05s.32-2.19-.57-2.27-1,2.26-1,2.26l-.5,0-.19,0-.58,0s.34-2.31-.35-2.37-.82,2.4-.82,2.4l-.54-.06h-.18l-.54-.06s.33-2.48-.08-2.46S26.48,69,26.48,69l-.65-.07h-.1l-.52,0s.2-2.35.13-2.36S25,69,25,69l-.42,0-.24,0-.33,0,.3-3.13C24.61,65.72,24.73,66,24.77,66.42Z"/><path class="cls-1" d="M56.4,68.84A208.63,208.63,0,0,0,24,65.71c-.1-.23-.2-.45-.31-.68a209.33,209.33,0,0,1,33.15,3.21Z"/><path class="cls-1" d="M56.24,67.46a211.25,211.25,0,0,0-31.85-3.08l-.72.65a209.33,209.33,0,0,1,33.15,3.21Z"/><polygon class="cls-1" points="18.71 112.76 19.87 112.76 21.25 98.44 20.11 98.33 18.71 112.76"/><polygon class="cls-1" points="20.11 98.33 21.25 98.44 21.71 96.29 20.07 96.13 20.11 98.33"/><rect class="cls-1" x="19.91" y="95.44" width="2.12" height="0.77" transform="translate(32.62 193.23) rotate(-174.48)"/><path class="cls-1" d="M34,92.26c4.06.39,3.32,4.76,3.32,4.76l-1.43-.14s.55-3.09-2-3.34-2.62,2.9-2.62,2.9l-1.42-.14S29.93,91.87,34,92.26Z"/><path class="cls-1" d="M27.47,91.63c3.08.3,2.34,4.67,2.34,4.67l-1.42-.14s.37-3.11-1-3.25-1.64,3-1.64,3l-1.23-.12S24.54,91.35,27.47,91.63Z"/><path class="cls-1" d="M22.82,91.18c2.36.23,1.69,4.6,1.69,4.6l-1.09-.1s.35-3.12-.73-3.22-1.32,3-1.32,3l-.95-.09S20.57,91,22.82,91.18Z"/><path class="cls-1" d="M33.41,98.2,31.58,96l2.23-1.84,1.83,2.23Zm.1-1,1.13-.94-.93-1.13-1.13.94Z"/><path class="cls-1" d="M26.9,97.57,25.75,95.4l1.54-1.9,1.15,2.16Zm.09-1,.79-1-.59-1.1-.78,1Z"/><path class="cls-1" d="M22.32,97.13,21.59,95l1.12-1.94.73,2.12Zm.09-1,.57-1-.37-1.08-.57,1Z"/><polygon class="cls-1" points="54.56 94.25 20.91 91 20.65 90.3 54.96 93.61 54.56 94.25"/><polygon class="cls-1" points="54.3 92.88 21.43 89.7 20.65 90.3 54.96 93.61 54.3 92.88"/><polygon class="cls-1" points="55.2 81.06 51.84 80.37 47.99 79.83 43.82 79.34 40.44 79.01 42.39 81.82 44.22 79.91 45.77 82.15 47.43 80.42 48.84 82.44 50.11 80.92 51.34 82.69 52.34 81.26 53.26 82.87 54.2 81.55 55.02 82.92 55.2 81.06"/><polygon class="cls-1" points="22.82 77.93 26.24 77.89 30.12 78.1 34.31 78.42 41.25 79.12 38.87 81.18 37.06 79.36 35.24 81.13 33.81 78.9 31.86 80.8 30.56 78.78 28.79 80.51 27.83 78.76 26.29 80.27 25.57 78.67 24.37 80.08 23.7 78.6 22.64 79.78 22.82 77.93"/><rect class="cls-1" x="37.92" y="82.88" width="0.76" height="7.82" transform="translate(8.52 -3.28) rotate(5.52)"/><path class="cls-1" d="M54.56,82.4c-.08-.38-.23-.7-.53-.76-.45-.09-.69.54-.81,1.17,0-.67-.25-1.39-.88-1.49s-.92.52-1.1,1.15c-.08-.67-.34-1.38-1.09-1.49s-1.22.55-1.42,1.22c-.1-.71-.4-1.48-1.26-1.6s-1.39.68-1.63,1.43c-.13-.81-.5-1.74-1.54-1.84s-1.65.83-1.92,1.62c-.15-.86-.56-1.92-1.66-2-1.84-.18-2.16,2.73-2.16,2.73l.8.07s.19-2,1.33-1.84,1,2.07,1,2.07l.82.08h0l.47.05s.37-1.89,1.28-1.81.7,2,.7,2l.68.07.29,0,.53.05s-.09-2,.82-1.85c.71.07.45,2,.45,2l.84.08.2,0,.58.05s-.35-1.94.36-1.87c.53,0,.3,1.94.3,1.94l1.08.1.19,0,.55,0s-.09-2.2.18-1.87a11.48,11.48,0,0,1-.06,1.89l1.19.11h.1l.53,0,.16,0,.44,0,.25,0,.33,0,.22-2.28C54.86,81.73,54.68,82,54.56,82.4Z"/><polygon class="cls-1" points="38.49 91.35 37.24 91.23 37.55 90.64 38.3 90.72 38.49 91.35"/><rect class="cls-1" x="41.49" y="83.22" width="0.76" height="7.82" transform="translate(8.58 -3.63) rotate(5.52)"/><rect class="cls-1" x="41.63" y="82.51" width="1.3" height="0.73" transform="translate(8.17 -3.68) rotate(5.52)"/><polygon class="cls-1" points="42.07 91.69 40.81 91.57 41.12 90.99 41.87 91.06 42.07 91.69"/><rect class="cls-1" x="44.97" y="83.56" width="0.76" height="7.82" transform="translate(8.62 -3.95) rotate(5.52)"/><rect class="cls-1" x="45.11" y="82.84" width="1.3" height="0.73" transform="translate(8.23 -4.02) rotate(5.53)"/><polygon class="cls-1" points="45.54 92.03 44.28 91.91 44.59 91.33 45.35 91.4 45.54 92.03"/><rect class="cls-1" x="47.86" y="83.84" width="0.76" height="7.82" transform="translate(8.67 -4.24) rotate(5.52)"/><rect class="cls-1" x="48.42" y="83.87" width="0.2" height="7.82" transform="translate(8.66 -4.26) rotate(5.52)"/><rect class="cls-1" x="48.01" y="83.12" width="1.3" height="0.73" transform="translate(8.26 -4.29) rotate(5.52)"/><polygon class="cls-1" points="48.44 92.31 47.18 92.19 47.49 91.61 48.25 91.68 48.44 92.31"/><rect class="cls-1" x="50.34" y="84.08" width="0.76" height="7.82" transform="translate(8.71 -4.47) rotate(5.52)"/><rect class="cls-1" x="50.7" y="84.1" width="0.4" height="7.82" transform="translate(8.69 -4.48) rotate(5.51)"/><rect class="cls-1" x="50.48" y="83.36" width="1.3" height="0.73" transform="translate(8.29 -4.53) rotate(5.52)"/><polygon class="cls-1" points="50.91 92.55 49.65 92.43 49.96 91.84 50.72 91.92 50.91 92.55"/><rect class="cls-1" x="52.28" y="84.27" width="0.76" height="7.82" transform="translate(8.73 -4.66) rotate(5.52)"/><rect class="cls-1" x="52.51" y="84.28" width="0.54" height="7.82" transform="translate(8.74 -4.68) rotate(5.53)"/><rect class="cls-1" x="52.43" y="83.55" width="1.3" height="0.73" transform="translate(8.32 -4.72) rotate(5.52)"/><polygon class="cls-1" points="52.86 92.74 51.6 92.62 51.91 92.03 52.66 92.11 52.86 92.74"/><rect class="cls-1" x="53.73" y="84.41" width="0.76" height="7.82" transform="translate(8.75 -4.8) rotate(5.52)"/><rect class="cls-1" x="53.83" y="84.41" width="0.66" height="7.82" transform="translate(8.74 -4.8) rotate(5.52)"/><rect class="cls-1" x="53.94" y="83.69" width="1.13" height="0.73" transform="translate(8.35 -4.86) rotate(5.53)"/><polygon class="cls-1" points="54.31 92.88 53.05 92.76 53.36 92.17 54.12 92.25 54.31 92.88"/><path class="cls-1" d="M54.6,82c-.08-.38-.24-.69-.54-.75-.45-.1-.69.54-.81,1.16,0-.66-.25-1.39-.87-1.49s-.92.52-1.1,1.16c-.08-.68-.35-1.39-1.1-1.5s-1.22.55-1.42,1.23c-.09-.72-.4-1.49-1.25-1.61s-1.39.69-1.64,1.43c-.12-.8-.49-1.74-1.54-1.84s-1.65.83-1.92,1.62c-.15-.85-.55-1.92-1.66-2-1.84-.18-2.15,2.72-2.15,2.72l.79.08s.19-2,1.33-1.84,1,2.07,1,2.07l.82.08h0l.47,0s.37-1.89,1.28-1.8.91,2,.91,2l.48,0,.29,0,.52,0s.08-1.93,1-1.84.62,2,.62,2l.5,0,.2,0,.59.06s.07-1.91.77-1.84.41,2,.41,2l.55.06h.19l.55.06s.09-2,.51-1.85.14,1.91.14,1.91l.66.07h.11l.53.06A11.65,11.65,0,0,1,54,82a15.07,15.07,0,0,1-.11,1.65l.45,0,.24,0,.34,0,.22-2.28C54.89,81.38,54.71,81.66,54.6,82Z"/><path class="cls-1" d="M23.18,79.36c.15-.36.36-.63.67-.64s.57.67.57,1.3c.18-.64.51-1.32,1.14-1.29s.81.69.86,1.34c.21-.64.61-1.29,1.37-1.25s1.08.77,1.16,1.47c.23-.68.67-1.38,1.53-1.33s1.24.93,1.33,1.71c.28-.76.82-1.61,1.87-1.51s1.46,1.13,1.58,2c.3-.81.91-1.78,2-1.67,1.84.17,1.59,3.08,1.59,3.08l-.79-.07s.19-1.95-1-2.06-1.33,1.85-1.33,1.85L35,82.17h0l-.47,0s0-1.92-.91-2-1.07,1.82-1.07,1.82l-.69-.07-.29,0-.52,0s.46-1.91-.45-2c-.71-.06-.82,1.86-.82,1.86l-.84-.08-.2,0-.59,0s.72-1.85,0-1.91c-.54-.06-.67,1.84-.67,1.84l-1.08-.1-.19,0-.55,0s.51-2.14.18-1.88a10.52,10.52,0,0,0-.3,1.86l-1.19-.11h-.11l-.53-.05-.15,0-.45,0-.24,0-.34,0,.22-2.28C23,78.66,23.14,79,23.18,79.36Z"/><rect class="cls-1" x="34.35" y="82.53" width="0.76" height="7.82" transform="translate(60.97 175.83) rotate(-174.48)"/><rect class="cls-1" x="34.49" y="81.82" width="1.3" height="0.73" transform="translate(62.21 167.37) rotate(-174.48)"/><polygon class="cls-1" points="33.66 90.88 34.92 91 34.73 90.37 33.97 90.3 33.66 90.88"/><rect class="cls-1" x="30.87" y="82.2" width="0.76" height="7.82" transform="translate(54.07 174.82) rotate(-174.47)"/><rect class="cls-1" x="31.02" y="81.48" width="1.3" height="0.73" transform="translate(55.3 166.36) rotate(-174.47)"/><polygon class="cls-1" points="30.19 90.55 31.45 90.67 31.25 90.04 30.5 89.96 30.19 90.55"/><rect class="cls-1" x="27.98" y="81.92" width="0.76" height="7.82" transform="translate(48.32 173.99) rotate(-174.48)"/><rect class="cls-1" x="27.98" y="81.89" width="0.2" height="7.82" transform="matrix(-1, -0.1, 0.1, -1, 47.77, 173.9)"/><rect class="cls-1" x="28.12" y="81.2" width="1.3" height="0.73" transform="translate(49.56 165.52) rotate(-174.48)"/><polygon class="cls-1" points="27.29 90.27 28.55 90.39 28.36 89.76 27.6 89.68 27.29 90.27"/><rect class="cls-1" x="25.5" y="81.68" width="0.76" height="7.82" transform="translate(43.41 173.27) rotate(-174.48)"/><rect class="cls-1" x="25.5" y="81.66" width="0.4" height="7.82" transform="translate(43.06 173.22) rotate(-174.48)"/><rect class="cls-1" x="25.65" y="80.96" width="1.3" height="0.73" transform="translate(44.64 164.81) rotate(-174.48)"/><polygon class="cls-1" points="24.82 90.03 26.08 90.15 25.88 89.52 25.13 89.44 24.82 90.03"/><rect class="cls-1" x="23.56" y="81.49" width="0.76" height="7.82" transform="translate(39.54 172.71) rotate(-174.47)"/><rect class="cls-1" x="23.56" y="81.48" width="0.54" height="7.82" transform="translate(39.31 172.68) rotate(-174.47)"/><rect class="cls-1" x="23.7" y="80.77" width="1.3" height="0.73" transform="translate(40.78 164.25) rotate(-174.48)"/><polygon class="cls-1" points="22.87 89.84 24.13 89.96 23.94 89.33 23.18 89.25 22.87 89.84"/><rect class="cls-1" x="38.06" y="82.16" width="1.3" height="0.73" transform="translate(8.12 -3.34) rotate(5.52)"/><rect class="cls-1" x="22.11" y="81.35" width="0.76" height="7.82" transform="translate(36.67 172.29) rotate(-174.48)"/><rect class="cls-1" x="22.11" y="81.35" width="0.66" height="7.82" transform="translate(36.56 172.27) rotate(-174.48)"/><rect class="cls-1" x="22.35" y="80.64" width="1.13" height="0.73" transform="translate(37.93 163.83) rotate(-174.48)"/><polygon class="cls-1" points="21.42 89.7 22.68 89.82 22.49 89.19 21.73 89.11 21.42 89.7"/><path class="cls-1" d="M23.22,79c.14-.36.36-.64.67-.64s.57.66.57,1.3c.17-.64.51-1.32,1.14-1.3s.81.69.86,1.35c.21-.65.6-1.3,1.36-1.26s1.09.77,1.16,1.47c.23-.68.67-1.38,1.54-1.33s1.23.94,1.33,1.72c.27-.77.82-1.61,1.86-1.51s1.46,1.12,1.58,2c.31-.81.91-1.77,2-1.67,1.84.18,1.59,3.09,1.59,3.09l-.8-.08s.19-1.95-1-2.06-1.33,1.85-1.33,1.85L35,81.81h0l-.47,0s0-1.93-.91-2-1.27,1.81-1.27,1.81l-.48,0-.29,0-.53,0s.29-1.91-.61-2-1,1.85-1,1.85l-.51,0-.2,0-.58-.06s.29-1.89-.41-2S27,81,27,81L26.42,81l-.18,0-.56,0S26,79,25.54,79,25,80.84,25,80.84l-.66-.07h-.1l-.53-.05a11.33,11.33,0,0,0,.05-1.65c-.05,0-.21,1.64-.21,1.64l-.44,0-.24,0-.34,0,.22-2.28C23.05,78.3,23.17,78.61,23.22,79Z"/><path class="cls-1" d="M55.53,81.49A216.48,216.48,0,0,0,22.4,78.28c-.1-.22-.2-.45-.31-.67A217.52,217.52,0,0,1,56,80.88Z"/><path class="cls-1" d="M55.37,80.1A219.15,219.15,0,0,0,22.83,77l-.74.66A217.52,217.52,0,0,1,56,80.88Z"/></svg>