<svg id="layer1" xmlns="http://www.w3.org/2000/svg" viewBox="0 0 188.1 216.27"><defs><style>.cls-1{fill:#965b20;}.cls-2{fill:#492d0c;}</style></defs><path class="cls-1" d="M157.75,190.87a3.42,3.42,0,0,0-.84-2.29q.1-3.79.2-7.54a55.82,55.82,0,0,0,.12-7,3.89,3.89,0,0,0-.46-1.63c.53-6.55,1.51-13.05,1.51-19.65,0-8.12,0-16.24-.25-24.36-.23-8.61-1.84-17.19-1.33-25.8a3,3,0,0,0-1.57-3,2.62,2.62,0,0,0-.65-1.49c-.33-9-.45-18-.77-27.05-.24-6.52-1-13-1.55-19.49a3.45,3.45,0,0,0,.32-1.37h0V50.1A41.49,41.49,0,0,0,151.67,40a5.81,5.81,0,0,1-.06-.93v.19h-.08a6.35,6.35,0,0,1-.16-1,3.15,3.15,0,0,0-.93-1.8,24.6,24.6,0,0,0-4.83-7.17,36.74,36.74,0,0,0-11.76-8.61,3.61,3.61,0,0,0-.76-.95c-6.43-5.64-13.94-8.06-22-10.35a3.2,3.2,0,0,0-4,1.83,3.48,3.48,0,0,0-2.22-.91,31.67,31.67,0,0,0-14,3.49,20.4,20.4,0,0,0-6.38,3.39c-1,.54-1.9,1.1-2.82,1.64-7.5,4.41-15.38,8.61-19.24,16.85s-2.71,18.12-4.51,27c-1.53,7.55-2.61,16.5,1.88,23.27a4,4,0,0,0,1.09,1.07c-.16,2.31-.3,4.62-.4,6.93a3.6,3.6,0,0,0-1.69,3.26c0,15-.34,30-1.19,45.15-.41,7.38-1,14.61-1.65,22-.62,7-2.63,13.83-1,20.71a23.88,23.88,0,0,0,.12,3.75,27.28,27.28,0,0,0,1.7,7.16,3.94,3.94,0,0,0,1.07,1.65,11.7,11.7,0,0,0,2.77,3.18,7.93,7.93,0,0,0,.83.55A3.6,3.6,0,0,0,67,203.64a6.08,6.08,0,0,0,4.55-2.47A15.18,15.18,0,0,0,74,197.3a14.92,14.92,0,0,0,3.28-6.55,3.57,3.57,0,0,0,0-1.59A3,3,0,0,0,79,186.27h0v-.12c0-.25,0-.48,0-.72a3.2,3.2,0,0,0,1.63-3c0-.07,0-.14,0-.2h0c0-.56,0-1.12,0-1.68a3.53,3.53,0,0,0,.54.13,3.23,3.23,0,0,0-.1,2.16c0,.2.13.41.2.61-.49,6.06,3.21,14.71,8.7,18.12a17.47,17.47,0,0,0,4.23,3.07,16.51,16.51,0,0,0,8.09,2.84,2.78,2.78,0,0,0,1.08-.16c.89.11,1.78.19,2.67.23a31.8,31.8,0,0,0,5.88-.27c2.07,1.25,4.17.88,6.15-.39a6.31,6.31,0,0,0,2.39-.37c3.54-1.17,5.25-4,7.38-6.83A60.56,60.56,0,0,0,135.09,186a3.07,3.07,0,0,0,1.68,2.17c.2,1.28.45,2.56.75,3.83a3.11,3.11,0,0,0-2,3.11c.09,5,1.23,9.28,5.14,12.4a8.17,8.17,0,0,0,1.86,1.81A3.25,3.25,0,0,0,144,210a6.73,6.73,0,0,0,3.24.31,4.24,4.24,0,0,0,1.79-.69l.19-.05c1.49-.22,3-.43,4.46-.52a3.67,3.67,0,0,0,3.43-2.57c.17-.52.37-1,.54-1.57a3,3,0,0,0-.55-3.08C157.89,198.31,157.79,194.67,157.75,190.87ZM63,164.29c.67-7.36,1.25-14.49,1.65-21.87.36-6.53.61-13,.8-19.53.31,1.5.6,3,.89,4.53a3.11,3.11,0,0,0-.67,2c0,4.23.28,8.44.66,12.63a55.08,55.08,0,0,0,.76,14c-1.1,7.91.77,16.15,1.74,24.23a3.26,3.26,0,0,0-1.24-.22,33.88,33.88,0,0,0-6.2.56C60.93,175.23,62.52,169.58,63,164.29Zm10.09-60.62a6.42,6.42,0,0,1,2.17-3.92,3.07,3.07,0,0,0,2.19,0,52.36,52.36,0,0,0,5.72-2.52c4.94-.34,10.42.78,15.21,1.46h.24a2.81,2.81,0,0,0,.71.13h0c5.2,5.87-5.71,9-9.91,9.79-4.64.88-10.57,1.05-14.8-1.38A3.11,3.11,0,0,1,73.08,103.67Zm67.67.08a2.88,2.88,0,0,0-1.92.58c-.24.18-.47.37-.7.56h0L138,105c-.36.3-.7.61-1,.93a24.14,24.14,0,0,1-7.52,5,2.61,2.61,0,0,0-1.44-.28,13.51,13.51,0,0,0-3.93,1.13c-.43,0-.87,0-1.32-.07A19.2,19.2,0,0,1,108.25,103l.12-.1a3.19,3.19,0,0,0,1.64-.07c4.4-1.34,8.51-3.82,13.17-4.13,5.36-.36,11.59,1.58,16.48,3.61a3.18,3.18,0,0,0,1.27.25Q140.83,103.17,140.75,103.75ZM88,175.85a46.61,46.61,0,0,0,9.36-4.7,42.32,42.32,0,0,1,9.36-3.72,19.58,19.58,0,0,0,6.05.68l.09,0c3.07,1.37,6.18,2.66,9.31,3.92a8.54,8.54,0,0,1,1.82,1c-3.56,4.49-9.19,6.58-15.2,7.12a77.31,77.31,0,0,0-16-1.71c-.94-.27-1.85-.57-2.71-.89,0,0,0,0,0,.06l-.19-.06a3.33,3.33,0,0,0-2-.06,2,2,0,0,0,0-.24C87.93,176.76,88,176.3,88,175.85Zm63.29-24.91c0,8-1,15.88-1.67,23.81-.19,2.33-.2,4.65-.26,7l-.44,0a4.49,4.49,0,0,0-3.59-1.69,3.3,3.3,0,0,0-2.22.83c.35-2.58.38-5.22.48-7.82a58.83,58.83,0,0,0,2.59-9.61c.31-.86.62-1.5,1-2.37l.25.22h.24v-.46a12,12,0,0,0-.05-1.73,2.87,2.87,0,0,0,.74-1.52A97.31,97.31,0,0,0,150,147c.46-1.86.86-3.73,1.26-5.62C151.3,144.55,151.27,147.74,151.28,150.94Z"/><path class="cls-2" d="M62.65,35.68c9.41-12.74,25.94-22.2,41.24-25.26,4.93-1,12.23,2.61,16.83,4.35a62.31,62.31,0,0,1,9.91,4.6c7.13,4.23,13.22,10.09,19.58,15.33.52.42,2.31-.33,1.8-.75-6.89-5.67-13.47-11.71-21.18-16.29-4.33-2.57-9.32-4.16-14.06-5.77-4.28-1.46-8.07-3-12.6-2.5-4.09.41-8.25,2.36-12.1,3.68a55.91,55.91,0,0,0-13.81,7.1C72,24.54,65.44,29.45,60.86,35.66c-.51.69,1.43.51,1.79,0Z"/><path class="cls-2" d="M60.79,35.79c-3.2,20.34-1.07,40.89-1.25,61.36-.19,21.2-3.7,42.32-4.18,63.54-.21,9.42-.28,18.87-.4,28.3-.08,6.65,1.54,14.26,8.48,16.79C75.81,210.29,77.4,189.92,79,183c.16-.72-1.78-.41-1.93.25-1.25,5.56-1.39,11.3-3.93,16.49-1.57,3.2-4.27,6.56-9.19,4.77-2.28-.84-3.9-3.07-5.05-5.07-2.06-3.59-2-8.33-2-12.32.2-16.52.31-33,1.56-49.52,1.26-16.67,3.21-33.26,3-50-.26-17.37-1.43-34.77,1.28-52,.12-.75-1.83-.41-1.93.24Z"/><path class="cls-2" d="M150.15,34.59c1.94,6,2.32,12,2.41,18.22.1,6.74.59,13.48.75,20.22.37,15,1.65,30,2.41,45,1.49,29.41,2.31,59.23.41,88.64l.88-.58c-2.5.6-4.92,1.46-7.39,2.17-6.13,1.76-10.19-1.79-11.35-7.48-.68-3.31,0-7,.13-10.31.09-3.91-.37-7.71,0-11.65,0-.3-1.88-.09-1.93.52-.45,4.86.15,9.64-.12,14.47-.23,4.25-.86,9.49,2.37,12.88,5.29,5.55,12.26,1.53,18.47.05.27-.07.85-.24.87-.59,1.91-29.42,1-59.21-.41-88.64-.7-14.35-2-28.65-2.36-43-.16-6.88-.56-13.74-.77-20.62s-.32-13.23-2.44-19.77c-.16-.49-2.08.07-1.93.52Z"/><path class="cls-2" d="M86.94,28.44c6.31,5.16,9.22,15.21,11.72,22.62,2.78,8.2,5.86,17.85,5.06,26.62a.41.41,0,0,0,.38.44c2.53.44,7.94,3.57,9.21-.24,1.4-4.21,1.66-9.25,2.73-13.6,1.63-6.65,3.47-13.24,5.58-19.75,1.43-4.42,3-12.32,7-15.27,1.06-.78-.58-1.09-1.21-.63-2.18,1.62-3.28,4.44-4.33,6.85a132.21,132.21,0,0,0-5,14.5c-2.54,8.41-5.23,17.19-6.39,25.92-.35,2.68-.18,2.78-2.74,1.95-1.17-.38-3.24-.26-3.17-1.77a24.11,24.11,0,0,0,0-2.55c-.25-5.76-1.75-11.52-3.28-17.05A120.77,120.77,0,0,0,95.8,38.34c-1.73-3.76-3.8-8-7.07-10.67-.55-.46-2.35.31-1.79.77Z"/><path class="cls-2" d="M105.66,77.47a108.63,108.63,0,0,0,1.58-25.59c-.63-13.78-1.81-26.79.38-40.51l-1.94.36c2.78,6,2.87,13.11,3.56,19.58.55,5.09.78,10.15.92,15.27.3,10.74.39,21.48.39,32.22,0,.9,1.94.53,1.94-.2,0-11.12-.11-22.24-.42-33.35-.12-4.41-.2-8.85-.75-13.23-.88-6.87-.74-14.41-3.7-20.8-.32-.68-1.83-.35-1.94.36-2.07,13-1.36,25.16-.53,38.18a110.13,110.13,0,0,1-1.43,27.91c-.17.84,1.8.54,1.94-.2Z"/><path class="cls-2" d="M112.27,21.42c1.47-2.87,4.4-5.22,7.19-6.73,1.16-.63.11-1.56-.83-1-3.19,1.72-6.52,4.32-8.2,7.6-.48,1,1.48.89,1.84.18Z"/><path class="cls-2" d="M111.73,28.79c2.87-3.06,5.3-7,9-9.12,1.14-.64.11-1.7-.86-1.15-4.07,2.28-6.67,6.36-9.78,9.69-.84.89,1,1.22,1.61.58Z"/><path class="cls-2" d="M115.22,33.8c2.88-3.1,5.13-6.67,7.77-9.95a2.53,2.53,0,0,0-1.9.35c-2.59,3.22-4.79,6.73-7.62,9.76-.38.41,1.44.16,1.75-.16Z"/><path class="cls-2" d="M93.71,21.59c1.28,4.92,6.35,8.06,9.47,11.76.41.47,2.26-.2,1.8-.74-3.06-3.62-8.08-6.73-9.34-11.54-.16-.62-2.09-.11-1.93.52Z"/><path class="cls-2" d="M98.56,18.64c-.92,1.28-1.94-.14-1.1.71a8.57,8.57,0,0,1,.68.79c.6.74,1.15,1.51,1.72,2.27,1,1.32,2,3,3.45,3.84.49.29,2.28-.45,1.55-.88a8.63,8.63,0,0,1-2.08-2.22c-.81-1-1.57-2.08-2.36-3.12s-2.37-3.15-3.64-1.38c-.48.67,1.45.45,1.78,0Z"/><path class="cls-2" d="M99.65,14.7c1.61.48,2.68,2.09,3.54,3.43.36.56,2.23-.08,1.79-.76-1-1.61-2.25-3.18-4.16-3.74-.63-.19-2.27.74-1.17,1.07Z"/><path class="cls-2" d="M86.38,28.21c-4.2,2.2-6,8.9-8,12.92-2.91,5.86-5.87,11.42-8,17.63-2.17,6.38-3.72,12.95-5.72,19.38-1.87,6-3.87,12-5.2,18.14-.16.74,1.79.42,1.93-.24,2.26-10.51,6-20.69,8.93-31a98.5,98.5,0,0,1,6.4-17.23C78.16,45,79.66,42.29,81,39.5c1.5-3,3.39-9,6.54-10.71,1.16-.6-.56-.91-1.2-.58Z"/><path class="cls-2" d="M128.8,29.23c-.77.27,2.74,3.37,3.29,4,2.29,2.68,3.88,6,5.53,9.09,2.88,5.37,6,10.34,8.24,16.05,4.74,12.18,8,25.86,8.14,38.93,0,.43,1.93.11,1.93-.51-.13-15.16-4.36-31.41-10.79-45.12a132.16,132.16,0,0,0-10.27-17.84c-1.21-1.77-4.09-6.11-6.77-5.17-1.29.45-.08.84.7.56Z"/><path class="cls-2" d="M102.89,99.51c-4.85-4.19-5.25-13.88-13.19-14-2.07,0-4.14,1.92-5.62,3.08A96.65,96.65,0,0,0,72.51,99.89c-.07.07-.15.25,0,.32a2.82,2.82,0,0,0,1.72.55c.5,0,2.25-.82,1.22-.9s4.64-6,5.08-6.41c3-2.93,7.77-9,12.15-5.59,4.06,3.13,4.7,9.13,8.42,12.35.45.39,2.22-.35,1.81-.7Z"/><path class="cls-2" d="M100.66,98.78c.73,1.81,3.32,4,5.48,3.56,3.25-.74,5.39-3.57,7.38-6a33.41,33.41,0,0,1,5.41-5.55c6.1-4.85,8.35-2.26,12.24,1,2.09,1.74,8.22,5.4,8.45,8.39,0,.52,2,.14,1.93-.52-.21-2.7-5.06-5.65-6.9-7.2-2.66-2.22-4.89-5.29-8.64-5-4.35.31-7.61,2.16-10.83,5a37.15,37.15,0,0,0-4.11,4.75c-2.15,2.68-6.64,5.69-8.47,1.09-.24-.6-2.14,0-1.94.52Z"/><path class="cls-2" d="M76.33,100.08c4.36-4,9.32-8.56,15.66-5.72,2.73,1.22,4.9,4,7.14,6s4.44,3.32,7.19,2.24c1.25-.49.13-1.32-.8-1-2.76,1.09-6.82-4.09-8.53-5.71s-4.1-3.37-6.6-3.67c-6.36-.78-11.21,3.39-15.64,7.4-.87.79,1,.93,1.58.44Z"/><path class="cls-2" d="M107.84,102.61c4.2-1.29,7.52-4,11-6.56,4.17-3,6.63-2.12,10.57-.19,3.59,1.75,7.15,3.59,10.72,5.38.59.29,2.36-.55,1.53-1-4.05-2-8.1-4.1-12.17-6.09-1.55-.76-3.42-1.77-5.21-1.66-6.45.4-10.71,7.19-16.76,9.06-1.14.35-.89,1.38.27,1Z"/><path class="cls-2" d="M60.56,93.25a25.2,25.2,0,0,0,2.89.22c3.5.18,4.47,3.74,5.34,6.3a73,73,0,0,1,2.06,8.65c1.69,8.34,3.43,16.57,4.48,25,1.14,9.19,1.46,18.41,1.78,27.65.26,7.32,1.21,14.83-.08,22.08-.17.93,1.8.65,2-.17,1.39-7.81.3-15.94,0-23.81-.35-10-.89-20-2.21-30a263.9,263.9,0,0,0-5.35-27.42A22.34,22.34,0,0,0,68.2,94c-1.54-2.16-4.75-1.67-7-2-.92-.15-2,1.12-.69,1.35Z"/><path class="cls-2" d="M155.74,94.82c-10.73-5.47-11.9,12.24-12.46,18.61-.91,10.26-2.13,20.47-2.84,30.75-.44,6.22-.49,12.53-1.49,18.68-.95,5.8-2.25,11.44-2.06,17.35,0,.55,2,.18,1.94-.52-.31-9.36,2.44-18.75,3-28.1.64-10.25,1.39-20.49,2.5-30.71.57-5.22.88-29.73,9.83-25.17.52.27,2.3-.51,1.55-.89Z"/><path class="cls-2" d="M145.29,176.88c1.09-7.23,3.23-14.38,4.87-21.51.78-3.39,1.55-6.8,2.13-10.23.88-5.31.12-10.73,1.49-16l-1.92.41c.06,10.51,1,21,1.55,31.54.25,5.21.49,10.43.47,15.65a15.81,15.81,0,0,1-.3,4.24c-.83,2.84-8.84,5.87-9.44,2.08-.32-2.06.77-4.21,1.15-6.2.1-.51-1.82-.18-1.91.33-.55,2.89-1.4,4.94-.93,7.92,0,.14.26.16.35.17,4.11.36,11.3.16,12.75-4.82,1.18-4.06.21-9.45.06-13.59-.46-12.6-1.74-25.22-1.82-37.83,0-.42-1.81,0-1.92.42-1.32,5.05-.74,10.23-1.4,15.36-.47,3.65-1.41,7.27-2.22,10.85-1.63,7.13-3.78,14.27-4.87,21.52-.08.53,1.83.17,1.91-.33Z"/><path class="cls-2" d="M149,152.7c-.73,8.88.77,18.19-1,26.94l1.35-.61c-2.17.2-4.45.62-6,2.29-.49.53,1.41.34,1.77,0l3.42-1.3c.34,0,1.26-.16,1.35-.62,1.79-8.76.28-18.06,1-26.94.06-.65-1.87-.25-1.91.29Z"/><path class="cls-2" d="M64.64,114.66c-.49,2.81.87,6.15,1.24,8.93.91,6.77.46,13.95.47,20.76,0,13.17-.55,26.54,2.56,39.44l.85-.69c-3.17,1-6.42,1-9.7,1.14-1.87.1-.58-9-.42-10.45.82-7.31,2.26-14.52,3-21.85.68-6.67,1.72-13.29,2.5-19.94.71-6-.2-12.73,1.42-18.5.17-.62-1.76-.34-1.93.27-1.34,4.77-.57,10-1,14.84-.62,6.67-1.65,13.3-2.48,19.95-1.48,11.95-4.53,24.51-3.77,36.57,0,.31.66.25.82.23,4-.39,7.94-.17,11.81-1.4.24-.08.94-.3.85-.69-3-12.32-2.59-25.05-2.57-37.63,0-6.72,0-13.44-.33-20.16-.16-3.49-2-7.68-1.38-11.09.12-.67-1.82-.33-1.93.27Z"/><path class="cls-2" d="M149.35,179.27h-.85c-.21,0-1.88.33-1.28.76a27.85,27.85,0,0,1,3.85,3.51c.47.49,2.31-.26,1.8-.8a29,29,0,0,0-3.85-3.49c-.43.31-.85,0-1.28,1h.86a1.54,1.54,0,0,0,1.27-.48c.26-.38-.21-.52-.52-.52Z"/><path class="cls-2" d="M60.06,183.45a11.62,11.62,0,0,0,3.5-4.66,5,5,0,0,1-1.58.48h5.13c.39,0,2.2-1,1.26-1H63.24c-.35,0-1.45.32-1.58.75a11,11,0,0,1-3.34,4.49c-.4.36,1.41.24,1.74-.06Z"/><path class="cls-2" d="M64,178.34c-.51-4.91.39-9.76,1-14.63.63-5.35.35-10.82.5-16.2.28-10.43,1.1-20.83,1.1-31.27,0-1-2-.65-2,.17,0,11.06-.86,22.1-1.16,33.15-.14,5.36,0,10.69-.65,16-.52,4.44-1.21,8.8-.75,13.28.09.83,2,.37,1.94-.52Z"/><path class="cls-2" d="M78.32,183.79c2.23,7.3,5.28,15.56,11,20.87,4.79,4.43,14.37,3.79,20.32,4.5,6.32.76,11.76.07,16.44-4.54,6.85-6.77,8.47-18.12,12.67-26.43.44-.86-1.5-.67-1.8-.07-3.22,6.34-5.11,13.23-8.18,19.64a21.75,21.75,0,0,1-7.25,9c-3.89,2.6-9.34,1.58-13.63.91-6.66-1-13.77-.14-18.68-5.67-4.48-5-7-12.33-9-18.69-.22-.72-2.14-.18-1.93.52Z"/><path class="cls-2" d="M86,127.65c-1.36,7.08-.58,14.16-1,21.3-.34,6.45-1.59,12.72-.72,19.18C85.92,180,98,179.68,107.34,180c7.79.25,15.81-1.62,19.62-9,2.76-5.38,2.18-12.16,2.28-18,.13-8.26-.08-16.53-.68-24.77,0-.6-2-.2-1.93.52.89,12.26,2.1,25.8-.1,37.94-2,11.35-12.22,12.4-21.86,12.21-4.94-.1-10.12-.26-14.3-3.21-4.72-3.33-4.62-10.76-4.4-15.82.21-4.73,1.15-9.42,1.12-14.16,0-6.12-.3-12.21.86-18.24.13-.72-1.81-.39-1.93.25Z"/><path class="cls-2" d="M87,126.57c.66.52,1.15.46,1.46-.16l.87-1a24.53,24.53,0,0,1,2.29-2.27c3.95-3.48,8.2-7,13.82-6.65.86,0,2-1.21.7-1.28-4.6-.25-8.82,1.67-12.51,4.3-2.59,1.83-6.2,4.65-7.66,7.6-.16.33,0,.55.35.67a1.86,1.86,0,0,0,1.5-.22c1.23-.53.12-1.41-.82-1Z"/><path class="cls-2" d="M109.66,115.86c4.69-.44,8.46,3.07,11.79,5.88,2.69,2.27,3.55,5.66,6.1,7.92.42.37,2.18-.36,1.81-.69-1.59-1.4-2.46-3.41-3.36-5.29-.75-1.56-3.26-3.08-4.59-4.15-3.29-2.65-6.56-4.94-10.93-4.54-.56.05-2.1,1-.82.87Z"/><path class="cls-2" d="M88.23,124.79A93.07,93.07,0,0,0,96.78,136c3.4,3.68,5.85,8.1,9.41,11.65a1.28,1.28,0,0,0,1.51,0c3.75-2.49,6.42-6.13,9.15-9.65,3.05-3.93,6.39-7.62,9.44-11.55.73-1-1.11-1.07-1.59-.46-2.76,3.56-5.72,7-8.56,10.44-3,3.69-5.65,7.8-9.69,10.48l1.52,0c-3.56-3.54-6.07-7.92-9.41-11.65A103.5,103.5,0,0,1,90,124c-.43-.64-2.29,0-1.78.81Z"/><path class="cls-2" d="M97.19,136c-2.7,4.85-3,10.64-4.06,16-.81,4-2.31,8-3.27,11.94-.84,3.49-3,6.23-3.42,9.86-.09.86,1.86.51,1.94-.21.33-3.11,2-5.59,3-8.49,1.13-3.38,1.8-6.92,2.85-10.33,1.85-6.07,1.69-13,4.82-18.66.47-.86-1.48-.72-1.82-.1Z"/><path class="cls-2" d="M117.27,135.47c-1.59,2.84.61,8.05,1.37,10.89,2,7.36,3.59,14.58,6.28,21.75.34.9,2.26.36,1.93-.52a124.27,124.27,0,0,1-6-20.61c-.57-3-3.34-8.41-1.75-11.27.54-1-1.43-1-1.85-.24Z"/><path class="cls-2" d="M89.44,173.27c6.68-5.11,14.12-9,22.83-6.83,4.55,1.14,8.26,4.22,12.83,5.38.46.11,2.16-.62,1.58-.77-4.09-1-7.52-3.46-11.42-5a21.79,21.79,0,0,0-10-1c-6.41.63-12.29,4.34-17.27,8.14-.79.61,1.14.35,1.49.09Z"/><path class="cls-2" d="M85.67,174.55c5.12,6,12.52,20.28,22.49,17.73,9.11-2.33,14.53-11.95,19.39-19.22.69-1-1.12-1.3-1.61-.57-4,6-7.88,12.27-13.78,16.53-10.5,7.57-19.1-8.67-24.72-15.32-.57-.67-2.4.1-1.77.85Z"/><path class="cls-2" d="M138.75,34.6a20.21,20.21,0,0,1,3.87-3.69c.34-.27.18-.66-.2-.75a1.65,1.65,0,0,0-1.36.37,21.64,21.64,0,0,0-4.12,4c-.28.38.24.61.54.62a1.53,1.53,0,0,0,1.27-.54Z"/><path class="cls-2" d="M140.14,40.56c2.54-1.6,4.29-4.11,6.5-6.09a.52.52,0,0,0-.24-.89A1.4,1.4,0,0,0,145,34c-2.1,1.88-3.75,4.27-6.16,5.78-.34.21-.51.71-.12,1a1.35,1.35,0,0,0,1.38-.13Z"/><path class="cls-2" d="M144.09,46.66c2.77-1.35,4.46-4.18,6.3-6.53.5-.62-1.43-.42-1.78,0-1.66,2.11-3.2,4.82-5.69,6-.24.12-.6.51-.19.68a1.77,1.77,0,0,0,1.36-.21Z"/><path class="cls-2" d="M147.29,50.46A44.12,44.12,0,0,0,152.07,44c.51-.8-1.44-.65-1.81-.09a41.45,41.45,0,0,1-4.54,6.14c-.79.85,1.1.88,1.57.38Z"/><path class="cls-2" d="M61.59,40.4c1,4.59,5,8,7.33,11.87.31.51,2.12-.21,1.93-.51-2.35-3.93-6.31-7.27-7.33-11.87-.1-.47-2,0-1.93.51Z"/><path class="cls-2" d="M64.92,37.26c1.4,3.63,4,6.9,6.4,9.89.41.51,2.27-.17,1.8-.75-2.38-2.92-4.9-6.11-6.26-9.66-.26-.66-2.17-.08-1.94.52Z"/><path class="cls-2" d="M69.26,32.72c1.43,2.22,3,4.32,4.33,6.64.31.55,2.15-.13,1.93-.52-1.29-2.31-2.9-4.41-4.33-6.63-.36-.55-2.16.16-1.93.51Z"/><path class="cls-2" d="M75.33,28c1.47,1.58,2.39,3.51,3.67,5.23.53.72,2.37,0,1.76-.85-1.27-1.72-2.2-3.66-3.66-5.24-.6-.65-2.43.13-1.77.86Z"/><path class="cls-2" d="M81.62,23.19a4.19,4.19,0,0,1,2.36,2c.33.52,2.21-.1,1.8-.74a4.91,4.91,0,0,0-3-2.23,1.74,1.74,0,0,0-1.37.37c-.33.28-.19.54.18.64Z"/><path class="cls-2" d="M61.6,56.34C61,59.13,64.47,62,66,63.89c.35.46,2.21-.19,1.8-.71-.86-1.1-1.82-2.12-2.68-3.23s-1.92-2.49-1.59-3.89c.14-.61-1.79-.3-1.92.28Z"/><path class="cls-2" d="M86.3,21.29c6.76,6.09,9.15,15.19,15,22,.36.42,2.19-.25,1.82-.69-5.86-6.8-8.23-15.89-15-22-.43-.38-2.2.34-1.82.69Z"/><path class="cls-2" d="M115.16,42.46c3.09-7.6,8.52-14,13.92-20.11.54-.61-1.4-.46-1.79,0-5.48,6.16-10.93,12.68-14.06,20.39-.24.58,1.68.35,1.93-.26Z"/><path class="cls-2" d="M133.13,28.45a21.53,21.53,0,0,1,2.59-3.05c.29-.31-.26-.31-.45-.29a2.26,2.26,0,0,0-1.3.46,23.51,23.51,0,0,0-2.74,3.23c-.18.28.71.17.77.16.34-.07.92-.19,1.13-.51Z"/><path class="cls-2" d="M87.85,173.89c-.18.38-.39.46-.61.73s-.1.85.44.87c2,0,3.34-1.15,5.15-1.91,3.21-1.34,6.51-2.28,9.61-3.89,7.15-3.72,15.26,1.7,22.23,3.95.73.24,2.28-.82,1.15-1.19-6.35-2-14.62-7.31-21.58-5.45-1.2.32-2.93,1.87-3.91,2.38a43.85,43.85,0,0,1-5.57,2.2,53.4,53.4,0,0,0-5.27,2.15c-.47.23-.54,1.85.19.3.43-.95-1.51-.83-1.83-.14Z"/><path class="cls-2" d="M89.54,175.91c-.35,2.77,8.78,2.18,10.35,2.19a78.22,78.22,0,0,0,25.47-3.71c1.13-.35.91-1.23-.23-.87-6.65,2.08-13.13,3.84-20.17,3.79-1.55,0-13.71,0-13.5-1.67.09-.7-1.85-.33-1.92.27Z"/><path class="cls-2" d="M72.81,101.44c-.78,5.74,3.68,8.35,8.7,9.4,5.49,1.14,10-.26,14.62-3.12a51.88,51.88,0,0,1,5.83-3.25c4.88-2.21,8.73,1.28,12.31,3.71,2.83,1.92,6.22,4.13,9.78,4.17a18.4,18.4,0,0,0,8.7-2c4.21-2.25,6-6.15,9.74-8.91.86-.64-1.09-.59-1.53-.26-3.07,2.28-4.75,5.76-8,7.92-6.57,4.4-12.61,1.27-18.16-2.49-4-2.73-7.23-4.62-12.12-3.38-5.95,1.51-9.84,6.8-16.28,7-5.55.14-12.61-2.34-11.7-9,.1-.7-1.84-.34-1.92.26Z"/><path class="cls-2" d="M100.1,102c.6-.46-7.69-4.75-8.74-5a16.09,16.09,0,0,0-6.9.38c-3,.63-10.62,2.83-10.14,7.23s6.61,5.71,10.09,6.28c7.1,1.14,12.54-3.08,17.68-7.32,1-.84-.56-1.42-1.27-.83-5.08,4.21-10,8-17.1,6.55-4.6-1-11.17-5.08-4.17-8.85,5.81-3.12,11.86-2.84,17.2,1,1.46,1,2.89,2.71,4.62,1.38,1-.8-.54-1.38-1.27-.82Z"/><path class="cls-2" d="M110.81,104.28c6.2-2.51,10.56-6.88,17.95-4.57,2.47.78,4.83,1.88,7.31,2.64,3.47,1,1.19,2.42-.88,4.43-4.56,4.42-10,4.8-15.62,3-2.82-.89-7.95-2.6-8.16-6.11,0-.53-2-.16-1.93.52.3,5.1,9.88,7.22,13.86,7.72,7.31.93,13.29-4.13,17.47-9.5.2-.25,0-.44-.28-.47-5.71-.7-10.58-4.14-16.39-4.16-5.22,0-9.46,4-14.06,5.81-1.26.51-.09,1,.73.67Z"/></svg>