<svg id="layer1" xmlns="http://www.w3.org/2000/svg" viewBox="0 0 401.8 260.45"><defs><style>.cls-1{fill:#ffbf31;}.cls-2{fill:#99744f;}.cls-3{fill:#492d0c;}</style></defs><path class="cls-1" d="M370,136.34c-2.51-6.85-7.49-14.43-15.31-15.24q-.75-.43-1.53-.81a3.45,3.45,0,0,0-1.9-.33c0-.09,0-.19,0-.29-.06-.28-.13-.55-.2-.83a4.07,4.07,0,0,0,.08-.61c.11-3.94-1.69-6-4-7.82a13.62,13.62,0,0,0-6.15-4.44,3,3,0,0,0-1.58-.11A46.34,46.34,0,0,0,323,103.22c-.43,0-.87,0-1.3,0a3.37,3.37,0,0,0-1.53-2c-4.78-2.74-10-3.87-15.43-4.58-3.08-.4-6.18-.2-9.25-.8a61.37,61.37,0,0,0-8.82-1.42,3.16,3.16,0,0,0-1.39.39c-.07,0-.14,0-.22,0h0c-3.14-1-6-3-8.94-4.67a210.29,210.29,0,0,0-2.91-28.6c-1.18-6.88-4.38-15.44-12.27-16.51a3.63,3.63,0,0,0-3.05,1c-7-1.89-14.23-1.84-21.5-1.75A209.55,209.55,0,0,1,210,42.63c-17.42-2-34.69-5.14-52.28-5.32h-.55a3.5,3.5,0,0,0-2,.54,22.31,22.31,0,0,0-7.86-2.21c-4.94-.5-10,.32-15,1.4a19.6,19.6,0,0,0-7.79,1,3.82,3.82,0,0,0-1.47,1.06c-1.21.25-2.42.49-3.64.71-6.08-.52-12.27.78-18.24,2.16l-.9.2c-4.52.39-9,.72-13.53,1.11-8.12.7-19.66-1-26,5.18a3.53,3.53,0,0,0,1.54,5.85,27.06,27.06,0,0,0,4.26.64,1.89,1.89,0,0,1,.18.06c7.6,1.74,15.28,2,23,2,1.69.13,3.38.22,5.08.26a64.29,64.29,0,0,0,9.42-.51,3.53,3.53,0,0,0,2.11.86,39.37,39.37,0,0,0,4.86,0,3.7,3.7,0,0,0-.11.9c.07,12.61,1.37,25.23-.37,37.79-.71,5.12-1.72,10.28-1.41,15.47a31.25,31.25,0,0,0-9,1.12,3.3,3.3,0,0,0-2,1.46l-.81,0a3.55,3.55,0,0,0-1-.23v0l-1,0c-7.68-.14-15.27-1.25-22.91-1.89a.48.48,0,0,1-.12,0h0a3.48,3.48,0,0,0-1,.09c1.14-7.75-.43-15.45-1.42-23.21-1.28-10-1-19.84-1-29.86,0-4.52-7-4.52-7,0,0,9.5,0,18.77.77,28.24.71,8.26,3.13,16.52,1.53,24.78a4,4,0,0,0-1.67,2.88,104.94,104.94,0,0,0-.63,12.75h.07c-.16,6.11-.37,12.21,0,18.32,0,.56,0,1.11,0,1.68h.16c.69,4,6.85,4,6.88-.43a44.4,44.4,0,0,1,1-9.84,3.47,3.47,0,0,0,.5-.38c7.82-7.3,18.91-6.31,27.88-1.8a26.14,26.14,0,0,1,3.06,5.19c-1,3.21.18,6.28,2.5,9a3.77,3.77,0,0,0,1,2.19,24.21,24.21,0,0,0,2.37,2.14,12.23,12.23,0,0,0,5.6,4l.71.29c4.35,3.55,10.2,6.94,15.34,5.34,7.42,3.37,15.35,5.48,22.88,4.48a4.83,4.83,0,0,0,2.59-1.17c1.64.34,3.29.62,4.94.88,4.72,3.44,12.58,3.74,18.74,1.77,2.36,2.55,5.32,3.33,8.22.47a10.05,10.05,0,0,0,1.48-1.9c4-2.21,5.87-6.31,7.27-10.88,2.13-7,4.77-13.75,9.74-19.11a43.57,43.57,0,0,1,9.54-2.15c4.94-.5,10-.3,14.94-.38,5.66-.08,10.78,2,16.47,2a3.43,3.43,0,0,0,1.1-.18,33.85,33.85,0,0,0,3,4c.11.24.23.47.34.7,1.84,7.31,10,11.91,17.62,13a28.84,28.84,0,0,0,6.83,2.66,3.84,3.84,0,0,0,2.19-.17,31.44,31.44,0,0,0,11.12,4.85,24.87,24.87,0,0,0,7.45.42c4-.3,7.53-2.63,11.47-.47,5.52,3,8.07,1,13-1.81a3.26,3.26,0,0,0,1.56-1.92,3.54,3.54,0,0,0,1.75.5c3.79,0,7.38.24,10.95-1.22,4.47-1.83,8.34-5.64,12.23-8.44,6.48-4.64,15.35-4.32,21.74-9.23C369.59,139.38,370.59,137.93,370,136.34ZM239,93.53a3.07,3.07,0,0,1-.26-.25C237.87,92.42,239.33,93,239,93.53Zm58.46,11.18c-1.18.2-2.36.42-3.53.66-1-.11-2.09-.2-3.14-.26a13.22,13.22,0,0,0-4.09-.65,2.52,2.52,0,0,0,.13-.49h.5a59.88,59.88,0,0,0,8.88.62h.48v0c.11,0,.23,0,.33,0l.51,0A.87.87,0,0,0,297.43,104.71Zm-31.27,5.61c-.08.31-.15.64-.22,1-.16-1.18-.34-2.35-.54-3.53h.32A3.26,3.26,0,0,0,268,107a2.83,2.83,0,0,0,.93.14c2.07,0,4.14-.11,6.21-.19l-2.7.93a4,4,0,0,0-1,.55C269.58,107.31,266.83,107.66,266.16,110.32Zm-20-14.68-4-.6L240,94.16A28.39,28.39,0,0,1,246.18,95.64ZM278,130.36c-5.61-2.87-6.48-9.86-5.61-15.63a3.21,3.21,0,0,0,1.87-.11l.08,0v0l.57-.2a39.59,39.59,0,0,1,12.37-1.57l.19,0,.17,0v0a3.41,3.41,0,0,0,1.62-.5,88,88,0,0,0,3.44,11.36,3,3,0,0,0-.54,1.25c-.53,2.77-1,5.52-4,6.48A13.85,13.85,0,0,1,278,130.36Zm6.49,11.7c4.58-1.51,5.23,3.78,5.12,6.8-.19,5.27-6.59,5.76-9.39,2a22.51,22.51,0,0,1-2.78-6.24C279.85,144,282,142.89,284.5,142.06Zm33.27,5.59c.1-.17.2-.34.29-.51l.15.48Zm11.78-9.17.61.26a10.3,10.3,0,0,0,7.28.26,42.16,42.16,0,0,0-1.33,4.73c-.76,1.66-1.91,2.86-3.85,2.58C327.78,145.65,324.74,141.11,329.55,138.48Zm13-22.5a24.51,24.51,0,0,1,2.29,7.62c0,.25.06.5.08.75a3.37,3.37,0,0,0-1,.38,9.82,9.82,0,0,0-3.67,3.53c-2.65.48-6.19-.5-8.26-1.06a11.86,11.86,0,0,1-6.69-5.35c-.35-2.5-.8-5-1.31-7.44a3.15,3.15,0,0,0,.74-1c1.48-.17,3-.33,4.45-.52a4.29,4.29,0,0,0,2.56-1.32,3.14,3.14,0,0,0,1.12-.42C336.78,111.93,340.43,113.42,342.57,116ZM266.94,66.56c.52,4.22,1,8.47,1.44,12.74a3.94,3.94,0,0,0-1.89.37,8.57,8.57,0,0,0-3.79,3.07,3.52,3.52,0,0,0-1-.31v-.07h-.5c-6-.18-11.71-1.65-17.71-1.27a3.53,3.53,0,0,0-2.89,1.69l-2.71.11c-8.64-1.21-17.39-.27-26.06.83l-3,.4c-6.88.28-13.76.53-20.64.67a4.49,4.49,0,0,0-.79-.4,10.3,10.3,0,0,0-3-.64c-4.78-1.1-9.71-2.35-14.33-.28a2.89,2.89,0,0,0-1.28,1.24c-1.91-10-6.28-19.43-7.23-29.87a4.25,4.25,0,0,0,2.6-3.46c8.43-.34,16.86-.38,25.3-.25,22.91.36,45.78,2,68.7,2.06a3.29,3.29,0,0,0,2.44-1C265.51,54.12,266.36,61.9,266.94,66.56ZM116.26,110.62c-.38-8.56,2.21-17.3,2.44-25.9s-.48-17.43-.53-26.15a3.48,3.48,0,0,0-.34-1.53c1.31-.18,2.63-.37,3.94-.57a33.85,33.85,0,0,0,8.52-.87,2.84,2.84,0,0,0,.87-.38c4.25-.38,8.51-.58,12.76-.67,2.11.5,4.4,1.11,6.35,1.45a22.9,22.9,0,0,0,4.32.27,72.9,72.9,0,0,0,1.37,8.3c.72,3.56,1.57,7.09,2.3,10.61,1.1,5.31,2.39,10.6,3.66,15.89-.24,8.56,2.4,16.79,3.2,25.26a3.69,3.69,0,0,0,1.85,2.9l0,.34c-3.81,8-2,17.88-1.2,26.5a7.89,7.89,0,0,0-6.38,2.81l-.6,0a3.6,3.6,0,0,0-3.1-4.25v0h-.37c-2.27-.13-4.55-.13-6.83-.07a71.62,71.62,0,0,0-9.44.44c-2.88.15-5.77.26-8.64.23a25.31,25.31,0,0,0-2.48-4.93,22.87,22.87,0,0,0-1.47-5.76l0-.11c-.06-4.68-.45-9.36-2.33-13.51-.09-1.49-.17-3-.2-4.49v-.5h-.06c-.42-3-4-3.66-5.82-2a14,14,0,0,0-1.47-.67C116.41,112.24,116.3,111.37,116.26,110.62Zm111.9,18c-6.39.09-12.79-.05-19.1,1.12a40.21,40.21,0,0,0-4,1,3.09,3.09,0,0,0-.86-.13c-7-.09-14-.87-21-.75a9.64,9.64,0,0,0-1.88-2.54,17.1,17.1,0,0,0-1.74-7.62q.17-2,.21-4,.54,0,1,.12a25.46,25.46,0,0,1,2.71.54c-.37,2.72,1.15,4.62,3.4,5.83a3.74,3.74,0,0,0,1.79.81V123h.26a16.56,16.56,0,0,0,7.34.62c7.28.39,14.58.25,21.86.65,10,.55,19.88,2.1,29.89,1.47.48.82,1,1.67,1.58,2.5a15.51,15.51,0,0,0-1.64-.18,3.63,3.63,0,0,0-3.38,2.47C239.05,130.23,233.85,128.53,228.16,128.62ZM294.32,156a9.85,9.85,0,0,0,1.45-2.72v0l.21.84a3.18,3.18,0,0,0,.93,1.58C296.08,155.79,295.22,155.91,294.32,156Zm17.46,1a3.5,3.5,0,0,0,.48-1l.24-.72a3.68,3.68,0,0,0,1.74.82l-.94.61A1.93,1.93,0,0,1,311.78,157Z"/><path class="cls-1" d="M135.71,79.9c0,2.13.08,4.26.2,6.39,0,.19,0,.38,0,.57H136c.57,4,6.58,4,6.91,0h0a1.77,1.77,0,0,0,0-.23,3.24,3.24,0,0,0,.52-2.9,28.12,28.12,0,0,1-.61-3c0-1.24-.07-2.49-.11-3.73,0-4.15.22-8.18.46-12.16.17-1.93.32-3.85.37-5.77l0-.23h0a2,2,0,0,1,0-.25c.08-4.3-6-4.47-6.89-.72a3.19,3.19,0,0,0-1.38,2.77c0,4.32.16,8.61.31,12.94A51,51,0,0,0,135.71,79.9Z"/><path class="cls-2" d="M97.26,100.35c-2.22-2-5.06-.3-5.6,2-3.1-.25-6.22-.31-9.36-.31-4.49,0-4.51,6.92-.06,7l.2.16a18,18,0,0,0,15.06,2A3.38,3.38,0,0,0,101,112a3.4,3.4,0,0,0,3.73-1.11,3.53,3.53,0,0,0,3.83-4.35,5.42,5.42,0,0,1-.34-1.88,18.68,18.68,0,0,0,.47-2.9c.2-2.45-2.08-3.66-4.1-3.36-1.65-1.93-5.2-2-6,1.16,0,.06,0,.13,0,.19A4.13,4.13,0,0,0,97.26,100.35Z"/><path class="cls-2" d="M161.61,134.92a50,50,0,0,0-.91-12.49c1.23-7-.55-15.25-1-22.06V97.86h-.12c-.11-3.58-4.5-4.27-6.21-2-.34-.16-.69-.3-1.05-.44a3.19,3.19,0,0,0-3.34-2.86,27.22,27.22,0,0,0-3.06.18l-1,.08a9.2,9.2,0,0,0-7.21.81,3.47,3.47,0,0,0-1,5.14l-.12.22a3.27,3.27,0,0,0-.54,0,16.6,16.6,0,0,0-3-4.17,3.21,3.21,0,0,0-3-1c-1.28-1.5-3.71-2.08-5.13-.32a15.42,15.42,0,0,0-1,1.43,3.34,3.34,0,0,0-4.62,1.18,10.79,10.79,0,0,0-1.39,3.57c-1.9,4.86,0,11.28,5.39,13a4,4,0,0,0,.58.13,5.41,5.41,0,0,0,3.47,2.33,17.7,17.7,0,0,0,2,2.91c.23.82.49,1.63.78,2.44-2.13,4.53-1.65,9.94-.35,14.86a2.91,2.91,0,0,0,1,3.49,9,9,0,0,0,1.7,2,3.34,3.34,0,0,0,3.2,2.48c5.75.22,11.53,2.65,17.28,2.16a7.49,7.49,0,0,0,4.81-.89,4.36,4.36,0,0,0,1-.93c1.9-1.26,3.55-3.27,3.38-5.49A26.91,26.91,0,0,0,161.61,134.92Zm-22.5-.82c0-.54,0-1.08.07-1.62h.14c0,.61.09,1.21.14,1.8a2.92,2.92,0,0,0-.4.29A3.75,3.75,0,0,0,139.11,134.1Z"/><path class="cls-2" d="M276.66,177.86h11.41l.2,0v0h.93a3.26,3.26,0,0,0,2.73-1.34,111.37,111.37,0,0,0,16.37-2.08,3.71,3.71,0,0,0,4.31-.42c.83-.66,1.72-1.25,2.54-1.91,2.45-1.94.81-4.89-1.59-5.6a3.57,3.57,0,0,0-3.42-2.91c-7.07-.27-14,1.23-20.9,2.26a36.64,36.64,0,0,0-10.5,1,3.22,3.22,0,0,0-2.26,2.05,16.4,16.4,0,0,0-5.35,1c-3.51,1.38-3.27,6.9.93,6.9H274C274.64,177.86,275.51,177.86,276.66,177.86Z"/><path class="cls-2" d="M373.91,158.06a17.34,17.34,0,0,0-8.38-.91,25.29,25.29,0,0,0-5.94-10.29,3.19,3.19,0,0,0-5.06.34,3.47,3.47,0,0,0-2.9,1,3.63,3.63,0,0,0-4.26,1c-.18-.12-.36-.24-.55-.35-3.65-2.26-6.52,2.57-4.24,5.49l.11.14a3,3,0,0,0,.61,1.69c1.35,1.85,2.85,3.57,4.21,5.41a3.72,3.72,0,0,0-1.35,2.67c-.43,2,.83,4.55,3.34,4.45.54,0,1.07-.08,1.6-.14.35.06.69.11,1,.14.32.74.64,1.49.95,2.26a3.55,3.55,0,0,0-3.81.39,3.09,3.09,0,0,0-3.79,2.44c-.06.28-.13.56-.19.84a3.38,3.38,0,0,0-.44,1.06,34.48,34.48,0,0,0-.65,3.9q-.19.93-.36,1.86c-.22,1-.45,1.88-.7,2.81a4.13,4.13,0,0,0-1.07-2.17,3.32,3.32,0,0,0,.53-3.32l-.12-.34h0a3.49,3.49,0,0,0-.59-.93l0-.05-.3-.29-.24-.19-.14-.1a3.23,3.23,0,0,0-1.83-.57A18.47,18.47,0,0,0,330.6,178a3.12,3.12,0,0,0-1.69,2.82l-.13.08c-2.45-.84-4.89-1.76-7.35-2.48-5.24-1.52-11-1-16.36-.9h-.41v.05a3.21,3.21,0,0,0-2.48,1.53c-2.89-.06-5.79,0-8.68.15a3.3,3.3,0,0,0-2.39-1.09c-3.68-.08-7.51-.53-10.65,1.75a3.9,3.9,0,0,0-1.33,1.66,19,19,0,0,1-2.62.4c-4.48.29-4.51,7.29,0,7,3.56-.24,6.81-1.43,10.11-2.49,4.35-.05,8.7-.35,13.06-.45,1.29,0,2.54-.11,3.78,0a3.17,3.17,0,0,0,2.2.81h0c1.62,0,3.25.28,4.88.28,1.5.35,3,.84,4.52,1.32a3.75,3.75,0,0,0-.95,4.49,18,18,0,0,0,2.94,4.56,6.1,6.1,0,0,0,.51,2.73c2.86,6.46,8.52,8.32,14.63,7.8a3.29,3.29,0,0,0,2.08.64c9-.16,15.86-3.18,22.67-8.89,3.64-3,6.44-6,7.9-10.63.14-.45.26-.9.36-1.36a3.32,3.32,0,0,0,1.76-2.93c.17-4.47,1.11-8.85,1.27-13.33a3.15,3.15,0,0,0-1.18-2.58,3.11,3.11,0,0,0-1-.93c0-.09,0-.18.05-.28A3.26,3.26,0,0,0,368,165.6a3.26,3.26,0,0,0,2.06-1.34,10.55,10.55,0,0,1,2,.59C376.24,166.55,378,159.73,373.91,158.06Zm-34.4,35.35c-1.48,2.5-3.12,3.77-4.83,4.2a29.3,29.3,0,0,0-10.38-5.4,6.23,6.23,0,0,0-1.17-.2c-.44-.39-.87-.79-1.28-1.18a23.67,23.67,0,0,0,8.84,1.5c2.65-.2,3.8-1.34,4-2.79a3,3,0,0,0,.85.1,9.62,9.62,0,0,0,6.21-1.75,4.07,4.07,0,0,0,.43-.4A32.37,32.37,0,0,1,339.51,193.41Z"/><path class="cls-2" d="M263.41,197.46a2.69,2.69,0,0,0,.73-2.27c-.2-1.84-.4-3.73-.58-5.61-.17-3.72-.62-7.45-.68-11.05a3.26,3.26,0,0,0-2.25-3.17q-.44-2.37-1.05-4.71a3.37,3.37,0,0,0-3.94-2.44A24.18,24.18,0,0,0,239,156.4c-7-4.2-15.31-6-21.36-1.84a3.73,3.73,0,0,0-1.56,2.13,17.05,17.05,0,0,0-6.65,2.54,19.54,19.54,0,0,0,1.3-3.89,5,5,0,0,0,.08-.76,32.28,32.28,0,0,0,2.74-3.48,3.38,3.38,0,0,0,.43-1l.29-.24a3,3,0,0,0,.92-3.3,17.45,17.45,0,0,1,4.86-.75c4.5-.11,4.51-7.11,0-7-9.74.24-15.9,5-20.8,13.16a3,3,0,0,0,.48,4.08,3.4,3.4,0,0,0,1.17,4.21l-.14.22a3,3,0,0,0-.33.3,54.67,54.67,0,0,0-5,7.05,3.66,3.66,0,0,0-.55,1.58c-.47.52-.94,1-1.43,1.52h0l-2.54,2.54a3.71,3.71,0,0,0-.76,1.12c-1.72.93-3.61.31-6.62-.75a3,3,0,0,0-2.93.4l-1.51-.4a3.56,3.56,0,0,0-3.92,5.22,3.87,3.87,0,0,0,3,5.46,68.05,68.05,0,0,1,8,1.78,3.66,3.66,0,0,0,4.32-4.48c3-.52,5.6-2.36,8-5.83-3.89,12-1,27.18,3.5,37.84,3,7,8.14,13.34,15.53,15.73a16.45,16.45,0,0,0,7.5.56,3.84,3.84,0,0,0,3.36,2.64,13.67,13.67,0,0,0,6.31-.66,3.69,3.69,0,0,0,1.94.66,23.37,23.37,0,0,0,13.23-3.25,14.28,14.28,0,0,0,5.62-4.82l.05,0c7.83-4.27,9.4-17.29,8.71-25.24A3.89,3.89,0,0,0,263.41,197.46ZM217.9,222.35c-5.51-2.47-8.72-8.62-10.73-14-2.71-7.23-4.82-18.12-3-27.11a3.7,3.7,0,0,0,1.51-1.81l.84-2.1c1.92-4,5.78-8.11,10.15-8.32a7.58,7.58,0,0,1,4,1.05c2.51,3.2,5.84,5.73,8.38,9a3.54,3.54,0,0,0,.89.78c.38.77.75,1.54,1.11,2.32.72,1.56,1.39,3.16,2.05,4.75.26,6.38,2.06,12.62,2.81,19a.88.88,0,0,0,0,.16c-.09.88-.15,1.75-.19,2.62-.54,2-.91,4.06-1.24,5.72a3.54,3.54,0,0,0,.3,2.17C230.75,221.54,223.92,225.05,217.9,222.35Z"/><path class="cls-2" d="M110.81,168.31c0-.5-.11-1-.15-1.48v-4.17a3.34,3.34,0,0,0-3-3.45l-.11-.22a3.08,3.08,0,0,0-2.83-1.75,30.33,30.33,0,0,0-1.62-4.6,3.41,3.41,0,0,0-.65-1,36.54,36.54,0,0,0-2.54-5.58,3.24,3.24,0,0,0,.65-4.23c-.49-.91-1-1.78-1.54-2.65a3.23,3.23,0,0,0-3.35-3.34v-.18c-.73,0-1.48,0-2.23,0a49.33,49.33,0,0,0-5.12-2.46c-2-.82-3.52.51-4.08,2.2a30.65,30.65,0,0,0-4.47-.43,3.08,3.08,0,0,0-2.94,1.62A15.7,15.7,0,0,0,67.6,143c-6.29,9-7.07,21.08-3.91,31.41a31.34,31.34,0,0,0,7,12.15,3.52,3.52,0,0,0,2.46,3.55l.65.23,0,0a3.1,3.1,0,0,0,2.47,2.9c.72.17,1.43.35,2.14.54,7.94,5.28,17.49,8.17,25.76,1.39a21,21,0,0,0,5.93-8.39,3.57,3.57,0,0,0,.94-1.59,20.38,20.38,0,0,0,.78-4.78A25.33,25.33,0,0,0,110.81,168.31Zm-36-22.94a10.86,10.86,0,0,1,6.57-2.8,4.28,4.28,0,0,0,.42.26,14.89,14.89,0,0,0,3.55,1.28,4.27,4.27,0,0,0,.27.69,42.86,42.86,0,0,1,3.23,8.39,89.9,89.9,0,0,0,2.3,12.6,39.88,39.88,0,0,0,2,11.88C89.76,180.1,87,183.29,83.07,185a3,3,0,0,0-1.22,1,6.76,6.76,0,0,1-1-.33c-7-3-10.39-11.12-11.68-18C67.84,160.29,69.42,150.8,74.81,145.37Z"/><path class="cls-2" d="M72.21,101.66c2.15,2.7,5.53.42,5.75-2.37l1.23,1c2.38,1.85,5.82.88,6-2.41,0-.1,0-.2,0-.29l.31,0a2.68,2.68,0,0,0,1.47-.28,13.26,13.26,0,0,0,1.71.28,2.68,2.68,0,0,0,2.17-.7,3.32,3.32,0,0,0,1.77-.28A16.14,16.14,0,0,0,95,97c3.39.21,4.18-3.82,2.48-6-1.25-1.58-2.91-2.06-4.72-2.8a2.88,2.88,0,0,0-2.92.55L89,88.32a15.69,15.69,0,0,0-3.9-2,3,3,0,0,0-1.94-.08,12.92,12.92,0,0,0-1.88-.47,12.54,12.54,0,0,0-4.78-.11l-.59-.1a3.1,3.1,0,0,0-3,1.8,7.41,7.41,0,0,0-.88,1A3.62,3.62,0,0,0,70.2,93,11.74,11.74,0,0,0,72.21,101.66Z"/><path class="cls-2" d="M61.85,127.27c-3.78-2.36-3.29-8.67-3.06-12.49a37.42,37.42,0,0,1,3.68-14.46c2.07-4-4-7.54-6-3.53-4.91,9.53-9.22,29.6,1.89,36.52C62.16,135.71,65.67,129.65,61.85,127.27Z"/><path class="cls-3" d="M70.71,141.41c.79-4.44,3.12-11.9,7.73-13.48,2.9-1,7-.77,10.08-.82A10.36,10.36,0,0,1,97.26,131c5.81,7.42,1.75,18.76,8.2,26.25,2.23,2.6,5.72,3.77,8.89,4.72,5.86,1.75,11.84,3.4,17.79,4.79,13,3,26.46,4.08,39.61,6.15,7.82,1.24,17.25,1.79,22.65-5.21,6-7.76,4.71-19,11.62-26.12,4.14-4.27,11.68-4.82,17.24-5.34,6.25-.58,14-.79,19.67,2.37,5,2.81,7.37,9.08,11.14,13.16,3.48,3.76,7.49,4.72,12.41,5a25.77,25.77,0,0,1,11.17,2.79c2.71,1.44,5.15,3.07,8.12,3.95,7.11,2.11,14.68-5.14,19.64,2.87.18.29.78.18,1,.12,3.72-.84,7.13-2.94,11.05-2.66.44,0,1.41-.24,1.34-.83-.78-6.23,9.29-3.76,13.12-4a11.72,11.72,0,0,0,9.12-4.44c.77-.86-1.11-.86-1.55-.35-5,5.6-11.57,2.91-18,3.53-3.38.31-5,2.45-4.57,5.74l1.33-.83a15.33,15.33,0,0,0-6.28.91c-1.44.48-2.83,1.07-4.28,1.53-.69.22-2.6-2.32-3.07-2.75-2.52-2.26-6.44-1.31-9.33-.61-4.23,1-7.72,1.24-11.73-.68-2.27-1.09-4.33-2.56-6.62-3.62-5.29-2.46-11.32-1-16.64-3.07s-8.27-8.77-11.64-13c-3.16-4-7.42-5.4-12.28-6.08-8.87-1.25-19.34-.45-27.65,3.07-8.13,3.44-9.65,12.93-11.83,20.43-1.72,5.88-4.82,11.48-11.11,13.27-6.69,1.91-14.77-.54-21.42-1.7-13.76-2.41-27.41-3.28-40.88-7.35-4.48-1.35-9.19-2-13.36-4.26-5.2-2.8-6.55-8.86-7.33-14.22C101.39,135,99.69,124.82,87.55,126c-5.22.5-10.32-.06-14.29,3.91-2.44,2.45-3.89,8.4-4.48,11.71-.14.79,1.81.46,1.93-.22Z"/><path class="cls-3" d="M341.94,154.18c-.26-3.68.32-5.36,4.52-6a24.57,24.57,0,0,0,4.63-1.18c6.46-2.28,12.38-5.52,19.39-5.75.57,0,2.1-.92.81-.88-8.9.3-15.92,5.79-24.5,7-4.78.66-7.15,2.08-6.78,7.3,0,.44,2,.08,1.93-.51Z"/><path class="cls-3" d="M181,117c-1.65,2.76-.08,7,.62,9.82a.49.49,0,0,0,.39.3c10.16,2.64,20.64,2.43,31.06,2.2,11.92-.27,23.85-.13,35.77-.13,8.76,0,20.61-2.89,24.78,7.18,2.93,7.07,2.09,14.92,8.81,19.91.55.41,2.32-.38,1.53-1-7.69-5.73-5.49-16.44-10.75-23.7-4.56-6.29-17.27-3.68-23.64-3.59-12.5.17-25-.11-37.51.17a170.28,170.28,0,0,1-19.17-.41c-1.39-.13-9-.32-9.58-2.47-.58-2.33-1.82-6-.5-8.22.5-.82-1.46-.67-1.81-.09Z"/><path class="cls-3" d="M340.5,145.86c-6.19-6.46,7.67-18.87,8.93-25.49.18-.94-1.79-.68-1.95.16-1.33,7-15.57,19.06-8.75,26.17.59.61,2.42-.16,1.77-.84Z"/><path class="cls-3" d="M271.06,125.25c-.67,0,.26-6.88.38-7.57.66-3.77,2.17-7.08,5.75-8.83,4.73-2.31,10.92-2.13,16.08-2.31,5.39-.18,10.73-.53,16.1-1,9.63-.87,20.23-2.81,29.8-.7,7,1.54,8.94,8.39,10.36,14.52.18.81,2.12.3,1.93-.52-1.71-7.39-4.13-13.65-12.13-15.42-4.84-1.06-10.11-.62-15-.37-7.92.4-15.82,1.33-23.72,1.95s-23.65-1.76-28.7,6.41c-1.35,2.18-5.91,15.2-1,15.12,1.06,0,1.53-1.29.21-1.27Z"/><path class="cls-3" d="M351.75,120.41c5.55-.63,12.17,3.25,15.37,7.65,2.52,3.47,1.42,8.79,5.05,11.26.63.43,2.37-.46,1.51-1-2.5-1.7-2.31-5.48-3.25-8.08a14.79,14.79,0,0,0-4.4-6c-3.62-3.13-9.24-5.57-14.07-5-1,.11-1.54,1.43-.21,1.28Z"/><path class="cls-3" d="M266.58,167.42c-.07,4.38-.65,8.87.69,13.11a.84.84,0,0,0,.89.46c7.77-.08,15.15-1.58,22.83-2.52a218.34,218.34,0,0,1,25.43-1.56c1.12,0,1.47-1.45.16-1.45-9.64,0-20,.1-29.49,2.09a98.31,98.31,0,0,1-15.37,1.93c-3.46.16-3.22-1.66-3.34-4.73-.11-2.48.12-5,.16-7.47,0-1-2-.75-2,.14Z"/><path class="cls-3" d="M267.47,169.39c8.36-.2,16.6-2.27,24.91-3.15,9.58-1,19.22-1.16,28.79-2.29,1.05-.12,1.5-1.51.19-1.36-8.93,1.06-17.92,1.36-26.88,2.11s-17.82,3.12-26.83,3.33c-1.08,0-1.5,1.39-.18,1.36Z"/><path class="cls-3" d="M317.91,162.17c-3.48,2.37-1.1,11.89-1,15.46a.54.54,0,0,0,.41.55c9.21,3.54,19.19-2.33,28.34-3.35.38,0,1.05-.28,1.07-.76.13-3.73,1.81-9.07-.09-12.58-1.74-3.2-4.15-3-7.53-3a74.68,74.68,0,0,0-12.65,1.32c-2.08.38-5.5.65-6.78,2.65-.57.89,1.41.89,1.84.2.93-1.45,5.86-1.67,7.23-1.88,2.86-.42,5.74-.68,8.62-.86,3.86-.24,7.15-.25,7.94,4.21.39,2.21.59,9.24-1.9,9.63-7.78,1.24-15.88,5.63-23.87,3.54-1.57-.41-2.06-13.15-.34-14.32,1.08-.73-.51-1.36-1.27-.84Z"/><path class="cls-3" d="M342.84,160.24c4.52-.93,9.06-1.83,13.56-2.89,4.89-1.16,12.65-4.32,17.25-1.27,2.54,1.68,2.45,5.57,1.72,8-1,3.35-7.47,2.14-10,2.21-6.93.2-13.68,2.57-20.56,3.34-.28,0-2.05.71-1,.8l1,.54c.34.48,2.09-.3,1.93-.52-.28-.39-.33-.7-.77-.73-.25.43-.21.59.14.47,1.25-.17,2.49-.38,3.73-.61,6.35-1.12,12.48-2.86,19-2.42,4.68.31,8.45-.86,9-6.13.78-7.09-6.65-7.18-11.39-6.56-7.79,1-15.54,3.41-23.24,5-.76.16-1.7,1-.35.73Z"/><path class="cls-3" d="M267.33,175.16a84.41,84.41,0,0,0,7.48,4.76c.29.15,2.08-.13,1.87-.59a21,21,0,0,0-6.17-8.23c-.34-.28-2.07.33-1.88.59,2.13,2.81,4.18,5.2,7.65,6.24.24.07,2-.27,1.76-.64-2.26-3.42-5.29-6.07-8.21-8.91L268,169c4,2.74,7.8,5.74,12.35,7.53.31.12,2.05-.27,1.7-.71a48.93,48.93,0,0,0-5.43-5.44c-.37-.35-2.14.35-1.82.66,3.41,3.4,6.87,6.46,11.84,6.87.29,0,1.66-.18,1.59-.66-.55-3.79-3.68-5.86-6.86-7.55-.4-.22-2.17.38-1.81.66a111,111,0,0,0,10.19,7.48c.3.18,2.1-.2,1.88-.59a27.75,27.75,0,0,0-6.86-8.23l-1.81.66c3.79,3,7.51,5.85,12.35,6.85.22,0,2-.24,1.76-.64-1.82-2.93-4.66-4.93-6.86-7.55l-1.82.66c3.46,3.31,7.62,6.46,12.52,6.87.19,0,1.82-.29,1.59-.66a55.55,55.55,0,0,0-6.85-9.59c-.33-.35-2.13.28-1.82.66,2.81,3.48,6.62,6.94,11,8.21.24.07,2-.22,1.76-.64-1.31-2.52-2.76-5-4.08-7.48l-1.87.59c2.15,2.25,4.1,4.5,6.8,6.12.34.21,1.91-.05,1.87-.59a25.31,25.31,0,0,0-1.36-6.12l-1.87.59a80.33,80.33,0,0,0,7.48,6.8c.42.33,2.12-.43,1.81-.66a83,83,0,0,1-7.47-6.8c-.28-.28-2,.16-1.88.59a25.31,25.31,0,0,1,1.36,6.12l1.88-.59c-2.7-1.62-4.65-3.87-6.8-6.12-.29-.3-2.06.24-1.88.59,1.32,2.52,2.77,5,4.08,7.48l1.76-.64c-4.27-1.24-8-4.73-10.76-8.11l-1.82.66a55,55,0,0,1,6.74,9.45l1.59-.66c-4.64-.4-8.7-3.62-11.95-6.73-.34-.33-2.13.29-1.82.66,2.16,2.57,5,4.52,6.74,7.41l1.76-.64c-4.79-1-8.39-3.77-12.12-6.75-.41-.33-2.12.41-1.81.66a27.67,27.67,0,0,1,6.74,8.09l1.87-.6a110.57,110.57,0,0,1-10.2-7.47l-1.81.66c3.08,1.65,6.2,3.69,6.74,7.41l1.59-.67c-4.75-.39-8.07-3.54-11.27-6.72l-1.82.66a49.9,49.9,0,0,1,5.44,5.44l1.7-.71c-4.47-1.76-8.19-4.75-12.12-7.43-.39-.26-2.16.33-1.82.66,2.88,2.81,5.86,5.39,8.1,8.77l1.76-.64c-3.42-1-5.22-3.25-7.31-6l-1.87.59a20.89,20.89,0,0,1,6.06,8.08l1.88-.59a84.31,84.31,0,0,1-7.48-4.75c-.46-.32-2.11.46-1.82.66Z"/><path class="cls-3" d="M345.39,164.63c2.76.28,5.37,1.19,8.16,1.36.43,0,1.77-.43,1.23-1.1-1.2-1.46-2.06-3-3.54-4.2l-1.31,1.17c2.68.91,4.84,2.63,7.29,4,.49.27,2,0,1.72-.8a11.79,11.79,0,0,0-4.3-6.4c-.65-.49-2.36.42-1.5,1.08,3.08,2.39,5.85,4.62,9.7,5.53.41.09,1.87-.15,1.53-.89a19.39,19.39,0,0,0-4.15-5.59l-1.64.95c2.67,2.1,5.12,4.35,8.34,5.53.49.18,1.48-.09,1.54-.71.29-2.86-1.17-5-2-7.65l-1.85.67c1.9,2.71,4,5.12,7.12,6.33.45.17,1.54-.09,1.54-.71a27.68,27.68,0,0,0-.69-7l-1.71.8c1.52,1.23,3.23,2.16,4.75,3.39.64.52,2.35-.39,1.5-1.08-1.52-1.24-3.23-2.16-4.76-3.4-.49-.39-1.91,0-1.71.8a26.78,26.78,0,0,1,.67,6.62l1.54-.71c-2.89-1.1-4.76-3.46-6.48-5.9-.41-.6-2.11-.12-1.85.67.83,2.5,2.31,4.55,2,7.3l1.54-.71c-3.09-1.13-5.43-3.36-8-5.35-.54-.42-2.27.31-1.64,1a18.16,18.16,0,0,1,4,5.28L364,164c-3.75-.88-6.37-3.05-9.33-5.35l-1.5,1.08a10.47,10.47,0,0,1,3.86,5.84l1.72-.8c-2.57-1.43-4.86-3.21-7.66-4.16-.61-.21-2.16.49-1.32,1.16a24.8,24.8,0,0,1,3.26,4l1.23-1.09c-2.77-.17-5.4-1.08-8.15-1.36-.91-.1-2,1.21-.69,1.35Z"/><path class="cls-3" d="M341.11,151.72c2.71.76,4.67,2.72,6.6,4.66.66.65,2.3-.35,1.48-1.17-2-2-4.14-4.06-7-4.86-.89-.25-2.28,1-1.09,1.37Z"/><path class="cls-3" d="M354.49,144.07c4.79,2.79,10.39,7,10,13.18-.06.9,1.89.56,1.94-.19.43-6.57-5.29-11-10.41-14-.63-.37-2.38.51-1.52,1Z"/><path class="cls-3" d="M366.52,166.93c.51,8,1.59,16-.8,23.77-2.71,8.87-11,14.44-19.44,17C338.59,210,330,209.4,323.1,205.2c-5.48-3.33-11.74-10-10.4-16.93.11-.54-1.81-.21-1.91.31-1.54,7.91,6.19,15.06,12.48,18.44,6.67,3.59,14.71,3.34,21.88,1.73A32.92,32.92,0,0,0,364.91,196c6-8.55,4.16-19.82,3.54-29.54,0-.43-2-.08-1.93.52Z"/><path class="cls-3" d="M348.17,169.65c.47,2.16,1.8,4,2.49,6.16,1.12,3.45.86,7.3.4,10.83a26.78,26.78,0,0,1-8.56,16.26,17.5,17.5,0,0,1-19,3.47c-6.44-2.83-12.1-11-10.12-18.05.22-.78-1.73-.5-1.94.21-2.18,7.76,4,15.33,10.54,18.83,5.16,2.76,11.35,1.95,16.49-.35A25,25,0,0,0,351,193.62a31.94,31.94,0,0,0,2.37-12.17,29.77,29.77,0,0,0-.78-6.16c-.52-2.21-2-4-2.49-6.16-.16-.74-2.1-.25-1.93.52Z"/><path class="cls-3" d="M266.94,197.66c9,0,35,1.28,34.89-12.68-.52.22-1.06-.12-1.59.88H305c.42,0,2.21-1,1.25-1h-4.76c-.35,0-1.59,0-1.59.54.08,12.75-23.09,11.51-31.72,11.52-.41,0-2.2.74-1.24.74Z"/><path class="cls-3" d="M270.83,191.71c10.44-.86,20.65-3.29,30.86-5.49.46-.1,1.32-.84.44-1.06-5.9-1.48-13-1.64-18.65.8-.26.11-.94.67-.37.91,7.51,3.06,17.54-1.54,24.27-4.82.55-.27.87-1,0-1a108.61,108.61,0,0,0-13.85.69c-.43.06-1.76.89-.7,1.11,9.47,2,19.15,1.31,28.76,1.27.76,0,2.05-1.26.74-1.26H310.07c-.33,0-2,.73-1.13,1.17,8.22,4.21,17.53,11.12,27.28,9.39,8.39-1.49,5.51-9.39,7.76-15.34.26-.68-1.68-.42-1.93.25-2.4,6.31,1.55,14.81-9.46,14.25-7.85-.4-15.33-6.12-22.12-9.59-.38.35-.76.87-1.13.87h12.23c.25,0,.49-.58.74-1-9.46,0-19,.72-28.33-1.24-.24.37-.48.79-.71,1.16,3.84-.49,9.12.41,12.46-1.22a63.37,63.37,0,0,1-10.44,3.92,34.4,34.4,0,0,1-4.93,1c-1.1.15-7.61.16-2.15-.82a31.15,31.15,0,0,1,12.75.57l.45-1.06c-10,2.16-20.07,4.55-30.33,5.39-1,.08-1.58,1.24-.25,1.13Z"/><path class="cls-3" d="M221.91,152c-10.34,3.14-19.19,8.71-22.89,19.31-2.08,6-1.83,12.54-1.7,18.78a88,88,0,0,0,2.22,19.35c2.72,11.08,10.33,19.8,21.82,22,9.86,1.88,24,5.35,31.45-3.62.48-.57-1.43-.35-1.77.06-4.93,5.89-12.9,5.05-19.73,4.1-5.42-.76-10.89-1.56-15.88-3.92-9.25-4.37-13.24-14.31-14.94-23.77s-2.25-20.43-.45-29.86c2.22-11.64,11.25-18.35,22.08-21.65,1.12-.34.93-1.12-.21-.77Z"/><path class="cls-3" d="M221.12,152.1c2.28,1.68,5.06.91,7.82,1.18a38.13,38.13,0,0,1,16.41,5c8,4.68,13.15,12.76,16,21.36s3,17.79,1.85,26.6c-1.15,9-4.54,20.23-13.69,23.95-1.25.51-.11,1.18.77.82,16.43-6.67,17.13-32.14,14.33-46.74a41.46,41.46,0,0,0-14.25-24.53,35.62,35.62,0,0,0-11.69-6.14,38.3,38.3,0,0,0-7.45-1.26c-1.94-.21-6.67.22-8.3-1-.56-.41-2.34.37-1.79.77Z"/><path class="cls-3" d="M208.29,175.88c-7.74,10.57-6.61,26.36.53,37,5.66,8.42,17.88,14.5,24.88,4.41,3.22-4.63,2.65-12.05,2-17.31a35.68,35.68,0,0,0-6.25-16.58c-4.46-6.46-13.8-16.62-21.2-8.19-.82.93,1,1.29,1.62.61,6.82-7.77,16.09,5.65,19.49,10.94,5.09,7.95,6.34,20.12,3.11,28.9-5.3,14.39-21-.81-24.37-8.1-4.47-9.66-4.66-22.27,1.77-31.06.74-1-1.08-1.35-1.62-.61Z"/><path class="cls-3" d="M219.88,180.12c-7.22,5.76-4.72,19.64-.47,26.34,3.14,4.95,13.32,9.16,15.13.87.15-.71-1.79-.39-1.93.25-1.48,6.78-8.32,1.76-10.49-.66-2.35-2.61-3.48-6.08-4.18-9.44-1.11-5.25-1.08-13.43,3.49-17.07.86-.68-1.08-.66-1.55-.29Z"/><path class="cls-3" d="M227.68,192.15c-2.79-2.68-6.05-4.79-8.84-7.47l-1.69.75c4.8,2.25,7.81,7.16,12.92,8.84.4.14,1.77-.07,1.75-.67a7.05,7.05,0,0,0-2.1-4.84c-.38-.41-2.2.28-1.81.69a6.71,6.71,0,0,1,2,4.67l1.75-.67c-5.07-1.67-8.13-6.6-12.92-8.84-.34-.16-2.13.33-1.69.76,2.79,2.69,6.05,4.79,8.84,7.48.41.4,2.2-.32,1.81-.7Z"/><path class="cls-3" d="M223.92,184.05c-.72,1.07.7,2.31,1.36,3a49.92,49.92,0,0,1,4,4.48c.45.65,2.08.17,1.85-.69a13,13,0,0,0-5-7.1c-.58-.41-1.86,0-1.71.82.1.56.59.83.68,1.36.16.92,2.09.43,1.93-.51-.1-.57-.59-.83-.68-1.36l-1.71.82a11.85,11.85,0,0,1,4.54,6.49l1.85-.69a31.31,31.31,0,0,0-3.16-3.55c-.54-.58-1.08-1.16-1.59-1.77-.27-.32-.52-1.1-.76-.75.69-1-1.12-1.35-1.63-.59Z"/><path class="cls-3" d="M228.19,196.22a19.38,19.38,0,0,0-6.41,6.42c-.35.52.47.7.81.68,4.17-.33,7.31-3.86,9.17-7.36.43-.8-.94-.68-1.31-.54a8.56,8.56,0,0,0-5.27,4.5c-.23.54.37.72.8.68,3.62-.34,6-3.42,8.38-5.84l-1.76-.12c-1.37,4.61-3.39,9-4.76,13.6-.25.84,1.49.4,1.76.12a5.42,5.42,0,0,0,1.54-2.36c.24-.8-1.72-.54-1.94.2-.39.57-.79,1.14-1.18,1.72l1.76.12c1.38-4.61,3.39-9,4.76-13.6.26-.85-1.48-.4-1.76-.12-1.78,1.82-3.85,4.79-6.58,5l.81.68a6.7,6.7,0,0,1,4.25-3.66l-1.32-.54c-1.42,2.67-3.86,6-7.13,6.24l.8.68a17.33,17.33,0,0,1,5.82-5.82c1.14-.63-.52-1.11-1.24-.72Z"/><path class="cls-3" d="M220.37,193.29a17.8,17.8,0,0,0,.52,5.59c.21.68,1.77.3,1.77-.37v-4.07a8,8,0,0,1-1.77.36c.05,1.56.72,3,.75,4.61,0,.88,2,.49,2-.22,0-1.67-.79-3.25-.85-4.91,0-.67-2.11-.3-2.11.37v4.08c1-.13,1.48-.25,2.13-.37a16.77,16.77,0,0,1-.58-5.28c0-.88-1.84-.5-1.84.21Z"/><path class="cls-3" d="M214.47,176.81c-5.36,3.88-6.38,11.33-6.5,17.5s3.07,11.7,6.66,16.55c6.17,8.3,17.41,14.36,23.3,2.56.17-.36-1.66-.2-1.92.31-6.68,13.39-18.76-1.4-22.93-8.72-4.46-7.85-5.24-22.2,2.89-28.08.81-.59-1.13-.39-1.5-.12Z"/><path class="cls-3" d="M210.72,175.66c-9.62,4-5.9,24.82-.47,30.85.56.62,2.4-.14,1.78-.83-3.12-3.46-4-8.93-4.57-13.38s-1.1-13.43,4.1-15.58c1.22-.52.13-1.46-.84-1.06Z"/><path class="cls-3" d="M206.11,185.2c-4.47,12.84,3.78,26.8,15.67,32.09.51.23,2-.57,1.83-.63-11.77-5.25-20-19.08-15.6-31.82.1-.29-1.74-.1-1.9.36Z"/><path class="cls-3" d="M235.22,199c-.25-11.78-7.36-26.5-19.15-30.5-11.38-3.85-22.1,7.74-16.77,18.78.3.64,2.18,0,1.93-.52a14.18,14.18,0,0,1,1.85-14.68c4.86-6.46,14-2.48,18.71,1.63,7,6.11,11.3,16.61,11.49,25.81,0,.56,1.95.2,1.94-.52Z"/><path class="cls-3" d="M214.94,229.37l0,.26c0,.21.16.25.34.26,7.64.45,13.26-2.86,17.92-8.58,7-8.66,3.07-20.67,1.38-30.43-.08-.44-2,0-1.93.52,1.15,6.64,2.93,13.24,2.54,20a19.45,19.45,0,0,1-4.74,11.2c-2,2.46-4.23,4.6-7.4,5.55,0,0-6.16.85-6.16.87.08-.52-1.84-.17-1.91.32Z"/><path class="cls-3" d="M220.44,160.94c5.14,4.91,11.43,8.44,15.64,14.28a46.41,46.41,0,0,1,7.61,18.83,60.85,60.85,0,0,1,.05,20.94c-.85,5.37-2.84,13.62-8.52,15.82-1.26.49-.12,1.22.78.87,10.81-4.19,10.95-22.8,10.38-32.06-.45-7.38-2.35-15.23-6.18-21.62-4.61-7.68-11.65-11.8-18-17.84-.52-.5-2.35.25-1.79.78Z"/><path class="cls-3" d="M241.62,221.46c4.55,1.32,9,2.77,13.6,4.08.5.15,2.23-.63,1.57-.82-4.55-1.31-9.05-2.77-13.6-4.08-.5-.14-2.23.63-1.57.82Z"/><path class="cls-3" d="M244.22,216.62c3.13,1.59,6.18,3.35,9.63,4.13.45.1,2.13-.63,1.59-.75-3.38-.76-6.35-2.49-9.4-4-.51-.26-2,.54-1.82.65Z"/><path class="cls-3" d="M243.71,208.71c4,3.23,8.09,6.68,13.1,8.25.86.28,2.28-1,1.11-1.34-4.88-1.53-8.82-4.91-12.73-8.05-.7-.57-2.37.43-1.48,1.14Z"/><path class="cls-3" d="M245.57,205.06c3.66,2.57,8.48,3.23,11.51,6.73.37.44,2-.4,1.93-.51-3.08-3.57-7.89-4.25-11.61-6.86-.43-.3-2.05.48-1.83.64Z"/><path class="cls-3" d="M242.86,195.57c4.6,3.73,9.83,6.59,15,9.52.52.3,2.17-.49,1.81-.7-5.13-2.93-10.36-5.79-15-9.52-.45-.37-2.2.38-1.81.7Z"/><path class="cls-3" d="M241.85,189.07a92.21,92.21,0,0,1,16.81,10.1c.67.5,2.37-.45,1.49-1.1A94.07,94.07,0,0,0,243,187.78c-.79-.36-2.24.78-1.12,1.29Z"/><path class="cls-3" d="M237.42,177.87c6.39,5.94,15.92,6.84,21.75,13.6.3.35,2.1-.33,1.82-.65-5.83-6.76-15.36-7.66-21.75-13.6-.36-.34-2.1.4-1.82.65Z"/><path class="cls-3" d="M234.85,172.59a155.84,155.84,0,0,1,22.43,11.56c.57.36,2.34-.46,1.53-1a154.43,154.43,0,0,0-22.44-11.56c-.61-.26-2.36.62-1.52,1Z"/><path class="cls-3" d="M229.38,164.32c10.05,1.52,17.37,7.63,25.71,12.88.47.29,2.08-.5,1.82-.66-8.42-5.3-15.82-11.43-25.94-13-.46-.07-2.11.67-1.59.74Z"/><path class="cls-3" d="M230.48,163.83c6.08.24,11.11,3.86,16.6,6,.6.23,2.35-.63,1.53-1-5.78-2.28-11-6-17.39-6.2-.74,0-2.05,1.07-.74,1.12Z"/><path class="cls-3" d="M229.11,160.41c5.25,0,10,.91,14.44,3.91.55.38,2.3-.4,1.8-.74-4.73-3.22-9.84-4.2-15.48-4.24-.7,0-2.06,1.06-.76,1.07Z"/><path class="cls-3" d="M225,162c2.13-2.88,4-6,6.11-8.84.58-.78-1.39-.72-1.82-.13-2.13,2.88-4,6-6.12,8.83-.58.79,1.39.73,1.83.14Z"/><path class="cls-3" d="M229.63,164.94c2.75-2.94,3.69-7,6.11-10.2.76-1-1.06-1.34-1.62-.61-2.42,3.17-3.38,7.27-6.12,10.2-.84.89,1,1.26,1.63.61Z"/><path class="cls-3" d="M233.85,167.88c1.29-2.69,1.92-5.81,4-8,.48-.51-1.41-.31-1.76.07-2.16,2.31-2.82,5.5-4.16,8.27-.2.41,1.66.24,1.92-.3Z"/><path class="cls-3" d="M236.57,173.31c2.57-4.63,4.35-9.59,8.08-13.49.44-.46-1.42-.25-1.76.11-3.78,4-5.61,9-8.23,13.7-.18.32,1.62.18,1.91-.32Z"/><path class="cls-3" d="M242,173.33a44.53,44.53,0,0,1,6.05-10.76c.47-.61-1.44-.4-1.78,0a45.67,45.67,0,0,0-6.19,11c-.21.51,1.69.29,1.92-.28Z"/><path class="cls-3" d="M243.37,179.44A46.06,46.06,0,0,1,251.45,168c.5-.51-1.4-.34-1.77,0a47.18,47.18,0,0,0-8.23,11.68c-.22.44,1.64.26,1.92-.29Z"/><path class="cls-3" d="M244,189.16c4.85-6.45,8.06-13.94,12.91-20.39.57-.76-1.39-.68-1.81-.12-4.86,6.45-8.07,13.95-12.92,20.4-.57.75,1.4.67,1.82.11Z"/><path class="cls-3" d="M248.75,195.27c1.31-2.68,2.36-5.49,3.54-8.24s2.72-7.62,5.47-9c1.19-.61.1-1.38-.8-.92-2.53,1.28-3.84,4.23-5,6.65-1.84,3.73-3.17,7.69-5,11.43-.44.9,1.51.74,1.81.1Z"/><path class="cls-3" d="M250.18,207.37c-.33-8.53,5.62-16.2,10.14-23,.56-.84-1.41-.78-1.83-.15-4.57,6.83-10.6,14.63-10.26,23.28,0,.95,2,.59,2-.18Z"/><path class="cls-3" d="M250.16,218.17c2.25-8.76,7.31-16.25,10.88-24.47.15-.36-1.69-.18-1.91.33-3.57,8.22-8.63,15.71-10.88,24.47-.11.45,1.78.17,1.91-.33Z"/><path class="cls-3" d="M249.43,223.15c4-5.56,6.21-12.13,10.2-17.68.56-.77-1.41-.67-1.82-.11-4,5.56-6.2,12.12-10.19,17.68-.56.77,1.41.67,1.81.11Z"/><path class="cls-3" d="M250.77,229.19c2.54-3.77,5.33-7.33,8.16-10.88.48-.6-1.44-.38-1.78,0-2.83,3.55-5.62,7.11-8.15,10.88-.45.66,1.47.41,1.77,0Z"/><path class="cls-3" d="M348.54,200.5a5.66,5.66,0,0,1,2,1.13c1.09.72,2.15,1.49,3.23,2.21.52.35,2.31-.41,1.54-.93-1.08-.72-2.15-1.48-3.23-2.21a6.11,6.11,0,0,0-2.38-1.24,1.77,1.77,0,0,0-1.37.37c-.28.24-.24.62.18.67Z"/><path class="cls-3" d="M351.08,194.34c2.17.77,3.73,2.4,5.31,4,.5.5,2.33-.23,1.8-.76-1.66-1.66-3.32-3.37-5.57-4.17a1.58,1.58,0,0,0-1.37.17c-.23.14-.62.62-.17.78Z"/><path class="cls-3" d="M353.6,189.36c1,2.68,4.21,4.28,6.18,6.21.4.39,2.19-.32,1.81-.69-1.9-1.86-5.06-3.45-6-6-.21-.53-2.11.06-1.94.52Z"/><path class="cls-3" d="M353,183.42c2.34,3.61,6.78,4.92,9.52,8.16.58.69,2.41-.1,1.76-.87-2.73-3.23-7.2-4.59-9.52-8.16-.49-.76-2.33,0-1.76.87Z"/><path class="cls-3" d="M353,177.94a34.52,34.52,0,0,0,12.37,9.62c.62.28,2.37-.61,1.52-1a33.8,33.8,0,0,1-12.11-9.42c-.46-.56-2.31.14-1.78.79Z"/><path class="cls-3" d="M353.12,172.58a31.33,31.33,0,0,1,10.07,6.71c.49.48,2.32-.25,1.79-.76a31.94,31.94,0,0,0-10.32-6.89c-.59-.25-2.35.61-1.54.94Z"/><path class="cls-3" d="M357.06,170.4a29.63,29.63,0,0,1,5.44,4.08c.36.35,2.11-.37,1.82-.66a30.08,30.08,0,0,0-5.44-4.08c-.47-.29-2.07.51-1.82.66Z"/><path class="cls-3" d="M362.12,169.19c.7,0,1.28.78,1.75,1.24s2.24-.28,1.8-.72a3.94,3.94,0,0,0-2.34-1.48,2,2,0,0,0-1.36.37c-.29.23-.25.56.15.59Z"/><path class="cls-3" d="M350.2,149.79v.68c0,.83,1.94.42,1.94-.23v-.68c0-.83-1.94-.42-1.94.23Z"/><path class="cls-3" d="M354.09,178.19c2.6-2.63,4.89-5.53,7.48-8.16.47-.48-1.41-.28-1.76.08-2.6,2.63-4.89,5.53-7.48,8.16-.47.47,1.41.28,1.76-.08Z"/><path class="cls-3" d="M354.09,185.64c3.69-4.55,6.5-9.73,10.19-14.28.4-.49-1.45-.23-1.75.14-3.69,4.54-6.5,9.73-10.19,14.27-.4.49,1.45.23,1.75-.13Z"/><path class="cls-3" d="M355.53,191.67c2.81-5,5.45-10,9.44-14.16.47-.49-1.41-.29-1.77.07-4.05,4.21-6.73,9.36-9.59,14.39-.2.37,1.62.22,1.92-.3Z"/><path class="cls-3" d="M355.48,200c2.73-4.78,5.53-9.47,9.39-13.44.82-.84-1.07-.93-1.57-.41-3.95,4.06-6.84,8.85-9.64,13.75-.49.85,1.47.72,1.82.1Z"/><path class="cls-3" d="M354.08,205.34l8.16-8.16c.4-.4-1.42-.17-1.75.16l-8.15,8.16c-.4.4,1.42.16,1.74-.16Z"/><path class="cls-3" d="M289,115c-4.53-.42-9.79-1.23-14,.9-4.48,2.25-3.28,8.14-1.21,11.68a11.54,11.54,0,0,0,13.63,4.66c6.84-2.54,4.86-12.12,2.16-17-.42-.74-2.26,0-1.77.85,2.41,4.33,4.26,12.32-1.24,15-4.57,2.24-10.29-2.06-11.87-6.18-1.49-3.92-1.06-7.7,3.45-8.71,3.28-.74,6.9-.16,10.21.14.93.09,2-1.27.67-1.38Z"/><path class="cls-3" d="M334.26,110.22c-11.15.58-10.86,21.32,1.13,19.22a12.2,12.2,0,0,0,9.32-7.91c1.66-5.17-2.92-8.47-7.26-9.89-.83-.28-2.27.92-1.11,1.3,3.61,1.18,7.27,3.46,6.65,7.76-.45,3.17-3.32,5.74-6.12,6.93-10.14,4.3-12.25-15.5-2.78-16,1.1-.06,1.49-1.49.17-1.42Z"/><path class="cls-3" d="M332.55,135.86h-2c-.32,0-1.27.42-1.37.82-.59,2.41-1.29,5.75,0,8s5.23,1.31,6.76-.26c1.86-1.91,1.34-5.28-.2-7.19-1.77-2.19-4.91-.81-6.47.88-.45.48,1.42.26,1.76-.1.76-.83,1.35-1.28,2.35-.58a4.38,4.38,0,0,1,1.43,2.1,5.05,5.05,0,0,1-.83,5.26c-1.92,2-3.34-1.23-3.49-2.7a17.43,17.43,0,0,1,.61-5.7,3.75,3.75,0,0,1-1.36.42h2c.56,0,2.11-1,.82-1Z"/><path class="cls-3" d="M288.71,140.09c-2,0-4-.35-5.91.43s-3.07,3.47-3.36,5.51c-.53,3.8,3.6,9,7.63,8.23,4.8-.9,5-5.72,3.78-9.58a7,7,0,0,0-3.36-4.31,2.18,2.18,0,0,0-3.24,1.89c-.09,1.05,1.88.81,2-.12a1.28,1.28,0,0,1,.51-1l-1.14.42c5.37.37,5.4,14.1-.66,10.74a7.11,7.11,0,0,1-3.13-8c1.08-3.45,3.9-2.76,6.76-2.71,1.13,0,1.45-1.48.15-1.5Z"/><path class="cls-3" d="M293.78,114.59c0,14.73.66,29.45.68,44.18l1.94-.52c0-7.41-.18-14.83-.25-22.24,0-4.49-.07-9,0-13.47,0-1.19-.72-6.72.2-7.63.36-.35-1.43-.11-1.74.19-.82.82-.35,3.94-.37,5-.07,4.8,0,9.6,0,14.39.06,8.11.25,16.22.26,24.32,0,.24,1.94,0,1.94-.52,0-14.73-.66-29.45-.68-44.18,0-.24-1.94,0-1.94.52Z"/><path class="cls-3" d="M298.53,115.07c.06,14.29,1.3,28.54,1.36,42.83,0,1,2,.79,2-.13-.06-14.51-1.3-29-1.36-43.51,0-1.05-2-.79-2,.13.06,14.52,1.3,29,1.36,43.51l2-.13c-.06-14.29-1.3-28.54-1.36-42.83,0-1-2-.79-2,.13Z"/><path class="cls-3" d="M304.66,113.09c0,14,.65,28.09.68,42.14l1.93-.37c0-6.88-.58-13.72-1.19-20.57-.53-5.9-2.49-12.31-.17-18,.26-.64-1.67-.41-1.93.24-1.94,4.78-.91,10.27-.18,15.21a173.39,173.39,0,0,1,1.54,23.67c0,.61,1.93.25,1.93-.37,0-14.05-.65-28.1-.68-42.15,0-.82-1.93-.41-1.93.24Z"/><path class="cls-3" d="M308.06,111.74c-1.21,14.57,1.24,29.07,1.36,43.63,0,.56,1.93.2,1.93-.51,0-7.92.42-15.83.62-23.75.16-6.92-1.1-13.56-1.3-20.44,0-.57-1.95-.2-1.93.52.21,7.4,1.44,14.52,1.26,22s-.55,14.8-.58,22.21l1.93-.51c-.11-14.49-2.56-28.89-1.36-43.38.06-.74-1.88-.35-1.93.26Z"/><path class="cls-3" d="M313.55,112.88c-2.37,3.44,0,9.94.5,13.65,1.35,9.81.8,20.15.8,30l1.95-.17c-.06-14.06-1.3-28.09-1.36-42.15,0-1-1.95-.63-1.95.17.06,14.07,1.3,28.09,1.36,42.15,0,1,1.95.64,1.95-.17,0-8.31,0-16.62-.45-24.92a82.62,82.62,0,0,0-.87-8.74c-.45-2.78-1.82-7.18-.1-9.67.58-.85-1.39-.82-1.83-.18Z"/><path class="cls-3" d="M317.57,113.05c-.54,13.87,1.91,27.61,2,41.47,0,1,1.94.66,1.95-.17.08-13.46,2.42-27.8-1.37-41-.25-.86-2.18-.33-1.93.52,3.75,13,1.42,27.25,1.35,40.61l1.95-.17c-.12-13.85-2.58-27.59-2-41.46,0-1-1.92-.67-1.95.16Z"/><path class="cls-3" d="M322.34,112.55c-1.24,13.61,1.24,27.17,1.36,40.78l1.93-.51c-.62-13.37.68-26.92-2-40.11-.08-.39-2,.08-1.93.52,2.71,13.19,1.42,26.74,2,40.1,0,.32,1.93,0,1.93-.51-.12-13.61-2.6-27.18-1.36-40.79,0-.23-1.88,0-1.93.52Z"/><path class="cls-3" d="M338.12,102.94c-2.82.68-5.38-.6-8-1.25-2.3-.57-5-.44-7.34-.69a135.9,135.9,0,0,1-18-3.44c-5.27-1.32-10.48-2.31-15.84-3.2-2.44-.41-6.27-.87-8.06,0,1.2-.58.1-1.28-.78-.85l-.35.17c-.26.12-.64.34-.58.68l0,.14c0,.18.24.24.38.29,2.55.84,5.55.22,8.19.66,6.59,1.1,12.94,2.53,19.43,4.08a134.92,134.92,0,0,0,16.71,2.82c4.71.51,9.81,2.75,14.49,1.62,1.18-.29.89-1.32-.27-1Z"/><path class="cls-3" d="M155.11,51.91c-2.14,6.4,1.55,13.27,2.24,19.66,1.08,10.05,2.46,20.06,3.36,30.13.8,9.09.9,18.21,1.23,27.32.11,3.19.83,6.37,1.1,9.55a17.71,17.71,0,0,1-.35,5.58c-1.12,4.76-8.38,2.38-11.22,1.69-6.27-1.54-16.47,2.78-20.54-3.16-2.8-4.1-1.91-10.56-2-15.2,0-3.94,0-8.37-2.75-11.52a7.58,7.58,0,0,0-4.24-2.13,13.14,13.14,0,0,0-3.13-.17c-.63,0-1.51,1.28.24.41,1.19-.6.09-1.27-.78-.84s-1.37.25-1.87,1.07c-.32.51.44.61.77.58,13.93-1.2,8.53,17.17,10.67,25.62,1.22,4.82,5.42,6.8,10.15,6.53s8.86-.95,13.6.21c2.52.62,5.88,1.49,8.47.62,5.22-1.76,5.18-6.21,4.77-11.1-.74-8.84-1-17.59-1.55-26.44-.61-10.64-1.9-21.22-3.17-31.79A107.73,107.73,0,0,0,158,64.45c-1-4.14-2.38-8.58-1-12.78.24-.69-1.71-.43-1.93.24Z"/><path class="cls-3" d="M116.36,56.81c0,10,.14,19.89.1,29.84,0,5.89-.09,11.78-.29,17.67-.08,2.12-.18,4.25-.35,6.37-.06.82-.74,3.64-.17,3.45-1.32.44-.06.61.65.37,1.78-.58,1.44-4.12,1.54-5.54.45-6.19.46-12.41.52-18.61.11-11.36,0-22.71-.06-34.07,0-.26-1.94,0-1.94.52Z"/><path class="cls-3" d="M110.25,58.17c0,9-.13,17.92,0,26.88.18,9.39,1,18.87-1.38,28.07-.14.52,1.77.23,1.91-.31,2.13-8.19,1.77-16.66,1.5-25-.32-10-.13-20.08-.13-30.11,0-.41-1.93-.1-1.93.52Z"/><path class="cls-3" d="M109.27,113c-13.9,0-27.65-2.59-41.53-2.59-1.07,0-1.51,1.46-.2,1.46h.75c1.07,0,1.51-2,.19-2h-.74c-1.07,0-1.51,1.53-.2,1.53,13.88,0,27.63,2.81,41.54,2.82,1.07,0,1.51-1.22.19-1.22Z"/><path class="cls-3" d="M61.66,113.23v39.42c0,.08-.08.13,0,.14a10.79,10.79,0,0,0,6.65.68c.79-.15,1.85-1.06.5-.79-6.69,1.32-5.15-3.66-5.15-8v-32c0-.39-2-.09-2,.52Z"/><path class="cls-3" d="M77.79,133.8l-.68.68a.49.49,0,0,0,.22.85A1.44,1.44,0,0,0,78.7,135l.68-.68a.48.48,0,0,0-.23-.84,1.43,1.43,0,0,0-1.36.36Z"/><path class="cls-3" d="M81,145c-10-.8-10.79,10.32-10.85,17.78-.07,7-.33,22.4,9.37,23.48,10.79,1.21,13.49-10.65,13.14-19.15-.39-9.27-.92-22.92-12.84-23.47-.38,0-1.14.18-1.14.72v2c0,.93,2,.57,2-.19v-2a3.89,3.89,0,0,0-1.54.73c9.57.44,10.68,10.4,11.35,18,.63,7.12,1.26,22.09-9.18,22.23-8.59.11-9.17-14.14-9.19-20s-.88-19.64,8.18-18.91c.85.07,2-1.16.7-1.26Z"/><path class="cls-3" d="M83.28,150.33c-6.38,4.75-9.23,10.36-9.06,18.37.15,7.35,3.75,14.78,11.89,14.68.4,0,2.2-.8,1.26-.79-7.65.1-10.49-6.74-11.15-13.3-.81-8,2.24-14.21,8.54-18.91.78-.58-1.15-.3-1.48,0Z"/><path class="cls-3" d="M89.66,163.52c-1.76-2-2.24-4.8-4.08-6.8-.49-.54-2.17-.23-1.84.69a13,13,0,0,0,4.3,6.44c.27-.44.54-.88.82-1.32a5.15,5.15,0,0,0-5.09,3.39c-.23.6.36.94.86.94H86c.06-1,.11-1.06.16-1.55-1.39.1-2.7.55-4.08.65-.45,0-1.23.41-1,1,1.11,3.43,4.69,2.37,7,.88,1.1-.69-.47-1.47-1.3-1-1.38.87-3.17,1.54-3.82-.47l-1,1c1.38-.1,2.69-.77,4.07-.87,1.12-.08,1.48-1.68.16-1.68H84.78c.28,1,.57.77.85,1.06.59-1.53,1.45-1.95,3.07-2,.58,0,1.54-.74.82-1.27a11.67,11.67,0,0,1-3.85-5.78l-1.85.71c1.84,2,2.31,4.8,4.08,6.8.61.69,2.44-.1,1.76-.86Z"/><path class="cls-3" d="M88,170.52a8.27,8.27,0,0,0-2.22,7.29c.15.72,1.46.28,1.76,0a7.25,7.25,0,0,0,2.22-5.08c0-.48-.49-.54-.86-.53-2.47.07-3.78,1.32-5.1,3.28-.57.84,1.32.7,1.7.3,1.94-2,3-4.49,4.2-7,.41-.82-.92-.7-1.32-.56a8.32,8.32,0,0,0-5.26,4.5l1.48-.53c.35.1.38-.71.4-.86.15-.88-1.82-.58-1.94.19a4.62,4.62,0,0,0-.26,1.45c0,.18.25.29.4.34l.26.07c.44.13,1.29,0,1.48-.52a6.53,6.53,0,0,1,4.26-3.66l-1.32-.56c-1.16,2.35-2.13,4.72-4,6.64l1.7.3c.86-1.26,1.46-2.12,3.06-2.16l-.86-.54A6.27,6.27,0,0,1,86,177.32l1.76,0A7.15,7.15,0,0,1,89.57,171c.81-.87-1.06-1-1.58-.46Z"/><path class="cls-3" d="M85.55,152.67c-9.09,1.48-14.43,18.86-5.83,23.86.5.29,2.13-.49,1.81-.68-4-2.34-4.35-7.06-3.73-11.23.57-3.84,3-10.42,7.41-11.14.81-.13,1.69-1,.34-.81Z"/><path class="cls-3" d="M83.15,148.28c-8.92,3.16-10.07,19.85-6.13,27,.46.82,2.28,0,1.76-.88-3.22-5.83-2.76-22,4.75-24.68,1.16-.41.8-1.84-.38-1.43Z"/><path class="cls-3" d="M96.2,133c-5.49-.32-11-1.8-16.24.71s-8.28,6.75-10.62,11.83c-5.94,12.87-7.15,31.66,1.54,43.5,6.23,8.49,20,14.51,30.18,9.63,11.18-5.37,14.48-20.28,12.48-31.55-.07-.41-2,0-1.93.52,1.67,9.45-.36,20.18-7,27.4-9.69,10.62-27.39,1.05-33.41-8.9-5.78-9.56-5.25-22.29-2.74-32.73a44,44,0,0,1,5.09-12.63,19.38,19.38,0,0,1,5.57-5.8C84,131.61,89.7,133.46,95,133.76c.42,0,2.22-.74,1.25-.79Z"/><path class="cls-3" d="M84.77,193c1.37.19,2.91,1.2,4.16,1.75A42.28,42.28,0,0,0,94.8,197c.5.13,2.23-.65,1.56-.84a41.36,41.36,0,0,1-5.86-2.29c-1.4-.61-3-1.62-4.51-1.82-.49-.07-2.25.77-1.22.9Z"/><path class="cls-3" d="M87.81,190c2.06,3.52,7.62,4.29,10.94,6.19.48.27,2-.52,1.82-.66-3.22-1.84-8.83-2.63-10.82-6-.28-.47-2.09.26-1.94.52Z"/><path class="cls-3" d="M91.61,187c3,1.27,5.73,3.17,8.66,4.67.7.36,2.42-.6,1.49-1.08-3-1.56-5.84-3.52-9-4.84-.77-.32-2.25.78-1.13,1.25Z"/><path class="cls-3" d="M93.25,181.88c1.84,4,6.78,5.68,10.61,7.21.84.33,2.26-.87,1.11-1.33-3.37-1.35-8.15-2.81-9.79-6.39-.39-.87-2.31-.32-1.93.51Z"/><path class="cls-3" d="M94,175.88c2.77,3.43,7.29,5.36,11,7.56.52.31,2.31-.46,1.55-.91-3.66-2.16-8-4-10.75-7.39-.4-.5-2.26.17-1.8.74Z"/><path class="cls-3" d="M93.93,168.29c3.42,4.7,10,5.57,12.92,10.87.25.47,2.07-.25,1.93-.51-2.91-5.32-9.51-6.19-12.92-10.88-.33-.46-2.06.34-1.93.52Z"/><path class="cls-3" d="M94.8,162.34c5.3,2.33,11,5.65,14.09,10.71.35.57,2.18-.12,1.93-.52-3.21-5.24-9-8.63-14.46-11.05-.51-.22-2.28.54-1.56.86Z"/><path class="cls-3" d="M92.79,151.58c4.18,2.79,8.12,5.68,10.74,10.07.43.72,2.28,0,1.77-.84-2.68-4.49-6.73-7.46-11-10.32-.69-.46-2.4.49-1.5,1.09Z"/><path class="cls-3" d="M88,144c4.31.87,7.42,4.14,10.08,7.42.33.41,2.17-.24,1.81-.69-2.72-3.36-5.92-6.65-10.31-7.54-.5-.09-2.2.69-1.58.81Z"/><path class="cls-3" d="M88.86,138.61c4.13.79,7.3,3.5,9.9,6.67.38.47,2.23-.2,1.8-.73-2.77-3.37-6.13-6.07-10.5-6.92-.55-.1-2.27.77-1.2,1Z"/><path class="cls-3" d="M86.18,137.41a14,14,0,0,1,5.11,3.17c.62.6,2.45-.19,1.77-.84a15.59,15.59,0,0,0-5.76-3.62c-.81-.29-2.27.88-1.12,1.29Z"/><path class="cls-3" d="M78.7,140.79a34.72,34.72,0,0,0,8,.72c1.07,0,1.5-1.34.19-1.34a31.07,31.07,0,0,1-7-.64c-.79-.18-2.29,1-1.13,1.26Z"/><path class="cls-3" d="M81.67,139.82c2.37-.87,4.21-2.68,6-4.43.34-.34-.28-.49-.5-.48a1.82,1.82,0,0,0-1.28.5c-1.44,1.44-3,3-4.91,3.73-.19.07-.84.42-.54.7s.94.1,1.27,0Z"/><path class="cls-3" d="M85.77,144c2.9-1.51,5.28-3.72,7.87-5.68.34-.26.18-.64-.19-.72a1.69,1.69,0,0,0-1.37.36c-2.33,1.77-4.48,3.84-7.09,5.2-1.18.61-.09,1.29.78.84Z"/><path class="cls-3" d="M89.53,148.38c2.8-2.18,4.68-5.29,7.48-7.47.8-.63-1.13-.43-1.5-.14-2.8,2.19-4.68,5.3-7.48,7.48-.81.63,1.13.43,1.5.13Z"/><path class="cls-3" d="M92.43,155.24c1.47-2.84,3.77-5.06,6-7.3.86-.86-1-1.24-1.63-.61-2.34,2.35-4.69,4.69-6.23,7.66-.51,1,1.45,1,1.86.25Z"/><path class="cls-3" d="M94.33,162.8a46.61,46.61,0,0,0,5.56-6.27c.54-.79-1.42-.69-1.82-.11a43.67,43.67,0,0,1-5.32,6c-.82.82,1.07.91,1.58.41Z"/><path class="cls-3" d="M95.78,172.73c2.86-3.57,5.67-7.18,8.23-11,.18-.26-1.58-.16-1.91.32-2.51,3.73-5.27,7.26-8.08,10.77-.42.53,1.45.28,1.76-.11Z"/><path class="cls-3" d="M95.77,184.25c4.49-4,7.4-9.3,11.55-13.59.37-.38-1.43-.14-1.74.18-4.15,4.29-7.06,9.6-11.55,13.59-.38.34,1.41.12,1.74-.18Z"/><path class="cls-3" d="M91.78,197.13a62.59,62.59,0,0,1,19.52-22.86c.87-.6-1.08-.56-1.53-.25a64,64,0,0,0-19.91,23.37c-.26.5,1.63.31,1.92-.26Z"/><path class="cls-3" d="M95.2,199.9c1.85-6.4,8-12,13.25-15.81,1.06-.78-.52-1.4-1.27-.85-5.61,4.1-12,9.95-13.94,16.82-.26.89,1.72.66,2-.16Z"/><path class="cls-3" d="M103.3,192.62a13,13,0,0,1,1.93-3.22.58.58,0,0,0-.26-1,1.32,1.32,0,0,0-1.37.36,14.62,14.62,0,0,0-2.15,3.58c-.5,1,1.46,1,1.85.24Z"/><path class="cls-3" d="M139.18,137.45l-.6.08c-.41.06-1,.27-1.07.76,0,.2,0,.39-.08.59-.05.35.32.59.63.59,5.6.11,11.56,1.66,17.11.34,1.62-.38,3.35-1,3.85-2.81.58-2.08.63-5-1.51-6.22-.7-.39-2.42.57-1.5,1.08,2.23,1.24,1.83,5.79-.56,6.55a20.49,20.49,0,0,1-6.49.42c-2-.06-4-.24-6-.41l-2.14-.18c-.84-.07-1.37,0-1.36-.12l-1.07.76.6-.09c1-.14,1.5-1.53.19-1.34Z"/><path class="cls-3" d="M143.48,130.55a38.57,38.57,0,0,0,8.66-1.41c1.18-.3.89-1.36-.28-1.07a34.41,34.41,0,0,1-7.65,1.3c-.78,0-2,1.21-.73,1.18Z"/><path class="cls-3" d="M133.36,118a86.41,86.41,0,0,1,2.72,12.23c.13.8,2.07.32,1.93-.52a85.35,85.35,0,0,0-2.72-12.23c-.26-.8-2.18-.26-1.93.52Z"/><path class="cls-3" d="M123.16,54.09c-.06,2.06,29.55-.4,31.81-.57.48,0,2.12-.84.85-.74-2.45.19-30.77,2.19-30.73.79,0-.26-1.91,0-1.93.52Z"/><path class="cls-3" d="M159.28,47.77c-2.22,1.73-.6,7.72-.28,9.9a89.53,89.53,0,0,0,3.45,15.08c1.56,4.64,2.65,9.3,7.65,11.13,7.86,2.88,16.75-.32,24.78.26.43,0,2.22-.74,1.25-.81-7.91-.58-15.64,1.73-23.54,0-5.55-1.18-6.5-6.57-8.21-11.13a74.66,74.66,0,0,1-2.89-11.91C161,58,158.64,49.51,161,47.65c.44-.34-1.38-.16-1.75.12Z"/><path class="cls-3" d="M199.79,87.39a41.35,41.35,0,0,0-26.38-11.84L173,77c12.86-.91,22.62,8.58,33.33,14.13.75.38,2.44-.63,1.48-1.12-11.21-5.81-21.19-15.38-34.64-14.43-.84.06-1.63,1.32-.42,1.42A39.57,39.57,0,0,1,198,88.24c.63.61,2.46-.18,1.77-.85Z"/><path class="cls-3" d="M199.24,82.37a112.33,112.33,0,0,0,19.92.54c7-.37,14.39-1.69,21.32.1.79.2,2.29-1,1.13-1.26-5.8-1.49-11.88-.93-17.79-.5A121.46,121.46,0,0,1,199.93,81c-.92-.12-2,1.18-.69,1.34Z"/><path class="cls-3" d="M246.7,86.73c-3.32-4.55-7.65-7.22-12.58-9.76-6.43-3.31-12.4-7.44-18.83-10.75-.5.35-1,.7-1.51,1,10.51,4.62,20.88,9.49,30.59,15.64.64.41,2.39-.49,1.51-1-9.71-6.15-20.08-11-30.59-15.64-.64-.28-2.44.57-1.51,1,5.37,2.77,10.47,6,15.69,9,5.74,3.32,11.41,5.72,15.45,11.26.46.64,2.32-.07,1.78-.81Z"/><path class="cls-3" d="M246.1,82.22c6.45,0,14.22.38,20.16-2.6,5-2.51,6.09-7,5.94-12.34-.14-4.94-1.91-12.82-6.62-15.56a13.56,13.56,0,0,0-8.25-1.59c-5.75.52-11.31,1.49-17.12,1.39-11.9-.2-23.78-1.74-35.71-1.88-7.84-.09-15.43.15-23.24-.47-8-.64-22.71-1.22-22.07,10.36,0,.57,2,.18,1.93-.52-.69-12.45,17.79-8.93,25.52-8.27,6.28.54,12.67-.12,19,0,9.38.11,18.77.58,28.1,1.49A83.45,83.45,0,0,0,254,51.47c8.54-1.26,12.78,2.06,15.17,9.78,1.48,4.79,2,11.09-.81,15.47-3.62,5.59-15.71,4.46-21.49,4.46-.68,0-2.07,1-.77,1Z"/><path class="cls-3" d="M265.23,48c.67,1.71,2,3.07,2.72,4.76a40.37,40.37,0,0,1,2.87,8.79,86.2,86.2,0,0,1,1.33,11.88c.5,7.56.73,17.95,7.42,22.93.51.38,2.26-.38,1.81-.72-6.61-4.92-6.78-15.26-7.3-22.73A98.8,98.8,0,0,0,272.75,61a37.92,37.92,0,0,0-2.16-7.46c-.89-2.15-2.59-3.95-3.42-6.09-.24-.6-2.14,0-1.94.52Z"/><path class="cls-3" d="M175.71,95.11c4.1,2.45,9.8,1.38,14.22.66,7.35-1.19,14.4-3.25,21.83-4.08,20-2.23,40.12-.67,60.2-.55.79,0,2-1.2.72-1.21-17.89-.1-35.68-1.15-53.57,0a116.56,116.56,0,0,0-21.05,3c-5.79,1.44-15.27,4.55-20.83,1.23-.6-.37-2.37.49-1.52,1Z"/><path class="cls-3" d="M205.41,101.67c2.36,4.85,11.36,4.36,15.85,4.82,11.49,1.17,22.79,2.85,34.37,2.94.7,0,2.06-1.07.75-1.08-10.87-.08-21.64-1.35-32.41-2.69-4.35-.55-14.38.12-16.62-4.51-.32-.65-2.2,0-1.94.52Z"/><path class="cls-3" d="M240.28,103.93c7.25,3.3,15.05,2.84,22.83,2.8.74,0,2.05-1.13.74-1.12-7.48,0-15.05.55-22-2.63-.58-.27-2.35.57-1.53,1Z"/><path class="cls-3" d="M253.36,105.28c3.38.63,6.82.74,10.2,1.36.52.1,2.26-.75,1.21-.94-3.38-.63-6.82-.73-10.2-1.36-.53-.1-2.26.75-1.21.94Z"/><path class="cls-3" d="M261.21,104.45c2.19,1.87,6.46,1.41,9.12,1.41.38,0,2.19-.74,1.26-.74-2.54,0-6.49.46-8.56-1.31-.38-.32-2.07.43-1.82.64Z"/><path class="cls-3" d="M272.23,105.86h4.08c1.11,0,1.48-2,.17-2H272.4c-1.1,0-1.48,2-.17,2Z"/><path class="cls-3" d="M283.79,103.86h4.76c1.12,0,1.47-2,.16-2H284c-1.12,0-1.48,2-.17,2Z"/><path class="cls-3" d="M63.66,79.92v29.91c0,.34,2,0,2-.52V80.08c0-7.08-2.73-15.68.48-22.34.15-.32-1.77-.17-2,.33-2.89,6-1.18,13.92-.81,20.3.62,10.42.24,21,.24,31.46,0,.34,2.1,0,2.1-.52V79.4c0-.34-2-.05-2,.52Z"/><path class="cls-3" d="M63.43,98.74C56,106.06,54.6,120.81,61.36,129c.34.4,2.17-.26,1.82-.69-6.62-8-5.27-22.48,2-29.61.46-.46-1.41-.26-1.76.09Z"/><path class="cls-3" d="M61.39,92.64C57.05,97.72,53,103.12,52.23,110a60.25,60.25,0,0,0,.39,14.39c1,7.39,4.38,16.65,13.39,13.28,1.29-.48.07-.76-.68-.48-9.19,3.44-10.87-12.53-11.28-18.07-.79-10.64,2.08-18.39,9.1-26.61.42-.49-1.45-.25-1.76.12Z"/><path class="cls-3" d="M53.9,118.43c-1.49,2.42-.69,6-.16,8.61.6,2.89,1.66,6.9,4.23,8.72.5.35,2.23-.42,1.8-.71-2.35-1.67-3.24-5.13-3.92-7.77-.65-2.48-1.62-6.54-.17-8.89.42-.69-1.49-.42-1.78,0Z"/><path class="cls-3" d="M54.71,112.17c-6.49,4.91-.25,19.67,5.42,23,.5.29,2.29-.45,1.56-.88-5-2.93-11.32-17.43-5.45-21.87.85-.65-1.09-.58-1.53-.24Z"/><path class="cls-3" d="M60.46,129.62C55,126.41,57,117,58,112.06c1-5.15,2.43-11,5.23-15.56l-1.92.31c-6.86,11.33-9.63,24.55-.63,35.53.33.41,2.17-.25,1.82-.68-8.9-10.86-6-24,.73-35.16.19-.33-1.61-.19-1.92.31-3.18,5.14-4.59,11.89-5.63,17.75-.84,4.76-2,12.8,3,15.75.51.3,2.15-.49,1.82-.69Z"/><path class="cls-3" d="M60.62,48.65c-.2,8.36,7,8,13.43,7.72,13.14-.54,26.34,1.25,39.48,1.31.6,0,2.1-.9.8-.91-11.25-.06-22.47-1.05-33.71-1.32-6.82-.16-18.3,2.7-18.06-7.32,0-.43-1.92-.13-1.94.52Z"/><path class="cls-3" d="M123.36,54.86H137c1.1,0,1.5-1,.18-1H123.54c-1.1,0-1.49,1-.18,1Z"/><path class="cls-3" d="M65.57,47.69c32.57-1.27,65.23-10.84,97.91-7.87,8.31.76,16.38,2.44,24.76,2.8,9.11.39,18.22.24,27.31,1,7.73.65,15.64,1.1,23.4,1.34,8.84.28,17.61-.8,25.82,3.29.7.35,2.42-.61,1.5-1.06-5.84-2.91-12-3.59-18.49-3.57-8.8,0-17.44-.63-26.21-1.16-18-1.09-35.92-.64-53.77-3.5-16.41-2.63-33.79-.17-50.14,1.82-17.27,2.1-34.48,4.92-51.89,5.6-1.07,0-1.52,1.37-.2,1.32Z"/><path class="cls-3" d="M164,145.29c2.46,2.28,5.92,3,9,4.16.56.22,2.32-.61,1.54-.91-2.93-1.14-6.34-1.8-8.71-4-.48-.45-2.29.28-1.79.74Z"/><path class="cls-3" d="M167.34,143.65c.07,1.78,1.74,2.56,3.34,2.59a1.38,1.38,0,0,0,1.27-.57c.22-.4-.19-.71-.57-.71-.91,0-2-.4-2.09-1.49s-2-.58-1.95.18Z"/><path class="cls-3" d="M167.94,144.1a19.85,19.85,0,0,1,5.72,1.28,1.7,1.7,0,0,0,1.37-.18c.22-.13.63-.59.17-.75a22.47,22.47,0,0,0-6.51-1.43c-.72,0-2.06,1-.75,1.08Z"/><path class="cls-3" d="M115.2,173.25c2.94,1.13,6.13,1,9.22,1.45,3.75.49,6.51,3.19,10,4.24,4.37,1.3,6.25-4.79,7.62-7.64.27-.56-1.64-.36-1.93.25a53.36,53.36,0,0,1-2.9,5.5c-1.38,2.18-6.62-1.64-8-2.34-3.87-2-8.53-.86-12.51-2.38-.57-.22-2.33.62-1.54.92Z"/><path class="cls-3" d="M132.15,166.36c-2.33,3.27-1.08,8.68,1.29,11.62.46.56,1.83.31,1.87-.5.11-2.73.56-5.42.68-8.15l-2,.12c-.06,3.36-.59,7.38,3.15,8.77a1.23,1.23,0,0,0,1.48-.55c1-2.24,2.61-6.65-.39-8.22-1.11-.58-2.46-1.14-3.7-.53s-1.3,3.23-3.08,2.51c-.12.46-.25.92-.37,1.37,7.95-2.72,16.72-.11,24.89,0,.92,0,1.55-1.27.4-1.47-5.88-1-10.93-4.56-17-4.88-.14.49-.27,1.36-.4,1.36h2a10.79,10.79,0,0,0,.15-1.37c-9.86.46-19.33-2.52-29-4-.22.49-.44,1-.65,1.49,1.15.18,2.24.53,3.39.7.77.11,2-1.11.88-1.4a26.08,26.08,0,0,0-6.59-.74c-.52,0-1.61.87-.82,1.31a14,14,0,0,0,2.91,1.47l.88-1.41c-.91-.19-1.8-.49-2.72-.68s-2,1-.88,1.41a20.17,20.17,0,0,0,6.37,1.06c3.54.16,1.63,1.13,1.36,3.76-.24,2.37,3,3.83,4.73,4.07,1,.14,2-1.28.66-1.46-4.6-.64-2.85-4.66-2.12-6.62a.64.64,0,0,0-.6-.86c-3.13-.45-6.29-.19-9.3-1.3l-.87,1.4c.91.19,1.8.49,2.72.68s2-1.09.87-1.41a14.17,14.17,0,0,1-2.53-1.25L109.1,164a17.62,17.62,0,0,1,5.64.62c.29-.47.58-.94.88-1.41-1.15-.17-2.25-.51-3.4-.68-1-.15-2,1.26-.65,1.46,9.82,1.52,19.44,4.68,29.48,4.21,1.12-.05,1.46-1.35.15-1.35h-2c-.9,0-1.57,1.28-.4,1.35,6,.32,11.12,3.67,17,4.69.14-.49.27-1,.4-1.5-8.37-.17-17.23-2.77-25.41,0-.59.2-1.24,1-.37,1.36,1.09.43,2.73,1,3.68-.06a4.41,4.41,0,0,0,.89-1.67q3.65.56,3,3.07a10.7,10.7,0,0,1-1.13,3.29l1.47-.55c-3.07-1.15-2.33-5.09-2.28-7.54,0-1.05-1.93-.79-2,.12-.12,2.74-.56,5.43-.68,8.16l1.87-.5c-1.94-2.4-3.41-7.34-1.43-10.13.72-1-1.09-1.38-1.63-.62Z"/><path class="cls-3" d="M170.75,175.09c2.22,9.52,19.15,15.41,26.89,9.41.87-.67-1.07-.68-1.55-.31-6.7,5.19-21.59-1.83-23.41-9.62-.16-.67-2.09-.17-1.93.52Z"/><path class="cls-3" d="M175.5,175.77c2.14,4.77,9.71,11.34,15.18,8.23,1.13-.65-.55-1.05-1.23-.67-2.36,1.35-5.87-1.44-7.59-2.84a15.28,15.28,0,0,1-4.42-5.24c-.33-.73-2.23-.14-1.94.52Z"/><path class="cls-3" d="M179,177.3c2.46,3.76,7.17,5,11.2,6.34.84.28,2.28-.93,1.11-1.31-3.78-1.26-8.23-2.36-10.55-5.89-.49-.74-2.32,0-1.76.86Z"/><path class="cls-3" d="M179.81,176.09a37.31,37.31,0,0,0,12,4.92c1,.19,1.94-1.24.65-1.48a34.85,34.85,0,0,1-11.14-4.6c-.78-.46-2.44.59-1.48,1.16Z"/><path class="cls-3" d="M185.1,175.93a11.68,11.68,0,0,0,9.39,5.7c.9,0,2-1.32.67-1.37a10.28,10.28,0,0,1-8.29-5.17c-.4-.73-2.25,0-1.77.84Z"/><path class="cls-3" d="M189.76,175.57c0,1.19.18,2.67,1.28,3.38,1.26.81,2.81,0,3.75-.93s-.57-1.64-1.29-.94c-.34.33-.79.88-1.17.59-.57-.45-.59-1.6-.6-2.23,0-1.05-2-.78-2,.13Z"/><path class="cls-3" d="M204.81,149.69a56.92,56.92,0,0,0-6.19,14.4c-.19.65,1.69.22,1.92-.28A235.24,235.24,0,0,1,212,142.19c.46-.77-1.37-.36-1.65-.11-5.65,5-11.76,11.17-13.8,18.61-.19.71,1.51.15,1.73,0,6.33-5.15,9.93-13,13.79-20,.27-.48-1.57-.28-1.85.15-3.72,5.76-8.44,11.06-10.27,17.8-.16.59,1.13.27,1.33.2,7.53-2.55,11.63-12.46,15.48-18.7.46-.75-1.37-.37-1.66-.11a42.12,42.12,0,0,0-11.07,17.25c-.23.63,1.37.21,1.55.1,5.28-3.19,7.95-9.52,11.18-14.52.45-.7-1.48-.45-1.78,0a95.8,95.8,0,0,0-7.55,13.72c-.21.48.92.33,1.07.29,5.95-1.69,9.42-9.15,12.34-14,.44-.74-1.48-.41-1.79,0a89.33,89.33,0,0,0-8.9,14.4c-.3.64,1.61.1,1.85-.15,4.6-4.78,8.29-10.32,12.24-15.63l-1.79,0a108.08,108.08,0,0,1-6.79,10.88c-.5.64,1,.41,1.25.33,5.61-2.14,8-8.09,11.4-12.59.49-.65-1.44-.42-1.78,0-2.95,3.78-5.27,7.6-6.19,12.36-.14.74,1.5.15,1.73,0,4.53-3.37,7.28-8.4,10.32-13,.47-.71-1.46-.4-1.78,0a42.66,42.66,0,0,0-6.19,11.68c-.22.63,1.37.21,1.55.1,2.93-1.81,4.79-4.54,7.1-7l-1.85.14a50.19,50.19,0,0,1-3.4,8.16c-.29.59,1.52.17,1.73,0,3.09-2.81,4.84-6.55,7.6-9.64l-1.85.15c-.84,3-1.84,5.73-2,8.83,0,.78,1.59.16,1.85-.14,2.14-2.49,3.41-5.37,4.83-8.29l-1.92.28c-.85,3-1.85,5.73-2,8.83,0,.78,1.59.17,1.85-.14,2-2.48,2.86-5.41,4.15-8.29l-1.93.4a27.14,27.14,0,0,0,.68,6.79c.16.63,1.79.07,1.93-.39.77-2.47,1.41-5,2-7.48l-1.93.4a48,48,0,0,0,.68,9.51c.13.64,1.78,0,1.93-.39a31.63,31.63,0,0,0,1.36-10.32c0-.52-1.87-.15-1.92.4A15.17,15.17,0,0,0,249,154.8c.33.36,1.84,0,1.87-.5.34-5.6-3.18-10.61-7.54-13.82-.42-.31-1.92-.06-1.87.62.56,6.83,6.82,12.12,10.2,17.67.33.54,2,.15,1.93-.52-.44-7.21-7.15-17.58-13.78-20.57-.4-.18-1.84.07-1.75.7.61,4.1,4.45,6.62,7.55,8.94l1.8-.72c-7.55-4.83-19.54-9.89-28.46-6.1-.22.09-1,.57-.41.78,5.53,2.08,11.54,2.09,17.38,2.09.17,0,1.85-.52,1.29-.85-8.41-5.09-19.94-7.65-28.68-1.92-.22.15-.61.49-.19.68,7,3,16.18,1.56,22.9-1.52.54-.25.89-.9,0-.9h-1.36c-.64,0-2.09,1-.78,1,7.76.35,14.17,5.39,17.78,12,.33.6,2.18,0,1.93-.5-3.81-7-12.67-14.44-20.45-11.41a31.87,31.87,0,0,1-10.15,1.78c-2.3.1-12.06-.25-4.27-2.81,7-2.29,15.45.61,21.45,4.24l1.29-.86c-3.28,0-6.54-.07-9.81-.39a30,30,0,0,1-5.55-1.12,3.63,3.63,0,0,1,2.92-.6,24,24,0,0,1,3.6.28,44.93,44.93,0,0,1,17.75,6.77c.49.31,2.29-.36,1.8-.72-3-2.26-6.82-4.74-7.41-8.74l-1.75.7c6.56,2.95,13,13.11,13.41,20.21l1.93-.52c-3.41-5.59-9.64-10.84-10.2-17.67l-1.86.62c4.2,3.09,7.74,7.93,7.41,13.37l1.87-.5a14.5,14.5,0,0,1-4-11.33l-1.93.4a30.79,30.79,0,0,1-1.35,10.07l1.92-.39a48.17,48.17,0,0,1-.68-9.52c0-.56-1.8-.09-1.92.4-.63,2.5-1.27,5-2,7.47l1.92-.39A27.75,27.75,0,0,1,242,144c0-.63-1.75,0-1.92.39-1.24,2.76-2.08,5.66-4,8l1.85-.15c.2-3.11,1.2-5.87,2-8.84.19-.67-1.69-.2-1.92.28a35.84,35.84,0,0,1-4.69,8l1.85-.15c.2-3.11,1.2-5.87,2-8.84.21-.73-1.62-.11-1.85.15-2.68,3-4.34,6.65-7.35,9.39l1.72,0a50.56,50.56,0,0,0,3.4-8.16c.22-.73-1.62-.1-1.85.15-2.1,2.27-3.8,4.88-6.49,6.55l1.55.1a41.36,41.36,0,0,1,6-11.43l-1.78,0c-3,4.53-5.64,9.5-10.07,12.79l1.73,0c.89-4.64,3.17-8.42,6-12.11l-1.78,0c-3,4-5.35,10-10.35,11.89l1.26.33a110,110,0,0,0,6.8-10.88c.44-.75-1.48-.4-1.79,0-3.94,5.31-7.63,10.85-12.23,15.63l1.85-.14a87.78,87.78,0,0,1,8.77-14.15l-1.79,0c-2.41,4.05-5.89,11.77-10.77,13.16l1.07.29a94.8,94.8,0,0,1,7.41-13.47l-1.78,0c-3,4.67-5.65,11.06-10.57,14l1.54.1a40.84,40.84,0,0,1,10.68-16.74l-1.65-.11c-3.51,5.68-7.66,15.7-14.43,18l1.32.21c1.81-6.64,6.47-11.88,10.13-17.55l-1.85.15c-3.74,6.77-7.27,14.47-13.4,19.46l1.72,0c2-7.18,8-13.32,13.4-18.1l-1.65-.11a238.47,238.47,0,0,0-11.63,21.88l1.92-.28a56,56,0,0,1,6.05-14.14c.45-.71-1.48-.46-1.78,0Z"/><path class="cls-3" d="M241,150.18c3.48,2.79,6.87,5.62,10.06,8.73l1.47-1c-10.07-4-17.92-15.85-29.45-15.67-.34,0-1.58.26-1.32.88,3,7.11,14,10.33,21,10.55.37,0,2-.73,1.12-1.12-8.33-3.58-17.94-13.1-27.67-9.48-.33.12-.75.5-.49.87,4.14,5.95,11.73,9.44,18.88,9.73.34,0,1.59-.28,1.33-.87-2.27-5.24-8.12-8.44-12.45-11.81l-1.33,1.09c13.72,3.84,21.61,17.24,34.67,22.43.54.22,2.18-.57,1.33-1.09A36,36,0,0,1,246,151.32l-1.65.9c7.94,6.06,13.42,15.19,23.29,18.43.39.13,2.11-.4,1.47-1a148.32,148.32,0,0,1-17-18.35l-1.79.8c4.7,5.14,10.37,9.08,15.64,13.59l1.65-.91c-5.31-2.89-9.47-7.28-14.28-10.87-.47-.36-2.21.25-1.65.9,4.51,5.18,9.43,9.95,16,12.42.44.17,2-.31,1.47-1-3.41-4.27-6.87-8.9-11.69-11.66-.59-.34-2.37.4-1.51,1,4.48,3.25,8.82,6.68,13.59,9.52.48.29,2.18-.17,1.65-.91-2.35-3.26-5.89-4.84-8.84-7.48-.5-.45-2.31,0-1.78.8,2.73,4,7.15,7.28,12.09,7.7.48,0,1.63-.35,1.25-1a37.22,37.22,0,0,0-6.12-7.48c-.51-.51-2.35.11-1.78.8a24.31,24.31,0,0,0,9,6.91c.45.2,2.26-.17,1.65-.91a24.76,24.76,0,0,1-2.72-4.08l-1.78.8c2.43,2.51,4.42,4.57,8,5,.83.09,2-1.09.71-1.24-3.19-.36-4.9-2.43-6.94-4.54-.5-.51-2.23,0-1.78.8a24.76,24.76,0,0,0,2.72,4.08l1.65-.91a23.7,23.7,0,0,1-8.71-6.69l-1.78.8a36.94,36.94,0,0,1,6.12,7.48l1.25-1c-4.54-.38-8.55-3.59-11-7.26l-1.78.8c2.91,2.6,6.52,4.26,8.84,7.48l1.65-.91c-4.77-2.83-9.11-6.26-13.6-9.51l-1.51,1c4.7,2.7,8.09,7.28,11.42,11.45l1.47-1c-6.27-2.37-11-7.09-15.32-12.05l-1.65.9c4.82,3.61,8.94,8,14.27,10.88.48.26,2.31-.35,1.65-.91-5.26-4.5-10.95-8.46-15.63-13.59-.5-.55-2.34.09-1.79.8a149.12,149.12,0,0,0,17,18.35l1.47-1c-9.65-3.16-15.16-12.35-22.93-18.28-.5-.38-2.11.16-1.65.91a36.69,36.69,0,0,0,12.37,12.34l1.33-1.09c-13.07-5.19-20.88-18.57-34.67-22.43-.53-.15-2.16.45-1.33,1.09,4.16,3.24,9.85,6.26,12,11.3l1.32-.87a25.36,25.36,0,0,1-11-3.28,22.31,22.31,0,0,1-5.26-4.05c-2.48-2.51,3.43-1.3,4.52-1,6.83,1.77,12.42,6.72,18.83,9.47l1.12-1.12c-6.54-.21-17-3.22-19.79-9.84l-1.32.88c11.07-.18,19.23,11.73,29,15.59.41.16,2.07-.39,1.47-1-3.27-3.19-6.77-6.09-10.33-8.94-.57-.45-2.32.37-1.52,1Z"/><path class="cls-3" d="M257.08,164.21c1.42,6.93,8.32,11.21,9.51,18.35l1.94-.51c-1.71-3.92-3.95-7.55-5.44-11.56-.19-.51-2,0-1.93.52.42,6.29,5.11,10.73,7.47,16.31l1.93-.52-4.07-6.11-1.88.6c2.52,2.91,3.61,6.62,6.12,9.52.29.33,2.06-.15,1.87-.61a35.07,35.07,0,0,0-3.39-6.11c-.3-.45-2-.06-1.94.51a13.84,13.84,0,0,0,3.46,8.25c.34.39,1.68-.1,1.87-.5,1.14-2.52.78-4.87.68-7.58,0-.45-1.86-.06-1.92.41a7.11,7.11,0,0,0,2.77,7,1.67,1.67,0,0,0,1.86-.5c1.67-3.77-.66-6-4.25-7-.25-.07-2,.16-1.75.66,2.3,4.72,14.88,4.85,17.56.27a.15.15,0,0,0-.05-.19c-5-3.53-15.34-5-20.14-.29-.23.22.05.38.26.39,7.84.43,15-2.06,22.47-4.16.3-.08,1.4-.67.52-.79-5.24-.69-11.91-.14-15.78,3.88a.2.2,0,0,0,.1.36c6.36,1.69,12.33-.41,18.74-.65.57,0,2.1-.92.81-.87a57.38,57.38,0,0,0-6.92.74c-1.58.27-3.17.48-4.76.63h-3.13q-1.12-3.71,3.14-3.18c1.34-.25,8.53-1.27,3.4.23a102.78,102.78,0,0,1-10.5,2.66q-5.82,1.56-1.61-1.14a21.5,21.5,0,0,1,4.46.3,18.82,18.82,0,0,1,6.53,2.15,5,5,0,0,1-4.39,2.09,17.76,17.76,0,0,1-4.6-.34c-1.66-.32-3.4-1-4.18-2.6l-1.75.66c3.34.94,5.46,3,3.91,6.55l1.86-.5a6.64,6.64,0,0,1-2.67-6.61l-1.92.41c.1,2.55.42,5-.67,7.38l1.86-.5a13.25,13.25,0,0,1-3.33-8.07l-1.94.51a35.57,35.57,0,0,1,3.4,6.12l1.87-.6c-2.51-2.91-3.61-6.62-6.11-9.52-.33-.37-2.1.28-1.88.6l4.08,6.12c.31.46,2.13-.06,1.93-.52-2.36-5.58-7.05-10-7.47-16.31l-1.93.52c1.49,4,3.73,7.64,5.43,11.55.22.5,2,0,1.94-.51-1.2-7.16-8.1-11.43-9.52-18.36-.1-.49-2,0-1.93.52Z"/><path class="cls-3" d="M310,185.5a59.56,59.56,0,0,1,20.69,4l1.56-.85c-6-1.56-11-5.24-17-6.8-.3-.08-2.23.39-1.68.78,5.62,4,11.92,6.24,18.48,8.23.31.09,2.21-.3,1.68-.78a30.3,30.3,0,0,0-13.89-6.91c-.23,0-1.86.26-1.57.72,2.81,4.62,10.27,8.51,15.6,6.18.2-.09.8-.36.54-.67-2.33-2.76-5.26-4.69-8.16-6.8-.34-.25-2.17.14-1.87.61,2.1,3.27,4.52,5.9,8.35,7,.36.1,1.7,0,1.74-.57.18-3.21-2-4.91-4.14-7l-1.8.71c2.35,2,4.16,4.48,6.79,6.12.43.26,1.72.08,1.87-.5.52-2.13.81-4.34-1.07-5.93-.34-.29-1.82-.05-1.86.5a1.29,1.29,0,0,1-.35,1c-.23.44,1.63.26,1.92-.29a1.28,1.28,0,0,0,.35-.95l-1.86.49c1.79,1.52,1.43,3.51.95,5.51l1.86-.5c-2.64-1.64-4.45-4.13-6.8-6.12-.44-.37-2.24.29-1.8.71,2,1.89,4.19,3.56,4,6.59l1.74-.57c-3.72-1-5.95-3.48-8-6.63l-1.87.61c1.23.9,2.47,1.78,3.71,2.68.37.27,5.52,4,2.31,3.74a14.61,14.61,0,0,1-10.27-6.35l-1.57.72a29.18,29.18,0,0,1,13.29,6.69l1.69-.78c-6.47-2-12.68-4.13-18.23-8.09l-1.69.78c6,1.56,11,5.24,17,6.8.44.12,2.32-.56,1.56-.85a61.61,61.61,0,0,0-21.46-4.13c-.63,0-2.09.93-.79.95Z"/><path class="cls-3" d="M314.86,194.12c3.73,4.95,9.55,7.82,14.33,11.63.37.29,2.12-.37,1.82-.66-4.8-4.7-10.05-8.9-14.22-14.21-.3-.37-2.09.17-1.93.52,2.66,5.78,7,11.7,13,14.35.31.13,2-.07,1.87-.59-1.26-6.24-7-10.45-10.93-15-.31-.36-2,.38-1.87.58,4.44,5.9,9.08,11.47,15.69,15,.3.16,2-.1,1.87-.59-1.16-4.77-4.54-8.53-8.21-11.63-.3-.25-1.91.12-1.88.59a15.85,15.85,0,0,0,8.9,12.3c.38.17,1.85,0,1.87-.58.2-4.45-2.86-7.58-5.44-10.88-.27-.35-2,.06-1.93.52a20,20,0,0,0,6.86,10.94c.33.29,1.83-.11,1.87-.58.31-3.3-1.25-6-2.72-8.84-.21-.43-2.06.14-1.93.52,1,2.9,2.91,5.08,4.76,7.48.3.38,1.88,0,1.93-.52.38-3.56-.58-6.75-1.36-10.2-.09-.4-2,.05-1.93.52a16.45,16.45,0,0,0,3.44,8.84c.27.38,2,0,2-.52v-6.8a16.57,16.57,0,0,0-2,.52,14.42,14.42,0,0,0,2.09,2.79c.29.3,1.88-.14,1.88-.59v-6.12a16.08,16.08,0,0,0-2,.52,17,17,0,0,0,1.19,4.76c.16.43,1.76-.06,1.76-.52V190.2c0,.18-1.13.35-1.77.52a10.2,10.2,0,0,0,2.85,5.51c.28.31,1.92-.14,1.92-.59a52.32,52.32,0,0,0-.66-8.84l-1.92.52c.62,1.62,1.42,3.15,2,4.76.17.43,1.95-.06,1.94-.52A80.16,80.16,0,0,0,346.7,180l-1.93.52,2,4.07c.2.41,2-.06,1.93-.51-.22-2.56-1.08-4.94-1.36-7.48l-1.93.52a18.53,18.53,0,0,0,3.39,5.5c.28.31,1.82-.14,1.82-.58v-5.44c0-.3-2,0-2,.52v5.43a12.89,12.89,0,0,0,2-.58,17.32,17.32,0,0,1-3.3-5.37c-.17-.42-1.95.06-1.91.52.28,2.53,1.15,4.92,1.38,7.47l1.93-.51-2-4.08c-.21-.41-2,.07-1.93.52a80,80,0,0,1,1.36,11.55l1.93-.52c-.63-1.61-1.42-3.14-2-4.76-.16-.42-2,.08-1.93.52a52.33,52.33,0,0,1,.68,8.84l1.87-.59c-1.63-1.86-2.5-3-2.85-5.37-.06-.38-2.13,0-2.13.52v7.48a19.06,19.06,0,0,0,2.13-.52,17.13,17.13,0,0,1-1.28-4.76c0-.35-1.85,0-1.85.52v6.12a11.34,11.34,0,0,0,1.89-.59,8.69,8.69,0,0,1-2-2.65c-.24-.4-1.92.05-1.92.52v6.8a16.11,16.11,0,0,0,1.93-.52,16.34,16.34,0,0,1-3.4-8.84l-1.94.52c.78,3.45,1.74,6.63,1.36,10.2l1.93-.52c-1.85-2.4-3.77-4.58-4.76-7.48l-1.93.52c1.46,2.86,3,5.53,2.72,8.84l1.88-.59A19.87,19.87,0,0,1,329.7,195l-1.93.52c2.58,3.29,5.64,6.43,5.44,10.88l1.88-.59a15.45,15.45,0,0,1-8.78-12.17l-1.88.59c3.64,3.07,6.95,6.76,8.1,11.49l1.88-.59c-6.56-3.53-11.16-9-15.58-14.89l-1.88.59c4,4.56,9.57,8.68,10.82,14.89l1.88-.59c-5.95-2.64-10.2-8.43-12.86-14.21l-1.93.52c4.2,5.35,9.48,9.6,14.33,14.35l1.82-.66c-4.71-3.76-10.54-6.59-14.22-11.49-.35-.46-2.07.33-1.93.52Z"/><path class="cls-3" d="M138.24,66.33c-4,8.16-1.62,18.24-1.5,26.94,0,.51,1.93.15,1.93-.52a127.81,127.81,0,0,1,3.72-28.94l-1.92.4c-.05,9-.7,17.88-.75,26.82,0,.5,1.93.17,1.93-.51,0-9,.7-17.88.75-26.83,0-.53-1.81-.09-1.93.4a128.7,128.7,0,0,0-3.73,29.18l1.93-.52c-.12-8.67-2.5-18.59,1.49-26.7.23-.48-1.65-.29-1.92.28Z"/><path class="cls-3" d="M147.55,91.31a42.51,42.51,0,0,0,9.9,1.51c.74,0,2.05-1.1.75-1.12a41,41,0,0,1-9.47-1.46c-.63-.16-2.28.79-1.18,1.07Z"/><path class="cls-3" d="M138.82,56.86c-3.3,1.45-2.11,6.76-2.08,9.58,0,.59,1.94.22,1.93-.51,0-1.32-.09-2.63-.12-3.94,0-1-.16-3.84,1-4.36s.1-1.15-.76-.77Z"/><path class="cls-3" d="M141.23,62.64a39.52,39.52,0,0,0-.76,9c0,.27,1.93,0,1.93-.52a38.77,38.77,0,0,1,.73-8.86c.09-.38-1.8-.1-1.9.36Z"/><path class="cls-3" d="M75.3,103.32c3.41,1.59,9.41-.54,12.85-1.23,6-1.2,12.25-2.5,17.94-4.82.91-.37.53-1.22-.33-1.21a43.44,43.44,0,0,0-21.37,5.47c-.81.47-.62,1.33.32,1.33h7.45c1.08,0,1.5-2,.19-2H84.9a5.39,5.39,0,0,0,.32,1.42c6.22-3.63,13.22-4.86,20.35-5-.11-.41-.21-.76-.32-1.16a91.44,91.44,0,0,1-14.09,3.94c-3,.69-6.13,1.31-9.23,1.78-1.54.23-4,.88-5.5.19-.77-.35-2.24.75-1.13,1.26Z"/><path class="cls-3" d="M125.39,91.63c-.38,0,.11,0,.24.19s.05.21.08.31h0l-.18.32s-.46.27-.22.18c-.34.13,0,0,.12,0l.89-.27a8.41,8.41,0,0,0,2-.83c.62-.38,1-1.31-.05-1.5a1.8,1.8,0,0,0-1.63.42,2,2,0,0,0-.34.43,1,1,0,0,0-.11.17c-.16.24-.15-.07.41-.12-.4,0-1,.27-1.08.72s.54.57.86.54a2.21,2.21,0,0,0,1.33-.6,3,3,0,0,0,.36-.49c.37-.56-1.15,0-1,.12,0-.1,0-.21-.08-.31s.22-.22,0-.09c.21-.12-.11,0-.15.07l-.36.14c.17-.07-.2.06-.23.07l-.4.13-.72.21a2.62,2.62,0,0,0-1.25.58c-.5.62.21.91.75.92a1.4,1.4,0,0,0,1.26-.57c.22-.39-.19-.7-.56-.7Z"/><path class="cls-3" d="M72.73,86.57c3.21-2,10.72-2.92,13.84-.33.37.3-4.54,1.22-5,1.24a28.91,28.91,0,0,1-4.46-.21,27.08,27.08,0,0,1-6.43-1.42c-.3.32-.6.65-.91,1C76.61,86,88.47,85,92,92.52c.31.65,2.2,0,1.94-.51C90.11,83.9,77.41,84.91,70,85.79c-.24,0-1.7.68-.91,1,5.53,2,14,3.31,19.25-.19.22-.14.5-.36.3-.64-3-4.21-13.49-2.21-17.14.1-1.1.7.59.92,1.19.54Z"/><path class="cls-3" d="M68.94,62.72c-.07,13.69-1.49,27.32-2.24,41l1.93-.52C68.8,95.46,71,87.65,72,80c.57-4.31,2.91-15.17-2-17.88-.39-.22-1.71,0-1.86.5C64.84,74.48,65.94,90,70.43,101.46c.2.52,2.1-.09,1.93-.51C67.9,89.61,66.79,74,70.11,62.3l-1.86.5c5.12,2.84,2.16,15.51,1.57,19.75-1,7-3,14.08-3.12,21.15,0,.38,1.9.08,1.93-.52.75-13.66,2.17-27.29,2.24-41,0-.38-1.93-.08-1.93.52Z"/><path class="cls-3" d="M73.21,89.68c6.14-.78,13.81-2.35,18.88,2.17l1.33-.72c-6.63.5-13-1.92-19.61-.72-.26,0-1.76.75-.81.76a95.24,95.24,0,0,1,14,1.47L87.7,92c-3.27,1-6.43.05-9.72-.09-.27,0-2.09.55-1.42.77a56.86,56.86,0,0,1,5.84,2.19l1.09-.69c-2.52.55-4.57-.06-6.83-.76l-1.42.77a96.29,96.29,0,0,0,14.6-.78c.78-.12,1.72-.93.36-.72a91,91,0,0,1-13.71.71c-.25,0-2.1.56-1.42.77a15.14,15.14,0,0,0,8.07.73c.07,0,1.48-.51,1.08-.69a61.45,61.45,0,0,0-6.07-2.28l-1.42.77c4,.18,7.29,1.11,11.14-.09.09,0,1.34-.58.71-.68a97.14,97.14,0,0,0-14.33-1.51l-.8.76c6.4-1.16,12.7,1.26,19.13.77.16,0,1.71-.38,1.33-.72-5.28-4.71-13.49-3.11-19.86-2.3-.5.06-2.1,1-.84.79Z"/><path class="cls-3" d="M87.06,86.42c5.5-3.71,11.15,5.73,12.43,9.83.18.61,2.11.06,1.93-.52-2-6.49-8.79-14.33-15.89-9.54-.87.58,1.08.53,1.53.23Z"/><path class="cls-3" d="M103.54,96.35a13,13,0,0,0,5.65-1c.12,0,.69-.37.26-.44a2.64,2.64,0,0,0-1.35.27,7.49,7.49,0,0,1-3.29.47,2.83,2.83,0,0,0-1.36.37c-.32.17-.27.35.09.35Z"/><path class="cls-3" d="M120.47,92.94a29,29,0,0,0,8.46-1.54c1.16-.38.84-1.63-.33-1.25a26.88,26.88,0,0,1-7.94,1.44c-1.07,0-1.5,1.37-.19,1.35Z"/><path class="cls-3" d="M77.31,106.09C82.4,108,87.87,107.93,93,109.81l1.19-.86c-7.17.1-14.37,1.24-21.23-1.45l-1.39.86c8.11,1.41,16.54.13,24.41,2.94l1.4-.86c-6.62-.32-12.19-4.11-18.63-5.21-.34-.06-2.14.54-1.4.86,3.58,1.56,6.87,3.65,10.44,5.21.47.21,2.24-.52,1.56-.82-3.57-1.56-6.86-3.65-10.43-5.22l-1.39.86c6.44,1.1,12,4.89,18.62,5.22.28,0,2.18-.58,1.4-.86-8-2.86-16.52-1.59-24.76-3-.35-.06-2.13.58-1.4.86,7.11,2.79,14.56,1.64,22,1.54.24,0,1.94-.59,1.19-.87-5.09-1.88-10.56-1.84-15.65-3.73-.49-.18-2.24.58-1.57.83Z"/><path class="cls-3" d="M127.8,117.86c1,7.26,4.22,13.8,6,20.86.2.79,2,.41,1.94-.34a60.31,60.31,0,0,0-3-19.55c-.26-.75-2-.44-1.94.34a43.63,43.63,0,0,0,6.8,22.69c.42.63,2,.13,1.85-.68a12.87,12.87,0,0,1,0-4.29l-1.32.76A79.73,79.73,0,0,1,161,141.33c.77.24,2.28-.83,1.12-1.26-6.33-2.39-12.75-5-19.59-5.27-.87,0-2,1.09-.68,1.36,4.81,1,9,2.6,13.92,1.44.4-.09,1.08-.57.72-1a12.87,12.87,0,0,0-7-4.68c-.58-.17-2.25.61-1.32,1.17a15.11,15.11,0,0,0,7.12,2.37c.91.06,2-1.26.68-1.35a13.27,13.27,0,0,1-6.3-2.1l-1.31,1.17a11.68,11.68,0,0,1,6.38,4.26l.72-1c-4.47,1-8.61-.67-12.9-1.54l-.68,1.36c6.68.24,13,2.84,19.15,5.17l1.12-1.26a81.67,81.67,0,0,0-23.32-3.78c-.46,0-1.25.17-1.32.76a12.53,12.53,0,0,0,0,4.65l1.85-.68a42.71,42.71,0,0,1-6.62-22l-1.94.34a59.4,59.4,0,0,1,3,19.19l1.94-.34c-1.74-7.06-5-13.6-6-20.86-.11-.85-2-.38-1.93.52Z"/><path class="cls-3" d="M161,117.5a6.26,6.26,0,0,0-.2-2.44c-.44-1-1.73-.46-2.31.07a.47.47,0,0,0,.22.83,1.5,1.5,0,0,0,1.37-.36c-1.08,1-1.3-.44-1.12.25a4,4,0,0,1,.07.5c0,.45,0,.9,0,1.34,0,.94,1.94.58,1.94-.19Z"/><path class="cls-3" d="M156.87,99.12c-2.94,5.76-.83,14-.76,20.23,0,.46,1.94.13,1.93-.52-.07-6.14-2.16-14.33.74-20,.22-.42-1.64-.24-1.91.3Z"/><path class="cls-3" d="M123.06,146.7c-.38.18-2.07-.43-2.74-.43a4.46,4.46,0,0,0-2.91.78c-1.41,1.17-2,3.62-.11,4.66,1.7,1,4.21.65,5.6,2.12a1.94,1.94,0,0,1-.93,3.09,6.78,6.78,0,0,1-4-.16c-.55-.2-2.31.63-1.54.9a9.83,9.83,0,0,0,6.72-.17c1.88-.73,2.91-3,1.37-4.59s-4.33-.92-6-2.34a1.85,1.85,0,0,1-.47-1.67c.16-1.6,1.54-1.62,2.77-1.38a4.64,4.64,0,0,0,3-.08c1.22-.58.09-1.13-.75-.73Z"/><path class="cls-3" d="M129.16,148.94c-1.36,3.51-1.2,7.41-1.62,11.1l1.93-.36a12.75,12.75,0,0,1,.56-9.46c1.41-2.54,3.92,1.89,4.31,3.1a20.68,20.68,0,0,1,.61,6.33c0,.93,2,.57,2-.19,0-3.76-.57-12.71-6.6-11.09-4.14,1.11-3.8,8.77-2.76,11.83.26.74,1.86.35,1.94-.35.41-3.54.2-7.4,1.5-10.77.38-1-1.55-.84-1.82-.14Z"/><path class="cls-3" d="M128.26,157.18c2.53-.09,5.15-1.47,7.65-.79.41.11,2.09-.57,1.6-.7-2.73-.74-5.28.67-8,.77-.36,0-2.17.75-1.27.72Z"/><path class="cls-3" d="M140.42,152.4c.05,3.31.65,6.84-.53,10a7.29,7.29,0,0,0,1.77-.4V150.32c0,.24-.75.48-1.21.72,2.37,0,6.65.24,6.15,3.58-.09.63,1.87.27,2-.29.59-4-4.56-4.2-7.37-4.22-.38,0-1.53.21-1.53.72v11.71c0,.54,2,0,2.11-.4,1.21-3.27.54-6.88.49-10.26,0-.47-1.85-.13-1.84.52Z"/><path class="cls-3" d="M140.82,157.8c2.19.49,5.56-.3,4.72-3.19-.21-.72-1.88-.33-1.88.36V160c0,.92,2,.55,2-.2v-5.07c-1,.12-1.38.24-2,.36.4,1.38-.36,1.78-1.63,1.49a1.56,1.56,0,0,0-1.39.37c-.29.3-.23.71.2.81Z"/><path class="cls-3" d="M154.23,150.77c-2,.82-2.34,3.4-2.67,5.25-.51,2.88-.3,6.12-1.34,8.88l1.91,0c.41-3.33.15-6.77,1.31-10,1.35-3.76,3.75.91,4.19,2.81A17.06,17.06,0,0,1,158,161c0,.89-.39,2.91.63,2.94-1.12,0-1.47,1.42-.17,1.45,3.32.09,1.65-13.22-3.44-13.37-5.32-.16-4.47,9.85-4.87,13.11-.12,1,1.65.74,1.91,0a26,26,0,0,0,1-6.2c.18-1.6.2-6.25,2-7,1.22-.51.14-1.59-.86-1.17Z"/><path class="cls-3" d="M152.13,161.82c2.11-.48,4.23-1.73,6.42-1.13.42.11,2.09-.57,1.59-.71-2.68-.73-5.08.63-7.63,1.21-.72.16-1.73.94-.38.63Z"/><path class="cls-3" d="M165.87,153.72c-2.66,3.28.47,8.86-.85,12.61l1.93-.4a28.61,28.61,0,0,1-.27-8.21c.28-2,1.22-3.47,2.82-1a4.54,4.54,0,0,1,.6,3c-.29,2.16-2.49,2.11-4.11,2.12l-.8.93c3.84-.12,6.53,5.68,10.26,4.61,1.14-.32.93-1.11-.21-.78-.65.18-3.87-2.69-4.66-3.22a7.82,7.82,0,0,0-4.59-1.54c-.6,0-2.1.94-.8.93,2.72,0,6.07-.21,6.82-3.34.6-2.5-1.49-5.54-4.18-5.13-4.74.72-3.32,9-2.81,12.17.09.59,1.78,0,1.92-.41.6-1.69.34-3.63.21-5.38-.16-2-.9-5.26.5-7,.47-.58-1.44-.36-1.78.05Z"/><path class="cls-3" d="M179.46,156.69a73.28,73.28,0,0,1,.39,9.37c0,.24,1.93,0,1.93-.52a71.5,71.5,0,0,0-.39-9.37c0-.31-2,.08-1.93.52Z"/><path class="cls-3" d="M177.37,157.09a18,18,0,0,1,4-.68,2.72,2.72,0,0,0,1.37-.36c.3-.18.27-.39-.1-.39a24.67,24.67,0,0,0-5.39.89c-.15,0-1,.26-.89.53s.89,0,1,0Z"/><path class="cls-3" d="M177.5,165.91c-.35,1.46,6.85,1.78,7.8,2,.66.15,2.29-.85,1.17-1.1-.78-.18-7.05-1-7-1.12.19-.77-1.77-.48-1.94.22Z"/></svg>