<svg id="layer1" xmlns="http://www.w3.org/2000/svg" viewBox="0 0 416.68 272.79"><defs><style>.cls-1{fill:#492d0c;}</style></defs><path class="cls-1" d="M128.61,21.13c-2.83,4.83-8,7.59-11.8,11.62A11.37,11.37,0,0,0,114,37.61c-1,4.47-3.2,7.38-5.94,11C101.1,58,94.62,67.32,100.9,78.78c2.39,4.39,8.61,5.07,13,4.37,5.6-.88,9.45-5.16,12.87-9.27,3.2-3.84,6.45-8.29,11.81-9a14.86,14.86,0,0,0,5.82-1.59c3.51-2.18,6.67-6.82,11.69-4.53,3.37,1.53,4.26,6.58,4.63,9.82.09.82,2,.36,1.93-.52-.47-4.11-1.89-9.5-6.36-11-4.22-1.38-7.15.77-10.35,3.39-4.39,3.62-10.15,2.43-14.46,6.21-6.79,6-11,16-21.54,15.39-8.29-.51-10.25-9.71-9.67-16.39.65-7.4,8.21-14.89,12.35-20.57,1.25-1.72,3-3.36,2.95-5.55,0-3.2,2.27-5.82,4.4-7.9,3.55-3.48,7.9-6,10.47-10.35.53-.9-1.44-.84-1.83-.17Z"/><path class="cls-1" d="M109.27,72.35a3.08,3.08,0,0,1,2.26-3.11,8.51,8.51,0,0,0,3.29-2c.3-.32-.25-.37-.47-.36a2.19,2.19,0,0,0-1.28.48c-1.47,1.2-2.69,2.7-4.18,3.87-.8.62,1.13.38,1.49.1,1.59-1.24,2.89-2.8,4.44-4.09l-1.75.12c-1,1.12-2.53,1.37-3.81,2.1a3.7,3.7,0,0,0-1.92,3.4c0,.36,1.92.08,1.93-.51Z"/><path class="cls-1" d="M105.44,57.77a8.55,8.55,0,0,0,2-.77c-.53.25.73,1.49,1.14,1.89,1.56,1.52,4.25,1.89,6.29,2.27,3.43.64,7.51,1.26,8.68,5.07.75,2.46-1.11,4.83.73,7.07.37.46,2.22-.2,1.8-.73-2.73-3.33,1.55-8-3.57-10.51-4.25-2.05-11.34-1.15-13.61-6-.1-.22-.36-.24-.57-.24-1.21,0-2,.79-3.16,1.07s-.92,1.13.23.84Z"/><path class="cls-1" d="M106,81.59c6.88-.14,13.19-3.18,15.85-9.83.1-.26-1.72-.1-1.9.36a13.29,13.29,0,0,1-12.68,8.74c-.36,0-2.18.74-1.27.73Z"/><path class="cls-1" d="M129.51,42.08c4.83,0,9.92-1.28,11.87-6.21.35-.88-1.11-.79-1.54-.45-1.64,1.32-3.6,1.36-5.56,1.86a7.27,7.27,0,0,0-3.89,2.6c-.75.94,1.1,1.07,1.59.47,2.29-2.85,6.33-2,9.11-4.17l-1.54-.45c-1.59,4-5.35,5-9.34,5.07-.84,0-2,1.29-.7,1.28Z"/><path class="cls-1" d="M160.38,68.37c-.25,5.63-2.44,10.68-4.28,15.93-1.56,4.47-1.8,9.09-2.37,13.75-1.13,9.34-7.45,17.38-9.93,26.36-.25.89,1.73.66,1.95-.16,2.51-9.1,8.45-17,9.94-26.36.91-5.78,1.34-11,3.39-16.55,1.58-4.32,3-8.48,3.25-13.13,0-1-1.91-.68-2,.16Z"/><path class="cls-1" d="M131.41,20.53c3.53-4.84,11.92-6.56,17.43-7.34a47.82,47.82,0,0,1,19.42,1.1c10.18,2.82,21.21,6.47,29.66,12.92,12.28,9.37,17.83,25.66,31.87,33.19,7.62,4.1,17.27,5.63,25.75,6.84,8.74,1.25,17.74-1.15,26-3.7,15.86-4.87,34.27-11.61,49.63-1.52.53.34,2.24-.43,1.81-.72-12.92-8.48-29.89-5.69-43.75-1.17-11.81,3.85-23.33,7.81-35.91,5.63-11.23-2-21.54-4.38-30.06-12.32-6.46-6-11.36-13.59-17.07-20.29-6.88-8.06-15-12.4-24.92-15.88-10.32-3.64-19.22-6.08-30.23-5.21-6.77.53-17.15,2.61-21.44,8.51-.46.64,1.46.41,1.78,0Z"/><path class="cls-1" d="M130,21l.2-.14c.14-.1.31-.33.14-.48-1.53-1.4-3.39-2.56-5-3.9a20.92,20.92,0,0,1-2.42-2.38c-2.66-3.07,3.43-4.23,5.46-4.74,8-2,16.78-9.3,25.28-5.95.52.21,2.29-.58,1.55-.87-9.6-3.79-19.43,4-28.61,6.36-2.28.58-6.31,1.24-6.35,4.23,0,1.49,7.12,8.41,8.22,7.64-.86.6,1.09.54,1.53.23Z"/><path class="cls-1" d="M155.28,3.62c4.14-.38,7.39-2.17,11.75-1,3.12.83,6.13,1.72,9.37,1.67-.29-.18-.63-.36-.63-.55V5.06c0,.34-.18.38.16.38h1c.85,0,2-1.2.7-1.2-.46,0-.58-.22-.37-.73,0-.49-.48-.53-.87-.53C172.29,3,169,1,165,.67c-3.37-.31-6.21,1.36-9.53,1.66-1,.1-1.53,1.41-.21,1.29Z"/><path class="cls-1" d="M177.71,5.62c18.73,5.39,33.72,15.39,45,31.31,4.81,6.76,8.19,14.71,13.95,20.73,2.66,2.78,7.79,7.86,11.86,8,.94,0,2-1.35.67-1.4-2.69-.11-5.56-3.1-7.56-4.71a36.46,36.46,0,0,1-8-8.92c-4.5-7-8.53-14.21-13.79-20.74-10.49-13-25.14-21-41-25.59-.83-.24-2.28,1-1.11,1.3Z"/><path class="cls-1" d="M148.73,21c-1.8-4.13,7.12-6.53,9.94-7.59,3.2-1.2,6.46-2.59,8.78-5.18.79-.87-.91-.95-1.41-.6a35.7,35.7,0,0,0-7.5,7.28c-2.16,2.66-1.54,6.47-3.61,9.11-.56.7.38,1,.95.81a6,6,0,0,0,1.91-.75c1.15-.64.09-1.5-.82-1l-1.41.57.95.82c1.4-1.78,1.73-4,2.25-6.11,1-4,5.29-7.79,8.52-10l-1.41-.61c-3.18,3.53-8.29,4.65-12.55,6.37-2.91,1.17-8.22,3.49-6.52,7.38.34.78,2.24.21,1.93-.52Z"/><path class="cls-1" d="M198,112.85c-6.35,5.15-12.5,7-20.49,8.17-6.88,1-13.87.77-20.79,1-7.36.23-16.2-.17-22.52,4.19-8.33,5.74-3.05,21-4.57,29.11-1,5.17-4.91,9.07-6.23,14.12s1.77,9.69,5.19,13c.54.51,2.37-.23,1.79-.79-4.76-4.55-6.6-9.93-3.69-16.1,2-4.18,4.32-7.39,5.18-12,2.12-11.32-5.25-26.42,10.77-29.29,10.09-1.81,20.65-.84,30.85-1.59a75.56,75.56,0,0,0,15.12-2.79c4.57-1.3,7.38-3.66,11-6.56.88-.71-1-.83-1.57-.4Z"/><path class="cls-1" d="M222.59,113.93c-8.94,7-8.26,22.35-20.61,24.81-13.44,2.69-28-.67-41.26-2.87-7.94-1.31-16.15,4.2-18.75,11.64-1,2.8-.13,6.19-.86,9.15A13.45,13.45,0,0,0,141,164c.81,2.95,4.56,7.88,7.75,7.88.65,0,2.08-1,.78-1-2.17,0-5.17-4.69-6-6.16-1.54-2.58-1.06-5.61-.4-8.37a23.22,23.22,0,0,0,.69-6.15c-.09-4.08,1.69-6.79,4.55-9.53,6-5.69,13.2-3.41,20.35-2.35a183.43,183.43,0,0,0,18.54,2.06c6.54.3,15.85.7,21.57-3.28,7.9-5.49,7.68-16.88,15.39-23,.84-.66-1.1-.57-1.53-.23Z"/><path class="cls-1" d="M129,182.31a15.23,15.23,0,0,0,9.27-.48,30.14,30.14,0,0,0,6.52-3.39c1.82-1.23,2.63-3.65,4.84-4.42,1.14-.4.83-1.66-.34-1.25-2,.7-3.14,2-4.51,3.57-3.37,3.87-9.68,6-14.65,4.72-.78-.2-2.29.95-1.13,1.25Z"/><path class="cls-1" d="M129.12,182.78c5.47-.15,9.27,4.06,13.41,6.91,1.38.95,3.31,1.64,5,.92,5.42-2.34,5.28-11.7,4.54-16.48-.07-.46-2,0-1.93.52a28,28,0,0,1-.5,10.36,19.77,19.77,0,0,1-.79,2.62c-1.21,3.29-4.84,1.17-6.58-.12-3.85-2.84-7.29-5.73-12.31-5.59-.56,0-2.1.89-.81.86Z"/><path class="cls-1" d="M84,196c5.79-10.62,18.94-14.61,27.63-22.52a45.51,45.51,0,0,0,9.83-13.28c1.54-3,4.83-10.78,8.6-11,1.06-.07,1.52-1.43.19-1.34-3.45.23-5.5,3.62-7.2,6.25-3.42,5.31-5.83,11-10,15.8-8.91,10.36-24.2,13.68-30.89,25.94-.51.93,1.45.88,1.84.18Z"/><path class="cls-1" d="M144.36,157.54a57.1,57.1,0,0,0,3.86-4.83c1-1.63,1.82-3.33,2.88-4.92,2.17-3.26,6.7-8.82,10.81-9.26,1-.11,1.55-1.36.22-1.22-3.92.42-7,3.6-9.54,6.36a37.58,37.58,0,0,0-4.55,6,78.13,78.13,0,0,1-5.5,7.79c-.58.76,1.39.68,1.82.12Z"/><path class="cls-1" d="M124.23,177.86c-3.12,1-4.82,4-6.67,6.57-3.64,5-7,9.48-9.21,15.34l1.75-.54a17.65,17.65,0,0,0-5.47-1c-.34,0-1.45.13-1.58.55-.82,2.58-1.55,3.61-4,1.88a54,54,0,0,0-4.61-3,16.63,16.63,0,0,0-10.45-2,21.83,21.83,0,0,0-13.58,8.89c-4.58,6.74,6.8,5.87,9.9,5.15,3.63-.85,6.29-.06,9.74.43a5.53,5.53,0,0,0,2.09-.28c3.44-.92,3.8-4.43,6.39-6.34.36-.28-1.39-.08-1.74.18-2.58,1.91-3.36,6.44-7.56,5.2a12.22,12.22,0,0,0-6.37-.32c-3.47.64-10.71,3.32-11.31-2.11-.33-3,3.94-5.83,6-7.32,4.61-3.34,10-3.25,15.07-.86,2.49,1.18,4.39,3.29,6.9,4.41,3,1.31,4.73-2.13,5.4-4.25l-1.59.55a18.83,18.83,0,0,1,5.14,1c.36.1,1.6-.12,1.75-.53a49.47,49.47,0,0,1,5.79-11c1.85-2.66,5.68-9.16,8.84-10.21,1.31-.44.06-.6-.65-.36Z"/><path class="cls-1" d="M210.46,136.66c11.82.15,23.25,1.46,35.07.11A129.54,129.54,0,0,0,260.42,134c2.85-.67,5.7-1.35,8.5-2.21,2.5-.77,5.07-2.41,7.63-2.83.78-.12,1.72-.93.36-.71-4,.64-7.53,2.83-11.4,3.88A143.12,143.12,0,0,1,246.37,136c-11.66,1.51-23,0-34.66-.12-.4,0-2.2.78-1.25.79Z"/><path class="cls-1" d="M285.73,108.26a41.35,41.35,0,0,0-7.64,17c-1.31,6.72,1.66,13.43,4,19.58,2.19,5.84,5.22,13.19,3.68,19.46-1.46,6-10.32,6.44-14.93,9.39-4,2.54-7,6.56-9.79,10.28-3.32,4.41-6.91,8.43-10.39,12.69-7.83,9.58,13.18,8.12,17.4,7.6.45-.06,2.11-.86.85-.7-3.91.48-16.88,1.9-18-3.06-.84-3.65,5.77-8.6,7.8-11.17,3.51-4.44,6.55-9.17,10.6-13.17s8.91-4.35,13.49-6.86c9.4-5.14,4.06-17.22,1.25-25-2.13-5.89-4.47-11.52-4.19-17.91.29-6.59,4-13.34,7.84-18.5a2.68,2.68,0,0,0-1.9.36Z"/><path class="cls-1" d="M269.72,204.24c2.29-1.76,4.86-.81,6.95-3s1.89-6,2-8.69c.25-10.24,8.89-15,17.59-18.25,5.13-1.89,9.68-3.95,9.66-10a22.43,22.43,0,0,0-1.05-4.9c-.95-3.81.69-7.28,2.49-10.52a55.84,55.84,0,0,1,8.41-12c6.1-6.28,15-8.26,21.58-13.73,6.2-5.11,11.19-11.24,13.15-19.13,3.92-15.84-3.66-34.28-17.59-42.9-.6-.37-2.37.48-1.52,1,15.31,9.48,22.47,30.76,15.44,47.35-6.75,15.95-25.88,17.55-35.64,30.39-4.17,5.49-9.45,12.86-8.26,20.08,1,5.86,1.88,9.24-4.25,12.17-2.69,1.28-5.58,2.07-8.27,3.36-4.92,2.37-10.77,5.87-12.79,11.27-1.19,3.18-.8,6.6-1.1,9.94-.49,5.45-4.76,4.36-8,6.84-1.05.8.57,1.18,1.22.68Z"/><path class="cls-1" d="M275.78,131.45c-1.83,3.28-2.63,6.85-4.69,10a35.78,35.78,0,0,1-9.33,9.67c-4.69,3.28-10.66,4.91-12.24,11-1.36,5.26,2.83,11,2.93,16.32.07,3.43.48,7.26,4.64,6.93.54,0,2.1-.94.82-.84-4.48.36-3.42-7.13-3.65-9.88s-1.86-5.63-2.57-8.3c-1.15-4.3.35-7.73,3.72-10.38,4-3.16,8.64-5,12.41-8.57a41.06,41.06,0,0,0,5.18-6.29c2.19-3.1,2.86-6.75,4.69-10,.17-.32-1.63-.18-1.91.32Z"/><path class="cls-1" d="M270.67,173.35a11.67,11.67,0,0,1-2.92-4.85c-1.08-3.18,3.83-6.23,5.81-7.63,4-2.81,8.09-6.51,12.39-8.73,1.16-.6-.56-.92-1.2-.59a38.27,38.27,0,0,0-6.47,4.65c-3,2.47-6.5,4.29-9.48,6.82-3.92,3.32-3.68,7.58.07,11.09.51.47,2.33-.27,1.8-.76Z"/><path class="cls-1" d="M289.6,176.91c-2.14,1.16-3.16,3.59-4.16,5.68-.6,1.25-3.33,8.7-5.29,7.81-.38.37-.75,1-1.12,1h.66c.79,0,2-1,.72-1h-.66c-.34,0-2,.65-1.12,1.07,6.69,3,7.79-11.51,11.77-13.65,1.16-.63.09-1.43-.8-1Z"/><path class="cls-1" d="M248.76,202.05c-2.39,1.93-10.42,11.89-4.18,13.43a8.9,8.9,0,0,0,4.12-.44c1.85-.47,3.71-1.4,5.52-2,2.57-.86,5.16-.68,7.79-.5,4.64.32,7.74-3.83,9.33-7.59.39-.92-1.54-.72-1.81-.09a15.51,15.51,0,0,1-3,4.83c-2.51,2.68-5.51,1.17-8.33,1.47-4.06.44-7.51,2.52-11.48,3.19-6.38,1.08,2-10.64,3.6-11.91.88-.71-1-.81-1.57-.38Z"/><path class="cls-1" d="M348.71,83.47c.15,2.49,2,4.14,3.39,6.09,1.78,2.56,3.18,5.28,5.17,7.7s4.46,3.4,7.12,4.7a36.83,36.83,0,0,1,10.82,8.21c5.9,6.36,7.3,14.91,10.44,22.7a47.57,47.57,0,0,0,13.86,18.36l1.27-.94c-7.14.14-10.32-7.35-15.39-11.09-.41-.3-1.84-.2-1.87.49-.17,3.69-2.17-2.54-2.39-3.32a44.68,44.68,0,0,0-3.08-7.15,33.16,33.16,0,0,0-6.26-9.59c-.43-.43-1.93-.07-1.86.65s.05,2.92.6,3.39c-.92-.78-1.3-2.77-1.65-3.91-1.08-3.48-2.51-7.94-4.38-11.07a55.71,55.71,0,0,0-7.73-9.41c-1.13-1.2-5.2-5.37-4.2-7.09.46-.8-1.48-.61-1.81,0-1.34,2.31,2.88,6.39,4.21,7.9,1.95,2.21,4,4.27,5.88,6.57,2.75,3.42,3.84,8.08,5.42,12.1.77,1.94,1.56,6.85,4.5,6.5,2.54-.31,1.25-3.94,1.09-5.45l-1.86.64c3.1,3.09,4.87,6.77,6.76,10.67,1.53,3.18,2.13,7.74,4.18,10.55,2.43,3.32,4.36,1.21,4.52-2.16l-1.87.5c5.53,4.07,8.67,11.6,16.44,11.45.23,0,1.86-.45,1.27-.94A49.21,49.21,0,0,1,387,130.86c-2.58-6.42-3.86-13.15-7.87-18.92s-9.89-9.46-16.07-12.29c-3.25-1.49-5.31-4.7-7.15-7.6-1.62-2.54-5.07-6.13-5.25-9.1,0-.64-2-.24-1.93.52Z"/><path class="cls-1" d="M132.17,42a5.68,5.68,0,0,0,3.07-1.43c.42-.39,0-.57-.37-.59-1.1-.06-2.13-.48-3.23-.54l-.79,1a8.62,8.62,0,0,0,5.59-2.65c.25-.24-.07-.43-.28-.46a1.93,1.93,0,0,0-1.37.37c-.26.22-.68.16-1,.16-.26.32-.52.65-.79,1,1.11-.06,2.15-.49,3.24-.54a1.82,1.82,0,0,0,1.28-.5c.29-.35-.24-.48-.49-.47-1.11.06-2.15.49-3.24.54a1.82,1.82,0,0,0-1.28.5c-.29.36.25.47.49.47a5.15,5.15,0,0,0,3.31-.92l-1.64-.09a5,5,0,0,1-3,1.66c-.6,0-2.12.9-.79,1,1.09.06,2.13.49,3.23.54l-.36-.58a2.52,2.52,0,0,1-1.25.72c-.88.08-1.65,1-.3.92Z"/><path class="cls-1" d="M129.5,30.59c1-5.32,9.25-5.93,10.24-11.32.13-.65-1.61,0-1.83.2-2.91,2.85-6.27,5.27-8.63,8.63-.41.59,1.48.31,1.76-.1,2.36-3.36,5.72-5.77,8.63-8.62l-1.84.2c-1,5.33-9.24,5.93-10.24,11.32-.1.54,1.82.21,1.91-.31Z"/><path class="cls-1" d="M124.35,11.6c.19,1.1,1.33,2.06,2.06,2.82,1.27,1.32,2.64,2.53,4,3.82.59.58,2.27.09,1.77-.86a14.61,14.61,0,0,0-5.54-6.06c-.53-.3-2.34.25-1.62,1,1.72,1.76,3.28,3.75,5.72,4.53.43.14,1.86-.17,1.52-.91-.58-1.24-1-2.53-1.62-3.77l-1.85.68c1.64,1.74,2.93,4.07,5.18,5.08a1.18,1.18,0,0,0,1.53-.72c.35-2.26-.73-4.15-2.25-5.75-.6-.63-2.43.13-1.76.86,1.35,1.47,2.29,3.22,3.91,4.44.69.52,2.38-.45,1.49-1.12-1.52-1.14-2.38-2.8-3.64-4.18l-1.76.86c1.33,1.4,2.37,3,2.06,5l1.53-.72c-1.9-.86-3.13-3.16-4.52-4.63-.47-.49-2.24-.16-1.85.69.58,1.24,1,2.53,1.62,3.77l1.52-.91c-2.15-.7-3.54-2.52-5.07-4.09l-1.62,1a13.76,13.76,0,0,1,5.25,5.8l1.77-.86c-1-1-2.13-2-3.19-3-.82-.8-2.45-2-2.66-3.25-.16-.9-2.09-.41-1.93.52Z"/><path class="cls-1" d="M139,5.31a30.83,30.83,0,0,0,4.86,7c.52.55,2.09.26,1.85-.7a34.87,34.87,0,0,0-2.16-6.47c-.34-.73-2-.6-1.95.32a11.49,11.49,0,0,0,3.33,7.38c.46.5,1.86.37,1.86-.49V5.89c-1,0-1.31.08-2,.12A5.79,5.79,0,0,0,146,10.16c.42.49,1.62.39,1.81-.31a18.16,18.16,0,0,0,.59-5l-1.86.5a11.58,11.58,0,0,1,2.08,4.13c.25.75,1.69.6,1.89-.13a18.16,18.16,0,0,0,.59-5l-2,.32c.51,1.77.58,3.62,1.08,5.39.27.94,2.2.42,1.93-.52-.5-1.77-.57-3.62-1.07-5.39-.25-.85-2-.52-2,.32a17,17,0,0,1-.49,4.66l1.9-.13a12.72,12.72,0,0,0-2.24-4.49c-.46-.52-1.86-.34-1.87.5A17,17,0,0,1,146,9.59l1.81-.31a4.58,4.58,0,0,1-1-3.39c0-1.06-2-.8-2,.12v6.47a12.68,12.68,0,0,0,1.88-.5,10.51,10.51,0,0,1-3.12-6.63l-1.94.32a34.87,34.87,0,0,1,2.16,6.47l1.85-.7a30,30,0,0,1-4.85-7c-.43-.81-2.25-.06-1.77.88Z"/><path class="cls-1" d="M164.84,2.12a4.48,4.48,0,0,0,.55,5.3c.41.48,1.78.16,1.86-.5.15-1.15.93-2.07,1.08-3.23l-1.93.36c.43,1.42.64,2.89,1.07,4.31.2.66,1.44.31,1.76,0A7.12,7.12,0,0,0,171,3.69c0-.88-1.61-.47-1.88.05-1.22,2.36-2.69,4.54-3.3,7.16-.08.36.36.48.61.51,4.43.43,7-5.24,7.8-8.8l-1.94.21c-.6,2.86-1.54,5.67-1.62,8.62,0,.92,1.58.42,1.88,0a30,30,0,0,1,3.12-4.7c.8-.85-1.08-.94-1.58-.41a31.17,31.17,0,0,0-3.35,5l1.87,0c.08-3,1-5.77,1.62-8.63.18-.83-1.78-.52-1.94.21-.46,2.09-2.34,7.64-5.14,7.37l.61.51c.59-2.52,2-4.59,3.18-6.85l-1.88,0a6.14,6.14,0,0,1-1.44,4l1.75-.05c-.43-1.43-.64-2.89-1.07-4.32-.22-.72-1.85-.29-1.94.37-.15,1.15-.93,2.07-1.08,3.23l1.87-.5a3.72,3.72,0,0,1-.53-4.4c.48-.87-1.47-.73-1.81-.11Z"/><path class="cls-1" d="M180.6,6.85A10.68,10.68,0,0,0,178.26,17c.21.62,1.44.25,1.74-.08,2.62-2.87,3.34-7,5-10.39l-1.87.08c-1.18,3.37-3.09,6.61-3.24,10.25,0,.83,1.42.33,1.75.06,2.49-2.09,3.36-5.47,4.5-8.38l-1.94.23c-.53,2.92-1.53,5.72-2.15,8.62-.17.77,1.79.46,1.93-.22.63-2.91,1.63-5.71,2.16-8.63.15-.85-1.71-.34-1.94.23-1.05,2.68-1.82,5.88-4.12,7.8l1.75.06C182,13,183.87,9.74,185,6.37c.25-.7-1.63-.42-1.87.08-1.57,3.27-2.24,7.38-4.73,10.11l1.75-.09a9.91,9.91,0,0,1,2-9.27c.77-.85-1.11-.84-1.56-.35Z"/><path class="cls-1" d="M199,20l1.08-1.62c.54-.82-1.4-.36-1.67-.16-2.78,2-4.35,4.78-6.06,7.68-.48.82,1.36.43,1.67.16a34.82,34.82,0,0,0,7.67-9.84c.47-.87-1.36-.39-1.67-.16-3.17,2.45-5.15,5.92-8.08,8.63-.76.7.75.72,1.15.53a19.49,19.49,0,0,0,7-5.76c.57-.73-1.27-.41-1.5-.29-4.52,2.37-7.89,7-9.53,11.72-.21.61,1.14.35,1.34.26,3.58-1.63,5.21-4.44,6.52-8.06.21-.6-1.15-.34-1.34-.25-6.73,3-9.47,11.51-10.3,18.3-.1.83,1.6.2,1.87-.12,2.88-3.48,3.23-8.18,3.3-12.54,0-.82-1.58-.25-1.86.12-4,5.25-4.4,12.91-2.77,19.14.18.68,1.94.14,1.93-.52a34.19,34.19,0,0,0-.54-6.47c-.12-.67-1.94-.15-1.93.52.18,7.24,3.19,16.34-2.5,22.24l1.67.15c5.28-7.44,8-16.94,8.16-26,0-.53-.76-.41-1.09-.34-3.32.69-3.91,3.5-4.62,6.52-.18.78,1.62.23,1.86-.11,3.83-5.4,4.87-12,7.62-17.93.27-.58-1.6-.36-1.86.11-2.2,3.89-6.67,7.91-6.54,12.67,0,.56,1.36.16,1.56,0a31.73,31.73,0,0,0,11.15-15c.25-.67-1.36-.27-1.56-.14-5.79,3.62-11.37,11.84-11.15,18.86,0,.58,1.35.12,1.56,0,7.17-3.82,10.18-12.91,13.78-19.67l-1.79,0c-2.76,5.26-6.23,10.11-8.16,15.77-.21.61,1.14.34,1.34.26,5.66-2.42,8.28-8.33,11.31-13.31.44-.73-1-.49-1.28-.39a17.3,17.3,0,0,0-6.32,4l1.67.16a23,23,0,0,0,3.84-7.52c-.45.22-.9-.18-1.35.82h1.62c.7,0,2.06-1,.76-1h-1.62c-.42,0-1.21,0-1.34.47a22.75,22.75,0,0,1-3.71,7.31c-.53.74,1.36.4,1.67.11a15.14,15.14,0,0,1,5.54-3.57l-1.28-.4c-2.7,4.44-5.18,10.39-10.26,12.56l1.34.25c1.9-5.55,5.32-10.33,8-15.5.42-.8-1.51-.56-1.79,0-3.43,6.42-6.39,15.53-13.18,19.15h1.56c-.2-6.45,5.07-14.46,10.41-17.8l-1.56-.15c-2,5.42-5.62,10.84-10.41,14.16l1.56,0c-.12-4.47,4.33-8.47,6.4-12.13l-1.86.11c-2.71,5.82-3.72,12.35-7.48,17.65l1.86-.11c.4-1.69.75-4.88,2.94-5.34l-1.09-.34c-.19,9-2.81,18.4-8,25.74-.52.73,1.35.49,1.67.16,6-6.25,3.07-15.34,2.88-23.05l-1.93.52a34.19,34.19,0,0,1,.54,6.47l1.93-.52c-1.57-6-1.3-13.49,2.63-18.6l-1.86.12c-.06,4.22-.36,8.87-3.17,12.26l1.86-.12c.74-6,3.06-14.56,9.12-17.28L195,23.32c-1.08,3-2.3,5.66-5.34,7.05l1.34.25c1.51-4.38,4.64-8.75,8.79-10.92l-1.49-.29a16.4,16.4,0,0,1-6,5l1.15.52c2.91-2.69,4.93-6.2,8.09-8.62l-1.67-.16a33.85,33.85,0,0,1-7.42,9.57l1.67.16c1.63-2.78,3.12-5.49,5.8-7.42l-1.67-.15L197.19,20c-.48.73,1.46.53,1.8,0Z"/><path class="cls-1" d="M220.57,38.28c-7.38-.05-13.8,7.87-17.45,13.47-.33.5.46.59.77.56,6.54-.7,10.57-8.1,14-12.92.43-.61-.76-.56-1-.5-8.52,1.72-14.84,9.77-17,17.85-.2.76,1.5.3,1.74,0,3.6-3.82,6.22-8.3,9.29-12.53.35-.48-.47-.62-.77-.56C196.28,46.24,193.5,65.85,187.64,76c-4.62,8-11.91,13.1-20.59,16-5.2,1.74-11.3,3.41-13.59,8.93-.31.73,1.6.22,1.86-.1,3.46-4.29,7.89-7.28,12.64-10,1-.6-.37-1-1-.69-1.47.67-2.84,1.48-4.31,2.15-.36.17-1,.83-.21.93,4.66.61,8.82-1.37,13-3.16,5-2.12,11.88-1.44,16.38-4.75s7.61-8.25,9.86-13.33c2.32-5.24,6.07-10.77,6.5-16.6.06-.8-1.44-.32-1.74,0-3.8,3.53-6.4,8-9.08,12.4-3.51,5.77-7.82,10.7-10.52,17-.3.7,1.51.26,1.74,0,3.93-3.77,6.4-8.57,8.83-13.38,3-5.91,6.66-11.48,9.15-17.63.13-.32-.4-.43-.59-.43-5.66,0-9.82,6.14-12.64,10.29-3.3,4.84-8.81,13.38-7.57,19.63.14.67,1.47.11,1.74-.1,4.65-3.61,7.06-9,9.55-14.16,3.12-6.51,7-12.59,10.52-18.86.36-.63-.69-.6-1-.51-6.18,1.72-10,7.74-12.87,13.06-3.31,6.16-6.4,14-5.76,21.11,0,.57,1.33.19,1.57,0,4.63-3.29,7.31-8.33,9.92-13.25a234.82,234.82,0,0,1,13-21c.53-.8-1.36-.47-1.68-.19-6.08,5.41-14,11-16.36,19.15-.15.53.86.44,1.09.37,4.76-1.4,8.36-4.83,11.82-8.24,4.39-4.32,9.92-7.28,13.75-12.17.38-.48-.49-.6-.77-.56-7.27,1.14-14.35,6.4-19.23,11.7-.61.66.44.75.9.64,7.87-1.85,14.8-8.56,20.06-14.34.37-.41.08-.68-.4-.71-5.1-.27-11.21,2.61-14.63,6.32-.28.3-.24.58.18.69,6,1.49,12.85-4.71,16.05-9.13.19-.27,0-.51-.31-.55-6.23-.93-14,3.91-17.12,9.13-.24.39.19.56.52.57,6.09.21,12.87-4.58,15.83-9.69.23-.4-.2-.55-.52-.57a16.59,16.59,0,0,0-11.94,3.62c-.61.46.25.76.65.7,5-.82,8.52-3.2,11.81-7,.31-.35-.26-.57-.52-.57a19.54,19.54,0,0,0-7.23,1.23c-.66.25-.8.88,0,1,3.07.29,5.62-.45,8.59-1.14,1.17-.27.9-1.24-.26-1a33.5,33.5,0,0,1-6,1.16c5.21-.25-1.22,3.65-1.22,3.65,1.56-1,5.33-1.56,3.73.65a20.48,20.48,0,0,1-5.59,4.73c-.41.26-5.57,2-5.53,1.89,1.11-1.89,3.31-3.38,5.08-4.56a21.48,21.48,0,0,1,5.34-2.49c5.06-1.63.92,1.58-.14,2.58a30.69,30.69,0,0,1-3.6,2.83c-.71.49-7.26,3.4-4.87,1.3a21.08,21.08,0,0,1,5-2.91c.62-.29,6.29-2.76,4.06-.41-4.58,4.82-10.63,10.5-17.25,12.06l.91.65a45.17,45.17,0,0,1,7.78-6.55,38.41,38.41,0,0,1,5.84-3.27c4.7-2.17-.27,1.86-1.2,2.66-2.72,2.33-5.76,4-8.27,6.55-3.31,3.35-6.88,7.22-11.53,8.59l1.1.36c2.3-8,10.06-13.31,16-18.58l-1.67-.19c-3.84,5.69-7.75,11.28-11.06,17.3-3.15,5.7-5.78,12.5-11.28,16.4l1.56,0c-.49-5.47,1.54-11.14,3.56-16.13,2.39-5.89,6.72-14.69,13.4-16.55l-1-.51c-3.32,5.86-6.88,11.55-9.9,17.57C193.18,73.14,191,79,186,82.88l1.74-.1c-.73-3.69,1.53-8.09,3-11.31a56.92,56.92,0,0,1,7.61-12.06,17.33,17.33,0,0,1,5.31-4.59c.54-.27-1.5,4.6-2,5.49-1.09,2-2.29,4-3.44,6-3.58,6.2-5.92,13.12-11.2,18.19l1.74,0A72.89,72.89,0,0,1,198.45,69c3.4-4.42,5.4-9.44,9.58-13.33l-1.74,0c-.34,4.64-2.84,8.69-4.84,12.79-2.19,4.5-4,8.83-7.11,12.81-4.32,5.56-10.76,5.19-16.91,7a49.75,49.75,0,0,0-5.37,2.16c-1.66.7-11.63,3.9-4.32.55l-1-.69c-5,2.84-9.6,6-13.24,10.51l1.87-.1c2.86-6.89,13.73-7.92,19.84-11a35.14,35.14,0,0,0,13.55-12.57c3.75-5.77,5.9-12.43,8.62-18.7a33.39,33.39,0,0,1,7.18-11.12,4.83,4.83,0,0,1,3.43-1.7c-.66.94-1.3,1.89-1.93,2.86a59.33,59.33,0,0,1-6.07,8l1.74,0c2-7.29,7.57-15.07,15.34-16.64l-1-.51c-1.07,1.52-2.13,3-3.22,4.55a47.43,47.43,0,0,1-3.19,3.89c-.93,1-3.72,2.46-4.26,3.28,2.79-4.28,8.75-11.73,14.43-11.69.72,0,2.05-1.09.75-1.1Z"/><path class="cls-1" d="M231.33,55.93C226.61,57.17,221,59,219.27,64c-.2.57.33.92.85.87,5.54-.5,8.65-4.81,11.67-9.06a.63.63,0,0,0-.49-1c-7.36-.6-11.47,6-14.19,11.93-.45,1,1.11.9,1.58.6,5.38-3.49,9.21-8.55,13.64-13.1.54-.56-.2-1.08-.74-1.05-9.36.58-16.55,10.18-19.33,18.4-.33,1,1,1,1.57.6a16.45,16.45,0,0,0,6.27-11.32c.06-.73-1-.77-1.42-.54-7.18,3.65-15.36,13.35-14,21.89.11.67,1.26.55,1.62.21,3.23-3.09,4.47-6.9,5.67-11.12.3-1.06-1.26-1-1.75-.44-3.85,4.75-6,10.52-8.23,16.15-3.25,8.28-10.44,12.06-18.53,14.49-11.87,3.56-25.19,2-35.07,10.71-.87.77.29,1.53,1.09,1.07,9.87-5.66,20.11-12.52,31.79-13,8.28-.33,15.45-1.18,21.63-7.17,5.06-4.9,7.76-11.89,10.41-18.25a63.68,63.68,0,0,1,5.45-11.16c3-4.4,7.44-6.28,12.41-7.49,1.22-.3.83-1.63-.37-1.39-8.41,1.71-16.6,9.07-20.15,16.74-.4.87.88.91,1.36.73,4-1.53,6.15-4.86,8-8.56.3-.58-.4-.87-.85-.87C208.82,63,206.11,81.6,204.12,89l2-.12c1.34-5.86,5.13-10.55,7.49-16,.47-1.06-1.45-1-1.85-.25C205.83,83.85,199.9,95,187.21,99.26a120.44,120.44,0,0,1-15.46,4.39c-3.11.61-6.8,1.14-9.35,3.18-1,.82.52,1.56,1.3.94,3.32-2.66,9.17-2.85,13.21-3.65A66,66,0,0,0,194.1,98c9.44-5.06,14.71-16,19.47-25.08l-1.85-.25C209.3,78.24,205.49,83,204.12,89c-.23,1,1.73.74,2-.12,1.63-6.08,4.54-24.46,13-24.54l-.85-.86c-1.67,3.26-3.44,6.23-7.06,7.61l1.36.73c3.29-7.1,10.91-14,18.67-15.61l-.37-1.39c-6.92,1.69-11.55,4.68-15.3,10.81-4.24,6.94-6,15.15-10.4,22.08a24.32,24.32,0,0,1-9,8.56c-5.52,3-12,2.27-18,2.73-10.46.78-20.6,8-29.42,13.06l1.08,1.07c10.61-9.38,26.74-7.35,39.48-12a25.88,25.88,0,0,0,12.62-9.74c4.24-6.18,5.21-13.9,10.06-19.88l-1.74-.44C209,74.89,208,78.64,205,81.49l1.61.21c-1.22-7.73,6.47-16.87,13-20.16L218.13,61a14.87,14.87,0,0,1-5.59,10.25l1.57.6c2.49-7.34,8.88-16.66,17.33-17.18l-.74-1.05c-4.31,4.44-8.06,9.37-13.31,12.78L219,67c2.17-4.72,5.49-11.22,11.69-10.71-.16-.35-.33-.7-.49-1-2.5,3.51-5.09,7.76-9.89,8.19l.85.87c1.57-4.42,6.48-5.9,10.58-7,1.2-.32.83-1.71-.37-1.39Z"/><path class="cls-1" d="M231.86,58.22a9.6,9.6,0,0,0,1.69-2.36c.15-.29-.44-.42-.56-.42h-.54c-.39,0-1.68.38-1.68.9v.54c0,.21.77.56.89.56h.53c.25,0,1.73-.52,1.3-1a5,5,0,0,1-1-2.68c-.62.2-1.25.36-1.87.57,1,1,2.22,1.69,3.24,2.67.42.41,2.22-.31,1.8-.72-1-1-2.22-1.72-3.23-2.7-.38-.36-1.91,0-1.87.61a5.43,5.43,0,0,0,1.14,2.94c.43-.28.86-.69,1.3-.69h-.54c.19,0,.32-.15.32-.08v-.53c0,.24-.66.61-1.11.61h.53a1.37,1.37,0,0,1-.56-.27,8.45,8.45,0,0,1-1.54,2.07c-.33.33.28.46.49.46a1.92,1.92,0,0,0,1.28-.48Z"/><path class="cls-1" d="M162.9,78.63c2.46-1.29,4.79-2.6,5.91-5.25.22-.53-.37-.66-.79-.62-4.47.47-7.49,3.16-9.65,7-.44.78,1,.6,1.3.48,4.41-1.58,8.57-5,9.74-9.71.19-.76-1.32-.38-1.58-.21a24,24,0,0,0-7.3,6.75c-.58.83,1.35.52,1.68.23A46.64,46.64,0,0,0,169.94,69c1.86-2.64,2-5.59,3.31-8.39,1.22-2.54,4.85-4.09,6.59-6.44s1.93-6,2-8.94c0-.86-1.93-.47-1.94.22a26.71,26.71,0,0,1-2.63,12.25c-1.48,2.9-5.22,4-7.43,6.32-.78.83.94.84,1.4.52,2.27-1.61,3.22-3.86,4.6-6.22.45-.76-1-.6-1.29-.48-3.7,1.4-5.22,5.59-6,9.18-.17.78,1.3.36,1.58.21,3.82-2.09,5-6.17,7.72-9.3l-1.69-.23c-2,3.76-4.55,7.24-5.46,11.47-.18.88,1.61.32,1.88-.06a107.36,107.36,0,0,0,7.55-12.4c.45-.88-1.48-.67-1.81-.09-2.82,5-5.85,9.81-8.09,15.1-.38.9,1.34.64,1.69.23,4.11-4.85,9.48-10.95,9.35-17.7,0-.73-1.79-.18-1.94.37-1.38,5.27-3,10.71-7.18,14.48-2.83,2.56-5,4.84-5.76,8.7-.16.88,1.61.32,1.88-.07,1.86-2.7,2.79-5.74,4.31-8.62.46-.88-1.18-.56-1.52-.37-4.67,2.63-6,8.78-8.38,13.22-.49.92,1.46.54,1.81.08A37,37,0,0,0,170,72.69c.29-.76-1.5-.35-1.76-.08-2.42,2.61-4.58,5.47-6.94,8.16-2.1,2.4-4.59,4.22-6.11,7.08-.42.77,1,.61,1.29.48,3.89-1.49,5.66-4.75,8.06-7.94.46-.61-.76-.66-1-.57-3.73,1.09-5.78,3.72-7.78,7-.46.75,1,.62,1.3.48,3.66-1.61,6-4.61,8.06-7.94.31-.5-.43-.68-.78-.62-3.76.62-6.28,3.82-8,7-.43.78,1,.6,1.3.48,4.82-1.68,7.19-6.21,9.14-10.64.43-1-1.33-.51-1.69-.23a22.2,22.2,0,0,0-7.73,11.62c-.1.33.37.48.6.48,5,0,9.13-6.19,11-10.25.42-.93-1.48-.62-1.81-.08a36,36,0,0,0-2.16,3.77c-.4.85,1.15.62,1.51.37a18.13,18.13,0,0,0,6.23-7.83c.4-.9-1.53-.71-1.81-.09a16.67,16.67,0,0,1-5.64,7.27l1.52.37a36.16,36.16,0,0,1,2.16-3.78L167,77.07a26.55,26.55,0,0,1-4.75,6.81,3.36,3.36,0,0,1-2.67,1.39,20.41,20.41,0,0,1,1.87-4,18.9,18.9,0,0,1,5.08-5.57l-1.69-.23c-1.73,3.93-3.77,8.33-8.11,9.85l1.29.48a20.93,20.93,0,0,1,3.21-4.34q2.34-2.34.58,0a13.22,13.22,0,0,1-5.62,5l1.29.49c1.58-2.56,3.13-5.08,6.25-6l-1-.57c-2.07,2.76-3.58,5.83-7,7.15l1.3.48c1.66-3.12,4.58-5.31,6.88-7.94,2-2.3,3.85-4.76,5.93-7L168,72.91a35.46,35.46,0,0,1-5.33,9l1.81.08c2.18-4.07,3.52-10.25,7.79-12.65L170.77,69c-1.51,2.87-2.46,5.94-4.31,8.63l1.87-.07c1-5.23,4.91-6.21,7.48-10.09a42.57,42.57,0,0,0,5.46-13.09l-1.94.37c.13,6.3-5.13,12.26-9,16.8l1.69.23c2.24-5.28,5.27-10.11,8.09-15.09l-1.81-.09A107.36,107.36,0,0,1,170.77,69l1.87-.07c.89-4.12,3.38-7.5,5.33-11.17.46-.87-1.34-.62-1.69-.23-2.59,2.94-3.79,7.07-7.37,9l1.58.22c.59-2.83,1.73-6.92,4.81-8.08L174,58.2c-1.18,2-2,4.22-4,5.65l1.39.51c2.43-2.54,5.73-3.58,7.67-6.62,2.33-3.65,2.69-8.34,2.76-12.55l-1.94.22c-.06,4.09-.52,7.47-3.48,10.58-1.58,1.65-3.64,2.57-4.95,4.5s-1.42,4.92-2.48,7c-1.87,3.73-5.22,6.7-8.31,9.41l1.69.23A21.71,21.71,0,0,1,169.05,71l-1.58-.21c-1,4.19-4.64,7.2-8.59,8.62l1.3.48a13.67,13.67,0,0,1,2.32-3.32l4.06-2.2a11.88,11.88,0,0,1-4.44,3.42c-1.18.62-.1,1.34.78.88Z"/><path class="cls-1" d="M164.48,63.1c4.88-5.3,9.44-13.49,5-20.22-3.43-5.21-5.28-9.79-3.32-16,1.41-4.49,3.83-8.81,2.61-13.6-.17-.67-2-.13-2,.51V24.54c0,.58,1.91.15,2-.39a73,73,0,0,0,1.66-9.71l-1.91.39c.35,5.67-1,11.08-2.14,16.59l1.93-.26c.19-2.73.89-5.36,1.08-8.09,0-.7-1.26-.3-1.55-.13-4.2,2.37-7.9,12.62-2.34,15.27.48.22,1.75-.06,1.74-.71a8.07,8.07,0,0,0-.54-3.24c-.23-.58-1.88-.18-1.93.39-.33,4,.92,7.76,2.16,11.49.07.23.38.3.58.3h.54c.33,0,1.31-.21,1.34-.69a27.48,27.48,0,0,0-2.15-12.55c-.25-.63-2-.15-1.93.51.25,4.22,2,7.88,3.23,11.86,1.75,5.52-.74,10.15-4.24,14.29-.53.62,1.41.45,1.79,0,2.48-2.93,5.14-6.54,5-10.61-.2-5.62-3.52-10.44-3.85-16.07l-1.93.52A26.77,26.77,0,0,1,167.48,46l1.34-.65c-1.26,0-2.23-9.46-2.11-10.93l-1.93.39a8,8,0,0,1,.54,3.23l1.74-.71c-4.72-2.24-1.58-11.83,2-13.84l-1.55-.13c-.19,2.73-.89,5.36-1.08,8.09-.05.75,1.8.33,1.93-.26,1.15-5.59,2.5-11.1,2.15-16.84,0-.58-1.9-.18-1.93.38-.16,3.31-1.05,6.46-1.66,9.71a16.5,16.5,0,0,1,1.88-.39V13.24a13.79,13.79,0,0,0-1.89.51c1.2,4.74-1.36,8.93-2.66,13.35a17.38,17.38,0,0,0,1.09,13.07c1.71,3.8,4.54,5.46,4.14,10.07s-3.68,9.51-6.76,12.85c-.54.59,1.4.44,1.79,0Z"/><path class="cls-1" d="M178.42,18.08a19,19,0,0,0-6.11,12.75c-.05.88,1.43.66,1.78.18,2.92-3.93,4.24-8.63,5.57-13.28.28-1-1.59-.47-1.9,0-3.24,4.75-4.26,10.14-4.37,15.81,0,.89,1.4.66,1.78.19,3.89-4.84,5.57-10.82,8.21-16.34.48-1-1.45-.84-1.84-.2A53.43,53.43,0,0,0,175,31.91c-.23.92,1.46.53,1.78.18,3.27-3.56,5.33-7.84,7.66-12,.55-1-1.42-.8-1.84-.19-2.65,3.86-4.89,8-7.54,11.86H177c.37-3.92,2.34-7.39,2.7-11.32.06-.6-.74-.65-1.15-.55-6.36,1.53-6.16,12.2-6.2,17.2,0,.5.48.37.89.37h1.08c.33,0,.89,0,1-.35,1-2.72.67-5.31.6-8.16,0-.5-.46-.49-.89-.49h-.54a1.23,1.23,0,0,0-1,.59c-2.16,4.42.68,9.83,2.65,13.83.38.79,2.08.4,1.93-.51-.18-1.08-.25-2.16-.43-3.24-.14-.8-1.83-.4-1.83.34v5.93c0,1,2,.67,2-.16V39.29c-1,.11-1.43.23-2.08.34.18,1.08.29,2.16.47,3.24l1.9-.52a42,42,0,0,1-3.1-8,10.39,10.39,0,0,1-.27-3.38c.1-1.39-.15-1.51-.72-.35,0,.46.21,5.94,0,5.94.77,0,.56-14.35,4.92-15.4l-1.14-.55c-.36,3.92-2.34,7.39-2.7,11.32-.1,1,1.57.49,1.9,0,2.65-3.87,4.89-8,7.54-11.86l-1.84-.19c-2.26,4.06-4.26,8.23-7.43,11.69l1.78.18a52.39,52.39,0,0,1,6.42-14.37l-1.84-.2c-2.57,5.39-4.19,11.29-8,16l1.78.18c.1-5.54,1.08-10.8,4.25-15.45l-1.89,0c-1.25,4.38-2.47,8.88-5.22,12.59l1.78.19A17.74,17.74,0,0,1,180,18.61c.87-.81-1-1.08-1.61-.53Z"/><path class="cls-1" d="M161.55,21.21C160,25,158.5,28.83,155.7,31.88l1.84-.31c-2.36-5.11-7.83-6-11.91-9.25l-1.32.75c3.77-.28,6.81,1.51,9.21,4.24l1.81-.67a11.7,11.7,0,0,1-2.64-3.7l-1.87.59c2.19,2.14,4.54,4.12,5.87,6.94.24.5,2.11-.16,1.93-.52-1.36-2.88-3.74-4.89-6-7.09-.3-.28-2.06.17-1.88.6a11.8,11.8,0,0,0,2.76,3.85c.35.36,2.15-.29,1.81-.67a12,12,0,0,0-10.2-4.39c-.15,0-1.74.41-1.32.75,4,3.19,9.46,4,11.8,9.08.23.5,1.6,0,1.85-.31,2.86-3.12,4.37-7,6-10.89.16-.37-1.69-.19-1.91.33Z"/><path class="cls-1" d="M136,27.67a18,18,0,0,1,11.62,2.79c3.59,2.4,1.85,6.92,4.64,9.68a7.8,7.8,0,0,0,2.4,1.23c2.75,1.1,3.11,2.17,3.46,4.64a23.37,23.37,0,0,1-.86,10l1.91,0c.14-4.34.93-8.6,1.07-12.94,0-1-1.62-.69-1.9,0-2,4.75-1.72,9.68-1.67,14.74,0,1,1.82.69,2-.15a90,90,0,0,1,3.23-11.86l-2,.15a80.19,80.19,0,0,0-1.61,10.24c-.14,1,1.61.64,1.9,0a41.51,41.51,0,0,0,3.29-11c.16-1-1.75-.65-2,.15a41.47,41.47,0,0,0-1.62,8.08l2-.15c0-8.67-.27-17.46-11.13-16.79-.57,0-1.29.5-1,1.12l1.08,2.16c.31.62,1.6.19,1.81-.32,4-9.84-10.25-13.07-17.3-13.2-.88,0-2,1.22-.67,1.39,7.94,1,15,2.08,18.24,10.34.34.87,2.26.32,1.93-.51-3.48-8.85-10.91-10.16-19.5-11.22l-.67,1.39c6.13.12,19.7,2.74,16.12,11.6l1.81-.32-1.08-2.16-1,1.13c9.84-.6,9.37,8.24,9.35,15.54,0,1,1.91.72,2-.15a40.75,40.75,0,0,1,1.62-8.08l-2,.15A39.77,39.77,0,0,1,158.35,56l1.9,0a78.22,78.22,0,0,1,1.62-10.24c.25-.93-1.71-.66-2,.15a90.39,90.39,0,0,0-3.23,11.86l2-.15c0-4.92-.4-9.74,1.56-14.38l-1.9,0c-.14,4.34-.94,8.6-1.08,12.94,0,.94,1.66.73,1.9,0a24.84,24.84,0,0,0,1-9.62,10.07,10.07,0,0,0-1.06-4.39c-1.47-2.61-5-1.58-6.39-4.9-.74-1.73-.25-3.53-1.12-5.29s-2.83-3-4.48-3.86a20.08,20.08,0,0,0-10.91-1.86c-1.08.09-1.49,1.51-.17,1.4Z"/><path class="cls-1" d="M125.26,46.93c7.5,1.74,10.82-.9,16.82-4.93,6.36-4.26,7.53,3,7.2,7-.21,2.64-.84,5.24-.67,7.9,0,.79,1.74.07,1.93-.37a21.19,21.19,0,0,0,1.62-7.58c0-.33-.3-.49-.6-.49H151c-.34,0-1.25.24-1.25.75v2.16c1-.08,1.24-.16,1.89-.23,0-4.75-.34-10.65-5.68-12.19a7.8,7.8,0,0,0-6,1.21,8.88,8.88,0,0,0-1.88,1.94c-3,3.56-6.09,5.15-10.83,4.81L126.56,48c7.42-.2,14.42-2.59,19.06-8.62.55-.72-1.4-.59-1.8-.07-4,5.24-10.07,7.37-16.52,7.55-.71,0-2.1,1-.74,1.14,4,.3,7.13-.29,10.36-2.75,2.83-2.16,6.77-8.18,10.88-3.26,1.93,2.32,1.93,6.52,2,9.33,0,.84,2,.44,2-.23V49a3.32,3.32,0,0,0-1.42.69c.38,0-1.32,6.16-1.71,7.09l1.92-.38c-.24-3.87,3.25-13.2-1.45-15.65a7.31,7.31,0,0,0-5.91-.44,18.36,18.36,0,0,0-4.32,2.52c-3.9,2.92-7.52,4.19-12.44,3.05-.65-.16-2.29.83-1.18,1.09Z"/><path class="cls-1" d="M102.3,60.34c-3.18,4.39-3,12.86-.6,17.57.35.69,1.78.35,1.94-.36.53-2.39,3-18.76-1.4-18.3-5.74.59-3.56,15.38-2.15,18.66.29.69,1.57.32,1.87-.2,2.87-5,3.26-11.18,3.3-16.87,0-.89-1.61-.51-1.88,0a15.28,15.28,0,0,0-.6,11.11c.2.69,1.43.29,1.76,0,3-3.07,1.87-8.27,1.8-12.17,0-1-1.71-.44-2,.2a9.34,9.34,0,0,0,1.16,8.38c.38.6,1.73.08,1.86-.49.65-2.81.86-5.31-.61-7.85-.38-.65-1.91,0-1.86.66.17,2.48,1,4.64,3.44,5.64.56.23,1.78,0,1.72-.77a7.41,7.41,0,0,0-3.44-6.18c-.39-.25-2.06.08-1.72.77a14.35,14.35,0,0,0,7.21,6.72c.52.23,1.6.07,1.73-.61.72-3.71-3.39-5.52-6.14-6.88-.59-.29-2.4.44-1.51,1,3,2,5.3,4.13,9,4.42.61,0,2-1,.93-1.2a4.85,4.85,0,0,1-3.45-2l-1.25,1a27.18,27.18,0,0,1,8.4,2.12c.7.27,2.26-.73,1.16-1.16a28.39,28.39,0,0,0-8.85-2.19c-.32,0-1.84.44-1.25,1A7.24,7.24,0,0,0,115,64.75l.94-1.2c-3.39-.26-5.54-2.45-8.23-4.2l-1.51,1c2.4,1.19,6.34,2.75,5.71,6.06l1.73-.61a13.57,13.57,0,0,1-6.8-6.22l-1.72.77a6.73,6.73,0,0,1,3,5.68l1.73-.77c-2.21-.91-2.88-2.92-3-5.14L105,60.8c1.36,2.35,1,4.74.46,7.24l1.86-.49a8.64,8.64,0,0,1-1-7.79l-2,.2c.07,3.5,1.32,8.77-1.43,11.54l1.75,0c-1-3.43-1.15-7.2.49-10.46l-1.88,0c0,5.55-.37,11.62-3.18,16.55l1.88-.2c-.9-2.1-1-4.64-1.18-6.88a37.44,37.44,0,0,1,0-5.4c0-.53,1.12-4.38,1.08-4.44,1.68,1.93.76,7.09.64,9.4a48.26,48.26,0,0,1-.85,7.68l1.94-.36c-2.3-4.55-2.6-12.67.48-16.93.56-.78-1.4-.71-1.82-.12Z"/><path class="cls-1" d="M101.18,69.19c-1.08,4.44.66,12.13,5.55,13.69.41.13,1.69-.12,1.76-.64.45-3.35-1.67-7.41-5.4-7.14-.22,0-1.51.24-1.39.65.86,2.84,3.73,7.45,7.16,7a3.24,3.24,0,0,0,2.69-3.36c-.06-2.29-3.16-3.57-5-3.72-.38,0-1.55.15-1.59.66-.25,2.78,2.78,5.75,5.57,4.26,3.66-2,.92-6.21-2.36-6.54-.33,0-1.62.17-1.59.66.29,5.23,7.61,5.86,6.78,0-.06-.39-2,0-1.93.52.16,1.14.5,3.54-1.16,2.5a4.35,4.35,0,0,1-1.76-3.56l-1.59.66a3.59,3.59,0,0,1,3.23,4.6c-.55,1.79-2.71-1.16-2.82-1.33a3.58,3.58,0,0,1-.44-2.31l-1.59.66a5.07,5.07,0,0,1,4.19,2.87A2.57,2.57,0,0,1,108.8,82a13,13,0,0,0-1.14-.85,12.48,12.48,0,0,1-4-6l-1.39.66c3.24-.24,4.65,4.36,4.31,6.87l1.76-.64c-4.58-1.46-6.24-9.14-5.24-13.26.11-.44-1.78-.16-1.9.33Z"/><path class="cls-1" d="M110.93,71.68c-1.3,2.16,0,5.86,2.69,6a1.48,1.48,0,0,0,1.28-.54A7.76,7.76,0,0,0,116,72.69c0-.87-1.94-.47-1.94.22a7.07,7.07,0,0,1-1,4.16l1.28-.54c-1.88-.11-2.38-3.5-1.62-4.77.49-.82-1.46-.67-1.81-.08Z"/><path class="cls-1" d="M113.58,68.12c-.66,2.32-1,8.44,2.92,7.72,3.24-.59,3.38-5.62,2.77-8.15-.11-.47-1.76.13-1.92.43-1.14,2.12-1,4.66,1.12,6.08.32.22,1.78-.07,1.86-.5a50.21,50.21,0,0,0,1.23-8.17c-.64.17-1.79.34-1.79.52v2.69c0,.44,1.53-.18,1.7-.33,1.81-1.7,1.63-4.34,1.64-6.65,0-.39-1.8.1-2,.43A24.22,24.22,0,0,1,118,68c-1.06,1.24-3.21,2.06-4.63,2.82a18.91,18.91,0,0,0-6.25,4.82c-.19.25,1.55,0,1.83-.25a29.91,29.91,0,0,1,8.08-5.1c.52-.2.93-.63.09-.59-4.92.26-9.39,2.83-13.16,5.85-.35.29.32.31.45.3,5.81-.27,11.21-3.53,15.32-7.46.12-.12.12-.27-.08-.29-4.27-.5-12.07,1.37-12.55,6.55a.2.2,0,0,0,.18.11c6.08.83,12.28-3,14.68-8.63.06-.12-.06-.16-.16-.19-2-.63-5.89-.07-3.91,2.78.3.44,1.68-.07,1.91-.43,1.24-1.92,3.76-6.17.39-7.2-.34-.11-1.78.13-1.76.62.13,4,0,6.86-3.15,9.68-2,1.82-4.35,3.12-6,5.33-.17.24.49.21.54.21,4.36-.25,9-2.77,10.53-7,.13-.34-1.72-.14-1.9.34a9.43,9.43,0,0,1-4.93,5.23l-1.34-.31a15.84,15.84,0,0,1,1.3-1.16c.91-.78,1.91-1.47,2.86-2.2,3.77-2.92,4.17-6.09,4-10.61l-1.76.62c3,.94.31,5.24-.7,6.82l1.92-.43q-1.16-.84-.09-1a12,12,0,0,1-2,2.92,15.48,15.48,0,0,1-1.43,1.37c-1.26,1.13-8.27,4-6.74.8,1-2.07,3.86-3,5.9-3.41,4.09-.84-.89,2.48-1.9,3.15a26.5,26.5,0,0,1-2.59,1.47c-.13.06-6.41,2.78-4.47,1.22a31,31,0,0,1,8.83-4.5c-3,1.14-5.62,3.29-8.11,5.28l1.82-.25c2.39-3,5.91-4.34,9.1-6.29,2.74-1.67,3.62-4.4,4.92-7.19l-1.92.43c0,2.14.34,4.71-1.35,6.29.61-.11,1-.22,2-.33v-2.7c0-.3-2.09,0-2.11.52a49.26,49.26,0,0,1-1.14,8l1.82-.5c-2-1.36-2.14-3.77-1.06-5.78l-1.93.43c.23,1,0,7-.85,6.67-2.11-.9-1.47-5.48-1-7.1.11-.38-1.77-.13-1.9.35Z"/><path class="cls-1" d="M114.13,83.57c3.94-1.32,6-4.48,8.73-7.35.79-.82-.93-.84-1.39-.52-3.09,2.17-5.57,5.59-9.24,6.81-1.14.38-.9,1.31.29,1.06,6.25-1.33,9.7-6.57,12.62-11.81.47-.84-1.48-.69-1.81-.09-2.58,4.62-5.53,9.65-11.1,10.84.1.35.19.71.29,1.06,4.13-1.37,6.7-4.78,10.17-7.21l-1.4-.52c-2.3,2.39-4.13,5.56-7.44,6.67-1.13.38-.88,1.45.28,1.06Z"/><path class="cls-1" d="M116.86,57.74c2.55,0,5.28-.14,7.67.88,2.86,1.21,3.16,4.6,3,7.28l1.33-.69c-.27,0-.83-3.85-1-4.53s-2-.2-1.93.51a43.47,43.47,0,0,0,1,7.55c.13.68,1.83.25,1.83-.37V60.82c0,.17-1.14.34-1.76.5,1,1.62,1.61,3.53,3.41,4.41.6.3,2.4-.56,1.56-1-1.65-.81-2.33-2.74-3.23-4.22-.3-.49-2-.08-2,.5V68.6c1-.13,1.42-.25,2.07-.37a41.9,41.9,0,0,1-1-7.55l-1.9.51c.44,1.61.65,3.29,1.09,4.9.07.24.41.35.62.35h.54c.36,0,1.31-.21,1.33-.72.13-3.06-.24-6.08-3-7.83-2.49-1.56-6.11-1.29-8.9-1.29-.76,0-2,1.14-.73,1.14Z"/><path class="cls-1" d="M124.75,53.49c2.25,1,4.64,1.52,6.9,2.48,2.78,1.18,3.42,4,3.47,6.76,0,.5.46.71.88.71h.54c.37,0,1.23-.51,1.23-1V58.16c0-1-2-.69-2,.16v4.31c0-.26.6-.19.95-1.19h-.54c.3,1,.6.62.89.83,0-2.83-.57-5.39-3.06-7.05s-5.54-1.92-8.14-3.06c-.79-.35-2.24.84-1.12,1.33Z"/><path class="cls-1" d="M134.22,54.77c-1.45,1.95-1,4.22.45,6a1.22,1.22,0,0,0,1.86-.49c1.41-8.09-13-8.07-17.85-6.44-.6.21-1.3,1.24-.19,1.24,4.36,0,8.5.2,12.54,2,.68.31,2.41-.64,1.5-1-4.3-2-8.65-2.27-13.34-2.28-.06.42-.12.83-.19,1.24,4.12-1.4,16.78-1.48,15.58,5.43l1.86-.5c-1.06-1.3-1.78-3.2-.63-4.75.72-1-1.12-1.11-1.59-.47Z"/><path class="cls-1" d="M133.7,50.61c4.36,2.28,8.19,6.26,7.36,11.53l1.86-.5a.92.92,0,0,1-.47-1c0-.59-2-.21-1.93.51a1.53,1.53,0,0,0,.61,1.2c.37.39,1.77.07,1.86-.5.87-5.59-3.1-9.77-7.74-12.19-.54-.28-2.32.5-1.55.91Z"/><path class="cls-1" d="M138.36,53.51c-1,2.38-.08,4.93,1.62,6.73.35.38,1.79.12,1.79-.5V56c0,.16-1.17.33-1.79.5a12,12,0,0,1,2.66,4.19c.25.69,2.18.12,2-.52a13,13,0,0,0-2.86-4.44c-.36-.37-2-.12-2,.5V60a16.65,16.65,0,0,0,2-.5c-1.59-1.68-2.47-4-1.5-6.21.27-.62-1.6-.4-1.88.24Z"/><path class="cls-1" d="M140.73,48a12.82,12.82,0,0,1,4.63,9.26l1.94-.35c-.59-3.33-1.51-6.76-3.85-9.31-.44-.48-2.21-.11-1.85.67,1.06,2.27,1.63,4.73,2.69,7,.32.67,2,.45,1.94-.35,0-2.53-.48-5-.54-7.55l-1.95.18c.07,2.16.25,4.3.31,6.47,0,.95,1.72.62,1.72-.18V45.22a17,17,0,0,1-1.72.17,47.61,47.61,0,0,0,.66,8.26c.15.83,2.15.34,2-.52a46.4,46.4,0,0,1-.26-7.91c0-1-1.67-.63-1.67.17V54a13.1,13.1,0,0,1,1.7-.18c-.06-2.17-.59-4.3-.66-6.47,0-1-2-.62-2,.18.05,2.52.45,5,.5,7.54l1.93-.34c-1.06-2.28-1.64-4.73-2.7-7l-1.86.67c2.27,2.48,3.12,5.78,3.69,9,.14.78,2,.38,1.94-.34a13.81,13.81,0,0,0-5.07-10.15c-.6-.51-2.33.36-1.51,1.06Z"/><path class="cls-1" d="M122.74,37.92c-2.15,4.36-4.15,9.29-8.77,11.55-.15.07-.55.27-.35.48,3.82,3.92,6.7-3.84,7.25-6.43.13-.6-1.62,0-1.83.23-2.42,2-3.7,5.15-4.39,8.19-.12.56,1.51,0,1.7-.13a8.73,8.73,0,0,0,2.91-3c.1-.19-.23-.36-.33-.36h-.54c-.36,0-1.59.25-1.59.78,0,2.57,6.54,1.85,8.1,1.82.22,0,1.88-.57,1.2-.76-2.95-.8-6-.24-8.94-.82-.39-.07,2.51-3.31,2.77-3.59,1.35-1.49,2.69-3,4.1-4.41.46-.47-1.44-.12-1.75.13-2.63,2.15-5.13,4.52-6.55,7.65-.15.34,1.68.18,1.91-.33,1.39-3.06,3.83-5.35,6.39-7.44l-1.75.12c-2.59,2.63-5,5.46-7.55,8.09-.14.14-.1.26.09.32,3.15,1,6.5.21,9.7,1.08l1.21-.79c-1.31,0-7,.71-7-1.47l-1.59.66c.5,0-1.8,1.92-2.28,2.25l1.7-.12c.67-3,1.88-6,4.24-8l-1.83.23a24.84,24.84,0,0,1-1,3.26c-.47,1.25-1.19,3.59-2.57,2.17l-.35.48c5-2.46,7.2-7.4,9.56-12.17.16-.32-1.66-.17-1.91.33Z"/><path class="cls-1" d="M111.71,51.62a35.35,35.35,0,0,1,3.38-6.41q1.26-2.07,2.7-4c.34-.46.7-.91,1.07-1.35.78-.91,1-.35-.26-.6.48.1,2.18-.68,1.57-.8-2.17-.43-3.71,2.22-4.74,3.67a42.3,42.3,0,0,0-5.63,9.83c-.16.45,1.72.22,1.91-.31Z"/><path class="cls-1" d="M128.37,37.8c2.27-4,8.21-3.08,11.89-5,1.18-.62.09-1.33-.78-.87-4.21,2.19-10.24,1.09-12.92,5.79-.47.83,1.48.66,1.81.08Z"/><path class="cls-1" d="M131.41,35.62a17.85,17.85,0,0,0,5.35-.61c.28-.08,1-.33.84-.75s-.82-.32-1.1-.23a14.46,14.46,0,0,1-4.35.47,1.56,1.56,0,0,0-1.27.53c-.25.38.21.59.53.59Z"/><path class="cls-1" d="M150.8,115.36c4.21,0,12.57.17,15.12,4.17l1.29-.88c-3.29.23-5.62-1.55-8.24-3.17l-.92.94a11.88,11.88,0,0,1,10.57,4.18c.37.49,2.23-.16,1.8-.73-2.81-3.64-7.66-4.86-12.08-4.44-.33,0-1.59.52-.92.94,2.9,1.79,5.5,3.54,9,3.3.34,0,1.66-.29,1.28-.88-2.74-4.31-11.66-4.4-16.15-4.45-.67,0-2.07,1-.77,1Z"/><path class="cls-1" d="M170.77,123.82a94.48,94.48,0,0,1,7,7l1.81-.68a18.63,18.63,0,0,1-5.33-5.85l-1.88.6a49.46,49.46,0,0,1,4.36,6.93c.25.49,2,0,2-.52v-2.7c0-.4-2-.09-2,.52v2.7a14,14,0,0,0,1.86-.52,50.77,50.77,0,0,0-4.4-7.09c-.28-.38-2.09.22-1.89.6a19.07,19.07,0,0,0,5.44,6c.41.31,2.2-.29,1.81-.68a90.91,90.91,0,0,0-7-7c-.44-.36-2.18.39-1.81.69Z"/><path class="cls-1" d="M178.58,125.56a.36.36,0,0,0,0-.11l-1.72.64c.37.21.76,2.64.89,3.1a25.48,25.48,0,0,0,1,3.17c.34.8,1.84.54,1.94-.33.42-3.54-1-7.72-4.74-8.69-.57-.15-1.44,0-1.53.74-.8,5.78,4.36,9.63,8.32,12.9.52.43,2,0,1.71-.83A8.81,8.81,0,0,0,180,131c-.74-.4-2.45.53-1.48,1.15a49.28,49.28,0,0,1,5.66,4.43q1.2,1,2.43,2c.62.51,1.5.47,2.15,1.08s2.32-.37,1.48-1.15c-1.36-1.27-3.13-1.88-4.58-3.12A50.41,50.41,0,0,0,180,131l-1.48,1.15a7.79,7.79,0,0,1,4.09,4.54l1.71-.83c-3.64-3-8.59-6.56-7.85-11.89l-1.53.74c3.26.83,4.23,4.49,3.88,7.47l1.95-.32a36.28,36.28,0,0,1-1.37-4.33c-.17-.61-.36-2.21-1-2.57s-1.61-.13-1.72.64c0,0,0,.08,0,.11-.14,1,1.84.78,2-.13Z"/><path class="cls-1" d="M185.26,121.57a76.52,76.52,0,0,1,2.37,10.25c.11.69,2.14.26,2.14-.37V123.9c0-.33-.7-.46-1-.46h-.54c-.47,0-1.38.21-1.33.84.19,2.58,4.4,13.58,7.8,7.87l-1.49.51a53.5,53.5,0,0,1,7.91,2.62c.57.23,2.41-.53,1.53-1-3.6-1.82-7.09-3.64-11.18-3.87-.25.39-.49.78-.73,1.18,4.16.19,8.69,2.27,12,4.75l1.13-1.07c-2.94-.28-5.27-2.48-7-4.66l-1.48.94c2.92.87,4.89,3.52,6.09,6.18l1.86-.65c-1.71-1.38-2.85-3.24-4.32-4.85l-1.65.88a11.82,11.82,0,0,0,5.25,2.25c.45.06,1.4-.26,1.33-.85a7.72,7.72,0,0,0-2.23-4.44c-.47-.52-2.31.12-1.79.78s1.06,1.45,1.62,2.16l1.26-1A24.18,24.18,0,0,1,192.15,130c-3.65-1.8-3.91-4-3.87-7.68,0-.86-1.93-.47-1.94.22,0,3.17-.13,5.38,2.58,7.4,3.7,2.75,8.66,3.27,13.12,3.32.35,0,1.74-.36,1.26-1s-1.06-1.45-1.62-2.16l-1.79.78a7.27,7.27,0,0,1,2.09,4.18l1.33-.84a10.43,10.43,0,0,1-4.46-2.06c-.45-.3-2.22.26-1.65.88,1.46,1.61,2.61,3.47,4.31,4.85.4.32,2.19.09,1.86-.65-1.37-3-3.55-5.79-6.85-6.77-.4-.12-2,.3-1.48.95,2.05,2.55,4.72,4.73,8.08,5.05.46,0,1.87-.52,1.12-1.08a24.82,24.82,0,0,0-12.79-4.95c-.78,0-2,1.1-.73,1.18,3.8.2,7.06,2,10.38,3.67l1.53-1a56.11,56.11,0,0,0-8.27-2.76,1.49,1.49,0,0,0-1.49.51c-.39.67-.84-.32-1.22-.86a16.24,16.24,0,0,1-1.62-3.26,14.24,14.24,0,0,1-1.22-4.18l-1.33.85c-.06,0-.06,6.11-.06,7.07l1.93-.37a76.07,76.07,0,0,0-2.16-10.24c-.22-.74-2.15-.2-1.93.51Z"/><path class="cls-1" d="M192.27,118.34a38.66,38.66,0,0,1,4.31,7.55c.22.51,1.89,0,1.94-.52.23-2.67-1.46-4.29-2.7-6.47-.28-.49-2.11.13-1.93.52,1.31,2.81,2.2,6.23,5.74,6.63.32,0,1.51-.13,1.57-.58.45-3.13-.26-7.18-3.28-8.81-.3-.16-2.13.15-1.87.6,1.65,2.91,2.9,6,4.91,8.71.24.33,1.82-.09,1.86-.5a8.71,8.71,0,0,0-4.36-8.81c-.33-.19-2,0-1.88.6,1.06,4.47,6.2,7.41,10.43,8.22.27.06,2.16-.41,1.69-.73-1-.65-1.73-1.5-2.69-2.16l-1.82.68c2.23,1.31,3.93,3.24,5.93,4.85.44.36,2.16-.39,1.82-.68-2-1.61-3.7-3.54-5.93-4.85-.47-.27-2.17.44-1.82.68,1,.66,1.73,1.51,2.7,2.16l1.69-.74c-4.05-.77-9.05-3.64-10.06-8l-1.88.6a8.43,8.43,0,0,1,4.27,8.45l1.86-.5c-2-2.65-3.17-5.69-4.79-8.55l-1.88.6c2.87,1.54,3.61,5.46,3.19,8.45l1.58-.58c-3.11-.35-4-3.95-5.05-6.31l-1.93.52c1.24,2.18,2.93,3.8,2.69,6.47l1.94-.52a39.23,39.23,0,0,0-4.32-7.55c-.36-.5-2.12.26-1.93.52Z"/><path class="cls-1" d="M203.94,111c5,.73,9.28,4.36,9.9,9.53,0,.46,2,.06,1.93-.52-.1-1.1-.45-2.14-.54-3.24,0-.44-2-.07-1.93.52.09,1.1.44,2.14.54,3.24l1.93-.52c-.66-5.52-5.31-9.12-10.59-9.88-.47-.07-2.25.72-1.24.87Z"/><path class="cls-1" d="M211.29,112.38c-1,1.29-.55,3.12-.17,4.57.6,2.3,1.66,4.46,2.18,6.78.19.84,1.65.49,1.89-.13a13.61,13.61,0,0,0,.59-5c0-1.06-2-.8-2,.12a12.62,12.62,0,0,1-.49,4.66l1.9-.13a47.79,47.79,0,0,0-1.56-4.79c-.44-1.27-1.73-4.18-.75-5.42.77-1-1-1.35-1.63-.62Z"/><path class="cls-1" d="M212.22,113.49a14.86,14.86,0,0,1,1.06,6.27.64.64,0,0,0,.43.62l1.08.54a1.24,1.24,0,0,0,1.37-.36c1.65-2.52,1.81-5.5,2.81-8.27l-1.81.3c.53,1.08,1.07,2.16,1.61,3.23l1.21-1.18c-4.22-1.1-8.25-2.59-12.65-2.7l-.15,1.5A43.68,43.68,0,0,1,218,115.53c.89.26,2.28-1,1.09-1.37a46.52,46.52,0,0,0-11.79-2.22c-1.14,0-1.45,1.47-.15,1.5,4.2.11,8.13,1.64,12.15,2.69.67.17,1.55-.49,1.2-1.18-.53-1.08-1.07-2.16-1.61-3.24-.33-.65-1.61-.26-1.81.31-.94,2.59-1,5.55-2.59,7.9l1.37-.37-.91-.45c.43.21.21-1.82.21-1.89a12,12,0,0,0-1-4.24c-.4-.9-2.32-.36-1.93.52Z"/><path class="cls-1" d="M194.2,109.2C193.78,101.28,208,97.22,213,93c3.27-2.76,3.84-6.72,4.06-10.79.2-3.42.45-6.22,2.38-9.18,2-3.11,6.24-5.71,9.43-7.46l-1.2-.54c-5.48,3.74-9.56,9.38-13.24,14.81-.5.75,1.36.5,1.67.16,2.61-2.74,4.81-5.78,7.14-8.76.57-.73-1.37-.4-1.67-.16-3.58,2.87-4.89,7.35-6.13,11.59-.21.75,1.51.25,1.74,0,2.41-2.28,3.34-5.33,4.51-8.36.27-.72-1.52-.21-1.74,0-5.12,4.41-7,12.67-7.2,19.14,0,.78,1.62.33,1.86-.11,1.4-2.64,2.37-5.45,3.78-8.09l-1.87.11c-2.28,4.81-4.82,9.35-8.69,13.08a22,22,0,0,1-3,2.33l-1.18.72q-3.92.58-1.49,1.84c2.45-1,4.57-2.92,6.77-4.34,1-.66-.38-.93-1-.66-5.41,2.45-10.42,5.2-14,10.07-.28.38.23.54.52.55,5.48.12,11.13-5.24,13.67-9.68.35-.62-.7-.58-1-.48a13.36,13.36,0,0,0-8.32,6.38c-.21.39.18.54.52.55,7.42.1,14.08-6.9,18.94-11.71.73-.73-.74-.71-1.15-.53-3.67,1.65-5.67,4.8-8.07,7.92-.44.58.77.55,1,.48,4.34-1.32,7.12-5.4,9.4-9.08.45-.72-1-.51-1.27-.4-4.13,1.63-6.14,5.16-8.07,9-.37.74,1,.5,1.28.39,5-1.76,7.33-6.92,10.76-10.61l-1.8,0c-1,1.08-8.83,10.73-4.87,11.48,3.55.68,5.61-5.48,6.74-7.82.11-.23-.23-.34-.37-.38-4.34-1.28-6.84,2.81-9,5.89-.55.76,1.44.4,1.79,0,4.73-5.11,7.35-11.86,9.23-18.46.09-.33-.37-.41-.58-.41-5.49,0-7.66,10.17-7.82,14.13,0,.78,1.44.29,1.74,0,5.93-5.24,7.45-15,8.82-22.38.14-.76-1.48-.27-1.74,0-5.09,4.92-7.48,11.78-8.82,18.6-.16.82,1.62.19,1.87-.11,5.06-6.12,7.82-14.54,9.23-22.24.15-.85-1.61-.16-1.86.11-3.82,4.16-6.29,9.41-8.16,14.69-.24.69,1.37.27,1.56.15,6.5-3.78,9.56-12.09,12.23-18.73.27-.67-1.6-.26-1.86.12-3.62,5.33-7.74,10.45-9.23,16.84-.12.53.84.41,1.09.35,6.07-1.66,10-10.37,12.16-15.69.3-.74-1.62-.15-1.86.11-4.06,4.44-6,10.07-9.17,15.1-.48.77,1.21.46,1.49.28,5.47-3.49,8.08-9.77,10.62-15.49.29-.67-1.52-.24-1.74,0A39.12,39.12,0,0,0,219.89,90.8C219.36,95,221,103,214.82,104.08c-4,.73-7.87.2-11.72,1.76-.59.24-.84.9,0,.92,6.09.11,10.59-3.92,16.42-4.87.6-.1,1.76-1.06.51-1a29.43,29.43,0,0,0-11,1.77c-1.26.48-.1,1.09.76.76a25.28,25.28,0,0,1,9.48-1.47c.18-.35.35-.7.52-1.05a24.43,24.43,0,0,0-5.78,1.76c-1.33.56-2.62,1.21-3.94,1.8-.89.4-4.73,1.45-1.26,1.11,3-.29,8.89.43,10.85-2.74,2.8-4.49,1.75-10.26,2.62-15.27,1.31-7.66,5.55-14.62,11.08-20l-1.73,0c-2.35,5.29-4.79,11.45-9.88,14.7l1.5.28c3.15-5,5.1-10.66,9.16-15.09l-1.86.11c-1.68,4.2-5.66,13.18-10.48,14.5l1.09.34c1.46-6.29,5.53-11.33,9.1-16.57l-1.87.11c-2.49,6.18-5.41,14.4-11.49,17.94l1.56.14c1.84-5.2,4.26-10.32,8-14.42l-1.86.12c-1.4,7.63-4.1,15.92-9.1,22l1.86-.11c1.29-6.56,3.52-13.31,8.44-18.06l-1.74,0c-1.32,7.09-2.76,16.82-8.43,21.83l1.73,0a24.2,24.2,0,0,1,1.09-6.08,18.87,18.87,0,0,1,2.26-4.62c2.82-4.46.85-1.31.82-1.22-1.73,6.07-4.4,12.22-8.72,16.89l1.79,0c.42-.57.83-1.15,1.23-1.73l.73-1a4,4,0,0,1,3.58-2.26,42.33,42.33,0,0,1-2.59,4.78c-.82,1.27-1.22.21-.88-.71a20.56,20.56,0,0,1,2-3.64,31.8,31.8,0,0,1,3.46-4.62c.55-.6-1.39-.46-1.8,0-3.06,3.3-5.23,8.31-9.72,9.88l1.28.39c1.65-3.28,3.3-6.79,7-8.25l-1.27-.4c-1.87,3-4.25,7.08-7.86,8.17l1,.48c2-2.63,3.83-5.74,7-7.18l-1.14-.53c-2,2-4,3.82-6.13,5.6a40.08,40.08,0,0,1-5.32,3.74,4.84,4.84,0,0,1-4.06,1,11.25,11.25,0,0,1,6.16-4.33l-1-.48a22.78,22.78,0,0,1-7.57,7.49q-4.28,1.5-.09-1.69a24.52,24.52,0,0,1,3.53-2.63,46.5,46.5,0,0,1,6.48-3.31l-1-.66c-2.62,1.69-5,3.56-7.87,4.74-1.26.51-.1,1.09.75.77,8.95-3.45,13.86-10.43,17.84-18.84.27-.57-1.6-.38-1.86.11-1.4,2.64-2.37,5.45-3.77,8.09l1.86-.11c.17-6.2,1.93-14.39,6.81-18.6l-1.73,0c-1.06,2.77-1.9,5.71-4.12,7.81l1.73,0c1.16-4,2.35-8.33,5.74-11l-1.67-.16c-2.25,2.88-4.36,5.83-6.88,8.49l1.67.16c3.51-5.19,7.4-10.73,12.64-14.3,1.11-.76-.61-.86-1.2-.54-4.92,2.7-10.18,6.45-11.94,12-1,3-.54,6.57-1,9.72-.54,3.53-2.6,5.66-5.39,7.63-5.23,3.72-17.48,7.32-17,15.39,0,.61,2,.21,1.93-.51Z"/><path class="cls-1" d="M173,108.27c3.93,4.09,5.46,9,6.92,14.38l1.85-.68c-1.81-3.52-1.75-7.51-3.15-11.16-.3-.77-1.95-.51-1.95.33,0,3,0,6.4,2.41,8.58.45.41,1.74,0,1.74-.63v-9.71c-1,.11-1.31.23-2,.33a32.72,32.72,0,0,0,3.31,7.18c.4.58,1.86.26,1.86-.5a21.38,21.38,0,0,0-.56-5.58c-.24-.9-2.13-.4-1.93.52a55.67,55.67,0,0,0,2.7,8.63c.34.88,2.26.33,1.93-.52a56.78,56.78,0,0,1-2.7-8.63l-1.93.52a20.24,20.24,0,0,1,.53,5.2l1.86-.5a31.15,31.15,0,0,1-3.16-6.83c-.3-.77-1.95-.52-1.95.33v9.7a7.69,7.69,0,0,0,1.73-.63c-2.06-1.86-1.92-5.06-1.92-7.6l-1.94.33c1.45,3.78,1.44,7.85,3.31,11.49.37.72,2.08.13,1.85-.68-1.49-5.5-3.06-10.54-7.09-14.73-.61-.64-2.44.15-1.76.86Z"/><path class="cls-1" d="M153.46,123.06c-.25,1.54.77,3,1.56,4.24,1.16,1.82,2.59,3.45,3.89,5.17.33.43,2.06,0,1.87-.63-1.18-3.8-3.85-6.54-7.08-8.74-.46-.31-1.89-.1-1.86.63a9.6,9.6,0,0,0,3.84,7.12c.44.35,1.71.1,1.86-.5a6.26,6.26,0,0,0-1.14-5.09c-.29-.47-2.08,0-1.86.63a6.28,6.28,0,0,0,3.42,4,1.6,1.6,0,0,0,1.67-.44,10.54,10.54,0,0,0,1.69-5.53l-1.93.39c0,2.26-.62,4.94.54,7,.35.62,2.2,0,1.93-.52-1.17-2.08-.58-4.73-.54-7,0-.54-1.92-.2-1.93.39a9.82,9.82,0,0,1-1.55,5.26l1.67-.45a5.58,5.58,0,0,1-3-3.58l-1.87.63a5.58,5.58,0,0,1,1,4.61l1.87-.5a9.23,9.23,0,0,1-3.71-6.9l-1.86.63c3.15,2.15,5.78,4.79,6.94,8.52l1.86-.63c-1-1.34-2.09-2.64-3.09-4s-2.51-3.21-2.23-4.93c.11-.71-1.83-.36-1.93.26Z"/><path class="cls-1" d="M163.7,130.2c.56,2,1.59,3.89,2.14,5.93.19.68,1.93.27,1.93-.37v-6.47c-1,.08-1.28.15-1.93.22,0,2.59.08,5.51,2.24,7.29.56.47,2.37-.3,1.79-.78-2-1.65-2.12-4.33-2.12-6.73,0-.86-2-.47-2,.22V136a17.27,17.27,0,0,0,2-.37c-.55-2-1.57-3.89-2.13-5.93-.2-.73-2.11-.21-1.91.52Z"/><path class="cls-1" d="M146,123.34c-1.74,3-4.61,12.61,1.93,11.65a1.09,1.09,0,0,0,1.05-.8c.44-2.46-.86-3.72-3.12-4.39-.46-.13-1.58,0-1.53.74.21,3,2,5.06,4.55,6.45.61.33,2.19-.09,1.62-1a22.46,22.46,0,0,1-2.07-4.68l-1.85.69a34.78,34.78,0,0,0,3.78,4.86c.57.6,1.95.24,1.84-.7a6.36,6.36,0,0,0-2.24-4,1.1,1.1,0,0,0-1.31-.17c-.81.5-.62.72-1,1.56-.5,1,1.46,1.06,1.86.25.05-.09.65-1,.05-.6l-1.32-.17a5.78,5.78,0,0,1,2.07,3.6l1.85-.69a35.48,35.48,0,0,1-3.77-4.86c-.45-.66-2.14-.16-1.85.7a23.84,23.84,0,0,0,2.24,5l1.62-1c-2.13-1.17-3.89-2.87-4.07-5.42l-1.53.74c1.72.51,2.59,1.29,2.26,3.16l1.06-.81c-4.5.66-1.3-8-.23-9.91.56-1-1.41-1-1.85-.26Z"/><path class="cls-1" d="M133.59,129.81c1.41,2.24,2.36,4.84,5.17,5.59.5.13,1.45-.07,1.54-.7a6.94,6.94,0,0,0-4.72-7.52c-.43-.12-1.54.06-1.54.69,0,2.81.09,5.52,2.38,7.45.47.4,1.88-.06,1.72-.79-.64-2.81-2.65-5.38-5.65-3.5-2.54,1.59-1.53,4.69.69,5.91a1.33,1.33,0,0,0,1.67-.45c1-1.76,3-6.78-.73-6.94-3.37-.14-3.6,3.72-2.77,6,.21.59,1.22.45,1.6.13,2.65-2.25,3-6,4.6-8.93l-1.27.57c3.77.18.32,5.53,3.24,5.93.88.12,2-1.13.7-1.3a21.7,21.7,0,0,0-.12-3.63,3,3,0,0,0-3.12-2.3,1.35,1.35,0,0,0-1.26.57c-1.43,2.53-1.74,6.38-4,8.31l1.6.13c-.17-.45-1.07-4.6.41-4.18,2,.56-.23,4.67-.68,5.44l1.67-.45c-1.38-.75-2.43-2.27-1.31-3.74,1.39-1.82,2.63,2.05,2.83,2.91l1.71-.78c-1.95-1.66-1.93-4.22-1.93-6.58l-1.54.7c2.66.72,4.28,3.86,3.9,6.49l1.55-.7c-2.47-.65-3.3-3.24-4.54-5.19-.42-.67-2.28,0-1.77.82Z"/><path class="cls-1" d="M139.44,130.74a4,4,0,0,0,1.81,3.42c.5.28,2.29-.47,1.55-.89a3.62,3.62,0,0,1-1.43-3.05c0-.54-1.94-.18-1.93.52Z"/><path class="cls-1" d="M149.21,120.44h1.08a2.82,2.82,0,0,1,.47-1.27c-1.1,0-2.13.47-3.23.51a1.3,1.3,0,0,0-1,.52c-.24.4.2.64.54.65.77,0,1.4.48,2.16.54a1.47,1.47,0,0,0,1.27-.56c.24-.4-.21-.63-.55-.66a3.57,3.57,0,0,1-.81-.29,4.09,4.09,0,0,0-1.35-.25c-.15.4-.31.8-.47,1.2,1.1,0,2.13-.5,3.23-.53.37,0,.84,0,1-.37s-.2-.49-.55-.49h-1.08c-.45,0-1,0-1.27.45s.2.55.55.55Z"/><path class="cls-1" d="M132.1,144.46c2.69,1.17,5.64.45,8.48.41.79,0,2-1.43.73-1.43H137a3,3,0,0,1-.72,1.43,34.86,34.86,0,0,0,5.1-.43c1-.16,1.56-1.35.23-1.13A34.53,34.53,0,0,1,137,144c-.77,0-2,1.4-.72,1.4h4.31a2.8,2.8,0,0,1,.73-1.37c-2.5,0-5.33.51-7.69-.53-.64-.27-2.39.54-1.52.92Z"/><path class="cls-1" d="M147.69,142.64a9.41,9.41,0,0,0,1.73-2.33l-1.85-.25A6.28,6.28,0,0,0,147,143c0,1,2,.76,2-.14a5.23,5.23,0,0,1,.49-2.5c.21-.45-.19-.79-.6-.85a1.24,1.24,0,0,0-1.25.6,8.12,8.12,0,0,1-1.51,2,.59.59,0,0,0,.26,1,1.33,1.33,0,0,0,1.37-.37Z"/><path class="cls-1" d="M131.94,150.42a18.76,18.76,0,0,1,6.62,1.54l1.15-1a16.79,16.79,0,0,1-5-1l-1.37,1a5.13,5.13,0,0,1,1.26.4l.85.37c.48.23.17.23.39-.11l1-.5c.58-.06,0-.06-.18-.1-.59-.14-2.28.76-1.19,1,.66.16,1.72.27,2.15-.42a.3.3,0,0,0,0-.38,5.85,5.85,0,0,0-3.12-1.29,2,2,0,0,0-1.19.24c-.21.13-.63.57-.17.72A19,19,0,0,0,139,152c.29,0,2-.65,1.15-1a21.05,21.05,0,0,0-7.4-1.69c-.7,0-2.07,1-.76,1.06Z"/><path class="cls-1" d="M127.66,161.23c-2.3,3.75-2.27,8.27-2.77,12.52l1.93-.4c.15-.46.3-.92.46-1.38.46-.65-1.46-.41-1.78,0a2.92,2.92,0,0,0-.62,1.86c0,.48,1.87.14,1.93-.4.48-4.1.41-8.65,2.63-12.28.42-.7-1.5-.43-1.78,0Z"/><path class="cls-1" d="M127.59,163a25.77,25.77,0,0,0-2.71,10.34c0,.35,1.85,0,1.92-.43.73-4.69,2.23-10.59,5.86-13.91l-1.83.23a25.1,25.1,0,0,0-2.17,8.18c0,.45,1.67-.14,1.84-.33a25.39,25.39,0,0,0,4.39-7.64l-1.91.33a9.25,9.25,0,0,1-1.54,3.67c-.27.32.24.36.47.34,3.61-.39,5.14-3.15,7.76-5.32.43-.36-1.39-.18-1.76.13-1.2,1-2.2,2.2-3.31,3.3-1.42,1.42-1,1-.55.22a13,13,0,0,0,.84-2.67c.14-.45-1.72-.13-1.91.33a24.61,24.61,0,0,1-4.23,7.44l1.84-.32a24.73,24.73,0,0,1,2.14-8c.21-.51-1.62,0-1.83.23-3.72,3.4-5.26,9.3-6,14.11l1.92-.42a25,25,0,0,1,2.68-10.15c.16-.33-1.67-.17-1.91.33Z"/><path class="cls-1" d="M123.81,156.08c.49,1,.72,1.67,2,1.76.23,0,1.74-.21,1.59-.66s-.42-1.08-.6-1.62-2,0-2,.52v1.61c0,.5,1.73-.19,1.9-.32,1.61-1.28,1.23-3.22,1.19-5.05,0-.47-1.65.16-1.82.33a9.6,9.6,0,0,0-1.69,2.26l1.92-.43a8,8,0,0,1,.53-3.14l-1.9.33c-.51,1.69-1.47,3.3-1.64,5.07-.2,1.93,1.94,2.76,3.42,3.23.45.15,2.17-.57,1.58-.76-1.7-.55-3.36-1.39-3-3.42a39.74,39.74,0,0,1,1.55-4.45c.14-.44-1.71-.12-1.9.33a8.05,8.05,0,0,0-.55,3.33c0,.45,1.75-.12,1.92-.43a9,9,0,0,1,1.53-2l-1.84.32c0,1.64.45,3.5-1,4.66a14.37,14.37,0,0,1,1.82-.32v-1.62a12.34,12.34,0,0,0-1.91.52c.18.54.37,1.07.55,1.61L127,157c-.82-.06-1-.85-1.28-1.47s-2.09.17-1.92.52Z"/><path class="cls-1" d="M117.34,166.32c.71,2.47,2.31,4.53,3.83,6.56.33.43,1.88-.06,1.87-.61a11.44,11.44,0,0,0-1.61-5.93c-.31-.49-2.12,0-1.94.52.58,1.78,1,3.6,1.62,5.39.19.57,2,.06,1.93-.52-.07-2.56-1-5-1.08-7.55,0-.48-1.95-.13-1.93.52.09,2.55,1,5,1.08,7.55l1.93-.52c-.58-1.78-1-3.6-1.61-5.39l-1.94.52a11.33,11.33,0,0,1,1.62,5.93l1.87-.61a20.36,20.36,0,0,1-3.71-6.38c-.16-.56-2.09,0-1.93.52Z"/><path class="cls-1" d="M110.4,174.55c1.7,1.56,3.73,2.7,5.4,4.31.44.44,2.1.17,1.85-.66-.64-2.17-2.29-3.47-3.85-5-.52-.5-2.29,0-1.78.81.76,1.21,2.14,1.68,3.37,2.27.43.21,2,0,1.72-.77a23.94,23.94,0,0,0-2.77-5c-.34-.52-1.88-.16-1.86.5a10,10,0,0,0,1.7,5.16c.41.65,2.27,0,1.78-.81a8.94,8.94,0,0,1-1.54-4.54l-1.86.5a22.56,22.56,0,0,1,2.62,4.7l1.72-.77c-1.12-.54-2.41-.95-3.1-2.05L112,174c1.47,1.44,3.1,2.66,3.7,4.71l1.86-.66c-1.67-1.62-3.71-2.76-5.4-4.32-.57-.53-2.4.24-1.78.81Z"/><path class="cls-1" d="M103.39,180.14a16.18,16.18,0,0,1,7.68,3.14l1.12-1.11c-2.08-.17-3.75-1.64-5.53-2.6-.41-.22-1.73,0-1.73.61,0,2.14,3.07,3.58,4.93,3.74.44,0,1.22-.19,1.33-.71.49-2.46-.16-4.48-2.37-5.79-.49-.29-2.14.14-1.65.9,1.26,1.93,2.35,3.72,4.62,4.49.42.14,1.76-.17,1.55-.83a8.3,8.3,0,0,0-1.69-3.38l-1.65.9a19.52,19.52,0,0,0,5.57,2.23c.69.18,2.29-.85,1.16-1.15a17.88,17.88,0,0,1-5.21-2.08c-.47-.29-2.25.25-1.66.9a7.34,7.34,0,0,1,1.55,3.09l1.54-.83c-2-.67-2.93-2.49-4-4.13l-1.65.89c1.92,1.14,2.37,2.89,2,5l1.33-.7c-1-.09-3.71-1.37-3.71-2.74l-1.73.61c2.1,1.13,3.89,2.6,6.33,2.8.46,0,1.91-.55,1.12-1.11a17.76,17.76,0,0,0-8.48-3.34c-.82-.05-2,1.13-.72,1.21Z"/><path class="cls-1" d="M97.89,186.34c-3,0-5.49.19-8.06,1.75-.8.49-.61,1.36.36,1.36a20.42,20.42,0,0,0,5.12-.58c-.12-.47-.25-.94-.38-1.41A27.8,27.8,0,0,1,89.27,189c-.65.07-1.67,1.07-.63,1.43a18,18,0,0,0,8.81.34c4.2-.65,7.54-1.08,11.68.2.88.27,2.27-1,1.1-1.36a26.59,26.59,0,0,0-8-1.14c-4.33,0-8.06,2.11-12.47.6-.21.48-.42,1-.62,1.43a31.8,31.8,0,0,0,6.19-1.66c1.19-.36.83-1.72-.38-1.41a17.77,17.77,0,0,1-4.58.5l.36,1.35c2.19-1.33,4.55-1.46,7-1.48,1.13,0,1.46-1.5.15-1.49Z"/><path class="cls-1" d="M76.42,203.72l-.79.77c-.59.37-.33.95.27,1,4,.54,9.77-.63,11-5.05.1-.35-.37-.53-.62-.55-5.26-.44-11.41,1.14-13.19,6.66-.07.24.2.47.41.52,6.13,1.28,10.42-4,14.3-7.92.79-.8-.74-.91-1.21-.74-4.76,1.74-8.88,4.44-13.15,7.13-.28.18-.56.71-.13.91A8.67,8.67,0,0,0,84.08,204c2-2.46,2-5.85-1.75-5.72-3.44.11-11,4.48-9.64,8.66.53,1.65,3.73,1.63,4.93,1.16,3.33-1.29,5.72-3.95,7.63-6.89.2-.31-.06-.58-.34-.68-3.66-1.25-7.85-.35-11.21,1.36-2.26,1.16-5.66,5.23-3.17,7.81s6,1,8.56-.27C84.19,207,87,202.11,88,196.7c.07-.36-.34-.54-.62-.55-3.31-.2-7.51.4-9.93,3-1.84,1.93-3.73,6.79-1,8.94,4.47,3.54,11.1-6.46,12.58-9.57.19-.4-.17-.71-.57-.72-5.1-.12-13.77,7.45-7.94,12.12,4.31,3.45,10.87-7.78,11.8-10.49.23-.67-1.1-.56-1.38-.41-2.09,1.16-10.7,8.52-4.93,10.33,3.59,1.13,7.18-6.48,7.93-8.84.25-.78-1.32-.51-1.6-.29-1.6,1.27-7.3,7.56-3.1,9.1,4,1.46,5.86-4.51,7.33-7,.55-.93-1.32-.69-1.7-.32-1.91,1.88-2.12,3.82-.64,6,.44.65,2.3,0,1.78-.82l.45-4.74-1.71-.32c-.85,1.44-1.52,3-2.37,4.39-1.12,1.88-3.52,2.12-2.11-1.35a11.12,11.12,0,0,1,3.32-4.2l-1.6-.29a19.32,19.32,0,0,1-3.48,6c-1.44,1.8-2.93.89-1.78-1.93.81-2,3.24-3.69,5-4.69l-1.39-.41a19.09,19.09,0,0,1-6.64,8.83c-2.28,0-3.28-1-3-3,0-2,1.82-3.87,3.23-5,5.71-4.77,1.25,1.18.29,2.4a22.11,22.11,0,0,1-3.79,3.76c-3.56,2.76-3.38-3.77-2.67-5.44a7.51,7.51,0,0,1,4.7-3.33c3.42-1.14,3.41.5,2.38,3.25a13.87,13.87,0,0,1-6.62,7.36c-3.12,1.67-7.85,1-5.94-3.4,1.15-2.66,5.14-3.45,7.63-3.73a9.59,9.59,0,0,1,3.12.2c.09,0-2.35,3-2.53,3.15-1.9,2-7.48,1.85-4.74-1.51a11.18,11.18,0,0,1,3.55-2.62c5.58-3,4.35,2.46,1.37,4.69-1.31,1-6.88,1.72-3.2-.63a51,51,0,0,1,9.91-5.1l-1.2-.74c-1.23,1.26-2.45,2.53-3.71,3.75a17.77,17.77,0,0,1-4,3c-2.84-1.13-2.76-2.21.22-3.23,1.49-.8,10.09-2.11,3.79,1.21a10.18,10.18,0,0,1-5.89.78l.28,1a3.89,3.89,0,0,0,1.37-1.39c.58-.8-1.39-.75-1.83-.15Z"/><path class="cls-1" d="M139.15,182.44h-1.08c-.35,0-2,.57-1.12,1,3.4,1.52,6.41,3.62,9.71,5.32.46.24,2.22-.2,1.65-.94-2.06-2.65-5.07-5.89-8.62-6.16-.5,0-1.62.33-1.25,1a22,22,0,0,0,6.06,6.57c.45.36,1.4,0,1.67-.44,1.73-2.87.1-6.61-1.64-9.09-.42-.61-1.9-.06-1.85.66a6.49,6.49,0,0,0,4.35,5.71c.4.14,1.74-.1,1.74-.68V178.9a16.44,16.44,0,0,0-2.06.5,10.25,10.25,0,0,0,1.52,2.16,1.23,1.23,0,0,0,1.82-.5c.3-.44.57-.87.87-1.31.82-.85-1.08-1-1.59-.43a4.45,4.45,0,0,0-1.26,1.94l1.86-.5a9.12,9.12,0,0,1-1.46-2.16c-.31-.54-1.7-.12-1.7.5v6.47c0-.23.87-.46,1.38-.68a5.6,5.6,0,0,1-3.46-5.07l-1.9.66c1.51,2.15,3.11,5.64,1.58,8.16l1.66-.44a21.41,21.41,0,0,1-5.81-6.37l-1.25,1c3.06.24,5.79,3.44,7.55,5.71l1.65-.9c-3.29-1.71-6.31-3.85-9.7-5.37-.37.38-.74,1.15-1.12,1.15h1.08c.81,0,2-1,.72-1Z"/><path class="cls-1" d="M253.94,163.71c-3.41-.31-.83,7.77-.76,9.43,0,1,1.94.78,2-.14.07-3.76,1.14-8.36-1.86-11.28-.45-.45-1.71,0-1.72.63,0,3.39-.58,7.27,1.71,10.07a1.17,1.17,0,0,0,1.81-.3c1.65-3.09,2.19-6.48,2.75-9.9l-2,.13c-.06,2.79-.48,5.62.55,8.28.29.73,1.37.55,1.78.05a13.64,13.64,0,0,0,2.37-4.49c-.63,0-1.8,0-1.8-.06v2.15a.66.66,0,0,0,.8.67c3-.23,4.89-1.75,6.35-4.38l-1.28.6a7.25,7.25,0,0,0,5.6-1.21c1.12-.66.09-1.77-.88-1.19a5.21,5.21,0,0,1-4.09.94,1.26,1.26,0,0,0-1.26.61c-1,1.86-1.89,3-4.27,3.16.31.22,0,.45,1,.67V166c0-1-1.78-.82-2-.06a12.51,12.51,0,0,1-2.1,4.13l1.75,0c-1-2.53-.6-5.23-.54-7.89,0-1.06-1.83-.75-2,.13-.54,3.29-1.06,6.55-2.65,9.51l1.81-.3c-2.12-2.6-1.56-6.21-1.52-9.34l-1.72.64c2.57,2.51,1.44,7.08,1.38,10.28l2-.14a38.78,38.78,0,0,0-.47-4c-.11-.74-.22-1.48-.31-2.22a11.88,11.88,0,0,1-.13-1.58c.15-.66-.16-.67-.94,0,1,.09,2-1.34.65-1.46Z"/><path class="cls-1" d="M256.49,157.56c3.05-.86,6.29-3.51,8.55-5.61.72-.67,0-1.36-.82-1.11-4,1.2-6.81,3.79-10.17,6.15-.7.49-.16,1.22.56,1.16,4-.37,6.82-3.06,10.51-4.36l-1-.95c-1.3,1.61-3.5,4.27-1.2,5.86,1.73,1.21,3.93-1.52,4.55-2.77.49-1-1.47-1-1.85-.22-.54,1.07-1.08,2.15-1.61,3.23-.27.53.38.9.83.82a5.77,5.77,0,0,0,2.48-.81c1.14-.75,3.12-2.51,4.42-2.34s2.4.37,3.64.45c.94.06,2-1.32.66-1.41s-3.5-.92-4.82-.5c-2.16.69-4,2.83-6.21,3.19l.84.82,1.62-3.23-1.85-.22c-1.53.61-1.88.42-1.05-.59a10,10,0,0,1,1.17-1.71c.55-.68-.38-1.17-1-.95-3.4,1.2-6.3,3.93-10,4.27.19.38.37.76.56,1.15,3-2.14,5.58-4.61,9.24-5.71l-.82-1.11c-2,1.87-4.94,4.42-7.62,5.17-1.19.34-.84,1.67.35,1.33Z"/><path class="cls-1" d="M267,150.32c1.48-.64,3.06-1.16,4.6-1.65.58-.19,1.33-1.23.23-1.23h-4.32c-.49,0-2.09,1-.95,1.26a78.35,78.35,0,0,1,13.84,4.85c.61.27,2.37-.57,1.52-.94a80.92,80.92,0,0,0-14.19-5.11c-.32.38-.64.94-.95.94H271c.08,0,.15-.53.23-.89-1.71.54-3.46,1.09-5.11,1.8-1.23.54-.11,1.36.79,1Z"/><path class="cls-1" d="M273.15,138.72a17.25,17.25,0,0,0-.55,5c0,.57,1.67-.09,1.85-.29a12.5,12.5,0,0,0,2.21-3.95,9.78,9.78,0,0,0,1.11-3.29c0-.56-1.75.07-1.93.41-.82,1.59-1.73,5,0,6.36,1.55,1.25,3.16-1.3,3.54-2.35l-1.86.5c1.24,1.68,3,2.26,5,2.76.51.13,2.23-.65,1.57-.83-1.86-.47-3.54-1-4.73-2.63-.31-.42-1.71.09-1.86.5-.31.82-.56.74,0,1.2-.38-.3-.47-1-.55-1.46a6.89,6.89,0,0,1,.84-4.35l-1.93.41a10,10,0,0,1-1.09,3.06,11.4,11.4,0,0,1-2.06,3.72l1.85-.29a16.79,16.79,0,0,1,.53-4.74c.15-.53-1.76-.26-1.91.3Z"/><path class="cls-1" d="M257.58,189.81a3.53,3.53,0,0,0-1.15,1.74c-.24.57,1.4.11,1.54,0a3.68,3.68,0,0,0,2.54-3.58c0-.46-.81-.3-1.06-.22a12.88,12.88,0,0,0-7.87,7c-.23.5,1.19.2,1.31.15,4.33-1.85,7.17-5.27,10.65-8.3l-1.72.07c-2.32,4.94,7.12,2.89,9.22,4.51.47.36,2.21-.39,1.81-.7-2.18-1.69-11,0-9.11-4.11.26-.55-1.52-.11-1.71.06-3.19,2.78-5.86,6.17-9.84,7.88l1.31.14c1.22-2.56,3.32-5.09,6.15-5.94l-1.06-.23c-.11,1.42-.19,2.17-1.77,2.89l1.53.05,1-1.5c.48-.52-1.41-.32-1.77.06Z"/><path class="cls-1" d="M254.62,183.2c3.45.47,6.46-2.54,9.27-4,1.08-.58-.44-.58-.91-.42s-.72.41-1.08.54l1.22.2c1.36-1.34,2.73-2.79,4.61-3.38,1.11-.34.94-1-.19-.67a14.9,14.9,0,0,0-6.18,4.16c-.51.51,1.09.25,1.23.21.38-.14.71-.42,1.08-.54l-.91-.42c-1.89,1-4.69,3.82-6.91,3.51-.45-.06-2.24.71-1.23.85Z"/><path class="cls-1" d="M247.41,206.2a9.3,9.3,0,0,0-2.86,5.75c-.07.71,1,.78,1.41.52a18.05,18.05,0,0,0,7.51-9.63c.3-.83-.83-1-1.36-.7a12.41,12.41,0,0,0-7,10.35c0,.52.49.65.9.66,4.41,0,5.89-5.54,7.9-8.52l-1.74-.41c-.75,2.42-1.93,4.65-2.21,7.19-.08.75,1,.72,1.41.52,3.47-1.58,4.48-5.12,6.85-7.84.77-.87-.87-1.24-1.45-.75a11.79,11.79,0,0,0-3.52,5.19c-.18.47.17.75.6.84,3.53.7,5-2.42,7.07-4.74l-1.74-.41a10.85,10.85,0,0,0-.58,5.23c.08.59,1,.51,1.4.32a13,13,0,0,0,4.69-4.6l-1.79-.23c-.27,1.28-.27,2.5-.54,3.78-.1.46.55.71.9.65,2.65-.44,3.84-2,5.26-4.2a10.69,10.69,0,0,1-1.73-.23v3.24c0,1,2,.75,2-.14v-3.23c0-.88-1.5-.81-1.87-.23-.82,1.26-1.76,3.06-3.46,3.35l.88.65c.27-1.27.26-2.5.53-3.77.19-.91-1.46-.71-1.8-.23a11.21,11.21,0,0,1-3.93,4l1.39.33c.17-1.49.34-3,.5-4.47.33-1.06-1.26-1-1.73-.42-1.1,1.25-2.76,4.3-4.79,3.89l.59.84a9.67,9.67,0,0,1,2.95-4.52l-1.45-.75c-2.08,2.38-3,5.86-6.09,7.26l1.41.52c.26-2.4,1.4-4.54,2.1-6.82.32-1-1.3-1.06-1.73-.42-1.4,2.08-3.15,7.68-6.12,7.66l.9.65a10.65,10.65,0,0,1,5.92-9l-1.36-.71c-1.28,3.46-3.26,6.78-6.51,8.7l1.41.52a8,8,0,0,1,2.53-5c.83-.9-1-1.25-1.63-.59Z"/><path class="cls-1" d="M266.67,182.12c3.1-.81,5.31-2.79,7.25-5.28.27-.36-.23-.52-.51-.5-3.94.27-6.76,2.64-8.83,5.9-.22.36.2.52.51.5,4.28-.33,8.25-3.84,10-7.65.22-.48-.94-.32-1.08-.29a9.89,9.89,0,0,0-7.32,5.95c-.09.21.21.34.36.35,4.46.36,7.9-2,10.66-5.34.53-.63-1.42-.38-1.78,0a9.56,9.56,0,0,0-2.77,6.06c0,.4.54.4.82.35a5.92,5.92,0,0,0,4.34-3.86l-1.92.28a19.86,19.86,0,0,0-1.62,4.31c-.05.32.34.36.57.37,2.16,0,3.45.44,3.2,2.86-.07.71,1.87.32,1.93-.27.32-3.14-1.64-3.59-4.35-3.6l.57.37a21.26,21.26,0,0,1,1.62-4.32c.22-.57-1.68-.29-1.92.28-.32.75-1.15,2.42-2.13,2.61l.82.35a9.08,9.08,0,0,1,2.62-5.8h-1.78a22,22,0,0,1-2.16,2.27l-.65.53a5.27,5.27,0,0,1-4.21,1.25,7.3,7.3,0,0,1,5.33-4.16l-1.08-.3c-1.19,2.62-4.24,6.14-7.28,6.37l.51.5c1.43-2.26,3.38-4.69,6.27-4.89l-.51-.49c-1.52,2-3.19,3.76-5.69,4.42-1.15.3-.92,1.16.23.85Z"/><path class="cls-1" d="M254.84,183.86c3.38-.81,4.76-3.77,7.48-5.6l-1.4-.54a39,39,0,0,0-4.44,5c-.52.74,1,.63,1.31.51,4.36-1.83,7-5.78,11-8.2,1.11-.69-.55-1.1-1.23-.68-3.79,2.32-6.41,6.22-10.57,8l1.31.5a38.88,38.88,0,0,1,4.19-4.7c.82-.81-.93-.85-1.4-.54-2.29,1.54-3.76,4.52-6.54,5.19-1.19.28-.88,1.37.29,1.09Z"/><path class="cls-1" d="M283.68,169.43a4.5,4.5,0,0,0-2.77.9c-.77.6.81.37,1.08.28a33.49,33.49,0,0,0,4-1.71c.55-.27.45-.57-.14-.55a7.72,7.72,0,0,0-6.22,3.27c-.18.24.47.24.54.24,3-.14,5.29-1.81,8-3,1.11-.47-.43-.55-.9-.38-2.06.75-3.71,1.93-3.86,4.27,0,.4,1.4-.06,1.53-.12a10.76,10.76,0,0,0,3-1.82l-1.83.23c-.44,1.06-.64,2.18-1.08,3.23-.2.48,1.37.06,1.51,0,.58-.32,1.49-.17,2.16-.54l-1.53.12c.16,1.11,1.06,1.76,1.62,2.69.3.5,2.1-.23,1.93-.52-.55-.91-1.46-1.6-1.61-2.69-.06-.41-1.36,0-1.53.12-.58.32-1.49.16-2.16.54l1.52,0c.44-1.06.64-2.17,1.08-3.23.2-.5-1.63,0-1.84.23a8.41,8.41,0,0,1-2.38,1.41l1.53-.12a3.55,3.55,0,0,1,2.61-3.28l-.9-.38c-2,.84-3.84,2.34-6,2.44l.54.24a4.37,4.37,0,0,1,3.48-2.13l-.15-.55a30.14,30.14,0,0,1-3.55,1.53l1.08.27.46-.17c.54,0,2.12-.84.83-.81Z"/><path class="cls-1" d="M282.31,184c-.54,1.07-1.08,2.15-1.61,3.23l1.9-.33a18.71,18.71,0,0,1,2.16-4.31c.17-.25-.46-.25-.54-.25a2.12,2.12,0,0,0-1.29.47,7,7,0,0,0-2.25,4.52c0,.33,1.91.07,1.94-.52a6.46,6.46,0,0,1,2.06-4.12l-1.83.23a18.28,18.28,0,0,0-2.15,4.31c-.16.45,1.69.11,1.9-.33l1.62-3.23c.16-.33-1.65-.18-1.91.33Z"/><path class="cls-1" d="M288.59,157.67a3.77,3.77,0,0,0-1.44,4.34c.08.32.6.32.84.29,2.82-.32,3.71-2.31,3.79-5l-1.93.37c0,1.21-.05,4.52,1.84,4.58,2.1.08,2.8-2.27,3.33-3.87l-1.94.23a20.32,20.32,0,0,0-.54,5.39c0,.63,1,.47,1.36.3,2.23-1,3.17-3.09,3.81-5.38l-1.93.23c-.57,2.53-1.51,4.93-1.62,7.55,0,.83,1.42.33,1.75.05,1.59-1.34,2-3.43,3.36-5l-1.87.08a46.12,46.12,0,0,0-1.08,8.09c0,.74,1.22.41,1.57.19,2.3-1.42,3-3.74,3.06-6.35,0-.84-1.8-.41-1.94.23a34.3,34.3,0,0,0-.54,7c0,.83,1.94.43,1.94-.23a32.89,32.89,0,0,1,.54-7L299,164c-.05,2.09-.37,4.3-2.33,5.51l1.57.19a48.09,48.09,0,0,1,1.08-8.09c.18-.89-1.61-.22-1.87.09-1.24,1.45-1.64,3.47-3.11,4.71l1.75,0c.11-2.61,1-5,1.61-7.54.17-.77-1.75-.42-1.93.23-.45,1.6-1,3.55-2.66,4.32l1.36.3a19.91,19.91,0,0,1,.54-5.39c.2-.75-1.73-.41-1.94.23a11.66,11.66,0,0,1-.83,2.12c.38.46.36.35,0-.33a9.07,9.07,0,0,1-.43-3.24c0-.63-1.91-.26-1.93.37,0,1.17,0,3.46-1.6,3.64l.84.3c-.26-1.14-.4-2.41.71-3.21s-.58-1.06-1.21-.61Z"/><path class="cls-1" d="M285,145.73c-.95,2.12-.08,4.15,1.07,6,.28.47,1.82.11,1.92-.4a36.13,36.13,0,0,0,.55-7.12c0-.48-1.8,0-1.93.41-.41,1.49-1.14,4.87,1.28,4.95s3.29-2.33,3.87-4.18l-1.92.41c-.07,2.15-.24,3.75,1.14,5.49.31.39,1.73-.07,1.86-.5a24.43,24.43,0,0,0,1.09-6.11c0-.2-.47-.27-.57-.27h-.54c-.3,0-1.3.26-1.36.68-.4,2.89.14,6.59,2.75,8.32.41.27,1.88,0,1.87-.59a10,10,0,0,0-.54-3.77c-.2-.54-2.09,0-1.93.52a41.21,41.21,0,0,0,3.24,6.56.64.64,0,0,0,.56.28H298c.32,0,1.29-.26,1.36-.68a7,7,0,0,0-1.67-6.18c-.3-.35-2.07.12-1.87.59a72.78,72.78,0,0,0,4.85,8.61c.3.49,2,.07,1.93-.52a10.58,10.58,0,0,0-1.61-5.39l-1.94.51a41.49,41.49,0,0,0,3.84,6c.36.42,2.19-.26,1.81-.7a39.48,39.48,0,0,1-3.71-5.84c-.34-.54-2.16.16-1.94.52a10.62,10.62,0,0,1,1.62,5.39l1.93-.52a72.91,72.91,0,0,1-4.85-8.62l-1.87.61A6.2,6.2,0,0,1,297.4,156l1.36-.6c-.82,0-2.83-5.12-3.21-6.28l-1.93.52a10,10,0,0,1,.54,3.77l1.87-.61c-2.46-1.62-3-5.16-2.64-7.88l-1.36.6c.47,0-.82,4.75-1.09,5.63l1.86-.5c-1.36-1.72-1.08-3.27-1-5.3,0-.48-1.78,0-1.92.41,0-.14-1.07,3.23-1.55,2.26s-.07-2.57.23-3.64l-1.93.41a34,34,0,0,1-.53,6.9l1.93-.41c-1.08-1.79-2-3.77-1.09-5.83.2-.43-1.67-.24-1.91.31Z"/><path class="cls-1" d="M280.19,133.63c-.61,1.53-.3,2.32.57,3.73.42.67,1.69.08,1.86-.5a23.53,23.53,0,0,0,1.08-5.39c.07-.94-1.61-.58-1.89,0-3.63,7.57,7.41,2.6,10.52,2.36,1.06-.08,1.52-1.32.2-1.31a28.09,28.09,0,0,0-8.89,1.12c-.63.21-1.29,1.26-.18,1.27,4.86.06,9.7.48,14.56.54l.69-1.32a76.44,76.44,0,0,1-14.88-1l-.66,1.27c5-.37,9.88.43,14.85.54l.69-1.31c-4-.07-7.9-.43-11.86-.51-.23.44-.46.35-.69,1.35h11.32c.85,0,2-1.31.69-1.35-4.87-.12-9.68-1-14.56-1.09-.14.44-.29.86-.44,1.3a114.39,114.39,0,0,0,12.4-1.08c1-.13,1.54-1.32.2-1.32a97.45,97.45,0,0,0-11.33.54c-1,.12-1.54,1.39-.19,1.32,4.2-.24,8.1-1.7,12.12-2.9.65-.19,1.27-1.42.18-1.42h-8.08a4.51,4.51,0,0,1-.45,1.47,73.55,73.55,0,0,1,10.6.2,9.53,9.53,0,0,1,3.53,1.15c.21.11,2.22,2.32.9,2.43A22.87,22.87,0,0,1,291,131l-1.32,1.15c5.12,1.65,10.88,2.84,14.77,6.81l1-1.07c-4.72.17-9.11-2.89-12.15-6.23l-1.64.95c4.61,3.07,9,6.1,12.26,10.66l1.64-.94a34,34,0,0,1-9-11.2l-1.77.82c3.72,3.29,7.06,7,10.78,10.24.57.51,2.43-.14,1.78-.82-3.35-3.45-6.48-7.61-11.11-9.37l-1.13,1.23c4.79,1.06,8.1,4.91,11.68,8,.52.45,2.09-.18,1.63-.95-2.84-4.81-8.12-7.32-11.86-11.32l-1.63.94c4.21,2.78,7.95,6.2,12.4,8.63.63.35,2.38-.37,1.5-1.06-4.34-3.39-7.35-8.18-12.59-10.33-.59-.24-2.2.63-1.31,1.15,4.83,2.81,9.18,6.35,14,9.16.64.38,2.39-.41,1.5-1.06-3.72-2.72-7.24-5.67-10.78-8.63l-1.32,1.15a41.39,41.39,0,0,1,12.76,6.92l1.5-1.06c-1.81-1.24-3.58-2.53-5.39-3.77l-1.32,1.14c.42.14,4.36,1.73,4.36,1.73a34.83,34.83,0,0,0-4.32,3,6.87,6.87,0,0,0-2.6,4.43c-.12.71,1,.61,1.39.43a36.38,36.38,0,0,0,5.6-3.89l-1.6-.31c-.52,1.73-4.07,7.25-.45,7.57.89.09,2-1.19.69-1.31-.38,0,1.43-5.53,1.71-6.44s-1.31-.53-1.61-.31a34.45,34.45,0,0,1-5.17,3.65l1.39.44c.57-3.58,4.41-5.4,7.2-7.07.31-.19.53-.7.12-.93a29.89,29.89,0,0,0-5.57-2.24c-.57-.18-2.21.54-1.32,1.15,1.81,1.24,3.58,2.53,5.39,3.77.63.44,2.35-.37,1.5-1.06a42.38,42.38,0,0,0-13.12-7.09c-.6-.21-2.13.47-1.32,1.15,3.54,2.95,7.06,5.9,10.78,8.62l1.5-1.06c-4.83-2.82-9.18-6.35-14-9.17l-1.32,1.15c5,2.07,8,6.9,12.22,10.16l1.5-1.06c-4.45-2.43-8.19-5.85-12.4-8.63-.52-.34-2.28.26-1.64.94,3.74,4,9,6.53,11.86,11.33l1.64-.95c-3.68-3.18-7.11-7.08-12-8.17-.7-.15-2.32.78-1.13,1.23,4.34,1.65,7.32,5.73,10.46,9l1.78-.82c-3.72-3.29-7.07-7-10.79-10.24-.55-.5-2.26-.09-1.77.82a34.53,34.53,0,0,0,9.3,11.44c.52.39,2.18-.19,1.64-.94-3.35-4.69-7.8-7.75-12.54-10.9-.51-.35-2.27.25-1.64.94,3.52,3.86,8.37,6.91,13.73,6.72.36,0,1.49-.56,1-1.08-4.1-4.17-10-5.46-15.42-7.21-.57-.18-2.24.67-1.31,1.15a26.85,26.85,0,0,0,14.66,2.82c.41,0,1-.28,1.08-.74,1.16-7.44-12.91-5.3-17-5.23-.83,0-1.62,1.5-.45,1.5h8.09A9.5,9.5,0,0,1,296,129c-3.83,1.14-7.57,2.33-11.6,2.55-.06.44-.13.83-.19,1.27a97.19,97.19,0,0,1,11.32-.56c.06-.44.13-.89.2-1.33a114.82,114.82,0,0,1-12.4,1.07c-.83,0-1.63,1.29-.45,1.32,4.87.12,9.68,1.14,14.56,1.27.23-.44.46-1.13.69-1.13H286.85c-.86,0-2,1.1-.69,1.13,4,.07,7.9.37,11.86.44.86,0,2-1.34.69-1.37-5.13-.11-10.21-.95-15.34-.56-.55,0-1.73,1-.67,1.26A79.32,79.32,0,0,0,298,135.46c.86,0,2-1.31.69-1.32-4.86-.07-9.7-.48-14.56-.54l-.18,1.27a26.26,26.26,0,0,1,8.36-1c.07-.43.14-.87.2-1.31-2.43.18-11.28,4.11-8.88-.88h-1.9a24.29,24.29,0,0,1-1.07,5.39l1.86-.5L282,133.8c.4-1-1.54-.9-1.84-.17Z"/><path class="cls-1" d="M223.44,132.74a53.52,53.52,0,0,0,6.79-4c.48-.34-.86-.19-.94-.17-3.84.87-7.24,2.7-10.72,4.48-.31.15-.65.44-.09.47,4.82.24,8.71-1.56,12.69-4.14.72-.47-.56-.34-.81-.27a15.63,15.63,0,0,0-9,5.83c-.13.18.26.19.32.19a10.72,10.72,0,0,0,9.05-3.69c.42-.47-1.06-.15-1.2-.1a30.55,30.55,0,0,0-5.26,2.34c-.15.08-.38.32-.06.36a12,12,0,0,0,8.54-2c.3-.19.27-.37-.1-.37-4.64-.07-8.8-.15-13.05,1.88-.11.06-.69.41-.24.46,4,.47,7.45-.19,10.29-3.14.12-.12.13-.24-.07-.27-2.22-.35-5.39-.24-4.46,2.77.11.38,1.32-.08,1.51-.15,4.6-1.86,6.75-6.78,9.57-10.53.2-.27-1.5.06-1.69.18-3.22,1.92-5.27,4.55-7.22,7.73-.17.28,1.57,0,1.82-.27a46.83,46.83,0,0,0,9.78-13c.16-.3-1.58,0-1.82.27a32.32,32.32,0,0,0-4.93,7.1c-.19.36,1.61-.1,1.82-.27,6.64-5.32,13.37-23.49,4.36-29.34-.28-.18-2,.19-1.88.58,2.51,6.75,5.59,13.62,3.79,20.94l1.91-.44a22.21,22.21,0,0,1,.53-5.31c.1-.4-1.7,0-1.9.36-3.4,6.24-6.74,12.52-8.63,19.41-.1.35,1.75.08,1.9-.36a28,28,0,0,1,2.16-4.85c.21-.37-1.53.09-1.69.17-3.08,1.7-4.76,4.56-6.14,7.73-.18.41,1.52-.07,1.68-.17,3.74-2.34,5.8-6.77,6.69-11,.1-.48-1.5,0-1.69.17-3.92,2.54-5.31,7.47-7.22,11.5l1.9-.35a11.32,11.32,0,0,0,.55-3.86.2.2,0,0,0-.16-.1c-4-.48-7.69.24-9.3,4.31-.14.35.92.11,1,.09,4.75-1.09,6.83-5.09,10.5-7.9.36-.27-.31-.29-.44-.27-5.56.67-8.49,5.26-12.08,9.07-.43.46,1.06.15,1.2.1a21.18,21.18,0,0,0,5.39-3c.15-.11.11-.25-.07-.27a9.35,9.35,0,0,0-7.6,2.6c-.08.08-.13.15,0,.23,2.57,2.32,6.21.82,9-.44.3-.13.65-.69.08-.69H221.9c-.2,0-1.88.75-1.54.92a26,26,0,0,0,5,1.76c.42.11,2.1-.53,1.59-.66a24.4,24.4,0,0,1-4.74-1.64,4.34,4.34,0,0,1-1.54.62h3c4.81,0-5.16,2-1-.89-.65.44,3.18-3.62,3.27-3.71a19.88,19.88,0,0,1,2-1.87c3.62-3.17.55.19,0,.75-.89.94-1.74,1.9-2.65,2.81l-2,.74c4.54-2.18,6.08-1.63,4.61,1.62-.11.33,1.7.07,1.9-.36,1.77-3.73,3.13-8.75,6.79-11.13l-1.68.17c-.83,3.91-2.75,8.41-6.26,10.6l1.69-.17c1.28-2.94,2.75-5.74,5.71-7.37l-1.68.18a27.69,27.69,0,0,0-2.16,4.85l1.9-.36c1.9-6.88,5.23-13.16,8.63-19.41l-1.9.36a23.36,23.36,0,0,0-.56,5.47c0,.29,1.82,0,1.92-.44C244,108.9,241,102,238.41,95.18l-1.88.58c8.8,5.72,2.28,23.63-4.27,28.88l1.82-.27a31.24,31.24,0,0,1,4.77-6.92l-1.82.27a46.09,46.09,0,0,1-9.62,12.85l1.82-.27c1.82-3,3.73-5.54,6.79-7.36l-1.68.17c-2.54,3.38-4.62,8.29-8.77,10l1.52-.16c-.35-1.14-.11-.51,1.42-.5,2.1,0,2,.06-.42.25q-6.34.66.37-2.47c-2.41,1.57-11.75,4.49-4.43.87,4.34-2.15-.82,1-1.69,1.47-1.14.57.67.41,1.1.2Z"/><path class="cls-1" d="M220.41,124.63c4-3.43,7.87-6.9,10.45-11.55.11-.2-.24-.29-.35-.3-6.29-.67-9.29,7.71-10.74,12.46-.19.62,1.63.08,1.85-.18a68.1,68.1,0,0,0,9.24-14.68c.22-.48-1.6-.19-1.85.19a32.93,32.93,0,0,0-2.77,5c-.21.51,1.61.19,1.85-.18a28,28,0,0,0,4.77-14.78,18.06,18.06,0,0,1-2.09.52v3.23a18.35,18.35,0,0,0,2.09-.51c-.28-7.7-4.05-15.42-2.09-23.11,1.55-6.09,6.93-10.55,8.67-16.68.18-.64-1.6-.07-1.82.18-2.53,3-3.26,6.8-4,10.53-.95,4.88-2.69,9.51-3.63,14.39-.13.68,1.62.07,1.85-.18,4-4.54,6.3-11.48,6.55-17.48,0-.54-1.56.07-1.72.17-5.73,3.88-5.44,13-6.67,19.11-.13.63,1.63.13,1.84-.19a38.47,38.47,0,0,0,6-15.21c.11-.65-1.63-.14-1.84.19-3.17,4.76-3.79,10.26-3.86,15.85,0,.57,1.67-.08,1.86-.29,3.27-3.81,4.25-9.46,4.39-14.34,0-.21-.47-.31-.57-.31h-.53a1.75,1.75,0,0,0-1.36.72c-2.17,3.86-2.26,8.89-1.09,13.1.15.55,1.65,0,1.85-.27,2.77-4,2.28-9,2.24-13.69,0-.45-1.92-.11-1.93.52-.07,3.65-.38,7.22.54,10.79.13.54,1.82,0,1.92-.41a39.71,39.71,0,0,0,.6-10.33c-.13-4.57.85-9,1-13.5,0-.49-1.78,0-1.93.41-1.86,5.34-4.37,16,.06,20.69.35.37,1.72,0,1.86-.5a14.69,14.69,0,0,0,.55-4.42l-1.94.51c.11,3.14,1,6.75-1,9.48l1.79-.38c-1.73-1.8-1.5-8.54-5-7.6-5.3,1.42-3.92,9.69-3.86,13.6,0,.49,1.8,0,1.92-.41.62-2.38,5.47-17.67-1.31-15.24-6.41,2.29-3.65,16.85-2.23,21.58.17.58,1.75,0,1.92-.41,1.77-4.14,2.36-10.5-.59-14.22-.34-.42-1.68.09-1.86.5-2.48,5.64-3.31,17.26,1.67,21.77.33.29,1.82,0,1.86-.5.28-3.18,1.27-16.48-3.79-16.48-.3,0-1.31.18-1.36.6-.84,7.66,2,14.73,3.77,22.06.05.21.41,0,.56,0h.54c.37,0,1.22,0,1.36-.44,1.71-5.42,1.08-11.38-.53-16.74-.17-.55-1.95,0-1.93.55.18,7.07,2,14,2.15,21,0,.46,1.94.12,1.93-.51-.05-5.57-.48-11.13-.53-16.7,0-.56-1.76,0-1.93.41-2.76,6.09,1.62,14.24-4.11,19.17l1.72-.07a28,28,0,0,1,2.15-4.85c.29-.51-1.61,0-1.84.19-2.73,2.52-5.9,4.48-8.63,7-.53.48,1.33.28,1.64,0,3.12-2.37,5.34-5.58,8.22-8.21.56-.51-1.1-.31-1.24-.26a20.51,20.51,0,0,0-11.39,9.61c-.14.29.44.31.56.31,4.91,0,8.77-4.67,11.51-8.18a27.34,27.34,0,0,0,4.21-7.36c1.35-3.7-1.19-8.52-2-12.13-.11-.53-2,0-1.94.51.71,3.38,2,6.59,2.25,10,.23,2.75-2.21,6-3.63,8a31.42,31.42,0,0,1-6.22,6.7c-3.25,2.6-.78-1.35.06-2.26a18.32,18.32,0,0,1,7.25-4.69l-1.24-.26c-2.79,2.55-4.93,5.67-8,8l1.64,0c2.73-2.53,5.9-4.48,8.63-7l-1.84.18a28,28,0,0,0-2.16,4.85c-.21.61,1.52.11,1.71-.06,6.06-5.22,1.62-13.23,4.52-19.64l-1.93.41c.06,5.57.49,11.13.54,16.71l1.93-.52c-.18-7.07-2-14-2.15-21l-1.93.51c1.59,5.31,2.23,11.25.54,16.61l1.36-.61c-.32,0-2.2-8.18-2.48-9.24a34.41,34.41,0,0,1-1.27-12.56l-1.36.61c1.08,0,2.1,4.31,2.35,5.21.92,3.4.63,7.2.33,10.66L233,108c-4.89-4.43-4-15.93-1.57-21.37l-1.86.5c2.87,3.63,2.18,9.84.49,13.82l1.92-.41c-1.64-5.49-2.23-12.68-.67-18.2.49-1.75,1.92-2.79,2.51-.55a12.91,12.91,0,0,1-.2,5,76.51,76.51,0,0,1-2,8.28l1.93-.41c0-2-.1-4-.07-6.06,0-.47,1-8.34,2.55-5.27,1.09,2.16.89,4.71,2.66,6.55.35.37,1.53,0,1.79-.38,2.15-2.93,1.27-6.52,1.16-9.93,0-.47-1.93-.11-1.94.51a8.69,8.69,0,0,1-.53,4.21l1.86-.5c-4.36-4.6-1.77-15,.06-20.29l-1.93.41c-.13,3.63-.95,7.16-1.07,10.78-.15,4.33.45,8.54-.53,12.83l1.92-.41c-.91-3.57-.61-7.13-.54-10.78l-1.93.52c0,4.48.58,9.36-2.08,13.25l1.85-.29c-1.16-4.18-1.07-9,1.07-12.83l-1.36.61c1.35,0-3.05,12.19-4.25,13.59l1.85-.29c.06-5.43.62-10.8,3.69-15.41l-1.84.18a38.1,38.1,0,0,1-5.86,15l1.84-.18c1.17-5.72.9-15,6.27-18.64l-1.72.18c-.24,5.78-2.51,12.68-6.39,17l1.84-.18c.86-4.46,2.56-8.66,3.4-13.11.75-4,1.35-8.37,4.08-11.57l-1.84.18c-1.88,6.59-7.29,11.37-9,18-1.78,7,2.11,14.93,2.37,22,0,.47,1.81.11,1.81-.51v-3.24c0-.45-1.79-.11-1.81.52a26.89,26.89,0,0,1-4.71,14.33l1.88-.18a18.7,18.7,0,0,1,2.64-4.74l-1.84.18a66.28,66.28,0,0,1-9.09,14.44l1.85-.18a29.75,29.75,0,0,1,4.58-9.46c.58-1.12,1-1,1.21.3a28,28,0,0,1-1.92,2.4,59.13,59.13,0,0,1-6.66,6.29c-.8.68,1.13.49,1.51.16Z"/><path class="cls-1" d="M244.57,67.93c-2.49,1.15-1.76,5.61-1.65,7.72a93.89,93.89,0,0,0,1.64,13c.16.81,1.66.39,1.89-.16,1.39-3.32,3.33-12.44-.71-14.66a1.23,1.23,0,0,0-1.73.62c-1.88,6.41-1.9,14.93.55,21.21.32.81,1.8.41,1.95-.34a52.58,52.58,0,0,0,1.08-8.09c0-1-1.85-.67-2,.16-.68,5.11-1.74,9.76,0,14.74.26.71,1.67.49,1.89-.16l.54-1.62-1.89.16a13.1,13.1,0,0,0,3.86,8.79c.62.57,2.44-.22,1.77-.84a12.47,12.47,0,0,1-3.7-8.47c-.05-.79-1.7-.39-1.88.16l-.54,1.62,1.88-.16c-1.72-4.91-.65-9.41,0-14.38l-2,.16a50.24,50.24,0,0,1-1.08,8.09l1.95-.34c-2.44-6.21-2.4-14.47-.53-20.85l-1.73.63c3.35,1.84,1.56,10.51.37,13.37l1.89-.16c-.55-2.86-.94-5.76-1.27-8.66-.16-1.35-1.62-9.65.18-10.48,1.21-.55.13-1.54-.84-1.1Z"/><path class="cls-1" d="M249.42,68.2c.29,6.44,3,12.43,3.23,18.87,0,.53,1.91.12,1.93-.52.21-5.07-2-9.4-3.77-14l-1.93.52c2.83,5.65,3.19,12.1,3.23,18.32,0,.51,1.85.11,1.93-.4a73.55,73.55,0,0,0,1.08-9.82c0-.51-1.79-.07-1.92.4-1,3.79-3.73,12.09.59,14.77.44.28,1.88.07,1.87-.61a12.39,12.39,0,0,0-.54-3.78l-1.93.52c1.08,3,1.75,6.12,2.7,9.17.17.57,2,.08,1.93-.52-1.1-7.9-2.58-15.72-2.7-23.72,0-.5-1.91-.14-1.93.52-.11,4.52-.94,9.09.54,13.47.2.61,1.6,0,1.85-.27,3.54-4.25,2.81-10.72,2.78-15.88,0-.54-1.79,0-1.93.4-1,3.22-.62,6.52-.54,9.82,0,.52,1.84.11,1.92-.4a76.62,76.62,0,0,0,1.09-10.36c0-.61-1.75.07-1.93.4-1.12,2.07-1.75,4.33-2.69,6.47l1.92-.4c.14-4.07,1.46-9.22-2.88-11.49-.37-.19-1.68.06-1.74.57a14.78,14.78,0,0,0,2.21,10.46c.34.5,1.65-.12,1.86-.5,2.53-4.46.17-9.89-3.83-12.61-.45-.31-2.27.3-1.8.71a9.7,9.7,0,0,0,7.52,2.82c.59,0,2.11-.91.78-1-1.59-.06-3.17-.17-4.75-.34-.59,0-1.19-.16-1.78-.2s-.82-.18-1,.82h9.43c.26,0,2-.55,1.17-.83a49.09,49.09,0,0,0-8.79-2.17l-1,1c3.18-.07,6.14-.32,9.31.49.53.14,2.26-.67,1.56-.85-3.38-.86-6.61-.66-10.09-.59-.39,0-2.06.77-1,1a48,48,0,0,1,8.46,2c.39-.3.78-1,1.17-1H249.7c-.63,0-2.1,1-.79,1,2.28.07,4.52.33,6.79.52,1.29.1-3.13-2.79-3.88-3.44-.6.23-1.2.48-1.8.72,3.88,2.64,6.17,7.85,3.71,12.19l1.87-.5a14.07,14.07,0,0,1-2.1-10l-1.74.57c4.06,2.12,2.63,7.44,2.51,11.15,0,.58,1.75,0,1.92-.4.95-2.15,1.58-4.41,2.7-6.47l-1.93.4a74.84,74.84,0,0,1-1.07,10.13l1.93-.4c-.08-3.23-.41-6.46.53-9.59l-1.93.4c0,5,.8,11.3-2.61,15.4l1.85-.28c-1.48-4.38-.64-9-.54-13.48l-1.93.52c.12,8,1.6,15.82,2.7,23.72l1.93-.52c-.94-3-1.62-6.16-2.7-9.17-.21-.57-2.1,0-1.93.52a12.71,12.71,0,0,1,.54,3.78l1.87-.62c-4.18-2.59-1.53-10.57-.48-14.34l-1.93.4a73.27,73.27,0,0,1-1.07,9.59l1.92-.4c0-6.23-.39-12.68-3.23-18.33-.28-.56-2.14,0-1.93.52,1.81,4.6,4,8.94,3.77,14l1.93-.52c-.27-6.44-2.93-12.43-3.23-18.86,0-.51-2-.15-1.93.51Z"/><path class="cls-1" d="M266.67,70.23c-2.1,4.39-1.69,9.29-2.16,14-.07.78,1.75.29,1.93-.26q2.43-7.27,4.85-14.56c.17-.51-.88-.38-1.08-.32-6.46,1.73-7.09,14.16-7.85,19.45-.1.69,1.29.31,1.55.13,3.68-2.4,4.57-7,4.69-11.17,0-.78-1.43-.24-1.74,0-5.59,4.29-5,15-5.58,21.29-.07.77,1.63.3,1.86-.12,2.53-4.58,2.9-9.75,4.38-14.69.2-.66-1.72-.34-1.93.26a78.78,78.78,0,0,0-3.23,9.7c-.16.7,1.32.26,1.55.13,6-3.34,7.38-11.89,10.08-17.64.26-.56-1.6-.35-1.86.13-3.07,5.51-4.48,11.73-7.55,17.25-.46.83,1.37.39,1.67.14,3.25-2.74,4.62-6.73,5.95-10.65,1.93-5.66,5-10.79,6.64-16.57.19-.68-1.34-.27-1.56-.14-6,3.83-9.43,11.71-11.69,18.19-.26.75,1.63.13,1.86-.13,4.77-5.13,7-11.68,10.24-17.79.39-.72-1-.48-1.26-.37-5.95,2.15-9.25,10.15-11.38,15.59-.28.73,1.54.14,1.74,0,5.53-3.9,9.82-11.59,11.51-18.06.06-.23-.18-.34-.36-.37-4.06-.8-7.23.94-9.58,4.27-.28.38.23.51.51.53,4,.29,7.47-1.14,11-2.85.53-.26.89-.9,0-.89a34.56,34.56,0,0,0-9.67,1.14c-.58.17-1.34,1-.26,1,5.47.05,10.82.36,16.14-1.15.2,0,1.35-.67.65-.9-6.16-2.07-15.38,2.46-17.38,8.66-.07.24.2.34.37.38,6,1.39,11.44-5.35,14.43-9.66.26-.37-.22-.53-.51-.53-6.3,0-11,8.41-12.67,13.59-.13.4.62.42.83.38,7.1-1.41,10.64-9.18,14.51-14.52.49-.68-1-.47-1.27-.38-5.19,2-9.13,8.36-10.83,13.44-.2.59,1.14.34,1.34.24,5.59-2.71,7.16-8.79,11.71-12.63.83-.69-.95-.68-1.36-.4-1.5,1-1.47,1.24-2,3.09-.18.65,1.75.37,1.93-.26a3.53,3.53,0,0,1,1.25-2.3l-1.37-.41c-4.19,3.55-5.81,9.69-10.92,12.17l1.34.24c1.47-4.38,5.14-10.66,9.65-12.44l-1.27-.37c-2.29,3.15-4.33,6.46-6.8,9.48-.68.83-5.75,6.19-3.91,2.11A31.73,31.73,0,0,1,277.29,69c1.19-1.63,3.58-2.7,4.59-4.16A33.75,33.75,0,0,1,277.32,70a18.64,18.64,0,0,1-2.79,2.12l-2.59-.51a10.27,10.27,0,0,1,2-2.36c2.72-2.64,7.46-4.83,11.25-3.56l.65-.91a30.32,30.32,0,0,1-8,1.1c-1.18,0-2.37,0-3.55,0-2-.21-2.37-.14-1,.23.85-.17,3.52-.08,4.42-.51a25.92,25.92,0,0,1-4.2,1.59q-4.61-2.26,2.65-2c-1.53,5.84-5.92,13.15-10.9,16.66H267c1.83-4.67,5-12.72,10.19-14.59l-1.27-.38c-3.2,6.09-5.49,12.67-10.24,17.79l1.86-.12c2.11-6,5.35-13.82,11-17.4L276.91,67c-1.39,5-4.07,9.26-5.79,14.06-1.59,4.43-2.66,9.45-6.41,12.62l1.66.15c3.07-5.52,4.48-11.73,7.55-17.25l-1.86.12c-2.5,5.33-3.79,13.79-9.33,16.86l1.56.13a79.35,79.35,0,0,1,3.23-9.7l-1.93.26c-1.45,4.83-1.76,9.93-4.24,14.42l1.86-.13c.55-5.9,0-16.75,5.19-20.75h-1.73c-.1,3.54-.7,8.27-3.94,10.39l1.56.13c.56-3.91,1.47-17,6.16-18.28l-1.09-.33q-2.42,7.28-4.85,14.56l1.93-.26c.47-4.73.06-9.63,2.16-14,.26-.54-1.64-.34-1.93.26Z"/><path class="cls-1" d="M304,58c-6.2,6.4-9.89,14-12.58,22.41-.1.34.37.52.61.52a4.74,4.74,0,0,0,2.38-.68c1.19-.6.11-1.4-.8-1-1.17.59.27-.71.63-1.76a67.58,67.58,0,0,1,3-7.28,44.37,44.37,0,0,1,8.39-11.84c.82-.84-1.07-1-1.58-.42Z"/><path class="cls-1" d="M300.72,64.77c-7.87,6.35-13.81,15.74-17.87,24.9-.2.46,1.61,0,1.83-.22,5.35-5.93,10.87-11.87,14.64-19,.21-.41-1.59,0-1.84.22-6.53,7.09-13,14.22-18.4,22.21-.25.36,1.59,0,1.83-.23C286.65,88,291.39,82,295.54,75.87c.13-.18-.24-.25-.33-.25-8.36,0-14.62,9.8-18.29,16.21-.25.44,1.4,0,1.52,0,7-3.36,10.8-10.45,15.41-16.38.33-.42-.49-.35-.7-.32-8.3,1.32-14.77,10.63-17.84,17.8-.15.34.66.23.78.21,6.06-.77,9.69-8,11.91-12.94.2-.45-1.19-.11-1.3-.08-7.63,2.46-15,14.16-14.1,22.07,0,.49,1.66-.12,1.84-.32a24.1,24.1,0,0,0,5.47-12c.09-.48-1.11-.13-1.3-.07-6.5,2.16-9.24,11.4-11.39,17.11-.19.52,1.62,0,1.83-.22,3.79-3.71,5.11-9,8.63-12.94.49-.55-1.4-.12-1.62,0-6.61,4.1-8.51,12.39-13.62,17.89l1.84-.22a33.61,33.61,0,0,1,6.93-9.06l-1.84.22c-4.27,6.24-10.76,10.35-17,14.35-.8.52.83.39,1.09.28a31.69,31.69,0,0,0,10.24-6.77c.32-.31-.28-.36-.47-.34-5.32.43-9.75,3.39-14.09,6.29-.46.3,0,.5.33.45,3.88-.45,6.15-2.57,8.84-5.32.38-.39-.54-.35-.71-.32-5.45,1-10,4.21-14,8-.47.45.84.29,1,.26,3.67-.85,7.07-2.46,9-5.88.18-.32-.69-.23-.78-.21-9.05,1.77-13.54,10.79-17.3,18.33-.22.45,1.61,0,1.83-.22,4.64-4.39,8.09-9.78,12.34-14.52,5.3-5.9,14-7.42,20.77-11.15,1.07-.59-.43-.56-.9-.39a33.21,33.21,0,0,0-14.55,10c-.11.13-.13.28.08.32,8.61,1.54,16.34-8.39,22.56-12.74.46-.32,0-.48-.33-.45a13.75,13.75,0,0,0-11.07,6.5c-.15.26.45.25.54.24,4.05-.42,7.42-3.94,10.13-6.65s8.55-8.39,8-12.88c0-.31-.91-.1-1-.06-7.7,2-14.28,11.43-16,18.81-.12.53,1.34.08,1.51,0,3.1-1.67,5-4.31,6.92-7.22,3.11-4.79,6.73-9.18,9.65-14.11.19-.32-.7-.23-.78-.22-7.95,1.45-13.71,13.31-14.08,20.59,0,.45,1.57-.13,1.71-.22,6.38-4,11.38-12.63,13.69-19.61.18-.55-1.63,0-1.83.22a28.69,28.69,0,0,0-8.17,13c-.16.57,1.63,0,1.84-.22a52.41,52.41,0,0,0,6.89-8.53c3.35-4.69,7.66-8.7,11.43-13,.44-.5-1.44-.19-1.75.13a36.63,36.63,0,0,0-3.85,4.41c-.21.29,1.54.07,1.83-.22,2.63-2.65,5.08-5.26,6.55-8.73.08-.19-.21-.25-.34-.25-5.2,0-8.22,4.24-11.2,8-.39.5.78.31,1,.26,6.68-1.92,10-8.72,13.81-14,.13-.18-.25-.25-.33-.25-5.53,0-8.31,5.17-10.2,9.74-.21.5,1.38.05,1.51,0,5.78-2.66,10.44-9.71,12.79-15.4a.12.12,0,0,0,0-.17c-6.08-4.42-10.64,5.68-11.57,10.2-.11.54,1.34.07,1.52,0,5.42-2.58,9-9.34,10.63-14.86.06-.21-.18-.24-.33-.25-6.76-.65-9.9,8.2-10.74,13.51-.09.55,1.32.07,1.52,0,5.48-2.38,7-8.7,11.09-12.61.51-.49-1.08-.22-1.21-.18l-1.62.54c-.56.19-.9.68-.07.65,2.52-.09,5-.45,7.54-.54.37,0,2-.82,1-.82-4.08,0-7.95.21-11.74,1.79-.13.05-1,.5-.46.62a22.63,22.63,0,0,0,11.66-.6c.25-.07,1.43-.71.54-.73-4.5-.13-8.79-.69-12.28,2.63-.14.13-.1.27.08.32,3.54.88,6.3-.12,9.44-1.86.72-.39.21-.64-.38-.52-6,1.22-12.12,6.32-14.61,11.86-.2.45,1.19.12,1.29.08,5.68-2,9.31-7.72,12.94-12.16.13-.16.1-.25-.09-.33a11.47,11.47,0,0,0-8.67.15c-.27.1-1,.63-.29.65,4.87.09,9.57-3.24,14.39-2.18.47.1,2.16-.65,1.58-.77-4-.87-7.29.5-11.06,1.68,2-.62,1.52,2,1.08,2.54-.81,1-1.62,2-2.44,3-2.19,2.66-4.77,5.78-8.12,6.94l1.3.07c1.68-3.74,4.9-6.59,8.21-8.89,2.36-1.64,2.43-2.58,5.25-2.42q-3.36,1.84-3.24-.92a7.13,7.13,0,0,0,3.85-.89c-3.21.11-6.1.32-8,3.09-2.31,3.38-4.16,7.79-8.15,9.51h1.52a21.83,21.83,0,0,1,5.14-11.41c2.91-3.11,1.13,1.6,1.05,1.81a35.94,35.94,0,0,1-1.76,3.51c-1.63,3-3.87,6.22-7,7.72l1.51,0a23.93,23.93,0,0,1,1.68-4.91A21.58,21.58,0,0,1,299.86,65c.95-1.5,5.06-2.64,3.8,0-2.27,4.75-6.34,10.81-11.25,13.08l1.52,0A25.23,25.23,0,0,1,298,71c3.25-3.77.9.59.53,1.13-1.26,1.85-2.54,3.68-3.95,5.43a20.11,20.11,0,0,1-3.6,3.48c-2,1.56,1.46-2.22,1.78-2.59,1-1.13,5.25-4.07,3.23-.6a30.6,30.6,0,0,1-5,5.78l1.83-.23a36.11,36.11,0,0,1,3.69-4.21l-1.75.13c-3.18,3.64-6.53,7.13-9.7,10.78-3,3.49-5.19,7.62-8.63,10.78l1.83-.22a28.16,28.16,0,0,1,8-12.84l-1.83.23c-2.27,6.83-7.07,15.3-13.27,19.19l1.71-.21c.3-5.85,3.88-12.05,7.59-16.39.88-1,3.59-3.29,1.46.09a76.6,76.6,0,0,1-5.5,7.46c-2.81,3.46-4.1,7.76-8.31,10l1.52,0c1.47-6.48,7.41-16.08,14.22-17.84l-1.05-.06c.68,5.26-6.71,11.61-10.13,14.73a28.38,28.38,0,0,1-3.55,2.73,3,3,0,0,1,2.15-2.61l4.08-1.75c-.5.37-1,.75-1.49,1.14-3.17,2.49-6.18,5.17-9.49,7.51a31,31,0,0,1-2.86,1.77,4.05,4.05,0,0,1-3.95.33,28.56,28.56,0,0,1,8.62-6.56c1.09,0,1.56-.4,1.39-1.17a55.52,55.52,0,0,1-6.21,2.75c-2.19.89-4.36,1.79-6.5,2.8-8.62,4.08-12.71,13.3-19.41,19.64l1.83-.23c2.28-4.56,4.64-9,8-12.89A17,17,0,0,1,249.8,115c.12.34.24.68.35,1q-6.09,3.93-2.65,1.14l2.41-1.82a17.16,17.16,0,0,1,5.68-2.68,24.31,24.31,0,0,1-4,3.2c1.58-1.06,3.18-2,4.85-3s7.12-3.2,1.64,1c-.46.34-5.4,3.94-1.84,1.65,1.29-.83,2.56-1.7,3.82-2.57a42.25,42.25,0,0,0,11.19-10.63c.22-.31-1.55,0-1.83.23a34.2,34.2,0,0,0-7.08,9.27c-.21.43,1.6,0,1.83-.23,5-5.39,6.91-13.68,13.34-17.68h-1.62c-3.51,3.92-4.85,9.25-8.62,12.94l1.83-.22c1.85-4.93,4.61-14.47,10.16-16.31L278,90.21A23.72,23.72,0,0,1,272.69,102l1.84-.32c-.82-7.16,5.93-18.84,12.85-21.06l-1.29-.08a36,36,0,0,1-6.36,9.92c-3.18,3.42-1.53,0-.69-1.46a45.68,45.68,0,0,1,4.4-6.22,30.44,30.44,0,0,1,5.48-5.22c3.65-2.7,1.7,0,.66,1.39-3.46,4.77-6.77,10-12.26,12.6l1.51,0c3-5.28,6.9-10.6,12-14,4.86-3.28-.28,3-.08,2.76-1.18,1.59-2.44,3.11-3.71,4.63a59.35,59.35,0,0,1-7.89,8l1.84-.23c5.38-7.92,11.77-15,18.25-22l-1.83.22c-3.72,7-9.19,12.9-14.48,18.77l1.83-.22c4-9.13,9.89-18.38,17.72-24.7.43-.36-1.39-.18-1.76.12Z"/><path class="cls-1" d="M332.69,65.12c-6.52,2-10.65,7.61-14.65,12.78-.55.7.37,1.14,1,1a14.12,14.12,0,0,0,6-3.62c.87-.83-1-1.18-1.62-.58a11.15,11.15,0,0,1-4.76,2.86l1,1c3.64-4.69,7.44-10.19,13.38-12,1.18-.36.83-1.71-.35-1.34Z"/><path class="cls-1" d="M332.43,65.21c-6.34,2.94-15.71,8-17.8,15.2-.2.71,1.07.72,1.41.51,4.82-2.92,8.58-7.12,13.16-10.37.89-.64-.12-1.26-.83-1.12C320.11,71,314,77.55,308.87,83.82c-.46.57.14,1.07.73,1,6.64-.63,13.12-8.36,15.56-14.08.24-.57-.36-.88-.84-.84-6.81.56-17,9.14-18.31,15.89a.57.57,0,0,0,.42.58c6.17,1.93,11.59-5.11,13.34-10.24a.57.57,0,0,0-.37-.78c-4-1-7.33,2.11-9.94,4.68a52.47,52.47,0,0,0-10.4,14.73c-.39.82.87,1,1.35.7,6.51-3.39,9.63-10.28,13.86-15.92.68-.92-.88-1.29-1.46-.74-6,5.63-11.13,12.09-16.34,18.48-.73.9.88,1.25,1.46.75,3.8-3.32,7.38-6.84,10.95-10.4.86-.87-1-1.2-1.62-.59A147.66,147.66,0,0,1,288,102.54l1.28.9,2.16-1.62c.73-.55.13-1.15-.56-1.17-4.78-.11-8.16,3.66-11.1,7-5,5.63-8.33,11.37-15.89,13.88-7,2.34-19.6,3.77-22.05,12.25-.28,1,1.59.62,1.9.05,2.7-4.93,6.81-7.66,11.91-9.78l-.87-1.16c-1.55.88-3,1.84-4.52,2.83-.87.57.08,1.36.82,1.12,5.53-1.76,11-3.92,16.43-6,4.93-1.92,8.31-5.52,11.7-9.45.75-.88-.88-1.25-1.46-.75-5.37,4.62-9.82,10.31-16.11,13.75-6,3.28-12.61,5-18.39,8.89-.86.58.08,1.37.82,1.13a117.1,117.1,0,0,0,26.34-12.62c1.06-.67-.34-1.33-1.07-1-5.24,2.1-10.47,4.21-15.63,6.47-.89.39-.55,1.34.34,1.3,7.81-.32,15.23-4.26,22.08-7.68.64-.32.77-1.21-.1-1.29a4.46,4.46,0,0,0-3.46.67l1.25.87a53.35,53.35,0,0,0,7-8.09c.42-.62-.1-1-.72-1-4.74,0-7.67,3.87-8.07,8.34-.1,1,1.39.6,1.79.22,4.94-4.75,7.72-11.18,12.39-16.17.84-.9-1-1.22-1.62-.59a60.55,60.55,0,0,0-8.2,11.5c-.51.88,1.14.93,1.57.57,6-5.14,10.7-11.58,16.71-16.72.92-.78-.29-1.39-1.07-1a28.56,28.56,0,0,0-11.16,8.38c-.55.72.36,1.12,1,1,8.24-2,14.23-10.75,23.21-9.66-.11-.39-.21-.78-.32-1.16-4,3.09-8.9,4-13.82,4.58-1.08.13-1.51,1.45-.17,1.44,4.86-.07,9.7-.48,14.55-.54.65,0,1.67-1.1.64-1.38-4.87-1.32-15.36-3.86-18.19,2.16-.17.36.06.62.37.78,8.1,4,18.85-1.47,24.55-7.38a.57.57,0,0,0-.26-1c-6.29-2.77-14,1.44-18.08,6.3-.37.44-.05.94.48,1,5.18.58,9.53-3.18,13.32-6.21,5.17-4.13,11-7.52,14.78-13.08.43-.62-.11-1-.73-1-8.11,0-15.28,8.59-19.76,14.44-.44.58.12,1.06.73,1,10-.72,16.59-13.67,22.46-20.37.39-.45,0-.93-.48-1-5.21-.7-9.05,3.9-12.67,7-4.92,4.16-11.06,7.53-13.93,13.58-.26.56.39.86.85.83,5.17-.34,10.07-4.82,13.58-8.22,3.92-3.8,9.29-9,10.12-14.67.11-.75-1-.69-1.41-.51-6,2.63-10.12,7.73-15.07,11.87-3.86,3.22-8.74,6.73-9.74,12-.09.49.54.68.9.65,5.65-.46,9.92-4.61,14.08-8.07,4.48-3.73,10.52-6.63,13.34-11.94.51-1-1.14-.85-1.57-.56C318.09,83,309.5,88.41,306.6,96.94a.62.62,0,0,0,.59.83c9,.67,16.27-9.85,21.09-16,.48-.61-.14-1-.72-1-8.66-.06-18.73,11.25-20.47,19.12-.06.28.19.5.42.59,4.3,1.63,9.14-2.61,12.1-5.16,4-3.4,9-8.16,10.46-13.36.1-.36-.37-.62-.65-.64-8.62-.74-18.77,10.35-21.2,17.85-.18.55.32.88.84.83,5.12-.52,9.07-4.79,12.67-8.07,4.2-3.85,9.59-7.17,12.06-12.48.2-.43-.18-.78-.59-.83-7.13-.71-13.56,7.18-17.32,12.28a.57.57,0,0,0,.26,1c7.89,3,17.6-11,20.34-16.71a.57.57,0,0,0-.36-.78c-4.33-1.47-21,1.16-16.19,8.64,3.71,5.76,15.61-7.59,16.07-11.28.05-.39-.32-.59-.65-.64-3.49-.6-7.2-.35-9.42,2.75a6.51,6.51,0,0,0,.47,7.79c5.06,5.69,10.12-5.72,7.6-10.16-1.12-2-4.72-1.42-5.59.5C327,75,327.77,81,330.73,83.05c2.73,1.94,5.86,0,6.81-2.87,1.21-3.72-1.12-9.32-4.47-11.18-.5-.28-1.72-.14-1.72.63,0,2.53-1,14.85,4.22,13.51,7.09-1.83,3.27-13.22-2.15-14.78-.47-.13-1.55,0-1.53.73.14,5,1.5,11.15,6.35,13.53a1.25,1.25,0,0,0,1.48-.54c2.58-6-2-13.51-6-17.8-.44-.46-1.9-.33-1.86.5.26,5.51,3.3,15.16,9,17.3.5.19,1.51-.07,1.54-.73.21-5.18-3.8-11-7.78-14-.63-.47-2.05.13-1.63,1,2.62,5.35,4.85,11.62,9.84,15.23.54.39,1.91,0,1.71-.82-1.38-5.82-3.6-12-8.31-15.94-.58-.49-2.1.16-1.62,1,3.16,5.52,7.4,10.26,10.78,15.64l1.77-.86A38.71,38.71,0,0,1,340.3,72l-1.71.82c4.59,3.23,7.54,8.35,8.94,13.71.24.91,2.17.4,1.94-.51a25.18,25.18,0,0,0-9.39-14.33c-.47-.32-2.08,0-1.71.83a40.29,40.29,0,0,0,7.09,11c.57.61,2.33,0,1.77-.86-3.38-5.38-7.62-10.12-10.79-15.63l-1.62,1c4.5,3.78,6.54,9.77,7.86,15.33l1.71-.82c-4.84-3.51-7-9.79-9.56-15l-1.63,1c3.64,2.75,7.51,8.26,7.31,13l1.54-.73c-5.13-1.9-8-11.15-8.21-16.12l-1.86.5c3.72,4,8.3,11.12,5.89,16.7l1.48-.54c-4.26-2.09-5.38-8.06-5.51-12.35l-1.53.73c2.41.69,3.64,3.12,4.51,5.26a9.6,9.6,0,0,1,.6,4l-2.87,2a7.92,7.92,0,0,1-.68-1.93c-.81-3.06-.59-6.4-.56-9.54l-1.73.64c2.37,1.31,3.41,3.92,4,6.43.23.94.11,9-3.77,5a9,9,0,0,1-1.77-3.93,11.24,11.24,0,0,1-.22-4.32q2.4-2.44,2.88.07a7.32,7.32,0,0,1,.24,2.28c0,2.76-2.81,8.08-5.44,4.25a5.67,5.67,0,0,1-.17-5.15c.89-2.16,7.63-4.15,6-1.07a24.06,24.06,0,0,1-6,6.61A9.79,9.79,0,0,1,323,82.57c-2.92.48-1.5-3.71-.44-4.64,2.14-1.88,5.67-2.4,8.38-2.66.38,0,3.42.19,3.46.12a25.41,25.41,0,0,1-2.12,3.4,54.52,54.52,0,0,1-5.72,6.79A32.54,32.54,0,0,1,322.58,89c-.72.54-4.38,1.52-4.61,1.83a45.94,45.94,0,0,1,6.92-7.36,17.18,17.18,0,0,1,5.43-3.29c3.25-1.15-3.39,5.2-3.37,5.17-2.43,2.19-5,4.24-7.38,6.45-2.85,2.6-6.3,6.34-10.34,6.74l.84.84c1.85-5.69,7-10.58,11.66-14a15.89,15.89,0,0,1,5.11-2.54c1.91-.55.32,1.36,0,1.92a40.3,40.3,0,0,1-5.47,6.75,42.24,42.24,0,0,1-7.14,6.07,10.44,10.44,0,0,1-4.39,1.83c-1.25.15.78-3.58.86-3.73,2.94-5.4,10-13.52,16.7-13.47l-.73-1c-4.35,5.6-9.45,12.81-16.48,15.06-3.2,1,1.1-4.38,1.23-4.56a33.3,33.3,0,0,1,4.87-5,92.45,92.45,0,0,1,10.22-7.46l-1.57-.57c-2.33,4.38-7.27,6.9-11,9.91s-7.58,6.88-12.29,8.58c-1.74.62,2.52-5.2,2.92-5.61a77.16,77.16,0,0,1,6-5.18c4.53-3.78,8.12-8.37,13.66-10.78L322.72,75c-.69,4.75-4.92,9-8.09,12.28s-8.46,8.7-13.49,9l.84.83c2.14-4.5,6.35-7.48,10.21-10.44,3.44-2.64,9.19-9.54,13.87-8.91l-.48-1c-2.8,3.21-5.3,6.68-8,10-3.11,3.77-7.39,9.18-12.65,9.56l.73,1c4.05-5.29,10.71-13.64,18-13.59l-.73-1c-3,4.42-7.37,7.54-11.69,10.62-4.05,2.89-8.69,8.44-14.12,7.83l.48,1c3.27-3.93,9.05-7.32,14.32-6,.28.07-4.86,3.86-4.78,3.81a29.08,29.08,0,0,1-6.13,2.68,17.22,17.22,0,0,1-7.13.71c-4.87-.52.65-2.55,2.27-2.69A30.38,30.38,0,0,1,306.43,102c.22-.46.43-.92.64-1.38-4.86.06-9.7.48-14.55.54-.06.48-.12,1-.17,1.44,5.45-.66,10.84-1.71,15.28-5.12a.63.63,0,0,0-.31-1.17c-9.75-1.18-15.46,7.57-24.23,9.75l1,1a26.58,26.58,0,0,1,10.4-7.8c-.36-.34-.72-.68-1.07-1-6,5.14-10.7,11.58-16.72,16.72l1.57.56a58.55,58.55,0,0,1,8-11.14l-1.62-.59c-4.68,5-7.45,11.42-12.4,16.17l1.79.23c.29-3.09,1.67-6.79,5.95-6.76l-.73-1a52.79,52.79,0,0,1-7,8.08c-.74.75.68,1.21,1.25.88l1.93-.41c0-.43-.07-.86-.1-1.29-6.54,3.27-13.6,7.1-21.05,7.41.12.43.23.86.35,1.29,5.16-2.26,10.39-4.37,15.63-6.46l-1.07-1A112.79,112.79,0,0,1,243.73,133l.83,1.12c6.12-4.06,13.37-5.66,19.54-9.51,5.7-3.56,9.91-8.78,15-13.13-.49-.24-1-.49-1.45-.74-3.59,4.17-6.94,7.59-12.31,9.3-4.94,1.57-9.62,3.84-14.56,5.41l.83,1.13c1.33-.92,2.69-1.77,4.1-2.57,1.16-.66.13-1.57-.87-1.16-5.55,2.31-10,5.34-12.89,10.71l1.91,0c2.31-8,15.84-8.86,22.41-11.45a25.31,25.31,0,0,0,9.92-7.35c3.68-4.25,8.13-12.9,14.58-12.75-.18-.39-.37-.78-.56-1.17L288,102.54c-1.07.79.51,1.44,1.28.9a151,151,0,0,0,19.58-15.79l-1.62-.59c-3.46,3.45-6.94,6.87-10.62,10.09l1.46.74c5.1-6.27,10.08-12.64,16-18.17L312.65,79c-4,5.31-7,12.16-13.1,15.35l1.35.7a55.69,55.69,0,0,1,6.46-10.1,43.36,43.36,0,0,1,5.08-5.58c.77-.7,5.87-4.15,4.86-1.84a17.91,17.91,0,0,1-5.36,6.66l-3.67.37a11.54,11.54,0,0,1,1.17-2.09,22.74,22.74,0,0,1,2-2.48c2.92-3.35,8-8.22,12.73-8.6l-.84-.84c-2.08,4.86-7.9,12.35-13.55,12.88l.72,1c4.79-5.89,10.47-12.14,18.24-13.64l-.82-1.12c-4.44,3.15-8.06,7.29-12.73,10.11l1.41.51c1.87-6.48,11-11.27,16.71-13.9,1.19-.56.13-1.62-.87-1.16Z"/><path class="cls-1" d="M333.17,80.18c-3.36,2.76-7.4,5.22-9.29,9.3-.4.86,1.16.52,1.5.32A16.73,16.73,0,0,0,328.79,87c.8-.8-1.1-.79-1.55-.33a15,15,0,0,1-3.06,2.57l1.5.31c1.84-4,5.78-6.34,9-9,.86-.71-1.07-.73-1.55-.33Z"/><path class="cls-1" d="M334.06,78.71C325.76,82,321.51,90.52,315,96.09l1.55.53a82.76,82.76,0,0,1,5.82-7.38c.77-.94-1.07-1.2-1.61-.54a83.54,83.54,0,0,0-6.05,7.72c-.54.84,1.15.87,1.56.52,6.36-5.42,10.61-13.92,18.65-17.12,1.24-.49.14-1.5-.84-1.11Z"/><path class="cls-1" d="M333.83,74.82c.33-.86.67-1.71,1-2.57.38-.58-.73-.51-1-.42-9.72,3.15-19.74,12.38-24,21.59-.26.56,1.19.25,1.33.2,9.22-3.29,17.45-13.52,21.62-22,.19-.39-.67-.36-.82-.34-10.66,1.24-19.65,13-24.76,21.51-.29.49.44.5.75.47,4.42-.43,7.77-3.75,10.71-6.8,5.75-6,11.09-12.54,16.2-19,.28-.35-.23-.51-.5-.49-8.07.6-14.06,7-19.63,12.29s-13.44,11.2-15.14,19.07c-.05.23.17.32.36.35,9.78,1.34,19-11.7,22.05-19.49.18-.48-.91-.35-1.08-.29-8.18,2.7-16.77,12.37-19.18,20.51-.19.64,1.35.22,1.55.1a49.12,49.12,0,0,0,14.32-13.18c.51-.72-1.45-.34-1.78,0-6.73,7.24-14.77,14.71-24.27,18-.6.21-.86.86,0,.84a59.79,59.79,0,0,0,16.68-3.3c.55-.18,1.36-.9.27-.93-4.68-.12-9.17-.83-13.69.7-.24.08-.95.57-.41.78C304,106,314.24,101.08,321.77,95c.45-.37,0-.6-.38-.62-3.82-.14-6.66,2.17-8.36,5.49-.1.21.23.32.36.35,9.68,1.49,15.75-13.35,23.3-17,1.16-.56-.6-.75-1.18-.48-5.52,2.65-9.41,8.44-13.73,12.58a25.82,25.82,0,0,1-3.89,3.1q-3.88-1.35,1.29-2.85a39.71,39.71,0,0,1-4.65,3.12,32.28,32.28,0,0,1-8,3.31,18.67,18.67,0,0,1-6.62.5c-6.55-.5-.21-1,.49-1,2,0,4,.2,5.92.31.54-.79.14-.79-1.2,0-1.49.45-3,.81-4.52,1.18-2.42.57-4.81.72-7.14,1.52a34.11,34.11,0,0,0,5.34-2.58c7.09-4,13.25-9.77,18.74-15.67H315.8A47.21,47.21,0,0,1,302.09,99l1.55.1c2.15-7.27,10.17-17,17.48-19.39L320,79.4c-1.79,4.54-4.89,8.56-8.15,12.14a34.39,34.39,0,0,1-3.35,3.15c-.26.22-7.27,4.3-6.85,2.34.66-3.08,3.07-5.81,5-8.15,4.13-4.89,9.13-9.26,13.9-13.52q1.72-1.53,3.51-3a33.14,33.14,0,0,1,3.64-2.57,3.63,3.63,0,0,1,4.12-.94c-2.68,3.4-5.54,6.66-8.39,9.91-1.67,1.92-3.3,3.86-5,5.79-1.09,1.25-2.24,2.45-3.43,3.61-.63.6-1.28,1.17-2,1.72A9.84,9.84,0,0,1,309.39,92,64.57,64.57,0,0,1,320.78,78.3,24.63,24.63,0,0,1,330,72.46c1.18-.37-1,2.64-1.21,3-.9,1.45-1.94,2.81-3,4.16-3.93,5.15-9.18,11.1-15.44,13.34l1.32.21c3.94-8.47,13.39-17.57,22.34-20.47l-1-.41c-1,1.55-.73.89-1.15,2.82-.14.64,1.8.32,1.93-.27Z"/><path class="cls-1" d="M335,69.61c3.82.72,5.61,5.2,7.15,8.3.31.62,2,.4,1.94-.36a24.74,24.74,0,0,0-1.28-6.31c-.17-.53-.41-1.44-1.06-1.55a1.46,1.46,0,0,0-1.76,1c-.24.8,1.72.55,1.94-.2l-.35.22-1,.11c-.12,0,.27.86.35,1.15.22.7.39,1.42.55,2.14a19,19,0,0,1,.64,3.59l1.94-.36c-1.73-3.48-3.66-8.16-7.94-9-.72-.13-2.29,1-1.14,1.18Z"/><path class="cls-1" d="M312.73,114.44h-7.55c-.86,0-2,2-.7,2H312c.84,0,2-1.46.7-1.5-6.16-.19-12.19-2-18.3-.59-.61.14-1.22.82-.41,1.16,4,1.67,8.32,1.62,12.62,1.63.83,0,2-1.26.7-1.32-5.76-.24-12.65-3.28-17.69.8-.52.42-.39.93.28,1,4,.62,8.42,1,11-2.73.27-.4-.24-.71-.57-.73-6-.36-10.51,1.36-14.62,5.79-.75.81.7,1,1.2.76a10.74,10.74,0,0,0,3.62-2.43c.68-.65-.46-1-.95-.84-3.65,1-5.79,3.32-7.77,6.45-.55.87,1.42.81,1.83.16,1.94-3,5.41-4,8.6-5.36,3.93-1.64,9.3-3.78,13.46-1.74l1.1-1.18a55.35,55.35,0,0,1-8.63-.54c-.68-.1-2,1-.91,1.26,4.83,1,9.9,1.45,14.37,3.7.36-.4.73-.79,1.1-1.18a65.83,65.83,0,0,1-13.8-2.12c-.71-.17-2.31.79-1.14,1.22A33.19,33.19,0,0,0,315,119.81c.34,0,1.72-.79.86-1.18-4.64-2.08-9.4-2.79-14.42-3.36-.47,0-2,.68-1.1,1.18,5.64,3.26,12.19,2.36,18.44,2.28.41,0,1.43-.52,1-1.06-3.07-3.77-13.14-4.83-16.78-1.45-.36.33-.14.69.23.85,5.66,2.48,14.39,2.48,19.52-1.29.42-.31.48-.8-.06-1-3.58-1.33-9.72-2.83-11.73,1.6-.18.42.17.72.57.73,6.06.26,11.56-2.58,16.61-5.65a.54.54,0,0,0-.28-1c-2.64-.09-4.7-.23-6.9,1.34-.71.5-.17,1.09.52,1,5.55-.35,10.09-4,15.64-4.31.79,0,1.65-1.24.45-1.3a31.82,31.82,0,0,0-19.31,5.65c-.54.37-.38,1,.28,1,4.6.37,9.13-.41,13.73-.54.81,0,1.63-1.28.44-1.3-5.47-.1-11.35-1-16.07,2.42-.34.24-.49.62-.12.91,4.47,3.6,12.18,1.9,16.47-1.21.44-.32.46-.78-.06-1-4.32-1.82-11-1.85-14.3,2-.14.17-.29.46-.09.66,3.35,3.32,7.39,3.49,11.64,5,.58.21,2.22-.67,1.32-1.14a26,26,0,0,0-11.19-2.82c-.63,0-2,.8-.91,1.26a97.67,97.67,0,0,0,12.94,4.31c.53.14,2.23-.53,1.32-1.13-4.07-2.7-8.57-4.32-13.13-6-.6-.23-2.21.73-1.32,1.13,4.39,2,9,2.86,13.67,3.86.36.08,2.16-.38,1.45-1a22.7,22.7,0,0,0-10.56-5.59c-.44-.1-2.05.28-1.46,1a17.82,17.82,0,0,0,12.94,6.71c.35,0,1.85-.47,1.24-1.06A71.18,71.18,0,0,0,325,111.62c-.44-.28-1.72-.06-1.72.62,0,5.55,9.11,7.78,13.27,7.57.44,0,1.39-.49,1-1.06a26.44,26.44,0,0,0-9.84-8.74c-.53-.26-2.18.1-1.64.93,2.64,4.1,6.39,6.85,11.32,7.25.44,0,1.5-.27,1.31-.91-1.16-4.07-4.72-6.91-8.3-8.89-.54-.3-1.83,0-1.72.78.63,4.55,6.21,7.09,10.33,7.41.53,0,1.62-.37,1.23-1.07-1.63-3-4.45-4.65-7.14-6.58-.42-.31-2.05.06-1.72.78,1.7,3.66,5.4,5.07,8.84,6.74.41.2,2.09,0,1.72-.78a22.33,22.33,0,0,0-6.15-7.82l-1.5,1.05a38,38,0,0,0,7,4.86c.43.21,2,0,1.71-.79a23.83,23.83,0,0,0-2.23-4.46l-1.45,1c1.64.68,3.21,1.46,4.85,2.15.74.31,2.25-.75,1.13-1.22-1.62-.68-3.22-1.47-4.85-2.15-.53-.23-1.91.29-1.46,1a14.88,14.88,0,0,1,2.08,4.16l1.72-.79a38.61,38.61,0,0,1-7-4.85c-.61-.48-2.33.37-1.5,1.05a20.93,20.93,0,0,1,5.72,7.28l1.71-.78c-3.12-1.52-6.85-2.83-8.41-6.2l-1.72.78c2.58,1.86,5.31,3.5,6.87,6.35l1.24-1.06c-3.65-.27-8.53-2.61-9.08-6.61l-1.72.78c3.38,1.88,6.77,4.5,7.87,8.36l1.32-.91c-4.57-.37-7.84-3-10.25-6.77-.54.32-1.09.63-1.64.94a25.62,25.62,0,0,1,9.57,8.51l1-1.06c-3.2.16-11.53-1.88-11.53-6.45l-1.72.62a69,69,0,0,1,11.18,8.51l1.24-1.07a16.23,16.23,0,0,1-11.86-6.22l-1.46,1a21.35,21.35,0,0,1,9.93,5.19l1.45-1c-4.54-1-9-1.75-13.29-3.69l-1.32,1.13c4.41,1.64,8.8,3.23,12.75,5.85l1.32-1.14a98.65,98.65,0,0,1-12.94-4.31l-.91,1.26A24.15,24.15,0,0,1,330,120.76l1.32-1.13c-2.93-1.08-6-1.4-8.84-2.82-6-3.06,11.05-4.33,7.79-2.48a15.4,15.4,0,0,1-5.35,1.55c-1.28.19-9.57-.26-4.14-2.13,3.48-1.2,7.62-.47,11.24-.41l.45-1.3c-4.43.12-8.8.89-13.23.54.09.35.18.69.28,1a28.67,28.67,0,0,1,17.35-5.13l.45-1.3c-5.58.32-10.12,4-15.64,4.31.18.35.36.69.53,1a9.81,9.81,0,0,1,5-.82c-.1-.34-.19-.69-.28-1a56.06,56.06,0,0,1-6.65,3.48,22.3,22.3,0,0,1-5.47,1.6c.24-1.21,1-1.52,2.33-.92.82.06,4.31.33,3,1-1.85,1-4.19,1.21-6.24,1.39a25.16,25.16,0,0,1-6.76-.48c-1.52-.3-3.49-.52.08-1,3.09-.42,8.67.08,10.79,2.69l1-1.06c-5.77.08-11.91,1-17.14-2l-1.1,1.18c4.7.53,9.25,1.15,13.61,3.11l.86-1.18a31.14,31.14,0,0,1-16.25-1.58l-1.14,1.22a68,68,0,0,0,14.24,2.2c.41,0,2-.71,1.1-1.18-4.6-2.31-9.76-2.82-14.74-3.85l-.91,1.26a55.14,55.14,0,0,0,8.62.53c.39,0,2-.71,1.1-1.17-4.2-2.07-8.94-.69-13.13.75-4.51,1.55-9.59,3.09-12.26,7.24l1.83.16c1.59-2.5,3.08-4.55,6.26-5.41l-1-.84-2.85,1.88,1.21.76a15.31,15.31,0,0,1,7.12-4.74q4.41-1.23.8,1a17.86,17.86,0,0,1-4.6-.39c.1.35.19.7.28,1,4.21-3.4,10.93-.48,15.74-.28l.7-1.3c-4.14,0-8.3,0-12.18-1.57-.14.4-.27.81-.41,1.21,5.71-1.34,11.53.27,17.28.44a3.34,3.34,0,0,0,.7-1.45h-7.55c-.86,0-2,2-.7,2H312c.86,0,2-2,.7-2Z"/></svg>