<svg id="layer1" xmlns="http://www.w3.org/2000/svg" viewBox="0 0 314.18 310.35"><defs><style>.cls-1{fill:#bae5e1;}.cls-2{fill:#64758e;}.cls-3{fill:#492d0c;}</style></defs><path class="cls-1" d="M273.85,126.84c-4.51-16.28-11.56-31.7-15.78-48-3.55-13.75-6.63-28.56-14.93-40.39a3.25,3.25,0,0,0-3.59-1.57,3.14,3.14,0,0,0-3.75,3.34h0v0c0,.67-.12,1.34-.08,2a3,3,0,0,0-4-.36c-4.95-3-10.31-3.94-13.56-.42a6,6,0,0,0-6.36.3,14.31,14.31,0,0,0-7-4.93,3.46,3.46,0,0,0-3.95,1.61A23.94,23.94,0,0,0,199,50.79a3.77,3.77,0,0,0-.4.48c-.17.24-.33.49-.49.74-.71-2.5-4.84-3.33-6.52-.74-5.69,8.71-9.69,18.6-12.76,28.63.3-1.91.62-3.81,1-5.71,1-4.87,2.19-14.44,7.21-17,3.56-1.78,1.23-6.68-2.13-6.43.19-1.58.33-3.17.37-4.77.06-3.15-3.82-4.5-6-2.47a30.39,30.39,0,0,0-2.47,2.61,3.23,3.23,0,0,0-4.16-2.34c-8.55,3-11.27,13.63-10.7,22.72a55.77,55.77,0,0,0-2.28,11l-.51,1.28a48.13,48.13,0,0,0-9.23,17c-1.32,2.08-2.59,4.2-3.78,6.36a23,23,0,0,0-5.14,9.48,3.53,3.53,0,0,0,4.31,4.31,19.87,19.87,0,0,0,9.08-6.08,3.75,3.75,0,0,0,2.83,1.53,10.06,10.06,0,0,0,5.79-1.27,3.61,3.61,0,0,0,4.48,3.48,16.29,16.29,0,0,0,4.69-2.62,80.82,80.82,0,0,0,.35,20c.32,2.05,2.82,3,4.64,2.34a3.78,3.78,0,0,0,2.84-.25c5.11-2.55,8.16-7.27,10.18-12.53a3.47,3.47,0,0,0,3.37-.86,16.48,16.48,0,0,0,3.42-4.57c.18.14.33.3.52.44a2.49,2.49,0,0,0,1.33.52,24,24,0,0,0,2.08,4.07,3.84,3.84,0,0,0,2.15,1.55,25.41,25.41,0,0,0,4.24,6.16c1.68,1.79,4.2,1,5.49-.71a19.91,19.91,0,0,0,3.38-7.75,3.48,3.48,0,0,0,4.11-3.36l0-.7c.89,1.63,1.81,3.25,2.79,4.81,1.8,2.88,6.58,1.81,6.52-1.77,0-.7,0-1.4-.06-2.09.56.91,1.14,1.81,1.71,2.69a3.56,3.56,0,0,0,5.73.4c1.16,2.62,2.36,5.21,3.62,7.77,1.59,3.25,5.87,1.56,6.45-1.37a2.88,2.88,0,0,0,.68-.71c2,1.06,5.24-.59,5.23-3.17.86,1.78,1.78,3.54,2.82,5.25a3.31,3.31,0,0,0,5.58.38,3.63,3.63,0,0,0,4.42-2.64c.45,1.25.9,2.5,1.32,3.76C268.54,132.94,275.07,131.23,273.85,126.84ZM208,51.65a12.26,12.26,0,0,0-1.53.94,15.29,15.29,0,0,1-.57-7.14,27.46,27.46,0,0,1,3,4.43C208.59,50.45,208.29,51.05,208,51.65ZM164,99.43h0l-.06.08Zm44.42,17.44a35.64,35.64,0,0,0,1.2-3.93,29,29,0,0,1-.58,5.34C208.81,117.82,208.61,117.35,208.41,116.87Zm21.92-67.6q.51,2.68,1.13,5.34l0,.06a3.9,3.9,0,0,0-4.1.34Q226,51.8,224.81,48.6a3.91,3.91,0,0,0-1.47-1.9C224.81,45.62,227.65,47,230.33,49.27ZM225.5,90q2.1,6,4.35,12c0,.31.09.63.14.94-1.16-2.24-2.27-4.55-3.31-6.9C226.29,94,225.89,92,225.5,90Z"/><path class="cls-2" d="M305,200.75c-2-4-4.15-8.06-6.27-12.09-2.86-6.22-5.45-12.58-8.55-18.7-1.68-3.32-3.45-6.59-5.2-9.86-.16-.4-.32-.8-.47-1.2-1.2-3.71-2.4-7.4-3.68-11a3.49,3.49,0,0,0-3-2.4,76.29,76.29,0,0,1-2.86-8.11c-1.08-3.75-7-3.08-6.87.93a42.41,42.41,0,0,0,.39,4.67,4.48,4.48,0,0,0-.89.09c-.27-.73-.54-1.46-.8-2.18a3.73,3.73,0,0,0-6-1.49,3.74,3.74,0,0,0-4.28-2c-.48-1.56-.95-3.11-1.41-4.67-1.09-3.67-7.19-3.12-6.88.93a72.33,72.33,0,0,0,1.16,8.26A3.42,3.42,0,0,0,246,145.2c-2.23-6.1-4.56-12.17-7.07-18.16,0-.06-.05-.13-.08-.2h0c-.11-.28-.22-.56-.34-.83-1.55-3.64-7.86-1-6.4,2.69q1,2.53,2,5.1a2.78,2.78,0,0,0-.41.56c-.22-1-.43-1.9-.64-2.85-.55-2.48-3.22-2.91-5.07-1.88a3.46,3.46,0,0,0-6.35.71c-.28.91-.51,1.82-.73,2.73-2.09-1.19-5.27-.27-5.23,2.88v.24h0v.09c0,1.59.09,3.17.19,4.75a3.31,3.31,0,0,0-3.76.41,3.5,3.5,0,0,0-5.74-2.19,3.91,3.91,0,0,0-3.28-.8,3.41,3.41,0,0,0-5-.39,4,4,0,0,0-1.75-.89c1.29-3.62,2.53-7.26,4-10.8,1.58-3.8-4.38-5.92-6.4-2.7-1.14,1.83-2.32,3.7-3.51,5.59a3.46,3.46,0,0,0-5.28-.46,39.92,39.92,0,0,0-9.63,17.9,3.22,3.22,0,0,0-.88.79l-.54.71h0l0,.06c-1.41,1.85-2.78,3.78-4.1,5.77,1.78-3.9,3.59-7.79,5.5-11.64,1.83-3.66-2.93-6.9-5.4-4.38,0-.3,0-.59,0-.89a3.51,3.51,0,0,0-2.71-3.35c.19-3.94.35-7.88.38-11.83,0-3.29-3.72-4.3-6-2.47-.25.21-.53.39-.79.57a3.36,3.36,0,0,0-3.89.66c-.89-2.08-4.13-3.18-5.83-1.23l-.26.31a3.1,3.1,0,0,0-3.79,1.56,20,20,0,0,0-2.81,7.61,3.34,3.34,0,0,0,0,.63,13.52,13.52,0,0,1-1.3,1.57,3.24,3.24,0,0,0-.5,4.09c-.64.7-1.24,1.42-1.84,2.16a3.91,3.91,0,0,0-.62-2.26,35.8,35.8,0,0,0,1.8-6.43c.68-3.84-4.19-6.18-6.4-2.69-11.76,18.58-21.19,38.62-33.62,56.74A237.8,237.8,0,0,1,78.51,212c-3.26,3.43-17.19,13.36-8.33,18.11,3.34,1.79,6.35-2.18,4.89-4.76l.13-.2c.62-.6,1.24-1.2,1.88-1.78,1.73-1.61,3.36-3.33,5-5,4-4,7.49-8.4,11.17-12.68,1.54-1.79,3-3.62,4.49-5.47a3.94,3.94,0,0,0,.16,1,3,3,0,0,0-.06,2.61,182.22,182.22,0,0,0-12,13.83c-2.31,2.93.59,7.72,4.25,5.49a57.73,57.73,0,0,0,12.34-10.27c.79,2.23,4.07,3.78,5.88,1.55,5.74-7.05,10.39-14.77,14.91-22.63A2.85,2.85,0,0,0,127,191a55.38,55.38,0,0,0,7.3-12l.87-.87a3.27,3.27,0,0,0,1-2.31,3.82,3.82,0,0,0,.7-.74c4.15-6,7-12.67,9.77-19.38,5.18-6.35,9.13-13.51,13.61-20.39-.15,2.85-.3,5.7-.43,8.55-.21.49-.41,1-.61,1.48a3.6,3.6,0,0,0-2.15,1c-9,8.28-13.76,20.22-18.22,31.35-1.6,4-3.55,7.87-5.51,11.7-4.61,7.53-8.91,15.21-11,23.89a3.39,3.39,0,0,0,1.18,3.58c-.06.67-.11,1.34-.13,2a3.24,3.24,0,0,0,1.19,2.59c-.24.49-.47,1-.71,1.48-2,4,3.76,7.48,6,3.54q1.48-2.57,2.94-5.16c4.61-1.87,8.32-6,11.33-10.75a21.6,21.6,0,0,0,10.15-6.2,3.14,3.14,0,0,0,3.52,0,37.69,37.69,0,0,0,8.55-9.5c.06.6.12,1.2.2,1.8a4,4,0,0,0,3.29,3.54c-2.27,9.44-4.68,22.59,2.4,29.3a3.55,3.55,0,0,0,4.95,0c4-3.76,6.49-8.61,8.23-13.89,4-9.61,5.4-20.19,7.38-30.36.65-3.37,1.43-6.7,2.26-10l.11-.06a17.63,17.63,0,0,0,5.53-5.72,10.59,10.59,0,0,0,2.61,2.22,3.28,3.28,0,0,0,4-.46c1.22,3.84,2.53,7.59,3.64,11.21a3.45,3.45,0,0,0,4,2.42c6.23,18.71,16.8,35.57,21.78,54.81,1.16,4.48,7.39,2.47,6.75-1.87v0h0l0-.12c-2.2-14.76-8.75-28.39-13.86-42.28-.29-.78-.57-1.57-.85-2.35a3,3,0,0,0,3.18-2.78l.14.38c1.22,3.4,5.47,3.24,6.75,0a33.49,33.49,0,0,0,1.43-4.61c1.1,3.12,2.25,6.21,3.5,9.28,1.52,3.75,6.38,3.06,6.87-.93.14-1.11.24-2.22.31-3.33,4.14,10,8.58,19.83,13,29.62,1.88,4.13,7.82.54,6.05-3.53q-2.21-5.07-4.18-10.22a3.64,3.64,0,0,0,2.2-4.13c-.32-1.28-.66-2.56-1-3.83a3.29,3.29,0,0,0,3.47-3.41c-.11-1.63-.26-3.24-.44-4.85a3.26,3.26,0,0,0,2-1.12c1.53,3.76,3.09,7.51,4.71,11.23,1,2.4,4,2.11,5.56.52.49,1,1,2,1.45,3,1,2,3.11,2.13,4.68,1.18,1.54,2.58,5.44,1.78,6.39-.5a3.78,3.78,0,0,0,1.16-3.38c0-.08,0-.17,0-.25a3.8,3.8,0,0,0,1.75.84c.4.71.81,1.41,1.24,2.11C301.35,208.16,307.05,204.76,305,200.75Zm-129.8,20.1a18.21,18.21,0,0,1-.46-5.48c.27,1.57.61,3.11,1,4.64C175.59,220.29,175.43,220.58,175.23,220.85ZM150.78,197.7l.3,0-.65.75C150.55,198.21,150.66,198,150.78,197.7Zm31.42-10.38C185.94,179,187,169,189,159.68c.49-1.3,1-2.58,1.57-3.85-2,10.69-5.38,21.17-7.08,31.95-.85,5.39-1.37,11.89-2.59,18.12A101.3,101.3,0,0,1,182.2,187.32Zm-6-13.57c-1,3.58-1.9,7.22-2.7,10.86a59.14,59.14,0,0,1,1.08-6.59C175.1,176.6,175.64,175.18,176.16,173.75Zm54.88-6.2c0-4-.24-8.08-.52-12.12,1.9,7,3.7,14.13,3.72,21.22C233.13,173.65,232,170.61,231,167.55Z"/><path class="cls-3" d="M61.63,227c7.09-6.42,14.38-12.62,21-19.54,6.2-6.49,11.13-14.12,16-21.62,10.83-16.69,19.87-34.38,29.56-51.71,10.09-18,19.27-36.6,27.9-55.38,3.43-7.46,3.94-16.33,5.91-24.23,1.19-4.76,2.84-9.62,6.5-13,4.69-4.39,12.13-2.34,17.36-.34.61.24,2.36-.64,1.53-1-5.56-2.13-11.24-3.31-17-1.21-6.93,2.54-9.16,11-10.75,17.37-1.2,4.82-2,9.75-3.08,14.59-1.33,5.84-3.84,11.12-6.38,16.52q-7.42,15.81-15.53,31.28c-10.2,19.5-20.74,39-32.1,57.83-5.77,9.58-11.79,19.48-19.13,28-7,8.11-15.43,15-23.37,22.14-.84.76,1.07.8,1.56.36Z"/><path class="cls-3" d="M142.37,125.58c6.1-2.67,7.75-10.57,12-15.18l-1.79-.21c-.5,1.75-2.62,7.35.81,7.76,3.12.38,6.87-3.26,9.09-4.91l-1.62-.37c-1.22,7.74,7.82,4.36,11.54,2l-1.6-.18c1.31,4.08-2.34,24.06,4.77,24.44,3.36.18,5.76-3.32,7.53-5.69a88.28,88.28,0,0,0,7.79-13.11l-1.9,0a56.81,56.81,0,0,0-.83,11.58c0,.58.69.74,1.16.59,4.45-1.45,5.35-6.29,9.35-8.37l-1.4-.31c1.33,4.69,2.78,15.86,9.23,8.3.79-.93-1.05-1.23-1.62-.57-4.16,4.88-5-5.79-5.67-8.25-.16-.55-1-.52-1.4-.31-3.62,1.89-5,6.93-8.85,8.18l1.16.59A56.1,56.1,0,0,1,190.9,120c.21-1-1.6-.62-1.9,0-1.42,2.82-3,5.57-4.59,8.27-1.18,2-6.73,12-9.58,8.07-2.39-3.27-1.64-9.21-1.62-13,0-3,.42-6.39-.52-9.3-.22-.68-1.17-.45-1.61-.18-2.79,1.75-9.22,4.47-8.31-1.29.14-.85-1.23-.65-1.62-.37a55.84,55.84,0,0,1-5.35,3.69c-3.71,2.16-1.6-4.76-1.3-5.8s-1.46-.56-1.79-.21c-3.93,4.31-5.64,12.18-11.2,14.61-1.21.53-.14,1.57.86,1.14Z"/><path class="cls-3" d="M213.78,122c.09,4.64,1.56,11.85,7.68,9.74,4.89-1.69,4.94-10.36,6.66-14.27l-1.93.39c1.21,2.36,8.88,18.29,12.62,13,.5-.7-1.44-.51-1.79,0,0-.07-4.09-5.25-4.4-5.72a77.92,77.92,0,0,1-4.49-7.77c-.34-.65-1.7-.13-1.93.39-1.42,3.21-1.85,6.79-3.16,10.07-.63,1.57-2.18,4.48-4.79,2.56a6.32,6.32,0,0,1-1.76-3.16,18.43,18.43,0,0,1-.78-5.72c0-.58-1.94-.21-1.93.52Z"/><path class="cls-3" d="M195.92,37.69A37.4,37.4,0,0,0,213,33.19l-1.65.3c5.42,3.18,10.93,5.74,17.27,4.15,1.38-.35,5.78-3.9,6.72-3.47,3,1.39,5.17,4.39,6.9,7.07,3.69,5.67,5.86,12.34,8.1,18.67,2.89,8.14,6,16.19,8.93,24.33,14.58,41,28.08,83.56,53,119.63.33.47,2.08-.31,1.94-.52-21-30.38-33.67-65.45-46-100-5.37-15-10.93-30-16.27-45-3.08-8.69-6.78-22-16.5-25.51a2.11,2.11,0,0,0-1.67.44c-4.65,4.8-9.44,4.75-14.85,2.59-1.65-.66-4.29-3-6-3a2.72,2.72,0,0,0-1.18.27,36.16,36.16,0,0,1-14.54,3.87c-.39,0-2.19.8-1.25.77Z"/><path class="cls-3" d="M244.8,125.9v3.31c0,.51.87,1,1.31,1h.83a1.31,1.31,0,0,0,1-.76,66.49,66.49,0,0,1,2.49-6.7c-.56.15-1.12.26-1.67.41a45.53,45.53,0,0,1,5.65,5.63,1.15,1.15,0,0,0,1.86-.51c.74-2.73.92-5.55,1.66-8.28l-1.87.5c3.58,6.44,6.35,14.42,13.57,17.61.84.37,2.24-.84,1.11-1.34-6.84-3-9.53-11-12.91-17.14-.42-.76-1.69-.12-1.86.5-.74,2.73-.92,5.55-1.66,8.27l1.86-.49a47.46,47.46,0,0,0-5.93-5.93,1.22,1.22,0,0,0-1.67.44c-.46,1-2.19,6-2.48,6,.3.22.71.44.71.66v-3.31c0-1-2-.77-2,.13Z"/><path class="cls-3" d="M262.6,128.58c1.79,5.1,4.54,10.28,9.17,13.34.45.29,1.86.06,1.86-.62,0-4.19.06-8.5-1.65-12.41l-1.93.51c2.86,5.29,7.6,9.14,10.82,14.17.3.47,2.18-.13,1.8-.72-3.18-5-7.87-8.74-10.69-14-.3-.57-2.16,0-1.93.51,1.71,3.91,1.65,8.22,1.65,12.41l1.87-.61c-4.58-3-7.26-8.08-9-13.14-.21-.6-2.12,0-1.93.52Z"/><path class="cls-3" d="M142.78,131.34c-21.65,29-29.65,71.21-62.5,90.72l1.35.7c4-9,12.48-15,18.92-22.17,8.56-9.52,18.25-18.24,27.3-27.3.86-.86-1-1.2-1.62-.58L98.93,200c-6.78,6.79-15.2,13.57-19.15,22.52-.35.79.87,1,1.36.69,33.34-19.81,41.32-61.95,63.26-91.3.74-1-1.08-1.3-1.62-.58Z"/><path class="cls-3" d="M164.37,134.21a22.65,22.65,0,0,1,3.19-4.8c.84-.94-1-1.07-1.6-.53-14.05,13.41-24.39,30.59-32.39,48.16-.48,1.05,1.44.8,1.84.19,8.55-12.75,17.88-25.12,29.5-35.25,1-.87-.56-1.46-1.27-.84C151.79,151.48,142.29,164,133.57,177l1.84.19c8-17.46,18.19-34.48,32.15-47.82l-1.6-.53a23.22,23.22,0,0,0-3.43,5.13c-.49,1,1.47.93,1.84.2Z"/><path class="cls-3" d="M217.43,141.16c-4.17,2.57-2.4,8.53-1.29,12.32,2,6.86,5.17,13.44,7.53,20.2,6.83,19.54,13,39.66,27.42,55.16.56.6,2.39-.15,1.78-.82-13.14-14.16-19.52-32.3-25.68-50.25-2.14-6.22-4.39-12.33-6.83-18.43-1.54-3.84-6.57-14.38-1.67-17.39,1.11-.69-.52-1.24-1.26-.79Z"/><path class="cls-3" d="M239.43,146c1.31,9.62,7.27,18,11.59,26.48.39.77,2.29.18,1.93-.52-4.34-8.49-10.27-16.84-11.59-26.48-.11-.81-2-.34-1.93.52Z"/><path class="cls-3" d="M209.64,142.49c-.53,8.68,3.17,16.41,6.62,24.15.33.72,2.22.12,1.94-.52-3.41-7.62-7.14-15.28-6.62-23.85,0-.85-1.89-.48-1.94.22Z"/><path class="cls-3" d="M211.3,150.09c.19,11,3.17,23.73,9.1,33.1.25.38,1.79,0,1.92-.44,1.48-4.58,1.2-9.43,2.48-14.06l-1.92.43c0,9,.14,17.94,3.31,26.48.18.47,1.73-.14,1.92-.44a31.42,31.42,0,0,0,4.14-9.93l-1.86.5c1.31,1.31.78,4.21.81,5.93,0,2.42.18,4.83.4,7.24a32.18,32.18,0,0,0,3.7,13.24c.24.44,1.72-.07,1.91-.43,1.64-3.08,1.77-6.57,2.49-9.93l-1.92.44c5.26,9.41,3.68,23.11,13.29,29.85.44.31,2.08-.47,1.82-.65-9.53-6.69-8-20.37-13.18-29.72-.21-.39-1.83,0-1.92.43-.71,3.36-.85,6.85-2.48,9.93l1.92-.43c-2.58-4.52-3.38-9.61-3.83-14.73-.28-3.09,1-9.61-1.19-11.82-.28-.27-1.77.12-1.86.5a31.66,31.66,0,0,1-4.14,9.93l1.92-.43c-3.18-8.54-3.31-17.48-3.31-26.48,0-.33-1.81,0-1.92.43-1.28,4.63-1,9.51-2.48,14.07l1.91-.43c-5.93-9.37-8.91-22.09-9.1-33.1,0-.3-1.94,0-1.93.52Z"/><path class="cls-3" d="M247.71,165.81c1.59,5.53,3.36,11,5,16.55.17.58,2.1,0,1.93-.52-1.59-5.53-3.37-11-5-16.55-.17-.58-2.1,0-1.93.52Z"/><path class="cls-3" d="M256.81,178.22a234.81,234.81,0,0,0,13.24,37.23c.36.8,2.27.23,1.93-.51a235.27,235.27,0,0,1-13.24-37.24c-.22-.83-2.16-.31-1.93.52Z"/><path class="cls-3" d="M196.49,147.38c-4.78,4.71-4.3,13.3-4.19,19.47.12,6.53.63,13.08.92,19.61a203.49,203.49,0,0,1,.22,22.77c-.46,6.77-1.6,17.49-8.83,20.56l1.32,0c-7.43-21.91,1.62-46.53,9.92-66.91.24-.59-1.62-.07-1.84.18-4.38,4.84-6,11.4-9.93,16.55l1.84-.18c1.93-5.24,4.89-9.95,7.45-14.89.21-.42-1.64-.25-1.92.29-2.55,4.94-5.52,9.66-7.45,14.89-.21.59,1.62.13,1.85-.17,4-5.14,5.57-11.72,9.93-16.55l-1.85.18c-8.31,20.42-17.38,45.14-9.93,67.13.14.41,1.07.15,1.32,0,12.47-5.29,10.56-26.19,10.17-37-.24-6.61-.48-13.22-.91-19.82-.5-7.67-2.4-20.2,3.68-26.2.49-.49-1.4-.31-1.77.06Z"/></svg>