<svg id="layer1" xmlns="http://www.w3.org/2000/svg" viewBox="0 0 324.83 476.32"><defs><style>.cls-1{fill:#d83e2a;}.cls-2{fill:#824f2b;}.cls-3{fill:#ffbf31;}.cls-4{fill:#492d0c;}.cls-5{fill:#ed8324;}.cls-6{fill:#2530c1;}</style></defs><path class="cls-1" d="M174.29,272.28h0v-.06a246.47,246.47,0,0,0-2.24-35.3c0-1.49-.05-3-.1-4.5,0,0,0-.07,0-.1.14-1.8.19-3.59.17-5.38a3.11,3.11,0,0,0,.82-2.22c-.13-6.75-1.32-13.14-2.56-19.75-1.12-6-2.73-12.56-3.16-18.26,0-.59-.08-1.18-.1-1.76a3.39,3.39,0,0,0-2.82-3.3c-.17-.85-.33-1.71-.5-2.56-1.42-6.87-3-13.79-4.21-20.72-.16-2-.34-4-.52-6,0-.4,0-.8,0-1.2.22-3.83-.55-7.5-1.17-11.21-.54-6.2-1-12.41-1.15-18.66A35.3,35.3,0,0,0,143,94.55a2.72,2.72,0,0,0-2.1-.52,1.4,1.4,0,0,0-.7-1.33c-1.23-.8-2.48-1.53-3.74-2.24a43.22,43.22,0,0,0-9.25-5.83,1.54,1.54,0,0,0-1.62.15c-.32-.11-.65-.21-1-.3a1.55,1.55,0,0,0-.48,0l-.28-.31a14.77,14.77,0,0,0-5.15-5.33,1.51,1.51,0,0,0-2.1,2,1.46,1.46,0,0,0-.16,2.2c1.36,1.4,3.59,2.35,5.49,3.52l0,.06c.8,1.31,1.53,2.69,2.32,4a2.62,2.62,0,0,0-.42.64c0,.09-.06.18-.1.27-4.53,2.38-9.07,5-14,6.25-5.21,1.34-10.89,2.81-15.37,5.9-.38.27-.72.53-1,.8l-1.24.21a67.4,67.4,0,0,1-7.14.67,3.25,3.25,0,0,0-3.22,2.65l-.56.09c.89-2,1.67-4,2.46-5.92a2.71,2.71,0,0,0,.18-1.21,11.15,11.15,0,0,0,2.67-2.55,1.26,1.26,0,0,0,.17-.47,10,10,0,0,0,1.38-1c1.29-1.12-.39-3.28-1.82-2.35l-.41.28-2.27,1a8.37,8.37,0,0,0-1,.32,1.49,1.49,0,0,0-.78.68c-.19.07-.37.15-.56.21a1.58,1.58,0,0,0-.77.6,2.76,2.76,0,0,0-1.94.51,14.48,14.48,0,0,0-3,2.93,6,6,0,0,0-2.67,1.7c-.77.3-1.53.6-2.28.94-.49.23-2.12-1.69-3.3-3.11a3.48,3.48,0,0,0-3.65-4.31h-.83a4.85,4.85,0,0,0-4,4,8.59,8.59,0,0,0,.73,4.23c.07.41.15.81.25,1.2a6.21,6.21,0,0,1-.2,1.38l-.84.47c-2.66,1.44-2,4.55,0,5.86a10.07,10.07,0,0,0-2,2,5.27,5.27,0,0,0-.6,1,6.71,6.71,0,0,1-2.79.68c-1.37,0-2.2,2.18-.76,2.8A44,44,0,0,0,59,122.13c.26.14.53.26.8.38a3,3,0,0,0-1.47,1.12,18,18,0,0,0-2.59,1.49,3.38,3.38,0,0,0-1.11,4.8c-3,4.37-2.74,9.51-2.46,14.75.39,7.45-2.65,14.54-.73,21.93l0,.08a3.36,3.36,0,0,0,.32,2.53Q56,177,60.21,184.87c0,2.11.1,4.21.29,6.3a80.88,80.88,0,0,0,1.74,12c0,.13-.08.26-.06.39a26.55,26.55,0,0,1,.51,4.6h0v.08H63a3.73,3.73,0,0,0,.38,1.35c.41,2.49.77,5,1,7.49a4.18,4.18,0,0,0-.47.89c-3.3,9.25-11.43,17.44-11,27.68a17.8,17.8,0,0,0,2.35,8c1.84,4.19,5.29,8.12,7.86,11.16a3.21,3.21,0,0,0,.68.61,25.67,25.67,0,0,0-.23,4c-.9,6.85-1.63,13.73-3.86,20.32-1.34,4-3.5,8.55-3.87,13A8.75,8.75,0,0,0,55.2,305c-3.68,6.19,7.47,13.27,14,9.82a5.43,5.43,0,0,0,3.91,3,4.89,4.89,0,0,0,3.13,2.52,9.21,9.21,0,0,0,.12,2.09c.35,1.75,2,3,3.42,4a1.81,1.81,0,0,0-.13.47c-.57,3.22.32,6.06,2.71,7.64a3.8,3.8,0,0,0,3.28,1.6,3.25,3.25,0,0,0,1.23.32c2,1.27,5.45,0,5.47-2.89,0-4.6.34-9.18.64-13.76,2.53-10.21.72-22.21.37-32.24-.28-7.9,1-15.71.88-23.63,0-5.11.38-10.54-.09-15.75.63-9,1.15-18,1.29-27.25a27.3,27.3,0,0,0,0-3.73,3.55,3.55,0,0,0-.89-2.19c.15-1.49.29-3,.4-4.48a3.16,3.16,0,0,0,.94-2.29c0-8.08,0-16.5-2.78-24.16-.46-9.4-1-18.8-.81-28.22a3.3,3.3,0,0,0-1.66-2.93,3.56,3.56,0,0,0-.71-1.36c-1.44-1.72-2.88-2.43-4.57-2.33l-.35-.36c-1.72-1.77-4.17-1-5.5.71a43.06,43.06,0,0,0-3.31,5.2c-.3.47-.59.93-.86,1.4a3.87,3.87,0,0,0-.76,1c-.3.61-.58,1.22-.87,1.82s-.81.88-1.24,1.29a3.74,3.74,0,0,0-3.61.66,6.7,6.7,0,0,0-1.7,2.1,18.09,18.09,0,0,0-2.52,1.39,3.59,3.59,0,0,0-1.48,3.87l-1,1.14a4.32,4.32,0,0,0-2.19.29l-1.79-3.31a3.59,3.59,0,0,0,.08-.75c0-12.2.64-24.48,10.62-32.91a3,3,0,0,0,1.15-2.06c2.39-.88,4.28-2.61,6.72-3.31a3.22,3.22,0,0,0,2.32-2.25l.28-.15a29.43,29.43,0,0,0,7.9-.25,3.47,3.47,0,0,0,3.34,4.1h.07l.41,0,.68,0c4.57.49,8.66,4.2,11.76,7,1.71,1.54,3.59,3.11,5.27,4.83a2.89,2.89,0,0,0-1,3.45c.43,1.1,2.55,5.13,3.8,8.25a3.19,3.19,0,0,0-2.1,1.61,8.47,8.47,0,0,1-3.75,3.56,11,11,0,0,0-4,1.25,3,3,0,0,0-1.69,2.19,3.26,3.26,0,0,0-1.39,2.8c-.12,18.72,1.57,37.32,1.51,56s-1,37.31-1.06,56v.42h0v.44a3.17,3.17,0,0,0,1.17,2.6c-.36,4.35-.68,8.7-.72,13.08,0,2.76-.33,5.47-.52,8.2a4.33,4.33,0,0,0-.7,1.17c-1.5,3.7-2.4,11,.1,14.93.1,2.65.36,5.28.63,7.92.08,1.28.18,2.57.25,3.87.27,5.16-.78,10.27-.92,15.41-.06,1.94,2.95,1.93,3,0,.1-3.38.47-6.75.74-10.12a1.42,1.42,0,0,0,.43-1.08v-.42h.18c0-1-.09-2-.18-3V320a4.57,4.57,0,0,0,2.54-.87c1.8,1.23,4.53.05,5.34-2.07a29.59,29.59,0,0,0,1-3,22.3,22.3,0,0,0,6.57-.27,6.85,6.85,0,0,0,1.91-.29,22.89,22.89,0,0,1,7.16-.25,10.38,10.38,0,0,0,.58,2.42,38.35,38.35,0,0,0,.33,4.28,3.49,3.49,0,0,0,2.39,6,11.67,11.67,0,0,0,4.93-1,7.18,7.18,0,0,0,2.84,2.58,9.42,9.42,0,0,0,4.86,1c3.9,1.19,7.33-.7,10-3.56a11.62,11.62,0,0,0,3.71-1.81,34.67,34.67,0,0,0,3.47,1.05,34.66,34.66,0,0,1,2.48,3.51,1.62,1.62,0,0,0,1.8.62c1.16,1.75,2.36,3.47,3.57,5.2a1.5,1.5,0,0,0,2.59-1.51,31.59,31.59,0,0,0-3.68-5.38q-.94-1.44-1.83-2.91a1.37,1.37,0,0,0-.76-2.26l-.31-.06a17.76,17.76,0,0,0-.88-1.81c.78,1.15,2.92.93,2.74-.71a3.5,3.5,0,0,0-.07-.45,1.38,1.38,0,0,0,.93-1.65l.27-.07a25.16,25.16,0,0,0,1.45,2.48,1.59,1.59,0,0,0,.74.59c.3,1,.61,2,.9,3.08.55,1.91,3.17,1.07,2.89-.8-1-6.7-2.45-13.51-5.82-19.45a14.28,14.28,0,0,1-.39-2.85c.29-1.55.55-3.11.84-4.67a1.47,1.47,0,0,0-1.31-1.83l.05-.17s0-.1.05-.15a3.3,3.3,0,0,0,.2-.71c.37-1.26.75-2.52,1.15-3.77a3,3,0,0,0-.83-3.37,21.2,21.2,0,0,0,0-2.76,3.42,3.42,0,0,0,4.5-3h0a.81.81,0,0,1,0-.16s0,0,0-.05c0-.23,0-.46,0-.69a3.16,3.16,0,0,0,1.78-3,2.26,2.26,0,0,1,0-.26,3.33,3.33,0,0,0,.9-2.39ZM124.84,105a2.26,2.26,0,0,0-.26.16,4.11,4.11,0,0,0-.15-.46l.4.25Zm-2.07,4.55a2.9,2.9,0,0,0-.66-.38l.76-.55C122.84,108.93,122.8,109.24,122.77,109.55Zm-21.7,1.15-.23.06-.41.12-.36-.18,1-.1Zm-9,1.35a9.51,9.51,0,0,0,.73,1l-.26.07c-1.79.21-3.58.45-5.39.64a1.62,1.62,0,0,1-.22,0l-.19-.33C88.49,113,90.26,112.49,92,112.05Zm71.12,197.7c.05.34.11.68.17,1a1.34,1.34,0,0,0-.31.89c0,.29.06.57.09.86a1.51,1.51,0,0,0-.53.32C162.79,311.8,163,310.78,163.16,309.75ZM65.56,231a3.41,3.41,0,0,0,.48.18v0a3.35,3.35,0,0,0-.63,0Zm96.23,86.21a1.77,1.77,0,0,0-.63-.55.29.29,0,0,1,0-.09,1.39,1.39,0,0,0,.76-.89c.1-.39.18-.79.27-1.18.23,1.47.65,2.88.81,4.36a1.54,1.54,0,0,0,.15.5A24.48,24.48,0,0,0,161.79,317.17Z"/><path class="cls-2" d="M86,63.37c.42,1.56.89,3.06,1.32,4.41a20.32,20.32,0,0,0,3,8.21,16.29,16.29,0,0,0,1.78,2.94A14.57,14.57,0,0,0,93.27,81a1.51,1.51,0,0,0,1.19.7l.16.21a48.5,48.5,0,0,1-6.68,6.76,1.51,1.51,0,0,0,0,2.12c2.72,3.34,3.33,11.61,8.91,11.57A1.3,1.3,0,0,0,98.21,101c4.47-.23,8.67-1.9,12.79-3.61l1.13-.48c2.65.44,5.07-1,6.7-3.21a1.47,1.47,0,0,0,1.86-1.46h0c.64-1,1-1.2,1-1.86V89.28a1.74,1.74,0,0,0-.08-.53c0-.21,0-.42,0-.62a1.49,1.49,0,0,0-2.09-1.35,10.44,10.44,0,0,0-3.23-2.24,1.55,1.55,0,0,0-1.36,0,1.26,1.26,0,0,0-.41-.19l-.22-.2a1.7,1.7,0,0,0-.34-.23l-.21-.41a1.52,1.52,0,0,0-2-1.65l1.83-5.16a1.56,1.56,0,0,0,.41-.58,106.74,106.74,0,0,0,4-12.4,1.48,1.48,0,0,0,.94-1.24,36.05,36.05,0,0,0,0-3.75,24.5,24.5,0,0,0,0-10.94,1.66,1.66,0,0,0,0-.22,14.37,14.37,0,0,0-4.16-8.92,16.1,16.1,0,0,0-2.8-2.85,1.19,1.19,0,0,0-.88-.25,32.23,32.23,0,0,0-6-3.18,1.19,1.19,0,0,0-1.39.3q-.3-.07-.6-.12A13,13,0,0,0,96.41,32a2.62,2.62,0,0,0-2.28-1.22c-2.51-.16-4.34,2.46-5.61,5.72a15.16,15.16,0,0,0-3.37,11.28C83.19,52.92,84.32,58.27,86,63.37Zm17.85,33.71.16,0-.15,0A.19.19,0,0,0,103.89,97.08Zm5.34-2,.22-.07a1.45,1.45,0,0,0,0,.36l-.74.3A1.54,1.54,0,0,0,109.23,95.06Z"/><path class="cls-2" d="M86,103.46a1.5,1.5,0,0,0,1.37.9c1.13,0,2.15-.61,3.27-.66h0a1.27,1.27,0,0,0,.28,0l.9.32c1.84.63,2.62-2.27.8-2.9a10.81,10.81,0,0,0-3-.71,1.26,1.26,0,0,0-.62.15l0-.39c.39-.74.87-1.94.13-2.28-.07-1.61-2.55-2-2.94-.43,0,.13-.06.27-.09.4a1.55,1.55,0,0,0-.47,1.11v1.58c-.09.71-.15,1.35-.16,1.77h.16v.25A1.44,1.44,0,0,0,86,103.46Z"/><path class="cls-2" d="M68.57,102.27a1.5,1.5,0,0,0,2.94-.4c0-.18,0-.36,0-.54a11,11,0,0,0,3.19-1.18c3.55-.55,7.77-2,9.37-4.7a4.81,4.81,0,0,0,2,.4,1.5,1.5,0,0,0,0-3l-.73-.9c-.16-2.13-2.65-3-4.83-3A1.53,1.53,0,0,0,79,90.64a10,10,0,0,0-9.21,3.89,5,5,0,0,0-1.61,1.93C66.87,98.06,67.87,100.41,68.57,102.27Z"/><path class="cls-2" d="M107.83,147.61A1.43,1.43,0,0,0,108,146c-.28-.5-.58-1-.89-1.48.3.06.6.1.9.14,1.42.17,1.83-1.7,1.06-2.56a30.58,30.58,0,0,0-7.8-6.24c-.23-.2-.49-.38-.73-.57-3.06-3.84-7.3-6.74-12.49-5.92a37.06,37.06,0,0,0-5.65,1.32c-.41-.07-.82-.12-1.23-.16a1.35,1.35,0,0,0-1.44,1.21,13.76,13.76,0,0,0-5,3.81c-3,1.35-5.79,3.08-8.67,4.68a1.49,1.49,0,0,0,.14,2.64c-2.42.82-3.8,3.89-4.49,7.44-1.43,4.68-2.09,10.39-.11,14.58a1.51,1.51,0,0,0,2.59,0,23.89,23.89,0,0,0,2.34-4.89,12.9,12.9,0,0,0,1.63-1.27c2.44-.34,4.61-2.73,6.22-4.65a13.8,13.8,0,0,0,4-4.23,55.89,55.89,0,0,0,4.32-6.91A45,45,0,0,0,87.28,147a1.53,1.53,0,0,0,.31,2.33c1.44.9,2.91,1.75,4.37,2.59a21.86,21.86,0,0,0,6.79,4c.85.65,1.71,1.31,2.58,1.93,1.37,1,2.58-.84,2.06-2.05a19.74,19.74,0,0,0-2.68-4.33,1.58,1.58,0,0,0,.22-.23q1.68,1.56,3.37,3.11a1.46,1.46,0,0,0,2.23-.2,1.57,1.57,0,0,0,1.55-2.07,1.41,1.41,0,0,0,1.2-2.17C108.84,149.1,108.34,148.35,107.83,147.61Z"/><path class="cls-2" d="M75.66,382.65a24.48,24.48,0,0,0-4.89-3.85,53.77,53.77,0,0,0-4.61-3.67,1.56,1.56,0,0,0-.91-.37l-.32-.17a5.33,5.33,0,0,0-1.72-1.16l-.16,0a1.52,1.52,0,0,0-2.52.08c-1.51,2.5-.2,6,.71,8.48a29.5,29.5,0,0,0,4.44,8.39c.85,1.05,2.57.15,2.56-1.06v-.37a1.13,1.13,0,0,0,.12-.18,7.24,7.24,0,0,0,.45-1.17l.12.07a1.51,1.51,0,0,0,2.2-.9,10.16,10.16,0,0,0,.15-1.22,1.47,1.47,0,0,0,1.45-1c.37.3.73.59,1.11.87,1,.74,2-.12,2.14-1.12A1.41,1.41,0,0,0,75.66,382.65Z"/><path class="cls-2" d="M88.78,366a10.59,10.59,0,0,0-1.84-3.58c-.79-2.32-2-4.73-4.09-5.05a1.52,1.52,0,0,0-1.69.69,8.67,8.67,0,0,1-1,1.58,1.74,1.74,0,0,0-1.06,1c-.37.24-.72.49-1.08.75a1.77,1.77,0,0,0-.73.53c-.37.28-.75.56-1.14.83-.58.41-1.19.78-1.82,1.14a1.64,1.64,0,0,0-1.31.73c-1.73.91-3.54,1.72-5.3,2.55a1.35,1.35,0,0,0-1.53.65,21.39,21.39,0,0,1-2.38.29h-.1a1.5,1.5,0,0,0,0,3h.1c2.26.05,4.5.21,6.74.44a2,2,0,0,0,.36.34,9.6,9.6,0,0,1,.92.74,80.35,80.35,0,0,0,7.29,9.17,1.51,1.51,0,0,0,2.5-1.46c-.1-.36-.22-.72-.36-1.09A1.49,1.49,0,0,0,82,379a1.24,1.24,0,0,0,1.19-.47l.18-.22a1.46,1.46,0,0,0,.48-.59,48,48,0,0,0,2.81-4c1.12-1.73,2.09-4.1,3.73-5.38C91.74,367.35,90.2,365.58,88.78,366Z"/><path class="cls-2" d="M92.46,343.19v-.06a1.43,1.43,0,0,0-1.63-1.45c0-.07,0-.13,0-.19v-.21h0a1.5,1.5,0,0,0-2.26-1c-.15-.16-.28-.31-.45-.46a1.53,1.53,0,0,0-1.81-.23,2.72,2.72,0,0,0-1.4,2.6,1.35,1.35,0,0,0,.92,1.36,8.57,8.57,0,0,0,.77,3.3,1.7,1.7,0,0,0,2.06,1,1.41,1.41,0,0,0,.45.28l0,.18a1.51,1.51,0,0,0-1.17,1,8.89,8.89,0,0,0-.36,1.67,3.42,3.42,0,0,0,0,4.2.31.31,0,0,1,0,.1,1.42,1.42,0,0,0,.34.92,4.64,4.64,0,0,0,.52,1.14,1.19,1.19,0,0,0,.59.5,11.61,11.61,0,0,0,.24,1.26,1.51,1.51,0,0,0,2.89.09c.08-.27.15-.54.21-.82a1.44,1.44,0,0,0,.4-1.05v-1.72c.1-1.29.1-2.59.1-3.9a1,1,0,0,0-.06-.36c0-.34,0-.67.06-1h-.1V350a1.44,1.44,0,0,0-.35-1c.26-.26.45-.37.45-.76a12.12,12.12,0,0,1,.27-3h0c0-1,0-.49.07-.62A1.62,1.62,0,0,0,92.46,343.19Z"/><path class="cls-2" d="M112.35,330.61c0,.13,0,.26,0,.39.07,4.08-.26,8.17-.31,12.25v0h0v.17a1.42,1.42,0,0,0,2.27,1.19.9.9,0,0,0,.14.2c1.5,1.35,3,1.73,4.91,2.35s2.54-2,1.06-2.78l0-.14a.79.79,0,0,0,0-.09l.09-.42.16,0V343c.59-2.64,1.21-5.27,1.83-7.89.16-.32.31-.66.46-1l0-.06c2.17-4.1,2.49-8.66,2.51-13.22.28-1.7.54-3.41.74-5.13.09-.82-.86-1.43-1.6-1.43h-.33a1.92,1.92,0,0,0-.76.18h-.22c-1.86.24-3.71.41-5.57.65h-.11v0a1.57,1.57,0,0,0-.76.35,9.27,9.27,0,0,0-5.16,1c-.8.33-1.34,1.15-1.37,2.8-.06,3.13,1.73,6.47,1.9,9.73C112.33,329.55,112.34,330.08,112.35,330.61Z"/><path class="cls-2" d="M118.67,361.57a1.2,1.2,0,0,0,.52-.36l.2-.28a1.56,1.56,0,0,0,1.67-.68c.08-.12.16-.25.23-.38a1.67,1.67,0,0,0,.9-1c0-.07,0-.14.07-.21a1.56,1.56,0,0,0,1.62-1.5,8,8,0,0,0-.07-1,1.39,1.39,0,0,0-.31-1.28,6.68,6.68,0,0,0-.47-1.08,1.46,1.46,0,0,0-.61-.62,6.4,6.4,0,0,0-.23-.66,1.67,1.67,0,0,0-1.4-1,4.61,4.61,0,0,0-.62-.63,1.64,1.64,0,0,0-1.08-.39l-.2-.17a1.27,1.27,0,0,0-1.48,0,3.25,3.25,0,0,0-2.23-1.19,1,1,0,0,0-.24,0,2.73,2.73,0,0,0-1-.78,1.52,1.52,0,0,0-2.21.89c0,.16-.06.31-.1.46a1.82,1.82,0,0,0-.13.6v.15a15.42,15.42,0,0,0-.14,2.15c-.07.75-.18,1.5-.32,2.25a6.23,6.23,0,0,0-.5,2.09c0,.06,0,.11,0,.16a1.32,1.32,0,0,0,0,.88c.11,2.06,1,4.18,2.55,5.07a1.52,1.52,0,0,0,2.2-.89c.07.11.13.24.2.35a1.53,1.53,0,0,0,2.6,0A6.33,6.33,0,0,0,118.67,361.57Z"/><path class="cls-2" d="M149,367.81a1.5,1.5,0,0,0-.8-2.89,10.56,10.56,0,0,0-1.55.58c0-.12.09-.24.12-.37a1.53,1.53,0,0,0-1-1.85c-3.17-1.17-5.88-3-9.16-3.52a18.88,18.88,0,0,0-4.26-1.71,1.51,1.51,0,0,0-.59,0,1.62,1.62,0,0,0-2.51-.56,18.27,18.27,0,0,0-3.49,4.19,34.39,34.39,0,0,1-7,5.4,1.51,1.51,0,0,0,1.16,2.74,9.24,9.24,0,0,1,5.41.18l1.68.72a31.64,31.64,0,0,0,7.85,4.34c.59.23,1.17.46,1.74.7a5.38,5.38,0,0,1,2.25,2.53,1.31,1.31,0,0,0,2.17.35,1.53,1.53,0,0,0,1.88-1.83,8.19,8.19,0,0,1-.37-3.09C144.18,371.17,145.86,368.7,149,367.81Z"/><path class="cls-2" d="M159.07,370.47c-.57-2.57-2.08-4.24-5.18-2.87a2.29,2.29,0,0,0-1.36,1.76,7.53,7.53,0,0,0-3.28,3.67c-2.93,1.5-3.34,4.91-3.76,8-.16,1.15.94,2.46,2.15,1.71a9.55,9.55,0,0,0,3.05,2c1.81,1.63,4.44,2.81,6.09,1.07a4,4,0,0,0,1-4.08c0-.09.09-.18.13-.28a1.36,1.36,0,0,0,1-1.36c0-.42,0-.83,0-1.25C159.75,376,160.12,372.47,159.07,370.47Zm-7.41,5.17c-.16.38-.34.75-.53,1.11,0-.13.05-.25.08-.38S151.5,375.88,151.66,375.64Z"/><path class="cls-3" d="M99.21,242.8c.18-6.52.21-13,0-19.56a127.12,127.12,0,0,0-.09-32.84c-.13-.94-.21-1.9-.28-2.87a1.35,1.35,0,0,0,.25-.81c0-8.24-.49-16.58-.52-24.82a1.63,1.63,0,0,0-1.5-1.62H97c0-1,0-2,0-3,0-1.95-3.14-2-3.31-.15a1.44,1.44,0,0,0-.21.7,96,96,0,0,0,.19,11.63v3.82h.16c0,.1,0,.21,0,.31a1.41,1.41,0,0,0,.65,1.23c.17,2.19.4,4.38.7,6.55.17,1.58.34,3.16.48,4.76v41a1.4,1.4,0,0,0,.44,1q0,7.4.12,14.79c-.67,26.8-3.66,53.25-4.15,80-.25,13.45.05,26.9-.65,40.33-.24,4.66-1.69,15.18,2.09,19.73v0c.09.28.08.5.27.67,0,.17-.13.33-.13.5v.06H94a1.49,1.49,0,0,0,3,0h0v0A1.41,1.41,0,0,0,97,382c0-13.06-.24-26.11,0-39.16.27-14,1.52-27.86,1.57-41.85,0-13,1.85-26,1.2-38.93C99.46,255.69,99.3,249.23,99.21,242.8Z"/><path class="cls-4" d="M91.74,31.64c-5.9,2.65-7.81,9.17-8.74,15.09A44,44,0,0,0,86.85,72.4c4.42,9.43,15,20.95,24.51,10.71,7.81-8.35,10.51-23.56,9.69-34.56-1-13.43-16-24.92-28.47-17.19-1.1.69-.09,1.79.87,1.2,12.9-8,25.4,6,25.76,18.49a54.86,54.86,0,0,1-6.78,27.7c-2.11,3.73-5.57,7.72-10.28,7-6.68-1-11.55-10-14.05-15.36a41.66,41.66,0,0,1-3.5-20.37c.35-6.12,1.78-14.44,8-17.23,1.21-.54.14-1.65-.87-1.2Z"/><path class="cls-4" d="M121.41,50c-1.25.92-1.29-.23-1,.82a7.63,7.63,0,0,1,.14,1.17c.07.92.06,1.85,0,2.78,0,2.73.18,5-1.42,7.39-.19.28,1.58.18,1.91-.31,1.93-2.88,1.5-6.15,1.43-9.46,0-1.74-.35-4.14-2.57-2.52-.82.6,1.12.4,1.49.13Z"/><path class="cls-4" d="M84.8,51.55c-2.7-2-3.38,2.59-3.51,4.21-.23,3.18-.4,8.28,3,9.83.59.28,2.36-.57,1.54-1-2.47-1.14-2.42-4.13-2.51-6.48a29.52,29.52,0,0,1,0-3.12c0-.51.12-1,.2-1.54.16-1,.38-.57-.45-1.19.56.42,2.34-.36,1.79-.76Z"/><path class="cls-4" d="M92.46,81.94C91.82,86.71,85,88.23,81.18,89c-3,.63-6.5,1.31-8.41,3.91-.73,1,1.08,1.39,1.64.63C77,90,83,90.81,86.73,89.11c3.2-1.46,7.18-3.44,7.69-7.29.14-1-1.84-.81-2,.12Z"/><path class="cls-4" d="M80.88,132.72c1.55-.51,3-1.1,4.52-1.74,5.2-2.23,9.21-.53,12.74,3.27,3.14,3.37,4.86,7.77,8.44,10.76.57.47,2.38-.29,1.78-.79-4.66-3.9-6.76-9.92-11.65-13.71-5.15-4-10.91-.6-16.12,1.11-1.14.38-.87,1.48.29,1.1Z"/><path class="cls-4" d="M80.13,145c3.82.21,5.31,3.54,7.8,5.77a39.3,39.3,0,0,0,6.18,4.54c3.51,2.1,7.93,3.94,11.93,2.25.36-.15.72-.57.46-1-2.14-3.25-6.64-3.37-8.39-7.25l-1.06.94c4.61,0,7.21,5.53,11.44,6.83.5.16,1.49-.06,1.54-.71.54-6-8.12-5.81-9.27-11-.27.3-.53.6-.8.89,3.69-1,6.17,5.56,9.33,6.88a1.22,1.22,0,0,0,1.54-.71c.76-3-3-6.14-4.86-8-.59-.6-2.42.18-1.77.83,1.65,1.66,5.33,4.74,4.67,7.34l1.54-.71c-4.28-1.8-5.21-8.44-10.79-6.89-.38.11-.9.43-.79.9,1.1,5,9.71,5.44,9.25,10.67l1.54-.71c-4.77-1.47-7-6.94-12.38-6.93-.36,0-1.29.43-1.06.94,1.21,2.7,3.28,3.83,5.78,5.31,3.07,1.82.22,1.73-1.91,1.1a24.89,24.89,0,0,1-5.53-2.71c-4.68-2.8-8-9.61-13.71-9.93-.91,0-2,1.28-.68,1.36Z"/><path class="cls-4" d="M93.87,130.72c2.51,2.33,5.71,3.64,8.33,5.81.62.52,5.78,5.41,5.66,5.48-1.16.64-.1,1.47.81,1,4.28-2.37-11.93-12-13-13.06-.57-.53-2.39.23-1.78.8Z"/><path class="cls-4" d="M92.7,154c-3.06,10.17-.57,21.46.87,31.7,1.93,13.66,1.11,27.64,1.11,41.41,0,21.39.27,42.79-.36,64.18-.51,17.69-1.17,35.36-1.68,53.05-.4,13.74-1.2,27.64-.44,41.38,0,.18.25.32.4.35,1.76.44,4,2.69,5.92,1.35,1.54-1.08.92-3.88.84-5.53-.22-5-.22-10.05-.24-15.07-.1-16.9,0-33.79.24-50.69.42-38,2.15-75.91,2.2-113.9,0-15.22-1.84-30.26-2-45.44,0-1-2-.61-2,.18.13,15.18,2,30.22,2,45.44,0,16.47-.13,32.94-.62,49.4-.39,12.83-1,25.64-1.21,38.49-.55,30.51-1.61,61.26-.37,91.77,0,.59.06,1.17.1,1.75.18,2.72-.28,2.39-2.13,1.59-2.19-.95-1.4-5-1.41-7.11-.06-7.9.14-15.81.34-23.72.46-19.16,1.18-38.32,1.78-57.48.65-20.76.54-41.5.54-62.27,0-14.54,1-29.51-.41-44-1.21-12.06-5.17-25.06-1.57-37,.25-.84-1.72-.59-2,.18Z"/><path class="cls-4" d="M71.31,107.89c-.42-8.1,11.07-9,16.55-11.62l-1.21-.77c-1.92,2.11-2.65,4.49-3.21,7.24-1.14,5.59-4.92,7.81-10.56,7.83-1.07,0-1.52,1.33-.2,1.32,4.09,0,8.24-1,10.86-4.35S85.2,99.35,88.25,96c.72-.8-.69-1-1.22-.77-5.88,2.78-18.13,4-17.67,12.83,0,1,2,.62,2-.17Z"/><path class="cls-4" d="M69.69,107.86v-1.63c0-.33-.31-1-.62-1h-.81c-.35,0-1.34.42-1.34.93,0,2.05-.1,4.21,1.83,5.38.56.34,2.34-.36,1.53-.9l-2.44-1.6-1.53,1c3.17,1.94,5.68.14,6.62-3.18.09-.33-.37-.61-.6-.61h-.81c.13,1,.27.65.41.91a49,49,0,0,1,7.16-5.5c-.5-.12-1-.19-1.51-.31-1.84,3.48-4.68,6.32-6.52,9.8-.21.39.17.62.53.62a4.46,4.46,0,0,0,3.6-1.21c.82-.8-1.08-.82-1.56-.35a1.1,1.1,0,0,1-1.3.42l.54.61c1.84-3.48,4.67-6.3,6.52-9.78.44-.84-1.18-.57-1.51-.35a49.76,49.76,0,0,0-7.51,5.61c-.4.39-.07.53.41.53h.81a1,1,0,0,1-.59-.23c-.53,1.84-1.22,3.14-3.16,2-.56-.34-2.34.48-1.53,1s1.63,1.11,2.44,1.66l1.53-1c-1.59-1-1.42-2.7-1.42-4.34-.45.23-.9-.12-1.34.88h.82c-.2-1-.65-.67-.65-.82v1.63c0,.84,2,.44,2-.23Z"/><path class="cls-4" d="M67.84,110c-7.46-4.1-10.6,5.74-15.39,9.28a.35.35,0,0,0,0,.62c4.18,2.45,8.46,4.38,13.15,2.25s5.49-7.07,8.08-10.85c.5-.73-1.45-.55-1.8,0a59.35,59.35,0,0,0-3.42,6.39,7.63,7.63,0,0,1-8.13,4.21A18.1,18.1,0,0,1,55,119.53c-.64-.36,2.55-3.66,3.07-4.34,2-2.61,4.19-6.51,8.21-4.31.55.3,2.33-.49,1.54-.93Z"/><path class="cls-4" d="M67.23,112.42a2.4,2.4,0,0,0-1.82,1.19l1.79-.38a3.47,3.47,0,0,0,0-.63c0-.59-1.66.11-1.85.29A17.47,17.47,0,0,0,62,117.08c-.29.57,1.54.06,1.71,0,2.47-1.69,4.86-3.89,5.91-6.76l-1.91.3c-.1.65-.72,1-.82,1.62s1.84.26,1.92-.29.71-1,.81-1.63-1.74-.19-1.91.3c-1,2.68-3.2,4.7-5.51,6.28l1.72-.06a16.39,16.39,0,0,1,3.18-4l-1.85.29c0,.16-.09.69.1.81a1.66,1.66,0,0,0,1.79-.38c.31-.48.46-.38-.27-.25.34-.06,1-.2,1.12-.58s-.64-.33-.8-.3Z"/><path class="cls-4" d="M87.3,87c-8.78,2-26.45,6.9-25.27,18.75.08.74,2,.3,1.93-.52C62.88,94.41,79.54,90,87.6,88.16c1.19-.28.88-1.39-.3-1.12Z"/><path class="cls-4" d="M70.1,103.34c-4.22-1-6.83-7.16-2.42-9.71,1.15-.67-.56-1-1.22-.65-5.35,2.89-9.93,9.15-6.87,15.25.35.71,2.24.1,1.93-.52-2.84-5.65,1.13-11.37,6.16-14.08L66.46,93c-5.21,3-2.91,10.24,2.48,11.47.66.16,2.28-.85,1.16-1.11Z"/><path class="cls-4" d="M85.74,105.46c14.83-2,33.8-6.66,44.09-18.37.81-.92-1-1.31-1.63-.62C118.39,97.63,100,102.09,85.89,104c-1.09.15-1.46,1.66-.15,1.49Z"/><path class="cls-4" d="M111.83,81.5c3.9,4.54,9.7,5.9,15.47,6,1.11,0,1.47-1.4.17-1.42-5.17-.08-10.39-1.37-13.87-5.42-.58-.67-2.41.11-1.77.85Z"/><path class="cls-4" d="M120.88,84.71a26.29,26.29,0,0,1,4.65,1.22c1.81.81,2.47,2.49,2.52,4.37,0,.33,1.94,0,1.93-.52-.12-4.53-3.92-5-7.51-5.81-.45-.11-2.13.61-1.59.74Z"/><path class="cls-4" d="M129.74,87.94c7.49,4.72,15.26,9.79,21.14,16.48,7,8,5.83,21.54,6.77,31.39,1.39,14.42,4.44,29.08,7.07,43.33a367.12,367.12,0,0,0,9.78,41.56c.17.53,2.09,0,1.93-.52a352.17,352.17,0,0,1-9.78-41.56c-2.56-14.32-5.47-28.87-7.07-43.32-1-9.4.26-21.89-5.64-30-5.59-7.65-14.48-13.11-22.39-18.09-.51-.32-2.18.46-1.81.69Z"/><path class="cls-4" d="M172.87,219.73c-.06,10.12-1.19,20.3-.79,30.41.21,5.33.88,10.59,1.52,15.88q.42,3.42.7,6.84c.29,3.42-.72,4.86-3,6.89-4.77,4.26-4.5,11.58-4.79,17.39-.38,7.77-7.13,14.33-4.25,22.17l1.72-.76c-1.07-.8-1-1.86-1.42-3-.26-.76-2.18-.21-1.93.51.56,1.64.46,2.47,1.83,3.5.4.31,2-.08,1.73-.75-2.75-7.49,3.78-14.33,4.26-21.87a81.5,81.5,0,0,1,.84-9.76,15.41,15.41,0,0,1,2.12-5.27c1.19-1.94,3.91-2.64,4.95-4.36,1.23-2-.4-8.07-.65-10.3-.51-4.71-1.16-9.39-1.54-14.11-.89-11.13.56-22.46.62-33.61,0-.88-1.94-.5-1.94.21Z"/><path class="cls-4" d="M70.51,132c-12.43,8.2-18.85,30.3-10.84,43.25.46.75,2.3,0,1.77-.86-7.62-12.32-1.46-33.7,10.35-41.5,1.09-.72-.49-1.42-1.28-.89Z"/><path class="cls-4" d="M57.2,107.93a9.21,9.21,0,0,0-.87,4.23c0,.85,1.93.45,1.93-.23A8.53,8.53,0,0,1,59,108c.42-.87-1.51-.68-1.81-.08Z"/><path class="cls-4" d="M53.88,129.28c-3.19,9.82-1,20.22-.81,30.3,0,.63,1.94.24,1.93-.52-.13-10-2.35-20.28.82-30,.22-.7-1.72-.43-1.94.23Z"/><path class="cls-4" d="M57.16,128.67c-4.24,1.32-5.2,6.24-5.86,10.1-1.07,6.23-.9,12.7-.75,19a38.63,38.63,0,0,0,1,9.4c1.27,4.72,4.1,9,6,13.48,3.42,8.3-.39,17.89,5.4,25.49.4.53,2.27-.13,1.79-.76-5.13-6.74-2.54-14.86-4.34-22.49-1.88-8-7.76-14.09-7.82-22.62,0-4.81-.22-9.61,0-14.42.16-3.8.12-14.72,4.9-16.21,1.13-.35.89-1.34-.27-1Z"/><path class="cls-4" d="M59.58,143.91c-1.83,8.8-3.32,21.34.9,29.69.39.75,2.23.05,1.77-.85-4.08-8.07-2.5-20.44-.72-29,.2-.95-1.78-.71-2,.15Z"/><path class="cls-4" d="M64.43,166.18a100.78,100.78,0,0,0,9.95-9.1c.83-.83-1.06-.93-1.57-.42a97.81,97.81,0,0,1-9.61,8.83c-1,.8.57,1.2,1.23.69Z"/><path class="cls-4" d="M65.86,163.93c6.57-3.52,9.87-10.41,15.7-14.79,1-.79-.53-1.39-1.27-.83-5.66,4.25-8.93,11.14-15.27,14.54-1.16.62-.11,1.59.84,1.08Z"/><path class="cls-4" d="M65.59,143.7c2.09-4.59,8-7.46,12.45-9.28,1.27-.52.1-1.06-.75-.74-2.8,1.06-4.82,3-6.91,5.12-.79.79,1.11.71,1.54.28,1.85-1.84,3.63-3.71,6.12-4.66l-.75-.74c-4.92,2-11.31,5.18-13.62,10.28-.26.55,1.65.35,1.92-.26Z"/><path class="cls-4" d="M66.34,143c2.72-5,8.06-8.38,13.34-10.23,1.28-.44.1-1.06-.76-.76-5.62,2-11.48,5.6-14.37,11-.43.79,1.5.56,1.79,0Z"/><path class="cls-4" d="M58.76,191.18c-2.23,8.35,2.18,15.67,3.53,23.75s-5.8,13.65-8.78,20.38c-2.79,6.28-4.75,13.46-1.78,20s11.09,9.56,10.63,17.85C62,279,45.63,314.31,57.21,314.06c1.1,0,1.48-1.45.17-1.42-6.1.14,1.09-20.66,1.89-23.16,2.22-6.92,7-15.52,3.89-22.61-2.55-5.78-8.5-8.7-10.61-14.9-2.61-7.71,3-18.32,7.45-24.24,2.61-3.47,4.79-7.36,4.36-11.86-.8-8.52-6-16.1-3.64-24.84.24-.93-1.73-.7-2,.15Z"/><path class="cls-4" d="M65.35,316.55a2.44,2.44,0,0,0-.1.24c-.06.15-.12.33,0,.46,1.25,1.18,4,1,5.52,1,.24-.41.48-1,.72-1H65.8a3.34,3.34,0,0,0-.21.94,77.25,77.25,0,0,0,12.48-3.47c.31-.11.76-.57.49-.93-3.3-4.26-5.46-8.95-5.63-14.4,0-.9-2-.53-1.94.19a25.18,25.18,0,0,0,5.79,15c.16-.29.32-.58.49-.87a75.33,75.33,0,0,1-12,3.29c-.68.14-1.25,1.29-.2,1.29h5.7c.81,0,2-1.35.72-1.35-.49,0-4.28-.35-4.34-.2.39-1-1.55-.85-1.82-.18Z"/><path class="cls-4" d="M74.13,319.51c-.64,1.81-.06,3.31,1,4.85s4.1,2.09,3.18,3.94c-2,4.05-.23,8,3.48,10.15.64.37,2.39-.52,1.51-1C79,335,78.54,330.86,81,326.89c.19-.32-.07-.54-.34-.66-2.72-1.1-5.68-3.68-4.54-6.91.27-.78-1.69-.54-2,.19Z"/><path class="cls-4" d="M85.23,339c-1.49,4.58.08,9.71.46,14.38.15,1.85-4.85,4.4-6,5.33a64.45,64.45,0,0,1-8.4,5.91c-3.31,1.91-6.86,3.25-9.75,5.81-2.71,2.4-3.46,7.87-2.14,11,.88,2.09,2,4,2.71,6.16.41,1.22.52,2.76,1.87,3.29,3.09,1.21,5.67.53,8.52-.92a42.7,42.7,0,0,0,10.21-8c4.54-4.53,6.21-11.11,10.55-15.84.46-.5-1.42-.28-1.76.09-4.88,5.32-6.9,12.42-12.21,17.43-3,2.8-8.25,7.72-12.7,6.83C64,390,62.88,384.1,61.91,382a15.15,15.15,0,0,1-.58-8.55c.8-3.58,5.11-5.4,8-6.88C75.89,363.25,81,358,87.27,354.51c.16-.1.4-.22.39-.44-.16-5-2.1-10.51-.52-15.38.15-.48-1.74-.23-1.91.31Z"/><path class="cls-4" d="M100.87,321.13c.4,8.49-1.66,16.81-1.82,25.28,0,.92,1.93.57,1.94-.19.17-8.59,2.22-17,1.81-25.61,0-.75-2-.33-1.93.52Z"/><path class="cls-4" d="M109.36,315.07c1.37,13.12,1.85,26.88-.23,39.94-.91,5.74-.48,11.13,5.5,13.37,7.6,2.83,15,4.48,21.58,9.61,5.32,4.16,10,7.11,16.68,8.23,2.29.38,5.09.2,6.84-1.47,1-1,0-2.62.83-3.75,1-1.37,1-3.72,1-5.29a17.23,17.23,0,0,0-1.07-6.44c-.27-.73-1.34-1.3-1.34-2a.16.16,0,0,0-.16-.1c-7-1.35-13.62-5-20.37-7.3-5.71-1.92-13-3.88-15.61-9.94-2.23-5.28.76-12.06,2-17.25a143.26,143.26,0,0,0,2.66-17.52c0-.21-1.88,0-1.93.51a141.36,141.36,0,0,1-3.2,19.68c-1.43,5.62-3.56,11.83-.36,17.23,3,5,11.06,6.73,16.1,8.43,3.29,1.1,6.51,2.38,9.73,3.68.89.36,9.23,3,9.23,3.7a.19.19,0,0,0,.17.1c3.62.95,2.62,11.93.53,13.66a.2.2,0,0,0-.09.17c2,6.41-11.6.76-13.12-.12-4-2.3-7.34-5.57-11.3-7.94a48.49,48.49,0,0,0-11.57-4.88c-4.31-1.24-8.94-2.05-10.71-6.69-1.27-3.33-.17-7.61.39-11a74.34,74.34,0,0,0,.71-10.44,207.38,207.38,0,0,0-.94-26.73c0-.32-2,0-1.93.52Z"/><path class="cls-4" d="M101.45,320.15a9,9,0,0,0,5.74-1.5c1.61-1.1,3.4-2.88,5.39-3,1.57-.1,3.29.49,4.86.25,3-.47,7.89-2.72,10.54-.59,2.86,2.31-1.37,6.84-.13,9.66.66,1.51,3,2.3,4.54,1.86,5-1.45,4,3.34,7.3,4.36a5.78,5.78,0,0,0,5.12-.5c4-2.28,8-4.48,12.15-6.55,1.15-.58-.6-.75-1.17-.46-2.82,1.41-6.06,2.59-8.67,4.36-2.21,1.49-4.56,2.85-6.93.78-1.19-1-2.12-2.93-3.64-3.53-2.54-1-5.48,2.11-7.13-1.66-.46-1.05.82-3.3,1.13-4.32a6.58,6.58,0,0,0-.28-4c-1.27-3.39-7.73-1.32-10-.81-2.74.61-5.66-.4-8.32.32-3.45.92-5.91,4.53-9.72,4.37-.66,0-2.08.94-.78,1Z"/><path class="cls-4" d="M162.68,317.49c-.16,2.82,1.79,5.43,3.22,7.7,1.94,3.09,4.1,6.2,4.65,9.87l1.87-.6c-4.66-4.74-10.64-12.83-18.22-9.64-1.26.53-.08.91.71.58,5.93-2.5,12.21,6.21,15.7,9.75.33.34,2,0,1.87-.6-.5-3.36-2.35-6.24-4.13-9.07-1.57-2.48-3.92-5.4-3.74-8.51,0-.4-1.9-.12-1.93.52Z"/><path class="cls-4" d="M167,292.28c-2.57,6-.45,11.59,1.91,17.28a55.3,55.3,0,0,1,3.21,9.36,10.46,10.46,0,0,0,.74,3.06,26.71,26.71,0,0,0-.92-2.74,54.23,54.23,0,0,1-1.84-6.51c-.2-.89-2.13-.38-1.93.52a67.78,67.78,0,0,0,3,9.64c.14.38.51.39.88.39h1.21c.38,0,1.06-.27,1.06-.72.13-10.25-9.88-19.92-5.5-30.09.43-1-1.51-1-1.85-.19Z"/><path class="cls-4" d="M82.06,337.72a11.73,11.73,0,0,1,4.57.44c1.24.54,2.08,2,2.8,3.06.31.47,2.19-.14,1.8-.72A8.18,8.18,0,0,0,88,337.2c-1.53-.65-3.5-.46-5.12-.46-.64,0-2.08,1-.78,1Z"/><path class="cls-4" d="M90.08,327.88c0-9.74.61-19.46.61-29.2,0-4.25.54-18-5.4-18.86-6.39-1,.45-15.78,1.52-18.95,2.52-7.49.28-15.27-2.4-22.35-5.15-13.63-7.69-28.06-8.9-42.57q-.7-8.52-1.08-17.08c-.06-1.35-.62-11.49-.13-11.67,1.29-.49.07-.74-.67-.46-1.79.67-1.28,4-1.29,5.48-.07,5.86.35,11.74.74,17.58C74,204,75.74,218.41,80,232.07c2.45,7.94,6.27,15,5.93,23.54-.29,7.36-5.07,13.71-5,21.14,0,4,4,3.59,5.64,6.67,2,3.84,2.11,8.72,2.25,12.94.35,10.67-.53,21.37-.57,32,0,.33,1.93.05,1.93-.52Z"/><path class="cls-4" d="M143.85,381.05c-1.46-3.58.8-8.21,2.6-11.28,1.33-2.26,2.83-2.65,5.33-3.18a2.44,2.44,0,0,0,1.94-1.13c.23-.46-1.64-.28-1.92.28-.12.25-3.92.63-4.56,1-1.31.72-2.22,2.49-2.94,3.71-1.77,3-3.81,7.62-2.38,11.13.24.59,2.14,0,1.93-.52Z"/><path class="cls-4" d="M153.68,366.12c-1.67,2-14.11,14.6-8.9,16.47.44.15,2.17-.55,1.59-.76-4.31-1.54,7.54-14,9.06-15.85.4-.49-1.46-.22-1.75.14Z"/><path class="cls-4" d="M110.56,347.13c1.27,1.83,4,2.55,6,3.07,1.49.39,3.94,1,5.33,0,1.06-.77-.58-1.07-1.21-.61s-3.39-.57-4.21-.82c-1.46-.44-3.27-1.1-4.17-2.4-.39-.56-2.26.09-1.79.77Z"/><path class="cls-4" d="M110.1,345.72a32.2,32.2,0,0,0,9.25,1.84c.37,0,2.21-.69,1.27-.74-2.53-.11-4.61-1.67-7-2.25-.48.24-.95.71-1.43.71h4c.38,0,2.19-1,1.27-1h-4c-.27,0-2,.73-1.44.88,2.56.61,4.67,2.2,7.35,2.33.43-.25.85-.46,1.27-.71a30.47,30.47,0,0,1-8.7-1.72,2.9,2.9,0,0,0-1.82.66Z"/><path class="cls-4" d="M111.27,343.28h3.59a3.16,3.16,0,0,0,1.37-.5c.31-.18.26-.5-.1-.5h-3.59a3.08,3.08,0,0,0-1.36.5c-.32.18-.27.5.09.5Z"/><path class="cls-4" d="M107.85,361c3.4,3.12,6.09,6.52,10,9a121.48,121.48,0,0,0,12.91,6.59c8.27,3.93,15.92,9.64,25.38,10,.4,0,2.21-.74,1.26-.78-9.63-.39-17.77-6.55-26.2-10.56-3.89-1.85-7.8-3.77-11.53-5.93-4-2.34-6.66-5.94-10-9-.37-.34-2.1.4-1.82.66Z"/><path class="cls-4" d="M112.45,364.89c3.89.25,7.07-1.52,9.87-4.09,1.55-1.42,3.73-3.78,4.36-5.84.06-.19-.1-.33-.22-.43l0,0c-.36-.3-1.05-.07-1.38.14a4.51,4.51,0,0,0-.47.4c-.86.8,1,1,1.59.47l.13-.11-1.38.15c-.48-.41-.69.45-1,.95-.46.69-.93,1.37-1.45,2-2.26,2.83-5.5,5.34-9.29,5.1-.86-.05-2,1.2-.7,1.28Z"/><path class="cls-4" d="M125.32,356.8c-2.49,4.56-7.53,6.87-10.32,11.22-.12.18.24.19.31.19,6,.22,8.8-5.56,14-7.36,1.31-.45.06-.63-.65-.38a15.38,15.38,0,0,0-4.3,2.43c-.89.67-1.72,1.41-2.59,2.11-.34.28-.69.56-1,.82.09-.07-4.1,2.29-3.41,1.21,2.66-4.14,7.53-6.21,9.92-10.6.12-.21-1.64-.11-1.9.36Z"/><path class="cls-4" d="M62,372.14c.56,2,4.19,2.85,5.79,3.75,3.44,1.94,6.11,5.5,8.63,8.45l1.82-.67A104.36,104.36,0,0,1,65.68,371.1l-1.33.74c7.88-.52,11.48,8.57,14.72,14.22.28.5,2.1-.21,1.93-.52-3.59-6.25-7.24-15.09-15.82-14.51-.2,0-1.69.33-1.32.74a105.84,105.84,0,0,0,12.57,12.57c.37.29,2.16-.27,1.82-.67a51.88,51.88,0,0,0-8.08-8.08c-1.58-1.18-5.64-1.91-6.23-4-.14-.48-2.07.06-1.93.51Z"/><path class="cls-4" d="M82.73,357.91c2.27,2.86,5,7.58,9.06,7.82.34,0,1.34-.19,1.33-.69a4.13,4.13,0,0,0-.52-2.52c-.4-.58-2.27.08-1.79.77a3.27,3.27,0,0,1,.37,2l1.34-.69c-1.93-.11-3.51-2-4.71-3.3s-2.2-2.76-3.29-4.14c-.44-.56-2.3.13-1.79.78Z"/><path class="cls-4" d="M89,358c-.42-.35-.93-.55-1.35-.9l-1.79.75c2,1.54,3.36,3.67,5.51,5,.52.32,2.31-.44,1.54-.92-2-1.29-3.36-3.38-5.26-4.86-.51-.4-2.32.32-1.79.75s.92.55,1.34.9,2.31-.33,1.8-.75Z"/><path class="cls-4" d="M86.24,349.28h4c.43,0,1.49-.65,1-1.18a4.47,4.47,0,0,0-3.5-1.48c0,.5-.1.66-.15,1.66h2.69c1.13,0,1.46-2,.15-2H87.74c-1.14,0-1.45,1.54-.15,1.57.83,0,1.32.77,1.89,1.33.31-.4.63-.9,1-.9h-4c-1.13,0-1.46,1-.15,1Z"/><path class="cls-4" d="M70.9,391.21c4.09-.62,7.67-3.9,10.48-6.68,3.69-3.66,8.75-8.69,9.49-14.13.1-.72-1.63-.21-1.85.15-3.54,5.54-7.12,10.53-12.84,14-3.28,2-7.07,3.19-9.16,6.62-.35.58.72.5,1,.41,8.19-2.68,14.55-8.37,20.08-14.8.51-.59-1.41-.4-1.78,0-5.08,5.9-11,11.46-18.52,13.93l1,.41c2.43-4,8.07-5.75,11.85-8.33,4.39-3,7.34-7.92,10.15-12.33l-1.85.16c-.52,3.8-3.38,7.16-5.75,10-2.75,3.31-7.43,8.88-12,9.57-.87.13-1.64,1.15-.3.94Z"/><path class="cls-4" d="M82,86.13C88.71,89.34,89,99.45,95.4,103.61c3.84,2.48,9.11,2.8,13.45,1.64,11.06-3,18-13.16,13.53-24.37-.2-.52-1.7.15-1.92.43a10.6,10.6,0,0,0-2.34,5.91c0,.25,1.86.07,1.93-.51A9.66,9.66,0,0,1,122.37,81l-1.92.43A17,17,0,0,1,108,104.81a15.48,15.48,0,0,1-14.06-4.51c-4.17-4.1-4.4-12.1-10.07-14.83-.51-.24-2,.56-1.82.66Z"/><path class="cls-4" d="M83.14,86.06c2.92,14,18.83,30.05,31.13,15.16a11.45,11.45,0,0,1-1.58-.18v1.17c0,.37.08.55.43.59,6.87.78,10.26-5,10.54-11.25,0-1-2-.67-2,.16a16.92,16.92,0,0,1-.93,5c-.47,1.4-6.49,8-6.49,4.17,0-.89-1.39-.65-1.78-.18C101,114.53,87.54,97.39,85.07,85.54c-.17-.86-2.11-.36-1.93.52Z"/><path class="cls-4" d="M87.8,102.22A6.12,6.12,0,0,0,91.58,108c2.64,1,4.63-1.25,5.16-3.59.06-.26-.19-.43-.4-.5-1.12-.35-2.34-.63-3.3.23-.72.65.17,1.79-.4,2.47-.77.92,1.09,1,1.59.46a2.11,2.11,0,0,0,.53-1.56c0-.24,0-.48-.06-.73a1.41,1.41,0,0,1,0-.29c-.1.13-.2.26-.31.38.27.07.53.14.79.23l-.4-.5c-.36,1.62-1.06,2.89-2.73,1.87A5.43,5.43,0,0,1,89.74,102c0-.93-2-.56-1.94.19Z"/><path class="cls-4" d="M95.69,108v4.66c0,.51.73.59,1.16.59h3.49c.39,0,1.06-.3,1.07-.76,0-1.68,1.12-2.94,1.16-4.63,0-.51-.47-.61-.89-.61h-3.5c-.38,0-1.06.31-1.06.77,0,1.8-.07,3.62,1.26,5,.61.64,2.44-.16,1.77-.86-1.15-1.21-1.07-2.94-1.07-4.51-.36.26-.71.59-1.07.59h3.5a1.68,1.68,0,0,1-.89-.45c0,1.68-1.13,3.26-1.17,5a2,2,0,0,1,1.06-.5H97c.3,0,.68,0,.68.27v-4.67c0-1-2-.73-2,.15Z"/><path class="cls-4" d="M106.52,108.3c.9.91,1.72,2.33,3.17,2.09,1.87-.3,2.6-2.3,3.35-3.8.15-.27-.43-.31-.54-.31h-5.83c-.4,0-1.18.22-1.37.63-1.12,2.4.29,3.79,2.39,4.87a1.65,1.65,0,0,0,1.25-.07c.07,0,.91-.43.56-.6-2-1-3.35-2.17-2.29-4.45-.45.2-.9.62-1.36.62h5.83c-.18,0-.36-.21-.55-.3-.33.66-.67,1.29-1,1.93-.14.23-.29.44-.45.66-.5.63.77,0,.6,0a10.16,10.16,0,0,1-1.91-1.91c-.38-.38-2.17.32-1.81.69Z"/><path class="cls-4" d="M113.52,104.82c.51.53.88,1.19,1.41,1.7a3.52,3.52,0,0,0,2.51.77c.42,0,1.25-.21,1.25-.76V103c0-.22-.26.25-.38.25h-3.5c-.47,0-1.13-.07-1.35.39a1.65,1.65,0,0,0,.26,2.22c.64.57,1.51.73,2.13,1.33.46.43,2.27-.32,1.8-.76a13.16,13.16,0,0,0-1.94-1.26c-.79-.53-.7-1-.33-1.79-.45.21-.9-.13-1.35.87h3.5c-.19-1-.84-.65-.84-.73v3.5a3.59,3.59,0,0,0,1.49-.77,2.12,2.12,0,0,1-1.7-.68c-.45-.47-.74-1-1.19-1.51s-2.23.26-1.77.73Z"/><path class="cls-4" d="M121.82,99.09a11.78,11.78,0,0,0,3-1.71,4.8,4.8,0,0,0,1.06-3.52c0-.34-.29-.51-.62-.51-.94,0-2.14-.15-2.86.62a3.64,3.64,0,0,0-.8,2.43c0,.89,1.94.52,1.94-.21a6.32,6.32,0,0,1,.22-1.56c.13-.44.37-.35-.35-.35h1.14c-.21,0-.41-.19-.62-.36a4.45,4.45,0,0,1-.69,3A8,8,0,0,1,121,98.12c-1.2.59-.11,1.42.8,1Z"/><path class="cls-4" d="M90.13,110.55c1,2.08,1.6,3.79,3.72,4.94.47.26,1.71.11,1.72-.62a13.3,13.3,0,0,0,.14-3c-.21-1-2-1.72-2.69-2.17a1.23,1.23,0,0,0-1.73.62c-1.12,4.83.47,8.62,4.89,10.95.71.38,2.43-.59,1.5-1.08-4.13-2.18-5.48-5.55-4.44-10l-1.72.62c.56.37,2,1,2.26,1.61s-.15,2-.16,2.59l1.73-.62c-1.89-1-2.4-2.54-3.28-4.38-.39-.81-2.3-.24-1.94.52Z"/><path class="cls-4" d="M99.46,116.38a4.38,4.38,0,0,0,.56,2.78c.67.89,2.32.87,3.29.89.42,0,1.55-.11,1.58-.69.13-2,1.1-3.84,1.17-5.87,0-.19-.47-.21-.56-.21h-4.67c-.39,0-1.18.21-1.36.63-1.23,2.78.48,5.24,2.38,7.2.39.39,2.19-.3,1.82-.68-1.82-1.87-3.46-4.13-2.29-6.77-.45.19-.9.62-1.36.62h4.67c-.19,0-.38-.15-.56-.21-.07,2-1,3.83-1.17,5.82l1.58-.7c-1,0-2.3,0-2.86-1a5.17,5.17,0,0,1-.29-2.38c0-.4-1.93-.1-1.93.52Z"/><path class="cls-4" d="M107.63,113.91c-1,2.11-.21,4.62,2.37,4.82,3,.24,4.88-2.34,5.39-5,.06-.32-.35-.4-.59-.4h-3.5c-.47,0-1.61.17-1.61.76v2.34c0,.23.71-.1.86-.1h4.66c.72,0,2.06-1,.75-1H111.3c.19,0,.39.48.39.58v-2.33c0,.26-.7.75-1.14.75H114c-.19,0-.39-.26-.58-.4-.25,1.3-1.11,4.35-3,3.65-1.65-.61-1.5-2.58-.89-3.87.27-.58-1.64-.37-1.93.25Z"/><path class="cls-4" d="M117,108.08c0,.65-.29,1.25.07,1.85a1.92,1.92,0,0,0,1.17.64,11.6,11.6,0,0,0,3,.25c.46,0,1.5-.21,1.5-.79v-3.5c0-.23-.75-.25-.89-.25h-3.5c-.46,0-1.61.18-1.61.77v3.5c0,.22.58.28.72.27a5.57,5.57,0,0,0,3.55-1.55c.28-.28.27-.58-.15-.66a1.65,1.65,0,0,0-1.35.36,2.61,2.61,0,0,1-1.27.78c.2.1.5.19.5.28v-3.5c0,.27-.7.75-1.15.75H121c-.2,0-.35-.14-.35-.23v3.5c0-.27.78-.53,1.23-.8-.78,0-2.49.19-3-.57-.21-.28,0-1,0-1.35,0-.78-1.94-.37-2,.25Z"/><path class="cls-4" d="M124.5,99.26l-2.34,1.17c-.32.16-.9.78-.33,1.07a9.51,9.51,0,0,0,3.73,1.3c.41,0,1.13-.19,1.13-.76v-3.5c0-.49-.29-.59-.7-.59a5.73,5.73,0,0,0-3.73,1,8.6,8.6,0,0,0-1.81,3c-.47,1,1.51.91,1.86.19a14,14,0,0,1,1.16-2.24c.57-.75,1.47-.67,2.3-.68-.29-.2-.08-.39-1.08-.59v3.5a3.78,3.78,0,0,0,1.53-.75,7.74,7.74,0,0,1-3-1c-.11.36-.17.72-.28,1.07l2.36-1.16c1.18-.6.14-1.55-.81-1.07Z"/><path class="cls-4" d="M92.67,118.93c4.33,3.12,7.64,7.47,11.66,10.93,1.48,1.27,3.11.8,4.57-.33,7.19-5.56,10.93-15.25,15.75-22.7.51-.79-1.44-.64-1.81-.08-3.93,6.08-7.22,12.52-11.6,18.32a25.11,25.11,0,0,1-3.37,3.69c-1.72,1.52-4-1.78-5-2.78-2.78-2.75-5.45-5.72-8.63-8-.55-.39-2.32.4-1.53,1Z"/><path class="cls-4" d="M103,119.87c.14,1.68.93,3,1.17,4.67.11.8,1.78.21,1.93-.36.24-.92.93-1.41,1.17-2.33l-1.08.71c6-.41,10.29-6.16,14.72-9.59,1-.8-.57-1.22-1.24-.7-3.88,3-8.06,8.72-13.26,9.07a1.19,1.19,0,0,0-1.08.71c-.24.91-.93,1.4-1.17,2.33l1.94-.36c-.24-1.62-1-3-1.17-4.66-.06-.75-2-.31-1.93.51Z"/><path class="cls-4" d="M123.55,106.69c.22-8.31,7.45-27.1-6.44-28.5-.82-.08-2,1.09-.72,1.22,12.44,1.26,5.42,20.09,5.22,27.48,0,.9,1.92.53,1.94-.2Z"/><path class="cls-4" d="M89.61,82.1c-4.53,1.78-5.11,6.68-4.14,11,.09.39,2-.09,1.93-.52-.72-3.19-.9-8.56,2.86-10,1.29-.5.06-.68-.65-.4Z"/><path class="cls-4" d="M107.32,53.71c2-1.34,3.74-1.05,6-.8.79.09,2-1,.73-1.17-3-.33-5.36-.42-8,1.32-1.08.73.57,1.09,1.22.65Z"/><path class="cls-4" d="M105.91,53.26c-.33.91,6.58.64,7.44.46s1.72-.95.36-.67c-.43.09-6,.07-5.89-.14s-1.73-.13-1.91.35Z"/><path class="cls-4" d="M105.84,54.28a9.46,9.46,0,0,0,3.59.23c1.36-.26,2.61-.85,3.95-1.16s.87-1.41-.31-1.14c-.93.21-1.81.56-2.72.85a6.22,6.22,0,0,1-3.37,0,1.51,1.51,0,0,0-1.36.37.45.45,0,0,0,.22.81Z"/><path class="cls-4" d="M97.47,53.35a33.5,33.5,0,0,0-3.28-1c-1.5-.2-3,.15-4.51.06-.68,0-2.07.95-.77,1s2.49-.09,3.74-.1,2.38.7,3.62,1c.56.14,2.27-.73,1.2-1Z"/><path class="cls-4" d="M95.94,53.75c-1.75,1.2-4.68.53-6.5-.29-.7-.32-2.42.65-1.5,1.06,2.82,1.28,6.57,1.87,9.25,0,1.08-.75-.52-1.3-1.25-.79Z"/><path class="cls-4" d="M89.6,52.52a3,3,0,0,0-1.67,1.14,3.2,3.2,0,0,1,1.27-.38h-.15c-.46,0-1-.05-1.27.38s.19.57.55.58c1.61,0,3.13.39,4.7-.19l-1.37-.23a1.13,1.13,0,0,0,.23.43c.39.63,2.26,0,1.78-.8l-.08-.17c-.11-.55-1-.33-1.36-.22-.92.34-2.23-.12-3.18-.14l-.72,1.23a2.17,2.17,0,0,0,.91-.14,1.14,1.14,0,0,0,.51-.41l-.25.16a3,3,0,0,0,.4-.12c.32-.09.93-.37.81-.82s-.79-.4-1.11-.3Z"/><path class="cls-4" d="M94.82,55.28h.46a1.32,1.32,0,0,0,1-1.06,1,1,0,0,0-.9-.94H95a1.33,1.33,0,0,0-1,1.06,1,1,0,0,0,.9.94Z"/><path class="cls-4" d="M106.86,53.71c2.38,1.06,5.12.39,7.37-.68,1.15-.55-.67-.39-1.1-.19a5.06,5.06,0,0,1-4.44.23,1.9,1.9,0,0,0-1.24.13s-.88.37-.59.51Z"/><path class="cls-4" d="M90.05,36.31c2.38-1.2,4.71-2.43,7.42-2.51,1.12,0,1.48-1.5.17-1.45-3.08.09-5.75,1.42-8.46,2.78-1.17.59-.12,1.67.87,1.18Z"/><path class="cls-4" d="M91.13,36.35a14.17,14.17,0,0,1,7.43-2.88c1.09,0,1.51-1.19.19-1.19h-.66c-1.08,0-1.5,1-.19,1h.66a7.86,7.86,0,0,0,.19-1.34c-3.28.11-6.24,1.75-8.88,3.58-1.09.74.51,1.35,1.26.83Z"/><path class="cls-4" d="M96.15,32.28H94.83c-.8,0-2,1.07-.72,1.09,2.66.05,5.3.05,8-.07.53,0,1.72-1,.69-1.21a26.11,26.11,0,0,0-5.29-.72c-.15.41-.31.81-.47,1.21a38.22,38.22,0,0,0,6-1.6c.39-.13,1.39-1,.43-1.13a11.51,11.51,0,0,1-3.57-1l-1.12,1.11a40,40,0,0,1,6,.85l.93-1.18-2-.19c-.67-.13-2.32.87-1.16,1.15,3,.7,6,2,7.84,4.45l1.47-1a5.94,5.94,0,0,1-3.65-2.91l-1.65.9a6.22,6.22,0,0,0,1.94.73c.5.13,2.21-.5,1.34-1.08-6.38-4.23-11.51-4.55-18.13-.72-.62.35-.32.87.25,1a11.26,11.26,0,0,0,2.65.22l.72-1.22a12.56,12.56,0,0,0-10,4.81c-.21.26-.26.49,0,.71l.88.66.36-1a15.81,15.81,0,0,0-2.86,1.33c-1,.51-.4,1.31.54,1,6-1.85,10.55-8.31,17.58-5.94L103,31.39l-2.2-.66-.94,1.19c3.37,0,10.56,2.42,12.48,5.74l1.65-.9a3.81,3.81,0,0,1-2.07-2.1l-1.47,1c2.44.93,4,3.32,5.42,5.33.37.53,2.09.06,1.85-.65-.14-.44-.29-.88-.44-1.32l-1.85.65,1.32,2c.41.61,2.27-.06,1.78-.8l-1.32-2c-.36-.55-2.09-.06-1.86.65.15.44.3.89.44,1.33l1.86-.66c-1.66-2.33-3.31-4.65-6-5.69-.5-.19-1.87.26-1.47,1a4.7,4.7,0,0,0,2.34,2.31c.51.25,2.12-.09,1.65-.9-2.19-3.77-9.46-6.1-13.54-6.16-.54,0-2.08.84-.93,1.18l2.2.66c.68.21,2.28-.77,1.15-1.15-7.64-2.58-12.33,3.91-19,6,.18.34.36.68.55,1a16.83,16.83,0,0,1,2.86-1.32c.41-.17.82-.63.36-1-3.06-2.31,10.11-4,6.82-4,.78,0,2-1.19.72-1.22-3-.06.82-.23,1.8-.69,4-1.89,7.86.25,11.19,2.46l1.34-1.08L108,31c-.49-.24-2.17.14-1.65.91a7.5,7.5,0,0,0,4.28,3.26c.43.14,2-.3,1.47-1-2.05-2.64-5.29-4.06-8.47-4.81l-1.16,1.15a10.75,10.75,0,0,0,2.42.26c.56,0,2.07-1,.94-1.19a42,42,0,0,0-6.39-.92c-.35,0-2,.7-1.12,1.12A15.63,15.63,0,0,0,102.27,31c.14-.38.29-.75.43-1.13a34.28,34.28,0,0,1-5.47,1.49c-.67.11-1.73,1.18-.48,1.22a24.32,24.32,0,0,1,4.86.62L102.3,32c-2.5.12-5,.06-7.47,0-.24.41-.48,1.24-.72,1.24h1.32c.81,0,2-1,.72-1Z"/><path class="cls-4" d="M83.36,42.23a18.45,18.45,0,0,0-.88,4c-.09.86,1.44.3,1.74.07,3.08-2.37,4.54-7.2,7-10.29.55-.7-1.32-.61-1.68-.21a12.71,12.71,0,0,0-2.33,3.45c-.28.63.64.68,1,.54C91.94,38.48,95,36,98.79,34.68c.83-.28,1.18-1.25,0-1.07-1.77.28-3.5.48-5.29.6-.7,0-1.69,1.07-.49,1.07h8.82c.3,0,2-.66,1.13-1s-1.62-.55-2.42-.85c-.45.34-.9.7-1.36,1,3.73,1.16,7.94,1.57,11.51,3,.6.25,2.36-.61,1.53-.95-3.73-1.53-8-2-11.86-3.15-.53-.16-2.17.72-1.35,1l2.42.89c.38-.35.76-1,1.14-1H93.74c-.17,0-.33.74-.5,1.12,1.79-.12,3.52-.39,5.29-.66,0-.36,0-.72,0-1.07C94.77,35,91.58,37.5,87.94,38.74l1,.54a8,8,0,0,1,2.08-3.17l-1.68-.21c-2.29,2.92-3.82,7.78-6.71,10l1.74.06a18.58,18.58,0,0,1,.88-4c.23-.71-1.72-.45-1.93.23Z"/><path class="cls-4" d="M97.1,73.1a6.32,6.32,0,0,1,3.87-.75,4.7,4.7,0,0,0,1.94,0c1.44-.43,2.77-.85,4.28-.31a25.08,25.08,0,0,0,3,1c.94.21,2-1.12.67-1.4-2.6-.58-4.19-1.7-6.9-1.06-1.48.34-2.75,0-4.15.17A11.4,11.4,0,0,0,96.25,72c-1.2.57-.13,1.6.85,1.13Z"/><path class="cls-4" d="M96.63,72.28h-.88c-.24,0-1.92.63-1.18.87,1.05.35,1.61,1.79,2.59,2.45A9.1,9.1,0,0,0,101.84,77c3.07.15,5.94-1.59,8.37-3.24.85-.58-1.1-.43-1.5-.16-3.28,2.23-6.81,3.31-10.3,1-1.1-.73-1-1.7-2.28-2.14-.39.28-.79.89-1.18.89h.88c.59,0,2.1-1,.8-1Z"/><path class="cls-4" d="M98.22,72.77,98,72.56l-.7,1.1c-.74.16.53.64.77.69a32.4,32.4,0,0,0,3.92.54c2.53.28,5-.67,7.39-1.46,1.16-.39.82-1.74-.36-1.34a18.84,18.84,0,0,1-8.83,1.14c-1.1-.13-2.16-1.16-3.25-.91-.4.09-1.1.63-.71,1.1l.18.21c.58.68,2.41-.1,1.77-.86Z"/><path class="cls-4" d="M102.86,306.17c-.24-3.61,14.48-4.46,17.16-4.5,12.35-.23,23.75.89,35.05,6.31.79.39,2.22-.76,1.11-1.29-12.13-5.83-25.35-7.37-38.66-6.28-3.35.27-17,.93-16.59,6.27.06.88,2,.42,1.93-.51Z"/><path class="cls-4" d="M100.59,291.42c10.44-.19,20.55-3.08,31-3.61,11.58-.59,23,2.54,34.61,1.79.6,0,2.08-1,.79-1-11,.71-21.82-1.67-32.79-1.82s-21.75,3.45-32.78,3.64c-.62,0-2.08,1-.79.95Z"/><path class="cls-4" d="M103.61,279.71c22-.93,45.74-.7,65.38-12.09,1.13-.66-.54-1.1-1.23-.7-19.12,11.09-42.52,10.68-63.93,11.59-1,0-1.55,1.25-.22,1.2Z"/><path class="cls-4" d="M105.46,266.18c23.14-.08,46.63-3,67-14.71,1.13-.66.1-1.74-.87-1.18-20.07,11.58-43.15,14.36-66,14.43-1.12,0-1.47,1.46-.16,1.46Z"/><path class="cls-4" d="M105.15,252.28c13.47-.22,27.23-4.29,40-8.34,8.75-2.78,19.9-5.67,25-14,.44-.71-1.48-.46-1.78,0-5.19,8.45-16.75,11-25.57,13.82-11.7,3.76-24.57,7.32-36.89,7.53-.65,0-2.08,1-.78,1Z"/><path class="cls-4" d="M105.47,238c21.47-.26,43.35-9.08,60.82-21.21,1.08-.75-.48-1.53-1.3-1-17.06,11.84-38.43,20.42-59.38,20.67-1.13,0-1.45,1.52-.14,1.5Z"/><path class="cls-4" d="M105.67,222.21c20.33-6,46.67-9.16,60-27.77.51-.71-1.44-.54-1.8,0-12.9,18.07-38.64,21-58.42,26.85-1.14.34-.9,1.29.26,1Z"/><path class="cls-4" d="M105.43,207.8c11.6-1.07,22.29-6.31,33-10.37,9.69-3.65,21-4.61,28.86-11.89.87-.79-1-1-1.58-.45-7.49,6.9-18.81,8-28.09,11.36-10.5,3.85-20.75,9.05-32,10.09-1,.1-1.54,1.38-.22,1.26Z"/><path class="cls-4" d="M106.34,193.21c11.25-.34,21.61-6.29,31.81-10.42,9.47-3.83,19.63-6.71,25.67-15.62.55-.82-1.42-.73-1.82-.13-5.71,8.43-15.65,11.29-24.65,14.8-10,3.88-19.83,9.81-30.79,10.15-1,0-1.54,1.26-.22,1.22Z"/><path class="cls-4" d="M107.55,178.72c17.91-4,41.24-8.25,51.73-25.15.58-.93-1.39-1-1.85-.25-10.08,16.24-33,20.2-50.25,24-1.22.27-.84,1.63.37,1.37Z"/><path class="cls-4" d="M104.27,166.79c10.19.48,20.72-3.46,29.79-7.7,8.19-3.82,18.3-9.53,21.62-18.5.27-.72-1.68-.49-1.94.21-3.28,8.84-13.64,14.19-21.63,17.92-8.19,3.82-18,7.3-27.12,6.87-.8,0-2,1.14-.72,1.2Z"/><path class="cls-4" d="M113.25,149.46c14-6.21,26.72-14.15,35.9-26.69.72-1-1.1-1.28-1.62-.57-9,12.3-21.38,20-35.13,26.12-1.21.54-.14,1.58.85,1.14Z"/><path class="cls-4" d="M113.7,135.18c10.86-13.49,32.12-17.5,37.42-35.62.13-.46-1.76-.2-1.91.32-5.27,18-26.45,22-37.26,35.41-.42.52,1.45.26,1.75-.11Z"/><path class="cls-4" d="M76.68,167.5c3.59,0,7.26.05,10.73-1,1.11-.34,1-.94-.16-.6-3,.92-6.21.82-9.31.82-.41,0-2.2.79-1.26.79Z"/><path class="cls-4" d="M93.16,181.1c-4.74.05-9.6.81-14.17-.82-.62-.22-2.36.67-1.53,1,4.88,1.74,9.89,1.06,15,1,.76,0,2-1.17.74-1.15Z"/><path class="cls-4" d="M95.61,194.62c-5.48-.07-10.92-.85-16.39-.91-1.11,0-1.48,1.41-.17,1.43,5.48.06,10.91.84,16.39.91,1.11,0,1.47-1.42.17-1.43Z"/><path class="cls-4" d="M95,208.28H78.62c-.62,0-2.09,1-.79,1H94.22c.62,0,2.09-1,.79-1Z"/><path class="cls-4" d="M92.87,223.28H86.5c-1.11,0-1.48,2-.17,2h6.38c1.11,0,1.47-2,.16-2Z"/><path class="cls-4" d="M94.33,237.28H88.87c-.46,0-1-.26-1.37,0s-.26,0,.11,0h5.46c.47,0,1,.26,1.37,0s.26,0-.11,0Z"/><path class="cls-4" d="M95,253.28H91.32c-.45,0-1,0-1.26.43s.19.57.56.57h3.64c.46,0,1,0,1.27-.43s-.19-.57-.56-.57Z"/><path class="cls-4" d="M93.18,266.28H87.71c-.43,0-1,.64-1.28,1s.24,1,.51,1h5.47c.42,0,1-.64,1.27-1s-.23-1-.5-1Z"/><path class="cls-4" d="M92.23,276.28h-.91a1.79,1.79,0,0,0-1.26.93.82.82,0,0,0,.56,1.07h.91a1.78,1.78,0,0,0,1.26-.93.82.82,0,0,0-.56-1.07Z"/><path class="cls-4" d="M131.89,102.71c1.39,5.38,4.14,10.09,6.83,14.9,3.44,6.16,5.18,12.4,6.73,19.22,3.16,13.93,5.51,28.1,8.07,42.15,2.69,14.73,5.23,29.48,8.23,44.15,1.43,7,3.3,13.92,4.53,21,1.31,7.46,1.67,15.06,2.95,22.54.15.87,2.08.38,1.93-.52-1.17-6.85-1.7-13.78-2.65-20.66-1-7-3-13.95-4.43-20.91-3.08-14.65-5.62-29.42-8.28-44.15-2.55-14.12-5.07-28.28-8-42.32-1.2-5.69-2.34-11.64-4.95-16.88-3.14-6.28-7.22-12.12-9-19-.22-.87-2.15-.36-1.93.52Z"/><path class="cls-4" d="M121.88,126.38c3.94,13.88,9.62,27.18,13.64,41,4.12,14.23,6.5,29.19,9.21,43.75s4.92,29.18,7.54,43.75c2.69,15,5,30,5.11,45.22,0,1,2,.64,2-.17-.09-14.07-2.06-28-4.46-41.79-2.63-15.19-5.12-30.42-7.86-45.6-2.64-14.65-5.28-29.49-9.06-43.88-3.82-14.56-10-28.36-14.14-42.83-.24-.85-2.17-.32-1.93.51Z"/><path class="cls-4" d="M109.13,130.94c.16,6.52,2,12.73,3.91,18.91,2.17,7,3.84,14,5.57,21.05,3.89,15.91,7.54,31.54,9.36,47.83,1.8,16.12,4.53,32.12,7.13,48.12,1.35,8.37,2.65,16.74,3.81,25.14,1.07,7.72,1.14,15.22,3,22.89.09.36,2-.13,1.93-.52a92.49,92.49,0,0,1-2.73-20.94c-.09-8.23-2.47-17-3.77-25.16-2.67-16.66-5.5-33.29-7.44-50-1.82-15.68-5.12-30.75-8.91-46.05-1.77-7.12-3.3-14.21-5.51-21.22-2.11-6.71-4.24-13.45-4.42-20.53,0-.25-2,0-1.93.52Z"/><path class="cls-4" d="M105.49,182.73c-.58,9.94,3.67,19.06,5.28,28.71,2,12.07,4.58,24,6.44,36.14,1.79,11.72,5.08,23.11,7.41,34.74,1.22,6.1,2.71,12.58,2.72,18.82,0,6,.53,11.75,2.73,17.38.23.58,2.13,0,1.93-.51a44.64,44.64,0,0,1-2.71-15.65,116.68,116.68,0,0,0-2.38-18.69c-2.16-11.67-5.8-23.06-7.5-34.79s-3.89-23.19-6.17-34.72c-2-10.29-6.45-21.14-5.83-31.72,0-.67-1.89-.25-1.92.29Z"/><path class="cls-4" d="M102.74,253.67c.21,10.27,3.49,20,5.77,29.92s2.13,20.53,5.17,30.38c.29.94,2.22.41,1.93-.52-2.87-9.32-3-19.28-4.84-28.83-2-10.42-5.85-20.35-6.07-31.07,0-1.06-2-.8-2,.12Z"/><path class="cls-4" d="M80,167.36c.13,12,2.53,23.72,5.05,35.43,2.43,11.27,3,22.81,6.79,33.78.19.56,2.1,0,1.93-.52-3.57-10.31-4.5-21.19-6.38-31.87-2.2-12.51-5.32-24.53-5.46-37.34,0-.45-1.94-.13-1.93.52Z"/><path class="cls-4" d="M76.83,129.42l16.39-8.2c1.18-.59.12-1.6-.85-1.12L76,128.3c-1.19.59-.13,1.6.85,1.12Z"/><path class="cls-4" d="M70.62,123.65a175.08,175.08,0,0,0,17.3-10c1.09-.72-.61-.88-1.18-.5a173,173,0,0,1-17.3,10c-1.16.59.59.8,1.18.51Z"/><path class="cls-4" d="M74.53,114.55c2.87,4,4.8,8.53,7.28,12.75.26.44,2-.31,1.93-.52-2.48-4.22-4.41-8.77-7.28-12.75-.32-.44-2,.37-1.93.52Z"/><path class="cls-4" d="M83.63,111.82c1.16,5,4.42,9,6.38,13.65.32.77,2.23.19,1.93-.51-2-4.63-5.22-8.71-6.38-13.66-.18-.78-2.11-.28-1.93.52Z"/><path class="cls-4" d="M59.13,128.38c1,2.08,1.72,4.3,2.73,6.38.4.83,2.23.08,1.76-.88-1-2.08-1.72-4.29-2.73-6.37-.4-.83-2.23-.08-1.76.87Z"/><path class="cls-4" d="M58.17,255.42c4.89-6.79,10.62-14.58,18.6-17.87,1.25-.52.09-1-.73-.66-8.43,3.47-14.48,11.37-19.65,18.55-.47.66,1.45.43,1.78,0Z"/><path class="cls-4" d="M56.35,245.41c4.93-7.45,13.28-11.68,18.21-19.13.46-.69-1.47-.45-1.78,0C67.85,233.75,59.5,238,54.56,245.42c-.45.69,1.47.46,1.79,0Z"/><path class="cls-4" d="M65.47,217.22c2.68-3.58,5.41-7.11,9-9.87.89-.68-1-.76-1.56-.36-3.67,2.83-6.47,6.48-9.23,10.16-.55.73,1.41.6,1.81.07Z"/><path class="cls-4" d="M62.6,198.19a99.22,99.22,0,0,0,10-9.11c.78-.78-1.12-.65-1.53-.25a100.31,100.31,0,0,1-10,9.11c-.86.65,1.08.58,1.53.25Z"/><path class="cls-4" d="M61.84,184.51c1.16-3.1,4.37-5.18,7-6.95,1.09-.74-.5-1.4-1.27-.88-2.86,1.92-6.32,4.26-7.57,7.62-.39,1,1.55,1,1.84.21Z"/><path class="cls-4" d="M62.57,264.58c6.32-4.41,11.23-11.88,18.72-14.37,1.31-.44.08-.73-.68-.48-7.9,2.62-12.91,10.14-19.52,14.76-.81.57,1.13.34,1.48.09Z"/><path class="cls-4" d="M60.61,290.33c7.9-5.55,12.61-15.07,21.64-19,1.23-.54.1-1.18-.77-.8-9.31,4.07-14,13.55-22.07,19.23-1.07.75.59,1,1.2.59Z"/><path class="cls-4" d="M61.88,310.84a11.24,11.24,0,0,1,7.35-7.64c1.14-.32.92-1.16-.23-.83a13.15,13.15,0,0,0-9,8.75c-.17.6,1.76.31,1.92-.28Z"/><path class="cls-4" d="M77.33,303.69c-.43.66-.43,1.26.57,1.11a5.62,5.62,0,0,0,2.38-1.24c2.24-1.62,4.28-3.77,6.73-5.08,1.15-.61-.59-.82-1.18-.51a30.73,30.73,0,0,0-4.27,3.15c-.87.68-1.73,1.36-2.62,2-.29.22-.58.43-.88.62-.72.46.74.43,1.06-.06.46-.73-1.47-.5-1.79,0Z"/><path class="cls-4" d="M79.91,316.61c2.49-2.45,5.4-4.52,7.41-7.42.52-.75-1.44-.59-1.8-.06-1.94,2.79-4.77,4.78-7.16,7.14-.82.8,1.08.8,1.55.34Z"/><path class="cls-4" d="M73.15,295.94c4.92-2.13,8.75-6.08,13.66-8.2,1.23-.53.11-1.26-.79-.87-4.91,2.12-8.74,6.07-13.65,8.19-1.24.53-.12,1.26.78.88Z"/><path class="cls-4" d="M55.4,243.85c2.88,11.42,9.55,21.39,14.49,32,5.46,11.65,8.81,24.43,13.74,36.35.37.88,2.29.33,1.93-.52-4.94-11.95-8.46-24.58-13.73-36.35C67,264.6,60.22,254.8,57.33,243.34c-.23-.92-2.16-.41-1.93.51Z"/><path class="cls-4" d="M61.78,228.37c.19,8.1,3.46,16,6.67,23.33a144.32,144.32,0,0,0,11.61,21.42c.38.58,2.25-.07,1.79-.77a151.27,151.27,0,0,1-12.06-22.52c-3-6.86-5.9-14.39-6.08-22,0-.66-2-.26-1.93.52Z"/><path class="cls-4" d="M64.51,203.79c1.32,13.48,8.41,25.61,12.75,38.24.28.82,2.2.28,1.93-.52-4.34-12.63-11.43-24.76-12.75-38.24-.08-.81-2-.35-1.93.52Z"/><path class="cls-4" d="M60.93,293.12l5.46,5.46c.42.42,2.23-.29,1.81-.7l-5.47-5.47c-.41-.41-2.22.29-1.8.71Z"/><path class="cls-4" d="M84.54,317.61a2.16,2.16,0,0,0,.12.91,3.65,3.65,0,0,0,.86,1c.44.44,2.26-.27,1.8-.73a4,4,0,0,1-.73-.8,1.91,1.91,0,0,1-.12-.92c0-.52-1.93-.17-1.93.52Z"/><path class="cls-4" d="M146.17,321.64a8.87,8.87,0,0,1,4.15.79,1.4,1.4,0,0,0,1.37-.14c.28-.19.57-.69.13-.91a10.7,10.7,0,0,0-4.95-1,1.41,1.41,0,0,0-1.27.57c-.21.4.19.72.57.72Z"/><path class="cls-4" d="M158.91,320.71h.45c.09,0,.09,0,.06,0a3,3,0,0,1,.78.69c.55.55,2.38-.2,1.78-.81a5.05,5.05,0,0,0-1-.91,2.78,2.78,0,0,0-1.31-.23,1.43,1.43,0,0,0-1.27.57c-.22.39.19.69.56.69Z"/><path class="cls-4" d="M121.81,113.05c10.4-1.48,17-10.94,22.88-18.75.56-.74-1.4-.63-1.81-.09-5.24,7-11.46,16.35-20.83,17.68-1,.13-1.57,1.35-.24,1.16Z"/><path class="cls-4" d="M131.06,95.56a14,14,0,0,1,2.65,3.51c.37.71,2.26.1,1.94-.52a14.88,14.88,0,0,0-2.81-3.78c-.52-.52-2.35.22-1.78.79Z"/><path class="cls-4" d="M96.57,61.46c-.89,1.26-1.8,2.34-2,3.91,0,.33.33.38.57.38,1.28,0,3-.28,3.92.7a2.31,2.31,0,0,0,1.63.8A8.77,8.77,0,0,0,105.16,66c1.3-.66,6.76-3.13,2.74-3.88-.56-.11-2.27.78-1.2,1,1.76.33-.45,1.21-.88,1.42-.88.43-1.72,1-2.61,1.37-1.24.57-1.81-.47-2.88-.74a17.75,17.75,0,0,0-4.37-.4l.57.38a7.84,7.84,0,0,1,1.83-3.66c.48-.68-1.46-.47-1.79,0Z"/><path class="cls-2" d="M202.48,218.24c.1-2.76.21-5.42-.79-8v.05h.07c-.21-1-.43-2.05-.73-3.05a1.24,1.24,0,0,0-.08-.41.65.65,0,0,1,0-.13,60.56,60.56,0,0,0-4-9.61c-.27-.56-.54-1.11-.83-1.66a1.29,1.29,0,0,0-1.05-.73c.45-5.09.78-10.37-.44-15.28a.45.45,0,0,0,0-.11l0-.06c1-3.08.93-6.21.75-9.38a1.55,1.55,0,0,0,1.4-1.48c.07-4,.31-8-.58-12a1.36,1.36,0,0,0-.49-.8c0-.83,0-1.67,0-2.5a1.36,1.36,0,0,0-.7-1.25c-.11-.6-.23-1.2-.36-1.78a1.31,1.31,0,0,0-1-1c0-1.24-.05-2.48,0-3.73,0-.83,0-1.66.05-2.48l0-.22a1.42,1.42,0,0,0,.47-1.08c0-1.78.17-3.54.34-5.29v-.07c0-.42.09-.84.14-1.26q.34-2.61.93-5.23c0-.1.07-.21.11-.32h0a.94.94,0,0,1,0-.16,1.48,1.48,0,0,0-.17-1.16,1.45,1.45,0,0,0,.31-2.3,35.75,35.75,0,0,1-7.65-10.19c-.78-1.47-3.4-.41-2.74,1.17l.16.36h0l0,0a1.33,1.33,0,0,0-.22.78q0,3,.18,5.92c-1.21,2.77-1.09,5.92-.76,9.07-.26,3.11-.45,6.22-.55,9.34a31.73,31.73,0,0,0-1.32,10.5,32.59,32.59,0,0,0,.43,10.73c.43,6.75,2.65,13.1,4.47,19.58,1,5.62,2.17,11.22,3.3,16.81a54.09,54.09,0,0,0,.46,7.93,44.8,44.8,0,0,0,.61,8.11,25,25,0,0,0,5.17,14.43,1.25,1.25,0,0,0,1.19.45l.15.27a1.49,1.49,0,0,0,2.74-1.1c-.64-2.33-1.37-4.62-2.06-6.91a1.37,1.37,0,0,0,2.23-.76h.41a2.83,2.83,0,0,0,0-.29,1.45,1.45,0,0,0,.51-1.12,20.89,20.89,0,0,0-.08-2.63Zm-3.79,2.31c0-.31,0-.62-.08-.93,0,.18.06.36.08.54Z"/><path class="cls-2" d="M245.82,136.82a1.35,1.35,0,0,0,.79,1.32,28.66,28.66,0,0,0-.12,10.73c-.1,1.33-.21,2.65-.32,4-.67,2.13-.42,4.32-.35,6.57a1.5,1.5,0,0,0,.3.88,42.35,42.35,0,0,0,1.33,9.5,1.4,1.4,0,0,0,.7.9,115.41,115.41,0,0,0,3.16,23.14c0,.36.08.73.13,1.09a45.28,45.28,0,0,0-.21,12.52A11.88,11.88,0,0,0,250,211a10.36,10.36,0,0,0-.2,4.57,25.45,25.45,0,0,0,.94,5.13,1.53,1.53,0,0,0,3-.4V217.7a1.41,1.41,0,0,0,1-1.42V214a48.87,48.87,0,0,1,1,6.54v3.72a1.53,1.53,0,0,0,.36,1c.09.45.17.9.25,1.35a1.51,1.51,0,0,0,3,0c.1-.74.23-1.49.37-2.24A1.33,1.33,0,0,0,260.9,223c-.12-1-.22-2.08-.31-3.12.62-3.23,1-6.46.1-9.67v-.34h-.09l-.12-.4a1.52,1.52,0,0,0-.82-.91c-.12-.94-.25-1.88-.42-2.81a65.75,65.75,0,0,0-1.54-6.81,1.37,1.37,0,0,0-.77-.91,1.51,1.51,0,0,0-.6-.5,47.76,47.76,0,0,0-1.18-13.11c0-.16,0-.32,0-.48a77.49,77.49,0,0,1,2.19-12.65,1.45,1.45,0,0,0,.93-1.35c0-1.18,0-2.38.05-3.59a38.6,38.6,0,0,0,.6-6.72,33.58,33.58,0,0,0-.53-5.49,50.82,50.82,0,0,0-1.26-9.72,33.65,33.65,0,0,0-1.76-7.08c-.27-1.52-.55-3-.83-4.56a1.42,1.42,0,0,0-.07-.22c.12-2.33.18-4.66.12-7a1.59,1.59,0,0,0-1.8-1.57,1.48,1.48,0,0,0-2.12.92c-.1.38-.18.76-.26,1.14l-.19.1a1.53,1.53,0,0,0-2.3,1.18h-.24v.11c0,.29.22.59.21.89h-.05a.78.78,0,0,0-.22,0l-.06-.12a1.51,1.51,0,0,0-2.8.75,12.48,12.48,0,0,0,1.17,5.82A19.2,19.2,0,0,0,245.82,136.82Z"/><path class="cls-2" d="M231.29,347.73c.05-.32.1-.63.14-.93a1.53,1.53,0,0,0-1.44-1.9,5.1,5.1,0,0,0-1.21.13,1.21,1.21,0,0,0,0-1.12,9.45,9.45,0,0,1-1-3.81,1.58,1.58,0,0,0-.54-1l0-1.29c0-.08,0-.15,0-.24.06-4,.42-8.08,0-12.11a0,0,0,0,1,0,0,.41.41,0,0,1,0-.11h0a1.62,1.62,0,0,0-.53-1l0-.8c0-.81-.7-1.24-1.5-1.24h-.52a1.83,1.83,0,0,0-.82.18,1.15,1.15,0,0,0,0-.19,1.4,1.4,0,0,0-.72-1.23,8.31,8.31,0,0,0-1.6-2.49,1.35,1.35,0,0,0-.79-.41,4.38,4.38,0,0,0-.56-.34,1.52,1.52,0,0,0-2.26,1.29,15.42,15.42,0,0,0,1,6.31,20.6,20.6,0,0,0,.62,2.29,30.62,30.62,0,0,0,1.1,5.45,1.4,1.4,0,0,0,.82.93,7.45,7.45,0,0,0,1.18,9.35,1.5,1.5,0,0,0-.8.65,16.69,16.69,0,0,0-1.71,3.82,7.84,7.84,0,0,0-1.59,3.37,1.59,1.59,0,0,0,1.08,1.85c0,.57-.07,1.09-.08,1.53a1.24,1.24,0,0,0,.07.61,1.37,1.37,0,0,0,1.12,1,1.73,1.73,0,0,0,.45,0,11.69,11.69,0,0,0,.51,1.55,1.74,1.74,0,0,0,1,1,11.19,11.19,0,0,0-.45,2.29,1.47,1.47,0,0,0,2.2,1.3c3.14-1.56,5-4.77,6.29-7.9a1.93,1.93,0,0,0,.1-1.23A10.36,10.36,0,0,0,231.29,347.73Zm-4.45-1.67a5.19,5.19,0,0,0-1.18-.58,1.32,1.32,0,0,0-1.15.16c0-.14.06-.28.1-.41a1.57,1.57,0,0,0-.1-1,1.42,1.42,0,0,0,.76-.43,2.58,2.58,0,0,0,.29,0c.11.31.22.61.36.94a1.6,1.6,0,0,0,1.35,1A3.81,3.81,0,0,0,226.84,346.06Z"/><path class="cls-2" d="M219.89,365.66a1.29,1.29,0,0,0,0-.35,20.82,20.82,0,0,0-2.3-8.11,1.28,1.28,0,0,0-.88-.74,10.34,10.34,0,0,0-1.46-1.66,1.51,1.51,0,0,0-2.56,1.06,11.15,11.15,0,0,0,.39,2.25,1.52,1.52,0,0,0-1.91,1.82c0,.15.1.3.15.44a1,1,0,0,0-.12.23,1.25,1.25,0,0,0-1.27.63,3.73,3.73,0,0,0-.47,0,1.5,1.5,0,0,0-1.44,1.9c1.36,3.24,3.21,6,6.82,6.82a1.54,1.54,0,0,0,.8,0l.64.68a1.51,1.51,0,0,0,2.56-1.06c0-.32,0-.64,0-.95.06,0,.1-.1.16-.15a1.58,1.58,0,0,0,1-2.59A1.09,1.09,0,0,1,219.89,365.66Z"/><path class="cls-2" d="M212.36,373.52a2.6,2.6,0,0,1-.7-.66c-.1-.3-.21-.6-.34-.89a.84.84,0,0,0-.22-.31,4.48,4.48,0,0,1-.1-.55,1.57,1.57,0,0,0-2-1.39,4.63,4.63,0,0,0-1.85-1.3,5.78,5.78,0,0,0-1.46-.88,3.12,3.12,0,0,0-2.9,2.37,19.33,19.33,0,0,0,.87,3,1.27,1.27,0,0,0-.87.95,7.29,7.29,0,0,0,3.85,7.48,1.51,1.51,0,0,0,1.67-.05,7,7,0,0,0,1,.57,1.5,1.5,0,0,0,2-.54,11.46,11.46,0,0,0,1-5.11A1.59,1.59,0,0,0,212.36,373.52Z"/><path class="cls-2" d="M248.51,345.41h0a1.64,1.64,0,0,0,.83-1.21,5.75,5.75,0,0,0,.63-2.52,1.37,1.37,0,0,0-1.85-1.38,1.42,1.42,0,0,0-1.39-1c.05-5,.25-11.44-2.17-16l.06-.51a1.48,1.48,0,0,0-1.41-1.48l-.08-.11a1.43,1.43,0,0,0-2.09,0v0a1.52,1.52,0,0,0-2.36.3c-1.83,3.83-1.39,9,0,13.55.1.59.22,1.18.36,1.76a21.12,21.12,0,0,1-.48,3.52,1.58,1.58,0,0,0,1.45,2h6.74l0,.11a1.45,1.45,0,0,0-1,1.39v.38l-.14,0a3.14,3.14,0,0,1,0,.68,1.5,1.5,0,0,0-2.2-.75l0,0a1.57,1.57,0,0,0-2.34-.3l-.52-.53a1.51,1.51,0,0,0-2.56,1.06c0,.16.05.3.07.45a1.5,1.5,0,0,0-.15,2.19c1.65,1.82,2.27,4.17,4.5,5.49a1.52,1.52,0,0,0,2.79-.77c0-.06,0-.12,0-.18a1.51,1.51,0,0,0,1.06-1.4c0-.31,0-.62,0-.93A5.31,5.31,0,0,0,248.51,345.41Z"/><path class="cls-2" d="M263.91,360.8a1.39,1.39,0,0,0,.62-.87,21,21,0,0,0,.58-5.12c0-1.67-2.17-1.72-2.85-.39a1.62,1.62,0,0,0-1.68,1c-.06.17-.1.33-.16.5a1.53,1.53,0,0,0-1.47,1.47c0,1.24.11,2.46.22,3.69-.76-1.29-1.53-2.58-2.15-3.92a1.21,1.21,0,0,0-.68-.64l.35-.35a1.34,1.34,0,0,0,.86-.61,3.83,3.83,0,0,1,2.38-.34A1.51,1.51,0,0,0,261,352.7l-.17-.14a1.4,1.4,0,0,0-.12-1.13c-1.33-2.24-3.66-3.26-5.92-4.31a4.1,4.1,0,0,0-2.33-1.64,1.58,1.58,0,0,0-1.53.47,1.5,1.5,0,0,0-1.37,1.11,13.7,13.7,0,0,0-.14,2.23,7.45,7.45,0,0,0-1.59,6.07c0,.05,0,.1,0,.15a2.74,2.74,0,0,1,0,.28c0,.19.08.37.13.55a6.13,6.13,0,0,0,2.22,3.44,1.46,1.46,0,0,0,1.52,0,5.91,5.91,0,0,0,1.41-1.45,1.65,1.65,0,0,0,1,0h.06s0,0,0,.06l.18.44a1.48,1.48,0,0,0-.71,1.66,9.14,9.14,0,0,0,1.6,3.37,1.16,1.16,0,0,0-1.07,1.09c-.41,3,3.42,5.09,5.77,6a1.14,1.14,0,0,0,.89,0,8.67,8.67,0,0,0,1.38.91,1.53,1.53,0,0,0,2.21-.9,14.32,14.32,0,0,0-.57-9.24C264,361.41,263.93,361.1,263.91,360.8Z"/><path class="cls-2" d="M232.59,77.34a17.41,17.41,0,0,0,3.11-4.42c2.57-3.19,4.42-7.16,4.15-10.24a16.66,16.66,0,0,0,.84-3.61c.27-.91.52-1.82.72-2.74a1.6,1.6,0,0,0-.76-1.71,10.26,10.26,0,0,0-.34-1.79l.48.2c1.74.79,3.27-1.79,1.51-2.59A28.46,28.46,0,0,0,237,48.68a5.05,5.05,0,0,0-6.94-2.46A14.7,14.7,0,0,0,224.74,45a1.41,1.41,0,0,0-1.44,1.2,25.44,25.44,0,0,0-6.78.38h-.19v0l-.41,0a1.08,1.08,0,0,0-1,1.1,1.66,1.66,0,0,0-2-.46,8,8,0,0,0-4.4,5.39c-4.06,1.24-1.75,7.73,1.21,13.46a25.42,25.42,0,0,0,1.79,4.59,1.39,1.39,0,0,0-.19,1.74l1.48,1.93c.93,2.56,2.36,5.33,4.1,6.78-1.17,2.72-2.05,6-.5,7.11,0,.17,0,.34,0,.51l-.74-.16a1.54,1.54,0,0,0-1.84,1.81,1.47,1.47,0,0,0,1.84,1.61h0l2,.37h0a1.55,1.55,0,0,0,2-.54,7.7,7.7,0,0,0,.86-.19,1.31,1.31,0,0,0,.68.36c2.49.5,4.81,1.16,7.12,1a1.59,1.59,0,0,0,1.75-.34,9,9,0,0,0,1.74-.76,1.52,1.52,0,0,0-.76-2.8,6.18,6.18,0,0,1-.62-.12,1.65,1.65,0,0,0-1.37-1.12,9.46,9.46,0,0,0,0-7A12.86,12.86,0,0,0,232.59,77.34Z"/><path class="cls-2" d="M220.24,38.32c5-3.1,10.68,0,15.65,1.73,1.84.63,2.62-2.27.8-2.9-5.88-2-12.07-5-18-1.42C217.08,36.74,218.59,39.33,220.24,38.32Z"/><path class="cls-5" d="M263.53,284.64a24.64,24.64,0,0,0-1.07-6.53c0-.13-.1-.25-.15-.37-.21-3.92-1-7.87-1.47-11.75-.75-5.72-1.13-11.42-2-17.09a44.49,44.49,0,0,0-.67-8.24c-1.08-5.68-3.42-10.9-4.65-16.5A3,3,0,0,0,251,221.7a12.74,12.74,0,0,0-2.78-4.18,3.23,3.23,0,0,0-.59-.46c.35-3,.76-6.05,1.12-9a43.62,43.62,0,0,0,.17-8.37,61.23,61.23,0,0,0-1-13.11,39.18,39.18,0,0,0-4.28-14,3.74,3.74,0,0,0-.83-1.05c-.1-5-.44-10-.66-15,1.63-5.37.75-12.12.7-17.1a3.47,3.47,0,0,0-.59-1.9l.09-.46c2.43-2,.52-6.91-3.3-6.09a4.44,4.44,0,0,0-3,2.61,2.85,2.85,0,0,0-3.3-.71c-4.5,1.62-9.12,1.41-13.79,1.22-4.43-1-8.75-3-13.35-5.31a3.57,3.57,0,0,0-4.84,1.63,3.86,3.86,0,0,0-2.2,2.37c-1.32,4-1.1,8.76-.43,13.18.1.84.24,1.68.42,2.51s.31,1.62.47,2.39c.73,3.51,2.55,9.33,5.89,12.34a23.67,23.67,0,0,0-3,9.29,28.74,28.74,0,0,0,.09,19.57c-.68,3.76-.46,8.35,1.39,11.51a38,38,0,0,0,1.49,6.59,3.43,3.43,0,0,0,.61,1.11c0,.1-.05.19-.07.29-2.13,4.46-2.24,9.7-2.1,14.76-.22,1.34-.41,2.68-.57,4a10.73,10.73,0,0,0-2.56,7.92,28,28,0,0,0-.83,9.34,3.28,3.28,0,0,0-1.57,2.7h0s0,.07,0,.11,0,.06,0,.09c-.39,14.27,1.7,28.42,4.78,42.32,1.24,5.57,2,12.12,5.5,16.8,2.72,3.67,6.81,5.85,11.09,7.15a20.18,20.18,0,0,0,3.05.64c2.6,2.41,5.92,3,9.38,2.71a10.11,10.11,0,0,0,4.28-.57,10.26,10.26,0,0,1,5.54.87c2.08.94,4.49,2.29,6.84,2.18a11.29,11.29,0,0,0,6.15-2c1.6,1,4.13.83,5.13-1.05C265.1,309.14,265.25,296.19,263.53,284.64Zm-32.5.2c0-.31,0-.63,0-.94a23.1,23.1,0,0,1,.22,2.53C231.14,285.9,231.07,285.37,231,284.84ZM217,308l.09.27-.23-.15Zm25.48-171.25c.19-.78.31-.48,0,0Z"/><path class="cls-1" d="M256.88,312.47c-5.46,2.17-10.9-.55-16.35.42-.87.16-1.71.38-2.57.58.47.7.33.68-.44-.06a3.72,3.72,0,0,0-1.31-.68,4.22,4.22,0,0,0-2.11-.05,12,12,0,0,1-.55-1.14,2.67,2.67,0,0,0-2.94-1.77,3.52,3.52,0,0,0-1.21-1.6c3.77-1,7.15-2.88,10.83-4.18a3.46,3.46,0,0,0,2.46-3.37V300a3.37,3.37,0,0,0-1.62-3c-2.64-1.35-5.13-2.94-7.66-4.48-1.6-1-3.16-2-4.73-3-.52-.34-1-.69-1.54-1.05-.09-.07-.16-.11-.2-.15h0c-.12-.09-.11-.08,0,0a7.56,7.56,0,0,1,.6,1.2,3.91,3.91,0,0,0-5.92-1.55c-1.77-5.76-3.39-11.55-4.67-17.41-1.66-7.57-1.14-15.61-.87-23.3a199.79,199.79,0,0,0-.55-24.71c-.14-1.59-.29-3.18-.44-4.77l.17.17c.24.25.48.51.71.78.42,1.4,1.07,2.63,1.65,4.11a3.57,3.57,0,0,0,.88,1.29,11.43,11.43,0,0,0,3.91,4.61c2.23,1.55,5.27-.53,5.27-3v-14a3.53,3.53,0,0,0-3.51-3.48h-6.49c-1.87,0-2.85,1.54-3,3.17a2.31,2.31,0,0,0-.19.14c-.33-3.8-.61-7.61-.76-11.43-.29-7.62.45-15.23.16-22.85a41.22,41.22,0,0,0-.92-7,41.5,41.5,0,0,0,8.18.43c2.83.34,5.67.68,8.5.93.79,4.84,4.8,10,8.59,12.66a3.47,3.47,0,0,0,4.24-.55c1.81-2,2.86-4.29,2.06-7-.65-2.21-2.56-3.81-3.94-5.56a2.37,2.37,0,0,0-.4-.43c1.38-2,.53-5.45-2.55-5.65v0c-.71,0-1.42,0-2.14-.07l-.74-.05a3.09,3.09,0,0,0-3-1.78c-1.7,0-3.4.15-5.1.27a2.44,2.44,0,0,0-.58-.47,40.37,40.37,0,0,0,.87-4.79,6.15,6.15,0,0,0-1.93-5.25c-2.25-1.77-5-1.64-7.66-1.06a3.63,3.63,0,0,0-2.71,3.38v7.41c-1.07-.08-2.14-.13-3.22-.15a20.27,20.27,0,0,1-.78-3.45v-.81h-.1a3.56,3.56,0,0,0-1.25-2.39,106.8,106.8,0,0,1-2-21.56c0-3.85-6.13-4.9-6.88-.93-1.88,10-.26,20.26,3.25,29.79a3.8,3.8,0,0,0,.52.93,64.45,64.45,0,0,1,2.68,13.19c.27,4.38.11,8.77,0,13.16-1.23-2-4.54-2.83-6.06-.15a8.34,8.34,0,0,0-1.09,3.47,3.75,3.75,0,0,0-.54,1.12,7.42,7.42,0,0,0,.09,4.77,8.61,8.61,0,0,0,1.4,2.35l.19.25a4,4,0,0,0,5.37,2.35,3.84,3.84,0,0,0,.67-.55c.36,6.81,1.18,13.6,1.77,20.38.33,3.69.43,7.39.44,11.09a6.16,6.16,0,0,0-6.27,4.81,13.37,13.37,0,0,0,.79,7.87,3.7,3.7,0,0,0,5.26,2,126,126,0,0,0,1,20.36c1.18,8,4.16,16,6.58,23.66.7,2.23,1.42,4.45,2.13,6.68-.08-.09-.14-.18-.23-.27A5.74,5.74,0,0,0,214,299a3.46,3.46,0,0,0-3.37,2.57c0,.24-.06.47-.09.71-.32-.05-.64-.09-1-.11a3.54,3.54,0,0,0-3.38,4.44c1,3.31,3.28,5.31,6.06,7.16a2.94,2.94,0,0,0,2.94.35,3.44,3.44,0,0,0,5.46-3,3.39,3.39,0,0,0-.09-1.33,4.47,4.47,0,0,0-.73-1.52,3.26,3.26,0,0,0-.85-1.4l-.57-.91c-.06-.11-.14-.23-.22-.36a3.69,3.69,0,0,0,1.21-2.24q2.25,7,4.49,14a3.49,3.49,0,0,0,3.87,2.44,3.27,3.27,0,0,0,3,.52c1.31,1.07,3.44,1.32,4.64,0a4.78,4.78,0,0,0,2.07.27c2.09-.1,3.9-.95,6-.83,5.09.28,10.3,1.39,15.25-.57C262.89,317.58,261.09,310.81,256.88,312.47ZM223.71,162.53ZM206.8,194.06l0,1.41A2.26,2.26,0,0,1,206.8,194.06Zm17.45,101c-.08.13-.16.26-.23.4l-.24-.72Z"/><path class="cls-1" d="M231.45,281a2.83,2.83,0,0,0,2.88,1.52c.34,0,.64-.09.93-.15v0c3.15-.57,6.37-.69,9.52-1.27a3.5,3.5,0,0,0,2.09-5.14,21,21,0,0,0-5.19-4.88c-1.67-1.19-3.78-2.45-4.61-4.44-1-2.41-5-4-6.39-.83-1.66,3.69-1.75,7.93-1.75,11.92A3.19,3.19,0,0,0,231.45,281Z"/><path class="cls-1" d="M217.62,260.93c.65,3,4.95,3.38,6.4.83,1.26-2.21,3.56-3.66,5.08-5.71a3.42,3.42,0,0,0,0-3.53c-1.22-2.05-1.62-4.49-2.18-6.78-.81-3.29-6-3.41-6.75,0a22.82,22.82,0,0,1-3.46,8.6,2.89,2.89,0,0,0,.76,4.27A7.3,7.3,0,0,0,217.62,260.93Z"/><path class="cls-1" d="M237.26,231.37c-.07-.29-.13-.57-.19-.86-.8-4.44-7.55-2.56-6.75,1.86s4.05,8.35,3.69,13c-.19,2.39,2.36,3.82,4.43,3.37,2.85-.62,5.65-1.66,8.59-1.77a3.53,3.53,0,0,0,1.76-6.53c-4.18-2.48-7.65-5.85-11.35-9Z"/><path class="cls-1" d="M231.3,209.07c3.55,2.24,5,7,7.54,10.24,1.93,2.47,6.06.36,6-2.47-.13-4.73-1.87-9.25-2-14a3.26,3.26,0,0,0-1.85-3c-.78-1.7-2.64-2.76-4.58-1.33s-3.27,3.11-5.07,4.45C229.19,204.59,228.91,207.57,231.3,209.07Z"/><path class="cls-1" d="M223.4,199.55c2.78-1.66,5.51-3.33,8.69-4.09a3.53,3.53,0,0,0,1.54-5.85c-2.33-2.33-4.71-4.65-5.44-8a3.39,3.39,0,0,0-3.15-2.49c-1.8-2.19-6.29-1.48-6.27,2.15,0,4.73.67,9.66-.51,14.3A3.53,3.53,0,0,0,223.4,199.55Z"/><path class="cls-1" d="M225.12,148.93a3.53,3.53,0,0,0,4.43,3.37,20.89,20.89,0,0,1,6-1.14,3.54,3.54,0,0,0,3-5.27,33.5,33.5,0,0,0-6.26-7.69,2.43,2.43,0,0,0-.3-.26,3.47,3.47,0,0,0-1-.92c-1.51-.88-4-.49-4.79,1.26C224.68,141.77,225.07,145.22,225.12,148.93Z"/><path class="cls-1" d="M210.69,139v4.25c0,2.16,2.17,4.13,4.35,3.37a15.63,15.63,0,0,0,5.94-3.44,3.52,3.52,0,0,0,.63-4.24c-.08-.15-.16-.29-.25-.43h.38c4.52-.05,4.47-7.05-.05-7-1.43,0-2.85.12-4.27.25a3.46,3.46,0,0,0-6.58.45C207.25,132.8,207.24,138.06,210.69,139Z"/><path class="cls-1" d="M209.1,281.92c-1.23-4.75-.82-9.48-2.87-14a3.29,3.29,0,0,0-3-1.6h-3.54c-3.68,0-4,5.91-.87,6.86a3.12,3.12,0,0,0-.13.82v6.35a3.63,3.63,0,0,0,3.58,3.42c.12.29.24.59.38.88C204.36,288.31,210.06,285.64,209.1,281.92Z"/><path class="cls-1" d="M261.65,286.85a3.35,3.35,0,0,0-3.2-2.43c-4.46-.15-8.3-1.69-12.56.48a3.53,3.53,0,0,0-1.25,4.79c2.4,4.44,6.67,7.35,9.52,11.42a3.71,3.71,0,0,0,6.19-.15,3.53,3.53,0,0,0,1.39-1.72,3.18,3.18,0,0,0,1.95-3.07v-5.89A3.53,3.53,0,0,0,261.65,286.85Z"/><path class="cls-1" d="M257.52,268.7a3.28,3.28,0,0,0,1.89-3c0-3.73.52-10.12-2.47-12.94-2-1.84-4.42-1.8-6.73-.67-1.66.83-3.08,3.3-5.09,3.13-4-.33-4.72,6-.93,6.87,3.26.79,5.24,5.93,6.79,8.55C253,274,257.71,271.85,257.52,268.7Z"/><path class="cls-1" d="M259,245.34c.21-.21.42-.43.64-.64a3.5,3.5,0,0,0-5-4.95l-.64.64a3.5,3.5,0,1,0,4.95,5Z"/><path class="cls-1" d="M250.83,91.46c-1.9-6.65-8.55-11-14.31-14-.48-.24-2.48.36-1.8.92,0,0,0,0,0,0v-.11H235c.28,0,.56.57.84.8a.57.57,0,0,0,.21.42l.06.08c-.62-.28-1.26-.51-1.91-.73-.05.12-.1.28-.15.43h-.32c-.71,0-1.62.87-.62,1.21,9.85,3.34,16.49,12.32,9.17,21.87-4.95,6.45-14.48,7.79-22,7.27-6.94-.48-14.17-2.89-17.21-9.59-2.81-6.21-2.74-17.49,5.85-18.65.89-.12,1.28-1.15.71-1.44.25-.17.41-.39.33-.64-.69-2.2-4.57.43-6.18,1.58.94-1.1,1.9-2.17,2.86-3.2.81-.88-.93-.88-1.41-.58-10.29,6.26-19.26,17.28-12.35,29.47a20.64,20.64,0,0,0,5.82,6.39c5.53,5.93,14.29,8.44,22.24,8.26a29.59,29.59,0,0,0,7.26-1.16c6.06-.72,11.88-2.94,16.19-7.21a24.08,24.08,0,0,0,3.83-4,14.84,14.84,0,0,0,3.3-11.62A18.3,18.3,0,0,0,250.83,91.46Zm-12.2,23.77A36.51,36.51,0,0,0,245,110a21.05,21.05,0,0,1-4.08,4C240.15,114.42,239.4,114.84,238.63,115.23ZM208,79.83a.47.47,0,0,0,.15.21c-.37.08-.73.17-1.07.27C207.63,79.93,208,79.73,208,79.83ZM201.27,85c-1.83,3.3-2.1,7.68-1.32,11.79,1.8,9.45,9.78,13,18.53,14.15,9,1.18,19.29-1,25.44-8.06,3.47-4,4.22-8.08,3.22-11.8.21.36.4.72.59,1.08a13.17,13.17,0,0,1,.05,11.12c-2.8,6.58-9.8,11.78-17,14.54a42.71,42.71,0,0,1-8.29.84,38.23,38.23,0,0,1-10.48-1.4,32.79,32.79,0,0,1-14.43-9.07c-4.75-7.62-2.57-14.92,1.72-21.44C199.82,86.26,200.51,85.65,201.27,85Zm-.43-3c-1,1.22-1.94,2.45-2.81,3.71a24.49,24.49,0,0,0-5.5,9C193.64,90,196.93,85.55,200.84,82ZM212,118.7a38.21,38.21,0,0,0,4.72,1.1c.43.07.86.12,1.3.18a27.28,27.28,0,0,1-8.39-1.88C210.42,118.32,211.22,118.53,212,118.7Z"/><path class="cls-1" d="M256.62,86.83c-4.24-6.5-12-9.91-19-12.42a1.89,1.89,0,0,0-1.63.44c-.15.14-.17.29.08.43,5.74,3.32,11.43,7.29,15.7,12.13,5.65,6.69,8.35,15,4.94,25.17-.17.51-.38,1-.58,1.5-5.84,10.5-19.14,16.69-30.72,17.07a41.68,41.68,0,0,1-33.52-15.91c-3.9-4.93-6.32-10.63-6-16.67a27.53,27.53,0,0,1,2.24-7c2.85-6.09,13.41-19.33,21.11-16.3.53.21,2.29-.58,1.55-.87-5-2-10.09,1.26-14,4.61,1.4-1.45,2.82-2.84,4.16-4.19.54-.54-1.32-.41-1.66-.1-6.21,5.54-12.54,11.37-15.54,19.34a19.16,19.16,0,0,0,.22,13.27c1.89,10,9.29,17,18.31,21.23a43,43,0,0,0,28.54,5.27c12.16-2,24.19-9.23,28.66-21.13a23.52,23.52,0,0,0,1.58-9A27.19,27.19,0,0,0,256.62,86.83Zm-28,45.06a39.53,39.53,0,0,0,22.49-9.9c-6.55,7-16.68,10.24-26.48,10.33a48.27,48.27,0,0,1-18.48-3.46,44.09,44.09,0,0,1-4-2.4A46.09,46.09,0,0,0,228.59,131.89Zm1.38,1.18a36.19,36.19,0,0,1-12.34-.14c.55.07,1.09.13,1.64.18a48,48,0,0,0,13.62-.62C231.91,132.72,230.94,132.91,230,133.07Z"/><path class="cls-1" d="M212.24,85.78c1.16-.3.92-1.16-.23-.86-4.66,1.19-5.22,5.77-2.56,9.54,3,4.2,7.46,4.46,12.22,4.05.62-.05,1.29-.14,2-.26,4.33-.12,8.42-1.41,10.57-4,4-2.72,5.64-6.54-.71-10.87a.77.77,0,0,0-.34-.09,6.94,6.94,0,0,0-2.07-.56c-.54-.07-2.26.83-1.2,1a5.44,5.44,0,0,1,1.89.56,16.29,16.29,0,0,1,1.26,2.44c-.39,3.36-5.85,8.35-8.32,9.12a15.6,15.6,0,0,1-7.6.33c-3.71-1.26-6.68-3.66-7.13-7.06a8.25,8.25,0,0,1-.07-.88c0-.08-.05-.13-.13-.18A3.05,3.05,0,0,1,212.24,85.78Zm4.47,11.63a13.82,13.82,0,0,1-1.75-.49c.24.07.48.12.72.18Zm18.86-5.72a7.86,7.86,0,0,0-.11-4A3.81,3.81,0,0,1,235.57,91.69Zm-9.46,4.66c2.22-.84,5.83-4,7.67-7a5.92,5.92,0,0,1-2.95,6.12,33.16,33.16,0,0,1-6.14,1.73l-.15,0c-.55,0-1.11,0-1.68,0A17.35,17.35,0,0,0,226.11,96.35Z"/><path class="cls-1" d="M208.68,49.72a22.09,22.09,0,0,1,4.68-3.17c4.22-1.07,10.48-.15,13.47.3,5.15.78,10,2.9,15.15,3.76.27,0,2-.31,1.52-.81-4.79-5.13-12.38-5-18.89-4.89-3.25.05-7-.65-10.16.2a12.09,12.09,0,0,0-2.13.79,7.59,7.59,0,0,0-4.23,2.71c-.07.1-.07.17,0,.23l-.89.7C206.34,50.18,208.28,50,208.68,49.72Zm31.47-.6C235,48,230.14,46.56,225,45.83h.16C230.29,45.75,236,45.92,240.15,49.12Z"/><path class="cls-1" d="M212,42.83a11,11,0,0,0,1.75-.66c.9-.37,1.78-.69,2.68-1a1.51,1.51,0,0,0,1.05-.19c.09-.07.19-.11.28-.17a21.72,21.72,0,0,1,4.83-.64c5.2-.1,10.38,2.16,15.06,4.13.54.23,2.39-.5,1.53-1-5.74-3.07-15.25-7.19-21.7-3.74-2.69.56-6.62,1.71-7.28,3.14C209.77,43.64,211.7,43.43,212,42.83Z"/><path class="cls-6" d="M209.8,79.85c-5.65,3.3-8.83,10.7-4.35,16.41,3.9,5,10.76,5.75,16.66,5.43,6.28-.34,12.77-2.36,17-7.24,3.88-4.51-.78-12.8-6.47-12.7-1.93,0-1.93,3,0,3,4.08-.07,5.62,6.11,3.44,8.64a14.65,14.65,0,0,1-5.3,3.43A30,30,0,0,1,221,98.75a20.63,20.63,0,0,1-10.33-1.89c-6.35-3.18-4.9-11.19.63-14.42A1.5,1.5,0,0,0,209.8,79.85Z"/><path class="cls-6" d="M211.15,85.35c0,3.11-.55,7.41,2.66,9.28a14.79,14.79,0,0,0,11.59.82c3.22-1.29,11.63-8.7,5.35-11.4-1.76-.75-3.29,1.83-1.52,2.59,2.39,1-4,5.8-5.42,6.19-2.47.69-6.69.64-8.76-1-1.57-1.26-.91-4.74-.9-6.46A1.5,1.5,0,0,0,211.15,85.35Z"/><path class="cls-6" d="M236.52,75.12a1.54,1.54,0,0,0-1.84.39h-.09c-1.89-.31-2.7,2.58-.8,2.89,6,1,10.35,5.31,12.63,10.75,2.21,5.26.46,10.55-2.95,14.78-4.8,6-12.78,8-20.11,7.85-6.72-.14-13.78-2.54-18.58-7.35-5.83-5.85-4-13.73.24-19.89,1.1-1.6-1.5-3.1-2.59-1.52-5,7.32-6.28,15.86-.27,23,5.61,6.65,15.52,9,23.85,8.77,9.13-.28,17.84-4.65,22.33-12.76a16.74,16.74,0,0,0,.6-14.51c5,5.38,7.88,12.2,5.62,20.14-3.6,12.67-21.18,20-33.16,18.32-12.9-1.81-30.15-12.55-31-26.72-.35-5.85,2.8-11.5,7-15.29.83-.74,9.63-8.1,10.25-7.29,1.16,1.52,3.77,0,2.59-1.51-2.67-3.51-7.87,1-10.22,2.77-4.68,3.53-9,7.33-11.12,13-6.53,17.86,10.61,30.68,25.41,36.27,15.1,5.71,34.5-1.63,42-16C264.45,95.61,249.43,81.14,236.52,75.12Z"/><path class="cls-6" d="M209.5,46.4a6,6,0,0,0,4-1.53,59.11,59.11,0,0,1,9.94-.85c4.05-.06,10.4-.24,13.39,3,1.31,1.43,3.43-.7,2.12-2.12-2.91-3.14-7.84-3.49-11.85-3.78a58,58,0,0,0-7.8,0,1.36,1.36,0,0,0-.62-.64,8.79,8.79,0,0,1-2.69-3c-.35-.54-1.86-2.71-1.49-3.4.9-1.7-1.69-3.22-2.6-1.51s.05,3.8.89,5.4a15.87,15.87,0,0,0,2.47,3.53l-1.12.18a1.55,1.55,0,0,0-1.7-.19l-2.1,1.05a1.29,1.29,0,0,0-.69.77l-.13.07C207.59,43.58,207.58,46.58,209.5,46.4Z"/><path class="cls-4" d="M215.73,37.72c-11.2,4.87-11.85,17.26-8.81,27.67,2.63,9,9.81,20.25,20.64,16.52s15.37-18.06,15-28.28C242.17,41,230.8,30.09,218.16,36.45c-1.18.6-.11,1.43.81,1,6.77-3.41,14-.69,18.38,5.12,3,4,3.49,10.14,3.27,14.93-.39,8.81-5.18,20.49-14.19,23.59-9.74,3.36-15.8-10.11-17.89-17.25-2.7-9.22-1.93-20.8,8-25.12,1.23-.53.12-1.36-.8-1Z"/><path class="cls-4" d="M218.45,59.39c-1.22,1.28-3,3-.45,3.54a14.57,14.57,0,0,1,1.58.39c.75.25,1,1,1.45,1.54s1.63.41,2.27.24a3.34,3.34,0,0,0,2-1.35c.9-1.32,1.64-.53,3-.68.52,0,1.7-.26,2-.82.53-1.08-1.06-1.68-1.77-2.22-.4-.31-2,.46-1.82.63a15,15,0,0,0,2,1.65,8.85,8.85,0,0,0-2.17-.28,3.7,3.7,0,0,0-2.93,1.75c-.45.7-.3,1-.92.27-.24-.29-.39-.66-.62-1a2.78,2.78,0,0,0-1.5-.66,9.87,9.87,0,0,1-1.87-.48c-1-.48,1.33-2.59,1.47-2.75.37-.38-1.43-.13-1.74.19Z"/><path class="cls-4" d="M228.62,54a4.78,4.78,0,0,1,5.07-.15l1.16-1c-2.47,0-4.76-.18-7,1-.56.28-.41.8.2.77,1.43-.06,2.76-.63,4.17-.69.44,0,1,.08,1.28-.3s-.23-.3-.51-.3h-3c-.28,0-1.76.14-1.29.67,1.07,1.19,2.88.76,4.3.73.68,0,2.07-1.11.77-1.09-1.08,0-2.46.53-3.27-.37-.42.29-.85.06-1.28,1.06h3c.25-1,.51-.89.77-1.24-1.43.06-2.76.54-4.17.6.07.26.14.46.21.72,1.54-.77,3.42-.48,5.08-.46.31,0,2-.57,1.16-1a7.74,7.74,0,0,0-7.8.54c-1.08.73.6.9,1.18.5Z"/><path class="cls-4" d="M218.55,53.83c-2-1.68-5.35-1.62-7.74-.82-.95.32-1.06,1.46.11,1.44,1.76,0,3.89-.86,5.39.34a3.46,3.46,0,0,0,.82-1.51h-3.41c-1.12,0-1.46,2-.15,2h4.92c1.13,0,1.46-2,.15-2h-4.92c-1.12,0-1.46,2-.15,2H217c.6,0,1.5-.84.81-1.38-1.93-1.54-4.45-.95-6.72-.9,0,.48.08.94.11,1.42,1.84-.62,4.32-.73,5.89.57.7.57,2.36-.43,1.48-1.16Z"/><path class="cls-4" d="M216.87,70.33a5.16,5.16,0,0,1,4.57-.68,5.81,5.81,0,0,0,2.27.22,6.11,6.11,0,0,0,2-.83c1.61-.9,2.87.88,4.14,1.51.47.23,2.26-.5,1.56-.84-1.49-.74-2.16-2.07-3.9-2.17a4.5,4.5,0,0,0-2.56.84c-1.8,1.15-3.28-.33-5.15-.18s-2.57.82-4.13,1.73c-1.12.65.62.71,1.15.4Z"/><path class="cls-4" d="M215.38,70.8c1.85,1.84,4.23,4.38,7.11,4.16,3.1-.24,5.13-2.22,6.87-4.66.11-.15-1.58-.1-1.9.35-1.62,2.27-3.53,4.37-6.43,2.75a18.49,18.49,0,0,1-3.82-3.24c-.35-.35-2.1.37-1.83.64Z"/><path class="cls-4" d="M218,71.46a14.82,14.82,0,0,0,11.21-.79c1.16-.63.11-1.58-.84-1.08a12,12,0,0,1-9.24.61c-.79-.22-2.29.92-1.13,1.26Z"/><path class="cls-4" d="M215.56,40.23c2.15-1.61,5.14-1.86,7.68-2.47.61-.15,1.31-1,.25-1a23.31,23.31,0,0,0-4.41.37c-.61.12-1.76,1-.51,1.07a61.6,61.6,0,0,0,7.19,0c.46,0,2.07-.73,1-1.07l-3.41-1-1,1.07a58.26,58.26,0,0,1,7,.67c.38.06,2.24-.63,1.36-1l-2.65-1c-.37-.15-2.26.28-1.66.84a11.34,11.34,0,0,0,7.33,3c.37,0,1.92-.53,1.15-1l-1.14-.7-1.54.92a9.25,9.25,0,0,1,4,3.64c.37.65,2.23,0,1.93-.51a10.1,10.1,0,0,0-4.36-4.05c-.53-.28-2.33.43-1.54.92l1.14.7,1.14-1a9.29,9.29,0,0,1-6.29-2.63l-1.67.84,2.65,1,1.36-1a63.26,63.26,0,0,0-7.4-.72c-.49,0-2.05.73-1,1.06l3.4,1c.33-.35.65-.7,1-1.06a59.48,59.48,0,0,1-7.19,0l-.51,1.07a12.28,12.28,0,0,1,3.92-.33c.08-.34.17-.68.25-1-3.15.75-6.32,1.13-9,3.11-.88.66,1.06.67,1.55.31Z"/><path class="cls-4" d="M241.83,51.87a15.56,15.56,0,0,1,.41,4.46c0,1.49.12,4.32-1.22,5.32-1.06.79.51,1.45,1.28.88,1.62-1.21,1.79-3.56,1.88-5.42a17.44,17.44,0,0,0-.42-5.76c-.27-.89-2.2-.36-1.93.52Z"/><path class="cls-4" d="M206.22,54.74a3.23,3.23,0,0,0-2-.47c-.35,0-1.27.17-1.36.62-.48,2.62-.16,7.24,2.46,8.68.48.27,2.28-.46,1.55-.86-2.27-1.25-2.5-5.87-2.08-8.09l-1.36.62,1,.22c.51.36,2.24-.41,1.8-.72Z"/><path class="cls-4" d="M207.36,52.64c3.42-5.68,10.48-7,16.64-7,6.57,0,11.94,3.58,17.65,6.32.61.29,2.37-.57,1.53-1-7.67-3.68-13.72-7-22.41-6.37-5.82.44-12.1,2.76-15.22,8-.49.82,1.46.66,1.81.08Z"/><path class="cls-4" d="M213.83,40.81c6.65-1.78,16.77-4.8,22.4,1.25.63.67,2.45-.13,1.77-.87-6.26-6.71-17.06-3.78-24.54-1.78-1.2.32-.83,1.72.37,1.4Z"/><path class="cls-4" d="M220.24,39.41a32.74,32.74,0,0,1-5-3.39c-.16-.12-2.49-1.42-2.11-1.83,1-1,1.7-2.14,3.13-2.61l-1.29.08c.21,3.22,1.77,6,2.65,9.09l1.93-.52-.38-.76c-.2-.41-2.05.23-1.93.52l3.41,7.95c.19.44,1.6-.17,1.83-.35l1.74-.69c.13,0,1.55-.32,1.39-.61a9,9,0,0,0-3-3c-.47-.35-3.09-1.77-3.27-2.26l-1.39.61.54,0c.46,0,2.12-.81.85-.71l-.54,0c-.17,0-1.51.28-1.39.62s1.6,1,2,1.32c1.5,1.34,3.26,2.09,4.26,3.93l1.39-.61a7.65,7.65,0,0,0-4.32,1.58l1.83-.35q-1.69-4-3.41-8l-1.93.52.38.76c.19.38,2-.17,1.93-.52-.88-3.06-2.44-5.87-2.65-9.09,0-.3-1.17.05-1.29.08-2.1.68-3.23,2.1-4.71,3.68,0,.06-.17.16,0,.23,2.72,1.34,4.85,3.57,7.57,4.92.49.24,2-.56,1.83-.64Z"/><path class="cls-4" d="M211.37,46.9c2.15-.88,4.23-1.9,6.43-2.65.2-.07.83-.43.53-.72s-.93-.11-1.27,0c-2.2.76-4.28,1.78-6.43,2.65-1.26.51-.1,1.05.74.71Z"/><path class="cls-4" d="M211.18,45.16c1.56-.8,3-1.85,4.54-2.65.15-.08.67-.4.23-.51a2.28,2.28,0,0,0-1.35.25c-1.56.8-3,1.85-4.54,2.65-.15.08-.67.4-.24.51a2.31,2.31,0,0,0,1.36-.25Z"/><path class="cls-4" d="M213.26,43.66a8.23,8.23,0,0,0,3.41-.54c.2-.09.84-.43.52-.73s-.95-.14-1.27,0a4.46,4.46,0,0,1-1.89.23,1.68,1.68,0,0,0-1.28.51c-.27.37.23.53.51.53Z"/><path class="cls-4" d="M224.15,41.55c3.7-.3,8.1.51,10.56,3.52.54.65,2.38-.1,1.78-.84-2.84-3.46-7.9-4.38-12.15-4-1.07.08-1.51,1.46-.19,1.36Z"/><path class="cls-4" d="M223.13,43c3.8,0,9,.82,11.2,4.32.39.63,2.26,0,1.78-.8-2.38-3.8-8.14-4.7-12.26-4.76-.82,0-2,1.22-.72,1.24Z"/><path class="cls-4" d="M227,44.36c3.29.38,6.62.44,9.67,1.85.49.23,2.27-.52,1.56-.85-3.16-1.46-6.61-1.53-10-1.93-.51-.06-2.26.81-1.22.93Z"/><path class="cls-4" d="M204.79,60.12c-1,1.48-1.07,4-1.31,5.77a12.65,12.65,0,0,0,.52,5.36c1.19,3.86,4.62,3.29,7,.86.82-.83-1.07-.93-1.58-.41-2.85,2.88-3.79-1.27-4-3.62a9.71,9.71,0,0,1,.24-3.48c.36-1.41.1-3.14,1-4.37.55-.79-1.41-.69-1.82-.11Z"/><path class="cls-4" d="M241.07,60.05c-.15,2.49.72,4.84.9,7.3A4.72,4.72,0,0,1,240.79,71c-.76.84-1.4,1.63-1.95.26-.18-.44-2.07.18-1.93.51,1,2.42,4,.57,5.28-.59,3.41-3.07.59-7.83.81-11.66,0-.24-1.9,0-1.93.52Z"/><path class="cls-4" d="M214.56,79.55c0,1.54.29,3.08.22,4.62-.07,1.73-1.24,2.87-2.06,4.27-.55,1,1.42,1,1.85.24.84-1.43,1.75-2.45,2.11-4.11s-.13-3.52-.16-5.16c0-1-2-.75-2,.14Z"/><path class="cls-4" d="M230.48,79.63c-1.78,2.71-2.28,12,2.94,10.41,1.12-.34.94-1-.18-.69-2.83.87-1.7-8.74-.85-10,.19-.28-1.59-.18-1.91.31Z"/><path class="cls-4" d="M216.13,83c-3.81.88-7,4.38-4.88,8.24,1.84,3.3,9.14,2.58,12.09,2.36,3.32-.24,10.14-.59,12.4-3.48,2.39-3.07-2.28-6-4.31-7.79-.61-.54-2.32.36-1.5,1.08,1.58,1.4,3.63,2.78,4.52,4.76,1.17,2.59-6.81,3.57-8.1,3.76a37,37,0,0,1-8.28.35,10.41,10.41,0,0,1-4.17-1.17c-3.67-2-.17-6.22,2.56-6.85,1.21-.28.86-1.53-.33-1.26Z"/><path class="cls-4" d="M203.37,73.6c-12.84,5.84-21.75,18.82-20.23,33.18,1.77,16.72,19.75,25.27,34.52,27.06,15.34,1.87,32.45-3.62,41.27-16.86,10.46-15.7-2.75-35.17-15-45.26-.67-.55-2.35.41-1.48,1.13C254,82.33,265.52,99,258.48,114.28c-6.74,14.65-25.5,19.51-40.15,18.14-14.46-1.35-30-9.77-33.08-25-2.76-13.76,6.92-27.19,19-32.67,1.2-.55.13-1.61-.87-1.16Z"/><path class="cls-4" d="M212,83.53c-.89.39-1.52.39-1.55,1.5,0,.31,1.19,0,1.29-.06.71-.27,1.88-.72,1.63-1.69s-1.61-1.19-2.39-1.2c-2.48-.06-3.9,1.76-3.94,4.09,0,.27,1.93,0,1.93-.52A3.65,3.65,0,0,1,210,82.77c-.19.13.39.18.44.2a2,2,0,0,1,.64.39c.4.31.54,1,0,1.22l1.29-.06a1.51,1.51,0,0,1,.06-.52c-.49.13-.6.17-.31.09a5.58,5.58,0,0,0,1-.34c.14-.06.68-.39.25-.47a2.42,2.42,0,0,0-1.35.25Z"/><path class="cls-4" d="M208.74,86.19c-1.31,0-2.9.69-2.85,2.21s1.85,1.9,3.06,1.75c.34,0,1-.22,1.11-.6s-.63-.33-.8-.31a1.34,1.34,0,0,1-1.37-1,1.3,1.3,0,0,1,0-.85,1.11,1.11,0,0,1,.21-.32c-.05.06-.48.08-.16.08a1.89,1.89,0,0,0,1.29-.5c.28-.35-.25-.47-.5-.46Z"/><path class="cls-4" d="M209.49,88.43a3.59,3.59,0,0,0-2.6,1,2.11,2.11,0,0,0-.27,2c.2.62,2.12.08,1.94-.52a2,2,0,0,1-.09-1.1.93.93,0,0,1,.2-.41s-.06,0,.05,0a1.73,1.73,0,0,0,1.28-.51c.27-.36-.23-.52-.51-.51Z"/><path class="cls-4" d="M207.76,93c.1,2.07,2.34,2.15,3.93,1.8.26-.06,1-.31,1-.65v-.38c0-.33-.63-.47-.95-.47h-.38c-.42,0-1.26.16-1.33.69-.36,2.49,2.32,2.73,4.14,2.33,1.19-.26.88-1.35-.29-1.09s-2.1-.28-1.91-1.54c-.45.23-.89.61-1.34.61H211a.31.31,0,0,1-.32-.31v.37c0-.21.41-.43.69-.64-1,.22-1.57-.23-1.62-1.23,0-.71-2-.29-2,.51Z"/><path class="cls-4" d="M211.92,95.63c2,2.69,9.55,4.52,11.77,1.1l-1.87.49c1.71,1.69,3.69.16,4.52-1.66.08-.19-.22-.28-.34-.28h-.76c-.34,0-1.61.17-1.58.7.23,4.2,7,2.93,7.23-.72,0-.12-.29,0-.35,0h-1.13c-.25,0-1.74,0-1.59.51,1.1,3.56,8.39,1.1,7.23-2.11-.58.22-1.17.39-1.75.61,3.13,1.27,5.8-1.85,6.28-4.74,0-.19-.16-.27-.33-.27h-.38c-.19,0-2,.36-1.53.75l.67.6c.33.29,1.16,0,1.47-.19,4.71-2.17-.51-7.82-3.13-9-.4-.18-1.66,0-1.66.6v.37c0-.19,1-.39,1.66-.59a8,8,0,0,0-3.64-1.57c-.47-.08-2.2.68-1.63.78a5.44,5.44,0,0,1,3,1.46c.37.26,1.6,0,1.6-.59v-.38c0,.2-1,.4-1.62.59,1.68.78,8.1,6.24,4.16,8.06l1.54-.18c-.23-.2-.42-.4-.64-.6l-1.52.75c-.24,0-.42,4.31-2.74,3.36-.28-.11-1.92.17-1.75.65q.9,2.91-3.37,1l-1.58.68c-1.37,0-2.39,3.08-2.58-.3l-1.59.68c.83-.07.71.06-.36.38-.38-.37-1.62.13-1.86.5-1.32,2-7-.64-7.93-1.94-.36-.49-2.1.28-1.93.52Z"/><path class="cls-4" d="M207.6,82.16c-5.62,2.44-7,7.76-4.6,13.25,2.91,6.68,11.72,8.7,18.27,8.51A24.6,24.6,0,0,0,239.7,94c4.39-6,1.58-12.15-4.84-14.62-.53-.2-2.3.6-1.55.89,4.95,1.9,7.64,5.48,6.09,10.8-2.18,7.56-11.73,11.65-18.82,11.85-5.3.16-11.4-2.12-14.67-6.38s-3.12-11.31,2.43-13.72c1.24-.54.09-1-.74-.69Z"/><path class="cls-4" d="M210.6,80.76c-8.76-1-13.71,9.93-11.12,17.21,3.07,8.58,15,13,23.18,13.35A25,25,0,0,0,244.09,101c6.42-8.86,1.66-19.36-8.67-21.75-.69-.16-2.29.89-1.16,1.15,8.71,2,13.41,10.08,9.32,18.33-3.46,6.95-10.62,10.7-18.12,11.32-6.81.56-13.69-2.09-18.87-6.4-2.87-2.38-5.1-5.06-5.9-8.78-1.09-5.08,3.12-13.63,9.19-12.93.82.1,2-1.06.72-1.21Z"/><path class="cls-4" d="M210.41,79.86C201.7,81,194.56,86.8,194.34,96.05c-.3,12.31,14.45,18.52,24.55,19.9,11.21,1.53,21.29-4.54,27.75-13.36,7.83-10.68.69-24.42-11.93-26.17-.43-.06-2.23.68-1.25.82,10.46,1.45,17.45,12,13.4,22-2,4.85-6.16,8.78-10.3,11.81-6.19,4.53-13.53,5-20.78,3.32-8.22-1.9-17-7.11-19.16-15.73-2.29-9,4.84-16.88,13.44-18,.81-.1,1.71-.93.35-.75Z"/><path class="cls-4" d="M209.78,77.67c-5.56,1.67-10.87,3.72-15,7.91-4.79,4.84-5.46,12.07-3.88,18.35,3.63,14.52,18.7,21.78,32.62,21s25.41-10.12,30.58-22.69c6-14.64-5.5-26.83-20.11-26.58-.4,0-2.2.8-1.26.78,12.56-.21,22.91,8.77,20.74,21.81-2.32,13.93-15.58,24.6-29.11,25.91a30.29,30.29,0,0,1-30.07-16.85,21.36,21.36,0,0,1-1.27-16c2.39-7.6,9.94-11,16.95-13.09,1.11-.34,1-.93-.16-.59Z"/><path class="cls-4" d="M210.38,76.85C202,71.16,190.7,88.17,188.26,94.32c-7.41,18.63,13.07,34.21,29.29,36.41,13.81,1.88,28.36-4.14,35.89-16,4.43-7,5.94-15.76,3.21-23.61-2.94-8.44-11.24-13.74-19.52-15.87-.53-.14-2.26.68-1.55.86,15.12,3.9,23.79,17,19,32.26-4.26,13.62-17.67,21.47-31.43,21.67-14.53.2-29.33-9-33.51-23.25-1.87-6.39-.15-12.89,3.48-18.23,2.51-3.67,10.24-14.53,15.44-11,.52.35,2.25-.42,1.8-.72Z"/><path class="cls-4" d="M183.74,112.45c0,8.89.4,17.76-.15,26.64-.24,3.78-.24,7.47-1.25,11.13-.79,2.87-1.73,5.51-1.59,8.54.31,6.52,2.23,12.8,3.63,19.14,1.37,6.19,1.93,12.62,5.57,18,.35.53,2.23-.1,1.79-.74-3.81-5.63-4.3-12.69-5.73-19.16-1.49-6.73-3.76-13.49-3.19-20.47.23-2.81,1.54-5.57,2.13-8.32.81-3.72.62-8.08.72-11.89.2-7.8,0-15.57,0-23.37,0-.59-1.93-.22-1.93.51Z"/><path class="cls-4" d="M196,126.3c-.18,7.06-2,14-1.76,21a37,37,0,0,0,1.55,8.45,27.52,27.52,0,0,1,.43,11.74c-.78,5.52-1,11-1.56,16.57-.29,3.06-1.08,7.26.56,10.09.44.77,2.28,0,1.76-.86-1.88-3.26-.39-9.07-.05-12.62.53-5.64,1-11.21,1.73-16.84.78-6.2-2.31-12.23-2.52-18.42-.21-6.45,1.66-12.85,1.82-19.3,0-1-1.94-.76-2,.14Z"/><path class="cls-4" d="M195.58,194.9c.07,3.32,2.08,5.8,4,8.35,2.92,3.94,3.32,7.52,3.29,12.35,0,2.77-.31,5.54-.55,8.31s-2.16-1.41-2.25-1.9c-.51-2.55,0-5.31.11-7.89,0-.43-1.92-.13-1.94.52-.1,4.38-1.74,12.53,5,11.08.2,0,.83-.25.85-.53.45-5.54,1.07-11.07.32-16.61s-6.77-8.5-6.89-14.19c0-.46-1.94-.13-1.93.51Z"/><path class="cls-4" d="M189.44,195.78c1.47,8.35.17,16.72,1.8,25.05,1.16,5.94,4.1,12.67,10.85,13.34.32,0,1.76-.14,1.56-.75-.62-1.94-1.34-3.42-.88-5.58.15-.68-1.79-.35-1.92.26-.47,2.17.19,3.73.87,5.83l1.57-.75c-7.29-.73-9.5-9-10.52-15.06-1.28-7.61-.05-15.21-1.4-22.86-.1-.61-2.05-.15-1.93.52Z"/><path class="cls-4" d="M255.67,120.67c-3.46,11,1.32,21,2.82,31.81a64.66,64.66,0,0,1-1.07,21.26c-1.19,6.09-2.87,11.82-2.63,18.09,0,.49,2,.13,1.93-.52-.25-6.79,1.68-13,3-19.62a66.62,66.62,0,0,0,.92-17.94c-.87-11.51-6.71-21.63-3-33.37.17-.54-1.74-.28-1.92.29Z"/><path class="cls-4" d="M243,130.44c.25,6.35,2.09,12.3,1.64,18.71-.38,5.36-.61,9.86.35,15.17,1,5.63,1.68,11.32,2.39,17,.65,5.19,2.5,10.15,3.07,15.37.47,4.31-6.2,27.83,2.34,27.46.33,0,1.34-.17,1.35-.67a11.39,11.39,0,0,1,1.25-6c.44-.8-1.49-.59-1.8,0a12.22,12.22,0,0,0-1.39,6.28l1.35-.67c-4.6.2-2.8-12.09-2.52-14.51.71-6.07,1.8-11.19.58-17.39-1.91-9.7-3.27-19.42-5-29.16-1-5.68,0-11.17.16-16.87.14-5.08-1.62-10.1-1.82-15.19,0-.62-2-.23-1.93.52Z"/><path class="cls-4" d="M255.22,189.94c-.16,7.5,3.88,14.88,5,22.28a31,31,0,0,1-.35,11.16,21.36,21.36,0,0,1-1.64,4.75c-.77,1.61-2.86,3.13-2,.16.2-.7-1.74-.42-1.93.24a5.52,5.52,0,0,0-.44,2.63.38.38,0,0,0,.37.41c5.19.82,6.94-5.43,7.77-9.39,1-4.63.41-9.52-.49-14.09C260.34,202,257,196,257.16,189.7c0-.81-1.92-.41-1.94.24Z"/><path class="cls-4" d="M254.35,214.2c.08,5.28,1.17,10.64-.87,15.7-.18.45,1.62-.05,1.83-.25,2.28-2.19,2.25-6.9,2.29-9.83l-1.6.65c.22,0-.07,4.45-.07,5.13,0,.31,1.76,0,1.76-.52v-5.26c0-.12.06-.54,0-.54h-.44c-.34,0-1.59.35-1.6.85,0,2.82.09,7.47-2.1,9.57.61-.08,1.22-.11,1.83-.2,2.06-5.11,1-10.5.89-15.84,0-.32-1.94,0-1.93.54Z"/><path class="cls-4" d="M204,162.17c3.18,4.5,10.08,4.57,15,5.09,7.66.8,15.82.78,22.69-3,.84-.46.59-1-.33-1h-1.32c-1.09,0-1.49,1-.18,1h1.32c-.11,0-.22-.87-.33-1.28-6.64,3.62-13.84,3.33-21.17,2.91-4.5-.26-11.12-.6-13.92-4.57-.5-.7-2.34,0-1.78.83Z"/><path class="cls-4" d="M203.91,163.33a32.43,32.43,0,0,1,1.76,6.14c0,.11.27.1.33.1,10.53,0,21.05-.41,31.57-.44.37,0,2.19-.72,1.28-.72-6.15,0-12.3.15-18.45.27-3.13.07-6.27.12-9.4.15-4.1,0-3.88-3-5.15-6-.18-.41-2.06.23-1.94.52Z"/><path class="cls-4" d="M205,164.12c-1.93-3.4.15-8.3-3.14-11.06-.41-.35-1.88,0-1.86.62.15,4.49,2,8.67,2.19,13.15,0,.52,2,.16,1.93-.51-.15-4.49-2-8.67-2.19-13.16l-1.87.62c3.18,2.67,1.13,7.55,3,10.86.33.59,2.18-.08,1.93-.52Z"/><path class="cls-4" d="M242.25,165.44v-1.32c0-.58-1.94-.22-1.94.52V166c0,.58,1.94.22,1.94-.52Z"/><path class="cls-4" d="M202.58,164c-1.13,9.52-5.63,19.75-1.74,29.15.38.92,2.31.38,1.94-.52-3.83-9.24.65-19.38,1.77-28.75.12-1-1.86-.82-2,.12Z"/><path class="cls-4" d="M199.09,194.33c-.53,1.25,0,2.87.44,4.08.21.66,2.14.12,1.93-.52-.37-1.13-.93-2.64-.44-3.81.18-.41-.65-.42-.83-.4a1.35,1.35,0,0,0-1.1.65Z"/><path class="cls-4" d="M197.77,235.11c-.55,12.86-.72,25.63.58,38.45.71,6.92,2.11,13.76,3.48,20.57,1.29,6.42,2.17,12.79,4.28,19,.08.23.38.13.59.13h.43c.42,0,1.23,0,1.35-.51.59-2.49,3.21,2.5,3.92,2.5s2.87,1.19,3.66,1.57c1.84.89,3.79,1.36,5.59,2.36.55.3,2.33-.48,1.54-.92-2.63-1.47-5.61-2.67-8.33-3.94-1.58-.74-2.4-2.37-3.91-3.24-2.28-1.31-3.82-.38-4.4,2.07l1.34-.66c-1.07,0-3-13.24-3.36-15.07-1.24-6.89-2.78-13.71-3.78-20.65-2-13.88-1.65-28-1-41.92,0-.79-1.91-.39-1.94.24Z"/><path class="cls-4" d="M208.72,170.59c-.08,9.09-1.25,18.13-1.07,27.22.17,8.8,4.26,16.69,4.58,25.41.34,9.06-3.58,18.19-4.17,27.26-.54,8.53.74,17.18,2.27,25.55,1.61,8.87,5,17.05,7.15,25.75,1.66,6.59,2.08,14,6.88,19.31,3.87,4.25,10.49-.91,15-.1,3.81.68,9,3.48,12.63.85,1.06-.77-.5-1.48-1.29-.91-3,2.19-10.14-1.63-13.83-1.68-3.94-.06-7.5,4.56-11.57.09-2.31-2.54-3.39-6.62-4.21-9.86-1.84-7.35-3.63-14.45-6-21.68a126,126,0,0,1-4.56-23.11,87.13,87.13,0,0,1,.83-25c1.21-7.42,3.48-14.19,2.25-21.78a85.56,85.56,0,0,0-2.61-9.82A49.27,49.27,0,0,1,209.57,194c0-7.86,1-15.69,1.11-23.55,0-1-2-.75-2,.14Z"/><path class="cls-4" d="M241.68,169.56c-.56,1.07,0,2.36.42,3.37a37.78,37.78,0,0,1,1.72,4c.24.84,2.17.32,1.93-.52a24.67,24.67,0,0,0-1.44-3.35c-.38-.83-1.28-2.4-.8-3.32s-1.46-.88-1.83-.17Z"/><path class="cls-4" d="M255.66,234.81c-.09,3,1.44,5.89,1.89,8.88.48,3.29.67,6.73.83,10.05.35,7.44.06,14.87.79,22.29.32,3.24,1.76,6.53,2.39,9.74.71,3.56.4,7.25.27,10.84-.3,8.27-2.06,16.25-2.65,24.48l1.74-.57-1.32-.43a1.83,1.83,0,0,0-1.67.44l-.11.12a.27.27,0,0,0-.08.23l.08.21.86-.65c.08,0-3-3.32-2.84-2.82-.16-.57-2.09,0-1.93.52.51,1.76,3.07,3.62,5,3.09.19-.06,1-.32.86-.66-1.28.37-1.42.64-.39.8.36.12,1.7,0,1.74-.57,1-14.37,4.73-27.67.83-42-2.07-7.62-1.38-15.91-1.56-23.74-.07-3.42-.43-6.82-.71-10.22-.3-3.58-2.17-7-2.06-10.56,0-.44-1.92-.14-1.94.52Z"/><path class="cls-4" d="M228.29,322.71c-1.56,5.06-.82,10.42-.6,15.61.25,5.94,6.64,11.85,2.54,17.52-1.63,2.26-3.92,4.16-5.62,6.43-2.29,3.06-4.25,6.36-6.41,9.51a62.32,62.32,0,0,1-4.07,5.49,37.18,37.18,0,0,1-3.21,3.19c-1.78,1.6-8.83,3.75-5-1.47.47-.64-1.45-.42-1.78,0-2.88,3.88,1.57,5.89,4.94,4,6-3.34,9.91-9.77,13.58-15.35a82.49,82.49,0,0,1,8.55-11.05,7.46,7.46,0,0,0,2-7.64c-1-3.84-3.59-7.12-3.66-11.19-.09-5.16-1-10.34.59-15.38.18-.57-1.74-.3-1.92.28Z"/><path class="cls-4" d="M216.19,318.23c.84,6.08,2.71,12,3.48,18.07,1.18,9.28-4,15.67-9.86,22.23-2.94,3.32-8.43,6.92-8.42,11.84a36.72,36.72,0,0,1-.06,6.63,3.27,3.27,0,0,0,1.84,3.71c.71.43,2.41-.54,1.49-1.1-2.65-1.63-.69-4-.93-6.05-.4-3.32-.55-5.25,1.64-8,4.45-5.57,9.67-10.29,13.75-16.22,6.31-9.2.35-21.87-1-31.63-.12-.88-2.05-.4-1.93.52Z"/><path class="cls-4" d="M236.41,320.82A6.9,6.9,0,0,0,236,325c.31,3.43,1.12,6.36.95,9.9-.26,5.58-2.3,12.15,1.57,16.9,1.51,1.86,4.12,3.13,6,4.56a31.84,31.84,0,0,1,5.61,6.47c2.9,3.94,5.8,8.62,10.64,10.32.6.21,2.35-.66,1.54-.94-8.1-2.85-11.36-13.41-18.24-18.27-2.49-1.76-4.39-3-5.48-6-1.23-3.33-.14-8,.19-11.5a47,47,0,0,0,.11-7.22c-.16-2.64-2-5.74-.64-8.35.45-.82-1.49-.61-1.8-.05Z"/><path class="cls-4" d="M245,321.68c0,5.6-.64,13.13,2.79,17.95a38.64,38.64,0,0,0,11.42,11c1.95,1.15,4.85,2.6,5.07,5.15a39.75,39.75,0,0,1-.49,7.05c-.15,1.57-1.3,6.66.28,7.87.53.4,2.29-.37,1.8-.74-1.77-1.35,0-8.46.14-10.42.29-3.15.68-5.2-1.73-7.47-1.91-1.8-4.63-2.9-6.75-4.39-2.35-1.65-3.84-4.29-5.82-6.29-5.27-5.3-4.76-13.32-4.77-20.27,0-.55-1.94-.19-1.94.52Z"/><path class="cls-4" d="M203.71,367.35c4.28,1.22,9.4,2.84,10.18,7.88l1.87-.62c-2.35-3.6-4.2-7.47-7.49-10.36l-1.68.79c3.95,1.82,6.7,5,9.09,8.57.32.47,2.19-.15,1.81-.72-2.46-3.63-5.3-6.85-9.34-8.71-.37-.17-2.19.34-1.68.79,3.28,2.88,5.14,6.76,7.48,10.36.29.44,2-.05,1.87-.61-.8-5.21-6.13-7-10.55-8.24-.53-.15-2.27.66-1.56.87Z"/><path class="cls-4" d="M253.47,362.64c3.12-2.35,4.56-8.17,9.06-8.39-.09-.34-.18-.68-.28-1a18.45,18.45,0,0,0-8,7.31c-.53.84,1.2.57,1.52.38a15.38,15.38,0,0,0,3-2.93c.37-.39.08-.7-.42-.7h-1.73c-.78,0-2,1-.73,1h1.73c-.14,0-.28-.52-.42-.78a14.12,14.12,0,0,1-2.71,2.75l1.52.37a16.28,16.28,0,0,1,7-6.51c.87-.37.6-1.07-.27-1-2.42.11-4.35,1.54-6,3.23s-2.7,4.27-4.55,5.66c-1.05.78.58,1.14,1.22.66Z"/><path class="cls-4" d="M249.18,349.77a69.93,69.93,0,0,1,4-9.22c.57-1-1.29-.91-1.74-.43-3.7,3.95-5.21,9.52-5.92,14.77-.14,1,1.63.74,1.91.06,1.24-3,2.76-6.07,2.93-9.41.05-1-1.58-.7-1.91-.06-1.42,2.76-3,5.41-4.61,8.06-.57.95,1.4,1,1.86.26,1.59-2.66,3.19-5.31,4.6-8.06l-1.91-.07c-.16,3.21-1.63,6.1-2.82,9l1.91.07c.67-5,2.07-10.26,5.59-14l-1.74-.44a68,68,0,0,0-4,9.21c-.42,1.06,1.52,1.1,1.85.26Z"/><path class="cls-4" d="M235.38,342c3.28,1.8,7.12,1.78,10.76,1.79.21,0,1.79-.41,1.29-.86a11,11,0,0,0-7.42-2.43c-.29,0-1.94.54-1.17.93l3.45,1.72c.51.26,2.29-.5,1.56-.87l-3.46-1.72-1.16.92a9.57,9.57,0,0,1,6.4,2.17l1.29-.85c-3.41,0-6.92,0-10-1.67-.49-.27-2.28.47-1.56.87Z"/><path class="cls-4" d="M220.87,344.25c1.32,1.79,3.65,1.88,5.7,1.88.66,0,2.08-1,.76-1-2.36-.1-5.16-1.88-7,.52-.51.65,1.42.47,1.79,0s1.74,0,2.35.14a9.72,9.72,0,0,0,2.13.38l.76-1c-1.74,0-3.54,0-4.66-1.58-.37-.5-2.24.15-1.8.74Z"/><path class="cls-4" d="M217.48,359.62A4,4,0,0,1,217,357c0-.85-1.94-.46-1.94.22,0,1-.1,2.32.65,3.16.48.53,2.32-.18,1.79-.77Z"/><path class="cls-4" d="M215.62,353.35c1.19,3.9,3.34,7.33,5.18,10.94.33.66,2.06.25,1.93-.52a30,30,0,0,0-4.68-11.64c-.33-.51-2.07,0-1.86.65,1.24,3.88,4.15,6.63,6.41,9.91.39.57,2.26-.08,1.79-.77-2.2-3.2-5.06-5.87-6.27-9.66l-1.86.64a29.31,29.31,0,0,1,4.54,11.39l1.93-.52c-1.84-3.6-4-7-5.18-10.93-.22-.72-2.15-.19-1.93.51Z"/><path class="cls-4" d="M230.9,358.54c-3.9,1.22-6,4.84-8.16,8.09-4.17,6.3-7.05,13.8-12.21,19.35l1.82-.23c5.2-8,10.93-15.62,16.13-23.61.24-.38-1.21-.09-1.29-.06-7,2.58-13,10.25-15.59,17.09-.2.53,1.64-.08,1.83-.23a52.74,52.74,0,0,1,6.2-4.51l-1.7.14c-3,5.73-8.81,6.72-14.35,8.82-.53.19-.93.67-.08.62,6.94-.42,12.07-4.33,16.26-9.68.39-.5-1.46-.23-1.75.14a32.18,32.18,0,0,1-6.27,6.23c-6.34,4.68-8.07,3.25-3.75,1.82,1.23-.4,2.45-.82,3.66-1.28a14.47,14.47,0,0,0,8.19-7c.24-.45-1.55,0-1.69.13a56.56,56.56,0,0,0-6.47,4.71l1.83-.23c2.33-6.25,7.89-13.94,14.35-16.31l-1.29-.06c-5.2,8-10.92,15.62-16.12,23.61-.2.31,1.55.06,1.83-.23,3.54-3.82,5.77-8.42,8.19-13,2-3.83,6.29-12.36,10.59-13.7,1.11-.35,1-1-.16-.62Z"/><path class="cls-4" d="M235.83,355.16c9.54,5,16.43,13.48,23.61,21.31.29.31,2.05-.17,1.87-.6-3.15-7.72-10.51-14.86-17.91-18.51-.35-.17-2.21.16-1.81.68,3.38,4.46,8.58,7,12.23,11.23,2.62,3,5.21,6.73,9.57,6.7,7.15,0,6.05-11.62,4.26-15.65-.22-.48-2,0-1.93.52.52,4.73.88,8.85-2.8,12.46-.52.51,1.25.22,1.45.11a14.25,14.25,0,0,0,1.91-1.26c.81-.59-1.13-.38-1.5-.11l-1.54,1,1.44.11c3.81-3.73,3.52-7.87,3-12.88l-1.93.52c2,4.53,2.09,18.76-5.92,12.28-2.48-2-4.23-4.81-6.54-7-3.23-3-7.14-5.19-9.86-8.77l-1.81.68c7.33,3.61,14.68,10.73,17.79,18.35l1.87-.6c-7.18-7.83-14.07-16.26-23.61-21.31-.51-.27-2.11.52-1.81.68Z"/></svg>