<svg id="icons" xmlns="http://www.w3.org/2000/svg" viewBox="0 0 824.8 1129.01"><defs><style>.cls-1{fill:#f2af44;}.cls-2{fill:#f2972b;}.cls-3{fill:#9b572a;}.cls-4{fill:#004242;}</style></defs><path class="cls-1" d="M626.75,487s-3.17-89.58-37.47-284.13a5,5,0,0,0-9.85,0c-27.79,157.6-35.14,240.67-36.93,272.43a5,5,0,0,0,3.1,4.9l74.26,30.25a5,5,0,0,0,6.89-4.63Z"/><path class="cls-1" d="M698.5,350.55c-14.27,80.92-23.14,127.32-28.65,176.28a5,5,0,0,0,3.09,5.19l59.75,24.33a5,5,0,0,0,6.86-5.13c-5.17-49.86-14.48-105.86-31.2-200.67A5,5,0,0,0,698.5,350.55Z"/><path class="cls-1" d="M505.88,455.8c-3.63-23.47-8.59-46.3-15.35-65.4a5,5,0,0,0-9.43,0c-6.76,19.1-11.71,41.93-15.35,65.4a5,5,0,0,0,6.84,5.39l11.34-4.62a4.93,4.93,0,0,1,3.77,0l11.35,4.62A5,5,0,0,0,505.88,455.8Z"/><path class="cls-1" d="M263.28,350.55c-16.71,94.81-26,150.81-31.19,200.67a5,5,0,0,0,6.86,5.13L298.7,532a5,5,0,0,0,3.08-5.19c-5.5-49-14.38-95.36-28.65-176.28A5,5,0,0,0,263.28,350.55Z"/><path class="cls-1" d="M392.21,202.82a5,5,0,0,0-9.86,0C348.05,397.38,344.89,487,344.89,487v18.81a5,5,0,0,0,6.88,4.63L426,480.15a5,5,0,0,0,3.11-4.9C427.35,443.49,420,360.42,392.21,202.82Z"/><path class="cls-2" d="M310,803.29a4.8,4.8,0,0,0-7.14,0,174.3,174.3,0,0,0-14.18,18c-16.76,24.47-25.26,50-25.26,75.94v52.43a4.82,4.82,0,0,0,4.82,4.82h0a4.81,4.81,0,0,0,4.81-4.82V934.13a71.07,71.07,0,0,1,9.32-34.82,4.81,4.81,0,0,1,8.38,0,71,71,0,0,1,9.32,34.82v15.54a4.82,4.82,0,0,0,4.82,4.82H308a4.82,4.82,0,0,0,4.81-4.82V934.13a71,71,0,0,1,9.32-34.82,4.81,4.81,0,0,1,8.38,0,71.07,71.07,0,0,1,9.32,34.82v15.54a4.81,4.81,0,0,0,4.81,4.82h0a4.82,4.82,0,0,0,4.82-4.82V897.24c0-25.92-8.5-51.47-25.25-75.94A174.26,174.26,0,0,0,310,803.29Z"/><path class="cls-2" d="M524.83,714.16a314,314,0,0,0-35.6-43,4.82,4.82,0,0,0-6.83,0,314.76,314.76,0,0,0-35.59,43,279.22,279.22,0,0,0-32.09,61.19,225.78,225.78,0,0,0-14.41,78.46v95.86a4.82,4.82,0,0,0,4.82,4.82h14a4.82,4.82,0,0,0,4.82-4.82V923.28c0-28.68,14.29-50.06,21.27-58.8a4.81,4.81,0,0,1,7.5,0c7,8.74,21.27,30.12,21.27,58.8v26.39a4.82,4.82,0,0,0,4.82,4.82h13.93a4.82,4.82,0,0,0,4.82-4.82V923.28c0-28.68,14.29-50.06,21.27-58.8a4.81,4.81,0,0,1,7.5,0c7,8.74,21.28,30.12,21.28,58.8v26.39a4.81,4.81,0,0,0,4.81,4.82h14a4.81,4.81,0,0,0,4.81-4.82V853.81a225.78,225.78,0,0,0-14.41-78.46A279.61,279.61,0,0,0,524.83,714.16Z"/><path class="cls-1" d="M483.93,602.07l-255,103.87a5,5,0,0,0-3.11,4.63V949.49a5,5,0,0,0,5,5h14.61a5,5,0,0,0,5-5V897.24c0-59.15,40.47-101.38,52.61-112.72a5,5,0,0,1,6.8,0c12.14,11.34,52.61,53.57,52.61,112.72v52.25a5,5,0,0,0,5,5h14.86a5,5,0,0,0,5-5V853.81c0-108.87,77.95-185.15,95.17-200.68a5,5,0,0,1,6.68,0c17.22,15.53,95.16,91.81,95.16,200.68v95.68a5,5,0,0,0,5,5h14.86a5,5,0,0,0,5-5V897.24c0-59.15,40.47-101.38,52.61-112.72a5,5,0,0,1,6.81,0c12.14,11.34,52.6,53.57,52.6,112.72v52.25a5,5,0,0,0,5,5h14.62a5,5,0,0,0,5-5V710.57a5,5,0,0,0-3.12-4.63l-255-103.87A5,5,0,0,0,483.93,602.07Z"/><path class="cls-2" d="M668.76,803.29a4.8,4.8,0,0,0-7.14,0,174.3,174.3,0,0,0-14.18,18c-16.76,24.47-25.26,50-25.26,75.94v52.43a4.82,4.82,0,0,0,4.82,4.82h0a4.82,4.82,0,0,0,4.82-4.82V934.13a71,71,0,0,1,9.32-34.82,4.8,4.8,0,0,1,8.37,0,71,71,0,0,1,9.32,34.82v15.54a4.82,4.82,0,0,0,4.82,4.82h3.09a4.81,4.81,0,0,0,4.81-4.82V934.13a71.07,71.07,0,0,1,9.32-34.82,4.81,4.81,0,0,1,8.38,0,71,71,0,0,1,9.32,34.82v15.54a4.82,4.82,0,0,0,4.82,4.82h0a4.81,4.81,0,0,0,4.81-4.82V897.24c0-25.92-8.5-51.47-25.25-75.94A172.91,172.91,0,0,0,668.76,803.29Z"/><path class="cls-3" d="M247.45,306.26h7.78a5,5,0,0,1,5,5V328a5,5,0,0,0,5.23,5.08c.36,0,.73,0,1.11,0s.84,0,1.26.05a5,5,0,0,0,5.4-5V311.26a5,5,0,0,1,5-5H286a5,5,0,0,0,5-5v-3a5,5,0,0,0-5-5h-7.79a5,5,0,0,1-5-5v-8.34a5,5,0,0,0-5-5h-3a5,5,0,0,0-5,5v8.34a5,5,0,0,1-5,5h-7.78a5,5,0,0,0-5,5v3A5,5,0,0,0,247.45,306.26Z"/><path class="cls-3" d="M685.62,306.26h7.78a5,5,0,0,1,5,5V328a5,5,0,0,0,5.23,5.08c.37,0,.73,0,1.11,0s.84,0,1.26.05a5,5,0,0,0,5.4-5V311.26a5,5,0,0,1,5-5h7.79a5,5,0,0,0,5-5v-3a5,5,0,0,0-5-5H716.4a5,5,0,0,1-5-5v-8.34a5,5,0,0,0-5-5h-3a5,5,0,0,0-5,5v8.34a5,5,0,0,1-5,5h-7.78a5,5,0,0,0-5,5v3A5,5,0,0,0,685.62,306.26Z"/><path class="cls-3" d="M367.82,158.36h7.79a5,5,0,0,1,5,5v16.75a5,5,0,0,0,5.22,5.08c.37,0,.74,0,1.11,0s.85,0,1.26,0a5,5,0,0,0,5.41-5V163.36a5,5,0,0,1,5-5h7.78a5,5,0,0,0,5-5v-3a5,5,0,0,0-5-5h-7.78a5,5,0,0,1-5-5V132a5,5,0,0,0-5-5h-3a5,5,0,0,0-5,5v8.34a5,5,0,0,1-5,5h-7.79a5,5,0,0,0-5,5v3A5,5,0,0,0,367.82,158.36Z"/><path class="cls-3" d="M565.24,158.36H573a5,5,0,0,1,5,5v16.75a5,5,0,0,0,5.22,5.08c.37,0,.74,0,1.11,0s.84,0,1.26,0a5,5,0,0,0,5.41-5V163.36a5,5,0,0,1,5-5h7.78a5,5,0,0,0,5-5v-3a5,5,0,0,0-5-5H596a5,5,0,0,1-5-5V132a5,5,0,0,0-5-5h-3a5,5,0,0,0-5,5v8.34a5,5,0,0,1-5,5h-7.79a5,5,0,0,0-5,5v3A5,5,0,0,0,565.24,158.36Z"/><circle class="cls-3" cx="485.82" cy="354.7" r="20"/><path class="cls-4" d="M743.72,598.75q-.71-9.59-1.74-21.64l-3.1-4.19L668,544.05v.1l-41.25-16.81v-.1L542,492.7v.11l-32.87-13.39v-.11L487.7,470.6a5,5,0,0,0-3.77,0l-21.38,8.71v.11l-32.87,13.39v-.11l-84.78,34.54v.1l-41.26,16.81v-.1l-70.87,28.87-3.1,4.19q-1,12-1.74,21.64c-1.74,23.62-2.09,36-2.09,36v51a5,5,0,0,0,6.88,4.63l74.79-30.46a5,5,0,0,0,3.11-4.63V634.7s-.63-22.14-4.4-64a5,5,0,0,1,3.09-5.08L338,553.91a5,5,0,0,1,6.89,4.63v78.7a5,5,0,0,0,6.88,4.63l74.79-30.46a5,5,0,0,0,3.11-4.64V519.93a5,5,0,0,1,3.12-4.63l19.63-8a5,5,0,0,1,6.87,5c-2.79,34.72-3.35,65-3.44,79.68a5,5,0,0,0,6.89,4.65L483.93,588a4.93,4.93,0,0,1,3.77,0l21.19,8.63a5,5,0,0,0,6.89-4.65c-.09-14.64-.65-45-3.43-79.68a5,5,0,0,1,6.87-5l19.63,8a5,5,0,0,1,3.11,4.63v86.84a5,5,0,0,0,3.11,4.64l74.79,30.46a5,5,0,0,0,6.89-4.63v-78.7a5,5,0,0,1,6.88-4.63l28.71,11.69a5,5,0,0,1,3.1,5.08c-3.77,41.88-4.41,64-4.41,64v20.58a5,5,0,0,0,3.12,4.63l74.78,30.46a5,5,0,0,0,6.89-4.63v-51S745.46,622.37,743.72,598.75ZM252.57,647.39h-3a5,5,0,0,1-5-5V594.06a5,5,0,0,1,5-5h3a5,5,0,0,1,5,5v48.33A5,5,0,0,1,252.57,647.39Zm31.33,0h-3a5,5,0,0,1-5-5V594.06a5,5,0,0,1,5-5h3a5,5,0,0,1,5,5v48.33A5,5,0,0,1,283.9,647.39Zm89-47h-3a5,5,0,0,1-5-5V547.06a5,5,0,0,1,5-5h3a5,5,0,0,1,5,5v48.33A5,5,0,0,1,372.94,600.39Zm31.33,0h-3a5,5,0,0,1-5-5V547.06a5,5,0,0,1,5-5h3a5,5,0,0,1,5,5v48.33A5,5,0,0,1,404.27,600.39Zm166.09,0h-3a5,5,0,0,1-5-5V547.06a5,5,0,0,1,5-5h3a5,5,0,0,1,5,5v48.33A5,5,0,0,1,570.36,600.39Zm31.33,0h-3a5,5,0,0,1-5-5V547.06a5,5,0,0,1,5-5h3a5,5,0,0,1,5,5v48.33A5,5,0,0,1,601.69,600.39Zm89,47h-3a5,5,0,0,1-5-5V594.06a5,5,0,0,1,5-5h3a5,5,0,0,1,5,5v48.33A5,5,0,0,1,690.74,647.39Zm31.33,0h-3a5,5,0,0,1-5-5V594.06a5,5,0,0,1,5-5h3a5,5,0,0,1,5,5v48.33A5,5,0,0,1,722.07,647.39Z"/></svg>