<svg id="icons" xmlns="http://www.w3.org/2000/svg" viewBox="0 0 2319.89 1142.53"><defs><style>.cls-1{fill:#004242;}.cls-2{fill:#0087d0;}.cls-3{fill:#9b572a;}.cls-4{fill:#c03828;}.cls-5{fill:#f2af44;}</style></defs><path class="cls-1" d="M1256,434.66c14.42,0,26.6-20,26.6-43.77s-12.18-43.76-26.6-43.76-26.61,20-26.61,43.76S1241.61,434.66,1256,434.66Z"/><path class="cls-2" d="M1216,845.21a782.83,782.83,0,0,0-179.86,27.61c-25.46,7.09-45.43,14.13-59.06,19.42a5,5,0,0,0-3.16,5.2l.34,3.12a5,5,0,0,0,6.79,4.11c13.43-5.23,33.48-12.36,58.93-19.43a769.61,769.61,0,0,1,203.31-27.53h1.21a5,5,0,0,0,5-5v-2.5a5,5,0,0,0-5-5Z"/><path class="cls-2" d="M1444.89,885.22a594.13,594.13,0,0,1,57.31,19.25,5,5,0,0,0,6.81-4.11l.34-3.11a5,5,0,0,0-3.14-5.2,604.8,604.8,0,0,0-57.4-19.23,761.72,761.72,0,0,0-178.25-27.61h-3a5,5,0,0,0-5,5v2.9a5,5,0,0,0,4.85,5A748.48,748.48,0,0,1,1444.89,885.22Z"/><path class="cls-1" d="M2059,657.81c-93.58-49.76-217.91-128.7-300-230.53a5,5,0,0,0-8.87,3.15v18.82a5,5,0,0,0,1.18,3.24c32.78,38.66,73.3,76.53,121,113,51.11,39.1,110.55,76.74,176.68,111.89,91.64,48.7,171.26,79.2,198.11,89a5,5,0,0,0,6.7-4.7V748.92a5,5,0,0,0-3.26-4.69C2220.93,733.29,2145.41,703.77,2059,657.81Z"/><path class="cls-2" d="M1775.76,510.38V781.62a5,5,0,0,0,5,5h3a5,5,0,0,0,5-5V513.3a5,5,0,0,0-1.53-3.59l-3-2.88A5,5,0,0,0,1775.76,510.38Z"/><path class="cls-2" d="M1864.39,575.85l-.92-.7a5,5,0,0,0-8,4V781.62a5,5,0,0,0,5,5h3a5,5,0,0,0,5-5V581.39a5,5,0,0,0-2-4Z"/><path class="cls-2" d="M1935.1,634.79V781.62a5,5,0,0,0,5,5h3a5,5,0,0,0,5-5V636.71a5,5,0,0,0-2.32-4.22l-3-1.9A5,5,0,0,0,1935.1,634.79Z"/><path class="cls-2" d="M2014.77,682.06v99.56a5,5,0,0,0,5,5h3a5,5,0,0,0,5-5V683.7a5,5,0,0,0-2.6-4.38l-3-1.65A5,5,0,0,0,2014.77,682.06Z"/><path class="cls-2" d="M2094.44,723.08v58.54a5,5,0,0,0,5,5h3a5,5,0,0,0,5-5v-57.1a5,5,0,0,0-2.84-4.51l-3-1.43A5,5,0,0,0,2094.44,723.08Z"/><path class="cls-2" d="M2174.11,758.93v22.69a5,5,0,0,0,5,5h3a5,5,0,0,0,5-5V760.19a5,5,0,0,0-3.07-4.62l-3-1.25A5,5,0,0,0,2174.11,758.93Z"/><path class="cls-2" d="M699.51,786.62h3a5,5,0,0,0,5-5V510.38a5,5,0,0,0-8.52-3.55l-3,2.88a5,5,0,0,0-1.52,3.59V781.62A5,5,0,0,0,699.51,786.62Z"/><path class="cls-2" d="M619.84,786.62h3a5,5,0,0,0,5-5V579.11a5,5,0,0,0-8.05-4l-.91.7-2,1.55a5,5,0,0,0-2,4V781.62A5,5,0,0,0,619.84,786.62Z"/><path class="cls-2" d="M548.16,781.62V634.79a5,5,0,0,0-7.7-4.2l-3,1.9a5,5,0,0,0-2.32,4.22V781.62a5,5,0,0,0,5,5h3A5,5,0,0,0,548.16,781.62Z"/><path class="cls-2" d="M468.49,781.62V682.06a5,5,0,0,0-7.4-4.39l-3,1.65a5,5,0,0,0-2.6,4.38v97.92a5,5,0,0,0,5,5h3A5,5,0,0,0,468.49,781.62Z"/><path class="cls-2" d="M388.82,781.62V723.08a5,5,0,0,0-7.17-4.5l-3,1.43a5,5,0,0,0-2.84,4.51v57.1a5,5,0,0,0,5,5h3A5,5,0,0,0,388.82,781.62Z"/><path class="cls-2" d="M309.15,781.62V758.93a5,5,0,0,0-6.93-4.61l-3,1.25a5,5,0,0,0-3.08,4.62v21.43a5,5,0,0,0,5,5h3A5,5,0,0,0,309.15,781.62Z"/><path class="cls-1" d="M611,565.52c47.71-36.5,88.22-74.37,121-113a5,5,0,0,0,1.19-3.24V430.43a5,5,0,0,0-8.88-3.15c-82.09,101.83-206.42,180.77-300,230.53-86.44,46-162,75.48-191.55,86.42a5,5,0,0,0-3.26,4.69V761.7a5,5,0,0,0,6.7,4.7c26.85-9.79,106.47-40.29,198.11-89C500.42,642.26,559.87,604.62,611,565.52Z"/><path class="cls-1" d="M1534.27,405.86H1298.35a5,5,0,0,0-4.88,3.9c-5.31,22.28-19.86,37.9-37.43,37.9s-32.13-15.62-37.44-37.9a5,5,0,0,0-4.88-3.9H949a5,5,0,0,0-5,5v51.55a5,5,0,0,0,5,5h585.28a5,5,0,0,0,5-5V410.86A5,5,0,0,0,1534.27,405.86Z"/><path class="cls-3" d="M902.87,231.23l-14.44,64a3.9,3.9,0,0,1-3.81,3h-.06a3.91,3.91,0,0,1-3.79-2.94l-35.6-140.49A3.91,3.91,0,0,1,849,150h0a3.91,3.91,0,0,0,3.91-3.91V137a3.91,3.91,0,0,0-3.91-3.91H828.2a3.91,3.91,0,0,0-3.91,3.91v9.15A3.91,3.91,0,0,0,828.2,150h0a3.91,3.91,0,0,1,3.79,4.87l-35.6,140.49a3.91,3.91,0,0,1-3.79,2.94h-.06a3.9,3.9,0,0,1-3.81-3l-14.44-64a3.91,3.91,0,0,0-7.6-.1l-19.27,75.32a3.9,3.9,0,0,0,3.78,4.87H926a3.9,3.9,0,0,0,3.78-4.87l-19.28-75.32A3.9,3.9,0,0,0,902.87,231.23Z"/><path class="cls-3" d="M1709,231.23l-14.43,64a3.92,3.92,0,0,1-3.82,3h0a3.91,3.91,0,0,1-3.79-2.94l-35.6-140.49a3.91,3.91,0,0,1,3.78-4.87h0a3.91,3.91,0,0,0,3.91-3.91V137a3.91,3.91,0,0,0-3.91-3.91h-20.75a3.91,3.91,0,0,0-3.91,3.91v9.15a3.91,3.91,0,0,0,3.91,3.91h0a3.91,3.91,0,0,1,3.78,4.87l-35.6,140.49a3.91,3.91,0,0,1-3.79,2.94h-.06a3.9,3.9,0,0,1-3.81-3l-14.43-64a3.91,3.91,0,0,0-7.6-.1l-19.28,75.32a3.9,3.9,0,0,0,3.79,4.87h174.75a3.91,3.91,0,0,0,3.79-4.87l-19.28-75.32A3.91,3.91,0,0,0,1709,231.23Z"/><path class="cls-4" d="M819.3,91.84h7.78a5,5,0,0,1,5,5v16.75a5,5,0,0,0,5.23,5.07c.36,0,.73,0,1.1,0s.85,0,1.26,0a5,5,0,0,0,5.41-5V96.84a5,5,0,0,1,5-5h7.78a5,5,0,0,0,5-5v-3a5,5,0,0,0-5-5h-7.78a5,5,0,0,1-5-5V65.5a5,5,0,0,0-5-5h-3a5,5,0,0,0-5,5v8.34a5,5,0,0,1-5,5H819.3a5,5,0,0,0-5,5v3A5,5,0,0,0,819.3,91.84Z"/><path class="cls-4" d="M1625.4,91.84h7.78a5,5,0,0,1,5,5v16.75a5,5,0,0,0,5.23,5.07q.55,0,1.11,0c.42,0,.84,0,1.26,0a5,5,0,0,0,5.4-5V96.84a5,5,0,0,1,5-5H1664a5,5,0,0,0,5-5v-3a5,5,0,0,0-5-5h-7.79a5,5,0,0,1-5-5V65.5a5,5,0,0,0-5-5h-3a5,5,0,0,0-5,5v8.34a5,5,0,0,1-5,5h-7.78a5,5,0,0,0-5,5v3A5,5,0,0,0,1625.4,91.84Z"/><path class="cls-3" d="M1244.54,799.62H919a5,5,0,0,1-5-5V541.35a5,5,0,0,1,1.21-3.25L923.91,528a5,5,0,0,0-3.8-8.26H757.05a5,5,0,0,0-3.8,8.26l8.66,10.09a5,5,0,0,1,1.2,3.25V794.62a5,5,0,0,1-5,5H234.48a5,5,0,0,0-5,5v22.59a5,5,0,0,0,5,5h483.4a5,5,0,0,1,5,5.54L715.15,908a5,5,0,0,0,5,5.55H957a5,5,0,0,0,5-5.55l-7.7-70.21a5,5,0,0,1,5-5.54h285.26a5,5,0,0,0,5-5V804.62A5,5,0,0,0,1244.54,799.62Zm-416.6-52.14a5,5,0,0,1-5,5h-23a5,5,0,0,1-5-5V694.4a5,5,0,0,1,1.13-3.17l11.5-14a5,5,0,0,1,7.74,0l11.5,14a5,5,0,0,1,1.13,3.17Zm0-110a5,5,0,0,1-5,5h-23a5,5,0,0,1-5-5V584.4a5,5,0,0,1,1.13-3.17l11.5-14a5,5,0,0,1,7.74,0l11.5,14a5,5,0,0,1,1.13,3.17Zm54.28,110a5,5,0,0,1-5,5h-23a5,5,0,0,1-5-5V694.4a5,5,0,0,1,1.13-3.17l11.5-14a5,5,0,0,1,7.74,0l11.5,14a5,5,0,0,1,1.13,3.17Zm0-110a5,5,0,0,1-5,5h-23a5,5,0,0,1-5-5V584.4a5,5,0,0,1,1.13-3.17l11.5-14a5,5,0,0,1,7.74,0l11.5,14a5,5,0,0,1,1.13,3.17Z"/><path class="cls-5" d="M746.17,329.32V501.75a5,5,0,0,0,5,5H926a5,5,0,0,0,5-5V329.32a5,5,0,0,0-5-5H751.17A5,5,0,0,0,746.17,329.32Zm54.63,110.1a5,5,0,0,1-5,5h-23a5,5,0,0,1-5-5V386.34a5,5,0,0,1,1.13-3.17l11.5-14a5,5,0,0,1,7.73,0l11.5,14a5,5,0,0,1,1.14,3.17Zm54.28,0a5,5,0,0,1-5,5h-23a5,5,0,0,1-5-5V386.34a5,5,0,0,1,1.13-3.17l11.5-14a5,5,0,0,1,7.74,0l11.5,14a5,5,0,0,1,1.13,3.17Zm54.28,0a5,5,0,0,1-5,5h-23a5,5,0,0,1-5-5V386.34a5,5,0,0,1,1.14-3.17l11.5-14a5,5,0,0,1,7.73,0l11.5,14a5,5,0,0,1,1.13,3.17Z"/><path class="cls-3" d="M2248.78,799.62H1725.15a5,5,0,0,1-5-5V541.35a5,5,0,0,1,1.21-3.25L1730,528a5,5,0,0,0-3.79-8.26H1563.15a5,5,0,0,0-3.79,8.26L1568,538.1a5,5,0,0,1,1.21,3.25V794.62a5,5,0,0,1-5,5H1267.54a5,5,0,0,0-5,5v22.59a5,5,0,0,0,5,5H1524a5,5,0,0,1,5,5.54L1521.25,908a5,5,0,0,0,5,5.55h236.93a5,5,0,0,0,5-5.55l-7.71-70.21a5,5,0,0,1,5-5.54h483.4a5,5,0,0,0,5-5V804.62A5,5,0,0,0,2248.78,799.62ZM1634,747.48a5,5,0,0,1-5,5h-23a5,5,0,0,1-5-5V694.4a5,5,0,0,1,1.13-3.17l11.51-14a5,5,0,0,1,7.73,0l11.5,14a5,5,0,0,1,1.13,3.17Zm0-110a5,5,0,0,1-5,5h-23a5,5,0,0,1-5-5V584.4a5,5,0,0,1,1.13-3.17l11.51-14a5,5,0,0,1,7.73,0l11.5,14a5,5,0,0,1,1.13,3.17Zm54.29,110a5,5,0,0,1-5,5h-23a5,5,0,0,1-5-5V694.4a5,5,0,0,1,1.13-3.17l11.5-14a5,5,0,0,1,7.73,0l11.5,14a5,5,0,0,1,1.14,3.17Zm0-110a5,5,0,0,1-5,5h-23a5,5,0,0,1-5-5V584.4a5,5,0,0,1,1.13-3.17l11.5-14a5,5,0,0,1,7.73,0l11.5,14a5,5,0,0,1,1.14,3.17Z"/><path class="cls-5" d="M1552.27,329.32V501.75a5,5,0,0,0,5,5H1732.1a5,5,0,0,0,5-5V329.32a5,5,0,0,0-5-5H1557.27A5,5,0,0,0,1552.27,329.32Zm54.63,110.1a5,5,0,0,1-5,5h-23a5,5,0,0,1-5-5V386.34a5,5,0,0,1,1.13-3.17l11.5-14a5,5,0,0,1,7.74,0l11.5,14a5,5,0,0,1,1.13,3.17Zm54.28,0a5,5,0,0,1-5,5h-23a5,5,0,0,1-5-5V386.34a5,5,0,0,1,1.14-3.17l11.5-14a5,5,0,0,1,7.73,0l11.5,14a5,5,0,0,1,1.13,3.17Zm54.29,0a5,5,0,0,1-5,5h-23a5,5,0,0,1-5-5V386.34a5,5,0,0,1,1.13-3.17l11.5-14a5,5,0,0,1,7.74,0l11.5,14a5,5,0,0,1,1.13,3.17Z"/></svg>