<svg id="icons" xmlns="http://www.w3.org/2000/svg" viewBox="0 0 838.59 1032.04"><defs><style>.cls-1{fill:#aaa;}.cls-2{fill:#85b99b;}</style></defs><path class="cls-1" d="M188,237.42c-6.06,0-8.6,1.57-9.62,3.12a4.56,4.56,0,0,1-4.62,2.06,35.91,35.91,0,0,0-13.93-.26,4.34,4.34,0,0,0-3.45,4.91c4.36,27.7,50.68,19.18,57.2,17.84a4.66,4.66,0,0,1,1.58,0h0a4.79,4.79,0,0,0,4.54-7.5l-10.42-14.87a4.78,4.78,0,0,0-2.66-1.87C199.76,238.94,192.69,237.42,188,237.42Z"/><path class="cls-1" d="M327.65,738.63l-25.12,112.8a5,5,0,0,0,4.88,6.09H605.33a5,5,0,0,0,4.88-6.09l-25.13-112.8a5,5,0,0,0-4.88-3.91H332.53A5,5,0,0,0,327.65,738.63Z"/><ellipse class="cls-1" cx="456.37" cy="163.88" rx="16.13" ry="26.7"/><path class="cls-2" d="M434.68,192.72a5,5,0,0,0-.81-2.67c-4.44-7-6.63-16.14-6.63-26.17,0-21.92,13-39.7,29.13-39.7S485.5,142,485.5,163.88c0,10-2.19,19.19-6.64,26.17a5.06,5.06,0,0,0-.8,2.67v12.56a5,5,0,0,0,4.73,5c4.16.22,10.34.56,15.53.93a5,5,0,0,0,5.35-5.17c-3.63-89.47-47.3-81.85-47.3-81.85s-43.66-7.62-47.31,81.81a5,5,0,0,0,5.41,5.16q7.5-.61,15.4-.91a5,5,0,0,0,4.81-5Z"/><path class="cls-2" d="M579.18,240.51a5.14,5.14,0,0,1-2-.29l-.29-.1C576.4,240,528.72,223,471.56,223H441.18C383.9,223,336.34,240,335.87,240.12l-.3.1a5.09,5.09,0,0,1-2,.29l-104.62-6.65a5,5,0,0,0-4.42,7.86l39.4,56.21a5,5,0,0,0,4.26,2.13c82.07-2.33,102.42,16.91,104.51,19.17l.59.63a5,5,0,0,1,1.12,4.85l-.25.82a398.36,398.36,0,0,0-14.93,72.69,5,5,0,0,0,1.47,4.06l17.25,17a5,5,0,0,1,1.09,5.54l-.41.94c-7.07,16.4-11.32,37.52-13.07,47.56a5,5,0,0,0,1.42,4.42l13.84,13.64a5,5,0,0,1,1.28,5l-.26.86c-6.88,22.89-11.39,147.3-13.06,219.37a5,5,0,0,0,5,5.11h164a5,5,0,0,0,5-5.65C537.17,673.68,523,602.8,522.83,602l-.16-.79a5,5,0,0,1,1.39-4.55L545,576a5,5,0,0,0,1.39-4.56c-7.55-36.8-13.63-58.07-13.7-58.29l-.24-.86a5,5,0,0,1,1.29-4.94l14.43-14.22a5,5,0,0,0,1.49-3.79C546.6,423.11,528.22,325.86,528,324.86l-.18-.95a5,5,0,0,1,2.06-5l.79-.56c1.24-.86,30.66-20.59,113.86-18.25a5,5,0,0,0,4.25-2.13l39.4-56.21a5,5,0,0,0-4.41-7.86ZM297.82,286.16C284,278.89,273.94,268,269.09,262a5,5,0,0,1,1.12-7.27l1-.69,1.48-1a5,5,0,0,1,6.69,1c4.15,5.1,12.75,14.44,24.26,20.53a5,5,0,0,1,2.25,6.38l-1.19,2.77A5,5,0,0,1,297.82,286.16Zm68.84,5.39c-23.13-6.54-42.38-22.18-50.31-29.35a5,5,0,0,1-.16-7.28l.94-.92,1.22-1.2a5,5,0,0,1,6.83-.16c7.14,6.39,24.67,20.62,44.93,26.38a5,5,0,0,1,3.47,5.84L373,287.8A5,5,0,0,1,366.66,291.55Zm35.66-39.87c9,18.29,47,89.86,107.39,127.69a5,5,0,0,1,1.65,6.77l-1.53,2.59a5,5,0,0,1-7,1.69c-37.36-23.41-66-58.62-83.72-84.5a398.75,398.75,0,0,1-28.55-48.59,5,5,0,0,1,2.45-6.77l2.76-1.23A5,5,0,0,1,402.32,251.68Zm-9.17,72h3a5,5,0,0,1,5,5V400.5a5,5,0,0,1-5,5h-3a5,5,0,0,1-5-5V328.65A5,5,0,0,1,393.15,323.65ZM416.62,693.5h-3a5,5,0,0,1-5-5V583.05a5,5,0,0,1,7.27-4.45l3,1.52a5,5,0,0,1,2.73,4.46V688.5A5,5,0,0,1,416.62,693.5Zm41.25,0h-3a5,5,0,0,1-5-5V604a5,5,0,0,1,7.26-4.46l3,1.53a5,5,0,0,1,2.74,4.46V688.5A5,5,0,0,1,457.87,693.5Zm41.24,0h-3a5,5,0,0,1-5-5V625a5,5,0,0,1,7.27-4.46l3,1.53a5,5,0,0,1,2.73,4.45v62A5,5,0,0,1,499.11,693.5Zm14.69-116-114-58a5,5,0,0,1-2.19-6.73l1.36-2.67a5,5,0,0,1,6.72-2.19l114,58a5,5,0,0,1,2.19,6.72l-1.36,2.67A5,5,0,0,1,513.8,577.52Zm26-289.72-.63-2.94a5,5,0,0,1,3.47-5.84c20.32-5.77,37.81-20,44.93-26.37a5,5,0,0,1,6.84.15l2.15,2.12a5,5,0,0,1-.15,7.28c-7.94,7.17-27.19,22.81-50.31,29.35A5,5,0,0,1,539.78,287.8ZM608,283.69l-1.19-2.77a5,5,0,0,1,2.24-6.38c11.52-6.1,20.11-15.43,24.27-20.54a5,5,0,0,1,6.68-1l2.51,1.68a5,5,0,0,1,1.11,7.28c-4.84,6-14.87,16.93-28.73,24.2A5,5,0,0,1,608,283.69Z"/><path class="cls-1" d="M752.86,242.34a35.9,35.9,0,0,0-13.93.26,4.54,4.54,0,0,1-4.61-2.06c-1-1.55-3.56-3.12-9.62-3.12-4.66,0-11.73,1.52-18.63,3.38a4.79,4.79,0,0,0-2.65,1.87L693,257.54a4.79,4.79,0,0,0,4.55,7.5h0a4.61,4.61,0,0,1,1.57,0c6.52,1.34,52.85,9.86,57.21-17.84A4.36,4.36,0,0,0,752.86,242.34Z"/></svg>