<svg id="icons" xmlns="http://www.w3.org/2000/svg" viewBox="0 0 1088.76 882.56"><defs><style>.cls-1{fill:#f2af44;}.cls-2{fill:#9b572a;}.cls-3{fill:#85b99b;}.cls-4{fill:#f2972b;}</style></defs><rect class="cls-1" x="242.36" y="443.21" width="713" height="43" rx="5"/><rect class="cls-2" x="223.36" y="399.21" width="750" height="22" rx="5"/><path class="cls-3" d="M694.36,317.21H653.47a3.2,3.2,0,0,0-1.55-3.31c-3.21-2-2.39-5-.44-7.29s-1.13-9.73,2.4-9.86,5.42-.45,7.57,1.76,4,3.31,2.39,6.33-2.52,3.77-2.52,5.73,3.47,2.13,4.86-.71,3.53-8.33,1.57-11.48-3.78-3.6-4.22-5.68,2-3.59,2-5.61-2.2-2.34-2-6.06,5.37.13,5.62-4,.88-10.85-1.39-12.87a7,7,0,0,0-4.6-2.08c-1.08-.19-5.05.63-6,4s-3,9.34-6.24,12.68-7.69,2.08-11,2.71-3.65,5.87-3,10.35,4.73,5.42,2.9,10.47-1.64,8.33.13,11.61c.62,1.16,2.39,2.31,4.41,3.31H630.88c0-6,.28-13.53.33-18,.06-5.42,1.07-17.25-2.84-17.31s-5.86-5.63-4.16-8.91,3.85-13.26-2.9-13.76-3.6-8.49-4.23-14.29-6.74-6.14-6.74-3.49-2,8-5.68,4.6,3.47-6.76,1-8.65c-1.25-1-3.45-.61-5.35-.33a1.33,1.33,0,0,1-1.52-1.32v-7.08a8.95,8.95,0,0,0,0-16.84v-3.61c3.94-1.22,11.93-4.47,14.23-11.18,2.72-7.95-10.16,1.72-14.22,5.26v-3.43H592.8v3.25c-4.29-3.68-16.67-12.88-14-5.07,2.26,6.57,10,9.83,14,11.11v3.67a8.94,8.94,0,0,0,0,16.84l0,9.93a1.88,1.88,0,0,1-1.47,1.84l-1.12.25c-3.28.76-4.22.94-5.42,7.38s.63,9.14,1.89,16.33-2.33,10.22-6,10.91-1.39-4.79-1.2-8.83-3.47-6.75-6.12-4-2.4,6.12-2.65,11.54-4.35,8.2-5.61,13.75,1.13,14,3,19.75a26.78,26.78,0,0,1,1,9.68H552.63c2-1,3.79-2.15,4.41-3.31,1.77-3.28,2-6.28.13-11.33s2.21-6.13,2.9-10.61.38-9.78-3-10.42-7.76.6-11-2.74-5.3-9.29-6.24-12.7-4.92-4.23-6-4a7,7,0,0,0-4.6,2.07c-2.27,2-1.64,8.7-1.39,12.87s5.43.31,5.62,4-2,4-2,6.06,2.39,3.53,1.95,5.61-2.27,2.52-4.22,5.68.19,8.64,1.57,11.47,4.86,2.65,4.86.7-.88-2.71-2.52-5.74.25-4.16,2.39-6.37,4-2,7.57-1.83.44,7.44,2.4,9.71,2.77,5.56-.44,7.58a3.2,3.2,0,0,0-1.55,3.31H504.36a10,10,0,0,0-10,10v45a5,5,0,0,0,5,5h200a5,5,0,0,0,5-5v-45A10,10,0,0,0,694.36,317.21Zm-106,0c.06-3-1.12-7.32-1.19-9.75-.13-4.54,3-3.75,12.44-3.63s10.39-.64,11.78,9.14c.2,1.45.79,2.24,1.63,4.24Z"/><path class="cls-1" d="M779.61,756.21h-1a3,3,0,0,0-3,3v14a5,5,0,0,0,5,5h45a5,5,0,0,0,5-5v-14a3,3,0,0,0-3-3h-2a3,3,0,0,1-3-3v-240a5,5,0,0,0-5-5h-30a5,5,0,0,0-5,5v240A3,3,0,0,1,779.61,756.21Z"/><path class="cls-1" d="M658.36,756.21h-1a3,3,0,0,0-3,3v14a5,5,0,0,0,5,5h45a5,5,0,0,0,5-5v-14a3,3,0,0,0-3-3h-1a3,3,0,0,1-3-3v-240a5,5,0,0,0-5-5h-31a5,5,0,0,0-5,5v240A3,3,0,0,1,658.36,756.21Z"/><path class="cls-1" d="M495.36,756.21h-1a3,3,0,0,0-3,3v14a5,5,0,0,0,5,5h46a5,5,0,0,0,5-5v-14a3,3,0,0,0-3-3h-2a3,3,0,0,1-3-3v-240a5,5,0,0,0-5-5h-31a5,5,0,0,0-5,5v240A3,3,0,0,1,495.36,756.21Z"/><path class="cls-1" d="M250.36,756.21h-1a3,3,0,0,0-3,3v14a5,5,0,0,0,5,5h45a5,5,0,0,0,5-5v-14a3,3,0,0,0-3-3h-1a3,3,0,0,1-3-3v-240a5,5,0,0,0-5-5h-31a5,5,0,0,0-5,5v240A3,3,0,0,1,250.36,756.21Z"/><path class="cls-1" d="M373.11,756.21h-1a3,3,0,0,0-3,3v14a5,5,0,0,0,5,5h45a5,5,0,0,0,5-5v-14a3,3,0,0,0-3-3h-2a3,3,0,0,1-3-3v-240a5,5,0,0,0-5-5h-30a5,5,0,0,0-5,5v240A3,3,0,0,1,373.11,756.21Z"/><path class="cls-1" d="M903.36,513.21v240a3,3,0,0,1-3,3h-1a3,3,0,0,0-3,3v14a5,5,0,0,0,5,5h46a5,5,0,0,0,5-5v-14a3,3,0,0,0-3-3h-2a3,3,0,0,1-3-3v-240a5,5,0,0,0-5-5h-31A5,5,0,0,0,903.36,513.21Z"/><rect class="cls-4" x="250.36" y="335.21" width="222" height="42" rx="5"/><rect class="cls-4" x="726.36" y="335.21" width="223" height="42" rx="5"/></svg>