<svg id="icons" xmlns="http://www.w3.org/2000/svg" viewBox="0 0 629 1225.98"><defs><style>.cls-1{fill:#85b99b;}.cls-2{fill:#004242;}.cls-3{fill:#c03828;}</style></defs><path class="cls-1" d="M221.87,895.79h159a5,5,0,0,0,5-5.09c-.65-30.43-6.68-83.44-10.17-112.07a5,5,0,0,0-7-4L224.17,839.24a5,5,0,0,0-2.94,4.12c-1.86,21.12-3.52,38.53-4.34,46.95A5,5,0,0,0,221.87,895.79Z"/><rect class="cls-2" x="350.38" y="563.25" width="80.66" height="26.03" rx="5" transform="translate(-303.71 626.5) rotate(-60)"/><path class="cls-1" d="M386.57,635.46l-40.73-23.52a5,5,0,0,1-1.83-6.83l32.58-56.42a5,5,0,0,0-.89-6.13c-7.61-6.93-11.85-23.38-15.86-41.44-4.52-20.34-21.28-24.95-24.51-25.66a5.07,5.07,0,0,0-1-.11c-3,0-5.77,0-8.42-.1a5,5,0,0,0-3.07,1c-22.21,16.25-86.77,71-92,75.48a5.43,5.43,0,0,0-.63.64c-29.33,35.47-17.53,53.45-6.53,61.11a5,5,0,0,0,6.58-.86c19.73-22.72,49.59-56.39,69.38-75.43a5,5,0,0,1,7.13.22l2,2.2a5,5,0,0,1-.2,7c-25.54,24.58-69.51,75.56-83.87,92.35a5,5,0,0,0-1.05,2c-3.24,12.88-2.77,26.72-1.13,38.42a5,5,0,0,0,9.3,1.81c8.81-15.45,20.44-33.47,33.18-46.83a5,5,0,0,1,7.24,0l2.08,2.17a5,5,0,0,1,.05,6.87c-20.09,21.11-38,56-44.53,69.61a4.86,4.86,0,0,0-.5,2.16c0,24.13-2.87,65.21-5.89,102.11a5,5,0,0,0,7,5L304,789.35a5,5,0,0,0,3-4.41l6.64-207.72a5,5,0,0,1,5.16-4.84l3,.09a5,5,0,0,1,4.84,5.16L320.3,774.2a5,5,0,0,0,7,4.72l46-20.54a5,5,0,0,0,1.5-1l9.45-9.45a5,5,0,0,0,1.44-4c-1-9.78-5-48.5-9.44-88.52a5,5,0,0,1,6.2-5.4c24.82,6.48,18.88-40.09,18.88-40.09"/><ellipse class="cls-2" cx="301.15" cy="416.97" rx="16.13" ry="26.7"/><path class="cls-2" d="M301.15,377.27S281,373.77,267,399.53a4.91,4.91,0,0,0-.5,3.54,85.56,85.56,0,0,1,2.06,19.07,1.82,1.82,0,0,0,.68,1.42l0,0a1.84,1.84,0,0,0,3-1.58c-.13-1.65-.2-3.33-.2-5,0-21.92,13-39.7,29.12-39.7s29.13,17.78,29.13,39.7c0,10-2.19,19.19-6.63,26.18a5,5,0,0,0-.81,2.66v12.56a5,5,0,0,0,4.74,5c4.16.22,10.33.56,15.53.93a5,5,0,0,0,5.35-5.17C344.83,369.65,301.15,377.27,301.15,377.27Z"/><path class="cls-3" d="M225.18,215c-5.73-16.22-16.7-24.33-16.7-36.73,0,12.4-11,20.51-16.7,36.73-3.81,10.81-.64,18.87,1.91,23a5,5,0,0,0,4.24,2.35H219a5,5,0,0,0,4.25-2.35C225.82,233.85,229,225.79,225.18,215Z"/><path class="cls-1" d="M274.68,451.74C268.89,439.06,260.56,433,257,430.83a3.32,3.32,0,0,1-1.59-2.95c1.1-31.44-8.85-35.95-14-36.21a3.31,3.31,0,0,1-3.08-3.19A372.1,372.1,0,0,0,224.53,305a3.33,3.33,0,0,1,0-2c6.33-19.57-1.31-31-3.92-34.15a3.28,3.28,0,0,1-.75-2.27l.44-9.67a3.34,3.34,0,0,0-3.33-3.49H200a3.33,3.33,0,0,0-3.33,3.49l3.18,69.92a3.33,3.33,0,0,0,3.33,3.18h0a3.33,3.33,0,0,1,3.33,3.38c-.19,20.1,4.59,62.25,5.47,69.86a3.35,3.35,0,0,1-.52,2.2c-22,33.83-6.63,58-1,65a3.36,3.36,0,0,0,4.2.87A130.85,130.85,0,0,0,238,454.94a3.32,3.32,0,0,1,4.65.29l4.24,4.71a3.35,3.35,0,0,1-.31,4.76c-13.65,11.79-25.24,18.08-32.31,21.23a3.31,3.31,0,0,0-2,3.19c1,20.89,5.47,36.52,9.82,47.12a3.33,3.33,0,0,0,5.24,1.25c21-18,49.72-42.19,71.48-59.35a3.33,3.33,0,0,0-1.27-5.85C283.57,468.76,279.4,462.09,274.68,451.74Zm-54.29-9.06-2.46-5.86a3.31,3.31,0,0,1,1.45-4.19,31,31,0,0,0,11.9-11.57,3.36,3.36,0,0,1,4.37-1.21l5.64,2.83a3.33,3.33,0,0,1,1.4,4.64,44.49,44.49,0,0,1-17.63,17A3.35,3.35,0,0,1,220.39,442.68Z"/><rect class="cls-2" x="294.66" y="308.93" width="13" height="53.5" rx="5"/><rect class="cls-2" x="306.86" y="336.6" width="53.5" height="13" rx="5" transform="translate(-123.07 486.12) rotate(-63.19)"/><rect class="cls-2" x="332.52" y="355.93" width="53.5" height="13" rx="5" transform="translate(-150.85 348.22) rotate(-43.66)"/><rect class="cls-2" x="262.2" y="316.35" width="13" height="53.5" rx="5" transform="translate(-125.86 158.05) rotate(-26.81)"/><path class="cls-2" d="M261.35,382l2.08-2.17a5,5,0,0,0-.17-7.07l-4.53-4.32a5,5,0,0,0-8.43,4.05c.14,1.47.26,3,.38,4.46a5,5,0,0,0,1.53,3.23l2.08,2A5,5,0,0,0,261.35,382Z"/><path class="cls-2" d="M429.87,912.7a5,5,0,0,0-4.88-3.91H177.32a5,5,0,0,0-4.88,3.91l-10,44.9a5,5,0,0,0,4.88,6.09H435a5,5,0,0,0,4.88-6.09Z"/><path class="cls-2" d="M147.32,1025.5a5,5,0,0,0,4.88,6.08H450.11a5,5,0,0,0,4.88-6.08l-10-44.9a5,5,0,0,0-4.88-3.91H162.2a5,5,0,0,0-4.88,3.91Z"/></svg>