<svg id="layer1" xmlns="http://www.w3.org/2000/svg" viewBox="0 0 247.87 338.18"><defs><style>.cls-1{fill:#1c702a;}.cls-2{fill:#492d0c;}</style></defs><path class="cls-1" d="M202.09,143.39c-1.25-5.91-2.74-11.74-4.39-17.45a7.36,7.36,0,0,0-1.28-2.53c-4.2-16.15-8.49-32.28-11.73-48.59-1.06-10.54-2.14-21.09-3.84-31.51a6.76,6.76,0,0,0-1-2.65q-.57-7.42-.62-14.93c0-1.72-2.38-2.89-3.79-2.47a2.06,2.06,0,0,0-2.62,1.41,24.67,24.67,0,0,1-3.07,7.21,1.63,1.63,0,0,0-1.33.68c-.9,1.25-1.86,2.45-2.84,3.64a4.75,4.75,0,0,0-.38.35c-1.49,1.53-2.87,3.16-4.23,4.8l-.56.7c-2.33,2.53-4.7,5-7,7.63a43.42,43.42,0,0,0-4.58,5.77c-.61.95.1,2,1.13,2.59-.49,1-1,1.94-1.41,2.92-2.1,4.28-4,8.61-4.66,13.43h0a.45.45,0,0,0,0,.11c-.47,3.66.8,4.4,2.56,7.37,2,3.29,3,7.05,4.9,10.41a3.39,3.39,0,0,0,2.4,1.33,33,33,0,0,1,1.35,4.91A6.87,6.87,0,0,0,157,102.3q-.81,3-1.61,6c-5.33-1.84-11.56,2.18-9.92,8.72a7.57,7.57,0,0,0,3.57,4.9l.48.43c0,.12.08.28.14.48.16,1.27.35,2.54.62,3.82.73,3.41,2.92,5.08,5.38,5.42a8.53,8.53,0,0,0,.92,2,6.63,6.63,0,0,0-4.46,1c-2.9,2-5.35,1.82-8.66.84a7.56,7.56,0,0,0-8.9,4.39c-.22-1.28-.42-2.57-.59-3.87-1.81-14-2.61-28.21-6.55-41.84-2.79-9.68-8.89-20.78-20.71-18.41-1.78.36,2.42,2.65,3.76,2.38,10.42-2.09,13.66,20.12,14.87,26.72,2.13,11.65,2.46,23.55,4.63,35.17.39,2.1.83,4.19,1.28,6.28a3.33,3.33,0,0,0-1.1-.15,2.72,2.72,0,0,0-2.63,2.27,4.41,4.41,0,0,0,1.41,3.72c.75.8,2.31,1.2,3.14.31a1.57,1.57,0,0,0,.41-.77c1.68,7.11,3.57,14.19,5.31,21.22,0,.08.28.17.31.25-1.35-.35-2.61,0-2.61,1.23v13.64c0,1.37,1.4,2.19,2.79,2.2a23.47,23.47,0,0,0-4,12.91c0,1.92,4.88,1.55,4.92-.5a20.63,20.63,0,0,1,3.58-11.73c1.78,5.79,3.72,11.53,5.9,17.22.48,1.27,1,2.55,1.45,3.82,0,0,0,0,0,.08,0,.55.07,1.09.11,1.64-.71-.49-1.41-.59-1.64.51-3,14.15,4.43,27.45,5.54,41.36.1,1.22,1.19,3,2.53,3h.8c.14,0,.26-.23.37-.28.11.45.22.81.33,1.26-.25,3-.54,5.91-.8,8.88-5.75-14.6-12.72-28.46-22.49-41a38.05,38.05,0,0,0-3.37-4.18,7.7,7.7,0,0,0-2.81-1.95c-1.91-2.22-4.64-3-7.48-3.38-.61-.76-1.24-1.51-1.9-2.24l0,0c.37.67.8-.94,1.35-1.78a6.51,6.51,0,0,0,.05-7.15,17.08,17.08,0,0,0-2.3-7.25c-1.79-3.32-4.75-5.88-6.6-9.19-2-3.57-2.7-8.41-3.61-12.35-3.79-16.41-3.34-34.55-14.27-48.19-3.73-14-12-27.8-23.43-36.88-.7-1.09-1.38-2.19-2-3.31a1.85,1.85,0,0,0-1.24-.67c-.34-1.56-.69-3.11-1.08-4.65a1.32,1.32,0,0,0-.8-.79v0c-.43-1.56-5.26-1.43-5-.09.41,2.13.76,4.27,1.07,6.41.42,5.66,1.18,11.31,1.31,17-.08,19.41-.14,39,3.7,58,0,.34.09.68.14,1-.37,22.61,11.47,44.47,24.54,62.17,14,19,29.51,38.59,49.81,51.24a3.55,3.55,0,0,0,.43.23c2.76,4.06,6,7.84,8.08,12.31a6.23,6.23,0,0,0,4.33,3.7,72.17,72.17,0,0,0,1.75,7c.15,2.71.28,5.43.31,8.14,0,.33.61.5,1.41.55.06.35.12.71.19,1.06.21,1,5,.58,5-.42a25.94,25.94,0,0,0-.49-4c.7-.17,1.24-.44,1.3-.78a63.86,63.86,0,0,0,.78-9.95c2.41-10.16,9.35-18.39,15.19-27.57.56-.88-4-.54-4.6-.14l-.22.15h0c.4-.68-4.19-1-4.83,0-.72,1.23-1.47,2.42-2.23,3.6-.39.62-.79,1.24-1.21,1.85l0,.07c-.81,1.19-1.64,2.34-2.53,3.46a48.49,48.49,0,0,1,.08-6c.29-2.58.62-5.16,1-7.74.35-2.14.74-4.29,1.13-6.43,3.05.82,6.41,0,7.94-3.5a38,38,0,0,1,2.52-4.77c3.26,1.19,7.09.52,8.71-3.25s3.24-7.48,4.85-11.23c1.08-2.09,2.2-4.17,3.28-6.26a51.62,51.62,0,0,0,10.58-19.73C215,188.34,209.52,165.82,202.09,143.39ZM72,111.44c-.14-1.46-.31-2.91-.5-4.35q1,2,2,4A8.1,8.1,0,0,0,72,111.44Zm67,48c-.16-.66-.32-1.33-.49-2a9.69,9.69,0,0,0,1.4,1.32A4.5,4.5,0,0,0,139,159.44Zm.53,29.27V181.5c1,2.32,1.28,4.62,2,6.92A6.15,6.15,0,0,0,139.53,188.71Zm2-25.1c-1,0-.87.09-.87.16.08,1.62.34,3.21.55,4.81l-1.29-5.41c-.08-.36-.15-.72-.24-1.07a9.3,9.3,0,0,0,1.85,1.46ZM166.6,281.42l.45-.52c-1.22,1.87-2.39,3.75-3.46,5.66a7.59,7.59,0,0,0-.19-1.11C164.49,284.13,165.56,282.78,166.6,281.42Zm.51-101.94a18.14,18.14,0,0,1-2.17,2.81,7.23,7.23,0,0,0-6.29,2.08,29.29,29.29,0,0,0-4.82,6.12,9.07,9.07,0,0,0-2.26,1.92,1.75,1.75,0,0,1,.55-1c.36-.31-3-4-3.55-3.51-1.11,1-.56,2.74,0,4.13h0c.45,1.82.87,3.63,1.39,5.41a5.81,5.81,0,0,0,.37,1.37c.09.22.19.45.28.68a29.65,29.65,0,0,0,1.17,2.95v0h0c0,.08.07.16.1.23a.89.89,0,0,0,.09.16c.55,1.35,1.08,2.7,1.61,4.06q.21,2,.48,4c-1.06-2.7-2.11-5.4-3.1-8.1a280.39,280.39,0,0,1-9.12-31.51l.36.1a69.77,69.77,0,0,0,1.64,7.64c.24.88,5,.5,5,.41-.48-2.73-1.11-5.43-1.72-8.13-.13-.87-.24-1.76-.33-2.64l0,0c1.37,1.36,5.48-1.39,3.84-3L150,165a14.68,14.68,0,0,0,2.37.16c.19,0,1.88-.06.93-.39a16.26,16.26,0,0,0-4.05-.52c-1.33-1.33-2.69-2.66-4.12-3.88a5.65,5.65,0,0,0,.7-.11c1.29.61,2.58,1.19,3.87,1.78a8.46,8.46,0,0,0,1.89.86c7,3.23,13.6,6.81,17.4,14.42A9.13,9.13,0,0,0,167.11,179.48Z"/><path class="cls-1" d="M132.8,103.3a1.33,1.33,0,0,0-2,1.19,3.44,3.44,0,0,0,1.8,3c2.36,1.34,3.74,5.59,3.81,8.19a3.45,3.45,0,0,0,1.81,3,1.32,1.32,0,0,0,2-1.19C140.07,112.38,137.55,106,132.8,103.3Z"/><path class="cls-1" d="M134,85.19a3.07,3.07,0,0,0-2.84-2.25H128c-1.28,0-1.76,1.74-1.45,2.75a3.07,3.07,0,0,0,2.84,2.25h3.21C133.87,87.94,134.35,86.2,134,85.19Z"/><path class="cls-2" d="M106.88,75.44c18.65-3.58,19,28.62,21,40.14q3.72,21.83,8.48,43.47c2.49,11.44,4.55,23.43,8.43,34.5,13.67,39,26,80.8,10.66,121.4-.24.65,1.69.41,1.94-.24,8.89-23.59,8.5-49.09,3.8-73.55-3.3-17.12-9.42-33.16-15-49.6-4.39-13-6.7-27.09-9.53-40.49-3.08-14.51-6.64-29.38-8.07-44.16-1.14-11.83-4.46-35.81-21.43-32.55-.91.18-1.59,1.34-.26,1.08Z"/><path class="cls-2" d="M104.78,77.16c-1.92-2-5.44-1.12-7.47.42-5.16,3.93-4.85,8-5.52,13.93l1.92-.4,0-.09c-.2-.6-1.75,0-1.92.4a15.54,15.54,0,0,0-.63,3c-.28,1.46-1.71,4.44-.24,4.93-.27-.09-2,.17-1.75.68,2.28,3.86,8,3.12,11.85,3.93.44.09,1.55-.16,1.58-.72.06-1.68.65-3.1.71-4.76l-1.36.73c1-.09,1.2.84,2.08,1.26a25.5,25.5,0,0,0,5.6,1.53,1.68,1.68,0,0,0,1.74-.57,4.64,4.64,0,0,0,.16-5.08c-1.12-2.36-.85-5.44-.77-8,0-1.15.88-6.31,0-7.07a7.16,7.16,0,0,0-4.93-2.06c-.5,0-2.24.87-1.22.92,5.94.3,4.3,6.37,4.18,10.42-.12,3.7,2.48,7.87.67,11.13l1.74-.57c-2.12-.49-4.46-.65-6.21-2-1.2-1-.58-1-2.24-.84-.4,0-1.34.18-1.36.73-.07,1.68-.65,3.09-.71,4.76l1.57-.72c-3.48-.74-9.09-.06-11.14-3.52l-1.75.68c3.84,1.28,3.57-7.22,4.36-9.1l-1.93.41,0,.09c.18.53,1.87.08,1.92-.41.25-2.11.25-4.23.45-6.34.22-2.39,5.14-11,8.82-7,.39.42,2.22-.27,1.81-.71Z"/><path class="cls-2" d="M125,101c-14.52.45-15.61,15-15.67,26.58,0,.46.49.54.86.51l4.44-.37c.39,0,1-.27,1.08-.71a7.09,7.09,0,0,1,1.87-3.53l-1.88.2c.22,1,.7,1.13,1.6,1.39a1.44,1.44,0,0,0,1.36-.36c1-1.18.5-.32,2,.08a2.57,2.57,0,0,0,2.12-.73c1.16-1.16-.64-.8,0,.85.33.8,2.88,1.3,3.4,1.67s1.62,0,1.73-.61c1.46-7.93,4.43-19-1.13-26-.47-.59-2.33.11-1.79.79,5.39,6.8,2.4,17.7,1,25.44l1.73-.61c-1.52-1.08-3.12-.88-3.42-3,0-.35-.6-.37-.85-.35l-1.11.1c-.34,0-1.06.27-1.08.71,0,.22-1.92-.44-1.79-.4a1.44,1.44,0,0,0-1.36.36c-.84,1-.25,1.14-.47.15-.18-.81-1.59-.17-1.87.2A9,9,0,0,0,114,126c-.19,1-1.48.68-2.68.78-.91.24-.92,0,0-.75,0-.89,0-1.78,0-2.66,0-1.74.16-3.46.31-5.19.72-8.18,3.78-15.7,13.13-16,1,0,1.55-1.25.23-1.21Z"/><path class="cls-2" d="M134.57,116.36c7.28-4.35,10.32,3.74,13.21,9a24.54,24.54,0,0,0,4.21,5.84,10.55,10.55,0,0,0,2.51,1.72c2.64,1.38-4.41,3.48-4.57,1.58-.06-.67-1.51-.17-1.75.08-1.31,1.39-2.87,2.41-4.14,3.87l1.74-.08a7.33,7.33,0,0,0-2.68-4.6c-.49-.44-1.44-.1-1.8.35a13.3,13.3,0,0,0-2,3.83l1.86-.5c-1-1.17-1.32-1.84-2.72-2.3a1.41,1.41,0,0,0-1.56.66c-.3.81-.61,1.62-.91,2.42l1.09-.67-2.22.19c-1,.08-1.58,1.23-.25,1.12l2.22-.19a1.26,1.26,0,0,0,1.1-.67l.91-2.43-1.55.66a7.51,7.51,0,0,1,2.1,2c.45.51,1.66.05,1.87-.5a12.48,12.48,0,0,1,1.86-3.54l-1.8.35a7.23,7.23,0,0,1,2.54,4.35c.12.65,1.49.21,1.75-.08,1.27-1.46,2.83-2.49,4.14-3.87L148,135l.09,1.16c0,.34.64.32.85.31,3.38-.31,6.1-.83,8.47-3.38.3-.31.22-.59-.19-.72-10.22-3.15-10-24.91-23.86-16.63-1.12.68.56,1,1.21.63Z"/><path class="cls-2" d="M130.72,128.35a5.59,5.59,0,0,1,.39,6.86c-.49.61-1.69,1.66-1.89,2.41-.25,1,.21,2.62.3,3.62,0,.31.64.29.83.26a7.79,7.79,0,0,0,5.27-3.21c.53-.65-1.41-.49-1.79,0a4.72,4.72,0,0,1-3.21,2.2l.83.26c-.1-1.19-.59-2.95.24-4,.66-.81,2.23-2.15,2.5-3.15.45-1.71-.52-4.69-1.67-6-.43-.49-2.28.2-1.8.74Z"/><path class="cls-2" d="M130.63,108.46c4.45-.26,6.2,3.7,5.7,7.56,0,.23,1.86.07,1.93-.51a7.52,7.52,0,0,0-1.45-6.09c-1.31-1.54-3.44-1.84-5.34-1.73-.5,0-2.11.85-.84.77Z"/><path class="cls-2" d="M123.73,98.1a1.88,1.88,0,0,1-1,.52,4.44,4.44,0,0,0-1.48.84,2.29,2.29,0,0,0-.66,1.57,4.16,4.16,0,0,0,.08,1.86c.25.5,1.42,0,1.72-.18s.24-.48.29-.8a4.89,4.89,0,0,1,.14-.64c0-.1.07-.2.11-.31.18-.42.4-.13-.53,0,.34,0,1-.2,1.12-.57s-.65-.28-.79-.26a2.1,2.1,0,0,0-1.75,1.21,3.65,3.65,0,0,0-.21.85c0,.12,0,.23,0,.35s-.1.2.17,0l1.71-.18a3.93,3.93,0,0,1-.1-1.49,2,2,0,0,1,.56-1.54,4,4,0,0,1,1-.4A3.62,3.62,0,0,0,125.5,98c.29-.34-.25-.41-.48-.4a2,2,0,0,0-1.29.48Z"/><path class="cls-2" d="M126.63,85c2.87-2.29,6-1.55,7.24,1.9.17.48,2.08-.12,1.93-.52-1.87-5.07-7.44-4-10.92-1.25-.43.34,1.38.16,1.75-.13Z"/><path class="cls-2" d="M132.74,86.79c-.19,1.7-1.77,3.33-2.11,5.06a34,34,0,0,0,0,9.4c.08.93,2,.45,1.93-.52-.26-3.14-.66-6.47.2-9.56.45-1.58,1.77-2.83,2-4.51.12-1-1.86-.78-2,.13Z"/><path class="cls-2" d="M133.9,87.4c5.34-1.92,10.5-3.92,14.32,1.64,1.92,2.81,2.88,6.23,4.55,9.2a9.88,9.88,0,0,0,2.36,2.75c1.82,1.53.48,1.62-1.55,2.92a29.68,29.68,0,0,1-3,1.8c-.32,0-1-.58-1.48-.67-2-.37-2.29-.93-3-3.1-.29-.86-1.82-.45-1.95.33-.19,1.21-.62,2.37-.81,3.58l1.86-.49c-3-4.43-5.91-2.26-9.3.63-1,.85.54,1.54,1.29.9,1.54-1.31,3.88-4.12,6.24-.68.44.65,1.75.21,1.87-.5.19-1.23.62-2.36.81-3.59l-1.94.33c.39,1.17,1,2.24,1.4,3.41a.83.83,0,0,0,.88.46c1.84-.09,2.79.93,4.54.78,2.21-.18,5.25-3.14,7.1-4.32a.74.74,0,0,0,.32-.71c0-.39-.07-.78-.1-1.17,0-.2-.25-.33-.41-.4-5-2.08-5.89-10-9.08-14-4-5-10.31-2.27-15.24-.5-1.14.42-.81,1.77.36,1.35Z"/><path class="cls-2" d="M131.52,98.83l.3,3.49c0,.44,2,.07,1.93-.52l-.3-3.49c0-.44-2-.07-1.93.52Z"/><path class="cls-2" d="M131,145.81c0,.39.07.78.1,1.17s.84.46,1.14.38a.9.9,0,0,0,.79-.9c0-.39-.06-.78-.1-1.17s-.83-.46-1.13-.38a.91.91,0,0,0-.8.9Z"/><path class="cls-2" d="M131.39,145.26a5.49,5.49,0,0,0-1.52,1.44c-.38.55-.27.85-.88.92-.4,0-1.14.29-1.1.8l.3,3.5c.05.65,2,.23,1.93-.52l-.3-3.49-1.09.8a4.17,4.17,0,0,0,2.18-.8c.73-.55.87-1.5,1.68-2.06,1.08-.75-.59-1-1.2-.59Z"/><path class="cls-2" d="M127.22,152.69c-4.22.87-7.06,1.89-9.64,5.42-4.11,5.61-1.52,13.68-5.07,19.7-.14.24.45.19.52.18,5-.57,10.23-2.05,14.32-5.07l-1.83.35c0,.39.06.78.1,1.16s1.17,0,1.29-.07c2-.73,2.73-.66,4.41.83.26.23,2-.23,1.88-.58-.8-2.2.33-1.87.8-3.51.09-.33-1.77-.1-1.9.36-.49,1.71-1.53,1.75-.83,3.67l1.88-.58-2.42-2.14c-.25-.22-1,.05-1.24.13-1.11.41-2.13,1.05-3.23,1.45l1.29-.07c0-.39-.07-.78-.1-1.17s-1.66.23-1.83.35a23,23,0,0,1-7.64,3.42c-3.64,1-2.72-.3-1.89-2.7s.86-5.12,1-7.64c.51-6.63,3-11.46,9.7-12.85.73-.15,1.74-.92.38-.64Z"/><path class="cls-2" d="M127.58,155.76a20.61,20.61,0,0,1,2.85,2.17c.72.75.47,3.2.58,4.29.33,3.21,2,6.22,3.29,9.13.19-.24.38-.49.56-.74-.88.34-1.56.79-1.58,1.84s1.94.55,1.95-.19a.65.65,0,0,1,.44-.69c.23-.08.7-.42.56-.73-1.58-3.69-3.37-7.18-3.41-11.29,0-2.7-1.72-3.29-3.73-4.81-.58-.45-2.33.4-1.51,1Z"/><path class="cls-2" d="M122.36,129.61c-13.86.44-9.47,16.25-16.28,24l1.83-.34a9.48,9.48,0,0,1,1.82-4.77l-1.92.44c1.82,3.36,5.06,3.63,8.15,2-.17.09,1.57-1.44.82-1.38.76-.06,1.87,1.13,2.88,1.06a11.32,11.32,0,0,0,5.49-2c.8-.49-1.14-.23-1.47,0-2.13,1.32-4.48-.11-6.85.33-3,.56-5,3.36-7.09-.43-.24-.45-1.7.12-1.92.44A9.84,9.84,0,0,0,106,153.8c0,.37,1.68-.16,1.84-.35,5.17-5.89,3-22.76,13.28-23.08.38,0,2.18-.79,1.26-.76Z"/><path class="cls-2" d="M119.52,132a7.33,7.33,0,0,1,5.09,1.72c.65.54,2.34-.4,1.49-1.11a9.26,9.26,0,0,0-6.4-2c-1.09.06-1.5,1.47-.18,1.4Z"/><path class="cls-2" d="M126.47,135c1.07,0,1.5-1.35.19-1.35-1.08,0-1.51,1.35-.19,1.35Z"/><path class="cls-2" d="M127.34,133.86a22.36,22.36,0,0,1-4.14-3.12,14.11,14.11,0,0,1-1.42-1,5.84,5.84,0,0,1,2.92-1.92c.54-.09,1.77-1,.56-.9a5.42,5.42,0,0,0-2.08.35,5.44,5.44,0,0,0-1.33,1.49c-.5.63,1.24.31,1.47.17,1.72-1.06,3.63-1.74,5.35-2.8,1.1-.68-.63-.72-1.15-.4-1.73,1.06-3.63,1.74-5.36,2.8l1.46.17,1-1.26-1.29.49,1.11-.09.56-.9a9.35,9.35,0,0,0-5.29,3.17c-.14.17-.08.3.11.39,2.23,1.05,3.7,3.14,5.94,4.19.48.23,2.25-.51,1.56-.83Z"/><path class="cls-2" d="M141.32,161.86c3.7-1.14,6.79,1.42,8.23,4.68.37.85,2.29.29,1.93-.52-1.86-4.2-5.9-6.9-10.52-5.47-1.17.37-.83,1.68.36,1.31Z"/><path class="cls-2" d="M150.22,167c-8.18,2.86-5.64,18.42-.85,23.17.38.38,1.11.19,1.51-.06,2-1.3,4.8-2.51,6.53-4.2,2.34-2.26,3.28-5,7.22-3.88.68.19,2.29-.81,1.17-1.12a9.76,9.76,0,0,0-6.53.58c-1.08.47-1.84,2.06-2.54,2.92-1.73,2.16-4.77,3.56-7.08,5l1.51-.06c-4-3.95-7.28-19-.15-21.48,1.27-.45.12-1.22-.79-.9Z"/><path class="cls-2" d="M151.56,167.28c3.09-4.18,9.91,4.65,12.19,6.74a11.7,11.7,0,0,0,4.24,2.69c.22.07-2.21,3-2.71,3.67l1.91-.43a3.15,3.15,0,0,0-1.73-2.15c-.35-.12-1.76.13-1.76.63a1.18,1.18,0,0,0,.35,1c.24.47,2.09-.21,1.93-.52a1.18,1.18,0,0,1-.35-1l-1.76.63c.77.27,1.17,1.22,1.39,1.93.16.52,1.71-.17,1.92-.43l3-3.78c.09-.11-.09-.19-.16-.2-6-1.17-13.87-17.27-20.39-8.44-.13.17,1.57.12,1.9-.34Z"/><path class="cls-2" d="M142.33,189.84a7.38,7.38,0,0,0-6.06,5.19c-.55,1.92.12,4.59-2.09,4.76a16,16,0,0,0-4.81,1.3c-7.39,3-9.11,12.52-9.91,19.47-.09.8,1.24.56,1.6.29l7.5-.61a1.39,1.39,0,0,0,1.38-.14c1.32-1,.44-.72,1.2-2.73l-1.8.33a7.2,7.2,0,0,1,2.44,3.16c.28.74,1.58.33,1.88-.19.09-.15,1.45-3.16,1.46-3.16-.35,0-.24.33.31.67,1.48.9,2.81-.81,4.14-.05.66.39,2.39-.53,1.5-1-.39-.23-4.45-1.11-4.32-.53-.08-.35-.58-.41-.87-.38-2.75.23-2.68,2-4,4.34l1.88-.18a8.17,8.17,0,0,0-2.59-3.46,1.27,1.27,0,0,0-1.8.33c-.81,2.14-1.54.78-3.64.47s-4.26,1.2-5.87,2.4l1.6.29c1.07-9.4,3.88-19.28,15.11-19.41.33,0,1.09-.3,1.08-.73-.14-3.68.33-8.29,5.05-9.2,1.21-.24.87-1.42-.32-1.19Z"/><path class="cls-2" d="M136.35,202c7.43.82,5,11.69,5.32,16.81l.59-.67c-.7.27,0-.51.07-.64.54-.7-1.41-.55-1.8,0-1.85,2.41.85,2.13,2.49,1.5.28-.11.61-.33.59-.66-.42-6.11,2.07-16.45-6.52-17.4-.74-.08-2,1-.74,1.11Z"/><path class="cls-2" d="M166.49,277.55c2.42-6.66,9.84-10,14.29-15.16l-1.86.25c.16,5.71-3.46,9-7.45,12.46-3.26,2.87-4.77,5.79-6.14,9.9-1.78,5.35-2.44,11.08-3,16.66-.32,3.6.68,8.43-2.07,10.87-.11.09-.25.25-.2.4l.12.4c.05.16.23.22.38.25l.62.13c.59.13,2.28-.8,1.19-1l.54-.28c.23-.06.83-.28.84-.6.24-10,.88-20.28,4.41-29.74,3-8,12.91-10.36,12.64-19.95,0-.72-1.65,0-1.86.25-4.57,5.28-11.94,8.56-14.43,15.43-.23.63,1.7.38,1.93-.25Z"/><path class="cls-2" d="M166.1,272.76c.59-12.07,7.29-22.2,14-31.84,5.42-7.85,11-15.59,15.56-24,10.21-18.68,13.61-42.9,11.61-63.93-1.1-11.47-5.46-22.23-9.48-32.92s-8-21.39-10.79-32.5c-6.08-24.45-5.07-50.4-7.11-75.37,0-.51-1.78,0-1.92.42-9.27,23.53-38.55,40.11-36.78,67.76,0,.43,2,.07,1.93-.52-1.76-27.54,27.5-44,36.76-67.55l-1.92.41c2,24.46,1.37,49.5,6.69,73.56,5.06,22.91,18,43.83,20.68,67.23,1.43,12.14-.13,24.49-2.37,36.44a95.13,95.13,0,0,1-9.93,28.6c-9.59,17.55-27.78,33.66-28.81,54.7,0,.36,1.9.1,1.93-.52Z"/><path class="cls-2" d="M133.39,173.78l1.38,16.31c.07.88,2,.42,1.93-.52l-1.38-16.31c-.07-.88-2-.41-1.93.52Z"/><path class="cls-2" d="M203.48,143.2c4.64,24.94,7.25,52-3.81,75.64-5.09,10.86-13.11,18.68-20.56,27.77-6.72,8.2-15.39,15.68-17.17,26.68-.16.93,1.81.66,1.95-.17,2-12,12.91-21.91,21-30.4a93,93,0,0,0,18.32-27.42c9.63-22.62,6.61-49.13,2.24-72.61-.16-.86-2.1-.37-1.93.51Z"/><path class="cls-2" d="M177.33,18.29c-4.5,11.9-9.34,23.69-12.66,36-3.56,13.24-3.25,25.79-2.38,39.32a199,199,0,0,1-.81,36.85,179.14,179.14,0,0,0-.63,37.47c.07.92,2,.44,1.93-.51-.55-6.46-1-12.91-1-19.39s1.12-12.9,1.91-19.37a195.94,195.94,0,0,0,.6-35.18c-.77-13-1.11-24.86,1.95-37.61s8.33-25,13-37.33c.4-1.07-1.53-1.08-1.85-.25Z"/><path class="cls-2" d="M161,183.18c0,12.81,4.7,25.11,5.32,37.92.74,15-1,30.15-2.76,45.07-.08.66,1.85.28,1.92-.29,1.62-13.81,3-27.66,2.88-41.59a109.38,109.38,0,0,0-2.47-21.57c-1.41-6.66-3-13.22-3-20.06,0-.49-1.93-.15-1.93.52Z"/><path class="cls-2" d="M59,73.45C71.34,96,89.43,115.36,99.34,139.28c2.45,5.94,3.29,12.34,4.15,18.67.9,6.6,2.16,13,3.56,19.51,2.18,10.13,8.42,19.82,14.55,28,.53.71,2.37-.05,1.77-.85-6.49-8.65-12.4-18.42-14.69-29.1-2.73-12.67-3.08-26.29-8.07-38.34C90.9,113.74,72.87,94.7,60.77,72.59c-.42-.76-2.26,0-1.77.86Z"/><path class="cls-2" d="M132,222.14c10.54,14.49,23.42,31,25.36,49.37.06.64,2,.22,1.93-.52-1.94-18.43-14.94-35.1-25.5-49.61-.39-.53-2.25.13-1.79.76Z"/><path class="cls-2" d="M56.7,73.47c7,25.09,4.09,51.49,4.67,77.19A146.51,146.51,0,0,0,79.1,217.48,134.3,134.3,0,0,0,121,263.32c8.76,6,17.19,12.11,23.59,20.75s9.11,19.27,9.64,29.95c0,.65,2,.25,1.93-.52-.48-9.66-2.73-18.79-7.73-27.13-4.89-8.16-12.33-14.47-20-20-9.53-6.86-18.79-13.38-27-21.84A131.52,131.52,0,0,1,81,217c-11.1-19.82-16.88-42.51-17.68-65.14-.94-26.29,2.43-53.17-4.72-78.87-.19-.7-2.12-.18-1.93.52Z"/><path class="cls-2" d="M160.67,270.83c-1.14,3.48-.56,7.41-.25,11,.07.94,2,.46,1.93-.52-.28-3.25-.86-7,.18-10.19.36-1.1-1.57-1.14-1.86-.27Z"/><path class="cls-2" d="M59.22,76.78C62.41,87,67.15,96.63,70.34,106.85c3.48,11.17,3.85,23.58,5,35.16,2,20.3,5.83,40.58,13.24,59.65,6.64,17.07,16.81,32.64,30.93,44.42,13.72,11.44,32.37,17,39.68,34.66.36.88,2.28.33,1.93-.52-6.57-15.86-21.27-21.38-34.32-30.79-16.5-11.88-28-28.2-35.71-46.86S79.63,163.4,77.48,143.3c-1.26-11.78-2.19-23.56-4.69-35.17C70.42,97.15,64.5,87,61.15,76.26c-.29-.91-2.21-.38-1.93.52Z"/></svg>