<svg id="layer1" xmlns="http://www.w3.org/2000/svg" viewBox="0 0 171.14 196.07"><defs><style>.cls-1{fill:#f7cd97;}.cls-2{fill:#492d0c;}</style></defs><path class="cls-1" d="M128.36,137.14a7.41,7.41,0,0,0-1.55-3.83h0A9.82,9.82,0,0,1,128,132c1.74-2,1.43-5.16.5-7.4-.28-.68-.58-1.33-.86-2a7.43,7.43,0,0,0,1.29-.94c13.17-11.79,22.08-31,17.88-48.63.2-.8.39-1.6.55-2.41l.07-.18a6.57,6.57,0,0,0,.57-2.32,63,63,0,0,1,4.6-6.77,7.41,7.41,0,0,0-.5-9.07c-11.2-11.1-28-11.67-42.77-10.11-13.82,1.45-29.38,5.72-40.5,14.52A41.15,41.15,0,0,0,62,59.87c-.2-.41-.39-.83-.64-1.24a9.08,9.08,0,0,0-1.58-2,12.56,12.56,0,0,0-1.5-1.51c-4.73-4-12-.43-16.1,2.65A18.87,18.87,0,0,0,35.42,70c-1,6.66,1.53,13.17,5.77,18.2,10.31,19.67,24.69,36.72,41,51.82a47.61,47.61,0,0,0,7.08,5.53,7.34,7.34,0,0,0,1,2.68c8.09,13.58,24.89,6,35.93.8C131.11,146.7,131.5,140.63,128.36,137.14Z"/><path class="cls-2" d="M57.24,65.18C67.23,54,84.74,48.94,99,45.92c16.9-3.58,34.79-4.81,50.47,3.43,7.64,4,3.48,12.33,1.73,18.56a266.69,266.69,0,0,0-5.93,27.82c-2.84,17-13.46,31-27.35,40.66-1.08.75.58,1,1.2.59,14.45-10,24.73-24.07,28.09-41.48,2.09-10.87,3.8-22.11,7.38-32.62,2.28-6.68,1.76-11.67-4.8-15.11-15.19-8-33.43-6.42-49.73-3.11C85,47.72,66.27,53,55.68,64.85c-.76.86,1.12.82,1.56.33Z"/><path class="cls-2" d="M50.51,52.23c4.6.76,9.73,1.27,13.22,4.7l1.65-.88C61.6,54.41,58.1,53,55,50.29a1.36,1.36,0,0,0-1.8.35c-5.08,9.9,6.61,21.92,12.59,28.53,4.19,4.64,8.69,9,13,13.45,6.7,6.89,12.71,14.49,19.12,21.65,5.93,6.64,12.42,12.83,18,19.73,3.54,4.34,7.49,10.57,12.73,13,7.81,3.64,4.25-11.37.68-13.87-.55-.38-2.33.42-1.53,1,2.72,1.9,4.19,7.62,3.9,10.74-.33,3.5-6.45-2.87-6.92-3.36-2-2.08-3.8-4.3-5.62-6.51-9.79-11.85-20.74-22.78-30.84-34.38-6.94-8-14.54-15.28-21.64-23.12C61.14,71.33,50.28,59.85,55,50.72l-1.8.35c3.29,2.86,6.74,4.24,10.7,6,.4.17,2.28-.26,1.65-.88-3.66-3.61-9-4.23-13.83-5-.65-.11-2.28.92-1.17,1.1Z"/><path class="cls-2" d="M133.16,147.13c-9.94,8.09-23.61,6.76-34.58,12.76l1.5-.07C83,140.25,63.88,122.53,47.9,102c-5.76-7.39-14.65-18.45-13.75-28.49.57-6.42,9.24-24.17,17.69-21.09.62.22,2.36-.67,1.52-1-7.23-2.63-13.27,5.4-16.56,10.68-2.28,3.67-4.27,8-4.66,12.37C31.71,79.31,34.65,85,36.91,89c6.82,12.26,16.41,22.89,25.79,33.24,11.71,12.92,24.13,25.18,35.59,38.33.36.41,1.13.13,1.51-.07,11.18-6.11,24.71-4.72,34.93-13,.87-.72-1-.79-1.57-.37Z"/></svg>