<svg id="layer1" xmlns="http://www.w3.org/2000/svg" viewBox="0 0 306.27 426.08"><defs><style>.cls-1{fill:#529ddb;}.cls-2{fill:#492d0c;}</style></defs><path class="cls-1" d="M265.77,268.75a14.82,14.82,0,0,0-5.5-.17,47.42,47.42,0,0,0-3.47-3.6l-.14-.11a3.67,3.67,0,0,0-5.27-2.77c-.24.1-.47.23-.71.34a35.17,35.17,0,0,0-8.43-6.1,16.94,16.94,0,0,0-.9-5,.14.14,0,0,0,0-.06,82,82,0,0,0,2.89-8.56c2-.17,3.83-1.78,3-4.22a2.09,2.09,0,0,0-.08-.23,3.82,3.82,0,0,0-.82-3.65c-1-1.08-1.82-2.25-2.69-3.4a22.27,22.27,0,0,0-2-2.44,3.37,3.37,0,0,0-1.48-1c-.32-1.11-.7-2.22-1.12-3.34,0,0-.05-.09-.07-.13,1-4.57-1.15-9.31-5.5-13.09a3.77,3.77,0,0,0-1-.62c0-1.3-.12-2.61-.14-3.91a3.4,3.4,0,0,0,.84-2.34v-2.07c1-.57,1-1.43,1-2.6v-2.34a3.44,3.44,0,0,0-.31-1.81,19.54,19.54,0,0,0-1.08-3.46,3,3,0,0,0-.69-1.05,3.55,3.55,0,0,0-.32-1.13c.08-.22.17-.44.24-.66,2-6,3.22-12.6,2.1-18.86-.86-4.83-3.33-9.12-5.66-13.44a39.73,39.73,0,0,0-2.8-6.43c-2.35-6.49-4.54-13-5.05-19.94a77.77,77.77,0,0,0,4.74-11.82,3.18,3.18,0,0,0,2.17-3.14,25.06,25.06,0,0,0-.73-4.9,23.64,23.64,0,0,0-6.14-17.43,3,3,0,0,0-3.81-.72L215.7,91c-1.28-2.92-2.65-5.8-3.89-8.66a3,3,0,0,0-1.44-1.59,198.91,198.91,0,0,0,3.72-30.13c.17-5.78.24-15.68-6.71-17.77a3.23,3.23,0,0,0-1.4-.11,26,26,0,0,0-5.23-6,3.32,3.32,0,0,0-1-.57c-.16-.84-.31-1.69-.44-2.55-.6-4-6.87-2.91-6.87.93v.32a2.94,2.94,0,0,0-4.2,1.41l-1.43,2.93a2.87,2.87,0,0,0-1.52,1c-.19.23-.36.48-.54.71h0s0,0-.05,0-.26.42-.38.42h-2.38A3.62,3.62,0,0,0,178.55,34c-1.59,5.86-3.23,11-2.34,17.09a3.45,3.45,0,0,0,.3,1c-.11,1-.21,1.94-.27,2.91a79,79,0,0,0-6,13.87A3.33,3.33,0,0,0,167.77,70l-2.33,2.34a3.25,3.25,0,0,0-.86,3.16,12.06,12.06,0,0,1-1.81.62,9,9,0,0,1-6-1.13,3,3,0,0,0-2.16-1.22l-.44-.28c-.22-.54-.45-1.08-.72-1.61a3.08,3.08,0,0,0-3.65-1.58l-1.11-.84a3.45,3.45,0,0,0-4.24.54,9.35,9.35,0,0,1-4.18,2.87,3.84,3.84,0,0,0-1.52-.39,14.16,14.16,0,0,1-6.62-2C127,66.11,123,57.58,122.36,52.58c-.38-3-4.88-5.33-6.52-1.77-1.38,3-3.62,7.47-2.69,10.87.75,2.73,5.21,5.7,7.15,7.77a36.16,36.16,0,0,0,9.07,7.41,18.26,18.26,0,0,0,5.8,3,3.85,3.85,0,0,0,1.39,1.7,3.21,3.21,0,0,0,2.7.53,3.26,3.26,0,0,0,2.86,3,22.24,22.24,0,0,0,.23,4.56,3,3,0,0,0,2.37,2.4c-.08.83-.13,1.67-.16,2.51a3.2,3.2,0,0,0,1.37,2.7c-.11,1.53-.16,3.08-.18,4.61-.58,4.42-.76,8.86-1.19,12.54-.28,2.32,1.64,3.47,3.54,3.35,0,.85,0,1.68,0,2.49s-.11,1.76-.2,2.64a2.82,2.82,0,0,0-2.13,3.2,9.28,9.28,0,0,0,.15.92h0l.06.19c.31,1.58.8,3.13,1,4.72a3.91,3.91,0,0,0,1.79,2.95,50.53,50.53,0,0,1,3.46,12.43h-.58a3.5,3.5,0,0,0-3.37,2.47c-2.62,6.69-.83,12.17,2.8,16.88,5,8.88,14.39,14.37,19.39,23-.12,3.33-.13,6.65-.13,10a3.25,3.25,0,0,0,1.82,3,63.85,63.85,0,0,1-4.44,12.54,3.62,3.62,0,0,0-2.65.16,28.82,28.82,0,0,0-3.68,2,3.14,3.14,0,0,0-2.87.92,79.73,79.73,0,0,0-5.82,6.78,52.16,52.16,0,0,0-3.3,4.41c-.47.53-.94,1.08-1.39,1.65a3.76,3.76,0,0,0-.79,1.81c-3.06,4.34-5.87,8.83-8.64,12.86-6.44,9.35-16,26-29,26.35a3.53,3.53,0,0,0-3.37,2.57c-1.47,5.65-3.87,11.15-4.67,17-.69,5,.39,9.67,2.11,14.23a3.66,3.66,0,0,0-1,1.51c-.46,1.39-.87,2.77-1.22,4.16a3.21,3.21,0,0,0-1.24,2.61c0,1.38,0,2.77.09,4.15,0,.56-.07,1.12-.09,1.69a3.12,3.12,0,0,0,.21,1.18c.23,4.91.55,9.81.53,14.71,0,8-2.33,15.53-5.28,22.88-1.19,2.94,2.71,5.44,5.14,4l.35-.23c.05.09.08.18.13.28a10.63,10.63,0,0,0,3,3.3,3.77,3.77,0,0,0,1.18,1.85,3.7,3.7,0,0,0-3.31,3.46v2.33a3.5,3.5,0,0,0,7,0v-2.33a3.31,3.31,0,0,0-1-2.63,4.51,4.51,0,0,0,1.34.29,6.54,6.54,0,0,1,1.24.2,3.53,3.53,0,0,0,6.59,1.38,4.47,4.47,0,0,0,.41-.32,32.62,32.62,0,0,0,1.32,4.34c1,2.76,4.72,3.18,6.22,1.23a3.72,3.72,0,0,0,3.07-.79c-.05,1.1-.07,2.2-.07,3.31a3.22,3.22,0,0,0,1.23,2.63,2.86,2.86,0,0,0,0,1.76c0,.09,0,.18,0,.28-.31,3.36,5.16,4.95,6.52,1.76.14-.33.31-.65.47-1a3.87,3.87,0,0,0,4.55,2.57c3.34.94,7.18-.25,10.51-1.66,2.95-1.26,5.52-5,8.5-5.73,1.7-.42,3.42-.76,5.15-1.05a3.42,3.42,0,0,0,1.66.39,114.09,114.09,0,0,0,25.93-3.63c7-1.74,16.24-4.24,20.93-10.24a3.59,3.59,0,0,0,.72-3,142.15,142.15,0,0,0,18.6-22.21c.53-.79,1.05-1.58,1.56-2.38a190.6,190.6,0,0,0,21.61-31.12A3.75,3.75,0,0,0,258,305c5.87-5,9.69-11.47,9.67-19.36a20.55,20.55,0,0,0-1.08-6.43,44.74,44.74,0,0,0,1.66-6.11C268.55,271.29,267.75,269.15,265.77,268.75ZM112.34,354.44a3.34,3.34,0,0,0-.12,2.89l-.43,0a5.27,5.27,0,0,0,0-.56,3.89,3.89,0,0,0-1-3.06l.17-.15a3.5,3.5,0,0,0,1.9.06Zm-.45-72.07H111c.41-1,.82-2.37,1.2-3.62.62-.09,1.23-.28,1.83-.42C113.27,279.66,112.54,281.37,111.89,282.37Zm16.72,77.13a17.72,17.72,0,0,0-1.81-.83l-.32-.1c1.16-.64,2.3-1.31,3.43-2C129.47,357.54,129,358.52,128.61,359.5ZM144.9,249.31l-.7.49c.52-.74,1-1.48,1.54-2.23C145.45,248.15,145.17,248.72,144.9,249.31Zm12.52,96q-4.89,5.93-9.91,11.72c.32-.63.65-1.26,1-1.88q5.81-6.66,11.24-13.64C159,342.81,158.17,344.07,157.42,345.34Zm23.39-195.82q.06-3,.21-6.05.69-2.31,1.32-4.65C181.86,142.39,181.36,146,180.81,149.52Zm2.75,220.1c.67-.31,1.34-.64,2-1a2.93,2.93,0,0,0,.19.57Zm27.53-62.51a144.16,144.16,0,0,1-9.23,15.26c-.35.23-.71.46-1.05.7,3.52-6.16,7.42-12.12,11.39-18ZM217.8,270c1.49-1.81,2.95-3.65,4.35-5.54.1.06.21.1.31.15A46.6,46.6,0,0,1,217.8,270Zm30.35,13.9a3.7,3.7,0,0,0-.83-.1,6.49,6.49,0,0,0-.77.05c1-1.66,1.93-3.31,2.89-5l.22.37A27.28,27.28,0,0,1,248.15,283.91Z"/><path class="cls-1" d="M74.49,373.73c-.32,0-.85,0-1.32,0a6.22,6.22,0,0,0-3.36-1.19A2.84,2.84,0,0,0,68,373a3.24,3.24,0,0,0-2.65-.23c-3-1.35-6.6,2.86-3.83,5.74,2.11,2.2,3.72,4.81,5.84,7s6.25.63,6-2.47c0-.29-.08-.58-.13-.88a3.65,3.65,0,0,0,1-1.47h.27C79,380.74,79,373.74,74.49,373.73Z"/><path class="cls-1" d="M86.16,372.56a6.07,6.07,0,0,0-5.83,5.84,3.52,3.52,0,0,0,3.5,3.5,3.48,3.48,0,0,0,3.32-2.52,3.48,3.48,0,0,0-1-6.82Z"/><path class="cls-1" d="M87.93,388.22a40.85,40.85,0,0,1-4.64-3.17,3.53,3.53,0,0,0-2.73-1.65,3.44,3.44,0,0,0-4.88,3.21c0,.09,0,.17,0,.26a3.53,3.53,0,0,0,3,3.44c2,1.27,3.71,2.86,5.79,3.95a3.5,3.5,0,1,0,3.53-6Z"/><path class="cls-1" d="M100.17,369.05a3.54,3.54,0,0,0-3.5-3.5,7.32,7.32,0,0,0-2.68.33,5,5,0,0,0-2.49,1.92,4.68,4.68,0,0,0-.66,2.42,3.52,3.52,0,0,0,3.5,3.5,3.4,3.4,0,0,0,2.59-1.19A3.52,3.52,0,0,0,100.17,369.05Z"/><path class="cls-1" d="M104.89,378.12l0,0a1.85,1.85,0,0,1-.32.17l-1,.34a9.49,9.49,0,0,0-3.5,1.94,3.49,3.49,0,0,0,4.78,5.08l0,0,.32-.16,1-.34a9.53,9.53,0,0,0,3.51-1.94,3.49,3.49,0,0,0-4.77-5.09Z"/><path class="cls-1" d="M118.86,380.73a7.17,7.17,0,0,0-.33-2.69,4.91,4.91,0,0,0-1.92-2.48,4.66,4.66,0,0,0-2.42-.66,3.52,3.52,0,0,0-3.5,3.5,3.37,3.37,0,0,0,1.2,2.58,3.49,3.49,0,0,0,7-.25Z"/><path class="cls-1" d="M125.39,386a3.44,3.44,0,0,0-3-1.73c-3.16.07-7.22,1-8.86,4.07-1.89,3.53,2.66,6.7,5.19,4.59a3.31,3.31,0,0,0,1,1.75l3.73,3.74c2.94,2.93,7.19-.77,5.5-4.24C127.6,391.48,126.68,388.64,125.39,386Z"/><path class="cls-2" d="M102,344.63c-.4-7,3.55-12.31.71-19.34-1.44-3.56-4.7-6.63-3.27-10.72.9-2.6,3-4.24,3.31-7.1.27-2.33-1.43-5.3-2.21-7.41-1.52-4.12-2.79-9.13-2.27-13.49.4-3.32,4.87-4.6,6.8-6.95s.39-6.54,1.35-9.31l-1.88.18c.62,1.37.34,1.14,1.71,1.76a1.36,1.36,0,0,0,1.55-.28c1.7-2.18,4.9.95,7.29-.6,2.64-1.71,3.18-7.66,6-7.95.33,0,1.09-.29,1.07-.74-.08-2.31-.23-5.05,2.2-6.25,1-.5,2.12-.74,3.13-1.2a7.35,7.35,0,0,0,2.14-1.61c.5-.51,4-5,4-3.45,0,.85,1.41.61,1.77.15,1.61-2,1.44-6.51,4.83-6.31.39,0,1.33-.19,1.32-.74,0-2.22-.89-6.26,3.16-6,.42,0,1.29-.19,1.32-.74.38-6.92,5.87-10.57,10.08-15.36,1.87-2.11,3-4.72,4.77-6.9.73-.89,6.35-.88,6.35,0s1.94.61,1.95-.18c.09-9.11,1.84-18.91-2.72-27.28-1.7-3.13-4.95-5.28-7.84-7.18a27.47,27.47,0,0,1-9.69-9.91c-2.64-4.51-4.9-9-4.24-14.36.54-4.28,5.59-7,5.17-11.65-.33-3.63-2-7-3.52-10.21-1.19-2.58-5.4-9.82.11-10.5.48-.06,1.12-.33,1.07-.91-.23-2.65-1.65-4.59-2.69-7-.59-1.37-1.26-1.77-1.79-3.44-.76-2.35.3-5.71.83-8,1.53-6.82-.29-13.06-4.7-18.41-4.87-5.91-12.73-7.65-18.25-12.82a54.71,54.71,0,0,1-7.78-9.58c-2.31-3.42-4.57-5.74.46-6.22.47,0,1.13-.35,1.07-.91-.23-2.23-.44-4.41.52-6.5,1-2.27,4.3,1.48,4.74,2,2.6,3,3.63,7.4,5.09,11C127,67.09,131.8,73.76,138,72.73A12.32,12.32,0,0,0,143,70.59c2.3-1.53,4.46-3.42,7.61-2.74,2,.43,3.45,2.53,4.67,4,2.43,2.91,5.71,4.86,9.12,2.15,1.6-1.28,2.5-3.52,3.35-5.31.34-.69,1.21-3.35,2.29-3.26a4.82,4.82,0,0,0,2.47-.15c4.06-1.87,2.83-11.09,3.08-14.69.49-6.77,1.16-14,4.76-20,2.65-4.36,6.86-2.88,10.74-4.66a7.12,7.12,0,0,0,2.51-1.65c.35-.47,2.54-4.46,2.09-4.46.85,0,2-1.48.7-1.48h-.14c-.86,0-2,2-.7,2h.69c.86,0,2-2,.7-2h-2.24c-.44,0-2,.79-1.1,1.36,2.85,1.84,5.72,3.39,7.88,6.11a50.14,50.14,0,0,0,5.22,5.68c3.59,3.36,13.39,7.22,8.79,13.44A7.9,7.9,0,0,0,214,50.1a23.18,23.18,0,0,1-1.86,9.51c-.86,1.92,0,5.51-.31,7.69-.48,2.9-1.9,5.53-2.35,8.44-1.83,11.88,12.14,18.4,17.39,26.83,7.23,11.63-6.67,21.3-5.5,33.32.61,6.25,3.61,12.2,6.1,17.85,3,6.74,7.75,14.87,8.1,22.33.12,2.39-1.75,4.78-2.62,6.92a13.46,13.46,0,0,0-.78,6.5c.51,3.79,1.66,7.42,1.51,11.28-.09,2.43-1,4.73-1.1,7.15-.12,3.61,3.69,6.56,6.51,8.06,4.24,2.26.65,6.5,1.65,9.72.76,2.42,2.29,4,4.13,5.74,4.58,4.28,4.43,8.34,1.48,13.91-1.88,3.54-4.49,7.3-1.17,10.49,6.79,6.52,15.73,10.42,21.63,17.94,6.9,8.77-.26,20.44-5.62,28-6.82,9.65-13.43,19.41-19.68,29.45-7,11.27-16.3,20.93-24.33,31.44a35.81,35.81,0,0,1-5.65,6c-2.81,2.3-5.26,1.42-8.34,2.45-2.54.85-5,1.83-7.54,2.72-4.11,1.44-9,1.08-13.26,2.08a14.15,14.15,0,0,0-3.8,1.82c-3.37,2-6.88,2.74-10.64,3.68-3.92,1-8.37.07-12.05,1.73-3.18,1.44-2.15,8.44-7.4,5.8-2.65-1.33-4.79-2-7.7-1a8,8,0,0,0-2.62,1.67c-.26.23-4,3.53-4,2a12.78,12.78,0,0,1,.73-4.3c.2-.57-.85-.62-1.13-.51-2.23.79-8.73,3.07-7.08-1.73.09-.26-.21-.46-.4-.52-3.3-1.05.18-3.45.32-5.2.1-1.25-1.44-2-2.43-2.11-1.45-.21-3.24,1.36-4.3,2.1-1.83,1.28-1.41.4-1.54-1.21a17.54,17.54,0,0,0-2.11-6.67c-.22-.44-.7-.42-1.12-.34a7.87,7.87,0,0,0-4,1.71c-1.5,1.27-.68,2.22-2.26.39-3.45-4-2.57-7.31-8.55-7.74-3-.21-2.28-4.51-3.39-6.24a2.72,2.72,0,0,0-1.14-.8c-2-.9.46-4,1.15-4.8,2.13-2.55,3.17-5.89,5.06-8.72.56-.84-1.41-.79-1.83-.16-2.3,3.45-3.91,7-6.28,10.28-.59.82-1.35,3.4-.3,4.13,2.55,1.75,1.62,3.89,3.17,6.3,1.37,2.12,4.54.94,6.55,2.29,2.39,1.61,2.62,5.95,5.21,7.8a2,2,0,0,0,2.16.27c2.08-.85,1.63-2.94,4.75-3.51l-1.13-.34c1.59,3.23,2.57,5.89,1.48,9.53-.13.45.59.61.88.56a10.7,10.7,0,0,0,4.48-2c3.71-2.47,3.55,0,1.8,2.4a1.7,1.7,0,0,0,.12,2.33c1.39,1.57,1.41,1.81,1.69,4.31,0,.27.41.36.62.39,3.17.42,5.76-.48,8.72-1.54l-1.13-.51a17.66,17.66,0,0,0-.75,6c0,.46.48.61.87.56a8.58,8.58,0,0,0,3.88-1.45c3.37-2.19,6.89-4.15,10.94-2.12,1.85.93,5,.7,6.26-1.2,1.35-2.09.92-5,4.28-5.61,2.06-.35,4.16.28,6.26-.12a62.46,62.46,0,0,0,17.05-6c4.92-2.46,10.93-.8,16-3.06,3.77-1.69,7.38-1.58,11.19-2.82,4.18-1.35,7.27-5.18,9.87-8.47,4.8-6.09,9.83-12,14.62-18.09,9.32-11.81,16.91-24.83,25.4-37.23,5.75-8.4,13.47-17.21,12.72-28.07-.7-10.19-14.63-16.94-21.63-22.32-2.61-2-4.78-3.13-4.17-6.58.48-2.71,2.46-5.22,3.61-7.67,1.7-3.65,2-7.54-.67-10.69-1-1.21-2.34-2.21-3.46-3.33-3-3-2.27-6.14-1.89-9.83.4-3.84-5.45-6-7.47-8.37-2.89-3.34.06-8.14-.16-12s-1.47-7.66-1.63-11.59c-.13-3,1.35-5.71,2.64-8.31,2.1-4.22-.35-9-1.84-13-2.24-6-5-11.84-7.53-17.72-2.22-5.1-4.25-10.65-4.13-16.29.12-5.81,4-10.76,6.52-15.71,4.71-9.22-2.71-18.53-9.44-24.16-4.69-3.93-7.6-8.17-8.78-14.24-.55-2.84.69-5.66,1.58-8.27a25.23,25.23,0,0,0,1-8.51c0-2.55,1.43-5.24,2.24-7.64A9.5,9.5,0,0,0,216,51a8.09,8.09,0,0,1,1.71-6.39c1.81-2.45,1.07-4.9-.71-7.12-2.66-3.32-7-4.86-9.82-8.06-2-2.24-4-4.51-6-6.72-1.44-1.59-4.29-2.51-6.11-3.68-.36.39-.73.34-1.1,1.34h2.24c.86,0,2-2,.7-2h-.69c-.86,0-2,2-.7,2h.14c.85,0,2-1.46.7-1.46-1.49,0-2,1.17-2.76,2.33-2,3.22-4,4-7.76,4a6,6,0,0,0-2.76.86c-5.44,3.13-7.27,9.39-8.37,15.19a90.84,90.84,0,0,0-1.17,10.54c-.26,3.68.17,8-1.23,11.47-.35.86-3.69.77-4.61,1.87-1.86,2.21-2.89,8.92-6.63,8.77-3-.11-4.66-4.25-6.76-5.87a7.15,7.15,0,0,0-6.44-1.54,26.88,26.88,0,0,0-7,3.78c-6.84,4.57-12.42-4.73-14.45-9.81-1.56-3.91-3.79-12.93-9.29-13.3-5-.34-4.81,5.43-4.44,9l1.06-.91c-1.13.11-4.13.09-4.74,1.32-1.26,2.5,0,3.26,1.48,5.75,4,6.48,9.75,13.87,17,16.83C136.9,83,144,91.93,142.29,102.29c-.57,3.49-2.49,8-.62,11.48,1.52,2.79,3.68,5.66,4,8.9l1.06-.91c-6.89.86-4.8,6.64-2.68,11.37,1.65,3.69,4,7.61,3.94,11.77,0,2.82-2.69,5.73-4.07,8a10.75,10.75,0,0,0-1.31,6.14c.19,4.4,3.1,9,5.15,12.73,2.21,4.06,5.64,6.47,9.43,8.93,5.08,3.31,8.41,6.95,9.83,13,1.56,6.64.32,13.86.24,20.6.66-.06.91-.12,1.91-.18v-.75c0-.37-.24-.52-.58-.55-5.34-.6-7.87-1.41-11,3.39-4.38,6.75-13,11.85-13.46,20.49l1.33-.74c-5.38-.36-5.86,2.68-5.8,7.46l1.33-.74c-5.66-.33-4.61,3.64-7.37,7.13a12.33,12.33,0,0,1,1.53.15v-.75c0-.45-.23-.62-.63-.56a11.32,11.32,0,0,0-5.08,1.76c-.44.3-.43.85-.6,1.33-.64,1.75-2.19,2.54-3.82,3.09-2.81.95-4.29,2.31-4.77,5.33-.43,2.66-.36,1.57-2.28,3.16-1,.84-1.28,2.47-1.59,3.68-.57,2.18-2.53,4-4.91,3a4.61,4.61,0,0,0-2.06-.51,4.15,4.15,0,0,0-3.17,1.93l1.56-.29L106.5,270c-.3-.65-1.66-.47-1.89.17-1.33,3.82.56,8.2-3.17,10.9-1.9,1.37-3.6,2.28-4.73,4.41-3.18,6,2.63,15.59,4,21.42.82,3.43-3.06,5.65-3.54,8.78-.4,2.64.71,4.47,1.91,6.75,2.09,3.95,3.58,7.61,2.75,12.17-.66,3.66-2,6.77-1.76,10.57C100.13,345.94,102.07,345.5,102,344.63Z"/><path class="cls-2" d="M73.44,375c-1.43-.7-2-2.41-3-3.6a5.53,5.53,0,0,0-4.1-1.72c-.43,0-1.45.25-1.32.85,1,4.87-4.3,2.83-5.23,6.57-1.08,4.29,3.41,4.13,4.48,7.62.1.32.57.38.85.33,3-.55,4,1.41,3.62,4,0,.36.33.47.61.5,4.22.47,6.56-2.65,6.56-6.68,0-.35-.29-.47-.61-.49-1.57-.12-2.15-.7-3.33-1.39-.21.34-.41.69-.62,1,2-.6,7.26,1.85,8-1.43.34-1.51-.29-2.33-1.54-3.17a7.73,7.73,0,0,0-2.39-.84c-1.67-.41-1-1.72-1-3.42,0-.58-.72-.52-1.12-.44A6.93,6.93,0,0,1,69,372c-.56-.27-2.4.41-1.52,1l4.48,3c.58.39,2.35-.44,1.52-1L69,372l-1.52,1a9.16,9.16,0,0,0,6,.8,2.59,2.59,0,0,0-1.28-.44v3.73c0,.35.45.48.77.49a8.37,8.37,0,0,1,3.29.83c1.22.52,1.43,1.41.54,2.64-.53-.05-1-.11-1.56-.19a9.63,9.63,0,0,0-4.14.06c-.35.11-1.26.66-.61,1,0,0,3.53,2.1,3.53,1.49a4.53,4.53,0,0,1-.23,1.79,10.11,10.11,0,0,1-.8,1.92c-1.44,1.16-2.15,1.31-2.12.46a3.8,3.8,0,0,0-1.74-3.49c-.52-.35-3-.23-3.1-.67-.36-1.17-1.58-2-2.53-2.6-2.52-1.71-2.72-4.63.68-5.69,2.73-.84,3.37-2.38,2.82-5.16l-1.33.85c3.76.3,3.51,3.76,6.32,5.13C72.55,376.3,74.3,375.42,73.44,375Z"/><path class="cls-2" d="M78.47,384.5a6,6,0,0,0-3.65,2.6,2.2,2.2,0,0,0,.57,2.6,3.53,3.53,0,0,0,3.14.62,5.42,5.42,0,0,0,3.29-2.74.56.56,0,0,0,0-.57,3.72,3.72,0,0,0-2.69-1.79,5.92,5.92,0,0,0-3.11.87l1.09,1.09,2.24-1.5a.63.63,0,0,0,.09-1.05,1.24,1.24,0,0,0-1.39.1l-2.24,1.49c-1,.67.31,1.48,1.09,1.09a5,5,0,0,1,1.44-.59c.78-.13,1.32.6,1.72,1.16,0-.19,0-.38-.05-.57-.62,1.06-1.9,2.25-3.09,1.24s1.24-2.39,2-2.64C80,385.51,79.65,384.09,78.47,384.5Z"/><path class="cls-2" d="M85.51,389.15c-.81.1-1.48.66-2.24.75-.34,0-1,.24-1.1.65a3,3,0,0,0,3.08,3.51,3.81,3.81,0,0,0,4.07-3.75c0-.26-.14-.33-.37-.4a4.76,4.76,0,0,0-5.1,1.11l1.67.18.75-1.49c.42-.83-1.51-.6-1.8,0s-.49,1-.74,1.49c-.43.86,1.35.5,1.67.18.79-.79,1.28-.72,2.37-.38l-.38-.41c0,1-.37,2.59-1.64,2.4a2.14,2.14,0,0,1-1.65-2.64L83,391c.81-.09,1.47-.65,2.24-.74C86.18,390.11,86.85,389,85.51,389.15Z"/><path class="cls-2" d="M81.4,379.29c-.06.78-.83,1-1.39,1.43a2.16,2.16,0,0,0-.85,1.56.7.7,0,0,0,.66.69,6.92,6.92,0,0,0,6.9-3.32c1.5-2.63-.81-4.53-3.26-4.89-.49-.08-1.28.22-1.31.8-.06,1.3-.64,2.46-.75,3.73-.09,1.06,1.89.82,2-.12.11-1.27.69-2.43.75-3.73l-1.31.8c1.65.25,2.9,1.2,2.15,2.95a4.36,4.36,0,0,1-4.49,2.29l.66.68c.06-.66.92-.93,1.39-1.31a2.36,2.36,0,0,0,.85-1.68C83.46,378.12,81.48,378.36,81.4,379.29Z"/><path class="cls-2" d="M90.27,369.9c-1,0-2.53.4-2.29,1.66s1.55,2.6,2.45,3.52c.33.33,1.66-.16,1.87-.5a3.85,3.85,0,0,0,.63-3.26,2.48,2.48,0,0,0-2.45-1.43,2.6,2.6,0,0,0-1.36.37c-.32.19-.26.38.1.4,2.43.09,2.1,2.8,1.17,4.27l1.87-.5a13.92,13.92,0,0,1-1.79-2.19,5.1,5.1,0,0,1-.51-1.05,2.15,2.15,0,0,1-.09-.44c0-.46.37-.14-.44-.1a2.2,2.2,0,0,0,1.29-.46C91.06,369.9,90.43,369.89,90.27,369.9Z"/><path class="cls-2" d="M94.17,366c-3.52-.91-2.32,4.11-2.3,5.9,0,.34.29.48.6.48h3c.44,0,1.21-.18,1.33-.7a5.78,5.78,0,0,0,0-3.7,4.09,4.09,0,0,0-2.58-2c-.65-.23-2.27.71-1.17,1.1,2.23.78,2.34,2.82,1.86,4.87a3.42,3.42,0,0,1,1.33-.6h-3c.2,0,.4.22.6.38,0-.85-.09-1.73-.16-2.57,0-.45-.06-.93-.06-1.38a4.32,4.32,0,0,1,0-.62c.08-.7.24.15-.64-.08C93.66,367.27,95.28,366.28,94.17,366Z"/><path class="cls-2" d="M101.88,369.37h-3c-.42,0-1.49.72-1,1.25,1.79,1.8,3.36,3.68,2.89,6.4-.12.64.76.71,1.16.64a12.73,12.73,0,0,1,8.22,1.48,1.17,1.17,0,0,0,1.54-.73c.59-4.64-5.76-8.87-9.86-8.87-1.12,0-1.47,1.46-.16,1.46,3.21,0,8.51,4,8,7.55l1.54-.73a14.8,14.8,0,0,0-9.7-1.51l1.17.62c.51-3-1.09-4.9-3.09-6.9-.32.38-.64.34-1,1.34h3C102.84,371.37,103.18,369.37,101.88,369.37Z"/><path class="cls-2" d="M117.29,379.33a13.67,13.67,0,0,0-5-.8,1.19,1.19,0,0,0-1,.6c-1.14,2.2.49,4.46,2.37,5.73.92.63-.49,1.54-.65,1.92-.46,1.11.12,1.21-.34,2.65a8.34,8.34,0,0,0-.68,4.25c0,.36.59.47.88.44,2.8-.27,4.45-1.74,5.49-4.33l-1.67.45a14.63,14.63,0,0,1,5.75,7.17l.79-.91a6.53,6.53,0,0,0-2.87,1.86c-.45.44,0,.9.47,1,4.08.74,11.07-.11,10.17-6-.41-2.69-4.25-5.28-6.24-6.76-3.47-2.56-7.82-3.48-11.06-6.39l-.57,1.21,3.73-.74c1.22-.25.85-1.55-.35-1.32l-3.73.75c-.57.11-1.09.74-.57,1.21,3.43,3.08,8,4.16,11.73,6.89,2,1.46,4.2,3.32,5.13,5.67s-2.05,4.17-3.73,4.41a12.13,12.13,0,0,1-3.84-.3c.16.32.32.65.47,1l1.61-1.12c.35-.11.95-.45.79-.92a15.8,15.8,0,0,0-6.19-7.76,1.25,1.25,0,0,0-1.67.45c-.48,1.2-3.43,3.54-2.26.68a5.22,5.22,0,0,0,.52-1.43c.13-1.43.83-2.27,1.35-3.52.38-.91-6.8-7.31,0-4.68C117,380.94,118.43,379.77,117.29,379.33Z"/><path class="cls-2" d="M101.92,381.66a2.9,2.9,0,0,0-1.44.53c-.51.36-1.22.11-1.7.6a6,6,0,0,0-1.56,2c-.25.76,0,1,.61,1.49a6,6,0,0,0,5.88.89c1.37-.47,3.26-1.49,3.55-3.07.35-1.89-2.79-1.76-3.85-1.67l.65.08-1.5-.74c-.59-.3-2.36.55-1.53,1l1.47.74c.59.29,1.43,0,2.09.11.92.18.85,1,.32,1.55a4,4,0,0,1-2.9,1.28,3.8,3.8,0,0,1-2-.62,4.37,4.37,0,0,1-.9-.76c-.4-.41,1-1.61,1.22-1.85l-.91.38a4.86,4.86,0,0,0,1.6-.33,3.92,3.92,0,0,0,.53-.29c.15-.1.41-.15.11-.13C102.64,382.7,103.26,381.54,101.92,381.66Z"/><path class="cls-2" d="M162.42,379.14a2.47,2.47,0,0,0-1.81,3.72,3.1,3.1,0,0,0,4.68.26c1-1.07.51-2.76-.37-3.73-1.15-1.27-3.33-.95-4.5.14-1.61,1.51-.79,3.7,1,4.63a3.51,3.51,0,0,0,4.7-1.77c1.14-2.9-3.49-3.94-5.41-3.22a2.35,2.35,0,0,0-1.46,3.1c.37,1.28,1.39,3,2.79,3.35,2.77.66,3.75-2.83,3.64-4.87a2.56,2.56,0,0,0-1.53-2.46,4,4,0,0,0-4,1.47c-1.17,1.44,0,3.82,1.54,4.34,2.29.76,3.91-1.64,3.53-3.62a4.19,4.19,0,0,0-3.76-3.22A2.14,2.14,0,0,0,159,379c-.17,1.84,1.39,5.27,3.56,5.21,4.28-.12,2.49-7.32-1.56-5.83-2.07.76-1.34,3.09-.32,4.39a3.17,3.17,0,0,0,4.66.52c5.19-4-9-9.29-6.6-2.07.65,2,2.21,3.46,4.42,2.89a3.39,3.39,0,0,0,2.66-4.31c-.66-2.28-2.93-2.26-4.47-.75-1.16,1.14-1.91,4-.07,4.87,2.06,1,4.67-1.26,4.17-3.39-.78-3.35-5.22-.84-3.76,2,.27.53,1.18.39,1.58.08,1.48-1.15,1.45-2.79-.22-3.76a1.43,1.43,0,0,0-1.67.45c-.81,1.18-1.23,3.48,0,4.55s4.37,0,4.79-1.63c.53-2.05-1.67-3.73-3.51-3.84-2.14-.12-4.95,1.76-4.33,4.15s3.77,2,5.46,1.29c1.53-.61,4.21-2.6,3.42-4.58s-3.7-1.79-5.32-1.37c-2,.54-3.67,2.27-3,4.48.55,1.86,2.68,2.69,4.44,2.57a4,4,0,0,0,3.67-4.1c-.1-2.28-2.74-2.94-4.57-2.8a3.64,3.64,0,0,0-3.16,3.49c0,1.84,2,2.69,3.56,2.43a4.28,4.28,0,0,0,3.44-3.86c.1-1.88-2.26-2.65-3.74-1.93a2.49,2.49,0,0,0-.74,4.15c.56.48,2.37-.28,1.79-.78a1.75,1.75,0,0,1-.38-2.37c.28-.34.95.45,1,.68a2.09,2.09,0,0,1-.06,1.35c-.3,1-1.07,1.89-2.14,1.4a1.79,1.79,0,0,1-.67-2.3c.4-1.27,1.55-1.29,2.6-.73a2.35,2.35,0,0,1,.86,3c-1.19,2.75-4.5.09-4.07-2.13.38-2,4.7-2.39,4.63-.16s-4,4.22-5.11,1.73c-.64-1.47,1.23-2.81,2.51-2.21.88.42,1.87,1.67,1.44,2.69-.16.37-.82.78-1.17.46a1.73,1.73,0,0,1-.43-1.05,3.7,3.7,0,0,1,.59-2.51l-1.66.45c.73.42,1.4,1.41.51,2.1l1.58.08a2.15,2.15,0,0,1-.22-1.55c0-.09.07-.17.1-.26.22-.28.09-.3-.4-.07a2,2,0,0,1,.42.93c.16.54,0,1.76-.75,1.87s-.57-2.1-.48-2.41a2.71,2.71,0,0,1,1-1.39c.15-.1.68,1.54.72,1.76.17.83-.29,2.16-1.29,2.15-1.23,0-1.81-1.58-2.13-2.53a2.14,2.14,0,0,1,0-1.7c0-.08.11,0,0,0a1.85,1.85,0,0,1,.7.06,5.09,5.09,0,0,1,3,2,1.52,1.52,0,0,1,.21,1.32c-.26.87-.89.77-1.45.32a3.92,3.92,0,0,1-1.39-2.49,1.15,1.15,0,0,1,.12-.61c.09-.18,0,0,.22.1a3.22,3.22,0,0,1,1.15,1.79c.15.46.11,1.62-.27,1.81.44-.22.52,0,.14-.2a2.58,2.58,0,0,1-.61-.58A5.94,5.94,0,0,1,161,379a1.68,1.68,0,0,1,.08-.63c.06-.23-.15,0-.39,0a3,3,0,0,1,2.1,1.21,3.88,3.88,0,0,1,.63,1.61c0,.23,0,1.8-.49,1.7-1-.18-1.27-1.89-1.09-2.68.08-.38.69-1,1.09-.9s.59.63.7,1a5.2,5.2,0,0,1-.25,3.39c-.11.25-.6.83-.39.76s.21,0-.08-.16a2.9,2.9,0,0,1-.77-.83c-.34-.45-1.93-3.23-.58-3.41a2.7,2.7,0,0,1,2.77,1.57,1.46,1.46,0,0,1-.3,1.22c-.53.8-1.39.16-1.89-.35a2,2,0,0,1-.49-2.16.83.83,0,0,1,1.4-.32,2.34,2.34,0,0,1,.67,2.69c-.11.2,0,.1-.18.1a1.36,1.36,0,0,1-1.13-.85,2.09,2.09,0,0,1-.11-1.13,2.58,2.58,0,0,1,.12-.42c.17-.39.36-.19-.19-.13,1-.11,1.57-1.33.23-1.18Z"/><path class="cls-2" d="M112.52,347.12c-.13,5.22-1.47,10.63-2.71,15.68-.23,1,1.75.74,2-.13,1.24-5.06,2.58-10.46,2.71-15.69,0-1-1.94-.75-2,.14Z"/><path class="cls-2" d="M112,357.39c2.82-.6,5.54-1.61,8.39-2.12,1-.18,1.51-1.53.2-1.3-3,.55-5.92,1.58-8.92,2.22-1.2.25-.86,1.45.33,1.2Z"/><path class="cls-2" d="M122.27,346.64c-.12,5.87-1.54,11.58-2.71,17.3-.14.72,1.8.4,1.93-.25,1.17-5.72,2.59-11.43,2.71-17.3,0-.79-1.92-.37-1.93.25Z"/><path class="cls-2" d="M127.67,346.77c.3,5.36-3,9.88-3.24,15.14a.18.18,0,0,0,.17.11c3.45,1.08,7.06,0,10.32-1.24,1.29-.49.06-.7-.66-.42-1.24.47-8,2.94-7.86.18a18.23,18.23,0,0,1,1.31-5.11c1-3,2.07-5.92,1.89-9.18,0-.33-2,0-1.93.52Z"/><path class="cls-2" d="M129.29,348.6c1.56-1.43,3.76-1.35,5.75-1.35-.3-.23-.91-.45-.91-.67v4.86c0,1.05,2,.78,2-.13v-4.86c0-.52-.47-.68-.91-.67-2.52,0-5.27.09-7.22,1.89-1,.88.54,1.61,1.29.93Z"/><path class="cls-2" d="M128.11,356.89c1.84-.9,5.14-2,3.66-4.69-.22-.4-1.76.09-1.92.44a10.76,10.76,0,0,0-.56,4.41c0,.26,1.94,0,1.94-.52a10.33,10.33,0,0,1,.52-4.25l-1.91.44c1.29,2.31-1.16,3.16-2.83,4-.13.06-.69.38-.25.45a2.44,2.44,0,0,0,1.35-.25Z"/><path class="cls-2" d="M127.19,362.37h5.41c.36,0,1.3,0,1.33-.49.07-1.1.48-2,.54-3.14.05-.83-1.89-.41-1.93.27-.06,1.11-.48,2-.54,3.15.44-.23.89-.79,1.33-.79h-5.4a1.49,1.49,0,0,0-1.28.47c-.24.38.21.53.54.53Z"/><path class="cls-2" d="M142.13,346.25v-.56c0-.3-2,0-2,.52,0,5.27.06,11.5-2.72,16.16-.11.18.23.21.32.21a13.58,13.58,0,0,0,7.93-1.46c2.49-1.47,2.8-4.7,2.85-7.3l-1.94.52c.14,2.52-.14,5-3.23,5.65a16.44,16.44,0,0,1-3.29.19c-.51,0,0-1.31,0-1.7.52-4.46,1-9,2.47-13.22.12-.35-1.74-.14-1.9.34-1.71,4.9-2.1,10.12-2.72,15.23,0,.12.3.13.34.13,5.26,0,10.59-.68,10.24-7.14,0-.33-1.92,0-1.93.52,0,2.17-.23,4.38-1.67,6.11a4.47,4.47,0,0,1-3.41,1.4c-.9.43-1.52.29-1.85-.41a14.17,14.17,0,0,0,1.32-3.8,49.94,49.94,0,0,0,1.06-11.95c0-.3-1.92,0-1.92.52v.56c0,.3,2,0,2-.52Z"/><path class="cls-2" d="M160.36,345c-3.68-3.85-9.17.73-8.89,5.13.13,1.94,2.05,2.51,3.63,2.82,5.39,1.09,2.11,8.2-3,6L151,360.08c2.65.14,9.41-.85,8.65-5-.36-2-2.07-3.52-3.84-4.41a9.59,9.59,0,0,1-2.73-1.42c-2.12-2,2.18-5,3.88-2.34.38.6,2.25,0,1.78-.78-2.2-3.44-7.76-1.5-8,2.34-.12,2,2.14,2.58,3.55,3.19a6.43,6.43,0,0,1,3.33,3.38c1.24,3.24-4,4-5.89,3.87-.36,0-2,.7-1.13,1.08,4.15,1.79,10.15-.31,9.17-5.66-.33-1.82-2.4-2.23-3.91-2.53-5.4-1.09-.6-9.45,2.72-6,.5.53,2.34-.2,1.79-.78Z"/><path class="cls-2" d="M168.18,343.89l-.41-.06a1.85,1.85,0,0,0-1.5.49c-.94,1.27-.84,4-1.16,5.58a45.56,45.56,0,0,0-1.2,7.69l1.93-.52c.1-4.61,1.63-9.58,0-14.06-.21-.57-1.93-.05-1.93.52,0,4.87-.51,9.73-.54,14.6l1.93-.52a20.83,20.83,0,0,1,2.15-11.25l-1.92.3a50.47,50.47,0,0,1-2.7,11.9c-.19.48,1.7.26,1.92-.3a50.36,50.36,0,0,0,2.7-11.9c.1-.67-1.71-.13-1.92.3a21.21,21.21,0,0,0-2.16,11.47c.06.53,1.92.07,1.93-.52,0-4.87.5-9.73.54-14.6l-1.93.52c1.63,4.49.1,9.42,0,14.06,0,.44,1.9.13,1.93-.52a41,41,0,0,1,1.19-7.46c.29-1.32.2-4.26,1-5.35l-1.49.48.41.06c.51.08,2.26-.76,1.22-.91Z"/><path class="cls-2" d="M164.76,345.47c1.56-.68,3.78-.4,5.44-.4,1.11,0,1.47-1.44.16-1.44-2.1,0-4.49-.19-6.46.67-1.21.53-.14,1.61.86,1.17Z"/><path class="cls-2" d="M162.05,359.77c0-.09-.41.18,0,.08a6,6,0,0,1,1.13-.17c.82-.07,1.64-.08,2.46-.08a1.5,1.5,0,0,0,1.14-.4c.2-.21.29-.63,0-.78a10,10,0,0,0-4.19-.66,1.38,1.38,0,0,0-1.27.57c-.22.41.19.71.57.73,1.1.05,2.14.49,3.24.54.24-.43.47-.87.7-1.3a4.31,4.31,0,0,0-.72,0c-.31.05-1.33.38-1.07.91.11.23.43.32.48.53.16.82,2.1.33,1.93-.52a.87.87,0,0,0-.28-.5c-.18-.17-.4-.45-.2,0l-1.06.91a.82.82,0,0,1,.22,0,1.37,1.37,0,0,0,1.27-.57c.22-.41-.19-.72-.57-.73-1.1-.05-2.14-.49-3.24-.54-.24.43-.47.87-.7,1.3a8.21,8.21,0,0,1,3.38.42l1.1-1.18c-1,0-7-.22-6.18,2,.31.81,2.23.26,1.93-.52Z"/><path class="cls-2" d="M174.19,346.15a123.54,123.54,0,0,0-4.32,13.52l1.92-.44c.21-5.25,3-9.89,3.24-15.14l-1.93.52c1.08,4.32.5,9.22,3.24,13,.3.4,1.56-.08,1.84-.35,4.06-3.91,3.92-10.15,5.49-15.23l-1.92.43a39.54,39.54,0,0,1-1.3,8.44c-.14.61-2.4,7.8-3.14,7.34-1.53-1-1.65-4.72-1.85-6.25a57.21,57.21,0,0,1-.43-6.8c0-.39-1.75.16-1.91.44-2.21,3.62-2.83,7.94-5.41,11.36l1.9-.36a25.54,25.54,0,0,1,3.7-5.86c.38-.41-1.44-.15-1.74.17a26,26,0,0,0-3.86,6.05c-.15.29,1.63,0,1.9-.36,2.59-3.42,3.2-7.74,5.41-11.36l-1.92.44c0,2.59-.41,14.57,4.19,13.33,2.44-.65,3.38-3.21,4.15-5.36a38.17,38.17,0,0,0,2.24-11.73c0-.31-1.8.05-1.91.43-1.53,4.95-1.38,11.24-5.33,15.05l1.84-.34c-2.74-3.76-2.17-8.66-3.25-13-.09-.39-1.91.08-1.93.52-.22,5.25-3,9.89-3.25,15.14,0,.28,1.83,0,1.92-.44a121.3,121.3,0,0,1,4.33-13.51c.11-.32-1.74-.12-1.91.35Z"/><path class="cls-2" d="M192.12,343.28c-3.49-2.6-6.65,12.33-7.61,14-.53.89,1.43.82,1.83.16a28.46,28.46,0,0,0,2-5.79c.48-1.48,1-3,1.52-4.42.21-.57.45-1.13.7-1.68.11-.23.22-.45.34-.67.51-1,.32,0-.33-.52.62.47,2.35-.42,1.5-1.05Z"/><path class="cls-2" d="M196.51,340.27c-2.63,3.79-4.8,9.62-9.64,11-.6.16-1.24,1-.38,1.33,2.91,1.08,6.07,1.58,8.46,3.69.66.57,2.34-.38,1.49-1.13-2.51-2.2-5.79-2.75-8.84-3.88-.12.45-.25.89-.38,1.33,5.58-1.56,7.89-7.37,10.91-11.74.7-1-1.11-1.32-1.62-.58Z"/><path class="cls-2" d="M187.71,343.43c-2.1,4.52-2.09,9.83-4.86,14.06-.19.27,1.58.17,1.91-.32,2.77-4.23,2.76-9.54,4.86-14.06.18-.38-1.67-.2-1.91.32Z"/><path class="cls-2" d="M195.86,342.08c-2.79,4.25-6.83,7.4-10.16,11.18a.56.56,0,0,0,.24.93c2.07.94,4.34,1.46,6.31,2.61.72.42,2.42-.56,1.49-1.11-2.1-1.22-4.48-1.79-6.68-2.79.09.31.17.61.25.92,3.43-3.9,7.52-7.15,10.39-11.53.58-.88-1.39-.9-1.84-.21Z"/><path class="cls-2" d="M203.93,342.86c-.88,4.15-1.7,8.32-2.71,12.44l1.93-.27c.5-4.34.63-8.71,1.62-13l-1.93.39c-.11,4.59-1.57,9-2.7,13.4-.16.65,1.77.35,1.93-.27,1.15-4.5,2.59-9,2.7-13.64,0-.57-1.8-.13-1.92.39-1,4.27-1.12,8.64-1.63,13-.08.72,1.79.31,1.93-.27,1-4.12,1.83-8.29,2.7-12.44.15-.67-1.79-.34-1.92.27Z"/><path class="cls-2" d="M200.48,343.37h7c.74,0,1.57-.94.64-1.36-2.4-1.07-5-.61-7.51-.58-1.12,0-1.46,1.45-.16,1.48a8.82,8.82,0,0,1,4.75,1.46c.75.48,2.42-.53,1.48-1.14a11.24,11.24,0,0,0-6.07-1.78l-.16,1.47c2.22,0,4.47-.27,6.56.66.21-.46.42-1.21.63-1.21h-7c-1.12,0-1.46,1-.16,1Z"/><path class="cls-2" d="M198.54,357.22a22.86,22.86,0,0,0,6.7-1.24c.18-.06,1-.51.44-.68a18.65,18.65,0,0,0-5.25-.69c-.27.29-.54.76-.81.76H205c.57,0,2.1-1,.81-1h-5.41c-.58,0-2.1,1.05-.81,1.05a15.09,15.09,0,0,1,4.48.6c.15-.23.3-.41.44-.63a17.67,17.67,0,0,1-5.19.94c-.58,0-2.11.92-.81.89Z"/></svg>