<svg id="layer1" xmlns="http://www.w3.org/2000/svg" viewBox="0 0 312.13 199.73"><defs><style>.cls-1{fill:#fff;}.cls-2{fill:#492d0c;}.cls-3{fill:#15589b;stroke:#492d0c;stroke-miterlimit:10;}</style></defs><path class="cls-1" d="M57.13,28.84c18.73-.12,40.19-1.1,54.13-1.36,37.22-.69,126.08-1.32,167.21-.06,3,.1,3.5,103.76,2.95,117.69,0,0-195.13,2.27-224.5,1.73-.47,0-2.39-51.81-1.71-69.23-1.12-15.74-.51-31.42.11-47.09Z"/><path class="cls-2" d="M56.77,29.45c23.53-.19,47-1.3,70.59-1.62q32.83-.43,65.68-.51c22.44-.06,44.88,0,67.31.31q6.48.11,13,.26c2.28.06,4.39-.89,4.84,1.56a102.29,102.29,0,0,1,1.08,13.2c1,19.54,1.15,39.14,1.31,58.71.13,14.6.46,29.26-.09,43.85l1.33-.7q-79,.92-158,1.55-21.28.16-42.57.25c-5.07,0-10.14,0-15.22,0l-5.57,0c-1.76,0-2.59.52-2.69-.58-1.49-15.6-1.37-31.52-1.62-47.18-.12-7.67.43-15.49-.08-23.14-.57-8.44-.56-16.91-.4-25.37.07-3.92.2-7.84.34-11.76.12-3.31-.6-6.87,1.93-9.2.85-.79-1.06-.89-1.58-.41s-2,1.33-2,2q-.23,5.88-.44,11.76c-.28,8.5-.39,17-.16,25.5.26,9.53.29,19,.41,28.56.2,16.23.49,32.53,1.58,48.72.22,3.25,2.36,2.32,5.23,2.34,4.64,0,9.28,0,13.92,0,14.07,0,28.15-.12,42.22-.21q81.86-.58,163.71-1.6h.24c.38,0,1.31-.16,1.33-.7,1.07-28.75.18-57.75-.62-86.49-.19-6.64-.41-13.27-.8-19.89-.2-3.53-.16-7.42-1.15-10.84-.29-1-.92-1-1.92-1q-6.7-.2-13.41-.31c-10.42-.19-20.83-.27-31.25-.33q-44.37-.24-88.73.28c-29,.29-58,1.58-87,1.81C56.7,28.25,55.46,29.46,56.77,29.45Z"/><polygon class="cls-3" points="138.69 27.5 113.98 27.5 114.13 147.25 139.27 147.51 138.69 27.5"/><polygon class="cls-3" points="280.63 101.72 280.63 74.71 54.91 77.61 54.31 103.45 280.63 101.72"/></svg>