<svg id="layer1" xmlns="http://www.w3.org/2000/svg" viewBox="0 0 250.56 240.24"><defs><style>.cls-1{fill:#203b54;}.cls-2{fill:#5484a8;}.cls-3{fill:#492d0c;}</style></defs><path class="cls-1" d="M150.7,130.68a3.35,3.35,0,0,0-1-.27c-7.06-.69-13.24-.8-19,3.86a3.66,3.66,0,0,0-.51,5.22,3.64,3.64,0,0,0,1.17,3.45c.45.38.9.74,1.36,1.09a26.34,26.34,0,0,0,4.74,3.58,13,13,0,0,0,4.09,1.72,3.86,3.86,0,0,0,4.86.84,11.9,11.9,0,0,0,5-5.83c1.18-2.62,1.42-5.69,3.2-8C156.93,133.3,153.48,129.57,150.7,130.68Z"/><path class="cls-1" d="M141.56,92.64c-3,1-5.45,3.14-6.67,7.18a7.41,7.41,0,0,0-.26,3.39,60,60,0,0,0-1.85,6.16,2.9,2.9,0,0,0,.75,3c0,.27.05.54.1.8l-.11.07c-2.81,1.92-1.32,6.83,2.23,6.39.41-.05.8-.12,1.2-.18a3,3,0,0,0,.42,0,32.8,32.8,0,0,0,11.74-1.41,3.46,3.46,0,0,0,1.15.3c7.87.68,13.64-6,19.34-10.4a3.64,3.64,0,0,0,.14-5.64c-.09-.1-.16-.2-.26-.3h0c-5.14-4.75-9.17-9.81-16.59-11.37C149.23,89.93,144.07,89.74,141.56,92.64Z"/><path class="cls-1" d="M176.75,124a14.29,14.29,0,0,0-3.13.26,3.21,3.21,0,0,0-2.12,0,11,11,0,0,0-3.2,1.79,44.17,44.17,0,0,0-5,2.86c-2,1.29-1.8,4.32-.24,5.71a4.06,4.06,0,0,0,.42,3.14c3.87,6.8,10.25,9.74,17,13a3.49,3.49,0,0,0,1,.32c2.17,2.42,7.12.18,5.89-3.58-2.64-8.06,1-16.85-4.66-24.13A3.42,3.42,0,0,0,176.75,124Z"/><path class="cls-1" d="M166,158.1c-.64.23-1.28.45-1.92.65-.1,0-.19-.1-.31-.14-5.33-1.87-10.53-3.66-15.18.53a2.55,2.55,0,0,0-.76,1.34,39.78,39.78,0,0,0-5,2.67h-.06a3.08,3.08,0,0,0-1.85,1.21c-.89.59-1.79,1.22-2.68,1.87a25,25,0,0,0-5.08,3.88c-2.82,2.79,1.49,7.55,4.62,5.18,1.71-1.3,3.38-2.61,5.05-3.83,7.57-4.17,17.44-3.79,25.49-6.76C172.51,163.15,170.21,156.54,166,158.1Z"/><path class="cls-1" d="M117.85,132.45c3.3-3.07-.68-5.22-2.81-1.25-3.94,7.36-13.86,10.54-20.78,14.73-6.62,4-13.5,7.58-20.32,11.2-6.38,3.4-13.12,6.35-18.78,10.9-3.07,2.47-4.53,5.35-6,8.45a14.16,14.16,0,0,0-1.16,1c-4.87,3.62-4.85,10.46-1.34,15.13a3.86,3.86,0,0,0,1.14,2.17c.11.11.24.2.36.3a3.57,3.57,0,0,0,1,1.63c3,2.65,6.57,3,10.23,2.61a37.72,37.72,0,0,0,5.53.46c2.42,0,3.37-2,3-3.82a3.86,3.86,0,0,0,.21-4.12C65.46,187,61,183.27,56.87,179.7a3.07,3.07,0,0,0-1.43-.69c.28-.67.56-1.33.88-2,1.52-3.16,5.45-5.33,8.33-7.1,6.41-3.93,11.17-8.6,17.8-12.15A164.78,164.78,0,0,0,117.85,132.45Z"/><path class="cls-1" d="M117.5,113c-2.47-3.8-3.82-8.12-5.44-12.32-.34-.88-.73-1.74-1.15-2.58-.32-1.33-.6-2.64-.85-3.88a3.58,3.58,0,0,0,.18-1.17c.05-.14.09-.3.13-.45a5.26,5.26,0,0,0,3.43-.32,3.48,3.48,0,0,0,1.92.42,33.34,33.34,0,0,0,8.55-1.19c3-1,2.78-4.44.94-6a3.51,3.51,0,0,0-.69-.7,37.12,37.12,0,0,1-4.37-3.93,3.67,3.67,0,0,0-.31-.67,31.74,31.74,0,0,0-7.1-8.24,68.13,68.13,0,0,0-5.27-6c-2.23-2.18-7-5.52-11.45-6.56-1.1-1.35-3.15-1.15-4.59-.06A5.4,5.4,0,0,0,88.77,61a3.55,3.55,0,0,0,1.17,5.45l.18.08C91,74,94.47,80.83,97.57,87.63c2.12,4.64,5,9,7.13,13.59.16.47.31.92.43,1.33,1.48,4.85,3.24,10.4,6.56,14.34C114.55,120.27,120,116.83,117.5,113Z"/><path class="cls-1" d="M135.11,67.21a17.86,17.86,0,0,1-1.37,2.87,2.14,2.14,0,0,0-.38.23c-1.29-1.24-2.78-2.34-4.11-3.44a4.05,4.05,0,0,0-.72-.45c-3.71-4.32-7.27-8.77-11.71-12.41-6.22-5.09-14-7.77-21.81-9.32l-.58-.18s0,.05,0,.08c-4.44-.74-5.28,5.61-1.13,6.9a51.71,51.71,0,0,1,11,4.66,3.38,3.38,0,0,0,.46.47c3.67,3.05,7.56,5.81,11.23,8.86l.34.29,0,0a3.2,3.2,0,0,0,3,.39c3,3.37,5.72,7,8.83,10.25a2.74,2.74,0,0,0,.51,2.94c.62.76,1.2,1.53,1.82,2.29,1.58,1.9,5,2.21,6.08-.48a7.62,7.62,0,0,0,.41-1.32c2.58-1.23,4-3.52,2.8-6.39a30.75,30.75,0,0,0,1.59-3.2C143.16,66.08,136.87,63,135.11,67.21Z"/><path class="cls-2" d="M111.42,139.37a3.55,3.55,0,0,0-1,.75c-8.08,8.93-20.19,12.45-29.1,20.35-7.6,3.37-14.92,7.49-20.48,13.63l0,0c-.5-.06-1-.11-1.56-.13-3.54-.18-4.33,5.41-1.22,6.66.6.24,1.19.49,1.77.74l.2.15a36.45,36.45,0,0,0,5.61,6.26,10,10,0,0,1,2.53,4.47,13.45,13.45,0,0,1-.93,2.85,3.53,3.53,0,0,0,5.13,4.39c3.35-2,7.68-1.88,11.44-2.69A71.3,71.3,0,0,0,97,192.25c5.13-2.2,10.67-5.93,14-10.76,7.25-2.76,10.63-13.74,12.66-20.2,3.15-10,1.43-18.24-6.61-25.39C114.46,133.57,110.82,136.28,111.42,139.37Z"/><path class="cls-2" d="M186.27,119c-1.93.51-3.62,2.42-2.66,4.53,1.7,3.71,4.45,9.65,5.24,15.09a3.18,3.18,0,0,0-.41.66,18.76,18.76,0,0,0-1.39,9.11c-.83,3.31,3.16,6.56,5.85,3.42.1-.12.18-.26.27-.26h0l0-.13v-.06a2.54,2.54,0,0,0,2.46-1.08,10.44,10.44,0,0,0,3-6.19c4.9-7.65-2.35-18-5.76-25.11C191.46,115.94,187.16,116.07,186.27,119Z"/><path class="cls-2" d="M148.66,32c-4.84-.41-9.09,3.32-10.25,8-1.42,5.74-.46,11.06,1.15,16.45a27.13,27.13,0,0,0,.95,9.26c1.36,5.59,1.2,9.41-2.09,14.3a34.25,34.25,0,0,1-5.15,6,3.65,3.65,0,0,0-3.07.14c-3.91,2-8,3.64-11.93,5.46-.39.11-.78.23-1.18.32-2,.48-4.55,1.24-5.5,3.23a2.84,2.84,0,0,0-.34,3.31,32.62,32.62,0,0,0,1.91,6.14c1.65,4.75,3.65,9,3.93,14.15a3.08,3.08,0,0,0,2.08,2.89,3.42,3.42,0,0,0,4,1.34c9.62-3.17,10.27-13.43,12.26-21.92,2.55-10.91,13.61-14.7,22.88-10.56.37.2.74.41,1.09.62a50.19,50.19,0,0,0,5.84,5.43,15.85,15.85,0,0,0,10.06,7.63,3.46,3.46,0,0,0,3.79-1.95,9.07,9.07,0,0,0,0-5.48,3,3,0,0,0-.3-3.27c-.56-.74-1.1-1.5-1.65-2.24a3.13,3.13,0,0,0,1.12-3.81c-4.35-9.49-9.84-18.35-15-27.4a145,145,0,0,1-7.06-13.83,47.07,47.07,0,0,0-2.23-4.5c.5-1.69.89-3.37,0-5C153,34.78,151.16,32.23,148.66,32ZM127.93,99.63a3.62,3.62,0,0,0-.35-1.48c.33-.16.67-.3,1-.47-.22.72-.44,1.44-.65,2.17Zm-7.51.79a3.77,3.77,0,0,0-1,.91c-.08-.23-.15-.47-.23-.7Q119.81,100.54,120.42,100.42Z"/><path class="cls-3" d="M155.68,48.68c7.17,19.2,18.62,36.22,28.45,54.12a274.09,274.09,0,0,1,13.15,26.14c2.58,6.18,3.72,12.86-.28,18.72-3.16,4.62-9,7.11-14,8.92-5.43,1.95-10.89,3.81-16.33,5.71-11.08,3.87-22.12,7.89-32.82,12.7-22.6,10.16-42.26,25.36-68.28,24.36-.73,0-2,1.06-.74,1.11,25.35,1,45-12.77,66.88-23.31,11.53-5.55,23.67-9.83,35.72-14.05,9.76-3.42,21.26-5.8,29.14-12.86C209.13,139,195,119,189.2,108.08c-10.6-19.92-23.67-38.71-31.59-59.92-.26-.69-2.17-.12-1.93.52Z"/><path class="cls-3" d="M157.61,48.16c-.89-3.74-2.64-7.39-3.88-11a10.63,10.63,0,0,0-5.21-5.93c-2.33-1.07-3.73-1-5.59.84-3.31,3.23-4.5,8-5.18,12.41A42.51,42.51,0,0,0,137.67,57c.78,5.15,3.09,9.85,2.92,15.16,0,1,1.93.67,2-.16.18-5.87-2.31-11.31-3.17-17a36.68,36.68,0,0,1,2.14-17.81c.8-2,2.18-4.5,4.28-5.46,2.53-1.17,6,5.85,6.46,7.26,1.05,3.11,2.67,6.54,3.42,9.69.2.86,2.14.35,1.93-.52Z"/><path class="cls-3" d="M140.6,72.38C141.16,80.63,131.26,85.8,125,89a43.58,43.58,0,0,1-11.09,3.47,9.16,9.16,0,0,0-3,1.16c-7,4.61-.76,11.19,2.42,16.56,2.27,3.84,4.12,7.93,4,12.47-.12,4.28-3.47,8-6.23,10.91-7,7.38-15.9,13.11-24.49,18.47-8,5-16.36,9-24.52,13.57-5.9,3.33-17.14,8.75-18.42,16.33-.82,4.88-.8,10.3,2.09,14.53,4.13,6.07,13.11,5,19.25,3.77.75-.15,1.73-1,.37-.67-8.39,1.69-17.59,1-19.81-8.6-1.27-5.46-.43-11.3,3.57-15.3,7.61-7.62,18.24-11.94,27.57-17a220.29,220.29,0,0,0,23.1-14.43c6.33-4.52,13-9.56,17.33-16.11,4.77-7.17.31-15-3.62-21.36-1.68-2.74-3.77-5.61-4.17-8.88-.67-5.45,8.52-5,12.08-6.48,7.61-3.27,21.8-9.53,21.12-19.58,0-.32-2,0-1.93.52Z"/><path class="cls-3" d="M200.08,141.45c-1.26,6.83-.46,12.61-6.66,17.12-5.28,3.85-12.28,5.38-18.47,7.15C160,170,145.24,172,131.47,179.65c-6.83,3.81-13.4,8.07-20.16,12A86.69,86.69,0,0,1,83.67,202a91.81,91.81,0,0,1-25.53,1.05c-4.27-.39-10-2.25-11.65-6.57-.2-.53-2.1.07-1.93.51,3.87,10.21,23.87,7.59,31.59,6.85a94.43,94.43,0,0,0,23-5.37c8.64-3.12,16.46-8.35,24.27-13.1,9.83-6,19.33-11,30.53-13.93,8.57-2.23,17.25-3.89,25.75-6.39,5.3-1.55,10.54-3.35,15.19-6.38,6.52-4.24,5.81-10.7,7.07-17.56.1-.54-1.81-.21-1.91.31Z"/><path class="cls-3" d="M159.34,170.3c3.57,2.72,20.56,13.13,8.74,16.71-7.33,2.23-14.56,4.62-21.8,7.18s-14.64,4.88-21.82,7.65a40.38,40.38,0,0,1-8.86,2.66c-7.2,1-3.69-7.5-1.88-10.56.52-.89-1.44-.83-1.84-.16-3.08,5.21-4.59,12.46,3.52,12,3.93-.21,7.77-2.2,11.44-3.46,6.12-2.1,12.23-4.26,18.34-6.43q8.58-3,17.2-6c3-1,7.79-1.15,10.12-3.58,6.45-6.74-7.74-14.06-11.65-17-.63-.47-2.36.42-1.51,1.06Z"/><path class="cls-3" d="M89.27,202.1a55,55,0,0,1,2.5,6.3c1.54,5.54-7.77,4.81-10.8,4.83-4.25,0-5.79-1-7.86-4.43A21.55,21.55,0,0,0,69,203.59c-.41-.37-2.18.36-1.81.69,2.94,2.62,4.17,6.89,7.46,9.08,2.64,1.75,7.6.77,10.51.67,2.11-.07,6.31-.25,7.76-2.23,2.35-3.2-.39-7.08-1.68-10.22-.22-.53-2.11.09-1.93.52Z"/><path class="cls-3" d="M60.46,204.46c-1.1,6.41-2.46,12.77-3.74,19.15a.31.31,0,0,0,.07.28c5.48,4.61,12.76,5.33,19.67,5.43a131.12,131.12,0,0,0,26.53-2.2c19.17-3.69,38-10.71,56.22-17.7a399.8,399.8,0,0,0,44.78-21c5.5-2.94,10.08-6.94,7.87-13.63-2.37-7.13-10.26-12.44-16-16.63-.55-.4-2.32.39-1.53,1,6.08,4.41,13.49,9.74,16,17.2,3.11,9.37-13.32,14.59-19.48,17.72a368.44,368.44,0,0,1-41.77,18c-19,6.86-38.5,14-58.74,15.62-8.29.66-17.21,1.22-25.29-1.06-1.9-.54-6.55-2.13-6-5.09.41-2,.82-4.05,1.24-6.08.76-3.73,1.48-7.47,2.13-11.22.13-.79-1.82-.47-1.94.23Z"/><path class="cls-3" d="M211.68,177.89c1.08,2.87,4,7.43,1.95,10.18a34.26,34.26,0,0,1-7.28,6.79c-5.71,4.18-12.53,6.85-19.14,9.21-12.75,4.56-25.48,8.65-38,13.79-16.17,6.64-32.5,13.12-50,15-9.35,1-18.76.19-28.12-.16-6.38-.23-16.45-2.24-13.11-10.95.41-1.06-1.53-1.09-1.85-.25-5.74,14.95,20.64,13.08,28.1,13.26,20.32.5,38.94-5,57.66-12.42,9.28-3.69,18.43-7.76,27.86-11,6.89-2.4,13.93-4.35,20.76-6.93s13.46-5.66,19.26-10.18a33.86,33.86,0,0,0,7-7.61c.92-1.34-2.54-7.69-3.12-9.24-.34-.91-2.27-.37-1.93.51Z"/><path class="cls-3" d="M68.56,219.88c.33.18-.78,1.09-1,1.21,0,0-.32.17-.12.1-.14.05.26,0,.42.09s0,0,0-.15a2.17,2.17,0,0,1,.09-.76,2.73,2.73,0,0,1,.8-1.34c.09-.08-.06,0,.09,0s.53.42.69.61c.59.74,1.1,1.75.46,2.61a2.08,2.08,0,0,1-2,.66c-1.09-.21-1.36-1.62-1.09-2.51.41-1.4,1.33.4,1.49,1.06.22,1,2.15.45,1.93-.51-.39-1.67-1.83-3.11-3.64-2.45a3.12,3.12,0,0,0-1.49,4.37c1.43,2.69,6.2,1.79,7-1,.76-2.58-2.43-5.62-4.78-3.76-1,.78-2.62,4.23-.4,4.56a3,3,0,0,0,2.26-.91c1.12-1,2.06-2.36.39-3.26-.84-.46-2.19.78-1.1,1.37Z"/><path class="cls-3" d="M199.45,179.38c.46-.15.79.88.85,1.15a2.86,2.86,0,0,1-.09,1.64,1.06,1.06,0,0,1-.48.56c.17-.08.19,0,0,0,.06,0-.28,0-.4,0-1.29-.14-3.22-1.28-2.72-2.83a2.34,2.34,0,0,1,.75-1,5.33,5.33,0,0,1,.74-.5l.41-.24c-.13.07,0,0,.13,0a2,2,0,0,1,1.88,2.53,2.74,2.74,0,0,1-.91,1.56c.19-.11.28,0,0-.06a1.36,1.36,0,0,1-.58-.28c-.64-.44-1.12-1.49-.41-2.1a1.14,1.14,0,0,1,.37-.21l-1.32,0a5,5,0,0,1,.41,2.34c-.05.64,1.87.24,1.92-.29a5.62,5.62,0,0,0-.39-2.57c-.16-.41-1.07-.15-1.33,0-1,.39-2.06,1.07-1.93,2.27a2.31,2.31,0,0,0,1.76,1.77,3.69,3.69,0,0,0,3.45-1c.84-.88,1.36-2.51.6-3.58-1.7-2.38-5.36-.88-6.93.84-1.3,1.43-.4,3,1.09,3.81a4.83,4.83,0,0,0,5.35-.48,2.88,2.88,0,0,0,.52-2.73c-.38-1.66-2.19-1.48-3.45-1.05-.15.05-.85.39-.55.65s.93.06,1.26-.06Z"/><path class="cls-3" d="M138.85,64.84a7.93,7.93,0,0,1-7.55,4.86c-.56,0-2.1.87-.81.85,4.45-.08,8.29-1.9,10.27-6,.18-.37-1.66-.2-1.91.32Z"/><path class="cls-3" d="M130.07,69.33c-6.41-8.48-11.86-15.66-21.64-20.22C101.64,46,93.05,43.7,85.87,46.8c-1.23.53-.12,1.34.8.94,7.59-3.28,17,.53,23.76,4.13,7.84,4.17,12.63,11.34,17.86,18.26.45.59,2.31-.1,1.78-.8Z"/><path class="cls-3" d="M85.92,47.93c10.27,2,19.92,9.2,27.31,16.31,6.59,6.35,13.75,13.37,18.29,21.39.39.69,2.25,0,1.77-.83-5-8.88-13.13-16.63-20.54-23.52-7.11-6.59-16.5-12.81-26.13-14.67-.9-.17-2,1.07-.7,1.32Z"/><path class="cls-3" d="M85.3,47.53c.37,13.9,5.25,25.54,11,37.91a385.1,385.1,0,0,0,19.42,37.27c.35.57,2.18-.12,1.94-.52A395.46,395.46,0,0,1,98.23,84.93c-5.77-12.35-10.63-24-11-37.92,0-.49-1.95-.14-1.94.52Z"/><path class="cls-3" d="M189.22,115.07c-5.66,10.19-26.22,5.66-27.6,19.46-1.25,12.51,17.9,15.82,25.7,20,.21-.36.41-.72.61-1.09l-1.5.18c-.84,0-2,1.19-.71,1.26a5.24,5.24,0,0,0,2.52-.29c.34-.1,1.28-.72.6-1.09-8.17-4.36-30.32-8.73-24.42-22.54,2.53-5.94,11.42-6.31,16.64-8.63,4.05-1.8,7.72-3,10-7.12.49-.89-1.47-.78-1.83-.13Z"/><path class="cls-3" d="M170.4,160.41c-5.06-.78-9.2-4.22-14.36-4.44-4.7-.2-9.48,4.05-12.95,6.68-6,4.6-11.29,10.2-17,15.24-6.68,5.93-14.14,9-22.16,12.55-1.24.56-.09,1.05.73.68,5.08-2.27,10.31-4.15,15.12-7,5.14-3,9.52-7.49,13.83-11.54,5.09-4.79,10.17-9.54,16.08-13.32,7.45-4.76,12.44,1,19.47,2.08.54.08,2.26-.8,1.2-1Z"/><path class="cls-3" d="M179.61,98.26c1.4,2-19.33,13.85-21.24,14.95a73.61,73.61,0,0,1-9.57,5c-6.05,2.37-14,.72-20.43,1.88a18.56,18.56,0,0,0-11.49,6.65c-4.94,6.13,1.07,12,5.15,16.35,5.73,6.16,2.24,15.29-.15,22.18-3.34,9.66-11,15.41-17.3,23-.55.66,1.4.52,1.8,0,5.57-6.73,12.7-11.94,16.2-20.2,2.66-6.3,6-14.75,3.85-21.62-1-3-3.63-5.05-5.59-7.34-4.08-4.77-5.36-9.22-.57-14.18,5.91-6.12,16.93-4.39,24.66-5.1s15.06-6.19,21.56-10.16c1.54-.94,16.85-9.47,14.91-12.19-.38-.53-2.25.12-1.79.76Z"/><path class="cls-3" d="M121.27,128.59c2.65-.2,5.37,1.48,4.78,4.43-.71,3.64-5,1.57-6.93.31-.59-.4-2.35.44-1.51,1,2,1.31,4.28,2.34,6.68,1.88a4.64,4.64,0,0,0,3.59-3,4.26,4.26,0,0,0-.83-4.08c-1.33-1.6-3.61-1.9-5.55-1.75-1,.08-1.56,1.3-.23,1.2Z"/><path class="cls-3" d="M69,198.1c2.91-7.66-4.33-12.74-9.46-17.13-1.38-1.18-3.22-2.44-2.06-4.41s3.62-3.35,5.47-4.56c3.1-2,6.41-3.66,9.6-5.51,10.08-5.84,20-12,30-17.93,2.8-1.68,12.67-7.24,11.37-11.38-.22-.7-2.15-.16-1.94.51,1.59,5-17.48,14.54-20.55,16.32-8.64,5-17.16,10.21-25.86,15.1-1.29.73-13.08,7.06-10.5,10,4.86,5.56,15.36,10.27,12,19.21-.24.66,1.69.42,1.94-.23Z"/><path class="cls-3" d="M65.83,177.31c.5-3.42-5-4.89-7.43-5.56-3.09-.84-6.75-1.33-9.77,0-1.09.47.42.63.91.42C55,169.93,62.19,174,64.42,179.1l1.59-.68c-4.13-.55-7.12-4.18-10.88-5.73l-.44.66c3.92-1.56,8.84,2.87,11.62,5.14.39.32,2.18-.29,1.81-.68a40.76,40.76,0,0,0-7.2-6.63c-3.1-2-6.22-1.08-9.62-1.74-.36-.07-2.29.47-1.58.79l1.89.85c.45.21,2.21-.5,1.58-.79l-1.89-.85-1.58.79c3.26.63,6.28,0,9.39,1.63,2.84,1.52,5,4.33,7.2,6.63l1.81-.68c-3.89-3.18-8.86-7.07-14.12-5-.21.08-1,.44-.44.65,3.94,1.63,6.85,5.2,11.21,5.79.23,0,1.78-.23,1.58-.69-2.76-6.32-11.17-9.53-17.5-7l.92.43c2.84-1.24,14.81,1.06,14.14,5.57-.08.54,1.84.19,1.92-.32Z"/><path class="cls-3" d="M74.12,173c-2.48-2.37-4.63-5.05-7.38-7.13-.41-.31-2.08.44-1.83.64,2.35,1.85,6.2,4.38,5.06,7.85l1.87-.5c-3.44-1.42-5.06-5.36-7.22-8.15l-1.88.58c3.33,2.4,5.45,5.87,8.07,9,.25.29,2-.24,1.88-.58-1.2-3.09-2.74-6.33-5.18-8.63-2.13-2-6.68.2-9,.57-.15,0-1.6.61-1,.7,1.14.16,6.59.27,2.23-.44l-.47.56c4.49-1.65,1.61,1.25,1.29,2.66-.08.39,1.8.11,1.91-.35a8.93,8.93,0,0,1,1.88-3.32c.08-.11-.08-.18-.16-.19a11,11,0,0,0-5.58.8c-.1,0-1,.48-.47.57a9.6,9.6,0,0,0,5.13-.63c.51-.19.94-.65.09-.57a18.26,18.26,0,0,1-4.25.18l-1,.7c1.1-.17,2.16-.43,3.23-.7,2.74-.68,4.06-.5,5.72,1.59a27.47,27.47,0,0,1,3.72,7l1.88-.59c-2.63-3.1-4.73-6.55-8.08-9-.32-.24-2,.36-1.87.58C64.86,169,66.54,173,70,174.47c.39.16,1.71,0,1.87-.5,1.18-3.6-2.7-6.22-5.14-8.14l-1.83.64c2.75,2.09,4.91,4.76,7.39,7.14.35.34,2.09-.39,1.82-.65Z"/><path class="cls-3" d="M62.57,167.27c.86,2.49,1,5.16,1.84,7.66.22.6,2.13,0,1.94-.52-.89-2.49-1-5.17-1.84-7.66-.21-.6-2.13,0-1.94.52Z"/><path class="cls-3" d="M79.84,167.43c-.13-1.88-2.87-3.7-4.23-4.66-2-1.45-4.69-2.57-7.13-1.48-.92.41-.53,1.26.34,1.27,3.82.06,9.56,1.92,8.66,6.73l1.32-.77c-2.35-.37-3.67-2.78-5-4.52a7.39,7.39,0,0,0-4.76-3.3c-.53-.08-2,.75-1.08,1.26a33.26,33.26,0,0,1,9.3,8.31l1.45-1.07a17.72,17.72,0,0,1-7.35-6.28c-.46-.74-2.3,0-1.77.85a19.19,19.19,0,0,0,8,6.73c.53.25,2-.38,1.44-1.08a34.28,34.28,0,0,0-9.58-8.58L68.4,162.1c2.35.36,3.66,2.78,5,4.52a7.37,7.37,0,0,0,4.76,3.3,1.17,1.17,0,0,0,1.31-.78c1.09-5.81-5.93-7.92-10.45-8,.12.43.23.85.34,1.28,1.8-.81,4.16,1,5.52,2,.72.54,3,2.1,3,3.17s2,.7,2-.15Z"/><path class="cls-3" d="M87.14,164.49c0-1.8-2.46-3.23-3.73-4.13a35.92,35.92,0,0,0-5.38-3.1l-1.18.87c4.18-.27,10.14,3.82,10,8.36l1.75-.67c-5.14-1.3-7.91-6.76-12.3-9.35l-1.69.76a33.49,33.49,0,0,1,6.33,3.18c.53.32,4.84,3.59,5,3.51-1.13.63.63.69,1.15.39,1.88-1-1.84-3-2.59-3.53a36,36,0,0,0-8.3-4.38c-.37-.12-2.16.49-1.69.77,4.49,2.65,7.28,8.15,12.54,9.48.46.11,1.73,0,1.75-.68.2-5.08-6.55-9.05-11.1-8.76-.23,0-1.93.52-1.18.88a37.12,37.12,0,0,1,5.14,3c1.23.83,3.56,2.25,3.61,3.93,0,.46,1.94.12,1.93-.51Z"/><path class="cls-3" d="M96.58,160.61c.71-2.73-2.38-4.89-4.4-6-2.44-1.38-5.71-2.41-8.41-1.2a.7.7,0,0,0,.37,1.36c3.26-.46,8.56,1.67,10,4.81l1-1c-2.2.3-4.32-1.81-6-3A11.28,11.28,0,0,0,83.91,153c-.55-.06-2,.81-1.07,1.33a54,54,0,0,1,10.48,7l.81-1.33c-3.27.38-6.47-3.17-8.66-5.19L84,156c2,1.58,4.18,3,6.35,4.39.77.49,2.43-.56,1.48-1.17-2.18-1.38-4.31-2.8-6.35-4.39-.73-.56-2.34.38-1.48,1.17,2.62,2.42,6.07,6,10,5.52.62-.07,1.49-.72.81-1.33a54.24,54.24,0,0,0-10.47-7l-1.06,1.32c4.38.48,7.07,6.24,11.75,5.59.39-.05,1.3-.43,1-1-1.73-3.84-7.71-6.37-11.77-5.79.13.46.25.91.37,1.37,2.89-1.29,10.94,2.34,10,6.11-.26,1,1.73.78,2-.12Z"/><path class="cls-3" d="M102.23,157.19c.44.14,1.84,0,2-.6.24-1-2-3.12-2.55-3.79-2.5-3-6-5.45-9.83-3.54-.3.14-.66.46-.08.47,3.17,0,11.74-.66,11.28,4.39a2,2,0,0,1-.18.76c.5.06.55.05.14,0a5.88,5.88,0,0,1-1.44-.61,20.61,20.61,0,0,1-2.86-1.95c-1.63-1.26-3.15-2.66-4.66-4.06l-1.71.68c3.59.59,6,3.9,7.68,6.86l1.39-.62-1.23-.36a2.54,2.54,0,0,0-1.82.64,4.21,4.21,0,0,0,2.2.44c.14,0,1.56-.32,1.39-.62-1.77-3.1-4.27-6.44-8-7.06-.25,0-2.07.35-1.71.68,2.05,1.91,8.93,9.52,12.19,6.08,1.95-2.05-.5-4.51-2.46-5.13C99.05,148.92,96,149,93,149c0,.16-.05.32-.08.48,2.09-1,4.92,1.81,6.23,3.22a29.37,29.37,0,0,1,2.06,2.52c.24.32.46.65.68,1a4.91,4.91,0,0,1,.28.5c.2.64.75.57,1.64-.22-.42-.13-2.12.56-1.59.72Z"/><path class="cls-3" d="M110.07,147.82c-.76-1.35-2.48-2.4-3.68-3.3a20,20,0,0,0-5.23-3.09c0,.41-.09.82-.13,1.23,3.53-1.47,9.52,4.7,8.26,8.22l1.49-.54c-4.3-1.81-6.14-6.72-10.07-9.1-.55-.33-2.28.19-1.62,1,2.45,3,6.17,4.4,8.92,7.07l1.45-1.08c-4.49-1.78-8.09-5.46-13-6.2-.52-.08-1.46.3-1.3,1,.5,2.12,3.55,2.66,5.14,3.66.72.46,2.42-.53,1.49-1.11-1.33-.84-4.32-1.44-4.7-3.07l-1.3,1c4.66.71,8.23,4.39,12.53,6.1.49.19,2.12-.43,1.44-1.08-2.74-2.66-6.49-4.1-8.93-7.07l-1.62,1c4.07,2.47,5.92,7.38,10.43,9.28a1.26,1.26,0,0,0,1.48-.54c1.9-5.32-6.08-11.62-11-9.59-.54.23-.81,1-.13,1.23,2.56.88,6.89,3.5,8.26,5.93.43.76,2.27,0,1.77-.85Z"/><path class="cls-3" d="M113,144.28c.57.16,1.14.24,1.71.4.24.07,2-.22,1.76-.65-2.28-4-6.73-6.43-10.59-8.63l-1.7.72c2,.64,14,6.17,10.79,9.14l1.79-.39c-3.52-2.48-5.94-6-8.71-9.25l-1.7.73c2.58.88,4.59,2.84,6.41,4.79.35.38,2.15-.31,1.82-.67a16.93,16.93,0,0,0-6.65-4.9c-.3-.11-2.09.27-1.7.73,2.78,3.21,5.19,6.77,8.71,9.24.45.32,1.44-.07,1.78-.39,3.84-3.51-8.57-9.06-11-9.81-.36-.11-2.08.51-1.7.73,3.79,2.16,8.24,4.58,10.48,8.48l1.75-.65c-.57-.16-1.14-.23-1.71-.4s-2.19.61-1.58.78Z"/><path class="cls-3" d="M122.59,133.9c-.21-5.05-9.56-4.54-12.63-3.05-.79.38-.15.69.41.61,4.27-.62,7.81.42,11.67,2.14.14-.23.29-.46.43-.7-4,1.7-8.52-1.71-12.74-1.34-.54.05-2.13.91-.8.9,2.73,0,5.5-.57,8.13.4l.69-.77-.65.18,1,0-.43-.3c-.5-.33-2.19.45-1.81.7.78.52,1.17.38,2.09.13.18,0,1.32-.54.68-.77-2.89-1.08-5.89-.51-8.9-.49l-.8.9c5-.44,9.21,3.12,14.24,1,.23-.1,1-.47.44-.7-4.32-1.92-8.21-2.85-12.92-2.17l.41.61c2.57-1.24,9.4-.56,9.56,3.2,0,.45,2,.1,1.93-.52Z"/><path class="cls-3" d="M123.18,116.7c-3.56,1.86-7.14,4.51-11.12,2l-.58,1.17c3.93-1,7.91-3.07,12.06-2.6l-.46-.94c-2.55,2.79-6.48,3.39-10.07,3.71l.54,1.1c2.38-2.12,6.7-3.86,9.11-.87.08-.28.16-.56.25-.84-2.66,1.84-10.08,4.22-11.55-.11-.29-.85-2.21-.31-1.93.52,1.92,5.67,11.27,2.84,14.75.43.25-.18.48-.55.25-.84-3.08-3.82-9-1.9-12.15.88-.6.53-.24,1.16.54,1.09,4.27-.38,8.85-1.23,11.86-4.54.4-.44,0-.89-.46-.95-4.55-.51-8.77,1.58-13.08,2.7-.43.11-1.23.77-.58,1.17,4.76,3,9,.29,13.46-2,1.17-.61.11-1.58-.84-1.08Z"/><path class="cls-3" d="M120.68,110c-3.27,3.22-8.73,4.39-13.19,4.48l.43.83c3.3-3.37,8.92-6.47,13.76-5.74-.08-.32-.17-.65-.26-1-3,1.65-10.24,6.49-12.42,1.72-.34-.75-2.24-.17-1.93.51,2.81,6.18,11.77.59,15.59-1.52.63-.35.31-.89-.26-1-5.64-.84-12.21,2.61-16.06,6.54-.38.39-.07.84.43.83,5.29-.11,11.6-1.45,15.49-5.29.83-.82-1.06-.93-1.58-.42Z"/><path class="cls-3" d="M116.19,102.58h0c-.13-.17-.25-.34-.38-.5-2.44,1.25-5,2.32-7.56,3.35-.57.24-3.68.68-3.46-.73.28-1.73,3.35-2.55,4.71-2.91,2.11-.58,4.3-.81,6.44-1.21l-.78-.2c-1.36,2.54-4.18,3.47-6.89,3.8-2.23.27.37-1.28.88-1.64a12.65,12.65,0,0,1,2.67-1.42,6.39,6.39,0,0,1,3.38-.23c-2.69,1.93-9,5.48-11.6,2.06-.37-.47-2.09.32-1.93.52,3.42,4.42,12-.38,15.36-2.76.17-.12.36-.33,0-.42-4.54-1.22-8.95,1.43-12.18,4.41-.23.22,0,.33.25.33,4.14.08,9.77-1,11.92-5,.17-.32-.69-.21-.77-.2-3.32.62-6.7,1-9.84,2.28-.82.34-5.28,3.12-3.1,4,4.12,1.64,10.06-2,13.57-3.77.74-.39.18-.61-.38-.5h0c-.77.14-1.71,1-.36.73Z"/><path class="cls-3" d="M115.26,99.31c2.42-1.1,6.31,3.45,3.26,4.39l1,0c-.44-2.75-.74-5.53-3.67-6.63l-1.59.74c2.75.66,4.94,5,3.23,7.4-.13.19,1.58.12,1.9-.34,1.88-2.69-.6-7.1-3.54-7.8-.38-.09-2.19.52-1.59.74,2.72,1,2.93,3.93,3.32,6.41.05.28.92.07,1.05,0,2-.61,4-2.17,2.14-4.25s-4.41-2-6.67-1c-1.16.53.66.44,1.11.24Z"/><path class="cls-3" d="M120.1,108c1.3-.77,2.42.41,2.71,1.68.45,2.07-1.37,3.49-3.15,3.92-.21,0-1,.29-.86.64s.85.17,1.06.11c2.48-.59,5.51-2.35,4.84-5.35-.6-2.72-3.86-2.51-5.75-1.39-1.12.66.63.7,1.15.39Z"/><path class="cls-3" d="M114.93,142.9c1.84.24.46,3.09-.82,3a1.42,1.42,0,0,0-1.26.55c-.24.4.2.64.55.66a4.48,4.48,0,0,0,4-2.39,2.22,2.22,0,0,0,.23-2,2.35,2.35,0,0,0-2-1.11c-.82-.11-2,1-.72,1.22Z"/><path class="cls-3" d="M112.22,148c1.7,3.78-2.45,6.6-5.67,4.32-.5-.35-2.22.41-1.81.7,3.75,2.66,11.86-.08,9.41-5.54-.26-.57-2.14.06-1.93.52Z"/><path class="cls-3" d="M102.11,153a2.32,2.32,0,0,1,.76,3,2.11,2.11,0,0,1-1,1.11c.18-.07-.43-.11-.56-.15a3.52,3.52,0,0,1-1.12-.62c-.45-.32-2.12.45-1.82.67a4.46,4.46,0,0,0,5.76-.43,2.75,2.75,0,0,0-.23-4.24c-.33-.21-.93,0-1.25.1-.09,0-.88.37-.57.56Z"/><path class="cls-3" d="M96,158.87c1.67,3.66-3.66,3.42-5.59,2-.58-.43-2.34.4-1.52,1,2.73,2,11.36,1.56,9-3.52-.34-.74-2.24-.15-1.93.52Z"/><path class="cls-3" d="M88.75,164.71c1,1.42,1,3.19-1,3.48a6.36,6.36,0,0,1-4.85-1.13c-.39-.33-2.08.42-1.83.64,2.64,2.25,13,1.47,9.65-3.5-.31-.46-2.06.32-1.93.51Z"/><path class="cls-3" d="M78.54,167.76c1.25.72.22,1.74-.49,2.27-1.57,1.17-3.07-.24-4.4-1.11-.53-.33-2.24.44-1.81.72,2,1.31,4,2.59,6.41,1.42,1.44-.7,4.3-2.75,1.85-4.16-.48-.27-2.28.45-1.56.86Z"/><path class="cls-3" d="M73,172.74c1,3.13-2.54,4-4.78,2.79-.51-.28-2.3.48-1.54.9,2.92,1.6,9.75.29,8.25-4.21-.21-.63-2.13-.07-1.93.52Z"/><path class="cls-3" d="M67.5,178.8a2.53,2.53,0,0,1-.07.38c0,.12-.14.2,0,.08a.48.48,0,0,1,.18-.08h0a1.79,1.79,0,0,1-.46,0,1.25,1.25,0,0,0-1.25.6c-.21.43.18.77.59.81a3.26,3.26,0,0,0,2-.25,2,2,0,0,0,1-1.67c.13-1-1.85-.73-2,.15Z"/><path class="cls-3" d="M110.77,99.63c-3.73-.11-7.43,0-11.15-.5,0,.39,0,.78.07,1.17l1.37-.51c.26-.1.67-.45.55-.78C99.54,93.34,97.83,87.77,91,87.26c-.39,0-1.33.19-1.32.74.12,7.07,6.41,12.43,11.51,16.54.5.41,2.21-.24,1.64-.94-3.67-4.49-7.69-9.68-13.14-12.07-.61-.27-2.12.48-1.33,1.14a50.42,50.42,0,0,0,13.18,8.24c.61.25,2.2-.73,1.32-1.14C97,97,95.28,100,97.29,105.65c.19.55,1,.41,1.38.26l3.65-1.38-1.33-.6c-2.59,3.91-6.14,11.12-11.11,12.3l1.13.35c-1-5.37,1.42-16.1,6.73-18.68l-1.38-.25c1.71,3.39-.33,7.64-1.73,10.8-.58,1.31-1.27,2.58-2,3.84-.26.48-2.89,4.34-2.11,2.17.37-1-1.56-.9-1.83-.16-1.6,4.44,3.5.93,4.75-.39,3.22-3.38,7.1-12.27,4.82-16.78-.25-.5-.93-.48-1.38-.26-6.11,3-9,14-7.84,20.22.09.47.81.43,1.13.35,5.84-1.38,9.57-8.74,12.63-13.35.52-.79-1-.72-1.33-.59l-3.66,1.37,1.38.26c-.75-2.11-2.91-6.64,2.1-4.3l1.32-1.15a48.72,48.72,0,0,1-12.8-8.07l-1.32,1.14c5.16,2.26,9,7.41,12.5,11.67.55-.31,1.1-.62,1.64-.94-4.7-3.8-11-9.08-11.06-15.66l-1.32.74C94,88.84,96,90.78,97.59,94c.34.7,2.45,4.82,1.27,5.27-.7.27-.73,1.07.07,1.17,3.71.47,7.41.39,11.14.5.88,0,2-1.28.7-1.31Z"/><path class="cls-3" d="M99.15,95.24c-2.42-8.37-12.5-10.67-19.85-7.65-.18.07-.68.26-.62.54,1.72,8.14,13,12.32,19.52,15.72.45.23,2.24-.4,1.82-.7C94.16,99.06,87.62,96,82.39,91l-1.69.75c6.37,1.47,11.4,6.45,16.36,10.43.45.36,2.19-.39,1.81-.69-5-4-10.12-9.06-16.6-10.55-.28-.07-2.19.29-1.69.75,5.23,4.94,11.77,8,17.62,12.15l1.82-.7c-5.91-3.06-12.21-5.92-16.87-10.81a10.57,10.57,0,0,1-2.39-4c-.58-1.76,6.86-.91,7.88-.66a11.67,11.67,0,0,1,8.58,8.1c.15.52,2.08,0,1.93-.52Z"/><path class="cls-3" d="M127.78,88.11c-5.73-8.77-13.54-16.67-21.6-23.33-4.6-3.8-11.39-9-17.55-5.75-1.14.59.63.64,1.15.37,5.93-3.08,15.17,6.42,19,9.94a102.66,102.66,0,0,1,17,19.28c.36.54,2.15-.18,1.94-.51Z"/><path class="cls-3" d="M153.39,132.16a101.69,101.69,0,0,0-4.07,13.53c-.74,3.68-2.2,5.56-6.14,4.46a36.19,36.19,0,0,1-6.27-2.71c-4.94-2.46-9.2-8.34-4.1-13.11,4.8-4.5,14.48-2.48,20.38-2.07.95.07,2-1.14.66-1.44a7.08,7.08,0,0,0-2-.41c-1.12,0-1.47,1.46-.16,1.46a15.13,15.13,0,0,1,1.47.39l.66-1.44c-7.25-.52-16.07-2.06-22.33,2.58-5.1,3.79-2.83,10.24,1.23,13.69,2.22,1.88,5.7,3.06,8.39,4.08,1.94.74,4.91,1.58,6.9.51,2.2-1.18,2.72-3.85,3.24-6.12.38-1.65.61-3.34.94-5,.56-2.86,2.08-5.41,3-8.14.38-1.08-1.56-1.09-1.85-.25Z"/><path class="cls-3" d="M185.19,151.63a2.69,2.69,0,0,0,2,.13c.36-.08.85-.33.83-.75-.31-6.31,1.35-12.24.11-18.52-.7-3.53-1.39-8.43-4.4-10.81-.55-.44-2.34.33-1.79.76,3.11,2.47,3.71,7.8,4.43,11.47,1.17,5.89-.58,11.7-.28,17.61.28-.25.56-.5.83-.76l-.18-.08c-.6-.23-2.36.64-1.54.95Z"/><path class="cls-3" d="M173.53,104.27c-5.66-7.61-16.22-16.33-26.46-14.81-14.37,2.12-14.32,19.23-15.69,30.48l1.93-.52c0-.33.07-.66.1-1s-1.72-.15-1.9.34c-.28.73-.29.49-.13,1.17.11.44,1.88-.07,1.93-.52,1.3-10.67,1.41-31.94,17.85-28.94,8.07,1.48,15.67,7.9,20.44,14.31.35.46,2.07-.33,1.93-.52Z"/></svg>