<svg id="layer1" xmlns="http://www.w3.org/2000/svg" viewBox="0 0 315.19 199.47"><defs><style>.cls-1{fill:#4db6db;}</style></defs><path class="cls-1" d="M82.91,134.3l-.27-.31a9.86,9.86,0,0,0-3.85-2.71l-.25-.1-.47-.17-2.49,9.19Zm-4.3-2.24a9,9,0,0,1,3.15,2.15L77,138.05Z"/><path class="cls-1" d="M85.27,140.56l0-.42a11,11,0,0,0-1.48-4.61l-.23-.39L76.23,141Zm-.87-.76-5.77.29,4.66-3.75A10.17,10.17,0,0,1,84.4,139.8Z"/><path class="cls-1" d="M77.09,130.75l-.43-.07a11,11,0,0,0-5,.31l-.41.12,3.36,8.83Zm-4.8.89a10.13,10.13,0,0,1,3.8-.24l-1.62,6Z"/><path class="cls-1" d="M105,138.79l-2.52.12,1.51-2.27a1.3,1.3,0,0,0,.07-1.37,1.37,1.37,0,0,0-1.19-.75,1.18,1.18,0,0,0-1,.55l-2.66,4-1.84.09L98.85,137a1.31,1.31,0,0,0,.07-1.36,1.4,1.4,0,0,0-1.2-.75,1.18,1.18,0,0,0-1,.55l-2.61,3.93-.91.05,1.33-2a1.3,1.3,0,0,0,.07-1.37,1.39,1.39,0,0,0-1.19-.75,1.17,1.17,0,0,0-1,.56L90,139.53l-3,.14a12.61,12.61,0,0,0-1.67-5l1.72-1.38,4.63,1.61a1.44,1.44,0,0,0,.46.08,1.37,1.37,0,0,0,1.31-1.17,1.17,1.17,0,0,0-.81-1.35l-3.19-1.11,1-.84,4.42,1.54a1.41,1.41,0,0,0,.45.07A1.38,1.38,0,0,0,96.71,131a1.18,1.18,0,0,0-.82-1.35l-3-1,1.64-1.32,4.34,1.51a1.54,1.54,0,0,0,.46.08,1.37,1.37,0,0,0,1.31-1.17,1.17,1.17,0,0,0-.81-1.35l-2.9-1,2.27-1.84a1.24,1.24,0,0,0,.42-1.43,1.35,1.35,0,0,0-1.23-.93,1.26,1.26,0,0,0-.79.29l-2,1.66-.12-2.89a1.15,1.15,0,0,0-1.19-1.14,1.48,1.48,0,0,0-1,.44,1.29,1.29,0,0,0-.36,1l.19,4.64-1.44,1.16-.12-2.8a1.15,1.15,0,0,0-1.19-1.15,1.48,1.48,0,0,0-1,.44,1.33,1.33,0,0,0-.37,1l.19,4.56-.72.57-.1-2.56a1.15,1.15,0,0,0-1.2-1.14,1.48,1.48,0,0,0-1,.43,1.32,1.32,0,0,0-.36,1l.18,4.32-2.06,1.65a12.49,12.49,0,0,0-2.4-2,12,12,0,0,0-2.08-1.06l.52-1.92,4.84-1.46a1.13,1.13,0,0,0,.84-1.29,1.38,1.38,0,0,0-1.77-1.15l-3.11.94.36-1.31,4.62-1.4a1.12,1.12,0,0,0,.83-1.29,1.4,1.4,0,0,0-1.35-1.22,1.14,1.14,0,0,0-.41.07l-2.89.87.55-2,4.55-1.38a1.13,1.13,0,0,0,.84-1.29,1.41,1.41,0,0,0-1.36-1.22,1.39,1.39,0,0,0-.4.06l-2.82.85.74-2.73a1.33,1.33,0,0,0-.23-1.19,1.46,1.46,0,0,0-1.14-.58,1.1,1.1,0,0,0-1.08.86l-.71,2.63L79,112.15a1.27,1.27,0,0,0-1-.5,1.4,1.4,0,0,0-1.24.79,1.2,1.2,0,0,0,.16,1.3l3,3.73-.48,1.78-1.68-2.12a1.24,1.24,0,0,0-1-.5,1.42,1.42,0,0,0-1.25.79,1.2,1.2,0,0,0,.17,1.31l2.9,3.66-.24.88-1.53-1.93a1.26,1.26,0,0,0-1-.5,1.42,1.42,0,0,0-1.25.79,1.21,1.21,0,0,0,.16,1.31l2.76,3.48-.65,2.4a12.54,12.54,0,0,0-5.44.36l-.74-1.94,3-3.94a1.2,1.2,0,0,0,.14-1.33,1.39,1.39,0,0,0-1.22-.78,1.22,1.22,0,0,0-1,.51l-2,2.66L69,123.1l2.85-3.76A1.22,1.22,0,0,0,72,118a1.4,1.4,0,0,0-1.23-.78,1.22,1.22,0,0,0-1,.51l-1.88,2.48-.75-2,2.81-3.7a1.24,1.24,0,0,0,.14-1.34,1.4,1.4,0,0,0-1.23-.77,1.24,1.24,0,0,0-1,.5l-1.83,2.42L65,112.6a1.19,1.19,0,0,0-1.14-.81,1.43,1.43,0,0,0-1.16.6,1.28,1.28,0,0,0-.13,1.19l.92,2.41-2.59-.72a1.31,1.31,0,0,0-.38-.06,1.43,1.43,0,0,0-1.38,1.25,1.11,1.11,0,0,0,.85,1.26l4.65,1.3.66,1.74-2.51-.71a1.58,1.58,0,0,0-.38,0,1.43,1.43,0,0,0-1.38,1.24,1.09,1.09,0,0,0,.85,1.26l4.58,1.28.33.87L64.54,124a1.58,1.58,0,0,0-.38-.05,1.43,1.43,0,0,0-1.38,1.24,1.11,1.11,0,0,0,.85,1.26L68,127.68l1,2.49a12.66,12.66,0,0,0-3.34,2.52,9.59,9.59,0,0,0-.77.9L63,132.37l.1-4.87a1.3,1.3,0,0,0-.38-1,1.48,1.48,0,0,0-1-.43,1.14,1.14,0,0,0-1.18,1.17l-.07,3.42L59.24,130l.1-4.64a1.28,1.28,0,0,0-.38-1,1.44,1.44,0,0,0-1-.43,1.14,1.14,0,0,0-1.19,1.16l-.06,3.19-1.77-1.15.09-4.56a1.35,1.35,0,0,0-.37-1,1.48,1.48,0,0,0-1-.43,1.15,1.15,0,0,0-1.19,1.17l-.06,3.12-2.41-1.58a1.38,1.38,0,0,0-.73-.22,1.41,1.41,0,0,0-1.33,1,1.14,1.14,0,0,0,.51,1.33l2.24,1.47-2.66,1a1.2,1.2,0,0,0-.79,1.38,1.34,1.34,0,0,0,1.29,1.14,1.36,1.36,0,0,0,.48-.09l4.41-1.63,1.54,1-2.58,1a1.19,1.19,0,0,0-.8,1.38,1.34,1.34,0,0,0,1.29,1.14,1.36,1.36,0,0,0,.48-.09L57.6,132l.76.5-2.35.88a1.19,1.19,0,0,0-.8,1.38,1.35,1.35,0,0,0,1.3,1.13,1.29,1.29,0,0,0,.47-.08l4.11-1.53,2.38,1.56a12.23,12.23,0,0,0-1.08,5.06l-2.62.13-2.85-4.1a1.22,1.22,0,0,0-1-.55,1.4,1.4,0,0,0-1.2.76,1.25,1.25,0,0,0,.09,1.34l1.88,2.7-1.34.07-2.73-3.92a1.18,1.18,0,0,0-1-.54,1.41,1.41,0,0,0-1.21.76,1.25,1.25,0,0,0,.1,1.34l1.75,2.51-2.1.11-2.68-3.86a1.21,1.21,0,0,0-1-.54,1.39,1.39,0,0,0-1.2.75,1.27,1.27,0,0,0,.09,1.35l1.71,2.45-3,.15A1.15,1.15,0,0,0,42.93,143a1.37,1.37,0,0,0,1.43,1.37l2.52-.13-1.51,2.28a1.3,1.3,0,0,0-.07,1.37,1.39,1.39,0,0,0,1.19.75,1.17,1.17,0,0,0,1-.56l2.66-4L52,144l-1.47,2.21a1.3,1.3,0,0,0-.07,1.37,1.4,1.4,0,0,0,1.19.75,1.14,1.14,0,0,0,1-.56l2.62-3.93.91,0-1.33,2a1.29,1.29,0,0,0-.07,1.36,1.37,1.37,0,0,0,1.19.75,1.18,1.18,0,0,0,1-.55l2.48-3.73,3.27-.17a12.92,12.92,0,0,0,1.89,4.58l-2.26,1.82-4.63-1.61a1.28,1.28,0,0,0-.46-.08,1.37,1.37,0,0,0-1.31,1.16,1.16,1.16,0,0,0,.8,1.35l3.2,1.11-1.05.85-4.42-1.54a1.42,1.42,0,0,0-.45-.08,1.38,1.38,0,0,0-1.32,1.17,1.18,1.18,0,0,0,.81,1.35l3,1-1.63,1.32-4.35-1.52a1.76,1.76,0,0,0-.45-.07,1.38,1.38,0,0,0-1.32,1.16,1.19,1.19,0,0,0,.81,1.35l2.91,1-2.28,1.83a1.27,1.27,0,0,0-.41,1.44,1.36,1.36,0,0,0,1.23.92,1.22,1.22,0,0,0,.78-.29l2.06-1.65.12,2.88a1.14,1.14,0,0,0,1.19,1.15,1.48,1.48,0,0,0,1-.44,1.3,1.3,0,0,0,.37-1l-.19-4.63,1.44-1.17.11,2.81a1.15,1.15,0,0,0,1.2,1.14,1.44,1.44,0,0,0,1-.44,1.25,1.25,0,0,0,.36-1l-.18-4.56.71-.58.11,2.57A1.15,1.15,0,0,0,62.28,158a1.48,1.48,0,0,0,1-.44,1.3,1.3,0,0,0,.36-1l-.18-4.31,2.71-2.19a12,12,0,0,0,4.11,2.55l-.8,3-4.84,1.46a1.13,1.13,0,0,0-.84,1.3,1.4,1.4,0,0,0,1.36,1.21,1.45,1.45,0,0,0,.41-.06l3.1-.94-.35,1.31-4.62,1.39a1.14,1.14,0,0,0-.84,1.3,1.42,1.42,0,0,0,1.36,1.21,1.45,1.45,0,0,0,.41-.06l2.88-.87-.55,2-4.54,1.38a1.12,1.12,0,0,0-.84,1.29,1.37,1.37,0,0,0,1.76,1.15l2.82-.85-.74,2.74a1.31,1.31,0,0,0,.23,1.19,1.46,1.46,0,0,0,1.14.58,1.1,1.1,0,0,0,1.08-.87l.71-2.63L70.36,171a1.27,1.27,0,0,0,1,.5,1.42,1.42,0,0,0,1.25-.79,1.21,1.21,0,0,0-.16-1.31l-3-3.73.49-1.78,1.67,2.12a1.25,1.25,0,0,0,1,.5,1.39,1.39,0,0,0,1.24-.78,1.19,1.19,0,0,0-.16-1.31l-2.9-3.67.24-.88,1.53,1.94a1.23,1.23,0,0,0,1,.49,1.41,1.41,0,0,0,1.25-.78,1.21,1.21,0,0,0-.17-1.31l-2.75-3.48,1-3.5a12.8,12.8,0,0,0,4.78-.2l1.09,2.87-3,3.95a1.22,1.22,0,0,0-.14,1.33,1.43,1.43,0,0,0,1.23.78,1.21,1.21,0,0,0,1-.51l2-2.66.48,1.25-2.85,3.76a1.26,1.26,0,0,0-.15,1.34,1.43,1.43,0,0,0,1.23.77,1.24,1.24,0,0,0,1-.5L81.41,163l.74,2-2.8,3.7a1.22,1.22,0,0,0-.14,1.33,1.39,1.39,0,0,0,1.22.78,1.22,1.22,0,0,0,1-.51l1.83-2.41,1.06,2.77a1.19,1.19,0,0,0,1.14.81,1.4,1.4,0,0,0,1.15-.6,1.23,1.23,0,0,0,.13-1.19l-.92-2.42,2.6.73a1.58,1.58,0,0,0,.38.05,1.44,1.44,0,0,0,1.38-1.24,1.1,1.1,0,0,0-.85-1.26l-4.66-1.31L84,162.43l2.52.7a1.21,1.21,0,0,0,.38.06,1.46,1.46,0,0,0,1.38-1.25,1.11,1.11,0,0,0-.85-1.26l-4.58-1.28-.33-.87,2.28.64a1.31,1.31,0,0,0,.38.06A1.45,1.45,0,0,0,86.57,158a1.13,1.13,0,0,0-.85-1.27l-4.35-1.21-1.25-3.29c.21-.1.43-.21.64-.33A12.06,12.06,0,0,0,84,149.27l2.38,1.55-.1,4.86a1.31,1.31,0,0,0,.37,1,1.46,1.46,0,0,0,1,.44,1.14,1.14,0,0,0,1.18-1.17L89,152.5l1.13.74L90,157.88a1.3,1.3,0,0,0,.38,1,1.47,1.47,0,0,0,1,.43,1.15,1.15,0,0,0,1.19-1.16l.06-3.2,1.77,1.16-.1,4.56a1.33,1.33,0,0,0,.38,1,1.44,1.44,0,0,0,1,.43A1.15,1.15,0,0,0,97,160.88l.06-3.12,2.41,1.57a1.29,1.29,0,0,0,.73.23h0a1.42,1.42,0,0,0,1.33-1,1.14,1.14,0,0,0-.51-1.32l-2.24-1.47,2.65-1a1.19,1.19,0,0,0,.8-1.38,1.35,1.35,0,0,0-1.3-1.14,1.62,1.62,0,0,0-.47.09L96,154l-1.54-1,2.58-1a1.2,1.2,0,0,0,.79-1.38,1.34,1.34,0,0,0-1.29-1.13,1.26,1.26,0,0,0-.47.08l-4.33,1.61-.77-.5,2.36-.87a1.2,1.2,0,0,0,.79-1.38,1.34,1.34,0,0,0-1.29-1.14,1.36,1.36,0,0,0-.48.09l-4.1,1.52-2.72-1.77a14.11,14.11,0,0,0,.67-1.35,12.43,12.43,0,0,0,.84-3.5l2.52-.13,2.86,4.11a1.19,1.19,0,0,0,1,.54,1.4,1.4,0,0,0,1.21-.76,1.25,1.25,0,0,0-.09-1.34L92.66,142l1.34-.07,2.72,3.92a1.22,1.22,0,0,0,1,.55,1.4,1.4,0,0,0,1.2-.76,1.25,1.25,0,0,0-.09-1.34l-1.75-2.52,2.1-.1,2.68,3.85a1.18,1.18,0,0,0,1,.55,1.42,1.42,0,0,0,1.21-.76A1.27,1.27,0,0,0,104,144l-1.71-2.45,3-.15a1.16,1.16,0,0,0,1.14-1.24A1.36,1.36,0,0,0,105,138.79Zm.25,1.81-4.45.21,2.52,3.63a.47.47,0,0,1,0,.52.62.62,0,0,1-.51.34.42.42,0,0,1-.34-.21l-2.93-4.21-4,.19,2.57,3.69a.47.47,0,0,1,0,.52.61.61,0,0,1-.5.33.38.38,0,0,1-.34-.2l-3-4.28-3.21.16,2.69,3.88a.47.47,0,0,1,.05.52.63.63,0,0,1-.51.33.43.43,0,0,1-.34-.2L90,141.35l-3.67.18,0,.35a12.37,12.37,0,0,1-.81,3.61,11.65,11.65,0,0,1-.82,1.56l-.19.33,3.69,2.42,4.48-1.67a.54.54,0,0,1,.71.45.4.4,0,0,1-.29.49l-3.83,1.43,2.42,1.57,4.7-1.74a.54.54,0,0,1,.71.44.4.4,0,0,1-.29.5l-4,1.51,3.19,2.08,4.79-1.77a.54.54,0,0,1,.71.45.41.41,0,0,1-.29.49L97,155.56l3.56,2.33a.37.37,0,0,1,.18.43.63.63,0,0,1-.57.44.58.58,0,0,1-.3-.09l-3.6-2.36-.1,4.55a.35.35,0,0,1-.39.39.67.67,0,0,1-.47-.2.52.52,0,0,1-.16-.4l.11-5-3.33-2.17-.1,4.62a.35.35,0,0,1-.39.39.7.7,0,0,1-.48-.2.55.55,0,0,1-.15-.4l.11-5.07-2.7-1.77-.1,4.86a.35.35,0,0,1-.39.38.69.69,0,0,1-.48-.19.57.57,0,0,1-.15-.4l.11-5.31-3.33-2.17-.23.27a11.27,11.27,0,0,1-3.26,2.71c-.3.16-.61.31-.92.45l-.35.15,1.66,4.36,4.73,1.33a.32.32,0,0,1,.28.39.63.63,0,0,1-.76.53l-3.8-1.06,1,2.71,5,1.39a.32.32,0,0,1,.28.39.63.63,0,0,1-.76.53l-4-1.13,1.36,3.58,5,1.41a.32.32,0,0,1,.27.39.62.62,0,0,1-.76.53L84.51,166,86,169.89a.47.47,0,0,1,0,.46.65.65,0,0,1-.5.26.4.4,0,0,1-.4-.3l-1.57-4.11-2.69,3.55a.42.42,0,0,1-.36.2.59.59,0,0,1-.51-.34.43.43,0,0,1,.06-.5l3.07-4.05-1.41-3.71L78.9,165a.44.44,0,0,1-.36.2.59.59,0,0,1-.51-.34.43.43,0,0,1,.06-.5l3.11-4.11-1.14-3L77.18,161a.42.42,0,0,1-.35.19.62.62,0,0,1-.52-.34.46.46,0,0,1,.06-.5l3.26-4.29-1.5-3.94-.34.09a12.1,12.1,0,0,1-5.15.21l-.36-.07L71,157l3,3.79a.42.42,0,0,1,.07.47.61.61,0,0,1-.53.34.47.47,0,0,1-.37-.2l-2.51-3.16L70,161l3.15,4a.42.42,0,0,1,.07.47.62.62,0,0,1-.53.34.47.47,0,0,1-.37-.2l-2.66-3.35-1,3.68,3.2,4a.42.42,0,0,1,.08.47.63.63,0,0,1-.54.34.45.45,0,0,1-.37-.2l-2.7-3.41-1.13,4.14c-.07.26-.21.28-.31.28a.66.66,0,0,1-.51-.26.57.57,0,0,1-.1-.51l1.12-4.11-4.19,1.26a.61.61,0,0,1-.75-.51.36.36,0,0,1,.28-.42l5-1.5,1-3.84L64.45,163a.6.6,0,0,1-.75-.51A.35.35,0,0,1,64,162l5-1.52.84-3.11-4.47,1.35a.6.6,0,0,1-.75-.51.35.35,0,0,1,.28-.42l5.26-1.59,1.11-4.11-.35-.11a11.36,11.36,0,0,1-4.41-2.73l-.25-.26-3.58,2.88.2,4.72a.48.48,0,0,1-.15.4.66.66,0,0,1-.47.2.36.36,0,0,1-.4-.39l-.17-4.13-2.25,1.81.2,5a.51.51,0,0,1-.14.4.69.69,0,0,1-.47.2.36.36,0,0,1-.4-.39l-.19-4.37-3,2.4.21,5a.52.52,0,0,1-.14.4.68.68,0,0,1-.47.19.35.35,0,0,1-.4-.38l-.19-4.45-3.27,2.63a.48.48,0,0,1-.29.12.56.56,0,0,1-.48-.4.45.45,0,0,1,.16-.55L54,157.57l-4.26-1.48a.38.38,0,0,1-.28-.47.56.56,0,0,1,.72-.46l4.76,1.65,3.1-2.49-4.33-1.5a.39.39,0,0,1-.29-.47.57.57,0,0,1,.73-.47L59,153.56l2.51-2L57,150a.38.38,0,0,1-.29-.47.56.56,0,0,1,.72-.47l5,1.75,3.19-2.56-.22-.3a12.19,12.19,0,0,1-2-4.91l-.06-.34-4.36.21L56.24,147a.4.4,0,0,1-.32.2.63.63,0,0,1-.5-.33.55.55,0,0,1,0-.56l2.2-3.31-2.88.14-2.84,4.26a.36.36,0,0,1-.32.2.61.61,0,0,1-.49-.33.5.5,0,0,1,0-.55l2.34-3.52-3.81.19-2.88,4.33a.37.37,0,0,1-.32.2.61.61,0,0,1-.49-.33.5.5,0,0,1,0-.55l2.38-3.66-4.1.13h0a.53.53,0,0,1-.56-.52c0-.18.06-.37.38-.39l4.46-.2L46,138.73a.46.46,0,0,1,0-.51.61.61,0,0,1,.5-.33.43.43,0,0,1,.35.2l2.93,4.22,4-.2-2.56-3.68a.47.47,0,0,1,0-.53.61.61,0,0,1,.5-.33.39.39,0,0,1,.34.21l3,4.27,3.21-.15L55.46,138a.47.47,0,0,1,0-.52.62.62,0,0,1,.5-.34.42.42,0,0,1,.35.21l3.1,4.47,3.83-.19,0-.39a11.64,11.64,0,0,1,1.15-5.4l.16-.31-3.3-2.16-4.48,1.66a.55.55,0,0,1-.72-.44.42.42,0,0,1,.29-.5l3.83-1.42-2.41-1.58L53,132.86a.55.55,0,0,1-.72-.45.41.41,0,0,1,.29-.49l4.06-1.51-3.2-2.09-4.78,1.78a.54.54,0,0,1-.71-.45.4.4,0,0,1,.29-.49l4.13-1.54-3.56-2.33a.34.34,0,0,1-.18-.43.64.64,0,0,1,.57-.44.51.51,0,0,1,.3.1l3.6,2.35.09-4.55a.35.35,0,0,1,.4-.38.68.68,0,0,1,.47.19.53.53,0,0,1,.15.4l-.1,5,3.33,2.18.09-4.63a.35.35,0,0,1,.4-.38.67.67,0,0,1,.47.19.49.49,0,0,1,.15.4l-.1,5.08,2.7,1.76.1-4.85a.35.35,0,0,1,.39-.39.7.7,0,0,1,.48.2.55.55,0,0,1,.15.4l-.11,5.3L65,134.67l.22-.31a10.16,10.16,0,0,1,.93-1.13,12.22,12.22,0,0,1,3.43-2.52l.32-.15L68.58,127l-4.74-1.32a.34.34,0,0,1-.28-.39.64.64,0,0,1,.77-.53l3.8,1.06-1-2.71-5-1.39a.32.32,0,0,1-.28-.39.64.64,0,0,1,.77-.53l4,1.12-1.36-3.58-5-1.4a.34.34,0,0,1-.28-.4.64.64,0,0,1,.77-.53l4.1,1.15-1.48-3.89a.48.48,0,0,1,0-.45.64.64,0,0,1,.51-.26.4.4,0,0,1,.4.3L65.86,117l2.7-3.55a.42.42,0,0,1,.35-.2.61.61,0,0,1,.52.34.45.45,0,0,1-.06.5l-3.07,4,1.41,3.71,2.74-3.62a.45.45,0,0,1,.35-.2.63.63,0,0,1,.52.34.46.46,0,0,1-.06.5L68.14,123l1.14,3,2.88-3.8a.45.45,0,0,1,.36-.2.61.61,0,0,1,.51.34.43.43,0,0,1-.06.5l-3.25,4.29,1.16,3,.35-.11a11.69,11.69,0,0,1,5.77-.38l.36.07,1-3.5-3-3.8a.42.42,0,0,1-.08-.47.65.65,0,0,1,.54-.34.48.48,0,0,1,.37.2L78.65,125l.75-2.78-3.15-4a.41.41,0,0,1-.07-.47.62.62,0,0,1,.53-.33.46.46,0,0,1,.37.19L79.74,121l1-3.68-3.2-4a.43.43,0,0,1-.07-.47.64.64,0,0,1,.53-.34.47.47,0,0,1,.37.2l2.71,3.42,1.12-4.15c.07-.25.22-.28.32-.28a.7.7,0,0,1,.51.27.55.55,0,0,1,.1.5L82,116.52l4.18-1.27a.63.63,0,0,1,.76.51.36.36,0,0,1-.29.42l-5,1.5-1,3.84,4.26-1.28a.6.6,0,0,1,.75.51.34.34,0,0,1-.28.41l-5,1.53-.85,3.11L84,124.44a.62.62,0,0,1,.75.52.34.34,0,0,1-.28.41L79.17,127l-.83,3,.35.12A11.32,11.32,0,0,1,81,131.24a11.61,11.61,0,0,1,2.49,2.15l.25.29,3-2.39-.2-4.71a.54.54,0,0,1,.14-.41.68.68,0,0,1,.47-.19.37.37,0,0,1,.41.38l.17,4.14,2.25-1.82-.2-5a.53.53,0,0,1,.14-.41.65.65,0,0,1,.47-.19.35.35,0,0,1,.4.38l.18,4.38,3-2.4-.21-5a.55.55,0,0,1,.15-.41.65.65,0,0,1,.47-.19.36.36,0,0,1,.4.38l.18,4.46,3.28-2.64a.46.46,0,0,1,.29-.12.59.59,0,0,1,.48.4.48.48,0,0,1-.16.56l-3.39,2.72,4.25,1.48a.39.39,0,0,1,.29.47.56.56,0,0,1-.72.47l-4.77-1.65-3.09,2.48,4.33,1.51a.38.38,0,0,1,.28.47.58.58,0,0,1-.53.5.63.63,0,0,1-.19,0l-4.84-1.68-2.5,2,4.54,1.58a.39.39,0,0,1,.29.47.57.57,0,0,1-.73.47l-5-1.76-2.61,2.1.18.3a11.69,11.69,0,0,1,1.78,5.32l0,.38,4.11-.2,2.7-4.06a.37.37,0,0,1,.32-.2.61.61,0,0,1,.49.33.5.5,0,0,1,0,.55l-2.21,3.32,2.89-.14,2.83-4.27a.4.4,0,0,1,.32-.2.63.63,0,0,1,.5.33.55.55,0,0,1,0,.56L95.85,140l3.81-.19,2.88-4.33a.38.38,0,0,1,.32-.2.61.61,0,0,1,.49.33.52.52,0,0,1,0,.56l-2.39,3.52,4.1-.26h0c.4,0,.55.43.56.66A.42.42,0,0,1,105.24,140.6Z"/><path class="cls-1" d="M65.37,136.12l-.19.42c-.07.16-.14.31-.2.47a10.58,10.58,0,0,0-.75,4.18v.4l8.83-.43Zm.35,1.18h0l4.87,3.19-5.57.27A9.93,9.93,0,0,1,65.72,137.3Z"/><path class="cls-1" d="M78.73,150.8l.38-.17A10.86,10.86,0,0,0,82.69,148l.3-.35-7.27-4.75Zm.44-1.08-1.84-4.83,4.45,2.91A9.84,9.84,0,0,1,79.17,149.72Z"/><path class="cls-1" d="M64.34,142.62l.08.45a11.12,11.12,0,0,0,1.75,4.16l.25.34,6.7-5.39Zm1,.74,5.42-.26-4.13,3.32A10.11,10.11,0,0,1,65.3,143.36Z"/><path class="cls-1" d="M67.08,148.36l.32.32a10,10,0,0,0,3.31,2.14l.45.17.4.14L73.77,143ZM71,150.09h0a9.05,9.05,0,0,1-2.71-1.68l4.07-3.28Z"/><path class="cls-1" d="M83.6,146.81l.21-.34a10,10,0,0,0,.71-1.38,10.59,10.59,0,0,0,.72-3.06l0-.45-9,.45Zm.19-2a8.53,8.53,0,0,1-.45.91l-4.59-3,5.65-.28A10,10,0,0,1,83.79,144.79Z"/><path class="cls-1" d="M72.55,151.38l.43.07a10.64,10.64,0,0,0,4.35-.19l.43-.11-3-7.9Zm4.15-.79a10.09,10.09,0,0,1-3.15.14l1.33-4.92Z"/><path class="cls-1" d="M70.28,131.49l-.39.2a10.27,10.27,0,0,0-3.76,3.21l-.24.34,7.74,5.06Zm-.43,1.12L72,138.3,67,135A9.3,9.3,0,0,1,69.85,132.61Z"/><path class="cls-1" d="M158.66,74.45l-.47-.4-.1.61a9.61,9.61,0,0,0,.18,3.61l.81,1.49h.21a22,22,0,0,1,5.16.5l1.36.29-1.06-.9C162.73,78,160.68,76.2,158.66,74.45Zm1.06,4.61h-.24l-.55-1a9.87,9.87,0,0,1-.23-2.67c1.53,1.32,3.08,2.63,4.6,3.93A22.73,22.73,0,0,0,159.72,79.06Z"/><path class="cls-1" d="M139.84,83.74a1.49,1.49,0,0,0-1,.38,1.22,1.22,0,0,0-.35.92,1.41,1.41,0,0,0,1.44,1.27A1.38,1.38,0,0,0,141.35,85v0A1.42,1.42,0,0,0,139.84,83.74Zm-.09,1.88a.6.6,0,0,1-.62-.62.52.52,0,0,1,.12-.4.61.61,0,0,1,.45-.17.65.65,0,0,1,.68.59A.61.61,0,0,1,139.75,85.62Z"/><path class="cls-1" d="M154.22,76.75l-.52-.2,0,.55c.17,2.29.36,4.65.56,7l.13,1.63L155,84.2a13.3,13.3,0,0,1,2.67-4.66.18.18,0,0,1,.1-.06l.61-.2-.49-.4A13.45,13.45,0,0,0,154.22,76.75Zm.65,5.83c-.14-1.68-.27-3.34-.39-5a12.62,12.62,0,0,1,2.59,1.53A13.22,13.22,0,0,0,154.87,82.58Z"/><path class="cls-1" d="M164.71,91.61A1.3,1.3,0,0,0,166,90.34v0a1.36,1.36,0,0,0-1.89-1.16l0,0-.07,0-.06,0a1.18,1.18,0,0,0-.56,1.12A1.29,1.29,0,0,0,164.71,91.61Zm-.41-1.78.12-.06a1,1,0,0,1,.24,0,.65.65,0,0,1,.68.59.61.61,0,0,1-.63.6.6.6,0,0,1-.62-.62A.5.5,0,0,1,164.3,89.83Z"/><path class="cls-1" d="M162.92,64.35l-.2-.4-.32.27,0,0,0,.06a13.3,13.3,0,0,0-1.91,3.59l-.18.5.53,0,6.89-.54,1.66-.14-1.58-.54a13.38,13.38,0,0,1-4.75-2.7A.21.21,0,0,1,162.92,64.35Zm-1.67,3.27a12.7,12.7,0,0,1,1.38-2.57,13.2,13.2,0,0,0,3.47,2.19Z"/><path class="cls-1" d="M145.42,91.65a1.16,1.16,0,0,0-.32.91c.05.84.51,1.27,1.13,1.27a1.12,1.12,0,0,0,1.12-1.27h0v0a1.15,1.15,0,0,0-1.17-1.27A.89.89,0,0,0,145.42,91.65Zm1.62.9a.6.6,0,0,1-.62.59.61.61,0,0,1-.63-.61.55.55,0,0,1,.13-.41.68.68,0,0,1,1.12.43Z"/><path class="cls-1" d="M168.17,83.57a1.16,1.16,0,0,0,1.18-1.27h0v0A1.19,1.19,0,0,0,168.12,81a1.17,1.17,0,0,0-.89.39,1.23,1.23,0,0,0-.34.91A1.26,1.26,0,0,0,168.17,83.57Zm-.36-1.71a.62.62,0,0,1,.44-.16.64.64,0,0,1,.68.59.63.63,0,0,1-1.25,0A.51.51,0,0,1,167.81,81.86Z"/><path class="cls-1" d="M153.48,89.49a1.4,1.4,0,0,0,1.44,1.26,1.37,1.37,0,0,0,1.43-1.26v0a1.41,1.41,0,0,0-1.49-1.27,1.45,1.45,0,0,0-1,.39A1.26,1.26,0,0,0,153.48,89.49Zm.82-.44a.59.59,0,0,1,.44-.17.63.63,0,0,1,.68.59.59.59,0,0,1-.62.59.6.6,0,0,1-.63-.61A.51.51,0,0,1,154.3,89.05Z"/><path class="cls-1" d="M174.16,58.61a1.18,1.18,0,0,0,1.19-1.27v0a1.24,1.24,0,0,0-2.13-.88,1.25,1.25,0,0,0-.34.92A1.27,1.27,0,0,0,174.16,58.61Zm-.37-1.71a.61.61,0,0,1,.45-.17.64.64,0,0,1,.67.59.6.6,0,0,1-.62.6.61.61,0,0,1-.63-.62A.53.53,0,0,1,173.79,56.9Z"/><path class="cls-1" d="M166,55.19a1.33,1.33,0,0,0,1.38-1.27v0a1.35,1.35,0,0,0-1.43-1.26,1.39,1.39,0,0,0-1,.38,1.19,1.19,0,0,0-.3.92A1.31,1.31,0,0,0,166,55.19Zm-.56-1.71a.61.61,0,0,1,.45-.17.65.65,0,0,1,.68.59.61.61,0,0,1-.63.6.6.6,0,0,1-.62-.62A.52.52,0,0,1,165.41,53.48Z"/><path class="cls-1" d="M175.88,74.67a1.45,1.45,0,0,0-1,.39,1.21,1.21,0,0,0-.34.92,1.37,1.37,0,0,0,1.4,1.27A1.35,1.35,0,0,0,177.35,76v0A1.39,1.39,0,0,0,175.88,74.67Zm0,1.88a.61.61,0,0,1-.63-.61.53.53,0,0,1,.13-.4.6.6,0,0,1,.45-.17.63.63,0,0,1,.67.59A.59.59,0,0,1,175.83,76.55Z"/><path class="cls-1" d="M132.18,80.82l-.08-.08s-.06,0-.07-.08l-.05-.09a1.4,1.4,0,0,0-1.17-.59,1.32,1.32,0,0,0-.95.38,1.2,1.2,0,0,0-.32.92A1.39,1.39,0,0,0,131,82.55a1.35,1.35,0,0,0,1.4-1.27v0C132.35,81.09,132.23,81,132.18,80.82Zm-1.32,1a.61.61,0,0,1-.63-.61.57.57,0,0,1,.13-.4.61.61,0,0,1,.45-.17.7.7,0,0,1,.55.25c0,.07.06.12.09.18a.41.41,0,0,1,0,.16A.59.59,0,0,1,130.86,81.85Z"/><path class="cls-1" d="M160,46.81a1.31,1.31,0,0,0,1.37-1.27v0h0a1.43,1.43,0,0,0-2.4-.88,1.19,1.19,0,0,0-.3.91A1.3,1.3,0,0,0,160,46.81Zm-.55-1.71a.63.63,0,0,1,.44-.17.64.64,0,0,1,.68.59.63.63,0,0,1-1.25,0A.55.55,0,0,1,159.43,45.1Z"/><path class="cls-1" d="M175.85,73.44a2.25,2.25,0,0,0-1.77.73l-7.59-2.11a21.4,21.4,0,0,1,4.41-3.16,2.81,2.81,0,0,0,2,1,2.52,2.52,0,0,0,2.51-2.28,1,1,0,0,0,0-.24,1.79,1.79,0,0,0,0-.23,2.56,2.56,0,0,0-2.48-2.28,2.45,2.45,0,0,0-2.39,1.75,14.39,14.39,0,0,1-6.09-2.55,1.64,1.64,0,0,1,0-.22c2.84-1.59,5.61-3.14,8.25-4.64a2.85,2.85,0,0,0,1.58.6,2.52,2.52,0,0,0,2.51-2.28.6.6,0,0,0,0-.22.71.71,0,0,0,0-.25,2.51,2.51,0,0,0-5,.49l-7.39,4.16a21.92,21.92,0,0,1,.87-5.43,2.78,2.78,0,0,0,.63.11,2.52,2.52,0,0,0,2.51-2.28,1,1,0,0,0,0-.24,2,2,0,0,0,0-.23,2.51,2.51,0,0,0-5,.21,2.15,2.15,0,0,0,.14.91,14.59,14.59,0,0,1-6.2,2.56h0c.93-3.27,1.78-6.32,2.61-9.3a2.5,2.5,0,0,0,2.48-2.27.71.71,0,0,0,0-.25.62.62,0,0,0,0-.23,2.51,2.51,0,0,0-5,.22,2.28,2.28,0,0,0,.77,1.81c-.73,2.64-1.52,5.45-2.41,8.57a21.92,21.92,0,0,1-3.39-4.64,2.77,2.77,0,0,0,1.15-1.89.71.71,0,0,0,0-.25.62.62,0,0,0,0-.23,2.51,2.51,0,0,0-5,.22,2.41,2.41,0,0,0,1.58,2.32,14.66,14.66,0,0,1-2.49,6.1c-1.6-2.89-3.2-5.75-4.75-8.5a2.85,2.85,0,0,0,.58-1.37.69.69,0,0,0,0-.24.65.65,0,0,0,0-.24,2.51,2.51,0,0,0-5,.22,2.27,2.27,0,0,0,.75,1.79,2.79,2.79,0,0,0,1.75.74h.26c1.41,2.48,2.83,5,4.35,7.76a21.3,21.3,0,0,1-5.9-.9c0-.08,0-.16,0-.24a.69.69,0,0,0,0-.24,1,1,0,0,0,0-.24,2.51,2.51,0,0,0-5,.22,2.53,2.53,0,0,0,2.5,2.53,2.16,2.16,0,0,0,1.09-.22,14.58,14.58,0,0,1,2.52,6.06c-3.4-1-6.5-1.85-9.49-2.67a2.51,2.51,0,0,0-5,.28,2.29,2.29,0,0,0,.75,1.8,2.91,2.91,0,0,0,1.75.74,2.35,2.35,0,0,0,2-1c2.66.74,5.48,1.53,8.61,2.42a22,22,0,0,1-4.55,3.38.93.93,0,0,0-.37.19,2.59,2.59,0,0,0-2.06-1.13,2.52,2.52,0,1,0,0,5A2.42,2.42,0,0,0,134.77,72a14.61,14.61,0,0,1,6.28,2.58v.07c-3,1.64-5.83,3.25-8.55,4.78a2.65,2.65,0,0,0-1.62-.63,2.52,2.52,0,1,0,2.47,2.75,1,1,0,0,0,0-.24,1.23,1.23,0,0,0,0-.2c2.44-1.37,5-2.8,7.75-4.33a21.59,21.59,0,0,1-.93,5.83,1.92,1.92,0,0,0-.41,0A2.54,2.54,0,0,0,137.24,85a2.28,2.28,0,0,0,.74,1.8,2.91,2.91,0,0,0,1.75.74,2.52,2.52,0,0,0,2.51-2.28,1,1,0,0,0,0-.24,2,2,0,0,0,0-.23,2.9,2.9,0,0,0-.3-.93,14.65,14.65,0,0,1,6.21-2.58l.23.2c-.87,3.09-1.66,5.9-2.4,8.57a2.61,2.61,0,0,0-2.09,2.48,2.55,2.55,0,0,0,2.5,2.53h.12a2.53,2.53,0,0,0,2.39-2.27,1.12,1.12,0,0,0,0-.24,1,1,0,0,0,0-.24,2.53,2.53,0,0,0-1.08-1.82c.64-2.3,1.33-4.77,2.11-7.52a22.06,22.06,0,0,1,3.26,4.56,2.81,2.81,0,0,0-.92,1.92,2.27,2.27,0,0,0,.75,1.79,2.79,2.79,0,0,0,1.75.74,2.52,2.52,0,0,0,2.51-2.27.67.67,0,0,0,0-.24.65.65,0,0,0,0-.24,2.54,2.54,0,0,0-1.86-2.18A14.41,14.41,0,0,1,158,81l.42,0c1.57,2.81,3,5.35,4.38,7.77a2.79,2.79,0,0,0-.57,1.54,2.54,2.54,0,0,0,2.5,2.54,2.51,2.51,0,0,0,2.5-2.26.88.88,0,0,0,0-.26.9.9,0,0,0,0-.23,2.56,2.56,0,0,0-2.48-2.28,1.82,1.82,0,0,0-.33,0c-1.24-2.18-2.5-4.43-3.85-6.84a21.52,21.52,0,0,1,5.3.88,3,3,0,0,0-.06.42,2.24,2.24,0,0,0,.75,1.79,2.77,2.77,0,0,0,1.75.74,2.51,2.51,0,0,0,2.51-2.27,1,1,0,0,0,0-.24.88.88,0,0,0,0-.22,2.56,2.56,0,0,0-2.48-2.3,2.24,2.24,0,0,0-1.11.23,14.54,14.54,0,0,1-2.5-6.09c.09-.11.2-.21.29-.31,2.94.83,5.35,1.59,8.35,2.32v0a2.58,2.58,0,0,0,2.48,2.54h.11a2.54,2.54,0,0,0,2.39-2.28,1,1,0,0,0,0-.24,1,1,0,0,0,0-.24A2.56,2.56,0,0,0,175.85,73.44Zm1.8,2.54a.25.25,0,0,1,0,.08v0a1.83,1.83,0,0,1-1.79,1.69A1.85,1.85,0,0,1,174,76a1,1,0,0,1,0-.25l.05-.31-.3-.09c-2.81-.77-5.7-1.58-8.83-2.46l-.21-.06-.14.16c-.18.2-.36.4-.53.61l-.09.11,0,.15a15.34,15.34,0,0,0,2.81,6.83l.2.29.29-.21a1.55,1.55,0,0,1,1-.29,2,2,0,0,1,1.94,1.72s.12.06.12.09v0h0s-.11,0-.12.09l-.06,0a1.87,1.87,0,0,1-1.82,1.69,2.21,2.21,0,0,1-1.33-.56,1.61,1.61,0,0,1-.53-1.25,2.3,2.3,0,0,1,.11-.57l.12-.34-.34-.1a22.12,22.12,0,0,0-6.43-1h-.6l.29.52c1.51,2.7,2.91,5.18,4.28,7.6l.12.22.25-.06a1.42,1.42,0,0,1,.41,0,1.86,1.86,0,0,1,1.82,1.69l-.08,0s-.09,0-.09.07v0s.09,0,.08.12a1.8,1.8,0,0,1-1.74,1.69,1.85,1.85,0,0,1-1.82-1.81,2.16,2.16,0,0,1,.56-1.31l.18-.18-.12-.22c-1.44-2.54-3-5.21-4.6-8.17l-.1-.19h-.22l-.82.06-.15,0-.09.11a15.24,15.24,0,0,0-2.83,6.79l-.07.35.37,0a1.84,1.84,0,0,1,1.62,1.67l-.12,0s-.13.06-.13.08v0s.14,0,.13.08l.06,0a1.8,1.8,0,0,1-1.76,1.69,2.08,2.08,0,0,1-1.29-.56,1.53,1.53,0,0,1-.52-1.24,2.07,2.07,0,0,1,.86-1.58l.26-.17-.14-.27A22.68,22.68,0,0,0,150,82.05l-.42-.42-.16.57c-.88,3.09-1.64,5.82-2.34,8.36l-.08.27.25.13a1.84,1.84,0,0,1,1,1.45l.06,0s.06,0,.06.08v0h0s0,0-.06.08l0,0a1.84,1.84,0,0,1-1.8,1.69,1.83,1.83,0,0,1-.17-3.65h.25l.07-.25c.77-2.8,1.6-5.75,2.52-9l.06-.21L149,81.1l-.53-.45-.11-.09h-.15a15.49,15.49,0,0,0-6.94,2.9l-.3.2.21.29a1.86,1.86,0,0,1,.36.93l-.11,0s-.1.06-.1.08v0s.11,0,.1.08l.05,0a1.78,1.78,0,0,1-1.76,1.68,2,2,0,0,1-1.3-.55,1.6,1.6,0,0,1-.52-1.25,1.87,1.87,0,0,1,1.81-1.84,2.61,2.61,0,0,1,.57.1l.33.11.11-.33a22.56,22.56,0,0,0,1.07-6.94v-.59l-.51.28c-3.06,1.7-5.83,3.25-8.49,4.75l-.22.12,0,.25c0,.06-.14.12-.13.21s-.16.06-.16.08v0s.17,0,.16.08l.08,0a1.78,1.78,0,0,1-1.75,1.69,1.83,1.83,0,0,1-1.82-1.8,1.86,1.86,0,0,1,1.81-1.84,2,2,0,0,1,1.35.6l.19.21.24-.14c2.85-1.6,5.86-3.29,9-5l.2-.11,0-.22,0-.45,0-.15-.12-.09a15.36,15.36,0,0,0-7-2.87l-.33-.07-.07.33A1.82,1.82,0,0,1,132.42,73,1.83,1.83,0,1,1,134,70.41l.15.32.32-.16.32-.17.05,0,0,0a.31.31,0,0,1,.13-.06l.1,0a22.54,22.54,0,0,0,5.17-3.94l.41-.42-.57-.15c-3.44-1-6.53-1.86-9.42-2.66l-.26-.07-.13.23a1.63,1.63,0,0,1-1.51.88,2.12,2.12,0,0,1-1.32-.55A1.58,1.58,0,0,1,127,62.3a1.84,1.84,0,0,1,1.8-1.84,1.87,1.87,0,0,1,1.83,1.69v0a.15.15,0,0,1,0,.07v.26l.25.07c3.14.87,6.4,1.79,10,2.81l.21.06.14-.16.2-.23.09-.11V64.8a15.42,15.42,0,0,0-2.85-6.87l-.2-.29-.28.2a1.52,1.52,0,0,1-1,.28,1.87,1.87,0,0,1-1.85-1.8,1.82,1.82,0,0,1,3.63-.16l.18,0s.18.06.18.08v0s-.17,0-.18.08l-.09,0a2.1,2.1,0,0,1-.16.46l-.15.34.34.11a22.55,22.55,0,0,0,7,1h.58l-.28-.51c-1.67-3-3.23-5.78-4.76-8.48l-.12-.22-.24.05a2.06,2.06,0,0,1-.35,0,2.13,2.13,0,0,1-1.32-.56,1.56,1.56,0,0,1-.52-1.24,1.85,1.85,0,0,1,1.8-1.85,1.88,1.88,0,0,1,1.83,1.69l-.21,0s-.2,0-.2.08v0s.21,0,.2.08l.1,0a2.05,2.05,0,0,1-.52,1.19l-.15.19.14.22c1.64,2.91,3.34,5.94,5,9l.12.19.62,0,.1-.12a15.35,15.35,0,0,0,2.85-6.9l.06-.31-.3-.09a1.81,1.81,0,0,1-1.39-1.73,1.82,1.82,0,0,1,3.63-.15v0a.22.22,0,0,1,0,.08v0h0a.22.22,0,0,1,0,.08v0a2,2,0,0,1-1.07,1.55l-.33.15.17.33a22.22,22.22,0,0,0,4.09,5.52l.42.41.16-.56c1-3.43,1.83-6.49,2.63-9.36l.06-.23-.19-.14a1.65,1.65,0,0,1-.68-1.38,1.82,1.82,0,0,1,3.63-.15l-.19,0s-.19,0-.19.08h0v0s.2.05.19.08l.09,0A1.79,1.79,0,0,1,160,47.35h-.06l-.2,0-.3,0-.07.3c-.87,3.14-1.77,6.34-2.75,9.8l-.06.21.17.15.3.25.11.1.15,0a15.32,15.32,0,0,0,6.9-2.86l.26-.18-.15-.28a1.46,1.46,0,0,1-.19-.82,1.85,1.85,0,0,1,1.8-1.84,1.87,1.87,0,0,1,1.83,1.69l-.19,0s-.18,0-.18.07v0s.19,0,.18.08l.09,0a1.79,1.79,0,0,1-1.74,1.69,2.07,2.07,0,0,1-.67-.17l-.27-.11-.14.26,0,0-.11.13-.19.07a22.33,22.33,0,0,0-1.12,6.38v.59l.69-.28c2.92-1.63,5.66-3.13,8.2-4.57l.26-.12,0-.24a1.53,1.53,0,0,1,0-.37,1.82,1.82,0,0,1,3.63-.15v0a.31.31,0,0,1,0,.11.22.22,0,0,1,0,.08v0a1.85,1.85,0,0,1-1.79,1.69,2.15,2.15,0,0,1-1.34-.58l-.18-.18-.23.12c-2.76,1.57-5.67,3.21-8.65,4.87l-.19.11v.22c0,.2,0,.4.05.61v.14l.12.1a15.2,15.2,0,0,0,6.83,2.83l.33.07.07-.33a1.82,1.82,0,0,1,1.76-1.54,1.87,1.87,0,0,1,1.83,1.69l-.19,0s-.19.06-.19.08v0s.2,0,.19.08l.09,0a1.78,1.78,0,0,1-1.74,1.69,2,2,0,0,1-1.61-1l-.15-.29-.29.16A22,22,0,0,0,165.56,72l-.43.41.58.17,8.39,2.34.22.06.15-.18a1.58,1.58,0,0,1,1.34-.64,1.86,1.86,0,0,1,1.83,1.69v0a.25.25,0,0,1,0,.08v0Z"/><path class="cls-1" d="M173,68.7a1.32,1.32,0,0,0,1.37-1.27v0a1.34,1.34,0,0,0-1.42-1.26,1.38,1.38,0,0,0-1,.38,1.23,1.23,0,0,0-.31.92A1.33,1.33,0,0,0,173,68.7ZM172.42,67a.61.61,0,0,1,.45-.17.64.64,0,0,1,.68.59.63.63,0,0,1-1.25,0A.52.52,0,0,1,172.42,67Z"/><path class="cls-1" d="M163.47,73l.33-.4-.49-.15-.1,0h-.06a13.54,13.54,0,0,0-4.05,1.14l-.49.23.41.35c1.75,1.51,3.51,3,5.24,4.48l1.23,1-.69-1.46a13.29,13.29,0,0,1-1.36-5.08A.2.2,0,0,1,163.47,73Zm.12,4.16-3.7-3.17a12.56,12.56,0,0,1,2.86-.8A13.43,13.43,0,0,0,163.59,77.11Z"/><path class="cls-1" d="M132.16,69.89a1.1,1.1,0,0,0-.85.38,1.38,1.38,0,0,0,.88,2.19,1.16,1.16,0,0,0,1.16-1.27v0A1.15,1.15,0,0,0,132.16,69.89Zm.24,1.87a.6.6,0,0,1-.63-.61.57.57,0,0,1,.13-.4.6.6,0,0,1,.45-.17.64.64,0,0,1,.67.59A.59.59,0,0,1,132.4,71.76Z"/><path class="cls-1" d="M128.87,61a1.47,1.47,0,0,0-1,.38,1.25,1.25,0,0,0-.34.92,1.38,1.38,0,0,0,1.42,1.27,1.36,1.36,0,0,0,1.41-1.27v0A1.39,1.39,0,0,0,128.87,61Zm-.06,1.87a.61.61,0,0,1-.63-.61.53.53,0,0,1,.13-.4.6.6,0,0,1,.45-.17.64.64,0,0,1,.67.59A.59.59,0,0,1,128.81,62.87Z"/><path class="cls-1" d="M137.13,55a1.3,1.3,0,0,0-.95.39,1.22,1.22,0,0,0-.31.92,1.32,1.32,0,0,0,2.63,0v0A1.33,1.33,0,0,0,137.13,55Zm.06,1.88a.6.6,0,0,1-.63-.61.48.48,0,0,1,.13-.4.59.59,0,0,1,.44-.17.63.63,0,0,1,.68.59A.6.6,0,0,1,137.19,56.89Z"/><path class="cls-1" d="M142.35,47.41v0a1.41,1.41,0,0,0-2.38-.88,1.19,1.19,0,0,0-.33.92A1.29,1.29,0,0,0,141,48.69a1,1,0,0,0,.24,0l.12,0,.08-.09a.33.33,0,0,1,.23-.12h.13l.14-.09a1.25,1.25,0,0,0,.46-.92Zm-.9.35A1,1,0,0,0,141,48a.6.6,0,0,1-.65-.61.55.55,0,0,1,.13-.41.63.63,0,0,1,1,.78Z"/><path class="cls-1" d="M169.73,68.14l-1.36.11c-2.49.21-5,.41-7.41.59l-.65,0,.4.51a10.23,10.23,0,0,0,2.92,2.48l.07.06.07.08.82.23.15-.15a22.1,22.1,0,0,1,3.85-3.21Zm-5.35,3.32-.24-.07-.15-.11a10.7,10.7,0,0,1-2.3-1.8l5.46-.43A22.79,22.79,0,0,0,164.38,71.46Z"/><path class="cls-1" d="M153.23,76.88l0-.6-.49.33A9,9,0,0,0,150.38,79l0,0-.6,2.09.15.14a22.6,22.6,0,0,1,3.33,4l.76,1.15L153.87,85C153.64,82.3,153.43,79.56,153.23,76.88Zm-2.7,4L151,79.3a9.09,9.09,0,0,1,1.6-1.75c.15,2.07.32,4.15.49,6.24A22.83,22.83,0,0,0,150.53,80.88Z"/><path class="cls-1" d="M152.24,58.91l.27,2.58.48-.35a10.15,10.15,0,0,0,2.7-3.08l0-.06.24-.25-.25-.24a22.1,22.1,0,0,1-3.38-4l-.76-1.16.13,1.39C151.87,55.46,152.06,57.19,152.24,58.91Zm2.79-1.1a10.45,10.45,0,0,1-2,2.39l-.14-1.36c-.14-1.29-.27-2.57-.4-3.86A21.81,21.81,0,0,0,155,57.81Z"/><path class="cls-1" d="M155.55,61l-1.62,5.58-.44,1.51,1-1.19c.84-1,1.68-1.93,2.51-2.9l.14-.15-.08-.2a.34.34,0,0,1,0-.2l.05-.14-.07-.13a13.76,13.76,0,0,1-.87-2.18l-.34-1.12Zm.86,2.38a1,1,0,0,0,0,.3c-.45.53-.91,1-1.36,1.57l.87-3C156.06,62.67,156.23,63.05,156.41,63.42Z"/><path class="cls-1" d="M152.35,49.13h0v0a1.37,1.37,0,0,0-2.32-.88,1.19,1.19,0,0,0-.31.91A1.29,1.29,0,0,0,151,50.4,1.26,1.26,0,0,0,152.35,49.13Zm-1.94,0a.51.51,0,0,1,.13-.41.63.63,0,0,1,.44-.17.64.64,0,0,1,.68.6.63.63,0,0,1-1.25,0Z"/><path class="cls-1" d="M142.06,65.53l.36,0a13,13,0,0,0,3.76-1l.52-.23-2.31-1.88-3.4-2.8-1.31-1.08.78,1.51a13.62,13.62,0,0,1,1.57,5.2ZM144,62.87,145.37,64a13.43,13.43,0,0,1-2.68.71,13.76,13.76,0,0,0-1-3.71Z"/><path class="cls-1" d="M157.45,62.83l.23.48.34-.4c1.52-1.76,3.07-3.58,4.62-5.41l1.15-1.36-1.57.83a13.8,13.8,0,0,1-5.64,1.65l-.38,0,.06.37A13.5,13.5,0,0,0,157.45,62.83Zm3.63-4.56L157.85,62a12.66,12.66,0,0,1-.84-2.75A13.82,13.82,0,0,0,161.08,58.27Z"/><path class="cls-1" d="M144.85,69.47l.59,0-.32-.5a9.21,9.21,0,0,0-2.62-2.53L141.25,66l-.15.15a22,22,0,0,1-3.69,3.23l-1.06.74,1.29-.11Zm-3.38-2.66.69.2a8.82,8.82,0,0,1,2,1.82l-5.38.42A23.86,23.86,0,0,0,141.47,66.81Z"/><path class="cls-1" d="M150.61,66.84,152,68l-.9-1.64-2.48-4.51L148,60.73v1.33a8,8,0,0,1-.28,2.1l-.07.22.18.14C148.77,65.28,149.69,66.06,150.61,66.84Zm-2-3.59,1,1.86-1.19-1A7.88,7.88,0,0,0,148.62,63.25Z"/><path class="cls-1" d="M150.67,67.54c-1-.88-2.14-1.8-3.38-2.83l-.17-.14-.2.1a14.66,14.66,0,0,1-2.76,1l-1.25.31,1.24.36q3.1.89,6.2,1.8l1.56.45ZM145.49,66c.52-.18,1-.38,1.53-.61.69.57,1.34,1.1,1.95,1.62Z"/><path class="cls-1" d="M143.55,74l1.17-.64,5.7-3.13,1.39-.76-1.58.11-4.35.31h-.23l-.07.22a13.93,13.93,0,0,1-1.33,2.75Zm2.6-3.44,2.55-.18-3.25,1.78A13.36,13.36,0,0,0,146.15,70.57Z"/><path class="cls-1" d="M146,69.39l.22,0,3.38-.24,1.94-.13-1.87-.55-4.47-1.29L144,66.82l.81.9a7.7,7.7,0,0,1,1,1.47Zm1.62-.81-1.23.09c-.11-.19-.22-.37-.34-.55Z"/><path class="cls-1" d="M151.47,61.19l.53.2-.27-2.53c-.16-1.51-.31-3-.46-4.52l-.16-1.62-.52,1.54a13.5,13.5,0,0,1-2.53,4.61l-.24.28.29.22A13.59,13.59,0,0,0,151.47,61.19Zm-.75-5.33c.11,1,.21,2,.32,3.07l.15,1.4a12.34,12.34,0,0,1-2.37-1.3A13.54,13.54,0,0,0,150.72,55.86Z"/><path class="cls-1" d="M158.54,63.07l-.42.49.64.08a7.77,7.77,0,0,0,1,.06,11.9,11.9,0,0,0,2.78-.37.25.25,0,0,1,.17,0l.19.05.33-.18V63a22.4,22.4,0,0,1,.38-4.82l.24-1.29-.85,1C161.47,59.65,160,61.4,158.54,63.07Zm4-.44-.14,0a10.9,10.9,0,0,1-2.83.35l3.18-3.72A23.55,23.55,0,0,0,162.49,62.63Z"/><path class="cls-1" d="M144.72,62l2.09,1.71.45.37.11-.57a9.92,9.92,0,0,0-.23-4.27l-.15-.35h-.22a22.34,22.34,0,0,1-5.27-.39l-1.34-.26,1.05.87Zm1.8-2.4a10.13,10.13,0,0,1,.26,3.19l-1.62-1.33-2.52-2.06A22,22,0,0,0,146.52,59.56Z"/><path class="cls-1" d="M147.6,74.91l.38-.44-.57-.12a8.79,8.79,0,0,0-3.36,0H144l-1.7.94v.21a22,22,0,0,1-.4,5.1l-.25,1.31.86-1C144.18,78.9,145.89,76.89,147.6,74.91Zm-4.6.77,1.22-.67a8.21,8.21,0,0,1,2.45-.08c-1.3,1.5-2.6,3-3.88,4.54A22,22,0,0,0,143,75.68Z"/><path class="cls-1" d="M154,71.65l-.76-1.38.11,1.57c.09,1.32.18,2.63.28,4l0,.23.21.07a13.25,13.25,0,0,1,2.48,1.15l1.09.63-.61-1.1Zm.3,3.86-.15-2.15,1.5,2.72Q155,75.77,154.32,75.51Z"/><path class="cls-1" d="M152.08,62.24v-.1l-.06-.08,0-.06-.06-.12-.14-.05a13,13,0,0,1-2.42-1.07l-1.07-.6.59,1.07c1,1.79,2,3.57,2.95,5.37l.79,1.44-.14-1.64C152.36,65.11,152.23,63.75,152.08,62.24ZM150,61.89a14.5,14.5,0,0,0,1.37.55c.09.83.16,1.62.23,2.37Z"/><path class="cls-1" d="M157.73,73.9l.05-.2-.16-.14-2.31-2-1.48-1.28.94,1.71c.69,1.25,1.38,2.51,2.08,3.76l.6,1.09.05-1.25A7.73,7.73,0,0,1,157.73,73.9Zm-.82.52c-.2-.35-.39-.71-.59-1.07l.69.59C157,74.1,156.94,74.26,156.91,74.42Z"/><path class="cls-1" d="M150.19,77.71l1.74-6,.44-1.52-1,1.19c-.92,1-1.83,2.11-2.75,3.17l-.15.17.1.2a14.3,14.3,0,0,1,1,2.8l.31,1.28Zm-.92-2.9c.51-.6,1-1.2,1.56-1.8-.33,1.11-.65,2.22-1,3.34A15.8,15.8,0,0,0,149.27,74.81Z"/><path class="cls-1" d="M152.78,70.58l-.55,1.87-1.14,4-.32,1.13.88-.77a8,8,0,0,1,1.3-.91l.19-.11v-.22c-.07-1-.15-2-.22-3Zm-.73,5c.1-.36.2-.72.31-1.09l.06.85C152.29,75.44,152.17,75.51,152.05,75.6Z"/><path class="cls-1" d="M148.11,74l.22.06.14-.17c.69-.8,1.38-1.6,2.08-2.39l1.27-1.46-1.7.93-3.79,2.07-1,.56,1.16.09A8.06,8.06,0,0,1,148.11,74Zm.65-1.5-.67.77a4.21,4.21,0,0,0-.51-.12Z"/><path class="cls-1" d="M155.62,68.72l3.66-.26.18,0,.09-.16a.33.33,0,0,1,.14-.12l.12-.07,0-.13a13.83,13.83,0,0,1,.9-2.1l.55-1-1,.56-4.85,2.68-1.38.75Zm4-2.19a11.12,11.12,0,0,0-.42,1.09.87.87,0,0,0-.17.16l-1.92.13Z"/><path class="cls-1" d="M160.23,64.84l1.28-.7-1.45,0A8.48,8.48,0,0,1,158,64l-.2,0-.13.16-2.3,2.65-1.28,1.47,1.71-.94Zm-2.21-.1c.25.05.51.08.77.11l-1.66.91Z"/><path class="cls-1" d="M155.09,60.82l.39-1.37-1,1a8,8,0,0,1-1.75,1.42l-.19.12,0,.22c.13,1.24.24,2.47.35,3.64l.16,1.85L153.6,66Q154.35,63.38,155.09,60.82Zm-1.8,1.56a8.14,8.14,0,0,0,.79-.56L153.45,64C153.4,63.46,153.35,62.92,153.29,62.38Z"/><path class="cls-1" d="M161.07,70.56a8.46,8.46,0,0,1-1.19-1.46l-.11-.18-.21,0-3.24.23-1.95.14,1.87.54,4.5,1.29,1.31.38Zm-2.76-.84,1.1-.07c.11.16.23.33.36.49Z"/><path class="cls-1" d="M158,73.26h.1l.07,0,.13,0,.13-.06a14.4,14.4,0,0,1,2.34-.92L162,72l-1.15-.33-5.35-1.54L154,69.71l1.19,1L158,73.19Zm1.5-1.22c-.42.16-.83.34-1.23.53l-1.53-1.32Z"/><path class="cls-1" d="M142.61,74.28l.23-.27a13.28,13.28,0,0,0,2.07-3.54l.2-.52-.55,0c-2.37.18-4.89.38-7.47.6l-1.85.15,1.79.53a13.78,13.78,0,0,1,5.31,2.78Zm1.44-3.55a12.4,12.4,0,0,1-1.53,2.56,14,14,0,0,0-3.72-2.15Z"/><path class="cls-1" d="M148.31,75.61l-.22-.51-.36.42c-1.51,1.76-3.1,3.63-4.72,5.54l-1.12,1.33,1.54-.8A13.74,13.74,0,0,1,149,80h.42l0-.38A13.17,13.17,0,0,0,148.31,75.61Zm-3.76,4.71c1.13-1.34,2.25-2.65,3.34-3.91a12.68,12.68,0,0,1,.72,2.93A13.37,13.37,0,0,0,144.55,80.32Z"/><path class="cls-1" d="M232.32,91.71l1.1,1-.1-1.46q-.42-6.31-.89-12.64l0-.28-.22-.16a1.05,1.05,0,0,1-.29-.34l-.12-.22-.23-.07a33.18,33.18,0,0,1-7.89-3.86l-1.12-.75.18,1.34a21,21,0,0,1-.38,8.37l-.09.37.28.25Q227.44,87.45,232.32,91.71Zm-8.25-16.37A34.88,34.88,0,0,0,231,78.58a2.13,2.13,0,0,0,.28.33q.39,5.46.77,10.92-4.19-3.66-8.4-7.29A21.5,21.5,0,0,0,224.07,75.34Z"/><path class="cls-1" d="M218.06,94.88l.39,0q6.23-.47,12.46-.88l1.46-.1-1.1-1q-5.06-4.39-10.12-8.78l-.31-.26-.36.18a33.17,33.17,0,0,1-8.24,2.82l-1.31.27L212,88a20.65,20.65,0,0,1,5.87,6.59Zm-4.32-7.1a34.14,34.14,0,0,0,6.92-2.47q4.36,3.78,8.7,7.55c-3.54.25-7.08.49-10.61.76A21.31,21.31,0,0,0,213.74,87.78Z"/><path class="cls-1" d="M236.22,93.61l1.46-.1q5.81-.39,11.61-.81l.32,0,.16-.28a1,1,0,0,1,.4-.38l.22-.11.08-.23a33,33,0,0,1,3.86-7.9l.74-1.12-1.34.19a25.69,25.69,0,0,1-3.42.24,19.34,19.34,0,0,1-4.15-.43l-.35-.08-.24.28-8.38,9.66Zm10-9.7a20.54,20.54,0,0,0,4.05.38c.75,0,1.52,0,2.31-.1a34,34,0,0,0-3.23,6.88,2.2,2.2,0,0,0-.48.43c-3.28.24-6.56.48-9.84.7Q242.67,88.06,246.26,83.91Z"/><path class="cls-1" d="M233.79,98l-.1-1.47-1,1.11q-4.23,4.84-8.44,9.72l-.26.3.17.36a33.12,33.12,0,0,1,2.57,7.71L227,117l.82-1.08a20.92,20.92,0,0,1,6.45-5.8l.34-.18,0-.39Q234.18,103.79,233.79,98Zm-6.12,16.23a34.28,34.28,0,0,0-2.21-6.37q3.6-4.17,7.21-8.32l.69,9.76A21.4,21.4,0,0,0,227.67,114.22Z"/><path class="cls-1" d="M276.44,89.33l-6.22.52c1.4-1.32,2.75-2.68,4.08-4l.61-.63a1.87,1.87,0,0,0,.44-2.11,2.13,2.13,0,0,0-1.92-1.33,1.89,1.89,0,0,0-1.37.59l-.64.64a94.09,94.09,0,0,1-7.79,7.26l-.18.13c-3.27.26-6.54.52-9.81.76a29.9,29.9,0,0,1,4.92-8.4,2.11,2.11,0,0,0,.33-2.26,2,2,0,0,0-2.3-1.07,24.85,24.85,0,0,1-7.16.81l6-7,1.75-.25c3.37-.49,6.86-1,10.27-1.83a1.86,1.86,0,0,0,1.45-2.11,2,2,0,0,0-2-1.85,2.22,2.22,0,0,0-.51.06c-2.38.59-4.82,1-7.05,1.35q2-2.37,4-4.75a2,2,0,0,0,.3-2.21,2.1,2.1,0,0,0-1.83-1.26,1.81,1.81,0,0,0-1.39.69c-1.34,1.6-2.73,3.19-4.08,4.78.06-2,0-4,0-5.87v-.72a1.9,1.9,0,0,0-2-2,2,2,0,0,0-1.45.59,1.86,1.86,0,0,0-.53,1.39v.77A98.53,98.53,0,0,1,252,70.76a2.36,2.36,0,0,0,0,.28c-2,2.39-4.07,4.77-6.12,7.14a29.62,29.62,0,0,1-2.5-9.54,2.12,2.12,0,0,0-2.08-2,1.92,1.92,0,0,0-1.67,1,24.72,24.72,0,0,1-4.75,5.87q-.33-4.47-.69-8.94c.35-.47.7-.93,1-1.4,2.05-2.73,4.16-5.56,6-8.55a1.9,1.9,0,0,0,.07-1.94,2.19,2.19,0,0,0-1.88-1.08,1.92,1.92,0,0,0-1.66,1c-1.27,2.1-2.7,4.13-4,5.94q-.25-3.09-.52-6.19a2.09,2.09,0,0,0-2.14-1.9,1.93,1.93,0,0,0-1.45.6,1.76,1.76,0,0,0-.44,1.41q.27,3.12.52,6.22c-1.32-1.4-2.68-2.76-4-4.08L225,54a1.93,1.93,0,0,0-1.38-.59,2.16,2.16,0,0,0-1.92,1.33,1.9,1.9,0,0,0,.44,2.12l.64.63a95.83,95.83,0,0,1,7.26,7.79,1.4,1.4,0,0,0,.13.18q.36,4.41.68,8.82a29.51,29.51,0,0,1-8.24-4.87,2.12,2.12,0,0,0-1.38-.51,2.06,2.06,0,0,0-1.61.77,2,2,0,0,0-.35,1.73,23.69,23.69,0,0,1,.74,8.09q-3.48-3-7-6c-.09-.58-.17-1.16-.25-1.74-.49-3.38-1-6.87-1.83-10.27A1.84,1.84,0,0,0,209.13,60a2.22,2.22,0,0,0-1.71.81,2,2,0,0,0-.34,1.7c.59,2.38,1,4.81,1.35,7l-4.75-4a2.06,2.06,0,0,0-1.32-.49,2.23,2.23,0,0,0-2,1.41,1.75,1.75,0,0,0,.58,2c1.6,1.35,3.19,2.69,4.77,4-1.49,0-3,0-4.37,0h-2.21a2,2,0,0,0,0,4h2.28a86.86,86.86,0,0,1,9.2.37l.28.05q3.22,2.75,6.44,5.5a29.25,29.25,0,0,1-8.76,2.18,2.14,2.14,0,0,0-1.91,1.63,1.94,1.94,0,0,0,.93,2.13A23,23,0,0,1,214.13,94l-9.72.76-1.4-1a104.14,104.14,0,0,0-8.56-6,1.93,1.93,0,0,0-1-.3,2,2,0,0,0-1.91,1.55,2,2,0,0,0,.89,2.23c2.1,1.26,4.12,2.7,5.94,4l-6.18.52A2.11,2.11,0,0,0,190.25,98a1.78,1.78,0,0,0,2,1.8l6.22-.53c-1.4,1.32-2.76,2.69-4.09,4l-.6.6a1.89,1.89,0,0,0-.44,2.12,2.17,2.17,0,0,0,1.93,1.33,1.93,1.93,0,0,0,1.37-.6l.63-.64a97.63,97.63,0,0,1,7.79-7.26.83.83,0,0,0,.18-.13l8.5-.66a29.64,29.64,0,0,1-4.47,7.29,2.12,2.12,0,0,0-.32,2.27,2,2,0,0,0,2.3,1.07,26.26,26.26,0,0,1,6.21-.84A19,19,0,0,1,220,108q-3.36,3.92-6.71,7.84l-1.76.26a103.7,103.7,0,0,0-10.26,1.82,1.87,1.87,0,0,0-1.46,2.11,2,2,0,0,0,2,1.86,1.86,1.86,0,0,0,.52-.07c2.38-.58,4.81-1,7-1.34l-4,4.74a2.05,2.05,0,0,0-.29,2.22,2.09,2.09,0,0,0,1.83,1.25,1.84,1.84,0,0,0,1.39-.69q2-2.38,4-4.77c-.06,2-.06,3.94-.05,5.86v.73a1.94,1.94,0,0,0,2,2,2.09,2.09,0,0,0,1.47-.58,1.92,1.92,0,0,0,.55-1.39V129a100.77,100.77,0,0,1,.37-10.69,1.6,1.6,0,0,0,.05-.29q2.89-3.41,5.82-6.8a29.76,29.76,0,0,1,1.94,8.19,2.12,2.12,0,0,0,2.08,2,2,2,0,0,0,1.67-1,23.73,23.73,0,0,1,5.48-6.48c.26,3.52.54,7,.82,10.55l-1.05,1.41c-2.05,2.73-4.15,5.55-6,8.55a1.86,1.86,0,0,0-.06,1.93,2.17,2.17,0,0,0,1.87,1.09,1.93,1.93,0,0,0,1.67-1c1.27-2.1,2.69-4.12,4-5.94.17,2.06.34,4.13.53,6.19a2.08,2.08,0,0,0,2.13,1.91,2,2,0,0,0,1.45-.6,1.79,1.79,0,0,0,.45-1.42c-.18-2.07-.36-4.15-.53-6.22,1.32,1.4,2.69,2.76,4,4.09l.6.6a1.91,1.91,0,0,0,1.37.6,2.17,2.17,0,0,0,1.93-1.34,1.9,1.9,0,0,0-.45-2.11l-.63-.64a94.2,94.2,0,0,1-7.27-7.79l-.13-.18q-.37-4.74-.73-9.49a29.5,29.5,0,0,1,7.44,4.53,2.09,2.09,0,0,0,1.38.51,2.06,2.06,0,0,0,1.61-.76,2,2,0,0,0,.35-1.73,23.86,23.86,0,0,1-.77-7.84q3.93,3.38,7.87,6.74c.09.58.17,1.16.26,1.74.48,3.38,1,6.87,1.82,10.28a1.86,1.86,0,0,0,1.85,1.47,2.22,2.22,0,0,0,1.71-.82,1.94,1.94,0,0,0,.34-1.69c-.58-2.38-1-4.82-1.34-7l4.74,4a2,2,0,0,0,1.33.5,2.24,2.24,0,0,0,2-1.42,1.75,1.75,0,0,0-.58-2l-4.77-4c1.49,0,3,0,4.34,0h2.25a2,2,0,0,0,0-4h-2.29a87.07,87.07,0,0,1-9.2-.37,1.26,1.26,0,0,0-.28,0q-3.77-3.21-7.5-6.43a29.39,29.39,0,0,1,9-2.27,2.13,2.13,0,0,0,1.9-1.62,1.94,1.94,0,0,0-.92-2.13,24.78,24.78,0,0,1-5.76-4.61q4.88-.36,9.75-.75l1.4,1c2.73,2,5.56,4.16,8.56,6a2.07,2.07,0,0,0,1,.3h0a2.05,2.05,0,0,0,1.91-1.55,1.92,1.92,0,0,0-.89-2.23c-2.1-1.27-4.12-2.7-5.94-4l6.19-.52a2.1,2.1,0,0,0,1.91-2.24A1.78,1.78,0,0,0,276.44,89.33Zm0,2.82-7.44.62-2,.16,1.3,1c2.15,1.61,4.67,3.46,7.33,5.07a.72.72,0,0,1,.35.86.79.79,0,0,1-1.14.54c-2.95-1.79-5.75-3.88-8.46-5.91-.52-.4-1.06-.79-1.59-1.19l-.18-.13-.22,0L253.28,94l-1.13.08.69.89a24.39,24.39,0,0,0,6.82,5.8.72.72,0,0,1,.38.81.91.91,0,0,1-.82.69A31.15,31.15,0,0,0,249,105l-.86.4.72.61q4.18,3.61,8.39,7.2l.18.12.29,0a.44.44,0,0,1,.17,0l.1,0a87.76,87.76,0,0,0,9.37.38h2.29a.73.73,0,0,1,.75.8.75.75,0,0,1-.75.81h-2.25c-1.92,0-4,0-6.05-.12l-1.79-.09,1.37,1.16q3,2.59,6.12,5.18a.54.54,0,0,1,.22.65,1,1,0,0,1-.89.62.8.8,0,0,1-.54-.21c-1.88-1.57-3.74-3.15-5.61-4.73l-1.6-1.36.24,1.59c.39,2.66.86,5.74,1.6,8.75a.69.69,0,0,1-.12.66,1,1,0,0,1-.75.35.64.64,0,0,1-.67-.55c-.82-3.34-1.32-6.8-1.8-10.15-.1-.66-.19-1.32-.29-2l0-.22-.17-.15q-4.47-3.79-8.9-7.62l-.83-.72-.17,1.08a23.74,23.74,0,0,0,.65,9.42.8.8,0,0,1-.13.7.84.84,0,0,1-.65.3.91.91,0,0,1-.6-.23,31,31,0,0,0-8.68-5.1l-.9-.35.08,1q.39,5.35.82,10.68l0,.21.17.21a.57.57,0,0,1,.1.13l.05.07a99.15,99.15,0,0,0,7.37,7.91l.64.64a.67.67,0,0,1,.18.79.94.94,0,0,1-.8.58.7.7,0,0,1-.51-.24l-.61-.6c-1.73-1.72-3.52-3.51-5.18-5.34l-1.2-1.34.14,1.79c.22,2.66.44,5.33.67,8a.6.6,0,0,1-.13.49.73.73,0,0,1-.55.2.87.87,0,0,1-.92-.8c-.23-2.59-.44-5.18-.66-7.79l-.13-1.6-1,1.28c-1.61,2.16-3.46,4.69-5.07,7.34a.7.7,0,0,1-.62.38,1,1,0,0,1-.82-.46.68.68,0,0,1,0-.71c1.78-2.95,3.88-5.75,5.9-8.46.4-.52.79-1,1.19-1.58l.13-.19v-.23q-.48-5.92-.91-11.85l-.08-1.05-.87.59a23.07,23.07,0,0,0-6.7,7.48.73.73,0,0,1-.64.39.9.9,0,0,1-.87-.84,30.73,30.73,0,0,0-2.41-9.47l-.38-.9-.64.74c-2.21,2.57-4.41,5.13-6.61,7.71l-.12.17,0,.22v0a.62.62,0,0,1,0,.2l0,.1a96.89,96.89,0,0,0-.38,10.87v.79a.72.72,0,0,1-.19.53,1.06,1.06,0,0,1-.67.23c-.08,0-.87,0-.87-.76v-.73c0-2.48.05-5.06.18-7.57l.11-1.77-1.15,1.37q-2.58,3-5.15,6.1a.61.61,0,0,1-.46.26.91.91,0,0,1-.72-.55.82.82,0,0,1,.12-.92q2.47-2.94,5-5.87l1.13-1.34-1.59.24c-2.65.38-5.74.86-8.75,1.6a.82.82,0,0,1-1-.75.66.66,0,0,1,.54-.79c3.34-.82,6.8-1.32,10.15-1.8l2-.29.22,0,.15-.18q3.77-4.41,7.56-8.81l.67-.78-1-.21a18.33,18.33,0,0,0-3.82-.39,27.49,27.49,0,0,0-6.49.87l-.25,0a.74.74,0,0,1-.67-.44.93.93,0,0,1,.15-1,30.76,30.76,0,0,0,5-8.53l.36-.9-1,.08-9.69.75h-.18l-.23.19a1.1,1.1,0,0,1-.14.11l-.06,0a95.85,95.85,0,0,0-7.92,7.38l-.63.63a.72.72,0,0,1-.51.24.94.94,0,0,1-.81-.58.67.67,0,0,1,.18-.79l.6-.61c1.73-1.73,3.51-3.52,5.35-5.18l1.33-1.2-1.79.15c-2.66.22-5.32.43-8,.67a.62.62,0,0,1-.7-.64.9.9,0,0,1,.8-1l7.29-.61,2.11-.17-1.29-1c-2.16-1.61-4.69-3.46-7.34-5.07a.72.72,0,0,1-.34-.86.78.78,0,0,1,1.14-.53,101.87,101.87,0,0,1,8.45,5.91l1.59,1.18.18.13h.23q5.5-.45,11-.85l1-.08-.57-.87a23.15,23.15,0,0,0-7.58-6.84.71.71,0,0,1-.37-.82.93.93,0,0,1,.82-.69,31,31,0,0,0,10-2.66l.87-.39-.73-.62q-3.65-3.15-7.33-6.29l-.18-.12-.28,0-.18,0-.1,0a87.76,87.76,0,0,0-9.37-.38h-2.29a.74.74,0,0,1-.75-.8.76.76,0,0,1,.76-.81h2.21c1.94,0,4,0,6.08.12l1.79.09-1.36-1.16q-3.06-2.59-6.13-5.18a.55.55,0,0,1-.21-.65,1,1,0,0,1,.89-.62.84.84,0,0,1,.54.21l5.79,4.9,1.41,1.2-.24-1.6c-.38-2.66-.86-5.74-1.6-8.75a.75.75,0,0,1,.12-.66,1,1,0,0,1,.75-.34.64.64,0,0,1,.67.54,103.09,103.09,0,0,1,1.81,10.16c.09.65.18,1.31.28,2l0,.22.18.15q4,3.42,8,6.86l.82.7.18-1.06a23.46,23.46,0,0,0-.61-9.67.81.81,0,0,1,.12-.69.84.84,0,0,1,.66-.3,1,1,0,0,1,.6.22,30.89,30.89,0,0,0,9.5,5.41l.88.32-.07-.94c-.25-3.32-.51-6.65-.77-10l0-.18-.18-.23a.45.45,0,0,1-.11-.14l0-.06a97.49,97.49,0,0,0-7.37-7.92L223,56a.67.67,0,0,1-.18-.79,1,1,0,0,1,.8-.59.76.76,0,0,1,.52.24l.61.61c1.73,1.72,3.51,3.5,5.17,5.34l1.21,1.33L231,60.33q-.33-4-.67-8a.58.58,0,0,1,.13-.48.75.75,0,0,1,.55-.21.89.89,0,0,1,.93.8q.33,3.9.65,7.8l.13,1.6,1-1.29c1.61-2.16,3.46-4.68,5.07-7.34a.7.7,0,0,1,.62-.38,1,1,0,0,1,.82.47.66.66,0,0,1-.05.71c-1.78,2.94-3.88,5.74-5.9,8.45l-1.18,1.59-.14.18,0,.23q.4,5.16.8,10.32l.08,1.11.89-.67a24.08,24.08,0,0,0,5.93-6.93.74.74,0,0,1,.64-.4.91.91,0,0,1,.87.85,31.18,31.18,0,0,0,3,10.81l.41.83.6-.7q3.45-4,6.87-8l.12-.15,0-.23v-.05a.65.65,0,0,1,0-.21l0-.1a101.89,101.89,0,0,0,.38-10.88v-.77a.69.69,0,0,1,.2-.53,1,1,0,0,1,.67-.23c.08,0,.86,0,.86.76V60c0,2.49,0,5.06-.17,7.57l-.13,1.8L256.2,68q2.6-3,5.16-6.12a.6.6,0,0,1,.46-.25.88.88,0,0,1,.72.55.82.82,0,0,1-.12.92Q260,66,257.55,68.85l-1.22,1.44,1.6-.23c2.65-.39,5.73-.87,8.75-1.61a.83.83,0,0,1,1,.76.65.65,0,0,1-.54.78c-3.34.82-6.8,1.32-10.15,1.8l-2,.29-.22,0-.15.17q-3.44,4-6.9,8l-.74.87,1.13.13a18.53,18.53,0,0,0,2.26.14,27.49,27.49,0,0,0,6.49-.87l.24,0a.71.71,0,0,1,.67.43.9.9,0,0,1-.14,1,31,31,0,0,0-5.47,9.66l-.3.87.92-.07c3.66-.27,7.31-.55,11-.84l.18,0,.22-.18a.6.6,0,0,1,.14-.11l.06-.05a95.74,95.74,0,0,0,7.92-7.37l.64-.64a.7.7,0,0,1,.51-.24.94.94,0,0,1,.8.58.69.69,0,0,1-.18.8l-.62.62c-1.71,1.72-3.49,3.51-5.33,5.16l-1.33,1.2,1.79-.14,8-.67a.61.61,0,0,1,.69.64A.9.9,0,0,1,276.44,92.15Z"/><path class="cls-1" d="M250.36,94.22l-.36,0-12.2.86-1.47.1,1.11,1q4.44,3.89,8.91,7.74l.13.12.18,0a.61.61,0,0,1,.18,0l.24.07.22-.11a32.86,32.86,0,0,1,8.3-2.85l1.32-.27-1.07-.81a21.35,21.35,0,0,1-5.29-5.6Zm3.75,6.07a34.55,34.55,0,0,0-7.12,2.57c-2.56-2.21-5.1-4.42-7.65-6.64l10.38-.73A21.81,21.81,0,0,0,254.11,100.29Z"/><path class="cls-1" d="M232.48,95.47l-1.46.1q-6.65.45-13.28.94l-.4,0-.13.37a32.52,32.52,0,0,1-3.69,7.39l-.74,1.12,1.33-.18a20.7,20.7,0,0,1,8.94.54l.38.11.26-.29q3.9-4.53,7.83-9Zm-9.46,9a20.11,20.11,0,0,0-5.49-.73c-.74,0-1.51,0-2.3.11a34.33,34.33,0,0,0,3-6.2l11.42-.81Q226.33,100.69,223,104.51Z"/><path class="cls-1" d="M236.39,97.38l-1.11-1,.1,1.47q.42,6.15.87,12.29l0,.4.38.13a33.47,33.47,0,0,1,7.53,3.74l1.12.74-.18-1.33a21.15,21.15,0,0,1,.32-8.16l.09-.36-.28-.25Zm7.39,15.35a34.25,34.25,0,0,0-6.35-3c-.25-3.48-.5-7-.74-10.43,2.5,2.17,5,4.34,7.5,6.5A21.56,21.56,0,0,0,243.78,112.73Z"/><path class="cls-1" d="M243.88,82.36l.23-.27-.12-.34a.91.91,0,0,1,0-.63l.08-.24-.12-.22a33.67,33.67,0,0,1-2.85-8.3L240.83,71,240,72.11a21.38,21.38,0,0,1-5.73,5.38l-.32.19,0,.37q.48,6.53.93,13l.1,1.46,1-1.1Q239.94,86.92,243.88,82.36Zm-3.7-8.51A34.27,34.27,0,0,0,242.76,81a2,2,0,0,0,0,.81c-2.23,2.59-4.48,5.17-6.72,7.74q-.39-5.61-.8-11.23A21.48,21.48,0,0,0,240.18,73.85Z"/></svg>