<svg id="layer1" xmlns="http://www.w3.org/2000/svg" viewBox="0 0 262.33 198.87"><defs><style>.cls-1{fill:#4db6db;}</style></defs><path class="cls-1" d="M196.16,123.5l-.37-.43a13.43,13.43,0,0,0-5.2-3.66l-.34-.13-.63-.23-3.37,12.42Zm-5.82-3a12.29,12.29,0,0,1,4.27,2.91l-6.46,5.2Z"/><path class="cls-1" d="M199.34,132l0-.56a14.81,14.81,0,0,0-2-6.23l-.31-.54-9.85,7.93Zm-1.17-1-7.8.39,6.31-5.08A14.21,14.21,0,0,1,198.17,130.93Z"/><path class="cls-1" d="M188.29,118.7l-.58-.1a14.91,14.91,0,0,0-6.77.42l-.55.17,4.53,11.92Zm-6.49,1.19a14.12,14.12,0,0,1,5.14-.32l-2.19,8.08Z"/><path class="cls-1" d="M226,129.56l-3.41.17,2-3.08a1.76,1.76,0,0,0,.1-1.85,1.91,1.91,0,0,0-1.61-1,1.58,1.58,0,0,0-1.33.75l-3.59,5.4-2.49.13,2-3a1.75,1.75,0,0,0,.1-1.84,1.89,1.89,0,0,0-1.62-1,1.57,1.57,0,0,0-1.32.75l-3.53,5.31-1.24.06,1.81-2.71a1.76,1.76,0,0,0,.09-1.85,1.88,1.88,0,0,0-1.61-1,1.57,1.57,0,0,0-1.32.75l-3.35,5-4,.2a17.09,17.09,0,0,0-2.26-6.75l2.32-1.87,6.26,2.18a1.81,1.81,0,0,0,2.39-1.47,1.59,1.59,0,0,0-1.09-1.83l-4.32-1.5,1.42-1.14,6,2.08A1.78,1.78,0,0,0,214.8,119a1.59,1.59,0,0,0-1.09-1.82l-4-1.4L211.9,114l5.87,2.05a1.81,1.81,0,0,0,2.39-1.47,1.59,1.59,0,0,0-1.09-1.83l-3.93-1.36,3.08-2.47a1.74,1.74,0,0,0,.56-2,1.84,1.84,0,0,0-1.67-1.25,1.69,1.69,0,0,0-1.06.4l-2.77,2.23-.16-3.9a1.56,1.56,0,0,0-1.61-1.55,2,2,0,0,0-1.42.6,1.79,1.79,0,0,0-.49,1.33l.26,6.27-2,1.57-.15-3.79a1.56,1.56,0,0,0-1.62-1.55,2,2,0,0,0-1.41.6,1.79,1.79,0,0,0-.49,1.33l.26,6.16-1,.78-.15-3.47a1.54,1.54,0,0,0-1.61-1.54,2,2,0,0,0-1.41.59,1.79,1.79,0,0,0-.49,1.33l.24,5.84-2.78,2.23a16.48,16.48,0,0,0-3.24-2.71,15.85,15.85,0,0,0-2.81-1.44l.7-2.59,6.54-2a1.51,1.51,0,0,0,1.13-1.74,1.9,1.9,0,0,0-1.84-1.64,2.15,2.15,0,0,0-.55.08l-4.19,1.27.48-1.76,6.24-1.89a1.53,1.53,0,0,0,1.13-1.75,1.9,1.9,0,0,0-1.83-1.64,2,2,0,0,0-.55.08l-3.91,1.18.75-2.75,6.15-1.85a1.55,1.55,0,0,0,1.13-1.75,1.9,1.9,0,0,0-1.84-1.64,1.75,1.75,0,0,0-.55.08l-3.8,1.15,1-3.7a1.82,1.82,0,0,0-.31-1.61,2,2,0,0,0-1.54-.78A1.47,1.47,0,0,0,194.16,93l-1,3.55-2.33-3a1.7,1.7,0,0,0-1.35-.67A1.9,1.9,0,0,0,187.83,94a1.64,1.64,0,0,0,.22,1.77l4,5-.65,2.4-2.27-2.87a1.7,1.7,0,0,0-1.34-.67,1.93,1.93,0,0,0-1.69,1.06,1.64,1.64,0,0,0,.22,1.77l3.93,5-.32,1.18L187.85,106a1.71,1.71,0,0,0-1.35-.67,1.93,1.93,0,0,0-1.68,1.06,1.64,1.64,0,0,0,.22,1.77l3.73,4.7-.89,3.26a16.76,16.76,0,0,0-7.34.48l-1-2.62,4-5.33a1.65,1.65,0,0,0,.19-1.8,1.9,1.9,0,0,0-1.66-1,1.64,1.64,0,0,0-1.33.69l-2.72,3.59-.65-1.7,3.86-5.08a1.69,1.69,0,0,0,.19-1.8,1.91,1.91,0,0,0-1.66-1,1.63,1.63,0,0,0-1.33.69l-2.54,3.34-1-2.65,3.79-5a1.65,1.65,0,0,0,.19-1.8A1.89,1.89,0,0,0,177.25,94a1.65,1.65,0,0,0-1.34.69l-2.47,3.26L172,94.16a1.62,1.62,0,0,0-1.54-1.09,1.92,1.92,0,0,0-1.57.82,1.71,1.71,0,0,0-.17,1.6L170,98.75l-3.5-1a1.81,1.81,0,0,0-.51-.08,1.94,1.94,0,0,0-1.87,1.68,1.51,1.51,0,0,0,1.15,1.71l6.29,1.76.89,2.34-3.4-1a1.79,1.79,0,0,0-.51-.07,2,2,0,0,0-1.87,1.68,1.49,1.49,0,0,0,1.15,1.7l6.19,1.73.44,1.17-3.08-.86a1.86,1.86,0,0,0-.52-.07A1.94,1.94,0,0,0,169,111.2a1.48,1.48,0,0,0,1.14,1.7l5.88,1.65,1.28,3.36a17.44,17.44,0,0,0-4.5,3.4,15.47,15.47,0,0,0-1,1.23l-2.52-1.66.13-6.57a1.79,1.79,0,0,0-.51-1.31,1.93,1.93,0,0,0-1.41-.59,1.55,1.55,0,0,0-1.6,1.58l-.09,4.62-1.54-1,.13-6.27a1.76,1.76,0,0,0-.51-1.31,2,2,0,0,0-1.4-.58,1.54,1.54,0,0,0-1.61,1.57l-.08,4.31-2.39-1.55.13-6.17a1.77,1.77,0,0,0-.52-1.31,2,2,0,0,0-1.4-.58,1.53,1.53,0,0,0-1.6,1.57l-.09,4.21-3.25-2.12a1.83,1.83,0,0,0-1-.31,1.91,1.91,0,0,0-1.8,1.36,1.55,1.55,0,0,0,.69,1.79l3,2-3.59,1.34a1.61,1.61,0,0,0-1.07,1.86,1.81,1.81,0,0,0,1.75,1.54,1.85,1.85,0,0,0,.64-.12l5.95-2.21,2.09,1.36-3.49,1.3a1.62,1.62,0,0,0-1.08,1.86,1.83,1.83,0,0,0,1.75,1.54,1.91,1.91,0,0,0,.65-.12l5.85-2.17,1,.67-3.19,1.18a1.62,1.62,0,0,0-1.07,1.87,1.76,1.76,0,0,0,2.39,1.42l5.55-2.06,3.22,2.1a16.54,16.54,0,0,0-1.46,6.84l-3.54.18L161,127a1.62,1.62,0,0,0-1.34-.74,1.92,1.92,0,0,0-1.63,1,1.7,1.7,0,0,0,.13,1.81l2.54,3.65-1.82.09-3.68-5.29a1.61,1.61,0,0,0-1.34-.74,1.89,1.89,0,0,0-1.63,1,1.7,1.7,0,0,0,.12,1.81l2.37,3.4-2.84.14L148.29,128a1.61,1.61,0,0,0-1.34-.74,1.91,1.91,0,0,0-1.63,1,1.7,1.7,0,0,0,.12,1.81l2.31,3.31-4.08.21a1.55,1.55,0,0,0-1.54,1.67,1.85,1.85,0,0,0,1.93,1.84l3.41-.17-2.05,3.08a1.75,1.75,0,0,0-.09,1.84,1.87,1.87,0,0,0,1.61,1,1.57,1.57,0,0,0,1.32-.75l3.6-5.4,2.49-.13-2,3a1.75,1.75,0,0,0-.09,1.84,1.87,1.87,0,0,0,1.61,1,1.57,1.57,0,0,0,1.32-.75l3.54-5.31,1.23-.07-1.8,2.72a1.75,1.75,0,0,0-.1,1.84,1.87,1.87,0,0,0,1.61,1,1.6,1.6,0,0,0,1.33-.75l3.35-5,4.42-.22a17.52,17.52,0,0,0,2.55,6.18l-3.05,2.46L162,142.38a1.91,1.91,0,0,0-.62-.1,1.84,1.84,0,0,0-1.77,1.57,1.58,1.58,0,0,0,1.09,1.82l4.31,1.5-1.42,1.14-6-2.07a1.83,1.83,0,0,0-.61-.11,1.87,1.87,0,0,0-1.78,1.58,1.59,1.59,0,0,0,1.1,1.82l4,1.4-2.21,1.78-5.88-2.05a1.81,1.81,0,0,0-2.39,1.47A1.57,1.57,0,0,0,151,154l3.92,1.37-3.07,2.47a1.71,1.71,0,0,0-.56,1.94,1.83,1.83,0,0,0,1.66,1.26,1.67,1.67,0,0,0,1.06-.4l2.78-2.23.16,3.89a1.55,1.55,0,0,0,1.61,1.55,2,2,0,0,0,1.41-.59,1.79,1.79,0,0,0,.49-1.33l-.26-6.27,1.95-1.57.16,3.79a1.56,1.56,0,0,0,1.61,1.55,2,2,0,0,0,1.41-.6,1.79,1.79,0,0,0,.49-1.33l-.25-6.16,1-.78.14,3.46a1.56,1.56,0,0,0,1.61,1.55,2,2,0,0,0,1.41-.59,1.72,1.72,0,0,0,.49-1.34l-.24-5.83,3.67-2.95a16,16,0,0,0,5.55,3.44l-1.08,4-6.54,2A1.54,1.54,0,0,0,170.4,156a1.91,1.91,0,0,0,1.84,1.64,2.09,2.09,0,0,0,.55-.08l4.2-1.27-.48,1.76-6.24,1.89a1.54,1.54,0,0,0-1.14,1.75,1.91,1.91,0,0,0,1.84,1.64,2.09,2.09,0,0,0,.55-.08l3.9-1.18-.74,2.75-6.15,1.86a1.52,1.52,0,0,0-1.13,1.74,1.89,1.89,0,0,0,1.83,1.64,2,2,0,0,0,.55-.08l3.81-1.15-1,3.7a1.79,1.79,0,0,0,.31,1.61,2,2,0,0,0,1.53.78,1.5,1.5,0,0,0,1.47-1.17l1-3.55,2.34,2.95a1.71,1.71,0,0,0,1.34.67,1.93,1.93,0,0,0,1.69-1.06A1.64,1.64,0,0,0,182,171l-4-5,.66-2.4,2.26,2.86a1.71,1.71,0,0,0,1.35.68A1.91,1.91,0,0,0,184,166a1.62,1.62,0,0,0-.22-1.77l-3.92-5,.32-1.19,2.07,2.62a1.7,1.7,0,0,0,1.34.67,1.91,1.91,0,0,0,1.68-1.06,1.61,1.61,0,0,0-.22-1.77l-3.72-4.7,1.28-4.74a17.59,17.59,0,0,0,6.47-.25l1.47,3.87-4,5.33a1.69,1.69,0,0,0-.19,1.8,1.9,1.9,0,0,0,1.66,1,1.63,1.63,0,0,0,1.33-.69l2.73-3.59.64,1.7-3.85,5.08a1.65,1.65,0,0,0-.19,1.8,1.9,1.9,0,0,0,1.66,1.05,1.64,1.64,0,0,0,1.33-.69l2.54-3.34,1,2.64-3.79,5a1.67,1.67,0,0,0-.19,1.8,1.89,1.89,0,0,0,1.66,1.06,1.67,1.67,0,0,0,1.33-.69l2.48-3.26,1.42,3.74a1.62,1.62,0,0,0,1.55,1.1,1.9,1.9,0,0,0,1.56-.82,1.65,1.65,0,0,0,.17-1.6l-1.24-3.27,3.51,1a1.81,1.81,0,0,0,.51.08,2,2,0,0,0,1.87-1.68,1.51,1.51,0,0,0-1.15-1.71l-6.3-1.76-.89-2.34,3.4,1a2.25,2.25,0,0,0,.52.07,1.94,1.94,0,0,0,1.86-1.68,1.51,1.51,0,0,0-1.15-1.71l-6.18-1.73-.45-1.17,3.09.87a1.79,1.79,0,0,0,.51.07,1.94,1.94,0,0,0,1.87-1.68,1.49,1.49,0,0,0-1.15-1.7l-5.88-1.65-1.69-4.44c.3-.14.59-.29.87-.44a16,16,0,0,0,4.41-3.55l3.21,2.09-.14,6.58a1.8,1.8,0,0,0,.51,1.31,2,2,0,0,0,1.41.59,1.53,1.53,0,0,0,1.6-1.57l.1-4.63,1.53,1-.13,6.26a1.81,1.81,0,0,0,.51,1.32,2,2,0,0,0,1.41.58,1.54,1.54,0,0,0,1.6-1.57l.09-4.32,2.39,1.56-.13,6.16a1.81,1.81,0,0,0,.51,1.32,2,2,0,0,0,1.41.58,1.54,1.54,0,0,0,1.6-1.57l.08-4.21,3.26,2.12a1.78,1.78,0,0,0,1,.31h0a1.94,1.94,0,0,0,1.8-1.36,1.56,1.56,0,0,0-.69-1.79l-3-2,3.58-1.33a1.61,1.61,0,0,0,1.08-1.86,1.76,1.76,0,0,0-2.39-1.42l-6,2.21-2.08-1.36,3.49-1.3a1.61,1.61,0,0,0,1.07-1.86,1.76,1.76,0,0,0-2.39-1.42l-5.85,2.17-1-.67,3.18-1.19a1.61,1.61,0,0,0,1.07-1.86,1.81,1.81,0,0,0-1.74-1.54,1.87,1.87,0,0,0-.65.12l-5.54,2.06-3.68-2.4a18.17,18.17,0,0,0,.91-1.82,17.19,17.19,0,0,0,1.13-4.73l3.41-.17,3.86,5.55a1.62,1.62,0,0,0,1.34.73,1.91,1.91,0,0,0,1.64-1,1.7,1.7,0,0,0-.13-1.81l-2.54-3.66,1.81-.08,3.68,5.29a1.65,1.65,0,0,0,1.35.74,1.92,1.92,0,0,0,1.63-1,1.7,1.7,0,0,0-.13-1.81l-2.36-3.4,2.83-.14,3.62,5.21a1.63,1.63,0,0,0,1.35.73,1.91,1.91,0,0,0,1.63-1,1.7,1.7,0,0,0-.13-1.81l-2.3-3.32,4.08-.2a1.56,1.56,0,0,0,1.54-1.67A1.84,1.84,0,0,0,226,129.56Zm.33,2.44-6,.3,3.41,4.9a.64.64,0,0,1,.06.7.84.84,0,0,1-.68.45.56.56,0,0,1-.47-.27l-4-5.7-5.36.26,3.47,5a.64.64,0,0,1,.06.7.84.84,0,0,1-.68.45.56.56,0,0,1-.46-.27l-4-5.78-4.33.21,3.64,5.24a.64.64,0,0,1,.06.7.85.85,0,0,1-.69.45.56.56,0,0,1-.46-.27l-4.19-6-5,.25,0,.47a16.18,16.18,0,0,1-1.09,4.87,17.08,17.08,0,0,1-1.1,2.12l-.27.44,5,3.26,6.06-2.25a.74.74,0,0,1,1,.61.56.56,0,0,1-.39.67l-5.18,1.92,3.26,2.13,6.36-2.36a.74.74,0,0,1,1,.61.54.54,0,0,1-.39.67l-5.47,2,4.31,2.82,6.46-2.4a.73.73,0,0,1,1,.61.55.55,0,0,1-.39.67l-5.58,2.07,4.81,3.14a.49.49,0,0,1,.25.59.87.87,0,0,1-.77.59.78.78,0,0,1-.41-.12l-4.87-3.19-.12,6.15a.47.47,0,0,1-.53.52,1,1,0,0,1-.65-.26.74.74,0,0,1-.2-.54l.14-6.76-4.5-2.94-.13,6.25a.48.48,0,0,1-.53.52.93.93,0,0,1-.64-.26.75.75,0,0,1-.21-.54l.14-6.86-3.64-2.39-.14,6.56a.46.46,0,0,1-.53.52A.93.93,0,0,1,202,153a.69.69,0,0,1-.2-.54l.14-7.17-4.5-2.94-.3.37a15.43,15.43,0,0,1-4.41,3.66c-.41.22-.82.42-1.25.61l-.47.2,2.24,5.9,6.4,1.79a.44.44,0,0,1,.38.53.84.84,0,0,1-1,.71l-5.14-1.43,1.4,3.66,6.7,1.88a.43.43,0,0,1,.38.52.85.85,0,0,1-1,.72l-5.44-1.52,1.83,4.84,6.82,1.9a.46.46,0,0,1,.38.53.86.86,0,0,1-1,.72l-5.55-1.55,2,5.25a.62.62,0,0,1,0,.61.85.85,0,0,1-.68.36.55.55,0,0,1-.54-.41l-2.12-5.55-3.64,4.8a.59.59,0,0,1-.48.27.85.85,0,0,1-.7-.46.61.61,0,0,1,.09-.68l4.15-5.47-1.91-5-3.71,4.88a.57.57,0,0,1-.47.27.82.82,0,0,1-.7-.46.61.61,0,0,1,.08-.68l4.21-5.55-1.54-4.06-3.89,5.13a.59.59,0,0,1-.48.27.84.84,0,0,1-.7-.46.6.6,0,0,1,.09-.67l4.4-5.81-2-5.32-.47.12a16.29,16.29,0,0,1-6.95.28l-.49-.09-1.68,6.2,4.06,5.13a.56.56,0,0,1,.1.63.83.83,0,0,1-.72.46.62.62,0,0,1-.5-.27l-3.39-4.28-1,3.76,4.26,5.38a.57.57,0,0,1,.1.64.87.87,0,0,1-.72.46.66.66,0,0,1-.51-.27l-3.58-4.53-1.35,5,4.33,5.47a.57.57,0,0,1,.09.63.83.83,0,0,1-.72.46.62.62,0,0,1-.5-.27l-3.66-4.62-1.52,5.61c-.09.34-.28.38-.43.38a.94.94,0,0,1-.68-.36.76.76,0,0,1-.13-.68l1.51-5.57-5.66,1.71a.81.81,0,0,1-1-.69.47.47,0,0,1,.38-.56l6.71-2,1.41-5.19-5.75,1.74a.82.82,0,0,1-1-.69.49.49,0,0,1,.39-.57l6.81-2,1.14-4.21-6.05,1.83a.82.82,0,0,1-1-.69.47.47,0,0,1,.39-.56l7.11-2.15,1.5-5.55-.48-.16a15.33,15.33,0,0,1-6-3.69l-.34-.35-4.83,3.9.27,6.37a.76.76,0,0,1-.2.55.93.93,0,0,1-.64.26.49.49,0,0,1-.54-.52l-.23-5.59-3,2.46.28,6.69a.7.7,0,0,1-.19.55.93.93,0,0,1-.64.26.49.49,0,0,1-.54-.52l-.25-5.91-4,3.24.28,6.81a.72.72,0,0,1-.19.55.93.93,0,0,1-.64.26.49.49,0,0,1-.54-.52l-.25-6-4.43,3.57a.64.64,0,0,1-.39.15.78.78,0,0,1-.65-.53.63.63,0,0,1,.22-.75l4.58-3.69-5.75-2a.52.52,0,0,1-.39-.63.76.76,0,0,1,1-.63l6.44,2.23,4.18-3.36-5.85-2a.53.53,0,0,1-.39-.64.77.77,0,0,1,1-.63l6.53,2.27,3.39-2.72-6.14-2.14a.52.52,0,0,1-.39-.63.77.77,0,0,1,1-.64l6.82,2.38,4.3-3.46-.29-.42a16.25,16.25,0,0,1-2.76-6.62l-.08-.47-5.89.29-3.66,5.5a.51.51,0,0,1-.43.27.83.83,0,0,1-.66-.45.69.69,0,0,1,0-.75l3-4.48-3.9.19-3.83,5.76a.5.5,0,0,1-.43.28.83.83,0,0,1-.67-.45.69.69,0,0,1,0-.75l3.16-4.75-5.16.25-3.89,5.85a.5.5,0,0,1-.43.28.83.83,0,0,1-.67-.45.71.71,0,0,1,0-.75l3.22-4.75-5.54.36h0c-.54,0-.75-.58-.76-.89a.54.54,0,0,1,.52-.62l6-.32-3.4-4.91a.62.62,0,0,1-.06-.71.82.82,0,0,1,.68-.45.56.56,0,0,1,.46.27l4,5.7,5.35-.27-3.47-5a.64.64,0,0,1,0-.71.81.81,0,0,1,.68-.44.56.56,0,0,1,.46.27l4,5.78,4.34-.21-3.64-5.24a.64.64,0,0,1-.06-.7.8.8,0,0,1,.68-.45.56.56,0,0,1,.46.27l4.2,6,5.17-.26,0-.52a15.68,15.68,0,0,1,1.55-7.29l.21-.43-4.46-2.91-6.05,2.24a.73.73,0,0,1-1-.6.55.55,0,0,1,.39-.67l5.17-1.92-3.26-2.14-6.36,2.37a.74.74,0,0,1-1-.61.56.56,0,0,1,.39-.67l5.48-2-4.31-2.82-6.47,2.4a.74.74,0,0,1-1-.61.56.56,0,0,1,.39-.67l5.59-2.07-4.82-3.15a.48.48,0,0,1-.24-.58.86.86,0,0,1,.77-.6.79.79,0,0,1,.4.13l4.87,3.19.13-6.15a.47.47,0,0,1,.53-.52.93.93,0,0,1,.64.26.73.73,0,0,1,.21.54l-.14,6.76,4.5,2.94.12-6.25a.48.48,0,0,1,.54-.52.94.94,0,0,1,.64.26.7.7,0,0,1,.2.54l-.14,6.86,3.65,2.38.13-6.55a.48.48,0,0,1,.53-.53.91.91,0,0,1,.65.27.72.72,0,0,1,.2.54l-.15,7.17L172,124l.3-.42a15.55,15.55,0,0,1,1.25-1.52,16.45,16.45,0,0,1,4.64-3.4l.44-.22-1.82-4.77-6.4-1.79a.44.44,0,0,1-.37-.53.86.86,0,0,1,1-.72l5.13,1.44-1.39-3.66-6.71-1.88a.44.44,0,0,1-.38-.53.86.86,0,0,1,1-.72l5.44,1.53L172.34,102l-6.81-1.91a.43.43,0,0,1-.38-.52.85.85,0,0,1,1-.72l5.55,1.55-2-5.25a.64.64,0,0,1,.06-.62.85.85,0,0,1,.68-.35.55.55,0,0,1,.54.41l2.11,5.55,3.65-4.8a.58.58,0,0,1,.48-.27.81.81,0,0,1,.69.46.6.6,0,0,1-.08.68l-4.15,5.47,1.91,5,3.7-4.89a.59.59,0,0,1,.48-.26.83.83,0,0,1,.7.46.6.6,0,0,1-.09.67l-4.21,5.56,1.54,4,3.9-5.13a.59.59,0,0,1,.47-.26.82.82,0,0,1,.7.46.6.6,0,0,1-.08.67l-4.4,5.8,1.57,4.12.48-.15a15.89,15.89,0,0,1,7.79-.52l.49.1,1.28-4.73-4.06-5.13a.55.55,0,0,1-.09-.63.83.83,0,0,1,.71-.46.63.63,0,0,1,.51.27l3.39,4.27,1-3.76-4.27-5.37a.59.59,0,0,1-.09-.64.85.85,0,0,1,.72-.46.62.62,0,0,1,.5.27l3.59,4.53,1.35-5-4.33-5.47a.56.56,0,0,1-.1-.63.83.83,0,0,1,.72-.46.61.61,0,0,1,.5.26l3.66,4.62,1.52-5.6c.09-.34.29-.38.43-.38a.88.88,0,0,1,.68.36.76.76,0,0,1,.14.68l-1.51,5.57,5.65-1.71a.82.82,0,0,1,1,.68.48.48,0,0,1-.39.57l-6.71,2-1.41,5.19,5.75-1.74a.82.82,0,0,1,1,.69.47.47,0,0,1-.38.56l-6.81,2.06-1.14,4.2,6.05-1.82a.81.81,0,0,1,1,.69.47.47,0,0,1-.38.56l-7.11,2.15L190,117.69l.46.16a15.27,15.27,0,0,1,3.06,1.51,15.76,15.76,0,0,1,3.36,2.9l.34.39,4-3.22-.27-6.37a.76.76,0,0,1,.19-.55.94.94,0,0,1,.64-.26.48.48,0,0,1,.54.52l.24,5.58,3-2.45-.28-6.69a.71.71,0,0,1,.2-.55.9.9,0,0,1,.63-.26.49.49,0,0,1,.55.51l.24,5.92,4-3.24-.29-6.81a.71.71,0,0,1,.2-.55.91.91,0,0,1,.64-.26.49.49,0,0,1,.54.52l.25,6,4.43-3.57a.61.61,0,0,1,.38-.15.78.78,0,0,1,.66.53.64.64,0,0,1-.22.75L213,111.76l5.75,2a.53.53,0,0,1,.39.64.77.77,0,0,1-1,.63l-6.43-2.23-4.18,3.36,5.85,2a.51.51,0,0,1,.38.64.79.79,0,0,1-.72.68.85.85,0,0,1-.26,0l-6.53-2.27-3.38,2.72L209,122a.52.52,0,0,1,.39.63.76.76,0,0,1-1,.63l-6.82-2.37L198,123.77l.26.4a16,16,0,0,1,2.4,7.19l0,.52,5.55-.28,3.65-5.49a.51.51,0,0,1,.43-.27.83.83,0,0,1,.67.45.71.71,0,0,1,0,.75l-3,4.48,3.9-.19,3.83-5.76a.51.51,0,0,1,.43-.28.83.83,0,0,1,.67.45.71.71,0,0,1,0,.75l-3.16,4.75,5.15-.25,3.89-5.86a.53.53,0,0,1,.44-.27.83.83,0,0,1,.66.45.71.71,0,0,1,0,.75l-3.22,4.65,5.53-.46h0c.54,0,.75.68.76,1S226.78,132,226.33,132Z"/><path class="cls-1" d="M172.45,126l-.26.57c-.09.2-.18.41-.26.62a14.63,14.63,0,0,0-1,5.65v.55l11.94-.59Zm.47,1.59h0l6.59,4.31-7.53.37A13.55,13.55,0,0,1,172.92,127.55Z"/><path class="cls-1" d="M190.51,145.79l.52-.23a14.5,14.5,0,0,0,4.82-3.57l.42-.47-9.83-6.42Zm.59-1.46-2.49-6.53,6,3.93A13.06,13.06,0,0,1,191.1,144.33Z"/><path class="cls-1" d="M171.06,134.73l.12.61a14.52,14.52,0,0,0,2.36,5.62l.33.47,9-7.28Zm1.3,1,7.32-.36-5.58,4.49A13.73,13.73,0,0,1,172.36,135.74Z"/><path class="cls-1" d="M174.77,142.5l.43.42a13.4,13.4,0,0,0,4.47,2.9l.61.23.54.18,3-11Zm5.32,2.34h0a12.45,12.45,0,0,1-3.66-2.26l5.51-4.44Z"/><path class="cls-1" d="M197.09,140.4l.29-.47a15.42,15.42,0,0,0,1-1.85,14.61,14.61,0,0,0,1-4.13l.06-.62-12.17.61Zm.26-2.73c-.18.41-.39.82-.61,1.23l-6.2-4.06,7.63-.37A13.44,13.44,0,0,1,197.35,137.67Z"/><path class="cls-1" d="M182.15,146.57l.59.1a15.11,15.11,0,0,0,2.32.18,14.57,14.57,0,0,0,3.55-.44l.58-.15-4.06-10.67Zm5.61-1.06a13.51,13.51,0,0,1-4.26.18l1.8-6.64Z"/><path class="cls-1" d="M179.09,119.7l-.53.27a13.89,13.89,0,0,0-5.09,4.33l-.32.46,10.47,6.84Zm-.58,1.5,2.93,7.7-6.76-4.42A12.89,12.89,0,0,1,178.51,121.2Z"/><path class="cls-1" d="M205.16,57.94l.55.48-.05-.73c-.14-2.1-.29-4.19-.44-6.29v-.14l-.11-.08A.8.8,0,0,1,205,51l0-.11-.12,0a16.45,16.45,0,0,1-3.93-1.92l-.56-.37.09.66a10.67,10.67,0,0,1-.18,4.18l0,.18.14.12Zm-4.1-8.15a16.77,16.77,0,0,0,3.43,1.61,1.09,1.09,0,0,0,.13.17q.21,2.72.39,5.43l-4.18-3.62A11.12,11.12,0,0,0,201.06,49.79Z"/><path class="cls-1" d="M198.06,59.52h.2l6.2-.44.73,0-.55-.48c-1.68-1.46-3.35-2.92-5-4.37l-.15-.13-.18.09a16.69,16.69,0,0,1-4.1,1.4l-.66.13.53.41A10.21,10.21,0,0,1,198,59.35ZM195.91,56a16.64,16.64,0,0,0,3.45-1.22c1.45,1.24,2.89,2.5,4.33,3.76l-5.28.37A10.75,10.75,0,0,0,195.91,56Z"/><path class="cls-1" d="M207.11,58.89l.73,0,5.77-.41h.16l.09-.14a.46.46,0,0,1,.2-.19l.1-.06,0-.11A16.84,16.84,0,0,1,216.12,54l.37-.56-.66.09a12.84,12.84,0,0,1-1.71.12,9.86,9.86,0,0,1-2.06-.21l-.18,0-.12.14-4.17,4.81Zm5-4.83a11,11,0,0,0,2,.19,11.22,11.22,0,0,0,1.15-.06,17.85,17.85,0,0,0-1.61,3.43,1,1,0,0,0-.23.22l-4.91.35Z"/><path class="cls-1" d="M205.89,61.07l0-.73-.47.55q-2.12,2.41-4.21,4.84l-.13.15.09.18a16.81,16.81,0,0,1,1.27,3.84l.14.65.4-.53a10.46,10.46,0,0,1,3.22-2.89l.16-.09v-.2C206.16,64.92,206,63,205.89,61.07Zm-3,8.08a18.28,18.28,0,0,0-1.1-3.17q1.78-2.09,3.59-4.14c.11,1.62.23,3.24.34,4.86A10.75,10.75,0,0,0,202.85,69.15Z"/><path class="cls-1" d="M227.14,56.75c-1,.1-2.07.18-3.1.26.69-.65,1.37-1.33,2-2l.3-.31a.93.93,0,0,0,.22-1.05,1.07,1.07,0,0,0-1-.67,1,1,0,0,0-.68.3l-.32.32a45.76,45.76,0,0,1-3.87,3.61l-.09.07-4.89.38a15,15,0,0,1,2.45-4.18,1,1,0,0,0,.16-1.13,1,1,0,0,0-1.14-.54,12.19,12.19,0,0,1-3.57.41l3-3.48.87-.13a51.92,51.92,0,0,0,5.12-.91.93.93,0,0,0,.72-1.05,1,1,0,0,0-1-.92,1.09,1.09,0,0,0-.26,0c-1.19.29-2.4.5-3.51.67l2-2.36a1,1,0,0,0,.14-1.11,1,1,0,0,0-.91-.62.91.91,0,0,0-.69.34c-.67.8-1.13,1.59-1.8,2.38,0-1,.23-2,.23-2.92v-.36c0-.65-.71-1-1.21-1a.8.8,0,0,0-.63.29c-.18.18-.16.42-.16.69v.39a50.67,50.67,0,0,1-.39,5.33s-.13.09-.13.14c-1,1.19-2.08,2.37-3.1,3.55a14.7,14.7,0,0,1-1.27-4.75,1.08,1.08,0,0,0-1-1,1,1,0,0,0-.84.49,12.35,12.35,0,0,1-2.37,2.92c-.11-1.48-.23-3-.34-4.45l.52-.7c1-1.36,2.06-2.76,3-4.26a.92.92,0,0,0,0-1,1.08,1.08,0,0,0-.93-.54,1,1,0,0,0-.83.48c-.63,1-1.35,2-2,3-.09-1-.17-2.05-.26-3.08a1,1,0,0,0-1.07-1,1,1,0,0,0-.72.3.86.86,0,0,0-.22.7c.09,1,.17,2.07.26,3.1-.66-.7-1.34-1.37-2-2l-.3-.31a1,1,0,0,0-.69-.29,1.09,1.09,0,0,0-1,.66.94.94,0,0,0,.23,1.06l.31.31a47.59,47.59,0,0,1,3.62,3.88l.07.09c.11,1.46.22,2.93.34,4.39a14.52,14.52,0,0,1-4.11-2.42,1,1,0,0,0-1.49.12,1,1,0,0,0-.17.86,11.75,11.75,0,0,1,.36,4l-3.48-3-.12-.86a51.92,51.92,0,0,0-.91-5.12.92.92,0,0,0-.92-.73,1.08,1.08,0,0,0-.85.4,1,1,0,0,0-.17.85c.29,1.18.5,2.4.67,3.51l-2.37-2a1,1,0,0,0-.66-.25,1.12,1.12,0,0,0-1,.71.89.89,0,0,0,.29,1l2.37,2c-.74,0-1.48,0-2.18,0h-1.1a1,1,0,0,0,0,2h1.14a43,43,0,0,1,4.58.18l.14,0,3.21,2.75a14.67,14.67,0,0,1-4.36,1.08,1.05,1.05,0,0,0-.95.81,1,1,0,0,0,.46,1.06,11.67,11.67,0,0,1,3.28,2.8l-4.84.37-.7-.52c-1.36-1-2.77-2.07-4.26-3a1,1,0,0,0-.51-.15,1,1,0,0,0-1,.77,1,1,0,0,0,.45,1.11c1,.63,2.05,1.34,3,2l-3.09.26a1.06,1.06,0,0,0-.95,1.11.89.89,0,0,0,1,.9l3.09-.26c-.69.65-1.37,1.34-2,2l-.3.3a1,1,0,0,0-.22,1.05,1.07,1.07,0,0,0,1,.67,1,1,0,0,0,.68-.3l.32-.32a47.48,47.48,0,0,1,3.88-3.61l.09-.07,4.23-.33a14.62,14.62,0,0,1-2.23,3.63,1.07,1.07,0,0,0-.16,1.13,1,1,0,0,0,1.15.54,12.76,12.76,0,0,1,3.09-.42,8.49,8.49,0,0,1,1.26.09L195.69,70l-.87.13a51.21,51.21,0,0,0-5.11.91A.93.93,0,0,0,189,72a1,1,0,0,0,1,.92,1.07,1.07,0,0,0,.25,0c1.19-.29,2.4-.5,3.51-.67-.67.79-1.33,1.58-2,2.36a1,1,0,0,0-.14,1.11,1,1,0,0,0,.91.62.91.91,0,0,0,.69-.34c.67-.8,1.54-1.58,2.22-2.38,0,1,.18,2,.18,2.92v.36c0,.65.3,1,.8,1a1.25,1.25,0,0,0,.83-.29,1,1,0,0,0,.37-.69v-.39a49.68,49.68,0,0,1,0-5.32s-.08-.1-.08-.15c1-1.13,1.88-2.26,2.85-3.38a14.54,14.54,0,0,1,.94,4.08,1,1,0,0,0,1,1,1,1,0,0,0,.83-.49A11.49,11.49,0,0,1,205.86,69c.13,1.75.26,3.5.4,5.25l-.52.7c-1,1.36-2.07,2.77-3,4.26a.92.92,0,0,0,0,1,1.09,1.09,0,0,0,.94.54.93.93,0,0,0,.82-.48c.64-1,1.35-2,2-3,.09,1,.17,2.06.27,3.08a1,1,0,0,0,1.06,1,1,1,0,0,0,.72-.29.9.9,0,0,0,.22-.71c-.09-1-.17-2.07-.26-3.1.66.7,1.34,1.38,2,2l.3.3a.94.94,0,0,0,.68.29,1.07,1.07,0,0,0,1-.66.94.94,0,0,0-.22-1.05l-.32-.32a47.59,47.59,0,0,1-3.62-3.88l-.06-.09c-.13-1.57-.25-3.15-.37-4.72a14.88,14.88,0,0,1,3.71,2.25,1,1,0,0,0,1.49-.13,1,1,0,0,0,.17-.85,12.14,12.14,0,0,1-.38-3.91l3.92,3.36.12.87c.25,1.68.5,3.41.91,5.11a.92.92,0,0,0,.93.73,1.11,1.11,0,0,0,.85-.4,1,1,0,0,0,.16-.85c-.29-1.18-.49-2.39-.66-3.5l2.36,2a1,1,0,0,0,.66.25,1.11,1.11,0,0,0,1-.71.86.86,0,0,0-.29-1l-2.37-2,2.16,0h1.12a1,1,0,0,0,0-2H222.6a43.12,43.12,0,0,1-4.58-.19l-.14,0-3.74-3.2a14.42,14.42,0,0,1,4.47-1.13,1.08,1.08,0,0,0,.95-.81,1,1,0,0,0-.46-1.06,12.33,12.33,0,0,1-2.87-2.3l4.86-.37.69.52c1.36,1,2.77,2.07,4.26,3a1,1,0,0,0,.52.15h0a1,1,0,0,0,.95-.77,1,1,0,0,0-.44-1.11c-1-.63-2.06-1.34-3-2l3.08-.26a1,1,0,0,0,.95-1.11A.9.9,0,0,0,227.14,56.75Zm0,1.41-3.71.31-1,.08.64.48c1.07.8,2.33,1.72,3.65,2.52a.35.35,0,0,1,.17.43.39.39,0,0,1-.56.27c-1.47-.89-2.87-1.94-4.22-3l-.78-.58-.1-.07h-.11c-1.85.14-3.7.29-5.55.42l-.56.05.34.44a12.34,12.34,0,0,0,3.4,2.89.35.35,0,0,1,.19.4.44.44,0,0,1-.41.34,15.62,15.62,0,0,0-5.1,1.38l-.43.2.35.3,4.19,3.59.09.06h.22l.05.16a44.27,44.27,0,0,0,4.67.34h1.14c.36,0,.37.18.37.25s0,.33-.37.33l-1.12,0c-1,0-2,0-3-.08l-.9-.06.69.58c1,.86,2,1.72,3,2.57a.27.27,0,0,1,.11.33.48.48,0,0,1-.44.3.39.39,0,0,1-.27-.1L219.05,71l-.8-.67.12.79c.19,1.32.43,2.86.8,4.36a.35.35,0,0,1-.06.32.47.47,0,0,1-.37.18.33.33,0,0,1-.34-.27c-.41-1.67-.66-3.39-.9-5.06,0-.33-.09-.66-.14-1l0-.12-.08-.07-4.43-3.8-.41-.35-.09.53a11.81,11.81,0,0,0,.32,4.7.4.4,0,0,1-.06.34.41.41,0,0,1-.32.15.46.46,0,0,1-.3-.11,15.53,15.53,0,0,0-4.33-2.54l-.44-.17,0,.47c.14,1.78.27,3.55.41,5.32l0,.11.08.1a.2.2,0,0,1,.06.07l0,0a49.13,49.13,0,0,0,3.67,3.94l.32.32a.33.33,0,0,1,.09.39.48.48,0,0,1-.4.29.37.37,0,0,1-.26-.12l-.3-.3c-.86-.86-1.75-1.75-2.58-2.66l-.6-.66.08.89c.11,1.32.21,2.65.33,4a.32.32,0,0,1-.06.25.4.4,0,0,1-.28.1.44.44,0,0,1-.46-.4L207,76.43l-.06-.8-.48.64c-.8,1.08-1.72,2.34-2.52,3.66a.37.37,0,0,1-.31.19.5.5,0,0,1-.41-.24.34.34,0,0,1,0-.35c.89-1.47,1.93-2.86,2.94-4.21.2-.26.4-.52.59-.79l.07-.09v-.11q-.24-3-.45-5.91l0-.52-.43.29a11.53,11.53,0,0,0-3.34,3.73.36.36,0,0,1-.32.19.43.43,0,0,1-.43-.41,15.7,15.7,0,0,0-1.2-4.72l-.19-.45-.32.37-3.29,3.84-.16.08-.11.12v0s.1.07.09.1l0,0a51.62,51.62,0,0,0-.13,5.41v.39a.41.41,0,0,1-.1.27.72.72,0,0,1-.4.11s-.5,0-.5-.38v-.36c0-1.24.09-2.52.15-3.77l.09-.88-.56.68-2.55,3a.32.32,0,0,1-.23.13.47.47,0,0,1-.36-.28.42.42,0,0,1,.07-.46l2.47-2.92.56-.66-.79.11c-1.32.2-2.86.43-4.36.8a.41.41,0,0,1-.5-.37.33.33,0,0,1,.27-.39c1.67-.41,3.39-.66,5.06-.9l1-.14.11,0,.08-.09Q198,68.22,199.84,66l.33-.38-.5-.11a9.07,9.07,0,0,0-1.9-.19,13.32,13.32,0,0,0-3.23.43h-.12a.38.38,0,0,1-.34-.21.48.48,0,0,1,.07-.49,15.36,15.36,0,0,0,2.52-4.24l.17-.45-.48,0-4.83.38h-.08l-.12.1-.07,0,0,0a47.59,47.59,0,0,0-3.94,3.68L187,65a.35.35,0,0,1-.25.12.46.46,0,0,1-.4-.29.33.33,0,0,1,.09-.39l.3-.3c.85-.86,1.74-1.76,2.66-2.58l.66-.6-.89.07-4,.33a.3.3,0,0,1-.34-.31.45.45,0,0,1,.4-.49l3.63-.3,1.05-.09-.65-.48c-1.07-.8-2.33-1.72-3.65-2.52a.35.35,0,0,1-.17-.43.39.39,0,0,1,.57-.26c1.46.89,2.86,1.93,4.21,2.94L191,60l.09.07h.11l5.49-.43.51,0-.28-.43a11.63,11.63,0,0,0-3.77-3.41.35.35,0,0,1-.19-.4.45.45,0,0,1,.41-.34,15.41,15.41,0,0,0,5-1.33l.43-.2-.36-.31L194.79,50,194.7,50l-.14,0h-.14a44.9,44.9,0,0,0-4.67-.19h-1.14a.36.36,0,0,1-.37-.39.38.38,0,0,1,.37-.41h1.1c1,0,2,0,3,.06l.89.05-.68-.58-3.05-2.58a.27.27,0,0,1-.11-.32.49.49,0,0,1,.44-.31.39.39,0,0,1,.27.1l2.89,2.44.7.6-.12-.8c-.19-1.32-.43-2.85-.8-4.35a.37.37,0,0,1,.06-.33.49.49,0,0,1,.38-.18A.32.32,0,0,1,194,43c.41,1.66.66,3.39.9,5,.05.33.09.66.14,1l0,.11.08.07,4,3.41.4.35.1-.52a11.67,11.67,0,0,0-.31-4.82.37.37,0,0,1,.07-.34.38.38,0,0,1,.32-.15.46.46,0,0,1,.3.11A15.31,15.31,0,0,0,204.69,50l.44.16,0-.46c-.12-1.66-.25-3.31-.38-5v-.09l-.09-.11-.06-.07,0,0a47.63,47.63,0,0,0-3.67-3.95l-.32-.31a.34.34,0,0,1-.09-.4.48.48,0,0,1,.4-.29.35.35,0,0,1,.26.12l.3.3c.86.86,1.75,1.75,2.58,2.66l.6.67-.07-.9c-.11-1.32-.22-2.65-.34-4a.29.29,0,0,1,.07-.24.35.35,0,0,1,.27-.11.44.44,0,0,1,.46.4c.12,1.29.22,2.59.33,3.88l.07.8.47-.64c.8-1.07,1.72-2.33,2.53-3.65a.34.34,0,0,1,.31-.19.46.46,0,0,1,.4.23.32.32,0,0,1,0,.35c-.89,1.47-1.93,2.86-2.94,4.21l-.59.79-.07.09v.12c.14,1.71.27,3.42.4,5.13l0,.56.44-.34a11.88,11.88,0,0,0,3-3.45.36.36,0,0,1,.32-.19.44.44,0,0,1,.43.42,15.38,15.38,0,0,0,1.5,5.38l.2.41.3-.35c1.15-1.32,2.29-2.66,3.42-4l.07-.07,0-.12v0a.4.4,0,0,1,0-.11l-.09,0a49.18,49.18,0,0,0,.09-5.42v-.39c0-.11.12-.2.19-.26a.51.51,0,0,1,.35-.12c.05,0,.46,0,.46.38v.36c0,1.24,0,2.52-.07,3.77l-.05.89.58-.68,2.58-3.05a.29.29,0,0,1,.22-.12.43.43,0,0,1,.36.27.39.39,0,0,1-.06.46c-.8,1-1.61,1.91-2.42,2.87l-.61.71.79-.11c1.33-.2,2.86-.43,4.36-.8a.41.41,0,0,1,.5.37.34.34,0,0,1-.27.4c-1.66.41-3.39.65-5.05.89l-1,.15h-.11l-.08.09q-1.71,2-3.43,4l-.37.43.56.07a10.42,10.42,0,0,0,1.13.06,13.32,13.32,0,0,0,3.23-.43h.12a.36.36,0,0,1,.33.21.46.46,0,0,1-.07.49,15.33,15.33,0,0,0-2.72,4.8l-.15.44.46,0,5.46-.42h.09l.11-.09.07-.06,0,0A47.48,47.48,0,0,0,225.06,54l.32-.32a.37.37,0,0,1,.25-.12.46.46,0,0,1,.4.29.36.36,0,0,1-.08.4l-.31.3c-.86.86-1.74,1.75-2.65,2.57l-.67.6.89-.07,4-.33a.3.3,0,0,1,.34.32A.43.43,0,0,1,227.14,58.16Z"/><path class="cls-1" d="M214.15,59.19H214l-6.08.43-.73,0,.55.48L212.15,64l.07.06h.09l.09,0,.11,0,.12-.06a16.27,16.27,0,0,1,4.13-1.42l.66-.13-.54-.41a10.58,10.58,0,0,1-2.63-2.79Zm1.86,3a17.38,17.38,0,0,0-3.54,1.28l-3.81-3.3,5.17-.37A11,11,0,0,0,216,62.21Z"/><path class="cls-1" d="M205.25,59.82l-.73,0-6.62.47-.19,0-.07.18a16.24,16.24,0,0,1-1.84,3.68l-.37.56.67-.09a10.19,10.19,0,0,1,4.45.27l.19,0,.12-.14,3.9-4.49Zm-4.72,4.49A10.11,10.11,0,0,0,197.8,64c-.37,0-.75,0-1.15.06a16.89,16.89,0,0,0,1.49-3.09l5.69-.4Z"/><path class="cls-1" d="M207.19,60.76l-.55-.48.05.73q.21,3.06.43,6.12v.2l.19.07a16.66,16.66,0,0,1,3.76,1.86l.55.37-.09-.66a10.72,10.72,0,0,1,.16-4.07l.05-.18-.14-.12Zm3.68,7.65a17.64,17.64,0,0,0-3.16-1.52c-.13-1.73-.25-3.46-.37-5.19l3.73,3.24A10.68,10.68,0,0,0,210.87,68.41Z"/><path class="cls-1" d="M210.92,53.29l.12-.14L211,53a.54.54,0,0,1,0-.31l0-.12-.06-.11a16.89,16.89,0,0,1-1.42-4.14l-.13-.65-.4.53a10.7,10.7,0,0,1-2.86,2.68L206,51l0,.18q.24,3.24.46,6.5l0,.72.48-.55Zm-1.84-4.24a17.56,17.56,0,0,0,1.28,3.56.9.9,0,0,0,0,.4c-1.11,1.29-2.23,2.57-3.35,3.86-.13-1.87-.26-3.73-.4-5.6A10.85,10.85,0,0,0,209.08,49.05Z"/><path class="cls-1" d="M97.36,139.8l-.57-.5-.12.76a11.47,11.47,0,0,0,.22,4.42l1,1.82h.25a27.57,27.57,0,0,1,6.33.61l1.67.36-1.3-1.1C102.36,144.08,99.85,141.94,97.36,139.8Zm1.3,5.64h-.28l-.68-1.21a12,12,0,0,1-.28-3.27q2.82,2.43,5.64,4.82A28.27,28.27,0,0,0,98.66,145.44Z"/><path class="cls-1" d="M74,151.18a1.49,1.49,0,0,0-1.11.47,1.45,1.45,0,0,0-.35,1.12,1.51,1.51,0,0,0,1.51,1.56,1.49,1.49,0,0,0,1.52-1.56v0A1.5,1.5,0,0,0,74,151.18Zm.18,2.3a.74.74,0,0,1-.77-.75.61.61,0,0,1,.16-.49.7.7,0,0,1,.54-.21.78.78,0,0,1,.83.72A.73.73,0,0,1,74.2,153.48Z"/><path class="cls-1" d="M91.92,142.62l-.63-.25,0,.68c.21,2.8.44,5.69.68,8.59l.16,2,.66-1.9A16.39,16.39,0,0,1,96.12,146a.36.36,0,0,1,.12-.09l.74-.23-.6-.5A16.07,16.07,0,0,0,91.92,142.62Zm.8,7.14c-.17-2-.33-4.09-.48-6.09a15.19,15.19,0,0,1,3.18,1.87A16.46,16.46,0,0,0,92.72,149.76Z"/><path class="cls-1" d="M104.78,160.82a1.59,1.59,0,0,0,1.62-1.55v-.05a1.68,1.68,0,0,0-2.32-1.43l-.07,0-.07,0-.07,0a1.44,1.44,0,0,0-.7,1.37A1.59,1.59,0,0,0,104.78,160.82Zm-.51-2.17.15-.08a1,1,0,0,1,.3,0,.78.78,0,0,1,.83.72.77.77,0,0,1-1.53,0A.6.6,0,0,1,104.27,158.65Z"/><path class="cls-1" d="M102.58,127.42l-.24-.48-.39.32,0,0-.05.07a16.57,16.57,0,0,0-2.34,4.4l-.21.61.64-.05c2.9-.21,5.74-.43,8.44-.66l2-.17-1.94-.66a16.32,16.32,0,0,1-5.82-3.31A.25.25,0,0,1,102.58,127.42Zm-2,4a15.85,15.85,0,0,1,1.69-3.15,16.31,16.31,0,0,0,4.25,2.68Z"/><path class="cls-1" d="M81.14,160.87a1.47,1.47,0,0,0-.39,1.12,1.44,1.44,0,0,0,1.42,1.55A1.41,1.41,0,0,0,83.59,162v0a1.44,1.44,0,0,0-1.48-1.55A1.18,1.18,0,0,0,81.14,160.87Zm2,1.1a.77.77,0,0,1-1.53,0,.63.63,0,0,1,.16-.5.74.74,0,0,1,.54-.21A.78.78,0,0,1,83.13,162Z"/><path class="cls-1" d="M109.08,151a1.48,1.48,0,0,0,1.51-1.56v0a1.57,1.57,0,0,0-2.69-1.08,1.52,1.52,0,0,0-.41,1.12A1.58,1.58,0,0,0,109.08,151Zm-.51-2.1a.78.78,0,0,1,.55-.21.79.79,0,0,1,.83.73.77.77,0,0,1-1.53,0A.67.67,0,0,1,108.57,148.88Z"/><path class="cls-1" d="M91,158.22a1.74,1.74,0,0,0,1.78,1.55,1.7,1.7,0,0,0,1.79-1.55v-.05a1.76,1.76,0,0,0-1.85-1.55,1.82,1.82,0,0,0-1.25.48A1.49,1.49,0,0,0,91,158.22Zm1-.54a.78.78,0,0,1,.55-.21.79.79,0,0,1,.83.73.77.77,0,0,1-1.53,0A.66.66,0,0,1,92,157.68Z"/><path class="cls-1" d="M116.75,120.39c.76,0,.84-.53,1.84-1.55v0c-1-1-1.12-1.55-1.91-1.55a1.88,1.88,0,0,0-1.28.47,1.49,1.49,0,0,0-.33,1.13A1.64,1.64,0,0,0,116.75,120.39Zm-.85-2.09a.83.83,0,0,1,1.38.51.73.73,0,0,1-.76.73.74.74,0,0,1-.77-.75A.64.64,0,0,1,115.9,118.3Z"/><path class="cls-1" d="M106.25,116.2a1.6,1.6,0,0,0,1.62-1.55v-.05a1.63,1.63,0,0,0-1.68-1.55,1.61,1.61,0,0,0-1.17.47,1.47,1.47,0,0,0-.38,1.13A1.58,1.58,0,0,0,106.25,116.2Zm-.61-2.09a.71.71,0,0,1,.55-.21.79.79,0,0,1,.83.72.74.74,0,0,1-.77.73.75.75,0,0,1-.77-.75A.65.65,0,0,1,105.64,114.11Z"/><path class="cls-1" d="M118.12,140.07a1.36,1.36,0,0,0-1.05.48,1.67,1.67,0,0,0,1.09,2.67,1.41,1.41,0,0,0,1.43-1.55v0A1.43,1.43,0,0,0,118.12,140.07Zm.28,2.3a.73.73,0,0,1-.76-.75.66.66,0,0,1,.15-.49.76.76,0,0,1,.55-.21.8.8,0,0,1,.83.73A.73.73,0,0,1,118.4,142.37Z"/><path class="cls-1" d="M64.65,147.61l0-.1s0-.07,0-.11l0-.1a1.65,1.65,0,0,0-1.41-.73,1.61,1.61,0,0,0-1.16.47,1.43,1.43,0,0,0-.38,1.12,1.46,1.46,0,0,0,1.45,1.56,1.43,1.43,0,0,0,1.45-1.56v0C64.59,147.94,64.71,147.77,64.65,147.61Zm-1.34,1.26a.74.74,0,0,1-.77-.75.63.63,0,0,1,.15-.49.74.74,0,0,1,.55-.21.85.85,0,0,1,.68.31A1.51,1.51,0,0,0,64,148a1.06,1.06,0,0,1,0,.19A.74.74,0,0,1,63.31,148.87Z"/><path class="cls-1" d="M99,105.94a1.59,1.59,0,0,0,1.64-1.56v0a1.62,1.62,0,0,0-1.71-1.55,1.66,1.66,0,0,0-1.18.48,1.5,1.5,0,0,0-.38,1.12A1.61,1.61,0,0,0,99,105.94Zm-.65-2.1a.78.78,0,0,1,.55-.21.79.79,0,0,1,.83.73.77.77,0,0,1-1.53,0A.66.66,0,0,1,98.3,103.84Z"/><path class="cls-1" d="M118.42,138.57a2.72,2.72,0,0,0-2.16.88c-2.89-.79-5.94-1.64-9.3-2.58a26.26,26.26,0,0,1,5.4-3.87,3.42,3.42,0,0,0,2.46,1.25,3.07,3.07,0,0,0,3.07-2.78.77.77,0,0,0,0-.3,1,1,0,0,0,0-.29,3.14,3.14,0,0,0-3-2.79,3,3,0,0,0-2.92,2.15,17.57,17.57,0,0,1-7.47-3.12l0-.27c3.49-1.94,6.88-3.86,10.12-5.69a3.4,3.4,0,0,0,1.93.73,3.07,3.07,0,0,0,3.08-2.78,1.67,1.67,0,0,0,0-.28,1.12,1.12,0,0,0,0-.31,3.07,3.07,0,0,0-6.13.27,1.93,1.93,0,0,0,0,.34c-2.85,1.62-5.82,3.29-9,5.09a27.07,27.07,0,0,1,1.06-6.65,4.26,4.26,0,0,0,.78.14,3.1,3.1,0,0,0,3.08-2.79,1,1,0,0,0,0-.3.88.88,0,0,0,0-.28,3.08,3.08,0,0,0-6.14.26,2.81,2.81,0,0,0,.17,1.11,17.82,17.82,0,0,1-7.59,3.14h0c1.15-4,2.19-7.75,3.2-11.4a3.07,3.07,0,0,0,3-2.79.72.72,0,0,0,0-.29,1,1,0,0,0,0-.29,3.08,3.08,0,0,0-6.14.26,2.75,2.75,0,0,0,.94,2.22c-.9,3.24-1.86,6.69-3,10.5a26.84,26.84,0,0,1-4.16-5.68,3.39,3.39,0,0,0,1.41-2.32,1.5,1.5,0,0,0,0-.29,1.43,1.43,0,0,0,0-.29,3.08,3.08,0,0,0-6.14.27,3,3,0,0,0,1.94,2.84,18,18,0,0,1-3,7.47c-2-3.54-3.92-7-5.83-10.41a3.47,3.47,0,0,0,.72-1.68,1.6,1.6,0,0,0,0-.3,1.5,1.5,0,0,0,0-.29,3.08,3.08,0,0,0-6.14.27,2.83,2.83,0,0,0,.92,2.2,3.47,3.47,0,0,0,2.14.9,1.82,1.82,0,0,0,.33,0c1.71,3.05,3.46,6.17,5.32,9.51a26.65,26.65,0,0,1-7.23-1.1c0-.1,0-.2,0-.3a1.5,1.5,0,0,0,0-.29,1.43,1.43,0,0,0,0-.29A3.08,3.08,0,1,0,71,120.64a2.78,2.78,0,0,0,1.34-.27,17.89,17.89,0,0,1,3.09,7.42c-4.16-1.19-8-2.26-11.62-3.27a3.08,3.08,0,0,0-6.13.35,2.78,2.78,0,0,0,.91,2.19,3.45,3.45,0,0,0,2.15.91,2.83,2.83,0,0,0,2.44-1.22c3.27.9,6.73,1.88,10.55,3a26.18,26.18,0,0,1-5.57,4.14,1.22,1.22,0,0,0-.45.24,3.2,3.2,0,0,0-2.53-1.39,3.13,3.13,0,0,0-3.1,3.06,3.09,3.09,0,0,0,3.06,3.1,3,3,0,0,0,2.92-2.13,18,18,0,0,1,7.7,3.17V140c-3.62,2-7.15,4-10.48,5.86a3.29,3.29,0,0,0-2-.78,3.14,3.14,0,0,0-3.11,3.06,3.11,3.11,0,0,0,3.06,3.1,3.08,3.08,0,0,0,3.08-2.78,1.53,1.53,0,0,0,0-.3,1.66,1.66,0,0,0,0-.24c3-1.69,6.11-3.43,9.5-5.31a26.77,26.77,0,0,1-1.15,7.14,4,4,0,0,0-.5-.06,3.12,3.12,0,0,0-3.1,3.06,2.78,2.78,0,0,0,.91,2.2,3.5,3.5,0,0,0,2.15.9,3.09,3.09,0,0,0,3.07-2.78.79.79,0,0,0,0-.3.74.74,0,0,0,0-.29,3.44,3.44,0,0,0-.35-1.14,17.92,17.92,0,0,1,7.61-3.15l.28.24c-1.08,3.79-2,7.23-2.94,10.5a3.18,3.18,0,0,0-2.56,3,3.09,3.09,0,0,0,3.06,3.1h.15a3.09,3.09,0,0,0,2.92-2.79,1.42,1.42,0,0,0,0-.58,3.11,3.11,0,0,0-1.32-2.23c.78-2.82,1.63-5.84,2.58-9.21a26.78,26.78,0,0,1,4,5.59,3.38,3.38,0,0,0-1.13,2.34,2.77,2.77,0,0,0,.92,2.2,3.4,3.4,0,0,0,2.14.91,3.09,3.09,0,0,0,3.08-2.79,1.5,1.5,0,0,0,0-.29,1.43,1.43,0,0,0,0-.29,3.11,3.11,0,0,0-2.28-2.67,17.63,17.63,0,0,1,3.11-7.39l.52,0c1.92,3.44,3.67,6.56,5.36,9.52a3.53,3.53,0,0,0-.7,1.89,3.08,3.08,0,0,0,6.14.34,2,2,0,0,0,0-.32,1.41,1.41,0,0,0,0-.28,3.14,3.14,0,0,0-3-2.8h-.41c-1.52-2.68-3.07-5.43-4.72-8.39a26.62,26.62,0,0,1,6.49,1.08,3.24,3.24,0,0,0-.07.52,2.76,2.76,0,0,0,.92,2.19,3.4,3.4,0,0,0,2.14.91,3.08,3.08,0,0,0,3.08-2.79,1.43,1.43,0,0,0,0-.29,1.17,1.17,0,0,0,0-.27,3.13,3.13,0,0,0-3-2.81,2.65,2.65,0,0,0-1.36.28,17.74,17.74,0,0,1-3.07-7.47c.11-.13.35-.25.47-.38,3.6,1,6.34,1.95,10.34,2.85v0a3.05,3.05,0,0,0,2.92,3.11h.09a3.07,3.07,0,0,0,2.89-2.79,2.12,2.12,0,0,0,0-.58A3.14,3.14,0,0,0,118.42,138.57Zm2.22,3.1a.44.44,0,0,1,0,.1v0a2.24,2.24,0,0,1-2.2,2.07,2.27,2.27,0,0,1-2.25-2.21,1.76,1.76,0,0,1,0-.31l.07-.38-.38-.1c-3.44-.95-7-1.93-10.81-3l-.26-.07-.17.2c-.22.24-.44.49-.65.74l-.11.14,0,.18a18.65,18.65,0,0,0,3.45,8.36l.24.37.35-.26a1.79,1.79,0,0,1,1.2-.35,2.37,2.37,0,0,1,2.33,2.1s.1.08.1.11v0s-.09.06-.1.1l0,0a2.25,2.25,0,0,1-2.21,2.07,2.63,2.63,0,0,1-1.62-.68,1.93,1.93,0,0,1-.65-1.53,2.49,2.49,0,0,1,.14-.7l.14-.41-.42-.14A27.73,27.73,0,0,0,99,146.91h-.74l.36.64c1.85,3.3,3.56,6.35,5.24,9.31l.15.27.31-.07a2.07,2.07,0,0,1,.49,0,2.29,2.29,0,0,1,2.24,2.07v0a.28.28,0,0,1,0,.09v.05a.49.49,0,0,1,0,.14,2.25,2.25,0,0,1-2.19,2.07,2.29,2.29,0,0,1-2.26-2.21,2.57,2.57,0,0,1,.68-1.6l.21-.23-.16-.27c-1.76-3.1-3.6-6.38-5.62-10l-.13-.23h-.27l-1,.07-.18,0-.11.14a18.72,18.72,0,0,0-3.47,8.31l-.08.44.44.06a2.27,2.27,0,0,1,2,2l-.13.05s-.13.07-.13.09v.05s.14.06.13.1l.06,0a2.2,2.2,0,0,1-2.16,2.07,2.55,2.55,0,0,1-1.59-.68,1.92,1.92,0,0,1-.64-1.53,2.57,2.57,0,0,1,1.06-1.93l.32-.21-.18-.33a27.46,27.46,0,0,0-4.81-6.64l-.52-.52-.19.7c-1.08,3.79-2,7.14-2.87,10.24l-.09.33.3.16a2.08,2.08,0,0,1,1.18,1.79v.32a2.22,2.22,0,0,1-2.19,2.07A2.27,2.27,0,0,1,80.14,162a2.3,2.3,0,0,1,2-2.25h.31l.09-.3c.94-3.43,2-7,3.09-11.05l.07-.25-.2-.18-.64-.55-.14-.12-.18,0a18.86,18.86,0,0,0-8.51,3.55l-.36.24.26.36a2.43,2.43,0,0,1,.43,1.14l.09,0s.09.07.09.1v.05s-.08.05-.09.09l0,0A2.23,2.23,0,0,1,74.24,155a2.63,2.63,0,0,1-1.62-.68,2,2,0,0,1-.65-1.53,2.27,2.27,0,0,1,2.21-2.25,2.63,2.63,0,0,1,.69.13l.4.13.14-.41a27.37,27.37,0,0,0,1.31-8.51v-.72l-.63.35c-3.74,2.08-7.14,4-10.4,5.82l-.27.15.06.3a1.2,1.2,0,0,1,.07.26s0,.07,0,.1v0s0,.05,0,.09l0,.05a2.23,2.23,0,0,1-2.19,2.06,2.23,2.23,0,0,1-.06-4.46,2.36,2.36,0,0,1,1.65.74l.23.25.29-.17c3.49-2,7.18-4,11-6.14l.23-.13,0-.27c0-.19,0-.37,0-.55l0-.18-.14-.12a19.15,19.15,0,0,0-8.6-3.52l-.4-.07-.09.4A2.22,2.22,0,0,1,65.21,138a2.24,2.24,0,1,1,2-3.18l.18.4.39-.2.4-.2.06,0,0-.05a.27.27,0,0,1,.16-.08l.12,0a27.37,27.37,0,0,0,6.33-4.83l.5-.51-.69-.19c-4.22-1.21-8-2.27-11.55-3.25l-.31-.09-.17.28a2,2,0,0,1-1.85,1.08,2.55,2.55,0,0,1-1.6-.68,1.93,1.93,0,0,1-.65-1.53,2.23,2.23,0,0,1,4.45-.19v0a.19.19,0,0,1,0,.08v.32l.31.09c3.84,1.06,7.84,2.19,12.23,3.44l.27.08.17-.21.24-.28.12-.14,0-.18a18.69,18.69,0,0,0-3.49-8.41l-.24-.36-.35.25a1.86,1.86,0,0,1-1.18.34,2.29,2.29,0,0,1-2.26-2.21,2.23,2.23,0,0,1,4.45-.19l.16,0s.16.07.16.09v0s-.15.06-.16.1l-.08,0a2.81,2.81,0,0,1-.18.56l-.18.42.42.13A27,27,0,0,0,82,120.1h.7l-.34-.62c-2-3.68-4-7.08-5.82-10.39l-.15-.27-.3.06a2,2,0,0,1-.43,0,2.61,2.61,0,0,1-1.61-.69,1.91,1.91,0,0,1-.65-1.52,2.23,2.23,0,0,1,4.45-.19l-.15,0s-.14.07-.14.1v0s.15,0,.14.09l.07,0a2.62,2.62,0,0,1-.66,1.46l-.2.23.16.27c2,3.57,4.1,7.27,6.17,11l.14.24.77-.07.11-.14a18.85,18.85,0,0,0,3.5-8.46l.07-.38-.37-.11a2.18,2.18,0,0,1-1.7-2.11,2.23,2.23,0,0,1,4.45-.19v0a.34.34,0,0,1,0,.1v0a.38.38,0,0,1,0,.1v0a2.45,2.45,0,0,1-1.32,1.9l-.4.19.2.39a27.5,27.5,0,0,0,5,6.77l.51.51.2-.69c1.19-4.2,2.25-8,3.22-11.48l.07-.27-.22-.18a2,2,0,0,1-.83-1.68,2.22,2.22,0,0,1,4.44-.19l.23,0s.23.07.23.09v0s-.22.06-.23.1l-.12,0a2.3,2.3,0,0,1-2.14,2.07H99a1.18,1.18,0,0,1-.27,0l-.38-.06-.11.37c-1.06,3.84-2.16,7.76-3.37,12l-.07.26.2.18.37.31.15.12.18,0a18.85,18.85,0,0,0,8.45-3.51l.32-.22-.19-.34a1.84,1.84,0,0,1-.23-1,2.27,2.27,0,0,1,2.21-2.26,2.3,2.3,0,0,1,2.24,2.07l.06,0s.06.07.06.1v.05s0,.06-.06.09l0,.05a2.25,2.25,0,0,1-2.2,2.07,2.91,2.91,0,0,1-.86-.2l-.35-.15-.19.32,0,0-.14.17v.08a27.44,27.44,0,0,0-1.13,7.82v.73l.6-.36c3.58-2,6.82-3.82,9.93-5.59l.26-.15-.06-.3a1.63,1.63,0,0,1,0-.44,2.22,2.22,0,0,1,4.44-.19v0a.42.42,0,0,1,0,.13.31.31,0,0,1,0,.1v0a2.25,2.25,0,0,1-2.19,2.07,2.69,2.69,0,0,1-1.64-.71l-.23-.22-.27.15c-3.38,1.92-7,3.93-10.6,6l-.24.13,0,.27c0,.25,0,.5.06.75v.18l.15.12a18.67,18.67,0,0,0,8.36,3.47l.41.08.09-.41a2.23,2.23,0,0,1,2.16-1.88,2.3,2.3,0,0,1,2.24,2.07l-.24,0s-.23.07-.23.1v0s.24.06.23.09l.11.05a2.18,2.18,0,0,1-2.13,2.07,2.48,2.48,0,0,1-2-1.17l-.19-.35-.35.18a27.81,27.81,0,0,0-6.47,4.7l-.52.51.7.2c3.76,1.06,7.13,2,10.29,2.86l.27.08.17-.22a2,2,0,0,1,1.65-.79,2.29,2.29,0,0,1,2.24,2.07v.05s0,.07,0,.09v0Z"/><path class="cls-1" d="M114.91,132.75a1.61,1.61,0,0,0,1.68-1.55v0a1.65,1.65,0,0,0-1.75-1.55,1.7,1.7,0,0,0-1.2.47,1.51,1.51,0,0,0-.37,1.13A1.61,1.61,0,0,0,114.91,132.75Zm-.68-2.09a.71.71,0,0,1,.55-.21.79.79,0,0,1,.83.72.77.77,0,0,1-1.54,0A.65.65,0,0,1,114.23,130.66Z"/><path class="cls-1" d="M103.26,138l.4-.49-.6-.18-.12,0h-.07a16.41,16.41,0,0,0-5,1.39l-.6.28.5.43c2.15,1.85,4.31,3.7,6.43,5.49l1.5,1.28-.85-1.78a16.64,16.64,0,0,1-1.66-6.23A.37.37,0,0,1,103.26,138Zm.15,5.09c-1.51-1.28-3-2.58-4.54-3.88a15.18,15.18,0,0,1,3.51-1A15.9,15.9,0,0,0,103.41,143.05Z"/><path class="cls-1" d="M65,134.21a1.43,1.43,0,0,0-1.47,1.59,1.52,1.52,0,0,0,1.52,1.56,1.49,1.49,0,0,0,1.52-1.56v0A1.5,1.5,0,0,0,65,134.21Zm.17,2.3a.75.75,0,0,1-.77-.75.65.65,0,0,1,.16-.49.71.71,0,0,1,.55-.21.77.77,0,0,1,.82.72A.73.73,0,0,1,65.19,136.51Z"/><path class="cls-1" d="M60.82,123.31a1.7,1.7,0,0,0-1.21.48,1.48,1.48,0,0,0-.41,1.12,1.65,1.65,0,0,0,1.69,1.55,1.62,1.62,0,0,0,1.7-1.55v0A1.68,1.68,0,0,0,60.82,123.31Zm0,2.31a.75.75,0,0,1-.77-.75.67.67,0,0,1,.16-.5.75.75,0,0,1,.55-.21.8.8,0,0,1,.83.73A.74.74,0,0,1,60.79,125.62Z"/><path class="cls-1" d="M71,116a1.59,1.59,0,0,0-1.16.47,1.49,1.49,0,0,0-.39,1.13,1.62,1.62,0,0,0,3.23,0v0A1.62,1.62,0,0,0,71,116Zm.07,2.3a.73.73,0,0,1-.77-.75.66.66,0,0,1,.15-.49.78.78,0,0,1,.55-.21.79.79,0,0,1,.83.73A.73.73,0,0,1,71.06,118.28Z"/><path class="cls-1" d="M77.28,106.66v0a1.62,1.62,0,0,0-1.68-1.55,1.59,1.59,0,0,0-1.16.47,1.48,1.48,0,0,0-.39,1.13,1.6,1.6,0,0,0,1.62,1.55l.28,0,.16,0,.1-.12a.4.4,0,0,1,.28-.14h.16l.12-.11a1.61,1.61,0,0,0,.51-1.13Zm-1,.44a1.22,1.22,0,0,0-.59.29.74.74,0,0,1-.79-.75.64.64,0,0,1,.15-.49.74.74,0,0,1,.55-.21.73.73,0,0,1,.68,1.16Z"/><path class="cls-1" d="M110.93,132.06l-1.66.14c-3.06.26-6.12.5-9.09.72l-.79.06.49.62a12.68,12.68,0,0,0,3.57,3l.09.07.08.09,1,.29.17-.18a27.59,27.59,0,0,1,4.73-3.93Zm-6.55,4.08-.3-.09-.19-.13a13.18,13.18,0,0,1-2.81-2.22c2.2-.16,4.44-.34,6.69-.52A28.19,28.19,0,0,0,104.38,136.14Z"/><path class="cls-1" d="M90.71,142.77l-.06-.73-.6.41a11,11,0,0,0-2.83,2.86l0,.06-.73,2.56.19.18A27.3,27.3,0,0,1,90.72,153l.92,1.41-.14-1.68C91.22,149.42,91,146.06,90.71,142.77Zm-3.3,4.9.55-1.93a11,11,0,0,1,2-2.14q.28,3.79.6,7.64A27.93,27.93,0,0,0,87.41,147.67Z"/><path class="cls-1" d="M89.5,120.76l.33,3.16.59-.43a12.2,12.2,0,0,0,3.3-3.77l.06-.07.29-.31-.31-.29a27.43,27.43,0,0,1-4.13-4.9l-.94-1.43.16,1.7C89.05,116.53,89.28,118.65,89.5,120.76Zm3.41-1.35a12.15,12.15,0,0,1-2.39,2.92l-.18-1.66c-.16-1.58-.33-3.15-.49-4.72A28.89,28.89,0,0,0,92.91,119.41Z"/><path class="cls-1" d="M93.55,123.37c-.65,2.28-1.31,4.55-2,6.83L91,132.06l1.27-1.46,3.08-3.55.17-.2-.09-.23a.39.39,0,0,1,0-.26l.05-.16-.08-.16a17.38,17.38,0,0,1-1.06-2.68L94,122Zm1,2.91a1.21,1.21,0,0,0,0,.38l-1.67,1.92c.36-1.23.71-2.46,1.07-3.68Q94.27,125.61,94.6,126.28Z"/><path class="cls-1" d="M89.64,108.78v0A1.63,1.63,0,0,0,88,107.18a1.6,1.6,0,0,0-1.16.48,1.47,1.47,0,0,0-.39,1.12,1.62,1.62,0,0,0,3.23,0Zm-2.38,0a.67.67,0,0,1,.15-.5A.78.78,0,0,1,88,108a.79.79,0,0,1,.83.73.77.77,0,0,1-1.53,0Z"/><path class="cls-1" d="M77,128.87l.44-.06a16.56,16.56,0,0,0,4.61-1.26l.63-.28L79.88,125q-2.09-1.7-4.16-3.42l-1.6-1.32.95,1.85A17.08,17.08,0,0,1,77,128.43Zm2.32-3.26L81.09,127a15.53,15.53,0,0,1-3.29.87,16.94,16.94,0,0,0-1.19-4.54C77.52,124.12,78.43,124.87,79.35,125.61Z"/><path class="cls-1" d="M95.88,125.56l.28.58.43-.48c1.85-2.16,3.75-4.38,5.65-6.63l1.41-1.66-1.93,1a16.84,16.84,0,0,1-6.9,2l-.47,0,.07.46A16.73,16.73,0,0,0,95.88,125.56Zm4.45-5.59c-1.33,1.56-2.65,3.12-4,4.63a16.08,16.08,0,0,1-1-3.38A16.93,16.93,0,0,0,100.33,120Z"/><path class="cls-1" d="M80.45,133.7l.72-.06-.4-.6a11,11,0,0,0-3.21-3.1L76,129.48l-.18.19a26.8,26.8,0,0,1-4.52,4l-1.3.91,1.58-.13C74.6,134.15,77.58,133.91,80.45,133.7Zm-4.15-3.26.85.24a11.12,11.12,0,0,1,2.48,2.23c-2.16.16-4.37.33-6.6.52A28.23,28.23,0,0,0,76.3,130.44Z"/><path class="cls-1" d="M87.51,130.47l1.74,1.47-1.09-2c-1-1.85-2-3.69-3-5.53L84.33,123v1.62a9.92,9.92,0,0,1-.35,2.58l-.08.26.22.18Q85.82,129,87.51,130.47Zm-2.45-4.39,1.26,2.28-1.46-1.21A9.6,9.6,0,0,0,85.06,126.08Z"/><path class="cls-1" d="M87.58,131.33c-1.26-1.08-2.62-2.21-4.15-3.46l-.21-.18-.24.12A18.11,18.11,0,0,1,79.61,129l-1.54.38,1.52.44,7.6,2.2,1.91.56Zm-6.35-1.89a15.2,15.2,0,0,0,1.87-.75l2.4,2Z"/><path class="cls-1" d="M78.86,139.26l1.42-.79,7-3.83,1.7-.93-1.93.13-5.33.38-.28,0-.09.26a17.23,17.23,0,0,1-1.63,3.38ZM82,135.05l3.12-.23-4,2.19A16.9,16.9,0,0,0,82,135.05Z"/><path class="cls-1" d="M81.82,133.6l.27,0,4.14-.3,2.37-.16-2.28-.67-5.48-1.59-1.42-.41,1,1.1a9.74,9.74,0,0,1,1.28,1.81Zm2-1-1.5.11c-.13-.22-.28-.45-.42-.67Z"/><path class="cls-1" d="M88.56,123.56l.64.23-.32-3.09q-.3-2.78-.57-5.55l-.19-2-.64,1.88a16.45,16.45,0,0,1-3.11,5.64l-.29.35.36.27A16.88,16.88,0,0,0,88.56,123.56ZM87.64,117l.39,3.77.18,1.71a15.67,15.67,0,0,1-2.9-1.6A16.66,16.66,0,0,0,87.64,117Z"/><path class="cls-1" d="M97.22,125.85l-.52.61.79.09a9.39,9.39,0,0,0,1.19.07,14.34,14.34,0,0,0,3.4-.45.3.3,0,0,1,.21,0l.23,0,.41-.22v-.26a28,28,0,0,1,.47-5.9l.3-1.58-1,1.23C100.81,121.67,99,123.81,97.22,125.85Zm4.84-.54-.18,0a13,13,0,0,1-3.46.43c1.27-1.48,2.58-3,3.89-4.56A29.79,29.79,0,0,0,102.06,125.31Z"/><path class="cls-1" d="M80.29,124.5l2.55,2.09.56.45.13-.7a12.06,12.06,0,0,0-.28-5.23l-.18-.43-.27,0a27.6,27.6,0,0,1-6.46-.48l-1.64-.32L76,121C77.41,122.15,78.85,123.32,80.29,124.5Zm2.2-2.94a12.11,12.11,0,0,1,.32,3.9l-2-1.62-3.09-2.53A28.08,28.08,0,0,0,82.49,121.56Z"/><path class="cls-1" d="M83.82,140.36l.46-.54-.7-.15a10.72,10.72,0,0,0-4.12,0h-.07l-2.08,1.15v.26a27,27,0,0,1-.49,6.25l-.31,1.6,1-1.24C79.63,145.25,81.73,142.79,83.82,140.36Zm-5.64.94,1.5-.82a10.61,10.61,0,0,1,3-.1c-1.59,1.85-3.19,3.72-4.76,5.57A28,28,0,0,0,78.18,141.3Z"/><path class="cls-1" d="M91.68,136.37l-.93-1.7.13,1.93c.11,1.61.23,3.23.35,4.84l0,.28.26.09a17,17,0,0,1,3,1.4l1.34.78-.75-1.35Q93.4,139.51,91.68,136.37Zm.37,4.73c-.06-.88-.12-1.75-.19-2.63.62,1.11,1.23,2.22,1.84,3.33A14.83,14.83,0,0,0,92.05,141.1Z"/><path class="cls-1" d="M89.31,124.84v-.12l-.08-.1,0-.07-.08-.16-.16,0A17.13,17.13,0,0,1,86,123l-1.3-.73.72,1.31q1.81,3.29,3.62,6.57l1,1.77-.17-2C89.65,128.35,89.49,126.69,89.31,124.84Zm-2.52-.44a17.61,17.61,0,0,0,1.69.69c.1,1,.19,2,.28,2.9C88.1,126.79,87.44,125.6,86.79,124.4Z"/><path class="cls-1" d="M96.23,139.13l.06-.25-.2-.18-2.83-2.45-1.81-1.57,1.16,2.09c.84,1.54,1.69,3.07,2.53,4.6l.75,1.35,0-1.54A9.13,9.13,0,0,1,96.23,139.13Zm-1,.64c-.25-.44-.49-.88-.73-1.32l.84.73C95.3,139.37,95.26,139.57,95.23,139.77Z"/><path class="cls-1" d="M87,143.79l2.13-7.38.54-1.85L88.4,136c-1.13,1.29-2.25,2.59-3.37,3.88l-.18.21.12.25a17.14,17.14,0,0,1,1.2,3.42l.37,1.58Zm-1.13-3.55c.63-.74,1.27-1.47,1.91-2.21-.4,1.36-.79,2.73-1.18,4.09C86.38,141.48,86.13,140.85,85.86,140.24Z"/><path class="cls-1" d="M90.16,135.06l-.67,2.29c-.47,1.62-.93,3.24-1.4,4.85l-.4,1.38,1.09-.94a10,10,0,0,1,1.59-1.12l.24-.13,0-.27c-.09-1.23-.18-2.45-.26-3.68Zm-.9,6.14.39-1.32c0,.34,0,.69.07,1Z"/><path class="cls-1" d="M84.44,139.25l.27.08.18-.21,2.54-2.93L89,134.4l-2.08,1.14-4.64,2.55-1.25.68,1.42.11A9.52,9.52,0,0,1,84.44,139.25Zm.79-1.83-.81.94-.63-.15Z"/><path class="cls-1" d="M93.64,132.77l4.48-.31.23,0,.11-.2a.41.41,0,0,1,.17-.15l.15-.08,0-.17a17,17,0,0,1,1.1-2.57l.67-1.26-1.25.69L93.41,132l-1.69.93Zm5-2.68c-.19.44-.36.89-.52,1.34l-.21.19-2.35.17Z"/><path class="cls-1" d="M99.3,128l1.55-.86-1.77.06a10.76,10.76,0,0,1-2.57-.21l-.24-.06-.17.19q-1.39,1.64-2.81,3.25l-1.57,1.8,2.09-1.15Zm-2.72-.13c.31.06.63.1,1,.13l-2,1.13Z"/><path class="cls-1" d="M93,123.1l.48-1.68-1.2,1.27a10.21,10.21,0,0,1-2.14,1.74l-.24.14,0,.26c.15,1.53.29,3,.42,4.47l.2,2.26.63-2.18C91.78,127.29,92.39,125.19,93,123.1ZM90.79,125a8.82,8.82,0,0,0,1-.68c-.26.88-.51,1.77-.77,2.65C90.92,126.33,90.86,125.68,90.79,125Z"/><path class="cls-1" d="M100.33,135a9.3,9.3,0,0,1-1.46-1.8l-.14-.21h-.26l-4,.29-2.39.17,2.3.66,5.5,1.58,1.61.47Zm-3.39-1,1.35-.1a6.25,6.25,0,0,0,.44.61Z"/><path class="cls-1" d="M96.61,138.34l.13,0,.07,0,.17.05.15-.08a17.44,17.44,0,0,1,2.87-1.12l1.41-.41-1.41-.41-6.55-1.88L91.6,134l1.45,1.26,3.46,3Zm1.84-1.49a15.78,15.78,0,0,0-1.52.65l-1.87-1.62Z"/><path class="cls-1" d="M77.71,139.59l.27-.33a16.18,16.18,0,0,0,2.54-4.34l.25-.63-.68.05c-2.91.21-6,.46-9.15.73l-2.26.19,2.18.64a17.09,17.09,0,0,1,6.52,3.41Zm1.76-4.35a15.64,15.64,0,0,1-1.88,3.14A17.14,17.14,0,0,0,73,135.74Q76.35,135.47,79.47,135.24Z"/><path class="cls-1" d="M84.69,141.22l-.27-.62-.44.52c-1.86,2.15-3.81,4.43-5.79,6.78l-1.38,1.62,1.9-1a16.72,16.72,0,0,1,6.76-2H86l0-.47A16.52,16.52,0,0,0,84.69,141.22ZM80.07,147c1.4-1.64,2.77-3.25,4.1-4.79a15.35,15.35,0,0,1,.88,3.58A17.17,17.17,0,0,0,80.07,147Z"/></svg>