<svg id="layer1" xmlns="http://www.w3.org/2000/svg" viewBox="0 0 411.76 356.82"><defs><style>.cls-1{fill:#c61717;}.cls-2{fill:#ffcb80;}.cls-3{fill:#492d0c;}</style></defs><path class="cls-1" d="M45.78,152.52c.27,18,13.64,34.64,26.44,46,10.59,9.42,23.9,18.61,38.24,21.59,9.22,4.48,19,7.15,29,5.32,5.07-.94,7.85-4.64,6.74-9.81.26,1.2.08-.06,0-.83.05-.41.13-1.18.2-1.42a1.94,1.94,0,0,0,.06-.22c.08-.11.2-.3.38-.6.09-.15.15-.25.19-.33l.08-.09a8.68,8.68,0,0,1,2.46-2.4,38.69,38.69,0,0,1,4.56-2.8c7.22-3.74,17-6.37,25.54-8.64,10.46-2.79,22.65-5,33.55-9.33a6.9,6.9,0,0,0,.21,4.23,28.13,28.13,0,0,0,5.2,9.51,3.35,3.35,0,0,0-.52.7,3.44,3.44,0,0,0,1.47,4.67c.72.32,1.49.46,2.2.8a3.34,3.34,0,0,0,3.62,3l1.29-.06a3.35,3.35,0,0,0,3.34-3.34,2.39,2.39,0,0,0,1-1.09l.45-.05c.91,2.63,2.94,4.7,5.81,4.76a7.77,7.77,0,0,0-3.59,6.72l.06,1.29c.19,4.12,4.07,7.1,7.86,7.12,12.71,6.8,26.48,11.2,39.69,16.93a65.56,65.56,0,0,0,14,7.2c5.82,2.34,11.93,4.81,18.15,5.87a7.61,7.61,0,0,0,8.75-9.64c-.73-2.67-1.14-5.41-1.61-8.14-.09-.66-.2-1.32-.31-2a13,13,0,0,0,2.11-14,16.18,16.18,0,0,0-4.06-5.56,15,15,0,0,0-2.57-4.55,16.75,16.75,0,0,0-13.93-6.21,5.77,5.77,0,0,0,.52-3.25,26,26,0,0,0-.81-3.32c4.4-1.2,7.57-5.85,4.31-10.88-.66-1-1.35-2-2.05-3a3.52,3.52,0,0,0,.93-.43,3.82,3.82,0,0,0,1.74,2.32l.06,0,.33.16a2.2,2.2,0,0,0,.45.17l.22.06.27,0a2.72,2.72,0,0,0,.57,0l.57,0c.11,0,.27.77.46,1.11a3.6,3.6,0,0,0,4,1.45,7.15,7.15,0,0,0,3.84-2.91,3.77,3.77,0,0,0,1.22-.22c1.95-.68,3.33-3.41,1.86-5.23-1.79-2.19-5-2.89-7.62-3.79a2.47,2.47,0,0,0-.88-.15,3.86,3.86,0,0,0-1.76-1,8.87,8.87,0,0,0-1.83-.26l-2.73-1.2a101.94,101.94,0,0,0-11.22-4.27,3.11,3.11,0,0,0-2.21.08,163.68,163.68,0,0,0-16.83-14.92c-4.86-7-9.46-14.54-12.48-22.6-1.07-4.19-2.06-8.38-3.27-12.54a6.8,6.8,0,0,0-5.95-4.86,7.42,7.42,0,0,0-6.92-3.87l-1.29.06a7.56,7.56,0,0,0-7.09,7.84,3.05,3.05,0,0,0,0,.49,4.13,4.13,0,0,0-.2.55c.36-1.14-.22.24-.45.76-.09-.06-1.79,1.83-1.35,1.51a16.1,16.1,0,0,1-7.1,3.11c-4.45.84-8.29-.24-9.72-5s-7-6.16-11.11-4c-.28-1.15-.51-2.12-.57-2.54a8.48,8.48,0,0,0-1-3.13c2.08-3.43,3.7-7.2,5.94-9.81a7.57,7.57,0,0,0,1.54-2.79c3.53,1.83,7.18,3.27,11.35,3.07,5-.23,7.65-4.83,6.78-9.15a7.59,7.59,0,0,0-2.22-6.43,129,129,0,0,0-52-30.73c-10.76-4.69-22-8-34.08-7.6-5.59.17-9,6.91-5.91,11.54,1.43,2.14,2.91,4.24,4.38,6.35a7.77,7.77,0,0,0,1.19,2.45c2.38,3.29,4.56,6.72,6.93,10a10,10,0,0,0,1.37,1.5c.31.45.62.89.92,1.35.52.76,1,1.52,1.53,2.29a60.55,60.55,0,0,0-6.44,3.24A7.35,7.35,0,0,0,144,89c-9.46,3.39-17.15,9.38-24.64,15.93L118,106.09c-12.47,7.72-25.36,14.75-38.54,21.26a10.58,10.58,0,0,1-2.61.13c-4.7-4.56-9.29-9.25-14-13.77-.35-.64-.72-1.27-1-1.94-1.81-3.6-5.42-4.18-8.5-3a7.76,7.76,0,0,0-5.74,3.58c-7,11.08-5.19,25.26-1.44,37.66A8.18,8.18,0,0,0,45.78,152.52Zm100.37,4a63.74,63.74,0,0,1,2-7.67c0,.24,0,.47,0,.71a8.83,8.83,0,0,0,.09,3.51c0,.18,0,.35,0,.53C147.62,154.65,146.91,155.63,146.15,156.56ZM132.89,202c1.31-.22,2.63-.42,4-.62a24,24,0,0,0-2.25,2.9,8.48,8.48,0,0,0-1.25-1.71A6.36,6.36,0,0,1,132.89,202Z"/><path class="cls-1" d="M338.23,214c-.2-3.67,3-8.21,7.09-7.89,4.34.34,7.89,1.87,11.7,3.65,8.73,3.7,16.57,9.55,25.91,11.67,9.52,2.16,6.27,16.09-3.21,14.66a15.75,15.75,0,0,0-5.24,0,7.13,7.13,0,0,1-3.05,1.07h-.13c-2.34,3.11-8,6.17-11.64,2-.41-.48-.82-1.09-1.22-1.59l0,0c0-.06-.08-.15-.12-.21-4.32-5.41-8.11-11.64-13.67-15.77a6.51,6.51,0,0,1-1-.9A7.13,7.13,0,0,1,338.23,214Z"/><path class="cls-1" d="M235.36,107a3.1,3.1,0,0,1,2.15-4.26,47,47,0,0,1,7.65-2.38c3.34-1.13,6.67-2.31,10.05-3.28l2.26-1.78a7.61,7.61,0,0,1,2.59-3.2,64.63,64.63,0,0,1,9.63-6.39A16.28,16.28,0,0,1,285.1,82c8.15,2.12,14.45,8.83,20.45,14.34a7.51,7.51,0,0,1,2.18,3.35,15.4,15.4,0,0,1,4.57,2.8c4.81,4.39,1.77,12.65-4.69,13a54.77,54.77,0,0,1-9.58.19,8.81,8.81,0,0,1-1.65-.4c-.14.31-.28.61-.41.92-1.46,3.28-5.05,4.14-8.24,3.83-4.48-.43-6.61-5-8.27-8.53a38,38,0,0,1-3-10.12l-.45.47a7,7,0,0,1-7,2.16c-.31.25-.6.48-.85.66a6.31,6.31,0,0,1-7.23.58c-5.32,2.52-10.55,5.24-15.9,7.72-2.65,1.22-4.69-1.47-4.43-3.86l-.91.22a3.31,3.31,0,0,1-1,.12A3.36,3.36,0,0,1,235.36,107Z"/><path class="cls-1" d="M220,281.74c.44,2.27,3.11,4.2,5.33,2.47s4.85-1.93,6.43-4.43a2.89,2.89,0,0,0,.41-1c3.58-1,7.1-2.14,10.64-3.26.49-.05,1-.11,1.46-.15a4,4,0,0,0,1.25.53c1.94.44,4.22-.72,6.25-1.27.67-.11,1.33-.24,2-.4,2-.49,2.63-2.5,2.2-4.22a51.31,51.31,0,0,0,22,5.64,3.16,3.16,0,0,0,2.55,2.51c1.75.36,3.49.78,5.26,1.2a2.83,2.83,0,0,0,1.79,3.29c5.76,2.37,11,2.55,17.11,2.27a3.22,3.22,0,0,0,3-3.64l-.18-3.87a3.23,3.23,0,0,0-3.28-3.35,11.47,11.47,0,0,1-2.79-.14,3.32,3.32,0,0,0-3.5-3.45c-1.49.05-2.94,0-4.41,0A2.92,2.92,0,0,0,291,268.3c-2.25-.32-4.46-.53-6.68-.65A37.21,37.21,0,0,0,277,265a3.38,3.38,0,0,0-1.75-1.14c-3.94-1.11-7.87-2.16-11.83-3.06a2.76,2.76,0,0,0-2.37-2.67c-2.44-2.49-6.76-2.86-10.08-4-2.43-.87-4.86-1.76-7.29-2.62-2.21-1.35-4.35-2.82-6.45-4.33-3.26-2.35-7.43,1.59-5.54,4.32a3.39,3.39,0,0,0,1,3.43c.48.45,1,.89,1.46,1.32l.12.11c1.35,1.19,2.71,2.35,4.12,3.45a3.58,3.58,0,0,0-.29.26c-4.41,4.75-9.16,9.15-13.68,13.79-1.1.51-2.2,1.07-3.46,1.62A3.81,3.81,0,0,0,220,281.74Zm29.68-15.51c-.68,0-1.35.14-2,.24.33-.32.64-.64,1-1Z"/><path class="cls-2" d="M304.62,138.26a81.83,81.83,0,0,0,16.93-.18l1.59-.55a3.28,3.28,0,0,1,2.12,0,59.38,59.38,0,0,0,6.87-1.7c3.64-1.15,5.57,3,3.67,5.68-.23.34-.47.66-.71,1a3.92,3.92,0,0,1,1.72,2,86.49,86.49,0,0,0,10.38-1.26,3.12,3.12,0,0,1,2.44-.48,3.74,3.74,0,0,1,4.19,4.18,3.29,3.29,0,0,1-2.32,3.82c-.85.19-1.69.35-2.54.51a40.63,40.63,0,0,1-6.32,3.78c-1.79.8-3.8-.61-4.41-2.25-.06-.15-.11-.31-.17-.47a84.38,84.38,0,0,1-8.83-.33l-.14,0c-1,.94-2,1.88-3,2.87a3.72,3.72,0,0,1-4.32.61l-.23.15a3.29,3.29,0,0,1-3.67,0,23,23,0,0,1-2.31.68,4,4,0,0,1-3.8-1.14c-2.09-.11-4.18-1.76-3.34-4.13.09-.25.16-.49.23-.73-.51.29-1.13.58-1.65.87-2.27,1.27-5.38,0-5.51-2.77l-.3-6.45C301.1,140.21,302.72,138.1,304.62,138.26Z"/><path class="cls-3" d="M296.35,301.65c6.76,14,20.61,19.17,35.1,21.14a2.66,2.66,0,0,0,1.63.74,46.16,46.16,0,0,0,7.23.12c4,.25,8,.35,11.82.42a3,3,0,0,0,3.2-3.22,13,13,0,0,0,7-.15,14.05,14.05,0,0,0,13.52-4.84c4.93-6,1.53-15.12-4-19.43a21.55,21.55,0,0,0-4-2.43,9.56,9.56,0,0,0-5.48-3.21,3.26,3.26,0,0,0-2.8-1.23,22.89,22.89,0,0,0-2.41.34,3.25,3.25,0,0,0-2.38,0c-1.24.44-2.44.93-3.63,1.45l-.18,0c-8.29,1.87-15.06,7.1-22.72,10.46a3.41,3.41,0,0,0-3.09-1.63,45.2,45.2,0,0,0-4.49.59c-1.75-.12-3.52-.13-5.28-.09a97.46,97.46,0,0,1-7-8.33,3.51,3.51,0,0,0-6.32,1.3,3.58,3.58,0,0,0-3.91,2.83A3.88,3.88,0,0,0,296.35,301.65Zm63.88,8a9.46,9.46,0,0,0,.06-1.07c.51-.38,1-.78,1.48-1.2s1.11-.73,1.65-1.13a3.54,3.54,0,0,0,1.22-1.64,4.69,4.69,0,0,1-1.9,4A8.08,8.08,0,0,1,360.23,309.66Z"/><path class="cls-3" d="M183.79,310.26a23.28,23.28,0,0,1,4-13.4l.09-.22c1.73-4.16,5.79-7.1,9.47-9.43a3.33,3.33,0,0,1,2.18-.49c.56-.35,1.12-.67,1.63-1a3.52,3.52,0,0,1,5.22,2,3.55,3.55,0,0,1,2.8,4.16,34.46,34.46,0,0,1-2.64,8.75q2,1.43,4.15,2.73a3.89,3.89,0,0,1,.81.68c2.83-1,5.72-1.86,8.67-2.62a16.75,16.75,0,0,1,3.17-1.58,2.86,2.86,0,0,1,2.76.1c1.6-.46,3.19-.94,4.78-1.42l3.73-1.15c.28-.13.56-.26.84-.37,2.94-4.4,6.86-8.13,12.28-8.72a9.39,9.39,0,0,1,4.91.8,7.42,7.42,0,0,1,4.84,2.84,3.37,3.37,0,0,1,1.32-.31c5.06-.24,7.94,5.83,8.4,10.34.41,3.92-1.94,7.21-4.84,9.53-5.78,4.63-14.4,5.93-22.2,6.34-15.65,2.16-31.63,1.08-47.35.66a3.53,3.53,0,0,1-3.6-3.82,3.16,3.16,0,0,1-1.68-.84c-.12-.13-.21-.25-.32-.38A3.18,3.18,0,0,1,183.79,310.26Z"/><path class="cls-3" d="M321.84,115c3.29,1.23,6.58,2.36,9.9,3.52,3.77,1.32,4.48,4.37,4.72,8,.11,1.59.49,3.11.48,4.73,0,5.2-7,4.38-10.8,3.5-2.1-.5-4.8-1-6.9-.07a13.29,13.29,0,0,0-2.39,1.32c-3.81,2.74-6.74,1.72-10.64,1a10,10,0,0,0-5,.65c-4.43,1.49-17.09,8.67-18.8,1.36-.09-.37-2,.11-1.93.52,1.45,6.21,10.41,2.55,14.24,1.16,1.87-.67,3.7-1.42,5.56-2.12,3.52-1.31,6.57-.2,10,.49,2.76.54,5.1-.92,7.23-2.45,4.75-3.43,11,.82,16.26-.61,2.25-.61,4.66-1.63,4.94-4.3.34-3.16.29-9.8-2.37-12.1-3.37-2.92-8.66-3.66-12.74-5.19-.52-.2-1.94.6-1.82.64Z"/><path class="cls-3" d="M325.58,115.19c-3.25-2.75-8.31-5.9-12.77-4.14a9.07,9.07,0,0,0-3.95,3.36c-3.45,4.45-10.17,3.28-15,4-1.1.16-1.57,1.13-2.19,2-2.59,3.45-6.49,3.4-9.71,5.5-3.75,2.46-8.77,3.81-5.46,9.09.36.57,2.18-.13,1.94-.52-3.52-5.59,4.27-8.16,8.61-9.35a11.5,11.5,0,0,0,3.84-1.86c1.33-1,2.35-3.88,4.06-4a40.25,40.25,0,0,0,11.78-2,8.92,8.92,0,0,0,3.9-2.86c4.24-4.77,9.51-1.53,13.13,1.54.47.39,2.24-.35,1.81-.71Z"/><path class="cls-3" d="M315.77,107.52c1.89-2.1-9.79-12.51-11.2-13.92-6.17-6.17-12.24-13.11-21.37-14.26-3.22-.41-6.26-.64-8.14,2-3,4.21-8,7.1-12.34,9.6-9.83,5.61-22,10.79-33.47,11.52-.66,0-2.06,1.12-.76,1,8-.51,15.94-3.31,23.37-6.29,8.2-3.29,16.74-7.46,23.11-13.7,1.62-1.59,1.92-3.09,4.48-3.25a19,19,0,0,1,9.73,2.23c4.15,2.07,7.32,5.73,10.61,8.89,1.5,1.45,15.61,14.53,14.19,16.1-.54.59,1.4.44,1.79,0Z"/><path class="cls-3" d="M281.6,121.1c-3.82-6.37-8.34-21-.51-26.09l-1.7.22a21,21,0,0,1-2.33,10.39c-.17.32,1.63.08,1.9-.34,2.77-4.12,5.37-8.8,9.62-11.56l-1.62,0c-3.51,4.11-5.91,8.76-10.63,11.71-.82.51,1.13.29,1.48.07,4.87-3,7.26-7.67,10.9-11.92.46-.54-1.39-.11-1.62,0-4.42,2.88-7.15,7.68-10,12l1.9-.34a21,21,0,0,0,2.36-10.57c0-.44-1.55.13-1.71.23-8.25,5.38-4,19.92.06,26.68.29.48,2.09-.25,1.93-.52Z"/><path class="cls-3" d="M277.6,103.2c-14.58-.06-28.14,11.64-42.89,6.73-.45-.15-2.19.58-1.58.78,15.07,5,28.5-6.74,43.23-6.68.43,0,2.21-.83,1.24-.83Z"/><path class="cls-3" d="M226.46,104.64c4.4,1,8.08,4.52,10.88,7.88,3.36,4,2.85,7.52-1.1,10.69-5.61,4.49-17.26,6.4-18.79-2.91-.08-.46-.82-.39-1.12-.33-6.51,1.34-9.42-8.25-2.31-9,.36,0,1.47-.5,1-1-5.73-6.56,8.8-7,12.77-7.14L227,102c-.27.16-.54.32-.82.47-1,.14-1.53,1.45-.21,1.27,1.71-.24,1.95-.19,2.86-1.59.34-.54-.46-.72-.81-.71-4.4.21-21.82,1.13-14.76,9.22.34-.34.67-.69,1-1-9.65,1.07-6.86,13.38,2.41,11.48l-1.12-.32c1.74,10.56,14.78,7.85,21.26,3.64,3.44-2.22,6.05-5.69,4.27-9.76-2.14-4.91-8.21-10.07-13.45-11.26-.73-.16-2.29.94-1.14,1.2Z"/><path class="cls-3" d="M335.11,137.9a19.46,19.46,0,0,0,2.23,7.44c.1.2.37.19.56.18,2.12-.1,2.4-.89,4.17-2.21,4.53-3.37,10.73-2.28,12.8,3,2.21,5.66-7.62,9.74-11.51,6.69-.45-.35-2.18.4-1.81.69,4.64,3.65,15.5-.46,15.5-6.65,0-5.22-6.19-7-10.28-6.44a15.62,15.62,0,0,0-6.2,2.54c-1.08.69-1.2,1.84-1.74.81a17.63,17.63,0,0,1-1.79-6.6c0-.45-2-.07-1.93.52Z"/><path class="cls-3" d="M329.36,146.87l-4.7.22.51.54a9.23,9.23,0,0,1,2.44-1.75h-1.56c.08,1.1.54,1.19,1.57,1.17l-.52-.55a3.88,3.88,0,0,1-3.34,1.58l.58.41c.88-3.26,3.44-1.39,4.73.19l1.28-.9-3.77.17-.76,1.07,4.71-.22c.69,0,2.06-1.13.76-1.07-4,.18-8.54.62-11.85-2.09-.25.28-.51.55-.77.83,3.8-.9,7.93,1.43,11.81,1.39l.76-1.07c-4.54.26-9,1.1-12.78-2.05-.51-.43-2.31.32-1.8.75,4.1,3.41,8.86,2.65,13.82,2.37.66,0,2.09-1.08.76-1.07-4.37.05-8.45-2.29-12.82-1.25-.2.05-1.19.5-.77.84,3.61,3,8.48,2.62,12.88,2.42l.76-1.07-4.71.22c-.69,0-2.06,1.13-.76,1.07l3.77-.18c.29,0,1.74-.33,1.27-.9-2.43-3-7.26-3.58-8.45.8-.08.31.37.42.59.41,2.7-.14,4.05-.62,5.89-2.62.32-.35-.27-.55-.51-.55-.41,0-.54-.18-.4-.62,0-.58-1.34-.14-1.56,0a11.22,11.22,0,0,0-3,2.28c-.32.34.27.55.52.54l4.7-.22c.69,0,2.06-1.12.76-1.06Z"/><path class="cls-3" d="M338.1,152.17l-6.58.3c-.42,0-1.19.16-1.36.63a10.72,10.72,0,0,1-5.68,6.42c-.18.08-.69.29-.6.59,1.45,4.81,5,8.23,8.16,12,.36.43,1.88,0,1.86-.62a57.61,57.61,0,0,1,1.31-12.2l-1.11.61c2.83-.31,7.59-2,5.6-5.65-.32-.59-2.17.08-1.93.52,1.27,2.31.13,3.81-3.37,4.2-.3,0-1,.22-1.11.6A58.48,58.48,0,0,0,332,172l1.87-.62c-.94-1.11-9.55-10.76-7.6-11.68a12,12,0,0,0,5.85-6.87l-1.36.63,6.59-.31c.63,0,2.08-1,.78-1Z"/><path class="cls-3" d="M322.12,159.31c-10.56.95-23.67-8.61-22.7-20,.08-1-1.89-.65-2,.17-1,12.38,13.08,22.2,24.46,21.18,1.06-.1,1.52-1.45.2-1.34Z"/><path class="cls-3" d="M286.35,142.21c3.48,3.9,1.61,9.15,2.46,13.87a12.43,12.43,0,0,0,5.38,8.42c2.88,1.94,6.69,2.47,10,3.22a24,24,0,0,1,11.93,6.06c5.67,5.34,11,12.07,18.21,15.44,2.7,1.27,5.86,2.28,8.87,1.54,1.47-.36,2.36-1.06,3.77-.27s2.76,1.69,4.1,2.59c.67.46,2.39-.48,1.49-1.08-1.67-1.13-4.18-3.42-6.22-3.63-1.24-.13-3.08,1.06-4.22,1.22-2.59.35-5.29-.9-7.5-2.08-7.25-3.87-12.31-10.8-18.4-16.11-5.67-4.94-13.18-4.43-19.68-7.51-9.68-4.59-2.64-16-8.42-22.51-.56-.63-2.39.13-1.77.83Z"/><path class="cls-3" d="M348.66,162c4,2.17,5.89,6.81,9.84,9s8.1,2.9,12.07,4.63c5.12,2.22,5.95,6.46,5.82,11.45-.08,3.24,1.48,7,4.46,8.63s6.2,2.54,8.75,4.78a4.27,4.27,0,0,1,.74,5.74c-1.46,2.17-5.4.65-7.18.06-5.34-1.79-10.69-6.23-16.45-6.36a1.55,1.55,0,0,0-1.35.63c-1.32,2.71-3.37,5.92-6.81,3.48a18.09,18.09,0,0,1-3.47-3.68c-1.81-2.28-3.28-4.81-5.14-7.05-.38-.45-2.23.22-1.81.72,3.32,4,5.79,10,10.92,12,4,1.54,6.82-2.86,8.23-5.75l-1.35.62c3.69.09,7.63,2.74,10.88,4.25s6.68,3,10.33,3.13c6.16.24,7.5-6.26,2.85-9.64-2.7-2-6.64-2.41-8.92-4.88-4.31-4.69-.61-10.55-4.12-15.12-3.29-4.27-8.56-5.17-13.39-6.87-5.82-2-8.14-7.81-13.35-10.6-.48-.27-2.28.47-1.55.86Z"/><path class="cls-3" d="M328,188.2c2.21,4.29,2.31,9.31,2.53,14,0,.38,2,.05,1.94-.52-.22-4.72-.33-9.74-2.54-14-.26-.5-2.11.18-1.93.52Z"/><path class="cls-3" d="M289.62,163.86l-4.7.22a1.9,1.9,0,0,0-1.29.49c-.29.35.25.45.49.44l4.71-.21a1.84,1.84,0,0,0,1.28-.5c.29-.34-.25-.45-.49-.44Z"/><path class="cls-3" d="M328,196.92c.61,0,2.09-.93.79-.93-.61,0-2.09.93-.79.93Z"/><path class="cls-3" d="M329.32,196.08c-2.37-2-5.66-3.21-8.59-4.1-2-.6-4.72-1.26-6.46.24-.84.72,1.09.67,1.54.28,1.12-1,5.1.94,6.23,1.39a19.87,19.87,0,0,1,5.49,2.93c.5.43,2.29-.32,1.79-.74Z"/><path class="cls-3" d="M328.42,217.28c-1.12,3.93-9.57-2.7-10.6-3.76a29.79,29.79,0,0,1-5.08-8,44.07,44.07,0,0,1-4.39-15.93l-1.35.79c2.17-.09,3.19.25,3.31,2.37,0,.6,2,.21,1.93-.51-.17-3.19-1.57-3.05-4.48-2.93-.43,0-1.39.2-1.35.8A42.51,42.51,0,0,0,316,214.27c2.13,2.45,12.64,8.69,14.33,2.76.19-.67-1.75-.39-1.93.25Z"/><path class="cls-3" d="M328.47,196.78c1.75,1.86,2.38,3.48,1.81,6-.33,1.46-.61,1-.55,2.3,0,.22.44.27.59.26,1.86-.08,2.66-.25,3.48,1.5a10,10,0,0,1,.71,2.63c.41,2.4,0,6.81-3.63,6.19-.57-.1-2.27.81-1.2,1,4.75.81,7.05-2.53,6.84-7-.06-1.24-.73-5.18-2.4-5.47,0,0-2.46.18-2.48-.1,0-.78.84-2,.84-2.91a6.88,6.88,0,0,0-2.21-5.15c-.44-.46-2.28.24-1.8.74Z"/><path class="cls-3" d="M335,203.43a115.88,115.88,0,0,1,31,9.65c4.31,2,8.13,4.92,12.41,6.91,3.87,1.8,7.78,4.07,10.56,7.36,1.82,2.16,2.33,5.86-1.33,7.18-2.09.76-4.8.43-7,.38a41.69,41.69,0,0,0-9.14.36c-1.76.37-3.62,2.08-3,4.07a15.07,15.07,0,0,0,2.09,3.94q1.5,4.2-3.62,2.58a12.79,12.79,0,0,1-2.5-4.15c-.37-.85-1.73-.41-1.94.33-1.2,4.05-4.73-.58-6.14-2.23-2.46-2.89-4.6-6.05-6.82-9.12-2-2.83-6.14-10.42-10.5-10-1.08.11-1.49,1.54-.18,1.4,2.65-.27,6,5.52,7.34,7.27,2.8,3.76,5.41,7.65,8.39,11.27,2.74,3.32,8,7.66,9.86,1.23l-1.94.34c1.07,2.47,3.18,6.76,6.53,6.5,2.27-.17,5-3.22,3.72-5.5-.49-.9-1.05-1.73-1.61-2.59-3.2-4.92,4.66-4.36,6-4.31,2.12.06,4.26,0,6.39,0,3.39,0,6.95-.61,8.47-4,3.5-7.73-13.14-14-17.64-16.74-11.7-7.1-25.27-11.46-38.73-13.62-.94-.16-2,1.19-.67,1.39Z"/><path class="cls-3" d="M309.07,206.49c-12.59-13.26-37.38-5.68-52.44-1.76-26.48,6.9-52.54,16.19-79.38,21.54-28.54,5.68-57.12,2.63-82.73-11.45-21.13-11.62-39.07-30-48.13-52.53-8.33-20.69-6.49-43,4.6-62.29s30.2-33.4,50.31-42.2c23.77-10.41,49.76-11.78,74.25-3.11,23.84,8.44,44,24.78,62.45,41.59.38.34,2.12-.39,1.82-.66C220.44,78,199.43,61.47,174.27,53c-22.2-7.51-45.7-5.92-67.53,2-40.93,14.8-77.32,53.78-65,99.87C54.32,201.61,105.3,231,151.65,230c28.41-.64,55.55-11,82.56-18.7,10.21-2.9,20.57-5.57,30.9-8,11.23-2.62,24.31-5.16,35.41-.8a18.81,18.81,0,0,1,6.73,4.69c.34.36,2.12-.34,1.82-.66Z"/><path class="cls-3" d="M253.16,115.49c5.21,3.07,7.51,10.65,9.68,15.91,2.5,6,4.93,11.86,8.47,17.36,5,7.78,11.26,14.57,17.27,21.58,5,5.86,12.78,11.25,15,19,.17.6,2.1.07,1.93-.52-2-6.91-8.52-12.32-13.31-17.31-7.27-7.57-14.42-15.88-19.9-24.85-3.51-5.76-5.87-11.94-8.48-18.14-2-4.8-4.34-11.11-9.07-13.91-.49-.28-2.28.45-1.56.88Z"/><path class="cls-3" d="M132.28,54c6.39,11.59,11.24,24.33,20.5,34.05l.77-.83a71.71,71.71,0,0,0-13.13,6.08,183.67,183.67,0,0,1-19.62,9.88c-9.09,3.82-17.58,7.91-25.53,13.74a98.93,98.93,0,0,1-11.11,7.36c-5.66,3.07-9.46,1.52-13.36-3.08-4.69-5.54-7.64-15-14.61-18.11-.56-.25-2.33.56-1.55.92,3.68,1.66,6,5.57,8.11,8.81,2.63,4,5.06,8.17,8.5,11.55,4.64,4.58,10,2.65,15.11-.11a92.91,92.91,0,0,0,10.45-7.06,93,93,0,0,1,16.08-9.5c6.28-2.93,13.26-4.94,19.28-8.35,7.06-4,13.86-8.67,21.63-11.21.23-.07,1.15-.43.77-.83-9.19-9.66-14-22.31-20.36-33.82-.35-.64-2.21,0-1.93.51Z"/><path class="cls-3" d="M69.39,109c1.59-.07,1,0,.06,1.06a54.57,54.57,0,0,0-3.26,4.45c-1.89,2.79-3.56,5.73-5.17,8.7l1.91-.31c1.74-5.56,5.85-10.38,5.86-16.4,0-.57-1.67.1-1.85.29-4.25,4.57-9.75,9-9.74,15.76,0,.43,1.93.11,1.93-.52,0-6.58,5.47-10.89,9.57-15.31l-1.85.29c0,5.92-4.12,10.73-5.83,16.2-.18.57,1.68.12,1.91-.31a77.45,77.45,0,0,1,9.62-14.47c.3-.34-.25-.43-.48-.42l-1.88.09c-.59,0-2.09,1-.8.9Z"/><path class="cls-3" d="M129.33,112.06c-5.14-4.57-11-8.34-15.7-13.41-.32-.34-2,.4-1.88.58a90,90,0,0,1,12.34,22l1.87-.58c-4.13-4.41-11.06-7.31-12.83-13.48-.11-.41-2,.12-1.93.52,1.8,6.25,8.76,9.15,12.94,13.61.26.27,2-.24,1.88-.58a89.51,89.51,0,0,0-12.34-22.06l-1.88.58c4.69,5.08,10.56,8.85,15.71,13.42.37.33,2.09-.42,1.82-.65Z"/><path class="cls-3" d="M152.63,68.43c1.43-.12,2.42-.3,2.93-1.69.29-.79-1.52-.21-1.74,0-3.86,3-8.59,4.49-12.69,7.07l1.5.32c2.61-3.64,6-6.71,8-10.74.32-.64-.67-.62-1-.52-6.16,1.62-10.7,6.24-16.07,9.4-1.13.67.57,1,1.2.6,5-3,9.37-7.49,15.13-9l-1-.52c-2,4-5.38,7.1-8,10.74-.55.76,1.23.5,1.5.32,4.25-2.67,9-4.27,13-7.33l-1.74,0-.74.36c-1,.08-1.6,1.2-.26,1.09Z"/><path class="cls-3" d="M217.93,209.56c2.91,1.28,2.18-2.19,1.68-3.67-1.74-5-4.41-9.74-6.42-14.68-.16-.39-.77-.34-1.1-.24-9.58,2.9-19.05,6.16-28.77,8.62-8.63,2.18-17.22,2.94-26,3.62-4.47.34-9.23,1.33-11.88,5.26-1.73,2.56-1.31,6.25-1.24,9.17.12,4.34.76,8.65,1,13,0,.65,2,.24,1.93-.52-.39-6.6-2.94-15.41.09-21.57,2.69-5.46,12.94-4.32,18-4.74,16.26-1.35,31.67-7.13,47.16-11.82l-1.1-.24c1.19,2.93,2.62,5.76,3.92,8.65.78,1.74,1.53,3.5,2.22,5.28.26.68.49,1.37.7,2.06.48,1.55-.2.19,1.37.88-.6-.26-2.36.59-1.54,1Z"/><path class="cls-3" d="M177.5,194.35c3.37,3.43,3.31,9.4,4.35,13.82l1.87-.62c-3.88-2.89-4.91-7.75-7.09-11.82-.31-.59-2-.16-1.93.52a46.39,46.39,0,0,0,1.42,10.3c.18.64,2.11.11,1.93-.51a46.56,46.56,0,0,1-1.42-10.31l-1.93.52c2.21,4.14,3.27,9.09,7.22,12,.39.3,2,.08,1.87-.62-1.08-4.55-1-10.51-4.49-14-.45-.46-2.27.25-1.8.74Z"/><path class="cls-3" d="M230.51,203.28c-4.32-3-12.86-.15-17.12,1.65l.87,1.21c2.72-1.32,4.59-3.75,7.31-5.06a.69.69,0,0,0-.36-1.34c-4.65.4-8.54,2.22-12.57,4.47-1.15.64-.11,1.75.87,1.2,3.69-2,7.25-3.82,11.54-4.19l-.36-1.34c-2.72,1.31-4.59,3.74-7.3,5.05-1.21.58-.13,1.63.87,1.21,3.48-1.47,11.27-4.11,14.77-1.71.74.51,2.41-.51,1.48-1.15Z"/><path class="cls-3" d="M150.49,218.64c-.87.74-3.21.62-4.29.72-1.62.15-3.24.23-4.86.31-.73,0-2.05,1.18-.75,1.12l9.41-.44.5-1.11c-2.54.19-5,1.07-7.48,1.29-1,.09-1.6,1.21-.26,1.1,2.53-.22,4.94-1.1,7.48-1.29.7-.05,1.69-1.16.5-1.11l-9.4.44-.75,1.12c2.29-.11,4.59-.23,6.87-.49,1.48-.17,3.4-.31,4.59-1.33.85-.73-1.07-.75-1.56-.33Z"/><path class="cls-3" d="M333.35,220.53c-.41-1.84-1,.69-.9,1.3.13,1.41.35,2.81.56,4.21.43,2.9.93,5.79,1.36,8.69.81,5.5,2.54,13.93-1.26,18.73-.76.95,1.09,1.15,1.6.51,3.19-4,2.63-9.78,2.22-14.58-.57-6.66-2.27-13.18-2.69-19.85,0-.19-.25-.31-.4-.36-1-.35-1.5-.57-2.38,0a.66.66,0,0,0-.33.67,11.57,11.57,0,0,1,.29,1.16c.18.85,2.12.34,1.93-.51Z"/><path class="cls-3" d="M323.89,221.26c-2.18,6,.94,11.14.57,17.22-.35,5.74-2.48,11.3.06,16.82.3.67,2.19.06,1.93-.51-2.64-5.76-.33-12.12,0-18.13.34-5.61-2.73-10-.66-15.65.23-.64-1.7-.39-1.93.25Z"/><path class="cls-3" d="M331.87,257.15c-3.4-.35-3.91,2.52-6.91,3.15-6,1.28-14.09-3.82-19.86-5.39-14-3.81-27.75-8.3-40.84-14.57-6.63-3.18-12.76-7.11-19.12-10.77-5.53-3.17-11.58-6.74-18-7.59-3.39-.45-7.18.92-7.42,4.79-.51,8.24,4.7,15.27,11,19.9,7.7,5.65,17.28,8.65,26.24,11.59,9.79,3.21,19.16,7.49,28.95,10.61,7.32,2.34,14.88,3.89,22.35,5.65,4.68,1.11,9.65,3.1,14.54,2a17.83,17.83,0,0,0,10-6.41,36.33,36.33,0,0,0,4.41-7.23c.9-1.78-3.09-4.22-4-4.73-.54-.29-2.18.5-1.81.7,4.64,2.51,3.66,5.31,1.18,9.23a19.87,19.87,0,0,1-6.36,6.41c-4.08,2.49-8.67,1.11-12.9,0-4-1-8.05-1.91-12.07-2.85a160.44,160.44,0,0,1-20.3-5.92c-4.54-1.72-8.87-3.83-13.48-5.41-16.62-5.7-42.17-10.42-45.64-31.1-1.75-10.41,10.1-4.9,15.08-2.45,6.53,3.2,12.57,7.25,18.88,10.83,10.27,5.81,21.49,10,32.69,13.68,6.71,2.17,13.52,4,20.33,5.84,4.57,1.22,8.73,4.44,13.68,4.27a11.55,11.55,0,0,0,3.7-.58c1.55-.6,2.86-2.95,4.52-2.77.49.05,2.25-.8,1.22-.91Z"/><path class="cls-3" d="M233.4,214.47c-.33,0-.18-.17-.29.15a4.64,4.64,0,0,1-.39.77,23.12,23.12,0,0,1-1.34,2,37,37,0,0,1-2.65,3.44c-.46.52,1.43.3,1.77-.08a42.45,42.45,0,0,0,3.28-4.36c.3-.43,2.13-2.69.85-2.84-.48-.06-2.25.75-1.23.88Z"/><path class="cls-3" d="M225.06,244c1.48,1.95,1.77,4.47,3.13,6.46a37.41,37.41,0,0,0,6.87,7.35,92,92,0,0,0,15.87,11.12c13.2,7.06,28.88,8.18,41.14,17.22.5-.29,1-.58,1.49-.88l-1.62-.72c-.52-.41-2.3.35-1.8.75a5,5,0,0,0,2.23,1c.29.06,2.09-.45,1.5-.88-11-8.12-24.8-10.31-37.21-15.44-6.84-2.82-12.82-7.42-18.62-11.94a41.4,41.4,0,0,1-7.29-7.2c-1.77-2.28-2.16-5.28-3.89-7.57-.38-.5-2.25.15-1.8.74Z"/><path class="cls-3" d="M305.7,275.15a18.08,18.08,0,0,1,3.15,8.22c0,.61,2,.2,1.93-.52a18.42,18.42,0,0,0-3.28-8.45c-.36-.51-2.24.13-1.8.75Z"/><path class="cls-3" d="M311.87,284.21l-21.64,1a1.22,1.22,0,0,0-1,.59c-3.12,7,1.61,8.34,7.77,8.06,7-.32,17.57,2.44,22.4-4.28a.54.54,0,0,0-.06-.83c-1.77-1.47-1.12-1.12-3.09-1.84-.82-.29-2.27.87-1.12,1.29,6,2.17-3.65,4.27-5.61,4.36-2.74.13-5.5-.22-8.24-.27s-9.65,1.71-11.2-1.66c-2.6-5.65,7.88-4.39,10.55-4.51l11.07-.52c1.09-.05,1.5-1.45.18-1.39Z"/><path class="cls-3" d="M289.8,295.75c4.85,2.18,5.3,6.48,6.16,11.15.8,4.32,3.41,7.09,7.2,9.2,3.58,2,8.5,2.83,12.51,3.38,7.22,1,14.48,1.72,21.75,2.29,11.82.92,37.76,5.57,41.36-11.45,2.58-12.19-12.18-23.33-23.15-23-14,.41-28.84,22.43-41.48,8.49-.4-.44-2.24.25-1.81.72,8.66,9.54,19.21,3.15,28.23-2.28,7.18-4.32,13.74-7.6,22.05-4.26,6.35,2.56,11.78,7.74,13.84,14.34,1.87,6-.74,11.85-6,15-4.88,2.86-10.8,2.55-16.21,2.39-7.18-.22-14.35-.7-21.5-1.34-9.79-.87-23.1-.66-31.1-7.22-6.16-5-2.23-14.6-10.24-18.21-.51-.23-2.28.53-1.56.86Z"/><path class="cls-3" d="M236.27,262.31c.32.2-9.89,8-11,8.7a119.16,119.16,0,0,0-13.56,10.05c-.47.43,1.39.24,1.76-.09,5-4.5,10.66-8,16.15-11.78a60.49,60.49,0,0,0,5.73-4.32c.14-.12,3.24-1.65,3.36-2.68a.15.15,0,0,0,0-.19l-.59-.38c-.5-.31-2.16.47-1.82.69Z"/><path class="cls-3" d="M258.37,273c-10.77,2.7-23.7,5.57-32.26,13.12-.37.33,1.41.11,1.74-.18,8.12-7.17,20.41-9.85,30.66-12.42,1.13-.29,1-.81-.14-.52Z"/><path class="cls-3" d="M229.78,286.09c0,.63.06,1.26.08,1.89l1.88-.6c-3.07-4.09-5.64-2.67-10.19-3.77a9.28,9.28,0,0,0-1.8,0c-3.08,0-3.3-.92-4.68-3.08-.76-1.18-2.17-1.59-3.41-2.1-2.12-.87-12.31-2.71-10.2,2.83,1.47,3.84,23.84,14.58,24.81,9.41.1-.52-1.81-.18-1.91.32s-8.71-2.42-9.58-2.77c-3.8-1.5-8.66-3.55-11.13-7a3.46,3.46,0,0,1-.52-1.38c-.61-3.14,6-.95,7-.62,2.82,1,3.15,3.71,5.5,4.82,5,2.38,10.49-1.07,14.33,4.06.28.36,1.9-.12,1.88-.6l-.09-1.88c0-.4-2-.07-1.93.51Z"/><path class="cls-3" d="M198.9,283.13c-6.56,5.36-14.51,10.74-17.69,18.93-2.23,5.76,1.14,12.28,6.72,14.45,6.54,2.54,13.64,1.81,20.5,2,11.82.37,23.86.82,35.68.43,8.34-.27,18.29-1.08,23.82-8.17,4.68-6,.74-15.86-6.12-18.29-7.84-2.77-16,1-23.34,3.72-6.59,2.44-13.11,5.85-20.18,6.59-5.83.62-16.1-6.56-5.94-9.86,1.15-.38.85-1.58-.32-1.19-3.73,1.21-8.09,3.64-5.15,7.93,3.39,4.94,10.73,4.75,15.77,3.58,9.94-2.31,19-7.73,28.93-10.07,13.92-3.28,22.93,14.3,9.41,21.53-4.87,2.6-11.27,2.68-16.67,2.94-6.37.31-12.77,0-19.13-.27-8.32-.31-16.64-.07-25-.24-7.89-.16-16-1.78-17.68-10.68-1.69-9.27,11.66-17.73,17.6-22.59,1-.83-.57-1.33-1.25-.76Z"/></svg>