<svg id="layer1" xmlns="http://www.w3.org/2000/svg" viewBox="0 0 347.93 344.83"><defs><style>.cls-1{fill:#8ee2ed;}.cls-2{fill:#5b7889;}.cls-3{fill:#492d0c;}</style></defs><path class="cls-1" d="M103.8,83.53c-.63.14-.86.86-.11,1,2.22.41,4.44.79,6.67,1.11-.5.21-.74.84,0,1,3.42.56,6.78,1.33,10.14,2.1-.51.12-.91.68-.3,1,4.14,2,8.1,4.23,12.24,6.21a1,1,0,0,0,.7,0,26.32,26.32,0,0,1,3.21,8,.54.54,0,0,0-.15.42c2.56,26-8.79,51-7.19,77,.17,2.79.44,5.58.78,8.37a41.47,41.47,0,0,0,1.28,9c1.74,10.66,4,21.24,5.27,31.9a72,72,0,0,0,.87,11.63,87.81,87.81,0,0,1-1,16.13c-.18,1.06,4.24.3,4.4-.72.06-.38.11-.75.16-1.13.08.21.15.43.23.64.21.56,1.45.36,1.44-.24a38.93,38.93,0,0,0-1-7.15c1-16.22-2.41-32.14-5.18-48.16a207.17,207.17,0,0,1-.08-33.88c.59-3.73.87-7.49,1.47-11.21.12-.69.24-1.38.37-2.06.09-.5-.62-.55-1.1-.33.32-2.65.7-5.3,1.1-8,.06-.43-.37-.52-.79-.42.51-2.81,1.08-5.61,1.77-8.39a1,1,0,0,0,1.24-.51,61.75,61.75,0,0,0,.74-25.43,80.41,80.41,0,0,0-.37-8.19c0-.35-.82-.41-1.73-.29q-.87-2.79-2-5.55c-.19-.47-1-.41-1.34-.08A28.74,28.74,0,0,0,131,90.58c.4-.24.65-.8.08-.94,0,0-.11-.16-.16-.16h2.46c.7,0,1.39,1.33,2.07,2a.29.29,0,0,0,.08.07l.13.11c1.27,1.29,2.51,2.59,3.72,3.92a82.46,82.46,0,0,1,7.87,19.73c1,9.18,1.93,18.36,2.37,27.58a151.82,151.82,0,0,0-2.15,31.25c-.28,4.39-.35,8.81-.22,13.22-2.67,11.5.38,23.33,4.37,34.54.44,5.5,1,11,1.65,16.5,0,.12.21.16.46.14.06,1.17.11,2.33.17,3.5,0,.37-.07.75-.11,1.12-.27.08-.5.2-.51.34-1.06,9-3.54,17.85-5,26.83-.33-.54-.65-1.07-1-1.62-.81-1.47-3.94-.46-4.46.8a6.88,6.88,0,0,0-.47,3,6.86,6.86,0,0,0-.79.32c-1.23-.46-2.44-.94-3.64-1.48-1-.43-5.25.69-3.84,1.85s3.06,2,4.45,3.11c.64.52,2.06.33,3.11-.11l1.15.42,0,.45c0,.76,1.39.84,2.6.54.78.31,1.55.63,2.31,1a4.73,4.73,0,0,0,3.73-.92c.06.84.14,1.68.26,2.52,0,0,0,0,0,0-1.09.65-1.69,1.55.22,1.55a4.44,4.44,0,0,0,2.1-.74c1.16-.25,2.27-1,2.13-2-1.14-7.92.74-15.84,2.15-23.61a75.58,75.58,0,0,0,.86-23.53c-2.16-17-4.13-33.94-4.1-51.06,0-19.5,1.57-39.26-1.71-58.23.36.3,1.34.06,1.34-.4a33.89,33.89,0,0,0-5.86-18.31c1.25-.33,2.31-1.21,1.58-2.19-2.43-3.23-5.37-6.08-7.79-9.31a1.59,1.59,0,0,0-1-.56C139.85,90,138,88.06,136,86.23c-1.35-1.27-5.58.39-4.1,1.78l.49.47c-1.24,0-2.48-.09-3.71-.22-.37-.33-.76-.65-1.15-1a3.12,3.12,0,0,0,.39-.15l.21,0c1.3.24,5.3-1.53,2.74-2.21-2.89-.76-5.8-1.49-8.72-2.17l-1.28-.41c1.87-.1,3.74-.18,5.61-.22l.18,0a1.23,1.23,0,0,0,.28,0l.93,0c1.81.39,3.63.77,5.46,1.09.28,0,1.49-.41,1.32-.48-.55-.22-1.12-.44-1.68-.68h4.55c.65,0,4.63-1.47,2.66-2.14-1.34-.45-2.6-.91-3.86-1.3l1.43-.32c3.39-.13,6.78-.22,10.17-.23.22,0,1.52-.46,1.1-.52-1.46-.2-2.92-.43-4.37-.67l.71-.14c1-.19,2-1,1.82-1.54,2.66-.27,5.31-.6,8-1a39.76,39.76,0,0,0,4.51-.13l-.45.17c-.86.34-.24,1,.48.92,2.09-.34,4.14-.78,6.18-1.27.89-.08,1.77-.17,2.65-.28-1.27.51-2.52,1.06-3.75,1.67-.75.37-.29,1.16.48.92l1-.32a5,5,0,0,1-2.35,1.53.73.73,0,0,0-.19.07l-.37-.1c-.38-.1-1.69.5-1,.74,2.11.8,4.21,1.63,6.31,2.4-4-1-8-2.07-11.94-3.14-.38-.1-1.7.47-1,.74,1.8.73,3.58,1.51,5.35,2.31-1.42-.39-2.85-.72-4.31-1-.35-.06-1.69.32-1,.74a64,64,0,0,0,26.83,9.36c.23,0,1.63-.24,1.14-.67a36.28,36.28,0,0,0-4.37-3c-1.13-.72-3.74-3-4.92-2.57.42-.15.48-.33.38-.46,1.1.2,2.21.38,3.32.54.47.07,1.79-.6.9-.78a66.38,66.38,0,0,1-10.22-3.14c1.27.23,2.52.48,3.76.82.38.1,1.69-.49,1-.74-2.57-1-5.34-1.25-8-1.86.26-.14.52-.29.78-.46,1.84-1.17,1.13-1,3.44-.7.82.11,1.65.2,2.48.29,0,.29.26.55.67.5l1.71-.26c3.75.34,7.51.61,11.25,1.16.5.07,1.76-.66.9-.79-2.91-.42-5.84-.7-8.77-1a122,122,0,0,0,20.89-6.56c.2-.09.32.6.37-.4H201c.54,0,2.63-.52,3.07-1.22l2.39,2.26c-1-.45-1.92-.87-2.87-1.32-.33-.15-1.65.36-1.3.57,1.07.64,2.16,1.25,3.26,1.86-.29.23-.4.48-.21.69L207.68,75c.12.58.24,1.17.37,1.75-1.49-1.79-3-3.56-4.41-5.42-.23-.31-1.48,0-1.44.44a5.55,5.55,0,0,0,.93,2.67,25.39,25.39,0,0,0-6.56-1.13c-.23,0-1.46.37-.9.65,1.59.28,1.89.75.9,1.42-.47,0-1.6.74-.6.69s2.29,0,3.09-.85a.18.18,0,0,0,.06-.17,1.91,1.91,0,0,0-.61-.8A24.93,24.93,0,0,1,204.57,76a1.87,1.87,0,0,0,1-.13c1.16,1.39,2.33,2.77,3.4,4.22.22.29,1.56,0,1.44-.44-.22-.72-.41-1.45-.58-2.19A42.9,42.9,0,0,0,212,83c3.37,9.7,10.43,18.19,18.82,24.67,0,.28.1.55.14.83-.44,0-1,.28-1,.55.18,1.78.93,3.39,1.11,5.17,0,.11.16.16.34.17-1.32,19.1.53,38.42.14,57.59-2.81,12.13-6.13,24.2-8.26,36.34-.08.49,1.33.15,1.48-.2,3.15-7.66,6-15.46,8.45-23.38-.24,1.39-.47,2.78-.72,4.16a1.88,1.88,0,0,0-.71.88c-2.34,7.65-4.22,15.13-3.32,23.13.2,1.74,4.26.69,4.49-.74.65-4.25,1.37-8.49,2.11-12.73.25-1.29.48-2.58.67-3.87q.83-4.71,1.63-9.43v8.14c0,.89,4.46.23,4.46-1.11,0-12.54,0-25.09-.44-37.62.07-.81.13-1.63.18-2.45.2-3.25.25-6.49.19-9.71.3-3,1.1-6,1.23-9a124.06,124.06,0,0,0-5.55-41.24h0c0-.31-.69-.55-.87-.74a66.88,66.88,0,0,0-20.46-27.27c-.35-.28-1.86.25-1.53.51.76.6,1.41,1.22,2.13,1.84,0,0-.09.11-.06.16.47.86.93,1.7,1.41,2.55a56.34,56.34,0,0,0-7.23-3.88c-.55-.4-1.11-.8-1.67-1.18a1.35,1.35,0,0,0-.94.05l-.28-.11c-.41-.17-1.77.4-1.19.63l.9.39c-.49,0-1.2.29-1,.52.89,1.31,1.67,2.68,2.45,4a1.86,1.86,0,0,0-.34,0,45.71,45.71,0,0,0-5.12-4.46c-.33-.24-1.74.19-1.39.52l.35.32a32,32,0,0,0-5.67-2.06l.82-.29c.45,0,.91,0,1.37,0,.2,0,1.54-.43,1.1-.51l-.61-.11.64-.22a5.45,5.45,0,0,1,.62.35c1.27.83,5.33-.84,4.15-1.61l-.43-.26c.18-.09.28-.18.08-.22s-.47-.08-.71-.12a12.46,12.46,0,0,0-7.92-1c-1.51-.12-3-.21-4.52-.25,2-.7,4-1.38,6-2,.69-.21.82-1.15-.09-1l-.2,0h0c-3.71.56-7.38,1.36-11,2.22-2.65.47-5.29.61-7.92,1.61h0c.54-1,1.09-.53,1.63-.75.7-.28.41-1-.27-1a86,86,0,0,0-11.8,1l-3.19-.09.88-.34c.08,0,.54-.29.2-.32-1.49-.11-3-.19-4.48-.25l4-1.07c.76-.21.79-1-.09-1a123.39,123.39,0,0,0-21.05,2l-2.69.05c1.64-.29,3.28-.62,4.92-1,.45-.1,1-.77.28-1s-1.51-.42-2.26-.61l3-.8c.17,0,1.09-.44.44-.44q-5,0-10,0a44.92,44.92,0,0,0-13.35.44c-3.77.22-7.53.55-11.26,1.06,3.71-1,7.37-2.09,11-3.22,1-.32,0-.42-.5-.26-3.26,1-6.52,2-9.82,2.92-1.42.4-2.85.75-4.29,1.09l-.1,0q-2.82.48-5.62,1.09c-.6.14-1,.55-.09.41q2.78-.46,5.51-1.1a121.54,121.54,0,0,1,12.19-1.38,46.42,46.42,0,0,0-5.65,1.83c-.51.2-.58.92.08,1q4.11.18,8.24.31c-.48.14-1.26.46-.69.46,2.15,0,4.31-.16,6.47-.2.05.19.25.21.63.21h1.21c-1.12,1-1.76,1.76.2,1.78,1,0,2,.11,3.06.16,2.24.24,4.48.53,6.71.83-.82,0-1.64,0-2.46-.06s-4.61,1.48-2.65,2.14,4,1.23,6.07,1.73c-.92.47-1.56,1.07-.51,1.38l1.1.31a7.06,7.06,0,0,0-.67.35,30.28,30.28,0,0,0-5.89,2.5c-.23.13-.21.26.08.26,2.32,0,4.62-.13,6.92-.3-1.86.74-3.73,1.47-5.63,2.12-4.17.41-8.34.73-12.55.76-.27,0-1.69.51-1,.52a72.68,72.68,0,0,1,8.87.76c-.19.11-.35.28,0,.28l1.6,0,2.06.34q-3.41.75-6.8,1.54a3.51,3.51,0,0,0-.74.28l-6.63.26c-4.35-1.26-8.82-1.88-13.16-.83a73.7,73.7,0,0,0-10.95-1c-.24,0-1.51.46-1.1.51,1.28.17,2.57.36,3.84.57-1.28,0-2.57,0-3.85,0-.28,0-1.69.51-1,.52,2.7,0,5.39.19,8,.46-1.3.33-2.39,1.53-1.76,2.26-10-1-20.2.56-30.21.64-.86,0-1.13,1-.13,1,10.73,0,21.52-.37,32.2.36Zm30.58,84.29s0,.05,0,.08c-.28,1.23-.53,2.47-.74,3.7a.83.83,0,0,0-.26.19c0-.53,0-1.06.07-1.59a.54.54,0,0,0,.21-.33c.33-2.44.66-4.87,1-7.31C134.52,164.31,134.43,166.06,134.38,167.82Zm5.45-40.92c0,.9.06,1.8.07,2.71a.43.43,0,0,0,.13.29c-.09.75-.19,1.5-.31,2.25a1.24,1.24,0,0,0-.72.28Q139.45,129.67,139.83,126.9ZM150,273.08c-.14-.22-.28-.45-.43-.67a66.55,66.55,0,0,1,2.57-9.27Q151.09,268.11,150,273.08Zm4.14-25.29c0,.31,0,.61,0,.92q-.24,4.64-.85,9.22a.15.15,0,0,0-.08.08,30.37,30.37,0,0,0-1.92,3.71c1-4.63,2-9.25,2.75-13.92Zm-6.44-52.13a147.12,147.12,0,0,0,2.17,15.68A59.3,59.3,0,0,1,147.72,195.66Zm5.2,22.16c.18,1.59.37,3.18.56,4.77-.13-.34-.26-.69-.38-1-.11-1.4-.21-2.79-.29-4.19C152.85,217.52,152.88,217.67,152.92,217.82ZM152.68,117c-.19-.41-.38-.81-.56-1.21-.28-1.42-.6-2.82-1-4.22A32.53,32.53,0,0,1,152.68,117Zm-1.61,94.51c0,1.5.08,3,.16,4.51-.47-1.47-.9-3-1.29-4.45C150,211.75,150.66,211.67,151.07,211.47Zm-1-41.89c.05-.53.42-1.06.42-1.6v19.27c-1-2.25-.75-4.51-.91-6.78.24-3.61.32-7.23.41-10.86C150,169.6,150.07,169.59,150.07,169.58ZM159.31,81a95.19,95.19,0,0,1,16.07,6.3A61.3,61.3,0,0,1,159.31,81Zm14.5,1.62-.09,0-.1,0c-.17.06-.54.28-.44.49.34.85,2,1.58,2.78,2,1.66,1,3.4,2,5,3.22-1.64-.26-3.27-.58-4.88-1,.55-.07,1.28-.49.78-.72-4.67-2.19-9.25-4.51-13.93-6.66C166.52,81.07,170.14,82,173.81,82.66Zm41.24-5.58s0,0-.07,0l-.88-1,.22,0q.84.93,1.65,1.89C215.66,77.62,215.36,77.34,215.05,77.08Zm8.36,8.4-.57-.67c-.46-.71-.93-1.42-1.41-2.11-.9-1.75-1.78-3.5-2.62-5.28a59.52,59.52,0,0,1,5.24,7.32c-.4.07-.78.26-.71.5C223.36,85.32,223.39,85.4,223.41,85.48Zm-3.75,3.38a108,108,0,0,1,6.85,9.49A52.91,52.91,0,0,1,219.66,88.86Zm6.46,112.44c1.57-7.61,3.44-15.17,5.24-22.75-.06,1.3-.14,2.6-.23,3.89,0,.52,1.33.14,1.48-.2l.18-.46C230.83,188.38,228.58,194.89,226.12,201.3Zm14.93-73.48c0,1.19,0,2.37,0,3.55-.12-1.13-.26-2.26-.4-3.39A2.87,2.87,0,0,0,241.05,127.82Zm-.52-9.69a68,68,0,0,0-2.77-9c-.53-3.61-1-7.22-1.21-10.85A95.45,95.45,0,0,1,240.53,118.13ZM236.77,152c-.46,5.82-1,11.63-1.43,17.44a80.16,80.16,0,0,1-2.48,8.53q.16-3.39.23-6.79C234.53,164.79,235.83,158.41,236.77,152Zm-1.52-23.31c.18,6.57.32,13.13.32,19.7,0,.11.15.15.35.16-.66,5.54-1.64,11-2.79,16.53,0-17-1.37-34.16-.17-51.11.27.54.52,1.08.77,1.63Q234.63,122.12,235.25,128.67Zm-2.09-36.51a2.72,2.72,0,0,0-.89.5A75.6,75.6,0,0,0,229,83.48,61.7,61.7,0,0,1,233.16,92.16ZM228,87.23l1.68,5c-.72-1.62-1.51-3.22-2.35-4.79A1.61,1.61,0,0,0,228,87.23Zm-4.3-10.77A56.77,56.77,0,0,1,227,82.77a.57.57,0,0,0-.34.3A77.39,77.39,0,0,0,223,75.8C223.24,76,223.46,76.23,223.68,76.46Zm-4.05-3.6c.65,1.13,1.3,2.26,1.94,3.39a55.21,55.21,0,0,0-6-6.2A44.33,44.33,0,0,1,219.63,72.86Zm-3.86,1.94.41.46c.22.5.43,1,.66,1.5-.67-.78-1.36-1.56-2.08-2.32-.24-.25-1.09,0-1.35.26l-.41-.23c-.95-1.52-1.79-3.08-2.67-4.62C212.2,71.45,214.05,73.06,215.77,74.8Zm-7.48-8.46.61.26a.12.12,0,0,0,0,.08c.46.45.89.91,1.32,1.38C209.58,67.49,208.93,66.92,208.29,66.34Zm-62.81-10c1,0-.65.36-1.75.56-.88-.2-1.76-.39-2.64-.55Zm-26.61,2.43a43.11,43.11,0,0,1,22.27-1.28l-2.63.63c-2,.46-4,.85-6,1.15C128,59.08,123.42,58.94,118.87,58.76Zm15.67.58c2.51-.47,5-1.05,7.49-1.68.64.14,1.27.28,1.91.45a79.43,79.43,0,0,1-8.25,1.28Zm18.87,1.18a.46.46,0,0,0,.17-.48l2,0C154.84,60.23,154.12,60.38,153.41,60.52Zm7.45,12.69c-.19,0-.38-.08-.56,0a40.45,40.45,0,0,1-4.55.37.66.66,0,0,1,.41-.06h4.71Zm.43-9.86-1.37-.11L161,63l1,.18Zm7,0-.09,0q1.71-.36,3.42-.69l-.12,0Zm9.9.44-2.47.5-.41,0c1.1-.26,2.22-.48,3.34-.63Zm.92,6.61-1.29.47h-.06l-.82.17,1.55-.55ZM176.14,68l-2.09.61-1.65-.16c.54-.21,1.07-.42,1.61-.61C174.72,67.87,175.43,67.92,176.14,68Zm-4.44-4-.78-.05,1-.33,2.3-.48Zm.5,5.11c-.81.21-1.61.41-2.42.59l-.22-.08c.49-.21,1-.43,1.46-.63Zm.88,6.87-1.29-.12a34.85,34.85,0,0,0-3.59-.59c2-.65,4-1.32,5.94-2a39.05,39.05,0,0,0,4.34-.22A33.24,33.24,0,0,0,173.08,76Zm2.18-.09a33.37,33.37,0,0,1,12.48-4.39c-.22.43.72.76,1.24.42a5.28,5.28,0,0,1,2.67-.8c.41,0,.81,0,1.22,0l.09,0A97.5,97.5,0,0,1,175.26,75.9Zm13.45-9.51.33-.13,1,.11h0l-.75.15Zm4.69,4.52c.29-.22.33-.59,0-.76.72,0,1.45-.05,2.17-.06Zm-1.23-3.43c.32-1,.64-.27,1-.4a7.88,7.88,0,0,0,1.68.4Zm-2-6.36,1.18,0c.92,0,1.83.07,2.75.14-.94.23-1.89.5-2.83.78-1.68.13-3.36.28-5,.48Zm-3.32,9.44-.66.16q-1.05.19-2.07.45a52.47,52.47,0,0,1-6.83,1l.72-.26A76.57,76.57,0,0,1,186.87,70.56Zm-2.14-9.39,1,0-5.62,2a52.11,52.11,0,0,0-5.35.94Q179.68,62.44,184.73,61.17Zm-13.9.57a.7.7,0,0,0,.55-.48c1.74-.2,3.48-.34,5.23-.43-1,.38-2,.76-3,1.12-2.09.34-4.17.76-6.24,1.22l-.9-.21C167.93,62.54,169.38,62.13,170.83,61.74Zm-4.78.28-1.68.48-.47-.1Zm-2.74-1.44c-1.71,0-3.42-.08-5.13-.09l1.28-.32,1.24,0C162.62,60.31,163.57,60.32,163.31,60.58Zm-2.57-1.8c-1,.27-2.07.54-3.11.79-2,0-4-.06-6.06-.06Q156.13,59,160.74,58.78ZM149.8,72.34c.66-.07,1.34-.17,2-.21.13,0,.27,0,.4,0-.56,0-1.12.2-1.68.26-.07,0-.15.08-.23.08h-.67C149.7,72.48,149.76,72.34,149.8,72.34Zm-11-1.24a21.08,21.08,0,0,1,3.17-1.44c-.32.39-.24.77.68,1,.72.16,1.44.3,2.16.43l-.27,0C144.22,71.11,139.05,70.94,138.77,71.1Zm5.5,2.86c2-.17,3.95-.48,5.93-.48h3.93a1,1,0,0,0-.63.13c-.29.2-.3.39-.09.58-1.46.19-2.92.3-4.38.47-.71.08-1.43.12-2.14.19a2.28,2.28,0,0,0-.91-.24,28,28,0,0,1-2.92-.31C143.47,74.14,143.87,74.11,144.27,74Zm-1.49,3.29,2,.35-3,.06-1.26,0Zm-6.18-2.82c-.52.09-.83.22-.91.42l.79-.27a.64.64,0,0,0,0,.88h-.2l-.39-.06c-.19-.21-.26-.4-.19-.55l-1,.37L133,75c-.64-.09-1.28-.16-1.93-.22l.6,0c1.7-.11,3.39-.25,5.08-.4Zm-7.74,4.24c-.06.06-.11.13-.16.19-.55,0-1.09-.08-1.64-.12Zm0,1.16.09,0-1.48,0-.46-.17Zm-.76,10.4c.89,1.07,1.72,2.12,2.54,3.24-2.55-1.3-5.07-3-7.63-4h2A17.58,17.58,0,0,1,128.15,90.23Zm-6.47-3.75a.85.85,0,0,0,.6-.2c1,.33,2.09.66,3.14,1a.33.33,0,0,0,.09.16c.2.2.4.42.59.62L124,87.73a29.82,29.82,0,0,0-6.47-1.13,1.09,1.09,0,0,0-.59.11,3.5,3.5,0,0,0-.74-.23Zm2.4-6.92c.38.13.75.28,1.13.42-1,0-2,.08-2.94.13-1.23-.28-2.46-.57-3.7-.84C120.41,79.35,122.25,79.45,124.08,79.56Zm-4.22-1.27c-2.69-.16-5.39-.3-8.08-.41l-.94-.16A22,22,0,0,1,119.86,78.29Zm-9,.09.7.13,1.2.23-.17.07-1.15-.19-1.85-.25-.25-.05Zm-1.69.63c2.42.5,4.83,1,7.25,1.5l-1.16.12c-2.14-.63-4.3-1.21-6.5-1.67ZM107,83q3,.25,6,.63l.18,0c2,.64,4,1.19,6.06,1.68l.45.15a106.87,106.87,0,0,1-13.82-1.69A8,8,0,0,0,107,83Z"/><path class="cls-1" d="M196.7,83.29a22.16,22.16,0,0,1,5.5,8.16c.25.64,1.73.26,1.49-.37a22.87,22.87,0,0,0-5.63-8.41C197.58,82.21,196.18,82.78,196.7,83.29Z"/><path class="cls-1" d="M207.05,97.29c-.31-.41-.64-.81-1-1.21A29.2,29.2,0,0,1,210,99.84c2.82,8.72,3.92,17.71,5,26.72.43,9.22.9,18.47,2.2,27.61-.47,11.33-1.07,22.67-1,34a125.63,125.63,0,0,1-4,19.14c-.08.27,1.37.09,1.47-.25,1.11-3.77,2-7.56,2.75-11.36.06,1.47.49,3,.58,4.42,0,.18.47.1,1.47-.06v3.17c0,.22,1.09,0,1.13-.37.46-4.34.76-8.68,1.14-13,.42-.05.82-.21.82-.43,0-3.58-.11-7.16-.2-10.74.08-1.94.12-3.88.13-5.82,0-.06-.14-.09-.31-.08,0-.18,0-.35,0-.53.26.18,1.42-.12,1.42-.42a230.53,230.53,0,0,0-2.2-28.87c0-1.07,0-2.15,0-3.22,0-.07-.19-.09-.42-.08-.25-1.8-.5-3.61-.77-5.41q0-4.56-.14-9.12c.66,1.55,1.34,3.1,2.06,4.63.14.3,1.52-.05,1.49-.37A65.92,65.92,0,0,0,218,110q-.39-3.27-.91-6.53c0-.27-1.49,0-1.49.37s0,.88,0,1.33a35.53,35.53,0,0,0-4.06-5.76l0-.08a.16.16,0,0,0-.13-.09,27.4,27.4,0,0,0-8.1-6.36c-1.66-1.71-3.41-3.35-5.16-5-.27-.25-1.62.27-1.41.47,1.31,1.22,2.88,2.44,4.15,3.7-.32.07-.34.2-.34.39v1s-.23,0-.22,0a25.39,25.39,0,0,1,5.44,4.14C206,97.93,207.18,97.45,207.05,97.29Zm12.1,58.22c0-.06,0-.11,0-.17,0-1.6-.09-3.21-.15-4.81h0Zm1.3-31c-.55-1.3-1.08-2.6-1.6-3.91q-.12-2.19-.3-4.38A67.18,67.18,0,0,1,220.45,124.53Zm-1.38,46.94c.17,2,.32,3.91.45,5.87q-.41,3.41-.74,6.81a2.73,2.73,0,0,0-.63.14C218.62,180,218.91,175.76,219.07,171.47Zm-3.47-63c0,1.19.05,2.38.08,3.56-1-2.82-1.92-5.65-2.84-8.49A40.92,40.92,0,0,1,215.6,108.49Z"/><path class="cls-1" d="M229.48,235.28a1.19,1.19,0,0,0,.17-.71,11.39,11.39,0,0,0-.17-1.29.8.8,0,0,0,0-1.07,3.77,3.77,0,0,1-.34-.54,19.65,19.65,0,0,1-.6-3.31c-.11-1.48-4.49-.64-4.48.78a9.21,9.21,0,0,0,.62,3.62c.1.44.2.88.28,1.32-1.32.44-3.07,1.39-1.52,2.12,5.18,2.44,10.19,5.18,15.57,7.24a.65.65,0,0,0,.2.05c-2.78.27-5.53.54-8.16.57-.35,0-1.59.52-.75.75a20.47,20.47,0,0,0,3.29.6c-.27.18-.39.37,0,.43.9.12,1.79.19,2.69.24-1.39.48-2.94,1.24-1.46,1.23h.33a25.64,25.64,0,0,1-4.55.28,9.69,9.69,0,0,1-3.77-.92.38.38,0,0,0,.18-.33,13,13,0,0,0-3.77-7.2c-1.58-6-1.79-12.23-1.79-18.68,0-.41-1.49-.15-1.49.37a85,85,0,0,0,1.08,15.5c-.6-.84-1.22-1.68-1.87-2.49-.18-.23-.93-.11-1.27.13-.55-9.3-1.93-18.54-2-27.86,0-.76-1.45-.57-1.51.09-.22,2.24-.5,4.56-.78,6.93a.94.94,0,0,0-1.41.18,15.65,15.65,0,0,0-.91,3.24c.1-2.51.14-5,.15-7.55a54.45,54.45,0,0,1,2.19-9c.27-.78-1.22-.8-1.43-.18a52.58,52.58,0,0,0-1.6,5.8.86.86,0,0,0-.62.41c-3,6.73-3.55,14-3.18,21.26a16.82,16.82,0,0,0,.12,1.89c.19,2.75.49,5.48.8,8.17.07.61,1.3.33,1.46-.09s.26-.72.37-1.08a15.48,15.48,0,0,0,4.43,4.13,31.29,31.29,0,0,0,1.53,4.29c.29.65,1.77.26,1.49-.37a29.05,29.05,0,0,1-1.36-3.68c.3-.19.43-.48.07-.69l-.32-.2a39.23,39.23,0,0,1-1.12-6.26c.86,2.43,1.72,4.81,2.35,7.06.17.61,1.51.36,1.5-.23,0-1,0-2-.07-3,1.28,3.57,3,7.17,6.32,9.35.36.73.74,1.46,1.15,2.18.24.42,1.61.12,1.49-.37-.05-.2-.12-.4-.17-.6,3.24,1.09,7.07.45,10.33-.12l3-.52a61.46,61.46,0,0,1,13.31.5l.24.09a13.59,13.59,0,0,1,3.42,2c-1.92,5.47-1.43,9.36.71,12.08.15,2.57,1.21,4.67,4.48,5.38a10.53,10.53,0,0,0,2.11,1.42c2.87,1.44,6.36,1.68,9.91,1.38,11.2.31,21.84-3.56,32.88-4.76,1.23-.12,2.37-.22,3.4-.28.68,0,1.35-.07,2-.08.86,0,5.06-1.6,2.92-1.59q-2,0-3.9.12c1.08-.23,2.13-.43,3.16-.62,2.94.12,6.16.33,9.11.63.38,0,1.48-.08,1.48-.55v-2.05s-.3,0-.33-.07-.32-.12-.39-.13c-6.6-1.37-13.15-.32-19.61,1.19l-.65.09-1.79.1c1.09-.62,2.14-1.28,3.16-1.95.68-.45-.82-.45-1.19-.21-1.24.82-2.54,1.6-3.88,2.33a58.49,58.49,0,0,0-7.75,1.25c-.81.19-1.71.45-2.66.75-2.3.37-4.61.75-6.93,1.11.7-.34-.13-.61-.71-.38a20.77,20.77,0,0,1-2.5.79,20.31,20.31,0,0,1-9.68-4.79c.61-5-2.09-9.72-6.45-12.4-1.81-2.44-5.23-3.86-8.16-4.67-4.73-1.31-9.91-1-15-.52,1.51-.45,2.92-1.51,1.57-2C238,239.58,233.78,237.38,229.48,235.28Zm-20.58-3.87a15.86,15.86,0,0,1-.48-2.93c0-.38,0-.76-.07-1.14a21.39,21.39,0,0,1,.44-2.8,20.33,20.33,0,0,1,.7,3v.39c0,.08-.29.14-.26.2A26,26,0,0,1,208.9,231.41Zm.08-11.28a1,1,0,0,0-.66.06,42.84,42.84,0,0,1,1.36-8.95C209.29,214.19,209.09,217.15,209,220.13Zm1.12,14.08a24.31,24.31,0,0,0,.3-6.54c.33-2.36.56-4.73.72-7.11a33.23,33.23,0,0,0,1.41,7.5,48.73,48.73,0,0,0,1,10.29A13.71,13.71,0,0,1,210.1,234.21Zm2.66-12.15a17,17,0,0,1,.82-8.33C213.26,216.47,213,219.26,212.76,222.06Zm1.29,5.83a111.87,111.87,0,0,1,.82-12.28c.49,6.48,1.27,12.94,1.61,19.42C215.65,232.71,214.76,230.31,214.05,227.89Zm4,8.06-.06-1.24c.17.38.34.75.52,1.12A1.73,1.73,0,0,0,218,236Zm3.19,4.75c.57.89,1.16,1.76,1.78,2.62a2.47,2.47,0,0,0,.1.29A17.65,17.65,0,0,1,221.23,240.7ZM323,261.25c.55.24.53.76.48,1.35-1.81-.18-3.64-.33-5.48-.46.26-.18.41-.38,0-.47l-1.08-.16A41.9,41.9,0,0,1,323,261.25Zm-7.87-.38a26.69,26.69,0,0,1,4.47-.05c-1.41.11-2.82.29-4.23.52-1-.09-2.08-.12-3.14-.11C313.21,261.09,314.18,261,315.15,260.87Zm-3.74,1.86q-2.82.54-5.62,1.13l-1.37.13c1.74-.44,3.48-.87,5.22-1.25C310.23,262.74,310.82,262.72,311.41,262.73Zm-13.27,1.65c1.84-.46,3.67-.94,5.47-1.38l.24-.06.21,0c1.47-.1,2.95-.14,4.43-.17-1.91.45-3.81.94-5.69,1.41l-5.63.62Zm-7,.37,5.27-.79a78,78,0,0,1-8.5,1.61C289,265.27,290.06,265,291.14,264.75Zm-4.54,3c.86-.11,1.71-.23,2.53-.36l.68-.05c-1.37.23-2.74.44-4.12.61l.85-.19Zm-.24-2.27-1,.31-.75.05-.63,0ZM271.51,265c.73.24,1.47.46,2.23.64l.42.16c-1-.09-2-.22-3-.4A.89.89,0,0,0,271.51,265Zm.71,2.38,1.77.13a20.54,20.54,0,0,0,2.41.47,16.1,16.1,0,0,1-5.12-.12,5,5,0,0,1-.77-.37Zm-6.39-4.23c-.19-.11-.39-.22-.57-.35a10.16,10.16,0,0,1-.58-2.18A13.06,13.06,0,0,0,266,262C265.93,262.36,265.88,262.77,265.83,263.17Zm-1.3-8.61.92,2.19a15.18,15.18,0,0,1,.52,3.36,15.14,15.14,0,0,1-1.47-2.18C264.49,256.8,264.54,255.67,264.53,254.56Zm-.94,6.8c-.08-.09-.14-.19-.22-.28a20.68,20.68,0,0,1-1-4.05c.3.57.6,1.13.93,1.67A25.76,25.76,0,0,0,263.59,261.36Zm-.95-9.61a21.21,21.21,0,0,1,.48,3.46c-.28-.56-.55-1.11-.84-1.65-.09-.17-.19-.32-.28-.48,0-.68-.06-1.35-.07-2C262.18,251.3,262.41,251.52,262.64,251.75Zm-7-6.31-.69-.1c-4.42-.47-8.87-.05-13.31.06,1.88-.15,3.75-.3,5.63-.39a50.32,50.32,0,0,1,5.89,0A23.38,23.38,0,0,1,255.67,245.44ZM251.25,244c-5.6-.09-11.41,1.25-16.93.65C239.92,244.27,245.72,243.41,251.25,244Z"/><path class="cls-1" d="M197.81,244.75c.35.53,1.78,0,1.37-.61-1.05-1.58,0-4.24.07-6,0-.69-1.72-.44-2-.15a15.41,15.41,0,0,1-3.73,3.18v-5.1c0-.67-.61-.54-.8,0a16,16,0,0,0-1.2,5.23V234c0-.73-1.51-.52-1.52.11a33.75,33.75,0,0,1-.89,7c1-11.74,2.85-23.4,4.51-35.1,0-.14.09-.28.13-.42.41,0,1-.22,1.07-.54,1.06-3.4,1.17-7,2.23-10.35.11-.42-.49-.46-1-.29a99.22,99.22,0,0,1,2.08-14.2c.14-.65-1.35-.43-1.5.13s-.36,1.42-.52,2.13c0-.54.07-1.08.1-1.62.34-1.91.81-3.83,1-5.76,0,0,.25,0,.25-.06v-.1a81.08,81.08,0,0,1,1.11-10.25c.06-.5-1.11-.48-1.11-.24V152.26c0-.1-.24-.17-.3-.23a165.92,165.92,0,0,0-2-23.23c-1.41-8.71-3.85-18.49-10-25.54-.47-1.3-1-2.61-1.49-3.9a.52.52,0,0,0-.4-.28c-.25-.94-.51-1.88-.74-2.83-.15-.6-1.59-.23-1.49.37.23,1.33.48,2.65.76,4-1.55,0-4,1.09-3.22,1.79a27.71,27.71,0,0,1,5.06,6.09c2.18,8.4,4.89,16.69,7.07,25.11,3.24,12.48-.68,25.85-.78,38.47-.05,6.13.72,12.21,1.11,18.27-.5,5.41-1.11,10.82-1.87,16.22q-.69,4.86-1.4,9.7c-.68,2.39-1.37,4.76-2.07,7.14-.34-.2-1.13-.07-1.29.3-2.78,6.41-3.33,13.25-4.05,20.06-.15.94-.3,1.89-.44,2.84a.3.3,0,0,0,.09.26l-.09.77c-.09.67,1.42.45,1.5-.13.19-1.43.4-2.86.61-4.29.57-2.91,1-5.79,1.71-8.66,0,0-.28.08-.28.12v1.47c0,4.1-.74,8.32-.75,12.53,0,.38.75.46.75.38v7.35c0,.39.9.52,1.69.47,0,.37.19.74.19,1.11s.72.5,1.15.32a20,20,0,0,0,2.36,4.05c.35.48,1.8,0,1.38-.59a19.62,19.62,0,0,1-2.79-5.39c.58-.27,1-.64,1-1.08,0-1.72.59-3.43.65-5.15.4,0,1.35-.24,1.35-.55v-4.14c0-.35-.55-.7-.47-1.05,0-.08-.2-.16-.16-.25a.38.38,0,0,0,.06-.19c.11-.25.57-.51.57-.77v2.36c0,.67.61.54.79,0,.63-1.75.21-3.49,1.21-5.23v3.13c0,.72,1.61.47,1.86,0a18.48,18.48,0,0,1,3-3.51C197,241.63,196.89,243.37,197.81,244.75Zm-5.24-90.1c0,3.89,0,7.79-.11,11.67q-.18,6.92-.61,13.82c-.2-2.73-.37-5.46-.39-8.21C191.41,166.13,192.05,160.38,192.57,154.65Zm-6.09,71.08c-.11.43-.23.86-.34,1.3a49.32,49.32,0,0,0-1.71,6.9,1.31,1.31,0,0,0-.38.49c.78-3.06,1.62-6.1,2.49-9.14Z"/><path class="cls-1" d="M167.73,104.88a3.35,3.35,0,0,1-.13.6h-1.09c-.3,0-1,0-1,.43,0,.59-.05,1.1-.1,1.69a1,1,0,0,0-.28.48,52.84,52.84,0,0,0,3.35,32.4c.73,1.6,5.13.35,4.46-1.12,0-.05.08-.11.06-.16a3.52,3.52,0,0,0,.51-1.3v-4.27c0-.63-.62-.41-.81,0a22.9,22.9,0,0,0-.63,2.6c-.3-4-.71-7.94-.78-11.94,0-.63-1-.4-1.23,0a4.24,4.24,0,0,0-.55,1.76V110.86c0-.19-.18-.3-.35-.35.15-1,.28-2,.48-2.91.1-.53-.23-.84-.74-1,.11-.66.22-1.23.38-1.89S167.87,104.33,167.73,104.88Zm2.38,22.62c.14,1.93.33,3.85.52,5.78-.44-1.44-.8-2.89-1.1-4.36C169.73,128.45,169.92,128,170.11,127.5Z"/><path class="cls-1" d="M173.7,252.91c0,.48.26,1,.24,1.42-.16-1.63-.19-3.27-.46-4.9,0-.23-1.4,0-1.4.37a129.8,129.8,0,0,0,1,18.3c-1.94-2.87-2.14-11.65-2.2-14.49,1.33-8.37.68-16.89.57-25.34a109.54,109.54,0,0,0,.08-13.68c.32-3.57.67-7.13,1-10.7,0,0-.14-.06-.34,0,.57-3.77,1.07-7.54,1.45-11.33,0-.16-1.38,0-1.47.31a50.52,50.52,0,0,0-1.53,7.51c-.17-2.07-.33-4.14-.45-6.21-.19-3.33-.31-6.66-.22-10,.07-2.27.05-5.13,1.44-7.09.07-.1-1.23-.07-1.46.26-1.17,1.64-1.25,3.9-1.39,5.8a83.46,83.46,0,0,0,.1,10.49c.27,5.48.87,11,1.13,16.45-1,6-2.12,12-3.19,18,0,.12,1.39,0,1.47-.32.36-1.38.7-2.76,1-4.15-.22,4.59-.26,9.18-.26,13.78,0,.07.24.08.52.05-.26,3.78-.49,7.56-.52,11.34,0,0,.15.07.34.06-.17,2.74-.32,5.48-.34,8.22,0,.09.32.08.67,0a39.74,39.74,0,0,0,2.67,12.37c0,.08.19,0,.25,0h.92c.28,2-.07,3.44.36,5.13.06.26.79,0,.79-.34V263.92c4,3.79,5.5,6.87,10.37,8.69a1.24,1.24,0,0,0,1.06-.45c-7.09-2.65-9.43-8-11.43-14.24v-5.38C174.49,252.36,173.73,252.56,173.7,252.91Z"/><path class="cls-1" d="M347.31,276.39c-12.55,3.63-25.12,7.19-37.79,10.42.24-.45.23-.89-.24-1.13a118.72,118.72,0,0,0,23.65-7c1.36-.58,1.9-2.47-.14-2.45-12.39.1-24.35,2.53-36.26,5.32a31.94,31.94,0,0,0-11.24,2.68c-3.35.79-6.69,1.56-10.05,2.26,0-.32-.29-.63-.9-.86-1.27-.49-2.51-1-3.72-1.6a56.08,56.08,0,0,0-5-3.83l1.7-.29c.07,0,1.11-.31.84-.47a56.63,56.63,0,0,0-15-5.88c.38-.12.71-.28.47-.35a148.88,148.88,0,0,0-20-4.14c-.28,0-1.65.39-1.22.51,3.76,1,7.62,1.82,11.47,2.64-.78-.08-1.55-.12-2.26-.13a2.63,2.63,0,0,0-.82.12c-1.47,0-2.94,0-4.41,0a45.17,45.17,0,0,0-14.82.82c-.56.13-1.13.53-1.47.53h-4c-.95,0-4.44,1.48-2.61,2.68a18.85,18.85,0,0,0,3.66,1.8c.14.05.22.52.28.52H216c-1.78,0-4.71,2-1.7,2h4.45c.81,0,3.09-.18,3.09-1.29a9.71,9.71,0,0,0,0-2.41s0-.3,0-.3h2.51c.64,0,4.14-.75,2.94-1.91a26.16,26.16,0,0,1,11.56,1,16.78,16.78,0,0,1,9.48,8.72c.26,1.36.56,2.74.86,4.1-.05.64-.12,1.28-.2,1.92a61,61,0,0,1-9.93,4.49l-.77.21a1.77,1.77,0,0,0-.35.19c-1.84.64-3.68,1.23-5.49,1.79a118,118,0,0,0-14.9,1c-.19,0-1.34.5-.63.5,1.76,0,3.52,0,5.28,0A52.57,52.57,0,0,0,216,300.2c-.1,0-.75.29-.36.39s.62.14.93.2c-2.83.76-5.66,1.54-8.47,2.41-2.65.82-2,3.18.73,2.54,3-.7,6-1.4,9-2.12a1.81,1.81,0,0,0,.85-.05l2.1-.67,3.48-.89a64,64,0,0,0-6.4,3.49c-.23.15-.21.26.08.27,12.86.51,24.54-4.48,36.53-8a303.48,303.48,0,0,0,45-7.79,61.05,61.05,0,0,0,8.29-1.82,2.91,2.91,0,0,0,.9-.48c13.18-3.44,26.22-7.31,39-11C348.82,276.37,347.85,276.24,347.31,276.39Zm-99.86.11c-.34-.28-.69-.54-1.06-.8.42.13.84.26,1.24.41A1.15,1.15,0,0,0,247.45,276.5Zm18.43,11.71-1,.15c-.43,0-.86.09-1.3.12h-.28l1.12-.8h0Zm.45-8.59-1.18.23a51.14,51.14,0,0,0-6-3.41,4.74,4.74,0,0,0-3.06.35,14.71,14.71,0,0,0-4.73-2.88A57.84,57.84,0,0,1,266.33,279.62Zm-7.76,6.79c.45.1.89.18,1.34.26l-.77.24h0l-.62.06A1,1,0,0,0,258.57,286.41Zm.25-4.37.74-.29.45.31-.55.23a3.92,3.92,0,0,0-.6.23C258.85,282.36,258.83,282.2,258.82,282Zm.06,1.18c0-.13,0-.25,0-.38.49-.2,1-.38,1.49-.54.45.31.91.61,1.38.91C260.79,283.18,259.83,283.18,258.88,283.22ZM220.69,298c-3.48,0,1.38-.06,2.11-.13,1.48-.13,3-.2,4.44-.25-.73.1-1.47.21-2.2.33C223.59,298,222.14,298,220.69,298Zm-2.53,2.39-.1,0c-1.52-.28,4.93-1.65,5.11-1.69l1.38-.25,1.21-.05C223.23,299.05,220.69,299.71,218.16,300.38Zm17.32,2.87c-2.31.62-4.67,1.09-7,1.48a50.17,50.17,0,0,1-5.75.55c.06,0-3.39.09-2.57-.42a51,51,0,0,1,6.76-3.52q2.77-.75,5.54-1.58a71.35,71.35,0,0,0,9.78-1.3c3.49-.09,7-.28,10.46-.55C246.93,299.69,241.28,301.72,235.48,303.25ZM244,297.9a25,25,0,0,0,5.27-2.7c1.86-.3,3.75-.49,5.63-.64,4.28-.35,8.6-.29,12.9-.23-1.52.21-3,.49-4.54.79-2.74.55-5.43,1.26-8.11,2C251.47,297.52,247.75,297.76,244,297.9Zm46.17-6.49c-10.32,2.25-20.74,4.11-31.26,5.34-.44.06-.89.1-1.34.15a65.06,65.06,0,0,1,16-2.51c.28,0,1.69-.53,1-.53-6.74,0-13.53-.24-20.17.38,1.79-.21,3.57-.5,5.35-.81,3.19-.39,6.39-.75,9.56-1.12.21,0,1.54-.54.82-.52a63.7,63.7,0,0,0-10,1.19q-3.42.45-6.83,1c-.28,0-.56,0-.85.06a8.43,8.43,0,0,0,3.1-2.17,11.67,11.67,0,0,1,1.83-1.13.84.84,0,0,0,.37.33,10.67,10.67,0,0,0,5,.33,41.54,41.54,0,0,0,10.61-1.14,3.09,3.09,0,0,0,.83-.39l2.15-.38c1.5.27,3,.5,4.53.68-.08.73.62,1.4,1.9,1.23,1.52-.22,3-.46,4.55-.72,2.2.08,4.41.05,6.61-.08Zm17.37-8.07h-.09a1,1,0,0,0-.88-.85c-.53-.13-1.05-.24-1.58-.35a153.84,153.84,0,0,1,18.48-2.83A115.75,115.75,0,0,1,307.57,283.34Z"/><path class="cls-1" d="M171,294.18c-7.25.78-14.19,2.93-21.36,4.09-5.49.88-14.63,1.16-19.14-2.65-2-1.67-1.95-5.05-3.29-7.15a13.17,13.17,0,0,0-6.93-5.15c-5.84-2-15.81-1.82-19.52-7.21a5.24,5.24,0,0,1-.43-4.42c.62-2.29,3.09-2.78,5.27-3.13a35.23,35.23,0,0,1,4.59-.39c-.78.58-1.08,1.2.59,1.1,2.63-.15,5.16-.88,7.79-1a5.78,5.78,0,0,0,2.2-.81c1.43-.28,2.84-.58,4.26-.88,0,.06.48.12.48.18,0,1,4.94.32,4.94-1.11v-1s-.49-.06-.5-.09c-.14-7.78-1.45-15.75-.23-23.47.22-1.38-4.36-.6-4.55.61-1.21,7.6-.31,15.41-.11,23.08-2.31.5-4.66,1-7,1.41-7.24-.22-18.6-.83-21.94,5.53-4.39,8.36,10.19,11,15.65,12.23,4.11.92,7.42,1.83,10.3,4.86,2.44,2.56,1.87,6.4,4.64,8.73,4.12,3.48,12.53,3.5,17.64,3.24,8.82-.45,17.18-3.64,25.92-4.58C172.35,295.92,174.16,293.84,171,294.18Z"/><path class="cls-1" d="M190.6,280.25a30,30,0,0,0-11.06,6c-.27.24-.18.52-.19.79,0,0,0,0,0,0a1.42,1.42,0,0,0-1.14-.57h-5.94c-1.44,0-2.42-1.88-2.64-3.22-.09-.54-.93-.78-1.43-.78h-7.79c-1.06,0-2.36.21-2.91,1.17-.37.64.05,1.19.66,1.43-2.06-.07-4-.53-4.1-2.88,0-.56-4.5.05-4.46,1.1.1,3.17,3.69,3.32,6.32,3.33a7.63,7.63,0,0,0,3.16-1.14c.48-.26.58,0,.36-1h6c.49,2,1.48,2.89,2.15,4,.2.33.89,1,1.25,1h7.79a4.42,4.42,0,0,0,2.05-.21s0,.21,0,.21h2.23a4.76,4.76,0,0,0,3-1.34c.24-.25.71-.59.6-.72a24.45,24.45,0,0,1,6-3.3V286c0,2.22,2,1.61,2-.3v-4.14C192.49,280.31,191.7,279.9,190.6,280.25Z"/><path class="cls-1" d="M200.41,283.48h-2.22a3.87,3.87,0,0,0-2.92,1.83,1.63,1.63,0,0,0,1.31,2.17h2.22a3.85,3.85,0,0,0,2.92-1.83A1.62,1.62,0,0,0,200.41,283.48Z"/><path class="cls-1" d="M214.05,254c-.05,3.69-.87,6.71,2.71,9.13a2.88,2.88,0,0,0,1.91.16,19.85,19.85,0,0,0,5.88,4,4.56,4.56,0,0,0,3-.14,3.94,3.94,0,0,0,.77.29c1.59.41,5.28-1.77,2.68-2.44-.55-.14-1.28-1.64-1.61-2.06a3.12,3.12,0,0,0-1.72-1c-.85-.22-3.2.13-3.54,1.19l-.05,0a21.34,21.34,0,0,1-3.48-3.88,2.33,2.33,0,0,0-2-.43c-.46-1.58-.07-3.41-.05-5.16S214.08,252.45,214.05,254Z"/><path class="cls-2" d="M123.22,103.13a80,80,0,0,0-10.91-.73A84,84,0,0,0,121,99.77c1.2-.43,1-1.57-.17-1.84a46.43,46.43,0,0,0-9.23-1.15c2.66-.76,5.32-1.49,8-2.14,1.49-.35,1.6-1.74.25-2,0-.48-.47-.93-1.39-.93-2.26,0-4.51,0-6.77.09.85-.47,1-1.52-.31-1.78a71.9,71.9,0,0,0-9.77-1.24l4.77-1.16c2.12-.54,1.15-2.23-.7-2.06l-1.73.16a2.3,2.3,0,0,0-.59-.16c-17.86-2.64-36.36-1-53.9,2.72-2.5.54-.69,2.38,1.22,2A156,156,0,0,1,91.23,86.6l-5.15.7-10.58.9c-2.27.19-2.11,2-.07,2.12l-3.7.51c-2.34.34-2.14,2.16.2,2.14A116.44,116.44,0,0,0,92,90.84a83.55,83.55,0,0,1,11.41.27c-3.72.59-7.45,1.12-11.19,1.53q-6.47.39-12.94.83c-2.39.16-2.09,2.15.2,2.13,1.22,0,2.43,0,3.65-.09-.83.21-1.65.43-2.47.67-1.61.48-1.64,1.95.2,2.06a102.77,102.77,0,0,0,23.39-1.62l-2.36.67a134.32,134.32,0,0,0-16.51,3.29c-2.12.53-1.14,2.22.71,2a95.64,95.64,0,0,0,16.68-3.31,51.25,51.25,0,0,1,12.62,0,91.22,91.22,0,0,1-26.16,3.86c-1.92,0-3.4,2.16-.82,2.14,9.57-.06,19.15-1.15,28.7-.53l-2.07.59c-10-.1-19.84,2.46-29.66,4-1.17.19-1.45,1-1,1.52l-1.31.16c-1.76.24-2.59,2-.32,2.14a97.74,97.74,0,0,0,23.78-1.65l3.92-.07-3.77.9a194.4,194.4,0,0,0-26,3.15c-1.74.34-1.54,2,.2,2.06.72,0,1.44.05,2.16.07-.86.57-1.11,1.5.23,1.66a.72.72,0,0,0,.08.32c-.43.65.54,1.47,1.81,1.45a82.09,82.09,0,0,0,15.28-1.59h4.88a2.9,2.9,0,0,0,1.84-.69c4-.25,8-.64,12-1.23,2.28-.34,2.17-2.31-.2-2.13l-2.23.17c1.93-.53,3.85-1.08,5.77-1.63,1.57-.45,1.68-2.06-.19-2.06-1.49,0-3,0-4.46,0l2.76-.62c1.67-.37,1.61-2.06-.19-2.06h-4c1.71-.46,3.42-.94,5.12-1.46s1.55-1.75-.1-2l2-.6C125.12,104.66,125,103.38,123.22,103.13ZM91.58,96c2.78-.42,5.59-.71,8.41-.9C97.2,95.53,94.4,95.85,91.58,96Z"/><path class="cls-2" d="M250.89,133c.73-.32,1.31-.81,1.18-1.32a45.41,45.41,0,0,1-1.87-10.31c0-.49-.53-.65-1.17-.6-.89-3.32-1.71-6.65-2.34-10,.45-.31.75-.68.66-1.05-.83-3.48-1.06-7-1.89-10.54-.12-.52-1-.5-1.91-.23a146.62,146.62,0,0,0-8.48-27.88c-.46-1.09-4,.2-3.59,1.27a137.85,137.85,0,0,1,5.68,16.33,1.82,1.82,0,0,0-.95.84c-.12-.41-.24-.81-.38-1.21-2.43-7.39-6.37-15.16-12.5-20.68,1.31.33,2.65.45,4,.71a.69.69,0,0,0,.52.16h.95a.18.18,0,0,1-.21-.08c3.48-1,7-1.7,10.59-2.37a1,1,0,0,0-.11-.1c-.36-.57-1.48-2.81-2.24-2.7-.6.1-1.21.17-1.81.21l1.78-.71c3.35-.8,6.67-1.79,9.93-2.8a1.42,1.42,0,0,0-.21-.42c.28,0,.55-.11.83-.15,1-.14,2.1-.25,3.16-.3l-.34-.41c-.47-.79-1.25-2.45-2-2.43a23.33,23.33,0,0,0-3.16.3c-1.77.22-3.54.5-5.34.58l.34.41c0,.07.09.15.14.23-1.92.63-3.8,1.38-5.68,2.15a56.7,56.7,0,0,1-13.28,1.73.76.76,0,0,0-.4-.13h-1.51a11.57,11.57,0,0,0-1-1.46c1.61-.05,3.22-.09,4.83-.09-.13-.16-.27-.32-.4-.49-.47-.81-1.18-2.35-1.95-2.35-3.55,0-7.08,0-10.6.32l-1.29.06c-.39-.66-.85-1.26-1.33-1.26-1.92,0-3.83.09-5.75.2-.52-.8-1.29-1.87-1.7-2-3.68-.66-7.4-1.15-11.13-1.49-.41-.6-.85-1.12-1.24-1.15a113.79,113.79,0,0,0-20,.59c1.94-.48,3.89-1,5.82-1.49,1.13-.29,1.29-.88,1-1.4,6.34-1.09,12.63-2.36,18.87-3.87,1.86-.45,1.1-2.15-.48-2.38a200.27,200.27,0,0,0-55.17-.11c-13.19-1.07-26.1,2-39,4.57l-.28-.07c-15.4-2.68-31.09,0-45.79,4.49-2,.61.26,2.33,1.41,2.32,12.09,0,24.06-1.36,36-2.76a2.13,2.13,0,0,0,.8.13A25,25,0,0,0,96.43,51c11.67-1.36,23.35-2.61,35.13-2.66,1.54,0,1.79-.91,1.29-1.62l6.74-1.05a1.7,1.7,0,0,0,.66-.22,197.41,197.41,0,0,1,45.12-.68c-6.45,1.38-12.94,2.54-19.47,3.54a153.68,153.68,0,0,0-31.55,3.75c-2.56.54-.23,2.56,1.47,2.4,7.38-.7,14.76-1.48,22.11-2.43-9.92,2.28-20,4.21-30.17,5.8a2.43,2.43,0,0,0-1.43-.54q-7.1,0-14.19.08a2.7,2.7,0,0,0-2.34-.92l-7.09,1.13c-14.76.48-29.44,1.73-43.89,5-1.27.29-1.31,1-.82,1.59l-.37.06-.7.11-.23.05a232.32,232.32,0,0,0-28.52,6.21c-2,.58.27,2.33,1.42,2.32,18.82-.08,37.25-3.11,55.65-6.41,1.53,0,3.06,0,4.59,0a1.81,1.81,0,0,0,1.31.82c.65.12,1.31.22,2,.31-.77.52-.31,1.47,1.37,1.47h.27l-.3.07c-2,.53-.25,1.69,1,1.68A90.76,90.76,0,0,0,106.64,70q6-.06,11.9-.38c6.78.2,13.55.38,20.33.39,1.77,0,2.68-1.46.5-1.77-1.08-.16-2.15-.27-3.23-.38,4.09-.62,8.15-1.39,12.19-2.37,1.34-.32,1-.91.29-1.29,7.77-.35,15.52-1.14,23.27-1.73,8.63-.2,17.25-.63,25.82-1.62,3.25,0,6.49-.16,9.73-.31a1.07,1.07,0,0,0,.57.33c.88,0,1.76.08,2.64.15.47.73,1.44,2.33,2,2.47a26.41,26.41,0,0,0,5.13.78,5.5,5.5,0,0,0,1.48,1.86,22.94,22.94,0,0,1,4.25,2.83c-1.13.14-2.61.89-2.4,1.66a97.08,97.08,0,0,0,16.06,32.71c1.21,9.46,3.34,18.81,5.27,28.19q.45,2.72.87,5.43A69,69,0,0,0,246,166.65,80.5,80.5,0,0,1,244.39,184a40.77,40.77,0,0,1-2.14,6.87c-.14.34-1.3,3.49-2,2.91a7.08,7.08,0,0,0-3.29-1.34h-.1c-2.11,9-7.25,16.91-6.62,26.44.06,1,2.36,2.41,2.38,2.65-.35-5.32.89-10.25,2.79-15.23.88-2.31,1.83-4.59,2.65-6.92.35-1,.63-2,.91-3.06.54-2,2.95,0,3.74.6a.34.34,0,0,0,.28.11c4.41-7.78,5.45-16.95,5.46-25.85,1.09,0,2.74-.75,2.73-1.45,0-1.32,0-2.63-.08-4,.94-.24,1.94-.81,2-1.32C253.63,153.87,251.91,143.45,250.89,133ZM90.29,49.17c-8.32,1-16.64,1.91-25,2.42A91.1,91.1,0,0,1,90.29,49.17ZM58.13,66.75a1.22,1.22,0,0,0,.27,0q6.7-.72,13.39-1.66,3.76,0,7.55-.16A356,356,0,0,1,41.14,70C46.76,68.73,52.43,67.68,58.13,66.75Zm40.46-.6,2.54-.49c3-.4,6-.66,9.08-.82A51.76,51.76,0,0,1,98.59,66.15Zm24.21,1.34c-.91,0-1.81.05-2.71.09,3.57-.71,7.14-1.43,10.72-2,2.87-.12,5.73-.17,8.6-.16A160.09,160.09,0,0,1,122.8,67.49Zm27.08-6.37c-3.43.21-6.86.35-10.31.37.25,0,.75,1.26,1.36,2.1-1.08,0-2.15,0-3.23,0a2.08,2.08,0,0,0-1.68-.67c-4.78,0-9.59-.09-14.38-.08a2.73,2.73,0,0,0-2.18-.77l-1.88.16,1.43-.31c3.06-.56,6.14-1,9.25-1.29a1.38,1.38,0,0,0,.94-.37c8.19-1.28,16.34-2.79,24.38-4.52.48.76,1.09,1.6,1.56,1.59s1.15,0,1.73,0a.53.53,0,0,0,.16,0,68.59,68.59,0,0,0,8.11.05,2.93,2.93,0,0,0,.21.35,88.74,88.74,0,0,0-16.33,2S149.41,60.42,149.88,61.12Zm41-5.33c-1.51-.11-3-.19-4.53-.25l-.06-.07c1.54.08,3.08.18,4.62.31Zm29.38,8.52.08,0a41.77,41.77,0,0,0,5,.1,9.09,9.09,0,0,0,1,1.25,3,3,0,0,0-.32.09,51.73,51.73,0,0,1-6.45-1.48Zm4.76,6c6.53,6.47,9.31,16.33,11.14,25.06A98,98,0,0,1,225,70.26Z"/><path class="cls-2" d="M219.07,242.72a53.22,53.22,0,0,1-2.88-10.8.65.65,0,0,0,.13-.38c-.11-3.24-.85-6.43-.95-9.67,0-.27.35-.48,0-.63-1.29-16.73,2.07-33.51,1.07-50.32V156c1-10-.11-20-1.25-29.92,1.3.16,2.76-.31,2.22-1.06a29.28,29.28,0,0,1-3.72-7c-.2-1.27-.47-2.54-.69-3.82,1-.07,1.8-.59,1.37-1.49-1-2.06-1.95-4.12-2.85-6.21q-1-5.23-2.23-10.44c-.17-.83-.36-1.66-.57-2.47-.15-.59-1-.85-1.9-.86a53.16,53.16,0,0,1-1-5.5c-.21-1.71-4-1.45-3.76.49a67.48,67.48,0,0,0,4.75,17.08,69.47,69.47,0,0,0,2.9,13.5c.79,5.18,1.39,10.38,1.76,15.59a.59.59,0,0,0,0,.19v44.8a.72.72,0,0,0,.41.58c.14,16.44-2.78,32.85,0,49.22a57,57,0,0,0,3.46,14.57C215.79,244.36,219.59,244.05,219.07,242.72Z"/><path class="cls-2" d="M195.19,254.8c-4.71-4.81-7.77-10.14-8.36-16.68-.51-5.65,1-11.37,2.19-16.87a263.32,263.32,0,0,0,6-42.61c.82-14.86,1-29.85-1.4-44.59-2.18-13.69-6.7-26.94-12.37-39.7-.64-1.43-4.38-1.47-3.56.37a161.94,161.94,0,0,1,12.55,41.46c2.3,15.27,1.76,30.94.76,46.28-.94,14.51-3.82,28.59-6.75,42.83-1,5-1.67,10.15-.83,15.26,1,5.86,4.44,10.94,8.65,15.25C193.19,257,196.77,256.41,195.19,254.8Z"/><path class="cls-2" d="M229.12,270.12c-1.14-2.7-3.22-4.92-2.69-8,.16-1-1-2-1.92-2.19-4.06-.7-5.64-3.16-6.32-6.75-.23-1.24-.06-2.51-.28-3.73s-1.71-2.29-2.43-3.33a21.61,21.61,0,0,1-2.54-5.41c-.87-5.87-1.69-11.75-2.58-17.62a1.66,1.66,0,0,0-.11-.38,63.38,63.38,0,0,1,.12-8c.14-1.55-3.12-3.31-3.29-1.32a65.39,65.39,0,0,0-.15,7.91,1,1,0,0,0-.79.87c.12,5.81,1.53,11.34,3.2,16.9.19.93.39,1.87.59,2.8a2.12,2.12,0,0,0,.81,1.14,23.73,23.73,0,0,0,3.92,6.33c.27,5.82,2.39,11.21,8.38,13.16.14,2.86,1.89,5.1,3.06,7.88C226.79,272,230,272.31,229.12,270.12Z"/><path class="cls-2" d="M155.4,214.13c-1.08-14.32-2.13-28.65-.93-43,1.24-14.82,4.48-29.48,4.28-44.4a61.62,61.62,0,0,0-4.45-22.61c-1.9-6.71-5.26-13-11.19-17.44-1-.77-4.48-.14-3.12,1.35a54.64,54.64,0,0,1,10.73,17.09,67.43,67.43,0,0,1,1.9,12.43c.74,10.45-.4,20.94-1.52,31.33a1,1,0,0,0,.41.89c-.51,6.8-.91,13.6-1.26,20.41-.64,12.63-1.89,25.32.16,37.88q.45,2.78,1,5.53c1.56,20.33,3.31,40.64-1.26,60.91-.33,1.46,2.82,1.7,3.54.83C168,258,159.61,233.8,155.4,214.13Zm1.75,28.49c.87,7,.87,14.4-1.26,21.14a158,158,0,0,0,1.05-22.69Z"/><path class="cls-2" d="M124.08,129.19h0c1.36-.72-1.44-3-2.6-2.52-.75.31-1.48.66-2.19,1a29.08,29.08,0,0,1-5.39,1.71,45.46,45.46,0,0,1,8.29-3.74c1.34-.5-1.35-3-2.59-2.51-4.64,1.73-9.24,3.5-12.5,7.18-.9,1,1.67,2.44,2.52,2.42s1.46-.05,2.18-.1c-.93.69-1.86,1.39-2.81,2.07s1.72,2.56,2.51,2.43l.84-.16c-.5.4-1,.82-1.46,1.24-.86.77,1.25,2.37,2.41,2.42l-1.46,1.1c-1.13.8,1.83,2.42,2.51,2.42h.54l-3,2.85c-.79.73.69,1.86,1.86,2.25a34.1,34.1,0,0,1-3.54,2.87c-1.1.74.44,2,1.69,2.41-1.81,1-3.6,2-5.46,2.86-.76.37-.33,1.1.41,1.68a126.66,126.66,0,0,0-24.23,16c-1,.85,1.73,2.5,2.51,2.43l.86-.11c-1,.64-2.11,1.27-3.16,1.92-1.39.86,1.36,2.6,2.3,2.58l.46,0a61.41,61.41,0,0,0-5.81,4.63c-1,1,1.8,2.39,2.51,2.43a27.27,27.27,0,0,0,6.07-.37,34.72,34.72,0,0,0-4.8,5C82.7,194.64,85.14,196,86,196a37.19,37.19,0,0,0,9.8-1.67,95.36,95.36,0,0,0-8.53,8c-.89.95,1.64,2.54,2.51,2.43a43.78,43.78,0,0,0,7.44-1.62c-1.79,1.44-3.54,2.92-5.23,4.46-1,.92,1.74,2.46,2.51,2.43a32.77,32.77,0,0,0,10.79-2.45,14,14,0,0,1-2,1.78c-1.14.82,1.85,2.41,2.51,2.43,1.65.05,3.26.22,4.86.29-2.14,2.9-4.19,5.86-6.43,8.7-.77,1,1.57,2.61,2.51,2.43,2.35-.45,4.68-.52,6.94-.85-2.61,4.19-4.64,8.65-4.84,13.59,0,1.25,3.2,3,3.25,1.74.26-6.47,3.7-12.05,7.44-17.33.72-1-1.81-3-2.81-2.37a16.53,16.53,0,0,1-7.17,2c2.06-2.81,4-5.67,6.21-8.41.9-1.14-1.82-2.59-2.81-2.36a15.81,15.81,0,0,1-4.39.27c1.73-2,3.11-4.23,5.31-5.82,1-.71-1.81-2.83-2.81-2.36a81.5,81.5,0,0,1-12,5,191.08,191.08,0,0,1,15.54-11.27c1.28-.85-1.51-3.14-2.6-2.51-5.7,3.29-11.63,6.48-18,8.31A92.9,92.9,0,0,1,110.89,188c1.33-.79-1.46-3-2.59-2.52-6.14,2.87-12.33,6-19.06,7.27a56.18,56.18,0,0,1,12.94-9.15c1.76-.89,3.5-1.82,5.22-2.75,2.77-1.41,5.55-2.81,8.21-4.28,1.34-.73-1.45-3.05-2.59-2.51-2.56,1.21-5.16,2.63-7.83,4.08-2,1-4.08,2.1-6.08,3.2a47.15,47.15,0,0,1-13,4.6,79.65,79.65,0,0,1,9.15-6.06c6.5-2.34,12.41-6.27,18.47-9.45,1.34-.71-1.45-3.1-2.59-2.52-5.71,2.88-11.57,5.61-17.16,8.73,1.52-.91,3.06-1.8,4.59-2.7,7.69-3.26,14.76-8.12,21.77-12.3,1.32-.78-1.48-3.12-2.59-2.52q-11.16,6.08-22.08,12.49a50.56,50.56,0,0,1-5.18,1.83,111.67,111.67,0,0,1,28.91-16.19c1-.36-.06-1.54-1.18-2.16,1-.48,2-.94,3.06-1.35,1.47-.59-1.47-2.77-2.59-2.52a19.17,19.17,0,0,1-2.13.31,43.41,43.41,0,0,1,4.72-3.94c1.1-.75-.65-2.32-1.92-2.55l1.2-1.12c1-.92-1.6-2.34-2.44-2.42,2.37-1.84,4.7-3.73,7.16-5.49.81-.58-.87-2.05-2.07-2.36.93-.62,1.87-1.24,2.79-1.88S125.3,129.38,124.08,129.19Z"/><path class="cls-2" d="M255.61,49.19c-13.08,1-26,4.85-39.18,3.62,6-1.23,12.07-1.83,18.12-2.53.69-.08,3.6-1.09,3.12-1.09-12.3.07-24.52,1.69-36.82,1.75-.77,0-3.56,1.1-3.12,1.1,9.69-.06,19.33-1.07,29-1.53a116.9,116.9,0,0,0-12.86,2.4c-.35.09-2.23.88-2.18.88,13.76,1.62,27.17-2.49,40.8-3.51A11.36,11.36,0,0,0,255.61,49.19Z"/><path class="cls-2" d="M263.88,47.18A47.19,47.19,0,0,1,249.14,52c-1.23.2-3.63,2.84-1.51,2.5A55.12,55.12,0,0,0,265,48.77C267,47.68,265.87,46.11,263.88,47.18Z"/><path class="cls-2" d="M227.31,31.48h-40.6c-2,0-1.7,2.29-.32,3.08-.67.14-1.34.25-2,.4-1.83.41-.94,3.09.6,3.28a161.79,161.79,0,0,0,19.91,1.08c-3.06.59-6.11,1.18-9.18,1.75-2.2.42-.59,3.66,1.48,3.27,9.14-1.71,18.25-3.56,27.39-5.27,2.1-.39.67-3.35-1.05-3.35-7.5,0-15,.28-22.49.17,2-.15,4.06-.38,6.1-.39.79,0,1.21-1,1.36-1h19.42C230.28,34.48,229.42,31.48,227.31,31.48Z"/><path class="cls-3" d="M139.46,94.63c11.26,3.62,12.45,18.85,12.86,28.75.6,14.68-1.54,29.57-2.28,44.22-.9,17.67-.87,35.55,3.33,52.83a81,81,0,0,1,2.17,29.22c-1.08,9.67-3.66,19.15-5.76,28.63-.15.66,1.79.34,1.92-.27,4-18.05,8.94-36,4.56-54.51-4.73-20-5.2-39.47-4.1-59.91.77-14.36,2.74-28.82,2-43.21-.51-9.58-2.48-23.21-13.12-26.64-.54-.17-2.29.65-1.55.89Z"/><path class="cls-3" d="M146.32,90.48H152a1.62,1.62,0,0,0,1.28-.49c.27-.37-.23-.51-.51-.51h-5.66a1.63,1.63,0,0,0-1.28.49c-.26.37.23.51.52.51Z"/><path class="cls-3" d="M166.74,104.18c1.25,4.82-.68,9.26-.81,14.07,0,.36,1.92.08,1.93-.52.13-4.85,2.07-9.2.81-14.06-.13-.48-2.06,0-1.93.51Z"/><path class="cls-3" d="M169.16,131.24c0,1.32.05,3-.73,4.1-.42.62,1.48.36,1.77-.07.9-1.32.89-3,.89-4.55,0-.43-1.93-.12-1.93.52Z"/><path class="cls-3" d="M170,175.41c-.76,3.38,0,5.85,1.26,9,2,4.93.31,8.88-1.28,13.58-1.42,4.2-.87,8.35-.57,12.66.36,5.31-2.37,10.33-2.64,15.61-.05,1,1.92.76,2-.14.24-4.73,2.1-9.07,2.64-13.75.61-5.4-.9-10.11.93-15.51.88-2.6,2.64-6,2.07-8.8-.91-4.53-3.49-8-2.41-12.79.22-1-1.76-.75-2,.13Z"/><path class="cls-3" d="M132.89,101.12c4.59,8.72,7.58,17.52,6,27.49C137.5,137,133,144,132.79,152.68c0,1.06,1.94.81,2-.12.24-9,4.87-16.77,6.29-25.54,1.54-9.46-2.08-18.58-6.39-26.78-.44-.82-2.26-.06-1.77.88Z"/><path class="cls-3" d="M132.81,168c.52,7.49-4.05,14.21-3.27,21.58.72,6.68,5.07,12,6.5,18.46,3.11,14.09-3.24,29.79,3.23,43.28.39.8,2.29.22,1.93-.52-6.12-12.76-1.25-28.4-3-42-.86-6.61-5.36-11.81-6.56-18.3-1.43-7.71,3.66-15.15,3.11-23-.06-.82-2-.37-1.93.52Z"/><path class="cls-3" d="M160.5,82.85c6.95,3.79,14.82,2.65,20.86,8.52.63.61,2.46-.19,1.77-.86a20.51,20.51,0,0,0-9.21-5.41c-4.08-1.13-8.13-1.3-11.94-3.38-.75-.41-2.44.6-1.48,1.13Z"/><path class="cls-3" d="M182.09,95.4c-.34,5.4,2.69,9.07,5.2,13.57,3,5.34,2.11,12.42,3,18.32,1,6.66,2.28,13.24,2.62,20,.41,7.8-2.08,15.1-2.18,22.82-.09,7,.8,14,1.16,21a53.23,53.23,0,0,1-3.81,22.3c-4.36,11.64-8.7,22.12-6,34.75.12.61,2.06.13,1.93-.51-2.77-13.08,2-23.92,6.54-35.9,5.06-13.51,2.29-26.39,2.11-40.39-.09-7.15,2.25-14,2.25-21.12a121.69,121.69,0,0,0-2.12-20.05c-1-5.93-1-12-2-17.84-1.11-6.4-7.2-10.17-6.77-17.15.05-.74-1.88-.33-1.92.26Z"/><path class="cls-3" d="M195.41,84c20.12,7.63,17.51,29.5,17.64,47.22.08,10.94,1.55,21.82,1.76,32.76.22,11.83-.58,23.79-3.66,35.25-.24.9,1.74.65,2-.16,6.52-24.28,1.78-48.72,1.89-73.33.08-17.2.29-35.89-18.46-43-.79-.29-2.27.83-1.13,1.27Z"/><path class="cls-3" d="M207.13,182.1c1.94,9.69,2.34,19.93-.41,29.48-.79,2.75-2.73,4.55-3,7.49-.51,6.15,3.09,12.08,3.39,18.21,0,.43,2,.08,1.93-.51-.28-5.82-2.9-11.08-3.37-16.85-.31-3.84,2.34-6.58,3.36-10.1,2.59-9,1.83-19.17,0-28.24-.1-.49-2,0-1.93.52Z"/><path class="cls-3" d="M213.59,208.07c-.68,6-1.83,12-1.93,18.06-.1,6.52,2.44,12.3,6,17.65.32.49,2.1-.27,1.93-.52-3.37-5.1-5.59-10.3-5.94-16.44-.37-6.41,1.19-12.92,1.9-19.27,0-.27-1.86-.08-1.93.52Z"/><path class="cls-3" d="M223.08,274.41c8.09,1,19-1.54,23.61,7.15,2.57,4.81,2,12.28-4.63,12.33-3.38,0-6.83-1.19-10-2.24-.39-.13-1.58.1-1.58.67v3.25c1-.24.92-.47,1.36-.71-7.21,0-13.76-.6-20,3.65-5.31,3.65-9.46,6.06-16,6.86-5.18.63-10.47.34-15.68.32-.79,0-2,1.18-.73,1.19,8.35,0,16.81.49,24.83-2.22,3.93-1.33,6.67-4,10-6.28,4.85-3.33,11.32-2.36,16.86-2.33.36,0,1.34-.17,1.34-.7v-3.24l-1.55.67c6.72,2.24,18.72,5.2,19-5.46.4-15.23-16.05-12.84-26.13-14.1-.8-.1-2,1-.72,1.19Z"/><path class="cls-3" d="M120.42,264.62c-6.21,0-17.2-1.11-21.72,4.29-1.57,1.88-2.25,6.24.77,7.1,4.47,1.28,12.77.87,7.56,7.53a.28.28,0,0,0,0,.39c4.17,4.65,10.63,1.95,15.29,5.54,3.09,2.37.9,8.5,4.07,9.87,5.36,2.32,12.18,1.43,17.75.53,9.15-1.48,17.88-4.75,27.22-4.95.7,0,2.06-1.11.76-1.08-6.62.15-13,1.63-19.39,3.17A114.54,114.54,0,0,1,141,299.33c-3.07.41-12.46,1.56-14.07-2.14-.54-1.23-.17-3.09-.42-4.41A7.62,7.62,0,0,0,123,287.9a15.3,15.3,0,0,0-6.05-1.58c-3.74-.34-8.81-.71-6.47-5.34,1.11-2.19-.31-3.67-2.28-4.45-2.81-1.1-7.83-.1-8.79-3.54-2.32-8.31,15.59-7.32,20.21-7.29.71,0,2.07-1.07.76-1.08Z"/><path class="cls-3" d="M232.39,245.16a24.77,24.77,0,0,0,11.93,2.76c5.45.09,17.87-1.57,20.15,5.44.91,2.82-1.56,5.86-.48,9,1,3,4.05,3.37,6.71,4.1a39.38,39.38,0,0,0,20.61.4c9.48-2.28,21.66-8.56,30.74-2.23.7.49,2.4-.48,1.49-1.11-6.28-4.38-13.84-3-20.81-1.27-9.4,2.4-17.85,5.7-27.66,3.69-4.39-.89-10.15-1.71-9.53-7.51.28-2.67,1.64-4.63.13-7.17-1.93-3.24-7.78-4.3-11.12-4.74-7.16-.93-13.9,1.16-20.67-2.48-.74-.39-2.44.61-1.49,1.12Z"/><path class="cls-3" d="M277.21,286.35c4,.41,7.52-.55,11.31-1.75a33.77,33.77,0,0,1,10.58-1.5c1.52,0,3.84.46,5.27-.05,5.49-1.93,10.75-4.54,16.58-5.28,4.83-.62,9,1,13.56-1.3,1.18-.61.11-1.45-.81-1-4.54,2.35-9.74.33-14.51,1.29a71.74,71.74,0,0,0-11.92,3.94c-4.61,1.82-9.43.74-14.19,1.44-5.26.78-9.66,3.49-15.16,2.93-.85-.08-2,1.13-.71,1.26Z"/><path class="cls-3" d="M248.64,228.11c-.63-2.23,4.73-3.41,6.19-3.45l-.86-.52a5.78,5.78,0,0,1-1.74,3.57c-.9.72-2.18.38-3.17.07-.72-.23-2.29.82-1.15,1.18a6.46,6.46,0,0,0,5.12-.24c1.76-1,2.5-2.89,2.89-4.78.09-.47-.57-.53-.87-.52a13.46,13.46,0,0,0-5.66,1.64c-1.25.65-3.15,1.89-2.68,3.57.22.78,2.15.26,1.93-.52Z"/><path class="cls-3" d="M216.9,258c1.69,3.39,3.47,6.55,6.6,8.79.47.34,1.75.1,1.73-.63a15.51,15.51,0,0,0-6.7-12.39c-.71-.5-2.4.48-1.49,1.12a14.43,14.43,0,0,1,6.23,11.41l1.72-.63c-3-2.17-4.7-5.27-6.32-8.52-.39-.79-2.23-.07-1.77.85Z"/><path class="cls-3" d="M193.92,274.3c-3.34.08-5.33,1.85-6.19,5-.17.67,1.1.47,1.37.34,3-1.41,4.72-4,6.17-6.89.2-.4-.17-.64-.55-.64-.56,0-.77-.46-1.08-.88-.44-.58-2.3.11-1.79.79a2.37,2.37,0,0,0,2.15,1.28l-.55-.64c-1.21,2.39-2.62,4.89-5.14,6.09l1.36.34c.51-1.89,1.36-3.58,3.52-3.63a1.52,1.52,0,0,0,1.27-.54c.23-.39-.2-.65-.54-.65Z"/><path class="cls-3" d="M120.6,248.29c-3-1.13-4.65-4-6.94-6.1-.33.37-.65.29-1,1.29H120c1.09,0,1.5-2,.18-2h-7.27c-.37,0-1.51.75-1,1.24,2.52,2.33,4.23,5.54,7.59,6.78.8.3,2.27-.79,1.12-1.21Z"/><path class="cls-3" d="M225.2,219.55a28.51,28.51,0,0,1,4-6.39l-1.84.32a18.9,18.9,0,0,1-.8,6.39c-.14.42,1.74.19,1.91-.32a19.57,19.57,0,0,0,.82-6.59c0-.47-1.67.09-1.84.32a29.49,29.49,0,0,0-4.12,6.59c-.15.4,1.71.19,1.91-.32Z"/><path class="cls-3" d="M112.17,230.74c-3.68,0-8.06.94-11.12-1.61l-.51.81a8.86,8.86,0,0,1,10.37,2.67c.46.53,2.31-.17,1.79-.77a11,11,0,0,0-12.94-2.75c-.2.08-.86.51-.5.81,3.43,2.86,8,2,12.17,2,.76,0,2-1.16.74-1.15Z"/><path class="cls-3" d="M98.83,253.5c-5.85,0-12.34.09-17,4.08-.06.06-.15.2,0,.27,3.89,2,8.77.86,12.41-1.2.11-.06.31-.16.31-.3v-2.71c0-.33-2,0-2,.52V256A4.89,4.89,0,0,1,88,258.06a8.38,8.38,0,0,1-3.07-.28c-.06-.42-.14-.84-.21-1.25A11.06,11.06,0,0,1,88,255.12c3.06-.9,6.43-.81,9.59-.82.41,0,2.2-.8,1.24-.8Z"/><path class="cls-3" d="M85.76,287.08A3.77,3.77,0,0,0,84.62,290c0,.35.28.46.62.46H90.1c.46,0,1,0,1.26-.42s-.18-.58-.57-.58H85.94c.21,0,.42.32.63.51a3.05,3.05,0,0,1,.79-2.4.5.5,0,0,0-.23-.86,1.44,1.44,0,0,0-1.37.35Z"/><path class="cls-3" d="M87.61,289.51c.38.36,3,2.23,2.42,2.93-.66.88-.77,2.07-1.46,3-.2.26.05.53.32.57a91.1,91.1,0,0,0,15.75.93c.75,0,2-1.14.74-1.14-3.08,0-6.15,0-9.22-.17a50.42,50.42,0,0,1-5.06-.52c-.58-.09,1.06-3,1.22-3.22a.32.32,0,0,0,0-.42l-2.91-2.71c-.52-.48-2.34.26-1.79.77Z"/><path class="cls-3" d="M127.34,106.93c0,4.84.35,9.31,2.91,13.55.33.55,2.15-.15,1.93-.52-2.55-4.24-2.91-8.71-2.91-13.55,0-.44-1.93-.12-1.93.52Z"/><path class="cls-3" d="M127.4,130.13a12.65,12.65,0,0,0-3,8.53c.12,5.08.17,9.63-1.38,14.52-1.45,4.56-3.71,8.86-5.46,13.31a54.72,54.72,0,0,0-3,14.61,84.82,84.82,0,0,0,12.87,55.12c.36.55,2.23-.08,1.79-.77-10.6-16.33-14.41-35.32-12.73-54.59.8-9.11,4-16.66,7.43-25a33.08,33.08,0,0,0,2.67-11.74c.17-5.28-.89-9.41,2.64-13.93.54-.69-1.41-.56-1.81-.05Z"/><path class="cls-3" d="M131.41,80.93c4.19,1.23,8.55,1.8,12.8,2.76.58.13,2.27-.76,1.19-1C141.28,81.75,137,81.22,133,80c-.56-.16-2.3.69-1.55.91Z"/><path class="cls-3" d="M150.28,79.48h1c.45,0,1,0,1.26-.43s-.18-.57-.55-.57h-1c-.46,0-1,0-1.27.44s.19.56.56.56Z"/><path class="cls-3" d="M161.92,77.48h11.65c.82,0,2-1,.72-1H162.64c-.82,0-2,1-.72,1Z"/><path class="cls-3" d="M186.19,79.27a3.89,3.89,0,0,1,1.38.5,4.28,4.28,0,0,0,1.53.4,1.46,1.46,0,0,0,1.27-.55c.24-.4-.21-.63-.54-.64a4.07,4.07,0,0,1-1.39-.5,4.29,4.29,0,0,0-1.53-.41,1.47,1.47,0,0,0-1.27.55c-.24.4.21.63.55.65Z"/><path class="cls-3" d="M125.73,84.31c-5.42-.08-10.57-.59-15.55,2l1.34.64c.5-1.18.8-2.44,1.29-3.62a.48.48,0,0,0-.17-.64c-4.34-2.37-8.64-2.45-13.44-1.51-4.09.8-7.91,1.6-12.1,1.14-3.67-.4-7.26-1.76-10.88-2.47-.92-.18-2,1.1-.68,1.36C80.92,82.22,85.91,84,91.46,83.8c4.1-.17,21.71-5.44,18.22,2.9-.34.81.87.89,1.34.64,4.51-2.29,9.15-1.74,14-1.67.9,0,2-1.34.68-1.36Z"/><path class="cls-3" d="M194.88,72.76c3.27-.27,6.32-1.53,9.59-1.8.18,0,1.56-.28,1.38-.68-1-2.12-2.78-3.34-.42-5.21,3.36-2.67,8.63-1.22,12.37-.46,5.28,1.06,10.68-1.53,15.91-1.78.53,0,2.1-.9.82-.83A63.41,63.41,0,0,0,225,63.59c-4.26.86-8.3-.54-12.52-.81A13.38,13.38,0,0,0,201.72,67c-.06.06-.16.21,0,.27,1.27.68,1.68,2.33,2.22,3.54l1.38-.67c-3.27.27-6.32,1.53-9.59,1.8-.53,0-2.1.94-.82.83Z"/><path class="cls-3" d="M138.2,74.57c7.45,1.86,14.28,5.26,21.36,8.13.49.2,2.26-.55,1.56-.84C154,79,147.21,75.59,139.76,73.73c-.51-.12-2.23.68-1.56.84Z"/><path class="cls-3" d="M170.64,69.28c6.86.31,11.83,5.85,17,9.77.54.41,2.32-.36,1.8-.76-5.51-4.2-10.64-9.76-18-10.1-.72,0-2.06,1-.75,1.09Z"/><path class="cls-3" d="M187.91,70.21a11.9,11.9,0,0,1,6.49,4.34c.44.6,2.3-.09,1.78-.79a13.08,13.08,0,0,0-7.11-4.7c-.69-.22-2.28.8-1.16,1.15Z"/><path class="cls-3" d="M199.52,71a14.4,14.4,0,0,1,5.54,1.73,1.78,1.78,0,0,0,1.24-.1c.06,0,.9-.41.57-.56a15.71,15.71,0,0,0-6.1-1.88,2.45,2.45,0,0,0-1.37.36c-.31.2-.26.43.12.45Z"/><path class="cls-3" d="M173.06,136.21a5.17,5.17,0,0,0-.42,3.79,3.92,3.92,0,0,0,2,1.91c1.57.63,3-.59,3.44-2a5.15,5.15,0,0,0-.14-4c-.86-1.59-2.92-1-4.09-.12l-.09.07c-.29.22-.54.65-.13.91a1.35,1.35,0,0,0,1.38-.14,2.27,2.27,0,0,1,.64-.41c.11,0,.1,0,0,0,0,0,.3-.06,0,0,.21,0,0,0,0,0a.38.38,0,0,1,.27.14,1.23,1.23,0,0,1,.29.44,4.59,4.59,0,0,1,.08,2.93,3.34,3.34,0,0,1-.47,1l-.09.09c-.14.15.15-.11,0,0l.08,0c-.08,0-.25.08,0,0-.11,0,.26,0,.12,0,.3,0-.19-.08,0,0a3.22,3.22,0,0,1-1.34-1.37,4.39,4.39,0,0,1,.37-3c.46-.94-1.49-.84-1.83-.15Z"/><path class="cls-3" d="M178.61,129.89c-1.22,1.33-.45,2.6.79,3.59a4.15,4.15,0,0,0,3.2.44c2.11-.34,4.54-1.79,4.62-4.14.11-3.22-4-3.12-6.13-2.64a4,4,0,0,0-2.39,1.28c-.64.84-.48,2.3-.48,3.28,0,.23,1.93,0,1.93-.52,0-1-.21-2.81.82-3.48a5.26,5.26,0,0,1,2.43,0,2.52,2.52,0,0,1,1.83,2A3.2,3.2,0,0,1,183,133.3a2.45,2.45,0,0,1-1.95-.61c-1.13-.91-1.55-2.05-.53-3.17.21-.22-.72-.13-.75-.13a2.12,2.12,0,0,0-1.14.5Z"/><path class="cls-3" d="M182,132.13c-1.29,1.71-1.37,5.38,1.43,5.37,1.43,0,3.95-.92,3.7-2.69A4.34,4.34,0,0,0,186,133c-.26-.33-.39-.48-.84-.48h-1.49c-.34,0-1.45.14-1.35.68.07.37.3.63.37,1,.11.59,2,.11,1.93-.54-.06-.37-.3-.59-.37-1-.45.26-.9.83-1.35.83h1.49c-.17,0-.34-.17-.52-.22.52.71,1.49,1.53,1.35,2.49s-1.27.91-1.73.35c-.79-1-.37-3.06.32-4,.27-.36-.24-.5-.51-.5a1.73,1.73,0,0,0-1.28.5Z"/><path class="cls-3" d="M176.49,118.89V121c0,.16.2.24.3.26,1.51.34,4.57.16,4.42-2a1.64,1.64,0,0,0-1-1.3,3,3,0,0,0-2.92.61c-.33.25-.19.59.18.66a1.75,1.75,0,0,0,1.36-.36c-.06,0-.05,0,0,0s-.18.07,0,0c-.16.07-.1,0-.27.05.09,0,.07,0,0,0,0,0,.2,0,0,0a1,1,0,0,1,.23.12c-.1-.07.08.08.11.11s.15.19.12.14a1.63,1.63,0,0,1,.16.5.94.94,0,0,1-.06.44s0,0-.08.15,0,0-.12.11c.09-.06.1-.07,0,0,.21-.13,0,0,0,0,.14,0,.15,0,0,0,.24-.07,0,0-.08,0h-.36a3.45,3.45,0,0,1-.54-.11c.12.08.47.17.47.25v-2.07c0-.59-2-.23-2,.52Z"/><path class="cls-3" d="M176.44,153.27c-1.36,1.42-.14,3.48,1.61,3.67a3.47,3.47,0,0,0,3.6-1.93,2.36,2.36,0,0,0-1-3,4,4,0,0,0-2.41-.23c-1.44.21-1.49,1.59-1.49,2.79,0,.46,1.93.14,1.93-.52a4.44,4.44,0,0,1,.37-2l-1.12.6c1.56-.23,2.3,1.31,1.82,2.63a1.59,1.59,0,0,1-.45.68c-.13.11-.17.08.06,0a1.17,1.17,0,0,1-.49-.07,1.76,1.76,0,0,1-.64-2.72c.32-.33-.27-.45-.49-.45a1.92,1.92,0,0,0-1.28.5Z"/><path class="cls-3" d="M198.27,174.29a3.31,3.31,0,0,0-1.45,2.81,3.49,3.49,0,0,0,1.68,2.59c1.65,1.21,4.32.67,5.71-.7a2.91,2.91,0,0,0-.5-4.59c-1.61-1.13-4.4-1-5.36.9-.48,1,1.47.95,1.85.21.78-1.56,4.4,1.2,2.42,2.91s-5.38-1.51-3.08-3.28c1-.81-.53-1.42-1.27-.85Z"/><path class="cls-3" d="M200.92,171c-.06.38-.32.67-.38,1s.17.33.37.37c2,.43,5.3-.13,4.91-2.77,0-.22-.42-.19-.58-.19h-2.6c-.45,0-1.15.07-1.15.64v1.39c0,.55,2,.2,2-.52v-1.38c-1,.26-1.17.87-1.62.87h2.6c-.19,0-.38-.22-.58-.31.07.46.06,1.11-.44,1.33a2.45,2.45,0,0,1-1.34-.05l.36.37c.06-.38.31-.67.37-1,.12-.71-1.82-.37-1.92.25Z"/><path class="cls-3" d="M202,177.54c-2.23.15-4.6,2.23-4.37,4.63s3,3.27,5.11,2.87,4.37-2,4.2-4.32c-.21-2.82-3.72-3.47-5.46-1.74-.84.83,1,1,1.59.46s1.2.3,1.53.74a2,2,0,0,1,.25,1.89,3,3,0,0,1-2.8,1.8c-3.14,0-3.17-4.87-.26-5.06,1-.07,1.54-1.36.21-1.27Z"/><path class="cls-3" d="M196.82,189.86c.63,1.08,1.74,1.12,2.85.83.91-.23,2.07-.84,2.1-1.91a1.28,1.28,0,0,0-.73-1.05,2.87,2.87,0,0,0-2.19,0c-1,.35-2,1.37-1.28,2.47.3.46,2.07-.3,1.93-.51a1.26,1.26,0,0,1,0-1.51c.35-.41-.94,0-.58.1a1.46,1.46,0,0,1,.53.26,1,1,0,0,1,.35.67,1.12,1.12,0,0,1-.52,1,1.44,1.44,0,0,1,.43-.1,1,1,0,0,1-.34-.1,1.59,1.59,0,0,1-.65-.66c-.26-.46-2.07.27-1.93.52Z"/><path class="cls-3" d="M182,182.47c-1.65,3.33,5.7,4.76,6.37,1.37a2.13,2.13,0,0,0-.81-2.21,3.12,3.12,0,0,0-2.54.05c-1.36.49-2.7,2.25-.61,2.8a1.91,1.91,0,0,0,1.36-.21c.18-.1.65-.51.2-.63s-.82-.23-.78-.66a1,1,0,0,1,.55-.68c-.15.07-.15,0,0,.06a.92.92,0,0,1,.45.42,2.11,2.11,0,0,1,.12,1.72c-.23.63-1.08.24-1.61-.06a1.66,1.66,0,0,1-.82-2.26c.22-.44-1.64-.26-1.91.29Z"/><path class="cls-3" d="M223.68,137a1.79,1.79,0,0,0,.94,2.82,3.71,3.71,0,0,0,4-.86,1.8,1.8,0,0,0-.82-2.87c-1.18-.51-3.08-.28-3.8.91-.47.77,1.48.57,1.8,0,.16-.26.16-.11,0-.1a1.57,1.57,0,0,1,.81.25,1.15,1.15,0,0,1,.34,1.65c-.22.31-.74.11-1.13-.09a1.12,1.12,0,0,1-.35-1.71c.25-.38-.22-.55-.53-.56a1.56,1.56,0,0,0-1.27.53Z"/><path class="cls-3" d="M219.52,184.32a5.09,5.09,0,0,0,1.39,3.45,2.91,2.91,0,0,0,3.49.15c1.49-.8,2.92-3.25,1.52-4.72-1.08-1.14-3-1-4.37-.56-1.75.63-2.09,2.2-1.29,3.75.31.61,2.18,0,1.94-.51-.37-.72-.83-2,0-2.55l.15,0a1.47,1.47,0,0,1,.42,0,2.34,2.34,0,0,1,1.17.48c.91.71.64,1.87.1,2.71a4.51,4.51,0,0,1-.63.81c-.27.26,0,.17-.24.09a2.16,2.16,0,0,1-.87-.8,4.93,4.93,0,0,1-.87-2.79c0-.52-1.95-.16-1.93.52Z"/><path class="cls-3" d="M206.16,248.66a3,3,0,0,0-.39,1.75c.07.7.88,1.15,1.5,1.23a2.31,2.31,0,0,0,2.65-1.77,2.52,2.52,0,0,0-1.36-2.56,2.07,2.07,0,0,0-2.12,0,2.23,2.23,0,0,0-.7,1.93c0,1.06,2,.81,2-.13,0-.36-.06-.73.21-1l-.89.43c.65,0,1.08,1,.95,1.46,0,0-.12.26-.05.14-.12.19.1-.05-.08.09.18-.14.19,0,0-.07-.42-.15.06-1,.17-1.2.23-.44-.21-.82-.61-.88a1.23,1.23,0,0,0-1.25.61Z"/><path class="cls-3" d="M235.53,234.42c-.68,3.3,5.2,2.66,6.44.86a1.28,1.28,0,0,0-.23-1.51,3,3,0,0,0-2.56-.93c-1.81.07-4.05,1.39-2.92,3.41.29.5,2.11-.21,1.93-.52-.43-.76-.5-2.28.63-2,.71.16,1.84,1.16,1.2,1.94-.33.4-1,.3-1.47.17a1.43,1.43,0,0,1-1.11-1.74c.1-.48-1.81-.16-1.91.33Z"/><path class="cls-3" d="M244.18,231.77c-3-.14-5,1.94-3.73,4.87,1.35,3.08,5.31,3,7.93,1.78a4.22,4.22,0,0,0,2.09-5.68c-1.28-2.59-4.59-2-6.73-1.05-.18.08-.66.42-.23.53a2.2,2.2,0,0,0,1.35-.24c3.27-1.44,5.19,2.93,3.38,5.31-1.24,1.65-3.69,1.29-5.05,0a4.35,4.35,0,0,1-1.21-2.57c-.1-.66.06-2.17,1-2.13.43,0,2.22-.77,1.25-.82Z"/><path class="cls-3" d="M252.3,236.57a2,2,0,0,0,.92,2.94,2.79,2.79,0,0,0,3.54-1.33,1.65,1.65,0,0,0-.24-1.53,2.54,2.54,0,0,0-1.24-.92,2.27,2.27,0,0,0-3,1.71c-.2,1,1.78.73,2-.14a.93.93,0,0,1,.13-.35c0-.06.07,0-.07,0a.46.46,0,0,1-.2,0c.11,0,.11,0,0,0,.11,0,.11,0,0,0a2.34,2.34,0,0,1,.24.09,1,1,0,0,1,.54.94c0,.13-.46.28-.18.24-.11,0-.2,0-.41-.16a1,1,0,0,1-.13-1.33c.26-.43-.22-.78-.59-.83a1.29,1.29,0,0,0-1.26.6Z"/><path class="cls-3" d="M237.82,217.27c-3,4.28,4.06,5.38,6.72,3.58,1.9-1.28,1-3.24-.6-4.29s-5.27-1.66-5.82.85c-.16.74,1.79.43,1.94-.24a1,1,0,0,1,.11-.36c.12-.22-.16-.05.09-.05a3.22,3.22,0,0,1,1.1.22,4.64,4.64,0,0,1,1.92,1.28,1.35,1.35,0,0,1-.43,2.26,4,4,0,0,1-3.06-.37c-1.18-.66-.82-1.92-.17-2.83.51-.73-1.44-.56-1.8,0Z"/><path class="cls-3" d="M250.22,215c1.71.76,4.11.4,4.71-1.61,0-.15-.06-.24-.18-.3a4.74,4.74,0,0,0-3.08-.35c-1.09.25-1.69,1-1.27,2.08.24.6,2.14,0,1.93-.51a2.71,2.71,0,0,1-.17-.68c0-.35.22-.14-.32-.06a3.07,3.07,0,0,1,1.35.39l-.18-.29a1.41,1.41,0,0,1-.46.83c.17-.11.34-.05,0-.1a2.91,2.91,0,0,1-.8-.27,1.73,1.73,0,0,0-1.36.21c-.24.13-.6.47-.19.66Z"/><path class="cls-3" d="M223,240.9c-.87.9-.26,1.91.68,2.41a4.22,4.22,0,0,0,3.76.06c1-.44,2.94-1.7,1.79-3a4.92,4.92,0,0,0-3.65-1.19c-1.26,0-2.92.72-2.66,2.24a3,3,0,0,0,.37.87c.42.74,2.27,0,1.77-.85a1.56,1.56,0,0,1-.2-.54.32.32,0,0,1,0-.25c.05-.12-.13.14,0,0l-.06.06c0-.05.21-.13,0,0l.09,0c.19-.09-.24.07,0,0s.42-.09.09,0a4,4,0,0,1,.6,0c-.26,0,.12,0,.18,0l.36,0,.14,0c.24,0-.17,0,.06,0l.34.1.32.12c.21.09,0,0,.16.08l.2.12s.27.23.12.08a1.46,1.46,0,0,1,.16.19c0,.05,0-.1,0,.08s0-.11,0,.08,0,.06,0,0a.35.35,0,0,1-.06.14c0,.08,0,.06,0,0a.86.86,0,0,1-.13.14h0a.9.9,0,0,1-.19.15,3.65,3.65,0,0,1-.7.37,1.47,1.47,0,0,1-.93.11c-.34-.06-1.42-.52-1.05-.9a.54.54,0,0,0-.25-.92,1.33,1.33,0,0,0-1.36.36Z"/><path class="cls-3" d="M199.89,254.53a3.32,3.32,0,0,0-1.51,5.73c1.46,1.47,4,1.3,5.62.34a4,4,0,0,0,2.09-4c-.4-2.15-3.2-2.51-5-2.46a1.61,1.61,0,0,0-1.28.54c-.25.37.21.59.53.58,1.32,0,3.07.1,3.66,1.51a2.74,2.74,0,0,1-.67,2.78,2,2,0,0,1-2.69.31,2.92,2.92,0,0,1-1.44-2.16c-.14-.76,0-2,.9-2.15.29-.06.94-.36.84-.76s-.82-.29-1.1-.24Z"/><path class="cls-3" d="M201,259.27c-.75.67-2.26,1.8-1.38,2.92.69.89,2.15.56,3,.21s1.84-.89,2-1.81c.23-1.16-1.38-1.37-2.17-1.44a2.48,2.48,0,0,0-1.37.37c-.33.2-.24.36.11.39.58.06,1.48.22,1.52.95a1.07,1.07,0,0,1-.27.67,1.7,1.7,0,0,1-.3.3s-.17.13-.09.08-.28.16-.13.08c0,0-.26.12,0,0-.21.08.16,0,.17,0s.11,0-.05,0a1,1,0,0,1-.67-.55c-.5-.91.8-1.81,1.36-2.32.33-.29-.29-.3-.45-.29a2.3,2.3,0,0,0-1.29.46Z"/><path class="cls-3" d="M189.38,252.52a2.25,2.25,0,0,0,2.85,2.13c.81-.12,2.86-.79,2.45-2-.29-.85-1.44-1.19-2.22-1.24-1.11-.06-2.49.47-2.7,1.67-.12.66,1.81.32,1.92-.27a1,1,0,0,1,.26-.58.88.88,0,0,1-.49.17c.21,0,0,0,.24,0a1.68,1.68,0,0,1,1,.64.5.5,0,0,1,.05.47s-.09.08,0,0a1.31,1.31,0,0,1-.33.15h.06a1,1,0,0,1-.29-.08,1.16,1.16,0,0,1-.43-.33,2,2,0,0,1-.43-1.31c0-.52-1.95-.16-1.93.52Z"/><path class="cls-3" d="M133.8,255.75c-.59.24-1.35.64-1.36,1.37a1.8,1.8,0,0,0,1.1,1.43,4.39,4.39,0,0,0,4.9-.62c.81-.86.31-2-.49-2.67a3.58,3.58,0,0,0-4-.1c-.21.12-.63.48-.2.64a1.78,1.78,0,0,0,1.37-.2c.2-.12.1-.06,0,0a1.6,1.6,0,0,0,.25,0,2.22,2.22,0,0,1,.82.46,1.59,1.59,0,0,1,.65,1.57c-.19.69-1,.4-1.51.21s-1.52-1.16-.85-1.44c.17-.07.85-.4.54-.68s-.94-.1-1.26,0Z"/><path class="cls-3" d="M111,253.39c-1.74,1.45-1.73,3.7.28,4.89,1.8,1.06,4.56.23,6-1a2.65,2.65,0,0,0-.61-4.54c-1.54-.83-4.37-.9-5.42.76-.18.27.7.15.76.14.34-.06.94-.18,1.14-.5s-.29-.26.23-.21a4.08,4.08,0,0,1,1,.25,3.45,3.45,0,0,1,1.61,1.15,2.39,2.39,0,0,1-.48,3.13c-1.06,1-2.61.4-3.43-.61a2.51,2.51,0,0,1,.59-3.62c.33-.28-.3-.28-.45-.27a2.6,2.6,0,0,0-1.29.45Z"/><path class="cls-3" d="M107.16,248.61a1.71,1.71,0,0,0,.37,1.51,1.94,1.94,0,0,0,1.67.33,2.83,2.83,0,0,0,1.92-1.07,2.16,2.16,0,0,0,.19-1.81c0-.19-.42-.09-.55-.09H108.9c-.34,0-1.41.06-1.41.54v1.38c0,.38,2,.09,2-.51V247.5c0,.23-.95,0-1.41,1h1.86c-.19,0-.37-.26-.56-.31a2,2,0,0,1,0,1.26,1.07,1.07,0,0,1-.2.32l-.08.06c-.08.05-.08,0,0,0a1.23,1.23,0,0,1,.42-.14c.19,0,.24,0,.06,0a.74.74,0,0,1-.3-.23,1.42,1.42,0,0,1-.23-1.1c.07-.55-1.84-.18-1.91.32Z"/><path class="cls-3" d="M238.21,263.38c-.37.53-.75,1.17-.2,1.71a2.61,2.61,0,0,0,1.83.56c1,0,2.29-.51,2.33-1.66a1.74,1.74,0,0,0-1-1.64,2.61,2.61,0,0,0-1.91.27,2.51,2.51,0,0,0-1.1,1.22c-.17.35.68.29.8.27.36-.06.93-.21,1.12-.58a2.45,2.45,0,0,1,.41-.59,1.47,1.47,0,0,1-.93.22c.11,0,0,0,.17.09a1.55,1.55,0,0,1,.53,1,.92.92,0,0,1-.06.52c0,.14,0,.09-.11.18.13-.14-.12,0,.1-.08a1.39,1.39,0,0,1,.56-.16c-.22,0,.16,0-.09,0l-.19,0a1.42,1.42,0,0,1-.55-.27c-.43-.3-.15-.8.08-1.15s-.2-.42-.48-.41a1.8,1.8,0,0,0-1.28.49Z"/><path class="cls-3" d="M248.91,275a2.14,2.14,0,0,0,3.3.83c.95-.7,1.3-2.3.23-3a3,3,0,0,0-3.11.1,1.32,1.32,0,0,0-.68,1.06,1.84,1.84,0,0,0,.85,1.33c.65.52,2.36-.41,1.5-1.09a1.19,1.19,0,0,1-.39-.47c0-.08,0-.07,0,0,0-.06.05-.19,0,0,0-.08,0-.06,0,0,0-.06.16-.14,0,0l-.07,0c.06,0,.25-.1,0,0l.12,0c.22-.06-.24,0,0,0s-.12,0,.16,0c0,0,.25.05,0,0l.18.06c.09,0,.08,0,0,0l.15.11c-.15-.12.12.19.05.05a.87.87,0,0,1-.07.79.39.39,0,0,1-.16.23.54.54,0,0,1,.42-.11.71.71,0,0,1-.43-.44c-.34-.85-2.26-.3-1.94.51Z"/><path class="cls-3" d="M240,299.23a2.66,2.66,0,0,0-.32,2.12,2.12,2.12,0,0,0,1.68,1.16,4.55,4.55,0,0,0,4.27-1.33,2,2,0,0,0-.49-2.78,3.1,3.1,0,0,0-3.74.15c-.33.25-.49.73-.1,1a1.28,1.28,0,0,0,1.39-.11s.31-.18.18-.13c0,0,.33-.07.1,0,0,0,.31,0,.11,0a.84.84,0,0,1,.58.25,1,1,0,0,1,.32,1.11.78.78,0,0,1-.44.33,3.25,3.25,0,0,1-1.28.17c-1-.09-.76-1-.41-1.67.23-.43-.19-.77-.59-.82a1.27,1.27,0,0,0-1.26.59Z"/><path class="cls-3" d="M262.37,297.23c-1.43,2.88,1.36,4.47,3.94,4.36,1.59-.07,4.95-1.42,4.44-3.55-.37-1.53-2.53-2.18-3.87-2.29-1.72-.15-3.78.72-3.83,2.67,0,.84,1.92.45,1.94-.23a1.53,1.53,0,0,1,.39-1.17c.1-.07.18-.09.18-.1a2.8,2.8,0,0,1,.71,0,3.38,3.38,0,0,1,2.42,1.35c.68,1-.74,1.86-1.52,2.1-1.92.59-4-1.1-3-3.06.43-.86-1.51-.67-1.81-.07Z"/><path class="cls-3" d="M273.84,299.26c.07,1.37,1.71,1.59,2.78,1.4a2,2,0,0,0,1.66-1.16,1.28,1.28,0,0,0,0-1.1c-.91-1.73-4-1.11-4.41.72-.15.75,1.8.43,1.94-.24a1.05,1.05,0,0,1,.12-.38c.07-.11.12-.1,0-.05s-.37.08-.15.06c-.28,0,.12,0-.09,0a.75.75,0,0,1,.32.12.85.85,0,0,1,.15,1.38l.77-.47a.81.81,0,0,1-1.13-.8c0-.64-2-.24-1.94.52Z"/><path class="cls-3" d="M254.45,303.76a2.4,2.4,0,0,0-1.38,2.11,2.27,2.27,0,0,0,1.53,1.77,5.59,5.59,0,0,0,5.57-.85,2.3,2.3,0,0,0,1-1.91,2.39,2.39,0,0,0-1.51-1.74,6.63,6.63,0,0,0-5.34.15c-.34.15-.75.6-.46,1s.92.3,1.31.13a4.66,4.66,0,0,1,2.63-.3c.78.22,1.88.93,1.17,1.78a2.85,2.85,0,0,1-2.63.69,1.77,1.77,0,0,1-1.23-.82c-.24-.54.24-.88.65-1.13a.58.58,0,0,0,.1-1,1.3,1.3,0,0,0-1.38.12Z"/><path class="cls-3" d="M262.47,307.05a1.8,1.8,0,0,0-.44,1.46,1.64,1.64,0,0,0,1,1.06,2.91,2.91,0,0,0,3.4-.86c.63-1-.61-1.54-1.36-1.64a2.64,2.64,0,0,0-2.75,1.19c-.42,1,1.52.92,1.83.18,0,0,.13-.2,0-.09s-.07.06,0,0a.38.38,0,0,1-.17.08l.17,0c-.12,0-.12,0,0,0h.19q.16,0,0,0l.15.05c-.16-.05.15.13,0,0,0,0,0,0,0,0s0,0-.07.16l.29-.31s-.26.18-.15.12c-.24.13.16,0-.1,0,.13,0-.17,0-.17,0s-.21-.08-.16-.06a.51.51,0,0,1-.22-.81c.73-1-1.11-1.17-1.61-.51Z"/><path class="cls-3" d="M165.8,306.44c-1.36-.1-3.13.53-3.17,2.12a3.35,3.35,0,0,0,1.94,3,3.86,3.86,0,0,0,4.64-1.64,2,2,0,0,0-.63-2.36,3.74,3.74,0,0,0-3-.79c-.36,0-1,.23-1.11.64s.61.4.83.37a1.94,1.94,0,0,1,2.12,2.1c-.19.93-1,1-1.65.57a3,3,0,0,1-1.17-2,1.56,1.56,0,0,1,.11-.88.89.89,0,0,1,.16-.19c-.21.12,0,.05.18.06a1.6,1.6,0,0,0,1.28-.51c.28-.38-.24-.51-.51-.53Z"/><path class="cls-3" d="M97.86,280.13a1.56,1.56,0,0,0,.27,2.53,4.34,4.34,0,0,0,3.82,0c.92-.38,2-1.36.93-2.2a4.07,4.07,0,0,0-3.4-.46c-.14,0-1,.26-.89.53s.89.06,1,0c-.39.1-.21,0,0,0a2.36,2.36,0,0,1,.52.09,2.66,2.66,0,0,1,.92.42.8.8,0,0,1,.37.68.71.71,0,0,1-.17.36c-.1.14-.49.31-.14.21s0,0-.1,0a2.05,2.05,0,0,1-.54-.1,2.38,2.38,0,0,1-.86-.49c-.65-.59-.33-1.41.15-2,.22-.25-.72-.16-.76-.16a2.06,2.06,0,0,0-1.14.51Z"/><path class="cls-3" d="M85,272c-1.66,1.64-.78,3.62,1.1,4.58s4.67,1.07,6.34-.51c4.57-4.32-5.26-8.93-6.81-4.24-.37,1.09,1.57,1.14,1.85.27.43-1.29,2.3-.51,3.09,0a2,2,0,0,1,.1,3.39c-1.67,1-6.15-.77-4-2.86.87-.87-1-1.28-1.63-.63Z"/><path class="cls-3" d="M80.53,277.65a2.16,2.16,0,0,0-.55,1.71.49.49,0,0,0,.4.5,4.36,4.36,0,0,0,3.52-.22,1.6,1.6,0,0,0,.71-1.87,1.87,1.87,0,0,0-1.39-1.26,2.76,2.76,0,0,0-2.81,1.3c-.27.4.24.68.56.71a1.42,1.42,0,0,0,1.27-.57,1.42,1.42,0,0,1,.19-.22c.16-.17-.14.1,0,0h0c.18-.1-.24.06,0,0-.28.08-.15,0-.06,0-.11,0-.32-.06-.09,0-.21-.07,0,0,.08.06s0-.05.12.11l.17.24c-.08-.13.05.12.06.18a.86.86,0,0,1,0,.23c0,.16,0-.13,0,0a.71.71,0,0,1,0,.14c0,.21,0,0,0,.13s.12-.13,0,0,.17-.12,0,0l.07,0c-.06,0-.25.09,0,0-.06,0-.28.06,0,0a1,1,0,0,1-.24,0c.21,0-.09,0-.11,0l-.31,0c-.2,0-.4-.09-.6-.14l.4.5c0-.34-.07-.79.19-1.06a.47.47,0,0,0-.22-.83,1.47,1.47,0,0,0-1.37.37Z"/><path class="cls-3" d="M218.52,96.83c3,2.59,7.8.12,8.82-3.27,0-.15-.05-.2-.17-.25a15.87,15.87,0,0,0-6.34-1c-.4,0-1.17.19-1.36.59-.78,1.66-.21,2.72,1,3.89.41.38,2.18-.34,1.81-.68-1.14-1.08-1.66-2-.94-3.52l-1.36.59a17.54,17.54,0,0,1,4.09.36c.19,0,1.34.24,1.21.65a4.78,4.78,0,0,1-.73,1.42,2.75,2.75,0,0,1-4.25.5c-.43-.37-2.18.37-1.82.68Z"/><path class="cls-3" d="M142.49,227v2.77c0,.26.34.45.6.5,1.82.4,4,.5,5.59-.74s1.5-3,1.08-4.71a.54.54,0,0,0-.56-.35h-4c-.45,0-1,0-1.26.43s.18.57.56.57h4a1.34,1.34,0,0,1-.61-.26c.27,1.06.49,2.49-.27,3.42s-2.39.64-3.34.43a.91.91,0,0,1,.22.52v-2.77c0-.93-2-.57-2,.19Z"/><path class="cls-3" d="M146.88,240c-.39,2.43,1.06,4.54,3.7,4,3.09-.59,4-3.47,3.21-6.23-.07-.24-.39-.3-.6-.3H151a2.59,2.59,0,0,0-1.89.38,2.62,2.62,0,0,0-1.18,2.13c0,.84,1.93.44,1.93-.23a1.88,1.88,0,0,1,.81-1.62,3.59,3.59,0,0,1-1.15.34h3a1.53,1.53,0,0,1-.59-.26c.39,1.36.65,4.14-1.16,4.66s-2.06-2.06-1.88-3.14c.13-.8-1.82-.46-1.94.24Z"/><path class="cls-3" d="M131.39,225.72c1.48.43,3.75.12,4-1.75.29-2.09-2.61-3-4.12-3.31a1.24,1.24,0,0,0-1.25.59,1.9,1.9,0,0,0,0,2.12c.27.34.9.58.94,1,.07.89,2,.42,1.93-.52a1.74,1.74,0,0,0-.84-1.13c-.49-.39-.47-.72-.19-1.27l-1.26.59c1,.21,2.58.66,2.83,1.87a1.89,1.89,0,0,1,0,.31c-.07.19,0,.13-.14.2.1-.07-.11,0-.11,0a1.55,1.55,0,0,1-.67-.07,1.32,1.32,0,0,0-1.36.36.57.57,0,0,0,.25.95Z"/><path class="cls-3" d="M147,179.06c-3,0-7.85,1.3-6.9,5.28.53,2.19,2.67,3,4.74,2.72a6.77,6.77,0,0,0,4.92-3.15c1.17-2.26-1.52-3.49-3.28-3.88a1.41,1.41,0,0,0-1.37.37.53.53,0,0,0,.24.9c.95.2,3.14.74,2.67,2.18a3.92,3.92,0,0,1-2.62,2.12,2.53,2.53,0,0,1-2.67-4.18c1.06-.92,2.75-1,4.08-1,1.09,0,1.5-1.38.19-1.36Z"/><path class="cls-3" d="M143.49,175.63a8.29,8.29,0,0,0,3.56-.54,3,3,0,0,0,1.77-3c0-.22-.46-.25-.58-.25-1.06,0-2.55,0-3.32.88a.63.63,0,0,0,0,.92c.46.44,2.28-.28,1.8-.73-.1-.1-.06,0-.09-.18,0,0-.16.17-.33.22a3.87,3.87,0,0,1,1.13-.09l-.58-.25c0,.57-.11,1.56-.72,1.84a4.72,4.72,0,0,1-1.91.16,1.68,1.68,0,0,0-1.28.51c-.28.37.23.52.51.52Z"/><path class="cls-3" d="M144.29,184c-2.92.12-5.87,2-6.2,5.08-.4,3.83,3,5.67,6.45,5.06,2.34-.41,5.1-1.81,5.34-4.49.28-3.24-3-4-5.59-3.8-.49,0-2.11.89-.83.77,1.88-.18,3.85.32,4.42,2.32a3.91,3.91,0,0,1-2.11,4.25c-2.36,1.21-5.11-.61-5.69-2.92s.9-5.4,3.38-5.5c.5,0,2.11-.82.83-.77Z"/><path class="cls-3" d="M125.07,194.88a3.34,3.34,0,0,0,3,1.5c.91-.14,1.8-.63,1.83-1.62a1.17,1.17,0,0,0-1.17-1.18,4.72,4.72,0,0,0-3.66,1.93c-.29.33.25.4.47.39a1.92,1.92,0,0,0,1.29-.48,5.51,5.51,0,0,1,1-1l.08,0c.23-.13-.06,0,.07,0a.85.85,0,0,1-.39.09c.08,0-.09,0-.12,0,.16,0,0,0,.17.07a.57.57,0,0,1,.16.17,1.05,1.05,0,0,1,0,1c0,.08,0,0-.11.13a2,2,0,0,1,.78-.29c.23,0,.08,0,0,0,.17,0-.06,0-.1,0a1.4,1.4,0,0,1-.43-.24,5.61,5.61,0,0,1-1.15-1.08c-.35-.4-2.18.28-1.82.69Z"/><path class="cls-3" d="M115.49,153.17V156c0,.09-.11.15,0,.18,3.56,1,7.49-.19,7.6-4.4,0-.22-.51-.24-.63-.24a13.35,13.35,0,0,0-5.75,1.08c-.24.1-.65.28-.61.6.11,1,.87,1.77,1,2.78.06.57,2,.15,1.93-.52-.12-1-.89-1.76-1-2.78l-.6.61a9.68,9.68,0,0,1,4.22-.77l-.58-.24c0,1.21-.42,2.76-1.73,3.17a3.82,3.82,0,0,1-1.78,0c-.89-.14-.32-2.07-.32-2.77,0-.52-1.72-.18-1.72.52Z"/></svg>