<svg id="layer1" xmlns="http://www.w3.org/2000/svg" viewBox="0 0 325.35 258.95"><defs><style>.cls-1{fill:#563f20;}.cls-2{fill:#f6e5ac;}.cls-3{fill:#aead95;}.cls-4{fill:#492d0c;}</style></defs><path class="cls-1" d="M63,93.74c.67-.42,1.35-.82,2-1.22a6.31,6.31,0,0,0,5.3-1.06c.75-.55,1.47-1.12,2.16-1.7a6,6,0,0,0,4.41-.38A31,31,0,0,0,80,87.46c2.57,1.77,6.57,1.77,8.16-1.44a32.44,32.44,0,0,0,2.18-5.92,6.37,6.37,0,0,0,7.05.32,5.33,5.33,0,0,0,6.85-.58l.12-.13a7.15,7.15,0,0,0,1.18-.33,5.85,5.85,0,0,0,2.91.42,7.84,7.84,0,0,0,1.12.12c8,.17,11.7,6.29,12.3,13a57.38,57.38,0,0,0-1.55,5.67h-.07c-9.45-1.18-19.76-.82-27.73,4.07a6.45,6.45,0,0,1-.5-1.9c-.55-6.77-11.82-6.76-11.26.08a19.14,19.14,0,0,0,2.3,7.25,4.66,4.66,0,0,0-2.3,4.37,9.75,9.75,0,0,0,.18,1.73c1.06,9.36,4.12,18.38,7.82,27.13a4.83,4.83,0,0,0-.09,3c.56,2,1.25,3.86,2,5.75.35,1.07.74,2.12,1.18,3.16a81,81,0,0,0,3.55,8.33,4.65,4.65,0,0,0,1.73,1.9c.46.82.91,1.63,1.36,2.46a4.83,4.83,0,0,0,3.22,2.48c1.45,2.83,2.91,5.67,4.35,8.51a5.54,5.54,0,0,0-2.16,3.83c-1.36,14.92-.37,30.31,5,44.46a13.06,13.06,0,0,0-2.68,3.68c-3.14,6.12,6.56,11.52,9.71,5.37.07-.13.13-.26.19-.4a5.61,5.61,0,0,0,6.76-5.23,21.65,21.65,0,0,0-.77-6.17,4.81,4.81,0,0,0,.77-2.55c0-2.38.19-4.74.43-7.1a4.83,4.83,0,0,0,2.66-4.53c0-3.58-.2-7.28-.32-11,0-.31.1-.62.16-.93a4.54,4.54,0,0,0,1.51-2.64,101.5,101.5,0,0,0,1.68-18,5.32,5.32,0,0,0,5.44-2.51A40.63,40.63,0,0,0,137,166.9h1c.16,1.69.76,3.39.76,5.1v27.61c0,2,.42,3.43,1.86,4.27.35,1.87.45,3.71,1,5.54,1,5.42,1.79,10.84,2.75,16.26,0,.15,0,.3,0,.44l-.11.11-.11.09c-5,4.94,2.89,12.48,7.91,7.54,3.15-3.09,6.53-9.56,4-13.69-.13-.19-.27-.39-.42-.57.7-2.2,1.3-4.41,1.78-6.62a4.72,4.72,0,0,0,.74-1.86c1.34-7.31,3.24-14.74,2.94-22.12l.21-.19a59.77,59.77,0,0,0,12.12-16.69c.3,3.2,3.53,6.06,6.91,5.08.86,3.08,1.81,6.11,2.92,9.09a97,97,0,0,1,.86,14.78,5,5,0,0,0,.94,3,4.84,4.84,0,0,0-2.28,5.61c.31,1.11-.46,1.08-1.62,2.1-5.31,4.69,2.64,12.2,7.93,7.54l0-.05a5.53,5.53,0,0,0,6.05-3.8c.29-1.05.56-2.09.84-3.12a6,6,0,0,0,.71-1.24,47,47,0,0,0,3.1-15.1c2.55-.43,4.86-2.38,4.8-5.2-.11-5.55-1.82-10.58-3.28-15.9a4.93,4.93,0,0,0-1.77-2.67c-.16-.72-.31-1.45-.45-2.17,1.31-.25,2.61-.54,3.91-.85,9.91-1.62,19.43-4.59,25.78-11.47a5.6,5.6,0,0,0,9.56-1.86c.32-.86.63-1.73.93-2.6,0,.24.08.48.13.72a6,6,0,0,0-1.16,4.81c3.26,21,10.37,41.38,12.1,62.58.55,6.77,11.73,6.76,11.17-.08-.51-6.25-2-12.43-3.18-18.58.68-.81.39-1.88.39-3.21v-5.82c0-1.11.41-2-.08-2.78-.66-4.16-1.05-8.29-1.84-12.43a5.65,5.65,0,0,0,1.52-2.27c7-20.94,12-43.15,12.15-65.18.09-10.93-.85-22.24-4.51-32.67a59,59,0,0,0-6.51-13.59c-2.79-4.12-5.49-8.58-11.15-8.58a5.4,5.4,0,0,0-5,3.14.57.57,0,0,0-.08-.13,4.28,4.28,0,0,0-1.66-2.89c-.37-.3-.75-.61-1.14-.91A36.26,36.26,0,0,0,222.1,43.33a5.32,5.32,0,0,0-2.85,0,13,13,0,0,0-7.63.19,14.38,14.38,0,0,0-4.2,2.45,12.22,12.22,0,0,0-2.83-4.1,5.71,5.71,0,0,0-6.24-1c-3.33-1.3-8,.6-8,4.82,0,8.61-.15,18.1-4.59,25.89a38.92,38.92,0,0,1-2.73,4.1,27.58,27.58,0,0,1-3.23,1.85c-7.85,3.78-17.06,4.94-26.07,4.72A4.48,4.48,0,0,0,151,77.31l-3.08-1.46c-1.71-.8-4-1.13-5.67,0l-.46.32A9.43,9.43,0,0,0,137.59,78a5,5,0,0,0-1.49,5.08l0,0a16.6,16.6,0,0,0-4.43-1.83,32.21,32.21,0,0,0,2.05-12.5,4.7,4.7,0,0,0-1.5-3.6A3.69,3.69,0,0,0,132,63a30.55,30.55,0,0,0-6.62-9.81A5,5,0,0,0,122.71,51,27.31,27.31,0,0,0,111,46.24a6.61,6.61,0,0,0-4.11.56c-1-3-4.34-5.16-7.88-2.94s-7.12,4.46-10.41,7c-1.36-3.47-6.4-4.26-9.29-1.69a5.42,5.42,0,0,0-4.52,3.72c-1.8,5.61-1.74,11.59-1.74,17.39a5.17,5.17,0,0,0,.4,2c-.25.32-.48.64-.7,1-.89,1.12-1.76,2.21-2.66,3.27a5.79,5.79,0,0,0-2.15.2c-4.45,1.26-10.17,4.6-12.14,9C52.14,90,57.72,97,63,93.74Zm190.57,46a4.22,4.22,0,0,0,1.27-1.45,66.77,66.77,0,0,0,2.84-6.27q-1.1,7.77-2.79,15.44A67.66,67.66,0,0,0,253.55,139.78ZM229.87,76.14c.21-.32.42-.64.64-1,.21.47.41.94.6,1.42l-.89,1.14C230.11,77.22,230,76.68,229.87,76.14Zm-65.37,33.5a61.31,61.31,0,0,1,1.17-6.64c.24-1,.52-2,.85-3,.19.46,1.22,2.14,1,1.54.12.29.22.58.32.87a34.51,34.51,0,0,0-3.19,7.61C164.59,109.87,164.54,109.75,164.5,109.64Zm-9.57-17c.62,0,1.24,0,1.86,0a17.07,17.07,0,0,0-1,1.59C155.52,93.74,155.23,93.21,154.93,92.69Z"/><path class="cls-1" d="M146,30.2c.83.79,1.66,1.6,2.48,2.43,3.72,2,7.31,4.1,10.87,6.32a6.07,6.07,0,0,1,4.78,3.29,6.72,6.72,0,0,1,1.76,1c.25-.05.5-.09.76-.12a4.61,4.61,0,0,1,1.05,0,8.17,8.17,0,0,1,5.12-1.45c3.51,0,6.63,3.35,5.48,6.67-1.65,4.75-4.62,8.57-8.66,10.62a4.88,4.88,0,0,1-5,2,5.59,5.59,0,0,1-1.91,0c-2.92,2.29-7.23,1.79-8.91-1.79a6.57,6.57,0,0,1-3.18-3A5.73,5.73,0,0,1,147.88,54c-2.85-4.06-5.54-8.23-8-12.5-.61-.82-1.23-1.63-1.9-2.4A5.51,5.51,0,0,1,136.52,35C135.59,30.33,141.77,26.19,146,30.2Z"/><path class="cls-2" d="M111.17,43.4c5.37.89,10,4.26,14.23,7.85,5.37,4.51,10.31,9.44,15.71,13.91C147.9,70.78,156,76,164.54,76.48a5.8,5.8,0,0,0,6.6,3.25c11.85-2.14,19-11.9,20.85-22.64a5.37,5.37,0,0,0-.81-4c0-1.32.62-2.65-.38-4V45.82c0-.11,0-.08-.26,0a33.77,33.77,0,0,0-6.44-14.81,63.35,63.35,0,0,0-5.38-7.18c-.43-.49-3.11,1.94-2.5,2.65s1.11,1.33,1.66,2c-.18.31-.28.58-.2.73.9,2.47,2,5,3.12,7.57a45.16,45.16,0,0,1,2.3,9.39c-.06.37-.12.74-.19,1.11a6.8,6.8,0,0,0-2.13,2.06,56.36,56.36,0,0,0-1.95,7.11,40.74,40.74,0,0,1-2.87,7.1,5.3,5.3,0,0,0-4.42.58,14.13,14.13,0,0,1-3.39,1.44c-.48-.27-1-.55-1.4-.85a25.48,25.48,0,0,1-3.85-2.95c-3.38-2.93-6.48-6.1-9.53-9.32-8.65-9.14-26.5-32.82-42-21.74a6.2,6.2,0,0,0-2.8,4.28C106.14,37.85,106.42,42.62,111.17,43.4Zm75.68,1A36.12,36.12,0,0,1,188.31,50c0,.06,0,.12,0,.19s-.05.42-.07.64a6.3,6.3,0,0,0-1.2-.27,22,22,0,0,0-.12-4.37Q186.91,45.32,186.85,44.43Z"/><path class="cls-2" d="M76.91,42.86a12.14,12.14,0,0,1,2.37-3.31A4.72,4.72,0,0,1,80.9,36a14.86,14.86,0,0,1,1.68-1.12,5.13,5.13,0,0,1,3.71-3.23,17.34,17.34,0,0,1,7.78-1.55A5.57,5.57,0,0,1,99.72,35a3.54,3.54,0,0,1,.33.19c2.46,1.73,3.69,4.56,2,7.26-1.4,2.25-5.11,3.56-7.57,2h-.4a10.78,10.78,0,0,1-4.58,1.08,12.69,12.69,0,0,1-2.24,3.85,4.67,4.67,0,0,1-4.43,1.57C79,51.3,74.57,47.26,76.91,42.86Z"/><path class="cls-2" d="M32.73,78.61a2.52,2.52,0,0,0,1.14.39,1.81,1.81,0,0,0-.39,1.34A2,2,0,0,0,35,81.93a5.8,5.8,0,0,0,2.3-.06c2.35,3,4.8,5,6,2.31a1.39,1.39,0,0,0,.12-.76c1,0,1.93-.72,1.51-1.91,0-.09-.07-.19-.11-.29a1.36,1.36,0,0,0,.2-.75,9.6,9.6,0,0,0-.11-1.28l.85-.36a60,60,0,0,0,17-4.21A1.63,1.63,0,0,0,64.9,74l.23-.42c1.27-.6,2.53-1.23,3.77-1.91,1.75-1,.43-2.77-1.11-3,1.49-2.65,3.06-5.25,4.82-7.77a1.43,1.43,0,0,0-.59-2c.28-.89.53-1.79.75-2.71a1.52,1.52,0,0,0-.67-1.61c.13-.5.25-1,.37-1.52s.21-.82.3-1.23c.42-2-3.15-3-3.6-.91-.08.36-.18.72-.26,1.09-2.78,10.66-12.15,19.72-24.6,18.49C32.6,69.33,27.79,59.93,29.08,50.08c1.2-2.93,2.5-5.83,3.6-8.81.21-.57-.21-.92-.84-1.06a54.51,54.51,0,0,1,5.28-9.79,1.22,1.22,0,0,0,.22-1,.56.56,0,0,0-.21-.49c-.65-1-2.48-1.43-3.3-.24a53.18,53.18,0,0,0-3,5,65.52,65.52,0,0,0-4.5,8.46c-.62-1.17-2.52-1.86-3.25-.42C16.76,54.23,21,70.36,32.73,78.61Zm19.45-5.52a25,25,0,0,0,9-4.17c-.06.16-.4.32-.4.48h0c0,.13.29.26.25.4s.16.2.15.3l-.22,0a1.42,1.42,0,0,0-1.18,1.52v.43a74.78,74.78,0,0,1-8,2.25V73.2S52.18,73.13,52.18,73.09ZM41,73.14a23.36,23.36,0,0,0,3,.51l1,.07-2.29.89a1.83,1.83,0,0,0-.92-.24Q41.39,73.74,41,73.14Z"/><path class="cls-2" d="M89.21,83c.16,3.44,1.38,7,1.54,10.48,0,1,2.09,1.33,3.13.92a1.94,1.94,0,0,1,0,.2c-.22.92,1.35,1.37,2.45,1.36,3.45,3.28,8.41,7,12.87,4.95,2.86-1.3,3.6-4.66,3.64-7.6C114.64,91.8,116,90,116,88.11c0-.55-.44-.9-1-1.11a15.39,15.39,0,0,0,1-3.25c.16-.87-1.43-1.35-2.1-1.37a50.69,50.69,0,0,0-7.13.13,3.72,3.72,0,0,0-1.77,0l-.69.34a17.21,17.21,0,0,0-3.9,1.22l.16-.37c.43-1.1-2.94-2-3.53-1.07a12.5,12.5,0,0,0-1.42,2.83c-.17.29-.34.47-.51.74a4.08,4.08,0,0,1,.7-2.45C96.62,82.68,94,82,93.39,82H90.3A1,1,0,0,0,89.21,83Zm21.27,1.42L112,84.3a14.08,14.08,0,0,1-.56,1.58A6.86,6.86,0,0,0,110.48,84.39ZM109,89.71c-.3.32-.61.63-.94.92.11-.49.22-1,.36-1.44l.5-.09C109,89.3,109,89.5,109,89.71Zm-8.5,6.87a10.42,10.42,0,0,0,5.17.19,14.91,14.91,0,0,0,3-1c-.52,2-1.6,4.15-3.75,3.51A12.08,12.08,0,0,1,100.53,96.58ZM98.9,90a3.32,3.32,0,0,1,.28-.84c.88-.56,1.77-1.12,2.67-1.66-.18.47-.35,1-.5,1.44C100.52,89.21,99.71,89.56,98.9,90Z"/><path class="cls-2" d="M130.84,86.67a1.24,1.24,0,0,0,.22,2,2.08,2.08,0,0,0,2.06-.16,3.07,3.07,0,0,0,.36.27c5,8.25,13.63,7.61,21.86,4.59a5.46,5.46,0,0,0,1.56.3.52.52,0,0,0,.42-.19c.05-.07.1-.2.14-.27a.78.78,0,0,0-.13-.83c1-.49-2-2.42-2.57-2.42h-2.63c-.22,0-.35.26-.41.33s-.34.11-.47.1c-4.23-.07-9.7-.66-13.89-2.49a5.09,5.09,0,0,0-.14-2.56A4.63,4.63,0,0,0,135.78,84a2,2,0,0,1,0-.25c0-.92-1.22-1.23-2-1.08a2.2,2.2,0,0,0-1.05.51c-.36,0-.55,0-.36.37a0,0,0,0,0,0,0,1.75,1.75,0,0,0-.27.88,2.08,2.08,0,0,1-.39,1.21l-.21.26-.24.25Zm5,2.18a.61.61,0,0,1,.07-.1,35.34,35.34,0,0,0,7.27,2.33,2.44,2.44,0,0,0,.27.3c-.46.12-.93.23-1.39.33A18.25,18.25,0,0,1,135.81,88.85Z"/><path class="cls-2" d="M49.6,91.59A63.48,63.48,0,0,1,62,90.77c1.92-1.07,3.87-2.1,5.75-3.23a.86.86,0,0,1,.27-.12,36.26,36.26,0,0,0,3.54-3.58c1.42-1.7,1.22,1,.64,1.86q-.4.6-.78,1.2a29,29,0,0,0,2.48-2.72c.47-.6,1.61-1.39,1.6-.09,0,.06,0,.11,0,.17l.41-.43a24.92,24.92,0,0,1,5.59-6c1.62-1.23.51,2,.07,2.46-.9,1-1.82,2-2.75,3.06a3.45,3.45,0,0,1-.75,1.89c-1,1-1.9,2-2.84,2.93-.28.55-.55,1.11-.8,1.68-.5,1.14-2,2-2.08,1.13a24.92,24.92,0,0,1-2.47,2c-1.09.75-1-.26-.67-1.21l-.51.61c-1,1.27-1.94.79-1.39-.69.21-.55.44-1.08.67-1.62-1.3,1.16-2.63,2.29-3.94,3.48-.67.6-1,.56-1.12.21l0,0a10.45,10.45,0,0,1-4.93,1.89c-.77.09-.52-.79-.06-1.64a53.59,53.59,0,0,0-9.58.82C47.27,95,48.43,91.82,49.6,91.59Z"/><path class="cls-3" d="M24.78,79.53s3-1.55,2.76-2.39c-2.9-8.92-3.77-18-1.87-26.62a1.4,1.4,0,0,1,.16-.1c.52-.33,2.43-1.27,2.72-2.07A96.4,96.4,0,0,1,35.78,33c-5.45,13.18-17,31.18-3,39.85v0s-.55.07-.54.11c.16.06-.11.12,0,.19a19.32,19.32,0,0,0,3,1.69c1.14.72,2,1.5,3.17,2.24.36.23.74-.51,1.42-1.23a2.17,2.17,0,0,0,.87-1.88v-.82s.82-.08.81-.11c-2.7-1-4.46-2.34-7.16-3.3-.16-.06-.37,0-.65.17-12.5-9.94,1.82-30.86,6-43.82a11.5,11.5,0,0,0-2.54,1.76,59.5,59.5,0,0,0-3.67,5.34A12.79,12.79,0,0,0,32,34.42C20.91,47.64,19.64,63.77,24.78,79.53Zm.87-29.06A39.84,39.84,0,0,1,29,41.11C27.79,44.2,26.74,47.34,25.65,50.47Z"/><path class="cls-3" d="M156,66.72c5.26,4.33,10.69,3.16,15.1-.32-.8-.1-1.44-.32-1.18-.7,3.59-5.17,6.5-10.78,10.52-15.69.3-.36,1.94-.45,2.93-.21,0-.28.08-.56.13-.84-.28-.11-.47-.26-.5-.45-.4-2.58-.83-5.16-1.37-7.71a44.2,44.2,0,0,0-3-7c-.13-.25.22-.43.74-.53a44.31,44.31,0,0,0-6-9.38c-.4-.47,3-.85,3.64-.1a48.11,48.11,0,0,1,9.7,16.67c0,.15-.25.28-.68.36.25.79.48,1.58.7,2.37.46.12.81.31.85.57s.11.75.17,1.12c.33.1.58.22.65.38,2.73,5.75,1.86,12.19,1.81,18.32,0,.77-3.6.66-3.75-.21-.22-1.41-.39-2.82-.54-4.23a4.76,4.76,0,0,1-1.61-.26,37.16,37.16,0,0,1-3.82,6.49c-.42.58-3.69.49-3.67-.35,0-.12,0-.23,0-.35-6.49,6.34-16.21,9-24.51,2.16C152,66.55,155.15,66.05,156,66.72Z"/><path class="cls-3" d="M85.51,43.9a53,53,0,0,1,10-9.41c1.08-.79,3.24-.46,2.17,1.14-.56.85-1.07,1.72-1.57,2.6.95-.72,1.9-1.43,2.9-2.09a2.2,2.2,0,0,1,1.7-.34c1.06-.22,2.22.24,1.35,1.49a.86.86,0,0,0-.07.1c1.19,0,1.77,1.27.31,2.23-2.88,1.89-5.43,4.14-8.73,5.38A1.05,1.05,0,0,1,92,44c-1.1.31-2.43-.08-1.52-1.43.33-.5.63-1,.93-1.51a51.2,51.2,0,0,0-3.66,4C86.53,46.59,84,45.74,85.51,43.9Z"/><path class="cls-3" d="M114.32,39.52c.57,0,1.71-.1,1.73-.4.06-1.52,2.65-3.15,2.56-.83a4.62,4.62,0,0,1-.25,1.26,14.37,14.37,0,0,1,2.54.38,24.11,24.11,0,0,0,3.07.42c.7,0,.88.61.77,1.27a18.63,18.63,0,0,1,4.15,3.92c.89,1.09-1.1,4.06-2.09,2.84a14.2,14.2,0,0,0-6.18-4.86c-2.44-.22-4.85-.62-7.31-.68C111.6,42.8,112.94,39.61,114.32,39.52Z"/><path class="cls-3" d="M106.92,64.25c.14-.23,1.63.6,1.76.67a12.28,12.28,0,0,1,4.51,4.27c.66-.85,1.65-1.63,1.79-1.26.8,2.26,1.55,4.52,2.22,6.82.35.19.39.92.41,1.44a2,2,0,0,1-.22.9c0,.11.1.23.14.34l-.1-.05-.17-.06a5.29,5.29,0,0,1-.64.87c-.11.13-1.17,1.23-1.33.63-.06-.23-.13-.46-.2-.69-.85.31-1.84.42-2.15,0a9.52,9.52,0,0,0-2.67-2.29,13.5,13.5,0,0,0-1.3-.69l-.11,0a1.22,1.22,0,0,1-1-.14c-1.18-1.26,2.54-2,3.53-1.72.25.08.49.17.73.27,0-.74,0-1.48,0-2.18a.53.53,0,0,1,0-.12c-.61-1.16-1.26-2.31-2-3.42-.36-.56-.75-1.1-1.16-1.62-.25-.33-1.61-1.43-.52-.86C108.3,65.26,106.78,64.49,106.92,64.25Z"/><path class="cls-3" d="M90,84.86c1.09-2.2,4.89-2.19,7.08-2.29.66,0,.47.9.38,1.22-.22.86-.46,1.74-.62,2.62l.14-.06a1.38,1.38,0,0,1,.37-.32l.61-.24c.6-.39,1.17-.82,1.69-1.19.93-.65,1.27-.35,1.28.22,2.09-.56,4.21-.92,6.38-1.4,1.64-.35.11,2.78-1,3a78.4,78.4,0,0,0-7.68,1.73,4.29,4.29,0,0,1-1.47.64,7.55,7.55,0,0,1-2.25.93c-.62.13-.81-.3-.76-.81a19.92,19.92,0,0,1,.63-3.22,25.85,25.85,0,0,0-3.27.51,16.44,16.44,0,0,0-.93,9.24c.19,1.09-2.31,3.61-2.58,2A20.13,20.13,0,0,1,90,84.86Z"/><path class="cls-3" d="M81.6,63.54c-.61-.36-1.09-.74-1-.92A3.83,3.83,0,0,1,82,61.1a20.54,20.54,0,0,1,2.14-1,1.34,1.34,0,0,1,1,.15,7.49,7.49,0,0,1,2.94-.72,6,6,0,0,1,2.58.59c.61.3.5.59-.16.6a5.15,5.15,0,0,0-2.17.58c-.37,1.43-1.61,2.3-3,3a10.34,10.34,0,0,0-1.18,2.84c-.14.61-3.8-.19-3.65-.83A9.68,9.68,0,0,1,81.6,63.54Z"/><path class="cls-3" d="M119.1,60c-.19-.18,1.52-.93,1.61-1,.3-.12,1.53-.7,1.86-.4l.85.81,2.65,2.5s0,.1-.11.18a12.19,12.19,0,0,1,1,1.47c.18.32-3.19,1.85-3.47,1.36a13.85,13.85,0,0,0-2.16-2.81l-.18-.11-.65.22c-.07,0-1.57.46-1.36.12a3.8,3.8,0,0,1,1.28-1.14l-.54-.51Z"/><path class="cls-3" d="M55.66,89.2C64.2,86,74,83.12,79.54,75.73c1.43-1.9,3.13.3,1.93,1.9-6,8-16,11.16-25.22,14.6C54.08,93,54,89.81,55.66,89.2Z"/><path class="cls-3" d="M140.5,189h0s0-.17,0-.2a41,41,0,0,1,1.62-5.18c.45-1.52.91-3.06,1.37-4.58-.95,0-1.87-.6-1.62-1.69.29-1.25.65-2.49,1.05-3.72-1.12.81-3.28.38-2.81-1.24a38.76,38.76,0,0,1,2.71-6.71c1.9-4.57,3.9-9.1,6.21-13.51.62-1.19,3.42-1.72,3.37.16,0,.2,0,.39,0,.59a1.14,1.14,0,0,1,.73,1.88l-1.18,1.88c-1,5.6-3.47,10.87-5.27,16.32a1.6,1.6,0,0,1,.29.44c.59.13,1,.65.73,1.58.53.08.95.51.94,1.35a53.18,53.18,0,0,1-1,9.38,1.45,1.45,0,0,1,.07.53c0,4.37,0,9.2-.85,13.5a2.25,2.25,0,0,1-1.69,1.88h0a1.1,1.1,0,0,1-1.28-1c0-.1,0-.2,0-.29a1.65,1.65,0,0,1,.11-.57,44.1,44.1,0,0,0,.64-6.05c-.83.32-1.72.05-1.62-1.23a16.19,16.19,0,0,1,1.47-5.37c.29-1.3.52-2.61.7-3.92-.07.15-.13.3-.19.45-.55,1.85-1.11,3.69-1.74,5.52-.51,1.46-3.35,2.2-2.87.13C140.42,189.16,140.46,189,140.5,189Z"/><path class="cls-3" d="M145.26,204.75c.81,0-.57,3.11-1.51,3.11S144.32,204.75,145.26,204.75Z"/><path class="cls-3" d="M203.42,161.21c2.34-1.49,4.58-3.07,6.74-4.74-.85-.45-1.1-1.68.12-2.5,2.3-1.56,4.58-3.14,6.82-4.76-.13-6.49,3.26-12,7.65-16.84a1.2,1.2,0,0,1-.4-1.29,28.61,28.61,0,0,0,.53-6.48,4.13,4.13,0,0,1-1.18.24c-1.48,0-1.79-1-2.94-1.29-2.13-.61,0-3.42,1.79-2.91s1.31,1.75,3.13-.21c1-1.12,3.28-.83,2.92.92a53.48,53.48,0,0,0-.45,7.14,15.84,15.84,0,0,0,1.42-.94c1.54-1.18,3.57.57,2.08,2-5,4.77-10.34,10.28-11,17.05l1.59-1.22a115.75,115.75,0,0,0,12.06-15.69c1.16-1.8,4.07-.62,2.81,1.35q-2.64,4.09-5.59,8c.69.25,1.08.85.43,1.75-3.29,4.59-6.86,9.19-12.34,11.56a98.76,98.76,0,0,1-14.78,11.59C202.78,165.17,201.59,162.38,203.42,161.21Z"/><path class="cls-3" d="M227.3,62.19c2.82,4.48,5.38,9.08,8.77,13.21,1,1.17,3,.11,3.06-1.2,0-.53,0-1.06.07-1.59,1.15,2.77,2.29,5.54,3.66,8.21a1.62,1.62,0,0,0,2.37.55c.13,3.18,1.13,6.21,2,9.36.36,1.3,1.91.94,2.72.19,0,.25.09.5.13.76-1.82,3.64-3.81,7.21-5.71,10.78-.4.76,3.12.57,3.62-.37,1.16-2.17,2.34-4.34,3.5-6.53a1.86,1.86,0,0,0,2-.46,86.57,86.57,0,0,1,2.57,8.35q-.6,2.56-1.1,5.15a158.89,158.89,0,0,1-8.56,18c-1.09,2,2.17,2.74,3.17.85,2.22-4.21,4.46-8.51,6.43-12.92a2,2,0,0,0,1.57-1.55c.07-.41.15-.82.23-1.23.23,1.37.45,2.74.63,4.11.14,1.08,3.82.41,3.66-.79A109,109,0,0,0,260,103.84,54,54,0,0,0,261.92,94a1.4,1.4,0,0,0-1-1.55,27.79,27.79,0,0,0-2.36-12.76c.32-1,.61-2.1.86-3.17s-3.41-.55-3.62.4c-.06.25-.13.56-.2.82-.24-.88-.5-2-.79-2.83a1.53,1.53,0,0,0-1.37-.94h-.88a2,2,0,0,0-1.75,1.28,63.39,63.39,0,0,0-11.31-11c-.16-.32-.31-.56-.47-.88a1.51,1.51,0,0,0-2-.64,31.27,31.27,0,0,0-7.68-3.4C227.56,58.83,226.52,60.94,227.3,62.19Zm30.11,33c-.14-.4-.3-.8-.45-1.2a2.24,2.24,0,0,0,.55-.24C257.48,94.18,257.45,94.66,257.41,95.14Z"/><path class="cls-3" d="M92.5,127.66c.9,2.63,1.63,5.29,2.26,8,.61-.28,1.19-.21,1.3.59.58,4.09.78,8.25,1.58,12.31a24,24,0,0,0,.63-5.07c0-1.26,3-3.25,3-1.46a127.62,127.62,0,0,0,.63,14.65,63.71,63.71,0,0,0,.7-9.06c0-1.21,2.88-3.33,3-1.46.63,6.61.32,13.27,1,19.87l0,0a69.29,69.29,0,0,0,2.09-7.22c.29-1.29,3.43-2.82,3-.77a82.4,82.4,0,0,1-4.44,13.36,65.39,65.39,0,0,1,.29,7.41c0,1.45-3.45.17-3.45-1.14a43,43,0,0,0-.83-10.44.64.64,0,0,1,.25-.77c-.11-1.23-.2-2.47-.26-3.71-.11.36-.21.72-.33,1.07-.2.58-2.6,3-3,1.42a74.11,74.11,0,0,1-1.57-11.8v0c-.28.55-2.37,2.43-2.82,1.05a49.43,49.43,0,0,1-1.87-9.77c-.74.41-1.54.44-1.69-.44L89.5,129.43C89.31,128.35,92,126.23,92.5,127.66Z"/><path class="cls-3" d="M106.78,216.08c1.76-5.55,3.48-11.27,3.61-17-1.15.62-3,.56-2.79-.78.48-3.19.91-6.38,1.22-9.58a1.24,1.24,0,0,1-1.16-1.52,87.46,87.46,0,0,0,1.69-13.66c0-1.77,3.71-2.43,3.67-.48,0,1.65-.15,3.3-.33,4.94a1.07,1.07,0,0,1,.33.84c0,3.51-.27,7-.64,10.49a1.1,1.1,0,0,1,.57.7c2.54,8.89.1,17.74-2.61,26.33C109.81,218,106.15,218.08,106.78,216.08Z"/><path class="cls-4" d="M169.08,22.33c8.25,6.16,11.53,20.42,9.84,30.13-1.28,7.31-8.32,12.48-15.34,13.28-7.57.86-14.51-4-18.39-10.09C139.12,46.1,139,34.14,128.2,28c-8-4.51-17.83-2.13-24.17,3.95-.86.82,1,1.05,1.6.5,6.58-6.31,15.73-7,23.3-2,5.95,3.91,8.32,11.26,10.66,17.58,4,10.83,11.29,19.57,23.79,19,23.21-1,21.75-34.93,7.2-45.8-.64-.47-2.36.43-1.5,1.07Z"/><path class="cls-4" d="M170.77,21,170,20l-.8.87c3.86-.94,7.72,4.54,9.9,7a42.34,42.34,0,0,1,6.12,9.16c2.61,5.19,3.93,11.41,4.58,17.15a27.73,27.73,0,0,1-3.11,16.87c-5,8.9-15.6,10.45-24.87,9.7-.89-.08-2,1.21-.69,1.31,8.06.66,16.73,0,23-5.68,5.8-5.29,7.91-12.25,7.78-19.95a50.19,50.19,0,0,0-6.33-22.89c-2.85-5.08-9.73-15.61-16.72-13.91-.28.07-1,.46-.8.87a3.17,3.17,0,0,0,1.24,1.57c.62.5,2.34-.38,1.51-1.06Z"/><path class="cls-4" d="M102,34.77c1.08,2.57.09,6.13,2.63,8.06,3.31,2.53,7.14,3.42,11.11,4.46a23.9,23.9,0,0,1,13.09,8.46c3.1,4,2.35,9.48,4.72,13.78,3.52,6.4,10.38,7.67,16.95,9.3,9.33,2.31,13.1,7.78,15.07,16.78.2.89,2.13.38,1.93-.52-1.4-6.41-3.43-11.86-9.39-15.23-6.9-3.89-15.91-2.61-21.46-9-3.29-3.81-2.46-9.2-4.62-13.45a21.52,21.52,0,0,0-8.16-8.5c-3.47-2.19-7.5-3-11.4-4.06-2.94-.81-6.21-2-7.57-5.08-.75-1.69-.22-3.73-1-5.5-.36-.86-2.28-.3-1.94.52Z"/><path class="cls-4" d="M165.31,94.48c-3,1.55-4.28-1.19-6.93-1.23a13.73,13.73,0,0,0-4.79.84C144.91,97,134.32,96,129.4,87.32c-.33-.58-2.17.1-1.93.52,3.58,6.33,11.35,9.64,18.51,8.9,4.84-.51,10-3.46,14.56-1.21,2.11,1,4,.39,5.93-.61,1.15-.59-.61-.72-1.16-.44Z"/><path class="cls-4" d="M101,39c1.95,4.88-5.77,8.93-9.46,9.75-4,.88-8,1.17-12,2.46-2,.66-4.47,1.91-5.51,3.89a6.65,6.65,0,0,0-.91,3.64,28.39,28.39,0,0,0,.89,4.66c.8,3.07-.68,5.92-2.45,8.38-.72,1,1.09,1.31,1.62.58a18.51,18.51,0,0,0,3.26-6.19c.9-3.29-2.19-6.55-.93-10.13,1.62-4.61,10.22-4.88,14.13-5.54,3.21-.55,6.24-1.2,8.79-3.3,2.3-1.89,5.74-5.49,4.45-8.72-.35-.88-2.27-.33-1.93.52Z"/><path class="cls-4" d="M71.29,73.1c-6.63,6-16.23,3.81-22,10.75-2.53,3-6.57,9.51-1.84,12.35,3,1.81,7.84-.56,10.91-.52,4,0,7,.85,10.93-.6,6.49-2.42,12.55-7.74,11.35-15.2-.13-.82-2.07-.34-1.93.52,1.44,9-8.78,15-16.72,14.33a21.27,21.27,0,0,0-6.22-.14c-3.64.72-9.25,1.7-8.42-3.62.87-5.54,6-10,11.12-11.19,5.59-1.3,10-2.24,14.44-6.19.88-.79-1-1-1.59-.49Z"/><path class="cls-4" d="M113.61,86h.68c-.06,0-.11-.38-.17-.6-2.81,1.37-5.71,3.57-6.23,6.85-.07.47.84.3,1.06.25,2.76-.7,4.67-3.38,6.63-5.26.54-.52-1.35-.27-1.64,0-1.36,1-2.5,2.25-4,3.13l1.54,0a4.44,4.44,0,0,1,2.92-3.68l-1.07-.12a5.05,5.05,0,0,1-1.63,3.33l1.84-.18.24-.46c-.84,0-1,.09-.53.33a3.54,3.54,0,0,1,.72.82c.42.55.75,1.17,1.14,1.75l1.81-.7a5.45,5.45,0,0,1-1.66-3.79l-1.93.52c.68,1.25,1.61,2.63,1,4.09-.19.48,1.7.26,1.92-.3.61-1.54-.3-3-1-4.31-.27-.52-2-.07-1.93.52a5.76,5.76,0,0,0,1.78,4c.37.37,2.17-.16,1.81-.7-.69-1-1.23-2.27-2.36-2.87s-2.49.47-2.94,1.43c-.26.57,1.62,0,1.85-.18A5.68,5.68,0,0,0,115.31,86c0-.35-.94-.15-1.06-.12-2.12.54-4.46,2.42-4.64,4.73,0,.61,1.28.2,1.53,0a53.46,53.46,0,0,0,4.31-3.35l-1.64,0c-.72.69-1.4,1.42-2.1,2.12s-1.84,2-3,2.32l1.06.23c.47-3,2.9-5,5.46-6.22.57-.29.4-.76-.18-.76h-.69c-.6,0-2.09,1-.79,1Z"/><path class="cls-4" d="M94.51,91c-2-.84-3.54-3-4.69-4.78l-1,.83c2.42-.24,3.69,1.45,4,3.67L94.12,90a2.73,2.73,0,0,1-2.52-2.89c-.45.24-.9.86-1.35.86h.34c-.17,0-.34-.2-.51-.25a2.8,2.8,0,0,1,1.32,3c.58-.19,1.16-.41,1.74-.6-1.23-.51-1.88-2.21-2.22-3.4-.17-.56-1.88-.11-1.93.39-.06.66-.17,1.28-.23,1.94a20.47,20.47,0,0,1,2-.4V85.71c0-.63-1.86,0-2,.39A9.58,9.58,0,0,0,88,90.43c0,.49,1.9.16,1.9-.52a9.18,9.18,0,0,1,.75-4.08,8.63,8.63,0,0,0-1.86.39v2.91c0,.51,1.8.14,1.85-.39s.24-1.28.3-1.94L89,87.2c.4,1.37,1.16,3.14,2.58,3.73.41.17,1.62,0,1.73-.57.31-1.54-.52-3.59-2.29-3.59-.39,0-1.38.21-1.36.75A3.51,3.51,0,0,0,93.34,91c.35,0,1.43-.22,1.36-.74A4.77,4.77,0,0,0,93,86.85a5.58,5.58,0,0,0-3.88-.71c-.31,0-1.36.35-1,.83,1.22,1.88,2.8,4,4.93,4.93.52.21,2.29-.56,1.56-.87Z"/><path class="cls-4" d="M111.13,80.13a5.64,5.64,0,0,0-3.88-.45,28.42,28.42,0,0,1-11.94.49c-3.42-.54-8.41,2-9.84,5.15-.55,1.21,0,3,.19,4.21.53,2.76,0,5.61.91,8.28,1.46,4.27,6.75,4,10,2.7,3.09-1.25,4.89-1.69,8.12-1.18,2.5.4,5,1,7.47,1.24,2.3.24,6.11.09,7.25-2.44.94-2.08.56-4.2.73-6.41s2.47-4.8,1-7c-2.29-3.4-6.8-5-10.79-4.59-1.08.1-1.49,1.55-.17,1.42,5.52-.54,10.66,2.87,8.5,8.72-1.15,3.13.83,8.57-4.14,9s-9.83-2.32-14.86-1.54a4,4,0,0,0-1.18.34c-3.55,1.75-8.62,3.2-10.32-1.78-.78-2.3-.28-5.82-.76-8.32-1.38-7.2,9.14-6,13.23-5.49,3.06.39,6.54-2.17,9.4-1,.82.34,2.25-.83,1.12-1.31Z"/><path class="cls-4" d="M120.47,79.06c.49-6.21-5.39-12.81-10.51-15.59-.61-.33-2.37.52-1.53,1,4.8,2.62,10.56,9,10.1,14.83-.06.85,1.89.49,1.94-.22Z"/><path class="cls-4" d="M94.91,63.34c-2,2.93-4.68,5.31-6.26,8.53-1.7,3.49-2,7.3-2.07,11.12,0,.44,1.92.13,1.93-.52a26.66,26.66,0,0,1,2.06-10.89c1.38-3.15,4.18-5.49,6.11-8.3.43-.63-1.48-.37-1.77.06Z"/><path class="cls-4" d="M78.33,89.78c.37,4.84,1.58,11.14,5.92,14.11C89.79,107.7,96.73,105.7,103,106c5.57.28,11,2.26,16.23-.63s5.55-10.22,8.77-14.53c.56-.74-1.41-.64-1.81-.09-2.43,3.25-3.31,7.21-5.22,10.74-3.73,6.88-12.51,3.56-18.64,3.25-6-.3-12.26,1.86-17.28-2.52-3.5-3.07-4.42-8.59-4.76-13-.05-.7-2-.27-1.93.52Z"/><path class="cls-4" d="M125.4,66c0-.12,0,0-.05.06s-.28.33-.43.49c-.34.36-.71.7-1.07,1l1.73.38c.15-.31.26-1,.62-1.08l-1.09-.75a2.93,2.93,0,0,1-1.22,1.17l1.39.3c-.15-.62-.09-1.62.66-1.64l-.83-.8a3.43,3.43,0,0,1-1.43,1.94l1.61.35a2.86,2.86,0,0,1,1.2-1.91l-1.78-.2a2.49,2.49,0,0,1-.86,1.92.54.54,0,0,0,.25.91,1.38,1.38,0,0,0,1.36-.37,3.65,3.65,0,0,0,1.21-2.61c0-1-1.37-.59-1.79-.2a3.92,3.92,0,0,0-1.54,2.62c0,.85,1.17.63,1.61.35a4.9,4.9,0,0,0,2-2.59c.21-.58-.34-.81-.83-.8a2.84,2.84,0,0,0-2.77,3.54c.13.57,1,.49,1.39.3A5.26,5.26,0,0,0,127,66.33c.37-.66-.66-.9-1.09-.75a3,3,0,0,0-1.52,1,7.37,7.37,0,0,0-.6,1.19.52.52,0,0,0,.36.74,1.38,1.38,0,0,0,1.36-.36c.4-.38.79-.75,1.17-1.15a2.33,2.33,0,0,0,.72-1.15c.14-1-1.83-.69-1.95.16Z"/><path class="cls-4" d="M127.62,61.05c-4.25-1.77-7.42,3.06-8.41,6.55-.25.9,1.72.67,2-.16.6-2.12,2.56-6.26,5.33-5.1.81.33,2.25-.82,1.12-1.29Z"/><path class="cls-4" d="M123.55,60.17a10.53,10.53,0,0,0-4.63,4.33c-.26.42.24.76.59.8a1.33,1.33,0,0,0,1.26-.59,8.32,8.32,0,0,1,3.62-3.43c.35-.14.75-.6.46-1s-.91-.29-1.3-.13Z"/><path class="cls-4" d="M119.66,61.75a3.57,3.57,0,0,0-.34.43l-.12.18c-.23.32-.3,0,.47-.14l.71-.08h-.06l.28.08a.24.24,0,0,1-.13-.13c-.32-.51-2.12.22-1.93.52.37.61,1.31.41,1.85.1s.65-.67,1-1.06-.26-.38-.47-.37a2.07,2.07,0,0,0-1.28.48Z"/><path class="cls-4" d="M119,61.59c-.77.34-1.64.47-2.12,1.25-.17.29.7.17.77.16.33-.06.94-.18,1.13-.51s.88-.49,1.32-.69c.14-.06.68-.38.25-.47a2.54,2.54,0,0,0-1.35.26Z"/><path class="cls-4" d="M85.24,66.15a2.23,2.23,0,0,0-1-.12c-.24,0-.1,0,0,0-.13-.08-.18-.45-.23-.58a3.38,3.38,0,0,1-1.38.51h.69a2.1,2.1,0,0,1-.56,0,4,4,0,0,1,.14.91c0,.52-.47.39.52.08.55,0,.72,0,.49,0h0l-.19-.06a2.49,2.49,0,0,1-.5-.35,1.81,1.81,0,0,1-.58-1,.75.75,0,0,1,.1-.51s.16-.15.11-.12.09,0,0,0,.12,0,.13,0H81.77c0,.87.32,1.71.34,2.59,0,.38,2,.07,1.94-.52,0-.88-.32-1.72-.35-2.59,0-.39-1.17,0-1.31,0-.72.24-1.58.68-1.62,1.54a2,2,0,0,0,.9,1.48,2.31,2.31,0,0,0,2.3.22c.93-.4,1-.79.76-1.7,0-.2-.42.09-.55.09h-.69c-.21,0-1.54,0-1.38.43a.78.78,0,0,0,.67.57c.37.07.6-.09.88,0A2,2,0,0,0,85,66.74c.22-.11.62-.42.22-.59Z"/><path class="cls-4" d="M88.51,66a8.47,8.47,0,0,0-4.66-4.72c-.48-.17-1.75,0-1.74.7A1.62,1.62,0,0,0,82.52,63c.4.48,2.25-.19,1.8-.74a1.12,1.12,0,0,1-.27-.86l-1.74.7a7.87,7.87,0,0,1,4.27,4.34c.28.64,2.17,0,1.93-.51Z"/><path class="cls-4" d="M88.18,62.91c.35-1.26-.8-2.33-1.47-3.25-.48-.67-2.33.05-1.77.83s1.56,1.61,1.29,2.58c-.13.47.57.62.88.59a1.17,1.17,0,0,0,1.07-.75Z"/><path class="cls-4" d="M90.19,60.84c.49-1.14-.66-2.4-1.42-3.13a1.11,1.11,0,0,0-1.31-.15c-.29.14-.81.66-.45,1a8.35,8.35,0,0,1,.91,1.06c.16.21.53.73.42,1-.44,1,1.5,1,1.85.23Z"/><path class="cls-4" d="M97.73,37.28C95,38,93,39.74,91.3,41.92c-2.06,2.6-4,7.22-7.74,7.61-.93.1-1.62,1.17-.27,1,7.4-.77,8-10.7,14.69-12.35,1.16-.29.91-1.21-.25-.93Z"/><path class="cls-4" d="M93.94,36.4c-2.26-1.63-6.76,4.22-7.9,5.4A117.32,117.32,0,0,0,75.65,53.58c-.53.72,1.42.57,1.8.05a106.52,106.52,0,0,1,7.3-8.45c1.51-1.66,3-3.29,4.64-4.88.64-.64,1.3-1.26,2-1.87.32-.29.65-.56,1-.82.87-.71.47,0-.19-.45.56.41,2.34-.37,1.79-.76Z"/><path class="cls-4" d="M107.71,37.8a34.38,34.38,0,0,1,19,13.56c4.1,5.71,5.7,13.11,9,19.33.25.47,2.08-.23,1.93-.52C133.87,63,132,54.92,126.9,48.47a33.57,33.57,0,0,0-17.6-11.42c-.44-.12-2.14.6-1.59.75Z"/><path class="cls-4" d="M112.65,34c11.62,2.23,16.47,13.37,20.64,23.19a99.76,99.76,0,0,0,5.69,12c2.89,4.9,7.28,7.13,12.27,9.46.84.39,2.23-.82,1.11-1.35-6-2.8-10-5.76-13.12-11.66-2.61-4.92-4.47-10.21-6.81-15.25-3.94-8.5-9.47-15.94-19.13-17.8-1-.19-1.94,1.21-.65,1.46Z"/><path class="cls-4" d="M102.89,31.28c-7.14-3.2-14.91-6-21.86-.55-7.3,5.69-9.28,15-12.77,23.1C63.7,64.47,55.66,77.66,42,73.38c-5.54-1.73-9.06-6.85-10.94-12-2.54-7.08-.82-13.67,2.95-19.89,2.43-4,5.6-7.49,8-11.51.76-1.28,2-4.88-.91-4.46-6.54.93-12.3,8.85-15.73,13.81-6.51,9.42-9.89,24.44-4,34.78,4.94,8.73,16.45,15.82,26.53,14.15.74-.12,1.75-.85.38-.63-12.16,2-25.73-10.32-27.75-21.76-2-11.08,3.43-23.44,10.46-31.69A64.84,64.84,0,0,1,36.05,29c1.1-1,5.8-4.28,4.84-.49-.87,3.43-4.16,6.31-6.1,9.17-6.1,9-9.28,17.34-4.17,27.71,6.84,13.91,23.85,10.95,32.22.87,5-6,7.81-13.72,10.56-20.92a49.59,49.59,0,0,1,4.73-10.05c3-4.51,7.61-7.52,13.43-6.94,3.45.35,6.41,2.14,9.51,3.53.5.22,2-.58,1.82-.64Z"/><path class="cls-4" d="M82.85,102.72c-3.85,6-4.38,12.72-3.23,19.59,1.52,9,7.88,16.2,9.3,25.26.71,4.55.92,8.81,2.81,13.08,1.66,3.73,4.07,7.12,6.2,10.59,5,8.2,5.12,17.47,6.6,26.73.64,4.06-.46,7.82.61,11.87.62,2.37,1.68,3.78,1.49,6.4-.15,2-2.15,3.81-2.57,5.83-.88,4.13.94,8.33,1.07,12.52.08,2.47-1.37,5.6-.13,8,2.36,4.55,8.17,3.9,12.29,2.47a17.38,17.38,0,0,0,5.54-3.35c2.26-1.93.93-3.43.73-6.15l-1.72.78,2.27,1.5c.47.41,1.78.26,1.86-.5a7.79,7.79,0,0,0-1.11-5.16c-.38-.67-2.25,0-1.78.81a6,6,0,0,1,1,4.54l1.86-.5a7.35,7.35,0,0,0-2.54-1.73c-.57-.29-1.78,0-1.72.78s.87,3.69.3,4.45a11.77,11.77,0,0,1-4.09,3c-4.29,2.21-11.11,2.27-11.28-4-.06-2.34.68-4.56.45-6.93-.45-4.77-2.14-8.73.23-13.3,2.88-5.58-1-9.65-.8-15.5.24-6.44-1-12.63-1.73-19S101.34,173,97.9,167.51a51.21,51.21,0,0,1-5.51-10.65c-1.24-3.64-1.21-7.73-1.81-11.5-1.15-7.34-6.21-13.56-8.34-20.62-2.19-7.31-1.75-15.4,2.44-21.87.55-.85-1.42-.78-1.83-.15Z"/><path class="cls-4" d="M119.47,235l.64.24.9-1c-4,.45-7.71-1.55-11.57-2.25l-1,1.07c2.48.05,6.48.27,8.38,2.06,1.7,1.6-4.76,2.16-5.69,2.05l-.46,1a19,19,0,0,1,6.71-.58l-.53-.57c-1.21,2.45-4.55,2.68-7,2.71l-.75,1.1c2.71-.05,5.58-.65,8.2.24,0-.21,0-.42,0-.62a11,11,0,0,1-2.83,1.66,7.65,7.65,0,0,1-2.65.66l-1.49-.54c-.06-1.32.65-2,2.12-2.07v-1a8.27,8.27,0,0,1-3.06.61c-.6-.07-2.27.92-1.18,1a10.89,10.89,0,0,0,4.5-.69c.86-.24,1.14-1.24,0-1-2,.4-7,2.92-3,4.56,2.78,1.13,7.06-1.15,9.1-2.9.19-.16.32-.51,0-.62-2.93-1-6-.46-9-.41-.71,0-2,1.11-.75,1.1,3.2-.05,7.91-.51,9.52-3.77.21-.41-.17-.53-.52-.56a21.87,21.87,0,0,0-7.72.71c-.37.09-1.39.89-.46,1,2.18.27,8,.19,9-2.34,1.34-3.2-8.13-3.87-9.77-3.91-.48,0-2.07.87-1,1.08,4.23.77,8.1,2.76,12.49,2.27.31,0,1.63-.6.9-1a2.69,2.69,0,0,0-1.43-.4c-.73-.06-2.06,1-.75,1.09Z"/><path class="cls-4" d="M126.82,175.48c-1.78,4.36-1.75,8.58-1.45,13.23A45.4,45.4,0,0,1,123.58,204c-1,3.56-3.34,7.55-1.56,11.21,2.86,5.91,1.72,10.7.28,16.77l1.54-.73-.69-.32c-.83-.39-2.23.8-1.11,1.33l.69.32a1.17,1.17,0,0,0,1.53-.73c.88-3.73,2.29-7.9,1.64-11.78a15.05,15.05,0,0,0-1.5-4.46c-1.71-3.46-.27-6.6.66-10,1.25-4.55,2.39-8.91,2.42-13.66,0-5.67-1-10.72,1.2-16.18.43-1.05-1.52-1.07-1.86-.24Z"/><path class="cls-4" d="M128.71,174.15c2.74,1.46,6.11-.07,8.8-.94l-.53-1c-2.21,1.16-5,2.24-7,.06-.48-.55-2.33.17-1.79.78,2.51,2.82,6.64,1.56,9.53,0,1-.52.4-1.28-.53-1-2.06.66-4.9,2.13-7,1-.6-.32-2.37.53-1.52,1Z"/><path class="cls-4" d="M126.8,162.4v-1.62c0-.57-2-.21-2,.52v1.61c0,.57,2,.21,2-.51Z"/><path class="cls-4" d="M124.18,159.75a1.91,1.91,0,0,0-.51,1.35c0,1.07,2,.82,2-.12a.68.68,0,0,1,.18-.59.62.62,0,0,0-.27-1,1.27,1.27,0,0,0-1.37.37Z"/><path class="cls-4" d="M95.17,117.61c1.59,17.34,21.92,22,32.37,32.82l1.66-.89c-5.83-2.29-9.82-7.3-14.09-11.64-5.28-5.37-10.55-10.63-15-16.73-.42-.59-2.29.09-1.78.78a131.34,131.34,0,0,0,15,16.73c4.49,4.36,8.36,9.49,14.36,11.85.4.16,2.3-.22,1.65-.89-10.41-10.73-30.65-15.37-32.23-32.55-.06-.71-2-.28-1.93.52Z"/><path class="cls-4" d="M110.84,130.79c1.53,1.16,3.44,2.53,3.57,4.62l1.55-.82c-2.64-.73-4.29-3.25-6.69-4.47-.62-.31-2.38.56-1.52,1,2.55,1.29,4.22,3.83,7,4.6.52.15,1.59-.14,1.55-.82-.16-2.3-2.3-3.81-4-5.09-.55-.42-2.32.39-1.52,1Z"/><path class="cls-4" d="M111.4,150.14c.74,1.34,1.68,2.55,2.41,3.88l1.44-1.08a8.89,8.89,0,0,1-3.46-3c-.41-.52-1.89-.29-1.86.5a7.4,7.4,0,0,0,1.47,3.92c.51.73,2.35,0,1.77-.86a6.11,6.11,0,0,1-1.28-3.2l-1.86.5a10.13,10.13,0,0,0,4.11,3.46c.62.25,1.87-.29,1.44-1.08-.74-1.34-1.68-2.55-2.41-3.89-.42-.77-2.26,0-1.77.86Z"/><path class="cls-4" d="M155.46,142.1l.69-.33c.95-.45-.15-.63-.66-.47-11.18,3.46-15.55,16.75-19.07,26.7-.2.56,1.63-.06,1.83-.23,4.21-3.48,5.15-10.1,10.46-12.31H147.4c.28,2.89-1.84,5.18-3.42,7.35-.22.3.72.23.78.22a13.21,13.21,0,0,0,4.69-1.95l-1.69.11c-.49,2.49-2.6,3.82-4.4,5.4-.44.39,1.4.2,1.76-.12,1.91-1.67,4-3,4.54-5.6.12-.6-1.5,0-1.69.11-3.05,1.9.22-1.8.72-2.67a5.11,5.11,0,0,0,.64-3.36c0-.37-1.15-.05-1.3,0-6,2.5-6.84,9-11.54,12.92l1.84-.22c3.13-8.84,7.91-22.06,16-25.88-1.16.55.65.53,1.13.31Z"/><path class="cls-4" d="M170.75,151.07c0,11.94-1.08,23.09-6.36,34a29.78,29.78,0,0,0-3.45,13.37c-.05,6,.51,10.71-2.19,16.43-3.32,7.06-1,13.19-1.1,20.53-.06,5.92-4.24,7.72-9.61,7.27-8.67-.73-5.59-8.2-5.22-14,.07-1-1.9-.79-2,.13-.22,3.43-2.91,9.76.08,12.66,2.7,2.62,6.61,2.93,10.2,2.81,7.77-.25,8.87-6.94,8.26-13.4s-.93-11.15,1.92-17.21S162.6,201.3,163,195c.49-7.15,5.64-13.29,7.34-20.17,1.95-7.86,2.32-15.81,2.34-23.88,0-1.05-2-.79-2,.13Z"/><path class="cls-4" d="M137.44,176.83c2,4.25,2.24,8.74,2,13.38-.2,4-1.71,7.8-1.18,11.78.51,3.81,3.55,7,4.42,10.78.24,1.08-2.73,16-2.72,16-1.21.22-.87,1.34.3,1.12,2.59-.49,1.74-4.19,2.11-6.14,1.08-5.75,3.45-9.83.84-15.47a59.7,59.7,0,0,1-3-6.79c-.92-2.91.72-7,1.06-10,.6-5.1.29-10.51-1.89-15.21-.35-.75-2.25-.16-1.93.52Z"/><path class="cls-4" d="M151.18,229.9c.42-.12.34-.14-.26-.06-.43,0-.86,0-1.29,0-1.08,0-2.15-.14-3.22-.24s-2.4-.28-3.6-.32c-.27,0-2,.58-1.43.74,3.51.95,9-.63,11.52,2.49.14-.12.28-.24.41-.37-2.41,1.11-4.9,2.12-7.58,1.37l-1.43.73a12.37,12.37,0,0,1,4.33.29c1,.35-.49,1.54-.77,1.78a7.13,7.13,0,0,1-3.09,1.43c0,.18.1.35.14.53q4.18-2.19,3.54.09c-.47,0-2.11.86-.85.73a4.92,4.92,0,0,0,3.43-1.52c.1-.11-.09-.16-.15-.18a10.74,10.74,0,0,0-6.62.49c-.81.27-.71.71.14.52,2.46-.54,5.5-1.62,6.63-4.06a.1.1,0,0,0,0-.15c-1.7-.95-3.55-.73-5.44-.7-.24,0-2.05.56-1.43.74,3.51,1,7.12-.42,10.28-1.88,0,0,.52-.24.42-.36-2.72-3.3-8.2-1.7-11.85-2.69l-1.43.73c1.33,0,11.63,1.82,11.56-.63,0-.29-1.94,0-1.93.52Z"/><path class="cls-4" d="M231.58,150.13c-.55,5.5.55,9.84-5.41,12.75-5.13,2.5-10.69,4.08-16.15,5.68-11.9,3.5-22.92,7.18-35.53,6.39-.87,0-2,1.21-.7,1.3,14.08.87,26.63-3.51,39.94-7.49,5.11-1.53,12.25-3.09,16.38-6.63,3.81-3.26,3-7.63,3.42-12.18.09-.93-1.87-.62-1.95.18Z"/><path class="cls-4" d="M200.75,175.06c2.67,3.67,6,10.17,3.39,14.66-2.43,4.24-2.55,7.72-3.14,12.51-.37,2.94-2,5.39-3.82,7.64-.79,1-2.34,2.22-2.6,3.6-.78,4.12,3.06,12.45-3.1,13.88-1.21.28-.83,1.62.36,1.35,3.88-.9,4.7-2.22,5.07-6.19.26-2.79-.4-5.58-.53-8.35-.07-1.51,2.5-3.8,3.4-4.94a20.48,20.48,0,0,0,2.4-4.19c1-2.17,1-4.77,1.14-7.09.25-4,2.55-6.5,3.6-10.13,1.27-4.35-2-10.25-4.41-13.61-.52-.72-2.36,0-1.76.86Z"/><path class="cls-4" d="M192.29,228c-4.26,3.14-13.4,8.37-18.62,5.55-.52-.28-2.14.51-1.81.69,6.35,3.43,16.87-2.37,21.93-6.1.82-.6-1.12-.42-1.5-.14Z"/><path class="cls-4" d="M177.36,176.92c8,9.73,6.08,26,2.95,37.15-1.5,5.36-4.3,9.66-7.41,14.16-.82,1.2-3.74,4.92-1.26,5.7.49.16,2.23-.61,1.57-.82-2.28-.72,3.74-8,4.44-9.13a47.39,47.39,0,0,0,6-16.42c1.88-10,2.29-23.06-4.51-31.34-.35-.42-2.19.24-1.81.7Z"/><path class="cls-4" d="M190.58,217.59l.07,0,.09-1c-3.06,2.13-7.49,2.08-10.94,3-1,.26-1,1.46.1,1.42,3.6-.11,7.15-1.14,10.75-.65l-.6-.86c-1.37,3.44-7.55,3.12-10.6,4-1.21.34-.83,1.61.37,1.38,3.46-.65,6.91-1.34,10.31-2.27l-.62-1.28c-4.24,2.29-8.64,4.22-13.06,6.14-1.1.48-.31,1.47.62,1.29,4.24-.79,8.15-2.71,12.37-3.56l-.83-1.15a54.91,54.91,0,0,1-12.94,6.89c.21.43.42.86.62,1.29,4.11-1.69,8-4.18,12.55-4.39-.25-.35-.49-.7-.74-1a17.27,17.27,0,0,1-11.48,5.71l.57,1.2c3.23-2.27,7-4.08,11-4.26-.25-.34-.49-.69-.74-1-1.13,1.49-3.18,2.49-4.78,3.36-.7.38-7.58,2.92-6.1.59,2-3.14,7.61-4.29,10.76-6,1.16-.61.12-1.69-.87-1.19-3,1.53-5.91,3.79-9.45,3.75l.85.85c1.36-2.89,5.28-3.54,7.62-5.48a.64.64,0,0,0-.32-1.19c-3.36-.45-6.07,1.94-9.1,2.95-1.17.38-.82,1.77.37,1.38,2.53-.84,5.33-3.25,8.07-2.88-.1-.4-.21-.79-.32-1.19-2.66,2.21-6.59,2.79-8.18,6.16-.28.59.39.86.85.86,3.94,0,7.09-2.31,10.48-4l-.87-1.19c-1.73.92-14.42,5.42-11.79,8.8,2.94,3.76,12.38-2.32,14.41-5,.45-.59-.13-1.06-.73-1-4.53.2-8.76,2.24-12.41,4.8-.73.51-.14,1.24.57,1.2a19.92,19.92,0,0,0,13.26-6.57c.51-.58-.18-1.07-.74-1-4.93.23-9.11,2.83-13.57,4.67-1,.43-.34,1.62.62,1.28a58.08,58.08,0,0,0,13.86-7.34c.91-.63-.11-1.3-.83-1.16-4.22.86-8.13,2.77-12.37,3.56.21.43.42.86.62,1.29,4.42-1.92,8.82-3.86,13.06-6.15,1-.54.38-1.56-.62-1.29-3.4.93-6.85,1.62-10.31,2.27.12.46.25.92.37,1.38,3.8-1.06,10.32-.69,12.08-5.1.18-.45-.16-.79-.6-.85-3.78-.5-7.47.52-11.24.64,0,.48.07.95.11,1.43,3.81-1,8.48-1.07,11.86-3.43.32-.22.52-.79.1-1l-.07,0c-.76-.44-2.44.59-1.48,1.14Z"/><path class="cls-4" d="M153.93,235.4c0,3.61-5.62,3.92-8.17,5.15-.75.36-.19.53.36.41,3.27-.73,6.56-2.63,10-2.13.35.41.23.71-.36.89a11.7,11.7,0,0,1-4.9,2.06c-1.63.34-2.57.22-1.65-1.29.79-1.31,2.8-2,4.15-2.25q1-.35-.33.33c-.78.47-1.52,1-2.28,1.5a3.37,3.37,0,0,1-2.83.71,4.65,4.65,0,0,1,1.48-1.64c2.1-1.73,5-2.48,7.44-3.58,1.16-.53-.69-.35-1.1-.19-3.47,1.43-6.51,3.88-10.25,4.63l.77.06c.38-3.93,6.22-5.38,9.32-6.36l-1.05-.18c-2.49,1.36-5.68,3.59-8.61,3.34-.74-.07,3.58-3.76,3.75-3.87a28,28,0,0,1,4.42-2.29c1.17-.51-.69-.34-1.09-.18-1.95.77-3.74,1.88-5.61,2.8a2.2,2.2,0,0,1-2.2.41q.77-.66,1.59-1.26a20.18,20.18,0,0,1,5.71-3l-1.19-.09a23,23,0,0,1-6,3h1.27c1.16-2.33,4-3.28,5.76-5.09.21-.22,0-.26-.24-.27-3.37-.1-6.19,1.86-8.92,3.6-.78.5,1.15.2,1.46,0,1-.61,1.89-1.22,2.86-1.79s3.79-1.7,1.55,0c-1.57,1.18-3.46,2.11-4.37,3.93-.18.35,1.18,0,1.27,0a27.3,27.3,0,0,0,7.07-3.51c.49-.34-1.06-.13-1.19-.08a26.16,26.16,0,0,0-9.13,5.45c-.23.21.05.26.23.27,4.17.1,7.45-2.7,11.15-4.16l-1.09-.18c-3.54,1.53-7.16,3.46-9.34,6.74-.08.12.08.16.15.18,4.1,1,8.77-2.07,12.18-3.92.81-.44-.84-.24-1.05-.18-3.44,1.09-10.19,2.85-10.61,7.24,0,.19.72.07.77,0,4.33-.86,7.72-3.43,11.74-5.07l-1.1-.19c-3.17,1.44-9.2,2.81-10,6.83,0,.14.51.09.54.09,3.84-.32,6.47-2.85,9.75-4.56.32-.17.26-.38-.1-.36-3.11.13-8.71,1.38-9.15,5.15,0,.11.3.1.33.1a15.74,15.74,0,0,0,11.47-4c.13-.14.11-.21-.07-.26a10.67,10.67,0,0,0-5.44.05c-1,.23-2,.57-3,.89s-4.17,1.69-1.38.77c2.55-.85,7.26-1.73,7.27-5.18,0-.24-1.93,0-1.93.52Z"/><path class="cls-4" d="M119.43,237.91l.56.54c.16-.29.32-.58.49-.87-3.55,1.81-7.88,3.94-12,3.74.09.32.17.65.26,1,3.39-2.75,7.56-5.39,12-5.89-.23-.27-.45-.55-.68-.83a14.11,14.11,0,0,1-4.25,3.26c-.93.48-6,2.21-3.84-.42,1.46-1.76,4.23-2.25,6.06-3.56,1.11-.79-.57-1.1-1.24-.71a53.25,53.25,0,0,1-8.37,3.76l1.31.54c.89-2.27,3-3.47,4.86-4.88.5-.38.43-.94-.26-1a7,7,0,0,0-2.93.5c-.75.3-2.47,1.54-3.25,1.44s-2,1.08-.72,1.24c2.19.27,4-2.06,6.19-1.94l-.26-1c-2.08,1.58-4.46,2.94-5.45,5.48-.32.81.88.69,1.31.53a55.88,55.88,0,0,0,8.81-4l-1.24-.71c-2.34,1.67-8.08,2.84-7.22,6.76.06.25.39.35.61.36A15.05,15.05,0,0,0,121.67,236c.47-.55-.14-.9-.68-.84-4.95.56-9.64,3.31-13.44,6.41-.48.38-.45.94.26,1,4.62.23,9.45-2,13.47-4,.29-.15.78-.5.49-.88a2.09,2.09,0,0,0-.82-.75c-.63-.37-2.38.5-1.52,1Z"/><path class="cls-4" d="M234.34,150a129.1,129.1,0,0,1,3.75,18.87c.84,6.59.2,13.28,1.31,19.82a55.23,55.23,0,0,0,2.13,8.3c1,2.89,3,5.21,3.89,8.21,1.12,3.78.09,8-.55,11.78-.31,1.82,0,4.69-1.17,6.25-.45.61,1.46.36,1.77-.06.87-1.19.85-2.95,1-4.36.38-2.91,1-5.77,1.2-8.7.52-6.62-3.64-10.79-5.19-16.82-1.87-7.2-1.5-14.15-2.13-21.48a122,122,0,0,0-4.12-22.33c-.15-.55-2.08,0-1.93.52Z"/><path class="cls-4" d="M261.83,153.21c.65,5.37-1.55,10-3.1,15.06-1.2,3.89-.21,8.62-1,12.69s.7,8,.16,11.93-2.86,7-2.69,11.11a43.55,43.55,0,0,0,2.71,12.63c1.39,4,3.43,9.08,3.35,13.37-.13,7.27-19.89,2.3-17.74-6.94.18-.78-1.77-.49-1.94.22-2.74,11.76,25.6,18.06,20.84,1.41-1.59-5.55-3.64-11-4.84-16.66A19.19,19.19,0,0,1,258,198c.92-2.85,2-5.19,2-8.24s-.68-5.9-.34-9a73.08,73.08,0,0,0,.77-9.59c-.09-6.43,4.16-11.82,3.35-18.47-.09-.71-2-.26-1.93.52Z"/><path class="cls-4" d="M255.3,216.63a44.22,44.22,0,0,1,4.46,18.45l1.94-.52c-3-4.09-4.08-9.05-6.19-13.59l-1.93.52c2.12,3,2.09,6.17,2.06,9.7l1.93-.51c-.91-3.29-1.09-6.69-1.71-10l-1.94.52c.67,3.23,1.26,6.36.36,9.61l1.92-.42c-2.11-2.85-1.53-6.74-2.41-10l-1.93.52a9.07,9.07,0,0,1-2,8.86l1.84-.32a19.18,19.18,0,0,1-.35-10.9l-1.92.42a22.15,22.15,0,0,1-2.05,11.23l1.92-.43c-.81-2.89.12-5.84-.69-8.73-.14-.5-1.78.05-1.92.42-1,2.67-1.75,5.42-2.75,8.09l1.92-.42a7,7,0,0,1,1.36-4.11c.18-.3-1.62-.18-1.9.32a7.57,7.57,0,0,0-1.39,4.31c0,.44,1.78-.05,1.92-.43,1-2.66,1.75-5.42,2.75-8.09l-1.92.43c.81,2.89-.12,5.84.69,8.73.14.52,1.75-.08,1.92-.42a22.56,22.56,0,0,0,2.07-11.42c0-.44-1.8,0-1.92.42a19.52,19.52,0,0,0,.33,11.1c.16.52,1.62-.1,1.84-.32a9.46,9.46,0,0,0,2.15-9.26c-.14-.48-2,.05-1.93.52.88,3.29.3,7.18,2.41,10,.29.4,1.79,0,1.92-.42.91-3.31.35-6.5-.33-9.81-.1-.45-2,0-1.94.52.63,3.35.81,6.74,1.72,10,.14.48,1.93,0,1.93-.51,0-3.54.07-6.72-2.06-9.71-.3-.43-2.11.12-1.93.52,2.1,4.54,3.18,9.49,6.18,13.59.31.41,1.95,0,1.94-.52a44.42,44.42,0,0,0-4.47-18.45c-.24-.5-2.11.16-1.93.52Z"/><path class="cls-4" d="M256.64,219.4c-2.7,0-5.6.35-8.19-.57-.14.28-.27.55-.4.83a9.35,9.35,0,0,1,6.41-.24l.18-.73a10.46,10.46,0,0,1-8.09,1.06c-.59-.17-2.27.72-1.19,1a13.83,13.83,0,0,0,10.47-1.54c.22-.12.62-.58.18-.73a12.44,12.44,0,0,0-8.71.41c-.21.1-1,.62-.4.83,2.87,1,6,.75,9,.72.7,0,2.07-1.07.76-1.06Z"/><path class="cls-4" d="M178,84.41c.07,3.88,2.42,6.4,4.56,9.43a20.62,20.62,0,0,1,2.13,20c-1.9,4.63-6.68,8.13-7.73,13.16-1.08,5.23.47,10.84-4.81,14.21-1.1.7.48,1.45,1.29.93,3.6-2.3,4.62-5.31,4.89-9.46.19-2.91.28-5.47,1.57-8.16s3.55-5.11,5.15-7.76a21.51,21.51,0,0,0,2.92-15.13,22.91,22.91,0,0,0-2.81-7.31c-1.87-3.4-5.12-5.79-5.2-10,0-1-2-.77-2,.13Z"/><path class="cls-4" d="M174.42,60.14c-1.08-9-5.11-17.66-13.06-22.4-4-2.39-8.39-4.14-12.38-6.57-2.76-1.68-5.1-3-8.29-2-1.13.36-.91,1.25.24.89,3.37-1.07,8.46,3.13,11.37,4.57A70.76,70.76,0,0,1,162,40.09c6.44,4.54,9.63,13,10.54,20.57.07.59,2,.16,1.93-.52Z"/><path class="cls-4" d="M162.05,59.49c-.05-5.05-3.16-10.78-5.59-15.16-2.29-4.14-6.08-7.41-9.66-10.42-7.61-6.4-15.54-7.64-25.18-7.65-.64,0-2.09,1-.79,1,5.21,0,10.21,0,15.16,1.83,4.27,1.58,8,4.59,11.33,7.57a34.52,34.52,0,0,1,8.59,10.87c1.84,3.82,4.17,8.22,4.21,12.51,0,.49,1.93.16,1.93-.52Z"/><path class="cls-4" d="M163.81,41.25c4.9.57,9.6,3.84,14.38,1,1.13-.67-.55-1.06-1.22-.66-3.57,2.09-8.69-1.13-12.43-1.56-.8-.09-2,1-.73,1.18Z"/><path class="cls-4" d="M188,39.06c3.84,1.27,8.14-1.27,11.91-1.83,8.3-1.23,16,.4,23.78,3.29,15.11,5.59,26.13,18.62,32.62,33.08.39.88,2.31.32,1.93-.51-5.68-12.67-15.08-25.21-27.78-31.4a60.67,60.67,0,0,0-21.72-6.4,48,48,0,0,0-10.49.76c-2.91.44-6.12,2.68-9.15,1.68-.85-.28-2.27.94-1.1,1.33Z"/><path class="cls-4" d="M246.92,55.42c3.13,2.13,6.53,3.59,9.57,5.9A31.16,31.16,0,0,1,266.7,73.83c3.61,8.17,2.9,17.82,1.79,26.42-1.21,9.35-3,18.57-3.48,28-.21,4.7.06,9.4-.5,14.09-.36,3.08-.85,7.9-3.2,10-.86.78,1,.95,1.59.45,4.37-4,4-13.82,4-19.09,0-11.4,2-22.46,3.58-33.7,1.33-9.47,1.48-19.31-2.46-28.2s-12.1-12.4-19.55-17.48c-.62-.42-2.37.45-1.51,1Z"/><path class="cls-4" d="M241.27,74.34c5.3,7.22,4.16,19,3.32,27.47a57.94,57.94,0,0,1-10.17,27.24c-.41.59,1.48.32,1.77-.09a60.68,60.68,0,0,0,10.48-29.09c.82-8.18,1.51-19.28-3.59-26.22-.3-.42-2.16.21-1.81.69Z"/><path class="cls-4" d="M217.23,66.3A80.74,80.74,0,0,1,233.83,94c1.45,4.25,7,16.8,2.75,20.24l1.68-.19c-2-2.06-2.65-5.42-3.73-8s-2.08-5.54-3.07-8.32c-2-5.5-4.3-10.88-5.84-16.51l-1.94.52c4.41,11.54,6.46,23.66,7.57,35.92l1.93-.52A131.59,131.59,0,0,0,228.71,98c-.24-.75-2-.25-1.93.52,1.28,10.59,5.92,20.42,6.87,31.06l1.93-.51c-2-4.48-2.85-9.31-4.46-13.92-.24-.67-2-.3-1.94.37.14,5.84,1.2,11.61,1,17.47l1.86-.5a19.43,19.43,0,0,1-2-4.07c-.3-.69-1.8-.3-1.93.36-1,4.76-.26,10.05-2.69,14.41l1.88-.21c-.8-2.33-.85-4.73-1.38-7.12-.15-.71-1.66-.25-1.87.21-1.77,3.84-1.33,8.13-3.09,12-1.51,3.27-8.5,3-11.61,3.72-1.19.26-.88,1.34.29,1.08,3.91-.86,7.94-.81,11.47-2.93,4.19-2.52,3-9.86,4.75-13.74l-1.87.21c.53,2.39.58,4.79,1.37,7.12.24.7,1.61.26,1.88-.21,2.5-4.49,1.83-9.82,2.81-14.72l-1.94.37a20.85,20.85,0,0,0,2.14,4.34c.35.47,1.84.13,1.86-.5.17-5.86-.89-11.62-1-17.48l-1.94.37c1.62,4.61,2.48,9.44,4.47,13.91.32.73,2,.27,1.93-.51-1-10.65-5.59-20.48-6.87-31.07l-1.93.52a131.59,131.59,0,0,1,4.47,19.09c.12.75,2,.26,1.93-.52-1.11-12.25-3.15-24.38-7.56-35.92-.28-.72-2.14-.23-1.94.52,1.69,6.19,4.3,12.13,6.44,18.17,1,2.8,2,5.57,3.16,8.32,1,2.41,1.34,4.74,3.19,6.65.44.46,1.28.14,1.68-.19,4.47-3.64-.13-14.19-1.51-18.43A84.49,84.49,0,0,0,219,65.51c-.5-.55-2.34.16-1.79.79Z"/><path class="cls-4" d="M236.14,139c-1.3.24-2.91,3.48-3.76,4.47a30.79,30.79,0,0,1-3.36,3.49c-7.71,6.49-16.15,11.86-25.82,14.86-1.15.36-.87,1.48.3,1.12,10.26-3.18,20.71-9,28.3-16.68.8-.82,8.91-9.29,4-8.38-1.21.22-.87,1.33.3,1.12Z"/><path class="cls-4" d="M226.65,151.26a203.53,203.53,0,0,1-17,11.21c-1.08.61.43.63.92.47,7-2.39,14.09-4.47,20.5-8.19,1-.61-.42-.67-.93-.46-1.72.7-3.4,1.5-5.07,2.32-1.17.57-6.51,2.66-.15.19,1.4-.53,2.9-.89,4.33-1.35,3.25-1-.27-.51-1.39.08-3.18,1.66-6.46,3.14-9.74,4.58-1.26.55-.08.87.7.56,5-2,10.19-3.62,14.49-7,.57-.46-.23-.55-.59-.49-4.48.65-8.4,2.82-12.42,4.76-1.16.56.63.61,1.14.37,2.49-1.21,4.94-2.46,7.52-3.48,4.41-1.73-.7,1.06-1.67,1.56a48,48,0,0,1-5.13,2.16l-1.37.52c-1.62.24-1.79.56-.5,1l3.11-1.4c2.84-1.3,5.61-2.71,8.35-4.2,1.16-.62-.65-.58-1.14-.36-3.65,1.68-7.63,2.06-10.83,4.64-.69.55.52.53.84.43a51.36,51.36,0,0,0,8-3.32c.4-1.06,0-1.09-1.11-.07-1.22.63-2.47,1.2-3.74,1.72-2.29,1-4.66,1.79-7,2.6-1.84.64-3.69,1.24-5.54,1.86a1.89,1.89,0,0,0,2.3-.64c1-.57,1.91-1.18,2.86-1.78,4-2.54,7.91-5.35,11.8-8.1.83-.59-1.11-.42-1.5-.14Z"/><path class="cls-4" d="M243.08,129a1.85,1.85,0,0,0-.51,1.34c0,1,2,.75,2-.14,0-.27,0-.42.18-.61a.58.58,0,0,0-.26-1,1.33,1.33,0,0,0-1.37.37Z"/><path class="cls-4" d="M262.16,88.63c-.28,5.56-5.33,9.66-8.77,13.55-.81.91,1,1.24,1.62.58,3.62-4.09,8.81-8.4,9.11-14.28.05-1-1.92-.74-2,.15Z"/><path class="cls-4" d="M258.47,107.67c-1.76,2.87-4.31,5-6.74,7.31-.79.74,1.12.57,1.51.21,2.52-2.36,5.19-4.6,7-7.57.42-.69-1.5-.42-1.78,0Z"/><path class="cls-4" d="M258.78,111.77c-1.47,3.83-4.87,6.2-7.78,8.89-.87.81,1,1,1.6.5,3-2.79,6.49-5.26,8-9.22.38-1-1.55-.91-1.84-.17Z"/><path class="cls-4" d="M258.09,121.46c-2.15,3.25-5.34,5.62-8.3,8.08-1,.84.54,1.46,1.27.86,3.2-2.67,6.55-5.23,8.87-8.74.59-.88-1.39-.89-1.84-.2Z"/><path class="cls-4" d="M256,127.64c.9,3.78-4.88,6.74-6.18,9.92-.21.49,1.68.28,1.92-.29,1.35-3.31,7.16-6.07,6.19-10.14-.14-.57-2.07-.07-1.93.51Z"/><path class="cls-4" d="M259.81,134.08c-2.28,4-6.19,6.71-8.59,10.67-.4.66.68.89,1.09.75.74-.24,7.18-2.74,6.13-.41a13.51,13.51,0,0,1-4.88,5.16l1.28.86a9.75,9.75,0,0,1,4.69-2.37l-1.1-.75c-1.65,2.55-4.28,4.18-6.41,6.3-.53.53.19,1,.72,1,5.42-.66.89,4.38-.49,6.64-3.18,5.22-6.26,10.4-9.85,15.36-.72,1,1.1,1.26,1.61.56q5-6.9,9.24-14.22c1.63-2.8,5.43-6.41,4.67-9.94-.08-.36-.57-.47-.88-.44-1.38.17-2.74.48-4.12.65l.71,1c2.27-2.26,4.88-3.93,6.65-6.64.43-.67-.71-.86-1.1-.76a15.1,15.1,0,0,0-5.62,2.81c-1.07.85.53,1.32,1.28.86,2.23-1.37,6.6-5.15,5.83-8.13-.73-2.81-7.56.84-8.7,1.23l1.09.75c2.41-4,6.31-6.62,8.59-10.68.53-.93-1.43-.93-1.84-.2Z"/><path class="cls-4" d="M76.19,71.88C74.49,76.41,71.71,80.43,70,85c-.12.33,1.73.14,1.91-.35,1.7-4.53,4.47-8.55,6.17-13.08.13-.33-1.72-.14-1.9.35Z"/><path class="cls-4" d="M133.26,74.7c0,5.11-.1,10-3,14.36-.56.85,1.41.8,1.83.17,3-4.5,3.14-9.46,3.15-14.71,0-1-2-.61-2,.18Z"/><path class="cls-4" d="M73.08,73.27c-1.46,6-8.86,9.2-13.76,12-4.54,2.63-9.17,5.36-12.41,9.6l1.88-.06c1.87-9,9.73-12.23,16.84-16.57,6.45-3.94,9.78-9.34,9.39-17,0-.7-2-.28-1.93.52.49,9.8-5.7,14.21-13.43,18.57-6.12,3.45-11.31,7.49-12.81,14.7-.19.92,1.6.3,1.88-.06C53,89.39,60,86.4,65.93,82.81c3.79-2.32,8-5.2,9.09-9.76.2-.79-1.76-.5-1.94.22Z"/><path class="cls-4" d="M137.9,76.33c.37,2,1.33,3.71,1.54,5.81,0,.39.6.47.89.47,9.06.07,20.32,1.3,23.8,11.15l1-1c-6.69.54-10.77-8.92-14.42-13.22s-8.36-6.15-13.87-4.08c-1.23.46-.14,1.58.88,1.2,13.45-5,14.76,18.58,27.26,17.57.43,0,1.24-.42,1-1-2-5.55-6.15-8.64-11.62-10.43a38.67,38.67,0,0,0-8.88-1.52c-1.3-.1-2.6-.12-3.9-.15-.37,0-1.72-4.72-1.83-5.34-.17-.94-2.11-.44-1.93.52Z"/></svg>