<svg id="layer1" xmlns="http://www.w3.org/2000/svg" viewBox="0 0 297.7 248.8"><defs><style>.cls-1{fill:#106814;}.cls-2{fill:#bc7f1d;}.cls-3{fill:#492d0c;}</style></defs><path class="cls-1" d="M172.42,106.54c-.42-.53-.82-1.07-1.22-1.62a2.28,2.28,0,0,0-.37-1.79l-.23-.3c1.79.11,1.25-3.52-.41-4.21C161.1,94.87,155.44,84,145.87,81.09c-7.85-2.41-17.23-.76-24.59,4.26-.3.05-.6.12-.9.19a1.1,1.1,0,0,0-.81-.07l-2.6.89a32.23,32.23,0,0,0,2.26-4.88A24.22,24.22,0,0,0,122.81,78c.89-.8,1.77-1.61,2.66-2.4a38.43,38.43,0,0,0,5.8-4.86c.81.62,1.85,1,2.37.51a113.76,113.76,0,0,0,11-11.64.86.86,0,0,0,.51-.5c0-.06.05-.12.08-.19l1.43-1.71c.51-.61.17-1.37-.46-2,.21-.57.42-1.15.6-1.75.31-1.07-.69-2-1.69-2.45,1.82-2.31,3.66-4.59,5.32-7,.87-1.25-2.2-2.72-2.74-2.71h-.83a3,3,0,0,0-1.26-.57,11.22,11.22,0,0,0-3.17,0,2.1,2.1,0,0,0-1.19-1.61A27.66,27.66,0,0,1,149,32.76c1.32-.81-2.07-3.16-2.93-2.92a12.36,12.36,0,0,0-2.56,1.06c-.72-.33-1.46-.46-1.81-.18A47.16,47.16,0,0,0,133,41a34.45,34.45,0,0,0-9.51,12.36,1,1,0,0,0-1,.25,45.81,45.81,0,0,0-4.74,6.81A15.25,15.25,0,0,0,115,63.55a15.82,15.82,0,0,0,.12-2.67,2.63,2.63,0,0,0-1-1.57c2-4.67,4-8.85,5.68-13.7.57-1.64-2.49-5.26-3.56-1.77h0l.12,0,.16-.87c-.06.32-.39.57-.53.86a1.71,1.71,0,0,0-1.63,0A29.17,29.17,0,0,0,112,46.25a2.25,2.25,0,0,0-.66-.12,50.21,50.21,0,0,0,1.38-5.29,2.24,2.24,0,0,0-.81-1.9q1.3-4.39,2.67-8.77l0-.06h0c.54-1.74-2.7-3.59-3.58-2.24-5.6,8.63-8.58,18.43-10.74,28.7A.72.72,0,0,0,100,57c-.05.31-.11.62-.16.94-.92-.12-.62.18-.81.55-2.25,4.2-2.8,10-2.66,15.47A36.78,36.78,0,0,0,91.9,62.78c-.42-1.19-.85-2.37-1.34-3.52-2.67-6.33-7.1-11.18-10.85-16.38-.68-.93-4.44-2.56-3.16,0,.94,1.9,1.85,3.79,2.69,5.73-.69-.31-1.31-.32-1.48.31-.15-.12-.29-.25-.45-.37-.38-.3-2.69-1.34-2.8-.21-1.09-.22-1.91.54-.87,1.91.15.2.29.4.44.59a1.43,1.43,0,0,0,0,.56c.1.41.22.8.33,1.2l-.58-.07c-.85-.07-1.06.82-.63,1.6,1.11,2,2.35,3.54,2.84,5.89-.57-.11-1,0-1.06.59a.8.8,0,0,0-.63.1c-1.13-.6-2.45-.9-2,.6,1.68,5.75,5.93,8.47,8.89,12.75a12.26,12.26,0,0,0,4.38,7.83l.16.11a31.54,31.54,0,0,0,3.64,5.7c.31.38,2.72,1.87,3.08.8.52.51,1,1,1.58,1.48l.26.2a.08.08,0,0,0,0,0c.19.24.39.47.58.7a13.92,13.92,0,0,0,.82,1.29,7.75,7.75,0,0,0-2.7,1.24c-7.72-2.53-16.21.11-24.24,3.75-14.24,3.13-27.44,10.06-31.33,30.68-.36,1.89,1.66,4.18,3,3,2.26-2,2.79-3.61,4-6.66a25.21,25.21,0,0,1,3.75-6.34l-1.45,2.33c-1.25,2,1.89,5.09,3.16,3.09a38.12,38.12,0,0,1,3.15-4.23l1-1.11a35.25,35.25,0,0,1,7.09-5.8A3.68,3.68,0,0,0,62,113c-.3.38-.59.79-.88,1.21-1.28,1.92,1.49,4.42,2.86,3.44a48.17,48.17,0,0,0,4.86-4,10.63,10.63,0,0,0,2-1.17,1.45,1.45,0,0,0,.65-1.3C72.65,110,73.82,109,75,108a6.19,6.19,0,0,0,3.67-.41,2.06,2.06,0,0,0,1.75.65c.89-.23,1.77-.52,2.64-.82-.26.24-.51.5-.76.76-5.24,2.6-9.31,10.64-12.27,16.06-6.58,12-8.58,25.16-8.29,39.43,0,2.32,3.31,4.22,3.79,1.33l.11-.66-.35-.09s0,.15,0,.1a51,51,0,0,1,.34-5.4.81.81,0,0,0,1-.6,1.34,1.34,0,0,0,1.28-1c.32-.9.6-1.78.87-2.69.5,0,.92-.33,1.06-1.12a.08.08,0,0,0,0,0l.15.08.72-4.12a59.73,59.73,0,0,1,1.72-6.5c.13.82.26,1.64.42,2.47.28,1.5,3.07,3.56,3.52,1.1.11-.59.22-1.18.34-1.77.13-.34.25-.69.37-1,.83.51,1.71.42,1.91-.85.14-.86.26-1.72.38-2.57A82,82,0,0,1,82.84,127l.15,0c-.83,2.84-.59,6,1.6,7.33.83,1.13,2.58,2.08,3,.61a3.72,3.72,0,0,0,1.31-.46c-1.67,7.28-1,16.6,1.8,23,.14.87.29,1.72.47,2.57a3.51,3.51,0,0,0,0,.92c.86,7.41,5.29,15.28,11,17.27,2.43.86,1.82-2.93.44-4a18.64,18.64,0,0,1-5.07-6c.31-.41.88-1.13,1.37-1.73a3.58,3.58,0,0,1,2.12-.71l.31.09c.63,1.07,2.59,2.1,3.11.6.78.27,1.55.55,2.28.75a1.23,1.23,0,0,0,.47,0,1.06,1.06,0,0,0,1.15-.7,1.69,1.69,0,0,0,.19-1,23.63,23.63,0,0,0-.47-5.64,2.57,2.57,0,0,0-.9-1.44c-.26-1.35-.56-2.69-.75-4.13a2.39,2.39,0,0,0-.83-1.44c.17-1,.3-2.06.4-3.1a1.61,1.61,0,0,0,.79.11c.87.53,1.84.54,2.07-.8,1-6,1.74-12.81,0-18.51.92.15,1.71-.38,1.42-2-.37-2.12-.68-4.26-1-6.41q.14-3.06,0-6.12a1.94,1.94,0,0,0,.09-1.46c-.06-.25-.11-.5-.17-.76a80.13,80.13,0,0,0-1.34-11,14.58,14.58,0,0,0,3.27-.65,9.79,9.79,0,0,0,2.64,1.34,1.72,1.72,0,0,0,.42.08,1.3,1.3,0,0,0,.2.15c.15.09.34-.19.47-.11s.06-.3.06-.3l.18,0c.42,1.35,1,1.08,1.74,1.41,1.07.49,1.87-.11,1.77-1.58-.05-.75-.1-1.37-.13-2.06,0,0,.08.08.11.09,5.25,1.52,9.89,5.82,15.35,6.36a1.15,1.15,0,0,0,.74-.17l.27.22c1.48,1.15,2.34-.13,2.12-1.6,3.23,1,6.35,1.89,9.25,4.39,2,1.67,2.83-1.33,1.5-3.09-.54-.71-1.06-1.42-1.58-2.14a11,11,0,0,1,4.84,2.26c1.95,1.63,3.65,3,6,3.23,1.45.13,1.68-1.75,1-3a16.7,16.7,0,0,0-1.23-1.83,1.14,1.14,0,0,0,.51-1.14,1.71,1.71,0,0,0,.09-1.34,25.78,25.78,0,0,0-1.84-5.11,10.92,10.92,0,0,1,4.43-.5,9.41,9.41,0,0,0,2.36,1.22c2.77,3.65,5.11,7.61,8.45,10.54C172.84,111.31,173.79,108.28,172.42,106.54ZM97,81.62A2.82,2.82,0,0,0,97.79,83c.14.79.3,1.56.49,2.33,0,.11-.06.22-.1.34l-.07-.08L96.7,83.7c-.1-.22-.19-.44-.28-.66.35,0,.57-.24.49-.79,0-.29-.09-.57-.13-.86a.57.57,0,0,0,.19-.1C97,81.4,97,81.51,97,81.62ZM136.7,54.93H137l0,0-.38.3A.84.84,0,0,0,136.7,54.93Zm8.53,36.78-.29-.06c0-.09-.07-.19-.11-.28l.34.1ZM143,89.37h0v0l0,0Zm-42.66,25.2a58,58,0,0,1-.63,7.37,1.14,1.14,0,0,0-1,.18A45.66,45.66,0,0,1,100.36,114.57ZM82.92,59.09a1.22,1.22,0,0,0,.16.18l.57,1.49c-.29-.54-.57-1.09-.87-1.63a4.53,4.53,0,0,0-2.59-1.45l0-.14h.31l.33.05a3,3,0,0,0,1.33.43C82.39,58.38,82.67,58.73,82.92,59.09Zm-1.13,11.7s0,0,0,.08h0s0,0,0-.08ZM144,85l-.06-.11.8.16C144.48,85,144.23,85,144,85Zm-54.71,40.8.54-1.1c-.21.58-.43,1.17-.66,1.73Zm48.92-25.44a11.13,11.13,0,0,1,1.7.44,3,3,0,0,0,.42,2.31l-.53-.18A4.14,4.14,0,0,0,138.2,100.33ZM85.56,55.76l-.43-.23c-.13-.4-.27-.8-.41-1.19C85,54.81,85.28,55.27,85.56,55.76Z"/><path class="cls-1" d="M273.43,119.3c0-1.13,0-2.24-.06-3.34a2.65,2.65,0,0,0-.22-2.5c0-.14,0-.29,0-.43-.15-1.35-.37-2.7-.61-4,0-.22,0-.58,0-.78a8.13,8.13,0,0,1,.14-.85h-.07s0-.36,0-.5a2.47,2.47,0,0,0-.2-.86,21.15,21.15,0,0,0-3-9.47c-.11-.45-.22-.89-.32-1.34a1.8,1.8,0,0,0-1.71-1.58A25,25,0,0,0,262.52,89a1.5,1.5,0,0,0-.95-.3l-.21-.07c-2.14-.48-4.35-.77-6.53-1.15a1.82,1.82,0,0,0-.59-.5,40,40,0,0,0-9.79-3.34,2.1,2.1,0,0,0-2.27,1.3l-.08-.06a1.45,1.45,0,0,0-1-.22c-1.1-.32-2.19-.63-3.28-.91a1.73,1.73,0,0,0-1.73.56c-2.81-1.08-5.62-2.17-8.49-3l.47-.38a15.3,15.3,0,0,0,2.78-.26A24.8,24.8,0,0,0,252,75.9c.17-.13.22-.06.23-.22l0,.23.36.08c.06,0,.24-.71.32-.78,1.17.11,4.41-1.37,2-2l-2.76-.67a1.52,1.52,0,0,0,1.08-.31c.81,0,1.58,0,2.36,0,1,0,3.18-1,1.07-1.43a30.74,30.74,0,0,0-3.81-.56,9.57,9.57,0,0,0-6.62-1.38c.09-.6-1.71-.9-2-.89-3.54.09-6.68,1.46-9.74,3.15l-1.17.2a8.07,8.07,0,0,0-1.38-.17,11.31,11.31,0,0,0-3.43,1c.63-.78,1.24-1.6,1.84-2.45a21.88,21.88,0,0,0,2.27-2.06l.19-.1c1.6-1,3.15-2.22,4.68-3.45A27.94,27.94,0,0,0,241.21,61c1.83-1.66-.09-4.56-1.83-4.1a2.75,2.75,0,0,0-.79-1c.26-.25.52-.5.78-.73a2.05,2.05,0,0,0,.54-.1,6.34,6.34,0,0,0,2.68-1.89,8.29,8.29,0,0,1,1.2-.36c1.68-.35,1.92-2.33,1.15-3.56.06-.12.12-.24.17-.37a2.36,2.36,0,0,0-1-2.9,22.51,22.51,0,0,1,4.41-2.59c2.22-1,.81-4.86-1.14-4.4l-.48.13h0l0,0a15.67,15.67,0,0,0-2.22.83,8.4,8.4,0,0,0-6.51,1.62c-4.24,1.8-7.2,5.55-9.58,10.07A34.71,34.71,0,0,0,222.93,60a35.91,35.91,0,0,0-1.88,5.82c-.44.84-.86,1.7-1.26,2.59,1.58-5.77.28-13.09-.78-18.37-.59-2.92-1.29-5.89-2.13-8.8-2.19-10.19-5.48-20-11.64-27-1.27-1.46-3.87.2-3,2.5,1.58,4,3.07,8,4.38,12.13.55,1.74,1.2,3.77,1.71,5.89a1.67,1.67,0,0,0-1.32,1.48l-.24-.31c-.09-.11-.17-.24-.27-.36h0c-.12-.15-.23-.3-.36-.45-1.5-1.74-4.32,1-2.69,3a24.89,24.89,0,0,1,2.43,3.65,1.8,1.8,0,0,0-2.76,1.59,24.77,24.77,0,0,0,2,8.8A1.79,1.79,0,0,0,204,54.49a44.89,44.89,0,0,0,3.36,8.92c0,.51.11,1,.18,1.54-.22-.31-.45-.62-.69-.9a2.23,2.23,0,0,0-.89-.65c-2.88-4.87-6.05-9.41-10.35-12.14a1.49,1.49,0,0,0-1.34-.2c-2.49-3-5.22-5.66-7.93-8.38l-.09-.12,0,0c-.12-.12-.16-.74-.28-.86-1.39-1.4-3.75.54-3,1.83L180,42.84c-.9-.22-1.71.91-2,1.76-.51-.11-1.06,0-1.56-.05-1.84-.3-3,2.71-1.37,4.1,2,1.67,4.07,3.38,6.17,5-1.09,1-.38,3.29.7,3.91,2.26,1.3,4.76,1.14,7.14,1.46,1.76,1.05,3.54,2,5.35,2.87a.41.41,0,0,1,.07.11c-2,.69-4,1.67-6.06,2.48-2.24.9-.8,4.84,1.14,4.41,1.69-.37,5-1.1,7.27-.32a2.94,2.94,0,0,0,.21,1.39c-1.21.29-2,1.74-1.08,3.42a18,18,0,0,0,4.44,5h-.12a45.59,45.59,0,0,0-12.84,1.64,1.83,1.83,0,0,0-1.78-.9c-7.18,1.22-13.74,5.22-19.32,11.4-1.68,1.86.15,5,2,4a31.78,31.78,0,0,1,4.32-1.75,3.09,3.09,0,0,0,0,.43,2.59,2.59,0,0,0,1.64,3.12,9.12,9.12,0,0,0,1.1.25c-.56.74-1.12,1.49-1.63,2.27-1.49,2.24,1.25,4.57,2.83,3.35a27.46,27.46,0,0,0,3.24-3A11.7,11.7,0,0,0,182,98a1.44,1.44,0,0,0,1.09.27,14.83,14.83,0,0,0,3.22-1.21l.12.1a2.22,2.22,0,0,0,.66,1.65c.37,1.5,1.92,2.54,3.09,1.43.54-.51,1.05-1,1.56-1.6.79-.33,1.59-.7,2.39-1.12a2,2,0,0,0,2,1.36c3.21-.65,6.05-2.53,8.74-4.79a1.6,1.6,0,0,0,1.27.34,10.07,10.07,0,0,0,3.73-1.67l.08.06c-.19.33-.38.66-.55,1-2.43.9-3.14,3.09-3.7,6.17a2.14,2.14,0,0,0,1.88,2.59,4.67,4.67,0,0,0,1.69,3.18c-.45.72-1,1.39-1.5,2.17-1.63,2.36,1.61,4.88,3.19,3h0l0,0c.1-.13.17,0,.29-.14.21.14.38.53.6.58l.15,0a16.25,16.25,0,0,0,.32,2.32c-.26.75-.48,1.36-.69,2.13,0,0-.06,0-.09,0a35.09,35.09,0,0,0-3.08,4.87,2,2,0,0,0-.62.77l-1.07,2.31c-.75,1.65,1,3.5,2.18,3.23s2.6-1.14,2.64,0a19.33,19.33,0,0,0-1.59,4.59c-.24.48-.49.95-.72,1.41-1.69,3.23-3.69,6.17-5.59,9.21-1.36,2.19,1.26,4.86,2.84,3.36a24,24,0,0,0,3.19-3.83s.11-.33.14-.32c0,.18,0,.23-.05.22l3.84.94c.63.16.94,1.16.95,1.67,0,1.75-3.66,4.62-4.45,6.2-.88,1.74.26,4.25,1.91,3.86a7.43,7.43,0,0,0,2-.81c-1.69,3-3.46,6-5.34,8.86-1.43,2.16,1.27,4.83,2.83,3.36a34.14,34.14,0,0,0,8.22-12.54,1.84,1.84,0,0,0,.53-1c.1-.42.19-.83.29-1.25.14-.58.3-1.13.47-1.67q1.05-2.13,2.06-4.28a1.88,1.88,0,0,0,1.3-1.26,46.36,46.36,0,0,0,3.15-15.69,1.77,1.77,0,0,0,1.9-2.36c-1-4-1.85-8.19-2.86-12.28.3.43.61.84.92,1.23,1,1.26,3.2,1.49,3.5-.9l.06-.59c.34.58.66,1.17,1,1.75a2.06,2.06,0,0,0,.86.78,33,33,0,0,0,2.19,9.84c.61,1.76,3.76,2.24,3.76-.39,0-.8,0-1.59-.06-2.37l.19.21a1.12,1.12,0,0,0,.24.19c.09,3.86.75,7.64.72,11.54,0,1.12,3,3.38,3,3.17.22-1.27.41-2.49.51-3.7a5.31,5.31,0,0,0,1.26-.94,1.09,1.09,0,0,1,0,.18c0,.56,0,1.14.06,1.71s0,1.09,0,1.64a1.08,1.08,0,0,0,.15.5c0,.28.08.58.13.87-.21,1.12-.38,2.24-.48,3.37-.1.61-.2,1.23-.31,1.84a1.48,1.48,0,0,0,.27,1c0,.31,0,.63.06.95.1.89,2.93,3.63,3,3.21.23-1.16.54-2.33.87-3.5.52.4.94.65,1,.55a41.93,41.93,0,0,0,1.12-8.29,26.15,26.15,0,0,0,.47-3.38c.79.74,1.61,1.36,1.59,1.06-.07-.88-.18-1.73-.31-2.57.16-4.23.34-8-1.24-11.84a2,2,0,0,0-.3-.46,30.18,30.18,0,0,0-1.84-6.09c-.36-.82-3.25-3.51-2.89-2.44a31.27,31.27,0,0,1,1,3.75c-.17-.31-.36-.62-.55-.93-.37-.75-.76-1.47-1.16-2.18-.29-.52-.58-1-.87-1.52a42.9,42.9,0,0,0-7.31-10.38l-.17-.17c-.29-.29-.58-.58-.89-.85-.48-.43-.95-.82-1.44-1.18a1.58,1.58,0,0,0-.15-.12.76.76,0,0,0-.2-.12c-.25-.18-.5-.36-.75-.52-.94-2.22-2-4.37-3.09-6.36a26.47,26.47,0,0,0,2.49,2.57,7,7,0,0,0,2.12,2l.94,1.1c1.67,2,4.68-1.27,3-3.54a1.34,1.34,0,0,1-.11-.14,2.34,2.34,0,0,0-.53-1,27.08,27.08,0,0,1,5.88.95,1.76,1.76,0,0,0,1.22-.17,16.74,16.74,0,0,0,2.46,1.06c0,.05,0,.1.07.16l.48,1a21.91,21.91,0,0,0,3.22,6.34c.7,1,1.86.75,2.65,0a2.87,2.87,0,0,0,.78.06,3.4,3.4,0,0,0,.64-.09,26.25,26.25,0,0,0,2.83,7.39,1.45,1.45,0,0,0,2.28.89,2.09,2.09,0,0,0,1.5-2.3c0-.78-.09-1.54-.17-2.28a1.58,1.58,0,0,0,.12-.15,1.6,1.6,0,0,0,1.11.58c.65,1.69,1.34,3.35,2.11,5a1.65,1.65,0,0,0,2,1c.26,1.19.54,2.36.86,3.52a2.1,2.1,0,0,0,.8,1.18c.08.95.14,1.65.17,2.59a3.08,3.08,0,0,0,0,.57l-.28,0,0,.46C270.05,122.73,273.43,122.32,273.43,119.3Zm-42.2-40.6h0c.42-.22.83-.45,1.26-.65a3.16,3.16,0,0,0,.32,0Q232,78.43,231.23,78.7Zm12.68,37.93a1.37,1.37,0,0,0,.17.17c0,.14.08.28.13.41ZM222.6,79.44a2.12,2.12,0,0,0-.06-.52l.5,0C222.89,79.11,222.74,79.28,222.6,79.44Zm13.15-6.51-.32.11-.24-.06.63-.1Zm4.68,3.64a38.76,38.76,0,0,0,5.14-1.14c.32-.05.63-.11,1-.18-.46.84-2.59,1.25-3.51,1.47a25.38,25.38,0,0,1-3.5.41ZM236,79a15.66,15.66,0,0,0,4.17.16,17.34,17.34,0,0,1-5.41.37C235.2,79.34,235.61,79.16,236,79Zm13.51-8.8c-.81,0-1.62,0-2.42.11C248.35,69.89,249.15,69.85,249.53,70.17ZM229.75,89.28l.32.08a2.41,2.41,0,0,0,.08.65C230,89.76,229.88,89.52,229.75,89.28Z"/><path class="cls-2" d="M110.93,115.6c.25,2.51.44,6.88,1.82,9.28a2.18,2.18,0,0,0,1.65,1.54,1.84,1.84,0,0,0,.25.09,2.18,2.18,0,0,0,1.18-.05c.31.73.65,1.45,1,2.17.51,2.28,1.23,4.45,2.44,5.54-1.31.25-2,2.48-1.06,4,2,2.92,3.92,5.95,6.6,7.67a2.89,2.89,0,0,0,.45.94h0a.61.61,0,0,1,.07.1,2.26,2.26,0,0,0,.79,1.12c.7,1.08,1.33,2.22,2,3.38a15.33,15.33,0,0,0,3.69,6.39l.65,1.28-1.16-1.24c-1.26-1.3-.46,3.64,0,4.31,1.28,2.09,2.28,4.39,3.39,6.59a1.16,1.16,0,0,0,.05.24c.14.46.3.89.46,1.33a8.27,8.27,0,0,0,.45,3.72c.08.15.42.38.4.5h0s-.1,0-.07.1c.57,1.06,1.08,2.06,1.7,3.07-1.25-.12-2.63.33-2.21,1.43a108.78,108.78,0,0,0,5.39,12.28c.15.77.29,1.54.45,2.31a2.4,2.4,0,0,0-2.36,2.39c-.38,3.74,1,6.69,1.94,9.87.29,2.75.56,5.51.86,8.26l0,.28c.47,4.23,1,8.44,1.74,12.61a2.08,2.08,0,0,0,.84,1.45c.1.35.21.7.32,1a1.46,1.46,0,0,0,1.26,1.14,1.76,1.76,0,0,0,3.36-.1c.13-.31.23-.62.35-.93a2,2,0,0,0,2.91-2.12c-.15-3.49-.63-6.93-.79-10.42,0,0-.12,0-.12-.06l-.15,0h0c1-1.15-.48-2-1.17-2.2.36-2.76,1.12-5.47,1.59-8.21.17-.25.6-.49.67-.86.19-1.11.39-2.21.58-3.31l-.44-.12a2.26,2.26,0,0,0-2.06-2.91,2.07,2.07,0,0,0-1-1.12c.77-4.18.78-9.15-1.58-10.68.06-1.12.12-2.25.2-3.37.09-1.56-.84-2.28-1.83-2.25a20.93,20.93,0,0,0,0-3.8,6.9,6.9,0,0,0-1.25-3c-.07-.65-.16-1.3-.27-1.94.05-.3.08-.6.13-.91a1,1,0,0,0-.49-1,35,35,0,0,0-1-3.51c-.32-1-1.31-2.39-1.56-.52a32.32,32.32,0,0,0-.27,3.94,1.36,1.36,0,0,0-.74,1c0,.3-.08.58-.12.88a2.52,2.52,0,0,0-.72-.28,1,1,0,0,0,.1-.32c.4-2.28.77-4.53,1-6.78a18,18,0,0,0,.65-2.47,7.51,7.51,0,0,0-.6-4.07c0-.34-.05-.67-.1-1s-1.46-4.27-1.79-2.29c-.17.95-.45,1.85-.57,2.79-.08.15-.3.29-.32.43v.06a.5.5,0,0,0-.06-.35c-.21-.35-.49-.59-.74-.39a.54.54,0,0,0-.25-.18c0-.06,0-.11.06-.18a15.47,15.47,0,0,0,0-5.87,2.69,2.69,0,0,0-.68-2.31c-.08-.19-.15-.39-.24-.59a1.7,1.7,0,0,0-.59-.81c-.06-.2-.11-.4-.16-.6-.87-3.07-1.66-.52-1.31,1.51a.83.83,0,0,0-.15.11s0-.06,0-.09l-2.49-8.36a2.5,2.5,0,0,0-1.9-1.69,40.68,40.68,0,0,0-2.81-6.87,2,2,0,0,0-1.46-1.08A21.08,21.08,0,0,0,123,123a2,2,0,0,0-2.87-.82L120,122c-.79-1.42-1.56-2.86-2.41-4.21a2.11,2.11,0,0,0-.57-.61h0a12,12,0,0,0-1.37-3.3,1.57,1.57,0,0,0-.94-.72c-1.15-1.79-4.1-1.17-3.63,1.36A3.33,3.33,0,0,0,110.93,115.6Zm25.95,42.92a.71.71,0,0,0,.13.12,1.19,1.19,0,0,0-.12.32C136.88,158.81,136.89,158.66,136.88,158.52Z"/><path class="cls-2" d="M156.17,187.65q-.16,1.56-.21,3.09c-1.54,4.79-1.53,9.83-1.72,14.95,0,.77-.09,1.22.78,1.62,0,.1,0,.19-.05.28-.42,2.37,3.34,2.47,4,.69.45-1.12.85-2.27,1.27-3.42a18.22,18.22,0,0,0,1.36-3.69,1.83,1.83,0,0,0-.73-2.11c.45-2.21,1-4.39,1.41-6.59.62.14,1.3-.14,1.47-1.19,0,0,0-.05,0-.08.32-1.93.51-3.89.85-5.82a4.34,4.34,0,0,0-.84-2.88c1.15-2.95,2.49-5.77,3.77-8.76a4.15,4.15,0,0,0-.64-3.67,20.44,20.44,0,0,0,1.2-5.09,2,2,0,0,0,2.12-1.31c.93-2.72,1.84-5.44,2.73-8.18.23-.37.46-.74.67-1.12A2.26,2.26,0,0,0,176,153c.29-.79.58-1.6.88-2.4.72-.18.92-.77,1.24-1.37.78-1.49,1.63-2.64.9-4.6h0l.5.1c.12-.69.15-1.14-.16-1.46.07-.2.24-.37.31-.57a1.74,1.74,0,0,0-.11-1.82,9,9,0,0,0,2.25-2.07,11.72,11.72,0,0,0,3-1.62,1.66,1.66,0,0,0,0-2.88l.12-.14a1.71,1.71,0,0,0-.57-2.74c.06-.55.1-1.14.11-1.73l.19-.27a2.08,2.08,0,0,0,1.54-.46,2.58,2.58,0,0,0,2.47-.87,28.29,28.29,0,0,0,3.78-10.56l.41.1a2.28,2.28,0,0,0,2.83-1.71l.63-1.38a2,2,0,0,0,.4-1.11l.35-.35a1.87,1.87,0,0,0,.57-.32l1.56-1.34a1.81,1.81,0,0,0,.71-2.09c1-1.57,2-3.22,3-4.87s-.9-2.56-2.21-2.31a2.71,2.71,0,0,0-2.68-.11,30.1,30.1,0,0,0-5.16,4,2.7,2.7,0,0,0-2.15,1.26,40,40,0,0,1-4.21,6.21,1.72,1.72,0,0,0-.17,2.13,1.71,1.71,0,0,0-.56.78q-.27.78-.51,1.56a2.32,2.32,0,0,0-.78.17c-.77-1.52-3.52-.88-3.84,1-.24,1.45-.22,2.94-.36,4.39a2.08,2.08,0,0,0-.56,1.41c-.09.49-.17,1-.26,1.45-.9-.17-3.66-.46-3.91,1-.16.88-.31,1.76-.47,2.65a4,4,0,0,1-.15.77c-.05.16.28.41.26.41h0s0,.27,0,.31c-.25.76-.52,1.64-.76,2.45a2.72,2.72,0,0,0-2.62,1.92c-.77,2.44-1.69,5.43-2.34,8.16A2.47,2.47,0,0,0,168,146h0s0-.17,0-.1c-.26,1.39-.53,2.64-.82,4.06a1.83,1.83,0,0,0-.71,1.15c-.22,1.16-.45,2.28-.69,3.43-2.86-1.25-4.37,2.78-4.93,7.25,0-.05-.09-.12-.13-.16-.66-.68-1.54-.35-1.72.8a24.53,24.53,0,0,0-.15,5.47,23.2,23.2,0,0,0-1.62,5.75,1.75,1.75,0,0,0-1,1.58A110.28,110.28,0,0,0,156.17,187.65Z"/><path class="cls-3" d="M102,91.34c-8.5-24,.35-54.82,17.89-72.72l-1.85.15A138.71,138.71,0,0,0,109,39.71c-.2.57,1.15.29,1.33.21,4.28-2,2.24,1.17,1.71,2.48-.79,1.94-1.66,3.84-2.46,5.77-.16.4.65.37.82.35,4.69-.69,7.56-4.53,11.2-7.21l-1.73,0c-1.12,6.46-5.11,11.79-6.85,18.06-.08.31.38.37.58.36,2.67-.06.61,2.57-.12,4.15-1.12,2.44-2.38,4.82-3.56,7.22-1.42,2.9-4.47,7.78-3.1,11.15.25.62,2.15,0,1.93-.51-1.31-3.24,1.74-8.09,3.09-10.91,1.83-3.8,4.36-7.63,5.29-11.78.07-.31-.36-.37-.57-.36-2.89.06.66-5.72,1.38-7.2a39.12,39.12,0,0,0,3.86-10.45c.13-.74-1.49-.16-1.73,0-2.08,1.53-3.92,3.35-5.94,5-3.52,2.78-1-2-.74-2.58a46.23,46.23,0,0,0,1.91-5.07c.1-.31-.38-.37-.57-.36a12.69,12.69,0,0,0-5.14,1.2l1.33.21A139.28,139.28,0,0,1,120,18.5c.32-.59-1.6-.11-1.85.14-17.67,18-26.61,49.06-18,73.21.22.61,2.13.05,1.93-.51Z"/><path class="cls-3" d="M108.65,85.52c-.08-11.69,8-22.92,14.5-32.06,7.53-10.65,16.94-24.5,31.64-23.88.17-.35.34-.69.52-1-6.35.81-11.09,7.17-14.32,12.13-.24.37.2.55.52.53,4.73-.23,12.53.66,6.38,6-2.36,2-5,3.38-7.11,5.76-.23.27.08.45.3.52,1.62.43,3.27.76,4.87,1.28,3.61,1.19-1.23,4.91-2.15,5.78a56.16,56.16,0,0,1-8.71,6.2c-4.69,3-9.32,5.89-12.88,10.22a.28.28,0,0,0,.12.46c1.86.84-1.58,2.56-2.09,3.12a6.53,6.53,0,0,0-1.87,4.18c-.08.74,1.86.37,1.93-.25.39-3.3,2.65-4.55,5-6.45.15-.12.29-.35.13-.52-2.63-2.71,9.72-9.53,12-11,4.72-3,9.2-6.22,12.35-10.91.07-.11.13-.29,0-.38a11.68,11.68,0,0,0-3.46-1.77c-2.27-.75-3.76-.9-1.08-3,2.91-2.3,5.77-3.8,7.65-7.15.08-.13.12-.25,0-.37-2.35-2.51-4.59-3-7.93-2.89-3.1.1.13-2.64,1-3.69,2.11-2.64,5.49-6.29,9.07-6.75.63-.08,1.75-1,.52-1-14.12-.6-23.61,10.69-31.28,20.93S106.63,72.71,106.72,86c0,.57,1.94.21,1.93-.52Z"/><path class="cls-3" d="M98.46,86.71C99.8,68.66,88,50.15,75.25,38.24c-.26-.24-2,.23-1.88.58,1.3,3.47,2.6,6.92,4.19,10.26l.89-.53-5.54-.83c-.3-.12-2,.09-1.88.58.84,4.4,3.2,8,4.88,12.12l1.6-.63-5.82.14c-.22,0-1.71.21-1.59.63,1.83,7,7.54,12.15,12.85,16.71l1.54-.7-1.45,0c-.22,0-1.73.22-1.6.63,2.5,7.77,9.09,13.28,15.74,17.57.45.29,2-.5,1.82-.64-6.61-4.27-13.15-9.72-15.63-17.45l-1.6.63,1.46,0c.18,0,1.91-.38,1.54-.7C79.49,72.09,73.85,67,72,60.05l-1.6.63,5.82-.15c.19,0,1.75-.24,1.6-.63-1.69-4.09-4-7.72-4.89-12.12l-1.87.58c2.73,1.07,4.69,1.46,7.51.73.1,0,1-.29.89-.53-1.59-3.34-2.89-6.79-4.18-10.26l-1.88.58c12.66,11.85,24.43,30.38,23.1,48.35,0,.22,1.89,0,1.93-.52Z"/><path class="cls-3" d="M89.2,95.09c-25.42-6-50.36,13.29-53.07,38.67-.09.87,1.44.43,1.76.11,5.11-5.11,8-11.84,12.65-17.26l-1.76-.11c-.91,2.89-2.14,5.66-3.05,8.55-.24.77,1.33.42,1.59.25a76.24,76.24,0,0,0,16.42-15.61L62,109.58c-.4,2.86-1.43,8.5,3.09,7.64,4.31-.81,8.19-6.26,11.6-8.65l-1.58-.25L74.37,111c-.41.9,1.15.64,1.53.41,4.14-2.52,7.23-6.39,11.56-8.65,1.18-.61.1-1.4-.8-.93-4.49,2.34-7.7,6.27-12,8.88l1.52.41c.82-1.78.69-1.14.84-3,.06-.78-1.24-.5-1.59-.25-2.39,1.67-4.51,3.67-6.72,5.56-.65.56-3.54,3.38-4.61,2.48-1.42-1.2-.4-5-.18-6.53.11-.83-1.47-.48-1.76-.11A75.2,75.2,0,0,1,46.09,124.6l1.58.24c.92-2.89,2.14-5.66,3.06-8.54.25-.81-1.49-.42-1.76-.11-4.71,5.41-7.55,12.16-12.65,17.26l1.76.11c2.56-24,25.55-43.12,50-37.32.7.17,2.28-.88,1.15-1.15Z"/><path class="cls-3" d="M89.21,102.13c-9.31,8.37-17.9,17.57-23.65,28.79-6.46,12.63-6.86,26.68-2.44,40,.2.59,1.92.06,1.93-.52l.21-12.25-1.74.69a3.6,3.6,0,0,1,2.67,2.59c.31.58,1.71.05,1.93-.4,3.25-6.68,4.5-14.52,4.73-21.9l-1.93.52c2.15,3.42,2.41,7.58,4.17,11.2.29.6,1.7,0,1.93-.4,3.76-7.39,3.4-16,6.22-23.7l-1.93.4a23.68,23.68,0,0,0,4.27,9.41c.35.49,1.64-.11,1.86-.49,3.16-5.58,3.9-12.1,6.12-18.05l-1.93.4,0,1.89c0,.59,1.75,0,1.93-.4,3-6.08,4.46-12.71,6.86-19,.2-.52-1.7-.28-1.92.28-2.4,6.31-3.86,12.94-6.86,19l1.92-.4c0-.63,0-1.26,0-1.89s-1.77,0-1.93.41c-2.22,6-3,12.47-6.12,18l1.86-.5a23.12,23.12,0,0,1-4.14-9.22c-.12-.6-1.77,0-1.92.41-2.82,7.71-2.46,16.31-6.22,23.7l1.92-.41c-1.76-3.61-2-7.78-4.17-11.2-.33-.53-1.91-.11-1.93.52-.23,7.29-1.5,15.07-4.72,21.66l1.92-.4c-.72-1.39-1.43-2.53-3-2.92-.46-.12-1.74,0-1.75.68l-.21,12.25,1.93-.52a51.58,51.58,0,0,1,1.82-38.5c5.26-11.61,14.49-21.17,23.86-29.58.79-.72-1.13-.56-1.52-.2Z"/><path class="cls-3" d="M99.7,102.34c-6,2.66-8,10.28-9.41,16a86.27,86.27,0,0,0-2.67,23.4c.32,12,2.91,34.85,18.16,37.06.55.08,2-.75,1.07-1.28a16.62,16.62,0,0,1-5-4.85,25.12,25.12,0,0,1-2-3.74c-1.87-4,8.7,1.2,8.65,1.17.48.28,1.73.13,1.72-.64-.11-8.07-3-15.81-4.7-23.62l-1.85.69c1.35,1.46,3,2.43,4.44,3.8.53.5,1.58,0,1.73-.64,2.06-8.69.48-17.27-2.49-25.56l-1.85.69,4.26,5.55a1.16,1.16,0,0,0,1.87-.5c1.24-7.78-1.72-15.07-2.54-22.73l-1.93.52a6,6,0,0,0,1.49,3c.39.56,1.9.27,1.86-.5-.19-3.46-1.74-6.89-1.28-10.33.14-1-1.84-.75-2,.14-.47,3.52,1.08,6.81,1.28,10.33l1.86-.5L109,107.18c-.28-.93-2-.4-1.93.52.81,7.52,3.73,14.7,2.51,22.35l1.86-.5L107.19,124c-.46-.6-2.16-.17-1.85.69,2.92,8.16,4.49,16.61,2.46,25.18l1.72-.63c-1.34-1.28-2.88-2.14-4.16-3.53-.52-.56-2-.23-1.85.69,1.65,7.67,4.57,15.32,4.67,23.24l1.72-.64c-3.93-2.3-7.72-3.39-12-1.63-.28.11-.67.5-.54.84,1.71,4.21,4.07,8.1,8.05,10.48l1.07-1.28C92.15,175.34,90,152.77,89.57,141.64A86,86,0,0,1,91.24,123c1.1-6.14,2.86-16.58,9.32-19.47,1.21-.54.13-1.62-.86-1.17Z"/><path class="cls-3" d="M111.65,88.89c7.64-3.44,15.34-6.65,23.7-7.82,6.11-.85,12.14,1.16,17.51,3.94a38.84,38.84,0,0,1,20.25,28.6L175,113c-6-5.41-9.37-13.58-17.28-16.61-.41-.16-1.68,0-1.74.58-.51,5.25,1.75,10,2.65,15.14l1.56-.77c-4.55-1.25-7.56-5.2-12.24-6.29-.49-.12-1.56.14-1.57.76,0,2.71,0,5.1,1.33,7.5.34.62,2.2,0,1.93-.51-1.65-3.32-5.34-8.09-9.21-8.89-4.51-.92-4.71,3.5-4.3,6.86l1.86-.63c-3.85-3.56-9.12-7.44-14.17-9-4.43-1.33-6.4,1-5.06,5.3l1.56-.77c-4.39-1.16-7.87-4.19-12.26-5.35l-1,1,2.91-.07c.69,0,2.06-1.09.76-1.06l-2.91.07c-.44,0-2.08.74-1,1,4.39,1.16,7.88,4.19,12.27,5.35.35.09,1.74-.17,1.56-.77-.46-1.48-1.51-4.58,1.27-4a21.58,21.58,0,0,1,5.82,2.76,49.87,49.87,0,0,1,8.41,6.11c.42.39,2,.06,1.87-.63s-1-6.09,1.59-5.16a10.85,10.85,0,0,1,3.1,2.09,20,20,0,0,1,5,6.13l1.93-.51c-1.36-2.41-1.35-4.8-1.32-7.51l-1.57.77c4.66,1.09,7.69,5,12.25,6.3.4.11,1.67-.16,1.56-.77-.88-5-3.15-9.72-2.65-14.88l-1.73.59c7.79,3,11.12,11.11,17,16.45.41.37,2,.06,1.86-.63C173,99.68,164.32,88.8,152.17,83c-13.87-6.65-28.22-.72-41.27,5.15-1.23.56-.1,1.14.75.75Z"/><path class="cls-3" d="M114,111.1c.8-1.24,1.44-2.57,2.25-3.82l-1.87.24,2,8.42c.12.49,1.06.28,1.35.15l2.19-1-1.35-.14a25.49,25.49,0,0,1,1.33,7.5c0,.65,1.53.13,1.74-.1,1-1,2-1.9,3-2.89l-1.75.09c.63,3.12.69,6.7,2.69,9.3,2.36,3.07,2.53,5.77,3.54,9.39.2.74,1.73.1,1.93-.38.25-.64.5-1.27.76-1.9l-1.94.38c1.61,3.64,1,7.47,2,11.25.15.55,1.28.24,1.57,0,1.33-1,3-1,4.39-2l-1.56,0a61,61,0,0,1,.55,10.21c0,.82,1.41.29,1.74,0,1.14-.84,2.51-1.12,3.66-2l-1.74,0a82.2,82.2,0,0,1-.95,13.21c-.06.33.34.44.59.43,2-.07,3.73-.15,5.36-1.31l-1.57,0c.59,2.7-1.75,12.28,1.41,13.92a3.54,3.54,0,0,0,1.69.5c.72,0,.57,3.33.6,3.91a54.43,54.43,0,0,1-1.37,15.38c-.18.75,1.33.3,1.57.18,2-1.05,3.68-1.48,5.31-3.09l-1.75.1c.41,4.83-.81,9.33-1.69,14,0,.24.17.37.37.41,1.73.36,2.35.54,3.89-.2l-1.35-.14c1.51,7.39-.78,14.2-1.1,21.55,0,.8,1.9.41,1.93-.24.32-7.47,2.64-14.33,1.1-21.83-.1-.49-1.08-.27-1.35-.14-2.39,1.14-.35-5.75-.16-6.75a26.8,26.8,0,0,0,.3-7.21c-.06-.65-1.52-.13-1.74.1-1.43,1.4-3.27,1.94-5,2.82l1.57.17a59.91,59.91,0,0,0,1.07-19.94c0-.32-.64-.3-.84-.28-4.3.37-2-11-2.56-13.76-.12-.57-1.29-.23-1.56,0-3.72,2.64-2.14-4-2.07-5,.16-2.31.16-4.63.21-6.95,0-.82-1.41-.29-1.75,0-1.14.85-2.51,1.12-3.66,2l1.74,0a63.44,63.44,0,0,0-.55-10.49c-.09-.57-1.32-.21-1.57,0-1.33,1-3.05,1-4.39,2l1.56,0c-1-3.78-.38-7.6-2-11.25-.31-.7-1.72-.16-1.94.38l-.76,1.9,1.94-.38c-.8-2.88-.61-5.63-2.47-8.05-2.53-3.3-3-6.62-3.75-10.63-.13-.64-1.49-.18-1.75.09-1,1-2,1.9-3,2.9l1.74-.1a25.87,25.87,0,0,0-1.32-7.5c-.16-.48-1-.28-1.35-.14l-2.2,1,1.35.15-2-8.43c-.17-.69-1.62-.14-1.86.24-.81,1.24-1.45,2.57-2.25,3.82-.49.76,1.45.57,1.8,0Z"/><path class="cls-3" d="M114.22,122.94l-1.45,0c-.32,0-1.6.15-1.6.63,0,1.77,2.07,2.76,3.27,4a46.71,46.71,0,0,0,6.78,6.18l1.1-.64c-1.48.28-2.89.76-4.37,1.05-.19,0-1.23.25-1.16.58A11.9,11.9,0,0,0,121,141.5c1.58,1.42,2.71,2,2.12,4.41a5.07,5.07,0,0,0,.73,3.1c1.14,2.53,4.72,4.39,4.45,7.46-.34,3.81,2.47,6.65,4,9.95l1.6-.63-1.46,0c-.21,0-1.72.23-1.6.63.45,1.44,1.81,6.51,3.24,7.28,2,1,1.43,2.19.45,3.68-.86,1.31.44,3.26.9,4.41.7,1.78,5.16,7.74,3.45,9.42s-2,3.37-1.56,5.78,1.76,4.53,2.33,6.89c.27,1.13-.78,3.31-1,4.64-.26,1.56.69,3.81,1.2,5.25,2.29,6.39-.8,14.61,3.66,20.16.35.44,2-.39,1.93-.52-2.26-2.81-2.41-6.17-2.46-9.64-.06-4.29-.24-7.84-1.69-11.92-1.31-3.65,1-6.74-.2-10.24-1.27-3.83-4.13-8.27.5-11.18,0,0,.28-.15.23-.26-1.19-2.52-2.53-5-3.79-7.45-.79-1.57-2-3.89-1.59-5.7.21-.93,1-1.64,1.27-2.68a.09.09,0,0,0,0-.14c-2.67-2.06-3.91-5.1-4.9-8.3l-1.59.63,1.45,0c.18,0,1.76-.26,1.6-.63-1.63-3.62-5.19-6.91-3.46-11.14l0-.08c-2.5-3-7.44-6.78-4.91-11.1a.09.09,0,0,0,0-.14c-3.06-2.78-6.13-4.93-7.06-9.18l-1.15.58c1.47-.29,2.9-.77,4.38-1.05.1,0,1.43-.42,1.1-.65a35.62,35.62,0,0,1-5.79-5.11c-1-1.06-4.19-3.4-4.16-4.94l-1.6.63,1.45,0c.38,0,2.19-.76,1.27-.74Z"/><path class="cls-3" d="M208.1,81.09c-7.62-1.82-15.32-3.18-23.14-1.88-8.4,1.4-15.67,6.37-22.14,11.62-1,.82.57,1.24,1.23.7,5.94-4.81,12.23-9.06,19.75-10.9s15.71-.16,23.15,1.62c.71.17,2.29-.89,1.15-1.16Z"/><path class="cls-3" d="M168.51,94.56c1.48-.06,2.63-1.1,4-1.66l-1.32-.19a16.36,16.36,0,0,0-.79,4.5c0,.31.32.35.56.34,3.37-.11,3.76.82,2.35,3.5-.07.15.09.24.18.29,3.84,2.12,7-2.32,9.48-4.64l-1.72,0-.66,3.74c-.11.64,1.32.22,1.55.08a48.4,48.4,0,0,0,6.39-4.85l-1.72,0c-.87,1.89-1.75,3.76-2.78,5.58-.16.28.44.34.57.34,5.7-.38,9-5.7,12.88-9.25l-1.72,0a66,66,0,0,1-4.51,8.92c-.22.37.19.48.5.47,4.18-.2,8.7-7.83,12.09-6.39.51.21,2.28-.55,1.56-.86-2.4-1-4.39-.32-6.39,1.21-1.61,1.23-2.84,2.92-4.38,4.23-2.57,2.2,2.06-5.12.16-1.74a55.11,55.11,0,0,0,2.89-6.12c.25-.62-1.52-.15-1.72,0-1.67,1.54-3.2,3.2-4.78,4.83l-1.84,1.73a3.22,3.22,0,0,1-2.74,1.12c.81-1.42,1.45-3,2.13-4.43.27-.59-1.52-.13-1.72,0a45.11,45.11,0,0,1-6,4.62l1.54.08.66-3.75c.12-.68-1.49-.18-1.72,0-.61.57-1.1,1.06-1.68,1.66a2.71,2.71,0,0,1-3.9,1.41,10.82,10.82,0,0,0,.6-2.4c.06-.31-.36-.35-.57-.34-3.58.12-3.9-1.31-2.79-4.39.2-.55-1.16-.25-1.32-.18.09,0-2.66,1.36-2.45,1.35-.62,0-2.08,1-.79,1Z"/><path class="cls-3" d="M211.64,76.59c-2-3.68-2.16-8-4.22-11.69A61.28,61.28,0,0,0,197,51.55c-7.33-7.29-16.32-12.57-25.26-17.62l-1.52,1c5.08,2.38,9.46,5.87,11.54,11.24l1.08-.85c-3.47.49-6.6-.3-10,.81-.35.11-1.26.63-.61,1,2.28,1.39,4.68,2.52,7,3.77,1.5.8,3.94,1.94,1.58,3.17a15.72,15.72,0,0,0-2.33,1.55c-.31.23-.53.54-.16.82,2.52,1.91,5.43,2.52,8.45,3.27.56.14,5.49,1.76,4.45,2.39a39.84,39.84,0,0,0-5.19,4.15.41.41,0,0,0,.2.75l10.33,2.53c.15-.37.29-.74.44-1.1a12.06,12.06,0,0,0-5,2.22c-.28.21-.56.58-.15.82,2.9,1.72,5.37,3.41,7.11,6.36.35.61,2.23,0,1.78-.78a12.91,12.91,0,0,0-3.6-4.18c-.63-.47-1.29-.91-2-1.32-2.13-1.35.88-1.78,2.13-2,.47-.11,1.32-.88.43-1.1l-6.88-1.68c-4.36-1.07.79-3.46,2.81-4.69.34-.2.5-.56.15-.82a18.49,18.49,0,0,0-7.16-2.94,31.88,31.88,0,0,1-4.75-1.49c-3-1.27.92-2.45,2.27-3.15.21-.11.85-.52.49-.84-3.24-2.91-7.26-4.4-10.94-6.65l-.62,1c3.1-1,6.29-.26,9.44-.71.31,0,1.28-.34,1.09-.84-2.15-5.56-6.66-9.23-11.95-11.71-.58-.27-2.4.5-1.52,1,8.92,5,17.53,10.32,25,17.42a66.1,66.1,0,0,1,9.67,11.93c2.62,4.08,2.71,9,5,13.11.33.61,2.21,0,1.79-.79Z"/><path class="cls-3" d="M218.32,80c1.19-6.54,2.81-13,3.34-19.64.55-7-1.08-13.61-3.11-20.2-3.24-10.52-7.63-22.79-18.55-27.43-.36-.15-2.09.19-1.68.78,4.84,6.94,6.7,14.67,7.85,22.95l1.75-.68a20.46,20.46,0,0,1-4.65-3.44c-.33-.29-2.08,0-1.87.61,1.37,3.72,2.95,7.33,4,11.15l1.36-.73a8,8,0,0,1-4.53-1.89c-.37-.27-2,0-1.86.61.64,3.86,2.11,7.36,3.45,11l1.74-.69a3.49,3.49,0,0,1-2-1.24c-.35-.3-2,0-1.87.62a52.62,52.62,0,0,0,6.81,15.73c.35.57,2.17-.13,1.93-.51a52.93,52.93,0,0,1-6.81-15.74l-1.87.61A5.47,5.47,0,0,0,204,53.28c.31.09,2-.09,1.75-.68-1.34-3.65-2.81-7.15-3.45-11l-1.87.62c1.9,1.35,3.23,2.1,5.54,2.12.28,0,1.5-.24,1.36-.73-1.08-3.82-2.66-7.43-4-11.15l-1.87.62a21.63,21.63,0,0,0,4.9,3.58c.38.17,1.83-.09,1.74-.69-1.16-8.37-3.09-16.13-8-23.14l-1.68.78c11.22,4.76,15.31,17.76,18.61,28.48a52.9,52.9,0,0,1,2.58,20c-.49,6.13-2.13,12.18-3.22,18.22-.12.61,1.81.27,1.91-.29Z"/><path class="cls-3" d="M218.47,79.34a80.66,80.66,0,0,1,13-31.22c3.84-5.48,8.41-8.31,15.19-7.76,4,.32,7.75,1,11.75.49.76-.11,1.67-1.35.43-1.37-6.31-.12-12,3.09-16.18,7.69a.53.53,0,0,0,.24.9c2.65.68,3.53,1.83.94,3.88-2.07,1.62-4.27,3-6.3,4.72-.52.43-.37,1,.3,1.11a18.23,18.23,0,0,0,6.25-.1c-.24-.31-.48-.63-.71-1A75.15,75.15,0,0,1,229.56,68a.6.6,0,0,0-.25.84c.27.47.32.82.78,1-1-.4-3.39,1.45-4.14,1.9a20.65,20.65,0,0,0-6.57,5.68c-.71,1,1.11,1.24,1.61.54,2.76-3.86,7-5.62,10.85-8.1a.57.57,0,0,0-.07-1.06s5.79-4.78,6.43-5.3A83.49,83.49,0,0,0,245,57.27c.51-.52-.17-1.05-.71-1a16.07,16.07,0,0,1-5.75.1c.1.37.2.74.29,1.11,3.29-2.7,6.9-4.92,9.92-7.94a.52.52,0,0,0-.06-.82c-.59-.44-3.67-1.86-3.4-2.16a17.85,17.85,0,0,1,12.89-5.75c.15-.46.29-.92.43-1.38-5.1.71-10.08-.7-15.19-.61-4.87.08-8.7,2.87-11.77,6.4-8.08,9.27-12.85,22.31-15.1,34.23-.18,1,1.8.69,1.95-.15Z"/><path class="cls-3" d="M221.89,79.83c5.4-5.79,12.17-10.89,20.32-11.36A22.58,22.58,0,0,1,256,71.77c2.4,1.53,4.48,3.07,7.2,4l.87-1.43-9.18-2.24c-.52-.13-1.75.54-1.2,1.18a14,14,0,0,1,1.9,2.81l.69-1.15C252.87,76.2,249.19,76,245.72,77c-.83.25-1.12,1.21-.13,1.46l2.29.56.39-1.5c-7.73.36-15-1.45-22.35,1.84a.83.83,0,0,0-.52.88,3.94,3.94,0,0,0,1,2c.53.77,2.36,0,1.76-.88-1.83-2.63,10.62-2.54,11.34-2.5,2.9.15,5.75.34,8.66.21.94,0,1.53-1.23.39-1.5L246.23,77c0,.48-.09,1-.13,1.45,3.49-1,7.12-.83,10.54-2.11.5-.19,1-.58.69-1.15a13.74,13.74,0,0,0-1.9-2.81l-1.2,1.18,9.18,2.24c.81.2,1.95-1.07.87-1.43-4.66-1.56-8.1-5.15-12.86-6.57a29.29,29.29,0,0,0-12.22-.54c-7.42,1.1-14,6.64-18.95,11.92-.84.9,1,1.32,1.64.64Z"/><path class="cls-3" d="M227.84,82.74c5.29,1.59,10.7,1.73,16.17,2.13a40.52,40.52,0,0,1,18.43,5.92c12.4,7.62,10.13,21.11,10.19,33.68l1.94-.33c-3.07-7.4-4.52-16.17-10.83-21.66a1.17,1.17,0,0,0-1.72.63c-.41,3.24-.14,6.54-1.08,9.7l1.81-.31c-2.43-4.14-3.76-9.73-8.18-12.26a1.27,1.27,0,0,0-1.56.27,4.42,4.42,0,0,0-.95,1.53l1.67-.44c-3.37-2.87-5-7.09-6.88-11-.38-.78-1.93-.1-1.85.69a26.86,26.86,0,0,0-.1,3.7l1.53-.73a9.18,9.18,0,0,1-5.14-2.67,1.16,1.16,0,0,0-1.87.5,11.88,11.88,0,0,0-.33,5.58l1.52-.92c-2.58-1-4.66-3.35-6.47-5.34-.6-.66-2.43.13-1.77.85,2,2.21,4.3,4.73,7.13,5.81.57.21,1.67-.17,1.52-.92a10.33,10.33,0,0,1,.36-5.2l-1.86.5a11.06,11.06,0,0,0,5.8,3.13c.48.12,1.55,0,1.54-.73,0-1.41.21-2.69.07-4.08l-1.85.69c2,4,3.68,8.27,7.16,11.23a1.23,1.23,0,0,0,1.67-.44l.72-1.19-1.55.27c4.28,2.45,5.53,8,7.9,12,.34.57,1.64.27,1.81-.32,1-3.3.76-6.68,1.19-10.07l-1.72.63c6,5.27,7.44,14,10.38,21.06.31.75,1.95.52,1.95-.33,0-12,2.11-24.54-8.21-32.94-4.17-3.39-9.11-5.23-14.18-6.74-7.56-2.26-15.66-.94-23.25-3.23-.84-.26-2.28,1-1.11,1.32Z"/><path class="cls-3" d="M230.1,94.8c8.33,6.71,15.14,13.69,19.73,23.5,5.61,12,1.79,23.51-5.85,33.51l1.84-.17c.45-6.42.17-12.54-2.12-18.62-.2-.53-1.84-.08-1.93.4l-1.05,6,1.93-.4c-1.2-5.75-.75-12-3.55-17.29-.28-.53-1.75-.08-1.92.41-.92,2.64-1.58,5.36-2.6,8l1.92-.4c-1.35-6.06-2.16-12.23-4-18.18-.18-.6-1.76,0-1.93.41a28.77,28.77,0,0,0-1.63,5.86l1.87-.5c-3.25-2.45-2.91-8.42-4.4-12-.23-.52-1.84-.09-1.93.41a61.15,61.15,0,0,0-1,9.25l1.93-.52c-.19-8.3-1.47-15.79-6.26-22.72-.3-.44-2.11.24-1.87.61.45.71.28.5,1.08,1.13.47.37,2.22-.38,1.81-.71l-1-.94-1.87.62c4.75,6.86,6,14.33,6.14,22.53,0,.48,1.92.12,1.93-.52a59.55,59.55,0,0,1,1-9l-1.93.41c1.56,3.66,1.13,9.58,4.53,12.13.38.29,1.76.05,1.86-.5a29.13,29.13,0,0,1,1.63-5.86l-1.92.41c1.82,5.95,2.62,12.11,4,18.18.14.59,1.77,0,1.93-.41,1-2.6,1.68-5.32,2.59-8l-1.92.41c2.79,5.31,2.35,11.53,3.54,17.29.12.54,1.85.06,1.93-.41l1.05-6-1.92.41c2.26,6,2.57,12,2.14,18.39,0,.71,1.6.14,1.84-.17,7.46-9.76,11.14-20.3,6.74-32.27-3.92-10.65-12-18.44-20.58-25.4-.47-.38-2.22.37-1.81.71Z"/><path class="cls-3" d="M217.78,96.4c1.72,5.66,5.06,10.58,7.12,16.1,2.44,6.53,2.06,14.55,1.57,21.39-1,14.14-9.63,27.43-21.28,35.29l1.57.56c3.3-5.6,5.63-11.65,8.46-17.49.39-.81-.89-.93-1.36-.69a23.32,23.32,0,0,0-4.31,3l1.62.37c.49-4.59,2.56-8.58,4-12.89a.55.55,0,0,0-.37-.76c-4.75-1.42-8.71,2.79-12.27,5.32l1.62.38c2-7,5.73-13.07,8.8-19.55a.54.54,0,0,0,0-.55c-1.33-1.61-2.75-1.78-4.8-1.71.11,0,4.64-11.4,5-12.55A.53.53,0,0,0,213,112c-2.87-2-5.3-1.29-7.69,1.12l1.74.4c1.06-2.86,3.87-7.07,2-10.06-.84-1.32-2.57-.18-2-1.79.88-2.41,2.55-8.89,5.52-9.53,1.21-.26.84-1.59-.36-1.34-4.65,1-6.18,8.45-7.58,12.18a.61.61,0,0,0,.6.82c5,.36.76,7.4,0,9.49-.4,1.07,1.27.87,1.73.4q5.4-1.75,3.41,1.33c-.55,1.31-1.24,2.58-1.86,3.86a31.81,31.81,0,0,0-2.58,7.29c-.1.47.55.69.9.64,6.65-1,1.1,6.82-.11,9.18a58.63,58.63,0,0,0-4.47,11.18c-.25.86,1.28.61,1.62.37,1.53-1.09,10.37-7.73,8.31-2.44-1.3,3.35-2.58,6.43-3,10-.09.83,1.22.72,1.62.37a18.14,18.14,0,0,1,3.89-2.78l-1.35-.69c-2.83,5.84-5.16,11.89-8.46,17.49-.55.93,1.16.84,1.57.56,10.62-7.16,18.79-18.77,21.31-31.37,1.44-7.2,1-14.83.15-22.07-.92-7.52-6.07-13.63-8.23-20.75-.27-.89-2.2-.37-1.93.52Z"/><path class="cls-3" d="M200.55,108.05a21.25,21.25,0,0,0-5.81,4.39c-.24.26.07.48.3.53,2.78.61,4.42.61,1,3.55-1.78,1.53-3.93,2.43-5.62,4.09-.09.08-.27.26-.2.4,2.51,5.3-4.53,7.45-6.76,11.35-.21.38.18.57.52.56,5.63-.25.33,4.81-1.42,6.14a15.35,15.35,0,0,0-3.94,3.85c-.08.13-.12.27,0,.39,4.71,4.82-4.59,11.26-6.92,15.13-.17.29,0,.46.31.53,3.4.83-3.78,7.85-5,9.27a.29.29,0,0,0,.13.47c5,1.76-3.67,10.25-5.37,12.32-.22.27.06.47.3.53,4.71,1.15,2,4.32,0,7.1a26.14,26.14,0,0,0-3.2,5.12c-.09.21.21.37.37.39,6.27.69-1.37,13.2-2.12,16.38-.17.7,1.78.4,1.93-.25,1.16-4.93,4.88-9.31,4.61-14.56-.12-2.34-3.25-1.75-1.95-4,2-3.45,4.79-5.83,5.34-9.94,0-.25-.16-.34-.37-.39-1.61-.4-3.42,0-2.06-1.57.76-.86,1.51-1.73,2.24-2.62a22.43,22.43,0,0,0,3.53-5.55c.41-1,.53-2.55-.49-3.24s5-7.88,5.89-9.36c.17-.29,0-.46-.3-.53-2-.48-1.8-.47-.69-1.85s2.29-2.58,3.41-3.88c1.74-2,3.45-4.27,3.72-7a3.1,3.1,0,0,0-.4-1.81c-1.42-2.28.9-3.34,2.58-4.6,2.27-1.71,4.19-3.34,4.66-6.26a.3.3,0,0,0-.2-.34c-3.41-1.36-3-1.44-.09-3.9,1.39-1.15,3.66-2.6,4.16-4.49a4.92,4.92,0,0,0,0-2.82c-.49-2.08,2.35-3,3.76-3.88a10.81,10.81,0,0,0,4.34-5.11c.17-.41-.65-.41-.83-.39-.18-.74-.35-1.48-.53-2.21.77-.48,1.55-.93,2.35-1.35,1.14-.63-.57-.9-1.19-.56Z"/><path class="cls-3" d="M179.41,125.75l-1.72-.42a1.39,1.39,0,0,0-1.49.52c-1.67,3.3-1.91,6.92-2.47,10.52l1.72-.61a7.89,7.89,0,0,0-3.84-.95c-.46-.05-1.23.19-1.33.72q-1.11,6.38-2.23,12.75l1.54-.69c-7.41-3.1-7.56,10.7-8.2,14.7l1.73-.61c-1.56-.67-3.87-1.14-5,.69a10.52,10.52,0,0,0-1.11,5.13c-.09,2.17,1.15,4.88-1.28,4.94a1.17,1.17,0,0,0-1.08.73c-1,4.19.09,8.32.19,12.56,0,.93,2,.57,1.94-.19-.07-3-2.57-11.47,1.16-12,.34-.05,1.08-.26,1.08-.73,0-1.68-1-11.59,2.54-10.07.52.22,1.62.1,1.73-.61.35-2.19.93-15.08,5.11-13.33.48.2,1.44-.13,1.54-.69q1.13-6.37,2.24-12.74l-1.33.72a7.12,7.12,0,0,1,3,.73c.5.28,1.63,0,1.73-.61.55-3.49.74-7,2.36-10.2l-1.48.53,1.72.42c.73.18,2.29-.92,1.14-1.19Z"/><path class="cls-3" d="M181.2,124.91c.48-2.75,1-5.5,1.45-8.25l-1.32.74c2.37.44,4.32.3,6-1.53.7-.76,4-8.79,4.6-7.72.31.57,1.37.14,1.69-.16a20.22,20.22,0,0,0,4-5.46c.48-.94-1.47-.86-1.83-.17A19.09,19.09,0,0,1,192,107.5l1.69-.17c-.55-1-2.21-2.36-3.27-1C188,109.41,187,117,182,116.09c-.46-.08-1.23.23-1.32.75q-.72,4.11-1.45,8.24c-.16.91,1.81.62,1.95-.17Z"/></svg>