<svg id="layer1" xmlns="http://www.w3.org/2000/svg" viewBox="0 0 400.91 199.33"><defs><style>.cls-1{fill:#efbe97;}.cls-2{fill:#e5813e;}.cls-3{fill:#492d0c;}</style></defs><path class="cls-1" d="M345.75,110.87c-.35.2-.68.41-1,.62a122.37,122.37,0,0,0-6.42-20.43,6.27,6.27,0,0,0,.38-2.26,83.15,83.15,0,0,0-4.62-25.26c-2.13-12.88-4.2-25.76-8-38.29-1.72-5.71-8.89-6.36-12.07-1.59l-1.5,2.22a17.26,17.26,0,0,0-5.67-2.1c-4.09-.77-8.25-.59-12.39-.89-3.06-.22-5.82-1.14-7.67-3.91-2.53-3.77-8-4-12.09-4.74-4.32-.79-8.7-1.34-13.07-1.8a264.68,264.68,0,0,0-28.58-1.18c-18.48.05-36.93,1.34-55.41,1.38a6.09,6.09,0,0,0-1.68.23c-12.21-.48-24.43-.7-36.66-.29a16.23,16.23,0,0,0-2.31.09l-.69.11a12.85,12.85,0,0,0-6.65,3.36A14.08,14.08,0,0,0,125.25,29l-.63.74c-6.7,1.51-12.39,6-16.24,11.79l-1.56.79a121.26,121.26,0,0,0-29.34,6.91c-.67-.11-1.34-.2-2-.26-7-.64-12.58,2.68-16.42,7.68a17.86,17.86,0,0,0-5.38-.91,11.55,11.55,0,0,0-10.4,5.54,18.16,18.16,0,0,0-5.76,7.22c-1.91,4.08-.22,8.08,4,9.65A97.34,97.34,0,0,0,53,81.54q.27.21.54.39c.28.36.57.7.86,1A27,27,0,0,0,59,91.24,70,70,0,0,0,61.05,102a37,37,0,0,0,7.42,14.31,18.5,18.5,0,0,0-2.28,6.19,8.09,8.09,0,0,0,.39,4.43h-.16A6.61,6.61,0,0,0,60,131.81c-1,3.78,1.3,6.74,4.62,8.1a49.26,49.26,0,0,0,29.7,2.63c1.39.1,2.78.19,4.18.26a117.52,117.52,0,0,0,32.68-3.17c6.32-1.47,12.58-3.18,18.84-4.88a6.45,6.45,0,0,0,7.54-1.2c.36-.36.71-.74,1.06-1.11l3.49-.9a6.4,6.4,0,0,0,6.46,0,42.46,42.46,0,0,0,3.76-2.36l.89-.18c1.75,3,6.33,4.63,9.26,2.54a61.42,61.42,0,0,0,5.85-4.74c5-.48,10-.72,15.13-.79.09,5.1,5.56,7.68,9.66,5.6-.17,1.67-.31,3.33-.41,5-.31,5.89,7.36,8.67,11.28,4.69.28-.28.55-.57.82-.86a6.63,6.63,0,0,0,5.5,1,7.17,7.17,0,0,0,2.08,1.31c6.72,4.35,14.43,4.77,22.68,3.35,1.76-.3,3.69-.83,5.7-1.38,2.13,0,4.25.05,6.38.05a6.3,6.3,0,0,0,4.61-2.13,12.82,12.82,0,0,1,6.05,1.24,6.81,6.81,0,0,0,7.8-.94,6.86,6.86,0,0,0,3.73-2c4.41,2,8.1-.08,10.81-3.42l.24,0c9.93,1.65,19.79,2.45,30,.86,4-.62,7.32-1.61,10.17-3.87a33.56,33.56,0,0,0,3.74.79c5.45.8,10.59-4.24,7.42-9.7l-.1-.17a27.24,27.24,0,0,0,3.21-5.56C357.32,114,351.94,107.44,345.75,110.87ZM197.82,52.13a7,7,0,0,0-5.12-3.63,6.6,6.6,0,0,0,.33-1,62,62,0,0,0,7.18,1.27C199.39,49.85,198.6,51,197.82,52.13Zm31.07,1.51c-.58.91-1.16,1.82-1.72,2.74a6.47,6.47,0,0,0,0-2.87Z"/><path class="cls-2" d="M196.15,41.29l-.24-.12a2.43,2.43,0,0,0-.57-.94,16.85,16.85,0,0,0-5.5-3.39,3.94,3.94,0,0,0-.31-2.17c-.55-1.23-.33-2.72-.37-4a6.7,6.7,0,0,0-1.66-4.32,2.7,2.7,0,0,0-3.66-.45,3.32,3.32,0,0,0-2.42-.35,3,3,0,0,0-1.87,1.54c-12.23.67-34.5,4.21-37.55-10.2-.82-3.88-6.88-2.24-6.06,1.63,3.93,18.54,28,15.28,43,14.7v5.06c0,.72-1.6,2.1-1.43,3.32-1.79.18-3.53.39-5.32.62a3.6,3.6,0,0,0-3.9-.91c-2.74,1.17-5.65,1.71-8.43,2.77h-.08v0l-.74.29c-2.37,1-1.86,3.52-.29,4.84-.54.39-1.09.78-1.65,1.16a4,4,0,0,0-2.69-1.78,34.15,34.15,0,0,0-12.55.63c-6.49.65-12.94,1.7-19.39,2.77l-1.23-.2a3.05,3.05,0,0,0-3,.9c-4.93.8-9.86,1.55-14.82,2.08a3.19,3.19,0,0,0-2.45,1.5c-2.6.37-5.2.73-7.8,1.06-9.59-3.84-20.51-2.65-29.92,2.49-2.72,1.48-1.46,5.75,1.55,5.73a234.78,234.78,0,0,0,27.42-1.93c.9.49,1.77,1,2.65,1.6a2.58,2.58,0,0,0-.29,3.44,23.86,23.86,0,0,0,4.75,5.08,57.48,57.48,0,0,0,1.12,6.55c.92,3.93,6.55,2.19,5.94-1.64-.11-.65-.2-1.31-.28-2l.42,0a3.16,3.16,0,0,0,3.07,2.75,17.16,17.16,0,0,1,3.73.67,4.29,4.29,0,0,0,2.45.87,2.64,2.64,0,0,0,2.44-1.16A19.92,19.92,0,0,0,122,77.5a3.1,3.1,0,0,0,.69-.71,37.66,37.66,0,0,0,18.65-.52,3,3,0,0,0,1.5-1c4.41,1.64,8.78,3.43,13.13,5.28,2.08.89,4.61-.11,4.63-2.65,0-1.26.81-2.23-.72-1.67a3.27,3.27,0,0,0,1.84-1.42A16.9,16.9,0,0,0,163,72.17c5.69-6.14,9.31-14.77,11.42-22.77a3.09,3.09,0,0,0,.06-1.31A138.2,138.2,0,0,1,190,47a2.82,2.82,0,0,0,1.76-.65c.69.16,1.38.34,2.06.54C197.09,47.9,199.3,42.87,196.15,41.29ZM126.77,60.13c-1.21-.38-2.44-.7-3.68-1l.4-.06c1.12.34,2.24.64,3.37.88ZM147,69.85a5.45,5.45,0,0,1-1.07-.66,2.66,2.66,0,0,0,.45-.66c.27-.08.55-.15.82-.24C147.1,68.82,147,69.35,147,69.85Zm.67-8.38a21.54,21.54,0,0,1-5.06,1.65,30,30,0,0,0,3.9-2.45c.45.13.9.28,1.34.44Z"/><path class="cls-2" d="M270.28,104.2a2.77,2.77,0,0,0-1.89-2.77c-.07-.52-.16-1-.24-1.55l.17-.31a2.88,2.88,0,0,0-.65-3.9c-2-11.92-4.72-23.84-4.72-35.86V51.67c0-4-5.9-3.94-6.07,0-.11,2.57.07,5.14.07,7.7v0c-1,4-1.61,7.78-.16,11.63a3,3,0,0,0,1,1.47c.19,1.4.36,2.8.58,4.19a3.66,3.66,0,0,0-.67.36l-.13.08a5.44,5.44,0,0,1-.54.15L253.73,74c-2.81-2.8-7.15,1.54-4.35,4.35,1.46,1.45,2.9,2.9,4.36,4.36.88,1.66,2.84,3,4.19,4a2.42,2.42,0,0,0,2.15.48c.66,3.72,1.32,7.43,1.93,11.14-5.33,10.27-9.27,23.2-19.51,29.42-2.88,1.75-1,6.92,2.36,5.62.25-.1.48-.22.72-.33v0l.09-.06c3.48-1.6,5.86-4.23,9.18-6.12a2.85,2.85,0,0,0,1.09-4,100.88,100.88,0,0,0,7.53-13.76c.14,1.28.27,2.57.38,3.85-.43,8.39-1.22,16.76-1.27,25.16,0,3.41,5.32,4.26,6,.81a86.8,86.8,0,0,0,1.29-24.5C270.12,111.07,270.26,107.64,270.28,104.2Z"/><path class="cls-2" d="M333.2,121.19a73.48,73.48,0,0,0-11.11-13.8c-2.37-2.35-5.88-6.73-9.64-7.69-.25-1.76-.47-3.49-.82-5.06-.26-1.16-.54-2.34-.83-3.51A3.57,3.57,0,0,0,312,88.75c1.26-12-2.93-23.12-4.74-34.8-.48-3.14-5.18-2.74-5.93,0-2.72,9.89-1,20,1.35,30a40.47,40.47,0,0,1-12.28-5.57c-3.25-2.3-6.31,3-3.11,5.31,5.18,3.67,11.05,5.53,17.08,7.1.57,2.29,1.13,4.57,1.63,6.83.31,1.36.55,2.69.79,4-1.31,1.27-2.51,2.86-3.53,3.83-2.51,2.44-5.14,4.74-7.85,7-2.56,2.09-4,2.93-3.23,6.51a16.79,16.79,0,0,0,3.76,7.55c2.58,3,6.91-1.36,4.35-4.35a8.92,8.92,0,0,1-2-4.23c3.55-2.81,6.9-5.81,10.16-8.93a19.57,19.57,0,0,0,3.95,7.09c4.37,5,11.25,7.58,17.35,9.66C332.31,126.58,334.57,123.41,333.2,121.19Zm-18.33-12.08c2,1.84,4,3.77,5.83,5.78a24.63,24.63,0,0,1-4-3.2A10.92,10.92,0,0,1,314.87,109.11Z"/><path class="cls-3" d="M155.24,45.52c-8.08-.68-15.13.81-22.76,3.4-10.93,3.7-22.22,4.16-33.64,4.87-10.67.66-20.2,3-30.35,6.21-5.65,1.81-10.95,3.68-16.92,3.88-3.34.11-6.18.61-9,2.51-.37.25-.54.77,0,.9,14.26,3.25,27.69-4.87,42-3.83,3.47.26,5.8.28,6.56,3.92.53,2.51.77,5.13,1.51,7.58,1,3.48,3,6.28,3.54,10,.75,5-.28,10.23-.79,15.17-.09.94,1.72.39,1.94-.21,2.82-7.35,1.31-17.81,12.18-18,.92,0,3.35-.6,3.31,1.11a19.22,19.22,0,0,1-1,4.79c-.86,3-2,5.76-2,8.94,0,.93,1.56.39,1.88,0,4.14-5.7,3.88-13.82,11.62-16.38,6-2,14.71-2,21-1.63,12.84.79,18.9,15.81,25.24,24.87.39.56,2,.06,1.86-.65-1-6.81-5.41-12.21-8.31-18.28-3.84-8-.27-12.85,4.07-19.41.53-.8-1.43-.69-1.82-.1-3.54,5.35-7.34,9.43-5.5,16.23,2.12,7.87,8.41,13.88,9.63,22.08l1.85-.66C164,92.28,157.56,76.7,142.24,77.48c-7.07.36-14.93-.12-21.56,2.72s-6.91,11.2-10.74,16.47l1.88-.06c.05-5.32,2.94-10,3.05-15.37a.53.53,0,0,0-.61-.49c-4.53.12-8.92-.38-12.8,2.35-4.9,3.45-4,11.93-6,17l1.94-.21c.91-8.81,1.87-16.44-2.37-24.54-1.71-3.27-.24-10.27-3.75-12.23-2-1.1-5.44-.86-7.56-1A46.14,46.14,0,0,0,72.54,63c-8.2,1.43-16,4.38-24.49,3.86-7-.42,1.56-1.73,3.28-1.81a53.8,53.8,0,0,0,6.21-.52c4.41-.7,8.87-2.7,13.12-4.06a119.43,119.43,0,0,1,29.73-5.62c9.12-.57,18.19-1,27.1-3.22,9.4-2.31,17.07-5.76,27-4.93.8.07,2-1.09.72-1.2Z"/><path class="cls-3" d="M154.71,47.58c9.36-.69,16.07-6,24.71-8.9,5.29-1.78,12.52-1.82,17.3,1.2a11.52,11.52,0,0,1,4,5.35c.92,2.45-2.12,2.53-3.69,2.58-5.75.18-11.33-2.13-17-.55-7.66,2.12-12.52,11.08-15.36,17.8-.43,1,1.52,1,1.84.2,2.32-5.49,5.36-10.75,10-14.58,4.17-3.43,8.69-2.64,13.5-2,3.06.4,12.07,2.22,12.8-2.66.41-2.68-2.83-5.76-4.62-7.22-3.38-2.76-8.63-2.72-12.71-2.46-11.12.7-19.44,9.06-30.61,9.89-1.07.08-1.5,1.47-.18,1.37Z"/><path class="cls-3" d="M183.37,36.3c6.3-9.44-12.3-9-17.19-8.53-5.17.54-10.32,1.58-15.55,1.07-6.86-.67-10.49-5.95-12.36-12.08l-1.93.51c2.9,8.62,10.86,10.87,19.18,11.18s24.43-4.09,22.71,9.13c-.11.9,1.85.58,2-.19,1.17-9-5-10.66-12.74-10.52-10.49.19-24.95,2.41-29.17-10.11-.26-.79-2.17-.27-1.93.51,2.84,9.33,9,13.28,18.55,13,4.72-.16,9.4-1.13,14.12-1.48,4.06-.31,17.28.29,12.54,7.42-.55.82,1.41.75,1.82.13Z"/><path class="cls-3" d="M186.68,34.85c1.72-4.5,2.15-6.55-2-9-2.75-1.6-6.25-1.76-9.34-1.81-9.45-.17-18.87,1.67-24.53-7.79L149,17c6.86,4.67,14.41,6.64,22.56,7.7a93.85,93.85,0,0,0,10.32.86,24,24,0,0,1,6.91.82c4,1.23,3,6.52.83,8.87-.77.82,1.12.75,1.54.3,4.75-5.08,1.59-10.43-4.7-10.89-12.44-.92-24.94-1.11-35.67-8.41-.45-.31-2.24,0-1.79.75,3.8,6.36,9.61,8.23,16.7,8.33,3.67.05,7.32-.32,11-.15a16.64,16.64,0,0,1,6.42,1.59c3.77,1.77,2.89,5.06,1.65,8.3-.24.62,1.69.38,1.93-.25Z"/><path class="cls-3" d="M164.21,61.46a59.37,59.37,0,0,0,11.26,22.38l1.78-.82c-4.86-4.88-10.18-9.74-13.25-16-.38-.77-2.28-.19-1.94.52,3.14,6.39,8.45,11.32,13.41,16.31.53.53,2.37-.1,1.78-.82A58,58,0,0,1,166.14,61c-.2-.81-2.13-.3-1.93.51Z"/><path class="cls-3" d="M263.46,49.33a47.78,47.78,0,0,1,.65,9.25c-.05,2.39-1.49,11.15-4.72,6-1.89-3-2.06-7.38-1.95-10.83.05-1.86.24-3.95,1.76-5.21,2-1.65,4.74-1.25,5.65,1,.49,1.22-.38,2.61-1,3.61-.22.37,1.6.23,1.92-.29,1.43-2.37,1.56-4.87-1.31-6-2.24-.89-5,.31-6.8,1.51-4.15,2.7-2.14,12-.74,15.67,1.33,3.42,5.59,4.73,7.63,1,2.51-4.57,1.68-11.29.82-16.22-.09-.53-2-.08-1.93.52Z"/><path class="cls-3" d="M262.92,66.6c.75,6,1,12.11,2.45,18,1.2,4.9,3,9.63,4.22,14.51,2.59,10.15-3,19.9-1.17,29.94.07.36,2-.08,1.94-.51-1.85-10,3.39-19.75,1.16-29.95-1.06-4.86-2.78-9.73-4.21-14.51-1.74-5.77-1.72-12.08-2.46-18,0-.33-2,.06-1.93.52Z"/><path class="cls-3" d="M259,67c3.71,9.6,4.64,21.86,3.41,32a135.05,135.05,0,0,1-3,16c-1,4.1-2.37,11.42-6.15,14.07-1.08.75.49,1.46,1.28.91,3.19-2.23,4.42-7,5.52-10.44a120.35,120.35,0,0,0,4.06-18.59c1.63-10.91.83-24.12-3.16-34.43-.34-.89-2.26-.35-1.93.51Z"/><path class="cls-3" d="M269.5,128.27c2.32,4.39,4.16,8.76,2.84,13.79l1.57-.61-8.51-1.21c-1.54-.23,2.32-4.12,2.78-4.84,2.29-3.59,2.69-8,2.62-12.13-.19-10.92-5.29-21.55-2.73-32.51.14-.59-1.79-.28-1.92.29-3.71,15.93,10.73,36.58-4,49.28-.29.25-.25.5.15.56l10.39,1.49c.4.06,1.44-.11,1.57-.61,1.32-5.06-.46-9.53-2.83-14-.3-.58-2.16.08-1.93.51Z"/><path class="cls-3" d="M254.12,127.87l-.54,3.78.85-.58c-4.76,1.37-9.87.36-14.67-.32,0,.25,0,.5,0,.75,3.24-2.18,7.63-2.06,11.34-2.81,1.89-.38,4.19-1,5.16-2.84.41-.78-1.51-.52-1.79,0-1.36,2.58-6.55,2.41-9.11,2.82a16.74,16.74,0,0,0-6.78,2.32c-.32.22-.6.66,0,.75,5.31.76,10.85,1.74,16.1.22.25-.07.8-.25.85-.57l.54-3.78c.1-.71-1.84-.35-1.93.26Z"/><path class="cls-3" d="M264.84,86.33c-1.08-3.49-4.52-6-7.3-8.11a46.61,46.61,0,0,0-11.32-6.47c-.7-.26-2.09.47-1.3,1.22l17.81,17,1.07-1.27c-4.39-.91-7.3-4.77-11.38-6.43-.83-.34-2.25.85-1.11,1.31,4.3,1.76,7.16,5.58,11.83,6.54.68.14,1.76-.62,1.07-1.28l-17.81-17-1.3,1.23a45.53,45.53,0,0,1,9.42,5.19c3.08,2.07,7.23,4.86,8.39,8.58.28.91,2.21.38,1.93-.51Z"/><path class="cls-3" d="M245.74,59.12c-4.8,4.15-8.82,8.55-11.35,14.43-3.87,9-.34,19.2,5.49,26.44l1.82-.66c-9.55-11.2-9.16-35.49,4.93-43.12,1.12-.61-.66-.51-1.12-.26-14.6,7.91-15.7,32.22-5.63,44,.31.36,2.12-.28,1.82-.66-6-7.51-8.7-16.79-5.4-26.12,2-5.79,6.64-10.3,11.19-14.23.42-.37-1.4-.17-1.75.14Z"/><path class="cls-3" d="M247.81,57.59c-2.49,6.56-2.77,13.86-3.42,20.79-.63,6.64-.66,15.94-5.42,21.2-.45.49,1.43.27,1.76-.1,4.4-4.85,4.68-12.79,5.33-19,.81-7.72.88-15.92,3.67-23.26.16-.43-1.71-.21-1.92.32Z"/><path class="cls-3" d="M246.48,74.93l.78.11c.44.06,2.08-.65,1.59-.72-2-.3-4.07-.56-6.08-.94-4.68-.88-8.24-4.34-12.6-5.91-3.72-1.35-7.57-2.32-11.36-3.48a64.34,64.34,0,0,1-7.59-2.88,31.06,31.06,0,0,1-2.84-1.53,5.8,5.8,0,0,1,3.7-.19c.44.07,2.08-.65,1.59-.72L209,58c-.33,0-1.79.11-1.76.62a3.45,3.45,0,0,0,1.53,3.16c.46.29,2-.5,1.83-.64a3.25,3.25,0,0,1-1.43-3l-1.77.62,4.73.67,1.59-.72a19.35,19.35,0,0,0-7.62.09c-.08,0-1.15.39-.84.59,7.51,4.87,16.4,6.32,24.7,9.32,3.44,1.25,6.17,4,9.8,5A60.29,60.29,0,0,0,247.26,75l1.59-.72-.77-.11c-.45-.07-2.08.65-1.6.72Z"/><path class="cls-3" d="M207.79,61.69a11.16,11.16,0,0,1,4,5.3c.21.6,2.13,0,1.93-.52a11.55,11.55,0,0,0-4.11-5.5c-.51-.37-2.25.39-1.8.72Z"/><path class="cls-3" d="M307.43,54.54c.2-.08.55,6.26.54,6.83-.05,2.6-.33,5.22-.12,7.81l1.57-.73c-4.9-.46-6.39-4.91-5.82-9.24a10.59,10.59,0,0,1,1.66-4.62c1.17-1.69,2.09,2,2.33,3,.14.57,2.07.07,1.93-.52-.47-1.89-1.17-4.32-3.53-4-1.95.23-3,2.16-3.64,3.79-2,5.26-.51,12,5.86,12.58.4,0,1.62-.12,1.57-.73-.31-3.78.28-7.61.09-11.4-.11-2.19-.62-4.29-3.16-3.37-1.29.46-.1.94.72.65Z"/><path class="cls-3" d="M305.15,67.83c4.27,10,10.94,29.69-.93,36.47-3.81,2.17-9,4.78-10.22,9.46s1.18,9.71,1.55,14.39c.06.84,2,.38,1.93-.52-.4-5-3.32-10.82-.79-15.58,3.09-5.78,10.9-6.22,14.19-11.77,2.59-4.38,1.8-10.6,1.16-15.39a68.23,68.23,0,0,0-5-17.58c-.35-.82-2.26-.26-1.93.52Z"/><path class="cls-3" d="M311.76,89a56.22,56.22,0,0,1-.19,15.22c-.46,3-3.35,6.41-.95,8.75,7.16,7,17.85,8.81,25.47,15.26l1.53-.77c-1.53-.16-2.78-.1-3.6,1.26-.19.31,1.61.19,1.91-.32l.45-.09c.22,0,2-.38,1.53-.76-7.28-6.16-16.84-8.42-24.33-14.27-1.71-1.33-2.44-2-1.56-4a26.37,26.37,0,0,0,1.69-6.91,51.91,51.91,0,0,0,0-13.92c-.05-.44-2,0-1.93.52Z"/><path class="cls-3" d="M310.75,86a77.44,77.44,0,0,1-26.4-9.53c-.54-.31-2.32.47-1.54.92A78.3,78.3,0,0,0,309.57,87c.59.1,2.27-.86,1.18-1Z"/><path class="cls-3" d="M307.39,73.14c4.91,9.29,7.44,19.58,11.11,29.38l1.7-.84c-4.08-2.71-5.69-7.27-8.89-10.79-.63-.69-2.45.12-1.77.87,3.3,3.63,5,8.29,9.19,11.08.51.34,2,0,1.7-.84-3.71-9.92-6.3-20.32-11.27-29.73-.43-.82-2.26-.07-1.77.87Z"/><path class="cls-3" d="M123.86,10.78c-8.8-1.25-6.47,8.54-8.32,14.31-1.56,4.87-4,6.48-8.59,8.1s-9.29,3.26-14.06,4.6C75,42.8,52.46,46.2,40.14,61.6c-3.79,4.73-7.77,12.81-4,18.58,3.19,4.92,11.06,6.26,16.15,8,8.93,3.12,15.44,8.37,13.28,18.73-1.76,8.45-8.4,16.25-7.7,25.2C59,146.28,75.9,151,87.62,151.31c16.53.38,32.93-3.94,48.63-8.68,6.7-2,13.37-4.16,20-6.33,10.15-3.3,20.46-8.45,31.39-7.59,11.78.92,18.67,11.32,28,17.09,7.62,4.71,16.36,6.21,25.18,5.47,1.1-.09,1.48-1.56.16-1.45-14.65,1.22-26.1-5.14-36.27-15.15-7.26-7.15-17.85-8.52-27.38-6.64-10.49,2.07-20.68,6.63-30.86,9.89-8.78,2.82-17.58,5.53-26.54,7.73-16.91,4.16-43.73,10-56.76-5.59-12.49-14.89,15.62-34.22.13-48-7.08-6.32-19.61-5.09-25.46-12.7-4.05-5.27,1.26-13.84,4.57-18,4.81-6,12.09-9.7,19-12.6,13.78-5.74,28.69-8,42.69-13,3.58-1.29,8.86-2.25,11.08-5.75a30.43,30.43,0,0,0,3.29-8.57c.8-3-1.26-10,4.64-9.18,1,.14,2-1.26.66-1.45Z"/><path class="cls-3" d="M240.33,151c14.24,1.17,31.82-10.32,43,3,.33.39,1.53-.07,1.79-.39,2.52-3.12,4.32-6.68,6.76-9.85,4.44-5.77,14.41-3.14,20.5-2.36,9.47,1.21,20.47,3.22,29.95,1.09,8.21-1.84,15.46-7.56,16.95-16.27,1.42-8.25-10.1-14.6-13.83-20.72-.34-.56-2.16.15-1.93.51,3.94,6.48,13.58,11.5,13.91,19.61.26,6.7-6.35,13-12,15.23-6,2.33-13,1.58-19.23.91-9.73-1.05-20.43-3.87-30.07-1.47-6.69,1.66-8.8,8.49-12.76,13.39l1.79-.38c-11.46-13.68-29.12-2-43.55-3.19-.49,0-2.25.81-1.23.9Z"/><path class="cls-3" d="M343.87,103.94c-.31-13.71-7.38-26.44-11-39.45-2.3-8.18-1.55-17.16-2.36-25.56-.66-6.9-2.24-14.64-8.65-18.44-2.09-1.23-6-2.33-8.38-1.68-2.67.72-5.18,2.09-7.83,2.9-4.78,1.47-10.22-.37-14.62-2.19-5.41-2.23-10.38-5.38-15.79-7.63-6-2.51-12.13-2.67-18.59-2.67-15.45,0-30.8,2.26-46.26,2-7.57-.15-14.91-1.77-22.44-2.1-6.94-.32-13.91.6-20.8,1.26-4.1.4-9.05,1.25-13.17.48-2.82-.53-5.58-1.47-8.33-2.26-4.41-1.25-9.25-2.51-13.87-1.93a18.11,18.11,0,0,0-10.51,4.76c-.81.73,1.11.6,1.52.23,6.62-6,14.87-4,22.59-1.82,5,1.43,9,2.28,14.23,2,6.87-.31,13.69-1.32,20.56-1.71,8.62-.5,16.94,1.31,25.5,1.86,14.24.91,28.52-.95,42.74-1.61,8-.37,16.24-.78,23.88,1.84,6,2,11.41,5.59,17.18,8.16,3.88,1.72,9,3.38,13.27,2.76,5.21-.76,9.79-4.22,15.12-2.8,8.55,2.27,10.11,12.75,10.82,20.15.79,8.15.28,16.51,2.26,24.51,3.28,13.26,10.72,25.55,11,39.45,0,.51,1.95.16,1.93-.52Z"/><path class="cls-3" d="M265.11,10.64c12.5,4.75,26.92,11.74,30.48,25.84l1.85-.69c-1.82-3.83-3.3-7.63-6.18-10.82-.62-.69-2.45.11-1.76.88,2.85,3.17,4.36,7,6.18,10.81.36.77,2.06.15,1.85-.7-3.68-14.5-18.44-21.79-31.32-26.68-.88-.34-2.26.92-1.1,1.36Z"/><path class="cls-3" d="M285.16,22.88a23.1,23.1,0,0,1,13.6,9.1c.4.59,2.27-.08,1.78-.78-3.45-5-8.43-7.91-14.21-9.44-.67-.18-2.29.82-1.17,1.12Z"/><path class="cls-3" d="M294.12,22.71l12.36,12.36c.53.53,2.36-.21,1.79-.79L295.91,21.93c-.53-.53-2.36.21-1.79.78Z"/><path class="cls-3" d="M307,29.17c1.66.08,2.94,1.45,4.64,1.54a1.33,1.33,0,0,0,1.26-.58c.21-.41-.19-.73-.58-.75-1.65-.09-2.94-1.46-4.63-1.55a1.34,1.34,0,0,0-1.26.58c-.22.41.18.74.57.76Z"/><path class="cls-3" d="M308.33,28.33c1-1.31,2.44-3.07,4.47-2.72A6,6,0,0,1,315.28,27a15,15,0,0,1,3.49,4.86c.24.46,2.07-.24,1.93-.52-1.37-2.63-3.62-6.41-7-6.56-3.1-.13-5.4,1.57-7.27,3.9a2.54,2.54,0,0,0,1.91-.34Z"/><path class="cls-3" d="M187.65,124.76c6.76,2.92,12.84-1.1,18.37-4.81,1.09-.73-.58-1-1.21-.61-4.66,3.12-9.81,7-15.63,4.46-.6-.26-2.36.6-1.53,1Z"/><path class="cls-3" d="M194.21,126.09h17c.65,0,2.08-1,.78-1H195c-.65,0-2.08,1-.78,1Z"/><path class="cls-3" d="M198.82,130.89a67.78,67.78,0,0,0,16-1.63c1.15-.27.95-1-.18-.69a63.63,63.63,0,0,1-15,1.46c-.57,0-2.11.86-.82.86Z"/><path class="cls-3" d="M203.47,135.57c4.9,0,9.7-.16,14.41-1.62,1.12-.34.92-1.15-.22-.8-4.38,1.36-8.85,1.47-13.4,1.47-.63,0-2.09,1-.79.95Z"/><path class="cls-3" d="M67,101.37c2,9.92,8.74,17.84,13.91,26.26.29.48,2.09-.26,1.93-.52-5.17-8.42-11.91-16.34-13.91-26.26-.08-.41-2,.05-1.93.52Z"/><path class="cls-3" d="M68.67,110.16c-5.14,6.08,1.19,15.79,2.92,22.11.21.77,2.14.25,1.93-.52C72,126.06,65.66,116,70.25,110.59c.77-.9-1.1-1-1.58-.43Z"/><path class="cls-3" d="M62.32,118.36c.21,5.65,3.22,10.93,6.24,15.55.3.46,2.18-.14,1.8-.72-3-4.55-5.9-9.78-6.11-15.35,0-.5-2-.14-1.93.52Z"/><path class="cls-3" d="M218.65,30c6.37-5.9,15.64-6.54,23-10.71.83-.47-1.12-.28-1.49-.08-7.57,4.27-16.74,4.84-23.31,10.92-.43.4,1.41.19,1.76-.13Z"/><path class="cls-3" d="M229.51,30.45c3.5,0,7.42-.23,9.3-3.66.15-.29-1.64-.16-1.91.33-1.35,2.46-3.62,2.52-6.15,2.52a2.51,2.51,0,0,0-1.36.37c-.3.19-.27.44.12.44Z"/><path class="cls-3" d="M229.34,30.43c9.26,2.78,16.72-.22,24.71-5,.83-.5-1.12-.32-1.49-.1-7,4.14-13.48,6.75-21.64,4.3-.46-.14-2.18.59-1.58.77Z"/><path class="cls-3" d="M330.16,98.52c.66,0,2.08-1,.78-1-.66,0-2.08,1-.78,1Z"/><path class="cls-3" d="M63.93,133.94l1.55,1.55c.51.51,2.35-.22,1.79-.78l-1.55-1.55c-.51-.51-2.35.22-1.79.78Z"/><path class="cls-3" d="M223.55,152.54a23.41,23.41,0,0,0,10.24-1.81c1.17-.54-.62-.61-1.14-.37-2.65,1.23-5.44,1.28-8.3,1.28-.59,0-2.1.9-.8.9Z"/><path class="cls-3" d="M217.39,145.09h9.27c.69,0,2.07-1,.76-1h-9.27c-.69,0-2.06,1-.76,1Z"/><path class="cls-3" d="M209.66,138.7A36.49,36.49,0,0,0,221,137.08c1.12-.36.91-1.24-.24-.88a32.74,32.74,0,0,1-10.31,1.48c-.67,0-2.07,1-.77,1Z"/></svg>