<svg id="layer1" xmlns="http://www.w3.org/2000/svg" viewBox="0 0 379.5 406.33"><defs><style>.cls-1{fill:#edbf88;}.cls-2{fill:#fff;}.cls-3{fill:#875829;}.cls-4{fill:#9e8a5c;}.cls-5{fill:#492d0c;}</style></defs><path class="cls-1" d="M331.81,301.1c1-16.21-10.95-34.21-17.28-48,.72-1.73,1.36-3.47,1.91-5.24,3.5,1.72,8.18.81,9.23-4.09.21-1,.43-2,.64-3a6.62,6.62,0,0,0,1.21-2.53c2.12-8.36,3.36-15.95,2.09-24.44a57.15,57.15,0,0,0-.82-8.94,33.24,33.24,0,0,0-.32-3.59,5.57,5.57,0,0,0,1.15-3.77c-3-28.55-40.14-38.52-64.29-36.53a7.69,7.69,0,0,0-2.39.58l-1.44-.34a7.16,7.16,0,0,0-5.44,1,148,148,0,0,1-19-7.74c-4.44-2.19-8.57.66-9.84,4.24a473.18,473.18,0,0,0-47.46-14.2,6.78,6.78,0,0,0-8.32,5.34,6,6,0,0,0-5.14,4.15c-.46-.07-.71-.13-1.17-.19h.17c-.89-.08-1.35-.17-1.93-.24-2.8-.34-5.63,2-6.54,4.55l-3-.6a7,7,0,0,0-6.07,1.71c-1,0-2.1-.08-3.14-.09a6.85,6.85,0,0,0-5.57,2.82c-4.08-4.1-8.32-8.41-13.39-11.2a6.72,6.72,0,0,0-2.31-.78l-3.74-3.74a6.73,6.73,0,0,0-3.5-1.94,42.43,42.43,0,0,0-9-17,59.67,59.67,0,0,0,7-2.58,6.25,6.25,0,0,0,1,.63c4,1.86,8.48,2.54,12.39,0,5.15-3.37,4-10.46,6.15-15.46,3.5-8.07-6.48-13.79-11.73-6.77a28.27,28.27,0,0,1-6.09,5.84c-4.84,2.6-10,3.57-15.59,1.23a10.24,10.24,0,0,0-2.23-.94,6.15,6.15,0,0,0-5.88,1.29,14.57,14.57,0,0,0-7,.56,8,8,0,0,0-4.12,3.75c-.27-.09-.55-.19-.82-.3A5.58,5.58,0,0,0,75.82,111l-1.77-.33A20.21,20.21,0,0,1,67.57,99a6.85,6.85,0,0,0-6.49-5.13H57.36a6.92,6.92,0,0,0-6.82,6.84c.12,6.17,1.56,11.89,5.88,16.47,2.76,2.91,6.58,4.64,10.49,5.73a36.55,36.55,0,0,0,15.37,6.18,5.88,5.88,0,0,0-.17,1.43c0,8.76,1,16.57,5.25,23.57a5.59,5.59,0,0,0-.63.95c-4.53,8.68-4.36,16.95-.58,25.82a45.59,45.59,0,0,0,3.56,6.55,6.86,6.86,0,0,0,.75,4.16c6,11.62,14.24,20.26,24.55,28.05,9,6.81,16.1,13.89,21.53,23.46a33.06,33.06,0,0,0,2.2,4.2,6.47,6.47,0,0,0,10.09,1.51,6.66,6.66,0,0,0,2-.6c0,38.8-.25,77.63-3.72,116.3-.78,8.73,12.79,8.73,13.56.1,2.43-27.1,3.26-54.28,3.55-81.47.59,1.72,1.15,3.45,1.7,5.19a6.32,6.32,0,0,0,2.06,3.06c-.8,28.82-.2,57.73,5.36,86.07,1.69,8.58,14.76,5,13.09-3.51-7.54-38.42-5.33-78.17-3.48-117a6,6,0,0,0-.42-2.46c.24-3.45.35-6.92.4-10.4,15.51,7.93,33.55,11.76,50.7,8.22a6.48,6.48,0,0,0,2.43-1c3.78-.55,7.55-1.06,11.31-1.24a43.41,43.41,0,0,1,18.79,3.49c10.62,17.28,29.21,29.26,46.48,39.68a6.54,6.54,0,0,0,3.11,1.87l1.87,1.12.13.07a29.58,29.58,0,0,1,.36,4.8c0,4.64-3.71,8.61-6.59,11.87-3.58,4.05-7.22,7.93-10.41,12.3a36.25,36.25,0,0,0-2.08,3.28c1.13-1.94-.35-.12-1.29.45a40.21,40.21,0,0,0-6.89,5.52c-7.95,7.77-11.19,19.22-10,30.07.39,3.67,2.73,6.8,6.73,6.83,3.37,0,7.21-3.05,6.82-6.73-1.08-10.24,2.31-19.12,11.26-24.62a14.67,14.67,0,0,0,5.8-5.86,44.46,44.46,0,0,1,5.34-6.88l1.65-1.83c-3,16.63-5.94,33.31-6,50.23-.06,8.76,13.5,8.83,13.55.1.13-22.63,5.57-44.72,9-67C335.43,305.67,334.46,302.61,331.81,301.1Z"/><path class="cls-1" d="M165.36,153.74h0Z"/><path class="cls-2" d="M253.25,161c-10.84,11-16.93,22.6-18,38.13-1.13,16.79-1.1,33.84,10.41,47.27.44.52,2.3-.18,1.79-.77-11.2-13.07-11.06-28.82-10.35-45.13.69-15.86,6.59-27.94,17.67-39.16.81-.81-1.09-.8-1.55-.34Z"/><path class="cls-2" d="M268.28,160.74c-9.67,7.12-14.19,19.69-17.6,30.74a106.06,106.06,0,0,0-4.86,23.45c-.71,9.12.06,18.32.53,27.43.05,1,2,.68,2-.15-.4-7.91-.9-15.8-.71-23.72.19-8.17,1.87-15.72,4-23.56,3.16-11.67,7.82-25.88,18-33.35,1.06-.77-.52-1.4-1.27-.84Z"/><path class="cls-2" d="M285.87,161.86a169.23,169.23,0,0,0-14.25,23.63c-4.05,8.11-7,16.71-10.61,25a114.81,114.81,0,0,0-7.22,23.19c-1.22,5.77-1.66,12.72,1.57,17.92.37.59,2.24,0,1.79-.77-3.54-5.71-2.41-13.39-.93-19.59a142.76,142.76,0,0,1,8.66-25.32c3.24-7.28,5.77-14.79,9.34-21.94a158.43,158.43,0,0,1,13.46-22c.54-.75-1.42-.63-1.81-.09Z"/><path class="cls-2" d="M291,163.57C282.52,179,276.85,196,269.38,212c-4.87,10.44-13.73,27.46-6.64,38.71.28.45,2.05-.31,1.93-.52-7.1-11.26,1.74-28,6.61-38.54,7.41-16,13.15-33,21.65-48.46.12-.2-1.64-.11-1.9.36Z"/><path class="cls-2" d="M301.45,168.78c-5.91,22-6.74,45-12.65,67-.09.34,1.78.1,1.9-.36,5.91-22,6.74-45,12.65-67,.1-.34-1.78-.1-1.9.36Z"/><path class="cls-2" d="M233.81,158.48c-15.27,3.8-19.32,24.53-19.45,37.92s1.44,26.63,5.8,39.31c2.2,6.42,6.27,16.89,13.92,18.24.57.1,2.27-.81,1.19-1-7.57-1.34-11.36-12.45-13.52-18.74a108.16,108.16,0,0,1-5.34-30.89c-.56-13.7.9-39.77,17.64-43.94,1.16-.29.91-1.19-.24-.9Z"/><path class="cls-2" d="M213,159.44c-21.58,23.84-16.33,65.43-.09,90.69.42.66,2.28,0,1.78-.81-15.95-24.8-21.31-66-.1-89.41.8-.89-1.07-1-1.59-.47Z"/><path class="cls-2" d="M196.83,164.46c-8.51,7.22-11.88,21.83-13.59,32.39-1.42,8.81-2.35,17.73-1.45,26.64.87,8.56,5.53,16.3,9.58,23.68.4.74,2.25,0,1.77-.84-3.52-6.42-7-12.76-8.81-19.92-2.07-8.34-.85-17.64.31-26a109.3,109.3,0,0,1,4.58-19.1c1.85-5.65,4.23-12,8.88-16,1-.85-.55-1.47-1.27-.85Z"/><path class="cls-3" d="M89.2,102.4c-.07-.18-.32-.22-.67-.19-.08-.25-.16-.49-.25-.74s-.72-.26-1.44,0c-.11-.6-.24-1.2-.41-1.81a.23.23,0,0,0-.15-.14A1.74,1.74,0,0,0,86,99,61.12,61.12,0,0,0,75.45,88c-1.75-3.06-4.75-7.66-7.67-7.86-.55-.5-1.07-1-1.64-1.46.49-.41.9-.88.9-1.29V59.86c0-.42-.36-.51-.79-.42-.09-.62-.22-1.25-.32-1.87,1.88-16-10.74-27.31-21.18-38.53-.92-1-4.51,1.46-3.76,2.52C46.35,29,52.24,36.2,56.74,44.24a47.13,47.13,0,0,1,4.87,13.23,1.49,1.49,0,0,0-.41.72c-.1.79-.2,1.58-.29,2.37a45.63,45.63,0,0,0-3.4,17.92c0,.73.79.54,1.66.07a4,4,0,0,0,.11.39.08.08,0,0,0,0,0,54.37,54.37,0,0,0,1.25,6.17c-.32.26-.5.48-.4.59s.44.48.66.72a17.67,17.67,0,0,1,.26,2.05.45.45,0,0,0,.41.16c.55,0,1.08.07,1.61.14a46.28,46.28,0,0,0,9.6,7.09c2.46,2.95,4.68,6.07,6.84,9.25.28,1.22.56,2.44.91,3.65.12.4,1.26.15,2.31-.32.16.42.31.83.46,1.24.08.24.5.26,1.05.14a2.66,2.66,0,0,0,1.68-.24l0,.1a.16.16,0,0,0,.06.08c.32.34,1.66,0,2.73-.6.78-.35,1.41-.81,1.36-1.27A14.85,14.85,0,0,0,89.2,102.4ZM61.82,76.54c-.12,0-.25,0-.38-.05l.27-.71A7,7,0,0,0,63.05,75v1.38A2.62,2.62,0,0,0,61.82,76.54Zm21.29,23.92-.08-.17A.9.9,0,0,0,83.48,99a8.58,8.58,0,0,0,1.47.69A8.05,8.05,0,0,0,83.11,100.46Z"/><path class="cls-3" d="M133.29,43c2.06-7.41,5.76-14.59,8.62-21.38.53-1.26-3.69-2.28-4.31-1.1a5.5,5.5,0,0,1-.28.48,1.09,1.09,0,0,0-.64.45,53.45,53.45,0,0,0-8,22.4,48,48,0,0,0-1.33,8.52,15.62,15.62,0,0,0,.11,3.06.64.64,0,0,0-.15.41,62,62,0,0,0,2.8,17.83,1,1,0,0,0,.23.37c0,.18,0,.35-.09.53h0a3.2,3.2,0,0,0-1.2,0,17.33,17.33,0,0,0-4.7,2.71c-.69.31-1.37.62-2,.94-.92-.17-1.87-.09-2.22.42s-.65.92-1,1.37a15.25,15.25,0,0,0-1.79,1.4c-.39.35-.26.68.11.95-.32.46-.62.93-.92,1.41a22.16,22.16,0,0,0-13.15,11.75.57.57,0,0,0,0,.38,24.17,24.17,0,0,0-1,2.67,23.16,23.16,0,0,0-4.48,8.93c-.33,1.34,2,1.67,3.46,1.41a4.56,4.56,0,0,0,2.21,0c0,.15-.09.29-.13.45-.37,1.47,4.05,2.37,4.44.82,3.78-15.13,22.11-17.1,28-30.5,2.55-5.81-.36-11.81-2.4-17.71a113.26,113.26,0,0,1-.46-15C133,45.64,133.11,44.32,133.29,43Zm-19.22,51.5c1-1.63,2-3.24,3.14-4.79a1.83,1.83,0,0,0,1.51-.5A12.4,12.4,0,0,1,120,87.68a6.61,6.61,0,0,0,1.8.08,14.85,14.85,0,0,0,3.87-1.45c-3.06,2.58-6.66,4.7-9.64,6.8C115.33,93.56,114.69,94,114.07,94.51Z"/><path class="cls-3" d="M95.79,118.58c-.93-.47-2.47-.88-2.82-2s-4.63-1.87-4.31-.85,1.08,2.13,2,2.13h-.28c-.26,0-1.18.21-1,.64.55,1.09.64,2.25,1.64,3v.32h-.68c-.16,0-.79,0-.79.26A2.8,2.8,0,0,0,91,124.67c-.49.67-1.21,1.15-1.46,2-.09.29.28.58.48.71l.41.27a1.16,1.16,0,0,0,.05,1.07c.46,1.19,4.66,1.71,4.3.79-.08-.19-.13-.31-.17-.38.3,0,.57-.19.5-.55s-.61-.75-1.09-1c.44-.88,1.4-1.41,1.7-2.42.19-.64-.94-1-1.91-1.26,0,0,0,0,0,0H95c.15,0,1.08-.29,1.08-.58v-.92c0-.33-.46-.7-.92-1-.31-.46-.71-1.52-1-1.52h1.71C97.19,119.86,96.49,118.93,95.79,118.58Z"/><path class="cls-3" d="M69.88,112.11c-.35-.77-.75-1.59-1.21-2.45a2.13,2.13,0,0,0-.4-1.78,64,64,0,0,0-7.76-8.77,1.89,1.89,0,0,0-1.57-.68,10.42,10.42,0,0,0-6.65-1.56c-2.92.38-1,3.93,1.43,3.62s4.94,2.6,6.34,4.08a30.29,30.29,0,0,1,5.58,8.35C66.58,115,71,114.56,69.88,112.11Z"/><path class="cls-3" d="M132.1,98.64a40.89,40.89,0,0,0-11.35,5.66c-.59.39-.45,1.07,0,1.74a20.44,20.44,0,0,0-1.92,5.06l0,.15a8.89,8.89,0,0,0-.13,1c-.1,1.42,3.18,4.37,3.33,2.33a6.79,6.79,0,0,1,.13-.92l0-.16c.47-2.1,1.78-3.93,2.54-6a1.2,1.2,0,0,0,.13-.55,35.34,35.34,0,0,1,9.54-4.61C136,102,133.55,98.24,132.1,98.64Z"/><path class="cls-3" d="M136.2,172c-6.54-7.36-13.36-14.84-17.43-23.89,0,0,0,0,0,0A35,35,0,0,0,113.23,137c-.38-.53-4.3-2.12-4.28-1.15a79,79,0,0,0,1,10.88c-1.08-.71-3.54-1.63-3.82-.74a41.34,41.34,0,0,0-1.61,6.7c-1.08-.51-2.56-.91-3-.24l-1.85,2.76c-.35.53,3.63,2.38,4.32,1.35l.57-.87c.65.45,4,1.8,4,.87a27,27,0,0,1,.53-4.23c.52,1.11,1.09,2.21,1.68,3.28a32.54,32.54,0,0,0,4.73,7.4,4.83,4.83,0,0,0,2.16.77c1.08,1.32,2.19,2.6,3.38,3.84.52.54,4.49,1.5,4.09.73-.5-.95-1-1.88-1.6-2.79a41.12,41.12,0,0,1,4.88,4.82c.59.7,4,1.38,4,.77l3.27,3.69C137.74,177,137.19,173.06,136.2,172Zm-19.85-16.57c.19.43.41.85.64,1.26-1.1-1.25-2.24-2.47-3.4-3.67a2.35,2.35,0,0,0,1.27.06c.7.13,1.24.08,1.14-.38-.37-1.68-.62-3.38-.86-5.07a7.88,7.88,0,0,0,1.36.53c3.2,7.2,7.92,13.51,13,19.51-3.33-3.5-6.9-6.94-8.9-11.29C120.1,155.22,116.07,154.77,116.35,155.38Z"/><path class="cls-3" d="M155,247.83l-2.16-2.17c-.59-.8-1.28-1.54-1.91-2.27-.46-.55-.93-1.09-1.38-1.64.25-.23.42-.43.34-.48a4.79,4.79,0,0,0-1-.67.87.87,0,0,0-.55,0,25,25,0,0,1-3.87-6.81c-.46-1.27-4.59-2.79-3.93-1a30.2,30.2,0,0,0,5.59,9.16c-.53.35-1.17.85-1.07,1.24a2.62,2.62,0,0,0,.57.83c1.38,1.73,3.2,3.32,4.23,5.29.09.16,1.23-.42,2.23-1.07l0,0C153.18,249.42,157.05,249.92,155,247.83Z"/><path class="cls-3" d="M160,264.15v-5.83c0-.6,0-1.06-1-1.35v-.49c0-2-3.52-2.31-4.2-.63a7.81,7.81,0,0,0,.07,6.37s-.35,0-.34,0c.13.4.47.71.47.91v10.62c0,1.11,2,1.69,3,1.69v4.12c-1-.74-1.9-1.17-1.71-.3.8,3.66,1.28,7.4,2.07,11.06.19.86,3.64,3.56,3.64,2.41V266C162,265.47,161,264.74,160,264.15Z"/><path class="cls-3" d="M322.35,279.15c-.67-1.1-1.38-2.18-2.11-3.25a42.57,42.57,0,0,0-7.11-9.66c-1-1-4.62,1.35-3.83,2.4l1.9,2.51c-.62.55-1,1.16-.67,1.48l.61.62,5.54,5.53s.06,0,.09.07c.6.89,1.19,1.78,1.75,2.7C319.22,282.7,323.06,280.32,322.35,279.15Z"/><path class="cls-3" d="M317.51,298.68c-5.24,4.86-9,11-12.35,17.42-3.76,4.68-7.1,9.6-7.94,15.77-.14,1,3.53,3,4,2.08.37-.69.74-1.38,1.1-2.09,1,.92,3.28,1.77,3.51,1.17.66-1.72,1.36-3.43,2.07-5.14,1.06.63,2.33,1,2.54.53,1.07-2.5,2.13-5,3.15-7.51l.54-.79c.07-.1,0-.25-.06-.41.61-1.54,1.2-3.1,1.76-4.66,1.23-2.33,2.49-4.64,3.83-6.92.35-.59-1.6-1.82-2.89-2.18a44.84,44.84,0,0,1,4.74-5.2C321.93,300.37,318.45,297.8,317.51,298.68Z"/><path class="cls-3" d="M316,216.43c1.06.57.22,0-.06-.29a9.34,9.34,0,0,1-.63-.88,21.17,21.17,0,0,1-1.2-2.2c-.34-.68-1.71-1.2-2.34-1.51-.09-.05-1.76-.76-1.57-.39a17.24,17.24,0,0,0,1.82,3.07,11.26,11.26,0,0,0,3.67,2.78c.17.09,2,1.1,2.14.78S316.15,216.52,316,216.43Z"/><path class="cls-3" d="M313.06,196.17c-.15,0-2-.16-2,.11v1.85c0,.32,1.8.39,2,.41s2,.16,2-.12v-1.84C315,196.26,313.25,196.18,313.06,196.17Z"/><path class="cls-3" d="M326.91,208c.26.74,2,3,2,3.23a25,25,0,0,0-3.06-11.11c-.73-2.35-1.69-4.64-2.64-7-.33-.81-1.91-2.87-2-3.23.23,1.37.54,2.71.89,4-.48-.75-1-1.41-.84-1,0,.07.05.14.07.21a88.92,88.92,0,0,1-7.12-10.65,10.56,10.56,0,0,0-1.3-1.78c.17,4.6,1.77,8.37,4.16,12.24,1.47,2.37-.25-1.59-.65-2.24a11.17,11.17,0,0,1-1.35-5.71c2,3.26,4.53,6.31,6.7,9.49.17.5.36,1,.55,1.51a23.32,23.32,0,0,1,.35,9.21l-.33-.68c-.3-1.21-.54-2.44-.79-3.67-.46-2.31-4.63-2.4-4.07.39.5,2.53.9,5.2,2.14,7.49a4,4,0,0,0,2,1.77c-.9,3.41-2.09,6.73-3.1,9.73-.29.86-.58,1.71-.88,2.57-3.21,6.16-5.32,12.61-4.69,19.68a8.55,8.55,0,0,0,1.62,2.88c.17.31.34.62.52.93.15-6.71,2.57-13.43,5-20.16l.22-.41c.16.25.27.4.29.38a30.38,30.38,0,0,0,3.92-5.68c.54-1,2.56-3.5,2.56-4.57,0-2.74,0-5.48-.25-8.2Zm-3.24,6.88c.34-1.37.63-2.73.85-4.09.11.33.2.66.29,1A11.17,11.17,0,0,1,323.67,214.89Z"/><path class="cls-3" d="M324.44,178.56c-7.22-5-14.86-8.37-23.74-8.6-1.73-.05-4.22,1.23-1.1,1.31,7.65.19,14.39,3.7,20.52,8C321.15,180,324.77,178.8,324.44,178.56Z"/><path class="cls-3" d="M272.45,256.79a22.64,22.64,0,0,1-4.35-5.17,3.07,3.07,0,0,0-2.83-1.34c-.83.05-1.82.67-1.31,1.62a25.8,25.8,0,0,0,4.87,5.91,3.28,3.28,0,0,0,3.06.89A1.1,1.1,0,0,0,272.45,256.79Z"/><path class="cls-3" d="M279.68,248l-1.84-1.84a2.84,2.84,0,0,0-3.19-.21,1.42,1.42,0,0,0-.73,1.09,1.51,1.51,0,0,0,.58,1.19l1.85,1.84a2.82,2.82,0,0,0,3.18.21,1.44,1.44,0,0,0,.74-1.1A1.5,1.5,0,0,0,279.68,248Z"/><path class="cls-3" d="M293.75,256.6c-3.86-5.6-9.05-10.09-12.91-15.68-1.55-2.25-3.51-.84-2,1.4,3.86,5.59,9.05,10.08,12.91,15.68C293.34,260.24,295.3,258.83,293.75,256.6Z"/><path class="cls-4" d="M104.54,109c-4.05,5.55-10.19,6.13-16.54,5.33-.88-.11-3.54.87-2.53,2.21A46.82,46.82,0,0,1,91.76,127l-.38.07c-.14-.27-.28-.54-.38-.77s-1.2-2-1.21-1.92a10.14,10.14,0,0,0-.53,2.76A1.6,1.6,0,0,0,88,128.76v11.61c0,2,3.67,1.42,4.16-.12.27-.84.36-1.68.58-2.52,0-.07,0-.14,0-.21.2.24.26.4.26.3v-1.07c0-.5.5-1,.73-1.51,1.23.33,3.13-.23,3.39-1.32.74-3,.19-5.8,0-8.86,0-1-1-1.35-2.06-1.29a42.32,42.32,0,0,0-3.62-6.09c6.63,0,12.88-1.9,17.08-7.64C110.05,108.05,105.67,107.42,104.54,109Z"/><path class="cls-4" d="M134,101.18a26.05,26.05,0,0,0-3.1.29,4.07,4.07,0,0,0-1.72-.27c-2.56.19-4.42,1.34-6.63,2.52-.68.35-.12,1,.32,1.14a3,3,0,0,0,.48.15c0,.08-.05.15-.07.23-.07.32.25.59.75.76a11.71,11.71,0,0,0-2.75,6.3,15.24,15.24,0,0,0-1.08,2.18c-.54,1.43,3.9,1.77,4.35.6.07-.21.16-.41.24-.6a1.38,1.38,0,0,0,.9-.71q.45-1.3,1-2.61a13,13,0,0,0,2.12-5,11.86,11.86,0,0,1,6.33-3.18C137.46,102.52,135.34,101.14,134,101.18Z"/><path class="cls-4" d="M72.26,110.24C68.08,107,64.81,102.76,61.12,99c-1.53-1.55-3.69-.61-2.4,1.41-.35.16-.54.55-.39,1.27.43,2.2,3.31,4,4.89,5.31L65,108.43c.41.53.8,1.06,1.18,1.61a2.46,2.46,0,0,0,2.46,1.12c.87.62,1.74,1.24,2.62,1.83.62.42,1.94.89,2.31-.12S73,110.8,72.26,110.24Z"/><path class="cls-4" d="M165.46,148.84c-2.48,3-5,4.5-5.42,7.83a6.62,6.62,0,0,0-1.3-1.48c-.41-.32-.7-.35-.7.29V156a1.74,1.74,0,0,0,.09.55,18.61,18.61,0,0,1,.43,3.4c-.09-.24-.19-.47-.27-.7-.44-1.25-2.92-3.4-2.32-.74.27,1.22.48,2.45.67,3.68-.24-.46-.47-.92-.72-1.38-.62-1.09-2.68-2.55-2.06-.19a67.38,67.38,0,0,0,2.88,8.68c-.9-1.93-1.81-3.86-2.68-5.83-.5-1.13-2.91-3.47-2.31-.74.23,1.09.52,2.15.83,3.2q-1.7-2.58-3.64-5c-1.24-1.53-1.72.07-1.24,1.28.17.44.37.88.56,1.32l0-.06c-.52-.75-1.46-1.21-1.77-.76-.36-.63-.71-1.27-1.08-1.89-1-1.68-2.75-2.15-1.89.33a88.64,88.64,0,0,0,10.31,20.71c1.09,2.72,2.1,5.48,3,8.28-1-1.37-2.08-2.75-3.1-4.14a80.9,80.9,0,0,0-13.19-23c-1.27-1.5-1.71.05-1.24,1.28.17.45.36.9.54,1.35-.51-.12-.78.47-.66,1.27-.2.19-.22.69.12,1.6A120.06,120.06,0,0,0,145.48,182c-.93-1.49-1.88-3-2.87-4.41q-1.61-3.93-3.32-7.8c-.49-1.12-3.17-3.38-2.31-.74.05.18.12.35.18.52h0a.54.54,0,0,0,0,.11c.54,1.61,1.17,3.17,1.85,4.7a1.89,1.89,0,0,0-.05.53,44.93,44.93,0,0,0,1.31,9.56c-1.59-2.29-3.27-4.52-5.09-6.68a1.8,1.8,0,0,0-.71-.57c-1.27-1.68-2.56-.83-1.33,1.34s2.52,4.52,3.75,6.8c2.77,5.58,5.82,11,8.91,16.4.85,1.49,1.83,1.66,2.07,1a.59.59,0,0,1,0,.08c1,1.69,2.83,2.12,1.89-.33,0-.11-.09-.21-.13-.32.32,0,.49-.37.3-1.27a120.93,120.93,0,0,0-4.14-14.64l.59.87c3.3,5.47,6.46,11,10.24,16.2,1.13,1.54,2.45,1,1.58-.84l-.81-1.71a1.79,1.79,0,0,0-.07-.94c-.19-.64-.38-1.28-.58-1.92.52.14.9-.18.58-1.24-.45-1.47-.92-2.94-1.41-4.4.93,1.23,1.88,2.45,2.83,3.67.78,1,2.28,1.6,1.74-.33-.77-2.73-1.64-5.42-2.58-8.09.39.49.77,1,1.17,1.47,1.27,1.51,1.7-.06,1.24-1.28l-.45-1.16.27.32c.64.78,1.24.72,1.42.16.65.53,1.31.78,1.13-.44a41.31,41.31,0,0,0-1.57-6.54c.36,0,.63-.15.51-.84q-.49-3-1.15-5.86c-.29-1.68-.52-3.36-.74-5,.86,1.08,2.32,2,1.81-.11a32.43,32.43,0,0,1-.57-6.59,5.56,5.56,0,0,0,.89.51c.64.29.9-.26.82-.84-.6-4.22,2.81-5.88,5.19-8.79C168.75,151.47,166.38,147.72,165.46,148.84ZM145,172.46c.88,1.41,1.71,2.87,2.49,4.35C146.66,175.38,145.82,173.94,145,172.46Zm-3,8.8c1.59,4.21,3,8.47,4.18,12.82l-.4-.59c-.41-.79-.84-1.58-1.28-2.36A45.66,45.66,0,0,1,142,181.26Z"/><path class="cls-4" d="M153.5,247.09c-.32-.41-.64-.8-1-1.19,2,.28.78-1.75-.62-2.63.07-.27-.08-.66-.59-1.17L150,240.78c.19-.22.16-.56-.21-1.07a64.78,64.78,0,0,0-6.35-7.56l-.22-.27c.41-.09.59-.38.31-1-2.23-5.09-5.59-9.51-8.5-14.21-.46-.75-2.77-1.77-3.6-1.25-.9-.15-1.58,0-1.16,1l.21.45a4.7,4.7,0,0,0-1.49-.51,38.17,38.17,0,0,0-2.91-5.87,1.79,1.79,0,0,0,1.64-2.72l-.45-.89a1.93,1.93,0,0,0,1.37-2.8,22,22,0,0,1-1.09-2.24l.38.24c2,1.19,3.45-1.57,2.25-3.13-2-2.62-4.6-3.67-7.36-5.36-1.56-.95-2.55.26-2.55,1.64a2.09,2.09,0,0,0-1.94,1.24c-.65-.7-1.29-1.4-1.95-2.08l0-.05h0l-.41-.45a1.74,1.74,0,0,0-1.58-.57l-.3-.61,0-.13c1.52-.06,3.58-1.57,2.69-2.71a3.35,3.35,0,0,1-.61-1.37,5.46,5.46,0,0,0,3.89-1.58,1.29,1.29,0,0,0-.22-2.19,2.63,2.63,0,0,0-2.42.49c-.61.06-1.44-.85-1.82-1.2-1.28-1.17-3.87.47-3.87,2v.73l-.51-.13c-3.24-4.36-6.58-8.67-9.47-13.26-.16-1.22-.32-2.45-.51-3.67.64,1.36,1.36,2.69,2.13,4,.38.64,2.36,2.69,2.4,2.92-.06-.38-.13-.75-.2-1.13.12.1.2.15.2.08a49.17,49.17,0,0,0-.33-5c.34.68.71,1.36,1.1,2s2.39,2.84,2.39,2.93a21.17,21.17,0,0,0-.63-4.61c.94,1.59,2,3.13,3,4.63a20.84,20.84,0,0,0,1.85,2.08c0-1.26-.07-2.53-.15-3.8.71,1,2.26,2.57,2.26,2.75,0-1.14-.06-2.28-.13-3.41.3.52.59,1,.9,1.54s2.38,2.77,2.4,2.92c-.14-1.39-.31-2.77-.5-4.16.48.67,1,1.34,1.46,2,.09.12,1.15,1.38,1.15,1.11,0-1.62-.15-3.22-.32-4.82a17.07,17.07,0,0,1,1.37,1.66c-.28-2.71-.7-5.38-1.23-8a2.39,2.39,0,0,1,.13.21c.27.43,2.16,2.54,2.16,2.53s0-.11,0-.17c2.8,3.95,5.81,7.76,9,11.43,0,0,.65.67.52.35a48.14,48.14,0,0,0-5.3-9.62c-.2-.95-.43-1.9-.67-2.84a50.34,50.34,0,0,0,3.93,4.32,63.2,63.2,0,0,0,4.93,4.89c.34.3,0-.33-.41-1,.54.4,1.08.79,1.64,1.16.26.17-.37-1-.4-1q-2.85-4.53-6-8.89c-.88-1.59-1.84-3.13-2.86-4.64-2.18-6.41-5.59-12.38-8.67-18.47-.4-.79-2.53-2.93-2.57-3.24a1.52,1.52,0,0,1,0,.21q-.79-1.66-1.68-3.3c-.36-.66-2.56-3.08-2.57-3.24,0,.39,0,.78.07,1.16l-.07-.1c0,.2.07.4.09.6s0,.64.08.95c-.11-.11-.21-.21-.3-.32l-.9-1.21a.27.27,0,0,1,0-.12,33.22,33.22,0,0,0,.16,6.32c-.46-.59-.92-1.05-1.22-1.05-1.77,0-1.16,1.49-1.23,3,0,.8,0,1.6,0,2.4a.69.69,0,0,1-.11-.13l-.76-1c0,1.63.13,3.24.28,4.84l-.45-.49-.86-1.15a.34.34,0,0,1,0-.13,26.6,26.6,0,0,0-.07,4.37c-.63-1-1.56-2.26-2-2.26-1.28,0-1.54,1.89-1.36,4.26-.75-.85-1.73-1.65-1.81-2a51.1,51.1,0,0,0,1.88,7.18,20.07,20.07,0,0,0,0,2.19l-.36-.35a35.22,35.22,0,0,0-2.09-5.85c-.3-.65-1.76-3.4-2.56-3.4H97V152a36.31,36.31,0,0,0,.31,5.16H97.2a27.32,27.32,0,0,0-4.52-4.13c-.09-.06-.13,0-.1.08a34.85,34.85,0,0,0,1.79,7.66,5.37,5.37,0,0,0-.44,2.07c.06,1.71.72,3.22.92,4.9a1.88,1.88,0,0,0,1.59,1.61c.1.73.21,1.47.3,2.21A2.4,2.4,0,0,0,93,172c-1.49-.08-3,.94-2.15,2.56q3.72,6.94,7.65,13.75c-1.13,0-2,.53-1.33,1.85a52.2,52.2,0,0,0,3.85,6.13c.21.55.41,1.1.61,1.64a2,2,0,0,0-1.58,2.83,74.23,74.23,0,0,1,2.77,7.37,2.23,2.23,0,0,0,3.22,1.12,9.3,9.3,0,0,0,3.94,1.7c2.11.39,2.57,1.36,4.22,2.69l.17.12q2.58,3.86,5.27,7.65a2.08,2.08,0,0,0,1.75.76c.79,1.17,1.6,2.33,2.47,3.46,1.39,1.82,4.64.36,3.8-1.9-.52-1.43-1.11-2.82-1.73-4.2,2.89,4.12,6,8.12,9.22,12,.52.61,3.82,2,4,.86.61.86,1.24,1.69,1.89,2.5-1.24-.44-3.07-.38-2.16,1.25,2,3.5,4.85,5.92,7.7,8.68a4.85,4.85,0,0,0,2.22,1.08c.48.57,1,1.14,1.47,1.68C151.07,248.54,155,249.07,153.5,247.09Zm-24.69-78c-.05-.29-.09-.58-.15-.86.63.81,1.26,1.62,1.88,2.44C130,170.21,129.37,169.69,128.81,169.14Zm2.2,1.11c.1.13,1.44,1.75,1.06.9-.17-.39-.36-.77-.54-1.16.33.49.67,1,1,1.45q1.74,2,.21,1c-.27-.18-.52-.37-.77-.56q-1.74-2.29-3.52-4.58c0-.2-.08-.41-.13-.61Q129.66,168.47,131,170.25Zm-2.64-4.73,0,0c1.35,2.54.44,1.16-.35,0-.06-.23-.11-.46-.18-.69Zm-6.84-8.06.18.2c.25.74.49,1.49.71,2.24l-.57-.67C121.75,158.64,121.64,158.05,121.53,157.46Zm.7,4.43c.42.63.84,1.26,1.28,1.88l.42,1.73c-.55-.89-1.08-1.79-1.6-2.7C122.3,162.49,122.27,162.19,122.23,161.89Zm4.85,11.28q-2.35-2.86-4.44-5.93c0-.51,0-1-.07-1.53l.15.16C124.93,168.22,130.71,177.61,127.08,173.17Zm-.84-7c-.19-.27-.38-.53-.56-.8-.12-.44-.24-.88-.37-1.32l.73.89C126.11,165.39,126.18,165.8,126.24,166.21Zm-.41-2.25-.89-1.08c-.2-.63-.41-1.26-.62-1.89.41.61.82,1.21,1.24,1.81C125.66,163.19,125.74,163.58,125.83,164Zm-.94-3.62c-.43-.52-.85-1-1.29-1.55l-.09-.14c-.09-.26-.18-.53-.28-.79.51.63,1,1.28,1.49,1.93C124.78,160,124.83,160.16,124.89,160.34Zm-.67-2c-.51-.67-1-1.33-1.57-2-1-2.63-2.15-5.23-3.35-7.79-.17-.7-.32-1.4-.45-2.11A95.71,95.71,0,0,1,124.22,158.32Zm-4.52,1.26c.08.74.14,1.49.19,2.25l-.37-.39c-.32-1.35-.65-2.69-1-4C118.91,158.14,119.3,158.86,119.7,159.58Zm-5.73,4c.17.51.35,1,.53,1.53s.19,1.15.28,1.73l-.4-.89C114.26,165.13,114.11,164.34,114,163.55Zm.32-9.11c.26.51.53,1,.8,1.5s.29,1.08.44,1.62l-.71-.65C114.64,156.09,114.47,155.27,114.29,154.44ZM115,171c-.07-.8-.14-1.6-.24-2.39l.45.75c.14,1,.26,1.94.38,2.92C115.36,171.86,115.16,171.43,115,171Zm.31-11.93a.11.11,0,0,0,0,0,6.69,6.69,0,0,1,.74.49c.36,1.5.68,3,.95,4.53C116.33,162.41,115.76,160.75,115.28,159.07Zm1.94,9.81c-.17-1-.36-2-.54-2.95.27.54.54,1.07.82,1.6.11.87.22,1.74.29,2.62,0,.12,0,.22,0,.32C117.61,169.94,117.41,169.41,117.22,168.88Zm-1.38-25.43a66.55,66.55,0,0,1,2.46,7.92c-.33-.34-.64-.69-1-1a48.94,48.94,0,0,1-2.76-9.43C115,141.75,115.43,142.6,115.84,143.45Zm-2.24,2.39c.28,1,.57,2,.85,2.94-.34-1-.68-2-1-3,0-.27-.08-.55-.11-.82Zm-2.95.53c.15.74.3,1.48.46,2.22a56.32,56.32,0,0,0,1.29,6.17l-.55-.48h0c-.28-1-.57-2-.88-3,0-.42,0-.84-.07-1.26C110.85,149.08,110.61,147.62,110.65,146.37Zm-2.32,15.93c.53,1.63,1.13,3.24,1.77,4.83q.3,3.09.39,6.2c-.23-.38-.44-.78-.65-1.17a1.29,1.29,0,0,1,.17.26l-1.69-10.12Zm1.86,24.16a3.59,3.59,0,0,0-1.68.41,98.88,98.88,0,0,0-6.5-11.52c0-.13,0-.26,0-.38,2.74,4,5.75,7.79,8.59,11.54Zm9.45,21.73.65.59c.25.35.48.71.72,1.07a1.65,1.65,0,0,0-.32,0C120.34,209.32,120,208.75,119.64,208.19Z"/><path class="cls-4" d="M330.05,210.87c-.05-.32-.13-.64-.19-1a2,2,0,0,0,0-1.38c-.48-1.43-.93-2.87-1.38-4.3,0-.07,0-.14,0-.21a27.79,27.79,0,0,0-1.34-5.64,1.55,1.55,0,0,0-.7-.86q-1-3.27-2.07-6.51c-.37-1.13-1.74-1.35-2.85-1-.24-.73-.48-1.45-.68-2.19-.68-2.49-5.16-1.86-4.47.63a64,64,0,0,0,3.7,9.79c-.14.59-.28,1.18-.41,1.77a24.51,24.51,0,0,1-.29-2.86c0-.94-2.58-4-3.29-2.24a70.44,70.44,0,0,0-2.34,7c.68-3.56,1.95-7.27,1.95-10.8,0-1.18-2.21-3.92-3.11-2.94-.66-1.44-2.29-2.9-2.95-1.58l-.51,1c.37-1.9.74-3.8,1-5.71.17-1.09-2-3.84-3-3,.07-.52.16-1,.25-1.56.22-1.23-2.53-4.45-3.29-2.68a27.67,27.67,0,0,0-1.95,11.44,1.82,1.82,0,0,0,.21.76l-.21,1.08c-.21,1,1.43,3.07,2.53,3.17a52.23,52.23,0,0,0-.69,7c0,.83,1.43,3.15,2.51,3.22a93.45,93.45,0,0,0-.66,10.62c0,1,2.58,4.61,3.29,2.67.09-.24.17-.48.25-.72,0,.72.09,1.45.16,2.17a4.74,4.74,0,0,0,2.31,2.72c-1.59,5.27-2.2,10.73-3.09,16.14l0-.06c-.49-.76-2.05-2.54-2.94-1.25-.34.5-.06,1.3.06,1.82a3.07,3.07,0,0,0,.87,1.34,15.32,15.32,0,0,1,1,4.19,4.15,4.15,0,0,0,1.57,2.25,23.3,23.3,0,0,0-.45,3.81c-.09,2.31,1.1,4.28,1.1,6.5,0,3.9.26,6.65,2,10.19,1.11,2.28,5.35.77,4.16-1.65-1.73-3.54-1.69-6.7-1.69-10.55,0-.89-.83-2-1-2.9a12.35,12.35,0,0,1,.14-3.93c.8-5.62,3.64-11,6.07-16.08,2.26-4.7,4.3-9.49,6.76-14.07.27-.5.5-1,.72-1.47C328.49,213.42,330.34,212.62,330.05,210.87Zm-16,6.17a2.81,2.81,0,0,0-.67-.42c.91-2.5,1.65-5.05,2.36-7.61C315.16,211.67,314.61,214.35,314.09,217Zm3.59,1.33a4.38,4.38,0,0,0,1.29,1.07c-.85,1.84-1.71,3.67-2.57,5.51C316.83,222.76,317.25,220.56,317.68,218.37Zm3.26-4.16a3.86,3.86,0,0,0,.39.65c-.22.4-.44.8-.65,1.2C320.77,215.44,320.85,214.82,320.94,214.21Zm-2.81-6.14c-.74-.67-1.6-1-2-.28.39-1.41.79-2.82,1.21-4.23.31,1.16.64,2.32,1,3.49C318.24,207.39,318.18,207.73,318.13,208.07Z"/><path class="cls-4" d="M321.54,274.71a9,9,0,0,0-2.41-2.84,18.54,18.54,0,0,1-1.28-2.7c-.28-.76-1.66-1.29-2.33-1.56-.14-.06-1.93-.72-1.72-.06,0,.11.06.23.1.34a6,6,0,0,0-2.58-1.39c-.37-.12-1.59-.42-1.06.35,1.73,2.54,3.8,4.83,5.53,7.38a5.13,5.13,0,0,0,2.18,1.34l.14.05a7.67,7.67,0,0,0,1.71.87c.13.05,1.95.71,1.72.06a15.28,15.28,0,0,0-.73-1.65C321.29,275,321.72,275,321.54,274.71Z"/><path class="cls-4" d="M309.67,266.94c-1.13-2.79-2.39-5.52-3.69-8.22a.22.22,0,0,0,0-.08,13,13,0,0,1-.35-3.67,2.63,2.63,0,0,0,.58.35c.79.33,1.83.18,1.83-.91v-2.77a3,3,0,0,0-1.94-2.51c-.79-.33-2.06-.18-2.06.91v1.83c0-.11-.8-.15-1.27-.07-1.09.2-1.43,1-1.57,2.08-.91-.15-1.58-.13-1.41.22.33.66.68,1.31,1,2a8.72,8.72,0,0,0,.76,1.53l0,0c-.31-.09-.62-.16-.89-.22s-2.19-.28-1.76.39c2,3.16,3.63,6.14,6.63,8.53C306,266.65,310.12,268.05,309.67,266.94Z"/><path class="cls-4" d="M307.4,275c-8.24-9-18.54-16.59-24.67-27.34-.61-1.06-4.72-2.43-3.89-1,6.29,11,16.67,18.76,25.12,28C304.74,275.51,309,276.71,307.4,275Z"/><path class="cls-4" d="M315.74,280.53c-6.43-6.43-12.88-12.85-19.76-18.81-2.14-1.85.28,1.63,1,2.22,6.61,5.71,12.79,11.9,19,18.07C318.13,284.24,316.86,281.64,315.74,280.53Z"/><path class="cls-4" d="M304.87,266.14a21.41,21.41,0,0,1-3.95-4.71,7.24,7.24,0,0,0-1.95-2c-.11-.08-1.59-1-1.44-.74a34.79,34.79,0,0,0,2.47,3.8l1.22,1.71a.54.54,0,0,0,.12.22c.18.25.37.49.56.74s.21.41.1.13l.33.43a11.46,11.46,0,0,0,2,1.83s1.15.79,1,.42a6,6,0,0,0-.94-1.48,5.58,5.58,0,0,0,.77.49C306,267.42,305,266.26,304.87,266.14Z"/><path class="cls-4" d="M304,276.73c-6.35-6.27-13.53-11.81-18.44-19.37-.85-1.3-5.09.12-4.06,1.71a57.07,57.07,0,0,0,8,9.51,83.05,83.05,0,0,1-6.36-5.59c-1.49-1.47-3.81.45-3.55,2.24a.9.9,0,0,0,.22,1.32c.5.35,1,.73,1.43,1.12a1.22,1.22,0,0,0,.41.72,34.52,34.52,0,0,0,2.95,2.45,22.3,22.3,0,0,0,2.59,2.16,2.85,2.85,0,0,0,1.34.5c1.8,1.37,3.64,2.68,5.49,3.92a2.54,2.54,0,0,0,3.56-1.24c.79.74,1.57,1.5,2.34,2.26C301.11,279.57,305.26,278,304,276.73Z"/><path class="cls-4" d="M241.54,159.42c0-.32-.48-.48-.69-.55a4.72,4.72,0,0,0-1.5-.14,4.87,4.87,0,0,0-1.08,0,2.56,2.56,0,0,0-2.37-1.27c-3.2.12-6.05,1.94-8.29,4.12-1.81,1.75,1.26,5.06,3.06,3.31.44-.42.9-.83,1.37-1.2a4.6,4.6,0,0,0-.06.52,3,3,0,0,0,1.51,2.82,1.36,1.36,0,0,0,2-1.09,1.64,1.64,0,0,1,0-.22c0-.06,0-.12,0-.16a3.23,3.23,0,0,1,.38-.73,9.71,9.71,0,0,1,2.54-2.37,1.64,1.64,0,0,0,.71-1.41h0c.69,0,1.79-.13,2.21-.77A1.68,1.68,0,0,0,241.54,159.42Z"/><path class="cls-4" d="M211.29,158.81c-.18-.24-.36-.45-.55-.66.35-.88-.56-2.52-1.25-2.93a48.72,48.72,0,0,0-15.8-5.91,1.37,1.37,0,0,0-1.65,1.2v0a10.48,10.48,0,0,0-2.86-.82c-.47-.38-1-.87-1.48-.87H184a1.11,1.11,0,0,0-1.06.93v.12a2.88,2.88,0,0,0-1.69-.65,55.4,55.4,0,0,0-6.85.39,6.4,6.4,0,0,0-1.89-.35,1.52,1.52,0,0,0-1.52,1.34c-2.49.67,0,4.22,1.84,4.22h1.89a2.53,2.53,0,0,0,2.72,1.46c3.34-.91,6.52-2.28,9.92-2.75,2,.27,4,.61,6,1a2.72,2.72,0,0,0,2.51,1.3h1.84a1.37,1.37,0,0,0,1.32-1.12v-.5c1,.35,2.24.76,3.38,1.21-.35,1.06,1,3.15,2.25,3.26s2.74.36,3.62,1.57C209.77,162.32,213,161.22,211.29,158.81Z"/><path class="cls-4" d="M285,165.89a5.12,5.12,0,0,0-.73-.66c-.07-.1-.13-.19-.19-.26a3.93,3.93,0,0,0-2.77-1.41,1.19,1.19,0,0,0-.44-.08c-1.32,0-3.66.31-4.74-.62a2.38,2.38,0,0,0-2.51.09c.06-1.45-2.24-3.22-3.54-2.28-.5.36-1,.74-1.43,1.1a3.32,3.32,0,0,0-2.78-1.27c-1.58.44-3.19.74-4.79,1.06a2.79,2.79,0,0,0-2.11-1.1c-2.63,0-20.68-4.27-16.8,3.19a2.44,2.44,0,0,0,1.28,1.11,2.33,2.33,0,0,0,1.83,1.44c2.21,0,4.51-.12,5.69-2.3a1.64,1.64,0,0,0,.21-.68h.15a50.75,50.75,0,0,1,5.37.64,2.66,2.66,0,0,0,3,2.1c.81-.22,1.63-.4,2.45-.57a2.66,2.66,0,0,0,2.61,2.46c3.17-.24,5-1.52,7.37-3.25a1,1,0,0,0,.37.85c1.63,1.4,4.33,1.23,6.33,1.23A3.7,3.7,0,0,0,281,166a6.4,6.4,0,0,0,3.87,1.47.58.58,0,0,0,.63-.53A1.72,1.72,0,0,0,285,165.89Z"/><path class="cls-4" d="M288.54,167.39c-1.6,0,1.72,2.75,2.92,2.75C293.07,170.14,289.75,167.39,288.54,167.39Z"/><path class="cls-4" d="M288.41,355.74c-.06.06-.37.12-.37.18v-2c0-2.68-4-1.76-4.06.48,0,.89-.12,1.77-.22,2.65a2.26,2.26,0,0,0-1.72,2v6.75c0,2.68,4,1.76,4-.48V365c0-1,.76-2,1-2.92,1.76-1.05,2.79-2.53,4.14-4C293.13,355.88,290.19,353.78,288.41,355.74Z"/><path class="cls-4" d="M317.09,369.07a4,4,0,0,0-.72.56,19.52,19.52,0,0,1-.23-2.29c-.08-2.42-4.27-3.4-4.32-.61,0,1.17-.12,2.34-.25,3.5a33.55,33.55,0,0,0-.67,7.57c0,2.44,4.31,3.37,4.32.6,0-.67,0-1.34.08-2a2.41,2.41,0,0,0,1.11-.33c1.56-1,2.16-2.75,3.69-3.69C322.32,371,319.17,367.79,317.09,369.07Z"/><path class="cls-4" d="M180.52,367.22c-.12-2.79-.8-5.51-.92-8.3-.1-2.18-4.19-.82-4.21,1,0,.53,0,1.06,0,1.6a3.14,3.14,0,0,0-2.73,2.09,50.08,50.08,0,0,0-.92,11.07,1.38,1.38,0,0,0,.92,1.45c.06.11.21.23.28.35.88,1.68,4.14.17,4.14-1.43v-2.18c0-1,.86-2.07,1.21-3.15A2.84,2.84,0,0,0,180.52,367.22Z"/><path class="cls-4" d="M163.75,364c-1.21-1.22-2.51-2.55-2.69-4.34-.12-1.12-2-.4-3.17.56-.2-.58-.4-1.16-.59-1.75s-1.32-.36-2.3.25a29,29,0,0,1-.4-4.59c0-1.45-4,.39-4,1.79.05,4,.68,7.93,2.83,11.34.4.62,1.4.38,2.29-.17.16.37.31.73.48,1.09.58,1.21,3.28-.61,3.83-1.74C161.26,367.26,164.56,364.84,163.75,364Z"/><path class="cls-5" d="M78.49,113.56c-.64.29-3.79-5.51-3.92-5.7a28.69,28.69,0,0,0-6.19-7C63.9,97.23,58.1,95.61,52.5,94.81a1.64,1.64,0,0,0-1.5.51c-4.36,7.74-1.51,18.76,3.15,25.73a8.62,8.62,0,0,0,9.44,3.7c3.78-1,7.3-1.59,10.81.73a9.13,9.13,0,0,0,6,1.84c.7,0,2.06-1.12.76-1.07-3.86.16-6.45-3-10.06-3.83-4.13-1-7.4,2.52-11.8.91-6.94-2.54-8.68-15.74-8.33-21.86a17.11,17.11,0,0,1,1-4.42c.66-2,3.89-.39,5.22,0a27.06,27.06,0,0,1,12.35,7.28c2.28,2.3,5.5,11.9,9.73,10,1.24-.54.1-1.14-.75-.77Z"/><path class="cls-5" d="M76.86,121c-6.74-2.31-4.19-10.36-7.38-15.19-2.43-3.68-8.48-4.35-11.69-7.19-.61-.54-2.32.36-1.5,1.08,4.77,4.21,12.12,4.13,13.1,11.68.61,4.65,1.34,9.16,6.34,10.88.79.27,2.28-.86,1.13-1.26Z"/><path class="cls-5" d="M79.74,113.87a12,12,0,0,1,2.89-2.37c.14-.07.68-.4.24-.49a2.26,2.26,0,0,0-1.35.25A14.33,14.33,0,0,0,78,114c-.3.31.27.32.46.31a2.3,2.3,0,0,0,1.29-.46Z"/><path class="cls-5" d="M84.53,112c3.15-.24,6.23,1.65,9.31.19,2.59-1.23,4.13-2.71,7.83-1.72,2.55.68,4.86,2.1,7.43,2.79.69.18,2.29-.83,1.16-1.14-3.71-1-8.37-4.43-12.46-3.14a14,14,0,0,0-3.2,1.47c-3.16,1.92-6.54.11-9.84.37-1,.07-1.56,1.28-.23,1.18Z"/><path class="cls-5" d="M112,113.6c4.57-2,3.18-7.41,4.74-11.34,1-2.61,8.66-2.58,11.52-3.54,4.24-1.42,10.33-4.26,12.14,1.54,1.92,6.19-2.3,14.88-6.06,19.56-3.41,4.25-8.48,1.47-12.79,2.85-1.39.44-7.16,3.77-7.65,2.57-.23-.56-2.13.05-1.93.52.86,2.13,3,1.22,4.59.42a21.65,21.65,0,0,0,1.94-1.21c2.61-1.7,5.67-1.69,8.72-1.48a12.29,12.29,0,0,0,5.33-.9c6.72-2.46,9.92-13.94,10.09-20.12.29-10.21-10.12-5.92-15.85-4.11-3.79,1.2-7.38.08-10.76,2.66-3.56,2.72-.4,10.13-4.74,12-1.25.53-.08.93.71.59Z"/><path class="cls-5" d="M115.71,119.56c5.18-.42,5.53-5.49,5.69-9.78.18-5.06-.85-8.49,5.78-9.53,3.25-.51,6.48-.48,9.41-2.13,1.13-.64-.62-.75-1.17-.44-3.95,2.22-13.43.17-15.48,5.57-1.16,3,1.31,15-3.44,15.35-.62.05-2.08,1.07-.79,1Z"/><path class="cls-5" d="M79.18,129.61c3.45,5.22,2.46,12.16,3.93,18,1,4,4.06,3.44,6.34.8l-1.87.5c4.16,2.38,7.51.69,11.28-1.6.8-.48-1.14-.22-1.47,0-2.44,1.48-5.26,2.53-8,1a2,2,0,0,0-1.86.5c-2.49,2.87-3.21-5.48-3.38-7-.46-4.27-.63-9-3-12.64-.3-.46-2.07.32-1.94.51Z"/><path class="cls-5" d="M85,150.16c.36,8.65,13.21,3.53,16-.89.46-.74-1.47-.53-1.79,0-2.45,3.9-12,7.55-12.27.39,0-.58-2-.2-1.93.52Z"/><path class="cls-5" d="M105.5,147.82c1.72-3.26,3.8-6.29,5.31-9.65s.52-8,1.11-11.54c.1-.56-1.82-.21-1.91.31-.61,3.65.17,8.12-1.11,11.54s-3.62,6.43-5.31,9.65c-.19.37,1.64.21,1.91-.31Z"/><path class="cls-5" d="M101,143.35c2.07-5.85,5.47-11,8.28-16.55.41-.81-1.52-.57-1.8,0-2.86,5.6-6.31,10.88-8.41,16.83-.23.64,1.7.39,1.93-.25Z"/><path class="cls-5" d="M99.52,127.49a29,29,0,0,0,3.31-3.34,16.37,16.37,0,0,1,2.52-2.18c1.51-1,2.59-.06,3.37,1.22l.4-.42-3.86,1.93,1.48-.18a10.18,10.18,0,0,1-1.23-1.84l-1.75.65c1,.22,1.59,1.07,2.55,1.29.4.09,1.73-.06,1.73-.66v-.64c0-.2-.42-.46-.52-.46H105.6c-.24,0-1.91.73-1.2,1s1.27.5,1.91.71c.39.13,1.73,0,1.73-.58v-1.28c0-.2-.42.18-.52.18H105.6c-.35,0-1.56-.15-1.56.33v.65s.13,0,.15.08c.43.21.71.43,1.13.64s1.72,0,1.72-.6v-1.28c0-.2-.07.18-.16.18H105c-.34,0-.91-.15-.91.33v1.29c0,.13,0,.16.12.17.88.13,1.57.51,2.45.64.25,0,1.88-.33,1.47-.77a10.55,10.55,0,0,0-2-1.93c-.4-.27-1.69,0-1.87.5-.48,1.28.5.92,1.32,1.47.48.32,2.15-.45,1.81-.68s-1.52-.33-1.23-1.1l-1.87.5a10.63,10.63,0,0,1,1.93,1.92l1.52-.76c-.73-.11-1.39-.47-2.11-.58-.22,0-.11-.71-.11-.94-.46.23-.91-.06-1.37.94h1.93c-.19-1,0-.61-1-.67v1.29a15.63,15.63,0,0,0,2.11-.6c-.69-.35-1.11-.14-1.11-1-.46.23-.8-.06-1.26.94h1.93c-.19-1-.67-.61-.67-.67v1.29a8.42,8.42,0,0,0,1.81-.66c-.64-.21-1.26-.5-1.9-.71-.4.27-.77.75-1.17.75h1.93a2.58,2.58,0,0,1-.67,0v.64a8.42,8.42,0,0,0,1.81-.66c-1-.22-1.58-1.06-2.54-1.28-.24-.06-2,.17-1.74.65a10.1,10.1,0,0,0,1.35,2c.27.32,1.2,0,1.48-.17l3.85-1.93c.08,0,.5-.26.4-.42-3.78-6.21-9.6,2.47-12.63,4.69-.81.6,1.13.39,1.5.12Z"/><path class="cls-5" d="M86.9,127.35a12.14,12.14,0,0,0-.31-3.18c-.29-1.09-.84-1.28-1.78-1.78a6.2,6.2,0,0,0-5.11-.5c-1.88.51-3.61,2.15-1.72,3.78,1.37,1.18,3.84,1.15,4.83-.48.47-.77.54-2.34-.6-2.46a6.37,6.37,0,0,0-3.12,1c-.66.32-.76,1.07.08,1.2a1.61,1.61,0,0,1,.74.39l1.63-1-1.28-.64c-.7-.35-2.43.59-1.5,1.08,1.24.65,1.84.82,2.83-.28l-1.55.28a3.4,3.4,0,0,0,2.34.77,1.35,1.35,0,0,0,1.26-.58c.2-.4-.18-.75-.58-.76a2.09,2.09,0,0,1-1.52-.51c-.41-.35-1.23-.07-1.55.28-.1.11-.33.43-.38.48l.9-.42c.55.16.66.16.35,0s-.39-.23-.6-.33l-1.5,1.08,1.28.64c.49.25,2.36-.28,1.64-1a3.21,3.21,0,0,0-1.83-.9l.08,1.2a11.09,11.09,0,0,1,1.37-.59c.62-.21-.19-.56-.17,0A1.75,1.75,0,0,1,81,125c-.23.48-1.34-.27-1.56-.48-1-1,.42-1.36,1.22-1.55a4.5,4.5,0,0,1,3.32.83c1.16.62,1,2.57,1,3.7,0,1,2,.65,2-.16Z"/><path class="cls-5" d="M86.81,129.17c3.23,0,6.41-.6,9.63-.64l-.56-.2a20.08,20.08,0,0,0,.64,5.78c.16.55,2.09,0,1.93-.52a20.08,20.08,0,0,1-.64-5.78c0-.2-.46-.2-.57-.2-3.22,0-6.41.6-9.63.64-.6,0-2.09.94-.8.92Z"/><path class="cls-5" d="M85.47,143.71c2.82-.67.32,5.46,4,4.71a2.6,2.6,0,0,0,2.17-2.1c.34-1,.8-.85,1.75-.95a1.93,1.93,0,0,0,1.48-.83c1.84-3.78-8.28-1.71-9.74-1.65-.37,0-1.43.47-1,1a2.93,2.93,0,0,0,3.94.73c1.19-.6.1-1.39-.8-.93a1,1,0,0,1-1.36-.6l-1,1c1.65-.06,3.31-.46,5-.59a8.56,8.56,0,0,1,2.9.13.45.45,0,0,1,.37.57s-1.25.08-1.34.1a2.52,2.52,0,0,0-1.9,1.57c-.07.22-.15.44-.22.66s-.45.77-.18.71c-.32.07-.38-1.06-.39-1.22a4.55,4.55,0,0,0-.56-2.6,3.13,3.13,0,0,0-3.36-.82c-1.18.29-.88,1.39.3,1.11Z"/><path class="cls-5" d="M84.74,143.82c1,.86,2.32,1.12,3.31,2,.31.27,1.9-.11,1.88-.58a2.81,2.81,0,0,0-1.05-2.39c-.34-.23-1.88.09-1.87.59a18.25,18.25,0,0,0,.33,4c.09.42,1.81-.07,1.91-.43a11.51,11.51,0,0,0,.54-3.07c-.65.17-1.75.35-1.75.52v2c0,.43,1.49-.17,1.66-.34a5.67,5.67,0,0,0,2-3.82c0-.4-1.72.14-1.89.33a7.75,7.75,0,0,0-1.42,2.75c-.16.47,1.35,0,1.49,0,1.1-.49,1.53-1.33,2.3-2.19.44-.49-1.37-.12-1.61,0a3.17,3.17,0,0,0-1.21,1.68c-.08.19.21.05.32.05h1.26c.11,0,.21-.08.32,0,.21-.5.32-1.24.78-1.57-.53,0-1.07,0-1.61,0-.53.59-.92,1.43-1.67,1.76l1.51-.06a7,7,0,0,1,1.24-2.56l-1.83.33A5,5,0,0,1,88,146.22a19.9,19.9,0,0,1,2.06-.34v-2c0-.3-2.15,0-2.15.52a10.53,10.53,0,0,1-.43,2.89l1.86-.43a18.22,18.22,0,0,1-.35-4l-1.9.58a2.63,2.63,0,0,1,.94,2.25l1.87-.58c-1-.87-2.32-1.12-3.31-2-.39-.34-2.11.41-1.83.66Z"/><path class="cls-5" d="M90.6,111.27c-.5-9.39-13.76-12.69-20-16.93-7.14-4.86-14.65-15-10.2-24,.47-1-1.48-.89-1.83-.18C55.19,77,58.7,84.75,63,90.27c2.54,3.26,6.74,5.78,10.31,7.71,5.22,2.83,15,6.09,15.34,13.46,0,1,2,.62,1.95-.17Z"/><path class="cls-5" d="M83.31,111.43c-1.48-2.92-1.94-6-3.76-8.82-2-3-5.26-5.13-8-7.33-.57-.44-2.32.38-1.52,1,2.79,2.2,5.63,4.24,7.78,7.11,1.94,2.6,2.18,5.75,3.6,8.55.37.73,2.26.13,1.94-.52Z"/><path class="cls-5" d="M92.91,111.1c-.46-10-6.82-16.19-13.74-22.64a113.52,113.52,0,0,0-10.88-9.08c-5.82-4.21-8.29-7.9-7-15.28a35.1,35.1,0,0,0-5.49-26.2,59.14,59.14,0,0,0-8.68-10.33,23.19,23.19,0,0,0-5-3.59c-.53-.28-1-.57-1.56-.88-2.37-1.39.1-1.55.08-1.58.34.51,2.12-.24,1.93-.52C40.27,17.56,34,20,38,23.25c1.4,1.16,3.25,1.89,4.75,2.92a37.9,37.9,0,0,1,7.15,6.94c4.35,5.14,7.83,10.82,9.38,17.41S59,63.14,58.79,69.6c-.15,5.68,6.08,9.27,10,12.14C78.43,88.8,90.39,98.89,91,111.62c0,.4,2,.06,1.93-.52Z"/><path class="cls-5" d="M41.84,21.45C51,27.72,59.75,35.14,64.9,45.19a30.88,30.88,0,0,1,3.22,15.17c-.2,6.12-3.06,11.81-3.32,18,0,1,1.92.62,2-.18.28-6.65,3.15-12.79,3.37-19.45.17-5.36-1.53-10.58-3.94-15.29-5-9.69-14-17-22.84-23-.64-.44-2.37.46-1.5,1.05Z"/><path class="cls-5" d="M97.79,109.63c2.15-2,3.11-5.27,4.55-7.8,3.24-5.68,8.8-8.89,14.59-11.46,6.22-2.77,15.95-4.85,19-11.65.14-.3-1.68-.15-1.9.35-3.45,7.59-16,9.44-22.83,13.24a30.57,30.57,0,0,0-9.06,7.32c-2.47,3-3.31,7.51-6.13,10.14-.41.39,1.41.17,1.75-.14Z"/><path class="cls-5" d="M107.76,111.09c2.32-3.32,2.63-7.74,4.9-11.28,3.42-5.35,8.65-8.84,13.83-12.27,7.28-4.82,12.37-10.36,11.37-19.62-.53-4.92-2.81-9.6-3.73-14.47a41,41,0,0,1,.59-18.28c1.33-4.85,4.88-9.48,7.52-13.71,1.18-1.89,3.57-5,2.68-7.42-.24-.65-1.41-.35-1.76,0-6.84,7.76-12.54,16.32-15.75,26.22a38.72,38.72,0,0,0-1.88,14.45c.4,5.66,2.36,10.89,3.21,16.45.12.78,2.06.3,1.93-.51-.6-3.93-1.9-7.7-2.65-11.6a40,40,0,0,1,.49-15.86c2.31-10.85,9-20.54,16.23-28.71l-1.75,0c1.09,2.93-3.23,7.81-4.68,10.16a57,57,0,0,0-5.53,10.65c-3.26,9.06-.68,19.73,2.1,28.48,1.77,5.59,1.65,10.76-1.39,15.85-2.83,4.73-9.21,7.67-13.62,10.75a34.1,34.1,0,0,0-8.12,8,31.56,31.56,0,0,0-3.82,6.92c-.78,2-.73,3.83-2,5.63-.56.8,1.41.72,1.82.13Z"/><path class="cls-5" d="M97.9,109c.44-3.4,2.6-6.45,4.19-9.41a78,78,0,0,1,6.17-9.77c4.26-5.68,11.14-9.11,17.33-12.19,10.95-5.46,8.8-17.47,8.08-27.93-.07-1.06-2-.8-2,.12.43,6.21,1,12.62-.07,18.79-1.22,6.92-9.17,8.17-14.14,11.46-5.61,3.7-10.07,7.6-13.77,13.24-3,4.53-7.09,10.38-7.8,15.81-.13,1,1.85.81,2-.12Z"/><path class="cls-5" d="M83.38,155.36c-2.59,8.42-6.53,17.18-6,26.16,0,.56,1.75-.11,1.93-.42a32.85,32.85,0,0,1,5.71-7.33c-.61.1-1,.2-2,.3v6c0,.52,1.92-.08,2.09-.42A19.56,19.56,0,0,1,87.37,176l-1.81.3a67,67,0,0,1-.71,11.06c-.11.65,1.7,0,1.92-.31,1.33-2.18,2.4-4.51,3.73-6.69l-1.92.41c-.09,5-.65,9.91-.75,14.89,0,.47,1.77,0,1.93-.42.89-2.28,2.08-4.42,3-6.7l-1.92.42c-.2,6.27-2,12.29-1.49,18.6,0,.52,1.68-.05,1.85-.3,2.36-3.34,3.19-7.8,6.57-10.31l-1.72.19c-.07,6.21-.68,12.4-.74,18.61,0,.44,1.81,0,1.92-.41.77-3.31,2.06-6.42,3-9.68l-1.93.42c-.07,4.88-.45,9.54,1.49,14.14.23.53,1.75,0,1.93-.42,1.19-2.78,1.69-5.66,3.64-8.07l-1.85.3c.09,4.72.67,9.41.75,14.14,0,.51,1.76-.06,1.92-.41a54.45,54.45,0,0,0,3-9.68l-1.92.41c.09,3.78.57,7.51,3,10.51.33.39,1.7-.1,1.86-.5l1.42-2.12-1.79.39c.92,1.26,2.46,2,2.92,3.63.16.56,1.62-.05,1.85-.3,1.55-1.69,2.91-3.52,4.46-5.21l-1.85.3c.78,1.74,1.44,1.73,3.16,2.38.47.18,2.23-.56,1.57-.81-1.36-.51-2-.35-2.8-2.08-.23-.54-1.58,0-1.84.3-1.56,1.68-2.92,3.52-4.47,5.21l1.85-.31c-.49-1.67-2-2.43-3-3.8-.3-.41-1.54.12-1.78.39-1.25,1.35-.93.8-1.57,2.34l1.86-.5c-2.42-2.95-2.82-6.66-2.91-10.33,0-.46-1.82,0-1.93.41a54.42,54.42,0,0,1-3,9.68l1.92-.42c-.08-4.72-.65-9.41-.74-14.14,0-.52-1.68.09-1.85.3-2,2.48-2.56,5.43-3.8,8.3l1.92-.41c-1.94-4.6-1.56-9.26-1.48-14.14,0-.45-1.8,0-1.93.41-.92,3.26-2.21,6.37-3,9.68l1.92-.42c.06-6.21.68-12.39.74-18.6,0-.51-1.55.07-1.71.19-3.61,2.66-4.33,7-6.83,10.53l1.84-.3c-.46-6.3,1.29-12.35,1.49-18.61,0-.47-1.77,0-1.92.41-.89,2.28-2.08,4.42-3,6.7l1.93-.41c.09-5,.66-9.92.74-14.89,0-.54-1.74.12-1.92.42-1.33,2.18-2.39,4.51-3.72,6.69l1.91-.31a67.29,67.29,0,0,0,.75-11.26c0-.52-1.67.07-1.84.3a23.89,23.89,0,0,0-2.44,3.83c.64-.14,1.79-.27,1.79-.41v-6c0-.55-1.54.13-1.72.31a34.81,34.81,0,0,0-6,7.55l2-.41c-.55-8.89,3.41-17.62,6-25.95.15-.49-1.74-.22-1.9.31Z"/><path class="cls-5" d="M122.88,226.27c1.76,2.42,4.06,4.13,6.29,6.08,4,3.46,2.09,7.61-.32,11.44-.46.73,1.23.32,1.46.2a23.62,23.62,0,0,0,3.9-2.35l-1.71,0a18,18,0,0,0-.76,6.07c0,.5,1.38.06,1.55,0a33.12,33.12,0,0,1,3.5-1.39l-1.32-.06a9.85,9.85,0,0,0,2.29,6.06c.32.38,1.78,0,1.87-.5A3.5,3.5,0,0,1,141,249l-1.85.28c1.25,2.4,1.72,5,3,7.44.28.54,1.79.11,1.93-.4.56-2,.93-4,1.49-5.95l-1.93.4c.8,2.82,1.86,3.84,4.65,4.63.45.13,1.59,0,1.74-.57.74-2.71,1.56-1.36,3.65-.87,1.42.33,2.94-.42,4.16-1s-.61-.69-1.16-.43c-2.74,1.3-4.12-1.78-6.48-.85-1.39.55-1.73,2.13-2.09,3.44l1.74-.57c-2.57-.73-3.56-1.79-4.28-4.3-.16-.58-1.79-.05-1.92.41-.56,2-.93,4-1.49,5.95l1.93-.4c-1.25-2.41-1.73-5-3-7.45-.3-.57-1.55-.05-1.86.28a5.12,5.12,0,0,0-1.55,3.1l1.86-.5a9.12,9.12,0,0,1-2.17-5.85c0-.44-1.15-.13-1.33-.06a21.23,21.23,0,0,0-3.94,1.59l1.55,0a17.43,17.43,0,0,1,.74-5.84c.22-.66-1.53-.11-1.72,0a18.52,18.52,0,0,1-3.55,2.12l1.47.19c2-3.1,4.09-6.67,2-10.22-1.84-3.18-5.79-5-8-8-.33-.46-2.19.17-1.8.71Z"/><path class="cls-5" d="M146.63,253.71c1.93,3.42,6.51,4.54,10,5.43.55.14,2.26-.7,1.2-1-3.2-.81-7.56-1.87-9.31-5-.34-.6-2.19.06-1.93.52Z"/><path class="cls-5" d="M133.34,208.86h-1.49c-.31,0-1.6-.07-1.59.41a7.83,7.83,0,0,0,2.28,5.17c.34.35,2.1-.42,1.83-.71a8.37,8.37,0,0,1-2.18-5.33,4.35,4.35,0,0,1-1.6.46h1.49c.46,0,1,.25,1.37,0s.26,0-.11,0Z"/><path class="cls-5" d="M99,169.61c5,18.14,15.78,34.12,26.79,49.12.34.45,2.06-.35,1.93-.52-11-15-21.83-31-26.79-49.12-.11-.41-2,.11-1.93.52Z"/><path class="cls-5" d="M112.39,129.42c1.34,3.43,2.2,7.46,4.92,10.11a8.27,8.27,0,0,0,3.61,1.77,15.23,15.23,0,0,0,2.59.36c1.29.13-2,4.4-2,4.38-.46.55.13.94.69.87a15.46,15.46,0,0,0,3-.57c2.74-.73,4.53,1.14.43,3.16-.21.1-.57.32-.57.59v.74a.49.49,0,0,0,.4.51,25.89,25.89,0,0,0,4.73.74c2.47.17,2.3.52.88,3-.18.33,0,.56.35.67,3.49,1.35,6.83.84,10.4,0l-.57-1.08a27.4,27.4,0,0,0-3.93,2.35c-.59.37-.34.94.27,1,3.2.37,6-.48,9.18-.75l-.52-1c-1.47,1.14-1.94,2.35-3.15,3.86-.44.55.11.95.69.87,3.63-.5,5.7-2.84,7.72-5.77.55-.8-1.32-.8-1.71-.31a3.64,3.64,0,0,0-.86,1.65c-.36,1,1.56.86,1.82.15.93-2.51,2-4.94,3-7.44l-1.89,0a27.86,27.86,0,0,0,.75,6.86c.23.86,1.75.23,1.94-.35a31.91,31.91,0,0,1,2.92-6.53l-1.88.18c.29,1.81,1.2,3.4,1.49,5.21.12.74,1.69.33,1.88-.19,1.43-3.86,2.13-8.25,5.69-10.86a7.91,7.91,0,0,1-1.58-.28v6c0,.82,1.15.52,1.58.28,3.46-2,6.28-4.79,9.09-7.59l-1.72-.3-2.23,4.46c-.27.54.39.76.8.71,5.64-.67,7-7,11.15-9.93l-1.42-.61a10.2,10.2,0,0,0-2.41,6.28c0,.47.51.57.87.54,3.84-.32,6.83-2.09,10.19-3.86,1.17-.62.11-1.48-.82-1-1.19.62-3.7,3.27-2.71,4.63,2.58,3.55,9.16-1,12-1.26l-.69-.87-3,3c-.2.2-.28.61,0,.75a49.3,49.3,0,0,0,10.6,3.06c.06-.37.11-.73.17-1.1a7.82,7.82,0,0,0-4.23,3.4c-.21.29.07.6.34.68,3.73,1.09,7.08.26,10.89,0l-.52-1c-1.26.72-2.46,1.51-3.72,2.23-.23.14-.51.53-.27.78,3.29,3.42,8.8,3.2,13.19,3.21,0-.37,0-.75-.05-1.13a23.7,23.7,0,0,0-3.94,2.35c-.48.37-.43,1,.27,1,3.39.08,7,.44,10,2.11a1.4,1.4,0,0,0,1.38-.14c3.51-2.3,6.11-5.34,9-8.33-.58-.05-.84-.1-1.84-.14V156c0,.45.56.6,1,.54,3.34-.49,4.77-3,7.54-4.72a7.17,7.17,0,0,1-1.49-.28v5.21c0,.47.4.57.79.54a9.19,9.19,0,0,0,6-2.64c-.59,0-.84-.09-1.84-.14v3c0,.47.51.58.9.54,3.3-.3,8.39-3.38,10.69-.57,1.66,2,5-.22,6.33,2.43.25.5.94.44,1.38.24a61.32,61.32,0,0,0,6.17-3.1l-1.51,0c2.09,3.64,6.77,2.76,10.32,2.49,2.74-.2,6,.49,8.59-.08,1.35-.29,3-.9,3.45.86a1.84,1.84,0,0,0,.84,1.31c.65.54,2.59.21,3.28-.12,1.15-.56,2.53-1.38,3.83-1.25s1.6,1.24,2.44,2c3.53,3.22,7.17,3,11.46,1.67l-1.13-.49c-1.22,5.32.43,4.86,4.05,8a1.07,1.07,0,0,0,1.05.18c2.08-.73,3.69,6.77,6.33,7.54,3.07.9,3.5.87,4,3.83.46,2.65,2.08,4.78,2.42,7.45.1.79,2,.32,1.93-.52-.28-2.2-1.4-3.93-2.23-6-.51-1.25-.47-3.1-.74-4.46-.16-.79-1.8-1.12-2.4-1.29-2.68-.77-3-1.68-4.67-4.14-.85-1.27-1.18-4.75-3.65-4-1.1.31-.86.05-2.46-1-2.54-1.62-2.36-2.92-1.7-5.76.13-.57-.81-.59-1.13-.49-2.75.84-5.87,1.41-8.06-.74a2,2,0,0,0-.89-.6c-1.81-.39-1.07-1.9-2.48-2.31a8.41,8.41,0,0,0-4.08,0c-2.16.49-3.63,1.75-4.58-1-.66-1.84-5.13-.2-6.05-.23-4.1-.1-13.57,2.5-16-1.71-.28-.48-1.18-.17-1.52,0a53.6,53.6,0,0,1-5.73,2.85l1.37.24c-.48-.93-1.07-2.32-2.37-2.33a11.51,11.51,0,0,0-1.65.1c-4.09.56-1.86-1.09-3.19-2.14-1.07-.85-2.77-.73-4-.39-2.45.66-6.61,3.58-6.61-.28,0-.91-1.38-.49-1.77-.14-4.44,4-3.45-.95-3.45-2.84,0-.81-1.17-.54-1.59-.28a16.41,16.41,0,0,0-3.12,2.52c-3.07,3.1-2-.21-2-2.24,0-.88-1.39-.53-1.77-.14-2.19,2.25-6,8.31-9.44,6.94a17.75,17.75,0,0,0-3.93-.95c-2.92-.43-5.57.76-1.06-1.54.56-.28.85-1.13-.05-1.13-2.09,0-4.15-.07-6.23-.28a13.08,13.08,0,0,1-4.41-1.23c-2.08-1,1.64-2.49,2-2.69.78-.45.11-1.05-.52-1-1.86.11-14.75,1.16-6.4-1.84.47-.17.89-1,.17-1.1-2.1-.42-4.18-.87-6.24-1.41A9.91,9.91,0,0,1,196,143.6l2.31-2.3c.53-.53-.19-.93-.69-.87a15.86,15.86,0,0,0-4,1c-1.07.47-2.17.89-3.28,1.28-4.67,1.57-2.35-2.88-1.34-3.4l-.82-1c-1.3.69-2.59,1.4-3.88,2.09a5.43,5.43,0,0,1-4.32.71,7.46,7.46,0,0,1,2-4.3c.75-.9-.9-1-1.41-.61-3.37,2.41-5.41,8.91-9.7,9.42l.81.71,2.24-4.47c.48-1-1.33-.69-1.71-.3-2.71,2.69-5.38,5.39-8.71,7.3a12.75,12.75,0,0,0,1.64.28v-5.95c0-.79-1.23-.59-1.64-.29-3.84,2.81-4.7,7.23-6.27,11.47l1.86-.19c-.29-1.81-1.2-3.4-1.49-5.21-.13-.81-1.63-.23-1.88.19a33.89,33.89,0,0,0-3,6.86l1.94-.35a25.36,25.36,0,0,1-.74-6.53c0-.88-1.65-.61-1.89,0-.92,2.51-2,4.93-3,7.44l1.82.15.63-1.33-1.71-.31c-1.4,2-2.9,4.26-5.68,4.65l.69.87c.91-1.14,1.65-2.68,2.81-3.58.66-.51.2-1.07-.52-1-2.31.19-11.38,2.39-4.91-.36,1.08-.45.35-1.3-.56-1.08-3.6.85-10.16,2.38-7.12-3.06.22-.4-.19-.71-.56-.71-1.51,0-3,0-4.5-.16-3.72-.27-2.54-.17-1.43-.93a6.78,6.78,0,0,0,2.83-5.07c.06-.46-.53-.57-.87-.54-2.56.23-4.9,1.2-7.44,1.49l.69.87a23.65,23.65,0,0,0,3.09-5.37c.19-.41-.16-.7-.56-.71-7.8-.23-8.86-5.27-11.29-11.53-.31-.79-2.23-.24-1.94.52Z"/><path class="cls-5" d="M332,190.55c4.1,4.75,4,12.51,3.49,18.45-.55,7-2.95,14.09-4.93,20.82a243.49,243.49,0,0,1-15.74,39.39l1.93-.39c-1.4-3.61-.72-7.34,0-11,.13-.68-1.81-.34-1.92.27-.73,3.78-1.44,7.59,0,11.29.26.67,1.71.05,1.93-.39a252.17,252.17,0,0,0,16.74-42.84c1.91-6.68,4.16-13.76,4.13-20.77,0-5.42-.16-11.3-3.81-15.52-.41-.47-2.25.21-1.8.73Z"/><path class="cls-5" d="M137.15,214.59c-3.9,4,.93,10.12,3.46,13.59,5.81,8,11.63,15.51,15.9,24.52a85.73,85.73,0,0,1,8.05,33.85,231.41,231.41,0,0,0,1.94,26.68c.1.65,2,.2,1.93-.51-2.69-18.32-.93-36.61-7.38-54.29-3.32-9.11-8.42-17.09-14-25-2.7-3.83-13.11-13.65-8.37-18.57.78-.81-1.11-.77-1.55-.31Z"/><path class="cls-5" d="M176.4,231.38c2.25,7.08,10.15,15.36,7.82,23.09-1.06,3.53-3,6.67-3.93,10.29-.8,3-1,6.18-1.68,9.24s-1.76,6-1.74,9.29c0,4.07.11,8.1,0,12.16-.08,4.82-.67,9.62-1,14.43-.18,2.78-.56,6.38.44,9,.24.64,2.15.06,1.93-.51-1-2.57-.51-7.73-.34-10.35.29-4.64.44-9.43,1-14,.39-3.21-.07-6.57-.16-9.78-.13-4.46,1.37-8.32,2.16-12.64.52-2.81.87-5.59,1.6-8.37,1-3.73,3.3-7,4-10.78.55-2.9-1-6.27-2.25-8.74-2.18-4.23-4.56-8.23-6-12.8-.2-.63-2.12-.09-1.93.52Z"/><path class="cls-5" d="M248.59,239.57c2.39,7.07,9.75,10.88,13.86,16.8,5.23,7.51,12,13.48,19.4,18.82,6.3,4.56,12.68,9.42,19.54,13.08,5.67,3,15.08,6.55,17.66,13,.36.91,2.28.37,1.93-.52-2.1-5.28-8.11-8.24-12.78-10.83-6.63-3.66-12.65-7.54-18.91-11.81-8.5-5.79-16.79-11.88-23.16-20-2.22-2.84-4-5.7-6.64-8.16-3.49-3.26-7.38-6.21-9-10.89-.32-.93-2.25-.4-1.94.52Z"/><path class="cls-5" d="M307.39,261.66c-1.9,6.59,6,13.45,10,17.66,3.5,3.73,7.92,6.17,11.92,9.31,5.33,4.2,4.79,9.8,3.16,15.64a293,293,0,0,0-7,31.52,37.68,37.68,0,0,1-1.72,7.77c-.38,1-2.21,4.2-1.43,5.25.42.56,2.29-.11,1.79-.77s1.9-5.56,2.21-6.43c1.1-3,1.13-6.43,1.68-9.61a300.57,300.57,0,0,1,6.76-29.35c1.07-3.82,1.36-7.24-.36-10.89-1.85-3.93-6.78-6.45-10.19-8.81-3.84-2.66-6.95-6.29-10-9.82-2.63-3.08-6.16-7.38-4.92-11.69.22-.74-1.73-.46-1.93.22Z"/><path class="cls-5" d="M319.05,301.31c.52,4.39-.91,8.56-1.73,12.82s-.51,8.77-1.14,13.1c-1.41,9.74-4.37,19.28-5.07,29.13a3.49,3.49,0,0,1,1.35-.5h-.33c-.66,0-2.07,1-.77,1h.33c.67,0,2.08-1,.77-1h-.33c-.66,0-2.07,1-.77,1h.33c.32,0,1.32-.32,1.35-.78.7-9.82,3.48-19.36,5.06-29.05.79-4.79.49-9.75,1.41-14.5.76-3.94,1.95-7.67,1.47-11.73-.07-.57-2-.17-1.93.51Z"/><path class="cls-5" d="M311.11,357c.72,7.55-1.77,15.09-1.54,22.65.07,2.31-.07,6.7,3.32,5.34,4.21-1.69,11.46-2.16,13.94-6.63s-.3-10.3-1.13-14.92l-1.71.83,2.24,1.39a1.16,1.16,0,0,0,1.72-.64c.32-2.46-.92-5.16-1.69-7.43-.66-2-3.32-7.06-2.12-9.07.57-1-1.4-1-1.86-.27-1.09,1.84.43,5,1,6.76,1,3,3.13,6.92,2.7,10.14l1.72-.65-2.23-1.39c-.6-.37-1.86,0-1.71.84.72,4,2.5,8.13,2,12.19-.65,5.27-9.24,5.75-13.2,7.41-1.42.59-.64-11.6-.47-13.06.52-4.63,1.4-9.33,1-14-.09-.94-2-.46-1.93.52Z"/><path class="cls-5" d="M319.58,261.91c1.47,7.44,2.5,15.12,4.79,22.36.13.4,2.05-.16,1.93-.52-2.28-7.24-3.32-14.92-4.79-22.36-.07-.35-2,.1-1.93.52Z"/><path class="cls-5" d="M315.89,298.79c-6.14,11.69-14.56,22-21.15,33.47-3.54,6.13-7.65,12-11.06,18.17-2.27,4.14-2.95,9.18-3.6,13.8-.34,2.39-.69,7.19,2.36,8.2,3.8,1.26,9-.4,12.38-2.22,6.18-3.32,2-9.3,1.11-14.21l-1.85.69a15.82,15.82,0,0,0,3.12,2.68,1.2,1.2,0,0,0,1.66-.45c1.33-2.58,1-5,.51-7.77-.9-5.06,1.21-7.93,4.08-11.66,4.2-5.47,8.72-11.55,14.26-15.74,1-.79-.51-1.54-1.3-.94-5.4,4.09-9.72,9.88-13.89,15.16-1.95,2.47-4.2,5-5.22,8-1.43,4.24,1.88,8.43-.29,12.66l1.67-.45a16.27,16.27,0,0,1-2.84-2.4c-.52-.63-2-.21-1.85.69,1.07,5.71,5.28,10.84-2.69,13.65-2.6.92-7.74,2.5-9.1-.81-.66-1.57-.34-3.6-.16-5.25A43.75,43.75,0,0,1,285,351.85c1.92-4.42,5.2-8.23,7.69-12.34,3.08-5.1,5.84-10.33,9.1-15.34,5.41-8.31,11.38-16.33,16-25.13.52-1-1.44-1-1.86-.25Z"/><path class="cls-5" d="M166.49,313.23c1.24,5.27.39,10.55,1,15.87.86,7,.33,14.19,1,21.26.58,6.37-.54,12.45-.41,18.78a47.85,47.85,0,0,0,3,15.56c.07.17.42.13.55.11,3.72-.39,7.21-2.62,10.11-4.84,4.76-3.66,1.16-10.36.88-15.25l-1.15.6c1-.2,2.81-1,3.65-.66.27.11,2.08-.16,1.88-.58-6.6-14.33-10.68-31.46-9.81-47.32,0-.26-1.9,0-1.93.52-.87,15.85,3.21,33,9.81,47.32L187,364c-1.69-.71-3.44.3-5.11.63-.24.05-1.17.22-1.15.6.18,3.18,1.08,6.24,1.49,9.39.54,4.2-2.55,6-5.75,7.86-2.29,1.33-3.5,1.66-4.28-.84-.51-1.64-.87-3.32-1.22-5a50.31,50.31,0,0,1-.85-13.36c.24-4,.74-7.72.45-11.77-.33-4.67-.68-9.28-.7-14,0-4.28-.65-8.48-.8-12.74s.32-8-.65-12.09c-.1-.41-2,.08-1.94.51Z"/><path class="cls-5" d="M148.12,255.2c3,19.12,1.21,38.45,1.73,57.7.13,4.78,1.38,9.47,1.61,14.25.25,5.08-1,10.4-1.65,15.42-1.26,9.34-3,19.55,1,28.47.21.46,2.08-.19,1.93-.51-3.76-8.44-2.39-18-1.22-26.89.6-4.52,1.23-9,1.76-13.57.61-5.38-.8-10.8-1.39-16.11-1.07-9.63,0-19.79,0-29.47a195.43,195.43,0,0,0-1.87-29.81c-.06-.37-2,0-1.93.52Z"/><path class="cls-5" d="M152.65,373c3.46-1.88,10.82-2.74,12.21-7.06,1.69-5.21-2.75-11.44-3.06-16.66,0-.59-2-.2-1.93.52.27,4.6,2.48,8.88,3.16,13.43.91,6.12-7.43,7-11.57,9.24-1.14.62.59.86,1.19.53Z"/><path class="cls-5" d="M151.82,351.53a3.23,3.23,0,0,0-.73,2.15c0,.14.28.18.36.19a13.6,13.6,0,0,0,10.35-2.29c.47-.33,0-.55-.35-.54a11.77,11.77,0,0,0-9,5c-.42.54.78.4,1,.35,3.46-.86,5.45-3.83,8.6-5.22,1.25-.55.08-.93-.71-.59-2.89,1.28-5,4.29-8.09,5.06l1,.34c1.63-2.1,3.62-3.91,6.42-4l-.36-.54a9.44,9.44,0,0,1-4.65,1.77c-1.32.13-3.48.13-2.06-1.72.45-.58-1.45-.34-1.76.07Z"/><path class="cls-5" d="M172.73,365.13a56.13,56.13,0,0,1,10.1-7.58c.51-.31.44-.84-.22-.81-4.66.22-8.49,2.71-12.06,5.52-.6.47.23.74.63.67,4.38-.71,8.47-2.5,12.84-3.21.91-.15,1.61-1.26.27-1-4.37.71-8.47,2.5-12.84,3.21.22.22.43.45.64.67,2.84-2.24,6-4.58,9.76-4.75l-.21-.81a58.42,58.42,0,0,0-10.45,7.83c-.81.78,1.1.73,1.54.3Z"/><path class="cls-5" d="M288,352.52V350c0,.24-.46.91-.92.91h9c-.06,0-.11-.52-.17-.72-1.62.91-3.47.23-5.06-.28-.4.28-.8.54-1.19.82,2.68-.06,5.09-.65,7.71.29.48.17,2.23-.57,1.57-.81-2.88-1-5.5-.45-8.47-.38-.23,0-1.93.6-1.19.84,2.63.84,5.27,1.22,7.77-.19.54-.3.44-.57-.16-.57h-9c-.36,0-.89.12-.89.61V353c0,.41,1,.1,1-.52Z"/><path class="cls-5" d="M314.51,361.86h3.82a2.66,2.66,0,0,0-1.26.54c3.22,0,6.41-.71,9.63-.76.4,0,2.2-.86,1.26-.85-3.22.06-6.41.41-9.63.46-.39,0-2.21.61-1.26.61h-2.56Z"/><path class="cls-5" d="M191,250.84c10.21,1.46,19.55,4.95,30,4.94,12.16,0,24.22-2,36.38-2.08.71,0,2.06-1.1.75-1.09-11,.09-21.86,1.52-32.82,2A68.1,68.1,0,0,1,208,253.34c-5.28-1.13-10.41-2.77-15.78-3.54-.61-.09-2.28.89-1.19,1Z"/><path class="cls-5" d="M161.46,266c-1,7.75-1.77,15.51-2.16,23.31-.32,6.46-1.44,16,2.25,21.75.45.71,2.3,0,1.77-.84-3.76-5.89-2.33-15.69-2-22.27.37-7.39,1.18-14.76,2.09-22.11.12-1-1.85-.69-1.95.16Z"/><path class="cls-5" d="M159.87,307.69a62,62,0,0,1,2.57,8.91c.64,4-.71,9-1.22,13.08-.94,7.57-.16,15-.82,22.57-.08.89,1.88.56,1.94-.2.67-7.55-.09-15,.83-22.57.45-3.74,1.49-7.89,1.3-11.66s-1.54-7.06-2.67-10.64c-.24-.78-2.17-.25-1.93.51Z"/><path class="cls-5" d="M137.49,162.13s6.32,4.19,7.37,4.93c2.42,1.74,4.76,3.6,7.22,5.29.4.28,2.17-.33,1.82-.67-5.07-4.73-11.55-7.45-17.48-10.92-.35-.21-2.18.22-1.81.67,3.42,4.32,7.63,7.64,12,10.92.41.31,2.16-.36,1.82-.67a30,30,0,0,0-9.95-5.51c-.31-.11-2.1.34-1.7.72,2.81,2.68,5.93,5,8.74,7.65l1.7-.72c-3.23-1.31-5.8-3.44-8.62-5.41-.33-.23-2.11.27-1.88.59a37.18,37.18,0,0,0,8.8,8.81l1.53-.74c-3.47-.36-6.46-2-9.66-3.25-.25-.1-2,.27-1.76.64,1.11,1.69,1.08,3.58,2.18,5.26.53-.22,1.06.14,1.59-.86h-2.18c-.16,0-1.84.48-1.59.86,1.28,1.92,1.41,4.24,3.34,5.71a3.83,3.83,0,0,1,1.53-.57h-3.28c-.24,0-1.74.11-1.59.59.6,1.84.5,3.59,1.09,5.43l1.38-.69a4.71,4.71,0,0,0-3.47,1.56.19.19,0,0,0-.09.19,17.18,17.18,0,0,0,5.52,6.63c.47.3,2.12-.48,1.81-.68-.92-.61-6.18-6.82-4.59-6.9.21,0,1.51-.25,1.38-.66-.6-1.84-.5-3.47-1.1-5.3-.53.22-1.06-.17-1.58.83h3.27c.18,0,2-.56,1.53-.91-1.95-1.49-2-3.69-3.22-5.57a4.41,4.41,0,0,1-1.58.48h2.18c.16,0,1.84-.18,1.59-.57-1.11-1.68-1.08-3.71-2.19-5.4-.58.21-1.17.46-1.75.67,3.38,1.28,6.37,2.95,10,3.32.22,0,2-.43,1.53-.74a36.38,36.38,0,0,1-8.67-8.66l-1.88.6c2.9,2,5.56,4.17,8.86,5.51.31.13,2.09-.35,1.69-.72-2.8-2.68-5.93-5-8.73-7.65l-1.7.73a29.07,29.07,0,0,1,9.71,5.4l1.82-.67c-4.38-3.28-8.6-6.61-12-10.92l-1.81.67c5.92,3.47,12.4,6.19,17.47,10.92l1.82-.67c-4.17-2.86-8.05-6.11-12.38-8.73-1.52-.93-4.23-2.42-5.79-.7-.43.47,1.43.23,1.76-.12Z"/><path class="cls-5" d="M322.39,187.57c3.63,6.37,7,12.69,7.74,20.1.32,3.19,0,4.85-2.19,7-2.45,2.45-5.64,4-7.54,6.94-1.43,2.18-1,5-1.79,7.39a50.49,50.49,0,0,1-4.08,8.28,20.78,20.78,0,0,0-2.82,7.31c-.63,5,.72,9.93-.23,15-.09.46,1.81.14,1.9-.34,1.4-7.34-1.1-14.09,2.46-21.15a81.38,81.38,0,0,0,4.1-8.33c1-2.76,1.13-5.79,2.37-8.45,1-2.24,5.6-5,7.6-7s2.16-2.25,2.22-5.53c.14-7.87-4-15.12-7.81-21.73-.28-.49-2.1.23-1.93.52Z"/></svg>