<svg id="layer1" xmlns="http://www.w3.org/2000/svg" viewBox="0 0 239.38 221.51"><defs><style>.cls-1{fill:#efb765;}.cls-2{fill:#e51f1f;}.cls-3{fill:#6d3e13;}.cls-4{fill:#55d867;}.cls-5{fill:#492d0c;}</style></defs><path class="cls-1" d="M168.83,85.93c-.13-.78-.28-1.54-.47-2.3a6.82,6.82,0,0,0-.67-2.4c-.36-1.09-.77-2.18-1.26-3.31a6.49,6.49,0,0,0-4.28-3.78C153.32,64.69,140.5,57.3,128.39,55a8.19,8.19,0,0,0-7.26,1.94,77.29,77.29,0,0,0-28.75-1.81c-17.92,2.22-41,10.69-44.7,30.89-.67,3.71.44,7.19,3.79,9.22a11,11,0,0,1,1.59,1.19,17.28,17.28,0,0,0,3.65,3.17,7.09,7.09,0,0,0,8.5-.15,17.83,17.83,0,0,0,3.89.33h0c14.58,3,28.64,1.37,43.16-1.25.71-.13,1.42-.32,2.14-.45a23.19,23.19,0,0,0,5.65,0,10.83,10.83,0,0,0,5-1.78c3-.4,5.94-.71,9-.86a4.81,4.81,0,0,1,.61,0l2,.34c2.15.39,4.3.83,6.44,1.26,5.06,1,13.24,4,19.08,2.39a7.46,7.46,0,0,0,7.12-7.77c0-.24,0-.47,0-.71A10.48,10.48,0,0,0,168.83,85.93Z"/><path class="cls-1" d="M156.83,128.87l-1.67.12a7.1,7.1,0,0,0-4.07.43,13.27,13.27,0,0,0-4.56,1.44c-3.34,2-3.68,6.14-6.9,8.22a4.55,4.55,0,0,1-2.87.26,6.81,6.81,0,0,0-4.26,1.24c-.3-.53-.63-1.06-1-1.58a9.56,9.56,0,0,0-2.32-2.41c-1.12-3.05-3.62-5.52-7.27-5.11-4.33.49-11,.47-13.23,5-.6,1.19-1.28,2.43-1.92,3.69a6.63,6.63,0,0,0-.75,1.12,15.42,15.42,0,0,0-1.13,3.17,15.11,15.11,0,0,0-.5,1.8,8.87,8.87,0,0,0,.06,4h-.64a38.28,38.28,0,0,1-6.95-.85A61,61,0,0,1,83,144.9a41.34,41.34,0,0,1-5.25-3q-1.59-1.91-3.37-3.69a7.66,7.66,0,0,0-9.74-1.1,8.94,8.94,0,0,0-1.51.63c-9.72-1.69-13.59,13.39-3.62,15.88l6.69,1.68a8.22,8.22,0,0,0,1.54.3c.13.11.27.2.4.32a7.91,7.91,0,0,0,3.55,1.78c7.64,4.57,17.3,7,25,8.13,6.79,1,15.8.73,22.17-2.61a9.76,9.76,0,0,0,2.1.29,37,37,0,0,0,15-2.6c11.45-3.14,22.16-9.19,27.9-19.8C166.55,136.09,163.22,128.39,156.83,128.87Z"/><path class="cls-2" d="M160.26,107.91a81.74,81.74,0,0,0-19.58,2.48,17.21,17.21,0,0,0-9.43,2.32c-9.06.72-18.17-.86-27.34-2a84.79,84.79,0,0,0-19.5-.38,97.28,97.28,0,0,0-12.68,2.49H61.66c-4.76,0-4.89,6.9-.41,7.33a3.71,3.71,0,0,0,4,1.52c1-.21,2-.49,3-.71a48.7,48.7,0,0,1,7.3-1,3.68,3.68,0,0,0,2.67-1.21c2.7-.53,5.4-1,8.14-1.25,6.7-.68,13.6.27,20.23,1.18,7.22,1,14.36,1.94,21.47,1.82a4.3,4.3,0,0,0,4.39.66c1-.44,2-.84,3-1.22a48.77,48.77,0,0,0,8.31-1.89,3.56,3.56,0,0,0,1.48-1,77,77,0,0,1,15-1.53C165.17,115.48,165.17,107.87,160.26,107.91Z"/><path class="cls-3" d="M166.37,101.81c-8.31-.53-16.57-1-24.84-.89a3.41,3.41,0,0,0-3.08-1.73,33.73,33.73,0,0,0-6.69.85c-5.47-1.29-9.48-.64-14.43,2.29a5.89,5.89,0,0,0-.55.38,16.29,16.29,0,0,0-4.43,2.22c-13.65.71-27.38,1.83-40.85-.06a3.51,3.51,0,0,0-2.86-1.1H66.7c-.59-1-1.39-1-2.42-1H60.77A20.71,20.71,0,0,1,57,102c-2.4-.54-5.25,1.06-5.25,3.62v3.49c0,2.08,2.16,3.82,4.23,3.81a41.5,41.5,0,0,0,11.16-1.1c14.56,2.43,29.45,1.45,44.18.73a3.41,3.41,0,0,0,1.75.37,30.09,30.09,0,0,0,4.69-.65c3.1-.12,6.22-.21,9.31-.22a3.52,3.52,0,0,0,3.62-3c11.89-1,23.73-.4,35.66.35C171.27,109.73,171.25,102.11,166.37,101.81Z"/><path class="cls-4" d="M186.62,126.76c-3.25-1.61-6.52-3.16-9.8-4.71a20.22,20.22,0,0,0-9-4.39c-1-.48-2-.94-3-1.37a4.07,4.07,0,0,0-4.17.55,3.17,3.17,0,0,0-.44-.12c-6.1-1.76-11.85-1.67-17.56,1.31A3.39,3.39,0,0,0,141,120a14.27,14.27,0,0,0-2,1.1,4.34,4.34,0,0,0-1.8.67l-.66.25c-1.25-2.23-4.56-2.24-6.18-.53-4.63-2.22-10.55-2.63-15.43-2.18a3.87,3.87,0,0,0-2.44,1.2,3.6,3.6,0,0,0-3.67-3.82,26,26,0,0,0-4.44.23c-7.06.17-14.09-.35-21,1.65a3.68,3.68,0,0,0-2.18,1.76,29.13,29.13,0,0,0-6,1.44l-1.43.34a35.16,35.16,0,0,0-16.59-1.24c-.1-.08-.19-.17-.3-.25-2.21-1.65-5-.94-7,.63a13.53,13.53,0,0,0-1.42,1.29,5,5,0,0,0-1.25-.17A12.48,12.48,0,0,0,40,124.65c-4.44,3.07-7.14,8.39-9.5,13.07-1.86,3.7,3,8,6,4.62s6.6-6.5,11-7.93c.35,4,6.72,5.53,7.48,1a1,1,0,0,1,.11-.27,27.56,27.56,0,0,0,11.31.55l2.22.64a3.61,3.61,0,0,0,4.22-1.82l2.21-.5.62.11C76,140,80,145.41,85.33,148.24a8.13,8.13,0,0,0,6.65.82c1.29,1.27,3.56,1.83,5,.82,3.25-.25,6.15-2.37,7.37-6.56.58-1.95.61-6-.08-10l13.64-3.9a4,4,0,0,0,2.4-.69l.77-.22a3.69,3.69,0,0,0,2-1.51c3.5.58,6.59,2.15,7.25,5.83a3.14,3.14,0,0,0,2.42,2.61l.58.92a3.84,3.84,0,0,0,7.1-1.92,13.2,13.2,0,0,1,.43-2.42,26.74,26.74,0,0,0,13.39-3.89,3.65,3.65,0,0,0,.54-.41,35.45,35.45,0,0,0,5.73-3.43,26.63,26.63,0,0,1,4.14.44l2,1c2.46,1.32,4.87,2.72,7.28,4.16a3.56,3.56,0,0,0,2.56.51c2.06,1,4.12,2,6.16,3C187.16,135.51,191,128.94,186.62,126.76Z"/><path class="cls-5" d="M46.15,93.44c-5.84-10.51,6.82-22,14.11-27.87C73.58,54.8,90.32,51.84,107.17,52.51c17.63.69,37.28,6.39,51.94,16.36,10.92,7.44,13.7,19.44,16.07,31.65.14.7,2.07.22,1.93-.52-2.59-13.35-5.77-24.8-17.54-32.82-16-10.86-37.91-15.89-57-15.93-15.51,0-30.66,3.6-43,13.23C51.93,70.51,38,82.83,44.22,94c.38.68,2.24,0,1.93-.51Z"/><path class="cls-5" d="M47.75,99.75c4.3,5,13.53,4.7,19.45,4.91,10.8.38,21.73,1.17,32.54,1,12.12-.21,23.66-5,35.62-6.38,6.39-.76,12.86,1.66,19,3a30.28,30.28,0,0,0,15-.37c1.19-.34.83-1.7-.36-1.36-10.82,3.09-20.87-2.56-31.65-2.85-10.1-.28-20.58,4.3-30.47,5.86-11.19,1.77-22.62-.24-33.87-.24-6.51,0-18.8,1.08-23.57-4.4-.59-.68-2.42.11-1.76.86Z"/><path class="cls-5" d="M51.27,106.54c-5.31,5.85-1.27,9.6,5.46,9.7,12.63.18,24.84-4.9,37.6-4.6,6.84.16,13.28,2.72,20,3.33,5.35.49,10.36-1.22,15.22-3.23,6.8-2.83,14-5,21.48-4.7,6.49.22,12.75,2.89,18.76,5.12a1.3,1.3,0,0,0,1.37-.36,14.18,14.18,0,0,0,2.46-8.8c0-1-1.95-.72-1.95.15,0,2.57.06,8-3.81,6.59-2.7-1-5.41-1.94-8.18-2.73a37.59,37.59,0,0,0-13.8-1.21,56.63,56.63,0,0,0-14.59,3.74c-7.26,2.75-13.17,4.83-21.09,3.37-5.84-1.08-11.33-2.78-17.35-2.72-6.9.08-13.64,1.26-20.41,2.49-4.5.82-9,1.7-13.6,2.07-5.68.47-11.17-2-6-7.64.82-.91-1-1.21-1.61-.57Z"/><path class="cls-5" d="M55,118.75c7.9,3.5,16.91,1.76,25.1.34a138.77,138.77,0,0,1,15.3-2.18c6-.36,12.11,1,18,2.07,10.8,1.91,21,2.3,31.39-1.53,4.5-1.65,9-3.68,13.82-3.68h7.12c1.13,0,1.46-1,.15-1h-1.08c-1.13,0-1.46,1-.15,1h1.08c1.13,0,1.46-1.3.15-1.3-5.48,0-10.36,0-15.68,1.59-5.86,1.77-11,4.29-17.22,4.9-5.81.57-11.66-.24-17.39-1.2-9.69-1.62-18.46-2.92-28.23-1.39-9.94,1.55-21.51,5.33-31.22,1-.85-.38-2.24.85-1.1,1.35Z"/><path class="cls-5" d="M48.47,119.34C36.73,123.1,29.52,132,29.27,144.42c0,.72.95.62,1.39.44A12.75,12.75,0,0,0,36,140.75a27.92,27.92,0,0,1,3.24-3.63c2.48-2.15,2.91-1.19,4.68.11,3.71,2.72,9.92.56,13.79-.48,7.25-2,14.24-3.67,19.31,3.35,2.35,3.26,2.27,7.44,5.64,10,5.76,4.44,22.36,4.31,23.1-5.14.5-6.43-.6-14.61,9.86-11.48,2,.61,3.55-.23,5.17-1.38,6.3-4.49,11.42,4,13,8.72.13.37.54.4.87.4,4.26,0,5.06-2.74,7.13-6.41,2.26-4,3.7-5.33,8.07-5.21a14,14,0,0,0,5.14-1.11c2.87-1,5.23-2.87,8.32-3.42,4.31-.76,6.57,2.07,8.92,4.93,3.63,4.42,12.12,4.3,17.09,5.55.51.13,1.7-.12,1.53-.88-2.2-10.09-14-13.83-19.91-21.17l-1.45,1,1.05,1c.4.79,2.3.2,1.93-.52a2.8,2.8,0,0,0-1.85-1.68c-.47-.15-2,.31-1.45,1,5.82,7.27,17.58,10.91,19.75,20.86l1.54-.88c-5.34-1.33-12.24-1.13-16.46-5.14-2.95-2.8-3.57-4.67-8-5.43-3.5-.6-6.94,1.32-9.92,2.82-3.32,1.68-5.9,1.49-9.53,1.15-.87-.09-1.77.73-2.32,1.24-2.75,2.55-5.66,11-9.05,11,.81,0-2.28-5.16-2.46-5.42a13.26,13.26,0,0,0-5.22-4.4,7.25,7.25,0,0,0-7.39.71c-2.74,1.9-4.77.81-7.79.4-1.33-.18-3,.7-4.12,1.24-5.65,2.69-4.13,8.3-4.52,13.35-.51,6.53-10.26,5.57-14.75,5s-6.64-2.86-8-6.83c-2-5.72-6.21-10.38-12.66-10.53-6.89-.16-19.35,7.74-24.52,1.12-.24-.31-.71-.27-1.05-.2-6.13,1.23-7.49,7.28-12.89,9.47l1.39.43c.23-11.55,6.49-20.13,17.57-23.68,1.16-.37.85-1.61-.32-1.23Z"/><path class="cls-5" d="M50,141.65c-.68,10.74,12.58,15.54,20.87,18.15a118.87,118.87,0,0,0,43.87,5.08,154,154,0,0,0,21.06-3c6-1.27,12.47-2.61,17.94-5.43,9.11-4.69,13.22-12.6,14.22-22.58.07-.75-1.87-.37-1.93.25-.9,9-4.23,16.61-12.39,21.24-5.4,3.06-12.09,4.25-18.09,5.6a135.24,135.24,0,0,1-22,2.95,116.85,116.85,0,0,1-37.95-4.09c-8.62-2.4-24.34-7.09-23.62-18.45,0-.76-1.89-.36-1.93.25Z"/><path class="cls-5" d="M45.86,85.65c-1.63,5.93,5.82,11.52,10.86,12.69.7.16,2.29-.89,1.15-1.16-4.62-1.07-11.56-6.3-10.07-11.74.22-.79-1.74-.52-1.94.21Z"/><path class="cls-5" d="M54.59,84.06c.22,5.07,4,10.12,7.91,13.16.42.33,2.12-.43,1.82-.66-3.84-3-7.58-8-7.8-13,0-.35-2,0-1.93.52Z"/><path class="cls-5" d="M62.44,90.17c1.1,3,3.58,5.32,6.17,7.09.55.37,2.29-.41,1.8-.74-2.51-1.72-5-3.94-6-6.87-.23-.64-2.15-.07-1.93.52Z"/><path class="cls-5" d="M72.61,94.75c.63,0,2.09-1,.79-1-.63,0-2.09,1-.79,1Z"/><path class="cls-5" d="M81.72,96.44l.87.87a1.15,1.15,0,0,0,1.31.14c.29-.14.81-.63.46-1l-.87-.88a1.16,1.16,0,0,0-1.31-.13c-.29.14-.81.63-.46,1Z"/><path class="cls-5" d="M147.3,66c7.43,6.61,14.9,14.53,18.1,24.15.29.85,2.21.31,1.94-.52-3.29-9.89-10.91-17.92-18.55-24.72-.6-.54-2.31.36-1.49,1.09Z"/><path class="cls-5" d="M148,75.42a138.56,138.56,0,0,1,9.6,11.34c.32.4,2.16-.25,1.81-.68a142.36,142.36,0,0,0-9.59-11.35c-.38-.38-2.17.33-1.82.69Z"/><path class="cls-5" d="M154.06,83.19a18.39,18.39,0,0,0,2.69,4.49c.51.54,2.35-.19,1.79-.78A17.33,17.33,0,0,1,156,82.67c-.36-.72-2.25-.12-1.93.52Z"/><path class="cls-5" d="M116.07,141.16c3.77.92,7.58,1.69,11.34,2.61.82.2,2.29-1,1.13-1.27-3.77-.93-7.58-1.7-11.35-2.62-.81-.2-2.29,1-1.12,1.28Z"/><path class="cls-5" d="M118.35,144.38c2.75,2.33,7.74,1.08,11,1,.72,0,2.06-1.1.76-1.08-2.79,0-7.64,1.25-9.95-.71-.52-.44-2.32.31-1.8.75Z"/><path class="cls-5" d="M119.16,148.77h12.21c1.09,0,1.5-1,.19-1H119.34c-1.08,0-1.49,1-.18,1Z"/><path class="cls-5" d="M115.72,153.92c11.69,5.28,25.4.32,36.36-4.59,1.16-.52-.67-.36-1.09-.18-10.22,4.58-22.57,9-33.44,4.14-.51-.23-2,.57-1.83.63Z"/></svg>