<svg id="layer1" xmlns="http://www.w3.org/2000/svg" viewBox="0 0 341.14 662.39"><defs><style>.cls-1{fill:#93e5a3;}.cls-2{fill:#423407;}</style></defs><path class="cls-1" d="M79.46,34.37a15.7,15.7,0,0,1,5.92,8.16c-.43.46-.4,1.11-.4,2v3.68c0,.45-3,1.26-3,2.26v3a3.62,3.62,0,0,0,1.61,2.41c0,.52-.2,1-.23,1.57A2.67,2.67,0,0,0,82,59.58v3.05c0,2.12,3.4,3.44,4.82,2.05A12.41,12.41,0,0,1,89,71.12v4.15h-.11s.77,1.82,1.68,2.11c4.16,18.45,3.2,37.64,7.06,56.17-.3,6.47-.49,13,2.2,18.94,1.38,3,5.92.42,4.55-2.6-2-4.4-1.9-9.55-1.59-14.62a2.6,2.6,0,0,0,.21-1v-.68h0a1.55,1.55,0,0,1,0-.23v-.76c0-2,.2-4.37.21-5.37H103v-.58a2.37,2.37,0,0,0-1.68-2.36c-2.66-18.24-2.1-37-7.42-54.76,0,0,0-.06,0-.09C93.42,65.29,92.23,61.66,89,59a19.22,19.22,0,0,0-.18-4A2.7,2.7,0,0,0,89,53.48V49.42a2.42,2.42,0,0,0,1.75-2.18A26.08,26.08,0,0,0,90.2,42a2.12,2.12,0,0,0,3.06-.21c.63-.77,1.82-3.55,2.72-3.55h0v-.51c2-.53,2-4.92,0-5.12v-.06s.08.69,0,.69h-.46a3.89,3.89,0,0,1,1.82-1.62,2.72,2.72,0,0,0-1.31-5c-5.87,0-11.45.15-16.56,3.32A2.56,2.56,0,0,0,79.46,34.37Zm10.33,3.44a.76.76,0,0,1-.08.11,2.92,2.92,0,0,0-.44.78c-.13-.3-.26-.59-.4-.89Zm-1.46-5.69a12.24,12.24,0,0,1-1.24.84,2.45,2.45,0,0,0-.81.75c-.25-.3-.51-.6-.78-.89A18,18,0,0,1,88.33,32.12Z"/><path class="cls-1" d="M118.9,126.24a32.91,32.91,0,0,1,4.6,1.23,6.85,6.85,0,0,0,.81.2h0l.69.11h.2l-.25.37a16.58,16.58,0,0,0-2.48,7.16c-.13,1.59.86,2.37,1.39,3.8a14.79,14.79,0,0,0,2,4.16c2,2.61,6.53,0,4.48-2.62-1-1.37-1.29-3-2-4.5s-.09-2.83.71-4.58c1.58-3.43,6.37-6.64,10.09-6.84,1.42-.08,2.93-1.13,2.93-2.6v-12.2c0-2.44-4-3.74-5.17-1.31-.86,1.85-1.63,3.78-2.38,5.68-2.24-1.51-4.42-3.16-6.57-4.8-1.61-1.28-3.25-2.41-4.49-3.34l0,0-.06,0c-2.81-1.93-5.23,2.51-2.63,4.48,2.81,2.13,7.53,5.11,8.62,8.72.39,1.29-9.16,1.69-10.36,1.7C115.47,121.07,115.65,125.87,118.9,126.24Z"/><path class="cls-1" d="M98.78,166.36c-.58-.42-1.19-.81-1.75-1.23a25.68,25.68,0,0,0-1.82-9.37c-1.07-2.47-4.84-1-4.84,1.38A75.62,75.62,0,0,0,92,174.64c.53,2.27,3.6,2.46,4.75.63a.35.35,0,0,1,.05-.08,2.68,2.68,0,0,0,2.13,1.31,16.47,16.47,0,0,1-2.09,5.31c-1.16,1.87.82,4.44,2.78,3.92-1,3-2,5.93-3,8.91a2.64,2.64,0,0,0,3.56,3.08c-.19,1-.37,2-.51,3-.21,1.58.65,3.36,2.51,3.29a14.46,14.46,0,0,0,4.69-1,43.16,43.16,0,0,0-1.19,9.09,2.61,2.61,0,0,0,3.46,2.43c-.11.48-.21,1-.31,1.45a2.75,2.75,0,0,0,.25,1.94c-1.91,4.78-3.92,9.53-6.09,14.22a2.59,2.59,0,0,0,2.46,3.83c-1.45,4.51-3.06,9-4.25,13.57a2.93,2.93,0,0,0,2.1,3.23,17.19,17.19,0,0,0-.26,2.86h0c0,.23-.22.45-.25.69-.32,2.91,4.52,3.56,5,.69a69.75,69.75,0,0,1,4-13.73c4.83-7.7,8.76-16,12.76-24.17A99.14,99.14,0,0,1,138,201.26v.17a2.4,2.4,0,0,0,3.7,2.15c1,9.13-1.14,18.36-3.92,27.06-1.2,3.75-2.61,7.43-4.09,11.07a2.25,2.25,0,0,0-2.35.18,27.53,27.53,0,0,0-2.42,1.79c0-.13.09-.25.13-.38.8-2.38-2.7-4.57-4.34-2.53-13.79,17.16-18.77,38.5-25.08,59.11-.83,2.74,2.46,4,4.35,2.53a39.84,39.84,0,0,0,9-10.12c-.3.85-.6,1.7-.89,2.55-5,14.27-9.77,28.63-14,43.17-.93,3.23,4.09,4.59,5,1.38,3.08-10.72,6.49-21.34,10.07-31.91a3.09,3.09,0,0,0,3.65-1.64c.07-.15.13-.3.19-.44a2.43,2.43,0,0,0,1.89.82,9.73,9.73,0,0,0,4.66-1.68q-1.16,3.87-2.15,7.78c-.68,2.59-1.28,5.22-1.77,7.87-.06.33-.13.66-.2,1h0s0,0,0,0a2.63,2.63,0,0,0,.63,2.26c-.22,1.28-.44,2.56-.63,3.84a3.92,3.92,0,0,0,0,.68l-.44,1.05a2.6,2.6,0,0,0-2.92-.23c-3.86,2.25-6.53,6.19-8.56,10.08-1.54,3,2.54,5.6,4.09,2.63.81-1.55,2.39-3.16,2.39-4.6v3.28a2.72,2.72,0,0,0,1.78,2.27A23.11,23.11,0,0,0,112,350a2.18,2.18,0,0,0-1.7,1.79c-1.45,6.26-1.6,12.59-1.6,19a2.39,2.39,0,0,0,.64,1.6c0,.13,0,.25-.08.38a124.45,124.45,0,0,0-3.51,12.58c-.72,3.26,4.05,4.6,5,1.38h0c.16-.56.55-1.11.71-1.66a2.76,2.76,0,0,0,4.54-2.15v-9.57c0,.2,1.73-.12,2.34-1.24.37-.68.61-1.37,1-2.06a3,3,0,0,0,3.7-1.61c.5-1.25.94-2.53,1.4-3.82l0,.06c-.29,3.58-.46,7.16-.48,10.69a2.62,2.62,0,0,0,4.84,1.32,53.53,53.53,0,0,0,2.87-5.84q-.07,1.5-.09,3c0,2.81,4.89,3.71,5.47.92.88.14,1-.13,3-.82v.39h-.7a2.36,2.36,0,0,0,1.73,2.05c-2.55,8.08-2,17-1.86,25.48a22.84,22.84,0,0,0-2.16-1.24,2.62,2.62,0,0,0-3.82,1.53c-1,4.06-1.65,9,1.39,12.45,2.69,3,6.94,3.51,10.76,3.41l.68,0c.41.46.83.92,1.29,1.35,4.47,4.22,10.73,3.38,14.81-.84a18.14,18.14,0,0,0,3-4.33A45.23,45.23,0,0,1,173.8,413c3.35-.05,3.36-5.24,0-5.19a41.6,41.6,0,0,0-6.47.65c.62-2.13,1.07-4.3,1.45-6.34a98.42,98.42,0,0,0,1.52-17.64c0-2.47-3.68-3.71-4.84-1.31-.71,1.46-1.35,3-1.94,4.46a107.74,107.74,0,0,0,.68-10.78c0-3-4.29-3.49-5.1-.69-1.87,6.45-4,12.82-6.39,19.11l.12-1.49A89.63,89.63,0,0,0,155,374.14s0,.13,0,.13h0v-.33c0-3.44-4.79-3.3-5.2-.08-.79,6.38-1.57,12.72-2.14,19.12-.18.74-.37,1.46-.57,2.2A178.53,178.53,0,0,0,149,375.33a2.38,2.38,0,0,0-1.09-2c.23-.43.47-.85.73-1.27a2.27,2.27,0,0,0-.19-2.85,34.37,34.37,0,0,0,.61-4,5,5,0,0,1,.91.21c.1.21.19.43.29.64a2.23,2.23,0,0,0,2.9,1.12,2,2,0,0,0,1.14.05,2.24,2.24,0,0,0,1.44-.75c.82-.93,1.41-2.19,2.8-2.29,3.32-.26,3.37-5.46,0-5.2a8.4,8.4,0,0,0-3,.72,2.62,2.62,0,0,0-.86-.45,10.21,10.21,0,0,1,1.07-2.93c.53-1,1.42-1.62,2-2.57.67-1.13.36-2.77.38-4,.07-6,.45-11.91.83-17.86.76-11.95,1.6-23.92.67-35.89a2.87,2.87,0,0,0-3.1-2.51c.62-6.78,1.1-13.57,1.58-20.33.21-2.91-4.54-3.58-5.1-.71a207.13,207.13,0,0,0-3.35,35.49c-.66,4.67-1.45,9.31-2.43,13.91.44-11.44,1.63-22.29,1.72-33.75,0-.13,0,.18,0,.18h0s0-.76,0-.86c0-3.35-5.17-3.63-5.2-.28-.08,10.62-1.81,20.93-3.5,31.39-1.18-.84-3-.92-3.77.64-.35.71-.68,1.4-1,2.12a93.56,93.56,0,0,0,1.28-20.69,2.76,2.76,0,0,0-3.92-2.31A95.14,95.14,0,0,1,136.65,286a2.26,2.26,0,0,0,.13-1.38,2.22,2.22,0,0,0,1.4-1.71c1.43-6.58,2.87-13.1,4.53-19.62,4.65-14.67,8.27-29.54,7.27-45.09h0v.07h.48c-.14-3-2.33-2.94-3.82-2.23a57.77,57.77,0,0,0,.39-9,2.65,2.65,0,0,0,4.61.3,101,101,0,0,0,12.19-21.19s0,.13,0,.13h0c.09,0,.18-.57.27-.77,1.17-2.86-3.21-4.4-4.75-2.08-.65,1-1.29,1.9-1.92,2.88.2-.81.39-1.65.57-2.46a2.73,2.73,0,0,0-.07-1.31c0-.08.05-.15.07-.23.28-1.62,1.24-3,1.52-4.58.49-2.79-3.17-4.68-4.75-2a146.87,146.87,0,0,0-8.94,18.58,2.84,2.84,0,0,0-1-2.53,99.63,99.63,0,0,0-.09-10.79,3.09,3.09,0,0,0,2.63-1.13c2.66-3.77.63-10.71.63-15v-.61h-.57c-.14-2-3.13-2.81-4.5-1.41a41.46,41.46,0,0,0-1.94-7.08c-1.23-2.83-5.11-.74-4.69,2a2.73,2.73,0,0,0-.06,1.64c.22.88.46,1.77.71,2.63l.12.6-.06,0c-2.39-1.84-5.18,2-3.15,4.08l4.57,4.58c.26.26.56,0,.86.13,0,.1,0-.1,0-.1h0c0,2,.8,1.47.8,1.78v.47c-2,4.49-1.93,9.45-1.93,14.18a2.18,2.18,0,0,0,1.85,2.4c0,1-.22,2.06-.33,3.09-7,4.91-12.62,12.45-17.34,19.82a3.06,3.06,0,0,0-1,.84,121.93,121.93,0,0,0-9.58,14.82,2.66,2.66,0,0,0-1.23-.67q2.86-6.66,5.42-13.42a63.05,63.05,0,0,0,7.82-17c4.07-9.26,6-19.19,8.4-29a2.6,2.6,0,0,0,0-1.42s0-.07,0-.11c1.06-3.19-4-4.54-5-1.38-.48,1.43-.95,2.86-1.42,4.3a2.09,2.09,0,0,0-1,.65c-6.07,7.19-12,15.88-15.62,25.18a14.49,14.49,0,0,1-3.75,2.32,62.45,62.45,0,0,1,2.1-7.55c4.84-6.52,7.72-14.49,12.19-21.37,1.6-2.45-2.2-5.45-4.08-3.15a82.2,82.2,0,0,0-5.78,8c.71-1.62,1.45-3.24,2.24-4.83a2.58,2.58,0,0,0-.68-3.27,2.14,2.14,0,0,0,2.2-1.31,37.9,37.9,0,0,0,2.41-6.54c1,.6,1.06.14,3.06-.85v1.05h.32c.15,3,5,3,5.12,0h.12s0-.7,0-.8a15.61,15.61,0,0,0,1.68,1.81c1.67,1.75,4,.26,4.32-1.63a2.16,2.16,0,0,0,.36,0,2.6,2.6,0,0,0,3.57-.11,2.64,2.64,0,0,0,0-3.69l-.19-.21-.06-.08a.24.24,0,0,1-.06-.09,4.25,4.25,0,0,1-.35-.58c0-.07-.09-.21-.11-.28h0a2.57,2.57,0,0,0-4.25-1.95l-.64-.51a28.67,28.67,0,0,0-4-2.81l-.06,0c-.32-.37-.65-.73-1-1.09a2.61,2.61,0,0,0-3.62,0,12.2,12.2,0,0,0-3.56-2.11c-1.6-.63-3.29.92-3.29,2.48,0,1.29,0,2.52.17,3.74a2.44,2.44,0,0,0-1.7,2.34,18.77,18.77,0,0,1-1.12,5.59c-.17-1.46-1.35-2.7-3.07-2C103.16,158,100.54,162,98.78,166.36Zm9,124.37c.42-1.44.84-2.88,1.27-4.32a2.8,2.8,0,0,0,.87,1C109.2,288.53,108.5,289.65,107.74,290.73ZM154.6,416.92a4.07,4.07,0,0,1-1.16,0c.45-.1.91-.19,1.36-.3a1.43,1.43,0,0,0,.23.26Zm-3-5.22c1.77-4.14,3.47-8.29,5.08-12.48-.62,4-1.28,8-1.82,12.06q-1.71.39-3.42.72A1.73,1.73,0,0,0,151.64,411.7Zm-11.59.46c-2.06-.67-2.59-2.53-2.55-4.51l.05.08c.79,1.5,2,2.28,3.14,3.51l.28.32a2.37,2.37,0,0,0,.74.86,1.83,1.83,0,0,0,.13.16A12,12,0,0,1,140.05,412.16Zm6.41-2,.36-.59c0,.27,0,.53,0,.8,0,.09,0,.19,0,.29Zm-3.88-68.63a2.6,2.6,0,0,0,4.75-.56c.87-2.5,1.73-5,2.45-7.56.07,4.82.2,9.63.2,14.43h0v.4h-.11a3,3,0,0,0,3.06,2.21c0,.37,0,.67,0,1a16.37,16.37,0,0,0-1.76,2.58c-.86-2.78-1.59-5.62-2.31-8.46-.66-2.66-4.17-2.28-5,0a32,32,0,0,0-1.55,6.31,36.87,36.87,0,0,0-1.79,5.85,2.23,2.23,0,0,0-.52.42l-.6.68C140.46,353.12,141.57,347.35,142.58,341.55Zm5-139.35q-.37,1.47-.69,3c-.07-.91-.16-1.81-.27-2.71A2.69,2.69,0,0,0,147.62,202.2Zm-17.27,47.19q-1.11,2.48-2.24,4.94a2.93,2.93,0,0,0-1.2-.52A28,28,0,0,1,130.35,249.39Zm-8.95,93.45a2.9,2.9,0,0,0-1.52-1.93c1.22-3.54,2.68-7,4.11-10.45,0,1.73-.06,3.47-.06,5.19a3,3,0,0,0,.17,1C123.21,338.74,122.3,340.79,121.4,342.84ZM138,331.69l.38-.52c-.26,2-.49,4-.69,6a2.18,2.18,0,0,0,.22,1.19c-.48,2.82-1,5.63-1.51,8.44a2.2,2.2,0,0,0-1.4,1.25,123.1,123.1,0,0,0-5,12.66c0-.14,0-.29,0-.43C132.78,350.78,135.21,341.19,138,331.69Zm6.65-135.64a2.76,2.76,0,0,0,.8-.7L145,196.4a2.83,2.83,0,0,0-.47-.29Zm.41,28.72c-.92,13.16-4.15,25.89-7.42,38.64-3.75,11.61-8.23,23.07-12,34.65a2.44,2.44,0,0,0-1.87.25c2.08-5.67,3.73-11.44,3.87-17.57a2.43,2.43,0,0,0-3-2.46c1.11-3.26,2.14-6.54,2.94-9.88,1-2.4,2-4.78,3.13-7.15C135.82,249.94,141.91,237.51,145,224.77Zm-31.5-26.17c.76-.71,1.49-1.47,2.18-2.24a54.91,54.91,0,0,0-4.21,9.5A46.47,46.47,0,0,1,113.52,198.6Zm-4.61-37.37a3.28,3.28,0,0,0,.66-.39L109,162a2.63,2.63,0,0,0,.76,3.35,2.68,2.68,0,0,0-2.43,1.22h0c-.74,1.57-1.84,3.31-2.78,5.06,0-1.23.1-2.48.1-3.74a2.46,2.46,0,0,0-.44-1.47C105.35,164.09,106.85,162.08,108.91,161.23Z"/><path class="cls-1" d="M81,466.83v2.84c0,3.34,3.67,3.66,4.5,1,.74-.29,1-.94,1.17-1.93,0,0-.05,0,0-.07,3.38-2,3.42-7.26,3.13-11.3,15.41.53,30.3-3.72,45.51-5.68a2.5,2.5,0,0,0,1.23.87c10.7,3.52,21.77,5.86,32.73,5.67a69.33,69.33,0,0,0,7.61.53,2.4,2.4,0,0,0,2.26-1.43,58.34,58.34,0,0,0,15.82-5c2.07-1,1.31-4.2-.76-4.74-2.25-.6-4.52-1.08-6.79-1.49q3.41-.53,6.79-1.13a2.67,2.67,0,0,0,1.89-3.2c-.51-2.22-2-2.82-3.69-4.19-2.35-2-5.67,1-4.12,3.16a293.63,293.63,0,0,1-46,3.7H142v0c0,.1-1.91.68-2.24,1.44-7.69-.64-15.7-1.43-23.6-1.11,3.94-1.09,7.81-1.48,11.83-2.48h-1v1.2c5-.18,5-5.07,0-5.17v-1h1c-9.25,0-18.46,1.22-27.68,1.09a139.36,139.36,0,0,1,16.88-4.93c.17,0,.35.14.52.15,7.17.19,14.92.24,21.66-2.48a2.59,2.59,0,0,0-.69-5.06c-7.13-.88-14.58.69-21.5,2.28l-.79.2-3.13-.11a2.38,2.38,0,0,0-1.73-1,3.08,3.08,0,0,0,.68-1.07l.6-1.65a2.6,2.6,0,0,0,3.31-.26,14.23,14.23,0,0,0,3.67-8.9c.36-.91.73-1.83,1.11-2.74A106.68,106.68,0,0,0,127.35,401c1.51-3-3.37-5.32-4.37-2.62h0c0,.39-.67.79-.94,1.19,1.14-2.62,2.33-5.21,3.73-7.72s-2-5.32-4.1-3.15a42.13,42.13,0,0,0-9.09,15.86,42.92,42.92,0,0,0-2.78,7.84c-4.94,3.23-8.76,8.69-11.45,13.88a6.83,6.83,0,0,0-.33,2H95.69c-.07,0-.14-1.13-.22-1.47a2.64,2.64,0,0,0-4.75-.79c-2.87,4.69-3.39,9.57-3.4,15,0,1.53,1.84,2.41,3.25,2.56.6.06-.59.06,2.41.11v.3a2.29,2.29,0,1,0,4.56,0c2.45.1,4.61.13,7.06.11-2.34.95-4.8,2-7.09,3-1.2.17-2.46.36-3.65.56a32.33,32.33,0,0,0-5.12.95c-2.91.59-5.81,1.25-8.64,2a2.62,2.62,0,0,0-.86,4.58c-1.8,3.1-1.07,7,.34,10.21C79.8,465.89,79,466.38,81,466.83Zm103.55-16a55.73,55.73,0,0,1-10.39,2c-5.44-1.31-10.95-2.51-16.49-3.44A160.73,160.73,0,0,1,184.53,450.81ZM108,420.73c-.26,1.42-.52,3.28-.79,4.66-.2,1,.1,2.88.65,2.88h-2.56c-.48,0-1-1-1.43-1.31A38.25,38.25,0,0,1,108,420.73Zm-11.31,13.5c0-.5-.09-1-.15-1.51,1.69,0,3.38.1,5.08.18-1.46.52-2.91,1.06-4.34,1.63A6.54,6.54,0,0,0,96.72,434.23Z"/><path class="cls-1" d="M65.73,485.84a46.41,46.41,0,0,0,11.94,6.44,2.54,2.54,0,0,0,.26,4.23,43.07,43.07,0,0,0,5.27,2.42,2.75,2.75,0,0,0,.83,3.69c7.92,5.75,25.62,13.93,33.65,4.81,1.06-1.2.92-3.16-.19-3.16h1.41c3,0,3.45-4.88.69-5.75-1.2-.38-2.43-1-3.68-1.33,3.28-.07,3.26-5.31-.06-5.35-4.25-.06-8.48-.64-12.69-1.11a54.93,54.93,0,0,0,14.64-3.1,93.54,93.54,0,0,0,20.09-3,2.62,2.62,0,0,0-.69-5.12c-2.42,0-4.86-.07-7.3-.17a2.61,2.61,0,0,0-3.16-4.06,44.7,44.7,0,0,1-9.88,3.32c-12.86-.84-25.84-1.72-38.44,0-.52-.16-1-.33-1.54-.51A2.18,2.18,0,0,0,74,479.27a72.46,72.46,0,0,0-7.64,1.82C64,481.78,64,484.53,65.73,485.84Zm38.87,18.84c1.36.28,2.73.58,4.08.91a16.74,16.74,0,0,1-4.11-.18A3.54,3.54,0,0,0,104.6,504.68ZM88,495.09c1.78.33,3.57.59,5.37.81l-1.48.24q-2-.43-4-1.05Z"/><path class="cls-1" d="M191.65,273.11c0-2.52-3-3.05-4.42-1.71-.23-1.54-.42-3.09-.54-4.64-.22-2.68-.88-8.23,2.15-9.68s.38-5.95-2.62-4.51c-8.55,4.1-4.18,20-2.77,26.8,1.35,6.44,3.07,12.79,4.71,19.16,1.15,4.46,2.7,9.28,2.85,13.93,0,.24,0,.81,0,.81h0c.38,4,4.83,4,5.13,0h0s0-.23,0-.31,0-.11,0-.15C196.08,299.43,191.8,286.49,191.65,273.11Z"/><path class="cls-1" d="M175.88,215.86c.91,2.71,5.12,2.32,5.1-.7l0-1.29a28.64,28.64,0,0,0,3.23,4.23A39.11,39.11,0,0,1,190,238h0v.23h-.46c.08,0,.92,2,1.91,2.24-.09.44-.17.85-.27,1.29l0,.15c-.65,3.25,4.24,4.38,5,1.41h0a.34.34,0,0,1,0-.09c.12-.54.24-1.1.34-1.65.36-1.39,1-3,2.06-3.09s1.4,2.37,1.52,4.08a87.52,87.52,0,0,0-2.95,19.83,2.34,2.34,0,0,0,.12.81v0c-.72,2.14,1.8,3.78,3.53,3.17a2.53,2.53,0,0,0,3.1-2.48,18.89,18.89,0,0,1,1.17-7.84,2.67,2.67,0,0,0-.08-2.35,40.15,40.15,0,0,0,.43-5.06,2.29,2.29,0,0,0-.92-2c.06-.29,0-.57,0-.86a2.33,2.33,0,0,0,.49-1.73v-.87h.4a.38.38,0,0,1-.4-.42v-.24c0-.24.13-.47.07-.68-.46-3.66-1.89-8.19-6.12-8.58a5.7,5.7,0,0,0-1.44.06c.11-1.62.2-3.24.23-4.88.06-3.56.18-5.15-2.26-7.59a2.61,2.61,0,0,0-4.1.67c-.06-.15-.13-.3-.2-.46a2.6,2.6,0,0,0,.4-2.1c-1.68-7.25-6.42-12.81-11.94-17.47a46,46,0,0,0-5.1-13.66c-1-1.78-4.41-1.7-4.74.62-1.32,9.2,1.19,17.31,4.57,25.78A2.69,2.69,0,0,0,175.88,215.86Zm5.36-5.52a3.84,3.84,0,0,0-.41.56c0-.37,0-.75-.07-1.12C180.92,210,181.09,210.15,181.24,210.34Z"/><path class="cls-1" d="M69.55,616.89c.35,2.32.74,4.63,1.14,6.93a2.85,2.85,0,0,0,.37-1.65c.4-.1.81-.2,1.22-.32a2.61,2.61,0,0,0-.68-5.11c-.69,0-1.38,0-2.07,0C69.54,616.76,69.54,616.82,69.55,616.89Z"/><path class="cls-1" d="M79.55,621.18A39.63,39.63,0,0,0,83.67,617c9,1.08,18.3,1.77,27.31,2.78-.94,1.45-1,4,2,4v.45h.64a129.18,129.18,0,0,1-19.05,1.38,2.41,2.41,0,0,1-.59-.12v0s-.39.07-.56.14c15.29-.16,30.59-.18,45.88.45a33,33,0,0,1,2.5-5.77c-1.29-.21-2.59-.39-3.88-.55a2.33,2.33,0,0,0-1.45-1c-11.58-2.83-23.36-4-35.16-5.15a130.44,130.44,0,0,0,21.34-6,2.83,2.83,0,0,0,1.77-2.24c2.3-.25,3.43-3.68,1.11-4.82A71.09,71.09,0,0,0,105.21,594a18.81,18.81,0,0,1,7.53-2.43c2.14-.12,3.61-2.81,1.84-4.44a24.92,24.92,0,0,0-4.36-3.11c9.44-4.2,19.76-7.58,28.76-11.23v9.93c0,2.85,4.75,3.66,5.2.7l-.06-.7H144v-.2c1-1.23.62-2.47.81-3.7a2.78,2.78,0,0,0,4-1.51,64.78,64.78,0,0,0,2.16-9.16,2.17,2.17,0,0,0,1.22-1.2c-.11,5.28-.71,10.63-.76,15.77,0,3.36,5.18,3.35,5.21,0,.1-12.33,2.75-25-3.41-36.38a2.66,2.66,0,0,0-2.91-1.19q.51-7.15,1.1-14.31c.25-2.53.47-5,.67-7.51.26-3.29-4.75-3.07-5.18-.07h0c-.6,8-1.82,15.18-2.82,22.76V529.35a2.49,2.49,0,0,0-4.9-.69c-2.16,7.89-2.71,16.05-4,24.09-1.31-7.48-.42-15.4,1.51-22.51,0,0,.08,0,.08,0h0v-.13c.89-3.26-3.84-4.46-5-1.41l0,0c0,.07,0,.13,0,.21-.17.47-.33.94-.49,1.42a2.74,2.74,0,0,0-4.12,2.1c-1.26,11.35-2.2,23.24-5.88,34.17-1.51-9.22-1.13-18.93-1.13-28.1a2.69,2.69,0,0,0-2.69-2.55c.35-1,.7-1.92,1.07-2.87,1-2.4-2.71-4.47-4.34-2.52a35.92,35.92,0,0,0-5.26,8.42,115.58,115.58,0,0,1,2-16.57,2.62,2.62,0,0,0-3.81-2.94,24.24,24.24,0,0,0-9.07,8.86c.25-1.42.48-2.83.68-4.25.32-2.3-2.41-4.77-4.34-2.6-.7.79-1.36,1.61-2,2.44.18-3.78.31-7.57.33-11.36,0-2.47-3.68-3.55-4.84-1.16-7.85,16.14-8.07,34.13-7.37,52.13-.58,6.63-.77,13.27-.79,19.91-3.2,11.77-5.16,23.81-4.4,35.89A2.62,2.62,0,0,0,79.55,621.18ZM152,560.52a51.11,51.11,0,0,1,.2,5.11,3,3,0,0,0-.66-1.17C151.66,563.15,151.82,561.84,152,560.52Zm-26.19,8.29c1.07,1.92,4.5,1.46,4.86-1.54H130v.29c1-2.75.93-5.51,1.19-8.28a37.68,37.68,0,0,0,2.1,5c1,2.09,4.13,1.41,4.68-.63a17.67,17.67,0,0,0,1-4.56v8.29c-5,1.9-9.83,3.62-14.81,5.48C124.69,571.52,125.32,570.13,125.77,568.81Zm-10.48-6.65a66.53,66.53,0,0,0,2.5,13.22c-2.85,1.11-5.68,2.26-8.48,3.48,0-1.6,0-3.2.11-4.8A41.82,41.82,0,0,0,115.29,562.16Zm-6-2.31c1.34-3.53,2.52-7.13,3.65-10.74-.44,2.22-.94,4.44-1.5,6.64-.45,1.74-.94,3.54-1.51,5.31a3.58,3.58,0,0,0-.68-.47C109.28,560.35,109.29,560.1,109.31,559.85ZM88.09,610.6c.62-1,1.2-2.16,1.75-3.22.13,0,.26-.11.39-.11H104.3C98.94,609.27,93.51,609.68,88.09,610.6ZM100.15,591a49.13,49.13,0,0,0,2.15-4.45,2.67,2.67,0,0,0,1.24.43,8.94,8.94,0,0,1,3,.86A50,50,0,0,0,100.15,591Zm3.57-55c-.26,3.37-.44,6.74-.59,10.12a96.1,96.1,0,0,0-4.33,12.5C99.38,551,100.68,543,103.72,535.94Zm-4,41.87c-.27,1-.56,2-.88,3,0-.07,0-.13,0-.2l.54-2.35C99.53,578.11,99.64,578,99.76,577.81Zm-4,14.53a2.5,2.5,0,0,0,1,.5l-1.43.76C95.53,593.18,95.66,592.76,95.78,592.34Zm-1.46,4.6a2.59,2.59,0,0,0,2.31,1.54,57.84,57.84,0,0,1,15.61,2.38c-6.65.58-13.3,1.36-20,1.58Q93.38,599.72,94.32,596.94Zm-1.16-28.38q0,4.25.24,8.48c-.38.35-.77.69-1.17,1,0-.91,0-1.83,0-2.75C92.52,573.05,92.84,570.81,93.16,568.56Zm-2.6,16.67a3,3,0,0,0,.67-.25c.49-.26,1-.54,1.44-.83a104.51,104.51,0,0,1-6.32,18.94A155.94,155.94,0,0,0,90.56,585.23ZM80.32,608.89a2.61,2.61,0,0,0,2.4.72c-.79,1.2-1.65,2.34-2.55,3.45C80.18,611.66,80.24,610.27,80.32,608.89Z"/><path class="cls-1" d="M67,580.75c3.31,0,3.31-5.11,0-5.19h-.08C67,577.29,67,579,67,580.75Z"/><path class="cls-2" d="M142.76,125.74c-1,3-3,4.54-5.87,5.8a10.64,10.64,0,0,0-3.53,2.29c-1.82,1.92-4,5.17-3.26,7.92.15.52,2.08,0,1.93-.52-1.17-4.12,3.49-8.16,6.65-9.61s4.87-2.94,6-6.19c.16-.48-1.73-.24-1.92.31Z"/><path class="cls-2" d="M144.11,128.41c1.95.48,3.49,1.8,5.34,2.53s4.52,1.38,5.51,3.41c.91,1.88,0,5.16,1.82,6.55.57.44,2.36-.33,1.79-.77-1.07-.83-1-2.92-1.19-4.14a5.37,5.37,0,0,0-2-3.92c-1.44-1.25-3.36-1.7-5.09-2.39s-3.12-1.91-5-2.37c-.66-.17-2.28.82-1.17,1.1Z"/><path class="cls-2" d="M148.26,136.07c0-.15,0,.06-.07.15-.18.42.15.68.56.7.8,0,1.24-.42,1.92-.74a3.25,3.25,0,0,1,2.54.06l.42-1.17a3.36,3.36,0,0,0-1.62,1,.47.47,0,0,0,.22.82,1.49,1.49,0,0,0,1.37-.37,1.1,1.1,0,0,1,.34-.3c.55-.13,1.25-.86.41-1.16a6.13,6.13,0,0,0-5.73.87l1-.26h-.14l.56.7a4.73,4.73,0,0,0,.2-.48c.2-.84-1.76-.57-2,.19Z"/><path class="cls-2" d="M148,137.21c.15.61,1.15.72,1.66.83a13.49,13.49,0,0,0,2.46.24,1.1,1.1,0,0,0,1.07-.76c.06-.51-.53-.61-.89-.61a11.83,11.83,0,0,1-1.51-.17c-.21,0-.43-.07-.64-.12l-.33-.1c-.18-.06.07,0,.11.17-.22-.88-2.16-.36-1.93.52Z"/><path class="cls-2" d="M148.8,135.88c-3.2.74-2.87,6-2.15,8.46.17.59,2.1.06,1.93-.51a12.31,12.31,0,0,1-.34-3.2c0-.53,0-3.73.78-3.92,1.17-.27.93-1.09-.22-.83Z"/><path class="cls-2" d="M143,137.52c-1.39-1.23-8.91-2-7.7,1.31.28.76,2.2.2,1.93-.52-.33-.9.69-.69,1.41-.65a4.63,4.63,0,0,1,2.58.66c.57.5,2.38-.26,1.78-.8Z"/><path class="cls-2" d="M136.88,139.27h3.89c.46,0,1,0,1.27-.44s-.19-.56-.56-.56h-3.9c-.45,0-1,0-1.26.43s.19.57.56.57Z"/><path class="cls-2" d="M142.18,145.13c.39.32.93.58,1.3.88.42-.33.84-.74,1.25-.74h-.32s0,.45,0,.8a3,3,0,0,1,1.19-.3,1.55,1.55,0,0,0,1.27-.6c.23-.39-.2-.68-.55-.68a6.52,6.52,0,0,0-2.7.6c-.58.26-.85,1.18,0,1.18H144a1.94,1.94,0,0,0,1-.41c.18-.12.56-.57.28-.8s-.93-.38-1.29-.68a1.25,1.25,0,0,0-1.29-.08c-.22.1-.86.53-.5.83Z"/><path class="cls-2" d="M143.72,149.11a2.73,2.73,0,0,1,2.27-.38c.14-.49.27-1.46.4-1.46h-2.27c-.75,0-1.56,1-.62,1.41a5.83,5.83,0,0,0,2.42.38c1.13,0,1.45-1.5.15-1.5a3.61,3.61,0,0,1-1.47-.49c-.21.48-.42,1.2-.63,1.2h2.27c.94,0,1.53-1,.4-1.26a5.45,5.45,0,0,0-4.22,1,.7.7,0,0,0-.09,1.11,1.24,1.24,0,0,0,1.39,0Z"/><path class="cls-2" d="M141.8,150c2.64,0,4.9.41,7.46-.49,1.29-.45.07-.78-.69-.51-1.82.63-3.66.19-5.53.16a2.33,2.33,0,0,0-1.36.37c-.3.2-.27.47.12.47Z"/><path class="cls-2" d="M134.21,151.76c2.35,1.63,3.17,4,5.89,5.13a11.15,11.15,0,0,0,7,.48c4.21-1.36,9.05-4.15,10-8.83.18-.91-1.79-.64-1.95.17-.79,4-5.44,7-9.25,7.57-5.14.82-6.71-3.23-10.12-5.59-.66-.45-2.38.46-1.5,1.07Z"/><path class="cls-2" d="M157.36,141.42a7.14,7.14,0,0,0,.14,2.65c.19.53.53.49.25,1.14s-.44,1.11-.7,1.65c-.1.22,1.68.11,1.9-.36.35-.75.63-1.53,1-2.27a.09.09,0,0,0,0-.14c-.94-.76-.62-2.13-.6-3.18,0-.23-1.92,0-1.93.51Z"/><path class="cls-2" d="M129.68,130.11c4.9-5.62,12-7.89,19.35-6.87,6.77.94,9.55,6.37,12.94,11.47.3.45,2.18-.15,1.8-.72-2.13-3.2-4.05-7.55-7.58-9.48a21,21,0,0,0-10.78-2.5,23.82,23.82,0,0,0-17.51,8.14c-.49.56,1.42.37,1.78,0Z"/><path class="cls-2" d="M128.78,132.47v-1.82c.07-.74-1.8-.32-1.93.26.53.85.64.7.32-.45a11.79,11.79,0,0,1,.2-3.5,10.91,10.91,0,0,1,2.57-5c3.2-3.83,8.81-5.1,13.56-5.29a22.59,22.59,0,0,1,11.35,2.57c5.5,2.87,6.66,8.67,6.73,14.39,0,.54,1.94.18,1.93-.52-.08-6.72-1.77-12-7.9-15.18-4.36-2.28-9.66-2.58-14.46-2-9.06,1-17.51,7.15-15.6,17.09,0,.23.42.26.58.26,1.62,0,2.31-1.08,2.65-2.59l-1.93.26a5,5,0,0,0,0,2.07c.1.6,2,.15,1.93-.51Z"/><path class="cls-2" d="M126.51,130.34c.35-10.17,8.9-16.16,18.64-16,11.5.21,17,9.51,17.73,19.92,0,.65,2,.24,1.93-.52-.43-5.9-1.84-12.79-7-16.44a22.07,22.07,0,0,0-14.36-4.06c-9.73.78-18.5,6.92-18.85,17.31,0,.82,1.91.43,1.93-.23Z"/><path class="cls-2" d="M139,117.53v3.9c0,1,1.59.84,1.84.07a11.54,11.54,0,0,0,.67-3.44l-2,.12a11.67,11.67,0,0,0,1,4.74c.35.75,1.95.6,1.95-.32a18.82,18.82,0,0,0-.43-4.09c-.19-.87-2-.51-2,.32v1.3c0,1.06,2,.8,2-.12v-1.3c-1,.11-1.23.21-1.88.32a17,17,0,0,1,.34,3.7l2-.32a10.71,10.71,0,0,1-1-4.35c0-1.06-1.94-.81-2,.12a10.16,10.16,0,0,1-.51,3c.64,0,1,0,2,.07v-3.89c0-1.06-2-.8-2,.12Z"/><path class="cls-2" d="M136.33,118.1c-.83,1.47-.54,3.59-.17,5.15.15.64,1.82.21,1.82-.38V119c0-.89-1.59-.3-1.82.23a8.63,8.63,0,0,0-.06,5c.13.65,1.88.21,1.88-.38V121.9c0-.82-2-.4-2,.24v1.94a20.2,20.2,0,0,0,2.08-.38c-.31-1.55-.73-3.22-.07-4.72-.65.07-1,.15-2,.23v3.9c1-.13,1.43-.25,2.08-.38-.32-1.32-.71-3.32,0-4.59.45-.8-1.42-.6-1.73,0Z"/><path class="cls-2" d="M132.05,121c0,1.22.59,2.34.64,3.57,0,.7,1.94.33,1.94-.36a6.4,6.4,0,0,0-.73-3.55c-.35-.58-2.17,0-1.85.66a19.45,19.45,0,0,1,1.29,4.54c.16.78,2.1.29,1.93-.51a19.39,19.39,0,0,0-1.29-4.55l-1.86.66a5.45,5.45,0,0,1,.57,3l1.93-.36c0-1.23-.59-2.35-.64-3.57,0-.74-2-.32-1.93.52Z"/><path class="cls-2" d="M129.81,121.7c-1.31.88-.09,3,.29,4.14.25.75,2,.22,1.93-.51a9.35,9.35,0,0,0-.88-2.28c-.22-.65-2.17-.27-2.17.37v2c0,.86,2,.46,2-.22v-2a6.79,6.79,0,0,1-1.73.37,8.9,8.9,0,0,1,.75,2.27l2-.51c-.19-.57-.38-1.12-.56-1.69a7.75,7.75,0,0,1-.21-.83,1.84,1.84,0,0,1-.05-.41c0-.24.14-.26-.14-.06.27-.19.58-.59.16-.81a1.46,1.46,0,0,0-1.37.17Z"/><path class="cls-2" d="M126.85,125.84a10.38,10.38,0,0,0,1.7,3.07c.35.51,1.89.17,1.87-.5a4.41,4.41,0,0,0-1.39-2.9c-.4-.42-1.86-.24-1.86.49a2.9,2.9,0,0,0,.41,1.94c.49.6,2.34-.12,1.78-.81a2.06,2.06,0,0,1-.24-1.32l-1.87.5a3.73,3.73,0,0,1,1.22,2.29l1.86-.5a9.34,9.34,0,0,1-1.55-2.77c-.21-.8-2.14-.28-1.93.51Z"/><path class="cls-2" d="M125.23,129v.32c0,.84,1.93.43,1.93-.23v-.32c0-.84-1.93-.43-1.93.23Z"/><path class="cls-2" d="M143.54,117.74c-.74-.26-2,.17-2,1a8.7,8.7,0,0,0,.61,2.84c.14.44,1.82,0,1.92-.42a18.68,18.68,0,0,0,.66-4l-1.93.52c.26,1.18,0,2.81,1,3.64.42.33,2.11-.43,1.81-.66-1-.75-.67-2.42-.91-3.5-.1-.43-1.93,0-1.93.52a17.65,17.65,0,0,1-.64,3.81l1.92-.43c-.17-.52-.31-1-.43-1.59q-.09-.42-.15-.84c0-.14,0-.28,0-.42s.15-.23-.26,0l-1.19.26h0a2.07,2.07,0,0,0,1.35-.25c.2-.09.64-.36.24-.51Z"/><path class="cls-2" d="M147,118.1c-.69,1.21-.41,2.54-.39,3.87,0,.23.44.3.59.3h.32a1.47,1.47,0,0,0,1.35-.69,10.08,10.08,0,0,0,.65-4.36c0-.58-1.37-.15-1.57,0-1.81,1.07-1.66,3.58-1.67,5.41,0,.59,1.94.23,1.94-.52,0-1.11-.21-3.65.93-4.33l-1.57,0a9.54,9.54,0,0,1-.65,4.14c.45-.22.9-.6,1.35-.6H148a1.52,1.52,0,0,1,.59.22c0-1.08-.31-2.33.26-3.32.45-.79-1.49-.61-1.8-.07Z"/><path class="cls-2" d="M151.89,119.33c-.68,1.17-.4,2.47-.38,3.75,0,1,1.77.58,2-.18a17.4,17.4,0,0,0,.32-3.82c0-.34-.28-.81-.63-.81h-.32a1.44,1.44,0,0,0-1.32,1,18,18,0,0,0-.33,4c0,1,1.95.69,1.95-.12a15.94,15.94,0,0,1,.33-3.77c-.44.25-.88.88-1.32.88h.32c-.21,0-.42-.48-.63-.67a14.84,14.84,0,0,1-.32,3.52c.65-.05,1.3-.14,2-.19,0-1.12-.33-2.4.26-3.41.25-.42-.21-.72-.57-.75a1.32,1.32,0,0,0-1.26.56Z"/><path class="cls-2" d="M155.15,121.34a2.81,2.81,0,0,0-.38,2.56c.22.78,1.72.1,1.93-.38s.32-1.22.58-1.8l-1.87.09a10.06,10.06,0,0,0-.65,2.92c0,.83,1.92.43,1.94-.23a10.06,10.06,0,0,1,.65-2.92c.23-.71-1.64-.43-1.87.08-.31.68-.41,1.42-.72,2.1l1.94-.38a2.12,2.12,0,0,1,.26-2c.31-.37-.27-.59-.54-.6a1.59,1.59,0,0,0-1.27.54Z"/><path class="cls-2" d="M158.35,123.8c-.32.73-.34,1.54-.65,2.27-.2.46,1.61,0,1.83-.22a6.66,6.66,0,0,0,1.05-2.7c.15-.5-1.68,0-1.91.33a7.76,7.76,0,0,0-1,4c0,.34,1.92.07,1.93-.51a7.39,7.39,0,0,1,1-3.8l-1.91.33a6.3,6.3,0,0,1-.89,2.49l1.83-.23c.31-.73.33-1.54.65-2.27.15-.35-1.69-.17-1.91.33Z"/><path class="cls-2" d="M160.28,126c-.21.66-.67,2.54.39,2.75a1.53,1.53,0,0,0,1.36-.37.43.43,0,0,0-.2-.78c.24,0,.22.21.17-.06a1.61,1.61,0,0,1,0-.44,4.81,4.81,0,0,1,.24-1.3c.14-.45-.6-.53-.86-.5a1.21,1.21,0,0,0-1.08.7Z"/><path class="cls-2" d="M160.5,126.46c1.45,1,.66,3.54.15,4.87-.39,1,1.55,1,1.84.2.72-1.88,1.49-4.79-.5-6.17-.67-.47-2.38.48-1.49,1.1Z"/><path class="cls-2" d="M152.17,114.92c2.23.11,4.5-3,5.91-4.27,1.92-1.78,3.85-3.56,5.82-5.3,1.4-1.24,3-2.91,4.71-3.68l-1.5.08c-1.88,6.54-7.75,10.41-11.36,15.9-.1.16,1.6.1,1.91-.36,3.6-5.49,9.47-9.35,11.35-15.9.13-.44-1.35,0-1.5.08-2.76,1.21-5.11,3.82-7.31,5.81-1.59,1.44-3.16,2.9-4.74,4.35-.62.58-1.25,1.15-1.87,1.71l-.84.73c-.7.6-.48.05.69.11-.38,0-2.2.7-1.27.74Z"/><path class="cls-2" d="M141.72,112.21l-.41.16,1.34.28c.36-2.52.24-5.11.61-7.66.54-3.68.35-7.76,1.1-11.33l-1.93.38a74.64,74.64,0,0,1,2.92,13.3c.34,2.33.16,5.23,2,6.94.5.46,2.31-.28,1.79-.76-2-1.84-1.73-5.7-2.09-8.2a67.27,67.27,0,0,0-2.71-11.8c-.22-.66-1.81-.19-1.93.38-.69,3.28-.37,6.72-.91,10.07-.47,3-.38,6-.8,8.92-.09.64,1.06.39,1.35.27l.41-.16c1.26-.49.11-1.14-.76-.79Z"/><path class="cls-2" d="M132.3,116.16c-4.23-4.22-9.87-7.35-12.93-12.58l-1.87.6c2.66,2.07,5.51,3.84,8.26,5.78s5.32,4.11,8.29,5.58c.53.26,2.11-.54,1.82-.68a57,57,0,0,1-8.29-5.58c-2.71-2-5.61-3.71-8.27-5.78-.32-.25-2.1.2-1.87.6,3.11,5.3,8.76,8.46,13,12.74.38.38,2.17-.33,1.82-.68Z"/><path class="cls-2" d="M126.92,121a71.55,71.55,0,0,1-9.37-.37c-1.61-.13-4.62-.87-6.15-.1-.42.21-.82.82-.31,1.18l.41.28c.74.51,2.41-.5,1.48-1.15l-.41-.28-.3,1.17c.5-.25,2.9.23,3.56.28,1.43.1,2.87.23,4.3.34a52.53,52.53,0,0,0,6.64.13c1.11-.05,1.47-1.54.15-1.48Z"/><path class="cls-2" d="M111.89,124.68c1.89-1.3,6.18.19,8.15.63s3.85,1,5.81,1.25c.88.12,2-1.12.69-1.3-4.45-.61-11.7-4.25-15.9-1.36-1.08.74.53,1.27,1.25.78Z"/><path class="cls-2" d="M125.93,129.27c-2.82,0-6.76.75-9.35-.57-.54-.28-2.32.51-1.54.91,2.87,1.46,7,.74,10.12.72.7,0,2.07-1.06.77-1.06Z"/><path class="cls-2" d="M117,134.66a85.79,85.79,0,0,0,8.76-.64c1-.11,1.53-1.43.2-1.29a82.66,82.66,0,0,1-8.76.65c-1,0-1.52,1.3-.2,1.28Z"/><path class="cls-2" d="M160,120.71c2.83-1,6.22-.76,9.2-1.45,1.88-.43,3.72-1,5.57-1.54.57-.18,6.85-1.68,4.9-.78-3.58,1.65-7.21,3.22-10.83,4.76-1.9.8-4,1.49-5.55,2.94-.51.48,1.39.32,1.78,0,1.82-1.74,5.23-2.58,7.54-3.63,3.65-1.65,7.37-3.15,11-4.9.59-.28.4-.68-.18-.69-4.06,0-7.8,1.25-11.66,2.4-4.08,1.22-8.49.86-12.46,2.31-1.29.47-.09.92.72.63Z"/><path class="cls-2" d="M163.81,128.16c7.34.73,16-.29,22.64,3.13l1.11-1.14a58,58,0,0,0-10.46.49c-2.38.37-8.55,2.51-10.42.71-.56-.54-2.39.22-1.78.8,1.69,1.63,4.53,1,6.61.67a84,84,0,0,1,15.34-1.42c.39,0,2-.67,1.12-1.13-7-3.61-15.77-2.6-23.45-3.36-.84-.09-2,1.12-.71,1.25Z"/><path class="cls-2" d="M160.92,135.39a5.62,5.62,0,0,0,2.51,5.69c0-.34.06-.68.1-1-.72.61-2.15.69-2.56,1.63s1.51,1,1.85.23q-.39.33,0,.09c.25-.12.52-.22.78-.33a4.48,4.48,0,0,0,1.18-.73c.31-.26.51-.72.1-1a4.56,4.56,0,0,1-2-4.7c.12-1-1.85-.74-2,.14Z"/><path class="cls-2" d="M162.9,142.27h-1a1.43,1.43,0,0,0-1.26.66c-.55,1.4.21,2.92-.33,4.27s-2.32,1.11-3.46,1.46c.1.39.21.8.32,1.2a4.32,4.32,0,0,0,3.08-3.28c.2-.7-1.08-.54-1.38-.4a2.73,2.73,0,0,0-1.53,3.35c.21.82,2.15.3,1.93-.51-.14-.55-.24-1.53.42-1.84l-1.38-.41a2.39,2.39,0,0,1-1.46,1.91c-1.16.36-.86,1.54.32,1.19,1.36-.41,3-.27,4.11-1.31a3.79,3.79,0,0,0,1.13-2c.24-1.12-.38-2.5.06-3.62a3.15,3.15,0,0,1-1.27.33h1c.46,0,1,0,1.26-.43s-.18-.57-.56-.57Z"/><path class="cls-2" d="M161.25,146c.22,4.08,1.45,8,1.95,12l1.93-.51c-.53-1.65-.21-1.09-1.36-2.4-.43-.48-1.7-.07-1.87.5a15.32,15.32,0,0,0-.32,5c0,.59,1.35.2,1.57,0,.5-.35.63-.44.69-1.06l-1.94.37c.79,3.47,1.74,6.85,2.21,10.39.09.65,1.87.22,1.87-.38v-1.62a17.52,17.52,0,0,0-1.87.37,8,8,0,0,1,.68,1.63c.24.7,2.18.14,2-.52a7.91,7.91,0,0,0-.74-1.62c-.27-.59-2-.28-2,.37v1.62c1-.12,1.39-.25,2-.37-.47-3.53-1.44-6.92-2.22-10.39-.15-.67-1.86-.21-1.91.38,0,.08,0,.15.05.23l1.58,0a14.66,14.66,0,0,1,.32-4.72l-1.86.5L163.2,158c.23.7,2,.2,1.93-.51-.5-4-1.72-7.93-1.94-12,0-.65-2-.25-1.94.52Z"/><path class="cls-2" d="M158.82,160.7c-1.77,2.23,1,6,1.46,8.31.17.85,2.09.35,1.93-.52a45.53,45.53,0,0,0-1.62-6.17c-.27-.84-2.2-.3-1.93.52a28.54,28.54,0,0,0,2.57,6.65c.35.57,1.75.19,1.75-.5v-7.14a8.56,8.56,0,0,1-1.83.34c.51,2.59,1.89,4.95,2.65,7.47.25.84,2.21.31,1.95-.52-.75-2.52-2.19-4.88-2.71-7.46-.16-.8-2.06-.39-2.06.34v7.14a15.53,15.53,0,0,0,2-.5,26.78,26.78,0,0,1-2.45-6.34l-1.9.52a47.13,47.13,0,0,1,1.64,6.17l1.93-.52a22.11,22.11,0,0,0-1.13-3.36c-.33-.89-1.35-3-.65-3.91s-1.08-1.16-1.6-.52Z"/><path class="cls-2" d="M155.42,152.35c-2.08,5.39-1.69,11.73-.65,17.31.09.49,2,0,1.93-.52-1-5.53-1.42-11.77.64-17.1.17-.44-1.71-.23-1.92.31Z"/><path class="cls-2" d="M133.34,152.46c0,3.66.3,7.4-1,10.91-.21.56,1.71.31,1.92-.27,1.29-3.58,1-7.42,1-11.16,0-.51-1.93-.17-1.93.52Z"/><path class="cls-2" d="M111.28,125.84c.42,1.59,1.38,2,2.65,3,2.21,1.73,2.48,5.5,2.68,8a18.25,18.25,0,0,0,1.6,6.24c1,2.39-2.09,4-3,5.65-2.64,4.52-5.75,10.54-9.86,13.94-1.5,1.25-9,6.81-10,3.83-.18-.57-2.1,0-1.94.51,1.66,5.4,13.53-4,15.25-6.11a80.45,80.45,0,0,0,6.79-9.71c.86-1.42,5.22-5.48,4.89-7.41a24.69,24.69,0,0,0-1.63-4.55c-.59-1.56-.26-4.07-.48-5.76a9.36,9.36,0,0,0-1.55-4.12c-1-1.38-3-2.33-3.48-4.07-.15-.56-2.08,0-1.93.51Z"/><path class="cls-2" d="M96.36,147.49c-2.17,3.17-.57,9.16,3.79,9,.55,0,2.1-.89.82-.85-3.81.12-4.27-6.2-2.7-8.5.18-.26-1.58-.17-1.91.32Z"/><path class="cls-2" d="M96.16,138.74c-5.52.84-8.17,8.87-8.59,13.6-.18,2.08,1.8,2.2.41,4.41s-2.92,3-3.15,5.81c-.28,3.19,3.19,4.51,5.71,4.73.54,0,2.26-.88,1.21-1-5.16-.44-6.26-4.92-2.8-8.46,1.31-1.34,2.07-2.48,1.12-4.11-1.85-3.18,2.05-13.49,5.8-14.06.87-.13,1.64-1.16.29-.95Z"/><path class="cls-2" d="M97.85,161.8c3.18,1.95,6.33-1.67,8.2-3.86,4.26-5,6.25-10.83,7.49-17.2l-2,.19c-.39,5.94-5.22,11.57-9.71,15.11l1.42.61c2.34-2.69,4.43-5.56,6.5-8.45s4.74-5.64,5.69-9.08c.22-.83-1.74-.57-1.95.19-.79,2.87-3,5.16-4.7,7.53-2.3,3.18-4.55,6.38-7.13,9.35-.75.86.91,1,1.42.6,4.75-3.76,10-9.72,10.41-16,.06-.93-1.8-.54-2,.19a40.18,40.18,0,0,1-4.62,13.2c-1,1.63-5.26,8.07-7.6,6.64-.64-.39-2.39.5-1.52,1Z"/><path class="cls-2" d="M113.87,135.26c.09,2.59.52,5-.3,7.49s-2.76,4.87-4.18,7.16c-.47.77,1.47.57,1.8,0,1.34-2.16,3-4.23,4-6.59,1.23-3,.76-5.47.65-8.62,0-.61-2-.23-1.93.52Z"/><path class="cls-2" d="M118.41,148.56c-.17,4.56-3.2,9.19-6.91,11.71l1.62,0a29.6,29.6,0,0,1,3.89-4.54c.44-.38-1.39-.19-1.75.12a30.15,30.15,0,0,0-3.9,4.54c-.45.59,1.39.14,1.62,0,4-2.69,7.18-7.44,7.37-12.31,0-.32-1.91-.06-1.94.52Z"/><path class="cls-2" d="M112.59,161.13c-3.81,6.62-11.32,9.2-15.58,15.25-.21.3.71.22.77.21a11.68,11.68,0,0,0,7.62-5.08c.16-.27-1.61-.16-1.9.33a8.83,8.83,0,0,1-5.36,4l.77.21c2.28-3.24,6-5.51,9.08-7.93a25,25,0,0,0,6.5-7.32c.16-.28-1.62-.16-1.9.33Z"/><path class="cls-2" d="M96.74,171.27H95.45c-.36,0-1.47.17-1.47.66v.32c0,.08.14.13.23.15,2.35,1,2.9,1.17,1.39,3.43-.86,1.29-2.22,2.73-1.93,4.39.48,2.66,6-1.22,6.66-1.66l-1.72.19c.44,1.62,0,2.42-.63,3.78-.1.21.22.27.34.29a5.35,5.35,0,0,0,2.07,0l-.8-.15c.08,1.35-.77,2.61-.32,3.89.13.4,1.08.12,1.31,0,1.71-.75,2.41-2.06,3.45-3.56.42-.6-1.47-.33-1.76.08-.67,1-1.27,2.44-2.39,2.93l1.32,0c-.41-1.18.39-2.61.32-3.9,0-.27-.67-.17-.8-.15a1.17,1.17,0,0,1,0-1.69,3,3,0,0,0-.15-2.05c-.14-.52-1.48,0-1.72.19l-1.52,1.07-1.68-.85a6.4,6.4,0,0,1,.94-1.67c.64-.95,1.29-1.89,1.89-2.87,1.16-1.9-2.45-1.45-2.45-2.61-.46.23-.92.78-1.37.78h1.29c.58,0,2.1-1,.81-1Z"/><path class="cls-2" d="M121.07,154.73c-1.65,4.12-2.4,8.23-4.73,12.09-2.61,4.35-6.71,7.74-10.41,11.13-.81.74.76.86,1.2.69,4.34-1.71,12.2-7.16,11.79-12.49-.14-1.85-2.31-2.33-3.66-1.49a12,12,0,0,0-4.64,6.46c-.23.76,1.32.47,1.59.26,1.59-1.26,2.43-2.81,3.74-4.36l-1.7-.28c-.21.54-.43,1.08-.65,1.63-.38.95,1.55.79,1.82.12s.44-1.08.65-1.63c.38-.94-1.32-.72-1.7-.27-1.12,1.32-2,3-3.4,4.08l1.59.25a13.33,13.33,0,0,1,2.42-4.23c1-1.28,2.16-.32,2,1.1a8,8,0,0,1-1.92,3.27,22.76,22.76,0,0,1-8.7,6.63l1.19.69a77.93,77.93,0,0,0,9.77-10.13c3.15-4.18,3.72-8.67,5.61-13.39.38-1-1.55-.8-1.82-.13Z"/><path class="cls-2" d="M120.45,169.27h-1a1.29,1.29,0,0,0-1,.63c-2.12,6.27-2.75,12.92-4.86,19.18-2.45,7.23-7,13.65-11.57,19.65l1.77.17C106,201,115,196.62,114.51,187.81c0-.37-.27-.54-.63-.57-5-.54-7.07,7-9,10.31-.54.91,1.43.81,1.84.17,1.31-2,2.57-4.12,3.89-6.16.56-.87-1.41-.83-1.83-.18-1.32,2.05-2.58,4.13-3.9,6.17l1.84.17c1.06-1.77,1.89-3.68,2.89-5.49.2-.38,3-3.65,3.07-3a11.09,11.09,0,0,1-1.59,5.45c-2.65,5.18-7.59,8.61-9.19,14.4-.23.86,1.48.55,1.78.16a88.55,88.55,0,0,0,10.58-16.79A48.83,48.83,0,0,0,117,184c.33-1.34,2.1-13.3,3.26-13.3s1.52-1.38.2-1.38Z"/><path class="cls-2" d="M107.79,184.71c-1.3,1.19-1.72,2.88-2.67,4.33-1.23,1.87-3,3.32-4.22,5.19-.22.33,1.56.06,1.83-.22a10.92,10.92,0,0,0,1.38-1.73c.22-.35-1.57-.06-1.84.22-1.33,1.39-2.47,2.78-2.68,4.75,0,.23.71.14.79.12a2.94,2.94,0,0,0,2-1.09c.41-.51-1.46-.26-1.76.12s-.34.4.08.2l.79.13a7.5,7.5,0,0,1,2.51-4.34l-1.83.22a7.41,7.41,0,0,1-1.22,1.51l1.83-.22c1.1-1.66,2.6-3,3.81-4.59s1.54-3.44,2.93-4.72c.44-.4-1.4-.2-1.76.12Z"/><path class="cls-2" d="M97.09,200.31c-1.08,1.16-.85,2.3.63,2.89a6.16,6.16,0,0,0,4.69-.25l-1.43,0a2.39,2.39,0,0,0-.86,2.42c.37,1,1.86,1.12,2.73,1.15a2.63,2.63,0,0,0,1.37-.37c.31-.19.25-.41-.12-.42-2-.06-2.78-1.41-1.37-2.93.48-.51-1.26-.12-1.43-.05a3.09,3.09,0,0,1-2.34-.43c-.93-.53-.76-1.42-.13-2.11.4-.43-1.43-.19-1.74.15Z"/><path class="cls-2" d="M121.09,149.38c1.46,2.89,5.36,2.49,5.1,6.78,0,.74,1,.74,1.41.52,2.28-1.08,2.53,2.7,3.07,3.73,1.89,3.59.28,6.16-1.18,9.57-2.53,5.89-5.38,11.67-8.11,17.47-.47,1,1.31,1,1.73.42a190.31,190.31,0,0,0,12.77-19.32c.54-1-1.42-1-1.85-.24a187.79,187.79,0,0,1-12.54,19l1.74.42q3.51-7.44,7-14.89c1.41-3,3.11-6.25,3.53-9.58a4.14,4.14,0,0,0-.69-2.46c-.66-1.25-1-3.78-1.92-4.95-1.24-1.64-2.78-1.08-4.42-.3l1.41.52c.07-1.18.21-2.63-.63-3.62-1.16-1.33-3.91-2.4-4.66-3.89-.4-.79-2.23-.06-1.77.86Z"/><path class="cls-2" d="M135.92,166.87c-.21-.6-.79-1.12-.81-1.77,0-1-2.13-.65-2.13.17v1c0,.57.88.68,1.32.54a5.05,5.05,0,0,0,1.47-.52,2.54,2.54,0,0,0,.77-1.49l-1.93.17a4.08,4.08,0,0,0,1.86,3.38c.66.45,2.39-.47,1.51-1.08a3,3,0,0,1-1.4-2.47c0-1-1.76-.59-2,.17a4.84,4.84,0,0,1-.14.51c-.08.26-.06.09.22-.06s0,0-.11,0-.46.08-.61.13c.38.18,1,.36,1,.54v-1c0,.05-1.15.11-1.8.17a2.92,2.92,0,0,0,.24,1c.15.37.4.7.53,1.08.3.83,2.26.29,2-.52Z"/><path class="cls-2" d="M124.9,147.77c-.35,1-.94,1.91-1.3,2.92-.11.33.39.45.6.46a1.52,1.52,0,0,0,1.27-.54,15.47,15.47,0,0,1,1.83-2.13c.29-.29.22-.63-.19-.72a1.59,1.59,0,0,0-1.37.37,17,17,0,0,0-2.07,2.41l1.87-.08c.36-1,.94-1.91,1.3-2.92.15-.43-.62-.47-.84-.45a1.3,1.3,0,0,0-1.1.68Z"/><path class="cls-2" d="M128.54,142.42c-1.23,2.37,2,4.48,3.89,5.14.65.23,2.26-.71,1.17-1.1-1.25-.45-4.12-2.28-3.25-4,.44-.86-1.5-.67-1.81-.08Z"/><path class="cls-2" d="M127.63,134.94c-3.34.9-2.13,7-.23,8.75.69.62,2.34-.38,1.48-1.16a5.2,5.2,0,0,1-1.18-3c-.08-.44-.36-3,.31-3.21,1.2-.32.82-1.73-.38-1.41Z"/><path class="cls-2" d="M128.78,150.31c0,1.2-.28,2.38-.32,3.57s1.58.74,1.91.07a18.81,18.81,0,0,0,1.67-4.41l-2,.12c0,1.86-.34,3.94.75,5.57.42.62,1.85.28,1.86-.5a.84.84,0,0,1,.16-.59c.76-1-1.06-1.38-1.63-.63a2.06,2.06,0,0,0-.49,1.35l1.86-.5c-.91-1.37-.56-3.26-.55-4.82,0-1.1-1.77-.74-2,.12a17.2,17.2,0,0,1-1.57,4l1.91.07c0-1.2.3-2.37.33-3.57s-1.94-.81-2,.12Z"/><path class="cls-2" d="M131.07,153.76a6.46,6.46,0,0,1,.32,2.44c0,.34.29.49.61.49,1.75,0,2.23-1.41,2.89-2.82l-1.87.21c.22,2.16-.58,4.2-.65,6.34,0,.87,1.91.5,1.94-.21.07-2.25.88-4.37.64-6.65-.08-.72-1.67-.21-1.87.21a7.81,7.81,0,0,1-1.18,2c.38-.13.77-.51,1.15-.51h-.33c.21,0,.41.44.61.6a7,7,0,0,0-.33-2.69c-.29-.74-2.2-.12-1.93.58Z"/><path class="cls-2" d="M139.53,169.58c-.52,2,1.11,5.25,3.45,5.23a6.92,6.92,0,0,0,2.6-.69c1.86-.77,2.13,1.21,3.56,1.37a5.23,5.23,0,0,0,2.33-.14c1.18-.33,1.34.06,2.6.41,2,.58,3.36-.92,4.56-2.32.06-.08-1.54-.07-1.9.36-1.37,1.61-2.28.13-3.94.45a7.07,7.07,0,0,0-1.34.46c-1,.39-1.55-.67-2.27-1.08a4.63,4.63,0,0,0-3.22-.19c-1,.19-1.67.95-2.8.17a4.78,4.78,0,0,1-1.74-4.39c.09-.33-1.78-.08-1.89.36Z"/><path class="cls-2" d="M157,173.72c-.85,6.91-9.95,12.76-15,16.71S132,198.64,128.2,204.06l1.89,0c1.71-4.73,7.76-8.46,11.31-11.81a78.66,78.66,0,0,0,9.4-10.42c.57-.78-1.4-.72-1.83-.13-3.74,5.08-8.31,9.35-12.92,13.63-3,2.76-6.48,5-7.91,8.92-.3.85,1.6.39,1.89,0,4.82-7,11.79-11.71,18.25-17,4.18-3.44,10-7.9,10.69-13.65.11-.88-1.85-.56-1.94.2Z"/><path class="cls-2" d="M151.32,177.14c-3.76,1.06-6.06,5.33-9,7.68-3.4,2.7-7.42,5.49-8.92,9.77-.25.7.56,1,1.12.82,4-1.08,7-4.24,10.19-6.72,1-.8-.5-1.55-1.29-.94-2.89,2.24-5.66,5.29-9.28,6.27l1.12.82c1.29-3.7,4.64-6.14,7.6-8.48a32,32,0,0,0,3.65-3c1.53-1.65,2.92-4.16,5.21-4.81,1.19-.33.82-1.73-.38-1.39Z"/><path class="cls-2" d="M159.36,177.77a94.76,94.76,0,0,1-9,13.86c-2.39,3-4.67,6-5.62,9.67-.2.79,1.3.47,1.59.26,4-2.88,6.85-6.73,9.91-10.52.74-.93-1.11-1-1.58-.44-3,3.67-5.71,7.46-9.57,10.25l1.59.26c1.24-4.83,4.86-8.45,7.83-12.28a83.82,83.82,0,0,0,6.71-10.93c.49-.88-1.46-.76-1.82-.13Z"/><path class="cls-2" d="M161.91,179.6a41,41,0,0,0-1.41,3.89c-.25.77-1.17,2.59-.71,3.29.17.25.8.13,1,.06a4.92,4.92,0,0,1,.55-.14c1.17-.27.92-1.12-.23-.85a5.54,5.54,0,0,0-.55.14l1,.07c-.11-.16.33-1.2.38-1.38.19-.65.39-1.3.59-2,.37-1.15.79-2.29,1.26-3.41.22-.53-1.68-.31-1.92.28Z"/><path class="cls-2" d="M164.5,175.66c-1,4.28,7.49,3.87,9.16,6.15.44.6,1.66.06,1.86-.5a4.78,4.78,0,0,0,.33-1.62c0-.91-1.92-.55-1.94.19a4.78,4.78,0,0,1-.33,1.63l1.86-.5c-1.51-2.07-9.75-2.21-9-5.54.19-.84-1.77-.56-1.94.19Z"/><path class="cls-2" d="M168.73,177l0,.08a.1.1,0,0,0,0,.15c.3.32,1.06.3,1.45.35a7.59,7.59,0,0,1,2.52.76,5.46,5.46,0,0,1,2.82,4.26c.06.36,2,0,1.94-.52a5.93,5.93,0,0,0-2.63-4.22,7.48,7.48,0,0,0-2.05-.83c-.18,0-2.15-.4-2.16-.38.13-.3-1.7-.13-1.9.35Z"/><path class="cls-2" d="M91.2,51.38c-2,0-5.53-.55-7.46.59-2.55,1.5-.2,3,.8,4.78.6,1-.38,2.33-.54,3.36a.77.77,0,0,0,.2.62c.88.73.59,1.54.09,2.53a3.08,3.08,0,0,0,2.9,4.42c.69,0,2.07-1.07.77-1-3.47.08-1.28-4.42-.72-5.77.06-.14-.08-.28-.19-.33C85.42,59.91,87,57,86,55.43c-.42-.62-2.26-2.61-1.06-2.81a35.31,35.31,0,0,1,5.54-.19c.69,0,2.07-1,.76-1Z"/><path class="cls-2" d="M86.53,49.93c-.91-1.11-4.11-5.22-1.51-6.14.17-.06.84-.41.54-.68s-.94-.08-1.27,0c-3.94,1.39-1.36,5.31.43,7.49.37.45,2.22-.21,1.81-.71Z"/><path class="cls-2" d="M96.14,50.51c-2-1.07-3.65,0-3,2.24a12.45,12.45,0,0,0,2.25,3.81c1.74,2.35,3,4.49,2.62,7.5-.07.67,1.87.28,1.93-.28.3-2.9-.68-5.08-2.34-7.39a22.31,22.31,0,0,1-2.18-3.26,7.2,7.2,0,0,1-.47-1.35,2.49,2.49,0,0,1-.07-1c-.91.14-1,.33-.25.56.48.26,2.27-.47,1.55-.85Z"/><path class="cls-2" d="M95.7,51.19c1,2.62,2.81,4.72,4.22,7.14,2,3.46,2.13,7.09,1.69,11a47,47,0,0,0,1.48,19.44c2,7,4.75,13.62,5.5,20.89.42,4-.2,8,.41,12,.46,3,3.33,6.1,4.94,8.55.34.51,2.21-.11,1.8-.74-2.1-3.18-4.47-6.12-5.06-10-.51-3.4,0-6.92-.16-10.35-.37-7.17-3.42-14.12-5.49-20.9-2.32-7.57-1.84-14.18-1.22-21.93.51-6.43-4-10.13-6.18-15.59-.26-.65-2.17-.07-1.93.51Z"/><path class="cls-2" d="M87.24,67.23c0,3.32-.3,6.7.67,9.93.27.89,2.2.37,1.93-.52-.93-3.11-.66-6.35-.64-9.55,0-1-2-.73-2,.14Z"/><path class="cls-2" d="M87.66,77.88c-1.24,1.73,1,4.3,1.75,5.83,1.08,2.13-.81,5.45,2.18,6.48,1.67.58,3.69-.75,4.44-2.16,1.66-3.09-.9-6.77,1.72-9.39.78-.77-1.12-.64-1.53-.24a5,5,0,0,0-1.72,3.93c0,.91.24,1.82.33,2.72s-.53,5.43-2.56,3.8c-1.38-1.1-.22-4.08-.93-5.66-.54-1.23-2.88-4-1.9-5.32.48-.67-1.45-.46-1.78,0Z"/><path class="cls-2" d="M89.43,79.27h6.49A7,7,0,0,0,96.11,78a22.2,22.2,0,0,0-4.81.43c-1.21.27-.85,1.56.34,1.3a19.73,19.73,0,0,1,4.28-.21c1.08,0,1.5-1.29.19-1.29H89.62c-1.09,0-1.5,1-.19,1Z"/><path class="cls-2" d="M88.56,79.1c.08.34.23.64.32,1a.45.45,0,0,0,.38.28,44.2,44.2,0,0,0,6.71,0c.72,0,2.06-1.11.74-1.13-2.37,0-4.66-.23-6.82.92-.57.3-.38.86.24.86a11,11,0,0,1,3,.3c0-.28,0-.56,0-.84-1,.66-2.34,1.51-2.72,2.69-.48,1.48,1.08,2.22,2.23,2.63A1.59,1.59,0,0,0,94,85.64c.23-.14.61-.62.16-.78-.81-.3-2.33-.83-1.79-2a5.2,5.2,0,0,1,2-1.79c.38-.27.53-.69,0-.85a13,13,0,0,0-3.46-.35c.08.29.15.58.23.87,1.42-.75,3.32-.4,4.87-.39l.74-1.13a41.15,41.15,0,0,1-6.28,0l.38.28c-.09-.34-.23-.63-.32-1-.18-.7-2.11-.19-1.93.51Z"/><path class="cls-2" d="M88.88,76.51c.42.8,3.08.48,3.77.46,1.65-.06,3.61-.28,4.89-1.41.36-.31-.3-.41-.48-.4a2.13,2.13,0,0,0-1.28.48c-.64.56-2.11.44-2.9.46A12.52,12.52,0,0,1,90.81,76c-.28-.54-2.13.13-1.93.52Z"/><path class="cls-2" d="M96.23,67.08c-1,.69-.81,2.25-.75,3.3.09,1.72.5,3.43.54,5.16C96,76,98,75.64,98,75a21.14,21.14,0,0,0-1-7.79c-.22-.55-2,0-2,.51v.65c0,.43,2,.12,2-.51v-.65a14.21,14.21,0,0,0-1.93.51,21.2,21.2,0,0,1,1,7.8L98,75c0-1.23-.26-2.46-.41-3.67-.09-.83-.65-3.52.2-4.11s-1.11-.43-1.51-.16Z"/><path class="cls-2" d="M86.87,66.39c2.43,0,7.1-.12,8.11-2.9,1.18-3.2-6-2.39-7.35-2.38a1.69,1.69,0,0,0-1.28.52c-.26.37.23.55.52.54,1.45,0,5.42-.83,6.18.84,1,2.2-4.35,2.32-5.42,2.32-.7,0-2.06,1.07-.76,1.06Z"/><path class="cls-2" d="M88,60.35c1.89,1.14,5.62.55,7.25-.86,1-.84-.24-1.72-1-2.12a5.06,5.06,0,0,0-2.59-.56c-1.11,0-2.42.41-3.48,0a1.84,1.84,0,0,0-1.24.12s-.89.4-.58.53A7.85,7.85,0,0,0,90,57.6c1.19-.09,3.1.17,3.67,1.44.64,1.44-3.28,1-3.84.66s-2,.51-1.82.65Z"/><path class="cls-2" d="M87.54,56.08c1.67,0,5.11,0,5.22-2.33,0-.88-1.91-.52-1.94.21,0,1.19-1.71.93-2.56.91a1.46,1.46,0,0,0-1.27.55c-.23.4.2.66.55.66Z"/><path class="cls-2" d="M85.21,45.7a2.44,2.44,0,0,0-.86.86c-.16.25.46.24.54.23,2.51-.12,4.92-.92,7.4-.28a30.12,30.12,0,0,0,4.27,1c2.18.23,4.49-1.58,2-3.42-.45-.32-2.13.44-1.82.67s1.11,2,1.46,2a7.64,7.64,0,0,1-1.64-.3c-1.06-.25-2.1-.56-3.16-.83-2.56-.66-5.09.23-7.67.36l.54.23.44-.44c.79-.58-1.14-.33-1.49-.08Z"/><path class="cls-2" d="M81.06,42c4.71-6.33,17.39-6.24,23.13-1.12.36.33,2.07-.42,1.82-.64-6.5-5.81-21.47-5.12-26.85,2.12a2.54,2.54,0,0,0,1.9-.36Z"/><path class="cls-2" d="M97.52,40.75c-.71.52-.57,1.79-.57,2.55a9,9,0,0,0,.37,3.35c.27.63,2.16,0,1.93-.52a7.52,7.52,0,0,1-.34-2.41c0-.49-.25-2.43.14-2.72s.21-.56-.16-.62a1.87,1.87,0,0,0-1.37.37Z"/><path class="cls-2" d="M88,41.41v-.64c-1,.23-1,.5-1.42.5h.33a1.37,1.37,0,0,1-.61-.24c.33,1.52.12,3.11.65,4.59.27.74,2.19.21,1.93-.49-.53-1.48-.32-3-.64-4.54-.06-.24-.4-.32-.61-.32h-.32c-.36,0-1.31.19-1.31.71v.65c0,.87,2,.48,2-.22Z"/><path class="cls-2" d="M79.45,39.32a10.33,10.33,0,0,1,0-3.09L78.13,37c1.48,0,3.74-.32,3.32-2.3-.12-.6-2.56-4.88-2.49-4.9,1.18-.32.88-1.44-.3-1.12-1.58.43-1.82,1.51-1.13,2.87.42.83,1,1.6,1.43,2.4s1.14,1.85-.12,1.82c-.38,0-1.3.17-1.32.71a11.07,11.07,0,0,0,0,3.4c.21.78,2.14.26,1.93-.51Z"/><path class="cls-2" d="M83.15,28.67c1.58-1.16,5.48-.54,7.47-.67,2.6-.18,14.16-1.23,14.16,3.07,0,.53,1.94.19,1.94-.52,0-4.47-11.36-3.8-14.12-3.65-3.16.17-8.3-.44-11,1.51-.86.64,1.09.59,1.54.26Z"/><path class="cls-2" d="M105.8,31.36c-.92,2.14-.17,4.45-.7,6.67-.23.92,1.75.68,2-.15.5-2.08-.26-4.33.59-6.32.44-1-1.51-1-1.84-.2Z"/><path class="cls-2" d="M84,31.45c2.72-1.49,6.81-.41,9.74-.06.7.08,8.38-.42,8.49,0,.17.72,2.11.21,1.93-.51,0-.11-.06-.22-.08-.33a.45.45,0,0,0-.38-.28c-4-.57-8.07.1-12.08-.38-3-.35-6.12-.55-8.83.93-1.15.63.55,1,1.21.63Z"/><path class="cls-2" d="M83.25,32.63a5.27,5.27,0,0,0,3.89,1.08c.38-.05,1-.26,1.08-.72.23-1.82-.81-2.71-2.56-2.81a1.4,1.4,0,0,0-1.27.56c-.8,1.54-.22,3.05,1.53,3.3,2,.28,2.81-2.26,3.28-3.65l-2,.19c-.38,1.65.69,3.47,2.57,2.62,1.66-.75,2.4-3.18,2.94-4.75l-1.94.19a9.76,9.76,0,0,0,.33,4.06.79.79,0,0,0,.86.37A3.83,3.83,0,0,0,94.21,32c.86-.8-1-1-1.59-.45l-.39.25.86.37a9,9,0,0,1-.33-3.73c0-1-1.71-.47-1.94.19a21.4,21.4,0,0,1-1,2.31,7.12,7.12,0,0,1-.77,1.19c.27-.33,0-1.31.14-1.75.2-.89-1.72-.49-2,.19a12.18,12.18,0,0,1-.78,1.86c-.32.23-.48.1-.49-.4a1.59,1.59,0,0,1,.24-1.16L85,31.44c1.13.07,1.46.66,1.33,1.74l1.08-.72a3.45,3.45,0,0,1-2.6-.87c-.63-.41-2.37.47-1.51,1Z"/><path class="cls-2" d="M94.23,28.88c-.72,1.11-1.38,2.94.26,3.58a1.26,1.26,0,0,0,1.37-.36.61.61,0,0,0-.27-1c-.52-.21.09-1.33.27-1.61.67-1-1.13-1.41-1.63-.62Z"/><path class="cls-2" d="M94.43,29.66c1.45.29,1.28,1.91,1.27,3,0,.47,1.92.15,1.93-.52a7.38,7.38,0,0,0-.12-2,2.18,2.18,0,0,0-1.86-1.47,1.88,1.88,0,0,0-1.37.37c-.32.25-.22.49.15.57Z"/><path class="cls-2" d="M98,29.18c-.6.94-1.18,2.34-.33,3.3.43.49,2.27-.2,1.8-.74-.63-.72-.11-1.86.32-2.54.24-.38-.2-.54-.51-.54a1.64,1.64,0,0,0-1.28.52Z"/><path class="cls-2" d="M99,30.42V32.7c0,.29.82.23,1,.21a3.3,3.3,0,0,0,.93-.26,1.73,1.73,0,0,0,.3-.16c.06-.05.38-.24.16-.13l-.73.24.13,0c.34,0,1-.21,1.11-.61s-.62-.36-.81-.33a2.54,2.54,0,0,0-.85.26,1.2,1.2,0,0,0-.27.16c-.06,0-.36.24-.14.13l.73-.24-.23,0c.28.07.71.14.71.21V29.9c0-.5-2-.16-2,.52Z"/><path class="cls-2" d="M102.19,31.07a5.45,5.45,0,0,0,.32,2.27c.28.61,2.16,0,1.93-.52a5.42,5.42,0,0,1-.32-2.27c0-.51-1.93-.17-1.93.52Z"/><path class="cls-2" d="M103.48,33.34a9.22,9.22,0,0,1-.31,2.82c-.14.46,1.75.2,1.91-.32a9.87,9.87,0,0,0,.33-3c0-.37-1.93-.07-1.93.52Z"/><path class="cls-2" d="M87.68,23.75c-1,1.11-.7,3.71.6,4.47.33.19.93,0,1.25-.12.06,0,.87-.36.58-.53a2.46,2.46,0,0,1-1-1.95,2.9,2.9,0,0,1,.3-2c.27-.31-.24-.31-.45-.29a2.1,2.1,0,0,0-1.29.45Z"/><path class="cls-2" d="M96,24.91v3.24c0,.59,2,.23,2-.52V24.39c0-.59-2-.23-2,.52Z"/><path class="cls-2" d="M86.29,24.27h7.14c.39,0,2.2-1,1.27-1H87.56c-.39,0-2.2,1-1.27,1Z"/><path class="cls-2" d="M87.68,23.16c-5.17-3.86,5-7.21,7.5-9.33a.46.46,0,0,0,.1-.62C93,10.29,97.42,9.89,98.69,8A6.37,6.37,0,0,0,98.53.23c-.44-.51-2-.12-1.86.66.56,2.74,1.11,8.52,4.76,8.84,8,.7-2.21,8.83-3.73,11.28l1.88,0,.15-.33c.78-.9-1.09-1-1.59-.44a1.46,1.46,0,0,0-.5,1c-.12.93,1.6.42,1.88,0,1.68-2.72,7.46-5.81,7-9.56a3.24,3.24,0,0,0-2.39-2.86C100,7.06,99.41,4.35,98.6.37L96.74,1c4.8,5.62-3.25,7.11-5.21,10.9a.4.4,0,0,0,.15.57c2.92,1.65-.74,2.48-2.15,3.29a21,21,0,0,0-4.34,3.07c-2,1.95-.93,3.9,1,5.32.59.44,2.34-.4,1.51-1Z"/><path class="cls-2" d="M91.47,92.57c-.29,5.45.81,11.08,1.21,16.52a89,89,0,0,0,2.88,16.07c2.46,9.63-3.13,21.27,4.11,29.71.52.61,2.36-.13,1.78-.81-6.53-7.6-2.62-19-3.67-28-.55-4.69-2.54-8.95-2.89-13.74-.47-6.53-1.82-13.45-1.47-20,0-.94-1.91-.61-2,.18Z"/><path class="cls-2" d="M157.27,173.39a3.64,3.64,0,0,0,3.24-1.46l-1.85.3c0,.35.18.49.42.74s1.9-.07,1.9-.61v-1c-1,.23-.95.46-1.4.7.27,0,.3.14.67.3a12.22,12.22,0,0,1,1.72.9c.5.32,2.16-.46,1.81-.68a7,7,0,0,0-3.42-1.4c-.36,0-1.38.21-1.38.7v1a10.89,10.89,0,0,0,1.87-.6.67.67,0,0,1-.26-.56c0-.51-1.67.06-1.85.3a3.34,3.34,0,0,1-.36.48h.22c-.17,0-.34,0-.52,0-.57,0-2.1.88-.81.88Z"/><path class="cls-2" d="M163.42,174.15a4.76,4.76,0,0,0,2.27.64c.83.06,2.57-.19,2.41,1a3.17,3.17,0,0,0,.11,1.93,8.85,8.85,0,0,0,2.21,2.44c.63.6,2.46-.2,1.77-.85a10.37,10.37,0,0,1-2.27-2.59c-.29-.57.42-1.48.07-2.14-1-1.83-3.64-.68-5.08-1.57-.71-.44-2.41.54-1.49,1.11Z"/><path class="cls-2" d="M178.21,185c5.6,5.41,4.89,13.15,7,20.1a11.58,11.58,0,0,0,3.85,5.65,6.43,6.43,0,0,0,2.12.9c1.32.41,1.84,3.59,2.62,4.83.41.66,2.27,0,1.77-.81-.9-1.46-.49-4.26-2.52-5-4.2-1.46-5.65-4.73-6.63-8.79-1.57-6.43-1.36-12.83-6.42-17.73-.57-.55-2.4.21-1.78.81Z"/><path class="cls-2" d="M204.3,203.7c-2.91,2.34-4.58,6.39-6.85,9.33-3.19,4.13-6.65,8.07-8.6,13-.19.48,1.7.26,1.92-.3,1.72-4.35,4.67-7.95,7.55-11.59,2.36-3,4.58-7.89,7.49-10.24.82-.66-1.11-.49-1.51-.17Z"/><path class="cls-2" d="M188.51,219.14c-.89,3.78.66,8,1,11.84.59,5.84,1.1,11.66,1.42,17.52s.57,11.7,1.12,17.53c.47,5,1.87,9.92,2.59,14.93.11.76,2,.29,1.93-.52-.64-4.47-1.81-8.84-2.44-13.31-.71-5-.82-10.19-1.07-15.25s-.54-10.39-1-15.58c-.24-2.6-.52-5.19-.78-7.79-.32-3.16-1.57-6.44-.84-9.58.2-.82-1.76-.54-1.94.21Z"/><path class="cls-2" d="M207.09,201.91c3.9,3.88,9.37,6.49,14.24,9,3.51,1.77,6.34,4,3.44,7.86C223,221,221.52,223.07,221,226c-.16.83,1.8.53,1.94-.2.68-3.59,3.14-6,5.13-8.93.88-1.29,1.41-2.59,0-3.64-6-4.44-13.82-6.75-19.15-12.07-.53-.52-2.36.22-1.78.8Z"/><path class="cls-2" d="M221,224.6a23.44,23.44,0,0,1,4.76,5.92c1.45,2.83-1.9,6.2-3.45,8.3s-2.47,4.21-3.83,6.24c-1,1.47-2.59,2.15-3.65,3.49-.53.67,1.42.52,1.8,0,1.39-1.76,3.16-2.75,4.46-4.7,2-3,3.81-6,5.83-8.93,3-4.33-1.13-8.12-4.12-11.1-.48-.47-2.31.25-1.8.75Z"/><path class="cls-2" d="M216.74,240.67c1.07-4.39-4.37-5.27-4.55-9.24l-.56.72c2.23-1.05,4.74,2.9,6.17,4.16.56.49,2.38-.27,1.78-.79-2.53-2.22-4.88-6.11-8.75-4.29-.31.15-.59.36-.57.72.17,3.85,5.52,4.89,4.54,8.93-.19.8,1.76.52,1.94-.21Z"/><path class="cls-2" d="M217.71,233.38a16.35,16.35,0,0,1-2.27-5.19l-1.13.67c2.51-.42,3.66,2.66,5.1,4.15.38.39,2.18-.3,1.81-.69-1-1-1.68-2.33-2.69-3.35a4.22,4.22,0,0,0-3.89-.93c-.24,0-1.22.26-1.13.67a16.35,16.35,0,0,0,2.27,5.19c.34.53,2.13-.2,1.93-.52Z"/><path class="cls-2" d="M219,229.81a29.45,29.45,0,0,0-.41-3,4.15,4.15,0,0,1,0-1.49l-1.06.44a3.39,3.39,0,0,1,.45.4,13.24,13.24,0,0,1,1.12,1.34c.41.54,1.9,0,1.86-.64-.11-1.83-1.2-3.37-1.3-5.19l-.83.77c2.31-.56,3.88,4.69,5.13,6,.49.52,2.33-.2,1.79-.78-2.25-2.41-2.9-7.33-7.2-6.29-.36.09-.85.34-.82.77.1,1.83,1.19,3.37,1.3,5.2l1.86-.65a5.46,5.46,0,0,0-2.29-2.13,1.7,1.7,0,0,0-1.9.83c-.58,1.43.33,3.39.38,4.87,0,.66,1.95.26,1.93-.52Z"/><path class="cls-2" d="M227,216.05v4.87c0,.49,2,.16,2-.52v-3.57c0-.52-1.95-.11-2,.4-.44,2.4-1.91,4.38-3.24,6.37l1.75,0a49.49,49.49,0,0,1,3.23-4.87c.52-.67-1.25-.34-1.48-.2a7.8,7.8,0,0,0-1.88,1.7,11.68,11.68,0,0,1-1.53,2l1.66-.26,0,0c-.32-.46-2.19.16-1.8.72l0,0c.3.43,1.36,0,1.66-.25,1.25-.86,1.68-2.67,3.05-3.48l-1.47-.2a48.51,48.51,0,0,0-3.25,4.87c-.43.71,1.49.4,1.78,0,1.38-2.05,3-4.13,3.4-6.61a8.18,8.18,0,0,0-1.84.4v3.57c0,.49,2,.16,2-.52v-4.87c0-.49-2-.16-2,.52Z"/><path class="cls-2" d="M223.57,220.48a6.44,6.44,0,0,1-.67,1.37,4.94,4.94,0,0,1-.43.59c-.14.19-.44.4-.52.63-.15.47.32.63.68.63a2.28,2.28,0,0,0,.81-.19,1.39,1.39,0,0,0,.4-.21c.31-.21.16,0-.43.09.34-.06,1-.21,1.11-.6s-.63-.35-.81-.32a2.69,2.69,0,0,0-.91.29c-.17.12-.75.38-.14.13l1-.14h0l.3.11a.54.54,0,0,0,0-.18l-.08.24a7.33,7.33,0,0,0,1.69-2.72c.19-.54-1.72-.29-1.92.29Z"/><path class="cls-2" d="M211.71,239.84c-3.4,1-3.9,5.06-5.46,7.82-3.42,6-6.25,12.32-10.22,18l1.84.18c2.71-7,8.09-13.94,12.86-19.64.76-.91-.9-1-1.43-.65a17.62,17.62,0,0,0-5,6c-1.9,3.25-4.33,6-6.29,9.23-.54.89,1.42.85,1.83.18,1.54-2.5,3.6-4.57,5.1-7.1,1.63-2.75,2.92-5.65,5.65-7.52l-1.43-.65c-4.91,5.85-10.33,12.83-13.1,20-.42,1.08,1.44.74,1.84.18a124.71,124.71,0,0,0,7.79-13.5c1.05-2,2.12-4,3.24-6,.87-1.54,1.09-4.7,3.14-5.32,1.17-.35.85-1.58-.33-1.23Z"/><path class="cls-2" d="M198,260.65a9.45,9.45,0,0,1-2.7-.3c-.47-.14-2.21.59-1.35,1,1.54.8,2.8,2,4.62,2a1.51,1.51,0,0,0,1.27-.53c.25-.4-.21-.6-.54-.62-1.44-.06-2.59-1.21-3.82-1.85l-1.35,1a11.05,11.05,0,0,0,3.14.35,1.53,1.53,0,0,0,1.27-.54c.25-.38-.21-.61-.54-.61Z"/><path class="cls-2" d="M207,249.06c-3.52,5.24-6.16,11-9.09,16.55-.19.37,1.59.08,1.83-.23,4-5.08,7.58-10.49,11.44-15.68.24-.32-1.58,0-1.83.23-4,3.21-6.27,8.25-8.52,12.76-.21.42,1.19.11,1.29.07a4.38,4.38,0,0,0,1.52-.95c.43-.39-1.41-.19-1.76.13l-.43.35,1.29.07c2.21-4.44,4.39-9.41,8.36-12.56l-1.83.23c-3.81,5.13-7.32,10.47-11.28,15.48l1.83-.23c2.93-5.58,5.57-11.31,9.09-16.55.15-.24-1.59-.15-1.91.33Z"/><path class="cls-2" d="M206.73,255.9c-1.25,2.25-.71,5.16-.64,7.62A23.43,23.43,0,0,1,204.9,271a14.49,14.49,0,0,1-1.65,3.52c-.82,1.29-5.88,3.55-5.5.83.16-1.2.82-2.71.08-3.89s-2.19-1.39-2.17-3.2l-1.95.32c.56,2.55,1.59,5,3.8,6.49.75.52,2.41-.51,1.47-1.16-2-1.38-2.84-3.55-3.34-5.84-.19-.88-1.94-.51-1.95.32a3.17,3.17,0,0,0,.66,2.49,3.45,3.45,0,0,0,1.07.69c1.39.76.39,3.74.22,4.93a.62.62,0,0,0,.43.62c4.22,2.1,7.58.43,9.74-3.53a21.47,21.47,0,0,0,2.05-7.24c.45-3.18-.86-7.37.73-10.22.54-1-1.42-1.06-1.86-.27Z"/><path class="cls-2" d="M199.3,268.71a1.43,1.43,0,0,0,.78,2.4,2.7,2.7,0,0,0,2.4-.74c1.34-1.37,1.88-4,1.93-5.83,0-.54-1.78,0-1.93.4-.85,2.41-.74,5.32-3,6.9-.33.22-.21.51.16.56A2,2,0,0,0,201,272c2.58-1.77,2.5-4.69,3.45-7.39l-1.93.41a11.39,11.39,0,0,1-.61,3.05,9.17,9.17,0,0,1-.6,1.53,3.08,3.08,0,0,1-.42.64c.47,0,.55-.15.26-.32a.86.86,0,0,1,0-1.29c.48-.59-1.44-.38-1.78,0Z"/><path class="cls-2" d="M105.11,208.45c-.9,3,.12,5.83,1.94,8.28,2.88,3.88,0,5.79-1.52,9.33-.81,1.84-1.08,3.44.79,4.57a2.85,2.85,0,0,0,.87.16c1.9.31-.93,4.5-.79,4.26a28.79,28.79,0,0,0-3.13,5.9c-1.63,5.08-1.89,10.61-2.71,15.86-.29,1.87-.8,4.31.12,6.07,2,3.93,7.88-6.24,8.24-6.83l-1.87.11a2.94,2.94,0,0,1-.32,1.62c-.22.65,1.71.39,1.93-.25a2.94,2.94,0,0,0,.33-1.62c0-.81-1.61-.32-1.87.11-.57,1-4.28,8-4.91,5.19-.55-2.44.47-5.81.81-8.19a102.64,102.64,0,0,1,2.18-12.31c1-3.62,3.92-6.05,4.7-9.72.16-.77-.48-1.18-1.14-1.22-4.49-.29.44-6.86,1.13-8.21.53-1,1-2.48.33-3.55-2-3.21-4.38-5.78-3.18-9.81.2-.68-1.74-.4-1.93.25Z"/><path class="cls-2" d="M109.7,246.54a5.8,5.8,0,0,1-1.83,2.76l1.72.32c3-7.82,8.32-14.41,13.45-21,5-6.38,9.17-13.3,14-19.78l-1.71-.32c-2.7,4.15-6.72,7.16-9.94,10.87-.79.91,1.07,1.09,1.59.49,3.32-3.83,7.4-6.93,10.18-11.2.54-.83-1.32-.85-1.71-.32-5.18,6.92-9.71,14.27-15.05,21.09-4.86,6.21-9.77,12.55-12.66,20-.39,1,1.3.72,1.72.32a8,8,0,0,0,2.06-3.08c.41-1-1.53-.88-1.83-.16Z"/><path class="cls-2" d="M121,224.05c3.44-6.51,8.52-12,11.36-18.82.18-.44-1.63.11-1.82.26-5.08,3.87-7.78,9.34-10.93,14.74-3.62,6.2-7.42,12.33-9,19.43-.08.39,1.8.1,1.9-.35,1.42-6.57,4.77-12.33,8.14-18.06s6.13-11.77,11.58-15.93l-1.82.26c-2.84,6.84-7.92,12.32-11.36,18.82-.12.24,1.65.13,1.9-.35Z"/><path class="cls-2" d="M141.12,209.77a2.36,2.36,0,0,0,.82-.81c.62-1-.82-1.3-1.46-.78-3.31,2.68-5.24,6.7-7.57,10.19-2.85,4.28-5.46,8.71-8,13.19-.54,1,1.42,1,1.86.26,2.17-3.87,4.42-7.67,6.81-11.41s4.85-8.6,8.16-11.29l-1.46-.78-.48.49c-1.06.77.49,1.52,1.29.94Z"/><path class="cls-2" d="M165.9,193.84c-2.77,7.45-2,16.53-2.62,24.39-.77,9.93-2.54,19.87-2.71,29.82,0,.28,1.84,0,1.92-.44a70.88,70.88,0,0,1,6.37-17l-1.92.44c-.14,3.59-.8,7.06,0,10.61.09.4,1.78-.13,1.92-.44a110,110,0,0,0,4.24-11.14c.1-.33-1.76-.1-1.9.36A111.87,111.87,0,0,1,167,241.6l1.91-.44c-.8-3.55-.14-7,0-10.61,0-.32-1.76.12-1.91.44a70.88,70.88,0,0,0-6.37,17l1.91-.44c.15-8.72,1.75-17.36,2.42-26.05q.51-6.58,1-13.17c.39-5.05.08-10,1.87-14.83.11-.29-1.73-.11-1.9.36Z"/><path class="cls-2" d="M175,226.3v-5.83c0-.38-2-.08-2,.51v5.84c0,.37,2,.08,2-.52Z"/><path class="cls-2" d="M172.78,218.33c.15,9.25,3.17,20.29-3.47,28-4.69,5.43-10.88,8.58-10.86,16.6,0,.37,1.93.07,1.93-.52,0-8.89,8.24-12.26,12.67-18.78,4.76-7,1.79-18,1.66-25.8,0-.37-1.94-.07-1.93.52Z"/><path class="cls-2" d="M157.92,269.81c0,8.94-.58,17.86-1,26.79-.54,10.19-.32,20.39-1.53,30.54-1,8.62-2.71,17.54-1.49,26.23.74,5.24,7.65,6.86,11,9.93.4.37,2.16-.36,1.81-.68-4.14-3.76-10.19-4.72-11.09-11.06-1.32-9.35,1.07-19.29,2.09-28.56.91-8.29.62-16.69,1-25,.46-9.57,1.11-19.12,1.15-28.7,0-.37-1.93-.08-1.93.52Z"/><path class="cls-2" d="M187.93,332.71c-5.48,1.6-9.46,5.82-14.26,8.7-2.67,1.59-5.56,2.84-8.3,4.31-1.62.87-13.82,7-8.84,9.78.61.33,2.37-.52,1.53-1-3.56-2,10.12-9,11.63-9.76s3.3-1.65,4.92-2.52c4.72-2.54,8.36-6.92,13.61-8.45,1.16-.34.88-1.41-.29-1.07Z"/><path class="cls-2" d="M167,347.2c-1.31,2.24-.6,5.6-.54,8.06.11,5-2.18,8.9-6,12-8.1,6.53-18.58,9.12-28.24,12.41-1.87.64-5.1,1.73-6.1,3.65-1.14,2.2-1.31,4.47-2,6.82-.94,3.44-5.32,5.71-8.1,7.33s-6,3.12-8.27,5.35-2.66,5.14-3.44,8.1c-.09.37.62.27.79.25a3.28,3.28,0,0,0,2.11-1c.47-.41-1.39-.24-1.76.09,1.42-1.25,1.46-2.43,2-4.17a8.36,8.36,0,0,1,3.77-4.61c3.56-2.48,7.52-4.33,11-6.92,3.17-2.36,4-5.12,4.69-8.84,1-5.51,10.86-7.17,15.42-8.69,7.74-2.58,15.38-5.79,21.53-11.29a14,14,0,0,0,4.3-8.1c.64-3.34-1-7.75.72-10.74.2-.33-1.61-.2-1.91.31Z"/><path class="cls-2" d="M133,329.7c-5.57,12.18-7.23,25.58-11.5,38.2-3.84,11.36-8.23,23.15-16.1,32.4l1.9-.36c1.18-5.86,5.19-11.23,7.84-16.54,3.29-6.58,5.9-13.49,8.65-20.31,5.3-13.16,11.88-26.26,12.19-40.72,0-.27-1.87,0-1.93.52-1.25,10.45-5.58,20.26-6.37,30.78,0,.27,1.78-.05,1.91-.44,4.77-13.86,9-27.91,13.27-41.92.11-.36-1.71-.06-1.9.35-2.22,4.76-5,9.23-6.37,14.33-.09.35,1.78.1,1.9-.36,1.38-5.1,4.15-9.57,6.37-14.32l-1.9.35c-4.31,14-8.5,28.07-13.27,41.93l1.92-.44c.79-10.51,5.13-20.33,6.37-30.78l-1.93.52c-.31,14.38-6.86,27.48-12.16,40.56-2.54,6.25-5,12.53-7.86,18.66-2.75,5.92-7.33,11.74-8.63,18.19-.1.49,1.69-.11,1.9-.36,7.58-8.91,11.84-20.13,15.64-31,4.53-13,6.2-26.95,12-39.55.12-.26-1.68-.12-1.9.35Z"/><path class="cls-2" d="M159.53,277.68a169.5,169.5,0,0,1-12.06,21.06c-4.59,7.13-8.44,15.42-15.34,20.65-2.23,1.7-4.54,2.81-6.28,5.07-1.57,2-1.9,5.07-2.91,7.39-1.79,4.1-7.28,7-11,9-2.65,1.45-6.06.8-8.82,2.31l1.44.09,3.18-3.19c.44-.44-1.42-.22-1.76.12l-3.18,3.19c-.5.5,1.25.19,1.44.09,2.8-1.52,6-.86,8.82-2.31a37.84,37.84,0,0,0,8.48-5.86,14.3,14.3,0,0,0,4.5-7.05c1.59-4.93,4.83-6.68,8.69-9.62,5.69-4.32,9-11.4,12.77-17.3,4.94-7.86,10.06-15.52,13.92-24,.17-.36-1.67-.18-1.9.33Z"/><path class="cls-2" d="M158.49,198.86C153.74,206,153.75,215,151,222.92c-1.62,4.66-4.36,9.14-5,14.07a127.17,127.17,0,0,1-3.31,16.25c-2.76,10.71-5.37,21.45-8.2,32.14-2.91,11.05-5.2,22.63-8.9,33.43l1.81-.32c.27.43.51-.43.56-.54.49-1-1.47-.94-1.84-.2l-.51.73a.55.55,0,0,0-.08.7l.1.15c.35.56,1.61.25,1.8-.32,3.13-9.13,4.92-18.82,7.49-28.13,3.12-11.29,5.89-22.68,8.76-34,1.23-4.85,2.77-9.69,3.68-14.6.55-3,.37-6,1.39-8.86s2.28-5.69,3.41-8.53c3.35-8.38,3.1-18.14,8.18-25.79.58-.88-1.39-.89-1.85-.21Z"/><path class="cls-2" d="M133.56,281.68c-3.9,6.17-7.45,15.26-5.89,22.63.17.8,1.62.3,1.88-.17,2.26-4.24,2.29-9.07,2.82-13.74.67-5.78,2.37-11.43,3.08-17.22.11-.92-1.64-.57-1.89,0-2.43,5.51-4.6,11.07-4.84,17.15l1.95-.18a33.69,33.69,0,0,1,1.06-6.9c.22-.87-1.75-.6-1.95.18a34.38,34.38,0,0,0-1.06,6.9c0,1,1.92.62,1.95-.18.24-6,2.34-11.41,4.72-16.81H133.5c-.66,5.38-1.78,10.68-2.89,16-1,5-.43,10-2.89,14.63l1.88-.17c-1.51-7.19,2-16,5.79-22,.54-.86-1.42-.81-1.83-.16Z"/><path class="cls-2" d="M126.08,247.4c-5.47,16.72-12.65,32.8-18.58,49.35l1.93-.26c3.22-10.43,7.77-20.31,12.2-30.25,3.85-8.61,10.16-17,11.15-26.54.05-.51-.8-.39-1.08-.31-3.64,1.09-5.25,3.62-7.14,6.81-.44.74,1.49.5,1.78,0,1.38-2.34,2.68-5.06,5.6-5.93l-1.08-.31c-1,9.22-6.85,17-10.62,25.27-4.7,10.3-9.39,20.69-12.74,31.52-.19.63,1.72.32,1.93-.26,5.93-16.56,13.1-32.64,18.57-49.36.2-.61-1.72-.34-1.92.27Z"/><path class="cls-2" d="M122.18,252.5v-1.06c0-1-2-.73-2,.14v1.06c0,1,2,.73,2-.14Z"/><path class="cls-2" d="M122.12,251.61a5.41,5.41,0,0,0,.59-2.3c.07-1-1.4-.58-1.78-.2-7.44,7.39-10.25,18.14-13.19,27.9-1.6,5.29-3.69,10.42-5.24,15.72-1.92,6.57,0,9.63,3.49,14.93.47.71,2.31,0,1.77-.84-1.81-2.73-4-4.95-4.22-8.43-.15-2.85.91-5.93,1.77-8.58,1.27-3.9,2.78-7.7,4-11.64,3-9.87,5.69-21,13.25-28.51l-1.78-.2-.48,1.95c-.38,1,1.56,1,1.84.2Z"/><path class="cls-2" d="M106.59,271.37c-3.58,4.1-4.23,9.81-5.38,14.94-.61,2.76-1.32,5.25-1,8.1s2.08,5.69,3.09,8.31c.35.9,2.27.36,1.93-.52-2.05-5.32-3.93-8.94-2.31-14.78,1.45-5.23,1.62-11.17,5.35-15.44.81-.93-1-1.3-1.63-.61Z"/><path class="cls-2" d="M105.91,308.55c.15,10.45,4.6,24.8-3.63,33.27,0,.06-.16.18,0,.24a3.42,3.42,0,0,0,2.41.58c.39,0,2.21-.71,1.26-.75-2.22-.12,1.52-5.39,1.88-6.38A26.87,26.87,0,0,0,109,327.8c.3-6.6-1-13.17-1.11-19.76,0-.29-1.94,0-1.93.51Z"/><path class="cls-2" d="M106,351.54c-5.65,2.3-3.37,14.94-1.92,19.14a4.51,4.51,0,0,0,1.77,2.54c1,.49.22.26-.41,1.49a23.2,23.2,0,0,0-1.94,5.73c-.6,2.77-1.44,5.47-1.21,8.31.28,3.43,2.35,6.68,3.1,10,.11.51,2.05,0,1.93-.52-.77-3.43-2.39-6.58-3.1-10-.89-4.33,1.71-11.71,4.08-15.23.17-.26,0-.36-.27-.4-4.38-.67-5.11-19-1.33-20.51,1.27-.52.08-.88-.7-.56Z"/><path class="cls-2" d="M104.33,413c-1,2.23-1.16,5.16.57,7.07.34.38,2.15-.31,1.82-.67-1.64-1.81-1.45-4.65-.49-6.73.16-.34-1.67-.18-1.9.33Z"/><path class="cls-2" d="M114.33,416.68c3.36-1.76,5.5-5.9,7.29-9.05,1.92-3.38,4.95-8.45,4.26-12.55-.07-.45-1.65.16-1.84.34-4.68,4.57-5.71,13.07-6.46,19.29,0,.22,1.87.05,1.93-.52.72-5.94,1.76-14.52,6.28-18.93l-1.84.34c.59,3.5-1.8,7.66-3.31,10.66-1.62,3.22-4.07,8.44-7.42,10.2-1.13.59.67.45,1.11.22Z"/><path class="cls-2" d="M131.19,393.07c.17-.53.35-1.06.53-1.59s-1.69-.19-1.92.29c-3.51,7.27-6.15,15.34-6.38,23.46,0,.57,1.67,0,1.85-.28,4.06-5.32,6-11.64,8.35-17.8,2.15-5.58,6.61-10.75,7.12-16.81.06-.76-1.6-.07-1.85.17-5.08,4.92-6.12,12.65-7.43,19.29-1.1,5.57-2.68,13.27,1,18.18.32.43,1.54-.06,1.79-.38,3.22-4,4.43-9.08,5.69-14,1.76-6.86,4.86-13.25,6.59-20.1.16-.66-1.7-.13-1.92.29-5.07,9.41-8.07,21.92-5.32,32.49.15.55,1.48,0,1.73-.17,3.72-2.84,4.49-7.85,5.43-12.16,1.59-7.3,5-14.07,5.92-21.51.08-.67-1.75-.2-1.92.29-4.32,11.91-4.75,24.73-5.32,37.26,0,.44,1.9.15,1.93-.52.57-12.45,1-25.19,5.31-37l-1.92.29c-.79,6.25-3.28,12-5.09,18-1.49,4.94-1.39,11.79-5.86,15.2l1.73-.16c-2.74-10.49.25-22.89,5.3-32.26l-1.92.29c-1.5,6-4.24,11.5-5.89,17.42-1.57,5.63-2.49,11.73-6.25,16.43l1.79-.38c-3.86-5.1-1.84-13.15-.71-18.88,1.22-6.21,2.34-13.36,7.07-17.95l-1.85.18c-.47,5.54-4.3,10.31-6.5,15.29-2.87,6.5-4.44,13.33-8.82,19.08l1.85-.28c.22-8,2.9-16.06,6.37-23.24l-1.92.29c-.18.53-.36,1.06-.53,1.59s1.73.28,1.92-.29Z"/><path class="cls-2" d="M166.41,369.06c0,13.81.51,27.6.53,41.4l1.93-.52c-.27-6.9,1.95-13.34,3.19-20,.12-.67-1.82-.33-1.93.27-1.25,6.78-3.47,13.32-3.19,20.29,0,.55,1.93.16,1.93-.52,0-13.8-.5-27.59-.53-41.39,0-.52-1.93-.18-1.93.51Z"/><path class="cls-2" d="M176,350.89c-.42,10.54,1,21,2.12,31.44s.09,21.28,1.59,31.85c.09.63,1.78,0,1.93-.4a13.54,13.54,0,0,1,1.06-2.66c.23-.5-1.66-.3-1.92.28a14,14,0,0,0-1.07,2.66l1.93-.4c-1.42-10-.71-20.11-1.43-30.15-.79-11-2.73-21.81-2.29-32.89,0-.71-1.9-.29-1.92.27Z"/><path class="cls-2" d="M183.93,373.7c-2.31,9.13-3.48,20.5.53,29.33.27.59,1.89.25,1.93-.38.13-1.95.43-3.88.53-5.84,0-.8-1.9-.41-1.93.24-.11,2-.41,3.89-.53,5.84l1.93-.38c-4-8.8-2.83-19.93-.53-29.05.18-.72-1.77-.43-1.93.24Z"/><path class="cls-2" d="M187,393.15v-1.6c0-1-2-.72-2,.15v13.8c0,1,2,.73,2-.15v-13.8c0-1-2-.72-2,.15v1.59c0,1,2,.73,2-.14Z"/><path class="cls-2" d="M149.78,419.4c2.7-.25,4.48,1.55,6.81,2.6.46.21,1.39-.1,1.39-.73v-3.18c0,.21-1,.42-1.58.63a3.08,3.08,0,0,0,3.11.68,4.43,4.43,0,0,0,1.29-.76c.95-.73,2.38,1.86,3,2.6s2.43-.11,1.78-.85c-1-1.2-2-3.15-3.73-3.46-1.28-.23-2.87,1.58-4,.67-.46-.36-1.89-.06-1.89.63v3.19a5.74,5.74,0,0,0,1.7-.73c-2.77-1.25-4.61-3-7.81-2.7-1.09.1-1.41,1.53-.09,1.41Z"/><path class="cls-2" d="M149,425c5.38,0,10.79.55,16.16,0,.39,0,1.75-.78.74-1a32.25,32.25,0,0,0-6.58-.54c-.66,0-2.08,1-.77,1,3.53.05,6.76.27,10-1.33,1.17-.57-.59-.77-1.17-.48-2.54,1.25-5.34.84-8,.8-.26.33-.51.67-.77,1a30.23,30.23,0,0,1,6.15.51l.75-1c-5.2.56-10.47,0-15.68,0-.67,0-2.08,1-.77,1Z"/><path class="cls-2" d="M161.1,410.46c1.14,2.55,3,4.61,4.33,7,.32.58,2.15,0,1.85-.66-1.85-4-4.72-7.47-7-11.28-.34-.57-2.12,0-1.86.65.52,1.38.44,2.84.83,4.25.2.71,1.7.31,1.7-.36v-6.9c0-.9-1-.53-1,.2v6.91c0-.13,1.06-.25,1.7-.37-.39-1.41-.66-2.87-1.18-4.24-.62.21-1.3.43-1.92.65,2.2,3.72,5,7.06,6.8,11l1.84-.66c-1.27-2.34-3.09-4.31-4.18-6.76-.33-.75-2.24-.16-1.94.52Z"/><path class="cls-2" d="M161.15,387.27c-3.13,7.05-4.88,14.54-7,21.94l2-.14c.51-5,.71-9.94,2.6-14.68l-1.9,0A69.21,69.21,0,0,1,153.19,408c-.39,1,1.55,1,1.85.23a70.89,70.89,0,0,0,3.76-14c.15-1-1.64-.71-1.9,0-1.93,4.86-2.19,9.91-2.71,15-.11,1.07,1.74.64,2-.14,2-7.28,3.77-14.64,6.84-21.57.46-1-1.49-1-1.84-.23Z"/><path class="cls-2" d="M102.45,420.69a22.11,22.11,0,0,0-9.65,6.22c-.46.53.13,1.07.72,1,5.4-.87,8.89-5.57,14.06-6.95,1.19-.32.84-1.63-.35-1.31-5,1.32-8.47,6-13.54,6.86l.72,1A19.5,19.5,0,0,1,102.8,422c1.15-.4.83-1.73-.35-1.31Z"/><path class="cls-2" d="M109.45,423.93a12.79,12.79,0,0,0,9.33-2.49c.84-.6-1.11-.49-1.52-.19a8.83,8.83,0,0,1-6.59,1.76c-.52-.09-2.26.75-1.22.92Z"/><path class="cls-2" d="M120.25,421a7.08,7.08,0,0,0-.54,3.26c0,.11.29.11.33.11a7.46,7.46,0,0,0,3.33-.74c1.47-.61,6.87-4,5.37-.51-.08.19.22.19.32.19,1,.06,8.67-1.33,8.69-1.17s.27.11.34.11c3,.07,4.69-1.5,7.2-3,.8-.48-1.14-.21-1.47,0-1.36.82-3.4,2.78-4.72,1.29-.17-.19-.81,0-1,.05-1.83.5-6.81,2.89-7,.84-.07-.81-.6-.85-1.31-.82a9.1,9.1,0,0,0-2.8.76c-1.23.48-6.15,3.74-4.86-.69.1-.34-1.76-.11-1.9.36Z"/><path class="cls-2" d="M193,354.06c-.29,9.56,3,18.74,3.18,28.27l1.87-.64a54.46,54.46,0,0,0-4.78-5.83c-.36-.44-2.16.06-1.86.63,2,3.85,1.37,5.74-1.93,8.61a.39.39,0,0,0-.13.54,5.76,5.76,0,0,0,2.25,2.21c.54.33,2.33-.46,1.54-.94-3.19-2,.28-2.93,1.19-5s0-4-1-6l-1.87.63a53.18,53.18,0,0,1,4.78,5.84c.35.56,1.88,0,1.87-.64-.22-9.44-3.48-18.53-3.19-28,0-.8-1.91-.4-1.93.24Z"/><path class="cls-2" d="M191.42,358.7c-1.91,3.48-1.17,8.13-1.12,11.95.1,7.72,1.31,15.55,2.2,23.2s.93,15.32,1.51,23c.09,1.25.46,5.59,1.92,6,.39.1,1.5-.11,1.56-.64,0-.13,0-.26,0-.4.09-.76-1.85-.39-1.93.25,0,.13,0,.27,0,.4l1.56-.64c-1.08-.28-1.4-8.55-1.44-9.27-.4-6.4-.5-12.78-1.25-19.15S193,380.46,192.49,374c-.36-4.53-1.55-11.12.73-15.27.44-.79-1.5-.57-1.8,0Z"/><path class="cls-2" d="M190.88,415.43l-1.59,3.19,1.88,0a5.35,5.35,0,0,0,0-3.31,2.86,2.86,0,0,0-2.78-1.48,1.27,1.27,0,0,0-1.33.73,4.65,4.65,0,0,0,1.15,4.56c.55.58,2.39-.17,1.78-.81a3.9,3.9,0,0,1-1-3.93l-1.32.73c2.13.06,1.87,2.14,1.5,3.7-.22.88,1.62.52,1.88,0,.53-1.06,1.07-2.12,1.6-3.19s-1.49-.84-1.83-.15Z"/><path class="cls-2" d="M188,332.29v7.43c0,.86,2,.46,2-.22v-7.43c0-.86-2-.46-2,.22Z"/><path class="cls-2" d="M181.61,341.48c0-.27-.42-.09.1-.14a9.14,9.14,0,0,1,1.17,0,19.87,19.87,0,0,1,2.66.3c1.41.23,3.17.51,4.28,1.48.37.33,2.08-.42,1.82-.65-1.22-1.07-12.46-3.36-12-.47.06.36,2-.07,1.93-.52Z"/><path class="cls-2" d="M181.27,252.3c.22,27.16,9.34,53.45,8.49,80.67a.23.23,0,0,0,.18.12,2.63,2.63,0,0,0,2.19-.15c1.29-.49.07-.73-.67-.45,1-.39.25-8.06.22-9.1-.13-3.66-.48-7.3-.86-10.93-.72-6.75-1.85-13.45-3-20.15-2.25-13.43-4.54-26.87-4.65-40.53,0-.33-1.93,0-1.93.52Z"/><path class="cls-2" d="M188.92,305.14a27.55,27.55,0,0,1,7.25,8.36c.33.63,1.81.19,1.81-.5v-1.59c0-1-2-.72-2,.15v1.59a14.25,14.25,0,0,0,1.94-.5,28.58,28.58,0,0,0-7.54-8.62c-.66-.54-2.32.4-1.46,1.11Z"/><path class="cls-2" d="M191.36,274.59c.21,6.34,2.2,12.37,3.62,18.51,1.66,7.12,2.1,15.06,2.22,22.36,0,.49,1.94.15,1.93-.52a134.46,134.46,0,0,0-1.88-20.72c-1.18-6.79-3.73-13.19-4-20.15,0-.5-2-.15-1.93.52Z"/><path class="cls-2" d="M189.76,334c1.52,3.28,7.44,3.54,8.31-.37l-1.73.6c2.84,2.08,1.1,5.26-1.44,6.62-.18.1-.43.35-.36.58.23.79.92.84,1.66.86s2-1.14.73-1.16l-.46-.21-.35.57c3.22-1.73,5.26-5.66,1.74-8.23a1.35,1.35,0,0,0-1.73.59c-.56,2.54-3.62,1.4-4.43-.37-.33-.71-2.23-.11-1.94.52Z"/><path class="cls-2" d="M191.35,337.05c-.25,2.18.69,8,3.56,8,.39,0,1.07-.17,1.07-.74V342.7a6.82,6.82,0,0,1-1.69.36,33.15,33.15,0,0,1,1.4,6.73c0,.94,2.29.59,2.29-.18V348c0-.89-1.86-.61-2.11,0a9.16,9.16,0,0,0-.69,3.35c0,.94,1.88.59,1.89-.18a8.21,8.21,0,0,1,.63-3H196v1.6a14.61,14.61,0,0,1,1.76-.18,34.26,34.26,0,0,0-.94-7.07c-.19-.76-1.82-.36-1.82.35v1.59c0-.25.66-.49,1.1-.74-.62,0-1.79-2.37-2-2.71a7.17,7.17,0,0,1-.77-4.16c.1-.92-1.91-.6-2,.18Z"/><path class="cls-2" d="M198.24,312.09c.11,7.64,1.48,15.18,1.6,22.82,0,1,2,.7,1.95-.15-.11-7.64-1.48-15.18-1.59-22.82,0-1-2-.7-2,.15Z"/><path class="cls-2" d="M167.47,190.73c4.66,11.33,11.36,21.9,11.68,34.5l1.93-.52c-4.14-9-3.82-19.17-8-28.13-.27-.57-1.86-.21-1.93.39a71.61,71.61,0,0,0,1.59,24c.15.68,1.92.14,1.93-.51.08-7.1,1-14.31-1.06-21.23l-1.93.51c2.16,5.62,3.77,11.42,7,16.57.33.52,1.71,0,1.87-.5,2.84-8.63-.28-18.81-2.65-27.2-.18-.65-2-.15-1.93.52,1.47,11,7.69,20.43,11.14,30.78.22.66,2.14.1,1.93-.51-3.45-10.35-9.67-19.84-11.14-30.79l-1.93.52c2.34,8.3,5.46,18.42,2.65,26.93l1.86-.49c-3.14-5.08-4.7-10.82-6.83-16.34-.24-.64-2.12-.12-1.93.51,2,6.93,1.13,14.13,1.06,21.23l1.93-.51a70.87,70.87,0,0,1-1.59-23.75l-1.93.38c4.14,9,3.82,19.17,8,28.13.3.64,1.95.16,1.93-.52-.31-12.6-7-23.17-11.67-34.5-.27-.65-2.17-.06-1.94.52Z"/><path class="cls-2" d="M83.62,431.16c.88,3.53.55,7,.48,10.62a13,13,0,0,1,1.88-.52V428.52c0,.22-.87.43-1.34.65,22.86-.82,45.71-2.41,68.59-2.17,10.7.11,21.35,1.17,32,1.47,3.85.1,9.83.06,11.59,4.24,1,2.4,1.12,4.53,3,6.49.34.35,2.11-.36,1.82-.66-2.25-2.29-2.07-5.16-3.64-7.75s-5.74-2.57-8.15-2.88c-4.55-.58-9.23-.36-13.81-.74-6.53-.54-13.09-.78-19.65-.92-23.66-.48-47.39,1.31-71,2.15-.3,0-1.47.21-1.47.64v12.74c0,.31,2,0,2-.52.06-3.6.39-7.09-.49-10.61-.11-.42-2,.08-1.89.51Z"/><path class="cls-2" d="M83.12,443.61c19.86-4.57,39.3-1.86,59.35-2,10.08-.07,20.14-.72,30.21-.67,10.74.06,21.31,1.53,32,2.2.08-.35.15-.7.23-1.06-8.84,2.75-18.31.21-27.33-.1-9.53-.33-19.19,1.41-28.73,1.62-20.56.44-41.23,0-61.78-.52l-.5,1.11c16.51-1.55,33.07-2.09,49.64-2.11,7.53,0,15.05,0,22.57.42,6.4.33,12.47,1.63,18.8.05.64-.16,1.29-1,.24-1.06-8.25-.39-16.46.33-24.71.52-9.11.2-18.19-1-27.3-1.05l-.74,1.12c13.62,0,27.25.32,40.86-.46a132.4,132.4,0,0,0,15.39-1.83c5.5-1,12.25-2.31,17.12,1.15.53.37,2.32-.4,1.54-1-7-5-17.52-1.2-25.21-.16C158.67,442,142,441,125.82,441c-.74,0-2.06,1.11-.74,1.12,8.5.08,17,1,25.47,1.06,8.86.09,17.67-.94,26.54-.53.08-.35.16-.7.23-1.06-7.5,1.88-15.78-.15-23.41-.41s-15.2-.21-22.8-.16c-14.78.09-29.56.73-44.28,2.11-.67.07-1.71,1.08-.5,1.12,21.76.56,43.69,1.14,65.44.41,9.9-.33,19.81-2,29.71-1.25,7.93.62,15.93,2.13,23.71-.29.62-.19,1.31-1,.24-1.06-10.7-.67-21.26-2-32-2.2s-21.39.61-32.08.68c-10.19.07-20.31-1.18-30.5-1.08a130.59,130.59,0,0,0-28,3.19c-1.18.28-.89,1.27.27,1Z"/><path class="cls-2" d="M77.87,446.44c9.45.84,18.89.26,28.35,0,10.26-.23,20.54,0,30.8,0,10.42,0,20.84-.2,31.24-.76,11.27-.62,22-1.62,33.27.14.92.15,2-1.14.69-1.35a106.42,106.42,0,0,0-27.85-.53c-10.36,1.08-20.93,1-31.34,1.12s-20.63,0-30.95-.06c-11.18,0-22.36,1-33.53,0-.91-.08-2,1.24-.68,1.35Z"/><path class="cls-2" d="M82.1,450.13c8.26-2.61,17.77-.95,26.34-1.06,10.87-.14,21.73-.83,32.6-1.21,11.1-.39,22.21-.68,33.32-.49,9.52.16,19,1.65,28.49,1.75.06-.47.12-.93.17-1.39-4.36.27-8.63-.46-13-.9s-8.84-.16-13.22-.16c-11.14,0-22.27-.29-33.41-.48-19.45-.34-38.57,4.08-58,3.67l-.68,1.38c4.26.07,8.49.46,12.74.53.06-.45.11-.9.17-1.34-6.24,2.15-13.73,1.21-20-.53-.79-.21-2.3.89-1.12,1.29a51.06,51.06,0,0,0,7.65,1.64c.94.16,2-1.16.68-1.38a48,48,0,0,1-7.21-1.55l-1.12,1.29c6.71,1.86,14.72,2.85,21.43.53.64-.22,1.28-1.32.17-1.33-4.26-.07-8.49-.47-12.74-.53-.91,0-2,1.35-.68,1.38,20.08.43,39.85-4,60-3.64,10,.17,20,.46,30,.46a161.5,161.5,0,0,1,16.32.32,71.79,71.79,0,0,0,11.81.74c1.09-.07,1.49-1.38.17-1.39C193,447.62,183,446.07,173,446c-10.59-.12-21.17.16-31.74.52-10.87.37-21.73,1-32.61,1.21-8.74.15-18.37-1.53-26.86,1.16-1.16.36-.83,1.67.35,1.29Z"/><path class="cls-2" d="M82.39,450.26c-4.88,3.51-3.6,10.71-3.55,15.94,0,.6,1.92.23,1.93-.38.09-4.14,1-8.14,1.59-12.21l-1.93.24c0,3.63-.08,7.25-1.59,10.61-.31.69,1.5.28,1.74,0l1.06-1.05c.8-.81-1.1-.78-1.55-.33L79,464.18l1.74,0c1.51-3.36,1.59-7,1.59-10.61,0-.81-1.83-.41-1.93.24-.62,4.07-1.5,8.07-1.59,12.21l1.93-.38c0-4.41-1.38-11.81,2.82-14.84,1.06-.77-.6-1-1.2-.58Z"/><path class="cls-2" d="M204.25,452.24l-.06,0a1.76,1.76,0,0,0-1.54.33c-.87.71-.56,2.95-.6,3.94-.08,2.18-.08,4.35-.08,6.53l1.93-.52a91.35,91.35,0,0,1-1.06-11.67c0-.5-1.94-.16-1.93.51,0,3.88.45,7.76-.53,11.56-.15.61,1.78.31,1.93-.28,1-3.88.57-7.84.53-11.79l-1.93.51A91.34,91.34,0,0,0,202,463c.08.58,1.93.1,1.93-.52,0-1.67,0-3.35,0-5,0-1.06.06-2.12.12-3.17a10.08,10.08,0,0,0,.12-1.55l-1.54.33.05,0c.51.21,2.28-.56,1.56-.86Z"/><path class="cls-2" d="M190.84,451.77a74.4,74.4,0,0,0-4.24,14.86c-.09.45,1.81.14,1.9-.34a73.77,73.77,0,0,1,4.25-14.86c.13-.32-1.7-.15-1.91.34Z"/><path class="cls-2" d="M186.25,451c-3,2-3.36,6.07-3.39,9.38,0,.5,1.93.17,1.93-.51,0-2.95.3-6.85,3-8.66.86-.58-1.09-.51-1.53-.21Z"/><path class="cls-2" d="M182.57,449.47c-3.4,1.93-2.79,6.16-4.47,9.21-.12.22,1.65.12,1.91-.35,1.51-2.75,1-7.11,4-8.83.8-.46-1.14-.21-1.47,0Z"/><path class="cls-2" d="M178.43,449.65c-3,.94-2.89,3.91-4.05,6.35-.19.41,1.67.23,1.92-.3a21.83,21.83,0,0,0,1-2.82c.2-.67.58-2.27,1.35-2.51.2-.06,1-.27.87-.62s-.87-.16-1.06-.1Z"/><path class="cls-2" d="M172.06,450.19c-3.38.84-3.81,4.16-5.11,6.88-.19.4,1.66.22,1.91-.31.78-1.63,1.34-5.34,3.39-5.85,1.14-.29.94-1-.19-.72Z"/><path class="cls-2" d="M165.71,449.7c-2.67,1.72-3.38,4.81-5.48,7-.8.84,1.09.86,1.56.37,2-2.06,2.7-5.2,5.14-6.77,1.1-.71-.57-1.05-1.22-.63Z"/><path class="cls-2" d="M159.69,449.28c-2.64,2.82-3.58,6.69-6,9.7-.58.73,1.39.65,1.82.11,2.29-2.91,3.17-6.69,5.72-9.4.8-.86-1.08-.93-1.58-.41Z"/><path class="cls-2" d="M151.4,450.31c-4.43,2.39-6.3,7.1-9.33,10.86-.5.62,1.43.42,1.79,0,2.82-3.5,4.58-8.14,8.71-10.37,1.15-.61-.6-.78-1.17-.47Z"/><path class="cls-2" d="M95.12,458.18c13.09,0,26.18-.51,39.27-.53,0-.48-.07-.95-.11-1.43-11.78,2.68-24.52.66-36.1-2.16l-.66,1.46c17.67,1.32,34.89-5,52.54-3.18.14-.49.27-1,.41-1.47-12-.06-24-1-36.09-1.06l-.15,1.47c11.6,0,23.2-.44,34.78.53,9.79.82,19.6,2,29.44,2.13l.15-1.48c-12.66,0-25.31-.53-38-1-.94,0-2,1.15-.66,1.46,15.78,3.61,32,2.7,48,2.66,1.13,0,1.46-1.47.15-1.48-7.77-.08-15.46-.82-23.08,1.11-.45.11-1.24.87-.56,1.26,8.65,4.94,18.9,1.94,28.27,1.76,1.12,0,1.46-1.5.15-1.47-8.78.16-18.84,3.19-26.94-1.43l-.55,1.26c7.44-1.87,15-1.09,22.56-1l.15-1.48c-15.89,0-31.9.93-47.51-2.64l-.66,1.46c12.82.53,25.64,1,38.47,1.07,1.13,0,1.46-1.47.15-1.48-11-.1-21.9-1.65-32.83-2.41-10.44-.73-20.94-.27-31.39-.24-1.13,0-1.46,1.47-.15,1.47,12,.06,24,1,36.08,1.06.9,0,1.58-1.34.41-1.47-17.68-1.83-34.88,4.51-52.54,3.19-1-.07-2,1.14-.66,1.46,11.93,2.91,25,4.85,37.14,2.09,1-.24,1-1.44-.11-1.43-13.1,0-26.18.5-39.28.53-1.12,0-1.46,1.48-.15,1.47Z"/><path class="cls-2" d="M201.08,462c-1.77,4.13-.06,8.83,1.79,12.64.24.5,1.78,0,1.92-.41.63-2.1.94-5.58-2.13-5.66-.47,0-2.23.85-1.23.88,2.57.06,1.89,3.59,1.45,5.09l1.92-.42c-1.81-3.73-3.55-8.37-1.8-12.43.18-.42-1.69-.22-1.92.31Z"/><path class="cls-2" d="M76,467.25v3.58c0,1.07,2,.81,2-.12v-7.16c-1,0-1.45.08-2.1.12a12.4,12.4,0,0,0,.65,4,11.4,11.4,0,0,1,1,3.2c0,1.07,2,.81,2-.12a7.87,7.87,0,0,0-.73-2.64,12.27,12.27,0,0,1-1-4.52c0-1.06-1.85-.82-1.85.12v7.16c0,1.07,2,.81,2-.12v-3.58c0-1.07-2-.81-2,.12Z"/><path class="cls-2" d="M72.23,478.28c4.52,2.56,11.61.84,16.39.19,8.37-1.16,16.83-3.5,25.3-3.66.6,0,2.1-.92.79-.92-9.66,0-19.36,0-28.88,1.81-.53.1-1.8.9-.56.9,44.81,0,90.05,3.65,134.52-3.6.84-.14,1.66-1.1.31-.88-38.64,6.3-78,4.31-116.94,3.7q-6.64-.1-13.31-.13a2.44,2.44,0,0,0-2.74.59c1.09-.18,2.19-.35,3.29-.49,2.76-.38,5.55-.55,8.33-.71,4.52-.26,9.06-.26,13.59-.27,2-.75,2.35-1,1-.88-.54,0-1.08.08-1.62.14-1,.09-2,.22-3,.35-5.81.77-11.57,1.91-17.36,2.81-4.8.75-12.75,2.92-17.29.35-.53-.3-2.19.49-1.81.7Z"/><path class="cls-2" d="M224.34,479.81c-1.76,5.86-1.67,12.05-3.44,17.91.65-.07,1.08-.13,2.08-.19V481.42c0-1-1.91-.55-2.08.18a84.62,84.62,0,0,0-1.83,19.7c.65-.06.91-.12,1.91-.19V485c0-.9-1.65-.59-1.92,0a26.49,26.49,0,0,0-1.86,10.91c0,.94,1.93.59,1.94-.19,0-3.74.22-7.08,1.73-10.57H219V501.3c0,.94,1.94.59,1.94-.19a85.13,85.13,0,0,1,1.9-19.69,16.78,16.78,0,0,0-1.84.18v16.12c0,1,1.63.51,1.84-.19,1.77-5.85,1.76-12,3.52-17.9.25-.83-1.77-.58-2,.18Z"/><path class="cls-2" d="M65,481.77v17.9c0,.31,2,0,2-.51V481.25a16.08,16.08,0,0,0-2,.52c0,6.58-.16,13.34,1.78,19.69.13.44,2-.11,1.93-.51-1.94-6.36-1.81-13.12-1.81-19.7,0-.3-2,0-2,.52v17.9c0,.31,2,0,2-.51V481.25c0-.3-2,0-2,.52Z"/><path class="cls-2" d="M74.05,481.19a21.76,21.76,0,0,0-7.8-1.79c-1.37-.08-3.3-.42-4.59.32-1.67,1-2.13,4.55-2.37,6.3-.45,3.31.49,6.75.55,10.07,0,.26,2.14,0,2.14-.51V481.25c0-.41-1.95.25-2.12.44-3.62,4-3.69,9.32-3.7,14.4,0,.26,1.84,0,1.88-.51a6.18,6.18,0,0,1,3.32-5.12c.81-.42-1.15-.17-1.47,0a6.92,6.92,0,0,0-3.82,5.63l1.92-.51c0-5,.15-10.31,3.74-14.25-.64.15-1.75.29-1.75.44v14.32c0-.17,1.12-.34,1.76-.51-.11-5.64-1.41-10.92,1.69-16-.53.18-1.1.36-1.63.55,3.67,0,7,.21,10.45,1.74.5.23,1.94-.57,1.8-.64Z"/><path class="cls-2" d="M227.93,476.4c0,4.75.12,9.75-1.83,14.19a16.5,16.5,0,0,1,1.88-.39V483c0-.58-1.85-.22-1.88.39-.19,3.66-1.58,7.08-1.77,10.74,0,.78,1.91.38,1.94-.25.19-3.66,1.53-7.08,1.72-10.74-.65.13-1,.25-2,.38v7.16c0,.71,1.83,0,2-.38,2-4.52,1.83-9.62,1.83-14.46,0-.58-1.89-.22-1.89.52Z"/><path class="cls-2" d="M224.35,494.3c-.18,3.21-1.24,6.24-1.71,9.4-.31,2-4.82,2.24-6.4,2.75-4.26,1.36-7.58,3.48-9.78,7.46-.12.23,1.64.13,1.9-.35,3.39-6.14,9.45-6.68,15.49-8.57.19-.06.63-.21.64-.46.21-3.66,1.58-7.09,1.79-10.74,0-.25-1.9,0-1.93.51Z"/><path class="cls-2" d="M63.22,503.25c2.58,4.32,8.75,3.92,13.11,3.93.26-.34.52-.91.78-.91H70c-.65,0-2.1.84-.78.91,3.75.18,7.06,1.82,10.35,3.47.52.26,2.3-.54,1.55-.91C77.49,508,74,506.37,70,506.18c-.26.33-.52.09-.78,1.09h7.16c.66,0,2.08-1.1.78-1.1-3.9,0-9.64.5-12-3.39-.36-.6-2.2,0-1.93.47Z"/><path class="cls-2" d="M75.74,512c.09,10.18,1.69,20.26,1.79,30.43,0,1.07,2,.81,2-.12-.1-10.18-1.69-20.26-1.79-30.43,0-1.07-2-.81-2,.12Z"/><path class="cls-2" d="M81.12,510.25c-.18,33.33-8.82,65.79-14.33,98.47l1.95-.19c1-12.1,2.32-24.19,4.35-36.17C75,561,77.49,549.12,83,538.88c.49-.91-1.47-.82-1.82-.15C75.82,548.67,73.4,560,71.4,571c-2.26,12.45-3.55,25.08-4.61,37.68-.08.93,1.82.57,1.95-.19,5.51-32.67,14.15-65.13,14.32-98.46,0-.94-1.94-.59-1.94.18Z"/><path class="cls-2" d="M210.35,515.09c-3.11,2.76-3.55,7.68-3.91,11.54-.69,7.25-.18,14.63.42,21.87,1.16,14.13,2.92,28.79,6.75,42.48.22.81,1.95.45,1.94-.33-.09-23.51-3.33-46.86-7.17-70-.14-.85-1.88-.41-1.95.34-1.18,14.08.36,28.56,2.48,42.48,1.93,12.67,4.24,27.76,11.94,38.43.51.7,2.35,0,1.77-.85-7.63-10.57-9.8-25.55-11.78-38.1-2.17-13.78-3.62-28.17-2.45-42.11l-1.94.33c3.82,23,7.05,46.25,7.15,69.64l1.94-.34c-3.32-11.89-4.87-24.48-6.2-36.72A177.76,177.76,0,0,1,208.15,531c.09-4.33-.12-11.89,3.48-15.06,1-.87-.55-1.51-1.28-.88Z"/><path class="cls-2" d="M97.42,517.74c5.17,1.38,11.67-.6,16.74-1.53,8.16-1.5,16.49-3.67,24.82-3.8.6,0,2.1-.93.8-.93-15.44,0-30.86,1-46.29,1.53q-5.49.18-11,.25c-1.23,0-4.7,1-.7.92,1.86,0,3.72-.07,5.58-.12,8.14-.21,16.26-.74,24.38-1.36,15.77-1.21,31.5-2.91,47.26-4.16,7.5-.59,15-1,22.52-1.31,1.86-.06,3.72-.1,5.58-.14l1.86,0c1.08.46,1.86.27,2.32-.58-5.05.89-10.15,1.47-15.26,1.94-32.24,2.93-64.6-1.83-96.85-2.28-1.2,0-5.08.9-.83.9l5.78,0,11.6.09q12.65.12,25.3.3c16.29.22,32.58.41,48.88.38,13.56,0,27.12-.26,40.66-.79.61,0,2.09-1,.8-.93-45.34,1.76-90.71,0-136.06,0-.61,0-2.1.93-.8.93,39.5.11,79.11,6.89,118.4,0,.54-.1,1.79-.91.56-.91-38.33.12-76.26,7-114.58,7.16-.61,0-2.1.93-.8.93,10.46,0,20.92-.48,31.37-.93,5.59-.25,11.17-.48,16.76-.65,2.44-.08,4.89-.13,7.33-.17,1.34,0,7.94-1.14,3.56-.85-6.36.43-12.69,1.84-18.95,3-5.6,1.06-13.52,3.79-19.2,2.27-.5-.13-2.23.66-1.56.84Z"/><path class="cls-2" d="M67.69,501.94c28,0,56.08-.05,83.89,3.57.14-.48.28-1,.41-1.45-25.95-.22-51-8.76-77-9,0,.48.07.95.1,1.42,22.42-7.21,46.36-5.6,69.56-5.56.05-.48.11-.69.16-1.69h-7.16c-1.12,0-1.47,2-.16,2h7.16c1.12,0,1.47-1.5.16-1.5-23.39,0-47.49-1.88-70.09,5.4-1,.31-1,1.4.11,1.41,26,.19,51,8.73,77,8.94.9,0,1.58-1.3.41-1.45-28-3.65-56.24-3.59-84.39-3.59-1.13,0-1.47,1.46-.16,1.46Z"/><path class="cls-2" d="M87.36,491.11c36.4-2.07,75.19-14.45,110.53,0l.92-1.26c-29.51-.19-58.22-8.76-87.73-8.95l-.18,1.25c35.78-7,72.37-7.11,108.7-7.11.85,0,2-1.3.69-1.3-36.68,0-73.58.11-109.72,7.21-.71.14-1.22,1.25-.18,1.25,29.5.19,58.22,8.76,87.72,8.95.61,0,2-.8.92-1.26-35.65-14.54-74.76-2.13-111.47,0-1,.06-1.53,1.38-.2,1.3Z"/><path class="cls-2" d="M93.81,579.9c0-15,1.56-31.82,8.29-45.44,1.66-3.35,4-6.58,7.29-8.43a9.64,9.64,0,0,1,5.59-1c1.61.14,1.86,10.45,1.88,11.42.37,13.55-4.62,26.56-3.51,40.2.07.85,2,.39,1.93-.52-1.43-17.53,6.59-34.5,1.79-51.92a.69.69,0,0,0-.62-.42c-11.14-1.68-16.59,9.76-19.42,18.62-3.83,12-5.13,25.1-5.18,37.64,0,1,2,.68,2-.16Z"/><path class="cls-2" d="M133,574.74c-.34.53-.22.66.38.41l1.09.19c-.6-2.3.77-6.11,1.14-8.4a58.18,58.18,0,0,0,1.12-8.7c0-7.47.4-14.49,3.57-21.36,1.41-3,2.41-5.39,4.63-7.92A44,44,0,0,0,151,520.9l-1.8.37c13.34,14.17,5.48,38.2,5.31,55.39,0,.55,1.92.2,1.93-.52.17-17.26,8-41.34-5.44-55.61-.37-.39-1.56-.07-1.79.37-2.65,4.86-7.77,8.36-9.84,13.47-2.6,6.4-4.38,12.46-4.51,19.43a95.54,95.54,0,0,1-1.16,13.4c-.38,2.4-1.77,6.24-1.14,8.65.1.4.83.26,1.08.2.86-.21,1-.8,1.31-1.57.22-.61-1.71-.36-1.93.26Z"/><path class="cls-2" d="M175.52,575.71c-2.51-.44-2.29-17.61-2.27-19.72.05-8.08.3-19.15,5.9-25.6,3.6-4.15,8.5-1.15,10.3,3,2.05,4.75,1.71,10.52,1.38,15.55a133.58,133.58,0,0,1-2.28,16c-.6,3.17-1.67,6.49-1.81,9.73,0,1,1.92.7,2-.16.17-4.13,1.58-8.4,2.32-12.46a98.08,98.08,0,0,0,1.92-20.43c-.22-7.26-4.79-19.38-14-13.07-7.56,5.18-7.52,19.63-7.64,27.57a90.48,90.48,0,0,0,1,15c.25,1.57.51,5.61,2.61,6,.94.17,2-1.16.67-1.38Z"/><path class="cls-2" d="M186.84,526.34c-6,6.44-7.11,15.93-7.63,24.36-.61,9.85.33,19.69.38,29.54,0,.38,1.81,0,1.92-.43,3.73-14,1.87-28.95,1.8-43.23,0-.12-.28-.31-.34-.31h-1.79c-.31,0-1.51.29-1.58.74-1.59,10.75-.35,21.8-3.56,32.31.64-.14.94-.2,1.94-.34V533.17c0-.33-2,0-2,.52v28.65c0,.48,1.76-.17,1.94-.43,6.12-8.89,5.38-22,5.39-32.32l-1.59.66c3.2,0,3.46,15.9,3.72,18.64.6,6.24,1.25,12.54,1.31,18.82,0,.33,1.94,0,1.93-.52a254.79,254.79,0,0,0-3.57-37.69c0-.12-.27-.23-.35-.23H183c-.35,0-1.59.23-1.59.75,0,10.33.79,23.29-5.34,32.18a18.5,18.5,0,0,1,1.94-.38V533.17c0-.33-2,0-2,.52V569.5c0,.38,1.82,0,1.94-.43,3.2-10.52,2-21.46,3.58-32.22l-1.57.56c1.23,0,1.45-.42,1.46,1.22,0,1.94.07,3.87.12,5.81.1,3.68.23,7.37.29,11.06.15,8.25-.06,16.63-2.2,24.65l1.92-.43c0-9-.74-17.89-.5-26.85s1.11-19.78,7.57-26.67c.42-.44-1.43-.2-1.75.14Z"/><path class="cls-2" d="M143.78,531.74c-.07,16.34-1.59,32.67,3.43,48.5.22.72,1.77.35,1.77-.35V519c0-.93-1.41-.49-1.72,0-9.66,16.39-3.7,37.79-3.56,55.67,0,.92,2,.56,2-.2-.06-16-1.89-32.54,1.81-48.34.22-.91-1.59-.41-1.87,0-7.71,12.15-9.18,31.69,0,43.44.39.5,1.55.18,1.8-.33a93.92,93.92,0,0,0,9-39.55l-1.94.19c.06,13.94,1.57,28.28-5.31,41-.48.9,1.47.79,1.82.14,6.94-12.84,5.5-27.27,5.44-41.34,0-.93-1.94-.57-1.95.19a93.27,93.27,0,0,1-8.89,39.22l1.8-.33c-9-11.48-7.5-30.64,0-42.5l-1.88,0c-3.71,15.8-1.85,32.28-1.79,48.34l1.94-.2c-.14-17.76-6.26-39.06,3.34-55.33l-2.08,0v60.87c1-.12,1.48-.24,2.13-.36-5-15.71-3.55-32-3.48-48.17,0-.93-1.85-.57-1.85.19Z"/><path class="cls-2" d="M102.69,535.24c-3.41,5-3,12.16-2.65,18a74.23,74.23,0,0,0,4.36,21.67c.22.57,1.79.08,1.92-.4,4.09-15,3.59-31.23,3.59-46.67,0-.62-1.67.08-1.85.28-5.63,6-6.21,15.76-6.53,23.57a94.31,94.31,0,0,0,2.87,28.59c.16.57,1.82.08,1.92-.4,3.36-16,2.19-32.63,7.17-48.34.2-.65-1.62-.14-1.85.16-5.51,7.28-7,17.89-8,26.69-.83,8-1.49,19.21,4.37,25.57.4.43,2.23-.25,1.81-.72-6-6.5-5-18.33-4.13-26.35.86-8.27,2.54-18.42,7.69-25.23l-1.85.16c-5,15.72-3.8,32.33-7.16,48.34l1.93-.4c-2.31-8.41-3-17.32-2.93-26,0-8.21.49-19.27,6.43-25.67l-1.85.28c0,15.38.49,31.46-3.58,46.43l1.93-.4a76.17,76.17,0,0,1-4.13-19.06c-.68-6.24-1.45-14.58,2.26-20.09.45-.66-1.47-.41-1.77,0Z"/></svg>