<svg id="layer1" xmlns="http://www.w3.org/2000/svg" viewBox="0 0 311.48 408.3"><defs><style>.cls-1{fill:#f7ba31;}.cls-2{fill:#492d0c;}</style></defs><path class="cls-1" d="M64.85,316.84a3.54,3.54,0,0,0,3.44,2.6,3,3,0,0,0,1.92,1.4,134.87,134.87,0,0,0,38,4c10.31-.3,20.93-1.75,30.59-5.58,15.14-2.34,30.4-5.84,44.37-12.25l.65-.31c1.47-.4,2.94-.81,4.43-1.2a3.08,3.08,0,0,0,2.36-2.57l.07-.05c1.33-.39,2.65-.83,3.95-1.3,4.79,3.84,13.16,4.71,17.06.89a3.89,3.89,0,0,0,1.53-.68,17.17,17.17,0,0,0,2-.45,22.33,22.33,0,0,0,11.27-4.45c3.66-1.17,7.23-2.66,11-3.71a3.3,3.3,0,0,0,1-.47c3.55,1.15,7.11,2.27,10.7,3.22a3.31,3.31,0,0,0-1.54.74,3.69,3.69,0,0,0-1,.13l0,0a3,3,0,0,0-1.47-.84c-7.15-1.65-14,.88-19.43,5.57a25.14,25.14,0,0,0-9.44,1.59,28.81,28.81,0,0,0-6.7,2,3.34,3.34,0,0,0-2.52,1.3,3.09,3.09,0,0,0-1.38,1.72q-4.83-1.62-9.79-2.9a3.42,3.42,0,0,0-4.19,2.95,3.21,3.21,0,0,0-1.15.12l-3.25-.11c-4.33-.18-4.31,6.54,0,6.72a30.4,30.4,0,0,1,7.8,1.54,48.09,48.09,0,0,0,6.7,2.18,3.32,3.32,0,0,0,1.78,0,3.86,3.86,0,0,0,1.3.81c11,4.14,23.59,4.33,35.4,2.82a3.55,3.55,0,0,0,1.67.38,202.52,202.52,0,0,0,21.41-.95,10.85,10.85,0,0,0,7-1,69,69,0,0,0,8.5-2.13c5.57-1.82,5.68-5.65,4.13-9.58a3.38,3.38,0,0,0-.4-1.37c-.29-.5-.54-1-.77-1.47a7.88,7.88,0,0,0-2.07-4.59,2.82,2.82,0,0,0-2-1.12,3.62,3.62,0,0,0-3.6,0c-.95-.18-1.89-.31-2.76-.41a19.44,19.44,0,0,0-6-1c-.32-.12-.66-.22-1-.34,1,.07,2,.12,3,.13,3.64.05,4.19-4.38,1.7-6.26-15.63-11.74-36.33-13.89-54.69-18.81a3.07,3.07,0,0,0-2.94.63,3.18,3.18,0,0,0-3.11,1.79c-.72-.32-1.44-.63-2.17-.93a53.22,53.22,0,0,0,19-19.21c6.77-7.64,11.4-17.25,9.23-27.66a2.73,2.73,0,0,0-.26-.69,4,4,0,0,0,.26-.6c3.87-11.89,1.12-24.43-.77-36.42a3,3,0,0,0-3.36-2.41c-.37-1.51-.78-3-1.26-4.52a3,3,0,0,0-.5-1,34.67,34.67,0,0,0-1.4-5.66c-2.93-8.47-10.44-12-19-11.22a3.58,3.58,0,0,0-3.28,3.74,5.09,5.09,0,0,0-.3.5,3.16,3.16,0,0,0-1.63,4.66,27.8,27.8,0,0,0,2.12,3.24,3.79,3.79,0,0,0-.15,2.12c.08.39.18.78.28,1.17-.33-.74-.68-1.49-1.06-2.22-1.86-3.53-6.88-1-6.14,2.59.31,1.52.61,3,.89,4.49a3.41,3.41,0,0,0-.55.69,3,3,0,0,0-1.39-1.92,138.21,138.21,0,0,0,1.48-14.93,3,3,0,0,0-1.54-2.77,3,3,0,0,0-4.28-.9c-5.92,4.51-9.14,11.34-11.7,18.48-7.65,5.8-14.94,12.07-22.4,18.13a79.61,79.61,0,0,1-13.57,4.37c-1.81.33-3.61.66-5.41,1-3.25.64-3,4.35-.83,5.87a3.6,3.6,0,0,0-1.51,3.65c1.66,11.58,7.83,22,9,33.61q-.51,3.48-1.32,6.94a3.32,3.32,0,0,0-.08,1.2,10.89,10.89,0,0,0-4.29,6.26,24.51,24.51,0,0,0-11,8,3.34,3.34,0,0,0-2.35.23q-1.89.94-3.72,1.95a3.49,3.49,0,0,0-1.67.36c-1,.51-2.1,1-3.09,1.54l-.13.05a3,3,0,0,0,.57-1.77c.08-10.86,1.36-21.71-.89-32.45a3.11,3.11,0,0,0-.52-1.21c.08-2.09.17-4.18.18-6.27l.15-.52a2.53,2.53,0,0,0,.85-1.29c1.77.87,4.24.36,4.73-2,1.65-8,3.79-15.81,4-24a3.11,3.11,0,0,0-.58-2l1.15-1.2a3.09,3.09,0,0,0,3.16-.07c2.23-1.43,4.56-2.7,6.82-4.08a3,3,0,0,0,3.92,2.1,45.88,45.88,0,0,0,8.5-3.41,2.88,2.88,0,0,0,.9-.68c12.76-2.66,27.11-10,29.89-22.11l0-.15a22.46,22.46,0,0,0,4.44-9,3.37,3.37,0,0,0,2.89-5,24.79,24.79,0,0,0-2.49-3.87c-1-1.75-2-3.53-2.9-5.36a2.87,2.87,0,0,0-1.8-1.52,39.47,39.47,0,0,0-3.58-8.49l-.2-.28c3.89-1.33,8.21-4,8.34-7.86a18.58,18.58,0,0,0,2.81-6.27c1,3.31,3.56,7.51,7.61,5.66a6.22,6.22,0,0,0,2.22-1.69s0,0,0,.07c.08.31.48.39.89.33-.67,1.3-2,2.07-4.24,1.91-.56,0-2,1-.9,1.14.08,0,.14.47.22.48v.46h0c11.15,2,7.87-10.83,5.08-17.45,0-.1-.12-.4-.21-.45-.55-1.86-1.09-3.83-1.53-5.71a22.34,22.34,0,0,1-.22-7.46.87.87,0,0,0,.43-.51,7,7,0,0,0,.2-2.46c0-.5,0-1,0-1.5a2.31,2.31,0,0,0-.21-1.6c-.07-.35-.54-.42-1-.32s-.87.31-.87.66a37.17,37.17,0,0,1-.46,5,.67.67,0,0,0-.31.42,31.16,31.16,0,0,0,.77,11.71c-.62-.23-1.75.19-1.53.75.64,1.59,1.27,3.18,1.91,4.78-.26.15-.43.37-.37.61.55,2.19,1.09,4.37,1.64,6.55a6.67,6.67,0,0,1-.44,1.58c-2.48,5.89-6.53-1.89-7-4-.12-.45-.88-.44-1.39-.18.21-1,.38-1.95.52-3a3.4,3.4,0,0,0,1.76-2.77c.9-10,3.64-19.86,3.08-30a3.44,3.44,0,0,0-2.47-3.23,20.21,20.21,0,0,0-7.17-1.06,4.58,4.58,0,0,0-3.79,1.15,2.78,2.78,0,0,0-1,2.67A3.3,3.3,0,0,0,178.86,93a4.93,4.93,0,0,0-6.22-.91,7,7,0,0,0-4.56-2.48c-3-.34-5.39,1.58-7.16,3.82a3.72,3.72,0,0,0-2.79,2.1c0-.15-.09-.3-.14-.45-1.63-4.83-6.2-7.63-10.53-9.73-3.8-1.85-7.13,3.57-3.53,5.71,0,.12,0,.26,0,.39a3.06,3.06,0,0,0-.76,2.18q0,1.76.15,3.48a3.51,3.51,0,0,0-.87,1.69,3,3,0,0,0-3.61-1.44c-2.52-.5-5.43,2.11-3.68,4.9s3.31,5.43,5.91,7.6l.07,0c.56.79,1.13,1.57,1.71,2.35a3.8,3.8,0,0,0,2.81,1.54.53.53,0,0,1,0,.13c-.51-.17-1.59.24-1.59.74,0,4.49.05,9,.37,13.45a18.7,18.7,0,0,1-2.61,6.31.25.25,0,0,0-.06.17l-.45,0a4.64,4.64,0,0,1-3.74-5.29,25.07,25.07,0,0,1,1.91-5.18c.45-.07.95-.28,1-.57l2.31-6.93c0-.13,0-.22-.15-.28.06-.16.1-.32.15-.49.21-.66-1.62-.25-1.85.25-1.19,2.55-2.12,5.21-3.22,7.8-1.93,3.72-3.68,8.16.25,10.69,3.62,2.33,6.87.61,8.72-2.35a3,3,0,0,0,2.87,1.72,4,4,0,0,0,.95-.13h0a3.44,3.44,0,0,0,3.33,1.63A36.65,36.65,0,0,0,159,140a22.66,22.66,0,0,0,4.09,2.36,3.49,3.49,0,0,0-.59,1.19c-.28,1-.54,2-.79,3.06a3,3,0,0,0-1.43.85c-8.13,8.71-17.47,12.82-28.55,16.52-7.24,2.41-14.48,6.08-19.25,12.2-9.54,12.23-5.63,29.9-3.09,43.82a3.53,3.53,0,0,0,.35,1c0,3.32.12,6.65.19,10a35,35,0,0,0-2.28,8.2c-4.5,8.56-3.61,19.18-2.11,28.55a2.68,2.68,0,0,0,.68,1.4,63.11,63.11,0,0,0,.86,7.83c0,.06,0,.11,0,.16a4.1,4.1,0,0,0-1.24,1.1c-.25.34-.48.69-.72,1a3.76,3.76,0,0,0-1.59,1.28,18.17,18.17,0,0,0-2,3.6,90.27,90.27,0,0,0-14,5.64,57.16,57.16,0,0,0-10.53,5.72c-.12.09-.22.18-.33.28-2.2.55-4.38,1.16-6.5,1.87-6.76,2.28-16,8.71-9.5,16.26A12.08,12.08,0,0,0,64.85,316.84Zm82.9-189.09a2.2,2.2,0,0,0-1.31.5l-.08.12c0-.22,0-.44-.05-.66a25.09,25.09,0,0,0,.49-3.77,27.82,27.82,0,0,0,1.24,3c0,.17.09.34.13.52A2.52,2.52,0,0,0,147.75,127.75Zm14.42,43.64.31-.72c-.13.74-.25,1.47-.35,2.2a3.51,3.51,0,0,0-.37-.4ZM133.91,189.6a3.32,3.32,0,0,0-.38-.46l1.7-1.4C134.77,188.36,134.34,189,133.91,189.6Zm6.33-21.32c1.78-.6,3.5-1.3,5.19-2.06a61.72,61.72,0,0,0-5.29,4,2.58,2.58,0,0,0-2.07-.64,19.93,19.93,0,0,0-4.69,1.22h-.66C135.23,169.89,137.78,169.11,140.24,168.28ZM106.5,300.35l-.86-.14a2.39,2.39,0,0,0-.48-.24,4,4,0,0,0-.12-1,.2.2,0,0,0,.08,0c.22-.12.42-.25.62-.38a3.23,3.23,0,0,0,.88,0l.92,0,.12.16A3.14,3.14,0,0,0,106.5,300.35Zm18.22,16,.39-.1a3.22,3.22,0,0,0,1.23-.68l1.9,0C127.07,315.84,125.9,316.1,124.72,316.32Zm33.47-34.81a46.71,46.71,0,0,1-4.48,1.57c.74-.68,1.52-1.32,2.33-1.93h.16Zm-17.75,15.34a3.2,3.2,0,0,0-.65-.56,29.13,29.13,0,0,0,3.48-1.1l.76-.32c1.45-.32,2.89-.67,4.34-1,.19,0,.38-.1.58-.09a3.12,3.12,0,0,0,2.2.68h.9c.36,0,.72.27,1.08.27s.66.19,1,.22c.1.14.2.33.29.48a1.49,1.49,0,0,0,.15.2A50.38,50.38,0,0,0,140.44,296.85ZM172.82,299A77,77,0,0,0,161,296.26a2.61,2.61,0,0,0,.46-.85c1.2,0,2.4-.05,3.6-.15a49.39,49.39,0,0,0,16.05,1.22c-1.78.68-3.54,1.43-5.26,2.24C174.83,298.82,173.82,298.9,172.82,299Zm45.77-8.73-1,.18c0-.1,0-.19-.05-.28ZM207,186.52c.05.36.11.71.16,1.06-.09-.46-.18-.93-.3-1.38C206.91,186.3,207,186.42,207,186.52Zm-4.08,39.74c.64-7.58,2.85-15.06,4.09-22.57a30.8,30.8,0,0,0,.38-4.49,3.31,3.31,0,0,0,.23-.9,36.23,36.23,0,0,0-.08-8.4,93.71,93.71,0,0,0,4.39,16.51,3.39,3.39,0,0,0-.25,1.12C211.24,218,214,228.09,217.27,238c-.56,2.67-1.16,5.34-1.75,8a4,4,0,0,0-.63.23c-5.3,2.36-9.33,6.41-12.62,11.07C200.15,247.32,202.1,236.05,202.92,226.26Zm-30.15-16.35a3.67,3.67,0,0,0,.69-1c-.37,1.79-.72,3.54-1,5.24a4,4,0,0,0-2.94-.6C170.55,212.31,171.63,211.08,172.77,209.91Zm-6.31,7.26c-1.21,2.49-2.31,5-3.3,7.63a4,4,0,0,0-2.42-1.29A82.4,82.4,0,0,0,166.46,217.17Zm-10,39.62c0,.77-.08,1.54-.1,2.31a3.12,3.12,0,0,0-1.32-.27l-.45,0A11.16,11.16,0,0,1,156.42,256.79Zm-4.34-21c.38-.29.75-.59,1.12-.89-.29.74-.56,1.49-.82,2.23a3.68,3.68,0,0,0-2.87-.44l-.15-.47A2.6,2.6,0,0,0,152.08,235.84Zm-28,48.41a4.35,4.35,0,0,0,.24,1,3.14,3.14,0,0,0,2.08,4.68,3.51,3.51,0,0,0,2.4,1.05c.34,0,.66,0,1,0a2.7,2.7,0,0,0-1.22,2.43c-1.73-.28-3.47-.52-5.22-.71a38,38,0,0,0-1.7-7.14C122.51,285.12,123.32,284.71,124.11,284.25Z"/><path class="cls-1" d="M180.77,349.5A52.2,52.2,0,0,0,175.61,329a3.31,3.31,0,0,0-4-1.46,16,16,0,0,0-5.71-6.67,3.36,3.36,0,0,0-4.59,1.21,38.77,38.77,0,0,0-3.29,23.22,20.16,20.16,0,0,0-2.49,1.43c-.27-6-2.67-11.62-6.12-17a3.88,3.88,0,0,0-4.83-1.11,18,18,0,0,0-2.54-2.4c-2.08-1.55-5.1.55-5,2.9,0,.69,0,1.38.09,2.08a3.32,3.32,0,0,0-3.82,2.71,2.75,2.75,0,0,0-1.2,1.21c-.2.45-.38.94-.56,1.47h-.17c-.37-2-2.61-3.56-4.41-3.12a2.9,2.9,0,0,0-4.34.2,14.93,14.93,0,0,0-1.3,1.72,3.26,3.26,0,0,0-4.86-.18,17.54,17.54,0,0,0-3.75,7.44q-1.14-1.67-2.13-3.42a44.14,44.14,0,0,0-2.7-4.88,3.24,3.24,0,0,0-4.06-1.33c-1.25-1.59-2.5-3.18-3.64-4.82-1.81-2.62-6.16-1.85-6.25,1.59a3,3,0,0,0-.47.25L92,328.32c-2.6-3.09-6.85.83-5.27,4.07,2.18,4.47,4.08,9,6.53,13.22a12.33,12.33,0,0,1-5.5-2.21,3.19,3.19,0,0,0-.38-.46c-2.21-2.21-4.41-4.42-6.57-6.67-3.54-4.38-6.75-9.07-11.13-12.57a3.46,3.46,0,0,0-3.66-.61c-1.85-1.61-3.7-3.21-5.58-4.78a3.47,3.47,0,0,0-4.92.35c-.77-.9-1.53-1.81-2.25-2.75-2.57-3.34-8.35-.2-5.8,3.39,1.76,2.49,3.64,4.88,5.6,7.2a3,3,0,0,0,.31,4.25L69.5,344.61a3.3,3.3,0,0,0,2.42.84l.56.46a3.24,3.24,0,0,0,.87.47l1.39,1.19a12.33,12.33,0,0,0-1.26,1.6c-3.65,3.27-5.85,7.92-10.23,10.95a3.38,3.38,0,0,0,2.59,6.14A75.09,75.09,0,0,0,86,358.83a2.39,2.39,0,0,1,.32.16,2.92,2.92,0,0,0,.36.17,21.09,21.09,0,0,0,1.18,7.06,3.89,3.89,0,0,0,2,2.1,28.89,28.89,0,0,0,2.15,3.32c1.17,1.56,3.78,2.53,5.28.68,2.12-2.61,3.77-5.8,5.65-8.76a2.86,2.86,0,0,0,.51-.48,16.73,16.73,0,0,0,1.74-2.5c.18-.25.36-.49.55-.73a4.41,4.41,0,0,0,3.18,2.23,9.27,9.27,0,0,0,2.72.11,16.05,16.05,0,0,0,.82,3.26,3.42,3.42,0,0,0,3.63,2.38c.89,1.51,2.65,2.46,4.38,1.17.54-.4,1.06-.8,1.57-1.2a3.32,3.32,0,0,0,5.36-1.58,32.74,32.74,0,0,0,1.66-7.82,2.8,2.8,0,0,0-.81-2.19,18.56,18.56,0,0,0,1.32-2.39,3,3,0,0,0,1-1.73c.82,4.2,2.71,7.69,6.13,8.72.73,3.19,2.3,6.24,5.06,7.82a3.39,3.39,0,0,0,6,.81,9,9,0,0,0,4.82-3.9,3,3,0,0,0,1-.39c1.42-.88,2.45-2.21,3.85-3.08,2.72-1.69,1.56-5.33-.72-6.15a3.21,3.21,0,0,0,.72-1.24,5.6,5.6,0,0,1,2.61-3.14,17.39,17.39,0,0,0,2.24,3.44,3.32,3.32,0,0,0-1.32,3.54c.87,4.25,2.84,8.12,3.85,12.32.65,2.7,3.75,2.94,5.61,1.48a48.8,48.8,0,0,0,4.23-3.73,3.07,3.07,0,0,0,3.56-2.37,9.91,9.91,0,0,1,1.2-3.05,3.76,3.76,0,0,0-1.38-4.62,3.55,3.55,0,0,0,2.61-3.23c0-.39,0-.77.07-1.16a3.28,3.28,0,0,0,.58-2.81C181.18,350.74,181,350.12,180.77,349.5Zm-6.43,9.44a8.65,8.65,0,0,0-1.16-3l.06-.11A21.17,21.17,0,0,0,175,357.7a4.14,4.14,0,0,0,.54.42A2.86,2.86,0,0,0,174.34,358.94Z"/><path class="cls-1" d="M209,359.81a10.6,10.6,0,0,1,.12-2.18,2.72,2.72,0,0,0-2.41-3.15l0-.05c-4-10.24-8.53-20.22-13.42-30.05a2.84,2.84,0,0,0-4-1.37c-.09-.3-.17-.61-.26-.91-1.16-3.88-6.14-2.7-6.6.89a15.87,15.87,0,0,1-1,3.6,3.2,3.2,0,0,0-.11,3.49,42.45,42.45,0,0,1,3.73,9.12c-.82,6.1-.39,12.27-.34,18.43a3.34,3.34,0,0,0,3.18,3.27,3.3,3.3,0,0,0,.36.73c.21.32.45.62.67.92a7.88,7.88,0,0,0,4.39,4.75,55.43,55.43,0,0,0,7.69,5.55,3.38,3.38,0,0,0,4.93-2c.31-1.54.6-3.08.93-4.61a6.67,6.67,0,0,0,1.22.15C212.11,366.46,212.4,360.77,209,359.81Zm-16.88-5.05c.06-.33.13-.67.2-1l.41.73A6.65,6.65,0,0,0,192.16,354.76Z"/><path class="cls-1" d="M287.66,325c-.16-3.65-5.28-3.8-6.55-.62a3.16,3.16,0,0,0-2.34.37c-4.38,2.63-6,7-6.68,11.65-.36.67-.7,1.35-1,2-.46.66-.94,1.29-1.45,1.9-2.72,1.08-4.11,2.3-6.17,4.95a3.71,3.71,0,0,0-.68,3.42c-.46.41-.94.8-1.44,1.18a3.65,3.65,0,0,0-1.61,0,3.23,3.23,0,0,0-.78-.5c.27-1.06.51-2.11.88-3.14a2.85,2.85,0,0,0-.46-2.76,16.85,16.85,0,0,0,1.35-5.83,2.91,2.91,0,0,0-3.18-3.22c.05-.46.08-.93.11-1.4.14-3.28-4.76-4.68-6.26-1.7v0a3.15,3.15,0,0,0-.44.11,3.24,3.24,0,0,0-1.27-.26c-3.27,0-5.65,3-7.6,5.55a16.4,16.4,0,0,0-6.69,6.08q-.06-.71-.18-1.47a2.77,2.77,0,0,0-2.27-2.32c0-.21.06-.42.08-.63.38-3.09-3.45-4.05-5.5-2.51-.53-5.07-2.75-9.06-8.39-8.49-5,.5-7,5.39-7.87,11.09a17.59,17.59,0,0,0-1.51,5,13.27,13.27,0,0,0,.81,6.39,49.1,49.1,0,0,1-.3,5.35,3.74,3.74,0,0,0,2.33,4,12.39,12.39,0,0,0,8.88,10.38c4.19,1.15,7.07-1,8.64-4.19a3.31,3.31,0,0,0,2.79-.28,12.42,12.42,0,0,0,2.31-3.08c3.28-2.28.61-7.46-2.65-6.19a24.59,24.59,0,0,0,1.25-4.51c.16-.36.3-.7.44-1.05a3.05,3.05,0,0,0,.13.32c-.08.24-.17.47-.26.71-1,2.79,2.53,5.32,4.94,3.79a23.39,23.39,0,0,0,3.55-2.77l.41-.1.2.05-.06.23a3.75,3.75,0,0,0-1,4.47c1.92,4.19,5,7.45,8.22,10.68a3.13,3.13,0,0,0,3.4.77,3.8,3.8,0,0,0,4.46-2.12,2.91,2.91,0,0,0,2.8-1.64,30.67,30.67,0,0,0,2.43-8.12,37.2,37.2,0,0,0,9.08-8.67q0,1-.06,2a3.51,3.51,0,0,0,1.37,2.7,2.9,2.9,0,0,0-.6,1.92,32.68,32.68,0,0,0,.52,3.94l-.18-.16c-3.17-2.93-7.93,1.8-4.74,4.75,1.89,1.76,4.27,2.88,6.15,4.62a3.39,3.39,0,0,0,5.74-2.37c0-1.27,0-2.52-.08-3.77a3.78,3.78,0,0,0,.08-.85,18.2,18.2,0,0,0-.29-2.45,45.24,45.24,0,0,0-.6-4.6,2.94,2.94,0,0,0-.84-1.59c7.88-4.73,7.76-16.07,9.3-24.34A3.66,3.66,0,0,0,287.66,325ZM250.89,353.3l-.88-.22a7.59,7.59,0,0,1,1.71-2.8c0,.14,0,.28,0,.42a3.28,3.28,0,0,0,.39,1.69A3.64,3.64,0,0,0,250.89,353.3Z"/><path class="cls-2" d="M173.13,44.74c.33-2.16-.62-4-2.93-4.18a5,5,0,0,0-4.86,3.57c-.23.7,1.72.45,1.94-.23.35-1.07,1.2-2.43,2.51-2.15s1.58,2.08,1.4,3.22c-.12.79,1.83.46,1.94-.23Z"/><path class="cls-2" d="M171.14,43.72c-1.36.75-3.47.36-5,.76A10.19,10.19,0,0,0,163.22,46c-3,2-5.36,5.22-7.44,8.1-1.47,2-3.48,4.52-2.43,7.16.53,1.31,4.05,2.67,4.05,3.81,0,.84,1.94.43,1.94-.23,0-1-1-1.47-1.72-2-3-1.93-3.12-4-1.2-7a41.21,41.21,0,0,1,7.33-8.74c2.62-2.31,5.8-1.22,8.6-2.76,1.14-.63-.57-1-1.21-.6Z"/><path class="cls-2" d="M170.84,44.79c3.4,1.9,6.12,4.77,8.84,7.51a16,16,0,0,1,3.89,5.52c1.2,3.17-3.2,5.46-5.3,6.7-.53.31-.44.92.18.92H181c.62,0,2.09-1.18.79-1.18-2.44,0-1.07-.16.33-1.05a9.84,9.84,0,0,0,2-1.62c1.76-2,1.91-3.52.69-5.85-2.3-4.43-7.87-9.26-12.14-11.64-.54-.3-2.21.47-1.81.69Z"/><path class="cls-2" d="M158.61,65.47c-5.65,2.91-15,3.8-17.8,10.62a16.73,16.73,0,0,0-.84,8.56c.63,5.64,2.1,11.11,2.54,16.81.78,10.22-1.29,21.28,2.78,31,3.11,7.4,13.15,8.94,18.87,13.49.53.42,2.31-.34,1.79-.75-5.43-4.33-12.71-5.74-17.35-11.1-5.51-6.34-3.86-18.07-3.89-25.75-.05-9.07-2.45-17.62-3-26.56C141,71,152.38,69.86,159.8,66c1.16-.59-.57-.88-1.19-.55Z"/><path class="cls-2" d="M165.27,145.54c10.06.79,22.94-3.22,27.64-12.89,2.94-6,2.78-14.76,3.5-21.32.93-8.46,1.23-17.28,1.37-25.79,0-.36-1.93-.08-1.94.52a355.49,355.49,0,0,1-2.66,36c-.61,5.13-1.06,10.07-4.27,14.33-4.82,6.4-14.94,8.89-22.4,8.31-.44,0-2.23.76-1.24.83Z"/><path class="cls-2" d="M178.71,65.59c.16,1.24,2,1.51,3,1.81,3.16.94,5.79,1.76,8.49,3.77,5.24,3.91,6.65,10.38,6.48,16.56,0,.29,1.92,0,1.93-.52.14-5.09-.66-10.56-4.26-14.46a22.44,22.44,0,0,0-7.49-5.24c-1.45-.67-6-.42-6.21-2.44-.05-.37-2,0-1.94.52Z"/><path class="cls-2" d="M141.91,86.61C149,85.29,155.32,86.31,160,92c.32.39,1.53-.13,1.79-.39,3.67-3.73,9.46-4.71,11.94.31.23.47,1.44,0,1.71-.2A19.79,19.79,0,0,1,185,87.18c3.58-.59,7,.16,10.59-.13-.55,0-2.1,1-.82.85a5,5,0,0,0,2.41-.79c.36-.21.2-.43-.13-.48a48.12,48.12,0,0,0-15,.24c-3.3.45-5.63,2.76-8.13,4.72l1.71-.2c-3.23-6.55-11.5-3.88-15.63.31l1.79-.39c-5-6.12-12.08-6.89-19.54-5.49-.8.15-1.69,1.05-.34.79Z"/><path class="cls-2" d="M167.36,100.45c.21-.13,1.31-.15.41-.23a1.66,1.66,0,0,0-.54.06c-.3.08-1,.43-.81.86.05.13.11,0,.18.14s.33.16.61.16h.42a1.08,1.08,0,0,1-.61-.16v.17c.07.37.59.46.87.45a2,2,0,0,0,1.58-2.23.64.64,0,0,0-.62-.38,1.62,1.62,0,0,0-1.08.32l1.2-.22c-1.32-.38-3.14,0-3.37,1.59s1.8,2.31,3.12,2.18,3.44-1.32,2.67-3a4,4,0,0,0-4-2c-1.61.16-3.52,1.61-3.31,3.36s2.44,2.35,3.77,2.53a5.2,5.2,0,0,0,4.94-2.29c1.07-1.71,0-3.8-1.55-4.78-.65-.42-2.38.48-1.5,1,1.84,1.2,2.14,4.39-.55,4.73-1.58.2-4.45-1.45-2.5-3,1.29-1,3.88,1.38,2.5,2a1.11,1.11,0,0,1-1.64-1,.72.72,0,0,1,.11-.35c-.07.13-.3,0,0,.1a1.66,1.66,0,0,0,1.48-.21l-1,.26h0l-.61-.39a3.85,3.85,0,0,1-.32.75c.3-.14.6-.52.9-.52h0c.29,0,.58.37.87.5a.22.22,0,0,1,0-.08.68.68,0,0,0-.62-.42h-.42c.21,0,.41.35.62.48a1.54,1.54,0,0,1-.17-.34c-.27.29-.54.6-.81.88,0,0,0,0,0,0l-.91-.07a1.89,1.89,0,0,0,1.94-.16c.32-.21.52-.68.12-.92a1.35,1.35,0,0,0-1.37.14Z"/><path class="cls-2" d="M176,105.71c1.48-2.68,11.9-4.92,13.54-1.69.3.59,2.16,0,1.93-.51-1.39-2.75-6.5-1.84-8.87-1.46-2.68.43-7.07,1.31-8.52,3.94-.23.44,1.62.27,1.92-.28Z"/><path class="cls-2" d="M164.29,105.91c-4.14-4-12.35-4.88-17.56-2.89-1.27.48-.09,1,.73.65,4.38-1.67,11.6-.34,15,3,.44.42,2.25-.3,1.81-.72Z"/><path class="cls-2" d="M141.2,96.94c-4.3,0-8.49.82-6.22,6.24,1.16,2.78,3.75,4.68,4.88,7.53,2,5.06-2,12.23-4.07,16.71-2.25,5-1.88,9.27,3.79,10.92,3.4,1,7.67.3,8.9-3.36.23-.68-1.71-.42-1.94.24-1.43,4.26-7.26,2-9.21.21s-.9-4.82-.19-6.83c1.35-3.88,3.33-7.45,4.5-11.43.84-2.85.9-6.46-.83-9-1.9-2.8-8.9-10-.36-10.1.74,0,2.05-1.13.75-1.12Z"/><path class="cls-2" d="M141.94,122.25c-.15,3-2.63,5-3.79,7.65-.7,1.57-1.16,4.25.81,5.1,1.51.65,3.41-.33,4.3-1.57,1.89-2.64.53-6.07,2.23-8.72.53-.82-1.43-.7-1.81-.11-1.12,1.74-1,3.84-1.18,5.83-.09,1.11-1.81,5.28-2.87,2.67-.76-1.88.84-4.24,1.85-5.7,1.14-1.67,2.3-3.26,2.4-5.36.05-.87-1.9-.51-1.94.21Z"/><path class="cls-2" d="M195,97.15l0,.57c0,.61.71.73,1.16.6,6.5-1.78,1.85,8.41,1.44,10.39a24.81,24.81,0,0,0,.3,11.62c1,3.67,3.61,6.68,4.55,10.42,1.76,7-7.3,5.93-10.71,3.6-.27.43-.55,1.09-.82,1.09h.83c1.12,0,1.48-1,.17-1H191c-.54,0-1.55.75-.82,1.25,2.79,1.92,6.93,3,10.2,1.63,4.93-2,4.46-6.73,2.52-11-1.48-3.22-3.2-6-3.77-9.51-.84-5.36,1.47-9,2.39-14,.66-3.58-1.94-7-5.8-5.89l1.16.6,0-.57c.06-1-1.91-.75-2,.14Z"/><path class="cls-2" d="M193.75,121.57c1.14,4,4.46,7.76,3.77,12.12l1.15-.59c-3.47.75-2-7.39-2.57-9.12-.13-.41-2,.15-1.93.51,1,3-1.46,10.46,4.12,9.26.3-.06,1.09-.19,1.16-.58.69-4.35-2.63-8.13-3.76-12.12-.12-.4-2,.14-1.94.52Z"/><path class="cls-2" d="M174.1,110.25a19.3,19.3,0,0,0,16.45-.51c1.15-.63.1-1.62-.85-1.09-4.44,2.43-9.88,2.25-14.47.33-.79-.33-2.25.8-1.13,1.27Z"/><path class="cls-2" d="M162.66,110.25c-4.85.16-10.52,3.06-14.68-.62-.57-.5-2.39.26-1.78.8,4.76,4.21,10.68,1.23,16.24,1,1,0,1.55-1.27.22-1.23Z"/><path class="cls-2" d="M164.51,109c.71,2.44,1.81,4.51,2,7.1.13,1.55.24,3.13.24,4.69,0,.39,2.13.09,2.13-.52v-.51c0-.4-2-.09-2,.52v.51c0,.39,1.77.09,1.77-.52,0-1.29-.08-2.57-.1-3.85,0-2.94-1.31-5.2-2.11-7.94-.15-.51-2.11,0-2,.52Z"/><path class="cls-2" d="M170.78,109c-.09,4.06-1.15,8.11,0,12.11.17.61,2.1.08,1.93-.52-1.14-4-.08-8.06,0-12.11,0-.5-1.92-.18-1.93.52Z"/><path class="cls-2" d="M166.41,119.84c-2,0-5.21,1.31-4.78,3.79.37,2.16,4.1,1.68,5.58,1.67a1.44,1.44,0,0,0,1.27-.57c.21-.39-.19-.72-.57-.72-1.15,0-3.18.41-4.11-.46-.56-.52-.21-1.37.3-1.77a3.67,3.67,0,0,1,2.11-.67c1,0,1.53-1.31.2-1.27Z"/><path class="cls-2" d="M171.65,121.15a2.69,2.69,0,0,1,3.19,1.44c.65,1.45-2,1.53-2.76,1.39s-2,1.12-.68,1.35c1.7.3,5.8-.31,5.48-2.81a3.49,3.49,0,0,0-2.36-2.58,5.92,5.92,0,0,0-2.68-.14c-.42.07-1,.26-1.07.76s.52.65.88.59Z"/><path class="cls-2" d="M160.23,132c1.54-.42,6-2.73,7.14-2.08a3.88,3.88,0,0,0,3.3.41c1.82-.46,2-1.45,4.13-.29a27.74,27.74,0,0,0,3.49,1.95c.85.31,2.27-.91,1.11-1.34-2.46-.91-6-4.7-8.85-2.53-1.65,1.26-2-.3-3.74,0-2.48.38-4.53,1.89-6.95,2.55-1.19.33-.83,1.7.37,1.37Z"/><path class="cls-2" d="M159.71,132.31c4.56,3.29,12.25.67,17.37.56,1.1,0,1.5-1.42.18-1.39-4.59.09-12,2.62-16-.28-.68-.49-2.39.46-1.5,1.11Z"/><path class="cls-2" d="M159.92,132.33c-.59,1.75,5.65,2.93,6.65,3,4.65.5,8.75-1.35,13.21-2.4,1.15-.28.94-1-.2-.73-3.23.76-6.37,2.11-9.7,2.38-.12,0-8.57-1-8-2.59.16-.49-1.73-.24-1.92.31Z"/><path class="cls-2" d="M157.82,143.71c2.88,6.71-5.2,12.45-10.21,15.28-6.66,3.76-14.84,3-22.08,4.71-12.49,3-21.13,12.53-22.63,25.31-1.54,13.18,3.42,26.33,3.58,39.49.1,8-3.21,15.28-4.25,23.11-1.11,8.41,2,16.62,3.37,24.82,0,.19.44,0,.56,0h2.08c.56,0,2.11-.69.82-.69-2.63,0-3.27-8.36-3.75-10.57a44.32,44.32,0,0,1-1-15.56c.91-6.94,3.75-13.26,4-20.32.58-14.09-5.09-27.76-3.44-41.9.93-7.94,5.34-14.56,11.69-19.27,7.08-5.26,17.11-4.5,25.38-6.34,7.1-1.58,21.62-9.52,17.73-18.6-.22-.51-2.11.12-1.94.52Z"/><path class="cls-2" d="M129.88,206.85a21.62,21.62,0,0,0-.9,5.2,79.13,79.13,0,0,1-2.76,10.69c-1.69,5.8-5.28,11-6.7,16.85s1.12,11.2,1.25,17.12c.15,6.34-2.49,12.92-3.07,19.26-.09,1,1.88.71,2-.15.54-5.92,2-11.68,2.92-17.55s-2.27-11.43-1.46-17.36c.72-5.29,4.64-9.72,6.06-14.81.83-3,1.71-5.93,2.53-8.9.89-3.22.81-7.08,2-10.13.41-1-1.53-1-1.84-.22Z"/><path class="cls-2" d="M104.39,276.19c-1.6,3.3-3.42,6.48-4.88,9.83-1.63,3.72-1.8,7.69-2.25,11.67-.69,6-2.78,11.67-2.22,17.76.16,1.73,1.57,4.31,3.58,2.52,5-4.4,4.1-12,6.37-17.72l-1.9.14c1,4.35-1.14,10-1.81,14.27-.47,3-1.72,8.52,1.11,10.81,2.52,2,5-1.32,5.46-3.39s.07-4.66-.16-6.83c-.47-4.51.92-9.67,2.73-13.75.45-1-1.5-1-1.85-.24-1.81,4.08-3.28,9.23-2.89,13.72a46.28,46.28,0,0,1,.33,6.34c0,.59-.82,4.82-2.66,2.47a5.72,5.72,0,0,1-.64-2.74c-.49-6.95,3.78-14.38,2.32-21.18-.18-.83-1.66-.46-1.9.14-1.77,4.48-1.82,9.37-3.56,13.85-2.59,6.69-2.75-2.27-2.54-4.47.55-5.77,2.19-11.49,2.74-17.32.54-5.63,4.07-10.67,6.47-15.64.48-1-1.47-1-1.85-.24Z"/><path class="cls-2" d="M109.36,301.22c.08,4.49.66,8.87,0,13.33s-1.72,8.8-1.25,13.41a.18.18,0,0,0,.17.1c9.18,1.62,6.24-22,7.59-26.86l-1.91.44c2.23,6.73.48,13.42,1.16,20.26.21,2.17,1.94,3.86,4,2.38s1.75-7.79,1.91-10c.3-4.5.16-9.08.69-13.56,0-.21-1.87,0-1.93.52-.79,6.7-.35,13.5-1.36,20.19a12.4,12.4,0,0,1-.57,2.35c-.13.38.24.52-.45-.81-.8-1.52-.53-3.83-.49-5.47.15-5.55.73-11-1-16.36-.14-.4-1.82.08-1.92.44-1.67,6-.79,12.93-1.67,19.12a20.92,20.92,0,0,1-1.34,5.24c-1.24,3-.91-4.32-.81-5.14.38-3.37,1.21-6.67,1.56-10s-.36-6.76-.42-10c0-.29-1.94,0-1.93.52Z"/><path class="cls-2" d="M117.94,276.87c5,4.35,5.71,11.49,5.85,17.64.15,6.43,2.58,12.13,3.54,18.41l1.3-1c-3.78-.24-5.17-8.74-7-11.42-.49-.73-2.34,0-1.77.85,2.14,3.18,3.22,11.66,8.07,12,.55,0,1.4-.26,1.3-1a87,87,0,0,0-2.52-10.06c-1.07-3.81-.81-7.67-1.11-11.57-.42-5.46-1.94-11.28-6.2-15-.65-.57-2.33.37-1.49,1.11Z"/><path class="cls-2" d="M180,142.88c.84,7.17,5.25,12.56,11,16.62,6,4.25,12.38,5.09,19.53,5.48,10.61.59,17.87,4.64,21.32,15,2.84,8.53,2.7,18.47,3,27.36.3,9.6.65,19.57-.81,29.09a58.41,58.41,0,0,1-11,25.47c-6.61,9-15.34,14.58-25.9,17.9-8,2.51-16.2,4-24,7.05-1.27.49-.1,1.05.74.72,15.73-6.07,33.55-6.8,45.83-19.7a63.46,63.46,0,0,0,14-22.58c3.21-8.94,3.18-18.33,3.25-27.7a242.26,242.26,0,0,0-1.65-31.4c-.84-6.77-3.58-15.42-10.05-18.91-8.29-4.47-17.8-2.07-26.37-5.31-8.4-3.18-15.81-10.4-16.89-19.57-.07-.59-2-.17-1.93.52Z"/><path class="cls-2" d="M208.38,206c1.54,4.29,1.54,9.5,2.51,14,.56,2.63,1.07,5.2,1.44,7.87.62,4.46.67,11.82,4.46,15,.4.34,2.11-.42,1.82-.66-3.68-3-3.75-10.48-4.35-14.83-.36-2.66-.86-5.24-1.44-7.87-1-4.5-1-9.7-2.51-14-.17-.46-2.07.13-1.93.51Z"/><path class="cls-2" d="M216,241.21c-4.29,5.41-8,11.21-12.43,16.49-4.25,5-7.61,10.69-12.61,15.07-7.52,6.59-14.56-2.07-22.05-2.47-6.35-.33-12.48,1.25-18.72,2.17-.22,0-1.33.33-1.11.76,1.95,3.83,6.32,2.44,9.8,3.53,3.75,1.18,4.75,5.59,9.25,4.6,1.18-.26.92-1.16-.24-.9-2.57.56-5.47-3.36-7.46-4.6-3-1.88-7.32,1-9.42-3.15l-1.1.76c8.55-1.25,16.63-3.75,24.94-.05,5.14,2.28,9.1,4,14.53,1.67,5.64-2.38,9.65-9.07,13.14-13.73,5-6.72,10-13.57,15.27-20.14.51-.64-1.42-.47-1.79,0Z"/><path class="cls-2" d="M151.88,272.52a8,8,0,0,1-2.49-.83,5.58,5.58,0,0,0-2.42-.42c-.87,0-2.89.2-3.15,1.3-.2.86,1.2,1.62,1.76,1.95a11,11,0,0,0,3.83,1.41,2,2,0,0,0,1.36-.36c.32-.24.23-.49-.14-.55a8,8,0,0,1-4.74-2.38c0-.07-.23-.39-.14-.46-.23.2-.06.05.19,0a5,5,0,0,1,.95,0c1.32.18,2.4,1.15,3.77,1.21a2.1,2.1,0,0,0,1.36-.36c.3-.22.26-.52-.14-.54Z"/><path class="cls-2" d="M145.06,272.57a9.16,9.16,0,0,0-6.18-2.69c-1.22,0-2.92,1.19-2,2.48s3.35,2.08,4.85,2.68a51.19,51.19,0,0,0,5.65,1.87c.74.19,2.29-.9,1.15-1.19a45.55,45.55,0,0,1-7.28-2.56c-.81-.36-2.26-.89-2.68-1.75-.34-.68,2.31.35,2.4.4a9,9,0,0,1,2.34,1.57c.57.53,2.4-.24,1.78-.81Z"/><path class="cls-2" d="M137.86,271.35c-.4-.06-.81-.48-1.14-.69a3.16,3.16,0,0,0-1.39-.58,5.28,5.28,0,0,0-3.28.87,1.82,1.82,0,0,0-.81,1.95c.24.94,1.27,1.43,2.11,1.7a2.2,2.2,0,0,0,1.35-.25c.18-.09.64-.37.24-.5-1.13-.35-2.37-1.43-1.57-2.67.69-1,2.06.79,2.9.91a2.53,2.53,0,0,0,1.35-.25c.13-.06.69-.43.24-.49Z"/><path class="cls-2" d="M174.23,287.14c-6.38,0-11.23-2.35-17.15-4.17-5.2-1.61-10.86-2.91-16.18-4.06a27.89,27.89,0,0,1-8.34-3.32,4.6,4.6,0,0,1,4.23-.21c1.26.38,2.49.8,3.76,1.14a31.58,31.58,0,0,0,6.87.58c.59,0,6.72.51,6.73.5-.48.54,1.42.33,1.77-.07s.41-.37.49-.95c0-.3-.35-.31-.56-.31-6.57,0-12.49-.24-18.79-2.09a9,9,0,0,0-7.26.68c-.11.07-.59.37-.32.55,6.11,4.24,14,5.58,21.15,7.3,7.74,1.88,14.74,5.31,22.8,5.34.61,0,2.1-.91.8-.91Z"/><path class="cls-2" d="M189.57,160.25c-1.1,10.81-4.77,21.6-8.1,31.88-3.79,11.67-5.85,23.46-8.11,35.48-.89,4.71-.69,9.46-1.73,14.13-.82,3.71-1.94,7.73.17,11.18,1.2,2,4.33,1.65,6.19,1.4,6.14-.84,10.36-1.19,16,2.05.5.29,1.65.08,1.73-.62.84-7.42.8-14.89,1.4-22.34s2.7-14.42,3.45-21.74c.77-7.56.71-15.2.84-22.8s1.23-15,1.41-22.52c0-1-1.93-.63-2,.17-.18,7.53-1.25,15-1.41,22.53s-.19,15.21-.84,22.8c-.63,7.32-2.68,14.42-3.45,21.74s-.56,14.91-1.4,22.34l1.72-.62a21.59,21.59,0,0,0-9.81-3.31c-3.32-.2-9.36,2.65-12.08.1-3.11-2.91.29-11.22.81-14.73.74-5,1-10.14,1.83-15.2a220.27,220.27,0,0,1,7.78-32c3.14-9.68,6.48-19.91,7.52-30.08.09-.94-1.87-.63-2,.17Z"/><path class="cls-2" d="M196.39,164.35c-5,.42-8.32,11.46-6.21,15.3.77,1.41,3.22-.23,3.92-.8,3.84-3.18,5.46-9.69,5.76-14.35,0-.5-1.68.19-1.84.32-4.23,3.46-3.63,13.65-4,18.58a137.44,137.44,0,0,1-2.31,15.77c-.89,4.66-3.38,11.77-1.73,16.4.18.49,2.09-.09,1.94-.51-1.75-4.88,1.07-12.93,2-18a113.58,113.58,0,0,0,1.88-12.58c.3-3.75.55-7.49,1-11.22.35-2.61.68-6.78,2.89-8.59l-1.85.32a24.64,24.64,0,0,1-2.41,9.33c-.77,1.48-3.16,6.65-4,3.1-.41-1.7,2.13-12.12,4.05-12.28.53,0,2.1-.92.83-.82Z"/><path class="cls-2" d="M186.25,169.94c-2.61,3.94-4.56,8.27-7.33,12.11-3,4.12-7.62,7.13-11.71,10a66.85,66.85,0,0,1-34.75,12.36c-.14,0-1.78.45-1.32.76l1.26.84c.48.32,2.15-.46,1.81-.68l-1.25-.84-1.32.77c11.11-.88,21.41-3.41,31.05-9.21a99.65,99.65,0,0,0,15.81-11.66c4.35-4,6.47-10,9.66-14.81.18-.28-1.59-.18-1.91.32Z"/><path class="cls-2" d="M201.71,168.28c-1.6,4.05.64,9.74,1.24,13.87,1.09,7.58,4.83,15,5.43,22.56,0,.33,2,0,1.93-.52-.49-6.25-3.3-12.89-4.82-19-.73-2.93-1-6-1.55-9-.45-2.51-1.31-5.78-.33-8.26.12-.31-1.71-.13-1.9.35Z"/><path class="cls-2" d="M207.61,204.45c-5.46,7.92-7.51,17.13-8.36,26.59-.43,4.7-.46,9.43-.48,14.14,0,2.67,0,5.32.18,8,.13,1.67,2.27,5.42,1.91,7-.16.68,1.78.37,1.93-.26.22-1,.38-1.19-.23-2.12-1.66-2.58-1.77-5.42-1.85-8.41-.15-5.13,0-10.3.25-15.42.51-10.35,2.46-20.81,8.44-29.48.49-.71-1.45-.51-1.79,0Z"/><path class="cls-2" d="M130.67,207.22c.59,2.89,2.61,5.33,3.55,8.14,1.45,4.36,2.81,8.73,4,13.17,1.57,6.05,3.45,11.85,4,18.14.62,7.72-2,14.77-8,19.78a52,52,0,0,1-9.28,6.1c-2,1.05-4,1.58-5.45,3.39-.44.55,1.45.31,1.77-.09,2-2.51,6.34-3.53,9-5.26a52.18,52.18,0,0,0,8-6.27c4.12-4.07,5.7-9.78,5.93-15.4.26-6.62-1.77-13.29-3.63-19.56-1.24-4.22-2.39-8.45-3.75-12.63-1.1-3.39-3.47-6.6-4.17-10-.1-.49-2,0-1.93.52Z"/><path class="cls-2" d="M149.06,223.39C161.28,222,173,212.76,178.49,202c.44-.85-1.5-.65-1.8-.07-5.14,10.05-15.94,19.1-27.38,20.37-1,.1-1.59,1.26-.25,1.11Z"/><path class="cls-2" d="M161.43,223.78c8.47-3.55,15.61-11.37,19.62-19.5.12-.26-1.67-.13-1.9.35-3.86,7.81-10.68,15.51-18.82,18.93-1.17.49.66.4,1.1.22Z"/><path class="cls-2" d="M143.62,252.34c.13,1.8,6.11,1.18,7.36,1.14a20.62,20.62,0,0,0,12.78-5.37c.85-.78-1-.9-1.58-.41a18.62,18.62,0,0,1-9.88,4.47c-.51.08-6.69.48-6.75-.35s-2-.3-1.93.52Z"/><path class="cls-2" d="M143.4,253.79a20.27,20.27,0,0,0,11.25,3.83c.29,0,2-.66,1.15-1-3.83-1.48-7.62-1.37-11.67-1.33-.33,0-1.32.18-1.34.66-.48,9.29,12,9.18,18.37,7.9.88-.17,1.6-1.29.27-1-5.79,1.16-17.15,1.35-16.72-7.14l-1.34.66c3.75,0,7.32-.2,10.89,1.18l1.15-1c-4.07-.1-7.14-1.51-10.47-3.69-.5-.33-2.3.42-1.54.91Z"/><path class="cls-2" d="M100.39,280.22c-9.93,1.22-17.53,8-25.36,13.59-6,4.29-14.35,6.83-17.63,14-3,6.6,3.73,11.86,9.16,13.7A34.36,34.36,0,0,0,77.08,323c7.06.06,14.16,1.2,21.21,1.68.92.06,2-1.28.68-1.37-8.58-.58-17.24-1.11-25.79-2C66.12,320.6,55.57,316,59.67,307c2.64-5.73,10.44-8.22,15.37-11.51,8-5.32,15.22-12.71,25.17-13.93,1.05-.13,1.5-1.54.18-1.38Z"/><path class="cls-2" d="M73.44,297.38c4.48-.18,8.93-1.11,13.37-1.67,4-.5,8,.07,12-.88,1.19-.29.89-1.38-.29-1.1-3.66.9-7.67.32-11.43.79-4.44.55-8.92,1.49-13.37,1.67-1,0-1.56,1.24-.24,1.19Z"/><path class="cls-2" d="M124.87,293.36c6,.15,11.89,1.56,17.86,2.3,5.68.71,11.41,1.07,17.13,1.26,8.18.27,19.35,1.93,26.94-2,1.17-.61.13-1.74-.87-1.22-3.68,1.92-8.14,1.87-12.2,1.94-5.76.1-11.53-.07-17.28-.35-10.55-.5-20.91-3.14-31.43-3.4-1.13,0-1.45,1.47-.15,1.5Z"/><path class="cls-2" d="M186.32,293.48c1.22-1.6,1.46-1.47,2.07-3.46,1.34-4.4,6.9-5.52,10.33-3.26,3.09,2,5.61,3.44,9.35,3.91,6.9.87,15.75,0,21.81-3.58,3.54-2.1,7.64-3,11.15,0s-1.89,4.11-4,4.48A19.46,19.46,0,0,0,229.9,295c-9.34,6.27-21.17,12.36-32.72,8.45-.49-.16-2.24.59-1.57.82,10,3.39,21.71-.45,30.51-5.45,3.88-2.21,6.93-5.74,11.53-6.58a22,22,0,0,0,4.87-1.27c3.9-1.69-.16-5.21-2.22-6.4-3.22-1.85-7.45,0-10.37,1.45-8.5,4.31-21.27,6.05-29.4,0-5.9-4.37-14.92,1-14.82,8a.27.27,0,0,0,.18.15l.17.06a1.8,1.8,0,0,0,1.66-.44l.36-.48c.45-.58-1.45-.33-1.76.08Z"/><path class="cls-2" d="M121.66,323.68c11.66-.14,22.84-2.82,33.81-6.65,6.66-2.33,13.21-4.91,20-6.78,6.57-1.8,13.27-2.93,19.78-5,1.13-.36.88-1.4-.28-1-10.57,3.38-21.47,5.18-31.95,8.93-13.3,4.76-26.36,9.21-40.66,9.39-.75,0-2,1.17-.73,1.15Z"/><path class="cls-2" d="M160.92,293.7v.36c0,.28,1.84,0,1.84-.52,0-6.73-2.5-11.71-9.95-11.13a17.53,17.53,0,0,0-6.68,2.46c-1.83,1-3.58,2.17-5.39,3.2-5.37,3.07-10.25,1.13-15.41,0-.44-.1-2.11.61-1.59.72,6.18,1.36,11.24,2.68,17.19,0,5.33-2.43,10.1-7.64,16.54-4.4,3.39,1.71,3.4,6.51,3.4,9.69,0,.28,2,0,2-.52v-.36c0-.28-2,0-2,.52Z"/><path class="cls-2" d="M215,272.24c15.54,2.95,30.45,9,44.83,15.48,7.74,3.5,14,8.77,20.86,13.61,4.67,3.29,10.38,11.68,2.2,15.11-1.24.53-.1,1.16.76.79,4.94-2.08,6.3-6.15,4.14-11a11.7,11.7,0,0,0-4.17-4.86c-4.56-3.1-8.75-6.72-13.35-9.76-8.49-5.61-18.53-9-28-12.66a149.46,149.46,0,0,0-26.12-7.72c-.61-.11-2.28.84-1.18,1.05Z"/><path class="cls-2" d="M174.93,312.44c5.84,1.34,11.37,3.74,17.14,5.36A116.74,116.74,0,0,0,208.42,321a222,222,0,0,0,35.7,2.09c8.34-.25,16.72-1.09,25-2.17,3.21-.42,10.84-.59,12.58-4,.47-.94-1.48-.85-1.83-.16-1,2-6.61,2.3-8.36,2.58-2.77.45-5.57.74-8.35,1a258.73,258.73,0,0,1-26.1,1.58c-10,0-19.85-1.15-29.75-2.45-10.91-1.43-20.65-5.85-31.24-8.28-.76-.18-2.29.95-1.14,1.22Z"/><path class="cls-2" d="M274.2,296.11c-9.74,1-18.94-3.08-28.59-3.34-.89,0-2,1.31-.68,1.35,9.82.27,19.17,4.36,29.08,3.34,1.06-.1,1.51-1.49.19-1.35Z"/><path class="cls-2" d="M47.94,305.68c-1.36,4.61.82,9.76,2.36,14.07a44.53,44.53,0,0,0,8.93,15.42,50.67,50.67,0,0,0,14.31,10.58c4.1,2.14,11.67,2.58,14.58,6.15.43.52,2.29-.16,1.79-.76-2.19-2.69-7.41-3.42-10.55-4.48-6-2-11.57-5.89-16.24-10.15a37.44,37.44,0,0,1-10.18-15.32c-1.65-4.78-4.58-10.62-3.06-15.75.2-.7-1.74-.42-1.94.24Z"/><path class="cls-2" d="M48.36,305.82c1.41,8.38,13.16,13.24,19.58,16.6,5,2.65,9.55,5.76,12.77,10.54,3.94,5.86,5.57,12.81,9.93,18.56.51.67,2.35-.07,1.77-.84-3.76-4.95-5.76-10.54-8.54-16a27.51,27.51,0,0,0-9.93-10.74c-4.45-2.93-9.44-5-14-7.74-3.59-2.17-8.9-6.44-9.65-10.88-.14-.86-2.08-.37-1.93.52Z"/><path class="cls-2" d="M89.23,347C82,347.13,81,339.93,78,335a12.65,12.65,0,0,0-4.2-4.16c-.72-.43-4.09-1.75-4.29-2.6-.09-.42-2,.07-1.93.52.2.83,3,1.92,3.68,2.32a15.55,15.55,0,0,1,6.33,7.26c2.27,4.84,4.24,9.5,10.38,9.35.4,0,2.2-.81,1.26-.78Z"/><path class="cls-2" d="M86.47,348.86c-3.54-.3-6.88-2-10.46-1a19.17,19.17,0,0,0-6.85,3.52c-5.83,4.53-8.89,11.8-13.92,17.08-.39.4-.08.71.4.73,7.52.31,15.76-.87,22.39-4.69,6.42-3.7,9.78-9.77,13.56-15.9l-1.87.09c-.21.32-.43.64-.64,1-.78.84,1.11.82,1.55.33a3.81,3.81,0,0,0,1-1.54c.28-.68-1.6-.35-1.87.09-2.88,4.67-5.48,9.46-9.63,13.14-3.37,3-8.13,4.41-12.4,5.47-1.4.35-10,.65-10.1.72,3.26-3.72,5.84-7.95,8.9-11.83a22.13,22.13,0,0,1,7.74-6.55c3.91-1.86,7.59.15,11.42.48.76.06,2-1,.75-1.13Z"/><path class="cls-2" d="M83,348.35c-2.54.78-4.52,2.93-6.29,4.83-2.73,3-6.46,4.88-9.38,7.66-.87.83,1,1.16,1.62.57,2.19-2.08,4.74-3.72,7.1-5.59s4.47-5.28,7.31-6.15c1.17-.36.83-1.69-.36-1.32Z"/><path class="cls-2" d="M94.41,349.07c-3-.84-3.9-6.42-4.35-8.95-.9-5.09-.15-10.48-.08-15.6l-1.76.61A37.34,37.34,0,0,1,105,333.57c5.75,5.12,4,15.15,2,21.47a16.8,16.8,0,0,1,2-.44v-.84c0-.24-2,0-2,.52v.84c0,.29,1.77-.08,1.88-.44,2.15-6.82,3.31-14.88-1.25-21-3.66-4.88-11.94-8.12-17.73-9.28-.33-.07-1.76.13-1.76.61-.09,6-1,12.34.6,18.23.62,2.31,1.57,5.79,4.16,6.51.42.11,2.09-.57,1.59-.71Z"/><path class="cls-2" d="M109.61,352.21c.6-6.31,1.1-13.28,6.49-17.41,3.49-2.68,7.25-4.54,7.31-9.45l-1.87.62c4.21,3.56,10.88,7.4,10.47,13.7-.18,2.66-1.76,5.31-2.59,7.81a26.48,26.48,0,0,0-1.56,9.73c0,.5,2.06.12,2.06-.52v-.84c0-.47-2-.14-2,.52v.84c0-.18,1.2-.35,1.84-.52-.18-3.74.84-7.15,2-10.65.82-2.5,2.63-5.37,2.27-8.12-.75-5.77-6.6-9.2-10.68-12.66-.42-.35-1.87,0-1.88.61-.08,6.09-7,7.67-10.17,11.89-3,3.88-3.17,10.09-3.61,14.74-.07.65,1.86.26,1.91-.29Z"/><path class="cls-2" d="M100.51,351.53c-1.09,0-3.34-9.08-3.42-10.3l-1.93.52a17.75,17.75,0,0,0,5.9,9.68c.34.3,1.86-.09,1.88-.59.16-5.57-3.09-10.44-3.76-15.88l-1.94.52A45.68,45.68,0,0,0,103.93,353c.32.49,2.1-.26,1.93-.52A45.5,45.5,0,0,1,99.18,335c-.07-.41-2,0-1.94.52.68,5.44,3.93,10.31,3.76,15.88l1.88-.6a17.34,17.34,0,0,1-5.79-9.53c-.08-.43-2,0-1.93.52.1,1.66,2.11,10.56,4.1,10.59.42,0,2.21-.8,1.25-.81Z"/><path class="cls-2" d="M87.44,349.56a31.47,31.47,0,0,0,12.61,4.88c2.62.45,7.14,1.14,9-1.39.73-1-1.1-1.25-1.61-.56-1.52,2.09-6.92.58-9,.13a27.79,27.79,0,0,1-9.55-4.16c-.7-.46-2.4.5-1.49,1.1Z"/><path class="cls-2" d="M94,351.86c-3-2.17-7.85,4.44-9.19,6.3-4.82,6.67,5.2,13,8,18,.36.63,1.68,0,1.86-.5,1.57-4,8.52-4.6,11.63-7.33,4-3.55,2.71-9.9,2.57-14.55,0-.68-2-.28-1.93.52.21,7.46.77,13.18-7.13,16.39-2.83,1.15-5.87,2.15-7.07,5.18l1.86-.49c-2.2-3.94-6.05-6.57-8.18-10.54a6.67,6.67,0,0,1,.5-6.91c.52-.73,4.65-5.76,5.61-5.07.55.41,2.32-.39,1.52-1Z"/><path class="cls-2" d="M101.06,354.38c-3.63-1.85-8.9,6.29-10,8.8-.34.75.91.65,1.29.46,4.14-2,7-5.57,10.42-8.6.42-.38,0-.76-.41-.76-3.94,0-4.55,7.22-4.26,10,0,.41.87.33,1.1.25,4.49-1.53,5.49-6.94,7.87-10.5.52-.77-1.44-.62-1.81-.07-1.76,2.63-3.06,8.43-6.33,9.55l1.1.25a12.27,12.27,0,0,1,2.45-8.89c-.43.18-.85.54-1.28.54h.42c-.14,0-.27-.5-.41-.76-3.1,2.79-5.83,6.25-9.64,8.11l1.3.46a18.09,18.09,0,0,1,2.29-3.53c.34-.45,3.62-4.77,4.39-4.38.6.3,2.36-.54,1.53-1Z"/><path class="cls-2" d="M119.85,354.34c-2.59-2-3-7.19-3.54-10.19l-1.93.52c1,3.31,1.22,10.26,4.8,12a1.35,1.35,0,0,0,1.67-.45c2.43-4.87,2.11-10.48,4.18-15.46h-1.89c-.1,4.91-1.16,9.72-1.25,14.63,0,.94,1.93.59,1.94-.18.09-4.91,1.16-9.73,1.26-14.63,0-.9-1.64-.59-1.89,0-2.07,5-1.75,10.6-4.18,15.46l1.67-.45c-3.18-1.51-3.46-8.44-4.38-11.44-.25-.8-2.08-.3-1.93.52.56,3.35,1.05,8.48,4,10.71.61.47,2.35-.4,1.51-1Z"/><path class="cls-2" d="M117.61,357.3a14.9,14.9,0,0,0-4.74,5.95c-.51,1.22,0,3.3,1.61,3.07s2.58-2.17,3.31-3.43c1-1.73,1.79-3.58,2.66-5.39l-1.9.12c.49,2.88,1.54,5.65,1.66,8.58,0,.94,1.34.8,1.8.26,2.11-2.55,1-5.77,1.83-8.74l-1.72.64a22.88,22.88,0,0,1,3.62,4.46c.55.76,2.37,0,1.76-.88a24.38,24.38,0,0,0-3.9-4.74,1.15,1.15,0,0,0-1.72.64c-.69,2.61.33,5.77-1.51,8l1.8.26c-.12-3.08-1.18-6-1.69-9-.15-.9-1.62-.44-1.89.12a51.64,51.64,0,0,1-3.44,6.65c-.14.19-.28.39-.43.57-.63.8-.29,0,.12.44-.55-.64,0-1.66.3-2.27a13.41,13.41,0,0,1,3.78-4.36c1-.78-.5-1.55-1.31-1Z"/><path class="cls-2" d="M110,354.6c5.34,3,13.7,5,19.56,2.53,1.22-.52.15-1.64-.87-1.2-5,2.13-12.69.05-17.21-2.48-.77-.44-2.44.61-1.48,1.15Z"/><path class="cls-2" d="M107.75,355.66c-6.38,7.34,7.52,14.43,9.13,20.76.18.69,1.63.18,1.87-.22,1.61-2.8,4.21-2.85,6.93-3.79a13.17,13.17,0,0,0,5-3.82c2.93-3.17,5.65-8.27,2.25-12-.47-.51-2.32.19-1.79.77,4.89,5.42-3.1,13.53-8.22,14.84-2.86.72-4.45,1.3-6,4l1.87-.23c-1.57-6.15-15.22-13.32-9.25-20.19.56-.65-1.39-.54-1.81-.06Z"/><path class="cls-2" d="M129.92,353.72v.7c0,.81,2.1.4,2.1-.24,0-6,1.51-12.08,2-18.05.3-3.38.73-6.93,2.22-10,2.51-5.2,10.33,2.09,12.29,4,5.18,5.06,7,11.53,6.73,18.66-.51,14-16.6,11.25-25,5.62-.53-.36-2.32.42-1.54.94,6,4,19.56,8.73,25.42,1.79s3.25-19.5-2.19-26c-3.53-4.24-13-12.36-17.46-5-2.31,3.75-2.24,9.18-2.59,13.42-.41,5-1.83,9.95-1.83,14.95,0,.81,1.8.4,1.8-.24v-.7c0-.81-2-.4-2,.24Z"/><path class="cls-2" d="M142.21,356c.24-2.11-1-4.38-1.46-6.4a19.31,19.31,0,0,1,1-10.73c.21-.56-1.7-.32-1.93.27-1.81,4.79-3.53,12.37.48,16.52.36.37,1.36,0,1.67-.25a17,17,0,0,0,4.6-9.44c-.64.13-1.69.26-1.69.39V358c0,.51,1,.17,1-.52V345.83c0-.54-1.61-.13-1.7.39-.54,3.14-1.47,6.7-3.86,8.94l1.73-.24c-3.91-4-2.1-11.42-.33-16.07l-1.91.27a25.52,25.52,0,0,0-1.25,9.31c0,2.66,2,5.2,1.68,7.82-.08.69,1.86.31,1.93-.27Z"/><path class="cls-2" d="M132.77,359.2c-2.93,4.88,9.07,10.08,9.59,14.72,0,.19.45.17.56.16,4.24-.4,9.52-1.91,12.42-5.2,2.44-2.76,2.62-10.51-.66-12.69-.48-.32-2.14.46-1.81.68,2.48,1.65,2.41,6.82,2,9.43-.44,3.11-9.38,9.1-11.11,5.5-1.59-3.31-11.57-8.83-9.12-12.92.18-.31-1.61-.19-1.91.32Z"/><path class="cls-2" d="M143.11,359.86c-2,1.29-1.62,3.88-1.59,5.94,0,1,1.54.59,1.9,0a9.24,9.24,0,0,0,1-2.93,10.53,10.53,0,0,1,.58-1.83c.4-.87,1.1-.05,1.6.35a24.57,24.57,0,0,1,4.58,5.56c.48.71,2.33,0,1.77-.85-1.64-2.43-3.67-5.67-6.5-6.81-3.61-1.46-3.81,4.6-4.92,6.3l1.9,0c0-1.45-.51-4,.92-4.92,1.1-.71-.5-1.36-1.28-.86Z"/><path class="cls-2" d="M157.46,354.78c-1.92-1.35.58-10.7.78-13,.76-8.61,1.4-17.21,4.8-25.27l-1.49.52c3.61,1,6.17,4.52,8.88,6.93a45.57,45.57,0,0,1,7.62,8.14,24.83,24.83,0,0,1,2.39,23.58c-.41.92,1.53.75,1.82.1,3.36-7.51,2.3-15.9-1.52-23-2.29-4.25-5.86-7.26-9.4-10.4-2.71-2.4-5-5.47-8.63-6.5-.43-.12-1.29,0-1.48.52-3.68,8.7-4.26,18-5.08,27.31-.23,2.61-2.8,10.27-.21,12.1.58.4,2.34-.42,1.52-1Z"/><path class="cls-2" d="M168.76,355.68c-1.57-.47-2.7-3.67-3.39-5-.89-1.71-2.07-3.75-2.27-5.7l-1.57.73c5.19.46,3.61,9.37,8.18,11.24.46.19,1.56,0,1.74-.57a28,28,0,0,0-.41-18.5c-.2-.54-1.89-.12-1.93.4-.41,5.85-.6,12.14,1.67,17.66.25.62,1.56,0,1.85-.27,2.56-2.65,1.74-6.67,3.76-9.61l-1.85.27c-.14,3.66-1.12,7.2-1.26,10.87,0,.47,1.91.16,1.93-.52.15-3.66,1.12-7.2,1.26-10.86,0-.58-1.67,0-1.86.27-2,2.92-1.25,7-3.76,9.61l1.86-.28C170.47,350,170.63,343.77,171,338l-1.93.4a27.51,27.51,0,0,1,.43,18.26l1.74-.57c-4.73-1.93-2.61-10.8-8.53-11.33-.39,0-1.64.13-1.57.74.23,2.21,1.63,4.48,2.64,6.41.66,1.27,1.85,4.16,3.39,4.62.53.16,2.27-.64,1.56-.86Z"/><path class="cls-2" d="M157.81,358a38.29,38.29,0,0,0,8.87,2c4.26.25,8.32-1.88,12.49-2.39,1.05-.13,1.5-1.53.19-1.36-3.73.46-7.21,1.9-10.93,2.35-3.18.38-6.5-1-9.5-1.89-.79-.24-2.28.92-1.12,1.26Z"/><path class="cls-2" d="M155.8,358.57c2.48,2.84,5.23,4.49,6.39,8.35,1,3.26-2,7.34-3.11,10.21-.12.32.4.38.58.38,2.9.1,5.37-1.11,8-2.24,3.76-1.61,7.6-2,11.2-4.08,5.15-3,4.35-9.69,1.8-14.08-.36-.62-2.2.05-1.94.51,1.85,3.18,2.68,6.56,1.4,10.12-1.88,5.23-10.94,5.84-15.63,7.87-5,2.17-1.95-2.3-1.29-3.72a8.84,8.84,0,0,0,1.07-4.37c-.55-4.5-3.89-6.52-6.66-9.68-.41-.48-2.25.21-1.8.73Z"/><path class="cls-2" d="M169.78,360.87a1.2,1.2,0,0,0-.48-.94c-.33-.35-2,0-1.87.62a21.82,21.82,0,0,1,0,10.74c-.16.61,1.76.29,1.92-.28a79.84,79.84,0,0,0,2.51-9.61l-1.93.4a12.73,12.73,0,0,0,1.73,3c.36.42,1.9,0,1.87-.61a9.7,9.7,0,0,1,.22-2.69,3.75,3.75,0,0,1,.39-.92c.29-.42.35-.44.2-.08,1.11.73,1.07,2.66,1,3.79,0,.46,1.9.16,1.93-.52.08-1.8-.35-4.74-2.81-4.37-2.63.38-3,3.08-2.88,5.31l1.87-.62a11.83,11.83,0,0,1-1.61-2.83c-.25-.52-1.84-.13-1.93.4a79.8,79.8,0,0,1-2.5,9.61l1.92-.28a22.54,22.54,0,0,0,0-11l-1.87.62a.69.69,0,0,1,.35.73c0,.52,2,.15,1.93-.51Z"/><path class="cls-2" d="M183.57,354.6c0-2.05,2.31-4.16,2.8-6.26a27.35,27.35,0,0,0,.28-7.72,90.27,90.27,0,0,0-1.44-10.49c-.74-4.07-2.57-7.81-3.31-11.88l-1.76.62c8.22,1.09,16.4,5.41,19.88,13.27,1.85,4.17,2.53,8.91,3.34,13.37.62,3.35,3.24,6.35,2.53,9.95-.08.38,1.81.08,1.9-.36.61-3.09-1.09-6.34-2.16-9.18-1.9-5-2-10.51-4.22-15.53-3.24-7.32-12.23-11.24-19.68-12.24-.28,0-1.85.14-1.76.62.62,3.45,2,6.66,2.92,10a67.2,67.2,0,0,1,1.67,10.86,30.06,30.06,0,0,1-.4,10.36c-.44,1.88-2.48,3.14-2.52,5.1,0,.25,1.92,0,1.93-.52Z"/><path class="cls-2" d="M194.85,357.66c1.22-6.65,2.49-12.4,0-18.94-.27-.7-1.94-.17-1.93.52,0,5.45,0,12.51,3.83,16.83.4.46,1.72.08,1.86-.5.31-1.25.53-2.5.84-3.75l-1.93.37c.6,3.19,1.49,5.88,5.1,4.33,1.24-.53.11-1.19-.76-.81-1.91.82-2.21-2.95-2.41-4-.14-.71-1.8-.16-1.94.37-.3,1.25-.52,2.51-.83,3.76l1.86-.5c-3.72-4.21-3.66-11.28-3.69-16.59l-1.93.52c2.43,6.4,1.19,12.16,0,18.66-.14.76,1.81.43,1.93-.24Z"/><path class="cls-2" d="M181.28,355.63c2.61,3.09,8.34,3.52,12.07,3.93,5.44.6,10.92-.71,15.93-2.72,1.27-.5.09-.95-.71-.63a31.39,31.39,0,0,1-17.42,1.94c-2.74-.46-6.18-1-8.06-3.23-.37-.44-2.21.23-1.81.71Z"/><path class="cls-2" d="M182.9,357.08c-1,3.75,3.81,8.23,6.25,10.55,4.9,4.66,11.41,7,17.92,8.2.28.05,2.09-.41,1.5-.87-3.45-2.68,4.92-7.36,4.61-10.9-.17-2-1.31-7.59-4.11-7.2-.91.13-1.63,1.2-.29,1,.69-.1,1.95,4.47,2.11,5,.71,2.46-.21,3.95-1.82,5.79s-5.26,4.7-2.3,7l1.5-.87a36.42,36.42,0,0,1-16.12-6.91c-2.66-2.05-8.29-7.45-7.33-11.1.18-.66-1.76-.37-1.92.26Z"/><path class="cls-2" d="M195.86,359.62c-1.62,2.71-1.75,8.77,1.29,10.61a1.87,1.87,0,0,0,1.87-.5,11.21,11.21,0,0,0,0-9.28l-1.93.52c.8,1.14,1.7,2.2,2.5,3.34.3.41,1.74,0,1.92-.43.7-1.63.82-3.45,1.67-5l-1.86.5a9.14,9.14,0,0,1,2.87,5.36c.09.42,2-.06,1.93-.52a9.4,9.4,0,0,0-3-5.5c-.37-.32-1.65.1-1.86.5-.86,1.56-1,3.38-1.67,5l1.91-.43c-.8-1.14-1.7-2.2-2.5-3.34-.3-.43-2.1.19-1.93.52a11,11,0,0,1,0,9.1l1.86-.5c-2.93-1.77-2.73-7.72-1.21-10.29.15-.25-1.62-.14-1.9.34Z"/><path class="cls-2" d="M212.32,354.43c-7.29-10.12-.94-21.11,3-31.21l-1.81.31c5.12,4.94,13,4.33,18,9.41,4.5,4.59,2.64,16.39-1.21,20.8-.8.92,1,1.22,1.62.57,4.25-4.87,4.82-13.47,3-19.43-2.5-8.16-14.36-7.1-19.64-12.2a1.2,1.2,0,0,0-1.81.32c-4.05,10.5-10.41,21.82-2.88,32.28.51.71,2.35,0,1.77-.85Z"/><path class="cls-2" d="M221.1,355.72c-2.4-2.7-2.89-6.34-4.52-9.48l-1.94.52c1.51,2.83,2,8,6.28,7.42.4-.05,1-.24,1.09-.69a38.9,38.9,0,0,0,1.25-9.6c0-.86-1.92-.47-1.93.22-.07,3.85-.73,7.77.83,11.43.18.4.77.36,1.11.26,5.49-1.61,5.4-10.28,5.42-14.84l-1.93.22a74.78,74.78,0,0,1-1.26,15.88c-.17.78,1.79.48,1.94-.22A74.77,74.77,0,0,0,228.69,341c0-.86-1.93-.47-1.93.22,0,3.21.19,12.41-3.77,13.57l1.11.27c-1.53-3.57-.9-7.37-.84-11.13l-1.93.22a39.39,39.39,0,0,1-1.26,9.6l1.09-.68c-2.77.37-3.61-5-4.58-6.79-.37-.69-2.25-.09-1.94.52,1.69,3.23,2.2,6.95,4.67,9.74.48.54,2.33-.17,1.79-.78Z"/><path class="cls-2" d="M209.62,354.51c-1.19,5,8.56,4,11.18,4.38a13.05,13.05,0,0,0,6.06-.24,41.75,41.75,0,0,0,4.29-2.66c1,.18,2-1.19.67-1.43-1.48-.27-3.73,1.84-4.84,2.47-1.69,1-16.19.66-15.4-2.66.22-1-1.76-.73-2,.14Z"/><path class="cls-2" d="M211.3,357.62c.77,5.35,1.82,9.34,6.59,12.25,4.49,2.74,10.19,3.14,15.1,4.77.52.17,1.59-.16,1.55-.82-.25-4.18,3.83-5.06,6-7.9,1.59-2.13.27-4.69-.81-6.68s-4.47-7.71-7.31-5c-.83.8,1.07.87,1.57.4,0,0,3.12,4,3.36,4.38,1.75,2.64,2.93,5.44.34,8s-5.28,3.05-5,7.33c.51-.28,1-.55,1.55-.82-3.72-1.23-7.58-1.93-11.31-3.13-6.66-2.15-8.68-6.78-9.62-13.28-.1-.73-2-.27-1.93.51Z"/><path class="cls-2" d="M222.29,357.23c-4.23,1.64-.49,10,2.18,11.55a1.26,1.26,0,0,0,1.67-.45c1.48-3.72.58-7.08-.37-10.81l-1.85.68c1.84,3.22,5.94,4.41,8.35,7.11.58.64,2.41-.13,1.77-.85-2.4-2.69-6.53-3.93-8.35-7.1-.39-.67-2.06-.12-1.85.68.87,3.42,1.82,6.64.46,10.08l1.66-.44c-1.45-.85-2.22-2.71-2.78-4.21-.39-1-1.56-4.54,0-5.13,1.23-.48.14-1.5-.85-1.11Z"/><path class="cls-2" d="M235.38,352.09c.73-7.43,2.41-13.72,7.89-18.92,3.19-3,7.91-6.44,8.4-11.16l-1.93.52c1.14,5.94,7.51,7.19,10.94,11.46,4.86,6.05-3.08,15.93-7.5,19.7-.39.33,1.4.12,1.74-.17,4.73-4,9.83-10.73,8.87-17.3-1-6.8-10.78-7.28-12.12-14.21-.07-.38-1.89.08-1.93.52-.58,5.59-7.15,9.57-10.75,13.33-4.06,4.22-5,11.16-5.54,16.75,0,.21,1.87,0,1.93-.52Z"/><path class="cls-2" d="M243.29,352.35l-.84.42,1.7-.26a39.18,39.18,0,0,1,1.24-11.62l-1.92.44c.06,4.45.75,8.93-.4,13.29-.1.37,1.7,0,1.9-.36,2.49-4.42,5.75-8.36,7.94-12.95l-1.9.36c-1.38,4.35-3.6,8.46-4.2,13l.06.06c3,1.3,6.3-1.16,8.13-3.43.07-.09-1.55-.07-1.9.37.09-.11-4.61,4.46-4.24,1.64A22.17,22.17,0,0,1,250,349.1c.9-2.62,2-5.15,2.89-7.79.1-.33-1.71-.05-1.9.36-2.19,4.59-5.45,8.53-7.94,12.95l1.9-.36c1.17-4.43.49-8.94.43-13.45,0-.29-1.8.08-1.91.44A39.57,39.57,0,0,0,242.22,353c0,.37,1.56-.19,1.7-.26l.83-.42c.81-.41-1.14-.16-1.46,0Z"/><path class="cls-2" d="M237.13,355.67c3.55.29,6.53,1.43,10.1,1.16a23.54,23.54,0,0,0,7.09-2.05,28.48,28.48,0,0,0,13.91-12.28c3.83-6.43,5.95-13.62,11.34-19.05,4.25-4.29,11.17-4.55,14.28-10.13.17-.3-1.62,0-1.9.35-6.08,7.89.19,18.13-3.95,26.76a21.2,21.2,0,0,1-11,10.77,28.14,28.14,0,0,1-9.15,1.61c-3.95.21-7.43,1.81-11.49,1.66-.4,0-2.21.74-1.26.78a34,34,0,0,0,8.84-1.13c3.23-.72,6.57-.72,9.82-1.36A23.42,23.42,0,0,0,284,348c3.7-3,7.28-8.42,7.67-13.17.59-7.27-2.65-15.14,2.23-21.48l-1.9.35c-2.57,4.6-8.13,5.64-12.29,8.34-3.57,2.32-6,6.57-8,10.2-2.51,4.67-4.43,9.57-7.47,13.93-2.44,3.48-5.84,5.74-9.54,7.71-5.61,3-10.69,1.51-16.29,1-.4,0-2.21.7-1.25.78Z"/><path class="cls-2" d="M265.38,352.38c-2.84-4.41,8-9.9,10.72-12,3.77-2.91,8-6.91,6.49-12.11-.22-.75-1.79-.23-1.94.36-.82,3.36-.25,6.79-2,9.88-1.22,2.1-3.44,4-5.26,5.58-2.5,2.19-5.18,4.21-7.8,6.25-1,.8.58,1.16,1.23.66,2.9-2.26,5.84-4.5,8.61-6.93a33,33,0,0,0,5-5.46c2.19-3,1.33-6.76,2.17-10.19l-1.93.37c3,10.45-22.24,16.36-17.06,24.36.39.6,2.26-.05,1.78-.78Z"/><path class="cls-2" d="M237.4,356.57c.18-.36,3.64,4.35,3.87,4.73,1.26,2,1.88,4.32,3.1,6.39,2.88,4.87,10.1,5.25,14.94,6.52.63.16,2.29-.72,1.17-1.1-5.57-1.91-.5-4.34,2.17-6.13a9.78,9.78,0,0,0,4.06-4.29c1.15-2.91.34-9.93-3.77-9.66-1,.07-1.58,1.23-.24,1.14,2.74-.18,2.46,7.37,2.08,8.74-.75,2.66-4.85,4.36-7,5.86-3.48,2.46-2,4.26,1.49,5.44l1.17-1.1c-4.35-1.14-9.27-1.52-12.86-4.48-2.36-2-3-5.49-4.56-8.11-1-1.75-5.3-8.39-7.46-4-.43.87,1.51.68,1.8.08Z"/><path class="cls-2" d="M250.83,357.11c0-.15,0-.29-.05-.43l-1.57.57c1,.07,1.6,2.94,1.72,3.64a31.67,31.67,0,0,1,.06,5.51l1.93-.52c0-3.08.36-6.17-.41-9.19l-1.88.59c1.81,1.67,4.38,2.43,5.79,4.52.33.49,2.1-.27,1.94-.52-1.47-2.16-4-2.94-5.91-4.67-.29-.26-2,.13-1.88.6.78,3,.45,6.11.42,9.19,0,.33,1.93.05,1.93-.52a28.14,28.14,0,0,0-.26-6.55c-.22-1-1-2.81-2.21-2.89-.35,0-1.45.13-1.57.58-.08.27-.06.26,0,.6s2,0,1.93-.51Z"/><path class="cls-2" d="M263.94,353.86c.16,2,3.94,4.35,5.29,5.63,5.2,5,3.37,10.55-1,15.09-.43.44.81.23.94.2,6.43-1.54,12.34-4.87,18.43-7.35,3.36-1.37,7.38-4.48,5.79-8.6-2.38-6.19-18.55,1.05-18.31-6.74,0-.27-1.92,0-1.93.52-.13,4.12,5.33,4,8.25,4.12,4.64.21,15,1.28,8.59,8.37-2.43,2.68-7.82,3.81-11.16,5.33-.94.44-1.89.89-2.84,1.32s-7.15,3.83-4.93,1.54a16.07,16.07,0,0,0,3-4.36c1.31-2.81-.09-6.77-2-9-1.44-1.69-6-4.37-6.22-6.62,0-.33-2,0-1.93.51Z"/><path class="cls-2" d="M269.78,352.86c5.77-.48,8.91,9,7.54,13.41l1.93-.39c-.12-5.74-2.77-9.76-5.44-14.62l-1.86.63c2.59,2.42,3.57,6.09,4.11,9.49.1.62,2,.17,1.93-.51-.55-3.49-1.59-7.24-4.24-9.72-.37-.35-2.18.07-1.87.63,2.67,4.86,5.32,8.88,5.43,14.62,0,.64,1.79.09,1.93-.39,1.77-5.69-2.52-14.72-9.18-14.17-.93.08-1.62,1.13-.28,1Z"/><path class="cls-2" d="M159.61,86.06c.2.88,1.65.56,2.21.33a2,2,0,0,0,1.27-2.11c-.18-2.29-3.36-1.52-4.36-.37-1.35,1.57.67,3.82,2.29,3.92s3.82-.63,4.1-2.53c.64-4.25-6.56-4.41-7.75-1-.61,1.79.83,3.7,2.4,4.37a5.07,5.07,0,0,0,6-2.09c1.08-1.78.27-3.31-1.17-4.47-1.1-.89-2.82-1.32-3.83,0-.52.65,1.42.49,1.79,0-.46.59-1.07,0-.29.42a3.58,3.58,0,0,1,.75.52,5,5,0,0,1,1.16,1.27c.83,1.46-.74,3.76-2.32,3.6-1.91-.19-4.13-4.07-1.59-4.92,1.81-.61,3.95,2.07,2.5,3.55-1,1-2.17-.61-2.4-1.43-.1-.35-.06-1.63.53-1a1.3,1.3,0,0,1,.25.67,1.15,1.15,0,0,1,0,.52c-.21.33-.07.41.43.22-.14-.64-2.08-.15-1.94.52Z"/><path class="cls-2" d="M169.79,84.57c.14-2.21-2.79-1.38-3.79-.42-1.23,1.2.32,2.41,1.45,2.57s3.27-.24,3.89-1.48c.74-1.51-1.18-3.32-2.64-3.24-1.74.11-3.43,1.21-3.45,3.09,0,2.1,2.86,2.37,4.31,1.86,3.44-1.22,4.48-6.82,0-7.27-2.21-.22-6.05,1.43-5,4.2.23.58,2.13,0,1.93-.51a2,2,0,0,1,1.51-2.74,2.38,2.38,0,0,1,2.56,1.79c.48,1.71-1.52,5.57-3.2,3-.4-.62-.09-2.62.73-2.35s1.81,1.67,1.27,2.5c-.3.48-1,.3-1.42,0a1,1,0,0,1-.44-.83.93.93,0,0,1,.23-.62c-.26,0-.27,0,0,.13a.88.88,0,0,1,.13.62c0,.66,1.88.25,1.91-.29Z"/><path class="cls-2" d="M175.48,85a1.31,1.31,0,0,1,0,.59c.27-1.16,1.75.17.84-.46a1.36,1.36,0,0,1-.47-1.38,1.63,1.63,0,0,1,.25-.47l-.25-.19a1.24,1.24,0,0,1,.54.57,2.21,2.21,0,0,1-.1,2.17c-1,2.07-2.36-.59-2-1.83.53-2.08,2.8-1.44,3.51.13.54,1.19-.26,2.48-1.14,3.23-1.31,1.11-2.79-.36-3.34-1.49a5.56,5.56,0,0,1-.43-2.7,4.41,4.41,0,0,1,.35-1.43,2.87,2.87,0,0,1,.28-.48c.34-.5-.92-.16-.34.11s2-.57,1.82-.64a2.91,2.91,0,0,0-3.74,1.56,5.12,5.12,0,0,0,1,5.37c1.63,1.62,4.51.68,6.1-.48,2.12-1.54,1.87-4.59-.77-5.29-1.94-.51-4.8.72-5.31,2.73a2.63,2.63,0,0,0,1.49,2.81c.95.48,2.41-.13,3.23-.64a3.3,3.3,0,0,0,1.54-3.05,1.74,1.74,0,0,0-2.38-1.34,2.87,2.87,0,0,0-2.26,1.94,1.56,1.56,0,0,0,1.17,1.7c1.07.35,2.5-.4,2.34-1.56,0-.34-2,.06-1.93.52Z"/><path class="cls-2" d="M175.84,78.2l-.11,0,1.16,0c-.42-.18-.07-.81.1-1,0,0,.35-.28.18-.21s-.72,0-.53.12a1.11,1.11,0,0,1,.22.3,3.49,3.49,0,0,1,.28,2c0,.22-.26.62-.12.52.46-.32.93,0,.51-.26a2.48,2.48,0,0,1-.52-.45,1,1,0,0,1,.19-1.62.63.63,0,0,1,.4-.09.52.52,0,0,1,.22.33c.08.42-.3.94-.5,1.26-.39.6-.77,1.12-1.47.76-1.42-.75-1.33-2.83-.4-3.87.59-.66,1.34-.14,1.86.35a3.17,3.17,0,0,1,1,2.4c0,.83,1.9.45,1.94-.23a3.73,3.73,0,0,0-7.35-1.14,3.1,3.1,0,0,0,2.1,3.72c1.84.58,3.61-.91,4.42-2.41.5-.91.51-1.88-.59-2.24a3.84,3.84,0,0,0-3.1.72,1.8,1.8,0,0,0-.74,2.49,2.38,2.38,0,0,0,3,1c1.57-.63,1.5-3.33.48-4.4-.76-.79-2-.31-2.76.26a2.13,2.13,0,0,0-.89,1.78c0,1,1.18,1,1.84.71.25-.1.8-.48.5-.81s-.93-.18-1.28,0Z"/><path class="cls-2" d="M183.08,81.71a.83.83,0,0,0,.29.57l.5-.84c-.42.22,0,.16-.18,0a1.05,1.05,0,0,1-.16-.46,1.32,1.32,0,0,1,.05-.52c.09-.39.08-.18.31-.09.8.33.7,1.32.51,2a3.75,3.75,0,0,1-.52,1,2.19,2.19,0,0,1-.34.34c-.12.11.44.08.26-.08-.56-.5-.93-3.58.15-3.4,1.72.3,1.55,2.42.83,3.47A3.9,3.9,0,0,1,183.15,85c-.79.36-1.25-.21-1.65-.81a6.26,6.26,0,0,1-.81-4.06c.19-1.48,2.06-2.42,2.83-.76.33.72,2.23.13,1.93-.52-1-2.08-3.82-1.83-5.42-.66-1.9,1.39-1.5,4.27-.67,6.14,1.06,2.39,3.29,2.28,5.34,1.18s3.45-3.48,1.85-5.5c-1.33-1.69-4.17-1-5,.8-.67,1.43-.15,4.17,1.81,4.06,3.19-.16,4.65-6,.56-5.76a2.25,2.25,0,0,0-2.31,2.41c.14,1.55,2.08,1.38,3.06.86.25-.13.81-.48.5-.83l-.15-.31c-.09-.71-2-.26-1.93.52Z"/><path class="cls-2" d="M191.1,81.76l-.6.36-.72,0c.3,0,.46.62.51.87a1.14,1.14,0,0,1-.25.83,1.53,1.53,0,0,1-.18.18c.13-.09.7,0,.53-.11-.52-.23-.63-1.25-.61-1.72a2.17,2.17,0,0,1,.23-.94.71.71,0,0,1,.19-.23c-.28.18-.16,0,.13.11.66.15.59,1,.45,1.52a2.33,2.33,0,0,1-1,1.31c-.59.19-1.45-1.21-1.61-1.71-.54-1.68,1.93-2.46,2.77-1.1.33.52,2.21-.09,1.8-.75-1.36-2.2-5.9-.85-6.53,1.36-.36,1.26.84,2.74,2,3.13a3.6,3.6,0,0,0,3.53-1,3.07,3.07,0,0,0,1-2.76c-.29-1.25-2-1.25-3-1a2.52,2.52,0,0,0-2,2.57c0,1,.39,2.07,1.44,2.26a2.55,2.55,0,0,0,2.94-2.47,1.62,1.62,0,0,0-3.05-.51c-.24.62,1.69.38,1.93-.25Z"/><path class="cls-2" d="M194.86,82.43c-.22.5-.23,1-.41,1.52a.68.68,0,0,1-.59.45c-.18,0,0,0-.11,0,.11,0,0-.11,0-.25a1.56,1.56,0,0,1,.24-.8,1,1,0,0,1,.17-.23s.23-.19.13-.14c.11-.06-.1,0-.07,0s.15.11.23.17a2.82,2.82,0,0,1,.89,2.33.36.36,0,0,1-.13.21c.09-.1.09,0,0,0s0,0-.2,0a1.53,1.53,0,0,1-.41-.1,1.68,1.68,0,0,1-1.12-1.45c-.1-1.68,2.32-2.59,2.22-.42,0,1,1.92.71,2-.15.14-3.34-4-3.1-5.58-1s.45,4.55,2.82,4.49a2.46,2.46,0,0,0,2.4-1.77A3.86,3.86,0,0,0,195.82,82c-1.77-1.42-4.3.84-4,2.76.15,1.07,1.46,1.17,2.29,1A3.31,3.31,0,0,0,196,84.64c.49-.57.41-1.34.69-2,.45-1-1.5-1-1.84-.21Z"/><path class="cls-2" d="M193.73,79.41a1.07,1.07,0,0,1-.14.35c.09-.14.4-.19.59-.17a1.07,1.07,0,0,1-.6-.37.61.61,0,0,1-.16-.56.28.28,0,0,1,.13-.2c-.14.09-.39,0-.12.12a2.31,2.31,0,0,1,1,1.86,1.31,1.31,0,0,1-.21.75c0,.07-.06.08,0,0a1.08,1.08,0,0,1,.9-.24c.16,0-.1-.06-.1-.06-.65-.47-1.31-2-.59-2.58a.84.84,0,0,1-.38.12.69.69,0,0,1,.34.09,1.74,1.74,0,0,1,.89,1.45,1,1,0,0,1-.06.35c-.08.14.17,0,.29-.06-.35.06-1,.22-1.1.64s.6.42.83.38c1-.17,2-.71,2-1.87a2.29,2.29,0,0,0-1.57-1.91,2.92,2.92,0,0,0-3.16,1,2.25,2.25,0,0,0,0,2.15A2.15,2.15,0,0,0,194,82a2.06,2.06,0,0,0,2.33-1.43,2.8,2.8,0,0,0-.9-2.63,2.76,2.76,0,0,0-3.46.32c-.84.78-.36,1.78.55,2.19a2.36,2.36,0,0,0,3.19-1.3c.17-.67-1.77-.37-1.93.26Z"/><path class="cls-2" d="M188.51,77.21c-.14.59,1,0,1-.11a.38.38,0,0,1-.08-.26.7.7,0,0,1,.2-.4c.29-.33,0,0-.32-.08.4.08.62.92.7,1.24s.24,1.23-.07,1.55c.09-.09.44-.05.23-.1a1.43,1.43,0,0,1-.57-.3c-.58-.39-1.37-1.45-1-2.18.17-.35.57-.16.92,0s1.27.9.68,1.27c-.29.19-.56.62-.15.84a1.45,1.45,0,0,0,1.38-.16,1.56,1.56,0,0,0,.9-1.45,2.25,2.25,0,0,0-1.14-1.42,3.55,3.55,0,0,0-4,.35c-1.71,1.39.48,4,2.05,4.22a2.36,2.36,0,0,0,2.8-1.62,3.27,3.27,0,0,0-1-3.12c-1.12-.86-2.81,0-3.38,1.14-.77,1.49,1.26,2,2.26,1.3a1.48,1.48,0,0,0,.58-.93c.18-.8-1.78-.51-1.94.21Z"/><path class="cls-2" d="M192.43,75.63a1.14,1.14,0,0,1-.05.58c-.2.49-.56-.52,1.27-.28a.45.45,0,0,1-.17-.11c-.34-.27-.31-.9-.23-1.28l-1.58.55a3.88,3.88,0,0,1,1.52,0,1.14,1.14,0,0,1,.54,1,1.72,1.72,0,0,1-.25,1c-.31.5,1.29-.06,1-.18a1.7,1.7,0,0,1-.57-.46c-.31-.34-2.08.36-1.83.64a1.83,1.83,0,0,0,2,.44,1.89,1.89,0,0,0,1.51-1.31,1.74,1.74,0,0,0-.28-1.62c-.6-.6-1.61-.38-2.37-.37a2.87,2.87,0,0,0-1,.18c-.14,0-.59.18-.63.37-.16.74,0,1.76.93,1.77a2.89,2.89,0,0,0,1.76-.54,1.07,1.07,0,0,0,.32-1c0-.32-2,0-1.93.52Z"/><path class="cls-2" d="M190.9,73.13V73c0-.09-.06,0,0,0l-.38.29c-.71-.08-.91-.06-.62.09,0,0,.2.16.14.1a.56.56,0,0,1,.17.37,1.42,1.42,0,0,0,0,.28s-.12.25,0,.12c0,0-.19.19,0,.07s-.12,0,.11-.06a.37.37,0,0,1,.21,0,1.43,1.43,0,0,1-.5-.34,2.14,2.14,0,0,1-.28-.39c0,.06-.07-.35-.06-.2,0-.07,0-.14,0-.2,0-.21-.05.13,0-.06s.13-.21,0,0a1.58,1.58,0,0,1,.12-.15c-.15.17,0,0,0,0-.2.15,0,0,0,0s-.23.07,0,0-.23,0,0,0-.21,0,0,0-.18-.07,0,0-.13-.09,0,0c0,0,.17.16.06,0a1.48,1.48,0,0,1,.31.94c.05.49.82.53,1.16.44a.93.93,0,0,0,.78-1c-.16-1.71-1.7-2.34-3.19-1.75a2,2,0,0,0-.76,3.23,2.39,2.39,0,0,0,2.69.71,2,2,0,0,0,1.25-1.85,1.86,1.86,0,0,0-1.49-1.79,1.45,1.45,0,0,0-1.76,1.34c0,1.06,1.95.8,2-.13Z"/><path class="cls-2" d="M185.08,75.29c-.24,0,0-.45.14-.54-.12.12-.2,0,0,0a.64.64,0,0,1,.25.18,1.42,1.42,0,0,1,.12,1.37,1.55,1.55,0,0,1-.37.63c-.08.08-.23.13,0,.07S185,77,185,77a1.69,1.69,0,0,1-1.18-1.19,2.1,2.1,0,0,1,.07-1.52,1,1,0,0,1,.38-.44c-.1.06-.13,0,0,0A2.5,2.5,0,0,1,185,74c1.76.58,1.11,2.51,0,3.37-.33.25-.21.58.17.65a1.78,1.78,0,0,0,1.37-.37A3.23,3.23,0,0,0,188,74.53c-.33-1.37-2.2-1.79-3.39-1.69a3,3,0,0,0-2.75,1.93,2.55,2.55,0,0,0,.83,2.74c1.89,1.5,5.44-.11,4.89-2.68-.29-1.29-2-1.27-3-.87a2.59,2.59,0,0,0-1.45,1.29c-.27.59.24,1,.78,1.06a1.8,1.8,0,0,0,1.36-.37c.29-.24.24-.6-.17-.65Z"/><path class="cls-2" d="M185.32,71.87c-.08.16-.2.25,0,.1s.85-.37,1.15-.14a.45.45,0,0,1-.09-.1,1.66,1.66,0,0,1-.19-.66,1.06,1.06,0,0,1,.12-.62c-.06.09.18-.06-.23.14a1,1,0,0,1-.45.08,1.06,1.06,0,0,1,.51.22,1.76,1.76,0,0,1,.45,2.15c.11-.15.6-.07.2-.15a1.31,1.31,0,0,1-.74-.43c-.25-.27,0-.65.28-.74s1-.33.84-.74-.83-.3-1.1-.22c-.89.28-2.14.85-2.05,2s1.88,1.34,2.68,1.25a2.2,2.2,0,0,0,2-1.67,2.48,2.48,0,0,0-.87-2.25,2.55,2.55,0,0,0-2.58-.23,1.66,1.66,0,0,0-1,1.62,1.47,1.47,0,0,0,.63,1.27,1.81,1.81,0,0,0,2.22-.81c.43-.81-1.5-.59-1.8,0Z"/><path class="cls-2" d="M182.86,70.5c.35-.31-.68.3-.82.17.1.09.07.3.05.41a1.34,1.34,0,0,1-.15.41.93.93,0,0,1,.54-.22c.06,0,.2,0,0,0a1.42,1.42,0,0,1-1-1.18,1.27,1.27,0,0,1,.26-.72,1.44,1.44,0,0,1,.18-.25l0,0c-.13.06-.15.07-.06,0a1,1,0,0,1-.3.08c-.08,0-.26,0-.07,0,0,0,.25.1.3.14a3.33,3.33,0,0,1,1.35,2,2.15,2.15,0,0,1,.05.47.89.89,0,0,1,0,.22s-.11.24-.05.15-.17.18,0,.06l0,0c.25-.16-.11,0,.2-.08-.09,0,0,0,.08,0a1.25,1.25,0,0,1-.33,0,1.8,1.8,0,0,0-1.36.36c-.3.25-.23.57.17.63,1.38.2,3.42-.26,3.23-2a3.55,3.55,0,0,0-2-2.7c-1.51-.61-3.62.55-3.59,2.26,0,.91,1.07,1.53,1.84,1.68A2.17,2.17,0,0,0,184,70.69c.27-1.54-2.05-1-2.71-.45-.29.26-.23.56.17.63a1.82,1.82,0,0,0,1.37-.37Z"/><path class="cls-2" d="M180.39,73.73c-.29-.25-.14-.61.08-.86-.24.28-.39,0,0,.19a1.36,1.36,0,0,1,.32.21c.39.34.21.93,0,1.31a2,2,0,0,1-.51.6c-.36.27.13.12-.15,0a1.92,1.92,0,0,1-1.26-1.57,2,2,0,0,1,.75-1.72c.4-.36.93,0,1.37.36a2.33,2.33,0,0,1,.59,2.11,2.65,2.65,0,0,1-.38,1,2,2,0,0,1-.36.41c-.26.25.22.07-.14,0a2.36,2.36,0,0,0-1.37.37c-.31.2-.25.42.12.45a4,4,0,0,0,3.75-1.76,2.69,2.69,0,0,0-.68-3.49c-1.94-1.46-6.42.57-5.46,3.24s5.18,1.33,5.82-.84c.35-1.2-1-1.73-1.94-1.69a3.66,3.66,0,0,0-2.28.88.93.93,0,0,0-.14,1.41c.4.35,2.14-.39,1.81-.67Z"/><path class="cls-2" d="M177.87,68.34s0,0,0,0a1.22,1.22,0,0,1,1.1-.34c.1,0,.1,0,0,0a.91.91,0,0,1-.29-.39.78.78,0,0,1-.06-.49c0-.12,0-.07.08-.16a.66.66,0,0,1-.38.19,1.5,1.5,0,0,1,.9.32,1.7,1.7,0,0,1,.62,1.16,1.34,1.34,0,0,1-.14.68,1.62,1.62,0,0,1-.18.19c.46-.3.62,0,.38-.15a1.1,1.1,0,0,1-.3-1.27c.17-.6-1.76-.32-1.93.28a1.5,1.5,0,0,0,.84,1.93,2.92,2.92,0,0,0,3-1,1.88,1.88,0,0,0-.26-2.36,2.85,2.85,0,0,0-2.5-.74c-1,.11-2.56.84-1.9,2.09s2.42.85,3-.2c.21-.38-.68-.36-.81-.34a1.45,1.45,0,0,0-1.11.62Z"/><path class="cls-2" d="M175.47,70.26a1.85,1.85,0,0,1,0,.23c0,.18,0-.07,0,.06a1.1,1.1,0,0,1,1.28-.35s-.18-.13-.06,0a1.34,1.34,0,0,1-.42-.66c0-.09-.07-.34-.07-.33a1,1,0,0,1,0-.17c0-.05,0-.05,0,0a.67.67,0,0,1-.3.16c-.22.06-.18,0,0,0-.05,0-.11,0,0,0a.85.85,0,0,1,.26.24,2,2,0,0,1,.52,1.23.46.46,0,0,1-.15.38.78.78,0,0,1,.44-.18h0c.1,0,.1,0,0,0a1,1,0,0,1-.51-.47c-.07-.16,0-.18,0-.23s-.19.14,0,0c-.19.12.07,0,.15,0,.31-.06.94-.38.83-.79s-.8-.33-1.11-.27c-.8.16-1.93.67-1.8,1.66.09.65.88,1.11,1.46,1.22a2.34,2.34,0,0,0,2.58-1.22,2.39,2.39,0,0,0-.83-2.36c-1.18-1-4.05-.27-3.41,1.6a1.77,1.77,0,0,0,1.13,1.19,1.58,1.58,0,0,0,2-1.24c.11-.83-1.84-.49-1.94.22Z"/><path class="cls-2" d="M174.81,73.32a1.46,1.46,0,0,1,.22-.58.62.62,0,0,1-.35.2,1,1,0,0,1-.28,0c-.13,0-.14,0-.05,0-.16,0,.07,0,.11.07a.45.45,0,0,1,.15.12,2.71,2.71,0,0,1,.38.51,1.38,1.38,0,0,1,.17,1c0-.11-.13.18,0,0-.13.16.22-.1,0,0,.12-.06,0,0-.08,0a.62.62,0,0,1-.24,0c-.4-.09-.5-.62-.47-1a1.47,1.47,0,0,1,.24-.66c.1-.15.31-.18.07-.14.3-.05,1.12.2.87.63a2.67,2.67,0,0,1-1.2.79c-.33.12-.93.38-.81.84s.8.44,1.12.33a5,5,0,0,0,2.76-1.9c.71-1.23-1-1.87-1.94-2a2.91,2.91,0,0,0-2.84,1.53,1.94,1.94,0,0,0,.44,2.41c1.47,1.11,4.58,0,4-2.07a2.18,2.18,0,0,0-3.87-.93,2.38,2.38,0,0,0-.34.91c-.19.85,1.78.57,1.95-.19Z"/><path class="cls-2" d="M169.68,76.44H169c-.31,0-1.28.08-1.36.49-.39,2.08,2.73,2.4,3.78,1,1.52-2-1.14-2.77-2.71-2.6-1.26.13-3.42,1-3.1,2.61.24,1.28,2.1,1.79,3.16,1.91,1.4.17,3.36-.27,4.12-1.56a3.12,3.12,0,0,0-1.65-4.46A6.53,6.53,0,0,0,165.39,75a3.34,3.34,0,0,0,.37,5.53c2.25,1.3,4.91-.1,6.91-1.25,1.12-.64-.64-.65-1.14-.36A12.26,12.26,0,0,1,169.17,80a2.54,2.54,0,0,1-2.78-1.39,2.82,2.82,0,0,1,.94-3.84c2.33-1.37,5.26,1.57,3.64,3.83-.76,1.07-3-.15-3.38-1.08s.62-1.47,1.41-1.29c.6.14,1.08.54.93,1.2-.08.37.42.44,0,.15a.77.77,0,0,1-.33-.93c-.46.2-.91-.24-1.36.76h.65c.58,0,2.1-1,.81-1Z"/><path class="cls-2" d="M169.14,72.08c.63.14,1.84,0,1.76-.91-.05-.61-.87-1-1.4-1.06-1.45-.13-3.28,1.92-1.71,3,1.06.72,2.77.23,3.75-.37a2.39,2.39,0,0,0,1.1-3.26c-.86-1.58-3.21-1.82-4.72-1.19-1.36.55-2.9,2.14-2.25,3.71s2.38,2.09,3.79,2.31a4.89,4.89,0,0,0,4.4-1.64,2.18,2.18,0,0,0,.43-2.34,3.36,3.36,0,0,0-2.72-1.48c-.9-.14-2,1.13-.69,1.33.7.1,1.66.4,1.64,1.27s-.79,1.31-1.47,1.52c-1.25.39-4.18-.9-3.48-2.53a1.8,1.8,0,0,1,2.45-.94,1.45,1.45,0,0,1,.79,2,1.52,1.52,0,0,1-1.28.6.44.44,0,0,1-.38-.21,1.84,1.84,0,0,1,0-.33c.31-.22.18-.26-.41-.12a.37.37,0,0,1,.2.26c.06-.17.11-.34.17-.51l0,0,.89-.41.27,0a1.42,1.42,0,0,0-1.36.36.51.51,0,0,0,.23.88Z"/><path class="cls-2" d="M173.87,66.54c-.28-.17-.5-.34-.4-.69s-.42,0-.1.31a1.15,1.15,0,0,1,.3.45,1.23,1.23,0,0,1-.65,1.44c-1.22.76-2.21-1.12-1.57-2.11a1.6,1.6,0,0,1,2.89.3,3.17,3.17,0,0,1,.19,1.75,2.18,2.18,0,0,1-.29.82.92.92,0,0,1-.23.25c.33-.26.59-.07.17-.2a1.86,1.86,0,0,0-1.36.21c-.2.11-.64.5-.2.64a3.07,3.07,0,0,0,3.47-1.06,3.35,3.35,0,0,0,0-3.34c-1.36-2.34-6.26-.9-6.76,1.53-.29,1.38,1.09,2.37,2.32,2.35a4.91,4.91,0,0,0,3.7-1.67A1.61,1.61,0,0,0,174,65a2.8,2.8,0,0,0-2.17.81.92.92,0,0,0,.28,1.48,1.53,1.53,0,0,0,1.27,0c.1,0,.9-.46.54-.67Z"/><path class="cls-2" d="M172.93,62.11c-.31,0-.41-.17-.48-.45a.74.74,0,0,1,0-.36c.11-.42-.72-.15-.38,0,.49.14.63.8.68,1.22a2.19,2.19,0,0,1-.43,1.44c-.3.41-1,0-1.41-.37-.67-.64-.64-2.88.39-2.95a1.67,1.67,0,0,1,1.76,1.89c-.08.59,1.85.22,1.92-.3.36-2.56-2.82-2.79-4.55-2.12a2.82,2.82,0,0,0-1.93,2.61,2.35,2.35,0,0,0,2.29,2.3,3.77,3.77,0,0,0,3.47-1.38,2.4,2.4,0,0,0,0-2.69,2.47,2.47,0,0,0-3.15-.07c-.94.8-.87,2,.52,2.16a2.11,2.11,0,0,0,1.36-.37c.31-.22.25-.48-.13-.51Z"/><path class="cls-2" d="M177.23,58c-.63-.22-.74-.76,0-1s.79.59.62,1a2.14,2.14,0,0,1-3,1.14c-1.05-.71-.26-2.37.61-2.82a2.15,2.15,0,0,1,2.24.62,1.59,1.59,0,0,1-.08,2.49.49.49,0,0,0,.23.85,1.42,1.42,0,0,0,1.36-.37,2.56,2.56,0,0,0,0-4.06,4.35,4.35,0,0,0-4.54-.55,3.76,3.76,0,0,0-2.21,2.89,2.44,2.44,0,0,0,2.16,2.53,4.76,4.76,0,0,0,3.93-1.21c.86-.7,1.77-1.84,1.14-3-.75-1.34-2.89-.82-3.9-.23a2,2,0,0,0-1,1.46c-.08.8.75,1.21,1.37,1.42s2.27-.81,1.14-1.21Z"/><path class="cls-2" d="M177,63.67a1.1,1.1,0,0,1-.51-1.25c.12-.6.44-.23.7.13a3.23,3.23,0,0,1,.38,2.34,1.66,1.66,0,0,1-.23.63c0,.06-.09.08,0,0s.19,0,.09,0c.21,0-.07,0-.09,0a1.68,1.68,0,0,1-.46-.31,1.25,1.25,0,0,1-.37-1,1.09,1.09,0,0,1,.37-.62c.09-.09,0,0-.15,0a.44.44,0,0,1,.22.05,1.5,1.5,0,0,1,.56.5.58.58,0,0,1,.09.23c0,.06,0-.14.15-.21-.33.2-.51.68-.12.93A1.38,1.38,0,0,0,179,64.9c1-.61.4-1.64-.28-2.2a2.72,2.72,0,0,0-3.45.32c-1.56,1.35-.38,3.53,1.4,3.79a2.53,2.53,0,0,0,2.52-1.18,4,4,0,0,0,0-3.5,2.45,2.45,0,0,0-3.44-1,2.12,2.12,0,0,0-1,2.78,2,2,0,0,0,1.16,1c.76.29,2.27-.79,1.14-1.23Z"/><path class="cls-2" d="M181.17,60.08c-.15,0-.19-.08-.17-.22.08-.43.35.14-.33-.11.29.11.4.53.46.8a3,3,0,0,1-.52,2.24c-.08.12-.35.24,0,.13s0-.11-.15-.22a1.39,1.39,0,0,1-.34-.89,1.5,1.5,0,0,1,.25-.94c.06-.08,0-.13.18,0s-.12.54-.29.67c-.33.25-.19.59.18.66a1.78,1.78,0,0,0,1.37-.36c1-.73,1.06-1.72-.23-2.06A3.14,3.14,0,0,0,178.47,61a2.14,2.14,0,0,0,0,2.27,2.26,2.26,0,0,0,2.75.5c1.52-.71,2.73-3.27,1.33-4.67-.73-.74-2.16-.34-2.87.23s-.81,1.55.3,1.82a1.71,1.71,0,0,0,1.36-.37c.32-.27.21-.57-.17-.66Z"/><path class="cls-2" d="M181.79,57.8c-.61-.25-.5-1-.24-1.45a1.49,1.49,0,0,1,.23-.27l.12-.09a1.35,1.35,0,0,1-.56.17c-.11,0,.17.1.23.14a1.33,1.33,0,0,1,.47.53,1.66,1.66,0,0,1-.61,2,.47.47,0,0,1,.27-.11s.54,0,.36-.05-.2-.2-.24-.31a1.12,1.12,0,0,1-.08-.72.62.62,0,0,1,.14-.28c.19-.24-.79.12-.58.16l-.17-.14c.12.31-.15.27-.21.55-.11.53,1.8.21,1.91-.31,0-.08.09-.11.16-.19a.5.5,0,0,0,.07-.56c-.17-.43-1.38-.18-1.69-.09-1,.26-1.9,1-1.49,2.1.31.83,1.41.72,2.08.51a3.07,3.07,0,0,0,2-1.62,1.74,1.74,0,0,0-.55-2.14,2.71,2.71,0,0,0-2.66.06c-1.15.5-2,2.3-.51,2.92a1.88,1.88,0,0,0,1.35-.23c.22-.11.62-.4.22-.57Z"/><path class="cls-2" d="M178.56,54.44h-.65c.19,0,.39.17.58.26a3.54,3.54,0,0,1,.35-2,1.37,1.37,0,0,1,.2-.29c.12-.09.1-.09-.08,0a.87.87,0,0,1-.39.07c.4.06.68.5,1,.74a1.14,1.14,0,0,1,.14,1.53c.13-.13.56,0,.28-.14a.26.26,0,0,1-.17-.18c0-.1.06-.33,0-.32l-1.09-.21c0,.2,0,.29.14.19a3.28,3.28,0,0,0-.38.27c-.31.26-.22.59.17.66a1.73,1.73,0,0,0,1.37-.36c-.12.1.1-.06.11-.07a1.49,1.49,0,0,0,.42-.37,1,1,0,0,0,.1-.84c-.11-.4-.83-.28-1.09-.21a2.25,2.25,0,0,0-1.72,1.31c-.22.65.43,1.05,1,1.17,1.49.35,3.34-.75,3-2.41a2.91,2.91,0,0,0-1.42-1.57,2.45,2.45,0,0,0-2.25,0,3.35,3.35,0,0,0-1.56,3.5c0,.23.43.26.59.26h.65a1.58,1.58,0,0,0,1.28-.48c.26-.38-.22-.52-.52-.52Z"/><path class="cls-2" d="M175.67,52c-.38-.27-.78-.67-.75-1.09a.56.56,0,0,1,.15-.38c.13-.16.14-.14.31-.22s-.14,0,.14,0c-.32.08.32,0,0,0,.2,0,.19,0,.43.17a2.05,2.05,0,0,1,.55,1.65,1.42,1.42,0,0,1-.71,1.2.63.63,0,0,1-.37.07c-.1,0-.18,0-.31-.22s-.08-.5,0-.73a2.28,2.28,0,0,1,.23-.56c.05-.09.26-.27.07-.21a.42.42,0,0,1-.29,0c.09,0,.11,0,.05,0a.54.54,0,0,1,.2.22s0,0,0,.08c0-.23.63-.33.29-.32s-1,.3-1.07.75.53.59.88.58c1.05,0,2.26-.77,1.67-1.92s-2.12-.81-2.9-.26a2.61,2.61,0,0,0-.91,3.1c.53.87,1.72.88,2.61.7a3.09,3.09,0,0,0,1.94-4.88c-1.21-1.47-3.73-.74-4.67.64-.7,1,.1,2.12.95,2.71.66.46,2.38-.46,1.5-1.07Z"/><path class="cls-2" d="M172.46,48.94c-.87-.21-.82-1.29-.55-1.94a2.72,2.72,0,0,1,.29-.5c.31-.43.69-.27-.33-.12-.22,0,0,0,.06,0a1.83,1.83,0,0,1,.39.21,2.32,2.32,0,0,1,.66.7,2.42,2.42,0,0,1-.39,2.7c-.23.21,1.28-.13.76-.23a.83.83,0,0,1-.35-.18,1.31,1.31,0,0,1-.25-.77,2.61,2.61,0,0,1,.31-1.33c.09-.18.37-.32,0-.21l-1.29.08c0,.37.22,1.27-.13,1.52l.54-.27.55-.13a2.6,2.6,0,0,0-1.3.45c-.33.28.3.28.45.27.58-.07,1.47-.23,1.76-.81a3.52,3.52,0,0,0,.07-1.55c0-.3-1.19,0-1.29.08a2.2,2.2,0,0,0-1.58,1.89c-.17.93.26,1.71,1.27,1.71a3.09,3.09,0,0,0,2.62-1.19,2.82,2.82,0,0,0,.29-2.27,2.2,2.2,0,0,0-1.76-1.42,3.68,3.68,0,0,0-2.7.89c-.9.87-1.23,2.74.29,3.1a2.43,2.43,0,0,0,1.35-.26c.15-.07.66-.35.25-.45Z"/><path class="cls-2" d="M167.09,42.4a1,1,0,0,0-.28,1.32,2,2,0,0,0,1.28.73c1.27.24,3.11-.25,3.22-1.76.07-1-1.32-1.11-2-1s-2.35.74-1.64,1.8c.34.5,2.11-.26,1.94-.52a.79.79,0,0,1-.2-.56.23.23,0,0,1,.07-.15c.09-.1-.1.06-.11.07a1.79,1.79,0,0,1-.41.13.74.74,0,0,1-.21,0s.21,0,.07,0a.88.88,0,0,1,.26.1.66.66,0,0,1,.31.52,1.2,1.2,0,0,1-.2.76c-.1.08-.07.08.06,0a1.31,1.31,0,0,1,.54-.14,1.7,1.7,0,0,1-.45-.08c-.61-.2-.95-.8-.47-1.31.3-.32-.27-.37-.47-.35a2.08,2.08,0,0,0-1.29.47Z"/><path class="cls-2" d="M167.88,45.71c-.63.18-1.65.49-1.84,1.23a1.39,1.39,0,0,0,.54,1.26,3.28,3.28,0,0,0,4,.24,2,2,0,0,0,.69-1.9c-.06-1.06-1.47-1.18-2.24-1.06s-2.34.8-1.84,1.84c.43.88,1.81.59,2.49.29s.76-.63.51-1.18-2.1.15-1.93.51c.05.13.16.43.11.49.5-.59,1.53-.23,1.05-.38a.71.71,0,0,1-.18-.12.53.53,0,0,1-.19-.48.91.91,0,0,1,.14-.34c.21-.35-1,.06-.55.16.63.14.73.76.7,1.3a1.77,1.77,0,0,1-.15.6.62.62,0,0,1-.1.16c-.14.17,0,0,.16,0a1.67,1.67,0,0,1,.3-.08h.06c.28,0-.14,0,0,0a2.64,2.64,0,0,1-.5-.15,2.54,2.54,0,0,1-.87-.61,1.12,1.12,0,0,1-.36-.78.65.65,0,0,1,.08-.25c.1-.12,0,0,.09-.09-.08,0-.08,0,0,0-.24.11.18,0-.08,0,.18,0,1-.27.88-.58s-.87-.12-1.05-.07Z"/><path class="cls-2" d="M168.24,52.44h.65a1.71,1.71,0,0,0,1.34-.87c.9-1.88-1.9-2.6-3.12-1.87-.58.36-1.28.74-1.23,1.52A2.51,2.51,0,0,0,167,53c1.71,1.29,6.09.52,5.34-2.28-.65-2.45-3.66-3.18-5.64-1.85a3,3,0,0,0-1,4.21c1.38,2,4.3.37,5.87-.44.25-.13.59-.53.18-.7a1.68,1.68,0,0,0-1.36.19c-.52.27-1,.56-1.58.78-.8.33-1.31-.46-1.52-1.09a2.16,2.16,0,0,1,.69-2.54c.73-.49,1.87.84,2.18,1.4s.59,1.85-.36,1.86a2.16,2.16,0,0,1-1.92-1.36,1.13,1.13,0,0,1-.09-.51.66.66,0,0,1,.13-.31c.26-.15.23-.15-.09,0,.58.2.68,1.06.45,1.54a3.32,3.32,0,0,1,1.35-.4H169a1.67,1.67,0,0,0-1.27.5c-.28.37.23.5.51.5Z"/><path class="cls-2" d="M170.77,53a1.79,1.79,0,0,0-.59,1.54,1.5,1.5,0,0,0,1,.9,4.34,4.34,0,0,0,3.85-.48c1.25-.9-.26-2.33-1.23-2.59a3.14,3.14,0,0,0-3.05.84,1.37,1.37,0,0,0,.45,2.05,2.42,2.42,0,0,0,2.17-.2,1.36,1.36,0,0,0,.77-1.5c0-.22-.43-.1-.58-.1h-.65c-.35,0-1.47.07-1.35.62,0,.17.18.19.21.35.14.63,2.07.1,1.94-.55,0-.18-.19-.16-.22-.32-.45.26-.9-.1-1.35.9h.65c-.19,0-.39-.31-.58-.4a1,1,0,0,1,0,.45c0,.11-.14.17,0,.07a1.19,1.19,0,0,1,.58-.17c.2,0-.06,0,.05,0a.69.69,0,0,1-.24-.18.9.9,0,0,1-.14-.79s.15-.24.06-.19-.38.08-.16.08c.4,0,.87.49,1.12.85,0,0,.06.13.08.19s0,.24,0,.13a.65.65,0,0,1,0,.19c.06-.17-.16.13,0,0-.15.15.16-.08,0,0,.15-.07.18-.09.09,0s.25-.07.06,0,0,0-.06,0l-.12,0c-.2,0,.22,0,0,0a1.7,1.7,0,0,1-.87-.13.77.77,0,0,1-.53-.52c-.08-.32.19-.67.46-1s-.27-.52-.52-.52a1.67,1.67,0,0,0-1.27.51Z"/><path class="cls-2" d="M167.72,56.44c-.82,1.65.91,2,2.22,1.74,1.61-.37,2.72-2.35,1-3.44a3.85,3.85,0,0,0-4.8.94,2.87,2.87,0,0,0,.64,4c2.68,2,8.31-1.54,5.91-4.7-1.13-1.48-3.18-1.26-4.66-.57-1.29.6-2.89,2-2.13,3.6.32.67,2.21.06,1.93-.52-.59-1.22.94-3,2.25-2.4,1.92.9,1.35,3.53-.51,4.07-.75.22-1.5-.59-1.8-1.16a2.05,2.05,0,0,1,.19-2.3,1.12,1.12,0,0,1,1.84.55c.42,1.07-.75,1.13-.3.22s-1.52-.62-1.8-.05Z"/><path class="cls-2" d="M163.07,55c1,.57,2.88.27,3-1.08.08-1.59-2-1.68-3-1.2a1.76,1.76,0,0,0-.65,2.92,3.62,3.62,0,0,0,3.61.26,1.75,1.75,0,0,0,.93-2.65c-.71-1-2.4-.91-3.43-.71A2.8,2.8,0,0,0,161,54.73a2.33,2.33,0,0,0,2.25,2.47,1.71,1.71,0,0,0,1.36-.36c.29-.26.23-.62-.18-.68a1.58,1.58,0,0,1-1.2-2.48c.41-.6,1.76,0,2,.49.1.2.16.87-.13,1a1.4,1.4,0,0,1-1-.35,1,1,0,0,1-.3-1l.06-.18c.17-.21.12-.24-.16-.1a.82.82,0,0,1,.43.64.63.63,0,0,1,0,.27l.82-.23a1.17,1.17,0,0,1-.27-.15c-.54-.32-2.33.47-1.54.93Z"/><path class="cls-2" d="M161.78,48.09a2.46,2.46,0,0,0,.78,2.52,3.33,3.33,0,0,0,3.14,0c1.71-.85,2.22-3.34,0-3.91-1-.26-2.63.07-3.06,1.12-.34.85.62,1.79,1.45,1.79a1.89,1.89,0,0,0,1.94-1.37c.16-1-1.17-1.2-1.88-1.14-.33,0-1.09.28-1.08.72a1.65,1.65,0,0,0,.29,1.17c.5.6,2.35-.13,1.79-.8a.76.76,0,0,1-.14-.57l-1.08.72c.16,0,.16,0,.15.09s-.07.18,0,.11l-.05,0a1,1,0,0,1,.72-.24c.26,0,.23.12.12,0s-.34-.32-.34-.47-.05,0-.05,0a.77.77,0,0,1,.74.49,1.11,1.11,0,0,1-.07.89,1.29,1.29,0,0,1-.28.38c-.08.08-.1.06-.14.06-1.08.12-1.1-1.13-1-1.86.12-.88-1.84-.57-1.94.2Z"/><path class="cls-2" d="M158.3,52a1.66,1.66,0,0,0,1.36,2.23,4.35,4.35,0,0,0,3.36-.53,1.94,1.94,0,0,0-.3-3.5c-1.87-.58-4.52,1.13-4,3.23.54,2.33,4.67.82,4-1.4a1.62,1.62,0,0,0-1.53-1c-.42,0-1.32.18-1.32.76a2.1,2.1,0,0,0,.23,1.05.92.92,0,0,0,1.14.38c.29-.08,1-.47.79-.9a1.41,1.41,0,0,1-.2-.69l-1.32.77c.44,0,.38.57.16.83.09-.1,0,0-.05,0,.08,0,.33,0,.18,0,.08,0,0,0,0,0a.48.48,0,0,1-.12-.26,1.23,1.23,0,0,1,.32-1.13l.18-.13s.4-.17.28-.13l.19,0c-.11,0-.11,0,0,0-.1,0,.08,0,.08,0a.52.52,0,0,1,.22.18.75.75,0,0,1,.16.39.91.91,0,0,1-.28.8c.15-.16-.24.12,0,0-.1,0-.11,0,0,0l-.19.05a2.71,2.71,0,0,1-.85,0c-.62-.09-.58-.6-.43-1.09s-.58-.63-.88-.6a1.14,1.14,0,0,0-1.07.76Z"/><path class="cls-2" d="M155.87,55.11a1.64,1.64,0,0,0-.61,1.94A2.48,2.48,0,0,0,157,58c1.39.26,3.6,0,4.51-1.21a1.59,1.59,0,0,0-.13-2,2.89,2.89,0,0,0-3.06-1.13,3.12,3.12,0,0,0-2.09,2.14,1.41,1.41,0,0,0,1.17,1.89,2.6,2.6,0,0,0,2.71-1.27c.52-1.13-.63-1.83-1.61-1.87-.47,0-1.49.26-1.31.94.05.16.18.28.22.43.23.87,2.16.35,1.93-.51,0-.17-.18-.29-.21-.44l-1.31.94c.17,0,.54,0,.45.31,0,.11-.05.11-.06.11s0,0-.07,0c.16.06,0,0,0,0a.66.66,0,0,1,0-.3,1.47,1.47,0,0,1,.24-.71,2.55,2.55,0,0,1,.26-.3s.18-.08,0,0c.18-.06-.1,0,.09,0a1.4,1.4,0,0,1,.5.29,2.36,2.36,0,0,1,.55.67s.09.34.08.22c0,.07-.07.32,0,.17-.08.19,0,0,0,.08s-.06.06,0,0l-.16.12c.21-.15-.11.05-.18.08h0l-.24.07a4.42,4.42,0,0,1-1.39.08,1.43,1.43,0,0,1-.83-.29c-.08-.1-.08-.05,0-.25-.05.18.14-.2.06-.09a2.66,2.66,0,0,1,.32-.35.53.53,0,0,0-.24-.91,1.38,1.38,0,0,0-1.36.37Z"/><path class="cls-2" d="M160.62,59.73c1.15.07,3.59-.44,2.92-2.11s-3.23-1-4.17-.15c-1.25,1.15-.53,2.9.85,3.51s3.32.12,4.66-.48c1.15-.52,2.35-1.67,1.71-3-.88-1.84-3.52-1.62-5.07-.93S158.63,59,160,60.47c1.12,1.21,3.47.79,4.58-.21l.15-.14c.35-.31-.3-.42-.48-.41a2,2,0,0,0-1.28.48c-.41.37-1.29-.47-1.5-.92a1.83,1.83,0,0,1,1.19-2.3c1.71-.35,2.93,1.82,1.5,2.9a2.28,2.28,0,0,1-3.32-.6,1.83,1.83,0,0,1-.16-1,1.46,1.46,0,0,1,.21-.57c.18-.28-.2-.16.12-.07a1.08,1.08,0,0,1,.66.66.85.85,0,0,1,0,.42c0,.32-.21.14.14.16a2.19,2.19,0,0,0-1.36.37c-.3.21-.25.5.14.52Z"/><path class="cls-2" d="M155.88,61.41a3,3,0,0,0,3.2-1,2,2,0,0,0-.3-2.26c-.75-.91-1.86-.76-2.86-.53a2.91,2.91,0,0,0-2.12,3.13c.22,2.71,4.62,2.41,5.85.73a2,2,0,0,0-.86-2.77A2.4,2.4,0,0,0,155.48,60a.42.42,0,0,0,.22.43,1.71,1.71,0,0,0,1.05.34,1.38,1.38,0,0,0,1.27-.57c.22-.4-.19-.7-.57-.71a.18.18,0,0,1-.24-.1c.07.14.14.29.22.43.07-.26-.16-.05-.1,0a.94.94,0,0,1,.55.6c.12.31.24.76-.13.95a1.4,1.4,0,0,1-2-1.28,2,2,0,0,1,.27-1c.18-.33.31-.3.64-.42-.1,0-.09,0,0,0a1,1,0,0,1,.39.33,1.29,1.29,0,0,1,.28,1c0,.08-.14.3-.05.22s.1,0,.14,0a1.14,1.14,0,0,1-.41,0,1.47,1.47,0,0,0-1.36.36.48.48,0,0,0,.22.84Z"/><path class="cls-2" d="M164.36,61.47c-1,1.06-.84,2.25.54,2.79a3.5,3.5,0,0,0,4-1.66,1.82,1.82,0,0,0-1.15-2.79,4.22,4.22,0,0,0-4,.89,2.3,2.3,0,0,0-.18,3.41,4.29,4.29,0,0,0,4,.66c1.36-.42,2.78-1.73,2.36-3.29-.36-1.33-2-1.94-3.27-1.74a3,3,0,0,0-2,1.23c-.29.39.24.65.55.66a1.47,1.47,0,0,0,1.27-.55c.18-.25.1-.2.4-.13a1.78,1.78,0,0,1,.85.54,1.41,1.41,0,0,1-.24,2,1.68,1.68,0,0,1-1.64.06,1.45,1.45,0,0,1-1-1.63,1.26,1.26,0,0,1,1.17-1.1,1.13,1.13,0,0,1,1.22.89c.09.51-.45,1.44-1,1.41-.75-.05-.68-.88-.31-1.28.8-.86-1.08-1-1.57-.42Z"/><path class="cls-2" d="M164.78,67c1.09.1,3.06-.28,2.72-1.76-.41-1.71-2.94-1-3.93-.45a1.89,1.89,0,0,0-.18,3.34,5,5,0,0,0,4.1,0c1.14-.44,2.42-1.51,1.67-2.85s-2.74-1.19-3.92-.7c-1,.43-2,1.92-.65,2.62a2,2,0,0,0,2.82-1.43c0-.23-1.9,0-1.93.51a1.1,1.1,0,0,1-.08.48c-.29.43,0,.37,1-.2a1,1,0,0,1-.51-.53,1,1,0,0,1,0-.73,1.65,1.65,0,0,1,.22-.36c-.16.23-.75-.07,0,.09a1.51,1.51,0,0,1,.64,2.75c-.8.51-2.17-.54-2.38-1.36a1.61,1.61,0,0,1,.22-1.09,1.91,1.91,0,0,1,.39-.46l-.41,0a2.13,2.13,0,0,1,.49.21,1.16,1.16,0,0,1,.5.65,1,1,0,0,1,.06.34c.06.73-.68.08.76.2a2.86,2.86,0,0,0-1.35.26c-.11,0-.7.41-.25.45Z"/><path class="cls-2" d="M160.73,61.11c-1.11-.12-2.82.22-2.85,1.58S159,64.5,160,64.55a5.84,5.84,0,0,0,3.58-1,1.56,1.56,0,0,0,.23-2.45c-1.21-1.09-5.8-.44-5.09,1.74.37,1.18,2.24.63,3,.27,1-.47,1.31-1.38.19-1.94-.38-.18-1.68.08-1.87.5a1.24,1.24,0,0,0,0,1.17c.18.42,2-.24,1.93-.52a1.06,1.06,0,0,1,0-1l-1.86.5c.42.21.84.53.56,1a.36.36,0,0,1-.14.16c.53-.47.89,0,.44-.3a1,1,0,0,1-.37-.78.74.74,0,0,1,.22-.56c.31-.33-.3,0,0,0a1.77,1.77,0,0,1,1.4.66,1.34,1.34,0,0,1,0,1.38,1.32,1.32,0,0,1-.46.45s-.21.09,0,0a1.51,1.51,0,0,1-.3,0,1.59,1.59,0,0,1-1.38-.73,2.4,2.4,0,0,1-.25-.77,1.45,1.45,0,0,1,0-.51c.13-.56.48.12-.72,0a2.68,2.68,0,0,0,1.34-.26c.11,0,.7-.39.26-.44Z"/><path class="cls-2" d="M161.13,71.06c.82,1.56,3.26.34,4-.67,1-1.35-.51-2.54-1.69-2.87A4.13,4.13,0,0,0,159.2,69a3,3,0,0,0-.17,3.14c.56.76,1.8.73,2.62.62a7.33,7.33,0,0,0,3.2-1.31,3,3,0,0,0,1.48-2.07c0-1.26-1.38-1.85-2.43-1.93a3.43,3.43,0,0,0-3.42,2.88.28.28,0,0,0,.19.32,3.16,3.16,0,0,0,2.45-.09c.2-.08.84-.43.53-.72s-.94-.13-1.27,0l-.16-.08.19.31a3.2,3.2,0,0,1,.35-1,2.14,2.14,0,0,1,.28-.39c.27-.17.3-.22.09-.16a1.5,1.5,0,0,1,1.07.66,1,1,0,0,1,0,1.2,3.17,3.17,0,0,1-1.2,1,3,3,0,0,1-1.25.4c-1.42.07-1.17-1.64-.85-2.58s1.3-.81,2-.36a1.5,1.5,0,0,1,.64,1,1,1,0,0,1-.27.72,1.22,1.22,0,0,1-.3.24c.27,0,.31-.08.12-.23-.33-.63-2.2,0-1.94.51Z"/><path class="cls-2" d="M160.76,74.23c-.62,1.23.31,1.84,1.4,2.19a4.41,4.41,0,0,0,3.29-.18,3,3,0,0,0,2-2.2c.1-1.12-1-1.63-1.9-1.74-1.44-.18-4.43.66-4.63,2.41-.13,1,1.13,1.6,2,1.67A2.9,2.9,0,0,0,165.68,74c.06-.24-.18-.42-.39-.46-.37-.06-.7-.21-1.09-.25a1.33,1.33,0,0,0-1.33.7c-.14.45.11.47.22.81.25.74,2.17.2,1.93-.52-.07-.21-.27-.31-.21-.5l-1.33.7c.23,0,.42.15.65.19l-.39-.46a2.85,2.85,0,0,1-.4.93c0,.07-.37-.3-.41-.34a.5.5,0,0,1,.09-.68,2.25,2.25,0,0,1,1.84-.58c1.14.21.44,1.52-.2,1.84s-2.55-.08-2.09-1-1.5-.72-1.81-.1Z"/><path class="cls-2" d="M159.68,78.55c1,1.19,3.1.24,3.66-.92.89-1.85-2.33-2.41-3.45-1.95a3.65,3.65,0,0,0-2.06,4.07c.24,1.82,2.74,1.94,4.08,1.66,1.5-.31,3.26-1.16,3.71-2.74.51-1.79-1.54-2.81-3-2.81s-3.77.69-3.87,2.52c-.05.81,1,1.22,1.61,1.22a3.79,3.79,0,0,0,2.84-1.22c.33-.33-.28-.44-.49-.44a1.94,1.94,0,0,0-1.28.5c-.53.54-1.2-1.25,0-1.61a2.13,2.13,0,0,1,2,.72c1.08,1.11-.13,2.76-1.36,3-1.77.37-2.45-1.25-2.19-2.72a4.09,4.09,0,0,1,.32-.95c.2-.44.19-.5.5-.38a1.36,1.36,0,0,1,.86.92,1,1,0,0,1-.06.48c-.14.47.26.16.06-.08-.35-.44-2.2.22-1.8.71Z"/><path class="cls-2" d="M157.39,73.77c.73.22,2.54,0,2.66-.94a1.6,1.6,0,0,0-1.27-1.62,3.51,3.51,0,0,0-3.41,1.53c-.75,1.2.23,2.58,1.36,3,1.88.77,7-1.25,4.83-3.74-1-1.16-2.85-.92-4.11-.34-.8.37-1.78,1.46-.61,2a1.78,1.78,0,0,0,1.24-.12c.06,0,.89-.37.59-.52-.46-.23-.61-.65-.25-1,.2-.23.33-.1-.13-.08a1.43,1.43,0,0,1,.61.14,2.34,2.34,0,0,1,1,.77,1.42,1.42,0,0,1,0,1.58,1.16,1.16,0,0,1-1.7.53,2.17,2.17,0,0,1-1.13-1.53,1.69,1.69,0,0,1,.19-1.06,2.09,2.09,0,0,1,.4-.49c.4-.37-.8,0-.38.06s.61.48.75.79a1.17,1.17,0,0,1,.09.52.44.44,0,0,1-.07.19c.42-.76,1.68-.19.93-.41a2.21,2.21,0,0,0-1.35.26c-.17.07-.65.35-.25.46Z"/><path class="cls-2" d="M151.79,76.32c1.41.79,4-.14,3.41-2.07-.26-.91-1.45-1.3-2.27-1.38a3,3,0,0,0-2.64,1.27c-1,1.64.1,3.29,1.84,3.6a4.58,4.58,0,0,0,4.49-1.56c1-1.51-.14-2.89-1.55-3.49a4.55,4.55,0,0,0-4.74.8,2.35,2.35,0,0,0,.08,3.66c1.27.94,3.21.71,4.56.16a4.33,4.33,0,0,0,2-1.65c.27-.41-.23-.68-.56-.71a1.41,1.41,0,0,0-1.27.56,2.24,2.24,0,0,1-3.47.31c-.46-.56-.11-1.38.29-1.87s1.47-.26,2-.07a1.36,1.36,0,0,1-.49,2.67A1.49,1.49,0,0,1,151.85,75c0-.72.44-.91,1-.59a.84.84,0,0,1,.46.58.71.71,0,0,1-.06.38c-.13.19-.12.17,0,0-.66-.36-2.4.55-1.51,1Z"/><path class="cls-2" d="M153.05,82c1.64.14,4.26-.67,2.86-2.74-1-1.48-4.1-.57-4.36,1.09-1.15,7.38,9.59,2.4,6.79-1.18-2.21-2.83-7.71-1.71-7.88,2.06-.24,5.48,7.77,4,9.81.86a2.91,2.91,0,0,0,.41-1.8c0-.29-2,0-1.93.52.17,2.82-3.41,4.32-5.47,2.56-1-.89-1.06-2.73-.67-3.92s1.13-1.21,2.18-.84c1.85.65,2.93,2.55,1.32,4.09-1,.94-1.93.89-2.39-.45-.3-.9-.66-2.32.13-3.09-.48.47-.76-.09-.12.36a1.93,1.93,0,0,1,.65,1.26c.12.75-.48.44.26.5a2.88,2.88,0,0,0-1.35.26c-.1.05-.69.42-.24.46Z"/><path class="cls-2" d="M147.06,82c1.05.36,2.9.38,3.61-.68a1.91,1.91,0,0,0-.88-2.57c-2.64-1.53-6.65,2.34-4,4.62,1.81,1.55,6.08,1,6.4-1.73.37-3.06-5.37-2.52-4.75-.79.15.42,2.05-.17,1.93-.52a.79.79,0,0,1-.08-.26c-.1-.56,1,.07-.8.07a1.83,1.83,0,0,1,.8.28,1.81,1.81,0,0,1,1,1.53A1.9,1.9,0,0,1,150,83a.89.89,0,0,1-.39.42,3.24,3.24,0,0,1-1.85-.6,2,2,0,0,1-.88-1.67,2.62,2.62,0,0,1,.34-1.34,2.15,2.15,0,0,1,.35-.5c.26-.29-.14-.13.24,0a1.83,1.83,0,0,1,1.09,1.25,1.4,1.4,0,0,1,0,.76.76.76,0,0,1-.17.35l.69-.19a2.17,2.17,0,0,1-.56-.13,1.9,1.9,0,0,0-1.24.13s-.89.4-.59.51Z"/><path class="cls-2" d="M147,76.39c-.54.41-1,1-.68,1.69a2.75,2.75,0,0,0,1.59,1.26c1.35.55,4,.29,4.26-1.5.35-2.35-2.89-3-4.41-1.87-.71.51-1.19,1.67-.26,2.23a2.23,2.23,0,0,0,3-1,.2.2,0,0,0-.17-.25,2.74,2.74,0,0,0-1.95.15c-.45.23-.52.47-.18.82s2.18-.31,1.81-.69c-.06-.06-.13-.1-.13-.19l-.22.33,0,0-.92.35c-.33,0-.34,0,0,.07a2.2,2.2,0,0,0-.17-.25,1.43,1.43,0,0,1-.09.27c.38-.86,1.18,0,.68-.37a.76.76,0,0,1-.16-.79,1.33,1.33,0,0,1,.17-.36c.16-.22,0,0-.37,0a1.22,1.22,0,0,1,.56.22c.64.36,1.46,1.7.67,2.32a.53.53,0,0,1,.31-.1,2.63,2.63,0,0,1-.42-.06,3,3,0,0,1-1.1-.51c-.54-.4-.93-1.13-.28-1.63.29-.22.26-.46-.13-.5a2.1,2.1,0,0,0-1.37.37Z"/><path class="cls-2" d="M141.11,77.77c-.59.63-.85,1.45-.1,2.06a4.23,4.23,0,0,0,2.55.81c1.17,0,3.87-.75,3.47-2.39-.29-1.17-2-1.68-3-1.76-1.52-.13-3.07.83-2.9,2.5,0,.25.42.45.61.45h1.95c.37,0,1.54-.35,1.33-1-.09-.26-.19-.64-.45-.77a6.35,6.35,0,0,0-.8-.28c-.4-.12-1.56.08-1.55.66a1.32,1.32,0,0,0,.29.94c.47.57,2.33-.14,1.79-.79a.5.5,0,0,1-.14-.37l-1.55.67a4.84,4.84,0,0,0,.51.14c-.16-.13-.2-.14-.12-.05s.08.44.09.47a2.82,2.82,0,0,1,1.33-.66h-2a1.16,1.16,0,0,1,.61.14,1.94,1.94,0,0,1,0-.68c0-.09.14-.24,0-.17.13-.09-.19,0,.06,0-.37.15.24,0-.14,0,.26,0-.06,0,.1,0l.29,0c-.19,0,.12,0,.16,0l.29.08a2.27,2.27,0,0,1,.44.2,2.88,2.88,0,0,1,.39.26,1.53,1.53,0,0,1,.18.18s.16.24.12.16a.57.57,0,0,1,.07.3.29.29,0,0,1-.09.2,1.35,1.35,0,0,1-.37.22c-.05,0-.51.18-.23.09s-.12,0-.18,0a3.26,3.26,0,0,1-1.34-.35c-.41-.22-.56-.55-.22-.91a.43.43,0,0,0-.21-.78,1.5,1.5,0,0,0-1.36.37Z"/><path class="cls-2" d="M142.08,81.34c-.6.1-1.8.36-1.91,1.12-.07.51.35,1,.68,1.3a3.44,3.44,0,0,0,4.41.28,2.09,2.09,0,0,0,.58-2.09c-.3-1-1.61-1.18-2.47-1s-2.53,1-1.54,2.17c.71.81,2.7.27,3-.74a.09.09,0,0,0,0-.14l-.43-.22a2,2,0,0,0-1.87.5c-.1.18-.16.33,0,.51.36.45,2-.38,1.93-.51s-.11-.19,0-.36l-1.87.5.22.11c.2.1.17,0,.09.23-.24.55,1.6,0,1.09-.3a.83.83,0,0,1-.32-.37.85.85,0,0,1,.09-.93c-.58.63-1.18.08-.62.28a1.72,1.72,0,0,1,.42.23,1.43,1.43,0,0,1,.45,1.55,1.77,1.77,0,0,1-.23.59l-.11.14c-.07,0-.08.06,0,0a2.23,2.23,0,0,1,.71-.21c.13,0-.16,0-.28-.07a2.33,2.33,0,0,1-.49-.21,3.63,3.63,0,0,1-.91-.7,1.62,1.62,0,0,1-.46-.8.47.47,0,0,1,0-.31s.09-.11.05-.07-.83.24-.47.18.95-.19,1.13-.51-.69-.16-.76-.15Z"/><path class="cls-2" d="M143.11,75.09c-.36,1.32,1.17,1.61,2.15,1.55s3.18-.51,3-1.83c-.11-.68-.87-1-1.47-1.16a3.46,3.46,0,0,0-2.93.94,1.12,1.12,0,0,0-.23,1.09,1,1,0,0,0,.85.53A2.36,2.36,0,0,0,147,74.76c.07-.3-.38-.32-.55-.32h-.87a2,2,0,0,0-1.29.54c-.31.34.27.46.48.46h.87c-.19,0-.37-.22-.56-.32a1.46,1.46,0,0,1-.12.33c-.15.33-.47-.15.73-.11-.1,0-.18-.24-.2-.34a.71.71,0,0,1,.18-.56s-.39.06-.13.09a1.09,1.09,0,0,1,.71.63.51.51,0,0,1,0,.52c-.06.07-.15.11-.05.06-.2.11.19-.08,0,0s.21-.06-.08,0c.28-.07,0,0,0,0,.23,0,0,0,0,0h-.08a1.33,1.33,0,0,1-.28,0,1.06,1.06,0,0,1-.52-.29.71.71,0,0,1-.1-.66c.14-.52-1.76-.23-1.91.31Z"/><path class="cls-2" d="M147.2,72c-.58.26-1.4.74-1.21,1.5.14.59.82,1,1.33,1.22,1.38.58,4,.39,4.24-1.45.33-2.62-3.48-1.55-4.57-.56a1.14,1.14,0,0,0,.44,2,3,3,0,0,0,3.17-1.91,1.87,1.87,0,0,0,.07-.22c0-.14,0-.19-.16-.22a2.79,2.79,0,0,0-3,1c-.19.32.7.22.78.21.35-.06.93-.19,1.13-.54s-1.06-.06-.45.11l-.16-.21a3.34,3.34,0,0,1-.38.84,1.58,1.58,0,0,1-.35.38c.87,0,1.13-.09.76-.27a1.1,1.1,0,0,1-.28-.29c-.3-.4.09-1,.41-1.18s-.2,0,0,0a.8.8,0,0,1,.51.27,1.53,1.53,0,0,1,.1,1.48c-.06.13-.2.22-.09.17s.6-.15.41-.14c.18,0-.12,0-.09,0a3,3,0,0,1-1.18-.46c-.58-.39-1-1.13-.24-1.46.17-.08.66-.42.23-.52a2.2,2.2,0,0,0-1.35.24Z"/><path class="cls-2" d="M151.23,70.65c-.89.81-.4,1.86.4,2.53a3.92,3.92,0,0,0,3.29.46A4.34,4.34,0,0,0,157.67,72c.58-.88-.23-1.92-1.08-2.22-1.57-.57-5.51.18-5,2.52.27,1.13,1.67,1,2.52.69a2.43,2.43,0,0,0,1.74-2.22c0-.12-.29-.15-.35-.15a5.54,5.54,0,0,0-2.27.48c-.12.06-.45.22-.4.41a1.51,1.51,0,0,0,.49.73c.36.37,2.15-.33,1.82-.67a1.18,1.18,0,0,1-.38-.58l-.4.41-.1,0-.34-.15a2.18,2.18,0,0,1-.22.83,1.38,1.38,0,0,1-.17.25c-.31.38-.23-.13.47,0-.52-.1-.59-1-.48-1.33.34-1.19,1.85-.5,2.27.31S155.36,73,154.62,73c-1,0-2.7-1.46-1.64-2.43.34-.31-.29-.36-.46-.35a2.15,2.15,0,0,0-1.29.47Z"/><path class="cls-2" d="M157.55,67c-.64.31-1.41.83-1.32,1.63.07.57.67.9,1.13,1.11,1.15.53,3.23.45,3.64-1a1.78,1.78,0,0,0-1.05-2,2.72,2.72,0,0,0-2.89.89,1.38,1.38,0,0,0,.51,2.24,2.09,2.09,0,0,0,2.55-1.59,1.08,1.08,0,0,0-.18-.74c-.41-.74-2.25,0-1.77.84,0,0,0,.18,0,.19s-.14.12,0,.06a.76.76,0,0,1,.64,0s0,0,0,0c-.22-.48,0,0-.1-.2,0,0,0-.12,0-.08a.31.31,0,0,1,.11-.18s.14-.11.05-.06.29-.11.09,0-.12,0,0,0a.25.25,0,0,1-.12,0c.1,0,.21.21.27.38s.08.21,0,.39.07-.11,0,.06c0,0,.14-.17.09-.13.21-.15.13-.07,0,0,.4-.17-.2,0,.2-.06a.86.86,0,0,1-.23,0c.29,0,0,0-.05,0l-.25,0c.24,0,0,0-.08,0l-.23-.08c-.13,0,.12.07-.08,0a1.1,1.1,0,0,1-.14-.09c-.17-.11,0,.05,0,0a.58.58,0,0,1-.11-.15c.1.16,0,0,0,0,0,.19,0-.07,0,.12.06-.2-.08.07,0,0s-.12.09.08,0,.08-.06,0,0l.17-.08c.33-.16.75-.59.46-1a1.13,1.13,0,0,0-1.31-.13Z"/><path class="cls-2" d="M160.21,64.67a1.81,1.81,0,0,0-.7,1.52c.06.53.67.83,1.13.9a2.12,2.12,0,0,0,1.8-.61,2,2,0,0,0,.41-1.8c-.06-.38-.59-.43-.87-.42a2.12,2.12,0,0,0-1.67.68,1.11,1.11,0,0,0,.25,1.5c.58.62,2.42-.15,1.77-.83a1.36,1.36,0,0,1-.27-.36c.1.25-.71.38-.27.37l-.87-.42a2.23,2.23,0,0,1,0,.45s-.05.25,0,.14-.12.22,0,.07c-.06.07,0,.06.05,0-.14.11.2-.08.22-.09-.17.06.23,0,.25,0-.19,0,.19.06,0,0s-.06,0,.05,0c-.05,0-.13-.13,0,0,0,0-.08-.16,0,0,0,0,0-.19,0,0,0-.16,0,0,.05-.19a1.91,1.91,0,0,1,.32-.34.53.53,0,0,0-.24-.9,1.39,1.39,0,0,0-1.37.36Z"/></svg>