<svg id="layer1" xmlns="http://www.w3.org/2000/svg" viewBox="0 0 303.55 505.91"><defs><style>.cls-1{fill:#fcb435;}.cls-2{fill:#f9d7af;}.cls-3{fill:#4ec65c;}.cls-4{fill:#d13333;}.cls-5{fill:#fff0d7;}.cls-6{fill:#492d0c;}</style></defs><path class="cls-1" d="M139.27,295c-5.52.58-5.88-4.23-9.58-7.23-4.65-3.76-11.18-3.18-16.77-3.27-2.47,0-5.64,0-5.69-3,0-2.65-.3-5.71-2.3-7.71-1.59-1.6-4.73-1.77-6.8-2.26-2.84-.66-5.25-2.8-8.07-3.72-4.3-1.39-6.13,5.37-1.86,6.75,2.86.93,5.14,2.92,8.06,3.72,1.17.32,2.37.54,3.55.82s.41,2.05.44,3.67c.09,5.53,5.17,8.11,10.09,8.54,1.23.11,2.55.11,3.88.1a3.38,3.38,0,0,0-.66,2c-.53,17.67,3.67,35.07,4.44,52.68.2,4.5,7.2,4.52,7,0-.77-17.61-5-35-4.44-52.68a3.31,3.31,0,0,0-.45-1.81c2.85.35,5.44,1.33,7.18,4,3,4.58,6.26,7,12,6.41C143.71,301.53,143.76,294.52,139.27,295Z"/><path class="cls-1" d="M218.41,269.63c-.91,6.17-10,9.54-14.91,11.79-2.51,1.14-5.08,2.15-7.6,3.26-2.68,1.17-5.4,2.27-8.09,3.39-2.24.94-4.9,2.84-7.28,3.11-4.44.5-4.49,7.5,0,7,5.21-.58,10.12-3.76,14.93-5.78,3.36-1.4,6.73-2.82,10.07-4.28-4.32,15.92-6.87,32.25-11.24,48.15-1.2,4.36,5.55,6.21,6.75,1.87,4.43-16.15,7-32.73,11.42-48.87a3.2,3.2,0,0,0-1.35-3.69c6.15-3,13.07-7.38,14-14.08C225.8,267.08,219.06,265.18,218.41,269.63Z"/><path class="cls-1" d="M130.71,374c-.23-4.49-7.23-4.52-7,0,.67,12.69,1.84,25.36,1.91,38.08,0,4.51,7,4.51,7,0C132.55,399.38,131.38,386.71,130.71,374Z"/><path class="cls-1" d="M196.72,375.29c.09-4.52-6.91-4.51-7,0-.23,11.55-4.19,22.66-3.81,34.27.15,4.5,7.15,4.52,7,0C192.53,398,196.49,386.84,196.72,375.29Z"/><path class="cls-1" d="M196.69,183.41a15.72,15.72,0,0,0-1.92-.24,3,3,0,0,0,.56-1.17,11.53,11.53,0,0,1,.32-1.15l.25,0c2.59.21,4.24-1.73,3.88-4.36,0,0,0-.08,0-.12a3.45,3.45,0,0,0-3.38-2.57h0c-1.17-.35-2.28-.91-3.47-1.15a3.51,3.51,0,0,0-.85-.06,1.94,1.94,0,0,1,.32-.58,16.84,16.84,0,0,0,2.71-1.76c2.7-2.15-.21-7.1-3.41-5.85a12.3,12.3,0,0,0-2.32,1.19,15.26,15.26,0,0,1,.19-1.9,16.63,16.63,0,0,1,2.28-6.21,3.53,3.53,0,0,0-3-5.26,8.91,8.91,0,0,0-6.49,3.08c.06-1.61.14-3.22.25-4.84.15-.17.3-.14.46-.32a3.39,3.39,0,0,0-2.47-5.77h-1.27a3.21,3.21,0,0,0-3.32,2.84,8.18,8.18,0,0,0-1.85-.61v-.4a3.36,3.36,0,0,0-1.7-2.82,23.89,23.89,0,0,0-2.71-7.37s0,0,0,0a12.64,12.64,0,0,0,1.59-1.6,3.18,3.18,0,0,0,1.11-.22,3.47,3.47,0,0,0,4.54-4,4.05,4.05,0,0,0,0-1.43,17.21,17.21,0,0,0-2.89-7.18,3.84,3.84,0,0,0-1.87-1.38,10.54,10.54,0,0,0-3-2.62c1.42-1.72,2.87-3.43,4.36-5.09a3.48,3.48,0,0,0-1.12-5.6,35.93,35.93,0,0,0,.24-8.93,3.9,3.9,0,0,0-4.53-3.38,3,3,0,0,0-1.1-1.76c0-2.72-.06-5.44-.08-8.19a3.53,3.53,0,0,0-1.08-2.5c-.1-3.82-.18-7.64-.19-11.46s-6-4.86-6.87-.93c-.68,3.11-1.58,6.16-2.54,9.18a3.71,3.71,0,0,0-2,3.17A36,36,0,0,1,153,88.75a3.37,3.37,0,0,0,.51,2.87,2.7,2.7,0,0,0,1,2.59l-.09.71c-.1.56-.18,1.14-.23,1.74a2.75,2.75,0,0,0,0,.5,3.18,3.18,0,0,0-3.43.84l-1.27,1.26a3.52,3.52,0,0,0,0,4.95,15.52,15.52,0,0,0,1.51,1.23,4,4,0,0,0,1,.93,19.16,19.16,0,0,1,.27,2.35,4,4,0,0,0,.08.52h0a4.9,4.9,0,0,0-2.87-.86c-2.5,0-3.69,2.23-3.38,4.44a41.45,41.45,0,0,0,1.7,7.94,8.66,8.66,0,0,0-6.38,5.79c-.15.45-.29,1-.41,1.48a8.85,8.85,0,0,0-.35,4.33,7.85,7.85,0,0,0,2,5.24,9.78,9.78,0,0,0,1.07,1.35,14.37,14.37,0,0,0,1.07,1,11.59,11.59,0,0,0-2.06,2.21,3.55,3.55,0,0,0-3.11,3.39c-.17,1.33-.28,2.66-.37,4a4.22,4.22,0,0,0-1.16-.76c-.68-2.55-1.47-4.95-1.75-6.7-.71-4.46-7.41-2.54-6.75,1.86.58,3.91,1.7,7.68,2.18,11.58a3.79,3.79,0,0,1-1.25-.41c-1.54-.7-1.93-4.61-2.43-6-1.27-3.6-7-3.2-6.88.92s.7,8,1,12c-2-1.19-4-3.78-6.13-4.61-3.07-1.19-5.25,2.68-4,5.14,2.42,4.58,6,8.37,6.46,13.16-1.29-.74-2.54-1.42-3.57-2.08-3.54-2.27-6.7,2.61-4.25,5.5a14.92,14.92,0,0,0,7.74,4.95,2.37,2.37,0,0,1,.39,2.64c-1,.14-2.07.3-3.11.39v0c-.31,0-.62.06-.93.11-3.89.64-3,7.21.93,6.87.7-.06,1.64-.07,2.63-.13l.71.1c-.55,4.32-2.23,7.58,1.8,11.7,2,2,4.95.83,5.85-1.54.66-1.73,1.23-3.47,1.74-5.23a3.64,3.64,0,0,0,.92-2.05c.08-.63.15-1.28.21-1.92,0-.22.06-.44.09-.66.54-2.29,1-4.6,1.46-6.91a78.93,78.93,0,0,1,3.51-9.84,22.28,22.28,0,0,0,1.82-1.42c5.82-2.31,11.62-4.82,17.62-5.79,1,.27,2,.59,3.09,1,7.42,2.69,14.12,7,21.72,9.26a2.05,2.05,0,0,0,.34.07l.38.61c.07.12.15.24.21.37q1.11,3.34,2.34,6.66a3.84,3.84,0,0,0,1.58,2c.57,1.63,1.1,3.3,1.59,5a3.28,3.28,0,0,0,1.62,2c0,.5.1,1,.16,1.47.53,4.4,6.73,4.6,7,0a57,57,0,0,0-.05-7.38,2.4,2.4,0,0,0,.86-.39,3,3,0,0,1,1.7-.92C200,189.39,200.13,184.05,196.69,183.41Zm-70.23-14.07c-.35.56-.69,1.13-1,1.72a3.57,3.57,0,0,0-.41,1.35,21.19,21.19,0,0,0-.91-2.57A14.47,14.47,0,0,0,126.46,169.34Zm42.07-8.26c.21.32.41.64.6,1a18.77,18.77,0,0,1-1.55-1.41A5.89,5.89,0,0,0,168.53,161.08Zm14.26,7.77c-.17-.1-.32-.22-.5-.32a3.19,3.19,0,0,0-.66-.28h0c.23-.3.5-.71.8-1.19A12.18,12.18,0,0,0,182.79,168.85Zm-57.11,7.81a4.08,4.08,0,0,0,1,2.41c-.12.31-.23.62-.34.94a3.28,3.28,0,0,0-.86,1.2s0,0,0,0l-.27-.4A17.44,17.44,0,0,0,125.68,176.66Zm6.26-14.24a37.07,37.07,0,0,0-2.53,2.78c0-1.06-.1-2.12-.19-3.17A9.62,9.62,0,0,0,131.94,162.42Z"/><path class="cls-2" d="M274,368.55c-1.79-8.85-.83-19-5.55-26.74-.36-1.15-.74-2.27-1.13-3.34a3.51,3.51,0,0,0-1.88-2.06,125.59,125.59,0,0,0-9.62-27.74A3,3,0,0,0,254,307c-.49-.94-1-1.86-1.52-2.76a3.57,3.57,0,0,0-5.82-.34c-2.09-1.3-5,.88-5.16,3.22a53.26,53.26,0,0,0,1.48,16c0,.17,0,.33.07.5l0,0a3.53,3.53,0,0,0-6,2.48,31.9,31.9,0,0,0,0,3.39,3,3,0,0,0,.11,2c0,.06,0,.12.08.19,1,7.91,4.79,14.77,9.19,21.42a56,56,0,0,0-12.92-1.54c-7.43-4.18-15.6-6.4-23.64-2.89a31.88,31.88,0,0,0-7.31-.54c-6.92-6.32-14.49-12.15-23-15.53,2.6-14.7,1.53-32.39-8.92-42.4a3.57,3.57,0,0,0-1.34-.8,42.44,42.44,0,0,0-1.11-4.34,3.53,3.53,0,0,0-6.39-.83,25.56,25.56,0,0,0-3.28,11.32c-.11-.53-.22-1.06-.35-1.58a3.22,3.22,0,0,0-.84-1.48q-.06-1-.15-2a3.53,3.53,0,0,0-6.52-1.77c-2.82,4.17-5.57,8.24-7,13.09a3.25,3.25,0,0,0,1.43,3.76,42.74,42.74,0,0,0-1.65,13.64c-.24,1.63-.44,3.28-.58,4.93a42.36,42.36,0,0,0-1.84,5.82,56.22,56.22,0,0,0-1.27,16.74c-2.55,2-5.19,4.19-7.95,6.23l-.79.09c-6.43.51-12.57,1.87-18.16,5.41l-2.62.3a2.92,2.92,0,0,0-3.3-2.67c-.79.1-1.6.18-2.4.26a3.77,3.77,0,0,0-3.17-2.49c-9.61-.7-18.89,1.08-28.09,3.43a15.13,15.13,0,0,0-2-.22c3.16-6,7.29-11.43,10.18-17.57.31-.62.59-1.24.83-1.87.07-.17.15-.33.22-.5a2.68,2.68,0,0,0,.07-.27,21.1,21.1,0,0,0,1.24-7.63c.55-1.18,1.11-2.36,1.68-3.52,1.2-2.45-.62-5.79-3.48-5.26-.34-.92-.71-1.82-1.11-2.72.24-1.26.45-2.53.61-3.82a3.43,3.43,0,0,0-2.57-3.37c-.58-.09-1.13-.15-1.67-.19-2.13-4.19-4.08-8.44-4.67-13.15-.55-4.36-7.37-4.57-7,0a32.67,32.67,0,0,1-.36,7.81A182.2,182.2,0,0,0,57.81,324a4.12,4.12,0,0,0-.19,1.15,74.73,74.73,0,0,0-9.07,12.93,97.85,97.85,0,0,0-6.13,12.65c-1.13,1.34-2.21,2.69-3.26,4-4.09,5.19-8.19,11.08-4.18,17.5a10,10,0,0,0,1.68,2.07c6.53,13.71,22.85,16,37,14.48,12.33-1.35,26-5,37.12-11.61,1.72-.65,3.41-1.34,5.06-2a153.28,153.28,0,0,0,27.34-14.88,3.78,3.78,0,0,0,1.65-3.28c7.63-4.14,13.23-10.36,12.34-19.8a3.75,3.75,0,0,0-1.16-2.39c.5-1.23,1-2.46,1.46-3.66l1-2.55a62,62,0,0,0,2.79,8.11c1.51,5.61,6.39,10.64,12.05,14.39,2.92,8.42,12.2,12.22,20.49,14.35,3.46,3.33,9.28,5.07,13.87,5.89,6.72,7.75,27.25,8.1,41,5.76,5.83,1.37,12.82.08,17.35-3.59a11.08,11.08,0,0,0,1.77-1.8C269.66,374.35,274.8,372.44,274,368.55ZM64,367.18c-.84,0-1.68,0-2.52-.06h0a17.27,17.27,0,0,1,2.54-1.3,3.67,3.67,0,0,0,.73.32A5.34,5.34,0,0,0,64,367.18Zm183.53,2-.8-.55a4.63,4.63,0,0,1,4.15.09c-1,.23-2,.43-3,.61Zm-60.22-23.06a37.78,37.78,0,0,0-3-3.51,70.35,70.35,0,0,1,8.29,5.91A53.77,53.77,0,0,0,187.35,346.16Z"/><path class="cls-2" d="M171.78,242.43a3.58,3.58,0,0,0,3.29-.82c7.42-6.32,9.76-17,10.59-26.23.93-10.29-.8-21.65-7.24-30a2.66,2.66,0,0,0-2.93-1.09,22.93,22.93,0,0,0-5.39-4.78,10.15,10.15,0,0,0-8-4.36,11.86,11.86,0,0,0-2.73.13,46.65,46.65,0,0,0-8.57-.94c-.45-.41-.9-.83-1.37-1.22-1.63-1.35-4.4-1.45-5.5.71-.4.8-.78,1.6-1.13,2.42a10.13,10.13,0,0,0-4.28,2.12c-3.49,2.92-4.55,8.2-4.81,13.18-1.87,4.53-1.83,10.13-1.68,14.74a80.19,80.19,0,0,0,4.67,24.39c2.09,5.79,5.36,12.72,11.29,15.43a12.08,12.08,0,0,0,1.13.45c-4.09,4.8-4.35,9.32-3.31,15.75.48,3,5.07,3.37,6.39.84q.42-.81.87-1.59a2.67,2.67,0,0,0,1.5-.14,11.93,11.93,0,0,0,1.33-.69,3.44,3.44,0,0,0,2.11.8c.81,2,4.06,2.76,5.9,1.21a18.52,18.52,0,0,0,2.95-3.13c0,.16.07.32.11.48.85,3.4,5.76,3.26,6.73.05a3.6,3.6,0,0,0,1.38-.95,3.75,3.75,0,0,0,3.1-4.31c-.27-1.57-.82-3-1-4.64a3.49,3.49,0,0,0-4.46-3.23l-.08-.1c0-.37.07-.75.08-1.12a3.19,3.19,0,0,0-1.14-2.56,2.89,2.89,0,0,0-.1-.6Z"/><path class="cls-3" d="M213.53,267.06c-1.19,0-2.36-.1-3.52-.22-4.45-2.17-8.48-4.51-13.62-4.85a2.93,2.93,0,0,0-1.89.54c1.67-2.84-2.2-6.26-4.95-4.51-4.27,2.73-9,4.75-12.82,8.13a23.14,23.14,0,0,1-5.62.67c-2.27-.43-4.52-1-6.79-1.53a3.27,3.27,0,0,0-2.75.54c-6.21-2.58-12.28-5.45-19.13-5.75a3.39,3.39,0,0,0-3,1.77c-.66-.14-1.34-.26-2-.34-6.64-.79-12.48,2.14-18.52,4.25l-1.2,0a3.19,3.19,0,0,0-1.32.29,28.89,28.89,0,0,0-7.22,1.73,3.21,3.21,0,0,0-.49.25,37.73,37.73,0,0,0-5.57-1c-4.25-.42-4.28,5.54-.93,6.88l7.12,2.85a14.67,14.67,0,0,1-1,1.41c-1.6,2.21.57,5.14,3,5.14H112a3.34,3.34,0,0,0,1.85-.43c.12.09.24.23.32.3v0a5.26,5.26,0,0,0,1.54.93,3,3,0,0,0,3.43-1c2.3.76,4.6,1.51,6.91,2.22a27.71,27.71,0,0,0,4.54,1.59,13.52,13.52,0,0,1,1.28.93c-.24.39-.47.79-.69,1.19-1.39,2.52.92,6.21,4,5.14.59-.21,1.16-.66,1.73-.92a3.42,3.42,0,0,0,1.15,0h.64A3.33,3.33,0,0,0,142,291c.06-.29.12-.48.17-.77l3.52-2.49c2.68-1.91,9.32-7.48,12.68-4.54a3.58,3.58,0,0,0,5.49-.7,10,10,0,0,1,2.91-2.58,24.56,24.56,0,0,1,2.05,1.56,3.86,3.86,0,0,0,.42,1c1.67,2.78,3.95,4.84,6.26,7.06a3.52,3.52,0,0,0,5,0l.06-.06a3,3,0,0,0,2.84.33c3.67-1.29,7.19-2.85,11.13-3.05a3.42,3.42,0,0,0,3.23-2.64c1.27-.55,2.54-1.1,3.8-1.68,5.38-2.46,11.41-5.25,15-10.11C218.21,270.1,215.94,267.11,213.53,267.06Zm-70,6.92.78-.6c.77.23,1.55.43,2.34.61a7.94,7.94,0,0,0-2.2,1.33A12.68,12.68,0,0,0,143.55,274Zm41.08-3.34a13.67,13.67,0,0,0,1.14,1.85,3.92,3.92,0,0,0-.51-.22q-1.23-.42-2.49-.81C183.4,271.2,184,270.93,184.63,270.64Z"/><path class="cls-3" d="M116.3,327a115.18,115.18,0,0,1-.82-12,3.24,3.24,0,0,0-1.27-2.65c0-.17-.11-.35-.11-.52a3.26,3.26,0,0,0-2-3.08V295.32a3.34,3.34,0,0,0-4.78-3.11,3.67,3.67,0,0,0-2.84-.09,4,4,0,0,0-2.25-.78c-.07-.25-.13-.51-.21-.76a3.91,3.91,0,0,0-.68-1.32c-1.41-4.88-3.82-9.78-8.73-11.28a3.29,3.29,0,0,0-2.2,0,19,19,0,0,0-5.81-4.1l0,0h0c-.28-.12-.55-.26-.83-.36-4-1.5-5.66,4.23-2.7,6.39,2.28,1.67,4.22,3.73,6.41,5.26.28.41.54.84.79,1.28A3.64,3.64,0,0,0,88,290.1c1,2.1,2,4.23,2.93,6.34,1.75,5.69,3.72,11.3,5.61,16.94a3.87,3.87,0,0,0,.7,1.27c1.32,4.07,2.8,8.09,4.37,12.06a3.76,3.76,0,0,0,1.19,1.56,3.67,3.67,0,0,0,.08,1A142.18,142.18,0,0,0,108,346.39a3.81,3.81,0,0,0,1.67,2c0,.3.08.61.11.91.45,4.4,7,4.61,7,0,0-2.51,0-5-.08-7.54a4,4,0,0,0,.71-2A42.15,42.15,0,0,0,116.3,327Z"/><path class="cls-3" d="M125.37,390.86a79.87,79.87,0,0,1-1.07-11.13,3.43,3.43,0,0,0-4.14-3.34,3.34,3.34,0,0,0-4.08,3.34c.09,8.9,1,17.75,1.14,26.66,0,4.51,6.87,4.51,6.87,0V394.17A3.31,3.31,0,0,0,125.37,390.86Z"/><path class="cls-3" d="M167.53,356.67a2.71,2.71,0,0,0-2.15-3c-.17-.72-.33-1.45-.52-2.16a3.52,3.52,0,0,0-3.37-2.57c-8.13,0-7.74,17.8-7.65,23a143.4,143.4,0,0,0,3,25.4c.11,4.91.51,9.84.51,14.72,0,4.49,6.89,4.51,7,.06a3.18,3.18,0,0,0,1.16-3.53,23.2,23.2,0,0,1-.5-5,3.44,3.44,0,0,0,1.09-2.29V398.9c0-.53.4-1.2.4-2,0-3.39,0-6.78.2-10.19a2.58,2.58,0,0,0,.77-1.58c.06-.39.08-.79.13-1.18a3.55,3.55,0,0,0,1.85-2.92c.64-7,1.21-13.94,1.26-20.95A3.29,3.29,0,0,0,167.53,356.67Z"/><path class="cls-3" d="M201,372.53a3.55,3.55,0,0,0-3.52,2.46,49.31,49.31,0,0,0-1.85,5.91,3.86,3.86,0,0,0-.69,1.07c-2.52,6-1.43,13.59-1.39,20a3.22,3.22,0,0,0,2.61,3.27c.68,3.25,6.16,3.89,6.8.2a64.41,64.41,0,0,0,.73-10.06,138.42,138.42,0,0,0,1-14.22,26.87,26.87,0,0,1,1.47-4.91C207.48,372.92,203.54,371.12,201,372.53Z"/><path class="cls-3" d="M238.92,275.22a3.65,3.65,0,0,0-2.54-1.17c-1.21-.09-2.37-.18-3.51-.34a3.63,3.63,0,0,0-2.84-1.37h-2.54a3.49,3.49,0,0,0-3.21,4.82,4.35,4.35,0,0,0-.45.57l-.32.57a3.39,3.39,0,0,0-5.39.66q-1.37,2.42-2.49,5c-4.22,4.46-6.22,11-7.49,16.88-1.35,6.25-1.74,12.64-2.42,19a71.09,71.09,0,0,0-4.45,17.12,3.62,3.62,0,0,0,3.5,4.35c-.11.46-.21.91-.33,1.36-1.06,4.38,5.64,6.24,6.75,1.86,1.36-5.58,2.92-11.1,4.51-16.62.26-.64.5-1.29.74-1.95,5.46-5.77,8.15-13.39,10.51-20.88.91-2.91,1.76-6.13,2.8-9.32.8-1.59,1.52-3.23,2.2-4.9a70.88,70.88,0,0,0,6.24-9.14c.2-.16.38-.32.59-.47A3.79,3.79,0,0,0,238.92,275.22Z"/><path class="cls-4" d="M139.48,337.45c.07-.29.39-.6.45-.91.54-2.84.16-5.69.16-8.54v-7.93c0-.24-.27-.47-.32-.69a57.16,57.16,0,0,1,1.1-11.07,3.58,3.58,0,0,0-5.21-4,10.21,10.21,0,0,1-1.74.65c0-.27,0-.53,0-.8a3.3,3.3,0,0,0-3.39-3.37c-.93-1.78-1.89-3.55-2.81-5.38-1.71-3.42-6.2-1.36-6.52,1.77a15.5,15.5,0,0,0,1.71,9.41c-2.3,11.14-.57,23.35,2.85,34a3.19,3.19,0,0,0,.5.95l.06.42a2.62,2.62,0,0,0,1.38,2.62,3.27,3.27,0,0,0,1.78.43l.29,0v0h.1a18.32,18.32,0,0,0,9.92-1.74C142.68,342.08,141.73,338.67,139.48,337.45Z"/><path class="cls-4" d="M156.1,407.65a96.77,96.77,0,0,0-1.39-18.7,3.18,3.18,0,0,0-.73-1.48,32,32,0,0,0-.66-5.42c.12-4.79.23-9.59.24-14.38,0-3.91-6-4.82-6.87-.93,0,.15-.07.29-.1.44a4,4,0,0,0-1.93-.33c-1.32-2.29-4.71-1.54-5.91.48a3.51,3.51,0,0,0-6.12,2.08,3,3,0,0,0-1.3,2.7,14.59,14.59,0,0,0,2.22,6.54c.28,1,.61,1.91,1,2.86.17,9.78,1.16,19.53,1.23,29.32,0,3.38,3.55,4.18,5.66,2.55a5.26,5.26,0,0,0,4,.45,5.7,5.7,0,0,0,1.16-.41c1.57,2.11,5.41,2.12,6.19-1,.12-.46.21-.93.31-1.39A3.25,3.25,0,0,0,156.1,407.65Z"/><path class="cls-4" d="M187.71,373a3.62,3.62,0,0,0-1.61-4l-1.59-1c-.17-.87-.37-1.74-.61-2.61a3.25,3.25,0,0,0-2.51-2.42,3.55,3.55,0,0,0-5.45-.1c-2.29-.28-4.74,1.92-3.87,4.38q.26.72.48,1.44a51.11,51.11,0,0,0-4,27,30,30,0,0,0,.84,9.65c0,2.45,0,4.9,0,7.33,0,3.84,6.24,4.92,6.87.93l.06-.33a13.14,13.14,0,0,0,5.75.24c3.07-.48,3.12-3.84,1.4-5.65.08-.46.15-.92.21-1.37a3.62,3.62,0,0,0,1.59-2.7,95.32,95.32,0,0,0,.42-10.56q.43-6.33,1.36-12.63a4.09,4.09,0,0,0-.24-2.22c0-.47.08-.94.11-1.41C187.22,375.71,187.49,374.38,187.71,373Z"/><path class="cls-4" d="M204.21,295.61c.63-3.31-3.23-6-5.85-3.4l-.27.28a3.06,3.06,0,0,0-1.41,0,4,4,0,0,0-.58.13c-4.4,1.33-8.42,4.61-13,4.95a3.63,3.63,0,0,0-3,5.33,25.73,25.73,0,0,0,.1,4.47v.05h0c0,.31.06.62.11.94a3.33,3.33,0,0,0,.69,1.53c.09.46.2.91.29,1.37a41.57,41.57,0,0,0,.78,12.62c0,.65,0,1.3,0,1.95a3.29,3.29,0,0,0,1.12,2.49,60.07,60.07,0,0,0,2.53,6.89c1.19,2.7,4.77,2,6.06-.11a3.5,3.5,0,0,0,1.61-2c1.54-4.67,2-10.14,2.59-15.58l.12-.51C199.53,310.12,202.76,303.18,204.21,295.61Z"/><path class="cls-4" d="M257,277.34a66.42,66.42,0,0,0-9.52-3.17,3.59,3.59,0,0,0-4.3,2.45,29.93,29.93,0,0,1-3.76,6.69,21.66,21.66,0,0,0-5.41,7.07,3.9,3.9,0,0,0-.39,2.15c-6.69,7.39-10.19,17.48-12.48,27.7-1.29,4.94-2.2,10-3.37,14.46-1.05,2.2-2.2,4.35-3.43,6.46a3.54,3.54,0,0,0,2.09,5.14c9.77,3.45,14.25-7.31,16.62-15.51A81.58,81.58,0,0,0,238.26,318c1.07-3.22,2-6.49,2.84-9.78,4-6.79,9-12.95,12.58-20a20.22,20.22,0,0,0,5.39-5.69C260.31,280.37,259.05,278.17,257,277.34Z"/><path class="cls-4" d="M218,382.74c.11-.79.21-1.58.31-2.38.26-2.15-1.61-3.37-3.47-3.4l-.06-.08a4.59,4.59,0,0,0-3.47-3.1c-11.86-2.58-9.91,20.82-8.76,27.19.44,2.45,2.63,2.91,4.45,2.18a2.77,2.77,0,0,0,3.94-.64c.43-.55.83-1.12,1.2-1.7a3.44,3.44,0,0,0,4.26-3.31,82.24,82.24,0,0,1,.84-9.28c.3-1,.61-2.07.94-3.12A3.19,3.19,0,0,0,218,382.74Z"/><path class="cls-4" d="M115.31,398.86c-.08-1.89-.14-3.77-.21-5.66-.11-3.43-.24-6.86-.26-10.3,0-3.94-4.93-4.54-6.52-1.75a4.09,4.09,0,0,0-2-.81H105a3.68,3.68,0,0,0-3.5,3.67c-.08,7.08-1.12,14.66,3,20.89a3.79,3.79,0,0,0,1.66,1.41,3.52,3.52,0,0,0,6.64-.28c.08-.3.15-.6.22-.9a2.9,2.9,0,0,0,2.3-2.38,9.49,9.49,0,0,0,.14-1.39C115.53,401.23,115.32,399.26,115.31,398.86Z"/><path class="cls-4" d="M106.75,343.69a24,24,0,0,1-2.17-5.42c-.09-2.23-.25-4.45-.53-6.67a.41.41,0,0,1,0-.11h0c0-.32-.07-.63-.11-.94a3.12,3.12,0,0,0-.59-1.47,3.25,3.25,0,0,0,.08-.77C103,312.55,90.48,302,86.79,287.4a3.18,3.18,0,0,0-.5-1.07,3.52,3.52,0,0,0-.48-1,59.69,59.69,0,0,0-5.63-7.06,3,3,0,0,0-3.25-.95c-.83-.73-1.66-1.46-2.46-2.22a3.78,3.78,0,0,0-5.49.67l-1.56-1.22c-2-1.49-4.47.1-5.1,2.16-2.14.26-4.14,2.33-3.25,4.48a3.63,3.63,0,0,0,.93,2,35.69,35.69,0,0,0,3.74,3.74l.07.07h0c.23.19.45.38.7.56a2.88,2.88,0,0,0,2.38.54,46.1,46.1,0,0,0,4.79,3.45,30.31,30.31,0,0,0,3.76,4.95c2.81,6.86,6.72,13.27,10.32,19.77.72,8.89,3.93,17.32,7.92,25.26a53.37,53.37,0,0,1,.83,6.48,3.54,3.54,0,0,0,5.26,3,27.69,27.69,0,0,1,4.88-2.19A3.55,3.55,0,0,0,106.75,343.69Z"/><path class="cls-4" d="M166.46,231.91a2.36,2.36,0,0,0-2.91-1.45c-1,.21-1.94.51-2.92.74a2.74,2.74,0,0,0-.86-.17,7.21,7.21,0,0,1-.87-.7c-1.6-1.49-4.62.15-4.33,1.95a2.15,2.15,0,0,0,.65,2,6.81,6.81,0,0,0,4.17,1.56,1.79,1.79,0,0,0,.51,0,3.09,3.09,0,0,0,1.94-.61c.9-.21,1.79-.52,2.66-.71A2.34,2.34,0,0,0,166.46,231.91Z"/><path class="cls-5" d="M131.47,367.71a8.08,8.08,0,0,0,.11-.86,2.39,2.39,0,0,0-1.9-2.53c0-1-.94-1.66-1.87-1.91l.48-.2a1.93,1.93,0,0,0,1.29-1.72,2.7,2.7,0,0,0-1.52-2.41,3.23,3.23,0,0,0-1.42-1.33,2.17,2.17,0,0,0-2.78.72,1.53,1.53,0,0,0-.69.64l-.08,0a2.36,2.36,0,0,0-.78,3.72,2.77,2.77,0,0,0,2.41,3c-.07,1.5-.62,2.73-.15,4.28a5.69,5.69,0,0,0,1.7,2.73,3.76,3.76,0,0,0,2.49.56c.9,0,2.14-.75,2.18-1.75,0-.3.06-.59.11-.89A2,2,0,0,0,131.47,367.71Z"/><path class="cls-5" d="M123.92,354.14a5.42,5.42,0,0,0,1-2.33c.09-.4-1.17-1.09-1.4-1.23a15,15,0,0,0-1.68-.9,3,3,0,0,0-1.1-.34h-1.26s-.09,0-.13,0a2.25,2.25,0,0,0-.19,1.89c-.23-.08-.41-.12-.45,0a.81.81,0,0,0,.17,1,10.13,10.13,0,0,0,2.39,1.61l.26.14c.34.24.7.47,1.06.69a11.84,11.84,0,0,0,2.33,1,1.76,1.76,0,0,0-.65-1.18Z"/><path class="cls-5" d="M138.09,362.25h0c0-1.18-.62-1.71-1.37-2.5-.41-.42.33-2.67.35-3.21,0-.09,0-.17,0-.26a1.23,1.23,0,0,0-.08-.54,2.65,2.65,0,0,0-3.47-1.56,1.88,1.88,0,0,1-.23-.16,2.42,2.42,0,0,0,.77-1.66v-1.21a2.1,2.1,0,0,0-.23-.77,2.37,2.37,0,0,0-.43-.57,2,2,0,0,1-.08-.22,1.77,1.77,0,0,0-1.91-1.24h-1.27a3.51,3.51,0,0,0-2.37,1.45c-.91.62-1.47,1.63-.89,2.47.12.19.26.41.4.59a5.52,5.52,0,0,0,1.1,3.2,7.25,7.25,0,0,0,3.82,2.36,5.35,5.35,0,0,0,0,1,5.87,5.87,0,0,0,1.75,3.53c.5,2,1.7,3.73,3.9,3.92C140.88,367.09,141.09,362.94,138.09,362.25Z"/><path class="cls-5" d="M145.34,357.39c.11-1.05-1.86-3.17-2.78-3.67a13.76,13.76,0,0,0-2.47-2.57v-2c0-.82-2.68-3.8-3.54-3.8h-1.27c-.13,0-.19.05-.17.19a14.38,14.38,0,0,0,.28,2.65c-.52-.44-.92-.75-.89-.85-.3,1.08.53,2.33,1.66,3.33a7.36,7.36,0,0,0,3.28,3.81A9.28,9.28,0,0,0,142,356.9a2.6,2.6,0,0,0,.78.24,15.74,15.74,0,0,1,1.86,3.67,6.91,6.91,0,0,0,1.74,2.55c.07.08,1.63,1.47,1.51,1C147.19,361.81,145,360.16,145.34,357.39Z"/><path class="cls-5" d="M122.5,373.55a11.1,11.1,0,0,0-2.88-3,6.19,6.19,0,0,0-2.06-2.53.82.82,0,0,1-.24-.3,12,12,0,0,0,1.69-4.38c.06-.33-.22-.77-.65-1.22.12-1-2-2.6-3.21-3a.22.22,0,0,0,0-.19c0-.86-.11-1.76.6-2.36a.23.23,0,0,0,.08-.16c.37-.32.76-.7,1.19-1.11.59-.56-2.86-3.47-3.66-3.28-1,.25-2.4,0-3.29.27-.17.05-.25.3-.29.64-.39-.12-.52,0-.12.6a.71.71,0,0,1,.1.14c0,1,.22,2.14.22,2.41a1.57,1.57,0,0,0,.39.88,6.32,6.32,0,0,0,.41,4.33,11.87,11.87,0,0,0,.85,1.21,15.67,15.67,0,0,0,.25,4.37c.13.72,3.25,3.83,3.87,3l.52-.69c.25.8.5,1.6.79,2.37.21.58,3.17,3.52,3.77,2.76a1.84,1.84,0,0,1,.57-.74C122.42,374.2,123.2,374.49,122.5,373.55Z"/><path class="cls-5" d="M207.52,346.67a19.25,19.25,0,0,0-.91,2.08,4.49,4.49,0,0,0-1-.22c.31-.3.65-.68,1.11-1.17,1.5-1.57-3-2.43-3.92-2l.12-.05a1.86,1.86,0,0,0-1.2.53,2.22,2.22,0,0,0-2.12,1.39,8.91,8.91,0,0,1-2.07,4.14h-.35c-.61,0-2.12-.14-2.12.73v.64a1.55,1.55,0,0,0,.68,1.24,13.5,13.5,0,0,1-2.07,3.87,3.82,3.82,0,0,0-3.32-.36,4.51,4.51,0,0,0,.4-1,3.58,3.58,0,0,0,.89-.89h0l0-.08,0,0a12.9,12.9,0,0,0,1.94-4.82,7,7,0,0,0,3.05-3.45,3.64,3.64,0,0,0,1.29-1.12l.56-.84a2.33,2.33,0,0,0,.9-1c.69-.83.73-1.68-.92-1.64a2.91,2.91,0,0,0-1.79.17,4.52,4.52,0,0,0-.71.23c-.14,0-.34.31-.57.31h-.2c-1,0-3.21.58-3.21,1.89v.63a1.29,1.29,0,0,0,0,.29,1.81,1.81,0,0,0-1.18-.38,9.87,9.87,0,0,0,.86-3c.54-.18.86-.42.66-.69a4.27,4.27,0,0,0-.85-.89h0a4.63,4.63,0,0,0-4.9-.19,3.72,3.72,0,0,0-1.6,1c-.39.39.55.73,1.69.9a9,9,0,0,1-.89,2.82l0,0a7.47,7.47,0,0,0-3.21-.49c-1.12,0-2.14.34-2.1,1,.1,1.65.47,3.1.62,5.1h-.64c-.2,0-3.21,0-2.43.84.13.14.26.18.39.32a5.77,5.77,0,0,1-.29.86,6,6,0,0,0-1.18.15c-1.35.35-1.56,2-2.08,3.1-.42.88,1.22,1.12,2.67,1.08a7.07,7.07,0,0,0,3.52.7h.39a1.49,1.49,0,0,0-.44.81v3.17a1,1,0,0,0,.68.95c.64.22,1.32.43,2,.64a3.87,3.87,0,0,0,3.23-.45c0,.42,0,.84,0,1.27a1.58,1.58,0,0,0,1,1.44,13.73,13.73,0,0,0,3.12,1c.88.19,2.46,0,2.69-1.1l.12-.55c1.46,1,3.3,1.9,5,1.46a4,4,0,0,0,2.5-2.1c2.9-1,3.78-3.45,3.56-6.17a5,5,0,0,0,.91-.2c1.86-.61,2.67-2.73,3-4.82.54.06,1.13,0,1.34-.41.63-1.35,1.08-2.82,1.71-4.18a.55.55,0,0,0,.19-.26,2.25,2.25,0,0,0,.13-.42C212.51,347,208.22,345.34,207.52,346.67Zm-18.61,5.49c-1.44-.23-3.84.69-3.75,1.95a2.68,2.68,0,0,0,.38,1.53,7.53,7.53,0,0,0-1.49.36,14.38,14.38,0,0,0,.25-1.6.42.42,0,0,0-.16-.36l.06-.05a11.5,11.5,0,0,0,3.07-3.23c.2-.14-.18-.3.82-.46v.64a1,1,0,0,0,1,1.12S188.92,352.13,188.91,352.16ZM204,349.41h0c-.26.58-.65,1.51-.34,1.32-.56.33-.15.85.42,1.28-.06.35-.13.71-.21,1.07a9.44,9.44,0,0,1-.56,1.45l-.21.37a5.84,5.84,0,0,0-2.24-.59c.12-.31.24-.63.35-1A8.35,8.35,0,0,0,204,349.41Zm-3.74,9.37a9.22,9.22,0,0,0-1.43-.44h-.25c.47,0,.89-1.12,1.26-1.85l.37.34A8,8,0,0,1,200.25,358.78Zm-5.91,4.59q.12-.67.18-1.35a9.4,9.4,0,0,0,2.69-1.78,5.27,5.27,0,0,1-.61,2.72.73.73,0,0,0-.09.31c-.29.46-.47.87-.11,1.19A5.31,5.31,0,0,0,194.34,363.37Z"/><path class="cls-6" d="M137.8,176.86c-12.21,10.54-9.27,33.49-6.23,47.33,1.53,6.93,3.86,14.74,9.36,19.61a26,26,0,0,0,25.39,5.59c19.79-6,23.63-33.33,21.81-50.73-1.89-18-19.92-31.89-38-28.08A25.23,25.23,0,0,0,137.63,177c-.87.82,1,1.14,1.62.56,14.49-13.65,39.64-2.94,45.45,14.34,3,8.82,2.15,19,.55,28-1.75,9.86-5.61,20-14.22,25.72-9.44,6.34-21.7,3.79-29.46-3.83-4.74-4.64-6.6-11.92-8.06-18.17a87.25,87.25,0,0,1-2.09-25.37c.45-7.12,2-15.66,7.66-20.57,1-.85-.55-1.49-1.28-.87Z"/><path class="cls-6" d="M166.71,206.86c3-.45,4.92-2.44,7.09-4.41,2.42-2.19,4.29-1.35,6.86-.3a3.84,3.84,0,0,0,2.67.09c1.14-.33.92-1.15-.22-.82s-3.55-1.32-4.75-1.63a4.29,4.29,0,0,0-2.55.23c-3.21,1.27-5.38,5.4-8.79,5.92-.87.13-1.65,1.13-.31.92Z"/><path class="cls-6" d="M167.46,207.3A38.18,38.18,0,0,0,183,202.69c1.17-.63.1-1.41-.79-.93a35.46,35.46,0,0,1-14.47,4.34c-1,.08-1.56,1.3-.23,1.2Z"/><path class="cls-6" d="M173.47,201.92a2.22,2.22,0,0,0-1.44,2.94.68.68,0,0,0,.62.41,4.55,4.55,0,0,0,3.13-.56c.74-.45,1.49-2.16.43-2.65a3.15,3.15,0,0,0-3.48.6,2.75,2.75,0,0,0-.21,3.37c.13.23.57.29.79.26a2.82,2.82,0,0,0,2.26-3.79c-.1-.36-.55-.44-.87-.41l-1.38.09a1.14,1.14,0,0,0-1.07.75c-.23,1.22.31,2.61,1.78,2.39,1.79-.25,2.06-2,1.84-3.54-.05-.36-.59-.43-.87-.41-.62,0-1.34,0-1.71.63a5.29,5.29,0,0,0-.59,1.33,1.2,1.2,0,0,0,.8,1.47,3.06,3.06,0,0,0,3.57-1.65,1.37,1.37,0,0,0-.73-1.49,2.34,2.34,0,0,0-2.8.23c-1.37,1.12-2.19,4,0,4.65a1.37,1.37,0,0,0,1.36-.37.51.51,0,0,0-.23-.88c-1-.31-.46-1.7-.1-2.3a1.52,1.52,0,0,1,.31-.36c.15-.12.1,0-.14,0s-.25-.07,0,.05a1.13,1.13,0,0,1,.39.33.3.3,0,0,1,0,.18c0,.12-.05.13-.27.28.1-.07-.2.07-.13.05s-.3.06,0,0c-.05,0-.29,0,0,0-.12,0,.07.06,0,0s0,0,0-.13c-.07-.34.32-.93.51-1.24l-1,.58.69,0-.87-.41a4,4,0,0,1,0,1.38c-.08.5-.37.39.2.31.39-.06.23.15.09-.17a1.71,1.71,0,0,1,0-1l-1.07.75,1.38-.09-.87-.41a3,3,0,0,1,.09,1.22,1.33,1.33,0,0,1-.13.43c-.06.15-.33.31-.1.27l.79.26a2,2,0,0,1-.16-1.75c.22-.48.56-.31,1-.14l-.4-.36c.23,1.06-.49,1.11-1.34,1l.62.41c-.22-.59-.28-1.06.35-1.35.32-.15.76-.57.47-1s-.93-.29-1.31-.12Z"/><path class="cls-6" d="M166.74,206.7a7.59,7.59,0,0,0,4.35-2.63c1.74-1.86,3.49-2.94,6.33-2.64a28.15,28.15,0,0,0,5.65.36c1-.1,1.53-1.42.21-1.29-3.32.32-7.05-1.42-10.24.09-2.27,1.08-3.66,4.38-6.1,4.82-1,.18-1.52,1.52-.2,1.29Z"/><path class="cls-6" d="M168.39,205.78c2.4-.42,3.74-2.06,5.39-3.72,2.84-2.84,6.79.8,10.12-.55,1.25-.5.11-1.13-.76-.78-1.45.58-3.89-.73-5.34-1a6.06,6.06,0,0,0-2.74.23c-2.65.72-3.82,4.33-6.4,4.78-.91.15-1.6,1.29-.27,1.06Z"/><path class="cls-6" d="M153.22,206.19c-3.66-.08-6.13-3.79-9.59-4.7a4.46,4.46,0,0,0-2.35.08c-1.36.37-3.36,2.48-4.66,2.29-.53-.08-2.27.79-1.21.94,3.05.46,5-3.19,8.13-2s5.18,4.25,8.9,4.33c.64,0,2.08-.94.78-1Z"/><path class="cls-6" d="M152.28,206.47a35.72,35.72,0,0,1-15-2.41c-.69-.26-2.27.73-1.16,1.14a37.82,37.82,0,0,0,15.9,2.47c1-.06,1.56-1.27.23-1.2Z"/><path class="cls-6" d="M144.78,204.33c.77.23.93.7.76,1.46l.81-.7c-.9.26-1.84.15-1.74-1-.11.16-.23.32-.34.49.35-.23.65,0,.9.25a1.83,1.83,0,0,1,.15,1.85l1.27-.58c-.93,0-1-1.43-.94-2.08l-1.07.75,1.38-.09-.87-.42a2.27,2.27,0,0,1,.14.93s-.08.24,0,.19c-.12.12-.07.09.13-.07a.77.77,0,0,1,.39-.07c.14,0-.15-.25-.23-.42a3.51,3.51,0,0,1-.22-1.47l-1.07.75.69,0-.79-.26a3,3,0,0,1,.67,1.15.19.19,0,0,1,0,.16c.13-.23.22-.22.45-.26-.26.05.08,0-.19,0s-.06,0-.31-.08a.89.89,0,0,1-.5-.36.27.27,0,0,1,0-.27c.11-.13,0,0,.14-.14s-.16,0-.28,0c.1,0,.3.17.42.26a2.75,2.75,0,0,1,.82,1.33,1.75,1.75,0,0,1,.05.72c0,.25-.11.25-.21.3-.33.15-.77.57-.47,1s.93.29,1.3.12c2.12-1,1.4-3.53-.2-4.65a2.32,2.32,0,0,0-2.78.21c-.5.4-1,1.05-.74,1.72.52,1.28,2.4,1.41,3.49,1a1.39,1.39,0,0,0,.93-1.56,2.76,2.76,0,0,0-.53-1.07c-.48-.71-1-.65-1.78-.6-.37,0-1.07.29-1.07.75,0,1.34.34,3.16,2,3.08s2.11-1.53,1.67-2.84c-.12-.36-.54-.44-.87-.42l-1.38.1c-.41,0-1,.29-1.07.75-.21,1.47.49,3.25,2.2,3.26.42,0,1.08-.11,1.26-.58a2.76,2.76,0,0,0-.43-3.1,2.94,2.94,0,0,0-3.34-.24,1.24,1.24,0,0,0-.72,1.47,1.74,1.74,0,0,0,.74,1.14,3.91,3.91,0,0,0,3.28.21,1.05,1.05,0,0,0,.8-.71,2,2,0,0,0-1.58-2.55,1.4,1.4,0,0,0-1.37.37.51.51,0,0,0,.24.88Z"/><path class="cls-6" d="M153.16,205.69c-3-.17-4.33-3.6-7.21-4-3.49-.53-6.44,1.23-9.88,1.34-1,0-1.53,1.32-.21,1.28,3.64-.11,7.58-2.76,10.92-.46,1.91,1.32,3.21,3,5.68,3.16.86,0,2-1.22.7-1.29Z"/><path class="cls-6" d="M151.41,205.21c-2.91-.13-4.69-3.54-7.69-4-2.66-.37-5,2.53-7.51,1.89-.61-.15-2.28.77-1.18,1,3.05.78,5.3-2.19,8.21-1.79s4.29,3.77,7.42,3.91c.72,0,2.06-1,.75-1.09Z"/><path class="cls-6" d="M147.58,231c7.49,5.06,19,1.56,25.81-3.2,1.07-.75-.59-1-1.2-.59-6.2,4.34-16.28,7.43-23.08,2.85-.52-.36-2.31.41-1.53.94Z"/><path class="cls-6" d="M149.3,230.9a7.25,7.25,0,0,0,4.39.74c1.73-.32,2.58-1.67,4.46-.78,1.09.51,2.44-.06,3.46-.43,2.74-1,4.93.27,7.62-.45,1.16-.3.9-1.26-.25-.95-1.61.42-3.55-.64-5.24-.42s-3.34,1.85-4.79.78a3.06,3.06,0,0,0-2.46-.22c-2.25.6-3.11,1.84-5.65.8-.57-.24-2.34.6-1.54.93Z"/><path class="cls-6" d="M149.24,231.81c2.51,3.17,7,5.85,11.26,5,4.37-.85,5.59-4.38,9.05-6.55.85-.53-1.11-.37-1.49-.13-1.73,1.08-2.9,3-4.35,4.35-4,3.86-10-.08-12.66-3.38-.32-.41-2.16.24-1.81.68Z"/><path class="cls-6" d="M153,224a5.6,5.6,0,0,1,2.35.46c.78.32,2.25-.79,1.12-1.27a19.29,19.29,0,0,0-2.49-.87,1.35,1.35,0,0,0-1.36.37.52.52,0,0,0,.24.89l2.14.9c.78.33,2.25-.79,1.13-1.26l-2.15-.9-1.12,1.26a20.47,20.47,0,0,1,2.49.88c.37-.42.75-.84,1.12-1.27a7.82,7.82,0,0,0-3.28-.55c-.41,0-1,.3-1.07.76s.52.62.88.6Z"/><path class="cls-6" d="M162.79,222.69c.76-.44,1.58-.77,2.34-1.2.5-.28,0-.38-.3-.35a8.89,8.89,0,0,0-3.53,1.21c-.08,0-.24.13-.24.25l0,.35c0,.16.47.09.54.09l2.76-.18a2.54,2.54,0,0,0,1.3-.45c.34-.28-.31-.26-.44-.26l-2.77.19.54.09c0-.12,0-.23,0-.34l-.24.25a3.28,3.28,0,0,1,1.21-.5l-.3-.35c-.76.44-1.58.77-2.35,1.2-.31.18-.26.36.1.36a3,3,0,0,0,1.37-.36Z"/><path class="cls-6" d="M165.61,199.11c.64-2,3.15-3.2,4.82-4.28,2.57-1.65,6.68-2.6,9.66-1.79.51.14,2.24-.66,1.56-.84-3.37-.92-7.06,0-10.26,1.18-2.61,1-6.82,3.24-7.7,6-.17.54,1.74.28,1.92-.29Z"/><path class="cls-6" d="M166,199.3a19.5,19.5,0,0,0,3.78-3.18c.85-.9-.91-1-1.44-.7a20.34,20.34,0,0,0-4.13,3.19c-.76.79.69,1.09,1.23.84a9.34,9.34,0,0,0,2.22-1.31l-1.45-.7-1.29,1.47c-.74.85.7,1,1.23.84,1.6-.61,2.49-1.85,3.85-2.8a20.42,20.42,0,0,1,8.77-3.15c.51-.09,1.77-1.08.65-1.34-5-1.16-10.33,1.59-13.9,5-.87.84,1,1.14,1.61.56,2.78-2.68,7.19-5.21,11.17-4.29.22-.45.43-.9.65-1.34a33.05,33.05,0,0,0-7,1.78c-2.54,1-4.22,3.52-6.66,4.44l1.23.83,1.29-1.47c.77-.87-.88-1.17-1.44-.71a7.19,7.19,0,0,1-1.79,1.05l1.23.84a18.64,18.64,0,0,1,3.79-2.89l-1.44-.71a17.26,17.26,0,0,1-3.45,2.87c-1.1.7.5,1.35,1.28.86Z"/><path class="cls-6" d="M154.48,199.31c-2.4-1.1-4.45-2.21-7.1-2.63-3.08-.48-6.15-.11-9.22-.85l-.45.64c4.77-1.87,12-.64,14.59,4.16l1.76-.65a12.22,12.22,0,0,1-4.19-2.09l-1.7.72a9.65,9.65,0,0,1,4.28,3.48c.26.33,2-.17,1.88-.6-.74-2.17-2.35-3.38-4.18-4.66l-1.82.67c1.64.75,2.63,2.12,4,3.2.37.29,2.17-.24,1.82-.67-3.58-4.45-10.09-3.58-15.15-4.29l-1,.83c5.09-.29,9.58.36,13.95,3.12.48.3,2.12-.48,1.81-.67-4.64-2.94-9.54-3.59-14.94-3.28-.32,0-2,.68-1,.83,4.92.69,11.11-.17,14.57,4.13l1.82-.67c-1.4-1.08-2.4-2.46-4-3.2-.42-.19-2.21.4-1.82.67,1.76,1.24,3.34,2.38,4.07,4.51l1.87-.6a10.14,10.14,0,0,0-4.52-3.57c-.36-.15-2.08.46-1.7.72a12.61,12.61,0,0,0,4.43,2.2c.23.05,2-.2,1.76-.65-3.15-5.74-11.7-6.3-17.21-4.14-.14.06-1,.51-.45.64a33.06,33.06,0,0,0,7.09.71c3.43.1,6,1.28,9,2.67.53.24,2.08-.56,1.82-.68Z"/><path class="cls-6" d="M143.93,246.66c.83,1.68.57,3.79.33,5.58a21.35,21.35,0,0,1-.91,3.77c-.12.35-.95,2.68-1.24,2.74-.75.15-1.72,1-.37.69,2.22-.44,3-2.28,3.68-4.29.85-2.57,1.71-6.46.44-9-.23-.46-2.08.23-1.93.52Z"/><path class="cls-6" d="M174.63,243.75c-1.53,4.57.88,10.25,5.66,11.6.74.21,2.28-.87,1.14-1.19-4.34-1.23-6.2-6.57-4.85-10.6.26-.8-1.7-.56-2,.19Z"/><path class="cls-6" d="M145.93,140.75c-.13-1.82-1.17-4.5.78-5.12a37.44,37.44,0,0,1,3.93-.94,47.06,47.06,0,0,1,8.54-.82c5.25-.06,12.34,1.5,9.63,8.18-.21.52,1.69.29,1.92-.28,5.27-13-20.84-8.36-26.47-6.18-.24.09-.63.27-.61.58.12,1.7.23,3.4.34,5.1,0,.52,2,.14,1.94-.52Z"/><path class="cls-6" d="M144.41,121.06c-7.36,1.72-9.65,14.86-.07,13.56.83-.11,1.69-1,.33-.82-7.29,1-5.59-10.74-.07-12,1.15-.26.94-1-.19-.7Z"/><path class="cls-6" d="M171,120.16c3.06,1.64,6,3.89,7.24,7.26,1.71,4.76-3.67,6.93-7.3,7.74l1,1,1.58-1.81c.81-.93-1-1.29-1.63-.61s-1.05,1.21-1.58,1.82.42,1.12,1,1c4-.88,8.77-2.73,9.18-7.38s-4.52-8.27-8-10.14c-.77-.41-2.45.62-1.48,1.14Z"/><path class="cls-6" d="M145.94,119.42c7.62-.56,16-2.22,23.43.06.79.24,2.29-.9,1.13-1.25-7.79-2.38-16.42-.74-24.37-.15-1.07.07-1.52,1.44-.19,1.34Z"/><path class="cls-6" d="M147.05,119.34c-.71-1.76.79-4.3,1.3-5.94.1-.3-.38-.38-.57-.37-1.4.09-2.2-4.4-2.37-5.53l-1.35.76c6.28-.18,12.4.38,18.68-.29,1.6-.17,13.95-.62,11.35,3.4-1.18,1.83-3.2,2.95-4.37,4.88-.44.73,1.49.49,1.79,0,2-3.26,8.84-7.5.84-9.1a35.56,35.56,0,0,0-10.85,0c-5.58.59-11.09-.07-16.67.09-.36,0-1.44.21-1.35.77a17.87,17.87,0,0,0,2.09,5.83.59.59,0,0,0,.58.25c.15,0-1.61,4.33-1,5.76.26.62,2.16,0,1.93-.52Z"/><path class="cls-6" d="M149.66,107.21c-.18-3.83-.07-7-2.45-10.17l-1.3.8c3,0,5.71,1.14,8.71,1.2a19.7,19.7,0,0,0,4.52-.56c3.09-.67,6.14-1.54,9.26-2.07,7.66-1.29,3.13,5.34,2.22,8.83-.14.53,1.77.24,1.91-.3.81-3.09,2.72-5.58,2.84-8.83a.23.23,0,0,0-.18-.15c-3.58-1.16-7.2-.34-10.77.49-3.31.77-6.5,1.74-9.95,1.68-2.67,0-5.08-1.14-7.76-1.18-.26,0-1.66.31-1.31.79,2.38,3.17,2.15,6.24,2.32,10,0,.44,2,.1,1.94-.52Z"/><path class="cls-6" d="M153.9,94.89c-1.35-1.65-1.11-4.67-1.25-6.65l-1.37.69c6-.34,12,0,17.69-2.15h-1.31a22.85,22.85,0,0,1-.39,6.75c-.11.53,1.8.22,1.92-.31a23.55,23.55,0,0,0,.4-7c0-.4-1.16-.07-1.31,0-5.15,1.91-10.79,1.51-16.19,1.82-.32,0-1.4.2-1.37.69.15,2.14-.07,5.06,1.37,6.83.33.41,2.17-.25,1.81-.69Z"/><path class="cls-6" d="M155.42,84.24c-3.75-1,1.34-7.57,2.19-9.38a62.5,62.5,0,0,0,4.15-13,81.28,81.28,0,0,0,1-27.21c-.11-.86-2-.36-1.94.51.62,9.25.84,18.41.92,27.67.07,7.51,5.59,13.56,4.07,21.33-.18.92,1.79.65,1.95-.17,1.59-8.07-4-14.83-4.08-22.77-.08-8.89-.33-17.7-.92-26.57l-1.94.51A79.77,79.77,0,0,1,157.61,70c-1.38,4.16-4,7.64-5.44,11.71-.75,2.07.22,3.24,2.13,3.76.78.22,2.28-.93,1.12-1.25Z"/><path class="cls-6" d="M138.46,258c-4.13,3.57-10.68,4.78-15.8,6.08-8,2-16.09,3.51-24.19,4.94-12.76,2.26-26.38,3.33-38.75,7.36-.89.29-4.77,1.66-3,3.15s3.91,1.71,5.64,3.23c3.52,3.1,6,7.52,8.27,11.54s4.18,7.91,6.3,11.85c1.44,2.69,3.43,5,4.64,7.82,3.53,8.09,5.93,16.77,8.39,25.23a122.2,122.2,0,0,1,3.32,12.91c.15.8,2.09.32,1.94-.52-1.39-7.79-4-15.46-6.38-23-2-6.36-3.71-13.63-7.66-19.09-5.15-7.09-8-15.7-13.09-22.93-2-2.81-4.34-5.58-7.5-7.06-.48-.23-3.22-.72-1.87-1.42,4.05-2.13,9.51-2.56,13.94-3.38,7.85-1.45,15.74-2.7,23.61-4.07,13.28-2.31,28.11-3.95,40.35-9.94a16.09,16.09,0,0,0,3.42-2.23c.88-.77-1-1-1.59-.48Z"/><path class="cls-6" d="M65.6,290.15c-5.92,12.39-7.07,26.35-13.08,38.73-6.39,13.17-15.12,25.05-20.18,38.87-.15.41,1.67-.06,1.9-.36a3.19,3.19,0,0,0,.93-1.84c.11-.32-1.73-.13-1.91.35a3.27,3.27,0,0,1-.92,1.85l1.9-.36c5-13.78,13.62-25.81,20.18-38.86,6.19-12.3,7.17-26.34,13.08-38.73.12-.26-1.67-.13-1.9.35Z"/><path class="cls-6" d="M32.39,373.47C44.49,389.61,68,389.34,86,386.38a115,115,0,0,0,28.3-8.48c11.34-5.11,21.28-12.76,32.32-18.42,1.15-.59-.61-.73-1.17-.44-10.1,5.18-19.35,11.86-29.46,17-8.49,4.35-17.89,7.07-27.21,8.92-18.06,3.57-42.3,4.08-54.55-12.25-.34-.46-2.2.18-1.8.71Z"/><path class="cls-6" d="M148.84,357.69c8.62-2.4,10.06-10.13,11-18.09,1-7.69.67-15.77.8-23.51.14-8.48.13-17,.13-25.45,0-.28-1.94,0-1.94.52,0,12.37,0,24.75-.4,37.12-.27,8.68,1.21,25.79-9.79,28.85-1.12.31-1,.87.15.56Z"/><path class="cls-6" d="M158,286a12.33,12.33,0,0,0-1.92-5.69.88.88,0,0,0-.79-.24c-6.37.71-9.28,10.7-11.14,15.58-3.93,10.29-6.79,21.42-4.71,32.44.8,4.19,2.75,8.79,2,13.08-.51,2.86-5.44,4.75-8.18,6-5,2.25-11,2.81-16.27,3.63-15.34,2.38-30.83,3.79-46.12,6.53-3.7.67-22.32,2.73-21,9.57.15.81,2.09.32,1.93-.52-1.22-6.39,25.53-8.89,29-9.4,14.21-2.11,28.54-3.44,42.67-6,3.86-.7,8.37-1.34,11.8-3.39,4.8-2.88,8.89-3.75,8.16-10.49-.49-4.48-2.1-8.83-2.67-13.34-.87-6.9.74-14.82,2.91-21.37a119.48,119.48,0,0,1,5.08-13.18,28.54,28.54,0,0,1,3.7-6.1c2.47-3,3.43,1.79,3.61,3.44.09.8,2,.34,1.93-.52Z"/><path class="cls-6" d="M163.24,289.34H161.4c-.37,0-1.59.24-1.59.78.05,9.23.77,18.49.91,27.71.08,5.05-.42,10.12-.51,15.16-.13,6.81-.36,20.46,9.39,20.2.54,0,2.11-.85.82-.82-9.73.26-8.41-16.89-8.2-23,.46-13.26-.4-26.42-.48-39.68a4.86,4.86,0,0,1-1.59.65H162c.43,0,2.21-1,1.24-1Z"/><path class="cls-6" d="M163,281.37c11.11,3.2,13.59,17.19,15,27.05,1.41,10.31.51,21,7.66,29.48,6.56,7.77,17.82,9.62,27.34,10.52,7.43.7,14.7.89,22.07,2.25,7.82,1.46,15.59,3.23,23.6,2.8,1.07-.06,1.51-1.43.19-1.36-7.83.42-15.48-1.33-23.11-2.79-7.36-1.41-14.64-1.64-22.07-2.26-11.33-.94-23.33-3.8-29.31-14.41-5.14-9.14-3.55-21.6-5.61-31.66-1.74-8.51-5.45-18.25-14.58-20.89-.8-.23-2.29.93-1.13,1.27Z"/><path class="cls-6" d="M172.8,355.9c19.08,11.53,39.33,20.05,61.47,23.41a101.56,101.56,0,0,0,21.82,1.14c5.2-.34,12-1.23,15.49-5.55.42-.51-1.45-.25-1.75.12-4.71,5.78-15.61,5-22.32,4.7a131.83,131.83,0,0,1-23.22-3.35c-17.72-4-34.21-11.8-49.67-21.14-.49-.3-2.12.49-1.82.67Z"/><path class="cls-6" d="M254.12,295.58c-3.12,3.11-.31,9.13,1,12.43a122,122,0,0,0,9.06,17.09c3.76,6.23,6.25,13.16,8.34,20.11,2.68,8.93,4.4,19.14.9,28.07-.15.37,1.71.17,1.9-.33,3-7.67,2.08-16,.31-23.82-1.72-7.6-4.37-16.11-8.45-22.8-3-4.87-5.85-9.78-8.36-14.91-1.73-3.52-6.61-12.34-3-16,.42-.42-1.42-.2-1.76.13Z"/><path class="cls-6" d="M55.42,279c-3.62,7.48,1.48,15.78,2.77,23.23.11.63,2.05.17,1.93-.52-1.27-7.35-6.34-15.59-2.77-23,.26-.55-1.64-.35-1.93.25Z"/><path class="cls-6" d="M184,255.38c5.46,4.3,12,6.73,18.43,9.13a215.37,215.37,0,0,0,24.25,7.29c6,1.45,12.08,2.3,18.13,3.51,5.63,1.12,12.24,2.71,15.73,7.67.44.63,2.3-.06,1.78-.8-6-8.52-19.79-8.41-29-10.35A245,245,0,0,1,208.29,265c-7.87-2.56-16.18-5.48-22.74-10.64-.58-.46-2.33.38-1.51,1Z"/><path class="cls-6" d="M259.67,283.59c-19.4,17-25.39,43.84-35.18,66.6-.13.3,1.69.14,1.9-.35,9.75-22.66,15.7-49.53,35-66.42.39-.34-1.41-.13-1.75.17Z"/><path class="cls-6" d="M260.5,283.63c-.27,8-4.35,15.11-4.62,23.09,0,.8,1.91.4,1.93-.24.27-8,4.35-15.12,4.62-23.1,0-.79-1.91-.39-1.93.25Z"/><path class="cls-6" d="M143.2,258.74c-.3.86-.77.79-.94,1.93l.05.06c10.66,5.1,33.38,9.33,41.58-2.35a2.53,2.53,0,0,0-1.9.36c-5.14,7.33-16.42,6.39-24.22,5.27a56.8,56.8,0,0,1-9.54-2.26c-2.28-.73-3.93-1.07-3.13-3.37.1-.3-1.74-.1-1.9.36Z"/><path class="cls-6" d="M97.91,385.38c4.47,8.87-1.39,26.6,13.77,25.22.95-.08,1.6-1.2.26-1.08-13.32,1.22-8.22-17-12.09-24.66-.34-.67-2.22-.05-1.94.52Z"/><path class="cls-6" d="M219.86,377.88c-1.57,9-1.84,24.79-12.32,28.21-1.31.42-.08.82.7.56,11.48-3.74,11.8-19.19,13.54-29.07.1-.57-1.82-.23-1.92.3Z"/><path class="cls-6" d="M121,410.32c4.36,7.15,17.24,5.5,24.29,6,15,1.1,30-.6,44.85-3.18.74-.13,1.73-.89.37-.65-13.32,2.32-26.74,3.88-40.28,3.33-4.53-.19-9.09-.51-13.62-.75-4.68-.25-11-.89-13.68-5.28-.27-.45-2.06.3-1.93.51Z"/><path class="cls-6" d="M137.56,258.12a389.26,389.26,0,0,1-55.17,11.95c-.15,0-1.56.51-1,.87,3.4,2.33,6.42,5.4,10,7.45a17.86,17.86,0,0,0,4.12,1.83c2.72.74,5,.2,4.62,3.46-.68,5.48,5.19,7.15,9.43,7.71,5.95.78,12.76-1.21,17.17,3.69,4.85,5.4,12,8.72,18.23,3.34.84-.71-1.09-.65-1.53-.27-4.56,3.92-10.13,1.39-13.43-2.12-1.2-1.27-2.24-2.95-3.76-3.88-2.22-1.36-4.73-1.34-7.26-1.4-7-.15-19.4.29-16.31-10.15.06-.22-.19-.35-.37-.37-8.17-.91-12.65-5.59-19.1-10l-1,.88A392.15,392.15,0,0,0,137.8,259c1.14-.33.91-1.24-.24-.89Z"/><path class="cls-6" d="M184.82,257.09c8.38,8.59,23,7.34,33.94,9.4a33.13,33.13,0,0,1,4.06,1.05c2.67.84.2,4-.79,5.43-2.1,3.12-5.95,4.79-9,6.85a14.55,14.55,0,0,0-4.8,4.85c-3.14,5.72-9.79,5.68-15.7,5.7-.43,0-1.37.21-1.34.79.22,4.49-10.89,9.63-12.85,5-.28-.65-2.18-.05-1.93.52,2.49,5.86,17-.12,16.71-6.06l-1.35.79c6.16,0,14.84.31,18-6.23,2-4.2,6.68-6.14,10.34-8.69a16.78,16.78,0,0,0,6.25-8.84c0-.14-.07-.27-.19-.32-12.3-5.19-29.6-.76-39.6-11-.45-.46-2.28.25-1.79.75Z"/><path class="cls-6" d="M92.37,270.83c1.89,6.27,9.28,3.55,13.76,6.5,3.06,2-1.27,6.76,2,8,2.75,1,5.64.91,8.54.81,3.83-.14,6.72-.14,9.72,2.38a58.36,58.36,0,0,0,7.64,6,6.44,6.44,0,0,0,8.22-.91c.48-.48-1.41-.29-1.77.08-3.59,3.58-10.5-4.4-13-6.5-2.9-2.44-6.41-2.12-10-2s-9.36.78-8.27-4.88c.44-2.28-.34-3.1-2.22-4.33-4.16-2.75-10.85.38-12.69-5.71-.16-.53-2.08,0-1.93.52Z"/><path class="cls-6" d="M177.57,292.34c2.76,2.2,5.12.88,7.44-1.25,1.08-1,2-2,3.2-3,2.56-2,5.42-.32,8.09-.54,2.23-.19,4.77-.8,6.44-2.43,2.36-2.32,3.2-5.54,6.74-6.63,2.61-.8,5-.4,7.35-2,2.9-2,5-5.76.87-7.45-.74-.31-2.26.75-1.15,1.2q3,3.44-1,5.48a15.12,15.12,0,0,1-4.86,1.31,10,10,0,0,0-3.05.77,11.78,11.78,0,0,0-4.7,4.61c-3.38,5.39-9.74,2.53-14.64,4.19-2.47.83-6.24,7.08-9.25,4.69-.6-.48-2.34.38-1.51,1Z"/><path class="cls-6" d="M111.28,271.34h-1.85c-.27,0-2,.39-1.17.76a13.57,13.57,0,0,0,5.93.89c.27,0,1.54-.29,1.36-.79a2.93,2.93,0,0,0-4.32-1.84c-.24.12-.61.5-.19.66a1.82,1.82,0,0,0,1.36-.21c-.2.09-.41.05-.09.15.72.22,1.07,1.08,1.31,1.72l1.36-.75a11.68,11.68,0,0,1-5.16-.69c-.39.31-.78.1-1.17,1.1h1.85a1.79,1.79,0,0,0,1.28-.51c.29-.36-.24-.49-.5-.49Z"/><path class="cls-6" d="M114.62,276.51a5.22,5.22,0,0,0,3,2c1.53.17,2.66-1.26,3.43-2.38.26-.38-.22-.75-.55-.75h-3.7a1.38,1.38,0,0,0-1.33.79,2.69,2.69,0,0,0,.31,2.78,8.74,8.74,0,0,0,2.68,1.38,1.43,1.43,0,0,0,1.37-.14c.27-.18.57-.64.14-.85-.71-.34-1.47-.57-2.15-1-.89-.5-.66-1.7-.41-2.51a3,3,0,0,1-1.33.52h3.7c-.18,0-.37-.25-.55-.47a8.4,8.4,0,0,1-.79,1.09,2.13,2.13,0,0,1-.26.26c.17-.09.18,0,0-.05a6.37,6.37,0,0,1-1.73-1.46c-.54-.54-2.37.22-1.78.8Z"/><path class="cls-6" d="M126.62,278.34c.52.55.76,1.32,1.37,1.8.93.73,2.27.46,3.31.14.35-.11.79-.3.79-.73v-.92c0-.23-.36-.29-.5-.29h-.92c-.45,0-1.36.21-1.35.8,0,1.34.89,2.36.93,3.7,0,.59,1.95.22,1.93-.52,0-1.33-.89-2.4-.93-3.73-.44.26-.89.75-1.34.75h.92c-.19,0-.74-.1-.74-.19v.92c0-.24.64-.49.92-.73-.73.23-1.16.27-1.66-.35-.37-.44-.56-1-.95-1.4s-2.27.22-1.78.75Z"/><path class="cls-6" d="M135.79,285.61c.09,1.29,2.48,1.15,3.34,1.15a1.79,1.79,0,0,0,1.29-.5c.29-.36-.25-.46-.5-.46-.59,0-2.14.14-2.2-.71,0-.51-2-.13-1.93.52Z"/><path class="cls-6" d="M181.45,282.86a2.61,2.61,0,0,1-.4,0c.22,0,.35.15.4.43-.31.35-.38.46-.22.34-.24.17,0,0,.09,0l.15-.06c-.11,0-.1,0,0,0s.51-.15.77-.21l.2,0h0l.38,0c.4,0,1-.29,1.08-.73s-.54-.56-.87-.55a7.18,7.18,0,0,0-2.69.69c-.29.14-1.07.58-.85,1s.77.51,1.24.51a1.38,1.38,0,0,0,1.26-.57c.22-.4-.18-.71-.56-.72Z"/><path class="cls-6" d="M183,281.4a1.18,1.18,0,0,1,.26-.77c-1.17,1.25-1.62-.17-1.36.51a2.53,2.53,0,0,1,.09.78c0,.33,1.94,0,1.93-.52a1.6,1.6,0,0,0-.24-1c-.29-.3-.92-.15-1.25-.05a1.67,1.67,0,0,0-1.37,1.62c0,.31,1.92.05,1.94-.52Z"/><path class="cls-6" d="M192.72,281.26c.9.07,1.56.75,2.54.58a3,3,0,0,0,2.51-2.13c.11-.32-.4-.37-.59-.37h-.92c-.45,0-1.17.15-1.17.73V281c0,.23.27.35.41.35h2.77a1.6,1.6,0,0,0,1.27-.49c.27-.37-.22-.51-.51-.51h-2.77c.19,0,.83.05.83.14v-.93c-1,.26-1.14.79-1.59.79h.92c-.19,0-.39-.27-.58-.4a2.85,2.85,0,0,1-.34.73c-.28.25-.24.29.11.14a1.78,1.78,0,0,1-.68-.2,4.91,4.91,0,0,0-1.44-.4c-.71-.06-2.07,1-.77,1.05Z"/><path class="cls-6" d="M205.07,274.37a1.7,1.7,0,0,0,.19,1.11c.31.36.92.33,1.35.33a1.41,1.41,0,0,0,1.26-.56c.23-.39-.19-.68-.55-.68H207c-.28,0-.09,0,.09.11,0,0,0,0,0-.14a2.29,2.29,0,0,1,0-.37c0-.91-1.94-.54-1.94.2Z"/><path class="cls-6" d="M208.44,272.55a5.83,5.83,0,0,0,2.27-1.6c.46-.7-.94-.76-1.27-.77a2.54,2.54,0,0,0-1.37.37c-.3.19-.26.41.11.42s.85,0,.58.39a4,4,0,0,1-1.43.94c-.15.07-.67.4-.24.5a2.26,2.26,0,0,0,1.35-.25Z"/><path class="cls-6" d="M184.83,262.67c1,1,9.78,7.89,9.21,8.74s1.39.83,1.83.18c.82-1.2-2-3.25-2.62-3.86-2.18-2-4.54-3.81-6.65-5.89-.59-.58-2.42.2-1.77.83Z"/><path class="cls-6" d="M183,265.34h-1.85c-.5,0-1.37.51-1,1.09,2,2.9,4.48,5.39,6.47,8.29.5.73,2.34,0,1.77-.87-2-2.9-4.48-5.58-6.47-8.48-.32.38-.64,1-1,1h1.85c1.11,0,1.48-1,.17-1Z"/><path class="cls-6" d="M179.09,268.06v7.39a13.8,13.8,0,0,0,2-.52,11.6,11.6,0,0,0-4.65-9.32c-.42-.31-1.82,0-1.86.6-.07.16,0,.24.22.25-.83.14-1.67,1.08-.33.84.94-.16,2-.5,2.06-1.6l-1.87.6a11.35,11.35,0,0,1,4.53,9.15c0,.44,1.91.1,1.91-.52v-7.39c0-.42-2-.11-2,.52Z"/><path class="cls-6" d="M160.75,273.52c-.89,1-.76,2.47-.76,3.78a17.78,17.78,0,0,1,2.1-.52v-6.47c0-.11-.64,0-.68,0h-1.85c-.42,0-1.36.05-1.58.48a19.83,19.83,0,0,1-3.62,4.49c-.38.39,1.43.13,1.74-.18a20.2,20.2,0,0,0,3.78-4.53c-.53.19-1.06-.26-1.58.74h1.84c-.11,0,0-.47,0-.51v6.47c0,.28,1.79,0,1.79-.52,0-1.27,0-2.6.84-3.61.21-.25-.76-.17-.8-.16a2,2,0,0,0-1.17.51Z"/><path class="cls-6" d="M153.66,268.27c-2.89,2-4.5,5.36-7.39,7.39l1.63.39a4.66,4.66,0,0,1,1.68-3.33c.86-.87-1-1.22-1.63-.6a5.89,5.89,0,0,0-2,4.06c0,.87,1.17.71,1.62.39,2.89-2,4.51-5.36,7.39-7.39,1.08-.75-.49-1.47-1.29-.91Z"/><path class="cls-6" d="M151.91,267.26c-3.74.18-6.26,1.89-9.28,4l1.49.29c1.49-1.71,1.94-3.64,2.84-5.68.13-.31-.41-.42-.59-.41a13.32,13.32,0,0,0-10.51,5.14l1.79,0a22.66,22.66,0,0,1,3.57-5.41c.77-.83-1.12-.76-1.54-.3a23.49,23.49,0,0,0-3.82,5.68c-.44.86,1.47.47,1.79,0a10.12,10.12,0,0,1,8-4.1l-.59-.41c-.85,1.92-1.29,3.77-2.71,5.4-.57.66,1.22.48,1.5.29,2.34-1.6,4.32-3.29,7.34-3.43.7,0,2.05-1.14.75-1.08Z"/><path class="cls-6" d="M138.68,264.29c-2.3.11-4.14,1.77-6.47,1.85l-.15,1.48c1-.11,1.81-.81,2.77-.92s1.46-1.64.15-1.49c-1,.12-1.81.82-2.77.93s-1.49,1.52-.15,1.48a10.21,10.21,0,0,0,3.45-.79,10.35,10.35,0,0,1,3-1.06c1.12,0,1.46-1.55.15-1.48Z"/><path class="cls-6" d="M75,274.68c5.25,1.9,8,8.25,10.17,12.94,2.62,5.65,4.58,11.6,6.64,17.48,2.25,6.42,5.09,12.59,7.2,19.07,2.73,8.4,4.83,17,8.14,25.18.23.56,2.12-.05,1.93-.51-3.52-8.72-5.77-17.89-8.67-26.82-2.15-6.6-5.08-12.89-7.37-19.43A155.24,155.24,0,0,0,85.59,284c-2-3.92-4.67-8.53-9-10.1-.49-.18-2.25.58-1.57.82Z"/><path class="cls-6" d="M117.36,377.64c-1.81,3.59-1.35,8.18-1.17,12.07.25,5.28,1,10.53,1.11,15.82,0,1,2,.65,2-.17-.06-4.06-.55-8.11-.87-12.16-.37-4.62-1.39-11,.81-15.38.48-.95-1.48-.9-1.84-.18Z"/><path class="cls-6" d="M243.14,276.87c-17.3,18.73-22.18,44.82-31.6,67.72-.26.64,1.67.41,1.93-.23,9.32-22.65,14.12-48.64,31.22-67.15.78-.84-1.11-.82-1.55-.34Z"/><path class="cls-6" d="M203.23,374.16a52.7,52.7,0,0,1-5.55,21.25c-.27.56,1.64.36,1.93-.25a52.7,52.7,0,0,0,5.55-21.25c0-.78-1.92-.37-1.93.25Z"/><path class="cls-6" d="M109.92,291.16a192.74,192.74,0,0,1,6.3,32c1,8.6.21,18.11,3.87,26.15.25.57,2.13-.06,1.93-.51-3.63-8-3-17.59-3.87-26.16a180.14,180.14,0,0,0-6.29-32c-.16-.56-2.09,0-1.94.52Z"/><path class="cls-6" d="M119.16,296.7c.19,18,5.35,35.55,5.54,53.58,0,.59,1.94.22,1.94-.52-.2-18-5.35-35.55-5.55-53.58,0-.59-1.94-.22-1.93.52Z"/><path class="cls-6" d="M126.55,372.45c3.52,4.62,3.15,11.48,3,17-.16,6.37-1.08,12.69-1.15,19.06,0,.26,1.93,0,1.93-.52.08-6.36.91-12.7,1.16-19,.21-5.46.49-12.4-3-17-.34-.45-2,.37-1.93.52Z"/><path class="cls-6" d="M130.25,378c3,12.1,5.56,25.49,1.83,37.69-.27.9,1.71.67,2-.15,3.75-12.29,1.13-25.89-1.86-38.06-.22-.88-2.15-.37-1.93.52Z"/><path class="cls-6" d="M206.07,285.73c1.78,2.37,0,7.34-.58,9.89-.91,3.84-2.11,7.61-3.21,11.4-1.35,4.61-1.69,9.45-2.63,14.16-1.31,6.55-2.75,13-2.89,19.73,0,.78,1.92.37,1.93-.25.15-7.32,1.82-14.38,3.25-21.52,1-4.79,1.42-9.5,2.8-14.18,1.24-4.21,2.5-8.42,3.37-12.73.42-2.11,1.18-5.35-.25-7.25-.39-.52-2.25.14-1.79.75Z"/><path class="cls-6" d="M207.85,286.54c-.22,18.87-6.35,36.91-9.24,55.42,0,.2,1.84.07,1.93-.51,2.9-18.52,9-36.55,9.24-55.43,0-.29-1.93,0-1.93.52Z"/><path class="cls-6" d="M191.21,364c0,13.61,0,27.26-2.78,40.65-.18.91,1.79.65,2-.17,2.73-13.39,2.77-27,2.77-40.65,0-1-1.95-.66-1.95.17Z"/><path class="cls-6" d="M195.83,374.14c-3.57,9.52-3.94,19.78-6.46,29.57-.2.77,1.75.49,1.93-.22,2.52-9.79,2.9-20,6.47-29.56.27-.71-1.68-.47-1.94.21Z"/><path class="cls-6" d="M153.34,357.67c.06,18.8,1.79,37.55,1.85,56.35,0,.58,1.93.22,1.93-.52-.06-18.8-1.78-37.55-1.85-56.35,0-.58-1.93-.22-1.93.52Z"/><path class="cls-6" d="M170,359.35c-.13,17-3.56,33.79-3.69,50.8,0,1,1.94.62,1.94-.17.14-17,3.57-33.8,3.7-50.81,0-1-1.94-.62-1.95.18Z"/><path class="cls-6" d="M158.88,372.45c.36.78.44,1.64.8,2.4s1.38,1.15,2.15,1.43c.39.14,1.75-.11,1.76-.65a10.18,10.18,0,0,0,.11-2.2c-.14-.68-1.39-1.26-1.87-1.58s-1.74,0-1.74.6v8.31c0,.37,2,.08,2-.51v-8.32a14.43,14.43,0,0,0-2.05.6c.54.35,1.53.8,1.82,1.42s-.15,1.68-.16,2.19c.59-.21,1.15-.43,1.73-.65-2.05-.74-1.82-1.84-2.6-3.56-.23-.51-2.12.14-2,.52Z"/><path class="cls-6" d="M159.81,387.23c.77,4.26,0,8.5,0,12.78,0,.86,1.93.46,1.93-.22,0-4.39.79-8.72,0-13.08-.13-.71-2.07-.23-1.93.52Z"/><path class="cls-6" d="M160.8,407.28a8.72,8.72,0,0,0-1.13,2.9c-.1,1,.8,1.32,1.65,1.35a1.58,1.58,0,0,0,1.28-.53c.26-.38-.23-.54-.52-.55-1.23-.05.29-2.69.52-3.14.41-.82-1.52-.59-1.8,0Z"/><path class="cls-6" d="M144.13,381.09c-4.28-1.8-3.32-9.76-1-12.66l-1.78.4c1.94,1.11.7,7.27.65,9.28a45.16,45.16,0,0,0,1.14,12,.46.46,0,0,0,.34.24h.93c.38,0,1.42-.2,1.57-.67a33.29,33.29,0,0,0,1.86-8.45c0-.44-1.67.1-1.84.3-3.23,3.84-3.62,9.25-2.86,14,.08.54,1.74-.16,1.92-.43,1.35-1.94,2.42-2.22,2.77-4.62l-1.92.43c-.14,2-6.66,17.37-2.28,17.77,3.59.33,4.42-3.42,4.21-6.28,0-.52-1.66.18-1.84.32l2.14-.75c1.27-.53.06-.78-.68-.47a7.38,7.38,0,0,0-3.31,2.14c-.51.47,1.08.22,1.22.17a6.31,6.31,0,0,0,2.38-1.22l-1.84.32a8.27,8.27,0,0,1-.63,4.32c-1.12,2.36-1-4-1-3.74.69-4.53,3.29-8.48,3.6-13.1,0-.32-1.85-.05-1.92.42-.29,2-1.66,3-2.77,4.62l1.92-.42c-.73-4.61-.45-9.94,2.68-13.67l-1.84.33a32.09,32.09,0,0,1-1.83,8.22l1.57-.57c-4.17,0,.66-19.38-2.48-21.18a1.91,1.91,0,0,0-1.79.4c-2.53,3.11-3.64,11.29.89,13.2.54.23,2.05-.57,1.82-.67Z"/><path class="cls-6" d="M180.12,374.13c-.17,1.32-.75,2.39-.92,3.7-.12.94,1.75.53,2-.19a33.1,33.1,0,0,0,.92-8.53c0-.35-.29-.77-.62-.77H179.6a1.43,1.43,0,0,0-1.32,1c-.95,5.33-.13,10.4.86,15.66.22,1.19,1.66,7.76.77,8.15a9.93,9.93,0,0,0-2.66,1.62c-4.12,3.66-4.4,8.45,1.65,9.51.4.07,1.3-.21,1.32-.73.2-4.24,1.72-8.3,2-12.53a6.86,6.86,0,0,0-.57-3.83c-1.38-2.27-1.6-3.16-.58-5.87.9-2.37,2.76-5.11,2.08-7.75-.82-3.14-8.18-.5-4.07-4.79.82-.86-1.05-1-1.59-.47a6.28,6.28,0,0,0-2,4c-.06.48.53.56.87.55,6.51-.29,5,3.29,3.26,7.44a12.71,12.71,0,0,0-1.35,6c0,.48,1.56,1.51,1.82,2.24.64,1.78.1,4.09-.19,5.89-.49,3.09-1.49,6.11-1.63,9.25l1.32-.73c-6.79-1.19-2.46-7.77,1.65-8.93.27-.08.83-.33.82-.69-.24-8.1-3.29-15.88-1.85-24l-1.32.73c2,0,1.22,1,1.16,2.78a21.21,21.21,0,0,1-.86,5l2-.19c.17-1.32.75-2.39.92-3.7.12-.9-1.84-.6-1.95.19Z"/><path class="cls-6" d="M189.37,322.43c-.93,2.36-.58,3.85,1,5.79.33.41,1.37.06,1.67-.23,5-4.94.35-13.83-3.57-18.07-.36-.39-1.35-.08-1.67.23l-.92.93c-.17.16-.34.48,0,.6,5.06,1.72,7.93-2.93,10-6.92.2-.38-.17-.54-.51-.54a17.47,17.47,0,0,0-6.3,1.08l.75.75c1.52-.67,3.09-1.17,4.62-1.84,1.07-.48.36-1-.5-.84-8,1.78-13.75,17.76-4.35,21.24.57.21,2.33-.63,1.55-.91-7.89-2.92-4.13-17.81,3-19.41-.16-.28-.33-.56-.5-.84-1.52.68-3.09,1.18-4.61,1.85-1.25.55-.1,1.08.75.75a3.21,3.21,0,0,1,3.69-.18c-.41.77-.85,1.52-1.33,2.25-.8,1.26-6.18,4.69-3.82,2.32l-1.66.23c3.38,3.66,8.41,12.52,3.82,17l1.67-.22c-1.52-1.88-1.71-3.15-.86-5.3.24-.6-1.69-.37-1.93.25Z"/><path class="cls-6" d="M135.86,327.68c4-6.17-2.76-15.86-5.53-21.34l-1.87.6c1.6.8,4.09,1.73,5.5,0,1.1-1.35-.9-3.92-2.44-3.73-7,.85-4.84,17.18,3,12.77H133a45.43,45.43,0,0,1-4.62,8.32.13.13,0,0,0,.05.17c4.9,3.77,2.58,7.5-.05,11.84a.13.13,0,0,0,.05.17c1,1.19,1.78,2.5,2.77,3.69.31.38,2.14-.28,1.81-.67-1.79-2.17-2.84-3.29-1.26-6,.75-1.26,1.79-3,1.74-4.54a5.84,5.84,0,0,0-1.93-4.19c-1.63-1.76,2.64-7.37,3.35-9.16.19-.48-1.37-.06-1.52,0-4.32,2.43-4-9.74-2.57-11.59-.22.29,4.06,4.5-.58,2.17-.28-.15-2.1.13-1.87.59,2.73,5.38,9.47,15.12,5.55,21.15-.16.25,1.6.16,1.91-.33Z"/><path class="cls-6" d="M101.7,305.58c1.44-4.43,3-9.36,1.46-14a7.25,7.25,0,0,0-3.3-3.65c-1.45-.91-4.63-.54-4.63-2.72,0-.94-1.56-.42-1.88.05-5.13,7.39,4.54,16.65,12.15,14.47l-1.12-.46c-.23,4.18-1.51,8.11,0,12.17.25.66,1.4.32,1.76-.05a17.64,17.64,0,0,0,2.89-3.85c.49-.87-1.46-.72-1.82-.11-2,3.31-6.41,9.49-4,13.46,1.2,2,4.76.22,5.14,2.47.94,5.65,3.16,11,3.4,16.72,0,.73,2,.31,1.93-.52-.27-6.31-2.66-12.28-3.69-18.48-.06-.34-.6-.38-.86-.35-9,1.24-2.21-9.69-.12-13.19l-1.82-.11a17.22,17.22,0,0,1-2.65,3.54l1.75-.05c-1.47-4-.21-7.8,0-11.85,0-.56-.74-.57-1.12-.46-6.77,1.94-14.26-7.27-10.13-13.24-.62,0-1,0-2,0v1.85c0,.37.39.48.71.52,10.34,1.27,8.29,10.65,5.91,18-.25.77,1.75.52,2-.2Z"/><path class="cls-6" d="M217.18,313c1.07-4.86,2.92-9.54,3.25-14.54a5.62,5.62,0,0,0-1-3.93c-1.74-2.25,2-7.16,3.24-9.06l-1.85-.21a25.91,25.91,0,0,0-1.85,4.62c-.39,1,1.32,1,1.73.38,2.59-3.61,4.8-7.47,7.39-11.08.42-.58-.1-1-.72-1-2.74.22-3.67,1.21-5.51,3.19-.83.89,1,1.19,1.61.56a6.05,6.05,0,0,1,3.73-2.35l-.72-1c-2.59,3.61-4.8,7.47-7.39,11.08l1.73.39a26.21,26.21,0,0,1,1.85-4.62c.58-.9-1.4-.9-1.85-.21a22.43,22.43,0,0,0-3.64,7.89c-.49,2.3,1.28,3.09,1.3,5.46,0,4.92-2.21,9.8-3.26,14.54-.2.94,1.77.7,2-.15Z"/><path class="cls-6" d="M227.24,313.33c1.07,4,2.75,7.78,2.85,12,0,.47,2,.12,2-.52v-5.54c0-.46-2-.14-2,.51v5.55a15.39,15.39,0,0,0,1.9-.52c-.11-4.23-1.73-8-2.79-12-.15-.55-2.1,0-2,.52Z"/><path class="cls-6" d="M228.17,311.48a6.08,6.08,0,0,0,1,2.29c.6,1.09,1.36,2.15,1.92,3.25.26.51,2,0,2-.52v-4.62c0-.41-2-.1-2,.52V317c0-.17,1.21-.34,1.86-.52-.52-1-1.14-2-1.7-3a6.84,6.84,0,0,1-1.13-2.56c0-.46-2-.08-2,.52Z"/><path class="cls-6" d="M230.94,303.94a45.13,45.13,0,0,0,.92,10.31c.16.66,1.94.23,1.94-.37,0-5.28.19-10.7,2-15.71a12.88,12.88,0,0,0-1.74.23v11.09c0,.9,1.52.32,1.74-.23a11.75,11.75,0,0,0,.83-4.62c0-.84-2-.43-2,.23a11.85,11.85,0,0,1-.72,4.62c.64-.08,1.13-.16,2.13-.23V298.17c0-.89-1.94-.35-2.16.23-1.84,5-2,10.44-2,15.71l1.88-.38a43.71,43.71,0,0,1-.95-10c0-.83-2-.42-2,.23Z"/><path class="cls-6" d="M237.09,292.82V303c0,1,2.06.73,2.11-.15.11-1.88.89-3.65,1-5.54.06-1-1.87-.73-1.92.15-.11,1.88-.93,3.65-1,5.54.65-.05,1.84-.1,1.84-.15V292.67c0-1-2-.73-2,.15Z"/><path class="cls-6" d="M242,286.54a27.67,27.67,0,0,1-.92,8.2l1.92-.41a13.85,13.85,0,0,1,1.84-5.42c.23-.45-1.64-.27-1.91.28a14.17,14.17,0,0,0-1.86,5.66c0,.51,1.78.06,1.93-.4A28.18,28.18,0,0,0,244,286c0-.47-1.93-.15-1.93.52Z"/><path class="cls-6" d="M242,288.38c.55,1.19,1.15,2.94.15,4.06-.82.92,1,1.28,1.62.6,1.3-1.46.92-3.55.16-5.17-.41-.87-2.32-.31-1.93.51Z"/><path class="cls-6" d="M222.62,325.34a32.3,32.3,0,0,1,1.67,9c0,1.05,1.8.8,1.8-.13v-3.69c0-1.06-1.77-.81-1.8.12a15.31,15.31,0,0,1-2.52,7.94c-.67,1.05,1.17,1.43,1.67.63a16.81,16.81,0,0,0,2.78-8.69c-.66,0-1.13.08-2.13.12v3.7c1,0,1.49-.09,2.15-.13a33.67,33.67,0,0,0-1.77-9.43c-.31-.94-2.14-.41-1.85.52Z"/><path class="cls-6" d="M209.69,375.06c.16,5.72,1.76,11.18,2.77,16.79.14.75,1.93.33,1.94-.36.08-4.44.85-8.43-1.69-12.31-.34-.53-1.62-.16-1.62.49v13.86c0-.16,1-.33,1.62-.5a17.79,17.79,0,0,0-3.81-3.69c-.47-.41-2.12-.2-1.92.66a8.31,8.31,0,0,1-.9,6.14c-.45.93,1.48.81,1.81.14a9.09,9.09,0,0,0,1-6.8l-1.86.67a16.39,16.39,0,0,1,3.46,3.69c.34.53,1.63.16,1.63-.5V379.49c0,.16-1,.33-1.63.49,2.39,3.67,1.95,7.55,1.88,11.7l2-.35c-1-5.49-2.58-10.85-2.74-16.46,0-.94-1.94-.57-1.91.19Z"/><path class="cls-6" d="M64.83,280.51a2.29,2.29,0,0,0-.56.85c-.2.64.49.9,1,.93a1.41,1.41,0,0,0,1.27-.56c.22-.41-.2-.68-.56-.7,0,0,.18.44.22.21,0,.09.07-.11.07-.11a.82.82,0,0,1,.15-.17.46.46,0,0,0-.22-.82,1.47,1.47,0,0,0-1.37.37Z"/><path class="cls-6" d="M65.58,282.84c.77,3,1.79,6.08,1.85,9.24,0,.25.69.14.79.13,1.6-.3,1.89-1.12,2.9-2.29.43-.5-1.44-.25-1.76.11,0,0-1.07,1.46-.79,1.41l.79.12c-.06-3.16-1.08-6.2-1.85-9.24-.12-.47-2.05,0-1.93.52Z"/><path class="cls-6" d="M72.05,284.56a13.67,13.67,0,0,0,0,8.44c.21.6,1.64.16,1.86-.25a13.14,13.14,0,0,0,2-5.68,8.23,8.23,0,0,0-1.83.39v7.39c0,.68,1.57,0,1.77-.25,1.81-2.13,1.8-5.55,3.51-7.26H77.62a79.86,79.86,0,0,0-.94,14c0,.62,1.67.06,1.85-.26,1.89-3.23,2.73-6.92,4.62-10.16l-1.86.13c-1,5.74-2.77,12.18,0,17.68.33.66,1.68.1,1.93-.39a23.07,23.07,0,0,1,2.7-4.49c.52-.64-1.42-.46-1.79,0a24.78,24.78,0,0,0-2.84,4.75l1.93-.39c-2.73-5.43-1-11.74,0-17.42.12-.75-1.63-.27-1.86.12-1.89,3.24-2.73,6.93-4.62,10.16l1.86-.25a78.83,78.83,0,0,1,.92-13.73c.13-.74-1.48-.25-1.73,0-2.06,2.06-1.62,5.09-3.69,7.52.62-.09,1-.17,2-.26v-7.39c0-.55-2-.19-2.06.39a12.59,12.59,0,0,1-1.84,5.41l1.82-.25a13.4,13.4,0,0,1,0-8.19c.17-.66-1.78-.36-2,.26Z"/><path class="cls-6" d="M85,299.47c0,5.24-.88,10.66.93,15.7.14.41,1.76-.14,1.91-.44.92-1.85,1.85-3.69,2.77-5.54.1-.21-1.67-.1-1.9.36l-2.77,5.55,1.92-.44c-1.81-5.05-1-10.47-.93-15.71,0-.23-1.92,0-1.93.52Z"/><path class="cls-6" d="M89.59,308.55c-.09,3.41-.83,6.75-.92,10.16,0,.86,1.41.46,1.76.11a23,23,0,0,0,3.68-4.77l-2,0v12c0,.78,1.33.49,1.73.25,1.12-.7.57-.73,1.28-2.14.45-.9-1.46-.75-1.78-.11.32-.65-.95,1.7-.72,1.55a9.13,9.13,0,0,1,1.49.25v-12c0-.9-1.48-.46-1.77.05a21.69,21.69,0,0,1-3.52,4.46l1.79.11c.08-3.42.84-6.75.93-10.16,0-.89-1.91-.52-1.93.2Z"/><path class="cls-6" d="M96.1,321.24a38.45,38.45,0,0,0-1.9,13.27.86.86,0,0,0,.91.83H96a1.34,1.34,0,0,0,1-1.09v-1.84c0-1.07-2-.82-2,.12v9.24c0,.51.48.69.93.69,1.85,0,2.87-1.08,4.43-2.12l-1.63-.42c0,1.77-1.74,11.38,1.83,10.85,1.1-.16,1.45-1.7.15-1.51-.34.05,0-8.57,0-9.46s-1.14-.76-1.64-.43A24.07,24.07,0,0,1,96.64,341c.57-.66.45-1.43.45-2.32v-6.22c0-1.07-2-.82-2,.12,0,2.73,1.05-.73,1.07-1.6A28.83,28.83,0,0,1,98,321.52c.39-1.09-1.54-1.15-1.86-.28Z"/><path class="cls-6" d="M106.22,382.43a33.48,33.48,0,0,0,.93,9.42c.23.78,1.62.4,1.89-.16a67.76,67.76,0,0,0,2.77-7.39l-1.9,0c-.06,4.33-.85,8.61-.92,12.93,0,1,1.77.62,2-.16a5.82,5.82,0,0,1,1.68-2.42c.84-.87-1-1.13-1.61-.54a6.35,6.35,0,0,0-2,3.12l2-.16c.07-4.33.86-8.6.93-12.93,0-.92-1.67-.7-1.9,0a66.25,66.25,0,0,1-2.77,7.39l1.88-.16a32.09,32.09,0,0,1-.91-9.06c0-1-2-.67-2,.16Z"/><path class="cls-6" d="M111.77,396.31c0,3.72-.16,7.65.93,11.24.23.77,2.15.24,1.93-.51-1.06-3.51-.92-7.31-.92-10.93,0-.9-1.94-.53-1.94.2Z"/><path class="cls-6" d="M84.06,337.23c-2.89,4.74-6.34,9.12-9.23,13.86-.22.36,1.6.23,1.92-.29,2.89-4.75,6.33-9.12,9.23-13.86.22-.36-1.6-.23-1.92.29Z"/><path class="cls-6" d="M234.7,337.44a63.85,63.85,0,0,0,7.39,9.24c.42.43,2.24-.27,1.8-.72a64.45,64.45,0,0,1-7.39-9.23c-.31-.47-2.18.15-1.8.71Z"/><path class="cls-6" d="M130.46,213.24c-.49-4.67-4-9.56-6.49-13.44a19.6,19.6,0,0,1-3.3-9.73c0-1.55.3-2.85-.1-4.38-.88-3.31-4.9-4.79-7.56-6.18-3.61-1.89-2.66-6.15,1.1-3.62a30.14,30.14,0,0,0,4.2,2.81,1.43,1.43,0,0,0,1.67-.45c2.82-4.72-1.06-7.27-4.46-10.22a9.87,9.87,0,0,1-3.29-6.35c-.33-2.24,1.78-4.39,3.94-2.53.79.67.82,2.15,1.47,3,1.47,1.82,4.9,2.15,6.29,0,.7-1.08-1.5-4-1.38-5.19.41-4.1-2.78-7.22,1.32-10.61l-1.76.05c.23,2.79,2.8,9.95,6.61,9.48,5.35-.67,4.28-5.74,2.58-9.2a10.15,10.15,0,0,1-1.39-4.26q2.34-1.83,2.34.43a20.21,20.21,0,0,0,1.09,3.15,5,5,0,0,0,4.87,3.15,5.45,5.45,0,0,0,4.69-3.2c1.16-2.39-2.65-5.77.38-6.48l-1.11-.29c1.86,3.85,4.77,9.9,9,4.76.75-.91-1.11-1-1.57-.41-2.46,3-4.93-3.75-5.47-4.86-.2-.42-.73-.38-1.11-.29a9.13,9.13,0,0,0-3.68,1.81c-.31.24-.52.55-.14.84,4.46,3.4-.57,8.64-3.44,5.23-1.27-1.53-1.6-4.12-2.06-6-.08-.35-.58-.35-.85-.34-5.12.28-5.47,3.06-3.45,7.27.5,1,1,2.06,1.42,3.14.87,2.24-1.13,5.42-3.38,3.18a13.52,13.52,0,0,1-3.37-7.64c-.06-.74-1.49-.16-1.75.06-1.79,1.48-2.9,3.13-2.55,5.61s.15,5.92,1.22,8.14c.15.28.32.57.48.84q1.89,2.88-2.34.19c-.41-.78-.67-1.57-1.14-2.33-.8-1.3-3.5-1.31-4.8-1.17-3.27.36-3.08,4.29-2.55,6.63,1.24,5.5,11.18,8.27,7.55,14.33l1.67-.45c-2.62-1.18-5.67-5.32-8.88-4.57-2.87.67-3.41,4.53-1.08,6.28,2.09,1.58,4.69,2.3,6.7,4,3,2.53,1.8,4.9,2.18,8.16,1,8.27,8.94,14.13,9.78,22.19.08.73,2,.28,1.93-.52Z"/><path class="cls-6" d="M153.65,145.28c.87-1.29,4.27-5.82,4.78-2.32a8.83,8.83,0,0,0,2.12,4.33c1,1.29,3.28,1.36,4.71.71a6,6,0,0,0,3.2-3.42,31.8,31.8,0,0,1,1.63-3.74c2.27,0,2.83,1.18,1.66,3.41-.26,1.5-.58,2.89-.7,4.42,0,.22.15.28.35.31,1.85.25,4.16.43,5.85-.61a5.35,5.35,0,0,0,2-1.6,4.75,4.75,0,0,0,.87-2l2.2-.34a3.86,3.86,0,0,1-.1,1.69c-.35,1.82-3.72,9.58,1.21,8.83,2.32-.35,4.76-3.4,7.09-2.84,4.94,1.17-.67,6.28-1.65,8.55-.82,1.93.66,3.86,2.46,4.32,2.18.56,9.7-.69,4.58,2.6-5.56,3.57-2.08,7,2.76,8.87s-2.17,3.17-3.31,4-2,2.34-1.36,3.68a10.9,10.9,0,0,0,1.59,2.8c.85,1,2.36.13,3.11,1.55.87,1.68-2.9,3.51-4,3.8-5.66,1.52.86,7.1.45,10.06l1.35-.61c-1.87,0-4.37,0-6,1.18-4.28,3.21-2.9,11.13-5.75,15.36-.43.64,1.48.38,1.78-.06,3.13-4.65,1.6-15.47,9.14-15.55.32,0,1.3-.18,1.36-.61.35-2.6-1.35-3.36-1.73-5.74-.16-1-1.31-.57-1.14-2,.2-1.65,1.08-1.08,1.86-1.67.58-.43,3.61-1.07,4-2,.86-2.22.83-3.48-1.6-4.05-1.54-.35-2.18-2.24-2.78-3.58a4.84,4.84,0,0,1,1.22-2.27c1.85-.13,3.08-.25,4.46-1.53,1.65-1.53.19-3-1.11-3.63-2.29-1.18-3.75-1.11-5.23-3.62-1.65-2.8,3.2-4.68,4.9-5.66.21-.12.5-.3.33-.56-1.14-1.72-2.31-2.09-4.3-2-1.48.06-2.85.77-4.33-.18-2.47-1.6,0-4.82,1.05-6.21,2.37-3.1,2.26-7.09-2.9-6.3a10.74,10.74,0,0,0-4.17,1.93c-4.3,2.79-2.58-3.62-1.88-5.7,1.46-4.32-.66-5-4.53-4-.21.05-.83.24-.86.53a5.43,5.43,0,0,1-.45,2.32q-5.91,3.11-4.46-.8a16.68,16.68,0,0,0,.42-5.93c0-.15-.25-.18-.36-.2-2.27-.39-4.2.18-5.44,2.21a34.19,34.19,0,0,0-1.73,4.08c-2.62,5.79-6-2.94-6.11-5.29,0-.28-.67-.2-.81-.19-3.6.4-5.48,2.36-7.46,5.29-.43.64,1.48.39,1.78-.06Z"/><path class="cls-6" d="M119.92,184.72c0,1.88-4.28,3.39-5.69,4.44-2.64,2-2.5,1.84-2.5,5.18a.54.54,0,0,0,.59.53c3.72,0,8.91.22,6.39,5.62-.66,1.4-1.15,3.24-.15,4.62,2.66,3.66,9.46,3.56,10,8.65.08.76,2,.31,1.93-.52-.29-2.94-2.31-4.18-4.82-5.37a16.45,16.45,0,0,1-4.77-2.83c-2.19-2.12.28-5.11.75-7.47s-2.81-3.42-4.48-3.71c-.73-.13-3.52.17-3.52-.72,0-3.31,4.71-5.46,7.43-6.35.26-.09,1-.3,1-.67v-1.6c0-.91-2.17-.55-2.17.2Z"/><path class="cls-6" d="M128.81,176c-2,.3-3.81-4.59-4.17-5.87-1.34-4.88,5.44-1.63,7.49-1,.51.17,1.61-.15,1.54-.83a13,13,0,0,0-2.88-6.73c-1.47-2-1.6-2.77.09-4.84,1.49-1.8,2.53,1.41,2.8,2.07,1,2.31,1.47,5.22,4.27,5.68,6.51,1.07,7.09-8.13,5.35-12.23-.28.27-.55.55-.82.82,4.94-1.65,4.49,5.69,4.5,8.37a.45.45,0,0,0,.39.47c3.58.81,7.12.6,7.53-3.71a29.33,29.33,0,0,0,0-3.11c0-1.09,2-5.75,2.7-4.48.9,1.72.41,4.35.42,6.22,0,2.36,1.78,5.81,4.48,4,1.33-.89,6.93-8.38,7.82-3.61.48,2.57-.78,5.61-.88,8.21,0,.46.49.52.85.5,5.47-.36,8.41-3.82,12.77-6.67l-1.59-.09c1.33,3.8-.49,5.24-2,8.33-.73,1.51-.52,4.14.87,5.24,1.55,1.22,3.24.87,5.1.83,4.62-.09-1.18,3.22-1.5,3.73a.39.39,0,0,0,0,.46c.87,1.34,1,2.86,2.38,3.72,3.33,2.08,4.63,7.31-.58,8.11-1,.15-1.55,1.41-.22,1.21,4.12-.64,6.41-3.94,5.89-8.09-.25-2-3.82-1.46-4.25-3.59-.24-1.19-1.41-1.88.35-2.67a4.61,4.61,0,0,0,1.39-.94c2-1.87-2.72-3.21-3.69-3.14-5.59.38-4.27-4.52-2.18-7.59,1.35-2,1.11-4,.36-6.13-.21-.6-1.21-.33-1.59-.09-2.07,1.36-3.9,3-5.91,4.46-.46.33-4.66,3-4.42.57.12-1.19.37-2.38.56-3.57.32-2,.79-5.34-2.07-5.52a9,9,0,0,0-7,3.44c-1.16,1.58-1.4,3.24-2.87-.09a4.51,4.51,0,0,1-.18-1.83c0-1.43,0-2.84-.08-4.27-.47-6.36-6.83-.08-6.93,3.53a25.08,25.08,0,0,1-.2,4.5l-3.83.53c0-.38,0-.75,0-1.13a27.41,27.41,0,0,0-.43-4c-.66-3.46-3.29-4.2-6.29-3.2-.26.08-1,.39-.81.81,1.25,3,1.46,7.26-.67,9.88-2.86,3.5-5.1-4.65-5.74-5.83-2.6-4.74-6.25,0-8,2.85a.39.39,0,0,0,0,.46c2.39,2.51,4.38,5.13,4.74,8.68l1.54-.83c-3.4-1.1-8.92-4.53-10.63.67-.92,2.8,2.63,9,5.93,8.53,1-.14,1.55-1.4.23-1.21Z"/><path class="cls-6" d="M126.68,177.69c-2.68,1.47-6,6.42-2,8.26.7.31,2.42-.65,1.51-1.06-2.89-1.3-.81-5,1.26-6.17,1.16-.64.11-1.55-.82-1Z"/><path class="cls-6" d="M128.05,194.1c1.3-16.91,14.92-27.3,31.47-24.2,6.2,1.16,29.17,6.34,25.17,16.47-.2.51,1.69.28,1.92-.29,4.54-11.5-22.64-16.74-29.45-17.71-16.28-2.3-29.81,10.09-31,26,0,.67,1.88.26,1.92-.29Z"/><path class="cls-6" d="M135.81,344.66c-1.64.51-3.4,1.43-3.42,3.36,0,1.58,1.47,2.87,2.82,3.39,2.58,1,6.86-.93,7.49-3.77.45-2-1.7-3.48-3.3-4.1-1.85-.73-4.54-.85-6,.73-1.32,1.4,0,3.75.76,5.05.34.57,2.16-.12,1.93-.51a7.2,7.2,0,0,1-1.3-3.54,1.77,1.77,0,0,1,.32-1,.58.58,0,0,1,.41-.28,5.32,5.32,0,0,1,.82,0,6.7,6.7,0,0,1,1.27.29,6,6,0,0,1,2.38,1.45c1.61,1.62.52,3.41-1.08,4.5-3,2-6.73-3.6-2.88-4.79.22-.07,1-.29.86-.65s-.86-.21-1.07-.14Z"/><path class="cls-6" d="M139,350.8c-1,2.11-1.43,6,1.44,6.73,2.11.53,5-.73,5.06-3.13a5.31,5.31,0,0,0-2.82-4.74c-2.51-1.09-4.08,1.51-4.48,3.55-.13.68,1.81.34,1.93-.27a4.65,4.65,0,0,1,.95-2.43c.3-.3-.27-.06-.07,0a2,2,0,0,1,.69.38,5.28,5.28,0,0,1,1.85,3.56c.16,1.48-1.14,3-2.59,1.73s-.7-4.22,0-5.64c.24-.52-1.65-.32-1.93.26Z"/><path class="cls-6" d="M142.33,357.61a4.84,4.84,0,0,0-.83,5.14c.82,1.88,2.78,2.4,4.66,2.37,2.57-.06,4.05-2,3.16-4.38a8.17,8.17,0,0,0-4.86-4.88c-3.06-.89-4.5,1.93-4.71,4.51-.08,1,1.88.72,2-.15a5,5,0,0,1,.83-2.86c.31-.36.63-.28,1.18-.08a7.29,7.29,0,0,1,3.44,3.47c.43.81,1,2.69-.3,2.91a3.18,3.18,0,0,1-3.4-1.37,3.69,3.69,0,0,1,.48-4.12c.83-.89-1-1.2-1.61-.56Z"/><path class="cls-6" d="M129.42,345.1a6.33,6.33,0,0,0-.42,7.1c1.54,2.13,4.64-.17,5.26-2,.7-2-1.49-3.5-3.25-3.61a3.64,3.64,0,0,0-4.08,4.33c0,.44,2,.05,1.93-.52-.14-1.28,0-3.26,1.55-2.85a2.52,2.52,0,0,1,1.94,3,2.8,2.8,0,0,1-.53,1,3.47,3.47,0,0,1-.59.62c-.4.33.53.13.15-.06a2.74,2.74,0,0,1-1-1.78c-.46-1.65-.37-4,.85-5.29.45-.49-1.43-.27-1.76.09Z"/><path class="cls-6" d="M130.12,353.94c-.32,1.83,0,4.06,1.83,5s4.18-.07,5.58-1.52,1.4-3.6-.62-4.64a6.23,6.23,0,0,0-6,.23c-2.5,1.61-1.78,4.68-.68,6.93.41.83,2.23.08,1.76-.87-.64-1.32-1.51-3.62-.16-4.81a3.53,3.53,0,0,1,3.35-.39c.94.31,1.83,1,1.37,2.06a3.26,3.26,0,0,1-2.87,1.88c-1.76-.19-1.8-2.74-1.59-4,.18-1-1.8-.8-2,.12Z"/><path class="cls-6" d="M133.4,361.05c-1.05,2.4-.24,5.67,2.5,6.44,2.2.61,5.21-1.53,5.15-3.85s-2.71-3.4-4.53-3.82c-2.27-.52-5,0-6.33,2-.52.8,1.44.68,1.82.1,1.53-2.32,5.54-.77,6.8,1.1.88,1.29-.53,3.86-2.15,3.17-1.8-.76-2.13-3.5-1.44-5.07.4-.92-1.54-.74-1.82-.1Z"/><path class="cls-6" d="M118.15,349c-1.21,2.61-.88,6.27,2.19,7.36,2.74,1,5.66-1.83,6-4.39.31-2.08-1.6-3.43-3.46-3.56a4.56,4.56,0,0,0-4.84,4c-.14.88,1.82.58,2-.19.19-1.16.81-2.55,2.19-2.51a2.28,2.28,0,0,1,2.23,2.12c.06,1.6-1.65,4.12-3.39,3.18-2-1.1-1.92-4.05-1.09-5.83.44-.94-1.51-.83-1.83-.15Z"/><path class="cls-6" d="M121.32,358.86c-.78,1.25-1.38,3-.27,4.25a4.35,4.35,0,0,0,3.84,1.16,7.2,7.2,0,0,0,4.47-2.2,5,5,0,0,0,.77-4.2c-.58-2.35-3-3-5.13-2.5-3.12.81-3.89,3.91-3.69,6.79,0,.35,2,0,1.93-.52-.13-1.84,0-4.72,2-5.68,1-.49,2.52,1.15,2.9,2.08.81,2-.19,5.22-2.61,5.48a3,3,0,0,1-2.79-1.34c-.73-1.18-.12-2.62.54-3.66.14-.22-1.61-.13-1.91.34Z"/><path class="cls-6" d="M124.58,365.08c-1.58,2.54-.13,5.6,3,5.53,2.1-.05,5.13-1.31,5-3.83a4.63,4.63,0,0,0-3.41-3.92c-2.54-.78-5,.91-6.17,3-.47.81,1.48.63,1.8.06.7-1.22,1.75-2.51,3.29-2a4,4,0,0,1,2.5,2.81c.33,1.46-.72,2.33-2,2.64-2.54.6-3.22-2.61-2.17-4.28.49-.79-1.46-.62-1.81-.06Z"/><path class="cls-6" d="M110.92,349.75a23.41,23.41,0,0,0-.85,7.17c0,.51.46.42.89.42h4c.36,0,.87,0,1-.37.66-1.8,1.71-4.75-.1-6.26-1.43-1.2-3.56-.62-5.1,0-3.29,1.4-6.6,5.79-1.89,7.78.84.35,2.25-.84,1.11-1.32-3.19-1.34-.73-4,1.31-5.08.85-.43,2.11-.88,3-.26,1.39,1,.26,3.93-.16,5.09.34-.21.67-.62,1-.62h-4c.3,0,.6.45.9.67a23.77,23.77,0,0,1,.74-7c.34-1.08-1.59-1.08-1.85-.23Z"/><path class="cls-6" d="M112.81,360.67c-2.7,2-2.46,5.06.65,6.39a4.52,4.52,0,0,0,6.42-3.19,6.92,6.92,0,0,0-3.59-7.14c-1.78-.83-3.05.72-4.17,2a6.21,6.21,0,0,0-1.24,6.63c.36.85,2.28.29,1.93-.52-1.26-3,.44-5.6,2.89-7.33l-1.2.21a5.9,5.9,0,0,1,3.37,6.6c-.78,3.88-7.84.17-3.78-2.8,1.06-.78-.52-1.42-1.28-.86Z"/><path class="cls-6" d="M115.77,369.12a4.12,4.12,0,0,0,.23,4.73,3.84,3.84,0,0,0,4.06,1.3c2.12-.55,4-4.14,2.53-6.08-1.16-1.51-3.87-.91-5.35-.39s-3.54,1.67-3.32,3.41c.16,1.24,1.78,1.92,2.77,2.29a1.71,1.71,0,0,0,1.36-.19c.23-.13.62-.54.19-.7-1.2-.45-3.19-1.48-2-3a4,4,0,0,1,3.32-1.33c1.92.19,1.72,2.18,1.2,3.56-.17.44-.59,1.46-1,1.52-.56.1-1.21-.41-1.59-.74a3.55,3.55,0,0,1-.62-4.41c.42-.76-1.5-.51-1.79,0Z"/><path class="cls-6" d="M185.52,336.11c-1.27,2.08-.76,5.66,1.46,6.92,1.82,1,6.19-.09,5.9-2.7-.22-2-2.81-3.19-4.57-3.36-3.1-.29-4.91,2.12-5.25,4.94-.12,1,1.86.77,2-.13.19-1.51.77-3.46,2.63-3.37a3.88,3.88,0,0,1,3.16,1.89.84.84,0,0,1-.19,1.09,2,2,0,0,1-2.89-.08,4.54,4.54,0,0,1-.35-5c.57-.93-1.4-1-1.86-.24Z"/><path class="cls-6" d="M180.75,345.87c-1.63,1.82-.42,5.73,1.62,6.76s5.86-.21,6-2.85a5.17,5.17,0,0,0-4-4.85c-3.39-.72-5.4,2.18-6.11,5.08-.15.61,1.78.3,1.92-.28.39-1.57,1.21-4.52,3.31-3.73a4.85,4.85,0,0,1,2.88,3.63,2.22,2.22,0,0,1-.64,2c-.85.77-1.85.22-2.52-.49-1.09-1.15-1.88-4-.69-5.32.5-.56-1.41-.38-1.78,0Z"/><path class="cls-6" d="M175.94,352.29c-1.08,1.26-2.26,3.07-1.32,4.73.71,1.27,2.38,1.72,3.73,1.76,4,.14,7.33-2.58,6.66-6.76,0-.15-.25-.2-.36-.22-2.66-.35-5.51-.35-7.87,1.06s-2.8,4.29-2.53,6.89c.06.54,2,.13,1.94-.51-.37-3.42.64-6.44,4.47-6.66a14,14,0,0,1,2.33.11c.39,0,.16,1.72.13,1.93a3.75,3.75,0,0,1-6,2.47c-1.79-1.32-.48-3.56.61-4.83.5-.58-1.41-.39-1.77,0Z"/><path class="cls-6" d="M190.35,341.76c-.67,1.79-.89,3.8.33,5.41s3.22,1.54,4.87,1.14c2-.48,5.38-2.6,4-5.07-1-1.89-3.73-2.46-5.69-2.23-3.07.37-4.93,2.77-5.23,5.74-.09.94,1.87.64,1.95-.18.18-1.82.91-3.69,2.84-4.19a4.39,4.39,0,0,1,3.9,1.06c1.2,1.2.21,2.45-1,3.14s-2.85,1-3.93-.23-.77-3.07-.27-4.42c.38-1-1.55-.92-1.83-.17Z"/><path class="cls-6" d="M187.14,349.8c-1.15,1.83-1.24,4.48.67,5.84s5.46.27,6.41-2c.8-1.89-.6-3.73-2.32-4.4-2.55-1-5.05.91-6.36,2.92-.55.84,1.42.77,1.82.14.84-1.28,2.11-2.56,3.7-1.72a2.58,2.58,0,0,1,1.33,2.92,2.05,2.05,0,0,1-3.54.63c-1-1.16-.63-3.05.12-4.23.53-.85-1.43-.77-1.83-.14Z"/><path class="cls-6" d="M183.29,357c-2.09,1.53-2.56,5.6-.57,7.38,1.16,1,3,.63,4.33.19a3.7,3.7,0,0,0,2.61-3.14,5,5,0,0,0-1.26-3.94,4.18,4.18,0,0,0-4.17-.87,4.44,4.44,0,0,0-3.55,3.21,4.68,4.68,0,0,0,1.66,4.84c.49.36,2.23-.4,1.81-.71-1.7-1.24-2.73-5.65,0-6.47,2.42-.72,3.75,2.26,3.59,4.23-.18,2.26-2.79,3.29-3.91,1-.78-1.58-.54-4.45,1-5.55.85-.62-1.1-.5-1.51-.2Z"/><path class="cls-6" d="M188.69,364.57c0,.33-1.12,1.32-.74,1.67a4.94,4.94,0,0,0,2.12,1.23,5.49,5.49,0,0,0,4.09-.68c2.7-1.69,2.42-5.76-.12-7.51-2-1.36-4.95-.13-6.45,1.38s-1.91,4,.48,4.83c.43.16,2.17-.55,1.58-.76-3.18-1.15-.22-6.27,2.41-4.89,2,1,2.61,4,1.62,5.86a1.8,1.8,0,0,1-2.59.82c-.42-.18-1.41-.66-1.15-1.25s.61-.62.69-1.22c0-.25-1.86-.08-1.94.52Z"/><path class="cls-6" d="M192.77,354.66c-1.93,2.8,1.14,4.8,3.78,4.76,2.81-.05,6-2.78,4.17-5.71s-6.33-2.56-8.38,0a3.79,3.79,0,0,0-.86,3.66c.49,1.42,2.07,1.88,3.42,1.93.74,0,2.06-1.07.75-1.11-2.11-.07-2.94-2-2-3.77,1.18-2.19,3.78-2,5.13-.11a2.52,2.52,0,0,1-2,4c-1.94-.08-3.4-1.85-2.2-3.6.51-.73-1.44-.57-1.8,0Z"/><path class="cls-6" d="M197.51,348.35c-.61,2.95,2.67,4.53,5.14,3.94,2.66-.65,4.46-4.39,2.77-6.73-1.29-1.79-4.15-1.11-5.7-.14-2.2,1.38-2.24,3.88-.52,5.66.57.59,2.4-.17,1.78-.82-1-1.08-1.6-2.49-.45-3.69a2.31,2.31,0,0,1,2.84-.47c1.56,1,.5,4-.69,4.81-1.65,1.15-3.54-1.21-3.22-2.73.18-.9-1.79-.63-2,.17Z"/><path class="cls-6" d="M205.56,346.84c-.59,1.89-.41,4.7,2.15,4.62,1.44,0,4.12-.78,3.35-2.71a3.6,3.6,0,0,0-3.63-2c-2.45.26-3.73,1.8-4.28,4.12-.08.35,1.79.09,1.9-.36a7.19,7.19,0,0,1,.91-2.31,2.76,2.76,0,0,1,.58-.65,1.17,1.17,0,0,1,.26-.17c-.4.19-.26.07,0,.1A3.29,3.29,0,0,1,209,349c.41.68.39,2.08-.76,1.56-1.41-.63-1.15-3-.79-4.11.09-.31-1.76-.1-1.9.36Z"/><path class="cls-6" d="M203.45,351.82c-2.56,1.85-2.79,6.24.54,7.38,2.14.73,5.24-.24,4.68-2.94a5.87,5.87,0,0,0-4.42-4.2c-3.44-.66-4.76,3.28-5.14,5.9-.15,1,1.83.76,2-.14.16-1.14.61-4.49,2.38-4.34,1.33.11,2.44,1.45,3,2.54s.37,2.06-1.05,1.91c-2.63-.27-2.36-4-.68-5.2,1.07-.77-.5-1.48-1.29-.91Z"/><path class="cls-6" d="M198.39,360.29c-1.53,2.53-.11,4.74,2.64,5.26,1.31.26,3.71,0,3.32-1.89-.34-1.66-2.23-2.79-3.75-3.1-2.49-.5-4.76,1.08-6.22,2.94-.52.66,1.42.49,1.79,0,1-1.22,2.15-2.34,3.79-1.79a4.38,4.38,0,0,1,2.16,1.75,2.26,2.26,0,0,1,.35,1,.59.59,0,0,1-.05.29l.46-.18a4.72,4.72,0,0,1-1.06-.12c-2.08-.4-2.63-2.51-1.64-4.16.46-.75-1.48-.53-1.79,0Z"/><path class="cls-6" d="M196,367.91c.44.47.64,1.12,1.15,1.53a3.32,3.32,0,0,0,3.11.21c.25-.07.84-.29.84-.64v-1.6c0-.27-.16-.38-.4-.45a3.14,3.14,0,0,0-3,.32c-.56.45-.72,1.16-1.38,1.51-.3.16-.54.61-.15.82a1.49,1.49,0,0,0,1.37-.16,3.53,3.53,0,0,0,1.34-1.29,3.64,3.64,0,0,1,.31-.44c-.11.1-.64.16-.29.18a2.76,2.76,0,0,1,.64.18c-.12-.15-.4-.31-.4-.46v1.61c0-.22.57-.43.84-.64-.55.17-.9.25-1.3-.21s-.51-.88-.86-1.26c-.5-.53-2.34.2-1.78.79Z"/><path class="cls-6" d="M148,127.66c2.67-3.2,10.28-.72,13.59.09s6.41,1.83,9.61,2.76c.54.16,2.28-.67,1.55-.88-5.61-1.64-11.16-3.46-17-4.2-3.2-.41-7.32-.46-9.57,2.24-.51.61,1.42.43,1.79,0Z"/><path class="cls-6" d="M147.86,129.18c5.36-.82,10.6-2.3,16-2.4,1.11,0,1.48-1.46.16-1.44-5.45.11-10.67,1.58-16,2.41-1.06.16-1.48,1.63-.17,1.43Z"/><path class="cls-6" d="M146.71,124.79c5.67-2.19,11.79-1.32,17.3.9.53.21,2.3-.57,1.56-.87-6.3-2.54-13.18-3.18-19.59-.7-1.27.49-.1,1,.73.67Z"/><path class="cls-6" d="M150.6,112.29a13.85,13.85,0,0,0,6.09.87c1.13,0,1.47-1.48.16-1.48a11.64,11.64,0,0,1-5.14-.74c-.85-.39-2.23.82-1.11,1.35Z"/><path class="cls-6" d="M150.77,101.34H162c.67,0,2.07-1,.77-1H151.54c-.67,0-2.07,1-.77,1Z"/><path class="cls-6" d="M150,104.25c4.52,0,8.78-.29,12.8-2.54,1.15-.65.1-1.55-.83-1-3.56,2-7.27,2.26-11.27,2.26-.86,0-2,1.31-.7,1.31Z"/><path class="cls-6" d="M154,94.34h5.62c.45,0,1,0,1.27-.44s-.2-.56-.55-.56h-5.62c-.45,0-1,0-1.26.44s.19.56.54.56Z"/><path class="cls-6" d="M154.54,92a13.73,13.73,0,0,0,8.72-3.67c.4-.38-1.42-.16-1.75.15a9.32,9.32,0,0,1-5.72,2.75,2.83,2.83,0,0,0-1.36.37c-.3.18-.27.41.11.4Z"/><path class="cls-6" d="M156.93,81.68a5.21,5.21,0,0,1,1.53-3c.32-.34-.27-.46-.49-.45a1.86,1.86,0,0,0-1.28.49A5.83,5.83,0,0,0,155,82.2c0,.45,1.9.15,1.93-.52Z"/><path class="cls-6" d="M163.6,75.2c.63,0,2.08-1,.78-1-.63,0-2.08,1-.78,1Z"/></svg>