<svg id="layer1" xmlns="http://www.w3.org/2000/svg" viewBox="0 0 493.23 263.48"><defs><style>.cls-1{fill:#293b68;}.cls-2{fill:#492d0c;}</style></defs><path class="cls-1" d="M319.35,184.06c.35-7,1-15.22-1.05-22.25-3-10-15.33-5.07-16.37,5.46l-1.32-.29c.27,0,.35-.07-.77-.49-10.45-2.73-19.86-1.56-25.43,9.76-6.12,12.44-3.13,32.4,5.57,42.94,4.88,5.86,11.15,10.93,17.77,5.47,2.09-1.57,5.85-8.83,8.36-7.42,2.09,1.17-1.05,9,5.92,9,7.48,0,7.32-12.49,7.32-16.79C319.35,202,319,191.48,319.35,184.06ZM305,198.79c-.85,6.2-5.65,15.56-14.07,11.3-5.59-3.22-7-12.36-7.44-18.27-.56-9.83,9.63-19.12,18.55-10.12l0,.39C305,186.66,305.31,193.74,305,198.79Z"/><path class="cls-2" d="M320.33,184c.38-7.34,3.32-25.37-6.52-28.12-6.84-1.91-12,5.82-12.86,11.49l1.54-.72-1.32-.29c0,.4-.09.8-.13,1.2l.13-.08c.51-.3.83-.89.14-1.2a23.69,23.69,0,0,0-19.58.65c-6.62,3.45-9.74,11.26-11,18.19-1.59,8.83.08,18.36,3.55,26.53,2.9,6.82,8.62,14.38,16.22,16,3,.63,6.24-1.06,8.4-3,.79-.71,6.52-8.65,7.07-5.24.8,5,2,8.68,8.09,7.18,5.27-1.3,5.95-9,6.2-13.26.56-9.75-.33-19.56.07-29.33,0-1-1.93-.7-2,.16-.3,7.48-.09,15,0,22.45.05,5.19.29,10.68-1.75,15.56s-7.86,3.8-8.51-1c-.16-1.2.12-3.24-.91-4.14-2.37-2.09-5.24,1.39-6.57,3-3.39,4.1-6.83,8.09-12.93,5-3.78-1.92-6.76-5.83-9.05-9.3-4.28-6.49-6.08-14.66-6.45-22.33s1.35-15.54,6.12-21.65c4.89-6.27,14.9-7.26,21.88-4.15,0-.4.09-.8.13-1.2l-.13.08c-.41.24-.93,1-.14,1.2l1.32.3c.54.12,1.44,0,1.54-.72.92-6.4,9.56-15.4,14-6.26,3.27,6.7,1.8,16,1.43,23.2C318.32,185.13,320.28,184.84,320.33,184Z"/><path class="cls-2" d="M304,198.87c-1.16,7-7.5,16.42-14.79,8.59-3.84-4.12-4.73-11.66-4.78-17.05a13.7,13.7,0,0,1,3.73-8.89,8.13,8.13,0,0,1,8.38-2.38c.2.05,4.55,2,4.49,2.83-.11,1.54,1.71,4,2.18,5.62a34.21,34.21,0,0,1,.79,11.28c-.06,1,1.91.71,1.95-.15.46-8.24-.11-18.79-9.51-21.18-7.78-2-13.38,6.38-14,13-.66,7.56,2.31,18.8,10.41,21.09,7.6,2.15,12.08-7,13.06-12.93C306.09,197.76,304.12,198,304,198.87Z"/><path class="cls-1" d="M217.14,184.2c.35-7,1.05-15.23-1-22.25-3-10-15.33-5.08-16.38,5.46l-1.31-.29c.26,0,.35-.07-.78-.49-10.45-2.73-19.85-1.56-25.42,9.76-6.13,12.44-3.14,32.4,5.57,42.94,4.88,5.85,11.15,10.93,17.76,5.46,2.09-1.56,5.85-8.82,8.36-7.42,2.09,1.18-1,9,5.93,9,7.48,0,7.31-12.49,7.31-16.78C217.14,202.15,216.79,191.61,217.14,184.2Zm-14.39,14.73c-.85,6.19-5.65,15.56-14.06,11.3-5.59-3.23-7-12.36-7.45-18.27-.56-9.84,9.63-19.13,18.55-10.12l0,.39C202.77,186.8,203.1,193.87,202.75,198.93Z"/><path class="cls-2" d="M218.12,184.12c.38-7.34,3.33-25.37-6.52-28.12-6.83-1.91-12,5.82-12.85,11.49l1.53-.72-1.31-.3c-.05.4-.09.8-.14,1.21l.14-.08c.51-.3.82-.9.13-1.21a23.73,23.73,0,0,0-19.58.66c-6.61,3.45-9.74,11.26-11,18.19-1.6,8.82.07,18.36,3.55,26.53,2.9,6.82,8.62,14.38,16.22,16,3,.64,6.23-1.06,8.39-3,.8-.71,6.53-8.66,7.08-5.24.79,5,2,8.68,8.09,7.18,5.27-1.3,5.95-9,6.19-13.26.56-9.75-.32-19.57.07-29.33,0-1-1.92-.71-2,.15-.3,7.48-.09,15,0,22.46,0,5.19.3,10.68-1.74,15.56s-7.87,3.8-8.51-1c-.16-1.2.11-3.23-.92-4.13-2.37-2.09-5.23,1.39-6.57,3-3.38,4.1-6.82,8.09-12.93,5-3.77-1.91-6.76-5.82-9-9.29-4.27-6.49-6.08-14.67-6.45-22.33s1.36-15.55,6.13-21.66,14.9-7.26,21.87-4.14c.05-.4.09-.8.14-1.2l-.14.08c-.4.23-.93,1-.13,1.2l1.31.29c.55.13,1.44,0,1.54-.72.92-6.39,9.56-15.39,14-6.25,3.27,6.7,1.81,16,1.43,23.19C216.11,185.27,218.08,185,218.12,184.12Z"/><path class="cls-2" d="M201.77,199c-1.16,7-7.49,16.42-14.79,8.59-3.83-4.12-4.73-11.66-4.77-17a13.67,13.67,0,0,1,3.73-8.9,8.13,8.13,0,0,1,8.37-2.37c.2.05,4.55,2,4.49,2.83-.11,1.53,1.71,4,2.19,5.61a34.55,34.55,0,0,1,.78,11.29c-.05,1,1.91.7,2-.16.46-8.23-.12-18.79-9.51-21.17-7.79-2-13.38,6.38-14,13-.66,7.55,2.31,18.8,10.41,21.09,7.6,2.14,12.08-7,13.07-12.94C203.89,197.89,201.92,198.15,201.77,199Z"/><path class="cls-1" d="M252.89,62.3c-7.22,1.6-4.17,77.49-4.07,81,.54,21.08-1.57,71.82,3.12,80,4.68,7.81,10.15,2.73,12.1-3.9,1.95-9.76,1.3-44.27,1.69-52.86.39-9.37,3.21-97.06-7.22-105.08C257.39,60.64,252.89,62.3,252.89,62.3Z"/><path class="cls-2" d="M252.73,61.7c-2.81.88-3.27,5.07-3.71,7.49-1.23,6.7-1.42,13.63-1.65,20.42-.52,15.37-.23,30.79.22,46.16.41,13.85.28,27.67.24,41.52,0,9.83,0,19.68.51,29.5.31,6,.17,13.22,3.66,18.35,4.88,7.2,12.09-.83,13.12-6.38,1.59-8.53,1.21-17.65,1.32-26.28.16-12.6.32-25.19.62-37.78.39-16.46.44-32.93-.15-49.38-.29-8-.76-16.08-1.67-24.08-.64-5.65-1.36-11.64-3.63-16.91-1.85-4.3-4.68-4.13-8.88-2.63-1.13.4-.84,1.61.33,1.2,3.22-1.15,5.2-1.11,6.62,1.95a34.38,34.38,0,0,1,2.17,7.4,157.65,157.65,0,0,1,2.55,21.89c1.15,17.51,1.13,35.1.87,52.63-.17,11.24-.63,22.47-.69,33.71,0,10-.06,20-.59,30-.21,3.85-.31,7.82-1.82,11.41-.94,2.22-3.33,5.79-6.61,4.14a8.27,8.27,0,0,1-3-3.68,17.6,17.6,0,0,1-1-3.78c-3.21-16.25-1.81-34-1.71-50.44.07-11.08,0-22.12-.3-33.19-.39-13.52-.6-27-.33-40.58.13-6.64.38-13.29,1-19.9.18-1.8.47-10.83,2.83-11.57C254.21,62.53,253.91,61.33,252.73,61.7Z"/><path class="cls-1" d="M226.64,171.08c.24-1.21-.78,11.71-.78,16.79-.39,5.46,0,27.32,1.56,32.4,1.17,4.68,4.41,7.56,9.76,4.68,5.07-2.73,3.51-34,3.51-42.94.39-5.46.78-12.49-5.07-15.61C233.66,165.23,227.42,167.18,226.64,171.08Z"/><path class="cls-2" d="M227.56,171.19l0-.08-1.89.15c.46,5.51-.51,11.7-.85,17.23a181.54,181.54,0,0,0,.33,21.25c.3,5.27.1,12.19,4.38,16,3.11,2.76,8.68.51,10.15-2.93,2.32-5.44,2-12.42,2.13-18.2.16-6.91-.05-13.82-.16-20.72-.1-6.71,1.27-13.9-5.32-18-3.65-2.29-9.52,1.67-10.64,5.13-.35,1.06,1.58,1,1.84.21,2-6.11,8.83-4.88,11.26.06,1.42,2.9,1.15,6.53,1,9.65-.22,4.11,0,8.26.1,12.37.14,9.25,1.46,21.13-2.26,29.85-2.82,6.63-8.48-.34-9.38-3.62a33.81,33.81,0,0,1-.8-5.67c-.59-6.16-.71-12.39-.75-18.58-.06-8.07,1.6-16.52.93-24.5-.07-.81-1.69-.41-1.89.15l0,.08C225.35,172,227.28,172,227.56,171.19Z"/><path class="cls-1" d="M229.76,137.12c-1.95,1.57-2.73,8.59-2.34,10.54.78,4.69,7.41,8.2,10.93,4.3,2.34-2.73,3.12-8.59,1.56-12.1-1.17-2.74-5.86-5.47-9-3.9Z"/><path class="cls-2" d="M229,136.86c-2.71,2.66-3.34,9-2.11,12.43,1.42,3.94,7.34,6.67,11,4,4.22-3,4.92-10.15,2.62-14.52s-8.29-5.16-11.5-1.95c-.86.85,1,1.12,1.6.53,3.24-3.23,7.93.86,8.89,4.24,1,3.72-.09,11.57-5.21,11.29-3.69-.21-6-3.93-5.93-7.27.05-2.53.36-6.4,2.25-8.26C231.42,136.55,229.55,136.28,229,136.86Z"/><path class="cls-1" d="M435,186.69c-1-14-1-131.48-10.15-130.51-4.83.5-14.46-1.91-5.57,110.43l-4.45,0c.27,0,.35-.06-.77-.48-10.45-2.73-19.86-1.56-25.43,9.76-6.12,12.44-3.13,32.39,5.57,42.93,4.88,5.86,11.15,10.93,17.77,5.47,2.09-1.56,5.85-8.83,8.36-7.42,2.09,1.17-1.05,9,5.92,9,7.48,0,8.75-8.73,8.75-13C435,205.37,435.51,194.09,435,186.69Zm-15.82,11.7c-.85,6.19-5.65,15.56-14.07,11.3-5.58-3.23-7-12.36-7.44-18.27-.56-9.84,9.63-19.13,18.55-10.12l0,.38C419.19,186.25,419.53,193.33,419.18,198.39Z"/><path class="cls-2" d="M436,186.43c-1.81-27.53-1.13-55.24-2.55-82.8-.69-13.5-1.14-27.42-4-40.68-.83-3.89-1.67-8-6.25-7-6.55,1.36-7,11.69-7.58,16.74-1.16,10.74-1,21.65-.77,32.44.44,20.61,1.89,41.21,3.5,61.77l1.35-.77-1.75,0H416.1c-.68-.21-.86,0-.54.67.24-.14.6-.5.18-.69a24.53,24.53,0,0,0-18.72.13c-6.8,2.94-10.31,10.41-11.81,17.23-1.92,8.75-.45,18.3,2.75,26.55,2.52,6.47,8.9,16.7,16.71,17.07a12,12,0,0,0,8.07-2.65c1-.72,6.26-8.26,7.19-6.57,1.07,1.95-.09,4.62,1.38,6.52s3.71,2.21,6,1.89c5.67-.78,7.9-6,8.54-11.11,1.14-9.23.68-19.42.13-28.68,0-.56-2-.18-1.93.51.43,7.28.16,14.58,0,21.86a56.77,56.77,0,0,1-.44,8.45c-.7,4.23-4.89,11.23-10.06,7-2.34-1.94.08-7.07-3.08-8-2.65-.78-5.16,2.9-6.44,4.53-.64.81-1.26,1.64-1.91,2.44-3.55,4.35-9,2.54-12.55-.16a31.53,31.53,0,0,1-7.34-8.71c-3.63-6-5.26-13.2-5.8-20.12a35.4,35.4,0,0,1,4.54-21,16.28,16.28,0,0,1,9.74-7.39,20.82,20.82,0,0,1,7.59-.26c1.34.14,4.75,1.44,5.91.76-.54.31-.42.75.21.75l4.44,0c.4,0,1.4-.21,1.35-.77-1.89-24.06-3.59-48.2-3.63-72.34,0-10.15-.19-21,2.51-30.92.67-2.45,2-6,4.41-6.3,4.42-.64,5.12,13.17,5.48,16,4.86,37.87,2.52,76.16,5,114.15C434.07,187.51,436,187.12,436,186.43Z"/><path class="cls-2" d="M418.21,198.52c-1.06,6.38-6.32,16-14,9.43-4.16-3.57-5-10.61-5.49-15.72a14.93,14.93,0,0,1,2.19-9.47,9,9,0,0,1,8.57-4.48c1,.11,5.86,2,5.76,3.34s1.75,4.11,2.17,5.56a34.61,34.61,0,0,1,.8,11.34c0,.74,1.9.33,1.93-.26.47-8.43-.29-20-10.66-21.1-7-.77-12.84,6.76-12.79,13.18.06,7.87,2.08,19.68,11.54,20.91,7,.91,11-7.36,11.91-13C420.25,197.57,418.31,197.91,418.21,198.52Z"/><path class="cls-1" d="M330.77,223.43c-10.49-11,.18-30.43.18-44.25,1.29-10.06,0-23.05,8.7-22.11,4.81.52-2.43,8.47,5.32,8.47,6.46,0,16.8-7.45,24.54-4.94,12.92,3.77,18.18,58.39,6.56,64.67-16.79,6.28-10.34-31.82-10.63-38.1-1-21.76-22.89-16-20,21.17C346.35,219.84,340.13,233.27,330.77,223.43Z"/><path class="cls-2" d="M331.67,223.08c-8.48-9.67-3.08-23.86-.84-34.92a122.53,122.53,0,0,0,1.66-15.64c.2-2.66.8-18.58,7.5-14.63,1.65,1-.6,5.59,1.22,7.34,2.08,2,7.15.25,9.33-.44,5.88-1.84,12.35-5.76,18.64-3.62,2.77.94,4.55,4.17,5.79,6.56,3.6,7,5,15.23,5.89,22.94,1,8.31,1.16,17-.55,25.2a18.79,18.79,0,0,1-3.25,7.84c-3.16,4-7.75,1-9.42-2.4-3.08-6.2-2.36-14.56-2-21.23.31-6.42,3.23-30.71-10.28-25.55-6.53,2.49-9,10.36-10.19,16.56s-.9,12.59-.57,18.89a27.42,27.42,0,0,1-1.68,10.5,12.06,12.06,0,0,1-3.39,5.11c-2.73,2.38-6.06-.81-7.82-2.51-.41-.4-2.21.31-1.8.7,5.34,5.17,11.14,4.1,14.46-2.48,2.3-4.55,2.31-10,2-14.91a60.75,60.75,0,0,1,1.5-19c1.27-5.05,6.78-17,13.26-10.53,4.22,4.25,3.47,11.53,3.06,16.95-.58,7.56-4.28,31.75,7.76,32.57,12.57.86,11.77-20,11.54-27.87-.34-11.29-1.87-24.9-8.39-34.5-2.39-3.51-6-4.87-10.27-4.34a49.27,49.27,0,0,0-10.95,3.07c-4.36,1.61-12.49,4.8-11.5-2.51.52-3.83-3-4.53-6.05-3.13-5.9,2.69-5.39,11.59-5.78,17-.67,9.22-2.5,17.92-4.26,27-1.53,7.87-2,16.3,3.65,22.68C330.24,224.21,332.07,223.53,331.67,223.08Z"/><path class="cls-1" d="M113.71,225.73c-10.48-11-4.81-31.9-4.81-45.72,1.29-10-.77-117,7.82-118.72,20.05-4,4.48,105.88,12.23,105.88,6.46,0,13.82-8.08,21.56-5.57,12.92,3.77,18.18,58.39,6.56,64.67-16.79,6.28-10.34-31.82-10.63-38.1-1-21.76-22.89-16-20,21.17C127.35,220.84,123.08,235.57,113.71,225.73Z"/><path class="cls-2" d="M114.61,225.38c-8.17-9.18-6.49-22.8-5.48-34.09.5-5.56.85-11.13,1-16.71.42-13.69.35-27.39.56-41.09.26-16.89.58-33.82,2-50.66a107.37,107.37,0,0,1,2.27-16.57c.78-3.2,2.1-6.38,5.43-3.13,3.11,3,3.88,8.54,4.55,12.58A144.82,144.82,0,0,1,126.47,96c.37,15.5-.37,31-.73,46.49-.13,5.79-.25,11.59.07,17.37.11,1.91-.07,6.31,1.84,7.57,1.26.83,3.94-.15,5.16-.6,5.7-2.12,13.12-8,19-3.7,5.21,3.83,7,12.46,8.37,18.34a100.42,100.42,0,0,1,2.29,25.7c-.19,5.24-.62,18-7.49,19.28-12.57,2.42-8-30.46-7.62-36.47.28-4.82-.66-11.28-5.12-14.08-3-1.86-7-.48-9.34,1.71-5.57,5.17-7.17,13.85-7.55,21.08-.32,6.23.62,12.44,0,18.65a27.78,27.78,0,0,1-1.7,7,11.08,11.08,0,0,1-1.9,3.14c-2.31,2.79-5.6-.57-7.12-2.05-.41-.4-2.21.31-1.8.7,4.77,4.65,9.92,4.13,12.74-2.08,1.88-4.15,2.07-9.15,2-13.63-.19-6.69-.52-13.11.78-19.74.95-4.85,5.78-18.84,13-13.46,4.69,3.49,4.34,11.08,4,16.24-.53,7-1.07,14-.47,21,.38,4.34,1.51,12,6.92,12.86,12.92,2.16,12.86-17.52,12.79-25.66a98.16,98.16,0,0,0-3.55-25.39c-1.41-5-3.63-12-8.6-14.63-2.65-1.42-5.85-1-8.63-.32s-12.89,7-14.58,5.13c-1.89-2.09-1.41-7.38-1.49-9.91-.45-14,.5-28.09.76-42.11s.78-28.65-2.13-42.45c-.74-3.52-5.1-15.83-11-10.3-2.23,2.07-2.57,6.39-3,9.18a185.06,185.06,0,0,0-1.88,18.51c-2,29.44-.83,58.94-2.17,88.38-.68,15-6.41,35.91,4.69,48.37C113.18,226.51,115,225.83,114.61,225.38Z"/><path class="cls-1" d="M100.25,198.43c-2.46-28.55-1.57-52.83-4.86-81.39-1.64-12.59,0-37.7,0-55.35,0-13.84,22.1-9,32.89-9.62,15.61-.84,28.66-9.83,20.45-22.43-7.4-11.75-25.47-9.23-37.8-9.23-25.47,0-50.93,1.68-76.4,1.68-11.51,0-20,.44-26.58,12.19C3.85,41.84,4.15,55,20.79,55H52.07C63.31,55,67.32,91.9,67.32,112.9c.82,25.19.8,44.61.8,69.85,0,21.66,5.84,37.48,11.59,42.52,10.06,8.81,21.36-.82,21.36-23.5Z"/><path class="cls-2" d="M101.22,198.17c-1.34-15.88-1.73-31.8-2.4-47.71-.58-13.91-2.49-27.72-3-41.6-.52-12.78.23-25.62.5-38.4C96.37,65.68,95,58.91,99,55.35c3.51-3.12,9.65-2.91,14-2.92,9.11,0,18.15,1.42,26.91-2,7.54-2.93,14.27-8.76,11.54-17.51-2.89-9.25-12.8-12.41-21.41-13.23-12-1.14-24.67-.06-36.71.21-16.32.36-32.64,1.11-49,1.37-10,.16-21.41-1.4-30.16,4.48C8.05,29.94,4,38,5,45.46,6.08,54.24,15.29,56,22.58,56h22c5.93,0,9.83-.7,13.13,4.65,5.06,8.2,6.14,19.43,7.26,28.77,1.46,12.3,1.47,24.72,1.76,37.08.36,14.93.41,29.88.43,44.82,0,13.29-.06,26.34,3.65,39.22,2,7,5.27,14.72,12.27,17.9C88.57,231,94,227.53,97,223c4.63-6.75,6.09-17.07,4.18-24.87-.22-.9-2.16-.39-1.93.52,2.11,8.63.12,23.53-8.56,28.32-9.71,5.36-16-10.62-18-17-4.45-14.35-3.61-29.57-3.63-44.39,0-15-.17-30-.56-44.91-.3-11.09-.5-22.13-1.81-33.16-1.09-9.11-2.58-18.81-6.85-27s-12.55-6-20.63-6c-7.34,0-15.1.68-22.38-.33A11.3,11.3,0,0,1,6.75,43.4C6,31.46,17.27,23.75,27.89,23c15.13-1.14,30.56-.53,45.74-1,14.8-.49,29.61-.56,44.41-.95,11.73-.32,26.32-.24,31.52,12.47,5.77,14.07-16.36,18.15-25.46,17.92-7.43-.19-16.22-1.71-23.28,1.33-8.55,3.68-6.4,13.27-6.58,21-.29,12.59-.95,25.22-.32,37.82.72,14.23,2.52,28.4,3.09,42.67.6,14.84,1,29.68,2.28,44.48C99.36,199.59,101.3,199.12,101.22,198.17Z"/></svg>