<svg id="layer1" xmlns="http://www.w3.org/2000/svg" viewBox="0 0 190.39 365.29"><defs><style>.cls-1{fill:#c1bcd8;}.cls-2{fill:#21acf9;}.cls-3{fill:#492d0c;}.cls-4{fill:#e8accf;}.cls-5{fill:#c928c9;}</style></defs><path class="cls-1" d="M155.4,163.57a17.66,17.66,0,0,0,5.9.77,2.41,2.41,0,0,0,.53-.07c5.07,1.63,11.31-3.74,12.74-8,2.87-8.64-.31-23.53-9.17-27.76-3.92-5-9.82-9.17-14.29-12.44a43.1,43.1,0,0,1-9.78-9.47,57.23,57.23,0,0,0-5.85-7.32,80,80,0,0,0-7.12-6.16c-1.32-2.22-2.71-4.41-4.07-6.59-2.92-4.71-5.94-9.65-9.69-13.84a3.7,3.7,0,0,0-.93-2.11,33.38,33.38,0,0,0-11-8.68,3.34,3.34,0,0,0-.44-.17,25.46,25.46,0,0,0-2.57-2.29A3.57,3.57,0,0,0,98,58.23c-3.65-2.26-7.55-4.3-12-4.11a2.4,2.4,0,0,0-.28,0c-.47,0-1-.08-1.44-.08h-.15a25.94,25.94,0,0,0-13-1.18c-4,.7-9.67,1.11-13.23,3.76a17.29,17.29,0,0,0-9.08,6.79,17,17,0,0,0-2.83,8.19A17,17,0,0,0,45.37,77a29.94,29.94,0,0,0,3.38,12.65,36.16,36.16,0,0,0,8.32,13.21,3.76,3.76,0,0,0,.65.5s0,.08,0,.12A4.42,4.42,0,0,0,60.58,106a8,8,0,0,0,1.05,1.48,10,10,0,0,0,2.71,4,3.48,3.48,0,0,0,.46.57,5.45,5.45,0,0,0,1.08.83c.25.12.92.58.11-.09a3.62,3.62,0,0,0,4.7.29,110.64,110.64,0,0,0,22.63,11.27,28.89,28.89,0,0,0,8.32,3.8,3.56,3.56,0,0,0,2.62-.34c3.42,2.18,6.88,4.31,10.07,6.79a134.58,134.58,0,0,1,11,10.1,79.7,79.7,0,0,0,13.52,10.88L141,156.9a48.64,48.64,0,0,0,6.87,4A28.41,28.41,0,0,0,155.4,163.57Zm-6.13-27.91c.47.48.94,1,1.4,1.46-.94-.78-1.84-1.58-2.73-2.38l.14-.06ZM115.21,84.81c-.33-.2-.68-.4-1-.58-5.82-3-15.52-3.1-21.61-1a3.85,3.85,0,0,0-1.38.83c-.93-.12-1.85-.24-2.78-.4C84.64,83,81,82.9,78,85.6l-.16.17a5.39,5.39,0,0,0-1,.83,3.31,3.31,0,0,0-1.67,2.11,2.64,2.64,0,0,0-2,2.93c0,.31,0,.72,0,.71h0a2.09,2.09,0,0,1,.1.21,15.16,15.16,0,0,0,1.65,4.65,108.68,108.68,0,0,0,4.06,11c-4.44-3.42-8-7.58-12.31-11.14,0,0-.1-.05-.15-.09s0-.18,0-.27a8.23,8.23,0,0,0-.27-1.6,3.7,3.7,0,0,0,.26-2,19.76,19.76,0,0,0-1-4,2.86,2.86,0,0,0,.21-2.35C65,84.81,63.86,82.29,64,80.05a2.63,2.63,0,0,1,.5-1.49C69.67,78,76,77.39,76.69,77.24c8.56-1.86,17.23-4.74,26.07-4.38.94.44,1.89.88,2.86,1.26a2.44,2.44,0,0,0,.34.14l.05,0h.06c.3.17.61.33.92.49A43.4,43.4,0,0,1,115.21,84.81Z"/><path class="cls-2" d="M113.49,78.22a54.63,54.63,0,0,0-10.67-3.65c-.49-.17-1-.22-1.5-.38,0,0,0,.23,0,.24h0c-.14,0-.23.13-.3.51-5.39-1.56-11.38-.41-16.65,1.74a47.53,47.53,0,0,1-6.91,1.4c-.11,0-.18.1-.25.24-4.12-.11-8.22.11-11.89,2a3.8,3.8,0,0,0-3.32.8.92.92,0,0,0-.23.44,2.19,2.19,0,0,0-.22,1.61c.76,1.74,1.62,3.42,2.48,5.09a8.34,8.34,0,0,0,.75,1.91c.08.52.18,1,.3,1.54,0,0,0,0,0,0A37.13,37.13,0,0,0,65.88,96a1.56,1.56,0,0,0-.19,1c.21,1,.45,1.92.69,2.87.3,1.21.59,2.42.89,3.64L67,103c-.43-1-1,.69-.82,1.18s.29,1,.43,1.44.27.51.42.47a53.72,53.72,0,0,0,4,7,26.81,26.81,0,0,0,1.19,3.35,4.18,4.18,0,0,0,2.26,2.41,7.54,7.54,0,0,0,.61.67A10.21,10.21,0,0,0,76.27,121c.13.22.26.45.41.67.72,4,7.72,6.36,10.65,7.55,1.43.57,2.9,1.11,4.38,1.59l.22.12a.32.32,0,0,0,.27.05,42.37,42.37,0,0,0,5.11,1.27,41,41,0,0,0,6.77.43l1.42.11c1.24.3,2.48.57,3.73.81a.37.37,0,0,0,.18.15A26.58,26.58,0,0,0,120,135c1.46.13,2.92.23,4.39.3.65,0,.75-1.76.21-2a28.31,28.31,0,0,0-5.9-1.41c-5.41-1.72-11.75-3.85-17.27-2.24a.65.65,0,0,0-.36.46,52,52,0,0,1-9.07-1.7,20.6,20.6,0,0,0-5.6-5.11c-1-.85-2-1.66-3-2.42a22.84,22.84,0,0,0-3-6.58A55.64,55.64,0,0,0,77.76,109a26.85,26.85,0,0,0-3.94-9.94,12.81,12.81,0,0,0-2.3-5.67A1.49,1.49,0,0,0,71.7,93a4.87,4.87,0,0,0,0-1.58,6.24,6.24,0,0,0-.09-2.85,4.5,4.5,0,0,0,1.22.14c.51,0,.37-1.41.3-1.7a4.53,4.53,0,0,0-.22-.65,2.43,2.43,0,0,0,.35-.2.61.61,0,0,0,.14-.17c1.7-.58,3.39-1.18,5.14-1.62.24-.06.37-.52.4-1,3.06-.17,6.08-.74,9.15-1.1,4.1-.48,8.12.64,12.18-.34.11,0,.2-.14.27-.3a30,30,0,0,0,11.78,1.46,24.84,24.84,0,0,0,6.72,3.68.33.33,0,0,0,.11.16,19.59,19.59,0,0,1,2.35,1.78c.52.63,1,1.25,1.57,1.86.14.4.32.79.49,1.18-.27,2.71,1.29,5.76,3.28,8.33a31.43,31.43,0,0,0,1.28,3,12.82,12.82,0,0,0,2.83,5.71,6.71,6.71,0,0,0,2.9,4.29,12.07,12.07,0,0,0,4.93,4.88c.42.26.47-1,.46-1.21a7.83,7.83,0,0,0-.76-2.69,6.9,6.9,0,0,0-.06-.85c-.38-2.94-2.08-6.32-4.17-9.31a38.18,38.18,0,0,0-5.91-11.81,22.31,22.31,0,0,0-3.55-4.39c0-.47,0-1-.2-1.06-.5-.23-1-.48-1.46-.73a2.65,2.65,0,0,0-.09-1c0-.09-.1-.16-.15-.24a.52.52,0,0,0-.2-.39l-.07,0c-2.15-3.08-5.84-4.14-8.9-6.24C113.67,77.93,113.57,78,113.49,78.22Zm-5.57,1h-.24c-.93-.17-1.85-.39-2.76-.64.12,0,.21-.19.27-.4C106.11,78.46,107,78.82,107.92,79.18ZM79.46,116l0-.2.11.11c.08.19.15.38.22.57ZM70.1,89.74a6.38,6.38,0,0,1-.88-.54c-.44-.31-.93-.68-1.44-1.1l-.14-.3.85-.38.2.09A21.75,21.75,0,0,1,70.1,89.74Zm65.6,20.18a1,1,0,0,0,0-.21.68.68,0,0,0,0-.14c.1.23.19.46.28.69C135.86,110.15,135.78,110,135.7,109.92Zm-1.08-1.51-.15-.16-.29-.41a13.78,13.78,0,0,0-.77-2c0-.11,0-.22,0-.34.26.38.5.77.75,1.15C134.33,107.24,134.49,107.83,134.62,108.41Zm-65-.33,0,.06,0,0Zm-1.78-3.46c0,.08,0,.17.08.25,0-.09-.07-.17-.11-.25Z"/><path class="cls-3" d="M43.54,73.32c-2.36,7.14,1.37,17.19,5.12,23.27a48.23,48.23,0,0,0,20.47,18.29c.53.26,2.31-.53,1.54-.9A48.28,48.28,0,0,1,52,98.3c-4.46-6.25-9.11-17.51-6.56-25.24.21-.62-1.72-.36-1.92.26Z"/><path class="cls-3" d="M45.37,70.33c4-12.18,14.47-16.71,26.6-18.07,11.93-1.33,23.31,3.37,32.55,10.59,8.92,7,15.57,16.62,22.21,25.64,7.19,9.76,14.42,19.46,23.43,27.64,7.92,7.2,17.54,12.29,21.81,22.69s1.81,24.65-11.25,26.68C151.12,167,142,159,135.33,153.17s-12.58-12.65-20.1-17.34c-.55-.34-2.26.44-1.81.73,8.62,5.37,15.38,13.39,23.09,19.91,6.19,5.23,14.26,10.87,22.82,10.1,8.82-.81,15-6.45,16.48-15.2,1.9-11-5.45-20.81-13.26-27.46-4.74-4-9.77-7.58-14.24-11.94A146.55,146.55,0,0,1,134.42,95.7c-8.22-10.8-15.65-22.5-25.79-31.64C93.38,50.32,68.78,45.89,51.32,58.48,47.26,61.41,45,66,43.45,70.6c-.19.59,1.73.33,1.92-.27Z"/><path class="cls-3" d="M100.47,127.06c-4.11-1.93-8-4.28-12.58-5.1-.45-.08-2.12.65-1.59.74,4.45.81,8.31,3.12,12.35,5,.51.24,2-.55,1.82-.65Z"/><path class="cls-3" d="M59.18,82.07c6.14,9.22,6.49,19.32,9.52,29.65,2.83,9.65,10.55,15.15,19.41,19,7.67,3.37,16.54,4.1,24.81,5,4.07.45,11.66,1.79,14.79-1.88.16-.18.06-.37-.12-.47-12.86-7-29.92,1-40.25-11-4.06-4.69-6.2-11-8.43-16.64C76.24,99,67.75,86.59,80.44,84.37c5.5-1,11.69-.67,17.28-1.08,7.88-.57,15.59-.3,21.61,5.37,8.84,8.35,7.18,22.57,18.2,29.44a1.46,1.46,0,0,0,1.74-.58c.25-.56.51-1.11.76-1.67s-1.64-.36-1.93.25-.51,1.11-.76,1.67l1.74-.59c-9.86-6.14-10-18.57-16.28-27.35-6.12-8.45-16.85-8.15-26.2-7.48-4.89.36-9.77.5-14.66.83-3.73.26-7.2,1.54-9.44,4.62-2.71,3.71.37,9.47,2,12.88,2.36,4.88,4,10,6.36,14.95,4.54,9.62,11.27,14.47,21.87,15,7.53.39,14.62-.41,21.72,2.82,2.3,1.05-4.86,1.65-3.78,1.62-1.1,0-2.21,0-3.32-.09-2.93-.14-5.86-.55-8.77-1-12.37-1.78-25.73-4.31-34-14.7C67,109.87,69.1,95.77,63.45,85.27c-.73-1.36-1.61-2.66-2.47-4-.35-.53-2.23.1-1.8.75Z"/><path class="cls-3" d="M60.92,80.31c4.34-1.32,8.9-1,13.32-1.86,3.87-.75,7.67-2,11.55-2.78,8.53-1.67,17.35-2,25.59,1.1,16.38,6.1,21.56,24.61,27.54,39.17.18.44,2.06-.19,1.93-.52-6.6-16.09-12.07-34.32-30.38-40.25C103.59,73,96,73.46,89,74.5A118.28,118.28,0,0,0,77.39,77c-5.51,1.38-11.21,1.13-16.62,2.77-1.11.33-1,.9.15.56Z"/><path class="cls-4" d="M73.5,311.49a48.07,48.07,0,0,0,5.09-6.08c.58-.75,1.11-1.44,1.58-2a79.64,79.64,0,0,0,9-14.86A134,134,0,0,1,96,275.26c2.15-3.42,4.67-6.61,7.13-9.83a3.53,3.53,0,0,0,2.58-.58,28.75,28.75,0,0,0,6.51-6.43,110.26,110.26,0,0,0,17.39-18.35,3.61,3.61,0,0,0,4.31-1.88c-.53.9-.06.24.13,0a4.77,4.77,0,0,0,.73-1.15,2.46,2.46,0,0,0,.24-.69,9.86,9.86,0,0,0,1.18-4.66,7.85,7.85,0,0,0,.48-1.75,4.44,4.44,0,0,0,1.8-3.3.48.48,0,0,1,0-.12,3.74,3.74,0,0,0,.43-.7,36.19,36.19,0,0,0,3.29-15.26,30,30,0,0,0-1.17-13,17.12,17.12,0,0,0-2.49-4.81,17.16,17.16,0,0,0-5.47-6.73,17.33,17.33,0,0,0-10.86-3.26c-4.26-1.26-9.72.3-13.72,1a26.06,26.06,0,0,0-11.77,5.56l-.14,0c-.46.17-.9.37-1.32.57L95,190c-4.2,1.33-7.16,4.58-9.81,8A3.59,3.59,0,0,0,84,199.64a24.41,24.41,0,0,0-1.62,3c-.13.1-.25.21-.37.32a33.34,33.34,0,0,0-7.34,11.92,3.74,3.74,0,0,0-.15,2.31c-2.08,5.22-3.22,10.89-4.35,16.32-.53,2.51-1.08,5-1.57,7.58A81.31,81.31,0,0,0,64,249.34a57,57,0,0,0-3,8.89,43.27,43.27,0,0,1-5.93,12.25c-3.09,4.6-7.2,10.52-9.17,16.59-6.86,7-4.74,22.09.92,29.21,2.82,3.56,10.52,6.46,14.73,3.19a2.44,2.44,0,0,0,.52-.12,17.55,17.55,0,0,0,5.28-2.75A27.62,27.62,0,0,0,73.5,311.49ZM64.33,287a.75.75,0,0,0,.15,0c-.56,1.06-1.13,2.12-1.75,3.18.27-.62.55-1.24.82-1.85Zm18-70.37.69-.77.05,0s0,0,0,0a3.08,3.08,0,0,0,.27-.25c.78-.69,1.52-1.42,2.26-2.16,8.18-3.37,17.31-3.64,26-4.83.68-.1,6.85-1.69,11.89-2.94a2.59,2.59,0,0,1,1,1.22c.92,2.06.74,4.81.76,7a2.89,2.89,0,0,0,1,2.14,20.17,20.17,0,0,0,.4,4.06,3.59,3.59,0,0,0,.91,1.75,9,9,0,0,0,.29,1.6c0,.09.06.18.09.27s-.08.09-.11.15c-2.83,4.83-4.75,10-7.75,14.71a106.37,106.37,0,0,0,0-11.71c.22-1.59-.32-3.23-.22-4.84l-.15,0h0a3.37,3.37,0,0,0,0-.88,2.72,2.72,0,0,0-2.82-2.26,3.23,3.23,0,0,0-2.26-1.41,5.19,5.19,0,0,0-1.15-.45l-.21-.1c-3.72-1.52-7.12-.14-10.45,1.73-.82.47-1.64.9-2.47,1.33a3.81,3.81,0,0,0-1.58-.3c-6.44.13-15.52,3.53-20,8.36-.27.3-.52.6-.77.91A43.28,43.28,0,0,1,82.38,216.59Z"/><path class="cls-5" d="M116.35,262.77s0,0,0,0a.36.36,0,0,0,.18-.07,20.07,20.07,0,0,0,1.54-1.37.51.51,0,0,0,.63-.22c1.34-2.09,3-3.9,4.37-5.89,3.28-3.77,5.81-8.31,4.78-13a11.09,11.09,0,0,0-.21-1.37.49.49,0,0,0,.11-.24c1.3-6.91,1.24-14.26-1.44-20.84a64.53,64.53,0,0,0,.21-9.22,4.41,4.41,0,0,0,1.39-2.48,1.19,1.19,0,0,0-1.31-1.28c-.27.06-.54.15-.81.23-1-.46-2.59,0-4.21.87-2.34-.09-4.95,1.14-7.07,2.19a14.71,14.71,0,0,0-4.91-.08,12,12,0,0,0-5.17.46,15.71,15.71,0,0,0-7,1,52,52,0,0,0-5.9,2c-1.12.4-2.18.85-3.2,1.33l-.31,0a.94.94,0,0,0-.77-.18,22.66,22.66,0,0,0-3.94,2.32,32.79,32.79,0,0,0-7.51,6.46.57.57,0,0,0-.08.45,17.13,17.13,0,0,0-1.86,2.06,18.76,18.76,0,0,0-2,2.92c-.34-.16-.66-.18-.79.16-.63,1.64-1.2,3.31-1.76,5-1.3,2.79-2.22,5.87-3.4,8.53-.13.27.18.67.55,1-.08.3-.17.59-.25.89s.24.73.62,1c-.11.28-.22.56-.32.84a.6.6,0,0,0,.11.5c-.31,1.28-.58,2.56-.8,3.85a13.37,13.37,0,0,0-.37,4.19c0,.11,0,.22,0,.34a17.94,17.94,0,0,0-.33,7.21,1.55,1.55,0,0,0,.39.57,19,19,0,0,0-.52,1.93,1,1,0,0,0,.36.76c.34.61,1.41,1.2,1.57.57,0-.18.1-.35.15-.53a.35.35,0,0,0,.22-.16,37.69,37.69,0,0,1,2.83-4.63c.29-.39-.23-1-.78-1.26l.21-.46c.1-.25-.08-.57-.36-.82l.09-1a.28.28,0,0,0,.31-.25,33,33,0,0,0,.39-3.62l.12-.56a19.62,19.62,0,0,0,.68-4.71,36,36,0,0,0,.14-5.1,1.16,1.16,0,0,0-.35-.56c.14-.33.26-.64.36-.9a.61.61,0,0,0,.05-.12c1.94-3.67,3.9-7.32,4.46-11.47l.08-.05a.53.53,0,0,0,.38,0c3.57-2.4,8.21-4.1,11.42-7.13,8.44-1.89,16.44-5.14,24.67-7.75a28.5,28.5,0,0,1,7.43,4c.54,2.58.72,5.28,1.66,7.78a1,1,0,0,0,.25.35,64.63,64.63,0,0,0-.76,12.08c0,.63,0,1.25.08,1.88a.45.45,0,0,0-.51.38,31,31,0,0,0-1.26,8.22,13.93,13.93,0,0,0-1.44,5.35,42.69,42.69,0,0,0-1.62,4,.73.73,0,0,0,.07.57l-.44.37a.61.61,0,0,0-.51.09c-1.11.86-2.19,1.82-3.26,2.79-3.09,2-6.36,3.65-9.35,5.77l-1.27.68c-1.1.46-2.19.95-3.25,1.48-.73.32-1.45.65-2.16,1a.72.72,0,0,0-.35,0c-4.11.62-7.48,3.75-10.72,6.13-.75.56.31,1.75,1.07,1.57a.79.79,0,0,0,.77,0l1.72-1.06a.68.68,0,0,0,.56-.07l.29-.18a.92.92,0,0,0,.63,0,68.21,68.21,0,0,0,14.9-7.73,17.7,17.7,0,0,0,2.12-1.1.78.78,0,0,0,.83.05C110.5,267.19,114.07,265.8,116.35,262.77Zm2.32-49.51a.2.2,0,0,1,0,.07l-.06-.05Zm1.58,1.35h0l.2-.06.09.27c0,.13,0,.27,0,.4l-.24-.37A2.09,2.09,0,0,1,120.25,214.61ZM68.85,248.9a.93.93,0,0,0-.36-.13c0-.17,0-.34,0-.51.19-.49.4-1,.61-1.45,0,.15,0,.29,0,.44C69,247.8,68.93,248.35,68.85,248.9ZM118.12,216l.3.12c.06.17.13.34.19.5l-1-.61A3.85,3.85,0,0,0,118.12,216Z"/><path class="cls-3" d="M139.1,194.69c4.51,5.66,4.06,15.8,3,22.46-1.47,9.2-6.49,17.63-13,24.18-.86.87,1,1.27,1.63.62a49,49,0,0,0,13-23.39c1.69-7.11,2-18.66-2.89-24.74-.58-.72-2.41.06-1.76.87Z"/><path class="cls-3" d="M140.05,191.32c-6.82-8.78-15.63-10.54-26.29-9.52a45.33,45.33,0,0,0-23.85,9.48c-20.31,16.41-22.66,45-31.63,67.83a106.15,106.15,0,0,1-9.66,18.48c-3.9,6.07-7.41,12.29-8.39,19.54C38.86,307.2,43.45,318.59,54,321.24c16.77,4.25,26.94-16.37,32.94-28.08,2.83-5.53,5.54-11.24,9.42-16.13.41-.52-1.46-.25-1.76.12C84.73,289.54,81.49,307,68.68,317.08c-10.92,8.61-23.46.67-26.16-11.33-3-13.25,5.43-23.64,11.64-34.3,12.39-21.27,13.39-47.36,26.58-68.15,11.37-17.92,41.88-31.4,57.49-11.31.3.39,2.14-.26,1.82-.67Z"/><path class="cls-3" d="M107.16,264c3.14-3.11,6-6.61,9.86-8.82,1.13-.65-.56-1-1.21-.61-4,2.28-7,5.87-10.2,9.08-.82.81,1.08.82,1.55.35Z"/><path class="cls-3" d="M127.22,207.68a43.78,43.78,0,0,0-.93,16.87c.95,7.16,2.7,14.18,1.45,21.43-2.26,13.22-16,21.09-26.59,26.84a68.52,68.52,0,0,1-13.53,6c-7.62,2.17,2.7-5.37,4.09-6.12a77.71,77.71,0,0,1,10.42-4.1c10.22-3.7,15.88-9.45,17.6-20.44.75-4.73.69-9.58.87-14.36.19-5.16,2-11-1.14-15.56-4.51-6.54-17.95.35-23.31,1.77-8,2.13-17.45,4.5-22.22,11.91-6.76,10.52-.39,24.1-7.29,34.66l-1,1.25,1.86-.5c-.43-.44-.86-.87-1.28-1.31s-2.13.35-1.82.66.85.87,1.28,1.31,1.61-.18,1.86-.5c8.91-11.39.44-27.64,10.27-38.52,4.78-5.29,13.09-6.92,19.68-8.68,6.36-1.69,17.4-7.58,21.11.4,2.25,4.83.06,12.26-.09,17.41-.19,6.48-.5,13-3.09,19-3.42,8-12,10.24-19.39,13-5.43,2-10.18,4.68-14,9-.06.07-.16.19,0,.26,3.76,2.16,10.05-1.36,13.4-2.88,6.64-3,14.09-6.48,19.78-11,7.73-6.17,14.38-14.07,15-24.29.3-5.14-.86-10.38-1.65-15.43a44.76,44.76,0,0,1,.62-18.47c.11-.42-1.78-.14-1.9.34Z"/><path class="cls-3" d="M127,205.45c-5.2.25-9.94,2.59-15.14,2.85a93.5,93.5,0,0,0-10.92,1.32c-7.5,1.28-14.68,3.39-21.11,7.58C63.25,228,64.28,249.11,63.49,266.44c-.05,1.06,1.92.82,2-.12.78-16.94-.33-36,14.6-47.42,6.34-4.86,14.56-6.81,22.29-8a102.44,102.44,0,0,1,11-1.16c4.58-.22,8.8-2.54,13.43-2.77,1.13,0,1.46-1.57.14-1.5Z"/></svg>