<svg id="layer1" xmlns="http://www.w3.org/2000/svg" viewBox="0 0 189.93 192.19"><defs><style>.cls-1{fill:#aeede1;}.cls-2{fill:#492d0c;}</style></defs><path class="cls-1" d="M88.25,31.76a19.78,19.78,0,0,0-7.63,5.73,17,17,0,0,0-5.5,16.1,22.13,22.13,0,0,0,2.1,6,21.48,21.48,0,0,0,.94,2.24c-7.86-1.77-16.94-.77-23,2A21.78,21.78,0,0,0,48,69a25.44,25.44,0,0,0-2.53,1.71,13.62,13.62,0,0,0-5.43,10.09,8.14,8.14,0,0,0-.15,6c1.57,4.21,4,6.65,6.93,8a19.49,19.49,0,0,0,6.34,3.33c5.33,8,18.14,8.88,28.32,6.43a45,45,0,0,0-4.74,8.37,68.39,68.39,0,0,0-7.72,5.39c-4,3.24-4,6.48-3.32,11.23a7.52,7.52,0,0,0,4.63,6l.46.16a8,8,0,0,0,7.3,3.3,37.09,37.09,0,0,0,5.47-1.37,18.64,18.64,0,0,0,6.28-1.82,21.33,21.33,0,0,0,6.76-5.44c6.64-5.48,11.55-13,13-21.31a70.91,70.91,0,0,0,10.88,16.69c6.47,7.11,16.18,12.76,25.82,8.27,8.15-3.8,11.09-12.64,8.73-20.89-2-7-8.38-10.36-15.21-11.84a104.92,104.92,0,0,0-11-6.47l.84-.34a130.82,130.82,0,0,0,16-7.27c12.06-7,18-17.92,13-31.61-1.18-3.21-4.68-4.78-7.9-4.5a39.19,39.19,0,0,0-15.35,4.88,15.5,15.5,0,0,0-7.55,1.27c-5.49,2.44-9.38,7.35-12.26,12.74,0-.42,0-.84-.08-1.26a82.79,82.79,0,0,0-3.3-19c-.24-.78-.52-1.59-.85-2.41-2.47-6.79-7-12.7-14.48-14.21l-.83-.14A7.83,7.83,0,0,0,88.25,31.76Z"/><path class="cls-1" d="M35.54,122.78a9.22,9.22,0,0,0-3.36,1.4c-.29.2-.59.38-.88.57l-1.47.87c-1.77,1-3.56,2-5.26,3.17-6.18,4.16-1.45,14.6,5.66,13.32.46-.09.89-.19,1.31-.29l1,0a6.36,6.36,0,0,0,4.59-2.42l.5-.29c.66-.4,1.28-.87,1.9-1.32.33-.24.65-.47,1-.69l.22-.16.2-.1c3.62-1.9,5.67-5.84,4-9.84C43.46,123.59,39.09,121.3,35.54,122.78Z"/><path class="cls-2" d="M107.94,91c1.61,10.5,2.16,21.6-1.8,31.67-4.69,11.94-18.75,19.85-31.42,17.06-11.55-2.54-9.85-15.45-4.53-22.89,3.78-5.3,9.6-9.36,14.88-13.06a87.47,87.47,0,0,1,20.82-11c1.13-.4.83-1.65-.34-1.24A96.43,96.43,0,0,0,83.8,103c-5.72,3.89-12.18,8.59-16,14.49-5.61,8.61-5.55,20.26,5.81,23.51,10.9,3.12,25-3.15,31.22-12.31,7.53-11.15,7-25.42,5.06-38.18-.12-.84-2.06-.36-1.93.52Z"/><path class="cls-2" d="M104.38,89.75C89.06,96.9,73.64,110.22,56,102.49c-5.52-2.42-12-6.19-15.63-11.12s-1.44-11.74.56-16.9C44.14,66.16,50.36,60.61,59.48,60c6.68-.41,13.39,2,19.23,5,10.56,5.45,16.15,20.39,28.15,23,.55.12,2.26-.74,1.2-1-7.82-1.72-13.86-10.76-19.18-16.15A40.18,40.18,0,0,0,70,60.15c-12.59-3.35-24.88,1-30.4,13.13-2.38,5.25-5,12.7-1.52,18.09C41.87,97.27,49.74,101.31,56,104c17.3,7.57,34.37-6.7,49.16-13.61,1.22-.57.09-1.07-.74-.68Z"/><path class="cls-2" d="M106.3,93.05c7,15.81,10.62,39.64,29,46.69,8.12,3.12,16.78-.67,22.09-7,6.46-7.68,8.25-19.67,2.38-28.14-3.25-4.69-8.8-7.4-14.27-8.49-11.47-2.28-23.46-.22-35.06-1-.39,0-2.21.69-1.26.76,14.92,1,35.51-4.41,47.22,7.5,6.63,6.75,6,17.44,2,25.32-5,9.79-15.33,14.28-25.17,8.5-15.21-8.92-18.36-29.85-25-44.67-.2-.45-2.07.21-1.93.52Z"/><path class="cls-2" d="M108.48,92.16c6.86,4.08,14.11,1.74,21.38.21a85.79,85.79,0,0,0,18.41-5.65c12.25-5.63,19.45-20,11.39-32.29-5.9-9-19.4-10.7-28.13-5.06-14,9-16.09,28.8-23.09,42.62-.17.33,1.65.18,1.91-.33,5.44-10.74,8-22.72,14.19-33.13,4-6.8,10.25-11.76,18.48-11.55a19.45,19.45,0,0,1,13.46,6.4c8.43,9,4.64,23.47-4.45,30.21-5,3.7-11.31,5.49-17.26,7-7.7,1.93-17.21,5.24-24.47.92-.49-.3-2.12.49-1.82.67Z"/><path class="cls-2" d="M108.32,90c6.56-15.17,16.83-34,8.91-50.51C111.74,28.07,96.91,24.4,85.38,27.09A16.93,16.93,0,0,0,74,35.51c-4.69,8.88-.88,18.63,3.84,26.61C81,67.44,86.15,72.3,90.25,76.89c3.6,4,8.31,10,14,11,.48.09,2.25-.7,1.23-.88-5-.9-9.34-6.43-12.57-9.92C89.09,73,85.61,68.61,82,64.36c-9.41-11-13.2-33.4,5.35-36.9C101,24.88,114.46,33,117.55,46.54c3.37,14.78-5.48,30.69-11.14,43.8-.19.43,1.68.23,1.91-.31Z"/><path class="cls-2" d="M103.19,91.7c0,4.07-5.58,7.33-8.48,9.3a142.45,142.45,0,0,1-18.07,10,266.18,266.18,0,0,1-31.86,13.38c.21.42.41.85.62,1.28,21-9.58,42.56-19.21,60.48-34,.94-.77-.29-1.42-1.08-1a80,80,0,0,0-20,13c-1,.88.55,1.6,1.29.93a78.2,78.2,0,0,1,19.59-12.74l-1.08-1.06C86.8,105.4,65.38,114.94,44.53,124.45c-1,.47-.35,1.6.62,1.28a276,276,0,0,0,35.39-15,123.9,123.9,0,0,0,17.59-10.24c2.7-2,7.05-5.09,7-8.87,0-1-2-.77-2,.13Z"/><path class="cls-2" d="M46.59,125.21c-.08,3.9-4.16,6.89-7,8.93-3.91,2.76-8.35,6.43-13.34,4.19-1.68-.75-5.15-2-2.66-4.22A16.25,16.25,0,0,1,26.93,132a49.87,49.87,0,0,0,6-3.35.6.6,0,0,0-.31-1.13c-2.72-.36-5-1.81-7.51-2.84l-.65,1.35c6.53-1.1,13.31-1.16,19.91-1.38,1.1,0,1.49-1.45.18-1.4-6.61.22-13.39.28-19.91,1.37-.62.1-1.67.93-.65,1.35,2.66,1.11,5.07,2.56,8,2.94l-.3-1.13c-4.22,3.06-17.37,7.39-6.58,11.82,6.4,2.63,9.16-.78,14.51-3.84,3.65-2.08,8.85-6.1,8.95-10.73,0-1-1.94-.72-2,.15Z"/></svg>