<svg id="layer1" xmlns="http://www.w3.org/2000/svg" viewBox="0 0 241.07 329.46"><defs><style>.cls-1{fill:#1e661e;}.cls-2{fill:#399939;}.cls-3{fill:#84ce84;}.cls-4{fill:#492d0c;}</style></defs><path class="cls-1" d="M185.47,52.06l-.29,0c.13-3-2.26-3.93-4.31-3.59a13.08,13.08,0,0,0-5.25-.69c-2,.06-3.28,2.42-3,4.17a17,17,0,0,1,.14,3.33,16.81,16.81,0,0,0-.84,2.89,44.87,44.87,0,0,0-2.54,11.66,3.59,3.59,0,0,0,.25,1.89,4,4,0,0,0-3.25.92c0-1,0-2,0-2.93a2,2,0,0,0,0-.24l.08-.21a4.15,4.15,0,0,0,.22-1.16,37.19,37.19,0,0,0,1.25-4.49,3.6,3.6,0,0,0,.63-1.68c0-.33.08-.65.11-1,.1-.81.21-1.58.33-2.34a33.79,33.79,0,0,1,1.52-5.08,3.33,3.33,0,0,0-1.89-4.5,1,1,0,0,0,0-.17,3.63,3.63,0,0,0,1.34-1l.76-.49c2.78-1.71,2.88-6.66-1.11-6.91a16.57,16.57,0,0,0-4.6.35c-.73.13-1.26-.06-1.78.89l-.23,0a7.59,7.59,0,0,0-5.84-1.57,10,10,0,0,0-3.49,1.37,5.18,5.18,0,0,1-4.29.4,3.3,3.3,0,0,0-2-.85l-.59-.06c-3.48-.37-4.62,3-3.29,5.38.14,1.47.41,2.89.5,4.37a2.89,2.89,0,0,0,1.47,2.46,3.59,3.59,0,0,0,1.52,2.93,5.2,5.2,0,0,0-.12.56,3,3,0,0,0,.09,1.42,3.27,3.27,0,0,0-1.48,1.64c-.59,1.44-1.16,2.88-1.74,4.32-.43.74-.84,1.49-1.24,2.25a3.39,3.39,0,0,0-2.73,2.13c-.23.52-.44,1.05-.65,1.57-.27-4.42-1-8.92-3.68-12.13C134,50,132.46,42.2,133.14,34.21a3.67,3.67,0,0,0-3.22-4,26.2,26.2,0,0,0-8.21-.25,3.67,3.67,0,0,0-5.61,1.46,13.92,13.92,0,0,0-.8,2.47,3.9,3.9,0,0,0-1.08.67,3.73,3.73,0,0,0-3.71,3.23,24.94,24.94,0,0,0-.57,4.48,4,4,0,0,0-.9-1,3.11,3.11,0,0,0-.77-2.74c-3.12-3.28-5.75-2.48-9.81-2.4-3.33.06-8.91.31-10.09,4.41s.85,7.81,3.1,11.33c.54.85,1,1.7,1.47,2.55a60.57,60.57,0,0,0,1.78,9.78A44.86,44.86,0,0,0,96.58,72a25.77,25.77,0,0,0,4.24,11.15c.77,2,1.51,4,2.14,6a27.69,27.69,0,0,1-7.32-7.28,42.39,42.39,0,0,0-4.56-13c-.26-1.41-.59-2.82-1-4.25-.43-1.64-.8-3.26-1.09-4.93S87.34,57,86.68,55.58A3.54,3.54,0,0,0,85,53.9c-.33-2.69-3.37-3.72-5.65-2.23a11.66,11.66,0,0,0-1,.77,3.86,3.86,0,0,0-1.1.23c-5.56,2-11.35,7.49-10.92,13.74A3,3,0,0,0,67,68.06c1.45,6,5.66,11.56,9.08,16.29a57.08,57.08,0,0,0,9.46,10.06,4.22,4.22,0,0,0-1.46.94l-2.7-2.13a3.18,3.18,0,0,0-3.12-.55C72.12,86.85,66.8,80.11,60.65,74.26a3.61,3.61,0,0,0-4.43.1l-1.45,1.18a2.83,2.83,0,0,0-3.12.41,3.66,3.66,0,0,0-5.2.51A17.87,17.87,0,0,0,42.05,85a3.05,3.05,0,0,0,.15,1.77,3.83,3.83,0,0,0,.33,3.85,25.08,25.08,0,0,0,4.77,5,37,37,0,0,0,6.94,5.22c-1.76-.73-3.6-1.29-5.46-1.86a3.67,3.67,0,0,0-4.3,1.39,8.5,8.5,0,0,0-.72-1,3.65,3.65,0,0,0-6.42,1.89,42.14,42.14,0,0,1-.76,4.87,2.91,2.91,0,0,0-1,1.34C31,120.89,50.88,126.05,61.07,128.67c5.13,3.3,10.55,6,17,6.9a3.39,3.39,0,0,0,2-.3,102,102,0,0,0,13.82,6,3.58,3.58,0,0,0,4-1.13A69.92,69.92,0,0,0,118.8,152a43.69,43.69,0,0,1,6.1,4.23,3.17,3.17,0,0,0,.7.42c1,3.58,6.65,4.06,7.1-.24l0-.29h0s0-.31,0-.41,0-.23,0-.33a3.62,3.62,0,0,0,6.53-.33c.2-.51.37-1,.52-1.55a3.56,3.56,0,0,0,2.52-.19c.06.28.12.55.2.82a3.81,3.81,0,0,0,4.5,2.85c.08.31.17.61.26.92,1.12,3.64,6.5,2.18,6.91-1.11,0-.3.07-.4.11-.7a3.9,3.9,0,0,0,2.57-2.44H157c1.27-9.92,5.4-16.84,9.08-24.79a3.26,3.26,0,0,0-.28-3.5c1.44-4.94,4-9.56,5.13-14.66.63-2.85,1.78-5.94,2.17-9a3.39,3.39,0,0,0,1.65-2.62c1.79-14.88,8.24-28.76,10.17-43.59a4.05,4.05,0,0,0,.27-.81C185.28,53.9,185.37,53.06,185.47,52.06Zm-28.17,35q-.45,1.94-1,3.87a.47.47,0,0,0-.1.1c-.14.18-.26.36-.4.53a4,4,0,0,0-1.74-1.27c.36-.65.69-1.32,1-2l.56-1A4,4,0,0,0,157.3,87.07Zm-31.15,25.59c0,.3,0,.61,0,.91a3.06,3.06,0,0,0-.8-.47A3.81,3.81,0,0,0,126.15,112.66Zm10.14,13.87c-.07,1-.15,2-.24,3.05q-.39-1.52-.75-3A4.68,4.68,0,0,0,136.29,126.53Zm20.92-78.48-.31.33a3.35,3.35,0,0,0-.7-.22,3.87,3.87,0,0,0,.34-.21l.53-.32C157.11,47.78,157.16,47.91,157.21,48.05ZM50.35,108.62c-.5-.24-1-.46-1.5-.68.2-.4.4-.8.58-1.2a22.36,22.36,0,0,1,2.16.82A3.94,3.94,0,0,0,50.35,108.62Z"/><path class="cls-2" d="M164.4,121.78a.36.36,0,0,0,0-.09h0c.08-.31.17-.62.24-.94a2.85,2.85,0,0,0-.73-2.78c.16-.55.32-1.11.47-1.66.85-3.13-2.73-6.92-5.65-4.15-.16.15-.32.33-.48.5.34-6.07,9.88-38.85,13-43.88,2.53-4-11.36,19-14.49,22.36-3.64,4-5.51,9-7.82,13.81a3.31,3.31,0,0,0-.32,2c-3.63,6.66-5,14-5.91,21.61a.66.66,0,0,1,0,.14s0,.12,0,.12h0a9.06,9.06,0,0,0,.29,1.71c-.3,1-.59,1.93-.88,2.9a3.94,3.94,0,0,0-2.91.91,3.33,3.33,0,0,0-1.55,2.55c-.11.92-.24,1.86-.37,2.81-.71-2.33-1.85-4.55-4.31-5.51-1.39-.55-2.57.16-4,.1a11.3,11.3,0,0,1-4.83-1.64,2.92,2.92,0,0,0-1.35-.37c-4-2.39-8-4.47-12.84-4.85a3.62,3.62,0,0,0-1.49.18c-5.74-3.21-11.33-8.28-16.33-12.35a3.05,3.05,0,0,0-1.54-.67c-1.22-.62-2.45-1.4-3.71-1.89a3.43,3.43,0,0,0-2.68-2l-3.56-.38a3.46,3.46,0,0,0-2.48.86c-4.19.06-25.2-3-29.38-3.38-4.66-.38,11.38,10.35,16,10.73a109.45,109.45,0,0,0,12.15-.1A3.35,3.35,0,0,0,77.7,120c-1.62,1.42-2.13,4,.18,5.45,4.71,2.93,9.13,6.58,13.79,9.82a2.31,2.31,0,0,0,1.42,1l0-.44h.1c.31,0,.57.61.88.76A42.87,42.87,0,0,0,104.9,142c5.13,3.25,10.13,6.83,16.2,8.14a21.8,21.8,0,0,1,2.15,2.15,2.12,2.12,0,0,0,.12.2c.16.21.32.5.48.7a4.71,4.71,0,0,1,1,3.12l.41,0c-.38,4,6.52,4.72,7,.74h-.19l.19-1.74c1-.39.49-1,.47-1.49a2.77,2.77,0,0,0,.43-1.69,3.51,3.51,0,0,0,2.35-.7,3.37,3.37,0,0,0,.72,2.29c-.21.71-.4,1.43-.59,2.15a28,28,0,0,0-1.05,4.8c0,.21-.09.65-.1.65h0a3.67,3.67,0,0,0,1.06,2.92c1.47,2.33,5.73,1.83,6.58-1.1l.34,0,.09-.81a82.71,82.71,0,0,1,2.17-11,3.52,3.52,0,0,0,2.43.27,3.47,3.47,0,0,0,5.39-.35c5.51-7.75,9.6-16.44,13.19-25.21A3.24,3.24,0,0,0,164.4,121.78Zm-59.57,12-.38-.16c-1-.64-2.09-1.24-3.16-1.79a2.67,2.67,0,0,0,.4,0C102.73,132.54,103.78,133.19,104.83,133.8Zm-10.09-5a3.57,3.57,0,0,0,.94-.88,38.53,38.53,0,0,1,3,2.76,25.14,25.14,0,0,0-2.57-.89Zm18.1,9.72c.57.31,1.14.61,1.73.87a3.28,3.28,0,0,0-.43.4c-.41-.23-.82-.47-1.22-.72A3.47,3.47,0,0,0,112.84,138.53Zm22.85,7.12-.17-.15a4,4,0,0,0,1-.63c0,.1,0,.21-.05.32-.07.37-.15.73-.22,1.09A4.16,4.16,0,0,0,135.69,145.65Z"/><path class="cls-2" d="M128.74,112.94a36,36,0,0,1-2,7.53,25.73,25.73,0,0,0-1.67,5.66c-.69,4,5.94,5.67,7,1.71h0a3.7,3.7,0,0,0,5.22-2.8,38.21,38.21,0,0,1,1.83-7.22,3.51,3.51,0,0,0-1.19-4.22,3.71,3.71,0,0,0,3.8-2.81h.07s0-.19,0-.35c.79-4,1.34-7.92,1.81-11.94.76-4.39,1.52-8.62,2-13.08a3.68,3.68,0,0,0-2.59-3.84,3,3,0,0,0-1.39-2.85c0-.17,3.95-16.09,4-16.26.44-4-9.57,10.12-10.93,14a28.09,28.09,0,0,0-1.41,6.21,3.44,3.44,0,0,0,.27,1.88c-.1.72-.2,1.44-.29,2.16-.14.31-.28.62-.41.94a3.32,3.32,0,0,0-.07,2.51c-.5,3.45-1.08,6.88-1.62,10.29a4.72,4.72,0,0,0-.18.53c0,.15,0,.31,0,.46s.13.13.13.13l-.41,0c-.19,2-.27,3.36-.42,5.09-.11.66-.27,1.87-.31,1.87h.13c-.1,1-.22,1.44-.31,2.12a3.1,3.1,0,0,0-1,1.88v-.11h0S128.75,112.88,128.74,112.94Z"/><path class="cls-2" d="M53.67,83.25c3.17,2.37,24.54,19.24,28.19,20.54a51.45,51.45,0,0,1,7.59,3.84,3.24,3.24,0,0,0,1.79,1.67c3.29,1.27,6.66,2.31,10,3.31.3.26.59.53.88.83a25.26,25.26,0,0,1,3,4.17q.69,1.19,1.32,2.4c.59.94.65,1.06.2.35.62,2.53,3.63,4.12,5.85,2.23l1.9-1.64c2,2,6.16,1.66,6.13-1.88,0-1-.07-2-.11-3.07a3.91,3.91,0,0,0,.31-.85,3.62,3.62,0,0,0,6-2.61c.33-3.08.75-7.1,1.13-10.65a3.23,3.23,0,0,0-1.71-3.45,3.26,3.26,0,0,0-.82-1.72c1.15-8.77,2.67-17.15.95-25.36a66.11,66.11,0,0,0-3.28-10,3.81,3.81,0,0,0,.8-2.73c-.31-4.19-3.53-3.49-5.78-6.83-.34-1-3.52-7.71-3.86-8.78-1-3.19-1.29-1.44-2,1.52a3.74,3.74,0,0,0-.8,1.77c-.39,2.86.56,5,1.67,7.26,1.2,5.27,3.32,10.34,5.1,15.48,2.56,7.4,1.59,15.48.5,23.43-2.89-7-7-13.44-11.26-19.76a29.83,29.83,0,0,1-.53-5.34c0-4.62-7.23-5.43-7.2-.76,0,.32,0,.63,0,1A3.93,3.93,0,0,0,98.14,71c.52,5,3,9.83,5.93,14a44.86,44.86,0,0,0,3.14,5.36,3.15,3.15,0,0,0,3.1,1.29,59.29,59.29,0,0,1,3.16,7.62,2.92,2.92,0,0,0,3.5,2.1l-.06.45a3.46,3.46,0,0,0,2.44,3.66c.13.53.39,1.08.58,1.64.07.18.34.36.33.51-.13,1.24-.26,2.45-.38,3.56,0-.18-.65-.41-1-.54-1-.39-2-.76-3-1.1a33.75,33.75,0,0,0-4-2.25,9.86,9.86,0,0,0-1-.5,3.75,3.75,0,0,0-1.65-.29l-1.56-.88a4.1,4.1,0,0,0-3.79-.06A29.76,29.76,0,0,0,100,103.2c-4.42-2.2-9.4-3.21-13.88-5.41-4.19-2.07-7.76-4.38-12.55-4.7C70,92.85,50.71,81,53.67,83.25Z"/><path class="cls-3" d="M132.81,137.52c.38-.2.71-.51.63-.89,1.83-.27.37-1.93-.51-2.39l-2.8-1.5c-.7-.37-3.18-.93-3.48.24a29.52,29.52,0,0,0-7.76-2.89c-1.55-.31-2.67.57-1.77,1.65q-2.18-.92-4.27-2c-3.77-2.62-7.58-5.2-11.52-7.57-1.52-.92-5.92-.78-3.16,1.38,1.88,1.47,3.84,2.88,5.87,4.21a26.61,26.61,0,0,0-7.48-1.82c-2.3-.18-1.5,1.78-.12,2.47,6,3,11.75,7.16,18,9.8a2.89,2.89,0,0,0,1.84,1.46c1.55.5,3.06,1.11,4.56,1.74-.46.17-.68.55-.38,1.22.07.15.14.31.2.46l-.54-.15c-.05-.14-.11-.29-.17-.44-.51-1.46-5.32-2.9-5-.81a12.52,12.52,0,0,0,.86,2.88,1,1,0,0,0,.16.58c.58,1,1.17,2,1.76,3,1.91,3.79,4.15,7.41,6.34,11.06.8,1.33,5.77,2.25,4.66.05-.5-1-1-1.95-1.57-2.92h.09c1.35.47,2.79.54,2.66-.78a18.11,18.11,0,0,0-.25-1.82,1.12,1.12,0,0,0,1.06-.46.84.84,0,0,0,.74-.79l.06-.58h0a29.12,29.12,0,0,0,1.12-5.06c.44-.09.56-.34.6-.74v0l.29.05a20.13,20.13,0,0,1,.53-4.63c.41-.09.7-.27.73-.63s.09-.78.13-1.18C135.07,138.65,134.08,137.83,132.81,137.52Zm-2,.17a1,1,0,0,0-.28.21,1.25,1.25,0,0,0-1,.65c-1.42-.09-2.82-.23-4.23-.39-.8-.63-1.62-1.25-2.47-1.83A46.87,46.87,0,0,0,130.84,137.69Z"/><path class="cls-3" d="M140.1,172.55c.08.57.17,1.13.29,1.7a1.38,1.38,0,0,0,1.36,1.11,23.46,23.46,0,0,0,.57,3.28c.41,1.68,2.7,1.32,4,.32.42,2.62,1.08,5.28-.1,7.53-.83,1.58.94,2.08,2.6,1.74q.7,2.53,1.48,5c.73,2.33,5.23.79,5-1.48-.71-6.07-1.58-12.18-4.1-17.79a1,1,0,0,0-.11-.2c-.09-.66-.16-1.32-.22-2a81.94,81.94,0,0,0,.17-12.34,1.64,1.64,0,0,0-1.66-1.56,1.21,1.21,0,0,0-.67-1.12c.26-1.37.48-2.73.65-4.08s-1-1.68-2.24-1.5c.09-.76.17-1.54.25-2.31.13-1.21-1-1.64-2.17-1.52,2.9-17,6.1-34.15,13.31-49.92a15.52,15.52,0,0,0,.86-1.9.38.38,0,0,1-.15.16l-.58.24c-1.22.37-3.53.66-4,1.55s-.76,1.65-1.13,2.47c-1.42,2.65-3.33,5-4.73,7.69a51.25,51.25,0,0,0-3.49,9.92c-1.32,4.64-2.82,9-3.81,13.57a166.94,166.94,0,0,0-4.29,18.23.5.5,0,0,0-.11.26c-.05.43-.11.87-.17,1.31-.46,2.7-.63,5.43-1,8.15-.2.2-.09.5-.13.88s-.07.72-.11,1.07c-1-.11-.08,0-.11,0s-.9,0,.09.2c-.17,1.55-.33,3.11-.5,4.67,0,.23-.24.44-.18.67s-.17.4-.19.61.27.52.24.77h.35l-.39,0c.2-.08.2-.18.39-.27,0,0-.06,0,0,0-.05.32.07.65,0,1,.12-.05-.45-.17.55-.12l0,.18c0-.08,0-.19.33-.29.08.06.26.13.34.19a1.46,1.46,0,0,0-.79,1.26c0,.2,0,.4-.07.59a2.93,2.93,0,0,0,2,3A1.93,1.93,0,0,0,140.1,172.55Z"/><path class="cls-3" d="M157,223.55a2.12,2.12,0,0,0-.06-3.1,12.08,12.08,0,0,1-2.23-3.27c-.12-.28-.25-.56-.37-.85a14.81,14.81,0,0,1-1-4.27,2.33,2.33,0,0,0-1.59-2c-.38-1.32-.74-2.64-1.05-4,0-.1-.39-.07-.9,0-3.61-7-8.65-13.13-9.71-21.39-.2-1.57-5.24-1.77-5.12-.79,1.12,8.66,6.17,15.82,10.29,23.29.31.57.6,1.17.88,1.76,1.37,5.46,3.39,10.73,4.5,16.25,0,.13.74,0,1.6-.24a13,13,0,0,1,.24,2.7c0,1.46,5.09,2,5.12.78A18.09,18.09,0,0,0,157,223.55Z"/><path class="cls-4" d="M138.17,196.08c4,9.6,6.94,19.55,10.7,29.21s8.24,19.35,10.6,29.62c1.39,6,3.72,11.79,10.81,11.52,4.44-.16,8.4-3.08,11-6.46,5-6.56.23-14.05-3.56-19.9a67.71,67.71,0,0,1-7.21-14.54c-4.51-12.47-8.15-25.45-13.75-37.5-.2-.42-2.06.25-1.93.52,4.5,9.68,7.64,20,11.14,30.11,1.62,4.63,3.21,9.28,5.05,13.83,2.19,5.41,6.24,9.86,8.82,15.1,1.59,3.23,2.27,6.26,1.15,9.74-1.44,4.49-6.55,8.75-11.43,8.34-7.72-.67-8.41-12.91-10.13-18.51-2.7-8.79-6.67-17.16-9.92-25.75s-5.92-17.36-9.41-25.84c-.17-.42-2.06.22-1.93.51Z"/><path class="cls-4" d="M168.19,268.9c-2,4.37,1,9.84-1.91,13.83l1.77,0c-1.18-5-1.53-13.21,2.65-17l-1.62-.37c-.29,2.7-.57,5.41-.86,8.11-.11,1.07,1.74.63,2-.14a9.18,9.18,0,0,1,.66-1.38c.46-1-1.49-1-1.85-.23a9.48,9.48,0,0,0-.77,1.75l2-.14c.29-2.71.57-5.41.86-8.12.09-.81-1.22-.73-1.62-.37-4.73,4.32-4.67,12.65-3.3,18.44.18.74,1.45.48,1.78,0,3.17-4.31.08-9.62,2.14-14.18.46-1-1.49-1-1.85-.23Z"/><path class="cls-4" d="M170.72,265.72c.75,3,.57,6.08,1.78,8.94.25.58,1.62.15,1.86-.26a6.51,6.51,0,0,0,.9-2.78c.08-.72-1.86-.35-1.93.26a5.65,5.65,0,0,1-.76,2.52l1.86-.26c-1.21-2.86-1-6-1.78-8.94-.16-.63-2.1-.12-1.93.52Z"/><path class="cls-4" d="M174.62,265a31.82,31.82,0,0,0,1.36,7.8c.16.47,1.87,0,1.92-.42.08-.72.15-1.44.23-2.16.06-.57-1.86-.18-1.91.31-.08.72-.16,1.45-.23,2.17l1.92-.42a32.13,32.13,0,0,1-1.36-7.8c0-.44-2-.06-1.93.52Z"/><path class="cls-4" d="M176.07,265.4c3.09.78,3.19,6,4.18,8.44.23.58,1.89.19,1.93-.39a71.77,71.77,0,0,0-.59-10l-1.93.52a15,15,0,0,0,4.13,8.2c.35.36,1.84.09,1.86-.5.14-3.94-1.32-7.14-3.36-10.44-.3-.49-2.13.13-1.86.63,1.68,3.12,4.28,5.54,6.29,8.43.32.46,2.12-.08,1.87-.63a49.17,49.17,0,0,0-5.16-8.85l-1.8.74c3.1,2.51,6.41,4.72,9.65,7,.36.26,2.15,0,1.86-.63a33.15,33.15,0,0,0-7.2-10.17l-1.8.74c3.85,3.32,8.18,6.11,11.52,10,.42.48,2.27-.2,1.8-.75-3.34-3.87-7.67-6.65-11.52-10-.47-.4-2.31.23-1.8.74a32.55,32.55,0,0,1,7.07,9.95l1.87-.63c-3.24-2.32-6.55-4.53-9.65-7-.44-.36-2.28.11-1.8.74a48,48,0,0,1,5,8.63l1.86-.63c-2-2.82-4.52-5.17-6.16-8.2l-1.87.63c2,3.15,3.37,6.15,3.23,9.95l1.87-.5a14.53,14.53,0,0,1-4-8c-.1-.63-2-.17-1.93.52a69.5,69.5,0,0,1,.59,9.78l1.93-.39c-1.23-3.06-1.09-8-4.92-8.94-.58-.14-2.27.75-1.19,1Z"/><path class="cls-4" d="M160.92,265.23c0,.41.29.63.66.7a2.41,2.41,0,0,0,1.34-.26c.14-.06.68-.38.25-.47a.42.42,0,0,1-.32-.49c0-.23-1.89,0-1.93.52Z"/><path class="cls-4" d="M172.79,272c1,1.25,1.34,2.83,2.3,4.08.37.48,2.09-.31,1.93-.52-1-1.25-1.34-2.82-2.3-4.07-.37-.48-2.09.3-1.93.51Z"/><path class="cls-4" d="M184.18,254.18c5.71,2.82,12.09,3.5,18.34,4.16.36,0,2.19-.7,1.37-.93-4.69-1.33-13.69-7-17.83-1.82-.2.25,0,.46.29.49a21.59,21.59,0,0,0,8.4-.34c.33-.09,1.41-.82.49-.92l-9.2-1c-.5-.06-2.31.74-1.2,1,3.34.69,6.29.14,9.54-.77.31-.08,1.25-.52.66-.87a24.31,24.31,0,0,0-9.68-3.24c-.08.28-.15.56-.23.84,1.86-.67,3.21-1.87,4.89-2.9,1.11-.68-.6-.83-1.18-.49a25.71,25.71,0,0,1-4.45,2.69c-.37.13-1,.74-.23.84a23.58,23.58,0,0,1,9.33,3.14l.66-.87a16.67,16.67,0,0,1-8.11.65l-1.2,1,9.19,1,.49-.92a13.68,13.68,0,0,1-5.62.36,1.85,1.85,0,0,1,2.24-.57A21.89,21.89,0,0,1,196,256c2.14.74,4.2,1.71,6.38,2.32l1.38-.93c-6.13-.65-12.39-1.3-18-4.07-.51-.25-2.3.52-1.55.89Z"/><path class="cls-4" d="M161.09,264.73a19.62,19.62,0,0,1-5.13-1.07c-.3.43-.6.86-.91,1.28l9.2,1,.69-1.33-7-.74c-.48-.05-1.24.2-1.32.75-1,5.95,6.35,2.33,8.69.51,1-.74-.32-1.26-1.05-.92-2.47,1.15-3.84,3.41-5.82,5.17-.74.65.52.94,1,.86a13.8,13.8,0,0,0,6.22-2.89c1.07-.82-.54-1.26-1.26-.8-3,1.94-5.92,3.93-7.58,7.2-.41.8.92.81,1.33.61,3.65-1.73,6.29-5,10-6.6l-1.33-.61c-1.22,3.17-4.43,5.31-6.33,8.09-.46.67.74.76,1.09.7a24.48,24.48,0,0,0,7.68-3.13c1.14-.66.09-1.59-.83-1.05a23,23,0,0,1-7.18,2.95l1.08.7c1.91-2.8,5.08-4.86,6.32-8.08.32-.83-.85-.82-1.33-.61-3.73,1.57-6.35,4.86-10,6.59l1.34.62c1.53-3,4.23-4.8,7-6.58l-1.26-.8A11.66,11.66,0,0,1,159,269l1,.87c1.71-1.52,2.93-3.64,5.06-4.62l-1-.93c-1.6,1.25-6.14,4.18-5.48.11l-1.32.75,7,.75c.89.09,2-1.19.69-1.33l-9.2-1c-.67-.07-2,.85-.91,1.28a21.17,21.17,0,0,0,5.57,1.16c.9.09,2-1.19.69-1.33Z"/><path class="cls-4" d="M173.7,273.69a9.07,9.07,0,0,0,3.58,8.09c.31.25,1.17-.08,1.46-.22,1.19-.56,1.13-1.25,1.71-2.32.12-.22-1.64-.12-1.9.35s-.35,1.51-.91,1.77l1.46-.22a8.91,8.91,0,0,1-3.47-8c0-.21-1.89,0-1.93.52Z"/><path class="cls-4" d="M179,270.42c.81,2.1,2.52,5.69,5,6.1a2.35,2.35,0,0,0,1.35-.24c.14-.07.68-.44.23-.52-1.33-.22-2.28-1.61-3-2.64a16.48,16.48,0,0,1-1.69-3.22c-.18-.47-2.08.14-1.93.52Z"/><path class="cls-4" d="M183.35,270.34c.83,2.21,2,5.81,4.91,5.56a2.07,2.07,0,0,0,1.29-.48c.31-.33-.26-.41-.47-.39-2.12.18-3.24-3.72-3.8-5.21-.19-.52-2.1.07-1.93.52Z"/><path class="cls-4" d="M184.78,267.21c.45,3,2.67,5.2,4.79,7.19.4.37,1.82.17,1.86-.5.23-3.57-1.4-6.82-2.21-10.23-.17-.71-2.11-.21-1.93.52.78,3.29,2.43,6.49,2.21,9.93l1.86-.5c-2.06-1.92-4.21-4-4.65-6.93-.1-.7-2-.24-1.93.52Z"/><path class="cls-4" d="M185.21,258c1.63,3.92,5.52,8,9.6,9.34.28.09,1.93-.14,1.75-.65-1.45-4.16-6.08-7-8.82-10.31l-1.69.74c3.83,1.54,7.71,3,11.55,4.5.46.18,2.21-.53,1.58-.79-3.84-1.54-7.72-3-11.56-4.5-.32-.13-2.08.27-1.69.73,2.69,3.22,7.28,6.08,8.7,10.15l1.75-.66c-3.9-1.27-7.7-5.35-9.24-9.06-.21-.52-2.1.1-1.93.51Z"/><path class="cls-4" d="M184.6,250.79c.1-.9.19-1.8.29-2.7s-1.87-.74-2,.14-.19,1.8-.29,2.7,1.87.74,2-.14Z"/><path class="cls-4" d="M183.8,247.94a4.36,4.36,0,0,1,1.78-2.75.45.45,0,0,0-.21-.8,1.53,1.53,0,0,0-1.37.36,5.53,5.53,0,0,0-2.15,3.39c-.11.88,1.85.56,2-.2Z"/><path class="cls-4" d="M162.44,263.74a3.6,3.6,0,0,0-2.05-3.92l-1.5,1.07a11.37,11.37,0,0,1,3.91,3c.52.63,2.36-.11,1.77-.83a12.39,12.39,0,0,0-4.18-3.28A1.38,1.38,0,0,0,159,260c-.27.19-.56.71-.12.93a2.71,2.71,0,0,1,1.6,3c-.09.94,1.87.63,1.95-.18Z"/><path class="cls-4" d="M157.3,188.09c-2.19-6.08-4.64-12.31-5.44-18.76-.52-4.12.84-7.72,2.53-11.38a406.06,406.06,0,0,0,18.69-48.49c4.37-13.84,8.09-27.9,11.07-42.1.95-4.56,1.82-9.15,2.46-13.76.22-1.6.87-4.08.31-5.68-.19-.53-2.1,0-1.93.52.61,1.76-.14,4.34-.38,6.11C184,59.31,183,64,182,68.74a445.79,445.79,0,0,1-11.84,44.17,397.27,397.27,0,0,1-18,46.07c-4.66,10.06-.32,19.78,3.23,29.63.19.53,2.1-.05,1.93-.52Z"/><path class="cls-4" d="M186.56,47.71c-2.86-.36-11.87-3.9-14.35-.81-.73.91-.63,3.06-.81,4.16-.44,2.79-1.05,5.55-1.69,8.3a105.08,105.08,0,0,1-4,12.85c-4.95,13.09-13.57,23.92-20.08,36.15-4.32,8.1-5.18,16.93-7.06,25.75-2,9.46-5.55,18.42-7.23,28-.89,5.11-1.84,10.47-.79,15.62C132,185,136.17,192.08,139,198.9c.25.6,2.14,0,1.93-.51-2.58-6.31-5.67-12.49-7.83-19-1.63-4.92-1-9.91-.24-14.93a131.93,131.93,0,0,1,5.91-24.32c2.83-8.12,3.13-16.85,5.75-25,3.77-11.76,12.56-21.69,18.29-32.53a104.13,104.13,0,0,0,8.06-20.46A115.18,115.18,0,0,0,173.61,49c.44-2.75,1.6-2.09,3.94-1.67,2.6.47,5.17,1,7.8,1.31.53.07,2.26-.82,1.21-.95Z"/><path class="cls-4" d="M131.17,167.56c-3.66-7.2-11.46-12.43-18-16.72-8.53-5.58-17.72-8.34-27.31-11.63a323.08,323.08,0,0,1-39.3-15.92c-4-2-11.3-4-12.79-8.74-.83-2.63,2.58-7.09,3.64-9.4,1-2.15.33-5.65,1.5-7.46.57-.88-1.4-.88-1.84-.2-1.4,2.16-.55,5-1.5,7.46s-2.73,5-3.63,7.69c-1.08,3.27,1.71,5.67,4.16,7.22,11,7,24.28,11.75,36.46,16.29,11.54,4.31,24.06,7.09,34.83,13.17,8,4.5,17.77,10.69,22,19.09.38.74,2.22,0,1.77-.85Z"/><path class="cls-4" d="M38.64,98.72c5.85,5.56,12.18,9.79,20.17,11.48C69.36,112.43,80,107.94,90.09,113c7.66,3.8,12.9,11.2,20.34,15.44,3.36,1.92,7.16,3.9,11,4.46,4.82.7,10.51-.91,15,1,.76.32,2.25-.77,1.14-1.24-3.16-1.35-6.11-1-9.47-.77-6.48.54-12.12-2.2-17.59-5.32-7-4-11.9-10.68-18.93-14.64-7.4-4.17-15.57-2.79-23.63-2.39-10.9.54-19.87-4.31-27.55-11.62-.59-.57-2.42.21-1.77.83Z"/><path class="cls-4" d="M121,128.61c1.32-3.83,3.55-7.27,5-11.09A50.94,50.94,0,0,0,129,104.08c.38-4.46-.26-8.91.14-13.37a40.86,40.86,0,0,1,4.16-13.94c3.77-7.87,9.74-14.22,15.19-20.9,4-4.88,7.85-10.87,6.06-17.39l-1.32.87c5.74.52,19-1.3,20.57,6.27.16.76,2.09.27,1.93-.52C174,36.83,160,38.67,154,38.12c-.41,0-1.49.27-1.33.88,2.31,8.42-5.05,15.82-10.11,21.62a75,75,0,0,0-12.25,18.69c-3.38,7.63-3.06,15.13-3.13,23.24A44,44,0,0,1,124.61,116c-1.47,4.46-4.07,8.37-5.59,12.77-.26.76,1.69.52,1.94-.2Z"/><path class="cls-4" d="M125.67,112.9a152.37,152.37,0,0,0-19-9.42c-6.95-2.69-14.1-4.46-20.94-7.54C72.46,90,59,82.8,48.58,72.54c-.43-.43-1.48-.06-1.79.36-4.43,6-12.32,13.95-5,20.57s14.67,12.65,24.27,15.85c.57.19,2.32-.66,1.54-.92-8.74-2.92-15.42-8.14-22.21-14.17-3.06-2.71-5.61-4.61-4.63-9.15.95-4.34,5.24-8.66,7.8-12.15l-1.79.36C57,83.33,69.86,90.06,82.65,96.17c6.74,3.22,13.7,5.31,20.77,7.63,7.29,2.4,14,6.3,20.71,10,.53.3,2.32-.49,1.54-.93Z"/><path class="cls-4" d="M53.21,76.66c2-.94,6.9-3.54,7.15-5.89l-1.86.5a60.21,60.21,0,0,0,12.63,15c4.29,3.81,9.82,5.89,13.68,10.21.51.56,2.36-.17,1.79-.8-3.87-4.32-9.35-6.46-13.69-10.2a58.54,58.54,0,0,1-12.63-15c-.33-.56-1.8-.1-1.86.5-.19,1.75-4.7,4.12-6,4.75s-.12,1.38.8.94Z"/><path class="cls-4" d="M43.22,100.61a6.4,6.4,0,0,0,2.34-1.15,19.31,19.31,0,0,1,2.45-2c.32-.18.24-.39-.11-.4a2.76,2.76,0,0,0-1.37.37,9.62,9.62,0,0,0-1.72,1.26A4.75,4.75,0,0,1,43.06,100c-.15,0-1,.26-.89.55s.89.06,1,0Z"/><path class="cls-4" d="M114.06,106c1.87-9.15,7.24-17.84,6-27.4-.68-5.15-3.35-10.08-5.35-14.8-1.89-4.46-2.93-9.41-4-14.11-1-4.42-.1-9.21-.7-13.72-.28-2.13-.32-1.25,1.79-1.08s4,.2,6,.2c5.38,0,11.45-.68,15.62-4.4a.4.4,0,0,0-.19-.74c-2-.37-24-2-20.39,3.86.36.58,2.24,0,1.79-.77-1.54-2.49,11.87-2.51,12.08-2.52a4.81,4.81,0,0,1,3.73.93A13.22,13.22,0,0,1,126.71,33a28.22,28.22,0,0,1-5.92.88,61,61,0,0,1-10.29-.28,2.83,2.83,0,0,0-2.64.79.46.46,0,0,0-.19.44c1.28,5.66.19,11.45,1.47,17.11a98.32,98.32,0,0,0,5.68,17.24c2.6,6.05,4.21,11.62,2.91,18.24-1.26,6.44-4.29,12.4-5.61,18.84-.16.78,1.79.47,1.94-.22Z"/><path class="cls-4" d="M132.16,30.7c-.6,5.74-1.12,11.36.39,17a79.76,79.76,0,0,0,2.9,7.72c1.06,2.78,1,5.89,1.92,8.75.19.58,2.11,0,1.94-.52a42.37,42.37,0,0,1-1.42-7.26c-.34-2.51-2-5.24-2.89-7.61-2.22-5.94-1.56-12.22-.92-18.38.07-.66-1.86-.27-1.92.29Z"/><path class="cls-4" d="M153.58,41.29c-3.6-.44-7.15-1.22-10.76-1.68-.5-.07-1.22.21-1.31.76-.64,3.64.27,7.14.42,10.79s-.75,7.81-1.15,11.56c-.1,1,1.86.7,1.95-.15.41-3.85,1-7.71,1.16-11.57.17-3.64-1.07-7.11-.43-10.78l-1.31.76c3.6.46,7.15,1.24,10.76,1.69.93.12,2-1.21.67-1.38Z"/><path class="cls-4" d="M63.75,67.32A111.91,111.91,0,0,0,90.46,99.77c.46.39,2.22-.36,1.81-.7A111.1,111.1,0,0,1,65.68,66.8c-.3-.56-2.15.11-1.93.52Z"/><path class="cls-4" d="M65.85,64.94c2.25-5.1,7.45-9.23,11.78-12.57,3.81-2.95,4,2.12,4.75,4.34,1.1,3.42,2.21,6.84,3.4,10.23a41.75,41.75,0,0,0,9.65,15.9c5.52,5.62,12.29,9.9,18.22,15,.4.35,1.88.22,1.86-.5s0-.71-.5-1.42-2.28.08-1.79.78c.12.29.24.57.35.86l1.87-.5c-7.19-6.24-15.35-11.37-21.54-18.69C88.47,72,85.55,61.75,83.59,53.66c-1-4-2.58-5.18-6.42-2.51C72.29,54.53,66.48,59.31,64,64.85c-.41.91,1.53.73,1.81.09Z"/><path class="cls-4" d="M63.36,65.44c0,.36-.07.72-.11,1.08-.11,1,1.87.82,2-.12l.12-1.08c.11-1-1.87-.82-2,.12Z"/><path class="cls-4" d="M84.09,56.52c4.39-1,3,1.52,3.16,3.83a44.75,44.75,0,0,0,.77,6,47.58,47.58,0,0,0,5.1,12.83c.39.73,2.27.11,1.93-.51-4-7.42-6.4-14.92-5.7-23.43,0-.33-.31-.5-.61-.5a21.24,21.24,0,0,0-4.95.68c-1.18.28-.88,1.38.3,1.1Z"/><path class="cls-4" d="M93.6,38.91c4.34-1.15,8.6-2.6,13.14-1.78.68.12,2.29-.92,1.17-1.12-5.07-.91-9.73.55-14.59,1.84-1.17.31-.89,1.38.28,1.06Z"/><path class="cls-4" d="M91,37.75c-.92.78-5.16,2.33-5.94,3.85-1.37,2.65,2.23,5.82,3.49,7.71,3.19,4.76,3.62,10,4.67,15.43,1.72,9,4.4,21.44,12.54,26.85.45.3,2.08-.48,1.82-.65C99.75,85.71,97.2,73.82,95.37,65.2c-.9-4.26-1.14-8.62-2.8-12.68a31.85,31.85,0,0,0-4.75-7.29c-2.88-3.74,2.52-5.58,5-7.64.41-.34-1.4-.14-1.75.16Z"/></svg>