<svg id="layer1" xmlns="http://www.w3.org/2000/svg" viewBox="0 0 290.66 339.07"><defs><style>.cls-1{fill:#139e2d;}.cls-2{fill:#492d0c;}</style></defs><path class="cls-1" d="M252.79,271.43a3,3,0,0,0-1.06-2.27,46.88,46.88,0,0,1,.94-5.65,3.25,3.25,0,0,0-.5-2.63c.17-.68.33-1.37.5-2.06a3.27,3.27,0,0,0-1.46-3.61l-9-6c-2-1.32-4.61-4.13-7.24-3.21a3.9,3.9,0,0,0-1,.53c-.49-.22-1-.44-1.5-.63-1.7-.64-3.41.7-3.93,2.23-.08.22-.14.44-.21.65a2.55,2.55,0,0,0-.55.11c-.17.05-.33.13-.5.19a32.85,32.85,0,0,0-.06-6.94,3.14,3.14,0,0,0-2.75-2.32c-.08-.23-.15-.45-.24-.67a3.85,3.85,0,0,0-2.26-2.08A8.26,8.26,0,0,0,217,232.5a3.19,3.19,0,0,0-1.54-2.61c.47-1.33.92-2.65,1.37-4,1-2.95-2.37-4.6-4.69-3.6-.3.13-.59.28-.88.43a89,89,0,0,0,2.58-8.79,3.64,3.64,0,0,0,0-1.57c1-2.47,2-4.95,3-7.4.76-1.9-1-3.75-2.8-4,.9-.88,1.84-2.44,2.81-2.44h1.4c1.74,0,2-1.66,2-3.4v-4.22c0-.06.25-.13.42-.18a3.2,3.2,0,0,0,1.87-4.65,3.45,3.45,0,0,0-.52-3.67c-2.67-2.86-4.82-6.12-7.49-9a3.06,3.06,0,0,0-3.46-.62,20.45,20.45,0,0,0-1.68-1.37c-2-1.46-4.55.41-4.81,2.51l-.53-.52a2.81,2.81,0,0,0-.67-.49c.17-2,.11-4,.11-6.22,0,0,0-.05,0-.08a.59.59,0,0,0,0-.11h0c-.07-2-.8-2.19-1.76-2.57l0,0A3,3,0,0,0,204,163c.26-.27.52-.55.77-.83a3,3,0,0,0,2.92-.16c1.6-1.05,3.17-2,4.78-2.87a31.46,31.46,0,0,0,6-1.3c1.36-.42,1.75-1.63,1.75-3.08v-1.49c0-2-1.46-3.77-3.45-3.08-1.7.59-3.15,1.25-4.76,2a3.27,3.27,0,0,0-2.45-1.88c0-.11,0-.22,0-.33.88-1.4,1.74-2.82,2.55-4.26a2.7,2.7,0,0,0,1.34-1.29c3.15-6.41,5.83-13,9-19.44,1.27-2.58-1.54-6.43-4.35-4.38a3.68,3.68,0,0,0-1.7-.44,3.28,3.28,0,0,0-1-1c0-1.61,0-3.22,0-4.82,0-2.32-2.75-4.12-4.81-2.76a16.58,16.58,0,0,0-2.42,2c-.07-.75-.16-1.39-.26-2.13,0,0,0,.07,0,.07h0a6.55,6.55,0,0,1-.1-.9,2.73,2.73,0,0,0-1.13-1.94c.75-1,1.51-2.12,2.3-3.15a2.61,2.61,0,0,0,0-3.22,3.18,3.18,0,0,0,1.52-1.29c2-3.32,7-9.76,11.9-12.53a3.54,3.54,0,0,0,2.56.61,2.52,2.52,0,0,0,2.33-.4,16.9,16.9,0,0,0,1.35-1.17,6.9,6.9,0,0,1,3.26,3,3.41,3.41,0,0,0,1.39,1.27c.82,1.79,3.05,3.16,4.61,4.1a4.63,4.63,0,0,0,5.39-.25A14.61,14.61,0,0,0,245.9,95,3.19,3.19,0,0,0,248.19,92V87.18a3.15,3.15,0,0,0-5.07-2.75s0,0,0,0a2.92,2.92,0,0,0-3.47,1.49c-.14,0,.58,0-.42-.07V81.49c0-1.66-1-2.85-3-3.12V75.5a2.88,2.88,0,0,0-.81-2.28c.24-1,.54-1.9.77-2.85a3.23,3.23,0,0,0-4.34-3.76s0,0,0-.08c0-3-4.56-4.57-5.93-1.63a16.14,16.14,0,0,0,.13-3.71c.11-.47.22-.94.32-1.42a3.46,3.46,0,0,0,1-2.21c.17-2.62.73-4.05-.11-6.83a3.21,3.21,0,0,0-5.29-1.4h0a2.87,2.87,0,0,0-4.32,0h0a10.16,10.16,0,0,0-3.15-4.45,3.22,3.22,0,0,0-5.09.91,3.5,3.5,0,0,0-.78.51c.13-.18.25-.36.39-.54,2.13-2.79-2.09-6.05-4.64-4.18l.15-.31c1.43-3-1.4-5.63-4.37-4.37-.91.39-1.8.84-2.67,1.31v0A3.19,3.19,0,0,0,193.63,35a3,3,0,0,0-.87-.11c-5,.17-8.54,2-10.84,5.84a3.48,3.48,0,0,0-3.47-1.24,18,18,0,0,0-5.16,2,6.34,6.34,0,0,0-7-3.4c-4.27.79-7.52,4.65-9.94,8.41a8,8,0,0,0-1.41.62,25.49,25.49,0,0,0,.61-6c0-.07,0-.18,0-.24s0-.32,0-.32h0a3.15,3.15,0,0,0-6.29,0h-.05c0,1,0,.45,0,.65,0,.94-.12,1.9-.24,2.82a2.69,2.69,0,0,0-2.66.3,21.05,21.05,0,0,0-2.42,2A29.74,29.74,0,0,0,136.25,50a14.24,14.24,0,0,0-6.13,2.27l0-.69a2.87,2.87,0,0,0-.3-1.32c.59-1.25,1.15-2.53,1.68-3.81.78-1.9-1.08-3.92-2.91-4a3.31,3.31,0,0,0-4.09-2.87,3.48,3.48,0,0,0-3.17,1.35,2.85,2.85,0,0,0-2.64,1c-.36.38-.71.76-1.06,1.15l.41-1A2.62,2.62,0,0,0,116,38.24l.56-2.27c.69-2.74-2.45-5.06-4.71-3.61a4.15,4.15,0,0,0-1.17-.19v-.4a24,24,0,0,0,0-5.62A3.29,3.29,0,0,0,107.51,23a34.85,34.85,0,0,1-4.35-.78A3.55,3.55,0,0,0,100,19.55H98.54A3.76,3.76,0,0,0,95.34,22a5.58,5.58,0,0,0-.46.39,3.61,3.61,0,0,0-2.32-.82h-1.5a2.88,2.88,0,0,0-2.87,3.1V33.2c-1,.7-.66,1.39-.83,2.09-1,.11-2.16.33-1.68.54-2.09-.92-4.31-.84-6.54-.84a3.21,3.21,0,0,0-2.28,5.42c4.9,4.88,10.53,9.16,16.55,7.12a18.4,18.4,0,0,1,.45,2.55,3.81,3.81,0,0,0,.2.94c-.13,2.22-.19,4.42-.21,6.54,0,3.44,4.17,4,6,1.61.29-.38.54-.78.8-1.17-.22,1.08-.44,2.15-.65,3.2a3.17,3.17,0,0,0,4.57,3.58,3.67,3.67,0,0,0,3.11,0c.35-.16.68-.33,1-.5a41.84,41.84,0,0,0-4.21,11.85,3.83,3.83,0,0,0,.51,2.67,24.57,24.57,0,0,0-6.68,7.61A12,12,0,0,0,91.17,93a6.13,6.13,0,0,0-1.89.26,3.29,3.29,0,0,0-3.55-1.35c-6.38,2-9.23,7.34-9.74,13.58a22.51,22.51,0,0,1-3,2.33c-.5.26-1,.53-1.47.82-3.51,2.15-.4,7.49,3.22,5.54v0l.45-.27c.41-.22.87-.47,1.35-.75,2.81-1.49,5.69-2.59,8.4-4.15,0,.09,0,.18.07.27.62,3,5.65,3.13,6.16,0a16.92,16.92,0,0,1,1.75-5.19,2.9,2.9,0,0,0,2.41-1.53,10.53,10.53,0,0,0,1.14-3.36c.63-.69,1.29-1.35,2-2a3.21,3.21,0,0,0,4.7,3.51,27.55,27.55,0,0,0,8.23-7.15,16.7,16.7,0,0,0,10.17-6,3.11,3.11,0,0,0,1.43.1c-.21.66-.41,1.32-.59,2-.7,2.6,2.29,5.18,4.69,3.61l.5-.36a35,35,0,0,0-.82,6.57,3,3,0,0,0,1.4,2.59c-.47,1.34-.91,2.68-1.28,4a3,3,0,0,0,1.87,3.7c-.52,1-1,2-1.55,3a3.3,3.3,0,0,0,2.63,4.81c0,.43-.06.86-.07,1.29-.06,2.57,3.68,4.52,5.45,2.25.45-.57.89-1.16,1.34-1.74a3.32,3.32,0,0,0,.43.41c-.38.9-.77,1.8-1.13,2.72a3,3,0,0,0,2.16,3.83c-.26.49-.52,1-.76,1.51-4.29,1-6.5,4.48-6.33,9.4-.07.19-.15.4-.22.61a10.9,10.9,0,0,0-2.44,6.43,3.19,3.19,0,0,0,2.34,3.08,12,12,0,0,0,5.57.1,4,4,0,0,0,2.65,1.39,3.1,3.1,0,0,0-.65.51,23,23,0,0,0-2.22,2.58c-1.75-.11-3.75.78-3.75,2.71v7.58c0,.08.17.14.17.22-.11,1.93-.19,3.84-.41,5.73-.4.59-.75,1.18-1.13,1.78-5.74,8.73-10,18.46-15.95,27a43.58,43.58,0,0,0-7.48,5.35c-3.45.39-6.75,2.21-9.74,4.53A35,35,0,0,0,88,213.4a3.09,3.09,0,0,0-3.76-1.88,53.54,53.54,0,0,0-19,11.89,35.87,35.87,0,0,0-5.91,4.36c-5.54-.38-13.37-1.5-16.44,3.83l-.18.35-.22-.17a3.22,3.22,0,0,0-5.33,1.41c-.72,3.2-1.87,6.79-4.4,8.62a3.16,3.16,0,0,0-2.35-.38l-.05,0a22.47,22.47,0,0,0-4.3,1.44l-.14,0a2.6,2.6,0,0,0-1.55,1c-1.61,1.21-2.73,3-3.67,5.73-.86,2.56,1.72,4.25,3.93,3.93A43.44,43.44,0,0,0,31.44,252a2.73,2.73,0,0,0,1.29.23,18.22,18.22,0,0,0,2-.24,21,21,0,0,0-3.58,6.67,3.2,3.2,0,0,0,1.47,3.6,12.69,12.69,0,0,0,2.83,1.26c-.13.41-.25.81-.38,1.2a67.48,67.48,0,0,0-9.93,5.49c-2,1.4-2.21,5.33.76,5.83,5.61,1,10.63,0,13.61-5.26a9.42,9.42,0,0,0,.55-1.19,3.22,3.22,0,0,0,1.56,3.14,2.61,2.61,0,0,0,0,.28,7,7,0,0,0-1.92,2.27C36,282,44.66,286.78,49.83,288c2.28.52,4.68-1.51,3.93-3.93-.08-.24-.15-.47-.22-.7a29.62,29.62,0,0,0,2.83-1.76,2.65,2.65,0,0,0,1.79.52,11,11,0,0,0,1.17-.17,13.58,13.58,0,0,0,.24,2.29,3.16,3.16,0,0,0,3.07,2.33h3a3.2,3.2,0,0,0,3.08-4,5.81,5.81,0,0,1-.27-.94,3.45,3.45,0,0,0,4.83-2.73,31.16,31.16,0,0,1,1.2-5.3,47.41,47.41,0,0,0,5.47-5.78,3.16,3.16,0,0,0,2.31.89c2.34.38,4.15,2.32,6.47,2.84,2.92.67,4.73-2.15,3.6-4.68a13.72,13.72,0,0,0-2-3.18c.18-.2.37-.4.54-.61a3.3,3.3,0,0,0,3.91,2.53,2.63,2.63,0,0,0,.74.08,19.08,19.08,0,0,0,5.88-1.26,3.14,3.14,0,0,0,3.11,2.74c0,.15-.07.31-.11.46-.4,1.87.9,4.23,3.08,4a12.3,12.3,0,0,0,2.3-.42,16.77,16.77,0,0,0,.4,1.81,2.81,2.81,0,0,0,1.11,2.21,3,3,0,0,0,1.82.8,2.91,2.91,0,0,0,1.88-.31,2.85,2.85,0,0,0,1.7,1.58,3.21,3.21,0,0,0,4.37,4.36,27.63,27.63,0,0,0,2.64-1.64,3.44,3.44,0,0,0,3,.32c0,.61.06,1.22.13,1.83a3.82,3.82,0,0,0-.62.46,21.1,21.1,0,0,1-2.71,2.22l-.16-.05c-7.15-1.4-13.18,1.33-15.9,8.22-1.22,3.09,3.22,5.22,5.34,3.1l1.45-1.45a2.94,2.94,0,0,0,.66.45c3.81,1.91,6,2.3,10.13.23a28.93,28.93,0,0,0,5.49-3.68c.56.48,1.12.95,1.69,1.46,1.64,1.47,4.86,1.11,5.33-1.41.23-1.23.43-2.47.62-3.73a2.88,2.88,0,0,0,1.55-.84l.84-.86a2.87,2.87,0,0,0,3-.14c1.53-.91,3-1.9,4.41-2.94a3.38,3.38,0,0,0,4.57,1.44c.78-.46,1.54-.95,2.29-1.45a29,29,0,0,0-2.61,10.66c-.1,2.78,2.92,3.76,4.95,2.6-.12.35-.23.7-.35,1-.85,2.53,1.71,4.3,3.93,3.93a16.18,16.18,0,0,1,2.26-.23,6.05,6.05,0,0,0,2.24,2.72,4.15,4.15,0,0,0,3.24.67,6.48,6.48,0,0,1,.18,1.24,3.28,3.28,0,0,0,3.49,3.17,3,3,0,0,0,2.5,1.5,3.1,3.1,0,0,0,1.87,2.7,2.83,2.83,0,0,0,2.81,1.8h.06c-.13.91-.22,1.84-.26,2.79a3.2,3.2,0,0,0,3.19,3.2,11.29,11.29,0,0,0,5.12-1.57,15.69,15.69,0,0,0,7.21-2.72,10.62,10.62,0,0,0,1.87,1.86,3.57,3.57,0,0,0,3.82.52,2.48,2.48,0,0,0,3.68-.52l.49-.66h0l0-.05a46.18,46.18,0,0,0,5.26-8.93l.29,0c6.78-1,11.85-6.31,15.77-11.9a3.31,3.31,0,0,0,1.45-.39c.44-.24.86-.51,1.29-.77a11.58,11.58,0,0,0,8.73-3.11,18.58,18.58,0,0,0,.24,2c.45,2.4,3.76,3,5.34,1.41,4.61-4.73,8-9.82,9.79-16.23a3,3,0,0,0-.59-2.75A21.79,21.79,0,0,0,252.79,271.43ZM177.6,295l.26-.42c.66-1,1.29-2.1,1.92-3.16a3.79,3.79,0,0,0,3.38.83c-1,1.38-2,2.75-3.09,4.11A3.17,3.17,0,0,0,177.6,295Zm-32.8-85.36c-2,2.31-4.06,4.74-6.3,7.14.68-1,1.37-2,2.06-3s1.3-1.84,2-2.75c0-.06.11-.1.15-.16q2.73-3.39,5.33-6.87c.26-.31.53-.61.8-.92-1,1.92-2.11,3.8-3.23,5.66Zm44.4-108.75c.07-.13.15-.26.23-.39a3,3,0,0,0,.42.27l-.21.31A4.17,4.17,0,0,0,189.2,100.93Zm-12.7,86.14-1.23,2-.31.26c0-.31.06-.63.08-.94Zm22.61,22.44q.76-2.1,1.5-4.2a44,44,0,0,1,2.79-3.79c-.36,1.11-.73,2.23-1.11,3.35Q200.63,207.15,199.11,209.51ZM156.86,133.3a2.92,2.92,0,0,0,.62,1l-.74,1.08a2.79,2.79,0,0,0-1.43-.38C155.83,134.47,156.35,133.89,156.86,133.3Zm-4,124.63q1.82-2,3.57-4.14-1.22,2-2.34,4A3.09,3.09,0,0,0,152.9,257.93ZM167.45,94.74c-1.09,1.41-2.19,2.8-3.3,4.2.47-.69.95-1.37,1.42-2l1.67-2.28Zm-42.3,148.07a67.79,67.79,0,0,0,8-7.11c-.08.4-.15.81-.21,1.22-.18.18-.34.37-.52.56a57.24,57.24,0,0,1-6.88,6.4A3,3,0,0,0,125.15,242.81Zm-70,.07c0,.22,0,.44.06.66A3.55,3.55,0,0,0,55,243Zm.25,1.62c.08.29.16.58.26.86L55,246A2.67,2.67,0,0,0,55.44,244.5Zm113.41,6.82c0,.29.09.57.14.86a103.74,103.74,0,0,1-9.1,10.65,3.24,3.24,0,0,0-.13-1.24A116.25,116.25,0,0,0,168.85,251.32Zm-22.69-96.89a4.29,4.29,0,0,0,.55.31c-.13.31-.25.63-.38.95-.81,1.19-1.6,2.4-2.35,3.61C144.62,157.65,145.36,156,146.16,154.43ZM208.7,90.55c.65-1.39,1.29-2.79,1.88-4.2l0,0a3.82,3.82,0,0,0,.7,1.74c-.59,1-1.2,1.93-1.85,2.88A3.44,3.44,0,0,0,208.7,90.55Zm-25.32-29.2c.49-1,1-2,1.45-3,1.27-1.64,2.6-3.27,4-4.84-.2.87-.41,1.74-.61,2.6C186.59,57.86,185,59.58,183.38,61.35Zm-25,3.65c-.44.49-.86,1-1.29,1.47a1.51,1.51,0,0,0,0-.3c.4-.45.79-.91,1.16-1.37A2.12,2.12,0,0,0,158.42,65Zm-13.3,61.74c-.22.71-.46,1.41-.71,2.11a1.56,1.56,0,0,0-.16-.2c.08-.4.17-.8.28-1.2A7.17,7.17,0,0,1,145.12,126.74Zm79.6-58.83a2.56,2.56,0,0,0-.48-.1,3.16,3.16,0,0,0,.69-.51ZM169.08,296.22c0-.3.07-.61.11-.91a3.79,3.79,0,0,0,.75.21c-.22.27-.45.54-.68.79ZM206.82,49.29l-.18-.16q.45-.72.93-1.44C207.29,48.22,207,48.75,206.82,49.29Zm-41.1-3.92c1.7-1.52,2.31-.94,2.38.31a32.94,32.94,0,0,0-2.44,2.93,4.15,4.15,0,0,0-1.7-1.48A24.35,24.35,0,0,1,165.72,45.37ZM51.64,233.92c-1.21.84-2.43,1.68-3.67,2.5C48.3,234.93,49.29,234.14,51.64,233.92Zm161.18,67.26c.51-1.46,1-2.94,1.5-4.42a17,17,0,0,0,5.8-2.55A23.82,23.82,0,0,1,212.82,301.18Z"/><path class="cls-2" d="M118.08,39.31c-.46-1.79,0-3.69-.74-5.38-.91-2-1.82-1.11-1.18-4.08,0-.15,0-.2-.18-.26a5.45,5.45,0,0,1-3.23-2.33c-.34-.42-1.51.1-1.78.38l-1.44,1.44,1.84-.19c.26-1.12,3.41-4.32,2.09-5.69s-3.86-2.92-6-2.83c-1.95.08-3.26,1.31-5.46-.31a3.39,3.39,0,0,0-1.75-.85c-1.39-.15-2.33.81-3.16,1.74l1.79-.39c-1.85-1.22-8.57-1-8.57,2l1.75-.67L89.19,21c-.42-.14-1.76.06-1.75.67l-2.56,1.24c-.43-.1-1.73,0-1.75.67a4.29,4.29,0,0,0,1.36,3.38c1.78,2,.08,2.7-.73,4.47a3.88,3.88,0,0,0-.3,3.39c.19.52,2.69,4.52.77,4.32-.33,0-1.51.12-1.57.6-.33,3.05,3.53,4.4,2.4,7.18-.06.13.06.22.17.26,5.57,1.76,3.43,5.3,5.14,9.47.62,1.51,3.93.3,4.83,0l-1.06-.22c-.23,2.63,1.44,4.75,4.11,2.8a1.2,1.2,0,0,0,.35-.53,2.27,2.27,0,0,0-.08-.82q1.08-2.82.54.81c-1.43.46-2.24,1-2.52,2.53a.2.2,0,0,0,.17.26c1.74.41,2.11.87,1.26,2.61-.21.43.94.26,1.06.22a8.31,8.31,0,0,0,2.72-1.25,11.68,11.68,0,0,0-1.56.18v1c0,.19.3.2.41.19,2.53-.24,2.35-.47,4,1.33.35.38,1.59-.06,1.59-.61V62.27c0,.24-.71.48-1.17.71,3.1-.29,6-1.32,7.21-4.43l-1.69.57c3.37,1.54,5.42-1.57,6.79-4.22.62-1.18,1.22-3.39,2.78-3.57a10.76,10.76,0,0,0,3.43-1.23,13.08,13.08,0,0,0,3.54-2.44c.5-.56.11-2.29,1.11-2.38.38,0,1.36-.18,1.37-.71A16.3,16.3,0,0,1,130,39.9l-1.36.6c2.31-.23,3.73-.78,4.71-3,.13-.29-.42-.3-.56-.3-.78,0-3.71.57-3.83-.9a1.51,1.51,0,0,0-.86-1.19,3.48,3.48,0,0,0-2.27.23,15.36,15.36,0,0,0-3.76,2.59c-.67.53-4.22.78-5.56,1.45-1.16.58.62.64,1.15.38,1.11-.56,3.07-.29,4.56-.86s4.61-4.12,4.9-.77c0,.21.45.42.56.42h1.44c1.86-1,2-.11.32,1.27-.32,0-1.27,0-1.36.49a27.17,27.17,0,0,0-.48,4.83c.45-.23.91-.5,1.37-.73a5.51,5.51,0,0,0-3.06.78,1.1,1.1,0,0,0-.41.8c0,3.35-4.06,4-6.6,4.69-2.7.72-4.11,8.84-6.77,7.62a1.7,1.7,0,0,0-1.75.56c-1.46,1.07-3.16,2.15-4.62,3.22-.37,0-1.6.18-1.6.71v2.87a15.63,15.63,0,0,0,2.11-.6c-.18-.19-.84-1.78-1.44-2-1-.31-3.11,1-3.11-.33,0-.53-1.52.07-1.69.18l-1.24.67,1.06.22c.39-.79.58-1.6,1-2.4.1-.21-.22-.27-.34-.29-3-.52,1.15-2.73,1.54-3.16.58-.63.25-2.4-.76-2.44a7.05,7.05,0,0,0-3.3.77c-1.39.63-2.3,4.11-1.92-.14,0-.46-.81-.28-1.06-.22-4,1.09-3.06-2.59-3.44-5A5,5,0,0,0,89,47.16c-1.43-.87-4.62-6-4.43-7.74L83,40c3.5.36,4.71-.93,3.1-4.24-.65-1.35-1.12-2.11-.87-3.69s1.61-1.91,2-3.15C88,26.8,85,25.33,85.07,23l-1.75.67c2.54.58,6.09.85,6.05-2.58l-1.75.67,2.87.95c.42.15,1.75-.06,1.75-.66-.08-1.78,1.53-2.05,4.83-.83a1.71,1.71,0,0,0,1.79-.39c.23-.25,4.7,1,5.8.84a7.31,7.31,0,0,1,6.32,1.5c1.55,1.05-1.24,4.74-1.52,6-.16.68,1.62,0,1.84-.18l1.43-1.44-1.79.38c1.78,2.19,3.52,2.27,2.82,5.55,0,.14,0,.22.18.26,2.82.84,1.66,4,2.21,6.07C116.28,40.36,118.22,39.85,118.08,39.31Z"/><path class="cls-2" d="M84.11,39.79a10.89,10.89,0,0,1-.48-2.39c0-.32-1.17,0-1.29.07-.76.25-1.6.22-2.39.48l1.29-.08c-.24-1-1.2-1.41-1.44-2.39,0-.11-.26-.11-.33-.11-2.42,0-6.57,0-6.68,3.39,0,1.36,1.84,2.47,2.76,3.14a5.07,5.07,0,0,0,4.31.32h-1c1.18,1.41.93,3.57,2.15,5s3,1,4.56.46,1.93-1.76,1-3.18a7.34,7.34,0,0,0-2.17-1.94c-1.25-.81-.24-1.62-.24-2.72,0-.26-1.93,0-1.93.52,0,.76-.47,1.55-.48,2.39l0,.06A7.58,7.58,0,0,1,84.59,45c.88,1.1.69,3.15-1.24,2.09-1.7-.93-1.41-4-2.59-5.36-.21-.25-.78-.08-1,0-1.83.52-4.25-1.47-4.91-3-.79-1.88,1.67-2.51,3-2.53.26,0,1.51,2.21,1.53,2.28.07.32,1.13,0,1.29-.07.76-.25,1.6-.22,2.39-.48l-1.29.07a10.32,10.32,0,0,0,.48,2.4C82.31,40.71,84.22,40.15,84.11,39.79Z"/><path class="cls-2" d="M64,119.09c-.07,1.5-1,2.92-1.43,4.31-.27.78,1.35.37,1.58.24,1.89-1,1.82-2.87,1.79-4.76,0-.89-2-.5-1.94.21,0,1.36.33,3.08-1.08,3.86l1.59.24c.48-1.39,1.36-2.82,1.43-4.31C66,118,64,118.37,64,119.09Z"/><path class="cls-2" d="M104.37,65.24c-1.18,1.27-.82,3.14-.66,4.73.13,1.32.86.77.24,2.85-.51,1.72-.23,3.57-.66,5.34-1.16,4.82-8.54,4.59-8.2,9.51l1.34-.82c-4.37,0-7.41,6.15-11.56,4.39a1.45,1.45,0,0,0-1.74.59c-1.5,3.36-5.77,2.72-5.74,6.69.45-.27.89,0,1.34-1h-1c-.38,0-1.28.32-1.34.83C76.07,101.44,73.05,103,71,105a6,6,0,0,0-1.22,1.66c-.13.34-.38,3.46-.36,3.45-3.16,2.27-2.61,6.82,1.64,6.1.34-.06,1-.23,1.1-.66l1,0c.43.47,1.69.08,1.86-.5.24-.82.71-1.56,1-2.39l-1.74.59,1.92,1a1.42,1.42,0,0,0,1.73-.59c.3-.72,1.54-.44,2.42-1.28,1.13-1.07,1.48-2.18,3.19-.62.85.77,2.28,1.06,1.9,2.35-1.48,5,4.68,1.57,5.82-.79l-1.67.45c.79.38,1.61.57,2.39,1,.39.19,2,0,1.74-.74-.39-1.17-.18-.84-1-1.73-1.55-1.64-.35-4,.07-5.78l-1.34.68.44.3c.34.48,1.78.06,1.86-.5.35-2.55,2.49-5.62,5.78-4.61.37.11,1.73-.11,1.73-.65V99.73a3.89,3.89,0,0,0-1.51.68c4.83,0,2.86,1.81,7.11-.74,1.67-1,3.3-1.13,5.13-2.07.73-.37,3.58.83,5.3,1,3,.21,6.61-2.26,9.39-1.51.37.09,1.58-.11,1.58-.66v-.95c-1,.22-.93.45-1.37.67,3.86,0-5.78,3.24-4.06,3.19-.34,0-1.33.17-1.35.68-.06,2.45,4.22,9.13,1.08,10.88-2.86,1.61,1.58,5.07,2.19,6.79.88,2.46,2.74,7.65,6,7.76,2.67.08,6.31-1.76,8.52-3.24l-1.57-.18c-.67,3-4.38,4.56-6.51,6.41-.9.78-2.69,4.49-4.11,4.39-.33,0-1.34.19-1.34.68,0,1.86-1.16,1.61-1.63,3s.84,3.4.14,4.07c-.86.83-.19,2.42.32,3.19,1.9,2.84,3.68,5.48,4,9,0,.15.26.25.38.27,2.44.4,3.89-.29,4.91-2.56l-1.34.67a35.22,35.22,0,0,0,4.34-.42c4.65-.73-.2,1.63-2.25,1.79-1.58.13-2.23.83-3.54,1.49-.19.1-.72.36-.58.67a9.91,9.91,0,0,1,.56,7.53c-.6,2.14-1.45,6.11-3.55,7.22-.18.1-.41.33-.36.56.32,1.41,1,3.35-.85,4.12a.77.77,0,0,0-.59.67c0,1.14.6,3.64-1.08,4-.29.07-.93.36-.83.76.88,3.62-4.78,9.52-6.79,12.12-3,3.87-10,10.54-15.4,8.68a1.43,1.43,0,0,0-1.73.59c-.56,1.4-1,3.91-3.23,3.17-.48-.15-1.6.17-1.56.8l-2,3c-.38,0-1.08.14-1.27.53-1.3,2.7-4.65,2.65-6.94,1.46a1.54,1.54,0,0,0-1.55.31c-1.64,1.83-3.22,0-4.87.72-.82.34-1.59.66-2.39,1-3.82,1.67-.11,4.29-.1,7.17l1.34-.68c-1.81,0-3.74-2-4.2-3.52-.07-.24-.38-.31-.59-.31a4,4,0,0,0-3.31,2c-1.59,2.26-5.72,8.11-8.65,8.08-.3,0-1.57.26-1.34.82.35.83,1.41,2.4.26,2.82-2,.73-2.57-1.18-4.27-2.12-.38-.21-1.72,0-1.73.59a18.92,18.92,0,0,1-.48,4.31l1.86-.5c-2.06-1.83-2.81-.48-5,.24s0-.76-2-1.77c-2.63-1.32-5.29-2.54-8.27-1.9-2.15.46-1.17,3.14-.94,4.55l1.09-.81c-.95.17-1.72.31-2.65.53-.21,0-1,.39-.83.76.61,1.16,2.26,7-1.62,4.53a1.49,1.49,0,0,0-1.67.44l-4.55,2c-.46-.17-1.64-.05-1.73.59-.36,2.38-2.67,3.21-3.76,5.12l1.66-.45c-2.68-1.45-3.44-.89-5.93.07-.2.07-.56.28-.58.52-.13,1.22-1.78,5-.89,6,1.5,1.64,4.18.38,6,.16,3.06-.35,10,2.43,10.88,5.34a27.94,27.94,0,0,1,.46,4.44c.2,1.42,1,6-2.18,3.65-.43-.31-1.79-.19-1.86.5l-1.14,1.32c-.46-.16-1.65-.06-1.73.59l-1.8,1.74c-.37-.05-1.56.07-1.56.65,0,3.42,3.41,4.92,3.83,8.28,0,.17.25.23.38.27,1.83.61.14.06,1.61,1.29a1.37,1.37,0,0,0,1.86-.5c.46-1.06.36-3.67,2.27-3.18.44.11,1.46-.1,1.56-.65a19.44,19.44,0,0,1,.48-2.39l-1.56.65c2.5.47,2.75,1.9,5.22,1.25s3,1.32,5.06,1.07c1.62-.2,1.51-.89,3.25-.37,3.16.94,5.33-2.88,8.78-.57l1.53-1c-.94-.52-2.13-1.2-3.19-.54-2.37,1.47-4.64,1.55-7.49,1.9-.27,0-1.3.34-1.1.81.78,1.79,1.95,2.65,3.42,3.95l.77-.88c-2.94.59-3.68-3.9-6.77-3.44-.82.12-4.52.73-3.09,2.4l1.49-.92a34.64,34.64,0,0,0-7.88-1.93c-.37,0-1.47.25-1.33.82.69,2.8,2.11,4,4.92,4.51,1.12.21,1.5,3.31,1.4,4.19-.14,1.26.65,1.59.85,2.78.06.33.62.31.84.29,5.07-.45,4.79,2.38,8.45,4.23a1.49,1.49,0,0,0,1.67-.45l.48-.95-1.67.44a4.73,4.73,0,0,0,2.31.57c.42,0,1.23-.19,1.34-.68q-.13-2.78,1.53-2.67a1.52,1.52,0,0,0,1.27-.54,21.07,21.07,0,0,0,1.5-4l-1.55.65c3.16.74,6.39.79,9.57,1.44.49.1,1.39-.09,1.55-.65.25-.82.71-1.56,1-2.39l-1.86.5c.32.31.85.63,1.17.95s2.08.14,2.08-.5V282a15.24,15.24,0,0,0-2.08.5c5.93,6.91,7.06-7.69,8.39-10.4l-1.73.44.93.48a1.48,1.48,0,0,0,1.66-.45c2-3.63,6.56-.71,9.27-1.44a3.46,3.46,0,0,0,1.29-.55c1.63-1.33,4.07.59,5.72,1A3.7,3.7,0,0,0,97,270.2c2.39-2.81-1.7-4.72-.41-7.8l-1.93.24c0,2.73,1,2.93,2.94,5,.39.45,1.31.09,1.67-.21a9.89,9.89,0,0,0,3.06-4.11l-1.56.65c1.51.5,1.33,2.63,2.39,4.05,1.24,1.65,3.89,2.43,3.94,4.76l1.73-.73a39.93,39.93,0,0,1-5.74-2.87c-.42-.23-1.9,0-1.74.73.72,3.09,10.46,15.86,12.46,8.24l-1.55.65c3.25.68,6.38,1.25,8.75-1.46-.62,0-1.78.06-1.78.09v4.3c0,.33.2.45.51.45,2.48-.06,4.66-.38,7,.87.39.2,1.49,0,1.49-.59V282c0-.73-1-.4-1.36-.18-1.5.92-4.29,4.48-6.06,2.3-.36-.45-1.28-.07-1.62.22-3.24,2.79-2.11-1.35-4.4-1.85-1.87-.4-2.45,1.11-2.92,2.61l1.74-.59-.76-.26c-.2-.71-2-.19-1.93.52l-2.25,3.49c-.4.06-1.35.38-1,.93q2.55,3.48-.83,6.15c-.2.21-.31.48,0,.65a23.7,23.7,0,0,0,10,2.47c.41,0,1.24-.18,1.34-.68-.13.63,2.78.68,3,.62,1.3-.35,2-1.54,2.73-2.57,1.4-2.06,4,1,5.62.71,2.85-.5,5.4-1.19,8.37-.95.27,0,1.61-.29,1.34-.82-1.27-2.47-3.93-6.69,3.26-7,3.18-.12,6.4.23,8.68,2.64,1.43,1.51,2.18,3.85,3.17,5.67,1.09,2,2.52,3.87,3.63,5.9.74,1.33,1.44,5.32,3.34,5.76,1.63.39,4.4-.3,5,.29,2.48,2.48,5.27,4.41,6.38,8,.8,2.54,2.25,4,5,3.84,4.89-.33,9.15,2.32,13.81,2.46,1.14,0,2.32-.74,3.37-1,2.45-.64,4.52.22,6.93.51.54.06,1.34-.07,1.56-.65a4.6,4.6,0,0,0,.48-2.53l-1.34.81c3.3.32,5.73,1.52,8.89.33.23-.08.67-.35.58-.67-.47-1.59.09-3.17,0-4.78-.11-2-.78-3.79-1-5.74l-1.86.64c2.65,3.81,6.68.89,6.65-3l-1.34.81a10.41,10.41,0,0,0,9.16-4.83c.84-1.3,3-1.67,4.13-2.8.83-.85.38-1.93,1.26-2.8l-1.68.21c1.71,1.94,3,3.92,5.79,4s6-1.46,8.55-2.63c3-1.38,4.92-3.89,8.44-4.56,3-.57,3.78-4.36,6.7-4.79.27,0,1.28-.32,1.09-.8-.77-1.92-3.84-5.93-.84-7.58.26-.15.46-.4.29-.68-1.29-2.19-2.63-6.75-1.41-9.21a11.24,11.24,0,0,0,1.48-3.44c.22-1.23-1.9-2,.12-3.42.22-.15.5-.39.29-.68-2.4-3.26,1.86-4.75,0-8s-6.87.78-8.88-3.29c-1.42-2.88-3.23-6.31-6.77-7.08-.84-.18-2.6,1.24-2.13-1.26a1.69,1.69,0,0,0-1.22-2.09c-2.83-.41-4.56.94-6.84,2.52-2.12,1.48-2.87-1.28-3.94-2.14-1.32-1.07-1.76-.32-1.76-2.69,0-1.87.1-1.1-1.57-2.44a14.62,14.62,0,0,1-4.65-6.45c-.54-1.71.46-3.87,0-5.75-.53-2.22-3.45-.54-2.87-4.16.06-.33-.33-.44-.59-.44.25,0,.92-4.81.59-6-.44.28-.89.72-1.33.72h.47c.34,0,.94,0,.94-.47v-1.44c0-.23.07-.38-.18-.41-.69-.27-1.29-.54-2-.81-.26.3-.46.59-.71.88,1.13-.24,2.79,0,3.84-.68,1.5-.92,2.17-2.75,3.18-4.09.2-.26,0-.53-.3-.57-1.29-.16-5.71.67-3.34-1.08.16-.11.45-.31.37-.55.44-1.06.89-2.11,1.33-3.16.32-.13.73-.43.51-.8-3.91-6.77,9.06-6.54,11-10.11.16-.28,0-.51-.31-.56-3-.51-6.62-3.45-2.77-6.28.84-.62,2-.93,2.67-1.77.93-1.13,1.2-3.31-.89-3.35a11.56,11.56,0,0,0-3.74.58c-4.56,1.42-4.69.21-6.88-2.06-3-3.1-6.87-2.81-7.15-7.9,0-.24-.43-.29-.59-.3-3.3-.23-8.89-3.59-1.9-6.78,1.28-.59,2.68-.94,4-1.49a3.19,3.19,0,0,0,2.33-2.77l-1.34.68c4,.11,9,1.06,9.47-4.21a3.15,3.15,0,0,1-1.34.5h2.4c.37,0,1.28,0,1.33-.5.23-2,3-6.93-.37-7.66-3-.64-6.22,1.22-5.86,4.35l1.55-.78c-.79-.25-1.6-.21-2.39-.46-.51-.16-1.56.17-1.56.8-2.11,1.68-2.66,1.56-1.66-.38a4.49,4.49,0,0,0,.25-1.57c-.28-.59-3.52-4.55-.51-4.32,2.76.2,2.64-2.13,4.71-3.15.21-.1.69-.34.58-.66-.36-1.12-.59-2.24-1-3.35l-1.55.79,2.39.48c.37.07,1.56-.09,1.56-.65,0-1.11-.69-6.54,1.53-6.5.47,0,1.36-.22,1.34-.82-.1-3-.45-7,3.4-4.15.4.3,1.84.2,1.86-.49s.21-1.65-.53-2.13c-1.48-1-1.63-1.75-2.09-3.37-.91-3.19-4-1.63-6.06-3.38a1.41,1.41,0,0,0-1.5.08c-1.55.89-1.64-2.71-1.78-3.31s-1.29-.24-1.57,0c-2.39,1.74-4-1.83-4.46-3.11-.94-2.42.7-2.77,1.66-4.22s-.34-4.79,1.61-5.94c.32-.19.53-.53.17-.78-4-2.66,6-5.1,7.21-5.69s4.75-4.3,5.53-3.87a21.48,21.48,0,0,0,8.6,2.94,5.45,5.45,0,0,0,2.31-.18c.9-.32,3.32,6,3.8,7.06.28.59,1.62.27,1.87-.23a24.84,24.84,0,0,0,1.5-4.93l-1.56.65c1.68.43,4.91,1.43,6.18-.48,1.9-2.86-2.28-6,1.41-9,.14-.11.3-.39.12-.55-3.78-3.36-10.26.84-12.64-4.81A53.7,53.7,0,0,0,238,75.55c-1.9-3.41-2.08-5.17-1.31-8.83.13-.63-1.08-.42-1.35-.29-1.08.52-9.3-5.68-4.51-7.34,1.56-.53,4-2.14,3-4.26-1.38-3-5.61-6.09-8.13-8.25a7.3,7.3,0,0,0-7.6-1.2c-.23.08-.67.36-.58.67.65,2.21,1.4,4,3.55,5,.41.19,2.22-.21,1.66-.86-3.88-4.55-9.35-7.19-13.87-11-3.27-2.76-9.44-3.88-9.5-9,0-.32-.66-.32-.84-.29-5,.82-9.57,3-14.24,5-2.55,1.05-4.86,2.59-7.38,3.72-4.46,2-5.38-.46-8.78.45a3.46,3.46,0,0,0-2,1.43c-.12.13-4.43-.7-5-.75a6.05,6.05,0,0,0-3.11.91c-.74.45-.63,1-1.07,1.43.86-.93,2.58-1.57,3.7-2.22.29-.17.56-.56.17-.78a3.79,3.79,0,0,1-2.2-3.61c0-.23-.41-.3-.59-.3a26.24,26.24,0,0,1-6.85-.78c-.93-.24-1.37-1.29-2.5-1.59-.41-.1-1.7.15-1.56.8a20.76,20.76,0,0,1,.57,5.88c-.09,1.53-1.44.7-2.38,1.1-2.27,1-3.34,3.24-5.48,4.42-1.58.87-3.18,1.07-4.73,1.87-3.74,1.94-5,.64-8-.28-4-1.16-5.26,2.55-8.13,4.4a7.91,7.91,0,0,0-3.49,4.29c-.78,2.06-2.55,7.33-5,6.71a1.56,1.56,0,0,0-1.49.51c-1.38,1.81-1.48,3.63-1.5,5.88l1.74-.59c-1.75-.91-1.78-3-2.2-4.57-.17-.66-1.65-.19-1.86.23l-1,1.92c-.42.84,1.51.63,1.8.05l1-1.91-1.87.23c.53,2,.59,4,2.59,5,.39.2,1.73,0,1.74-.59,0-1.52-.41-5.17,1.79-4.61a1.57,1.57,0,0,0,1.49-.51c1.54-2.37,3.47-4.09,4.39-6.83s3.41-4.31,5.84-5.82a2.4,2.4,0,0,0,.8-1.27c.94-2.54,6.31.27,8.13-.08,2.8-.53,5.35-1.8,8-2.8,1-.35,5.6-4.5,5.91-4.34a2.82,2.82,0,0,0,2.53-.11c2.53-1.57,1.33-6.4.81-8.7l-1.56.79c1,.27,2.11,1.45,3.23,1.86a14,14,0,0,0,5.12.56c1,0,1.5,2.7,2.45,3.21,0,0-3.29,2.67-3.81,3.24s.14.8.65.72c2.53-.44,5-3.25,7.65-2.22,1.53.59,2.51,1,4,.34a3.31,3.31,0,0,0,1.07-1c.63-.74,3.45.26,4.47.17a23.17,23.17,0,0,0,9.67-3.52,68.67,68.67,0,0,1,13.21-5.55c2.87-.94,1.85.74,2.88,2.05a12.52,12.52,0,0,0,3.26,2.81C208,40.75,215.89,45,221,51l1.67-.85a4.72,4.72,0,0,1-2.81-3.38H223a12.68,12.68,0,0,1,2.92,2.44,55.15,55.15,0,0,0,5,4.68c3.14,2.43-.21,4.16-2,4.87A2.57,2.57,0,0,0,227.42,60c-.88,3.12,2.27,3.85,2.86,6.59.52,2.38,4.63,1.26,5.87.66L234.8,67c-.27,1.26-1,2.93-.75,4.25.47,2.5,1.89,4,2.81,6.31,1.24,3.11,1.52,6.43,5,7.73a14.61,14.61,0,0,0,4.93.49c.66,0,4.68,0,3.61,1.29a4.24,4.24,0,0,0-1,1.5,8,8,0,0,0-.11,3.86c.46,2.78.5,3.49-2.89,2.62-.47-.12-1.42.1-1.56.65a22.44,22.44,0,0,1-1.37,4.64l1.87-.23c-.81-1.72-2.42-8.1-5.2-7.76a14.11,14.11,0,0,1-7-1.07c-1.35-.47-2.64-1.68-4-2a3.59,3.59,0,0,0-2.33.38c-2.42,1.37-2.21,3.42-5.57,4.55-4.05,1.35-6,1.46-8.42,5.62a.34.34,0,0,0,.14.51c1.36.9-.57,1.36-.38,2.87.14,1.19,0,3.49-.84,4.42s-1.66,1.74-1.39,3.1c.77,4,4.14,6.92,7.81,4.26l-1.57,0c.77,3.38,1.23,5.5,4.91,3.39l-1.49.08c1.62,1.39,5.31,1,5.91,3.14.24.83.48,1.65.71,2.48.45,1.58,2,0,1.92,2.73l1.86-.5c-1.4-1-3.27-2.28-5.12-1.45-2.79,1.24-2.09,4.29-2,6.88l1.34-.82c-4.6-.09-4.21,4.24-4.21,7.85l1.56-.65-2.39-.48c-.37-.07-1.77.15-1.56.79,1.36,4.14-1.22,4.62-4.68,6a2.08,2.08,0,0,0-1.17,1.72c0,1.06,0,.74.48,1.65,1.45,2.48,1,3.65.59,6.25a.31.31,0,0,0,.2.36c3.21,1.32,6.07.12,6-3.61l-1.55.8c.79.25,1.6.23,2.39.48.46.14,1.63-.16,1.56-.8q4.08-4.12,3.57-.64a13.36,13.36,0,0,1-.34,1.55,22.32,22.32,0,0,0-.86,3.18c.45-.23.89-.8,1.34-.8h-2.39c-.37,0-1.3.29-1.34.8-.31,3.53-4.29,2.8-6.8,2.73-.35,0-1.31.21-1.33.71-.17,3.05-7.8,3.07-9,6.49a3.3,3.3,0,0,0,.77,3.94c1.11,1.19,4.37.75,4.48,2.73.23,4.07,6.3,5.4,8.57,8.14,1.92,2.31,4.33,2.17,7.05,1l2.62,1.77c-.53.32-1.07.63-1.61.93a3.42,3.42,0,0,0-.86.69c-1,1.48-1.59,2.7-1.27,4.49.19,1,1.56,1.89,2.44,2.17,2.95.94-2.8,2.05-4,2.52-2.05.8-5.94,4-5.54,6.52.23,1.53.28,1.4-.94,2.38s0,2.89-1.39,3.65c-.31.17-.55.55-.17.78s3.74,1.66,4,1.32a7.26,7.26,0,0,1-4.8,3c-.24.05-1.18.51-.76.88.64.57,2.32,1,2.32,2.08.45-.23.89-.72,1.34-.72h-.48c-.36,0-1.5.28-1.34.86.6,2.21-.39,4-1,6.1-.09.33.37.46.6.46.64,0,0,1.32.86,2.32a5,5,0,0,0,1.42.8c2.63,1.32.72,3.8.86,5.53.21,2.47,1.6,4.23,3.16,6.08,2.21,2.63,3.15,2.62,3.15,6.36,0,.33.29.45.6.45,2.82,0,2.74,3.25,6,2.86a6.73,6.73,0,0,0,3.09-1.42c1.16-.81,3-1.83,3.92.81,0,.12.18.87.49,1,.67.31,1.12.63,1.83.45,2.79-.71,5.27,2.92,6.28,5.07,1.62,3.45,2.66,4,6.47,3.9,6.07-.21.9,4.51,2.14,7.49.36.85-.36,1.67-.63,2.47-.11.32.18.7.34,1,1.22,2.1-.46,3.83-1.26,5.45s2.12,8.39,1.19,8.9c-2.92,1.61.4,6.28,1.14,8.13l1.09-.8a6.66,6.66,0,0,0-3.74,1.64c-.44.37-1.93,2.21-2.08,2.37-.85.94-3.59.93-5,1.3-2.12.57-3.53,3.41-5.38,4.31a34.25,34.25,0,0,1-5.46,2.07c-3.42,1-4.65-1.51-6.32-3.39-.36-.42-1.34-.12-1.67.21-2.92,2.92-7.55,9.93-12.25,9.65-.47,0-1.34.23-1.33.82l-2.93,1.76c-.37-.54-1.92,0-1.86.64.3,3.29,1,5.85.62,9.23-.2,1.58-5.29.1-6.46,0-.44,0-1.39.25-1.34.82a5.57,5.57,0,0,1-.47,2.25l1.55-.65c-3.25-.4-5.2-1.08-8.38-.44-1.58.32-2.72.9-4.37.41a47.83,47.83,0,0,0-7.34-1.53,20.29,20.29,0,0,0-3.73-.51c-4.58.31-4.06-3-5.53-5.43-1.7-2.76-4-4.5-6.22-6.7-.32-.32-.93-.17-1.29,0-6.5,2.58-10.08-17.9-17.21-19.43-2.68-.58-7.8-1.4-10.27.41-3.32,2.42-3.14,4.18-1.32,7.73l1.33-.82c-1-.08-3.55-.69-4.81-.41-2,.45-3.81,1.69-5.85.38a4.4,4.4,0,0,0-5,.3c-.46.3-1.78,2.85-2.5,2.18a1.54,1.54,0,0,0-1.27-.52c-.83.1-2.81.64-3,1.62l1.33-.68c-2.53-.11-9.87-.18-7.3-4,1.14-1.68,0-3.49-.78-4.95l-1,.93c3-.41,4.67-2,4.45-5.11l-1.94.52c.14.48.73.54,1.16.69s1.53,0,1.73-.59c.48-1.51.46-.49,1.21.85a2,2,0,0,0,1.54,1.23c1.48.32,3.27-1.45,4.24-2.28l-1.67.22c2.83,3.48,6.35-.89,8.91-2.48-.53-.06-.81-.12-1.81-.18v.48a11.47,11.47,0,0,0,2-.59,9.26,9.26,0,0,0-3.92-1.1c-3.33-.33-3.35-.21-3.35-3.81,0-.89-1.53-.27-1.84.09-1.41,1.63-4,.8-5.67.45-.48-.1-1.4.09-1.55.65-.67,2.56-8.22-7.4-8.59-9l-1.73.73a40.45,40.45,0,0,0,5.74,2.87c.53.19,1.75,0,1.74-.73-.07-3.65-5.22-4.41-5.27-8.61,0-.17-.26-.24-.37-.28l-1.44-.48a1.42,1.42,0,0,0-1.55.65,6.86,6.86,0,0,1-2.68,3.54l1.67-.21c-1.27-1.4-2.8-2.54-2.8-4.52,0-.89-1.7-.31-1.93.24a3.28,3.28,0,0,0-.09,2.87c.28.57.59,1.14.92,1.69,1.17,2.07-1.9,3-3.49,2.15a4.17,4.17,0,0,0-4.81.29c-.91.63-5.19,0-6.62.24-1.89.29-4,.91-5,2.66l1.67-.45-1-.48a1.49,1.49,0,0,0-1.66.45,18.9,18.9,0,0,0-1.26,4.63c-.36,1.72-.94,8-3.46,5.06-.35-.4-1.68-.11-1.68.5v1.44c0-.17,1.06-.34,1.68-.5-.32-.32-.73-.64-1.05-1a1.41,1.41,0,0,0-1.91.5c-.24.83-.73,1.56-1,2.39l1.55-.65c-3.18-.65-6.43-.7-9.58-1.43-.49-.12-1.38.1-1.56.65a21.18,21.18,0,0,0-.57,3.15,1.78,1.78,0,0,0-1,.26A5.72,5.72,0,0,0,52,290.86l1.34-.67-1.51-.4a1.5,1.5,0,0,0-1.67.45l-.48,1,1.66-.45a3.86,3.86,0,0,1-2.67-3.61c0-.25-.4-.29-.59-.3-1.44-.12-4.5,0-5.84-1.12-.75-.6-1.19-5.4-1.22-6.24,0-.24-.44-.29-.59-.3-2.91-.15-4.46-1.2-5.15-4-.45.27-.9.54-1.34.82a33.15,33.15,0,0,1,7.44,1.88c.37.13,2-.31,1.48-.91-.83-1,2.57.24,3.12.88a6.89,6.89,0,0,0,1.42,1.53,4.77,4.77,0,0,0,3.79.38c.23-.05,1.18-.51.77-.88-1.35-1.19-2.52-1.95-3.29-3.7-.36.27-.72.54-1.09.8,2-.24,5.24.23,7.21-.61,1.08-.46,1-1.52,2.2-.89.54.29,2.34-.41,1.53-1-3.75-2.51-7.49,1.87-11-.48a1.52,1.52,0,0,0-1.55.3l-1.6-.56c-.11-.32-.57-.33-.84-.29a21.81,21.81,0,0,1-7.67-.47c-.47-.09-1.42.08-1.56.65-.2.79-.36,1.59-.48,2.39l1.56-.65c-4.54-1.17-3.9,1.11-5.38,4.48l1.86-.5-.47-.54c.19-.31-.05-.48-.32-.57-1.24-.41-4.87-6.7-4.88-8.19l-1.56.65c2.62.4,4.52-.18,4.91-3l-1.73.59c2.38.81,4.29.26,4.6-2.51l-1.86.5c1.78,1.3,4.2,2.45,5.66.1,1.1-1.76.57-8.78-.5-10.29a9.64,9.64,0,0,0-5.28-3.48c-1.42-.48-3.44-2.1-5-1.89s-6.8,1.66-6.21-1.1.61-5.09,3.83-3.34a1.49,1.49,0,0,0,1.67-.45c1.26-2.19,3.49-2.76,3.89-5.4l-1.73.59c2.67,1,6.57-.22,7.89-2.84l-1.67.45c4.66,3,7.39-1.67,5.08-6-.28.25-.56.5-.83.76l2.13-.43c.36-.06,1.18-.29,1.09-.81a17.79,17.79,0,0,1-.42-3c0-.66,3.79.76,4.19.91,1.69.64,2.49,1.44,2.49,3.18,0,.24,0,.67.32.78,2,.76,4.21-3.23,5.91-1.72.45.4,1.72.13,1.86-.5a18.84,18.84,0,0,0,.48-4.3l-1.73.59c1.38.76,2.5,2,3.83,2.87a1.49,1.49,0,0,0,1.37-.17L61,229.1c.28,0,1.09-.26,1.09-.67,0-2.37.11-1-1-3.49l-1.33.82c4.66,0,6.73-4.06,9.73-7.06A6.83,6.83,0,0,0,71,216.62c.73-1.59.48-.05,1.12.87a5.9,5.9,0,0,0,4.42,2c.33,0,1.34-.18,1.34-.68,0-2-.83-2.79-1.7-4.58-.66-1.37,1-1.34,1.6-1.59,1.38-.59.86-.85,2.72-.48a4.64,4.64,0,0,0,3.28-.52c.91-.57,2.16.29,3.65.32,1.8,0,4.77-.61,5.68-2.5.39-.82,1.71-.56,2.41-1.13a4,4,0,0,0,1.5-4l-1.56.79c3.64,1.19,5.11-1.39,6.34-4.48l-1.73.6c4.93,1.71,10.06-1.71,13.81-4.62a39.48,39.48,0,0,0,7.79-8.87c1.78-2.54,4.85-5.5,4-8.78l-.83.76c3.45-.79,2.16-4,4.1-6.14.5-.57.16-3.86.24-3.91,1.46-.77,2.19-3.29,2.74-4.68a20.88,20.88,0,0,0,1.76-7.29c0-.28-.91-3.44-1.41-3.19a3.72,3.72,0,0,0,1.11-.72c.84-.84,4.27-.64,5.59-1.13a3.18,3.18,0,0,0,2-3.22c0-.42-.5-.49-.84-.43a52,52,0,0,1-6.93.94,1.44,1.44,0,0,0-1.34.68c-1.19,2.67-2.58-2.78-2.76-3.21a17.13,17.13,0,0,0-2.24-3.59c-1.55-2.06-.24-2.26-.24-4.2,0-1.46-3.12-2.65.14-4a.59.59,0,0,0,.36-.52v-1.92c0,.23-.67.45-1.11.68,2.93.2,3.47-1.3,5.2-3.51,2.29-2.93,7.41-4.8,8.27-8.65.16-.73-1.28-.35-1.54-.18-3.45,2.31-6.8,3.14-9.54-.12-2.07-2.47-1.71-5.87-4.19-8.1-1-.89.71-3.92.87-5.28.41-3.45-1.9-5.07-1.81-8.33l-1.34.68c4.14-.12,5.92-1.48,8-5.06.23-.38-.18-.8-.52-.8h-1.92c-.33,0-1.34.61-1.34,1.11v1a5,5,0,0,0,1.55-.65c-5.16-1.39-9.6,3.48-14.65.06-.43-.29-1.2,0-1.54.3-1.64,1.36-3,.29-4.61,1.31-.65.4-2.33,2.74-3.08,2.44a7.41,7.41,0,0,0-3.47-.79c-.33,0-1.2.18-1.2.68v1.91c0-.22.9-.43,1.42-.65-4.06-1.25-8.24,1.82-8.8,5.91l1.83-.5c-.47-.65-.68-.58-1.5-.65-.42,0-1.23.19-1.34.68a28.93,28.93,0,0,0-1,4.78c-.06,1,1.63,2.14,1.92,3l1.73-.73c-.78-.38-1.62-.58-2.39-1a1.49,1.49,0,0,0-1.67.45c-.73,1.49-4,4.28-1.55-.42.15-.3,0-.49-.31-.57-2.78-.64-3.22-3.24-6.16-2.72a9,9,0,0,0-2.75,2.31,1.56,1.56,0,0,0-1.55.3A4.09,4.09,0,0,0,76,113.84l1.73-.59-1.91-1a1.43,1.43,0,0,0-1.74.6c-.24.82-.71,1.55-1,2.39l1.86-.5c-1-1.1-2-2-3.56-1.31-.46.2-.65.58-1,1-.22.62-.61.28-1.16-1a8.73,8.73,0,0,1,2-3.26c.15-.12.44-.32.36-.56-1.72-5.09,6.13-6.78,6.7-11.56a3.13,3.13,0,0,1-1.34.47h1c.48,0,1.34,0,1.33-.61,0-2.07,4.73-4.18,5.75-6.45-.58.2-1.16.45-1.74.65,1.57.66,3.35,1.32,5,.63,2.72-1.1,4.14-4.79,7.32-4.81.45,0,1.38-.21,1.34-.81-.14-1.91,1.51-2.28,2.92-3.58s3.18-2.42,4.49-4c1.77-2.2.42-5.26,1.84-7.52,1.26-2-2.4-4.22-.35-6.43C106.71,64.73,104.82,64.75,104.37,65.24Z"/><path class="cls-2" d="M17.68,249.85a6,6,0,0,0-3.78,1.35,2.21,2.21,0,0,0,0,3.41c1.15.9,2.48-.43,3-1.36a5,5,0,0,0,.67-3.43l-1.53.91,1,.48c.8.4,2.22-.76,1.11-1.31l-.95-.47c-.51-.26-1.73.2-1.53.91a3.31,3.31,0,0,1-.25,2,4,4,0,0,1-.47.95s-.23.29-.17.23-.09.07,0,0a.68.68,0,0,1,.62,0,1.08,1.08,0,0,1,0-1.58,3.57,3.57,0,0,1,2.13-.64,1.11,1.11,0,0,0,1.07-.79C18.64,250,18.06,249.84,17.68,249.85Z"/><path class="cls-2" d="M207.83,307.35a2.5,2.5,0,0,0-.26,2.35,2.7,2.7,0,0,0,2,1.34,3.72,3.72,0,0,0,3.91-2c.73-1.68-.85-2.78-2.33-2.93a19.28,19.28,0,0,0-2.28,0,1.25,1.25,0,0,0-1.07.69.53.53,0,0,0,0,.53c.07.11.3.45.18.13.34.86,2.26.31,1.93-.51-.08-.2-.26-.33-.34-.47l0,.53.06-.1-1,.59c.91,0,3.66-.35,2.88,1.44a1.25,1.25,0,0,1-1.33.66c-1.12-.15-.91-1.41-.53-2.09.23-.43-.21-.76-.59-.8a1.29,1.29,0,0,0-1.26.59Z"/><path class="cls-2" d="M180.87,295.65a3,3,0,0,0-.21,1.49l1.93-.52c0-1.79-.48-3.31-2.54-2.75-1.75.47-2.94,2.09-3.79,3.59-.95,1.68-1.56,4.72.5,5.82s4.7-.6,5.94-2.26c.41-.55-1.46-.29-1.76.1-.49.66-1.15,1.72-2.12,1.55a1.9,1.9,0,0,1-1.38-1.42,5.63,5.63,0,0,1,.59-3.85,9.17,9.17,0,0,1,1.85-2.52,3,3,0,0,1,.45-.35c-.4.28-.24.07,0,.52a4.8,4.8,0,0,1,.32,2.09c0,.39,1.92.07,1.93-.52a2.56,2.56,0,0,1,.19-1.29c.18-.34-1.64-.19-1.91.32Z"/><path class="cls-2" d="M184,302c-.44-.86.45-2.57.75-3.37a21.58,21.58,0,0,1,1.95-4.05,3.55,3.55,0,0,1,.68-.77c-.57.52-.59-.21-.38.58a5.82,5.82,0,0,1,0,2.24c-.26,2.07-1.05,4.07-1.14,6.16,0,.73,1.89.32,1.92-.27.06-1.24,3.34-11.69-1.28-9.38-1.64.82-2.4,2.8-3.1,4.37-.49,1.1-2,3.76-1.34,5,.32.61,2.19,0,1.94-.52Z"/><path class="cls-2" d="M181.34,299.5c.78.78,2.17.59,3.18.52,1.33-.11,2.66-.43,4-.46,1.09,0,1.5-1.4.19-1.37-.95,0-1.89.21-2.83.33-.48.06-2.4.49-2.76.14-.6-.6-2.43.18-1.77.84Z"/><path class="cls-2" d="M191.94,293.81h-.08c-.36,0-1,.24-1.11.62-.36,1.06-.43,2.27-.71,3.35-.44,1.75-1.07,3.44-1.4,5.22-.14.75,1.7.18,1.92-.27l.2-.4c.25-.49-1.64-.3-1.92.27-.07.14-.13.27-.2.4l1.92-.27a46.71,46.71,0,0,1,1.25-4.64c.37-1.28.44-2.68.86-3.93l-1.1.62h.08c.9-.08,1.64-1.08.29-1Z"/><path class="cls-2" d="M192.37,294.56c1.31-.34,2.79-.13,2.88,1.5.11,2-2.08,2.23-3.52,2.11-.54-.05-1.68.41-1.22,1.13,1.41,2.21,3.82,5.48,6.85,4.43,1.15-.4.82-1.74-.36-1.33-1.89.65-3.87-2.63-4.72-3.95l-1.21,1.13c2.52.21,5.37-.43,6.09-3.17.84-3.14-3-3.73-5.14-3.19-1.2.31-.84,1.64.35,1.34Z"/><path class="cls-2" d="M199,293.86c-.63,1.1-.58,2.68-.93,3.91a20.18,20.18,0,0,0-1.07,5c0,.31,1.88,0,1.93-.51l0-.11c.79-.57-1.14-.31-1.48-.06s-.39.28-.42.68l1.93-.51a19.18,19.18,0,0,1,1-4.78c.35-1.17.35-2.87.94-3.91.15-.26-1.63-.15-1.91.34Z"/><path class="cls-2" d="M199.29,294.12a18.76,18.76,0,0,0,2,2.23,7.65,7.65,0,0,1,1.54,4.38c.11,2.37-2.8.94-4.1,1.19-.67.13-1.16,1-.36,1.38l.11,0c.86.36,2.24-.87,1.1-1.35l-.11-.05-.36,1.38c-.67.13.77.2,1,.23a8,8,0,0,0,1.62,0,3.06,3.06,0,0,0,2.65-1.52,5.86,5.86,0,0,0-.18-4.39,9.27,9.27,0,0,0-1.18-2.19c-.56-.82-1.46-1.37-1.94-2.23s-2.29,0-1.77.87Z"/><path class="cls-2" d="M207.82,292.86c-1,.57-1,2.15-1.1,3.18-.24,2.22-1.42,4.2-1.53,6.49,0,.46,1.75-.21,1.92-.43a.7.7,0,0,0,.2-.4c.13-.36-1.72-.16-1.9.34a.76.76,0,0,1-.2.4l1.92-.43c.09-2.07,1-3.76,1.43-5.74.15-.8-.07-2.91.73-3.35s-1.12-.25-1.47-.06Z"/><path class="cls-2" d="M204.6,293.55c.15.62,2.06.37,2.47.35,1.15,0,2.3-.22,3.44-.24a2.84,2.84,0,0,0,1.37-.37c.31-.17.27-.38-.1-.37-.68,0-5.1.7-5.25.11-.1-.38-2,.13-1.93.52Z"/><path class="cls-2" d="M203.76,303.31a26.19,26.19,0,0,0,5.49-.88c.2-.05,1-.29.87-.62s-.86-.15-1.06-.1a21.43,21.43,0,0,1-4.49.71,2,2,0,0,0-1.29.49c-.3.33.27.4.48.4Z"/><path class="cls-2" d="M212,294a30.11,30.11,0,0,1-1.6,8.18l1.93-.23c.26-2.95,1.13-5.8,1.2-8.77l-1.34.68c1.53,0,3.35-.46,4.8.11.6.24,2.36-.63,1.52-1-1.77-.71-3.72-.33-5.58-.29-.35,0-1.32.17-1.33.68-.07,3-1,5.83-1.2,8.78-.08.87,1.75.39,1.93-.23a30.12,30.12,0,0,0,1.6-8.17c0-.85-1.92-.45-1.93.22Z"/><path class="cls-2" d="M212.86,297.81a6.14,6.14,0,0,0,1.59-.31,3.41,3.41,0,0,1,1.73-.35,1.31,1.31,0,0,0,1.37-.37.59.59,0,0,0-.26-1,4.35,4.35,0,0,0-2.06,0,17,17,0,0,1-2.21.56c-1.11,0-1.47,1.52-.16,1.46Z"/><path class="cls-2" d="M219.45,293.57c-.61.48-.75,2.17-.93,2.86s-.38,1.44-.55,2.16c-.09.33-.15,1.43-.42,1.65l1.67-.44c-.35-.08.65-4.92.76-5.29a1.86,1.86,0,0,1,2.1-1.57,6,6,0,0,1,2.72.47c.49.25,2-.54,1.82-.64-2-1-5-.75-7,.09-2.35,1-2,5.35-2.4,7.39a.1.1,0,0,0,0,.15,2.23,2.23,0,0,0,1.94-.23c.51-.3.51-1.12.64-1.66.25-1,.51-2,.78-3.05.12-.42.32-1.82.62-2.06s-1.39-.11-1.75.17Z"/><path class="cls-2" d="M219.31,296.87a31.88,31.88,0,0,0,4.63-.83c.32-.05,1-.19,1.13-.53s-.68-.2-.78-.19a30.92,30.92,0,0,1-4.15.77,2.16,2.16,0,0,0-1.29.46c-.33.31.29.33.46.32Z"/><path class="cls-2" d="M217.6,298.56c-.56,1.41-.55,2.94-1,4.38-.32,1,1.27,1,1.73.42.2-.21.21-.25,0-.11.37-.14.73-.63.45-1s-.91-.32-1.31-.16a1.74,1.74,0,0,0-.78.69l1.74.41c.44-1.44.44-3,1-4.39.42-1-1.52-1.06-1.85-.23Z"/></svg>