<svg id="layer1" xmlns="http://www.w3.org/2000/svg" viewBox="0 0 243.49 206.54"><defs><style>.cls-1{fill:#c17633;}.cls-2{fill:#492d0c;}</style></defs><path class="cls-1" d="M216.29,59.62a4.77,4.77,0,0,0,0-.76,10.41,10.41,0,0,0-3.85-7,6.37,6.37,0,0,0-2.32-3.9c-8-6.84-19-9.37-29.79-9.69a7.63,7.63,0,0,0-2.63-1.12,89.22,89.22,0,0,0-22.58-1.87c-16.86-.63-33.61.74-50,6.07-16,5.22-30.38,14.05-43.92,23.89C45.74,76.48,3.9,109.07,31.44,128.46c7.72,8.94,21.67,10.4,33.3,10.79.91.16,1.83.33,2.75.48a153.65,153.65,0,0,0,23.57,1.81h2.12a155.33,155.33,0,0,0,17.39-1.2q6.44-.81,12.79-2.23a103.2,103.2,0,0,0,19.34-5.37,151.16,151.16,0,0,0,23.27-11,87.35,87.35,0,0,0,7.64-4.94,7.36,7.36,0,0,0,1.48-.15c11.48-2.49,19.4-13.46,25.4-22.7.53-.82,1-1.65,1.54-2.49,3.68-3.78,7.09-8,8.74-12.86a10.17,10.17,0,0,0,.45-4.27,6.41,6.41,0,0,0,.72-1.13C214.08,69,216.39,64.49,216.29,59.62Z"/><path class="cls-2" d="M24.2,121.17c1.54-19,14-33.88,26.84-46.84A126.42,126.42,0,0,1,75.63,54.64c8.55-5.15,18.19-8.58,27.54-12C140.73,29.13,185.27,29.79,218,54.85c.69.52,2.38-.45,1.49-1.13C185.59,27.77,140,27.93,101.29,41.89,91.74,45.33,82.19,49,73.48,54.26c-8.38,5-15.85,11.46-22.84,18.27-13.54,13.2-26.81,29.17-28.4,48.79-.09,1,1.88.74,2-.15Z"/><path class="cls-2" d="M22.25,121.5c2.89,6.19,10.63,9.63,16.52,12.15a143.13,143.13,0,0,0,28.72,8.71c20.83,4.08,43,.82,63.18-4.84,22-6.16,43.6-16.4,61.23-31.13,8.21-6.86,14.5-15.82,19.64-25.13,4.47-8.11,8.68-17.78,8.19-27.24,0-.77-2-.34-1.93.52.5,9.79-4.22,19.55-8.82,27.9a84.72,84.72,0,0,1-20.43,24.93c-16.85,13.74-37.43,23-58.2,29-19.72,5.7-41.37,8.6-61.72,4.82a142.58,142.58,0,0,1-25.22-7.27C37,131.4,27.35,127.74,24.18,121c-.36-.78-2.27-.2-1.93.51Z"/><path class="cls-2" d="M26.29,121.11C53.11,101.78,84.94,92.25,115,79.31c15.32-6.6,30.75-13,47-16.85,8.79-2.07,17.83-2.81,26.76-4a248.4,248.4,0,0,1,28-2.64c.68,0,2.07-1.07.77-1a228.07,228.07,0,0,0-24.76,2.17c-9.09,1.19-18.28,2.07-27.28,3.83-16.64,3.24-32.46,9.77-48,16.4-31.39,13.42-64.82,23.52-92.79,43.68-.87.63,1.08.6,1.54.27Z"/><path class="cls-2" d="M43.7,81.5c1.49,3.62,4.37,6.19,6.43,9.47a94.62,94.62,0,0,1,7.15,15c4.48,11.07,7,22.1,6,34.11-.08,1,1.89.77,2-.14a70.42,70.42,0,0,0-4.7-31.18,151.65,151.65,0,0,0-6.14-14.16C52,89.72,47.66,85.91,45.63,81c-.36-.89-2.28-.35-1.93.52Z"/><path class="cls-2" d="M48.26,76.29c3.7,4.07,5.86,9.18,8.77,13.8A74.16,74.16,0,0,1,65,107.15a89.91,89.91,0,0,1,3.63,17c.67,5.92-1.09,11.78,0,17.71.11.58,1.75-.07,1.92-.41l.59-1.15c.19-.38-1.65-.22-1.92.31-.19.38-.39.76-.58,1.15l1.92-.42c-1.08-5.87.22-11.78,0-17.7-.25-6.31-2.29-12.78-4.18-18.75a73.46,73.46,0,0,0-8.15-16.53C55.49,84,53.53,79.4,50.07,75.6c-.36-.4-2.18.28-1.81.69Z"/><path class="cls-2" d="M175.76,35.67c2.38,21.4,12.66,41.31,27.57,56.7.34.34,2.1-.37,1.82-.66-14.87-15.34-25.08-35.23-27.46-56.56,0-.35-2,0-1.93.52Z"/><path class="cls-2" d="M170.86,35.34c.79,12.2,5,23.71,9.71,34.86a58.36,58.36,0,0,0,7.63,13.07c3.29,4.24,8.47,6.7,11.11,11.46.4.74,2.25,0,1.77-.84-2.35-4.23-6.7-6.74-10-10.15-4.18-4.31-6.91-10.16-9.22-15.61-4.52-10.62-8.31-21.71-9.06-33.3,0-.86-2-.4-1.93.51Z"/><path class="cls-2" d="M85.28,85.68c1.64,13.13,13.7,8,21.67,4.42,9.27-4.22,18.58-8.34,28.36-11.23,4.22-1.24,10.25-1.54,13.63-4.77,3.72-3.58,3.55-9.06-1.16-11.59-3.4-1.83-8.75.77-11.76,2.22-16,7.71-33.2,12.83-49.61,19.86-1.17.5.66.43,1.11.24,11.57-5,23.22-9.32,35.13-13.37a67.94,67.94,0,0,0,12.16-5.25c4.47-2.56,11.7-5.43,14.52.39,1.43,3-.56,6.52-3,8.23-3.44,2.46-9.19,2.8-13.22,4.06-5.31,1.66-10.48,3.64-15.61,5.78-5.63,2.36-11.16,5-16.71,7.47-7.48,3.38-12.69.54-13.63-7,0-.37-2,0-1.93.51Z"/><path class="cls-2" d="M91.24,78.83l-.46-.17c-.3-.1-2,.11-1.74.7A171.15,171.15,0,0,1,97,99.59c.15.44,1.06.21,1.33.08a20.65,20.65,0,0,0,4-2.35c.09-.07.27-.25.21-.38-2.14-4.57-5.16-8.85-7-13.54C94.49,80.59,93.75,78,91,76.52c-.36-.19-1.92.1-1.75.7C91.25,84.43,95,91,97.42,98c.21.61,2.12.07,1.94-.52-1.91-6.16-2.85-12.64-6.42-18.14-.28-.44-2.06.07-1.86.62,2.38,6.82,6.44,12.84,9.21,19.5.25.59,2.12.06,1.93-.52l-.42-1.3c-.2-.61-2.12-.06-1.93.52l.42,1.3,1.93-.52C99.45,92.3,95.39,86.28,93,79.45l-1.87.62C94.65,85.5,95.55,91.94,97.42,98l1.94-.52c-2.43-7.06-6.18-13.58-8.2-20.79l-1.75.7c3.14,1.68,3.58,5.26,4.94,8.21.94,2.06,2.25,4,3.33,6C99,94,101.83,97.12,97.58,99l1.33.08A169.44,169.44,0,0,0,91,78.84l-1.74.7.45.17c.54.19,2.3-.61,1.56-.88Z"/><path class="cls-2" d="M97.44,76c2.49,6.22,4.6,12.58,7.49,18.63a.91.91,0,0,0,1.14.38c8.3-2.79-3.34-16.88-5.25-20.95-.37-.79-2.21-.36-1.93.51,2.3,7.17,4.29,14.5,8.28,21,.39.64,2.1.12,1.85-.67-2.09-6.6-3.53-13.45-7.28-19.36-.4-.63-2.18-.08-1.86.68,2.61,6.07,6.46,11.5,8.66,17.76.3.85,2.2.33,1.93-.51-.19-.58-.38-1.16-.56-1.73-.28-.86-2.21-.33-1.94.51l.57,1.73,1.93-.51c-2.2-6.27-6-11.69-8.65-17.77l-1.86.68c3.69,5.8,5.08,12.56,7.13,19l1.85-.67C105,88.32,103.09,81.08,100.82,74l-1.93.51c1.27,2.71,11.9,17.46,6.84,19.16l1.13.38c-2.88-6-5-12.41-7.49-18.62-.34-.85-2.26-.29-1.93.51Z"/><path class="cls-2" d="M107.09,73.12c-.58,2.5,1.55,6.49,2.36,8.75,1.2,3.36,2.42,7.63,4.8,10.39a1.15,1.15,0,0,0,1.53,0c2.79-2,3.32-4.76,1.77-7.9-2.5-5.09-6.07-9.57-8.58-14.67-.37-.74-2.12-.14-1.85.7a215.58,215.58,0,0,0,8,21.8c.4.88,2.1.47,1.93-.52-1.13-6.78-2.63-13.92-6.85-19.52-.48-.63-2.13-.2-1.85.7,1.77,5.52,3.17,11.51,6.74,16.2.56.75,2.39,0,1.76-.87-3.49-4.59-4.84-10.45-6.57-15.85l-1.84.7c4.14,5.48,5.57,12.51,6.68,19.16l1.93-.52a213.13,213.13,0,0,1-8-21.8l-1.85.7c1.73,3.5,3.86,6.73,5.89,10,1.94,3.16,5.62,7.58,1.38,10.68l1.53,0c-2.12-2.47-3.17-6.15-4.3-9.15-.86-2.28-3.24-6.73-2.66-9.24.23-1-1.75-.79-2,.12Z"/><path class="cls-2" d="M107.45,72.36a5.06,5.06,0,0,1,2.12-2.8l-1.72.17c1.58,4.45,3.88,8.6,5.55,13,1,2.69,2.13,6.72,4.85,8.21.46.25,2.25-.46,1.56-.84-2.91-1.59-4.12-6.89-5.18-9.78-1.42-3.81-3.49-7.31-4.85-11.15-.19-.54-1.45,0-1.72.16-1,.81-3,2-2.54,3.5.16.56,2.09,0,1.93-.51Z"/><path class="cls-2" d="M114.9,70.78c.4,3,2.76,6,3.67,9,1.08,3.59,2,7.21,4.47,10.09a1.22,1.22,0,0,0,1.81-.32c2.27-3.73,1.58-6.25-.41-9.92-2.08-3.83-3.8-8.58-7.39-11.24-.46-.34-1.72-.07-1.72.63,0,6,3.87,11.13,6.23,16.35.36.82,2.13.41,1.93-.52-1.25-5.68-2-11.75-5.44-16.61-.43-.61-2.11-.15-1.85.68,2,6.3,3.74,12.79,7.44,18.36.46.68,1.68.14,1.86-.5L126,85.2c.25-.91-1.73-.69-2,.15-.15.53-.3,1.05-.44,1.58l1.86-.5c-3.63-5.47-5.29-11.84-7.27-18l-1.86.69c3.38,4.74,4.06,10.74,5.28,16.28l1.93-.52c-2.3-5.09-6.22-10.19-6.21-16l-1.72.63c2.62,2,3.9,5,5.36,7.84,2.19,4.26,5,7.28,2.09,12l1.8-.31c-2.43-2.77-3.3-6.29-4.31-9.75-.85-2.92-3.29-6.11-3.67-9-.12-.89-2.06-.41-1.93.51Z"/><path class="cls-2" d="M123.56,66.53c1.54,5.76,4.43,11,6.36,16.6.19.54,1,.46,1.38.27l3.77,0c.52.2,1.69-.17,1.53-.88-1.44-6.72-6.86-11.61-10-17.5-.34-.65-2.09-.09-1.85.67,2,6.42,3.36,13.15,6.71,19.06.34.6,1.84.17,1.86-.49.23-6.88-3.6-13-5.77-19.37-.29-.83-2.21-.29-1.93.52,2.34,6.92,5.71,13.43,8.06,20.36.28.83,2.19.3,1.93-.52-.14-.43-.28-.87-.43-1.3-.27-.84-2.19-.3-1.93.52.14.43.28.86.43,1.3l1.93-.52c-2.35-6.92-5.72-13.43-8.06-20.36l-1.93.52c2.12,6.17,6,12.3,5.75,19l1.86-.5c-3.28-5.8-4.55-12.46-6.55-18.76l-1.85.68c3.11,5.79,8.46,10.59,9.87,17.19l1.53-.88a6.33,6.33,0,0,0-5.73.2l1.38.27C129.92,77,127,71.77,125.5,66c-.23-.84-2.16-.33-1.94.52Z"/><path class="cls-2" d="M133.38,62.86c2,6,4.74,11.85,6.78,17.9.22.64,1.18.47,1.6.17a14,14,0,0,1,3.4-2,.81.81,0,0,0,.55-.81c-1.24-7.09-6.93-11.89-8.94-18.64l-1.93.52c2,6.62,2.62,14.3,7,19.93.48.63,2,.17,1.85-.68-1.05-6.68-2.56-14.08-6.85-19.5-.43-.54-1.82-.25-1.86.5-.49,8.39,8.17,13.59,8.48,21.65,0,1,2,.7,2-.15-.3-8.1-9-13.38-8.48-21.66l-1.86.5c4.2,5.32,5.66,12.63,6.69,19.18l1.85-.68c-4.28-5.51-4.83-13.12-6.83-19.61-.27-.87-2.19-.35-1.93.52,1.07,3.6,3.11,6.6,5.15,9.73a28.59,28.59,0,0,1,3.24,6.41c.81,2.33-1.12,2.77-2.74,3.94l1.6.17c-2-6-4.74-11.85-6.78-17.9-.29-.87-2.22-.34-1.93.52Z"/><path class="cls-2" d="M144.25,60.86c2.52,3.26,4.51,18.68,11.19,14.33.1-.06.25-.19.22-.32-1.32-5.68-3.68-13.22-8.43-17-.31-.25-2,.09-1.87.6q2.82,8.66,5.63,17.32c.17.5,2.08,0,1.93-.52-1.88-6.06-2.69-12.7-6.34-18-.29-.43-2.1,0-1.93.52,2.09,6.34,4.53,12.56,6.62,18.9.17.51,2.09,0,1.94-.52-2.1-6.34-4.54-12.56-6.63-18.9l-1.93.52c3.64,5.33,4.46,12,6.34,18l1.93-.52q-2.8-8.66-5.63-17.32l-1.87.6c2.83,2.25,4.39,5.87,5.78,9.12a53.61,53.61,0,0,1,2,5.5c.65,2.1,0,1.81-1.1.28-2.83-4-3-9.45-6-13.28-.31-.41-2.15.23-1.81.68Z"/><path class="cls-2" d="M81.74,84.55c-.08-.24-.16-.48-.23-.72l-1.93.52c1.86,5.72,3.31,11.59,5.58,17.17.2.5,1.45,0,1.72-.2a7.32,7.32,0,0,1,3.46-1.61c.24,0,1.51-.25,1.37-.69-1.81-5.86-2.66-13-7.56-17.27-.36-.31-1.88,0-1.87.6.11,7.44,4,14,6.32,20.92.18.5,2.06,0,1.93-.52a157.86,157.86,0,0,0-5.76-19.18c-.2-.51-1.93,0-1.93.51,0,6,2.37,11.71,5.06,17,.24.48,2,0,1.93-.52A38.23,38.23,0,0,0,83.28,82c-.2-.28-1,0-1.25.08-5.58,1.81,4.25,18.16,6,20.87.29.45,2,0,1.93-.52-.45-6.23-2.49-14.81-8-18.56-.34-.23-2,0-1.88.6a82.65,82.65,0,0,0,4.36,13.64c1,2.36,2.69,7.84,6,7.76.57,0,2.1-.89.81-.86-2.8.07-5.24-8.35-6-10.28A76.47,76.47,0,0,1,82,84l-1.87.6c5.4,3.68,7.43,12.25,7.87,18.4l1.93-.52c-3.22-5-6.21-10.55-7.21-16.48a11,11,0,0,1-.11-2q-.3-2.85,0,.53A31.62,31.62,0,0,1,85,89.33a40.93,40.93,0,0,1,2.9,11.78l1.93-.52c-2.69-5.32-5-11-5.06-17l-1.93.51a158.55,158.55,0,0,1,5.76,19.19l1.93-.52c-2.36-6.88-6.21-13.48-6.32-20.92l-1.87.6c4.82,4.16,5.65,11.34,7.44,17.11l1.37-.69c-2.42.07-3.78,1-5.77,2.35l1.71-.2c-2.27-5.58-3.72-11.45-5.58-17.17-.17-.51-2.09,0-1.93.52.07.24.15.48.23.72.17.51,2.09,0,1.93-.52Z"/><path class="cls-2" d="M84,138c8.1,4.93,21.41.83,29.68-1.79,1.14-.36.88-1.41-.28-1-7.76,2.45-20.34,6.44-27.87,1.86-.58-.35-2.35.47-1.53,1Z"/><path class="cls-2" d="M92.56,135.33c5-.17,10-.18,14.94-.35.65,0,2.08-1,.78-1-5,.16-10,.17-14.94.34-.65,0-2.08,1-.78,1Z"/><path class="cls-2" d="M99.45,132.17c1.44.62,3.11,0,4.52-.42.25-.09,1-.32.84-.72s-.83-.29-1.09-.21c-.8.26-1.9.79-2.73.43a1.66,1.66,0,0,0-1.37.19c-.24.15-.6.54-.17.73Z"/><path class="cls-2" d="M103.57,128.24l.68-.22c.33-.11.93-.39.81-.84s-.79-.43-1.12-.32l-.68.22c-.33.11-.93.38-.81.84s.79.42,1.12.32Z"/><path class="cls-2" d="M118.21,48.26c9.31-2.9,18.83-3.68,28.53-4,1.09,0,1.49-1.46.17-1.4-9.88.37-19.57,1.18-29,4.14-1.17.36-.83,1.68.35,1.31Z"/><path class="cls-2" d="M126.77,43.75a45.49,45.49,0,0,0,12.92-.37c1-.15,1.56-1.4.23-1.2a43.16,43.16,0,0,1-12.43.35c-.82-.11-2,1-.72,1.22Z"/><path class="cls-2" d="M139,42.08c1.28.17,2.57.08,3.85.25.9.13,2-1.14.69-1.32s-2.57-.08-3.85-.25c-.89-.13-2,1.14-.69,1.32Z"/><path class="cls-2" d="M190.58,52.42c1.51.19,3-.15,4.53,0,.9.11,2-1.18.68-1.34-1.51-.19-3,.15-4.53,0-.9-.11-2,1.17-.68,1.33Z"/><path class="cls-2" d="M189.89,50.29a37.91,37.91,0,0,1,5.21.46,1.69,1.69,0,0,0,1.37-.36c.28-.27.23-.67-.2-.74a42.84,42.84,0,0,0-5.65-.52,1.53,1.53,0,0,0-1.27.54c-.25.39.21.61.54.62Z"/><path class="cls-2" d="M36.2,125.56c4.57,5.68,12,6.84,18.83,7.87.94.14,2-1.18.68-1.37-6.39-1-13.44-2-17.74-7.34-.54-.67-2.38.08-1.77.84Z"/><path class="cls-2" d="M47.43,127.74c.44,1.1,2.08.48,2.88.22.11,0,.87-.36.57-.57s-.92,0-1.25.09c-.1,0-.24,0-.05,0-.11,0-.19-.23-.22-.3-.2-.5-2.09.12-1.93.51Z"/><path class="cls-2" d="M42.53,126.51c2.19,2.12,4.9,3.14,7.58,4.47.71.36,2.42-.61,1.5-1.07-2.55-1.27-5.22-2.22-7.3-4.23-.6-.58-2.43.2-1.78.83Z"/></svg>