<svg id="layer1" xmlns="http://www.w3.org/2000/svg" viewBox="0 0 259.81 537.18"><defs><style>.cls-1{fill:#f7cc94;}.cls-2{fill:#ce2020;}.cls-3{fill:#e0aa53;}.cls-4{fill:#492d0c;}</style></defs><path class="cls-1" d="M165.84,96.93c2.17-11.1-1.73-20.69-10-29.95-.74-.83-3.14-.16-4.47.88a7.32,7.32,0,0,0-3.22.6,13.72,13.72,0,0,0-6.5,8l-.24.33a55.54,55.54,0,0,0-7,8.54,4.33,4.33,0,0,0-1.33.89c-.41.57-.81,1.14-1.2,1.72,0-.1-.07-.19-.11-.28-.75-1.66-4.42.2-5.15,1-4.26,4.93-5.24,11-5.35,17.34,0,.76.51,1,1.22,1-.09.33-.18.66-.25,1-.32,1.4,2.46.87,4.2,0l.38.74c-.37,3.47,2.32,7.25,5.39,9.66a1.24,1.24,0,0,0,.48.19,29.13,29.13,0,0,1,1.52,5.73c0,.38.11.75.16,1.12a6.16,6.16,0,0,1,1.91,1.83c.24.36.53.71.81,1,3.32.61,6.84,1.55,10.16,1.65,1.86-.9,3.66-1.89,5.48-2.85-1.62.07-3.42.34-3.42.72h0s-.63,0-1,0c0-.69,0-1.36-.09-2a21.49,21.49,0,0,0,6.49-3.93,6.61,6.61,0,0,0,2.16-1.43,36,36,0,0,0,6-14.33c2.59-2.35,3.81-5,5-8.41C168.26,96.78,166.94,96.77,165.84,96.93Zm-36.12,7.24a8.36,8.36,0,0,0-.7.59l-.31.1.78-1.72a8.31,8.31,0,0,0,.57.81Zm23-6.79c.06.26.14.52.21.77a7.34,7.34,0,0,1-.51.6h-.92c-.4-.16-.79-.31-1.2-.45A7.26,7.26,0,0,0,152.72,97.38Zm-8.12-1c0,.24,0,.47,0,.68a2,2,0,0,1-.24,0C144.46,96.77,144.53,96.55,144.6,96.33Zm-8,2.79h0l-.09.3a12.19,12.19,0,0,0-1.42.81l-.13,0A4.78,4.78,0,0,0,136.55,99.12Zm22.32,4.15c-1,.48-1.71,1.14-1.74,1.8a29.86,29.86,0,0,1-1,6,17.25,17.25,0,0,0-6.7,5c-2.73.85-5.41,1.89-8.14,2.74.3-.36.41-.73.21-1a36.77,36.77,0,0,0-2.84-3.62c-.68-1.39-1.34-2.79-2-4.15-.32-.64-1.15-.77-2.08-.59a26,26,0,0,1-2.08-3c0-.12.07-.25.12-.37,2.65,1.27,6,1,9.31,1a1.8,1.8,0,0,0,.51-.11,3.55,3.55,0,0,0,1.83,0c1.41-.31,2.83-.55,4.24-.8.72,0,1.44.09,2.16.11l.13-.14a6.35,6.35,0,0,0,2.25-.9l.93-.22c.52-.14,2.55-1,3-1.93a8.64,8.64,0,0,0,1.24-.55h.84C159,102.68,159,103,158.87,103.27Z"/><path class="cls-1" d="M148.1,97.64l.35-.17c0,.07.06.15.09.21a.76.76,0,0,0,.08.11Z"/><path class="cls-1" d="M162.67,261.48c-.37-.15-.73-.33-1.1-.49,0-.18,0-.35-.3-.49-.44-.25-.87-.51-1.3-.77.68-.18,1.28-.69.92-1.26-1.41-2.2-3.64-3.45-5.89-4.69a2.39,2.39,0,0,0,.77-.17l.65.15c.61.12,2.8-.8,1.6-1.39l-.26-.13c0-.19-.13-.37-.51-.52-2-.76-3.83-1.82-5.76-2.69a.72.72,0,0,0,.29-.48,7.57,7.57,0,0,0,0-1.06,12.79,12.79,0,0,0,2.77,1.78,1.37,1.37,0,0,0,.58.07l.34.35a1.38,1.38,0,0,0,2-.47.76.76,0,0,1,.31.47V250h.32c.6,0,2.77-.13,2.2-1.11a8.94,8.94,0,0,0-3.05-3.15c-.08-.09-.14-.22-.22-.31a6.51,6.51,0,0,0-2.09-2.61l0,0h0l-.15-.13c-.56-.41-2.62.26-2,1.07l.51.64-.13-.09a2,2,0,0,0-1.59.19l-.79-.27a2.7,2.7,0,0,0-1.25.24,8.73,8.73,0,0,0-.92-.24c-.47-.09-1.89.09-1.88.81a17.52,17.52,0,0,0,.24,3l-.12.12a13.7,13.7,0,0,0-6.12-2.39c-.46,0-1.9.36-1.58,1.11.12.28.25.56.38.83a1,1,0,0,0-.39.59,4.91,4.91,0,0,0,.1,2.38c-.61-.08-2,.27-1.72,1.08a8.39,8.39,0,0,0,1.8,2.71,20,20,0,0,0-2.28,1.85,10.18,10.18,0,0,0-5.67,2.64,9.52,9.52,0,0,0-4.31,2.38c-.72.34-1.43.7-2.12,1.09a.63.63,0,0,0-.34.87c3.18,5.74,11.69.81,17-3.24a7.9,7.9,0,0,0,2.27-1.42,22,22,0,0,0,11.23,3.9,2.3,2.3,0,0,0,1.05-.22,27.94,27.94,0,0,0,5.46.77C162.34,263.05,164,262,162.67,261.48Zm-22.19-3.4a1.08,1.08,0,0,1-.9-.41l.69-.27C140.82,257.49,140.82,257.74,140.48,258.08Zm0-2.25a1.52,1.52,0,0,0,.53.06h0l-.45.08h-.3Zm-5.2,2.39-.34.06.39-.13Zm22.84.36c-.75-.47-1.49-.95-2.24-1.44-.25-.36-.53-.73-.82-1.1A12.34,12.34,0,0,1,158.07,258.58Z"/><path class="cls-2" d="M235.23,241c0-.54-.27-1.09-.31-1.63.13,0,.06-.11.06-.19.16-5.82,1.12-11.52.16-17.28-.08-1.7-.19-3.36-.21-4.94,0-.26-.43-.46-1.05-.61a3.62,3.62,0,0,0-.48-3.44c-1.18-1.78-2.36-3.58-3.51-5.4-2.58-5.61-6.37-10.57-8.53-16.35a4.43,4.43,0,0,0-1.62-2.1c-.08-.21-.17-.41-.24-.62-1.93-5.58-3.45-11.28-5.78-16.73-.46-1.08-.94-2.15-1.42-3.22a4.56,4.56,0,0,0-.16-1.72c-1.47-5.28-4.4-9.76-6.93-14.56a3.66,3.66,0,0,0-2.66-1.95,5.12,5.12,0,0,0-1.07-2l-.11-.11a3.38,3.38,0,0,0-1.52-1.39c-3.88-3.6-7.59-7.35-11.92-10.43-1.14-.81-1.51-.31-1.48.61-1.81-1.23-3.63-2.45-5.47-3.63-.71-.46-1-.15-1,.48l-.75-.71c-1-.95-1.41-.43-1.41.54a82.19,82.19,0,0,0-7.71-3.56,1,1,0,0,0-.82-.08c-1.84-.4-.19,4.72,1.31,5.37.32.14.61.3.91.46a84,84,0,0,0,12.1,9.84c.71.46,1,.11,1-.57,2.41,3.78,4.7,7.63,7.18,11.36-.75,3.87-1.85,7.66-3,11.45,0,.13-.05.24-.08.37a104.77,104.77,0,0,0-6,10.06c-.54.62-1.08,1.22-1.61,1.81-5,5.47-10.53,10.38-15.73,15.63-8,4.58-16.36,8.9-23.18,15.25a3.78,3.78,0,0,0-.38.43c-3.12-3.19-6.45-6.2-9.89-9.1a4.42,4.42,0,0,0-3.79-1c-3.43-5-7.17-9.74-10.83-14.56a101.1,101.1,0,0,1-7.45-28.55,4.68,4.68,0,0,0-2.41-3.51c4.07-9.78,7.39-20.94,19.44-22.08,3.79-.36,3.58-5.55-.25-5.19-7.82.74-12.64,4.19-16.19,8.94a3.46,3.46,0,0,0-2.12.16,26.56,26.56,0,0,0-2.84,1.53,1.53,1.53,0,0,0-1.27,0,32.74,32.74,0,0,0-3,1.66c-13.7,6-26.51,20.7-27.62,35.81-.22.38-.44.75-.65,1.13-2.56,4.64-6.82,11.44-8.54,18a2.51,2.51,0,0,0-1.8,1.76,20.51,20.51,0,0,0-.6,2.8l-.21.31a2.29,2.29,0,0,0-.21,2l-.06.28a2.8,2.8,0,0,0,.62,2.41c-2.41,5.16-3.49,10.85-5.24,16.31-2,6.11-4.16,12.13-6.4,18.14-1.3,3.32-2.49,6.68-3.73,10a3.46,3.46,0,0,0,1.1,4.19,50.42,50.42,0,0,0-4.18,6.45A24.38,24.38,0,0,0,40.8,266c-.37,1.55,5.43,1.92,6,.33a38.67,38.67,0,0,1,3.63-7.91c1.15-1.75,2.39-3.45,3.55-5.22,1.13-1.48,2.32-2.92,3.55-4.35a5.83,5.83,0,0,0,2-.61c.09.31.18.63.25,1a2,2,0,0,0,1.75,1.31c-.35,1.25-.71,2.51-1.1,3.75-.69,2.21,4.88,2,5.84.69.82-1.11,1.68-2.27,2.38-3.45a7,7,0,0,0,1.15-.1V253c0,1.51,2.69,1.6,4.49,1.07a7,7,0,0,0,3.3,0c1.46.44,4.12.07,4.67-.43.19-.18.36-.37.54-.56a9.16,9.16,0,0,0,3.09-.12c.54,1,3.26.87,4.72.48,0,.73,0,1.48.07,2.25,0,1,1.35,1.4,2.75,1.38.21.86,1.41,1.11,2.69,1,0,.1,0,.19,0,.29,0,.74.71,1.14,1.7,1.29,0,.12-.06.22-.08.34-.33,1.74,5.24,2,6,.67,1.1-2.08,2.31-4.73,3.56-5.73h3.28c3.6,0,3.58-4,0-4h-1.35c.15,0,.3-.36.48-.7s0-.67-.37-.94a3.36,3.36,0,0,0-3-3.78c-2.74-.45-5.48-.87-8.21-1.32-6.52-3.19-12.84-6.7-20-8.37a4.16,4.16,0,0,0-1.35-.08,5.42,5.42,0,0,1-2-4.49c.22-2.56-1.77-4-3.88-4.09a4.06,4.06,0,0,0-1.2-2.58c0-.11,0-.22,0-.33a4.48,4.48,0,0,0-1.48-4.08c4.58-5.66,11-6.66,18.14-8.74A70.61,70.61,0,0,0,95,208l.93-.4c-.16,1.42-.36,2.82-.47,4.25-.28,3.67,3.77,5,6.39,3.51,3.11,4.28,7.46,7.24,11.89,10.27q3,3,5.86,6.16a4.32,4.32,0,0,0,1,1.48c.64.67,1.32,1.31,2,1.93l.68.78a3.6,3.6,0,0,0,2,1.26c5.36,3.71,12,5.92,18.41,5.41a13,13,0,0,0,5.54-1.73,6.5,6.5,0,0,0,1,0c9.24-1.32,16.67-6.36,23.72-12.17,3.76-3.1,7.32-6.43,11.21-9.37s8.12-4.17,12.16-6.53a6.23,6.23,0,0,0,3-4.26c3.74,0,7.6-.2,11.13.61.62.82,1.25,1.64,1.89,2.44a3.28,3.28,0,0,0,4,1.17c1,1.46,2,2.94,2.94,4.48a4.83,4.83,0,0,0,1,1.19c.38.87.78,1.73,1.16,2.6a3.35,3.35,0,0,0,.64,1,48.77,48.77,0,0,0,.82,9.11c.06,1,.11,2,.16,3.05l-.42.15c-1.2-1.24-3.89-1.3-4.94.08a4.33,4.33,0,0,0-2.23.37c-2.1.9-2.84,3.44-5.19,3.79l-.13,0a3.75,3.75,0,0,0-5,.24l-.27.35a3.39,3.39,0,0,0-4.05.72,3.26,3.26,0,0,0-2.24.64l-.32.27a3.92,3.92,0,0,0-4.82,1.28l-.56,1.06a2.33,2.33,0,0,0-1.83,1.1c-.13.21-.28.4-.41.6a4.24,4.24,0,0,0-2.85,1l-1,1c-1-.17-2-.22-3.11-.42-1.65-.28-5.33,1.11-3.48,3.35,2.54,3.06,5.05,6.15,7.59,9.21a2.71,2.71,0,0,0,1.09.76c0,.45.11.89.15,1.34.35,3,6.23,3.09,6,.12,1.7.28,3.82-.52,3.79-2.22A5.08,5.08,0,0,1,201,254.6c1.15.71,3.25,1.08,4.38,0,1.55.34,3.5-.15,3.94-1.53a6.82,6.82,0,0,1,2.31-2.72c.1.16.18.33.29.49,1,1.6,4.12,1.54,5.22.06a16.49,16.49,0,0,1,4.27-4.23c.08.13.18.24.26.38a3.64,3.64,0,0,0,4.95.38c.32,4.36.32,8.72.36,13.1,0,3.05,5.79,3.11,5.79.06v-4.87c2-2.89,1.22-5.75,1.42-8.64.64-.05,1.58-.16,1.58-.33v-5.55C235.79,241.16,235.3,241.09,235.23,241ZM71.79,242.65A30.32,30.32,0,0,0,76,245.54a2,2,0,0,0-.62.3c-.39.34-.73.71-1.09,1.07a6.08,6.08,0,0,0-1.83-.09c.14-.83.27-1.66.43-2.49.11-.62-.39-1-1.14-1.16Z"/><path class="cls-2" d="M163.17,269.65c.51-.78-1.6-2.74-3.12-3.64a4.54,4.54,0,0,0-2.28-1.53c-4.05-.24-7.73-1.48-11.57-2.65-.47-.14-.39.19,0,.71l-.09,0c-1-1-2.32-2.19-3.16-1.75a31.35,31.35,0,0,0-5.84,4.44,2.76,2.76,0,0,0-1.53-.72,28.55,28.55,0,0,0-8.69,2.56c-.81,0-1.62,0-2.45.09-.17-3.1.19-6.23,1.59-7.65,0,0,.06-.47.09-.47h4.34c.08,0,0,.35-.05.14.56-.07,1.11.09,1.68,0,1-.09-2.94-3.72-3.75-4-11.66-3.82-8.76,10.43-6.44,19.93a49.41,49.41,0,0,0,.94,7.51,1.15,1.15,0,0,0,.09.26c-.19.38-.38.78-.58,1.16-.59,1.14,3.89,4.82,4.53,4,4.13-5.19,7.68-10.78,11.46-16.22,2.21-1.53,4.11-3.47,6.23-5.14a15.49,15.49,0,0,0,1.89,1.9l1.06.66c0,.17,0,.34,0,.52-.93,6.46.56,12.87.74,19.37,0,1.51,4.63,4.28,4.65,3.56,0-2.14.15-4.27.26-6.4.17,0,.28,0,.28-.1,0-1,0-2,0-3.06a34.21,34.21,0,0,0,6.27-8.23C160.94,273.2,162.05,271.36,163.17,269.65Z"/><path class="cls-3" d="M174.8,96.47a61,61,0,0,0-6-25.93,15.11,15.11,0,0,0,1.27-1c-1.77-1.78-3.47-3.57-5.09-5.45a44.3,44.3,0,0,0-3.1-3.91c-.16-.18-.65-.06-1.27.2-.93-.85-1.87-1.71-2.82-2.54-.52-.45-2.49.77-3.88,1.76A19,19,0,0,0,147.45,63a9.85,9.85,0,0,0-1.19.2l-.12-.07a2,2,0,0,0-.66-1l1-1c.43-.2,3.88-2.45,2.73-2.13a51.47,51.47,0,0,0-7.06,2.58h0c-9.68,4.35-18.74,12-21.88,21.89-.58.93-1.13,1.87-1.64,2.84a1.84,1.84,0,0,0,.69,2.78.82.82,0,0,0-.12.25c-.6,1.95-1.16,3.9-1.76,5.85.17-.56,4.53-1.68,5.28-2.73,1.89-2.66,3.66-5.37,5.5-8a1.8,1.8,0,0,0,1.58.26c7.3-4.43,11.29-13,18.92-16.81,7.43-3.73,12.82,7.3,15.28,12.7a30,30,0,0,1,2.82,14.43s0,0,0,.06a13.51,13.51,0,0,0-.58,4.1c0,1.46,4.48,5,4.92,3.19a26.47,26.47,0,0,0,.63-4C173.18,97.93,174.81,97.23,174.8,96.47ZM137.42,65.29c-1.9,1.56-3.76,3.13-5.57,4.77A30.11,30.11,0,0,1,137.42,65.29ZM149.35,63a4.89,4.89,0,0,1,2.44-.76,4.32,4.32,0,0,1,3.45,1.92,23.67,23.67,0,0,1,1.32,2.32,28.22,28.22,0,0,0-3.2-2.13A10.14,10.14,0,0,0,149.35,63ZM158,67.62c.37-.14.84-.33,1.34-.56l1.2,1.16a49.91,49.91,0,0,1,3,5.32A37.83,37.83,0,0,0,158,67.62Z"/><path class="cls-4" d="M133.54,490.64c0-1.85,0-3.7-.07-5.55,0-.65,0-1.3,0-1.95.12-6.19,3.08-13.61,1-19.6-.33-.91-2-.65-2.3.2-.09-.13-.53-.19-.7-.22-.12-1-2.64-.54-2.64.42v0a5,5,0,0,0-.07-1.5c-.25-.87-1.58-.68-2.06,0a1.57,1.57,0,0,0-1,.13c-.16-.95-.28-1.9-.45-2.84s-2.35-.57-2.34.39c0,.48,0,1,.06,1.44-1.46,3.75,0,7.94.82,11.69l.24,1.07c.59,4.56,1.36,9.09,2.18,13.62a19.1,19.1,0,0,0-.89,4.4,1.29,1.29,0,0,0-.56.4c-2.89,4.27-3.1,9.13-2.41,14.11-.73-.06-1.68.45-1.57,1.2l.06.43c-.61.13-1.2.63-1.15,1.2a56.53,56.53,0,0,0,1.63,8.13c.1.42.5.58,1,.57,0,.17.08.34.13.51a.85.85,0,0,0,.81.57,18.82,18.82,0,0,0,2.37,4.62c0,.37,0,.73.06,1.09,0,.77.93.94,1.61.7a1.39,1.39,0,0,0,1,0c0,.5.05,1,.06,1.48,0,1.26,2.38.92,2.37-.16,0-1.77-.07-3.53-.15-5.3.16-.45.31-.9.44-1.36a1.46,1.46,0,0,0,.78,0c.41,1.82.89,3.62,1.45,5.42.3.93,1.93.64,2.28-.16a1.07,1.07,0,0,0,.56-.55c.17-.61.34-1.24.49-1.89a1.34,1.34,0,0,0,2.28-.51,37,37,0,0,0,.44-3.92,1.3,1.3,0,0,0,1.19-1c1.47-9.12-2.3-18.62-6-26.78A1,1,0,0,0,133.54,490.64Zm.52,26.28c0,.41-.07.81-.11,1.22-.16-.93-.29-1.89-.37-2.86C133.73,515.83,133.89,516.38,134.06,516.92Zm-8.86-20.58c.07,1.59.23,3.18.4,4.77q.36,3.18.78,6.36c-.33-1.64-.71-3.28-1.17-4.9-.11-.42-.54-.58-1-.57A16.76,16.76,0,0,1,125.2,496.34Zm2.59,23.11c.08.91.16,1.83.23,2.75l-.12.31C127.87,521.48,127.84,520.47,127.79,519.45Z"/><path class="cls-4" d="M169.65,504.91c-.12-.52-.25-1-.41-1.55a58.55,58.55,0,0,0-1.75-12.72c-.15-.57-.86-.57-1.46-.35,0-.66,0-1.32,0-2s.12-1.46.17-2.19c.06-.45.1-.9.15-1.35q.27-1.8.36-3.6a45.32,45.32,0,0,0,1.11-11.08c.2-1.36.39-2.72.57-4.09l.54-3.05a9.33,9.33,0,0,0,0-3.09c0-.33-.08-.65-.08-1h0V460h.33c0-2-.25-1.2-.62-1.22a4.24,4.24,0,0,0-4.22-2c-.93.07-2,1.19-.55,1.19h.36v.06c-.6,0-2.67.06-3.79.12h-.06v0l-.33,0a1.59,1.59,0,0,0-1.74.65l-.19.3-.74.1c-.84.15-2.09,1.4-.56,1.54l.44.26a1,1,0,0,0,.95.29c-1.57,6.36-.42,12.91.75,19.27,0,.37.06.74.1,1.11a44.08,44.08,0,0,1-.47,6.87c-.49.11-.9.38-.89.81.07,2.8.28,5.6.42,8.39-.4,2-.73,3.95-1,5.94a1.33,1.33,0,0,0-1,.65c-.27.69-.5,1.41-.71,2.16A3,3,0,0,0,153.4,508a1.61,1.61,0,0,0-1.26.92,15.71,15.71,0,0,0-.48,2c-1.32,3.65-.69,7.72.81,11.3.55,2.18,1.22,4.33,1.84,6.41.12.38.58.5,1.06.46l0,.08c.19.55,1.08.58,1.71.3a20,20,0,0,0,1.09,2c.41.65,2.25.18,2.25-.61,0-.45,0-1.14.06-2,.68.47,2.32-.08,2.1-.93s-.46-2-.63-3c.39.7,2.26.22,2.27-.56,0-.5,0-1,0-1.5.05.37.1.74.14,1.12q.09,1.21.21,2.43c.1,1,2.41.39,2.34-.63,0-.8-.13-1.6-.21-2.4-.09-1.1-.16-2.2-.23-3.31a.8.8,0,0,0,.45-.59v-.22c.52-.15,1-.49,1.08-.87.13-.64.22-1.3.33-2a1.18,1.18,0,0,0,.68-.55c.11-.26.18-.55.27-.83a1,1,0,0,0,.35-.45c.09-.3.17-.58.23-.87.49-.18.88-.53.81-1a47,47,0,0,1-.68-7.39A.62.62,0,0,0,169.65,504.91Zm-4.25-46.33-.15.15a1.81,1.81,0,0,0-.81.11l-.07,0a7.52,7.52,0,0,0,.79-.34A1.73,1.73,0,0,1,165.4,458.58Zm-5,33.45c-.05.65-.09,1.3-.11,2h-.12c-.06-1-.11-2-.15-3.07a1.56,1.56,0,0,0,.2-.16Zm-2.23,29.13c.07.35.15.69.23,1,0,1.3-.06,2.6-.11,3.86-.11-.33-.22-.67-.32-1C158,523.78,158.09,522.47,158.13,521.16Zm2.63-17.61a48.52,48.52,0,0,1,1.2,10.66A50.64,50.64,0,0,1,160.76,503.55Z"/><path class="cls-4" d="M196.1,96.12c2.56-5.6,2.44-11.62.81-17.49a37.22,37.22,0,0,0-6.75-16.37,24.55,24.55,0,0,0-4.77-4.61l-.65-.81a1,1,0,0,0-.7-.27c-4.61-5.5-11.26-8.92-18.12-10.82a1.73,1.73,0,0,0-.81.08C157.74,42.27,149.48,42,141.39,43H141a1.14,1.14,0,0,0-.51.13q-2,.3-4.05.72l-2.49.22a1.91,1.91,0,0,0-1.08.6c-2,.49-3.88,1-5.74,1.62a52.39,52.39,0,0,0-14.4,7l0,0a1.41,1.41,0,0,0-.49.13A36.82,36.82,0,0,0,99.45,66a26.37,26.37,0,0,0-2.53,4.26s0,.07,0,.1l-.45.87a.74.74,0,0,0-.17.33l-.45.87a.57.57,0,0,0,0,.5,23.57,23.57,0,0,0-1.9,11.62c-.73,5.4,1.16,12.64,4.37,16.23.42.87.86,1.68,1.31,2.43.09.15.36.19.69.17a15.1,15.1,0,0,0,6.26,6.75c.54,1.23,1.34,2.22,1.55,2.83.31.9,2.72.51,2.72-.41v-.08a17.32,17.32,0,0,0,7.79,3.15s-.12,0-.08,0c1.66,2.5,4.1,3.13,7,3.71.4.19.76.39,1.17.57a1.61,1.61,0,0,0,1.29-.17l.08.07c.63.54,2.73-.41,2-1.15l-1.84-1.78a13,13,0,0,0-2.2-3.73c-.51-1.54-1.16-3-1.83-4.6a1,1,0,0,0-1.06-.5c0-.36,0-.72,0-1.11A1,1,0,0,0,122,106H118.2a1.93,1.93,0,0,0-1.26.92l-.73-.55c-.16-.13-.32-.25-.47-.39l0,0a1.54,1.54,0,0,0-1.34,0c-1.11-1-2.28-1.85-3.52-2.72a1.13,1.13,0,0,0-.72-.13A19.76,19.76,0,0,0,110,99l0-.19a.51.51,0,0,0,.12-.61l-.45-.9a2.81,2.81,0,0,1-.08-.31.51.51,0,0,0-.11-.6l-.1-.12a22.72,22.72,0,0,0-.89-2.4.84.84,0,0,0-.71-.48c-.15-.27-.3-.53-.47-.79a.85.85,0,0,0-.8-.33l-.11-.21c0-.08,0-.16,0-.24,0-.39-.17-.79-.16-1.2a4.4,4.4,0,0,1,1.65-3V88a4.14,4.14,0,0,1,.5-.05s.12,0,.13.05c.28.45,2,0,2.15-.57l.32-.06a.61.61,0,0,1-.1-.34V85.21c0-.11-.35-.15-.72-.12-.6-1-1.63-3-2.1-3.86,0-.12-.07-.23-.08-.35l-.13,0,0,0c-.17-.26-.93-.19-1.52,0l-.12-1.1c.36-.13.64-.28.68-.45.18-.87.32-1.75.44-2.65.67,0,1.65-.35,1.73-.65a.09.09,0,0,1,0,0h0l.06-.29.21,0a6.27,6.27,0,0,0,.91.75c.53.36,2.11.08,2.09-.75a4.7,4.7,0,0,1,0-.53,3.72,3.72,0,0,0,1.22-.39c.84,0,1.72-.57,2.48-2.12a.62.62,0,0,0,0-.62,7,7,0,0,0,.94-1.05.48.48,0,0,0,.22-.23s0-.07,0-.11c.44-.13.75-.33.75-.58v-.9c1-.06,0-.12,0-.19v-.06c0-.93,2-2,2-3h0a22.33,22.33,0,0,1,0-2.71c.07-.67-.84-.74-1.42-.64,0-.06-.14-.11-.13-.16.14-.43.23-.86.41-1.27a1.08,1.08,0,0,0,.43-.23c.28-.23.56-.46.85-.68.15-.06.29-.4.44-.46a10.51,10.51,0,0,0,1,2.25h-.15c.15,0,.73.49,1.28.33.09.7.2,1.53.35,2.23.1.47,2,0,2.26-.39.44.35,2-.22,2.22-.58l.12-.17c.26-.12.45-.27.44-.45v-.33c1.43-2.76,2.55-6.87.6-9.34a17.39,17.39,0,0,0,6.58-3.89,10.67,10.67,0,0,0,4.22-1.33,10.77,10.77,0,0,0,4.74-1.32c.38-.21.58-.44.62-.64.67-.17,1.35-.36,2-.57l.4-.1c1.38.23,2.76.45,4.15.6a2.74,2.74,0,0,0,1,1.11,4.84,4.84,0,0,0,.28.91c-.29.12-.49.33-.41.66a2.69,2.69,0,0,0,3,2.41A10.5,10.5,0,0,0,162,50.8c.67.29,1.35.56,2.06.79a1.14,1.14,0,0,0,.49,0c.33.16.66.31,1,.45l.16.23c0,.14,0,.28,0,.41a6.27,6.27,0,0,0-.5,2.78,6.28,6.28,0,0,0,.76,1.91c-.27.14-.12.33-.12.59v1.08a.59.59,0,0,0,.44.65c2.54.74,4.66,1.38,4.91,4.44,0,.32.19.46.52.5a9.55,9.55,0,0,0,.33,2.16,11,11,0,0,0,4.83,7.43c.69.46,2,0,2.06-.89H179c.16.12-.15.24,0,.35s-.26.07-.26.09v0a5.64,5.64,0,0,1,0,1.74,1.21,1.21,0,0,0-.84.86,6.89,6.89,0,0,0-.43,3.25c0,.6.58.77,1.15.69,0,.13,0,.26,0,.39,0,.63.59.8,1.17.69l.09.55a21.42,21.42,0,0,0,2.8,8.81,34.57,34.57,0,0,0-4.16,8.11c-.23.55-.43,1.09-.62,1.64a1.8,1.8,0,0,0-.46.21c-2,1.44-3,3.08-2.84,5.25-.07.16-.15.31-.21.46a.58.58,0,0,0,0,.59c-.33.43-.48.69-.29.6a5.43,5.43,0,0,0-.59,1.43,7.87,7.87,0,0,0-3.42,2.48,3.22,3.22,0,0,0-2.07,1.64c-1.78.09-3.53.65-4.39,2.16a.56.56,0,0,0,0,.61c.06.08.13.13.13.2v.35a.75.75,0,0,0,.63.64c.34.07.68.11,1,.16a3.36,3.36,0,0,0,1,.16,1.61,1.61,0,0,0,1.06.21c11.24,2.3,24.88-12,29.23-20.68C196.94,96.54,196.54,96.2,196.1,96.12Zm-1.86-11.47a28.79,28.79,0,0,1,0,3.22c-.07-.24-.13-.48-.19-.73,0,0,0-.06,0-.09,0-.59,0-1.27,0-2C194.12,84.92,194.18,84.78,194.24,84.65Zm-12.89,21.14a2.75,2.75,0,0,0,.49-.14q-.36.39-.75.75C181.18,106.2,181.27,106,181.35,105.79ZM188,91.18c-.14.38-.31.76-.47,1.14l-.38.36c.27-.47.51-.94.75-1.42Zm2.21-13.34a18.25,18.25,0,0,1-.53-2.77C189.9,76,190.07,76.91,190.22,77.84ZM113.05,58.53h0l0,0Zm-8.72,9.38c.32-.43.64-.88,1-1.33-.37.79-.76,1.57-1.16,2.33A2.44,2.44,0,0,1,104.33,67.91ZM113.9,57.6h0Zm3.48-3.29-.27.09c.12-.09.24-.18.35-.28A.71.71,0,0,0,117.38,54.31Zm9.78-5.68s0,0,0,0l.3-.11ZM98.28,78.72s0,.09,0,.14l-.06.12c0-.09-.07-.17-.11-.25Zm85.42-2a17.84,17.84,0,0,1,.9,4.25,19.17,19.17,0,0,0-.74-2.56C183.8,77.88,183.74,77.32,183.7,76.76Zm-5.89,36.51.38-.27s0,0,0,.06ZM99.28,96.83c0,.13,0,.26,0,.39a42.63,42.63,0,0,1-1.49-4.72C98.32,94,98.81,95.42,99.28,96.83ZM129.7,51.55a16.53,16.53,0,0,0,2.08-.9A9.58,9.58,0,0,1,128.86,52Zm42.14,7.86,0-.31.4.3a.64.64,0,0,1,0,.07l.27.45v.29a1.9,1.9,0,0,0-.48-.41l-.32-.15A.68.68,0,0,0,171.84,59.41Z"/><path class="cls-4" d="M123.91,41.87a1.57,1.57,0,0,0,.91.06l.23-.07a2,2,0,0,0,.85.07,8.13,8.13,0,0,0,1.18-.31,11.42,11.42,0,0,0,5-1.07,30.52,30.52,0,0,0,9.7-.8c0,.2.17.39.52.53,4.8,1.92,10.56,1.74,15.53.57a1.3,1.3,0,0,0,.4-.18c.39.13.79.24,1.18.36.81.28,1.61.57,2.4.89a1.44,1.44,0,0,0,1.11-.11c.44.06.88.13,1.33.17a1.76,1.76,0,0,0,1-.3l.17.1a1.47,1.47,0,0,0,.5.16,19.39,19.39,0,0,0,1.49,2.38,1.37,1.37,0,0,0,2.26-.6c.45-4.75-.9-9.27-2.62-13.68a18.89,18.89,0,0,0-2.32-7.5c-.13-.3-.26-.61-.4-.91a.76.76,0,0,0,.34-1.13c-2.52-3.84-6.17-7.48-11.05-6.28a1.17,1.17,0,0,0-.46.23,26.44,26.44,0,0,0-2.71-.28,1.72,1.72,0,0,0-.44.06,28.68,28.68,0,0,0-11,.53,1.14,1.14,0,0,0-.9,1.05,1.07,1.07,0,0,0-.4,0c-.29,0-.56.12-.84.18a1.77,1.77,0,0,0-1.67.15c-5.71,4-9.66,12.1-10.52,19.37-.28.77-.53,1.56-.75,2.36-.51,1-1,2-1.53,3.07S123.25,42.14,123.91,41.87Zm4.34-6.29c.32-.21.63-.44.93-.68a2,2,0,0,0-.2,1.67,1,1,0,0,0-.3.14l-1,.75c.08-.18.15-.36.23-.55a.85.85,0,0,0,.06-.45C128.05,36.16,128.15,35.87,128.25,35.58ZM160.93,21.2l-.16,0a1.63,1.63,0,0,0-.54,0,1.37,1.37,0,0,0-.35,0,.82.82,0,0,0-.21-.34.65.65,0,0,0,.23-.65A8.57,8.57,0,0,1,160.93,21.2Zm-17,6.73a.86.86,0,0,0-.23-.13c.12-.21.24-.41.37-.61a6.91,6.91,0,0,1,.53-.66C144.38,27,144.15,27.47,143.91,27.93Zm9.78-6.46a1.29,1.29,0,0,0-.33.33.58.58,0,0,0-.14,0,2.27,2.27,0,0,0,.4-.29Zm-9.58,12.34.07-.07a1.58,1.58,0,0,0,.91-.41l.15-.18v0a.71.71,0,0,0,.21,1h-.19a1.35,1.35,0,0,0-1.06.57A4.4,4.4,0,0,0,144.11,33.81Zm14.31,3.12a1,1,0,0,0,.18.1h-.1Zm-1.3-1.46.23,0c.25.41.51.81.78,1.19ZM139.75,16.64c-.19.34-.15.68.37.85a1.92,1.92,0,0,0-.38.19,2.12,2.12,0,0,0-.67-.25l-.27,0c0-.26,0-.53,0-.77a.47.47,0,0,0,0-.14l.09,0Z"/><path class="cls-4" d="M237.54,407a4.65,4.65,0,0,0-1.56-1.93q-.81-3.87-1.67-7.69a258.72,258.72,0,0,0-5.78-42,3.86,3.86,0,0,0-5.16-2.83q-1.05-4.19-2.09-8.38c-.12-.89-.23-1.67-.33-2.57,0-.26,0-.65,0-.65h-.11a3.58,3.58,0,0,0-.79-1.9c-.64-2.68-1.26-5.42-1.83-8.11a3.49,3.49,0,0,0-1.6-2.32c0-.28-.12-.58-.17-.86-1.73-10.52-6.73-20-11.92-29.32q-1.15-2.36-2.21-4.67a3.54,3.54,0,0,0-1.14-1.41,122.35,122.35,0,0,1-7.46-15.66,4.29,4.29,0,0,0-2.54-2.61,44.08,44.08,0,0,1-3-10.26,26.8,26.8,0,0,0-2.62-8.74,4.26,4.26,0,0,0-1.52-1.52,3.61,3.61,0,0,1-.6-.51c0-.67.06-1.11.11-2.11h0a1.08,1.08,0,0,0,0-.28c0-5.53-8-5.32-8.47.05,0,.46,0,.95-.06,1.41-.19-3.11-5.24-4.57-5.7-1.53a28.06,28.06,0,0,0-2.63-2.25c.19,5.46.5,10.91.88,16.35-1.73-.92-4.19-.87-4.18,1.07s0,3.91.09,5.86c-1.41-.91-3.12-1.56-3.18-1-.39,3.52-.62,7-.74,10.55-1.19-1.41-2.83-2.38-3-.78-.25,2.79-.4,5.58-.49,8.37l-3.86.23c0-1.37,0-2.73,0-4.09,0-.83-1.22-1.51-2.54-1.9a11.3,11.3,0,0,0,2.39-1.48c.09-.06,2.09-1.73,1.4-1.73-3,0-6,.24-9.06.4.67-3.77,1.48-7.5,2.49-11.18.73-2.7-4.8-5-5.64-1.92-.61,2.23-1.11,4.48-1.57,6.73-1.62-.83-4.15-1.51-4.24-1.13q-1.29,5.55-2.2,11.14c-1.58,0-4.67.11-5,1.22-.39,1.3-.76,2.61-1.11,3.91l-3-.1c.27-1.34.56-2.68.85-4h.17c2,0-.17-5.51-2-5.53-1.41,0-2.81-.11-4.2-.22q.87-8.93,1.69-17.86c.12-1.24-5.8-2.25-5.87-1.49-.13,1.4-.26,2.78-.4,4.18a6.67,6.67,0,0,0-1.13.28,34,34,0,0,0,.64-4.43c.33-4.58-7.14-5.77-8.22-1.56a3.92,3.92,0,0,0-3.54,2c-6.46,12.27-10.87,25.43-15.48,38.47-5,14.29-11.26,28.07-15.85,42.53-3.58,11.31-7.52,22.25-11.64,33.35-3.25,8.74-6.37,18.74-4.8,28.17-.07.69-.13,1.39-.18,2.08a3.86,3.86,0,0,0-.24.89c-.05.36-.08.71-.14,1.07h0v.31c0,3.37-1,6.68-1.38,10a15.65,15.65,0,0,0-2,5.48,13.11,13.11,0,0,0-3.63,5.27c-.93,2.2-.49,5.81,2.51,6.23.85.11,1.67.36,2.49.43,1.75,3.5,7.83,2.43,8-1.57h0v-.31c0-.06,0-.14,0-.2l.21-.1a7.49,7.49,0,0,0,7.69,3.3,8.77,8.77,0,0,0,2.21,1,3.84,3.84,0,0,0,4.25-1.38c2,.12,3.73-1,5.17-2.75l.09.08a9.25,9.25,0,0,0-1.73,1.86c-1.87,2.7.63,6.47,3.66,6.47h3.86a4.27,4.27,0,0,0,3.73-2.33c1.91,3.23,5.58,5.58,9.37,4.43,2.68-.82,4.39-3,5.52-5.59a15.82,15.82,0,0,0,5.27-.18,7,7,0,0,0,4-2.19,47,47,0,0,0,6.06,1.82l.47.25c5.48,4.92,12,8.29,19.72,8.68a4.2,4.2,0,0,0,4.17-3.78c2,1,4.42.82,6.91,0,1.95.76,3.9,1.54,5.85,2.32,3.67,1.46,6.08-2.82,4.89-5.82,2.09-.12,4.23-.06,6.17-.33.82-.11,1.65-.24,2.47-.42.55,4,3.18,6.72,7.16,7.91.48.3,1,.57,1.45.81a4.9,4.9,0,0,0,4.53-.12,15.91,15.91,0,0,0,10-3.35,4.09,4.09,0,0,1,.87-.54,4.26,4.26,0,0,0,1.4,1.43c6.89,4.22,16.59,2,23.21-2.55a11.74,11.74,0,0,0,3.43.55,3.6,3.6,0,0,0,3.62-2.16c2.36,2.05,7.32.4,7.32-3.36v-6.63c1-.23,1-.8,1.31-1.19,2.11.33,4.44.32,4.81-3.68H239s0,0,0-.08,0-.05,0-.15C239.12,418.67,239.92,412.82,237.54,407Zm-30.89-36.44c0,.37.06.73.09,1.1-2.05.72-4.14,1.36-6.24,1.93l-.36-1.91c2.13-.62,4.25-1.3,6.35-2.07C206.54,370,206.59,370.26,206.65,370.58Zm-1-6.08c-2.14.84-4.29,1.61-6.45,2.29l-.18-.92a51.39,51.39,0,0,0,6.49-2.15C205.55,364,205.6,364.24,205.65,364.5Zm-1-5.75a43.91,43.91,0,0,1-6.43,2.84c-.3-1.57-.59-3.13-.89-4.69,2.25-.4,4.48-.86,6.71-1.38C204.21,356.6,204.41,357.67,204.61,358.75Zm-2.46-12.32c.1.44.21.88.31,1.33.25,1.22.5,2.44.74,3.67-2.23.48-4.46.89-6.71,1.25-.05-.3-.11-.61-.17-.92-.21-1.16-.44-2.32-.67-3.48Q199,347.5,202.15,346.43ZM201,341.21q-3.14,1.19-6.36,2.07c-.46-2.08-.94-4.15-1.44-6.23q3.19-.63,6.37-1.46C200,337.46,200.51,339.33,201,341.21Zm-2.34-9.14q-3.13.85-6.3,1.5c-.29-1.15-.58-2.31-.86-3.46,2-.61,4.06-1.3,6-2.09C197.88,329.37,198.26,330.72,198.62,332.07ZM196.08,323c-1.92.8-3.88,1.5-5.86,2.12-.27-1.07-.53-2.13-.79-3.2,1.95-.52,3.9-1.08,5.83-1.68C195.54,321.16,195.8,322.08,196.08,323Zm-3.3-11.85.15.55c.26,1.1.56,2.19.85,3.28-1.85.62-3.72,1.21-5.61,1.75-.23-1-.46-2-.68-3,1.38-.53,2.75-1.1,4.1-1.77A3.84,3.84,0,0,0,192.78,311.15Zm-9.22,90.5c0-.94,0-1.88,0-2.81,1.46,0,2.91-.1,4.36-.18.06.83.12,1.67.17,2.5C186.56,401.34,185.06,401.51,183.56,401.65Zm4.61,1.18.27,4.06c0,.33,0,.66,0,1-1.63.2-3.27.37-4.92.52,0-1.66,0-3.32,0-5C185.1,403.25,186.64,403.05,188.17,402.83Zm-4.74-9.53c0-.58,0-1.17,0-1.76,0-.94-.08-1.89-.12-2.84,1.3-.07,2.6-.17,3.9-.28.11,1.55.23,3.1.33,4.65C186.15,393.17,184.79,393.25,183.43,393.3Zm0,21.49c0-.53,0-1.07,0-1.6q2.57-.17,5.13-.42c0,1.29,0,2.58,0,3.88-1.76.27-3.52.51-5.29.69C183.38,416.49,183.44,415.64,183.46,414.79Zm5.1-70.89c-.25-2-.55-3.93-.84-5.89l.12,0c.52,2.18,1,4.37,1.51,6.56l-.7.13Zm.75-42.08,2.07,4.22,1,3.52a4.26,4.26,0,0,0-3.39.15c-.71.34-1.43.66-2.15,1-.55-2.56-1-5.12-1.5-7.68C186.65,302.62,188,302.22,189.31,301.82ZM187,297c.31.65.62,1.3.94,1.95-1,.31-2.1.59-3.14.87-.1-.63-.18-1.25-.27-1.87C185.33,297.64,186.15,297.33,187,297Zm-2.32-4.93-.84.33c-.1-.94-.21-1.87-.29-2.81C183.89,290.41,184.27,291.23,184.65,292.06ZM183,345.63c-1.09.15-2.17.28-3.26.4,0-.24,0-.48-.08-.72-.23-2.08-.48-4.15-.72-6.22,1-.1,2.06-.2,3.09-.32C182.38,341.06,182.72,343.34,183,345.63Zm-6.1,38.61c0-1.29,0-2.58,0-3.88l2.24-.23c.07,1.33.14,2.65.19,4C178.52,384.15,177.72,384.21,176.92,384.24Zm2.54,4.65c0,1.5.11,3,.14,4.51-1,0-2,0-3,0,.11-1.49.2-3,.25-4.44Zm-2.67-11.39c0-.51,0-1-.07-1.51.72-.06,1.44-.12,2.16-.2,0,.51.07,1,.1,1.52Zm-.3-6.19c-.06-1-.13-2-.2-3h2.06c.07.93.15,1.86.21,2.79Zm-.41-6.21c-.15-2-.31-4-.46-6l2-.1c.18,2,.34,4,.5,6Zm-.28,37.15.33-3.41,3.53,0c0,1,0,2.07,0,3.11C178.39,402.09,177.09,402.17,175.8,402.25Zm3.86,1.62c0,1.42,0,2.84,0,4.26l0,.57c-1.45.09-2.9.16-4.35.22.11-1.56.24-3.13.39-4.69Zm1.9-68.61c-1,.12-2,.22-3,.31-.1-.87-.21-1.75-.31-2.62,1-.14,1.93-.29,2.89-.45C181.27,333.42,181.42,334.34,181.56,335.26ZM177.64,328c-.13-1.13-.27-2.26-.4-3.39l2.53-.47c.19,1.13.4,2.27.58,3.4C179.45,327.69,178.55,327.84,177.64,328ZM165.52,307.2q.3,3.65.61,7.29h-.46c-.19-2.41-.37-4.83-.53-7.24Zm-.6-3.34c0-.9-.09-1.81-.14-2.72H165c.07.9.13,1.8.21,2.69Zm-1,109.7c1.8,0,3.62,0,5.45,0,0,1.48,0,2.95,0,4.42h-.22c-1.94,0-3.88,0-5.82,0C163.46,416.51,163.65,415,163.89,413.56Zm.81-4.47c.3-1.49.61-2.93.89-4.29,1.42-.05,2.84-.11,4.27-.19-.13,1.48-.24,3-.34,4.45Zm1.24-91.17.49,0c.09,1.09.19,2.18.28,3.27l-.52.07c-.06-.91-.12-1.81-.2-2.72C166,318.31,166,318.12,165.94,317.92Zm1.21,8.12.27,3.08-.7.05c-.06-1-.13-2-.19-3.06Zm.7,8c.07.74.14,1.49.2,2.23l-1,0c0-.73-.08-1.47-.11-2.21Zm.49,5.78c.19,2.31.4,4.63.57,6.95l-1.46,0q-.09-3.46-.21-6.95Zm.92,11.43c.09,1.17.17,2.35.26,3.52l-1.89,0c0-1.17-.06-2.35-.08-3.52Zm.6,8.06c.14,1.94.29,3.89.41,5.83l-2.53-.05c0-.56,0-1.13,0-1.69,0-1.35,0-2.7,0-4Zm.6,8.89c.07,1.19.14,2.38.2,3.57-.95.06-1.91.11-2.86.15l0-3.81Zm.4,8.2c0,.48,0,1,.06,1.43-1,.05-2.07.08-3.11.11,0-.48,0-.95,0-1.43C168.83,376.48,169.85,376.45,170.86,376.4Zm.06-73.5c0-.7-.1-1.41-.16-2.11l.24,0,.24,2.08Zm2.31-14.5q.57,3.25,1.18,6.51l-.6.09q-.34-3.28-.68-6.59Zm2.2,11.81.21,1.07c0,.23.08.45.13.68l-1.17.23c-.07-.61-.13-1.23-.2-1.83Zm.95,5c.51,2.7,1,5.39,1.5,8.09-.65.12-1.3.24-2,.34-.32-2.71-.62-5.42-.93-8.13C175.45,305.39,175.92,305.3,176.38,305.19Zm.52-28.29.55-.08c0,1.24,0,2.47,0,3.71Q177.14,278.72,176.9,276.9Zm1.53,39.47c.15.89.32,1.79.47,2.68l-2.27.47-.33-2.74C177,316.66,177.72,316.52,178.43,316.37Zm-.35-41.13a9.79,9.79,0,0,0-1.43-.29c-.47-3.73-.87-7.46-1.15-11.19A76.78,76.78,0,0,0,178.08,275.24Zm-15.49,75.93c0,1.33,0,2.84.07,3.84h-1.84c.08-1,.12-2.59.17-3.92C161.52,351.09,162.05,351.17,162.59,351.17Zm-1.47-4.25c0-2.29,0-4.57,0-6.84l1.18,0c.07,2.29.14,4.57.19,6.87Zm1.07-10.45-1.09,0c0-.7,0-1.4,0-2.1l1,0Zm-.32-7-1,0c0-.95-.07-1.9-.1-2.85l.89-.07C161.76,327.53,161.83,328.49,161.87,329.45Zm-.45-7.66-.77.08c-.05-1.26-.09-2.51-.13-3.76h.63Q161.3,319.94,161.42,321.79Zm-1-13.86c.17,2.21.34,4.43.52,6.62h-.5q-.1-3.3-.17-6.6Zm-3.89,6.56-4.18-.1c0-1.85,0-3.7,0-5.55,1.31-.12,2.62-.27,3.93-.41C156.3,310.45,156.38,312.47,156.48,314.49ZM156.1,305c-1.27.13-2.54.25-3.82.36,0-1.41,0-2.81,0-4.21l3.75.06C156,302.43,156.06,303.69,156.1,305Zm0-15.05c-.05,2-.08,3.94-.08,5.91l-3.72-.08,0-5.61Zm-3.79,28.19c1.46,0,2.92,0,4.38,0,.07,1.36.13,2.72.2,4.07-1.54.12-3.08.23-4.62.31C152.24,321,152.24,319.56,152.26,318.09Zm-.21,11c0-.66,0-1.33.06-2,1.63-.06,3.27-.13,4.9-.23,0,.91.06,1.82.08,2.73l-5.06.12C152,329.54,152.05,329.33,152.05,329.12Zm-.24,5.53,5.31-.12c0,.68,0,1.36,0,2l-5.42.08C151.74,336,151.77,335.32,151.81,334.65Zm-.33,5.62,5.58-.1c-.06,2.25-.14,4.51-.25,6.75l-4,0H151C151.2,344.63,151.34,342.45,151.48,340.27Zm-.72,10.78c.51,0,1,.08,1.53.09,1.41,0,2.84.08,4.27.1-.09,1.27-.18,2.41-.28,3.67-1.74,0-3.49.1-5.23.1h-.55C150.58,354,150.67,352.39,150.76,351.05Zm-.55,8.33,5.67,0c-.16,1.72-.33,3.44-.52,5.16h-.21l-5.2-.24C150,362.67,150.12,361,150.21,359.38Zm-.39,7.86,5.22.24c0,.32-.07.63-.1.94-.14,1.18-.3,2.36-.46,3.54-1.6,0-3.19-.12-4.79-.2C149.72,370.25,149.77,368.74,149.82,367.24Zm-.24,9,4.27.21c-.08.5-.15,1-.23,1.51-1.36,0-2.72-.06-4.07-.11Zm-.15,4.86c1.23,0,2.46.06,3.7.08-.17,1-.33,2-.5,3.07l-3.33-.07C149.36,383.14,149.39,382.11,149.43,381.08Zm3.7,32.25,5.55.14a42.93,42.93,0,0,0-.29,4.35c-1.92-.07-3.85-.15-5.76-.25.15-.92.28-1.79.34-2.55C153,414.46,153.08,413.89,153.13,413.33Zm-9.29-129.85c.87-.05,1.74-.08,2.6-.11,0,2,0,3.95,0,5.93l-1.2,0-2.24,0C143.26,287.39,143.54,285.43,143.84,283.48Zm-.94,6.94c1.19,0,2.38,0,3.57-.07,0,1.77,0,3.53,0,5.3-1.38,0-2.76,0-4.14.1C142.5,294,142.69,292.19,142.9,290.42Zm-1,10.89c1.53-.1,3.07-.17,4.6-.21,0,1.55,0,3.1,0,4.66-1.62.1-3.25.2-4.88.28C141.71,304.46,141.8,302.89,141.9,301.31Zm-.44,8.35c1.68-.09,3.37-.21,5-.33,0,1.65,0,3.31,0,5-1.73,0-3.46,0-5.19.07C141.34,312.79,141.4,311.23,141.46,309.66Zm-.26,8.48c1.75-.05,3.5-.09,5.24-.1,0,1.57,0,3.13-.05,4.69-1.76,0-3.52.07-5.27.07C141.14,321.25,141.17,319.69,141.2,318.14Zm-.14,9.09c1.74,0,3.48,0,5.21,0,0,.7,0,1.4-.05,2.1l0,.5c-1.7,0-3.42.1-5.17.18C141,329.1,141.05,328.16,141.06,327.23Zm-.09,7.66c1.64-.07,3.27-.12,4.88-.15H146c0,.66-.06,1.33-.09,2l-2.69,0-2.26.06Zm-.08,5.61c1.59-.05,3.19-.08,4.8-.12q-.19,3.27-.4,6.52l-4.55,0C140.8,344.8,140.85,342.65,140.89,340.5Zm-.25,10.66H145l-.24,3.69-4.23.09C140.58,353.68,140.61,352.42,140.64,351.16Zm-7.59,0h1.88c0,1.32,0,2.64-.05,4l-2.2.07C132.81,353.82,132.93,352.48,133.05,351.13ZM135,370.62l-3.89-.41c.13-1.3.28-2.6.42-3.91l3.41.2C134.94,367.87,135,369.24,135,370.62Zm-2.77-11,2.65-.08c0,1.36,0,2.71,0,4.08l-3.08-.16c.11-1.07.22-2.15.34-3.22Zm-.06-68.32c-.24,1.78-.42,3.57-.62,5.36l-.58.06C131.32,294.92,131.71,293.11,132.15,291.31Zm-2.28,11.09,1.11-.11c-.12,1.39-.26,2.77-.37,4.16l-1.4,0Q129.52,304.44,129.87,302.4Zm-1.2,7.77,1.66,0c-.11,1.56-.22,3.12-.32,4.69l-2,.08C128.24,313.32,128.45,311.74,128.67,310.17Zm-1,8.47,2.15-.08-.06,1c-.06,1-.14,2-.21,3l-2.27-.11Zm1.59,8.13c-.09,1.3-.17,2.6-.26,3.9l-2.49.09c.12-1.38.25-2.77.37-4.15Zm-3.92,42.38c0,.13,0,.26-.05.39l-2.55-.31c.15-1.16.29-2.32.44-3.48l2.51.18C125.52,367,125.41,368.08,125.29,369.15Zm7,43.25c-.07,1.26-.11,2.52-.08,3.78-2.52-.19-5-.4-7.55-.62.1-1.23.24-2.46.4-3.69C127.51,412.06,129.92,412.25,132.33,412.4ZM123.48,363c.13-1.06.23-2.11.35-3.16l2.46-.05c-.12,1.12-.22,2.24-.35,3.36Zm.85-7.64c0-.13,0-.26,0-.39l.39-4,2.41.07-.42,4.29Zm.8-8.48.48-5.71,2.5-.11c-.17,1.95-.35,3.91-.53,5.86Zm.77-9.3c0-.67.11-1.34.16-2l2.51-.09c0,.66-.1,1.32-.16,2Zm-2-47.52,2.94.1q-.93,3.57-1.69,7.17l-2.65.22Q123.16,293.79,123.9,290.05Zm-2.32,13.05,2.49-.18c-.22,1.22-.44,2.43-.63,3.65l-2.4,0C121.21,305.43,121.4,304.26,121.58,303.1Zm-1,7.21,2.35,0c-.23,1.58-.45,3.16-.64,4.74H119.9C120.09,313.45,120.31,311.88,120.53,310.31Zm-2.67,27.44c0-.73.09-1.44.13-2.16.74,0,1.47,0,2.2,0-.06.7-.11,1.4-.17,2.1Zm1.87,3.58-.42,5.3-2-.1.3-5.18Zm-1.43-10.54c.12-1.62.27-3.23.41-4.85l2.31.21c-.15,1.56-.29,3.12-.43,4.69C119.83,330.83,119.06,330.82,118.3,330.79Zm.81-8.94c.11-1,.23-2.07.34-3.1h2.34c-.12,1.09-.25,2.18-.36,3.28Zm-.67-37.31,1.24.09c-.28,1.39-.55,2.77-.81,4.16l-.84,0C118.17,287.36,118.3,286,118.44,284.54Zm-.53,5.33.77,0c-.47,2.61-.9,5.24-1.29,7.92H117Q117.49,293.85,117.91,289.87Zm-.82,60.65,1.88.13c-.1,1.1-.19,2.19-.29,3.29,0,.46-.09.92-.14,1.38l-1.82,0C116.86,353.7,117,352.12,117.09,350.52Zm-3.32,25.6c.23-1.17.42-2.34.63-3.51l2.06.26c-.16,1.12-.31,2.24-.48,3.36Zm1.69,3.38c-.19,1.21-.37,2.43-.57,3.63-.83,0-1.65-.09-2.47-.15.25-1.2.49-2.4.73-3.6Zm-.33-11.22c.17-1,.33-2.1.48-3.14l1.83.16c-.13,1.07-.25,2.15-.39,3.22Zm.85-5.83c.11-.87.19-1.74.29-2.6h1.8c-.1.91-.19,1.82-.3,2.72Zm.2-57.19c.08-.64.15-1.31.23-1.95.08,0,.16,0,.25,0-.15,1.19-.29,2.66-.43,3.66H116C116,306,116.12,305.78,116.18,305.26Zm-.71,5.09h.33c-.16,1.51-.32,3-.47,4.51l-.54,0C115,313.34,115.25,311.85,115.47,310.35Zm-1.28,8.27.77,0c-.09.93-.18,1.86-.26,2.8l-1-.1Zm-1.12,6.73,1.27.14c-.15,1.68-.29,3.36-.43,5q-.84-.06-1.68-.15Zm-1.61,9.82,2.06.19c-.07.76-.13,1.51-.19,2.27-.75,0-1.49-.07-2.23-.13Zm1.57,6.12-.42,4.85c-.89-.08-1.78-.17-2.66-.28.18-1.56.39-3.12.61-4.68Zm-5.44,37.76.36,0c-.16.77-.32,1.54-.49,2.31C107.52,380.61,107.55,379.83,107.59,379.05Zm-.6-58.43c.18-.85.35-1.7.53-2.55l.67.09c-.14.85-.27,1.7-.41,2.55Zm.77,55.11c.06-1.32.11-2.64.18-4l1.46.19c-.25,1.28-.49,2.56-.75,3.84Zm.42-8.35.18-3,2.27.26c-.15,1-.3,2-.46,3Zm.14-53.37c.26-1.26.52-3,.78-4h.26c-.18,1-.35,2.63-.55,3.91C108.65,313.9,108.49,314,108.32,314Zm.21,47.76c0-.74.1-1.48.16-2.22.86.06,1.73.1,2.6.14-.09.78-.19,1.55-.29,2.32C110.17,361.94,109.35,361.85,108.53,361.77Zm.5-6.91c.14-1.71.3-3.41.48-5.12.91.12,1.83.23,2.75.33-.15,1.66-.31,3.32-.48,5C110.86,355,110,354.94,109,354.86ZM108.17,281c.59-1.79,1.2-3.57,1.79-5.36q-1.23,6.63-2.49,13.27a3.59,3.59,0,0,0-.48-1.39C107.5,285.34,107.87,283.16,108.17,281Zm-1.36,11.33c-.31,1.61-.64,3.22-1,4.82l-.47-.07C105.86,295.47,106.33,293.89,106.81,292.3Zm-.64,32.2,1,.13c-.27,1.61-.53,3.22-.79,4.82-.4-.08-.78-.19-1.17-.28Zm-2.34-22.25a4.75,4.75,0,0,0,.6.16l.35,0c-.28,1.39-.54,2.78-.83,4.17a4.08,4.08,0,0,0-1.6.54C102.84,305.53,103.34,303.89,103.83,302.25ZM101.39,310h1.8c-.2,1-.39,2.09-.59,3a6.8,6.8,0,0,0-2.34.83C100.63,312.62,101,311,101.39,310ZM99.5,316.7c.76.18,1.52.34,2.28.49-.18.89-.36,1.79-.55,2.69l-2.56-.35C98.94,318.59,99.23,317.65,99.5,316.7Zm-1.6,5.49a3.61,3.61,0,0,0,1.83,1.41l.7.1c-.27,1.26-.52,2.52-.79,3.77-.63-.23-1.26-.46-1.87-.73a3.24,3.24,0,0,0-1.11-.28C97.07,325,97.48,323.61,97.9,322.19Zm-4.06,59c.28-1.2.53-2.41.79-3.62,2.37.42,4.77.73,7.17,1-.11,1.17-.24,2.35-.39,3.52C98.89,381.84,96.36,381.56,93.84,381.22Zm6.9,5c-.2,1-.41,2.07-.65,3.1l-2-.11c-2.07-.07-4.12-.06-6.17-.12.35-1.3.67-2.62,1-3.93Q96.82,385.79,100.74,386.25Zm-5.31-12.37c.25-1.18.49-2.36.73-3.54,2,.23,4.1.48,6.17.73-.07,1.35-.15,2.7-.24,4C99.85,374.8,97.62,374.4,95.43,373.88ZM97.05,366l.63-3c1.64.25,3.29.49,4.94.71,0,1-.07,2-.11,3C100.69,366.43,98.87,366.2,97.05,366Zm1.13-5.44.45-2.11c1.39.23,2.79.42,4.19.58,0,.71-.07,1.41-.09,2.12C101.21,361,99.7,360.76,98.18,360.55Zm-2.82-29.46a2.39,2.39,0,0,0,.22.12c1,.44,2,.83,3,1.18-.21.94-.41,1.89-.61,2.83-1.16-.35-2.3-.74-3.43-1.18C94.8,333.05,95.09,332.07,95.36,331.09Zm-2,7.14c1.2.39,2.42.73,3.65,1l-.9,4.05c-1.28-.33-2.55-.7-3.81-1.09C92.7,340.89,93.05,339.56,93.41,338.23Zm-2.14,8.23c.06-.27.14-.53.2-.8,1.29.43,2.58.83,3.88,1.2-.42,1.82-.82,3.64-1.24,5.45-1.12-.3-2.23-.62-3.34-1a2.34,2.34,0,0,0-.66-.08C90.49,349.66,90.87,348.06,91.27,346.46ZM89,356.23c1.32.39,2.65.75,4,1.06-.15.62-.29,1.24-.44,1.86,0,.17-.07.35-.11.53-1.36-.22-2.72-.46-4.07-.7C88.53,358.06,88.75,357.14,89,356.23ZM87.88,361a4.26,4.26,0,0,0,1.07.47c1,.19,1.94.37,2.92.54-.25,1.11-.52,2.21-.76,3.32L87,364.91C87.28,363.6,87.58,362.3,87.88,361ZM86,369.28c1.38.12,2.76.26,4.15.4-.17.84-.35,1.67-.52,2.5-1.11-.39-2.2-.82-3.28-1.3a1.59,1.59,0,0,0-.68-.12Zm-1.28,5.79q2,.71,4,1.26c-.27,1.34-.55,2.69-.84,4-1.4-.23-2.81-.47-4.22-.73C84.09,378.11,84.43,376.59,84.76,375.07ZM81.57,404.4a20.85,20.85,0,0,1-2.41-.63c.43-1.63.82-3.28,1.19-4.93.9.25,1.8.45,2.72.61C82.57,401,82,402.69,81.57,404.4Zm2.65-8.67-.12.42a23,23,0,0,1-2.26-1,1.43,1.43,0,0,0-.68-.11c.21-1.05.42-2.1.61-3.15a2.11,2.11,0,0,0,.75.65,22.64,22.64,0,0,0,2.35.83C84.66,394.16,84.45,395,84.22,395.73Zm-1.73-7.9c.34-2,.65-4,.93-6.07.66,1,1.45,2,2.18,2.17l1.51.28c-.33,1.47-.65,3-1,4.43A25.38,25.38,0,0,1,82.49,387.83Zm4.33,28.73c-.3-.07-.58-.16-.86-.24a17.72,17.72,0,0,1-.23-2.76c2.75.73,5.52,1.16,7.4,1.5a16.05,16.05,0,0,0,.19,2.43A39.46,39.46,0,0,1,86.82,416.56Zm6.54-4.91c-1.1-.21-2.2-.42-3.3-.66-.58-.13-2.4-.45-4.1-.88,0-.32.11-.64.16-1a53.37,53.37,0,0,0,7.61.39C93.58,410.25,93.45,411,93.36,411.65Zm1.56-6.71c-2.65,0-5.29.1-7.9,0,.44-1.67,1-3.33,1.48-4.94l1.33.09c2.19.13,4.36.3,6.53.49C95.85,402,95.36,403.48,94.92,404.94Zm2.21-6.33a62.18,62.18,0,0,1-7.81-.95c.37-1.09.74-2,1.07-3,2.64.25,5.32.39,8,.39h.09C98.06,396,97.6,397.31,97.13,398.61Zm3.59,19.09H99.21c0-.51,0-1,.05-1.54l1.5.24C100.74,416.82,100.72,417.26,100.72,417.7Zm.26-4.77-1.24-.19c.22-1.08.47-2.13.72-3.13l1,0C101.25,410.74,101.09,411.84,101,412.93Zm1.2-7.56-.6-.05c.39-1.37.8-2.73,1.23-4.09l.25,0C102.76,402.61,102.46,404,102.18,405.37Zm1.31-55.81c-.17,1.52-.29,3.05-.4,4.59-1.13-.17-2.25-.36-3.37-.57.08-.38.17-.77.26-1.15.33-1.39.64-2.79,1-4.18l2.64.54C103.55,349,103.51,349.3,103.49,349.56ZM104,345c-.75-.12-1.51-.24-2.25-.39.32-1.4.63-2.81.94-4.21l1.89.26C104.41,342.11,104.21,343.55,104,345Zm-.45-8.43c.19-.86.37-1.72.56-2.58l1.44.3c-.13.85-.28,1.7-.41,2.56Zm5,81.35c-1-.07-2.08-.12-3.13-.15,0-.23,0-.46.07-.7l3.11.4C108.6,417.62,108.58,417.77,108.56,417.92Zm.45-4-3.08-.37c.19-1.19.4-2.38.63-3.56l3,.3C109.36,411.54,109.17,412.75,109,414Zm1.31-7.75-2.89-.31c.3-1.38.61-2.74.91-4.08l.11,0,2.72.28C110.88,403.48,110.59,404.84,110.32,406.21Zm1.43-6.8c-.74-.09-1.48-.16-2.22-.24l-.58-.06c.27-1.27.55-2.54.83-3.82l2.8.23C112.31,396.82,112,398.11,111.75,399.41Zm1.88-9.09-2.72-.21c.2-.94.39-1.88.6-2.81l2.61.18C114,388.43,113.8,389.38,113.63,390.32Zm3.6,29.21a29.18,29.18,0,0,0-2.88-.78c0-.21,0-.41.05-.62,1.55.16,3.09.32,4.64.46,0,.72,0,1.43.09,2.13A4.8,4.8,0,0,0,117.23,419.53Zm1.91-4.48-4.41-.45c.14-1.22.32-2.44.51-3.65,1.42.16,2.83.31,4.24.44C119.34,412.6,119.22,413.82,119.14,415.05Zm.89-7.84c-1.35-.11-2.71-.25-4.06-.39.26-1.38.54-2.75.83-4.13l3.83.36Zm1-6.84c-1.22-.11-2.43-.23-3.65-.36.29-1.34.58-2.69.86-4l1.53.11,1.87.1C121.43,397.58,121.22,399,121,400.37Zm1.38-9.51-3.13-.17c.18-.95.33-1.91.5-2.86l3,.15Zm1-7.33-2.9-.12c.2-1.2.38-2.4.57-3.6l2.81.15Zm-1.79-7.07.42-2.89,2.63.32c-.11.9-.21,1.8-.33,2.7Zm3,45.92c-.07-1.09-.1-2.18-.09-3.28l2.54.22c1.8.16,3.6.3,5.4.45.12,1,.26,2,.47,2.94C130.18,422.62,127.41,422.5,124.63,422.38Zm8.05-14.29c-2.32-.14-4.63-.28-6.94-.45.23-1.38.49-2.74.75-4.1,2.23.18,4.46.33,6.69.48C133,405.37,132.82,406.73,132.68,408.09Zm.86-6.63c-2.19-.17-4.37-.33-6.55-.52.23-1.21.47-2.42.69-3.59,0-.27.09-.55.14-.83l6.32.3C134,398.36,133.75,399.9,133.54,401.46Zm1.11-10-6-.27c.14-1,.28-2,.41-2.95,1.9.06,3.81.12,5.71.16C134.76,389.41,134.72,390.44,134.65,391.45Zm.33-7.59-5.31-.13c.14-1.15.26-2.31.38-3.46l5,.22C135,381.61,135,382.74,135,383.86Zm-4.56-7c.08-.77.15-1.55.23-2.32L135,375c0,.71,0,1.41,0,2.11ZM135.05,347H133.4q.24-3.09.45-6.19l1.39-.06C135.18,342.79,135.11,344.88,135.05,347Zm.3-9.87-1.25.06.12-1.94,1.19-.06Zm.2-6.77-1,.06.21-3.33.93,0C135.62,328.16,135.59,329.24,135.55,330.32Zm.24-7.58-.78,0c.09-1.46.2-2.91.3-4.37l.63,0C135.9,319.8,135.84,321.27,135.79,322.74Zm.29-8.19-.51,0c.12-1.54.24-3.09.37-4.64h.29Zm2.32,108.32c-.19-.87-.31-1.76-.42-2.65l1,.07a21.77,21.77,0,0,0,.28,2.6Zm.64-6.19-1.29-.09c0-1.28,0-2.57.13-3.86l1.59.09C139.29,414.08,139.13,415.38,139,416.68Zm1.44-9.75c-.08.49-.18,1-.28,1.55l-1.91-.08c.17-1.35.36-2.69.56-4l2.05.1C140.77,405.29,140.63,406.1,140.48,406.93Zm.84-4.95-2.09-.12c.24-1.61.48-3.2.68-4.77l2.13.09Q141.71,399.56,141.32,402Zm1.43-10.16-2.33-.11c.06-1.06.08-2.12.1-3.18l2.57.05C143,389.66,142.87,390.74,142.75,391.82Zm.73-7.78-3-.06c0-1.08-.05-2.17-.09-3.25l3.25.14C143.6,381.93,143.55,383,143.48,384Zm.3-6.44-3.47-.16c0-.64,0-1.27-.05-1.9l3.57.29C143.82,376.42,143.79,377,143.78,377.6Zm.16-6.2-3.72-.29c0-1.45,0-2.89.06-4.33l3.82.18C144,368.44,144,369.92,143.94,371.4Zm.3-7.34-3.92-.18c0-1.48.08-3,.11-4.46l4.08-.05C144.42,360.94,144.32,362.5,144.24,364.06Zm3.35,59-2.87,0a21.32,21.32,0,0,1-.15-2.3l3,.19C147.57,421.62,147.56,422.35,147.59,423Zm.33-5.75-3.18-.2c.13-1.35.33-2.7.56-4,1.07.05,2.15.1,3.22.13C148.35,414.29,148.12,415.73,147.92,417.29ZM149,408.8l-2.89-.08c.31-1.46.61-2.8.84-4l1.15.05,1.36,0C149.33,406.15,149.17,407.47,149,408.8Zm.77-6.39-2.4-.09c.28-1.63.52-3.25.73-4.86l2.37.12C150.25,399.19,150,400.8,149.8,402.41Zm-1.06-10.29c.11-1.14.19-2.28.28-3.42l2.88.05c-.19,1.17-.39,2.34-.57,3.5Zm3,31c.07-.65.16-1.3.26-2,2.19.12,4.38.21,6.57.3a16.24,16.24,0,0,0,.29,1.72C156.5,423.15,154.12,423.14,151.76,423.11ZM159.34,409q-2.55,0-5-.09l-.72,0c.15-1.33.33-2.67.52-4,2,0,4,0,6,0C159.85,406.24,159.59,407.62,159.34,409Zm1.34-7.31c-.05.3-.11.62-.17.93q-3,0-6.06-.09c.26-1.58.55-3.16.87-4.73l1.93.1,3.94.24C161,399.35,160.87,400.53,160.68,401.72Zm1.13-8.85-5.43-.33c.23-1.22.44-2.45.65-3.68l5.11.11Q162,390.92,161.81,392.87Zm.61-8.45-4.69-.08c.15-1,.28-2.09.41-3.14,1.47,0,2.94,0,4.41-.05C162.51,382.24,162.48,383.33,162.42,384.42Zm.24-6.4h-4.1c.06-.48.1-1,.16-1.45,1.32,0,2.64,0,3.95,0C162.67,377.08,162.67,377.55,162.66,378Zm.08-6h-3.52c.15-1.45.29-2.89.43-4.33l3.09.16C162.74,369.26,162.75,370.66,162.74,372.05Zm0-7.13L160,364.8c.14-1.45.3-2.9.44-4.34l.09-1h2.23l0,3.25C162.75,363.42,162.74,364.17,162.74,364.92Zm.57,58.29c-.05-.52-.07-1-.08-1.59l1.17.05c1.76,0,3.52.07,5.28.08,0,.5.11,1,.18,1.48ZM170,402.52c-1.34,0-2.68.07-4,.09.1-.52.2-1,.28-1.53.13-.86.23-1.74.35-2.61,1.24.07,2.49.13,3.74.18C170.27,399.94,170.15,401.22,170,402.52ZM171,390c0,1.09-.09,2.19-.16,3.29-1.19,0-2.38-.08-3.56-.14.12-1.37.21-2.74.29-4.11H171C171,389.37,171,389.68,171,390Zm-3.24-5.56c0-1.15,0-2.3.07-3.46,1.07,0,2.14-.1,3.22-.17,0,1.2,0,2.4,0,3.6C169.93,384.43,168.82,384.44,167.71,384.44Zm4.14-70.31q-.34-3.94-.66-7.9l.43-.08.93,7.9Zm.28,3.25.81-.1c.11,1,.22,1.91.34,2.87l-.9.15C172.29,319.33,172.21,318.36,172.13,317.38Zm.7,7.92,1-.16c.13,1.1.27,2.2.4,3.31l-1.15.14C173,327.49,172.92,326.4,172.83,325.3Zm.72,8.24c.44,0,.87-.1,1.3-.15.09.82.19,1.65.29,2.47l-1.37.1C173.7,335.15,173.63,334.35,173.55,333.54Zm.51,5.95,1.47-.11c.26,2.32.54,4.64.79,7-.56,0-1.12.08-1.69.12C174.46,344.14,174.25,341.82,174.06,339.49Zm2.75,11.44c.12,1.21.27,2.41.39,3.62l-1.93.07c-.1-1.2-.19-2.39-.28-3.58ZM175,413.54c1.44,0,2.89-.08,4.34-.14-.08,1.44-.13,2.87-.1,4.28q-2.12.13-4.23.21C175,416.45,175,415,175,413.54Zm4.31,9.72h-.54V423H178a4.26,4.26,0,0,0-1.16.2l-1.36,0c-.07-.5-.13-1-.18-1.49,1.44,0,2.89-.07,4.33-.13a14.87,14.87,0,0,0,.19,1.65Zm1.3-68.89c-.12-1.24-.26-2.46-.39-3.69,1.13-.1,2.25-.21,3.37-.34.12,1,.25,2,.37,3,0,.27.05.53.08.79C182.92,354.22,181.78,354.3,180.63,354.37Zm.43,4.44c1.16-.08,2.32-.17,3.48-.28q.32,3,.6,5.94c-1.17.14-2.34.25-3.52.34Q181.35,361.81,181.06,358.81Zm.86,9.38c1.19,0,2.37-.11,3.55-.19.07.68.14,1.36.2,2-1.18.2-2.35.39-3.53.57C182.07,369.8,182,369,181.92,368.19Zm.58,7.19c1.2-.16,2.4-.34,3.6-.53l.15,1.65q-1.81.25-3.63.45C182.58,376.43,182.53,375.9,182.5,375.38Zm.29,4.31c1.23-.16,2.45-.33,3.67-.52.12,1.43.24,2.86.34,4.3-1.24.14-2.49.26-3.75.37C183,382.46,182.87,381.08,182.79,379.69Zm.42,43.67c0-.87-.1-1.69-.1-1.95,1.87-.13,3.73-.32,5.58-.55,0,1,.08,2,.16,3C186.94,423.6,185,423.44,183.21,423.36Zm6-73.79,1.11-.2c.19,1,.38,1.95.56,2.93l.21,1.13-1.4.16C189.57,352.25,189.4,350.91,189.24,349.57Zm.94,8.39,1.74-.24c.34,1.8.67,3.6,1,5.39-.72.17-1.44.33-2.16.47Q190.49,360.76,190.18,358Zm.95,9.45c.86-.11,1.7-.25,2.54-.39l.24,1.25c-.88.22-1.75.45-2.63.65Zm.58,6.4c1-.22,2.08-.44,3.11-.69.11.6.23,1.2.34,1.8-1.09.24-2.19.46-3.29.66C191.82,375,191.77,374.4,191.71,373.81Zm.38,4.35c1.17-.24,2.33-.49,3.49-.76.26,1.52.54,3,.78,4.57q-1.94.4-3.9.72C192.34,381.18,192.21,379.67,192.09,378.16Zm.95,12.15c-.06-.83-.13-1.67-.19-2.5,1.43-.19,2.86-.4,4.29-.65.21,1.52.41,3,.59,4.56-1.5.3-3,.54-4.54.75Zm.68,10.08-.15-2.2q2.38-.27,4.74-.66c0,.69.08,1.38.11,2.07C196.86,399.89,195.29,400.15,193.72,400.39Zm.44,6.64c-.11-1.7-.23-3.39-.34-5.09,1.56-.27,3.12-.57,4.67-.88.07,1.68.12,3.37.2,5.05C197.19,406.45,195.68,406.76,194.16,407Zm4.87,4.26c.1,1,.21,2,.36,3l-1.55.43c-1.09.29-2.17.55-3.25.8,0-.83,0-1.48,0-1.83,0-.55-.07-1.09-.1-1.63C196,411.83,197.52,411.58,199,411.29Zm.68,11.24a17.65,17.65,0,0,0-.33,1.83c-.19,0-.37,0-.57,0a6.59,6.59,0,0,0-3.53.93l-.36-.1a33.62,33.62,0,0,1-.37-5.23c1.93-.38,3.85-.8,5.75-1.28.18.66.37,1.31.59,2A3.8,3.8,0,0,0,199.71,422.53ZM200.93,376c2-.58,4-1.21,6-1.91.15,1.59.31,3.19.48,4.78-1.88.67-3.77,1.26-5.69,1.79C201.49,379.12,201.21,377.57,200.93,376Zm1.66,10q2.79-.65,5.53-1.48c.17,1.35.35,2.71.53,4.06q-2.68,1-5.46,1.81C203,389,202.81,387.51,202.59,386.05Zm1.24,10.35c1.92-.47,3.82-1,5.68-1.67.12.76.22,1.53.34,2.3-2,.52-3.92,1-5.89,1.44C203.92,397.78,203.88,397.09,203.83,396.4Zm.2,3.46c2-.48,4-1,6-1.56.2,1.35.4,2.7.61,4.06q-3.17,1.31-6.46,2.3C204.13,403.06,204.09,401.45,204,399.86Zm.65,13c-.1-.9-.18-1.8-.24-2.71q3.72-.94,7.28-2.23a3.26,3.26,0,0,0,.83,1c0,.6.08,1.19.13,1.78C210,411.34,207.34,412.08,204.68,412.82Z"/><path class="cls-4" d="M125.66,77.78a62.58,62.58,0,0,0,14.82-7.1A50.83,50.83,0,0,0,146,66.23c.43-.39,7.3-8.4,8.71-4.75a.81.81,0,0,0,.62.53h.7c.38,0,1.79-.48,1.79-1v-1.4c-1,.11-1.53.23-2.17.35.95,7.58,6.66,10.78,11.17,16.27.5.6,2.29-.12,1.72-.81-4.41-5.38-10-8.51-11-16-.09-.75-1.76-.34-1.76.35v1.41c0-.25.68-.49,1.12-.73-.66,0-1.72-2.95-3.43-3.09a4.46,4.46,0,0,0-4.21,2.19c-4.34,8.88-15,14-23.9,17.07-1.13.39-.87,1.57.29,1.17Z"/><path class="cls-4" d="M124.63,78.68c-2.73,2.16-2.31,7.53-2.88,10.61-.08.41,1.82.1,1.9-.35.31-1.66.49-3.34.72-5s.5-4.22,2-5.42c.39-.31-1.39-.11-1.75.17Z"/><path class="cls-4" d="M125.32,83.53c-3.12,3.39-5.35,7.38-5.68,12,0,.74,1.59.05,1.84-.18,4.07-3.78,5.42-9.74,7.09-14.84.18-.58-1.63-.17-1.85.18-3.7,5.9-7.51,11.75-9.89,18.34-.23.66,1.64,0,1.85-.17,5.63-5.22,8.75-12.59,12.69-19.05.24-.39-1.56-.22-1.84.18-.8,1.12-1.31,2.38-2.11,3.5-.39.56.76.41,1,.36,11-2.67,14.84-13.31,21.11-21.45.5-.64-1.24-.3-1.46-.17-3.32,2-5.69,4.88-8,7.95-.46.59,1.45.36,1.77-.06,2.15-2.82,4.3-5.62,7.4-7.49l-1.46-.17c-2.77,3.6-5,7.58-7.57,11.32a31.56,31.56,0,0,1-5.8,6.41c-2.42,2-6.32,4.32-3.08-.26l-1.85.18c-3.9,6.39-7,13.64-12.54,18.81l1.84-.18c2.35-6.51,6.08-12.28,9.74-18.11l-1.84.18c-1.63,5-3,10.9-6.94,14.6l1.85-.18a19.33,19.33,0,0,1,5.53-11.8c.49-.52-1.41-.32-1.77.06Z"/><path class="cls-4" d="M154,60.55c-.95,3.23,2.79,6.57,4.75,8.7,3.59,3.92,8.06,7.43,10.74,12.08,1.83,3.17-1.29,6.62-1.76,9.81a1.81,1.81,0,0,0,1.76,2.1c3.13.25,3.75,1,4.12,4.54,0,.33,2,0,1.93-.52a15.63,15.63,0,0,0-1.4-4.9c-.1-.22-.62-.1-.78-.07-6.61,1.24-2.41-5.27-1.51-8s-1.37-5-2.93-6.89c-2.35-2.8-5.06-5.32-7.6-8-1.92-2-6.39-5.92-5.42-9.21.1-.34-1.77-.11-1.9.36Z"/><path class="cls-4" d="M156.41,123.93a34.42,34.42,0,0,0,7.21-9c.22-.41-1.63-.24-1.92.29a32.6,32.6,0,0,1-6.8,8.56c-.79.72,1.13.53,1.51.18Z"/><path class="cls-4" d="M123.84,108.3c3,8.83,9.94,14.82,17.45,19.93.47.32,2.13-.46,1.82-.67-7.46-5.07-14.34-11-17.34-19.78-.17-.49-2.08.08-1.93.52Z"/><path class="cls-4" d="M150.65,88.78c3.34,1,12.84-7.09,13.14-.11,0,.31,2,0,1.94-.52-.14-3-2.56-3.3-5.07-2.9a22.49,22.49,0,0,0-4.25,1.24c-.85.32-3.29,1.82-4.17,1.56-.43-.13-2.13.57-1.59.73Z"/><path class="cls-4" d="M154.92,90.51c-1.15.64.41.69.93.68,1.36,0,2.71-.27,4.07-.31.18,0,1.9-.37,1.55-.68-1.89-1.69-4.83-1.46-7.18-1.46-.31,0-1.5.17-1.5.63v.7s-.07,0,0,.06a14.2,14.2,0,0,0,5.83.75c.21,0,1.84-.54,1.52-.68a5,5,0,0,0-4.32-.16c-1.62.78-1.72,2.22-1.23,3.83a2.53,2.53,0,0,0,4.45.79c.8-1,1.23-3.29.44-4.35-.49-.66-1.68-.28-2.28,0a6.11,6.11,0,0,0-2.45,2.51c-.11.17.24.19.31.18a7.68,7.68,0,0,0,5.71-2.56c.37-.37-1.43-.12-1.74.19-.82.81-1.47,1.61-2.7,1.64l.32.19A8.43,8.43,0,0,1,158,90.65c.58-.52-1-.17-.58.12a.87.87,0,0,1,.25.38,4.3,4.3,0,0,1,0,2.7,3.4,3.4,0,0,1-.55,1.17c-.38.53.19-.17.72-.07a1.34,1.34,0,0,1-.53-.34,3.89,3.89,0,0,1-1.11-2.69,2.3,2.3,0,0,1,.37-1.43c.28-.43,1.37.19,1.7.34l1.55-.68a31.73,31.73,0,0,1-3.38-.13,8,8,0,0,1-1.59-.36c-.44-.15-.31-.45-.31-.81l-1.6.63c2.21,0,5-.23,6.73,1.35l1.55-.68c-.76,0-1.52.11-2.28.18a9.58,9.58,0,0,0-2.53.19c.32-.18.26-.37-.1-.37a2.94,2.94,0,0,0-1.36.36Z"/><path class="cls-4" d="M140,98.41c-.82,1.58-2,3.16-2.12,5,0,.2.71.07.77.06,2-.38,4,.81,6.06.6a7.13,7.13,0,0,0,4.12-1.71c.36-.33-1.41-.11-1.74.18-2,1.78-5.55-.17-8,.3l.77.05c.15-1.75,1.3-3.3,2.09-4.83.1-.2-1.66-.1-1.9.37Z"/><path class="cls-4" d="M132.81,108.47c9.59-.48,20.23,4.38,27.22-4.68.44-.57-1.45-.28-1.76.09-3.69,4.48-7.06,11.64-13.92,11.44-4.87-.15-6.61-6.41-11-7.68-.48-.14-2.21.62-1.57.8,6,1.71,7.19,9.31,14.65,7.58,6.58-1.53,9.64-7.37,13.65-12.23l-1.76.09c-6.17,8-16.27,3.3-24.65,3.73-.56,0-2.1.93-.81.86Z"/><path class="cls-4" d="M137.63,90.9c-2.7-1.93-4.47-4.79-8.19-4.24-.13,0-1.66.55-1.34.67,3.36,1.24,7.56.38,8.36,4.85l1.6-.63a42.47,42.47,0,0,0-9.56.75c-.24.06-1.16.21-1.16.58,0,1.83,2.57,2.12,4,2a4.68,4.68,0,0,0,4.2-3.11c.06-.18-.2-.18-.32-.18-1.94,0-4.05.07-5.09,2-.06.12.07.15.15.17,2.29.66,5.13,0,5.27-2.71,0-.11-.29-.11-.33-.11a24,24,0,0,0-7,.81c-.2.06-1.43.65-.57.62,3.1-.09,6.35-1.3,6.51-4.83,0-.35-1.56.18-1.7.26-1.68,1-1.63,2.67-1.63,4.47,0,.24,1.93,0,1.93-.52,0-1.36-.19-3.14,1.17-4l-1.7.26c-.09,2-1.1,3.52-3.31,3.58-.19.21-.37.42-.56.62a17.35,17.35,0,0,1,5-.59c.63,0,.05,1.14-.06,1.36-.27.53-1.33.27-.84-.44.06-.09,1.26-.55,1.09,0a2.14,2.14,0,0,1-2.15,1.62c-1-.1-2.12-.71-2.12-1.78l-1.15.57a38.68,38.68,0,0,1,8.67-.65c.24,0,1.67-.2,1.6-.62-.82-4.6-5-3.69-8.47-5l-1.34.67c3.13-.46,5,2.58,7.23,4.17.42.3,2-.49,1.82-.63Z"/><path class="cls-4" d="M149.21,80.56c3.68-.7,7.22-2.66,11-2.8l.24-1.07-3.16,1a11.8,11.8,0,0,1-3.2,1.06c-.75,0-2.05,1.21-.75,1.21h1.27c.74,0,2-1,.74-1h-1.26c-.75,0-2.05,1-.75,1,2.44,0,5.09-1.47,7.38-2.24.55-.18,1.35-1.15.23-1.11-4,.15-7.56,2.07-11.46,2.8-.92.17-1.57,1.35-.25,1.1Z"/><path class="cls-4" d="M112.14,251c-21.78,34.27-36.37,73.24-48.36,111.86-5,16.19-9.52,32.59-13,49.18C49,420.37,46,430.54,47.43,439.17c.08.47.8.53,1.15.42,3.73-1.2,8.74-4.63,12-1.06.95,1,2,2.7,3.37,3.15a6.41,6.41,0,0,0,6.8-1.27,36.9,36.9,0,0,0,3-3.37c1.93-2.14,5.54-1.33,6.88,1.13a7.32,7.32,0,0,0,1.29,2c3.24,2.95,8-1.48,11.61,1.48,1.3,1.05,4.45,3.2,6.35,2.33,3.4-1.57,9.13-9.42,12.8-8.27,2.69.84,5.12,3.94,7.18,5.74a26.83,26.83,0,0,0,5.83,3.89c4.83,2.31,9.87,2.68,15.15,2.72,1.12,0,1.47-1.44.17-1.45-7.28-.05-12.57-1.39-18.62-5.46-3.57-2.41-6.5-7.57-11.34-7-3.72.42-6,4.33-8.62,6.44-4.76,3.77-6.9-1.47-11.64-1.67-2-.08-6.71,1.06-7.86-.61-.84-1.21-1.3-3.13-2.79-3.78a6.53,6.53,0,0,0-7.4,1.35c-1.36,1.34-2.44,2.92-3.88,4.17-3.3,2.87-6-2.11-7.91-3.67-3.64-3-9.31.78-12.74,1.88l1.15.42c-1.4-8.47,1.63-18.56,3.35-26.77C56.24,395,60.9,378.3,66,361.81c11.86-38.18,26.44-76.72,48-110.59.58-.91-1.39-1-1.85-.24Z"/><path class="cls-4" d="M178.4,248.64C186.24,261,194,273.75,200,287.14c6.15,13.92,11.53,28.21,16.69,42.53,5.24,14.53,10.25,29.21,14.18,44.16,1.89,7.21,2.94,14.54,4.42,21.83,2.43,11.91,5.28,24.31,2.16,36.35l1.73-.59c-1.16-.48-2.36-.23-3.5-.7a1.41,1.41,0,0,0-1.74.59c-1.1,2.86-1,6-1.34,9-.55,4.49-4.54.84-6.67.75a5,5,0,0,0-4,1.7c-4.59,4.29-5.55.2-9.52-.91a11.59,11.59,0,0,0-7.2.24c-4.61,1.46-8.11,3.46-13.26,2.88-6.53-.72-9.75,1.43-15.08,4.82l1.5-.07c-3-3.35-5-11.57-10.61-11.43-6.23.15-9.29,6.55-13.49,10.23l1.67-.2c-3.47-3.41-9.76-9.18-13-2.46-.42.88,1.51.68,1.8.08,2.21-4.57,7.38,1.14,9.42,3.15.43.42,1.29.13,1.68-.2,3.42-3,8.83-12.38,14.23-8,3,2.41,4,6.79,6.52,9.63.35.39,1.15.16,1.51-.07,4.34-2.77,7.57-4.94,13.13-4.29,2.87.33,5.53.6,8.28-.45,5.34-2,9.4-4.74,15-.61,1.51,1.12,3.53,2.09,5.46,1.26,2.5-1.08,4.26-5.12,7.52-3.2,1.19.7,2.55,1.57,4,.9,5-2.33,2.8-8.58,4.5-13l-1.73.59c1.15.48,2.36.23,3.5.7.52.22,1.57.05,1.73-.59,2.86-11,.73-22.36-1.47-33.31-1.57-7.81-2.74-15.71-4.67-23.44-3.77-15.16-8.94-30-14.2-44.72s-10.83-29.38-17.11-43.7c-5.92-13.49-13.81-26.35-21.69-38.75-.36-.58-2.24.06-1.79.77Z"/><path class="cls-4" d="M150.88,450c2.11,9.69,4.7,19.29,4.2,29.3,0,.82,1.9.43,1.94-.23.5-10.1-2.07-19.8-4.21-29.59-.15-.69-2.09-.2-1.93.52Z"/><path class="cls-4" d="M171.92,449.92c-2.31,9.78-4.8,19.42-4.22,29.54,0,.42,2,.07,1.93-.52-.57-10.05,1.91-19.63,4.2-29.34.12-.5-1.79-.2-1.91.32Z"/><path class="cls-4" d="M167.71,480.05a43.63,43.63,0,0,0-.9,14.72c.45,5,3.28,9.38,4.79,14.05,1.82,5.56-1.49,9.93-4.46,14.33-2,3-4.66,6.56-8.09,8.1-4.14,1.85-6.43-4.81-7.26-7.42-1.58-4.92-2.58-10.46-.72-15.38,1.56-4.15,4.36-7.52,5.16-12,1-5.69.2-11.67.78-17.42.06-.62-1.86-.23-1.92.3-.69,6.93.66,14.52-1.81,21.13-1.91,5.09-5.53,9-5.2,14.73.31,5.47,2.09,18,9.95,17.11,6.74-.73,11.47-9.82,14.41-14.89,3.23-5.56.69-10.61-1.63-16-2.91-6.81-3-14.5-1.18-21.64.14-.55-1.78-.25-1.92.3Z"/><path class="cls-4" d="M138,449.84c-2.13,9.74-4.71,19.39-4.21,29.44.05,1,2,.68,2-.15-.5-10.06,2.08-19.71,4.2-29.45.21-.93-1.77-.68-1.95.16Z"/><path class="cls-4" d="M117,450c2.3,9.74,4.78,19.35,4.2,29.44,0,.3,1.9.06,1.94-.52.57-10.09-1.91-19.7-4.21-29.44-.1-.43-2,.06-1.93.52Z"/><path class="cls-4" d="M121.2,480.16A35,35,0,0,1,119.5,503c-1.82,4.26-4.19,9.27-1.73,13.78,2.69,4.9,6.72,15.28,13.35,15.92,7.27.7,10.27-13.21,11.65-17.82s-1.9-9.1-4.09-12.92c-4-6.9-2.16-15.37-2.93-23-.07-.76-2-.31-1.93.52.58,5.75.39,11.58.79,17.35.27,4,3.59,7.9,5.32,11.37,2.6,5.22-.19,11-2.24,15.93-1.28,3.09-3.86,9-8,6.52-2.44-1.5-4.14-4.46-5.63-6.8-2.71-4.25-6-8.8-5.16-14,.76-4.8,3.77-9.13,4.92-13.87,1.23-5.05.54-11.32-.7-16.28-.2-.79-2.14-.28-1.94.51Z"/><path class="cls-4" d="M120.39,105.85c-3.4-.14-8.46-.77-8.24-5.25.09-1.76.65-3.14.49-4.88-.11-1.16-2.58-.85-3-1.86-.48-1.32-3-5.85,1.23-4.37a1.51,1.51,0,0,0,1.66-.45c1.16-1.94,1.42-3.39-.21-5.09a19.88,19.88,0,0,0-2.69-2c-3.51-2.61-.44-5.59,3.32-3.6.42.22,1.68,0,1.74-.59.15-1.64.54-3.23.69-4.87l-1.86.5c2.08,2.34,3.83,2,5.85-.21.15-.18.26-.33.12-.55l-1.4-2.09-1.66.85c3.32,1.35,5,0,4.35-3.5-.21-1.06-.48-2.12-.67-3.19a7.38,7.38,0,0,1-.08-2.15c.14-1.18,1.58-1,1.73.16.26,2,1.25,3.69,3.49,3.41a6.4,6.4,0,0,0,4.79-3.58,5.56,5.56,0,0,0,.54-3.53,3.69,3.69,0,0,0-.68-1.46c-.67-1.1.76-5.55,1.88-5.55-.31,0,1.58,1.83,1.88,2a3.57,3.57,0,0,0,2.45-.2c2.08-.66,2.68-2.74,2.23-4.66l-1.73.73c3.61,1.52,8.14,1.26,8.69-3.37l-1.34.67a29.74,29.74,0,0,0,7.46-.76l-1.1-.23c.17,1.71.08,5.76,2.68,5.86,3.57.15,8.63-2.47,10.3,2.2.77,2.13-.06,4.6,1.33,6.54,1.26,1.77,4.71.68,6.27.24l-1.1-.38a11.83,11.83,0,0,0,0,6.41c.17.69,2,.19,1.93-.52v-.43l-1.73.59c.66.27,3.05,4.15,2.85,4.4l1.8-.36-.2-.15c-.47-.37-2.34.12-1.79.76,1.44,1.67,6,2.4,4.12,5.81-.91,1.64-1.52,2.61-1.41,4.5a.36.36,0,0,0,.2.22c1.8.9,4.17,1.4,2.65,3.67-.14.22-.05.37.13.5,5.81,4.14-1.82,9.42.5,15.09l.83-.75c-6.12,1.35-8.26,2.55-6.39,9.1l1.34-.82c-1.84-.17-2.47.19-4.24.85-.29.1-.6.33-.58.67-.85,2.65-2.12,3.34-3.83,2-.57-.31-2.35.51-1.54.94a6.17,6.17,0,0,0,5.37.49c2.37-1,1.24-4.15,4.07-3.88.36,0,1.5-.26,1.34-.82a15.48,15.48,0,0,1-.88-4.8c.08-2.15,4-2.43,5.61-2.79.24,0,1-.37.83-.75-1.64-4,.7-6.51,2-10.11,1.14-3.15-3.22-4.22-1.37-7a.32.32,0,0,0-.13-.5c-2.47-1.24-4.68-2.56-2.7-5.81a5,5,0,0,0,.88-2.12c-.2-2.6-3.5-2.75-5-4.5l-1.79.76.2.16a1.44,1.44,0,0,0,1.8-.36c.68-.89-2.29-5-3.13-5.4a1.44,1.44,0,0,0-1.73.6c-.11.27,0,.39,0,.71l1.93-.52a12,12,0,0,1,0-6.12c.14-.54-.84-.45-1.1-.38-8,2.24-2.65-5.87-7-8.66-1.87-1.2-3.88-1.2-6-1-1,.1-2,.36-3.08.53-2.25.38-2.19-4.14-2.3-5.24,0-.42-.87-.3-1.1-.24a25.41,25.41,0,0,1-6.45.63c-.38,0-1.28.17-1.34.68-.33,2.79-3,3.13-5.22,2.19-.42-.18-1.9,0-1.73.73.8,2.29-.18,2.82-2.94,1.57a.62.62,0,0,0-.59-.3c-2.18,0-4.16,2.14-4.82,4.16-.44,1.34-.7,2.1.05,3.27,2.68,4.14-4.6,9.61-4.38,2.75,0-.24-.14-.37-.38-.41-1.62-.29-4.54-.46-5.12,1.67a9,9,0,0,0,.19,4.19c.26,1.26,1.73,4.82-.45,3.94-.43-.18-2.16.12-1.67.85,1.19,1.1.87,1.54-1,1.33-.37-.42-1.8-.11-1.86.5-.15,1.63-.54,3.23-.7,4.86l1.74-.59c-2.16-1.14-6.08-2.55-7.85.09-3.48,5.2,7.23,6.21,4.09,11.49l1.67-.45c-1.91-.66-3.78-1.27-5.51,0-1.52,1.17.33,4.56.82,5.78.63,1.58,3.77,1.39,2.6,4.3a7.54,7.54,0,0,0-.08,3.72c.44,4,6.41,4.45,9.38,4.58.74,0,2-1.07.74-1.12Z"/><path class="cls-4" d="M131.94,120.63c-18.76-3.46-38.25-14-38.49-35.47-.3-27,30-43.74,53.78-43.26,21.22.43,41.72,12.38,48.66,33,3.05,9,3.16,18.68-1.42,27.21-5.69,10.58-17.7,15.66-29.06,17.14-.8.1-1.7.93-.35.75,18.27-2.38,35.41-13.86,35-34-.46-22.42-19-38.6-39.55-43.38a62.14,62.14,0,0,0-57.89,16.94A37.91,37.91,0,0,0,91.74,89.8c1.07,11.45,9.44,20,19.1,25.27,6,3.29,12.8,5.09,19.52,6.33.47.09,2.15-.66,1.58-.77Z"/><path class="cls-4" d="M119.51,47.92c7.21-9.41,7-32.52,21.41-34.13,7.38-.83,18.3-1.23,23,5.64,2.45,3.6,2.35,9.17,3,13.33.84,5.11,3.09,10,5,14.78.21.51,2.1-.1,1.94-.52-2.18-5.45-4.35-10.79-5.3-16.61-.85-5.16-1-10.47-5.06-14.22-5.38-5-16.65-3.82-23.24-3.08-15.6,1.75-14.87,25-22.51,34.92-.41.54,1.46.28,1.76-.11Z"/><path class="cls-4" d="M119.06,118.49c1.12,2.13,3.25,3.39,5.14,4.78,2.35,1.73,4,4.13,5.78,6.43,3.17,4.16,6.42,7,11.51,8.41.48.13,2.2-.62,1.58-.79-5.08-1.43-8.14-4.22-11.27-8.3a42.38,42.38,0,0,0-4.78-5.65c-2-1.8-4.72-2.9-6-5.39-.28-.52-2.12.16-1.93.51Z"/><path class="cls-4" d="M131,121.4c3.75,4.4,8.35,8.27,14.22,9.2.63.1,2.28-.9,1.18-1.08-5.65-.89-10-4.66-13.61-8.89-.44-.52-2.3.17-1.79.77Z"/><path class="cls-4" d="M169.85,120.5c-2.36,5.78-8.34,11.76-14.42,13.48-1.11.32-1,.82.14.51a26.37,26.37,0,0,0,16.18-14.35c.1-.25-1.71-.1-1.9.36Z"/><path class="cls-4" d="M161.58,119a70.87,70.87,0,0,1-11.83,12.52c-.45.38,1.39.2,1.76-.11a70.79,70.79,0,0,0,11.82-12.52c.41-.56-1.47-.28-1.75.11Z"/><path class="cls-4" d="M145,131.4c-1.24.85-2.28,2.14-1.76,3.72a4.44,4.44,0,0,0,3,2.57,5.24,5.24,0,0,0,4.61-.84c1.67-1.33,1.68-3.72,1.45-5.66,0-.19-.44-.16-.55-.16a5,5,0,0,0-3.38,1.17c-.35.3.3.38.47.37a2.25,2.25,0,0,0,1.29-.48,1.1,1.1,0,0,1,.8-.22l-.56-.16c.18,1.6.26,3.57-.87,4.87-.61.7-1.43.49-2.28.1-2.3-1.07-2.93-3.64-.7-5.17.31-.22.25-.45-.13-.48a2.31,2.31,0,0,0-1.37.37Z"/><path class="cls-4" d="M143.05,134.56a12.68,12.68,0,0,0-5.53,6.89c-1.58,5.08.95,10.2-.11,15.38-.62,3-4.56,14.43,1.83,14.55,4.11.08,7.39-5.92,9-8.91,3.92-7.41-1.48-15.94,1.93-23.3.44-.94-1.51-.82-1.82-.14-2,4.25-1,9.08-.57,13.58.53,5.81-1,10.15-4.57,14.65-2,2.5-4.71,3.16-5.38-.6-.65-3.58.58-6.67,1.54-10,2.23-7.7-3.87-15.84,5-21.34,1.11-.69-.53-1.19-1.25-.74Z"/><path class="cls-4" d="M142.7,141.28a22,22,0,0,0-.7,6.26c0,.93,1.61.57,1.89,0a23.88,23.88,0,0,0,2.84-9.91c0-.94-1.92-.6-1.94.18a23,23,0,0,1-2.73,9.57H144a21.62,21.62,0,0,1,.7-6.26c.25-.83-1.72-.58-2,.18Z"/><path class="cls-4" d="M152.45,135.88c2.23,5.35,5.31,10.29,6.62,16,.68,2.93.74,6.39-.74,9.09-2.45,4.47-5.25-2.55-5.34-4,0-.68-2-.27-1.93.52.28,4.57,4.69,7.76,8.49,4.33,2.63-2.37,2-7.4,1.45-10.43-.95-5.68-4.43-10.75-6.62-16-.3-.72-2.21-.14-1.93.51Z"/><path class="cls-4" d="M115.76,132c-6.31,5-14.81,5.77-21.31,10.56-6,4.41-10.65,10.26-14.58,16.48-4.44,7-7.69,14.77-11,22.37-3.49,8.07-7.7,15.81-11.06,23.93-.29.68,1.66.45,1.93-.22,3.33-8,7.49-15.65,10.94-23.62A194.33,194.33,0,0,1,80.88,160.4C85.18,153,91,146,98.26,141.42c6.08-3.76,13.37-4.52,19.07-9.08.88-.71-1-.8-1.57-.38Z"/><path class="cls-4" d="M121.68,132.27c-13.66,6.95-15.22,26.26-11.7,39.22a81.36,81.36,0,0,0,10.73,22.92c4.46,6.72,11.37,11.25,18,15.51.72.46,2.41-.52,1.48-1.11-5.82-3.72-11.42-7.51-15.93-12.82-4.83-5.67-8.08-13.25-10.76-20.12a44.41,44.41,0,0,1-2.94-23.2c1.12-7,5.34-15.91,11.93-19.25,1.17-.6.12-1.64-.86-1.15Z"/><path class="cls-4" d="M169.22,134c5.29,5.45,13.8,6.59,18,13.13,6.09,9.44-.46,23.14-5.8,31.22a61.59,61.59,0,0,1-21.93,20.3c-5.59,3-14.14,6.45-16.76,12.75-.42,1,1.52.93,1.83.18,3.09-7.41,14.6-11,21.06-14.85,8-4.71,14.5-13.11,19.32-20.83,5.11-8.17,8.53-19,4.69-28.37-3.17-7.71-13.27-8.8-18.67-14.37-.58-.6-2.41.17-1.77.84Z"/><path class="cls-4" d="M168.62,130.44A66.42,66.42,0,0,1,197,143.66c7,5.81,11.11,14.23,14.29,22.6,3,7.77,5.25,15.76,8.76,23.32,4.65,10,12.1,18.33,16.62,28.39.22.48,2.09-.17,1.93-.52-4.52-10.06-11.79-18.5-16.62-28.39-4-8.28-6.37-17.29-9.73-25.85-3-7.7-7.22-14.69-13.43-20.22-7.58-6.73-18.72-11.31-28.56-13.31-.46-.09-2.14.65-1.59.76Z"/><path class="cls-4" d="M68.27,223.54C70.91,234,84.91,239.91,93.86,243.6c13.35,5.51,27.82,12.54,42.47,12.88.68,0,2.08-1,.77-1-14.14-.33-27.64-7.32-40.63-12.33-9.14-3.52-23.61-9.54-26.26-20.11-.16-.62-2.1-.11-1.94.52Z"/><path class="cls-4" d="M70,220c3.82-4.12,9.77-6.57,15-8.32,3.18-1.06,7-2,10.32-.9,1.73.61-1.7,4.05-2,5.68-.07.33.34.45.59.45,7.36.15,11.81,6.16,16.87,11a74,74,0,0,0,23.09,14.7c.6.24,2.36-.63,1.53-1-10.21-4.07-18.27-10.7-26.48-17.74-2.52-2.16-4.45-5-7.26-6.78a10.22,10.22,0,0,0-4-1.16c-3.35-.47-.51-2.94.91-4.27.14-.13.3-.39.12-.56-3.58-3.46-9.79-1.69-13.92-.43-5.62,1.72-12.21,4.59-16.28,9-.78.85,1.1.85,1.56.36Z"/><path class="cls-4" d="M137.3,244.55a6.93,6.93,0,0,0-.85,6.12c.38.87,2.29.32,1.93-.52-.55-1.27-.4-3.92.54-5,.8-.94-1-1.27-1.62-.59Z"/><path class="cls-4" d="M204.76,208a1.74,1.74,0,0,1-.38-.14l-1.13,1.26c10.36,2.52,18.52,9.2,18.75,20.46,0,1,2,.66,1.95-.16-.24-11.81-8.65-18.9-19.57-21.56-.74-.18-2.3.72-1.13,1.26a2.46,2.46,0,0,0,.38.14c.79.27,2.28-.86,1.13-1.26Z"/><path class="cls-4" d="M201.55,208.16c-3.45.3-5.22,3-4.58,6.33l1.56-.76c-3.31-.7-6.88.23-7.12,4.11l1.56-.63c-1.91-.43-2.89.34-4.64.69-.87.18-1.61,1.28-.28,1s2.25-1,3.72-.69c.37.08,1.53-.11,1.56-.64.16-2.43,1.59-3.35,4-2.84.39.08,1.68-.15,1.56-.76-.36-1.89-.12-4.6,2.37-4.81.93-.07,1.63-1.12.28-1Z"/><path class="cls-4" d="M221.92,230.61a21.36,21.36,0,0,0-4,2.15c-3.47,2.31-6.59,4.21-10.89,4.84-3.72.55-7.22,1.35-10.22,3.72-4.2,3.31-10.76,3.22-16,4.32q-5.14,1.08-10.26,2.29c-1.66.4-3.31.82-5,1.24-1,.24-2.68,1.55-1.11.76,1.16-.57-.61-.72-1.16-.44l-1.4.7c-1,.48.15.77.7.63,6.58-1.74,13.2-3.31,19.87-4.66,2.8-.57,5.61-1.06,8.43-1.53,1.67-.28,4-.12,5.56-1a1,1,0,0,0,.31-.24,11.27,11.27,0,0,1,6.43-4.27c2.47-.67,5.08-.74,7.57-1.29,4.68-1,7.56-4.85,11.9-6.62,1.26-.51.09-1-.72-.64Z"/><path class="cls-4" d="M187.86,218.49c-5.81-.12-8.47,4.44-11.34,8.82-4.79,7.29-15.14,7.63-21.12,13.84a.46.46,0,0,0-.1.61,43.18,43.18,0,0,0,4.18,6.26c.5.58,2.35-.15,1.78-.79a28.38,28.38,0,0,1-3.41-5c-1.3-2.33,4.27-4.59,5.61-5.26,3-1.48,6.24-2.44,9.11-4.17a16.68,16.68,0,0,0,5.17-4.49c2.45-3.27,4.35-8.68,9.4-8.58.82,0,2-1.21.72-1.23Z"/><path class="cls-4" d="M165.15,238.31a8.69,8.69,0,0,1,4,8.76c-.1.63,1.83.27,1.92-.29a9.12,9.12,0,0,0-4.36-9.32c-.46-.26-2.26.46-1.56.85Z"/><path class="cls-4" d="M162.87,245.62c0,.39-.21.8-.06,1.18.31.77,1.39.68,2.09.69a5,5,0,0,0,.43-1.48h-1.39c-.41,0-1,.64-1.07,1.09s.53.91.88.91h1.4a1.46,1.46,0,0,0,1-.78.64.64,0,0,0-.58-.87,3.69,3.69,0,0,1-.83-.12c-.13,0,0,0,0,0s0,.13,0,0a1.6,1.6,0,0,1,0-.23,2.14,2.14,0,0,0,.07-.49c0-1-1.93-.67-1.95.16Z"/><path class="cls-4" d="M128.89,242.84c-2.9,3.24-2.22,8-2.18,12,0,.28,1.93,0,1.93-.52,0-3.81-.77-8.56,2-11.65.38-.42-1.44-.16-1.74.17Z"/><path class="cls-4" d="M130.06,251.58c.64,0,2.09-1,.79-1-.63,0-2.09,1-.79,1Z"/><path class="cls-4" d="M138.38,244.52c4.62-.23,9,2,13,4.09,1.36.7,7.35,3.14,7.35,4.84l1.39-.63c-1.41.18-2.78.51-4.18.69-.11,0-1.72.51-1.33.7,3.53,1.73,6.2,4.35,8.95,7.1,1.74,1.73,2.53,3-.94,2.94a29.17,29.17,0,0,1-5.33-.78c-6.58-1.38-14-4.28-18.76-9.16-.34-.35-2.1.37-1.83.65,4.94,5,12.29,7.64,19,9.24,3.9.94,8.75,1.6,12.38-.56.11-.06.33-.21.18-.34-4-3.35-7.1-7.42-11.83-9.74l-1.33.7c1.4-.18,2.77-.51,4.17-.69.3,0,1.39-.19,1.39-.64,0-2.21-8.08-5.31-10-6.24-3.58-1.76-7.41-3.12-11.44-2.92-.5,0-2.12.82-.85.75Z"/><path class="cls-4" d="M154.9,240c-2.1,0-4.16.74-5.19,2.67-.51,1,1.45.94,1.84.21.66-1.24,1.86-1.48,3.16-1.5,1.09,0,1.5-1.4.19-1.38Z"/><path class="cls-4" d="M130.13,266.43c4.09.53,7.51-1.39,10.71-3.74l-1.29-.92a28.23,28.23,0,0,1-8.85,4.53c-1.79.52-6,.7-5.89-2.15.08-2.29,3.92-3.2,5.57-3.28,1.11-.05,1.47-1.51.16-1.45-3.54.17-11.4,4.5-5.76,7.92,4.84,2.93,12.25-1.85,16.06-4.65,1.06-.77-.5-1.49-1.29-.92-2.62,1.92-5.38,3.66-8.76,3.22-1-.12-2,1.27-.66,1.44Z"/><path class="cls-4" d="M61.15,202.82c-5.12,7.65-4.72,18.09-6.9,26.81-3,11.93-7.69,23.34-10,35.45-.15.76,1,.74,1.42.55,3.73-1.74,5-5.82,6-9.56.76-2.91,1.75-3.68,3.73-5.66s3-4.87,4.85-7l-1.78,0c.32.92,1,1.7,1.29,2.58s1.86.52,1.95-.32a7,7,0,0,1,2.41-4.78l-1.7.12c1.23,2.16,2.34,3.4,2.48,6.07.06,1.06,1.83.79,2-.12.17-.18.34-.35.5-.53,1.15-.42.8-1.84-.38-1.4s-1.88.69-2.08,2.05l2-.12c-.15-2.94-1.27-4.35-2.67-6.82-.35-.62-1.34-.25-1.7.12a8.48,8.48,0,0,0-2.75,5.53l2-.32c-.32-.91-1-1.71-1.29-2.58s-1.36-.53-1.78-.05a28.25,28.25,0,0,0-2.84,4.1c-1.47,2.45-3.19,2.81-4.9,4.92-.84,1-1.18,4.41-1.49,5.53-.77,2.7-1.83,5.79-4.58,7.07l1.42.55c2.09-10.83,6-21.16,9-31.72a113.73,113.73,0,0,0,3.11-13.89c.88-5.51,1.27-11.13,4.47-15.91.69-1-1.11-1.41-1.63-.62Z"/><path class="cls-4" d="M70,252.24c-.1.52-.45,1.43-.17,1.94.12.22.58.21.77.18,1.67-.24,2-3,2.4-4.24s.93-2.76,1.43-4.13a8.45,8.45,0,0,1,1.19-2.71c.77-.86-1.11-.87-1.56-.36-1.23,1.37-1.71,3.64-2.29,5.34-.4,1.14-.77,2.29-1.16,3.43-.14.44-.29.87-.44,1.3-.37,1-.45.4.68.24l.77.18c.14.25.08,0,.1-.22.06-.4.14-.79.22-1.18.15-.78-1.8-.47-1.94.23Z"/><path class="cls-4" d="M78.4,257c0-2.74-.65-9.36,2.2-11.1,1.11-.68-.6-.83-1.17-.48-3.61,2.21-3,8.48-3,12.1,0,.52,1.93.18,1.93-.52Z"/><path class="cls-4" d="M233.78,213.7c.2,18,5.54,35.59-2.58,52.73l1.93-.38c-1.34-8.16-2.29-16.34-3.64-24.5-.11-.67-1.7-.15-1.7.52v6.45c0-.18,1.06-.35,1.7-.52a23.5,23.5,0,0,0-4.05-5.27c-.39-.4-1.6-.1-1.85.36a22.23,22.23,0,0,1-3.77,5c-.8.8,1.09.74,1.53.3a23.22,23.22,0,0,0,4-5.3l-1.8.37a20.61,20.61,0,0,1,3.57,5c.34.63,1.69.19,1.69-.52v-6.45c0,.17-1,.35-1.69.52,1.34,8.16,2.64,16.34,4,24.5.13.75,1.8,0,2-.38,8.18-17.26,2.81-34.87,2.61-53,0-.59-1.91-.22-1.9.51Z"/><path class="cls-4" d="M214.6,249.29c-2,2.21-3.66,4.72-6.28,6.3l1.6.15c-.26-1.8-1.14-3.31-1.29-5.16,0-.38-.61-.41-.87-.41-2.32,0-2.54.82-4,2.86-3.32,4.74-6.39,9.65-9.83,14.31-.72,1,1.11,1.18,1.6.51,2.65-3.59,5.1-7.32,7.58-11,.91-1.37,2.67-5.33,4.08-5.33-1.08,0,.67,4.18.76,4.75s1.26.35,1.6.15c2.74-1.66,4.48-4.27,6.61-6.6.82-.89-1-1.11-1.6-.51Z"/><path class="cls-4" d="M81.63,255c1.32,3.26,3.1,5.75,6.38,7.17,4,1.72,7.4,2.4,10.45,5.84.42.48,2.27-.21,1.8-.74A17.39,17.39,0,0,0,92,262.07c-4.29-1.38-6.73-3.31-8.48-7.62-.26-.65-2.16-.06-1.93.51Z"/><path class="cls-4" d="M67.48,218.48c-2.79,4.76-1.07,10.84.17,15.85.21.86,2.14.5,2.14-.32v-6.45c-1,.11-1.49.22-2.14.33.23,1.37.95,2.49,1.18,3.86.17.94,2,.45,1.89-.51-.24-1.38-.9-2.5-1.14-3.87-.15-.87-1.79-.49-1.79.32v6.45a8,8,0,0,1,1.77-.32c-1.18-4.79-2.79-10.55-.13-15.09.56-1-1.5-1-2-.25Z"/><path class="cls-4" d="M90.66,200.81a77.5,77.5,0,0,0,25.84,29.75c.5.34,2.21-.44,1.81-.7a77,77,0,0,1-25.72-29.57c-.29-.56-2.15.1-1.93.52Z"/><path class="cls-4" d="M102.24,181.27c.27,11.22,6.69,21.33,13.08,30.13,7.32,10.09,16,19.07,24.42,28.27.44.48,1.9.36,1.86-.5a43.6,43.6,0,0,0-2.6-11.8c-.31-1-2-.42-1.93.52a9.73,9.73,0,0,0,5.39,8.05c.77.45,2.44-.6,1.48-1.15a9,9,0,0,1-4.94-7.42l-1.93.52a41.79,41.79,0,0,1,2.57,11.41l1.86-.5c-7.73-8.48-15.61-16.8-22.63-25.89S104.49,193,104.21,181.15c0-1.06-2-.79-2,.12Z"/><path class="cls-4" d="M145.37,235.82c.61,0,2.1-.91.8-.91-.6,0-2.09.91-.8.91Z"/><path class="cls-4" d="M168.47,218.78c10.58-9.35,19.81-20,28.49-31.09.57-.72-1.32-.58-1.68-.21a165.21,165.21,0,0,0-19.46,23.35c-.57.84,1.36.48,1.68.22,6.06-5,11.21-11.1,17.88-15.34,1.1-.71-.57-1-1.22-.63-6.79,4.32-12,10.51-18.22,15.61l1.68.21a164.29,164.29,0,0,1,19.22-23.06l-1.68-.22c-8.61,11-17.76,21.53-28.25,30.8-.85.76,1.07.8,1.56.36Z"/><path class="cls-4" d="M210.64,202.21c2.58,3.78,6.06,7.14,7.66,11.49.25.67,2.16.1,1.94-.51-1.65-4.45-5.18-7.87-7.81-11.72-.36-.53-2.23.11-1.79.74Z"/><path class="cls-4" d="M218.3,218.86A60.21,60.21,0,0,1,222,239.49c0,.26,1.77,0,1.77-.52v-6.44c0-.11-.13-.11-.17-.11-2,0-2.36.12-3.84,1.55-3.2,3.1-6.33,5.78-9.09,9.31a20.48,20.48,0,0,1,2.1-.44v-1.29c0-.36-1.7.18-1.84.26a15,15,0,0,0-6.74,7.92c-.1.26,1.68.1,1.86-.36a14.17,14.17,0,0,1,6.33-7.56,9.12,9.12,0,0,0-1.61.26v1.29c0,.39,1.63-.22,1.81-.44a51.54,51.54,0,0,1,7-7.27c.49-.42,2.16-2.5,2.8-2.5-.28,0-.18,5.89-.18,6.34l1.92-.52a60.6,60.6,0,0,0-3.87-20.63c-.16-.4-2.06.21-1.94.52Z"/><path class="cls-4" d="M199.12,245.4,196.54,248a.55.55,0,0,0,.25.92,1.35,1.35,0,0,0,1.37-.36l2.58-2.58a.55.55,0,0,0-.25-.93,1.37,1.37,0,0,0-1.37.37Z"/><path class="cls-4" d="M199.55,245.36l-1.29-1.29c-.33-.33-2.06.4-1.82.64l1.29,1.29c.33.33,2.06-.4,1.82-.64Z"/><path class="cls-4" d="M115.16,254.84c-9.6,29-16.58,58.74-25,88.06-4.34,15.14-8.33,30.39-10.83,46a124.17,124.17,0,0,0-1.71,17.53c-.08,4.44-.16,9.81,4,12.43.55.34,2.27-.44,1.81-.73-4.42-2.75-4-8.72-3.9-13.29a146.42,146.42,0,0,1,2.29-19.91c2.51-14.92,6.57-29.55,10.74-44.08,8.22-28.72,15.05-57.87,24.45-86.24.2-.6-1.72-.33-1.92.27Z"/><path class="cls-4" d="M90.72,417.54A5.93,5.93,0,0,0,95.11,419a1.62,1.62,0,0,0,1.28-.53c.26-.37-.22-.55-.52-.55a4.37,4.37,0,0,1-3.35-1.13c-.49-.46-2.31.27-1.8.75Z"/><path class="cls-4" d="M104.91,417.57c2.74,2.6,6,2.8,9.56,2.8.83,0,2-1.25.71-1.25-3.16,0-6.06-.05-8.49-2.35-.56-.54-2.39.22-1.78.8Z"/><path class="cls-4" d="M122,426.79c5.84,2.4,13.1.07,19-.83,5.24-.8,10.5-.13,15.73.42a150.47,150.47,0,0,0,15.75.45c8.23,0,17,.8,24.86-2a9.39,9.39,0,0,0,4.65-3.3c.6-.83,1.15-1.7,1.71-2.56,2-3.09,5.35-.23,7.2,1.28.41.33,1.87,0,1.87-.62v-11.6c0-.94-2-.59-2,.18v11.61c0-.21,1-.41,1.61-.62-2.85-2.31-6.37-4.7-9.5-1.64-2.81,2.75-3,5.07-7.32,6.61-5.32,1.88-11.53,1.36-17.07,1.36-5.3,0-10.61.09-15.91,0-5.51-.13-10.95-1.15-16.47-1.26-7.37-.13-15.86,4.26-23,1.33-.73-.3-2.26.75-1.15,1.2Z"/><path class="cls-4" d="M171.89,248.52c.18,6,2,11.73,4,17.4,2.29,6.53,4.45,13.1,6.58,19.68,4.67,14.47,8.67,29.09,12.2,43.87,3.32,14,5.51,28.18,7.85,42.33,2.26,13.64,1.26,27.44,6.75,40.47.22.54,2.11-.08,1.93-.52-5.16-12.24-5.2-25.66-6.45-38.68-1.4-14.69-4.83-29.76-8.15-44.11-3.29-14.2-7.22-28.21-11.63-42.1-2.11-6.65-4.23-13.29-6.58-19.85-2.21-6.18-4.38-12.4-4.58-19,0-.43-1.95-.1-1.93.52Z"/><path class="cls-4" d="M120.37,256c-8.33,12.36,7.54,27,3.81,40.12l1.93-.23c.31-5.2,4.59-10.46,7.47-14.54,3.24-4.58,6.91-10.08,11.51-13.41,1.06-.77-.59-1-1.21-.6-4.26,3.08-7.61,7.92-10.73,12.07-3.4,4.53-8.62,10.75-9,16.71-.05.85,1.76.38,1.93-.23,3.69-13-12-27.8-3.93-39.83.51-.75-1.44-.59-1.81-.06Z"/><path class="cls-4" d="M143.59,266.7c5.38,8.95.54,21.59,7.74,29.65.37.42,1.84.15,1.86-.5.26-9.07,4.47-19.51,11.42-25.49.86-.74-1.06-.8-1.57-.37-7.09,6.11-11.52,16.83-11.79,26.09l1.87-.5c-7.12-8-2.38-20.73-7.74-29.66-.35-.58-2.23.05-1.79.78Z"/><path class="cls-4" d="M121.11,458.91c5.13,2.4,11.53,2.76,16.18-.85.87-.68-1.06-.71-1.55-.33-3.77,2.92-9.06,2.12-13.1.23-.57-.27-2.34.57-1.53,1Z"/><path class="cls-4" d="M155.12,457.15c1.28,1,3.31.75,4.8.57,3-.36,6-1.11,9-1.58.83-.12,1.68-1,.33-.83-1.89.29-3.75.7-5.62,1.05s-5,1.35-6.65.1c-.46-.36-2.19.4-1.81.69Z"/><path class="cls-4" d="M144.83,167c-3.4,4.54-.72,12.62-2,17.88-2.23,9.09-6.4,17.34-7.27,26.78-.06.61,1.86.21,1.91-.31.81-8.82,4.33-16.76,6.84-25.17a29.22,29.22,0,0,0,1.08-9.07c0-3.13-.77-7.52,1.22-10.19.44-.59-1.46-.33-1.76.08Z"/><path class="cls-4" d="M151.66,168.58c-1.88,12.45-8.18,24.2-7.68,37,0,.54,2,.17,1.93-.52-.5-12.69,5.81-24.38,7.68-36.74.1-.69-1.84-.33-1.93.27Z"/><path class="cls-4" d="M160.87,135.67a50.81,50.81,0,0,0,3.93,9.39c.39.8,2.23.07,1.76-.86a48.84,48.84,0,0,1-3.75-9c-.25-.92-2.18-.41-1.94.51Z"/><path class="cls-4" d="M164.72,135.67a6.77,6.77,0,0,0,1.41,2.61,6.32,6.32,0,0,0,2.62,1.42,1.67,1.67,0,0,0,1.36-.19c.22-.12.63-.55.18-.7a6.26,6.26,0,0,1-2.37-1.27,5.78,5.78,0,0,1-1.27-2.38c-.22-.64-2.14-.08-1.93.51Z"/><path class="cls-4" d="M167.08,137.29a34.29,34.29,0,0,1,6.08,8.37c.27.52,2.12-.16,1.94-.52a35.2,35.2,0,0,0-6.21-8.53c-.37-.38-2.16.33-1.81.68Z"/><path class="cls-4" d="M131,143.84l-6.91,9.21,1.87-.09a3.12,3.12,0,0,1,.7-2.15c.56-.69-1.4-.56-1.8-.06a3.51,3.51,0,0,0-.84,2.45c0,.87,1.58.31,1.87-.09l6.92-9.22c.53-.71-1.42-.57-1.81,0Z"/><path class="cls-4" d="M131.9,141.9c-2.52-1-5.36,1.1-7.05,2.76-.43.42.56.44.74.42a4.42,4.42,0,0,0,2.57-1.24c.35-.33-.29-.45-.49-.45a1.91,1.91,0,0,0-1.28.5,1,1,0,0,1-.5.29l.74.43c.86-.84,2.4-2.4,3.71-1.86.5.21,2.27-.55,1.56-.85Z"/></svg>