<svg id="layer1" xmlns="http://www.w3.org/2000/svg" viewBox="0 0 204.74 447.85"><defs><style>.cls-1{fill:#ffd524;}.cls-2{fill:#ffde55;}.cls-3{fill:#40a340;}.cls-4{fill:#492d0c;}</style></defs><path class="cls-1" d="M184.19,96.22a16.47,16.47,0,0,0-3.94-2.39,3.1,3.1,0,0,0-3.13-2.33v-.07s-.3,0-.5,0a10.85,10.85,0,0,1-1.4-.09c-3-3-6.85-4.57-11-5.49-2.83-.64-4.42,2.17-3.7,4.48a3.27,3.27,0,0,0,.93,3.47,2.71,2.71,0,0,0,.06,1,2.88,2.88,0,0,0-.24,1c0,.35,0,.66,0,1h-.2a13.14,13.14,0,0,1,.07,3.91,3.45,3.45,0,0,0,.35,2.16,2,2,0,0,0,0,.24,3.87,3.87,0,0,0,0,.9,6.5,6.5,0,0,0-2.84,3.82,1.09,1.09,0,0,1-.11.1,4.15,4.15,0,0,0-.8.91,5.15,5.15,0,0,1-1.81.91,3.5,3.5,0,0,0-5.22,1.44,3.47,3.47,0,0,0-3.34,2.9c-.45-.3-.9-.59-1.35-.9a3.15,3.15,0,0,1-.22-.49,3.82,3.82,0,0,0-6.59-.33,3.5,3.5,0,0,0-1.27-.48c-.69-.11-1.38-.18-2.06-.22a2.94,2.94,0,0,0-.26-.39c-1.67-2.06-3.94-2.91-6.08-4a3.28,3.28,0,0,0-.72-1.71,15.82,15.82,0,0,0-3.78-3.79,4.13,4.13,0,0,0-2.61-.66,3.66,3.66,0,0,0-.62-.25c0-.18-.12-.35-.13-.54,0,0,0-.11,0-.26s.12-.33.14-.41h0c0-.29,0-.64,0-.92,0-.46-.06-.93-.1-1.45a3.4,3.4,0,0,0-3.4-3.12,13.75,13.75,0,0,1,.68-3.22,3.62,3.62,0,0,0,.61-1.28c.15-.64.31-1.28.46-1.92a12.06,12.06,0,0,0,.61-2.54,3.67,3.67,0,0,0-4.75-4A3.82,3.82,0,0,0,111.78,84c-.15.49-.28,1-.41,1.49a2.88,2.88,0,0,0-3.31,2c-.21.56-.43,1.11-.65,1.67l-.42,1c-.1.12-.19.23-.26.33a3.54,3.54,0,0,0-4.37,2.6,17.72,17.72,0,0,0-.73,4.66,4.11,4.11,0,0,0-.69,1.35c-.85,2.73-.14,5.5.69,8.15a3,3,0,0,0,1.56,1.82,19.53,19.53,0,0,0,1.83,3.08,9.57,9.57,0,0,0-2.31-1.65,3.45,3.45,0,0,0-2.74-.08,75.75,75.75,0,0,0-3.86-10.83c-.27-.67-.53-1.35-.78-2a24.35,24.35,0,0,1,.3-2.53,10.57,10.57,0,0,0,2.16,1,3.55,3.55,0,0,0,3.78-2.12,17.76,17.76,0,0,0,.8-3.15A10.82,10.82,0,0,0,107,87a3.85,3.85,0,0,0,.67-.62h0l.11-.16.34-.39a3.61,3.61,0,0,0,3.29-1.94,11.87,11.87,0,0,0,1.17-3.25,3.56,3.56,0,0,0,3.56-3.78c-.13-1.38-.26-2.71-.41-4a15.26,15.26,0,0,0,.27-1.73,3,3,0,0,0,2.88-1.92s0-.11,0-.16a5.11,5.11,0,0,0,2-1.77,3.3,3.3,0,0,0,3.27-2.76c0-.3.11-.62.16-.93a5.44,5.44,0,0,0,2.14-2.7,7.91,7.91,0,0,0,3-2.55,3.55,3.55,0,0,0,2.83-1.93c.09-.15.17-.32.26-.49a18.34,18.34,0,0,0,2.72,3.37,3.28,3.28,0,0,0,3.46.59,3.37,3.37,0,0,0,2.56-4.52c-.08-.22-.13-.44-.2-.66a32.23,32.23,0,0,0-1.51-7.93,2.89,2.89,0,0,0-2-2.1,16.63,16.63,0,0,0-1.76-3.06c-.08-2.69-.74-5.07-2.33-6.5a5.83,5.83,0,0,0-3-2.27c-2.63-.87-5,.62-5,3.46,0,.81,0,1.75.12,2.76,0,0,0,0,0,0a4.77,4.77,0,0,0-2.54,2.81,5,5,0,0,0-3.44,2,7.21,7.21,0,0,0-1.54,3.71,4,4,0,0,0-1.47.94,4.24,4.24,0,0,0-2.76,1.65,3.46,3.46,0,0,0-4,1,13.19,13.19,0,0,0-2.24,6,3.57,3.57,0,0,0-2.81,3.75,19.58,19.58,0,0,0,.63,2.67,25.45,25.45,0,0,0-5.08-5.74,3.4,3.4,0,0,0-2.2-.84,15.75,15.75,0,0,0-8.69-3.52,23.11,23.11,0,0,0-2.86-3.19,3.17,3.17,0,0,0-2.11-.9,47.41,47.41,0,0,1-3.74-4.24,14.29,14.29,0,0,0-3.2-4.28c-3.1-2.64-7.24,1.41-5.12,4.7l.18.26a4,4,0,0,0-.91,2.4c-.25,8-5.38,14.8-4.27,23,.87,6.49,5,12.38,8.29,18.06-6.22,3.2-10.69,12.25-13.42,17.42-2.87,5.46-5.87,10.84-8.39,16.47-1,2.2-2,4.42-2.91,6.63a52.4,52.4,0,0,0-8.52,17.5c-1.11,4.14,4.69,5.26,6.61,2.14.07-.12.14-.26.22-.38a.7.7,0,0,1,.14,0c6.35.87,12.54-.19,18.83-1,1.46-.08,2.92-.23,4.31-.36l.25,0c3.24-.16,6.5-.11,9.74-.43,5.86-.59,13.33-2.1,18.21-6.18a24.65,24.65,0,0,0,6.7-5.11,8.8,8.8,0,0,0,2.22-8.29,10.92,10.92,0,0,0,.29-5.12c.15-2.46-1-5.35-2.66-7.73a30.13,30.13,0,0,0,4.8,3.89,2.87,2.87,0,0,0,.23.7,53.23,53.23,0,0,0,4.11,6.68,26.42,26.42,0,0,0,0,3.56,12,12,0,0,0-1,9.44c0,4.09,3,8.68,7.05,9.6a13,13,0,0,0,7-.86c6.11,8.49,25.08,2.12,29.2,13.7,1.32,3.72,7.18,2.43,6.77-1.51-.24-2.3-1.06-5.3-1.55-8.25a2.36,2.36,0,0,0,1.13-2.42s0,.39,0,.39h0s-.06-.5-.06-.52a35.93,35.93,0,0,0-.83-4.68,3.61,3.61,0,0,0-1.38-4.31c-.35-.86-.73-1.77-1.14-2.61a3.67,3.67,0,0,0-.34-3.25,21.38,21.38,0,0,0-4.4-4.64c-.49-.71-1-1.43-1.52-2.15a3.24,3.24,0,0,0-3.35-1.39q-.88-.6-1.74-1.23c-1.25-1.22-2.52-2.43-3.81-3.6,2.91.72,5.67.22,7-2.48,1-.2,1.77-1.14,2.48-1.14h0a9.88,9.88,0,0,0,2.78,0c4.77-1.17,8.64-4.39,12.42-7.39A110.88,110.88,0,0,1,184,101.84C186,100.67,185.78,97.61,184.19,96.22Z"/><path class="cls-2" d="M138.21,63.87c-1.45-.72-3.09-1-4.52-2.13-1.67-1.34-4.56-1-5.42,1.18-.09.23-.19.47-.3.7a3.5,3.5,0,0,0-.91,2.69c0,.16,0,.54,0,.54h0s0,.35.1.55c.06.54.14,1.06.23,1.6a3,3,0,0,0-4.28,1.65,44.27,44.27,0,0,0-2,7.36c-1.26,2.41-1,5-.54,7.56,0,.08,0,.15,0,.23a3.11,3.11,0,0,0,.26,1.06c.2.94.4,1.88.55,2.82a8.45,8.45,0,0,0,1,2.94c.2.22.36.09.63,1.09h0c1,3,2.45,3.11,3.45,4.88a2.44,2.44,0,0,0,1.42,1,11.84,11.84,0,0,0,.85,1.52c.79,3.59,2.77,7,6.64,7.59.34.2.69.38,1,.6,2.25,1.42,4.19-.23,4.64-2.29a11,11,0,0,0,4.3,1,8.37,8.37,0,0,0,1.61-.09c5.07,2.1,10.71-1.54,11.12-7.66a26.41,26.41,0,0,0-.27-5.49,39.27,39.27,0,0,0-5.48-20.59c-1.79-3-5.74-6.89-9.35-7.06A10.65,10.65,0,0,0,138.21,63.87Z"/><polygon class="cls-2" points="127.05 66.74 127.05 66.74 127.05 66.74 127.05 66.74"/><path class="cls-2" d="M106.9,116.2c-1.64-5-5-9.78-8.49-14,0,0,0,0,0-.06a2.87,2.87,0,0,0-2.75-3.06c-.91-1-1.8-1.94-2.66-2.84-2-2.1-6.38.06-5.74,3a.14.14,0,0,0,0,.07C84.73,97.88,81.71,98,80,100.67a8.55,8.55,0,0,0-1,5,3.17,3.17,0,0,0-2.65,2,14.74,14.74,0,0,0,.21,9.27c-.29,5.49,3.36,10.1,6.2,14.59a3,3,0,0,0,2.2,1.45,12.86,12.86,0,0,0,6.69,4.25,3.48,3.48,0,0,0,3.81-1.94c1.8-4.85.7-8.92-1.46-12.71a3.72,3.72,0,0,0,1.42-1.68,18.16,18.16,0,0,0,7.59,5.79c2.68,1,4.87-.73,5-3.47a18.45,18.45,0,0,0-.38-4.38A2.93,2.93,0,0,0,106.9,116.2Z"/><path class="cls-2" d="M125.77,114.54A35.28,35.28,0,0,1,130,115c4.44.89,5.7-6,1.28-6.88a16.16,16.16,0,0,0-3.26-.22l-1.79.06-.35-.05a3.37,3.37,0,0,0-3.71-1.89,3.45,3.45,0,0,0-3.86-1.57,3.57,3.57,0,0,0-4.19-.9,3.41,3.41,0,0,0-1.9-.13c0-.15-.11-.29-.15-.44-.91-4.36-7.89-3.81-7,.6s4.13,7.38,7.27,10.59a2.9,2.9,0,0,0,1,.64s0,0,0,0a3.17,3.17,0,0,0,3.94,1.22.63.63,0,0,0,.12.11,3.65,3.65,0,0,0,4,.33A3.55,3.55,0,0,0,125.77,114.54Z"/><path class="cls-2" d="M163.89,141.68a3.84,3.84,0,0,0-1.37-2.33c-2.12-5-5.62-9.32-8.28-14.13-1.18-2.12-4.16-1.76-5.6-.19-2.3-1-5.46.4-5,3.36,0,.14.05.29.08.43-1-1.11-2.05-2.24-3-3.41a3.52,3.52,0,0,0-5.1-.52c-.49-.36-1-.72-1.41-1.09a3.64,3.64,0,0,0-1.92-.83l-.19-.35c-2-4-8.59-1.61-6.56,2.43a40,40,0,0,0,11.83,14c3.7,3.54,8.05,6.34,12.81,7.22a3.4,3.4,0,0,0,2-.25q1.71,1.4,3.45,2.76a3.41,3.41,0,0,0,2.53.75,27,27,0,0,1,.09,3.81,3.39,3.39,0,0,0-.31,5.44l1,.88a3.55,3.55,0,0,0,5.7-2C165.94,152.48,164.92,146.76,163.89,141.68Z"/><path class="cls-2" d="M79.15,54.47a3.12,3.12,0,0,0,.42.65,83.75,83.75,0,0,0,7.32,7c2.58,2.77,5.11,5.58,7.78,8.25.44,1.09.82,2.07,1.15,2.86a3.29,3.29,0,0,0,2.82,2.14,4.91,4.91,0,0,1,0,2.06c-1.12,4.38,5.77,5.62,6.89,1.28,1.61-6.3-3.11-11.47-6.6-16.2-.23-.31-.46-.62-.7-.92-3-5.56-7.06-10.72-12.79-11.82a27.16,27.16,0,0,0-2.55-1.23c-3.65-1.5-6.83,3.17-3.76,5.84Z"/><path class="cls-2" d="M115.46,69.18c0-.14,0-.28,0-.42a2.93,2.93,0,0,0,.83-1.27c.68-1.93,1.3-3.93,1.94-5.92a3.49,3.49,0,0,0,3.22-1.09,23.63,23.63,0,0,0,3.71-6.41,3.84,3.84,0,0,0,.35-.18,13.89,13.89,0,0,0,5.28-7,2.82,2.82,0,0,0,1-2.78c.68-2.26,1.18-4.55,1.73-6.59.79-2.89-2.87-5.05-5.17-3.74a3.47,3.47,0,0,0-4.84,1.41c-2.38,3.92-4.53,8.15-7.14,12-.62.73-1.25,1.45-1.89,2.15a3.06,3.06,0,0,0-1.73,1.1,18.61,18.61,0,0,0-1.46,2.36c-.08.1-.16.19-.23.29l-.53.58a2.84,2.84,0,0,0-2.07,2.57c-.07,1.23-.15,2.45-.21,3.67a3.14,3.14,0,0,0-1.74,3.26c.29,3.09.83,5.76,2.65,8.33C111.26,74.55,115.43,72.5,115.46,69.18Z"/><path class="cls-3" d="M105.52,261a49.85,49.85,0,0,0-.48-9.36,1.7,1.7,0,0,0,.2-1A291.93,291.93,0,0,0,100.83,218a2.7,2.7,0,0,0,.8-2.45h0A35.27,35.27,0,0,0,98.86,208a93.57,93.57,0,0,0-3.21-9.39q-.84-2.48-1.78-4.92c-.21-.72-.41-1.44-.61-2.17-1.42-5.16-2.39-11.1-5.46-15.59a1.54,1.54,0,0,0-.17-.19s0-.07,0-.11c.17-3.08-1.05-6.11-2-9-.08-.26-.2-.59-.33-1a30.87,30.87,0,0,0-1-3.75c.81-2.77,1.32-5.61,1.86-8.48.2-1.09-.71-1.77-1.68-2a2,2,0,0,0-2.1-1.61l-.48,0c-1.36.12-3.57,1.39-2.54,3.11a.19.19,0,0,1,0,.07,7.47,7.47,0,0,0-1,2.5,14.5,14.5,0,0,0-1,5.65,14.54,14.54,0,0,0-.13,3.89c-1.5-.38-3.67.87-3.51,2.53a125,125,0,0,0,7.57,32.16c1.07,7.78,3.76,15.33,6.37,22.78,1,13.65,4.48,26.84,6.08,40.44.4,3.41.62,6.84.75,10.27a24.89,24.89,0,0,0,.08,2.73c.11,4.92.06,9.85.06,14.77-.88.52-1.66,1.14-1.66,1.6-.09,12,0,24.19-.8,36.18-.68,10.52-3.24,20.8-4.08,31.3l-.24,1.31c-1.12,5-2.22,9.92-3.23,14.89-.08.38,3.85-1.22,4.18-2.43,1.06-4,1.94-8,2.72-12.09a1.51,1.51,0,0,0,.54-.8c.13-1.42.3-2.82.48-4.23.83-3.68,1.68-7.36,2.52-11a1.79,1.79,0,0,0,.49-.57,38.27,38.27,0,0,0,2.66-12.08c1.81-6.56,3.84-13.06,4.31-19.82a1.21,1.21,0,0,0,.42-.73c.09-2.59-.24-5.07-.19-7.65,1.75-6.28,3-13.3,2-19.39h0c0-.05.41-.22.41-.29s.19-.1.19-.13c.21-3.25.35-6.47.33-9.65a1.26,1.26,0,0,0,0-.28,1,1,0,0,0,0-.17c-.07-.8,0-1.61,0-2.41A80.43,80.43,0,0,0,105.52,261Z"/><path class="cls-4" d="M77.61,150.68c-2.87,6.81-.34,14.09,2,20.66.32.9,2.25.36,1.93-.52-2.28-6.27-4.88-13.37-2.12-19.9.43-1-1.51-1-1.86-.24Z"/><path class="cls-4" d="M86.18,150.24c-4.24,9.73-.33,20.94,3.33,30.24,4.79,12.18,10,24.08,12.62,37,5.25,26.11,5.59,53.28,3.32,79.74-1.63,18.94-6.29,36.54-11.31,54.81-4.9,17.82-10.45,35.85-12.8,54.23,0,.25,1.85.08,1.93-.51,4.58-35.86,20.17-69.37,23.77-105.41a305,305,0,0,0-2.32-79.61c-2.14-13.21-7.08-25.43-12.08-37.77-4.06-10-9.2-22.38-4.56-33,.15-.33-1.69-.16-1.9.34Z"/><path class="cls-4" d="M83.27,405.74c-.25-15.31,3-31,5.3-46,2.63-17.56,4.77-35,5.35-52.81a399.88,399.88,0,0,0-5.41-77.18c-3.74-22.93-15.54-44.45-15.13-68l-1.87.62A22.11,22.11,0,0,1,75.64,168c.34.59,2.18-.08,1.93-.52a22.32,22.32,0,0,0-4.26-5.9c-.42-.39-1.85,0-1.86.62-.41,23.54,11.29,45.14,15.13,68A400.61,400.61,0,0,1,92,307.41c-.5,18.55-3,36.77-5.71,55.09-2.14,14.34-5.17,29.2-4.93,43.75,0,.52,1.94.17,1.93-.51Z"/><path class="cls-4" d="M75.7,168.11c10.1,12.21,15.8,26.22,20.8,41.14a196.49,196.49,0,0,1,9.74,49.55c2.38,35.65-7.69,70-15.2,104.45-.15.7,1.79.38,1.93-.26,7.41-34,17-67.64,15.31-102.82a194.42,194.42,0,0,0-9.85-51.44c-4.92-15-10.8-29.11-20.93-41.36-.41-.5-2.26.18-1.8.74Z"/><path class="cls-4" d="M98.86,98.31c-2,3.16-1.46,7-.26,10.35,1.48,4.12,4.47,5.93,8.57,6.36A42,42,0,0,0,120.58,114c7-1.63,13.66-1.61,20.81-1.69.58,0,2.11-.89.81-.87-4.91,0-9.81-.12-14.7.35-3.67.36-7.18,1.59-10.83,2.1-5.93.84-12.31,1.17-15.63-4.6-1.87-3.26-2.3-8-.27-11.25.2-.31-1.6-.19-1.91.31Z"/><path class="cls-4" d="M100.59,98.34c7.63-7.5,14.19-16.09,20.85-24.42.56-.71-1.39-.59-1.81-.08C113.05,82.08,106.57,90.57,99,98c-.82.8,1.08.83,1.56.36Z"/><path class="cls-4" d="M131.8,61.49c-2.21-.07-4.79-.92-6.73.53-.95.71.54,5.19.84,5.18-.3,0-1.3.19-1.36.59-.11.72-.15,1.1-.21,1.86l1.37-.69c-2.43.16-7.58.1-7.51,3.68,0,.9,5.23,1.12,1.85,3.37-1.2.79-1.1,1.5-.11,2.44l.81-.69c-2.55.63-2.94,1.8-4.39,3.93a.15.15,0,0,0,0,.19c1,.56,3.9.7,2,3-.06.08-.16.22,0,.3.47.27,2.94,3.66,1.84,4.2-.83.4-2.91,1.16-3,2.31-.38,3.06,5.29-.12,4.56,3.67-.21,1.1-2,4.9.91,4.42.82-.14,2.55-1.38,3-.15s-.54,1.89-.34,3a.23.23,0,0,0,.18.15c.86.17,4.59-.08,2.63,2.43-.06.07-.16.22,0,.3,2.56,1.4,1.48,5.19,5.13,5.65,2.66.33,6.43-4.9,6.4.13,0,.19.46.17.56.17,1.94,0,1,3.5,4.09,3a3.2,3.2,0,0,0,1.69-.89c1.59-1.69.67.13,1.88,1,.39.27,1.11,0,1.48-.17,2.83-1.33,3.71-5.25,6.87-6,1.94-.49,3.46-.92,3.93-3.06.12-.52-1.79-.21-1.91.32-.33,1.49-3.74,2.53-5.08,3.37-2,1.28-2.72,4-4.95,5.08l1.47-.18c-2.15-1.54-.4-3.59-3.62-2.45a3.06,3.06,0,0,0-1.49,1.69c-.33.61-1.85-2.38-2.42-2.55-1.44-.43-.11-3.41-2.76-3a6.6,6.6,0,0,0-2.18.85c-.89.54-1.76,1.12-2.66,1.64-1.47.85-3.54-2.5-2.45-3.8.06-.07.15-.22,0-.29-1.48-.82-1.54-4.73-4.22-4.29-1.22.2,1-2.85-.92-3.42-2.46-.73-6,1.66-3.32-3.29a1.69,1.69,0,0,0-.65-2.3,5.19,5.19,0,0,0-1.52-.36l-.76,0c-1.83.15-1.38-.84,1.37-3,.1,0,.75-.31.62-.53-.75-1.22-.72-2.47-1.39-3.69-1.07-2,.36-1,0-2.27-.13-.48-.2-.73-.74-.91-2-.67-2.39-2.88.33-3.55.16,0,1.14-.38.81-.7-2-2,2.38-2.2,1.8-3.88-.17-.5-.25-1-.85-1.14a3.76,3.76,0,0,0-.78-.21c-2.55-.29,1.62-2.62,3-2.71.38,0,1.33-.18,1.37-.69l.19-1.65-1.36.59A2.81,2.81,0,0,0,127.74,67c.33-.57-.36-1.81-.56-2.32-1.17-2.93.95-2.36,3.39-2.28.45,0,2.22-.82,1.23-.86Z"/><path class="cls-4" d="M130.4,66.81c-1.81,1.39-1.7,3-2,5.19-.31,2.5-4.14,3.33-4,6.06,0-.13-1.09,3.11-1.17,3.42-.35,1.31.72,3,1.27,4.08,1.18,2.35-.43,5.25,1.13,7.47,1.8,2.54,4.41,3.08,6,5.91s3.31,5,6.44,6c4.55,1.42,9.27,1.45,12.15-2.82.54-.8-1.42-.7-1.82-.11-3.23,4.8-9.58,2.25-12.79-.48-1.65-1.4-2.26-3.83-3.51-5.56a5.68,5.68,0,0,0-2.19-1.4c-3.45-1.67-2.75-4.71-2.8-7.79,0-1-.88-2.2-1.3-3-1-1.9.7-3.16.62-4.92-.13-2.77,2.22-4,3.58-5.9,1.17-1.62-.22-4,1.64-5.43,1-.8-.57-1.2-1.23-.7Z"/><path class="cls-4" d="M131.62,62.52l.73-.35c.23-.12.54-.37.54-.67,0-2.09,1.78-.21,2.72.51a17.55,17.55,0,0,0,4.75,2.45c1.95.75,3.27,2.12,5.18,2.86,1.1.43,2.33.64,3.46,1,5.46,1.6,1.37,2.46,1.84,4.19.22.82.44,1.51,1.36,1.86.6.22,3.44-.82,3.51.56,0,.69-1,2.39-.41,3.09s.95.31.51,1.42c-.19.48.18.75.6.85.58.14-.3,1.43.89,2.28.7.5,1,3.22-.13,3.54a.93.93,0,0,0-.78,1c.13.84.12,1.32.86,1.84a6,6,0,0,0,.89.41c.82,0,1.11.39.85,1.25a1.18,1.18,0,0,0-1.54.73c-.27,1.46,3,4.7,3.2,4.62-.91.45-2.82.18-3.3,1.46s3.07,3.15,1.56,3.78-.45,3.78.4,3.65c-1.07.16-1.46,1.66-.15,1.46,2.28-.34,2.25-1.55,1.22-3.42-.67-1.22.55-.65,1.27-1.53s-.55-1.12-.66-1.76c-.08-.47-.82-1.17-1.09-1.5-.86-1-.31-.17.73-.46a6.16,6.16,0,0,0,1.43-.64c2.63-1.28-2.92-4.32-2.65-5.79l-1.53.74c1.77.82,2.94.66,4-1,1.29-2.06-3.33-3-3.53-4.35l-.79,1A6.49,6.49,0,0,0,160,86.38a.66.66,0,0,0,.24-.9c-.94-1.12-.35-2.18-.23-3.42,0-.39-.31-.61-.65-.66-.21-.49-.43-1-.64-1.48.17-.48-.17-.74-.6-.85-.78-.18-.25.05.11-.84.18-.47-.18-.77-.6-.85-1.26-.26,1.51-5.55-2.95-4.94-2.61.35-.8-2.55-1.78-3.69-1.35-1.57-3.22-1.94-5.17-2.46s-3.2-2.13-5.19-2.78a25.07,25.07,0,0,1-7.41-4.12,3.68,3.68,0,0,0-3.06-.88c-1.44.24-.77,2.55-1.33,2.82-1.19.57-.13,1.67.87,1.19Z"/><path class="cls-4" d="M134.56,89.89c2.59-4.33,5.72-11.46,10.92-13l-1.1-.38c-1.58,6.58-9.24,9-12.19,14.8-.39.76.94.57,1.28.44,2.83-1.06,4.79-3.61,6.88-5.66.75-.74-.75-.76-1.17-.58-2.3,1-3.71,2.74-5.78,4.06-.92.59.13.92.74.8,5.58-1.12,10.65-1.89,16.26-.38.63.17,2.28-.78,1.17-1.07-6.06-1.63-11.65-.76-17.7.45l.74.8c1.88-1.2,3.25-2.94,5.35-3.84l-1.17-.58c-1.83,1.8-3.62,4.25-6.09,5.17l1.29.44c3-5.93,10.69-8.3,12.33-15.08.13-.54-.84-.46-1.1-.38-6.13,1.85-9.42,8.89-12.46,14-.48.8,1.47.61,1.8.06Z"/><path class="cls-4" d="M134.39,91.84c1.71.56,3.53.15,5.26.59l1.21-.77c-1.49.15-3,.56-4.48.09l-1.58.75A51.54,51.54,0,0,1,141.53,94c.43.16,2.17-.54,1.58-.76a52.8,52.8,0,0,0-6.73-1.5c-.4-.1-2.19.56-1.58.75,1.72.56,3.48.13,5.23,0,.18,0,1.89-.6,1.21-.77-1.73-.44-3.57,0-5.26-.59-.44-.15-2.17.56-1.59.75Z"/><path class="cls-4" d="M131.8,89.88a60.16,60.16,0,0,1,3.83-8c.56-1-1.41-1-1.86-.26a60.77,60.77,0,0,0-3.83,8c-.42,1.06,1.52,1.1,1.86.26Z"/><path class="cls-4" d="M131,92.65a2.53,2.53,0,0,1,1.93-1.44c-.09-.36-.19-.71-.28-1.07-1.11.47-2.25.86-3.36,1.33-.86.37-.6,1.14.29,1.07l2.06-.18c.39,0,1-.26,1.09-.7s-.56-.53-.86-.5l-2.07.18c.1.35.19.71.29,1.06,1.11-.47,2.25-.86,3.36-1.33.84-.36.61-1.16-.29-1.06a5.06,5.06,0,0,0-4,2.53c-.5.86,1.46.73,1.81.11Z"/><path class="cls-4" d="M106.78,112.09a73.38,73.38,0,0,0,14.15-2.87c1.18-.36.82-1.75-.37-1.4a70.37,70.37,0,0,1-13.62,2.79c-1.11.11-1.47,1.61-.16,1.48Z"/><path class="cls-4" d="M105.48,110.53a13.93,13.93,0,0,1,3-.82c.35,0,1-.23,1.11-.62s-.62-.36-.81-.34a19,19,0,0,0-4,1.1c-.19.06-.84.42-.53.7s.93.1,1.26,0Z"/><path class="cls-4" d="M106.8,109.12a6,6,0,0,1,1.47-1.18c.34-.21.75-.62.44-1a1.07,1.07,0,0,0-1.32-.17,8.84,8.84,0,0,0-2.22,1.77.6.6,0,0,0,.26,1,1.28,1.28,0,0,0,1.37-.36Z"/><path class="cls-4" d="M103,105.83a27.46,27.46,0,0,1,4.1-4.18c.79-.74-1.12-.59-1.52-.22a29,29,0,0,0-4.36,4.43c-.46.66,1.46.43,1.78,0Z"/><path class="cls-4" d="M98.34,100.3C93,95.83,85.41,88.71,77.7,90.2c-8.51,1.65-13.56,10.5-17.46,17.51-5,9-9.74,18.73-13.85,28.19-1.56,3.59-2.94,7.26-4.23,10.95-.37,1.08-2.26,4.9-1.47,6,.12.18.36.18.56.17l21-1.81c11.17-1,22.44.31,33.37-2.73,8.65-2.4,16.49-8.32,18.64-17.33,2.08-8.78-3.63-16.15-11.49-19.19-.45-.18-2.21.54-1.57.79,7.6,3,12.27,9.41,11.33,17.67-1.22,10.71-12,16.54-21.47,18.43-9,1.78-18.19.67-27.21,1.45l-18.17,1.55-2.66.23c-1.2.11-.6.38-.52-.38.25-2.43,1.42-4.94,2.24-7.21a179.19,179.19,0,0,1,8.53-19c4.57-9.26,8.36-19.05,14.71-27.3a42.78,42.78,0,0,1,4.41-4.72c4.59-4.37,9.79-2.31,14.2.09A62.14,62.14,0,0,1,96.53,101c.42.36,2.16-.38,1.81-.68Z"/><path class="cls-4" d="M79.66,90.49c-5-.65-9-8.13-10.79-12.2-2.49-5.68-2-12.33-.47-18.18,1-3.81,2.58-7.42,3.31-11.3.55-2.89,1.18-5.66.27-8.52-.78-2.44-2.31-4.43-2.93-7l-1.87.58a112,112,0,0,0,21.5,18.27c4.71,3.08,9.66,6,14,9.66,5.49,4.7,6.46,12.76,8.31,19.34.11.39,2-.14,1.93-.52-1.64-5.85-2.63-12.25-6.31-17.24-1.78-2.41-4.44-4.16-6.88-5.83s-5.07-3.92-7.82-5.37c-8.59-4.52-16.37-11.79-22.88-19-.24-.26-2,.2-1.88.58a40.27,40.27,0,0,0,2.93,7c1.31,2.93.09,6.89-.56,9.82-1,4.55-2.92,8.8-3.77,13.39a26.78,26.78,0,0,0,2.44,17.36c1.74,3.4,5.82,9.29,9.91,9.83.44.06,2.06-.65,1.59-.72Z"/><path class="cls-4" d="M109.52,142.42c.4,9.11,12.36,12,19.68,12.86,11.48,1.33,26.2.46,33.53,11.19.34.51,1.86.15,1.86-.5.06-6.1,1.67-11.84,2.67-17.81,1-5.68-.65-10.24-4.2-14.65-2.87-3.57-6.84-6.79-10.41-9.66-3.05-2.45-6.4-5-10.48-4.69-1,.06-1.55,1.31-.22,1.22,4.44-.3,8.81,4,11.75,6.78,3.37,3.15,6.82,5.92,9.52,9.73,5.8,8.2-.49,20.18-.57,29.28l1.86-.5c-5.78-8.47-16.42-9.92-25.89-10.84-8.45-.82-26.65-1-27.17-12.93,0-.74-2-.32-1.93.52Z"/><path class="cls-4" d="M105.26,59.94c-.77-6.28,8-10.56,12.24-13.79,5.06-3.88,8.44-10.49,10.64-16.29l-1.67.45c8.41,6.17,13.41,14,14.88,24.37.13.88,2.06.4,1.93-.52-1.5-10.6-6.73-18.65-15.31-24.95a1.25,1.25,0,0,0-1.67.44C123.13,38,118.2,43.79,111.11,49c-3.65,2.68-8.4,6.4-7.79,11.44.11.87,2.05.39,1.94-.52Z"/><path class="cls-4" d="M161.6,86.35c7.68,1.48,17.8,4,23.26,9.92,4.5,4.9-5.74,8.7-9.05,10.88-7.07,4.64-14.69,12.58-23.47,13.27-1,.07-1.58,1.25-.24,1.15,8.55-.68,15.39-7.17,22.11-11.88a99.81,99.81,0,0,1,10.63-6.63c2-1.07,3.29-1.92,3.25-4.38-.05-4.42-6.68-7.2-9.91-8.64a70.68,70.68,0,0,0-15.42-4.79c-.66-.13-2.28.89-1.16,1.1Z"/><path class="cls-4" d="M78,101.47c-1.56,5.39,4.17,12.67,7.15,16.79,4.6,6.35,11.13,10.07,18.52,12.26.48.14,2.21-.62,1.57-.81a34.43,34.43,0,0,1-16.6-10.06c-3.39-3.77-10.33-12.94-8.73-18.49.14-.49-1.76-.22-1.91.31Z"/><path class="cls-4" d="M75.54,117.27c.48,4,3,7.17,5.53,10.12.43.5,2.28-.18,1.79-.75-2.45-2.89-4.92-6-5.39-9.88-.08-.64-2-.2-1.93.51Z"/><path class="cls-4" d="M72.72,128.4a2.52,2.52,0,0,0,.62,1.69c.34.33,2.07-.4,1.82-.64a2.39,2.39,0,0,1-.5-1.56c0-.31-2,0-1.94.51Z"/><path class="cls-4" d="M66.46,133.55c.07.35.43.47.49.79.13.63,2.07.15,1.93-.52-.07-.34-.42-.47-.48-.79-.13-.62-2.07-.15-1.94.52Z"/><path class="cls-4" d="M60.82,136.13a8.23,8.23,0,0,0,.7,3.29c.3.51,2.12-.19,1.94-.52a8.07,8.07,0,0,1-.71-3.29c0-.42-2-.05-1.93.52Z"/><path class="cls-4" d="M132.22,143.46c8.31-.92,15.4-4.8,22.84-8.33,1.2-.57.12-1.51-.84-1.06-7.08,3.37-13.88,7.18-21.81,8.06-1,.12-1.52,1.48-.19,1.33Z"/><path class="cls-4" d="M139.79,138a8.41,8.41,0,0,0,3.16-2.16c.76-.88-1.11-.91-1.56-.38a6.18,6.18,0,0,1-2.38,1.66c-.26.12-.81.49-.5.83s.94.2,1.28.05Z"/><path class="cls-4" d="M141.55,145.08c5.75-.25,10.63-3.85,14.5-7.84.81-.82-1.09-.86-1.56-.37-3.42,3.52-7.6,6.85-12.7,7.07-1,0-1.57,1.19-.24,1.14Z"/><path class="cls-4" d="M152.67,145.24c.34-.37.82-.56,1.17-.93s-.26-.34-.46-.33a2.15,2.15,0,0,0-1.29.47c-.34.37-.83.56-1.17.93s.25.34.45.33a2.17,2.17,0,0,0,1.3-.47Z"/><path class="cls-4" d="M152.48,145.76l2.08-.18c.36,0,1-.24,1.1-.64s-.59-.41-.82-.39l-2.08.17c-.36,0-1,.25-1.1.65s.59.41.82.39Z"/><path class="cls-4" d="M155.68,147.8c1.07.79,2.52.34,3.58-.26.28-.16.57-.58.16-.78a1.56,1.56,0,0,0-1.37.18c-.17.09-.39.23-.58.09a1.32,1.32,0,0,0-1.28,0c-.18.08-.88.53-.51.8Z"/><path class="cls-4" d="M160,153.79a8.19,8.19,0,0,1,2-1.59c.34-.21.75-.61.44-1a1.07,1.07,0,0,0-1.32-.17,11.21,11.21,0,0,0-2.73,2.17.61.61,0,0,0,.27,1,1.28,1.28,0,0,0,1.37-.36Z"/><path class="cls-4" d="M117.38,119.76c3.62,1.14,6.39,3.84,9.21,6.24.51.43,2.3-.32,1.8-.75-2.9-2.46-5.76-5.24-9.46-6.4-.57-.18-2.32.67-1.55.91Z"/><path class="cls-4" d="M118.16,119.19c5,.63,9.25,3.26,13.37,5.92.46.29,2.07-.5,1.82-.66-4.19-2.7-8.57-5.36-13.6-6-.46-.06-2.1.67-1.59.74Z"/><path class="cls-4" d="M119.54,119.15c.8-1.83,10.73,3.19,12.27,3.93,6.36,3,11.53,8,16.57,12.78.48.47,2.31-.26,1.79-.76-6.6-6.33-13.1-11.42-21.53-15.07-2.48-1.07-9.33-4.53-11-.64-.26.6,1.66.38,1.94-.24Z"/><path class="cls-4" d="M114.54,118.53a10.59,10.59,0,0,1,2.49,1.78c.63.53,2.33-.39,1.49-1.1a11.63,11.63,0,0,0-2.86-2c-.79-.33-2.25.8-1.12,1.28Z"/><path class="cls-4" d="M99.58,91.41c-.55-7.94-7.1-13.25-13.26-17.35-.44-.29-2,.5-1.83.64C90.63,78.78,97.1,84,97.65,91.93c0,.29,2,0,1.93-.52Z"/><path class="cls-4" d="M79.4,72.58c.85,0,2-1.29.7-1.29-.84,0-2,1.29-.7,1.29Z"/><path class="cls-4" d="M79.17,72.5a26.62,26.62,0,0,1,11.59,6.76c.52.53,2.36-.21,1.79-.78a28.08,28.08,0,0,0-12.22-7.11c-.68-.22-2.27.77-1.16,1.13Z"/><path class="cls-4" d="M96.16,79.49c1,2.43,2.09,4.85,3.14,7.27.3.7,2,.46,1.94-.34C101,80,98.65,74,98,67.68c-.09-.83-2-.37-1.93.52.68,6.21,3,12.12,3.26,18.39l1.94-.35L98.1,79c-.36-.82-2.27-.26-1.94.51Z"/><path class="cls-4" d="M95.82,65.71a58.15,58.15,0,0,1,5.27,17.55c0,.45,2,.06,1.93-.52-.64-6.13-2.76-12-5.27-17.55-.24-.53-2.12.11-1.93.52Z"/><path class="cls-4" d="M93.31,88a6.18,6.18,0,0,1,2.57,2.87c.34.75,2.24.16,1.93-.52a7.13,7.13,0,0,0-3-3.36,1.43,1.43,0,0,0-1.37.15c-.29.2-.55.63-.14.86Z"/><path class="cls-4" d="M96.73,105.73c-1.65,1-3.6,1.17-5.26,2.13-.15.08-.45.32-.36.54.21.56.68.35,1.06.56.56.3,2.34-.5,1.54-.94a1.44,1.44,0,0,0-.66-.22s-.73-.12-.33,0l.38.26-.06-.15-.37.54c1.65-.94,3.6-1.17,5.26-2.12.27-.16.58-.56.17-.76a1.59,1.59,0,0,0-1.37.18Z"/><path class="cls-4" d="M94.58,107.25c-1.14.92-2.1,2-2,3.54,0,.34.63.35.85.33a5,5,0,0,0,2.35-.82c.29-.17.56-.6.15-.82a1.46,1.46,0,0,0-1.37.16,4.62,4.62,0,0,1-.48.28c.18-.09-.35,0-.42,0l.85.33a3.36,3.36,0,0,1,1.65-2.63c.33-.27.17-.66-.21-.76a1.58,1.58,0,0,0-1.36.37Z"/><path class="cls-4" d="M94.88,108.5c.46,2.15-.8,4.18-.29,6.3.1.46,2,0,1.93-.51-.5-2.12.75-4.15.29-6.31-.09-.45-2,0-1.93.52Z"/><path class="cls-4" d="M163,106a65.28,65.28,0,0,1,9.07-3.64c1.15-.39.82-1.72-.36-1.32a69.83,69.83,0,0,0-9.56,3.83c-1.17.6-.12,1.63.85,1.13Z"/><path class="cls-4" d="M160.7,103.06a28.18,28.18,0,0,0,8.13-2.06c1.26-.53.07-.81-.69-.5a22.3,22.3,0,0,1-6.62,1.72c-.53.06-2.1,1-.82.84Z"/><path class="cls-4" d="M165.57,100.25c.13-.1.14-.11,0,0l-.26.06c.36,0,1-.23,1.1-.64s-.59-.42-.82-.39a2.93,2.93,0,0,0-1.83,1c-.33.35.27.54.51.54a1.69,1.69,0,0,0,1.28-.52Z"/><path class="cls-4" d="M163,97.16a9.42,9.42,0,0,0,4-1c.28-.16.57-.58.16-.78a1.52,1.52,0,0,0-1.37.17,6.52,6.52,0,0,1-2.56.45c-.37,0-1,.25-1.09.67s.58.47.84.44Z"/><path class="cls-4" d="M166.43,93.91c3.51.52,7.06.65,10.57,1.18.68.1,2.29-1,1.16-1.13-3.51-.53-7.06-.66-10.57-1.18-.67-.11-2.28,1-1.16,1.13Z"/><path class="cls-4" d="M56.87,147.93c9.76-3.23,20.19-3,30.32-3.76.59,0,2.08-1,.79-.93-10.68.85-21.54.68-31.82,4.08-1.3.43-.09.87.71.61Z"/><path class="cls-4" d="M59,148a5.76,5.76,0,0,1,2.36-.52c.4,0,1-.28,1.07-.74s-.53-.59-.87-.56a8.4,8.4,0,0,0-3.39.81c-.29.16-.78.53-.47.91a1.13,1.13,0,0,0,1.3.1Z"/><path class="cls-4" d="M58.58,147.65c7-2.86,14.72-1.84,21.89-4,3.12-1,6-2.68,9-4,2.57-1.16,5.17-1.39,7.33-3.3,1-.87-.55-1.57-1.29-.92-2.2,1.94-5.67,2.49-8.35,3.69-3.79,1.71-7.2,3.58-11.41,4.17-6.13.86-12.19.86-18,3.23-1.22.5-.14,1.58.87,1.17Z"/><path class="cls-4" d="M57,147.29a32.15,32.15,0,0,0,1.83-3.09c.39-.92-1.54-.73-1.81-.09a32.15,32.15,0,0,1-1.83,3.09c-.48.85,1.47.69,1.81.09Z"/><path class="cls-4" d="M53,145.86c-3.49-1.5,8.81-22.61,10.11-25.64.25-.6-1.67-.38-1.93.25-1.39,3.23-14.27,24.36-9.72,26.31.57.24,2.33-.58,1.54-.92Z"/><path class="cls-4" d="M53.71,147.42c.77-5.1,4.14-9.78,7.11-13.87.53-.74-1.42-.61-1.81-.07-3,4.16-6.45,9-7.24,14.16-.12.81,1.83.47,1.94-.22Z"/><path class="cls-4" d="M56,145.06a16.82,16.82,0,0,1,3.3-4.38c.32-.3-.28-.31-.45-.29a2.29,2.29,0,0,0-1.29.45,18,18,0,0,0-3.47,4.57c-.16.3.7.18.77.17.33-.06,1-.19,1.14-.52Z"/></svg>