<svg id="layer1" xmlns="http://www.w3.org/2000/svg" viewBox="0 0 237.56 315.92"><defs><style>.cls-1{fill:#492d0c;}</style></defs><path class="cls-1" d="M143.17,118.83c-1.87,4.21-6.23,6.69-8.29,10.85-.25.5,1.64.31,1.93-.26,2.06-4.17,6.4-6.62,8.29-10.86.23-.54-1.67-.32-1.93.27Z"/><path class="cls-1" d="M182.28,165.37c-5.11-.9-9.33-8.23-13-11.61-5.62-5.17-10.76-10.84-16.21-16.18-10.35-10.15-21.73-19-31.78-29.55S101.55,86.15,91.59,75.31C81.18,64,71.18,52.84,62.84,39.84l-1,.93c5.25-.54,10.22,6.59,13,10.13,3.51,4.41,6.57,9.15,9.76,13.78A80.49,80.49,0,0,0,98.94,80.07a169.7,169.7,0,0,1,19.19,19c5.7,6.72,10.93,13.81,16.54,20.6s12,12.56,18.24,18.57c13.58,13.09,25,28.13,37.9,41.82l1.67-.86c-12.46-6-18.3-20.74-26.88-30.78-11.92-14-27.64-24-39.22-38.31-5.36-6.62-10.46-13.39-16-19.82C104.45,83.55,97.92,77.39,91.66,71A193.34,193.34,0,0,1,74.28,50.38c-2.41-3.26-4.61-6.58-7.67-9.28-2.49-2.2-5.73-4.65-6.06-8.19-.06-.65-2-.23-1.93.52.51,5.51,7.61,9.3,10.72,13.45,5.76,7.7,11.43,15.31,18,22.32s13.52,13.45,20,20.51c6.15,6.76,11.58,14,17.26,21.17,11.41,14.34,27,24.69,39.22,38.31,9,10,14.35,24.84,27.13,31,.41.19,2.24-.25,1.67-.86-13.34-14.11-25.15-29.51-39.15-43-6.69-6.45-13.33-12.84-19.21-20.06-6.32-7.76-12.28-15.8-19-23.24-6-6.59-12.87-12-19.39-18-4.89-4.49-8.6-9.79-12.31-15.24A112.48,112.48,0,0,0,72.1,44.9c-2.61-2.73-6-5.64-10-5.22-.37,0-1.37.39-1,.93,8.34,13,18.32,24.18,28.75,35.46s20.34,22.9,30.91,34c10.42,11,22.37,20.1,33.05,30.73,5.41,5.39,10.61,11,16.32,16.07,3.61,3.22,5.84,8.65,11,9.57.62.11,2.28-.87,1.18-1.07Z"/><path class="cls-1" d="M107.72,96c-2.55,1.46-4,3.91-5.46,6.39-1.07,1.84-3.78,4.71-3.86,6.76l1.86-.5c-6.06-6.28-10.63-13.7-15.5-20.89-5.23-7.71-11.82-14.12-18-21s-11-15-17.22-21.94C47.77,42.87,47,43,49.2,41.24c1.23-1,2.43-2,3.63-3a42,42,0,0,0,7.23-7.6c.55-.77-1.41-.66-1.81-.1-2.81,3.91-6.53,7-10.28,10-.8.63-2.81,1.45-2.44,2.82.23.88,2.59,2.66,3.24,3.38,1.5,1.68,2.83,3.52,4.17,5.32,3.18,4.28,6.19,8.64,9.62,12.73C69,72.42,76.31,79.07,82.06,87.22c5.33,7.55,10,15.52,16.42,22.21.4.41,1.83.18,1.86-.5,0-1.29,1.84-3.12,2.46-4.2,1.69-2.88,3.12-6.34,6.15-8.07,1.14-.64-.54-1.07-1.23-.67Z"/><path class="cls-1" d="M102.61,103.14c-10-8.77-17.83-20.28-26.06-30.63C72.06,66.87,68.16,60.78,63.82,55s-9.23-11-13-17c-.36-.58-2.18.11-1.93.52,3.24,5.21,7.42,9.7,11.19,14.52C64.82,59.13,69,65.62,73.63,71.78c4.08,5.44,8.61,10.56,12.78,15.94,4.43,5.71,9,11.35,14.4,16.14.46.41,2.25-.32,1.8-.72Z"/><path class="cls-1" d="M103.94,96.32c-10-8.49-18.53-18.62-26.36-29.1-4.46-6-8.2-12.44-12.29-18.65-3.24-4.92-7.73-9-10.62-14.1-.29-.52-2.12.19-1.93.52,2.89,5.12,7.34,9.21,10.62,14.09,3.87,5.77,7.29,11.86,11.41,17.46,8.08,11,16.93,21.61,27.36,30.46.42.35,2.16-.39,1.81-.68Z"/><path class="cls-1" d="M59.16,36.73C55.86,39.84,54,44,51.32,47.61c-.72,1,1.12,1.11,1.6.48,2.68-3.58,4.55-7.78,7.83-10.88.86-.82-1-1-1.59-.48Z"/><path class="cls-1" d="M62.44,43.61a74.5,74.5,0,0,0-6.86,12.82c-.16.45,1.72.22,1.92-.31A73.76,73.76,0,0,1,64.35,43.3c.2-.31-1.6-.19-1.91.31Z"/><path class="cls-1" d="M68.57,49c-.41,5-3.72,9.27-6.28,13.36-.42.67,1.49.39,1.77-.05,2.61-4.17,6-8.54,6.43-13.6.05-.65-1.88-.24-1.92.29Z"/><path class="cls-1" d="M74.65,56.66A31.69,31.69,0,0,0,68.23,70.3c-.15.87,1.81.56,1.94-.2a31,31,0,0,1,6.3-13.31c.58-.77-1.39-.7-1.82-.13Z"/><path class="cls-1" d="M81.2,64.57A53.17,53.17,0,0,0,75.36,77c-.24.82,1.72.57,2-.18A51.28,51.28,0,0,1,83,64.72c.53-.87-1.44-.79-1.83-.15Z"/><path class="cls-1" d="M85.8,67.92c-2.09,4.75-6,8.24-6.4,13.67-.08,1,1.89.81,2-.12.41-5.24,4.28-8.7,6.3-13.29.46-1-1.49-1.1-1.86-.26Z"/><path class="cls-1" d="M90.84,74.55c-1.93,5-5.45,8.71-5.38,14.34,0,.94,2,.59,2-.19-.07-5.49,3.38-9.14,5.26-14,.39-1-1.55-.86-1.83-.15Z"/><path class="cls-1" d="M96.5,81c-4.06,4.6-6.27,10.37-7.68,16.28-.22.93,1.76.69,2-.15,1.35-5.65,3.45-11.17,7.34-15.58.8-.92-1.05-1.2-1.62-.55Z"/><path class="cls-1" d="M101.35,88.58c-1,5.86-5.47,10.27-7,16-.16.58,1.76.29,1.92-.29,1.51-5.69,5.95-10.1,7-16,.11-.63-1.82-.28-1.92.29Z"/><path class="cls-1" d="M214.87,171c-11.93,5.52-21.33,16.28-29.44,26.32l1.77,0c-5.85-13.69-16.11-24.78-24.44-37-4.34-6.35-8.57-12.09-14.31-17.24-5.93-5.32-13.57-10.76-13.79-19.5-.1-4.14,2.65-7.28,6.91-7.15,4.67.13,8.77,3.94,12,6.94a202.25,202.25,0,0,0,18.31,15.62c13.82,10.26,26.2,22.06,39.55,32.89l1.49-1.11a8.27,8.27,0,0,0-3.3-1.53c-.83-.25-2.29.94-1.12,1.3l2.93,1.34c.68.42,2.38-.39,1.49-1.11-7.36-6-14.33-12.38-21.48-18.59-7.58-6.59-15.7-12.43-23.69-18.51-6.77-5.15-12.39-13.41-20.17-17.07-3.73-1.75-9.39-2.77-12.48.88-10.17,12,11.44,25.63,17.95,32.61s11,15.68,16.67,23.19c5.88,7.81,11.72,15.46,15.59,24.52.29.68,1.37.51,1.77,0,7.93-9.81,17-20.36,28.68-25.75,1.2-.56.13-1.58-.85-1.13Z"/><path class="cls-1" d="M206.63,168.07c-6.3,7.65-16.73,10.47-20.44,20.34-.13.34,1.72.14,1.9-.35,3.67-9.75,14-12.57,20.29-20.14.39-.47-1.46-.2-1.75.15Z"/><path class="cls-1" d="M201.18,165.49C191.41,168.23,187,178.33,181,185.6a2.78,2.78,0,0,0,1.9-.35c5.3-6.47,9.72-16.8,18.41-19.23,1.12-.32,1-.84-.14-.53Z"/><path class="cls-1" d="M194.62,157.55c-10.32,2.73-14.7,13.17-18.66,22.1-.12.29,1.69.13,1.91-.35,3.5-7.92,7.61-18.73,16.9-21.18,1.13-.3,1-.87-.15-.57Z"/><path class="cls-1" d="M190.79,153.41c-4.34.86-8.11,3.58-11.42,6.38-3.59,3-7.59,7.18-8.39,12-.09.59,1.83.23,1.92-.3.63-3.85,3.32-7,6-9.69,3-3.05,7.28-6.68,11.6-7.55.81-.16,1.66-1.11.32-.84Z"/><path class="cls-1" d="M182.85,145.22c-8.37.05-13.46,11-16.74,17.29-.45.87,1.49.71,1.81.09,1.5-2.86,3.08-5.67,4.86-8.37,2-3,5.3-7.8,9.35-7.82.78,0,2-1.19.72-1.19Z"/><path class="cls-1" d="M175.94,141.23c-7.09.77-14.85,8.54-16,15.47-.09.59,1.83.24,1.92-.3,1-5.9,7.57-13.64,13.75-14.31.86-.09,1.68-1,.32-.86Z"/><path class="cls-1" d="M168.74,136.55c-6.81,3-12.82,10-14.49,17.3-.14.63,1.79.32,1.92-.27a25.27,25.27,0,0,1,13.29-16.36c1.24-.56.09-1-.72-.67Z"/><path class="cls-1" d="M162,132.26c-1.25,3.34-4.82,4.92-7.58,6.83a14.24,14.24,0,0,0-5.65,6.89c-.22.61,1.7.36,1.92-.26,1.43-3.93,4.68-6,8-8.17,2.2-1.43,4.27-3,5.22-5.55.22-.6-1.7-.35-1.93.26Z"/><path class="cls-1" d="M155.34,128.66c-3.62,3.78-8.21,6.31-10.05,11.49-.15.43,1.72.2,1.91-.32,1.81-5.1,6.34-7.56,9.9-11.28.44-.46-1.43-.25-1.76.11Z"/><path class="cls-1" d="M150.07,125.91c-.12.39-1,.93-1.33,1.18-1,.84-2,1.63-3.05,2.44a54.94,54.94,0,0,0-5.83,4.94c-.79.83,1.1.84,1.56.35a58.63,58.63,0,0,1,6.21-5.23c1.17-.92,3.9-2.37,4.38-3.91.22-.72-1.73-.45-1.94.23Z"/><path class="cls-1" d="M200.45,177.12c.65-.62-.55-.73-1.24-1.16a25.86,25.86,0,0,1-2.25-1.64c-2.2-1.73-4.24-3.67-6.26-5.59-4.11-3.92-8-8-11.9-12.21-4.56-4.91-9.3-9.56-14.18-14.16-3.61-3.42-6.89-7.14-10.7-10.35-3.53-3-7-5.76-9.79-9.52l-1.8.7,1.5,2c.33.42,2.18-.21,1.81-.7-.5-.66-1-1.32-1.51-2-.32-.42-2.17.2-1.8.7,3,4.15,7,7.21,10.95,10.5,4.32,3.64,8.08,8,12.2,11.88,5.35,5,10.24,10.36,15.28,15.66a143.21,143.21,0,0,0,15,14.26c1.66,1.29,4.45,3.46,6.46,1.56.49-.46-1.39-.29-1.76.07Z"/><path class="cls-1" d="M202.17,171.78a.92.92,0,0,0,0,.16l1.56-.76c-1.23-.24-3-2.49-3.87-3.3-1.57-1.39-3.31-2.6-4.74-4.14a211,211,0,0,0-17.22-16.21c-8.62-7.41-16.44-18.77-27.68-22.27-.55-.17-2.3.66-1.55.89,6,1.87,10.75,6.33,15.21,10.56,5,4.72,9.84,9.47,15,14,3.21,2.79,6.33,5.68,9.38,8.63,2.36,2.3,4.47,5.11,7.13,7,2.09,1.51,4.54,5.3,7.12,5.81.46.09,1.59-.13,1.57-.75a.92.92,0,0,0,0-.16c0-.55-1.95-.18-1.93.52Z"/><path class="cls-1" d="M188.31,187.69c-3.17.54-7.3-7.63-8.87-9.78-4.64-6.37-9.84-12.38-14.89-18.42s-9.52-12.21-14.22-18.36c-1.84-2.4-3.64-4.84-5.49-7.24-.88-1.15-6.07-5.17-6.12-6.59,0-.72-2-.31-1.93.52.07,2.07,3,3.19,4.38,4.6,2.74,2.88,5,6.35,7.38,9.51,5.42,7.1,10.78,14.22,16.5,21.09,4.95,5.93,10,11.85,14.37,18.24,1.74,2.54,4.84,8.29,8.66,7.64,1-.17,1.55-1.44.23-1.21Z"/><path class="cls-1" d="M113.92,111.68a294.92,294.92,0,0,1,25-24C154.47,74.35,170.45,61.13,182,44c.51-.75-1.24-.37-1.48-.25-6.1,3.13-10.42,8.67-14.47,14A198.68,198.68,0,0,1,147,80c-12.41,12.31-24.7,24.07-38.34,35q-17.43,14-35.16,27.53a215.31,215.31,0,0,1-20.76,14.43c-6.73,4-13.57,8.06-18.54,14.22-.53.65,1.43.4,1.79,0C47.79,157.8,63.61,150.07,77.25,139c14.54-11.83,29-23.64,44.24-34.57.87-.62-1.07-.58-1.53-.25-15.25,10.92-29.74,22.69-44.25,34.57C62,150,46.1,157.69,34.15,171.15h1.79c5.73-7.1,14-11.38,21.75-16,6.12-3.66,11.63-8.08,17.29-12.39Q92.23,129.61,109.12,116A459.9,459.9,0,0,0,145.71,83c6.3-6.25,12.58-12.22,17.86-19.37,5.16-7,10.2-15.3,18.14-19.37L180.23,44c-12.11,17.95-29.07,31.59-45.39,45.53a276.11,276.11,0,0,0-22.71,22.16c-.53.57,1.4.42,1.79,0Z"/><path class="cls-1" d="M138.67,87.15a73.58,73.58,0,0,1-7.92-8c-3-3.28,3.84-7,6.06-9.24,6.73-6.71,13-13.81,19.32-20.85a286.14,286.14,0,0,1,21.78-21.3c3.77-3.37,7-7.87,12.79-5.41,2.14.91,4.15,2.19,6.22,3.25,1.39-.06,1.76,0,1.13.29a10.36,10.36,0,0,1-2.33,1.1c-1.13.33-.91,1.17.23.83a39.47,39.47,0,0,0,3.66-1.61c.25-.1.94-.53.41-.77-4-1.82-11-7.59-15.78-5-2.54,1.39-4.33,4-6.47,5.85q-6.15,5.4-12,11.07A244.56,244.56,0,0,0,147.2,57.37c-2.95,3.56-6.54,6.8-9.74,10.14s-7.85,6.16-10.59,10c-.07.11-.12.24,0,.35,3.45,3.26,6.28,7.07,10,10,.49.39,2.26-.36,1.81-.72Z"/><path class="cls-1" d="M195.69,27.86c-9.88,8.27-15,20.53-23.93,29.69-.58.59,1.33.38,1.66.12,9.27-7.42,13.18-19.53,22.25-27.18A17.36,17.36,0,0,1,200,27.91c-.07-.95-.54-.89-1.39.18-.46.31-.93.62-1.38.94a58.51,58.51,0,0,0-6.88,6.09c-5.3,5.41-9.62,11.69-14.8,17.21-.53.57,1.39.42,1.79,0,8-8.58,14.34-19.41,24.94-25.18.94-.51-.14-.85-.71-.69-14.72,4.07-18.64,22.14-29.65,31l1.66.13c8.83-9.07,13.9-21.25,23.68-29.44.84-.7-1.09-.62-1.53-.25Z"/><path class="cls-1" d="M191.25,24.21c-9.63,7.27-15.43,18-22.63,27.46-4.51,5.91-10.22,11.08-15.36,16.44s-10.1,10.33-15.48,15.15c-.37.33,1.41.11,1.74-.18a318.51,318.51,0,0,0,29.07-29.37C177,43.93,182.5,31.94,193,24c.37-.28-1.39-.08-1.74.18Z"/><path class="cls-1" d="M185.22,21.65c-3.45,4-7.51,7.36-10.95,11.34-3.84,4.43-7.79,8.56-11.92,12.73-3.86,3.88-7.88,7.57-11.86,11.32-4.56,4.29-9.08,8.62-13.36,13.18-1.23,1.31-6.6,6-5.6,8.3.25.59,2.14,0,1.93-.52-1-2.26,5.44-7.82,6.73-9.17,4.72-5,9.74-9.64,14.73-14.32,3.1-2.91,6.26-5.76,9.21-8.84,7.64-8,15.65-15.72,22.87-24.06.49-.57-1.42-.37-1.78,0Z"/><path class="cls-1" d="M147.05,83.2c-4.89-3-9.9-6.06-14-10.17-.51-.51-2.34.22-1.79.78,4.16,4.19,9.26,7.27,14.24,10.37.58.36,2.35-.47,1.53-1Z"/><path class="cls-1" d="M150.46,78.88c-2.4-4.55-6.9-8-11.26-10.63-.5-.29-2.14.49-1.81.69,4.28,2.53,8.78,6,11.14,10.45.28.53,2.13-.15,1.93-.51Z"/><path class="cls-1" d="M155.82,72.21c-3.44-3.74-6.59-8.15-11.2-10.53-.52-.28-2.13.52-1.81.68,4.61,2.39,7.75,6.8,11.2,10.54.36.39,2.17-.3,1.81-.69Z"/><path class="cls-1" d="M163.06,66.68c-3.95-3.52-7.91-7.11-10.63-11.71-.31-.53-2.13.18-1.94.51,2.76,4.67,6.75,8.31,10.76,11.89.41.37,2.17-.37,1.81-.69Z"/><path class="cls-1" d="M169.16,60.74c-1.24-4.86-6.63-7.11-8.91-11.36-.39-.72-2.27-.1-1.93.52,2.26,4.21,7.7,6.6,8.91,11.35.19.76,2.13.24,1.93-.51Z"/><path class="cls-1" d="M176.74,52.06c-5.76-4-11.77-8.59-15-15-.23-.46-2.08.23-1.93.52,3.2,6.45,9.25,11.12,15,15.12.45.3,2.08-.48,1.83-.65Z"/><path class="cls-1" d="M183.26,44.7c-3.41-3-8.28-5.66-8.8-10.61-.08-.75-2-.3-1.94.51.54,5.08,5.46,7.85,8.95,10.89.57.5,2.39-.27,1.79-.79Z"/><path class="cls-1" d="M187.48,37.63c-2.16-2.49-5.9-4.9-6.33-8.42-.08-.67-2-.23-1.93.52.44,3.64,4.24,6.1,6.47,8.67.46.52,2.3-.18,1.79-.77Z"/><path class="cls-1" d="M192.86,30.42A56.1,56.1,0,0,0,184,22.59c-.6-.43-2.35.43-1.51,1a53.82,53.82,0,0,1,8.55,7.62c.52.57,2.36-.16,1.78-.81Z"/><path class="cls-1" d="M106.25,109.69c2.67,5.87,15.11,7.57,8.73,15.22-2.16,2.59-5.4,4.58-8,6.65-5.35,4.2-10.92,8.1-16.53,11.94-9.68,6.63-19.57,12.95-29.17,19.72a92.25,92.25,0,0,0-10.57,8.52c-6.9,6.56-12.08,3.55-15.86-3.28-.76-1.39-2.4-3.66-.75-5.11,2.12-1.85,4.33-3.59,6.56-5.31a162.84,162.84,0,0,1,15.79-10.59c8.06-4.84,16.87-8.16,24.93-12.95a125.15,125.15,0,0,0,17.1-12.24c3.73-3.17,9.29-7.79,9.75-13.09,0-.26-1.89,0-1.94.52-.47,5.54-6.57,10.18-10.47,13.49a121,121,0,0,1-17.5,12.2c-7.56,4.39-15.78,7.57-23.35,12a155.62,155.62,0,0,0-23.86,17.19.2.2,0,0,0-.09.18C33.5,171,38.87,180,46.83,175.7c4.85-2.6,8.46-7,12.89-10.28,6.47-4.73,13.16-9.16,19.83-13.59,11.84-7.87,23.42-16,34.61-24.72,2-1.55,6.83-6,4.31-8.9-3-3.34-8.35-4.79-10.28-9-.22-.47-2.09.19-1.94.52Z"/><path class="cls-1" d="M106.46,109.34c-6.59,4.23-12.75,9-18.89,13.82-5.89,4.64-12.36,7.57-18.9,11.16-14.23,7.81-26.88,18.14-38.38,29.53-.5.5,1.4.33,1.78,0,12.55-12.45,26.4-23.21,42.11-31.4a92,92,0,0,0,14.9-9.06c6.17-4.82,12.3-9.59,18.9-13.82.86-.56-1.09-.47-1.52-.19Z"/><path class="cls-1" d="M114.24,118.25a169.52,169.52,0,0,1-24.12,19.3C81,143.41,71.35,148.51,62.6,155c-4.26,3.15-8.36,6.57-12.53,9.85-2.16,1.7-7.75,4.83-8.45,7.81-.22.9,1.75.65,2-.17.36-1.55,3.34-3.24,4.49-4.19,2.21-1.82,4.49-3.58,6.75-5.34,4.94-3.83,9.74-7.8,14.94-11.28,8-5.37,16.56-9.92,24.6-15.24,7.75-5.13,14.73-11.34,21.49-17.67.87-.82-1-1.08-1.6-.52Z"/><path class="cls-1" d="M114.51,125.39c.34-.89,1.38.09.09-.75a15.57,15.57,0,0,1-1.45-1.12c-1.07-.89-2.07-1.85-3.08-2.8a35.15,35.15,0,0,0-5.11-4.57c-.51-.32-2.19.46-1.8.7,1.53,1,11.68,12.54,13.27,8.25.18-.49-1.71-.26-1.92.29Z"/><path class="cls-1" d="M109.85,129.69c-5.24-2-7.43-8-12.08-10.83-.7-.44-2.41.52-1.5,1.09,4.81,3,7,8.9,12.46,11,.79.31,2.26-.83,1.12-1.27Z"/><path class="cls-1" d="M102.54,136.57c-5.12-2.31-8.78-7.07-12.87-10.77-.51-.46-2.32.28-1.79.76,4.17,3.77,7.89,8.59,13.12,10.95.58.26,2.34-.57,1.54-.94Z"/><path class="cls-1" d="M93.6,142c-4.35-4.65-8.94-9.43-14.67-12.36-.75-.38-2.44.63-1.49,1.12,5.63,2.88,10.12,7.53,14.39,12.09.6.65,2.43-.14,1.77-.85Z"/><path class="cls-1" d="M84.5,146.57c-3.61-4-7.62-7.54-10.89-11.8-.5-.65-2.35.08-1.78.82,3.27,4.27,7.29,7.84,10.89,11.81.55.61,2.39-.15,1.78-.83Z"/><path class="cls-1" d="M76.14,151.19c-3.89-4.25-7.1-9.06-11-13.31-.32-.35-2.11.35-1.82.66,3.88,4.25,7.1,9.05,11,13.3.33.36,2.11-.34,1.83-.65Z"/><path class="cls-1" d="M70.1,157.84c-3.82-5-8.56-9.14-12.52-14-.3-.36-2.12.3-1.82.65,3.92,4.81,8.63,8.94,12.41,13.86.36.47,2.08-.33,1.93-.52Z"/><path class="cls-1" d="M62.53,163.8c-2.91-6.17-8.39-10.39-12.64-15.57-.52-.63-2.36.11-1.77.82,4.15,5.07,9.64,9.24,12.48,15.27.38.8,2.28.22,1.93-.52Z"/><path class="cls-1" d="M56.1,167.92c-5.5-2.57-8.87-9.14-12.34-13.83-.4-.55-2.27.12-1.79.77,3.56,4.8,7,11.38,12.6,14,.59.28,2.36-.57,1.53-1Z"/><path class="cls-1" d="M46.58,174.3c-2.63-5.12-6.77-8.9-11-12.68-.52-.46-2.33.28-1.79.76,4.16,3.7,8.28,7.42,10.87,12.43.35.68,2.22.06,1.93-.51Z"/><path class="cls-1" d="M84.58,122.92c10-8.28,17.23-20.09,24.36-30.74,7.33-11,14-22.34,21.44-33.26l-1.93.42q10,15.5,20.78,30.5c5.25,7.35,10.64,14.62,16.45,21.54,3.18,3.78,7.29,9.55,12.24,11.14.47.15,2.21-.59,1.57-.8-4.83-1.55-8.88-7.36-12-11C161.64,103.81,156.3,96.5,151,89.16q-10.68-14.91-20.65-30.34c-.35-.53-1.66,0-1.93.42-6.91,10.18-13.21,20.79-20,31.07-7.35,11.15-15,23.83-25.39,32.48-.78.66,1.14.43,1.5.13Z"/><path class="cls-1" d="M84.81,122.43c6.64-2.67,15.4-.33,22.37.31,7.39.68,14.81.92,22.23,1,15.71,0,31.32-1.83,47.05-1.84.61,0,2.09-.92.79-.92-17,0-33.8,2-50.77,1.8a230.64,230.64,0,0,1-25.33-1.52c-5.77-.71-11.52-1.62-17.06.61-1.26.51-.08.93.72.61Z"/><path class="cls-1" d="M84.09,123.66c-2.48,10.3-1.44,21-1.17,31.48.31,12.36-1,24.84-1.93,37.16S79,216.77,77.71,229c-.67,6.57-1.26,13.15-1.88,19.74-.46,4.91.42,10.87-1.55,15.5-.43,1,1.51,1,1.85.23,1.57-3.68,1.28-8,1.29-11.92,0-6.53,1.24-13.29,1.84-19.79,1.2-12.9,2.54-25.76,3.54-38.67,1-12.41,2.19-25,2.1-37.42-.08-11.06-1.47-22.26,1.14-33.14.23-1-1.75-.72-2,.14Z"/><path class="cls-1" d="M175.89,122.38c1.28,4.85.94,10.1,1.41,15.07.6,6.35.84,12.74,1.15,19.11.62,12.82,1.8,25.61,2.92,38.39,1.06,12.19,2.28,24.35,3.75,36.49,1.54,12.75,3.6,25.43,3.71,38.29,0,.52,1.94.17,1.93-.51-.1-12.21-1.95-24.27-3.47-36.36-1.61-12.78-2.86-25.6-4-38.42-1.07-12.14-2.2-24.3-2.83-36.47-.32-6.39-.59-12.77-1.08-19.15-.42-5.53-.15-11.59-1.57-17-.16-.59-2.09-.08-1.93.52Z"/><path class="cls-1" d="M70.64,280.81c14.62-5.76,30.1-3.59,45.28-2.19,15.41,1.43,31,.09,46.38-.59.23,0,2-.62,1.16-.93-4.49-1.7-9-2.76-13.46-.63-.28.13-.91.49-.41.77,7.37,4.23,17.06,2.37,25,1.17,13.63-2.05,27.54-2.4,41.29-3.31.64,0,2.07-1.07.78-1-12.59.83-25.45,1-37.95,2.77a149.38,149.38,0,0,1-16.05,1.87,27.45,27.45,0,0,1-8.46-1c-2-.56-6-2.47,2.43-1.41a23.88,23.88,0,0,1,5.27,1.59l1.17-.93c-17.8.78-35.34,1.8-53.1-.16-13.38-1.47-27.36-1.75-40.07,3.25-1.26.5-.09,1,.73.68Z"/><path class="cls-1" d="M54.88,274.18l-.46.74,1.68-.18,2.58-.23c1.12-.09,2.31-.06,3.42-.24a98,98,0,0,0,15.3-3.8c.11,0,.88-.4.56-.6a23.64,23.64,0,0,0-12-3.76l-1,.86c3.9,0,7.61.14,11.33,1.43.47.17,2.21-.57,1.57-.79-4-1.38-7.92-1.49-12.08-1.5-.39,0-2,.82-1,.86a26.32,26.32,0,0,1,5.22.77c.79.2,7.29,2.06,4.29,3-3.74,1.17-8,2.6-11.92,2.71a40.29,40.29,0,0,0-8.28.8c-.29.07-1.41.7-.52.77h.12c.46,0,2.24-.77,1.24-.85Z"/><path class="cls-1" d="M119.91,274.35c-1.46-4.94-.61-10.19.1-15.19.86-6,1.52-12.06,2.25-18.1.59-4.94,1.13-10.11,2.82-14.82,1.6-4.47,9.2-14.59,13-6.24,2.94,6.51.81,16.16.39,23.06a219.93,219.93,0,0,0,.5,35.47c.07.68,2,.25,1.93-.52-1.45-14.14-.84-28.51,0-42.68.28-5,2.3-19.87-6.26-19.69-9,.2-12,11.57-13.26,18.62-1.31,7.46-1.9,15.05-2.87,22.55-.77,5.93-2.21,12.18-.47,18.05.21.72,2.14.19,1.93-.51Z"/><path class="cls-1" d="M122.33,260.55a45,45,0,0,0-2.52,11.92c0,1.06,1.85.78,2-.13A245.66,245.66,0,0,0,123.62,243c0-1.1-1.76-.73-2,.13-2.58,11.29-3,22.91-3.08,34.45,0,1.08,1.8.75,2-.13,3.63-19.19,5-38.72,8.62-57.91.19-1-1.6-.68-1.91-.07-8.14,16.09-6.9,36.22-6.21,53.71,0,1.09,1.77.75,2-.12,2-9.1,2.08-18.28,3.32-27.46s3.26-18.2,2.84-27.52c0-.89-1.38-.85-1.8-.25-6.07,8.67-6.19,20.65-6.87,30.81-.63,9.53-3.82,21,.65,30,.35.71,1.54.17,1.81-.31,3.73-6.57,3.69-14.92,4.49-22.25,1.21-11.09,4.12-21.64,3.57-32.92-.05-.91-1.36-.82-1.8-.25-5.31,7-5.51,17.1-6.16,25.44-.68,8.75-4,19.54-.15,27.91.36.79,1.54.54,1.89-.13,3.85-7.16,3.81-15.78,4.11-23.69.38-10.06,2.57-19.95,2.72-30,0-1.11-1.75-.71-2,.13-4,16.16-8.18,34.3-3.68,50.78.24.88,1.87.49,2-.32,1.49-16.47,7.16-32.44,6.16-49.12-.07-1-1.53-.74-1.91-.07-4.54,8.09-4,17.94-3.8,26.9.18,9.46-1.38,19.15.68,28.47.19.88,1.91.49,2-.32.7-17.39,3.58-34.62,3.69-52.05,0-1-1.6-.78-1.91-.07-3.14,7.47-2.55,15.73-2.51,23.66,0,8.11-.74,16.43,1.24,24.38.22.88,1.92.5,1.95-.32.73-15.93,3.64-31.89,1.84-47.84-.11-.92-1.64-.4-1.9.12-3.54,7.06-2.75,15.42-2.55,23.07.25,9.82-.73,19.67,1.28,29.37.18.89,1.89.48,1.95-.32,1.27-19.3,3-38.58,3.7-57.91,0-1.06-1.88-.79-2,.12-1.71,17.32-.66,34.69-.61,52,0,1.06,2,.8,2-.12.07-15.67,1.77-31.26,1.85-46.92l-2,.13c.54,15.16-1.15,30.29-1.23,45.45,0,1.05,2,.79,2-.13.07-15.16,1.76-30.28,1.23-45.45,0-1-2-.8-2,.13-.07,15.66-1.77,31.25-1.84,46.91l2-.12c0-17.37-1.1-34.73.62-52l-2,.12c-.66,19.34-2.43,38.61-3.7,57.92l2-.32c-1.88-9.09-1.16-18.36-1.22-27.57-.06-8-1.28-16.72,2.42-24.1l-1.9.13c1.79,15.81-1.14,31.67-1.86,47.46l1.95-.32c-1.95-7.8-1.26-16-1.22-24,0-7.79-.69-15.91,2.41-23.27l-1.91-.06c-.11,17.42-3,34.65-3.7,52l1.95-.32c-2-9.18-.48-18.77-.65-28.08-.16-8.83-.78-18.55,3.69-26.52l-1.91-.06c1,16.67-4.66,32.65-6.16,49.11l2-.32c-4.45-16.32-.29-34.38,3.71-50.39l-2,.13c-.15,9.62-2.24,19.06-2.67,28.66-.37,8.21-.06,17.22-4,24.66l1.89-.13c-3.46-7.61-.79-17.49,0-25.46.88-8.69.43-19.47,6-26.75l-1.8-.25c.51,10.4-1.67,20.27-3.25,30.46-1.24,8-.59,17.09-4.7,24.33l1.81-.3c-4.29-8.66-1.07-20.13-.44-29.31.67-9.84.66-21.67,6.53-30.06l-1.79-.25c.41,9.29-1.49,18.38-2.84,27.53S123,264.1,121.05,273.2l2-.12c-.68-17.34-2-37.39,6.11-53.33l-1.91-.06c-3.64,19.19-5,38.72-8.63,57.91l2-.13c0-11.54.49-23.16,3.07-34.45l-2,.13a243.6,243.6,0,0,1-1.85,29.32l2-.13a43.09,43.09,0,0,1,2.41-11.53c.35-1.09-1.58-1.13-1.86-.26Z"/><path class="cls-1" d="M122.91,186.89a65.08,65.08,0,0,1-.61,10.16c0,.21.17.27.34.28,3.93.15,10.08,2.37,13.73-.24,2.81-2,2-7.89,2.63-10.85.07-.3-.37-.51-.55-.51H126.13c-.57,0-2.1,1-.81,1h12.32a1.2,1.2,0,0,1-.55-.11,44,44,0,0,0-.78,5.95c-.13,1.55-.12,4.14-2.09,4.56-3,.64-6.33-.35-9.29-.64-.79-.08-.09-9.2-.09-10.12,0-.4-1.93-.09-1.93.52Z"/><path class="cls-1" d="M129.69,187.63a46.37,46.37,0,0,1-1,8.71,18.41,18.41,0,0,1,2.1-.43v-2.2c0-.32-2,0-2,.51v2.2c0,.35,1.68,0,1.77-.42a46.88,46.88,0,0,0,1.17-8.89c0-.31-2,0-2,.52Z"/><path class="cls-1" d="M124.15,191.91c-.18.7.09,1,.84,1,1.91-.05,3.63-.67,5.6-.56,2.76.15,5.79.36,8.22-1.2.86-.56-1.1-.48-1.52-.21-1.78,1.15-5,.47-7,.39a33.67,33.67,0,0,0-4.23.31c.15-.6-1.78-.3-1.92.28Z"/><path class="cls-1" d="M124.2,74.43c-2.08,4.57-5,8.67-6.84,13.35-.29.73,1.6.39,1.88-.07,3.78-6.26,6.21-13.16,9.24-19.79.43-1-1.47-.58-1.81-.09-4.5,6.4-7.36,13.7-11.09,20.53-.48.87,1.34.6,1.68.23,4.85-5.28,7.83-11.94,10.6-18.47.39-.92-1.33-.62-1.69-.23C120.58,76,117,83.67,114.28,91.44c-.29.83,1.61.27,1.88-.06,5-6.3,7.2-14,10.47-21.26.43-1-1.47-.58-1.81-.09a162.62,162.62,0,0,0-10.48,17.6c-.39.75,1,.64,1.3.48,5.87-2.69,8.35-10.94,9.82-16.68.19-.74-1.31-.41-1.58-.21-5.5,4.18-9.72,12-10.83,18.76-.11.67,1,.45,1.36.32,8.84-3.55,11.75-16.77,15.3-24.58l-1.81-.09c-3.36,7.72-7.91,14.85-10.54,22.88-.26.81,1.51.3,1.75.08,4.93-4.44,7.22-11.82,9.43-17.89.28-.76-1.6-.37-1.87.07a80.92,80.92,0,0,0-9.31,21.41c-.21.8,1.49.35,1.75.07,3.27-3.42,5-7.54,6.35-12,.23-.77-1.63-.43-1.87.07a79.13,79.13,0,0,0-5,12.61c-.25.83,1.5.29,1.75.08,3.53-3,4.91-7.75,6.34-12,.25-.74-1.69-.43-1.93.22-2.14,5.71-5.23,11.4-5.55,17.6,0,.87,1.6.38,1.87-.07a33.1,33.1,0,0,0,4.38-10.42l-1.94.22c-.74,4.23-2.33,8.23-3.08,12.46-.15.86,1.62.37,1.88-.07,2.46-4.15,3.08-9,5.54-13.19l-1.87.07A129.91,129.91,0,0,0,121.06,101c-.22.74,1.33.4,1.58.22,4.16-3,5-8.32,7.07-12.75.42-.91-1.48-.63-1.81-.08-2.16,3.61-3.89,7.45-6.16,11l1.87-.07c.59-2.53,4.57-13.06-.22-14.21-3.87-.92-4.32,5.74-4.18,8,.05.68,1.87.24,1.94-.37a8.55,8.55,0,0,0-2.54-7.61,1.31,1.31,0,0,0-1.86.5c-1,4.35-1,9.54,2.53,12.74.41.37,1.83.19,1.87-.5.2-4.18-2.21-7.17-5.75-9.17-.43-.24-1.93,0-1.73.74A13,13,0,0,0,118.8,97c.42.31,1.9-.06,1.73-.74a19,19,0,0,0-3.77-7.46c-.37-.48-2.14,0-1.86.64,1.43,3.27,3.88,8,8,5.62s1.55-9.15-1.24-11.4c-.5-.39-1.92-.14-1.86.65.24,3.39,2.11,10.21,6.65,9.06s-.75-7.1-2.46-8.34c-.44-.32-2.19.25-1.65.88a17.92,17.92,0,0,0,5,4.5c.48.25,1.84,0,1.73-.75-.37-2.45-1.59-4.1-3.15-6-.38-.46-2.16,0-1.86.65,1.32,2.78,2.91,4.9,5.81,6.1.41.16,1.8.06,1.8-.6v-2.2c0-.86-2-.47-2,.22V90a7.57,7.57,0,0,0,1.7-.6c-2.76-1.13-4.11-3-5.36-5.64l-1.87.65a11.66,11.66,0,0,1,3,5.74l1.72-.75a16.7,16.7,0,0,1-4.79-4.3L122.5,86A13.64,13.64,0,0,1,124.61,88a9.89,9.89,0,0,1,1.51,2.38c-.88,1.43-1.57,1.55-2.06.36a14.24,14.24,0,0,1-2.3-7l-1.86.65a7.84,7.84,0,0,1,3.17,6.43,6.39,6.39,0,0,1-.79,2.86c-1.69,3.28-5.33-4.54-5.45-4.8l-1.86.64a18.79,18.79,0,0,1,3.63,7.2l1.73-.74a12.05,12.05,0,0,1-4.73-7.1l-1.73.74c3.23,1.82,5.53,4.52,5.34,8.42l1.86-.5c-3.43-3.08-3.35-8-2.39-12.18l-1.86.5a7.69,7.69,0,0,1,2.39,7l1.93-.37a11.22,11.22,0,0,1,.93-5.61c.49.57,1,1.15,1.46,1.73a10.45,10.45,0,0,1-.08,3.35,69.24,69.24,0,0,1-1.78,7.5c-.19.84,1.62.34,1.88-.07,2.27-3.55,4-7.38,6.16-11l-1.81-.08c-1.88,4.06-2.65,9.39-6.48,12.18l1.58.21a129.84,129.84,0,0,1,4.92-13.19c.3-.71-1.59-.4-1.87.07-2.46,4.15-3.09,9-5.54,13.19l1.87-.07c.74-4.23,2.34-8.23,3.08-12.46.14-.81-1.79-.47-1.94.22a32.17,32.17,0,0,1-4.25,10.11l1.88-.07c.32-6.19,3.41-11.88,5.54-17.59l-1.93.22c-1.36,4.06-2.63,8.55-6,11.43l1.75.08a78.59,78.59,0,0,1,4.87-12.31l-1.88.07c-1.26,4.26-2.87,8.18-6,11.43l1.75.08a79.78,79.78,0,0,1,9.18-21.11l-1.88.07c-2.1,5.79-4.33,13-9,17.29l1.75.08c2.59-7.93,7.09-15,10.41-22.57.4-.91-1.53-.7-1.81-.09-3.25,7.15-6.21,20.56-14.27,23.8l1.36.33c1-6.24,5-14,10.11-17.9l-1.58-.21c-1.28,5-3.51,13.23-8.66,15.58l1.3.48a159.86,159.86,0,0,1,10.47-17.59L124.82,70c-3.27,7.22-5.5,15-10.48,21.26l1.88-.07c2.61-7.51,6.1-15,11.52-21L126.05,70c-2.71,6.39-5.6,13-10.35,18.18l1.69.23c3.73-6.83,6.59-14.13,11.09-20.52l-1.81-.09c-3,6.63-5.46,13.54-9.24,19.8l1.87-.07C121.12,83,124,79,126,74.51c.41-.89-1.52-.69-1.81-.08Z"/><path class="cls-1" d="M130.38,64.22c-2.64,2.71-3.61,5.92-3.77,9.66,0,.75,1.6.2,1.85-.15a17.7,17.7,0,0,0,3.15-9.66c0-.75-1.6-.2-1.85.15a18.65,18.65,0,0,0-3.15,10.39c0,.72,1.63.26,1.85-.14,1.82-3.28,2.65-6.85,3.77-10.4.23-.73-1.63-.09-1.85.15a19.5,19.5,0,0,0-5.62,12.59c0,.8,1.59.14,1.86-.15C129.16,74,129.9,70.45,131,67c.22-.69-1.62-.16-1.86.14a26.27,26.27,0,0,0-5,11.12c-.12.6,1.09.3,1.32.21,4.32-1.66,6.52-6.68,8-10.74l-1.92.27a21.17,21.17,0,0,0-1.23,5.14l1.92-.4c.11-3.78,1.18-8.23-1.91-11.1-.42-.4-1.66,0-1.86.5-1.64,4.3.34,9.1,3.75,11.95.37.3,1.82.08,1.87-.5.38-4.51-.82-9-4.37-11.95-.36-.3-1.83-.08-1.87.5-.29,4.35,1.61,7.18,5,9.75.38.29,2,0,1.87-.62C134,68,133,64.37,129.58,63c-.38-.15-1.68,0-1.74.57A16.65,16.65,0,0,0,130.3,74c.29.5,1.85.18,1.93-.4.49-3.75-.88-9.8-5.87-6.4-4.48,3.06-6.78,11.2-7.76,16.21-.15.77,1.62.1,1.86-.15,4.9-5.19,8.31-12.48,10.54-19.19.23-.69-1.62-.14-1.86.15A67.57,67.57,0,0,0,118,84.87c-.22.65,1.62.19,1.86-.14a69.85,69.85,0,0,0,9.93-19.92c.19-.66-1.36-.21-1.55-.1-6.7,3.54-10.47,13.39-12.7,20.16-.22.66,1.37.19,1.55.1,6.62-3.16,8-11.49,13.11-16.24l-1.72,0c-.86,1.89-4.62,7.42-1.08,8.41,2.49.68,4.72-2.42,5.47-4.29.19-.48-.92-.33-1.08-.29a12.63,12.63,0,0,0-8.86,7.89c-.25.65,1.39.18,1.55.1,4.23-2,6.86-5.85,9-9.9.31-.58-1.39-.19-1.55-.1a21.91,21.91,0,0,0-7.08,6.11c-.34.48.48.49.75.47,5.43-.43,10.26-5.31,4.74-9.64-.39-.31-2,0-1.87.62a6.86,6.86,0,0,0,3.89,5.32A1.66,1.66,0,0,0,134,73c1-1.38.82-1.68.07-3.18-.3-.61-2.17,0-1.93.51a2.21,2.21,0,0,1,.07,2.69l1.67-.45a6.3,6.3,0,0,1-3.5-4.95l-1.87.62c2,1.57,3.25,3.34,1.83,5.81q-5.13,3.17-1.19-.34A22.48,22.48,0,0,1,133.09,71l-1.55-.1c-2,3.71-4.37,7.29-8.25,9.16l1.55.1c1.35-3.36,3.46-5.78,7.16-6.77l-1.08-.28q-.42,2.66-3,1.31a10.53,10.53,0,0,1,.58-1.83c.51-1.43,1.27-2.78,1.89-4.16.28-.61-1.51-.18-1.72,0-4.89,4.58-6.47,13-12.76,16l1.54.1c2.11-6.4,5.63-16.08,11.95-19.42l-1.55-.1a68.53,68.53,0,0,1-9.79,19.66l1.86-.14a66.59,66.59,0,0,1,11-20.4l-1.86.15c-2.22,6.67-5.52,13.77-10.4,18.93l1.86-.15a46.11,46.11,0,0,1,3.3-9.66,25.56,25.56,0,0,1,2.77-4.85c3.36-4.53,3.88,3.94,3.71,5.26l1.92-.4a16,16,0,0,1-2.46-10.14l-1.74.57c3.23,1.26,4.05,4.84,4.74,7.89l1.86-.62c-3.2-2.44-5.14-5.13-4.86-9.31l-1.87.5c3.43,2.88,4.62,7.16,4.25,11.51l1.87-.5c-3.29-2.75-5.22-7.34-3.64-11.51l-1.86.5c3,2.8,1.88,7.22,1.78,10.9,0,.5,1.89.16,1.93-.4a21.68,21.68,0,0,1,1.23-5.13c.19-.6-1.71-.3-1.92.27-1.22,3.35-3.14,8.38-6.8,9.79l1.33.2a25.66,25.66,0,0,1,4.86-10.87l-1.86.15c-1.06,3.33-1.76,6.78-4.24,9.4l1.86-.14a19,19,0,0,1,5.47-12.34l-1.85.15c-1.09,3.44-1.86,7-3.63,10.13l1.85-.14a18.26,18.26,0,0,1,3-10.14l-1.85.15a17.25,17.25,0,0,1-3,9.4l1.85-.15c.16-3.59,1.06-6.76,3.63-9.4.52-.54-1.39-.38-1.78,0Z"/><path class="cls-1" d="M144.37,96.76,143.13,96c-.32-.19-2,.14-1.74.7,1.94,4.53,4,9,7.46,12.57.37.39,2,0,1.87-.62-1-6-4.39-12.48-9.31-16.24-.37-.28-1.83-.1-1.86.5-.38,6.47,2.19,14.46,7.45,18.56.36.29,1.84.11,1.86-.5.24-6.21-4.88-12.71-10-15.7-.38-.22-1.66,0-1.74.58-.54,4,1.29,17.37,7.58,15.23,6.55-2.22-5.48-13.9-8.3-15.08-.42-.17-1.64,0-1.74.58-1,5.61,1.31,12.74,7,15,.48.19,1.73,0,1.74-.7.08-5.46-5-9.59-9.43-11.91-.43-.23-1.59,0-1.74.57-1.45,5.43,1.79,12.2,7.76,12.82.47.05,1.55-.11,1.57-.75.11-5.42-5-10.51-10-11.91-.39-.11-1.7,0-1.74.58-.32,5.23,2,10.78,7.76,11.35.41,0,1.63-.12,1.56-.75-.54-5.39-6.12-7.94-10.84-9-.34-.08-1.54.12-1.56.63-.16,4.55,2.48,8.67,7.35,8.43.36,0,1.28-.16,1.35-.64.71-4.4-3.89-7.23-7.58-8.37-.37-.12-1.72,0-1.74.58-.17,4.87,4.07,10,9,10.61.24,0,1.86-.2,1.57-.74a26.08,26.08,0,0,0-8.69-9.64c-.38-.25-2.06-.07-1.87.62,1.26,4.68,6.84,10.56,12,8.56,5.41-2.07-2.47-9.93-4.63-11.38-.42-.28-1.75-.12-1.86.5-.78,4.26,5.59,11.78,10.17,10.55,6.13-1.64-4.58-13.11-6.46-14.71-.35-.31-2.1,0-1.87.62,1.7,4.42,10.19,18.51,16.39,13.46,5.12-4.16-8.73-16-11.44-18.49-.35-.31-2.12,0-1.87.63,3.55,8.48,11.11,16.27,19.91,19.24.29.1,2-.09,1.74-.7-3.69-7.57-9.22-15.93-16.83-20-.38-.2-1.67,0-1.73.58-1.38,11.43,14.34,16.71,21.62,22.22.42.32,2.27-.12,1.8-.73-5.92-7.7-12.14-15.1-19.71-21.26-.37-.29-1.83-.09-1.86.5-.72,13.77,15.28,22.06,26,26.7.37.16,2.17-.21,1.68-.8-7.45-8.87-14.91-17.76-23.41-25.66-.35-.33-2.07,0-1.86.62,3.58,10.65,13.86,19.14,24.21,22.91.38.14,2.13-.15,1.68-.81-6.1-8.78-13-18.4-22.18-24.19-.41-.26-2-.09-1.87.63,1.78,11.62,12.48,18.92,20.4,26.49.35.34,2.15-.08,1.87-.62-5.51-10.48-14.19-18.68-20.4-28.7-.29-.46-2.11.13-1.87.63,4.8,9.79,9.89,21.58,19.17,28,.34.24,2.18,0,1.86-.62-5.58-10.24-11.85-20.08-17.86-30.06-.32-.53-2.12-.12-1.93.52,2.08,7.37,6.46,13.52,10.53,19.9.29.45,2.09-.1,1.87-.63-2.53-6-5.06-12.42-9.92-17a1.54,1.54,0,0,0-1.8.36,37.33,37.33,0,0,0-3.76,11.87c-.13.72,1.49.2,1.73,0,3-2.61,5.56-7.6-.16-8.49-4.88-.77-8.49,3.54-9.58,7.77-.06.23.19.32.36.36,6.2,1.21,10.38-6.53,13.2-10.76a.27.27,0,0,0-.12-.44c-6.86-2.13-13,2.46-14,9.38-.1.6,1.07.31,1.33.21,4.44-1.71,7.61-7.68,8-12.21.06-.69-1.27-.26-1.55-.11-4.05,2.18-8.39,6.06-9.61,10.64-.09.32.37.36.57.37,6.49.22,10.81-8.67,12.44-13.83.19-.6-1.14-.29-1.33-.22a24.81,24.81,0,0,0-15.38,17.35c-.15.58,1.12.31,1.33.21a20.26,20.26,0,0,0,9.15-9.15c.38-.69-1-.48-1.26-.35-4.81,2.27-9.94,7.45-10.45,12.95a.27.27,0,0,0,.19.31c4.25,1.19,7.59,0,11.61-1.56.6-.24.86-.83,0-.85-3.74-.12-7.07-.38-10.61.88-.17.06-.72.34-.6.61,2.47,5.34,8.87,6,14.13,6.11.3,0,1.71-.33,1.29-.87A18.33,18.33,0,0,0,131,104c-.22,0-1.62.3-1.35.76,4.56,7.89,16,9,24.23,8.29.19,0,1.51-.47,1-.85-5.08-4.17-12.32-8.9-19.13-6.58-.22.07-.66.31-.6.6,1.93,8.68,15.24,9.81,22.38,9,.32,0,1.6-.52.92-.93-3.88-2.36-14.18-10.9-18.9-7.06-6,4.88,13.23,11,15.68,11.66.37.09,1.89-.25,1.5-.86-3-4.69-7.14-7.88-11.7-11-.37-.25-2.08-.06-1.87.62,1.63,5.23,6.44,10,12.07,10.5.31,0,2-.25,1.5-.86-1.79-2.33-3.15-4.82-5.54-6.6-.44-.32-1.71-.09-1.87.5-1.3,4.93,4.69,8.73,9,9.15.47,0,1.56-.11,1.57-.74.08-5.34-6.45-8.14-10.8-5.85-.15.07-.44.28-.38.5,1.94,6.28,10.83,5.41,16,5.38.2,0,1.83-.45,1.29-.87-3.53-2.76-14.58-6.27-16,.5a.22.22,0,0,0,.06.23c5.27,4.54,12.75,2.44,18.52,0,.35-.15,1-.73.23-.84a110.19,110.19,0,0,0-14.38-1.48c-.28,0-2,.65-1.16,1,5.25,1.91,10.78,1.1,16.19,2.24.54.12,2.28-.69,1.2-1-5.94-1.54-11.41-4.24-17.07-6.55-.53-.21-2.32.56-1.56.89,6.5,2.8,13.6,3.13,20.33,5.13.55.16,2.29-.66,1.56-.88-6.72-2-13.86-2.34-20.33-5.14l-1.56.89c5.78,2.35,11.37,5.06,17.43,6.64l1.2-1c-5.25-1.1-10.75-.29-15.84-2.15l-1.16,1a83.57,83.57,0,0,1,10.35.91c1.1.16,4-.33,1.55.63a23.12,23.12,0,0,1-7.16,1.46c-1.17,0-6.82-.58-6.29-3s4.5-1.61,6.15-1.27a15,15,0,0,1,6,2.62l1.29-.87c-3.85,0-7.75.21-11.43-1.14a6,6,0,0,1-2.19-1.44c-2.65-2.34,1.24-2,2.59-1.41a5.81,5.81,0,0,1,3.51,5.48l1.57-.75c-3.89-.37-9.46-3.92-8.26-8.44l-1.86.5c2.39,1.78,3.75,4.27,5.54,6.6l1.5-.85c-5.31-.46-9.81-5.14-11.34-10l-1.86.63c4.56,3.11,8.67,6.3,11.7,11l1.5-.85c-3.95-1-17-4.21-15.65-9.91.55-2.42,14.75,6.34,16.12,7.18l.92-.93c-5.74.63-12.41-.35-17.3-3.51a8.65,8.65,0,0,1-2.92-3.32c-1.41-2.66,4.71-.79,5.66-.46a33.33,33.33,0,0,1,9.82,5.94l1.05-.85c-7.61.69-18.37-.53-22.59-7.84l-1.36.77a17.17,17.17,0,0,1,12.43,6.45l1.29-.87a28.27,28.27,0,0,1-7.32-.94,11.23,11.23,0,0,1-3.86-2.05c-2.47-1.92,2.06-2.77,3.47-2.73,5.62.16-5.78-.21-5.8,0a11,11,0,0,1,1.81-4.12,18.37,18.37,0,0,1,7.37-6.89l-1.27-.34c-1.94,3.56-4.3,6.63-8.1,8.44l1.33.22c2-7.44,6.83-13.68,14.2-16.38l-1.33-.22A30.25,30.25,0,0,1,139,95.43a4.46,4.46,0,0,1-3.46,2.16,11.88,11.88,0,0,1,2.48-3.9,20.78,20.78,0,0,1,6.14-5l-1.55-.1c-.31,3.81-2.94,9.75-6.8,11.24l1.33.22a12.87,12.87,0,0,1,1.67-4.89q2.47-4,8.27-3-.6.91-1.23,1.83c-.69,1-1.43,2-2.19,3a24.08,24.08,0,0,1-2.36,2.59,2.72,2.72,0,0,1-3.26.79c.84-3.24,4.53-6.94,8-4.76,2.87,1.79-.58,5.37-2,6.63h1.72a36.61,36.61,0,0,1,3.63-11.61l-1.79.37c4.8,4.49,7.29,10.81,9.79,16.76l1.87-.62c-4-6.31-8.35-12.41-10.41-19.69l-1.93.52c6,10,12.28,19.82,17.86,30.05l1.87-.62c-9.26-6.37-14.24-18-19-27.75l-1.86.62c6.16,10,14.8,18.08,20.26,28.49l1.87-.63c-7.86-7.52-18.5-14.74-20.27-26.28l-1.86.62c9.17,5.79,16.08,15.41,22.18,24.19l1.67-.81c-10.14-3.69-20.32-12.09-23.83-22.54l-1.87.63c8.5,7.9,16,16.79,23.41,25.66l1.68-.81c-10.44-4.5-26.38-12.67-25.69-26.09l-1.86.5c7.56,6.15,13.79,13.56,19.71,21.26l1.8-.73c-7.06-5.35-22.83-10.67-21.5-21.76l-1.74.58c7.39,3.93,12.89,12.29,16.45,19.61l1.74-.7c-8.59-2.9-16.07-10.61-19.53-18.88l-1.86.62c4.42,4,9.42,8.58,11.85,14.09.59,1.35,1,4.22-1.67,3.38-2-.65-3.76-2.69-5.16-4.21a30.83,30.83,0,0,1-6.23-9.48l-1.87.62a26.54,26.54,0,0,1,7.87,10.8c1.49,4.37-4-.16-4.85-1.09-1.54-1.62-3.45-4.14-3-6.54l-1.86.5a16.44,16.44,0,0,1,6.07,7.45c.57,1.42-.3,2.18-2.6,2.3a12.15,12.15,0,0,1-3.66-2.67,11.64,11.64,0,0,1-3.49-5.51l-1.86.63a25.59,25.59,0,0,1,8.56,9.42l1.56-.75c-4.45-.5-8.42-5.51-8.26-9.9l-1.74.57c3.33,1,7.87,3.63,7.21,7.76l1.35-.64c-4.55.23-6.33-4.08-6.21-7.69l-1.56.62c4.48,1,9.6,3.49,10.11,8.57l1.57-.75c-5.34-.53-7.32-5.94-7-10.64l-1.73.57c4.87,1.36,9.77,6.3,9.66,11.55l1.57-.75c-5.58-.58-8.35-7.19-7-12.11l-1.74.58c4.31,2.24,9.12,6.3,9,11.55l1.74-.7c-5.36-2.12-7.53-9.06-6.59-14.36l-1.73.58c2.52,1,12.57,10.6,9.25,13.36-2.24,1.86-5.29-13-5.05-14.67l-1.74.58c4.92,2.84,9.89,9.18,9.67,15.08l1.86-.5c-5.07-4-7.69-11.79-7.33-18.1l-1.86.5c4.9,3.74,8.19,10,9.17,16l1.87-.63c-3.36-3.53-5.42-7.91-7.33-12.35l-1.74.7,1.23.73c.5.3,2.29-.44,1.56-.88Z"/><path class="cls-1" d="M140.78,99.66c.62,8.39,10.65,12.62,16.07,17.67l1.81-.68c-6.71-5.38-11.14-13-17.86-18.33-.32-.26-2.11.19-1.87.6,4.22,7.18,11.42,15.58,20.06,17,.25,0,1.95-.34,1.52-.78a177.74,177.74,0,0,0-16-14.66c-.33-.26-2.12.2-1.88.6,4.22,7,9.3,13.44,16.82,17,.29.14,1.92-.16,1.75-.66-3-8.66-9.66-15.26-15.46-22.08-.29-.33-2,.11-1.87.6,2.66,9.27,9.4,18.53,19.27,20.67.3.06,2.11-.2,1.69-.75-4.42-5.83-9.7-10.87-14.78-16.12-.33-.35-2.09.27-1.87.6,4.43,6.58,10.1,13.37,18,15.54.25.06,2-.18,1.76-.66-3.55-6.5-8.14-12.64-14.23-17-.33-.23-2.13.18-1.88.6a72.93,72.93,0,0,0,17.31,19.88c.38.29,2.18-.2,1.82-.68-5.07-6.72-10.47-13.28-17.25-18.33-.34-.25-2,0-1.88.6a26.86,26.86,0,0,0,7.46,13.28c.33.34,2.09-.27,1.87-.6-4.78-7.16-10.38-14-17.31-19.15-.37-.27-1.91,0-1.87.6.5,8.14,8.34,15.79,14.84,19.88.31.2,2.12-.11,1.87-.6-3.62-7.21-9.52-13.06-15.46-18.41-.31-.29-2,.07-1.87.6,1.45,6.43,4.09,15.29,10.53,18.41.4.19,1.91,0,1.88-.6-.25-4.29-2.69-8.46-4.85-12-1.75-2.89-4.2-6.92-7.65-7.88-.44-.13-1.71.06-1.76.65-.23,3.11,0,10.44,3.44,12,3.16,1.44,4.23-5.08,4.37-6.47.28-2.94-2.47-3.27-4.56-2.32a12.35,12.35,0,0,0-6.94,10.72c0,.5,1.56-.09,1.71-.19,4.85-3.26,9.53-9.87,10.68-15.62.09-.44-.86-.24-1.05-.19-3.59,1-6.54,2.47-8.79,5.53-.47.63,1.38.22,1.63,0a35,35,0,0,0,7.59-9c.13-.19-.24-.27-.34-.28-4.64-.18-6.18,4.2-7.73,7.92-.14.36.66.28.79.25,4.74-.88,6.48-6,7.9-10.09.07-.2-.19-.27-.34-.27-5.37-.22-6.66,4.32-8.35,8.65-.22.57,1.63,0,1.84-.21a27.73,27.73,0,0,0,6.23-8.17c.1-.2-.21-.27-.34-.27-6.09-.24-10.28,8.3-12,13-.21.57,1.53,0,1.71-.09a35.79,35.79,0,0,0,9.44-11.21c.27-.5-1.4-.08-1.52,0-5.45,2.54-10.41,5.93-13.33,11.32-.06.13.08.23.17.25,6.15,1.38,10.89-6.43,13.45-10.82.2-.34-.69-.27-.79-.25-6.83,1.46-11.57,7.52-14.06,13.76-.19.49,1.18.16,1.31.11,4.18-1.53,6.61-5.45,8.61-9.22.25-.47-1.2-.15-1.3-.12a23.49,23.49,0,0,0-12.93,10c-.12.19.24.27.34.28,4.63.28,7.31-3.66,9.58-7.19.17-.26-.46-.28-.55-.28-3.75.23-7.07,1.77-8.61,5.38-2,4.61,2.45,7.45,6.36,8,.23,0,2-.34,1.52-.78a11.68,11.68,0,0,0-3.08-2.19c-.33-.18-2,0-1.87.6.81,3,5.34,10.22,7.46,4,.16-.46-1.73-.22-1.91.32-.9,2.63-3.31-3.66-3.62-4.82l-1.87.6a12.12,12.12,0,0,1,3.08,2.2l1.52-.77c-5.17-.67-7.81-5.08-4.49-9.46q1.08-2,2.82-.43l-.81,1.08a1.34,1.34,0,0,1-2.23.74,20,20,0,0,1,10-6.63l-1.3-.11c-1.7,3.19-3.8,7.06-7.4,8.37l1.3.11a29.4,29.4,0,0,1,5-8.13l1-1.07a8.33,8.33,0,0,1,4.43-2.7,38.72,38.72,0,0,1-3,4.21,23,23,0,0,1-3.53,3.59L134.13,98a18,18,0,0,1,2.61-3.28c2.51-2.73,5.95-4.59,9.27-6.14h-1.53a34.71,34.71,0,0,1-9,10.77l1.7-.09a34.41,34.41,0,0,1,4.6-8.25c.33-.45,3.86-3.69,3.25-2.43a24.08,24.08,0,0,1-5.37,6.49l1.84-.21c.64-1.65,1.21-3.31,2-4.92.56-1.19,3.1-3.28,2-.43a29.33,29.33,0,0,1-1.82,3.74c-2.71,4.91-.83-.06-.1-1.43L145,90.42c-.76,1.18-1.57,2.33-2.44,3.43a22.17,22.17,0,0,1-4,4l1.63,0a11.71,11.71,0,0,1,7.22-4.74l-1-.19a26.59,26.59,0,0,1-10.26,15.17l1.71-.2a12.46,12.46,0,0,1,3.07-7.58c.65-.78,3.23-3.4,4.37-1.34.73,1.31-.12,3.48-.48,4.79-1,3.56-2.34-1.93-2.65-3.14a20.71,20.71,0,0,1-.61-6.65l-1.76.66c3.59,1,6.15,5.7,7.9,8.61,2,3.25,4,7.17,4.24,11l1.88-.6c-6.38-3.09-9-11.83-10.42-18.25l-1.87.61c5.88,5.3,11.75,11.1,15.34,18.24l1.87-.6c-6.52-4.1-14.22-11.61-14.72-19.71l-1.87.6c6.87,5.12,12.45,11.88,17.19,19l1.87-.61a26.32,26.32,0,0,1-7.33-13.11l-1.88.6c6.78,5.06,12.19,11.62,17.25,18.33l1.82-.68A72.24,72.24,0,0,1,153.8,98.41l-1.88.6c6,4.27,10.6,10.33,14.11,16.77l1.76-.65C160,113,154.42,106.29,150.1,99.87l-1.87.6c5.08,5.25,10.36,10.29,14.78,16.13l1.69-.74c-9.73-2.11-16.29-11.27-18.91-20.39l-1.88.61c5.77,6.77,12.4,13.31,15.35,21.9l1.75-.65c-7.35-3.49-12.34-9.91-16.45-16.73l-1.88.61a173.65,173.65,0,0,1,16,14.66l1.52-.78c-8.17-1.37-15.39-9.94-19.36-16.68L139,99c6.71,5.38,11.15,12.95,17.86,18.32.42.34,2.2-.33,1.81-.68-5.37-5-15.33-9.22-15.95-17.51,0-.44-2-.07-1.93.52Z"/><path class="cls-1" d="M118,114.16c-.31,2.82,3.38,4.42,5,6.16.41.44,2.19.06,1.86-.65a18.71,18.71,0,0,0-8.83-9c-.48-.24-2.18.13-1.65.91a20.59,20.59,0,0,0,6.91,6c.38.23,2.07-.08,1.72-.77-1.58-3.11-4.7-4.44-7.6-6.11-.4-.23-2,0-1.72.77,1.6,3.88,5.86,5.25,9.63,6.18.49.12,1.9-.23,1.47-1a18.82,18.82,0,0,0-4.31-5.13c-.43-.35-2.17-.15-1.86.66a15.42,15.42,0,0,0,7.6,8.31c.38.2,2.07,0,1.72-.76-1.53-3.16-4.27-5.21-6.85-7.47l-1.65.9a21.46,21.46,0,0,1,9.11,8c.42.61,2.29-.07,1.78-.8a22.18,22.18,0,0,0-9.37-8.17c-.43-.19-2.35.3-1.65.9,2.47,2.17,5.23,4.16,6.7,7.19l1.72-.76a14.47,14.47,0,0,1-7.18-7.82l-1.86.66a18.64,18.64,0,0,1,4.31,5.13l1.47-1c-3.4-.83-7.39-2-8.85-5.54l-1.72.76c2.64,1.52,5.73,2.75,7.18,5.62l1.73-.76a20,20,0,0,1-6.65-5.76l-1.65.9a17.83,17.83,0,0,1,8.42,8.55l1.86-.65c-1.43-1.52-5.11-3.25-4.85-5.57.1-.88-1.86-.55-2,.2Z"/><path class="cls-1" d="M107.75,104.06v3.66c0,.69,1.54,0,1.74-.25a18.76,18.76,0,0,0,2.47-3.8c.28-.56-1.21-.32-1.37-.25-2.72,1.31-4.61,5.17-1,6.7a1.61,1.61,0,0,0,1.67-.45,11.57,11.57,0,0,0,2.52-6.73c0-.63-1-.36-1.34-.25a12.28,12.28,0,0,0-8,8.57c-.21.77,1.51.17,1.73,0a14.87,14.87,0,0,0,5.74-9.07c.17-.69-1.32-.28-1.56-.13a36.91,36.91,0,0,0-10.15,9.78c-.54.75,1.24.41,1.48.27a18.29,18.29,0,0,0,5.23-4.65c.4-.47-.51-.55-.75-.52-5.38.67-9.26,5.91-12.12,10-.52.74,1.35.45,1.66.15,3.11-3,6-6.33,8.75-9.66.54-.64-1-.47-1.27-.38-4.82,2.08-9.28,5.25-11.68,10-.33.66,1.54.17,1.74,0,3.77-3,6.37-7,8.75-11.13.45-.78-1.21-.44-1.49-.27-4.4,2.68-11,7-9.61,13,.15.64,1.45.08,1.73-.12,3.85-2.71,5.75-7.16,9.24-10.27l-1.66-.14C96.53,112.28,92,115.3,88,119.05c-.64.61.47.74.89.6,3.93-1.32,6.71-4,9.4-7.05.55-.63-1.06-.46-1.27-.38a14,14,0,0,0-6.68,5.5c-.19.27,0,.46.3.51,6.25,1.22,11-5.92,14.43-10,.53-.65-1.06-.47-1.28-.38a28.61,28.61,0,0,0-7.16,4.63c-.2.16-.32.49,0,.6a8,8,0,0,0,8-1.69c.89-.75,6.75-5.73,4-6.55-.41-.13-1.87,0-1.74.71.5,2.72,2.4,3,4.79,2.4.29-.07.75-.26.84-.59.87-3.06.3-5.5-2.66-6.92-.43-.21-1.62,0-1.73.58-.71,3.72,1.93,5.17,5.12,6.19.47.15,1.78,0,1.74-.71-.15-2.18-.86-3.1-2.54-4.51-.38-.32-1.81-.12-1.86.5-.25,3.12,1,5,3.89,6.19.47.19,1.58,0,1.73-.58.84-3.17-.55-5.19-2.53-7.58-.34-.41-2.05,0-1.86.63.76,2.53,2,4.29,4.68,4.65.58.07,2.27-.87,1.2-1-2.52-.34-3.31-2.05-4-4.16l-1.86.63c1.92,2.33,3.22,4,2.4,7.09l1.73-.58c-2.62-1.09-3.73-2.64-3.5-5.54l-1.86.5a5.42,5.42,0,0,1,2.39,4.29l1.74-.72c-2.8-.9-5.4-2.06-4.73-5.53l-1.74.58,2.42,2.28q1.53,4.34-1.91,1.4l-1.74.72c1.18.35-3.22,4.71-3,4.53a4.24,4.24,0,0,1-4.73,1.53,20,20,0,0,1,5.2-3.21l-1.27-.38c-1,1.25-2.08,2.51-3.15,3.75a36,36,0,0,1-2.72,2.8l-1,.86q-7.67,2.55,1.37-2.63l-1.27-.38c-2.23,2.54-4.55,5-7.85,6.14l.89.6c4.06-3.83,8.71-7,12.45-11.13.56-.63-1.33-.44-1.67-.15-3.47,3.09-5.41,7.58-9.24,10.27l1.74-.12c-1.31-5.53,4.82-9.48,8.86-11.94l-1.48-.27c-2.32,4-4.82,8-8.5,10.86h1.73c2.15-4.29,6.18-7.16,10.5-9l-1.27-.37c-2.72,3.23-5.47,6.43-8.5,9.39l1.67.15a44.41,44.41,0,0,1,5-6,17.33,17.33,0,0,1,2.89-2.29c2.51-1.67-3.4,3-3.17,2.9l1.49.27a34.71,34.71,0,0,1,9.55-9.28l-1.56-.13a13.9,13.9,0,0,1-5.35,8.53h1.74a10.5,10.5,0,0,1,6.8-7.56l-1.34-.25a11.43,11.43,0,0,1-2.39,6.46l1.66-.44c-2.38-1-2-4,.22-5l-1.34-.25a13.61,13.61,0,0,1-2.24,3.54c.62-.09,1-.17,2-.26v-3.66c0-.56-2-.21-2,.52Z"/></svg>