<svg id="layer1" xmlns="http://www.w3.org/2000/svg" viewBox="0 0 108.76 173.66"><defs><style>.cls-1{fill:#820d0d;}.cls-2{fill:#492d0c;}</style></defs><path class="cls-1" d="M79.7,33.46A46,46,0,0,0,66,37.41a2.7,2.7,0,0,0-1.71-.36c0-.07-.09-.14-.14-.2-1.89.44-3.83.89-5.68,1.51L48.9,40.55l-3.81.26c11.16-2.89,22.28-6,33.74-7.49,3.07-.4.64-4.32-1.65-4-15.46,2.06-30.31,6.82-45.46,10.33-2.69.62.25,3.59,1.45,3.91.38.1,1,.15,1,.29v0c-1,0-1.32.39-1,1.46a55,55,0,0,0,3.89,10A41.81,41.81,0,0,0,40.91,63c.7,1.38,1.41,2.77,2.07,4.19a2.93,2.93,0,0,0,1.68,1.53c.17.39.35.77.52,1.17A3.53,3.53,0,0,0,48,71.75c.52.52,1,1,1.55,1.46a4.36,4.36,0,0,0,2.2.79c.47.81.93,1.62,1.39,2.44a3.1,3.1,0,0,0,2.52,1.42l1.52,2.49c.94,1.55,4.14,2.15,4.2-.24a43.65,43.65,0,0,0-1.11-10.56,3.53,3.53,0,0,0,2.45.57q.21,1.51.51,3a2.33,2.33,0,0,0,1.15,1.77c-.88,1.32-1.76,2.76-2.59,4.07l0,.14h0l0-.12c-1.19,2.1,2.7,4.33,4.25,2.6.48-.54.94-1.12,1.4-1.66a1.84,1.84,0,0,0,.94-.22C79,73.83,81.83,60.06,81.71,48.4a93.23,93.23,0,0,0,1.12-12.55C82.86,34.48,80.89,33.34,79.7,33.46ZM75,56.41a68.08,68.08,0,0,1-7.2,13.47c0-.41,0-.82-.07-1.23-.25-6.58-.58-13.14-.77-19.72a2.1,2.1,0,0,0-.81-1.42c-.14-1.41-.32-2.81-.56-4.22,3.53-.58,7.07-1.2,10.61-1.73A49.09,49.09,0,0,1,75,56.41Z"/><path class="cls-1" d="M86.12,153.49l-.19-.15c-.83-.56-1.62-1.13-2.4-1.71l1.33-.3c.85-.2-2.5-3.54-3.91-3.21l-2,.44-.16-.1a16.08,16.08,0,0,1-1.18-2.39c-.2-.55-1.26-1.19-2.27-1.63-.58-1.69-1.06-3.38-1.37-4.42a126.47,126.47,0,0,1-3-14.43c-1.3-8-1.79-16.21-3.51-24.15-.3-1.41-4.52-3-4.33-2.16,2.13,9.83,2.66,20,4.51,29.92,1.24,6.62,2.63,15.1,7.56,20.21l-19.78,4.5c-.85.2,2.32,3.21,3.76,3.12l.15.09,1.31-.29a10.49,10.49,0,0,0,3.13,2.3c7.93,1.51,15.68-1.49,23.29-3.36.12,0,.23.12.3.1h0c.93-.21-.71-1.74-1.31-2.21ZM75.63,154.8l-.32-.14c-.91-.2-1.82-.38-2.72-.54L80,152.43h.09c.41.25.83.5,1.26.73C79.49,153.68,77.57,154.27,75.63,154.8Z"/><path class="cls-2" d="M24.28,31.42c2.57,11,2,22.56,5.06,33.54C31,71,34.75,75.24,39.86,78.73c5.92,4,12.52,5.84,16.09,12.63,5.78,11,5.75,24.87,8,36.84,1.49,8,2.1,15.25-4,21.56-4.44,4.57-10.37,7-13.74,12.67-.07.12.07.16.15.19,15.39,4.32,35.42.36,49.41-6.83,1.13-.58-.67-.45-1.11-.22-8.63,4.44-18.42,6.5-28,7.45a61.7,61.7,0,0,1-14.31-.18c-2.18-.29-4.63-.39-2.74-3a26.76,26.76,0,0,1,5.82-5.26c6.74-5.06,12-10.09,11.77-19.2-.12-3.63-1.23-7.26-1.82-10.84-.7-4.21-1.26-8.45-1.92-12.66-1.21-7.7-2.5-16-6.5-22.81-4.23-7.21-14.17-9.31-20-14.9S30,59.91,29,52.28c-.95-7.09-1.13-14.39-2.75-21.37-.1-.4-2,.08-1.93.51Z"/><path class="cls-2" d="M25.14,31.8c10-.26,20.12,0,30-1.86,5.65-1.07,11.21-2.59,16.89-3.52a41,41,0,0,0,11-3.08c.3-.15.6-.3.89-.46,1.08-.57.1,0,0-.41a15.87,15.87,0,0,1,.23,2.67c.5,5.17,1.75,10.27,2.37,15.43,1.1,9.11,2.52,19.66-2.55,27.76-4.1,6.56-11.53,10.17-15.41,17-4.06,7.13-2.82,16.29-1.53,24,.77,4.54,1.85,9,2.79,13.56,1.1,5.24,1.36,11.54,3.41,16.45,1.12,2.69,4.58,4.36,6.93,5.7,5.39,3.07,10.86,5.91,16,9.33.64.42,2.38-.47,1.51-1-4.85-3.2-9.91-6-15-8.75-4.07-2.22-7.42-4-8.31-8.81-2.06-11-5.09-22-6.33-33.23-1-9,.68-16.73,7.2-23.2S88.4,67.71,89.35,57.82c.74-7.65-.63-16.41-1.8-24-.6-3.9-1.37-7.73-1.7-11.65-.08-.93-.89-1.11-1.68-.85-2.65.89-5,2.27-7.79,3C70.84,25.76,65,26.56,59.44,27.79c-11.31,2.5-22.57,2.43-34.1,2.74-1,0-1.52,1.31-.2,1.27Z"/><path class="cls-2" d="M27.91,30.05a2.77,2.77,0,0,0-2,.09l1.32.17c.8-1.95,12-3.19,13.61-3.51,4.59-.91,9.23-1.59,13.87-2.18,4.33-.55,8.7-.71,13-1.5,5.12-.94,10.51-2.61,15.61-.69.51.19,2.27-.58,1.56-.85-4-1.52-8.14-1-12.29-.27-6.43,1.11-12.83,1.79-19.3,2.62-5.86.74-11.67,1.79-17.43,3.06-2.52.55-9.42.87-10.54,3.61-.22.54,1.18.24,1.32.18l-.24.13c.52.13,2.25-.68,1.56-.86Z"/><path class="cls-2" d="M31.44,38.22c2.4,9.81-2.84,31.38,12,33,.38,0,1.53-.07,1.56-.64a4.42,4.42,0,0,0-1.36-3.89,19.12,19.12,0,0,1-4.49-7.75c-2.35-7-3.47-14.55-4.55-21.88-.09-.64-2-.19-1.93.52.89,6.09,1.55,12.87,3.54,18.68a52.28,52.28,0,0,0,3.53,9.07c1.32,2.32,3.49,2.09,3.33,5.49l1.55-.64C30.57,68.64,35.65,47,33.37,37.7c-.16-.66-2.1-.16-1.93.52Z"/><path class="cls-2" d="M65.78,148.38c-3.67,2.81-9.52,5-11.48,9.51a.54.54,0,0,0,.37.75c5.75,1.65,10.68-3.27,13.35-7.84.54-.92-1.42-.92-1.84-.2-2,3.44-5.91,8-10.39,6.75l.36.75c1.8-4.12,7.51-6.26,10.9-8.86,1-.8-.52-1.43-1.27-.86Z"/><path class="cls-2" d="M69.08,158.27a38.44,38.44,0,0,0,16.28-4.36c1.18-.61.11-1.49-.82-1A35.94,35.94,0,0,1,69.29,157c-1.05,0-1.53,1.33-.21,1.28Z"/><path class="cls-2" d="M76.9,155.53l5.66-2.05c1.14-.42.83-1.71-.34-1.28l-5.66,2.05c-1.14.41-.82,1.71.34,1.28Z"/><path class="cls-2" d="M77.92,152a5.56,5.56,0,0,0,1.52-.25,2.94,2.94,0,0,0,1.23-.88c.29-.3-.25-.29-.44-.27a2.26,2.26,0,0,0-1.29.45l-.41.42c-.39.37,1.27-.23.66-.21a2.84,2.84,0,0,0-1.37.37c-.3.17-.27.38.1.37Z"/><path class="cls-2" d="M79.45,151.69A10.18,10.18,0,0,0,80.72,149c.19-.41-.65-.44-.83-.41a1.34,1.34,0,0,0-1.1.65,8.86,8.86,0,0,1-1.14,2.43c-.32.36.28.56.53.56a1.67,1.67,0,0,0,1.27-.52Z"/><path class="cls-2" d="M28.68,39.29c6.76,2.2,15.12.58,22-.15,11.13-1.18,22-4.48,32.45-8.24,1.13-.41.84-1.64-.33-1.22a159.11,159.11,0,0,1-28.18,7.65c-7.27,1.17-17.74,3.05-24.83.73-.77-.24-2.28.86-1.14,1.23Z"/><path class="cls-2" d="M40.1,71.76a48.33,48.33,0,0,1,12.76,6.6c2.07,1.5,4.62,4,7.29,4.24,5.74.61,8.52-4.09,11.84-8.13,4.61-5.61,10.52-8,12.5-15.58,1-3.79.68-7.89.51-11.75-.28-6.34-.88-12.67-1.09-19,0-.34-2,0-1.93.51.28,8.56,1.4,17.13,1.22,25.69-.16,7.32-3.61,12.55-9.4,16.78-5,3.63-8.58,14.16-16.17,8.66A59.88,59.88,0,0,0,41.69,71c-.44-.14-2.16.56-1.59.75Z"/><path class="cls-2" d="M49.83,72.27c3.91.79,7.75,3.27,10.65,5.93.48.44,2.28-.29,1.8-.73A24.85,24.85,0,0,0,51,71.28c-.57-.12-2.27.77-1.2,1Z"/><path class="cls-2" d="M48.8,68.35c4.26,3.25,9.29,5.29,13.55,8.53.52.4,2.28-.36,1.8-.73-4.26-3.25-9.29-5.28-13.55-8.53-.52-.4-2.28.36-1.8.73Z"/><path class="cls-2" d="M52.58,67.6c2.58,3,6.79,4.76,10.44,6.13.47.18,2.23-.56,1.57-.81-3.58-1.35-7.66-3-10.2-6-.35-.41-2.18.25-1.81.69Z"/><path class="cls-2" d="M55.66,66.16c2.62,4.46,8.26,7.43,13.27,8.16.58.08,2.28-.86,1.2-1-4.68-.68-10.08-3.49-12.54-7.67-.37-.63-2.21,0-1.93.52Z"/><path class="cls-2" d="M60.77,64.88a12.68,12.68,0,0,0,8.06,5c.64.14,2.28-.83,1.17-1.09a11.65,11.65,0,0,1-7.44-4.72c-.38-.56-2.25.08-1.79.77Z"/><path class="cls-2" d="M65.86,64.8a6.06,6.06,0,0,0,5.32,2.74c1.14,0,1.45-1.52.14-1.51a4.29,4.29,0,0,1-3.7-2.11c-.55-.76-2.38,0-1.76.88Z"/><path class="cls-2" d="M69,62.79a6.75,6.75,0,0,0,1.25,1,4.18,4.18,0,0,0,2.11.46c.42,0,1-.31,1.07-.76s-.52-.61-.88-.6A2.68,2.68,0,0,1,70.75,62a1.15,1.15,0,0,0-1.3-.13c-.28.13-.83.62-.47,1Z"/><path class="cls-2" d="M71.89,61.85a3,3,0,0,1,.69-.53c-.07,0,.08,0,0,0s.06,0,.13.09a1.36,1.36,0,0,0,1.27,0c.18-.08.87-.47.53-.74-1.22-1-3.24,0-4.19.93-.27.27-.25.57.17.64a1.72,1.72,0,0,0,1.37-.36Z"/><path class="cls-2" d="M73.83,56.79c.1,1.05,1.36,1.05,2.16,1,.41,0,1-.31,1.06-.77s-.52-.61-.88-.6-.38.09-.41-.18c-.05-.47-.83-.46-1.14-.38s-.84.42-.79.9Z"/><path class="cls-2" d="M77.11,51.51c1.13,0,1.45-1.5.15-1.5-1.14,0-1.46,1.5-.15,1.5Z"/><path class="cls-2" d="M81.14,43a1.34,1.34,0,0,0-1.32-1.31,1.24,1.24,0,0,0-1.25.61.66.66,0,0,0,.61.89c.27,0,0,0-.05-.12.05.09.06.39,0,0,.06,1.07,2,.81,2-.12Z"/></svg>