<svg id="layer1" xmlns="http://www.w3.org/2000/svg" viewBox="0 0 200.71 202.77"><defs><style>.cls-1{fill:#492d0c;}</style></defs><path class="cls-1" d="M120.48,71.29c6-5.78,13.7-.66,17,5.21l1.79-.77c-5.44-6.81-13.79-9.19-21.33-4.31-1.14.73.58,1,1.21.63,8-4.35,15,1,20.66,6.33.53.5,2.35-.25,1.79-.77-6.78-6.42-14.67-11.13-23.66-6.19l1.21.63c6.77-4.37,13.74-1.29,18.33,4.45.43.54,2.2,0,1.79-.77-4.16-7.43-13.61-11.24-20.34-4.81-.83.8,1.07.84,1.56.37Z"/><path class="cls-1" d="M87.05,74.37C78,72,70,75.48,62.94,81h1.73c2.52-7.9,13.83-12.57,20.88-7.64l1.29-.88c-3.26-.17-6.31-1-9.58-.61S70.91,75,68,76.38c-1.23.59-.1,1.06.75.72C74,75,79.29,74.76,84.9,74.75c.68,0,2.07-1,.77-1-6.17,0-11.89.34-17.67,2.66l.75.72c1.79-.87,3.49-1.88,5.21-2.89,4.12-2.42,8-.93,12.11-.71.21,0,1.84-.49,1.28-.88-8-5.6-21.7-.48-24.61,8.64-.23.73,1.52.16,1.73,0,6.34-4.94,13.28-8.07,21.38-5.9.58.16,2.27-.71,1.2-1Z"/><path class="cls-1" d="M89.43,155.06c2.09-1.37,4-2.95,6.25-4.11,3.6-1.88,7.13.44,10.42,1.42,4.94,1.48,9.43-1.87,14.43-.81.94.2,2-1.12.67-1.4a16.46,16.46,0,0,0-8.32.56c-4.55,1.22-7.67-.6-11.87-1.76-4.85-1.33-9.22,2.85-12.86,5.22-1.1.72.49,1.38,1.28.88Z"/><path class="cls-1" d="M83.44,160.69c4-.1,8.61-.26,12.09-2.36,6.31-3.8,14.06.45,20.91.72.9,0,2-1.3.68-1.35-5.52-.22-11.64-3.26-17.16-2.51a10.9,10.9,0,0,0-4.3,1.47c-3.84,2.14-7.74,2.56-12,2.67-1.08,0-1.5,1.39-.19,1.36Z"/><path class="cls-1" d="M61.58,157.14c1.62,5,4.41,9.5,6,14.56,1.17,3.62,3.63,5.8,6.57,8,7.25,5.53,16.64,6.54,25.45,6a129.49,129.49,0,0,0,14.26-1.91c4.45-.76,9.17-1,13.51-2.33,9-2.64,7.89-14.48,12.92-20.62.78-1-1.06-1.27-1.62-.58-4.7,5.74-3.88,15.92-10.94,19.58-3.11,1.61-7.72,1.5-11.13,2.08-4.57.78-9.13,1.56-13.73,2.09-9.64,1.09-19.07.09-27.23-5.48-3.83-2.62-5.7-5.72-6.93-10.1-1.19-4.21-3.91-7.74-5.25-11.9-.29-.89-2.22-.36-1.93.52Z"/><path class="cls-1" d="M69.28,48.61C76.63,39.12,89,34,100.85,34.14c11.1.16,23.43,1.18,33.25,6.77l1.13-1.06c-11.1-.06-22.14-1.12-33.2-2-7.64-.61-16.2-.66-22.6,4.15-.83.63.07,1,.75.83,4-1,7.63-2.92,11.32-4.75a45.78,45.78,0,0,1,7.57-3,15.77,15.77,0,0,1,7.54-.14c1.91.38-2.08,1.54-2.51,1.73-10.81,4.62-23.88,4.72-35.28,7-.65.13-1.28,1.13-.23,1.09,12-.4,22.43-7.33,33.42-11.41.65-.25.79-1,0-1C87.15,31.4,73.91,39,60.07,43l.53,1c9.05-4.6,18-9.46,27.45-13.16,7-2.74,16-5.42,23.61-4.29,4.25.64,6.39,4.36,1.78,6.26a33,33,0,0,1-9,1.86c-10.3,1.17-20.41-1.53-30.27-4.17l-1,1.12c17.49.86,36,0,53.05,4.43a37.71,37.71,0,0,1,9.87,4,13.93,13.93,0,0,1,3.69,3.19c1,1.15-5.34,1.23-6,1.19-7.9-.52-16.28-6.09-21.39-11.85l-1.48.93c5.52.93,10.76,3,16.33,3.76.3,0,2.12-.34,1.48-.93-8.39-7.85-22.23-8.39-33.06-8.56C81,27.5,68.47,31.36,55.52,38.24c-1,.55.34,1.08,1,.74,11.71-6,23-12.73,34.83-18.65a105.54,105.54,0,0,1,11.15-4.81c4.26-1.57,10.41-3.85,14.81-1.72,7.55,3.66-11.26,12.38-13.72,13.43-11.63,5-24.07,7.38-35-.43l-.63,1c17.47-4.36,36-11.7,54.19-7.44C130,22.21,138,27.47,140.51,35.45c2.24,7-12.91-.05-15-1.39-4.77-3-8.81-7.29-12.48-11.55l-1.79.78c7.51,8.38,17.09,13.2,27.54,17,.54.19,2.43-.52,1.53-1A104,104,0,0,1,119.43,25l-1.66.87c6.87,4.46,12.68,10.35,19.83,14.4l1.35-1C124.54,36,111.17,28.87,96.15,28.58,84,28.36,70.37,35.1,60.77,42c-.47.34-.46.92.24.89,7.75-.25,14.84-3.08,21.75-6.4.78-.38.67-1.14-.26-1C72.28,37,60.82,40,53,47.14c-.67.61.48.83.92.69C60.85,45.66,67.3,42.31,74,39.61c1.25-.51.12-1.22-.78-.86-6.55,2.64-12.83,5.93-19.57,8l.91.7c7.31-6.69,18.12-9.43,27.68-10.89l-.27-1A90,90,0,0,1,71.13,40.1a39.64,39.64,0,0,1-6.37,1.43C61,42.11,66,39.9,67,39.3a69.64,69.64,0,0,1,24.38-9.11c15.77-2.69,31.42,6.76,46.4,10.16.44.1,2.22-.53,1.35-1-7.15-4-13-9.94-19.83-14.4-.47-.3-2.24.37-1.66.87a104.86,104.86,0,0,0,21.12,14.5l1.53-1C130,35.57,120.45,30.82,113,22.51c-.47-.52-2.31.17-1.79.78a64.7,64.7,0,0,0,14.09,12.59c3.59,2.29,9.8,5.16,14.23,4,7.79-2.09-1-12.45-4.26-14.86-19.64-14.6-46.67-3.46-67.63,1.77-.4.1-1.2.59-.62,1,11.32,8.07,23.82,5.59,36,.89,4.42-1.71,19.07-7,18-13.48C118.51.51,59.05,36.42,55.74,38.12l1,.75c7.57-4,15.35-7.54,23.82-9.16,5.09-1,10.46-.89,15.63-.81,10.09.16,23,.88,30.79,8.16l1.48-.93c-5.57-.77-10.8-2.83-16.33-3.76-.34-.06-2.06.29-1.48.93,6.9,7.78,20.57,15.93,31,10.69.29-.15.77-.44.5-.82-5.2-7.49-17-9.15-25.36-10.29C102.75,30.94,88.16,31.16,74,30.46c-.52,0-2.06.83-.95,1.13,11.09,3,22.13,5.53,33.64,3.89,2.07-.29,14.31-2.27,11.32-6.81-4.29-6.52-16.1-2.9-22-1.39-12.84,3.27-24.4,9.89-36.13,15.85-1,.51-.4,1.22.53.95,13.48-3.94,26.46-11.5,40.9-10.59,0-.33,0-.67,0-1C90.82,36.36,80.7,43.23,69.32,43.61c-.07.36-.15.73-.23,1.09,8.12-1.64,16.36-2.71,24.5-4.25,5.35-1,11.13-2.08,15.63-5.34.39-.28.54-.69,0-.86-11-3.34-19.22,5-29.3,7.54l.74.83c7.26-5.46,17.38-4,25.86-3.17,9.29.88,18.66,1.5,28,1.56.35,0,2-.58,1.13-1.06-11-6.26-25.37-7.26-37.77-7-11.27.27-23.54,6.69-30.39,15.53-.55.72,1.4.6,1.81.08Z"/><path class="cls-1" d="M146.15,55.71a100,100,0,0,1,7.56,34c.43,12.62-5.52,24.28-7,36.67-.06.53,1.85.15,1.91-.33,1.4-11.93,6.72-23.06,7-35.16s-3.06-24.51-7.58-35.68c-.2-.5-2.1.11-1.93.51Z"/><path class="cls-1" d="M57.11,51.54c15.36-6.72,32.29-7.26,48.81-7.29.81,0,2-1.14.72-1.14H90.31c-.15,0-.31.73-.47,1.14,16.19-2.6,32.8-8.27,48.35-.15.2-.35.4-.72.61-1.08-4.61.87-10.28-4.06-13-7.36l-1.47,1c7.65,3,17,6.74,21.27,14.22l1.78-.8a71.63,71.63,0,0,1-12.17-19.27c-.32-.72-2.17-.25-1.94.52,3.08,9.88,9.14,18.53,11.09,28.8.13.72,1.94.3,1.93-.36-.12-8.83-1.85-17.32-4.08-25.83-.21-.8-2-.25-1.94.52.43,7.37,5.39,13.19,7.58,20l1.73-.76c-9-6.38-16.26-14.56-25.5-20.67-6.78-4.48-15.19-9.1-23.56-7.22-6.46,1.45-3.45,6.23.64,8.53,3,1.66,6.37,1.8,9.66,2.27,5.23.76,10.47,1.56,15.73.67.44-.08,1.77-.94.69-1.18-13.88-3.07-28.06-1.48-42,.32-8.43,1.09-20.19,2.79-24.23,11.46-.16.33,0,.53.33.64,6.06,2.21,12.64-.83,18.09-3.4,8.17-3.85,16.68-6.73,24.88-10.48,1.08-.49.35-1.21-.55-1-9.17,1.86-18.1,4.75-27.29,6.51-6,1.15-12.35,2.28-17.09,6.36a.43.43,0,0,0,0,.72c6.87,3.49,15.15,1.53,22.22-.34,4.09-1.08,8.09-2.47,12.13-3.71,7-2.12,14.23-2.68,21.46-2.73.8,0,2-1.23.71-1.23-9.7,0-19.55.59-28.75,3.9-.69.25-.75,1,0,1.08,10.18,1.06,20-2.27,29.67-5.06.41-.12,1-.46.74-1-4.44-8-19.36-6.15-26.87-5.91-10.84.35-23.89-.38-32.55,7.35-.21.19-.28.58,0,.72,5.07,2.27,11.11-.37,15.73-2.6,5.53-2.67,11.51-6.52,15.1-11.62a.39.39,0,0,0-.15-.57c-4.85-2.58-10.65-.11-15.35,1.71C65.36,30.43,57,33,49.68,38.2c-1,.7.34,1.16,1,.82,12.85-6.44,25.86-12.73,39-18.63,12-5.42,25.6-10.41,38.35-4.8A36.13,36.13,0,0,1,139.76,24c2.26,2.41,9.25,14.09,1.9,12.79-4.81-.85-9.25-3.57-13.62-5.63C121.42,28,114.78,25,108.21,21.77c-.6-.3-2.4.47-1.52,1,9,5.49,19.4,7.06,29.35,10.09l1.15-1.16c-8.47-1.5-16.2-7.28-24.23-10.25C108,19.65,100.47,18,96.88,23.2c-4,5.79,13.89,6.88,15.88.33.59-2-1.62-3.79-2.91-4.81-2.92-2.33-8-1.69-11.4-1.28-7.32.88-15.25,3.36-22.16,6-2.92,1.1-15.56,6.48-12.05,11.71,3.12,4.65,13.63.83,17.63-.39,9-2.73,17.51-7.14,22.41-15.52a.39.39,0,0,0-.15-.56C97.48,14,86.6,20.34,80.4,23.11c-7.91,3.52-19.89,8-23.43,16.64-.06.14-.13.33,0,.45,3.54,3.16,9.23,1.37,13.12-.07,4.11-1.52,11.47-5.23,11.49-10.45,0-.37-.29-.46-.61-.51-9.43-1.28-25.06,2.49-28.44,12.62-3.29,9.89,14.05,10.85,10.38,1.51-4.48-11.42-14.29,5-14.26,10.93,0,3.11,2.27,6.56,5.34,4.14,3.35-2.64,4.35-9.39,3.09-13.19-.17-.51-1-.39-1.37-.21-3.85,1.91-6.24,6.35-8.18,10s-4.57,9-3.46,13.29c.17.67,1.45.29,1.75,0C51.47,61.74,54,53.37,56.51,45.34a.37.37,0,0,0-.21-.41C46.73,40.78,40.8,62.54,40.57,68.7c0,.46.5.55.86.51C49.51,68.35,53,52.8,51.84,46.43c-.08-.45-.82-.35-1.11-.3-7.87,1.5-9,14.37-6.07,20.23.37.74,2.26.13,1.93-.52-2.36-4.68-2.33-17.3,4.44-18.59L49.91,47c.86,4.91-1.12,10.7-3,15.13a24.4,24.4,0,0,1-1.48,2.76c-.35.59-2.94,4.11-2.81,2.65a33.89,33.89,0,0,1,1.49-6.43c1.48-5,3.71-11.43,8-14.79,3.39-2.68,1.28,3.3,1.25,3.39-.75,2.36-1.59,4.68-2.5,7a38,38,0,0,1-6.51,11.12l1.75,0c-1-3.79,1.25-8.29,2.81-11.6s4.12-8.43,7.71-10.21l-1.37-.21a12.06,12.06,0,0,1,.12,6.17c-.09.5-2.4,7.81-3.94,4.86-2.21-4.2.68-9.62,3.07-13.06.88-1.27,3.33-4.19,5.33-2.27.85.82,1.2,2.29,1.62,3.36,1.6,4.07-3.47,4.72-5.81,2.49-5.07-4.84,2.7-11.42,6.56-13.43a35.78,35.78,0,0,1,14.25-3.61c2.21-.13,4-.52,2.69,2s-4.35,4.29-6.75,5.59c-1.77,1-15.39,5.22-12.63.19,3-5.52,10.8-8.82,16.15-11.45,3.66-1.8,7.39-3.47,11.14-5.06a53.36,53.36,0,0,1,7.92-2.65,13.77,13.77,0,0,1,5.57-.26c3.44.6-.45,4.17-1.43,5.3C92.76,31.08,80.49,35,71.14,35.79c-7.65.66-5-5.38-.67-8.25,4.07-2.69,9.07-4.25,13.76-5.46,6.61-1.7,22.81-8.49,26.5.51,1.56,3.79-6.55,4.31-8.57,4.24-7.32-.28-2.37-6.16,2.92-5.86,11.24.62,20.09,10,31,11.9.63.11,2.33-.8,1.15-1.16-9.81-3-20.1-4.52-29-9.94l-1.52,1c8.07,4,16.25,7.67,24.35,11.58,4.43,2.15,10,5,15.05,3.5.28-.08.81-.3.83-.66.65-14.22-16.75-26.25-30-25.52-11.06.61-21.17,4.61-31.14,9.16-12,5.51-24,11.3-35.88,17.24l1,.82c5.51-3.94,11.67-6.4,18-8.69C74,28.37,79.3,25.54,84.79,25.66c4,.09-.31,3.47-1,4.08a48.2,48.2,0,0,1-6.45,4.71c-4.48,2.85-10.8,6.29-16.3,5.31A2,2,0,0,1,62.53,38a23.05,23.05,0,0,1,5.54-2.32A48.78,48.78,0,0,1,77.43,34c4.37-.47,8.76-.37,13.14-.51,7.12-.22,21.19-2,25.32,5.5l.74-1c-9.31,2.7-18.82,6-28.65,5,0,.36,0,.72,0,1.08,8.68-3.12,18.1-3.58,27.24-3.61.24-.41.48-.82.71-1.23a81.72,81.72,0,0,0-23.49,3.16c-7.17,2.19-14.23,4.7-21.73,5.42-3.27.31-12.47-.42-5.18-3.63,3.51-1.55,7.49-2.18,11.24-2.9,9.19-1.78,18.11-4.66,27.29-6.51-.18-.35-.37-.69-.55-1-7.8,3.57-16,6.07-23.68,9.89-4.45,2.21-9.23,4.49-14.3,4.48-6.23,0,3.55-6.34,5.15-7.07C77.3,38,84.9,37.71,92,36.77c11.27-1.51,23-2,34.16.48l.69-1.18c-6.62,1.12-14.77,0-21.3-1.62-2.61-.65-6.05-2.47-7-5.13-2-5.25,13.44-1,14.81-.44,13.79,5.74,23,17.39,34.82,25.83.43.3,2-.06,1.73-.76-2.2-6.85-7.16-12.66-7.58-20l-1.94.52c2.21,8.4,4,16.79,4.08,25.51l1.94-.36c-1.94-10.27-8-18.92-11.08-28.8l-1.94.52a72.9,72.9,0,0,0,12.33,19.55c.48.53,2.23,0,1.78-.8-4.4-7.71-14-11.49-21.9-14.58-.43-.17-2,.32-1.46,1,3.37,4.14,9.39,8.73,15,7.67.36-.07,1.26-.72.61-1.06-16-8.37-33-2.82-49.64-.14-.68.11-1.72,1.19-.47,1.19h16.32c.24,0,.48-.79.72-1.2-17.06,0-34.48.74-50.33,7.68-1.23.53-.12,1.35.8.95Z"/><path class="cls-1" d="M60.4,48.76c-5.28,2.1-8.35,7.48-10.72,12.34A53.67,53.67,0,0,0,46.14,71c-.62,2.35-1.82,6.53-1.18,8.91.85,3.17,4.74-1.59,5.3-2.65,2.19-4.12,4-11.63,1.51-15.94-.33-.57-1.54,0-1.8.35-3.61,5-7.89,14.84-5.31,21,.3.7,1.55.2,1.87-.22,2.61-3.38,2.92-7.92,3-12l-1.93.22c.11,6.36,1.11,12.62,1.75,18.93.08.79,1.76.12,1.93-.37A47.65,47.65,0,0,0,53.6,73.5c0-.85-1.86-.47-1.94.22a115.52,115.52,0,0,0-.59,13.15c0,.86,1.94.46,1.94-.22A113.26,113.26,0,0,1,53.6,73.5l-1.94.22a47.39,47.39,0,0,1-2.34,15.65L51.26,89c-.63-6.22-1.64-12.38-1.75-18.64,0-.86-1.92-.47-1.93.22-.07,4-.32,8.46-2.86,11.75l1.87-.22c-2.47-5.87,1.76-15.59,5.19-20.36l-1.8.35c2,3.49.57,8.68-.47,12.29a21.85,21.85,0,0,1-1,2.79c-.32.71-1.56,3.53-1.57,1.5A34,34,0,0,1,47.58,73c1.33-7.73,5.63-20.21,13.6-23.39,1.25-.5.12-1.23-.78-.87Z"/><path class="cls-1" d="M46.5,87.46c-.5.62-5.5-1.1-6.65-1a9.13,9.13,0,0,0-5.18,1.82c-5.43,4-1.53,10.71,1.63,14.67,2.07,2.59,5,5.2,5.82,8.5a73.19,73.19,0,0,1,1.13,8.37c.52,3.78,1.46,9,6.28,8,.76-.15,1.71-1,.36-.71-4.66.93-4.89-9.16-5.2-11.85-.54-4.71-2-7.35-5-11a32.91,32.91,0,0,1-5.32-8.07c-2-4.66,1.6-9.76,7.38-8.53,2,.42,4.9,1.62,6.48-.33.39-.48-1.46-.21-1.75.15Z"/><path class="cls-1" d="M48.55,100.33c-6.08,3.75.5,13.8,1.94,18.62.17.55,2,.06,1.93-.52-.47-5-.28-10-1.76-14.88-.54-1.77-1.4-2.33-2.93-3.25-1.74-1.06-.61-3.76-2.37-5.13-.43-.33-1.83,0-1.87.61-.33,5.73,3.46,11,5.25,16.28.2.57,2.11,0,1.94-.52-1.8-5.24-5.59-10.54-5.26-16.27l-1.86.61c1.66,1.3,1,2.57,1.68,4.29s2.65,1.85,3.49,3.9c1.86,4.58,1.3,10.05,1.76,14.88l1.93-.52c-1.15-3.86-7.61-14.67-2.72-17.69,1.11-.68-.62-.74-1.15-.41Z"/><path class="cls-1" d="M155.86,82.62c13.33-8.81,5.93,15.25,5.37,19.76s.41,8.68-.91,13.06c-1,3.42-3.27,6.45-4.84,9.64-.25.51,1.64.31,1.93-.26,2.59-5.28,5.57-9.58,5.83-15.66.15-3.63-.3-7,.58-10.64.71-2.91,1.44-5.87,2.05-8.8.71-3.39.63-8.12-2.89-9.82-2.63-1.26-6.22.87-8.29,2.23-1.09.72.61.87,1.17.49Z"/><path class="cls-1" d="M154.89,89.36c-2.23,9.25-1.24,18.76-1.17,28.17,0,.93,1.95.58,1.95-.19a57.91,57.91,0,0,1,1.16-13.14l-1.94.18q-.82,6.9-1.75,13.78c-.13,1,1.73.49,1.94-.19a101.4,101.4,0,0,1,4-11.1l-1.89,0c-.3,3.61-2.07,6.57-3.44,9.85-.4,1,1.53.84,1.83.14,1.43-3.42,3.24-6.41,3.56-10.18.07-.9-1.64-.55-1.89,0a103.4,103.4,0,0,0-4.14,11.44l1.94-.19c.61-4.59,1.21-9.18,1.75-13.77.11-.93-1.77-.55-1.94.18a58.05,58.05,0,0,0-1.17,13.15l1.95-.19c-.07-9.41-1.06-18.91,1.16-28.17.21-.85-1.76-.58-1.94.19Z"/><path class="cls-1" d="M53.41,129c.42,4.06,2.8,7.68,3.87,11.6,1.43,5.27,2.68,10.58,3.71,15.94.08.4,2,0,1.93-.51-.92-4.77-2-9.48-3.24-14.18-1.16-4.47-3.86-8.8-4.34-13.37,0-.36-2,0-1.93.52Z"/><path class="cls-1" d="M90.74,82a85.28,85.28,0,0,1,1.16,44.81c-.09.4,1.8.12,1.91-.35,3.46-14.89,3.41-30.32-1.14-45-.13-.43-2.06.12-1.93.52Z"/><path class="cls-1" d="M114.42,99.22a15.66,15.66,0,0,0,5.91.07c3.33-.31,6.75.61,10.08.7.47,0,2.23-.86,1.23-.89-2.74-.07-5.43-.51-8.15-.71-2.48-.17-5.09.7-7.5,0-.49-.14-2.23.63-1.57.82Z"/><path class="cls-1" d="M116.15,104.82c6.92,3.63,12.63,3.72,18.5-1.71.85-.79-1.05-.9-1.57-.42-2.16,2-4.39,3.68-7.45,3.76-2.8.07-5.56-1.38-8-2.64-.63-.33-2.38.55-1.52,1Z"/><path class="cls-1" d="M115.09,97.56c.44-5.78,2.09-10.11,8.59-11,4.28-.6,6.44,2.53,7.69,6,.67,1.9.16,4,1.2,5.73.37.59,2.19-.09,1.93-.51-.87-1.43-.59-3.07-.91-4.7a12.78,12.78,0,0,0-2.38-5c-2.11-2.86-5.15-2.76-8.31-2.32-6.7.94-9.25,5.72-9.74,12.09,0,.7,1.88.3,1.93-.27Z"/><path class="cls-1" d="M113.88,98c1.16,3.62,7.08,3.19,10,2.92,3.12-.29,8.12-1.1,9.9-4.08.17-.29-1.62-.17-1.91.33-2.11,3.51-14.51,5.13-16.06.32-.16-.5-2.08.06-1.93.51Z"/><path class="cls-1" d="M117.88,91.7c2.6-2,5.41-3.85,8.87-3,2.31.56,4.11,2.67,5.46,4.45.36.47,2.07-.33,1.93-.52-2.36-3.11-5.08-5.19-9.1-4.93-3.31.21-6.35,2.23-8.91,4.16-.41.3,1.38.12,1.75-.15Z"/><path class="cls-1" d="M123.07,93.54a3.22,3.22,0,0,0-1.6,1.15c-.54.91.09,1.73.88,2.12a3.39,3.39,0,0,0,4.28-1c1-1.74-1.34-3.88-3-3.81-2.21.1-3.37,2.15-4,4-.06.17.08.33.21.41a5.44,5.44,0,0,0,5,.45,7.43,7.43,0,0,0,2.32-1.55c.73-.66.42-1.27,0-2-.63-1.13-2.14-1-3.16-.58a4.1,4.1,0,0,0-2.23,2.95c-.07.35.35.48.62.51.61.06,1.17.31,1.79.37.38,0,1.33-.2,1.33-.72,0-1.09-.76-1.45-1.65-1.88-.45-.22-1.69-.08-1.73.6-.07,1.35-1.08,3.79,1.11,3.88,2.38.1,3.22-2.75,1-3.74-.52-.23-1.58-.07-1.73.6s-.33,1.63.32,2a2.61,2.61,0,0,0,2.49-.18c1.22-.56.12-1.37-.8-1-.61.28-.12.19-.19-.13a2.72,2.72,0,0,1,.12-1l-1.73.61a1.59,1.59,0,0,1,.89.94c0,.07,0,.15.05.22-.09.25,0,.36.25.33a.87.87,0,0,1-.13-.5,13.28,13.28,0,0,1,.31-2.34l-1.72.61c.47.23,1.22.43,1.22,1.07l1.33-.71c-.62-.06-1.18-.31-1.8-.37l.62.51a2.88,2.88,0,0,1,1-1.7c.6-.47,1,.91,1.06,1.32l.18-.47c-1.4,1.37-2.8,1.93-4.56.82l.21.4a6.36,6.36,0,0,1,1.28-2.3c.8-.88,1.82,1,2,1.61.43,1.64-2.87.33-1-.58,1.2-.58.11-1.39-.81-.95Z"/><path class="cls-1" d="M83.57,99.76c-2.11.86-4.73.39-7,.69-2.75.36-5.41,1.22-8.16,1.58-.84.11-1.68,1-.33.85,3.34-.43,6.56-1.54,9.93-1.76,2.19-.14,4.18,0,6.25-.79,1.26-.51.08-.88-.71-.57Z"/><path class="cls-1" d="M81,106.33c-5.79,3.19-11.19,2.51-16.38-1.3-.57-.42-2.33.4-1.52,1,6.12,4.49,12.57,4.6,19.13,1,1.15-.63-.53-1.07-1.23-.69Z"/><path class="cls-1" d="M85.85,98.57C84.64,91.73,81.52,88,74.46,87.8c-2.76-.1-5.06.58-6.84,2.73a11.93,11.93,0,0,0-2.34,5c-.47,1.89.21,4.09-.63,5.83-.23.49,1.65.29,1.92-.28.87-1.78.3-3.87.63-5.83.82-4.86,4.57-6.94,9.37-6.29,5,.67,6.61,5.92,7.35,10.1.1.58,2,.12,1.93-.52Z"/><path class="cls-1" d="M83.22,99.07c-1,4.82-13.56,4.06-16.09.66-.3-.39-2.15.24-1.82.68,3,4,18.52,4.39,19.82-1.66.1-.51-1.8-.19-1.91.32Z"/><path class="cls-1" d="M82.35,92.91C75.53,88.82,68.88,89,64.5,96.23c-.13.22,1.62.13,1.91-.35,1.79-2.94,4.1-5.6,8.06-5a18,18,0,0,1,6.06,2.65c.47.28,2.06-.51,1.82-.66Z"/><path class="cls-1" d="M74.53,96.74c.51.18,1.53.79.57,1.29a.86.86,0,0,1-1.25-.66A2.18,2.18,0,0,1,74.19,96c.36-.7.8-.77,1.36-.39A5.6,5.6,0,0,1,77.19,98l.35-.62c-1.7,1.33-3.3.6-4.82-.61l.22.41a3.2,3.2,0,0,1,.36-1.21s.14,0,.4.13A3,3,0,0,1,75,97.82l.81-.82c-.61.12-1.14.43-1.75.56l1.12.3c-.06-.57.53-.77.93-1l-1.58-.1c.11.73.42,1.42.53,2.15a1.36,1.36,0,0,1,0,.45c0,.4.26-.12.15-.39a1.2,1.2,0,0,1,.61-1.34l-1.59-.1a5.66,5.66,0,0,1,.22.88c0,.1,0,.19,0,.29.49-.19.51-.32.05-.38-.7-.24-2.27.78-1.15,1.16a2.64,2.64,0,0,0,2.54-.21c.73-.59.54-1.46.29-2.25-.21-.63-1.21-.31-1.59-.1-1.88,1.08-1.72,4,.85,3.56s1.27-2.67,1-4.24c-.1-.64-1.28-.28-1.58-.09-.89.55-1.75,1.07-1.64,2.24,0,.45.86.35,1.12.3.61-.13,1.14-.43,1.75-.56.31-.06.95-.4.82-.82-.66-2.12-3.64-3.88-5.32-1.66A2.67,2.67,0,0,0,71,97.5c.17.63,1.63,1.24,2.18,1.45a5.54,5.54,0,0,0,5.59-.9c.15-.12.46-.37.35-.61-.79-1.72-2.05-3.56-4.17-3.32-1.73.2-3.65,2.38-2.91,4.16.64,1.53,2.95,1.17,4.09.57a1.77,1.77,0,0,0,1.19-2.14c-.14-.74-1-.92-1.63-1.13s-2.27.77-1.16,1.16Z"/><path class="cls-1" d="M107.65,116.54a24.11,24.11,0,0,0,2.6,7.89,20.7,20.7,0,0,0,2.08,2.61c1.48,1.83-.14,3.48-1.09,5-.58.9,1.39.94,1.85.23,1.3-2,2.55-3.76,1-6.06-1-1.44-2.11-2.37-2.75-4.07a32,32,0,0,1-1.77-6.09c-.15-.91-2.08-.42-1.93.52Z"/><path class="cls-1" d="M94.69,130.43a8.59,8.59,0,0,1,2.71.95c1.1.5,2.19,1,3.33,1.45l1.19-.84c-1.83.15-3.24-1.72-5.12-1.83-.22,0-2,.33-1.52.78a7.93,7.93,0,0,0,6.13,2.54,2,2,0,0,0,1.28-.49c.3-.32-.26-.41-.48-.39-2.12.15-3.58-2-5.7-2.13-.29,0-2.15.59-1.4.84,2,.63,3.6,2,5.62,2.43a2,2,0,0,0,1.35-.22c.16-.08.67-.49.22-.58-2-.44-3.67-1.81-5.62-2.44l-1.4.84a7.34,7.34,0,0,1,3.11,1.42,5.1,5.1,0,0,0,3,.72c.26-.3.53-.59.8-.88-1.94.18-3.79-1-5.12-2.35l-1.52.79c2.06.11,3.35,2,5.54,1.83.2,0,1.94-.58,1.19-.85-2.06-.74-4.17-2.33-6.38-2.47a2.2,2.2,0,0,0-1.37.37c-.3.21-.25.48.14.51Z"/><path class="cls-1" d="M107,132.67a10.45,10.45,0,0,1,3.17-2.48c.88-.39.57-1.18-.31-1.15-2.27.06-4.93,1.39-5.75,3.61-.21.56.34.75.81.73,2-.12,3.4-1.54,4.87-2.7.65-.52.21-1.1-.52-1a4.78,4.78,0,0,0-2,.75c-1.16.63-.11,1.52.82,1a2.86,2.86,0,0,1,1-.47l-.52-1c-1,.76-2.11,2.1-3.41,2.18l.81.72a4,4,0,0,1,3.71-2.48c-.1-.38-.2-.77-.31-1.15a12.93,12.93,0,0,0-3.93,3,.48.48,0,0,0,.23.84,1.42,1.42,0,0,0,1.36-.36Z"/><path class="cls-1" d="M103.13,145.12c-4.08-4.44-9.95-6.73-15.82-4.79-3,1-5.72,3.2-8.4,4.82-4.37,2.63-9.74,3.14-14.72,3.24-19,.4-40.22-13.31-43.45-32.82-.16-.94-2.1-.45-1.94.51,2.66,16,16.78,27.2,31.5,31.78a45.77,45.77,0,0,0,23.94.73,25.93,25.93,0,0,0,8.08-3.81,29.85,29.85,0,0,1,6.59-3.47c4.49-1.48,9.54,1.51,12.46,4.68.62.67,2.44-.13,1.76-.87Z"/><path class="cls-1" d="M102.24,143.32c-5.57-6.45-11.24-11.09-19.43-6-2.39,1.48-4.45,3.66-6.61,5.43-3.06,2.48-6.76,3.56-10.55,4.3-6.27,1.2-13.74,1.15-19.31-2.31-.5-.31-2.16.47-1.82.68,7.2,4.47,16.93,3.6,24.78,1.54A24,24,0,0,0,79,141.85c4.17-3.58,8.88-8,14.89-4.51,2.65,1.54,4.62,4.4,6.58,6.67.35.4,2.18-.27,1.82-.69Z"/><path class="cls-1" d="M76.08,146a89.65,89.65,0,0,0,8.46-4.84c1.12-.73-.54-1.16-1.24-.74l-.65.22c-.75.06-1.67,1.23-.46,1.26,2.35.06,3.79-.94,5.27-2.77.34-.42.09-.83-.44-.85-3.19-.13-5.91,2.2-8.31,4-.84.65.08,1.1.78,1,4.89-1,8.64-5,13.94-3.76.3-.41.61-.82.92-1.22a24.33,24.33,0,0,1-5.28-.91c-.22.41-.45.81-.68,1.22,2.23-.12,3.87.78,5.77,1.78.48.25,2.32-.32,1.64-.92a38,38,0,0,0-4.71-3.42l-1.51,1c2.12,1.17,4.38,2,6.41,3.31l1.33-1.11c-3.63-1.09-6.93-2.63-10.76-2.87-.4,0-2,.71-1.11,1.15A10,10,0,0,0,90,138.64c.46,0,1.94-.57,1.11-1.15-3.26-2.28-7,0-9.34,2.65-.47.54.14.91.69.85a8,8,0,0,0,4.39-1.67c.64-.48.22-1.12-.51-1-5.65.9-8.86,5.32-13.81,7.69-1,.5-.36,1.29.57,1.07,8.27-2,15.19-8.13,24-4.71.72.28,2.26-.75,1.15-1.18-9.49-3.69-16.5,2.59-25.47,4.73l.56,1.07c4.46-2.14,7.67-6.6,12.77-7.41l-.51-1-2.94,1.16.69.85q2-2.82,6.24-2.07l1.11-1.15L87,136.54l-1.1,1.15c3.7.24,6.82,1.75,10.31,2.79.53.16,2.22-.53,1.33-1.1-2-1.33-4.29-2.15-6.41-3.31-.62-.34-2.4.46-1.51,1A36.26,36.26,0,0,1,94,140.3l1.64-.92c-2.36-1.24-4.38-2.15-7.06-2-.54,0-1.72,1-.68,1.22a33.87,33.87,0,0,0,5.72,1c.6,0,2-1,.92-1.23-6.11-1.4-9.69,2.58-15.39,3.79l.78,1c.55-.42,1.1-.84,1.66-1.25l1-.69c2.36-1.28,2.45-1.44.3-.47-.16.42-.31.83-.46,1.25a3.86,3.86,0,0,0,2.1-.73l-1.24-.74a86.42,86.42,0,0,1-8,4.6c-1.18.61-.1,1.46.82,1Z"/><path class="cls-1" d="M104.05,144.73c5.3-5.76,11.69-5.61,17.87-1.72,3,1.87,5.73,3.68,9.19,4.49a47.59,47.59,0,0,0,25.32-1.26c14.29-4.44,27.74-16.33,30.27-31.61.17-1-1.81-.78-2,.13-3.31,20-24.38,32.16-43.28,32.5a29.42,29.42,0,0,1-15.75-3.92c-2.78-1.67-5.28-3.5-8.39-4.53-5.35-1.76-11.37,1.48-14.89,5.3-.84.91,1,1.29,1.62.62Z"/><path class="cls-1" d="M105,142.49c2.92-3.39,5.94-7.84,11.18-7.77,3.56.05,6.71,3.29,9.2,5.45a27,27,0,0,0,12.52,6.31c7.38,1.66,16.26,1.63,22.87-2.46.84-.53-1.11-.38-1.5-.13-6.4,4-15.28,3-22.24,1.19-5.85-1.53-9.52-5.75-14.24-9.17-7.79-5.65-14.62,1-19.55,6.67-.45.52,1.43.29,1.76-.09Z"/><path class="cls-1" d="M130.57,143.91a91,91,0,0,1-8.25-4.72l-1.51,1a2.91,2.91,0,0,0,1.78.59l.46-1.26a3.69,3.69,0,0,1-3.34-2.14c-.33.35-.66.69-1,1,2.39-.09,4.93,2.32,6.68,3.67l1.33-1.11c-5.74-1.23-9.26-5.17-15.39-3.76-1,.22-1.07,1.29,0,1.2a33.21,33.21,0,0,0,5.76-1c.69-.17,1.26-1.15.2-1.21-2.73-.15-4.76.76-7.17,2l1.2.72a34.09,34.09,0,0,1,4.41-3.16c1-.65-.34-1.24-1-.86-2.2,1.2-4.53,2.05-6.63,3.42-.88.58.09,1.15.77,1,3.46-1,6.62-2.55,10.28-2.78l-.3-1.12a6.12,6.12,0,0,1-3.61.8c.17.34.34.67.52,1,2.33-1.62,5,.9,6.27,2.4l1.25-1L120,137.3l-1.11,1.15c5.21.83,8.34,5.25,12.89,7.43l1.33-1.11c-9.16-2.18-16.06-8.37-25.72-4.61-1.25.48-.13,1.34.81,1,8.65-3.36,15.64,2.88,23.76,4.82.51.12,2.27-.66,1.33-1.11-4.87-2.33-8.13-6.78-13.69-7.66-.52-.09-1.87.57-1.11,1.14a7.33,7.33,0,0,0,4.07,1.53c.4,0,1.77-.42,1.24-1-2.42-2.82-6-4.64-9.3-2.33-.73.51-.15,1,.52,1a9.86,9.86,0,0,0,4.63-1.08c.84-.4.62-1.18-.29-1.12-3.86.25-7.15,1.79-10.81,2.88l.78.95c2-1.28,4.16-2.06,6.2-3.18-.34-.29-.68-.58-1-.86a38.28,38.28,0,0,0-4.75,3.44c-.79.71.72,1,1.2.72,1.85-1,3.36-1.87,5.65-1.75.07-.4.14-.8.2-1.21a23.19,23.19,0,0,1-5.23.9c0,.4,0,.8,0,1.21,5.3-1.22,9.06,2.74,13.94,3.78.52.12,2.19-.44,1.33-1.1-2.34-1.79-4.89-4-8-3.89-.39,0-1.43.49-1,1,1.41,1.74,2.7,2.64,4.91,2.58.78,0,1.65-1.15.46-1.26l-1-.35c-.62-.38-2.38.46-1.51,1a91,91,0,0,0,8.25,4.72c.66.34,2.4-.57,1.51-1Z"/><path class="cls-1" d="M112.5,76.18c2.59-.89,5-2.23,6.25-4.79.25-.55-.38-.85-.84-.8-2.19.22-3.36.92-3.81,3.13-.1.49.55.63.89.62a4.85,4.85,0,0,0,3.47-1.21c.68-.55.18-1.14-.55-1.13a16.57,16.57,0,0,0-4.1.52c-.31.08-1,.35-1,.73v.47c0,.48.65.66,1.07.62,5.81-.5,12.14-4.93,17.61-.46a15.68,15.68,0,0,0,5.33,3.25c2.24.67,3.29-.32,4.83,2.6.4.75,2.25,0,1.78-.85-.67-1.27-2.16-3.72-4-3.57-4,.31-4.27-1.86-7.32-3.25-1.88-.86-6.69-2.56-8.52-1.9s-3.69,1.38-5.55,2c-2.6.88-3.78,1.26-.32,1.22-.19-.38-.37-.76-.55-1.13l.55-.29-.84-.8a7.42,7.42,0,0,1-4.75,3.7c-1.15.4-.82,1.71.35,1.3Z"/><path class="cls-1" d="M136.24,73.74c2,.09,3.46,1.46,5,2.65l1.67-.87c-1.8-.71-3.37-2.46-4.88-3.63a5.9,5.9,0,0,0-2-1.25c-.56-.12-1.66,0-1.77.76s1.82.46,1.94-.23c-.23,1.4-2.08.13-1.07.73a10.45,10.45,0,0,1,.87.61c.65.49,1.29,1,1.92,1.53a14.62,14.62,0,0,0,3.42,2.44c.4.16,2.31-.35,1.66-.86-1.88-1.47-3.55-2.92-6-3-.76,0-2,1.09-.74,1.14Z"/><path class="cls-1" d="M65.91,79.35A15.46,15.46,0,0,0,73,76.51c.65-.44,1.32-.85,2-1.25,3.45-2.11,4.39-.92,6.51.89a5.64,5.64,0,0,0,2.74,1.31c.42.08,1.46-.1,1.56-.64a3.17,3.17,0,0,0,0-2l-1.34.79c1.09.13,2.18.32,3.27.45.38-.33.77-.93,1.15-.93H87.05c-.7,0-2.07,1-.76,1h1.83c.28,0,2-.74,1.15-1a13.36,13.36,0,0,0-4.08-.56c-.37,0-1.37.21-1.37.78v1.75a5.34,5.34,0,0,0,1.59-.63c-3.43-.66-4.13-3.58-7.89-3.21-4.25.43-7,4.69-11.34,5.09-.93.08-1.61,1.15-.27,1Z"/><path class="cls-1" d="M62,76.82a16,16,0,0,0-5.42,4.54c-.5.7.33,1.23,1,1a21.9,21.9,0,0,0,4.58-2.12c1.06-.67-.34-1.36-1.08-1.06a4.2,4.2,0,0,1-1.78.33L59.1,81c3.37-.18,5.75-2.72,9-3.34,1.22-.24.83-1.62-.37-1.38-3,.58-5.37,3.09-8.45,3.25-1.11.07-1.47,1.5-.15,1.47a7.34,7.34,0,0,0,2.8-.61l-1.08-1.06A16.53,16.53,0,0,1,57.16,81c.33.34.66.67,1,1a13.78,13.78,0,0,1,4.66-4c1.15-.63.11-1.74-.87-1.2Z"/><path class="cls-1" d="M68.93,66.34c9.41-5.37,20.7-.48,30.84-3.62A49.09,49.09,0,0,1,116.07,60c4.32.08,9.87-1.32,13.68,1.27.54.36,2.28-.41,1.81-.73-3-2-7-1.8-10.43-1.71-5.23.14-10.14,0-15.27,1.05-3.7.76-7.15,2.39-10.86,3.14-4.12.83-8.6,0-12.74-.32a24.71,24.71,0,0,0-14.51,3.15c-1.13.64.6.82,1.18.49Z"/><path class="cls-1" d="M85,57.26a73,73,0,0,1,19.54-2c6.52.13,13.18-.39,19.59,1,.76.17,2.29-1,1.14-1.21-7-1.57-14.38-1-21.54-1.16a71.57,71.57,0,0,0-19.06,2.11c-1.18.3-.86,1.5.33,1.2Z"/><path class="cls-1" d="M108.37,49.26a6.73,6.73,0,0,1,3.85,0c.78.25,2.28-.88,1.13-1.25A9.68,9.68,0,0,0,108,48c-1.2.3-.86,1.54.33,1.25Z"/><path class="cls-1" d="M130.09,107.32a14.89,14.89,0,0,0,6.48-1.55c1.18-.6.11-1.49-.83-1A12.22,12.22,0,0,1,130.3,106c-1.06,0-1.52,1.31-.21,1.29Z"/><path class="cls-1" d="M133.54,108.82a2.65,2.65,0,0,1,1.31-.21,1.73,1.73,0,0,0,1.28-.52c.28-.37-.23-.52-.51-.52a6.84,6.84,0,0,0-3.26.74c-.26.12-.6.52-.19.7a1.74,1.74,0,0,0,1.37-.19Z"/><path class="cls-1" d="M136.54,108.38c1.14,0,1.45-1.52.14-1.52-1.14,0-1.45,1.52-.14,1.52Z"/><path class="cls-1" d="M63.65,111.08a24,24,0,0,1,4.86,1.8,1.33,1.33,0,0,0,1.38-.13c.28-.2.55-.74.11-1a25.7,25.7,0,0,0-5.22-2,1.39,1.39,0,0,0-1.37.36.53.53,0,0,0,.24.9Z"/><path class="cls-1" d="M64.29,113.32c.67,0,2.07-1,.77-1-.67,0-2.07,1-.77,1Z"/><path class="cls-1" d="M63.83,113a2.85,2.85,0,0,0-.86.21,3.51,3.51,0,0,1-.51.26c-.66.08-1.45.71-.82,1.34a12.86,12.86,0,0,0,3.4,2c.85.43,2.21-.81,1.1-1.37a11.21,11.21,0,0,1-3-1.79L62.31,115a3.18,3.18,0,0,0,.86-.21,2.46,2.46,0,0,1,.51-.26c.45-.06,1-.31,1.06-.82s-.5-.74-.91-.69Z"/><path class="cls-1" d="M124.61,78.23c5-2,10.43,3,12.87,7,.36.59,2.19-.1,1.93-.52-3.2-5.19-9.3-9.66-15.53-7.16-1.27.51-.1,1,.73.68Z"/><path class="cls-1" d="M132,78.15a14.46,14.46,0,0,1,2.29,4.25c.12.46,2.06-.06,1.93-.52a14.23,14.23,0,0,0-2.29-4.25c-.32-.49-2.1.26-1.93.52Z"/><path class="cls-1" d="M135.79,80.83c.76,0,2-1.16.73-1.16-.77,0-2,1.16-.73,1.16Z"/><path class="cls-1" d="M58.77,92.39a20.86,20.86,0,0,1,3.59-5.06c.33-.35-.28-.52-.51-.52a1.79,1.79,0,0,0-1.28.51,22,22,0,0,0-3.73,5.33c-.26.52,1.63.33,1.93-.26Z"/><path class="cls-1" d="M57.84,89.52a6.67,6.67,0,0,1,.84-1.79c.28-.32-.26-.33-.46-.32a2.2,2.2,0,0,0-1.29.46,7.29,7.29,0,0,0-1,2c-.15.32.68.2.78.18.31-.05,1-.19,1.13-.52Z"/><path class="cls-1" d="M61.11,87c.83,0,2-1.26.71-1.26-.83,0-2,1.26-.71,1.26Z"/><path class="cls-1" d="M132.64,37.19c-2.06,1.46,4.52,9,5.39,10.16,5.58,7.52,10.26,15.63,15.55,23.35l1.8-.72c-3.15-2-4.46-5.31-6.73-8.15-2.77-3.45-5.64-6.82-8.43-10.25-3.92-4.82-7.33-11.18-12.91-14.24l-1.38.93c4.52.8,6.95,5.55,9.17,9.1,1.29,2.05,3.22,6,5.88,6.42,4.48.7,3.91-7.11,3.93-9.66l-1.87.62c4,2.47,4.05,9.93,5,14,.14.63,1.92.1,1.93-.52.2-8.59-2.58-16.47-6.42-24.06l-1.93.52c2.52,4.21,5.3,8.25,7.54,12.62,2.08,4.07,2.91,8.57,5.36,12.49.28.46,2.11-.14,1.86-.62-3.83-7.53-7.08-16-7.33-24.54l-1.93.52c5.61,11,7.5,22.66,7.56,34.92,0,.52,2.16.17,2.16-.52v-16c0-.55-2.06-.13-2.15.39-1,5.4-2.21,10.65-2,16.17,0,.59,1.75.08,1.87-.4,1.15-4.29.95-8.45.9-12.86,0-.58-1.81-.08-1.94.39-1.77,6-.67,12.36-.56,18.53,0,.53,1.84.17,1.84-.52V58.76c0,.17-1.2.34-1.84.51.09,5.68.86,11.32,1,17l2-.52c-.14-3.32-.77-6.58-.91-9.91l-1.93.52c1.64,3.48,1.89,7.08,2.3,10.86.06.56,2,.15,1.93-.52-.41-3.78-.65-7.38-2.29-10.86-.28-.59-2-.12-1.93.52.14,3.33.78,6.59.91,9.91,0,.54,1.95.16,1.94-.52-.1-5.67-.94-11.31-1-17,0-.53-2.05-.17-2.05.51V75.79a16.6,16.6,0,0,0,2.05-.52c-.1-6.08-1.23-12.33.52-18.28l-1.9.4c0,4.28.21,8.44-.9,12.62l1.93-.4c-.25-5.45,1-10.6,2-15.92a7,7,0,0,0-1.73.39v16c0-.17,1.1-.35,1.74-.52-.06-12.25-1.82-23.89-7.43-34.92-.3-.58-2-.12-2,.52.25,8.53,3.48,17,7.31,24.54l1.85-.63c-2.39-3.83-3.34-8.21-5.23-12.27C149,42.42,146,38.4,143.54,34.22c-.34-.57-2.19,0-1.94.52,3.84,7.58,6.62,15.46,6.42,24.06l1.93-.52c-.95-4.23-1-11.69-5.11-14.26-.46-.29-1.86-.08-1.86.63a27.43,27.43,0,0,1-.72,7.17c-.55,2-4.94-4.52-5.35-5.18-2.45-3.86-4.89-8.47-9.78-9.34-.36-.07-2.17.48-1.38.92,5.85,3.2,9.71,10.45,13.83,15.51,2.41,3,4.86,5.87,7.27,8.82s3.48,6.06,6.73,8.15c.42.27,2.25-.06,1.8-.72-.7-1-21.83-32.11-21.21-32.55.86-.61-1.09-.55-1.53-.24Z"/><path class="cls-1" d="M120.59,26.81c4.93,4.19,9.73,8.55,14.66,12.74.39.34,2.21-.16,1.81-.7C130.87,30.5,121,25.74,115.58,16.76l-1.74.68c5.45,1.86,9.55,6,14.08,9.37,3.67,2.74,8.18,3.58,11.45,7.08l1.81-.71c-6.36-5.58-12.81-11-18.33-17.46l-1.8.71c7.35,4.38,14,9.73,20.62,15.1.39.32,2.22-.19,1.8-.71C138.79,25.06,126.74,12,118,17.29c-5.63,3.41-1.08,6.37,3.6,7.44s10.83,1.22,15.1-1.37c.12-.07.59-.37.33-.56-3.76-2.74-8.2-2.53-12.67-2.93-5.86-.54-11.59-1.25-17.51-.88-8.94.56-18.48,1.64-26,6.9-.3.21-.24.54.15.55,10.07.43,20.48-.36,29.83-4.39.32-.14,1-.69.25-.77-9.65-1-23,.64-30.36,7.56a.23.23,0,0,0,.11.4c4.72,1.34,9.71-.55,14.07-2.32,7.5-3,14.79-6.71,22.11-10.17.6-.28.38-.65-.18-.67-5.29-.21-10.29,1.2-15.26,2.88C94.74,21.28,88,23.31,81.27,26.15c-.57.24-.88.75,0,.77,11,.29,22.74-4.41,31.85-10.28.34-.21.22-.51-.14-.55-7.84-.81-15.09,2.82-22.58,4.5C85.12,21.76,77,22.31,73.87,27.43c-.11.17-.12.31.1.39,7.89,3,16.07.3,23.77-2,5.17-1.53,12.47-3.2,15.09-8.48.07-.15-.08-.23-.18-.28-7.18-3.89-17.25,1.41-24.33,3.25C81.75,22,70.37,23.54,66.92,30.38a.18.18,0,0,0,.06.21c7.72,4.37,18.47.91,26.34-1.36,10.3-3,21.73-4,30.76-10.23.21-.14.32-.4,0-.51-6-2.32-19.1-1.42-23.67,3.75-.08.09-.13.23,0,.32,4.12,3.21,9.86,2.84,14.81,2.64,6.59-.26,13.31.87,19.84-.19.2,0,1.47-.39,1.06-.79-4.2-4.16-11.31-3.82-16.76-4.62-4.39-.65-9.83-1.5-13.77,1.1-.16.11-.28.28-.14.45,3.81,4.86,10.79,6.16,16.53,7.28,6.7,1.3,14,2.87,20.67.78.19-.06,1.15-.4.8-.75-3.22-3.24-7.85-4.24-12.11-5.47-5.42-1.56-10.25-4.42-15.5-6.39l-1.39.88c4,.3,7.46,2.44,11,4.18,4.21,2.11,9,2.6,13.16,4.75l1.18-.89c-6.9.6-15.53-7.66-18.22-13.48l-1.87.62c7.12,5.71,11.15,14,16.5,21.23.29.39,2.08-.14,1.87-.61-3.09-7-7.48-13.51-8.71-21.24l-1.87.62c7.38,9.38,10.73,21,16,31.52.26.53,2.11,0,1.93-.52-2.85-8.39-7.23-16.15-10.08-24.54l-1.93.52c3.72,6.13,5.37,13.13,7.78,19.82,1.93,5.33,2.56,11.15,6.94,15.19.33.3,1.83,0,1.86-.5.68-9.61-3.64-18.84-7.32-27.48l-1.93.52c5.3,10.22,4.7,22.2,9.62,32.56.27.56,1.9.06,1.93-.52.6-10.84-6.32-20.69-10.54-30.2l-1.93.52c5.35,9.75,5.57,21.24,10.54,31.14.27.53,2.12,0,1.93-.52a97.91,97.91,0,0,0-25.72-38.31c-.33-.3-2.07.06-1.87.61a61.87,61.87,0,0,0,9.12,15.94c3,3.9,7.19,8.56,12.53,8.33.17,0,1.62-.31,1.36-.72C143.39,39.24,135.53,35.5,129,31.21c-4.78-3.15-10.31-8.64-16.55-7.56-.19,0-1.3.31-1.12.71,4.5,10,19.32,9.69,28.52,9.17.22,0,2-.6,1.18-.89-7.16-2.6-14.87-3.33-22.3-4.84-5.59-1.14-10.92-2.16-16.41-.23-.25.08-.94.49-.43.72,5.16,2.32,11.66,1.3,17,.39s11.09-2.4,15.67-5.43c.21-.14.32-.41,0-.52-7-2.62-15.45-1.64-22.69-.31-6.35,1.17-13.55,2.1-18.71,6.3-.15.13-.36.44,0,.52,6,1.35,11.8.42,17.72-.85C117.6,27,124.61,26.32,131,23.93c.37-.14,1-.64.25-.76-6.92-1.18-13.8.88-20.47,2.58C103.53,27.59,96.4,28.13,90,32.5c-.18.12-.34.43,0,.51,5.17,1.32,10.28.28,15.32-1.14,6.82-1.93,14-4,20.41-7.09.56-.28.41-.7-.18-.68-7,.23-14.16,2.09-21,3.61-5,1.11-10.06,2.56-13.73,6.32-.16.17-.06.31.11.4,4.31,2.15,9.25.84,13.64-.43,7-2,13.71-4.66,20.49-7.24.53-.2.9-.85,0-.77A101.84,101.84,0,0,0,87.46,36.63c-.77.41-.14.71.43.65,6.32-.69,11.92-3.49,17.68-6,4.91-2.15,10.73-3.47,14.85-7.08.55-.49-.21-.57-.61-.54-8.12.77-16,2.88-23.82,5-1.81.49-3.62,1-5.44,1.43-1.4.36-7.42,1.89-2.66-.79,3.81-2.14,8.77-2.46,13-2.84.6-.05,2.08-1.05.8-.93-6.65.59-14.44,1.34-19.16,6.63-.38.43.52.46.73.41,6.8-1.4,13.47-3.32,20.19-5.06a119.13,119.13,0,0,1,12.43-2.57c2.17-.32,3.22-.72.28,1a47.16,47.16,0,0,1-6.15,2.66c-6.66,2.63-13.17,6.36-20.27,7.67,2.71-.5,5.93-2.49,8.71-3.52A103.93,103.93,0,0,1,111,29.05a101.25,101.25,0,0,1,10.67-1.85c3.15-.4-2,.79-2.44.94-1.74.69-3.5,1.35-5.26,2-3.13,1.15-6.37,2.09-9.56,3.08a41.62,41.62,0,0,1-5.16,1.23,10.64,10.64,0,0,1-5.68-.35,3.56,3.56,0,0,1,2.76-2.89c5.49-3.09,12.7-3.49,18.79-4.82a62.18,62.18,0,0,1,8-1.3c-1.65.15-4.59,1.67-6,2.12-3.53,1.1-7,2.31-10.54,3.45a34.13,34.13,0,0,1-12.45,2l-.21-1.45a29.05,29.05,0,0,1,5.31-2.14,54.15,54.15,0,0,1,5.88-1.43c6.87-1.38,13.8-3.6,20.81-3.94,5.84-.28,1.54.57.26.89-2,.51-4,.79-6,1.11-2.61.43-5.18.94-7.76,1.53-4.8,1.11-9.53,2-14.48,1.71-5.48-.34.53-2.28,1.66-2.73a41.41,41.41,0,0,1,6.29-1.79,86.45,86.45,0,0,1,18.05-2.29c.75,0,10.66.31,7.18,2.1a40.85,40.85,0,0,1-9.49,3.09c-5.43,1.26-12,2.27-17.37.44.9.3,6.6-.28,8.67,0,1.57.23,3.13.59,4.68.91,3.91.81,7.85,1.5,11.79,2.18a58.33,58.33,0,0,1,10.17,2.59l1.17-.88c-8.84.49-23.06.84-27.38-8.76l-1.12.7c6-1,13.08,6,17.73,9.12,5.61,3.77,12.11,7,15.83,12.87l1.36-.72c-5.57.23-10.1-6.11-13-10.09A57.35,57.35,0,0,1,126.58,22l-1.87.61a97.36,97.36,0,0,1,25.6,38.13l1.93-.52c-5-9.89-5.19-21.39-10.54-31.14-.29-.54-2.14,0-1.93.52,4.22,9.51,11.14,19.36,10.54,30.2l1.93-.52c-4.92-10.36-4.32-22.33-9.62-32.56-.28-.54-2.14,0-1.93.52,3.63,8.53,8,17.75,7.34,27.25l1.86-.5c-4.6-4.24-5.27-10.74-7.3-16.34-2.26-6.27-3.81-12.73-7.3-18.48-.3-.49-2.12,0-1.93.52,2.85,8.39,7.22,16.14,10.08,24.54l1.93-.52C140.09,33,136.69,21.39,129.27,12c-.31-.39-2,.06-1.87.61,1.23,7.73,5.62,14.18,8.7,21.23l1.87-.61C132.63,26,128.59,17.66,121.48,12c-.33-.27-2.11.08-1.87.61,2.94,6.38,11.79,14.55,19.35,13.89.25,0,1.94-.5,1.18-.88-4.19-2.15-8.9-2.74-13.16-4.75-3.68-1.74-7.15-3.94-11.29-4.26-.3,0-2.19.58-1.4.88,4.84,1.81,9.32,4.39,14.23,6,4.55,1.5,9.63,2.18,13.15,5.72l.79-.74c-5.55,1.74-11.56.49-17.15-.54-5.12-.95-10.27-1.95-14.84-4.56A11.94,11.94,0,0,1,108.66,22c-2.76-2.22,3.77-2,4.68-2a61.79,61.79,0,0,1,6.63.79c4.83.73,10.64.46,14.36,4.14l1.06-.79c-6,1-12.09-.19-18.13.08a64.33,64.33,0,0,1-8.89-.05,13.19,13.19,0,0,1-5.3-1.65c-1.78-1,3.86-2.73,4.37-2.86a38.62,38.62,0,0,1,8.56-1.1,33,33,0,0,1,3.85.14c1.75.16,3.25-.1.49,1.56-6.5,3.93-13.91,4.14-21,6.29-5,1.52-9.94,3.07-15,4.12a38.89,38.89,0,0,1-9.8.87,16,16,0,0,1-4.11-.83c-3.4-1.12,2.06-4.2,2.65-4.53,4.41-2.53,9.71-3.62,14.6-4.86s9.44-3,14.31-4c1.22-.26,10.45-1.57,8,1.77-1.81,2.52-5.61,3.68-8.38,4.68-6.89,2.46-14.54,4.93-21.9,4.33-7.68-.62,0-4.09,2.83-4.93,2.27-.68,4.63-1.1,7-1.59,6.55-1.38,12.8-4.25,19.54-4.72,2.09-.15-2,2.22-1.9,2.16-1.67.89-3.41,1.65-5.16,2.4a71.61,71.61,0,0,1-9.91,3.32,48.41,48.41,0,0,1-5.34,1c.78-.12-4.59.91-3.11.28a115.8,115.8,0,0,1,13.71-4.9c3.19-.9,6.29-2.09,9.49-3A32.63,32.63,0,0,1,114.52,17a22.58,22.58,0,0,0-3.28,1.61c-6,2.87-12.12,5.75-18.28,8.25a33.28,33.28,0,0,1-5.79,1.74c-2.12.44-4.69-.17-1.62-2a32.41,32.41,0,0,1,9.09-3.22,54.34,54.34,0,0,1,10-1.3,38.38,38.38,0,0,1,4.29.06c-.39,0-4.32,1.33-4.11,1.27a58.68,58.68,0,0,1-12,2c-1.58.14-3.16.18-4.74.23.05,0-4.76-.2-3.55-.93,6.24-3.76,14.47-4.28,21.57-4.76s14.26.71,21.41,1.17a21,21,0,0,1,5.49,1l-.69,2a22.27,22.27,0,0,1-3.56.25A22.15,22.15,0,0,1,120,22.85L118,21.73q-3.67-3.43,4.36-4.4a13,13,0,0,1,3.73,1.17,30.42,30.42,0,0,1,6.78,4.34,55.38,55.38,0,0,1,8.76,8.69l1.8-.71c-6.63-5.37-13.26-10.72-20.62-15.1-.39-.23-2.26.17-1.8.71,5.51,6.45,12,11.88,18.32,17.46.42.36,2.23-.26,1.81-.71-3.62-3.86-8.58-4.93-12.7-8s-8-6.84-13.08-8.57c-.26-.09-2.05.18-1.75.68,5.47,9,15.37,13.86,21.6,22.27l1.81-.7c-4.94-4.2-9.73-8.55-14.66-12.75-.46-.38-2.23.36-1.81.71Z"/></svg>