<svg id="layer1" xmlns="http://www.w3.org/2000/svg" viewBox="0 0 358.93 218.63"><defs><style>.cls-1{fill:#24eaa2;}.cls-2{fill:#1db8bc;}.cls-3{fill:#2246ba;}.cls-4{fill:#543f0c;}.cls-5{fill:#ffb000;}.cls-6{fill:#492d0c;}</style></defs><path class="cls-1" d="M62.36,147.73A16.26,16.26,0,0,0,60.27,149,.79.79,0,0,0,60,149a72.63,72.63,0,0,0-7.62,1.46,1.19,1.19,0,0,0-.78-.15,10.16,10.16,0,0,0-1.26.54,47.59,47.59,0,0,0-5.61.2.93.93,0,0,0-.74-.11l-.72.31a21.09,21.09,0,0,0-3.73,1,3.56,3.56,0,0,0,.39.45c-1.82.71-3.65,1.38-5.46,2.09,0,0,.5.58,1.15,1.25-.14.21-.27.43-.4.67l-.43.35a2.8,2.8,0,0,0-.28.06,5.28,5.28,0,0,0-.87.36c-2.33-.31-4.38,1-5.35,4.63a9.78,9.78,0,0,0,2.65,9.57l0,.33a12,12,0,0,1-.31,1.18c-.14.44.79,1.39,1.8,2.13,4.53,4.84,18,4.24,22.92,4.19.53,0-.54-1.05-.59-1.11-.49-.51-1-1-1.51-1.41l1.47,0s0,0-.07-.1c.43.05.87.09,1.34.1-.11,0-2.31-3.16-3.64-3.18l-.59,0c-.23-.25-.48-.5-.73-.74a12.8,12.8,0,0,1,1.73.31,15.59,15.59,0,0,0,3.37,2.17c0-.15-.22-.3-.26-.45s0-.07,0-.18v-.64a1.16,1.16,0,0,0-.3-.85c0-.11,0-.35,0-.47a3.5,3.5,0,0,0,1.7.62h.63s.1.1.14.09a53.65,53.65,0,0,0,0-9.14,22.87,22.87,0,0,1,8.23-13.61C66.53,150.6,63.24,147.29,62.36,147.73ZM41,176.44a23.22,23.22,0,0,1-5-.66,19.39,19.39,0,0,1,3.33-.59,2.24,2.24,0,0,0,.82.43c.4.08.8.12,1.2.18a20.79,20.79,0,0,0,2.61.66C42.94,176.48,42,176.48,41,176.44Z"/><path class="cls-1" d="M137.79,148.28a2.23,2.23,0,0,0-1.66-1.4,4.06,4.06,0,0,0-3.9,1.08l-.4-.21c.13-.49.25-1,.36-1.48.35-1.57-2-2-3-2a11.83,11.83,0,0,0-6.57,2.1,2.63,2.63,0,0,0-1-.22c-4.86,0-6.14,4.92-7.37,9a21.32,21.32,0,0,0-.55,11.65,2.33,2.33,0,0,0-.93.82,12.27,12.27,0,0,0-1.25,2.68c-1.29.12-2.47.81-2,2.11,2,5.36,7.12,8.29,10.88,2.51a40.53,40.53,0,0,0,4.2-9.3c3.69-2.66,5.51-7.24,7.27-11.4a2.28,2.28,0,0,0,1.85-.75c.2-.26.39-.54.59-.83a4.6,4.6,0,0,1,.38-.39c1.39.34,3.13-.15,3.24-1.59A6.33,6.33,0,0,0,137.79,148.28Zm-13,4.58c-.1.19-.2.38-.31.57a2.21,2.21,0,0,0-.56.38c0-.38,0-.77,0-1.15C124.22,152.74,124.51,152.8,124.79,152.86Z"/><path class="cls-1" d="M131.53,102.36a2.09,2.09,0,0,0,0-.25c0-1.43-2.55-1.6-3.54-1.59-.48,0-1,0-1.44,0a4.26,4.26,0,0,0-1.71-.67c-3.56-1.86-8.06-1.73-12-.55-.5.15-.74.33-.81.52a1.87,1.87,0,0,0-1.18.49c-.07.07-.12.15-.19.23a4.94,4.94,0,0,0-.67,0c-1-.14-2.41-.19-2.45.67a14.12,14.12,0,0,0,.09,2.44c-.7,5.13,6,12.21,9.38,14.32a3,3,0,0,0,.46.21,22.15,22.15,0,0,0,4.45,3.22c.77.42,3.51,1,3.87-.29,0-.17.08-.34.12-.51,1,.1,2.1-.12,2.42-.76a22.57,22.57,0,0,0,2.08-6.4.68.68,0,0,0,.46-.58,57.47,57.47,0,0,1,1.27-9.52C132.24,103,132,102.64,131.53,102.36Z"/><path class="cls-1" d="M213.37,114.29a18.2,18.2,0,0,0,.08-15.37c-.26-2.62-1.46-4.41-4.31-4.16a4,4,0,0,0-3.48,2.33,7.2,7.2,0,0,0-3,2.71,12.76,12.76,0,0,0-2.64,1.78c-.54-1-3.14-1.42-3.89-1.16-8.24,2.83-11.5,13.07-11.7,21,0,.82.61,1.33,1.42,1.6-.47.94-1,1.89-1.42,2.84a.73.73,0,0,0,.23.88l-.07.08c-1.42,1.65,3.35,2.3,4.24,1.95,7.37-2.91,12.14-9.76,18.88-13.67a1.77,1.77,0,0,0,1.75-.53.25.25,0,0,1,0-.07,3.12,3.12,0,0,0,.46.17,5.81,5.81,0,0,0,1.57.54c.19,0,.35.23.45.23h.12c1.18,0,1.47-.55,1.28-1C213.34,114.46,213.36,114.28,213.37,114.29Z"/><path class="cls-1" d="M266,80.67l-.11-.44a.88.88,0,0,0-.56-.64c-.19-.54-.9-.62-1.68-.48.54-.71.75-1.54-.29-1.94-.15-.44-.63-.63-1.22-.65-.08-.36-.43-.64-1.2-.72-4.86-.54-9.75-.67-14.6-1.27a1.92,1.92,0,0,0-.84.14c-.39-.24-.8-.47-1.21-.68-.75-.38-2.18.05-3.09.8a15,15,0,0,0-1.35-.8c-1.25-.65-4.11.88-3.9,2.41a29.3,29.3,0,0,0,2.18,7.6c0,5,1.64,9.79,2.74,14.7a2.84,2.84,0,0,0-.42.74c-.61,1.7-1.3,3.38-1.91,5.08-.43,1.22.56,1.49,1.72,1.29-.16.83-.3,1.67-.45,2.52-.4,2.42,3.1,1.23,4,.28a44.52,44.52,0,0,0,3.93-4.8,6,6,0,0,0,2.1-1.33c0,.19,0,.38.07.57.43,2.45,4,.23,4.6-1,.07-.16.12-.32.19-.48,1.39-.94,2.5-2.58,1-2.85a21.35,21.35,0,0,0,.77-4.73.85.85,0,0,0-.52-.9c1.79-3.63,4.85-6.83,7.81-9.6l.1,0C265,83,266.32,82.06,266,80.67Z"/><path class="cls-1" d="M90.3,198.81a17.06,17.06,0,0,0-6.17-2.93,19.54,19.54,0,0,0-4.37-1.81,11.07,11.07,0,0,0-3.22-2.28,3.62,3.62,0,0,0-2.75.35,7.08,7.08,0,0,0-2.14.48c-.33-1.33-3.79.64-4.17,1.15a29.19,29.19,0,0,0-3.87,7.5,26.55,26.55,0,0,0-4.76,11c-.07.38.27.56.58.63a28.83,28.83,0,0,0,7.4.78,15.23,15.23,0,0,0,2.31.92,1.13,1.13,0,0,0,1.24.34,19.7,19.7,0,0,0,13.38-2.17c.24.22.47.44.72.64.71.57,2.08.12,3.1-.59a5.4,5.4,0,0,0,2-1.21h0c1-.15,2.91-1,3.05-2.14C93.11,205.63,93.45,201.53,90.3,198.81Z"/><path class="cls-1" d="M322.19,127a3.91,3.91,0,0,1-1.64-.79,18.82,18.82,0,0,0-2.63-5.57,24.15,24.15,0,0,0-.92-2.25,7.61,7.61,0,0,0-4.06-3.91,2,2,0,0,0,0-.7c-.89-5.24-7.11-4.45-11.91-3.22a37.4,37.4,0,0,0-11.67,2.65c-1.42.55-1.06,1.79-.19,2.71a1.71,1.71,0,0,0-.54.56c-4.16,7.06-2.86,17.38,3.41,22.77.84.72,3,1.06,3.59-.22a17,17,0,0,0,2.12,2.12,2.84,2.84,0,0,0,3,.39,13.49,13.49,0,0,0,2.11,2.15c1.09.83,2.89,1,3.65-.33a.25.25,0,0,0,0-.07,5.73,5.73,0,0,0,2.93.22,4.39,4.39,0,0,0,2.06-.92c7.45,1.64,12.55-5.21,12.88-13.06A2.68,2.68,0,0,0,322.19,127Zm-7.71-2c.11.56.2,1.13.28,1.7a43.39,43.39,0,0,0-2.18-4.16l.14-.42C313.29,123.13,313.87,124.1,314.48,125.05Z"/><path class="cls-1" d="M301.77,52.08c.1-.17.2-.36.3-.56.45-.89-1.54-2.7-2.09-3.17a13.57,13.57,0,0,0-1.56-1.15c-.7-1.09-2-2.55-2.64-2.66a29.8,29.8,0,0,0-11.92.46c-1.31,0-2.61.09-3.91.07-1.7-.16-3.4-.34-5.11-.53-.26,0,.51,1.39,1.4,2.51a21.59,21.59,0,0,0-4.3-2.41c-1-.42-.21.91,0,1.21l.26.43c-.5-.36-.85-.49-.69,0a6.58,6.58,0,0,0,.31.83c-.45-.35-.92-.69-1.42-1-1.16-.74-.82.29-.37,1,1.77,2.75,4.58,6.22,7.62,7l-.06.27v0a27,27,0,0,0-2.95,2.36,24.2,24.2,0,0,0-3.12,2.37c-.26.24.13,1,.72,1.81-.3.35-.62.7-.95,1l-.59-.24c-.54-.21-.42.23-.06.85-.13.12-.25.25-.39.36-.74.64,2.28,3.48,2.84,3.71,2.75,1.11,5.39,2.47,8,3.78a24.1,24.1,0,0,0,3.67,2.26c.75,1.14,2,2.67,2.7,2.27.24-.14.48-.3.71-.45.65.75,1.36,1.33,1.83,1.08a10.87,10.87,0,0,0,1-.61l.05,0c.1,0,.13,0,.12-.12.33-.22.64-.46.95-.7,3,2.31,5.24.87,6.86-2.07a4.37,4.37,0,0,0,.48.25c2.26,1,3.58-.56,4.31-2.87C307.53,63.77,307.61,56.09,301.77,52.08Zm-26.42-3.31a7.25,7.25,0,0,1,2,1.51,3.74,3.74,0,0,1-.89.3C276.07,50,275.71,49.39,275.35,48.77Zm2.5-.38a12.36,12.36,0,0,0,1.65.25,7.67,7.67,0,0,1-.71.69C278.49,49,278.18,48.69,277.85,48.39Zm.56,12.52a8,8,0,0,0,.4.77c0,.25.06.5.11.75-.41-.17-.82-.34-1.24-.49Z"/><path class="cls-2" d="M113.55,154c-.25-1-3.64-2.9-4.37-2.14a4.53,4.53,0,0,0-4.31-2,6.69,6.69,0,0,0-.86-.29,3.34,3.34,0,0,0-4.07,1.95,4.29,4.29,0,0,0-3.46,1.89,2.94,2.94,0,0,0-.73.23,67.87,67.87,0,0,0-11.74-2c-.86-.1-1,.14-.88.5-2.48-1.52-5-3-7.58-4.38a6.55,6.55,0,0,0-1.85-.53c-.44-.24-.87-.5-1.32-.74s-3.37-1.21-2.58.28c.22.41.47.79.72,1.17-.61,0-1,.25-.61.83h0c-.58-.24-2.52-.72-2,.55.11.26.25.52.37.78-.24.18-.48.36-.71.55a8.23,8.23,0,0,0-4.36,4.94,20.12,20.12,0,0,0-2.42,5.75,15.51,15.51,0,0,0-.58,2,1,1,0,0,0,.1.65c0,.24-.06.49-.08.74a17.11,17.11,0,0,0-2.56,2.42c-.93,1.09,3.39,2.76,4.25,2.48a69.91,69.91,0,0,1,21.25-3.72c.57,0,.64-.27.5-.6a40,40,0,0,0,4.33,1l.08.07a9,9,0,0,0,7.42,2,5.22,5.22,0,0,0,2.88-.21c.34.1.64.18.85.22a26,26,0,0,0,4.57.38,15.89,15.89,0,0,1,2,.6c2,.78,2.12,0,1.45-.88l.52-.07a1.33,1.33,0,0,0,1.35-.29,13.47,13.47,0,0,0,.81-1.1l2.47.1a.66.66,0,0,0,.53-.27C113.64,162.6,114.62,158.33,113.55,154Zm-23.34,8.46a4.88,4.88,0,0,0,.62.67c0,.18,0,.36.08.54-.28-.12-.56-.27-.84-.41A4.32,4.32,0,0,1,90.21,162.43Z"/><path class="cls-2" d="M193.84,75.86a1.71,1.71,0,0,0,.53-1.2,36.61,36.61,0,0,0-.74-8.26c0-2.16,0-4.32.05-6.49.65-.7.78-1.6,0-2.09,0-.31,0-.62,0-.93,0-1.5-2.49-1.4-3.36-1.14a27.88,27.88,0,0,0-6.61,3.08,49.55,49.55,0,0,0-10.85,5.68,16,16,0,0,1-8.06-4.84c-.5-.77-1.06-1.52-1.64-2.26,0-.81,0-1.62.06-2.42,0-2.24-4-1.19-4.73-.17-.13.16-.24.34-.36.51-.81.36-1.37,1-1.15,1.7q-.53.82-1,1.71c-.74.42-1.17,1-.84,1.68-3.59,7.77-4.22,17.35-.53,24.91a1.64,1.64,0,0,0,1.11.84h0A2.09,2.09,0,0,0,158,87.52c.09.62.19,1.22.29,1.82.4,2.33,4.24,1.33,4.92-.26.2-.46.39-.92.57-1.39A2.64,2.64,0,0,0,165,87c5.94-7.23,17.89-7.67,26.51-7.72,1.27,0,3.49-.81,2.75-2.48C194.08,76.47,194,76.16,193.84,75.86Zm-16.55-1.78s.05.1.08.14A18.51,18.51,0,0,1,175,75.81,21.15,21.15,0,0,0,177.29,74.08Zm3.87-3.9.3-.35a1.17,1.17,0,0,0,.26-.49h.13c0,.18,0,.37,0,.55l-.67.74C181.19,70.48,181.18,70.33,181.16,70.18Zm-12.18-3a1.19,1.19,0,0,0-.42,1.23l-.2.08a1.55,1.55,0,0,0,0-.21c-.1-.49-.22-1-.34-1.45Z"/><path class="cls-2" d="M275,54.19l-.15-.21c0-.14.11-.28.15-.43s-.23-.14-.58-.19A17.87,17.87,0,0,0,270.47,49a5.5,5.5,0,0,0-2.16-.22c.05-.22.09-.43.14-.65s.13-.22.2-.32a.23.23,0,0,1-.15.06l.15-.7c.06-.28-4.4-.53-4.9-.28-3.13,1.56-4.39,4.68-5.26,7.93-1.19.73-2,1.75-1,3.26,0,.06.1.11.14.17-.11.48-.23.95-.35,1.4a23.53,23.53,0,0,0,2.37.37A27.27,27.27,0,0,0,265,62.29a18.43,18.43,0,0,0,2.56.23,4.88,4.88,0,0,0,2.24,0c.07,0,.11,0,.11-.05,1.78-1.43,2.65-3.6,3.68-5.61.07,0,.12-.07.13-.11s.08-.25.12-.38c.17-.3.33-.6.51-.89,0,0,0-.11-.05-.2.17-.35.34-.71.48-1.07Z"/><path class="cls-2" d="M215.42,132.07c-5.9-2.24-10.49-6.82-16.5-8.88a3.36,3.36,0,0,0-1.41-.06c-1.44-.58-4.36.47-3.56,1.86-1.33.25-2.43,1.12-1.75,2.05a4.45,4.45,0,0,0-1.89.54,2,2,0,0,0-1.53,1.15c-1.37,0-3.13.43-2.48,1.84.17.39.36.76.56,1.12a1.2,1.2,0,0,0-.33,1.82,18.9,18.9,0,0,0,11.15,8l.14.09a2.09,2.09,0,0,0,.14.17c3.22,3.17,7.4,2.79,11.62,3.33.87.11,3.35.06,3.22-1.43a24.67,24.67,0,0,0-.41-2.9c.08-.37.16-.74.23-1.11a14.18,14.18,0,0,0,1-2.34,13.86,13.86,0,0,1,2.66-3C217.15,133.53,216.25,132.38,215.42,132.07Z"/><path class="cls-3" d="M121.64,145.39c.29-.07-.49-1.23-1.26-2.19l.07,0c1.86,1.22-1.09-2.68-1.81-3.15a14.86,14.86,0,0,0-6.76-2.8,73.91,73.91,0,0,0-11.37-5.66c-.49-.19-.23.39.29,1.13-.93-.4-1.86-.78-2.83-1.13-.49-.17-.21.46.32,1.25l-.57-.22c-.56-1.23-2.85-3.44-3.37-3-2.08,1.85-4.17,3.9-6.36,5.83a.83.83,0,0,0-.62-.11c-5,1.78-9.58,3.86-13.33,7.61-.63.63,2.45,3.8,3.24,3.69.62-.09,1.22-.21,1.81-.35a22.44,22.44,0,0,0,12.8,5.33c.55.49,1.08.81,1.44.69l.81-.29c.68.61,1.38,1,1.73.92,4.27-1.53,8.44-5.72,12.8-5.52a8.33,8.33,0,0,0,2,1.47c.6.61,1.23,1.22,1.89,1.84.5.47,2.29,1.72,1.48.12-.21-.41-.43-.8-.66-1.19a2.48,2.48,0,0,1,.26.19c1.35,1.1,1.21.42.71-.47a4.27,4.27,0,0,0,.48-.13,1.86,1.86,0,0,0,1.31.52,17,17,0,0,0,5.07-2.54c.28-.19,0-.68-.42-1.24l.88,0C122,146.07,121.88,145.79,121.64,145.39Z"/><path class="cls-3" d="M63.82,193.49c.12-.36.25-.72.38-1.08l-.65.18c-.38,0-.9.09-1.44.15l.12-.21a20.07,20.07,0,0,0-4,.68h0a7.51,7.51,0,0,1,2.33-1.42s1.46-.62,1-.71a18.44,18.44,0,0,1-4.88-1.63,17.36,17.36,0,0,0-4.53-4.65,1.22,1.22,0,0,0-.67-.08c.49-1.23,1-2.45,1.6-3.64a18.37,18.37,0,0,0,1-2l-.79.22-.34,0c.17-.51.33-1,.5-1.53-.07.22-4.24.27-4.77,1.2-.28.51-.54,1-.8,1.55l-.09-.07a7.06,7.06,0,0,0-.67-.35c0-.14,0-.28,0-.42s-.49-.12-1.15,0c-.17,0-.35-.08-.53-.12A8.06,8.06,0,0,1,47,179a83.06,83.06,0,0,0-11.69-.65c-1,0-4.2,1.51-4.33,1.48l1.4.37a2.37,2.37,0,0,1-.77.26c.36.06.72.09,1.08.13a5.89,5.89,0,0,0-1.08.51c.49.28,1,.59,1.43.9a1.3,1.3,0,0,0-.21.18c-2.11,2.1,2.53,7.71,3.86,9.55A50.63,50.63,0,0,0,45,200.62c1.12,1.16,2.15,2.26,2.94,3.27.2.25,1.26.11,2.34-.17l.2.17.12.06c-.06.6-.1,1.21-.12,1.84,0,.12.55.07,1.28-.08,0,0,0,0,0,.08a7.25,7.25,0,0,0,2.11-.34A26.8,26.8,0,0,0,53,209c0,.07,4.3-.49,4.76-1.2A32.36,32.36,0,0,0,60.32,203,53.11,53.11,0,0,0,64,197.66c.7-.15,1.28-.39,1.44-.81.46-1.26.8-2.54,1.27-3.8A19.16,19.16,0,0,1,63.82,193.49ZM40,182.17a17.56,17.56,0,0,0,1.76-.64,10.25,10.25,0,0,0-1,1.17Z"/><path class="cls-3" d="M188.59,104.52c.06-5.15-2.7-9.59-5.41-13.77-.58-.9-1.18-1.79-1.81-2.66-.92-1.88-1.89-3.54-2.91-5.39a2.73,2.73,0,0,0-2.58-1.24h-.63a1.34,1.34,0,0,0-1.36.9c-3.69-.82-7.51,1.65-10.37,3.64-1.15.8-.64,2.08.35,3a2.43,2.43,0,0,0,.21,2.07,27.88,27.88,0,0,0,5.45,6.22c-1.17,2.57-4.5,5.09-6,6.39a2,2,0,0,0,0,2.71q-1,3.12-2.08,6.25a13.54,13.54,0,0,0-.91,2.74,1.86,1.86,0,0,0,0,.81c-1.26.81-.45,3.46,1.18,4a60.79,60.79,0,0,0,8.64,2.29A17.94,17.94,0,0,0,175,124.2l.1,0a36.38,36.38,0,0,1,4.5,2.69,2.08,2.08,0,0,0,.56.27,1.61,1.61,0,0,0,2.11-.2,1.19,1.19,0,0,0,.36-.76,63.07,63.07,0,0,0,3.21-11,2.25,2.25,0,0,0-.42-1.59C187.11,110.82,188.55,107.75,188.59,104.52Z"/><path class="cls-3" d="M262.65,103.72a3.5,3.5,0,0,0-2.26,0c-.58.36-1.14.75-1.7,1.13a1.43,1.43,0,0,0-.37.19l-1.12.4a14.16,14.16,0,0,0-7.69,1.26h-.2a4.63,4.63,0,0,0-.54,0,4.56,4.56,0,0,0-3.17-.61,8.51,8.51,0,0,0-4.68,3.35l-.25-.09c-1.28-1-4.1-1.25-4.24-.1-.1.83-.14,1.65-.17,2.47-2,3.56-1.52,8,.19,11.82.61,1.38,3,1.93,4.36,1.32a4.25,4.25,0,0,0,3.09.89c.06.35.11.68.16,1,.18,1,1.84,1.6,3.18,1.6,0,.43,0,.85,0,1.25,0,1.74,3.58,2.43,4.69,1.49.2-.16.37-.34.56-.51.15.41.31.85.48,1.27.47,1.19,2.27,1.58,3.39,1.58h.25c.11,0,.21.43.34.65.76,1.29,5.6,1.79,4.48-.11-3.26-5.52-.55-13.72.19-19.66a1.07,1.07,0,0,0-.32-.83c1.24-2.65,2.51-5.31,3.49-8.05C265.08,104.59,263.89,104,262.65,103.72Z"/><path class="cls-3" d="M331.07,73.08a14.3,14.3,0,0,0-4.67-2.7l-.11-.12a15.22,15.22,0,0,0-9.06-7.62,1.82,1.82,0,0,0-1.8.35c-.71-.44-1.44-.85-2.2-1.23-1-.92-2-1.81-3.1-2.64-1.45-1.11-2.49-.2-2.74,1.05a1.39,1.39,0,0,0-.8,1.33c-.11,2.47-.49,4.91-.62,7.37a20.65,20.65,0,0,0-1.33,2.72l-.11-.06a1.67,1.67,0,0,0-2.24.86c-.17.36-.31.73-.45,1.11-.2-.14-.39-.3-.6-.42a1.8,1.8,0,0,0-2.76.58c-.09.15-.15.32-.23.48a1.52,1.52,0,0,0-2.31.78l-.09.27-.32-.21c-.86-.51-2.39-.7-2.76.58a16.66,16.66,0,0,0-.37,1.67,1.64,1.64,0,0,0-1,1.4,21,21,0,0,0,.11,3.9,2,2,0,0,0-.75,1.77,19.25,19.25,0,0,0,7.62,14.87,1.84,1.84,0,0,0,2.48-.12A14.31,14.31,0,0,0,302,97.77c.1.12.2.24.31.35,1,1.07,2.49,1.17,3.23-.16.12-.22.23-.46.34-.69a2.25,2.25,0,0,0,1.13.42,19.06,19.06,0,0,0,3.87-.11,1.61,1.61,0,0,0,1.1.09,22.45,22.45,0,0,0,3.5-1.29,31.12,31.12,0,0,0,5.25-2.7,1.8,1.8,0,0,0,.59-.61l0,0a1.58,1.58,0,0,0,.67-.78,23.46,23.46,0,0,0,2-1.6,2.55,2.55,0,0,0,1.24.59,1.61,1.61,0,0,0,2-1.44,98.51,98.51,0,0,1,4.94-13.42A3,3,0,0,0,331.07,73.08ZM313,86.22a29.82,29.82,0,0,0-.21-4.24,11.33,11.33,0,0,0,.72,1.68c0,.55-.07,1.09-.09,1.64C313.33,85.57,313.19,85.89,313,86.22Z"/><path class="cls-3" d="M149.21,82.86a24.72,24.72,0,0,0-5.61-5.62c-4.34-7.39-22.14-1.44-28.78,1.53-.76.34.14.6.47.65s.9.15,1.35.21a7.1,7.1,0,0,0-5.28,4.73,8.76,8.76,0,0,0-1,1.06,1.28,1.28,0,0,0-.8.5,12.9,12.9,0,0,0-1.34,10.31c.07.27.58.31.77.33s.37,0,.56,0c-.64.22-.87.46.08.61.41.07.83.13,1.24.18-1.43.25-3.58.78-1.89,1.09-.69.26-1,.54,0,.64a169.67,169.67,0,0,0,17,.67,15.73,15.73,0,0,0,2.81-.31c1.21.15,3.33.2,4-.43,5.1-4.93,13.7-9.32,16.58-16Zm-28.65-4.57c1-.4,1.92-.76,2.9-1.12a44.54,44.54,0,0,1,7.63-2.06,9.59,9.59,0,0,1,3.75,0,8,8,0,0,0-.91.13,5,5,0,0,0-1.76-.08,6.19,6.19,0,0,0-1.79.46A8.73,8.73,0,0,0,126.56,77a9.9,9.9,0,0,0-5.51,1.85C120,78.86,119.44,78.76,120.56,78.29Z"/><path class="cls-3" d="M108.49,170.81c0-.12,0-.24.07-.36.39-1.78-1.15-2.9-2.79-2.94-1-1.47-3.69-2-4.44-.06a.36.36,0,0,1,0,.09,2.28,2.28,0,0,0-1.86.25c-2.37.15-4.74.32-7.12.34a2.69,2.69,0,0,0-.82.14c-1.95-.51-3.95,1.19-2.3,3.17h0a1.71,1.71,0,0,0,.63,1.9c1.06,1,2.18,1.93,3.32,2.84l4.3,5.16a17.94,17.94,0,0,0,1.27,1.52,2.65,2.65,0,0,0,2.43.85l.14,0a2.83,2.83,0,0,0,.44-.14l.15-.06a2,2,0,0,0,.46-.3h0a1.92,1.92,0,0,0,.39-.51h0a1.45,1.45,0,0,0,.11-.29,1.87,1.87,0,0,0,1.38-1.66l.06-.47a2.49,2.49,0,0,0,3,.12c1.69-1.29,1.37-5.45,1.93-7.36A2.05,2.05,0,0,0,108.49,170.81Z"/><path class="cls-3" d="M238.74,85.08c-.74-7.17-4.2-14-5.8-21.19-.21-.91-5.1-.27-5.1.68v0c0-.3-.41-.58-.73-.85-.69-.59-4.31-.25-4.7.65,0,0,0,0,0,.08-.56-.08-1.12-.14-1.69-.18a4,4,0,0,0-2.45-.12c-1.22.1-4.74,1.17-2.66,1.37l-.12.12-.06.18c.1.19.2.38.31.57a1,1,0,0,0,.8.39c0,.15-.05.3-.07.44-.29.14-.45.3-.41.5.1.4.19.8.28,1.2a15,15,0,0,0,1,5.67c-.77.22-1.33.51-1.26.75a9,9,0,0,1-.36,7.17c-.62,1.49-.9,1.19-.9,2.35a.44.44,0,0,0,.38.27,35,35,0,0,0,7.38,2,9.88,9.88,0,0,0,1.59-.16,25.5,25.5,0,0,0,7.81,5.4q0,1,0,2c0,.47.89.49,1.9.35,1.14.18,3.5-.15,4.15-.78.78-.2,1.39-.5,1.44-.88A17.17,17.17,0,0,0,238.74,85.08Z"/><path class="cls-4" d="M163,151c.32-.71-.07-1.53-1.69-1.53h-5.71s-.06.12-.08.12a34.79,34.79,0,0,0-4.08-1.5,58.24,58.24,0,0,0-9.2-2.13c-1.75-.28-4.76,1.67-3.09,2.53-.53.31-.83.73-.51,1.25a22.64,22.64,0,0,0-5.84,7.2c-5,5-9.06,10.84-10.3,17.78a2.66,2.66,0,0,0-2.28,2.73c0,.64.84,1.05,1.35,1.16h.1c0,.12-.09.22-.13.34-.47,1.28,1,1.62,2.34,1.57a3.74,3.74,0,0,0,3.49-.82,5.41,5.41,0,0,0,3.9-.69c.81-.84,1.56-1.7,2.29-2.57a1.68,1.68,0,0,0,.88-.6c.61-.92,1.23-1.89,1.86-2.9a38.65,38.65,0,0,0,3.33-3.81,26.08,26.08,0,0,0,7.72-6.43,2.15,2.15,0,0,0,.85-.21c3.8-2.14,6.74-5.17,10-8,.48,0,.95.05,1.43.06.91,0,3.36-1.15,3.06-2.08A1.32,1.32,0,0,0,163,151Z"/><path class="cls-4" d="M215.33,67.68c-.18-.78-3.57-3.71-3.68-3.26l0,.18h0c-.05.19-.08.56-.12.76a4.74,4.74,0,0,0-2.85-1.9H208c-.16,0-.23-.07-.21.09,0,.35,0,.91-.05.91h-1c-.16,0-.23,0-.21.18s0,.48-.06.73a10,10,0,0,0-.73-.72c-.06-.06-1.61-1.24-1.71-.86s-.13.52-.19.78c-.21-.18-.41-.38-.63-.56-.07-.05-1.61-1.25-1.72-.86-.17.61-.3,1.22-.41,1.83-.12,0-.2,0-.23.07s0,.13-.05.19a8.25,8.25,0,0,0-2-1.62c-4.81-2.82-4.18,7.64-3,14.67a4.29,4.29,0,0,0-3-1.23c-.15,0-.22.07-.21.23s.06.45.09.74a2.39,2.39,0,0,0-1.15-.57h-.63c-.16,0-.23.19-.21.34,0,.56.09,1.16.16,1.69a4.65,4.65,0,0,0-3.12-1.19q-.24,0-.21.24c.08.35.19.69.29,1-.34-.33-.69-.65-1.08-1-.15-.13-1.7-1.39-1.75-.68a16.58,16.58,0,0,0,0,2.54,13.66,13.66,0,0,0-1.25-.95c-.12-.09-1.3-.94-1.28-.32,0,.11,0,.21,0,.32h0c-.05,0-1.14-.81-1.24-.49s-.1.36-.15.54a13.73,13.73,0,0,0-1.31-.52c-.26-.09-.42-.14-.48.15-1.31,6,1.61,11.27,5.9,15.29l.48.41c-.45.33,2.64,3.86,3.64,3.42a59.06,59.06,0,0,0,15-9.8l1.15-.61c.79.7,1.54,1.18,1.64.72s.25-1.13.37-1.71a39.8,39.8,0,0,1,7-2.51c.15,0,.22-.06.21-.22-.14-.66-.25-1.32-.34-2,1,.94,2.2,1.78,2.24,1.33A48.42,48.42,0,0,0,215.33,67.68ZM188.72,85.1a10.05,10.05,0,0,1-.16-2.12,10.2,10.2,0,0,1,.37,2.68,3.82,3.82,0,0,0-.21-.46A.33.33,0,0,0,188.72,85.1Z"/><path class="cls-4" d="M287.53,120.36a108.84,108.84,0,0,1-3.42-11.24c-.11-.53-.22-1.05-.35-1.57a50.7,50.7,0,0,1-1.15-12.84,1.8,1.8,0,0,0-.09-.56c0-.23.07-.46.09-.71.13-1.25-2.92-4.94-3.62-3-.44,1.23-.68,2.5-1.05,3.74l-.3.68c-.26-1.34-2.11-3.13-3.15-3-1.43.23-2.85.44-4.27.62a2.33,2.33,0,0,0-1.45-.62,25,25,0,0,0-6.34,1.27c-1.05.34-.91,1.33-.31,2.27l-.45.33c-.7-.64-1.53-1-2.12-.55-2.19,1.62-4,3-5.31,5.37-.7,1.22,1.5,4.45,2.94,3.82a24.81,24.81,0,0,0,4.22-2.5,2.77,2.77,0,0,0,1.49.52h.64c.36,0,.63-.4.66-.73a6.85,6.85,0,0,0,1.28,1.49c-.12.33-.24.67-.35,1-1.76,3-2.23,6.59-2.74,10.13-.2,1.39,2.33,4.7,3.63,3,.78-1,1.55-2.07,2.31-3.11.46.83,2.73,3.63,3.4,1.85.07-.2.13-.4.2-.59.84,1.08,2.51,2.68,3,1.22,0,0,0,0,0-.06.47.71,2.53,2.87,3.16,1.33.19-.48.38-1,.55-1.49a.56.56,0,0,0,.05.08c.29.47,2.72,3.11,3.2,1.41a.14.14,0,0,0,0-.06,6.26,6.26,0,0,0,1.84,1.54c.33.5.66,1,1,1.48C285.76,122.3,288.41,122.83,287.53,120.36Z"/><path class="cls-4" d="M88.26,170.56a3.33,3.33,0,0,0-2.38-2.87,2.86,2.86,0,0,0-1.35-.06,2.63,2.63,0,0,0-.58-.07h-.62c-4.52-3-15.47-1.24-19.24,1.53a24.84,24.84,0,0,0-9.69,7.17,6.24,6.24,0,0,0-1.18,4.3,1.58,1.58,0,0,0-.24.86,7.31,7.31,0,0,0,2.4,5.35c1.91,2.7,5,4.87,7.86,4.44a4.93,4.93,0,0,0,3.21-1.94c1.23.29,2.56-.09,2.82-1.45,2-1.12,3.59-3.66,4.34-6.51a20,20,0,0,0,5.22-2.87,8.51,8.51,0,0,0,5.2-3.35c.4-.15.8-.31,1.22-.44a2.25,2.25,0,0,0,1.49-1.79A1.9,1.9,0,0,0,88.26,170.56Z"/><path class="cls-4" d="M189.06,49.7c-3,0-6,.09-9,.12a8.88,8.88,0,0,0-1.54,0,.93.93,0,0,0-.29-.07c-.89,0-1.78-.06-2.68-.1a77.32,77.32,0,0,0-10-.54.13.13,0,0,0-.1,0h-.39l-.61-.2c-.57-.36-1.1-.61-1.07-.24a11.15,11.15,0,0,0-1.64-.22.21.21,0,0,0-.2.08l-.3-.06A38,38,0,0,0,158,46.13c-.44-.27-1.05-.41-.86.31a26.11,26.11,0,0,0,5.58,10.07,19.48,19.48,0,0,0,6.18,6.58c.78,1.11,2.41,2.45,3,2.35a24.25,24.25,0,0,0,10.24-4.73c.42.21.75.26.81,0a3.8,3.8,0,0,1,.42-1Q185,58.44,186.68,57a38.68,38.68,0,0,1,4.43-1.8c.25-.09.13-.41-.17-.82a14.34,14.34,0,0,0,1.44-1.09C193.19,52.62,189.86,49.69,189.06,49.7Zm-26.58,1.54.21.21h0c-.51-.3-1-.59-1.54-.87l0,0-.13-.19C161.15,50.3,161.59,50.52,162.48,51.24Z"/><path class="cls-4" d="M344.05,57.24l-.3-.15a2.7,2.7,0,0,0-1.58-1.38c-.87-.31-1.72-.64-2.56-1a2.6,2.6,0,0,0-1-.31c-2.4-.86-4.81-1.68-7.23-2.48a2.64,2.64,0,0,0-.64-.14c-4.76-2.23-10-2.86-15.23-4.31a2.55,2.55,0,0,0-2.25.21c-2.08-.21-4.19-.32-6.31-.36a6.12,6.12,0,0,0-.84-.38c-.26-.16-.5-.33-.77-.48-.86-.49-3.14-.85-3.49.52-1.23,4.82.26,9.08,3.53,12.73.8.9,3.89,2.09,4.41.22,1.51.72,3,1.35,4.61,1.92a72.88,72.88,0,0,0,7.15,2.37l.88.62c1.56,1.94,3.13,3.86,4.78,5.72a2.1,2.1,0,0,0,1.14,1.25c.38.41.75.83,1.14,1.23.87.9,3.2,1.91,4.2.59l1.18-1.53c.59-.21,1-.62.94-1.23,1.42-1.83,2.83-3.65,4.23-5.49a1.23,1.23,0,0,0,.19-1.29c.6-.71,1.2-1.43,1.79-2.16a16.61,16.61,0,0,1,2.74-2C346.08,59.19,345,57.72,344.05,57.24Z"/><path class="cls-5" d="M159.47,115.92c-.1-.83-1.12-1.17-2-1.3q-.25-.77-.57-1.53c-.34-.77-1.61-1-2.5-1.07-.1-.84-1.53-1.34-2.84-1.35q-2.49-.89-4.87-2a10.94,10.94,0,0,0-4.77-2.27c-.85-.19-4.85.23-2.62,1.5,1.21.69,2.45,1.31,3.7,1.89l.11.15c-.72.4-.78,1,.78,1.45,0,.1.07.21.1.31a10.13,10.13,0,0,1-1-.46,5.77,5.77,0,0,0-1.46-.48,6.5,6.5,0,0,0-1.72-.66c-.31-1.52-3.51-1.55-4.55-1-3.75,2-4.65,6-4.21,10,.15,1.41,4.21,2.06,4.85.83.31-.6.62-1.1.93-1.7.31.91,2.24,1.16,3,1.16h.64c.15,0,.37-.1.6-.12a7,7,0,0,0,.23.8,1.19,1.19,0,0,0,.09.15,13,13,0,0,0-2.13,1.87,19.45,19.45,0,0,0-6.88,10.65,21.64,21.64,0,0,0-4.46,10.48c-.21,1.33,3,1.38,3.63,1.33a12.51,12.51,0,0,0,1.81-.26,13.47,13.47,0,0,0,7.8-1.16c.45,1.42,1.58,2.43,3.72,2.69.67.09,2,.15,2.48-.5s.94-1.36,1.37-2a1.68,1.68,0,0,0,1.29-.76c1.36-3.08,5.07-9.1,6.24-14.35a1.51,1.51,0,0,0,1.3-.7c1.1,0,2.06-.26,2-.82-.15-1.08-.26-2.16-.35-3.24A23,23,0,0,0,159.47,115.92Zm-18.3,12.72-.64-.09a21,21,0,0,1,1.45-3A26.48,26.48,0,0,0,141.17,128.64Zm-2.87,12.47a8.63,8.63,0,0,0,1.25-3l.63-.2c-.08.5-.15,1-.2,1.53A7.49,7.49,0,0,1,138.3,141.11Z"/><path class="cls-5" d="M151.75,70.55c2.4-5.36,5.23-12.93,4.08-18.14a6.68,6.68,0,0,0-5.75-4.68c-3-.15-5.66,1.73-7.59,4-2.54-1.11-4.44,0-5.56,2.07a7.74,7.74,0,0,0-1.68.24l-.37-.18c-.36-.16-1.67-.46-1.62.34,0,.23.05.44.07.67a8.78,8.78,0,0,0-1.89,1.59.62.62,0,0,0,0,.67.89.89,0,0,0,0,.59c1.89,7.41,7.67,13,12.59,18.59a4.25,4.25,0,0,0,.83.61c.18.37.37.74.54,1.11a4.77,4.77,0,0,0,.85,1c.91,1.35,3.8,3,4,1.54.15-.91.26-1.81.36-2.72a.53.53,0,0,0,.28-.45c0-.51,0-1,.05-1.53A40.51,40.51,0,0,0,151.75,70.55Zm-1.13-19.1a4.19,4.19,0,0,0,1-.08,4.69,4.69,0,0,1,0,.53c0,.3,0,.61,0,.92a6,6,0,0,0-1.42-.82,1.56,1.56,0,0,0-.2-.16C150.22,51.71,150.41,51.57,150.62,51.45Z"/><path class="cls-5" d="M258.41,52c.19-.51.37-1,.58-1.54a1.19,1.19,0,0,0-.06-1l.06-.29c.35-2.08-4.31-3.66-4.71-1.69,0,.16-.08.33-.11.49a62.79,62.79,0,0,0-7.68.61h-.12a3.41,3.41,0,0,0-1.09.19,14.09,14.09,0,0,0-2,.33h-.23a36.62,36.62,0,0,0-8.45.17l-.08-.08c-1-1-3.38-2-4.38-.43-.31.5-.6,1-.88,1.46a4.71,4.71,0,0,1-1,.21h0a2.65,2.65,0,0,0-3.41-.34,3.75,3.75,0,0,0-3.61-.69l-.73.45a1.56,1.56,0,0,0-.9.46c-.13.15-.24.3-.36.46a8.45,8.45,0,0,0-3.16,8.76,16.5,16.5,0,0,0,.08,1.7c.17,1.76,2.81,2.39,4.17,1.88A12.22,12.22,0,0,0,223.93,61c.52.28,1,.54,1.56.78.17.31.35.62.55.93.84,1.26,3.5,1.87,4.38.43l0,0,.62,0a4.2,4.2,0,0,0,1.43.24,8.46,8.46,0,0,0,1.41,3.93,5.43,5.43,0,0,0,2.7,1.93l.25.13q-.6.09-1.2.21c-2.64.51.09,3,1.43,3.2a57.46,57.46,0,0,0,9,.68,2.46,2.46,0,0,0,1.08,0h.72a2.15,2.15,0,0,0,1.17-.26c1.14.5,2.48.51,3-.56a23.28,23.28,0,0,0,1.42-4.12A21.69,21.69,0,0,0,256,59.73,57.9,57.9,0,0,0,258.41,52Z"/><path class="cls-5" d="M288.91,126.92c-.08-1.58-2.83-3.73-3.49-2.33a1.92,1.92,0,0,0-1.25-.47,22.44,22.44,0,0,0-.46-2.25c-.23-.85-2.15-3-3-2.19a1.75,1.75,0,0,0-.63-.22h-1.27a1,1,0,0,0-.5.17,2,2,0,0,0-.77-.17h-1.21c-.06,0-.12-.08-.18-.17s0,.19,0,.17a2.61,2.61,0,0,0-2.4-2h-1.27c-.17,0-.32-.11-.46,0a1.08,1.08,0,0,0-1.58.17c-.19.23-.37.42-.55.66a1.57,1.57,0,0,0-1.37-.43l0,0a6,6,0,0,0-4.61.56c-5.91,2.24-7.81,13.51-1.79,17.09a3.51,3.51,0,0,0,3.56.21,1,1,0,0,0,.94.14c.63,1.27,2.27,2.82,3.23,1.07q.89-1.6,1.65-3.27l.09,0c.75.89,2.05,1.39,2.71.13l.06-.13c.61,1,2,2.16,2.86,1.13.09.24.18.48.28.73.45,1.05,2.1,2.24,2.94,1.15.74.59,1.6.79,2.11-.34.28-.63.53-1.27.75-1.91.09.13.17.26.27.39.71,1,2.5,1.52,2.83.08l0,0c1,1.6,3.35,2.37,3.22-.28S289,129.47,288.91,126.92Zm-26.85,1.93a6.65,6.65,0,0,1,.29-1.94,8,8,0,0,0,.43.82,24.09,24.09,0,0,0,.42,3.16C262.5,131.3,262.07,130.85,262.06,128.85Z"/><path class="cls-5" d="M232.71,121.27c0-1.65.15-3.29.32-4.93,3-6.78,3.52-14.37,4.13-21.72a20.49,20.49,0,0,1-2.82,1.48c-.11-.5-.22-1-.36-1.48,0-.15-.92.31-1.88.89a27.4,27.4,0,0,0-1.29-4.05h-.76a1.62,1.62,0,0,0-.5.07,15.14,15.14,0,0,0-1.28-2.62c-.19-.3-1.66.57-2.81,1.4-.11-.47-.23-1-.36-1.4,0-.13-.4,0-.89.29a10.79,10.79,0,0,0-3.55-4.1c-.61-.41-4,1.92-4.19,2.57l-.09.37a9.6,9.6,0,0,0-1.31.18h-.62c.31-.27.65-.61.37-.62s-.66,0-1,0l.29-.27a.41.41,0,0,0,.19-.33c-3.38-1.11-7.76-.24-10,2.81-6.11,1.56-11.6,6.18-15.15,11.19-.07.11,0,.16.1.15.4-.05.79-.12,1.19-.19l0,0,0,.12c6,2.23,12.14-.78,16.62-5.23a19.44,19.44,0,0,0,5.93.34c-1.33,5.22-.76,11.59,2,16.16a12.46,12.46,0,0,0-.13,1.37q-1.44.88-2.85,1.83l-.53.39a16.32,16.32,0,0,0-3-.45c-.78,0-4.08,1.88-4.08,2.73a1.56,1.56,0,0,0,.9,1.25c-.31.16-.61.33-.91.51a12.77,12.77,0,0,0-3.8,2.61c-.38.34-1,.94-.26.67.21-.08.39-.18.59-.26a17.69,17.69,0,0,0,12.49,6c.66,0,4.25-2,4.08-2.73,0,0,0-.09,0-.14a10.23,10.23,0,0,0,3-1.9c.11.23.22.47.34.71-.38.24-.76.47-1.12.72-.11.09-.65.41-1,.73-1.22.8-2.43,1.66-3.62,2.61-1.54,1.23,1.42-.21,1.8-.46l2.69-1.79c3.61-1.26,7.16-2.61,11-2.83,1.38-.08,3.49-2.73,4-2.76-.25,0-.94.14-1.87.32A.57.57,0,0,0,232.71,121.27ZM196.35,97.38c.37,0,.75,0,1.12-.08.05,0,.15,0,.32,0l.15,0c.28,0,.56-.08.84-.14-.48.18-1,.36-1.47.53l-.69.21A.44.44,0,0,1,196.35,97.38Zm28.35,26,.79-.59a5.42,5.42,0,0,0,1.71-.84.94.94,0,0,0,0,.16c0,.12.63-.17,1.37-.6l0,.59A32.64,32.64,0,0,0,224.7,123.34ZM199.26,92.86c-.69.46-1.37.93-2,1.42l-.24.18-.75.56A9.85,9.85,0,0,1,199.26,92.86Zm0,6.36a19.88,19.88,0,0,0,5.89-4l.39.17A9.64,9.64,0,0,1,199.27,99.22Zm10.51-6.5c.24-.32.46-.63.68-1,.63-.29,1.27-.58,1.92-.84a2.74,2.74,0,0,0,.29-.15.2.2,0,0,0,0,.19c.24.42.44.85.64,1.26h0c0,.54,0,1.08,0,1.63A7,7,0,0,1,209.78,92.72Zm4.4,23.22c0,.12,0,.23,0,.35a8.23,8.23,0,0,0-1.82-.12C213.35,115.53,214.21,115.17,214.18,115.94Z"/><path class="cls-5" d="M126.2,182.67l-.82,0c-1.75-3.43-4.61-4.88-8.4-5.12a4.75,4.75,0,0,0-1.81.59c-.37,0-.72,0-1,0a5.76,5.76,0,0,0-2,.8c.23-1,.43-2,.59-3s-3.27,1.16-3.5,1.38a22.3,22.3,0,0,0-5.83,9.94c.41-3.58-1.73-7.14-4.89-9.31a6.87,6.87,0,0,0-1.05-1,1.07,1.07,0,0,0-.87-.12,2.91,2.91,0,0,0-2,.61,9.24,9.24,0,0,0-3.57.57c-.86-5.46-6.35-2.15-8.67.61l-.27.33a17.1,17.1,0,0,0-8.26,6.14h-.37c-1.24,0-3.94,3-3.47,3l1.2,0c-1,.65-1.8,1.38-1.38,1.74a14,14,0,0,0,2.5,1.7c-.91.69-1.56,1.4-1.05,1.58a53.5,53.5,0,0,0,15.13,3.11c.17.43.36.84.56,1.23.32.63,2.2-.62,2.48-.8l.53-.35a23.08,23.08,0,0,0,4.63-.08c.1.23.46.18.93,0a16.34,16.34,0,0,0,6.8.68,21.79,21.79,0,0,0,9.33-1.29,18.72,18.72,0,0,0,.68,1.89c.46,1.07,3.77-1.87,4.07-2.31a20.7,20.7,0,0,0,1.36-2.83,11.76,11.76,0,0,0,1.43-1.39,3.71,3.71,0,0,0,.6-.38c2.44-1.9,6.87-4.42,6.87-7.75C126.72,182.66,126.48,182.65,126.2,182.67Zm-14.48,2.07c-.09.37-.16.73-.24,1.1a3.43,3.43,0,0,0-.63.16c.46-1,.9-1.92,1.35-2.9l.18-.32a.82.82,0,0,0,0,.27l.18.51A3.48,3.48,0,0,0,111.72,184.74Zm-31.23-3.1A31.76,31.76,0,0,0,78.78,185C77.27,184.11,76.61,182.69,80.49,181.64Z"/><path class="cls-6" d="M54.31,209.93c9.5,5.89,21.32,5.53,32,3.89a54.68,54.68,0,0,0,25.94-11.55c16.78-13.26,27-33.08,45.17-44.82a82.66,82.66,0,0,1,41.91-12.95c13.56-.48,26.9,5.08,40.29,1.06,13-3.91,25.9-9.7,39.78-8.62,10.76.84,20.45,6.54,31.24,7.43,5,.41,10.06-1,13.08-5.11,4.12-5.69.52-16.58,0-22.86-1-11.13,4-22,8.14-32.08C335.91,74.43,341,65,348.71,57.48c.2-.2.29-.58,0-.72-54.46-23.51-113.55-2.88-170.23-7.43-11.17-.9-21.58-2.55-32.7-.14a47.84,47.84,0,0,0-22.41,12c-7.11,6.64-12.06,15.6-15.44,24.62-5.05,13.48-3.64,29-11.8,41.37-7.72,11.64-20.42,16.81-33.44,19.76-8.38,1.9-17.21.9-25.3,4.2-7.7,3.15-9.95,11.27-9.5,19,.28,5,1.43,9.84,2,14.79.84,7.75-2.23,14.18-7.23,19.94-.27.31-.23.69.21.8,11.36,2.66,22.46,6.36,34.2,6.86.82,0,2-1.18.71-1.23-7.84-.34-15.38-2.08-23-4.06-1-.26-10.15-2.45-9.34-3.38a30.26,30.26,0,0,0,5-8.22c4-9.55-1.12-20.15-.57-30,.78-13.81,12.7-15.34,23.94-16.34,9.76-.87,19.66-2.81,28.23-7.79,10.59-6.15,18-14.84,21.33-26.68,1.85-6.54,2.45-13.39,3.79-20a70.46,70.46,0,0,1,7.11-18.85c5-9.53,12.51-17.56,22.25-22.3,10.69-5.2,22.89-5.25,34.41-3.73,28.43,3.73,57.33-.21,85.72-2.27,15.06-1.09,30.17-1.65,45.25-.55a159,159,0,0,1,22.05,3.2c3.41.74,6.78,1.67,10.12,2.67,1.33.4,12.8,4.41,11.88,5.31-9.23,9-14.21,21.47-18.86,33.25a89.44,89.44,0,0,0-5.18,17.15c-1,5.79,0,12,.9,17.7,1.13,7.38,1,15.54-8.22,16.78-6.05.82-12.6-1.64-18.28-3.45-10.12-3.21-19.92-5.42-30.56-3.16s-20.42,7.16-31.06,9.07c-11.08,2-22.26-2.73-33.37-2.33-10.38.37-19.56,1.76-29.26,5.69-8.33,3.38-16.48,7.5-23.39,13.32-13.06,11-22.35,25.64-35,37.08A52.61,52.61,0,0,1,89,212.16c-10.79,2.24-23.48,2.76-33.17-3.24-.61-.39-2.37.48-1.51,1Z"/><path class="cls-6" d="M33.49,187.91c1.88,5.27,6.72,9.36,10.77,13a115.33,115.33,0,0,0,13.55,10.36c.65.42,2.39-.49,1.51-1.06A119.58,119.58,0,0,1,46,200.05c-4-3.43-8.81-7.58-10.61-12.66-.29-.81-2.22-.27-1.94.52Z"/><path class="cls-6" d="M57,212.13c5.27-5.46,7.22-13.11,10.08-19.94a.62.62,0,0,0-.38-.82c-2.88-1.38-5.94-1.69-9-2.3-6.91-1.36-1.54-11,.88-14.33,7.35-10.23,22.25-10,32.43-4.86,0-.39-.07-.78-.1-1.17-8.59,8-18.1,15-25.57,24.2-.58.71.38,1.21,1,1a3.86,3.86,0,0,0,3.16-2.86c.37-1.09-1.57-1.15-1.86-.27l-1.68,1.71c.33.35.67.69,1,1,7.38-9,16.76-16,25.24-23.87.42-.4.45-.9-.1-1.17-14.6-7.4-32.89-3.35-38.86,12.83-2.09,5.66-.2,8.56,5.43,9.52A38.53,38.53,0,0,1,63.82,192c2,.63,0,3.46-.54,4.85-2,5.2-4,10.6-7.92,14.67-.85.89,1,1.31,1.64.64Z"/><path class="cls-6" d="M68.14,192.73c5.9.38,11.22,2.72,16.84,4.32,1.2.34,6,.45,6,2.3.06,3,.78,5.88.84,8.86,0,.89,2,.51,2-.21-.08-3.56-.81-7.05-.89-10.62,0-.36-.28-.48-.61-.5-8.11-.53-15.3-4.84-23.42-5.36-.81-.06-2,1.12-.72,1.21Z"/><path class="cls-6" d="M54.21,177.15l-22.37-.62c-.45,0-2.22.82-1.24.85l2.36.06c.44,0,2.22-.82,1.23-.84l-2.35-.07-1.24.85L53,178c.45,0,2.22-.82,1.24-.85Z"/><path class="cls-6" d="M61,170.15c-3.63.25,1.29-10.31,1.77-11.29,1-2,4.24-9.46,6.84-9.75,1-.1,1.59-1.25.25-1.1-4.66.52-8,8.81-9.62,12.3-1.15,2.46-5.27,11.34.51,10.94,1-.06,1.59-1.19.25-1.1Z"/><path class="cls-6" d="M72.39,146.63c7.21,3.75,15.31,6.94,23.56,6.75.43,0,2.49,0,2.86-.68,3.76-7,10.54-2.22,14.62,1,.42.32,2.09-.44,1.83-.65-3.65-2.82-9.14-6.54-14-4.31a9.34,9.34,0,0,0-2.89,2c-2.28,2.27-3.45,2-6.7,1.55-6.11-.88-12-3.44-17.48-6.27-.49-.26-2,.54-1.82.65Z"/><path class="cls-6" d="M118.78,150.15a19.47,19.47,0,0,1,3.74-3,9.32,9.32,0,0,1,2.17-.82c1-.26,2,0,3-.29.53-.14,1.3-.8,1.11-1.41s-1.38-.24-1.46-.69c-.15-.85-2.08-.36-1.93.52a1,1,0,0,0,.61.83,2.84,2.84,0,0,0,.65.18c.92.19,0-.27,0-.32l.9-.41c-4.34,0-7.4,2-10.45,4.86-.87.82,1,1.08,1.61.52Z"/><path class="cls-6" d="M101.72,131.82c-.69,1-.94.45.42,1,1,.39,2,.86,3,1.32,2.58,1.21,5.11,2.54,7.62,3.9,3.68,2,9,4.28,11.54,7.77.46.64,2.32-.07,1.78-.82-3.48-4.78-11.15-7.72-16.23-10.32-1.45-.75-8.34-5.34-9.94-3-.57.83,1.4.78,1.83.15Z"/><path class="cls-6" d="M113.41,152.41c1,5.82-.38,11.83-1.66,17.51l1.57-.6c-6.6-.26-13.15-1.35-19.58.73-.29.09-1.42.73-.51.84a3.18,3.18,0,0,1,2,1.14c.46.38,2.22-.36,1.81-.71A4.89,4.89,0,0,0,94.45,170l-.5.84c5.94-1.92,12.06-.83,18.15-.59.4,0,1.46-.08,1.57-.6,1.3-5.74,2.73-11.85,1.67-17.74-.09-.53-2-.07-1.93.52Z"/><path class="cls-6" d="M88.47,174.47c5.66,2.64,10,7,14.83,10.93A1.27,1.27,0,0,0,105,185c2.24-5.39,3.7-11.09,6.34-16.32.49-1-1.47-.93-1.84-.19-2.64,5.22-4.1,10.93-6.34,16.31l1.67-.44c-4.92-4-9.4-8.4-15.2-11.11-.78-.36-2.23.76-1.13,1.27Z"/><path class="cls-6" d="M109.23,175.86c2.08,2.91,6.12,4.33,9.37,5.44,2.51.86,5.64,1.8,8.26.89,1.3-.46.07-.77-.69-.5-2,.68-5.61-1-7.44-1.68-2.6-.95-5.89-2.32-7.57-4.67-.36-.5-2.11.26-1.93.52Z"/><path class="cls-6" d="M92.19,197.85c2.15,1.7,6.14,1,8.64.89,5.07-.29,10.15-1.35,15.23-1.33.44,0,2.21-.85,1.23-.85a95.08,95.08,0,0,0-10.1.85c-3.37.36-10.3,2-13.19-.24-.44-.35-2.15.41-1.81.68Z"/><path class="cls-6" d="M120.44,180.4c2.58-10.15,9.12-18.76,14.93-27.26,1.42-2.09,2.81-4.19,4.14-6.33s8.18.09,10.26.59c4.9,1.17,9.64,2.7,14.7,3,.41,0,2.22-.73,1.25-.79-7.14-.44-13.81-3.28-20.88-4.21-2.89-.37-5.66-.85-7.23,1.74-6.63,11-15.85,20.89-19.08,33.59-.1.41,1.78.14,1.91-.34Z"/><path class="cls-6" d="M125.72,145.83l15.31.42c.44,0,2.22-.81,1.24-.84L127,145c-.44,0-2.22.81-1.25.84Z"/><path class="cls-6" d="M128.51,143.21c2.87-8.48,7.8-16.15,13.49-23,.5-.59-.17-1-.74-1a76.78,76.78,0,0,0-11,1.19c-3.89.58-9.29,2-12.82-.29-5.88-3.83-9.69-15.58-7.72-22.15.33-1.09-1.59-1.1-1.85-.25-2.29,7.61,1.87,17.71,7.41,23,2.55,2.43,6.32,2.11,9.55,1.84,5.44-.46,10.79-1.87,16.27-1.88-.25-.34-.49-.69-.74-1-5.76,7-10.8,14.78-13.71,23.37-.37,1.08,1.57,1.1,1.85.25Z"/><path class="cls-6" d="M108.38,99.47l12.66.34,7.16.2c2.61.07,3.29.28,3.43,2.79.36,6.39-.56,14.93-4.38,20.29-.47.65,1,.4,1.25.31,1.55-.56,1.85-1.28,2.95-2.63.49-.6-1.43-.4-1.78,0a7.16,7.16,0,0,1-1.9,1.94l1.26.32c4.45-6.24,5.32-16.27,4.26-23.69,0-.23-.43-.23-.58-.23l-23.55-.65c-.65,0-2.08.94-.78,1Z"/><path class="cls-6" d="M134.44,98.52c4.05-5.41,10.09-10.69,16.36-13.27.31-.13.74-.46.49-.83-5.67-8.77-14.51-15.84-19.26-25.15-.36-.71-2.24-.1-1.93.52,4,7.76,11,14.2,16.32,21.05,1.09,1.41,3.68,3.4,1.52,4.46a35,35,0,0,0-5.73,3.77,48.65,48.65,0,0,0-9.59,9.37c-.55.74,1.41.63,1.82.08Z"/><path class="cls-6" d="M115.54,79.32c8.16-3.23,16.23-6.2,25.14-6.17.38,0,2.19-.75,1.26-.75-9.56,0-18.26,3-27,6.53-1.29.51-.06.67.65.39Z"/><path class="cls-6" d="M156.34,48.65c-1.15,6.52-2.6,13-3.72,19.51-.8,4.67-2.56,11.17-.8,15.79.17.46,2.07-.15,1.93-.51-1.86-4.88.15-12,1-16.86,1-6.11,2.43-12.17,3.51-18.28.07-.44-1.83-.11-1.91.35Z"/><path class="cls-6" d="M152,84.13c1.88.91,17.14,13,16.17,13.79-4.18,3.25-6.46,8.67-8.86,13.22l1.36-.62c-9.21.55-17.8-3.66-27-3.1-.59,0-2.12.93-.78,1l2.35.07c.64,0,2.09-.93.79-1-.69-.21-1.15,0-1.39.8a29.79,29.79,0,0,1,4.91.32,62.68,62.68,0,0,1,6.63,1.32,47.86,47.86,0,0,0,13.72,1.56c1.24-.07,1.42-.75,2-1.8,2.44-4.65,4.75-9.15,9-12.44.11-.09.34-.33.14-.47-6.09-4.14-10.74-10.24-17.42-13.5-.5-.25-2.28.5-1.56.86Z"/><path class="cls-6" d="M159.28,112.44A91.15,91.15,0,0,0,160,129l1.15-.6c-1.62.23-3.13.81-4.75,1.05-.25,0-1,.2-1.13.51a76.36,76.36,0,0,1-5.1,14c-.09.19.23.21.32.21l2.36.07c.39,0,2.2-.75,1.26-.77-2.78-.08-1.23-1.44-.37-3.35a53.67,53.67,0,0,0,1.9-5.24c1.29-3.94.75-5.16,5.14-5.79.21,0,1.2-.25,1.15-.61a90.17,90.17,0,0,1-.72-16.51c0-.28-1.92,0-1.94.52Z"/><path class="cls-6" d="M161.82,121.13c7.38,2.55,13.91,4.58,20.06,9.54,2.68,2.17,6.71,7.28,10.25,7.92a1.34,1.34,0,0,0,1.15-.42l.06-.08c.72-1-1.1-1.26-1.61-.56.76-1,1.22-.15-.34-1.34-.95-.72-1.87-1.51-2.79-2.28-2.32-1.93-4.63-3.88-7-5.76-5.59-4.42-12-6-18.66-8.31-.81-.28-2.28.89-1.12,1.29Z"/><path class="cls-6" d="M184.14,131.57c4.65-4.19,10.22-7,15.65-10,2.21-1.23,4.42-2.47,6.51-3.87,2.55-1.7,4.08-4.06,7.16-2.48.34.17,1.75-.08,1.86-.5,2.17-7.74.34-14.25-2.93-21.37-.16-.35-1.3.06-1.51.17-3.08,1.53-6,3.37-8.9,5.14-5.56,3.36-10.23,4.26-14.26-.77s-6.46-11.44-9.14-17.25c-.17-.37-1.29.08-1.52.17-5.77,2.27-10.84,5.61-15.88,9.18-.28.19.08.26.23.26l3.53.1c.37,0,2.19-.7,1.27-.72-4.85-.14,1.65-3.26,3.23-4.27a50.45,50.45,0,0,1,8.72-4.38l-1.52.17c3.16,6.85,6.3,17.26,13.44,20.94,6.62,3.42,16.76-5.85,21.89-8.39l-1.51.17c3.24,7.07,5.13,13.49,3,21.21l1.87-.5c-5.49-2.8-7,.94-11.81,4-7,4.45-14.84,7.61-21.07,13.23-.37.33,1.41.1,1.73-.19Z"/><path class="cls-6" d="M190.25,100.2c-1.82,5.61-4.07,11.06-5.79,16.7-1.27,4.18-2.91,9.66-.94,13.88.29.62,2.18,0,1.93-.52-2.13-4.55,0-10.42,1.33-14.93,1.59-5.2,3.72-10.22,5.4-15.39.2-.61-1.73-.34-1.93.26Z"/><path class="cls-6" d="M180.36,80.05c4.71-1.83,9.53-.84,14.37-.61.43,0,1.56-.11,1.57-.72.1-8.79-1.89-17.3-2.82-26,0-.52-2-.12-1.93.52.93,8.69,2.92,17.21,2.82,26l1.57-.73c-5.61-.27-10.93-1.17-16.3.91-1.28.49-.09.94.72.63Z"/><path class="cls-6" d="M156.49,50.82l-.08,0c-.07,0-.26.15-.23.27.46,1.82,3.18,3.83,4.39,5.11,2.82,3,6,5.91,8.25,9.32.11.16.38.13.55.11,9.66-1.32,16.42-8.5,25.54-11.18,1.11-.33,1-.88-.15-.56a40.24,40.24,0,0,0-8.32,3.64c-3.69,2.06-13.74,9.79-16.92,5.82-1-1.27-11.11-12.84-11.56-12.56.8-.5-1.14-.23-1.47,0Z"/><path class="cls-6" d="M196.55,64.24c4.95.18,10.57,1.54,15.37-.25,5.57-2.09,6.48-7.53,6.35-12.94,0-.59-2-.21-1.93.51.14,5.51-.88,11.24-7.27,12.08-3.86.51-7.89-.33-11.76-.47-.71,0-2.06,1-.76,1.07Z"/><path class="cls-6" d="M188.18,98.18c9.73-5.12,19.06-11.05,29.6-14.4.42-.13.86-.42.79-.91-1-7.57-2-15.14-4.09-22.5-.23-.81-1.92-.45-1.95.33l-.09,3.53c0,1,1.93.71,1.95-.15,0-1.17.07-2.35.1-3.53l-1.94.34c2.11,7.36,3,14.93,4.09,22.49.26-.3.53-.6.79-.91-10.72,3.41-20.21,9.38-30.11,14.59-1.16.61-.11,1.63.86,1.12Z"/><path class="cls-6" d="M214.23,63.5c4.54.13,9.07.31,13.58.82,1.44.16,4.66,0,4.63,2.37a43.94,43.94,0,0,0,.45,6.17c.93,7.1,4.69,13.38,8.24,19.45.35.58,2.18-.1,1.94-.52-5.18-8.84-8.8-16.9-8.68-27.34,0-.15-.27-.2-.36-.21-6.26-1.31-12.63-1.53-19-1.71-.65,0-2.09.93-.79,1Z"/><path class="cls-6" d="M211,85.72c10.1.53,19.43,5.31,26.47,12.45.28.29,1.79-.08,1.86-.5.44-2.52,2.11-4.48,2.55-7,.09-.48-1.82-.15-1.91.33-.44,2.52-2.1,4.49-2.55,7l1.87-.5a41.34,41.34,0,0,0-27-12.59c-.43,0-2.22.76-1.25.81Z"/><path class="cls-6" d="M238.63,99c-4.19,7.25-4,16.81-4.27,24.93,0,.49-8.65,1.71-9.93,2.14-3.32,1.12-5.76,3.57-7.82,6.31l1.56-.27a47.59,47.59,0,0,0-6.37-3.23c-1.9-.87-7.94-2.65-8.49-5.15-.19-.87-2.13-.37-1.93.52.43,2,3.31,3,4.89,3.84,3.44,1.75,7.16,3,10.4,5.11a1.28,1.28,0,0,0,1.55-.27c4.48-6,10.06-6.57,17-7.34.38,0,1.06-.29,1.07-.77.23-8.28-.08-18.24,4.19-25.62.54-.93-1.43-.92-1.84-.2Z"/><path class="cls-6" d="M216.82,132.3c-2.83,1.62-6.13,12.06-1.28,12.61.77.08,2.05-1,.75-1.13-3-.34,0-9.9,1.73-10.88,1.14-.64-.56-1-1.2-.6Z"/><path class="cls-6" d="M238.56,124.92c-.64,1-1.62.19,0,.88.75.32,1.47.68,2.19,1,2.27,1.12,4.48,2.36,6.69,3.6,3.75,2.12,8.21,4.21,11.34,7.23.46.46,2.28-.26,1.79-.74-4-3.88-9.91-6.5-14.75-9.15-1.19-.65-7.66-5.21-9.09-2.87-.45.75,1.48.52,1.8,0Z"/><path class="cls-6" d="M239.43,109c8.41-2.06,17.17-3,25.17-6.46l-1.36-.16c.35,5.87-1.73,11.64-3.29,17.21-1.27,4.54-2.91,9.87-1.11,14.48.27.7,2.18.12,1.93-.52-1.92-4.91.13-10.67,1.48-15.49,1.47-5.28,3.26-10.64,2.93-16.2,0-.5-1.13-.25-1.36-.15-7.82,3.42-16.43,4.28-24.66,6.3-1.17.28-.9,1.28.27,1Z"/><path class="cls-6" d="M255.78,100.47c4-7.46,7.59-15.07,12.39-22l-1.58.56,4.7.13c.34,0,1.58-.16,1.6-.65l0-1.17a.18.18,0,0,0-.17-.11c-11.4-2.56-22.76-4-34.45-3.31-.31,0-2,.74-1.05.77l2.35.06c.4,0,2.21-.75,1.26-.77a1.34,1.34,0,0,0-1.55.58q2.63-.13,5.25-.12a96.65,96.65,0,0,1,10.48.65c2.33.25,16,1.35,15.92,3.94l1.59-.64c-3.38-.1-5.32-1-7.25,1.83-4.46,6.47-7.76,13.71-11.43,20.64-.13.25,1.65.14,1.91-.35Z"/><path class="cls-6" d="M256.57,72.29a65.87,65.87,0,0,1,5.33-24.44l-1.88,0c0,1.57-.08,3.14-.13,4.71,0,.89,1.92.52,1.94-.21.05-1.57.09-3.13.13-4.7,0-.87-1.63-.51-1.88,0a66.71,66.71,0,0,0-5.45,24.75c0,.89,1.92.53,1.94-.2Z"/><path class="cls-6" d="M257.73,61.36c9,2.35,16.21,8.7,24.31,13,1,.52,8.92,3,8.76,3.91-.78,4.62-2.8,8.45-7,10.72-5.59,3-13,3.33-19.14,4.47-.53.09-8.08,1.28-5.74,3.16.71.56,2.37-.43,1.48-1.15-.28.66-.08.76.6.28.71-.23,1.46-.37,2.19-.54,2-.44,4-.76,6-1.1,3.71-.63,7.38-1.26,11-2.23,7.83-2.09,11.48-7.27,12.79-15,.07-.38-.33-.61-.65-.66-12.57-2-21.29-13-33.5-16.19-.87-.23-2.28,1-1.1,1.35Z"/><path class="cls-6" d="M282.57,90.56c-3.18,3.61-1.23,10.2-.28,14.29,1.42,6.13,3.93,12,5.13,18.19l1.52-.89c-10.18-3.91-19.3-10.54-29.38-2.92-.5.37-.41,1.07.29,1.09l2.35.07c.9,0,2-1.32.69-1.36l-2.36-.06.3,1.09c9.18-6.94,18-.1,27,3.35.53.21,1.67-.17,1.53-.89-1-5-2.87-9.86-4.24-14.76-1.19-4.23-4.33-12.82-.94-16.66.81-.92-1.05-1.16-1.6-.54Z"/><path class="cls-6" d="M288.56,124.25q-.17,5.88-.32,11.77c0,.43,1.91.13,1.93-.52l.32-11.77c0-.43-1.91-.13-1.93.52Z"/><path class="cls-6" d="M286.86,115.1a11,11,0,0,0,6.39-.79,34,34,0,0,1,17-2.24c2.31.29,1.33.1,2.26,1.2a22.31,22.31,0,0,1,3.66,6.48,20.52,20.52,0,0,0,6.64,9.23c.59.45,2.34-.39,1.52-1-3.47-2.71-5.09-5.87-6.68-9.86-.74-1.86-3.3-4.68-3.25-6.5,0-.35-.29-.51-.62-.53-3.52-.22-7.38-1.34-10.89-.57a57.53,57.53,0,0,0-6.39,1.34c-2.65.87-5.6,2.72-8.49,2.09-.73-.16-2.3.92-1.15,1.18Z"/><path class="cls-6" d="M289.67,85c-2.41,4.82,5.34,10.41,6.64,14.69.11.38.54.44.87.44,3.71,0,28.08-3.57,27.18-8.49-.16-.88-2.09-.39-1.93.52.38,2.08-17.07,5.44-18.87,5.79-1.53.29-3.07.53-4.62.7s-.75-.18-1.47-1.48c-1.61-2.9-7.73-8.41-6-12,.49-1-1.47-1-1.85-.21Z"/><path class="cls-6" d="M294,76c5.17-4.06,12.84-.41,12.72-8.75-.11-7.47-3.36-14.63-3.45-22.07,0-.76-1.65,0-1.87.23-1.21,1.51-1.29,2.88-1.37,4.82,0,.83,1.91.45,1.94-.23.07-1.83,0-3,1.24-4.53l-1.87.23c.08,6.38,2.35,12.8,3.19,19.12.59,4.44.87,7-4.34,7.84a15.78,15.78,0,0,0-7.75,3c-.88.69,1.05.75,1.56.35Z"/><path class="cls-6" d="M306,60.13c9.53,1.52,16.6,6.64,24.1,12.34.49.37,2.24-.38,1.81-.71-7.72-5.86-14.92-11-24.7-12.57-.52-.08-2.26.77-1.21.94Z"/><path class="cls-6" d="M262.57,47.38c-1.13,0-2.52.56-2.58,1.85,0,.42,1.91.13,1.94-.51,0,.14,0-.17.05-.24a1.69,1.69,0,0,1,.12-.27l.08-.09c-.13.15-.85.17-.41.16a1.89,1.89,0,0,0,1.29-.48c.3-.35-.26-.43-.49-.42Z"/><path class="cls-6" d="M269.69,64.56c2.79-3.8,6-7.16,7.45-11.73.11-.35-.38-.49-.61-.51-4.07-.34-6.42-3.19-7.44-6.94-.21-.76-2.14-.24-1.93.52,1,3.62,3,6.21,6.68,7.36,1.34.42,1.51-.35.59,1.85a18.45,18.45,0,0,1-1.76,3c-1.44,2.21-3.24,4.17-4.8,6.29-.56.77,1.4.68,1.82.11Z"/></svg>