<svg id="layer1" xmlns="http://www.w3.org/2000/svg" viewBox="0 0 178.48 247.04"><defs><style>.cls-1{fill:#c1b625;}.cls-2{fill:#7c4b11;}.cls-3{fill:#492d0c;}</style></defs><path class="cls-1" d="M156.32,109.24a34.68,34.68,0,0,0-4.75,12.88,3,3,0,0,0,.28,1.94c-.46,1.11-.94,2.2-1.45,3.27a3.35,3.35,0,0,0-2.66,1.15c-4.43,4.86-8.21,9.93-13.39,13.58a.59.59,0,0,1-.14,0,2.67,2.67,0,0,0-3.36,2.13c-.67.34-1.37.67-2.09,1a4,4,0,0,0-.55.27,48.42,48.42,0,0,0-1.25-7.74A23.51,23.51,0,0,0,121.67,126c-2.63-3.16-7.5.51-5.08,3.86a27.34,27.34,0,0,1,4,8.43,27.83,27.83,0,0,1,.37,7.65,29.48,29.48,0,0,0-2.59,10.38,19.18,19.18,0,0,0-.46,4.54c0,.14,0,.27,0,.41a3,3,0,0,0-.69.19,20.74,20.74,0,0,0-3.25,1.67,2.73,2.73,0,0,0-2.65,1.23c-.06.09-.12.19-.19.28a2.73,2.73,0,0,0-2,1.88c-.16.45-.17.92-.36,1.35,1.79-8.57,2.46-17.19,3.67-26,.06-.47.13-.95.13-.95l-.4-.05a3.11,3.11,0,0,0-2.55-3.49c.08-1.5.18-3.13.26-4.63a3.31,3.31,0,0,0-2.17-3.37,3.24,3.24,0,0,0-3.72-3,3,3,0,0,0-2.22-1.42c-6.81-.43-13.9-.26-20.73-1.14a67.37,67.37,0,0,0-17.44-5.8,3.28,3.28,0,0,0-3.44,2.24,2.55,2.55,0,0,0-1.08-.3c-.14,0-.27,0-.41,0a3.3,3.3,0,0,0-3.64-1c-7.55,2.37-11.55,11.46-14.24,18.17-2.93,7.32-5.42,15.62-5.82,23.55a3.29,3.29,0,0,0,2.29,3.49c0,.58.06,1.14.08,1.68.65,11.75.48,28.54,10.5,36.8a3,3,0,0,0,3.38.3c.26.49.53,1,.83,1.47.24,1,.5,1.91.8,2.86.93,2.9,4.31,2.24,5.65.24a20,20,0,0,0,1.33,2.22,3.35,3.35,0,0,0,4.85.36c0,.2,0,.38,0,.59,0,.06,0,.1,0,.16s0,.24,0,.4.1.3.1.44,0,.06-.1.1c-2.08,1.42-1.34,4.48.7,5.48a29.4,29.4,0,0,0,15.66,2.36,8.75,8.75,0,0,0,5.54,0,12.38,12.38,0,0,0,2.5-1.24,3.24,3.24,0,0,0,3.47.43c1.28,1.18,3.26,1.46,4.4-.4.18-.28.35-.56.52-.85.91,1.91,3.73,3,5.44.81,5.6-7,11.83-13.72,16.35-21.55s6.2-15.76,7.42-24.48c.29-2.14.6-4.35.88-6.6,0,0,0,0,0-.06a3,3,0,0,0,.1-.81,115.73,115.73,0,0,0,.93-14,3.38,3.38,0,0,0,1.12.45c19,4,30.32-25.2,32.45-39.61C162.44,108.68,158.06,106.45,156.32,109.24ZM61.39,192.11c-.2-2.1-.31-4.19-.39-6.29,0-.76,0-1.51,0-2.26.18,3.89.48,7.78.95,11.64l-.15.86C61.63,194.72,61.51,193.38,61.39,192.11Zm.34-61.19c.9.13,1.88.4,2.78.56a2.62,2.62,0,0,0,0,.71h0l-.08-.09s0,0,0,0,0,0,0,.09,0,.06,0,.1c-.62,4.54-1.2,9.12-1.7,13.74A43.14,43.14,0,0,0,61,131.92a2.55,2.55,0,0,0-1.86-1.85c.11-.25.21-.51.31-.76A3,3,0,0,0,61.73,130.92Zm51.13,42.44a3.66,3.66,0,0,0,.34-.42l.28-.42a3.6,3.6,0,0,0,3.26,2.49c-1.77,4.65-3.47,9.33-5.31,14a12.88,12.88,0,0,0-2,3.28A2.75,2.75,0,0,0,108,193a57.78,57.78,0,0,0-6.2,6.63,7.54,7.54,0,0,0-.67-2c1.78-4,3.36-8,4.89-12.08C107.63,181.08,110.57,177.41,112.86,173.36ZM76.48,137.65h.29l.47.37c-.27,1.07-.51,2.14-.74,3.21C76.52,140,76.52,138.84,76.48,137.65Zm.57,70a3.58,3.58,0,0,0,.56-.16c.07.27.14.54.22.81-.44,0-.88,0-1.33,0A2.75,2.75,0,0,0,77.05,207.66Zm8.44,0a3.35,3.35,0,0,0,.86,2.07L85,209.39C85.16,208.82,85.33,208.26,85.49,207.69Zm6.1-70a3.5,3.5,0,0,0-3.67-.48c0-.17,0-.35.06-.51,1.29-.23,2.58-.48,3.85-.72ZM63,124.64l-.37,0a3.3,3.3,0,0,0-1.23.07s0-.07,0-.11.07-.19.11-.28.09-.26.13-.39C62.06,124.14,62.51,124.39,63,124.64Zm-17.74,58.1c-1.09-5.29-.94-10.51-1.47-15.82,0-.28,0-.57-.07-.85a11.56,11.56,0,0,0,2.43-2.31c.06,4,.19,8,.35,12a146.56,146.56,0,0,0,1,15c0,.14,0,.29,0,.43A55.33,55.33,0,0,1,45.22,182.74Z"/><path class="cls-1" d="M110.62,77.62a33.63,33.63,0,0,1,7.13-2.89,3.92,3.92,0,0,0,1.79-.14,14.73,14.73,0,0,1,2.19-.32,15.79,15.79,0,0,0,3-.66,3.21,3.21,0,0,0,1.73-4.17,3.26,3.26,0,0,0-4.18-1.73,14.35,14.35,0,0,1-2.19.32,14.13,14.13,0,0,0-1.94.37,2.57,2.57,0,0,0-1.14,0,38.15,38.15,0,0,0-8.88,3.37,3.19,3.19,0,1,0,2.44,5.89Z"/><path class="cls-1" d="M96,77c.13-1,.3-2.26.46-3.43C98.23,75.3,101.6,75,101.93,72c.44-3.94-.36-8.05,1.49-11.7s-4-6.16-5.87-2.51c-1.61,3.19-1.43,6.53-1.54,9.91-1.73-1.23-4.69-.85-5,1.66,0,0-.68,4.93-1,6.91C89.49,80.19,95.43,81,96,77Z"/><path class="cls-1" d="M90.85,105.08a3.27,3.27,0,0,0-1.72,4.17c1.27,4.57,4.55,8,6.86,12,.87,1.51,2.41,2.46,4.18,1.73,1.45-.61,2.59-2.66,1.72-4.18-2.29-4-5.61-7.5-6.86-12C94.56,105.13,92.31,104.48,90.85,105.08Z"/><path class="cls-2" d="M89.41,39.71c.48,2,.72,3.86,1.34,5.85-.11,2.56,1,5.66-1,7.46h0c1,.53.25-.15.11.84l.38.12c-.16,3,5.71,3.84,6.34.9l0,0c.14-1-.25-.4-.24-.46l-.27-.31c.07-.52.15-1,.22-1.56,1,0,1.06-.25,1.29-.45a3.78,3.78,0,0,0,5-1.41v0l-.34,0s0,0,0-.09l.25-.61a3.17,3.17,0,0,0,1.68-1.51A48.38,48.38,0,0,0,109,32.93a3.18,3.18,0,0,0-2.42-3.45c-.86-2.45-4.8-3.11-6-.25-.12.3-.25.6-.37.89a3.14,3.14,0,0,0-4.83.45c0-.09-.07-.19-.11-.28-1.45-3.2-5.72-2-6.09.85C87.83,33.63,88.82,37.16,89.41,39.71Z"/><path class="cls-2" d="M78.62,125.57c3.18.51,4.85-3.73,2.4-5.67-6-4.75-14.16-4.18-21.35-5.06-4.08-.51-5,5.82-.86,6.32.54.07,1.11.12,1.68.17,3.86,2.44,8.17,3.06,12.63,3C74.93,124.85,76.76,125.28,78.62,125.57Z"/><path class="cls-2" d="M47.1,130.8c.7-4.15,3.72-7.34,7.16-9.5s-.4-7.26-3.86-5.09a20.6,20.6,0,0,0-9.62,13.73C40.1,134,46.43,134.85,47.1,130.8Z"/><path class="cls-2" d="M42.69,149.77c1.26-3.78,2-7.69,3.27-11.46s-4.56-6.42-5.87-2.52-2,7.69-3.27,11.46S41.39,153.67,42.69,149.77Z"/><path class="cls-2" d="M45.82,198.35c-2.27-2.64-4.62-5.34-5.15-8.9-.61-4.06-6.94-3.23-6.33.85,1.16,7.81,7.79,12,11.4,18.49,2,3.56,7.9,1.16,5.9-2.44A49.1,49.1,0,0,0,45.82,198.35Z"/><path class="cls-2" d="M81.11,213.15c-2.64-1.15-5.49-1.66-8.12-2.81a3.27,3.27,0,0,0-4.37,2.17,34.43,34.43,0,0,0-3.48-.81,2.85,2.85,0,0,0-3,1.32c-3.85-.25-4.6,5.79-.61,6.34a53.8,53.8,0,0,0,11.82.65,2.77,2.77,0,0,0,2.54-2c.91.29,1.81.6,2.69,1C82.37,220.68,84.87,214.8,81.11,213.15Z"/><path class="cls-3" d="M86.83,42.51c-1.47,9.1-3.47,18.06-4.93,27.15A52.25,52.25,0,0,1,70.35,95.71c-5.75,6.73-13.13,11.94-19.58,17.94A59.69,59.69,0,0,0,37,132.31c-7,14.92-9.54,32.71-4.8,48.6,4.15,13.89,12,29.44,23.36,38.79.53.43,2.32-.33,1.8-.76-11.49-9.44-18.81-24.63-23.22-38.54-5.28-16.63-1.58-35.5,6-50.86s23.75-23.28,34.1-36.39c5-6.37,7.69-14.29,9.27-22.15.84-4.19,1-8.45,2-12.61,1.24-5.34,2.33-10.71,3.2-16.13.12-.75-1.82-.41-1.93.25Z"/><path class="cls-3" d="M85.37,36.44c-4,4.11,7.12,6.22,9.51,6.5,5.74.67,12.77,1.2,18.07-1.61.35-.18.51-.56.16-.81-3.69-2.59-9.57-2.74-13.89-3.28-2.31-.29-8.36-1.88-10.41,0-.84.77,1.07.83,1.56.37-.43.4,1.81.22,2.46.26,1.55.08,3.09.24,4.63.4a77.24,77.24,0,0,1,10.79,1.85c1.64.42,4,.58,1.62,1.29a27.71,27.71,0,0,1-7.7.79c-1,0-18.59-1.9-15.24-5.4.8-.84-1.08-.87-1.56-.37Z"/><path class="cls-3" d="M107.16,47.36c-3.33,14.13-6.59,29.07-4.48,43.62,1.1,7.59,5.34,12.8,9.47,19A114.86,114.86,0,0,1,125.7,136.9c5.69,17,4,34-2.5,50.35-6.4,16.14-18.36,27.68-33.14,36.31-1.14.66-.1,1.62.83,1.07,13.52-7.88,24.72-17.86,31.82-32a75.4,75.4,0,0,0,7.35-46.39c-1.45-9.59-5.48-18.67-10.08-27.13-4.34-8-11.43-15.22-14.28-23.86-4.92-15-.08-33.26,3.42-48.08.21-.9-1.76-.65-2,.17Z"/><path class="cls-3" d="M58,222.54c10.7,2.47,21.43,3.84,32.36,2.27,1.06-.16,1.48-1.61.17-1.42-10.78,1.55-21.33.17-31.87-2.26-.95-.22-1.94,1.12-.66,1.41Z"/><path class="cls-3" d="M57.57,219.46a112.78,112.78,0,0,0,32.79,3c1.1-.07,1.49-1.51.17-1.43a111.13,111.13,0,0,1-32.3-2.95c-.95-.22-1.94,1.12-.66,1.41Z"/><path class="cls-3" d="M99.17,110.87c4.24,11.23,15.71,22.67,14.41,35.29-.22,2.11-2.87,15.22.49,15.58,2.4.25,3.79-4,4.51-5.41,3.09-6.35,1.5-13.58-.18-20.06-2.5-9.66-7.3-22-17.14-26.16-.78-.33-2.25.79-1.13,1.27,9,3.85,13.16,15,15.88,23.66,1.8,5.81,3,12,1.79,18a18.76,18.76,0,0,1-3.39,7.27c.47-.59.17-1.93.18-3.2,0-5.37,1.53-10.66.72-16-1.7-11.21-10.28-20.35-14.21-30.75-.32-.84-2.24-.3-1.93.52Z"/><path class="cls-3" d="M98.63,103.24a32.3,32.3,0,0,1-1.39-21.56l-1.93.37c1.54,5.61,2.49,11.59,1.57,17.38-.29,1.75-.79,4.42,1.67,4.35.75,0,2-1.2.74-1.16-1.48,0,0-6-.05-7a59,59,0,0,0-2-14.12c-.21-.75-1.77-.18-1.93.37a32.84,32.84,0,0,0,1.39,21.85c.3.71,2.2.12,1.93-.52Z"/><path class="cls-3" d="M112,171.79c-2.47,3-2.48,6.86-4.32,10.16-1.53,2.73-3.36,5.23-4.67,8.1-.77,1.67-1.58,7.13,2.06,5.31s5.66-7,7.22-10.46c1.65-3.73,4.3-9.46,2.84-13.63-.25-.71-2.17-.16-1.93.52,1.05,3-.42,6.82-1.4,9.68a44.79,44.79,0,0,1-5.42,10.88c-1.32,1.9-2.71,2.15-2.12-.65.53-2.47,2.22-4.87,3.54-7,2.5-4,3.06-9.24,6-12.84.57-.69-1.39-.58-1.81-.08Z"/><path class="cls-3" d="M55.94,211.22c9.12,10.06,28.36,8,40.22,5.37,1.22-.27.84-1.65-.36-1.38-11.1,2.5-29.58,4.53-38.1-4.86-.61-.67-2.44.12-1.76.87Z"/><path class="cls-3" d="M59.86,212.09a17.79,17.79,0,0,0,11.44,2.67c.92-.11,1.62-1.18.28-1a15.7,15.7,0,0,1-9.92-2.4c-.56-.36-2.3.42-1.8.75Z"/><path class="cls-3" d="M56.39,210.83a12.51,12.51,0,0,0,5.36.5c.35-.07.92-.43.8-.87s-.78-.42-1.13-.35a9.81,9.81,0,0,1-3.9-.5,1.41,1.41,0,0,0-1.37.36.49.49,0,0,0,.24.86Z"/><path class="cls-3" d="M49.68,207.89c2.84.63,5.74.81,8.57,1.44.48.1,2.18-.66,1.58-.79-2.83-.63-5.74-.8-8.57-1.43-.47-.11-2.17.65-1.58.78Z"/><path class="cls-3" d="M56.67,114.41l-.47-.07c-.43-.06-1.78.47-1.23,1.09.85.95,2.85,1.43,4,1.84,4.61,1.72,9.55,2.65,14.33,3.75,9.19,2.11,18.48,3.67,27.93,3,1.06-.07,1.51-1.44.19-1.34-9.17.65-18.08-.91-27-2.91-3.26-.73-6.52-1.5-9.75-2.34-2-.53-6.37-1.12-7.88-2.83l-1.23,1.09.47.06c.91.13,2-1.15.68-1.34Z"/><path class="cls-3" d="M110.84,122.63c3,.64,6,.07,9-.39.8-.12,1.7-1,.34-.77-2.6.4-5.16.93-7.78.38-.47-.1-2.16.66-1.58.78Z"/><path class="cls-3" d="M86.62,26a85.74,85.74,0,0,0,1.86,9.79c.56,2.72.32,5.5.85,8.22.41,2.06,1.5,3.92,1.92,6s.39,4.19.92,6.25a3.84,3.84,0,0,0,5,2.65c2.85-.76,3.81-3.82,4.6-6.32,2.43-7.69,12.73-15,9.42-23.77-2-5.19-13.16-5.09-17.4-3.66-1.29.44-.11,1,.74.74,3.44-1.16,8.19-.22,11.54.86,4.17,1.34,4.31,5.67,3.22,9.24-1.73,5.66-6.91,9.51-8.89,15-.72,2-3.81,11-6.31,4.69-1-2.47-.51-5.34-1.35-7.88a30,30,0,0,1-1.93-9.36c-.11-4.4-1.87-8.63-2.27-13,0-.59-2-.18-1.93.52Z"/><path class="cls-3" d="M89,25.94c.2,2.85,6,3.43,8,3.77,3.66.62,8.09,1.18,11.74.21.2-.05,1.34-.61.67-.83-4.66-1.58-9.58-1.78-14.36-2.81-.52-.12-2.26.69-1.21.94a27.71,27.71,0,0,0,9.15.86c.21,0,1.68-.69.93-.89-4-1.08-7.74-2.79-12-2.13-.19,0-1.69.65-.93.89,4.27,1.32,8.6.49,12.94,1.28.53.1,2.26-.75,1.21-.94-4.2-.76-8.45.08-12.59-1.2l-.93.89c3.76-.58,7.21,1.13,10.74,2.07l.93-.89a25.48,25.48,0,0,1-8.24-.88l-1.21.94c4.66,1,9.47,1.19,14,2.72.23-.27.45-.55.67-.83-2.89.76-17.31.57-17.61-3.69,0-.52-2-.14-1.93.52Z"/><path class="cls-3" d="M41,153.38c-4.1,8.88-1.6,18.27.06,27.44.1.54,2,.09,1.93-.52-1.64-9.07-4.14-18.41-.07-27.21.22-.46-1.66-.27-1.92.29Z"/><path class="cls-3" d="M42.78,173.51c.16,1.82.32,3.64.49,5.46,0,.45,2,.07,1.93-.52-.17-1.82-.33-3.64-.49-5.46,0-.45-2-.07-1.93.52Z"/><path class="cls-3" d="M44.57,183.26c-.41,1.75-.76,3.45.15,5.1.41.74,2.25,0,1.77-.84-.76-1.37-.3-3,0-4.42.22-.92-1.75-.68-2,.16Z"/><path class="cls-3" d="M45.83,193.23a4,4,0,0,1,.6,2.43c-.07.42,1.82.1,1.9-.35a4,4,0,0,0-.57-2.6c-.27-.46-2.08.28-1.93.52Z"/><path class="cls-3" d="M55.2,119.18a146,146,0,0,0,18,3.38c6.27.67,12.3.26,18.24,2.84.84.36,2.24-.85,1.11-1.34-5.36-2.32-11-2.58-16.8-2.79-6.72-.25-13.43-2-19.94-3.54-1-.23-1.93,1.15-.66,1.45Z"/><path class="cls-3" d="M80.29,126.65c1.88-.14,3.77.22,5.65.22a1.62,1.62,0,0,0,1.27-.52c.27-.37-.22-.54-.51-.54-2,0-4.08-.34-6.13-.19-.94.07-1.62,1.12-.28,1Z"/><path class="cls-3" d="M87.73,128.59l2.25.53a1.48,1.48,0,0,0,1.36-.36.46.46,0,0,0-.22-.82l-2.25-.54a1.48,1.48,0,0,0-1.36.37.46.46,0,0,0,.22.82Z"/><path class="cls-3" d="M104.12,69.88c9.14-1.86,17.95-5.51,27.4-5.43a32.47,32.47,0,0,1,18.82,6.76c8.66,6.58,12.89,17.55,14.41,28a55.91,55.91,0,0,1-4.84,32.26c-3.13,6.44-7.72,10.87-13.74,14.63-5.37,3.36-10.83,6.25-15.2,10.94-.38.41,1.44.16,1.74-.17,5.18-5.56,12-8.68,18.24-12.91,5.18-3.53,8.6-8.2,11.32-13.79,5.17-10.61,6-23.33,3.86-34.8-2-10.92-7.8-21.28-17.44-27.14-14.29-8.69-29.42-2-44.2,1-.74.15-1.73.94-.37.67Z"/><path class="cls-3" d="M103.89,77c10.29.37,20.62-5.29,30.69-2,9.73,3.16,16,13,18.18,22.44,4.06,17.66-5.25,40.06-24.43,43.52-.21,0-1.63.51-1,.82a7.27,7.27,0,0,1,3,2.69c.33.42,2.17-.23,1.81-.69a7.92,7.92,0,0,0-3.23-2.81l-.95.82c19.07-3.44,29-22.44,27.35-40.71a32.68,32.68,0,0,0-15.09-24.91c-11.06-7.13-23.35.39-35.14,0-.47,0-2.23.84-1.23.88Z"/></svg>