<svg id="layer1" xmlns="http://www.w3.org/2000/svg" viewBox="0 0 771.69 369.72"><defs><style>.cls-1{fill:#492d0c;}.cls-2{fill:#d31616;}.cls-3{fill:#ffbe1d;}.cls-4{fill:#ffd392;}</style></defs><path class="cls-1" d="M742.45,228a30.51,30.51,0,0,1-13.64,5.9,11.24,11.24,0,0,0-1.39-2.13c1.05-.43,2.08-.88,3.11-1.38.45-.21-1.91-4.06-2.85-3.87l-1.57.37c0-.11-.09-.24-.15-.37,4.36-3.5,8.59-7.22,13.56-9.8,2.28-1.19-1.34-3.24-2.64-3.2a22.51,22.51,0,0,0-7.4,1.19c-.68-.9-1.48-1.66-1.8-1.48a34.06,34.06,0,0,0-10.55,9.46c-1.44,1.24-2.86,2.5-4.23,3.83-.12.12-.09.37,0,.69a68.07,68.07,0,0,0-4.46,5.22c-.14.19,0,.62.24,1.13-1.48.92-3,1.8-4.53,2.59-7.47,1.7-15.14,3.51-22.7,2.53-11.21-1.45-7.76-15.24-11.31-22.46-7.65-15.58-26.54-9.06-41.49-6.06a76.33,76.33,0,0,0-9.62,1.25,1.69,1.69,0,0,0-1.06.62c-1.91-.14-3.83-.36-5.78-.67a1.49,1.49,0,0,0-1.74.81c-.13-.1-.26-.21-.4-.3-12.92-8.53-26.67-15.65-40-23.46l-1.37-1.26c-.1-.25-.2-.5-.32-.76-5-10.54-13.61-19.35-22.79-26.35-9-6.85-19.05-12.31-30.3-13.92-1.75-.79-3.52-1.53-5.33-2.2a49.77,49.77,0,0,0-5.39-1.66c-16.34-6.89-34-9.41-48.12,1.26a42.07,42.07,0,0,0-11.25,13.15c-14.28,14-23.45,34.39-31.13,51.93a7.89,7.89,0,0,0-.67,3.2,42.67,42.67,0,0,1-6.86,5.6,29.09,29.09,0,0,0-3.18,1.88,10.15,10.15,0,0,0-.87.69l-.29,0q-2.56.51-5.11.94c-6.77-2.34-13.3-2.23-18.09,1.42a7.72,7.72,0,0,0-6.49,3.69,7,7,0,0,0,0,7.22c-.72,2.92-1.08,6-1.74,8.87-.06.26-.13.53-.2.8a8.22,8.22,0,0,0-1.19,1.12,41.88,41.88,0,0,0-5.55,8.86,4.53,4.53,0,0,0-.26.6A7.86,7.86,0,0,0,360,257.6c-2.09,5.7-6.33,10.7-6.33,17v16c-4,3.15-2.44,10.95,2.52,12.84,12.29,4.7,24.29-1.16,32.24-10.74a7.59,7.59,0,0,0,1.66-3.35c7.51-4.3,13.38-11.48,18.15-18.9a19.26,19.26,0,0,0,.07,2.27c-5.48,8.47-8.41,18-11.21,27.77a6,6,0,0,0-.21,2.06,48.28,48.28,0,0,0-9.05,6.49,60.29,60.29,0,0,0-10.14,7.62c-6.67,3-13.27,6.69-18.14,12.12-1.12,1.25.95,4.54,2.57,3.87l.5-.19a1.42,1.42,0,0,0,.51.2,38.11,38.11,0,0,0,9.33.37c5.92,3.54,13,3.16,19.63-.56,1.94-1.09-.68-5.12-2.67-4a23.18,23.18,0,0,1-4.08,1.8c.27-1.23-1.33-3.22-2.42-3.48a59.93,59.93,0,0,0-11.66-1.42c1.93-1.18,3.95-2.25,6-3.25a1.51,1.51,0,0,0,1.55,0c1.51-1,3-1.9,4.6-2.81l.12,0a1.59,1.59,0,0,0,1.19-.1c.8-.41,1.57-.86,2.33-1.31a2,2,0,0,0,.62-.16l2.2-1.07c2.8-1.11,5.63-2.15,8.48-3.14a1.41,1.41,0,0,0,.73-.05l.29-.13a.61.61,0,0,0,.12,0l.66-.37,2.44-.82c.69,1.12,1.94,2,2.81,1.19a35,35,0,0,1,7.39-4.43c1.34-.67.51-2.83-.73-3.77a80.61,80.61,0,0,0,7.71-7.64,48.54,48.54,0,0,0,23.41-12.11,7.58,7.58,0,0,0,1.44-1.81c-2.31,5.38,3,10.74,8.6,9.61.83-.17,1.65-.28,2.49-.38a8.32,8.32,0,0,0,1.13.37c21.43,5.29,40.47-1.39,58-13.73,13.88-9.77,27.66-23,44.75-26.7a60.05,60.05,0,0,0,7.18,8.89c6.34,6.85,13.76,12.69,21.18,18.33A239.58,239.58,0,0,0,610.3,295c5.52,3.29,11.6,6.92,17.91,8.43a7.23,7.23,0,0,0,1.76.21c.74,1.65,1.45,3.32,2,5.05a7.27,7.27,0,0,0,4.25,4.61,26.35,26.35,0,0,0,5,4.2c7.81,5.08,15-7.44,7.22-12.5a8.86,8.86,0,0,1-3.18-3.5,86.78,86.78,0,0,1-.6-11.54c0-7.06-10.24-10-13.37-5h-4.14c-.22,0-.44.68-.66.7a5.61,5.61,0,0,0-1.71-2.06c-.77-.71-1.56-1.24-2.35-1.93a8.54,8.54,0,0,0-.6-.78c-1.13-1.44-2.22-2.86-3.3-4.33-.32-2.75,1-5.83,2.82-9.68,4.13-8.89,8.59-17.71,7.17-27.81-1.32-9.35-6.35-16.93-13.41-22.69a53.45,53.45,0,0,0,23-1.88,2,2,0,0,0,1.38-1.58c2.7-.57,5.4-1.1,8.11-1.48,4.43-.61,9.4-.89,13.44,1.13,0,7.4.33,15,3.81,21.64a19.61,19.61,0,0,0,3.34,4.65c2.22,3.67,5.84,6.16,11.85,6.34h0l1,.26c7.86,1.92,16.49-1,23.67-4.54,1.95-.45,3.87-.9,5.75-1.29a1.8,1.8,0,0,0,1.42-2.25c.37.34.67.53.77.43l.53-.53c.38.36.73.58.95.53,1.53-.36,3.06-.67,4.6-1a3.32,3.32,0,0,0,1.15,1c9.16,1.35,17.8-.26,25.28-5.92C745.9,231.44,743,227.59,742.45,228ZM425.76,279.63a5.49,5.49,0,0,0-.52-.44,6,6,0,0,0,1-.61l.27,0A5.26,5.26,0,0,0,425.76,279.63Zm19.33,2.87c-.1.15-.16.32-.25.47a5.88,5.88,0,0,0,.48-1.47l1.14-.95A16.87,16.87,0,0,0,445.09,282.5Zm19.25-4.42h-.19a15.42,15.42,0,0,1-.62-3.8l.13-.06a30.46,30.46,0,0,0,2.92,3.45C465.83,277.8,465.08,277.93,464.34,278.08Zm12-45.91-.51-1.12c.28-1,.55-2,.81-2.92,0,.41,0,.83,0,1.24C476.56,230.3,476.46,231.24,476.34,232.17ZM498.1,223c-.25-.29-.5-.57-.74-.86-.44-.51-1-1.21-1.49-2a25.82,25.82,0,0,1,3.45.75l.34.11,1.17.59Q499.43,222.2,498.1,223ZM666,233c-1.34-3.82-1.55-8-1.74-12,0-.48-.21-4.76-.08-6.27l.14.14c0,.49.08,1,.13,1.45.27,5.39.3,11.6,1.63,16.89C666,233.12,666,233.07,666,233Zm2.58,4.06a27.88,27.88,0,0,1-.86-6.27c0-.26,0-.52-.06-.78a33,33,0,0,0,6.74,10.59A15.64,15.64,0,0,1,668.54,237.07Z"/><path class="cls-1" d="M584.43,283.82c-1-.78-2-1.53-3-2.28.77-.34,1.08-1.09,0-2.16-5.13-5.23-9.31-11-14.44-16.25-.8-.82-3.38-1-3.38-.26v-1.45c0-1.75-3.52-2.75-4.68-1.63,0,0-.21,0-.23.06,0-1.56-3.48-2.75-4.46-1.54-.27.34-.57.7-.81,1.07a1.3,1.3,0,0,0-1,1.17c-.05.34-.12.68-.2,1a15.77,15.77,0,0,0-1.19,4.9c-.07.78.58,1.43,1.58,1.8v.21c-2-.54-3.06-.42-3.06.94a3.77,3.77,0,0,1-.9,2.36,24.21,24.21,0,0,0-3,7,16.18,16.18,0,0,0,.43,8.68c-.58.13-1.12.48-1.11,1.16a34.29,34.29,0,0,0,4.87,18,7.87,7.87,0,0,0-1.49,1.1,61.83,61.83,0,0,0-7.55,9.06,15.62,15.62,0,0,0,2.77-1.12c.54-.33,1-.66,1.51-1l-.12.28a4.54,4.54,0,0,0-.12,1.75c-.29.66-.58,1.25-.65,1.51a.5.5,0,0,0,0,.12l0,0c.91.37,3.37-1.49,4-2.12a11.58,11.58,0,0,0,1.18-1.6l0-.12a2.7,2.7,0,0,1-.23-.49c.44-1,.8-2.07.35-2.39.39-.84.93-1.68,1.21-2.5l.24-.17a18.37,18.37,0,0,0,1.67,3.55c.26.43,4.11-1.74,4.14-2.44,0-.37,0-.75.09-1.12l.2.6c.09.27,4.06-1.64,4.15-2.43.22-2.05,1.23-4,0-5.91-.17-.26-.94.09-1.78.59-.39-1.18-.78-2.36-1.18-3.55,0,0-.19,0-.46.09,0-.15,0-.31,0-.47a12.62,12.62,0,0,0-.43-2c2.19-1.32,4.45-2.52,6.75-3.64a1.51,1.51,0,0,0,.71,0c4.89-1.58,9.88-2.85,14.77-4.43,1.37-.44,1.28-1.49.39-2.42-.24-.24-.47-.49-.7-.74a3.15,3.15,0,0,0,1,.17l.92.71C582.9,286.74,586.91,285.76,584.43,283.82Zm-16.59-8.21c-1.16-.23-1.76.19-1.88.8l-.48-2.6C566.26,274.42,567.05,275,567.84,275.61Zm.24,3.33-.76.16c-.24-.33-.48-.67-.7-1a2.76,2.76,0,0,0,.9.59C567.71,278.75,567.89,278.85,568.08,278.94Zm-.22,7.19c-1.36.55-2.71,1.13-4,1.73,1.25-1.12,2.57-2.19,3.95-3.25.72.61,1.47,1.2,2.28,1.77A3.61,3.61,0,0,0,567.86,286.13Z"/><path class="cls-1" d="M564.64,322.62c-2.89-1.23-6-.93-8.87-2.16-2.19-.94-3.9.5-3.1,3.5h-10c-1.16,0-1.79-.21-2,.53-.81.07-1.63-.26-2.45-.24a2,2,0,0,0-.77,3.84c1.17.45,2.35.76,3.53,1.15a2,2,0,0,0,.9,3.13c6.91,2.53,13.28,1.8,20.47,1.7a1.87,1.87,0,0,0,1.91-2.61,2.31,2.31,0,0,0-.5-2.32,2.12,2.12,0,0,0,.37-2.57C566,326.14,566.93,323.59,564.64,322.62Zm-9.15,2.72a1.92,1.92,0,0,0,.07-.72c.32.23.62.48.92.72Z"/><path class="cls-1" d="M498.27,320c-6.84.1-13.82.95-19.84,4.95h-6.75c-.5,0-3.76.42-3.41.55s.79,0,1.19.15c-.36.08-.74,0-1.1.09-.16,0-2.48.71-1.31.86a58,58,0,0,0,7.29.45,31,31,0,0,0,24.89-2.58c.37-.21-.41.21-1.41.22a1.68,1.68,0,0,1-1,.26h-5.19a43.65,43.65,0,0,0,7.62-4.15C500.06,320.28,498.59,320,498.27,320Zm-4.62,1a44.49,44.49,0,0,1-4.22,2.78c-.46.23-.93,1.14-1.39,1.14h-5.76c1.42,0,4-2.39,5.47-2.83C487.42,322.24,496.56,319.17,493.65,321Z"/><path class="cls-1" d="M483,315.28a1.84,1.84,0,0,0-.13-1.73,72.86,72.86,0,0,0-6.36-10.1,26.78,26.78,0,0,0-2.83-3.71c-1.47-1.6-3.84-.87-4,.69a2.55,2.55,0,0,0-2.58.48l-.83-1.17a2.08,2.08,0,0,0-3.32-.42,2.06,2.06,0,0,0-3.48,1l-1-1a2,2,0,0,0-2.95,2.73,175,175,0,0,0,14.77,17.73c1.31,1.32,3.95,1.07,4-.6a1.87,1.87,0,0,0,1.41-1.74c1.25.43,2.82.06,3.07-1l.36.36C480.65,318.26,484.24,317.63,483,315.28Z"/><path class="cls-2" d="M240.15,195.9a25.72,25.72,0,0,0-10.59,1.3c-6.3,1.3-12.45,3.35-18.66,5.16a7.39,7.39,0,0,0-3,1.63,65.56,65.56,0,0,0-7,.85,5.79,5.79,0,0,0-2.44,1.12c-5.49-1.15-11.08-1.9-16.75-2.61-5.45-.67-8.42,5.81-6.68,10.24a6.61,6.61,0,0,0-1.27.46c-.46-.17-.91-.34-1.38-.5a6.14,6.14,0,0,0-6.12,1.18,30.75,30.75,0,0,0-3.37-4.36c.45-2.34.9-4.69,1.2-7.06,1.28-9.87-1.92-18.21-9.92-23.58-.83-1.25-1.61-2.53-2.32-3.87a7.84,7.84,0,0,0-.41-.69,9.72,9.72,0,0,0-.83-4.28c-1.16-2.71-2.34-5.41-3.59-8.06-2.06-6.75-4.55-13.33-8.83-19.27a9.11,9.11,0,0,0-3.17-2.81c-.79-1.76-1.57-3.54-2.3-5.34-2.7-6.61-11.37-7.19-13.93,0-2.65,7.42-8,13.72-13.95,19a58.38,58.38,0,0,0-22.49,8.93,9.07,9.07,0,0,0-1.1.89c-25.36,4.08-50.44,15.41-60.57,39.9-5.59,13.52-3.18,29.9,5.68,41.42s22.64,17.73,37,18.23c.71,9.16-2.5,18.24-3.14,27.58a24,24,0,0,0,1.06,9.24,5.85,5.85,0,0,0,1.94,4.26c4.39,7.42,13,12,22.11,14.52,6.15,1.72,9.66-3.82,8.62-8.55a45.1,45.1,0,0,0,8.14.11c9.41-.79,9.26-13.26.1-14.43a37.4,37.4,0,0,1-14.53-4.87,18.61,18.61,0,0,1-4.43-3.8A8.48,8.48,0,0,1,82,285.08c0-.19.15-1,0-.65a4.22,4.22,0,0,1,1.9-1.93c4.12-2.61,10.62-2.72,15.83-2.6,11.73.27,21.22,8.63,30.17,15.31,10.08,7.53,21.34,14.3,34.43,13.26,9.15-.73,9.53-14.3.1-14.43a29.65,29.65,0,0,1-13.9-3.41,8.92,8.92,0,0,0,3.26-2.3,33.8,33.8,0,0,0,12.83,2.32c5,0,10.52-1.41,15.27.7,7.34,3.25,14.5-5.07,8.69-11.38-.05,0-.22.32-.26-.48a8.78,8.78,0,0,1,.94-3.19c2-4.06,5.15-7.44,8.28-10.65a164,164,0,0,1,19.43-16.56,8.83,8.83,0,0,0,3.33-4.67,7.61,7.61,0,0,0,4-6.47c.11-6.23,1.12-12.4,1.24-18.63a7.82,7.82,0,0,0-.39-2.65,20.44,20.44,0,0,1,1.73-2.14c.86-.45,1.71-.94,2.55-1.46a7.32,7.32,0,0,0,1.89-1.73,12.45,12.45,0,0,1,1.33-.49,43.93,43.93,0,0,1,5.5-.52C249.44,210.1,249.34,196.63,240.15,195.9ZM90.66,227.33l0,0c.06-.63.14-1.25.22-1.86l.43.51C91.08,226.42,90.88,226.88,90.66,227.33Zm.43-44.14,2.21-1c.28.4.54.81.82,1.21Q92.6,183.25,91.09,183.19Z"/><path class="cls-3" d="M241.66,110.74l0,0a5,5,0,0,0,.48-1.73c.31-2.63-3.66-2.5-4.6-.65a22.48,22.48,0,0,1-1.41,2.35A4.29,4.29,0,0,0,233,112a13.27,13.27,0,0,0-3.75,2.58,1.47,1.47,0,0,0-.44,1l-.17.24c-1.11,1.75.41,3.32,2.32,3a12.52,12.52,0,0,0,2.65-.78l.76.06a14.76,14.76,0,0,0,3.89.77c1.21.05,3-1,2.62-2.46-.12-.41-.25-.87-.4-1.33a2,2,0,0,0,1.63-1.8C242.16,112.35,242.41,111.48,241.66,110.74Z"/><path class="cls-3" d="M282,90h-1.35a1.57,1.57,0,0,0-1.71-1h-3.66c-.94,0-2.61.94-2.61,1.88v.51a6.58,6.58,0,0,1-1.49-.32A2,2,0,0,0,269,94.42a3.15,3.15,0,0,0,2.69,2.06,12.62,12.62,0,0,1,3.94.41,2.11,2.11,0,0,0,2.92-2.36c.31-.16.65.43,1-.57H283C286,94,284.68,90,282,90Z"/><path class="cls-3" d="M232,134.54h-.34l2.84-3.27c1.13-1.28.69-2.44-.3-2.77l.92-1.85c1-2-1.19-2-2.74-1.34.53-1.38,1-2.76,1.52-4.16.84-2.43-2.42-2.17-3.54-1-.35.36-.68.73-1,1.11-3.56,1.31-5.83,7.47-7.6,10.27-4.18,6.62-8.36,13.25-12.75,19.75-.42.63-.85,1.26-1.28,1.88-9.59,9.84-17.86,21-28.76,29.45-1.42,1.1-1.33,2.47-.48,3-.25.21-.49.43-.74.63-2.25,1.86-.47,4.63,1.94,2.79.83-.63,1.62-1.3,2.43-1.95.1,1.07,1.19,1.75,2.5,1a38.58,38.58,0,0,0,3.61-2.2,2.14,2.14,0,0,0,1.28-.25c11.05-5.56,18.79-14.83,26.29-24.37a54.89,54.89,0,0,0,11.39-14c.62-.7,1.25-1.38,1.89-2.06,3.08-2.27,4.75-5.73,6-9.5C235.84,133.67,233.48,133.57,232,134.54Zm-7.72-.19c-.25.54-.51,1.08-.77,1.61l-.71.72C223.28,135.91,223.77,135.13,224.26,134.35Zm-22.65,38.39c2.11-2.74,4.1-5.6,6-8.45a2.57,2.57,0,0,0,1.21-.67c.46-.51.89-1,1.33-1.55a1.61,1.61,0,0,0,0,1A108.63,108.63,0,0,1,201.61,172.74Z"/><path class="cls-3" d="M266.22,133.63a40.68,40.68,0,0,0-4.5-3.68c-1.07-3.93-3.25-7.5-5.55-11-.54-1.69-1.14-3.37-1.74-5-.18-.5-1.45-1.27-2.47-1.89a2.37,2.37,0,0,0-.88-.88c-.1-.47-.18-.94-.28-1.4-.15-.67-1.67-1.49-2.75-2.13l-1.06-.81a38.42,38.42,0,0,0,.17,5.48h0l-.77-.59a35,35,0,0,0-.39,5l-.14-.1-.58-.43c-.06-.07-.11-.12-.11-.17a45,45,0,0,0,.55,6.28,31.14,31.14,0,0,0-3.6-2.62c0,.11-.05.22-.08.32a4.58,4.58,0,0,1-1.15-.92,26,26,0,0,0,.76,3.13.11.11,0,0,0,0,0c-.74-.43-1.49-.85-2.24-1.25a13.4,13.4,0,0,0,2.17,2c-.33,6.71,4.07,12.15,9.79,15.77,0,0,.64.4.67.29a22.63,22.63,0,0,0,.52-2.92c1.16.84,3.63,2.44,1.72.8-.41-.35-1.09-.79-1.67-1.3l0-.27s0,0,0,0a.28.28,0,0,0,0-.09c0-.34,0-.69.06-1l.44.33c.07.07.12.13.12.17,0-.31,0-.63,0-1l.18.11,1,.74L254,134c3.18,1.09,8.21,3.51,8.31,3.57,1.16.72.32-.19-.15-.6a14.65,14.65,0,0,1-3.31-4.07c.18.16.34.33.52.48s3,2,3,2a18.65,18.65,0,0,0-.45-4.52,43,43,0,0,0,4.06,3C266.69,134.35,266.81,134.18,266.22,133.63Zm-10.84-1.21a20.18,20.18,0,0,0,1.67,1.18c-.56-.29-1.13-.57-1.71-.83C255.36,132.65,255.37,132.54,255.38,132.42ZM246,130.56c.34.48.7.94,1.07,1.41a10.08,10.08,0,0,0,1.77,1.3.76.76,0,0,0,0,.15C248.45,137.11,246.71,132.82,246,130.56Z"/><path class="cls-3" d="M291.48,114.75h.08a78.27,78.27,0,0,0-6.12-19.54c-.3-.63-4.78-.92-4.78-.69v.07s-.82,0-1,0l-.16,0c.45,1.56,1,3.11,1.51,4.64l.15.89c-.55-.52-2.44-.47-3.66-.49l-1-.16c.06.14.14.26.21.39a33.37,33.37,0,0,0-3.87-.39c1.77,5.54,6,8.65,11.36,10,2.79,5.93,7,11.28,11.91,14.52,1.13.75,4.09.17,4.61.52A33,33,0,0,1,291.48,114.75ZM279.1,103.51l1.39.84c.81,1,1.59,2.11,2.3,3.23A14.09,14.09,0,0,1,279.1,103.51Z"/><path class="cls-3" d="M317.18,85.57a30.06,30.06,0,0,1-2.86-2.79c-2.91-11.49-7.58-22.45-12.18-33.35-.12-.3-1.95-3.41-1.92-2.07s.14,3,.3,4.5c-.49-1-1-2-1.43-3-.21-.46-2.47-3.72-1.85-1.69,1.06,3.54,2.16,7.08,3.35,10.6-1.44-2.74-2.87-5.49-4.21-8.27a5.33,5.33,0,0,0-.91-1.42c-.66-1-1.47-2-1.36-1.29.19,1.19.42,2.37.66,3.54a23.58,23.58,0,0,0-2.62-2.57c-.15-.12-.37-.31-.47,0A13.41,13.41,0,0,0,291,51c-.41-.41-.7-.52-.44.4.11.38.24.76.36,1.15,0,4.08,1.3,8.29,2.61,12a50.75,50.75,0,0,0,8.94,16.13c.28.32.78.78.75,0,0-.07,0-.14,0-.22.62,1.06,1.25,2.12,1.9,3.17a1,1,0,0,1-.36.54c-.6-1.28-1.91-3.42-2-3-.55,1.86-1.25,3.67-1.87,5.5a11.84,11.84,0,0,0-1.8-2.45,20.35,20.35,0,0,1-.48,3c-.1-.22-.2-.44-.31-.65s-1.35-2.44-1.65-1.77a8.55,8.55,0,0,0-.75,5.25,11.39,11.39,0,0,0-3.05-3.39c-.13-.1-.39-.32-.48,0s-.07.33-.11.5a14.05,14.05,0,0,0-3.29-1.85c-.14-.06-.22,0-.26.12-1.1,4.54,1.1,9.19,4.61,12.07a12,12,0,0,0,3,2.45c.13.06.22,0,.25-.13a10.72,10.72,0,0,0,.61-2,9.74,9.74,0,0,0,1.58.86c.14.06.22,0,.25-.13a11.18,11.18,0,0,0,1.25-4.66c.3-1,.59-2.07.81-3.13.24.43,1.42,2.32,1.61,1.69.48-1.64,1.07-3.24,1.63-4.84.41.8.89,1.44,1.33,1.32.63-.19,1.8-.55,2-1.32,0,0,.1,0,.22,0,.28.37,1,1.24,1,.33,0,0,0,0,0-.08l.68.22c-.06,1.31,2.29,4,2.37,3.8a27.6,27.6,0,0,1,1.22-3,.05.05,0,0,0,0,0c.26-.57.52-1.13.78-1.71a.84.84,0,0,1,.44-.48l.17.26c.44.65,1.24,1.36,1,0,0-.06,0-.13,0-.19a6.45,6.45,0,0,1,1.24.78c.67.66,1.35,1.28,2.05,1.88S317.88,86.22,317.18,85.57Zm-25.11,4.67a11.74,11.74,0,0,0,.41,1.73c-.38-.53-.78-1-1.15-1.52.19-.1.38-.2.58-.29ZM305.6,67.5a58.56,58.56,0,0,1-1.92-7,80.15,80.15,0,0,1,6.7,17.08c-.4-.63-.78-1.27-1.15-1.93C308.14,72.87,306.91,70.17,305.6,67.5Zm-7.39-9.4c.43,1,.8,1.94,1.15,2.93-.19-.29-.36-.59-.54-.88C298.61,59.47,298.41,58.79,298.21,58.1Zm4.89,15.44c.15.56.31,1.12.47,1.68-1.89-4-3.65-8.12-5.14-12.31A104.44,104.44,0,0,0,303.1,73.54Zm1-4.48c-.3-.83-.62-1.65-.94-2.48,1.9,4.06,3.84,8.09,5.88,12.08a50.51,50.51,0,0,1,1.27,5l-.51-.79A52.94,52.94,0,0,0,304.09,69.06ZM302.72,53.7c1.74,4.18,3.45,8.36,5,12.6.28.74.53,1.49.79,2.23-1.67-3.86-3.56-7.64-5.45-11.41C302.94,56,302.81,54.83,302.72,53.7Zm-7.21-.19c.14.59.29,1.18.45,1.76l-.5-.88c-.28-.51-1.74-2.22-1.28-.54.58,2.07,1.24,4.11,1.94,6.14-.93-1.72-1.87-3.43-2.79-5.14.05-.46.1-.92.17-1.38C293.79,51.59,294.74,52.49,295.51,53.51Zm3.87,20.9a38.71,38.71,0,0,1-3.21-6.16A35.54,35.54,0,0,1,294,61.73a126.89,126.89,0,0,0,6.77,14.59C300.74,77.35,299.74,74.94,299.38,74.41Zm-5.29-16c2.61,4.73,5.18,9.51,6.27,14.77A107.12,107.12,0,0,1,294.09,58.43Zm8.42,17.07c1.06,2.28,2.17,4.54,3.29,6.8a5.22,5.22,0,0,0,.36.59l0,.34c-1.13-1.74-2.23-3.5-3.26-5.3Q302.77,76.7,302.51,75.5Z"/><path class="cls-3" d="M298.09,242.54l-1-1.8c0-.05,0-.09,0-.15h0c-.07-.4-.14-.79-.22-1.19a1.66,1.66,0,0,0,.23-1.24l-.21-1.14c.5-.23.84-.24.83-1,0-.18,0-.09,0-.09h0v-.44a121.51,121.51,0,0,0-1.72-17.8c0-1.29-.08-2.68-.09-4a2.24,2.24,0,0,0-.94-1.8c-.65-3.26-1.37-6.54-2.13-9.79a2.37,2.37,0,0,0-2-1.69.06.06,0,0,1,0,0c-2.65-6.75-3.56-14-5.58-20.9l.12-.19c6.31-12.6,6.59-26.34,6.61-40.16a2.26,2.26,0,0,0-.26,0v-1.23c0-2.53-4.46-3.2-4.5-.67,0,1.55,0,3.1-.08,4.64-1.15-1-3.3-1.21-3.85.36a24.19,24.19,0,0,0-.71,2.61,2.81,2.81,0,0,0-.65-.07c-.32-1.21-.64-2.41-1-3.62a1.69,1.69,0,0,0,.28-1.32,20,20,0,0,0-3.12-8.12c-.19-.55-.35-1.1-.54-1.65a3.1,3.1,0,0,0-2.37-1.67,17.79,17.79,0,0,0-2.74-2,75.58,75.58,0,0,0-7.42-5.57c-1.4-1-5,0-3.63,2.15a28,28,0,0,0,11.43,10.76,2.32,2.32,0,0,0,.17.84,31.81,31.81,0,0,1,1.95,6.62,22,22,0,0,1-1.84-3.7c-.75-2-5.3-1.47-4.56.86l.18.52a12.33,12.33,0,0,0-1.8-.62c-1.26-.33-3.69,0-3.26,1.93l.06.24a1.54,1.54,0,0,0-.5,2.09,22.77,22.77,0,0,0,2.32,3.81,57,57,0,0,0,7.77,13.72l.09.1c.58,2.13,1.27,4.23,2.05,6.28a45.84,45.84,0,0,1-3.79,8.31,2.55,2.55,0,0,0-1.45.64c-5.1,4.81-8,11.28-9.62,18-.28,1.17.73,1.95,1.88,2.18,0,.39.05.79.09,1.19a2.3,2.3,0,0,0-.12.81c.48,14.26,13.22,24.3,22.62,34.64a51.56,51.56,0,0,0,1.36,9.49c.81,3.83,1.95,7.62,2.92,11.44-.12,3.39-.15,6.78-.15,10.17a69.3,69.3,0,0,0-1.54,7.53q-.75,2-1.35,4c-5.93,9.22-3.37,20.94,1.79,30,.84,1.87,1.74,3.73,2.61,5.59a2.51,2.51,0,0,0,1.87,1.17,2.79,2.79,0,0,0,1.65-.09,1.44,1.44,0,0,0,1.05-1.42,120.86,120.86,0,0,0,.62-20.92c.55-6.41,1.27-12.81,1.31-19.26a62.69,62.69,0,0,0-.66-9,1.64,1.64,0,0,0,1.17-1.45,68.31,68.31,0,0,0-.06-14.78A1.37,1.37,0,0,0,298.09,242.54Zm-20-50.61c.06.45.12.89.19,1.33a2.37,2.37,0,0,0-.46-.11Zm1.56-21.33.09.81c0,.06-.09.1-.11.16a15.48,15.48,0,0,0-.76,2,2.66,2.66,0,0,0-.63,0,1.85,1.85,0,0,0-.58-.37c.4-.81.79-1.65,1.16-2.53A2.89,2.89,0,0,0,279.66,170.6Zm1,49.57c.63,1.21,1.27,2.42,1.91,3.63-1-1.05-2-2.1-3-3.16A2.67,2.67,0,0,0,280.63,220.17Z"/><path class="cls-3" d="M275,228.37c-.87-2.33-2.31-3.87-3.8-5.83a3.75,3.75,0,0,0-1.23-.95c-.43-.73-.84-1.48-1.22-2.24-.87-2.72-1.85-5.4-2.9-8.07-.36-.91-2.68-1.83-3.89-1.68-.63-1.16-4-2.45-4.25-1.59-2.8,8.82-5.13,17.79-8.15,26.54C246.3,244,241.51,252,236,260.28c-9.23,13.83-11.45,28.08-10.05,44.41.11,1.24,4.47,2.7,4.37,1.6l-.18-2.37c.52,1.13,4,2.75,4.56,1.08a29.89,29.89,0,0,0,1.28-5.95c.17-.82.33-1.65.48-2.48a1.27,1.27,0,0,0,.07-.12,122,122,0,0,0,4.28-12.82,1.23,1.23,0,0,0-.61-1.23l.21-.55c.76-1.44,1.48-2.91,2.14-4.4a1.21,1.21,0,0,0,.52-.26c4-3.91,6.21-9.15,7.87-14.59,2.56-3.78,5.28-7.46,8-11.05.6-.79-.38-1.65-1.56-2.09,1.24-2.17,2.44-4.36,3.54-6.61,3.89-3.68,6.26-8.31,8.44-13.11,1.14.27,2.19.2,2-.76,0-.17-.07-.33-.11-.5C272.42,229.06,275.54,229.81,275,228.37ZM241.24,261c2.15-3.23,4.14-6.44,6-9.72a.13.13,0,0,0,0,.06l-.21.73c-.1.2-.19.4-.28.59a56.58,56.58,0,0,0-6.52,12.19,52,52,0,0,0-3.41,5.79,6.59,6.59,0,0,0-1.47.36A91.24,91.24,0,0,1,241.24,261Z"/><path class="cls-4" d="M268.73,109.54c-.36-.25-.71-.5-1.05-.76a3.31,3.31,0,0,0-.52-1.26c-2.19-3.28-4.31-6.51-5-10.48a2.75,2.75,0,0,0-.63-1.25.83.83,0,0,0-.11-.78,11.65,11.65,0,0,0-1-1.49A14,14,0,0,1,259,90a4.15,4.15,0,0,0,1.43-.56,6.93,6.93,0,0,0,1.43.14c.72,0,1.48-.1,1.54-1,0-.47.06-1,.07-1.44.58,0,1.05-.13,1.11-.66a19.36,19.36,0,0,0-.14-5.7c1.13.27,2.32.29,2-.75a23.35,23.35,0,0,0-1.95-5.25,5,5,0,0,0-2.53-1.4,62.6,62.6,0,0,0-4.18-7.15c-.54-.82-4.8-2.77-4.46-.64.05.28.1.55.16.83a1.57,1.57,0,0,0-1,.15,4.25,4.25,0,0,0-6-.12,3.67,3.67,0,0,0-1.24,2,.75.75,0,0,0-.44.49c-1.27,4.82.19,11.36,2.66,15.58a8.22,8.22,0,0,0,3.25,3,21,21,0,0,0,1.38,1.7c-.85,0-1.6.31-1.1,1.24l.06.14c-1.21-.32-2.35-.26-1.91,1a2.7,2.7,0,0,0-.75.09,1,1,0,0,0-.59.47,1.2,1.2,0,0,0-1,.33c-1.26,1.6.56,3.91,1.94,4.76.77.47,2.29.89,3.08.22a1.7,1.7,0,0,0,.48-.75c1.36.37,2.7.9,4,1.38,2.62,4.89,4.43,9.23,9.29,12.61C267.16,111.76,271.31,111.33,268.73,109.54ZM257,94.61l.08.13h0l.24.37a2.9,2.9,0,0,0,1.4.79c0,.11,0,.23,0,.35a8.63,8.63,0,0,0-1.23-.46C257.37,95.4,257.19,95,257,94.61Z"/><path class="cls-4" d="M180.31,195.47l-.52-.53c.32-1.18-.81-2.15-1.85-2.56l-.08-.16c-1-2.26-5.05-2.22-4.59.17a2,2,0,0,0-2.34.28c-3.29,3-4.56,7.14-5.29,11.38-.07.18-.14.36-.19.54a2,2,0,0,0,0,1.17,2.6,2.6,0,0,0,1.24,2c-.21.76-.42,1.54-.62,2.32-.6,2.34,2.84,4,4.28,2.07a76.15,76.15,0,0,0,7.78-13.34C180.05,199.44,182.15,197.35,180.31,195.47Z"/><path class="cls-4" d="M293.79,39.32c-.22-.28-.4-.52-.57-.76.1,0,.14-.15.08-.4-.19-.78-.36-1.57-.49-2.36a89.46,89.46,0,0,0-.73-15.34,1.19,1.19,0,0,0-.12-.29c-.13-1.14-.29-2.27-.49-3.37-.14-.75-3.18-3.94-3.38-2.86a33.27,33.27,0,0,0-.4,8.44c-.9-1.15-2.35-2.58-2.66-1.73a21,21,0,0,0-.91,9.69,24.18,24.18,0,0,0,.34,5.26,5.12,5.12,0,0,0,1.07,1.55l-.59.08a1.54,1.54,0,0,0-.85-.36,53,53,0,0,0-7.44,1c-.19-.11-.36.06-.49.06H273.1c-1,0,1.78,3.14,2.57,3.38.11,0,.22-.07.33,0a1.58,1.58,0,0,0,1.18.53l1-.22c4.26.47,8.39-.78,12.74-1,.88.75,1.79,1.26,1.8.94s0-.92,0-1.38C294,41.1,295.42,41.42,293.79,39.32Z"/><path class="cls-1" d="M229.67,113.12c-2.21,4.26,3.21,7.48,6.13,3.78.92-1.18.33-3.29-.65-4.25-1.24-1.21-2.9,0-3.65,1.08a.41.41,0,0,0,.16.59c3.2,2.06,6-1,5.38-4.21,0-.25-.4-.15-.61-.15h-.61c-.49,0-1.66.11-1.25.81.51.86,1.11,1.09,1.83,1.72a1.31,1.31,0,0,0,1.81-.39,10.89,10.89,0,0,0,1.34-4.47c-.65.06-.89.1-1.89.16v.61c0,.59.65.59,1.07.49a3.69,3.69,0,0,0,1.83-1c.87-.79-1-1-1.6-.47-.2.09-.31.17-.51.26.38.16.21.33,1.21.49v-.61c0-.93-2-.59-2,.19a9.82,9.82,0,0,1-1.21,4.11l1.79-.34a7.26,7.26,0,0,1-1.85-1.73c-.41.34-.83.13-1.25,1.13h.61c-.2,0-.41-.34-.61-.47.23,1.2-.06,4.05-1.94,2.84.05.19.1.37.15.57.42-.61.74.67.83,1a2.09,2.09,0,0,1-.09,1.73c-.86,1.09-1.86.61-2.54-.29a2.94,2.94,0,0,1,0-3.08c.48-.92-1.48-.82-1.82-.14Z"/><path class="cls-1" d="M236.41,115.44c.27.35-.35.91.22,1.24a1.81,1.81,0,0,0,2.26-.36,6.39,6.39,0,0,0,1.82-4.43l-1.94.34c.14,1,1.29,1,2.09,1,1.08,0,1.5-1.34.19-1.35-.28,0-.31,0-.35-.19-.11-.8-1.93-.39-1.94.34A5.39,5.39,0,0,1,237.1,116l1.15-.41c0,.33.05.42.08.26a2.2,2.2,0,0,0,.12-.44,1,1,0,0,0-.27-.79c-.51-.66-2.36.08-1.77.84Z"/><path class="cls-1" d="M269.89,91.27A3.69,3.69,0,0,0,273.6,95c.43,0,1.1-.12,1.25-.6.72-2.33.18-3.8-2.43-3.93a1.17,1.17,0,0,0-1.31.8c-.39,1.85.34,4.09,2.68,3.44,2.65-.73,3.74-3.46,3.56-6-.08-1.07-1.82-.79-2,.12-.29,1.85-.45,4.52,2.12,4.36,1.86-.12,3.55-1.72,5-2.72,1.08-.74-.48-1.51-1.3-1s-1.75,1.27-2.69,1.8c-1.87,1.05-1.37-1.4-1.17-2.61l-2,.12a5.13,5.13,0,0,1-1,3.88c-1.32,1.61-1.49-.57-1.29-1.56l-1.3.8c1.64.08,1.63.88,1.22,2.18l1.26-.6a2.34,2.34,0,0,1-2.4-2.38c-.08-1.06-2-.79-2,.12Z"/><path class="cls-1" d="M227.41,124.79c-2.84,1.54-.42,6,.37,8.19.14.41,1.76-.14,1.92-.44,1.46-2.82.68-7-3.2-6.23-4.35.83-3.11,6.09-3,9.33,0,.11.29.32.33.32h1.22c.3,0,1.6-.6,1.6-1.05v-1.83c0-.06-.09-.09-.16-.1-3.6-.62-9.14,2.29-4.16,5.56.31.2,1.88-.13,1.88-.58,0-4.89-11.48-.61-4.93,4.85l1.71-.67c-3.32-.24-7.1.54-7.87,4.27l.05.06c1.15.67.71.54,1.95.65.18,0,2-.33,1.76-.61-3.94-5.14-11.21,6.3-2.62,5.49.27,0,1.39-.21,1.39-.61V149c0-.06-.08-.09-.16-.09-4.65-.36-8.26,1.53-7.87,6.71,0,.11.29.11.34.11.87,0,.58-.64-1-.15a7.12,7.12,0,0,0-2.82,1.93c-2.27,2.28-.81,4.37,1.8,4.92.33.07,1.76-.14,1.77-.61.09-5.34-7.48-1.92-6.82,2.88.54-.2,1.07-.69,1.6-.69h-.11c-.37,0-2.19,1-1.27,1h.72c.3,0,1.8-.3,1.8-.75V163s-.13,0-.15-.06c-3.72-1.44-11,4.6-6.15,6.74a2.5,2.5,0,0,0,1.8-.63c-2.33-1.12-4.27-.56-6.13,1.18-1.58,1.47-1.63,2.08-3.48,3.13a11.26,11.26,0,0,0-4.48,5.34c0,.06,0,.1,0,.14a11.76,11.76,0,0,0,3.94.65c.26,0,1.8-.59,1.55-.68-5.37-1.87-12,3-15.29,6.79-.14.16.27.37.31.37h2.44c.37,0,2.19-.91,1.27-.91-2.1,0-1.09-1,0-2,2.27-2,6.28-4.73,9.49-3.61.52-.22,1-.47,1.55-.7-7-.13,1.47-5.75,2.74-6.19,1.74-.6.59-4.67,4.26-2.91l1.83-.64c-4.86-2.15,2.39-5.92,2.39-4.38.54-.21,1.07-.7,1.6-.7h-.72c-.37,0-2.19,1-1.27,1h.11c.26,0,1.66-.26,1.6-.69-.43-3.14,3-5.61,3-2l1.77-.63c-4.28-.9-2.36-5.64,1.21-6,.28,0,2-.72,1.07-.72-3.1,0,3.89-9.52,3.89-3l1.4-.61c-5.77.55-2.06-6.73-.18-4.28l1.77-.61,2.67-3.57c.23,0,2.06-.37,1.72-.66-1.53-1.28-2.38-2.36-1.66-4.31s2.84-1.25,2.83.61l1.88-.58a3.13,3.13,0,0,1-1.85-2c-.28-2,.52-2.1,2.41-.44l1.6-.63c-1.84,0-1.1-5.54-.82-6.71.71-2.93,2.66.24,2.88.93a5.35,5.35,0,0,1-.59,3.89l1.91-.44c-.55-1.57-3.06-6.48-.84-7.68.8-.44-1.14-.17-1.46,0Z"/><path class="cls-1" d="M185,182.31c7.53-6.87,15.2-13.57,20.88-22.11.52-.78-1.46-.37-1.79,0a45.68,45.68,0,0,0-4.27,5.5c-.51.76,1.24.39,1.49.26,7.07-3.85,11.39-10.82,15.52-17.48,5-8.09,11.6-15,16.53-23.07.45-.74-1.48-.51-1.79,0-4.44,7.26-10.52,13.37-15,20.64s-8.75,15.23-16.41,19.4l1.49.26a46.37,46.37,0,0,1,4.27-5.49H204c-5.61,8.44-13.19,15.06-20.62,21.85-.82.74,1.1.67,1.53.27Z"/><path class="cls-1" d="M289.5,87.28c2.06,1.8,4.87,1.35,4.31-1.82,0-.2-.43-.18-.56-.18-2.37,0-3.76,2.8-1.61,4.37s3.9-1.24,4-3c0-.51-1.74.11-1.92.42-1.08,1.84.39,1.77,1.88,2.62.37.21,1.78,0,1.87-.5.21-1.32,1-2.29,1.17-3.66a18,18,0,0,1-2,.42v1.83c0,.08.15.12.23.14,5,1.11,5.6-2.68,7.88-6l-1.85.5A2.72,2.72,0,0,0,307,80.55c.5-3.47-3.61-4.13-6.1-3.79-.31,0-1.21.24-1.21.67v1.83c0,.08.18.13.26.14,3.06,1,6-.46,4.92-3.94-.91-3-4.21-3.43-5.64-.57-.11.2.23.25.35.27a.71.71,0,0,1,.27,1c-.09.55,1.83.2,1.92-.32s.38-1.26-.34-1.39l-.06-.24c.41-.59.48-.67.23-.26a3.15,3.15,0,0,1,.95,1.1,5.48,5.48,0,0,1,.7,2.37A2.91,2.91,0,0,1,303,78.5c-.57,1.65-1.29-1.11-1.29-1.59l-1.13.67c1.85-.26,3.47.22,4.24,2,.13.31.28,2.34-.12,2.14a1.74,1.74,0,0,0-1.86.5,17.44,17.44,0,0,0-1.37,2.6c-.15.36-.32.7-.49,1-.69,1.37-2.32,1.22-2.32-.4,0-.41-1.87-.07-1.92.41-.16,1.38-1,2.35-1.23,3.67l1.87-.5c-1-.56-2.57-.91-1.78-2.26l-1.93.42a3.09,3.09,0,0,1-.5,2l.43-.11a1.66,1.66,0,0,1-.89-.82,2.49,2.49,0,0,1,.44-2.66l-1.36.59c.68-.16.75.06.2.66q0,.91-.72-.21c-.42-.37-2.18.36-1.81.68Z"/><path class="cls-1" d="M299,74c-3.95.14-.32-10.65-6.61-7.19l1.42.56a18.94,18.94,0,0,0-.73-5.24c-.61-2-1.91-3.92-2.34-5.94-.2-1-2.14-.46-1.93.51.81,3.85,2.94,6.65,3,10.79,0,.71.9.85,1.42.56,1.73-1,1.93,4.4,2.23,5.32a3.09,3.09,0,0,0,3.36,2.15c1.13,0,1.46-1.57.14-1.52Z"/><path class="cls-1" d="M304.06,56.9c.64,0,2.08-1,.78-1-.65,0-2.08,1-.78,1Z"/><path class="cls-1" d="M301.64,46.13c-.49,4.25.18,9.22,3,12.57,1.9,2.22-2,7,1,9.06,2.48,1.71-1.11,7.62,2.5,8.68,2,.59,3.12-2.18,3.39-3.63.16-.92-1.62-.5-1.89,0-1.45,2.78-.82,5.1,2.17,6.16.44.16,1.76-.17,1.54-.86-1.32-4-2.49-8.12-3.66-12.21-.23-.8-2.16-.28-1.94.52,1.17,4.09,2.35,8.17,3.67,12.21l1.53-.86q-3.33-2.13-1.48-4.82l-1.89,0c-.39,2.1-1.17.66-1.18-1.41a13.52,13.52,0,0,1,.68-3.66c.07-.25-.19-.45-.4-.5-5.34-1.5.42-6.61-1.51-9a15.74,15.74,0,0,1-3.58-12.51c.11-.9-1.86-.59-1.95.19Z"/><path class="cls-1" d="M306.42,55.27c-1.75-1.29-1.77-3.89-2.23-5.83-.2-.85-2.14-.34-1.93.52.54,2.28.62,4.87,2.66,6.38.65.48,2.36-.43,1.5-1.07Z"/><path class="cls-1" d="M298.6,44.46c.51,1.61.71,3.29,1.22,4.89.12.37,1.82-.11,1.91-.44.39-1.32.48-3.67-1.37-3.83a2.82,2.82,0,0,0-1.34.26c-.11,0-.7.4-.26.44,1.56.14,1.38,2.47,1.07,3.49l1.92-.44c-.51-1.6-.71-3.28-1.22-4.88-.12-.39-2,.17-1.93.51Z"/><path class="cls-1" d="M292.42,54.06a11.16,11.16,0,0,0,6.85-5.45c.37-.68-.65-1-1.12-.83a10.27,10.27,0,0,0-6.23,5.46c-.44.83.9.94,1.37.73,3.33-1.51,5-4.8,7.09-7.62.6-.82-.61-1.31-1.25-.92-2.83,1.72-5.5,3.64-8.15,5.63l1.58.6c1.11-2,4.22-3.92,3.69-6.49l-1,1c2.13-.18,3.16-1.4,4.56-2.87.84-.9-1-1.29-1.63-.63-.82.86-1.45,1.9-2.77,2-.5,0-1.17.41-1.05,1,.24,1.13-.84,2.08-1.52,2.85a16.69,16.69,0,0,0-2.1,2.86c-.52.93,1.13.94,1.58.6,2.51-1.88,5-3.72,7.72-5.36l-1.25-.91c-1.84,2.52-3.36,5.68-6.34,7l1.37.73a8,8,0,0,1,4.75-4.31l-1.12-.83a8.75,8.75,0,0,1-5.36,4.31c-1.19.35-.82,1.75.37,1.4Z"/><path class="cls-1" d="M180.17,187.32a29.22,29.22,0,0,0,5.55,6.8c.31.3,2.09-.18,1.87-.61l-1.83-3.66c-.27-.53-2.13.13-1.93.52l1.83,3.66,1.87-.6a28.56,28.56,0,0,1-5.43-6.63c-.28-.54-2.13.14-1.93.52Z"/><path class="cls-1" d="M182,185.43a1,1,0,0,0-.77-.5,1.35,1.35,0,0,0-1.27.56c-.41.82.81,2.78,1.1,3.51.54,1.35,1.44,2.95,1.53,4.42l1.93-.52a7.25,7.25,0,0,0-4.67-4c-.4-.14-1.81.18-1.54.86,1.17,2.9,4.48,3.1,6.65,1.19.87-.77-1-.95-1.59-.46-1.27,1.12-2.63,0-3.13-1.25l-1.53.85a6.09,6.09,0,0,1,3.88,3.33c.31.81,2,.3,1.93-.52a13.66,13.66,0,0,0-1.32-3.89l-.88-2.22c-.12-.3-.23-.6-.34-.91s0-.55-.19-.24l-1.27.56c-.5-.07-.51-.27-.3,0,.44.64,2.3-.05,1.78-.81Z"/><path class="cls-1" d="M253.45,113.61a5.44,5.44,0,0,0-3.69,5.33c0,.11.29.12.33.12,2,0,4.43-.19,5.25-2.39.15-.41-1.36,0-1.5.08a4.19,4.19,0,0,0-2.23,2.11c-.17.34,1.59,0,1.82-.26l2.44-2.45c.21-.2,0-.29-.24-.28a5,5,0,0,0-2.81.84c-.79.58-.94,1.91-1.21,2.76-.11.33,1.75.11,1.9-.35s.32-1.08.49-1.61a6.65,6.65,0,0,1,.27-.61c.14-.27.48-.3.1-.28l-.24-.29-2.44,2.44,1.82-.27a2.79,2.79,0,0,1,1.43-1.55l-1.5.08a2.73,2.73,0,0,1-.74,1.2c-.23.21-1,.08-1.34.08l.33.11c0-1.66.67-3.78,2.41-4.43.07,0,.87-.34.59-.51s-.93,0-1.24.13Z"/><path class="cls-1" d="M257.67,123.79a9.85,9.85,0,0,0-4.79,4c-.25.37.21.55.52.55,2.34-.06,4.92-1,5-3.72a.31.31,0,0,0-.2-.33,4.21,4.21,0,0,0-6,2.42c0,.14.08.28.2.33,3.12,1.42,7.11-.72,7.23-4.25,0-.63-1-.38-1.35-.26a7.46,7.46,0,0,0-4.25,4.79.27.27,0,0,0,.07.25,2.17,2.17,0,0,0,1.74.77,1.63,1.63,0,0,0,1.28-.53c.26-.37-.23-.54-.52-.55-1.14,0,0-1.7.29-2.12a4.39,4.39,0,0,1,2.15-1.84l-1.34-.26c-.07,2-1.57,4.08-3.76,3.08.06.11.13.22.19.34a3.69,3.69,0,0,1,.78-1.29c.56-.58,1.16-.32,1.76,0-.06-.11-.13-.22-.19-.34a2.17,2.17,0,0,1-2.32,2.39l.51.55a7.87,7.87,0,0,1,3.76-3.29c.23-.08.82-.45.52-.76s-.93-.13-1.28,0Z"/><path class="cls-1" d="M259.1,127.67a2.62,2.62,0,0,0-.79,1.51.32.32,0,0,0,.2.36l1.22.61c.43.22,1.66,0,1.73-.59a2.8,2.8,0,0,1,1-1.55c.2-.2.3-.49,0-.65a1.53,1.53,0,0,0-1.15.06c-1.9.67-3.58,2.06-3.64,4.2,0,.33.3.45.6.45,1.45,0,3,0,4.2-1,.32-.28.2-.63-.19-.72a1.64,1.64,0,0,0-1.36.37c-.42.37-1.39.22-1.91.22l.6.45a3.26,3.26,0,0,1,2.47-3.13l-1.16-.59a3.92,3.92,0,0,0-1.42,2.12l1.74-.59-1.22-.62.2.37a1.56,1.56,0,0,1,.42-.94c.79-.83-1.1-.82-1.56-.34Z"/><path class="cls-1" d="M262,132.72c.94,0,1.94-.22,1.94-1.32,0-.89-1.93-.51-1.94.21v.56c-.08.38.2-.21.81-.21h-.09c-.45,0-1-.09-1.26.33s.19.43.54.43Z"/><path class="cls-1" d="M256.49,122.29c.71-.73,1.19-1.73,2.13-2.23.12-.06.45-.22.4-.41s-.42-.17-.56-.17a3.65,3.65,0,0,0-2.56.79c-.39.4-.4,1.13-.64,1.63-.16.34.68.25.79.23.34-.06.95-.2,1.12-.55a5.84,5.84,0,0,0,.37-1.14.87.87,0,0,1,.16-.32,1,1,0,0,1-.48.22,2.84,2.84,0,0,1,.42,0l-.15-.58a5.85,5.85,0,0,0-1.68,1.32c-.38.43-.68.92-1.08,1.33s.27.38.47.37a2.09,2.09,0,0,0,1.29-.48Z"/><path class="cls-1" d="M281.6,106.34c.51-1.61.71-3.28,1.22-4.89.19-.58-1.73-.32-1.92.28-.51,1.6-.71,3.28-1.22,4.88-.19.59,1.73.32,1.92-.27Z"/><path class="cls-1" d="M279.86,102.63a6.42,6.42,0,0,0-2,4.57c0,.33.29.46.6.46,2.28,0,4.19-.88,5-3.13.24-.69-1.7-.44-1.94.23a2.25,2.25,0,0,1-2.32,1.75l.59.46a5.51,5.51,0,0,1,1.65-4c.8-.82-1.09-.84-1.56-.36Z"/><path class="cls-1" d="M279.75,108.12a10.73,10.73,0,0,0,2.58,2c.53.27,1.65.11,1.73-.63s.54-1.17.61-1.83l-2,.15c0,1.07.58,2,.61,3.06s2,.68,2-.16c0-1.07-.58-2-.61-3s-1.87-.69-2,.15c-.06.65-.54,1.17-.61,1.83l1.73-.62a9,9,0,0,1-2.31-1.71c-.6-.6-2.43.18-1.77.85Z"/><path class="cls-1" d="M277.83,112.05a5.31,5.31,0,0,0,1.31,3.39c.39.51,1.91.26,1.86-.5-.12-2.24-.58-4.21-2.67-5.35-.52-.28-1.64-.11-1.72.63A7.72,7.72,0,0,0,280.5,118a1.27,1.27,0,0,0,1.67-.45c1.65-3.22-.74-5.39-3.23-7.36-.46-.37-2,0-1.71.81,1.06,2.88,3.43,4.79,5.57,6.87.51.49,1.74.28,1.87-.5a6.91,6.91,0,0,0-1.93-5.83c-.47-.56-2.05-.18-1.85.68a17.24,17.24,0,0,0,7.55,10c.48.32,2,0,1.71-.8a11.47,11.47,0,0,0-4.49-5.78c-.57-.42-2.13.14-1.63,1a76.06,76.06,0,0,1,4.8,9c.35.81,2.17.36,1.93-.52a28.82,28.82,0,0,0-2.07-6.27c-.33-.61-2-.18-2,.5v7.94c0,1.05,1.9.59,2.12-.16.45-1.53.68-2.37.07-3.84-.29-.69-1.62-.52-1.85.16a9.89,9.89,0,0,0,0,5.85c.22.87,1.8.35,1.95-.34a32.18,32.18,0,0,0,.62-6.71c0-1-1.79-.64-2,.16-.47,2.23.34,3.4,2.07,4.74.58.45,1.76,0,1.71-.81a6.69,6.69,0,0,0-1.91-4.43l-1.77.84,3.66,3.66c.49.49,2.08.22,1.85-.68-1.18-4.72-6-8.77-10-11.28-.68-.42-2.39.44-1.5,1.1a107.14,107.14,0,0,1,12.07,10.86c.46.45,2.26.14,1.85-.68-2.44-5-7.34-8.28-11.81-11.28l-1.5,1.1a36.13,36.13,0,0,1,9,7.2l1.23-1.11c-6.21-1.08-10.57-6.94-16.08-9.63-.53-.26-2.25.12-1.63,1s.51.82,1.36,1.35c.45.28,1.74.1,1.72-.63a9.59,9.59,0,0,0-.48-3.23c-.27-.76-1.81-.46-1.81.34v3.66c0,1,1.46.65,1.76,0,1-2.06.69-3.6-.77-5.4-.41-.51-2-.26-2,.5v4.88c1,0,1.36-.11,2-.16a15.41,15.41,0,0,0-.6-5.06c-.28-.82-1.81-.41-1.93.34-.3,1.87.42,3,1.32,4.61.42.73,2.27,0,1.78-.84-.79-1.38-1.4-2.23-1.13-3.93l-1.94.34a14.57,14.57,0,0,1,.56,4.7c0,1,1.92.68,1.92-.16v-4.88a10.56,10.56,0,0,0-1.82.5,3.35,3.35,0,0,1,.75,4.36l2.07,0v-3.66c-1,.11-1.45.22-2.1.34a6.09,6.09,0,0,1,.52,2.87l1.68-.63-1.1-1.09-1.64,1c5.85,2.86,10.25,8.76,16.88,9.91.46.08,1.77-.47,1.22-1.1a37.28,37.28,0,0,0-9.29-7.46c-.69-.41-2.41.48-1.5,1.1,4.24,2.84,9.06,6,11.38,10.7l1.85-.68a111.14,111.14,0,0,0-12.34-11.12l-1.5,1.1c3.74,2.37,8.43,6.2,9.55,10.7l1.85-.68-3.66-3.66c-.58-.58-2.42.11-1.77.84a6.21,6.21,0,0,1,1.75,4.11l1.71-.81q-2.46-1.36-1.6-3.8l-1.95.16a32.86,32.86,0,0,1-.61,6.71l1.94-.34a8.79,8.79,0,0,1-.05-5.13l-1.88.16a4.67,4.67,0,0,1-.15,3.48,17.87,17.87,0,0,0,1.81-.16v-7.94c0,.17-1.1.34-1.72.5,1,1.89,1.27,3.92,1.82,6,.64-.18,1.32-.35,2-.52a77.71,77.71,0,0,0-5-9.32l-1.63,1a10.15,10.15,0,0,1,4.07,5.21l1.71-.81a16.25,16.25,0,0,1-7.11-9.48l-1.85.68a5.92,5.92,0,0,1,1.74,5.15l1.87-.5c-2-2-4.41-3.81-5.42-6.55l-1.71.8c1.72,1.37,4.34,3.22,2.88,6.07l1.67-.44a6.72,6.72,0,0,1-3.44-6.86l-1.72.63c1.76,1,2.1,2.54,2.21,4.41l1.86-.5a3.58,3.58,0,0,1-1.13-2.71c0-1-2-.68-1.95.16Z"/><path class="cls-1" d="M242.43,126.27a4.82,4.82,0,0,0,2.65,3.29,1.33,1.33,0,0,0,1.73-.6c.16-.63.45-1,.61-1.67.09-.33-.36-.33-.61-.33h-1.22c-.36,0-1.33,0-1.33.54,0,3.27.33,6.83,4.27,7.13.44,0,1.67-.39,1.26-1-1.28-2-3.87-1.27-4.81-3.51-1.13-2.66-.07-6.25,0-9.05,0-.65-1-.56-1.37-.36a4.53,4.53,0,0,0-2.34,2.24.42.42,0,0,0,.33.62c2.9.44,4.75-1.32,6.37-3.57.54-.76-1.32-.72-1.69-.26a5.58,5.58,0,0,0-1.41,4,.45.45,0,0,0,.39.47c2.78.44,4.26-1.25,5.21-3.73.28-.72-1.61-.51-1.87,0-.66,1.41-1.18,2.87-1.84,4.28-.39.85,1.15.68,1.53.39a10,10,0,0,1,2.22-1.1l-1.3-.52a12.82,12.82,0,0,0-1.29,4.44c-.06.87,1.89.51,1.94-.21a11.86,11.86,0,0,1,1.16-4.12c.36-.78-.91-.69-1.3-.51a11.65,11.65,0,0,0-2.66,1.34l1.52.39c.66-1.4,1.18-2.87,1.83-4.27l-1.88.05a2.61,2.61,0,0,1-1.71,2.11,3.83,3.83,0,0,1,1-2.62l-1.7-.26a5,5,0,0,1-3.39,2.54l.33.62a2.44,2.44,0,0,1,1.32-1.43l-1.37-.35c-.07,2.9-.67,5.78-.18,8.67a4.2,4.2,0,0,0,1.43,2.59c1.27.77,2.82.46,3.71,1.85l1.25-1c-3.07-.23-3-3.84-3.05-6.15-.44.24-.89.77-1.33.77h1.22c-.2,0-.41-.4-.61-.56-.16.62-.45,1.17-.61,1.8l1.73-.62a4,4,0,0,1-2.24-2.82c-.14-.75-2.07-.28-1.93.51Z"/><path class="cls-1" d="M270.61,146a43.24,43.24,0,0,0,1.22-4.8c0-.31-.33-.25-.57-.25H270c-.34,0-1.27.09-1.35.54-1,5.36,4.39,6.18,7.83,3.58.31-.24.23-.54-.16-.59-6.64-.87-6.36,9.37.53,6.27.25-.11.77-.27.77-.59v-.61c0-.61-1.83.07-2,.28-1.56,1.76-3.09,4.3-3.2,6.7a3.82,3.82,0,0,0,.72,2.86c.3.38,2.25.58,2.21,1-.23,2.78-2,5.69-.67,8.43.66,1.36,1,.87-.48,2.56a5.86,5.86,0,0,0-1.26,5.53c.12.56,2.06.08,1.93-.52-.7-3.19.93-5,3-7.09a.23.23,0,0,0-.11-.4c-3.4-1.2-.63-7-.42-9.49,0-.31-.33-.34-.57-.33-5.2.06-1.1-7.51.49-9.31l-1.85.28c0,1.67-2.1-1-2.24-1.64a4,4,0,0,1,.24-1.88L271.59,145a3.51,3.51,0,0,1-1-3.82l-1.35.62c1.43,0-.34,3.51-.57,4.55-.14.61,1.79.29,1.92-.29Z"/><path class="cls-1" d="M276.08,157.53c2.32,4.18-6.33,16.65,1.14,17.29.16-.39.33-.77.49-1.16a13.22,13.22,0,0,0-4.63,1.36.69.69,0,0,0-.42.55v.61c0-.23.73-.46,1.18-.69-3.23,0-6.73,4-3.07,6.28,1,.64,3.14.06,4-.63a5.42,5.42,0,0,0,1.89-3.22l.95-.22a4.72,4.72,0,0,1-.76,3.09c-.83,1.58-2.3.92-3.49,1.18-2.15.45-9.36,3.72-4.21,5.8,3.11,1.26,6.72-.5,6.38-4l-1.33.84q3.52-.63,1.22,4.27c.76,0,2-1.2.73-1.16a3.91,3.91,0,0,0-3,1c-.44.4,0,.73.42.77,3.58.33,6.47-1.19,6.21-5.11,0-.18-.25-.26-.38-.3a15,15,0,0,0-4.49-.64c-.46,0-1.39.22-1.33.84.27,2.8-4.39,3.59-4.33,1.09,0-2.25,5.43-2.26,7.27-2.65s3.12-3.09,3-4.73c-.09-1.87-1-2.57-2.75-2.33a3.57,3.57,0,0,0-1.82.85c-.41.39-.27,1.29-.3,1.65-.51,6.05-7.08-1.53-1.72-1.49.34,0,1.33-.18,1.33-.69q-.15-1.92,3.18-1.15c.7-.08,1.71-1.05.49-1.16-4.29-.36,1.75-13.6-.08-16.9-.33-.59-2.21,0-1.79.78Z"/><path class="cls-1" d="M272.9,189.61c-1.52.64-3.3.17-4.8,1.1-1.07.67-1.88,2.39-.73,3.41s2.9.18,4-.31c1.65-.75,3.1-2,4.79-2.59,1.26-.47.13-1.35-.81-1-2.08.77-3.85,2.7-6.08,3-.52.08-.48-.78-.46-1.08.06-.72.95-.85,1.5-.94a15.65,15.65,0,0,0,3.41-.62c1.23-.52.13-1.4-.82-1Z"/><path class="cls-1" d="M274,191.27c3.3,1,.64,2-1.11,2.9-1.09.58-2.74,1.39-2.94,2.76,0,.36.33.45.6.48a7.3,7.3,0,0,0,4.12-1.19c.87-.47,1.69-1,2.58-1.42,1.82-.84,2.92,3.63.9,3.67-3,.06-6.47-.21-6.64,3.73-.12,2.88,4.17,1,5.33.41.65-.35,1.29-.72,1.93-1.1s1.93-.45,1,.43c-1.15,1.12-3,1.69-4.39,2.38-1.2.59-.1,1.31.79.88s7.46-3.06,5.52-4.73a3,3,0,0,0-3.31-.1c-1,.51-5,3.51-4.94,1.17.18-4.21,9.26.51,7.39-6.23-1.34-4.86-7.28,1.15-9.57.93l.6.47c.35-2.43,10.38-4.42,3.28-6.54-.66-.2-2.28.77-1.17,1.1Z"/><path class="cls-1" d="M275.72,204.16c-2.1-.43-4.39-.38-5.64,1.6-1.09,1.73.23,4.72,2,5.42s3.91-.79,5.25-1.67c1.17-.76,2.19-2,3.7-1.33,1.27.57-1.89,2.5-2.29,2.69-.62.29-3-.12-3.63,1.29s-.29,3.77,1.38,4.42c3.38,1.31,6.24-4.55,8.44-6l-1.58-.12c.28,2-.19,4.35-3,4-.48-.06-1.43.27-1.32.9,0,.17.06.34.1.51.08.45.81.42,1.12.33a1.84,1.84,0,0,0,1.27-1c.5-.9-1.46-.81-1.83-.15q-.27.39.24,0l1.13.33c0-.17-.07-.34-.1-.51l-1.31.9c3.72.48,6.11-2.11,5.59-5.78-.1-.67-1.28-.32-1.59-.12-1.08.68-5.31,6.42-6.41,5.23-.62-.68-.75-2.75.5-2.79a9.35,9.35,0,0,0,1.33-.28,7.86,7.86,0,0,0,3.11-1.94c2.46-2.14-.41-4.16-2.81-3.38a17,17,0,0,0-3.74,2.31c-.88.57-2.13,1.45-3.07.51-1.72-1.76-.74-4.74,2-4.18.74.15,2.29-1,1.15-1.2Z"/><path class="cls-1" d="M279.16,203.28c-1.19-2.86-.87-7.47-4.07-9-.52-.24-1.49.11-1.54.74C273,202.27,275,211.35,279,217.4a1,1,0,0,0,1.69-.5v-6.71c0-1.05-2-.78-2,.13V217a18.44,18.44,0,0,0,2.06-.5c-3.81-5.77-5.83-14.76-5.3-21.61-.51.24-1,.49-1.49.73,2.35,1.09,2.4,6,3.28,8.14.37.9,2.31.35,2-.52Z"/><path class="cls-1" d="M282.18,207.56c.41.41,1,.81,1.42,1.22s2.06,0,2.06-.62v-1.22c0-.48-2-.15-2,.52v3c0-.23,1-.45,1.58-.68a6.19,6.19,0,0,1-2.33-2.89c-.3-.59-2.21.06-2,.52a7,7,0,0,0,2.81,3.22c.43.23,1.92-.09,1.92-.68v-3.06c0-.48-2-.15-2,.52v1.22c0-.2,1.09-.41,1.71-.61-.41-.41-.9-.82-1.3-1.23s-2.32.29-1.89.72Z"/><path class="cls-1" d="M267.46,202.41c-.52,3.29,2.36,5.8,5.28,6.61.73.2,2.29-.88,1.14-1.19-2.47-.68-4.92-2.83-4.48-5.61.14-.88-1.82-.58-1.94.19Z"/><path class="cls-1" d="M280.9,207.75c1.38-1.52,1.33-3.73,1.91-5.6.13-.4-1.75-.16-1.91.34-.53,1.73-.48,4-1.75,5.39-.41.45,1.44.21,1.75-.13Z"/><path class="cls-1" d="M280.89,199.37c-1,3.81,1,7.12,2.45,10.53.31.76,2.22.19,1.93-.51-1.38-3.3-3.45-6.52-2.44-10.23.22-.8-1.74-.53-1.94.21Z"/><path class="cls-1" d="M286.05,220.74c1.11,0,1.48-1.44.17-1.44-1.12,0-1.48,1.44-.17,1.44Z"/><path class="cls-1" d="M287.1,219.76c-.06-.78-.57-1.45-.6-2.26a.54.54,0,0,0-.41-.55c-1.44-.37-3.51-.29-4.09,1.38a4.38,4.38,0,0,0,.63,3.61,2.16,2.16,0,0,0,3.26.78,3.47,3.47,0,0,0,1-2.1,18,18,0,0,0,.19-4.34.55.55,0,0,0-.41-.55,4.83,4.83,0,0,0-4.76.56,4,4,0,0,0-1.35,3.34,2.24,2.24,0,0,0,1.92,2.21c1.85.25,3.43-1.47,4.42-2.78.74-1-1.09-1.19-1.6-.52a8.3,8.3,0,0,1-1.51,1.62,2,2,0,0,1-.58.34c.29-.12-.3,0,.05,0-.26,0,0,0-.09,0s0,0-.12-.05a.83.83,0,0,1-.26-.27,2.18,2.18,0,0,1-.3-1,2.86,2.86,0,0,1,.67-2.05,1.42,1.42,0,0,1,.68-.4,3.52,3.52,0,0,1,1.7.25l-.41-.55a26.15,26.15,0,0,1-.07,3.54,4.76,4.76,0,0,1-.48,1.89c-.07.13.06-.06-.07.09s-.05.06,0,0c-.06,0-.21.11.05,0a.59.59,0,0,1,.41-.08c-.06,0,.18.07,0,0,.2.08-.23-.2-.16-.14a2.87,2.87,0,0,1-.41-.51,3.92,3.92,0,0,1-.63-2.44.81.81,0,0,1,.12-.43c.08-.17,0-.09.2-.22-.29.19.25,0-.1.06.27-.09-.11,0,.19,0h0l.29,0a3.29,3.29,0,0,1,.43.09l-.41-.55a4.52,4.52,0,0,0,.25,1.46,4.75,4.75,0,0,1,.37,1.16c.05.84,2,.38,1.93-.52Z"/><path class="cls-1" d="M287,220.28a47.17,47.17,0,0,1,.61,8.56c0,.11.29.12.33.12h.61c.34,0,1.56-.17,1.6-.64.39-3.82-3.45-4.34-6.44-4.38-.3,0-1.49.14-1.58.54-1.18,5.4,7.06,7.06,8.62,2.08.1-.35-1.69,0-1.9.36-1.28,2.28-.28,4.38,1.86,5.63.47.27,2-.53,1.83-.64-2.06-1.2-3-3.16-1.79-5.35l-1.9.36c-1.28,4.08-5.47.19-4.82-2.81l-1.58.55c2.85,0,6.12.63,5.77,4.17l1.6-.63c-.54,0-.3-2.7-.32-3.34a33.73,33.73,0,0,0-.57-5.1c-.06-.34-2,.1-1.93.52Z"/><path class="cls-1" d="M290.59,232.28c-2.38.91-5.21,3.71-2.32,6,2.34,1.83,4.79.33,4.94-2.44a.62.62,0,0,0-.64-.62c-3-.14-4.86,1.81-4.32,4.8.63,3.56,4.37,3.12,6.46,1.22l-1.45-.72a16.52,16.52,0,0,0-4.44,7.68c-.23.93,1.74.7,1.95-.15a15.12,15.12,0,0,1,4.11-7c.78-.81-.88-1.24-1.45-.72-3.59,3.27-4.51-3.88-1.53-3.75l-.64-.62c-.09,1.6-.81,2.09-1.86.73-1.26-1.6.75-2.8,2-3.29s.14-1.52-.85-1.13Z"/><path class="cls-1" d="M289.66,254.91v3.66c0,.59.9.62,1.33.51,1.12-.29,5.09-2.9,2.12-3.83-3.85-1.21-3.72,5.52-3.73,7.6,0,.85,1.44.6,1.8.15a17.47,17.47,0,0,0,2.63-5.83c.28-.85-1.6-.51-1.88,0-.81,1.48-3.86,6.45-.59,7.44,2.23.67,3-2.39,3.09-3.95a.7.7,0,0,0-.62-.71h-1.22a1.51,1.51,0,0,0-1.27.73c-1.19,2.39-3.22,6-.45,8l.35-1c-2,.92-2.39,2.27-3,4.28-.25.83,1.71.6,2-.17.39-1.28.49-2.42,1.88-3.06.4-.18.83-.68.34-1-2.25-1.61-.08-4.81.77-6.52-.42.19-.84-.24-1.26.76h1.22c-.21-1-.42-.56-.63-.75a5.08,5.08,0,0,1-.2,1.39c.18,1.46.08.91-.3-1.56.16-1.24,1.18-2.59,1.78-3.68h-1.89a15.3,15.3,0,0,1-2.26,5.16l1.77.15c0-.81,0-1.62,0-2.42s.88-2.78-.73-2.36c.38.16,1,.33,1,.5v-3.66c0-.95-2-.6-2,.18Z"/><path class="cls-1" d="M291.89,270.85a8.64,8.64,0,0,0-1.22,3.66l1.86-.5c-3-3.5-9.67-.39-7.36,4.27,2.71,5.48,9.43-1,9.25-4.8,0-.46-1.37,0-1.53.08-1.21.65-4.5,3-2.69,4.79,1.45,1.41,3.46.58,5.05-.15l-1.53,0c-.46,4.05-5.65,4.3-7.86,7.22-.12.15-.11.29.1.36a9.6,9.6,0,0,0,5.76-.05c.83-.21,1.21-.95.07-.77-1.7.26-8.14,1.57-5.09,4.42,1.74,1.63,5,.64,5.27-1.72,0-.21-.15-.27-.34-.28-3.21-.18-7.1,2.48-4,5.66.39.4,2.18-.31,1.81-.69a2.46,2.46,0,0,1-.94-2.8c.56-3.11,2.37.74,0-.86-2.81-1.88.45-4.81,2.22-5.72,2.33-1.2,4.58-2.23,4.91-5.08.06-.6-1.3-.13-1.53,0l-2.28-.62c-.2-1.51.54-2.61,2.2-3.3l-1.54.08c.09,2-1.34,6.66-4.65,4.56s.56-6.53,2.88-3.86c.28.32,1.82-.05,1.86-.5a8.51,8.51,0,0,1,1.23-3.66c.19-.37-1.64-.21-1.92.31Z"/><path class="cls-1" d="M289.25,293.18c-1.4.61-3.77,2-3.77,3.79,0,1.36.8,3.11,2.42,2.76,3.18-.69,5.13-4.86,4.69-7.93,0-.27-.92,0-1,0-3.49.92-6.21,4.06-2.66,7,3,2.55,5.72-1.44,6.14-4a.23.23,0,0,0-.17-.1c-3.62-.83-5.86,1.73-6,5.18-.11,3.74,2.84,5.09,5.43,2.42l-1.74.17c-1.68,1.77-4.88,5.49-2.33,7.91,1.88,1.78,4.29.94,5.9-.76.37-.39-1.44-.14-1.74.18-2.48,2.61-3.25-2.29-2.81-3.61a11.46,11.46,0,0,1,2.72-3.89c.38-.4-1.44-.14-1.74.17-1.58,1.64-3.15-7.45.15-7.17,1.09.09-.72,3.11-.95,3.35s-1.8-1.23-1.91-1.37c-1.55-2-.58-4.37,1.82-5h-1a9,9,0,0,1-1.34,5.2c-.63,1.21-.91,1.72-1.61.38-1-2,1-3.8,2.64-4.52,1.16-.51-.67-.39-1.1-.2Z"/><path class="cls-1" d="M290.25,313.28c3.43,2.14,7.54-.33,10.09-2.75.23-.22.27-.44,0-.62-3.42-2.29-8.28-1.71-11.74.18-.2.11-.54.42-.3.66,1.12,1.13,2.41.83,4,.87a10.25,10.25,0,0,0,6.06-1.57c.52-.35.42-.81-.22-.83-2.53-.08-4.78-.38-7.08.87-.24.13-.61.58-.17.75,3.71,1.4,8.13,1.89,11.31-.92.84-.74-1.08-.73-1.55-.31-2.31,2-5.61,1.28-8.22.3-.06.25-.12.5-.17.75,1.56-.85,3.43-.41,5.13-.35-.08-.28-.15-.56-.23-.83-1.42.92-5.61,2-7.05.52l-.3.66a8.91,8.91,0,0,1,9,.18v-.62c-1.85,1.75-4.43,3.73-7,2.13-.54-.33-2.32.44-1.54.93Z"/><path class="cls-1" d="M276.56,143.19c-3.13,1.37-1.5,4.57-.25,7,3.39,6.48,4.49,15.31,5.19,22.51.09.83,2,.37,1.94-.51a104.48,104.48,0,0,0-2.92-15.71c-.41-1.59-4.8-11.46-3.13-12.2,1.22-.53.13-1.48-.83-1.05Z"/><path class="cls-1" d="M279.68,173.16s0,.06,0,.09l1.74-.58a18.36,18.36,0,0,1-.41-2.35c0-.65-1.75,0-1.92.39a19.2,19.2,0,0,0-1.84,8.06c0,.64,1.74-.06,1.93-.4a9.94,9.94,0,0,1,1.76-2.32c.52-.52-1.39-.36-1.78,0a10.63,10.63,0,0,0-1.9,2.57l1.92-.4a18.72,18.72,0,0,1,1.83-7.81l-1.93.39c0,.66.14,2.35.79,2.71.37.21,1.67,0,1.74-.57v-.09c.09-.67-1.85-.3-1.92.28Z"/><path class="cls-1" d="M280.43,171.33a3.34,3.34,0,0,0-2.51,1.1c-.16.17-.06.31.11.39l3.66,1.83c.47.24,2.26-.49,1.56-.83L279.59,172c0,.13.07.26.1.39a3.19,3.19,0,0,1,.33-.31c-.64.15-.77.21-.39.19a1.81,1.81,0,0,0,1.28-.49c.3-.35-.25-.44-.48-.44Z"/><path class="cls-1" d="M280.83,169.61c-1-.13-2-.53-3.06-.61-.34,0-2.14.58-1.59.71,3.43.8,6.34,3.06,9.65,4.23.53.19,1.92-.6,1.83-.63-3.39-1.21-6.36-3.48-9.89-4.31l-1.59.71c1.05.07,2,.47,3.05.61.43.05,2-.65,1.6-.71Z"/><path class="cls-1" d="M274.32,168h-1.83c-.27,1-.53.79-.79,1.12,5.88-.35,11.22,2.89,17.09,2.51.26,0,1.95-.47,1.17-.87-4.69-2.4-9.93-1.91-15-1.87-.4,0-2.07.76-1,1a58.8,58.8,0,0,0,10,1.23c.21,0,1.78-.41,1.29-.84-2.52-2.2-5.6-2.62-8.67-3.73-.46-.17-2.31.49-1.55.86a28.64,28.64,0,0,0,12,3.11c.27,0,2-.68,1.17-.92a73.62,73.62,0,0,1-11.6-4.88l-1.55.86c4.17,1.2,8.22,2.37,12.59,2.49.64,0,2.09-.92.79-1-4.09-.12-7.92-1.26-11.83-2.39-.42-.12-2.34.47-1.55.86a73.77,73.77,0,0,0,11.6,4.88l1.17-.91a26.84,26.84,0,0,1-11.22-3l-1.55.86c3,1.07,6,1.45,8.42,3.59l1.29-.84a55.94,55.94,0,0,1-9.55-1.21l-1,1c4.86,0,9.8-.51,14.27,1.77l1.17-.91c-5.85.38-11.2-2.92-17.09-2.57-.6,0-2.12.83-.79.83h1.83c.64,0,2.08-1,.79-1Z"/><path class="cls-1" d="M228.36,317h7.32c.44,0,2-.87,1-1a43,43,0,0,1-7.76-1.79c-.45-.12-2.35.53-1.56.87a24.26,24.26,0,0,0,8.93,1.89c.28,0,2-.64,1.17-.93a61.28,61.28,0,0,0-10.55-2.48c-.26-.05-2.06.48-1.51.84,3.42,2.17,7.76,3.15,11.65,1.8.29-.1.9-.51.41-.77a33.66,33.66,0,0,0-10.55-3.09c-.38-.07-2.17.64-1.38.91,4.19,1.44,8.15,2.85,12.59,3.11.45,0,2-.72,1-1-3.59-.84-6.68-2.72-10.38-3.05-.32,0-2.19.46-1.38.91a23.79,23.79,0,0,0,10.76,3.11c.23,0,1.79-.42,1.3-.85-3.28-2.92-7.29-4.43-11-6.72-.49-.3-2.28.37-1.8.72a28.94,28.94,0,0,0,12.5,5c.36.06,2.17-.5,1.38-.91-3.71-1.94-7.27-4.16-11-6.1-.49-.26-2.29.46-1.56.86a61.6,61.6,0,0,0,14,5.5l1.38-.91c-3.54-.24-6.83-1.6-10.38-1.83-.32,0-1.92.22-1.5.83,3.2,4.69,9.11,6.16,14.16,8l1.17-.92c-6.5-.28-12.32-3.37-18.71-4.26-.34,0-2.17.47-1.38.91,6.28,3.53,13.25,4.89,20.15,6.72.43.11,2.35-.52,1.55-.87a119.07,119.07,0,0,0-12.21-4.89c-.5-.15-2.3.6-1.55.87,4.85,1.75,9.82,3.06,14.82,4.32.4.1,2.15-.58,1.38-.91-3.92-1.72-7.77-3.58-11.6-5.5-.48-.24-2.29.45-1.55.87A56,56,0,0,0,252,322.45c.41.1,2.15-.61,1.38-.91-4.69-1.84-9.17-4.13-14-5.5-.31-.08-2.25.35-1.68.8,5.12,4,11.83,5.48,18.22,5.62.27,0,2-.61,1.17-.92-5-2-9.62-4.1-15-4.33-.44,0-2,.8-1,1,5.72.92,12.67,4.39,17.85.25.84-.67-1.1-.56-1.52-.22-3.82,3.05-11-.32-15.12-1l-1,1c5.15.22,9.56,2.38,14.26,4.22l1.17-.93c-6-.14-12.37-1.6-17.19-5.36l-1.68.79c4.87,1.36,9.35,3.66,14,5.5l1.38-.91a54.75,54.75,0,0,1-13.87-6.07l-1.55.87c3.83,1.91,7.67,3.78,11.6,5.5l1.38-.92a149,149,0,0,1-14.48-4.23l-1.55.87a120.92,120.92,0,0,1,12.21,4.89l1.55-.87c-6.89-1.83-13.87-3.19-20.14-6.72l-1.39.91c6.55.92,12.47,4,19.14,4.29.28,0,1.95-.64,1.17-.92-5-1.82-10.77-3.26-13.92-7.87l-1.5.84c3.54.23,6.83,1.6,10.38,1.83.33,0,2.18-.7,1.38-.91a61.86,61.86,0,0,1-14-5.49l-1.56.86c3.72,1.94,7.27,4.17,11,6.11l1.38-.91a27.68,27.68,0,0,1-11.91-4.77l-1.8.72c3.67,2.27,7.73,3.83,11,6.72l1.3-.85a22,22,0,0,1-10-3l-1.39.91c3.65.33,6.84,2.22,10.38,3l1-1c-4.17-.24-7.93-1.66-11.83-3l-1.38.91a51.65,51.65,0,0,1,7.46,1.71c2,.58,1.87.83-.4.73a13,13,0,0,1-5.55-2.06l-1.51.84a59.63,59.63,0,0,1,10.21,2.4l1.17-.92a21.94,21.94,0,0,1-8.16-1.78l-1.56.87a44.52,44.52,0,0,0,8.11,1.86c.33-.32.66-1,1-1h-7.33c-.65,0-2.08,1-.78,1Z"/><path class="cls-1" d="M291.66,321v2.44c0,.51,1.9,0,2-.41a16.55,16.55,0,0,0,.67-5c0-.54-1.52.05-1.69.17-2.33,1.7-2.74,3.82-1.42,6.45.25.51,1.81.09,1.93-.4a31.49,31.49,0,0,0,.62-7.44c0-.53-1.77,0-1.92.4-1,2.84-.65,5.14,1.88,6.92.39.27,1.76.05,1.87-.49a39.54,39.54,0,0,0,.61-7.44c0-.57-1.75.06-1.92.41-1.11,2.21-1.15,3.92.67,5.69.34.34,1.76,0,1.86-.49a20.58,20.58,0,0,0,0-8.05c-.1-.54-1.85-.06-1.93.4-.58,3.54-.51,7,2.5,9.36.37.3,1.76,0,1.86-.5a40.22,40.22,0,0,0,.62-7.43l-1.93.52a26,26,0,0,0,.61,6.1c.13.56,1.93,0,1.93-.52a34,34,0,0,1,.6-6.6l-1.92.41a28.48,28.48,0,0,0,.61,6.71c.12.53,1.86.06,1.92-.4.16-1.24.45-2.43.61-3.67l-1.92.41c1.05,2.41,3,2.61,5.45,2.64.25,0,1.94-.59,1.18-.88-3.74-1.4-7.35-2.27-11.26-1.18-.12,0-1.21.45-.8.73a16,16,0,0,0,14.69,1.78c.19-.08,1-.52.42-.71-3-1-5.8-.75-8.93-.66-.37,0-2.06.78-1,.91A134.68,134.68,0,0,0,315,322.43c.25,0,1.93-.58,1.18-.87a60.25,60.25,0,0,0-13.61-3.1c-.32,0-2.15.52-1.39.87a30.47,30.47,0,0,0,11.77,3.1c.29,0,2.18-.48,1.4-.87a44.13,44.13,0,0,0-11.78-4.32c-.35-.06-2.13.56-1.39.87,3.8,1.62,7.73,1.9,11.77,2.48.33.05,2.16-.54,1.4-.87-3.3-1.4-6.42-2.94-9.94-3.7-.27,0-2,.48-1.52.81,3.4,2.28,6.89,2.53,10.89,2.55.39,0,2.05-.7,1-.92-3.74-.78-7.26-2.26-11-3-.38-.08-2.13.61-1.4.87,3,1.11,6.14,2,9.16,3.05.48.18,2.27-.55,1.57-.83a66,66,0,0,0-9.16-3.05c-.45-.11-2.29.59-1.57.83,4.23,1.4,8.72.57,12.82,2.45l1.57-.84c-3.72-1.39-7.15-3.34-11.16-3.7-.34,0-2.14.68-1.39.87,4.93,1.26,9.81,2.77,14.82,3.7.37.07,2.12-.63,1.39-.87a77.21,77.21,0,0,0-11.77-3.09c-.34-.05-2.15.53-1.39.87,5.62,2.54,11.82,3,17.87,3.7.38,0,2.11-.71,1.4-.87A82.92,82.92,0,0,0,310.34,316c-.44,0-2,.86-1,.91,4.41.22,8.5,1.62,12.65,3l1.56-.84c-5.76-1.91-11.37-3.53-17.47-3.7-.27,0-1.93.64-1.19.87A166.56,166.56,0,0,1,322.59,323c.48.21,2.26-.53,1.56-.84a167.15,167.15,0,0,0-17.7-6.71l-1.18.88c5.82.17,11.23,1.8,16.71,3.62.5.16,2.25-.6,1.56-.84-4.27-1.44-8.45-2.86-13-3.09l-1,.92A79.62,79.62,0,0,1,325,319.33l1.39-.87c-5.94-.64-12-1.13-17.53-3.62l-1.39.87a74,74,0,0,1,11.43,3l1.39-.88c-4.89-.91-9.66-2.39-14.48-3.62l-1.39.87c3.9.35,7.21,2.27,10.81,3.63.46.17,2.28-.51,1.57-.84-4.16-1.89-8.54-1-12.82-2.44l-1.57.83a66.92,66.92,0,0,1,9.16,3.05l1.57-.83c-3-1.1-6.14-1.95-9.16-3.05l-1.4.87c3.74.79,7.26,2.27,11,3.05l1-.91c-3.64,0-6.75-.24-9.87-2.33l-1.51.8c3.41.74,6.41,2.28,9.59,3.63l1.39-.87c-3.91-.57-7.73-.84-11.42-2.41l-1.4.87a43.23,43.23,0,0,1,11.43,4.24l1.39-.87a29.89,29.89,0,0,1-11.42-3l-1.4.87a59.46,59.46,0,0,1,13.26,3l1.18-.88a131.79,131.79,0,0,1-14.44-1.21l-1,.91,1.82,0c1.71-.6,2.2-.42,1.47.52a13.94,13.94,0,0,1-6.87-2.5l-.81.73c3.33-.92,6.43.11,9.5,1.26l1.18-.88a3.65,3.65,0,0,1-4.32-2.24c-.22-.5-1.86-.09-1.92.41-.16,1.23-.45,2.42-.61,3.66l1.92-.41a28.48,28.48,0,0,1-.61-6.71c0-.49-1.83-.08-1.93.4a34,34,0,0,0-.61,6.83l1.93-.52a26,26,0,0,1-.61-6.1c0-.46-1.93-.13-1.93.52a39.66,39.66,0,0,1-.61,7.21l1.87-.5c-2.92-2.3-2.95-5.55-2.39-8.95l-1.92.4a20.42,20.42,0,0,1,0,7.83l1.87-.5c-1.76-1.72-1.57-3.28-.56-5.29l-1.93.41a38.71,38.71,0,0,1-.6,7.21l1.86-.5c-2.37-1.67-2.74-3.86-1.77-6.51l-1.93.4a30.64,30.64,0,0,1-.6,7.22l1.92-.41c-1-2-1.54-3.88,1-5.75l-1.72.17a9.8,9.8,0,0,1-.68,4.77,8,8,0,0,0,1.85-.41v-2.44c0-.45-2-.13-2,.52Z"/><path class="cls-1" d="M226.56,314.29c.21,2.27.7,3.36,2.64,4.48a1.44,1.44,0,0,0,1.73-.58c.69-2,.72-5.54-2.3-5.15-3.29.42-3.27,4.06-3.29,6.61,0,.8,1.81.38,1.93-.24a20.54,20.54,0,0,0,0-8.08c-.12-.63-1.48-.14-1.74.11-2.74,2.71-2.65,7.12-.73,10.3.32.53,1.53,0,1.79-.36,2.95-3.59,2.57-8.11,2.51-12.49,0-.72-1.75,0-1.93.38-1.43,3.28-2.44,8.77,1.42,10.72a1.45,1.45,0,0,0,1.73-.58c1-2.73.7-5.21.62-8.08,0-.67-1.79-.11-1.94.39-.78,2.6-1.92,9,2.46,8.95,3.51,0,2.57-6,2.53-8.11,0-.64-1.81-.16-1.93.38a7.81,7.81,0,0,1-1.16,2.91l1.8-.36a13.11,13.11,0,0,0-2.44-2.44c-.38-.31-2.2,0-1.87.63,1.58,2.89,3.33,4.77,6.48,5.76.39.12,1.51-.12,1.56-.65a8.87,8.87,0,0,0-3.12-8.18c-.37-.34-1.85-.13-1.86.5-.08,4.36,6.32,9.13,10.55,7.36,5.67-2.37-3.31-6-5.55-6.2-.33,0-2,.71-1.15,1a69.31,69.31,0,0,0,9.95,2.5c.29.05,2.09-.38,1.49-.9A9.59,9.59,0,0,0,243,313c-.3-.09-2.09.07-1.74.72,2.74,5.12,9.12,7.23,14.63,7.49.25-.36.51-.21.76-1.21h-7.94c-.29,0-2,.77-1.15,1.13,5.11,2.15,9.94,1.46,15.29.74.93-.13,1.61-1.21.27-1-4.84.66-9.33,1.27-14-.7-.38.34-.76.86-1.14.86h7.93c.7,0,2.08-.86.76-.92-5-.23-11-2.31-13.46-7-.57.24-1.15.53-1.73.77a8.4,8.4,0,0,1,3.53,1.76c.5-.3,1-.58,1.49-.88a66.19,66.19,0,0,1-9.59-2.38l-1.14,1a12.32,12.32,0,0,1,3.42.84l.84.38q2.91,1.17-.77,2.82c-2.54-.82-5.86-3.63-5.81-6.53l-1.87.5a8.19,8.19,0,0,1,3,7.68l1.56-.64c-3.08-1-4.32-2.64-5.74-5.23l-1.86.63a13.11,13.11,0,0,1,2.44,2.44c.33.45,1.59.07,1.8-.36a14.51,14.51,0,0,0,1.29-3.19l-1.94.38c0,1.14.07,2.27.06,3.41,0,.21-.33,4.52-1.68,1.36-.8-1.85-.06-4.51.5-6.37l-1.93.38c.09,2.69.33,5.22-.61,7.8l1.74-.58c-3.53-1.79-2.3-7.12-1-10l-1.93.38c.05,4.2.46,8.49-2.37,11.94l1.79-.36c-1.63-2.7-1.92-6.86.49-9.24l-1.74.1a20.07,20.07,0,0,1,0,7.8l1.93-.24c0-1,.06-2,.15-3-.12-1.27.51-1.65,1.9-1.15a4.49,4.49,0,0,1-.32,3.15l1.74-.59a4.33,4.33,0,0,1-2.25-4.06c-.05-.63-2-.21-1.93.51Z"/><path class="cls-1" d="M227.61,299h-1.22c-.88,0-1.59,1.53-.42,1.58,3.89.17,8.23,3.36,12,1a.57.57,0,0,0,.1-1c-3.08-2.77-7.83-2.56-11.65-2-.59.09-1.48.67-.83,1.28,3.38,3.19,7.71,4.36,12.26,4.44,0-.47-.06-.92-.09-1.38-3.53,1-7.11.61-10.73.56-.75,0-1.53.93-.64,1.37,2.75,1.35,7.28,3.39,9.42.07a.51.51,0,0,0-.18-.67,17,17,0,0,0-8.6-2c-.64,0-1.44.72-.83,1.28a11.66,11.66,0,0,0,3.24,1.92c.81.38,2.23-.79,1.12-1.31a10.36,10.36,0,0,1-2.87-1.73l-.83,1.27a24.21,24.21,0,0,1,3.8.37c-.17,0,3.38,1.06,2.42,1.22-1.79.3-4-1-5.58-1.74-.21.46-.42.91-.64,1.37,3.81,0,7.54.44,11.26-.65,1-.3,1-1.37-.1-1.39a15.82,15.82,0,0,1-10.94-4.12l-.83,1.28c3.44-.53,7.56-.81,10.33,1.68,0-.34.07-.67.1-1-1.5.93-4-.11-5.54-.54a19.36,19.36,0,0,0-4.47-.82,6,6,0,0,0-.42,1.55h1.22c1.11,0,1.48-2,.17-2Z"/><path class="cls-1" d="M258,65c2.79,3.23,2.93,7.64,6.06,10.81.25.25,6.21,5.62,3.48,6a2.51,2.51,0,0,0-2,1.2c-.53.71,1.42.56,1.8,0s1.69-.33,2.16-1.08c1.07-1.71.77-2.63-.63-4-2.3-2.32-4.41-4.09-6-7-1.26-2.31-1.32-4.57-3.11-6.64-.45-.52-2.3.18-1.79.76Z"/><path class="cls-1" d="M265.18,84.19A3.42,3.42,0,0,0,266,88l.78-.81-1.08.36c-.17.06-1,.36-.85.7a5.69,5.69,0,0,1,.84,3c0,4-7.4-.07-9.2-.83-3.15-1.34-8.82-1-8.47-5.81,0-.73-1.88-.33-1.92.27-.32,4.26,3.89,5.2,7.28,6,5.47,1.26,8.71,4.84,14.11,1.35.15-.1.43-.27.37-.51a3,3,0,0,1,0-2.4.22.22,0,0,0-.06-.23l-1-1.34-.85.7L267,88.1c.24-.08,1.11-.4.78-.8a2.59,2.59,0,0,1-.66-3.38c.2-.6-1.72-.34-1.93.27Z"/><path class="cls-1" d="M259.78,59c-.26,1.46.33,2.67.71,4.05l1.38-.65c-1.34.11-2.34-1-3.2-1.83a7.43,7.43,0,0,0-2.91-2.12c-.44-.14-2.16.56-1.59.75,2.73.91,3.6,4.24,6.87,4,.21,0,1.5-.24,1.38-.64-.36-1.3-1-2.5-.73-3.88.08-.46-1.82-.14-1.91.34Z"/><path class="cls-1" d="M252.27,76.51c2.29,1.93,6.39-.45,8.35-1.88.84-.61-.07-1-.74-.83-1.59.42-3.11,1-4.69,1.44-1.17.31-.89,1.35.27,1,1.59-.42,3.11-1,4.69-1.45-.25-.27-.49-.55-.74-.83-1.11.81-4,2.86-5.35,1.73-.55-.46-2.36.3-1.79.78Z"/><path class="cls-1" d="M258.32,92.43a9.18,9.18,0,0,0,1.53,5.39c.5.7,2.34,0,1.77-.84a8.09,8.09,0,0,1-1.35-4.71c0-1-2-.69-1.95.16Z"/><path class="cls-1" d="M241.64,74.45c-3.15,1.31-6,3.65-5.95,7.37,0,1.75,1.81,3.49,3.33,4.06.91.33,2.24.41,2.35,1.52.14,1.47-1.29,3.08-1.79,4.4-.14.38,1.7.14,1.91-.34a12.51,12.51,0,0,0,.73-5.86c0-.48-1.67.16-1.84.33a7.09,7.09,0,0,0-1.88,3.7c-.12.48,1.7.07,1.91-.33,1.3-2.57,1.94-5.37,3.24-7.94l-1.9.34c-.75,2.44-1.69,4.8-2.53,7.21-.18.51,1.53,0,1.7-.13,2.51-1.66,3.34-4.57,3.82-7.42l-1.92.43c-.13,3.4-.91,6.68-.72,10.1,0,.49,1.74-.17,1.91-.43,1.71-2.49,1.83-5.43,2.53-8.3l-1.92.43a15.87,15.87,0,0,0,2.53,7.58c.29.49,2.09-.25,1.93-.52a43.56,43.56,0,0,1-4.7-11,20.34,20.34,0,0,1-.75-4.51c0-.45,0-.91,0-1.36,0-.91-.37-1.8.37-1.26.43.33,2.11-.44,1.81-.66-1.92-1.42-3.86-.61-4.1,1.76-.6,6,2.47,12.65,5.48,17.59l1.93-.52a15.8,15.8,0,0,1-2.53-7.58c0-.39-1.82,0-1.92.43-.69,2.86-.82,5.8-2.52,8.3l1.92-.43c-.19-3.41.59-6.71.72-10.1,0-.33-1.84,0-1.92.43-.43,2.53-1.09,5.49-3.4,7l1.7-.13c.84-2.41,1.77-4.78,2.52-7.22.14-.44-1.69-.08-1.9.34-1.3,2.56-1.95,5.37-3.25,7.93l1.91-.33a6.47,6.47,0,0,1,1.72-3.51l-1.84.33a12.6,12.6,0,0,1-.71,5.68l1.91-.34c.52-1.39,3.46-5.07.72-5.81-6.4-1.72-5.39-8.45.11-10.74,1.26-.53.06-.77-.68-.46Z"/><path class="cls-1" d="M238.21,75.06c-3.22,4-6.62,8.49-5.85,13.94.08.61,1.75,0,1.92-.4a25.63,25.63,0,0,0,2.17-10.21c0-.54-1.68,0-1.85.28-1.65,2.59-4,6.43-3,9.61.16.49,1.28.1,1.54,0,3-1.78,3.88-5.33,5.43-8.29l-1.92.41c.17,3.53-1.65,7-.37,10.46.22.57,1.61,0,1.86-.29,1.73-2.14,1.87-4.77,2.59-7.33l-1.92.4c.7,3.46-.28,8.31,2.58,10.92.44.4,2.23-.33,1.81-.71-2.74-2.5-1.79-7.4-2.46-10.73-.11-.57-1.8,0-1.92.41-.7,2.46-.79,5-2.46,7.1l1.86-.29c-1.28-3.43.53-7,.36-10.46,0-.61-1.75.07-1.93.4-1.3,2.48-2.1,6.09-4.67,7.59l1.55-.06c-1-3,1.26-6.72,2.8-9.14l-1.85.28a25.06,25.06,0,0,1-2.16,10l1.93-.4c-.74-5.31,2.57-9.56,5.69-13.48.47-.59-1.44-.36-1.77,0Z"/><path class="cls-1" d="M245.21,89.82c-.94.76-1,2-1.16,3.12-.4,3.24-.09,6.47-2.21,9.17-2.26,2.88-6.45,5.31-9.57,7.22-1.22.73-3.22,1.53-3.84,2.91-.45,1,1.5,1.06,1.86.25.63-1.42,3.94-2.61,5.29-3.54a47.19,47.19,0,0,0,7-5.32,9.42,9.42,0,0,0,2.87-5.17c.32-1.57-.23-6.68,1.06-7.72,1-.82-.52-1.54-1.29-.92Z"/><path class="cls-1" d="M227.5,113.53c-1.38,1.79-1.07,4.15-2,6.15-.11.24.22.37.37.41,5.56,1.6,12.14,2.67,17-1.43,4.55-3.84,5-9.59,2.17-14.66-.37-.66-2.24,0-1.93.52,2.46,4.38,2.62,9.48-1.1,13.23-3.33,3.36-8.29,2.93-12.49,2-1.95-.45-1.73-.84-1.41-2.52a7.56,7.56,0,0,1,1.17-3.61c.54-.69-1.41-.55-1.8,0Z"/><path class="cls-1" d="M231.94,122.05c8.34,3,11.84,14.31,14,22.07.22.8,2.15.28,1.93-.52-2.26-8.18-6-19.53-14.77-22.73-.72-.27-2.26.77-1.14,1.18Z"/><path class="cls-1" d="M247.62,143.9c2.55-1.86,5.73-2.18,8.64-3.14,5.06-1.66,9.27-4.27,14.93-4.25.23,0,1.89-.28,1.53-.73-2.61-3.3-6.08-5.63-9-8.63-3.76-3.88-5.51-10.21-6.24-15.42-.05-.4-2,0-1.93.52A33,33,0,0,0,261,126.66c2.68,3.81,7.06,6.12,9.95,9.78l1.53-.73c-4.82,0-9,1.46-13.4,3.29-4.17,1.73-9.18,2.13-12.89,4.83-.79.58,1.14.32,1.48.07Z"/><path class="cls-1" d="M243.31,97.92c-2.14-1.12-7.57,2.22-4.91,4.14,4,2.87,5.93-3,7.66,4,.72,2.9,3.89,1.68,6.09,1.26l-1.16-.63c.17,3.63,2.28,3.66,5.38,2.72l-1.17-.63c.06,1.12,0,3.21,1.39,3.68a4.47,4.47,0,0,0,1.81.32c2-.11.11,1.13-.07,2.25s0,3.07,1.56,3.26,3.48.22,4,1.89a5.17,5.17,0,0,0,1.72,2.18,1.22,1.22,0,0,0,1.39-.1l.65-.45c1.08-.74-.49-1.49-1.3-.94.44-.3-1-3-1.7-3.3A5.91,5.91,0,0,0,262,117c-2.5,0-.66-4-.49-5.09.08-.48-.52-.71-.9-.67q-2.47.7-3.43-2.49c0-.59-.65-.79-1.16-.63q-2,1.2-3.05-1.46c0-.63-.65-.72-1.17-.63-5,1-1.9-3.21-4.66-4.91a3.86,3.86,0,0,0-2.28-.23l-2,.28c-4.15.57-2-2.56-.61-1.85.82.43,2.2-.77,1.1-1.35Z"/><path class="cls-1" d="M247.41,98.85c3.29,1.27,7.62,1.58,10,4.31,1,1.08,1.07,2,2.26,3,.62.49,2.11.63,2.71.88,3.32,1.41.79,7.33,5.55,7.51.73,0,2-1.05.74-1.1-2.39-.1-2.44-3.43-2.89-5.14s-1.2-1.93-2.88-2.64-2.21-.63-3.22-2.47a6.15,6.15,0,0,0-2-2.13c-2.37-1.78-6.1-2.11-8.8-3.15-.59-.23-2.34.62-1.53.94Z"/><path class="cls-1" d="M266.31,96.62c1.85-.15,4.31-.51,3.89,2a24.78,24.78,0,0,1-1.48,4.24c-.13.34.4.46.6.47,2.83.23,1.83,1.78,1.83,3.33a25.16,25.16,0,0,0,.81,3c.46,2.83-.94,6.11.43,8.67.37.7,2.25.08,1.93-.51-1.44-2.7,0-7.42-.85-10.65-.56-2.2.65-4.07-1.94-4.85-1.25-.38,1.36-4.39.54-5.76-1-1.74-3.84-1.24-5.51-1.1-1,.08-1.58,1.26-.25,1.14Z"/><path class="cls-1" d="M269.74,118.69c-.67,1.44-1.22,3.17.83,3.7,3.25.84,6.25.91,6.52,4.65s-.22,5.19,3.38,7.09c2.38,1.26,2.44,3.79,2.94,6,.39,1.7,1.91,2.61,3.28,3.42.58.35,2.36-.48,1.53-1-3.89-2.31-1.9-5.28-4.51-8a9.25,9.25,0,0,0-2.66-1.91c-2.76-1.46-1.78-3.79-2-6.14-.14-1.34.1-2.44-1.12-3.2-1.48-.92-7.68-1.69-6.35-4.55.41-.89-1.52-.69-1.81-.08Z"/><path class="cls-1" d="M256,142.53c11,5,18,19.14,12.73,30.49-2.12,4.61-6.32,7.69-8.38,12.46a23.6,23.6,0,0,0-.62,16.27c.17.53,2.09,0,1.93-.52a24.43,24.43,0,0,1,1.81-18.63c2.73-5.44,7.45-8.34,8.74-14.65,2.12-10.48-5.3-22-14.64-26.23-.46-.22-2.24.51-1.57.81Z"/><path class="cls-1" d="M259.71,201.75c3,8.27,7.69,14.61,13.49,21.06a57.52,57.52,0,0,1,13.55,28.73c1.87,11.51-5.09,21.24-6.2,32.35s2.34,21.51,7,31.46c.22.49,2.09-.17,1.93-.52-4.78-10.14-7.81-20.14-7-31.46s7.6-20.61,6.2-32.35c-1.15-9.7-6.13-19.88-12.33-27.36-6-7.21-11.48-13.42-14.71-22.43-.17-.47-2.07.12-1.93.52Z"/><path class="cls-1" d="M258.25,200.1c-2.48,10.09-4.5,20.28-7.11,30.33-2.5,9.62-5.85,17.24-12.28,24.88-5.29,6.28-10.8,12.51-12.65,20.75-2.11,9.35-.35,19.57-.71,29.06,0,.44,1.91.14,1.93-.52.38-9.93-1.22-20.31,1-30.08,2-8.82,9.34-15.6,14.8-22.38,5.32-6.59,7.69-13.91,9.85-22,2.69-10,4.64-20.25,7.12-30.33.14-.58-1.78-.27-1.92.29Z"/><path class="cls-1" d="M286.61,130c5.53,4.62,7.1,14.29,7.24,21.14.24,11.84-7.17,22.21-4.66,34.18,1.15,5.46,3.69,10.58,5.31,15.91a120,120,0,0,1,3.82,20.43,163.8,163.8,0,0,1,1,18.12c0,5.15-1.71,11.28,0,16.21.16.46,2.07-.13,1.93-.52-1.57-4.54,0-9.79,0-14.5a190.06,190.06,0,0,0-1-19.82,136.29,136.29,0,0,0-3.82-20.44c-1.56-6-4.37-11.47-5.65-17.53-2.34-11.15,5.22-21.92,5-33.1-.14-6.76-1.9-16.2-7.34-20.74-.4-.34-2.11.41-1.82.66Z"/><path class="cls-1" d="M288.92,316.74c3.07-.22,6.15-.77,9.18-1.23a10.35,10.35,0,0,0,4.31-1.27c2.35-1.68,1.15-4.13.26-6.43-2.5-6.51-2.42-13.33-2.74-20.21a99.35,99.35,0,0,1,1.8-23.78c.17-.86-1.8-.56-2,.2-2.09,10.7-2,21.3-1.45,32.14a49.17,49.17,0,0,0,3.14,14.12c1.75,4.92-9.26,5-12.33,5.22-1,.07-1.55,1.33-.22,1.24Z"/><path class="cls-1" d="M298.66,258.55v4.6c0,.42,2,.1,2-.51.05-2.23.48-4.43.53-6.66l-1.92.52c0,3.41,0,6.82,0,10.24,0,.41,1.94.1,1.94-.52V256c0-.42-1.92-.1-1.93.52-.05,2.23-.48,4.43-.53,6.65a13.79,13.79,0,0,1,1.89-.51V258c0-.41-2-.1-2,.52Z"/><path class="cls-1" d="M288.55,318.77c-1.33,5.3.26,9.33,6,9.9,4,.39,9.65-.65,12-4.29.55-.85-1.42-.78-1.83-.15-1.86,2.89-6.34,3.31-9.46,3.15-5.17-.25-5.82-4.62-4.78-8.8.21-.85-1.75-.58-1.94.19Z"/><path class="cls-1" d="M292.31,325.2a32.45,32.45,0,0,0,8-.94c5.21-1.11,9.69.89,14.66,2,5.63,1.21,11.09.29,16.4-1.72,1.29-.48.06-.67-.66-.4-7.78,2.94-14.3,1.62-21.84-.67-5-1.54-10.25,1.18-15.32,1-.39,0-2.2.74-1.26.77Z"/><path class="cls-1" d="M305.05,313c5,.94,9.27,3.57,14.16,4.83,4.15,1.08,10,1.29,12.91,4.77.39.47,2.24-.21,1.8-.73-2.6-3.06-7.47-3.64-11.16-4.47-5.72-1.28-10.73-4.29-16.51-5.37-.55-.11-2.27.77-1.2,1Z"/><path class="cls-1" d="M275.56,228c-2.52,2.23-4.34,5.16-6.34,7.84-2.56,3.41-5.78,6.13-8,9.82-2.74,4.57-4.19,9.7-7.35,14s-5.7,8.72-8.76,12.94c-.45.62,1.46.38,1.77,0,5.16-7.11,10.26-14.42,13.88-22.43a44,44,0,0,1,8.16-12c2.89-3.15,4.92-7.14,8.14-10,.79-.7-1.13-.53-1.52-.19Z"/><path class="cls-1" d="M247.17,270.32c-3.9,4.55-5.15,10.69-6.21,16.43-1.44,7.79-3.17,15.88-2.76,23.83l1.54-.71c-1.57-.38-3.08-.83-4.61-1.36-3.14-1.1-1.43-1.21.28-2.23,1.12-.66-.51-1.24-1.26-.79a20.7,20.7,0,0,0-2.93,2c-.25.21-.59.71-.12.93a37.43,37.43,0,0,0,7.51,2.65c.42.1,1.57-.05,1.54-.71-.37-7.17,1.2-14.2,2.33-21.25,1-6.25,2-13.38,6.29-18.33.79-.91-1.07-1.11-1.6-.5Z"/><path class="cls-1" d="M225,308.09a25.4,25.4,0,0,0-1,16.48c0,.13.24.16.35.16,4.92.12,12.52,2.09,12.33-5.29,0-.39-1.95-.07-1.93.52.08,3-1,4.47-4.1,4.34-1.5-.07-3-.31-4.48-.4-1.23-.07-1.23-6.44-1.24-7.3a23.6,23.6,0,0,1,2-8.83c.16-.41-1.7-.2-1.92.32Z"/><path class="cls-1" d="M226.53,321.55c2.88,2.21,7,1.29,10.4,1.55,2.22.18,2.49,2.28,4.38,2.58a9.91,9.91,0,0,0,3.68-.21c2.18-.36,3.8-1.4,6.11-1.43,1.83,0,3.62.07,5.44,0a8.7,8.7,0,0,0,5.5-2.35c.36-.34-1.42-.1-1.74.19-1.3,1.24-17.49,3.06-19,1.77-3.55-3.08-9.19.2-13-2.69-.4-.3-2,.47-1.83.63Z"/><path class="cls-1" d="M240.23,311.87c5.83,7.15,15.31,8.27,24,8.33.66,0,2.08-1,.78-1-8.36-.06-17.34-1.17-23-8.06-.38-.46-2.23.2-1.8.72Z"/><path class="cls-1" d="M275.22,111.17c-1.6,3.23-1.94,6,1.83,7.29,1.61.56,3.35.66,5,1.12,4.33,1.22,2.58,6.63,1.29,9.42a.22.22,0,0,0,.06.22c3.84,2.24,1,6-.06,9.51-.06.21.19.31.36.32l2.13.7c.54.32,2.22-.47,1.81-.71-3.54-2.07-.22-6,.05-9.51,0-.22-.14-.31-.35-.33-2.61-.21-.87-3.55-.63-4.59a6.13,6.13,0,0,0-.59-3.83,4.28,4.28,0,0,0-3.15-2.23c-4.72-1.34-8.79-1.65-5.81-7.66.22-.46-1.65-.27-1.92.28Z"/><path class="cls-1" d="M270.36,90.43c4.56-.9,11.56-2.67,15.45.7l.79-.78c-4.45,1.17-6.92,4.85-10.37,7.6-.84.67,1.1.56,1.52.22,2.95-2.35,5.27-6,9.07-7,.18,0,1.18-.44.8-.78-4.3-3.72-12-1.91-17-.92-.85.17-1.63,1.2-.29.94Z"/><path class="cls-1" d="M285.75,93.46c-.45,13.63,7.92,25.58,17.88,34.12.42.35,2.16-.39,1.82-.68-9.94-8.51-18.22-20.38-17.77-34,0-.34-1.91-.08-1.93.52Z"/><path class="cls-1" d="M275.27,107.3a45.29,45.29,0,0,1,15.89,13.24c3.22,4.08,6.54,8.14,11.78,9.5.33.09,1.66-.1,1.74-.54a2.58,2.58,0,0,1,.81-1.62c.13-.21-1.6-.13-1.9.34a2.53,2.53,0,0,0-.81,1.62l1.75-.54c-6.41-1.66-10-7.6-14-12.43a40,40,0,0,0-13.48-10.22c-.5-.25-2,.55-1.82.65Z"/><path class="cls-1" d="M298.39,126.53a9.09,9.09,0,0,0-9.25,3.66c-.71,1,1.1,1.32,1.63.59a6.61,6.61,0,0,1,7-2.83c1,.21,1.94-1.15.66-1.42Z"/><path class="cls-1" d="M287.36,94.1a96.1,96.1,0,0,0,3.25,21.24c.21.83,2.14.32,1.93-.51-1.68-6.86-3.12-13.83-3.23-20.91,0-1-2-.61-1.95.18Z"/><path class="cls-1" d="M240.37,133.86c-1.76,6.91-7.45,12.09-12.34,16.95S218.41,161,213.41,166c-5.42,5.34-10.84,10.72-16.39,15.93-4.89,4.59-10.07,9.1-13.31,15.06-.42.76,1.5.5,1.78,0,3.42-6.28,9-11,14.12-15.8,6.08-5.71,12-11.62,17.93-17.51,4.85-4.82,9.42-9.9,14.23-14.77,4.34-4.4,9-9.1,10.52-15.26.16-.64-1.77-.34-1.92.27Z"/><path class="cls-1" d="M225,121.67c-8.9,27.25-33.8,45.06-51.68,66.15-.18.2-.32.55,0,.7a15.49,15.49,0,0,1,6.35,5.57c.44.6,2.3-.09,1.79-.79a22.92,22.92,0,0,0-4.08-4.38c-1.52-1.24-2.13-1.15-.65-2.86,2.58-3,5.3-5.86,8-8.72,5.72-6,11.61-11.84,17.26-17.9,10.38-11.12,20.12-23.34,24.9-38,.25-.75-1.71-.5-1.94.21Z"/><path class="cls-1" d="M171.63,191c-4.23,4.45-10.81,14.23-6.09,20.16,2.41,3,4.82.25,6.67-1.38s3.88-2.87,5.59-5,1.82-4.69,3.56-6.7l-1.78-.05c.55,1.32,1.62,3.07,3.24,1.83,1-.8-.51-1.56-1.3-1,0-.47,0-.93,0-1.4-.3-.73-1.34-.56-1.78-.05-1.9,2.19-2.27,5.09-4,7.29a24,24,0,0,1-4.77,4.05c-2.17,1.59-4.1,1.53-5-1.31-.79-2.6,1.08-6.05,2.17-8.31a30.3,30.3,0,0,1,5.15-7.58c.84-.89-1-1.29-1.63-.63Z"/><path class="cls-1" d="M171.73,189.32c-6.83-3.09-12.79-4.67-16.3-11.91-3.12-6.41-3.83-14-6.65-20.59-5.5-12.94-15.63-22.17-28.11-28.28-.34-.17-1.9.06-1.87.58,1,22-25.41,29.58-42.14,35.09-19.39,6.38-39.1,15.79-51.11,33-12.38,17.75-10.76,45,9.12,56.49,9.58,5.53,23.34,3.82,29,14.81,3.35,6.44-1.48,13.59-4.85,18.88A18.36,18.36,0,0,0,56.25,301c2.79,13.91,22.69,18.86,34.52,19.56.39,0,2.21-.71,1.26-.77-10-.58-20.38-3.56-28.05-10.14a17.56,17.56,0,0,1-6.13-11.16c-.86-6.53,3.24-11.55,6.22-16.85s3.45-10.88.08-16.26c-2.47-3.95-7.49-5.66-11.71-6.94-5.43-1.65-10.85-2.67-15.94-5.34A31.72,31.72,0,0,1,24,240.59c-5.89-10.19-5.46-23.29-1.58-34.06,4.24-11.77,13.85-20.85,24-27.68,17.22-11.58,37.77-14.28,55.77-24,10.29-5.54,19.11-13.71,18.56-26.27l-1.88.59c13,6.38,22.8,15.92,28.52,29.36,2.82,6.64,3.52,14,6.66,20.48s9.72,8.16,15.88,10.94c.51.23,2-.57,1.82-.65Z"/><path class="cls-1" d="M187.5,200.06c7.77.7,15.22,1.77,22.94.15,4.82-1,9.46-3.16,14.2-4.51,9.32-2.65,26.41-6.25,28.69,7.17l.79-.91c-9.76,3-18.85,10.6-24.48,19-2.15,3.2-3.33,6.35-1.53,9.95,1.6,3.22,4.26,4.78,2.84,8.93-1.15,3.35-6.16,5.13-9,6.87-10.72,6.51-21.23,12.94-27.94,23.87-3.79,6.17-5.05,15.78,4,17,.94.13,2-1.21.67-1.39-12.61-1.73-1.6-18.11,2.55-22.72,7.65-8.5,18.39-13.33,27.83-19.4a8.35,8.35,0,0,0,4.2-8c-.42-4.68-5.82-6.22-3.6-11.72,3.79-9.41,15.3-18.27,24.78-21.15.4-.12.87-.42.79-.91-1.9-11.17-14-11.4-23-9.77A105.23,105.23,0,0,0,216,197c-9.47,3.33-18,2.51-27.81,1.63-.94-.08-2,1.27-.68,1.39Z"/><path class="cls-1" d="M197.41,290.27c-.89,6.7-23.12.05-27-.5s-12,2-7.55,7.05c2.06,2.32,5.61,3.35,8.16,5,6.43,4.16-5.7,7-9,7.58A35.21,35.21,0,0,1,138.55,306c-6.51-3.44-11.72-9.1-17.24-13.86-7.6-6.55-16.55-11-26.69-11.42-6.77-.3-15.85,3-17.57,10.39-1.4,6,10.24,7,13.7,7.37,7.6.74,18.63-1.93,24,4.77a9.73,9.73,0,0,1,1.62,4.22l1.36-.77c-10.81.69-21.61-.7-32.42,0-.33,0-1.47.21-1.35.77.5,2.29,4.84,4.31,6.54,5.58,1.45,1.08,3.2,2.31,4,4,.27.74-.06,1.23-1,1.45-1.24-.28-1.84.14-1.78,1.24a5.46,5.46,0,0,0,2-.95c1.12-.65-.6-.84-1.18-.5l-1.7.57c-.91.08-1.63,1.1-.29,1,2.29-.19,7.62-.81,5.43-4.26-1.25-2-3.69-3.38-5.52-4.71-1.22-.88-4.12-2.33-4.47-3.94l-1.35.77c10.81-.7,21.61.69,32.41,0,.34,0,1.48-.21,1.36-.77-1.94-8.9-10.74-9.23-18.32-9.17-5.23,0-19.21.83-21-5.79-.66-2.44,2-5.12,3.51-6.6,3-3,7.36-3.64,11.35-3.65,6.15,0,12.39,2.29,17.67,5.3,11.36,6.5,18.82,18.06,31.47,22.58,9,3.22,19.91,1.43,28.63-2,7.19-2.87.63-6.89-3.2-8.92a14.43,14.43,0,0,1-4.19-3,2.72,2.72,0,0,1-.49-2.61c.72-3.13,4.62-2.35,6.62-2.07,4.11.58,8.15,1.81,12.25,2.5,3.55.6,14.39,2.33,16.4-2.24a2.2,2.2,0,0,0,.33-1.17c.09-.71-1.85-.34-1.93.26Z"/><path class="cls-1" d="M72.29,232c15.19-5.31,25.18,11.79,34.69,20.75,7.83,7.37,17.6,12.36,28.42,13.17,5.31.4,13.52-1.15,12.81-8.06-.85-8.22-13.21-12.45-19.55-15.14-.44-.19-2.19.51-1.58.77,6.91,2.94,17.29,6.67,19.2,14.89,1.79,7.75-9.74,7-14.46,6a45.9,45.9,0,0,1-15-6c-9.36-5.82-16.11-15.07-24-22.56-6.22-5.91-13.29-7.17-21.24-4.39-1.3.45-.07.74.68.48Z"/><path class="cls-1" d="M118.05,239.42c6.77,5,13.79,9.43,21.69,12.32s16.58,3.46,25,3.18c.58,0,2.1-.93.81-.89a67.43,67.43,0,0,1-24.24-3.1c-7.83-2.65-14.83-7.36-21.45-12.2-.48-.34-2.19.42-1.81.69Z"/><path class="cls-1" d="M155.48,240.41c4.29,1.84,9.15.21,13.61.11,1,0,1.54-1.29.21-1.26-3.89.08-8.59,1.71-12.31.11-.68-.29-2.41.65-1.51,1Z"/><path class="cls-1" d="M99.42,176.57c7.34.08,13.37,1.69,18.54,7.12,4.91,5.14,8.11,11.74,12.06,17.6,7.59,11.21,17.15,20.16,29.71,25.47.8.34,2.24-.82,1.11-1.29-15.34-6.5-25.21-18.55-33.79-32.37-3.39-5.47-6.91-11-12.39-14.59-4.42-2.91-10-3.29-15.07-3.35-1.1,0-1.48,1.39-.17,1.41Z"/><path class="cls-1" d="M128.52,176.93c2.21,8.48,10.35,16.36,17.89,20.34.51.27,2.08-.53,1.82-.67-7.53-4-15.58-11.76-17.78-20.18-.12-.46-2,.05-1.93.51Z"/><path class="cls-1" d="M139.87,181.8a12.62,12.62,0,0,0,3.32,5,1.27,1.27,0,0,0,1.8-.33,13.92,13.92,0,0,0,1.68-5c0-.94-1.91-.61-1.95.18a12.74,12.74,0,0,1-1.56,4.69L145,186a11.78,11.78,0,0,1-3.16-4.71c-.28-.81-2.2-.27-1.93.52Z"/><path class="cls-1" d="M244.56,68.33c5.45-6.5,14.92-6,21.71-10.38.25-.17.49-.54.26-.82-3-3.65-7.34-3.07-11.58-2.4-4.65.73-9.42.54-13.54,3.12-4.47,2.79-7.6,8.05-11.58,11.53s-8,7.14-8.93,12.56c-.06.36.34.56.63.58,5.52.35,7.63-4.42,12.11-6.62,1.19-.59.12-1.53-.83-1.06-2.52,1.25-4.32,3.22-6.46,5-6,5-1.36-3.36-.64-4.31a30.39,30.39,0,0,1,3.6-3.75c2.39-2.25,5-4.24,7.15-6.7,2.68-3,5-6.45,9-7.73,3.28-1,7.08-1,10.48-1.5,2.49-.39,4.94-.63,7.28.6,2.62,1.36-4.22,3.34-4.1,3.3-5.82,1.94-12.08,3.15-16.21,8.06-.78.93,1.07,1.14,1.6.51Z"/><path class="cls-1" d="M252.48,54.69c-6.46-.17-12.26-1.34-17.5,3.15-6.22,5.34-8,14.62-13.17,20.83l1.83-.22c3.56-6.45,7-13,11.91-18.55,8.25-9.4,19.35-2.1,29.68-2.75.55,0,2.1-.92.82-.84-9.74.61-19.71-5.89-28.62.34-7.29,5.09-11.53,14.58-15.7,22.12-.22.4,1.58.09,1.84-.21,3.3-3.93,5.4-8.61,7.77-13.12a31.39,31.39,0,0,1,5.4-7.71c3.8-3.79,9.72-2.32,14.51-2.2.44,0,2.22-.82,1.23-.84Z"/><path class="cls-1" d="M244.83,59.87c-6.28,3.07-10.71,8.7-15,14.06-.19.24,1.48,0,1.69-.18,6.19-3.88,10.18-10.07,14.8-15.58.22-.26-1.36,0-1.5.08-6.7,3.17-12.4,8.83-16.61,14.87-.16.22.47.18.53.18,7.06-.64,11.31-6.86,14.34-12.69.12-.25-.44-.19-.52-.19-8.13.67-12,9.08-16,15.13-.21.33,1.2,0,1.28,0,7.51-2.36,12.88-9.69,16-16.57.16-.34-.93-.12-1-.09-8.86,2.47-16.19,11.69-19.52,19.89-.17.41,1.37,0,1.5-.08,7.55-3.6,15.83-12.47,18.23-20.54.12-.4-1.14-.06-1.28,0-6.15,2.42-13.08,9-13.6,15.85,0,.29,1.2,0,1.29-.07,8-3.1,12.15-10.72,16.83-17.39.08-.1-.08-.17-.15-.18-4.38-.43-8.06,2-10.66,5.4-.09.11.09.16.15.18,7.14,2,12.65-2.66,17.87-6.93.42-.34-.57-.26-.68-.24-6.94,1.29-14.12,5.38-17.34,11.86-.06.11.06.16.15.18C243.33,68.29,250.6,61,256,56.64c.25-.2-.07-.27-.24-.28-7.39-.48-16.47,3.81-20.22,10.28-.07.11.06.16.15.18,8.28,1.35,14.59-6.23,21.61-9.18.29-.12.65-.49.08-.47-6.91.31-12.77,3.21-19,5.95-.11,0-.69.4-.25.45,6.73.74,14.38-2,20.17-5.21.19-.11.35-.28.06-.37-6.24-1.78-14.11-.91-19.49,2.88-.27.19.07.29.24.29,7-.35,13.07-3.79,19.89-4.91.75-.13,1.74-.88.38-.65A38.1,38.1,0,0,0,254,56.83q-2.44.8-4.86,1.64c-1.35.46-5.71.19-.55-.44.73-.09,8.69.14,6.66,1.16a41,41,0,0,1-10.47,3.42,5.94,5.94,0,0,1-3.75,0c1.56-.68,3.11-1.41,4.68-2.09,1-.45,13.32-4.6,8.18-2-.88.44-1.72,1-2.56,1.49-2,1.24-4,2.62-6,3.88-1.83,1.13-9.17,4-6.7.66a19.15,19.15,0,0,1,4.62-4c1.54-1,13.23-5.52,9.62-2.56-2.14,1.76-4.31,3.49-6.6,5.07-1.34.92-10,4.89-7.53,1,2.17-3.41,6.08-5.76,9.65-7.4,6-2.79-2.13,2.93-2.94,3.45-6.52,4.21-8.61,1.4-5.37-1.43l3.74-.8L242.33,60c-3.54,5.25-7.3,11.19-13.48,13.59l1.29-.07c.47-6.22,6.74-12.76,12.32-14.95h-1.27C238.88,66.3,231,75,223.76,78.51l1.5-.08a41.9,41.9,0,0,1,11.37-15.32l1-.84a6.77,6.77,0,0,1,3.88-1.9,37.27,37.27,0,0,1-2.62,4.55c-2.77,4.28-6.69,8.69-11.69,10.26h1.28c1.76-2.7,3.4-5.46,5.28-8.08a24.45,24.45,0,0,1,4.2-4.48c4.77-4,1,2.15.57,2.87A25.52,25.52,0,0,1,234,70.68q-4.83,2.71-2.48.16c.82-1,1.67-2.06,2.58-3a38.61,38.61,0,0,1,11.83-9.35l-1.5.08C240,63.87,236.07,70,230.06,73.75l1.68-.18c4-5.06,8.24-10.59,14.19-13.5,1.14-.56-.67-.4-1.1-.2Z"/><path class="cls-1" d="M247.92,57.74c-7.31,1.3-12.08,7.33-13.24,14.49-.11.7,1,.51,1.38.38,5.9-2.44,8.24-9.44,11.85-14.2.55-.71-1-.68-1.31-.54-7.29,3.42-13.48,10.62-17.53,17.44-.53.89,1.2.6,1.53.42,5.44-3,9.06-8.22,12.45-13.26l-1.88,0c-1.45,5.37-1.62,10.69-1.62,16.21,0,1,1.72.46,1.94-.2l2.43-7.29c.27-.81-1.49-.42-1.76-.12a30.7,30.7,0,0,0-4.27,6.64l1.77,0V74.46c0-.59-.6-.54-1-.47-2.4.46-7.51,5.05-2.58,5.24.82,0,2.05-1.19.74-1.24-.41-1.72.21-2.67,2.11-2.87a2.51,2.51,0,0,0-1.25-.46V77.9c0,.89,1.74.51,2,0a28.73,28.73,0,0,1,4-6.32L242,71.42c-.82,2.43-1.61,4.86-2.42,7.29l1.95-.2c0-5.52.18-10.84,1.63-16.2.24-.9-1.6-.38-1.88,0-3.24,4.83-6.67,9.8-11.87,12.67l1.53.42c3.78-6.36,9.7-13.4,16.51-16.6l-1.31-.54c-3.28,4.31-5.52,11.17-10.84,13.36l1.38.38c1-6,4.68-11.92,11.07-13.06,1-.18,1.54-1.47.22-1.23Z"/><path class="cls-1" d="M251,64.35l.81.81c.36.36,2.12-.36,1.82-.65l-.8-.81c-.36-.36-2.12.36-1.83.65Z"/><path class="cls-1" d="M253.1,64.54c1.36,0,2.74,0,3.47,1.36.34.63,2.2,0,1.93-.51-1-1.77-2.81-1.88-4.63-1.88a1.68,1.68,0,0,0-1.28.51c-.27.37.23.52.51.52Z"/><path class="cls-1" d="M233.93,74.47a51.61,51.61,0,0,0-3.3,9.9c-.22.88,1.64.63,1.89,0a12.91,12.91,0,0,0,.87-5c0-1-1.56-.55-1.89,0A17.68,17.68,0,0,0,229,88.42c0,.91,1.67.68,1.89,0A27.89,27.89,0,0,0,232.58,81c0-1-1.56-.52-1.9,0a39.39,39.39,0,0,0-4.05,8.11c-.36,1,1.57.94,1.84.18a39.65,39.65,0,0,1,4.05-8.11h-1.89a26.47,26.47,0,0,1-1.57,7.12H231a17.1,17.1,0,0,1,2.37-8.74h-1.89a11.62,11.62,0,0,1-.76,4.69h1.9a50.74,50.74,0,0,1,3.18-9.55c.46-1-1.49-.91-1.83-.18Z"/><path class="cls-1" d="M246.86,142.79c-.52.82,3.13,1.22,3.5,1.27a55,55,0,0,0,7.58.63c.58,0,2.11-.85.82-.86-1.79,0-3.58-.21-5.35-.4-.43-.05-4.76-.77-4.64-1s-1.6-.18-1.91.31Z"/><path class="cls-1" d="M255,140.53c1.74,1.79,3.12,3.89,4.86,5.68.35.35,2.12-.35,1.82-.66-1.74-1.78-3.12-3.89-4.86-5.67-.35-.36-2.12.35-1.82.65Z"/><path class="cls-1" d="M278.47,87.8c6.54,1.64,21.34-7.68,24.87-.17l1.87-.61c-1.76-1.13-3.06-2.75-4.82-3.87-.43.27-.86.81-1.3.81h7.72c.4,0,2.06-.74,1-.93-1.32-.22-2.54-.76-3.86-1-.33.32-.66.92-1,.92h1.93c.26,0,1.95-.56,1.17-.87-5.62-2.24-8.23-8.93-10.42-14.1s-3.85-10.71-6.74-15.58c-.34-.58-2.17.11-1.93.52,3.31,5.57,5.13,12,7.73,17.89,2.05,4.68,4.78,10.1,9.8,12.1.4-.3.79-1,1.18-1h-1.93c-.4,0-2.06.82-1,1,1.32.23,2.54.73,3.86,1,.33-.32.66-1,1-1h-7.72c-.17,0-1.82.54-1.29.87,1.75,1.13,3.06,2.75,4.82,3.88.33.21,2.14,0,1.87-.6-4-8.59-18.94,1.42-25.25-.17-.53-.13-2.25.69-1.56.86Z"/><path class="cls-1" d="M288.55,51.13c4.74-3.73,9.59-7,11.85-12.84l-1.88.18c6.23,13.61,8.46,28.71,16.32,41.6,1.12,1.84,7.33,8,4.81,9.06-2.94,1.24-6.23,1.73-9.28,2.63-4,1.18-7.62,3.12-9,7.27-.26.82,1.7.58,1.95-.18,2.42-7.47,14-6.59,19.89-10.13.23-.14.51-.54.26-.79C310.05,74,308.2,54.88,300.46,38c-.3-.65-1.64-.44-1.89.19-2.16,5.56-6.75,8.67-11.27,12.22-1,.81.56,1.31,1.25.77Z"/><path class="cls-1" d="M297.5,37.85c-6.55-8.33-2.06-19.53.06-28.69.13-.59-1.11-.28-1.33-.2-4.45,1.62-6.25,5.8-7.41,10.11a8.36,8.36,0,0,0,1.84-.39V13.86c0-.55-1.72-.09-1.84.39-.27,1-.67,1.89-.93,2.89l1.94-.27c.17-3.59.85-7.13,1-10.73,0-.62-1.67.06-1.85.28-3.63,4.22-4.74,11.23-4.9,16.63l1.36-.75c-1.74,0-1.35-8.94-1.35-10.37,0-.55-1.81-.1-1.93.39-1.68,7.31,1.47,14.83-.52,22.07-1.61,5.84-11.75,1.78-12,8.9,0,.14.27.21.36.22,6.09.63,15.45-4.71,19.94.85.37.46,2.23-.2,1.81-.72-2.09-2.59-5.18-3-8.35-2.64-2.45.29-4.86.81-7.29,1.25l-1.17.19q-5.15,1.22,1.32-3.66a32.06,32.06,0,0,0,3.61-.85c3.33-1.07,4.07-4.41,4.34-7.52.55-6.16-1.53-12.23-.12-18.36l-1.92.39a39.85,39.85,0,0,0,1,10.45c.06.22.4.07.57.07h1c.43,0,1.34,0,1.36-.59.15-5.16,1.28-12,4.74-16.06-.62.09-1.23.22-1.85.31-.13,3.52-.8,7-1,10.5,0,.72,1.78.28,1.92-.26.26-1,.59-1.88.85-2.89a20.47,20.47,0,0,1-2,.4v4.82c0,.56,1.91.08,2-.39,1-3.56,2.31-7.75,6.21-9.17l-1.3-.2c-2.17,9.36-6.62,20.63.07,29.14.37.47,2.24-.19,1.82-.72Z"/><path class="cls-1" d="M244.46,327.13c5.58-.19,11.21-1.83,16.65-2.93,1-.21,1-1.4-.09-1.37-5.7.16-11.08,1.93-16.65,2.94-1,.19-1,1.39.09,1.36,6.17-.13,12.15-1.77,18.31-1.92.64,0,1.67-1,.65-1.36a25.34,25.34,0,0,0-19.3,2c-.49.27-.86,1-.13,1.22,7.14,2.57,13.58-1.57,20.71-1.87,1.1,0,1.49-1.47.17-1.41-6.68.28-13.1,4.38-19.77,2,0,.41-.08.81-.13,1.22a22.66,22.66,0,0,1,17.33-1.85l.65-1.35c-6.16.15-12.15,1.79-18.32,1.92l.09,1.37c5.4-1,10.61-2.7,16.13-2.85l-.09-1.36c-5.28,1.07-10.73,2.66-16.13,2.84-1.09,0-1.49,1.46-.17,1.41Z"/><path class="cls-1" d="M238,319.53c-2.38,2.15,6.49,5,7.71,5.44l1.54-.93a78.54,78.54,0,0,1-7.71-2.89c-.52-.24-2.35.47-1.54.92,1.64.92,3.18,2,4.82,2.9l1.54-.93c-7.87-4.33-13.42-5.41-22.1-2.9-.57.16-1.34,1.05-.25,1,3.87-.12,7.69-.84,11.56-1,.69,0,2.08-1.09.76-1.08a19.21,19.21,0,0,0-7.5,1.11c-.39.16-1,.78-.22.91,1.64.28,3.16.79,4.82,1,.33-.35.65-.7,1-1.06-3.32,0-6.18.19-8.86,2.28-.46.35,0,.65.4.65h5.78c.25,0,.5-.68.75-1a5,5,0,0,0-4,1.37c-.11.11-.32.39-.12.54a6.5,6.5,0,0,0,4.37,1.14c.72,0,2.07-1.07.76-1.08l-1.72-.85c.7,0,2.07-1.08.75-1.08h-2.89c-4.49,0,2.65-.84,4.07-.85.47,0,2.06-.94,1-1.06a10,10,0,0,1-2.77-.48c-3.74-.92,2.81-.38,3.72-.38l.76-1.08c-3.88.12-7.69.84-11.57,1-.08.34-.16.68-.25,1,3.58-1,7-1.91,10.78-1.31,3.37.54,6.59,2.57,9.53,4.19.54.3,2.33-.49,1.54-.93-1.64-.92-3.18-2-4.82-2.89-.51.31-1,.62-1.54.92a78.61,78.61,0,0,0,7.71,2.9c.57.19,2.34-.65,1.54-.93s-8.44-3.54-7.7-4.2-1.09-.72-1.55-.31Z"/><path class="cls-1" d="M294.09,325h-1.93c-.45,0-2.08.79-1,1A49.77,49.77,0,0,0,302,327c.26-.35.51-1,.76-1h-10.6c-.25,0-.51.68-.76,1a34.61,34.61,0,0,0,9.18-1.05c.6-.16,1.32-1,.25-1-4.62-.12-8.9-.64-13.28,1.11-.24.09-1,.62-.4.83,4.82,1.78,9.24.12,13.68-2,.54-.26.89-.91,0-.91h-5.78c-.45,0-2.07.76-1,1.05a19.58,19.58,0,0,0,10.36-.05c.61-.16,1.32-1,.26-1-4.35-.11-8.55-.8-12.54,1.23-.43.22-.51.64,0,.78a34,34,0,0,0,8.89,1c.25-.35.5-1,.76-1h-2.65c-1.66,0-4.4.91-1.17-1,4.32-2.64,9.34-2.24,14.08-1.59,5.85.79,11.81,0,17.68.71.33-.35.65-1.07,1-1.07H319.15c-.28,0-2,.67-1.15,1,4.25,1.69,8.12,1.08,12.46,0,.6-.15,1.32-1,.26-1-4.34,0-8.3.35-12.33,2.09-.34.15-1,.8-.22.88,6.75.72,13.11-.88,19.74-1.92.9-.14,1.61-1.23.27-1-4.07.63-8.1,1.52-12.2,2-1.53.19-7.52,0-.74-.84,1.85.85,3,.6,3.32-.72a12.6,12.6,0,0,1-9-.45c-.38.33-.77.93-1.15.93H330c.46,0,2.06-.86,1-1-7.47-.89-15.13-.74-22.64-1.29a21.81,21.81,0,0,0-14.39,4.58c-.47.35,0,.69.39.69H301c.69,0,2.07-1,.76-1.06s-2.32,0-3.47-.06c-7.32-.23-.85-1.06,1-1l3.1.17a36.05,36.05,0,0,1-7.17-1c-.33.34-.65,1-1,1h3.86c2.75,0-7,.84-4.34.76,1.58-.05,3.2.14,4.78.22-2.15-.11-4.26-.06-6.43-.05-.7,0-2.07,1.07-.76,1.07H302c.7,0,2.07-1.06.76-1.06a49,49,0,0,1-10.39-1c-.32.35-.65,1-1,1h1.93c.69,0,2.06-1,.76-1Z"/><path class="cls-1" d="M402.53,218.11c7.31-2.18,11.31-9.54,14.49-15.92,4.33-8.69,7.83-17.53,12.71-25.95,6.34-11,13.62-21.66,23.88-29.31,10.85-8.09,25.37-10.41,38.6-10,24.34.8,48.35,13,63.79,31.66,7.53,9.13,14.73,17.83,24.14,25.16,9.62,7.49,20.6,13,31.9,17.48.71.28,2.26-.74,1.15-1.18-12.56-5-24.39-11.36-34.84-20-9.78-8-16.53-18.41-25.17-27.48-15.51-16.28-37.93-25.79-60.26-26.92A73.86,73.86,0,0,0,461.5,141c-10.29,4.21-18.27,12.62-24.77,21.38a145,145,0,0,0-16.08,27.49c-3.85,8.75-7.34,20.21-15.61,25.87a9.62,9.62,0,0,1-2.82,1.24c-1.16.34-.86,1.48.31,1.14Z"/><path class="cls-1" d="M399.25,217.81c-6.48,0-37.63,1.3-32.77,13.61.29.73,2.2.16,1.93-.51C364.18,220.19,392.28,219,398.52,219c.77,0,2-1.18.73-1.17Z"/><path class="cls-1" d="M361.11,248.13c-7.61,1.58-14.77,3.35-22.6,2.36-9.28-1.16-13-8.89-12-17.55.46-4,2-8.44.36-12.43-1.13-2.75-5.55-4-7.93-5-.13.44-.26.88-.38,1.32,3.95-1.07,13-3,15.94.85,4.17,5.52-1.3,13.79,5,18.58,3.4,2.58,7,2.72,10.94,1.47,4.4-1.37,10.08-6.55,14.82-4.62.82.33,2.25-.84,1.11-1.31-3.64-1.48-7.28.37-10.55,2-2.75,1.36-5.45,2.8-8.52,3.31-6.69,1.1-9.51-5.7-9.36-11.15.13-4.76-.1-9.89-5.43-11.27-4.49-1.17-9.92-.37-14.33.82-.63.17-1.19,1-.38,1.32,2.32,1,5.24,1.88,6.9,3.91,1.41,1.71.84,5.09.84,7.12,0,3.21-1.28,6.42-1.24,9.73s1.47,6.19,3.16,9c2.51,4.22,8.56,5.2,13,5.59,7.21.63,14.05-1.27,21-2.72,1.21-.26.84-1.58-.36-1.33Z"/><path class="cls-1" d="M364.92,232.76c5.42,4.61,2.47,10.86-1.71,15.15-.45.46,1.42.24,1.76-.11,4.35-4.46,7.37-11,1.76-15.72-.42-.35-2.15.39-1.81.68Z"/><path class="cls-1" d="M378.52,219.42c4.5-5.95-5.48-7.92-9.52-8.33-8.55-.86-17.44,1.28-21.68-8.27l-1.54.81c8,2.9,15.65,3.05,24,1.87,4.61-.65,9.59-1.07,13.83,1.22,3.85,2.09,5.07,7,5.81,10.95.14.72,2.08.24,1.93-.52-1.45-7.75-5.05-12.58-13.14-13.26-4.89-.42-9.77.81-14.62,1.18a39.56,39.56,0,0,1-16.65-2.55c-.35-.13-1.82.2-1.55.81,2.4,5.41,6.31,7.86,12.08,8.55,3.32.39,25-.22,19.24,7.45-.55.74,1.4.62,1.81.09Z"/><path class="cls-1" d="M358.47,252.7a24.61,24.61,0,0,1-3.36,8.86,61.33,61.33,0,0,0-4.57,10.08c-1.72,4.5,2,7.55,2.77,11.62.49,2.57-2,4.27-3.37,6-1.5,1.92-1.7,4.94-1.85,7.27-.08,1.47-.16,5.14,1.5,5.85,2,.83,2.5,3.88,4.52,4.74.53.23,2-.57,1.82-.66-3.72-1.58-5.91-6.79-5.9-10.45,0-2.7.63-6.25,2.8-8.12,1.17-1,2.48-2.83,2.44-4.43-.14-4.62-4.1-7.11-2.82-12.18,1.71-6.81,6.78-12,7.92-18.94.08-.47-1.83-.13-1.9.34Z"/><path class="cls-1" d="M354.23,307.21c8,1.54,15.86,1.74,23.29-2.11,9.37-4.86,13.41-14.63,21.48-20.82.81-.62-1.13-.42-1.5-.13-5.19,4-8.42,9.51-12.8,14.23-7.69,8.28-18.16,10.09-28.89,8-.49-.1-2.19.69-1.58.8Z"/><path class="cls-1" d="M618.67,218.79a32.77,32.77,0,0,1,10,27c-1,8.71-7.07,16.16-10.77,23.85-.44.92,1.5.79,1.82.13,4.08-8.48,10-16,11-25.63,1-9.24-3.53-19.91-10.29-26.14-.57-.52-2.39.24-1.78.8Z"/><path class="cls-1" d="M559.52,251.3a49.36,49.36,0,0,0,13.71,16.57c6.69,5.07,15.07,7.45,20.1,14.49,3.68,5.14,6,10.41,11.73,13.66,8.47,4.8,17.74,8.08,26.18,13.05.63.37,2.38-.51,1.51-1a249.48,249.48,0,0,0-23.16-11.66c-6.85-3.12-9.93-7.72-13.82-13.85s-9.43-8.56-15.45-12a48.6,48.6,0,0,1-18.87-19.79c-.39-.75-2.28-.15-1.93.52Z"/><path class="cls-1" d="M632.58,311.92c1,2.38,2.22,4.6,3.19,7s0,5.07-.42,7.46c-.65,3.82.82,6.32,2.67,9.68.37.66,2.23,0,1.93-.52-2.42-4.39-3.08-6.63-2.33-11.52.8-5.16-1.19-7.81-3.11-12.57-.27-.69-2.18-.1-1.93.51Z"/><path class="cls-1" d="M657.45,315a33.5,33.5,0,0,0,11.73,16.43c.51.4,2.28-.36,1.8-.73a33.25,33.25,0,0,1-11.6-16.21c-.21-.64-2.13-.07-1.93.51Z"/><path class="cls-1" d="M616.76,210.15c10.86,3.75,21.26-.52,32-2.35,6.25-1.05,13.55-1,19,2.51s1.74,12.11,1.18,17.21c-.79,7.09,5.68,10.76,11.8,11.11,7.22.43,13.9-2.73,20.88-3.88,1-.16,1.53-1.49.21-1.28-6.87,1.14-13.31,4-20.39,3.88-4.63,0-8.33-2.18-10.19-6.44-1.94-4.45,1.61-10,1.39-14.59-.41-8.6-9.81-10.52-17-10.36-12.74.3-25.23,7.35-37.85,3-.74-.25-2.28.81-1.14,1.2Z"/><path class="cls-1" d="M623.41,217.76c6.39.83,13-2.3,18.89-4.26,4.33-1.43,9.59-3.19,13.88-.79,4.05,2.26,4.17,8.07,4.48,12,.35,4.38-.09,8.85,1.14,13.11s5.24,6.48,9.15,7.91c3.66,1.33,7.4.66,11.09-.18,5.39-1.22,12.84-4.89,17.88-1.33.42.29,2-.49,1.83-.64-7.8-5.5-19.22,3.53-27.63,1.93-13.12-2.51-10.79-15.1-11.83-25.1-2.08-20-27-2.08-37.29-3.39-.43-.06-2.06.64-1.59.7Z"/><path class="cls-1" d="M706.62,233c5.22-4.71,8.93-11,13.3-16.46,3.45-4.3,7.07-8.06,12.67-9.19,1.84-.37,6.72-1.38,6.67,1.73-.06,3.88-5.6,8.24-8.06,10.68s-5.63,4.76-7.74,7.61c-.17.23.48.2.53.2,3.8-.33,7-2.06,10.35-3.7,7-3.37-.33.29-1.58,1.1a17.7,17.7,0,0,0-4.39,4.37c-.08.11.09.17.16.18a19.78,19.78,0,0,0,7.89.24c1.12-.15,7.66-1.19,7.66,1.13,0,1-4.58,2.57-5.36,2.93a58.14,58.14,0,0,1-25.61,5.55c-.39,0-2.2.55-1.26.55h1.26c-.39,0-2.2.59-1.26.59,12.39,0,22.59-3.73,33.57-9.19a.51.51,0,0,0,.24-.45v-1s.14,0,.12-.06a10.34,10.34,0,0,0-5.81-1.15c-2.82.3-5.42.83-8.31.53a2.86,2.86,0,0,1,1.45-3.34,16.39,16.39,0,0,1,6.35-3.38c.54-.16.94-.64.11-.57A19,19,0,0,0,734.8,223a27.1,27.1,0,0,0-2.9,1.32c-.85.41-7.43,3.66-6.07,2.16,1.84-2,4-3.82,5.94-5.72,2.48-2.39,10.8-9,9.26-13.21-1.49-4-12.78.25-15,1.56-9.22,5.5-13.38,17-21.17,24.08-.39.36,1.41.14,1.75-.17Z"/><path class="cls-1" d="M484.83,292.57c9.77-2.18,19.53-4.48,28.55-8.95,5.89-2.92,11-7.4,16.14-11.4,7.21-5.6,14.38-14.44,23.82-16,.93-.15,1.59-1.3.26-1.09-6.19,1-11.29,4.85-16.07,8.68-6.73,5.39-13.12,11.15-20.2,16.11-9.43,6.62-21.7,9.14-32.76,11.61-1.19.26-.9,1.25.26,1Z"/><path class="cls-1" d="M589.08,284.33c-6.77,3.85-14.53,4-21.44,7.13-3.48,1.57-8.7,4-6.86,8.61.85,2.17,3.2,3.89,4.91,5.3,2.11,1.73,2.19,2,.12,3.52-1.07.81-2.12,1.64-3.16,2.48-3.69,3-8.7,7.05-9.16,12.13,0,.3,1.87.08,1.93-.51.63-6.88,9.52-12.29,14.51-16,.1-.07.34-.25.17-.38-2.75-2-5.67-4.07-7.39-7.09-2.82-4.92,5.53-7.58,8.73-8.4,6.51-1.65,13.25-3.4,19.12-6.73.84-.48-1.12-.3-1.48-.09Z"/><path class="cls-1" d="M553.86,263.34c-8.38,5.43-8.89,18.49-9.17,27.42-.21,6.4,2.24,13.23-2.1,18.72-2.77,3.5-7.76,6.95-3.77,11.42.41.47,2.25-.22,1.8-.73-4.28-4.79,3.42-9.59,5.65-13.65s.29-9.86.31-14.24c0-8.64.3-23.15,8.46-28.45,1.1-.71-.6-.86-1.18-.49Z"/><path class="cls-1" d="M538.93,321.24c-2.91,2.95-4.78,6.06-5.1,10.25,0,.34.32.48.61.48,12.68,0,25.51.78,37.84-2.77.36-.1,1.05-.45.75-.92-1.15-1.77-7.24-5.71-6.8-7.85.16-.81-1.79-.5-1.94.21-.59,2.86,5.5,6.18,7,8.42l.75-.93c-7.64,2.2-15.46,2.69-23.37,2.76-3.4,0-6.8-.05-10.19-.08-5.77-.07.24-7.33,2.07-9.18.82-.83-1.08-.88-1.57-.39Z"/><path class="cls-1" d="M543.07,320.08c-.82,0-1.93.71-.88.41a54.64,54.64,0,0,1,5.79-1.22,73.77,73.77,0,0,1,12-1c.41,0,2-.86,1-.89-6.7-.21-13.12-2.42-19.86-1.81-.2,0-2,.58-1.19.85a38.5,38.5,0,0,0,11.47,1.95c1.74.08,3.49,0,5.23,0l3.22-.07a2.13,2.13,0,0,0,2.44-.72c-5.67.94-11.72.94-16.43,4.68-.1.08-.34.28-.15.42,3.45,2.57,7.21,2.13,11.3,2,.58,0,2.11-.76.81-.76H547c-.24,0-1.93.46-1.19.73,6.52,2.36,13.15,2.67,20,2.68.59,0,2.1-.92.8-.92-6.62,0-13-.23-19.26-2.51-.4.28-.79,0-1.19,1h7.13a3.61,3.61,0,0,0,3-1,21.88,21.88,0,0,1-6.57-.47c-1.35-2.4-.41-3.6,2.82-3.52,1.31-.31,2.63-.59,4-.77,2.19-.33,4.39-.55,6.58-.91.53-.08,1.79-.88.57-.87-7.48.06-15,.75-22.22-1.77l-1.19.85a41.07,41.07,0,0,1,11.22.85c1.61.29,3.23.54,4.86.76.81.1,5.19-.75,1.53-.63a70.85,70.85,0,0,0-17.3,2.72c-.53.15-1.37.8-.31.8h2c.59,0,2.1-.88.81-.88Z"/><path class="cls-1" d="M409.85,272.15c-4.81,6.26-7.78,13.47-11.2,20.52C393.9,302.47,388,309.9,378.3,315c-6.49,3.43-13.63,6.13-19,11.27-1.71,1.62-3.26,1.78-5,3-1.55,1.12-2,4.39-2.17,6.12,0,.15,0,.21.17.26,14.68,5.2,31.51.39,46.08-3,.27-.07.87-.27.86-.63-.12-4.28-.86-8.5-1-12.78,0-.44-2-.11-1.93.52.12,4.28.86,8.5,1,12.77l.87-.63c-11.9,2.76-24.1,5.78-36.39,4.71-1.1-.09-7.83-.74-7.69-2.12s.75-4.54,2.28-5.13c4.43-1.7,7.43-5.68,11.56-8.14,9.06-5.4,18.82-8.37,25.51-17,7.63-9.85,10.61-22.35,18.2-32.21.45-.58-1.45-.34-1.77.07Z"/><path class="cls-1" d="M376.28,322.17a159.84,159.84,0,0,0,20.87-1c.08-.41.15-.82.22-1.23-7.31,1-14.71,1.12-21.87,3-.66.17-1.28,1.19-.21,1.2a47.6,47.6,0,0,1,10.59.94l.42-1.16c-7.1,1.87-14.5,2.07-21.61,3.93-.72.19-1.23,1.06-.2,1.2a140.13,140.13,0,0,0,18.66,1l.71-1.24c-5.9.1-11.77.87-17.68,1-.52,0-2.11,1-.93,1.21,7.74,1.66,14.86.14,22.34-2,1.17-.33.87-1.47-.3-1.14-7,2-13.64,3.51-20.89,1.95l-.93,1.21c5.91-.1,11.77-.88,17.68-1,.81,0,2-1.24.71-1.24a141.84,141.84,0,0,1-18.66-1c-.07.4-.14.8-.2,1.19,7.1-1.86,14.5-2.06,21.61-3.93.46-.12,1.34-.95.42-1.15a50.29,50.29,0,0,0-11-1c-.06.4-.13.8-.2,1.19,7-1.83,14.22-2,21.35-2.9,1-.13,1.55-1.4.22-1.23a157.6,157.6,0,0,1-20.38,1c-.82,0-2,1.25-.71,1.25Z"/><path class="cls-1" d="M402.08,320.14c-2.49-4.43,9.4-6.62,11.8-6.72.4,0,1.05-.31,1.06-.79.57-15.55,20.57-21.72,31-29.8,1-.81-.52-1.49-1.28-.9-9.68,7.52-22.47,11.84-29.27,22.6a16.67,16.67,0,0,0-2.32,7.16c-.06.51-5.68,1.56-6.74,2-2.81,1.14-8.12,3.5-6,7.31.43.77,2.27,0,1.77-.85Z"/><path class="cls-1" d="M433.69,290.46c15.82,8.58,37.29,6.34,54.06,2,1.14-.29.94-1.05-.2-.75-16.12,4.17-36.85,6.3-52.05-1.94-.54-.29-2.18.5-1.81.7Z"/><path class="cls-1" d="M441.71,293.63c9,5.13,15.19,12.76,20.49,21.47.48.78,2.31,0,1.77-.86-5.38-8.84-11.7-16.55-20.77-21.75-.77-.44-2.44.59-1.49,1.14Z"/><path class="cls-1" d="M463.09,314.74c-.42,1.78-5.43,14.74-2.71,16.22,3.84,2.09,8.07,2.47,12.37,2.47,11.09,0,22.17-3.38,32.77-6.28.34-.1,1-.49.78-.95-2.6-6.4-9-9.12-15.15-11.22-.86-.29-2.28.95-1.11,1.34,5.71,2,11.89,4.4,14.32,10.4l.79-1c-8.46,2.31-16.92,4.59-25.63,5.72a43.63,43.63,0,0,1-13.4-.09c-7.73-1.44-2.22-11.83-1.07-16.8.23-1-1.76-.75-2,.14Z"/><path class="cls-1" d="M473.13,298.43c6.17,3.41,6.66,12.4,13.75,14.74.58.2,2.33-.67,1.54-.93-7-2.31-7.58-11.33-13.76-14.74-.55-.3-2.33.5-1.53.93Z"/><path class="cls-1" d="M468.57,321a111.53,111.53,0,0,0,16.94-1c.51-.07,1.79-.83.58-.81a51.64,51.64,0,0,0-17.45,3.12c-.11,0-.88.37-.57.59,6.05,4.23,14.16,3.08,21.13,3,.39,0,2-.83,1-.84-7.12-.08-14.39-.94-21.34,1.06-.07,0-1.21.46-.82.68,6,3.28,18.32,4.43,22.5-2.47.07-.12-.08-.21-.17-.23l-11.79-2.94-1.41.81c5.45.1,10.74.71,16.17,0,.81-.11,1.7-1,.34-.78-5.13.7-10.14.06-15.27,0-.27,0-2.11.63-1.41.81l6.74,1.68,3.37.85c3.62.9-4.8,3.76-5.57,3.84a20.64,20.64,0,0,1-11.68-2.19l-.82.67c5.59-1.61,11.49-1.13,17.23-.94a1.81,1.81,0,0,0,2.32-.78l-2.91.06a66.61,66.61,0,0,1-8.71-.29c.06,0-7.63-2.07-6.17-2.62A42.62,42.62,0,0,1,483.5,320q2.16-1.69-2.5-.22c-1.09.09-2.17.17-3.26.21-2.78.16-5.57.13-8.35.13-.55,0-2.11.84-.82.84Z"/><path class="cls-1" d="M349.32,295.28a3.48,3.48,0,0,0-1.18,2.88,3.61,3.61,0,0,0,2.12,2.42c.56.3,2.33-.51,1.53-.94-1.66-.89-2.32-2.54-.92-4,.77-.83-1.12-.79-1.55-.32Z"/><path class="cls-1" d="M349.13,295.7a15.53,15.53,0,0,0,.93,6.53c.25.54,2.12-.1,1.93-.51a15.6,15.6,0,0,1-.93-6.54c0-.41-1.94-.1-1.93.52Z"/><path class="cls-1" d="M618.44,270.65c-4.42,6.43,5,18.7,12.27,17.9,2.68-.29,4.82-1.56,7.18-2.8,6.42-3.37,6.11,3.88,6.14,7.71.05,6.88,7,13.54,9.79,19.5.4.87,2.31.31,1.93-.52-2.66-5.74-9.76-12.61-9.76-19.12,0-2.5.84-8.51-2.43-9.51-5.49-1.69-9.5,4.6-14.79,2.81-4.87-1.65-12.35-10.07-8.71-15.37.7-1-1.11-1.35-1.62-.6Z"/><path class="cls-1" d="M641.06,320.3c5.1-.12,10-1.67,15.1-1.78.64,0,2.09-1,.79-1-5.1.11-10,1.66-15.1,1.78-.64,0-2.09,1-.79,1Z"/><path class="cls-1" d="M639.82,327.75c-3.45,2.46,3.27,6.15,5.17,7.5.31.22,2.07-.1,1.87-.6a15.57,15.57,0,0,0-5.39-7.19c-.32-.24-2,.08-1.87.6,1.69,6.44,10.18,9,15.75,6.31.57-.28.41-.41-.16-.41H644.53c-.34,0-1.87-.15-1.87.32v.89c0,.13.53.16.6.16,9,.06,18.61.9,27.07-2.92.17-.08.71-.45.28-.56-8.39-2.11-18.76-5.64-27.09-1.54-.09.05-.58.34-.32.5,4.75,3,12.14,3,17.25.81.14-.06,1-.51.44-.66a85.9,85.9,0,0,0-21.48-2.69c-.26,0-2.15.48-1.41.82,8.24,3.78,18.41,3.67,26.9.75.16-.06,1-.5.44-.65a87.2,87.2,0,0,0-21.49-3.58c-.22,0-2,.3-1.53.76,4.47,4.76,12.38,4.6,18.13,2.58.15-.05.85-.35.57-.6-4.28-3.83-9.88-5.39-15.22-7.16-.31-.1-2.14.36-1.7.74,4,3.43,8.78,3.62,13.82,3.64.24,0,1.67-.33,1.32-.77-2.34-2.95-5.57-4.55-8.88-6.22l-1.7.74a26.82,26.82,0,0,0,10.83,1.8c.44,0,2.22-.84,1.24-.84a26.36,26.36,0,0,1-10.49-1.75c-.44-.19-2,.56-1.7.73,3.31,1.67,6.54,3.27,8.89,6.22l1.31-.76c-4.66,0-9.13-.29-12.83-3.47l-1.69.73c4.85,1.6,9.79,3.06,13.95,6.13a2.74,2.74,0,0,1-3.21,1.25,19.29,19.29,0,0,1-4.74-.36,10.75,10.75,0,0,1-6.08-3.31l-1.53.76a72.29,72.29,0,0,1,10.49,1.08c1.61.27,3.21.62,4.8,1,.49.1,5.15,1.21,4.18,1.49a33.69,33.69,0,0,1-22.5-1.69l-1.41.82a88.15,88.15,0,0,1,19.69,2.24,2.34,2.34,0,0,1-2.7.76,23.06,23.06,0,0,1-6.15-.39c-1.08-.19-5.94-1.7.35-2.31a28,28,0,0,1,5.26.19,63.37,63.37,0,0,1,8.32,1.51c1.3.29,2.59.62,3.87.95,3.74.94-3.57,1.86-3.79,1.9-2.18.4-17.93,1.36-17.93-.45a3.23,3.23,0,0,1-1.38.44h8.88c-1.5,1-3,.19-4.36-.28a9.25,9.25,0,0,1-6.7-6.26c-.62.2-1.25.46-1.87.66a15.66,15.66,0,0,1,5.27,7.06l1.87-.58c-.72-.52-7.64-5.17-5.49-6.71.82-.58-1.12-.37-1.49-.1Z"/></svg>