<svg id="layer1" xmlns="http://www.w3.org/2000/svg" viewBox="0 0 150.43 280.58"><defs><style>.cls-1{fill:#76b8e5;}.cls-2{fill:#7c4713;}.cls-3{fill:#492d0c;}</style></defs><path class="cls-1" d="M124.52,152.36c-.21-1.05-.43-2.09-.68-3.14A53.43,53.43,0,0,0,111,124.85a67,67,0,0,0-6.44-5.83c-.57-.73-1.16-1.44-1.79-2.13a2,2,0,0,0-1.53-.49l-2.49-1.92a111,111,0,0,0-10.06-8.93c-1.11-.87-2.92-.68-3.48.17l-.28-.25c-3.37-8.56-6.63-17.16-10-25.72a155.83,155.83,0,0,0-6.42-21.23,1.35,1.35,0,0,0-.07-.44c-1.39-3.72-2.21-7.62-3.6-11.34,0-.14,0-.28-.07-.41l-.07,0c-.79-2.05-5.19-.41-4.7,1.69,0,.16.05.45.08.61a2.64,2.64,0,0,0-1.33-.36l.4,0s0-.4,0-.41c-1-.06-.67.15-.78.15h0c1.12-2-1.26-3.54-3.31-2.67l-8.89,3.73-.36.1,0,0h0c-1,.44-1.37,1.08-1.26,1.72a1.51,1.51,0,0,0-.24,2.26,3.15,3.15,0,0,0-2.3.47c-1.34-.61-4,.26-4.12,1.81-1,12.89,6.66,24,8.33,36.5,1.18,8.85-.61,17.63-3.49,26a49.47,49.47,0,0,0-6.82,16.48C31.5,144,27.05,153.26,26.07,164c-1.05,11.58,1.64,23.28,3.69,34.59,2,11.1,3.56,21.88,9.14,31.87a35.57,35.57,0,0,0,22.43,17.13c12.29,3.21,26.32.46,38.1-3.53a83.37,83.37,0,0,0,26.32-15c1,1.38,4.14,2.63,4.44.3.2-1.54.33-3.08.43-4.63.81-.77,1.61-1.54,2.4-2.34s1.65-1.73,2.45-2.62c.63-.7.56-1.25.16-1.64a1.17,1.17,0,0,0,.29-1.34c-.49-1.67-.9-3.34-1.27-5,.68-6.82-1.1-14.06-2.85-20.95C130.65,177.72,129.8,164.64,124.52,152.36Zm-92.1,13.77a41.28,41.28,0,0,0-1.51,5.24,65.93,65.93,0,0,1,.64-12.54C31.73,161.25,32,163.68,32.42,166.13Zm8.27-28.68a1.52,1.52,0,0,0-.3-.35A62.88,62.88,0,0,1,42.05,131c.09-.18.18-.36.26-.54-.07.54-.15,1.08-.22,1.62C41.6,133.84,41.14,135.65,40.69,137.45Zm5.5-83.08a2.5,2.5,0,0,0,1.37-.16c1-.43,2-.86,3.09-1.24a2.76,2.76,0,0,0,2.54.27,13.07,13.07,0,0,1,5.32-1.37,3.19,3.19,0,0,0,.71-.06c1.87,5.34,2.52,11.07,5.48,16a2,2,0,0,0,.29.35,1.22,1.22,0,0,0,.07.7q.78,1.88,1.5,3.78c-.86.37-1.52,1-1.45,1.79C66.13,85.12,70.63,97,78,105.32c-1,.46-1.77,1.3-1.44,2.22a93.6,93.6,0,0,0,7,14.49h0c1.39,9.64,5.09,20.74,11.8,28l.11.26c.36.85,1.43,1,2.48.79h0l.14,0,.35-.11,0,0,.3-.12c.88-.41,1.57-1.08,1.54-1.83a1.61,1.61,0,0,0,0-.44c-.12-.8-.27-1.59-.43-2.38a3.16,3.16,0,0,0,3.28-1.91c.08-.31.35-.21.12-1.21h0l.14.45a22,22,0,0,0,.43-3.67c.49.63,1,1.27,1.57,1.86,1,1.07,3.63.42,4.34-.93,1.36,2.34,2.69,4.7,4,7.08l1.23,5.2c1.72,11.7,4.67,23.18,7.6,34.64.19,3.81.48,7.62,1,11.41,0,.26,0,.52.07.79-.57-4.52-1.1-9-1.77-13.52-.24-1.59-3.25-2.67-4.33-1.47-1.06-1.23-3.79-2-4.24-.39-1.41-.84-3.61-1-3.58.66,0,3.71.34,7.41.72,11.09-.52-1.25-1.08-2.49-1.7-3.72s-4.66-2.47-4.48-.31c-.58-2.87-1.13-5.74-1.68-8.61a2.51,2.51,0,0,0-1.52-1.53c-.16-2.23,0-4.25-.33-6.32.61-.41.78-1.15-.12-2.16a10.63,10.63,0,0,0-1.51-1.49c-1-.72-4.38-1.06-3.6,1.08a14,14,0,0,1,.73,3.52,1.15,1.15,0,0,0-.51,1,125.78,125.78,0,0,0,4.9,31.11,4.43,4.43,0,0,0-2.18.63,8.22,8.22,0,0,0-1.69-.73l-.33-.65c-.61-1.13-2.8-.56-4,.46-.27,0-.54.09-.8.15-.65-2.87-1.36-5.73-2.22-8.56-.25-.82-1.55-.75-2.71-.27l0-.15c-.41-2-2.53-1.22-3.58.28-.73-2.74-1.56-5.47-2.37-8.2a101.24,101.24,0,0,1-2.7-11,41.84,41.84,0,0,1-.57-7.82c0-.45.07-1,.12-1.45.29-.33.43-.65.32-.91s-.21-.51-.32-.77a2.65,2.65,0,0,0-.15-.57c-.11-.26-.75-.14-1.51.19l-.13.05a8.4,8.4,0,0,0-2.1,1.35,117.35,117.35,0,0,0-2.21-21.15c1-.39,1.87-1.32,1.82-2,0-.09.25.43-.11-.5l.25-.11s.18.43.17.43c-.69-4.24-1.14-8.75-1.57-13.15.06-15.12-2-30.31-10-43.87h0s.45.32.45.32h.14c-.44-.9-1.55-.85-2.64-.45a110.81,110.81,0,0,0-6.49-25.77c-.41-1-4.78-2.66-4.67-1.32,0,.46.08.9.11,1.36-.37-1.65-.75-3.32-1.11-5-.13-.57-1.12-1.09-2.15-1.4a20.57,20.57,0,0,1,.56-3A1.3,1.3,0,0,0,46.19,54.37Zm44,69.42-1.86-3.24-.1-.24v-.08c1.15-.44,2.08-1.35,1.67-2.32l-1.7-4.14c1.9,1.24,3.83,2.44,5.7,3.68a88.79,88.79,0,0,0,2.93,10.37c-.67-1.58-1.33-3.16-2-4.73C94.13,121.37,91.07,122.25,90.22,123.79ZM69.41,216.72l-.21-1.09a43.26,43.26,0,0,1-.32-4.92c.11.39.22.76.34,1.14,0,1.48.09,3,.22,4.44ZM72.9,200l-.08.08.08-.13ZM62.15,126.71a.8.8,0,0,0-.17-.15l.15,0C62.13,126.59,62.15,126.65,62.15,126.71Zm10.27,69c-.41.37-.8.76-1.18,1.16-.34-5.11-.86-10.22-1.43-15.32a4,4,0,0,0,1.31-.22C71.39,186.17,71.88,191,72.42,195.74Zm-20.25-23c.23,1.46.43,3,.61,4.45l-.14.07c-.49-3.6-1-7.2-1.54-10.81C51.49,168.53,51.85,170.62,52.17,172.73Zm11.26,61.35a4.44,4.44,0,0,0,2.82-1.53l.08,0a2.34,2.34,0,0,1,0,.26c.08.44.52.61,1.08.6l.3,1.23c-1.46-.15-2.91-.31-4.37-.51Zm13.4.57c.4.74,2,.45,3.17-.19,0,.24.08.49.11.74-1.1,0-2.21,0-3.32,0C76.81,235,76.82,234.82,76.83,234.65Zm25.87-3h0c0,.29.1.55.16.83l-.08,0C102.76,232.21,102.73,231.93,102.7,231.65ZM62.63,106.17l-.74.31c-.14-1.47-.28-2.94-.43-4.41C61.87,103.43,62.26,104.79,62.63,106.17Zm-17.22,38-.09.28a5.6,5.6,0,0,0-.56.49c.23-1,.45-1.92.65-2.89Zm5.71-51.92a2.62,2.62,0,0,0,1.11.54c0,.2-.11.4-.16.6a2.31,2.31,0,0,0-.88,0C51.17,93,51.15,92.62,51.12,92.23ZM119.94,228l-.59,0,.06-.05c.18-.07.37-.12.55-.2a3.43,3.43,0,0,0,1.33-1c.95-.61,1.91-1.19,2.89-1.76,0,.15.09.3.14.45-1.06.93-2.14,1.83-3.25,2.71A2.52,2.52,0,0,0,119.94,228ZM96.83,241.41c-12.28,4.17-27.43,6.24-39.52.5a29.68,29.68,0,0,1-8.54-6.08c.48,0,.71-.17.42-.53a44,44,0,0,1-3.61-5.15,236.16,236.16,0,0,1-4.52-29.26,60,60,0,0,0-.43-12.59c-.15-6.82-.54-13.6-2.8-20.12-.12-1.74-.26-3.47-.4-5.2.79.16,1.49.13,1.73-.24a20.91,20.91,0,0,0,3-9.58.52.52,0,0,0,.19-.2,57.75,57.75,0,0,0,1.9-5.85c-.05.75-.11,1.51-.16,2.27-2.68,12.85-.79,26.51,2.38,39.7-1.3,8.94,1.23,19.44,3.32,27.06.22.82,4.11-1.6,4.22-2.51,0-.36.07-.72.11-1.07a4.91,4.91,0,0,0,1.42-.44c0,6.69-.13,13.39.3,19.89-.95.32-1.89.67-2.84,1a2.09,2.09,0,0,0-1.26,2.19c-.88.74-1.15,1.69.4,2.24a68.73,68.73,0,0,0,17.21,3.66c7.74,1.34,15.56,1.93,23.25.27a52.8,52.8,0,0,0,13.65-5l.66-.21a3.45,3.45,0,0,0,.11,1A80.24,80.24,0,0,1,96.83,241.41Z"/><path class="cls-2" d="M53.76,15.83l-.09-.22c-.54-1.38-3.75-2.89-4.6-1a.36.36,0,0,0,0,.09c-1.18-.77-2.88-1.1-3.48.18l0,.05a3,3,0,0,0-3.25-.13c-3.17,2.24-3.7,6.06-2.87,10.08a7.83,7.83,0,0,0-1,1.13c-6.45,2.47-3.57,9.92-2.63,15.15a3.12,3.12,0,0,0,3.06,2.26,5.86,5.86,0,0,0,5.77-3.16,9.11,9.11,0,0,0,1.33.17c.73,0,1.56-.31,1.63-1,1.08.77,2.88,1.16,3.67-.08a13.47,13.47,0,0,0,1.26-2.59,5.51,5.51,0,0,0,2.3-2,.59.59,0,0,1,0,.08c.53,1.2,3.92,3.05,4.61,1a17.65,17.65,0,0,0,.91-6.14c.27-.24.36-.63.15-1.22-.1-.27-.19-.54-.28-.8a78.73,78.73,0,0,0-1.92-9.32l-.06-.54h-.07l-.09-.4C57.77,16.1,54.83,15.08,53.76,15.83Zm-14,23-.24-1a4.56,4.56,0,0,0,.65.37A4.51,4.51,0,0,1,39.79,38.82Z"/><path class="cls-3" d="M36.42,50.33c-.65,5.92,1,11.7,2.48,17.37,1.85,6.88,3.81,13.7,5.67,20.57,2,7.39,2.31,14.66-.19,22-2.1,6.13-6.65,11.36-10,16.8-7.18,11.62-8.21,26.38-7.62,39.68.62,14,3.21,28.33,6.29,42C36.92,225.93,41.67,245,61.5,248.9c8.57,1.68,17.93.39,26.48-.88a106.7,106.7,0,0,0,26.92-7.3c9.18-4,18-9.74,22.36-19.09.17-.36-1.67-.19-1.91.33-9.23,19.8-37.18,24.76-56.65,26.4-10.65.89-21.62.4-29.89-7.14-6.87-6.25-9.67-16.05-11.89-24.73a330,330,0,0,1-7.1-37.94c-2-15.11-2.08-30.56,3.12-45.06,4.31-12,14.55-19.91,15.28-33.41.39-7.18-2.24-14.44-4.33-21.19C42,72.65,40.37,66.12,39,59.73a30.89,30.89,0,0,1-.64-9.91c0-.31-1.87-.1-1.93.51Z"/><path class="cls-3" d="M33,30.78c-2,3.94.28,8.68,2.12,12.27.28.54,2,.1,1.93-.52-1.7-8.82-5.47-17.25,4.24-22.72a51.25,51.25,0,0,1,11.42-4.29c.54-.15,3.63-1.37,3.87-.27a37.37,37.37,0,0,0,1.52,4.59c1.34,3.74,2.73,7.52,2.37,11.55-.54,6.17-8.05,7.49-12.9,8.06-1.8.21-3.59.37-5.39.6.18,0,0,1,1.86,0,3.45-1.84,6.29-4.56,9.79-6.32.76-.38.16-.8-.44-.69L37.53,35.84c-1.29-.31-2,.09-2,1.18,1.28-.26,2.53-.65,3.78-1,2.61-.76,5.16-1.66,7.82-2.23.12,0,1.23-.51.79-.77-.94-.55-4.84-2.63-4.79-2.65,1.19-.67.79-3,1.14-4,.2-.55-1.71-.3-1.92.28-.33.9-.28,3.2-1.19,3.6-.11.05-.91.47-.54.69,1.78,1,3.72,1.74,5.49,2.79l.8-.77c-4.37.93-8.51,2.6-12.89,3.5-.84.17-1.66,1.17-.3.93l14.86-2.6,3.05-.53a3.72,3.72,0,0,0-1.71.62c-3,2.07-5.6,4.52-9.24,5.43-.85.21-1.18,1.06,0,.88,6-.95,15.13-.31,19.51-5.61,5.51-6.66-.23-14.7-1.78-21.81-.07-.29-.63-.24-.82-.21-6.56,1.23-14,3.2-19.55,7.11-8.19,5.79-4.4,14.2-2.82,22.38l1.93-.52C35.28,39,33,34.35,34.94,30.5c.24-.46-1.64-.28-1.92.28Z"/><path class="cls-3" d="M34.9,49.9C45.11,48,54.6,44.12,64.15,40.15c3.63-1.52,5.83,22,6.14,24.59.9,7.35,2.55,15.37,6.06,22,4.17,7.82,10.65,12,17.68,17,6.63,4.71,13,9.71,18,16.18,6.16,8,8.9,18.07,11.82,27.54,6.94,22.52,10.22,46,14.27,69.13.15.84,2.08.35,1.93-.52-3.52-20.14-6.47-40.45-11.72-60.23-4.13-15.53-8.44-31.64-20.27-43.16-4.89-4.76-10.6-8.66-16.17-12.58-7.28-5.13-12.51-10.25-15.72-18.73-2.65-7-3.75-14.69-4.51-22.11-.72-7-1.26-14.73-5.31-20.75-.27-.39-1-.26-1.31-.11-9.95,4.13-19.83,8.3-30.48,10.3-1.21.23-.85,1.46.33,1.23Z"/><path class="cls-3" d="M43.71,162.79c-1.36,1.63-.89,4.81-.8,6.73.22,4.92,1,9.84,1.65,14.72,1.25,8.81,3.5,17.85,3.71,26.77l1.93-.52a4.75,4.75,0,0,1,.57-3.76c.18-.38-1.66-.2-1.91.32a5.69,5.69,0,0,0-.59,4c.07.46,1.95,0,1.93-.52C50,202.31,48,194,46.81,185.93c-.71-4.79-1.37-9.59-1.8-14.41-.19-2.23-1.13-6.92.46-8.83.44-.53-1.45-.29-1.76.1Z"/><path class="cls-3" d="M45,166.42c3.61-6.19,9-.35,10.6,4.08,2.65,7.42-3.22,13.16-9.69,15.55-.13,0-.68.22-.64.45.53,3,6.11,5.75,8.43,7.68,4.51,3.76,8.91,7.63,13.68,11.06.42.3,2-.48,1.82-.64-4.76-3.43-9.19-7.28-13.67-11.06q-3.35-2.81-6.82-5.44c-2.8-2.1-.11-2.41,1.69-3.31,4.92-2.44,8.17-7,7.63-12.62-.76-7.68-10.28-13.38-14.93-5.4-.11.2,1.63.12,1.9-.35Z"/><path class="cls-3" d="M67.06,167.44c-3.36,4.11.49,13.79,1.8,18.05,1.76,5.73,4.88,15.21,11.33,17,5.36,1.5,9.07-4.83,10.56-8.82,4.19-11.15,0-23.91-2-35-.1-.53-2-.07-1.94.52,1.13,6.59,2.11,13.19,3.61,19.71,1.25,5.41,2.78,13.93,7.91,17.19.51.32,2.2-.46,1.81-.71-5.06-3.2-6.5-11.66-7.79-17-1.56-6.5-2.48-13.12-3.6-19.71l-1.94.52c1.67,9,3.93,17.67,3.47,26.93a28.12,28.12,0,0,1-2.34,10.15c-1.08,2.45-3.58,6.11-7,5.15-2.21-.62-3.92-3.27-5-5a51.49,51.49,0,0,1-5.74-13.68c-1-3.57-4-12-1.3-15.37.47-.57-1.44-.35-1.77.06Z"/><path class="cls-3" d="M100.56,159.13c-2.33,9.4,1.94,19.15,3.68,28.31.14.75,2.07.26,1.93-.52-1.07-5.84-2.51-11.61-3.25-17.51a37.9,37.9,0,0,1-.25-4.88c0-2.24-1.11-3.68,1.79-1.1a22.22,22.22,0,0,1,4.16,5.86c.3.53,1.61.1,1.8-.34,3-7,1.14-15.6-.12-22.81l-1.86.65c4.38,6.94,5.28,16,6.81,23.87,1.19,6.09,2.12,14.31,6.92,18.79.54.51,2.37-.24,1.78-.79-5.22-4.88-6-14.37-7.24-21-1.4-7.28-2.46-15.3-6.49-21.68-.36-.57-2-.05-1.86.65,1.23,7,3.19,15.42.25,22.2l1.8-.35c-1.65-2.93-4.36-8.33-8.34-7.64-.36.06-1,.24-1.09.7-1,8.75,1.69,17.35,3.26,25.88l1.93-.52c-1.71-9-6-18.73-3.67-28,.19-.79-1.76-.51-1.94.21Z"/><path class="cls-3" d="M51.68,230.44c.71,16.39,29.92,11.84,39.62,10a104.84,104.84,0,0,0,28.08-9.29c5.66-2.88,13-7.28,14.61-14,.15-.66-1.78-.35-1.93.26-1.54,6.4-8.48,10.37-13.86,13.19-8.27,4.33-17.48,7-26.61,8.8-9.42,1.85-37.29,6.17-38-9.56,0-.55-2-.18-1.93.52Z"/><path class="cls-3" d="M39,129.61l-1.21.21c-.33.06-1,.19-1.14.51s.69.17.77.16l1.21-.21c.32-.06,1-.19,1.14-.51s-.7-.18-.77-.16Z"/><path class="cls-3" d="M44.62,61.42C48.44,74.87,58.5,89.47,55.18,104c-2.89,12.57-21.58,20.81-18.24,35.18.18.75,2.11.25,1.93-.52-3.24-14,15.6-23.33,18.51-36,1.49-6.5-.8-13.73-2.84-19.83-2.46-7.36-5.87-14.38-8-21.86-.22-.76-2.15-.23-1.93.52Z"/><path class="cls-3" d="M90,112.58a48.43,48.43,0,0,1,15.56,18.28c.36.72,2.25.12,1.93-.51a49.55,49.55,0,0,0-16-18.76c-.56-.41-2.33.41-1.52,1Z"/><path class="cls-3" d="M93.26,118.6l4.86-.85c.38-.07.9-.47.79-.92s-.76-.46-1.15-.4l-4.86.85c-.38.07-.9.48-.78.92s.75.47,1.14.4Z"/><path class="cls-3" d="M96.41,124l1.22-.21c.33-.06,1-.2,1.12-.57s-.65-.3-.8-.28l-1.22.22c-.33,0-1,.2-1.11.57s.64.3.79.27Z"/><path class="cls-3" d="M95.66,123.91c1.51,1.15,1.77,3.28,3.28,4.44.41.31,2.07-.46,1.83-.65-1.51-1.15-1.77-3.28-3.28-4.43-.41-.32-2.07.46-1.83.64Z"/><path class="cls-3" d="M88.11,116.49c6.55,5.76,14.2,11.92,16.12,20.87l1.94-.51c-2.68-7.4-6.11-14.6-11.18-20.68l-1.81.69a48.1,48.1,0,0,1,8.35,12.21c.23.48,2,0,1.93-.52-.42-2.43-.85-4.85-1.27-7.28l-1.88.6c1.28.91,2.37,1.6,3,3.13.22.53,2.11-.09,1.93-.51a7.83,7.83,0,0,0-3.12-3.31c-.35-.24-2,0-1.88.6q.65,3.64,1.28,7.29l1.93-.52A48.75,48.75,0,0,0,95,116.17c-.35-.38-2.17.26-1.81.69,5,6,8.41,13.17,11,20.5.18.5,2,0,1.94-.51-1.94-9-9.66-15.25-16.25-21-.42-.37-2.18.37-1.81.68Z"/><path class="cls-3" d="M37.66,28.83a44.36,44.36,0,0,0,4.56,11.73c.2.37,2-.11,1.93-.52L42.23,29.11l-1.93.51c.7,3.29,2.31,4.83,5,6.72.31.21,1.78-.1,1.87-.5.75-3.35.1-6.68-.47-10l-1.93.51A21.69,21.69,0,0,0,50.35,36.7c.26.29,1.86-.16,1.88-.58.06-2.28,1.5-4.14,1.36-6.5l-1.88.58a20.61,20.61,0,0,1,4.44,4.16c.36.44,2-.38,1.93-.52a21.45,21.45,0,0,0-4.54-4.28c-.31-.22-1.91.12-1.88.58.14,2.37-1.3,4.23-1.37,6.5l1.88-.58a21.39,21.39,0,0,1-5.5-10.23c-.08-.37-2,.08-1.93.51.56,3.26,1.23,6.56.5,9.85l1.86-.5c-2.56-1.81-4.2-3.43-4.87-6.58-.07-.37-2,.08-1.93.51l1.92,10.94L44.15,40a44.3,44.3,0,0,1-4.56-11.72c-.07-.37-2,.09-1.93.51Z"/></svg>