<svg id="layer1" xmlns="http://www.w3.org/2000/svg" viewBox="0 0 371.61 268.93"><defs><style>.cls-1{fill:#c41a1a;}.cls-2{fill:#492d0c;}</style></defs><path class="cls-1" d="M336,181.8c.35-7,1.05-15.22-1-22.25-3-10-15.33-5.07-16.37,5.47l-1.32-.3c.26,0,.35-.06-.78-.48-10.44-2.74-19.85-1.57-25.42,9.76-6.13,12.44-3.14,32.39,5.57,42.93,4.88,5.86,11.15,10.93,17.77,5.47,2.08-1.57,5.84-8.83,8.36-7.42,2.09,1.17-1,9,5.92,9,7.48,0,7.31-12.49,7.31-16.79C336,199.76,335.66,189.22,336,181.8Zm-14.39,14.74c-.84,6.19-5.65,15.55-14.06,11.29-5.59-3.22-7-12.35-7.45-18.26-.55-9.84,9.64-19.13,18.55-10.13l0,.39C321.64,184.4,322,191.48,321.62,196.54Z"/><path class="cls-2" d="M337,181.67c.39-7.52,3.37-25.17-6.47-27.92-6.74-1.89-12.07,5.83-12.88,11.4l1.57-.63c-1.08-.24-.54,0-1.2.38.25-.15.6-.52.19-.71a24.57,24.57,0,0,0-18.72.13c-7.25,3.14-10.74,11.3-12.06,18.58-1.59,8.82.06,18.31,3.54,26.47,3,7,9.26,15.48,17.52,15.87,2.63.13,5.35-1.5,7.22-3.17,1-.88,6-8.43,6.85-5.57.67,2.32.1,4.53,1.69,6.59,1.39,1.8,4.55,1.49,6.44,1,5.32-1.32,6-8.76,6.24-13.11.56-9.75-.33-19.57.07-29.33,0-.75-1.91-.33-1.93.26-.28,7-.12,14,0,21,.06,5.43.35,11.05-1.41,16.26-.87,2.58-3.69,6.34-7.58,3.12-.95-.78-1.11-2.37-1.26-3.49-.19-1.42.08-3.22-1.09-4.25-1.84-1.61-4.78,1.44-5.79,2.55-3.33,3.67-5.06,8.92-12.24,6.3-4-1.44-7.24-5.61-9.62-8.91-4.29-6-6.24-13.58-7-20.78-.82-7.72.41-15.7,4.42-22.4a16.33,16.33,0,0,1,9.74-7.38,20.67,20.67,0,0,1,7.6-.27c1.35.14,4.73,1.44,5.91.75-.39.22-.55.63,0,.75l1.32.29c.39.09,1.48-.1,1.56-.62,1-6.67,9.59-15.33,14-6.2,3.27,6.69,1.82,16.13,1.45,23.24C335,182.68,336.94,182.27,337,181.67Z"/><path class="cls-2" d="M320.66,196.67c-1.07,6.46-6.34,16-14,9.43-4.16-3.58-5-10.62-5.49-15.72a15,15,0,0,1,2.19-9.46,9,9,0,0,1,8.58-4.49c1,.11,5.85,2,5.76,3.34s1.75,4.1,2.17,5.56a34.59,34.59,0,0,1,.8,11.34c0,.74,1.89.33,1.92-.26.48-8.43-.28-20-10.65-21.11-7-.77-12.84,6.76-12.79,13.19.06,7.86,2.08,19.68,11.53,20.91,7.05.91,11-7.36,11.91-13C322.7,195.71,320.76,196.05,320.66,196.67Z"/><path class="cls-1" d="M168.89,41.47c1.81-23-57.4-27.88-83.63-14.76C37.7,51.31,14,143.17,40.19,185.8c14.76,23,23.25,41.33,79.5,41,14.85-.09,33.35-10.12,43.19-21.6,3.28-4.92,12.57-22.67,4.37-29.23-13.12-9.84-35.36,31.82-70.52,23-24.89-6.28-34.43-50.84-32.79-73.8C65.58,97.22,78.7,48,113.13,49.67,131.17,49.67,167.05,64.86,168.89,41.47Z"/><path class="cls-2" d="M169.85,41.34c.75-14.44-18.52-19.15-29.45-21-17-2.84-36-1.89-52.07,4.43S59.88,45.65,51,59.94C40.36,77.1,33.69,96.78,30.37,116.64c-3.08,18.4-3.12,38,2.65,55.86,2.39,7.4,6.32,13.77,10.48,20.26A99.08,99.08,0,0,0,55.81,209c11.84,12.1,28.92,16.29,45.28,17.61,11.82,1,23.27,1.36,34.59-2.59a68.1,68.1,0,0,0,28.1-18.87c6.05-6.85,14.37-33.9-2.75-31.08-5.59.92-10.59,5-15.07,8.19-7.64,5.46-15.22,11-24,14.43-47.17,18.6-60.26-47.9-56.21-80.58,3-24.58,14.14-65,44.78-66,13-.43,25.79,4.29,38.8,4.86,9.83.43,19.4-2.65,20.54-13.67.08-.74-1.86-.36-1.92.26-2.2,21.23-34.63,9.74-47.82,8-16.45-2.13-29.73,4-39.34,17.5C70.1,82.06,65.41,101.47,63.45,119.46a110.49,110.49,0,0,0,8,54.14c3.43,8.16,8.34,16,15.49,21.41,6.58,4.94,15.15,6.08,23.15,5.48,17.24-1.3,29.92-13.56,43.83-22.26,2.7-1.68,5.91-3.53,9.21-3.25,5,.43,6.58,5.92,6.46,10.12-.27,9.93-6.35,19.72-13.59,26a60.91,60.91,0,0,1-41.24,15.13c-12.08-.15-24.38-1.27-35.92-5-14.69-4.81-24.39-15.13-32.59-27.74C41.74,186.57,37.59,179.79,35,172a97.67,97.67,0,0,1-4.56-27c-.9-20.73,3.35-41.74,10.68-61.07,7.09-18.7,18-36.82,33.58-49.6C89.94,21.82,110,19.2,129.21,20.27c12,.67,39.6,4.15,38.72,21.33C167.89,42.35,169.82,41.94,169.85,41.34Z"/><path class="cls-1" d="M176.37,165.39c-1.83,9.34-.64,30.3.27,42,.91,12.85,8.54,21.29,18.57,18.95,10.93-3.5,14.24-16.61,17.88-29.46h0c.91,5.84-.88,18.47,1.86,23.14,4.55,9.34,10.35-.88,10-9.13-.57-13.29-.7-21.89-1-40.31-.13-7.1-3.14-14.94-8.52-13.22-3.17,1-6,11.49-6.86,18.5-1.83,8.17-9.17,45.52-17.37,31.51-4.56-7-4.62-22.81-4-31,.9-12.64-1.79-25.29-9.87-13.79Z"/><path class="cls-2" d="M175.4,165.52c-1.69,9.49-1,19.51-.56,29.08.46,9.76-.07,21.15,7.16,28.7,4.84,5.06,13.13,5,18.51.88,8.41-6.44,10.81-17.8,13.54-27.45l-1.92.39c.61,4.84.17,9.79.28,14.66.08,3.51.43,9.82,4.11,11.8,6.94,3.73,9.4-8.72,9.39-13,0-11.56-.73-23.16-.93-34.72-.08-4.89-.2-22.84-9.95-18.9-2.67,1.07-3.75,4.39-4.66,6.85-1.7,4.59-2.22,9.45-3.25,14.21a183,183,0,0,1-5.84,22,28,28,0,0,1-4.51,8.87c-3.37,4-6.64-6.16-7.19-8.17C186.49,189.5,189,178,188,166.58c-.24-2.84-1.06-9.65-5.38-9-4,.56-6.18,4.54-7.26,8-.18.61,1.74.34,1.93-.27a12.08,12.08,0,0,1,3.59-5.93c3.11-2.94,4.47,3.51,4.81,5.07,1.17,5.47.34,11.12.22,16.64-.19,9.09-.36,20.23,5.16,27.95,7.42,10.39,14.71-17.6,15.48-20.6,1.88-7.34,2.89-14.9,4.88-22.19a25.27,25.27,0,0,1,3.18-7.5c2.51-3.71,5.6,1.49,6.29,2.75a17.66,17.66,0,0,1,1.31,3.74c1.65,6.06.83,13.13.95,19.36q.13,8,.38,16c.17,5.75,1,11.72-.57,17.33a13.64,13.64,0,0,1-2.12,4.16c-2.37,3.3-4.84-2-5.36-3.06-.94-1.91-1-4.36-1.14-6.44-.35-5.3.34-10.65-.33-15.94-.08-.62-1.8-.07-1.93.4-2.41,8.51-4.52,17.78-10.49,24.6-8.51,9.73-19.37,2.33-22.72-7.36-2.58-7.47-2-16.74-2.34-24.56-.32-8.07-.68-16.43.75-24.43C177.45,164.58,175.51,164.92,175.4,165.52Z"/><path class="cls-1" d="M234,212.35c0,4.29,1.27,13,8.75,13,7,0,3.83-7.81,5.92-9,2.51-1.41,6.27,5.86,8.36,7.42,6.62,5.46,12.89.39,17.77-5.47,8.7-10.54,11.7-30.49,5.57-42.93-5.57-11.33-15-12.49-25.43-9.76-1.12.42-1,.5-.77.48l-4.44,0c8.88-112.34-6.66-108.33-11.49-108.84-9.19-1-3.27,114.9-4.24,128.91C233.49,193.65,234,204.93,234,212.35Zm18.81-31.11,0-.39c8.92-9,19.11.29,18.55,10.13-.41,5.91-1.85,15-7.44,18.27-8.41,4.25-13.22-5.11-14.06-11.3C249.47,192.89,249.81,185.81,252.81,181.24Z"/><path class="cls-2" d="M233,212.61c.08,4.8,1.18,10,5.7,12.54,3.12,1.72,7.75.76,9.37-2.45.78-1.55-.06-7.4,3-4.54,2.38,2.26,3.77,5.08,6.48,7,4.93,3.53,10.87.22,14.71-3.16,11.25-9.92,14.58-28,10.92-42.06-3.44-13.16-16.9-19.91-29.5-14.27-.3.13-.9.51-.41.8l.14.08,1.16-1-4.2,0c.8,0,1.1-10,1.17-11q.78-10.94,1.26-21.9c.48-10.46.71-20.95.53-31.42-.2-11.52-.48-23.85-4.16-34.89-1.16-3.51-3.07-7.67-6.81-9-2.28-.83-5.38-1.09-6.69,1.32-1.47,2.72-1.75,6.21-2.12,9.21-.71,5.75-1,11.56-1.17,17.34-.53,15.11-.36,30.25-.14,45.36q.61,41,.8,82c0,.53,1.94.18,1.94-.52-.12-30.49-.61-61-.93-91.45-.16-15.88-.32-31.85.91-47.69.34-4.4.66-9.05,2.09-13.25.68-2,.51-2,2.32-1.74,7.12.83,8.86,11.59,9.86,17,1.88,10.28,2.14,20.88,2.22,31.3.17,20-1.12,40.07-2.68,60,0,.32.32.38.58.37l4.44,0c.32,0,1.93-.5,1.17-.95,1.24.73,3.64-.37,5-.56a24.23,24.23,0,0,1,5.58-.09,16.39,16.39,0,0,1,8.18,3.26c5.05,3.67,7.35,10.25,8.41,16.13,2.38,13.12-1.89,28-11.39,37.34-4,3.91-9.88,5-13.85.6-1.42-1.57-2.57-3.37-4-4.94-1.12-1.23-3.38-2.55-5-1.17-3.08,2.71,1.59,11.41-7.63,8-4.43-1.64-5.25-8.16-5.31-12.17C235,211.54,233,211.9,233,212.61Z"/><path class="cls-2" d="M253.78,181c-.22-3.14,15.9-.65,9-2.76a10.18,10.18,0,0,1,3.78,2.54c2.18,2,3.19,5,3.71,7.82.93,5.1-.95,12-3.33,16.52-5.9,11.11-14,.91-15.74-5.37a26,26,0,0,1,2.51-18.49c.44-.74-1.49-.5-1.78,0-4.49,7.69-4.66,19,.84,26.22,5,6.57,13.37,2.5,16.53-3.44,4-7.51,4.76-18.67-1.83-24.82a9.86,9.86,0,0,0-8.66-2.3c-1.86.47-7.12,2.2-7,4.6C251.89,182.07,253.83,181.67,253.78,181Z"/></svg>