<svg id="layer1" xmlns="http://www.w3.org/2000/svg" viewBox="0 0 220.35 261.4"><defs><style>.cls-1{fill:#a37241;}.cls-2{fill:#a0e25a;}.cls-3{fill:#423407;}</style></defs><path class="cls-1" d="M129.22,99.13c-1.23-2.18-4.36-1.47-5.4.34a3.08,3.08,0,0,0-2.93.24L85.45,125.92A3.59,3.59,0,0,0,82,128.76a3.22,3.22,0,0,0-.61,3.74,3.27,3.27,0,0,0-2,5.67c8.37,7.46,17,14.64,25.91,21.52,12,12.79,25.2,24.59,39.8,34.15a3.41,3.41,0,0,0,4.64-1l1.67,1.24a3.07,3.07,0,0,0,4.46-.81,3,3,0,0,0,2.12-3.14c3.52-.88,6.55-2.83,8.06-6.67,1.81-4.61.84-9.93-.84-14.85-2.09-9.73-8-18.56-11.43-27.78a2.89,2.89,0,0,0-3.84-1.72c-.52-.83-1-1.65-1.55-2.48C142.31,124,136.14,111.37,129.22,99.13Zm-12.65,36.28c-3.14-3.66-6.21-7.39-9.17-11.2.74-.31,1.47-.63,2.2-1Q112.95,129.42,116.57,135.41Zm-20.31-5.77c.67,1,1.35,1.93,2,2.89-1.56-.94-3.16-1.83-4.76-2.67l2.26-1.22A3.48,3.48,0,0,0,96.26,129.64Z"/><path class="cls-2" d="M81.94,96c-.49-.26-1-.52-1.49-.76a2.78,2.78,0,0,0-2.3-.16c-7.82-1.18-16,2-22.68,5.7-3.48,1.94.25,6.89,3.68,5,5.68-3.16,12.09-5.3,18.63-4.43l.36.06a20.85,20.85,0,0,1,1.7,2.26A43.23,43.23,0,0,0,63.27,105c-3.06.91-2.28,5.53.65,6a93.44,93.44,0,0,0,23.27.56,3,3,0,0,0,2-1.07c1.44,1.75,2.8,3.58,4.16,5.41,2,2.78,6.79.3,5.38-2.95C95.36,105,90.09,98.73,81.94,96Z"/><path class="cls-2" d="M108.78,87.63l-.27.67c-1.56-.73-3.68-.44-4.28,1.47-1.42,4.52-3.39,8.85-4.82,13.37a3.16,3.16,0,0,0,.87,3.34c-.1.59-.23,1.18-.32,1.77a3.19,3.19,0,0,0,3.73,3.5,3.1,3.1,0,0,0,5.9,1.55,41.74,41.74,0,0,0,1.86-4.55,2.81,2.81,0,0,0,1.35-2.11c.36-2.34.73-4.68,1.2-7,.48-2,.94-4,1.45-6a2.58,2.58,0,0,0-1.23-2.91c.09-.23.16-.45.26-.67C116,86.39,110.35,83.94,108.78,87.63Z"/><path class="cls-2" d="M96.77,118.44c-2.32-1.93-6,.74-4.8,3.55a32.18,32.18,0,0,1,1.44,4.1,3.31,3.31,0,0,0-1,.32,20.59,20.59,0,0,0-6.8-.79c-3.25.36-3.4,4.44-.73,5.82,3,1.54,6,3.16,9.15,4.46l.73,1a3.16,3.16,0,0,0,4,.88c2.23.24,4.27-1.61,3.33-4-.3-.78-.59-1.54-.83-2.33.32.4.62.81.94,1.23,2.42,3.17,7.39-.5,5-3.68A65.31,65.31,0,0,0,96.77,118.44Z"/><path class="cls-3" d="M147.1,211c-.56-.59,9.14-5.05,10.09-5.49a70.63,70.63,0,0,0,9.84-5.75c7.71-5.24,16.61-12.95,17.82-22.76.08-.59-1.85-.21-1.91.31-1.47,11.88-13.83,20.66-23.49,26.06-1.61.9-15.53,6.88-14.16,8.32.38.4,2.19-.29,1.81-.69Z"/><path class="cls-3" d="M145.73,210.66c-5.46-4-10.38-8.78-15.32-13.35-8.55-7.91-16.93-16-25.23-24.17-15.27-15-31.2-30.12-44.44-47-.39-.5-2.25.16-1.8.74,13,16.59,28.61,31.39,43.57,46.16Q115,185.38,127.9,197.4c5.17,4.8,10.32,9.84,16,14,.54.4,2.3-.37,1.8-.74Z"/><path class="cls-3" d="M185.63,176.26c-1.84-.73-3-3.95-3.82-5.57-1.78-3.48-3.31-7.1-4.88-10.68-3.7-8.44-7.83-16.7-12-24.93q-8.7-17.16-18.92-33.47c-6.75-10.72-13.1-21.72-20-32.34-.3-.45-2.06.32-1.93.52,6.9,10.63,13.19,21.65,20,32.34,7.22,11.33,13.68,23.13,19.75,35.11,4,8,8,16.06,11.6,24.27,1.55,3.54,3.12,7.09,4.88,10.54.75,1.47,1.8,4.18,3.5,4.86a2.58,2.58,0,0,0,1.82-.65Z"/><path class="cls-3" d="M59.78,123.5c23.35-15.34,47.34-31,64-53.89.12-.16-1.58-.11-1.91.35-16.57,22.73-40.4,38.27-63.59,53.5-.8.52,1.14.26,1.47,0Z"/><path class="cls-3" d="M105,87.58c-2.64-4.27-3.64-9.93-4.92-14.71-2.25-8.45-4.2-17-6.18-25.5s-4-17.13-6.1-25.64c-.78-3.1-1.6-6.19-2.51-9.25-.24-.82-1.25-2.56-.52-3L89.74,6.2l-1.58-.1C90.56,10.69,91.73,16,93,21c2.07,8.09,3.78,16.27,5.43,24.45q2.41,12,4.53,24.07.8,4.45,1.54,8.91c.44,2.68,1.62,5.07,1.95,7.66.1.76,2,.3,1.94-.52-.32-2.45-1.45-4.55-1.86-7-.47-2.88-1-5.75-1.47-8.63Q103,58,100.61,46.08c-1.65-8.24-3.4-16.47-5.42-24.63-1.32-5.3-2.55-11-5.1-15.87C89.8,5,89,5.2,88.51,5.49L82.74,9.28c-.18.11-.43.36-.35.61,4.74,13.84,7.39,28.52,10.71,42.74,1.77,7.56,3.56,15.12,5.58,22.62,1.17,4.32,2.18,9.27,4.56,13.13.39.62,2.26,0,1.79-.8Z"/><path class="cls-3" d="M146.32,200.06c8-5.29,18.51-10.05,22.68-19.29,3.75-8.29-2-17.59-5.85-24.65-11.5-21.3-20.84-43.86-34.91-63.69-.33-.47-2.2.15-1.8.72,12.7,17.9,21.64,38.08,31.64,57.52,4.12,8,10.45,16.5,10,25.92-.48,11.44-14.74,17.6-23,23-1.09.71.62.82,1.17.46Z"/><path class="cls-3" d="M75.08,128.14c4,7,9.76,12.67,15.7,18.08,7.65,7,15.38,13.74,22.66,21.12a209.11,209.11,0,0,1,17.67,19.85c4.1,5.37,8.69,9.81,15.4,11.48,1,.24,1.92-1.18.65-1.49-8.19-2-12.76-8.9-17.6-15.23-5-6.55-11.26-12.39-17.08-18.23-11.76-11.8-27.26-21.79-35.63-36.46-.47-.81-2.29-.05-1.77.88Z"/><path class="cls-3" d="M118,155.89c-.52-2.53,2.88-10.55,5.27-10.21,2,.29,16.49,6.67,15.49,8.14-1.67,2.44-3.16,5-4.62,7.56-.89,1.57-1.72,3.17-2.55,4.78-1.06,2.06-5.4.66-6.87.21-1.91-.58-9.75-3.82-8.72-6.43,1.26-3.18,2.23-6.25,4.43-9,.52-.65-1.42-.49-1.8,0-2.54,3.14-3.59,6.79-5.06,10.49a.25.25,0,0,0,.07.25c4.63,3.56,10.21,7.08,16.32,6.66,3.2-.22,2.55-.47,4.24-3.77a113.88,113.88,0,0,1,7.27-12.09.29.29,0,0,0-.13-.47c-4-1.46-7.74-3.69-11.61-5.54-2.21-1.05-5.81-2.67-8.37-2s-5.77,9.54-5.29,11.9c.13.64,2.07.16,1.93-.52Z"/><path class="cls-3" d="M121,122.54c2.28,5.19,4.45,10.44,6.73,15.63.2.47,1.25.14,1.54,0,4.46-2.82,9.28-5,13.73-7.83,1.1-.7-.62-.76-1.16-.42-4.45,2.82-9.27,5-13.72,7.83l1.54,0c-2.28-5.19-4.45-10.44-6.73-15.63-.25-.58-2.14,0-1.93.52Z"/><path class="cls-3" d="M124.37,121.39c2.43-2.88,6.61-8.14,10.89-6,3.79,1.85,5.18,7.8,6.19,11.44.2.73,2.13.21,1.93-.51-1.16-4.19-3.17-11.94-8.57-12.57-5-.6-9.08,3.86-12,7.31-.76.89,1.11.91,1.56.38Z"/><path class="cls-3" d="M127.92,137.87c-2.48,1.68-3.73,3.83-3,6.84.11.46,2,0,1.93-.51-.65-2.71.29-4.7,2.56-6.25.81-.55-1.13-.32-1.49-.08Z"/><path class="cls-3" d="M120.19,122.7c-1.83,3.66-1.75,7.66-3.09,11.46a.58.58,0,0,0,.19.69,53.32,53.32,0,0,1,7.17,9.21c.5.76,2.34,0,1.77-.86a49.19,49.19,0,0,0-6.5-8.55c-.92-.9,0-3.08.2-4a27.52,27.52,0,0,1,2.11-7.7c.5-1-1.46-1-1.85-.24Z"/><path class="cls-3" d="M128.28,143.45c4.85-3.11,14.95-6.69,15.08-13.63,0-.41-1.92-.11-1.93.52-.13,6.53-10,10-14.65,13-.85.54,1.11.4,1.5.15Z"/><path class="cls-3" d="M142.37,151.77a7.86,7.86,0,0,0-1.11-6.25c-1.4-1.86-3.79-2-5.89-1.61-.75.13-1.73.91-.37.67,4.52-.79,6.15,3.9,5.47,7.54-.08.41,1.81.1,1.9-.35Z"/><path class="cls-3" d="M130.18,165.41c-1.14-2-.3-4.73.13-6.81.17-.84-1.79-.54-1.94.2-.49,2.37-1.26,5.16,0,7.4.36.64,2.23,0,1.78-.79Z"/><path class="cls-3" d="M133.3,154.45c1.28-2.15,2.87-4.11,4.15-6.26.54-.92-1.42-.93-1.85-.21-1.28,2.15-2.86,4.1-4.15,6.26-.54.92,1.42.93,1.85.21Z"/><path class="cls-3" d="M93.62,124c2.73,5.67,5.64,11.36,7.81,17.28a.37.37,0,0,0,.36.2c7.55.4,16.17-2.88,20.42-9.37.44-.67-1.48-.41-1.77,0-2.79,4.26-7.22,6.62-12,7.92-2.29.62-4.79,1.18-5.79-1.25-.49-1.21-1-2.39-1.56-3.58-1.76-3.95-3.61-7.86-5.49-11.76-.28-.58-2.15.06-1.93.52Z"/><path class="cls-3" d="M95.48,122.68c5.46-3.68,10.48-8,15.94-11.64l-1.5.06c6.3,5,8,12.07,9.35,19.63.13.71,2.07.24,1.94-.52-1.38-7.7-3.11-14.82-9.51-19.88a1.35,1.35,0,0,0-1.5.07c-5.46,3.68-10.48,8-15.94,11.64-1.09.74.57,1.08,1.22.64Z"/><path class="cls-3" d="M104.5,124.51c-7.26-9.12-6.22-23.26.75-32.24A16.76,16.76,0,0,1,114,86.48c1.37-.38,5.66-1.63,4.53,1.06-1,2.35-2,4.71-2.92,7.07q-6,14.85-10.82,30.15c-.24.75,1.52.15,1.73,0a5.17,5.17,0,0,0,2.13-2.71c.22-.58-1.69-.35-1.93.26L105,124.49h1.73c4.19-13.24,9.09-26.21,14.5-39,.13-.32-.42-.38-.58-.39-20.44-1.52-29.61,25.5-18,40.14.39.49,2.25-.17,1.8-.74Z"/><path class="cls-3" d="M103.64,123.49c-8.27-1.57-10.61-12.78-10-19.83,1-11.14,15-19.32,25.15-19.07.81,0,2-1.19.72-1.22-11.06-.28-23.42,7-27.24,17.71-2.8,7.85,1,21.82,10.16,23.56.7.13,2.29-.94,1.16-1.15Z"/><path class="cls-3" d="M101.94,107.91a24.37,24.37,0,0,0,3.83,9.46c.39.61,2.26-.05,1.79-.79a23.63,23.63,0,0,1-3.69-9.18c-.1-.74-2-.28-1.93.51Z"/><path class="cls-3" d="M104,105.57A19.59,19.59,0,0,1,109.1,108c.47.27,2.05-.52,1.82-.65a20.3,20.3,0,0,0-5.29-2.54,2.35,2.35,0,0,0-1.35.25c-.16.07-.67.38-.24.48Z"/><path class="cls-3" d="M105.73,105.21c2-2.5,4.73-4.23,7.4-6,1.09-.72-.6-.9-1.19-.52-2.89,1.9-5.8,3.78-8,6.49-.52.64,1.41.47,1.79,0Z"/><path class="cls-3" d="M112.92,93.6,117,90.9c.31-.21.54-.66.14-.9a1.4,1.4,0,0,0-1.38.15l-4.12,2.71c-.31.2-.54.65-.13.89a1.38,1.38,0,0,0,1.37-.15Z"/><path class="cls-3" d="M52.82,105.76c4.79-4.5,9.66-9,15.52-12.07C77.15,89,85.26,93,91.67,99.46c.42.43,2.23-.28,1.8-.71-5.94-6-12.69-9.41-21.14-7.48-8.25,1.88-15.09,8.71-21,14.28-.79.74,1.13.57,1.52.21Z"/><path class="cls-3" d="M51.55,108.32c12.6,6.42,27.5,7.28,41.35,8.58.75.07,2-1,.74-1.12-13.56-1.28-28.21-2.12-40.56-8.41-.57-.29-2.35.54-1.53.95Z"/><path class="cls-3" d="M55.6,106.51c5.66-7.42,17.88-13,26.69-7.76,5.55,3.32,8.29,10.69,11.2,16.11.42.77,2.26,0,1.77-.86-3.78-7-7.16-15.59-15.47-18.17-9.1-2.82-20.39,3-25.81,10.1-.75,1,1.08,1.3,1.62.58Z"/><path class="cls-3" d="M67.14,108.91c-1-1.56-.51-3,.33-4.45.5-.89-1.46-.79-1.82-.14-1,1.84-1.44,3.52-.29,5.39.4.66,2.26,0,1.78-.8Z"/><path class="cls-3" d="M68.1,110.32a4.68,4.68,0,0,0,2.78,2.17,1.22,1.22,0,0,0,1.48-.55c1.23-2.85,2.66-5.6,3.89-8.44.45-1.06-1.5-1.13-1.86-.28-1.23,2.85-2.67,5.6-3.89,8.45l1.48-.55a3.47,3.47,0,0,1-2.12-1.68c-.52-.79-2.35,0-1.76.88Z"/><path class="cls-3" d="M79.51,111.77c.61-2.59,2.21-4.68,3.55-6.92.52-.88-1.44-.81-1.83-.15-1.4,2.35-3,4.54-3.67,7.25-.2.86,1.77.59,2-.18Z"/><path class="cls-3" d="M71,119.89a3.78,3.78,0,0,0,.25,2.3c.23.49,1.83.06,1.92-.41a10.71,10.71,0,0,0,0-3.66l-1.93.51c.3,2,1.18,4.87,3.54,5.31,2.08.38,3.9-.65,5.39-2l-1.85.3q1.62,2.48,3.25,4.94c.35.54,2.14-.19,1.93-.51l-3.25-5c-.34-.52-1.51,0-1.85.3-3.35,3-4.89-1.62-5.23-3.9-.07-.49-2-.06-1.93.51a10.51,10.51,0,0,1,0,3.45l1.92-.41a3.31,3.31,0,0,1-.26-2.08c.1-.57-1.82-.23-1.92.3Z"/><path class="cls-3" d="M58.88,122.13c-.17,0,.16.25.32,0a4.8,4.8,0,0,1,.74-.88c.75-.77,1.56-1.47,2.37-2.16a49.58,49.58,0,0,1,4.77-3.76c1.08-.73-.6-.92-1.19-.53a58.69,58.69,0,0,0-6.3,5c-.44.39-4,3.5-1.47,3.35.67,0,2.06-1.13.76-1.05Z"/><path class="cls-3" d="M90.55,94c-.08.5.2.73.72.7a3,3,0,0,0,1.82-.84,7,7,0,0,0,2.14-3.13c.15-.61-1.78-.3-1.92.28a5.3,5.3,0,0,1-1.15,2,6.17,6.17,0,0,1-.74.79c-.13.12-.31.21,0,.08,1.79-.84,1,.47,1.1-.13s-1.82-.3-1.93.28Z"/><path class="cls-3" d="M108.66,80c4-2.71,6.46-6.58,8.83-10.66.53-.92-1.43-.89-1.84-.19-2.23,3.83-4.54,7.46-8.26,10-1.09.74.51,1.35,1.27.84Z"/><path class="cls-3" d="M143.13,170.68c2.37,3.69,4.12,7.87,8,10.27.59.37,2.36-.47,1.52-1-3.73-2.32-5.44-6.51-7.72-10.07-.39-.6-2.26.06-1.79.79Z"/><path class="cls-3" d="M149.34,171.13c.75,2.68,2.11,5.34,4.54,6.84.6.37,2.36-.48,1.52-1-2.24-1.38-3.44-3.91-4.13-6.35-.21-.76-2.14-.23-1.93.51Z"/><path class="cls-3" d="M150.93,171.25c.37-.29,1.08-1.41,1.5-1.37l-.62-.37c.42,2.69,2.12,5.05,3.58,7.28.43.64,2.29,0,1.78-.81-1.41-2.15-3-4.38-3.42-7-.05-.26-.41-.35-.62-.37a2.93,2.93,0,0,0-1.88.35c-.66.4-1,1.07-1.56,1.53-1,.81.56,1.28,1.24.75Z"/><path class="cls-3" d="M154.29,167.89c1.59,2.53,2.45,5.43,4,8,.34.54,2.15-.18,1.93-.52-1.59-2.53-2.45-5.43-4-8-.34-.54-2.15.18-1.93.52Z"/><path class="cls-3" d="M158.67,167.37a19.28,19.28,0,0,0,2.76,7.85c.5.79,2.33,0,1.76-.87a18.4,18.4,0,0,1-2.59-7.5c-.13-.95-2.06-.46-1.93.52Z"/><path class="cls-3" d="M146.61,206.8c12.39-3.59,21.4-12.6,30.6-21.14.84-.78-1.14-.46-1.52-.21-8.49,5.76-15.41,13.48-23.92,19.24-.87.59,1,.51,1.34.33,8.42-4.46,16.23-9.6,22.3-17,.56-.68-1.4-.25-1.65-.09-5.18,3.42-10.37,6.89-13.41,12.46-.31.56,1.41.14,1.54.08,5.76-2.9,8.58-8.29,11.68-13.68.34-.58-1.55-.07-1.71,0a59.59,59.59,0,0,0-10.3,8c-.58.59,1.37.27,1.64.08,5-3.37,8.62-7.3,10.68-13,.14-.38-.63-.35-.8-.32-4.68.91-7.74,3.53-10.93,7-.58.62,1.39.25,1.65.08a84.9,84.9,0,0,0,11.82-8.94c.78-.74-1.13-.58-1.52-.21a84.12,84.12,0,0,1-11.82,8.94l1.64.09a42.35,42.35,0,0,1,4.21-4l3.31-.84a21.4,21.4,0,0,1-1.89,3.69c-1.89,3.11-4.9,5.38-7.87,7.39l1.65.09a58.34,58.34,0,0,1,10-7.73l-1.72,0c-2.9,5.05-5.49,10.22-10.92,13l1.54.08c2.92-5.36,8-8.7,13-12l-1.65-.08c-5.92,7.25-13.48,12.22-21.68,16.56l1.34.32c8.51-5.76,15.43-13.48,23.92-19.24l-1.52-.21c-8.78,8.15-17.45,17.11-29.29,20.54-1.14.33-.93,1.14.21.81Z"/><path class="cls-3" d="M152.62,142c8,11.95,24.2,28.12,14.46,43.29-3.17,4.93-8.75,9.47-14.57,10.51-4.55.81-9.13-1.48-12.85-3.81-6.91-4.31-12.59-10.51-18.84-15.67-.48-.4-2.26.34-1.8.72,12.72,10.52,27,28,43.89,14.57,7.83-6.23,10.86-14.54,7.81-24.08-3.13-9.79-10.69-17.85-16.3-26.25-.31-.47-2.19.14-1.8.72Z"/><path class="cls-3" d="M83.66,141.14c0,3,2.93,5.44,4.94,7.26a129.9,129.9,0,0,0,12.66,9.47c10.36,7.27,18,17.21,27,26,.37.37,2.14-.35,1.81-.67C121.4,174.7,114,164.92,104,157.83c-4-2.86-8.12-5.64-12-8.74-2.47-2-6.43-4.94-6.42-8.46,0-.35-1.93-.06-1.93.51Z"/><path class="cls-3" d="M74.35,132.27c13.21,8.94,24.07,20.83,35.19,32.14.49.5,2.32-.22,1.79-.76-11.2-11.39-22.14-23.33-35.45-32.33-.53-.36-2.32.42-1.53,1Z"/><path class="cls-3" d="M111.8,107.16c6.27-1.5,8.8-9.93,12.77-14.2.78-.84-.93-.86-1.4-.53a53,53,0,0,0-8.67,8.07,60.12,60.12,0,0,1-12.63,10.58C94.17,116,86,120.7,80.1,127.81c-.67.8.68.87,1.18.65,9.06-4,17-9.74,24.72-15.84,4.77-3.75,12.25-16.14,19.09-14.63.68.15,2.29-.88,1.16-1.13-6.49-1.44-12,5.33-15.73,9.55-8,8.88-19.16,16.36-30,21.14l1.18.65c6.11-7.37,14.7-12.19,22.69-17.25C112.11,106,117,98.3,124.4,93.1l-1.4-.54c-3.43,3.69-6.28,12.27-11.48,13.52-1.19.29-.89,1.36.28,1.08Z"/><path class="cls-3" d="M114.79,107.73c12.83,23.43,19.73,49.53,32.57,73,.37.67,2.23,0,1.93-.52-12.83-23.43-19.73-49.53-32.57-73-.36-.66-2.23,0-1.93.52Z"/><path class="cls-3" d="M123.78,112.44c4.49,17.6,12.78,33.8,21,49.91.32.63,2.19,0,1.94-.52-8.2-16.11-16.48-32.3-21-49.91-.16-.62-2.09-.11-1.93.52Z"/></svg>