<svg id="layer1" xmlns="http://www.w3.org/2000/svg" viewBox="0 0 257.52 361.36"><defs><style>.cls-1{fill:#cb211b;}.cls-2{fill:#ffa80d;}.cls-3{fill:#ddb668;}.cls-4{fill:#1f3187;}.cls-5{fill:#423407;}</style></defs><path class="cls-1" d="M206.05,167.17c.34-.92-.3-2.06-.08-2.63l.32-.85c1.18-3.13-2.24-5.34-4.67-4.54a4,4,0,0,0-1.78-1.44,3.6,3.6,0,0,0-.94-.61,3.42,3.42,0,0,0-4-4.39,16.44,16.44,0,0,0-1.64.3s0-.09,0-.12a3.55,3.55,0,0,0-3.86-4.7l-.4.05a3.58,3.58,0,0,0-2.2-4l-2.08-.78a3.55,3.55,0,0,0-3.45.57l-.71.62a3.9,3.9,0,0,0-1.4.22,25.2,25.2,0,0,0-5.42,2.77,3.42,3.42,0,0,0-1.92-1.56l-1-.39a3.31,3.31,0,0,0-2.79.06,4.21,4.21,0,0,0-1.28,0,3.45,3.45,0,0,0-5.2-2.27,3.52,3.52,0,0,0-2.1-2.32,6.73,6.73,0,0,0-2-.47,3.87,3.87,0,0,0-3.06-.71,47.92,47.92,0,0,0-.09-4.93,3.57,3.57,0,0,0-2.19-2.79l-2.08-.78a3.5,3.5,0,0,0-1.84-.09s-.07,0-.1,0c.25-.82.49-1.62.69-2.45a4.12,4.12,0,0,0-2.12-4.54,3.62,3.62,0,0,0,.08-2.42l-.06-.17c.09-.23.19-.45.28-.68,1.27-3.26-2-5.23-4.52-4.3a2.82,2.82,0,0,0-2.68.14c-.48.28-2.85,1.21-1.84,1.92a3.47,3.47,0,0,0-3.51-.36,33.19,33.19,0,0,0-8.06,6.74,3.31,3.31,0,0,0,.2-1.53c.77-1.55,1.51-3.11,2.16-4.72,1.7-4.2-4.77-6.58-6.56-2.46-1.34,3.09-3.23,5.89-4.57,9a3.47,3.47,0,0,0-.28,1.22,4,4,0,0,0-.51.86c-.73,1.76-1.57,3.47-2.42,5.17a3.54,3.54,0,0,0-.82.78,2.83,2.83,0,0,0-2.92,1.29c-.77,1.18-1.64,2.54-2.32,3.36l-.09,0c-1.78-.67-3.71.63-4.38,2.42l-.79,2.09c-1.45,3.85-3.71,7.15-4.25,11.29,0,.1-.06.17-.07.26a3.55,3.55,0,0,0,2.36,5.6c4.4.83,8.84,1.39,13.11,2.6a4.45,4.45,0,0,0,.77.22,32.21,32.21,0,0,1,5.78,2.33c1.87,1,3.74-.36,4.43-2.08a3.29,3.29,0,0,0,.91.53,73.94,73.94,0,0,0,8.4,2.71c1,1.67,3.87,1.39,5.24,1.39h0a5.54,5.54,0,0,1-.31,1.3,3.47,3.47,0,0,0,2.05,4.41l1,.34a3.28,3.28,0,0,0,2.82-.3c4.82,3.19,9.95,3.71,14.78,1.74a2.81,2.81,0,0,0,2.59.5l.38-.12c-1.2,3.76,4.83,5.75,6.74,1.95l0,0a2.77,2.77,0,0,0,2-.6,3.46,3.46,0,0,0,.95.69,3.8,3.8,0,0,0,4.32,2,4,4,0,0,0,1.29,3.58c2.5,2.22,5.69,3.46,8.78,4.63a3.47,3.47,0,0,0,3.06-.32,2.75,2.75,0,0,0,2.43-1.54c.17-.3.33-.6.48-.91a3,3,0,0,0,2.79-1.43c2.63-4.2,5.41-8.3,8.23-12.38a3.5,3.5,0,0,0,.74-1.9,3.41,3.41,0,0,0,.69-.94Zm-85.93-14a2.85,2.85,0,0,0-.87-1.91,3.8,3.8,0,0,0,.88.17,3.88,3.88,0,0,0,.63.35l-.63,1.75C120.12,153.4,120.12,153.28,120.12,153.16Zm14.47-23.45a3.92,3.92,0,0,0-1.22-1.75,22.11,22.11,0,0,1,2.47-2.09,3.52,3.52,0,0,0,.5,1.24C135.73,128,135.14,128.82,134.59,129.71Zm14.5,29.09a3.54,3.54,0,0,0,.71-.91c.58-1.12,1.09-2.24,1.56-3.37a32.16,32.16,0,0,1-1.27,4.74A3.25,3.25,0,0,0,149.09,158.8Zm31.58,5.55a3.39,3.39,0,0,0-1.24.66c1-1.47,2-2.92,2.92-4.38C181.79,161.87,181.22,163.1,180.67,164.35Z"/><path class="cls-1" d="M148.74,191.85c-8.81-3.43-17.09-7.76-26.46-6.9a26.52,26.52,0,0,0-4.56-2.4,3.22,3.22,0,0,0-3.86,1.1q-2.43-1-4.86-2l-.4-.2a3.74,3.74,0,0,0-.74-.24l-2.39-.94c-3.48-1.32-5.69,2.75-4.07,5.23a3.24,3.24,0,0,0-1,1.38,39,39,0,0,0-2.15,16.55,2.93,2.93,0,0,0,.83,1.87c-.12.72-.23,1.45-.35,2.18a3.11,3.11,0,0,0,1.82,3.34,3.82,3.82,0,0,0,4.33,2.19l0,.35a3.51,3.51,0,0,0,1.14,2.76,4.42,4.42,0,0,1-1.17,1.48c-3.46,2.93.83,8.18,4.41,5.44a8,8,0,0,0,.92-.83l0,0a3.58,3.58,0,0,0,6.19,1.6,2.57,2.57,0,0,0,.48,0,3.6,3.6,0,0,0,5,2.16,3.53,3.53,0,0,0,4.06,0,3.4,3.4,0,0,0,5.31-.23c.28-.35.55-.71.83-1.07a3.42,3.42,0,0,0,2.88-2.1c1.1-2.39,2.69-4.5,3.79-6.9a3.14,3.14,0,0,0,.31-1.21l0-.05a2.93,2.93,0,0,0,.21-.44,3.22,3.22,0,0,0,1.62-1.25,68.25,68.25,0,0,0,7.24-12.56,2.5,2.5,0,0,0,.16-.51c.64-.82,1.3-1.64,2-2.44C151.89,195.44,150.71,192.61,148.74,191.85Zm-39.61-1.33a2.59,2.59,0,0,0-.55.13,3.35,3.35,0,0,0-.49-.57l0-.27Z"/><path class="cls-2" d="M232.39,49.45c0-.07-.07-.12-.1-.18a4.06,4.06,0,0,0-.26-4,3.36,3.36,0,0,0-2.11-2.65c-3-1.32-5.83-3.25-9.25-3.35a3.5,3.5,0,0,0-2.71,1,29.36,29.36,0,0,0-11,1.31c-3.5,1.06-4,6.76.27,6.94,3.64.15,7.3.34,10.92.7.3.1.61.13.88.23l1.66.62a11.47,11.47,0,0,0,3.37,1.18h.56a4.71,4.71,0,0,0,1.12,1.51,6.58,6.58,0,0,0,1.54,1,2.75,2.75,0,0,0,3.62.12A3.54,3.54,0,0,0,232.39,49.45Z"/><path class="cls-2" d="M141.39,175.3c-1.25-1.35-2.59-2.64-2.91-4.51a3.29,3.29,0,0,0-3.19-2.83,3,3,0,0,0-1.12-.65c-.88-.26-1.78-.37-2.62-.61a3.66,3.66,0,0,0-6.26-1.18,5.94,5.94,0,0,0,0,7.79,3.28,3.28,0,0,0,3.32,1.15,23.26,23.26,0,0,1-.63,2.59,3.5,3.5,0,0,0,6.55,2.46c.14-.31.28-.62.44-.93.32.38.65.76,1,1.13C139,183,144.45,178.62,141.39,175.3Z"/><path class="cls-2" d="M184.61,185.12a12,12,0,0,0-1.46-.36l-.22,0a3.55,3.55,0,0,0-3.92-2.39,3.47,3.47,0,0,0-.46.13,15.42,15.42,0,0,0-1.7-3.33,3.52,3.52,0,0,0-4.93-.51,3.57,3.57,0,0,0-.51,4.92c1.56,2.3,1.41,5.14,1.31,7.78-.17,4.49,6.8,5.17,7,.64,0-.32,0-.62,0-.94a9.43,9.43,0,0,0,2,.55,2.33,2.33,0,0,1,.46.08h0a3.49,3.49,0,1,0,2.46-6.53Z"/><path class="cls-3" d="M122.68,176.22a29.5,29.5,0,0,1-4.11-.92c1-.38,2-.73,3-1,3.18-.89,4.15-5.4.65-6.72-2-.75-3.06-1.47-4.75-2.1a3.29,3.29,0,0,0-2-.11c-3.1-.84-6.24-1.58-9.29-2.64a3.54,3.54,0,0,0-4.07,1.45,39.11,39.11,0,0,0-12.35-5.25,3.68,3.68,0,0,0-3.61.87c-1.9-.78-3.83-1.53-5.77-2.25l-1-.61a3.35,3.35,0,0,0-2.17-2.72c-1.56-.62-3.07-1.32-4.58-2a134.57,134.57,0,0,0-17.57-8.68c-4.21-1.64-6.66,4.88-2.47,6.55,2.85,1.14,5.59,2.49,8.3,3.9-1.36,1.44-1.67,3.89.38,5.19,7.66,4.88,16.21,7.63,24.78,10.4a95.71,95.71,0,0,0,13.19,5.22,3.7,3.7,0,0,0,1.73.11c1.89.81,3.75,1.68,5.57,2.64a3.06,3.06,0,0,0,.76.28,38,38,0,0,0,14.75,5.43C126.51,183.85,127.14,176.87,122.68,176.22Z"/><path class="cls-3" d="M167.85,183.5c-1.87-.85-3.89-1.88-5.74-1.92a3.66,3.66,0,0,0-3.26,1.81,3.25,3.25,0,0,0-.81-1,41,41,0,0,0-9.42-6.06,3.17,3.17,0,0,0-4.32,1.89c-.3-.05-.59-.11-.89-.15a3.1,3.1,0,0,0-3.63,2.75,3.15,3.15,0,0,0,.2,4,12.25,12.25,0,0,0,6.34,3.49,27.9,27.9,0,0,0,4.14,2.16,3.17,3.17,0,0,0,1.16.24l.1.1c2.54,2.1,5.9,2.83,9.07,3.71.83,1.61,2.7,2.7,4.47,1.62a24.41,24.41,0,0,0,3-2.24c.3-.12.39-.35.65-.55a3.61,3.61,0,0,0,2.47-2.3l1.17-3.13C173.73,184.89,170.22,182.21,167.85,183.5Z"/><path class="cls-3" d="M226.2,193c-10.53,2.41-21.73-2.52-32.08-4.12a3,3,0,0,0-2.93,1.14s0-.13,0-.13c-4.27-1.44-6.66,4.84-2.43,6.43l.85.32c-1.48.51-2.83,1.13-3.32,2.4a23.38,23.38,0,0,1-7.21-2.8c-3.73-2.56-7.86,3.13-4.14,5.69s8.09,3.34,12.29,4.78a3.6,3.6,0,0,0,4.07-1.21,12.07,12.07,0,0,0,1.32-2,38.89,38.89,0,0,0,9.16-3.07,3.28,3.28,0,0,0,1.64-1.6,2.86,2.86,0,0,0,1-.62c7.63,1.8,15.36,3.48,23,1.74C231.75,198.86,230.61,192,226.2,193Z"/><path class="cls-4" d="M220,30.7a67.34,67.34,0,0,0-17.38-10.24,3.4,3.4,0,0,0-1.21-.25,3.55,3.55,0,0,0-3.09-3.62,72,72,0,0,0-7.19-.55c-1-.66-2-1.34-2.93-2.07-2-1.54-4.51-.24-5.34,1.67-1.41-.12-2.82-.27-4.23-.51a3,3,0,0,0-3.4,1.93c-.11.05-.23.09-.34.15-1,.07-2,.12-3,.12A4.06,4.06,0,0,0,168,20.87a22.48,22.48,0,0,1-6.26,1c-4.23.15-5.18,6.37-1,6.92a3.79,3.79,0,0,0-1,5,3.82,3.82,0,0,0-1.95,1.14,37.73,37.73,0,0,0-3.1,4.27,3,3,0,0,0-.72.55,66.24,66.24,0,0,0-6.1,7.83c-2.78,3.86-2.92,7.06-2.47,11.76A3.51,3.51,0,0,0,147.64,62c1.11.49,2.17,1.07,3.22,1.66a3.59,3.59,0,0,0,4.94,2.59c3.37,1.26,5.51-3,3.71-5.47a47.08,47.08,0,0,0,2.29-4.33,3,3,0,0,0-.16-2.89c.72-.42,1.46-.81,2.22-1.16a3.36,3.36,0,0,0,3.87,2.37,14,14,0,0,0,5-2.58,3.6,3.6,0,0,0,1,.59c1.24.47,2.42.89,3.72.3,1.75-.78,3.68-.8,5.35-1.56,2.2-1,3.56-2.5,6.08-3a52.57,52.57,0,0,1,6.28-.62,19.79,19.79,0,0,0,10.74-4.16c4.09-3.07,7.2-6.26,12.57-6.75C221.68,36.69,222.14,32.45,220,30.7Zm-22.78,5.76a14.54,14.54,0,0,0-.64,1.82A60.4,60.4,0,0,1,183,41.1a3.38,3.38,0,0,0,.37-2.21C181.92,30.37,192.16,32.89,197.17,36.46Zm-32,1.49c-.5.28-1,.55-1.51.81.08-.18.17-.37.24-.55a3.26,3.26,0,0,0-.15-2.89c.32,0,.64,0,1,0A3.71,3.71,0,0,0,165.18,38Z"/><path class="cls-4" d="M99.16,149.73c.72-3.82,1.23-7.66,1.76-11.51a37.86,37.86,0,0,0,1.53-9.87c0-.14-.14-.32-.15-.46,1.3-5.67,3.06-11.16,4.17-16.93l.5-1.34a3.75,3.75,0,0,0,.35-1,122.89,122.89,0,0,1,6.91-17.67c1.85-3.81-3.65-6-6.08-3.29-.61.7-1.18,1.41-1.75,2.13a3.17,3.17,0,0,0-2.32,2.09c-.26.68-.52,1.33-.8,2a3.86,3.86,0,0,0-1.37,1,67.11,67.11,0,0,0-4.64,6,3.42,3.42,0,0,0-2.07,2c-1.2,2.75-3,5.18-4.18,8a3,3,0,0,0-.26,1.2A100.81,100.81,0,0,0,84.05,124a38.72,38.72,0,0,0-4.75,11.88,2.71,2.71,0,0,0,.32,2.07,2.53,2.53,0,0,0-.24.53c-1,3.22-1.46,6.57-2.5,9.78a3.53,3.53,0,0,0,4.72,4.42c1.22-.55,2.44-1.12,3.63-1.75.07.42.15.83.21,1.25a3.54,3.54,0,0,0,5.66,2.13l3-.61a3.74,3.74,0,0,0,4.57-2.68A3.54,3.54,0,0,0,99.16,149.73Z"/><path class="cls-4" d="M80.6,280.6h0Z"/><path class="cls-4" d="M126.76,339.43c-.67-1.63-1.29-3.09-2-4.47a4.79,4.79,0,0,0,.3-.68c2.81-8.32,1.19-16.4.5-24.76a3.51,3.51,0,0,0,3.92-3.14c1-18.62-.05-37.42,4.43-55.67,1.06-4.33-5.48-6.85-6.55-2.47-4.28,17.44-3.92,35.11-4.64,52.87-1.92-.47-4.42.87-4.38,3.06-.84,8.27-.29,16.55-.1,24.83-1.53-.89-3.15-1.72-4.82-2.71a3.56,3.56,0,0,0-4.89.77q-1,1.41-2,2.79a3.83,3.83,0,0,0,.21-1.08c.2-3.87.6-7.73.8-11.6a3.73,3.73,0,0,0-.55-2.25c.37-28.36.27-57.17,7.24-84.71,1.09-4.33-5.45-6.84-6.55-2.47-7.57,29.95-7.19,61.08-7.73,91.81-.11.57-.22,1.14-.32,1.72a3.72,3.72,0,0,0-1.81,2.56c-.15.69-.28,1.39-.41,2.09A23.82,23.82,0,0,0,94.62,321a23.54,23.54,0,0,0-6.55-5.8,3.66,3.66,0,0,0-2.6-5.38,37,37,0,0,1-9.38-3.38c4.75-5.9,10.08-12.65,8.24-20.33a3.41,3.41,0,0,0-2.48-2.6,3.48,3.48,0,0,0-1.24-2.9c-.06,0-.83-.66-1.4-1.07,12.37-24.13,11-51.41,18.11-77.13a3.71,3.71,0,0,0-2.73-4.58c.15-.67.28-1.36.38-2.06,0,0,0-.05,0-.07a23.69,23.69,0,0,0,.4-11.79c0-.08,0-.16-.07-.24a14.4,14.4,0,0,0-1.45-3.41c0-.18.16-.55.2-.73.45-1.86,0-4-2-4.71l-1-.39a3.46,3.46,0,0,0-3.62.95,10.19,10.19,0,0,0-2.14,0,3.44,3.44,0,0,0-.88-.55,3.74,3.74,0,0,0-6.74-.07l0,.1a3.47,3.47,0,0,0-3.22,2.26c-2.73,7.75-3.15,15.59-2.83,23.74,0,.6.59,1.3.46,1.65l-.36,1-.07.14a64.38,64.38,0,0,0-3.45,12.62c-.6,4,5.34,5.15,6.75,1.55a48,48,0,0,1,5.72-10.88l.24,0a72.64,72.64,0,0,1,.71,8.39,3.59,3.59,0,0,0,5.3,3.32c-1.56,9.63-2.68,19.35-4.4,29a108,108,0,0,1-7.27,24.47c-1.38,3.15-4.06,5.91-3.18,9.45.61,2.44,2.76,3.25,4.49,4.75a3.41,3.41,0,0,0,.89.55,4.32,4.32,0,0,0,.06.47c1.62,6.75-6,13.56-9.71,18.46a3.48,3.48,0,0,0,.56,4.69,3.48,3.48,0,0,0,2,4.56c6.31,2.38,13.81,4.61,18.46,9.8,4.87,5.44,4.52,14.29,4.4,21.06A3.65,3.65,0,0,0,95,349.12a10.16,10.16,0,0,0,2.93,3.55,3.51,3.51,0,0,0,4.89-.78,75.44,75.44,0,0,0,4.3-7.11c1.16-2.15,1.49-4.41,2.23-6.64a47.59,47.59,0,0,1,3.05-4.51c2.48,1.32,4.8,2.63,6.54,5.14a2.31,2.31,0,0,0,.2.24c.47,1.09.83,2.23,1.28,3.3C122.13,346.49,128.5,343.59,126.76,339.43Z"/><path class="cls-5" d="M215.38,25.72c-3.26-1.49-5.82-3.91-8.69-6-3.21-2.36-7.93-3.73-11.68-4.87a39.43,39.43,0,0,0-23.12.26c-.53.16-1.29.88-.42,1.19a11.55,11.55,0,0,0,4.77.74l.21-1.28c-4.52.48-9.07,1-13.32,2.63-.67.26-.77,1.07.06,1.14,1.78.13,3.32.87,5.1,1l-.06-1.14c-5.7,2.43-11.49,3.67-16.1,8.05-.42.39,0,.86.44.87a29.88,29.88,0,0,0,5.26-.28c1,1.07.83,1.66-.63,1.78-.8.31-1.6.63-2.39,1-.61.26-.8,1.15.06,1.15a30.15,30.15,0,0,0,4.85-.1c-.18-.34-.35-.68-.52-1a28.45,28.45,0,0,0-8.71,8.1c-.21.31.08.57.35.67.66.19.52.26-.43.24a24.44,24.44,0,0,1-3.32,1.75c-.27.13-.81.57-.48.91,3.18,3.25-1.85,5.16-2.59,8.78-.18.88,1.78.6,1.95-.18.55-2.72,3.33-4.76,4.55-7.23a.43.43,0,0,0-.16-.59c-2.26-1.45-1.89-.92-.21-1.78a16.21,16.21,0,0,0,2.68-1.82c.41-.31.5-.77-.05-1-.93-.35,6.37-6.27,7.67-7.11.69-.45.17-1.13-.53-1q-2.17.12-4.35.09l.06,1.15c2.7-1.12,5.19-2,7.29-4.06a.48.48,0,0,0-.22-.84c-2.34-.5-10.2.89-4.51-2.26,3.37-1.87,7.31-2.71,10.86-4.23.65-.27.78-1.07-.06-1.14-1.79-.13-3.32-.87-5.1-1l.06,1.14c3.91-1.54,8.14-1.91,12.29-2.35,1-.11,1.54-1.31.21-1.28a7.42,7.42,0,0,1-3.84-.66c-.13.39-.27.79-.41,1.19,7.87-2.44,15.52-2.09,23.35.27a36.16,36.16,0,0,1,10.86,5.11c2.49,1.82,4.62,3.82,7.47,5.11.68.31,2.41-.63,1.5-1Z"/><path class="cls-5" d="M213.61,26.59c3.44.82,4.89,4.31,5.93,7.33.62,1.79,1.18,4.22,3,5.15.49.24,2.28-.5,1.56-.86-2.21-1.12-2.74-5.36-3.64-7.44a8.25,8.25,0,0,0-5.65-5.12c-.53-.12-2.26.7-1.22.94Z"/><path class="cls-5" d="M220.53,38.24a46.52,46.52,0,0,1,10.29,5.84,43.56,43.56,0,0,1,4.29,3.49c4.15,3.79-2.81,1.42-4.48.73-3.17-1.31-5.84-2.75-9.32-3-4.87-.4-9.58,1.63-14.51,1.19-.28,0-2,.53-1.71.68l.56.6c.1.38,2-.14,1.93-.52-.16-.6-.05-.42-.67-.72l-1.71.67a28.14,28.14,0,0,0,7-.28c5.91-1,10.07-.85,15.4,1.54,3.55,1.6,7.3,3.21,11.06,1.51,0,0,.5-.22.41-.35-3.56-5.47-10.79-9.7-16.75-12-.52-.2-1.94.59-1.83.63Z"/><path class="cls-5" d="M236.84,50c-6.73,5.49-13.73.72-20.82-1.48a13.65,13.65,0,0,0-5.83,0c-2.43.34-3.55-1.49-5.84-.8-1.17.36-.83,1.69.36,1.33.79-.25,2.43.67,3.19,1s2.62-.21,3.54-.34c4.27-.59,8.3,2,12.2,3.4a22.4,22.4,0,0,0,8.81.79c2.81-.18,3.45-1.25,5.67-3.07,1-.83-.53-1.49-1.28-.88Z"/><path class="cls-5" d="M222.17,37.4c-2.27-.28-3.75.74-5.24,2.37-1.64,1.8-3.35,1.28-5.61,1.73-4.09.83-8.64,2.71-8.81,7.47,0,1,1.92.66,2-.17.17-4.52,5.25-6.21,9.16-6.29a6.41,6.41,0,0,0,2.47-.17c1.82-.86,3.09-3.88,5.39-3.6.91.11,2-1.18.69-1.34Z"/><path class="cls-5" d="M202.79,48.46l-2.87-.81a1.1,1.1,0,0,0-1.31-.14c-1.61.83-2.23,2-4,.38a2.94,2.94,0,0,0-2.95-.39c-1.9,1-2.72,2-5.07,2.08-1.7,0-2.88,1.56-4.14,2.44H184c-2.44-3.58-6.19,1.73-8.46,2.78l1.39.32c-2.09-4.94-5.57-3.33-8.9-.34l1.61.18c-.5-1.22-1.09-2.5-2.66-2.38-.67,0-4,1.36-2.68,1.86-.74-.28-.35-1.67-2.06-1.57-1.37.08-2.09,1.61-2.45,2.7s1.55,1,1.85.22c.14-.37.28-.75.43-1.13.41-1.11-1.44-.88-1.85-.22-1.86,3,.51,4.6.55,7.76a.72.72,0,0,0,.89.63l.9-.09-.84-.82-1,2.65a.55.55,0,0,0,.36.76c.4.15-1.53,1.21-2.15,1.81-.86.85,1,1.18,1.62.57.86-.85,1.79-1.6,2.66-2.46a.55.55,0,0,0-.26-.93c-.6-.23.4-1.61.61-2.18s-.34-.87-.84-.81c-.35,0-.06-.72-.29-1.63-.55-2.13-2-2.49-.37-5l-1.85-.22c-.14.38-.29.75-.43,1.13l1.85.22c.36-1.12,1.24-.16,1.74,0a1.33,1.33,0,0,0,1.36-.37l3,0c.25.6,1.18.56,1.61.18,1.31-1.18,4-4.12,5.69,0,.23.55.93.53,1.39.31,1-.48,4.89-4.46,5.84-3.07.33.49,1.14.29,1.53,0,2.28-1.57,4.93-.77,7-2.47,2.83-2.32,2.37,0,5.05.29.28,0,3.26-1,2.92-1.46.94,1.22,3.19.89,4.41.53s.83-1.69-.35-1.33Z"/><path class="cls-5" d="M143.7,53.68a16.41,16.41,0,0,1-2.27,4.12c-1,1.27-1.83.94-2.31,2.44-.09.22-.17.43-.25.65q-.94,1.28.27.33a5.36,5.36,0,0,1-.77-.94,9.49,9.49,0,0,0-2.71-2.61c-.46-.28-1.65-.07-1.86.5-1.11,3-1.94,6.18-3,9.23-.19.53,1.71.28,1.92-.29,1.1-3,1.93-6.18,3-9.23l-1.86.5c1.89,1.12,3.25,5.06,5.86,3.64,1.29-.71,1.17-2.39,2.41-3.21,1.73-1.13,2.77-3.58,3.49-5.41.21-.51-1.69-.28-1.92.28Z"/><path class="cls-5" d="M131.8,64.36a3,3,0,0,0-1.37-1.46,1.24,1.24,0,0,0-1.67.45l-1.28,3.41,1.81-.31c-.39-.48-.85-.86-1.23-1.33s-1.28-.27-1.7.13c-1.36,1.33-1.74,3.21-2.34,5l1.89-.14c-.13-.78-.3-1.55-.42-2.32s-1.62-.36-1.9.14a35.59,35.59,0,0,0-2.13,5.68l1.89-.15a6.84,6.84,0,0,0-2.16-3.19,1.22,1.22,0,0,0-1.67.45c-1,3-1.59,6.77.07,9.63.45.77,2.28,0,1.77-.85-1.37-2.36-.82-6,0-8.55l-1.67.45a4.61,4.61,0,0,1,1.72,2.58c.21.78,1.66.5,1.89-.14a36,36,0,0,1,2.13-5.68l-1.89.14c.13.78.3,1.55.43,2.32s1.68.46,1.89-.14c.54-1.58.87-3.4,2.12-4.6l-1.7.13c.38.48.85.86,1.23,1.33a1.18,1.18,0,0,0,1.81-.31l1.28-3.41-1.67.45A1.94,1.94,0,0,1,130,65.22c.39.78,2.23.06,1.77-.86Z"/><path class="cls-5" d="M148.69,60.74c-1.26.54-2.71,2.16-1.72,3.57s3.25-.37,4-1l-1.67.45c.27.1.27,1.42.45,1.84a2.12,2.12,0,0,0,1.13.91c1.35.6,2.69.42,4,1.3.84.59,1.51,1.43,2.63,1.35a6.63,6.63,0,0,0,3.44-1.52c.81-.58-1.13-.34-1.48-.08-1.81,1.31-2.77-.83-4.57-1.28-2-.49-3.58-.52-3.43-3a.2.2,0,0,0-.17-.12l-.38-.14a2,2,0,0,0-1.67.44c-.59.55-.55-.27-.55-.63A2,2,0,0,1,149.81,61c1.17-.5-.65-.49-1.12-.29Z"/><path class="cls-5" d="M148.13,61.72a2.79,2.79,0,0,0-2.68-3,1.49,1.49,0,0,0-1.27.54c-.26.4.22.59.53.61,1,.07,1.5,1.2,1.49,2s1.92.45,1.93-.22Z"/><path class="cls-5" d="M185.8,36c1.87-1.37,4.84-1.07,6.74.09,1.08.66,1.84,1.9,1.11,3.1-1.81,3-8.64-.2-7.65-3.44.18-.59-1.75-.32-1.93.27-.87,2.89,2.8,4.63,5,5.14a6.56,6.56,0,0,0,6.21-1.83c1.56-1.87-.29-3.7-2-4.5a9.52,9.52,0,0,0-9.08.94c-.32.24-.21.54.16.6A2,2,0,0,0,185.8,36Z"/><path class="cls-5" d="M196,37.84c2.62-7.83-13.73-9.62-13.83-.39,0,.92,1.94.57,1.95-.19.08-7.48,12-5.38,9.94.77-.27.79,1.7.55,1.94-.19Z"/><path class="cls-5" d="M190.25,35.3a2.58,2.58,0,0,0-1.51,2.62,3,3,0,0,0,2.5,2.45,1.4,1.4,0,0,0,1.37-.37.53.53,0,0,0-.25-.9,2,2,0,0,1-1.59-1.27c-.16-.44-.16-1.19.32-1.44,1.18-.59.12-1.58-.84-1.09Z"/><path class="cls-5" d="M189.71,36c-.43,1.18-.48,2.59.84,3.16a1.63,1.63,0,0,0,1.67-.45c.52-.95.8-2.28-.29-2.94a2.16,2.16,0,0,0-1.84.11,2.57,2.57,0,0,0-1.33,1.49.22.22,0,0,0,.06.24,3.45,3.45,0,0,0,2,.87,3,3,0,0,0,2.35-1.14.28.28,0,0,0,0-.37,2.34,2.34,0,0,0-2.74-1,3,3,0,0,0-2.11,2.52.24.24,0,0,0,.06.23,2.86,2.86,0,0,0,2.78.37A3.14,3.14,0,0,0,192.86,37c.06-.14-.07-.27-.19-.31L190.78,36c-.5-.18-1.53,0-1.74.58-.28.81-.56,2.16.58,2.38,1.4.27,2.41-.93,2.86-2.07.26-.65-1.37-.22-1.55-.12a1.83,1.83,0,0,0-.54.42c0,.08-.35.51-.14.33l.91-.36.3,0a1.77,1.77,0,0,0-1.37.37c-.33.27-.2.53.17.62a1.88,1.88,0,0,0,1.35-.23,1,1,0,0,0,.39-.35s.17-.31.11-.28l-1.55-.12a3.39,3.39,0,0,1-.42.8,1,1,0,0,0-.12.16c.43-.3,1,.09.8-.19s0-1.24.15-1.6l-1.74.58,1.9.71c-.07-.1-.13-.21-.19-.31a4.11,4.11,0,0,1-.59,1.09c-.07.06,0,.05.08,0,.45,0,.57-.07.35-.09a2.19,2.19,0,0,1-.59-.3l.07.23a2.4,2.4,0,0,1,.66-1.46c-.28.25-.57,0-.17.23a2.6,2.6,0,0,1,.63.69v-.36a1.25,1.25,0,0,1-.23.23c.46,0,.55-.1.27-.17a3.27,3.27,0,0,1-.8-.53l.06.24a2.51,2.51,0,0,1,.24-.46c.18-.28.3-.14-.33,0-.36.07-.35-.08-.18.05a.86.86,0,0,1,.18.2,2,2,0,0,1-.15,1.82l1.66-.45c-1-.44-.77-1.68-.47-2.53.22-.59-1.7-.34-1.92.27Z"/><path class="cls-5" d="M119.22,87.2c-4.93,2.58-8,7.13-11.73,11.06-.54.56,1.06.39,1.25.3L114,96.2l-1.12-.42a45.44,45.44,0,0,0-6.34,5.13c-.22.24.05.42.28.45,1.49.17-1.87,3.12-2.58,4.45-.12.21.23.31.35.33a8.52,8.52,0,0,0,4.57-.52l-1.25-.3a14.62,14.62,0,0,0-3.06,4.61c-.17.39.66.33.8.32a8.93,8.93,0,0,0,4.24-1.51l-1.47-.2c-1.75,2.2-3.44,4.45-5.12,6.72-.52.7,1.39.26,1.65.08l2.37-1.7-1.65-.09a37,37,0,0,0-5.67,9.26c-.27.66,1.63,0,1.85-.16a18.17,18.17,0,0,1,4-3.31l-1.54-.08c-.9,1.7-2,2.86-2.61,4.64-.21.62,1.37.17,1.54.08,1.1-.59,2.17-1.22,3.27-1.8L105,122a16.86,16.86,0,0,0-3.58,4.86c-.18.37.67.34.81.31a10.54,10.54,0,0,0,5.22-2.62c.83-.72-1.13-.49-1.52-.21a11,11,0,0,0-4.37,5.59c-.2.62,1.35.19,1.54.08a16.26,16.26,0,0,0,3.48-2.93l-1.78,0a39.12,39.12,0,0,0-3.2,5c-.28.58,1.4.15,1.54.08,1.1-.58,2.17-1.22,3.27-1.8l-1.47-.2c-1.84,2.2-3.38,4-3.91,6.89-.15.76,1.61.06,1.84-.16a7.16,7.16,0,0,1,2.59-1.7l-1.54-.07a33.25,33.25,0,0,0-2.24,8.23c-.08.71,1.73.2,1.92-.28a30.27,30.27,0,0,1,3-6,1.82,1.82,0,0,1,1.94-1.19,30.63,30.63,0,0,0-1,4.48c-.06.66,1.87.27,1.92-.29a42.23,42.23,0,0,1,1.39-6c.09-.4-.6-.35-.81-.32-4.72.71-6.81,5.54-8.37,9.54l1.92-.28a33.32,33.32,0,0,1,2.24-8.24c.23-.62-1.39-.15-1.54-.07a10.77,10.77,0,0,0-3.2,2.17l1.85-.16c.51-2.76,2-4.57,3.77-6.64.54-.65-1.26-.31-1.47-.2-1.1.58-2.17,1.21-3.27,1.79l1.54.08a35.62,35.62,0,0,1,3.06-4.75c.48-.7-1.46-.3-1.78,0L102,129.55l1.55.08a9.76,9.76,0,0,1,4-5.1l-1.52-.21c-2.61,2.25.16-1.7.85-2.38s-1.26-.31-1.47-.2c-1.1.59-2.17,1.22-3.27,1.8l1.54.08c.56-1.68,1.79-3.09,2.61-4.64.29-.55-1.39-.16-1.54-.08a25.74,25.74,0,0,0-4.67,3.79l1.85-.17a36.16,36.16,0,0,1,5.53-9c.54-.67-1.39-.26-1.65-.08l-2.37,1.7,1.65.09c1.68-2.27,3.36-4.52,5.12-6.72.52-.65-1.24-.34-1.47-.2l-.77-1a11,11,0,0,1,1.72-2c.56-.58-1.09-.36-1.25-.3-1.2-1.68-.73-3,1.41-3.79.28-.25.27-.53-.15-.58-2.17-.25.86-1.81,1.51-2.32,1-.8,2.15-1.52,3.2-2.31.8-.6-.79-.57-1.12-.42L108,97.92l1.25.3c3.56-3.72,6.45-8.14,11.11-10.59,1.15-.6-.61-.72-1.16-.43Z"/><path class="cls-5" d="M112.8,134.54c0,.13-.09.25-.14.38-.16.43.63.48.84.45a1.3,1.3,0,0,0,1.1-.68c0-.12.09-.25.14-.37.16-.44-.63-.48-.85-.46a1.28,1.28,0,0,0-1.09.68Z"/><path class="cls-5" d="M115.05,127.65c1.53-1.65,2-4,2.73-6l-1.93.39.33,1.42c.15.63,1.64.07,1.86-.26,1.59-2.42,2.33-5.23,4.13-7.53l-1.85.14c-.21.93-.42,1.86-.62,2.8-.14.6,1.1.29,1.33.21,2-.73,2.91-2,4.62-3.39h-1.73c0,.85-.07,1.7-.1,2.56,0,.67,1.25.28,1.55.11,1.43-.85,2.64-1.95,4.08-2.79l-1.55-.11c-.32,2.68-2.59,5.41-1.72,8.12.2.66,1.58,0,1.85-.26l1.48-1.61-1.86.14a25.79,25.79,0,0,0,.08,4.48c.08.61,1.51.06,1.74-.13,1.78-1.53,2.87-3.56,4.55-5.21h-1.73a19.65,19.65,0,0,1-1,3.93c-.23.65,1.62.24,1.86-.13,1.35-2.09,2-4.45,3.32-6.54l-1.85.14a10.32,10.32,0,0,0-.62,2.8c-.06.74,1.62.24,1.85-.14a45.18,45.18,0,0,1,4.46-6.1l-1.85.13c-.83,1.8-.64,3.13,1.62,2.82,2.83-.39,3.92-3.46,6.44-4.39l-1.34-.22c-.4,1.82,0,2.55,1.61,3.44.51.28,2.3-.48,1.55-.89l-1.23-2.82c.13-.6-1.11-.3-1.33-.21a6.79,6.79,0,0,0-2.18,1.18l-.92.89c-1,2-1.8,2-2.3-.06.29-.64-1.6-.15-1.85.13a45.28,45.28,0,0,0-4.46,6.11l1.85-.14a10.25,10.25,0,0,1,.62-2.79c.23-.65-1.61-.24-1.85.13-1.35,2.08-2,4.44-3.33,6.53l1.86-.13a20,20,0,0,0,1.05-3.93c.1-.72-1.48-.24-1.73,0-1.66,1.62-2.79,3.68-4.56,5.2l1.74-.14a14,14,0,0,1-.1-4.23c.05-.81-1.58-.16-1.85.14L126.25,123l1.86-.27c-.82-2.59,1.41-5.32,1.71-7.87.08-.68-1.28-.27-1.55-.11-1.43.84-2.64,1.94-4.08,2.79l1.55.11c0-.85.07-1.71.1-2.56s-1.44-.23-1.73,0a28.15,28.15,0,0,1-3.82,2.94l1.33.22c.21-.93.42-1.87.62-2.8.17-.75-1.62-.16-1.85.14-1.83,2.33-2.52,5.07-4.13,7.53l1.85-.27c-.1-.47-.21-1-.32-1.42-.16-.65-1.77-.06-1.93.39-.69,2-1.15,4.23-2.59,5.79-.53.57,1.39.41,1.78,0Z"/><path class="cls-5" d="M147.45,117.1a3.85,3.85,0,0,0-.91,2.47c.13,1,1.13,1.34,2,1.51s2-1.09.69-1.33-.43-1.77.05-2.47c.28-.41-.23-.72-.57-.75a1.36,1.36,0,0,0-1.26.57Z"/><path class="cls-5" d="M148.53,121.19c-.18,1.2-1.69,4.49-.7,5.55s3.15-.34,4-.81l-1.56-.05c0,2.72-1.94,5.26-.82,7.91.2.47,1,.32,1.35.16l2.09-.95-1.36-.15a6.77,6.77,0,0,1-.52,3.55c-.25.67,1.69.42,1.93-.24a7.76,7.76,0,0,0,.53-3.83c-.06-.51-1.11-.27-1.36-.16l-2.08,1,1.35.15c-1.07-2.54.85-5.27.82-7.9,0-.61-1.36-.17-1.57-.05-1.68.93-1.15,0-.89-1.12s.55-2.14.71-3.24c.12-.79-1.83-.45-1.93.23Z"/><path class="cls-5" d="M154.81,137.85c-.13.56-.13.42.09,1,.15.42,1,.17,1.32.06l2.21-.72-1.06-.25a33.8,33.8,0,0,0-.2,5.23c0,.35.91.18,1.07.13a9.8,9.8,0,0,0,4.06-2.47l-1.72.16a8.83,8.83,0,0,1-.38,3.2c0,.23.18.3.35.32a3.83,3.83,0,0,0,2.88-.48,12.13,12.13,0,0,0,2.16-1.61,11.68,11.68,0,0,0-1.28,4.74c0,.49,1.38,0,1.54,0,2.39-1.38,4.32-4.06,7-4.78l-1.06-.25L170,147c0,.13.06.24.18.28,3.69,1.1,6.31-2.87,9.61-3.67l-1.07-.24q-.93,2.46-1.85,4.92a.22.22,0,0,0,.18.28c4.55,1.17,9-6.75,12.3-8.63l-1.53-.06c-1.22,2.23-4.15,3.86-3.33,6.64.16.55,1.46,0,1.72-.16,1.65-1.29,3.05-3,4.85-4.05l-1.54-.06c-1,2-2.43,3.64-3.42,5.63-.27.54,1.38.16,1.54.06a30.23,30.23,0,0,0,7.33-6.24l-1.85.17c-1.08,2-2.5,3.13-2.9,5.4-.12.67,1.49.13,1.72-.05,2.43-2,4.15-4.73,6.78-6.53l-1.65-.07c-1.68,1.94-7.31,6.71-4.59,9.65,1.42,1.53,5.66-2.91,6.34-3.31l-1.54-.06c-.85,1.87-5.22,7-3,8.78,1.89,1.5,5.43-3.14,6.3-3.91l-1.72.05c-.29.53-5.18,6.8-1.59,6.64a6.89,6.89,0,0,0,3-.94c3.2-1.69,1.56,1.43,1.92,3.89.08.51,1.34.06,1.55,0a10.64,10.64,0,0,1,2-.61l-1.07-.25c-.57,1.51-1.13,3-1.71,4.54-.19.51,1.71.28,1.92-.29l1.71-4.54c.18-.47-.91-.29-1.06-.25a11.45,11.45,0,0,0-2.94,1l1.55-.05a15.61,15.61,0,0,1,.33-5.38c.05-.3-.35-.34-.56-.33a7.31,7.31,0,0,0-3.17,1c-4.64,2.36-1.1-2.56,0-4.62.29-.52-1.51-.13-1.72.05-1.15,1-4.28,4-2.86.61.82-1.94,2.1-3.66,3-5.58.25-.57-1.39-.16-1.54-.07-1.07.64-4.07,4.07-3.83.87.18-2.48,3.46-5,5-6.84.55-.63-1.39-.24-1.65-.07-2.65,1.81-4.33,4.48-6.78,6.53l1.72,0c.37-2.1,1.91-3.56,2.9-5.4.27-.5-1.59-.14-1.85.17a27.47,27.47,0,0,1-6.71,5.77l1.54.07c1-2,2.43-3.65,3.42-5.63.27-.56-1.39-.16-1.54-.07-2,1.19-3.37,2.85-5.2,4.28l1.72-.17c-.72-2.46,2.27-4.5,3.32-6.41.29-.54-1.4-.15-1.54-.07a23.28,23.28,0,0,0-4.46,3.7c-1.27,1.23-2.53,2.46-3.88,3.6-1.71,1.45.49-3,.78-3.74.18-.47-.91-.29-1.06-.25a10.49,10.49,0,0,0-3.33,1.44c-.33.21-4.29,2.35-3.9,1.3.48-1.26.95-2.52,1.42-3.78.18-.47-.9-.29-1.06-.25-3.26.87-5.1,3.5-8,5.15l1.54,0c0-2.05,1-3.88,1.76-5.71.15-.38-.66-.33-.81-.3a5,5,0,0,0-2.59.89c-.6.5-.93.8-1.5,1.35-1.08,1.06-.59-2-.59-2.39,0-.55-1.55,0-1.72.16a8.81,8.81,0,0,1-2.76,1.87l1.07.14a20,20,0,0,1,.19-5c.05-.48-.82-.31-1.07-.25a14.2,14.2,0,0,0-2.72.89l1.33,0c0-.26-.07-.53-.1-.79.14-.58-1.78-.28-1.92.29Z"/><path class="cls-5" d="M132.68,166.06c2.43,3.38,2.73,6.78,2.12,10.8-.25,1.66-.89,3.22-1.1,4.88-.09.68-.21,1.37-.35,2a1.6,1.6,0,0,1-1.36,1.76c.31-6,4.72-9.62,1.14-15.59-.39-.66-1.68,0-1.86.49-1,2.83-1.81,5.56-3.71,7.94-1.45-.07-1.59-.77-.4-2.09.43-.84,1.17-1.59,1.69-2.39a3.67,3.67,0,0,0,.23-3.2c-.32-1.19-2.8-1.6-2.83-2.64s-2-.54-1.94.2,0,.94.6,1.29c2.39,1.41,2.59,3.72,1,5.83-.84,1.09-2.46,3.91-.71,4.93,4.22,2.46,7.3-8,8-10.06l-1.86.5c3.14,5.24-.26,9.69-1.31,15-.5,2.55,1.53,2.69,3.24,1.77,2.47-1.32,2.21-5.85,2.86-8.14,1.4-5,1.4-9.82-1.68-14.1-.44-.62-2.3.08-1.78.8Z"/><path class="cls-5" d="M134,168.22c2,2,2.28,4.55,2.19,7.19-.08,2-.49,4.5,1,6.12.33.36,1.51-.13,1.78-.39,5.4-5.3.8-14.86-5.66-16.65-2-.55-4.87.29-6.71,1.1-1.56.7-3.3,2-.69,2.62.46.11,2.16-.62,1.58-.76-3.18-.76,2.94-2.26,3.9-2.23,2.48.06,5.12,2.7,6.36,4.63,2,3.16,2.26,8.67-.53,11.41l1.78-.39c-1.56-1.69-.95-4.69-.87-6.77a8.67,8.67,0,0,0-2.33-6.54c-.36-.37-2.14.34-1.82.66Z"/><path class="cls-5" d="M169.19,180.13c.14.84,1.11,1.16,1.79,1.51,1.76.92,2.05,1.8,2,3.64a38.39,38.39,0,0,1-1.86,8.36c-.27,1-1.09,2.49.46,2.54s2.59-1,3.38-2.23c2.16-3.29,4.35-9.46,2.8-13.28a3.85,3.85,0,0,0-5.11-2.3c-1.56.61-3.71,1.83-1.47,3.07.57.32,2.35-.5,1.53-.95l2.28-.57a6.13,6.13,0,0,1,1.17,2.08,3.37,3.37,0,0,1,.17,2,30.18,30.18,0,0,1-.87,4,29.26,29.26,0,0,1-1.75,4.91,7.82,7.82,0,0,1-1.31,2c0,.05.2.22.4-.57a71.66,71.66,0,0,0,2.05-8.66,7.12,7.12,0,0,0-.16-3.18c-.48-1.45-3.32-1.56-3.53-2.87-.11-.68-2.05-.22-1.93.52Z"/><path class="cls-5" d="M177.88,184.94c5.17,2.18,2,7.35,1.55,11.4-.06.51.51.65.89.64,4-.07,5.22-6,5-9.08-.26-3.61-5.24-7.67-7.82-3.73-.2.32.08.67.37.77l1.14.43c.82.31,2.26-.88,1.11-1.31l-1.14-.43c.13.26.25.51.37.77,1.48-2.26,4,3.46,4.06,4.7,0,1.56-.76,6.42-2.93,6.46l.9.64c.59-4.91,3.65-10-2.4-12.57-.82-.34-2.25.83-1.11,1.31Z"/><path class="cls-5" d="M183.32,187.75c1.45,1.52.65,3.61.33,5.43-.05.28.19.48.42.57l.38.14a1.27,1.27,0,0,0,1.48-.53c1.38-2.61.85-7.11-2.39-8-.82-.23-2.29,1-1.12,1.3,2.55.71,2.7,4.53,1.66,6.49l1.49-.54-.38-.14.42.57c.37-2.09,1.13-4.39-.52-6.13-.6-.63-2.43.15-1.77.85Z"/><path class="cls-5" d="M225.89,58.9l1.43.48c.33.11,4.06,2.34,2.22,2.46a16.5,16.5,0,0,0-2.73.25c-.21,0-1.32.55-.69.79,1.94.73.08,1.18-.72,2.41-.23.35.2.43.49.42,1,0-1.41,2.14-1.49,2.23-.21.26,0,.37.28.42,2.27.42-.08,3.74-.4,4.43a.17.17,0,0,0,.05.2c1.69,1.11,1.19,2.4.94,4.06,0,.15,0,.22.17.27.49.18.15,4.11.52,4.86.28.56,2.14-.09,1.93-.51-.81-1.63-.23-2.87.43-4.49.06-.13-.07-.22-.18-.26-1.19-.45-.67-2.27-.72-3.2a3.36,3.36,0,0,0-.43-.87c-1.16-.76.84-3.69,1.15-4.38a.17.17,0,0,0,0-.2c-1.81-1-1.7-1.25.61-2.74.2-.12.33-.4,0-.49-1.3-.4-2.37-.2.65-1.67.22-.11.62-.45.21-.61l-1.9-.71-.68.79c1.62-.36,3.78.29,5.06-1.16,1.68-1.91-3.81-3.33-4.61-3.61-.49-.17-2.24.6-1.57.83Z"/><path class="cls-5" d="M227.43,84c1.38,5.29,1.68,10.7,2.45,16.09.84,5.92,2.57,11.17,1.23,17.23-.92,4.13-2.55,7.84-3.13,12.07-.29,2.05-.08,4.08-.44,6.14s-2.15,3.88-3.27,5.67c-2.52,4-4.58,8.47-6.91,12.63-2.43,4.33-6.2,7.46-8.93,11.56s-4.77,8.63-8.23,12.46a36.89,36.89,0,0,0-3.53,3.86c-1.34,1.93-1.57,4.68-2.57,6.81l1.86-.5a6,6,0,0,1-2.13-1.23c-.43-.31-1.59.11-1.86.5a13.51,13.51,0,0,0-1.52,2.89c-.13.34,1.71.15,1.91-.34a12.67,12.67,0,0,1,1.52-2.89l-1.87.5a6,6,0,0,0,2.13,1.23c.44.19,1.64,0,1.87-.5a50.35,50.35,0,0,0,1.94-5.49c.84-2.52,3.24-4.15,5-6.05,2.79-3.08,4.65-6.79,6.7-10.37,2.39-4.17,6.16-7.18,8.8-11.16,3-4.48,5.15-9.56,7.77-14.25,1.9-3.41,3.5-5.34,3.62-9.35.16-5.76,2.36-10.65,3.58-16.15,1-4.49-.18-9.62-1.24-14-1.43-5.88-1.23-12-2.77-17.9-.11-.44-2.05.08-1.93.51Z"/><path class="cls-5" d="M99.44,141.53c-1.47,1.52-2.78,3.63-2.67,5.8,0,.86,1.7,1.27,1.31,2.1-.82,1.77-2.11,3-2.67,5,0,.14,0,.18.17.22.92.35.18,1.22-.06,2a5.32,5.32,0,0,0,.06,3.11c.13.46,2.06-.06,1.93-.52a7.62,7.62,0,0,1,.57-4.88c0-.13-.06-.17-.17-.21-1.36-.51,2.06-5,2.45-5.84.06-.13-.06-.2-.16-.22-3.31-.87-.38-5.27,1-6.69.43-.44-1.42-.21-1.75.13Z"/><path class="cls-5" d="M115.9,79.39c-9.09,9.7-18.77,18.87-25.9,30.18-6.2,9.83-13.5,21.51-14.89,33.29,0,.15,0,.21.17.27l.38.14a1.84,1.84,0,0,0,1.67-.45,6.83,6.83,0,0,0,1.83-2.48l-1.92.3c-1.34,3.19-3.89,6.82-2.58,10.38.21.55,2.12,0,1.94-.52-1.28-3.46,1.26-7.06,2.56-10.16.21-.51-1.66-.15-1.92.3-.25,2.1-.27,2.31-.06.61a25.13,25.13,0,0,1,1.11-4.34c.9-2.94,2.15-5.78,3.25-8.64,2.37-6.16,6.25-11.6,9.4-17.36,6.63-12.1,17.4-21.64,26.73-31.58.48-.52-1.41-.32-1.77.06Z"/><path class="cls-5" d="M72.12,177.16c-1.78,6.48-1.66,13.3-1.65,20,0,8.78-1.51,17.34,1.3,25.86.23.71,1.75.14,1.93-.38,2-5.92,2.63-12.2,4.67-18.13l-1.93.24c-.62,2.86.21,5.6.32,8.48,0,.72,1.75.05,1.93-.38l1.45-2.75-1.8.36c1.33,1.88,1.11,4,1.49,6.09.12.67,1.65.13,1.86-.24.42-.71.83-1.42,1.24-2.13l-1.87.24c.19,3.87-.53,7.5,1,11.17.26.63,1.39.17,1.74-.1a27.82,27.82,0,0,0,2.52-2.08c.8-.79-1.1-.75-1.55-.31a26.5,26.5,0,0,1-2.52,2.08l1.74-.1c-1.48-3.61-.79-7.39-1-11.18,0-.68-1.67-.1-1.87.24l-1.23,2.13,1.86-.24c-.41-2.3-.24-4.37-1.62-6.33-.35-.49-1.54,0-1.8.36a9.47,9.47,0,0,0-1.58,3l1.93-.38c-.1-2.75-.91-5.47-.32-8.2.16-.76-1.73-.34-1.93.24-2,5.93-2.63,12.21-4.67,18.14l1.93-.38c-2.52-7.67-1.29-15.1-1.29-23,0-7.51-.37-15.28,1.64-22.59.19-.7-1.75-.42-1.93.24Z"/><path class="cls-5" d="M95.2,185.8c-.92,6.13-.61,12.32-1,18.49-.42,6.68-1.15,13.39-2,20-1.57,12.94-3.8,26.34-8,38.69-1.69,5-4.75,10.13-5.64,15.29-.43,2.52.37,3.52,2.57,4.59,5.49,2.66,1.7,9.65-.21,13.57-2.18,4.48-6.39,6.34-9.2,10.19a.62.62,0,0,0,.27,1c4.87,1.49,10.16,2,14.5,4.83,6.17,4,8.25,12.56,9.06,19.36.55,4.64,7.66,12.68,11.32,6,1.75-3.21,2-7.12,4-10.18,3.65-5.57,7.88,6.77,11.62,5.77,3.29-.88,0-8.77-.45-10.36-2.26-7.26.15-14-.85-21.29l-1.51.95c1.35.63,4.06,2.93,5.77,2.16,2.29-1,2.12-2.81,1.76-5.1-1.92-12.18.63-24.77,1.39-37,.39-6.22,1-12.27,3-18.21,2-5.75,5.14-11.14,7.27-16.87,3.55-9.55,5.82-22,12.77-29.71.65-.72-.43-1.15-1-1a3.54,3.54,0,0,0-1.51.7c-1.09.72.48,1.51,1.31,1l.58-.24-1-1c-5.31,5.9-7.1,13.93-9.76,21.2-1.94,5.3-3.81,10.64-6,15.86-1.85,4.47-4.44,8.58-5.63,13.31-2.59,10.3-2.65,21.46-3.53,32a116.19,116.19,0,0,0-.42,15.94c.12,2.19.61,4.33.77,6.52s-4-.55-4.74-.89-1.61.2-1.51.94c.84,6.14-1.33,12-.06,18.11.56,2.7,1.61,5.31,2.28,8,1.67,6.7-1.62,1-3.31-.94-4.66-5.5-9.16-1.29-10.86,3.9-1.21,3.71-2.49,9.75-7.42,5.4-2.4-2.11-2.4-5.27-2.75-8.13a25.17,25.17,0,0,0-2.3-8c-2.13-4.39-4.48-8.09-8.83-10.48-3.5-1.92-7.8-2.41-11.6-3.46-1.07-.29,3.44-3.64,4-4.11A14.47,14.47,0,0,0,82,298.22,32.32,32.32,0,0,0,86,287.67a5.71,5.71,0,0,0-3.07-5.8c-3.19-1.65-2.47-3.53-1.32-6.58l3.89-10.35c4.46-11.84,6.36-24.66,8.23-37.11,1-6.63,1.54-13.32,2.12-20,.64-7.37.22-14.84,1.32-22.15.16-1-1.82-.81-2,.12Z"/><path class="cls-5" d="M98.24,190.47c-.75,4.29.12,8.55-.16,12.87-.23,3.63-.41,7.28,1.31,10.6.32.61,1.53.06,1.86-.27,2-2,3-4.61,4.06-7.27l-1.93.27c-.8,3.35-1.65,6.62-1.15,10.07.09.67,1.63,0,1.85-.27a20.38,20.38,0,0,0,2.71-3.74l-1.86.27c0,5.15-1.18,10.1-1.86,15.17-.1.76,1.61.16,1.85-.15,2.53-3.23,4.76-6.63,7.8-9.42l-1.73,0a28.73,28.73,0,0,1-1.37,5.48c-.73,2.25-.53,4.68-1.16,7-.2.72,1.62.14,1.86-.15,1.44-1.77,2.66-4.11,4.77-5.19l-1.56,0c0,2.77-.92,5.32-1.33,8-.12.77,1.61.14,1.85-.15,2.8-3.24,4.94-7,8.32-9.66l-1.73,0c-.23,2.49-.82,4.9-1,7.39-.07.78,1.6.14,1.85-.15,1.39-1.56,2.68-3.27,4.65-4.19l-1.34-.08c.21,2.4-.31,4.66-.52,7-.07.73,1.62.21,1.85-.15a34.29,34.29,0,0,1,8-8.91l-1.72,0c-.34,2-.67,4.08-1,6.11-.12.73,1.62.19,1.85-.15a40,40,0,0,0,4.21-9.15,85.15,85.15,0,0,1,5.74-11.46c.25-.46-1.61-.29-1.92.27a96.51,96.51,0,0,0-5.23,10.1c-1.42,3.51-2.42,7.1-4.58,10.26l1.85-.14c.34-2,.67-4.07,1-6.11.12-.73-1.49-.16-1.73,0a35,35,0,0,0-8.28,9.16l1.85-.15c.22-2.45.74-4.8.54-7.27,0-.45-1.14-.17-1.34-.08-2.41,1.13-3.93,2.9-5.69,4.89l1.85-.15c.23-2.48.83-4.9,1.06-7.38.06-.74-1.46-.19-1.73,0-3.48,2.78-5.69,6.57-8.57,9.91l1.85-.14c.43-2.81,1.33-5.42,1.35-8.27,0-.53-1.38-.06-1.56,0-2.44,1.25-3.68,3.61-5.38,5.68l1.86-.15a38.09,38.09,0,0,0,.86-5.73c.27-2.29,1.38-4.39,1.66-6.72.09-.71-1.47-.21-1.72,0-3.13,2.88-5.45,6.36-8,9.68l1.85-.14c.69-5.16,1.88-10.19,1.87-15.42,0-.59-1.67,0-1.85.27a20.38,20.38,0,0,1-2.71,3.74l1.86-.27c-.48-3.37.36-6.57,1.15-9.82.16-.67-1.73-.25-1.93.27-1,2.56-1.94,5-3.91,7l1.85-.27c-1.89-3.64-1.48-7.67-1.23-11.65s-.61-7.67.08-11.57c.11-.67-1.82-.32-1.93.27Z"/><path class="cls-5" d="M106.67,232.77c-2.9,1.94-2.65,9.83-3,12.87-1.25,9.83-4.61,19.34-6,29.17-1.67,11.46-1.55,23.13-1.32,34.68.11,5.49.21,11,.2,16.46,0,2.73-.32,6.58.73,9.16a.64.64,0,0,0,.61.39H98c.86,0,2-1.28.7-1.3s-.16-50.91.33-55.71c1.05-10.36,3.91-20.44,6.19-30.57.47-2.09.56-4.33.85-6.45.22-1.58.33-6.95,1.81-7.94,1.09-.73-.53-1.26-1.25-.77Z"/><path class="cls-5" d="M113.38,234.3c-3.71,3.84-3.78,10.72-4.45,15.7-1.41,10.58-2.83,21.24-3.19,31.91-.38,11.23-3,22.15-4.25,33.28-.62,5.33-.86,10.83-1,16.2-.07,3.1-.11,6.79,1.17,9.65.28.65,2.18,0,1.93-.51-1.46-3.28-1.21-7.62-1.13-11.14.11-4.8.46-9.68.94-14.46,1-9.89,3.32-19.57,4.08-29.49.8-10.4,1.57-20.71,2.75-31.08.64-5.68.49-15.46,4.67-19.78.78-.8-1.12-.71-1.54-.28Z"/><path class="cls-5" d="M72.14,306.84c-.49.48-4.1,2.33-3.23,2.65a1.26,1.26,0,0,0-1.48.55c-1.38,3.23,2.26,4.31,4.76,4.9a62.88,62.88,0,0,0,6.56,1c4,.5,6.1,2.95,8.21,6.26,4.25,6.64,4.63,15.18,3.86,22.77-.65,6.31,4.27,6.27,9,8.11,4.4,1.71,6.12-.3,7.13-4.51.65-2.7.69-5,2.13-7.52a35.39,35.39,0,0,0,1.92-5.18c1.7-4.56,5.7,3.7,6.49,5.12,1,1.8,3.92,6.18,6.56,3.83,4.87-4.32,1.44-11.84-.11-16.94-.27-.89-2.2-.36-1.93.52.85,2.79,1.76,5.55,2.34,8.41,0,.09,1,9-2.54,6.73-1.11-.7-1.89-2.31-2.55-3.4-1.39-2.33-2.94-7.44-6.09-7.82s-4.15,3.53-4.82,5.68c-1,3.34-2.81,5.59-3.2,9.11-.19,1.79,0,5.8-3.18,5-1.5-.37-2.94-1.11-4.42-1.58-3.57-1.11-5-1.8-4.77-5.74a74.63,74.63,0,0,0,.27-8.85,34.44,34.44,0,0,0-4.32-14.62c-1.7-3-4.26-6-7.78-6.6-2.26-.39-13.3-.65-11.67-4.47l-1.48.54.37.14a1.33,1.33,0,0,0,1.37-.37c1.16-1.31,3-1.93,4.22-3.16.86-.86-1-1.18-1.62-.57Z"/><path class="cls-5" d="M125.47,167.41c-6.42-2.45-12.75-5.15-19.31-7.27-6-1.93-12.45-1.63-18.49-3.82-6.41-2.32-12.29-5.83-18.53-8.53-6-2.6-12.26-4.64-18.31-7.19-.73-.3-2.25.74-1.14,1.21,6.54,2.75,13.31,4.9,19.76,7.86,5.7,2.62,11.23,5.55,17.08,7.86s12.26,2.62,18.49,3.82c6.55,1.25,13.1,4.89,19.31,7.27.74.28,2.26-.78,1.14-1.21Z"/><path class="cls-5" d="M33.92,149.3c14.83,5.6,27.49,15.2,42,21.51,16.48,7.16,34.21,10,51,16.13.8.29,2.27-.86,1.12-1.28-16.82-6.1-34.45-9.15-51-16.12C62.44,163.38,49.91,153.63,35,148c-.8-.3-2.26.84-1.12,1.27Z"/><path class="cls-5" d="M134.43,188.84c7.65,3.1,15.76,4.66,23.66,7,8.18,2.39,15.36,7,23.37,9.84,6.08,2.13,12.43,1.62,18.6.28,7-1.51,15.87-5.42,22.89-2.76L224.1,202l-.46-.17c-.72-.27-2.26.76-1.15,1.18l.46.18c.72.27,2.27-.77,1.15-1.19-4.37-1.65-9-.64-13.48.26-9.58,1.91-18.25,5.1-28,2.23-8.1-2.39-15.26-7.32-23.38-9.84-7.87-2.45-16-3.85-23.65-7-.71-.29-2.25.73-1.15,1.18Z"/><path class="cls-5" d="M143.82,175.89c3.1,1.32,5.78,3.18,9.12,3.85,4.34.88,8.4,1.33,12.23,3.76.51.32,2.3-.43,1.54-.92a24.86,24.86,0,0,0-9.83-3.37c-4.38-.74-7.54-2.54-11.52-4.24-.56-.24-2.33.59-1.54.92Z"/><path class="cls-5" d="M189.83,187.9l-.29-.11-1.59.76a27.27,27.27,0,0,0,13.39,1.55c7.64-.73,15.42-.38,22.61,2.5.39.15,1.58-.11,1.74-.55l.43-1.14c.14-.38-1.72-.17-1.91.33l-.43,1.14,1.75-.55A42.7,42.7,0,0,0,208.86,189c-6.7.11-12.87,1.25-19.32-1.18-.45-.17-2.19.53-1.59.76l.3.11c.44.17,2.18-.54,1.58-.76Z"/><path class="cls-5" d="M65.69,151.39l-1,.47c-.07,0-.5.27-.4.42a12.08,12.08,0,0,0,5.53,4.32c.46.18,2.21-.54,1.57-.8a11.35,11.35,0,0,1-5.16-4l-.4.43,1-.47c.19-.09.65-.44.22-.56a2,2,0,0,0-1.35.23Z"/><path class="cls-5" d="M65.05,154.75c.18,1.15,1.44,1.88,1.93,2.89.28.55,2.14-.1,1.94-.52a6.92,6.92,0,0,0-1-1.4,3.17,3.17,0,0,1-.93-1.49c-.09-.51-2-.06-1.93.52Z"/><path class="cls-5" d="M63.53,156.15c-.6-.21-1.81-.16-1.89.7,0,.47.36.89.55,1.28s1,.31,1.31.15.67-.57.45-1c-.06-.13-.14-.26-.22-.4a1.74,1.74,0,0,0-.11-.18c-.09-.15,0-.07,0,0s-.12.24-.17.36l0,0-.63.38h0l-.52,0s.08,0,.07,0a1.32,1.32,0,0,0,1.37-.36.57.57,0,0,0-.26-.95Z"/><path class="cls-5" d="M61.87,157.44c1.31,2.47,5.13,2.51,7.55,2.89.48.08,2.25-.72,1.22-.88-2.12-.34-5.68-.35-6.84-2.53-.29-.55-2.14.13-1.93.52Z"/><path class="cls-5" d="M90.4,160.49a8.28,8.28,0,0,1,5.53,2.1l.51-.81c-1.35.52-3.16-.22-4.52-.46a1.43,1.43,0,0,0-1.55.66c-.05.12-.1.25-.14.38a.27.27,0,0,0,.07.26,5.71,5.71,0,0,0,4.55,1.6c.65-.1,1.75-1.07.5-1.12a11.67,11.67,0,0,0-4.74.38c-.89.34-.58,1,.26,1,1.46-.08,2.75.74,4,1.26a1.62,1.62,0,0,0,1.37-.17c.24-.15.61-.61.16-.79-1.8-.71-3.33-1.52-5.32-1.41.08.33.17.65.26,1a8.49,8.49,0,0,1,3.22-.09c.17-.37.33-.75.5-1.12-.61.09-3.11-.56-2.81-1.36l-1.55.65c2.2.39,4.29,1.06,6.47.22.21-.08.84-.51.5-.8a9.94,9.94,0,0,0-6.58-2.47,1.53,1.53,0,0,0-1.27.54c-.25.38.21.59.53.6Z"/><path class="cls-5" d="M109,173.23a20,20,0,0,0,6.34,3.26c.78.3,2.27-.82,1.13-1.25a19,19,0,0,1-6-3.1c-.61-.53-2.32.37-1.5,1.09Z"/><path class="cls-5" d="M108.38,175.52c.59,1.19,1.91,1.68,3.07,2.12a1.33,1.33,0,0,0,1.37-.37.55.55,0,0,0-.25-.92,3.86,3.86,0,0,1-2.42-1.67c-.37-.76-2.22-.06-1.77.84Z"/><path class="cls-5" d="M105.62,174.19c-.42-.09-.89,0-1.28-.05s-1.28,0-1.49.53c0,.13-.09.26-.14.38a.5.5,0,0,0,.35.71c1.26.45,2.83.63,3.7,1.74.51.64,2.36-.09,1.78-.83-1.06-1.34-2.82-1.6-4.34-2.15.11.24.23.47.35.71,0-.13.09-.26.14-.38l-1.48.53c.42.09.88,0,1.28.05a1.42,1.42,0,0,0,1.36-.37.5.5,0,0,0-.23-.87Z"/><path class="cls-5" d="M101.27,176l7.19,2.71c.81.3,2.27-.85,1.12-1.29l-7.19-2.71c-.8-.3-2.26.86-1.12,1.29Z"/><path class="cls-5" d="M79.77,171.75c3.17.37,5.94,2.22,8.86,3.37.84.33,2.26-.87,1.11-1.33-3.08-1.21-6-3.08-9.31-3.47-1-.12-2,1.28-.66,1.43Z"/><path class="cls-5" d="M84.4,172.47c2.48,1.55,5.22,3.24,8.21,2.11,1.28-.49.07-.81-.69-.52-1,.36-2.41-.42-3.24-.83s-1.66-.94-2.46-1.44c-.5-.31-2.14.48-1.82.68Z"/><path class="cls-5" d="M89.9,172.84A24.39,24.39,0,0,0,96.27,177c.54.21,2.31-.6,1.55-.9a23.33,23.33,0,0,1-6.12-4c-.5-.41-2.28.34-1.8.74Z"/><path class="cls-5" d="M94,175.79l10.22,3.85c.77.29,2.27-.81,1.14-1.24L95.1,174.55c-.76-.28-2.26.82-1.13,1.24Z"/><path class="cls-5" d="M153.73,187.33c2.19.88,4.16,2.39,6.6,2.45a2.53,2.53,0,0,0,1.37-.36c.3-.2.26-.44-.12-.45-2.26-.05-4.22-1.58-6.27-2.4-.43-.17-2.18.53-1.58.76Z"/><path class="cls-5" d="M152.9,186.22c2.35.91,5.89,2.36,7.68-.34.47-.72-1.46-.51-1.79,0-.86,1.29-3.23-.11-4.35-.54-.55-.22-2.32.6-1.54.9Z"/><path class="cls-5" d="M158,184l-1.14-.43a1.68,1.68,0,0,0-1.36.19c-.23.13-.62.56-.18.72l2.65,1c.39.15,1.91,0,1.73-.71a6.59,6.59,0,0,0-3.36-4.42l-1.54.91a9,9,0,0,0,5.11.3c.26-.06.95-.34.84-.72s-.82-.26-1.09-.21a5.89,5.89,0,0,1-3.32-.28,1.67,1.67,0,0,0-1.36.19c-.24.14-.61.54-.18.72a6,6,0,0,1,3,4l1.74-.71-2.65-1-1.54.91,1.13.43a1.7,1.7,0,0,0,1.37-.19c.23-.13.62-.56.18-.72Z"/><path class="cls-5" d="M159.09,181.14l4.16,1.57c.45.17,2.2-.54,1.58-.77l-4.16-1.57c-.45-.17-2.2.54-1.58.77Z"/><path class="cls-5" d="M193.64,200.92c-.27-.49-.58-.31-.91.53a5.75,5.75,0,0,1,.83.14,8.21,8.21,0,0,0,1.63.23c2,0,3.72.28,5.71-.23,1.21-.31.83-1.7-.37-1.39a16.51,16.51,0,0,1-6.89-.18c-1.16-.19-2.84.46-1.76,1.77.59.71,2.42-.08,1.76-.87Z"/><path class="cls-5" d="M191.34,202.35a64.33,64.33,0,0,0,8.2-.48c.91-.1,1.62-1.15.28-1a58.59,58.59,0,0,1-7.72.45c-.69,0-2.07,1-.76,1Z"/><path class="cls-5" d="M190.85,203c.68,1.6,3,1.36,4.37,1.2a22.13,22.13,0,0,0,6.39-1.7c1.22-.53.13-1.51-.84-1.09-1.17.5-7.28,2.74-8,1.08-.36-.84-2.27-.28-1.93.51Z"/><path class="cls-5" d="M192.11,205.59a51.62,51.62,0,0,0,10.06-2c1.17-.31.9-1.29-.26-1a49.39,49.39,0,0,1-9.54,1.87c-1,.06-1.6,1.17-.26,1.09Z"/><path class="cls-5" d="M206,204.53a53.15,53.15,0,0,0,11.58-1.4c1.23-.25.83-1.64-.38-1.4A50.19,50.19,0,0,1,206.19,203c-1.14,0-1.46,1.47-.15,1.49Z"/><path class="cls-5" d="M212,202.94c2.33.3,4.6-.41,6.92-.51,1.1,0,1.49-1.47.17-1.42-2.14.09-4.28.79-6.43.52-1-.12-2,1.25-.66,1.41Z"/><path class="cls-5" d="M206.39,196.75c2.37-.12,4.53-1,6.83-1.44.35-.06,1-.2,1.11-.6s-.62-.36-.81-.33c-2.11.42-4.18,1.29-6.34,1.39a1.77,1.77,0,0,0-1.28.51c-.29.35.24.48.49.47Z"/><path class="cls-5" d="M210.07,194.64c.79-.09,1.54-.33,2.32-.42.37,0,1-.24,1.1-.67s-.58-.48-.84-.45c-.79.1-1.54.34-2.32.43-.37,0-1,.24-1.1.67s.58.48.84.44Z"/><path class="cls-5" d="M214.41,193.45l2.27.86a1.45,1.45,0,0,0,1.37-.37c.32-.33.17-.67-.22-.82l-2.27-.85a1.42,1.42,0,0,0-1.37.36c-.32.33-.17.68.22.82Z"/><path class="cls-5" d="M226.37,194.88c.43.07.86,0,1.28.05,0-.28,0-.56,0-.84-.6.34-1.08,1-1.76,1.13s-1.29,1.11-.24,1.06c.86,0,1.7.14,2.56.1l-.53-.59c-.87,1-1.93,1.82-2.8,2.83a.33.33,0,0,0,.14.51,6,6,0,0,1,1.85,1.52c.48.51,2.32-.21,1.79-.77a6.79,6.79,0,0,0-2.11-1.7c0,.16.09.33.13.5.87-1,1.93-1.82,2.8-2.83.3-.36-.25-.61-.53-.6-.86,0-1.7-.13-2.56-.09-.08.35-.15.7-.23,1.06a9.53,9.53,0,0,0,2.69-1.52c.38-.22.56-.75,0-.84s-.86,0-1.28-.05a1.7,1.7,0,0,0-1.37.37c-.28.26-.22.64.19.7Z"/><path class="cls-5" d="M227.38,192.9a3.39,3.39,0,0,0-3.57-1c-.31.12-.77.55-.48.9s.92.24,1.3.09a2.16,2.16,0,0,0-.26.08,1.83,1.83,0,0,1,.45.15,2.48,2.48,0,0,1,.78.54c.55.56,2.39-.19,1.78-.81Z"/><path class="cls-5" d="M50.7,143.33l-1.05.47c-.21.1-1,.57-.41.78a4.57,4.57,0,0,0,3.71,0c.21-.1,1-.58.4-.79a5.48,5.48,0,0,0-4.08-.14c-.2.07-.82.4-.53.7,1.2,1.24,2.78,2,4,3.23l1.29-.86a28.56,28.56,0,0,0-3.7,0c-.27,0-1.63.57-.92.92.5.25.87.7,1.37,1s2.3-.51,1.56-.88c-.5-.25-.87-.7-1.38-.95-.3.31-.61.61-.92.92a24.72,24.72,0,0,1,3.22,0c.25,0,1.76-.38,1.29-.87-1.2-1.23-2.78-2-4-3.22l-.53.7a2.91,2.91,0,0,1,1.79.34l.41-.78c-.52.22-.91,0-1.41-.2l-.41.79,1-.48c.18-.08.85-.41.53-.7s-1-.13-1.26,0Z"/><path class="cls-5" d="M174.51,85.62c2.09,3.49,6.79-.75,7.81-3l-1.89,0c-.51,3.81-2.55,8.55-.36,12.13.43.72,2.28,0,1.77-.84-2-3.23.08-8,.54-11.44.13-1-1.62-.63-1.9,0-.53,1.18-3,4.45-4.2,2.4-.43-.73-2.28,0-1.77.84Z"/><path class="cls-5" d="M184.68,95.17c-.33.88-.67,1.91.4,2.38a1.7,1.7,0,0,0,1.37-.19c.24-.14.6-.51.18-.7-.69-.31-.21-1.26,0-1.76s-.64-.39-.82-.36c-.38,0-1,.22-1.11.63Z"/><path class="cls-5" d="M185.21,94.65c2.14,1.44,2.72,4.17,4.72,5.67s4.85.24,6.8-1c1.1-.71-.56-1.09-1.23-.67-1,.66-2.33,1.61-3.57,1a5.19,5.19,0,0,1-1.75-1.94,12.82,12.82,0,0,0-3.45-4c-.57-.39-2.34.43-1.52,1Z"/><path class="cls-5" d="M219.16,96.18c-.62,4.62.39,9.24-.23,13.86-.11.8,1.84.45,1.93-.23.62-4.62-.38-9.25.24-13.86.11-.8-1.84-.46-1.94.23Z"/><path class="cls-5" d="M216,110c-.77,2-1.53,4.08-2.3,6.11-.15.41,1.72.2,1.91-.32l2.3-6.11c.15-.41-1.71-.19-1.91.32Z"/><path class="cls-5" d="M210,115.55a10.34,10.34,0,0,0-2.59,4.13c-.13.34,1.72.15,1.9-.34a9.91,9.91,0,0,1,2.44-3.94c.32-.3-.28-.32-.45-.3a2.32,2.32,0,0,0-1.3.45Z"/><path class="cls-5" d="M175.51,127.32l-1,2.62c-.32.85.83.92,1.36.7,1.74-.75,3.53-1,5-2.31,1-.86-.54-1.56-1.28-.91-1.34,1.17-3,1.38-4.6,2l1.36.7,1-2.62c.39-1-1.55-1-1.85-.23Z"/><path class="cls-5" d="M178.26,126.94c1,.27,2-.15,3,.11-.14-.16-.27-.33-.4-.49-.08,2.37-.13,5.54,3,5.33,1-.07,1.54-1.34.21-1.25-1.68.11-1.34-3.32-1.31-4.27a.48.48,0,0,0-.4-.5c-1-.27-2,.14-2.94-.11-.73-.2-2.29.87-1.15,1.18Z"/><path class="cls-5" d="M201.9,139c1.75-2.29,2.95-4.92,4.7-7.2l-1.78-.06c.6,2.87.63,5.89,1.73,8.63.31.75,1.63.59,1.9-.13a43.8,43.8,0,0,0,1.82-5.8c.47-2.12,1.16-4.57,2.67-6.24.83-.91-1-1.3-1.64-.62-3.1,3.41-3.14,8.2-4.71,12.4l1.89-.13c-1.1-2.74-1.12-5.76-1.73-8.62-.16-.78-1.43-.51-1.78-.06-1.75,2.29-3,4.92-4.7,7.2-.76,1,1.06,1.37,1.63.63Z"/><path class="cls-5" d="M120.28,155.27a6.69,6.69,0,0,0-2.16,5.63c0,.61,2,.2,1.93-.51a5.8,5.8,0,0,1,1.77-4.84c.81-.77-1.1-.7-1.54-.28Z"/><path class="cls-5" d="M120.09,155.52c-.69,1.92-1.57,5.48.85,6.6.61.28,2.37-.59,1.53-1-2-.93-1-4.29-.45-5.84.26-.71-1.69-.46-1.93.22Z"/><path class="cls-5" d="M120.63,156.87c.22,2.07.44,4.15.65,6.22,0,.19.25.29.4.34l.87.33a1.45,1.45,0,0,0,1.36-.36c1.36-1.21,2.9-2.18,4.26-3.38l-1.7-.31c-1.58,2.19-.63,3.83-.28,6.23.11.79,2.05.32,1.93-.52-.31-2.1-1.24-3.61.17-5.56.62-.86-1.33-.64-1.7-.31-1.36,1.21-2.91,2.17-4.27,3.38l1.37-.37-.74-.27c.3.11,0-1.72,0-1.79-.15-1.38-.29-2.77-.43-4.15-.09-.79-2-.33-1.94.52Z"/><path class="cls-5" d="M147.56,164.77c-1.53,1.49-2.66,4-1.13,5.86.34.41,2.18-.25,1.82-.69-1.37-1.65-.25-4,1.07-5.26.33-.32-.28-.4-.48-.39a2,2,0,0,0-1.28.48Z"/><path class="cls-5" d="M147.69,167.06c.21,2.07.43,4.15.64,6.22.08.73,1.66.15,1.87-.22.86-1.46,2.61-2.1,3.39-3.71l-1.87.08c-.91,2.41-1.88,4.83-1.75,7.45,0,.72,1.51.12,1.74-.07,1.56-1.27,3.56-1.77,5.14-3.05l-1.75-.07c-1,2.58-1.42,4.66,1.9,4.94.79.07,2-1,.74-1.16-2.47-.21-1.26-2.52-.71-4,.31-.8-1.52-.26-1.75-.07-1.56,1.27-3.56,1.77-5.13,3.05l1.75-.08c-.12-2.48.9-4.87,1.76-7.16.26-.7-1.62-.45-1.88.07-.78,1.62-2.52,2.23-3.39,3.71l1.87-.22c-.21-2.07-.42-4.15-.64-6.22-.07-.69-2-.26-1.93.52Z"/><path class="cls-5" d="M161,173.94c-.49,1.3-1,2.58-.45,3.94.22.51,1.23.12,1.55,0,1.35-.65,2.17-1.95,3.24-2.95.79-.75-1.12-.6-1.52-.22-.93.87-1.72,2.15-2.89,2.71l1.55,0c-.54-1.29,0-2.46.44-3.7.2-.54-1.7-.3-1.92.28Z"/><path class="cls-5" d="M162.33,174.17c1.06-.39,2.21-.36,3.28-.76l-1.34-.11c.21,1.5,1,2.32,1.63,3.6.28.56,1.62.21,1.86-.25a4.13,4.13,0,0,1,2.21-1.6c1.23-.55.1-1.12-.75-.73-1.19.54-2.61,1.09-3.25,2.32l1.86-.25c-.63-1.27-1.43-2.14-1.63-3.61-.07-.48-1.11-.19-1.34-.11-1.05.39-2.21.36-3.28.76-1.27.47-.1,1.06.75.74Z"/><path class="cls-5" d="M169.83,174.4c.37.8.73,1.6,1.09,2.4.25.54,2.12-.1,1.93-.51l-1.08-2.41c-.25-.54-2.13.1-1.94.52Z"/><path class="cls-5" d="M133.82,196.8c-3,1.58-3.36,5.16-4.41,8.07-.25.68,1.69.44,1.93-.23.75-2.07,1.08-5.86,3.25-7,1.19-.61.1-1.3-.77-.85Z"/><path class="cls-5" d="M131.16,205.54c-1.43,3.63-3.35,6.9-3.08,10.93,0,.6,2,.2,1.93-.52-.27-3.92,1.69-7.14,3.07-10.67.24-.59-1.68-.36-1.92.26Z"/><path class="cls-5" d="M127.61,217.79a13.52,13.52,0,0,0-3,5.19c-.25.66,1.69.42,1.93-.23a11.88,11.88,0,0,1,2.66-4.62c.81-.79-1.09-.79-1.56-.34Z"/><path class="cls-5" d="M116.62,212.74c-2.54,1.92-3.8,4.51-4.9,7.43-.17.45,1.71.22,1.91-.31,1-2.69,2.13-5.2,4.5-7,.81-.61-1.13-.42-1.51-.14Z"/><path class="cls-5" d="M113.3,221.32a13.55,13.55,0,0,0-3,5.23c-.28.74,1.68.51,1.94-.2a11.79,11.79,0,0,1,2.67-4.59.45.45,0,0,0-.22-.8,1.48,1.48,0,0,0-1.36.36Z"/><path class="cls-5" d="M111.57,196.7a24.42,24.42,0,0,0-3.62,6.82c-.39,1,1.55,1,1.85.22a23.15,23.15,0,0,1,3.38-6.48c.77-1-1.07-1.24-1.61-.56Z"/><path class="cls-5" d="M107.64,199.2a11,11,0,0,0-2.8,7.34c-.06,1,1.9.73,2-.15.14-2.39.7-4.88,2.46-6.62.86-.85-1-1.17-1.61-.57Z"/><path class="cls-5" d="M112.37,133.7c-.11.29-.22.58-.32.88s.63.38.81.35c.38-.05,1-.22,1.11-.62l.33-.87c.15-.41-.64-.39-.82-.36-.38,0-1,.22-1.11.62Z"/><path class="cls-5" d="M96.07,116.11c-5.82,7.15-7.44,16.69-10.52,25.16-.39,1.06,1.55,1.08,1.85.24,3-8.3,4.59-17.79,10.29-24.8.78-1-1-1.3-1.62-.6Z"/><path class="cls-5" d="M94.71,122.79c-3.52,2.49-4.79,7.43-6,11.31-1.53,5-2.36,10.18-4.09,15.09-.15.43,1.73.2,1.91-.32,1.46-4.13,2.27-8.5,3.41-12.73s2.45-10.56,6.24-13.24c.81-.57-1.13-.36-1.49-.11Z"/><path class="cls-5" d="M94.74,124.79q-3.28,8.73-6.58,17.46l1.86.26,3-7.86c.4-1.07-1.54-1.11-1.86-.26q-2.62,7-5.26,14c-.38,1,1.3,1.07,1.75.45a32.44,32.44,0,0,0,3.94-7.71l-1.85-.26C87.76,146,86.15,151,85.8,156.51c-.06,1.05,1.91.81,2-.12.35-5.38,1.91-10.28,3.79-15.3C92,140,90,140,89.7,140.83A30.91,30.91,0,0,1,86,148.17l1.74.45q2.63-7,5.26-14l-1.86-.26q-1.47,3.93-3,7.86c-.4,1.07,1.54,1.11,1.86.26q3.28-8.73,6.58-17.46c.4-1.07-1.54-1.12-1.86-.26Z"/><path class="cls-5" d="M84.83,182.84c-2.1,6-4.28,13.09-4.33,19.51,0,1.06,2,.81,2-.13.05-6.3,2.16-13.19,4.23-19.11.38-1.09-1.55-1.14-1.86-.27Z"/><path class="cls-5" d="M87,182.81c-5.25,4.84-4.65,16.41-3.61,22.79.07.46,2,0,1.93-.51-1-6.32-1.71-17.63,3.44-22.38.45-.42-1.4-.23-1.76.1Z"/><path class="cls-5" d="M88.07,190.32c-2.48,6.92-3.24,14.12-4.07,21.38-.08.71,1.85.33,1.92-.27.83-7.26,1.59-14.46,4.07-21.38.21-.59-1.71-.34-1.92.27Z"/><path class="cls-5" d="M89.91,196c-3.23,6.4-3.51,13.93-2.87,21,0,.56,2,.15,1.93-.52-.64-7-.34-14.37,2.87-20.72.24-.48-1.64-.29-1.93.28Z"/><path class="cls-5" d="M185.07,19.37c-5.23.1-10.45.16-15.68,0-.91,0-2,1.31-.68,1.36,5.39.19,10.78.13,16.18,0,1.08,0,1.5-1.39.18-1.36Z"/><path class="cls-5" d="M175.7,23.68a83.12,83.12,0,0,0-11.16-.13c-1.1.1-1.48,1.57-.16,1.45a79,79,0,0,1,10.66.12c1,0,2-1.38.66-1.44Z"/><path class="cls-5" d="M174.79,25.39c-3.18-.12-6.39-.05-8.64,2.5-.83.93,1,1.34,1.63.64,1.74-2,4.48-1.72,6.86-1.63,1.15.05,1.45-1.46.15-1.51Z"/><path class="cls-5" d="M174,26.07c-3.92,2.92-8.88,3.4-13,5.87-1.11.67.63.68,1.14.38,4.28-2.55,9.33-3.07,13.4-6.1.82-.61-1.12-.44-1.51-.15Z"/><path class="cls-5" d="M167.64,31.19c-3.71.86-7.25,1.95-9.61,5.15-.13.18,1.57.12,1.91-.34,2-2.67,4.78-3.5,7.86-4.21,1.14-.27,1-.87-.16-.6Z"/><path class="cls-5" d="M165.86,34.88c-3.78,1.71-7.47,3.5-10.59,6.28-.38.34,1.41.12,1.74-.17a37.63,37.63,0,0,1,10-5.91c1.15-.53-.68-.4-1.1-.2Z"/><path class="cls-5" d="M165.5,39.17c-4.93,1.51-10,4.36-12.08,9.33-.27.64,1.66.42,1.93-.23,1.78-4.27,6.18-6.8,10.42-8.1,1.15-.35.89-1.36-.27-1Z"/><path class="cls-5" d="M159.24,47.68a18.23,18.23,0,0,0-10.15,7c-.58.81,1.39.78,1.84.16a15.59,15.59,0,0,1,8.64-5.9c1.19-.31.86-1.51-.33-1.21Z"/><path class="cls-5" d="M206.7,27.47c-1.91-.72-3.84-1.46-5.85-.7-.23.09-.81.46-.51.77s.93.16,1.28,0c1-.38,2.64.5,3.54.84a1.66,1.66,0,0,0,1.37-.18c.23-.14.61-.59.17-.76Z"/><path class="cls-5" d="M203.1,29.12l-1.47-.55-1.38.94c-.32-.07-.11,0,0,0l.45.17a1.68,1.68,0,0,0,1.36-.2c.23-.13.62-.53.19-.7a5.54,5.54,0,0,0-.78-.27,1.78,1.78,0,0,0-1.19.24c-.22.13-.62.54-.18.7l1.47.56a1.68,1.68,0,0,0,1.36-.2c.23-.13.62-.54.19-.7Z"/><path class="cls-5" d="M176.36,45l-1.74-.66a1.9,1.9,0,0,0-1.24.12s-.89.41-.59.52l1.75.66a1.91,1.91,0,0,0,1.24-.13s.89-.4.58-.51Z"/><path class="cls-5" d="M177.11,45.29c-.72-.3-1.3-.88-2-1.19a3.35,3.35,0,0,0-2.6,0c-.11,0-.87.37-.56.59s.94,0,1.25-.08c-.38,0-.43,0-.16.07l.33.11a5,5,0,0,1,.84.47,8.72,8.72,0,0,0,1.35.8,2,2,0,0,0,1.35-.24c.22-.11.61-.38.22-.55Z"/></svg>