<svg id="layer1" xmlns="http://www.w3.org/2000/svg" viewBox="0 0 247.01 407.03"><defs><style>.cls-1{fill:#277230;}.cls-2{fill:#a37241;}.cls-3{fill:#423407;}</style></defs><path class="cls-1" d="M231.74,155.94l-.06-.16a3.64,3.64,0,0,0-.3-2.33l-2.46-4.92a3,3,0,0,0-2.23-1.68c1.78-2.08,1.08-5.84-2.5-5.84h-.37c1.16-1.61.75-4.35-1.1-5.26-3-1.48-8.1-2.86-11.92-1.89h-.06a3.87,3.87,0,0,0-4.76-1.38l-1.11.5c.41-2.21-2-4.52-4.39-4.12a3.77,3.77,0,0,0-5.16-2.12,43.76,43.76,0,0,0-5.16,2.61,2.92,2.92,0,0,0-3.87-.15l-.73.52a3.16,3.16,0,0,0-4.19-.52c-2.15,1.55-4.28,3.13-6.32,4.81a3.41,3.41,0,0,0-4.34-.71c-1,.59-1.9,1.23-2.8,1.89a3.71,3.71,0,0,0-3.76-.25,48.34,48.34,0,0,0-8.85,5.68,3,3,0,0,0-3.06-.16A3.57,3.57,0,0,0,153,139c.17-.63.3-1.27.42-1.9.66-.16,1.32-.3,2-.43a4.14,4.14,0,0,0,.84-.09c1.12-.23,2.17-.59,3.29-.82a3,3,0,0,0,2.47-2.27,1.57,1.57,0,0,0,0-.23c0-.11.05-.23.06-.34a3.89,3.89,0,0,0-.07-1,69.14,69.14,0,0,1,7.47-3,31.93,31.93,0,0,0,8.06-2.18h0c0-.12.58-.22.86-.35a3,3,0,0,0,1.39-4.39l1.07-.53a3.21,3.21,0,0,0,1.64-3.78l1.3-.47a25.25,25.25,0,0,0,11-3.14,3.26,3.26,0,0,0,.87-5.21c1.34-.73,2.69-1.47,4.05-2.17a3.22,3.22,0,0,0,1.65-3.54c1.62-1,3.26-2,4.91-3a3.28,3.28,0,0,0,1.13-4.88A32.59,32.59,0,0,1,217.76,89a3.73,3.73,0,0,0,.58-6.75c1.65-3.41-3-7.26-5.7-4.16-.19.22-.35.45-.53.66a3.27,3.27,0,0,0-1.93,1c-.22.22-.41.45-.62.67a3.81,3.81,0,0,0-2.66,1A20.65,20.65,0,0,0,204,84.3a3.48,3.48,0,0,0-2.41-.81,3.54,3.54,0,0,0-5.91.24c-.57.93-1.08,1.89-1.56,2.85a3.49,3.49,0,0,0-1.91-.52c-2.5,0-4.27,1.64-5.55,4l-.18.17a3.48,3.48,0,0,0-2.54,1c-.3.28-.58.57-.87.85a3.71,3.71,0,0,0-3.79,1.51c-.54.75-1,1.51-1.54,2.28a3.46,3.46,0,0,0-6.2,1c-.49,1.35-.93,2.7-1.34,4.07a3.39,3.39,0,0,0-3.58,2.49c-.82,2.85-1.66,5.69-2.57,8.51-.67,1.13-1.34,2.42-2,3.55a3.3,3.3,0,0,0-3.45-2.87h-.82a3.46,3.46,0,0,0-1.16,0A3,3,0,0,0,154.3,115c-.45,1.9-.86,3.75-1.17,5.66a3.75,3.75,0,0,0-3.39,1.63c-.63.86-1.23,1.73-1.81,2.61a4.13,4.13,0,0,0-5.11,2.33,15.47,15.47,0,0,0-.76,3.22,3,3,0,0,0-2.52,2.52,28.44,28.44,0,0,1-1,3.55,3.23,3.23,0,0,0-4.78,2.19,25.35,25.35,0,0,0-.56,2.94c0,.12-.05.23-.08.35a3.9,3.9,0,0,0-3.37,1.18c.12-.74.26-1.49.4-2.23.35-.87.71-1.73,1.07-2.6,4.76-5.19,8.09-11.29,11.54-17.39a3.39,3.39,0,0,0,.28-3.1c.45-.61.9-1.22,1.36-1.82,1.46-2,.42-3.85-1.29-4.68.15-.36.32-.71.47-1.06a3.78,3.78,0,0,0,.2-2.54,58.74,58.74,0,0,1,7.44-11.5l0,0c.19-.24.4-.46.58-.71a2.8,2.8,0,0,0,.54-2.36c.37-.58.74-1.15,1.1-1.74a3.22,3.22,0,0,0,.46-2.23c1.48-1.81,3.06-3.55,4.72-5.25a3.59,3.59,0,0,0,1-3.19l6.14-8.19a3.33,3.33,0,0,0,.47-.89c2.63-1.82,5.39-3.45,8.09-5.21a3.44,3.44,0,0,0,1.52-2.07,3.23,3.23,0,0,0,.85-3.63c1-.88,1.94-1.74,3-2.53.42-.25.83-.51,1.23-.79a4.43,4.43,0,0,0,.46-.38c1.22-.66,2.44-1.36,3.65-2.08,4.07-2.44.51-8-3.62-6.18a22.5,22.5,0,0,0-4.1,2.32l-.53.14a3.42,3.42,0,0,0-1.76-.49,6.45,6.45,0,0,0-5.3,2.51c-1.63-1.22-4.19-1.16-5.22.89a3.2,3.2,0,0,0-2.78,2.51,40.58,40.58,0,0,1-2.35,6.64,3,3,0,0,0-4.06,1.88c-1.91-.93-4.6-.39-5.07,2.14-.23,1.26-.5,2.5-.79,3.74a3.53,3.53,0,0,0-1.06.9c-2.08-1.33-5.6-.38-5.66,2.87,0,1.88-.17,3.74-.38,5.57a3.44,3.44,0,0,0-3.71,3.38,3,3,0,0,0-2.34,2.4c-.53,2.72-1,5.46-1.41,8.19a3.85,3.85,0,0,0-3.47,2.67,3.63,3.63,0,0,0-5.09,3.22c0,3.08,0,6.17-.05,9.25a3,3,0,0,0-1.11,1.25,2.14,2.14,0,0,1-.1.22c.12-1.38.26-2.76.28-4.16,0-.85.25-1.62-.75-2.24v-2c1-.6.88-1.4.75-2.36a143.07,143.07,0,0,1-.85-18,3.28,3.28,0,0,0-2.53-3.3c-.12-.22-.26-.44-.38-.67.07-.58.13-1.17.2-1.76a3.4,3.4,0,0,0,1-2.47c.1-4.65.74-9.28.82-13.94a3.36,3.36,0,0,0-1.13-2.54,50.61,50.61,0,0,0,1.13-8.94,3.05,3.05,0,0,0-1.77-3.13c.26-1.11.53-2.21.82-3.3a3.68,3.68,0,0,0-3.91-4.51q0-2.32-.06-4.65c0-4-5.15-4.58-6.8-1.44a59.4,59.4,0,0,0-.71-6.07c-.45-2.61-2.91-3.07-4.8-2.15-.55-1.75-1.11-3.51-1.76-5.23-1.6-4.27-8-2.66-6.9,1.9,0,.06,0,.12,0,.18a3.45,3.45,0,0,0,0,2.28,49.81,49.81,0,0,0,2.61,6.83c.31.88.58,1.77.83,2.67a3.57,3.57,0,0,0-3.08,5.3c1.23,2.31,2.64,4.52,4,6.77.45,1.15.88,2.3,1.3,3.46a34.61,34.61,0,0,0,1.92,7.88,3.88,3.88,0,0,0-.19,2.36,49.71,49.71,0,0,0,1.75,6.33,3,3,0,0,0-.93,3.51,105.28,105.28,0,0,0,4.18,10,3.84,3.84,0,0,0-.08,1.44,39.11,39.11,0,0,0,1.34,5.9c0,1.55.1,3.09.17,4.63a3.91,3.91,0,0,0,3,3.36c.93,2.1,2,4.18,3,6.27v5.13c0,3.76-1.08,7.52-1.4,11.28a3.23,3.23,0,0,0-3.61,2.53,18.76,18.76,0,0,0-.49,2.82c-.22-.27-.47-.54-.7-.8a47.78,47.78,0,0,0-3-6.15,3.26,3.26,0,0,0-1.44-1.35,24.4,24.4,0,0,0-1.41-3.18,3,3,0,0,0,0-1c-1.17-9.14-5.34-16.47-11.71-23a3.36,3.36,0,0,0-1.45-.87A49.51,49.51,0,0,0,86.23,74l0-.06h0l-.55-.74c-2.54-3.21-7.13.67-5.74,4l-.82-.75L79,76.37a23.21,23.21,0,0,0-8-7.05c-3.45-1.74-7.62,2.88-4.34,5.62a34.93,34.93,0,0,1,4.55,4.55c1.53,2.92,3.21,5.75,4.73,8.67a3.09,3.09,0,0,0,1.86,1.58,98.52,98.52,0,0,0,6.91,9,2.89,2.89,0,0,0,2.51,1.11c.59,1,1.2,2.07,1.84,3.09a3.54,3.54,0,0,0,2,1.49,12.65,12.65,0,0,0,5,3.42,30.27,30.27,0,0,1,3.41,5.51c-3.14-.57-6.25,3.27-3.32,5.88s6.24,4.08,9,6.57a4.21,4.21,0,0,0,.61.43c.3,1.24.58,2.49.93,3.73a3.29,3.29,0,0,0,4.25,2.41c2,3.58,4,7.17,7.33,9.83a2.64,2.64,0,0,0,.35.23l.24,3.8a3.51,3.51,0,0,0,1.93,3,3.79,3.79,0,0,0,3.82,2.1,36.06,36.06,0,0,0,1.76,12.24,4,4,0,0,0,.3.62c-.14.13-.27.26-.4.4a20.1,20.1,0,0,1-2.38-3.78,3.11,3.11,0,0,0-2.14-1.68c-.21-.28-.4-.58-.62-.87a3.43,3.43,0,0,0-1.08-2.28l-2.46-2.46a3.41,3.41,0,0,0-.57-.45,20,20,0,0,1-1.79-2.35,2.94,2.94,0,0,0-.36-3c-.93-1.32-1.53-2.79-2.46-4.1a3.78,3.78,0,0,0-2.6-1.65,2.53,2.53,0,0,0-.13-.22,3.11,3.11,0,0,0-1.11-2.14c-.53-.47-1.06-.92-1.6-1.35a3.92,3.92,0,0,0-.86-3.57c-7.31-7.72-17.55-10.34-27-14.5a3.76,3.76,0,0,0-4.83,1.42c-.82-.08-1.64-.15-2.46-.2a18.82,18.82,0,0,0-11.74-2.53,4.27,4.27,0,0,0-3,1.59l-.53.05c-3.2-2.16-7-2.7-11.4-1.51a3.18,3.18,0,0,0-2.45,2.34,3.48,3.48,0,0,0-3.25,4.4,28.33,28.33,0,0,0-8.18,4.84c-2.11,1.78-1.19,4.16.63,5.29-1.3,1.06-2.62,2.14-4,3.17-3.61,2.69-.49,8.54,3.62,6.18,4.74-2.72,9.18-5.91,13.84-8.75a3.6,3.6,0,0,0,2.38,1,3.59,3.59,0,0,0,4.25,2.39c5.42-.91,10-3.65,14.78-6.12l.59.16c-2,2.05-.72,6.3,2.54,6.09,5.12-.34,10.17-1.2,15.28-1.61,1.7.41,3.4.93,5.09,1.48a3.93,3.93,0,0,0,1.24.15c.12.1.23.21.37.31a27.92,27.92,0,0,0,2.51,1.52,3.52,3.52,0,0,0,2.45,2.94,35.4,35.4,0,0,1,10,5.29,24.69,24.69,0,0,0,6,9.11c1.47,2,3,3.89,4.25,6a3.67,3.67,0,0,0-1.28-.36c-.76-.07-1.51-.11-2.27-.13a3.19,3.19,0,0,0-2.52-3.84c-1.94-.33-3.85-.77-5.76-1.26a3.37,3.37,0,0,0-4.34-2.84c-1.22.34-2.27.48-3.38.88l-1-.22-.17-.13a3.16,3.16,0,0,0-1.7-3.46,24.76,24.76,0,0,0-6.54-2l0,0v0c-.31,0-.62-.11-1-.14-2.9-.31-3.89,2.38-3.18,4.58l-4.2-.48a2.88,2.88,0,0,0-2.19.56c-.59-.14-1.18-.28-1.78-.44a3.66,3.66,0,0,0-4.45,3.68c-.53.24-1.06.5-1.59.79A3.09,3.09,0,0,0,68.1,163c-1,.09-2,.16-3,.19a3.58,3.58,0,0,0-2.36.88,41,41,0,0,0-12.54,2.53,3.78,3.78,0,0,0-2.27,4.86c-3,1.13-5.2,3.32-7.25,6.62a3.38,3.38,0,0,0,1,4.62A3,3,0,0,0,40.11,185c-2.09,3.07-3.38,6.93-5.2,10.33-1.54,2.87,1.85,7.24,4.9,4.9,5.39-4.16,9.23-9.74,13.43-15,1.24,1.69,3.73,2.47,5.34.51,1.31-1.6,2.58-3.24,3.86-4.88a3.67,3.67,0,0,0,2.7-.86c1.92-1.63,3.8-3.29,5.73-4.88a3.24,3.24,0,0,0,4.21.52c1.44-1,2.8-2.12,4.13-3.26a3.92,3.92,0,0,0,3.25,0,46.89,46.89,0,0,0,5-2.71,3.47,3.47,0,0,0,2.18.74,56.73,56.73,0,0,0,8.25-.43,18.73,18.73,0,0,0-1.76,1.7,2.19,2.19,0,0,0-.2.25c-.5.14-1,.3-1.51.47A3.59,3.59,0,0,0,92.7,178a32.19,32.19,0,0,0-5.55,5.11A3.66,3.66,0,0,0,86.3,185l-.07,0a12.57,12.57,0,0,0-2.53,1.59,38.12,38.12,0,0,0-3.94,3.07,3.45,3.45,0,0,0-.75,1l-.16.08c-2.81,1.44-1.88,5.46.5,6.49a15.55,15.55,0,0,1-2.87,3.1,2.88,2.88,0,0,0-1,2.85c-.77.6-1.54,1.21-2.29,1.84a23.71,23.71,0,0,0-2.17,2.2c-1.22,1.31-2.78,1.43-4.4,2-3.55,1.31-2.9,6.25-.09,7-.78.66-1.55,1.35-2.31,2.1-2.41,2.4,0,7.28,3.48,6,.71-.26,1.4-.55,2.09-.86a3.37,3.37,0,0,0,1.12.25,23.1,23.1,0,0,0-3.51,8.51,3.84,3.84,0,0,0,1,3.41,40.56,40.56,0,0,0,.6,5.88,3,3,0,0,0,3.15,2.54,51.15,51.15,0,0,0,1.77,13c1,3.81,7.51,3.14,7-.95-.5-4.28-1.21-8.6-1.43-12.93,2-.41,3.85-2.24,2.94-4.42a29.08,29.08,0,0,1-2-11.92,3.1,3.1,0,0,0,3.28-1.73c3.44-6.84,3-14,3-21.49v-.07a2.83,2.83,0,0,0,.46-.63,3.41,3.41,0,0,0,4-1.6c2.42-4.26,4.15-8.86,6.57-13.12a3.39,3.39,0,0,0,.41-1.95,1.08,1.08,0,0,1,.18-.11c.47-.24.94-.49,1.4-.76a3.22,3.22,0,0,0,1.47-4.26,27.5,27.5,0,0,1,2.6-1.12,3.92,3.92,0,0,0,.62-.29,3.55,3.55,0,0,0,3.51,3,32.12,32.12,0,0,1-2.79,2.27,3.72,3.72,0,0,0-1.2,4.7,46,46,0,0,0-5.82,7.25c-1.61,2.5.76,5.53,3.33,5.39a3.17,3.17,0,0,0,.34.3c0,.14-.08.29-.13.43a40.82,40.82,0,0,0-3.21,15.37,3.23,3.23,0,0,0,1.12,2.69,22.72,22.72,0,0,0,.44,2.39c-.25,5.44-.9,10.84,2.77,15.5,2.86,3.62,7.88-1.48,5.06-5.06-1.73-2.2-1.71-5.76-1.3-9,.24-.46.07-1,.07-1.63v-2.52a3.31,3.31,0,0,0-.39-2.16c0-.22.16-.44.17-.66s.26-.41.35-.62a4.11,4.11,0,0,0,4.18,1.19,3.52,3.52,0,0,0,3.69-3.43v-.82a3.8,3.8,0,0,0-1.62-2.64c-.18-1.64-.52-3.28-.61-4.91,2.15.91,4.81-.08,4.81-3.11a112.93,112.93,0,0,0-1-16.54,3.33,3.33,0,0,0-.25-.81,3.32,3.32,0,0,0,.31-1.7c1.31-1.6,1.06-4.39-.93-5.37l0,0a15.85,15.85,0,0,1,1.67-1.18,3.16,3.16,0,0,0,1.12-1.15c1-.45,2-.84,3-1.31,3.52-1.62,1.51-6.21-1.68-6.51a4.21,4.21,0,0,0-.18-1.61,4.08,4.08,0,0,0,.54.22,26.52,26.52,0,0,0,1.9,2.42c1.75,2,4.12,1.17,5.29-.51.37.33.74.66,1.12,1,.52,5.11,3.63,9,7.78,11.7a28.14,28.14,0,0,0,2.48,6,3.64,3.64,0,0,0,5.15,1.12c-.08.34-.15.67-.23,1-1.38,2.48.95,6.51,4,5.26l.42-.2a7.64,7.64,0,0,0,.46,1,3.19,3.19,0,0,0,.77.91c.17.5.33,1,.51,1.52a4,4,0,0,0,3.47,2.55,9.51,9.51,0,0,1-.19,3.75,3.69,3.69,0,0,0,2.26,4.27c0,.26,0,.52.07.78a3.89,3.89,0,0,0,4,3.43,4.26,4.26,0,0,0,4.13,1.66,20.85,20.85,0,0,0,1.38,3.28,3.3,3.3,0,0,0,.4.6c.1,3.25.32,6.49.74,9.73,0,.05,0,.11,0,.16h0c0,.32.07.64.11,1,.6,4.05,7.1,3,7-1-.06-3.47-.42-6.92-.78-10.36,0-1.47,0-2.93,0-4.4a4.07,4.07,0,0,0-.17-1.14,21,21,0,0,0-.77-10.47,4.15,4.15,0,0,0-.8-1.26,3.56,3.56,0,0,0-.94-2.78c-.63-.71-1.23-1.43-1.84-2.15a20.07,20.07,0,0,0-.88-2,3.42,3.42,0,0,0-.38-.58c0-1.11,0-2.23,0-3.36,0-2.48-2.87-4.14-4.95-3.43a3.81,3.81,0,0,0-3.9-3.28c-.05-.08-.11-.15-.16-.22A3.14,3.14,0,0,0,157,179l-.89-.8a2.7,2.7,0,0,0-.76-1.16,3.76,3.76,0,0,0-2.39-3.88c-1.54-.61-3.08-1.2-4.58-1.87-.1-.07-.19-.16-.3-.23l0,0a3.45,3.45,0,0,0-1.42-1,25,25,0,0,0-2.5-1.49c-.87-.53-1.75-1.07-2.62-1.63a3.1,3.1,0,0,0-2.94-.29l-.37-.07a3.78,3.78,0,0,0-2.07.25q-1.38-.8-2.82-1.53a4.34,4.34,0,0,0-.72-.29,2.94,2.94,0,0,0,.37-.53,2.85,2.85,0,0,0,2.81-.38c1.71-1.31,3.37-2.67,5-4.05a3.77,3.77,0,0,0,3.92-.62c2.57-2.1,5-4.37,7.45-6.62a3.56,3.56,0,0,0,4.95,1.44c1-.68,2-1.41,3-2.15a4,4,0,0,0,1.89-.31c1-.45,2.06-.94,3-1.47A3.6,3.6,0,0,0,167,151.4a4.09,4.09,0,0,0,4.85,1.2c1.41-.74,2.77-1.54,4.11-2.39a3.66,3.66,0,0,0,3.27-.07c.86-.44,1.69-.91,2.52-1.39a3.47,3.47,0,0,0,4,1.75,34.29,34.29,0,0,0,7.27-2.72,3,3,0,0,0,1.62.39c.61,0,1.2-.09,1.8-.16a3.88,3.88,0,0,0,2.3,1,21.53,21.53,0,0,0,4.11-.11c1.19.5,2.37,1,3.54,1.57a3.84,3.84,0,0,0,2.06,1.69c1.64.61,3.29,1,4.93,1.64a2.92,2.92,0,0,0,2.63-.23c1.65.65,3.32,1.26,5,1.85a23,23,0,0,0,5.46,4.59C229,161.59,232.81,158.93,231.74,155.94ZM138,151.2l.13-.36a4.15,4.15,0,0,0,1.39-1.16c.66-.87,1.27-1.76,1.86-2.67a4.14,4.14,0,0,0,.7.55Q140,149.32,138,151.2Zm11.44-8.68a3.37,3.37,0,0,0-.9.19c.19-.41.37-.83.56-1.25a3.55,3.55,0,0,0,1.86-.11C150.44,141.73,149.94,142.12,149.44,142.52Z"/><path class="cls-2" d="M127.7,343.9a3.28,3.28,0,0,0-1.73-3c-.26-3.1-.51-6.2-.73-9.3a3.55,3.55,0,0,0-.26-1.09c-.17-17.93.82-35.92,1-53.83.44-34.45,1.64-68.92,1.67-103.38,0-4.62-7.15-4.62-7.15,0,0,34.46-1.35,68.92-1.68,103.38-.18,18.55-1.17,37.12-.93,55.63-1.57,10.33.22,20.59.8,30.93a126.12,126.12,0,0,0-.65,14.29c0,3.32,3.25,4.17,5.38,2.85,2,1.55,5.9.28,5.87-2.85C129.26,366.3,127.79,355.14,127.7,343.9Z"/><path class="cls-3" d="M120.9,172.11c0,58.41.17,116.9-1.93,175.29-.27,7.57-.59,15.15-1.17,22.71-.26,3.44-.11,7.91-1.6,11.12-.14.28,1.67.14,1.9-.35.91-1.94,1-4.45,1.2-6.53.5-4.61.76-9.24,1-13.86.77-14.41,1.1-28.84,1.4-43.26.72-34.66.94-69.34,1.06-104q.08-20.82.06-41.64c0-.3-1.93,0-1.93.52Z"/><path class="cls-3" d="M124.7,169.26c-.64,1.46-.5,3.46-.59,5-.23,3.94-.33,7.9-.42,11.85-.3,13-.35,26-.35,39,0,33.46.43,66.93,1.66,100.37.45,12.24,1,24.48,2,36.68.47,5.61.19,13.53,3.07,18.6.41.71,2.26,0,1.78-.83-1.17-2.05-1.37-4.87-1.71-7.14-.67-4.55-1.06-9.14-1.42-13.72-1.11-14.07-1.63-28.18-2.09-42.29-1.08-33.32-1.44-66.67-1.35-100,0-10.87.1-21.75.37-32.61.11-4.13-.83-10.93.85-14.76.44-1-1.51-.91-1.83-.18Z"/><path class="cls-3" d="M218,84.27c1.62-3.11,3.61-6,5.21-9.13.28-.54-.4-.72-.81-.69-7,.45-8.65,10.48-12.62,14.73l1.7.3a50.33,50.33,0,0,1,5.21-10.43c.57-.8-1.39-.73-1.82-.13a49.76,49.76,0,0,0-5.21,10.42c-.4,1,1.31.72,1.7.3a30.82,30.82,0,0,0,4.09-6.5c1.37-2.51,3.45-7.23,6.74-7.44l-.8-.69c-1.61,3.11-3.59,6-5.22,9.12-.47.91,1.48.8,1.83.14Z"/><path class="cls-3" d="M212.35,81.44c-2.79,2.89-4.7,6.52-7.82,9.12l1.67.17c.81-1.55,1.8-3,2.61-4.56.42-.81-1.51-.58-1.8,0-.81,1.55-1.79,3-2.6,4.56-.46.87,1.36.43,1.67.17,3.12-2.61,5-6.23,7.82-9.13.78-.81-1.11-.75-1.55-.3Z"/><path class="cls-3" d="M206.48,82.05c-3.79,4.49-7.3,9.2-11.08,13.69l1.75.08c1-5.2,4.86-9.14,5.87-14.34.1-.56-.82-.49-1.11-.42-8.56,2.22-9.4,13.55-13.15,20l1.87-.22c-.32-6,3.08-11.39,5.22-16.79.13-.33-.4-.48-.61-.48-3.71,0-7.28,4.88-9.45,7.38a53.41,53.41,0,0,0-9.47,15.47c-.29.73,1.6.4,1.87-.07,2.92-5,6.2-10,7.23-15.79.15-.83-1.47-.35-1.75-.08-6.58,6.38-8.7,15.56-13.81,23l1.88-.07c1.59-6,5.47-11.26,5.86-17.59.05-.76-1.23-.44-1.58-.22-7.38,4.87-12.34,14.6-13.39,23.24-.11.89,1.73.38,1.94-.22,1.68-4.76,5.16-10.65,3.25-15.78-.26-.71-1.58-.22-1.87.21-3.88,5.81-3.47,13.32-7.82,18.9l1.87-.22c-.48-5,.53-9.88.66-14.84,0-.91-1.57-.33-1.88.07-4.52,5.82-5.66,13.54-8.47,20.2l1.88-.06,1.95-7.82c.22-.86-1.61-.32-1.87.07a31.94,31.94,0,0,0-4.63,11.88l1.94-.22c.07-3.21.44-6.33-2-8.75a1.36,1.36,0,0,0-1.8.34c-2.65,5.14-3.32,10.88-4.62,16.45l1.93-.37a13.32,13.32,0,0,0-2-6c-.29-.5-1.38-.07-1.67.2-3.33,3.09-4.49,8.42-5.4,12.68l1.93-.22a23.87,23.87,0,0,0-.65-6c-.18-.69-1.43-.19-1.75.07-4.36,3.65-3.36,10.29-4.75,15.29l1.94-.22a28.77,28.77,0,0,0,.65-7.17c0-.88-1.78-.44-1.93.22a25,25,0,0,0,1.3,15.13c.28.73,2.2.16,1.93-.51a24.59,24.59,0,0,1-1.3-14.84l-1.93.22a28.77,28.77,0,0,1-.66,7.17c-.19.77,1.75.46,1.94-.22,1.3-4.66.32-11.3,4.38-14.69l-1.75.07a22.14,22.14,0,0,1,.65,5.71c0,.88,1.79.45,1.93-.22.87-4.05,1.89-9.16,5-12.08l-1.67.2a12,12,0,0,1,1.88,5.73c.06.74,1.8.19,1.93-.36,1.28-5.45,1.91-11.11,4.5-16.14l-1.8.34c2.32,2.28,2,5.2,1.88,8.2,0,.86,1.81.45,1.94-.22a31.07,31.07,0,0,1,4.5-11.58l-1.88.07-1.95,7.82c-.19.77,1.65.45,1.87-.07,2.81-6.66,4-14.41,8.47-20.2l-1.87.06c-.13,5.07-1.14,10.07-.65,15.14.08.79,1.63.09,1.87-.22,4.36-5.58,3.95-13.09,7.82-18.89l-1.87.21c1.85,5-1.62,10.86-3.26,15.49l1.94-.22c1-8.18,5.65-17.74,12.67-22.37L175.66,96c-.39,6.31-4.27,11.58-5.86,17.59-.23.85,1.61.32,1.87-.07,5-7.28,7.09-16.39,13.57-22.66l-1.76-.08c-1,5.71-4.24,10.56-7.1,15.49l1.87-.07a53.73,53.73,0,0,1,12.94-18.92,24.94,24.94,0,0,1,2.71-2.19q1.2-1.48-1,1.73c-.63,1.49-1.33,3-1.94,4.45-1.34,3.3-2.41,6.5-2.22,10.09,0,.73,1.66.15,1.87-.22,3.29-5.68,4.3-17.17,11.62-19.06l-1.11-.42c-1,5.2-4.86,9.13-5.87,14.34-.15.8,1.48.4,1.75.08,3.79-4.49,7.3-9.2,11.08-13.69.75-.89-1.11-.91-1.56-.38Z"/><path class="cls-3" d="M129.31,158c-1.18.63-1.54.56-1.87,1.88-.22.86,1.62.46,1.88,0a46.47,46.47,0,0,1,23-21.09l-1.31-.54c-1.92,4.81-8.25,6.05-12.53,8.06l1.2.69c6.38-6.06,14.58-9.59,22-14.19.76-.48.13-1-.51-1a41.1,41.1,0,0,0-8.08,1.36c-1,.23-1.07,1.22,0,1.18,9.17-.37,16.93-6.15,26.07-6.52.77,0,1.65-1.22.47-1.23-5.46-.07-10.77-.43-16.15.7l.3,1.13c8.28-2.64,16.91-4,25-7.25.7-.28.75-1,0-1.1a107.67,107.67,0,0,0-13-1.3c0,.36,0,.73,0,1.09,6.29-2.4,12.85-3.89,19.3-5.77.64-.19,1.29-1.17.21-1.19-4.14-.09-8.25-.57-12.39-.65-.06.39-.13.79-.2,1.19,7.2-1.36,14.3-3.2,21.5-4.56.51-.1,1.31-.95.43-1.16-5-1.17-9.81-.72-14.8,0,0,.4,0,.79,0,1.19a65.28,65.28,0,0,0,18.06-8c.54-.33.39-1-.26-1-3.42,0-6.7.15-9.89,1.44-1.1.45-.33,1.22.56,1,5.91-1.16,10.1-5.76,15.24-8.56.8-.44.64-1.14-.29-1.1-2.62.12-5.21.54-7.82.66-1,0-1.55,1.28-.22,1.23a46.57,46.57,0,0,0,12.64-2.66c.27-.08,1.18-.55.74-1A7.84,7.84,0,0,0,215,88.83c-.15.38-.29.76-.43,1.15,4.22-1.18,8.48-1,11.72-4.26.1-.11.24-.31.17-.48-.62-1.52-1.47-1.66-3-2.28-.7-.28-2.26.72-1.16,1.17-.45,1.11-.91,2.23-1.37,3.34-1.24.26-2.49.48-3.74.68a29.65,29.65,0,0,0-2.93.69c-.49.14-1.32.9-.43,1.15l3,1.78c.24-.33.49-.65.74-1a45,45,0,0,1-12.12,2.56c-.08.41-.15.82-.22,1.23,2.61-.12,5.2-.54,7.81-.66-.09-.36-.19-.72-.29-1.09-4.91,2.67-9.13,7.28-14.74,8.38l.56,1a17.86,17.86,0,0,1,6.12-1.14c2-.1-4.84,2.83-3.91,2.34a50.27,50.27,0,0,1-11.24,4.27c-.92.23-1.09,1.34.05,1.18,4.66-.64,9.22-1.13,13.87,0l.42-1.15c-7.2,1.36-14.3,3.2-21.5,4.56-.71.13-1.25,1.17-.21,1.19,4.14.08,8.25.56,12.38.65l.21-1.19c-6.63,1.94-13.35,3.49-19.8,6-.64.24-.8,1.08,0,1.1a107.47,107.47,0,0,1,13,1.3l0-1.1c-7.94,3.15-16.4,4.49-24.51,7.08-1.16.37-.89,1.38.3,1.13,5-1,10.05-.65,15.13-.59.16-.42.31-.83.47-1.24-9.17.37-16.92,6.14-26.07,6.52,0,.39,0,.79.05,1.18a39.3,39.3,0,0,1,7.55-1.26l-.51-1c-7.54,4.69-15.82,8.3-22.32,14.48-.78.74.72.91,1.19.69,4.65-2.18,11.42-3.59,13.54-8.88.32-.8-.88-.73-1.31-.54a48.41,48.41,0,0,0-24,21.92l1.88,0a.73.73,0,0,1,.74-.73c1.16-.63.1-1.44-.81-1Z"/><path class="cls-3" d="M134.6,161.66c1.29-13.32,19.07-19.35,29.42-24.15l-1.05-.94c-4.8,2.82-9,6-12,10.75-.55.87,1.31.83,1.72.34,3.91-4.63,8.8-12.69,15.39-13.27l-.82-.76c-1.7,3.39-4.8,5.73-6.51,9.13-.46.9,1.13.8,1.55.49,7.06-5.24,13.62-11.78,22.34-14.12l-.8-1a94.37,94.37,0,0,0-8.64,7.32c-.55.53.2,1,.7.93,3.9-.37,7.1-2.52,10.49-4.31a78.69,78.69,0,0,1,15.84-6.17l-1-.88c-3.53,4.27-9.21,5.13-13.52,8.33-.51.38-.4,1,.29,1.07,3.48.21,7-1.47,10.16-2.6a39.83,39.83,0,0,1,6.83-1.91,12.66,12.66,0,0,1,3.36.65c-1.89,1.06-4.4,1.41-6.49,1.92-.53.13-1.29,1-.4,1.24a28.88,28.88,0,0,0,8,.74,52.08,52.08,0,0,1,6.37.18,9.13,9.13,0,0,1,4.06,1.49c.38.23-4.51.86-4.76.86-.45,0-1.64.79-.85,1.21,4.62,2.49,9.6,4.11,13.55,7.7.59.54,2.43-.18,1.77-.83a17.13,17.13,0,0,0-3.39-2.73c-.51-.31-2.3.25-1.64.95,3.6,3.81,8.79,5.32,12.38,9.12l1.45-1c-2.32-.86-4.19-2.41-6.51-3.26-.42-.16-1.58.08-1.54.71.21,4.22,1.46,8.2,2.28,12.33q1.95,5,.35.31c-.36-.95-.7-1.91-1-2.89a37.69,37.69,0,0,0-2.36-5.69c-.31-.6-1.6-.17-1.8.32-1.93,4.63-1.42,9.61-1.36,14.51,0,1,1.95.65,1.95-.17,0-3.91.69-12.77-4.54-13.61-4.41-.71-5.48,6.33-1.57,7.8.52.2,1.69-.16,1.54-.88-1.26-5.78-7.67-9-12.79-10.79-.43-.15-2.11.41-1.45,1a28.44,28.44,0,0,1,5.21,5.86l1.64-.95c-8.53-4.37-16.37-9.46-26.33-7.25-.6.13-1.23.93-.4,1.25,5.16,1.94,10.66,2,16.11,2,.84,0,1.62-1.24.44-1.34-11.92-1-24.42-7-36-1.17-.47.24-.87.93-.15,1.16A18.22,18.22,0,0,0,182,150c.93-.33,1.09-1.29-.07-1.28-9.47,0-21.71-.33-28.92,6.92-.56.57.22.93.71.93a13.78,13.78,0,0,0,5.07-.79c.67-.26.76-1.16-.07-1.2-9.13-.41-17.44,2.69-25.52,6.65-.87.43-.58,1.21.32,1.2a24.74,24.74,0,0,0,9.63-1.44c.69-.28.75-1.11-.07-1.2-2.57-.26-19.32,4.84-16.22,8.25.56.62,2.4-.14,1.77-.83-1.43-1.58,12.09-6.26,13.76-6.08,0-.4-.05-.8-.07-1.2-2.86,1.16-5.62,1.15-8.61,1.17l.32,1.19c7.6-3.72,15.4-6.76,24-6.38,0-.39,0-.79-.07-1.19a11.63,11.63,0,0,1-4.05.51l.7.93c6.63-6.67,18.4-6.1,27.13-6.11,0-.43-.05-.86-.07-1.29-3.41,1.22-6.82,1.76-10.35.65l-.15,1.15c10.89-5.5,23.15.54,34.43,1.45.15-.45.3-.89.44-1.34-5.13,0-10.3-.08-15.17-1.91-.13.42-.26.83-.4,1.24,9.22-2,16.68,3.08,24.5,7.09.56.28,2.16-.09,1.64-.95a28.52,28.52,0,0,0-5.21-5.87l-1.46,1c4.76,1.69,10.81,4.67,12,10.06l1.54-.88c-4.45-1.68.25-5.28,1-4.56,1,1,1.27,2.92,1.53,4.22a39.81,39.81,0,0,1,.48,7.56l1.95-.17c-.06-4.74-.63-9.67,1.24-14.16l-1.8.33c1.88,3.55,2.68,7.33,4.56,10.88.13.26.56.07.79.07h.65c.34,0,1.1-.13,1.07-.56-.27-5.33-2.33-10.22-2.6-15.55-.52.24-1,.52-1.54.76,2.32.85,4.19,2.42,6.51,3.28.46.16,2.08-.36,1.46-1-3.6-3.81-8.8-5.31-12.39-9.11l-1.63.95a9.87,9.87,0,0,1,3.12,2.49l1.77-.83c-4.06-3.69-9.06-5.38-13.82-7.94l-.85,1.2c2.67,0,5,0,7.25-1.57.36-.24.47-.64.12-.94-5.53-4.67-13.31-1.59-19.74-3.34-.13.41-.26.83-.4,1.24a31,31,0,0,0,8.07-2.7c.29-.15.81-.57.47-.94-5.19-5.75-16.05,3.37-22.05,3,.1.35.2.71.29,1.07,4.49-3.33,10.18-4.17,13.86-8.62.57-.7-.4-1-1-.88a89.5,89.5,0,0,0-12.44,4.65c-4.18,1.84-8.77,5.3-13.36,5.73l.7.92a90.74,90.74,0,0,1,8.3-7c.84-.64-.06-1.23-.79-1-9.1,2.44-15.9,9.07-23.28,14.55l1.55.5c1.71-3.4,4.81-5.73,6.52-9.13.27-.54-.4-.79-.82-.76-7.62.68-12.72,8.8-17.19,14.1l1.72.35c2.83-4.5,6.93-7.46,11.44-10.11,1-.62-.33-1.27-1-.94-10.76,5-29.18,11.42-30.53,25.38-.1.95,1.87.65,1.95-.17Z"/><path class="cls-3" d="M123.72,171.28c7.13,2.64,11.85,6,11.54,14.18l1.94-.51a17.85,17.85,0,0,1-.66-5.87l-1.93.52a104.25,104.25,0,0,0,4.56,11.73c.26.54,1.59,0,1.85-.3a21.52,21.52,0,0,0,4-8.58l-1.93.41c0,4.68-.12,12.52,4,15.73.37.28,1.76,0,1.87-.5a69.15,69.15,0,0,1,2.6-10.43l-1.92.41c1.15,6.54.8,13.29,3.26,19.55.22.56,1.75,0,1.92-.41a42.83,42.83,0,0,0,2-7.82l-1.93.41c0,3.08-1.13,15.18,3.83,15.18.34,0,1.24-.18,1.35-.6.63-2.4,1.33-4.77,2-7.17l-1.36.6c.86,0,1.37,15.77,1.39,17.4,0,.46,1.85.08,1.92-.4.55-3.74.75-7.49,2-11.08l-1.92.41c2.44,8.36,3.42,17.05,5.86,25.41.16.55,1.92,0,1.93-.52.08-4.41.61-8.95,2.68-12.92a8.14,8.14,0,0,0-1.85.41v10.42c0,.44,2,.12,2-.51v-17.6c0-.2-.57-.19-.67-.19-3.75,0,2.55-4.49,2.5-4.47.12,0,.85-.41.52-.64-3.82-2.69-6.08-7.06-8.42-11l-1.88.61c3.5,3.69,6.3,8,10.42,11.08.39.28,2.21-.16,1.81-.7-5.12-7-10.22-14.09-14.93-21.42l-1.87.61a43.81,43.81,0,0,1,11.08,10.43l1.81-.7c-6.41-8-11.76-17.53-20.85-22.81l-1.52.8a20.82,20.82,0,0,1,10.79,3.81l1.81-.7c-6.4-3.74-11.84-8.88-19-11.14-.43-.13-2.3.48-1.57.82a51.43,51.43,0,0,0,8.47,3.26c.34.1,1.87-.07,1.75-.67-1.4-6.77-11.09-8.51-16.86-8.66-.39,0-2,.7-1,.9,3.49.66,6.86,1.76,10.43,1.95.28,0,2.17-.49,1.39-.86-7-3.33-17.23-5.46-22.52,1.75-.44.6,1.47.35,1.77-.07,4.63-6.31,13.37-3.64,19.18-.85l1.4-.86c-3.55-.19-6.95-1.29-10.43-2l-1,.9c5.44.15,14.42,2,15.73,8.28l1.75-.67a51.43,51.43,0,0,1-8.47-3.26l-1.57.82c7.1,2.24,12.46,7.33,18.78,11,.47.28,2.22-.42,1.81-.7a22.21,22.21,0,0,0-11.37-4c-.2,0-2,.49-1.52.8,9.09,5.27,14.44,14.83,20.85,22.81.33.41,2.17-.19,1.81-.7A43.81,43.81,0,0,0,163.85,192c-.33-.23-2.15.17-1.87.61,4.75,7.39,9.89,14.5,15.05,21.6l1.81-.7c-4.13-3.06-6.92-7.39-10.43-11.08-.32-.35-2.11.21-1.87.61a54.4,54.4,0,0,0,6.77,9.75c1.3,1.38,1.32,1-.28,2.05s-2.1,2.85-2.57,4.38c-.09.3.39.3.56.3,2.47,0,1.5,15.39,1.5,17.4,0,.44,2,.12,2-.51V226c0-.56-1.86.07-2,.41-2.1,4-2.6,8.66-2.67,13.14l1.9-.52c-2.44-8.36-3.44-17.05-5.88-25.41-.16-.56-1.79,0-1.93.41-1.21,3.59-1.41,7.34-2,11.08l1.92-.41a161.72,161.72,0,0,0-1.3-17.73c0-.21-.44-.33-.56-.33h-.66c-.35,0-1.24.31-1.36.74-.62,2.39-1.32,4.83-1.95,7.23.45-.2.91-.37,1.36-.57-3.38,0-2.72-12.5-2.7-14.77,0-.47-1.82-.06-1.92.41a43.75,43.75,0,0,1-1.95,7.83l1.92-.41c-2.46-6.26-2.11-13-3.26-19.55-.1-.56-1.78,0-1.92.41A68.88,68.88,0,0,0,147,198.39l1.86-.5c-4-3.11-3.8-11-3.84-15.55,0-.49-1.81,0-1.93.41a20.63,20.63,0,0,1-3.84,8.35l1.86-.29a102.43,102.43,0,0,1-4.57-11.73c-.18-.55-1.93,0-1.93.52a18.06,18.06,0,0,0,.65,5.86c.2.56,1.91,0,1.94-.51.31-8.45-4.65-11.8-11.92-14.49-.48-.18-2.24.57-1.56.82Z"/><path class="cls-3" d="M125,167.76c-10.51,2.74-22.78,4.59-29.44,14.15-.36.51.47.62.77.59,5.2-.49,8.86-4.11,13.55-6l-1.36-.3c-1.66,4.4-6.15,6.65-7.82,11.07-.16.44.63.46.84.44,2.49-.24,4.4-1.25,6.78-2l-1-.54c-3.46,5.79-8.74,10.22-11.73,16.3-.42.85,1.17.53,1.5.33,2.56-1.53,4.61-3.69,7.17-5.21l-1.51-.34c-2.91,4.54-5.6,9.66-5.93,15.14,0,.65,1,.44,1.36.3,3.07-1.27,4.28-4,5.14-7.05.23-.83-1.61-.25-1.87.08-4.16,5.39-5.19,12.55-4.62,19.19,0,.43.87.29,1.1.24,3.52-.76,4.51-4.47,6.63-7l-1.81-.06c-3.7,6.71-2.88,16.89-.71,24,.07.24.38.55.59.55h1.31a1.62,1.62,0,0,0,1.33-.92c2.34-5.79.22-11.88,0-17.86-.64.17-1.28.29-1.93.46a47.09,47.09,0,0,0,4.63,9.22c.32.47,1.84.06,1.87-.52.32-6-2.28-11.6-2-17.6l-1.86.5a36.28,36.28,0,0,1,5.79,8.34c.33.63,1.79.26,1.94-.37,1.81-7.68-1.72-15.38-2.61-23l-1.93.52a56.62,56.62,0,0,0,4,7.94c.38.58,1.67,0,1.86-.49,3.15-8,.29-16.72-.6-24.91-.07-.65-1.88-.23-1.88.37v3.91c0,.87,1.71.39,1.88-.23,1.76-6.15,2.44-14.55,10.61-15,1,0,1.58-1.17.24-1.1-9.34.47-10.59,8.79-12.74,16.3.64-.07,1-.15,2-.23v-3.91c-1,.13-1.37.25-2,.38.88,8.11,3.73,16.68.61,24.62l1.84-.5a55.88,55.88,0,0,1-3.85-7.7c-.31-.66-2-.22-1.94.52.88,7.46,4.39,15.12,2.6,22.67l1.94-.38a37.91,37.91,0,0,0-5.94-8.6c-.37-.39-1.83-.13-1.86.5-.33,6,2.28,11.6,2,17.6l1.86-.5a46.11,46.11,0,0,1-4.49-9c-.28-.7-2-.2-1.93.52.22,5.86,2.29,11.78,0,17.45l1.34-.68c-2.09,0-2.14-7.16-2.26-9-.32-4.55-.11-9.8,2.14-13.88.49-.9-1.46-.47-1.81-.06-1.37,1.63-2.85,5.55-5.09,6l1.1.24c-.54-6.41.48-13.39,4.49-18.61l-1.86.09c-.68,2.4-1.42,4.92-4,6l1.36.3c.32-5.41,2.92-10.37,5.8-14.85.52-.8-1.22-.5-1.51-.33-2.56,1.52-4.6,3.68-7.17,5.21l1.51.34c3-6.07,8.28-10.51,11.73-16.3.37-.61-.7-.63-1-.53-1.16.37-1.81.6-2.92,1.06-3.4,1.41,1.22-4,1.67-4.41a14.8,14.8,0,0,0,3.66-5.39c.24-.63-1.15-.38-1.36-.3a46.94,46.94,0,0,0-6.49,3.54c-1.14.69-6.86,4.08-2.86-.18a22,22,0,0,1,5.18-3.79c6.13-3.56,13.57-4.7,20.34-6.47,1.16-.3.89-1.31-.27-1Z"/><path class="cls-3" d="M116.11,167.55c-9,0-18.89.78-26.14,6.78-.48.4-.41,1.11.31,1.15,5.23.32,9.78-1.71,14.85-2.65l-1-1c-4.44,4.52-11.56,4.36-16.78,7.67a.59.59,0,0,0,.09,1.09,16.82,16.82,0,0,0,11.16,0l-.36-1.32C90,182.29,81,185,74.82,191.43c-.54.56.19,1,.72,1,6-.35,10.86-3.75,16.55-5.26l-.82-1.11c-5.76,3.57-11.82,6.85-16.45,11.89-.39.42,0,1,.47,1,4.1.29,7-1.5,10.54-3.39l-1.24-.86c-6.92,6.65-15.85,11-21.5,18.9a.59.59,0,0,0,.47,1c4.22.42,7.93-.58,11.84-2.09l-1.07-1C69.58,214.55,61.65,218,61,224.38a.57.57,0,0,0,.42.58c4.77,1.65,8.1-1.79,12.07-4l-1.36-.68c-2.28,5.36-6.76,9.68-6.57,15.83,0,.4.28.55.65.63,4.53,1,6.86-3.54,7.83-7.3.22-.86-1.28-.61-1.62-.37-6.94,5-2.55,14.8-1.63,21.56.11.84,1.94.44,1.94-.33a78.85,78.85,0,0,1,.65-11.08l-1.94.33c1.36,8.54,3.39,16.82,7.9,24.28.36.6,1.88.23,1.86-.5-.24-9-3.61-17.64-3.25-26.72l-1.73.63c3.75,3.45,5.52,8.63,6.95,13.39.24.81,1.92.46,1.94-.33.32-9.65-4.27-18.44-4.56-28l-1.86.49a56,56,0,0,1,4.56,7.17c.38.73,1.73.13,1.86-.5,1.85-8.38.64-16.92.55-25.41,0-1-2.06-.73-2.06.14v3.91c0,.81,1.27.76,1.73.37,6.09-5.2,6.78-14.66,8.21-22,.18-1-1.77-.71-1.94.15a6.76,6.76,0,0,0,.68,4.75c.33.68,1.34.52,1.78,0A33.27,33.27,0,0,0,99.49,182c.57-1.35,2.82-2.52,3.86-3.44,1.46-1.29,2.69-2.76,4.19-4,1-.85-.54-1.51-1.28-.89-1.17,1-2.24,2-3.31,3.13-1.33,1.37-3.52,2.19-4.67,3.55-.84,1-1.32,3-1.86,4.21a24.37,24.37,0,0,1-4,6.21l1.78,0a5.63,5.63,0,0,1-.64-4.38l-2,.15c-1.33,6.85-1.89,16.15-7.56,21,.54.12,1.53.25,1.53.37V204a18.71,18.71,0,0,1-1.87.14c.08,8.49,1.23,17-.61,25.42l1.88-.5a57.06,57.06,0,0,0-4.55-7.17c-.4-.54-1.88-.26-1.86.5.29,9.58,4.88,18.39,4.57,28l1.94-.33c-1.51-5-3.44-10.35-7.39-14-.45-.42-1.69,0-1.72.63-.36,9.09,3,17.68,3.26,26.72l1.86-.5c-4.46-7.37-6.4-15.53-7.74-24-.14-.88-1.84-.39-1.94.34a77.23,77.23,0,0,0-.65,11.07l1.94-.33c-.82-6-5.18-15.76,1-20.15L72,229.59l-.66,2.1c-.53,1.72-1.84,2.66-3.95,2.83A11.77,11.77,0,0,1,69,229.35c1.45-3.06,3.59-5.71,4.93-8.85.35-.8-.86-.95-1.35-.68-1.36.76-2.65,1.58-4,2.45-1.62,1.69-3.42,1.76-5.38.22.5-1.59,2.19-3.06,3.36-4.1,2.69-2.39,6-4.08,9-6,1.06-.68-.35-1.28-1.06-1a21.65,21.65,0,0,1-10.32,1.82l.47,1c5.64-7.91,14.61-12.26,21.51-18.89.77-.75-.69-1.16-1.24-.86-2.92,1.57-5.38,3.38-9,3.12.16.33.32.66.47,1,4.52-4.91,10.51-8.1,16.13-11.57.91-.57-.11-1.29-.82-1.11-5.46,1.45-10.31,4.84-16,5.17l.72,1c5.84-6.08,14.47-8.58,22.18-11.36,1.14-.41.83-1.72-.36-1.32a14.45,14.45,0,0,1-9.69,0l.09,1.09c5.44-3.45,12.4-3.19,17.11-8,.69-.7-.47-1.05-1-1-4.67.86-9,2.86-13.82,2.56l.3,1.15c6.86-5.68,16.16-6.21,24.69-6.25,1.11,0,1.48-1.42.17-1.42Z"/><path class="cls-3" d="M114.19,164.54c-5.29-3.37-10.35-7.06-15.64-10.43L97,155a29.65,29.65,0,0,1,11.6,7.08l1.28-.92c-9.48.15-15-11.24-25-10.41-.33,0-1.41.4-1,.91,2.74,3.68,7.71,4.62,11.86,6l1.36-1c-8.81-1.55-18.27-4.46-26.61.24-.41.23-.51.66,0,.81,3.86,1,7.92.75,11.73,1.95l1-1.07c-6.58,0-14-.75-19.87,2.87-.39.24-.55.68,0,.81,3.16.73,6.42,1.29,9.45-.13.54-.25.88-1,0-.94-9.66.25-18.89,3.76-27.47,8-.54.26-.89.94,0,.94a54,54,0,0,0,13.54-1.37l-.51-.87c-5.74,2.59-13.14,2.41-17.46,7.54-.16.19-.05.38.13.49,3.66,2.11,7.78,1.27,11.58-.08.9-.32.58-1-.25-.92-5.55.34-11.81,3.47-14.72,8.33-.23.38.19.56.52.56,2.21,0,4-1.06,1.7.91A16.36,16.36,0,0,0,35.57,190c-2,3.9-.75,8.25,1.29,11.79.33.57,1.58.27,1.87-.23C42,195.69,45.7,190.23,51,186l-1.68-.17c-2.16,2.87-4.23,5.59-4.63,9.26-.08.77,1.46.33,1.74,0C51.54,189.75,55,183,60.76,178.19l-1.74,0c-1,4.4-3.63,8.18-5.21,12.38-.27.72,1.6.27,1.86-.1a115.71,115.71,0,0,1,20.08-22l-1.74,0c-1.16,3.85-4.22,6.73-7,9.5-.8.8,1,.69,1.37.44,6.87-4.14,13.62-8.46,20.2-13L87,165.12c-.91,2.4-2.58,3.89-4.37,5.59-.76.73.76.72,1.16.55,5.33-2.22,9.77-6,15.77-6.38l.27-1.06a3.25,3.25,0,0,0-2.21,1c-.19.17-.32.51,0,.63a14.84,14.84,0,0,0,5,.73c.72,0,2.06-1.08.75-1.09a26.5,26.5,0,0,1-3.77-.23c.94-.11,1.62-1.14.27-1.06-6.44.37-11.05,4.25-16.81,6.65l1.16.56c2-1.89,3.76-3.54,4.75-6.15.26-.68-1.36-.31-1.56-.16-6.59,4.57-13.34,8.89-20.2,13l1.37.44c2.93-2.94,6.14-6,7.36-10.05.23-.78-1.51-.23-1.74,0a117.33,117.33,0,0,0-20.33,22.3l1.87-.1c1.59-4.21,4.19-8,5.21-12.39.18-.79-1.49-.24-1.74,0-5.77,4.81-9.21,11.55-14.34,16.94l1.74,0c.38-3.54,2.42-6.22,4.5-9,.58-.76-1.37-.41-1.67-.17-5.39,4.29-9.15,9.83-12.51,15.78l1.86-.24c-4-6.93-2-13.59,4.85-17.71.54-.32.41-.83-.22-.83-3.67,0-4.21-.11-1.11-2.79a19.36,19.36,0,0,1,6.51-3.42l2.12-.46a53.42,53.42,0,0,1-7.37-.45c-1.74-.57,5.45-3.82,5.4-3.8,1.27-.4,2.57-.7,3.85-1a38.75,38.75,0,0,0,6.24-2.09c1-.48.38-1.11-.51-.88A42.07,42.07,0,0,1,49.34,169c-3.7.11-.6-.35,1-1.09a71.21,71.21,0,0,1,15.6-5c1.79-.35,6.1-.49,1-1.15-3.7-.47,3.3-1.69,3.92-1.78,3.8-.56,7.72-.29,11.54-.27.48,0,2-.72,1-1.07a26.75,26.75,0,0,0-5.83-1,28.3,28.3,0,0,1-4.4-.55L75,156a19.08,19.08,0,0,1,5.16-.61c5.27-.11,10.56,1.42,15.71,2.33.43.07,2.2-.72,1.36-1-4-1.3-8.94-2.19-11.61-5.78l-1,.91c9.64-.8,15.06,10.59,24.52,10.44.25,0,1.81-.4,1.27-.92a30.21,30.21,0,0,0-11.86-7.26c-.47-.15-2.4.38-1.54.93,5.29,3.37,10.36,7.06,15.64,10.43.53.34,2.32-.44,1.54-.93Z"/><path class="cls-3" d="M124.17,162.29c.41-12.31,9.94-20.34,17.41-29,.77-.89-.93-.82-1.4-.54-3.11,1.87-6.19,3.75-9.13,5.87l1.52.39c3-4.73,8.05-7.66,11.08-12.39a.36.36,0,0,0-.14-.54c-2.74-1.24-5.21-.74-8.08,0l.76.88c3.41-2.29,6.17-5.31,9.3-8,.21-.17.28-.56,0-.69-2.78-1.17-5.3-.34-8.07.6l.75.88c4.56-2.52,8.25-6.26,11.91-9.91.41-.41,0-.75-.42-.8-4.65-.43-9,1.14-13.55,2,.18.34.37.67.55,1a47.18,47.18,0,0,0,12.77-9.38c.13-.13.3-.43.1-.59-2.48-2.09-5.46-.33-8.2.5.25.3.5.59.76.88A63.94,63.94,0,0,0,158,86.85c.28-.4-.24-.61-.55-.65-3.12-.34-5.5.6-8.14,2.22-1,.62.35,1.15,1,.79a47.79,47.79,0,0,0,16.8-15.39c.42-.63-.72-.69-1.05-.59-3.52,1-6.09,3.2-8.94,5.42-1.05.81.57,1.12,1.23.67,6.05-4.09,11.83-8.55,17.59-13,.8-.62,0-1.1-.76-.88a45.72,45.72,0,0,0-7.42,3.35c-1,.53-.38,1.19.55,1,5.45-1.17,9.78-5,13.67-8.81.54-.53-.19-.84-.67-.8a10.25,10.25,0,0,0-5.94,2.21c-1,.77.34,1,1,.79,3.83-1.45,7.24-3.76,11.08-5.21.3-.11.91-.7.36-1-2.73-1.23-5.21-.73-8.07,0-1.19.28-.89,1.36.29,1.08,4.9-1.18,9.11-4.39,12.37-8.16.47-.55-.14-.84-.67-.79a25.63,25.63,0,0,0-7,2.09l1.3.5a16.51,16.51,0,0,1,4.27-4.27c.7-.5.18-1-.5-.93-8.25.51-15,6.88-22,10.56-1.18.62-.1,1.36.8.91a17.4,17.4,0,0,0,7.68-7.57c.16-.29,0-.55-.33-.62-4-.89-5.76,1.54-8.32,4.28.59,0,1,.06,2,.1V48.9c0-.93-1.77-.37-2.09.06-5.11,6.71-8,14.79-13.14,21.5l1.82,0c.28-3,1.65-5.53,1.93-8.48.06-.69-1-.47-1.38-.34-6.34,2.25-7.51,10.8-10.29,16l1.87-.06c.12-2.61.54-5.2.65-7.82,0-.85-1.64-.48-1.88.06-1.39,3.19-1.43,7.41-3.54,10.16-2.67,3.46-4.33,7.44-6.23,11.35l1.87-.06a54.58,54.58,0,0,1,.66-9.12c.14-.87-1.74-.44-1.94.21-2.38,7.67-2.69,15.85-5.81,23.3l1.88-.05c0-2.59.64-12.34-4.65-9.21-5.86,3.47-4.92,14.7-6.41,20.49l1.94-.21a42.91,42.91,0,0,0-.66-8.62c-.15-.74-1.84-.25-1.93.36-1.26,8.21-1.31,16.49-1.31,24.77l1.94-.37a40.8,40.8,0,0,0-1.3-7.82c-.21-.82-1.74-.14-1.94.37-2.93,7.32-2.73,17.56,1.38,24.4l1.78-.79a35.49,35.49,0,0,1-3.18-6.38c-.28-.75-2-.25-1.93.51a164.87,164.87,0,0,0,4.56,24.12l1.93-.52a34.46,34.46,0,0,1-2.6-11.08c0-.71-2-.28-1.94.52.11,3.43.56,6.83.65,10.27,0,.89,2,.49,1.94-.21-.09-3.54-.55-7-.65-10.58l-1.94.52a34.8,34.8,0,0,0,2.61,11.08c.28.72,2.12.24,1.93-.52a165,165,0,0,1-4.56-24.11l-1.93.51a37,37,0,0,0,3.33,6.66c.38.6,2.24,0,1.78-.79-4-6.7-4.08-16.67-1.22-23.82l-1.94.36a39.81,39.81,0,0,1,1.31,7.82c0,.68,1.93.3,1.93-.36,0-8.28,0-16.57,1.31-24.77l-1.94.37a42,42,0,0,1,.65,8.31c0,.91,1.76.46,1.94-.21,1.18-4.58,1.52-9.36,2.61-14,.24-1,3-8,4.24-3.83.67,2.17.35,4.69.33,6.94,0,.84,1.64.5,1.88-.06,3.16-7.56,3.52-15.83,5.93-23.61l-1.94.21a54.58,54.58,0,0,0-.66,9.12c0,.86,1.62.48,1.88-.06a84.77,84.77,0,0,1,5.36-10.21c1.85-2.78,1.6-1.15,2.15-3.51a43.88,43.88,0,0,1,2.27-7.78L147,70c-.11,2.61-.54,5.2-.65,7.82,0,.87,1.61.44,1.88-.06,2.48-4.69,3.67-13.25,9.26-15.24l-1.37-.34c-.28,2.94-1.67,5.52-2,8.47-.09.94,1.58.33,1.88-.06,5.1-6.71,8.11-14.79,13.21-21.5-.62,0-1.69,0-1.69,0v5.22c0,.82,1.22.46,1.57.09s5.19-3.81,4.75-3A14,14,0,0,1,167.81,57l.77.91c6.63-3.48,13.26-9.81,21-10.29-.16-.31-.34-.62-.5-.92a20.31,20.31,0,0,0-4.86,4.84c-.53.74,1,.62,1.3.51a21.42,21.42,0,0,1,6-1.82l-.66-.79c-2.94,3.4-6.64,6.41-11.09,7.48.09.36.19.72.29,1.08a8.56,8.56,0,0,1,6.26,0l.36-1c-3.83,1.46-7.24,3.76-11.08,5.22l1,.79,4.49-1.7-.67-.79C176.89,64,173,67.6,168,68.67l.54,1a42.72,42.72,0,0,1,6.91-3.17l-.75-.88c-5.77,4.49-11.55,9-17.6,13l1.23.67c2.53-2,4.82-4.09,8-5l-1-.59A45.74,45.74,0,0,1,149.52,88.3l1,.8c8.28-5.1,4.08-.1,2.88,1.48s-2.74,3.32-4.2,4.9a51,51,0,0,1-8.38,7.28c-.85.59.08,1.08.76.88q1.38-.39,2.73-.9c5.38-1.88.71,2.14.26,2.54a36.1,36.1,0,0,1-8.75,5.83c-1.07.51-.35,1.17.54,1,1.43-.28,2.84-.6,4.25-.94a47.37,47.37,0,0,1,6.84-.75c-3.22,3.22-6.54,6.41-10.54,8.63-.91.51.11,1.1.76.88,1.48-.5,6.79-2,3.57.95a52.42,52.42,0,0,1-6.28,5.34c-.9.59.1,1,.75.88,2.61-.63,7.13-1.3,3.78,2.47-.95,1.06-2,2-3.08,3a33.14,33.14,0,0,0-5.66,6.35c-.52.81,1.19.62,1.52.38,2.94-2.12,6-4,9.12-5.86l-1.39-.54c-7.61,8.84-17.36,17.1-17.78,29.63,0,.88,1.91.5,1.94-.21Z"/><path class="cls-3" d="M101.35,20.08c-1-3.31-.59-6.27.05-9.61.35-1.79,1.3-4-.1-5.44-.26-.26-1.94.17-1.88.57a84,84,0,0,0,4.39,17c.14.39,1.75-.09,1.75-.52V13.56c0,.17-1.11.34-1.75.52,1.12,3,.92,6.16,2,9.12.17.43,1.66-.16,1.88-.35,2.41-2.19,3.34-5,4.66-7.91l-1.9.44A71.35,71.35,0,0,0,111.8,31c.1.47,1.73-.22,1.92-.44,2.06-2.39,3.43-5.23,5.21-7.82L117,23.2c.06,6.09.59,12.16.65,18.25,0,.39,1.74-.2,1.91-.44,1.88-2.68,3.29-5.55,5.79-7.73l-1.84.35c-.7,5.7-1.35,11.4-3.24,16.86-.14.42,1.67-.1,1.9-.36,1.86-2.08,3.36-4.43,5.21-6.52l-1.91.44c-.36,7-4.23,13.17-4.56,20.2,0,.41,1.74-.24,1.91-.43a24.84,24.84,0,0,0,3.26-4.57l-1.91.44c-.25,6-2.36,11.63-2.61,17.6,0,.38,1.67-.21,1.83-.35,2.87-2.48,4.51-5.76,6-9.21l-1.92.43c-.87,6.43-3.62,12.38-3.91,18.9,0,.37,1.57-.17,1.7-.25a8.33,8.33,0,0,0,3.48-4.1l-1.92.44c.46,5.71-1.12,11.26-1.3,16.95,0,.34,1.75-.15,1.91-.44.64-1.1,1.33-2.16,2-3.26l-1.92.44c-.2,7.09-2.43,13.87-3.89,20.77-.09.43,1.69,0,1.9-.36,1.35-2.14,2.56-4.37,3.91-6.52l-1.9.36a114.61,114.61,0,0,0-3.93,28.1c0,.37,1.76-.15,1.92-.43a8.58,8.58,0,0,1,1.87-2.52l-1.83.35c1,6.06-2.73,11.16-2.73,17,0,.26,1.8,0,1.8-.52v-1.4c0-.26-2,0-2,.52v1.4c0,.26,2.09,0,2.09-.52,0-5.93,3.74-11,2.69-17-.07-.42-1.62.17-1.79.35a13.72,13.72,0,0,0-2,2.69l1.93-.43a114.33,114.33,0,0,1,3.89-27.95c.11-.4-1.68,0-1.89.36-1.35,2.15-2.56,4.38-3.91,6.52l1.9-.36c1.47-7,3.72-13.78,3.92-20.93,0-.35-1.75.15-1.91.44-.63,1.1-1.32,2.15-2,3.26l1.92-.44c.18-5.69,1.76-11.24,1.3-17,0-.37-1.77.13-1.91.44a6.61,6.61,0,0,1-3,3.73l1.7-.26c.28-6.5,3-12.48,3.9-18.89,0-.25-1.75.06-1.91.43-1.4,3.37-3,6.61-5.79,9l1.84-.35c.25-6,2.36-11.63,2.61-17.6,0-.34-1.75.15-1.92.44a24.43,24.43,0,0,1-3.26,4.56l1.92-.43c.33-7,4.2-13.2,4.56-20.21,0-.4-1.74.25-1.92.44-1.85,2.09-3.35,4.43-5.21,6.52l1.9-.36c1.91-5.51,2.57-11.26,3.28-17,0-.36-1.68.21-1.84.35-2.55,2.22-4,5.16-5.95,7.91l1.92-.44c-.06-6.09-.59-12.16-.65-18.25,0-.39-1.75.19-1.92.44-1.78,2.59-3.15,5.43-5.21,7.82l1.92-.44a71.3,71.3,0,0,1-1.31-15.64c0-.34-1.77.12-1.91.44-1.29,2.82-2.11,5.57-4.49,7.73l1.84-.35c-1.12-3-1-6.16-2.16-9.12-.15-.39-2.15.09-2.15.52v8.47a19.57,19.57,0,0,0,2.15-.52,84.07,84.07,0,0,1-4.46-16.94l-1.83.58c1.4,1.39,0,5.25-.29,6.94a15.42,15.42,0,0,0,.28,8c.13.41,2.06-.15,1.94-.51Z"/><path class="cls-3" d="M98.68,21.92c-1.3-1.22-1.45-2.85-1.89-4.45-.17-.61-1.9-.18-1.93.38-.35,7.49,2.46,14.17,5.21,21l1.87-.63a74,74,0,0,0-5.87-6.52c-.38-.38-2,0-1.86.63C96.49,42.41,102.43,51.1,105.29,61l1.86-.64c-2.27-3.6-4.88-7-6.45-11l-1.93.52a75,75,0,0,1,7.82,19.55l1.86-.63a27.27,27.27,0,0,1-3.91-3.91c-.38-.43-2,0-1.86.63,1.11,7.76,5.63,14.63,9.12,21.5l1.87-.63a30.33,30.33,0,0,1-5.15-6.4c-.32-.57-2.12-.15-1.93.51,2.25,7.78,8.18,13.73,10.43,21.51l1.74-.71c-2.54-1-4.29-2.88-6.4-4.48-.37-.29-2.11-.06-1.86.63,2.32,6.37,6.16,12.09,7.17,18.9l1.74-.72a5.83,5.83,0,0,1-3.72-3.71c-.28-.65-2-.15-1.93.52.26,8.22,3.63,15.88,3.89,24.11,0,.59,1.91.19,1.91-.52v-3.26a13.59,13.59,0,0,0-1.91.52c.27,8,3.67,15.44,3.92,23.46,0,.58,2,.2,1.94-.52-.26-8-3.69-15.46-4-23.46,0-.59-2-.19-2,.52v3.26a15.71,15.71,0,0,0,2-.52c-.26-8.23-3.62-15.89-3.89-24.11l-1.91.52a7.13,7.13,0,0,0,4.11,4.1c.43.19,1.84,0,1.74-.71-1-6.8-4.85-12.53-7.17-18.9l-1.86.63c2.22,1.69,4,3.64,6.64,4.65.38.14,1.94,0,1.74-.72-2.25-7.78-8.18-13.73-10.43-21.5l-1.93.51a31.82,31.82,0,0,0,5.28,6.63c.36.37,2.16,0,1.87-.63-3.5-6.87-8-13.74-9.13-21.5l-1.86.63a26.28,26.28,0,0,0,3.91,3.91c.4.29,2,.1,1.86-.63A74.82,74.82,0,0,0,100.7,49.4c-.32-.59-2.17-.09-1.93.52,1.6,4.09,4.26,7.49,6.58,11.19.3.47,2,0,1.87-.63-2.86-9.9-8.8-18.59-11.08-28.68l-1.86.64A75.35,75.35,0,0,1,100.14,39c.34.43,2.1,0,1.86-.63C99.3,31.61,96.44,25,96.79,17.6L94.86,18c.49,1.77.65,3.39,2,4.67.48.45,2.3-.28,1.8-.74Z"/><path class="cls-3" d="M77.83,79.93c-4-4.12-2-13.61-1.89-18.8L74,61.65c.92,6.64,2.86,14.51,7.46,19.64.36.41,2.09,0,2.09-.61V65a17.74,17.74,0,0,0-2.16.52C82.71,70.8,83.81,76.15,87.87,80c.39.37,1.64,0,1.8-.5.22-.65.41-1.3.63-1.95l-1.94.4c.81,3.33,4,15.79,8.43,8.07l-1.93.4c1,4.4,4.31,17.85,9.75,8.72l-1.93.4c.69,3.6,2.16,19.11,7.09,19.11.31,0,1.3-.18,1.35-.61.17-1.32.48-2.59.65-3.91l-1.92.4c1.43,8.07,3.91,15.93,4.67,24.11,0,.53,2,.1,2-.51v-.66a19,19,0,0,0-2,.52c3.09,5.29,3.14,12.28,3.19,18.25,0,.47,1.85.13,1.85-.52v-4.56c0-.47-1.87-.12-1.9.4-.37,5.58,1.72,10.86,2,16.41,0,.49,2,.12,1.94-.52a41.84,41.84,0,0,0-2.6-15c-.23-.57-1.94-.06-1.93.52a28.3,28.3,0,0,0,.65,7.17c.14.56,2,.07,1.93-.52-.26-5.85-2.64-12.64-6.58-17-.32-.36-2,0-1.87.61a6.51,6.51,0,0,0,1.37,2.71c.29.38,2-.07,1.87-.62-2-7.15-7.67-13.53-13.1-18.34l-1.81.71c2.76,2.06,5.55,4,8.48,5.87.48.3,2.24-.4,1.8-.71-6.08-4.31-10.48-10.36-15.64-15.64l-1.68.77a39.83,39.83,0,0,1,11,5.8c.4.3,2.22-.13,1.81-.71a63,63,0,0,0-16.29-15.64l-1.69.78c1.54.84,3,1.76,4.57,2.61.41.22,2.13-.45,1.68-.78-4.21-3-7.5-7.37-12.5-9.19-.34-.13-2.14.21-1.69.77a9.93,9.93,0,0,0,4,2.68c.31.15,1.94-.12,1.74-.68-1.87-5.33-6.24-9.48-11.26-11.9-.48-.23-2.27.49-1.56.85l3.91,2c.35.18,2.15-.3,1.68-.77C74.6,86.4,71.55,83,68.06,79.93l-1.81.71c2.21,1.31.94.57,4,1.37.28.07,2-.11,1.75-.68-2.1-4.51-5.09-8.38-7.88-12.48l-1.51.82c2.4.34,4.2,1.62,6.34,2.57.31.14,2-.12,1.75-.68-.93-2.62-2.56-4.77-3.91-7.17l-1.75.68c6.06,2.54,7.42,10.2,12.26,14.27.46.38,2.23-.36,1.8-.71-4.93-4.14-6.27-11.79-12.5-14.41-.28-.11-2,.18-1.75.69,1.36,2.4,3,4.55,3.91,7.16l1.75-.68c-2.32-1-4.14-2.29-6.69-2.64-.32,0-1.9.24-1.51.81,2.74,4,5.69,7.86,7.76,12.29l1.74-.68a16.76,16.76,0,0,1-3.78-1.24c-.43-.25-2.29.29-1.81.71,3.5,3,6.54,6.47,9.78,9.78l1.68-.78-3.91-2-1.56.85A21.07,21.07,0,0,1,83.13,100.1l1.75-.69a9.65,9.65,0,0,1-3.79-2.54l-1.68.78c4.89,1.79,8.13,6.08,12.25,9.06l1.69-.78c-1.54-.84-3-1.77-4.56-2.61-.42-.23-2.13.48-1.69.78a62.79,62.79,0,0,1,16.29,15.64l1.81-.71A40.54,40.54,0,0,0,94,113.1c-.32-.12-2.18.27-1.68.78,5.15,5.28,9.56,11.33,15.64,15.64l1.8-.71c-2.93-1.82-5.71-3.8-8.47-5.87-.45-.33-2.25.32-1.81.71,5.4,4.79,11,11.06,13,18.15l1.86-.61a4.5,4.5,0,0,1-1.24-2.51l-1.87.61c3.87,4.31,6.21,11.1,6.46,16.85l1.93-.52a28.77,28.77,0,0,1-.65-7.17L117,149a41.84,41.84,0,0,1,2.6,15l1.94-.52c-.23-5.46-2.38-10.68-2-16.18a18.36,18.36,0,0,1-2,.41v4.56a15.71,15.71,0,0,0,2-.52c0-6-.07-13-3.16-18.25-.31-.53-1.83-.09-1.83.52v.65c0-.17,1.22-.34,1.86-.51-.76-8.19-3.17-16.05-4.6-24.12-.1-.53-1.88-.07-1.95.41-.17,1.32-.49,2.59-.66,3.91l1.35-.62c-1.42,0-3.15-6.16-3.55-7.41A95.67,95.67,0,0,1,104.61,95c-.12-.66-1.73.07-1.92.4-3,5-5.35-7.19-5.9-9.53-.15-.65-1.72.06-1.92.4-1.53,2.65-2.82-2.47-3.25-3.77-.55-1.67-.93-3.39-1.34-5.1-.15-.59-1.79,0-1.93.4-.22.66-.43,1.31-.65,2l1.86-.5c-4-3.79-5-9.09-6.26-14.24-.14-.58-1.74-.06-1.74.52V81.2c0-.21,1.06-.41,1.68-.62-4.52-5-6.29-12.91-7.2-19.45-.08-.55-2-.08-2,.52-.07,5.34-2.19,14.75,2,19,.41.42,2.2-.29,1.78-.71Z"/><path class="cls-3" d="M37.23,125.63c-3.61,2.2-7,4.55-9.42,8.08-.18.26,0,.49.3.53,6.75.93,10.53-6,16.36-7.87l-1-.48c-4.86,6.6-11.58,11.44-15.06,19-.18.41.65.44.83.4C36,144,39.39,137.39,45.77,135.5l-1-.49c-2,2.51-4.47,4.66-6.52,7.17-.53.65,1,.51,1.28.4,7.86-3.7,15.37-8.19,23.86-10.34l-.72-.75c-3.3,2.28-6.94,4-9.95,6.64-.43.39-.05.68.39.69a25.37,25.37,0,0,0,9.39-1.72c2.85-1,5.59-2.19,8.49-3A3.55,3.55,0,0,1,68.81,136a40.52,40.52,0,0,0-3.56,2c-.69.46-.2.88.46.8,4-.48,8-1.31,12-2a31.69,31.69,0,0,0,5.2-1A23.86,23.86,0,0,0,78.29,138c-.39.23-.55.67,0,.79,4.74,1.06,9.6.24,14.34,1.3l.73-1a18.62,18.62,0,0,0-5.3,2.21c-.37.2-.56.71,0,.79,4.06.6,8,1,11.56,3.39.38-.33.76-.81,1.15-.81H96.2c-.33,0-1.94.34-1.14.81,4.18,2.49,10.3,2.68,12.83,7.3.45-.27.9-.11,1.35-1.11h-2c-.29,0-1.75.58-1.27,1.13,4.25,4.9,8.81,9.65,12.38,15.1.34.52,1.91,0,1.86-.58a13,13,0,0,0-2-5.83c-.33-.57-2.12-.17-1.93.53a25.12,25.12,0,0,0,4.62,8.59c.35.46,2,0,1.87-.63-1.68-7.26-4-15.36-9.19-21-.36-.4-2.13,0-1.87.63.46,1.08.85,2.18,1.31,3.26l1.93-.52c-3.17-7.21-6.23-16.63-13.23-21.05-.42-.27-2.13.19-1.67.83,1.27,1.77,2.64,3.45,3.91,5.22l1.8-.75c-4.84-5.78-9.53-13.7-17.25-15.79-.33-.08-1.79.19-1.56.78,1.14,3,3.35,4.59,6.06,6.07l1.36-1c-7.88-1.89-14.47-10.9-23.12-7-.18.08-.87.48-.52.76,2.4,2,5.16,2.67,8.12,3.4.43.11,2.2-.58,1.36-1-6.76-3.24-17.19-6.85-24.17-2.42-.26.17-.58.53-.17.74,2.51,1.29,5.26,1.44,8,2,.43.09,2.21-.65,1.37-1-7.5-2.93-16.38-6-24.36-3.27-.26.09-1.31.61-.64.94,3.86,1.86,7.94,1.45,12.12,1.38.68,0,2.08-1,.76-1.08-4.91-.12-10.17-1-13.66,3.13a.3.3,0,0,0,.12.48L41.49,125l.77-.84a26.72,26.72,0,0,0-7,3.45c-.55.36-.41.76.21.82l.79.48c.37.53,2.24-.12,1.8-.75-.24-.32-.33-.63-.72-.71s6-2.62,5.16-2.35c.21-.06,1.18-.47.77-.85-3.92-3.59,7.15-3,9.15-3l.76-1.08c-3.88.06-7.73.52-11.34-1.23l-.65.94c7.3-2.46,15.73.57,22.57,3.25l1.36-1c-2.19-.46-4.42-.68-6.57-1.35a3.86,3.86,0,0,1,4-1.21,24.24,24.24,0,0,1,5,.5,41.87,41.87,0,0,1,11.22,3.69l1.37-1c-1.34-.31-2.67-.67-4-1.09-2.07-.42-1.82-1,.74-1.78,2.45.43,4.81,2,6.91,3.26,3.06,1.81,6,3.71,9.48,4.55.41.1,2.19-.52,1.36-1-2.59-1.41-4.58-2.83-5.67-5.66l-1.56.78c7.36,2,12,10,16.64,15.5.41.48,2.25-.13,1.8-.75-1.27-1.77-2.65-3.45-3.91-5.22l-1.67.84c6.82,4.32,9.74,13.61,12.84,20.65.29.66,2.18.07,1.93-.52-.46-1.08-.84-2.18-1.3-3.26l-1.87.64c5.09,5.52,7.4,13.57,9.06,20.73l1.86-.63a24.78,24.78,0,0,1-4.49-8.35l-1.93.51a13.07,13.07,0,0,1,1.95,5.87l1.86-.64c-3.56-5.44-8.12-9.85-12.38-14.75-.42.31-.85.16-1.27,1.16h2c.24,0,1.62-.53,1.34-1-2.68-4.9-8.78-5.35-13.22-8-.39.33-.77,0-1.15,1H100c.37,0,1.91-.64,1.15-1.15a16.68,16.68,0,0,0-5.8-2.49c-1.53-.37-8.9-.54-2.27-1.85.37-.08,1.78-.82.72-1.06a30.79,30.79,0,0,0-6.57-.68,56.41,56.41,0,0,1-6.22-.29c.14,0,3.6-1.88,4.11-2.05s.83-.95,0-.93c-5.31.14-10.43,1.27-15.65,2.16-4.27.73.37-.71,1.71-1.42a12.44,12.44,0,0,0,3.38-2.79c.41-.46-.53-.58-.77-.54a49.59,49.59,0,0,0-10.61,3.23c-1.77.68-11.48,4-5.57.09,2-1.34,4.21-2.44,6.22-3.83.86-.59-.09-.91-.72-.74-8.67,2.19-16.33,6.73-24.37,10.51l1.28.4c2-2.51,4.47-4.66,6.52-7.17.46-.57-.79-.56-1-.49-5.67,1.69-9.05,6.74-14.26,9.25a38.61,38.61,0,0,1,2.07-4.32,49.27,49.27,0,0,1,4.85-5.56,83.78,83.78,0,0,0,7.06-8c.43-.58-.75-.58-1-.49a23.43,23.43,0,0,0-6.9,4c-1,.76-2,1.49-3,2.19a4.49,4.49,0,0,1-3.94.92c1.91-2.78,5.2-4.65,8-6.37,1.12-.68-.58-.93-1.19-.55Z"/></svg>