<svg id="layer1" xmlns="http://www.w3.org/2000/svg" viewBox="0 0 631.12 259.25"><defs><style>.cls-1{fill:#6d4724;}.cls-2{fill:#4d8993;}.cls-3{fill:#423407;}</style></defs><path class="cls-1" d="M467.66,180.33a43.71,43.71,0,0,0,7.7,25.38,7.2,7.2,0,0,0,2.56,2.36,32.64,32.64,0,0,0,15.17,10.7c9,3,20.35,3,28.64-2.14a40.18,40.18,0,0,0,15.6-19c3.8-9.19,4.71-19.36,1.74-27.87a5.61,5.61,0,0,0,.59-5.42c-3.84-9.47-12.07-17.3-21.58-21.7-9.74-6.37-20.85-9.23-31.9-2.4C473.08,148.36,465.85,164.93,467.66,180.33ZM490.45,170c4.7-3.71,11.55-4.25,17.25-4.19a103.34,103.34,0,0,1,10.54.65l.47,0a10.87,10.87,0,0,0,1.17.63c.64.37,1.27.74,1.89,1.15l1.94,1.27c6,5.78,4,17.66.27,24.62-2.31,4.34-5.89,9.56-10.52,11.26-6.05,2.22-13.53,2.1-19.22-1.19C482.73,197.53,479.1,179,490.45,170Z"/><path class="cls-1" d="M160.83,190.8c4.24,19.8,20,37.34,41.33,32.45,14.67-3.37,24.05-15.59,27-29.66a5.76,5.76,0,0,0,2.32-1.58,12.56,12.56,0,0,0,2.94-8.79,7,7,0,0,0-5.08-6.67,7.93,7.93,0,0,0-1.8-3.12c-.28-.89-.57-1.77-.89-2.62a6.68,6.68,0,0,0,3.14-5.6c.22-18.34-12.08-34.13-30.92-33.35a38.73,38.73,0,0,0-36.15,30.64,6.9,6.9,0,0,0,.85,5.28,38.13,38.13,0,0,0-2.46,19A7.13,7.13,0,0,0,160.83,190.8Zm19.29-15.43c5-3.08,10.5-5.08,15.91-7.19a7.85,7.85,0,0,0,4.14-3.83,39.21,39.21,0,0,1,4.47,0c5.26,2.54,8.89,8.38,10.35,15,2.47,11.22-1.1,23.85-12.06,28.84-11.83,5.39-21.92-5.75-26.1-16.55C176.7,186,177.5,180.16,180.12,175.37Z"/><path class="cls-2" d="M96.36,164.6c.68,5,5.69,7.93,9.85,9.53l1.11.4a5.42,5.42,0,0,0,1.68,1c4.87,4.24,12,6.24,18.43,7.19,9.11,1.35,18.79,2.17,28,.92,3.67-.5,6.78-2.86,6.76-7a6.85,6.85,0,0,0-.48-2.36,14.35,14.35,0,0,0,3.95-8.11,7.61,7.61,0,0,0-.42-3.85,45,45,0,0,1,8.19-8.85c.72-.24,1.46-.47,2.2-.67,10.8-2.89,23.21-1.89,33.87,1.3,4.83,1.44,10,3.48,13.23,7.62,2.42,3.1,4,7,5.86,10.38,4.58,8.28,11.2,15.42,21.28,14.4a8.64,8.64,0,0,0,1.38-.25,39.53,39.53,0,0,0,7.46,1.84A139.48,139.48,0,0,0,280,189.29c13.38-.09,26.87,1.38,40.27,1.55,14.52.18,29,.06,43.54,0,4.18,0,8.4-.08,12.62-.12,15.05,2.83,30.09,5.4,45.62,4.21a6.9,6.9,0,0,0,2.69-.79c4.68.41,9.36.7,14.06.71a73.35,73.35,0,0,0,13.8-1.13,6.77,6.77,0,0,0,6.77-2c5.35-2.31,9.17-6.3,8.33-13.17.16-.43.32-.87.47-1.33a8.52,8.52,0,0,0,.74-6.18q1.06-2.1,2.18-4.17a74.36,74.36,0,0,1,17.27-14.57,7.36,7.36,0,0,0,2.05-1.94c12.3-2.11,25.19-1.19,37.39,1a56.92,56.92,0,0,0,7.76,5.31q1.44,1.65,3,3.17c2.18,6.19,4.2,12.45,6.48,18.59,2.64,7.1,13.42,6.45,13.37-1.89,0-1.15,0-2.31,0-3.46a5.8,5.8,0,0,0,1-4.12c-.31-2.88-.64-5.76-1-8.65-.14-4.21-.54-8.44-.87-12.67,0-.16,0-.32,0-.49a8.27,8.27,0,0,0-.12-1.35c-.53-7.55-.63-15.08,1.74-22.39a6.69,6.69,0,0,0,.35-2c4,1.25,9.27-1,9.18-5.86a7.48,7.48,0,0,0,.65-5.26,68.59,68.59,0,0,0-2.45-8.06,64.6,64.6,0,0,0-4.7-15.39c-1-2.25-3.65-3.42-5.94-3.49-3.83-.1-7.55-.67-11.32-.07-9.93-.13-19.88-.41-29.82-.53-7.54-.57-15.09-.78-22.58-.7q-12.06.14-24.11,1.2a7.46,7.46,0,0,0-2.91-.85c-1.35-.11-2.7-.16-4-.18-8.7-.63-17.32-2.72-26-3.17-7.13-.37-15.42,0-21.43,4a6.74,6.74,0,0,0-8.17-.15c-4.12-11.68-11.94-21.87-20.38-31.16a6.31,6.31,0,0,0,.94-.69c1-.38,2-.76,3-1.19,6.8-3.08,2.64-12.58-3.45-13-2.51-.18-5-.31-7.54-.43a5.54,5.54,0,0,0-4.55-4.07c-12.16-1.63-24.1-4.61-36.31-5.95-7.4-.81-15.87-1.53-23.42.38a6.45,6.45,0,0,0-4.1-1.31,251.18,251.18,0,0,0-27.4,1.88c-16.83-.12-34.73-.84-51.42,2.79-10.7.8-21.22,2.81-31.29,7.93C178.45,49,162.45,68.84,149.88,89.39a8,8,0,0,0-1.16.76l-.86.66a5.62,5.62,0,0,0-4.24,1.1c-20.89,15-41.72,31.17-44.14,59.17a6.13,6.13,0,0,0,.49,3.13A12.12,12.12,0,0,0,96.36,164.6Zm324.85-29c2.18-.06,4.37-.1,6.55-.14-.14.37-.26.74-.4,1.11C425.31,136.28,423.25,136,421.21,135.57ZM158.47,114.7a.6.6,0,0,0,.08-.08l1.38,0a5.57,5.57,0,0,0,1.9,1.69s0,0,0,0C160.72,115.84,159.59,115.29,158.47,114.7ZM248,53.17a71.05,71.05,0,0,0-4.36,17.06A50.31,50.31,0,0,0,243,83a113,113,0,0,0-21.48,1.82,8.08,8.08,0,0,0-5.14-2.39c-8.2-1-16.57-4.2-24.79-5.08a6.09,6.09,0,0,0-.17-.61,31.13,31.13,0,0,0,.33-3.51,6.64,6.64,0,0,0-.61-3.17c3.24-3.15,6.53-6.25,10-9.17a53.87,53.87,0,0,1,11.93-4.38C224.46,53.81,236.26,53.5,248,53.17Zm125.94,99c3.58.18,7.13.48,10.63.89l.58.08C381.39,152.94,377.64,152.6,373.92,152.13ZM325.62,60.9a22.49,22.49,0,0,1,1.12-5.28s0-.09.05-.13a8,8,0,0,0,2.41-2.14,33.35,33.35,0,0,0,5-1l5.18.57c9.87,1.07,19.79,1.56,29.71,1.69a182,182,0,0,1,14.41,16.48c3.66,4.84,7.45,10.42,9.63,16.4-10-.27-20,.88-30,1-9.4.14-24.32.4-31-6.33C327.13,77.11,325,68.5,325.62,60.9ZM314.93,80c-10.83,5.35-22.54,7.63-34.42,8.6a6.25,6.25,0,0,0-5.77-3.33c-5.72-.05-11.4-.48-17.08-1.08l-.38-.28c.41.32.06-.06-.17-.43A11.57,11.57,0,0,0,256.6,82c-.88-4.46.24-9.67,1.19-14,1-4.7,2.17-11.08,5.54-14.75,6.63-7.26,18.77-5.67,27.38-4.09,7.58,1.39,15,3.54,22.5,5.35A45.62,45.62,0,0,0,314.93,80Zm-60.28,92.76c.31-.08.63-.16.95-.22a28.57,28.57,0,0,1,3.26-.34c1.81-.08,3.63-.09,5.45,0l.94.31c-.51.1-1,.17-1.52.27a5.83,5.83,0,0,0-3.12,1.57c-.95-.18-1.89-.38-2.81-.62A24.13,24.13,0,0,1,254.65,172.78Z"/><path class="cls-3" d="M424.66,79.65c-.64-1.51-2.18-2.63-3.33-3.75-2.7-2.64-4.79-6-6.94-9.09-4-5.72-7.61-11.65-11.8-17.22-7.43-9.88-17.82-14-29.68-15.84-14.32-2.23-28.43-5.08-42.87-6.51-15.16-1.49-30.47-1-45.68-.76-28,.46-56.73-.58-83.24,10-21.68,8.65-33.76,31.1-48.25,48-.41.48,1.45.23,1.75-.12C168.8,67.82,180.23,47,200.7,37.43c13.56-6.34,29.65-8.27,44.41-9.32,13.4-1,26.88-.63,40.31-.86,14.47-.24,28.94-.47,43.38.81s28.3,4.41,42.53,6.45C384,36.32,394,41.2,401.7,51.5c3.83,5.1,7.18,10.56,10.76,15.83,1.65,2.42,3.39,4.78,5.19,7.09,1.46,1.88,4.15,3.55,5.08,5.75.2.49,2.09-.14,1.93-.52Z"/><path class="cls-3" d="M145.94,89.12c-16,7.21-27.74,20.49-37.39,34.77-4.06,6-7.75,11.89-9.7,18.9-1,3.62-3.08,11.05,1,13.62.61.38,2.37-.48,1.52-1-4.06-2.58-1-11.4.07-14.93,1.81-6,5.54-11.26,9-16.45,9.21-13.92,20.92-27,36.37-33.94,1.22-.55.12-1.36-.8-.95Z"/><path class="cls-3" d="M102.21,160.11c-.76-13.63,8.66-25.66,19.33-33.11,5.69-4,12.64-6.36,19.13-8.69a157.92,157.92,0,0,1,24.58-6.46c21.62-4,50.21-6.09,68,9.57,8.62,7.6,11.86,18.53,12.28,29.63.39,10.45,1.78,19.93,13.17,23,11.76,3.13,24.93.53,36.95,1.19,15.49.84,31,.39,46.53.31,6.4,0,12.8,0,19.2.22.61,0,2.1-.88.8-.92-16.07-.48-32.14,0-48.21-.06-7.49,0-14.95-.53-22.44-.75-6.52-.2-13,.35-19.56.36-6.74,0-14.64-.45-19.73-5.37-4.06-3.93-4.4-10.6-4.68-15.86-.56-10.83-2.18-20.4-9.25-29-12.78-15.61-35.53-16.31-54-15.34a161.86,161.86,0,0,0-39.2,7.25c-10.84,3.35-21.91,7.53-30.53,15.1-8.37,7.38-15,18.07-14.33,29.53,0,.47,2,.11,1.94-.52Z"/><path class="cls-3" d="M162.06,179.05c1.9-4.1,1.95-9,3.11-13.32a59.76,59.76,0,0,1,6.54-15.21c6.42-10.7,17.65-16.62,30-14.18,9.47,1.87,17.34,8.57,22.42,16.52,5.58,8.75,1.58,19.62,6.64,28.42,4,6.89,13.22,6.9,20.08,6.63,12.7-.5,25.43.85,38.1,1.72,12.83.89,25.73,1.69,38.57.57,5.85-.51,11.65-1.39,17.51-1.7,6.92-.36,14-1.9,20.81,0,.7.19,2.29-.83,1.16-1.15-5-1.39-10-1-15.06-.57-6.28.56-12.55,1-18.84,1.65-14.5,1.63-28.9,1-43.43,0-12.35-.83-24.85-2.35-37.23-1.78-6.42.31-13,.54-18.14-4-4.52-4-4.32-11.14-4.6-16.66-1-18.65-18.62-33.25-37.19-31.25-7.95.86-15.36,5.68-20.1,12a52.87,52.87,0,0,0-7.34,13.49,77,77,0,0,0-2.61,8.57c-.83,3.38-.78,7-2.27,10.17-.42.92,1.52.76,1.82.11Z"/><path class="cls-3" d="M161.29,178.47c-3.06.54-6.07,1.28-9.13,1.82-4.51.8-9.1,0-13.62-.4-6.72-.6-13.5-1.61-20.26-1.28-6.18.29-12.93.19-15.4-6.58-2.1-5.76,0-14.41,2-20,.23-.63-1.71-.38-1.93.25-2.25,6.26-3.42,13.67-2,20.25,1.08,5.09,6.36,6.75,10.85,7.16a72.11,72.11,0,0,0,8.94-.16c4.41-.15,9,.71,13.44,1.1,4.69.42,9.5,1.21,14.21,1.07,4.26-.13,8.45-1.47,12.63-2.2.9-.16,1.6-1.28.27-1.05Z"/><path class="cls-3" d="M101.35,161.43a22.18,22.18,0,0,0-7.12-.79c-.63,0-2.09,1-.79,1a19.41,19.41,0,0,1,6.35.7c.51.17,2.26-.62,1.56-.86Z"/><path class="cls-3" d="M101,170.31a27.17,27.17,0,0,1-7-.69,1.86,1.86,0,0,0-1.36.21c-.19.1-.66.54-.2.66a30.06,30.06,0,0,0,7.8.8c.64,0,2.08-1,.78-1Z"/><path class="cls-3" d="M94.13,159.37c-1-4.62-3.35-11.13-8.33-12.72s-7,5.42-7.61,8.8c-1,5.55-1.29,14.38,3.29,18.49,3.5,3.14,8.84,1.55,11.82-1.35.87-.85-1-1.21-1.62-.6-3.93,3.84-9.51,2.13-11-2.94-1.17-4-1.07-8.37-.68-12.45s3-11.66,7.82-6.45c2.41,2.61,3.68,6.32,4.4,9.73.19.92,2.12.42,1.93-.51Z"/><path class="cls-3" d="M93.49,180.12h1.34c.39,0,2-1,1.1-1.42-4.36-2.15-13.33-5.2-18.16-3.28-2.6,1-3,3.43-2.1,5.81,1.19,3.19,4.27,4.33,7.38,3.72,6-1.17,11-4.3,16.89-5.94,4.42-1.24,8.9.24,13.26,1,3.59.64,7.21,1.06,10.81,1.62,5.37.84,10.37,2.85,15.7,3.71,4.85.79,12,.23,15.84,3.74.6.55,2.42-.23,1.78-.82-4.18-3.83-11.67-3.48-16.92-4.22-4.16-.59-8-2.3-12.18-3.08-5.91-1.12-11.91-1.74-17.81-2.91a26,26,0,0,0-10.8-.27c-4.81,1-9.16,3.82-13.85,5.21-3.89,1.15-7.18.31-8.55-3.4-1.72-4.62,5.56-3.12,7.12-2.88a35.61,35.61,0,0,1,10.09,2.69c.36-.39.73-.29,1.1-1.29H94.18c-.86,0-2,2-.69,2Z"/><path class="cls-3" d="M145.37,187.27c0,3.5-.17,7,.09,10.53a71.25,71.25,0,0,1,.46,8.39c-.07,1.46-1.85,1.86-2.24.36a18.63,18.63,0,0,1-.39-4.08c-.14-4.74,2.68-9.39,2-14.05-.78-5.33-7.5-3.59-11-6.24-.45-.34-1.71-.05-1.72.62-.13,4.71-2.19,1.58-4.31-.31a6.59,6.59,0,0,0-4.72-1.93c-1.07,0-1.51,1.38-.19,1.34,3.72-.1,5,5.14,8.28,5.57,2.8.37,2.83-2.83,2.89-4.83l-1.73.62a13.69,13.69,0,0,0,7.11,2.63c5.94.47,2.62,8.76,1.9,12-.48,2.09-1.64,11,1.52,11.9,4.25,1.23,4.64-4.16,4.53-6.91-.23-5.27-.54-10.46-.54-15.75,0-1-1.95-.65-1.95.16Z"/><path class="cls-3" d="M118.45,181.49a4.24,4.24,0,0,1-.27,2.49c-.14.24.2.17-.22.1a3.26,3.26,0,0,1-.85-.33,8.69,8.69,0,0,1-3.46-3.52c-.34-.6-2.19.06-1.93.51,1.09,1.94,2.93,4,5.23,4.34a3.42,3.42,0,0,0,2.65-.71c1-.8.89-2.29.78-3.4,0-.55-2-.15-1.93.52Z"/><path class="cls-3" d="M155.69,191.67c1,0,1.73-.72,2.7-.75a1.07,1.07,0,0,0,1.05-.81c.05-.51-.5-.7-.91-.69a5.7,5.7,0,0,0-1.87.41c-.19.07-.38.16-.57.25,0,0-.33.13-.14.06-.27.1.16,0-.11,0-.44,0-1,.33-1.06.82s.5.71.91.69Z"/><path class="cls-3" d="M159.51,183.72c1.26,11.22,1.63,20.91,10.28,29.29a42.21,42.21,0,0,0,29.75,11.86c20.85,0,33.78-20.09,34.09-39.37.33-20-18.22-37.21-37.9-37.3-20.79-.09-36.59,16.18-36.3,36.85,0,.49,0,1,.07,1.46.05,1.05,2,.77,2-.13-1-19.73,12.76-36,32.89-36.71,19.71-.66,37,16.62,37.32,36,.17,8.94-3.18,18-8.21,25.24-6.26,9-15.59,12.9-26.43,12.48a39.33,39.33,0,0,1-27.59-13.5c-6.91-7.86-6.89-16.84-8-26.64-.11-.93-2-.45-1.94.51Z"/><path class="cls-3" d="M188,164.64c6.27-.6,11.1-2.49,17.13.63,4.64,2.4,7.61,7.11,9.09,12,2.64,8.71-.75,20.78-7.23,27-4.73,4.55-13,3.09-18.35.74a23.68,23.68,0,0,1-11.66-12.08c-5.37-11.73,4-21.24,12.6-27.88.88-.68-1.05-.73-1.55-.34-9.79,7.58-19.44,18.61-11.69,31.35,5.91,9.69,18.38,15.25,29.25,10.56,9.6-4.15,12.35-19.46,10.88-28.5-.95-5.83-4.87-10.76-9.8-13.76-6.22-3.79-11.84-1.4-18.41-.78-1,.1-1.6,1.23-.26,1.1Z"/><path class="cls-3" d="M196.13,179.45c-.23.22,1.64,2.14,2,2.35,1.35.8,4.59-.46,6-.59l-.84-.84c-.69,2-2.18,3.6-2.61,5.65s2.09,4.21,3.47,5.46l.82-1.29c-2.72,0-5.83-.15-8.13,1.5a4.31,4.31,0,0,0-1.27,2c-.77,2-1.62-.71-2.06-1.12-.72-.7,1.06-3-.61-4.17a13.92,13.92,0,0,0-2.82-1.52c-.94-.37-3.92-1-.69-2.78a19.53,19.53,0,0,1,4.24-1.47c.41-.11.87-.45.78-.93l1.49-2.88c1.13-.65.1-1.73-.87-1.17-2,1.13-3,2.19-2.55,4.56l.78-.93c-3.08.86-5.7,1.86-8,4.1a.58.58,0,0,0,.07.87c1.07.9,6.67,2.71,6.67,4.29,0,2.36-.2,2.73.51,5.08a.7.7,0,0,0,.63.46c1.5.17,2.71.18,3.77-1a5.13,5.13,0,0,0,.76-1.74c.87-2.28,5.29-1.74,7.17-1.74.64,0,1.45-.72.82-1.29-1.8-1.64-3.74-3.33-2.46-5.86a32.23,32.23,0,0,0,2-3.89c.2-.56-.33-.88-.84-.84-1.42.13-2.78.45-4.18.67-1.68.26-1.77-1.49-2.45-2.44s-2.24,0-2.85.55c-1,.89.56,1.58,1.29.91Z"/><path class="cls-3" d="M202.58,182.12h-1.34c-.35,0-1.14.19-1.14.71v.75c0-.17,1.14-.34,1.76-.5-1-.9-2.39-1.34-3.41-2.24-.5-.44-2.38.15-1.82.78a15.24,15.24,0,0,1,4,6.57l1.72-.74c-2.46-1.49-4.06-3.74-5.93-5.86l-1.79.77c2.38,2,3.83,4.85,5.39,7.45l1.48-.94c-2.74-1-4-4.45-5.75-6.54l-1.66.88c2.94,1.86,3.88,5.49,4.51,8.71l1.86-.65c-2.95-2.61-4.81-6.13-6.66-9.55l-1.86.64c1.47,2.35,3.12,4.46,3.29,7.32l1.73-.74a10.39,10.39,0,0,1-3.16-4.24c-.34-.71-2.23-.12-1.93.51a69,69,0,0,1,3.36,7.45l1.86-.64a17.36,17.36,0,0,1-4-7.32l-1.85.64a11,11,0,0,1,1.94,4.34L195,189a26.61,26.61,0,0,1-3.11-3.08c-.51-.55-1.09-1.46-1.87-1.65-.42-.11-1.29.05-1.49.51l0,.09c-.39.91,1.54.71,1.81.09a1,1,0,0,1,0-.1l-1.49.52c.51.12,1.32,1.4,1.66,1.77a23,23,0,0,0,2.7,2.62c.43.34,2.09.15,1.86-.64a11.15,11.15,0,0,0-2.09-4.6c-.39-.47-2-.08-1.86.64a17.85,17.85,0,0,0,4.11,7.58c.39.45,2.1.07,1.86-.64a68.16,68.16,0,0,0-3.36-7.45l-1.93.51a11.15,11.15,0,0,0,3.57,4.7c.49.34,1.77-.07,1.72-.74-.18-3-1.91-5.15-3.43-7.58-.35-.55-2.18.07-1.86.64,1.9,3.51,3.77,7.14,6.8,9.82.44.39,2,.13,1.86-.65-.68-3.48-1.76-7.17-4.91-9.17-.45-.28-2.21.23-1.66.88,2,2.4,3.22,5.72,6.37,6.87.47.17,1.88-.26,1.48-.94-1.56-2.61-3-5.5-5.39-7.45-.49-.41-2.36.12-1.79.77,1.95,2.22,3.63,4.52,6.19,6.06.43.26,1.91,0,1.73-.74a15.84,15.84,0,0,0-4.11-6.84l-1.79.78c1,.9,2.47,1.34,3.5,2.23.39.35,2,.2,2-.49v-.75c-1,.23-1.15.51-1.6.51h1.35c.77,0,2-1,.73-1Z"/><path class="cls-3" d="M194.72,176c6.27-.53,12.85,3.62,12.58,10.4-.2,5.08-3.66,10.48-9.19,9.87-4.11-.44-7.83-3.73-9.43-7.42a9.26,9.26,0,0,1-.49-5.67c.45-2.07,4.4-8.48,7.22-6.58.69.47,2.4-.48,1.5-1.09-3.21-2.16-6.81,1.37-8.71,3.78a10.25,10.25,0,0,0-2.08,7.9c.78,5.45,6.11,9.66,11.31,10.45,6.69,1,10.69-4.77,11.74-10.64,1.45-8.09-7.29-13-14.27-12.38-1.07.09-1.5,1.49-.18,1.38Z"/><path class="cls-3" d="M308.29,52c4.63-2.14,4.91,10.86,5,13.08.42,6.49,1.24,13.39-3.85,18.38S296,87,289.56,86.7c-7-.28-13.93.29-20.9-.13-6.74-.41-14.9-1.78-17.55-8.9-2.45-6.57,2.83-14,6.92-18.64,5.65-6.4,12.18-10.31,20.81-10.49,4.73-.1,9.49.66,14.18,1.2,5.88.67,11.31-.69,16.81,2.33.57.31,2.35-.5,1.54-.94-4.54-2.49-9.2-2.46-14.27-2.34-6.52.14-13-1.74-19.53-1.32-8.35.53-14.49,4.45-20.29,10.36-5.08,5.16-10.15,12.8-8.11,20.35,2.1,7.76,12.13,9,18.74,9.51,9.12.71,18.43.25,27.58.56C302,88.46,309,87,313,81.54c4.32-5.83,2.55-14.86,1.88-21.59-.42-4.24-1.61-11.43-7.38-8.76-1.22.56-.1,1.22.77.82Z"/><path class="cls-3" d="M247.86,52.87c5.62-1,.32,13.43-.61,15.45a77.34,77.34,0,0,1-7.12,12.11c-3.49,4.9-9.09,5-14.47,4.54-4.46-.35-8.9-.73-13.37-1-2.41-.14-14.71.29-15.4-2.18a16.1,16.1,0,0,1,2.61-13.55c5.58-8.14,16.5-12.18,25.61-14.6,2.44-.64,19-4.88,19.9-.29.12.65,2.06.17,1.93-.52-.56-2.89-6.71-2.36-8.64-2.29a69.32,69.32,0,0,0-19.62,4C206.53,58.71,191,68.07,195.19,83.15a.46.46,0,0,0,.37.26c9.69,1.66,19.57,1.75,29.34,2.64,5.7.52,12.08.26,16.09-4.48,4.93-5.85,9.35-13.66,10.8-21.22.64-3.36,1.41-9.4-3.66-8.53-.91.16-1.61,1.28-.27,1Z"/><path class="cls-3" d="M155.69,87.91c8.1,4.78,17.83,2.33,26.72,2.38,5.53,0,11.06.13,16.59.22q26,.43,52,1c24.18.47,48.36,1,72.54,1.13,14.06.06,28.12.08,42.18-.12,9.14-.12,19.61.78,28.56-1.5,1.19-.3.84-1.59-.35-1.29-4.84,1.24-10.32,1-15.27,1.13-8.61.29-17.23.36-25.85.41-14.4.08-28.8,0-43.21-.09-28.16-.1-56.34-1-84.51-1.55q-16.58-.32-33.15-.57-4.86-.08-9.72-.11c-8.28,0-17.46,2.35-25-2.1-.71-.42-2.42.55-1.5,1.1Z"/><path class="cls-3" d="M327.14,54c-2.14,8.18-5.27,21-.07,28.7,4,5.94,10.85,7.08,17.58,6.9,10.17-.27,20.13-1.94,30.36-1.63,6,.18,13.11,2.45,17.87-2.48,9.34-9.67-11.14-24.68-17.62-28.85-7-4.48-14.15-5.58-22.37-5.88-8.74-.32-17.47-1.88-24.89,3.7-.88.66,1.06.68,1.55.32,4.85-3.65,10-3.39,15.68-3.34a136.12,136.12,0,0,1,15.5,1c5.52.7,10.21,3.24,14.76,6.27a58,58,0,0,1,13.29,12.06c4,5,7.43,15.16-2.19,16.69-6.13,1-12.88-1.11-19.11-.75-7.38.43-14.72,1.41-22.08,1.78-6.73.33-13.53-1.21-17-7.46-4.3-7.68-1.38-19.32.7-27.3.18-.7-1.76-.41-1.93.25Z"/><path class="cls-3" d="M396.5,46c-3.24.07-6.61.4-9.25,2.46-3.69,2.86-.08,8.22,1.82,10.89,5.18,7.27,10.53,21.66,20.37,23.48,2.3.42,6.62-.78,7.8-3,3.05-5.83-1.89-9.58-5-14.1-4.25-6.24-8.66-19.72-17.58-20.44-.45,0-2.23.77-1.23.85,6.89.56,11.19,10.46,14.17,15.61a64.54,64.54,0,0,0,3.71,5.92c1.29,1.74,2.72,3.33,3.92,5.13,2.42,3.63,1.29,10.3-5.59,9s-11.73-12.24-14.95-17.42c-3.82-6.16-13.64-17.18,1-17.52.57,0,2.11-.88.82-.85Z"/><path class="cls-3" d="M401.19,83.15A35.16,35.16,0,0,1,402.5,90c.22,2.5-1,7.55-4.2,4.29A9.48,9.48,0,0,1,396,86.9a5.07,5.07,0,0,1,2.23-3.49c1.18-.86,1.41-1,2.64-.11a5.51,5.51,0,0,1,1.68,2.83c.18.52,2.1,0,1.93-.52-1.62-4.67-5.69-4.66-8.89-1.44-2.8,2.83-1.5,7.56.61,10.41s5.27,1.9,7.39-.27c2.44-2.49.37-8.88-.45-11.68-.15-.51-2.08,0-1.93.52Z"/><path class="cls-3" d="M414.57,91.63c9.66-.48,17.18-8.49,26.92-8.2.72,0,2.06-1,.76-1.08-9.92-.29-17.29,7.72-26.93,8.19-.7,0-2.05,1.15-.75,1.09Z"/><path class="cls-3" d="M423.78,79.71c31.94,8.87,65.29.22,97.8,3a132.55,132.55,0,0,0,21.18-.31c9.13-.71,17.33.52,22.68,8.64,3.42,5.2,2.68,11.17,3.51,17s3.33,13.42-.08,18.85c-.5.79,1.46.62,1.81.07,2.7-4.32,1.7-10,1-14.74-.94-6.19-.69-12.67-2.79-18.62-5-14-20.56-13-32.62-11.93-9,.82-17.88-.77-26.86-.76s-17.73.14-26.59.61c-19.57,1-38.67,2.51-57.84-2.82-.64-.18-2.28.78-1.17,1.09Z"/><path class="cls-3" d="M368.79,186.19c-1.4-10.29-2.66-21.27.23-31.41,3.14-11,12.44-17.67,22.85-20.83,9.67-2.92,19.84-5,29.66-7.28,14-3.31,28.05-4.74,42.39-5.58,24.63-1.45,49.25-3.69,73.95-3.4a72.86,72.86,0,0,1,19.33,2.59c4.39,1.26,3.74,4.23,2.43,7.72a21.79,21.79,0,0,0-1.64,7.63c0,5.32,2,10.32,2.26,15.64.35,6.58-.78,13.21-.87,19.79l1.57-.75-1.72-.62c-.54-.35-2.26.43-1.8.73,1.22.79.94.74,2.32.87.47,0,1.56-.11,1.56-.75.09-6.61,1-13.17.87-19.78-.11-7.14-3.15-13.09-1.54-20.32.5-2.27,2.32-4.72,2.08-7.11-.31-3.13-1.15-3-4-3.93A66,66,0,0,0,542,116.79c-13.06-.73-26.45.36-39.53.75-15.12.45-30.18,2.16-45.29,2.94a214.46,214.46,0,0,0-39.65,6.21c-10.17,2.48-20.93,4.35-30.75,8a33.08,33.08,0,0,0-18.67,17.62c-4.78,10.23-2.76,23.62-1.3,34.37.08.59,2,.15,1.94-.51Z"/><path class="cls-3" d="M559.3,122.18c3.13,0,6-.58,7,3,.77,2.93.48,6.16.22,9.13-.16,1.94-2,14.14-5.24,9.26-.36-.54-2.24.09-1.8.76,3.91,5.94,7.77-2.4,8.48-6a41.37,41.37,0,0,0,.47-12.61c-.69-5.7-3.43-4.68-8.35-4.68-.73,0-2,1.1-.75,1.1Z"/><path class="cls-3" d="M560.62,169.75c6.34-.16,12.55-1.87,18.9-2.11,4.4-.16,7.82.8,10.08,4.73,1.51,2.63,1.75,5.71-.75,7.77-3.85,3.17-11.2,2.6-15.87,2.2-2.26-.19-4.55.36-6.8.49-7.32.44-7-7.54-2.93-11.33.47-.43-1.39-.25-1.76.09-2.31,2.12-4.93,7.35-2.17,10.16,2.54,2.58,6.24,2,9.54,1.63,6.48-.78,13.19,1,19.42-1.93,5.93-2.79,5.5-10.06-.14-13.38-7.3-4.31-19,.61-26.71.8-.58,0-2.1.91-.81.88Z"/><path class="cls-3" d="M557.43,171.92c1.67,2.67,2.57,13.44-2.92,11.63-4.63-1.53-7.71-6.51-11.44-9.4-.54-.42-2.32.34-1.8.75,3.73,2.89,9.55,11.77,15.25,9.87a5.68,5.68,0,0,0,4-5.23c.17-2.44,0-6.23-1.3-8.37-.34-.54-2.22.08-1.8.75Z"/><path class="cls-3" d="M543.13,173.64c1.6-7.41-4.47-14.22-9.39-19a51,51,0,0,0-21.34-12,37.26,37.26,0,0,0-24.51,1c-6.66,2.74-10.53,9.53-13.26,15.8-3.3,7.58-5,15.74-8.14,23.38-4.66,11.29-17.84,10.75-28,9.73a251.67,251.67,0,0,0-27.05-1.36c-7,.05-14,0-20.95-.29-3.73-.17-7.46-.49-11.17-.9-1.89-.21-3.77-.49-5.65-.78-2.4-.37-1.35-.61-.54-1.09,1.11-.67-.61-.8-1.17-.47-1.22.73-1.42.48-1.73,1.86-.05.23.18.31.36.34,21.72,3.67,43.71,1.09,65.5,3.52,12.36,1.38,27.18,1.65,32.72-11.78,3-7.32,4.73-15.11,7.76-22.44,4.45-10.76,11.69-17,23.79-17.14,9.94-.13,20.1,4.17,27.9,10.15,6.16,4.73,14.82,13.12,13,21.71-.14.64,1.8.31,1.92-.28Z"/><path class="cls-3" d="M415.6,128c5.45,6.6,7.5,17.68,7.5,26.06v18.28c0,6.06-2.58,11.77-2.21,17.88.06,1,1.91.73,1.86-.14-.36-6.08,1.72-11.84,2-17.88.28-6.68,0-13.43,0-20.11,0-8-2.24-18.67-7.42-25-.57-.69-2.32.09-1.68.86Z"/><path class="cls-3" d="M417.22,182.2c-5.53,2.17-10.75,0-16.31.61-6.93.81-13.7,1.89-20.4-.7-.76-.29-2.27.79-1.14,1.22,6.45,2.49,12.92,1.81,19.64,1,6.47-.8,12.74,1.38,19-1.08,1.24-.49.13-1.41-.83-1Z"/><path class="cls-3" d="M362,182.36c-3.87-3.17-12.13-1.71-16.7-1.61-12.34.26-24.69.65-37.05,1-13.39.34-26.75.82-40.12-.2-7.21-.55-17.84,3.34-21.18-5.75-.21-.58-2.12,0-1.93.51,2.41,6.57,9.46,6.85,15.51,6.57,11.15-.52,22.34.38,33.53.17,13-.25,26-.32,39-1.28,4.7-.34,9.37,0,14.07-.1,3.7-.09,10-1.06,13.07,1.45.47.38,2.24-.37,1.81-.72Z"/><path class="cls-3" d="M320.48,93.74c2.31,4,0,11.2-.84,15.41-1.24,6.49-1.51,12.93-2.05,19.52-1.45,17.61-1.91,35-1.91,52.64,0,1,1.95.67,1.95-.16,0-8.91-.12-17.84.05-26.75.19-9.92,1.4-19.79,2.17-29.67A168.12,168.12,0,0,1,322,106.66c.75-4,2.43-9.93.23-13.76-.42-.72-2.27,0-1.78.84Z"/><path class="cls-3" d="M243,89.66c-.43,6.14-3.52,11.4-3.5,17.66,0,5.76,1,11.64-1.16,17.16-.41,1.06,1.53,1.1,1.86.26,2-5.15,1.49-10.65,1.29-16.06-.24-6.83,3-12.51,3.47-19.15.08-1-1.89-.79-2,.13Z"/><path class="cls-3" d="M261,103.36a75.46,75.46,0,0,1-8.75.68c-1.29,0-2.57,0-3.86,0-.63-.42-.36-.82.82-1.19a8.91,8.91,0,0,1,4.31-1.32,20.49,20.49,0,0,1,6.38.67c3,.71-4.57,1.45-3.56,1.35a19.8,19.8,0,0,1-6.41-.65l.87-.7a14.85,14.85,0,0,1,2.89-.44,20.12,20.12,0,0,1,3.38.08,14.67,14.67,0,0,1,3.08.64c3.11.91,0,1.54-1.46,1.81-3.65.69-8.51.29-11.76-1.65-.19.19-.38.39-.56.59,3.39-1.22,7.18.29,10.31,1.63.45.19,2.21-.52,1.58-.79-4.06-1.73-8.3-2.89-12.58-1.35-.09,0-.89.4-.57.59,4.81,2.87,13.9,3.29,18.49-.28.08-.06.36-.28.16-.39-4.63-2.73-11.88-2.41-16.46.28-.2.11-.34.36,0,.45,5.21,1.5,10.57,1.47,15.49-1,.18-.09.65-.43.22-.55-5.57-1.67-13-2.23-17.15,2.68-.29.34.25.37.47.37a101.48,101.48,0,0,0,14.37-.78c.81-.11,1.7-1,.34-.78Z"/><path class="cls-3" d="M339.64,104.58c-4.78,0-10,.69-14.15-2.11-.12.35-.23.7-.34,1.06,3.92-2,8.77-2.06,12.3.77.28-.4.56-1.18.85-1.18H327.53c.17,0,.35.69.53,1,3.47-2.26,6.68-.55,10.25.21l.15-1.15c-3.3,1.59-7.81,1.08-11.14-.24-.22.43-.44,1.13-.66,1.13H332c1.07,0,1.51-1,.2-1h-5.39c-.65,0-1.61.89-.66,1.26,4,1.57,9.2,1.78,13.1-.1.43-.21.91-1,.15-1.14-4.65-1-8.32-2.74-12.64.07-.77.5-.11.91.53.91H338.1c.55,0,1.51-.52.85-1.05-4.12-3.3-10.1-3-14.63-.66-.38.19-.85.75-.34,1.09,4.58,3.07,10.23,2.42,15.47,2.38,1.07,0,1.51-1.31.19-1.3Z"/><path class="cls-3" d="M510.41,159.44c6.58-1,12.49,8.32,15.13,13.27,3.06,5.78,3,13.33,2.14,19.6-1.93,14.45-14.41,23.56-28.31,17.34-10.87-4.85-18.2-16.78-17.83-28.58.23-7.37,3.93-14.92,10.73-18.2,5.64-2.71,12.71-2.35,18.81-2.69,1-.05,1.59-1.18.25-1.11-7,.39-14.32.31-20.79,3.43-6.7,3.22-10,10.6-10.84,17.62-1.74,14.16,9.09,28,22.23,32,13.58,4.2,24.87-6,27.47-18.78,1.5-7.42,1.06-16.43-3-23-3.24-5.28-8.65-13.08-15.77-12.05-.94.14-1.59,1.31-.25,1.12Z"/><path class="cls-3" d="M504.85,174.78c.33,4.57,4.36,5.35,8.21,4.64l-.72-.39c-1.19,1.34-2.46,2.77-2.76,4.59-.16.91,2.61,5.69,2,5.86-3.42,1-7.12.74-10.53,1.81l1.06.22c.18-2.14,1.35-4.93-.06-6.9s-3.95-1.88-5.38-3.73l-.81.72c2.19-.56,4.69,0,6.66-1.35A18,18,0,0,0,506.7,176c.44-.59-1.46-.34-1.76.07a28.31,28.31,0,0,1-2.18,2.58c-2,2.08-4.62,1.59-7.13,2.23-.23.06-1.09.35-.81.72a7.72,7.72,0,0,0,3.43,2.35c3.49,1.5,2.15,4.86,1.9,7.88,0,.46.82.29,1.06.22,3.69-1.17,7.8-.75,11.45-2.11,1.29-.48,1-1.64.52-2.71-.69-1.55-1.89-2.72-1.58-4.57.23-1.37,1.61-2.67,2.51-3.68.38-.43-.52-.42-.72-.39-3.55.65-6.33-.52-6.6-4.3,0-.46-2-.09-1.94.51Z"/><path class="cls-3" d="M507,178.64l2,2.24c.48.54,2.33-.18,1.78-.79s-1.34-1.49-2-2.23l-1.65.88a7.76,7.76,0,0,1,2.49,3.49l1.33-.84c-2-.09-3.13-1.16-4.19-2.79-.34-.52-2.08,0-1.86.65.75,2.24,1.86,4.33,2,6.71l1.86-.65a14.14,14.14,0,0,1-2.62-5.08l-1.55.81c3.62,1.09,4.79,6,4.33,9.24l1.73-.6a9.77,9.77,0,0,1-4.51-6.47l-1.72.75c1.91.85,2.28,2.13,1.81,4.08l1.86-.5a11.57,11.57,0,0,1-4-6.57l-1.72.75c2.91,1.89,4.35,6.86,3.15,10.05l1.87-.5a30.7,30.7,0,0,1-4-8.06l-1.93.51a8.9,8.9,0,0,1,.67,3.58l1.93-.37a2.15,2.15,0,0,0-.74-1.62c-.47-.55-2.32.16-1.79.78a1.36,1.36,0,0,1,.6,1.36c0,.67,1.94.28,1.94-.37a9.88,9.88,0,0,0-.68-3.87c-.28-.71-2.13-.23-1.93.51.81,3.05,2.49,5.66,4.11,8.33.37.61,1.68,0,1.86-.5a10,10,0,0,0-3.57-10.81c-.43-.28-1.9,0-1.73.75a12.07,12.07,0,0,0,4.11,6.84c.49.39,1.7.19,1.87-.5.55-2.27-.05-3.89-2.23-4.86-.44-.19-1.92,0-1.73.75a10.51,10.51,0,0,0,4.92,6.94c.45.27,1.65,0,1.73-.6.54-3.89-1-8.89-5.1-10.13-.4-.12-1.76.16-1.55.81a14.69,14.69,0,0,0,2.77,5.35c.44.52,1.91.07,1.86-.65-.17-2.38-1.28-4.47-2-6.7l-1.86.65a6,6,0,0,0,5.24,3.17c.31,0,1.59-.27,1.33-.84a8.79,8.79,0,0,0-2.9-4c-.45-.32-2.21.27-1.65.88l2,2.24c.48.54,2.33-.18,1.78-.79s-1.34-1.49-2-2.23c-.48-.54-2.33.18-1.78.78Z"/><path class="cls-3" d="M509.53,173c9,.53,7.17,19.24-1.45,19.86-5.36.38-10.35-4.73-11.75-9.48-2-6.85,8.75-15,14-9.18.61.67,2.44-.12,1.77-.86-4.75-5.3-14.07-.92-17,4.21-4,6.92,3.56,14.68,9.8,16.41,13.7,3.82,17.26-21.7,5.33-22.4-1,0-2,1.36-.66,1.44Z"/><path class="cls-3" d="M529.82,154.74c10.5,11,12.19,29.18,8.08,43.18-6.16,21-34.33,27.48-52.25,17.87-17-9.09-18-32.86-11.39-48.75a30.85,30.85,0,0,1,26.22-18.81c9.61-.79,19.44,2.43,28,6.51.52.25,2.06-.55,1.82-.66-16.5-7.88-37-10.69-51.16,3.22-13.77,13.53-15,42.19-.47,55.55,8,7.42,19.68,9,30.1,7.53,8.47-1.17,18.26-4.49,24.35-10.73,12.27-12.57,10.89-36.69,2.34-50.74a28.23,28.23,0,0,0-3.81-4.83c-.35-.37-2.13.34-1.82.66Z"/><path class="cls-3" d="M563.84,159.36c2.88-.68,12.65-4.45,13,.52l.58-.65c-5.48,1.87-10.37,1.08-15.68-.81-.58-.21-2.33.64-1.54.92,6.16,2.2,11.73,2.81,18,.68.27-.1.61-.33.59-.65-.48-6-12.09-1.7-15.23-1-1.18.28-.91,1.23.25,1Z"/><path class="cls-3" d="M564.28,150.57a87.31,87.31,0,0,1,12.79-1.49l-.86-.54c-.93,5.05-11.41.71-14.62.06-.73-.15-2.29,1-1.14,1.19,4.22.85,16.37,5.86,17.7-1.44.09-.48-.55-.54-.87-.53a87.47,87.47,0,0,0-12.79,1.49c-1,.16-1.53,1.47-.21,1.26Z"/><path class="cls-3" d="M566,140.75a36,36,0,0,1,6.14.06,6.27,6.27,0,0,1,1.41.45c1.6.63.51,1.41-.63,1.63-1.54.3-3.13-.62-4.28-1.51-.51-.38-2.27.37-1.81.73,3.06,2.35,7.08,2.43,9.87-.37a.25.25,0,0,0,0-.36c-3-2.23-6.46-1.66-9.93-1.62-.66,0-2.08,1-.78,1Z"/><path class="cls-3" d="M570.38,130.13c.83-.54,1.88-1.14,2.88-.71a1.93,1.93,0,0,1,1.1,1.79c0,3.06-4.05,3.39-6.24,3.26l.24.87a8.36,8.36,0,0,1,5.08-1.23c.34,0,1.74-.35,1.27-.94s-.8-1.54-1.35-2.24c-.42-.54-2.28.14-1.79.77s.8,1.54,1.35,2.23l1.26-.94a11.72,11.72,0,0,0-7,1.75c-.52.36-.42.83.23.86,3,.18,8.91-.61,8.91-4.74a2.63,2.63,0,0,0-1.92-2.55c-1.78-.54-3.72.25-5.2,1.21-1.1.71.57,1,1.21.61Z"/><path class="cls-3" d="M569.55,120.13l-.67.74c-.32.36.27.54.51.55a1.74,1.74,0,0,0,1.28-.52l.67-.75c.32-.35-.27-.54-.51-.54a1.7,1.7,0,0,0-1.28.52Z"/><path class="cls-3" d="M98.11,165.25l-2-2.24c-.34-.37-2.14.32-1.82.67l2,2.24c.34.37,2.15-.31,1.82-.67Z"/><path class="cls-3" d="M96.41,166c.73.11,1.28.64,2,.75l1.43-.75c-1.86,0-3.72,0-5.1-1.43-.34-.35-2.1.36-1.83.64,1.51,1.53,3.66,1.55,5.67,1.55a2.83,2.83,0,0,0,1.18-.27c.13-.06.69-.41.25-.48-.73-.1-1.29-.64-2-.74a2.61,2.61,0,0,0-1.35.25c-.13.06-.69.42-.24.48Z"/><path class="cls-3" d="M222,124.94a24.24,24.24,0,0,0-8.21-6.83c-.7-.39-2.42.56-1.5,1.08a23.32,23.32,0,0,1,7.94,6.58c.48.67,2.33,0,1.77-.83Z"/><path class="cls-3" d="M217.94,124.28c-3.68-1.72-6.76-4.44-10.1-6.7-.45-.31-2.08.48-1.82.65,3.34,2.26,6.42,5,10.1,6.71.51.24,2-.56,1.82-.66Z"/><path class="cls-3" d="M213.21,124.23c-2.6-2.58-6.2-4-8.75-6.7-.46-.49-2.29.22-1.79.75,2.54,2.71,6.15,4.13,8.75,6.71.48.47,2.3-.25,1.79-.76Z"/><path class="cls-3" d="M208.38,123.45c-3.78-1-6.8-3.75-10-5.9-.51-.34-2.21.43-1.81.71,3.25,2.19,6.35,5,10.22,6,.51.13,2.24-.67,1.56-.84Z"/><path class="cls-3" d="M202.13,122.59c-3.19-.79-5.76-2.81-8.57-4.41-.55-.31-2.33.49-1.54.94,2.94,1.66,5.6,3.7,8.93,4.53.62.15,2.28-.78,1.18-1.06Z"/><path class="cls-3" d="M195.85,121.81a20.31,20.31,0,0,1-9-2.89c-.58-.32-2.36.51-1.54,1a21.88,21.88,0,0,0,9.82,3.07c.76,0,2-1.1.74-1.13Z"/><path class="cls-3" d="M187.78,121.83a21.19,21.19,0,0,1-11.05-3.65c-.53-.34-2.31.44-1.54.94a22.79,22.79,0,0,0,11.84,3.8c.73,0,2.06-1.06.75-1.09Z"/><path class="cls-3" d="M178.36,122.6c-1.67,0-3.46.09-5-.68-.54-.27-2.32.52-1.55.91,1.77.88,3.86.81,5.78.81a1.65,1.65,0,0,0,1.28-.51c.27-.37-.23-.53-.52-.53Z"/><path class="cls-3" d="M170.81,123.51a12.05,12.05,0,0,0-5.22-1.6c-.61,0-2.09.89-.8.93a9.93,9.93,0,0,1,4.21,1.38,1.58,1.58,0,0,0,1.26,0c.09,0,.91-.46.55-.66Z"/><path class="cls-3" d="M400.36,78c-5.49-7.74-9.67-16.35-15.87-23.58-6.87-8-16.22-10.1-26.39-11.08-26.91-2.58-54.49-2.25-81.46-1.12-20.73.86-41.27,1.58-60.63,9.78-13.69,5.79-26.76,16.19-24.18,32.6.1.65,2,.2,1.93-.52-2.77-17.67,12.71-27.43,27.14-33C241.21,43.38,263.61,43.74,285,43a614.37,614.37,0,0,1,70.38,1.31c6.14.49,12.85,1.34,18.51,3.89,4.25,1.92,7.59,5.53,10.48,9.08,5.42,6.68,9.19,14.54,14.15,21.54.38.53,2.25-.12,1.8-.76Z"/><path class="cls-3" d="M311.51,36.12c-2.63,1.51-4.78,3.7-7.4,5.21-1.14.65-.1,1.72.86,1.17,2.63-1.52,4.78-3.7,7.41-5.22,1.13-.65.1-1.72-.87-1.16Z"/><path class="cls-3" d="M305.46,37.61c-2.63,1.44-5.19,2.75-8.24,2.84-1.11,0-1.48,1.48-.17,1.44,3.41-.09,6.34-1.5,9.27-3.12,1.15-.63.11-1.7-.86-1.16Z"/><path class="cls-3" d="M299.64,37.49a41.53,41.53,0,0,0-8.33,3.82c-1.14.63-.11,1.76.88,1.21A39.75,39.75,0,0,1,300,38.89c1.18-.35.81-1.76-.38-1.4Z"/><path class="cls-3" d="M292.76,38c-1.71.67-3.45,2-5.31,2.07-.52,0-2.11.85-.83.79,2.51-.11,4.54-1.51,6.81-2.4,1.28-.5.07-.75-.67-.46Z"/><path class="cls-3" d="M285.25,38.33a8,8,0,0,1-3.52,1.35c-1.12,0-1.47,1.53-.15,1.49a10.45,10.45,0,0,0,4.55-1.63c1.15-.63.11-1.75-.88-1.21Z"/><path class="cls-3" d="M278.37,38.67A14.14,14.14,0,0,0,274.82,41c-.77.82,1.12.74,1.54.29a12.91,12.91,0,0,1,3.19-2.11c.26-.14.59-.54.18-.72a1.6,1.6,0,0,0-1.36.19Z"/><path class="cls-3" d="M271,39a5.81,5.81,0,0,0-3.58,1.91.52.52,0,0,0,.23.89,1.39,1.39,0,0,0,1.37-.37,4.36,4.36,0,0,1,1-.75,2.7,2.7,0,0,1,.84-.33c.41,0,1-.29,1.07-.75s-.53-.61-.89-.6Z"/><path class="cls-3" d="M261.53,41.12h-2a1.32,1.32,0,0,0-1.05,1.06,1,1,0,0,0,.9.94h2a1.32,1.32,0,0,0,1.06-1.06,1,1,0,0,0-.91-.94Z"/><path class="cls-3" d="M205.48,49.93c-2.52,2.93-3.56,6.75-6.06,9.68-.76.88,1.11.89,1.56.37,2.51-2.94,3.55-6.76,6.06-9.69.75-.88-1.12-.88-1.56-.36Z"/><path class="cls-3" d="M199.24,54c-.73,2.47-1.3,5-2,7.45-.18.61,1.74.33,1.92-.27.73-2.47,1.29-5,2-7.45.18-.61-1.75-.33-1.92.27Z"/><path class="cls-3" d="M193.85,54.7a73.89,73.89,0,0,1-2.7,11.17c-.23.67,1.71.42,1.94-.24a74.78,74.78,0,0,0,2.69-11.17c.14-.75-1.81-.43-1.93.24Z"/><path class="cls-3" d="M188.45,59.87c0,3,.53,5.91-.62,8.75-.42,1,1.52,1,1.85.22,1.21-3,.77-6,.72-9.12,0-1-2-.72-2,.15Z"/><path class="cls-3" d="M184.1,63.59v9.68c0,1,2,.76,2-.13V63.45c0-1-2-.76-2,.14Z"/><path class="cls-3" d="M180.1,71v8.19c0,1.07,2,.82,2-.12V70.91c0-1.07-2-.82-2,.12Z"/><path class="cls-3" d="M176.1,76.44v4.47c0,.49,2,.16,2-.51V75.93c0-.5-2-.16-2,.51Z"/><path class="cls-3" d="M317.79,93.73c2.19,3.64.34,11.52.18,15.49-.29,6.89-.27,13.8-.27,20.69,0,1,1.95.62,1.95-.17,0-7.53,0-15.06.35-22.58.17-4,1.82-10.52-.44-14.25-.41-.69-2.27,0-1.77.82Z"/><path class="cls-3" d="M317,98.79q1,33.52,2,67.05c0,.46,1.95.12,1.93-.51q-1-33.53-2-67.05c0-.46-2-.12-1.93.51Z"/><path class="cls-3" d="M317.43,159.71a56.52,56.52,0,0,1-6.73.74c-1.07,0-1.52,1.35-.2,1.33a56.55,56.55,0,0,0,6.73-.75c1-.14,1.52-1.5.2-1.32Z"/><path class="cls-3" d="M314.29,162.35a5.29,5.29,0,0,1-4.13-.08,1.65,1.65,0,0,0-1.25.08c-.07,0-.91.42-.56.6,2.09,1,4.5.65,6.63-.09.12,0,.87-.37.57-.59s-.94,0-1.26.08Z"/><path class="cls-3" d="M317.44,166.92c-2.2,1.09-4.51.37-6.73-.24-.47-.13-2.19.62-1.57.79,3.26.9,6.29,1.33,9.43-.24,1.15-.57-.64-.56-1.13-.31Z"/><path class="cls-3" d="M285.14,162.05c-4.5.84-8.61,3.54-13.21,3.71-.74,0-2.05,1.19-.75,1.14,4.9-.19,9-2.85,13.71-3.74.93-.17,1.58-1.36.25-1.11Z"/><path class="cls-3" d="M277.22,160.69c-3.63,1.65-7,3.78-10.77,5.21-1.26.49-.11,1.2.78.85,3.74-1.43,7.13-3.55,10.77-5.21,1.22-.56.11-1.25-.78-.85Z"/><path class="cls-3" d="M270.05,161.29c-2.48.7-4.92,1.54-7.4,2.23-1.17.33-.87,1.48.31,1.15,2.48-.7,4.92-1.54,7.4-2.24,1.17-.33.87-1.47-.31-1.14Z"/><path class="cls-3" d="M263.72,159.79c-1.47.73-3.27.6-4.87.61-1.12,0-1.48,1.43-.17,1.43a13,13,0,0,0,5.9-.88c1.18-.59.12-1.65-.86-1.16Z"/><path class="cls-3" d="M258.84,158.89a2.74,2.74,0,0,1-1.89-.44,1.1,1.1,0,0,0-1.31-.17c-.31.15-.8.68-.45,1a4.61,4.61,0,0,0,3.5,1.05,1.09,1.09,0,0,0,1.06-.8c.05-.51-.51-.67-.91-.67Z"/><path class="cls-3" d="M369.4,148.85a14.72,14.72,0,0,0-3.37-3,1.56,1.56,0,0,0-1.25.07c-.09,0-.9.42-.56.62a14.72,14.72,0,0,1,3.37,3c.36.41,2.18-.28,1.81-.69Z"/><path class="cls-3" d="M368.59,151.73a14.34,14.34,0,0,1-5.26-3.65c-.42-.45-2.26.24-1.8.73a15.13,15.13,0,0,0,5.51,3.81c.54.21,2.31-.59,1.55-.89Z"/><path class="cls-3" d="M363.88,152.46c-1.46-.85-2.59-2.14-4-3-.54-.31-2.32.47-1.54.92,1.45.85,2.58,2.14,4,3,.53.31,2.32-.47,1.54-.92Z"/><path class="cls-3" d="M363.86,156.1q-2-1.11-4-2.23a1.33,1.33,0,0,0-1.38.13c-.3.21-.55.71-.12.95l4,2.23a1.3,1.3,0,0,0,1.38-.13c.29-.21.54-.71.12-1Z"/><path class="cls-3" d="M361.48,158.41a7.52,7.52,0,0,1-3.65-.7c-.48-.24-2.26.48-1.56.85a9.28,9.28,0,0,0,4.42.79,1.78,1.78,0,0,0,1.28-.5c.3-.35-.25-.44-.49-.44Z"/><path class="cls-3" d="M361,164.45c-3.48-.17-6.25-2.75-9.14-4.41-.48-.27-2.06.52-1.82.66,3.11,1.79,6,4.35,9.71,4.53.4,0,2.21-.73,1.25-.78Z"/><path class="cls-3" d="M417.42,141.78c-.25.25-.84.21-1.17.23-.53,0-1.05,0-1.58,0a1.9,1.9,0,0,0-1.29.49c-.3.34.27.41.49.41,1.73,0,4,.06,5.32-1.23.34-.32-.29-.42-.48-.41a2,2,0,0,0-1.29.48Z"/><path class="cls-3" d="M419.06,145.12h-5.39c-1.12,0-1.46,2-.15,2h5.38c1.13,0,1.47-2,.16-2Z"/><path class="cls-3" d="M418.4,149.12h-4c-1.08,0-1.5,1-.18,1h4c1.08,0,1.49-1,.18-1Z"/><path class="cls-3" d="M418.93,154a9.48,9.48,0,0,1-5.77-1.42c-.45-.32-2.11.46-1.82.66a10.52,10.52,0,0,0,6.34,1.56,2.63,2.63,0,0,0,1.37-.36c.3-.2.26-.44-.12-.44Z"/><path class="cls-3" d="M418,157.12h-4.72c-.44,0-1,.54-1.27.95a.8.8,0,0,0,.55,1.05h4.71a2,2,0,0,0,1.27-1,.8.8,0,0,0-.54-1Z"/><path class="cls-3" d="M417.71,162.12h-3.37c-1.13,0-1.45,2-.15,2h3.37c1.13,0,1.46-2,.15-2Z"/><path class="cls-3" d="M417.33,171.62c0,.17-.13.69-.29.7-.42,0-1,.3-1.06.79s.51.67.9.64a2.56,2.56,0,0,0,2.41-2.28c0-1-1.91-.74-2,.15Z"/><path class="cls-3" d="M416.92,177.11c-1.86,0-3.72,0-5.11-1.42-.34-.36-2.11.35-1.82.65,1.51,1.53,3.66,1.56,5.67,1.56a2.66,2.66,0,0,0,1.37-.37c.3-.19.26-.42-.11-.42Z"/><path class="cls-3" d="M554.67,139.77A36.6,36.6,0,0,1,552,151.6c-.13.37,1.73.16,1.91-.34a37.42,37.42,0,0,0,2.7-12c0-.31-1.92-.05-1.93.52Z"/><path class="cls-3" d="M552,142.6c-.07,3.48-1.5,6.47-2.69,9.69-.26.7,1.69.46,1.94-.22,1.19-3.21,2.61-6.21,2.69-9.69,0-.86-1.92-.48-1.94.22Z"/><path class="cls-3" d="M547.27,143.49c1.38,2.71-.9,5.95-2.63,7.93-.54.62,1.4.48,1.8,0,1.82-2.08,4.22-5.61,2.76-8.46-.33-.65-2.21,0-1.93.51Z"/><path class="cls-3" d="M543.23,145c.58,2.1-.15,3.52-1.83,4.8-.34.25-.19.61.18.69a1.74,1.74,0,0,0,1.37-.37c1.91-1.46,2.88-3.23,2.21-5.63-.19-.69-2.12-.16-1.93.51Z"/><path class="cls-3" d="M537.2,145.34c-.52,1.15-1.06,2.56-2.2,3.24s-.1,1.81.88,1.23a8.47,8.47,0,0,0,3.18-4.21c.47-1-1.48-1.1-1.86-.26Z"/><path class="cls-3" d="M463.86,151.82c1.33,1.81.51,4.89.1,6.89a23.2,23.2,0,0,1-2.8,7.57c-.51.81,1.44.68,1.81.1a25.55,25.55,0,0,0,2.93-7.89c.5-2.18,1.2-5.47-.25-7.45-.42-.58-2.29.1-1.79.78Z"/><path class="cls-3" d="M459.75,153.18a26.06,26.06,0,0,1-2.64,14.57c-.47.92,1.48.82,1.83.14a27,27,0,0,0,2.74-15.23c-.09-.79-2-.33-1.93.52Z"/><path class="cls-3" d="M455,153.77c-.05,4.53-.56,9.17-2.63,13.26-.45.88,1.5.71,1.81.09,2.13-4.2,2.71-8.9,2.76-13.56,0-.87-1.94-.48-1.94.21Z"/><path class="cls-3" d="M450.37,154.31c-2.14,5-2.82,10.53-4.71,15.65-.38,1,1.56,1,1.84.19,1.89-5.12,2.58-10.62,4.71-15.64.43-1-1.52-.95-1.84-.2Z"/><path class="cls-3" d="M443.59,156a27.59,27.59,0,0,1-2.63,12.5c-.47.92,1.48.82,1.82.15a28.26,28.26,0,0,0,2.75-12.84c0-.92-1.93-.57-1.94.19Z"/><path class="cls-3" d="M437.53,159.72a12.72,12.72,0,0,1-1.28,6.55c-.5.87,1.46.76,1.82.12a13.42,13.42,0,0,0,1.41-6.86c0-.91-2-.55-2,.19Z"/><path class="cls-3" d="M432.15,162.7a4.76,4.76,0,0,1-1.17,2.67c-.78.89,1.09,1,1.58.43a5.88,5.88,0,0,0,1.53-3.29c0-.91-1.91-.56-1.94.19Z"/><path class="cls-3" d="M152.77,103.08a14.34,14.34,0,0,1-2,7.27c-.54.92,1.42.91,1.84.2a15,15,0,0,0,2.07-7.63c0-1-1.94-.68-1.95.16Z"/><path class="cls-3" d="M158.84,102.52a21.34,21.34,0,0,1-1.33,5.88c-.1.33,1.76.11,1.9-.36a21.69,21.69,0,0,0,1.36-6c0-.26-1.92,0-1.93.52Z"/><path class="cls-3" d="M164.23,102.52A4.69,4.69,0,0,1,163,106c-.31.35.26.53.51.53a1.65,1.65,0,0,0,1.28-.52,5.87,5.87,0,0,0,1.22-1.92,6,6,0,0,0,.2-2.07c0-.57-1.93-.21-1.93.52Z"/><path class="cls-3" d="M165.93,102.27c.75-.41-.91.18-.93,0,0,.1-.1.26-.13.34-.21.43-.43.85-.63,1.27s.67.18.77.17c.3-.06,1-.19,1.13-.52s.39-.79.59-1.18a1.2,1.2,0,0,0,.2-.63c0-.29-.77-.15-.93-.12a5.11,5.11,0,0,0-1.54.61c-.33.17-.25.38.1.39a2.76,2.76,0,0,0,1.37-.37Z"/><path class="cls-3" d="M562.54,111.48c-3.66.71-7.13-2.07-10.18-3.68-.78-.41-2.45.63-1.49,1.14,3.81,2,7.52,4.79,12,3.91,1.23-.24.83-1.61-.37-1.37Z"/><path class="cls-3" d="M565.36,111.75c-4-1.07-8-2.7-11-5.63-.42-.4-2.21.31-1.81.71,3.07,3,7.16,4.67,11.24,5.75.5.14,2.23-.65,1.56-.83Z"/><path class="cls-3" d="M564.21,106.79a34,34,0,0,1-10-4.65c-.69-.46-2.4.49-1.5,1.09a35.56,35.56,0,0,0,10.37,4.83c.8.21,2.29-1,1.12-1.27Z"/><path class="cls-3" d="M561.65,102.25a26.09,26.09,0,0,1-6.36-4.67c-.43-.44-2.25.27-1.8.73a26.8,26.8,0,0,0,6.61,4.81c.5.26,2.29-.49,1.55-.87Z"/><path class="cls-3" d="M558,97.66c.61,0,1.37-.18,1.58-.83.12-.39-.39-.64-.66-.77a11.29,11.29,0,0,1-2.71-1.37,1.16,1.16,0,0,0-1.31-.11c-.27.12-.82.59-.47.93a6.55,6.55,0,0,0,1.94,1.15l1,.44.26.13.14.08a.27.27,0,0,1-.13-.31c0-.11.11-.22.17-.34.77-.27,1-.38.66-.34h-.27c-.4,0-1,.31-1.07.75s.53.58.88.58Z"/><path class="cls-3" d="M560.84,123.67C556,133.52,558,145.45,558.06,156c0,.55,1.93.2,1.93-.51-.08-10.55-2.09-22.3,2.77-32.11.26-.52-1.63-.32-1.92.26Z"/><path class="cls-3" d="M530.65,110c-2.57,1.78-4.85,3.91-7.41,5.69-1.08.75.58,1,1.2.59,2.56-1.78,4.85-3.91,7.41-5.69,1.07-.74-.59-1-1.2-.59Z"/><path class="cls-3" d="M522.12,109.07a43.78,43.78,0,0,1-6.32,5.54c-1.08.75.53,1.3,1.26.8a46.21,46.21,0,0,0,6.65-5.84c.84-.86-1-1.07-1.59-.5Z"/><path class="cls-3" d="M515.63,111c-1.77,1.76-3.93,3.28-6.51,3.38-1.07,0-1.51,1.39-.19,1.34,3.25-.12,6.06-2,8.3-4.21.85-.84-1-1.08-1.6-.51Z"/><path class="cls-3" d="M509.14,112.8c-1.95,2.73-5.22,3.31-8.37,3.35-1.14,0-1.46,1.52-.15,1.5,3.8-.05,7.83-1,10.15-4.22.72-1-1.09-1.41-1.63-.63Z"/><path class="cls-3" d="M501.59,114.21c-.09.71-.88,1.2-1.4,1.58a13.9,13.9,0,0,1-3.55,1.78c-.14.05-.86.38-.55.63s.93,0,1.25-.06a19.83,19.83,0,0,0,4.08-2c.72-.47,2-1.27,2.08-2.22.08-.6-1.85-.22-1.91.3Z"/><path class="cls-3" d="M496.2,114.78a14.75,14.75,0,0,1-5.85,3.44c-1.13.4-.85,1.56.31,1.16a17.89,17.89,0,0,0,7.12-4.15c.84-.83-1-1-1.58-.45Z"/><path class="cls-3" d="M490.11,115.5c-1.94.94-4.18,1.14-6.23,1.81-1.13.37-.87,1.47.29,1.08,2.22-.72,4.62-1,6.74-2,1.2-.58.1-1.34-.8-.91Z"/><path class="cls-3" d="M479.72,115.64c-1.15.61-2.31,1.6-3.66,1.64a1.54,1.54,0,0,0-1.27.54c-.24.37.21.62.54.61,2.18-.07,3.73-1.18,5.6-2.16.3-.16.56-.59.16-.8a1.55,1.55,0,0,0-1.37.17Z"/><path class="cls-3" d="M472,116.93a5.74,5.74,0,0,1-1.39.88,6,6,0,0,0-1.39,1c-.33.32.29.44.49.44a2,2,0,0,0,1.29-.5,5.52,5.52,0,0,1,1.39-.87,6.3,6.3,0,0,0,1.39-1c.33-.33-.29-.45-.49-.44a2,2,0,0,0-1.29.49Z"/><path class="cls-3" d="M461.51,119.36a15.1,15.1,0,0,0-6.74,1.21c-.15.07-.67.4-.24.5a2.19,2.19,0,0,0,1.35-.25,9.89,9.89,0,0,1,4.38-.68,2.69,2.69,0,0,0,1.36-.36c.3-.19.27-.42-.11-.42Z"/><path class="cls-3" d="M202.05,107c-1.73.1-2.92,1.21-4.07,2.38-.31.33.28.41.48.4a2,2,0,0,0,1.29-.48c.3-.31.61-.62.93-.91a4.63,4.63,0,0,1,.48-.4c.2-.14.44-.13.08-.1a2,2,0,0,0,1.29-.49c.3-.33-.26-.41-.48-.4Z"/><path class="cls-3" d="M305.38,72.09c-2.89-6.42-11.21-10.13-16.89-13.6-.77-.47-2.44.58-1.48,1.16,5.35,3.27,13.72,6.94,16.44,12.95.4.9,2.32.35,1.93-.51Z"/><path class="cls-3" d="M300.57,72.89c-4.38-1-7.54-3.9-11-6.58-.46-.36-2.19.4-1.81.69,3.53,2.75,6.76,5.67,11.23,6.7.5.12,2.21-.67,1.57-.81Z"/><path class="cls-3" d="M295.73,71.76c-4-1.13-7.31-3.71-10.93-5.61-.64-.34-2.39.55-1.51,1,3.73,2,7.18,4.59,11.29,5.77.71.2,2.28-.84,1.15-1.17Z"/><path class="cls-3" d="M282,68c-2.12-1-4.37-1.79-6.48-2.84-.7-.35-2.42.61-1.5,1.06,2.11,1.05,4.36,1.8,6.48,2.85.7.34,2.42-.61,1.5-1.07Z"/><path class="cls-3" d="M372.76,72.79c-4-2.5-7.84-5.38-12-7.59-.63-.33-2.39.56-1.51,1,4.2,2.21,8,5.08,12,7.58.62.38,2.37-.48,1.52-1Z"/><path class="cls-3" d="M369.78,75.5c-6-2.17-11.24-5.82-16.47-9.39-.69-.47-2.4.48-1.5,1.1,5.35,3.64,10.73,7.35,16.85,9.57.8.29,2.27-.86,1.12-1.28Z"/><path class="cls-3" d="M409.6,66.31c.79,0,2-1.2.72-1.2-.79,0-2,1.2-.72,1.2Z"/><path class="cls-3" d="M235,68.24c-2.22-1.17-4.26-2.63-6.48-3.8-.48-.25-2,.56-1.83.64,2.22,1.16,4.27,2.63,6.49,3.79.48.25,2-.55,1.82-.63Z"/><path class="cls-3" d="M231.11,70c-2.49-1.72-4.71-3.76-7.59-4.81-.68-.25-2.27.73-1.16,1.14,2.72,1,4.88,3,7.23,4.67.58.4,2.34-.43,1.52-1Z"/><path class="cls-3" d="M229.41,73l-8.34-2.85c-.53-.18-1.91.61-1.82.64l8.33,2.84c.53.18,1.92-.6,1.83-.63Z"/><path class="cls-3" d="M221.71,75.73a15.43,15.43,0,0,1-6.2-1.82c-.51-.26-2.07.54-1.81.67a16.65,16.65,0,0,0,6.76,2,2.44,2.44,0,0,0,1.37-.37c.3-.2.26-.44-.12-.45Z"/></svg>