<svg id="layer1" xmlns="http://www.w3.org/2000/svg" viewBox="0 0 505 197.88"><defs><style>.cls-1{fill:#1c3d75;}.cls-2{fill:#492d0c;}</style></defs><path class="cls-1" d="M59.59,41.76c1.42-1.9,4.26,0,4.74-3.79a10.09,10.09,0,0,0,2.84-1.89c1.42-1.42,2.36-2.37,3.79-2.84.47,0,.94.94,1.41.94.95-.47.95-.94,1.43-1.42.94-.47,1.42-2.36,2.36-2.84,1.42-.47,4.74,1.9,4.26-1.89h0c3.32,0,5.68,0,8.52-1,1,0,1.9.48,3.32,0s1.89-2.36,2.84-2.84c1.89-.94,3.78,0,5.2-.47,2.84-.95,2.37-2.37,5.68-2.84a32.09,32.09,0,0,0,6.16-.95c1.89-.47,4.26,0,6.15,0a36.92,36.92,0,0,0,22.25-5.2,17.28,17.28,0,0,1,5.21-2.37c2.37,0,4.26,1.89,6.15,1.42,2.84-.47,2.84-2.37,7.1-1.42,2.37.47,3.79,1.42,6.16,1.42,1.89,0,4.73-.47,6.62,0,4.74,2.37,0,4,1.42,6.32,1,1.89,3.32.22,4.26-.78H177c2.37-2,4.26-4.9,6.63-5.85a16.28,16.28,0,0,1,4.73-.55c3.31-.48,5.21-2.41,8.05-2.89-1,1.42-5.68,4.24-4.74,6.61,1.9,3.79,5.21-.48,6.63-1,1-.47,2.84,0,3.79.47,0,0,.47,1.89,1.42,1.89,1.42.47,2.84-1.42,3.79-1.89,3.31-.95,8,.47,9.94,2.36,2.84,1.9,5.2,3.32,8.52,1.9,1.42,3.78,10.41-5.21,9.46.94-1.41,0-6.15.48-4.73,2.84s5.68-.94,6.63-1.89c1.42,3.79,1.89.95,3.79,1.89,1.89.48,3.78,2.37,5.68,3.32,0-1.9-1-3.32-1.42-4.74,2.84-2.84,3.31,1.9,3.78,3.32.95,2.84-.47,1.42,2.37,3.31,1.42.95,2.84-.47,3.31,1.89,3.32-1.89,2.84,2.37,3.79,4.26,1.42,2.84,3.79,4.26,5.68,5.68.47.48,1.42,0,2.37.48.47.47-.47,1.36,0,1.83,1,.95,1,1.78,2.36,2.78h.32V44.6a4.56,4.56,0,0,1,2.44-.48c1.42,2.84,1,2.84,4.31,3.32.94.47,2.86.47,3.8,1,3.32,0,6.57-1.43,9.88-1,4.26.47,3.57,3.31,6.57,5.2V49.8c2-.47,4.8-.94,4.8.48l.51.94c.95-.47,2.86,1,4.28,1.9.95,0,1.91,1,2.85,1,2.37.47,2.85.47,4.74.94-3.79,3.79,7.1,4.74,9,5.68,4.73,2.84,6.15,9,10.41,11.84-.47-1.9-1-3.79.48-4.74.47,2.37.94,3.79,4.26,3.32-1,3.78,1.89,2.84,2.84,5.68,2.84-1.9,5.2-.48,8,.94-1.42-5.2-7.57-8.52-11.83-10.41,0,0,0-1.42-.95-1.89-.47-.48-1.42.47-1.89,0-1.42-1-2.37-1-3.31-1.9C329.42,62.11,329,60,328,59c-1.42-1-2.84-.66-4.26-1.66h1.42c.95-7-7.1-2.6-6.63-8.28-.95.47-2.37.12-3.31,1.07-.48-2.37-2.37-2.31-2.84-4.2-6.16-.48-10.89-.92-16.1-3.76.48-1.42,9-.93,11.36-.93a32.9,32.9,0,0,1,6.16.95c1.42,1,1.42,5.69,3.78,2.37,4.74.95,5.69,4.74,8.05,8.53,2.37-2.84,13.26,9,16.1,10.41.47,0,.94.48,1.89.48a9.24,9.24,0,0,1-.47,3.78h0c4.26,1.42,5.68,4.26,8,7.58,3.32,3.31,7.58,2.84,10.89,6.15,3.32,2.84,5.68,5.68,9.47,8,1.89.94,3.79,2.36,5.68,3.31s3.31.47,5.21,1.42c3.31,1,6.15,4.26,9.46,5.21,3.79.95,5.68,0,9.47,2.37,2.84,1.42,7.1,4.73,9.94,5.68,2.84.47,4.26-1.42,6.63-2.37,1.89-.47,7.1-1,9,0,.95.47,0,1.42.48,2.37l1.42,1.42c.94.94,1.42,2.36,2.36,3.31.48,2.37-1.89,2.37-1.89,3.31-.47,2.84.95,1.42,2.37,3.32,1.42,3.31-1.42,5.2-1.9,1.89h0c-4.26-2.84-10.41,3.31-4.26,3.79.95,0,1.42-1.9,3.32-1.42.47,0,.47,1.42.94,1.89,2.37,1,3.79.47,6.63,0h0A6.23,6.23,0,0,1,435,122.7c7.58,1.9,15.62,1.42,22.72,3.32,8.05,1.89,12.31,9,18.46,13.25,3.32,1.9,14.21,3.79,15.63,7.1,2.36,4.74-8.05,8-11.37,9-7.1,1.42-14.2.94-21.3,2.84s-12.78,5.2-19.88,4.73c-7.1,0-13.73-2.37-20.83-2.84s-14.2,0-20.83-.47c-13.72,0-26.5,5.2-40.23,1.42.94,4.73-9.94,3.31-12.31,3.31-2.37.47-6.63,3.31-7.1-1-.47-1.89,4.26-5.68,5.21-7.1,2.36-2.84,2.36-1.89,6.15-3.78,1.42-.48,2.37-2.37,3.79-3.32s3.31-.47,4.26-1.42c1.89-.94,2.37-2.84,3.78-3.31,1.9-.95,4.27.47,6.16-.47-.47-.95-1-2.37-1.42-3.32,0-.94.95-3.31.47-4.26-1.42-3.31-4.26,0-6.62-1.89s.47-5.21-2.37-7.1c-1.42-1-5.68-1-7.58-1-4.73-.47-9.94-.95-14.67-.95-3.79,0-8.52,2.37-11.83-.47-.95-.95-.48-2.84-1.9-3.79-.95-.47-2.36.36-3.31-.11-.95-1-3.32-4.8-3.32-5.8H311c0-2-.48-1.78-1.42-2.25v.53c-4.26-2.84-4.73-5.65-3.31-10.86.95-4.26.47-3.77-1.89-7.08-1.9-2.37-1.9-4.73-4.26-6.62-.47-1-1.9-1.42-2.84-2.37s-.48-2.36-1.42-2.83c-1.9-1-2.84,1.42-4.74,1.89-2.36.47-5.2-.47-7.57.47-1.42.48-2.84,1.9-3.79,1.9-3.78,1.89-5.68-1.9-9.94-2.37a36.12,36.12,0,0,1-7.1-.47c-2.37-.48-3.79-1.9-6.15-2.37-2.37-1-5.21,0-8-1-3.31-.94-1.89-1.42-4.26-3.31-1.89-1.42-4.26-1.89-6.15-3.31-2.37-1-4.26-3.79-6.16-4.74-1.42-.47-2.84,0-4.26-.47-.95-1-1.42-1.89-2.37-2.84a17.58,17.58,0,0,0-5.2-2.37c-3.79-.47-5.21,3.32-8,3.79-1.89-7.57-14.2-.95-18-7.1-.95-1-1.42-9-3.79-7.1-1.42.47.48,7.57,0,9.47-1.42-3.32-4.73-2.84-5.2.94-.47-.47-.95-.47-1.42-.94a2,2,0,0,1-2.84,1.42c.94-2.37,6.15-5.21,2.37-8.05-1-1-5.69-1-7.11-.47-6.15,1.89,2.37,3.78,1.42,8-6.15,0-3.31-3.78-5.2-7.1-2.84-4.26-6.16.95-9,0-1.42-.47-2.36-2.36-3.31-3.31a20,20,0,0,0-4.74-1.9c-2.84-.94-7.09-2.36-6.15-6.15,5.68-2.37,12.31.95,18-1.42,7.1-2.84,1.42-8-3.31-9.47-2.84-.94-5.21,0-8.05.48-3.32,0-4.74-.95-7.57-1.9-3.79-.94-11.37-.47-15.63.48-.94,0-1.89-.48-.94.47l-1.9.47c-5.2.95-6.62-4.73-7.57,3.79-1.89-.47-2.37.31-3.79,1.25-.94.48-1.89,1.73-3.31,1.73h-1c-1.42,1-3.79,1.59-4.73,3-1,1.89,0,4.81-1.9,6.23-1.89,1-3.31-1.37-4.73-.9-1.42.95-1.42,3.81-2.37,4.75-1.42,2.84-2.36,3.33-5.2,3.33-3.32,0-6.63-3.78-8.52-2.84-1,0-1.42,2.85-2.84,3.32-3.32,1.89-7.58-2.37-10.89.95-2.37,2.84,0,7.57-3.32,9s-7.1.48-10.41,2.37C54.86,74,53,77.73,47.76,76.79c-.47-3.32,5.68-8.05-1.89-7.1-3.32.47-5.68,3.31-8.52,4.26s-5.69,1.89-7.58-1.42c-1.42-2.84,0-2.84,1.42-3.32,0,0,2.37.48,2.84.48,0,0,1.9-1.42,2.37-1.9,0,.95.47,1.5.47,2,1,0,1.9-.39,2.37-.39h.47c.48-3,4.26-1.5,6.63-2.92,1.42-1.42.47-2.88,3.31-2.88,1.42-.47,1.42,2.35,3.79.46,1,.94,2.37,2.35,3.79,1.88.94-3.31-1.42-2.37-2.37-4.27-.47-.47-3.31-3.79-3.31-4.26,0-2.84,2.36-2.84,2.36-5.68,0-1.89-2.36-2.84-2.84-4.73,2.84,0,6.16.94,6.63-2.37Z"/><path class="cls-2" d="M60.06,41.89c1.16-1.28,3.08-.77,4.2-2.12a3.72,3.72,0,0,0,.44-1c.29-.89,1-1.12,1.74-1.55,1.42-.89,2.41-2.32,3.8-3.26,1.06-.71,1.64,1,2.54.42,1.77-1.12,2.77-4.58,5.06-4.12.94.19,2,.44,2.78-.24.5-.43,0-1.74.9-1.75A30.39,30.39,0,0,0,86.29,28a16.69,16.69,0,0,1,4.56-.48A4.31,4.31,0,0,0,93.16,27c.78-.38,1.27-1.4,1.76-2.07,1.06-1.45,4-.65,5.71-1a6.11,6.11,0,0,0,2.27-1.22,7.9,7.9,0,0,1,4.73-1.69,33.31,33.31,0,0,0,4-.7,28.57,28.57,0,0,1,6.79-.17c6,.16,11.63-.37,17.27-2.64,3.09-1.25,5.81-3.2,8.88-4.46,2.66-1.09,5.48,1.41,8.25.81a7.94,7.94,0,0,0,2.17-1c2-1.07,4.24-.35,6.24.29a20.52,20.52,0,0,0,7.88.62c2.59-.13,5.19,1,3.81,3.69a2.31,2.31,0,0,0,.19,2.93c1.52,1.45,3.73-.46,4.85-1.53.2-.19-.48-.57-.57-.57h-.47c.19,1,.38.46.57.57,1.36-1.15,2.57-2.35,3.84-3.6,1.85-1.8,3.87-2.25,6.4-2.3,3.31-.07,5.86-2.16,9-2.83l-.79-.31c-1.44,1.86-7.62,5.67-3.52,8.16,3.37,2.05,7.27-5.47,9.65-.75a2.23,2.23,0,0,0,2.3,1.05,5,5,0,0,0,2.15-1.1c2.05-1.59,4.45-1.26,6.79-.58,2.85.81,4.92,3.2,7.73,4.2a7.43,7.43,0,0,0,5.13-.25l-.9-.2c.7,1.5,2.52,1.33,3.85.88s2.57-1.09,3.87-1.59c.91-.35,1.74-.38,1.81.77.06,1-.67.71-1.44.83A5.47,5.47,0,0,0,230,22.67c-.66.72.12,2,.85,2.31,2.43,1,5.07-.89,6.77-2.5l-1-.16c.45,1.1.93,2.36,2.3,2.27.65,0,1.08-.42,1.81-.18,2,.67,3.63,2.21,5.47,3.23.1.05.89.28.87,0a9.9,9.9,0,0,0-.67-2.93c-.18-.41-.36-.83-.53-1.25-.71-1.69,1.32-1.09,1.67-.42a15.47,15.47,0,0,1,1.3,4.65c.35,2.44,4.73,1.66,5.3,3.63.08.25.71.29.89.19,2.36-1.17,2.3,2.68,2.9,4.07,1,2.37,3.29,4,5.31,5.43a2.66,2.66,0,0,0,1.39.69c2,.11.68,1.15,1.39,2,1,1.18,1.6,3,3.38,3,.07,0,.39,0,.39-.13,0-1.44.41-2.22,2.1-2.23l-.71-.24c.49,1,.92,2.57,2.11,3,2,.7,4.21.88,6.26,1.46a5.89,5.89,0,0,0,2.29-.09,47.32,47.32,0,0,1,7-.89c3.9,0,4.64,3.24,7.24,5.16.11.07,1.05.27,1.05,0v-1.9c0-1.26.61-1.11,1.59-1.24,1.42-.19,1.82.53,2.37,1.61.11.23.54.27.76.22,1.32-.31,2.55,1.37,3.63,1.83.75.31,1.52.54,2.27.85.35.14,4.82,1.09,4.81,1.1-1.74,1.91,1.19,3.25,2.64,3.77,3.11,1.14,6.26,1,8.79,3.42,3.25,3.06,4.65,7.56,8.36,10.22.13.09.94.27.86-.06-.4-1.61-1-3.37.45-4.63l-.95-.15c.62,2.94,2,3.86,5,3.55L337,71c-.64,3.2,1.8,3.18,2.85,5.74.1.24.7.31.9.2,2.67-1.53,4.88-.34,7.26.85.11.06,1,.29.86,0-1-3.1-3.2-5.3-5.79-7.16A30.34,30.34,0,0,0,339,68.21a13.7,13.7,0,0,1-1.95-.92,2.85,2.85,0,0,0-.55-1.53,2,2,0,0,0-1.32-.68,2.9,2.9,0,0,0-1.05.22,11.46,11.46,0,0,1-2-1c-2.09-.93-2.35-3.5-3.68-5.11a2.16,2.16,0,0,0-1-.5c-.57-.17-4.17-.68-2.19-.68.09,0,.38,0,.39-.13.19-1.82-.08-3.63-1.91-4.47-2.2-1-4.84-.91-4.71-4.05,0-.32-.72-.31-.91-.25-1.28.43-2.26.19-3.37,1l.95.15c-.51-1.83-2.23-2.53-2.84-4.25-.06-.19-.43-.23-.58-.24A65.22,65.22,0,0,1,303,44.6a26.62,26.62,0,0,1-4.26-1.42c-.45-.18-2.6-.64-1.61-1.2a5,5,0,0,1,1.65-.38,45.38,45.38,0,0,1,11.7.18c.85.11,2.44.13,3.1.7a6.29,6.29,0,0,1,1.07,2.15A1.86,1.86,0,0,0,316.29,46a1.52,1.52,0,0,0,.92-.31c.16-.11.69-.78.93-.72a6.54,6.54,0,0,1,2.95,1.75c1.82,1.68,2.79,4.31,4.06,6.4a.79.79,0,0,0,1,.16c2-2,9.68,5.82,11.17,7.13a36.82,36.82,0,0,0,3.7,3,5,5,0,0,0,1.36.55c1.43.47.74,2.64.32,3.77,0,.1.16.19.22.21,3.29,1.21,5.12,3.48,7,6.27,1.53,2.23,3.62,3.3,6.12,4.26a25.82,25.82,0,0,1,8.7,5.92,41,41,0,0,0,7.87,6.06c2.26,1.31,4.23,2.84,6.85,3.31,4,.72,6.71,3.08,10.14,5a14.41,14.41,0,0,0,5.92,1.47c3.88.35,6.95,2.48,10.15,4.53,1.61,1,3.67,2.65,5.62,3,2.27.38,4-.7,5.86-1.8,1.21-.71,10-2.4,9.68.42-.22,1.64,1.92,2.95,2.71,4.24.66,1.08,1.7,2.07.84,3.35-.37.55-1.09.74-1.48,1.27-1.31,1.82,1,2.53,1.91,3.24a3.09,3.09,0,0,1,.7,2.77c-.12,1-.8,1-1.11.23s-.39-.89-1.31-1.28a5.85,5.85,0,0,0-4.08.06c-1.25.43-2.76,1.61-2.52,3.06.19,1.13,2.41,1.55,3.25,1.5a2.25,2.25,0,0,0,1.4-.83c1.7-1.61,1.39.63,2.27,1.17,2.12,1.29,5.11.51,7.33.12.13,0,.22-.11.11-.23a8,8,0,0,1-1.37-2.31l-.65.14c7.48,1.78,15.27,1.44,22.72,3.32,6.47,1.63,10.69,6.79,15.5,11,3.31,2.9,7.08,3.8,11.2,5.16,2.24.74,4.81,1.54,6.54,3.22s.43,4-1.09,5.3c-4,3.39-10.05,4.54-15,5.08-7.26.77-14.08,1.29-21,3.68a52.65,52.65,0,0,1-11.14,3c-4.35.5-8.9-.29-13.16-1.08-3.35-.63-6.68-1.29-10.07-1.63-4.13-.41-8.33-.31-12.47-.31-3.74,0-7.49-.3-11.23-.2a94.71,94.71,0,0,0-10.88,1.06c-9.08,1.26-18.11,2.74-27.15.37-.07,0-.68-.12-.65.09.61,4.52-8.21,3.37-10.84,3.22-1.78-.1-3.18.63-4.88,1.12-2.78.81-3.11-2-2.19-3.57a16.65,16.65,0,0,1,2.52-3c1.4-1.45,2.7-3.49,4.48-4.46,2.27-1.24,4.35-1.62,6.16-3.63,1.38-1.53,2.88-1.54,4.64-2.19a7.33,7.33,0,0,0,3-2.18,4.93,4.93,0,0,1,5-1.82,6.36,6.36,0,0,0,3-.31.11.11,0,0,0,.07-.15c-.72-1.57-1.53-3-1.13-4.77.26-1.13.66-2.47-.18-3.47-1.8-2.14-5.47.26-7-2.11-.7-1.1-.17-3-.33-4.25a3.13,3.13,0,0,0-1.77-2.26c-1.89-1-4.68-.86-6.75-.89-4.3,0-8.61-.74-12.91-.9a29.82,29.82,0,0,0-4.91.13c-2.84.38-5.79,1.48-8.56-.07-1.82-1-.88-4.35-3.48-4.5a5.28,5.28,0,0,0-1.37.15c-1.32.23-1.63-.73-2.23-1.62a10.31,10.31,0,0,1-1.92-3.79c0-.23-.41-.31-.59-.31h-3.79c.2,0,.39.21.59.31a2.38,2.38,0,0,0-1.63-2.58c-.11,0-.77-.19-.78.05v.48h.87c-2.47-1.72-4-3.7-3.91-6.79,0-2.39,1.63-5,1.13-7.38-.45-2.1-2.53-3.77-3.53-5.64-1.24-2.31-2.19-4.42-4.4-6a5,5,0,0,1-2.07-2.13c-.19-.5-.23-1-.47-1.48s-.88-.59-1.23-.69c-1.69-.48-2.92,1.16-4.22,1.89-1.48.82-4.52.13-6.29.24a7.16,7.16,0,0,0-3,1,17,17,0,0,1-3.69,1.71c-1.76.51-3.57-1.07-5.05-1.76-2.35-1.1-4.46-1-7-1.11a15.66,15.66,0,0,1-6.56-1.67,14.37,14.37,0,0,0-3.82-1.35c-3.37-.57-7.58.53-9.85-2.6-1.59-2.2-4.58-2.88-6.82-4.16s-4.12-3.33-6.32-4.9a3.44,3.44,0,0,0-1.8-.59c-1-.06-2.63.15-3.38-.68s-1.19-1.55-1.85-2.27A11.34,11.34,0,0,0,220,64.74a6.82,6.82,0,0,0-5,1.79,8.63,8.63,0,0,1-3.31,2l.8.23c-1.05-3.61-4.53-4.17-7.84-4.3-2.51-.1-5.14.14-7.55-.71-2.15-.75-2.92-2.48-3.4-4.49-.4-1.64-.93-6.08-3.61-5.08-2.37.89,0,7.78-.35,9.73l1,.11c-1.72-3.44-5.49-3-6.18.84h.86c-.46-.34-.95-.6-1.42-1-.16-.12-.76-.25-.87,0s-.33.63-.49.94c-1,.16-1.19,0-.62-.52.34-.45.74-.87,1.11-1.29a10.79,10.79,0,0,0,1.63-2.3c.82-1.6-.49-3.17-1.89-3.83-2.39-1.12-7.24-1-9.28.84-.76.69.18,1.68.65,2.18s4.28,4.83,2.35,4.78c-3.5-.1-2.78-3.14-3.29-5.47A4.24,4.24,0,0,0,170,56c-1.47-.32-3.06.67-4.31,1.26-2,1-3.38-.33-4.55-1.87a6.05,6.05,0,0,0-2.9-1.94c-2.51-1-5.28-1.41-7.46-3.14-1.4-1.11-2.16-3.42.14-4.09a20,20,0,0,1,6.86-.23c3.72.27,11.7,1,13.1-3.79,1.06-3.68-5.37-6.31-7.88-7-2.8-.75-5.47.73-8.24.65-3.07-.08-5.81-1.88-8.86-2.22-5.05-.57-9.91.65-14.89.72-.07,0-.27,0-.28.13,0,.66.69.42-.43.7a6.89,6.89,0,0,1-3.52.11c-1-.26-2-.94-3.12-.87s-1.27.93-1.52,1.72c-.15.52-.27,3-.86,2.93a3,3,0,0,0-1.93.51c-1.14.83-2.29,1.62-3.47,2.37-.78.49-1.45.32-2.23.59-2.12.74-4.58,1.66-5.17,4-.29,1.19-.2,2.43-.53,3.62-.63,2.32-2.74,1-4.12.44s-2,.19-2.58,1.3c-1.1,2.12-1.33,4.82-3.58,6.21-3.2,2-6.34-1.46-9.24-2.31a2.87,2.87,0,0,0-2.81.3c-.69.59-1,1.76-1.57,2.48-1.35,1.73-4.23.73-6,.34a6.39,6.39,0,0,0-5.06.64c-2,1.24-1.8,4.14-2,6.14-.35,4.25-4.8,4-8.13,4.42a14.13,14.13,0,0,0-7.07,3.24c-1,.75-1.9,1.52-2.92,2.19-.77.49-4.73,2.08-4.64.53S49.49,73,50,71.56c1-2.87-3.82-2.2-5.18-1.94-2.27.45-4.2,2.16-6.13,3.33a14.24,14.24,0,0,1-4.1,1.51c-1.91.47-6.2-1.82-4.73-4.35.76-1.28,3.18-.3,4.25-.21.87.07,2.16-1.45,2.74-2l-1-.21c.08.7.34,1.27.48,2,0,.21.55.25.7.24a26.24,26.24,0,0,1,2.72-.47c.11,0,.36,0,.4-.13.55-2.45,3-2,5-2.22a3,3,0,0,0,2.58-2.24c1-2.41,2.48-.63,3.65-.09a2.55,2.55,0,0,0,2.47-.61L53,64c1.33,1.32,2.62,2.37,4.55,2.07a.2.2,0,0,0,.17-.12c.22-.94.46-2.08-.46-2.73a14.85,14.85,0,0,1-2.82-2.61c-1.14-1.32-2.65-2.54-2.22-4.39s2.05-2.49,2.19-4.47c.11-1.65-1.94-3-2.66-4.25-.32-.56,1.94-.24,2.3-.23a9.74,9.74,0,0,0,1.79-.12c1.73-.25,1.61-1.37,2.37-2.52l1.85-2.77c.17-.26-.78-.5-.93-.26l-1.9,2.84c-.72,1.09-.49,1.91-2,2.31a16.13,16.13,0,0,1-4.22,0c-.09,0-.45,0-.38.19.88,2.46,4,3.77,2.24,6.73C52.06,55,50.32,56.32,51.4,58c.93,1.44,2.32,2.56,3.22,4a3.48,3.48,0,0,0,1.32,1,1.67,1.67,0,0,1,1,1.51c.15,1.94-2.46,0-3.07-.58a.84.84,0,0,0-.91-.11c-1.62,1.13-1.75-.7-3.21-.6s-2.48.27-3.11,1.78c-1,2.41-4,1.46-6.08,2.15a2.21,2.21,0,0,0-1.22,1.37c-.24.54.24.39-.33.43-.8,0-1.57.39-2.37.47l.71.24c-.13-.64-.39-1.15-.47-1.83,0-.31-.76-.4-1-.22-.55.51-1.15,1-1.74,1.42s-.9.32-1.72.17a4.55,4.55,0,0,0-2.89.18c-2.95,1.06,1.29,5.35,3.17,5.56,4.2.45,7.45-2.38,10.88-4.25,1-.52,4.75-1.93,5.5-.4.29.58-.29,1.59-.52,2.09-.63,1.37-1.45,2.71-1.34,4.27,0,.19.31.26.46.28,4,.58,6.49-1.37,9.54-3.73s5.87-2.51,9.43-3c1.58-.24,4.09-.54,4.81-2.29.79-1.91.45-4.07,1-6,1.1-4,5.54-2.33,8.42-1.92a4.94,4.94,0,0,0,3.68-.74c1.93-1.75,1.46-4.16,4.79-2.4,2.55,1.35,5.69,3.18,8.69,1.85a6.85,6.85,0,0,0,3-3.42,20,20,0,0,0,.93-2.59c.61-1.83,1.66-1.58,3.06-.87,4,2,3.94-3.23,4.53-5.61s3.87-2.85,5.72-3.26c2.27-.49,4.28-3.72,6.75-3.31.1,0,.5.06.52-.12.17-1.39.22-3.14,1.05-4.34.46-.68,2.16.29,2.8.49a9.83,9.83,0,0,0,5.45-.29c.13,0,.22-.11.12-.23-.42-.49.58-.19.83-.25,1.25-.26,2.51-.45,3.78-.61a47.5,47.5,0,0,1,8.68-.27c2.57.16,4.78,1.3,7.22,2a12.76,12.76,0,0,0,6.23-.19,10.58,10.58,0,0,1,9.89,3.11c2.14,2.16,1.22,4.41-1.24,5.74-5.42,2.92-12.12-.23-17.9,1.44-1.5.43-1.18,1.88-.63,3.09s2.26,2.14,3.53,2.72c2.3,1.05,5.76,1.22,7.48,3.13,1,1.11,1.78,2.74,3.37,3.09a5,5,0,0,0,3.24-.48c1.51-.65,3.18-2,4.89-.29.94.92,1.1,2.44,1.22,3.66.29,3.23,1.79,4.13,5,4.22.1,0,.38,0,.4-.12a4.49,4.49,0,0,0-1.46-3.78c-1-1.15-3.45-2.62-1.12-3.79s8.47-1.41,8.63,2.18c.09,2.1-2.86,3.92-3.73,5.69-.06.13.27.24.33.25,1.64.41,2.8.17,3.5-1.5h-.86c.46.34.95.6,1.42.94.13.1.81.28.86,0a5.42,5.42,0,0,1,.79-2.17c1.17-1.82,2.88,0,3.44,1.11.1.2.92.41,1,.11a15.49,15.49,0,0,0-.26-4.45c-.12-1-.93-4.28.17-4.93s2.48,6.28,3.17,7.3c4,5.93,15.51-.84,17.72,6.7.07.24.62.27.81.23,2-.47,3.21-2,4.84-3.06,2.28-1.51,5-.08,7.08,1.12,1.34.77,1.74,2.48,3,3.24a5,5,0,0,0,2.18.37c2.3.13,3.33.92,4.91,2.42a23.65,23.65,0,0,0,6.85,4.28,9.05,9.05,0,0,1,4.12,3.11,3.21,3.21,0,0,0,1,1c1.93,1.26,4.66,1.26,6.85,1.26,3.65,0,6,2.23,9.42,2.83a34.85,34.85,0,0,0,4.57.46,14,14,0,0,1,6.84,1.7,8.23,8.23,0,0,0,4.13,1.21c2.38,0,4.28-2,6.45-2.68,2.46-.76,5.68.85,7.95-.76,1.29-.91,3.06-2,3.58.21.28,1.14,1.4,1.75,2.29,2.34,2.79,1.84,3.53,5.16,5.39,7.71,1.65,2.24,2.61,3.37,2.06,6.25-.46,2.35-1.16,4.52-.7,6.93.42,2.18,2.24,3.71,4,4.91.11.08.87.28.87,0v-.47l-.77.05c1,.49,1.16.77,1.2,1.93,0,.22.44.07.6.07h3.78a1.22,1.22,0,0,1-.59-.07c.25,1.71,1.59,3.53,2.56,4.9a2.41,2.41,0,0,0,2.64,1.33c2.21-.39,2.39,1.07,2.84,2.63.26.91,1,1.34,1.83,1.78a9.19,9.19,0,0,0,5.58.58,53,53,0,0,1,11-.59c3.56.19,7.12.74,10.69.78a28.78,28.78,0,0,1,4.15.32c2.63.43,2.76,2.36,2.67,4.43-.08,1.77.6,3.26,2.4,3.77a5.27,5.27,0,0,0,2,.1c.51-.05,1-.16,1.53-.23,1.88-.23,1.93,1.75,1.81,2.76-.08.67-.82,2.18-.53,2.81s.58,1.33.86,2c.67,1.67-1.41,1.43-2.48,1.31a4.84,4.84,0,0,0-4.63,1.62,6.83,6.83,0,0,1-3.73,2.64,7.08,7.08,0,0,0-3.29,1.23c-1.18.91-1.81,2.22-3.22,2.88-1,.48-2.06.92-3.12,1.33-1.68.64-2.61,2-3.79,3.32-1.7,1.89-6.94,5.92-3.36,8.55,1.16.84,3,.21,4.2-.17a8.81,8.81,0,0,1,3.08-.79c1.07.05,2.14.12,3.22.15,2.46.09,9.27.42,8.72-3.62l-.65.09c14.4,3.77,28.72-1.85,43.23-1.23,8.15.34,16.25-.26,24.34,1.15,6.59,1.14,13.19,2.73,19.91,1.73a49.72,49.72,0,0,0,8.94-2.6,59.51,59.51,0,0,1,13.14-3.15c5.81-.65,11.67-.63,17.23-2.59,2.94-1,8.15-2.87,8.64-6.51.46-3.41-5.11-5-7.37-5.76C481.73,141,478,140.36,475,138c-3.28-2.59-6-5.84-9.34-8.34-8.79-6.54-20.34-4.74-30.48-7.14-.08,0-.77-.12-.65.14s1.43,2.22.68,2.35c-1.27.22-4.35,1-5.16-.31a11.45,11.45,0,0,1-.47-1.36c-.36-.81-2.05-.43-2.62-.2-1.21.49-1.63,1.93-3.22.65-.86-.68.13-1.86.65-2.35,1.37-1.32,4.37-1.77,5.26.44a1.51,1.51,0,0,0,1.1.81c1,.26,1.51-.49,1.77-1.31a3.56,3.56,0,0,0-.38-2.51c-.64-.72-2.37-1.4-2.4-2.47-.06-1.85,2.2-1.91,2-4-.06-.57-1.53-2.26-1.94-2.86a13,13,0,0,0-1.62-1.7c-.63-.63.16-1.81-.39-2.31a3.17,3.17,0,0,0-1.5-.77,18,18,0,0,0-6.58-.09c-2.17.25-3.64,1.23-5.54,2.24-3.29,1.73-7.49-2.15-10.17-3.82a19,19,0,0,0-6.05-2.89,31.81,31.81,0,0,0-3.22-.4A13.89,13.89,0,0,1,387.85,97a22.26,22.26,0,0,0-6.78-3.44,20.84,20.84,0,0,1-5.6-2c-1.67-1-3.39-2-5-3.07-3.1-2.16-5.78-5-8.55-7.57-2-1.86-4.9-2.49-7.34-3.58-3.25-1.44-4.52-4.8-6.92-7.19a11.16,11.16,0,0,0-2.76-1.91c-1.57-.81-.8-2.58-.8-4.18,0-.19-.32-.27-.46-.28-2.13-.25-3.59-1.83-5.13-3.17-2-1.72-3.94-3.47-6-5.09-1.42-1.11-5.41-4.51-7.35-2.56l1,.16c-2.28-3.75-3.74-7.6-8.37-8.72-.15,0-.51-.12-.63,0-1.67,2.11-1.74-2-3.16-2.41a25,25,0,0,0-6.72-1c-2.26,0-4.51-.11-6.78,0-1.1,0-4-.13-4.64,1.07-.06.09,0,.17.09.21a32.35,32.35,0,0,0,10.68,3.34c.94.14,5.2.05,5.48.86.53,1.49,2.2,2.08,2.66,3.74.08.28.77.29,1,.16.84-.61,2.24-.57,3.25-.91l-.9-.25a3.28,3.28,0,0,0,2.55,3.6,15.91,15.91,0,0,1,2.79,1c1.25.69,2.32,3.81.26,3.81-.15,0-.62.11-.27.29,1.79.93,4.15.92,5.18,2.94.7,1.39,1.05,2.62,2.41,3.45a9.65,9.65,0,0,0,3,1.44,2.18,2.18,0,0,0,.76-.07c.95-.16,1.25.68,1.29,1.55,0,.11.12.17.21.21,4.71,2.12,10,5,11.63,10.26l.86-.06c-3-1.5-5.7-2.83-8.83-1l.89.19a5.05,5.05,0,0,0-1.72-2.19c-1.26-1-1.42-1.89-1.11-3.43.05-.25-.58-.31-.71-.3-2.59.28-3.15-1.11-3.56-3.07-.06-.27-.78-.31-.95-.16-1.47,1.3-.91,3.15-.49,4.84l.86,0c-4.26-3.06-5.79-10.19-10.92-12.05-2-.72-11.62-1.72-8.4-5.26.13-.14-.22-.28-.3-.3-1.13-.27-2.26-.49-3.39-.69-1.31-.23-2.49-.91-3.75-1.13-1.9-.33-3-2.5-5.19-2l.81.22c-.36-.73-.52-1.68-1.43-1.92a7.9,7.9,0,0,0-4.41.28c-.05,0,0,0,0,.11v2.84h.69c-1.7-1.24-2.55-3.26-4.28-4.46s-4-1-5.78-.91a45.47,45.47,0,0,0-4.65.75,11,11,0,0,1-4.26-.23,20.31,20.31,0,0,1-4.18-1c-.76-.38-1.19-1.91-1.53-2.6-.11-.22-.5-.24-.7-.24s-2.64-.06-2.64.61.42,1.92-.15,1.47-.84-1.3-1.35-1.89.18-2.16-.57-2.47a3.21,3.21,0,0,0-1.08-.29,5.54,5.54,0,0,1-3.12-1.56,11.37,11.37,0,0,1-3.8-4.51c-.46-1.07-.5-2.28-.93-3.37-.62-1.59-2.37-1.34-3.59-.73l.89.2c-.42-1.42-1.12-1.7-2.51-1.75-2.57-.08-2.87-2.23-3.34-4.08-.64-2.49-1.88-5.24-4.57-2.85a.09.09,0,0,0,0,.11,16.27,16.27,0,0,1,1.41,4.67H247c-2.13-1.18-3.92-2.89-6.3-3.56a2.4,2.4,0,0,0-1.19-.05c-1.19.3-1.43-.43-1.87-1.49-.1-.26-.76-.34-1-.16-1,1-3.95,3.49-5.44,2.35-2.6-2,3.21-2.94,4.24-3,.07,0,.26,0,.27-.12.76-6.29-8.23,1.69-9.48-1-.12-.26-.66-.28-.89-.2-4.34,1.6-6.44-1.36-9.63-3.1a13.88,13.88,0,0,0-5-1.43,7,7,0,0,0-4.21.51c-.78.49-2.43,2.59-3.47,1.11-.23-.32-.24-.95-.51-1.2-1.81-1.74-4.72-.71-6.35.52-1.35,1-2.91,1.88-4,0-.58-1,.48-2.25,1-2.93,1.09-1.33,2.63-2.24,3.68-3.6.2-.27-.67-.35-.8-.33a20.77,20.77,0,0,0-4.55,1.75c-2.19,1-4.29.84-6.58,1.23-3.75.65-5.65,3.81-8.42,6.14-.21.18.5.41.57.41h.47c-.19,0-.37-.29-.56-.41-.64.61-2.38,2.39-3.31,1.08a2.22,2.22,0,0,1,.18-2.32c.63-1.27.78-2-.28-3.07s-2.56-1.2-4-1.24c-3.07-.08-5.75.22-8.76-.75A10.49,10.49,0,0,0,155.9,12c-1.91.37-3.46,2-5.55,1.56-1.64-.37-3.06-1.48-4.82-1.36-2.45.15-4.87,2.14-6.95,3.25a37.14,37.14,0,0,1-16.29,4.39c-2.71.1-5.39-.31-8.09-.28-2.86,0-5.57,1.07-8.44,1.16a6.32,6.32,0,0,0-3.8,1.77c-2.07,1.71-4.89.7-7.27,1.58-.58.22-1,1-1.3,1.46-1,1.49-2.84,1.48-4.55,1.34a10.59,10.59,0,0,0-2.47.6,29.82,29.82,0,0,1-6.05.35c-.06,0-.4,0-.39.13.27,3.78-2.62.65-4.23,1.84A17.88,17.88,0,0,0,73,33c-.91,1.12-1.05.22-2.05,0a3.24,3.24,0,0,0-2.14.93c-1.68,1.34-3,2.84-4.93,3.83-.08,0-.6,1.71-.6,1.7-.36.69-1.22.86-1.91,1a3.77,3.77,0,0,0-2.28,1.13C58.94,41.83,59.86,42.11,60.06,41.89Z"/><path class="cls-1" d="M113.09,69.69c-1,.94-2.84,3.78-2.84,5.2-.48,2.37,1.89,3.79,2.36,5.68.48,1.42,1.9,3.79,0,4.74-1.89,1.42-2.84-1.42-4.73-1.9-4.73-.94-1.42,3.79,1.42,5.21,2.37,2.37,5.21,2.84,8.52,2.84,3.79,0,13.73-1.42,15.62-4.73,1.9-2.37-3.78-8,1.9-6.63,1.89,2.84,5.2-.95.47-2.84-2.84-1-6.63.47-8.52-1.89-1.42-1.9,0-2.84-2.37-4.26-.94-1-3.79-1-5.2-1.42a11,11,0,0,0-3.79-1Z"/><path class="cls-2" d="M112.6,69.65a10.07,10.07,0,0,0-2.85,5.26c-.25,2.35,1.73,4.12,2.55,6.19.55,1.37,1.42,3.06-.12,4.12-1,.67-2.6-1.28-3.38-1.74a3.83,3.83,0,0,0-3.24-.14c-2.76,1.77,4.56,6.49,5.63,7.08,3.56,2,8.44,1.31,12.28.71,3.31-.52,8.44-1.3,10.46-4.36.85-1.3.18-2.89-.27-4.22a5.29,5.29,0,0,1-.41-2c.09-1.37,2.51.51,3,.69a2.11,2.11,0,0,0,2-.41c1.21-1.32-.18-2.68-1.34-3.38-1.79-1.09-4.27-.73-6.25-.85-4-.24-2.77-3.87-5.32-5.62a7.11,7.11,0,0,0-2.94-1c-1.62-.28-3.11-.91-4.7-1.22-1.9-.38-3.06.16-4.88.76-.62.21.22.43.52.33L115,69.3c1.56-.52,2.84,0,4.37.54,2.41.84,6.13.34,6.65,3.63.91,5.68,8.41,2,11.32,5.23.66.73.36,3.14-1.21,1.73a2.23,2.23,0,0,0-1.7-.72,2.1,2.1,0,0,0-2.09.6c-.59.88.59,3,.83,3.89.62,2.27-.91,3.59-2.79,4.54-4.25,2.13-9.95,2.79-14.65,2.43-3-.23-5.74-2.06-7.94-4.07a6.2,6.2,0,0,1-1.73-2.5c-.79-2.3,2.9-.13,3.56.42a2.85,2.85,0,0,0,2.76.74c1.92-.44,1.79-2.29,1.3-3.73-.72-2.13-2.34-3.84-2.94-6s1.48-4.89,2.83-6.36C113.72,69.56,112.81,69.42,112.6,69.65Z"/><path class="cls-1" d="M200.19,7.2c-1.9-.47-2.84.47-2.37,2.37,1.42,0,3.79,0,4.74.47,1.89,1.42.94,4.26,4.26,4.26.94,0,1.89-1.89,3.31-2.37.94,0,3.4,1,4.35,1,2.36.48,4.66,1.42,7.66.48v2.36c2,0,2.75-.94,4.17-1.42a8.37,8.37,0,0,1,4.69.95s3.77,1.89,3.77,1.42c.94.95,1.88,1.42,1.41,3.31,1.42,0,9,.95,4.74-2.36-.47-.48-3.78,0-3.78,0V16.2c-1-1.42-3.33-.95-4.75-.48-.47-4.26-6.16-2.36-8-2.84-1.9,0-2.37-1.42-4.27-1.89-1.42-.48-3.31.47-4.73,0s-2.84-1.42-4.26-1.9-3.32.48-4.74,0c-2.36-.47-5.2-3.78-7.57-1.42Z"/><path class="cls-2" d="M200.51,7c-2-.37-3.6.31-3.18,2.64,0,.14.29.13.39.13,1.53,0,3.95-.25,5,1.07.62.77.79,1.86,1.35,2.69a3.09,3.09,0,0,0,3.35.81,6,6,0,0,0,1.7-1.43c1.4-1.37,3.08,0,4.6.13,2.95.29,5.25,1.39,8.21.48-.22,0,.18-.07-.82-.1V15.8c0,.14.48.14.56.13a8.22,8.22,0,0,0,3.14-.79c2.16-1.07,4.13-.46,6.18.53.77.37,3.27,2,4.15,1l-.9.1c1.06,1,1.65,1.72,1.4,3.26,0,.1.22.13.27.13,1.27,0,5.89.9,6.63-.7.38-.81-.81-2-1.54-2.18a11.66,11.66,0,0,0-3.95.11l.53.12c0-1.63-.34-2-1.92-2.44a6.66,6.66,0,0,0-3.47.45l.65.09c-.48-2.74-2.92-3-5.3-3-2,0-3.59.25-5.35-1a5.05,5.05,0,0,0-3.49-1,8,8,0,0,1-4.4-.45A14.54,14.54,0,0,0,211.4,8.9c-2.14-.42-4.13.43-6.22-.58-2.39-1.16-4.5-2.62-6.85-.68-.3.24.5.24.6.2l1.42-.47c.64-.21.09-.48-.32-.34l-1.42.47.6.21c2.17-1.79,5.78,1.72,8.34,1.72a12,12,0,0,1,6,1.13,5.62,5.62,0,0,0,3.17.75,7.49,7.49,0,0,1,5.56,1.26,5.32,5.32,0,0,0,2.83.61c2.61,0,6.2-.86,6.81,2.62,0,.21.54.13.66.09,1.63-.51,4.08-.09,4.08,1.8,0,.18.44.13.52.12,1.14-.15,2.76-.5,3.75.31,1.77,1.47-.54,1.79-1.84,1.77-.82,0-1.64-.08-2.46-.11,1.37.06-1.35-3.21-1.38-3.24a.82.82,0,0,0-.91.1c.44-.47-.36-.39-.82-.58s-1.07-.48-1.6-.73a15.73,15.73,0,0,0-3-1.1,6.74,6.74,0,0,0-2.86-.1,9.12,9.12,0,0,0-1.5.58,1.77,1.77,0,0,1-2.42,0V13.28c0-.22-.4-.12-.5-.09-3.47,1.07-7.43-.7-10.85-1.41-1.43-.3-2.45,1-3.37,1.87-2.37,2.32-3.16-3.28-4.47-3.78a8.65,8.65,0,0,0-2.37-.45c-.48,0-1-.05-1.46-.06-1.6,0-1.08-2.29.74-2C200.1,7.44,201,7.1,200.51,7Z"/><path class="cls-1" d="M253.21,23.77c-1,1.42.47,5.21,2.36,5.21,5.68.47-1.42-5.21-3.31-5.68Z"/><path class="cls-2" d="M252.74,23.64c-.91,1.57.09,4,1.43,5,.85.64,3.19,1,3.93,0s-1.28-2.63-1.84-3.13a10.61,10.61,0,0,0-3.84-2.42c-.27-.08-1,0-.44.29l1,.48c.27.14,1.13,0,.55-.26l-.94-.47-.44.29a8.35,8.35,0,0,1,2.62,1.61,8.25,8.25,0,0,1,2.37,2.52c.77,1.49-1.7,1.36-2.38.75-1-.95-1.78-3.15-1-4.44C253.83,23.62,252.87,23.4,252.74,23.64Z"/><path class="cls-1" d="M263.15,30.87a6.23,6.23,0,0,1-2.37-1.42c-4.73,1.89,4.26,3.79,3.31,6.15.48,0,1.11.48,2.05.48,0,1.89,1,2.84,3,3.31V37.5c1,.47,2.21.47,2.68,1.42,0-2.37-2-4.74-3.86-5.68-1.42-1-6.19-5.68-6.67-2.84Z"/><path class="cls-2" d="M263.42,30.73a7.85,7.85,0,0,1-2.2-1.32.92.92,0,0,0-.85-.12c-4.59,2,3.88,3.91,3.23,6.25,0,.13.26.22.34.24.72.14,1.29.41,2,.5l-.47-.27c.11,2.08,1.18,3,3.09,3.55.1,0,.56.11.56-.1v-1.9a3.93,3.93,0,0,1-.68.07c.84.34,2.11.54,2.68,1.28.11.14,1,.39,1,.07-.28-3.95-3.93-5.95-6.78-8.12-1-.77-4-2.82-4.61-.53,0,.14.26.22.34.24L263,31c.41.11,1-.18.31-.34l-.74-.19-.77-.19c-.42,0-.38-.16.14-.37.45-.9,3.22,1.51,3.61,1.82,2.47,2,5.38,3.55,5.63,7.08l1,.08c-.78-1-2-1.11-3.15-1.57-.1,0-.86-.18-.86.07v1.89a6.26,6.26,0,0,1,.75-.1,3,3,0,0,1-2.46-3.08c0-.18-.3-.24-.44-.26-1.43-.17-1.12-.19-1.47-1.1a4,4,0,0,0-1.55-1.5c-1.38-.92-4.66-2.41-1.78-3.67l-.85-.12A9.57,9.57,0,0,0,262.87,31C263.15,31.14,264,31,263.42,30.73Z"/><path class="cls-1" d="M273.56,39.37c-.94,0-1.42,1.43-1.42,2.85,1.42,0,1.89-1.89,3.31-2.83,1.42-.48,3.79,0,4.74-.47,1.89-1.43,1.89-2.84-.95-3.79a3.49,3.49,0,0,0-4.26,3.3c-1,0-1.42.94-1.89.94Z"/><path class="cls-2" d="M273.13,39.3a3.21,3.21,0,0,0-1.49,2.94c0,.22.52.19.64.18A2.65,2.65,0,0,0,274,41.5c.36-.38.65-.82,1-1.22.8-1,1.84-.92,3-.93,1.7,0,3.45-.18,4-2.12.48-1.71-2.74-2.43-3.85-2.37a3.8,3.8,0,0,0-3.66,3.59l.37-.2c-.85.12-1.27.67-2,.86-.52.14,0,.26.26.26h0c.08,0,.17.16.25.28.68-.18,1.06-.87,1.78-1,.1,0,.35-.08.36-.22a3,3,0,0,1,4.7-2.59,1.33,1.33,0,0,1,.62,1.88c-.53,1.09-1.74,1.2-2.8,1.21-.78,0-2.31-.17-3,.34-.95.72-1.79,2.6-3,2.74l.63.18A3,3,0,0,1,274,39.48C274.29,39.3,273.35,39.16,273.13,39.3Z"/><path class="cls-1" d="M282.14,37c3,3.79,5.68-2.84.47-2.36,0,.47-.47.47-.47.94Z"/><path class="cls-2" d="M282.07,37a2.6,2.6,0,0,0,2.31,1.37,2,2,0,0,0,1.72-1.19,1.82,1.82,0,0,0-.2-1.94c-.73-.85-2.07-.89-3.11-.81-.07,0-.25,0-.26.15,0,.31-.23.42-.37.68a1,1,0,0,0,0,.45V37c0,.31,1,.37,1,.1V35.91c0-.17-.07-.35,0-.51s.36-.35.39-.69l-.28.14a1.85,1.85,0,0,1,1.81.62,1.67,1.67,0,0,1,.09,1.48,1.65,1.65,0,0,1-1,1,.56.56,0,0,1-.12,0l-.23-.1A2.57,2.57,0,0,1,283,37C282.88,36.76,281.93,36.81,282.07,37Z"/><path class="cls-1" d="M278.14,40.34c0,.94,1,1.42,2.44,1.89,0-1.42-.51-1.89-1.93-2.37-.95.48-.51,1.42-.51,2.37Z"/><path class="cls-2" d="M277.79,40.35c0,1.25,1.55,1.7,2.52,2,.15,0,.85.13.85-.16a2.57,2.57,0,0,0-.4-1.56,3,3,0,0,0-1.38-.86,1.35,1.35,0,0,0-1.69.54c-.41.58,0,1.38.3,2,.1.21,1.15.2,1.15-.08v-1.9c0-.28-1-.26-1,0v1.9a5.53,5.53,0,0,1,.81-.09c-.36-.74-.58-1.7.26-2.17l-.75,0a2.85,2.85,0,0,1,1.36.77,2.25,2.25,0,0,1,.35,1.46l.85-.17c-.86-.29-2.18-.66-2.22-1.76C278.79,40,277.78,40.07,277.79,40.35Z"/><path class="cls-1" d="M283,41.28c0,2.37,2.84,2.37,4.26,1.42-1-2.36-3.31-2.36-3.79,0Z"/><path class="cls-2" d="M282.53,41.22c.1,2.6,3.45,2.72,5.18,1.64.05,0,.1-.08.07-.15a3,3,0,0,0-2.52-2A2.16,2.16,0,0,0,283,42.64l1,.07-.48-1.42c-.09-.27-1.06-.3-1,0L283,42.7c.08.23.91.34,1,.06.16-.67.51-1.5,1.3-1.62.51-.08,1.76,1.32,1.3,1.57-1.35.76-3,.35-3.08-1.37C283.51,41,282.52,41,282.53,41.22Z"/><path class="cls-1" d="M288.71,43.18c.47,2.36,3.31,2.36,5.21.94-.95-2.36-3.32-2.84-3.79,0Z"/><path class="cls-2" d="M288.22,43.17c.69,2.8,4.26,2.42,6.11,1.11.06,0,.1-.07.07-.15A3.21,3.21,0,0,0,291.79,42c-1.32-.1-1.93.94-2.16,2.09l.87,0-1.42-1c-.22-.14-1.18-.1-.74.19l1.42.95c.14.09.81.24.87,0,.13-.7.38-1.55,1.13-1.8.51-.17,1.92,1.45,1.53,1.73-1.49,1.06-3.59,1.1-4.09-.93C289.13,42.92,288.15,42.86,288.22,43.17Z"/><path class="cls-1" d="M293,40.81V42.7c7.57,2.37-1-6.15.95-.94Z"/><path class="cls-2" d="M292.14,40.72v1.89c0,.15.38.22.49.26a9.34,9.34,0,0,0,2.57.48,1.76,1.76,0,0,0,1.24-.35c.51-.54-.12-1.44-.46-1.87a3.17,3.17,0,0,0-2.06-1.3c-1.13-.1-.75,1.14-.52,1.8l0,.09.93,0-.95-1a1,1,0,0,0-.66-.2c-.11,0-.38.08-.22.24l.94.94c.12.12,1,.35.93,0a3.33,3.33,0,0,1-.27-1.24.41.41,0,0,1,.08-.27c.07-.1,0,0-.06,0a.58.58,0,0,1-.14,0s.12,0,0,0l.11.05a2.27,2.27,0,0,1,.32.22,4.63,4.63,0,0,1,.7.7c.26.33.72,1,.47,1.43-.41.7-2.14.07-2.64-.09a.38.38,0,0,1,.16.26V40.91C293.14,40.59,292.14,40.47,292.14,40.72Z"/><path class="cls-1" d="M296.76,38c.47,1.89,4.26,2.84,4.73,1,.47-2.37-6.63-2.84-3.79.47Z"/><path class="cls-2" d="M296.28,37.89c.49,1.62,2.53,2.33,4.06,2.29s2.18-1.53,1-2.51a4.69,4.69,0,0,0-3.62-.81c-1.53.29-1.28,1.53-.47,2.51.15.18,1.11.38.89,0L297.2,38c-.15-.22-1.1-.36-.89,0l.95,1.42.89,0c-.47-.56-1-1.52-.14-2a2.75,2.75,0,0,1,2.26.11,1.09,1.09,0,0,1,.25,1.93c-1.11.83-2.94-.3-3.28-1.43C297.15,37.77,296.2,37.62,296.28,37.89Z"/><path class="cls-1" d="M335.1,50.75c-1.42-.47-4.26-2.84-5.21-1-.47,1.42,7.58,8.53,9.47,9,.47-1.89-4.73-7.58-5.68-7.58Z"/><path class="cls-2" d="M335.27,50.59c-1.31-.51-3.45-2.33-5-1.65s-.49,2,.25,2.87a32.7,32.7,0,0,0,4.56,4.4A13.22,13.22,0,0,0,339.19,59c.11,0,.63.16.66-.05.25-1.69-1.51-3.58-2.49-4.77-.84-1-2.19-2.87-3.64-3.11l.36.39,1.42-.48c.33-.11-.55-.46-.8-.38l-1.42.47c-.33.11.27.38.36.39,1.06.18,2.47,2.28,3.1,3,.85,1,2.35,2.75,2.13,4.22l.66,0c-2.49-.77-4.88-3.48-6.67-5.25a11.25,11.25,0,0,1-2.41-3c-.65-1.41,1.87-.77,2.6-.4a20.44,20.44,0,0,0,1.88.92C335.33,51.07,335.91,50.84,335.27,50.59Z"/><path class="cls-1" d="M266.93,105.19c-1.42,2.37,3.79,5.68,5.21,4.26,1.89-2.37-5.68-7.1-5.68-2.37Z"/><path class="cls-2" d="M266.45,105.18c-1,1.94,1.39,3.85,3,4.47,1.23.47,3.66.66,3.49-1.31-.26-3-6.85-5.4-7-1.21,0,.26.93.2,1,0,.15-.63.31-1.26.47-1.89.08-.31-.91-.28-1,0-.16.63-.32,1.26-.47,1.89l1,0a2,2,0,0,1,.62-1.63c.47-.38,1.29,0,1.76.2a4.65,4.65,0,0,1,2.53,2.53,1.27,1.27,0,0,1-.28,1.34c-.56.49-1.93-.38-2.41-.68-1.13-.71-2.51-2.18-1.76-3.6C267.55,105,266.59,104.92,266.45,105.18Z"/><path class="cls-1" d="M276.06,110.87c-2.84,3.79,7.08,8.52,10.08,7.57V118c-3-1.42-6.7-6.63-9.54-6.63Z"/><path class="cls-2" d="M275.45,110.81c-2.87,4.3,7.48,8.84,10.77,7.78.06,0,.15-.07.15-.14,0-.82-.66-1-1.28-1.47-1.16-.93-2.22-2-3.34-3a14.59,14.59,0,0,0-3.22-2.31c-.71-.34-1.58-.36-2.12-.9-.22-.22-1.12-.06-1,.1a1.74,1.74,0,0,0,1.38.68c1.35.26,2.63,1.44,3.65,2.28s2,1.81,3.06,2.71c.42.38.86.74,1.32,1.09.68.52.6.73-.22.66-2.65-.24-10.72-3.68-8.23-7.41C276.56,110.7,275.61,110.57,275.45,110.81Z"/><path class="cls-1" d="M286.82,120.81c-.95,1.89,4.73,2.84,4.25.47-.47-2.84-5.67-2.36-3.31,1Z"/><path class="cls-2" d="M286.33,120.84c-1,2.28,5.68,3.17,5.24.36-.25-1.56-1.91-2.17-3.31-1.94a2,2,0,0,0-1.48.93c-.39.71.12,1.6.52,2.17.15.23,1.1,0,.93-.26l-1-1.42c-.15-.24-1.1,0-.93.26.31.48.63,1,.95,1.42l.93-.26c-.42-.62-1.12-2.31.2-2.46a2.07,2.07,0,0,1,2.15,1.73c.4,2-4,1.08-3.28-.59C287.41,120.53,286.45,120.57,286.33,120.84Z"/><path class="cls-1" d="M293.92,124.12c-.95,1.9,2.36,2.84,2.84,1.42s-3.79-4.26-3.32-.47Z"/><path class="cls-2" d="M293.44,124.06c-1.29,2.83,4.59,3.09,3.75.8a3.27,3.27,0,0,0-2.43-1.84,1.72,1.72,0,0,0-1.43.28,2,2,0,0,0-.39,1.76c0,.28.87.3,1,.08l.48-1c.13-.27-.84-.38-1-.13L293,125l1,.09c0-.43-.09-1.86.6-1.68a2.9,2.9,0,0,1,1.57,1.29c.32.54.15,1.4-.63,1.32a1.28,1.28,0,0,1-1.08-1.83C294.53,123.91,293.55,123.81,293.44,124.06Z"/><path class="cls-1" d="M299.37,123.65c.47.95,2,1.42,3.43.95a4.21,4.21,0,0,0-3.66-2.84v1.42Z"/><path class="cls-2" d="M298.64,123.73c.8,1.38,2.7,1.43,4.06,1,.05,0,.26-.08.24-.18a4.06,4.06,0,0,0-4.16-3c-.14,0-.63,0-.63.22s-.15,1.3,0,1.47l.47.48c.22.21,1.13,0,1-.15s-.25-.26-.38-.38-.07-1.14-.07-1.46l-.62.22a3.4,3.4,0,0,1,3.41,2.66l.24-.18a2.14,2.14,0,0,1-2.58-.86C299.46,123.33,298.5,123.47,298.64,123.73Z"/><path class="cls-1" d="M86.58,65.43c-2.84,2.36,2.37,6.62,4.73,4.73,1.9-1.89-1.89-5.21-3.78-3.31A2.28,2.28,0,0,0,88,70.16Z"/><path class="cls-2" d="M86.14,65.23c-3.33,3,4,7.91,6,4.63,1.07-1.79-1.62-3.67-3.13-3.8a2.16,2.16,0,0,0-2.31,1.21,2.49,2.49,0,0,0,1,3c.08,0,.86.31.77,0-.48-1.58-1-3.16-1.43-4.74-.08-.28-1-.45-1-.19q.72,2.37,1.42,4.73h.77c-1.64-1-.63-4.07,1.36-3.46,1.31.4,2.43,2.46,1.09,3.45-2.23,1.64-6-2.39-3.72-4.44C87.24,65.43,86.35,65,86.14,65.23Z"/><path class="cls-1" d="M95.1,68.74c1.42,1.42,5.21,1.42,4.26-2.37-2.84-.94-6.63,2.37-2.84,3.79Z"/><path class="cls-2" d="M94.66,68.76a4.25,4.25,0,0,0,3.52,1c1.72-.26,2-1.92,1.66-3.37,0-.1-.23-.17-.32-.19a4.58,4.58,0,0,0-4.47,1c-1.35,1.29-.14,2.57,1.19,3.11.1,0,1,.14.72-.15-.47-.48-.94-1-1.42-1.42-.18-.19-1.14-.22-.88,0l1.42,1.42L96.8,70c-1.16-.46-1.82-1.38-.93-2.46a3.34,3.34,0,0,1,3.33-1l-.32-.2c.23,1,.24,2.28-.81,2.85a2.26,2.26,0,0,1-2.53-.47C95.35,68.53,94.39,68.51,94.66,68.76Z"/><path class="cls-1" d="M104.14,74.89c2,3.79,6.15-2.36,0-2.84a2.42,2.42,0,0,0,0,3.79Z"/><path class="cls-2" d="M104.08,74.9a2.36,2.36,0,0,0,2.74,1.34,2,2,0,0,0,1.44-2.08c-.08-1.37-1.62-2-2.76-2.19a3,3,0,0,0-1.27-.09c-.46.13-.85.94-1,1.34a2.14,2.14,0,0,0,1,2.68c.13.08,1,.3,1,0V75c0-.31-1-.37-1-.11v1h.9c-1.46-1-1.09-2.46,0-3.62l-.5.09c1.39.13,3.17.85,2.61,2.57a1.73,1.73,0,0,1-1,1.05c-.51.19-1-.57-1.17-1S104,74.65,104.08,74.9Z"/><path class="cls-1" d="M115.93,59.75c-1,2.36.47.47,1.42-.48.47-.47-4.26-.47-.95,2.37Z"/><path class="cls-2" d="M115.43,59.69c-.14.36-.6,1.14,0,1.34a1.16,1.16,0,0,0,1.3-.44c.22-.22.42-.45.63-.68s.46-.39.55-.61-.44-.38-.58-.41a2.82,2.82,0,0,0-2.25.39c-.92.74.36,1.92.92,2.41.14.12,1,.3.93,0l-.48-1.89c-.06-.26-1-.32-1,0l.48,1.9.92,0c-.46-.4-1.35-1.13-1.08-1.84.15-.39.76-.5,1.07-.51h.2s-.07,0-.14-.07-.07,0-.15.12-.34.37-.51.55a6.28,6.28,0,0,1-.81.82c-.27.2.72.42.69.17a.52.52,0,0,1,0-.18,5.08,5.08,0,0,1,.28-.86C116.51,59.59,115.55,59.39,115.43,59.69Z"/><path class="cls-1" d="M121.14,54.07v1.42a5.43,5.43,0,0,0,2,.47V53.59c-2,0-3.84,1.42-2.9,3.32Z"/><path class="cls-2" d="M120.14,54.13v1.42c0,.11.45.13.52.14a4.6,4.6,0,0,1,.94.28,2.82,2.82,0,0,0,1,.19c.16,0,.59,0,.59-.27V53.53c0-.15-.12-.15-.2-.15-1.89,0-4.38,1.32-3.34,3.59.11.25.94.18,1-.08.32-.94.66-1.89,1-2.84.09-.28-.87-.24-1,0-.32.94-.63,1.89-.94,2.84l1-.08a2.09,2.09,0,0,1,2-3c-.13,0,.42-.09-.58-.14V56c1-.1.68-.19.92-.28-.68,0-1.38-.42-2-.47.09,0,.12.09.12.14V54C121.14,53.74,120.14,53.82,120.14,54.13Z"/><path class="cls-1" d="M122.56,65c2.84,1.42,3.31-3.78,0-2.84C121.13,62.59,121.61,64.48,122.56,65Z"/><path class="cls-2" d="M122.13,65.07a2.39,2.39,0,0,0,2.81-.27,1.92,1.92,0,0,0,.07-2.33c-.66-.88-2.17-.81-3.06-.38-1.24.6-.88,2.39.18,3a.94.94,0,0,0,.68.05c.11,0,.38-.17.17-.28a1.67,1.67,0,0,1-.62-2.21,1.06,1.06,0,0,1,1.77.1,1.76,1.76,0,0,1,.1,1.58.82.82,0,0,1-1.25.53,1,1,0,0,0-.68,0C122.21,64.81,121.91,65,122.13,65.07Z"/><path class="cls-1" d="M129.18,72.05c0,1.06,1.9,1.42,2.37-.47S129.18,69.21,129.18,72.05Z"/><path class="cls-2" d="M128.69,72c0,.93,1.16,1.27,1.94,1.14a1.88,1.88,0,0,0,1.42-2.24c-.18-.8-1.18-1.11-1.89-1-1.08.13-1.45,1.17-1.47,2.13,0,.31,1,.42,1,.16a2.13,2.13,0,0,1,.67-1.74c.33-.26.53-.07.68.29a1.78,1.78,0,0,1-.5,1.78c-.39.38-.83.27-.85-.33C129.66,71.81,128.68,71.73,128.69,72Z"/><path class="cls-1" d="M137.7,85.31c0,.47-.47.47-.47.94,1.42,1.43,3.31,1,3.31-1.42-1.89-.47-4.26,0-2.36,1.42Z"/><path class="cls-2" d="M137.21,85.24c0,.32-.29.4-.4.67s.06.49.35.71a3,3,0,0,0,1.71.64c1.44.06,2.14-1,2.17-2.36,0-.15-.23-.21-.34-.24a5.6,5.6,0,0,0-3.09,0c-1,.37-.5,1.16.13,1.65.12.09,1.08.27.92,0l-.47-.94c-.14-.27-1.09-.27-1,0s.31.63.47.94l.93,0c-.35-.28-1-.82-.37-1.17a3.21,3.21,0,0,1,2.14,0l-.34-.24c0,.81-.24,1.81-1.13,2.06-.41.11-.85-.26-1.13-.5s.38-.73.41-1S137.24,85,137.21,85.24Z"/><path class="cls-1" d="M144.14,84.83a3.53,3.53,0,0,0,4.26,0c-1-2.84-5.26-2.36-4.26.48Z"/><path class="cls-2" d="M143.42,84.87a4.37,4.37,0,0,0,5.11.13c.06,0,.1-.07.07-.14a3.17,3.17,0,0,0-3.08-2.14,2.16,2.16,0,0,0-2.26,2.51c0,.3.88.42.88.15v-.47c0-.31-1-.41-1-.15v.47a3.65,3.65,0,0,1,1.1.15c-.15-1.09.53-2.53,1.88-2.19a2.35,2.35,0,0,1,1.41,1.43c.14.31-1.06.6-1.2.63a2.16,2.16,0,0,1-2-.45C144.1,84.62,143.15,84.63,143.42,84.87Z"/><path class="cls-1" d="M150.48,83.89c.48.47-.94,0-.94.47,1.89,3.32,7.57,0,7.57-3.31a2.93,2.93,0,0,0-3.79,2.36,2.45,2.45,0,0,1-.94-1.89,14.53,14.53,0,0,0-2.84,1.89C150,83.89,150,83.41,150.48,83.89Z"/><path class="cls-2" d="M150,83.88c-.07-.1-.73.09-.84.14-.4.19.15.71.28.86A3.58,3.58,0,0,0,152.24,86c2.5,0,5.23-2.27,5.36-4.79,0-.18-.3-.29-.44-.32-2.08-.41-3.69.32-4.32,2.44l.93.13a2.72,2.72,0,0,1-.91-1.83c0-.25-.71-.36-.88-.27a13.64,13.64,0,0,0-2.9,1.92c-.08.08,0,.18.08.22.29.22.71.31,1,.48s1.17.21.75-.1a2.07,2.07,0,0,0-.48-.31c-.39-.15-.44.1-.2-.12a12.68,12.68,0,0,1,2.59-1.69l-.87-.27a2.86,2.86,0,0,0,1,2c.13.12.84.43.93.13.45-1.54,1.49-2.65,3.25-2.3l-.43-.31a5.2,5.2,0,0,1-3.14,4.13,2.58,2.58,0,0,1-3.33-.41c-.14-.18.81-.34.9-.5a.11.11,0,0,0,0-.12l-.09-.13C150.78,83.68,149.82,83.56,150,83.88Z"/><path class="cls-1" d="M159.48,81.52c-.48.47-.95,1-.95,1.42,1.9,1,5.21.47,5.68-1.89a2.45,2.45,0,0,0-3.78,2.36Z"/><path class="cls-2" d="M159,81.44a2.85,2.85,0,0,0-1,1.47c0,.07.09.13.14.15,2.16,1,5.85.76,6.54-2,0-.07-.09-.13-.14-.15-2.19-1-4.54-.17-4.64,2.46h1c-.32-.63-.63-1.26-.95-1.9-.13-.25-1.09-.2-1,.06.32.63.64,1.26.95,1.89.1.21,1,.29,1,0a2.77,2.77,0,0,1,1-2.26c.24-.18,1.89-.57,1.72.09a2.46,2.46,0,0,1-.61,1,3.46,3.46,0,0,1-2.42.93,3.89,3.89,0,0,1-1.51-.28c-.33-.13.78-1.25.85-1.32S159.21,81.22,159,81.44Z"/><path class="cls-1" d="M175.14,82.94c-1,3.79,3.06,2.84,4.48,2.37-.48.47,2.47-1.9,2.47-1.42.95-1,2.42,0,2.9-2.37.47-3.79-2.56-1.42-4-.47a31.82,31.82,0,0,1-5.87,2.36Z"/><path class="cls-2" d="M175.09,82.9c-1.65,3.64,2.73,3.29,5,2.57l-.74-.2,0,.06c-.2.22.66.22.74.2a2.1,2.1,0,0,0,.63-.4l.74-.54c.16-.12.33-.24.51-.35.52-.22.46-.31-.2-.28.14.22.74.15.92,0,1.35-1.08,2.37-.47,2.9-2.47.29-1.08,0-2.16-1.18-2.25a4.8,4.8,0,0,0-2.78,1.19,25.71,25.71,0,0,1-6.23,2.81,4.39,4.39,0,0,1,.79.15v-.48c0-.27-1-.26-1,0v.47c0,.25.6.19.72.15a25.83,25.83,0,0,0,6.6-3,12.45,12.45,0,0,1,1.35-.82c1-.5.76,1.5.73,1.75-.14,1.7-1.77,1.46-2.77,2.26l.91,0,0-.06c-.08-.13-.36-.14-.49-.13-1.09.08-1.89,1.36-2.64,1.57l.75.2s0,0,0-.05c.2-.23-.66-.23-.74-.21-2,.64-4.83.72-3.52-2.16C176.18,82.7,175.21,82.64,175.09,82.9Z"/><path class="cls-1" d="M132,37.5c-1.42,2.36,1.42,6.15,2.84,2.84,1.9-4.74-5.2-3.32-1.89,0Z"/><path class="cls-2" d="M131.55,37.34a3.12,3.12,0,0,0,1.78,4.5c1.75.41,2.76-2.29,2.18-3.63a2.37,2.37,0,0,0-3-1c-1.34.59-1,2-.16,2.89l.17.17c.1.1,1,.47.91.14-.31-.95-.63-1.9-.94-2.84-.1-.29-1-.45-.95-.2.31.94.63,1.89.94,2.84l.92.14c-.62-.64-1.29-1.7-.46-2.46.51-.48,1.23-.55,1.59,0,.58,1-.16,3.12-1.24,3.42-.48.14-.94-1-1.05-1.37a3,3,0,0,1,.25-2.36C132.62,37.44,131.7,37.07,131.55,37.34Z"/><path class="cls-1" d="M140.07,42.7c-2.84,1.9,1.89,3.79,2.37-.47-1.42-1.42-2.84-.95-3.32,1Z"/><path class="cls-2" d="M139.63,42.63c-.61.43-1.41,1.32-.63,2a2.38,2.38,0,0,0,2.53.07,2.53,2.53,0,0,0,1-1.13,4.11,4.11,0,0,0,.32-1c.1-.5-.27-.68-.66-.94a2.54,2.54,0,0,0-2.13-.26,2.41,2.41,0,0,0-1.46,1.83c-.09.33.7.21.85.13l.94-.47c.47-.23-.49-.35-.72-.23l-1,.47.85.14a2.61,2.61,0,0,1,.82-1.45c.48-.4,1.55.28,1.46.85a2.53,2.53,0,0,1-1.24,1.94.73.73,0,0,1-.93-.38c-.3-.55.41-1.13.79-1.39.19-.13-.1-.24-.2-.26A1,1,0,0,0,139.63,42.63Z"/><path class="cls-1" d="M125.87,37.37c-.47,0-.47,2-.47,2h1.74v-2h-1.27Z"/><path class="cls-2" d="M125.38,37c-.61.71-.48,2.17-.48,3,0,.14.29.32.38.32h1.89c.14,0,1-.32,1-.54V37c0-.15-.65-.62-.73-.62h-1.9c-.17,0-.5.31-.6.48s.29.52.37.52h.47c.17,0,.5-.31.6-.48s-.28-.52-.36-.52h-.48c-.17,0-.5.31-.6.48s.29.52.37.52h1.89c-.13,0,0-.25,0-.31V39.9c0-.08.06-.53.27-.53h-1.9c.13,0,.26.25.38.31,0-.84-.13-2,.46-2.71C126.5,36.8,125.58,36.78,125.38,37Z"/><path class="cls-1" d="M305.18,124.6c-.47,0,0,.47-1,.47v.47c1,.95,2.94,1.9,4.36.48.94-1-2.84-2.84-3.79.47Z"/><path class="cls-2" d="M305,124.37c-.39.07-.6.41-1,.47,0,0-.18,0-.18.1,0,.58.09.68.56,1a4.69,4.69,0,0,0,2.06.92c.72.11,3.18-.13,2.7-1.38-.31-.8-1.54-1.09-2.28-1.14a2.5,2.5,0,0,0-2.57,2l1,.26c.16-.63.32-1.26.47-1.89.07-.28-.89-.54-1-.26l-.48,1.89c-.07.28.88.54,1,.26a2.38,2.38,0,0,1,1.52-1.73,1.2,1.2,0,0,1,1.43.57c.1.25-.15.43-.31.57a2,2,0,0,1-2.3.17,3.81,3.81,0,0,1-.62-.43c-.24-.19-.2-.24-.2-.52,0,0,.72-.41.77-.42C306.1,124.74,305.23,124.33,305,124.37Z"/><path class="cls-1" d="M303.39,127.37c-1.9,0-4.26-.47-5.21,1.42,2.84,2.84,7.1-1.42,3.31-1.42Z"/><path class="cls-2" d="M303.39,126.76c-2,0-4.55-.46-5.69,1.57,0,.07,0,.1.05.15a4,4,0,0,0,5,.37,1.3,1.3,0,0,0,.67-1.41c-.22-.64-1.41-.56-1.93-.57v.5h1.89c.59,0,.6-1,0-1h-1.9c-.59,0-.59.58,0,.6.76,0,1.28.48.78,1.2a2.43,2.43,0,0,1-2.12.92,2.58,2.58,0,0,1-1.34-.64c-.5-.4,1.18-1.18,1.36-1.23a11.9,11.9,0,0,1,3.21-.06C304,127.16,304,126.77,303.39,126.76Z"/><path class="cls-1" d="M305.28,128.37c-.95,6,9-.47,2.37,0h0a3.59,3.59,0,0,0,1.89.94h0c-1,0-2.37-.95-3.31-.95Z"/><path class="cls-2" d="M304.79,128.28c-.16,1.13,0,2.34,1.18,2.78a3.8,3.8,0,0,0,3-.36c.58-.3,1.53-.91,1.42-1.68-.14-1-2.33-.9-3-.86-.1,0-.4.08-.23.24a4.34,4.34,0,0,0,2.43,1.15l-.3-.44a10.25,10.25,0,0,1-2.93-.89,4.63,4.63,0,0,0-1.33-.17c-.65,0,.12.32.42.32h.7c.31,0,.17.22,0,.12.26.12.54.29.81.39a9.05,9.05,0,0,0,2.79.64c.6,0,0-.39-.3-.42a2.6,2.6,0,0,1-1.36-.73l-.23.23c.38,0,1.69-.24,1.58.48-.09.56-.8,1-1.25,1.25a2.76,2.76,0,0,1-1.8.44c-.83-.26-.71-1.66-.62-2.28C305.81,128.19,304.83,128,304.79,128.28Z"/><path class="cls-1" d="M311.14,131.7c-1,1.42,2.37,3.79,4.26,2.84a4.43,4.43,0,0,0-4.26-3.31Z"/><path class="cls-2" d="M310.47,131.72c-.59,1,.51,2,1.3,2.56a4,4,0,0,0,3.73.39c.06,0,.24-.1.21-.21A4.71,4.71,0,0,0,311,131c-.17,0-.88,0-.88.28v.47c0,.26,1,.16,1-.15v-.47c0,.09-.32.19-.56.28a4.16,4.16,0,0,1,4.07,3.18,2.56,2.56,0,0,1,.26-.2c-1.24.54-4.4-1.13-3.49-2.73C311.55,131.46,310.62,131.46,310.47,131.72Z"/><path class="cls-2" d="M141.18,12.66c-4.38.34-2.1,9.26,1.83,8.4,2.93-.64,3.16-6,1.58-7.87-2.34-2.79-8.44-.92-7.93,3,.49,3.71,5.5,6.62,8.47,3.76,1.77-1.71,2.66-4.85,1.19-7a5.9,5.9,0,0,0-5.07-2.57c-2.54.21-3.76,2.57-3.54,4.94a6.32,6.32,0,0,0,4.58,5c5.26,1.4,6.73-6,2-7.79a4.65,4.65,0,0,0-5.38,1.38,5.27,5.27,0,0,0,.8,6.56,4.19,4.19,0,0,0,4.49.56c2.06-1.21,1.36-3.51.19-5.11-.91-1.25-3.13-3.55-4.92-2.39s-1.72,3.79-1,5.44a3.48,3.48,0,0,0,4.21,1.65c1.73-.55,1.59-2.93,1.25-4.31a4,4,0,0,0-2.88-3.22c-2.2-.4-2.85,2.42-2.39,4s1.91,3,3.62,2.54c1.2-.34,1.34-1.84,1-2.81a3.91,3.91,0,0,0-2.58-2.19c-.11,0-.63-.19-.66,0-.39,2.53,1.38,6.62,4.25,4.08a.08.08,0,0,0,0-.1A3.87,3.87,0,0,0,142.25,17c-.08,0-.78-.27-.77,0a5,5,0,0,0,.47,2,.86.86,0,0,0,.69.35h.47c.08,0,.26-.05.28-.16,1.22-4.76-6.56-6.52-6.23-1.61a3.61,3.61,0,0,0,3.53,3.53c1.87,0,3.44-1.68,4.1-3.29,1.64-4-5.39-7.08-7-3.15a5.25,5.25,0,0,0,1.53,5.6c1.36,1,3.94,1.41,5.14-.09C146.26,18,140.73,14.05,141,18c0,.33,1,.45,1,.24,0-.39-.09-1.87.68-1.3a3.3,3.3,0,0,1,1.07,1.68,1.5,1.5,0,0,1-.82,1.82,2.62,2.62,0,0,1-3.29-.72,5.26,5.26,0,0,1-.91-4.52c.61-2.41,3.51-2.13,4.87-.48,2,2.45-2.43,7.87-4.62,5.22-1.14-1.36-1.35-4.12.61-4.82,2.77-1,3.36,3.72,2.67,3.72l.68.29a4.17,4.17,0,0,1-.46-1.84h-.78c.28.13,2.1.82,1.36,1.47-.95.84-1.38-.1-1.67-.7A5.46,5.46,0,0,1,141,14.9l-.66,0a2.79,2.79,0,0,1,2,3.27c-.5,2-2.19.37-2.66-.63a2.9,2.9,0,0,1,1.11-4c1.88-.87,2.41,4.33,2.18,5.25a1.89,1.89,0,0,1-3.09,1c-.94-.86-1-2.44-.88-3.6.13-1,.68-2.48,1.86-2.54,1.53-.07,3.27,3,3.59,4.22a2.43,2.43,0,0,1-1.05,2.64,2.62,2.62,0,0,1-3.74-1.15c-1.6-2.73-.17-6.73,3.22-6.76,3.69,0,4.5,5.61,1.49,7.17-1.65.86-3.53-.5-4.57-1.7a5.11,5.11,0,0,1-1-4.88c.85-2.92,4.06-3,6-1s1.17,5.1-.45,7.11c-3.2,4-9.09-2.48-6-5.71,1.41-1.47,4.58-1.81,5.68.13a5.79,5.79,0,0,1,.11,4.46c-.34,1.07-1.52,3.26-2.78,2-1.53-1.56-2.95-6.84.35-7.09.52,0-.36-.47-.61-.45Z"/><path class="cls-2" d="M154.27,21.77c-1.13,1-1,3.44-1,4.81-.1,2.2,0,4.4,0,6.6l1,.11c0-3.64-.24-7.31.66-10.89a3.75,3.75,0,0,1-.81-.11V33.66s.47,0,.8.05c-2.53-4.27,5.09-5,7.74-5,.08,0,.46,0,.46-.15V23.35c0-.3-1.16-.37-1.16-.11,0,4-.62,7.89-.65,11.84a5,5,0,0,1,.81.1V22.88a.61.61,0,0,0-.41-.51h-.47c-.08,0-.12.26-.12.4v9.94c0,.3,1,.37,1,.11V24.87c0-.38-.54-1.84-.15-1.84-.21-.09-.85-.18-.85-.26V35.08c0,.3,1.09.37,1.1.1,0-3.95.64-7.88.68-11.83a4.06,4.06,0,0,1-.78-.11v3.44c0,1.2.25,1.57-1,1.66a23.71,23.71,0,0,0-4.36.69c-2.37.64-4.3,2.15-2.8,4.68.11.18,1.13.35,1.13,0V22.4c0-.29-1.11-.39-1.18-.11-.9,3.58-.6,7.25-.57,10.89,0,.31,1,.37,1,.11,0-1.82-.11-3.64-.09-5.46,0-1.53-.29-4.7,1-5.85.18-.16-.74-.42-1-.21Z"/><path class="cls-2" d="M154.92,28.37h0c-.5,0,.2.38.36.41a25.93,25.93,0,0,0,5.9.47c.52,0-.33-.51-.57-.51a23.91,23.91,0,0,1-5.46-.65c.12.16.24.28.35.28h-.58Z"/><path class="cls-2" d="M169.92,23.57c-2.48,2.79-3.2,7.38-3.82,10.94l1,.3a42.13,42.13,0,0,1,1.71-9.63q.24-.88.45-1.77c.29-1.17-.14-1,.23-.34a14.73,14.73,0,0,1,1,2.49,49.92,49.92,0,0,1,1.4,5.67c.17.83.31,1.67.43,2.51s-.12,1,.56,1.2c-.56-.2-.67.18-.12.38h0c.14.05.45.13.54,0,.31-.56-.14-1.93-.24-2.5a55.05,55.05,0,0,0-1.21-5.53c-.45-1.71-.91-5.15-3.14-5.15-.05,0-.17,0-.18.09-.95,4.09-2.27,8.07-2.37,12.31,0,.29.91.56,1,.3.61-3.5,1.32-8.1,3.76-10.84.2-.24-.71-.61-.89-.4Z"/><path class="cls-2" d="M166.4,32.06c2.53,0,5-.31,7.57-.34.52,0-.35-.35-.59-.35h-7.57c.19,0,.39.19.59.35a25.87,25.87,0,0,0,5.76-.56c.35-.08-.5-.54-.76-.48a24.87,24.87,0,0,1-5.59.33c-.51,0,.34.36.59.36H174c-.19,0-.39-.21-.59-.37-2.53,0-5,.49-7.57.52-.51,0,.34.54.59.54Z"/><path class="cls-2" d="M167,25.21a92,92,0,0,0-1.89,9.46l1,0c.63-3.91,3.2-7.11,4.26-10.89l-1,.09c2.09,3.2,1.84,7.18,3.79,10.41.15.25,1.11.11,1-.14-1.95-3.22-1.7-7.21-3.79-10.41-.15-.23-.9-.19-1,.09-1.06,3.78-3.63,7-4.26,10.88,0,.24,1,.28,1,0A92.21,92.21,0,0,1,168,25.17c.06-.21-.91-.28-1,0Z"/><path class="cls-2" d="M167.34,32.06c2.06,0,4.09-.44,6.15-.47.52,0-.33-.5-.58-.49-2.06,0-4.09.44-6.15.47-.52,0,.33.5.58.49Z"/><path class="cls-2" d="M175.09,26.67c1.07,2.82,1.6,6,3.31,8.52a.78.78,0,0,0,1,0c2.28-3.36,3.27-7.34,5.2-10.89l-1-.08C182.55,27.48,181.79,31,180,34c-1.45,2.44-2.71-2-3-3.11-.43-1.72-.56-3.49-1-5.21-.06-.28-1-.26-1,0,.14,2.75,1.69,4.79,2.33,7.37.2.83.39,1.63,1.39,1.49,1.28-.17,2.49-2.17,3.05-3.12a23.42,23.42,0,0,0,2.28-7.65c0-.25-.9-.27-1,0-1.07,3-2.69,5.87-3.33,9,0,.24.94.3,1,0,.63-3.13,2.24-5.94,3.3-8.94l-1,0c-.61,3.47-1.4,6.9-3.8,9.57-.87,1-.67.63-.92-.33a6.76,6.76,0,0,0-.46-1.74,11.93,11.93,0,0,1-1.87-5.63l-1,0c.51,2.25.63,10.16,4.42,9.65,1.57-.21,2.34-2.88,2.81-4.05.91-2.28,1.52-4.65,2.27-7,.1-.31-.84-.31-1-.08-1.94,3.54-2.92,7.52-5.21,10.89l1,0c-1.71-2.53-2.23-5.7-3.31-8.53-.09-.25-1.08-.17-1,.13Z"/><path class="cls-2" d="M189.47,24.49c-1.32.26-1.83,2.58-2.19,3.62-.73,2.1-1.25,4.26-1.78,6.42l1,.26a33.73,33.73,0,0,1,2.13-7.23,30.64,30.64,0,0,1,1.5-3.11c.94-1.72,2-.2,2.38.86.8,2.3.91,6.53-.35,8.74l1,.21c-1.18-3.85-4.76-4.09-8.25-4.1l.5.46a58.16,58.16,0,0,1,8.42-.94c.08,0,.32,0,.28-.16a24.29,24.29,0,0,1-1.42-5.2c0-.26-1-.44-1-.21a79.88,79.88,0,0,0,1,10.47c0,.25.95.45,1,.21.05-2.61,1.88-11-2.58-11.25s-5,8.4-5,11.46c0,.32,1,.5,1,.26a1.85,1.85,0,0,1,.44-1.37c.19-.27-.74-.58-.9-.36A2.21,2.21,0,0,0,186,35l1,.26c0-3.34.47-7.76,2.66-10.44,2.55-3.11,3.29,2.67,3.31,4.06,0,1.89-.27,3.76-.31,5.65l1,.2a81.73,81.73,0,0,1-.94-10.36l-1-.2a10.84,10.84,0,0,0,.66,3c.12.34,1.07,2.06.08,2.1a64,64,0,0,0-7.67.94c-.52.08.31.46.51.46,2.94,0,5.89.23,6.89,3.48.08.25.82.46,1,.2,1.3-2.28,1.65-8.92-.75-10.68-.91-.67-2.22-1-2.89,0a29.52,29.52,0,0,0-3.95,10.87c-.05.29.9.53,1,.26.41-1.65.82-3.3,1.3-4.93.3-1,1-4.66,2.3-4.92.52-.1-.35-.5-.6-.45Z"/><path class="cls-2" d="M188,30.6a30.59,30.59,0,0,1,5.89.45l0-.39c-1.75,0-3.46-.55-5.21-.58.08.13.15.29.23.29h-.23c-.69,0-.19.31.23.32,1.75,0,3.45.39,5.2.43.44,0,.47-.32,0-.41a33.54,33.54,0,0,0-6.41-.51c-.69,0-.21.4.22.4Z"/><path class="cls-2" d="M200.69,23.71c-2.84,2-2.87,7-3.37,10l1-.1c0-3.53,0-7.25,1.88-10.36l-1,.1A92.88,92.88,0,0,0,204,32.87c.16.24.82.09,1-.11,2.13-2.93,2.3-7,2.85-10.46l-1,.1a24.07,24.07,0,0,1-2.36,9.89l.91-.15c-3.23-1.62-3.32-5.53-4.68-8.47-.12-.27-.83-.07-1,.1-2.21,2.93-2.12,6.74-3.79,9.94l1-.05a24.38,24.38,0,0,1,2.16-6.36c.41-.88.8-1.77,1.16-2.68s-.09-1.43.24-.14c.86,3.34,1.61,6.63,4.46,8.86.2.16.82.17,1-.1,1.77-3.41,1.43-7.25,2.36-10.89.08-.31-.88-.26-1,0-1,3.13-1.82,6.33-2.84,9.46-.09.3.89.27,1,0,1-3.14,1.82-6.34,2.84-9.47h-1c-.93,3.63-.6,7.48-2.36,10.88l1-.1c-3.14-2.45-3.72-6.13-4.71-9.75,0-.14-.27,0-.39,0h-.47c-.14,0-.55-.11-.6.06-1.12,3.57-3.21,6.66-3.8,10.4,0,.26.88.12,1-.08,1.67-3.2,1.58-7,3.79-10l-1,.09c1.4,3,1.47,6.9,4.79,8.56.2.1.78.11.9-.15a24.19,24.19,0,0,0,2.38-10c0-.27-.94-.19-1,.1-.55,3.45-.71,7.44-2.83,10.36l1-.1a91.86,91.86,0,0,1-4.73-9.47c-.12-.24-.85-.08-1,.1-1.91,3.15-1.91,6.91-1.91,10.47,0,.28,1,.19,1-.1.48-3,.47-7.86,3.25-9.84.28-.2-.66-.26-.88-.11Z"/><path class="cls-2" d="M214.14,23.59c-3.6,1-4,6.68-5,9.63l1,0c.09-2.91,1-7.13,3.38-9,2.52-2,3.48,8.42,3.67,9.47.05.29,1,.31,1,0a15.74,15.74,0,0,0-4.28-10c-.17-.18-.8-.28-1,0a65.09,65.09,0,0,0-4.73,9.94l1,.09c1.08-3,2.95-7,5.37-9.12,1-.88,1.84,3.62,1.95,4.31a45.76,45.76,0,0,0,.67,5.24L218,34c-3.18-1.07-4.84-3.46-8.43-3.2-.58,0-.32.55.11.55h9c.42,0,.73-.45.15-.54-1.24-.19-2.48-.39-3.73-.48-.57,0-1.15-.09-1.74-.1-.29,0-.58-.14-.88-.14a1,1,0,0,0-1.06.26h-.77c-.59,0-.61.31,0,.31a58.21,58.21,0,0,1,7,.13c.09-.08.19-.44.29-.44h-7.42c1.13,0,2.69,1.35,3.64,2a13,13,0,0,0,3.35,1.86c.09,0,.82.12.76-.11-.65-2.38.2-10-3.48-10.15-1.5-.06-2.61,2.28-3.25,3.29a35,35,0,0,0-3.26,6.39c-.08.2.87.33,1,.09a65.09,65.09,0,0,1,4.73-9.94l-1,0a15.54,15.54,0,0,1,4.24,9.89l1,0c-.44-2.45-.07-9.95-3.81-10.16s-5.16,6.83-5.24,9.65c0,.29.92.31,1,0,.83-2.61,1.32-8.46,4.48-9.31.63-.17-.19-.44-.49-.36Z"/></svg>