<svg id="layer1" xmlns="http://www.w3.org/2000/svg" viewBox="0 0 217.39 200.51"><defs><style>.cls-1{fill:#ff5e0d;}.cls-2{fill:#ad210e;}.cls-3{fill:#423407;}</style></defs><path class="cls-1" d="M92.22,84.62a18,18,0,0,0,2.86-2,3.46,3.46,0,0,0,.07-5.17,9,9,0,0,0,4.58-2.91,20.15,20.15,0,0,0,2.47-1.82,3.53,3.53,0,0,0,.38-4.94c-.13-.13-.27-.24-.39-.36a23.37,23.37,0,0,0,2.3-1.32c2.05-1.36,1.22-4.26-.3-5.55-.31-.25-.62-.48-.94-.7a3.48,3.48,0,0,0-1.69-5.28,26.29,26.29,0,0,0-7.92-1.36,3.41,3.41,0,0,0-2.86,1.43c-4.93-.93-10.34,4.8-13.72,7.79-5.13,4.54-9.43,10-13.59,15.45-.7.73-1.39,1.49-2.06,2.25l-1.66-.33c-2.69-.51-3.86,1.87-3.44,4a5.61,5.61,0,0,0-3.1,3.47c-.69,2,.46,3.6,2.16,4.45a33.59,33.59,0,0,0,7.76,2.67c4.38,1.46,9.77,1.13,14,.63a3.48,3.48,0,0,0,1.18-.37A23.32,23.32,0,0,0,85,92.21a3.77,3.77,0,0,0,1.88-3.66l2.49-.43A3.67,3.67,0,0,0,92.22,84.62Z"/><path class="cls-1" d="M48.09,76.85c0-.12.09-.24.13-.35h0c.12-.38.24-.77.35-1.16q.86-2.47,1.72-5c0-.06.05-.1.07-.15C53,63.85,58.69,59.48,61.29,53l1.17-.85a3.11,3.11,0,0,0,1.92-.46c5.38-3.09,11-5.71,16.59-8.29q4.17-.52,8.35-.68a3.73,3.73,0,0,0,2.76-1.46l.21,0c4.47.31,4.94-6.6.51-7a3.58,3.58,0,0,0-4.75-1.91c-.55.27-1.1.52-1.65.78-.16-2-1.82-3.95-4.13-3.35-7.63,2-15.32,3.69-23,5.66A3.45,3.45,0,0,0,57,37.34a29.13,29.13,0,0,0-4.35,3.11,24,24,0,0,0-2.81,2.9,31.18,31.18,0,0,0-10.75,16.8,4.08,4.08,0,0,0,1.4,4.05,24.53,24.53,0,0,0,.19,10.72,3.82,3.82,0,0,0,.72,1.53C42.08,79.41,46.85,80.44,48.09,76.85Z"/><path class="cls-2" d="M80.5,90.51A3.52,3.52,0,0,0,82.67,95a25.38,25.38,0,0,1,3.91,1.54c3.38,7.52,9.48,13.42,15.55,19a47.27,47.27,0,0,0,6.27,8.1,62,62,0,0,0,7,14.55,40.35,40.35,0,0,0,13.45,17.12,3.17,3.17,0,0,0,2.56.57c.24.19.49.39.75.57,2,1.46,4.33.22,5.29-1.74a9.86,9.86,0,0,0,.92-3.32,2.93,2.93,0,0,0,.79-2c-.24-6.3-3.7-11.91-7.18-17a52,52,0,0,0-4.46-5.66c-1.81-2.45-3.7-4.82-5.58-7.14a206.17,206.17,0,0,0-15.25-16.71c-2-3.29-4.06-6.53-6.22-9.72-1.2-2.73-1.78-5.62-.68-8.31,1-2.45-.86-4.23-2.91-4.45A3.57,3.57,0,0,0,92,78.27,23.77,23.77,0,0,0,80.5,90.51Z"/><path class="cls-2" d="M100.47,44.83a3.73,3.73,0,0,0-3.93-2.63c-6.62.49-13,2.61-19.6,3.11a2.75,2.75,0,0,0-2.36,1.44,3.42,3.42,0,0,0-2.21.78,86.89,86.89,0,0,0-7.08,6.61C59.59,58.4,54.77,63.43,52.64,71a3.87,3.87,0,0,0-.13,1c-.13.26-.25.52-.37.78a18.06,18.06,0,0,0-4.22,8.64A2.9,2.9,0,0,0,50.85,85a3.12,3.12,0,0,0,4.56-1Q59.34,78,63.29,72a3.73,3.73,0,0,0,.52-1.21,3.16,3.16,0,0,0,5-.57,44.6,44.6,0,0,1,8.42-9.7,90.61,90.61,0,0,0,14.79-5.72l2.84-.56a3.43,3.43,0,0,0,2.6-2.48,27.43,27.43,0,0,0,4.44,0c4.49-.43,3.1-7.3-1.36-6.86Z"/><path class="cls-3" d="M83.64,94.2A30.68,30.68,0,0,1,43.37,78.29c-7-15.46.8-36.8,15.47-44.85,12.5-6.86,30.6-3.36,40,7.24,10.87,12.33,8,31.17-2.74,42.26l1.76-.1,1.73-1.77c.46-.47-1.42-.27-1.76.09l-1.73,1.78c-.46.47,1.42.26,1.76-.1,12.15-12.49,13.68-33.55-.08-45.71-10.89-9.64-28.66-10.27-41.06-3.47C40.4,42.59,34.31,66.2,43.09,82.09,51.26,96.88,69.48,101,84.34,94.74c1.26-.53.07-.87-.7-.54Z"/><path class="cls-3" d="M85.79,95.67A34.17,34.17,0,0,0,91.06,103c3.34,3.92,6.26,8,9.21,12.25,5.89,8.45,11.55,17,16.58,26.05,3.12,5.58,10.91,18.17,18.8,16,3.75-1,5-5.14,5.43-8.59.92-6.87-5.48-13.75-9.54-18.5-11.69-13.68-25-27.82-32.44-44.38-.2-.45-2.07.21-1.93.52,6.18,13.75,16.7,25.88,26.3,37.37,6.1,7.3,22.8,21.92,12.89,32.45-3.29,3.5-11.1-6.3-12.61-8.18-3.32-4.11-5.72-8.73-8.4-13.26-4.67-7.91-9.93-15.45-15.19-23-3.86-5.51-9.58-10.6-12.44-16.66-.21-.45-2.07.22-1.93.52Z"/><path class="cls-3" d="M53.89,86.9c5.24-1.73,8-9.69,11.25-13.72,8.51-10.67,20.4-21.91,35.14-19.12.44.08,2.08-.62,1.6-.71-10.19-1.93-19.2,1.86-27,8.25a83.59,83.59,0,0,0-12.1,12.56c-2.52,3.17-5.45,11-9.5,12.38-1.32.43-.06.59.64.36Z"/><path class="cls-3" d="M48.49,81.81C53,59.91,73.9,39.14,97.43,42.72c.65.1,2.28-.94,1.17-1.11C73.88,37.85,51.39,58.69,46.55,82c-.16.78,1.8.48,1.94-.22Z"/><path class="cls-3" d="M47.89,82.4c2.26,1.22,5.15,1.27,7.58,2,.43.13,1.61,0,1.73-.58a20.8,20.8,0,0,0-2.75-14.61l-1.8.73a23.88,23.88,0,0,0,9.07,5.56c.5.15,1.73,0,1.75-.7.16-5.39-.3-10.5-3.37-15.08l-1.68.81c3.55,1.53,6.55,4,10.1,5.52.48.21,1.54,0,1.73-.57,1.7-4.61,1.21-9.42,1.9-14.21l-1.86.5,7.34,7.14a1.5,1.5,0,0,0,1.87-.5c1.25-3.8,1.91-7.72,3.81-11.28l-1.86.5c2.46,2.52,4.61,5.4,8,6.66.4.15,1.67,0,1.74-.57a41.06,41.06,0,0,1,1.67-9.08l-1.74.58c3.72,1.75,5.8,5.77,9.64,7.22.54.2,2.3-.6,1.56-.88-3.82-1.45-5.94-5.48-9.65-7.22a1.52,1.52,0,0,0-1.73.57A41.58,41.58,0,0,0,89.26,54L91,53.42c-3.3-1.23-5.37-4.07-7.75-6.51-.45-.45-1.62,0-1.87.5-1.89,3.56-2.55,7.48-3.81,11.28l1.87-.5-7.35-7.14c-.37-.35-1.78,0-1.86.5-.69,4.79-.2,9.6-1.9,14.21l1.74-.58c-3.55-1.53-6.55-4-10.1-5.52-.39-.17-2.11.16-1.67.8,3,4.51,3.39,9.59,3.23,14.87l1.75-.7a23.32,23.32,0,0,1-8.83-5.41c-.41-.37-2.2.09-1.8.73A20.45,20.45,0,0,1,55.28,84.1L57,83.52c-2.43-.73-5.35-.8-7.57-2-.51-.27-2.3.48-1.56.88Z"/><path class="cls-3" d="M74.5,94.21C76,82.91,88.19,77,98.68,78.14c.61.06,2.28-.93,1.19-1-11.41-1.21-25.6,4.77-27.31,17.37-.1.76,1.85.41,1.94-.25Z"/><path class="cls-3" d="M43.32,56.42c5.75-14,21.32-19.38,34.29-24.56,1.28-.51.06-.68-.66-.39-13.33,5.32-29.61,10.9-35.53,25.3-.12.3,1.71.13,1.9-.35Z"/><path class="cls-3" d="M45.65,49.32c2.56-4,5.16-11.25,10.73-11.56l-.67-.82c-4.16,4.08-9,7.28-11.27,12.86-.39,1,1.31.68,1.7.27,4.29-4.57,7.75-10,13.94-12.23l-.94-.77c-2.53,2.27-5.67,3.6-8.61,5.23l1.41.57a37.05,37.05,0,0,1,10.56-7c1-.48,7.41-2.33,2.08.35a48.41,48.41,0,0,1-8.08,2.67l.94.78a32.6,32.6,0,0,1,5.31-4.29,19.54,19.54,0,0,1,4.74-2c5.51-1.73.64.13-.9.35-3.28.45-6.18.85-9,2.62l1.4.57c3.47-4.32,8.61-5.38,13.91-5.31l.21-1.17c-4,1.36-8.06,1.39-12.2,1.76.1.36.2.72.29,1.08A18.28,18.28,0,0,1,70,30.87c.8,0,2-1.25.71-1.23a21.89,21.89,0,0,0-10.31,2.64c-.79.41-.65,1.16.29,1.08C65,33,69.24,32.91,73.38,31.5c.6-.2,1.32-1.16.21-1.17-6.08-.08-12.23,1.15-16.2,6.1-.74.92.91.88,1.4.57,4.64-2.88,10.44-1.65,15.13-4.56.54-.33.4-1-.26-1-7.07,0-12.81,2.84-17.8,7.76-.65.64.46.92.94.77,4.84-1.43,9.61-2.64,13.4-6.14.41-.37,0-.83-.43-.82-7.2.14-14.37,4.5-19.41,9.4-.87.85,1,.82,1.41.57,3.1-1.72,6.28-3.13,8.95-5.51.68-.61-.47-.94-.94-.78C53,39.11,49.31,44.59,44.56,49.65l1.7.27c2.2-5.47,7-8.57,11-12.55.55-.54-.2-.85-.67-.83-6.82.38-9.62,7.7-12.78,12.67-.53.83,1.43.72,1.82.11Z"/><path class="cls-3" d="M46.77,84.53c1.4.55,2.71,1.75,4.24,1.91l1.43-.73-2.29-.09c-.2,0-1.89.36-1.55.69l1.84,1.79c.29.27,1.87-.15,1.88-.58,0-.64.49-1,.91-1.48a4.62,4.62,0,0,0,1.13-1.79c.11-.32-1.74-.11-1.9.36-.41,1.27-2,2.08-2.07,3.42l1.87-.58-1.83-1.78-1.55.7,2.3.08a2.68,2.68,0,0,0,1.18-.27c.11-.05.7-.41.25-.46-1.42-.15-2.7-1.32-4-1.83a1.9,1.9,0,0,0-1.24.13s-.89.39-.58.51Z"/><path class="cls-3" d="M55.19,74.51a16.69,16.69,0,0,0,3.28,5.36c.37.38,1.93,0,1.87-.61-.26-2.61-1.53-5-2.23-7.51-.18-.62-1.76,0-1.93.4-.94,2.54.45,4.8,2.21,6.58.42.42,1.47,0,1.79-.38.58-.59.66-.67.5-1.54-.2-1.1-.61-2.15-.73-3.28l-1.87.62,1.22,1.19c.44.42,2.25-.29,1.81-.72l-1.23-1.19c-.37-.36-1.93,0-1.86.62a17,17,0,0,0,.53,2.45c.22.84.46,1.26-.15,1.89L60.2,78c-1.66-1.67-3-3.75-2.1-6.14l-1.92.4c.7,2.5,2,4.9,2.23,7.5l1.86-.61A16.28,16.28,0,0,1,57.12,74c-.25-.6-2.14,0-1.93.51Z"/><path class="cls-3" d="M59.77,66.12c.95,2.14,2.78,3.82,4.43,5.43.38.37,2,0,1.86-.64A30.07,30.07,0,0,0,62,62.65c-.31-.48-2,0-1.86.63.87,2.92,3,5.1,5.12,7.17.38.37,1.8.11,1.86-.5a8.72,8.72,0,0,0-2.83-7.21l-1.79.75,3.06,3c.45.44,2.29-.18,1.79-.75a7.65,7.65,0,0,1-1.23-2.22c-.27-.67-2.18-.08-1.93.52a8.33,8.33,0,0,0,1.37,2.45l1.79-.75-3.06-3c-.47-.47-2.3.23-1.79.75a8.14,8.14,0,0,1,2.69,6.7l1.86-.5c-2.07-2-4.13-4.09-5-6.93l-1.87.64a29.2,29.2,0,0,1,3.92,8L66,70.79c-1.57-1.53-3.38-3.15-4.29-5.18-.3-.67-2.19-.07-1.93.51Z"/><path class="cls-3" d="M72.92,62.7c.91-2.46.3-5,.08-7.51,0-.46-1.67.14-1.84.33a9.58,9.58,0,0,0-2.38,8.66c.08.36,1.13,0,1.3,0,4.12-1.54,3.13-6.48,4-10,.1-.45-1.74-.11-1.91.34-.89,2.36-.18,4.26,1,6.41.24.44,1.6-.06,1.84-.33,1.94-2.26,1.06-4.75-.38-7.06-.25-.41-2,.08-1.93.52.7,2.45,2,6,5,3.78.42-.31-1.38-.13-1.75.15.84-.16.89-.46.16-.9a5.64,5.64,0,0,1-.54-1,14,14,0,0,1-.92-2.59l-1.93.52c1.28,2.07,2.38,4.57.56,6.68l1.84-.33c-1.13-2.08-1.9-3.89-1-6.23l-1.91.34c-.59,2.43.13,8.11-2.74,9.18l1.3,0a9.21,9.21,0,0,1,2.2-8.29l-1.84.33c.21,2.46.83,4.93-.06,7.33-.13.36,1.73.15,1.91-.34Z"/><path class="cls-3" d="M82.38,53.85a.71.71,0,0,0,.08.38c.16.34.8.22,1.08.14,1.26-.36,1.26-1.58,1.23-2.73,0-.62-1.66.09-1.86.28a8.36,8.36,0,0,0-2.58,5.17c-.11.74,1.61.09,1.84-.17,1.75-1.87,3.13-4.51,1.91-7-.29-.59-1.55,0-1.86.28l-2.67,2.75c-.16.17-.06.32.11.41.8.43,1.73,1.28,2.71,1.22a7.35,7.35,0,0,0,3.24-1.26c.16-.09.55-.34.32-.57l-2.45-2.38c-.42-.4-1.47,0-1.79.38l-.53.55a.23.23,0,0,0,0,.34,21.75,21.75,0,0,0,5,3.68c.47.26,2.27-.47,1.56-.85a18.35,18.35,0,0,1-3.44-2.35c-.35-.31-.68-.63-1-1-.24.09-.27.06-.07-.09l.35-.36-1.8.38c.82.79,1.64,1.58,2.45,2.38l.33-.58c-.58.34-1.06.88-1.67.53s-1-.63-1.56-.91c0,.13.07.27.11.4L84,50.14l-1.85.28c1.15,2.37-.1,4.77-1.75,6.55l1.85-.17a7.89,7.89,0,0,1,2.44-4.92l-1.85.28a4,4,0,0,1-.31,1.93l.86-.54-.07,0,1.08.14a.6.6,0,0,1-.09-.37c-.07-.53-2-.11-1.93.51Z"/><path class="cls-3" d="M90.32,49.91l3.07,3a1.08,1.08,0,0,0,1.7-.84C95,50.63,93.9,49.71,93,48.78c-.67-.64-2.31.36-1.48,1.17a4.26,4.26,0,0,1,1.69,2.61l1.7-.85-3.06-3c-.67-.65-2.31.36-1.48,1.17Z"/><path class="cls-3" d="M90.17,49.73a27.78,27.78,0,0,0,6.11,3.77,1.38,1.38,0,0,0,1.55-.28l.53-.55c.11-.11.24-.34.17-.5a18.68,18.68,0,0,0-4.44-5.46l-1.78.82a29,29,0,0,0,6.18,4.92c.49.26,2.32-.28,1.65-.94l-3.68-3.57-.09.65c.62-.57,1.92-.45,2.73-.65,1.18-.31.86-1.5-.32-1.2-1.55.4-2.76.23-4,1.37-.16.15-.28.48-.1.65l3.68,3.57L100,51.4a27.62,27.62,0,0,1-5.91-4.69c-.58-.56-2.41.21-1.78.82,1,1,2.06,2,3,3.11A13.22,13.22,0,0,1,96.24,52c.37.59.53.23,0,.78l1.55-.29A26.47,26.47,0,0,1,92,48.91c-.59-.54-2.42.24-1.78.82Z"/><path class="cls-1" d="M172.5,84.15a55.48,55.48,0,0,0-4.63-3.65c-8-5.63-17.64-8.16-27.14-9.83-3.81-.67-4.43,4-2.26,6.15a18.15,18.15,0,0,0,.48,9c-2.4,1.16-3,5.2.12,6.41h0l.09,0,0,0a6.77,6.77,0,0,0,.7.2c3,.87,6.35,1.36,9.5,2.07a14,14,0,0,0,6.07,2.28A34.18,34.18,0,0,0,159.08,99c1.38,1.42,2,3.59,2.84,5.34a23,23,0,0,0,2.76,4.46c-1.07,1.84-.8,4.57,1.66,5.2,5.48,1.42,10.49.22,15.85-1.21a3.47,3.47,0,0,0,1.58-.92c1.29-.32,2.6-.64,4-.87a3.5,3.5,0,0,0,2.81-3.21c.12-10.21-6.31-17.84-14.22-23.56A3.1,3.1,0,0,0,172.5,84.15Z"/><path class="cls-1" d="M177.55,48.15a2.82,2.82,0,0,0-1-.15,18.79,18.79,0,0,0-5.78-.44,3.22,3.22,0,0,0-3.21.55,18.94,18.94,0,0,0-5.43,2.36A3.74,3.74,0,0,0,161,51.55l-1.29-.09a3.32,3.32,0,0,0-2.26.72,11.89,11.89,0,0,0-5.09,2.1c-.68.11-1.46.22-2.14.31-4.51.63-3.74,7.44,1.26,6.87h.14c.87-.09,1.79-.14,2.67-.16l11.26,1a28.12,28.12,0,0,0,10,4.81c10.28,5.57,21.08,14.92,23,26.52.6,3.65,5.47,3.49,6.74.46,4.69-11.14-.3-20.68-7.6-29.17a25.46,25.46,0,0,0-1.55-2.33,3.17,3.17,0,0,0-1.45-2.92c-.94-.62-1.9-1.19-2.88-1.73-1-1-2-2.17-3.06-3.16a2.62,2.62,0,0,0-1.16-1,7.65,7.65,0,0,0-2.06-1.13,3.91,3.91,0,0,0-2-.17,2.82,2.82,0,0,0-1.59-2.42c-.28-.16-.57-.3-.86-.44a2,2,0,0,0,.1-.21Z"/><path class="cls-2" d="M148.8,93.1a3.42,3.42,0,0,0-3.91,1.21,3,3,0,0,0-1.77.42l-.13.08a1.79,1.79,0,0,0-.28.2c-.11.09-.23.19-.33.29l0,0c-1.41,1.45-1.61,4.1.29,5.37a3.08,3.08,0,0,0,.83,2.39c.83.77,1.27,2.67,1.67,3.71a4.06,4.06,0,0,0,.3.59,23.08,23.08,0,0,1-3.94,2.8,3.42,3.42,0,0,0-1.4,4.84,14,14,0,0,0-1.43,1.25c-4.37,4.49-8,9.69-11.58,14.8a349,349,0,0,1-24.66,31.28,3.52,3.52,0,0,0-3.3,2.59l-.75,2.16a3.8,3.8,0,0,0,2.25,4.48,23,23,0,0,0-.72,2.22,3.55,3.55,0,0,0,4,4.58c11-1.93,19.26-12.6,24.11-22.81a3,3,0,0,0,1.07-2.39c.5-1.16,1-2.31,1.36-3.43,0-.06,0-.12,0-.18,1.74-2.59,3.29-5.28,4.71-7.83l.09-.18a2.93,2.93,0,0,0,2.73-.91,67.53,67.53,0,0,0,12.71-18,42.15,42.15,0,0,0,7.18-8.34,10.79,10.79,0,0,1,5.78,0c2.94.67,5.59-1.85,4.29-4.84a20.57,20.57,0,0,0-9.73-10A27.18,27.18,0,0,0,148.8,93.1Z"/><path class="cls-2" d="M161,63l-.72-.4a3.53,3.53,0,0,0-3.56,0c-1.38-.1-2.65-.19-4-.27a1.14,1.14,0,0,1-.24,0h0a3.25,3.25,0,0,0-1.87.36c-1.06-.31-2.18-.63-3.24-1-3.8-1.26-5.92,3.8-3.35,6a2.69,2.69,0,0,0,.54,3.66c7.1,6.47,17.41,6.21,26.64,7.83,2.57,5.53,7.7,10.39,12.91,14.14a31.54,31.54,0,0,0,5.15,5,3,3,0,0,0,.44.28,10.56,10.56,0,0,1,0,5,3.61,3.61,0,0,0,2.14,4.52l1.1.38a3.55,3.55,0,0,0,4.06-1.4c6.44-12.44-4.78-27.75-16.23-34.42.07-.19.13-.39.2-.58.68-2-.52-3.66-2.24-4.48A54.57,54.57,0,0,0,161,63Z"/><path class="cls-3" d="M146.54,102.64c-9-11-9.89-25.8-3-38.12,9.12-16.28,30.26-20.79,46.5-12.79,14,6.88,18.51,25.09,15.46,39.26-4.22,19.63-26.56,29.36-44.07,20.57l-1.82.68,2.22,1.11c.53.27,2.12-.53,1.81-.68l-2.21-1.11c-.53-.27-2.13.53-1.82.68a34.26,34.26,0,0,0,44.48-12.95c9-14.83,4.11-37.58-10.27-47.11C180.1,43.06,159.76,46,148,56.81c-12,11-14.84,30.49-5.28,43.87.65.9,1.32,1.78,2,2.64.33.41,2.16-.25,1.81-.68Z"/><path class="cls-3" d="M144.62,106.14c-2.47,2.36-4.21,5.36-6,8.25-2.69,4.38-5.73,8.43-8.82,12.54-6.74,9-13.79,17.62-21.24,26-3.44,3.89-17.24,20.8-8,24.65,11.16,4.63,20.06-9.75,24.58-17.2,9.67-16,19.62-33.53,33.4-46.29.39-.36-1.41-.14-1.74.17-11.6,10.74-20.08,25-28.56,38.16-3.57,5.55-6.61,11.4-10.54,16.71-2.65,3.57-6.37,7.71-11.12,8.11-2.9.24-6-.13-6.94-3.26-1.25-4.29,2.69-10,4.83-13.42,3.11-4.94,7.06-9.1,10.89-13.48,6.14-7,11.79-14.5,17.4-22,2.43-3.25,4.86-6.45,7-9.9,2-3.2,3.81-6.65,6.56-9.27.38-.37-1.42-.14-1.75.17Z"/><path class="cls-3" d="M143.65,70.38c1.78,2.61,6.5,3.27,9.34,4.06a85.76,85.76,0,0,1,14.18,5.37c11.17,5.35,20.82,13.5,22,26.54,0,.3,2,0,1.93-.52-1-11.75-8.78-19.38-18.63-24.89a67,67,0,0,0-12.62-5.72c-3.95-1.21-11.74-1.71-14.24-5.36-.31-.44-2.05.35-1.93.52Z"/><path class="cls-3" d="M147.46,63.05c23.25-3.07,49,12,52,36.32.09.7,2,.26,1.93-.52-3.14-25.1-29.94-40.09-53.73-36.94-1,.13-1.57,1.32-.24,1.14Z"/><path class="cls-3" d="M146.9,63.77c-.59,2.65.23,5.63.18,8.33,0,.29.67.24.82.22a23.46,23.46,0,0,0,14.27-8.06l-1.86.14a26.1,26.1,0,0,0-2.81,10.89c0,.37.92.22,1.08.17,5.58-1.76,10.77-4.08,14.41-8.82l-1.85.14c-.5,4.06-2,7.86-2.54,11.92,0,.32.33.36.58.37a27.59,27.59,0,0,0,8.58-1.36c2-.58,5.3-2.17,3.57,1.28l-3.25,6.48c-.15.3.43.37.58.37,1.57,0,12.16-1.59,10,2.32-1.32,2.35-2.5,4.6-2.69,7.33,0,.52.78.36,1.07.3,1.75-.38,3.49-.76,5.25-1.09,3.05-.57,2.78.91,1.9,3.11-1.11,2.78-3,5.23-3.24,8.29-.06.72,1.88.32,1.92-.27.34-4.31,3.66-7.74,4.32-12,.05-.33-.34-.37-.58-.37-3.33-.07-6.56.8-9.8,1.5l1.08.29c.27-3.75,2.46-6.82,4.19-10.07.11-.21-.23-.33-.36-.35a28.35,28.35,0,0,0-7.19-.21c-3.41.27-4.42.47-2.87-2.63l3.25-6.48c.19-.39-.67-.38-.82-.35-3.76.73-7.32,2.14-11.09,2.83s-1.75-3.4-1.42-4.63a49.71,49.71,0,0,0,1.51-6.82c.1-.77-1.61-.18-1.85.14-3.29,4.28-7.85,6.37-12.86,7.95l1.08.17a25.6,25.6,0,0,1,2.81-10.64c.28-.61-1.6-.16-1.86.14a19.85,19.85,0,0,1-4.74,4.11c-.54.35-6.63,3.39-6.62,2.43,0-2.37-.72-5-.2-7.31.15-.65-1.78-.33-1.92.27Z"/><path class="cls-3" d="M143,93c11.78-2.4,20.63,9.35,22.41,19.66.12.66,2.06.2,1.93-.51-2-11.68-12-22.69-24.6-20.12-1.18.24-.9,1.2.26,1Z"/><path class="cls-3" d="M170.14,49.12c15.31,1,25.14,15.06,33.74,26.08.36.45,2.06-.36,1.94-.52C197,63.34,187.08,49.37,171.4,48.36c-.39,0-2.21.7-1.26.76Z"/><path class="cls-3" d="M178,49.18c5,1.27,12.76,1.45,14.71,7.24l1.72-.77c-5.25-2.8-9.74-6.52-15.9-6.86-.38,0-2,.69-1.11,1.12,5.91,2.84,12.21,4.51,16.2,10.11l1.65-.91c-2.95-1.77-5.13-4.41-7.57-6.79l-1.65.91c5.74,3.08,11.75,8.42,13.7,14.82l1.72-.76c-4.25-2.45-6.53-6.59-9.09-10.6l-1.65.9c5.82,3.08,9.84,7.38,11.64,13.8l1.86-.65c-4.25-3.65-4.44-9.83-8.7-13.49l-1.47,1c5.49,2.1,8,7.36,9.4,12.7l1.86-.66c-2.49-3.56-3.67-7.62-5.19-11.62l-1.86.65a19.6,19.6,0,0,1,5,8.51c.22.77,2.15.24,1.93-.52A19.77,19.77,0,0,0,200,58.51c-.41-.42-2.14-.11-1.85.65,1.56,4.12,2.79,8.27,5.33,11.91.39.54,2.06.07,1.86-.66-1.55-5.77-4.34-11.1-10.17-13.34-.41-.15-2.1.44-1.47,1,4.24,3.65,4.44,9.83,8.69,13.48.45.39,2.09.17,1.86-.65-1.84-6.58-6.09-11.14-12-14.3-.5-.26-2.15.12-1.65.91,2.63,4.12,5,8.31,9.36,10.81.44.25,2,0,1.72-.76-2-6.64-8.15-12.12-14.11-15.33-.46-.25-2.29.28-1.65.91,2.53,2.47,4.78,5.17,7.83,7,.49.29,2.18-.17,1.65-.91-4.06-5.7-10.42-7.42-16.47-10.32L177.81,50c5.82.32,10.16,4,15.1,6.64.42.23,2,0,1.72-.76-2.1-6.24-10.09-6.51-15.48-7.88-.71-.18-2.29.87-1.16,1.16Z"/><path class="cls-3" d="M144.43,63.67c-.13,1.54-.92,3.2-.66,4.74l1.94-.51-.57-2.31c-.1-.43-1.76.13-1.91.43L142,68.46c-.19.37,1.19,0,1.28,0-.64.21-.08.22.2.34s.62.31.94.45a4.27,4.27,0,0,0,1.73.3,2.84,2.84,0,0,0,1.37-.37c.31-.18.27-.38-.1-.38-1,0-1.73-.57-2.66-.86a3.35,3.35,0,0,0-2.14.14h1.28l1.22-2.43-1.92.43c.19.77.38,1.54.56,2.31.1.38,2-.09,1.94-.51-.27-1.54.52-3.2.65-4.74,0-.22-1.88,0-1.93.51Z"/><path class="cls-3" d="M156.71,68.34a19.11,19.11,0,0,0-4.42,5.23c-.27.52,1.2.25,1.33.19,2.65-1.21,4.69-3.35,7.07-5,.5-.34,0-.57-.37-.59-3.27-.14-5.53,2.22-6.94,4.93-.07.14.09.24.19.29a2,2,0,0,0,2,.13c1.3-.61,2.39-1.59,3.69-2.21l-1.55-.08-.81,1.62c-.23.46,1.64.28,1.92-.28l.81-1.62c.3-.59-1.41-.15-1.54-.08-1.3.61-2.38,1.59-3.68,2.21l1.36-.21-.62-.31c.33.16.91-1.09,1.08-1.35a4,4,0,0,1,3.27-2.07l-.37-.59c-2.1,1.44-3.95,3.48-6.28,4.55l1.32.18a17.53,17.53,0,0,1,4-4.73c.81-.71-1.11-.58-1.52-.22Z"/><path class="cls-3" d="M166.14,70c-1.83,1.68-2.95,4.08-4,6.27-.41.81,1.17.52,1.49.3a33.94,33.94,0,0,0,7.11-7c.55-.68-1.22-.49-1.5-.29-2.7,1.93-4.27,4.77-5.73,7.68-.32.63.67.57,1,.49a10.21,10.21,0,0,0,6.77-5.57l-1.8,0-2,4c-.42.84,1.49.55,1.8,0A8.05,8.05,0,0,1,171,74c.84-.73-1.08-.71-1.55-.31a9.52,9.52,0,0,0-2,2.22l1.8,0c.67-1.35,1.35-2.71,2-4.06.41-.82-1.52-.58-1.8,0-1.14,2.19-2.72,4.06-5.22,4.65l1,.49c1.31-2.6,2.7-5.42,5.14-7.15l-1.5-.3a31.39,31.39,0,0,1-6.5,6.47l1.49.3c1-2.07,2.08-4.42,3.81-6,.83-.75-1.09-.72-1.55-.3Z"/><path class="cls-3" d="M172.37,80.68c3.11.06,5.66-1.49,8.42-2.73.06,0,.62-.34.35-.46a11.2,11.2,0,0,0-10.54.92s-.29.19-.22.29c2.49,3.28,7.6.52,10.81.2.29,0,2-.75,1-.79-3.13-.12-5.3,1.39-7.36,3.62-.05,0-.17.2,0,.25,3.28,1.4,6.29-.75,8.34-3.2.44-.53-1.38-.12-1.62,0-.94.66-5.24,3.48-3.29,4.88.44.32,2.1-.45,1.82-.66-1.58-1.14,2.23-3.65,2.95-4.16l-1.61,0c-.93,1.11-2.26,2.91-3.93,2.7-1.18-.16.34-1.29.5-1.44a3.71,3.71,0,0,1,3-1.27l1-.79a45.89,45.89,0,0,0-5.41,1.1,4.63,4.63,0,0,1-3.7-.37c-1.31-.87,2.87-1.52,3.53-1.49a8,8,0,0,1,2.88.79l.36-.46c-1.89.85-3.93,2.24-6.06,2.19-.41,0-2.21.78-1.25.8Z"/><path class="cls-3" d="M184.64,88.22a2.44,2.44,0,0,0-.65.45.27.27,0,0,0-.08.23c.55.86,2.77,0,3.45-.27.26-.1.92-.5.42-.75a8.8,8.8,0,0,0-6.25-.81c-.22,0-1.65.54-.93.88,2.87,1.37,6.42,1.42,8.78-.94.17-.17.06-.32-.11-.41l-3.42-1.71c-.39-.2-1.64,0-1.74.56a11.53,11.53,0,0,0-.53,2.65c0,.86,1.16,1.67,1.7,2.19s1.63,0,1.87-.5l1.62-3.25c.07-.14-.08-.23-.18-.28l-.69-.34a1.61,1.61,0,0,0-1.74.57,23.76,23.76,0,0,0-2.15,6c-.13.61,1.8.28,1.92-.29a23.76,23.76,0,0,1,2.15-6l-1.74.57.45.22c.25.09.22.12-.07.11-.11.21-.22.42-.32.63l-1.17,2.34,1.86-.5c-.58-.54-1.43-1.15-1.58-2a7.61,7.61,0,0,1,.52-2.41l-1.74.57,3.42,1.71c0-.13-.07-.27-.1-.4-1.52,1.51-3.74.86-5.45,0l-.93.88a6.84,6.84,0,0,1,5,.75l.42-.74a2.29,2.29,0,0,1-1.12.24l.36.21-.08.21c.22-.11.62-.49.2-.64a1.81,1.81,0,0,0-1.36.21Z"/><path class="cls-3" d="M190.62,94.51q-1,2-2,4c-.43.85.88,1,1.37.76,1.45-.67,2.11-2,2.8-3.39.51-1-1.45-1.09-1.86-.27s-.85,2-1.82,2.42l1.37.75q1-2,2-4c.51-1-1.45-1.09-1.86-.27Z"/><path class="cls-3" d="M190.63,94.57a31.39,31.39,0,0,0-1.93,7.34.4.4,0,0,0,.22.43l.69.35a1.42,1.42,0,0,0,1.55-.29c1.84-1.72,2.93-4.08,4.05-6.3l-1.83-.16a32.85,32.85,0,0,0-3,7.81c-.19.9,1.62.53,1.89,0l2.43-4.87-1.66.45c1,.61,1.22,1.88,1.79,2.88.4.68,2.26,0,1.78-.82-.7-1.21-.8-2.36-2.07-3.11a1.33,1.33,0,0,0-1.67.44l-2.43,4.87h1.89a30.89,30.89,0,0,1,2.91-7.47c.47-.94-1.49-.85-1.83-.16-1.06,2.1-2.07,4.35-3.82,6l1.55-.28-.58-.29c.24.11.58-2,.62-2.15a20.31,20.31,0,0,1,1.31-4.47c.44-1-1.5-.87-1.83-.16Z"/></svg>