<svg id="layer1" xmlns="http://www.w3.org/2000/svg" viewBox="0 0 541.85 175.92"><defs><style>.cls-1{fill:#f4b71e;}.cls-2{fill:#492d0c;}</style></defs><path class="cls-1" d="M504.86,60.71c-7.14-3.45-15.28-3.28-23-2.73-9.6.68-19.11,2.43-28.62,3.85-1.15.17-2.3.32-3.46.46-8.07.55-16.14,1.11-24.2,1.56-2.07.07-4.15.13-6.22.21-13.86.51-27.73.76-41.6.56a3.17,3.17,0,0,0-2.62,1.15q-22.92.63-45.85.91l-7,.07c0-5.44-.06-10.88-.23-16.33A3.41,3.41,0,0,0,318.19,47c0-.17.05-.34.06-.52,0-1.2.05-2.39.12-3.58a2.45,2.45,0,0,0,0-.27,3.34,3.34,0,0,0,1.14-3.52c-.7-2.13-2.29-4.14-4.84-3.48a4.22,4.22,0,0,0-2.93,3.65,47.88,47.88,0,0,0-.51,7.08,3.36,3.36,0,0,0,3.9,3.42,2.82,2.82,0,0,0-.09.52c-.05.74-.16,1.47-.28,2.19-2.44-1.12-5.85.5-4.86,3.82.12.41.23.82.34,1.22a3,3,0,0,0-1.14.88,53.85,53.85,0,0,0-2.67-9.18,3.79,3.79,0,0,0-1-1.48c.69-2.18,1.13-4.62.12-6.74a4,4,0,0,0-2.39-1.92,4.46,4.46,0,0,0-3.24.4,6.44,6.44,0,0,0-1.65,1.24,20.84,20.84,0,0,0-2,2.33,3.39,3.39,0,0,0-.4,2.69,3.42,3.42,0,0,0,2.52,2.5,3.65,3.65,0,0,0,1.17,1.91c0,.35,0,.7,0,1a3.14,3.14,0,0,0-1.36,2.69,93.34,93.34,0,0,0,.83,13l-7.75,0a3.3,3.3,0,0,0,.83-2.21c.06-4,.23-8.09-1.22-11.86a3.63,3.63,0,0,0-1.07-1.51,10.69,10.69,0,0,0-7.67-8.82c-4.32-1.34-6.28,5.39-2,6.71a4,4,0,0,1,2.91,3.6,3.91,3.91,0,0,0-2.9,4.29q.66,4.9,1.37,9.79-30.31-.06-60.62-.56A3.64,3.64,0,0,0,217.62,62c-2.74,0-5.49-.11-8.23-.17a3.2,3.2,0,0,0-2.4-3.75c-13.09-3.29-26.4-2.66-39.68-1.09-15.64-.61-31.27-1.62-46.81-3.48-8.14-2.77-16.53-4.41-25.39-3.83a3.73,3.73,0,0,0-3,2.07,4.64,4.64,0,0,0-.4-.36c-7.81-5.83-15.29-12.12-23.6-17.22-.09-.59-.19-1.17-.31-1.74C67.28,30,63.61,28.77,62,30.8l-.29.37c-2.28.18-4.18,2.58-3.24,4.69C48,53.64,51.3,79.24,63.48,95.19a3.07,3.07,0,0,0,.85.77,23.59,23.59,0,0,0,.75,4.17,3.53,3.53,0,0,0,6.38.94c6.32-9.66,18-12.85,28.61-15.35,1-.23,1.93-.45,2.9-.66,18.31-.89,36.63-5,54-10.45a17.5,17.5,0,0,0-5.17,8.82,10.46,10.46,0,0,0-.49,5.73,25.71,25.71,0,0,0,1.32,6.69,40.87,40.87,0,0,0,15.76,20.37,3.46,3.46,0,0,0,1.17,4.49c7.41,4.69,15.9,4.79,23.9,4.79l0,2.91A3.64,3.64,0,0,0,197,132c6.13.3,10.6,1.56,16.17-.92a49.39,49.39,0,0,0,22.34-1.16c4.32-1.26,2.61-8-1.74-6.78a44.56,44.56,0,0,1-11.41,1.82c-3.27.09-6.41-.94-9.62-1-2.69,0-4.95,2.11-7.89,2-1.42-.07-2.36-.3-4.35-.53l0-2.75a166.4,166.4,0,0,0,18.83.07c9.11-.38,18.2-1.73,27.31-1.86,11.27-.17,23.08.66,34.59-.07a64.56,64.56,0,0,0,4.95,19.75c-.35.07-.71.13-1,.22-4.39,1.07-2.64,7.85,1.75,6.78,3.19-.78,6.1-.81,9-1.83a87.68,87.68,0,0,0,14.2,1.18c3.25-.05,6.49-1.32,9.69-1.29a11.54,11.54,0,0,0,6.71-1.65c3.74-2.47.34-8.59-3.43-6.1-1.83,1.22-3.69.31-5.64.85a32.61,32.61,0,0,1-7.22,1.19c-.33,0-.67,0-1,0a36.7,36.7,0,0,0,2-3.64,3.57,3.57,0,0,0,1.5-.47c1.36,2.89,6.64,2.46,6.69-1.45l0-1.2a2.67,2.67,0,0,0,1.33-2.65c0-1.47,0-2.93.07-4.4a3.51,3.51,0,0,0,1.3,0c12.34-1.83,24.89.15,36.48-3.95,21-1.36,42-1.78,62.9-4.3a77.38,77.38,0,0,0,17.19-3.63c5.37-2,8.3-5.14,10.55-10.4,2.09-4.91,1.71-10,.11-15a26.15,26.15,0,0,0-8-18.73c2.85-.21,5.7-.47,8.53-.82.31,0,.61-.09.92-.12,17.39-1.19,34.79-2.27,52.14-2C506.28,67.25,508.12,62.28,504.86,60.71ZM76.9,86.55c.43-.78.86-1.52,1.3-2.16a3.81,3.81,0,0,0,.5-1.07c1.34.15,2.69.25,4,.3A46.84,46.84,0,0,0,76.9,86.55Zm88.08,17a73.48,73.48,0,0,0,12.24,4.78,9.58,9.58,0,0,0,.37,4.76A30.91,30.91,0,0,1,165,103.56Zm75.71,1.77-6.54.12.27-.06a351.71,351.71,0,0,1,39.48-.77C262.83,104.76,251.75,105.08,240.69,105.33Zm15.88,8.57c8-1,16.08-1.87,24.08-2.25,0,.72.05,1.42.09,2.14C272.73,114.31,264.56,114,256.57,113.9ZM282.5,74.68a163.13,163.13,0,0,0-2,23.25l-.13,0-3.72-.18c-11-1.41-22.09-2.45-33.16-3.22-16.92-1.17-35.1-2.5-51.79,1.34-4.54,1.05-8.46,2.81-11.33,6.2A61.35,61.35,0,0,1,163.2,94c-2.06-1.45-4.71-3.76-5-6.45a14.66,14.66,0,0,1,.09-1.62c1.27-5.19,8.9-8.37,13.11-10.38a2.88,2.88,0,0,0,1.79-3.17c36.47.89,72.94,1.48,109.42,1.54l0,.3A2.41,2.41,0,0,0,282.5,74.68Zm16.18,64.21a3.41,3.41,0,0,0-2.21-1.1l-3.66-.06c-.36,0-.67-1.25-1-2a3.14,3.14,0,0,0,3.06-3.19c.06-4.56,0-9-.09-13.59,2.07-.44,4.13-1,6.16-1.58a133.32,133.32,0,0,0,1.06,22C300.91,139.3,299.79,139.05,298.68,138.89ZM301.37,110a1.6,1.6,0,0,0-.21,0,62.24,62.24,0,0,1-6.66,1.89c0-.1,0-.21,0-.31,4.35-.11,4.39-6.78-.05-7l-.45,0A202.21,202.21,0,0,0,290.64,81l-1-7.12,10.57,0q.53,2.63,1.19,5.25c.57,4.92,1.21,9.84,1.87,14.75C302.42,99.21,301.77,104.57,301.37,110Zm7.81-24c-.22-1.72-.43-3.45-.63-5.18.33-1.38.61-2.76.83-4.14.26,2.73.51,5.47.71,8.2,0,.51.07,1,.11,1.53,0,.12,0,.24,0,.35A3.72,3.72,0,0,0,309.18,85.91Zm47.69,29.45c-12,.8-24,1.92-35.88,3.9q.24-8.15.5-16.28c14.44-2.35,36.33-5.3,38.81,10.81A31.89,31.89,0,0,1,356.87,115.36Zm85.48-25c-.58,5.6-3.93,11-10.19,14.4a3.25,3.25,0,0,0-1.3,4.58l-2.47.46a156.27,156.27,0,0,1-16.14,2.12c-14.9,1.42-29.89,2-44.85,2.83-2.08-23-26.94-21.3-45.69-18.7.23-7.43.43-14.85.52-22.28l6.92-.06q43.44-.51,86.86-2.37,3.92-.16,7.81-.39t7.59-.25a.36.36,0,0,0,0,.09C435,76.47,440.18,83.31,442.35,90.33Z"/><path class="cls-2" d="M62.11,26.36C51.65,37.25,48.88,52,50,66.68a89.59,89.59,0,0,0,5.08,22.84c2.11,6,2.75,13.65,8.17,17.76.61.47,2.35-.41,1.51-1C59.57,102.31,59.1,94.72,57,89a92.52,92.52,0,0,1-4.79-20C50.29,54,53,38,63.7,26.83c.83-.86-1.05-1-1.59-.47Z"/><path class="cls-2" d="M63.79,27.57c5.67,5,9.83,11.49,16.24,15.67,6.86,4.48,15.66,6.7,23.51,8.66a281,281,0,0,0,55.56,8c9.72.43,19.39,0,29.11,0,10.71,0,21.41.91,32.11,1.4,19.86.89,40,2,59.92,1.08.59,0,2.09-1,.8-.91-19.76.94-39.74-.29-59.5-1.08-8.94-.35-17.87-1-26.81-1.32-10.26-.32-20.51.35-30.77.09a288.5,288.5,0,0,1-57.17-7.59c-8.55-2-17.29-4.57-25-8.94C75.28,38.8,71.17,31.79,65.6,26.87c-.44-.39-2.21.35-1.81.7Z"/><path class="cls-2" d="M263,60.87a2.59,2.59,0,0,1-.4.41c-.37.42-.06.92.46.94,3.63.14,6.37-5.77,7.17-8.67,1.44-5.22-2-9.48-6.46-11.68l-.58,1.18c10.09-3.32,9.93,13.45,5.3,18.34-.83.86.89,1,1.43.68.84-.58.85-.64,1-1.69s-1.86-.67-1.95.17c-.09.23-.18.45-.28.68l1.44.69c6-6.35,4.48-24-7.24-20.14-.35.11-1.3.81-.58,1.17,3.49,1.74,6.09,4.31,6.29,8.37a10.58,10.58,0,0,1-1.07,4.58c-.36.85-2.65,5-3.75,5l.47.94a3,3,0,0,0,.63-.75c.48-1-1.47-.92-1.84-.19Z"/><path class="cls-2" d="M61.92,37.06c-4.74,6.72-3.14,16.81-3,24.53a54.51,54.51,0,0,0,11,32.55c.54.73,2.38,0,1.77-.86C65,84.2,60.83,73.91,60.9,62.54c.05-7.65-2.07-18.2,2.65-24.88.71-1-1.1-1.35-1.63-.6Z"/><path class="cls-2" d="M65.5,66.3c-2,6.75.82,19.77,8.17,22.46.43.16,2.17-.54,1.59-.75-7-2.56-9.77-15.63-7.86-22.05.12-.4-1.76-.16-1.9.34Z"/><path class="cls-2" d="M69.55,73.63a25.51,25.51,0,0,0,4.69,11c.52.7,2.36,0,1.77-.84a24.75,24.75,0,0,1-4.52-10.68c-.15-.88-2.09-.39-1.94.52Z"/><path class="cls-2" d="M74.89,75.32a9.5,9.5,0,0,0,1.81,5.17c.47.74,2.32,0,1.77-.85a8.28,8.28,0,0,1-1.62-4.46c0-1-2-.73-2,.14Z"/><path class="cls-2" d="M66.21,108c4.83-2.8,7.58-8.09,12-11.52,7.4-5.75,15.7-8.44,24.61-10.87a178.21,178.21,0,0,1,25.28-5c4.24-.52,8.5-.67,12.72-1.37,4.59-.76,9-1.7,13.64-1.38,1,.06,2-1.36.66-1.45-8.29-.56-16.77,1.74-25,2.54a173.24,173.24,0,0,0-25.85,4.79c-7.53,1.92-15.24,3.9-21.89,8.07A81.15,81.15,0,0,0,73,98.68c-3,2.5-4.16,6.07-7.69,8.11-1.14.66-.1,1.75.86,1.19Z"/><path class="cls-2" d="M279.58,43.18c-.33.23-.9.25-1.05.72-.37,1.2,1.27,1.15,1.88,1.2,3,.21,5.84-1.28,8.76-1.79.19,0,1.34-.33,1.12-.73-1.17-2.12-3.53-2.35-5.72-2-1.76.27-4.38,1.11-5.19,2.87-.23.5,1.66.3,1.92-.28.47-1,2-1.44,3-1.64a3.62,3.62,0,0,1,4.09,1.59l1.11-.73c-1.93.33-3.75,1-5.63,1.47a9.31,9.31,0,0,1-1.82.28c-1.16.08-1.15-.41-2.12-.11a4.09,4.09,0,0,0,1.2-.6c.87-.61-1.08-.54-1.52-.23Z"/><path class="cls-2" d="M295.54,42.62c.89,4.2,8.77,2.57,10.72.1.13-.16.31-.43.11-.61-2.53-2.34-9.72-2.38-10.85,1.54-.23.8,1.73.53,1.94-.2.71-2.46,5.63-1.92,7.12-.55,0-.2.07-.4.11-.61-1.4,1.77-6.61,2.66-7.22-.19-.16-.77-2.1-.28-1.93.52Z"/><path class="cls-2" d="M310.6,40c2.33,3.43,8.27,1.51,11.51.89.28-.06,1.22-.27,1.11-.74-1.07-4.72-10-1.65-12,.71-.51.58,1.42.4,1.78,0,1.58-1.82,7.55-3.55,8.32-.17l1.12-.73c-2.91.55-8,2.35-10-.66-.33-.48-2.2.14-1.81.72Z"/><path class="cls-2" d="M282.94,44.8a20.07,20.07,0,0,0,.51,6c.11.38,2-.16,1.93-.52a19.7,19.7,0,0,1-.5-6c0-.24-1.93,0-1.94.51Z"/><path class="cls-2" d="M284.74,44.07c0,2,.49,4,.5,6,0,.92,1.95.55,1.95-.19,0-2-.51-4-.5-6,0-.92-1.94-.55-1.95.19Z"/><path class="cls-2" d="M297.9,44.45c0,1.74,0,3.5,1.18,4.87.32.37,2.12-.31,1.82-.66-1.15-1.3-1.09-3.1-1.06-4.73,0-.31-1.93,0-1.94.52Z"/><path class="cls-2" d="M301.48,45.11c.66,1.5.66,3.23,1.12,4.8.21.72,2.14.19,1.93-.52-.46-1.57-.46-3.29-1.12-4.8-.31-.72-2.21-.13-1.93.52Z"/><path class="cls-2" d="M314.07,42.75c-.07,2.44-.58,4.92,1.17,6.92.54.61,2.39-.14,1.78-.83-1.58-1.79-1.07-4.08-1-6.27,0-1-1.93-.63-1.95.18Z"/><path class="cls-2" d="M316.48,42.36a21.59,21.59,0,0,1,.48,6.42c0,.94,1.94.61,2-.18a22.87,22.87,0,0,0-.5-6.76c-.24-.82-2.17-.29-1.93.52Z"/><path class="cls-2" d="M423.37,61.89c-22.62-.31-45.29.28-67.91.47-28.36.25-56.73.4-85.09,1-7.53.15-15,.31-22.58.19-19.75-.31-39.46,1-59.22,1.22-12,.12-24.81-1.1-33.41,8.86-8.75,10.13-3.57,26.6,4.8,35.1.41.42,2.23-.29,1.81-.71-8.71-8.83-12.64-23.8-4.84-34.44,4.87-6.64,13.49-7.74,21.1-7.91,6.78-.16,13.58-.06,20.37-.18,16.22-.31,32.38-1.25,48.6-1,6.79.11,13.55,0,20.34-.14,27-.68,54.11-.71,81.16-1,24.67-.22,49.4-.87,74.08-.53.63,0,2.09-.93.79-.94Z"/><path class="cls-2" d="M278,51.11c0,.79,0,1.59,0,2.39,0,.51.47.69.91.69,4.59,0,9.17-.41,13.76-.38a1.08,1.08,0,0,0,1.06-.81c1-6.27-11.35-3.89-14.17-1.82-1.06.77.49,1.56,1.3,1,1.94-1.42,11.6-3.29,10.9,1l1.06-.81c-4.59,0-9.17.41-13.77.37l.91.69c0-.79,0-1.59,0-2.38,0-1.07-1.95-.82-2,.12Z"/><path class="cls-2" d="M280.51,55.58c-.38-1.21-1.07.63-.58-1.69l-1.92.4c.32,2,.69,3.4,2.73,4a16.91,16.91,0,0,0,5.93.44c3.05-.19,8-1.31,5.83-5.35-.32-.59-2.17.08-1.93.52,2,3.67-2.29,3.89-5,3.92a11.06,11.06,0,0,1-4.07-.64c-1.28-.49-1.42-2.26-1.6-3.4-.09-.58-1.83-.08-1.93.39-.06.3-.42,1.39,0,1.68a1,1,0,0,0,.45.23c.49.08.18.09.15,0,.19.59,2.11,0,1.94-.52Z"/><path class="cls-2" d="M282.27,57.4v-.15l-1.93.51c0,1.85-.06,3.69-.09,5.54,0,.48,1.93.16,1.93-.52,0-1.84.07-3.69.09-5.53,0-.49-1.91-.15-1.93.51v.16c0,.48,1.92.16,1.93-.52Z"/><path class="cls-2" d="M289.91,58.07c0,1.75-.2,3.75.51,5.4.21.5,2.1-.13,1.93-.52-.71-1.65-.54-3.65-.51-5.39,0-.36-1.92-.08-1.93.51Z"/><path class="cls-2" d="M293,51c.29,2.52,1.5,2.71,3.72,2.68,3.73,0,7.45-.4,11.19-.37.39,0,1.26-.17,1.34-.67,1.1-6.18-11.69-3-14.55-2.42-.26,0-1.29.32-1.1.79.34.84.92.85,1.77.9s2.07-1,.76-1.08l-.6-.34-1.1.78c2.55-.47,13.78-3.39,12.89,1.62l1.35-.66c-2.37,0-4.74.1-7.1.21s-6.27,1.25-6.64-2c-.07-.63-2-.2-1.93.52Z"/><path class="cls-2" d="M294.75,54.57l-.06,3.58c0,.11.29.1.33.1a47.32,47.32,0,0,0,10.57-.7c1.19-.25,2.84-.62,3.68-1.58,1-1.14-.39-2.31-1.26-3-.39-.31-2,.46-1.83.63.72.57,2,1.55,1.32,2.58s-3.21,1-4.32,1.15c-1.58.15-3.17.19-4.76.21h-1.61c-.66,0-.19.11-.17-.8s0-1.79,0-2.69c0-.23-1.92,0-1.93.52Z"/><path class="cls-2" d="M295.87,58c0,1.59-.05,3.19-.07,4.78,0,1,1.94.73,1.95-.15,0-1.59.05-3.19.08-4.78,0-1-1.94-.72-2,.15Z"/><path class="cls-2" d="M304.86,57.72a17.77,17.77,0,0,1,.51,5.39c0,.47,1.92.16,1.93-.52a17.76,17.76,0,0,0-.5-5.39c-.17-.58-2.1,0-1.94.52Z"/><path class="cls-2" d="M311.74,49.32c-1.18,0-3.69,0-3.79,1.64s1.43,2.31,2.62,2.7c3.22,1.06,7.59.36,10.62-1,.94-.42,2.31-1.08,2.46-2.24.19-1.44-2-2.17-3.06-2.33-1.75-.27-8.3-.57-9,1.87-.16.52,1.75.25,1.91-.3.41-1.41,5.67-.76,6.6-.48,2.94.86,1,2.78-.8,3.35a13.8,13.8,0,0,1-6.75.43c-1.17-.25-4.25-2.73-1.6-2.72.6,0,2.09-.9.8-.91Z"/><path class="cls-2" d="M310.47,53.69a5.42,5.42,0,0,0-.82,3.33c0,.3.16.44.41.56,3.56,1.58,8.1.24,11.83.23.38,0,1.07-.31,1.07-.77,0-1.47.23-3.24-.62-4.53-.47-.71-2.31,0-1.77.84.7,1.07.46,2.64.44,3.85l1.07-.77c-3.41,0-7.67,1.3-10.89-.13l.41.56a4.67,4.67,0,0,1,.48-2.63c.7-1-1.12-1.24-1.61-.54Z"/><path class="cls-2" d="M310.83,57.64c-.05,2-.83,5,1.53,6,.79.33,2.25-.8,1.12-1.28-1.48-.62-.73-3.63-.69-4.84,0-1-1.93-.69-2,.16Z"/><path class="cls-2" d="M320.42,57.38a5.83,5.83,0,0,1,.53,4.07c-.18.6,1.74.32,1.93-.27a6.18,6.18,0,0,0-.53-4.32c-.28-.61-2.16,0-1.93.52Z"/><path class="cls-2" d="M170.5,77.35C181.45,75,192.78,76,203.9,76.16c10.43.14,20.87-.29,31.3-.59,15.29-.45,30.47-.18,45.73-1.15,1-.07,1.55-1.31.22-1.23-15.84,1-31.64.74-47.51,1.2-11.35.33-22.7.7-34,.44-9.83-.22-19.72-.67-29.4,1.39-1.19.26-.87,1.38.31,1.13Z"/><path class="cls-2" d="M502.32,56.48c-.57.8-.37.38.8.78a9.46,9.46,0,0,1,1.57.76c1.24.7,1.7,2.28,2,3.59.4,2.06-.11,9.38-3.67,8.69-.61-.11-2.28.84-1.19,1,5.23,1,7-5,6.91-9.1a6,6,0,0,0-3.5-5.7c-1.16-.55-3.7-1.48-4.68-.11-.51.71,1.44.55,1.8,0Z"/><path class="cls-2" d="M499.86,56.71a21.18,21.18,0,0,1,2,7.85c.2,4.21-2.65,7.21-6.87,4.94-2.29-1.23-3-4-2.68-6.43a7.35,7.35,0,0,1,7.33-6.23c.41,0,2.2-.82,1.24-.81-3.8,0-7.44,1.37-9.51,4.72a6.9,6.9,0,0,0,1.81,9.41c2.51,1.63,7.33,1.44,9.26-1.08,2.71-3.56,1.06-9.25-.62-12.89-.22-.49-2.09.16-1.93.52Z"/><path class="cls-2" d="M461.48,61.69c10,.28,21.19,2.94,30.68-1.47,1.23-.57.09-1-.73-.66-8.92,4.14-19.71,1.41-29.17,1.14-.65,0-2.08.95-.78,1Z"/><path class="cls-2" d="M493,69.08c-10.11-1.88-20.37.24-30.53.08-.43,0-2.22.81-1.25.82l1.06,0c.43,0,2.21-.81,1.24-.83a1.75,1.75,0,0,0-2,.82l2.09,0a50.78,50.78,0,0,0,6-.41c7.05-.69,14.77-1,21.75.24.47.09,2.15-.67,1.58-.77Z"/><path class="cls-2" d="M459.72,60.68a45.29,45.29,0,0,1,.07,6.38c-.37,3.21-6,1.51-7.79,1.57-6.76.24-13.22,2.71-20.05,2.41A8.81,8.81,0,0,1,425.51,68c-4.22-4.82,3.65-6.77,7.28-6.34a33.19,33.19,0,0,0,6.9.2c5.9-.48,13.88-2.91,19,1,.57.43,2.33-.39,1.52-1-6.64-5.09-16.73-.7-24.23-1.14-3.26-.19-7.9-1.67-10.86.59-3.22,2.45-3.12,5.51-.52,8.48,2.21,2.52,6.71,2.71,9.75,2.51a151.89,151.89,0,0,0,16.56-2.42c2.63-.48,6.63,1.61,9,0,2.9-1.92,1.77-6.58,1.7-9.41,0-.89-2-.51-1.94.21Z"/><path class="cls-2" d="M322,73.89c16.68.64,33.37.33,50.05.13,8.46-.1,16.92-.16,25.37-.09,9.57.09,19.1-.79,28.66-.74.81,0,2-1.21.72-1.22-9,0-17.91.89-26.89.76-8.44-.12-16.87,0-25.31,0-17.29.18-34.59.55-51.88-.11-.82,0-2,1.17-.72,1.22Z"/><path class="cls-2" d="M424.84,69.79c-6.1-1.27-13-.49-19.19-.38-10,.18-20.09.54-30.13.88-9.49.32-19,.32-28.48.44-33.05.4-66.1,1-99.14,1.43-14.69.2-29.39.39-44.08.46-8.55,0-18.15-1.18-26.5.84-6.79,1.63-14.17,4.93-16.19,12.23-2.47,8.93,5,16.13,12.48,19s16.5,3.21,24.53,2.82c12.37-.6,24.75-.62,37.13-.5,8.33.08,16.65.2,25,.23q7.14,0,14.27,0c3.49,0,10.91-1.44,14,.55.45.29,2-.51,1.82-.65-3.19-2-9.24-.71-12.7-.67-7.6.09-15.19.08-22.78,0-12.31-.09-24.61-.34-36.92-.23-16.11.14-50,6.41-55-15.51-2.88-12.76,12.9-17.67,22.65-17.51,3.06.05,6.12.17,9.19.18,12.9,0,25.79-.15,38.69-.31,34.06-.42,68.12-1,102.18-1.47,26.93-.37,53.94-1.86,80.86-1.53a35.45,35.45,0,0,1,6.67.43c.44.09,2.1-.62,1.59-.72Z"/><path class="cls-2" d="M235.11,98.91c7.92.12,17.27.35,23.32-5.61,3.63-3.58,3.18-8.06-2.18-8.69-4.17-.49-8.79,1.66-7.74,6.39,2,8.77,13.67,6.59,19.61,8.39.86.27,2.28-1,1.11-1.33-4.67-1.42-9.69-.18-14.13-2.53-3.66-1.94-8.48-8.6-.64-9.46,8.35-.92,2.59,7-.52,8.84-5.31,3.15-12.74,2.62-18.67,2.54-1.13,0-1.46,1.44-.16,1.46Z"/><path class="cls-2" d="M282.06,73c-.75.84-.39,2.93-.4,3.94,0,3.59,0,7.18.14,10.76.11,3.91.26,7.82.5,11.72.12,2.09-.09,5,.84,7,.35.73,2.24.13,1.93-.52-2-4.14-1.08-11.15-1.24-15.61-.13-3.76-.21-7.53-.23-11.29,0-1-.28-5.2,0-5.55.78-.88-1.09-.93-1.57-.4Z"/><path class="cls-2" d="M290.89,71.76c-1.34,2.94-.25,6.56-.17,9.65.18,6.56-.48,13.09-.22,19.66.49,12.44,2.89,24.71,1.69,37.19,0,.24,1.88.05,1.93-.52,1.15-11.85-.82-23.64-1.6-35.45a155.62,155.62,0,0,1,0-17.81c.18-3.85-1.35-9.53.26-13.07.13-.28-1.69-.13-1.91.35Z"/><path class="cls-2" d="M281.78,115.18c-.53,8,1.35,15.92.81,23.93-.06,1,1.9.71,2-.15.53-8-1.34-15.93-.81-23.94.07-1-1.9-.7-2,.16Z"/><path class="cls-2" d="M283.09,139.08c-1.92.12-2.8,1.13-2.93,3,0,.33.31.43.6.44l10.58.17c2.67,0,2.73-1.87,2.77-4.24,0-.33-.3-.44-.59-.44-3.55,0-7,0-10.34,1.19-1.28.44-.11,1.12.76.81,2.87-1,5.85-.93,8.83-.89l-.59-.43a6.29,6.29,0,0,1-.59,3.43l1.27-.53-11.36-.19.6.44c0-.48-.06-1.65.73-1.7,1-.06,1.6-1.17.26-1.09Z"/><path class="cls-2" d="M280.81,142.53c-2.8,6.83,17.68,6.42,13.17-.75-.4-.63-2.27,0-1.78.81,3.16,5-11.39,4.49-9.57.07.39-1-1.54-.81-1.82-.13Z"/><path class="cls-2" d="M295.05,72.51c1.15,6.45,1.14,13,1.18,19.5s.63,12.74.93,19.13a116.51,116.51,0,0,1-.49,15.74c-.33,3.77-.69,7.92.9,11.46.36.8,2.27.22,1.93-.51-1.92-4.29-1-9.44-.63-14a99.47,99.47,0,0,0,.13-15c-.68-12.14.11-24.82-2-36.82-.15-.81-2.09-.33-1.94.52Z"/><path class="cls-2" d="M306.43,72.1c-.1,8.38.28,16.75.18,25.12,0,.25,1.93,0,1.93-.51.1-8.38-.28-16.75-.18-25.13,0-.25-1.93,0-1.93.52Z"/><path class="cls-2" d="M311.21,72c-.06,8.59.83,17.14.77,25.73,0,.86,1.94.46,1.94-.22.06-8.59-.83-17.14-.78-25.73,0-.86-1.93-.46-1.93.22Z"/><path class="cls-2" d="M321.38,72.22c-1.14,3.34-.12,6.85-.17,10.31-.09,5-.16,10-.25,14.93,0,.52,1.92.18,1.94-.52l.21-13.08c.06-3.74-1-8.38.19-11.91.2-.59-1.72-.33-1.92.27Z"/><path class="cls-2" d="M321.44,105.24c-.06,2.53-.22,5.06-.19,7.59,0,1.84,0,4.16,1.23,5.67.34.43,2.19-.22,1.81-.7-1.27-1.58-1.09-4.27-1.12-6.17,0-2.31.15-4.61.2-6.91,0-.42-1.92-.12-1.93.52Z"/><path class="cls-2" d="M322.45,125.66c-3.11,2.81.16,9.47.23,12.92,0,1,2,.65,1.95-.17a31.52,31.52,0,0,0-.83-5.38c-.35-1.85-1.38-5.37.26-6.84.88-.8-1-1.07-1.61-.53Z"/><path class="cls-2" d="M306.26,123.28c-1.38,1.69-1,4.8-.9,6.8.1,2.81.56,5.6.58,8.4,0,.51,1.94.17,1.93-.52,0-2.34-.35-4.68-.5-7-.14-2.13-.8-5.88.67-7.68.5-.61-1.42-.41-1.78,0Z"/><path class="cls-2" d="M311.58,122.88c-.15,5.12-1.71,11.58.93,16.31.38.67,2.25,0,1.93-.52-2.61-4.68-1.07-10.93-.93-16,0-.83-1.91-.44-1.93.23Z"/><path class="cls-2" d="M301.33,115.24c-2.5,1.27-1.31,5.5.14,7.15,2.1,2.37,6.8,1.59,9.33.61,3.57-1.37,6.74-3.39,7.85-7.22,1.36-4.73,1-10.42-1.52-14.67-3.37-5.66-13.17-4.29-17.42-.45-2.56,2.31-.54,6.22,2.21,7.12,1.9.61,4,.51,5.95,1s2.25,1.87,2,3.65c-.32,2-4.16,1.46-5.51,1.41-.46,0-2.23.84-1.24.87,2.71.1,8.69.51,8.81-3.57.19-6.5-12.16-.83-11.33-8.88.49-4.77,9.76-4.52,12.65-2.68,3.27,2.08,4,6.76,4.21,10.28.21,4.18-.58,8.35-4,11-2.8,2.12-7.14,3.21-10.11.91-1.05-.8-2.44-5.29-.82-6.11,1.15-.58-.64-.61-1.14-.35Z"/><path class="cls-2" d="M308,109c-.85-.27-2.39-.08-2.51,1s.57,2.33.89,3.34c.22.68,2.14.13,1.93-.52s-.49-1.39-.7-2.09a5.31,5.31,0,0,1-.19-.88,1,1,0,0,1,0-.29l-.94.37.3.09c.61.19,2.27-.71,1.19-1Z"/><path class="cls-2" d="M296.91,139.69c3.36,0,6.72-.34,10.08-.41,1.43,0,.84,2.06-.43,2.12-.95,0-1.93-.06-2.88-.08s-5,.3-5.42-.52c-.26-.52-2.12.14-1.93.51.38.78,2.27.68,2.95.74,1.78.13,3.56.11,5.34.19,2.66.11,5.35-.47,5-3.65,0-.13-.27-.16-.35-.16-3.86,0-7.72.4-11.58.41-.56,0-2.11.85-.82.85Z"/><path class="cls-2" d="M295.72,142.41a4.29,4.29,0,0,0-.65,2.47.23.23,0,0,0,.18.12c2.18.85,18.57,2.67,14.95-2.81-.32-.49-2.1.27-1.93.51,2.1,3.18-3.21,2.77-5.08,2.66a31.61,31.61,0,0,1-4.11-.51c-1.77-.33-2.84-.68-1.45-2.77.15-.23-1.59-.15-1.91.33Z"/><path class="cls-2" d="M312.61,141c-.21-2.54,9-2.48,10.71-2.46-.21-.2-.42-.4-.64-.59,0,1,0,2-.05,3s1.94.66,2-.17c0-1,0-2,.05-3a.61.61,0,0,0-.64-.59c-2.77,0-13.7-.33-13.32,4.33.07.83,2,.38,1.93-.52Z"/><path class="cls-2" d="M311.29,142.54c3,0,6-.41,8.94-.56,1.12,0,2.49-.33,3.3.61.53.61-.27,1.17-.75,1.44-1.77,1-11.93,3.25-10.79-1,.23-.87-1.74-.61-1.95.17-1.57,5.91,11.23,3.1,13.56,1.91,1.72-.88,3.17-3.2.57-4.2-1.43-.54-3.36-.22-4.84-.13-2.44.14-4.9.49-7.35.49-.86,0-2,1.31-.69,1.31Z"/><path class="cls-2" d="M320.64,118.3c-2.47,3.34-.42,7.27,3.56,7.66,5.08.49,10.14-.63,15.12-1.51,9-1.58,18.11,1.41,26.5-3.37,9.7-5.52,7.2-18.79-1.63-23.32-4.92-2.53-10.68-1.37-15.92-1.08-8.85.5-17.7.58-26.54,1.32-.16,0-1.55.28-1.38.64s.38.81.58,1.21,2.08-.2,1.93-.52-.39-.8-.58-1.21l-1.39.65c11.63-1,23.67-1.86,35.33-1.83,11.13,0,17,11.09,11.69,20.33-4.87,8.47-17.13,5.8-25.26,6.13a76.15,76.15,0,0,0-8.86,1.36,27.09,27.09,0,0,1-9.2.24c-3.5-.65-3.68-4.83-2-7,.13-.18-1.56-.12-1.9.34Z"/><path class="cls-2" d="M319.79,98.88c-3.18,6.8,4.78,6.38,9.11,6.34,9.72-.09,21.26-3.33,30.24,1.45,6.84,3.64,2.5,10.1-4,11.1-3.82.58-7.76-.13-11.61-.09-7,.07-15.17-1.28-21.77,1.72-1.21.55-.12,1.5.84,1.06,5-2.26,10.17-1.22,15.41-1.27,4.22,0,8.43.07,12.65.08,5.35,0,13.66-1.26,14.24-8.08.43-5-7.71-7.34-11.25-8-4.34-.81-9.26-.1-13.63.16-3,.18-6.06.38-9.1.5s-12.23,1.54-9.28-4.78c.46-1-1.49-.91-1.83-.18Z"/><path class="cls-2" d="M324.28,114.26c1,2.61,12.4.75,14.27.64,7.08-.42,14.22-1.42,21.32-1.43,1.1,0,1.48-1.41.17-1.4-5.35,0-10.74.71-16.08,1.09-1.75.12-17.26,1.91-17.75.58-.32-.87-2.24-.33-1.93.52Z"/><path class="cls-2" d="M372.1,114c13.78-.46,27.52-2.11,41.29-2.45,7.37-.19,15-.6,21.83-3.6,13.84-6.09,15.95-31.4-.26-35.69-.51-.13-2.24.66-1.57.83,8.86,2.35,11.37,11,10.8,19.27s-5.6,14-13.35,16.35c-7.18,2.2-14.82,1.57-22.21,2.15-11.89.94-23.8,1.81-35.73,2.22-.6,0-2.09,1-.8.92Z"/><path class="cls-2" d="M447.59,71.41c3.37,9.36,7.86,18.1,5.54,28.3-2.63,11.57-12.65,18-23.9,19s-22.58,2.2-33.92,2.85c-5.55.32-11.12.09-16.67,0-2.47,0-4.95,0-7.42.05q-1.87.06-3.75.18c-.49,0-3.74,1.08-1.49,1.12.63,0,2.09-.93.79-1l-1.28,0c-.63,0-2.09.92-.79,1,12.37.28,25.06-.14,37.42-.86,6.48-.38,12.95-1,19.41-1.72,5.15-.54,10.29-.74,15.3-2.13,8-2.21,13.81-7.91,17.09-15.39,4.81-11-.7-21.62-4.4-31.91-.21-.58-2.12,0-1.93.52Z"/><path class="cls-2" d="M321,80.92c4.41.37,2.94,4.91,2.84,8a6.06,6.06,0,0,0,4.56,6.46,7.64,7.64,0,0,0,6.09-1.1c1.57-1,3.34-7.84,5.37-7.07.52.19,2.28-.59,1.56-.86-6.66-2.53-5.37,10.14-12.39,7.87-7.19-2.33,1.29-13.53-6.82-14.21-.52,0-2.25.86-1.21,1Z"/><path class="cls-2" d="M333.38,95.05c2.73,1.31,5.86,1.34,8.82,1.38,1.1,0,1.48-1.38.18-1.4-2.66,0-5.44-.1-7.88-1.27-.79-.38-2.23.76-1.12,1.29Z"/><path class="cls-2" d="M161.84,109.09a4.27,4.27,0,0,0-4.41,3.82,3.79,3.79,0,0,0,4,4.32c2.77-.09,5.6-2.4,4.38-5.32-.83-2-4.05-1.62-5.83-1.65-.59,0-2.1.87-.8.89a17.89,17.89,0,0,1,3.72.34c.9.21,1.18,1.27,1.31,2.08a2.65,2.65,0,0,1-1.74,2.72c-3.45,1.11-4.35-6.22-1.48-6.3.58,0,2.09-.94.8-.9Z"/><path class="cls-2" d="M177.82,117.59c-3,.08-5.55,3.22-3.46,5.94.91,1.18,2.84,1.63,4.24,1.71a3.56,3.56,0,0,0,3.06-1.21c1.09-1.35.1-3.65-.84-4.79a2.53,2.53,0,0,0-4.37.84c-.28.66,1.66.44,1.94-.22a1.6,1.6,0,0,1,.37-.58c-.14.13-.62.08-.45.16a2.56,2.56,0,0,1,1,1,4.06,4.06,0,0,1,.73,3.08c-.32,1.33-2.62.19-3.31-.2a2.64,2.64,0,0,1-1.18-2.53c.06-.76.59-2,1.5-2a1.55,1.55,0,0,0,1.27-.55c.24-.38-.2-.63-.53-.62Z"/><path class="cls-2" d="M188.35,127.9a9.49,9.49,0,0,0-.16,6.27c.12.41.81.36,1.1.27,2-.62,4-1.09,6-1.7.38-.12.84-.33.83-.78-.09-3.45-5.9-6.85-7.8-2.87-.42.88,1.52.69,1.81.08.21-.45.32-.73.83-.63a3.84,3.84,0,0,1,1.67.9,4.17,4.17,0,0,1,1.56,3l.82-.78c-2,.61-4,1.08-6,1.69l1.1.27a8.8,8.8,0,0,1,0-5.69c.41-.88-1.53-.69-1.81-.07Z"/><path class="cls-2" d="M194.85,129.82l8.37.14c.78,0,2-1.17.73-1.19l-8.37-.13c-.79,0-2,1.16-.73,1.18Z"/><path class="cls-2" d="M193.58,132.71a54,54,0,0,0,9.83-1.05c.89-.16,1.62-1.24.29-1a52.46,52.46,0,0,1-9.35,1c-.68,0-2.07,1-.77,1Z"/><path class="cls-2" d="M203.9,126.27c-.71,1.58-.21,3.67.48,5.18a.87.87,0,0,0,.89.47l4.18.07c1.13,0,1.47-1.45.16-1.47l-4.18-.07.88.48c-.56-1.25-1.15-3.09-.56-4.41.47-1-1.48-1.06-1.85-.25Z"/><path class="cls-2" d="M204.18,128l4.79.08-.35-.15c0,1,0,2,0,3,0,.34,1.92.07,1.93-.51,0-1,0-2,.05-3,0-.12-.29-.15-.35-.15l-4.78-.08a2.54,2.54,0,0,0-1.37.37c-.3.2-.26.44.12.45Z"/><path class="cls-2" d="M209.53,129.23l7.78.13c.36,0,2.19-.71,1.27-.72l-7.78-.13c-.36,0-2.18.71-1.27.72Z"/><path class="cls-2" d="M209.76,132.46c2.66,0,5.16-1,7.79-1.07a1.46,1.46,0,0,0,1.27-.55c.23-.38-.19-.65-.54-.65-2.65,0-5.15,1.05-7.8,1.07-.79,0-2,1.21-.72,1.2Z"/><path class="cls-2" d="M217,129.26c0,2.45,2.53,2.34,4.34,1.94.27-.06,1.14-.21,1.15-.61s0-1,0-1.54-.22-.51-.53-.69a4.61,4.61,0,0,0-2.18-.33,2.54,2.54,0,0,0-1.37.37c-.31.19-.26.4.11.41a4,4,0,0,1,1.62.2c.69.33.41,1.46.4,2.1l1.14-.61a2.84,2.84,0,0,1-2.07-.08,1.85,1.85,0,0,1-.7-1.68c0-.31-1.94,0-1.93.52Z"/><path class="cls-2" d="M217,124.91l0,1.79a.47.47,0,0,0,.4.5,5.37,5.37,0,0,0,5.57-1.5.45.45,0,0,0-.22-.81,1.5,1.5,0,0,0-1.36.36,2.5,2.5,0,0,1-2.84.77l.39.49,0-1.79c0-.92-1.93-.57-1.94.19Z"/><path class="cls-2" d="M227.29,125.39c2.31,2.89,6.89.91,7.87-2.2.26-.83-1.71-.59-1.95.18-.58,1.85-2.79,2.89-4.15,1.2-.5-.63-2.35.1-1.77.82Z"/><path class="cls-2" d="M223.31,128.92l4.19.07a2.37,2.37,0,0,0,1.37-.36c.29-.2.26-.48-.13-.49l-4.19-.07a2.46,2.46,0,0,0-1.37.37c-.29.2-.26.48.13.48Z"/><path class="cls-2" d="M222,132.76a16.76,16.76,0,0,0,5.07-1.16c1.17-.37.83-1.71-.35-1.32a15.25,15.25,0,0,1-4.55,1.07c-1.1,0-1.48,1.42-.17,1.41Z"/><path class="cls-2" d="M227.75,127.45c0,1,0,2-.05,3,0,.4.3.58.66.65a4.65,4.65,0,0,0,4.55-1.45,1.6,1.6,0,0,0,.15-1.81,3.1,3.1,0,0,0-2.2-1.14c-1-.2-1.94,1.18-.66,1.44a1.81,1.81,0,0,1,1.05.49.39.39,0,0,1,0,.49,2.24,2.24,0,0,1-2.22.54l.66.65c0-1,0-2,.05-3s-1.95-.77-2,.14Z"/><path class="cls-2" d="M287.9,107.68c.43,9.8-11.39,7.33-17.95,7.23-11.47-.18-22.85.17-34.35-.41-22.25-1.13-44.24.88-66.44-1.74-.55-.07-2.27.85-1.2,1,11.32,1.34,22.87,2.3,34.27,1.77,14.8-.69,29.34-.06,44.14.55,10.9.45,22,.41,32.92.13,5.92-.14,10.83-2.43,10.54-9,0-.55-2-.17-1.93.51Z"/><path class="cls-2" d="M234.19,97.14c-5.43-1.56-11.92-.08-17.5.06-7.2.17-14.41.08-21.6.55-6.57.44-14.76-.22-17.19,7.44,0,.14,0,.22.17.26l1.79.63c.49.17,2.24-.59,1.57-.83-1.93-.68-1.16-2-.19-3.41,1.83-2.7,5.7-2.86,8.61-3,3.71-.21,7.44-.32,11.15-.43,5-.14,9.92-.18,14.88-.28C221,98,227.67,96.54,232.62,98c.5.14,2.23-.63,1.57-.82Z"/><path class="cls-2" d="M269.26,98.55l9.56.15c.41,0,2.21-.78,1.25-.8l-9.56-.15c-.42,0-2.21.78-1.25.8Z"/><path class="cls-2" d="M280.61,104.15c-7.05.33-14-.73-21-.92-8.16-.23-16.32.17-24.47.53s-16.29.71-24.44.39c-7.66-.3-15.14-1-22.76.28-.51.08-1.15.39-1,1a3.38,3.38,0,0,0,.66,1.39c.49.79,2.32,0,1.77-.88-.17-.34-.33-.68-.5-1l-1,1c8.05-1.29,16.06-.54,24.16-.22,7.67.3,15.38-.1,23.05-.44s15.18-.67,22.79-.59,15.1,1.33,22.71,1c1.13-.06,1.46-1.57.15-1.5Z"/><path class="cls-2" d="M185.51,115c.69,4,5.9,4,9.05,4,6.06.07,12.14-1.15,18.21-1.34,11.63-.37,23.26.28,34.88.11,11.06-.15,22.48.71,33.48-.46.55-.06,2.09-1,.81-.87-9.19,1-18.44-.2-27.66.28-10.32.54-20.67.08-31,0a149.83,149.83,0,0,0-20.21.83c-3.91.49-14.64,2.6-15.63-3.07-.08-.47-2,0-1.93.52Z"/><path class="cls-2" d="M282.42,122.32h-.6a1.62,1.62,0,0,0-1.28.52c-.26.38.22.55.52.56h.6a1.62,1.62,0,0,0,1.28-.52c.26-.38-.23-.55-.52-.56Z"/><path class="cls-2" d="M281.3,122.85c-1.94,1.12-7.49.09-9.66.09-4.38,0-8.77.18-13.15.25-7.7.13-15.19.64-22.87,1.25-8.91.7-18.07,0-27-.17-8.44-.14-16.87.24-25.06-2.19-.43-.13-2.14.57-1.59.73,8.31,2.47,16.82,2.09,25.4,2.23,9.75.15,19.6.77,29.34,0,10.61-.85,21.13-1.14,31.78-1.31,4.29-.07,10.33,1.45,14.29-.85.81-.47-1.14-.23-1.48,0Z"/><path class="cls-2" d="M177.13,115.32a3.13,3.13,0,0,0,1.33,3.94c.55.32,2.33-.47,1.54-.92a2.62,2.62,0,0,1-.94-3.27c.19-.41-.66-.43-.83-.41a1.35,1.35,0,0,0-1.1.66Z"/><path class="cls-2" d="M169.36,113.94c0,2.69,1.13,5.76,3.92,6.64.87.27,2.28-1,1.1-1.34-2.22-.7-3-3.32-3.06-5.43,0-1-2-.78-2,.13Z"/><path class="cls-2" d="M179.42,125.12c1.47,1.44,3.53,2,5.46,2.52a2.33,2.33,0,0,0,1.34-.26c.17-.07.66-.35.25-.46a11.47,11.47,0,0,1-5.23-2.44c-.34-.34-2.08.39-1.82.64Z"/><path class="cls-2" d="M165.22,115.92c.71.71,1.65,1.13,2.36,1.84.35.35,2.11-.36,1.82-.66-.71-.7-1.65-1.13-2.36-1.83-.36-.35-2.12.36-1.82.65Z"/><path class="cls-2" d="M147,98.88a9.91,9.91,0,0,1,2.5,4.1,22.86,22.86,0,0,0,2.84,4.62,14.55,14.55,0,0,0,7.11,5.28c.43.14,2.15-.55,1.59-.74-3.71-1.26-6.07-3.92-8.2-7.09-1.48-2.2-1.94-5.08-4-6.82-.39-.34-2.09.42-1.82.65Z"/></svg>