<svg id="Layer_1" data-name="Layer 1" xmlns="http://www.w3.org/2000/svg" viewBox="0 0 32.55 50.51"><defs><style>.cls-1{fill:#1a0601;}.cls-1,.cls-2,.cls-3,.cls-4{fill-rule:evenodd;}.cls-2{fill:#9fc9b6;}.cls-3{fill:#6b777e;}.cls-4{fill:#b7c9b9;}</style></defs><path class="cls-1" d="M13.79,13.18l-.24-.31L12,12.77l1.48-.28c0-.1,0-.21.05-.31l-1.62-.24,1.88-.2.24-.28c-.5-.52-1-1-1.49-1.55.58.41,1.16.82,1.73,1.24l.81-.21c0-.65.05-1.29.07-1.93.15.63.29,1.27.43,1.9l.62.19L17.7,9.82c-.38.5-.77,1-1.15,1.51l.36.32,2.21-.46-2,.84c0,.13,0,.27,0,.39l2.45.25-2.4.11a3.62,3.62,0,0,1-.13.35c-2-.85-2.57-.33-3.29,0Z"/><path class="cls-1" d="M9.82,2.91l0-.53C9.36,1.25,10.12,1,10.89.24c-.07.37-.15.73-.23,1.09l.8-1c-.16.44-.33.89-.5,1.33.14-.08.29-.17.44-.24l-.56,1c0,.22,0,.45-.05.67l-1-.15Z"/><path class="cls-2" d="M10,41l1.52-1.08c-.07-.78-.13-1.56-.2-2.35l.41-.36c0-1.35-.05-2.72-.07-4.08-.09-.41-.18-.83-.26-1.26l.3-.64c-.07-.78-.13-1.57-.2-2.35L11,27.6l.77-2.12L11.6,25c-1.8,0-.39-3,.07-3.93l-.78-1.23.41-.73-.43-.52c0-.21.09-.42.14-.63l-.53-.52c0-.32.11-.65.17-1l-.55-.1-.16-1.77L10.76,13l-.54-4.28L10,7.78l-.18-.86a1.53,1.53,0,0,1-.14-1.85C9.4,5,9.34,4.7,9.36,4.39c-.48-.18-.9-.38-.29-1-.18-.06-.28-.15-.21-.32,1.47-.65,1.38-.39,2.87,0,.54.66.18,1.4-.7,1.29.15.24.06.45-.2.64.16.28.32.55.47.84a6.28,6.28,0,0,1-.06,2.52,5.74,5.74,0,0,1,.9,3.43c.15.27.3.52.44.78l.32.56c-.05.34-.09.68-.14,1l.56.37.31-.54,0-.94c.63-1.82,2.47-1.48,3.47-.18,0,.25,0,.5.05.76.06.44.13.89.18,1.33l-.3.3a5.89,5.89,0,0,1,.64,1.78c1.16.14,1.43,1.21,1.52,2.48l1.25,1.07c.3-.4.6-.8.89-1.21l2.12,1.18q-.33.54-.63,1.08l.38.64a3.69,3.69,0,0,1-1,1.54l-.64.31c0,1.44-.21,2.67-1.17,2.77L20,27.3c.13.89.25,1.78.38,2.67l-.15.22c.08.69.15,1.39.23,2.07l-.25.22c0,.34,0,.68,0,1l-.23.16c0,.14,0,.28.05.42l-.17,0,.12,2.23-.49.4c.08,1.11.17,2.22.25,3.33l.51.67a1.27,1.27,0,0,0,0,.2L10,41Z"/><path class="cls-3" d="M8.74,42.12H22v3H8.74v-3Z"/><path class="cls-3" d="M9.09,40.75H21.66v1.11H9.09V40.75Z"/><path class="cls-1" d="M13.79,13.18c0,.27,0,.53,0,.8s-.24.47-.36.71l.44.19c0,.12,0,.24,0,.36l.5.23c0-.11,0-.23,0-.35.23.29.46.56.69.84l2,.8-.53-.52c0-.2-.07-.4-.1-.6.14.18.28.37.41.56s.2.33.29.5.33.19.5.28c-.18-.56-.35-1.12-.52-1.69l.29-.4c-.1-.32-.2-.65-.29-1-.12-1.15-.85-1.42-1.65-1.56l.48.7H15.5c.1.68.12.52.75.83l-.27.92c-.56-.8-1.2-1.27-.56,0l-.66,0c-.11-.26-.23-.52-.35-.79.35-.41.81-.39.73-.9-.18.14-.49.1-.67.24a2.48,2.48,0,0,1-.18-.31l.94-.75a1.73,1.73,0,0,0-1.44.82Z"/><path class="cls-1" d="M13.83,15.24a5.18,5.18,0,0,1-.34,2.28,3.61,3.61,0,0,0,.6-2,3,3,0,0,1-.26-.24Z"/><path class="cls-1" d="M11.32,18.65c.57-.76,1.13-1.53,1.69-2.29a11.43,11.43,0,0,0-1.22,4.52,1.93,1.93,0,0,0-.9-1.07,5.11,5.11,0,0,0,1.34-2.1c-.3.32-.6.63-.91.94Z"/><path class="cls-1" d="M12.07,14.06c-.32.49-.65,1-1,1.46a.82.82,0,0,1-.77-.19.91.91,0,0,0,.48.43.47.47,0,0,1-.45.3.5.5,0,0,0,.58,0,2,2,0,0,1-.18.26l-.27,1.11a1.27,1.27,0,0,0,1-.81,1.77,1.77,0,0,1-.45,1l.24-.13-.27,1a13.33,13.33,0,0,0,2.25-2.71l-1.05.79a3.07,3.07,0,0,0,1.16-2l-.5.47.22-.66-.46-.29c-.42.47-.83.94-1.24,1.42.25-.48.49-1,.73-1.44Z"/><path class="cls-1" d="M12.28,12.73l-1.17,2-.27-1.39a1.63,1.63,0,0,1-.52.88c.22.08.34-.05.4-.28a.85.85,0,0,1-.76.83.64.64,0,0,0,.84-.53,1,1,0,0,0,.22.89c.41-.81.84-1.62,1.26-2.43Z"/><path class="cls-1" d="M19.11,19.8c.15.92.29,1.85.44,2.77l.09-.86L20,21c-.15.15-.31.31-.47.45l.34-1c-.16.14-.32.3-.48.45-.1-.38-.2-.76-.31-1.14Z"/><path class="cls-1" d="M20.16,22.07c-.09.12-.18.25-.28.37l1.28.85c.08-.18.16-.35.25-.53l-1.25-.69Z"/><path class="cls-1" d="M21,21.57l-.23.28.23.22.23-.4-.23-.1Z"/><path class="cls-1" d="M21.39,20.66c-.09.18-.2.37-.3.55l.54.32L22,21l-.58-.38Z"/><path class="cls-1" d="M21.73,23c-.57.79-.88,1.83-1.46,2.54-.15,0-.29-.07-.44-.22.05.58.11,1.17.16,1.75.48-.27,1-.55,1-.78a5.14,5.14,0,0,0,.43-2.1l.79-.4a7.28,7.28,0,0,0,.81-1.51l-.37-.21c0,.12,0,.23,0,.34a2.77,2.77,0,0,1-.88,1.11c0-.17-.07-.35-.11-.52Z"/><path class="cls-1" d="M23.1,20.54c-.16.3-.3.59-.45.9l.15.13.55-.91c-.08-.05-.17-.08-.25-.12Z"/><path class="cls-1" d="M21.61,22.38l.54.55c0-.13-.1-.27-.16-.41l-.38-.14Z"/><path class="cls-1" d="M21.85,22.07l.64.49-.07-.19-.57-.3Z"/><path class="cls-1" d="M22.5,21.69l.27.59L22.35,22l.15-.27Z"/><path class="cls-1" d="M16,17.15a21.67,21.67,0,0,0-3.49,4.48A48.49,48.49,0,0,0,16,17.15Z"/><path class="cls-1" d="M16.72,17.52l-2,2.43-2,2-.88,1.47c0-.5,0-1,.07-1.51-.13.37-.27.73-.4,1.1-.57.58-.94,1.23-.27,1.71.13.07.3.06.43.13A8.55,8.55,0,0,1,12.89,22l.77-.79-.41.77,1.87-2c.54-.84,1.06-1.68,1.6-2.52Z"/><path class="cls-1" d="M12.33,38.31l.95-.91c.1-.28.2-.56.31-.84-.05.32-.1.64-.14,1l-.35.24a2,2,0,0,1-.26,1.6,2.74,2.74,0,0,0,.1-1.47c-.36.65-.71,1.3-1.07,1.94.22-.51.44-1,.65-1.54l-.19,0Z"/><path class="cls-1" d="M17.18,33.26c0,.43,0,.86,0,1.29a8.57,8.57,0,0,1-3.58,2c.21.13.41.27.61.41a5.61,5.61,0,0,1-.95,2.43,5.39,5.39,0,0,0,1.15-2.35,9.42,9.42,0,0,1-.63,2.81,5.58,5.58,0,0,0,.84-3.14l.54-.54c0,.81,0,1.62-.05,2.43l-.6,1,.56-.73c0,.16-.07.31-.1.47l-.78,1h.28c.21-.18.44-.36.66-.53,0,.19-.09.37-.12.55h.42L16,39.05c.38-.22.65.08.9.42l.28-.4.23.53c-.05-2.35-.16-3.14.64-5.09,0-.54-.05-1.09-.08-1.64l-.75.39Z"/><path class="cls-1" d="M16.48,33.32l3.13-1.81c-.35.27-.7.55-1,.84l1.05.54c0,.33-.07.67-.1,1-.05-.28-.1-.55-.16-.82l-.95-.34c0,2.39-.07,4.78-.11,7.17l-1,.13.67-.91.33-6.52-1.82.72Z"/><path class="cls-1" d="M12.4,32.39c1.37-1.78,2.73-3.57,4.1-5.36-.13,2.23-.25,4.45-.38,6.68,0-1.88,0-3.75,0-5.62l-.83.77-1.15,3.79c.11-.39.24-.78.36-1.18l-.8.77c-.42,1.79-.83,3.57-1.24,5.36.29-1.65.58-3.32.88-5-.38,1.18-.74,2.35-1.12,3.53.16-1.14.3-2.28.45-3.43l-.78.46c.17-.26.33-.53.49-.8Z"/><path class="cls-1" d="M17.67,18.45l-.4.11c-.06.79-.12,1.58-.19,2.36a10.42,10.42,0,0,1,.59-2.47Z"/><path class="cls-1" d="M18.06,18.45a3.37,3.37,0,0,0,0,1.18c-.15.3-.29.61-.43.91l.55-.77c0,.17,0,.34,0,.5l-.28.25h.34l.21.56c-.18-.9-.37-1.8-.45-2.63Z"/><path class="cls-1" d="M18,22.1l-.54,1.19-1,.93.18.83c0-.23,0-.46.05-.69l.84-.94.23,0c.08-.46.17-.92.25-1.37Z"/><path class="cls-1" d="M16.46,19.12,16,20.84c-.75,2.79-1.49,5.59-2.22,8.38l2.55-8.53c0-.53.07-1.05.1-1.57Z"/><path class="cls-1" d="M15.15,20.25,13,24a26.6,26.6,0,0,0-1.38,4.53,18.69,18.69,0,0,0,2-4.65,23.87,23.87,0,0,1,1.55-3.63Z"/><path class="cls-1" d="M19.22,26.6l-.22.57c.2,1.45.4,2.89.61,4.34l.35.33c-.06-.73-.11-1.47-.16-2.2l.48.29c0-.11-.07-.22-.11-.32l-.54-.55c-.1-.78-.2-1.56-.31-2.34l.37-.1c-.24-1-.45-1.19-.13-2.19a4,4,0,0,0-.75-1.3l.45,1.27c-.5.8-.2,1.24,0,2.2Z"/><path class="cls-4" d="M8.46,41.7H22.29v.6H8.46v-.6Z"/><path class="cls-1" d="M10.62,5.44a1.08,1.08,0,0,1-.14.59c.28.16.26.3.07.44l-.38.2c0,.16,0,.31,0,.46l.27-.32c.13,0,.2.13.2.38.2.18.16.13.16.41l-.44.19c.38.21.53.26,0,.51.24,1,.51,1.88.66,2.8-.14-.11-.25-.33-.41-.42a9.5,9.5,0,0,1,.64,1.45.89.89,0,0,0,.34-.54,17.48,17.48,0,0,0-.44-3.05,3.41,3.41,0,0,1-.09-1.15V7a3.24,3.24,0,0,0-.51-1.53Z"/><path class="cls-1" d="M9.08,3.14A2.13,2.13,0,0,1,10.68,3a2.73,2.73,0,0,1-1.42.73,5,5,0,0,0,1.92,0,4.73,4.73,0,0,0-1.53.7c.39,0,.65,0,.9.07a1.07,1.07,0,0,0-.73.42l.29.27c-.57-.19-.62-.42-.62-.94-.8,0-.69-.43-.23-.85l-.18-.2Z"/></svg>