<svg id="Layer_1" data-name="Layer 1" xmlns="http://www.w3.org/2000/svg" viewBox="0 0 57.13 36.23"><defs><style>.cls-1{fill:#3d190a;}.cls-1,.cls-2,.cls-3,.cls-4,.cls-5,.cls-6,.cls-7,.cls-8{fill-rule:evenodd;}.cls-2{fill:#131414;}.cls-3{fill:#be873b;}.cls-4{fill:#6b3423;}.cls-5{fill:#e5af54;}.cls-6{fill:#1a0601;}.cls-7{fill:#543125;}.cls-8{fill:#d8a754;}</style></defs><polygon class="cls-1" points="40.96 4.55 37.09 13.73 37.05 17.24 41.44 17.85 41.64 5.66 40.96 4.55"/><polygon class="cls-2" points="38.95 27.02 37.87 15.71 48.81 27.58 38.95 27.02"/><path class="cls-3" d="M41,4.55C31.72,7.76,33,7.53,27.74,16.7a53.26,53.26,0,0,1,10.13-1c1-3.78,2.05-7.38,3.09-11.16Z"/><path class="cls-4" d="M27.74,16.7a8.53,8.53,0,0,1,1.89,4.06s1.23,1-.31,2.86l.22,1.28L34,26.3,38,27l2.54-.25a23,23,0,0,0-.15-3.31C40.21,23,39.31,20,39.31,20l-.63-2.75-1.22-2.43L28.78,16Z"/><path class="cls-5" d="M41,4.55c6.14.15,6.77,0,9.24,5.94-.11.51-.21,1-.31,1.53.52,1,1,2.05,1.58,3.06.13.41.11.68,0,.81l-11.48.18c.34-3.9.67-7.62,1-11.52Z"/><path class="cls-5" d="M40,15.85l11.51-.12.34.86L51.47,18l.25.38-1,.34-2.63.58s-3.89,3,.76,8.43L43,27.58l-1.57-5.65-3.57-6.22Z"/><path class="cls-1" d="M42.79,10.67c2.2,3.85-3.92,4.2-3.15-1a2.14,2.14,0,0,1,1.1-1.62c.88-.1,1.42.56,1.82,1.51a6.82,6.82,0,0,0-1.28-.82c-1.86-.67-1.53,3.35.09,3.72.57.12,1.15-.39,1.42-1.8Z"/><polygon class="cls-6" points="41.83 9.66 41.78 10.06 41.4 9.79 41.47 10.1 41.28 10.53 40.72 10.46 41.03 10.75 41.24 11.29 41.45 11.1 41.65 11.49 41.47 10.63 42.24 11.43 41.56 10.43 41.98 10.16 41.83 9.66"/><path class="cls-1" d="M47.28,8.22,45.79,9.91l2.27.81c-.91-1.27-.81-.94-.78-2.5Z"/><path class="cls-3" d="M8.65,28.53c4.34-2.44,14.93-3.16,20-2.26a3.31,3.31,0,0,1,.63-2.65c5.59,2.41,12.41,3.29,18.86,4.64q-13.24.3-26.47.63-6.53-.2-13.06-.36Z"/><path class="cls-5" d="M6.67,30.43H48.81A1.37,1.37,0,0,0,50.11,29h0a1.37,1.37,0,0,0-1.3-1.42H6.67A1.37,1.37,0,0,0,5.37,29h0a1.37,1.37,0,0,0,1.3,1.43Z"/><path class="cls-7" d="M50.35,18.82l-4.24-.28-4.66-1.67,5.22,6.86c-.55-3.18,1.1-4.55,3.68-4.91Z"/><path class="cls-2" d="M42,13.54c-.67.76-1.41,1.55-2.09,2.31.1-1,.17-2.19.27-3.24a2.31,2.31,0,0,0,1.82.93Z"/><path class="cls-8" d="M5.37,33.43h45.1a1.9,1.9,0,0,0,1.9-1.89h0a1.9,1.9,0,0,0-1.9-1.89H5.37a1.89,1.89,0,0,0-1.89,1.89h0a1.89,1.89,0,0,0,1.89,1.89Z"/></svg>