<svg id="Layer_1" data-name="Layer 1" xmlns="http://www.w3.org/2000/svg" viewBox="0 0 64.02 22.51"><defs><style>.cls-1{fill:#060000;}.cls-1,.cls-10,.cls-2,.cls-3,.cls-4,.cls-5,.cls-6,.cls-7,.cls-8,.cls-9{fill-rule:evenodd;}.cls-2{fill:#666;}.cls-3{fill:#1a0601;}.cls-4{fill:#131414;}.cls-5{fill:gray;}.cls-6{fill:#979797;}.cls-7{fill:#4d4d4c;}.cls-8{fill:#726a6a;}.cls-9{fill:#aeaeaf;}</style></defs><polygon class="cls-1" points="30.83 19.13 33.7 19.11 33.24 7.15 30.32 7.99 30.83 19.13"/><path class="cls-2" d="M20.15,18.72c-.86-1-1.06,1.49-1-3.53,0-.85.33-1.62.33-3.19,0-1.26.06-2.48.12-3.74,0-.94-.35-.74,1.69-.88,1.61-.1.64,7.9.47,8.6s-.12,3.08-1,2.87c-.12,0-.85-.18-.87-.31Z"/><path class="cls-3" d="M7.27,18.73a16.54,16.54,0,0,0,.86-3.67,13.11,13.11,0,0,0,.17-2.19c0-1.48,0-3.26,1.62-3.73a4.36,4.36,0,0,1,1,2.06,22.94,22.94,0,0,1-.39,4.47c-.08.51.17,3.23-.13,3.23a18,18,0,0,0-3.09-.17Z"/><path class="cls-3" d="M13.14,9.16h-.08a2.08,2.08,0,0,0-.54,1.47c-.11,2.68.25,2.67-.27,5.56,0,0-.14,1.56-.22,2.59h.07a7.63,7.63,0,0,0,1.78-.16c0-1.09.56-4,.11-4.79s-.32-2.82-.48-3.94c-.07-.44-.18-.72-.37-.72Z"/><path class="cls-3" d="M16.6,8.55s1.83.2,1.94.73a30.09,30.09,0,0,1,.15,8.21c-.26,1.89.74,1.24-2,1.23,0,0-.13-2.09-.15-2.23-.43-2.11-1.1-5-.16-7,0-.12.13-.95.18-1Z"/><polygon class="cls-4" points="36.6 18.26 35.64 9.96 33.67 10.04 32.68 19.18 36.72 18.93 36.6 18.26"/><polygon class="cls-4" points="55.74 9.49 56.7 10.62 56.6 11.92 56.02 12.66 56.94 15.13 56.84 18.85 53.7 18.82 53.8 9.65 55.74 9.49"/><path class="cls-2" d="M13.06,9.15c-.61,0-2-.5-2.2.1-.55,1.55-.07,3.1-.7,4.32-.38.73-.29,5.24.16,5.24.22,0,1,0,1.71,0,.08-1,.21-2.57.22-2.59.52-2.89.16-2.88.27-5.56a2.08,2.08,0,0,1,.54-1.47Z"/><path class="cls-3" d="M12.27,7.57l.19,0a5.44,5.44,0,0,1,.54.17c.6.22.2.17-.19,1.26a4.79,4.79,0,0,1-1.12.09h-.08c0-1.4.14-1.09.66-1.56Z"/><path class="cls-5" d="M9.35,8.14c1.19-.23,1.73-.79,2.92-.57-.52.47-.69.16-.66,1.56a17.23,17.23,0,0,0-1.75.1c-.74.38-.6-.57-.51-1.09Z"/><path class="cls-6" d="M9.46,9.92c-1.68-1.53-1.61,0-2,2.1-.34,1.8.11,1.11-.6,3.32-.12.37-.53,3.28-.25,3.28,2.18-.05,1.47,0,2.16-3.51a36.17,36.17,0,0,0,.7-5.19Z"/><path class="cls-7" d="M5.47,18.42a8.13,8.13,0,0,1-1.65-.12c-.57-.09-.44-.25-.08-.78a10.29,10.29,0,0,1,2.06-.14,1.13,1.13,0,0,0-.33,1Z"/><path class="cls-3" d="M6.79,18.46c-.45,0-.79,0-1.11,0H5.47a1.13,1.13,0,0,1,.33-1h.35a1.9,1.9,0,0,1,.69.07c.29.37.19,1,0,1Z"/><path class="cls-7" d="M14,13.82A33.71,33.71,0,0,0,15,10c.23-2.36.09-1.09,1.63-1.41.39.5-.2,2.68.48,3.13.49.32.39,5.86.39,7,0,.17-3.71.51-3.71-.1A23.93,23.93,0,0,1,14,14.51a4.33,4.33,0,0,0,0-.72Z"/><path class="cls-3" d="M22.56,8.17c1,0,2.27-.05,2.5.27A4.53,4.53,0,0,0,26.46,10c.23.16-.14,2.47-.14,3.06,0,1.43-.42,3.24-.42,5.21,0,1.36-.48,1-1.8.91.25-1.57.79-3.73.79-4.28-1.44,0-2,1.13-.7-2,1.55-3.75.45-3.56-1.63-4.73Z"/><path class="cls-7" d="M21.42,8.23l.5,0,.64,0c2.08,1.17,3.18,1,1.63,4.73-1.28,3.13-.74,2,.7,2,0,.55-.54,2.71-.79,4.28h-.34c-.61,0-4.21-.17-4.16-.54a41.07,41.07,0,0,1,.81-5.6c.11-.49.27-4.81,1-4.81Z"/><path class="cls-8" d="M28.15,7.41c-.77,3.75-1.51,4.19-.5,8.55s-1.86,2.9,5,3.22c1.17.05-.21-3.45-.22-4.51,0-1.46.48-7.56-.29-7.56a25.65,25.65,0,0,0-4,.3Z"/><path class="cls-2" d="M36.62,8c-.31,1.06-1.72,11-1,11s7,.61,6.17-.85c-.63-1.08-1.37-10.41-2.36-10.41-.34,0-2.82.24-2.82.23Z"/><polygon class="cls-3" points="45.36 8.93 44.89 9.68 44.47 12.45 44.28 13.73 44.39 14.03 45.32 16.71 45.05 18.8 48.2 18.8 47.97 17.52 48.36 16.02 48.11 14.7 47.5 8.63 46.04 8.5 45.71 8.71 45.36 8.93"/><polygon class="cls-9" points="43.42 10.39 43.13 10.62 42.01 11.05 41.75 13.7 42.31 16.73 42.7 18.14 42.36 18.8 43.15 18.8 43.09 11.63 43.42 10.39"/><polygon class="cls-3" points="44.37 18.8 44.66 18.31 44.52 16.99 43.9 13.24 44.51 9.51 43.6 10.24 43.42 10.39 43.09 11.63 43.15 18.8 43.2 18.8 44.12 18.8 44.37 18.8"/><polygon class="cls-5" points="44.78 9.29 45.36 8.93 44.89 9.68 44.47 12.45 44.28 13.73 44.39 14.03 45.32 16.71 45.05 18.8 45 18.8 44.37 18.8 44.66 18.31 44.52 16.99 43.9 13.24 44.51 9.51 44.64 9.4 44.78 9.29"/><polygon class="cls-3" points="22.12 6.64 22.56 8.17 29.16 7.67 30.95 6.64 30.97 7.14 32.68 6.95 32.87 7.67 33.63 6.64 33.76 7.71 37.57 7.92 38.74 6.75 39.13 7.78 40.15 6.59 40.99 7.67 42.4 6.34 45.95 6.59 46.3 8.76 32.87 8.4 22.24 8.19 22.12 6.64"/><polygon class="cls-8" points="22.12 6.64 25.08 6.08 33.85 5.83 42.4 6.34 41.63 7.82 40.08 8.07 33.74 7.99 30.32 7.99 22.56 8.17 22.12 6.64"/><polygon class="cls-10" points="49.52 18.52 49.52 18.82 53.7 18.82 53.98 9.88 51.98 10.01 50.52 11.99 49.44 12.22 49.17 12.76 49.52 18.82 49.52 18.52"/><polygon class="cls-2" points="53.8 9.65 55.74 9.49 55.76 11.23 54.22 12.91 54.84 14.18 54.19 14.09 53.7 18.82 53.8 9.65"/><polygon class="cls-2" points="49.54 9.29 50.43 8.84 53.27 8.96 53.98 9.88 51.98 10.01 50.6 12.45 50.43 16.4 50.15 12.48 49.4 12.78 49.52 18.52 49.17 12.76 49.54 9.29"/><polygon class="cls-4" points="28.88 8.18 33.01 8.41 33.16 10.15 28.88 8.18"/><polygon class="cls-4" points="36.51 8.5 39.23 9.82 40.29 8.44 36.51 8.5"/></svg>