<svg id="Layer_1" data-name="Layer 1" xmlns="http://www.w3.org/2000/svg" viewBox="0 0 58.94 43.25"><defs><style>.cls-1,.cls-5{fill:#979797;}.cls-2{fill:#aeaeaf;}.cls-3{fill:#d7d8d8;}.cls-3,.cls-5,.cls-6{fill-rule:evenodd;}.cls-4{fill:gray;}.cls-6{fill:#eaebeb;}</style></defs><rect class="cls-1" x="27.06" y="7.13" width="4" height="0.78"/><rect class="cls-2" x="5.13" y="14.61" width="47.85" height="4.64"/><path class="cls-3" d="M49.72,35.07h3L52.4,20h.27v-.78H49.8V20h.27Zm-6.33,0h3q-.18-7.55-.35-15.08h.27v-.78H43.46V20h.27q-.16,7.53-.34,15.08Zm-6.34,0h3q-.16-7.55-.35-15.08H40v-.78H37.13V20h.27q-.16,7.53-.35,15.08Zm-6.34,0h3q-.16-7.55-.34-15.08h.27v-.78H30.79V20h.27q-.16,7.53-.35,15.08Zm-6.33,0h3q-.16-7.55-.35-15.08h.28v-.78H24.45V20h.28q-.18,7.53-.35,15.08Zm-6.33,0h3Q20.9,27.53,20.72,20H21v-.78H18.12V20h.27q-.16,7.53-.34,15.08Zm-6.34,0h3q-.18-7.55-.35-15.08h.27v-.78H11.78V20h.28q-.18,7.53-.35,15.08Zm-6.34,0h3L8.05,20h.27v-.78H5.44V20h.28Z"/><rect class="cls-4" x="4.24" y="14.05" width="49.63" height="0.93"/><polygon class="cls-5" points="29.06 8.16 41.67 11.16 54.28 14.16 29.06 14.16 3.84 14.16 16.45 11.16 29.06 8.16"/><polygon class="cls-6" points="29.06 8.68 8.13 13.66 49.99 13.66 29.06 8.68"/><polygon class="cls-2" points="3.08 13.62 28.97 7.46 29.06 7.44 29.15 7.46 55.04 13.62 54.86 14.39 29.06 8.26 3.25 14.39 3.08 13.62"/><rect class="cls-1" x="2.48" y="36.41" width="53.16" height="1.43"/><rect class="cls-1" x="3.48" y="35.49" width="51.14" height="1.68"/><rect class="cls-1" x="4.74" y="34.73" width="48.63" height="1.18"/></svg>