<svg id="Layer_1" data-name="Layer 1" xmlns="http://www.w3.org/2000/svg" viewBox="0 0 41.22 52.61"><defs><style>.cls-1{fill:#c94448;}.cls-2,.cls-7{fill:#ec4f53;}.cls-10,.cls-13,.cls-14,.cls-16,.cls-17,.cls-19,.cls-2,.cls-20,.cls-21,.cls-22,.cls-23,.cls-24,.cls-25,.cls-4,.cls-6{fill-rule:evenodd;}.cls-16,.cls-3{fill:#34665c;}.cls-4,.cls-5{fill:#dc291b;}.cls-6,.cls-9{fill:#410900;}.cls-8{fill:#fdec8b;}.cls-10{fill:#00a559;}.cls-11{fill:#839b76;}.cls-12,.cls-13{fill:#6c3220;}.cls-14{fill:#3d190a;}.cls-15,.cls-22{fill:#c73f44;}.cls-17{fill:#0ea10b;}.cls-18{fill:#933639;}.cls-19{fill:#00a2d2;}.cls-20{fill:#26bb5a;}.cls-21{fill:#65a879;}.cls-23{fill:#f9df23;}.cls-24{fill:#fefefe;}.cls-25{fill:#600e03;}</style></defs><rect class="cls-1" x="20.81" y="23.07" width="7.31" height="17.81"/><polygon class="cls-2" points="25.19 9.67 26.3 14.73 28.13 23.1 24.46 23.1 20.79 23.1 22.63 14.73 23.73 9.67 25.19 9.67"/><rect class="cls-3" x="23.74" y="8.34" width="1.46" height="1.33"/><path class="cls-4" d="M24.47,5.4h0a1.61,1.61,0,0,0,.45.83,1.32,1.32,0,0,1,.3,2.11H23.71A1.32,1.32,0,0,1,24,6.23a1.69,1.69,0,0,0,.46-.83Zm0,0Z"/><path class="cls-4" d="M24.47,4.78a.34.34,0,0,1,0,.67.34.34,0,1,1,0-.67Z"/><rect class="cls-5" x="24.43" y="2.08" width="0.08" height="3.03"/><rect class="cls-5" x="24.1" y="2.37" width="0.74" height="0.08"/><polygon class="cls-4" points="24.09 3.69 24.84 3.1 24.84 3.18 24.09 3.77 24.09 3.69"/><polygon class="cls-6" points="24.11 22.89 25.15 22.89 25.15 20.43 24.65 19.56 24.11 20.43 24.11 22.89"/><polygon class="cls-6" points="26.48 22.89 27.2 22.89 27.2 20.43 26.86 19.56 26.48 20.43 26.48 22.89"/><polygon class="cls-6" points="21.89 22.89 22.63 22.89 22.63 20.43 22.27 19.56 21.89 20.43 21.89 22.89"/><rect class="cls-7" x="32.07" y="28.43" width="5.23" height="6.7"/><rect class="cls-8" x="31.96" y="28.14" width="5.46" height="0.29"/><rect class="cls-9" x="34.29" y="29.66" width="0.61" height="2.72"/><rect class="cls-9" x="36.39" y="29.66" width="0.3" height="2.72"/><rect class="cls-9" x="32.57" y="29.66" width="0.3" height="2.72"/><path class="cls-10" d="M34.75,19.85h0c.08,1.93.74,2.79,1.59,3.3a3.36,3.36,0,0,1,1.09,5.14H32.07a3.36,3.36,0,0,1,1.08-5.14c.86-.51,1.51-1.37,1.6-3.3Z"/><path class="cls-4" d="M34.68,19.88a.33.33,0,0,1,.34.33.34.34,0,0,1-.34.34.34.34,0,0,1-.34-.34.34.34,0,0,1,.34-.33Z"/><path class="cls-4" d="M30.38,26a.25.25,0,1,1-.26.24.25.25,0,0,1,.26-.24Z"/><rect class="cls-5" x="34.65" y="17.18" width="0.07" height="3.03"/><rect class="cls-5" x="30.36" y="24.03" width="0.06" height="2.21"/><rect class="cls-5" x="34.32" y="17.47" width="0.73" height="0.08"/><rect class="cls-5" x="30.09" y="24.25" width="0.58" height="0.06"/><polygon class="cls-4" points="34.32 18.79 35.05 18.2 35.05 18.28 34.32 18.87 34.32 18.79"/><polygon class="cls-4" points="30.09 25.21 30.68 24.78 30.68 24.84 30.09 25.27 30.09 25.21"/><rect class="cls-8" x="20.81" y="27.16" width="7.31" height="0.26"/><rect class="cls-8" x="20.81" y="33.76" width="7.31" height="0.27"/><path class="cls-6" d="M24,33.2h1.19V30.36l-.57-1-.62,1Zm2.72,0h.84V30.36l-.4-1-.44,1Zm-5.27,0h.84V30.36l-.4-1-.44,1Z"/><path class="cls-6" d="M24,40.18h1.19V36.56l-.57-1.26L24,36.56Zm2.72,0h.84V36.56l-.4-1.26-.44,1.26Zm-5.27,0h.84V36.56l-.4-1.26-.44,1.26Z"/><rect class="cls-11" x="5.72" y="41.43" width="33.39" height="6.16"/><rect class="cls-12" x="37.2" y="44.98" width="1.24" height="1.41"/><path class="cls-13" d="M36.5,45H35.26v1.41H36.5V45Z"/><path class="cls-13" d="M34.55,45H33.31v1.41h1.24V45Z"/><path class="cls-13" d="M32.61,45H31.37v1.41h1.24V45Z"/><path class="cls-13" d="M30.67,45H29.43v1.41h1.24V45Z"/><path class="cls-13" d="M28.73,45H27.49v1.41h1.24V45Z"/><path class="cls-13" d="M26.79,45H25.55v1.41h1.24V45Z"/><path class="cls-13" d="M24.85,45H23.61v1.41h1.24V45Z"/><path class="cls-13" d="M22.9,45H21.66v1.41H22.9V45Z"/><path class="cls-13" d="M21,45H19.73v1.41H21V45Z"/><path class="cls-13" d="M19,45H17.79v1.41H19V45Z"/><path class="cls-13" d="M17.08,45H15.84v1.41h1.24V45Z"/><path class="cls-13" d="M15.14,45H13.9v1.41h1.24V45Z"/><path class="cls-13" d="M13.2,45H12v1.41H13.2V45Z"/><path class="cls-13" d="M11.26,45H10v1.41h1.24V45Z"/><path class="cls-13" d="M9.32,45H8.08v1.41H9.32V45Z"/><rect class="cls-12" x="6.14" y="44.98" width="1.24" height="1.41"/><path class="cls-14" d="M9.3,44.52a.5.5,0,0,0,0-.17v-2a.62.62,0,0,0-.62-.62h0a.63.63,0,0,0-.63.62v2a.51.51,0,0,0,0,.17Zm1.94,0a.5.5,0,0,0,0-.17v-2a.62.62,0,0,0-.62-.62h0a.62.62,0,0,0-.62.62v2a.5.5,0,0,0,0,.17Zm1.94,0a1,1,0,0,0,0-.17v-2a.63.63,0,0,0-.63-.62h0a.62.62,0,0,0-.62.62v2a.5.5,0,0,0,0,.17Zm1.94,0a.51.51,0,0,0,0-.17v-2a.63.63,0,0,0-.63-.62h0a.63.63,0,0,0-.63.62v2a1,1,0,0,0,0,.17Zm2,0a1,1,0,0,0,0-.17v-2a.63.63,0,0,0-.63-.62h0a.62.62,0,0,0-.62.62v2a1,1,0,0,0,0,.17Zm1.94,0a1,1,0,0,0,0-.17v-2a.63.63,0,0,0-.63-.62h0a.62.62,0,0,0-.62.62v2a1,1,0,0,0,0,.17Zm1.93,0a.34.34,0,0,0,0-.17v-2a.62.62,0,0,0-.62-.62h0a.63.63,0,0,0-.63.62v2a.51.51,0,0,0,0,.17Zm1.95,0a1,1,0,0,0,0-.17v-2a.62.62,0,0,0-.62-.62h0a.63.63,0,0,0-.63.62v2a.51.51,0,0,0,0,.17Zm1.94,0a1,1,0,0,0,0-.17v-2a.63.63,0,0,0-.63-.62h0a.63.63,0,0,0-.63.62v2a1,1,0,0,0,0,.17Zm1.94,0a.51.51,0,0,0,0-.17v-2a.63.63,0,0,0-.63-.62h0a.63.63,0,0,0-.63.62v2a1,1,0,0,0,0,.17Zm1.94,0a.51.51,0,0,0,0-.17v-2a.63.63,0,0,0-.63-.62h0a.62.62,0,0,0-.62.62v2a1,1,0,0,0,0,.17Zm1.94,0a.51.51,0,0,0,0-.17v-2a.63.63,0,0,0-.63-.62h0a.62.62,0,0,0-.62.62v2a.5.5,0,0,0,0,.17Zm1.94,0a.51.51,0,0,0,0-.17v-2a.62.62,0,0,0-.62-.62h0a.63.63,0,0,0-.63.62v2a1,1,0,0,0,0,.17Zm1.95,0a1,1,0,0,0,0-.17v-2a.62.62,0,0,0-.62-.62h0a.63.63,0,0,0-.63.62v2a1,1,0,0,0,0,.17Zm1.94,0a1,1,0,0,0,0-.17v-2a.63.63,0,0,0-.63-.62h0a.63.63,0,0,0-.63.62v2a1,1,0,0,0,0,.17Zm1.94,0a.5.5,0,0,0,0-.17v-2a.62.62,0,0,0-.62-.62h0a.63.63,0,0,0-.63.62v2a1,1,0,0,0,0,.17Zm-31.06,0a1,1,0,0,0,0-.17v-2a.63.63,0,0,0-.63-.62h0a.62.62,0,0,0-.62.62v2a1,1,0,0,0,0,.17Z"/><rect class="cls-3" x="5.31" y="46.79" width="34.19" height="1.59"/><rect class="cls-15" x="31.81" y="34.45" width="6.29" height="6.42"/><rect class="cls-8" x="31.37" y="34.04" width="6.9" height="0.41"/><rect class="cls-9" x="35.67" y="36.49" width="0.53" height="1.95"/><polygon class="cls-2" points="36.94 36.2 37.36 38.53 37.78 40.86 36.94 40.86 36.09 40.86 36.51 38.53 36.94 36.2"/><polygon class="cls-2" points="34.54 36.2 35.18 38.53 35.83 40.86 34.54 40.86 33.25 40.86 33.9 38.53 34.54 36.2"/><rect class="cls-9" x="35.67" y="36.49" width="0.53" height="1.95"/><rect class="cls-9" x="37.58" y="36.49" width="0.42" height="1.95"/><rect class="cls-9" x="32.99" y="36.49" width="0.53" height="1.95"/><rect class="cls-7" x="27.44" y="37.61" width="5.81" height="3.26"/><path class="cls-16" d="M30.35,36.75a5.86,5.86,0,0,1,2.76.64H27.59a5.8,5.8,0,0,1,2.76-.64Z"/><rect class="cls-8" x="27.44" y="37.39" width="5.81" height="0.21"/><rect class="cls-7" x="28.33" y="32.21" width="4.11" height="4.88"/><path class="cls-6" d="M30.11,33.11h.48v2h-.48Zm-1.35,0H29v2h-.24Zm3,0H32v2h-.24Z"/><path class="cls-17" d="M30.43,26h0a2.53,2.53,0,0,0,1.25,2.4,2.34,2.34,0,0,1,.85,3.73H28.33a2.34,2.34,0,0,1,.85-3.73A2.55,2.55,0,0,0,30.43,26Z"/><rect class="cls-18" x="13.49" y="32.44" width="7.79" height="8.77"/><rect class="cls-7" x="6.63" y="35.09" width="7.17" height="6.11"/><rect class="cls-7" x="14.66" y="25.07" width="5.6" height="6.65"/><rect class="cls-1" x="7.68" y="28.53" width="5" height="5.94"/><path class="cls-6" d="M17.1,26.29h.65V29H17.1Zm2.24,0h.33V29h-.33Zm-4.09,0h.33V29h-.33Z"/><path class="cls-6" d="M9.82,29.62h.58V32H9.82Zm2,0h.29V32h-.29Zm-3.66,0h.29V32H8.16Z"/><path class="cls-16" d="M17.41,31.26a8,8,0,0,1,3.77.88H13.65a8,8,0,0,1,3.76-.88Z"/><path class="cls-16" d="M10.14,34.05a7.11,7.11,0,0,1,3.37.79H6.78a7.1,7.1,0,0,1,3.36-.79Z"/><rect class="cls-8" x="6.6" y="34.84" width="7.08" height="0.26"/><path class="cls-19" d="M17.46,16.43h0c.09,1.9.8,2.76,1.72,3.27a3.2,3.2,0,0,1,1.16,5.09H14.59a3.2,3.2,0,0,1,1.16-5.09c.91-.51,1.62-1.37,1.71-3.27Z"/><path class="cls-20" d="M10.18,20.83h0c.08,1.7.7,2.47,1.52,2.91a2.86,2.86,0,0,1,1,4.55H7.62a2.86,2.86,0,0,1,1-4.55,3.07,3.07,0,0,0,1.52-2.91Z"/><path class="cls-4" d="M17.47,16.6a.34.34,0,1,1-.36.34.35.35,0,0,1,.36-.34Z"/><path class="cls-4" d="M10.19,21a.3.3,0,1,1,0,.6.3.3,0,1,1,0-.6Z"/><rect class="cls-5" x="17.43" y="13.92" width="0.08" height="3.01"/><rect class="cls-5" x="10.15" y="18.57" width="0.07" height="2.69"/><rect class="cls-5" x="17.07" y="14.21" width="0.79" height="0.08"/><rect class="cls-5" x="9.84" y="18.83" width="0.71" height="0.07"/><polygon class="cls-4" points="17.07 15.52 17.86 14.94 17.86 15.01 17.07 15.61 17.07 15.52"/><polygon class="cls-4" points="9.84 20 10.54 19.48 10.54 19.55 9.84 20.07 9.84 20"/><rect class="cls-9" x="17.38" y="34.92" width="0.77" height="3.19"/><rect class="cls-9" x="20.02" y="34.92" width="0.39" height="3.19"/><rect class="cls-9" x="15.2" y="34.92" width="0.39" height="3.19"/><rect class="cls-8" x="7.58" y="28.27" width="5.22" height="0.26"/><rect class="cls-8" x="7.7" y="29.19" width="4.99" height="0.12"/><rect class="cls-8" x="14.54" y="24.79" width="5.85" height="0.28"/><path class="cls-21" d="M13.5,29.07h0a2,2,0,0,0,1,1.92,1.87,1.87,0,0,1,.68,3H11.82a1.87,1.87,0,0,1,.68-3,2.06,2.06,0,0,0,1-1.92Z"/><rect class="cls-15" x="11.86" y="34.06" width="3.29" height="3.89"/><path class="cls-6" d="M14.61,34.77h.18v1.58h-.18Zm-1.32,0h.38v1.58h-.38Zm-1.08,0h.19v1.58h-.19Z"/><rect class="cls-8" x="11.79" y="33.89" width="3.43" height="0.17"/><path class="cls-4" d="M13.51,29.08a.2.2,0,0,1,0,.4.2.2,0,1,1,0-.4Z"/><rect class="cls-5" x="13.48" y="27.52" width="0.05" height="1.77"/><rect class="cls-5" x="13.27" y="27.68" width="0.46" height="0.05"/><polygon class="cls-4" points="13.27 28.46 13.73 28.11 13.73 28.16 13.27 28.5 13.27 28.46"/><polygon class="cls-22" points="7.84 36.2 7.42 38.53 7 40.86 7.84 40.86 8.69 40.86 8.26 38.53 7.84 36.2"/><polygon class="cls-22" points="10.24 36.2 9.59 38.53 8.95 40.86 10.24 40.86 11.53 40.86 10.88 38.53 10.24 36.2"/><rect class="cls-9" x="8.58" y="36.49" width="0.53" height="1.95"/><rect class="cls-9" x="6.78" y="36.49" width="0.42" height="1.95"/><rect class="cls-9" x="11.25" y="36.49" width="0.53" height="1.95"/><path class="cls-16" d="M13.48,37.68a4.53,4.53,0,0,1,2.2.52H11.27a4.57,4.57,0,0,1,2.21-.52Z"/><rect class="cls-1" x="11.15" y="38.36" width="4.65" height="2.84"/><rect class="cls-3" x="5.72" y="40.87" width="33.39" height="0.56"/><rect class="cls-8" x="11.15" y="38.2" width="4.65" height="0.17"/><path class="cls-6" d="M32.16,24.92c1.1,1,1.64,1.74,1.48,3.19a10.58,10.58,0,0,0-1.48-3.19Zm1.05-1c1.42,1.27,2.1,2.23,1.9,4.09a13.49,13.49,0,0,0-1.9-4.09ZM34,22.7a4.76,4.76,0,0,1,3.19,5.44c-1.17-3.3-.85-2.73-3.19-5.44Z"/><path class="cls-23" d="M12,25.38a2.66,2.66,0,0,0-1.18,2.54A8.26,8.26,0,0,1,12,25.38Zm-.84-.79c-1.13,1-1.67,1.78-1.51,3.26a10.79,10.79,0,0,1,1.51-3.26Zm-.65-1A3.8,3.8,0,0,0,8,27.94c.93-2.62.68-2.17,2.54-4.33Z"/><path class="cls-24" d="M19.46,21.58a2.85,2.85,0,0,0-1.27,2.72,8.74,8.74,0,0,1,1.27-2.72Zm-.9-.84c-1.22,1.09-1.8,1.9-1.63,3.5a11.57,11.57,0,0,1,1.63-3.5Zm-.7-1a4.06,4.06,0,0,0-2.73,4.64c1-2.81.72-2.33,2.73-4.64Z"/><path class="cls-25" d="M12.39,32.11a1.61,1.61,0,0,1,.72,1.54,5.18,5.18,0,0,0-.72-1.54Zm.51-.48a2.06,2.06,0,0,1,.92,2,6.5,6.5,0,0,0-.92-2Zm.4-.59a2.3,2.3,0,0,1,1.54,2.63A5,5,0,0,0,13.3,31Z"/><path class="cls-23" d="M29.34,29a.36.36,0,1,1-.36.36.36.36,0,0,1,.36-.36Z"/><path class="cls-23" d="M31.44,29a.36.36,0,1,1-.36.36.36.36,0,0,1,.36-.36Z"/><path class="cls-23" d="M30.38,30.19a.36.36,0,0,1,.36.35.36.36,0,0,1-.72,0,.36.36,0,0,1,.36-.35Z"/><path class="cls-23" d="M31.79,30.79a.36.36,0,0,1,.36.36.36.36,0,1,1-.71,0,.36.36,0,0,1,.35-.36Z"/><path class="cls-23" d="M29,30.79a.36.36,0,0,1,.36.36.36.36,0,0,1-.72,0,.36.36,0,0,1,.36-.36Z"/></svg>