<svg id="Layer_1" data-name="Layer 1" xmlns="http://www.w3.org/2000/svg" viewBox="0 0 44.19 56.13"><defs><style>.cls-1{fill:#ac845e;}.cls-1,.cls-2{fill-rule:evenodd;}.cls-2,.cls-3{fill:#30302f;}.cls-4{fill:#4d4d4c;}</style></defs><path class="cls-1" d="M24.64,9.57h1.89l5.14,1.11s4.23-.08,5.22-.61l.27.24a4.8,4.8,0,0,1,1.75-1c.72-.11,1.7-.36,1.7-.36a.43.43,0,0,1-.25.64c.56-.12,1.12-.26,1.67-.39l0,.29h.39c0,.1,0,.2,0,.31l-.15.31-.57.16v.23a9.17,9.17,0,0,1-4.34.84l-.26.22s-.66,2.78-1.85,3.27l-4.83.64-2.82,1.07q.43,6.07.86,12.14l-.53.29c.06,1.41.12,2.81.19,4.22l-.62.35.6,8.69H17.7q.24-7.14.49-14.27l-.45-.86c0-1,.05-1.91.08-2.88l-.53-.55c0-.2,0-.41,0-.62l-.6,0c.14-2.07.27-4.13.41-6.2L14,15.72l-3.74.2a5.52,5.52,0,0,1-2.47-3.2l-1-.16a7.8,7.8,0,0,1-3.6-.39l-.5-.09c0-.07,0-.15,0-.23l-.18-.06c0-.11,0-.23,0-.34a3.16,3.16,0,0,0,.32,0,1.17,1.17,0,0,0,.06-.2l1.5-.11-.23-.44c.62,0,1.24,0,1.86.06,0,0,.82,0,1.09.53l.54.07a1.7,1.7,0,0,0,0-.22s1.91.68,5.82-.21a6,6,0,0,1,3-.64s.44-.47,2.86-.51c0,0,.68-.33,1.07,0,.18-1.9.13-4,.84-5.41a1.56,1.56,0,0,1,1.44-.55c1.21,0,1.54.89,1.62,2l.09,3.7.34.13Z"/><path class="cls-2" d="M7.88,12.6l.36-.08a11.36,11.36,0,0,0,2.29,2.53c.2.61,0,.66-.21.7A6.31,6.31,0,0,1,7.88,12.6Z"/><path class="cls-2" d="M14,11.37s3.41,3.14,4.91,3.06Z"/><path class="cls-2" d="M27.36,13v.43A6.82,6.82,0,0,0,30,11.24,7.5,7.5,0,0,1,27.36,13Z"/><path class="cls-2" d="M33,10.91a16.63,16.63,0,0,1-5.51,4.81c0-.15,0-.31,0-.45A21.31,21.31,0,0,0,33,10.91Z"/><path class="cls-2" d="M27.75,16S33,13.88,35,11.72c-1.74,2.32-4.44,3.42-7.13,4.52L27.75,16Z"/><path class="cls-2" d="M36.45,11.49a9.69,9.69,0,0,1-1.38,2.3c-.19.68-.14,1,.21.83a6.82,6.82,0,0,0,1.48-2.83l-.31-.3Z"/><polygon class="cls-2" points="26.47 12.19 27.46 28.47 27.07 28.18 26.47 12.19"/><polygon class="cls-2" points="24.64 9.57 25.49 27.81 25 27.44 24.64 9.57"/><path class="cls-2" d="M24.72,27.48l.58.45,1.42,0a1,1,0,0,1,.53.63.81.81,0,0,1,.58-.37c.16,0,.28,0,.36.23a.92.92,0,0,1-.32.61c-.15-.25-.38-.25-.67-.09-.5-1-1.2-.8-1.92-.08l-.56-1.34Z"/><path class="cls-2" d="M19.86,18.07a16.92,16.92,0,0,0,4.67,6.37l-1,.14c.12.84.24,1.68.35,2.51-1.75-2.91-3.44-5.83-4-9Z"/><path class="cls-2" d="M18.47,27.91l6.59,2.86c-1.26.25-5.47-2.17-6.59-2.86Z"/><polygon class="cls-2" points="18.38 28.1 18.09 42.25 18.27 42.25 18.38 28.1"/><polygon class="cls-2" points="18.95 28.2 18.67 42.25 18.99 42.25 18.95 28.2"/><polygon class="cls-2" points="19.51 28.52 19.28 42.03 19.57 41.89 19.51 28.52"/><polygon class="cls-2" points="20.13 28.88 19.88 41.87 20.25 41.87 20.13 28.88"/><polygon class="cls-2" points="20.86 29.26 20.82 41.85 21.15 41.64 20.86 29.26"/><polygon class="cls-2" points="21.43 29.56 21.71 41.74 21.99 42.01 22.18 41.6 22.05 29.64 21.43 29.56"/><polygon class="cls-2" points="22.68 30.14 23.02 42.06 23.51 41.52 23.17 30.17 22.68 30.14"/><polygon class="cls-2" points="23.6 30.36 23.98 41.34 24.1 41.59 24.3 41.26 23.94 30.46 23.6 30.36"/><polygon class="cls-2" points="24.34 30.67 24.79 41.36 24.87 41.68 25.12 41.4 24.61 30.77 24.34 30.67"/><polygon class="cls-2" points="25.18 31.12 25.7 41.56 25.96 41.72 25.65 31.33 25.18 31.12"/><polygon class="cls-2" points="26.06 31.55 26.57 41.85 26.91 42.01 26.53 31.88 26.06 31.55"/><polygon class="cls-2" points="26.91 32.17 27.5 41.58 27.75 41.91 26.91 32.17"/><path class="cls-2" d="M27.57,29.49l-.62.36-1.69.91a4.55,4.55,0,0,0,1.44.87c.28.45.55.92.82,1.38.07.22.2.16.35.07l-.4-.32a1.46,1.46,0,0,0-.24-1.11l-.53,0-.94-.82,1.81-1.32Z"/><path class="cls-2" d="M21,5.23a5.27,5.27,0,0,0,0,1.19l.12,1.17a2.58,2.58,0,0,0,.88.72A1.16,1.16,0,0,1,21.26,8a3.8,3.8,0,0,1-.09,1.4,1,1,0,0,1-.66.34c.22-.14.45-.27.48-.45a9.9,9.9,0,0,0-.11-2.7A5.27,5.27,0,0,1,21,5.23ZM23.83,5A3.07,3.07,0,0,1,24,6.33a6.83,6.83,0,0,1-.19,1.83,1.15,1.15,0,0,0,.37,1.4l-.81-.41a5.88,5.88,0,0,0,.25-1.73A5.56,5.56,0,0,0,23.83,5Z"/><polygon class="cls-2" points="21.51 8.27 22.34 8.63 23.19 8.02 22.46 9.53 22.07 9.31 20.74 10.53 22.12 9.02 21.51 8.27"/><path class="cls-2" d="M11.37,11.46c2,2,2.61,2.21,5.17,3.29a36.41,36.41,0,0,1-5.17-3.29Zm-2.25.6a50.43,50.43,0,0,0,7.65,4.23L16,15.55l.9.06a64.11,64.11,0,0,1-7.79-3.55Z"/><path class="cls-2" d="M19.48,13.59a11,11,0,0,0,4.46-1.38A3.81,3.81,0,0,1,22,13.63c.63.41,1.31.08,2,0a3.69,3.69,0,0,1-1.8.65,4.52,4.52,0,0,1-2.73-.67Zm-1.69-2c1.14.52,2.85,1.62,4.05,1.07a4.13,4.13,0,0,1-2-.52L18.1,10.21l1.18,1.73-1.49-.39Zm2.84,3.33,3.29,1.79c-1.67-.58-2.11-.47-3.29-1.79ZM24,9.69a4.42,4.42,0,0,1-.4,1.74l-.28,0A5.94,5.94,0,0,0,24,9.69Z"/><rect class="cls-3" x="16.68" y="42.26" width="12.22" height="1.36"/><rect class="cls-3" x="16.68" y="43.61" width="12.22" height="8.5"/><rect class="cls-4" x="28.9" y="43.61" width="1.79" height="8.5"/><rect class="cls-4" x="14.88" y="43.61" width="1.79" height="8.5"/></svg>