<svg id="Layer_1" data-name="Layer 1" xmlns="http://www.w3.org/2000/svg" viewBox="0 0 61.52 39.28"><defs><style>.cls-1{fill:#131414;}.cls-1,.cls-2,.cls-3,.cls-4{fill-rule:evenodd;}.cls-2{fill:#be873b;}.cls-3{fill:#d4a86a;}.cls-4{fill:#e5af54;}</style></defs><path class="cls-1" d="M22.55,6.36c.51.71,1,1.42,1.57,2.14l.3,2.13.95.1c-.23.4-.47.8-.71,1.2l-2.51.43c.14-2.06.27-4,.4-6Z"/><path class="cls-1" d="M25.31,12.07l.93.5-.42,1.14.68.11c-.06.33-.14.65-.2,1l1,.09c-.27.64-.54,1.29-.82,1.93l2.27-.42c.22.6.45,1.2.69,1.81-1.42.23-2.83.44-4.25.65L22.86,18q1.25-3,2.45-5.89Z"/><path class="cls-2" d="M8.56,18.37c.54-1.64,1.06-3.25,1.58-4.83a19,19,0,0,1,5.59-4.63,28.58,28.58,0,0,1,6.8-2.68c.22,2.11.65,3.7.87,5.91a42.23,42.23,0,0,0-7.9,2.4,46.52,46.52,0,0,0-6.94,3.83Z"/><path class="cls-3" d="M7.16,23.66q.71-2.7,1.4-5.29a35.42,35.42,0,0,1,8.2-4.47,38.48,38.48,0,0,1,8.69-2.09c0,1-.07,2.23-.11,3.45s-.07,2.51-.11,3.6c-3,.63-6.06,1.24-9.06,2a75.8,75.8,0,0,0-9,2.81Z"/><path class="cls-4" d="M6.21,29.21q.48-2.84,1-5.55a89.54,89.54,0,0,1,27.66-5.85c8.58-.3,15.53,1.2,17.62,4.85.53,2.13,1.08,4.31,1.64,6.56A205.84,205.84,0,0,0,28.8,27.76,183.6,183.6,0,0,0,6.21,29.21Z"/><path class="cls-2" d="M5.67,33.26a158.26,158.26,0,0,0,23.48,1.8,229.33,229.33,0,0,0,25.54-1.41c-.23-1.68-.45-3.32-.68-4.94A150.59,150.59,0,0,0,29.1,27.09,213.21,213.21,0,0,0,6.28,28.76c-.2,1.48-.4,3-.61,4.5Z"/><path class="cls-1" d="M26.55,20.13h0A1.77,1.77,0,0,1,28.37,22c0,1.27,0,2.57-.05,3.89l-3.81.06c0-1.31.1-2.6.14-3.86a2,2,0,0,1,1.9-1.91Z"/><path class="cls-1" d="M8,25.23H8c.31,0,.51.25.46.65s-.13,1-.2,1.49l-1.12.15c.07-.5.13-1,.21-1.49a.91.91,0,0,1,.65-.8Z"/><path class="cls-1" d="M9.91,24.06h0c.45-.07.74.35.68.93s-.17,1.44-.26,2.16l-1.64.23c.09-.72.18-1.45.27-2.16a1.31,1.31,0,0,1,.95-1.16Z"/><path class="cls-1" d="M12.73,17.76h0c.36-.13.58.12.51.55s-.19,1.07-.29,1.6l-1.33.47.3-1.61a1.43,1.43,0,0,1,.81-1Z"/><path class="cls-1" d="M12.72,22.94h0c.57-.07,1,.44.9,1.17s-.18,1.78-.27,2.69l-2.13.29c.1-.91.2-1.81.31-2.69a1.65,1.65,0,0,1,1.19-1.46Z"/><path class="cls-1" d="M15.77,22.63h0a.83.83,0,0,1,.92,1l-.18,2.32-2.12.26c.08-.78.16-1.55.23-2.31a1.41,1.41,0,0,1,1.15-1.26Z"/><path class="cls-1" d="M18.61,22h0c.58-.07,1,.41,1,1.08s-.11,1.65-.17,2.49l-2.13.26c.07-.83.14-1.67.21-2.49A1.45,1.45,0,0,1,18.61,22Z"/><path class="cls-1" d="M22.34,21.25h0a1.24,1.24,0,0,1,1.38,1.34c0,1-.08,2-.13,3.05l-3,.27c.06-1,.12-2.05.19-3.05a1.76,1.76,0,0,1,1.53-1.61Z"/><path class="cls-1" d="M49.89,24.29h0a.48.48,0,0,0-.47.61c0,.45.1.9.16,1.35l1.1.14c-.06-.45-.11-.91-.17-1.36a.83.83,0,0,0-.62-.74Z"/><path class="cls-1" d="M43.27,22.84h0c-.47,0-.82.44-.78,1.05.06.88.13,1.76.19,2.66l1.76.12c-.07-.9-.14-1.79-.22-2.67a1.2,1.2,0,0,0-.95-1.16Z"/><path class="cls-1" d="M40.6,22.2h0a.87.87,0,0,0-.94,1c0,.7.08,1.42.12,2.14l2,.18c0-.72-.09-1.44-.14-2.15A1.26,1.26,0,0,0,40.6,22.2Z"/><path class="cls-1" d="M35.18,20.49h0a1.16,1.16,0,0,0-1.06,1.24c0,.83,0,1.67.07,2.52l2.22,0c0-.85-.06-1.7-.09-2.53a1.16,1.16,0,0,0-1.14-1.19Z"/><path class="cls-1" d="M26.06,28.63h0a1.78,1.78,0,0,0-1.56,1.83c0,1.23-.09,2.48-.13,3.75h3.1c0-1.27,0-2.53.06-3.77a1.62,1.62,0,0,0-1.47-1.8Z"/><path class="cls-1" d="M21.28,28.6h0a1.83,1.83,0,0,0-1.59,1.81c-.07,1.22-.15,2.46-.23,3.72h3c.07-1.27.11-2.51.17-3.74a1.55,1.55,0,0,0-1.39-1.78Z"/><path class="cls-1" d="M17.25,28.37h0c-.72,0-1.38.81-1.46,1.79-.11,1.21-.21,2.43-.32,3.68H18.2c.08-1.25.18-2.49.26-3.7.06-1-.47-1.77-1.21-1.76Z"/><path class="cls-1" d="M14.06,29h0a1.5,1.5,0,0,0-1.22,1.46c-.11,1-.21,2-.31,3h2.2q.13-1.51.27-3c.07-.8-.35-1.46-.94-1.44Z"/><path class="cls-1" d="M11.31,29.41h0c-.46,0-.88.45-1,1.06-.1.92-.22,1.83-.32,2.75l1.68.13c.09-.93.19-1.85.29-2.76.07-.62-.24-1.16-.69-1.18Z"/><path class="cls-1" d="M31.65,20.8h0a1.33,1.33,0,0,0-1.29,1.33V24.8L33,24.74c0-.9,0-1.79,0-2.68a1.27,1.27,0,0,0-1.31-1.26Z"/><path class="cls-1" d="M47.67,24h0c-.3,0-.51.24-.48.61s.09.9.14,1.35l1.09.1-.15-1.35a.76.76,0,0,0-.6-.71Z"/><path class="cls-1" d="M45.66,23.67h0c-.33,0-.57.27-.53.68s.17,2,.22,2.56l1.24.14c-.06-.52-.2-2.06-.25-2.57a.88.88,0,0,0-.68-.81Z"/><path class="cls-1" d="M9.2,29.68h0c-.37,0-.73.36-.8.88-.09.75-.19,1.51-.29,2.28L9.5,33l.27-2.29a.83.83,0,0,0-.57-1Z"/><path class="cls-1" d="M7.52,30.28h0c-.28,0-.56.27-.61.67l-.24,1.74,1,.09c.08-.58.15-1.17.24-1.74,0-.4-.14-.74-.43-.76Z"/><path class="cls-1" d="M30.77,28.57h0a1.73,1.73,0,0,0-1.53,1.84c0,1.25,0,2.51,0,3.79h3.16c0-1.29,0-2.55,0-3.81a1.69,1.69,0,0,0-1.55-1.81Z"/><path class="cls-1" d="M35.3,28.74h0a1.62,1.62,0,0,0-1.45,1.78c0,1.21,0,2.43.07,3.67H37c0-1.24-.09-2.47-.14-3.69a1.71,1.71,0,0,0-1.57-1.75Z"/><path class="cls-1" d="M39.58,28.91h0a1.46,1.46,0,0,0-1.32,1.65c.05,1.12.1,2.25.16,3.39h2.87c-.07-1.15-.15-2.28-.21-3.41a1.64,1.64,0,0,0-1.5-1.62Z"/><path class="cls-1" d="M43.65,29.19h0a1.23,1.23,0,0,0-1.11,1.43c.07,1,.13,1.92.21,2.91h2.47c-.08-1-.17-2-.25-2.92a1.45,1.45,0,0,0-1.32-1.41Z"/><path class="cls-1" d="M46.65,29.29h0a1.06,1.06,0,0,0-1,1.25c.07.85.15,1.7.23,2.55H48.1c-.09-.86-.17-1.71-.26-2.55a1.29,1.29,0,0,0-1.19-1.24Z"/><path class="cls-1" d="M49.4,29.41h0c-.34,0-.59.36-.54.81s.24,2.18.29,2.74h1.29c-.07-.56-.26-2.21-.32-2.75a.84.84,0,0,0-.72-.8Z"/><path class="cls-1" d="M51.5,29.72h0c-.3,0-.51.32-.46.7s.22,1.92.28,2.41h1.12c-.06-.49-.23-1.93-.3-2.4a.73.73,0,0,0-.64-.7Z"/><path class="cls-1" d="M53.13,29.8h0c-.27,0-.45.28-.41.62s.21,1.67.27,2.09h1c0-.42-.23-1.68-.28-2.09s-.29-.62-.56-.61Z"/><path class="cls-1" d="M42.69,20.26h0c-.29,0-.5.26-.47.6l.09,1.27,1,0c0-.43-.07-.85-.1-1.28a.64.64,0,0,0-.56-.63Z"/><path class="cls-1" d="M20.13,14.53h0A1.53,1.53,0,0,0,19,15.85c-.05.76-.11,1.51-.16,2.27l2-.45c0-.77.09-1.51.14-2.26a.76.76,0,0,0-.93-.88Z"/><path class="cls-1" d="M23.26,13.84h0a1.42,1.42,0,0,0-1.1,1.29q-.06,1.15-.12,2.34l2.11-.32c0-.78.06-1.55.1-2.33a.88.88,0,0,0-1-1Z"/><path class="cls-1" d="M17.41,16h0A1.27,1.27,0,0,0,16.53,17c-.05.61-.11,1.22-.16,1.84L18,18.52c0-.62.1-1.23.14-1.84s-.29-.81-.74-.71Z"/><path class="cls-1" d="M14.91,16.63h0A1.46,1.46,0,0,0,14,17.76c-.08.61-.17,1.22-.25,1.84l1.66-.47.24-1.84c.06-.5-.25-.79-.7-.66Z"/><path class="cls-1" d="M10.74,19h0c.3-.11.48.09.41.44l-.27,1.28-1.09.4c.1-.43.19-.86.28-1.29a1.19,1.19,0,0,1,.67-.83Z"/><path class="cls-1" d="M9,20H9c.26-.09.42.08.35.39L9.06,21.5l-1,.34c.09-.39.17-.77.26-1.15A1.07,1.07,0,0,1,9,20Z"/><path class="cls-1" d="M40.18,18.93h0a.43.43,0,0,0-.37.5c0,.32,0,.65.06,1l.79,0c0-.33,0-.65,0-1a.49.49,0,0,0-.43-.47Z"/><path class="cls-1" d="M44.6,19h0c-.19,0-.34.14-.32.37s0,.57.07.85l.72.09c0-.28,0-.57-.08-.85A.49.49,0,0,0,44.6,19Z"/><path class="cls-1" d="M48.24,20.69h0c-.14,0-.24.11-.22.27l.06.62.52.06c0-.2-.05-.41-.07-.61a.39.39,0,0,0-.29-.34Z"/><path class="cls-1" d="M17.75,10.24h0a.61.61,0,0,0-.38.52c0,.28-.05.56-.08.83l.71-.21c0-.29,0-.56.07-.84s-.12-.36-.32-.3Z"/><path class="cls-1" d="M13.58,12.31h0a.85.85,0,0,0-.34.51c0,.23,0,.46-.07.68l.59-.37c0-.22.05-.45.07-.67s-.09-.25-.25-.15Z"/><path class="cls-1" d="M11.05,14.31h0a.65.65,0,0,0-.27.42c0,.19,0,.37-.07.55l.47-.29c0-.19.05-.37.07-.55s-.08-.2-.2-.13Z"/></svg>