<svg id="Layer_1" data-name="Layer 1" xmlns="http://www.w3.org/2000/svg" viewBox="0 0 54.05 41.03"><defs><style>.cls-1{fill:#d4a86a;}.cls-1,.cls-2,.cls-3,.cls-4{fill-rule:evenodd;}.cls-2{fill:#131414;}.cls-3{fill:#1a0601;}.cls-4{fill:#917050;}</style></defs><path class="cls-1" d="M39.1,10.35c3.33-.77,8-2,9,2.39-.21.52-.42,1-.62,1.56a12.8,12.8,0,0,0,5.92,6.46l-2.67,2.16c.22.54.42,1.09.63,1.63-1.13,2.09-.4,3.91.25,5.73l-1.5-.06-1.29,2.51c-.15,1.7,1.38,4.39,2.07,6.18H37.62c-.21-2.49-1-6.4,2.57-8a2,2,0,0,0,.06-1.81c.24-.46.47-.93.69-1.38Q40,19,39.1,10.35Z"/><path class="cls-2" d="M50.09,30.29l-1.25,2.44a8.14,8.14,0,0,0,.86,3.39c-1.45.54-3.22-2-3.22-2l-6.21-3.38a1.84,1.84,0,0,0,0-1.62c.24-.46.47-.93.69-1.38l-.75-7.07,2.37,3.1-1.07.06c2.25,7.07,7.35,6.71,8.6,6.51Z"/><path class="cls-2" d="M53.29,20.68l.13.08-2.67,2.16.48,1.24a3,3,0,0,0-1.44-1.11,3.46,3.46,0,0,1-1.73-.41,4.27,4.27,0,0,0-.36-1.84l.81,1a8.83,8.83,0,0,1,4.78-1.13Z"/><path class="cls-2" d="M51.35,24.61a4.56,4.56,0,0,0-.44,1.17,5.45,5.45,0,0,0-2.37-1.23Z"/><path class="cls-2" d="M42.21,14.6c1.12-1.32,2.93-2.65,4.8-2a4.36,4.36,0,0,0-1.92,2c1.26,1.29,2.08,2.43,2,3.67A5.64,5.64,0,0,0,44.82,15a2.36,2.36,0,0,1-2.61-.38Z"/><path class="cls-1" d="M10.06,11.16c1.67-.33,3.55-.75,4.95-.27,2,1,1.29.88,1.23,3.19,1.29,1.44,2.52,2.91,3.67,4.42a1.25,1.25,0,0,1-.46,1.61c.76,1.46,1,1.79.56,3,.07,1.41.06,2.82,0,4.23-.17.15-.38.21-.76,0A9.73,9.73,0,0,0,17,29.91c0,.35.07.7.1,1.05q1.07,2.82,2.11,5.63c0,.77,0,1.55.05,2.32H5.78L7.7,28.25c.67-.74,1.33-1.48,2-2.21.11-1.69.2-3.39.31-5.08L9,20.51a21.47,21.47,0,0,0,0-5.83l-.3-.86a4.42,4.42,0,0,1,1.41-2.66Z"/><path class="cls-3" d="M20.06,27.18v.17c-.17.15-.38.21-.76,0A9.73,9.73,0,0,0,17,29.91l0,.3-1.88-.35-5.17-3L8.8,27h0l.9-1,.11-1.82,6.29,2.22,1.58-.05.81-.85.22,1.05Z"/><path class="cls-3" d="M20,19.36a1.24,1.24,0,0,1-.3.5l-1.68.7.79-.69-.09-.79.55.57Z"/><path class="cls-3" d="M20.13,22.77a2.91,2.91,0,0,1-.12.35v.1L18.82,22Z"/><path class="cls-3" d="M15,12.66c-1.84.39-4.29,2.45-2.22,2.62a1.58,1.58,0,0,0,1.2-.52,7,7,0,0,1,2.49,2.53c-1.33-2.68-3.09-2.65-1.47-4.63Z"/><polygon class="cls-3" points="16.32 12.97 16.24 14.08 15.65 13.21 16.32 12.97"/><polygon class="cls-3" points="33.2 6.43 32.1 8.22 30.46 6.82 33.04 6.45 33.2 6.43"/><path class="cls-4" d="M21.83,3.68l9.46-.59c.64,1.11,1.27,2.22,1.9,3.34-1,.15-1.4.76-1.09,1.79a16.75,16.75,0,0,0,4.21,6.68c.93,1.58.6,2.7-1.61,3.11,0,.58.93.88.95,1.46-.52,1.44-.09,5.14.29,7.56-.67-.17-1.36-.35-2-.51-.36,1-.73,1.95-1.1,2.93q1.44,4.73,2.86,9.46H20.85c-.13-2.88-.25-5.77-.37-8.65L23,24.46a48.45,48.45,0,0,0-1.54-15.1c-.47-2-1-4.12.4-5.68Z"/><path class="cls-3" d="M36.11,17.51a3.77,3.77,0,0,1-1.41.5.61.61,0,0,0,.06.24h0A11,11,0,0,0,30.63,16a7.12,7.12,0,0,1,3,.48,2.25,2.25,0,0,1,1.91-1l-.62.78a2.32,2.32,0,0,1,1.23,1.18Z"/><path class="cls-3" d="M35.85,26.43q.06.32.09.6c-.67-.17-1.36-.35-2-.51-.36,1-.73,1.95-1.1,2.93l.24.77-1.64.55c-.79-1.39-2.27-2.1-4.73-1.83a11.19,11.19,0,0,0-4.39-2.85l.7-1.63A42,42,0,0,0,22.81,17l.11-1.08c.59,1.51,1.08,3.73,3.16,3.45.13-1.72-.9-5.13-1.87-8.44,1.55,2.81,3.34,5.69,3.37,8-1.08,5.51-2.22,4.91,2.79,6.31l3.37.84L35,25.86Z"/><polygon class="cls-3" points="30.29 5.55 26.75 7.11 25.62 7.07 24.03 8.68 27.12 9.88 28.87 9.62 31.65 13.45 29.28 8.28 30.55 6.45 30.29 5.55"/></svg>