<svg id="Layer_1" data-name="Layer 1" xmlns="http://www.w3.org/2000/svg" viewBox="0 0 42.4 52.56"><defs><style>.cls-1{fill:#be873b;}.cls-1,.cls-10,.cls-12,.cls-13,.cls-4,.cls-5,.cls-7{fill-rule:evenodd;}.cls-2,.cls-4{fill:#e5af54;}.cls-10,.cls-3{fill:#8d461f;}.cls-5,.cls-6{fill:#3d190a;}.cls-7,.cls-8{fill:#6b3423;}.cls-9{fill:#c46a36;}.cls-11{fill:#1a0601;}.cls-12{fill:#6c3220;}.cls-13,.cls-14{fill:#d4a86a;}</style></defs><polygon class="cls-1" points="8.42 20.7 7.74 20.7 7.74 11.05 8.42 9.39 8.42 20.7"/><polygon class="cls-1" points="18.2 20.7 18.94 20.7 18.94 11.05 18.2 9.39 18.2 20.7"/><polygon class="cls-1" points="36.22 20.7 36.96 20.7 36.96 11.05 36.22 9.39 36.22 20.7"/><polygon class="cls-1" points="26.61 20.7 25.76 20.7 25.76 11.05 26.61 9.39 26.61 20.7"/><rect class="cls-2" x="9.08" y="25.97" width="26.75" height="10.48"/><polygon class="cls-1" points="34.39 6.96 34.4 5.76 35.02 4.66 35.56 5.74 35.56 6.82 34.39 6.82 34.39 6.96"/><polygon class="cls-1" points="10.31 6.96 10.3 5.76 9.68 4.66 9.14 5.74 9.14 6.82 10.31 6.82 10.31 6.96"/><rect class="cls-3" x="7.82" y="39.37" width="1.7" height="10.68"/><rect class="cls-3" x="16.96" y="39.37" width="1.7" height="10.68"/><rect class="cls-3" x="26.1" y="39.37" width="1.7" height="10.68"/><polygon class="cls-4" points="16.96 39.37 9.52 39.37 9.52 50.05 11.32 49.19 15.22 49.19 16.96 50.05 16.96 39.37"/><polygon class="cls-4" points="26.1 39.37 18.67 39.37 18.67 50.05 20.46 49.19 24.36 49.19 26.1 50.05 26.1 39.37"/><polygon class="cls-4" points="35.24 39.37 27.81 39.37 27.81 50.05 29.6 49.19 33.5 49.19 35.24 50.05 35.24 39.37"/><path class="cls-5" d="M11.8,46.2h1v3h-1Zm1.89,0h1v3h-1Z"/><rect class="cls-6" x="22.83" y="45.68" width="1" height="3.5"/><rect class="cls-6" x="20.94" y="45.68" width="1" height="3.5"/><path class="cls-5" d="M30.08,46.2h1v3h-1Zm1.9,0h1v3H32Z"/><polygon class="cls-7" points="9.52 43.62 13.22 39.66 16.96 43.35 16.96 43.79 13.22 40.2 9.52 44.07 9.52 43.62"/><path class="cls-7" d="M27.81,43.62l3.69-4,3.75,3.69v.44L31.5,40.2l-3.69,3.87ZM28,45.68a13,13,0,0,1,1.33-2.81,7.59,7.59,0,0,1,2.19-2.26l0,0,.05,0a7.68,7.68,0,0,1,2.18,2.26,13,13,0,0,1,1.33,2.81l-.13,0a13.89,13.89,0,0,0-1.31-2.78,7.63,7.63,0,0,0-2.12-2.2,7.77,7.77,0,0,0-2.12,2.2,13.89,13.89,0,0,0-1.31,2.78Zm0,.49a13.17,13.17,0,0,1,1.33-2.81,7.59,7.59,0,0,1,2.19-2.26l0,0,.05,0a7.68,7.68,0,0,1,2.18,2.26,13.17,13.17,0,0,1,1.33,2.81l-.13,0a13.64,13.64,0,0,0-1.31-2.78,7.63,7.63,0,0,0-2.12-2.2,7.77,7.77,0,0,0-2.12,2.2,13.64,13.64,0,0,0-1.31,2.78Zm0,.51a13.17,13.17,0,0,1,1.33-2.81,7.68,7.68,0,0,1,2.19-2.25l0,0,.05,0a7.64,7.64,0,0,1,2.18,2.25,13.17,13.17,0,0,1,1.33,2.81l-.13,0a13.72,13.72,0,0,0-1.31-2.79,7.6,7.6,0,0,0-2.12-2.19,7.73,7.73,0,0,0-2.12,2.19,13.72,13.72,0,0,0-1.31,2.79Zm0,.52a13.4,13.4,0,0,1,1.33-2.81,7.83,7.83,0,0,1,2.19-2.26l0,0,.05,0a7.92,7.92,0,0,1,2.18,2.26,13.4,13.4,0,0,1,1.33,2.81l-.13,0a14,14,0,0,0-1.31-2.79,7.6,7.6,0,0,0-2.12-2.19,7.73,7.73,0,0,0-2.12,2.19,14,14,0,0,0-1.31,2.79Z"/><path class="cls-8" d="M9.7,45.68A13.43,13.43,0,0,1,11,42.87a7.62,7.62,0,0,1,2.2-2.26l0,0,0,0a7.59,7.59,0,0,1,2.19,2.26,13,13,0,0,1,1.33,2.81l-.13,0a13.4,13.4,0,0,0-1.32-2.78,7.6,7.6,0,0,0-2.11-2.2,7.77,7.77,0,0,0-2.12,2.2,13.36,13.36,0,0,0-1.31,2.78Zm0,.49A13.67,13.67,0,0,1,11,43.36a7.62,7.62,0,0,1,2.2-2.26l0,0,0,0a7.59,7.59,0,0,1,2.19,2.26,13.17,13.17,0,0,1,1.33,2.81l-.13,0a13.16,13.16,0,0,0-1.32-2.78,7.6,7.6,0,0,0-2.11-2.2,7.77,7.77,0,0,0-2.12,2.2,13.13,13.13,0,0,0-1.31,2.78Zm0,.51A13.67,13.67,0,0,1,11,43.87a7.71,7.71,0,0,1,2.2-2.25l0,0,0,0a7.56,7.56,0,0,1,2.19,2.25,13.17,13.17,0,0,1,1.33,2.81l-.13,0a13.24,13.24,0,0,0-1.32-2.79,7.56,7.56,0,0,0-2.11-2.19,7.73,7.73,0,0,0-2.12,2.19,13.21,13.21,0,0,0-1.31,2.79Zm0,.52A13.92,13.92,0,0,1,11,44.39a7.87,7.87,0,0,1,2.2-2.26l0,0,0,0a7.83,7.83,0,0,1,2.19,2.26,13.4,13.4,0,0,1,1.33,2.81l-.13,0a13.48,13.48,0,0,0-1.32-2.79,7.56,7.56,0,0,0-2.11-2.19,7.73,7.73,0,0,0-2.12,2.19,13.45,13.45,0,0,0-1.31,2.79Z"/><rect class="cls-3" x="35.22" y="39.37" width="1.7" height="10.68"/><path class="cls-8" d="M18.69,42.29A6.15,6.15,0,0,1,20.1,40.4a5.09,5.09,0,0,1,2.25-1.13h0a5.09,5.09,0,0,1,2.25,1.13A6.35,6.35,0,0,1,26,42.29l-.21.1a6,6,0,0,0-1.36-1.83,5,5,0,0,0-2.1-1.07,5,5,0,0,0-2.11,1.07,6,6,0,0,0-1.36,1.83ZM22.36,40a3.4,3.4,0,0,1,2,1.09,9.83,9.83,0,0,1,1.41,2.11l.2-.09a9.68,9.68,0,0,0-1.44-2.16,3.55,3.55,0,0,0-2.12-1.16h-.05a3.57,3.57,0,0,0-2.12,1.16,10,10,0,0,0-1.44,2.16l.2.09a9.83,9.83,0,0,1,1.41-2.11,3.39,3.39,0,0,1,2-1.09Zm0,.59a3.19,3.19,0,0,1,2,1.52,15.36,15.36,0,0,1,1.34,2.85l.2-.07A15.25,15.25,0,0,0,24.59,42a3.44,3.44,0,0,0-2.22-1.63h0A3.42,3.42,0,0,0,20.12,42a14.68,14.68,0,0,0-1.36,2.9l.22.07a14.17,14.17,0,0,1,1.33-2.85,3.19,3.19,0,0,1,2.05-1.52Zm0,.47c1.67.63,2.36,2.52,3.05,4.42l.2.56.22-.08c-.06-.15-.13-.35-.2-.55-.72-2-1.44-3.94-3.25-4.57h0c-1.82.63-2.54,2.6-3.25,4.57-.08.2-.15.4-.2.55l.21.08.2-.56c.69-1.9,1.38-3.79,3.06-4.42Z"/><rect class="cls-9" x="7.81" y="36.45" width="29.13" height="2.92"/><path class="cls-5" d="M10,36.75h0a.41.41,0,0,1,.42.41V39H9.61V37.16a.41.41,0,0,1,.41-.41Zm1.09,0h0a.41.41,0,0,1,.42.41V39H10.7V37.16a.41.41,0,0,1,.41-.41Zm1.09,0h0a.41.41,0,0,1,.41.41V39h-.82V37.16a.41.41,0,0,1,.41-.41Zm1.09,0h0a.41.41,0,0,1,.41.41V39h-.82V37.16a.41.41,0,0,1,.41-.41Zm1.09,0h0a.41.41,0,0,1,.41.41V39H14V37.16a.41.41,0,0,1,.42-.41Zm1.09,0h0a.41.41,0,0,1,.41.41V39h-.83V37.16a.41.41,0,0,1,.42-.41Zm1.08,0h0a.41.41,0,0,1,.42.41V39h-.83V37.16a.41.41,0,0,1,.41-.41Zm1.09,0h0a.41.41,0,0,1,.42.41V39h-.83V37.16a.41.41,0,0,1,.41-.41Zm1.09,0h0a.41.41,0,0,1,.41.41V39h-.82V37.16a.41.41,0,0,1,.41-.41Zm1.09,0h0a.41.41,0,0,1,.41.41V39h-.82V37.16a.41.41,0,0,1,.41-.41Zm1.09,0h0a.41.41,0,0,1,.41.41V39h-.83V37.16a.41.41,0,0,1,.42-.41Zm1.09,0h0a.41.41,0,0,1,.41.41V39h-.83V37.16a.41.41,0,0,1,.42-.41Zm1.08,0h0a.41.41,0,0,1,.42.41V39h-.83V37.16a.41.41,0,0,1,.41-.41Zm1.09,0h0a.41.41,0,0,1,.42.41V39h-.83V37.16a.41.41,0,0,1,.41-.41Zm1.09,0h0a.41.41,0,0,1,.41.41V39h-.83V37.16a.41.41,0,0,1,.42-.41Zm1.09,0h0a.41.41,0,0,1,.41.41V39h-.82V37.16a.41.41,0,0,1,.41-.41Zm1.09,0h0a.41.41,0,0,1,.41.41V39H27V37.16a.41.41,0,0,1,.42-.41Zm1.09,0h0a.41.41,0,0,1,.41.41V39h-.83V37.16a.41.41,0,0,1,.42-.41Zm1.08,0h0a.41.41,0,0,1,.42.41V39H29.2V37.16a.41.41,0,0,1,.41-.41Zm1.09,0h0a.41.41,0,0,1,.42.41V39h-.83V37.16a.41.41,0,0,1,.41-.41Zm1.09,0h0a.41.41,0,0,1,.42.41V39h-.84V37.16a.41.41,0,0,1,.42-.41Zm1.09,0h0a.41.41,0,0,1,.41.41V39h-.83V37.16a.41.41,0,0,1,.42-.41Zm1.08,0h0a.41.41,0,0,1,.42.41V39h-.82V37.16a.4.4,0,0,1,.4-.41Zm1.09,0h0a.41.41,0,0,1,.42.41V39h-.83V37.16a.41.41,0,0,1,.41-.41Zm1.1,0h0a.4.4,0,0,1,.4.41V39h-.82V37.16a.41.41,0,0,1,.42-.41Zm-27.21,0h0a.41.41,0,0,1,.41.41V39H8.52V37.16a.41.41,0,0,1,.42-.41Z"/><path class="cls-5" d="M11.78,31.64h0a.65.65,0,0,1,.65.64v2.8H11.14v-2.8a.64.64,0,0,1,.64-.64Zm2.9,0h0a.65.65,0,0,1,.65.64v2.8H14v-2.8a.64.64,0,0,1,.64-.64Zm-5-.23a5,5,0,0,1,1.19-2,5.72,5.72,0,0,1,2.23-1.37l.05,0,0,0a6.37,6.37,0,0,1,2.08,1.34,6.27,6.27,0,0,1,1.36,2l-.2.09a5.92,5.92,0,0,0-3.28-3.21A5.5,5.5,0,0,0,11,29.58a4.74,4.74,0,0,0-1.14,1.9Zm3.47-2.5A1.1,1.1,0,1,1,12.05,30a1.09,1.09,0,0,1,1.1-1.09Zm0,.18a.91.91,0,1,1-.91.91.9.9,0,0,1,.91-.91Z"/><path class="cls-5" d="M30.27,31.64h0a.65.65,0,0,1,.65.64v2.8H29.63v-2.8a.64.64,0,0,1,.64-.64Zm2.9,0h0a.65.65,0,0,1,.65.64v2.8H32.53v-2.8a.64.64,0,0,1,.64-.64Zm-5-.23a5,5,0,0,1,1.19-2,5.72,5.72,0,0,1,2.23-1.37l0,0,0,0a6.32,6.32,0,0,1,2.07,1.34,6.14,6.14,0,0,1,1.37,2l-.2.09a6.13,6.13,0,0,0-1.32-1.93,6,6,0,0,0-2-1.28,5.45,5.45,0,0,0-2.1,1.3,4.74,4.74,0,0,0-1.14,1.9Zm3.46-2.5A1.1,1.1,0,1,1,30.54,30a1.09,1.09,0,0,1,1.09-1.09Zm0,.18a.91.91,0,1,1-.91.91.91.91,0,0,1,.91-.91Z"/><path class="cls-10" d="M35,36.45H37V34.16H35Zm-8.92,0H28V34.16H26.11Zm-9.4,0h1.92V34.16H16.71Zm-8.91,0H9.72V34.16H7.8Z"/><path class="cls-5" d="M35.23,26.64H37v7.51H35.23Zm-9,0H28v7.51H26.24Zm-18.46,0H9.49v7.51H7.78Zm9,0h1.71v7.51H16.77Z"/><polygon class="cls-1" points="22.36 11.66 22.53 16.14 22.7 20.62 22.36 20.62 22.01 20.62 22.18 16.14 22.36 11.66"/><rect class="cls-2" x="26.37" y="9.23" width="9.98" height="11.48"/><rect class="cls-11" x="26.79" y="6.82" width="9.02" height="1.31"/><rect class="cls-2" x="26.79" y="6.82" width="9.02" height="0.52"/><path class="cls-5" d="M22.41,28.71a3.18,3.18,0,1,1-3.18,3.18,3.17,3.17,0,0,1,3.18-3.18Zm0,.21a3,3,0,1,1-3,3,3,3,0,0,1,3-3Zm0,.15c.11,0,.2.25.2.54s-.09.55-.2.55-.2-.24-.2-.55.09-.54.2-.54Zm0,4.55c.11,0,.2.24.2.54s-.09.54-.2.54-.2-.25-.2-.54.09-.54.2-.54Zm-.73-4.45c.1,0,.25.18.33.47s.06.55-.05.58-.25-.18-.33-.47-.06-.55.05-.58Zm1.18,4.38c.1,0,.25.19.33.48s0,.55-.06.58-.25-.19-.32-.48-.06-.55.05-.58ZM21,29.45c.1-.05.3.12.44.37s.2.51.11.57-.3-.11-.45-.37-.19-.52-.1-.57Zm2.27,3.93c.1-.05.29.12.44.38s.2.51.1.56-.29-.11-.43-.36-.21-.52-.11-.58ZM20.42,29.9c.07-.08.31,0,.52.24s.32.45.25.53-.31,0-.53-.25-.32-.45-.24-.52Zm3.21,3.21c.08-.08.31,0,.52.24s.33.45.25.53-.31,0-.53-.25-.31-.44-.24-.52ZM20,30.48c.06-.09.31-.05.57.1s.43.35.37.45-.3,0-.57-.11-.42-.34-.37-.44Zm3.93,2.27c.06-.1.31,0,.58.1s.42.35.36.44-.31.06-.56-.1-.43-.34-.38-.44Zm-4.21-1.59c0-.11.28-.13.58-.05s.49.22.47.33-.29.13-.58,0-.5-.23-.47-.33Zm4.38,1.18c0-.11.3-.14.58-.05s.5.22.48.32-.29.13-.58.06-.5-.23-.48-.33Zm-4.48-.45c0-.11.25-.2.54-.2s.55.09.55.2-.24.2-.55.2-.54-.09-.54-.2Zm4.55,0c0-.11.24-.2.54-.2s.54.09.54.2-.25.2-.54.2-.54-.09-.54-.2Zm-4.45.72c0-.1.18-.25.47-.32s.55-.06.58.05-.18.25-.47.33-.55,0-.58-.06Zm4.38-1.17c0-.11.19-.25.48-.33s.55-.06.58.05-.19.25-.48.33-.54.06-.58,0ZM20,33.29c0-.09.12-.29.37-.44s.51-.2.57-.1-.11.29-.37.44-.51.2-.57.1ZM23.9,31c0-.1.12-.3.38-.45s.51-.19.56-.1-.11.3-.36.44-.52.2-.58.11Zm-3.48,2.85c-.08-.08,0-.32.24-.53s.45-.32.53-.24,0,.31-.25.52-.45.33-.52.25Zm3.21-3.21c-.07-.08,0-.32.24-.53s.45-.32.53-.24,0,.31-.25.52-.44.32-.52.25ZM21,34.32c-.09,0-.05-.31.1-.56s.35-.43.45-.38.05.31-.11.58-.34.42-.44.36Zm2.27-3.93c-.1-.06-.05-.31.11-.57s.34-.42.43-.37.06.31-.1.57-.34.42-.44.37Zm-1.59,4.22c-.11,0-.13-.29-.05-.58s.22-.5.33-.48.13.3.05.58-.23.5-.33.48Zm1.18-4.39c-.11,0-.14-.29-.05-.58s.22-.5.32-.47.13.28.06.58-.23.49-.33.47Zm-.45.11c.12,0,.21.2.21.45s-.09.44-.21.44-.22-.2-.22-.44.1-.45.22-.45Zm0,2.21c.12,0,.21.2.21.45s-.09.45-.21.45-.22-.2-.22-.45.1-.45.22-.45ZM24,31.89c0,.11-.2.21-.45.21s-.45-.1-.45-.21.2-.22.45-.22.45.1.45.22Zm-2.22,0c0,.11-.2.21-.45.21s-.45-.1-.45-.21.2-.22.45-.22.45.1.45.22Zm2,.77c-.06.1-.28.09-.5,0s-.34-.31-.28-.41.28-.09.5,0,.34.31.28.41Zm-1.92-1.11c-.06.11-.29.09-.5,0s-.34-.31-.28-.42.28-.08.49,0,.34.31.29.41Zm1.35,1.69c-.11,0-.29-.07-.41-.29s-.15-.43,0-.49.29.06.41.28.14.43,0,.5Zm-1.11-1.93c-.1.06-.29-.06-.42-.28s-.13-.44,0-.5.28.07.41.28.14.44,0,.5Zm-.45,1.93c-.1-.07-.09-.29,0-.5s.32-.34.42-.28.08.28,0,.49-.31.34-.41.29Zm1.11-1.93c-.11-.06-.09-.28,0-.5s.3-.34.41-.28.08.29,0,.5-.31.34-.41.28Zm-1.68,1.35c-.06-.1.06-.28.28-.41s.44-.14.5,0-.07.28-.29.41-.43.13-.49,0ZM23,31.55c-.06-.1.07-.28.28-.41s.44-.14.5,0-.07.29-.28.42-.44.14-.5,0Z"/><rect class="cls-2" x="8.36" y="20.7" width="27.99" height="6.52"/><path class="cls-12" d="M37,27.22H35.58V20.7H37Zm-9.07,0H26.52V20.7h1.36Zm-18.75,0H7.77V20.7H9.13Zm9.06,0H16.83V20.7h1.36Z"/><path class="cls-5" d="M10.77,20.7h.44v6.52h-.44Zm1.18,0h.44v6.52H12Zm1.49,0h.45v6.52h-.45Zm1.7,0h.44v6.52h-.44Z"/><path class="cls-5" d="M29,20.7h.44v6.52H29Zm1.18,0h.44v6.52h-.44Zm1.49,0h.44v6.52h-.44Zm1.7,0h.44v6.52h-.44Z"/><path class="cls-5" d="M24.47,20.7h.4v6.52h-.4V20.7Zm-.8,0h.4v6.52h-.4V20.7Zm-.81,0h.4v6.52h-.4V20.7Zm-.81,0h.41v6.52h-.41V20.7Zm-.8,0h.41v6.52h-.41V20.7Zm-.8,0h.4v6.52h-.4V20.7Zm-.81,0H20v6.52h-.4Zm5.63,0h.4v6.52h-.4Z"/><path class="cls-13" d="M36.1,32.74l.64.76.64.75H34.83l.64-.75Zm-9,0,.63.76.64.75H25.86l.64-.75Zm-9.46,0,.64.76.64.75H16.41l.64-.75Zm-9,0,.64.76.64.75H7.44l.64-.75Z"/><rect class="cls-2" x="8.35" y="9.23" width="9.98" height="11.48"/><rect class="cls-11" x="8.88" y="6.82" width="9.03" height="1.31"/><path class="cls-5" d="M11.88,11.21h0c-.38,0-.69.58-.69,1.31v7.71h1.37V12.52c0-.73-.3-1.31-.68-1.31Zm2.89,0h0c-.38,0-.69.58-.69,1.31v7.71h1.38V12.52c0-.73-.31-1.31-.69-1.31Zm18.05,0h0c.38,0,.69.58.69,1.31v7.71H32.13V12.52c0-.73.31-1.31.69-1.31Zm-2.89,0h0c.38,0,.69.58.69,1.31v7.71H29.24V12.52c0-.73.31-1.31.69-1.31Z"/><rect class="cls-2" x="8.88" y="6.82" width="9.03" height="0.52"/><rect class="cls-14" x="26.56" y="7.99" width="9.54" height="1.23"/><rect class="cls-14" x="8.6" y="7.99" width="9.54" height="1.23"/><rect class="cls-11" x="7.77" y="20.44" width="29.19" height="0.26"/><rect class="cls-11" x="7.77" y="26.97" width="29.19" height="0.31"/><rect class="cls-11" x="7.77" y="36.19" width="29.19" height="0.3"/><rect class="cls-11" x="7.77" y="39.23" width="29.19" height="0.3"/></svg>