<svg id="Layer_1" data-name="Layer 1" xmlns="http://www.w3.org/2000/svg" viewBox="0 0 58.81 46.7"><defs><style>.cls-1{fill:#1a0601;}.cls-1,.cls-10,.cls-11,.cls-2,.cls-5,.cls-6,.cls-7,.cls-9{fill-rule:evenodd;}.cls-2{fill:#dc291b;}.cls-3{fill:#410900;}.cls-4,.cls-5{fill:#600e03;}.cls-6,.cls-8{fill:#a21400;}.cls-7{fill:#d62006;}.cls-9{fill:#060000;}.cls-10{fill:#59724b;}.cls-11{fill:#303b2b;}</style></defs><path class="cls-1" d="M50.25,7.08l2.4.13c0-.77-.08-1.55-.11-2.32-.79.7-1.54,1.44-2.29,2.19Z"/><polygon class="cls-2" points="8.62 25.56 23.96 26.35 23.96 28.5 8.62 27.71 8.62 25.56"/><polygon class="cls-2" points="8.62 34.64 23.96 34.53 23.96 36.68 8.62 36.8 8.62 34.64"/><polygon class="cls-2" points="31.19 25.94 43.97 26.73 43.97 28.89 31.19 28.1 31.19 25.94"/><polygon class="cls-2" points="30.74 35.71 45.33 35.6 45.33 37.75 30.74 37.86 30.74 35.71"/><rect class="cls-3" x="26.69" y="11.41" width="2.18" height="4.58"/><rect class="cls-4" x="16.4" y="11.47" width="3.59" height="1.68"/><rect class="cls-4" x="36.42" y="11.05" width="3.59" height="2.11"/><path class="cls-5" d="M7.25,7.85c.23.56.47,1.1.71,1.66H9.29c.23.68.48,1.36.71,2a315,315,0,0,0,37.35-.72c.19-.75.37-1.51.55-2.26L50,8.51l.48-2L32.56,8.3l-20.9-.5-4.41,0Z"/><path class="cls-5" d="M9.67,15.13c12.89.22,25.62.13,38.07-.55-.18,1-.37,1.92-.56,2.87C34.77,18,22.36,18,10,17.62c-.09-.83-.18-1.66-.28-2.49Z"/><polygon class="cls-6" points="17.01 12.98 14.58 39.9 18.61 40.35 19.16 13.04 17.01 12.98"/><polygon class="cls-7" points="21.24 24.63 23.41 24.63 23.41 39.54 20.76 39.54 21.24 24.63"/><rect class="cls-8" x="20.49" y="23.88" width="3.9" height="0.84"/><path class="cls-9" d="M19.27,23.75A13.64,13.64,0,0,0,22.53,23a8.16,8.16,0,0,0,3.13.94,14.13,14.13,0,0,1-6.39-.2Z"/><polygon class="cls-7" points="9.29 23.43 11.45 23.43 11.45 39.54 8.8 39.54 9.29 23.43"/><rect class="cls-8" x="8.53" y="22.6" width="3.91" height="0.84"/><path class="cls-9" d="M7.31,22.47a14.14,14.14,0,0,0,3.26-.74,8.39,8.39,0,0,0,3.13.94,14.27,14.27,0,0,1-6.39-.2Z"/><polygon class="cls-6" points="37.02 12.98 36.05 40.29 40.6 40.26 39.17 13.04 37.02 12.98"/><polygon class="cls-7" points="42.8 24.63 44.97 24.63 44.97 40.31 42.31 40.31 42.8 24.63"/><rect class="cls-8" x="41.95" y="23.88" width="3.91" height="0.84"/><path class="cls-9" d="M40.74,23.75A13.67,13.67,0,0,0,44,23a8.27,8.27,0,0,0,3.13.94,14.08,14.08,0,0,1-6.38-.2Z"/><polygon class="cls-7" points="31.84 23.4 34.32 23.4 34.18 40.32 31.2 40.32 31.84 23.4"/><rect class="cls-8" x="31.26" y="22.56" width="3.91" height="0.84"/><path class="cls-9" d="M30,22.44a14.68,14.68,0,0,0,3.26-.74,8.58,8.58,0,0,0,3.13.94,14.41,14.41,0,0,1-6.39-.2Z"/><path class="cls-10" d="M4.94,4.15C22.59,7.62,39.3,6.89,55,1.84l-.72,1.54C38.57,8.59,22.44,9.07,5.88,6.08L4.94,4.15Z"/><path class="cls-11" d="M5.88,6.08,4.17,7.68C18.42,10,34.28,9.61,50.29,7.08,51.1,6.31,51.37,6,52.5,5l.11,2.23L53.54,7l.08-2.84c0-.2.7-.58.7-.77-15.27,5-32.12,5.7-48.44,2.7Z"/></svg>