<svg id="layer1" xmlns="http://www.w3.org/2000/svg" viewBox="0 0 323.98 225.36"><defs><style>.cls-1{fill:#ed2e2e;}.cls-2{fill:#fcc;}.cls-3{fill:#492d0c;}</style></defs><path class="cls-1" d="M265.88,92.75c-19.71-13.1-40.67-25-63.93-30.43a115.14,115.14,0,0,0-36.16-2.23A85.56,85.56,0,0,0,142.08,63,182.1,182.1,0,0,0,93.93,83.38a93.46,93.46,0,0,0-34.8,37.89c-8.5,16.6-13.7,35.43-13.87,54.12-.06,6.17,6.27,8.83,11.3,6.53.28-.13.58-.23.87-.35a7.79,7.79,0,0,0,3.3.58c20.51-.59,41-.31,61.55-.84,9.31-.25,18.59-.91,27.89-1.07,9.76-.17,18.33-4.84,26.72-9.37C193.33,162,207.49,151,222,139.28c7.15-5.77,15-10.82,22.24-16.48,7.77-6,15.45-12.23,23.22-18.28C271.52,101.35,269.46,95.12,265.88,92.75Zm-199,70.67h0c0,.43,0,.85,0,1.28l-.3,0C66.67,164.29,66.77,163.86,66.88,163.42Z"/><path class="cls-2" d="M134.26,85.85A8.14,8.14,0,0,0,135.37,87c.53.46,4.64-.52,4.85-1.19a3.58,3.58,0,0,0,.11-.35,24.92,24.92,0,0,0,2.81-1c.72-.33-.24-.27-.73-.22a2.3,2.3,0,0,0,.68-1c.21-.72-.34-1.34-.92-1.81V80.2c0-.08-.57.07-.71.07h-.54a4,4,0,0,0-1.5-2.48h0c-.58-.44-4.95.94-4.86,1.19a4.21,4.21,0,0,1,.28,1.11c-.4.14-.67.31-.67.49v1.08a2.19,2.19,0,0,0-.79,1.12,2.71,2.71,0,0,0,.2,2c-.17.17-.36.35-.55.55s-.09.13,0,.15A7.35,7.35,0,0,0,134.26,85.85Z"/><path class="cls-2" d="M164.32,92.09c.23,0-.1-.1-.33-.18-.58-1.66-2.14-2.46-3.81-3a4.35,4.35,0,0,0-2.51.32c-.87.08-2.34.55-2.32,1.63a10.17,10.17,0,0,0,.14,1.47c-.76.28-1.22.81-.87,1.55a24.65,24.65,0,0,0,1.16,2.57,6.13,6.13,0,0,0,3.16,2.41,5.14,5.14,0,0,0,2.11.19,2.25,2.25,0,0,0,2.51-1.41c.2-.84.43-1.69.57-2.54h0c.87.07,2.53-.31,2.58-1.43S165.19,92.17,164.32,92.09Z"/><path class="cls-2" d="M190,96.51s-1.16-.12-2.36-.1l-.42-.08h-.29a29.82,29.82,0,0,1-.14-3c0-.56-4.46,0-4.88.53-1,1.23-1.43,2.78-2.41,4-.11.09-.1.17,0,.23a37.21,37.21,0,0,1,4,3.29A9.39,9.39,0,0,0,181,102c.56.73.88,1.48,1.35,2.15-.58,0-1.15.07-1.68.08a9,9,0,0,0-3.37.6c-1,.43.76.47,1,.47h.2l-.2.1c2.42,0,5-.36,5.94,2.44.11.32,1.07.46,1.28.46h.8c.72,0,3.31-.28,3.68-1.1a9.76,9.76,0,0,0,.8-4.13.52.52,0,0,0,0-.11h0l-.05,0a3.71,3.71,0,0,0-.82-1c.48-.15.82-.35.87-.57a3.9,3.9,0,0,0-1-3.95A8.72,8.72,0,0,1,190,96.51Z"/><path class="cls-2" d="M201,73.89c.2.25.41.51.6.78s2,2.16,1.93,1.56c-.2-4.19-4-9.57-8.65-8.68-.4.08,1.47,2.71,2.41,3.68l-.07.08a3.06,3.06,0,0,0-1.31-1l-.23-.32-.18.31h-.32v.55c-.13.2-.26.4-.41.6-1-2.39-2.88-4.54-5.35-4.68-.27,0-.24.22-.16.43a19.46,19.46,0,0,0,2.21,4.13c-.41-.17-.82-.35-1.25-.55s-.17.36-.15.43c.43,2.09,1.95,5.29,4.07,6.16,1.24.51,2.35-.23,3.2-1.23a1.07,1.07,0,0,0,.69.27A2.92,2.92,0,0,0,201,73.89Z"/><path class="cls-2" d="M195,70.27h.14v-.16C195.17,70,194.88,70.27,195,70.27Z"/><path class="cls-2" d="M228.14,82.78a12.92,12.92,0,0,0-4-.94c.1-.21.2-.41.29-.62a1.18,1.18,0,0,0,.77-.53c.24-.57.32-1.24.52-1.83a10.32,10.32,0,0,1,1.09-1.42c.46-.51-1.09-.61-1.23-.61a6.31,6.31,0,0,0-3.37.64,3.14,3.14,0,0,0-.33.24l0-.08c.15-.11.23-.22.2-.33-.17-.64-.63-1-.8-1.61h0c-.45-1.07-5.18-.22-5,.57a15.27,15.27,0,0,1,.8,2.81c.36,1.74,1,3.24-1.6,3.45-1.22.09-3.74,1.27-1.11,1.4,2.32.12,3.4,2.33,3.51,4.37v0s0,0,0,0h0c.13,1,4.86,1,5-1h.27v.46h0a19,19,0,0,1,.26-3.46h2C225.82,84.27,229.57,83.38,228.14,82.78Z"/><path class="cls-2" d="M254.14,83.14c-.38-1.06-2-1.33-2.93-1.33a18.7,18.7,0,0,1-2.36-.06A3.71,3.71,0,0,0,246.4,81h-.18a3.21,3.21,0,0,0-2.19.42c-.94.68-.09,1.62.66,2l.48.19a11.47,11.47,0,0,0,5.71,4c1,.35,4.23.1,3.05-1.62a10.47,10.47,0,0,0-1.22-1.47C253.47,84.4,254.44,84,254.14,83.14Z"/><path class="cls-2" d="M203.94,111.27c.11,0,.18-.16.21-.3.41.13.78.17.76-.16a24.55,24.55,0,0,0-.5-2.89,2.39,2.39,0,0,0,.35-.07c.16,0,.2-.11.15-.25a6.71,6.71,0,0,1-.5-3.68,3.69,3.69,0,0,0,1.14.35h.8c.14,0-.13-.46-.17-.64a21.34,21.34,0,0,1,3.38-.59c.33,0,.08-.4,0-.5a10.49,10.49,0,0,0-5-3.81,1.9,1.9,0,0,0-2.5,1.1c-.5-.25-1.3-.61-1.43-.3a7.72,7.72,0,0,0-.54,3.8c0,.11.15.62.25,1.07-.09,0-.14,0-.14.12v.15l-.3-.15c0,.26.07.51.11.75-.23.06-.46.11-.68.19-.37.11-.47.3-.33.66a4.05,4.05,0,0,1,.07,2.34c-.25,1.14,3.22,2.81,4.1,2.81Z"/><path class="cls-2" d="M222.88,108.58a9.62,9.62,0,0,1-4.39,1.52h-.09c-.33-.72-.67-1.43-1-2.14-.68-1.36-4.65-3-3.77-.32a19.21,19.21,0,0,0,1.65,4c-.93.58-1.84,1.19-2.8,1.7-1.86,1,1,3.69,2.18,3.83a5,5,0,0,1,.53.11v.27c0,1.17,3,4.19,3.94,2.55a13.34,13.34,0,0,1,1.7-2.17,2,2,0,0,0,1.08,0c2.41-.81,3-1.69,3-4.21a1.84,1.84,0,0,0-.18-.77c.41-.19.83-.41,1.27-.64C227.93,111.34,224.54,107.72,222.88,108.58Z"/><path class="cls-2" d="M244.05,110.8a2.52,2.52,0,0,0-2.14-1.53h-.8a2.21,2.21,0,0,0-2.12,1.78l-.06.25-.23,0a2.15,2.15,0,0,0-1.52,3.66l-.07.07c-1.13,1.16-.4,2.92.76,3.71a6.31,6.31,0,0,0,4,1.19,2,2,0,0,0,1.75-.49c.12-.06.25-.11.37-.18a7,7,0,0,0,.86-.66c1.37.93,3.56.62,3.55-1.56s-.19-4-1.6-5.71A2.24,2.24,0,0,0,244.05,110.8Z"/><path class="cls-2" d="M264.44,107.88a10.4,10.4,0,0,0,.1-1.11c0-1-1.2-1.5-2-1.5H260.9a2.82,2.82,0,0,0-2.76,2.07,3.81,3.81,0,0,0-.15,1.93,2.46,2.46,0,0,0-.67,1.76,2.32,2.32,0,0,0,1.72,2.34,3.64,3.64,0,0,0,3.52-1.35,6.76,6.76,0,0,0,1.23-1.86A2.28,2.28,0,0,0,264.44,107.88Z"/><path class="cls-2" d="M212.55,139.1c-.53,0-.08-1.18-.06-1.45a8.94,8.94,0,0,0-2.46-.19,13,13,0,0,0,.05-1.41c0-.24-1.73-.18-1.84-.18A13.43,13.43,0,0,0,202,137l-.08.08c1.06,1.13,1.81,2.38,3.17,3.19a9,9,0,0,0-3.17,2.42l.09.07c2.35,1.1,5.27.88,7.76.43,2-.35,3.07-2.1,3.56-3.89C213.32,139.14,212.51,139.1,212.55,139.1Z"/><path class="cls-2" d="M180.82,138.36c.7-.31.89-1.71,1-2.38a13.76,13.76,0,0,0,.16-2.72c0-.38-.38-.61-.88-.76.08-.18,0-.38-.23-.55a4.87,4.87,0,0,0-2.77-.66c-1,0-2.33,0-3.14.72-.87,0-1.66.14-1.86.48,0,.06-.06.13-.1.2a3.15,3.15,0,0,0-1.51.6c-.48.37.32.75,1,1a3.59,3.59,0,0,0,2.5,3.88A8.57,8.57,0,0,0,180.82,138.36Z"/><path class="cls-2" d="M183.82,151.35a1.55,1.55,0,0,1,0-.21c.11-.12.21-.24.33-.36.95-1-.9-1.51-1.61-1.51h-.8a8.28,8.28,0,0,0-2,.34,5.14,5.14,0,0,1-.11-.67c0-.71-1.42-.67-1.9-.67h-.8c-.66,0-2.77-.12-3,.78-.71,2.56.64,4,2.62,4.63a7.35,7.35,0,0,1-2,2c-1.15.65-.46,1.42.63,1.53a6.73,6.73,0,0,1,1.32.47,8.79,8.79,0,0,0,2.49.38c.48,0,3.35-.18,3.08-1.21a4.94,4.94,0,0,1,.06-2.7,4.06,4.06,0,0,0,2-.69c.3-.26.62-1.37.23-1.71Z"/><path class="cls-2" d="M162.17,119.6v1.24L162,121c-1.06-.78-2.48-.91-2.89.29a1.49,1.49,0,0,0-.92,1.57,12.81,12.81,0,0,0,.92,5.38c.53,1.2,2.23,3,3.65,1.81a1.43,1.43,0,0,1,1.29-.46c1,0,1.17-.87,1.17-1.73V125.4a2.16,2.16,0,0,0-.12-.71c.86-.19,1.12-.77,1.12-1.69v-2.41C166.17,118.26,162.17,116.5,162.17,119.6Z"/><path class="cls-2" d="M172.37,62.46a12.82,12.82,0,0,1,2-.24c1,0,1.33-.8.68-1.56a4.39,4.39,0,0,0-3.24-1.41,16.91,16.91,0,0,0-2,.19,4.83,4.83,0,0,0-1.21-.17h-4c-.53,0-1.06.22-1.06.81a2.88,2.88,0,0,0,1.18,2.34c.15.14.31.28.49.42-.54.56.89,1.71,1.2,1.9a3.46,3.46,0,0,0,3.16.46C171.09,64.48,172.37,64,172.37,62.46Z"/><path class="cls-2" d="M140.84,65.43a3,3,0,0,1,.68-1.41,7,7,0,0,1,1.45-.25,5,5,0,0,0,3.12-1.68c.67-.77.26-1.22-.64-1.18-1.4.06-2.64.74-4,.8-1.05,0-3.34,1.14-3.48,2.35s-1.47,2-1.61,3.21S140.68,66.87,140.84,65.43Z"/><path class="cls-2" d="M113.17,71.27h0s0,.3,0,.31v.1a4.79,4.79,0,0,0,1.1,2.13,8.09,8.09,0,0,0,1.2,1.53c.51.69,1,1.2,1.33,1.06,1-.48,2.1-.35,2.85-1.12a16.73,16.73,0,0,0,2-.48c.33-.11-1.07-2.16-1.15-2.27-.22-.3-1.27-2-1.79-1.79-.35.11-.69.2-1,.28a1,1,0,0,0-.56-.27h0c-1.46-.06-2.52-.62-3.94,0,0,.05,0,.09,0,.14Z"/><path class="cls-2" d="M113.22,101.44c.84.52,3,1.65,3,.63V99.66c0-1.12-3.39-2.76-4.58-2.72a7.9,7.9,0,0,0,.22-1.29c.07-1-3-3.37-3.92-2.81a3.51,3.51,0,0,0-1.7,2.51,27.59,27.59,0,0,0-4-1.63c-.43-.15-1.32-.11-.9.59A12.08,12.08,0,0,0,106.49,99l.09.1a10.49,10.49,0,0,0-1.3,2.71c-.49,1.41,2.77,3.09,3.86,3A4,4,0,0,0,113.22,101.44Z"/><path class="cls-2" d="M140.17,118.16v-2.41a.89.89,0,0,0-.29-.7,6,6,0,0,1,1.41-3.4c1-1.09.21-1.57-.91-1.62a4,4,0,0,0-2.75.26l-.12,0a11,11,0,0,0-.57-1.14.75.75,0,0,0-.28-.57,4.35,4.35,0,0,1-.47-1.44c-.06-.59-1.07-.91-1.49-.91h-.8c-.83,0-3.73.91-3.73,2.13v1.53a2.7,2.7,0,0,0-.28,0c-.93-.07-4.82,1.45-2.83,2.58a6,6,0,0,0,3.06.81,4,4,0,0,0,.6.14,4.62,4.62,0,0,0,1.95-.18,5.79,5.79,0,0,0-.75,1.08c-1.47.3-4.5,2.11-2,2.89a13,13,0,0,0,5.19.57,3.93,3.93,0,0,0,.06.48v.57l.11,0c0,.12,0,.24.08.36C135.79,120.76,140.17,119.63,140.17,118.16Z"/><path class="cls-2" d="M149.69,136.62c.45-.28-.26-1.89-.36-2.05a5.34,5.34,0,0,0-1.44-1.75,4.82,4.82,0,0,0-.95-.91,1.18,1.18,0,0,0-.85-.23c-.45-1.23-2.73-4.27-3.3-3a6,6,0,0,0-.27.7c-.11-.13-.24-.25-.35-.37v2.55c0,.16,0,.33,0,.49v2.2h-2.35c-.37,0-.65.08-.65.38v.8c0,1.14,1.61,3.61,2.91,3.61a29.11,29.11,0,0,0,2.95-.13c.28,1.17,1.81,3.88,3,3.27a5,5,0,0,0,2.56-2.63c.33-.64-.48-1.89-.83-2.36C150.05,137.57,149.86,137.05,149.69,136.62Zm-3.19-2.27c0,.07.05.14.07.21a3.47,3.47,0,0,0-.4-.3v-.56A4.41,4.41,0,0,0,146.5,134.35Z"/><path class="cls-2" d="M142.66,157.74a7.07,7.07,0,0,0-1.3.77c-.05,0-.43.34-.11.36a3.21,3.21,0,0,0,1.14-.26,15.4,15.4,0,0,0,1.77-.75l.15-.08,1-.45a9.67,9.67,0,0,0,1.92-1.17,3.44,3.44,0,0,0,.91-2.71s-.08-.18-.12-.18h-2.41a6.35,6.35,0,0,0-2.31.86,11.87,11.87,0,0,0-1.55.88,1.77,1.77,0,0,0-.32.25h0a.53.53,0,0,0-.21.34v1.6s.06,0,.1.06a6.86,6.86,0,0,0,2.12-.56,1.65,1.65,0,0,1-.07.26,2.49,2.49,0,0,1-.21.47c-.09.09-.09.15,0,.08v0Zm.77-.38c.37-.19.44-.21.22-.1l-.07,0-.18.09Z"/><path class="cls-2" d="M148.75,163.84a9.39,9.39,0,0,0-1.5,0c-.49,0-1,.3-1.45.36-.14-.09-.29.08-.65.08h0v-.47H143.5a13.39,13.39,0,0,0-3,.23c-.17,0-1.85.43-.86.54.24,0,.34.19.52.3A3.31,3.31,0,0,0,142,165a5.91,5.91,0,0,0,2.75.18,8.27,8.27,0,0,0,2.52-.47,2.93,2.93,0,0,0,.4-.19l.08-.05a3.45,3.45,0,0,0,1.26-.38C149.3,163.9,148.78,163.84,148.75,163.84Zm-.71.47c.24-.11.28-.08,0,0Z"/><path class="cls-2" d="M159.54,169.51a8.71,8.71,0,0,0-2.33-.24h-.81c-.23,0-2.23,0-2.23.47v2.4c0,.26.76.39.9.42a9,9,0,0,0,1.86.23,5.88,5.88,0,0,0,.84,0h.06a7.26,7.26,0,0,0,1.68-.09c.12,0,.66-.11.66-.36v-2.41C160.17,169.67,159.68,169.54,159.54,169.51Z"/><path class="cls-2" d="M117.6,134.58l.07-.1c1.14.41,2.58.52,3.14.1,2-1.51,2.41-3.82,4-5.62,1-1.12-3.46-2.11-4.24-1.82l-.36.11A10.2,10.2,0,0,1,121,124c.43-1-4.26-2.56-4.83-1.29a12.69,12.69,0,0,0-.81,5.32c-1.32.21-2.6.61-3.94.69-.16,0-.88.09-.87.41.08,2.24,1.09,3,2.62,4.52C113.8,134.24,116.8,135.57,117.6,134.58Z"/><path class="cls-2" d="M83.58,122.82c-.49,1.18,1,3.49,1.84,4.2a5.69,5.69,0,0,0,4.81.92c.55,1.41,2,3.81,2.25,3.07.51-1.32.3-2.69.8-4a2.58,2.58,0,0,0-.12-1.34l.09-.2a.93.93,0,0,0,.48.1c.78,0,2.89-.16,3.44-.78.76-.85-.79-4.35-1.88-4.52l-.1,0a.21.21,0,0,0-.23.15,5,5,0,0,1-2.15.58c-.37-.61-.74-1-1-.72a1.71,1.71,0,0,0-.11.14c-.18-.42-.38-.83-.53-1.21v-.5a3.33,3.33,0,0,1-.25-.28l0-.14a6.87,6.87,0,0,0-1.32-2.78c-.22-.31-1.4-1.49-1.4-.38v6.12C86.49,120,84.6,120.36,83.58,122.82Z"/><path class="cls-2" d="M80.63,100.67A1.69,1.69,0,0,0,83,99.19a10.46,10.46,0,0,1,.41-1.91A2.61,2.61,0,0,0,84.63,97a2.36,2.36,0,0,0,.81-.85c0-.08.11-.15.17-.23a1.76,1.76,0,0,0,1.33-2.13c-.15-1.07-1.18-2.57-2.43-2.5a2.91,2.91,0,0,0-2.33,1.08,1.72,1.72,0,0,0-2.65,1.32c0,1.39-.71,2.64-.8,4A3,3,0,0,0,80.63,100.67Zm4.87-4.74a.55.55,0,0,1-.31,0A1.55,1.55,0,0,0,85.5,95.93Z"/><path class="cls-2" d="M57.61,140.27h7.22c1.12,0,.86-1.81.61-2.44a9.35,9.35,0,0,1-.43-2.4,4,4,0,0,1,2.23-1c2-.07.1-4.65-1.68-4.58a4.83,4.83,0,0,0-2.39.8V130c0-1.29-2.26-2.68-3.51-2.68h-.81c-.61,0-.87.18-.87.76a30.27,30.27,0,0,0,.19,4.14,19.12,19.12,0,0,0-2.86,3.74C54.56,137.27,56,140.27,57.61,140.27Z"/><path class="cls-2" d="M97.85,145.15l-.95-.31s0-.07,0-.11l-1-.2.89.1a18.4,18.4,0,0,0-3.67-1v-2.86c0-.71-4.21-1.45-4.77-1.45H86.8a.66.66,0,0,0-.37.19,21.72,21.72,0,0,0,1.35,3.11c-2.91-.32-5.74.08-7.74,2.63,0,0,0,.05.14.09-.75-.09-1.49-.14-2.21-.17-.15,0-.45,0-.3.18a9.32,9.32,0,0,0,4.77,3.15c.2.39.82.59,1.55.69a3,3,0,0,0-.77,1.67c0,.17.61.36.66.38,2.22.82,5.52,2.1,7.81.93a4.61,4.61,0,0,0,2-3.14c1.4.3,3.18.58,3.18.57a9.16,9.16,0,0,1-.07-4.1l.91.14C98.61,145.69,98.64,145.45,97.85,145.15Zm-12.29.42.23-.2a2.14,2.14,0,0,1-.1.22Zm-1,.85h.73a4.06,4.06,0,0,1-.25.41,8,8,0,0,0-.81-.46Z"/><path class="cls-2" d="M123.12,155.94c-.32,0-.64,0-1,.07v-3.93c0-1.33-2-2.81-3.29-2.81h-1.61a1.84,1.84,0,0,0-1.76.85,5.6,5.6,0,0,0-.58,4.15h-.86c-.73,0-1.9.23-1.9,1.23v3.2c0,1.76,2.34,3,3.89,2.44a3.58,3.58,0,0,1,.64-.18c.94,1,2.91,1.58,3.78.74a6.53,6.53,0,0,1,4.71-2,1.35,1.35,0,0,0,1.08-2.11A3.41,3.41,0,0,0,123.12,155.94Z"/><path class="cls-2" d="M124.34,176.27h-.93a11.23,11.23,0,0,1,.31-2.18l.76-.75c.92-.92.32-2.07-1-2.07h-.8a4,4,0,0,0-3.19,1.4,5.2,5.2,0,0,0-2.55-.95,2.48,2.48,0,0,0-1-.3,1.85,1.85,0,0,0-1.35.49c-1,.27-1.85.79-1.69,1.68.11.66.69,1,.8,1.61a.91.91,0,0,0,.55.67,3.45,3.45,0,0,0,.14.34,2.55,2.55,0,0,0,.38.53,1,1,0,0,0-.27.85c.24,1.07,2,.83,2.72.72a5.85,5.85,0,0,0,1.29-.38v.4c0,.58,1.06.94,1.46.94h2.4a4,4,0,0,0,3.23-1.34C126.26,177,125.15,176.27,124.34,176.27Z"/><path class="cls-2" d="M91.59,176.88a4.54,4.54,0,0,0-4.54-.58l-.49.22c0-.1.06-.21.1-.31a3.61,3.61,0,0,1,.44-.33c1.73-1.08-.67-4.21-1.46-5s-3-1.35-2.68.55a4.14,4.14,0,0,1,0,1.43c-.27.3-.53.62-.79.95h0c-.44-.7-1.22-1.53-2-1.53H79.4c-2.42,0-.77,3.3.31,4.06l0,0c-.31.92.61,2.34,1.1,2.87,1.47,1.64,3.27,2.89,5.55,2.61,1.18-.14,3.45-2.12,4.54-1.4C93.69,182.23,93.39,178.05,91.59,176.88Z"/><path class="cls-2" d="M64,161a4.46,4.46,0,0,0,.47-5.41c-.71-1.24-3,0-3.92,1.16a8.2,8.2,0,0,1-2.77-.61c-1.47-.64-4.16.91-4,2.62.15,2.21,1.71,3.2,3.55,3.64-.42.5-.62,1.05-.22,1.54,1.17,1.42,2.88,1.29,4.54,1a14,14,0,0,0,2.51-.86l.9-.38c1.37.14,4-1.73,3.47-3.24S65.87,160.25,64,161Zm.29,2.13a.75.75,0,0,0,.09.15A.54.54,0,0,1,64.3,163.17Z"/><path class="cls-2" d="M61.3,180.51a6.86,6.86,0,0,1-1.19.12c-.42,0-1-.4-1-.11a4.22,4.22,0,0,1,0-1.59,5.56,5.56,0,0,0,.18-1.13v0h0c0-1.29-2.9-5-3.27-3h0c-.17,2.7-2.73,3.74-5.15,3.4h0a2.25,2.25,0,0,1-.36-.06l0,.08a.49.49,0,0,0-.14.11h-.24c-.92,0-.54,1.29.15,2.43a4.53,4.53,0,0,0,1.38,2.54c.43.4,1.57,1.1,1.57-.06v-.57a6.43,6.43,0,0,0,4-1,6,6,0,0,0,6.29,3.21C65.1,184.6,62.75,180.28,61.3,180.51Z"/><path class="cls-3" d="M276.38,101.13c-25.9-27.14-65.61-46-103.67-45-28.52.74-57.64,11-81,27.11A116.77,116.77,0,0,0,56,122.1c-10.61,19-14.51,40.85-13.85,62.42a.72.72,0,0,0,.89.64c18.58-2,37.61-1.56,56.26-2.08,21.86-.61,44.07-.62,65.77-3.48.82-.11,1.64-1.21.42-1.42l-.84-.15c.1.39.21.77.31,1.15,36.19-26.75,76-48.51,111.64-76,.18-.14.44-.45.32-.71s-.32-.75-.49-1.13c-.37-.87-2.29-.32-1.93.51.77,1.79-7.15,6.34-8.75,7.48-4.57,3.26-9.19,6.45-13.82,9.63-11.47,7.87-23.05,15.61-34.63,23.33-17.89,11.91-36.34,23.26-53.63,36-.56.42-.33,1,.31,1.15l.85.15c.13-.47.27-.94.41-1.42-17.53,2.32-35.41,2.55-53.07,3.11-19,.6-37.94.9-56.9,1.69-2.87.12-5.73.26-8.58.46-1,.07-2,.16-3.06.26.82-.08.43-8,.45-9A121.68,121.68,0,0,1,49.17,143,108.28,108.28,0,0,1,77.53,96.8C100.15,74.67,132,61.65,163.18,58.22c37.34-4.11,77,12.21,104.46,36.9,2.42,2.18,4.72,4.5,7,6.86C275.22,102.62,277.05,101.83,276.38,101.13Z"/><path class="cls-3" d="M44.73,165.38c14.55,1.28,29.06,3.38,43.54,5.22q37,4.71,73.94,9.61c.59.07.64-.32,0-.4q-37-4.84-73.94-9.6c-14.48-1.85-29-4-43.54-5.22-.59-.05-.64.34-.05.39Z"/><path class="cls-3" d="M165.24,178.21c10-9.92,20.93-19,31.48-28.29,15.17-13.39,30.38-26.74,45.33-40.38,6.82-6.23,13.67-12.47,20.08-19.12.2-.2-.72-.51-.92-.3-11.59,12-24.31,23-36.77,34.14-14.64,13.07-29.42,26-44.09,39-5.4,4.8-10.9,9.54-16,14.64-.19.19.71.51.92.3Z"/><path class="cls-3" d="M165.55,176.59c7.29-8,14.22-16.25,21.26-24.42q17.2-19.93,34.34-39.92c9-10.45,17.88-21,26.94-31.35.25-.29-.71-.26-.89-.06-17.94,20.57-35.56,41.42-53.37,62.11-9.67,11.22-19.15,22.67-29.17,33.58-.25.28.71.26.89.06Z"/><path class="cls-3" d="M165.79,177.39c5.81-9.48,12.37-18.56,18.65-27.73q15.08-22,30.32-43.94C222,95.28,229,84.49,236.83,74.47c.18-.23-.76-.46-.94-.23-6.51,8.33-12.32,17.27-18.36,25.93Q202.29,122,187.22,144c-7.53,11-15.41,21.83-22.37,33.18-.16.26.8.46.94.22Z"/><path class="cls-3" d="M164.37,177.75c5.64-12.92,12.19-25.48,18.52-38.06q12.54-24.91,25.45-49.64c4.06-7.77,7.9-15.8,12.55-23.24.14-.23-.81-.32-1-.06-6.25,10-11.35,20.89-16.78,31.36q-13,25-25.62,50.3c-4.83,9.68-9.79,19.36-14.12,29.28-.12.27.85.32,1,.06Z"/><path class="cls-3" d="M164.38,177.64a104.28,104.28,0,0,1,3-11.9c2-7,4.09-13.91,6.22-20.84q7.85-25.45,16.3-50.7c2.5-7.44,5-14.86,7.71-22.23,1.36-3.75,2.55-7.92,4.62-11.36.12-.22-.82-.22-1,0-1.84,3.07-2.92,6.74-4.15,10.08-2.41,6.54-4.67,13.15-6.91,19.75q-8.52,25.18-16.37,50.6c-2.44,7.86-4.85,15.74-7.12,23.66a113,113,0,0,0-3.36,13c0,.21.94.18,1-.15Z"/><path class="cls-3" d="M164.38,177.67c1-11,2.82-22,4.38-33q3.68-25.93,7.73-51.82c1.29-8.13,2.61-16.25,4.09-24.35.48-2.59,1-5.18,1.55-7.75a11.32,11.32,0,0,1,1.07-3.61c.14-.22-.81-.28-1,0-1.42,2.19-1.58,5.9-2.06,8.38-1.22,6.29-2.27,12.6-3.3,18.92-2.8,17.08-5.35,34.21-7.82,51.34-2,14-4.36,28-5.66,42,0,.25,1,.23,1-.09Z"/><path class="cls-3" d="M164.38,177.69c0-29.61-1.38-59.24-1.91-88.85-.12-6.53-.23-13.06-.25-19.59,0-2.84-.42-6.19.23-9,.05-.22-.92-.26-1,.06-.67,2.9-.23,6.36-.22,9.3,0,6.75.13,13.49.25,20.24.32,17.62.76,35.23,1.18,52.85.28,11.67.72,23.36.73,35,0,.27,1,.23,1-.06Z"/><path class="cls-3" d="M162.51,178.64c-1.45-12.54-4-25-6.16-37.43q-4.65-26.36-9.46-52.68c-1.5-8.24-3.08-16.46-4.46-24.71-.05-.29-1-.16-1,.1,4.78,28.56,10.38,57,15.34,85.52,1.7,9.73,3.61,19.49,4.75,29.31,0,.28,1,.18,1-.11Z"/><path class="cls-3" d="M160.62,175.73c-2.64-8.56-6.13-16.92-9.22-25.32q-8.57-23.32-17.25-46.62-4.28-11.51-8.62-23c-1.32-3.47-2.42-7.24-4.15-10.55-.14-.26-1.09-.26-1,0a74.71,74.71,0,0,1,3.16,8q3.38,8.82,6.67,17.69,8.72,23.3,17.3,46.64c4.06,11,8.65,22,12.11,33.18.09.27,1.06.32,1,0Z"/><path class="cls-3" d="M161.28,177.85c-10-15.22-18.93-31.12-28-46.87S115.12,99.2,106,83.35c-1.18-2-2.36-4.1-3.57-6.12-.16-.26-1.11-.19-1,0,18.14,30.35,34.76,61.59,53.27,91.73,1.83,3,3.69,6,5.61,8.89.16.25,1.11.18,1,0Z"/><path class="cls-3" d="M160.27,177.21c-2.56-1.16-4.82-4.53-6.65-6.54C149.3,165.88,145.12,161,141,156c-10.8-12.83-21.37-25.85-31.87-38.93-5.24-6.54-10.47-13.1-15.63-19.7-2.31-3-5.16-5.93-7-9.23-.13-.24-1.09,0-.94.23a56.69,56.69,0,0,0,5.09,6.79q5.78,7.45,11.66,14.8,15.64,19.62,31.64,39c5.53,6.67,11.09,13.32,16.83,19.81,1.83,2.07,3.68,4.12,5.61,6.1a11.68,11.68,0,0,0,3.07,2.67c.24.11,1.16-.16.83-.31Z"/><path class="cls-3" d="M161.42,178.92a129.19,129.19,0,0,1-11.25-8.24c-6.21-4.82-12.33-9.74-18.45-14.67-14-11.29-27.86-22.72-41.78-34.08-6.5-5.3-12.87-11-19.77-15.77-.22-.16-1.17,0-.87.18,9.47,6.55,18.18,14.46,27.09,21.75,14,11.44,28,22.91,42.06,34.2,7.16,5.72,14.27,12,22.1,16.81.23.13,1.17,0,.87-.18Z"/><path class="cls-3" d="M161,177.73c-32.44-14.17-64.19-30-96.09-45.36-3.4-1.63-6.8-3.28-10.21-4.88-.39-.18-1,0-.38.27,29.88,14,59.47,28.69,89.42,42.59,5.61,2.6,11.22,5.18,16.88,7.66.39.17,1,0,.38-.28Z"/><path class="cls-3" d="M162.26,178.52C129.81,170.78,97.58,161.9,65.44,153c-6.06-1.68-12.14-3.31-18.11-5.24-.24-.07-1.19.15-.7.31,12.95,4.18,26.22,7.49,39.36,11q27.45,7.41,55,14.53c6.93,1.79,13.85,3.6,20.81,5.26.3.07,1.12-.21.49-.36Z"/><path class="cls-3" d="M88.11,143.37c-2.67-.25-4.89-1.76-7.52-.89-2,.64-2.43,1.93-2.31,3.92.32,5,6.65,2.66,9.37,1.81l-.71-.18c-1.83,2-1.84,4.19-.58,6.53.07.13.39.1.49.09,2.84-.45,4.4-2.06,5.29-4.78l-1,.13a3.07,3.07,0,0,0,5.51-1.56c0-.25-1-.19-1,.13-.11,1.83-2.19,3-3.58,1.2-.14-.19-.88-.12-1,.12a7.83,7.83,0,0,1-1.87,3.29c-2.33,2.35-2.73-.47-2.88-1.42a4.42,4.42,0,0,1,1.4-3.64c.29-.32-.6-.22-.71-.19-3.22,1-7.58,2.49-7.88-2.36s5.9-2,8.42-1.79c.3,0,1.1-.35.46-.41Z"/><path class="cls-3" d="M89.5,143.25c-.55-2-.91-4.38,1.39-5.27l-.85-.12a3.75,3.75,0,0,1,1.15,3.87c-.07.31.77.29.91.23A4,4,0,0,1,97.22,144c.75,1.53-.15,2.8-1.7,3.15-.5.11.42.43.66.38,2.24-.5,3-2.56,1.46-4.38a5.5,5.5,0,0,0-6.37-1.54l.91.23a4,4,0,0,0-1.26-4.09.92.92,0,0,0-.85-.12c-2.43.94-2.14,3.45-1.54,5.56.08.26,1,.33,1,0Z"/><path class="cls-3" d="M90.38,122.47c-2,0-4-.48-6,.24-1.34.49-2.47,2.71-1.47,3.91,1.79,2.15,6.34.12,7.21-1.93.13-.32-.71-.24-.84-.2-1.39.43-1.07,3-.67,4.08a3.67,3.67,0,0,0,3,2.2,2.92,2.92,0,0,0,2.73-.87c1.15-1.48-1-3.79-1.87-4.72l-.92.15c2.1,1.2,5.8.11,6.31-2.41.26-1.33-1.12-2.32-2.29-2.32a5.14,5.14,0,0,0-4.27,2.45c-.17.25.79.31,1,.11,1.84-2.13,2.6-5.73-1.27-5.78-4.05,0-3.4,3.5-1.42,5.86.19.24,1.12.09,1-.1-1.21-1.44-3.13-4.93.1-5.35A2.12,2.12,0,0,1,93,119.4c.32,1.34-.85,2.73-1.65,3.65l1,.11c.74-1.15,4.51-3.61,4.6-.25,0,1.83-3.11,3-4.44,2.23-.15-.09-1.13-.08-.92.14.88.94,4,5.75.24,5.08a3.15,3.15,0,0,1-2.19-1.9c-.35-.73-.58-3.38.42-3.68l-.84-.2c-.75,1.78-5.55,4-5.65.9-.12-3.54,4.63-2.6,6.85-2.61.59,0,.59-.41,0-.4Z"/><path class="cls-3" d="M59.83,132.49a5.52,5.52,0,0,0-4.13,2.95c-.6,1.11-.43,3.3.94,3.83,2.61,1,4.74-2.13,4.58-4.48,0-.27-1-.41-1-.2.12,2.45.4,7.11,3.94,6.41s1.61-5.55-1.16-5.9c-.17,0-.62,0-.3.26,2.07,1.44,6.5-.44,6.1-3.26-.59-4.17-6.05-1.71-6.82,1.08-.07.27.85.52,1,.26.94-2.05.91-7.25-2.06-7.7a3.32,3.32,0,0,0-3.34,2.49c-.66,2.2,1.31,4.92,3,6,.21.13,1.19.18.76-.09a6.64,6.64,0,0,1-2.8-4.05c-.47-1.72,1.89-5.55,3.27-3a7.71,7.71,0,0,1,.15,6.07l1,.26a4.75,4.75,0,0,1,1.35-2.15c1.39-1.37,4-.69,3.4,1.46a4,4,0,0,1-1.44,1.82,5,5,0,0,1-1.23.7c-1.19.53-.69.64-.18,1.76,1,2.19-1.75,5-3,2.21a13.07,13.07,0,0,1-.71-4.39l-1-.2a4.67,4.67,0,0,1-2.11,4.06c-1.38.07-2-.51-1.8-1.75a3.64,3.64,0,0,1,.31-1.26,4.88,4.88,0,0,1,3.78-2.76c.52-.09-.36-.5-.61-.45Z"/><path class="cls-3" d="M60,158.28c-1.81-2.46-6.22-3-7.38.33-.44,1.28.93,2.74,2.09,3,1.89.49,3.76-.09,5.58-.64.34-.1-.53-.44-.72-.4C56.8,161.2,55,164.2,58,165.8c2.57,1.37,5.53-2.09,5.13-4.46l-1-.09c1,3.66,6.46,1,7-1.68,0-.14-.22-.23-.32-.26-2.61-.88-4.87-.47-7.47.32l.86.33c1.36-.9,2.83-4.49.39-5-2.82-.63-4.35,2.28-2.34,4.34.18.19,1.14.25.89,0a2.81,2.81,0,0,1-.89-2.06c-.1-1.53,2.44-2.53,2.64-.74a3.68,3.68,0,0,1-1.61,3.22c-.25.17.7.39.86.34,1.14-.34,7.49-2,5.34.76-.83,1.09-3.75,2.87-4.37.58-.07-.26-1-.41-1-.09.32,1.89-2.14,5.67-4.43,3.77-1.89-1.56,1.25-3.73,2.46-4l-.72-.39c-1.88.56-4.83,1.52-5.87-.87-1.32-3.05,4.09-3.39,5.5-1.47.16.22,1.12.3.89,0Z"/><path class="cls-3" d="M83.85,174.3l-.8.24.83.25a4.2,4.2,0,0,0-3.14-3.38A2.1,2.1,0,0,0,78,173c-.23,1.25,0,3.84,1.45,4.41,1.71.68,3.24.09,4.92-.46l-.67-.37c-1.73.64-4.69,3.64-2.11,5.11,3.08,1.74,4.9-1.92,5.31-4.27,0-.28-.69-.29-.83-.24l-.4.12c-.09,0-.19.07-.15.18,1.16,3.26,5.25,2.42,7.26.46.87-.85,1-1.94-.06-2.63-2.09-1.35-4.6-.17-6.62.54l.81.29c1.8-1.69,2.33-4.19-.84-4.25-2.72-.05-3.42,1.85-1.52,3.75.19.19,1.15.18.88-.09-1.22-1.23-1.69-3.14.63-3.25,2.78-.13.82,2.76-.09,3.62-.23.22.68.34.8.3,1.53-.54,4.27-2.07,5.61-.36.48.6-.16,1.42-.55,1.86a5.44,5.44,0,0,1-2.49,1.44,2.11,2.11,0,0,1-2.39-.71c-.2-.24-.61-.79-.21-.91l-.83-.24a17.44,17.44,0,0,1-.49,2.14c-.4,1.3-3.37,3.51-3.8,1-.27-1.58,1.48-3,2.75-3.49.5-.19-.44-.45-.67-.37l-1.49.5c-2.64.86-2.91-.69-3.18-2.31a6.17,6.17,0,0,1,.05-2.1q2.22-1.27,3.27.54a3.4,3.4,0,0,1,.58,1.49c0,.28.62.3.83.24l.8-.24c.5-.15-.43-.44-.67-.37Z"/><path class="cls-3" d="M55.67,183.46a25.56,25.56,0,0,1-6.29-1.7c-2.06-1,.24-3.39,2.1-2.38a14.72,14.72,0,0,1,2.26,1.68c.18.15.78.16.91-.06.79-1.25.63-2.81,1.14-4.17.59-1.55,2.1-.26,2.29.72a3.15,3.15,0,0,1-1,2.74c-.3.28.55.31.69.26,1.17-.38,2.31-.82,3.5-1.16,1.55-.44,2.66.44,1.66,2a7.07,7.07,0,0,1-2,1.65c-.3.21.65.34.87.19,1-.75,4.26-3.51,1.44-4.41-1.83-.58-4.35.84-6,1.39l.69.26c1.33-1.27,1.9-4.58-.65-4.81-3.37-.31-2.35,3.27-3.59,5.24l.91-.06c-1.69-1.41-4.76-3.86-6.6-1.36-2.29,3.11,5.78,4,7.17,4.33.3.06,1.13-.23.5-.36Z"/><path class="cls-3" d="M82.1,92.09c-2.74,1.1-5.25,6.26-1.93,8.13,1.18.66,2.64,0,3.59-.74,1.54-1.13.35-3.94.21-5.41l-1,.06c.28,1.61,1.54,3.19,3.34,2.29,2.69-1.33,1.15-4.49-.4-6.06-.22-.21-1.13,0-1,.16,1.18,1.19,2.26,2.75,1.68,4.49-.17.52-.79,1.35-1.43,1.19-.86-.22-1.11-1.42-1.23-2.13,0-.29-1-.22-1,.06.09,1,.33,1.87.47,2.81a3.67,3.67,0,0,1-.11,1.71c-.45,1.54-2.69,1.42-3.39.22-1.29-2.2.81-5.71,2.88-6.53.48-.19-.49-.34-.72-.25Z"/><path class="cls-3" d="M108.68,96.12c-3-2.58-8.07-1-6.09,3.49.06.14.26.15.39.14a25.1,25.1,0,0,0,5.32-.69l-.43-.31c-2.44.94-3.31,5.21-1,6.75.91.61,2.23.08,3.05-.38,1.81-1,1.11-4,.68-5.58-.09-.29-1-.14-1,.13a3.4,3.4,0,0,0,5.83,1.92c1.2-1.14.17-2.55-.85-3.32a2.15,2.15,0,0,0-1.3-.16c-1.92.16.15-.86.78-1.59C118,92,106,89.66,108,95.78c.1.3,1.07.1,1-.13-.87-2.6,1.25-3.84,3.57-2.74,3,1.41.16,4.22-1.46,5.31-.15.11-.16.23,0,.28,1.54.38,3.62-.29,3.85,1.93.12,1.11-1.28,1.82-2.18,1.77-1.39-.08-2-1.52-2.2-2.66l-1,.13a12.1,12.1,0,0,1,.47,3c0,1.89-2.18,3.65-3.2,1.53-.77-1.62-.28-4.46,1.53-5.15.57-.22-.15-.39-.43-.32a20.51,20.51,0,0,1-4,.59c-.83,0-.89-1.38-.93-1.89-.23-2.75,3.32-2.27,4.74-1.06.23.2,1.12-.08.94-.23Z"/><path class="cls-3" d="M117.47,128.38c-1.41-.34-7.26-2.06-7.35,1.24s5.64,1.37,7.27.85l-.65-.14c-1,1.72-1.9,5.73,1.33,5.78,2.94,0,3-2.68,2.14-4.89l-.82.28c1.83.52,6-.61,5.47-3.19-.63-2.82-5,.34-5.71,1.29-.13.18.79.19,1,0,1-1.44,2.44-7.06-.59-7.3-4-.32-5,4.51-1.93,6.61.25.18,1.11-.14.93-.26a4.44,4.44,0,0,1-1.8-3.32c-.26-2.22,2.76-3.41,3.44-1.12a6.7,6.7,0,0,1-1,5.44l1,0c.65-.89,2.43-2.37,3.59-1.34,2,1.74-3.32,3-3.67,2.89-.11,0-.91,0-.82.28.46,1.17,1.06,5.84-1.67,3.9-1.68-1.19-.64-3.65.16-5,.14-.25-.58-.17-.65-.15a24.18,24.18,0,0,1-3.36.92c-3.6.64-3.2-3.32-.08-3a24.76,24.76,0,0,1,3.2.74c.24.06,1.15-.27.65-.39Z"/><path class="cls-3" d="M117.23,156.73c-.85-.07-1-2.54-.93-3,0-.7.83-3.12,2-1.89s.84,3.84,0,5c-.21.3.7.49.9.37,1.56-1,5.54-2.86,5.42.52-.08,2.38-2.41,3.17-4.24,2-.08-.06-1-.32-.86-.05,1.14,2.07.4,3.8-2.07,3.81-.72,0-1.81-.14-2.17-.87-.47-.93,1.2-1.77,1.78-2.07.37-.19-.45-.44-.59-.45-1.73-.1-3.47.34-5.19.1s.68-2.57,1-3c1.27-1.7,3.59-.2,5.25,0,.67.1.28-.38-.15-.44-1.76-.24-3.44-1.43-5.2-.62-.82.38-2.83,2.54-2.28,3.65.91,1.82,5.51.63,7,.72l-.58-.45c-.8.42-2.49,1.28-1.9,2.45.43.85,1.7,1.16,2.54,1.31,2.85.51,5.15-1.13,3.56-4l-.86,0c2.22,1.47,5.85,1.54,6-1.93a2.44,2.44,0,0,0-1.82-2.43c-1.94-.54-3.85.44-5.47,1.44l.9.37c1.38-2,.89-6.32-2.14-6.1-2.81.2-2.14,5.91.56,6.12.64.05-.09-.45-.39-.47Z"/><path class="cls-3" d="M116.73,177.1c-1.8.52-3.56-1.23-2.51-2.84,1.5-2.29,3.57-.12,4,1.62.08.28.9.19,1,0,.45-1.23,2.53-5,4.21-3,1.34,1.52-2.12,3.57-3,4.06-.46.25.45.32.63.24,1.78-.71,3.66.47,2.74,2.18-1.19,2.21-4,.91-4.67-.84-.1-.25-.59-.16-.77-.09-1.6.53-3.09,1.32-4.69,1.86l.75.14c.6-1.17,1-2.3,2.39-2.83.6-.24-.26-.41-.54-.29-1.53.61-2.1,1.71-2.82,3.12-.14.28.66.18.75.15,1.6-.54,3.1-1.33,4.7-1.86l-.77-.1c1.08,2.7,4.28,2.93,6.27,1.19a1.68,1.68,0,0,0-.22-2.82,4,4,0,0,0-3.66-.1l.64.25c1-.55,5.63-4,2.43-5-2.61-.81-4.57,1.61-5.37,3.78l1-.05c-.73-2.7-3.39-3.89-5.64-1.94a1.89,1.89,0,0,0-.32,2.69c.93,1.2,2.66,1.23,4,.86.62-.18-.26-.38-.54-.29Z"/><path class="cls-3" d="M144.43,136.18c-1.83-2-4.5-2-4.44,1.23a2.41,2.41,0,0,0,1.58,2.42c1.52.51,2.91-1,3.77-2l-1-.21c-.94,2-1.15,5,1.32,5.75,2.92.93,4.51-2.05,3.52-4.45a3.4,3.4,0,0,0-1.07-1.36c-.88-.64,1.15-1.05,1.8-1.44.44-.26,1.32-1,.8-1.63-1.28-1.43-3.75-.54-4.95.47l1,.21c.15-1.64-.26-5.95-2.48-6.07-1.35-.07-2.05,1.55-2,2.66.05,1.86,1.92,3.53,3.57,4,.41.12,1-.15.32-.34a4.42,4.42,0,0,1-2.92-4.05c0-1.3,1.18-2.17,1.77-.83a9.67,9.67,0,0,1,.78,4.44c0,.32.79.36,1,.22.56-.48,4-1.64,2.95.06-.59.93-2.25,1.32-3.22,1.64-.16.05-.06.21,0,.25a3.87,3.87,0,0,1,2.14,3.14c.16,1.24-1.74,4.49-3.51,2-.9-1.23-.37-3.33.22-4.57.11-.23-.8-.39-1-.21-.43.5-1.93,2.42-2.75,1.79a2.52,2.52,0,0,1-.67-1.78c-.16-2,1-3,2.56-1.33.18.19,1.14.22.89-.06Z"/><path class="cls-3" d="M160.27,94c-1.55-2-6.87-4.16-7,.12-.1,3.52,3.94,2.76,5.57,1.19.24-.22-.68-.44-.85-.36-2.16,1-3,5.26-.48,6.31,2.94,1.21,4.16-2.08,3.6-4.58-.06-.27-.68-.32-.88-.26l-.33.1a.11.11,0,0,0-.08.14c.46,3,5.78,2.6,6.79.18,1.48-3.56-3.73-3.14-5.42-1.77-.22.17.68.49.91.33,1.64-1.1,4.57-4.18,2.06-6-1.75-1.25-3.37.66-3.67,2.31-.05.29.89.51,1,.24.52-1.81,1-3.69-.58-5a2.58,2.58,0,0,0-2.46-.41c-2.78,1.6-1.54,6.66,1.23,7.62.41.14,1-.09.35-.31-1.73-.6-2.41-3.57-2-5.12.57-2.35,3-1.74,3,.52a8.53,8.53,0,0,1-.49,2.49l1,.24a3.78,3.78,0,0,1,.81-1.83c1-1.35,2,.6,1.77,1.6-.31,1.34-1.75,2.59-2.85,3.33l.91.33c1.22-1,4.16-1.6,3.7.82-.16.83-1.08,1.38-1.75,1.7a4.6,4.6,0,0,1-1.64.36c1.73-.1-2.72-1-1.39-1.46l-.87-.26a5.92,5.92,0,0,1,0,2.14c-.14,1-1.41,4-2.91,1.59a4,4,0,0,1,1.52-4.94l-.85-.37c-1.29,1.24-3.2,1.84-3.66-.36-.68-3.28,3.7-2.42,5.12-.63.16.2,1.12.3.88,0Z"/><path class="cls-3" d="M184.24,101.25c-2.17-1-7.61-1.38-6.73,2.51.28,1.26,1.68,1.89,2.81,2.09,1.82.33,3.32-1,4.37-2.27.2-.24-.73-.44-.93-.27-2.72,2.42-.1,6.7,3.17,6.54s3-5.78-.1-6c-.11,0-.44,0-.39.18.79,2.75,5,2,6.53.5a1.94,1.94,0,0,0-.72-3.16c-1.65-.71-3.61-.25-5.26.23l.73.37c1.84-.8,3.81-4.31,1.17-5.44-2.19-.94-3.28,1.6-3.32,3.41,0,.3,1,.43,1,.17.11-2-.14-6-2.76-6.13-4.31-.28-1.33,6.53-.77,8.22.07.23.62.29.8.24l1-.3c.51-.16-.4-.48-.65-.4l-1,.29.8.24c-.69-2.12-2.73-5.64-.7-7.48,1.81-1.63,2.34,4.28,2.29,5.15l1,.17a4.87,4.87,0,0,1,1-3l1.6,1.1a3.13,3.13,0,0,1-.19,1.09,3.66,3.66,0,0,1-2.07,2.28c-.36.16.54.43.73.38a14.7,14.7,0,0,1,2.54-.53c2.41-.27,2.81,1.5,1.86,2.79a3.64,3.64,0,0,1-2.15,1.12c-2.73.63-2.73-2.27-1.75.26.79,2-1.09,5.46-3.58,2.75a3.35,3.35,0,0,1,.13-4.81l-.93-.27c-1.26,1.56-4.17,3.28-5.28.51-1.18-2.93,3.72-3,5.2-2.32.28.13,1.15,0,.56-.25Z"/><path class="cls-3" d="M217.93,113.24a4.74,4.74,0,0,1-2-2.38c-.52-1.09.08-4.79,2.17-2.28a7,7,0,0,1,1.1,5.13c-.06.29.83.59.94.32a7.65,7.65,0,0,1,2-2.48c.88-.76,4.62-2.67,4.46,0-.09,1.57-3.47,2.36-4.65,2.72-.38.11.49.5.67.47,1.18-.14,3.2-.28,3,1.4a3.92,3.92,0,0,1-1,1.89,5.16,5.16,0,0,1-1.78,1.37c-1.53.71-2-.88-2.13-2,0-.28-1-.51-.95-.2.19,1.61-1.77,3.28-3.12,3.78-.92-.42-1.21-1-.88-1.62a3.23,3.23,0,0,1,.88-1.06,4.74,4.74,0,0,1,3-1.21l-.67-.48c-1.39.4-5.21,1.61-6-.29-1.3-3.12,4-1.9,5.3-1.49.56.17.69-.21.13-.38-1.72-.53-7.92-2-6.23,2,1,2.41,5.87,1.11,7.57.61.4-.12-.52-.48-.67-.48-1.94,0-6.63,3-3.27,4.64,2.07,1,5.13-1.69,4.89-3.83l-.95-.2c.51,3.44,3.63,3.59,5.74,1.26,2.82-3.13-.67-4.53-3.52-4.18l.67.48c1.22-.37,7.19-2.51,4.05-4.44-2.83-1.73-6.39.74-7.6,3.43l.94.32c.48-2.53-.53-6.26-3.44-6.66-1.42-.19-2.1,1.06-2,2.26a5.27,5.27,0,0,0,2.86,3.89c.39.2,1,0,.38-.28Z"/><path class="cls-3" d="M219.86,79.78c-1.87.45-8.24,1-6,4.46,1.28,2,4.7-.18,5.91-.93.36-.22-.54-.45-.72-.4-2.69.75-1.41,5,.69,5.79,2.88,1,4.34-3.92,2.57-5.63l-.89,0c1.72,1.52,4.68,2.28,6-.15,1.65-3-4.06-2.08-5.06-1.76l.81.37c1.79-.9,2.84-2.89.6-4.08-1.29-.68-2.7-.54-2.29,1.22l1,.09c-.85-2.77-2-4.76-5-3.27-.06,0-.1.06-.08.14.55,2,.69,4.6,2.88,5.45.28.11,1.17,0,.56-.24-1.63-.64-1.9-2.73-2.24-4.19s1.51-1.38,2.14-.28a11.86,11.86,0,0,1,.81,2.3c.09.27,1,.4,1,.09-.37-1.54,1.07-1,1.56-.13.63,1.2-.79,2.1-1.65,2.53-.37.19.6.44.81.37,1.22-.39,4.13-.89,3.27,1.19-.73,1.78-2.94,1.39-4.15.33-.18-.16-1.15-.23-.89,0,1.3,1.25.68,3.54-.36,4.72-1.59,1.81-4.09-3.73-1.37-4.48l-.72-.39c-.51.31-1,.62-1.52.92-1.43.84-3.75.1-2.55-1.74s3.86-1.49,5.63-1.92c.51-.12-.38-.48-.63-.42Z"/><path class="cls-3" d="M248.44,80.79c-2.6-1.88-6.06-1.15-6.11,2.55-.05,4.13,5.45,1.25,6.94.33.35-.22-.6-.44-.81-.34-4.49,2,2.24,6.64,2.58,2.25l-1-.11c.75,1,2.11,2.45,3.58,1.88,2-.79,1.67-3.27.47-4.62-.18-.2-1.14-.23-.89.06a3.12,3.12,0,0,1,.85,2.75c-.33,2.08-2.17,1.19-3,0-.11-.15-.95-.43-1-.1-.11,1.44-1.05,2.16-2,.71-.71-1.11.22-2,1.19-2.46l-.81-.34c-1.37.84-4.8,3.12-5.14.17A2.68,2.68,0,0,1,247.7,81c.2.15,1.17.14.74-.16Z"/><path class="cls-3" d="M260.55,113.63c-1.36-.36-3-.36-3.95-1.55-1.3-1.65,1.17-3.92,2.35-1.93.14.23,1.08.15,1-.15a4.59,4.59,0,0,1,1.64-5.42c2.41-1.39,3.21,4.11,2.4,5.39-.15.22.8.3,1,0,1.2-1.88,0-6.26-2.68-6-2.91.27-4.31,3.57-3.29,6.15l1-.15c-.92-1.55-3.11-1.3-4.26-.16-.85.85-.38,1.93.25,2.72.81,1,2.81,1.09,4,1.39.24.06,1.19-.19.7-.32Z"/><path class="cls-3" d="M207.24,141.82c-1.28.26-2.17-.12-3.12.92a2.45,2.45,0,0,0-.47,2.87c.53.77,1.95.44,2.65.2,1.37-.47,2-2.1,2.44-3.36l-1,.06c.55,2.71,2.89,2.18,4.29.4.48-.6,1.23-1.76.81-2.55s-2.12-.05-2.64.21.36.32.52.28c1.57-.43,5-2,2.52-3.77a3,3,0,0,0-4.51,1.49l1,0c-.4-1.59-1.37-3.21-3.22-2.81-2.12.45-.77,3,.05,4l.95-.21c-1.05-.85-4.33-1.73-5.12-.06-.46,1,1.23,2,1.92,2.21,1.31.43,2.9-.08,4.15-.46.62-.18-.25-.37-.54-.29-1.6.48-3.93.89-4.56-1.17-.44-1.44,2.74-.4,3.2,0,.19.15,1.15,0,.95-.21-.69-.82-1.53-2-1-3.11.73-1.47,2.13,1.91,2.22,2.24s.9.19,1-.05c.48-1.48,1.89-2.08,3.06-.88,1.41,1.46-1.39,2.54-2.34,2.8l.52.28c1.71-.85.83,1.09.33,1.85a4.16,4.16,0,0,1-1.32,1.32c-.77.46-1.12-1.06-1.21-1.54-.06-.28-.91-.18-1,0a10.32,10.32,0,0,1-.75,1.78c-.56,1-2.55,2.1-2.68.36a2.91,2.91,0,0,1,1.09-2.17c.35-.31,1.61-.14,2.12-.25.67-.13.11-.44-.31-.35Z"/><path class="cls-3" d="M177.42,152.28c-2.14.4-4.83-1.8-2.82-3.67s2.5,1.51,2.82,2.69c.07.26.89.28,1,0,.48-1.28,1.93-3.37,3.51-1.94,1.2,1.09-1.41,2-2,2.12l.52.33c.9-.26,3.06-1,3.36.39a3.16,3.16,0,0,1-.82,2.17,6,6,0,0,1-2,1.77c-1.38.73-1.85-.75-2-1.84l-1,0c.55,2.54-2.09,3-4,3.61l.74.11c-1.14-2.29.31-3.8,2.29-4.85.47-.24-.48-.38-.71-.26-2.15,1.13-3.77,2.76-2.54,5.24.09.19.58.14.73.1,2-.6,5.08-1.21,4.48-4-.07-.29-1-.24-1,0,.48,3.61,3.87,2.51,5.67.5.68-.77,1.64-2.25.88-3.25-.91-1.21-3.51-.41-4.61-.1-.62.18.23.41.52.33,1.12-.31,4.38-2.08,1.72-3.05-2.13-.77-4,.43-4.73,2.46l1,0c-.33-1.23-.53-3.05-1.9-3.56a3.29,3.29,0,0,0-3.13,1c-2.5,2.32,2.47,4.25,4.31,3.91.67-.12.15-.45-.28-.38Z"/><path class="cls-3" d="M176.62,133.46c0-1.66,1.29-2.12,2.51-1.09s0,2.31-1,2.88l.82.12c1.53-1.36,1.66,1.09,1.3,2.06a2.93,2.93,0,0,1-1.63,1.61c-1.78.78-3.05-.25-3.36-1.93,0-.22-.54-.13-.66-.09l-2.63.8.65.14a2.6,2.6,0,0,1,1.69-1.86c.06,0,.25-.11.22-.2-.11-.38-.89-2.1-.47-2.37.86-.55,1.87-.87,2.74-1.43.44-.28-.53-.3-.75-.16-1,.63-2.1,1-3.09,1.65,0,0-.14.09-.12.16l.48,1.56c.18.61.15.54-.32.85a3.25,3.25,0,0,0-1.35,1.85c-.09.27.54.18.64.15l2.63-.8-.65-.09c.64,3.47,5.4,2.95,6.85.33.48-.87.56-2.32-.34-2.95s-2.06.07-2.72.65c-.3.27.68.2.82.12.86-.48,1.85-1.15,1.81-2.25,0-.82-.92-1.39-1.59-1.65-1.68-.63-3.45.21-3.43,2.09,0,.26,1,.16,1-.15Z"/><path class="cls-3" d="M167.31,60c-1.08-.23-2.16-.14-2.64,1.06s-1.38,3.43,0,4.36c2.06,1.37,4.73-1,5.09-3,.06-.28-.71-.24-.83-.21l-.33.1c-.1,0-.18.08-.15.19,1.34,4.67,7.9,2.06,4.44-1.51l-.7.22c1.24.42,3.15,1,4.44.47a.92.92,0,0,0,.61-1.26c-.62-1.5-1.75-1.4-2.74-2.43-.19-.19-1.15-.14-.88.14,1,1,2.39.91,2.7,2.61.25,1.37-3,.37-3.6.17-.13,0-1-.08-.71.21.88.91,1.45,2,.55,3.1-1.77,2.12-3.22-1.59-2.95-1.67l-.84-.21c-.22,1.15-1.91,3.78-3.44,2.76-1.22-.81.23-5.08,1.68-4.76.42.09,1-.22.29-.37Z"/><path class="cls-3" d="M168.57,59.14c.51,1.12,2,1.59,2.58.3a.82.82,0,0,0-.23-1.12,1.88,1.88,0,0,0-2.09.29c-.22.15.62.59.87.43a3.48,3.48,0,0,1,.71-.38l.21-.06c.09,0-.26-.07-.33-.16.12.15,0,.46-.06.61a1.28,1.28,0,0,1-.48.62c-.18.12-.28,0,0,.13a1.52,1.52,0,0,1-.27-.43A.77.77,0,0,0,169,59s-.5-.07-.41.11Z"/><path class="cls-3" d="M135,83c-1.89.59-3.51,1.38-4,3.45a1.61,1.61,0,0,0,1.4,1.81c1.66.34,4.59-.09,4.7-2.25h-1c.45,2.47,2.38,3.74,4.49,2,2.39-2,.44-3.52-1.92-3.16-.43.06-.46.33,0,.38,1.48.19,7.12-.23,5.95-3-.93-2.23-4.61-1-5.95.15l.91.16c1.77-1.73,2.25-5.56-1.22-5.28s-5.28,3.6-1.46,5.2c.1,0,1.05,0,.84-.18-1-1.07-4.57-3.17-5.89-1.43a2.21,2.21,0,0,0,.91,3.35c1.13.59,2.77.14,3.83-.35.48-.22-.47-.39-.7-.29-3.87,1.76-4.61-3.38-1.7-2.73a5.2,5.2,0,0,1,2.58,1.54l.84-.18a2.88,2.88,0,0,1-2-2c-.46-1.8,2.55-2.93,3.76-2.25,1.79,1,.15,3.59-.77,4.48-.17.17.73.32.92.17,1.24-1,5.12-1.79,3.94.91-.45,1-2.12,1.29-3.07,1.41-2,.25-.23,0,.23.68s-.34,1.65-.73,2.1c-1.46,1.65-2.52-.08-2.79-1.58-.05-.28-1-.3-1,0-.08,1.65-2.71,2.72-3.89,1.49-1.7-1.77,2.51-3.88,3.51-4.19.49-.16-.46-.37-.7-.3Z"/><path class="cls-3" d="M133.78,113.05c-.63.16-5.45.82-5.44-1.23,0-2.45,4.09.24,4.76.62.13.07,1.11.21.82-.07a5.17,5.17,0,0,1-1.65-4.49c.3-2,3.24-1.48,3.36.46a3.09,3.09,0,0,1-.94,2.3.08.08,0,0,0,0,.1c0,.11.07.22.1.33.08.26.76.37.94.21,1.1-1,5.15-3.55,5.15-.25,0,.94-1.11,1.67-1.81,2.06-1.06.6-.54.88-.15,1.81a4,4,0,0,1-.8,4.25,2.39,2.39,0,0,1-4-2.37,13.2,13.2,0,0,1,1.4-2.62l-1-.22a3.92,3.92,0,0,1-1.14,1.86c-.75.73-4.07,1.6-2.72-.43.65-1,2.54-1.19,3.52-1.85.19-.13-.66-.48-.92-.31-1.65,1.11-3.83,1-4,3.41,0,.15.21.23.32.27a4.44,4.44,0,0,0,5.94-2.73c.08-.28-.83-.46-1-.22-1.1,2-2.8,4.74.1,6.12a4.25,4.25,0,0,0,4.66-.93c2.09-2.1.2-7.19-3-5.77-.27.12.12.31.23.35,2.14.8,5.93-.72,5.16-3.44-.88-3.1-5.67-.39-6.9.7l.94.2c-.1-.31.64-1.34.76-1.71a3.42,3.42,0,0,0-.16-2.25,2.54,2.54,0,0,0-2.46-1.34c-3.71.29-2.93,4.56-.84,6.51l.82-.07c-1-.57-5.34-3.66-6.26-1.27-1.22,3.15,5.2,2.84,6.83,2.44.51-.13-.39-.49-.64-.43Z"/><path class="cls-3" d="M115.21,72.08c-1.46.47-2.48,1.15-2.79,2.73-.21,1-.16,2.33.93,2.84,2,.9,3.88-1.22,3.41-3.09h-1c.83,1.23,2.6,2.48,3.84,1a1.94,1.94,0,0,0-1.32-3.21l-.15.39c1.57.1,4.83.13,5.63-1.66s-3.82-1.37-4.37-1.31-.18.44.25.39,3.93-.41,3,1-3.26,1.25-4.53,1.17c-.44,0-.72.31-.15.38,1.88.23,1,5.05-1.27,1.79-.13-.18-1-.24-1,0a2.42,2.42,0,0,1-.21,1.88c-.33.61-1.28,1.38-1.88.68s-.33-1.83-.18-2.57c.24-1.25,1.33-1.77,2.42-2.12.49-.16-.46-.38-.7-.31Z"/><path class="cls-3" d="M139.78,62.53a4.94,4.94,0,0,0-3,1.88,1.23,1.23,0,0,0,.61,2c2.31.46,3.93-1.4,5-3.24l-1,.15a3.12,3.12,0,0,0,4.34,1.2,1.89,1.89,0,0,0-.15-3.58c-.25-.1-1.15.2-.82.34,1,.43,1.55,1.18,1.06,2.23-.85,1.81-2.72.78-3.5-.45-.15-.23-.84,0-.95.16A8.87,8.87,0,0,1,139,65.93c-1.34,1-1.61-.61-1.41-1.25.36-1.12,1.53-1.51,2.53-1.82.65-.2.09-.46-.32-.33Z"/><path class="cls-3" d="M242.57,113.88c-1.3.18-5.2-.67-4.25-2.87,1.56-3.6,4.22,1.22,4.69,2.15.12.25.91.22,1,0,.47-1.65,2.08-3.14,3.66-1.45,1,1.09-1.05,1.69-1.81,1.93-.11,0-.23.16-.08.24a3.81,3.81,0,0,1,1.8,4.3c-.24,1.52-1.76,3.36-3.73,2.06-1.53-1-.67-2.66.43-3.49.32-.24-.67-.32-.86-.2-1.16.68-6.44,3.86-6.64.92-.14-2,4.49-2.63,5.85-2.73.68,0,.15-.42-.27-.39-1.76.13-8.12,1.23-6.23,4.19,1.47,2.29,6.74-.95,8.15-1.79l-.86-.2c-2.79,2.08-.3,5.48,2.7,4.48,1.94-.65,2.66-2.49,2.53-4.43a3.81,3.81,0,0,0-1.1-2.31c-.83-.92.75-1,1.62-1.53a.12.12,0,0,0,0-.16c-1.6-3.15-5.25-2.84-6.21.56l1,0c-1.38-2.76-3.28-4.33-6.25-2.54-1,.62-.41,1.86.25,2.46a5.81,5.81,0,0,0,4.87,1.28c.67-.09.16-.45-.27-.38Z"/><path class="cls-3" d="M196.42,71.21c-1.62,0-5.74.87-6.14-1-.44-2.13,3.54-1.22,4.27-.83a15.69,15.69,0,0,1,1.87,1.26c.15.1,1,.26.93-.09-1.4-5.28,7.43,0,1.76.53l.55.33a3.57,3.57,0,0,1,4.64,4.94c-1.53,2.49-5.35-.27-5.86-2.19-.06-.24-1-.26-1,0,.32,2.3-2.89,3.61-4.63,4.2l.84.2c-.25-1.69,1-2.62,2.43-3.17.51-.18-.41-.37-.58-.35a29.14,29.14,0,0,1-4.17.22c-2.17-.06-2.65-1-1.4-2.61,1.54-1.94,4.88-1.57,7-.92.29.09,1.14-.12.52-.31-3.47-1.08-8.72-1-9.43,3.46,0,.11.17.17.23.19a17.76,17.76,0,0,0,7.78.35l-.59-.36c-1.56.58-3,1.59-2.74,3.43,0,.28.65.26.84.2,1.84-.62,5.29-2,5-4.45l-1,0c.77,2.9,5.61,4.74,7.78,2.33,1.37-1.52.16-4.2-1.36-5.1a5.25,5.25,0,0,0-5.08-.28c-.34.16.44.34.54.33.93-.07,2.42-.12,2.84-1.13s-1.27-1.82-1.85-2.11c-2.25-1.16-4.74-.58-4,2.34l.92-.08c-1.79-1.31-5.49-3.81-7.48-1.32-1,1.21-.23,1.9,1,2.46,2,.92,3.57-.09,5.6,0,.58,0,.62-.38,0-.4Z"/><path class="cls-3" d="M161.44,127.61c-1.17.26-4.42-.24-3.94-2.06.35-1.35,2.84-.86,3.49-.42l.67-.14c-1.45-.76-2.44-2.17-1.89-3.82.88-2.63,2.52,1.3,2.79,2.26.07.27.81.45,1,.21a4.84,4.84,0,0,1,1.32-1.19,7.05,7.05,0,0,1,1.18-.7c.57-.28.47-.35.43.2-.13,1.82-2.74,1.22-3.49,2.74-.05.09.14.2.19.23a3.74,3.74,0,0,1,1.77,1.56c.46,1-1.36,1.49-1.95,1.61a4.72,4.72,0,0,0-2.4,1.59l.93.31a6.73,6.73,0,0,1,.92-1.71c.11-.18-.79-.54-1-.26a6.38,6.38,0,0,0-.91,1.71c-.08.27.77.48.93.31a5.52,5.52,0,0,1,1.78-1.36c.66-.32,1.19-.12,1.8-.56s1.22-1.08.66-1.83-2.54-1.61-.63-2.33c.8-.29,1.74-.22,2.16-1.09.54-1.13-.12-1.85-1.25-1.77a5.51,5.51,0,0,0-3.43,2.28l1,.2c-.44-1.56-1.75-4.82-4-3.6a2.36,2.36,0,0,0-.85,2.32,4,4,0,0,0,2.41,2.89c.17.09,1.1.15.66-.14-1.25-.85-4.7-1.69-5.26.45-.24.91,1.18,1.76,1.82,2a6.17,6.17,0,0,0,3.92.48c.34-.07-.52-.48-.78-.42Z"/><path class="cls-3" d="M145.74,164.36c-1.22-1.08-1.62-2.82-3.52-2.85-.11,0-.35,0-.39.15-.32,1.33,0,2.52,1.37,3a5.59,5.59,0,0,0,3.83-.45c.32-.14-.59-.41-.83-.3a3.61,3.61,0,0,1-2.77.35c-.92-.43-.8-1.62-.6-2.43l-.39.15c1,0,1.73,1.92,2.42,2.52.19.18,1.15.15.88-.09Z"/><path class="cls-3" d="M148.29,156.18a3.64,3.64,0,0,0-2.84-2.74,2,2,0,0,0-2.69,1.59c-.15,1.93,4.18,1.47,5.23,1.63.67.1.25-.38-.17-.44a17.29,17.29,0,0,0-1.9-.11c-.59,0-1.57,0-2-.39-.69-.66.45-1.77,1-1.89,1.17-.24,2.24,1.22,2.39,2.22,0,.27,1,.44,1,.13Z"/><path class="cls-3" d="M199.15,104.89c-.54.16-1.41.28-1.35,1,.13,1.62.12,3.26.37,4.87s1.12,3.42,3,3.49,3.15-2.05,3.81-3.49a9,9,0,0,0-.31-8.12.87.87,0,0,0-.88-.27l-1,.3a.11.11,0,0,0-.08.14c.13.43.14,1,.6,1.22a11,11,0,0,0,2.5.71,4.51,4.51,0,0,0,3.47-.88,3.82,3.82,0,0,0-.24-5.84,4.89,4.89,0,0,0-3.3-.72,8.28,8.28,0,0,0-2.73.86,4,4,0,0,1-2.06.34,2.72,2.72,0,0,0-3,2.29c-.22,1.75,1.84,2.59,3.18,2.88.07,0,.63.11.53-.12a4,4,0,0,0-1.79-1.87c-.27-.15-1.14-.11-.58.21a3.25,3.25,0,0,1,1.41,1.52l.53-.12c-1.81-.4-3-1.93-1.78-3.55.81-1,2-.38,3.07-.7,2.14-.65,5.19-2.63,6.67.16a3.69,3.69,0,0,1-.66,4.15,3.44,3.44,0,0,1-2.68,1c-1.13,0-3.21-.95-1.28-1.53l-.87-.27a8.85,8.85,0,0,1-1.5,10.57c-2.07,1.89-2.94-1-3.2-2.66-.18-1.2-.08-2.42-.2-3.62s.05-1.2,1.08-1.51c.34-.1-.53-.49-.78-.41Z"/></svg>