<svg id="layer1" xmlns="http://www.w3.org/2000/svg" viewBox="0 0 351.82 208.38"><defs><style>.cls-1{fill:#492d0c;}.cls-2{fill:#dd1721;}</style></defs><path class="cls-1" d="M55.05,59.65c23.53-.19,47.05-1.31,70.58-1.62q32.85-.45,65.69-.51c22.43-.06,44.87,0,67.31.31q6.48.11,13,.26c2.28.06,4.39-.89,4.84,1.56a102.29,102.29,0,0,1,1.08,13.2c1,19.54,1.14,39.14,1.31,58.71.12,14.59.45,29.26-.09,43.85l1.33-.71q-79,.92-158,1.56-21.28.17-42.57.24-7.61,0-15.22,0l-5.57,0c-1.76,0-2.59.51-2.69-.58-1.49-15.61-1.37-31.53-1.62-47.19-.12-7.67.43-15.48-.08-23.13-.57-8.44-.56-16.92-.41-25.37.07-3.92.21-7.84.35-11.76.11-3.32-.6-6.87,1.92-9.2.86-.79-1-.9-1.57-.41s-2,1.33-2,2q-.24,5.88-.44,11.75c-.28,8.51-.39,17-.16,25.51.25,9.53.29,19,.41,28.56.2,16.22.48,32.53,1.57,48.72.22,3.25,2.36,2.31,5.24,2.34q7,0,13.91,0c14.08,0,28.16-.11,42.23-.21q81.86-.57,163.71-1.6h.24c.38,0,1.31-.17,1.33-.71,1.07-28.74.17-57.74-.63-86.49-.18-6.63-.4-13.26-.79-19.89-.2-3.53-.17-7.41-1.15-10.84-.3-1-.93-1-1.92-1-4.47-.14-8.94-.23-13.42-.31-10.41-.19-20.83-.28-31.24-.33q-44.37-.24-88.73.28c-29,.29-58,1.58-87,1.81C55,58.44,53.74,59.66,55.05,59.65Z"/><path class="cls-2" d="M205.62,115a39,39,0,1,0-39,39A39,39,0,0,0,205.62,115Z"/></svg>