<svg id="layer1" xmlns="http://www.w3.org/2000/svg" viewBox="0 0 236.27 140.89"><defs><style>.cls-1{fill:#4c85d8;}.cls-2{fill:#492d0c;}</style></defs><path class="cls-1" d="M217.15,40.19l-.39.06h0c-13.39,2.15-26.1,7.27-39.07,11.07-10.42,3.05-5.55,15.36-2.74,23.17-.69,0-1.38.13-2.07.22a27.25,27.25,0,0,0-8.24,1.06c-1.79.52-3.49,1-5.15,1.44-4.1-2.85-8.37-5.49-12.45-8.4-5-3.6-9.45-7-14.95-8.66l-.34-.2a4.71,4.71,0,0,0-3.25-2.37,6.71,6.71,0,0,0-2.48-.14c.08-.79.14-1.58.17-2.38,0-1.07-4.28-.83-4.89-.44C114,59.4,110.6,69.56,106,76.82c-2.67-.07-5.34-.08-8-.08-.74,0-.53,1.05,0,2.13q-4.89-.39-9.8-.48a26.58,26.58,0,0,0-2.47-2.27c-2-5.43-5-10.61-9.21-13.78-.07-.18-.15-.36-.22-.55a1.46,1.46,0,0,0-1-.81,12.35,12.35,0,0,0-1.65-1.91c-1.15-1.08-3.5-.21-4.1,1.11a50.35,50.35,0,0,1-5.51,9.17,37,37,0,0,0-4.12,5.27c-.71,1.06-.26,1.71.58,2-.15.43-.3.86-.43,1.31-1.5-.06-3-.11-4.52-.12a2.81,2.81,0,0,0-1.1.2l-3.05-.8a2.69,2.69,0,0,0-2,.23c-.48-.24-1-.5-1.44-.77a2.49,2.49,0,0,0-3.24.51c-2.28-.37-4.1,2.1-1.52,3.38a149.66,149.66,0,0,0,18.53,8A79.43,79.43,0,0,0,75,94.44a2.37,2.37,0,0,0,2.22-.24,9.84,9.84,0,0,0,3.48,2.33,3.19,3.19,0,0,0,2.16.41,3.6,3.6,0,0,0,3.83,1.41l.29.14a1.09,1.09,0,0,0,.69.41l2.44,0a1.93,1.93,0,0,0,2.09,2.4c1.83,0,3.64,0,5.44-.08a11.43,11.43,0,0,0,2.06.91c.35.12.43-.29.47-.51s0-.35,0-.53c1.9-.12,3.8-.31,5.7-.62a1.52,1.52,0,0,1,.2.06.3.3,0,0,0,.36-.16,2.38,2.38,0,0,0,1.23-.76c5.13-.25,10.21-1,15.3-1.61a6.2,6.2,0,0,1,3.46,2.07,66.4,66.4,0,0,0,4.49,9.81,9,9,0,0,0,1.35,1.72l.12.16c1.53,1.81,1.37,0,.93-1.41h0c.15.25.34.52.53.79.62,1.45,2,3.7,2.31,2.83s.58-1.93.85-2.9c4.27-3.18,6.39-9.11,7.57-14.35a51.1,51.1,0,0,0,7.73,2.85,37.46,37.46,0,0,0,6.15,1.57,9.84,9.84,0,0,0,1.67,0l.87.2c4.22,3.42,8.48,6.79,13.81,8.49a15.2,15.2,0,0,0,3.24,0l1.59.81a25.62,25.62,0,0,0,2.81,1.44,2.49,2.49,0,0,0,.53.12c.74.31,1.49.59,2.26.83.43.14,4.77.42,4.2-.36a11.87,11.87,0,0,0-2.68-2.61c1.11,0,2-.28,1.88-.6-1.18-2.18-2.31-4.47-3.33-6.84a96.8,96.8,0,0,0-3.27-16.93,14.34,14.34,0,0,0,2.41.36c.42,0,.82,0,1.23-.06l.51,0c.15,0,2.7,0,2.53-.47.67-.14,1.35-.31,2.05-.52.28-.08.4-.2.28-.45-.22-.42-.46-.81-.7-1.2a4.69,4.69,0,0,0,.86-.45l.31-.25c1.21,0,2.45-.21,1.69-.67-.12-.07-.24-.16-.36-.24a27.4,27.4,0,0,1,2.89-.82,9.4,9.4,0,0,0,2.53-.39.41.41,0,0,1-.11-.07l1-.17c.48-.07,1.08-.35.44-.72a46.37,46.37,0,0,0-9-4,24.07,24.07,0,0,0-7.17-2.69,4.82,4.82,0,0,0-.87-.06,48,48,0,0,0-.84-7.35c-.05-1-.13-2-.25-3a19.54,19.54,0,0,0,2.18-.89,1.4,1.4,0,0,0,1.18-.2c.78-.63,1.58-1.24,2.38-1.85s1.69-1.17,2.52-1.8a106,106,0,0,1,30.1-13.8C221.73,43.42,218.5,40,217.15,40.19ZM168.21,77l.18,0-.75.11C167.83,77.05,168,77,168.21,77ZM128.78,98.33c-.1-.3-.21-.59-.32-.88l.52,0c.11.67.2,1.35.27,2C129.1,99.07,128.94,98.7,128.78,98.33ZM125.5,67.59l-.66,1.1-.09,0c.18-.33.36-.68.52-1Zm6.19,12a10,10,0,0,0,1.45.11,11.37,11.37,0,0,0,1.2.8l-6.06-.32a5.73,5.73,0,0,1,1-.58A7.72,7.72,0,0,0,131.69,79.58Zm-7.26.44c-.66,0-1.31,0-2-.06.49-.62,1-1.24,1.45-1.89A3.61,3.61,0,0,0,124.43,80Zm4.3,10.17-.09,0,.11,0Zm13.48-.64.48.36-.68-.32Zm31.16-6.09.83-.11c0,.64.08,1.27.15,1.91C174,84.66,173.69,84.06,173.37,83.46ZM176.15,58a1.47,1.47,0,0,0-.1.13,1,1,0,0,1,.09-.18S176.15,58,176.15,58ZM96.44,83.64c-.32-.13-.64-.25-1-.36l3.5.26ZM123,93.49l.44.05-.37,0Zm39.57-14.94-.05,0c-.92.39,1.22.79,2.7.93-.44.18-.87.37-1.3.58l-.33.11c-.63-.49-1.26-1-1.9-1.43Z"/><path class="cls-2" d="M42.7,76.87H41.45c-.41,0-2.21,1-1.25,1H82.37c.41,0,2.21-1,1.25-1H41.45c-.41,0-2.21,1-1.25,1h1.25c.41,0,2.2-1,1.25-1Z"/><path class="cls-2" d="M38.75,80.83c18.72,4.64,33.82,18.71,53.43,20.49.4,0,1.44-.24,1.33-.82a42.93,42.93,0,0,0-11-22c-.48-.51-2.32.21-1.79.76A42.45,42.45,0,0,1,91.58,101l1.34-.83c-19.39-1.76-34.46-15.85-53-20.43-.64-.16-2.28.8-1.18,1.07Z"/><path class="cls-2" d="M106.79,82.15c25.26,16.06,55.44,21.75,81.86,35.47.54.28,1.74,0,1.73-.75-.23-9.38-3.48-18.57-6.41-27.39-1.48-4.49-2.55-9.46-8.08-10-8-.72-16.37.62-24.38,1-11.34.56-22.7.55-34,.55-.78,0-2,1.18-.73,1.18,18.1,0,36.08-.8,54.15-1.62,2.88-.13,5.87-.27,8,1.92,2.38,2.41,3,7,4,10.12,2.61,8,5.31,16.27,5.52,24.72l1.72-.75c-26.42-13.72-56.6-19.41-81.85-35.47-.58-.37-2.35.46-1.53,1Z"/><path class="cls-2" d="M107.15,80.13c3.5-10.66,15.87-16.37,15-28.74l-1.87.59c15.52,9.91,30.62,20.5,46.38,30,.49.3,2.12-.49,1.82-.67-15.77-9.51-30.86-20.1-46.38-30-.36-.23-1.92,0-1.88.59.85,12.27-11.52,18-15,28.56-.14.42,1.74.18,1.91-.33Z"/><path class="cls-2" d="M94.89,98.54q9.44-.58,18.88-1.06c1.92-.1,3.85-.18,5.77-.25,2.88-.1,2.76,1.46,3.84,4.07a47.38,47.38,0,0,0,9.2,14.83c.37.4,1.32,0,1.66-.23,5.33-4.33,8.33-10.69,13.65-15,.84-.69-1.09-.62-1.54-.26-5.32,4.32-8.32,10.69-13.64,15l1.67-.24c-5.18-5.46-8.09-12.1-10.85-19-.09-.22-.38-.26-.58-.26-9.1.06-18.21.8-27.29,1.37-.66,0-2.06,1.1-.77,1Z"/><path class="cls-2" d="M164.74,75.42a92.42,92.42,0,0,0,13.9-2.77c.3-.09.77-.29.83-.65,1-6.72-1.32-12.76-2.74-19.25l-1.08.85c17.84-1.6,34-9.39,50.74-15.06l-.93-.73C211.9,49.4,187.43,50.69,179,68c-.43.89,1.51.72,1.82.09,4.49-9.15,14.79-13.51,23.59-17.48,7.82-3.53,16.08-6.74,22.67-12.38.7-.6-.49-.89-.93-.74-16.57,5.62-32.57,13.38-50.21,15-.38,0-1.2.33-1.09.85.7,3.2,5.93,17.7,1.66,18.84A99.31,99.31,0,0,1,165,74.25c-1,.14-1.56,1.37-.23,1.17Z"/><path class="cls-2" d="M177.72,69.83q7,3,13.82,6.15c2.69,1.24,5.37,2.51,8,3.92,1.73.94-1.86,1.9-2.72,2.35-2.73,1.42-5.38,3-8,4.62-1.09.7.61.86,1.18.49a130.07,130.07,0,0,1,12.28-6.82c.13-.06.59-.43.31-.61-7.16-4.57-15.53-7.65-23.32-11-.53-.23-2.31.56-1.55.89Z"/><path class="cls-2" d="M61.27,74.81c2.83-6.72,8.41-11.74,11.23-18.45l-1.86.5c6.63,4.34,9.77,11.77,13.79,18.28,1.49,2.41,2.1,4.25,4.94,4.2,4.55-.07,9.08-.7,13.64-.77.37,0,2.18-.76,1.26-.75-3.55.06-7.07.33-10.6.61-5.66.43-6.87-3-9.39-7.3C81.05,65.55,78,59.84,72.46,56.22a2,2,0,0,0-1.86.49c-2.83,6.72-8.4,11.74-11.23,18.45-.11.28,1.7.12,1.9-.35Z"/></svg>