<svg id="layer1" xmlns="http://www.w3.org/2000/svg" viewBox="0 0 315.82 488.32"><defs><style>.cls-1{fill:#ff83b6;}.cls-2{fill:#fccde4;}.cls-3{fill:#fcd9a7;}.cls-4{fill:#c6266f;}.cls-5{fill:#492d0c;}.cls-6{fill:#f2ac66;}</style></defs><path class="cls-1" d="M196.73,45.45a7.59,7.59,0,0,0-7.45-7.56,7.12,7.12,0,0,0-1.47.15c-16.46-16.59-41.75-18.2-63.62-15a117.1,117.1,0,0,0-15.48,3.36,38.5,38.5,0,0,0-11.41,4.1A78.54,78.54,0,0,0,77.73,42.38,48.2,48.2,0,0,0,68.67,51a41.48,41.48,0,0,0-6.25,10.33c-5.14,10.16-7.26,22.46-8.79,33.45-1.77,12.65-2.45,26,1.36,38.38,4.24,13.77,13.8,24.1,25.48,31.57,1.35,1.37,2.78,2.68,4.27,3.92,4.57,5.27,9.85,9.68,16.73,11.22a29.49,29.49,0,0,0,10.76,3.64c5.84.68,11.26-3.07,15.34-6.72s7.64-7.81,11.79-11.41c4.4-3.83,9-7.41,13.15-11.5a38.6,38.6,0,0,0,9.18-13.58c4.56-.16,8.6-4.62,7.06-9.23-.92-2.77-1.84-5.49-2.77-8.26a8.37,8.37,0,0,0-2.71-4,22.72,22.72,0,0,0-3.61-8.84,8,8,0,0,0-3.92-2.95c-.28-.79-.57-1.59-.84-2.39a8,8,0,0,0-3.52-4.41l-.72-1.13c-2.45-3.72-5.42-6-3.2-10.46,2.75-5.61,6.57-10.17,8.35-16.3a7.69,7.69,0,0,0-3.32-8.42,6.15,6.15,0,0,1,.77-1.82l0,0a7.62,7.62,0,0,0,1.06-3.6,9.62,9.62,0,0,0,5.71.41c3.2-.63,5.8-3.34,7.69-6.41,4.34-1.93,10.22-1.41,14.83-1.41a7.42,7.42,0,0,0,5.73,2.77,17.72,17.72,0,0,0,2.53-.27A7.73,7.73,0,0,0,196.43,48,11.36,11.36,0,0,0,196.73,45.45Z"/><path class="cls-1" d="M208.83,110.33a12.14,12.14,0,0,0-2.23,3.16,6.82,6.82,0,0,0-4.56,6.68c0,1.07,0,2.09-.1,3.1a37,37,0,0,1-4.43,8c-2.16,3-.84,7.42,1.87,9.63,1.2,6.93,12.55,8.93,14.63.72a239.4,239.4,0,0,1,7.39-24C224.11,110.25,213.86,105.3,208.83,110.33Z"/><path class="cls-1" d="M251,238.37c-2.92-12.31-3.91-24.53-8.21-36.53-3.49-9.73-8.46-19.61-16.8-26-1.09-2.08-2.19-4.17-3.25-6.26a25.12,25.12,0,0,0-2.08-4.19c-3.36-5.45-9.61-4.22-12.39-.3a38,38,0,0,0-10.39,7.6,51.67,51.67,0,0,0-5.94,7.16,21.83,21.83,0,0,1-6.48,6c-6.06,4.05-4,13.82,3.74,14,7.42.14,14.74,1.63,22.17.92a9.72,9.72,0,0,0,3.64-1.06c0,5.78.19,11.55.44,17.33-.25,1.95-.4,3.79-.54,5.29-.74,7.81-.83,15.7-.83,23.54a7,7,0,0,0,.24,1.77,7.68,7.68,0,0,0,7.21,8.56,14.5,14.5,0,0,0,9.62-2.8l9-3a7.69,7.69,0,0,0,2.85-1.64,23.53,23.53,0,0,0,4.55-1.9A7.57,7.57,0,0,0,251,238.37Z"/><path class="cls-1" d="M231.22,370c.39-10.93,1-21.86,1.35-32.8.27-8.94-.35-17.89-.78-26.83,0-3.64-.07-7.29-.26-10.93V291.2c0-.93.09-1.94.15-2.94h-.15a7.39,7.39,0,0,0-1.87-5,68.14,68.14,0,0,0-4.48-14.41c-1.42-3.19-5.34-3.95-8.37-3.42l-.24.06c-.67-3.68-1.63-7.65-3.62-10.75A7.2,7.2,0,0,0,207.6,250a7.45,7.45,0,0,0-7.39-2.11c-4.61,1.41-9.36,2.08-14,3.42-3.32-.15-6.58-.78-9.9-.9-4.58-.18-9,4.89-7.29,9.44a42.3,42.3,0,0,0,1.75,3.95c.16,3.42-.09,6.83-.1,10.27,0,5.53,1.5,11.12,2.65,16.49q.57,2.7,1.17,5.38c-2.47,15.38,1.59,31.56,2.1,46.93.34,10.19.14,21.08,4.25,30.61a39.84,39.84,0,0,0,2.47,4.77,33.88,33.88,0,0,0,5,7.45,7.49,7.49,0,0,0,6.53,5.92,40.59,40.59,0,0,0,18.89,7.6,24.53,24.53,0,0,0,2.83.16,6.48,6.48,0,0,0,3.83,2.48c8.51,1.73,15.44-2.75,16.15-11.63.45-5.66-1.15-11.7-3.19-16.94A9.26,9.26,0,0,0,231.22,370Z"/><path class="cls-1" d="M181.69,387.1a5.68,5.68,0,0,0-2.54-4,61.27,61.27,0,0,1-3.94-12.63c-.47-11.17-1.74-22.33-4.89-33a137,137,0,0,0-2.18-21.59c-.68-3.88-1.61-7.7-2.59-11.51.15-5.76.3-11.52.42-17.29.23-11-.16-22.47-3.68-33A7.54,7.54,0,0,0,147.54,256a35.33,35.33,0,0,1-.51,3.51c-2.24,3.91-2.08,9.26-1.94,13.52a121.08,121.08,0,0,0,1.32,13.8,7.59,7.59,0,0,0-.72,3.35c0,1.72.05,3.44.1,5.16-3.55,12.75-.85,27.81,1,40.41.11.78.23,1.55.35,2.33s.19,1.36.31,2c2.81,17.88,6.45,35.24,6.55,53.53,0,5.41,6.43,9.83,11.3,6.52l.24-.14a7.78,7.78,0,0,0,4.73-1.67,7.87,7.87,0,0,0,7,1.66c4.34-1.16,5.83-5.13,5.3-9.18C182.46,389.62,181.74,387.52,181.69,387.1Z"/><path class="cls-1" d="M146.44,180.65a4,4,0,0,0,.47.22,29.63,29.63,0,0,0,6,1.48,17.83,17.83,0,0,0,1,1.53,3.09,3.09,0,0,0,.47.54c0,.13.07.25.1.37a3.43,3.43,0,0,0,3.37,2.47h.85l-.25.48.06,0a3.7,3.7,0,0,0,1.47,4.79c-.7,4.15,5.52,5.79,6.78,1.6h0c0-.15.09-.29.13-.45.31-1,.67-2,1-3a18.43,18.43,0,0,1,5.32-7c2.46-2,.69-5.08-1.77-5.7a3.57,3.57,0,0,0-3.47-3.07,5.23,5.23,0,0,0-.57.06l0-.11c-1.42-5.12-6.73-7.83-9.31-12.19a3.53,3.53,0,0,0-.36-.48,11.72,11.72,0,0,1-.09-1.33c0-3.39-4.87-4.91-6.52-1.77a59.87,59.87,0,0,1-5.22,8,3.74,3.74,0,0,0-5.87.34c-1.14,1.71-2.31,3.36-3.58,4.94a10.61,10.61,0,0,0-2.89,3.37,3.5,3.5,0,0,0-.42,1.41c-.93.82-1.84,1.64-2.72,2.5a3.15,3.15,0,0,0-.73,3.74,3.38,3.38,0,0,0-4.82,0,13.16,13.16,0,0,0-2.86,4.2c-.74.87-1.28,2.11-2.3,3.68a2.92,2.92,0,0,0-.45,2.22,20.55,20.55,0,0,0-1,5.23c-3,6.69-1.69,16.25,1.48,22.17,1.67,3.11,6.53,1.64,6.52-1.77,0-5.27-.11-10.53.12-15.8q0-.32,0-.66c.25-1.88.45-3.77.59-5.65a25.1,25.1,0,0,1,2.48-5.69,3.33,3.33,0,0,0,.27-2.87,1,1,0,0,0,.1-.11,3.11,3.11,0,0,0,.75-3.72,3.34,3.34,0,0,0,4.8,0c1.74-1.7,3.6-3.28,5.44-4.88a3.59,3.59,0,0,0,.76.26,3.46,3.46,0,0,0,2.81,1A3.82,3.82,0,0,0,146.44,180.65Z"/><path class="cls-1" d="M162.49,60.39a3.46,3.46,0,0,0-.48.88h-.11a8.37,8.37,0,0,0-5.07-4.19A1.51,1.51,0,0,0,155,58.62c-.91,1.82,1.19,4.18,3.33,5.82l-.24.12a1.68,1.68,0,0,0-1-.13c-.6.08-1.1.42-1.71.47a1.52,1.52,0,0,0-1.45,1.9c1.37,4.57,5.68,2.61,8.12-.27a7.94,7.94,0,0,0,2.07-2.63,1.37,1.37,0,0,0,.63-1.18s0-.07,0-.11l.33-.71A1.5,1.5,0,0,0,162.49,60.39Z"/><path class="cls-1" d="M177.79,54.6c-.12.07-.26.16-.26.24h0s-.08,0-.1.05l-.25.18a4.86,4.86,0,0,1-.64.48,1.3,1.3,0,0,0-.37.11,7,7,0,0,0-2.41,1.28,1.16,1.16,0,0,0-.2.25c-.92-.64-2.42.36-2.25,1.65a5.08,5.08,0,0,0-.41.51,1.49,1.49,0,0,0,.89,2.2,5.48,5.48,0,0,0,3.75-.57,21.05,21.05,0,0,0,2.3-.48,1.49,1.49,0,0,0,.53-2.59h0l.12,0A1.41,1.41,0,0,0,180,56.34,1.51,1.51,0,0,0,177.79,54.6Z"/><path class="cls-2" d="M186.22,264.88c3.26,1.31,6.09.53,8.82-.82l.49-.15v7.78a1.36,1.36,0,0,0,.07.35c-.18,1.06-.35,2.12-.55,3.17-.57,2.07-1,4.15-1.52,6.23-.48,1.91,2,2.58,3,.8h-.1s0-.07,0-.11a33.6,33.6,0,0,0,1.49-5.8c.56-2,1.12-4.06,1.77-6.07h.28a1.4,1.4,0,0,0,1.45-1c1,.55,1.91,1.15,2.87,1.79,1.28.84,2.63-.7,2.13-1.9a1.57,1.57,0,0,0,0-2.6c-1-.71-2.08-1.43-3.14-2.09l-.67-.45a1.73,1.73,0,0,0-.37-.16l-.2-.12a28.24,28.24,0,0,1,4.05-5.07,1.49,1.49,0,0,0-1.46-2.46,20.63,20.63,0,0,0-6.71,3l-1.36.35c-1.63.11-3.34-.13-4.86-.17a1.32,1.32,0,0,0-1.36.91,13.58,13.58,0,0,0-4.47,1.83A1.51,1.51,0,0,0,186.22,264.88Z"/><path class="cls-2" d="M214.09,319.52a11.5,11.5,0,0,0,4-.69,1.53,1.53,0,0,0,1.1-1.45c0-1.89-1.72-3-3.92-3.62a1.71,1.71,0,0,0-1.27-1,15.39,15.39,0,0,0-5.43-2.58,1.41,1.41,0,0,0-1,.09,16.19,16.19,0,0,0-3.8-.77h0a7.83,7.83,0,0,0-4.1.67c-.06-1.35-.07-2.68-.07-3.95h-.09V306a1.41,1.41,0,0,0-.92-1.34v-2.1a31,31,0,0,0,.37-3.26h-.37V299a1.41,1.41,0,1,0-2.81,0,2.64,2.64,0,0,0,0,.28h-.17v1.81c-.33,2.88-.94,5.7-1,8.6a21.84,21.84,0,0,0-6.45-6.43c-.43-.57-.9-1.13-1.39-1.68a1.48,1.48,0,0,0-.81-2c-.13-.52-.25-1-.34-1.58a1.29,1.29,0,0,0-1.82-1c0-.1-.06-.19-.08-.29-.33-1.65-3.1-1.28-3,.4a15.39,15.39,0,0,0,.67,3.24,1.53,1.53,0,0,0-.61,1.6c.83,4.25,4.67,8.15,7.57,11.12a44.23,44.23,0,0,0,3.52,3.28,14.51,14.51,0,0,0-1.92,1.92,1.6,1.6,0,0,0-.38.92,3.38,3.38,0,0,0-.41.24A13.14,13.14,0,0,0,183,322c-.94.76-.3,2.19.67,2.51a8.56,8.56,0,0,0,1.35.33,4.66,4.66,0,0,0,3,1.74,6.66,6.66,0,0,0,4.71.47,11.7,11.7,0,0,0,4.1-2.09,11.72,11.72,0,0,0,2.67,5.51,1.46,1.46,0,0,0,.33.22,1.25,1.25,0,0,0,1.15.76l.06.26a1.51,1.51,0,0,0,2.9,0,33.45,33.45,0,0,0,1.32-8,1.33,1.33,0,0,0-.45-1C205.56,318.33,211.17,320.38,214.09,319.52Zm-11.43-4a18.3,18.3,0,0,0,2,.43,5.69,5.69,0,0,1,0,.72A5.74,5.74,0,0,1,202.66,315.53Zm-9.8,7.23h.26c-.22.13-.44.25-.67.36A1.61,1.61,0,0,0,192.86,322.76Z"/><path class="cls-2" d="M227.87,281.26h-.64a1.6,1.6,0,0,0-1.5,1.58c0,.17,0,.35,0,.52a1.31,1.31,0,0,0-.32.62c-.16.76-.28,1.52-.41,2.28h-.26c-.82,0-1.17,1.11-1.17,1.93V290a65.89,65.89,0,0,0-7.65-1.94l-.2-.07v0l-.11,0a1.5,1.5,0,0,0-.79,2.89l.2.07a1.66,1.66,0,0,0,1.86,1.84,14.52,14.52,0,0,1,4.11,0c1.15.32,2.3.6,3.45.86a19.58,19.58,0,0,0-.41,2.49c-2.42,1-4.18,3-6.07,5a1.51,1.51,0,0,0,1.06,2.55,11.42,11.42,0,0,0,5.48-1.92l.24,0a14.45,14.45,0,0,0,3.08-.6,1.77,1.77,0,0,0,.64-.09,1.7,1.7,0,0,0,0,.22c.29,1.7,3.07,1.25,3.07-.4v-9.62a1.4,1.4,0,0,0-.81-1.34,15.24,15.24,0,0,0-.14-2.13,1.24,1.24,0,0,0-.21-.55l.15-1.24c0-.2.07-.39.11-.59h0c0-.12,0-.24,0-.36a1.26,1.26,0,0,0-1.11-1.4v-.54A2,2,0,0,0,227.87,281.26Z"/><path class="cls-2" d="M231.18,340.67a20.15,20.15,0,0,1,1.16-2.86c.87-1.71-1.63-3.2-2.59-1.51-.36.62-.7,1.25-1,1.87a1.4,1.4,0,0,0-1,.08c-.07-.41-.14-.8-.2-1.17-.41-2.74-.73-7.11-3.4-8.71-2.39-1.44-3.82,1.79-4,3.54a20.58,20.58,0,0,0,1.09,8v.43c-4.3-.68-11,.4-12.73.91A1.5,1.5,0,0,0,208,344a1.4,1.4,0,0,0,1.42,1.27h4a23.66,23.66,0,0,0,3.67,0h1.36a31.75,31.75,0,0,0-4,6.91,1.66,1.66,0,0,0-.14.68c-.22.48-.42,1-.65,1.58a1.25,1.25,0,0,0,.35,1.41c-.28.47-.55.94-.84,1.41a1.51,1.51,0,0,0,2.06,2.05,22.78,22.78,0,0,0,7.43-6.38,1.67,1.67,0,0,0,1.74.85,1.25,1.25,0,0,0,1.29-.42L226,353a1.43,1.43,0,0,0,1.64-.29,8.51,8.51,0,0,0,1.56-2.13,1.27,1.27,0,0,0,1.36-1.07c.48-2.26.68-4.54,1.76-6.63A1.52,1.52,0,0,0,231.18,340.67ZM223.27,332a2,2,0,0,0-.32.25C222.91,331.66,223,331.28,223.27,332Z"/><path class="cls-2" d="M230,377.26h-.47V377a1.35,1.35,0,0,0-.82-1.33,1.54,1.54,0,0,0-1.77-1.38c.53-1.89.78-3.81,1.19-5.77a1.52,1.52,0,0,0-2.93-.83l0,0-.06,0c-.05.21-.09.43-.13.64s-.17.58-.25.86a1.43,1.43,0,0,0-1.37,1.44,42.19,42.19,0,0,1-.29,4.79,2.76,2.76,0,0,1-.08.27l-.2-.22c-.15-.33-.29-.67-.43-1a1.67,1.67,0,0,0-.09-2.59l-1.17-.84a1.09,1.09,0,0,0-.05-.17,1.5,1.5,0,0,0-1.8-1,26.3,26.3,0,0,0-8.13-3.2,1.48,1.48,0,0,0-1.69.84c-.28-.08-.56-.14-.85-.2l-.13,0-.78-.47a1.51,1.51,0,0,0-1.82,2.36c3.35,3.31,7,6.9,11.23,9.4a11.07,11.07,0,0,0-1.72,1.92l-.72.3c-3.53.76-7,3.23-5.88,7.18,1.25,4.55,6,2.43,7.88-.47l.87-.41a1.51,1.51,0,0,0,1.81.87,5.37,5.37,0,0,0,1.34-.73A7.7,7.7,0,0,0,223,392.7a1.52,1.52,0,0,0,2.51-.66,18.25,18.25,0,0,0,.75-4.23,19.46,19.46,0,0,0,1.53-3.39C229.85,382.44,230,380.19,230,377.26Z"/><path class="cls-2" d="M200.82,359.73h0c-.21.09-.42.16-.64.24a.44.44,0,0,0-.11-.08,6.72,6.72,0,0,0-6.3,0,16.3,16.3,0,0,0-2.7-.2.66.66,0,0,0-.2,0,7.87,7.87,0,0,0-2.18-1l-.15-.09v-3.06s0,0,0,0c.84-1.73-1.75-3.2-2.59-1.46,0,.07,0,.13-.08.19h-.53a1.41,1.41,0,0,0-1.44.95,15.29,15.29,0,0,0-.74,2.36c-.09.09-.17.19-.25.28-5.35,1-5.31,12.83.13,13.66a1.53,1.53,0,0,0,1.69-.77,6.76,6.76,0,0,0,1.46,2.29,1.51,1.51,0,0,0,2,.06,1.79,1.79,0,0,0,.72.32c0,.36,0,.73,0,1.09a1.45,1.45,0,0,0,1.84,1.42c0,.59.05,1.18.07,1.76a1.5,1.5,0,0,0,3,0c0-.14,0-.28,0-.42h0c0-1.06-.11-2.17-.15-3.31a1.46,1.46,0,0,0,2-1.35,12,12,0,0,0-.57-4.08c.25-2.72,2.26-4.27,5.37-5.51q.54-.17,1.08-.39C203.36,361.91,202.67,359.08,200.82,359.73Zm-7.08,4.46,0-.2h.19A1.56,1.56,0,0,0,193.74,364.19Z"/><path class="cls-2" d="M166.43,344c-1.74-.8-3.27,1.79-1.52,2.59.69.32,1.39.61,2.08.9.56,1.11,1.1,2.24,1.57,3.38a10.84,10.84,0,0,0-.44,2.11,1.44,1.44,0,0,0-.59,1.2v1.88a1.73,1.73,0,0,0-.38.24,4.29,4.29,0,0,0-1.06,5.73v.3a7.36,7.36,0,0,0,0,1.41c.18,1.81,2.78,1.94,3,.2a1.54,1.54,0,0,0,1.24-1.11c0-.21.07-.41.1-.62a11.81,11.81,0,0,0,1.82-3.14,1.35,1.35,0,0,0,.44-.68,8.76,8.76,0,0,0,.09-4.6,1.46,1.46,0,0,0-.24-.55,1.69,1.69,0,0,0,0-.33V351a2.06,2.06,0,0,0-1.34-1.67c-.13-.31-.25-.62-.39-.93.84-.45,1.32-1.52.37-2.27l-.3-.22h0l0,0c-.73-.56-1.49-1.08-2.21-1.65a1.57,1.57,0,0,0-1.91-.11Z"/><path class="cls-2" d="M164.58,336.82c.13-.33.24-.67.35-1,1.24-2.32,1-6.5,1-8.28a1.53,1.53,0,0,0-1.9-1.45l-.23.07c.34-2,.52-3.94-1.13-4.8a51.82,51.82,0,0,0,1.3-6.12,1.5,1.5,0,0,0-2.89-.79,23.76,23.76,0,0,0-1.24,5.53,1.5,1.5,0,0,0-.66.81,12.71,12.71,0,0,0-.46,2c-1.17-.89-3.15-.92-4.84-.55a1.43,1.43,0,0,0-1.06,1.19,1.56,1.56,0,0,0-1.79-.42,11.55,11.55,0,0,0-1.2-.19c-1.58-.14-1.9,2.05-.75,2.8a34.88,34.88,0,0,0,3.85,2.09c.49.31,1,.61,1.52.89a1.21,1.21,0,0,0-.83.68c-2,4.1-3.75,8.21-4,12.82a1.51,1.51,0,0,0,2.26,1.29,11.83,11.83,0,0,0,4.49-5.79,17.71,17.71,0,0,0,2.36-4.05c.41,2,1.34,3.71,3.32,3.85A1.59,1.59,0,0,0,164.58,336.82Z"/><path class="cls-2" d="M175,281.07a1.51,1.51,0,0,0-2.45,1.19v2.3c-.06.39-.1.7-.11.7h.11v.39a1.48,1.48,0,0,0,2.95,0,2.6,2.6,0,0,1,.05-.39h0v-.05a6.31,6.31,0,0,1,.21-.83,6.48,6.48,0,0,0,.33-1.9A1.34,1.34,0,0,0,175,281.07Z"/><path class="cls-2" d="M150,305.09a28.31,28.31,0,0,0,.5-4.31c.15-2.86-.37-6.09,3.64-4.32,1.49.66,3.11-1.07,1.82-2.35l-2.45-2.46c.45,0,.91,0,1.39-.06a1.5,1.5,0,0,0,0-3c-.69,0-1.36,0-2,.1l.23-.57a1.7,1.7,0,0,0,.69-.8,31,31,0,0,0,2.59-9.74,1.36,1.36,0,0,0-1.5-1.32h-.63a1.72,1.72,0,0,0-1.05.27,1.23,1.23,0,0,0-.88.76,3.73,3.73,0,0,0-.16.35h0v0c-.22.47-.43.95-.65,1.43-2.29.2-4.19,3.5-4.82,6.74a15.64,15.64,0,0,0-1,4.46,1.83,1.83,0,0,0-1.16,1.7v5.71a1.45,1.45,0,0,0,.73,1.29c2.1.94,1.77,3.93,1.78,5.69S149.64,306.78,150,305.09Z"/><path class="cls-2" d="M157.65,377.68a27,27,0,0,0-2.11-10.28,1.19,1.19,0,0,0-.81-.72,21.11,21.11,0,0,1-.31-9.55c.44-1.88-2.45-2.68-2.89-.79-1.13,4.86-.11,9.57,1.17,14.26.11,4.23,1.16,8.32,1.83,12.51v.28h.05c0,.14,0,.27.07.41.25,1.71,2.88,1.25,2.88-.4v-.13h0s0-.28,0-.29v-1.13a1.54,1.54,0,0,0,.07-.75c0-.15,0-.3-.07-.44v-2.37A1.32,1.32,0,0,0,157.65,377.68Z"/><path class="cls-2" d="M172.53,391.26h-1.78a1.28,1.28,0,0,0-.73.22,6.54,6.54,0,0,0-5.62-3.88,1.52,1.52,0,0,0-1.45,1.9,13.5,13.5,0,0,0,6.41,7.88h0a1.17,1.17,0,0,0,.35.14h0a1.12,1.12,0,0,0,.32,0h.2a.8.8,0,0,0,.15,0,1.44,1.44,0,0,0,.71-.42,2,2,0,0,0,.18-.23.21.21,0,0,1,0-.06,1.15,1.15,0,0,0,.14-.32l0-.08a1.09,1.09,0,0,0,.05-.26.24.24,0,0,0,0-.08,15.18,15.18,0,0,1,.39-1.82h.53A1.5,1.5,0,0,0,172.53,391.26Z"/><path class="cls-2" d="M237.4,247.34c-.27,0-.53,0-.79,0a1.14,1.14,0,0,0-.49-.11h-1.91a1.29,1.29,0,0,0-1.34.93,1,1,0,0,0-.25.21l-.22.06a1.51,1.51,0,0,0-.72-.2H230.5a1.39,1.39,0,0,0-1.36-.92,9,9,0,0,0-2.75.57l-1.52-4.55c-.61-1.82-3.5-1-2.89.8l1.56,4.69a19.34,19.34,0,0,0-2.44,2.1,1.43,1.43,0,0,0-.41,1c-1.32.64-.5,3,1.23,2.76h0l.3-.06q.68-.12,1.32-.27l1.09-.26.45-.13q1-.27,1.92-.57c1.88-.6,3.74-1.26,5.65-1.75a27.59,27.59,0,0,0,3.53-.64c.39,0,.77-.07,1.17-.08h.14a1.48,1.48,0,0,0,1.34-1.84A1.57,1.57,0,0,0,237.4,247.34Z"/><path class="cls-2" d="M216.63,245.65a1.42,1.42,0,0,0,.9-1.39v-3c0-1.41-2.25-2.35-2.9-1-.1.21-.19.43-.27.65a1.42,1.42,0,0,0-.83,1.35v3A1.59,1.59,0,0,0,216.63,245.65Z"/><path class="cls-2" d="M246.39,217.9a4.38,4.38,0,0,0-1-1,7.75,7.75,0,0,0-1.2-2.15,1.5,1.5,0,0,0-2.35.31,14.28,14.28,0,0,0-1.05,4.91,1.4,1.4,0,0,0-1.56,1.29,1.37,1.37,0,0,0-1.18-.6,18.11,18.11,0,0,1-3.55-.27,9,9,0,0,0-1.13-.31,1.5,1.5,0,0,0-.79,2.89c.2.07.41.11.61.17a16.75,16.75,0,0,1,3.47,1.86,1.65,1.65,0,0,0,1.32,1.14,3.34,3.34,0,0,1,.6,2.61,3.79,3.79,0,0,0-1.38,3,17.5,17.5,0,0,0-1.22,2.74c-.59,1.61,1.93,2.63,2.74,1.15.7-1.28,1.79-2.79,2.55-4.37h.59a1.67,1.67,0,0,0,1.7-1.46v-1.27a1.45,1.45,0,0,0-.09-.46l.29-.49a4.65,4.65,0,0,0,.52.34,1.7,1.7,0,0,0,.51.17l.92,1.83a1.54,1.54,0,0,0,2.85-.76v-9.9A1.48,1.48,0,0,0,246.39,217.9Z"/><path class="cls-2" d="M233.47,201.5c1.52-.13,2.47-1.37,3.15-2.82a14.39,14.39,0,0,0,1,1.09c1.36,1.37,3.48-.75,2.12-2.13a13.34,13.34,0,0,1-1.2-1.34.66.66,0,0,0,0-.14v-1.78a1.42,1.42,0,0,0,1-1.39,3.74,3.74,0,0,0-1.74-3.09,1.42,1.42,0,0,0-1.25-.64h-.38a7.37,7.37,0,0,0-2.69,0H233a.45.45,0,0,0,0,.11l-.41.1a1.42,1.42,0,0,0,.4,2.79h.38a.37.37,0,0,1,0,.11l.41-.11h.52a6,6,0,0,0-3.62,5.24C230.52,199,231.63,201.65,233.47,201.5Z"/><path class="cls-2" d="M219.22,171.58l.42.3a2.05,2.05,0,0,0-.65.59,1.46,1.46,0,0,0,0,1.51,2.06,2.06,0,0,0,1.9.83,1.32,1.32,0,0,0,1.14-.53,4.2,4.2,0,0,1,.75-.1,1.57,1.57,0,0,0,1.49-1.36c.35,0,.7.08,1.06.09,1.94,0,1.93-3,0-3a16.7,16.7,0,0,1-4.77-1,2.28,2.28,0,0,0-.54-.18A1.5,1.5,0,0,0,219.22,171.58Z"/><path class="cls-2" d="M192.12,190.87a57.25,57.25,0,0,0,4.69-5.28c.06,1.47.67,2.64,2.27,2.61v.06h0a1.51,1.51,0,0,0,2.91,0h.05a2.44,2.44,0,0,1,0-.27s0-.05,0-.08c0-.45,0-.9.08-1.35a8.38,8.38,0,0,0,1.27-2.95,9.2,9.2,0,0,0,3.56.72,1.5,1.5,0,0,0,1-2.56,8.82,8.82,0,0,0-.93-1,1.41,1.41,0,0,0-1.44-1.35l-.79,0a6.75,6.75,0,0,0-.9-.29c0-.25,0-.5,0-.72a1.47,1.47,0,0,0-1.72-1.45l.22-.33a1.5,1.5,0,0,0-2.58-1.52c-.26.45-.56,1-.83,1.49a5.5,5.5,0,0,0-1.7.95c-2.46,0-3.41,2.49-3.5,4.78a27.83,27.83,0,0,0-4.11,6.75A1.51,1.51,0,0,0,192.12,190.87Z"/><path class="cls-2" d="M158.92,172.22a28.63,28.63,0,0,0,4.4.72l0,0a4.51,4.51,0,0,1,.73,1.12,7.41,7.41,0,0,1,.06.86c0,.84,0,2.32,0,2.32,0,2,3.36,2,3.36,0v-6a1.51,1.51,0,0,0-2.57-1.08c-1.74-.35-3.53-.4-5.24-.92S157.08,171.66,158.92,172.22Z"/><path class="cls-2" d="M127.53,196.88v.38h-.4c-.13-1-.25-.53-.38-.7a1.43,1.43,0,0,0-2.51,1.2,37.67,37.67,0,0,1,.55,6.14c-.05,0-.12.06-.17.11a7.83,7.83,0,0,0-1.5,2.19,1.71,1.71,0,0,0-.09,1.22,8.66,8.66,0,0,0-.19,1.44,1.54,1.54,0,0,0,2.84.75c.14-.29.27-.57.4-.86a1.36,1.36,0,0,0,1.45-1.49h0v-.37a1.47,1.47,0,0,0,.12-2.42c0-.76,0-1.54,0-2.33a1.75,1.75,0,0,0,1.41-2.3C128.52,198.8,127.53,197.8,127.53,196.88Z"/><path class="cls-3" d="M241.94,263.06v-.5a1.55,1.55,0,0,0-.67-1.25h0a1.64,1.64,0,0,0-.62-2,1.39,1.39,0,0,0-.54-.45c-.95-1.12-2.32-1.26-4.11.75a1.2,1.2,0,0,0-.15.24h0a1.11,1.11,0,0,0-.27.2.67.67,0,0,0-.14-.09,1.27,1.27,0,0,0-2.06.43l-.06.14c-1.89,2.52-2.47,5.34-3,8.46-.19,1.11,1,2.58,2.2,1.68a6.71,6.71,0,0,0,1.84-2.22q.21-.21.39-.42a1.69,1.69,0,0,0,1.56.91c0,.12,0,.24.05.36-.07.69-.1,1.39-.11,2.08-.13,2.23-.18,4.45-.18,6.68a1.47,1.47,0,0,0,1,1.4c0,1-.06,1.95-.06,2.95a1.52,1.52,0,0,0,2.26,1.3c2.59-1.37,3-5.42,3.34-8a78,78,0,0,0,.79-11.22A1.37,1.37,0,0,0,241.94,263.06Z"/><path class="cls-3" d="M156.32,191.8c-.06-2.38-.74-4.5-2.55-5.42,0,0,0-.06,0-.09a13.4,13.4,0,0,0,.21-1.56,1.47,1.47,0,0,0-1.64-1.46,2.19,2.19,0,0,0-2-.69,4.17,4.17,0,0,0-1.72.57,8.28,8.28,0,0,0-2,0,6.75,6.75,0,0,0-2,.63,1.44,1.44,0,0,0-1.13.13,5.33,5.33,0,0,0-2.45,2.83,15.23,15.23,0,0,0-2.59,6.29,1.51,1.51,0,0,0,2.2,1.69,3.68,3.68,0,0,0,1.08-.77c0,.32,0,.63.05.92,0,.05,0,.1,0,.14s0,.15,0,.24h.05a1.49,1.49,0,0,0,2.13.91,1.58,1.58,0,0,0,1.93-.24,14.32,14.32,0,0,0,.51,2.46c.56,1.79,1.52,2.37,2.53,2.25a2,2,0,0,0,2,.52,2.14,2.14,0,0,0,.54-.23,5.82,5.82,0,0,0,.72.57,1.51,1.51,0,0,0,2.05-.54,18.3,18.3,0,0,0,1.43-3.93A6.21,6.21,0,0,0,156.32,191.8Z"/><path class="cls-3" d="M191.87,136.57a1.49,1.49,0,0,0-2.56.18l-.11,0-.06.44a7,7,0,0,0-.28.81,1.79,1.79,0,0,0-1.69.27,5.26,5.26,0,0,0-1.23,1.4,30.24,30.24,0,0,1-8.55-2.6,1.52,1.52,0,0,0-2.26,1.29c-.2,3.15-2.56,7.27-.26,10.09a12.25,12.25,0,0,0,3.74,2.84c1.14,1.29,2.46,2.33,4.23,2.27,2.85-.11,4.64-1.88,6.4-3.8,1.22-1.11,2.3-2.36,3.44-3.57a1.43,1.43,0,0,0,.19-1.77c.08-.35.14-.7.2-1a1.4,1.4,0,0,0,.47-.74,19,19,0,0,0,.54-4.75A1.48,1.48,0,0,0,191.87,136.57Z"/><path class="cls-4" d="M212.26,217.7a5.18,5.18,0,0,0-1-2.38,9.39,9.39,0,0,0-3.31-4.28c-4.22-2.91-11.48-1.84-16.24-1.72-2.24.06-4.48.19-6.71.35a19.5,19.5,0,0,0-2.66-.29,7.48,7.48,0,0,0-1.36-.12h-3.43v.17a9.31,9.31,0,0,0-4,1.28l-1.6.18-1.43-.1v.08a9.12,9.12,0,0,0-2.94.44c-2.06.19-4.21.36-6.27.49a1.54,1.54,0,0,0-1.49,1.9,51.86,51.86,0,0,1,1.79,11.08c.14,2.71-.53,5.37-.43,8.1a7.37,7.37,0,0,0,1.09,3.76c0,.26,0,.51,0,.77a1.5,1.5,0,0,0,1.5,1.5h.36a17.45,17.45,0,0,0,4,1.17,1.68,1.68,0,0,1,.36,0h0a1.25,1.25,0,0,0,.36.06,1.41,1.41,0,0,0,1.44-1.62l.38-.06c.37.37.73.73,1.11,1.07a8,8,0,0,0,10.26.25c6.79,1.54,13.28-1.39,19.52-4.74.65-.35,1.29-.68,1.92-1a1.59,1.59,0,0,0,1.62.19,9.23,9.23,0,0,0,2-1.2c.39-.24.78-.48,1.18-.71a1.34,1.34,0,0,0,.72-1.25,13.94,13.94,0,0,0,1.34-2.13C212.78,225.72,212.79,221.65,212.26,217.7Zm-44.2,17.69,0,0H168Zm-4.92-20.72h0Z"/><path class="cls-4" d="M253.92,260.78c-1.79-3.15-5.7-3.28-8.92-3.29a1.52,1.52,0,0,0-1.5,1.5,6.53,6.53,0,0,0,.69,2.49,1.61,1.61,0,0,0,.15.81c.31.64.6,1.28.91,1.9a7,7,0,0,0,.78,2.16,1.54,1.54,0,0,0,2.81,1l.07-.11a1.52,1.52,0,0,0,.37-.3h0a1.34,1.34,0,0,0,.22-.31.77.77,0,0,0,.07-.16.54.54,0,0,0,.05-.11s0,0,0-.06a7.41,7.41,0,0,0,2.53-2.06h.05l.31,0h.09a1.41,1.41,0,0,0,1.31-2.08A1.45,1.45,0,0,0,253.92,260.78Z"/><path class="cls-4" d="M230.4,261.3a4.54,4.54,0,0,0-4.1,3.08,2.56,2.56,0,0,1-.45.09,1.5,1.5,0,0,0-1,2.57l1.29,1.26a4.19,4.19,0,0,0,3.63-2.33,7.77,7.77,0,0,1,.55-1.65l.08,0C232.33,264.23,232.34,261.23,230.4,261.3Z"/><path class="cls-4" d="M157.39,226.5l-.73,1.21a1.39,1.39,0,0,0-1.09.74l0,0h-.06v-.52a1.33,1.33,0,0,0-1.67-1.4,15.46,15.46,0,0,0-.67-2.06c-.24-5.32-1.29-10.56-1.66-15.88v-2.29h-.12a1.46,1.46,0,0,0-2.54-.92c-.07-.13-.14-.26-.22-.39a1.2,1.2,0,0,0-.33-1.6,15.07,15.07,0,0,0-2.2-1.43,1.54,1.54,0,0,0-1.39-.91h-.1a7.07,7.07,0,0,1-2.42-2.44,1.38,1.38,0,0,0-1.32-.71,1.3,1.3,0,0,0-1.24.68,1,1,0,0,0-.17.37s0,0,0,0a29.15,29.15,0,0,0-.83,4.22l-.11,0V204c-.13,1-.25,1.94-.33,2.91-.08.16-.16.33-.23.49a1.54,1.54,0,0,0-1.73,1.48A51.42,51.42,0,0,0,137.55,224a29.85,29.85,0,0,0,3.75,11.73,1.32,1.32,0,0,0,.08.77c1.89,4.61,3.25,9.42,5.86,13.69a1.51,1.51,0,0,0,2.79-.76,22.1,22.1,0,0,0-.29-2.62l.3-.19a16.11,16.11,0,0,0,5.31-5.24,1.19,1.19,0,0,0,.83-.71l.14-.36h0a2.25,2.25,0,0,1,.08-.24,27.82,27.82,0,0,0,.93-2.8c0-.09.07-.19.1-.3.29-.75.55-1.53.77-2.31a1.35,1.35,0,0,0,.52-1.09,16.56,16.56,0,0,1,.19-2.46,5.8,5.8,0,0,0,.67-2.11c.13-.35.25-.69.39-1C160.74,226.29,158.43,224.81,157.39,226.5Z"/><path class="cls-4" d="M186.93,122.15c-.14,0-.27.06-.4.09v-.09s-.11.08-.27.15l0,0a7.82,7.82,0,0,1-1.48.36,1.28,1.28,0,0,0-.93.5l0-.06a1.24,1.24,0,0,0-1.33-.4,1.29,1.29,0,0,0-.48,0c-.2-.12-.39-.25-.6-.36-1.46-.78-3.1,1.16-1.82,2.36a15.91,15.91,0,0,0,3.46,2.33,1.48,1.48,0,0,0,1.32.08,1.62,1.62,0,0,0,2.22-1.37v-.11a1.19,1.19,0,0,0,1-.66C188.82,124.34,188.67,122,186.93,122.15Z"/><path class="cls-5" d="M169.28,60.33h0a13.86,13.86,0,0,1,6.75-5,6.52,6.52,0,0,1,4.27.43c.61.29,1.15.58,1.67.85a1.64,1.64,0,0,0-.09,1.39c-.87.84-.69,2.61.81,2.56l.32,0a1.37,1.37,0,0,0,1.25.73H191c1.84.45,3.67,1,5.53,1.34a1.67,1.67,0,0,0,1.92-2,1.74,1.74,0,0,0-.13-1.12,10,10,0,0,0,1.23,0,1.29,1.29,0,0,0,.45-.09c.34.19.67.4,1,.61a23.72,23.72,0,0,0,4.86,6.4,1.44,1.44,0,0,0,2,.06c.12.23.26.45.38.69a1.58,1.58,0,0,0,.33.42l.06.27c.27,1.38,2.06,1.34,2.71.39a1.43,1.43,0,0,0,1.27-1.4,12.71,12.71,0,0,0-.88-5.19c-.07-.88-.13-1.76-.16-2.65a1.51,1.51,0,0,0-2.43-1.12c-2.15-5.57-12.11-6-19.5-5.79a22.35,22.35,0,0,0-14.75.52h-.05a13.19,13.19,0,0,0-8.1,6.19C165.68,60.48,168.22,61.92,169.28,60.33Z"/><path class="cls-5" d="M221.53,93.69c0-.81,0-1.63,0-2.44v-1h0c0-.07,0-.15,0-.22a1.4,1.4,0,0,0-.51-1.11,1.59,1.59,0,0,0,.28-1.75,17.67,17.67,0,0,0-1.9-3.27,1.48,1.48,0,0,0,0-.58c-1.08-4.22-3.89-7.06-6.87-9.86a19.67,19.67,0,0,0-1.39-1.83,1.28,1.28,0,0,0-1.06-.5c-.54-.52-1.06-1-1.57-1.6a1.55,1.55,0,0,0-2.39.34c-.64-.37-1.28-.72-1.94-1a43.86,43.86,0,0,0-25.44-4.55,33.05,33.05,0,0,0-10.54,3.25,1.21,1.21,0,0,0-1.42,0A43,43,0,0,0,161.19,72a33.39,33.39,0,0,0-3.14,2.91c-.3.27-.59.55-.88.83a1.89,1.89,0,0,0-.46.44h0l-.09.12a24.18,24.18,0,0,0-3.39,4.36,1.65,1.65,0,0,0-1-.37h-.53a1.72,1.72,0,0,0-1.44,1.3,18.33,18.33,0,0,0-.77,3.79,1.12,1.12,0,0,0-.28.6,16.58,16.58,0,0,0,6.47,15.88,1.16,1.16,0,0,0,.88.22l.68,1.35a1.32,1.32,0,0,0,1.44.71,3.42,3.42,0,0,1,.13.34c.62,1.39,2.85.67,2.8-.76a22.36,22.36,0,0,1,2.57-11A22.4,22.4,0,0,1,174,84.5a1.22,1.22,0,0,0,.73-.85,33.09,33.09,0,0,1,5.35-.52,1.41,1.41,0,0,0,1.38-1.08c2.76.5,5.57.57,8.23,1.55a1.22,1.22,0,0,0,1.3-.2,33.69,33.69,0,0,1,12.14,7.67,1.27,1.27,0,0,0-.38,1.47q.85,2.29,1.74,4.61c.39,1.23.84,2.44,1.31,3.64.29,1.24.54,2.5.74,3.77v1.23l.19,0c0,.14.05.28.07.42a1.16,1.16,0,0,0,.84,1l-.26.2c-1.5,1.21.63,3.29,2.12,2.09,2.06-1.66,4.16-3.22,6.12-4.94a1.32,1.32,0,0,0,1.06-1,28,28,0,0,0,2.8-3,9.06,9.06,0,0,0,1.74-3.85,1.33,1.33,0,0,0,.32-.9Zm-20.8-12.28a1.47,1.47,0,0,0-.47-.55c-7.61-5.26-18-6-27-5.46A1.71,1.71,0,0,0,171.68,77a1,1,0,0,0-.25.07L170,76.79c.07-.34.14-.66.2-1a23.7,23.7,0,0,0,6.46-2.35c.07,0,.1-.08.16-.12,3.41.28,6.84.66,10.43.8.41,0,.83,0,1.26,0h.06a1.37,1.37,0,0,0,1-.39l.45,0a36.48,36.48,0,0,1,7.52,1.66,31.53,31.53,0,0,0,3.12,2.66,1.28,1.28,0,0,0,.25.53c.23.32.47.63.71.94a1.46,1.46,0,0,0,.35,2.23.1.1,0,0,1,0,0l-.08.1Zm10.38,10.41c-.24-.72-.5-1.43-.78-2.14a1.56,1.56,0,0,0,.4-.48,1.39,1.39,0,0,0,.57-2c-.05-.09-.12-.17-.18-.26a1.38,1.38,0,0,0,.39-1.17,2.89,2.89,0,0,0-.06-.49h0a.77.77,0,0,0,.07.16h0a22.28,22.28,0,0,1,2.28,4,18.76,18.76,0,0,0,.23,2.27,1.46,1.46,0,0,0-1.14.7A1.51,1.51,0,0,0,211.11,91.82Zm-9.66-18.88-.11-.06v0ZM170.56,80.5a1.33,1.33,0,0,0-.18-.54l1.54.26A10.89,10.89,0,0,0,170.56,80.5Zm3.16,0,.67.08-.48.15A1.45,1.45,0,0,0,173.72,80.47Zm39,22.56a1.53,1.53,0,0,0,.3,0l-.38.31C212.69,103.26,212.71,103.15,212.74,103Z"/><path class="cls-2" d="M122.24,55.2l.44.51c-2.06,3.3-3.69,7.81-.24,9.69,2.38,1.29,5.13-.21,6.57-2.1,1.3-1.69,1.55-4.18,1.6-6.44a9.44,9.44,0,0,0,1.23-.52,5.26,5.26,0,0,0,4.5-4.25,1.51,1.51,0,0,0-1.05-1.84,8.8,8.8,0,0,0-5.79-.14c-.17-3-.82-7.56-3.66-6.78-1.22.33-2,2-2.33,3.41a3.85,3.85,0,0,0-1.6-1,4.16,4.16,0,0,0-5.23,2.11,5.44,5.44,0,0,0,1.45,5.64A7.62,7.62,0,0,0,122.24,55.2Zm-1-5.78h0l0,0Zm11.54,3.31-.21.22a1.52,1.52,0,0,0-1.33.31l-.36.25a8,8,0,0,1-1.33-.11l-.36,0A7.43,7.43,0,0,1,132.75,52.73Z"/><path class="cls-2" d="M159.06,42.26h-5.27c.32-.93.63-1.86.94-2.79a1.53,1.53,0,0,0-.69-1.69c-.83-.61-1.8-1-2.63-1.57a1.51,1.51,0,0,0-2,.54,8.81,8.81,0,0,0-1.2,3c-2.63-1-5.76-.52-6,3-.21,2.92,3.71,3,6.35,3.3-.88,1.24-2.24,2.31-2.41,3.94a3.19,3.19,0,0,0,3.85,3.23c2.77-.62,4.25-3.55,6.15-5.39.58-.57,2.22-.06,3-.52,1.24-.73,1.37-2.18,1.45-3.47A1.53,1.53,0,0,0,159.06,42.26Zm-7.57-2.56c-.18.55-.37,1.09-.55,1.64a8.09,8.09,0,0,1,.34-1.75Zm-6.38,2.66c.53.27,1.11-.19,1.87.14.29.13.55.29.55.48h0a1.6,1.6,0,0,0-.38-.05A5.62,5.62,0,0,1,145.11,42.36Zm6.26,6.23c-.31.35-.63.68-1,1-.34.56-.74.66-1.2.29A9.91,9.91,0,0,1,150.48,48a6.52,6.52,0,0,0,1.62-2.76h2.32C153.2,46,152.25,47.58,151.37,48.59Z"/><path class="cls-2" d="M129.92,93c2.73,1.92,5.87,3.45,6.63-.39a6.88,6.88,0,0,0,.13-1.71,4.48,4.48,0,0,0,1.38-.84c2.14-2,4-4.63,2.3-7.56-1-1.74-3.06-2.62-5.34-2.85a1.48,1.48,0,0,0-.26-.24,5.38,5.38,0,0,0,1.11-3.55,1.5,1.5,0,0,0-1.5-1.5,7.93,7.93,0,0,0-6.15,3.35c0-4.32-1.7-9.25-6.31-8a6.18,6.18,0,0,0-4.84,5.86,3.39,3.39,0,0,0,0,.64,7.78,7.78,0,0,0-4.66-.26,1.51,1.51,0,0,0-1.1,1.45,4.63,4.63,0,0,0,1.38,3.74c-5.2.42-11.15,3.14-11.41,8.83-.42,9.26,10.33,4.79,17.44,1.09a12.4,12.4,0,0,0-2.08,9.3,2.82,2.82,0,0,0,1.57,2,5.27,5.27,0,0,0,4.7,2.79C128.55,105,130.6,98.27,129.92,93Zm-7-13.4a6.56,6.56,0,0,1-.23-.62c.1.22.19.45.29.68Zm-5.09,8.23a5.89,5.89,0,0,0,1.29-1.38l.48-.48,2,.17c-1.07.61-2.61,1.51-4.34,2.45C117.49,88.32,117.69,88.06,117.87,87.82Zm15.55,3.93-.42-.22.47,0C133.45,91.59,133.45,91.66,133.42,91.75Zm1.9-4a1.67,1.67,0,0,0,.23-.12l-.18.17Zm.93-2a1.52,1.52,0,0,0-.57-.7,4.41,4.41,0,0,0-.39-2l-.12-.2L136,83A9.35,9.35,0,0,1,136.25,85.82Zm-7.36-5.37a11.48,11.48,0,0,0-1.07.46c.08-.3.15-.62.21-1A1.77,1.77,0,0,0,128.89,80.45Zm-3.5-4.34a.41.41,0,0,1,0,.11,5.88,5.88,0,0,0-2.2-1.94l.92-.88A6.21,6.21,0,0,1,125.39,76.11ZM118,80.42a5.89,5.89,0,0,1-3.26-1.7A4.35,4.35,0,0,1,118,80.42ZM104.31,90a4,4,0,0,1,1.6-3.55,4.15,4.15,0,0,0-1,4.16,7.29,7.29,0,0,0,.52,1.42A2.35,2.35,0,0,1,104.31,90Zm21.15,10.66a2.32,2.32,0,0,1-2.93,1.3,5,5,0,0,0,1-.7,5.45,5.45,0,0,0,.62-.72,4.87,4.87,0,0,0,1-1.06,16.74,16.74,0,0,0,1.57-3.29c.1-.21.22-.42.31-.64a16.79,16.79,0,0,1-.3,2A10.28,10.28,0,0,1,125.46,100.66Z"/><path class="cls-2" d="M141.83,129.24a6.33,6.33,0,0,0-.27-4.9c-1.24-2.68-4.43-2.41-6.26-.69s-1.87,3.71-1.39,5.74c-2.4-.36-5.14-1.12-6.61,1.38-1.12,1.92-.77,4,1.38,4.76,1.7.59,4.69-.15,6.33-.71l.24-.06.31,0a1.16,1.16,0,0,0,.12.44c-.38.81-1.73.87-3.28,1.16a6,6,0,0,0-4.05,2.78,1.52,1.52,0,0,0,1.3,2.26,9.73,9.73,0,0,0,5.71-1.58,3.65,3.65,0,0,0-.24,1.93c1,5.32,7.36,3.62,9.36.15,1.86-3.25.65-6-1.93-6.88l.46-.22.09,0c3,1.11,7-.39,6.21-4.11S144.77,127.52,141.83,129.24ZM139,125.85a2.15,2.15,0,0,1,.39,1.21,1.54,1.54,0,0,0-1.09-.78c.05-.18.09-.34.14-.49A4,4,0,0,1,139,125.85Zm.14,16.34a.88.88,0,0,1-.68-1.08,1.47,1.47,0,0,0,.49.13,1.64,1.64,0,0,0,1.8.64A2.18,2.18,0,0,1,139.1,142.19Zm5.38-10.12a2.51,2.51,0,0,0-.16-.54.69.69,0,0,0-.07-.15C145.46,131.33,146.29,132.26,144.48,132.07Z"/><path class="cls-2" d="M90.9,129.3l.11,0a9,9,0,0,0-.48.93,1.53,1.53,0,0,0,.9,2.2,6.79,6.79,0,0,0,4.62,0,4,4,0,0,0,.11.5,3.08,3.08,0,0,0,4,2c3.27-1,4.45-4.6,3.65-7.58,2,.05,3.92-.12,5.36-1.59a1.51,1.51,0,0,0-.3-2.35A10.69,10.69,0,0,0,103,122c1.5-2.91,1.31-6.18-3-6.75s-4.18,3.58-3,7.07v.28c-3.62-.88-7.75-1.83-9,2.77C87.62,127.09,89.33,128.9,90.9,129.3Zm5.12-.68.92-.32h.18a2.07,2.07,0,0,0-.1.33,6.25,6.25,0,0,1-2.5,1.12A8,8,0,0,1,96,128.62Zm4.78,1.77a2.83,2.83,0,0,1-.72.93,1.63,1.63,0,0,0-.13-.55,2.24,2.24,0,0,1-.11-.34c.16-.25.31-.48.44-.71.3-.31.6-.63.87-1A3.61,3.61,0,0,1,100.8,130.39Z"/><path class="cls-2" d="M64.53,109.3v-3.51c0-.6-.23-1.35-.88-1.44-2.31-.35-3.82.41-4.47,1.53A1.44,1.44,0,0,0,57.81,107a8.54,8.54,0,0,0-.07,1.32c-3-1.72-6.54-1.8-7.53,2.62a4.09,4.09,0,0,0,2.31,4.91c-1.15.73-1.62,1.78-.59,3.31,1.55,2.3,4.63,2.36,7.46,1.43-.69,3.09,0,6.21,3.75,6.18,4.36,0,5.4-2.83,5-6a5.91,5.91,0,0,0,1.71.22,1.42,1.42,0,0,0,1.38-1.1A4.54,4.54,0,0,0,70,115.67c3-.69,5.57-2.19,4.41-5.46C72.85,105.84,68,108.41,64.53,109.3Zm.06,3.46-.4.23a1.4,1.4,0,0,0-1.3-.11c0-.11.1-.23.14-.34h.22a10.41,10.41,0,0,0,1.46-.27A1.21,1.21,0,0,0,64.59,112.76Zm6.6-1.42a1.68,1.68,0,0,0-.17-.59C71.36,110.83,71.37,111.05,71.19,111.34Zm-15.72-1.13a3.77,3.77,0,0,1,2.26,1.49l-.95-.11c-.69-.24-1.37-.49-2-.79a1.67,1.67,0,0,0-.95-.16A1.84,1.84,0,0,1,55.47,110.21Zm.28,7.91c-1.72.18,1.22-.7,1.75-.75s1.13-.07,1.7-.08A14.62,14.62,0,0,1,55.75,118.12Zm6.44,4.77a3.75,3.75,0,0,1-.11-.67,1.72,1.72,0,0,0,.09.19,1.59,1.59,0,0,0,1.29.85H64a1.55,1.55,0,0,0,1.34-1C65,123.91,64,124.14,62.19,122.89Z"/><path class="cls-2" d="M90.54,66.51c2.27-.32,4.36-1.56,4.36-3.79a1.52,1.52,0,0,0-1.5-1.5c-1.11,0-2.19,0-3.27.12a1.47,1.47,0,0,0-1.46-1.17h-.06A10.87,10.87,0,0,0,87,52.88c-1.72-2.71-5.68-4.89-7.63-1.21-1.36,2.57-.06,6.38,2,8.83a5.66,5.66,0,0,0-2.64-.36c-3.19.42-5,3.82-2.73,6.26,2,2.17,4,1.79,6,.82a2.66,2.66,0,0,0,.28,0,3.89,3.89,0,0,0-.57,2.43C82,72,85,72.61,86.91,72.09A5.13,5.13,0,0,0,90.54,66.51Zm-5-8.9v-.44c.06.25.11.51.15.77A2.52,2.52,0,0,0,85.53,57.61Zm-2.71-4.77a2.86,2.86,0,0,1,.4.28,1.55,1.55,0,0,0-.68.8,8.74,8.74,0,0,0-.43,1.67c-.1-.26-.2-.52-.28-.76C81.59,54.11,81.75,52.3,82.82,52.84Zm4.36,15.35c-.28.49-2.57,1.46-2.48,1A8.15,8.15,0,0,1,86.59,66a6.12,6.12,0,0,0,.79.28C87.74,66.76,87.63,67.39,87.18,68.19Z"/><path class="cls-2" d="M114.68,165c-2.18-.11-7.48,4.89-8,4.43-3.17-2.73-.91-8.7-7-7.89-.74.1-1.59.61-1.5,1.5a28.35,28.35,0,0,0,1.84,6.57c-2.93-2.47-6.7-2.26-10.71-1.72-1.2.16-1.34,1.78-.67,2.51A16.7,16.7,0,0,0,91.9,173l-.47.13a1.49,1.49,0,0,0-1.1,1.44c.08,5.37,6.83,5.48,11.67,5.29a1.76,1.76,0,0,0,.09.2c2.31,4.12,6.56,4.62,10.11,1.65,1.94-1.63,2.08-3.24,1.26-4.51a7.38,7.38,0,0,0,5.59-4.38C120.39,169.72,118.38,165.2,114.68,165Zm-1.15,9.25a2.34,2.34,0,0,0,.39,0l-.51.16.11-.12Zm-2.91,4.64c0-.17-.05-.35-.07-.53A.58.58,0,0,1,110.62,178.9ZM102,166.51c-.09-.27-.18-.55-.26-.83a9,9,0,0,1,.56,1A2.61,2.61,0,0,0,102,166.51Zm-4.5,5.07-.6-.5a4.93,4.93,0,0,1,.8.47A1.38,1.38,0,0,0,97.54,171.58Zm-3.81,4c.71-.23,1.43-.46,2.17-.63a1.41,1.41,0,0,0,.67-.37A26.82,26.82,0,0,0,100,177C97.46,177,94.73,176.78,93.73,175.63Zm11.79,4.08.19-.13a1.52,1.52,0,0,0,.61-.8,19.58,19.58,0,0,0,1.78,1.61,1.23,1.23,0,0,0,.37.21A2.84,2.84,0,0,1,105.52,179.71Zm8.82-5.66a1.56,1.56,0,0,0,.49-2.08,1.44,1.44,0,0,0-1.47-1.49,6.51,6.51,0,0,0-2.86.86,1.46,1.46,0,0,0-.49,2.12c-.26.2-.51.39-.74.54a4.41,4.41,0,0,0-1.1-1.36c1.38-.31,2.54-1.95,3.41-2.91a14.45,14.45,0,0,1,1-1q2.86-2.47,3.5,3.56A3.42,3.42,0,0,1,114.34,174.05Z"/><path class="cls-2" d="M213.13,121.8c-.06-3-3.76-3.94-6.14-3.27a1.7,1.7,0,0,0-.39.18,1.51,1.51,0,0,0-2.29,1.26,4.3,4.3,0,0,1-.32,1.87,1.59,1.59,0,0,0-.06,1.17l-.09.24a1.26,1.26,0,0,0,.15,1.18,26.77,26.77,0,0,1-2.39,2.89,1.51,1.51,0,0,0,1.06,2.56c1.79,0,3-1.53,4.6-2.16a1.85,1.85,0,0,0,1.09-1.52C210.68,125.52,213.19,124.58,213.13,121.8Zm-3,.35c-.23.51-1,.84-1.9,1.08.22-.42.41-.86.61-1.29a1.21,1.21,0,0,0,.82-.46C210.07,121.59,210.31,121.8,210.15,122.15Z"/><path class="cls-6" d="M210.35,423.12a1.5,1.5,0,0,0-1.47-.52c-.83.16-1.6.35-2.36.51a32.59,32.59,0,0,1-5.59-.07l-.92-.26c-.68-.26-1.34-.56-2-.88l-.36-.23a1.61,1.61,0,0,0-.6-.23c-.61-.3-1.22-.59-1.83-.84-.77-.33-2.06-.17-2.2.89,0,.14,0,.28,0,.41a1.6,1.6,0,0,0-.82,1.34,11.79,11.79,0,0,0,1.85,6,10.34,10.34,0,0,0,1.82,3.12,1.28,1.28,0,0,0,1.13.44c.26.22.53.42.79.6a1.19,1.19,0,0,0,.84.23l.23.11a3.14,3.14,0,0,0,1.38.54,7.49,7.49,0,0,0,1.44.28,5.39,5.39,0,0,0,3.5-.78c1.91-.55,3.27-3.79,4.09-6.18a4.45,4.45,0,0,1,1.62-1.74A1.51,1.51,0,0,0,210.35,423.12Zm-9.61,7.34c.08.21.08.34,0,.4C200.75,430.73,200.75,430.59,200.74,430.46Z"/><path class="cls-6" d="M199.16,421.26h.08a1.52,1.52,0,0,0,2.86,0h.06c0-.12,0-.24,0-.36a.22.22,0,0,0,0-.08c0-.07,0-.15,0-.22a4.82,4.82,0,0,1,2-4.37c.83-.55,3.71-1.78,4.63-1.28,1.71.91,3.22-1.73,1.52-2.65-2.33-1.25-5.48.1-7.66,1.14a5.36,5.36,0,0,0-2.05,1.77,9.74,9.74,0,0,0-7.08-4.89c-1.89-.25-2.71,2.74-.8,3C196.64,413.86,199.12,417.26,199.16,421.26Z"/><path class="cls-6" d="M184.28,412.25c-2.8,1.48-5.14,2.63-6.61,4.47a7.37,7.37,0,0,0-1.77-3.15c-2.16-2.22-5.19-.92-7.69-.4-1.9.4-1.09,3.29.79,2.89s4-1.64,5.36.31c1.18,1.68,1,4.28,1.69,6.19a1.51,1.51,0,0,0,1.45,1,25.08,25.08,0,0,1-3.56.2,10.08,10.08,0,0,0-3-.7,1.15,1.15,0,0,0-1,.41,1.53,1.53,0,0,0-2,1c-.69,2,.55,3.76,1.51,5.46l0,.06a18.32,18.32,0,0,0,1,2.55,10.56,10.56,0,0,0,1.86,3.89,1.41,1.41,0,0,0,2.26-.24,1.72,1.72,0,0,0,.84.05c.75.64,1.64.69,2.65-.27a4.22,4.22,0,0,0,1.71-.76,10.26,10.26,0,0,0,3.4-2.62,6.39,6.39,0,0,0,1.45-4.26,21.46,21.46,0,0,0,.53-2.14c.1-.19.2-.37.29-.57a1.44,1.44,0,0,0-.11-1.45c0-1.13-1.54-1.62-2.46-.9h-.34a1.59,1.59,0,0,0-1.1.4,1.25,1.25,0,0,0-.62-.25c-.15,0-.29,0-.44,0,0,0,0,0,0,0-.86,0-1.71.12-2.56.2a1.36,1.36,0,0,0,1.09-1.39c0-2.21.21-3.37,2.09-4.82a31.65,31.65,0,0,1,4.71-2.5C187.5,413.93,186,411.34,184.28,412.25Z"/><path class="cls-5" d="M163.12,93.9c-5.06,12.12.41,29,7.95,38.91,3.48,4.56,8.61,8.36,14.57,7.31,6.21-1.11,11.21-6.55,14.73-11.39,8.79-12.06,10.2-32.78-2.5-42.45-10.5-8-29.21-5-34.75,7.62-.42.95,1.52.82,1.82.14,6.52-14.91,27.55-13.32,36.37-1.84,7.48,9.74,3.54,27.11-2.76,36.4-3.85,5.66-11.36,13-18.7,9.46-5.17-2.51-8.69-7.85-11.2-12.81-4.43-8.76-7.66-21.74-3.71-31.21.4-1-1.54-.83-1.82-.14Z"/><path class="cls-5" d="M162.16,106.57A19.39,19.39,0,0,1,151.3,93.26c-1.7-6.51.88-12.5,4.84-17.61,8.41-10.86,23.31-16,36.61-13.63,12.62,2.27,22.93,11.78,27.64,23.45a15.92,15.92,0,0,1-3,17.55,39.65,39.65,0,0,1-7.07,5.84c-1.34,1-3.25,1.52-4.41,2.66-.86.86,1,1.24,1.63.61,1.51-1.49,4.56-2.66,6.35-4a31.53,31.53,0,0,0,7.41-7.44c3.94-5.71,2.56-12.4-.08-18.31-5.63-12.62-18.22-21-31.77-22.4-14-1.49-28.71,6-36.68,17.36a20.46,20.46,0,0,0,8.26,30.55c.84.38,2.23-.83,1.11-1.35Z"/><path class="cls-5" d="M166.17,63.82C164.89,49,184.92,52,193.88,52.81c5.92.54,10.87.45,15.81,4.31,3.58,2.79,4.05,10,1.91,13.63-.42.71,1.5.44,1.78,0a12.47,12.47,0,0,0-1.89-14.32C206,51,196.76,52.19,189.85,51.26c-9.17-1.24-26.76-.3-25.61,13.07,0,.53,2,.14,1.93-.51Z"/><path class="cls-5" d="M160.65,64.44c-3.46,0-5.93-6.33-2.73-8.24l-1.58-.07c.53,1.42.63,4.85,2.19,5.6a2.76,2.76,0,0,0,2.22-.25c1.86-.8,2.63-2.08,4.89-2l-.54-.64c-.8,1.29-2.07,2.15-2.87,3.45-.18.29,0,.54.32.61a9.1,9.1,0,0,0,2.39.06,5.47,5.47,0,0,1,1.34.1c1.05.22,0,1.81-.64,1.89-1,.1-1.57,1.31-.23,1.17,1.5-.16,4.24-1.85,3-3.68-.9-1.3-3.43-.36-4.66-.67.1.21.21.41.32.61.8-1.28,2.07-2.15,2.87-3.44.24-.39-.2-.64-.54-.64a8.42,8.42,0,0,0-5.85,2c-1,.73-1.05-.34-1.27-1.21a28.85,28.85,0,0,0-1-3.41c-.22-.59-1.2-.3-1.57-.07-4.33,2.57-1.55,10.14,3.22,10.09.78,0,2-1.21.73-1.19Z"/><path class="cls-5" d="M159.46,64.44c-3-.91-7.08-2-9.2,1.07a.36.36,0,0,0,0,.44,7.86,7.86,0,0,0,3.78,1.64l-.32-.62c-1.19,1.59-3.46,4.35-.07,4.62a9.62,9.62,0,0,1,2.27.24,3.32,3.32,0,0,0,1.87-.14c1.54-.47,2.35-2,3.54-3,.89-.72-1-.83-1.57-.4A16.56,16.56,0,0,0,158.12,70c-.63.67-2.08.24-3,.34-2.79.32-.33-2.29.42-3.3.21-.28-.06-.55-.33-.61-.62-.16-1.25-.3-1.87-.48-1.66-.48-.25-1.29.72-1.3a14.33,14.33,0,0,1,4.23.89c.68.21,2.28-.79,1.16-1.13Z"/><path class="cls-5" d="M161.35,66.49c-.51.14-.64.19-.37.15l.21,0a3.06,3.06,0,0,0,.72-.19A1.93,1.93,0,0,0,163,65.6c.12-.18-.23-.25-.33-.26a3.53,3.53,0,0,0-1.5.27c-.14.07-.55.3-.34.5s.22.09.25.26c.06.44,2,0,1.93-.52,0-.24-.21-.27-.36-.42l-.35.5h0l-1,.26h.09l-.34-.26c-.27.45.79-.13.37-.07a5.21,5.21,0,0,0-.57.1,2.56,2.56,0,0,0-1,.43c-.28.23-.27.45.13.48a2.17,2.17,0,0,0,1.36-.37Z"/><path class="cls-5" d="M172.67,61.3c-1.54-.54-1.51-2.18-1.48-3.56l-1.74.58a3.24,3.24,0,0,0,4.15-.23c.63-.57,1-1.37,1.62-2,1-1,2.62-.19,3.11.79a2.85,2.85,0,0,1-.34,2.32l1.34-.66H179c-.09.32-.17.65-.26,1a4,4,0,0,1,1.6-.24l-.21-.79c-.73.42-1.39.93-2.12,1.36-1.13.65.58.87,1.18.52s1.4-.93,2.13-1.35c.54-.32.41-.79-.21-.79a7.93,7.93,0,0,0-2.61.37c-.56.19-1.36,1-.26,1h.35a1.46,1.46,0,0,0,1.34-.65c1.21-2.68-.45-4.27-3.14-4.35a4.34,4.34,0,0,0-2.79,1c-1,.83-1.58,2.72-3,1.85-.35-.23-1.72,0-1.73.58,0,1.72,0,3.56,1.86,4.21.57.19,2.32-.64,1.55-.91Z"/><path class="cls-5" d="M170.91,60.55a4.31,4.31,0,0,0-2.68.76,1.14,1.14,0,0,0-.46,1.3,1.48,1.48,0,0,0,1.29.79,4.45,4.45,0,0,0,2.88-.86c.34-.22.21-.52-.15-.57a2.1,2.1,0,0,0-1.37.37,1.83,1.83,0,0,1-.24.13c.09,0-.23.06,0,0s-.17,0,.06,0-.08,0-.1,0a.83.83,0,0,1-.42-.36.53.53,0,0,1,0-.55c.11-.15-.09.05.06-.07,0,0-.23.11,0,0,0,0-.28.06,0,0a2.55,2.55,0,0,1,.39,0A1.77,1.77,0,0,0,171.4,61c.29-.36-.25-.46-.49-.46Z"/><path class="cls-5" d="M188.91,102.59a12.37,12.37,0,0,1,5.47-2.16c2.19-.22,4.26.64,6.31,1.22.81.23,2.29-1,1.12-1.29A24.55,24.55,0,0,0,194.56,99c-2.4,0-5,1.39-6.92,2.69-1.09.73.5,1.37,1.27.86Z"/><path class="cls-5" d="M181.07,102.53c-4.33-3.71-10.58-3.78-15.54-1.36-1.16.57.59.79,1.18.5a11.66,11.66,0,0,1,12.56,1.59c.48.42,2.27-.32,1.8-.73Z"/><path class="cls-5" d="M180.06,116.93h.9a1.58,1.58,0,0,0,1.15-.39c.32-.3.2-.63-.2-.75l-.1,0,.31.16a1.49,1.49,0,0,0-.56-.32c-.32.38-.64.76-.95,1.15h.9a1.49,1.49,0,0,0,1.27-.54c.24-.39-.21-.63-.54-.63l-.9,0a1.61,1.61,0,0,0-1.15.4c-.31.29-.2.64.2.75l.11,0-.31-.17a1.31,1.31,0,0,0,.56.32l.95-1.14-.91,0a1.5,1.5,0,0,0-1.27.54c-.24.39.21.63.54.64Z"/><path class="cls-5" d="M185.47,116.84a2.63,2.63,0,0,0,1.87-.56c.45-.37,0-.76-.42-.77h-.54l-.73,1.17H186a1.47,1.47,0,0,0,1.27-.55c.24-.39-.21-.62-.54-.62h-.36a1.49,1.49,0,0,0-1.27.54c-.25.39.2.62.54.63h.54l-.42-.77c.3-.25.83-.23.43-.24a1.49,1.49,0,0,0-1.27.55c-.25.39.2.62.54.62Z"/><path class="cls-5" d="M178.39,124.74c1.29-.4,1.7-1.1,2.77-2,.54-.43,1,.49,1.61.53a4.74,4.74,0,0,0,1.68-.11c1.06-.28.92-.72,1.73.35a2.94,2.94,0,0,0,2.87,1.31c.56,0,2.11-.91.82-.86-1.68.06-1.8-1.82-3.24-2.14a3.54,3.54,0,0,0-2.79.74c.64-.63-2.17-.86-2.59-.75a5.69,5.69,0,0,0-1.59.81,19.59,19.59,0,0,0-1.45,1.39c-1.11.35-1,1,.18.69Z"/><path class="cls-5" d="M177.47,124.1a2,2,0,0,1-.05-.24l-1.75.69a26.88,26.88,0,0,0,8.16,1.34c3.39.15,6.36-1.3,9.44-2.51,1.26-.5.09-1-.73-.65-3.33,1.32-6.21,2.37-9.87,2.07a20.17,20.17,0,0,1-5.44-1.11c-.37-.14-1.87.06-1.74.69,0,.08,0,.16,0,.24.12.57,2.06.09,1.94-.52Z"/><path class="cls-5" d="M178.1,125.53c1.25,0,1.71,1.47,2.54,2.17a4,4,0,0,0,2.7.71,6.23,6.23,0,0,0,2.89-.66c.82-.45,1.12-1.62,2-2,1.22-.54.11-1.28-.79-.88a5,5,0,0,0-1.41,1.06c-1.07,1-1.27,1.54-3,1.24-1.09-.19-1.55-1.39-2.18-2.13a2.56,2.56,0,0,0-2-.68c-.77,0-2,1.18-.73,1.18Z"/><path class="cls-5" d="M188.68,107.64c1.54-.26,2.49-2.06,4-2.07,2.1,0,4,.86,6.11.46.93-.17,1.56-1.39.24-1.14-2.18.41-4.27-.8-6.44-.47a5.11,5.11,0,0,0-1.86.58c-.55.3-1.25,1.41-1.78,1.5-.95.16-1.57,1.36-.24,1.14Z"/><path class="cls-5" d="M188,107.84a15.43,15.43,0,0,0,3,.25,9.54,9.54,0,0,0,3.63-1.49c.93-.53,2.76-.16,3.86-.41a4.38,4.38,0,0,0,2.47-1.3c.42-.5-1.45-.25-1.76.11-.84,1-3.71.51-4.94,1a7.14,7.14,0,0,0-1.49.74c-1.26.83-2.24.39-3.56.3-.44,0-2.23.76-1.24.83Z"/><path class="cls-5" d="M191.13,105.3c-.38.14-.9.34-1,.78a1.09,1.09,0,0,0,.34,1c.83.88,2.35.51,3.25-.07.3-.19.27-.38-.1-.39a2.54,2.54,0,0,0-1.37.37c.51-.33.9,0,.4-.26a1.28,1.28,0,0,1-.42-.38,1.2,1.2,0,0,1-.19-.45c-.06-.33.29-.37-.24-.17.07,0,.87-.35.58-.52s-.93,0-1.24.12Z"/><path class="cls-5" d="M191.92,105.59c.9.21.41,1.28,0,1.76s.25.46.49.45a1.82,1.82,0,0,0,1.28-.5c.66-.77,1.13-2.24-.22-2.56a1.9,1.9,0,0,0-1.36.21c-.17.09-.66.53-.2.64Z"/><path class="cls-5" d="M191,106.46l.16.18c.52.63,2.36-.11,1.77-.82l-.15-.18c-.52-.63-2.37.11-1.78.82Z"/><path class="cls-5" d="M189.6,107.53c.6-.88,1-1.56,2-1.83,1.47-.37,2.69.13,4.1.49a4.24,4.24,0,0,0,4.11-.83c1-.87-.56-1.5-1.28-.86-1.09,1-2.69.12-3.85-.19a6.3,6.3,0,0,0-2.63-.08A5.09,5.09,0,0,0,188,107c-.69,1,1.12,1.28,1.61.56Z"/><path class="cls-5" d="M189.76,106.94c1.45-3.62,8.15.72,10.83-1.85.81-.78-1.1-.72-1.54-.3-.81.78-3.25-.08-4.23-.24a8.1,8.1,0,0,0-2.69,0c-1.71.28-3.61.94-4.3,2.66-.24.61,1.69.37,1.93-.25Z"/><path class="cls-5" d="M189.46,106.8c.09-.76,1.21-1.38,1.75-1.75a4.33,4.33,0,0,1,3.74-.14,7.94,7.94,0,0,0,4.49.34c1.15-.26,1-.89-.17-.64-1.53.34-3.43-.75-5-.86a8.06,8.06,0,0,0-3.12.43c-1.2.44-3.45,1.74-3.62,3.14,0,.28,1.86.09,1.94-.52Z"/><path class="cls-5" d="M193.42,105.22a34.15,34.15,0,0,1,4.16.25c1.15,0,1.45-1.46.15-1.51a34.2,34.2,0,0,0-4.17-.26c-1.12.09-1.46,1.62-.14,1.52Z"/><path class="cls-5" d="M196.55,105.26a6.13,6.13,0,0,0,4.32-.84c.31-.19.27-.39-.1-.4a2.66,2.66,0,0,0-1.37.37,1.62,1.62,0,0,1-1.26.14,2.32,2.32,0,0,0-1.34.25c-.15.07-.68.38-.25.48Z"/><path class="cls-5" d="M197,105.23a11,11,0,0,0,3.76-.16c.37-.12.92-.44.79-.91s-.78-.52-1.14-.4a8.39,8.39,0,0,1-2.74.08,1.3,1.3,0,0,0-1.26.58.59.59,0,0,0,.59.81Z"/><path class="cls-5" d="M179.49,106.94c-.77-.16-1.22-1-1.76-1.47a3.53,3.53,0,0,0-1.79-.75c-2.16-.41-4.3.72-6.46.22-.66-.15-2.28.85-1.17,1.11a13.64,13.64,0,0,0,5-.15,3.54,3.54,0,0,1,3.57,1.36,2.45,2.45,0,0,0,1.44.78c.66.14,2.28-.87,1.16-1.1Z"/><path class="cls-5" d="M179.47,107.44a14.75,14.75,0,0,1-2.73.11c-1.1-.18-1.82-1.2-2.86-1.53-1.68-.53-4.1.1-5.3-1.43-.31-.38-2.14.26-1.82.68,1.4,1.76,4.13.86,6,1.73,1.07.51,1.74,1.22,2.95,1.42a15.68,15.68,0,0,0,3-.16c.54,0,2.11-.86.82-.82Z"/><path class="cls-5" d="M175.4,106.14c.37.16.38.47.22.8a1,1,0,0,1-.29.33,1.22,1.22,0,0,1,.71-.18.84.84,0,0,1-.39-.19c-.29-.2-1,0-1.24.13-.08,0-.86.33-.58.52a3,3,0,0,0,3.19-.4c.49-.38,1-1.31.21-1.65a1.83,1.83,0,0,0-1.24.12c-.05,0-.9.39-.59.52Z"/><path class="cls-5" d="M175.24,105c-.72.14-1.68.44-1.84,1.27A2.29,2.29,0,0,0,174,108c.36.44,2.21-.21,1.81-.72a2.24,2.24,0,0,1-.43-.89,1.2,1.2,0,0,1,0-.38c.05-.44.39-.22-.39-.07.34-.07,1-.21,1.11-.6s-.63-.34-.8-.31Z"/><path class="cls-5" d="M175,106.1l-.16.18a.5.5,0,0,0,.23.86,1.4,1.4,0,0,0,1.37-.37l.16-.18a.49.49,0,0,0-.23-.85,1.41,1.41,0,0,0-1.37.36Z"/><path class="cls-5" d="M179.79,107.24c-1-1.67-1.71-2.33-3.65-2.71a6.73,6.73,0,0,0-2.41-.06c-1.3.21-3.07,1.19-4.25.06-.62-.6-2.44.19-1.77.84a4,4,0,0,0,3.95,1,11.21,11.21,0,0,1,3.25-.52c1.61.13,2.32,1,3.11,2.28.46.73,2.3,0,1.77-.85Z"/><path class="cls-5" d="M179.88,107.23c-.61-1.73-2.61-2.32-4.29-2.53-1.89-.25-5.27,1.37-6.71-.13-.46-.48-2.29.23-1.8.74,1.08,1.12,2.76.92,4.17.77,2.09-.22,5.75-1,6.7,1.67.23.65,2.14.09,1.93-.52Z"/><path class="cls-5" d="M180.19,107.23c-.09-1.12-2.06-2.59-3.06-2.88a8.65,8.65,0,0,0-2.77-.36c-1.66.08-3.5,1-5.12.57-.47-.12-2.18.62-1.59.77,1.94.51,3.38-.28,5.29-.49,1.52-.18,5.15.86,5.31,2.91,0,.39,2,0,1.94-.52Z"/><path class="cls-5" d="M174.65,104a36.36,36.36,0,0,0-4.43.09c-1.14,0-1.45,1.51-.14,1.51a34.27,34.27,0,0,1,3.92-.1,1.24,1.24,0,0,0,1.26-.61.66.66,0,0,0-.61-.89Z"/><path class="cls-5" d="M170.64,104.65a3.08,3.08,0,0,1-2-.58c-.3-.21-.94,0-1.24.12-.08,0-.86.34-.58.53a4.76,4.76,0,0,0,3.5.6c.32,0,1-.18,1.13-.51s-.69-.18-.76-.16Z"/><path class="cls-5" d="M170.55,103.92a8,8,0,0,1-2.77-.18,1.32,1.32,0,0,0-1.37.36.55.55,0,0,0,.25.93,11.27,11.27,0,0,0,3.71.3,1.11,1.11,0,0,0,1.07-.78c.06-.51-.52-.62-.89-.63Z"/><path class="cls-5" d="M171.44,132.93c1.86,4.46.59,9.77-.26,14.33-.1.51,1.81.18,1.91-.32.86-4.59,2.15-10,.29-14.53-.21-.51-2.1.11-1.94.52Z"/><path class="cls-5" d="M195.13,133c-1.43,2.95-2.31,8.54,0,11.29.53.64,2.37-.1,1.77-.83-2-2.44-1.18-7.65.08-10.28.47-1-1.49-.91-1.83-.18Z"/><path class="cls-5" d="M170.81,143.54c-3.09,5.65,8.87,10.84,12.46,12.7.64.34,2.39-.56,1.51-1a77.27,77.27,0,0,1-7.3-4.17c-2-1.37-6.48-4.42-4.85-7.4.49-.88-1.47-.75-1.82-.12Z"/><path class="cls-5" d="M175.22,161.78c4.8-1.31,9.23-5,13-8.05,3.39-2.77,8.77-7,9.22-11.69.09-1-1.88-.74-2,.14-.41,4.27-5.55,8.14-8.54,10.66-3.44,2.89-7.66,6.4-12.08,7.61-1.19.33-.84,1.66.36,1.33Z"/><path class="cls-5" d="M194.68,140.94c6.65,4.81,7.84,10.36,2.64,16.85-3.75,4.7-8.93,8.43-13.37,12.47-8.16,7.4-17,17.49-19.84,28.36-.17.68,1.77.39,1.93-.25,3.23-12.48,14-23.11,23.41-31.4,4.46-3.95,9.41-7.72,12.29-13.06,3.06-5.68-.72-10.43-5.26-13.71-.54-.4-2.3.37-1.8.74Z"/><path class="cls-5" d="M172,141.64c-6.35-.12-5.45,7.3-3.78,11.68,2.61,6.83,7.86,12.65,12.55,18.13.49.57,2.34-.15,1.78-.8a119.75,119.75,0,0,1-9.11-11.72c-1.09-1.65-8.77-16.19-2.16-16.06.82,0,2-1.2.72-1.23Z"/><path class="cls-5" d="M169,142.28c-5.92,2.59-15.84,9.72-12.58,17.06,1.93,4.35,5.45,8.15,8.74,11.48,2.41,2.45,5.42,5.39,8.9,6.16.52.12,2.26-.71,1.21-.94-6-1.35-11.7-9.17-15-13.92-2.41-3.47-3.76-6.37-1.31-10.2a26.16,26.16,0,0,1,10.77-9c1.24-.55.08-1-.73-.65Z"/><path class="cls-5" d="M194.81,141c5.27,1.81,9.64,6.07,13.83,9.6,6.77,5.69,3,11-2.06,16.58-4.77,5.2-10.54,8.93-15.46,13.86a119.21,119.21,0,0,0-14.34,17.35c-.46.68,1.47.45,1.79,0a110.19,110.19,0,0,1,16.32-19.22c6.16-5.68,12.78-10.12,17.73-17.11,3-4.24,2.27-7.89-1.27-11.35-4.1-4-9.48-8.68-15-10.57-.54-.19-2.29.62-1.55.88Z"/><path class="cls-5" d="M160.39,202.67c6.55-5,18.32-3.35,26.19-3.25,8.06.1,16.56.39,24.2,3.18.48.18,2.24-.58,1.56-.82-9.38-3.43-19.9-3.28-29.76-3.3-7.87,0-17.06-1.06-23.7,4-.82.63,1.12.46,1.51.16Z"/><path class="cls-5" d="M156.65,245.7c2,2.33,5.84,2.87,8.69,3.41a96.44,96.44,0,0,0,17.31,1.32A97.92,97.92,0,0,0,200.58,249c3.63-.65,8.07-1.63,10.64-4.51.82-.93-1-1.32-1.63-.63-2.52,2.83-7.46,3.44-11,4a98,98,0,0,1-14.72,1.07,108.71,108.71,0,0,1-15.3-.89c-3-.4-8-.74-10.19-3.23-.61-.7-2.43.1-1.76.88Z"/><path class="cls-5" d="M211.27,203c.11,2.88.87,5.63.91,8.54.06,3.34,0,6.69-.05,10,0,7.48,0,15.41-2.64,22.52-.38,1,1.55,1,1.84.2,2.31-6.32,2.56-13.14,2.71-19.8.09-3.93,0-7.86.08-11.79,0-3.37-.77-6.52-.89-9.86,0-1-2-.68-2,.16Z"/><path class="cls-5" d="M161.93,211.83c7-1,13.88-1.63,20.93-2.08,9.33-.59,19.52-1,28.13,3.23.59.29,2.36-.55,1.53-1-7.58-3.69-16.18-3.88-24.45-3.63a221.91,221.91,0,0,0-25.89,2.32c-.94.14-1.58,1.32-.25,1.12Z"/><path class="cls-5" d="M159,237.57c2,2.12,5.17,2.25,7.84,2.78a57.9,57.9,0,0,0,15.71.91A78.49,78.49,0,0,0,198.83,238c4.57-1.33,9.11-2.47,12.81-5.59,1-.85-.52-1.63-1.3-1-6,5.05-16.53,6.72-24.08,7.88a57.35,57.35,0,0,1-14.22.33c-2.76-.26-9.37-.85-11.32-3-.64-.69-2.46.12-1.77.87Z"/><path class="cls-5" d="M203.08,243.26a32.48,32.48,0,0,0,8.22-1c1.19-.3.88-1.42-.3-1.13a27.79,27.79,0,0,1-7.21.85c-.81,0-2,1.23-.71,1.24Z"/><path class="cls-5" d="M204.61,245.77a8.52,8.52,0,0,0,3.3-1.56c1-.88-.57-1.54-1.29-.89a5.86,5.86,0,0,1-2.36,1.12c-.38.12-.92.45-.79.93s.77.52,1.14.4Z"/><path class="cls-5" d="M195.56,206c3.84-.89,10,.5,12.88,3.23l1-1c-2.47.15-5.1-1.36-7-2.83-.28.39-.57.77-.86,1.16a29,29,0,0,1,5,.45c.37,0,1.81-.44,1.24-1.05l-.34-.35-1.24,1,1,0c.85,0,2-1.25.7-1.28l-1.05,0c-.35,0-1.83.43-1.24,1l.34.36,1.24-1.05a32.62,32.62,0,0,0-5.49-.45c-.49,0-1.54.63-.85,1.16,2.29,1.78,5.33,3.25,8.29,3.07.32,0,1.52-.56,1-1.05-3.53-3.3-10.34-4.67-15-3.6-1.2.28-.87,1.45.32,1.18Z"/><path class="cls-5" d="M215.09,157.63c11.7,17.6,26.07,35.49,32.88,55.76,2.74,8.17,2.58,17.63,2.38,26.17-.12,5.14-.47,12.27,3.4,16.24.65.66,2.47-.15,1.76-.88-4.35-4.46-3.29-12.91-3.1-18.61.28-8.82-.48-18.62-3.76-26.86-7.57-19-20.56-35.79-31.8-52.7-.51-.78-2.34,0-1.76.88Z"/><path class="cls-5" d="M152.56,158.49c-5,1.47-8.37,6-11.77,9.65-4.66,5-10.95,9.12-13,16-.13.44,1.75.18,1.91-.32,1.64-5.38,6-9.16,10-12.91,3.77-3.56,8-10.25,13.11-11.75,1.12-.33,1-1-.17-.65Z"/><path class="cls-5" d="M157.38,195.32c-.56,2.61.26,5.51.78,8.07a132.5,132.5,0,0,1,2,14.08c.54,5.76.71,11.63-.71,17.28-1.2,4.74-4.51,8.66-7.45,12.42-.22.28-3.11,4.17-2.54,4.18-1.21,0-4.08-5.76-4.47-6.45A78.77,78.77,0,0,1,139.47,231c-1.81-5.62-3.26-10.77-2.88-16.76.34-5.38,1.81-10.6,2-16,0-.82-1.91-.43-1.93.23-.25,5.94-1.77,11.7-2.15,17.62s1.67,11.37,3.44,16.84c1,3,6.65,21.62,11.83,19.41,1-.44,1.63-2,2.25-2.84,1.6-2.23,3.37-4.34,5-6.55a28,28,0,0,0,5.3-14.75c.64-6.77-.58-13.69-1.17-20.42-.36-4.17-2.8-8.43-1.88-12.7.16-.75-1.79-.44-1.94.24Z"/><path class="cls-5" d="M152.82,181.13c-5.35-.31-8.79,1.52-8.81,7.25,0,3.55.8,7,.64,10.6-.16,3.27,1.69,4,4.66,4.42,4.25.57,9.77-4.33,11.68-7.75,1.1-2-2.05-1.88-3.08-1.82-.84,0,.51-3,.48-3.58-.11-2.36-.74-2.9,1-5.05.07-.08.15-.21,0-.3-2.14-1.45-4.86-3.81-7.6-2.89-1.3.44-.08.8.69.54.42-.14,2.85,1.58,3.32,1.86,1.95,1.19.73,2.33-.39,3.68-.08.11-.13.2,0,.3,1.85,1.88.59,4.16-.18,6.21-.13.36.65.27.79.25,5.66-.82,2.25,2.37.63,3.93-3.13,3-10.26,5.85-10.11-.32.13-5.26-3.81-17,5-16.46.46,0,2.23-.81,1.23-.87Z"/><path class="cls-5" d="M151.1,178.42c.72-6.79-1.63-13.72-2.6-20.44-.88-6-1.56-12.12-2.29-18.19-1.37-11.49-2-23.61-5.08-34.81-.11-.38-2,.14-1.93.52,3.06,11.2,3.7,23.32,5.08,34.81.73,6.07,1.43,12.14,2.28,18.19.95,6.72,3.33,13.64,2.6,20.44,0,.19,1.88,0,1.94-.52Z"/><path class="cls-5" d="M141.37,103.4c.77,10.73,2.8,21.44,4.8,32,3,15.5,3.79,31.44,5.06,47.15,0,.53,2,.14,1.93-.52-1.27-15.7-2.06-31.67-5.06-47.15-2-10.53-4-21.27-4.8-32,0-.53-2-.14-1.93.51Z"/><path class="cls-5" d="M152.59,203.27c-2.29,1.71-1.23,6.4-1,8.76.58,5.52,2.2,11.07,2.28,16.63,0,.44.48.57.87.51,10.07-1.55,1.69-21.08,1.58-27,0-.91-2-.54-1.94.2.06,3.51,1.08,7,1.78,10.44.82,4,2.92,11,.11,14.55-1,1.26-.73-2.09-.88-3.14-.34-2.41-.75-4.82-1.13-7.23s-2.7-11.31-.45-13c1-.78-.56-1.22-1.24-.72Z"/><path class="cls-5" d="M146.89,180.88c-9.72.27-10.08,11.65-10.22,19,0,.85,1.92.46,1.93-.22.11-5.41-.16-17.42,7.55-17.63.76,0,2-1.19.74-1.16Z"/><path class="cls-5" d="M140.13,196.57c1.25.08,2.05,1.61,2.64,2.52.3.47,2.08-.28,1.93-.52-.81-1.26-1.66-2.67-3.31-2.77a2.53,2.53,0,0,0-1.37.36c-.32.2-.25.39.11.41Z"/><path class="cls-5" d="M145.33,180.23c-3.7.08-9.86.37-13.1,2.19-1,.56-1.3,2.71-1.67,3.67a41,41,0,0,0-2.43,9.93c-.34,3,0,6.08-.08,9.08a95.31,95.31,0,0,1-1.32,10.65,35.8,35.8,0,0,0,.86,15.27,39.79,39.79,0,0,0,6.85,13.08c2.53,3.38,6.17,8.09,10.39,9.33,5.66,1.67,9.45-7.76,12.34-10.76.52-.54-1.4-.38-1.78,0a51.28,51.28,0,0,0-4.9,6.46c-1.73,2.48-4.1,4-6.87,2a34.45,34.45,0,0,1-4.43-4.28,40.2,40.2,0,0,1-10.64-20.61c-1.51-8.29,1.45-16.82,1.51-25.17a42.83,42.83,0,0,1,1.85-13.61c.46-1.44,1-4.34,2.83-4.74a50.14,50.14,0,0,1,9.81-1.49c.65,0,2.08-1,.78-1Z"/><path class="cls-5" d="M130.27,182.66s-.26.1-.05,0l-.29.08-.7.17c-.5.11-1,.21-1.5.36s-2.13,1-.89,1.44a1.68,1.68,0,0,0,1.36-.19c.23-.14.62-.57.18-.73-.14-.06-.14-.12-.09,0a.6.6,0,0,1-.37.44s.27-.1.06,0a9.13,9.13,0,0,1,1-.25,11.12,11.12,0,0,0,2.05-.57c.21-.09.83-.44.52-.75s-1-.16-1.28,0Z"/><path class="cls-5" d="M127.62,181.7c-2.29,2.82-5.79,4-8.48,6.33-2.2,1.92-2.57,4.8-2.71,7.53-.22,4.24-.47,8.34-1,12.56-.43,3.59,1.52,6.82,3,9.93,3.57,7.4,5.58,14.9,10.69,21.47a48.72,48.72,0,0,0,17,14.22c.54.26,2.32-.53,1.55-.89-6.69-3.19-12.15-8.39-16.8-14.07-5.16-6.28-7.34-13.93-10.56-21.24-1.73-3.94-3.38-6.77-2.85-11.28a78.12,78.12,0,0,0,.78-9.65c0-5.24,1.44-8.22,6.08-10.89a17,17,0,0,0,5-4c.52-.63-1.42-.45-1.79,0Z"/><path class="cls-5" d="M214.18,199.91c.28-3.21,1.85-5.93,2.33-9s.6-6,1.46-8.95l-1.92.44c4.06,8.08-4.15,15.14-4.33,23.22,0,.37,1.56-.18,1.7-.25a9.88,9.88,0,0,0,3.3-3.58,2.48,2.48,0,0,0-1.9.36,11,11,0,0,1-2.87,3.22l1.7-.26c.18-8.12,8.43-15.07,4.33-23.23-.18-.37-1.81.08-1.91.44a48.22,48.22,0,0,0-1.3,7.93c-.43,3.51-2.22,6.63-2.52,10.2,0,.2,1.89,0,1.93-.51Z"/><path class="cls-5" d="M221.13,196.09c.44-.86.89-1.71,1.34-2.57.23-.43-.2-.75-.59-.8a1.26,1.26,0,0,0-1.25.59l-1.35,2.57c-.23.43.2.75.59.8a1.29,1.29,0,0,0,1.26-.59Z"/><path class="cls-5" d="M217.88,200c-1.91,4.9-3.95,9.75-4.61,15-.07.59,1.85.22,1.92-.31.65-5.26,2.7-10.11,4.6-15,.18-.46-1.7-.24-1.91.31Z"/><path class="cls-5" d="M216.35,217.4a82.46,82.46,0,0,0,8.94-12l-1.9.34c-2.37,10.71-9.86,20.1-11.75,31-.34,2,.53,3.34,2.56,3.16,2.64-.22,4.05-2,4.9-4.37l-1.92.43c-.2,4.2-1,8.33-1.53,12.49,0,.23,1.85.07,1.93-.52.55-4.16,1.33-8.28,1.54-12.49,0-.34-1.79,0-1.92.43-.53,1.49-2.67,4.67-3.63,2-.37-1,.12-2.36.37-3.38a46.17,46.17,0,0,1,2.56-6.81c3.05-7.08,7.13-14.76,8.79-22.28.11-.49-1.69,0-1.9.34a79.82,79.82,0,0,1-8.79,11.82c-.39.45,1.45.19,1.75-.15Z"/><path class="cls-5" d="M231.13,262.34c-1.68,3.55-3.32,8.73-2,12.61.16.45,1.73-.17,1.92-.44,1.26-1.78,2.39-3.43,4.44-4.38l-1.52.16c2.37,3.26-3.49,17.43,5.12,13.59,7-3.11,6.79-17.39,5.14-23.44-.11-.39-2,.13-1.94.51a31.1,31.1,0,0,1-1.64,19.77c-.66,1.39-2.84,4.28-4.31,2.16-.74-1.07-.4-3-.31-4.18.22-2.63,1.59-6.57-.12-8.92-.25-.35-1.23,0-1.52.16-2.37,1.1-3.74,2.81-5.24,4.93l1.92-.44c-1.33-3.91.27-8.86,2-12.45.11-.24-1.68-.11-1.9.36Z"/><path class="cls-5" d="M210,246.77c.7,4.06,2.83,7.45,4.59,11.11,1.59,3.28.77,5.93.45,9.34,0,.35,1.2,0,1.3,0,7.95-2.77,15.22-7.31,23.54-9a18.23,18.23,0,0,1,8.18.24c1.39.35,7,2.71,5.9,5.15-1.39,3-5.44,3.91-7.09,6.88-.17.3,1.63.17,1.91-.33,1.89-3.39,5.91-4.37,7.62-8a.13.13,0,0,0-.05-.17c-11.63-11.79-28.54.52-40.69,4.76H217c.35-3.74,1.07-5.71-.44-9.34-1.59-3.79-3.89-7-4.6-11.11-.07-.44-2,0-1.93.52Z"/><path class="cls-5" d="M252.59,254.37a17.28,17.28,0,0,0,1.89,7.5c.26.56,2.14-.08,1.93-.52a17.21,17.21,0,0,1-1.89-7.5c0-.44-1.93-.12-1.93.52Z"/><path class="cls-5" d="M217.26,267.9H217a2.27,2.27,0,0,0-1.15.37c-.31.21-.25.45.13.48a10.69,10.69,0,0,1,3.85.67,1.65,1.65,0,0,0,1.25-.08c.07,0,.91-.43.57-.6a12.41,12.41,0,0,0-4.44-.84l-1,.85H216a2.42,2.42,0,0,0,1.36-.36c.3-.21.26-.48-.13-.49Z"/><path class="cls-5" d="M154.27,251.73c-10,21.83-12.15,48.23-10.7,71.92.78,12.67,2.94,25.22,5.29,37.68,1.25,6.68,2.95,13.3,3.87,20a46.54,46.54,0,0,1,.32,8.59c-.16,3.08-1.2,5.92-.94,9,0,.3,2,0,1.93-.52-.43-5.22,1.1-10.47.8-15.81-.38-6.72-2.44-13.44-3.71-20a345,345,0,0,1-5.5-37.69c-1.92-24.11.36-51.38,10.54-73.57.11-.24-1.68-.11-1.9.36Z"/><path class="cls-5" d="M167.2,422.53c5.1,2.39,11.89,1.82,17.17.3,1.14-.33.91-1.19-.23-.86-4.73,1.36-10.83,1.82-15.39-.32-.52-.25-2.3.53-1.55.88Z"/><path class="cls-5" d="M166.83,422.73c-1.12,1.21-.26,3.57.1,4.93a29.17,29.17,0,0,0,2.64,7c1.05,1.85,4.7,1.8,6.59,1.9a9.48,9.48,0,0,0,7.08-2.26c.85-.8-1.05-.9-1.57-.41-2.18,2.05-5.64,1.56-8.32,1-1.75-.37-2-1-2.69-2.53s-3.6-7.74-2.25-9.2c.79-.86-1.09-.95-1.58-.41Z"/><path class="cls-5" d="M182.49,434.45c4.27-1.71,5.28-8.83,5-12.81,0-.48-1.13-.22-1.34-.12l-.71.33c-1.22.58-.1,1.17.75.76l.71-.33-1.34-.12c.2,3-.53,10.2-3.85,11.52-1.26.51-.1,1.11.76.77Z"/><path class="cls-5" d="M178,421c-.88-1.25,0-2.87-.8-4.12a5.9,5.9,0,0,0-3.81-2.48,8.54,8.54,0,0,0-6.56.57l1.48.26c2.59-4.72,6.36-.72,7.35,1.53a9.1,9.1,0,0,1,.48,4.39c-.07.75,1.78.31,1.93-.27.59-2.26,1.12-5.78,3.29-7.13a19.85,19.85,0,0,1,2.38-1.23c1.35,1.05,1.26,1.64-.28,1.74l-1.31.42a7.4,7.4,0,0,0-4.94,5.79c-.11.71,1.83.35,1.92-.26.75-4.86,4.84-4.28,7.94-6.46,1.16-.82,1.61-2.38-.26-2.7-6.18-1.08-9.44,5.41-10.67,10.1l1.93-.27c.33-3.64-.77-7-4.38-8.39a6.38,6.38,0,0,0-7.17,2.74c-.43.79,1.2.41,1.49.26,2.53-1.42,6.89.16,7.54,3,.28,1.22-.1,2.21.65,3.28.35.5,2.22-.13,1.8-.73Z"/><path class="cls-5" d="M167.16,415.4a6.84,6.84,0,0,0-.41,2.54c0,.13.28.17.35.17,3,.16-.07,2.06,1.71,2.91a16.93,16.93,0,0,0,5.92,1.09c.45,0,2.22-.81,1.23-.86a23.46,23.46,0,0,1-3.23-.45c-.59-.11-2.42-.2-2.59-.94s.74-1.39.2-2a1.78,1.78,0,0,0-1.13-.52c-1-.13-.41-1.58-.14-2.24.17-.42-1.69-.22-1.91.31Z"/><path class="cls-5" d="M178.62,419.92c.15,2.75,3.42,2.07,5,1,2.26-1.61,2-4.95,3.67-7,.55-.69-1.4-.55-1.8-.06a12.24,12.24,0,0,0-1.82,4.05,6,6,0,0,1-1.19,2.34c-.94,1-1.83.37-1.89-.8,0-.64-2-.24-1.93.52Z"/><path class="cls-5" d="M185.14,408.14a9.41,9.41,0,0,0,.65,2.82c.22.67,2.14.12,1.93-.52a9.74,9.74,0,0,1-.65-2.81c0-.59-1.93-.23-1.93.51Z"/><path class="cls-5" d="M186.47,411.14c-.08,3.27-.45,6.53-.53,9.79,0,1,1.93.69,1.95-.15.09-3.27.45-6.53.54-9.8,0-1-1.94-.68-2,.16Z"/><path class="cls-5" d="M166.07,417.23c-.11,2.84-1.35,6.93.94,9.22.42.42,2.23-.29,1.8-.72-2.18-2.18-.91-6.3-.81-9,0-.45-1.91-.15-1.93.52Z"/><path class="cls-5" d="M166.67,423.1c-.68,1.5,7.92,2.8,9,2.85.41,0,2.21-.75,1.26-.79s-8.82-1.43-8.38-2.4c.14-.3-1.68-.15-1.9.34Z"/><path class="cls-5" d="M167,424.25c.47,2.37,3.48,3,5.38,3.79.55.23,2.31-.58,1.54-.9-1.72-.71-4.56-1.26-5-3.41-.12-.62-2.06-.14-1.93.52Z"/><path class="cls-5" d="M168,427.17a7.39,7.39,0,0,0,3.24,1.89,1.84,1.84,0,0,0,1.37-.21c.19-.1.64-.54.19-.67a6.59,6.59,0,0,1-3-1.73c-.44-.44-2.26.27-1.81.72Z"/><path class="cls-5" d="M168.63,429.53a4,4,0,0,0,2.47,1.78,1.42,1.42,0,0,0,1.36-.36.47.47,0,0,0-.22-.83,2.89,2.89,0,0,1-1.68-1.1.91.91,0,0,0-1.12-.33c-.26.07-1,.44-.81.84Z"/><path class="cls-5" d="M170.84,433.89,174,434a1.07,1.07,0,0,0,1.05-.8c.06-.52-.5-.67-.9-.68l-3.15-.06a1.08,1.08,0,0,0-1.06.81c-.05.51.51.66.9.67Z"/><path class="cls-5" d="M209.93,421.33c-4.52,1.92-10.58,1.1-15.13-.4-.54-.18-2.29.64-1.55.88,5.33,1.76,12.12,2.46,17.42.22,1.25-.53.09-1-.74-.7Z"/><path class="cls-5" d="M209.73,422.94c1.39,1.65-1.71,7.49-2.39,9-.79,1.75-1,2.1-2.94,2.43-2.73.47-6.07.45-8.14-1.65-.52-.54-2.36.2-1.78.79,1.91,1.94,4.55,2.31,7.17,2.28,1.57,0,5.26,0,6.3-1.51a26.92,26.92,0,0,0,2.92-6.52c.47-1.35,1.76-4.28.65-5.6-.48-.58-2.33.14-1.79.79Z"/><path class="cls-5" d="M196.49,432.65c-3.54-1.58-4.12-8.69-3.77-12l-1.73.59.69.36c.54.29,2.32-.51,1.54-.92l-.69-.36c-.4-.21-1.68,0-1.74.58-.38,3.69.22,10.91,4.16,12.67.56.24,2.33-.57,1.54-.92Z"/><path class="cls-5" d="M202.11,420.61a2.92,2.92,0,0,0,.65-1.9c.35-3.51,4.65-5.21,7.59-3.41.33.2,2-.15,1.74-.71-1.33-2.66-4.93-3.6-7.6-2.33-3.27,1.57-4.42,4.74-4.24,8.26l1.94-.52c-.78-3.51-1.46-6.6-4.69-8.53-1.74-1.05-3.88-2.05-5.9-1.22-1.44.59-1.31,2-.06,2.72,3.3,1.86,7.14,2.17,7.68,6.83.06.59,2,.17,1.93-.52-.46-4-3.53-5.25-6.81-6.57-.52-.21-2.7-2.13-.57-1.42a14.82,14.82,0,0,1,2.8,1.44c2.61,1.57,3.08,5.06,3.68,7.79.15.64,2,.14,1.94-.52a11.26,11.26,0,0,1,.34-3.48c.81-3.37,5.89-4.89,7.63-1.41l1.74-.71c-2.08-1.27-5.06-1.08-7.29-.24a6.09,6.09,0,0,0-2.8,1.57c-1.05,1.49-.4,3.57-1.49,4.88-.52.63,1.41.46,1.79,0Z"/><path class="cls-5" d="M209.46,415.09a6.61,6.61,0,0,1,.3,2.46l1.37-.69a4.22,4.22,0,0,0-2.89.79c-.51.54-.26,1.12-.08,1.76.11.4,0,.53.14.5a15.11,15.11,0,0,1-1.76.32,21.3,21.3,0,0,1-3.18.33c-.57,0-2.1.87-.81.87a24.46,24.46,0,0,0,6.13-.88c.56-.15,1.29-.42,1.45-1s-.87-1.77.19-1.79c.35,0,1.37-.2,1.37-.69a6.36,6.36,0,0,0-.3-2.45c-.19-.52-2.1.07-1.93.51Z"/><path class="cls-5" d="M197.83,418.93c-.12,1.25-.8.89-1.58.28A4.62,4.62,0,0,1,195,417c-.53-1.6-.8-3.23-1.82-4.62-.4-.55-2.27.11-1.79.76,1.58,2.15,1.16,5.54,3.49,7.16,1.69,1.18,4.68.86,4.9-1.58.08-.81-1.87-.44-1.93.23Z"/><path class="cls-5" d="M191.76,406.92a9.32,9.32,0,0,1-.75,2.78c-.15.42.62.43.83.41.39-.05.95-.24,1.1-.65a9.38,9.38,0,0,0,.75-2.79c0-.79-1.9-.38-1.93.25Z"/><path class="cls-5" d="M190.29,410c0,3.27.2,6.53.16,9.8,0,1,1.94.69,2-.16,0-3.27-.2-6.53-.16-9.8,0-1-1.94-.68-2,.16Z"/><path class="cls-5" d="M210.48,416.87c0,2.53,1.1,6.76-1,8.71-.79.73,1.13.56,1.52.2,2.51-2.31,1.42-6.42,1.43-9.43,0-.47-1.93-.15-1.93.52Z"/><path class="cls-5" d="M209.66,422.8c.29.7-6.37,1.63-7.2,1.63-.4,0-2.2.79-1.26.78,1.17,0,11.12-1.16,10.39-2.93-.19-.46-2.07.17-1.93.52Z"/><path class="cls-5" d="M209.29,423.72c-.46,1.94-3.12,2.31-4.72,2.9-.21.07-.83.43-.53.73s.94.12,1.27,0c2.07-.76,5.31-1.38,5.91-3.89.16-.68-1.78-.37-1.93.26Z"/><path class="cls-5" d="M208.39,426.25a5.62,5.62,0,0,1-2.53,1.38c-.24.06-1,.31-.85.68s.84.22,1.07.17a8.6,8.6,0,0,0,3.84-2c.27-.26.25-.54-.16-.6a1.85,1.85,0,0,0-1.37.37Z"/><path class="cls-5" d="M207.49,428.73a2.17,2.17,0,0,1-1.37.84c-.33.11-.93.39-.8.85s.79.43,1.12.33a4.68,4.68,0,0,0,2.88-1.88c.23-.41-.2-.68-.56-.71a1.39,1.39,0,0,0-1.27.57Z"/><path class="cls-5" d="M207,431.88l-3.15-.06a1.08,1.08,0,0,0-1.06.81c-.05.51.51.66.91.67l3.15.06a1.07,1.07,0,0,0,1-.8c.06-.52-.5-.67-.9-.68Z"/><path class="cls-5" d="M164.08,249.89c.4,33.88,1.61,68.72,7.84,102.08,1.44,7.67,3.16,15.29,5.08,22.86,1.69,6.66,3.45,13.11,7.15,19,3.17,5,8,8.38,13.21,11.12,5.41,2.88,12.22,3.15,16.88,7.43.59.55,2.42-.22,1.77-.82-3.5-3.22-8.24-4.42-12.65-5.9a35.18,35.18,0,0,1-15.91-10.54c-4.53-5.43-6.3-12.38-8.07-19.06-2-7.54-3.68-15.17-5.19-22.82-3.15-16-4.5-32.18-5.72-48.44q-2.07-27.48-2.44-55.06c0-1-2-.62-1.95.18Z"/><path class="cls-5" d="M230,277.17a228.4,228.4,0,0,1,2.5,31c.25,10.55.75,21.07,1,31.61.11,5.3.35,10.59.29,15.89-.06,5-1.56,10.17-1.1,15.16.9,10,1.61,19.27,5.84,28.52.36.8,2.27.22,1.93-.51-4-8.79-4.55-17.41-5.69-26.85-.72-5.93.91-12.11,1-18.09.07-5.74-.28-11.48-.36-17.21-.13-10-.72-20-1-30a222.09,222.09,0,0,0-2.49-30c-.13-.82-2.07-.34-1.93.52Z"/><path class="cls-5" d="M169.9,250c-.57,32.63,1.72,65.08,5.54,97.47,1.43,12.08,1.74,24.53,6.33,36s14,14.51,24.69,18.21c.8.28,2.28-.87,1.13-1.27-5.68-2-11.48-3.56-16.43-7.09s-7.53-9.83-9.25-15.46c-3.29-10.77-3.44-22.31-4.85-33.4a662.93,662.93,0,0,1-5.21-94.57c0-1-1.94-.68-1.95.16Z"/><path class="cls-5" d="M196.83,318.67c-2.82.35-8.1-5.33-9.91-7.09-5-4.87-4.24-10.65-4-17.05l-1.87.59c5.33,5.44,5.3,14.07,12,18.39a1.81,1.81,0,0,0,1.86-.49c2.87-6.16,3.85-10.9,2.3-17.57l-1.88.59c4.44,3.92,3.73,10.22,4.19,15.58,0,.41,1.37,0,1.52-.12,6.72-3.54,11.55-1,15.87,3.58,2.66,2.8.4,3.84-2.54,4-3.17.17-6.48,0-9.43,1.33-.1.05-.47.22-.41.4,1.88,5.34-.09,9-2.84,13.48l1.86-.5c-3.06-2.44-3.09-6.16-3.65-9.73-.07-.47-1.52.11-1.7.22a9.69,9.69,0,0,0-2.11,1.51c-2.65,2.28-3.24,2.06-6.8,1.19-1.37-.33-2.85-.32-4.24-.64-5.18-1.21,2.94-5.43,4.32-5.79,1.13-.3,1-.91-.17-.62a14,14,0,0,0-8.76,6.17c-.08.12.08.19.16.21,3.13.87,7.63,2.68,10.93,2.43,3.73-.29,5.16-2.59,8.15-4.39l-1.71.23c.58,3.68.65,7.4,3.76,9.87.41.32,1.63-.1,1.87-.5,1.39-2.28,3.41-4.88,3.7-7.63.14-1.3-1-5.94,1.13-6.19,1.13-.13,2.27-.15,3.4-.19,2-.07,6.54.29,8-1.6,2.17-2.8-4.44-7.11-6.2-8.07-4.27-2.34-9.65-1.17-13.7,1l1.52-.12c-.47-5.47.2-11.75-4.3-15.72-.29-.26-2,.12-1.87.59,1.51,6.48.51,11.41-2.27,17.38l1.86-.5c-6.63-4.3-6.67-13-12-18.4-.32-.32-1.86.12-1.88.59-.27,7.18-.66,12.59,4.78,17.86,2.13,2.06,6.88,7,10.23,6.57.5-.07,2.09-1,.83-.8Z"/><path class="cls-5" d="M225.64,290c-2.14-1.36-13.21-4.59-12.16.95.74,4,6.75,3,9.41,4.76,1.29.85-2.84,3.07-3.67,3.83a6.29,6.29,0,0,0-2.08,5.31c0,.39.9.23,1.08.19,1.32-.34,2.62-.75,3.92-1.15,1.7-.51,3-.74,3.43,1.12.11.46,1.08.23,1.34.1a8.81,8.81,0,0,0,3.81-2.89c.48-.7-1.45-.48-1.79,0a5,5,0,0,1-2.77,2.18l1.34.1c-.16-.69-.45-1.28-.61-2,0-.22-.41-.26-.58-.26-2.9.12-5.53,1.15-8.32,1.87l1.08.18c-.26-4.19,3.48-5.86,6.45-7.92.16-.11.28-.33.13-.49a8.68,8.68,0,0,0-5-2.54c-2.3-.52-4.46-.35-5.29-2.94-1-3.18,7.35-.39,8.68.45.49.32,2.29-.42,1.55-.89Z"/><path class="cls-5" d="M225.87,288.21a27.66,27.66,0,0,1,2.12-9.57l-1.74.56c2,.89,3,3.13,3.61,5.1.19.58,2.11,0,1.93-.52-.72-2.17-1.78-4.45-4-5.43a1.64,1.64,0,0,0-1.74.57,28.08,28.08,0,0,0-2.13,9.81c0,.46,1.9.15,1.93-.52Z"/><path class="cls-5" d="M195.71,258.72c-5.7.33-9.47,4.16-13.37,7.95-.56.55.22.89.7.88,4.14-.08,8.19-1,12.34-1.06.57,0,1.7-1,.68-1.24h0c-.47-.1-1.27,0-1.49.53-1.28,3.1-4.68,13.52-1.69,16.15,1.64,1.44,4.08-1,5.09-2.07,1.5-1.53,1.61-3.15,1.51-5.21s-.21-7.25,3.91-4.85a18.4,18.4,0,0,0,4.41,2.1c.47.13,1.49-.07,1.54-.7a7.42,7.42,0,0,0-2.36-6.36c-1.25-1.3-2.39-1-3.73-2.7-.91-1.15,5.25-3.7,5.79-4,.35-.17.88-.72.34-1-5.2-3-9.24.13-14.18,2.37l1.38.24a5.72,5.72,0,0,0-2.46-2.83c-.76-.48-2-.21-2-.33l-1.72.61a3.64,3.64,0,0,0,2.33.81c.87.09,2-1.15.71-1.29l-1.54-.56c-.44-.27-1.71-.07-1.72.61,0,.22,0,.43,0,.65,0,.46.48.6.87.55l3.62,2.3c.24.51.94.44,1.38.24,3.65-1.64,7.51-4.85,11.86-2.32.11-.35.23-.69.34-1-2.53,1.21-5,2.43-7.42,3.88-.25.15-.49.52-.27.79,2.69,3.2,7.27,4.71,6.87,9.55l1.54-.7c-2.29-.65-6.11-4.41-8.73-2.51-4.56,3.31-.79,8.1-4.44,11.83-2.86,2.93-1.39-5.47-1.14-6.82a36.3,36.3,0,0,1,1.77-7.26l-1.48.53h0l.67-1.24c-4.15.05-8.2,1-12.35,1.06l.7.87c3.33-3.25,6.6-6.84,11.57-7.14,1-.06,1.53-1.36.2-1.28Z"/><path class="cls-5" d="M172.73,281c1.3-1.63,3.23-2.11,5.13-2.69l-1-.45c-2.89,3-3.07,7.46-4.83,11.07-.25.53,1.64.33,1.93-.26,1.72-3.52,1.87-7.85,4.68-10.8.51-.53-.81-.51-1-.45-2.48.76-5,1.46-6.67,3.57-.52.65,1.42.47,1.78,0Z"/><path class="cls-5" d="M244.11,218.81c-5.05-.09-10.93-.35-15.3,2.58-.29.2-.54.59-.15.83,2,1.2,11.43,2,9.35,5-1.53,2.2-3.49,4.67-4.23,7.27-.42,1.48.92,4.08,2.72,3.75,2.37-.43,3.8-2.11,5.27-3.92l-1.88.06c-.37,1.08-.33,2.15-.71,3.23-.29.84,1.61.31,1.88-.06,1.87-2.51,3.67-6.77,6.78-7.89,1.27-.45.12-1.23-.79-.9-3.69,1.32-5.61,5.76-7.81,8.7l1.88-.06c.38-1.09.34-2.15.71-3.23.3-.86-1.61-.27-1.87.06-1.17,1.43-4.32,3.47-4.24,0,0-1.3,1.42-2.81,2.14-3.83.59-.83,2.45-3.06,2.5-4.09.22-4.18-8.08-3.83-10.17-5.12l-.15.83c3.74-2.51,9-2.14,13.34-2.06.79,0,2-1.17.73-1.19Z"/><path class="cls-5" d="M242.78,218.46a6.51,6.51,0,0,1,.36-3.19c.17-.34,0-.2.25-.14a3.51,3.51,0,0,1,1,.48,14.88,14.88,0,0,1,3.69,3.65c.49.62,2.34-.09,1.78-.81-1.37-1.76-3.34-4.21-5.69-4.59-3.12-.51-3.41,2.89-3.3,5.12,0,.77,2,.33,1.94-.52Z"/><path class="cls-5" d="M245.82,230.11a4.17,4.17,0,0,0,2.58,4,1.9,1.9,0,0,0,1.24-.12s.89-.4.58-.52a4,4,0,0,1-2.47-3.88c0-.28-1.93,0-1.93.52Z"/><path class="cls-5" d="M219.57,258.06c9-5.38,20.69-5.75,30.94-5.61.61,0,2.09-.91.79-.93-10.89-.14-23.27.41-32.88,6.14-1.11.67.63.72,1.15.4Z"/><path class="cls-5" d="M234.7,188.18c-3.08-1.63-5.9.22-7.56,2.93-.19.32.07.62.36.73l4.64,1.64c.9.32-1.82,2.94-2,3.24a4.9,4.9,0,0,0-.33,4.88c1.5,3.32,5,1.05,6.17-1.08l-1.89,0a13.26,13.26,0,0,0,.57,4.73c.3.86,1.75.35,1.94-.34.8-2.75,2-5.16,4.77-6.41,1.21-.55.13-1.52-.84-1.08-3.31,1.5-4.9,4.26-5.88,7.66l1.94-.34a12.22,12.22,0,0,1-.55-4.38c0-1-1.58-.6-1.9,0-1.34,1.58-2.23,1.64-2.67.16a4.08,4.08,0,0,1,.75-3.88c.86-1.17,1.95-1.91,2.6-3.25a.52.52,0,0,0-.35-.73L231,191.4c-2.93-1,.56-3,2.25-2.13.71.37,2.43-.6,1.5-1.09Z"/><path class="cls-5" d="M193.62,181.51c-3.07,3-7,7.1-6.14,11.79.09.43,1.11.12,1.33,0,4.47-1.6,6-6.3,10.11-8.35l-1.54-.06c-.29,2.68.74,9.42,4.28,9.48.37,0,1.22-.18,1.36-.61.72-2.34.58-4.49.9-6.9a9.19,9.19,0,0,0,0-1.39c0-1-2.18.17-1.15.25.83.06,1.71-.42,2.49-.33a33,33,0,0,0,3.43.5c1.2,0,3-.74,3-2.19-.13-3.29-3.22-3-5.62-2.44l1.07.13c0-.88,3.19-1.6,4-1.94.25-.1.61-.25.61-.56v-.65c0-.21-.46-.21-.57-.21L204.7,178c-3.54-.06-1.45-2.61-.64-4.89a.22.22,0,0,0-.18-.27l-.47-.13a1.76,1.76,0,0,0-1.67.45l-.53.52c-1.1.68.63.74,1.16.41a3.3,3.3,0,0,0,1.14-1l-1.67.45c.45.12-1.54,4.58-1.74,5s.43.32.56.32l8.11.15c2.62.05-2.2,1.45-2.93,1.77-.25.1-.6.25-.61.56s0,.43,0,.65.93.17,1.07.13c5.08-1.21,3.73,3.21.94,2.59a5.21,5.21,0,0,0-1.36-.21,10.68,10.68,0,0,0-3.24.5c-.38.15-.68.34-.64.76a23.82,23.82,0,0,1-.89,8.37l1.35-.62c-.6,0-1.5-2-1.87-2.62a8.64,8.64,0,0,1-1.28-6.21c.07-.64-1.29-.18-1.54-.06-3.91,1.94-5.55,6.67-9.67,8.14l1.32.05c-.85-4.52,3-8.41,6-11.33.5-.49-1.4-.32-1.78.06Z"/><path class="cls-5" d="M162.7,168.69a17.1,17.1,0,0,0-9.46,2.7c-.49.32-.46.72.19.71,1.4,0,9.2-.93,8.54,1.67-.14.52-.72,1.1-.92,1.64-.34.9.19,2,.46,2.82,1.27,3.81,3.85,2.52,4.84-.69l-1.93.39c.19,1.12.91,1.6,1.25,2.62.18.57,1.45.08,1.72-.15,2-1.57,2.2-3.74,2.91-6,.18-.58-1.74-.31-1.92.28-.62,2-.76,4.11-2.51,5.53l1.73-.14c-.31-1-1.07-1.58-1.25-2.62-.1-.61-1.79,0-1.93.4-.44,1.44-.07,2.16-.78.42a18.44,18.44,0,0,1-.7-2.18c-.38-1.34,1.19-2,1-3.22-.16-.9-2.35-1.65-3-1.75a43.57,43.57,0,0,0-6.66,0c.07.23.13.47.2.71a13.27,13.27,0,0,1,7.5-2.17c.64,0,2.08-1,.79-1Z"/><path class="cls-5" d="M128.4,195.13l-5.83-.11c-.42,0-1.52.25-1.32.9.74,2.36,3.22,3.45,3.73,5.91.09.41-2.2,2.07-2.54,2.42a7.83,7.83,0,0,0-1.6,2.43c-2,4.83,5.69,3.34,7.78,2.68,1.15-.36.85-1.57-.33-1.2-1.34.43-5.25,1.9-5.75-.36-.38-1.68,1.92-3.59,3-4.46,1.31-1,1.93-1.49,1-3.3s-2.74-2.74-3.34-4.63l-1.31.9,5.84.12c.86,0,2-1.28.69-1.3Z"/><path class="cls-5" d="M222.35,168.39c-3,0-4.46,1-5.28,3.9-.1.37.37.51.63.55,2.94.45,6.14.15,8.64,2,.61.46,2.35-.42,1.5-1-2.75-2-6.21-1.75-9.44-2.24l.62.55c.46-1.62.84-2.44,2.63-2.44.84,0,2-1.28.7-1.28Z"/><path class="cls-5" d="M220.27,254.07c5.77-2.66,4-10.14,3.3-15.22l-1.16.57c4.22-.88.36,8.94,4.41,8.91,2.67,0,5.26-1.06,8-1.11-.87,0,6.15.29,6,.65-.28,1-1,1.88-1.38,2.86-.15.4,1.36,0,1.49-.1l.14,0c1.17-.49-.68-.35-1.09-.18l-.14.06,1.5-.1c.41-1.13,1.17-2.1,1.49-3.27,0-.19-.19-.17-.31-.18-3.82-.18-7.33-.53-11.14,0-2.7.37-3.87.86-4.71-2.14s.64-6.91-3.91-6c-.19,0-1.2.24-1.15.57.55,4.24,2.56,12.21-2.46,14.53-1.16.53.67.36,1.09.17Z"/><path class="cls-5" d="M221.39,339.47c.94-.48.84.06.58-.65a5.13,5.13,0,0,1-.2-1.16,19.48,19.48,0,0,1,0-3.5,29.34,29.34,0,0,1,.38-3.11,9.91,9.91,0,0,1,.24-1.08c.08-.29,2.27-.15,2.6-.15l-.56-.2c.62,2.95.26,8.24,3.9,9.31.51.15,2.24-.63,1.56-.84-3.3-1-3-6.3-3.53-9,0-.22-.42-.2-.57-.21-1.48,0-4.08-.22-5.19,1.07-.84,1-.7,3.71-.78,4.92-.14,1.95-.58,6.67,2.71,5,1.15-.59-.62-.68-1.16-.41Z"/><path class="cls-5" d="M221.93,340.57c-3.75-.18-7.73-1.18-11.44-.19-1.25.34-4.84,1.88-4.52,3.63.56,3.11,10.77,1.43,12.86,1.28s-.24,3-.93,3.6c-1.32,1.23-2.91,2-4.1,3.35s-1.66,6.16.51,6.75c4.76,1.29,7.73-6.4,11.25-8.11l-1.51.05c-.54,1.31-.18,2.6-.09,4,0,.12.28.13.34.13a14.3,14.3,0,0,0,4.87-.75l-1.3,0c0,.21,0,.43,0,.65,0,.41,1.55-.15,1.7-.24a2.88,2.88,0,0,0,1.57-2.85c0-.28-1.91,0-1.93.52a1.91,1.91,0,0,1-1.12,2.28l1.71-.23c0-.22,0-.43,0-.65s-1.19,0-1.3.05c-3,1-3.26-1.54-2.54-3.28.18-.45-1.38,0-1.51.05a12.5,12.5,0,0,0-3.5,2.9c-.82.86-4.69,5.93-5.7,3.75-3-6.39,6.38-7.13,6.29-12.71,0-.12-.28-.13-.34-.13-3.28,0-6.53.51-9.82.37-1.67-.07-4.68-.48-2.71-2.58,2.6-2.75,8.64-1.05,12-.89.4,0,2.21-.74,1.26-.78Z"/><path class="cls-5" d="M228.54,337.64a5.94,5.94,0,0,0,4.1-1.08c.35-.3-.3-.37-.47-.36a2.24,2.24,0,0,0-1.29.47c0,.05-.22.11,0,.05a1.28,1.28,0,0,1-.33.06c-.25,0-.5,0-.74,0a2.43,2.43,0,0,0-1.37.36c-.29.2-.26.47.13.48Z"/><path class="cls-5" d="M182.94,357.73c2.43-2.62,4-6,7-8h-1.56c0,2.73-.88,12.75,4.61,10.53a11.5,11.5,0,0,1,4.4-1.05c1.6,0,9.62.83,2.92,3.78-2.57,1.13-5.46,1.23-8,2.51-.31.16-.54.49-.18.71,3.23,2,4.93,5.64,1.79,8.35-1.41,1.22-1,4.14-1,5.75l1.74-.71c-3.38-1.47-5.81-6.59-5.45-10.17l-1.93.39c1,4.92-1.53,2.47-4,.56-.52-.41-2.3.35-1.8.74,3.54,2.75,9.2,5.27,7.72-1.82-.12-.61-1.87-.15-1.93.39-.38,3.84,2.17,9.21,5.83,10.82.49.21,1.75-.05,1.74-.71,0-2-.55-4.89,2.13-5.81.18-.07.57-.27.59-.5.19-1.93.29-4-1-5.66a7.47,7.47,0,0,0-1.85-1.87c-.26-.16,3.72-1.43,4-1.5,2.24-.58,5.94-1.75,5.76-4.68-.12-2.06-6.07-1.62-7.14-1.61a11.45,11.45,0,0,0-4.43,1.08c-3.2,1.33-2.64-9-2.62-10,0-.54-1.37-.13-1.56,0-3.26,2.26-4.94,5.69-7.6,8.55-.54.58,1.39.44,1.79,0Z"/><path class="cls-5" d="M222.84,375c-3-3.1-12.31-12.57-17.07-6.61-3.33,4.19,10.69,7.62,10.56,12.32l.87-.62c-6.91,1.81-9.25,4.14-8.86,11.5,0,.13.27.17.35.18,5.79.3,10-3.59,14-7.38l-1.84.19c-.32,2.5-1.72,4.76-.8,7.23.05.14.23.16.35.18,1.92.25,5.17,1.46,7,.5a5.7,5.7,0,0,0,3-4.47c.45-2.31-1.58-5.5-.91-7.46l-1.74.56a3.31,3.31,0,0,0,2-.07c1.14-.29.94-1-.2-.72l-.22,0c-.44-.12-1.56,0-1.74.56-.44,1.28.57,3,.82,4.3s.19,6.86-1.57,6.63l-4.61-.61c-1.68-.22.36-5.63.52-6.91.09-.69-1.61,0-1.84.19-2,2-10.83,9.91-10.68,3,.09-4.47,3.31-5.68,7.19-6.7.29-.07.86-.25.87-.62.11-3.92-5.85-6.2-8.56-8a11.71,11.71,0,0,1-2.08-1.7,1.75,1.75,0,0,1-.52-1.49c.32-3.31,5.86-.12,6.81.45A37,37,0,0,1,221,375.7c.39.4,2.19-.3,1.81-.69Z"/><path class="cls-5" d="M223.57,373.92c1-3.28,3-7.16,6.27-8.62l-1.54.08c-.11,3-.7,6-.82,9.07,0,.19.47.19.56.18,3.35-.3,4.15,1.88,2,4.19-.47.5,1.42.29,1.77-.08,1.55-1.69,2.24-3.9-.34-4.89a5.32,5.32,0,0,0-1.59-.18c-1,0-.29-2.6-.21-3.29.22-1.85.46-3.66.54-5.52,0-.47-1.4,0-1.54.07-3.6,1.62-6,5.65-7,9.3-.15.5,1.76.24,1.92-.31Z"/><path class="cls-5" d="M168.4,397.13c-2.51-2-3.44-7-3.46-10l-1.86.49c1.48,1.58,2.85,3.76,4.95,4.57s4.7-1.15,6.26-2.43h-1.52c1.07,1.69,2.23,3.36,1.15,5.34-.52.94,1.44.92,1.84.2,1.28-2.34.08-4.34-1.22-6.38-.29-.46-1.18-.28-1.52,0-1.3,1.05-3,2.71-4.64,1.58-1.37-.92-2.41-2.53-3.53-3.72-.43-.45-1.87-.29-1.86.5,0,3.49,1,8.61,3.92,10.92.64.52,2.35-.4,1.49-1.09Z"/><path class="cls-5" d="M166.63,400.2c-4.34-.08-8.45.08-12.47,1.85-.63.28-.78,1.24.09,1.26l6.48.13c-.15-.33-.31-.65-.47-1-.59.8-.76,1.78-1.34,2.57-.19.26-.28.64.06.84,2.8,1.62,6.18.75,8.54-1.29,1-.85-.55-1.49-1.28-.86-1.61,1.39-3.77,2.2-5.77,1l.06.83c.59-.8.76-1.77,1.35-2.57a.58.58,0,0,0-.47-1l-6.49-.13.09,1.26c3.53-1.56,7.16-1.66,11-1.59.92,0,2-1.37.67-1.39Z"/><path class="cls-5" d="M151.17,360.23c.62-2.63,3.47-4.56,5.59-6l-1.56-.13c-.4,3-6.13,10.6-.64,11.62,1.87.35,1.33-.08,1.14,2.2-.17,2.05,1.35,4.23,2.2,6a13.49,13.49,0,0,1,1,6.5,15.31,15.31,0,0,1-.48,2.93c-.56,2.32-3.81.89-3.11-1.63.18-.65-1.76-.36-1.93.26-1.29,4.63,3.63,6.43,6.2,2.89,4.82-6.61-3.45-13.6-1.36-20,.14-.41-.62-.41-.82-.38-6.66,1-.61-8.1-.26-10.68.09-.68-1.29-.3-1.56-.12-2.42,1.64-5.61,3.74-6.33,6.76-.16.67,1.78.36,1.93-.26Z"/><path class="cls-5" d="M170.36,344c-3-.15-5.76-.57-8.55.66-.12.05-.9.46-.53.7,2.14,1.38,7.55,3.27,5.76,6.58-1.1,2,1.09,3-.25,4.55-4.13,4.69-3.07,8.08,1.83,11.72a1.58,1.58,0,0,0,1.79-.37c1.9-2.89,2.42-6.35,4.72-9,.51-.58-1.41-.4-1.78,0-2.32,2.67-2.81,6.09-4.72,9l1.79-.37c-2.2-1.64-4.77-3.53-4.51-6.6.2-2.27,2.69-4.45,4.1-6,.16-.17.07-.34-.11-.42-2.7-1.31.53-3.95-1.07-5.94a10.81,10.81,0,0,0-3-2.15c-3.16-1.86,2.32-1.42,3.7-1.35.66,0,2.08-.92.78-1Z"/><path class="cls-5" d="M158.93,323.11c-2.27-2-5.05-2.45-8-2.25-1.56.1-4.06,1.51-3.62,3.44.55,2.39,3.81,1.68,5.53,2.5,3.4,1.62-1.7,6.07-2.81,7.38-1.29,1.52-2.06,3.26-1.23,5.18.59,1.39,2.08,2.7,3.67,2.34,4.25-1,6.65-7.43,7.74-11.1l-2,.17c0,3,.43,7.06,4,7.78,3.13.64,5-3.5,4.42-6.05-.19-.83-2.12-.33-1.93.51a4,4,0,0,1-.44,2.94c-1.32,3.23-3.14-.2-3.49-1.09a11.63,11.63,0,0,1-.58-4.26c0-1-1.74-.54-2,.17a24.28,24.28,0,0,1-4.51,8.63c-2.11,2.51-3.84-1.52-3-3.4a15.69,15.69,0,0,1,3-3.72c1.25-1.38,2.91-3.61,1.59-5.49a4,4,0,0,0-2.71-1.66c-.68-.12-1.37-.21-2.06-.3.07-2.24.92-3.12,2.57-2.63a6.56,6.56,0,0,1,4,1.74c.61.53,2.42-.25,1.77-.83Z"/><path class="cls-5" d="M159,321.62c2.17-4.7,4.62-9.18,5.52-14.32l-1.93.37c1,4.64.4,9-.91,13.46-.13.45.6.47.84.45,4.25-.26,3,2.83,1.72,4.64-.53.75,1.43.61,1.8.07,2.54-3.61.95-6.09-3.27-5.84l.84.45c1.35-4.6,2-9,.91-13.75-.16-.71-1.83-.21-1.93.37-.89,5-3.28,9.44-5.4,14-.41.88,1.53.67,1.81.07Z"/><path class="cls-5" d="M145.93,299.67c2.24,3,1.84,6,1.7,9.53,0,.42.52.41.82.38,6.2-.7,4.6-10,4.61-14.33l-1.74.72c2.92,1.37,5.37.65,7.53-1.64.17-.17.05-.36-.12-.46-1.14-.64-2.25-1.26-3.43-1.8-1.56-.71.59-1.44,1.82-1.94.58-.23.87-.9,0-.9-4.52,0-.4-5.52.39-7.54a7.76,7.76,0,0,0-1-7.16c-2.53-3.13-5.45,3.66-5.78,4.88l1.87-.5-1.27.25c.67,0,2.06-1.13.76-1.05a3.35,3.35,0,0,0-1.55.44c-.17.09-.57.42-.31.64l.57.46c.44.37,1.7.1,1.86-.5.48-1.78,2.08-5.33,3.05-1.65a8.6,8.6,0,0,1-.55,5.41c-.8,2-2.34,3.85-2.26,6.09.06,1.64,2.11.91,2.56.73-1.2.49-3,1.26-3,2.69,0,.24.14.33.37.38l2.08.72q3.3,1.31-2.07,1.54c-.49-.23-1.74.05-1.74.71,0,3.29.23,6.55-.36,9.81-.31,1.67-1.11,3.45-1.09.34,0-2.74-.31-4.8-2-7-.38-.5-2.24.15-1.8.74Z"/><path class="cls-5" d="M163.75,249.87c-.89,0-3.88.63-2.63,2,.35.4,2.17-.27,1.81-.68a.5.5,0,0,1-.16-.5c0-.07.15-.13,0-.05-.29.15-.06.05.16.05a1.93,1.93,0,0,0,1.29-.48c.31-.33-.28-.39-.48-.39Z"/><path class="cls-5" d="M147.08,100.23c-5.43-3.43-13.7-3.46-16.86,2.83-2.46,4.9-.18,10.54,5.78,9.67,1-.14,1.58-1.34.25-1.14-4.83.7-5.73-4.06-4.52-7.71,2-6,9.25-5.56,13.82-2.67.57.36,2.35-.46,1.53-1Z"/><path class="cls-5" d="M133.42,100.35c-4.46.33-9.5-1.24-13.82-2.1-8.3-1.67-16.54-3.61-24.76-5.63-16.2-4-32.66-8-48.27-13.94-.52-.2-1.93.59-1.83.63,16.07,6.12,33,10.22,49.69,14.31,8.4,2.06,16.84,4,25.33,5.68,4.08.81,8.61,2.06,12.81,1.75.46,0,2.12-.8.85-.7Z"/><path class="cls-5" d="M128.31,104.75c-12.69-.16-25.51,1.6-38.09,3-15.07,1.69-30.13,3.61-45.13,5.91-1,.15-1.56,1.39-.23,1.19,14.54-2.23,29.14-4.08,43.76-5.76,12.86-1.47,26-3.32,39-3.15.79,0,2-1.19.72-1.21Z"/><path class="cls-5" d="M128.67,113.5c-18.56,21.35-34.33,45-53.3,66-.78.87,1.1.91,1.57.39,19-21,34.74-44.69,53.29-66.05.77-.88-1.1-.91-1.56-.38Z"/><path class="cls-5" d="M133.42,116.41c-5.85,12.21-10.4,25.15-15.18,37.8-4.89,12.94-10.49,26.09-13.75,39.57-.15.66,1.78.35,1.93-.26,3.17-13.1,8.59-25.88,13.32-38.46,4.9-13,9.59-26.35,15.61-38.92.25-.51-1.65-.32-1.93.27Z"/><path class="cls-5" d="M137.57,116.62c-1.7,18.3-4.55,36.53-5,54.93,0,.35,1.92.08,1.93-.51.44-18.4,3.29-36.64,5-54.94,0-.31-1.87-.09-1.93.52Z"/><path class="cls-5" d="M146.88,111.94c6.65,8.6,13.68,16.89,19.44,26.13.38.61,2.25,0,1.78-.79-5.75-9.24-12.79-17.53-19.44-26.13-.45-.58-2.3.12-1.78.79Z"/><path class="cls-5" d="M176.61,213.93a4.37,4.37,0,0,0-2.77-1c-.35,0-1.66.13-1.57.72,1,6.12,4.47,11.29,7.15,16.75.11.21.37.21.57.21h.83c.39,0,1.35-.2,1.37-.72,0-.83,0-1.66.05-2.49,0-.45-1.92-.14-1.94.52,0,.83,0,1.66-.05,2.49l1.37-.73c-1.09,0-3.35-5.69-3.94-6.83a31.92,31.92,0,0,1-3.48-9.73l-1.58.72,2.19.77c.48.36,2.21-.4,1.8-.7Z"/><path class="cls-5" d="M177.24,214.58A190.34,190.34,0,0,1,186,232.2c.2.5,1.94,0,1.93-.52a24.09,24.09,0,0,0-6.42-15.16c-.31-.35-2.08.27-1.87.6,3.11,4.95,5.74,10.18,8.85,15.13.32.52,2.13-.21,1.93-.52-3.11-4.95-5.74-10.17-8.85-15.12l-1.87.6a23.86,23.86,0,0,1,6.3,15l1.93-.52a184.12,184.12,0,0,0-8.8-17.61c-.29-.53-2.13.16-1.93.51Z"/><path class="cls-5" d="M165.31,230.14c1.89,4,3.87,8.22,7.34,11.08.57.48,2.38-.3,1.78-.79-3.39-2.8-5.34-6.92-7.19-10.81-.35-.73-2.25-.14-1.93.52Z"/><path class="cls-5" d="M169.47,229.39a17.38,17.38,0,0,0,2.5,4.37c.59.64,2.42-.14,1.77-.85a15.63,15.63,0,0,1-2.33-4c-.4-.84-2.31-.27-1.94.52Z"/><path class="cls-5" d="M153.26,86.49c-1.52,1.81-.62,4.42.05,6.4,1,3.11,2.81,6,3.65,9.14.23.86,2.16.34,1.93-.51A50.08,50.08,0,0,0,156.25,95c-.79-1.86-3-6.08-1.39-8,.78-.93-1.07-1.16-1.6-.52Z"/><path class="cls-5" d="M154.82,83.71c0,4.91.57,10.46,3.94,14.27.32.37,2.12-.31,1.82-.66-3.31-3.74-3.87-9.32-3.83-14.12,0-.32-1.93,0-1.93.51Z"/><path class="cls-5" d="M157.35,81.1c0,2-.31,11.71,3.44,10.53,1.16-.36.85-1.58-.33-1.21.43-.14-.11-.82-.26-1.27a16.82,16.82,0,0,1-.52-2.54,35,35,0,0,1-.38-5.69c0-1-1.94-.62-2,.18Z"/><path class="cls-5" d="M160.65,82c0,2.3,0,4.41,1.65,6.19.44.49,1.84.31,1.86-.49,0-1.39.05-2.77.08-4.16,0-1-1.94-.72-2,.15,0,1.39-.05,2.77-.08,4.15l1.87-.49c-1.47-1.61-1.5-3.43-1.46-5.5,0-1-1.94-.72-2,.15Z"/><path class="cls-5" d="M163.33,78.86,165,77.23l-1.78-.18c-.05,3.17,0,5.83,2.58,8a1.22,1.22,0,0,0,1.72-.62c.2-1.42.72-2.71.91-4.14l-1.32.76c.64,0,1.46,1.8,1.9,2.28a1.21,1.21,0,0,0,1.87-.5c.46-1.48,1.43-2.56,1.74-4.12l-1.32.76c.75,0,.58,1,1.25,1.47a16.21,16.21,0,0,0,2.63,1c.45.19,1.53-.1,1.54-.71,0-.83,0-1.66,0-2.49l-1.32.76c.84,0,2,1.16,3,1.37,1.8.35,4.13-.82,5.8-1.26,1.19-.31.85-1.57-.34-1.25-1.81.47-4.8,2-6.42.06-.32-.37-.94-.26-1.37-.27s-1.31.17-1.32.76l-.05,2.49,1.54-.71c-1.3-.54-2.18-.47-2.87-2.19a.67.67,0,0,0-.63-.41l-.83,0c-.5,0-1.2.17-1.32.76-.3,1.56-1.28,2.65-1.73,4.12l1.86-.5a5.94,5.94,0,0,1-1.54-2.37.66.66,0,0,0-.62-.41l-.83,0c-.48,0-1.24.18-1.32.76-.19,1.42-.72,2.71-.91,4.13l1.73-.62c-2.27-1.9-2.17-4.34-2.13-7.06,0-.94-1.37-.57-1.77-.18l-1.7,1.63c-.86.83,1,1.08,1.61.52Z"/><path class="cls-5" d="M198.66,84.17c7.21.65,9.05,14.14,9.78,19.68.12.92,2.05.43,1.93-.52-.82-6.26-2.86-19.86-11.05-20.6-1-.09-2,1.32-.66,1.44Z"/><path class="cls-5" d="M201.33,84.61c2.53,6.1,5.53,12,7.12,18.41.1.39,2-.11,1.94-.52-1.6-6.44-4.6-12.31-7.13-18.41-.18-.44-2.06.2-1.93.52Z"/><path class="cls-5" d="M207.11,86.38A23.16,23.16,0,0,0,208.42,93a13.37,13.37,0,0,0,1.87,4.35c.4.49,2.26-.18,1.8-.74-1-1.24-1.44-3.17-1.9-4.66A21.51,21.51,0,0,1,209,85.86c0-.56-1.94-.2-1.93.52Z"/><path class="cls-5" d="M209.93,91c.8.23,1.6,3.4,1.86,4.1a46.71,46.71,0,0,1,1.69,5.55c.22.9,2.15.39,1.94-.51a54,54,0,0,0-2.22-7c-.38-1-1-3.15-2.15-3.49-.83-.25-2.29,1-1.12,1.3Z"/><path class="cls-5" d="M190.71,61.44c6.83-2.76,14.39,3.65,18.46,8.53.58.69,2.41-.09,1.77-.86-4.9-5.87-13.13-12.06-21.09-8.84-1.23.49-.14,1.57.86,1.17Z"/><path class="cls-5" d="M191.59,59.72c6.09.2,12.58,2,15.89,7.55.35.6,2.19-.08,1.93-.51-3.57-6-10.48-7.82-17-8-.66,0-2.08,1-.77,1Z"/><path class="cls-5" d="M197.06,58.19c3.47,2.64,7.35,4.54,9.68,8.38.39.65,2.26,0,1.78-.8-2.39-3.95-6.39-5.9-9.94-8.61-.6-.45-2.34.4-1.52,1Z"/><path class="cls-5" d="M198.6,56.37a93.33,93.33,0,0,0,9,8.47c.4.32,2.06-.45,1.82-.64a91,91,0,0,1-9-8.48c-.33-.33-2.08.38-1.83.65Z"/><path class="cls-5" d="M206,59.92q2.42,3.8,4.84,7.57c.43.68,2.29,0,1.77-.82q-2.42-3.78-4.84-7.57c-.43-.68-2.28,0-1.77.82Z"/><path class="cls-5" d="M180.17,71.93a31.92,31.92,0,0,1,7.28,3.38c.56.37,2.3-.41,1.8-.74A32.69,32.69,0,0,0,181.71,71c-.56-.2-2.32.63-1.54.91Z"/><path class="cls-5" d="M184.23,70.27a37.93,37.93,0,0,0,5.86,4.36c.54.37,2.32-.41,1.54-.95A36.44,36.44,0,0,1,186,69.51c-.49-.5-2.32.23-1.79.76Z"/><path class="cls-5" d="M190,70.11C190,72,191,73,192.61,73.88a1.46,1.46,0,0,0,1.37-.16c.28-.19.56-.62.15-.84-1.24-.67-2.22-1.47-2.22-3,0-.89-1.94-.51-1.94.21Z"/><path class="cls-5" d="M195.05,69.67a19.7,19.7,0,0,0,5,3.53c.64.33,2.39-.56,1.51-1a18.75,18.75,0,0,1-4.78-3.31c-.54-.54-2.37.2-1.78.8Z"/><path class="cls-5" d="M185.13,396.18c-2.09,4.32-3.64,7.68-9.21,8-2.49.13-5,0-7.32,1.11-3.55,1.65-9.52,7.54-13,2.83a11.55,11.55,0,0,0-2.21-2.26c-1.26-1,.64-3.94,1.12-4.95s-1.48-1-1.86-.23c-.77,1.64-1.38,3.33-2,5a.55.55,0,0,0,.19.69c2.66,1.48,3.58,4.61,6.7,5.17,3.73.68,7.64-2.79,10.54-4.48,4.12-2.4,9.19-.22,13.22-2.51,3.28-1.87,4.08-4.85,5.66-8.12.48-1-1.47-1-1.85-.24Z"/><path class="cls-5" d="M216.14,412.85a18.68,18.68,0,0,0,5.93-1.36c3.83-1.5,7-1.33,11-1.22,1,0,3.32.33,4.18-.47,1.47-1.37,2.46-4.86,4.83-4.71.49,0,1.52-.29,1.3-1-.55-1.73-1.1-3.44-1.81-5.11-.38-.9-2.3-.35-1.93.52.71,1.67,1.26,3.38,1.8,5.11l1.3-1a5.16,5.16,0,0,0-3.2.38c-1.93,1.23-2.29,4.69-5,4.81s-5.24-.76-7.81-.27c-3.58.7-6.73,2.61-10.41,2.82-1.12.06-1.47,1.55-.16,1.48Z"/><path class="cls-5" d="M207.91,400.88c5.83,2.67,10.58,7.2,17.4,5.37a40.62,40.62,0,0,0,7.44-2.92c2.87-1.42,3.21-4.44,5.89-5.89,1.13-.61-.65-.54-1.12-.29a5.71,5.71,0,0,0-2.36,1.72,11.7,11.7,0,0,1-6.45,5.47c-7.9,3.21-12.26-1-19-4.13-.52-.24-2.06.55-1.82.67Z"/><path class="cls-5" d="M187.36,407.32c-1.9-3-.24-7.73,2-10.08.83-.87-1-1.1-1.6-.52-2.64,2.75-4.38,8-2.2,11.43.44.69,2.29,0,1.78-.83Z"/><path class="cls-5" d="M168.9,411.21a8.32,8.32,0,0,0,.77-3.94c0-.82-1.92-.42-1.93.24a8.06,8.06,0,0,1-.64,3.64c-.44.85,1.5.64,1.8.06Z"/><path class="cls-5" d="M209.59,409.59a9.13,9.13,0,0,0,.56,4c.29.65,2.18,0,1.93-.52a8.54,8.54,0,0,1-.56-3.68c0-.78-1.92-.36-1.93.25Z"/><path class="cls-5" d="M201.65,48.17a77.68,77.68,0,0,0-22.77-19.23c-9.18-5.07-20.11-6.81-30.42-7.56C127.79,19.88,105,23,87,33.7c-36.91,22-45.89,72.92-29.85,110.37,9.69,22.63,33.1,41.05,57.59,43.74.88.09,2-1.16.7-1.3-26.31-2.89-49.22-23.65-58.39-48a94.44,94.44,0,0,1,.48-66.31c8.06-21.06,24.6-37.69,46.13-44.65,11.76-3.81,24.41-5.15,36.72-5.14,12.16,0,24.84,1.68,35.88,7,9.28,4.48,17.13,11.66,23.59,19.56.51.62,2.35-.11,1.77-.82Z"/><path class="cls-5" d="M211.24,146.06c4.47-5.81,6.81-13.23,8.76-20.2,1.79-6.41,3.87-14.16,2.58-20.86-.12-.62-2.06-.15-1.93.52,1.2,6.24-.71,13.32-2.24,19.34-1.85,7.27-4.34,15.18-9,21.2-.51.65,1.43.47,1.79,0Z"/><path class="cls-5" d="M130.75,108.61c-6.83,2.11-12.66,6.16-18.57,10.08-8.56,5.68-18.12,9.43-27.29,14-6.81,3.41-13.4,7.17-20.13,10.73-3.49,1.84-9.29,3.67-11.75,7-.72,1,1.11,1.22,1.61.54,2.59-3.5,9.26-5.5,13-7.52,6.61-3.55,13.15-7.16,19.86-10.53,7.23-3.62,14.85-6.54,21.78-10.7,7.18-4.32,13.7-9.82,21.81-12.33,1.17-.36.84-1.64-.34-1.27Z"/><path class="cls-5" d="M133.62,97.22c-12.5-3.13-22.05-13.08-33.53-18.46C85.79,72.07,72.76,63,59.26,54.86c-.68-.41-2.4.52-1.5,1.07,13.53,8.12,26.59,17,40.83,23.9,11.5,5.56,21.3,15.47,33.89,18.63.77.19,2.29-.95,1.14-1.24Z"/><path class="cls-5" d="M137.83,97.65c-2.61-9.43-10.86-15.57-17-22.67-4.21-4.89-8.57-9.65-12.84-14.49-5.4-6.12-10.74-12.29-15.79-18.69C90.8,40,83.11,31.83,84.76,29c.16-.26-1.62-.15-1.9.34-1.47,2.52,4,8.44,5.26,10.15,4.75,6.39,10,12.42,15.22,18.42,4.82,5.52,9.73,11,14.57,16.45,6.47,7.34,15.28,14,18,23.81.12.45,2-.07,1.93-.52Z"/><path class="cls-5" d="M141.67,97c.86-8.32-2.39-16.16-4.32-24.11-2.41-9.92-4.57-19.93-6.39-30-1-5.64-2-11.25-3.32-16.83-.52-2.22-1.22-9.17-3.91-10.09-.77-.26-2.28.85-1.14,1.24,2.13.73,3.21,9.76,3.62,11.6,1.23,5.43,2.16,10.91,3.15,16.39C131,54,133,62.72,135,71.44c1.93,8.42,5.65,16.9,4.74,25.68-.1.94,1.87.64,1.95-.17Z"/><path class="cls-5" d="M145.46,97.8c.38-8.76,3.9-16.93,4.3-25.67,0-.35-1.9-.09-1.93.51-.4,8.74-3.92,16.92-4.3,25.68,0,.35,1.9.09,1.93-.52Z"/><path class="cls-5" d="M153.72,61.63c-3.16-3.23.87-10.05,1.51-13.78.94-5.53.43-11.61,2.13-17s2.2-11.16,3-16.65c.08-.52-1.83-.16-1.91.33-1,6.27-2.39,12.45-3.45,18.68-1,5.81-.65,11.94-2.31,17.61-1,3.26-3.71,8.5-.82,11.45.36.37,2.15-.33,1.81-.68Z"/><path class="cls-5" d="M188,29.06C181.8,35.34,178.8,44,173.22,50.72c-.76.91,1.1,1,1.58.42,5.58-6.72,8.59-15.39,14.72-21.65.83-.84-1.06-.95-1.57-.43Z"/><path class="cls-5" d="M148.39,105.4c1.26,1.08,3,1.13,4.61,1.2,2.68.11,5.45-.1,7.94,1.05.86.4,2.23-.84,1.1-1.37a14.93,14.93,0,0,0-5.8-1.11c-1.9-.07-4.81.4-6.37-.93-.7-.6-2.36.42-1.48,1.16Z"/><path class="cls-5" d="M207.71,116.1c5,.1,12.61-.59,16.57,3,.56.51,2.38-.26,1.79-.8-4.34-3.9-12.25-3.29-17.64-3.4-.81,0-2,1.2-.72,1.22Z"/><path class="cls-5" d="M146.4,108.13c4.46,2.27,9.88,3.69,13.08,7.79.43.56,2.29-.13,1.79-.78-3.28-4.19-8.78-5.66-13.34-8-.6-.3-2.36.55-1.53,1Z"/><path class="cls-5" d="M201,129.94c-.38.44,0,.18.71.39a17.46,17.46,0,0,1,2.22.84c2.1.88,4.11,2,6.11,3.05a95.17,95.17,0,0,1,8.31,4.94c.73.49,2.41-.5,1.49-1.13a106.07,106.07,0,0,0-12.13-6.93c-1.73-.87-6.47-3.87-8.33-1.75-.81.93,1,1.26,1.62.59Z"/></svg>