<svg id="layer1" xmlns="http://www.w3.org/2000/svg" viewBox="0 0 300.79 147.39"><defs><style>.cls-1{fill:#e5a642;}.cls-2{fill:#fc7510;}.cls-3{fill:#492d0c;}</style></defs><path class="cls-1" d="M241.92,82.53a4.31,4.31,0,0,0-1.57-1.25,9.22,9.22,0,0,0-1.28-1.81,3.24,3.24,0,0,0-4.44-.31,11.32,11.32,0,0,0-4.42-3,3,3,0,0,0-2.1.07,9.68,9.68,0,0,0-7.07.31c-.32.14-.61.3-.91.46-6.3-2.39-14.51-1.54-20.56-1.24-9.22.46-18.67.22-27.6,2.6-14.36-1-28.6-.14-42.81,1.42q-15.94-.33-31.88.9c-1.85.15-3.7.26-5.56.35a57,57,0,0,0-9.26.36c-11.76.34-23.56.49-35.09,2.73a37.86,37.86,0,0,0-10.78,3,3.31,3.31,0,0,0-1,.74C33.5,88,31.5,89.64,30,93.5a5.65,5.65,0,0,0,1.83,7c1.23,5.55,6,11,11.52,6.29A6,6,0,0,0,44.77,105c2.93.47,6.15.81,9.51,1a3.22,3.22,0,0,0-1,2.4c.14,5.57,1.6,10.92,3.33,16.18A3.4,3.4,0,0,0,60.18,127a3.29,3.29,0,0,0,3.55-1.41c6.18-4.7,10.85-10.75,15.35-17a2.94,2.94,0,0,0,.43-2.38c9.37-.33,17.14-.93,20-1a204.21,204.21,0,0,0,26-2.36c1.27.06,2.53.09,3.8.12,4.88,1.75,10.66,1.35,15.65,1.13q5.77-.24,11.52-.54a3.43,3.43,0,0,0,3,2,193.52,193.52,0,0,0,33.52-1c2-.22,4.24-.54,6.51-.82a3.26,3.26,0,0,0,1.92,1,3.23,3.23,0,0,0,.94,1c.94,2.31,2,4.57,3.15,6.79.7,1.95,1.41,3.89,2.28,5.77a3,3,0,0,0,1.62,1.59,3.56,3.56,0,0,0,6,0l.5-.84a3.62,3.62,0,0,0,3.06-2.41,20.29,20.29,0,0,1,.82-2,3.83,3.83,0,0,0,.69-.47c3.12-2.77,5.11-6.32,7.32-9.75,1-1.3,2.07-2.59,3.11-3.89a4,4,0,0,0,.68-1.27c1.36,0,2.71-.06,4.06-.11a3.63,3.63,0,0,0,1.07-.21h.54a3.39,3.39,0,0,0,3-1.63C242.75,92.54,245.55,87.37,241.92,82.53Zm-31.57,22.52c0,.09-.07.18-.11.26l-.11-.27ZM66.78,108.12a2.8,2.8,0,0,0-1.31.48c-.44.3-.85.63-1.25,1,0-.16,0-.32-.09-.47a3,3,0,0,0-2.34-2.39c0-.12,0-.24,0-.35,2.24.05,4.5.07,6.74.07A18.88,18.88,0,0,0,66.78,108.12Z"/><path class="cls-2" d="M57.83,66a3.49,3.49,0,0,0-6.64,1.5v.11a9,9,0,0,0-.29,2.26h.29v2.45a3.5,3.5,0,0,0,7,0V70.07A3.46,3.46,0,0,0,57.83,66Z"/><path class="cls-2" d="M87.29,58.87H85.68a3.68,3.68,0,0,0-3.48,3.27,3.85,3.85,0,0,0-.34,4c-.33-.7,0,.06,0,.25a5.08,5.08,0,0,0,.49,1.33,3.21,3.21,0,0,0,.21.3,5.83,5.83,0,0,0,2.91,3.35c1.58.84,3.94.51,4.79-1.26a12.55,12.55,0,0,0,1.28-5.74,3.41,3.41,0,0,0-.83-2.21A3.66,3.66,0,0,0,87.29,58.87Z"/><path class="cls-2" d="M196.57,60.14v0l-1.22-.41-.16-.05-3.92-1.3a9.86,9.86,0,0,0-1.64-.55l-.31-.1v0a9,9,0,0,0-.95-.15,3.08,3.08,0,0,0-1.55.19c-.93-.27-1.86-.53-2.81-.77l-.33-.1h0a3.63,3.63,0,0,0-1.73,0,3.55,3.55,0,0,0-1.63,0,3.39,3.39,0,0,0-1.41-.81,3.68,3.68,0,0,0-1.08-.11,3.14,3.14,0,0,0-2.42.46c-3.68,2.28-3.4,6-.48,7.74a6,6,0,0,0,1.72,2,3.19,3.19,0,0,0,2.93,1.65H194a3.38,3.38,0,0,0,2.29-.83C199.32,66.63,200,61.62,196.57,60.14Z"/><path class="cls-2" d="M164.69,55.18a3.52,3.52,0,0,0-3.31,2.45l-.24,0a3.09,3.09,0,0,0-2.46-.89,8.66,8.66,0,0,0-5.07,1.94,24.81,24.81,0,0,0-5.43,3.9c-3.27,3.12,1.69,8.06,5,4.95.21-.21.45-.39.68-.58h.05a18.12,18.12,0,0,0,5.89-1.51,4.19,4.19,0,0,0,2.64.62,3.45,3.45,0,0,0,2.29.89,3.53,3.53,0,0,0,3.5-3.5V58.68A3.53,3.53,0,0,0,164.69,55.18Z"/><path class="cls-3" d="M72.69,54.85a3.54,3.54,0,0,0-1.5,2.28c-1.12-2.92-3.11-5.24-6.4-5.83-7.12-1.29-14.24,2.13-21.2,4a3.77,3.77,0,0,0-5.05.83C35,60.8,36.91,69,37.19,74.67v1.2h.08a3.5,3.5,0,0,0,5.11,2.66c.06.12.1.24.17.37,3.12,5.14,13.35,4,18.34,3.63,6.73-.49,9.59-5.09,10.83-10.85A15.09,15.09,0,0,0,75.93,77c6.66,5.39,16.3,4.27,22.63-1,5.86-4.92,8.89-13.15,4.35-20C95.63,45,81.66,48.62,72.69,54.85ZM61.77,75.45a49.7,49.7,0,0,1-7.42.23c-1.13,0-2.25-.12-3.37-.22-.79-.07-2.94-1-2.38-.1a3.34,3.34,0,0,0-4.41-1.31V62.37c4.23-.94,8.35-2.47,12.53-3.5a17.45,17.45,0,0,1,7.14-.65c.8.14,1.36,4.41,1.47,5.8C65.54,66.72,65.6,75,61.77,75.45Zm33.74-6.24a12.21,12.21,0,0,1-11.86,4c-5.31-1.28-9.2-8.23-3.42-11.51a3.18,3.18,0,0,0,1.48-4c4.8-2.26,10-3,14.51,1.15C99.53,61.84,98.09,66.28,95.51,69.21Z"/><path class="cls-3" d="M135.25,56.49c0-.17,0-.35-.06-.53V53.87h-.13c0-.08,0-.15,0-.23-.1-3.48-4.13-4.13-6-2.17a3.21,3.21,0,0,0-2-.27,3.79,3.79,0,0,0-3.94-.28,4.07,4.07,0,0,0-.61-.05h-.8a4.07,4.07,0,0,0-1.3.21,3.16,3.16,0,0,0-1.1-.21h-.81a3.12,3.12,0,0,0-2,.68,3,3,0,0,0-3.28-1,3.33,3.33,0,0,0-3.85,3.36,61.53,61.53,0,0,0,2.69,17.77,3.68,3.68,0,0,0,4.93,2.2,5.17,5.17,0,0,0,.51.18.22.22,0,0,1,0,.08A3.68,3.68,0,0,0,121,76.87h.8a3.26,3.26,0,0,0,1.81-.57,3.38,3.38,0,0,0,3.14,0A3.77,3.77,0,0,0,131.11,75a4.17,4.17,0,0,0,.5,0,3.73,3.73,0,0,0,4.31,0,3.13,3.13,0,0,0,3-3.39c-.19-4.07-1.48-8-1.67-12.08A3.38,3.38,0,0,0,135.25,56.49Z"/><path class="cls-3" d="M183.57,48c-4.82.07-9.62.73-14.45.8a3.29,3.29,0,0,0-3,1.61c-.12.05-.24.07-.37.12-3.52,1.36-3.25,6.9.93,6.88l.9,0c-.78,5.72-1.91,11,3.05,15.84,2.93,2.84,7.29-.74,5.49-4.24-2.14-4.19-1.52-8.91-1.23-13.48,2.9-.21,5.75-.46,8.68-.51C188.1,54.89,188.09,47.89,183.57,48Z"/><path class="cls-3" d="M28.54,87.09c-1.76,6.46-4.67,17.48,2.71,21.71a13.15,13.15,0,0,0,6.63,1.27c6.31,0,12.62-.37,18.92-.62,27.1-1.07,54.18-2.72,81.31-3.23,17-.31,34,.23,51-.19,16-.4,32.57-.35,48.34-3.29,3.73-.7,7.26-1,7.73-5.19.53-4.63,2.35-22.51-5.88-22.83-13-.51-26.4.79-39.44,1.09-40.12.91-80.26,1.61-120.34,3.75-15.28.82-30.75,1.55-45.86,4.11-1,.18-1.51,1.55-.2,1.32,14.38-2.43,29.1-3.17,43.65-4,20.23-1.14,40.48-1.81,60.73-2.39,19.9-.57,39.81-1,59.71-1.44q11.89-.27,23.8-.58,4.53-.12,9.05-.28c2.69-.09,6.07-.77,8.7-.16,5.16,1.2,4.58,13,4.5,16.39-.1,4.29.67,7.21-3.61,8.35-6.64,1.76-13.83,2-20.65,2.5C203,104.54,186.7,104.89,170.4,105c-22.67.19-45.25.08-67.93,1-13.61.59-27.22,1.28-40.83,1.86q-9,.39-18,.66c-4.29.13-9.5,1-12.84-2.32-4.63-4.63-1.78-14.06-.34-19.36.24-.87-1.73-.62-1.95.17Z"/><path class="cls-3" d="M49.93,111.31c1.66,5.56,3.77,11.53,4,17.35,0,.22.44.21.57.21h12a1.59,1.59,0,0,0,1.36-.61c2.41-5,4.1-10.37,7.94-14.56.5-.55-1.41-.36-1.78,0-3.9,4.27-5.62,9.65-8.08,14.78.45-.2.9-.65,1.35-.65h-9.2c-3.23,0-2.62-3-3.21-5.68-.85-3.85-1.92-7.64-3-11.41-.17-.58-2.1,0-1.93.53Z"/><path class="cls-3" d="M199.62,107.4c5.6,3.36,5.27,10.16,5.28,15.94,0,.34.93.16,1.07.12,4.2-1.21,8.52-1.25,12.86-1.26.4,0,1.34-.2,1.36-.72.2-5.09,2-11,7.41-12.8,1.3-.44.09-.87-.71-.6-6,2-8.4,8-8.63,13.92l1.37-.72c-4.69,0-9.33.11-13.87,1.41l1.07.13c0-5.88.25-12.73-5.4-16.13-.52-.31-2.2.48-1.81.71Z"/><path class="cls-3" d="M77.82,55.66C95.43,39.78,112.36,70.53,95.6,76c-3.29,1.06-6.49,2.5-10,2.14-4-.41-7.64-2.9-10.34-5.71-5.92-6.18-4.48-13.51,3.05-17.29,1.19-.59.12-1.51-.82-1-3.78,1.88-7,4.12-7.92,8.47-.91,4.2,1.83,8.49,4.58,11.37,7,7.29,15.53,5.94,23.94,2.49s7.64-13.64,3.42-19.93c-6.07-9-17.87-7.95-25.24-1.3-.88.79,1,1,1.6.49Z"/><path class="cls-3" d="M82.61,55c-8.12-.55-10,7.81-7.08,14.18,2.74,6,10.13,8.11,16.15,6.71,6.46-1.51,9.46-8.19,7.35-14.3C96.67,54.73,86.26,53.23,80.59,56c-1.15.57.62.68,1.16.42,5.53-2.75,13.67.76,15.65,6.48a9.5,9.5,0,0,1-5.93,12.12c-4.31,1.31-9.11-.68-12.14-3.73-3.34-3.38-6-16,2.06-15.45.51,0,2.25-.86,1.22-.92Z"/><path class="cls-3" d="M82.77,61.22c-2.59,3,0,11.67,4.84,9.46,2.11-1,2.58-3.22,2.21-5.35a4.46,4.46,0,0,0-5.19-3.8c-.22,0-1.34.36-1.1.79,1.75,3.13,4.93,2.68,7.67,4.36.53.32,2.32-.45,1.54-.93-2.47-1.51-5.71-1.13-7.28-4l-1.1.79c2-.25,3.14,1.52,3.53,3.26.22,1,.2,4.51-1.57,4-2.57-.81-3.38-6.71-1.76-8.56.55-.63-1.39-.49-1.79,0Z"/><path class="cls-3" d="M108.51,51.23c-2,2.66-.66,8.19-.29,11.13a84.18,84.18,0,0,0,2.72,14.08c.22.72,2.14.18,1.93-.52a83.24,83.24,0,0,1-2.24-10.83c-.56-3.4-2.59-10.75-.31-13.79.54-.73-1.41-.6-1.81-.07Z"/><path class="cls-3" d="M109,51.74c6.38.09,12.68.71,19-.22,4.32-.63,7.77-.66,8.78,4.11.78,3.67.65,7.54.91,11.27.19,2.77,0,7.08,1.44,9.54.35.58,2.17-.11,1.93-.52-1.78-3-1.38-8.31-1.58-11.65-.22-3.82.12-8.33-1.65-11.85-1.08-2.16-3.84-2.21-5.91-2.17-2.87.06-5.73.7-8.6.87-4.5.27-9.06-.27-13.56-.33-.64,0-2.09.93-.79,1Z"/><path class="cls-3" d="M152.16,69.94c6-3,14.88-1.59,21.48-1.41s13.23.1,19.9-.16c2.49-.1,5.76-.71,7,2.1,1,2.32,1.28,2.65-1,3-3.2.43-6.39.94-9.58,1.39-5.52.78-41.23,7-38.87-4.57.15-.75-1.8-.43-1.93.24-2.93,14.36,45.5,4.47,52.33,3.74.31,0,1.07-.25,1.1-.66.63-9.68-11.25-6-17.49-5.88-6.79.11-13.65-.27-20.44-.46-4.5-.13-9.16-.16-13.26,1.9-1.19.61-.09,1.24.77.81Z"/><path class="cls-3" d="M147.7,70.84c-3.13-3.25,4.69-9.59,6.88-11.23,5.35-4,14.21-3.64,20.56-3.55,8,.1,27.13.69,25.51,12.79l1.57-.6c-17-2.39-34-.85-51,.84-.35,0-1,.26-1,.71v.83c0,.21.25.24.36.24h1.66c.61,0,2.09-1,.79-1-.6,0-1.09.08-1.09-.63l-1.12.7c16.7-1.67,33.5-3.17,50.21-.82.36,0,1.51-.12,1.57-.61,1.94-14.49-23.7-13.7-32.44-13.37-6,.22-12.83,1.09-17.79,4.78-2.44,1.83-9.73,8.17-6.45,11.58.4.42,2.21-.28,1.81-.71Z"/><path class="cls-3" d="M159.83,54c-1.61-.25,3.8-3.94,4-4,3.71-1.56,6.65-.39,10.29-.69a26.51,26.51,0,0,0,3.64-.68,21.76,21.76,0,0,1,2.9-.53c5.3-.72,3.86,4.4.71,5.32-6.42,1.88-13.79,0-20.2,2.13-.3.1-.94.34-.83.77l0,.08c.06.26.39.29.6.32a6.13,6.13,0,0,0,1.29.07c.76,0,2-1.12.73-1.15-.86-.23-1.1-.17-.71.17l-.83.77c6-1.94,13.06-.6,19.25-1.93,3.2-.68,8.7-4.48,3.62-7.37-1.88-1.07-4.92-.1-6.83.32-4.24.93-8.5-.06-12.75.89-1.61.36-10.84,5.87-6,6.61.65.1,2.29-.92,1.17-1.09Z"/><path class="cls-3" d="M170.81,47.92c-3.63,5.06-5,12.47-4,18.59.31,1.9,1.07,9,3.3,9.69a1.55,1.55,0,0,0,1.49-.5,2.3,2.3,0,0,0,.27-1.3c0-.8-1.91-.4-1.94.24,0,1.29,1.39.54,1-.38-.3-.7-.5-1.45-.73-2.18A55.38,55.38,0,0,1,168.73,66a25.63,25.63,0,0,1,3.88-18c.52-.72-1.43-.55-1.8,0Z"/><path class="cls-3" d="M176,76.89c.42-6.58-6.62-27.58,4.47-27.58.71,0,2.06-1.08.76-1.08s-3.37-.49-4.48.39a11.14,11.14,0,0,0-4.14,6.8c-1.6,7.14,1.91,14.53,1.46,21.72,0,.77,1.89.38,1.93-.25Z"/><path class="cls-3" d="M40.91,58.41c-3.26,5.69-3.51,19.83,3.92,22.32,6.53,2.2,16.61.36,22.48-3,2.47-1.43,2.23-4.59,2.36-7.11A48,48,0,0,0,68.6,56.19C68,53.93,66.35,53,64.13,54,59,56.32,52,56.42,46.4,56.56c-.38,0-2.19.78-1.26.75,4.11-.1,8.2-.71,12.29-1.1,2.41-.24,4.49,0,6.63-1.19,4.26-2.28,3.72,15.73,3.56,18-.35,4.92-3.41,5.84-8,6.84s-10.17,1.6-14.48-.33c-6-2.68-4.85-17-2.31-21.44.12-.21-1.63-.12-1.9.35Z"/><path class="cls-3" d="M51.19,64.86V75.28c0,.33.35.49.67.48,3-.07,5.87-.82,7.52-3.46s1-6.3.36-9.11c-.05-.24-.38-.34-.59-.33-1.82,0-3.89,0-5.42,1.14-1.13.82-1.12,2.2-1.12,3.46,0,.88,1.94.49,1.94-.21a9.08,9.08,0,0,1,.16-2.08c.32-1.35,2.74-1.12,3.72-1.13l-.6-.33c1.14,4.74,1.1,10.71-5.21,10.87.2.16.57.32.57.48V64.64c0-.87-2-.48-2,.22Z"/></svg>