<svg id="layer1" xmlns="http://www.w3.org/2000/svg" viewBox="0 0 365.88 285.15"><defs><style>.cls-1{fill:#f78819;}.cls-2{fill:#519bed;}.cls-3{fill:#90c5f4;}.cls-4{fill:#492d0c;}</style></defs><path class="cls-1" d="M217.22,209.12a4.32,4.32,0,0,0,.19-.45c2.87.85,5.43,0,7.72-2,2.09-1.83,3.52-7.08,6.18-7.84a3.56,3.56,0,0,0,2.1-5.14,45.23,45.23,0,0,1-2.09-5.45c.07-.54.13-1.08.16-1.61a3.17,3.17,0,0,0-.09-.88,3.4,3.4,0,0,0-.94-2.39c-.45-.51-.92-1-1.4-1.47a16.08,16.08,0,0,0-6.79-8.05,23.18,23.18,0,0,0-11-3,18.5,18.5,0,0,0-4.5-1.08l-.33-.13a3,3,0,0,0-1.85-.06l-1.48,0h-1c-.88,0-1.71,0-2.52,0a20.28,20.28,0,0,0-.33-7.06,3.53,3.53,0,0,0-6.4-.84,15.45,15.45,0,0,0-.74,1.61,3.75,3.75,0,0,0-2.47,1.6c-2.51,3.56-2.69,7.9,1.47,10.23.21.11.43.2.65.3a39.78,39.78,0,0,0-1,6.48,2.63,2.63,0,0,0,.07.8c-3.84,1.86-4.69,8.08-4.17,14a9.46,9.46,0,0,1-.66,3.38,23.8,23.8,0,0,1-2.34,4.15,1.59,1.59,0,0,0-1.84-1.29c-6.88,1.18-11.78,7.89-18.76,8a20.49,20.49,0,0,0-.19-3.39,1.63,1.63,0,0,0-1.1-1.45,24.85,24.85,0,0,0-10-1.65,1.5,1.5,0,0,0,0,3,24.4,24.4,0,0,1,8.27,1.18,14.28,14.28,0,0,1-.09,3.33,1.53,1.53,0,0,0,1.45,1.9c7.82,1,12.68-5.58,19.52-7.65a3.71,3.71,0,0,0-.66,1.24c-.3.35-.6.7-.87,1.07a1.36,1.36,0,0,0-.6.38,19.4,19.4,0,0,0-4.22,5.88l0,0h0c-.05.12-.11.23-.16.35a1.15,1.15,0,0,0,.41,1.5c-.09.19-.18.36-.26.55-.74,1.73,1.73,3.28,2.59,1.52a33.2,33.2,0,0,1,4.24-7,3.66,3.66,0,0,0,4.84-.14l.86-.8a14,14,0,0,0,3.32-2.16,6,6,0,0,0,1.76,1.35c-.89.75-1.8,1.52-2.75,2.27-2.52,2-.3,5.93,2.48,6,4.5.08,9.65.57,13.38-2.5a11,11,0,0,0,3.64-5.53s0,0,0-.06a3.26,3.26,0,0,0,2.52-.53c.12.11.25.21.38.31l.05.07v0c.23.19.45.38.69.56a2.84,2.84,0,0,0,2.37.61c2.8,3,5.39,6.25,8,9.46,1.2,1.51,3.31-.62,2.12-2.12C222.5,215.25,220,212.09,217.22,209.12Zm-5.93-12.72a3.28,3.28,0,0,0-2.09-.45c.55-1.42,1.18-2.76,1.55-3.71,2.14-5.54,5.74-8,11.48-7.09h.05c.22.18.43.37.64.56l-.28.35c-.73,1-.47,2.13-.4,3.24a84.42,84.42,0,0,0-4.5,7.55.52.52,0,0,0-.06.13C216,197.9,213.83,197.9,211.29,196.4Z"/><path class="cls-1" d="M264.86,213.16c-7.79-.4-14.84,6.41-22.61,4.7-3.81-.83-3.33-6-5-8.71-1.23-2-3.68-1.91-5.7-1.55a1.21,1.21,0,0,0-1,.93,60.66,60.66,0,0,0-6.44-.18v.4h0a1.5,1.5,0,0,0,0,3h7.06c.41.07.81.15,1.21.25l0-.25h2a1.25,1.25,0,0,0,.53-.1c1.25,1.73,1.47,4.86,2.29,6.28,1.29,2.25,4.21,3,6.58,3.2,7.33.72,13.76-5.35,21-5C266.78,216.26,266.79,213.26,264.86,213.16Z"/><path class="cls-1" d="M219.52,79.14A42.36,42.36,0,0,0,223.6,85c.93,2.21,2.06,4.33,2.93,6.56a1.56,1.56,0,0,0,1.8,1,1.6,1.6,0,0,0-.25.87,30.8,30.8,0,0,0,.29,3.14c-3,.28-5.64,2.1-8.37,3.56a1.42,1.42,0,0,0,.76,2.66h1.91a1.31,1.31,0,0,0,1.38,1.1,19.84,19.84,0,0,1,7.58,1.57,15,15,0,0,0,1.7,2.12,27.74,27.74,0,0,0,.79,3.68v.11c-.68-1.12-2.55-1.06-2.8.27a1.53,1.53,0,0,0-2.44,1.18,21.86,21.86,0,0,0,.62,3.83,15.66,15.66,0,0,0-3.17-2.72,1.37,1.37,0,0,0-1.54,0l-.07,0c-1.25-.7-2.91.76-2.05,2.06,1.75,2.61,4.09,4.77,6,7.24.19.32.38.65.58,1a1.55,1.55,0,0,0-.13.59h-.24a36.55,36.55,0,0,0,.23,4.27,1.43,1.43,0,0,0-1.83,1.41,17.48,17.48,0,0,0,.79,5.35c0,.55,0,1.1-.1,1.66a12.42,12.42,0,0,0-2.14-4.06,1.19,1.19,0,0,0-.65-.44,12.11,12.11,0,0,0-1.76-2,1.51,1.51,0,0,0-2.35,1.82c.54,1.16,1,2.31,1.55,3.46a12.36,12.36,0,0,0-2.71-2.3,2,2,0,0,0-2,2.85c.78,1.48,1.64,2.91,2.45,4.36a20.32,20.32,0,0,1,.68,1.94,1.47,1.47,0,0,0-2.53,1.11,4.13,4.13,0,0,0,0,.54h0v-.13a14.08,14.08,0,0,0,.44,2.09,1.26,1.26,0,0,0-1.3,1.4,14.42,14.42,0,0,0,.57,2.51l-.86-.62a1.38,1.38,0,0,0-.35-.57c-2.32-2.24-4.78-4.33-7.22-6.42a1.58,1.58,0,0,0-2.59,1.38,1.59,1.59,0,0,0-.72,1.76,1.2,1.2,0,0,0,.69,1.62c3.75,1.72,6.83,4.42,10.42,6.42a1.76,1.76,0,0,0,.65.21c.77.63,1.54,1.28,2.26,2a2.31,2.31,0,0,0,3.36-1.06c0-.14,0-.27,0-.41,14.77-22.62,26.24-58.33.83-77.9a1.36,1.36,0,0,0-1.81.28l-.59-.28a2.08,2.08,0,0,0-.52-.13c-.36-.22-.71-.46-1.09-.67a1.51,1.51,0,0,0-1.81,2.36Zm5.21,67.73a1.62,1.62,0,0,0,.74-1.2l0-.45c.13.15.26.31.4.46l-1.14,2C224.75,147.43,224.75,147.15,224.73,146.87Zm8.79-20.82a1.48,1.48,0,0,0,.53.23c-.17.57-.34,1.14-.52,1.71A17.92,17.92,0,0,0,233.52,126.05Zm-4.45-26.27a2.58,2.58,0,0,0-.29,0h-1.52a6.8,6.8,0,0,1,1.73-.28C229,99.57,229,99.68,229.07,99.78Z"/><path class="cls-1" d="M194.69,60.48l.07,0a1.43,1.43,0,0,0,.37,2.22l1,.5a1.53,1.53,0,0,0,.52,2.93c3,.23,5.63,1.34,8.43,2.35a1.34,1.34,0,0,0,1.61-.61c.87.21,1.74.42,2.61.61A1.45,1.45,0,0,0,210.66,66c.84.32,1.69.64,2.53.89a1.6,1.6,0,0,0,.29,0,16.08,16.08,0,0,0,1,4.42c.51,1.28,2.5,1.62,2.89,0a20.83,20.83,0,0,0,.83-6.86,26,26,0,0,0-.83-8.58,1.64,1.64,0,0,0-1.45-1.23h-.8a1.69,1.69,0,0,0-1.5,1.69c0,.22,0,.45,0,.67a1.2,1.2,0,0,0-.44.64h-.35c0,.8.09,1.54.16,2.27a1.64,1.64,0,0,0-.88,1.42v2a28.49,28.49,0,0,0-6.58-1.84,1.27,1.27,0,0,0-.94.24,17.07,17.07,0,0,0-.85-5.56c-.45-1.3-2.57-1.56-2.89,0-.12.59-.28,1.17-.43,1.74-3.73-1-7.56-1.59-11-3.44-1.45-.77-3.18,1.23-1.82,2.36A21,21,0,0,0,194.69,60.48Zm9.47,2.82a1.64,1.64,0,0,0,.61,1l.09.08-.45-.1c-.31-.22-.64-.43-1-.63A1.51,1.51,0,0,0,204.16,63.3Z"/><path class="cls-1" d="M148.23,61.25a15.28,15.28,0,0,0,8.35,2.5,1.47,1.47,0,0,0,1.35-.87,1.21,1.21,0,0,0,.75-.68c.16-.35.3-.7.45-1.05a1.49,1.49,0,0,0,2.16-1.31V59.6a1.53,1.53,0,0,0,.06-2.63,22.33,22.33,0,0,1,.69-4.76.83.83,0,0,0,0-.22,70.07,70.07,0,0,0,7-11.45,1.52,1.52,0,0,0,0-1.39c0-.06,0-.13.05-.19a1.12,1.12,0,0,0,.19-.69,8.65,8.65,0,0,0,.2-1.33,17.23,17.23,0,0,0-.69-5.85c.29-.33.45-.34.38-1.34h0c-.8-5.85-4.3-23.28-12.7-23.29a1.32,1.32,0,0,0-1.84.17s-.06.09-.1.13a7.62,7.62,0,0,0-.84.29,1.52,1.52,0,0,0-1.1,1.45A10.38,10.38,0,0,0,153,10c-1.18-1.31-3.59.12-2.48,1.63a27.22,27.22,0,0,1,2.23,3.57,1.57,1.57,0,0,0,0,.49c0,.12,0,.25,0,.37-1.31,2.72.69,7.62,1.57,10.34A47.68,47.68,0,0,0,156.58,34a31.3,31.3,0,0,0,1.14,7.92l-.38-.2A1.53,1.53,0,0,0,155.08,43v0a21.72,21.72,0,0,0-10.85,3.4,29,29,0,0,0-11.17,6.72c-.05.05-.08.11-.13.16a20.43,20.43,0,0,0-5.18,2.82,1.75,1.75,0,0,0-.65,1.63,1.74,1.74,0,0,0-.06.64s0,.06,0,.09a1.42,1.42,0,0,0,0,.2,1.36,1.36,0,0,0,1,1,37.1,37.1,0,0,0,11,1.31A59.43,59.43,0,0,0,148.23,61.25Zm5.82-4.74a1.26,1.26,0,0,0-.72-1.18,19.39,19.39,0,0,0-2-.86l1.16-.48a8.3,8.3,0,0,0,1.71,1.06C154.16,55.53,154.11,56,154.05,56.51Zm-.05.4c0,.29-.08.58-.11.87l-.47.06A1.94,1.94,0,0,0,154,56.91Zm8.08-14.08c-.25.21-.5.42-.73.65-.15-.43-.27-.86-.4-1.29A1.65,1.65,0,0,0,162.08,42.83Zm1.54-24.17a27.55,27.55,0,0,0-2-2.4,1.31,1.31,0,0,0-1.37-.4c-.26-.57-.52-1.13-.8-1.7a1.24,1.24,0,0,0-1.58-.7,24.13,24.13,0,0,1-1.14-3.84C159.82,10,162.07,14.1,163.62,18.66Z"/><path class="cls-1" d="M279.36,167.64c-2.93,1.8-5.81,3.63-8.71,5.43a8.84,8.84,0,0,0-3,.59l-.06-.08a46.06,46.06,0,0,1,4.76-5.19c1.47-1.26-.66-3.35-2.13-2.12a54.83,54.83,0,0,0-6.83,6.8c-5.32-.73-9,4.12-11.08,9.12-1.83,1.92-3.69,3.82-5.35,5.87a1.8,1.8,0,0,0-.37,1l-.43.44a1.5,1.5,0,0,0,2.12,2.13h0l.16-.16.77-.75h7.9a1.46,1.46,0,0,0,1.46-1.82c9.47.16,18.63-12.15,22.83-19.24A1.51,1.51,0,0,0,279.36,167.64Zm-24.59,20.11a10.4,10.4,0,0,0,1.42-.7,1.51,1.51,0,0,0,0,.7h-1.44Z"/><path class="cls-2" d="M158.68,216.53l0,0c-.06-.38-.12-.77-.17-1.15-.25-1.89-1.41-3.61-3.5-3.61h-.26c-.11-.64-.2-1.29-.25-2a3.53,3.53,0,0,0-5.27-3c-1.27.9-2.08.53-2.43-1.14-1.31-2.26-4-2.06-5.6-.49a16.73,16.73,0,0,0-1.27-5.88,4.26,4.26,0,0,0-2.68-2.45,11.83,11.83,0,0,0-1.28-2.1,46,46,0,0,1,1.56-6.43c1-3.34-3.46-5.92-5.85-3.4a23.76,23.76,0,0,0-4.31,5.94c-.39-.36-.77-.73-1.17-1.13a3.24,3.24,0,0,0-5.15.46c-.12-.06-.24-.14-.37-.2a3.61,3.61,0,0,0-1.86-.33l-.63-.83q-1.26-1.77-2.43-3.58a15.48,15.48,0,0,0-5.6-10,4.1,4.1,0,0,0-1.35-.76A35.16,35.16,0,0,0,104.25,160c0-.06-.07-.1-.1-.16a22.47,22.47,0,0,0,.22-5.12,26.6,26.6,0,0,1,4.69-2.15,34.34,34.34,0,0,0,2.79,11.76,3.49,3.49,0,0,0,4.79,1.26,8.7,8.7,0,0,0,2.08-2.12,3.66,3.66,0,0,0,4-1.77,7.52,7.52,0,0,0,.34-.79,3.88,3.88,0,0,0,1.07.09c0,.78.08,1.56.09,2.36a.15.15,0,0,1,0,.07c0,.12,0,.25,0,.37h.06a3.3,3.3,0,0,0,3.11,2.92c.35,1.32.7,2.65,1,4,.89,4.42,7.64,2.79,6.75-1.62-.1-.47-.23-1-.39-1.54a3.44,3.44,0,0,0,.51-1.76h0a92.75,92.75,0,0,1,5.49-32c1.18-3.2-3.69-5.93-5.85-3.2a46.61,46.61,0,0,0-8.18,15.4,3.38,3.38,0,0,0-4.71,2,3.68,3.68,0,0,0-2.18,0,3.35,3.35,0,0,0-3.32-4.26,25.8,25.8,0,0,0-5.4.82c-5.15.15-10.45-1.91-8.81-8.25,1.56-6,5.67-10.55,4.88-17.15-.32-2.67-2.71-4.31-5.27-3-5.12,2.59-7.86,7.3-11.67,11.34-4.3,4.56-16.32,3.3-16-4.31.16-3.34-5.08-5-6.52-1.77-.19.42-.36.83-.53,1.24-1.06-4.68-3.09-10.19-7.29-10.19a.79.79,0,0,0-.83.58,31.49,31.49,0,0,0-1.45,16,67,67,0,0,0-.8,16.1,2.86,2.86,0,0,0-1.61,3,63.24,63.24,0,0,0,7.31,22.35,96.77,96.77,0,0,0,3.92,8.91,3.22,3.22,0,0,0,.48,1l.07.1A113.19,113.19,0,0,0,73.9,192a2.91,2.91,0,0,0,.46.68c.61.89,1.24,1.78,1.89,2.66a52.51,52.51,0,0,0,9,10.68A75,75,0,0,0,106.8,222a68.45,68.45,0,0,0,5.43,4.61c9.64,7.32,22.29,8,33.93,7.41,4.48-.22,4.52-7.23,0-7.23h0c-3.24,1-6.48.07-9.68-.5a3.62,3.62,0,0,0,.21-.8,23.18,23.18,0,0,0,3.77,1.35,3.57,3.57,0,0,0,3.81-5.4c3.09,1.25,6.22,2.29,8.19,3.49a3.18,3.18,0,0,0,4.32-.76l1.19.28c.3.15.6.31.91.49,2.91,1.69,6.82-1.79,4.79-4.79C162.08,217.85,160.61,216.76,158.68,216.53ZM82.49,156a77.81,77.81,0,0,0-2.55-9.61c.34.88.68,1.77,1,2.66a51,51,0,0,0,2,6.81A2.49,2.49,0,0,0,82.49,156Zm1.89-8.49-.06-.47.09.27Zm13.53-18.6c-.26.57-.51,1.14-.76,1.71a3.76,3.76,0,0,0-.3-.47C97.2,129.75,97.56,129.34,97.91,128.93ZM96,143.83l0,.06a14.2,14.2,0,0,0,.91,1.52,2.82,2.82,0,0,0-.57.09,5.82,5.82,0,0,0-.7-.44Q95.84,144.45,96,143.83Zm14.19,65.56a80.07,80.07,0,0,1-8.73-5.85c-2.28-2.59-4.62-5.11-7.12-7.48a3.39,3.39,0,0,0-.15-1.58l-.39-1.23a3.25,3.25,0,0,0,1.32-2.66l0-1.47a14.72,14.72,0,0,1,5.58-1.93H101a43.84,43.84,0,0,0,5.33,3.88c4.85,3.13,7.11,8,9.71,13a74.16,74.16,0,0,0,7.33,11.68C118.89,213.73,114.41,211.8,110.18,209.39Z"/><path class="cls-2" d="M309.16,193.13c.72-1.87-.78-3.73-2.44-4.31-4.26-1.48-8.54-1-13-.92-3.08,0-4.06,3.33-2.93,5.38a16.17,16.17,0,0,0-2,.36c-4.38,1.07-2.52,7.82,1.87,6.75,3.44-.85,7.08.15,10.58-.41C305.27,199.34,307.74,196.82,309.16,193.13Z"/><path class="cls-2" d="M319.59,221.26c-4.08-1.85-7.64,4.18-3.53,6.05a6.31,6.31,0,0,1,.77.42c-4.67-1.45-8.37-5.71-11.77-9.13-3.19-3.2-8.14,1.75-4.95,5,6.74,6.78,13.26,12.78,23.46,11.33a3.44,3.44,0,0,0,2.57-3.37C325.75,227.19,323.69,223.13,319.59,221.26Z"/><path class="cls-3" d="M204.7,83.19a111.83,111.83,0,0,0,6.38,9.75A16.79,16.79,0,0,0,213.51,95l.78,1.12a5.07,5.07,0,0,0,.81.81c.49.66,3.42,2.91,3.44,3a18.06,18.06,0,0,0-.8-2.95,6.57,6.57,0,0,1,1.6,1.35c-.17-.33-.36-.66-.53-1A16.86,16.86,0,0,1,221,99.27a12,12,0,0,0,0-1.7h0l.7.66a.69.69,0,0,1,.14.23c0-.47-.09-.93-.15-1.4a2.62,2.62,0,0,0,1.42.23,4.74,4.74,0,0,0,2.14-.56,5.91,5.91,0,0,0,1.11-.66c.24-.19.84-.63.84-1V93.48c0-.93-1.65-.39-2.1-.22a8.86,8.86,0,0,0-1.76.84,5.85,5.85,0,0,0-.79.4c-.05-.39-.1-.78-.18-1.16.17.15.27.27.27.32,0-.31,0-.62,0-.92h0v0a40,40,0,0,0-.8-8c-.17-.81-1.83-1.79-2.83-2.54l-.7-.66a.32.32,0,0,1-.06-.15c0,1.11,0,2.19.11,3.26l-.66-.94c-.07-.08-.16-.19-.26-.29-.14-.36-.28-.72-.41-1.09a5.22,5.22,0,0,0-2-1.94c-.13-.42-.28-.85-.43-1.27-.26-.68-1.78-1.69-2.76-2.46l-.15-.14-.3-.6a3.36,3.36,0,0,0-.65-.8c1.51.58,3,1.14,4.55,1.71a18.32,18.32,0,0,1-2-2.28c.68.22,1.35.44,2,.67l-.92-1a9,9,0,0,0-2.45-2.5L195,64.53c.3.31.61.62.91.94a16.1,16.1,0,0,0,1.8,2.06,47.32,47.32,0,0,1-4.89-2.87c-.32-.2.87,1.2,1.87,2.24-1.3-.39-2.59-.8-3.86-1.25l-1-.59a11.59,11.59,0,0,0-.63-1.39c.58.33,1.16.66,1.75,1h0l.23.13c-.59-.31-2.1-2.63-3.14-3.32-.21-.14-.41-.3-.61-.45a54.21,54.21,0,0,0-4-4.41,58.11,58.11,0,0,0-8.07-7c0-.55-.06-1.11-.12-1.67h0a.41.41,0,0,1,0-.11c-.08-.66-2.93-3.55-3.59-3.35a4,4,0,0,0-2.81,3.4,9.93,9.93,0,0,0-1.09-.19h-.11a11.92,11.92,0,0,0,.22,1.64,7.24,7.24,0,0,0-.83,4A16,16,0,0,0,164.42,60c-.24-.1-.46-.21-.7-.3l.67.68c0,.3,0,.82,0,1.12v.23h0v-.21s0,0,0,0c-.23,0-.26-.15-.49-.19l.17,0v.4h-.4c.22,0,.44.23.65.45.73.94,1.84,2.46,2.72,2.68,1.16.29,2.31.48,3.46.71A45,45,0,0,1,175,67a53.34,53.34,0,0,0,9.79,4.29c-.19-.2-.39-.53-.58-.53h0c1.23,0,2.48.94,3.78,1.32l-.82-.88a10.12,10.12,0,0,0-2.32-2.52l-.26-.32A40.86,40.86,0,0,0,190,70.87a8.59,8.59,0,0,0,2,1.93c2.12,1.13,4.11,2.46,6.1,3.79A73.79,73.79,0,0,1,204.7,83.19Zm4-3.59.12.34-.68-.57Zm-1.25,0c-1.69-.88-3.33-1.83-5-2.85,1.27.69,2.57,1.32,3.88,1.91ZM177.54,58.25a22.22,22.22,0,0,0-1.73-1.46s0,0,0-.06,0-.35.05-.52l.19.18C176.52,57,177,57.64,177.54,58.25Zm27.25,22.57c.32.16-.06-.39,0-.33-.24-.4-.51-.77-.78-1.15,1.15.92,2.3,1.84,3.47,2.73s0-.47-.79-1.38c.45.28.91.54,1.37.81.24.63.51,1.24.8,1.85l-.29-.26c.6,1.55,1.18,3.1,1.78,4.64-.5-.47-1-1-1.48-1.44-1.13-1.53-2.29-3-3.52-4.51a20.38,20.38,0,0,0-2-1.8C203.8,80.26,204.29,80.55,204.79,80.82Zm-3.19-6.27c-1.55-.74-3.07-1.54-4.54-2.42l-.3-.36c1.55.85,3.12,1.71,4.66,2.62ZM178.06,57.36l-.47-.41c-.57-.76-1.14-1.52-1.69-2.3,0-.1,0-.2,0-.3.73,1,1.45,2,2.18,3Zm-2.58,2.19c.29.24.59.47.89.7-.31-.23-.6-.46-.89-.7Zm19.15,12.7c.33.08.66.16,1,.22l.45.39c-.37-.24-.49-.24,0,.34l.44.51-.6-.45Zm3.87,2.64c.07.07.15.12.23.19l.78.64c.31.31.15.24-.25,0S198.75,75.16,198.5,74.89Zm9.85,0-1.15-1.09,1.15.46q.24.51.51,1Zm-8.68-3.25.61.73-1.4-.86-.27-.22C199,71.35,199.32,71.46,199.67,71.59ZM173.72,61l.35.29-.37-.22A.64.64,0,0,0,173.72,61Zm1.54.81.74.62-.75-.43A1.28,1.28,0,0,0,175.26,61.81Zm1.41-.65-.14-.12c-.39-.32-.75-.66-1.11-1,0-.12,0-.25,0-.38.54.47,1.09.93,1.64,1.38A.54.54,0,0,1,176.67,61.16Zm0-.68.54.38h0Zm4.48,2.82.92.53c.47.34.94.69,1.42,1-.74-.49-1.51-1-2.3-1.45A1,1,0,0,1,181.18,63.3Zm5.92,3.87,1.05.78-2.42-1.63C186.18,66.61,186.64,66.89,187.1,67.17ZM175.64,51.75c0-.17-.07-.33-.11-.49a109.45,109.45,0,0,1,9.14,8.24,59.44,59.44,0,0,1-5.8-4.16A27.79,27.79,0,0,0,175.64,51.75Zm-5.15,10.36c-.72-.14-1.45-.27-2.17-.38a12.15,12.15,0,0,1,.55-1.64A12.48,12.48,0,0,0,170.49,62.11Zm7.32,3.52c-.73-.43-1.44-.89-2.13-1.37a3.65,3.65,0,0,0-1.53-1.33l-.46-.11-.41-.31c0-.08.05-.17.08-.26,3.06,2,6.25,3.76,9.38,5.63l-1.89-.71C179.83,66.71,178.83,66.21,177.81,65.63Zm2.66-1.08-.14-.13a10.86,10.86,0,0,0,1.2.35c.12,0,.16,0,.11-.11a.69.69,0,0,1,0-.13c.95.68,1.9,1.36,2.86,2A42.37,42.37,0,0,1,180.47,64.55ZM221,93.83c.21.15.42.31.6.46l.48.44a5.42,5.42,0,0,0-.76.59C221.25,94.82,221.15,94.32,221,93.83ZM186.75,63.52c-.45-.21-.9-.41-1.37-.59a2,2,0,0,1,.19.23c-1-.84-2.33-2.07-2.37-2.12-.8-1-1.61-2-2.44-3l-.39-.6c1.87,1.53,3.8,3,5.8,4.3A11.84,11.84,0,0,1,186.75,63.52Zm-2.28-4.8c-2.4-2-4.64-4.3-6.94-6.47A26.12,26.12,0,0,1,184.47,58.72Z"/><path class="cls-3" d="M226.08,105.82a5.31,5.31,0,0,0-1.21-.38c-.58-.79-1.17-1.39-1.37-1.23s-.2.14-.29.2a1.68,1.68,0,0,0-.34-.2c-.22-.08-.25.11-.21.38l-.16,0c-.26,0-.61,0-.66.34-.2,1.46,1.18,3.25,2.15,4.2a19.8,19.8,0,0,0,5.09,3.38c.55.27,0-1.27-.05-1.31a12.26,12.26,0,0,0-.57-1.15c.15-.32-.45-1.74-.49-1.8A5.36,5.36,0,0,0,226.08,105.82Z"/><path class="cls-3" d="M267.37,121.64c-.07-.62-.16-1.23-.27-1.84a46.75,46.75,0,0,0-4.8-20.29c-2.83-5.56-7.77-9.65-12.39-13.69-4.44-3.89-9.48-7.91-15.11-10.1l-.36-.28c-.2-.16-.29-.13-.31,0a25.92,25.92,0,0,0-2.6-.78c-2.89-.7-.93,3.56.92,4a21.17,21.17,0,0,1,4,1.4c1.23,1.33,2.42,2.7,3.55,4.11a22.3,22.3,0,0,0-7.38-4.1c-.64-.19,1.13,3.88,2,4.4a14.29,14.29,0,0,1,2.86,2.22,10.22,10.22,0,0,0,1.7,3.24,15.61,15.61,0,0,1,2.67,2.85,52.06,52.06,0,0,1,2.43,5.24c0,2.32.2,4.66.41,6.87,0,.66.09,1.32.18,2,0,.18,0,.36,0,.53.09,1.17.16,2.33.24,3.48-.29,2.69-.47,5.4-.6,8.1a106.57,106.57,0,0,0-8,18.37,19.44,19.44,0,0,0-3.79,6.13,63.25,63.25,0,0,0-8.52,21,2.46,2.46,0,0,0,.17,1l-.57,1.31-.1-.06c-.06,0-.09,0-.09.08l-1.18-2.35a6.94,6.94,0,0,0-1.37-2.65,7.85,7.85,0,0,0-2.3-1.64c-.08,0-2-.91-1.8-.4.44.87.88,1.74,1.31,2.62a10.06,10.06,0,0,1,.24,1.66,6.93,6.93,0,0,0-1.87-1.31,4.24,4.24,0,0,0-.23-2.3,2.83,2.83,0,0,0-1.15-1.22,1.55,1.55,0,0,0,0-.23c-.67-2-4.28-3.32-6.14-3.45l-.14.06a7.32,7.32,0,0,0-.53,4.75,3.41,3.41,0,0,0,0,.85c-.55,0-1.12,0-1.71,0,0,0,0,0,0,.07-.27,0-.53-.06-.8-.07-.48,0,.31.71.32.72a20.6,20.6,0,0,0,7.78,4.86,17.55,17.55,0,0,0,5.26,1.9c.14,0,.5.11.4-.18a7.56,7.56,0,0,1-.35-1.59c.88.57,3.57,2.07,3.57,1.74,0-.61,0-1.2,0-1.78.37.13.72.23.82.16l0,.14c-.08.19-.17.37-.25.56-.35.83,2,4.73,2.51,4.23l.3-.3a35.43,35.43,0,0,0,4,3.05,27.89,27.89,0,0,1,2.58,3.15c.1,1.54.18,3.07.21,4.61,0,.57,2.11,4.51,2.52,3.93s.63-.93.93-1.4a9.74,9.74,0,0,0,.58,1.17h0c-.51.86,2.1,4.66,2.51,4.23a65.82,65.82,0,0,0,6.79-9c.48.69,1,1.16,1.23,1,11-8,16.09-22.8,17.06-36.7A44.89,44.89,0,0,0,267.37,121.64ZM235.71,178a47.81,47.81,0,0,1-.8-7.3,7.45,7.45,0,0,0-1.56-2.88,23.93,23.93,0,0,0,3-2.6c.59,1.19,1.32,2.29,1.67,1.93.06-.07.12-.32.18-.38.24.23.46,1,.62,0h0a31.35,31.35,0,0,0-.12,5.88,1.24,1.24,0,0,0,0,.18C237.65,174.47,236.7,176.27,235.71,178Zm-3.37-5.19c-1.37-1.32-3.43-2.73-4.07-4.61,0,0-.06-.14-.13-.28a14,14,0,0,0,2.88-2.72,12.41,12.41,0,0,0,1.26,2.22c0,1.9.15,3.8.28,5.7A1.58,1.58,0,0,0,232.34,172.78Zm21.83-61.28a31.05,31.05,0,0,1,.82,4.06,22,22,0,0,0-.87,2.18c0-.16-.07-.31-.11-.47A49.4,49.4,0,0,1,254.17,111.5Zm4.89,18.39.3-.61v0q0,1.31,0,2.61a6.31,6.31,0,0,0-.39-.54C259,130.89,259.05,130.39,259.06,129.89Zm-5.71-24.71c-.1-1-.22-2-.38-3a55.89,55.89,0,0,1,1.9,6.6C254.35,107.59,253.83,106.39,253.35,105.18Zm2-8.31c.31.39.62.77.92,1.17a1,1,0,0,0-.42-.26C255.69,97.47,255.52,97.17,255.35,96.87ZM248.21,115c-.11-.47-.21-1-.31-1.43.1-.78.21-1.55.32-2.32C248.23,112.5,248.22,113.75,248.21,115Zm14.66-1.24s0,.08,0,.13a52.39,52.39,0,0,1,0,9.78c-.12-.49-.25-1-.39-1.47a64.25,64.25,0,0,0-1.16-7.41A10.17,10.17,0,0,1,262.87,113.76Zm-9.82-16.1-.47-.36c-.21-.31-.43-.62-.66-.92-.33-.65-.68-1.3-1-1.94a28,28,0,0,0-2-4l.48.5A33.57,33.57,0,0,0,253.05,97.66Zm9.25,12c-.33-.45-.72-.82-1-.69a11.21,11.21,0,0,0-1.37.73c-.33-1-.69-1.93-1.1-2.86-.15-.36-.33-.71-.5-1.06,0-.11,0-.22,0-.34a3.92,3.92,0,0,1,.1-1.54c.82.81,1.66,1.6,2.53,2.38.41.69.75,1.33.95,1.67,0,.09.08.18.13.27C262.1,108.71,262.2,109.19,262.3,109.67Zm-16.43-19.9c-1.36-1.9-2.72-3.8-4.12-5.67,1.68,1.35,3.36,2.76,4.95,4.23A12.19,12.19,0,0,0,245.87,89.77Zm-1.22,3.75q-.1.56-.18,1.11c-.33-.65-.68-1.3-1.06-1.93Zm-2.5,82.21c.6-.65,1.19-1.32,1.76-2a17.31,17.31,0,0,0,1.66-1.13c-1.17,1.3-2.28,2.66-3.37,4C242.19,176.33,242.18,176,242.15,175.73Zm11.36-6.94c2-4,3.94-8,5.79-12.1a48.76,48.76,0,0,1-5.68,12.3A1.28,1.28,0,0,0,253.51,168.79Zm-12-80.41-1.34-.89-.21-.3C240.5,87.57,241,88,241.52,88.38Z"/><path class="cls-4" d="M195,170.13c-3.11,6.26-8.89,11.71-10.94,18.44a28.77,28.77,0,0,0-.47,12.49c1.22,8,6.36,14.63,15,13.63.91-.11,1.62-1.16.28-1-9.51,1.1-13.07-8.6-13.69-16.37-.9-11.12,7.16-18.16,11.77-27.45.26-.52-1.63-.33-1.92.26Z"/><path class="cls-4" d="M183.78,202.4c-6.59,4.45-11.89,13.07-9.14,21.13.25.73,2.06.24,1.93-.51-.9-5.47,5.44-9.1,8.14-13.21.53-.79-1.43-.65-1.81-.08-2.87,4.36-9.24,7.87-8.26,13.8l1.93-.51c-2.57-7.55,2.2-15.76,8.43-20,1.09-.73-.57-1.09-1.22-.65Z"/><path class="cls-4" d="M198.6,213.75c6.59-1.61,14.26-5.45,19.32,1.06,2.85,3.66,4.69,5.85,9.65,5.65.5,0,1.59-.76.83-1.25-5.17-3.35-9.6-8.16-8.09-14.74.22-.94-1.76-.69-1.95.15-1.59,6.9,3.08,12.15,8.55,15.7.28-.42.55-.84.83-1.25-4.73.19-6.13-2.63-8.62-5.84-1.54-2-3.75-2.83-6.06-3.59a7.6,7.6,0,0,0-4.89.28c-3.25,1-6.61,1.72-9.92,2.53-1.2.29-.85,1.59.35,1.3Z"/><path class="cls-4" d="M189.69,210.35c-2.48.73-5.38,1.76-5.51,4.77-.14,3.2,3.61,4.3,6,4.43,5.27.3,14.13-.48,17.54-5.23a2.49,2.49,0,0,0-1.9.36c-2.72,3.79-9.3,4.25-13.56,4.18-2.21,0-4.08-.42-5.46-2.23-2-2.61.25-4.94,3-5.75,1.1-.33,1-.86-.15-.53Z"/><path class="cls-4" d="M228.34,204.8c15.24-13,30.13-27,37.47-46.08,6.95-18.06,6.95-41.64-.55-59.46-7.62-18.12-29.41-25.34-47-29.82C199.79,64.71,179.42,59,173,38.73c-.16-.49-2.08.07-1.94.52,5.59,17.52,21.87,24.53,38.31,29.05,18.43,5.06,41.84,9.8,52.17,27.78,9.84,17.1,9.06,41.92,3.35,60.19-6.32,20.27-22.58,35.3-38.27,48.65-.45.38,1.39.19,1.75-.12Z"/><path class="cls-4" d="M204,167.21c14.71-1.72,26.63,9.87,29.4,23.58.09.45,2,0,1.93-.51-2.88-14.29-15.43-25.65-30.5-23.89-.52.06-2.1,1-.83.82Z"/><path class="cls-4" d="M222.09,165.05c6.23-15.48,16.27-29.51,19.44-46.12,2.3-12.07,1.24-29.46-8.38-38.34-8.39-7.75-19.91-10.34-30.29-14.27C189.42,61.23,176.8,53.48,173,38.73c-.21-.79-2.14-.27-1.94.52,3.18,12.19,12.27,19.89,23.28,25.13,10.28,4.9,22,6.9,31.68,13,5.29,3.36,9.42,7.31,11.55,13.3,2.79,7.85,3.34,17.2,2.49,25.39-1.84,17.66-13.29,32.72-19.76,48.81-.39,1,1.54.82,1.82.13Z"/><path class="cls-4" d="M173,38.73a132.47,132.47,0,0,0-6.51-20.6c-2.43-5.68-6-12.22-12.09-14.51a1.82,1.82,0,0,0-1.74.55c-2.78,4.52-1.71,11.31-1.17,16.26a156.64,156.64,0,0,0,3.39,18.62c.82,3.53.72,3.63-4,4.87a77,77,0,0,0-11.14,3.71c-7.44,3.17-14.91,7.4-19.44,14.3-.08.12.08.21.17.24,7,1.89,14.5,1.12,21.71,1.19,8.34.08,16.2,3.18,24.5,3.69.44,0,2.23-.78,1.23-.84-7.13-.45-13.93-2.79-21-3.54-7.82-.83-15.7.63-23.47-.92-2.26-.45,6.58-8,6.57-7.94a60.86,60.86,0,0,1,11.86-6.27c4.55-1.93,9.57-2.48,14-4.62,2-1,1.7-1.58,1.27-3.31-.82-3.37-1.53-6.77-2.17-10.18-1.36-7.15-4.43-18.88-.32-25.58l-1.74.56c6.76,2.53,10.15,10.31,12.68,16.52A129.77,129.77,0,0,1,171,39.25c.12.48,2.06,0,1.94-.52Z"/><path class="cls-4" d="M166,65.88c6.87,3.92,14.75,5.3,21.62,9.23a82.75,82.75,0,0,1,18,13.88C217,100.6,222.41,116.08,219,132.12c-.1.46,1.8.15,1.91-.33,3.25-15.38-1.44-29.66-11.58-41.41a78.3,78.3,0,0,0-18.64-15.21c-7.19-4.4-15.56-5.79-22.85-10-.5-.28-2.09.51-1.82.67Z"/><path class="cls-4" d="M171.62,39c-6.49,2.93-9.28,12.7-8.84,19.24.05.66,2,.24,1.93-.52-.38-5.68,2-15.33,7.68-17.89,1.22-.55.1-1.22-.77-.83Z"/><path class="cls-4" d="M168.36,38.74c-2-8.84-2.32-18.35-7.2-26.25-.35-.56-1.6-.21-1.81.32-2.86,7.26,2.25,16.44,4.08,23.42.23.85,2.16.34,1.93-.52-1.73-6.61-6.86-15.88-4.17-22.71l-1.81.33c4.81,7.77,5,17.23,7.05,25.93.2.85,2.13.35,1.93-.52Z"/><path class="cls-4" d="M157.69,31c2.29,3.81,3.42,8,4.46,12.29.2.79,2.13.28,1.94-.52-1.08-4.39-2.27-8.67-4.62-12.57-.39-.65-2.25,0-1.78.8Z"/><path class="cls-4" d="M158.26,39.57a36.41,36.41,0,0,0,1.21,8.16c.21.85,2.14.35,1.93-.52a34.39,34.39,0,0,1-1.18-7.81c0-1-2-.66-2,.17Z"/><path class="cls-4" d="M151.89,49.94l5.82,5.35.82-1.28c-7.07-.09-13.78-3-20.9-2.42-.53,0-1.57.74-.83,1.28,3.1,2.24,6.66,2.94,10.32,3.74,1,.21,1.94-1.14.67-1.42-3.4-.74-6.63-1.37-9.5-3.45-.27.43-.55.86-.83,1.28,7.08-.62,13.85,2.33,20.91,2.42.64,0,1.43-.72.82-1.28l-5.82-5.35c-.64-.59-2.31.36-1.48,1.13Z"/><path class="cls-4" d="M244.13,192.9c18.69,2.47,33.46-17.11,44-29.69.57-.69-1.21-.55-1.51-.33-6.12,4.44-11.83,9.32-19.26,11.39l.91.67a47.75,47.75,0,0,0,8.51-12c.37-.74-.93-.62-1.28-.45-5.45,2.66-9.74,7.24-14.28,11.16-.85.74,1,.74,1.38.47l2-1.23c.91-.57-.12-.95-.74-.8l-2.84.69.27,1c1.3-.44,1.58-.43,2.08-1.67.26-.65-1.67-.42-1.93.23l-.42.44c-1.12.39-.91,1.29.27,1l2.84-.69c-.24-.27-.49-.53-.74-.8l-1.95,1.23,1.38.47c4.27-3.69,8.36-8.17,13.49-10.67l-1.29-.44a46.2,46.2,0,0,1-8.27,11.68c-.62.65.45.8.91.68,7.79-2.17,13.78-7.13,20.21-11.79l-1.51-.33c-9.62,11.48-23.95,30.93-41,28.68-.63-.08-2.28.93-1.18,1.07Z"/><path class="cls-4" d="M189.92,176.89c-4-2.56-.17-11.26,1-14.53,1.49-4.31,4-8.86,4.36-13.46.07-.78-1.85-.4-1.93.25a64.36,64.36,0,0,0-.06,12.18c0,.69,1.66.1,1.86-.24l1.61-2.65-1.8.36,1.06,1.25c.43.51,2.28-.18,1.8-.75l-1.06-1.25c-.38-.45-1.54-.07-1.8.36l-1.61,2.65,1.87-.24a64.14,64.14,0,0,1,.06-11.92l-1.93.25c-.49,5.61-3.69,11.23-5.38,16.56-1,3.29-3.31,9.71.46,12.11.53.34,2.32-.44,1.54-.93Z"/><path class="cls-4" d="M221.21,162.73c-1.33-5.33-3.56-8.14-8.54-10.5-3-1.43-5.36-2.43-6.19-5.93a5.27,5.27,0,0,0-.48-3.19c-.26.55-.05,1,.62,1.26a11.26,11.26,0,0,0,2.9,2c2.79,1.47,7.48,1.64,9.37-1.4,3.43-5.52-3.07-11.15-3.15-16.79l-1.53.73c3.25.93,2.44,5.87,6.21,6.11,3.34.21,5.71-1.85,7.77-4.29,6.43-7.62-8.07-15.24-3.89-22.52l-1.66.45c2,1.54,3.89,6.13,6.71,6.4,1.66.16,4-1.14,4.07-3.08.41-8.15-8.65-11-15.23-8.56l1.35.69c1.49-3.55,5.23-4.37,8.26-6.13,1.09-.63,2.41-1.79,2.26-3.2a4.68,4.68,0,0,0-3.53-4.27c-4.94-1.1-1.95-3.65-1.87-5.88a9.23,9.23,0,0,0-.82-2.42.8.8,0,0,0-.88-.46c-1,.16-1.85-1.11-2.93-1.15-5.77-.19-.44-7.22.7-9.1,3.26-5.4.1-14.26-1.75-19.52a.91.91,0,0,0-1.15-.41c-5.22,1.92-5.21,9-11,10.22l1.14.41a28.15,28.15,0,0,1-1-7.08c0-.58-.69-.76-1.16-.6-1.69.6-3.31,1.41-5,2.07-2.89,1.15-10,3.71-6.85-1.89.44-.78-.91-1-1.35-.69-4.6,2.71-9.39-1-12.49-4-.64-.61-2.46.19-1.77.85,4,3.86,9.69,7.51,15.12,4.3l-1.36-.69c-5.5,9.77,10.77,2.55,14,1.39l-1.16-.6a30,30,0,0,0,1,7.46c.12.49.77.49,1.15.41a9.67,9.67,0,0,0,5.24-2.92c2.09-2.13,2.84-6.21,5.8-7.3L217,52.47c1.73,4.88,3.05,9.69,2.78,14.92-.21,4.14-4.26,6.57-4.55,10.4-.27,3.59,4.26,5.94,7.55,5.36q-1.15-.86-.78,0a5.59,5.59,0,0,1,.33,3.09,6.36,6.36,0,0,0-.76,3.28c.09,1.93,5,2.58,5.86,3.76,2.39,3.37-3.72,5-5.8,6.21a8.75,8.75,0,0,0-4,4.36c-.36.86.87.87,1.36.69a11.16,11.16,0,0,1,9.57,1.14c1.75,1,3.68,4.87,2.49,6.93s-6.06-4.4-7-5.11a1.25,1.25,0,0,0-1.67.45c-2.68,4.68,2.66,10.94,4.49,15,.71,1.58,1.48,3.77.72,5.48-1,2.14-5.52,7.4-8.3,3.95-1.65-2-1.12-4-4-4.84-.47-.14-1.55,0-1.54.72.05,3.37,1.73,6.31,3,9.33,1.23,2.86,2.45,7.51-2.28,8.3-2.89.49-5.91-1.85-7.48-4a1,1,0,0,0-1.06-.25l-.71.18c-.33.08-.78.36-.8.74-.27,3.89.23,7.14,3.71,9.33,1.8,1.13,3.88,1.78,5.72,2.86,3.23,1.91,4.49,5,5.36,8.46.22.9,2.16.39,1.93-.52Z"/><path class="cls-4" d="M200,165.79c3.73-3.27,6.37-7.46,9.35-11.38.09-.1-1.56-.08-1.89.37-2.94,3.85-5.53,8-9.2,11.2-.37.32,1.41.1,1.74-.19Z"/><path class="cls-4" d="M216.23,182.44c-6.56,1-11.16,6.75-12.36,13.06-.09.49,1.82.16,1.91-.33,1-5.12,4.52-11.12,10.11-12,.79-.12,1.7-1,.34-.75Z"/><path class="cls-4" d="M212.7,196.23c-2.15-.43.57-3.46,1.18-4.15,1.39-1.58,3.52-3.89,5.61-4.49l-1.05-.07a7.08,7.08,0,0,1-.09,5.92c-1.17,2.62-3.13,2.77-5.64,3.39-1.14.28-1,.92.17.65a43,43,0,0,0,4.51-1.12,5.73,5.73,0,0,0,2.18-2.11,7.22,7.22,0,0,0,.8-7.25c-.13-.3-.84-.12-1.05-.06-2.71.78-5,3-6.93,5-.92,1-4.12,4.53-1.27,5.09.47.1,2.15-.66,1.58-.77Z"/><path class="cls-4" d="M212.55,193a2.43,2.43,0,0,0,0,3.88,2.29,2.29,0,0,0,2.34-.11,3.2,3.2,0,0,0,1.21-2.58c.06-.58-.76-.55-1.12-.46l-1.42.34c-.33.08-.92.39-.81.82.05.24.11.48.17.72.18.73,1.42.23,1.75-.05a8.44,8.44,0,0,0,1.59-1.45,4.73,4.73,0,0,0,.74-2.4c.06-.57-.76-.56-1.12-.46s-1.42.42-1.42,1.06c0,.36.47.7.3,1-.46.9,1.49.77,1.82.12a1.19,1.19,0,0,0,.1-1,1.87,1.87,0,0,0-.22-.39c-.16-.25-.58.37-.28.29L215,192a3.74,3.74,0,0,1-.57,2,9.36,9.36,0,0,1-1.39,1.2l1.75,0c-.06-.24-.11-.48-.17-.71l-.82.82,1.42-.35-1.12-.46a3,3,0,0,1-.47,1.64s-.28.08.21-.08a.5.5,0,0,1,.27,0,1.81,1.81,0,0,1-.3-.23,1.59,1.59,0,0,1,.28-2.26.44.44,0,0,0-.21-.79,1.53,1.53,0,0,0-1.37.36Z"/><path class="cls-4" d="M224.27,160.94l3.54-.87-1.07-.15a17,17,0,0,1,.68,5.74c0,.3.33.35.57.34,5.37-.27,10.37,2.52,6.9,8.25-.29.48.44.5.74.45,4.84-.75,5.66,2.63,4.47,5.91a.23.23,0,0,0,.18.29c3.54,1.21,3.65,5.52,0,6.86-1.28.47-.09,1,.73.66,2.77-1,4.89-3.7,3.45-6.68a3.5,3.5,0,0,0-1.45-1.27c-1-.66-.32-1.79-.39-2.64a4.24,4.24,0,0,0-2.69-3.94c-1.22-.61-3,.48-2.42-1.1.78-2,.9-3.37-.27-5.17-1-1.53-3.25-2.06-4.87-2.44-.81-.18-3,.28-2.93-1.09a15.38,15.38,0,0,0-.79-4.69c-.09-.37-.85-.2-1.07-.15l-3.55.87c-1.16.28-.93,1.1.22.82Z"/><path class="cls-4" d="M227.68,153.36c1.82-.44,3.39-1.57,4.51.91.7,1.56.14,3.48-.3,5-.07.22.18.34.36.36,4.12.44,8.37,0,6.34,5.53-.18.49.9.36,1.08.3,7.24-2.31,6,2.44,4.1,5.09-.49.66,1,.43,1.26.35,4.39-1.75,3.25,1.53,2.55,3.34a.25.25,0,0,0,.18.31c4,1.36,1.32,4.18-.73,5.64-.87.61,1.08.56,1.53.25,1.14-.81,2.7-2,3.1-3.42.55-1.94-2.16-3-1.66-4.34,1.63-4.23-3.6-3.32-5.71-2.48l1.26.34c4-5.51-1.18-7.52-6.12-5.95l1.08.3c.9-2.43,1.39-5.29-1.88-5.81-.74-.11-4.84,0-4.45-1.35a6.69,6.69,0,0,0-1.46-6.23c-.2-.25-.76-.13-1-.07l-4.26,1c-1.16.29-.92,1.15.23.87Z"/><path class="cls-4" d="M233.61,146.32c4.49-4.69,4.7,2.46,3.82,4.89-.14.42,1.17.08,1.29,0,4.22-1.51,8.42.38,4.44,4.51-.43.45.82.24,1,.21,1.7-.4,5.37-1.76,6.69.22.87,1.3-1.27,4-1.9,5-.24.37,1.53-.07,1.69-.16,1.54-.83,3.25-1.08,4.79-1.92l-1.7.24c0,1.53.33,2.9.33,4.43,0,.28,1,.05,1,0l2.13-.52-1,0c1.25,3.25,1.05,5.92-2.29,7.86-.82.48,1.13.24,1.47,0,3.39-2,4.16-4.76,2.75-8.42-.11-.28-.86-.07-1,0l-2.13.52,1,0c0-1.53-.32-2.9-.33-4.43,0-.42-1.55.16-1.7.24-1.54.84-3.25,1.09-4.8,1.93l1.69-.16c.66-1,3.68-5.3.94-6.1a6.81,6.81,0,0,0-2.77-.26c-1.22.13-4.43,1.49-3.07.07,4.83-5-5.33-4.63-7.84-3.73l1.28,0c2.42-6.73-3.16-8.9-7.47-4.38-.39.41,1.43.16,1.74-.16Z"/><path class="cls-4" d="M208.55,160.73c1.43-1.18,3-2.16,4.45-3.34l-1.84.32.69,2.84c.09.37,1.12,0,1.3,0,1-.34,1.72-1.07,2.67-1.4,1.3-.46.07-.75-.68-.48-1,.34-1.72,1.06-2.66,1.4l1.3,0-.69-2.84c-.13-.53-1.63.14-1.85.32-1.43,1.18-3,2.17-4.44,3.35-.36.29.31.35.46.34a2.31,2.31,0,0,0,1.29-.47Z"/><path class="cls-4" d="M236.91,139.77l3.62-1.56-1.09-.2A12.43,12.43,0,0,1,241,144.4c0,.55,1.37.13,1.56,0,3.41-2.27,7.79-3.17,6.58,2.4-.13.61,1.1.34,1.34.24,2.34-1,5.5-.26,4.67,2.8-.18.69,1.34.26,1.56.13,7.67-4.45,7.43,3.56,4.09,6.55-.82.74,1.1.67,1.54.27,2.39-2.14,4.08-5.2,1.69-8-2.12-2.49-6.39-.56-8.51.67l1.56.13c1.5-5.53-3.78-4.76-7.35-3.28l1.34.24c1.6-7.36-5.76-5.29-9.69-2.66h1.55a12.27,12.27,0,0,0-1.56-6.38c-.19-.37-.75-.29-1.08-.2a14.5,14.5,0,0,0-4.56,1.94c-1.09.72.6.91,1.18.53Z"/><path class="cls-4" d="M241.2,131.82l3.43-1.46-1.07-.12c.64,6,7.45,2.6,7.93,7.84,0,.49,1.36,0,1.54-.06,2.24-1.17,6.33-2.22,7,1,.06.28.64.2.81.18,3.13-.37,2.55,3.24,2,5-.16.54,1.75.27,1.91-.29.54-1.79.76-3.5-.35-5.09-.35-.5-1.24-.58-1.74-.68-1-.19-.71-1-1.39-1.72-2.51-2.58-6.79-.17-9.36,1.17l1.54-.06c-.17-1.85-.63-3-2.43-3.58-3-1-5.07-.29-5.5-4.26,0-.35-.9-.17-1.07-.12a15.13,15.13,0,0,0-4.74,2c-.85.56,1.1.45,1.52.18Z"/><path class="cls-4" d="M243.13,124.19c1.88-.6,3.62-1.48,5.5-2.09l-1.13-.52a15.64,15.64,0,0,0,.51,5.31c.11.46.79.44,1.13.35,2.19-.57,7.9-2.42,7,2-.17.83,1.27.52,1.6.3,2-1.32,4.95-2,5.49,1.15.11.66,1.26.37,1.59.13,3.16-2.23,1.77-.38,1.59.43s1.77.61,1.95-.18l.36-1.6c.11-.46-.56-.59-.87-.56-1.61.18-2.94.18-4.28,1.13l1.59.13c-.9-5.14-5.4-3.55-8.67-1.41l1.6.3c1.23-6-5.84-3.93-9.28-3l1.13.35a14.3,14.3,0,0,1-.49-5c.05-.58-.75-.65-1.14-.52-1.88.61-3.63,1.49-5.51,2.1-1.15.37-.85,1.59.33,1.2Z"/><path class="cls-4" d="M243.72,116.86a11.64,11.64,0,0,1,4.46-3.87l-1.33-.1,1.38,5.68c.16.64,1.8.11,1.93-.39.81-3.2,3.52-3.56,6.27-4.17l-1.08-.19.69,2.84c.16.65,1.63.07,1.86-.26q1.08-2.24,4.05-1.29a5.93,5.93,0,0,1,.29,2.29c0,.64,1.53,0,1.73-.12,1-.79,2.15-1.51,3.21-2.29l-1.74.13c.17.71.35,1.42.52,2.13s2.09.12,1.93-.52-.34-1.42-.52-2.13-1.46-.08-1.73.12c-1.06.79-2.15,1.5-3.2,2.29l1.73-.12c-.23-6-5.65-3.91-8.06-.49l1.86-.26-.69-2.84c-.1-.39-.84-.24-1.09-.19-3.57.8-6.95,1.36-8,5.33l1.93-.39-1.38-5.68c-.12-.47-1.08-.21-1.34-.1a13.89,13.89,0,0,0-5.51,4.58c-.51.65,1.42.47,1.79,0Z"/><path class="cls-4" d="M244.71,108.2a17.87,17.87,0,0,1,2-2.77c2.09-2.27,2.63,2.49,2.77,3s1.92,0,1.93-.51c.07-3.93,3.31-3.52,3.92-.17.1.54,1.76-.07,1.92-.41,1-2.07,4.23-4.24,5.76-1.66a4.51,4.51,0,0,1,.3,3.79c-.13.49,1.77.2,1.91-.32.6-2.35-.1-3.77-1.38-5.77-.12-.19-.36-.18-.56-.17-3.33.18-6.42,1.26-7.94,4.44l1.92-.41c-1-5.49-7.69-3.7-7.78,1.19l1.93-.51c-.35-1.42-.69-2.84-1-4.26,0-.2-.43-.19-.56-.17-3.4.35-5.29,2.11-7.06,5-.18.3,1.61.19,1.91-.31Z"/><path class="cls-4" d="M243.88,101.71a3.89,3.89,0,0,1,3.92-3.47l-.87-.41c.17.7.34,1.41.52,2.12s1.9.4,1.94-.34c.14-2.74,1.29-4.75,4.28-5.06l-.89-.59c-.11,1.66.54,2.88,1.05,4.43.27.82,1.82.39,1.95-.34.31-1.81,1.24-2.23,2.51-3.21l-1.6-.15.69,2.84c.21.85,2.15.34,1.94-.52s-.47-1.89-.7-2.84c-.16-.65-1.23-.44-1.6-.16-1.63,1.27-2.82,2.07-3.2,4.21l2-.34c-.47-1.41-1.14-2.54-1-4.09,0-.47-.5-.63-.88-.59-3.82.39-6.23,2.69-6.42,6.58l1.94-.34c-.18-.71-.35-1.42-.52-2.13-.09-.37-.57-.44-.87-.42-3.11.19-5.57,1.78-6.06,5-.15.94,1.82.66,1.95-.17Z"/><path class="cls-4" d="M241.3,92.17a7.66,7.66,0,0,1,4.53-3.12l-1.16-.45.87,3.55c.23.93,1.81.44,2-.32a7.5,7.5,0,0,1,1.64-3.54c1.35-1.64,1.74.63,1.91,1.76.15,1,2.08.46,1.94-.52-.3-2-1.31-4.08-3.65-3.22s-3.42,3.48-3.81,5.64l1.95-.32-.87-3.55c-.11-.48-.76-.56-1.15-.45a10,10,0,0,0-5.79,3.91c-.7,1,1.1,1.42,1.64.63Z"/><path class="cls-4" d="M239.19,85.57a8.33,8.33,0,0,1,.83-2.16,2.36,2.36,0,0,1,.2-.31s.21-.21.05-.07l.06,0a.77.77,0,0,1-.46.15.6.6,0,0,1-.4-.07c-.12-.08,0,.06.05.09a2.36,2.36,0,0,1,.22.63c.23.9,2.16.39,1.93-.51a2,2,0,0,0-1-1.48,1.89,1.89,0,0,0-2,.61,7.27,7.27,0,0,0-1.48,3.31c-.11.49.56.66.89.64a1.15,1.15,0,0,0,1.07-.78Z"/><path class="cls-4" d="M239.18,85.38c-.39-1.58-.82-3.11.74-4.15.31-.2.54-.65.13-.89a1.36,1.36,0,0,0-1.37.15,3.9,3.9,0,0,0-1.77,2.22,6.56,6.56,0,0,0,.33,3.19c.2.8,2.13.29,1.94-.52Z"/><path class="cls-4" d="M218.19,98a1.74,1.74,0,0,1,.4-1.72c.47-.44,1.47-.08,2,.09.68.23,2.27-.77,1.16-1.14-2.37-.81-6.13.1-5.46,3.28.16.75,2.1.26,1.93-.51Z"/><path class="cls-4" d="M222.64,94.68c0-.23-.11-.47-.17-.71-.13-.51-2.06,0-1.93.52.06.24.11.47.17.71.13.51,2.06,0,1.93-.52Z"/><path class="cls-4" d="M214,93a6.36,6.36,0,0,1,1-4.49l-1.86.23c.29.73.93,1.22,1.22,2s2.08.21,1.94-.52c-.32-1.6.15-3.16,1.85-3.65,1.15-.33.89-1.36-.27-1-2.47.71-4,2.54-3.52,5.19l1.94-.52c-.3-.74-.94-1.23-1.23-2s-1.6-.24-1.87.23A7.09,7.09,0,0,0,212,93.56c.13.7,2.07.22,1.93-.52Z"/><path class="cls-4" d="M208.86,87.52c-.24-1.21-.18-3,1.51-2.92.34,0,1.48-.23,1.34-.79L211,81l-.84.72a14.19,14.19,0,0,0,3.13-1.59c1.11-.69-.59-.91-1.18-.54a10.74,10.74,0,0,1-2.2,1.21c-.26.09-.94.32-.84.72l.69,2.84,1.35-.79c-2.76-.07-4.77,1.65-4.2,4.5.12.63,2.06.16,1.93-.52Z"/><path class="cls-4" d="M205.17,81.65c-.45-2.57,1.86-4.7,4.3-4.82a1.09,1.09,0,0,0,1.06-.8c.13-.66.19-1.33.27-2,0-.32.09-.63.15-.94l-1.08.11a5,5,0,0,1,.41.67c.45.8,2.28,0,1.76-.88s-1.82-2-2.66-.72c-.72,1.1-.56,2.62-.81,3.87l1.06-.81c-3.49.17-7,3.08-6.39,6.83.16.94,2.1.45,1.93-.52Z"/><path class="cls-4" d="M198.26,81.2a31,31,0,0,1,2-7.25l-1.74.57a4.33,4.33,0,0,0,3-.07c.92-.36,1.36-1.47,2.24-1.78,1.29-.45.1-1-.73-.67s-1.95,1.94-2.94,1.65c-.49-.15-1.53,0-1.74.57a31.65,31.65,0,0,0-2,7.26c-.07.69,1.86.3,1.93-.28Z"/><path class="cls-4" d="M193.34,73.26a10.09,10.09,0,0,1-.34-4.33l-1.57.59a4.23,4.23,0,0,0,2.35-.35,5.73,5.73,0,0,0,1.14-.68c.26-.2.55-.59.85-.7.13-.05.86-.38.56-.63s-.94,0-1.26.07c-.75.28-1.67,1.52-2.41,1.41-.36,0-1.48.13-1.57.6a10.37,10.37,0,0,0,.32,4.53c.12.52,2.06,0,1.93-.51Z"/><path class="cls-4" d="M197.46,65.48c0-.1-.05-.21-.08-.31-.15-.63-2.09-.13-1.93.51,0,.11.05.21.08.32.15.63,2.09.12,1.93-.52,0-.1-.05-.21-.08-.31l-1.93.51c0,.11.05.21.08.32.15.63,2.09.12,1.93-.52Z"/><path class="cls-4" d="M186.27,69a4.63,4.63,0,0,1-.38-3.16c.39-1.24,2.1-.53,2.92-.2a1.59,1.59,0,0,0,1.74-.58c.55-1.23.15-2.59-.16-3.84-.14-.59-2.08-.09-1.93.52.28,1.17.69,2.44.16,3.6l1.74-.57a6.07,6.07,0,0,0-5.2,0c-1.84,1-1.44,3.16-.82,4.73.24.61,2.15,0,1.93-.51Z"/><path class="cls-4" d="M178.31,67.15a18.84,18.84,0,0,1-.67-5.69c-.27.23-.54.46-.82.68a7.08,7.08,0,0,0,4.5-3.68c.53-.87-1.44-.79-1.83-.15a4.82,4.82,0,0,1-3,2.66c-.29.08-.79.31-.82.68a19.77,19.77,0,0,0,.69,6c.19.8,2.13.29,1.93-.52Z"/><path class="cls-4" d="M172.09,60.31c-2.23-1.1.1-2.26,1.27-3.13,1.42-1,2.92-2.48,2.19-4.4-.18-.48-2.08.12-1.93.52.86,2.27-1.5,3.61-3.05,4.75-1.3,1-2.13,2-.3,2.92.51.26,2.06-.54,1.82-.66Z"/><path class="cls-4" d="M169.15,54.44c.86-2.34,1.79-4.74,4.08-6,1.13-.63-.64-.63-1.14-.35-2.67,1.5-3.84,3.9-4.85,6.68-.17.46,1.72.23,1.91-.31Z"/><path class="cls-4" d="M250.24,190.27c6.07-1.37,12.26-1.17,16.43-6.51.77-1-1.05-1.38-1.63-.64-3.78,4.83-9.72,4.49-15.18,5.73-1.22.27-.83,1.69.38,1.42Z"/><path class="cls-4" d="M251.66,188c7-1.13,11.57-5.86,16.7-10.28.43-.37-1.4-.17-1.75.13-4.43,3.81-8.56,8.43-14.6,9.41-.79.12-1.71,1-.35.74Z"/><path class="cls-4" d="M229.56,207.25c3.8-1.09,8.64-1.62,8.37,3.81a6.45,6.45,0,0,0,.82,4c2.06,3.45,6.76,3.11,10,2.32,4-1,11.18-6.64,14.61-3.07,2.45,2.55,6.62,2.47,9.72,1.84l-.58-1.13c-5.76,3.1-10.94-1-16.65.93-4.73,1.6-11.85,8.62-16,2.9-2.09-2.89-2-6-5.08-8.31-2.85-2.18-8.17.52-10.92,1.29-1.18.33-.86,1.55.33,1.22,3.63-1,8.53-3.25,11.36,1,1,1.5,1.29,3.36,2.15,4.93,1.59,2.9,4.16,3.32,7.26,3.27,5.61-.07,9-5.55,15-5.26,5.15.24,8.51,1.67,13.34-.92,1-.55.38-1.32-.57-1.13-3.35.68-6.84-.13-8.72-3a3.1,3.1,0,0,0-2.52-1c-4.46.36-8.79,3.88-13.1,5.24-5.4,1.7-8.78-1.24-8.52-6.32a5.26,5.26,0,0,0-1.31-4c-2.28-2.67-6.84-.57-9.38.16-1.18.33-.86,1.55.32,1.22Z"/><path class="cls-4" d="M181.43,201.22c-4.85,1.48-17.14,11.71-18,2,0-.35-.62-.36-.85-.34-8,.62-15.72,3-20.82-5.06-.35-.56-2.18.05-1.85.66,2.06,3.87,5.63,5.59,9.79,6.55a39.91,39.91,0,0,1,5.91,1.58c2.32.92,1.7,3.88,2.73,5.58,1.15,1.89,2.22,2.72,4.95,2.66,4.64-.09,9.19-2.37,13.19-4.46,1.18-.61.1-1.39-.8-.92-4.34,2.26-10.09,5.47-15,3.34-1.17-.5-.27-4.36-1.36-5.28-5.22-4.42-13.87-2.83-17.46-9.57l-1.86.65c2.92,4.63,6.64,6.53,12,6.51a63.36,63.36,0,0,0,7.77-.81c2.38-.29,1.87,2.06,3.24,3.54,4.32,4.65,14.71-4.26,18.74-5.49,1.16-.35.87-1.46-.29-1.1Z"/><path class="cls-4" d="M158,183c-8.86-3.69-14.87-15-15.69-24.15-.89-9.94,7.28-22.22,16.79-25.43,6.39-2.15,20.72.26,24.18-7.26,2-4.41-5.18-7.92-8.34-8.21-7.21-.67-14.43,1.86-20.59,5.43-13.92,8.08-23.18,29.52-15.2,44.3.36.66,2.22,0,1.93-.52-8.54-15.81,2.43-37.4,17.53-44.85,6.28-3.1,19.57-6.9,22.77,2.22,1.79,5.12-9.73,6-12.6,6.43-3.35.47-7.4.35-10.56,1.71-6.26,2.71-11.85,8.38-15.13,14.27-6.84,12.29.43,31.61,13.37,37,.58.24,2.34-.6,1.54-.93Z"/><path class="cls-4" d="M132,217.39c-3,1.69-8-1.24-10.7-2.59a77.82,77.82,0,0,1-10.39-6.54c-4.72-3.39-9.65-7.2-12.86-12.12a13.41,13.41,0,0,1-2-5.29c-.79-5.26,6.54-.3,7.9,1.1,2.91,3,5,6.71,7.45,10.06,4.55,6.25,8.39,14.52,16.17,17.2.59.2,2.34-.66,1.54-.93-6.23-2.15-9.72-8-13.18-13.19a126.27,126.27,0,0,0-10.18-13.89c-4.71-5.33-14.52-5.36-10.53,3.76,3.17,7.24,11.52,12.55,17.8,16.76,4.91,3.29,14,9.72,20.2,6.24,1.14-.64-.57-.92-1.2-.57Z"/><path class="cls-4" d="M126.05,188.46c-6.8-3.7-12.33-10.14-12.78-18.11l-1.58.68c9.81.6,6,15.68,14.58,16.51a6.57,6.57,0,0,0,5.06-1.6c.51-.44,5.79-5.64,5.79-2.54v11c0,.36,2,.07,2-.52V181.05c0-.19-.56-.16-.64-.16a10.31,10.31,0,0,0-5.54,2.07,29.06,29.06,0,0,0-2.77,2.55c-3.3,3.16-6-1-7.09-3.21-2.58-5.27-3-11.67-10.14-12.1-.35,0-1.62.14-1.59.67.44,8,6.05,14.54,12.89,18.26.5.28,2.1-.52,1.81-.67Z"/><path class="cls-4" d="M293.77,220.39c8.86,0,26.59-1.63,28.28,10.38l1.08-.83c-5.11.42-9.84-1-14.5-3a46.55,46.55,0,0,1-4.32-2.25,64.9,64.9,0,0,1-5.2-4.32c.76,0,2-1.21.74-1.16-1.65.07-2.8.16-3.48,1.76a.32.32,0,0,0,.08.28c7.39,5.94,16.73,10.61,26.44,9.81.39,0,1.16-.32,1.09-.83-1.76-12.55-20.35-11.05-29.48-11-.76,0-2,1.16-.73,1.16Z"/><path class="cls-4" d="M284.18,198.92c-1.92-1.39,5.4-4.94,6.28-5.35,3.74-1.7,8.71-3.39,12.83-2.32a3.73,3.73,0,0,1,2.8,3.69c.25,3.83-3.73,4.09-6.57,4.14-4.67.08-9.22-1.25-13.87-1.4-1.13,0-1.45,1.44-.15,1.48,6,.19,14.7,3.7,20.26.09,4.07-2.64,2.43-8.37-1.91-9.49-5.25-1.36-11.63,1.22-16.24,3.56-1.58.8-8.13,4.41-4.91,6.74.73.53,2.4-.48,1.48-1.14Z"/><path class="cls-4" d="M126.11,144.68c-.31-3.62,2.74-7.43,4.62-10.27,2.39-3.63,5-7.13,6.9-11.07,2.05-4.31,0-7.44-4.67-5.54-3.33,1.35-6.39,3.29-9.69,4.71-3.59,1.56-8.67.18-5.86-4.07,3.56-5.38,9.6-9.52,14.27-13.87,3.92-3.65,9-8,10.48-13.46,1.23-4.65-4.42-6.75-8-7-5.6-.39-10.44,4.44-14,8.14-2.91,3-10.5,14.71-15.36,10.24-4.6-4.24-2-14.39-8.77-15.69-3.48-.67-6.25.2-9.31,1.78-8.86,4.59-8.3-6.42-6.59-11.91,2-6.44,7.86-19-2.16-22-7-2.15-14.82,4.92-18.11,10.25-5.45,8.83-6.11,20.47-7,30.53-1.08,12.42-2.12,24.5-1.1,37,2.11,25.73,11.42,53.82,27.9,74,21.14,25.93,56.54,30.81,87.9,32.17.82,0,2-1.17.71-1.23-28.8-1.25-60-5.25-81.68-26.14-9.41-9.05-15.78-20.72-20.84-32.61A157.23,157.23,0,0,1,54.3,137.45c-1.83-13.81-.74-27.17.4-40.93.91-10.94,1.68-22.94,7.58-32.51,3-4.88,12.4-12,17.53-6.28,4.16,4.68,1,11.7-.78,16.66-1.57,4.4-3.08,8.88-1.37,13.44.89,2.35,2.89,4.38,5.58,3.61,4.48-1.29,7.4-4.29,12.45-3.32,3.54.68,3.57,8.3,4.7,11,1.77,4.21,5,7.2,9.52,5,5.29-2.51,9-8.6,13-12.68,2.55-2.62,5.62-5.4,9.35-6,2.88-.5,7.36,1,8,4.22,1.14,5.37-7.57,12-10.87,15.12-4.57,4.26-9.72,8.18-13.56,13.15-2.68,3.47-.55,6.88,3.76,6.78,3-.07,6.09-1.93,8.66-3.27s9.67-5.55,8,.57c-1.31,4.76-5.31,9.14-8,13.19-1.87,2.85-4.45,6.43-4.14,10,.06.75,2,.31,1.93-.52Z"/><path class="cls-4" d="M119.69,157.52c-3.72-5.69,3.75-10.44,4.28-16.05,0-.18-.48-.16-.56-.16-4.9.1-19,5.28-21.35-.57-2.86-7,12-19.44,2.82-24.06-5.9-3-9.31,6.36-12.57,9-4,3.23-8,6.59-13.69,5-5.35-1.5-3.36-8-1.72-11.53.24-.51-1.63,0-1.84.22-2,1.67-4.34,2.11-6.69,2.82l1,.07c-.44-3.71-4.27-18.84-10.3-11.25-3.73,4.7-2.86,13.08-2.86,18.62,0,8.19-1,16.2-.27,24.4,2.77,29.57,22.75,55.36,49,68.3.53.26,2.1-.54,1.82-.68A88.76,88.76,0,0,1,60.64,167.5c-3.67-12.37-2.57-24.12-2.45-36.76.06-6.46-1.11-15.1,3.2-20.52,2.27-2.86,6,11.65,6.1,12.52,0,.32.91.12,1.06.08,3.09-.94,5.78-1.5,8.27-3.6l-1.83.21c-1.71,3.66-3.32,8.63.68,11.37,2.66,1.82,6.64,1.11,9.5.31,3.9-1.09,7-3.55,9.78-6.41,1.73-1.78,2.87-4.1,4.52-6,2.3-2.6,5.51-1.06,6.38,1.84.55,1.86-.46,4-1.17,5.73-2.72,6.48-9.7,18.31,2.48,17.83,4.91-.19,9.67-1.69,14.58-2,1,0-3.7,8.21-4,8.75-1.39,2.45-1.53,4.74,0,7.12.33.5,2.12-.24,1.93-.52Z"/></svg>