<svg id="layer1" xmlns="http://www.w3.org/2000/svg" viewBox="0 0 268.52 328.76"><defs><style>.cls-1{fill:#ff7503;}.cls-2{fill:#60a4f4;}.cls-3{fill:#492d0c;}</style></defs><path class="cls-1" d="M51.83,118.32c0,.2,0,.39,0,.59a2.2,2.2,0,0,0-1,1.82c0,1,0,1.94.07,2.91-3,8.37-1.61,17.41-1.52,26.1,0,2.85,4,2.29,4.7.08a37.42,37.42,0,0,0,1.12-4.53,2.22,2.22,0,0,0,.56-.72,22.37,22.37,0,0,0,2-7.27,24.6,24.6,0,0,0,1.95-6.19c.85-5.6-1.54-8.74-3.13-13.85C55.78,114.72,51.84,115.93,51.83,118.32Z"/><path class="cls-1" d="M153.75,257c.75,1.69,2.48,2.76,5.33,2.23a4.44,4.44,0,0,0,2.49-1.53,7.34,7.34,0,0,0,3.81-4.3,2,2,0,0,0,1.5-1.55,12.68,12.68,0,0,0,.07-1.94,11.26,11.26,0,0,0,1.45-5.34c-.16-2-2.78-2.79-4.57-3.59a12.29,12.29,0,0,0-1.31-.66,2.37,2.37,0,0,0-1.26-.05,12.33,12.33,0,0,0-4.13-1.53l-.27,0q-4.26-1.89-8.36-4.11c-4.8-2.58-3.48-4.85-.45-8.49.41-.49.84-1,1.26-1.45,3-2.09,5.7-3.86,6.51-4.5a2.2,2.2,0,0,0,.68-.84c2.38-1.25,4.69-2.64,7.06-4a1.46,1.46,0,0,0,.75-1.81,5.58,5.58,0,0,0,1.18-.32c2.19-.89,2.1-3.08,1.42-5.29,0-2.19-.39-4.22-2.49-5.55a1.93,1.93,0,0,0-.69-.23,2.09,2.09,0,0,0-.73-.49c-3.9-1.46-7.93.69-8.59,4.15a18.41,18.41,0,0,0-6.62,4.84c-2,0-4,0-6,0a15.41,15.41,0,0,0-2.89-1c-2.71-.6-5.65.53-8.12,1.9a8.73,8.73,0,0,0-1.89.74l0,0a2.18,2.18,0,0,0-1.38.86c-2.86,2.05-2.26,3.84-.6,5.76a10.47,10.47,0,0,0,1.78,3,.75.75,0,0,0,.05.16,100.69,100.69,0,0,0,5,9.55,8.45,8.45,0,0,0,.59,1.16l0,0a9.86,9.86,0,0,0-1.73,3.58,9.55,9.55,0,0,0-3.09,6.27,1.22,1.22,0,0,0-.3.72,9.25,9.25,0,0,0,.07,1.55c-.05.94-.07,1.88-.07,2.8a1.41,1.41,0,0,0,1.22,1.43c-.55,7.13,8.08,14.22,14.82,12.9,2.62-.51,3.94-1.61,4.37-3a2.46,2.46,0,0,0,.76-1.36,4.89,4.89,0,0,0,1.62-.18,7.46,7.46,0,0,0,.8-.28C153.06,257.17,153.41,257.09,153.75,257Z"/><path class="cls-1" d="M211.09,202.22c0-.71,0-1.41-.06-2.12a.76.76,0,0,0,.07-.41c-.07-.34-.15-.7-.22-1.05-.11-.79-.27-1.56-.45-2.34,0,0,0,0,0,0-.11-.91-.26-1.81-.45-2.69a1.9,1.9,0,0,0,.64-1.15c.36-6.39-3.27-8.83-7.68-8.83a12,12,0,0,0-1.69-.59,11.25,11.25,0,0,0-3.21-.34c-4.89-.78-9.7,1.2-6.59,7.48a3.63,3.63,0,0,0,1.73,1.52,10.65,10.65,0,0,0,.57,1,30.9,30.9,0,0,0,1.63,7.07c.16.5.37,1.29.64,2.21a1.68,1.68,0,0,0-.87,1.39c-.31,4.12,2.93,14.21,8.87,12.48a4.73,4.73,0,0,0,2.56-1.63,4,4,0,0,0,1.73-1.85C211,210.16,211.34,206.06,211.09,202.22Z"/><path class="cls-1" d="M79.64,269.64c.29-.34.57-.7.84-1.07A13.34,13.34,0,0,1,84.73,267c1.51,1.13,3.18,1.59,4.84.65,1.77.62,3.66,1.39,5.23.9a2.6,2.6,0,0,0,1.9,0,3.44,3.44,0,0,0,3.16-1.4,3.22,3.22,0,0,0,.83-2.13,3.67,3.67,0,0,0,.74.2l0-.12c.35-3.28-2-5.91-4.77-7.12a4.88,4.88,0,0,0-.61-.4c-.1-.07-.14,0-.13.08s0,0,0,0c-.22-.07-.43-.14-.65-.19a2.63,2.63,0,0,0-1.43-.47,16,16,0,0,0-4.45-3.9,15.78,15.78,0,0,1-.78-1.77c0-.55-.06-1.1-.11-1.64.9-4.81,2.2-9.72-.09-14.22a10.3,10.3,0,0,0-7.47-5.8c-2.12-1.28-6-2.8-7-.71-.61,0-1-.07-1.28.25a.67.67,0,0,0-.4-.22c-1.46,0-1.51,5.6-1.33,10.42a20.53,20.53,0,0,0-1.33,8,51.93,51.93,0,0,0-.11,7.82c0,1.38.13,2.78.27,4.18,0,.6-.08,1.09-.1,1.27-.49,4.37.12,8.78,2.65,12.43,1.69,2.42,2.67,1.24,3.28-.91C77.34,273.87,78.65,271.88,79.64,269.64Zm-7.33.31c0-.34-.06-.69-.08-1a5.44,5.44,0,0,0,.32.48l-.06.17A2.22,2.22,0,0,1,72.31,270Zm.15-4.74c0-.33-.07-.66-.1-1s.06-.58.08-.87c.07.15.16.3.24.45a6.37,6.37,0,0,0-.12,1.07C72.53,265,72.5,265.09,72.46,265.21Zm7.36-15.74.22.45-.06.38C79.93,250,79.87,249.75,79.82,249.47Zm-1.23,12,.15-.69a2.59,2.59,0,0,0,.14.29c-.06.28-.12.56-.2.83Zm7.2-23c0-.23-.09-.45-.14-.67.28-.49.59-.77,1.46.1l0,0a27.9,27.9,0,0,1-.49,4.17A32,32,0,0,0,85.79,238.51ZM87,235.14a12.94,12.94,0,0,1,.11,1.65c0,.16,0,.31,0,.47a18.06,18.06,0,0,0-1.41-2.73A9.16,9.16,0,0,1,87,235.14Z"/><path class="cls-1" d="M189.88,284.18c-5.06-2.38-10.62-5.91-16.5-4.92l-.35.06a4.21,4.21,0,0,0-4.53.81,19.35,19.35,0,0,0-6.18,2.29c-2.94,1.82-4.58,5-7.79,6.51-1.11.53,1.11,4.43,2.16,4.41h.2a1.36,1.36,0,0,0,.12.12c3.21,3.13,8.36,3.87,13,4.37a27,27,0,0,0,3.16.36.34.34,0,0,0,.33-.19,23.63,23.63,0,0,0,5.95.19c.76-.09.58-1,.13-1.93a6.84,6.84,0,0,0,2.54-.64c3.46-1.07,6-3.11,5.09-6.35l.22-.22,1.69.44c.76.2.39-1-.09-2.11l2.2,1C192.72,289.11,191,284.7,189.88,284.18Zm-27.13,7.06c.09.12.17.24.27.36l-.46-.11C162.62,291.4,162.69,291.32,162.75,291.24Z"/><path class="cls-1" d="M111.87,291.35a.81.81,0,0,0-.13-.59,11.83,11.83,0,0,0-6.88-5.07c.28-.38.23-.84-.54-1.31a11.53,11.53,0,0,0-4.93-1.29c-2.29-1.07-6-.8-7.76-.34-3.63.95-13.77,3.71-13.87,8.93-.85.31-1.35.83-.56,1.56a20.84,20.84,0,0,0,13.14,5.88c4.08.19,7.67-1.21,11.29-2.46a11.72,11.72,0,0,0,6-1.51.45.45,0,0,0,.11-.13c.53-.08,1.06-.14,1.61-.18.8,0,2.93-.36,2.4-1.67l-.18-.37C112.29,292.44,112.61,291.92,111.87,291.35Zm-29.27.15a3.39,3.39,0,0,0,.11.43,2.56,2.56,0,0,0,0,.47l-.1,0A1.54,1.54,0,0,1,82.6,291.5Zm20.54.42.12-.06q.72.17,1.44.36l-.61-.06A7.77,7.77,0,0,0,103.14,291.92Z"/><path class="cls-1" d="M137.68,63.86c2.65.23,1-1.81-.37-2.42-3.65-1.58-5.63-5.62-10.15-5.12l-.28,0a7.22,7.22,0,0,0-1.48-.12,3.85,3.85,0,0,0-2.23,1.32c-.27.1-.53.21-.8.34-2.18.55-3.7,2.15-5.2,4.12a.65.65,0,0,0-.14.35c-.21.13-.42.26-.63.37-.94.52.24,1.34,1.56,1.9.1,0,.2.14.3.14h0a1.1,1.1,0,0,1,.33.12,5.73,5.73,0,0,0,1.57.38,1.74,1.74,0,0,0,.61,0A45.85,45.85,0,0,1,137.68,63.86Z"/><path class="cls-1" d="M186.1,84.89c1.75,4.12,4.77,7.63,7.88,10.84a.65.65,0,0,0,.45.46l.67.69c.94.94,3.14.19,4.12-.73.7-.33,1.15-.84,1-1.49,2.06-4.08,1.94-9.18,1.44-13.59,0-.39-.67-.58-1-.61l-.67,0c-.34-.53-1.47-.48-2-.4a25.36,25.36,0,0,0-2.81.57c-1.19.14-2.38.34-3.57.56-.85-.72-3.24-.06-4.11.94l-.27.15-.37.17c-1.25.45-2.28,1.18-1.45,1.91Z"/><path class="cls-1" d="M137.14,172a9.57,9.57,0,0,0-1.08-1.43,8.89,8.89,0,0,0-8.36-2.82,6.73,6.73,0,0,0-2.11-.55,1.71,1.71,0,0,0-.77.14c-.55-.07-1.1-.12-1.63-.14a1.25,1.25,0,0,0-1.32.74,7.44,7.44,0,0,0-.3,1.75c-3.76,2.1-4.73,6.44-2.3,10.28a9.17,9.17,0,0,0,.88,1.17c1.36,2.72,3.78,4.45,7,3.92a4.4,4.4,0,0,0,3.08.32l.36-.12c.25,0,.5.08.76.1a1.48,1.48,0,0,0,1.12-.4c3-.19,6.05-1.38,7.45-4.15C141.43,177.73,139.48,174.29,137.14,172Zm-.37,4.82a8.53,8.53,0,0,1,0,1,7.94,7.94,0,0,0-.85-3.68,8.56,8.56,0,0,0-.31-1.13,0,0,0,0,0,0,0A8,8,0,0,1,136.77,176.78Zm-9-5.27-.08.09v-.13ZM124,168.76l-.12,0-.34,0c0-.07,0-.14,0-.21l.44,0ZM137,182.06a6.9,6.9,0,0,0,1.47-2.87A4.3,4.3,0,0,1,137,182.06Z"/><path class="cls-2" d="M186.19,220.4a25.75,25.75,0,0,0-2.36-6.29,2.44,2.44,0,0,0-1.72-1,2.89,2.89,0,0,0-2.24-1c-9.49-.38-19.27,6-25.71,13.19-1.09,1-2.14,2.07-3.17,3-1.16.15-2.21.62-1.65,1.55a.93.93,0,0,0,.11,1c-.35.4-.29.87.54,1.27,0,.24.26.49.71.73l.05,0c0,.24.24.51.75.77,4.74,2.49,9.1,5.58,14.13,7.47a5.55,5.55,0,0,0,2,.1c4.77,1.44,9.43,1,14.38.95a2.1,2.1,0,0,0,1.48-.47,8.71,8.71,0,0,0,3.09-1.54,4.44,4.44,0,0,0,1-1,7.58,7.58,0,0,0,2.79-4.61c.95-4.47-1-7.71-3.26-10.87C186.8,222.57,186.51,221.48,186.19,220.4Zm-17.53,9.85a7.55,7.55,0,0,0-.76-.23c.35-.23.7-.46,1-.71,0,.19,0,.39,0,.58ZM161.22,233v0h0Zm9,4.85a3.58,3.58,0,0,0,1.3.35l.12.24a2.27,2.27,0,0,0-.52.42c-.86-.1-1.63-.18-2.27-.21A8.4,8.4,0,0,0,170.23,237.84Zm12.63-.21.1-.37.18-.07c0,.11-.07.22-.12.33S182.92,237.6,182.86,237.63Z"/><path class="cls-2" d="M233.58,198.6l-.93,0a2.74,2.74,0,0,0-.69,0,10,10,0,0,0-6.56,3.26l-.35.27a9,9,0,0,0-3.12,2.76,2.3,2.3,0,0,0-2.62-.5,2,2,0,0,0-.9.71,1.82,1.82,0,0,0-.39,1.41v0a13.5,13.5,0,0,0,0,8.23,35.14,35.14,0,0,0,.41,3.52,1.63,1.63,0,0,0,.85,1.29A20.76,20.76,0,0,0,221,230.84a2,2,0,0,0,1.9.94h.8a3,3,0,0,0,2.48-1.8,11.75,11.75,0,0,0,.61-1.44l.11,0a8.47,8.47,0,0,0,1.28.63c1.32.52,3.57-.34,3.73-1.94a2.14,2.14,0,0,0,1.14-1.79v-1.61a1.8,1.8,0,0,0-1.82-1.88v0c0-.08-.06-.15-.09-.15h0c-.06,0-.12-.41-.19-.58a1.59,1.59,0,0,0-.87-.89,7.67,7.67,0,0,0-1.88-2,2.32,2.32,0,0,0-.37-.21,14.89,14.89,0,0,0-.78-3.22,1.7,1.7,0,0,0-.18-.3,17.13,17.13,0,0,0-.49-3.25,1.59,1.59,0,0,0-.17-.68c2.85-2.44,4.41-6,7.55-8.23C235,201.56,236,198.8,233.58,198.6Z"/><path class="cls-3" d="M98.5,74.74C80.68,91.65,75.22,119,88,140.52c11,18.44,33.75,25.15,54,24.9,19-.23,40.13-6.19,53.16-20.69,16.09-17.9,9.9-42.94-5.48-58.85C167.25,62.65,121.83,52.84,96,76c-.46.41,1.39.23,1.76-.1,21.17-19,55.27-13.26,77.59.64,20.88,13,35.57,38.78,22.34,62.36-12.11,21.61-42.82,27.56-65.43,25.22C107,161.46,85.9,145,83.06,118.83c-1.79-16.53,5.32-32.92,17.2-44.2.46-.43-1.4-.23-1.76.11Z"/><path class="cls-3" d="M107.37,68.07c-1.51-2.68,2.64-6.68,4.22-8.44a57.28,57.28,0,0,1,11-9.35c12.12-8.09,23.07,8.34,29.89,16.4.35.42,2.19-.25,1.81-.69-6.39-7.56-17.29-23.67-29.32-18-5.17,2.42-9.67,6.28-13.7,10.28-1.86,1.85-7.6,7.16-5.79,10.36.31.55,2.14-.14,1.93-.52Z"/><path class="cls-3" d="M175.14,76.69c10.34-1.58,29-12.06,33.42,3.36,2.76,9.68-2.18,21.29-5.24,30.39-.13.4,1.74.17,1.91-.33,3.3-9.84,9.35-24,3.88-34-6.39-11.74-24.76-1.51-33.62-.16-.78.12-1.71.94-.35.73Z"/><path class="cls-3" d="M185.44,82.84c2.09-.45,4.16-1,6.24-1.48a29.3,29.3,0,0,1,3.49-.62c2.85-.39,4.38,0,4.41,3,0,4.57-1.47,9.18-2.27,13.64-.14.81,1.82.49,1.94-.22,1-5.64,2.9-11.35,2-17.12,0-.16-.25-.28-.38-.3-5.44-.82-10.45.9-15.71,2-1.19.26-.89,1.3.28,1Z"/><path class="cls-3" d="M117.35,64.19c1.09-3.2,6.49-6.35,9.14-8.29,1.9-1.4,10.82,6.82,13.09,7.86.49.23,2.27-.52,1.56-.85C137.24,61.11,131,53.09,126,55c-2.21.87-4.32,3.19-6.09,4.71-1.43,1.23-3.87,2.89-4.5,4.74-.18.54,1.73.29,1.92-.29Z"/><path class="cls-3" d="M122.42,115.53c3.23,8.82,15.11,4.51,20.68.78.29-.2.27-.45-.12-.45-4.16,0-5.21,5.2-2.13,7.7,3.66,3,10.68,2.39,14.83.93,1.3-.45.07-.73-.68-.47-5.56,2-17.57.2-12.69-7.92l-1.57.58c.75-.07.67,0-.25.3a17.15,17.15,0,0,1-9.44,2.87,6.87,6.87,0,0,1-6.7-4.84c-.18-.48-2.08.11-1.93.52Z"/><path class="cls-3" d="M141.33,116.17a7.54,7.54,0,0,1,.75-3.84l-2.06,0v3c1-.12,1.47-.24,2.12-.36a10.15,10.15,0,0,1-.9-4.78c0-.34-.2-.45-.52-.45h-1c-.47,0-1.64.26-1.25,1,1.4,2.49,4.68,3.85,7.12,5.07.64.32,2.39-.59,1.52-1-2.36-1.18-5.51-2.55-6.86-5-.41.34-.83,1-1.25,1h1c-.2,0-.41-.29-.61-.45a11.13,11.13,0,0,0,.85,5.17c.3.63,1.78.39,1.78-.33v-3c0-.87-1.45-.49-1.73,0a8.31,8.31,0,0,0-1,4.15c0,.9,2,.52,2-.2Z"/><path class="cls-3" d="M122.78,85.84c-.44-.07-.59-.34-.43-.79l-1.93.52c3.53,6.59,10.21,11,17.79,10.17.86-.09,1.66-1,.31-.89-6.9.71-13-4-16.17-9.8-.28-.53-1.95-.08-1.93.52,0,1.18.5,1.18,1.57,1.2.61,0,2.09-.89.79-.93Z"/><path class="cls-3" d="M160.55,106.71c3.34,1.85,5.88,4.82,9.3,6.61,3.77,2,7.93,1.67,11.82.28,1.28-.46.09-.95-.73-.65-8.48,3-12.41-3.54-18.83-7.1-.48-.27-2.28.46-1.56.86Z"/><path class="cls-3" d="M133.33,81.06c-.57-1.51,1-3.3,1.8-4.43,1-1.42,2.16-2.77,3.15-4.22.58-.84-1.39-.81-1.83-.17-1.24,1.8-2.67,3.46-3.9,5.27-.76,1.12-1.68,2.67-1.15,4.06.32.83,2.24.28,1.93-.51Z"/><path class="cls-3" d="M137.33,82.19c1.1-4,4-6.73,7.62-8.59,1.15-.6-.58-.86-1.19-.54-3.91,2-7.17,5-8.36,9.38-.18.67,1.76.38,1.93-.25Z"/><path class="cls-3" d="M177.29,102.2c.12-1.29,1.93-2.14,2.91-2.73,1.56-1,3.2-1.77,4.73-2.77,1.1-.72-.51-1.3-1.26-.81-1.78,1.16-3.69,2.1-5.48,3.23-1.16.72-2.71,1.76-2.85,3.25-.09.95,1.87.65,1.95-.17Z"/><path class="cls-3" d="M179.91,104.73a10.88,10.88,0,0,0,7.27-3.48c.34-.32-.28-.42-.48-.41a2,2,0,0,0-1.28.49c-1.31,1.27-2.81,2.46-4.71,2.51-.59,0-2.1.93-.8.89Z"/><path class="cls-3" d="M112.28,100.87a14.49,14.49,0,0,0-11.53-6.24c-.89,0-2,1.3-.68,1.34a13,13,0,0,1,10.44,5.74c.48.68,2.33,0,1.77-.84Z"/><path class="cls-3" d="M107.37,105A12.85,12.85,0,0,0,97,99.87c-.45,0-2.23.82-1.24.84a12.1,12.1,0,0,1,9.64,4.83c.36.51,2.12-.25,1.93-.52Z"/><path class="cls-3" d="M165.55,133.68c5.09,2.17,9.18,6,13.86,8.91.52.33,2.22-.46,1.8-.71-4.76-2.94-8.91-6.85-14.1-9.06-.51-.21-2.28.55-1.56.86Z"/><path class="cls-3" d="M160.44,137.63c3.38,4.25,8.54,6.39,13.11,9.08.57.34,2.35-.48,1.53-1-4.48-2.65-9.54-4.73-12.85-8.89-.44-.55-2.3.13-1.79.77Z"/><path class="cls-3" d="M96.39,68.29c-1.28-2.84-1.3-5.59-1.68-8.62-.27-2.16-2.49-3.57-4.17-4.64-3.32-2.12-7.63-2.05-11.37-1.52C70.51,54.72,63.93,60.91,60,68.43c-4.65,9-5.71,20.74-6.52,30.71-1.25,15.33-7.38,30.84-5.66,46.31,1.63,14.7,9.34,27.46,14.28,41.11a123.85,123.85,0,0,1,7.32,43c-.35,18-4.06,37.14,1.36,54.65,1.84,5.94,5.47,11.1,11.26,13.66,6.58,2.91,14.56,1.34,21.26-.19,11.42-2.61,21.89-7.19,33.81-6.89,7.86.2,15.64,2.82,23.17,4.94,8,2.25,16.38,3.81,24-.42,5-2.75,8.26-7.84,10.75-12.77,4.95-9.78,7.21-21,9.15-31.65.09-.47-1.82-.14-1.91.33-2.06,11.41-4.58,23.12-10.07,33.44-3.26,6.14-8.3,11.72-15.55,12.52-5.4.59-10.93-1.1-16.06-2.56-8.5-2.42-16.93-4.73-25.85-4.66-11.37.09-21.78,5-32.76,7.35-9.92,2.13-20.16,2.12-26.28-7.06-4.6-6.9-5.3-16.15-5.63-24.19-.38-9.57.39-19.16.91-28.71a136.11,136.11,0,0,0-7-51.35c-3.22-9.42-8.05-18.23-11.2-27.72-3.54-10.67-3.77-20.63-2-31.67,1.57-9.73,3.33-19.37,4.73-29.13,1.06-7.36,1.62-14.75,3.54-22,2.18-8.15,6.85-16,14.66-19.79a16.39,16.39,0,0,1,16,.58c4.3,2.75,2.83,8.31,4.69,12.46.22.47,2.09-.18,1.94-.52Z"/><path class="cls-3" d="M193.39,149.58c5.33,5.61,8.29,12.7,10.78,19.93,2.58,7.48,4.94,15.09,7.29,22.65,4.59,14.79,8.45,31.32,3.48,46.5-2.38,7.27-8.3,13.48-16.15,8.23-4.44-3-6.08-9.37-7.35-14.21-2.52-9.54-2.7-22.59-10.23-29.88-.42-.41-2.22.31-1.8.71,4.56,4.42,6,11.24,7.33,17.2,1.55,6.89,2.59,14,5.46,20.5,4,9,15,12,21.39,3.71,9.6-12.47,5.34-32.71,1.81-46.28-2.35-9.06-5.55-17.93-8.38-26.85-2.61-8.24-5.78-16.55-11.83-22.92-.39-.42-2.21.28-1.8.71Z"/><path class="cls-3" d="M73.13,61.17c-5.13,1.58-6.56,7.65-6.64,12.42,0,.1.29.1.33.1,6.05-.31,8.5-6.2,8.59-11.61,0-.11-.29-.11-.33-.1-3.3.19-5.1,1.61-6.58,4.54-.1.21,1.67.1,1.9-.37a15.5,15.5,0,0,1,1.4-2.35,1.42,1.42,0,0,1,1.67-.74,15.72,15.72,0,0,1-2.28,7.64c-.08.12-2.78,3-2.76,1.71a19.84,19.84,0,0,1,.7-4.59c.63-2.43,2-5.49,4.64-6.3,1.33-.41.06-.57-.64-.35Z"/><path class="cls-3" d="M77.63,63c-1.75,2.44-3.67,7.29-2.09,10.22,2,3.71,7.29-1.6,8.37-3.56,1.38-2.5,1.15-6.24-1.92-7.34-3.79-1.37-4.73,3.45-4.53,6,.08,1.06,2,.79,2-.12s-.29-5.36,1.82-4.43,1.74,3.71,1,5.27a9.15,9.15,0,0,1-3.55,3.54c-1.14.68-1.45-.26-1.6-1.28a11.68,11.68,0,0,1,2.19-7.71c.73-1-1.08-1.4-1.63-.64Z"/><path class="cls-3" d="M87.41,67.26a11.13,11.13,0,0,1,2.82-7.64c.84-.88-1-1.18-1.61-.55a12.24,12.24,0,0,0-3.17,8.34c0,1,1.94.71,2-.15Z"/><path class="cls-3" d="M81.41,61.08a3.63,3.63,0,0,1,.92-2.73c.33-.35-.27-.52-.51-.53a1.8,1.8,0,0,0-1.28.52,4.35,4.35,0,0,0-1.07,3.26c0,.56,1.93.21,1.94-.52Z"/><path class="cls-3" d="M80.81,60.79c-.94,0-1.87,0-2.81-.07a8.74,8.74,0,0,1-1.35-.17c-.13,0-.12-.12-.07,0s-.13.29-.25.35a4.29,4.29,0,0,1,.5-.19c.24-.09.81-.47.51-.79s-.93-.14-1.28,0-1.43.48-1.41,1.13c0,.46.9.57,1.22.62a26.75,26.75,0,0,0,4.2.21,1.56,1.56,0,0,0,1.27-.53c.26-.38-.22-.58-.53-.58Z"/><path class="cls-3" d="M186.92,209.72c-17.85-1.63-31.67,10.77-44.44,21.45a.19.19,0,0,0,0,.29c2.31,3,6.29,4.75,9.61,6.27a94.92,94.92,0,0,0,17.64,6c4.5,1.07,17.7,4.1,19.55-2.82.13-.48-1.77-.2-1.91.32-1.53,5.71-13.23,2.38-17.06,1.48a86.74,86.74,0,0,1-19-7,31.49,31.49,0,0,1-5.63-3.57c-1.61-1.31-.69-1.75.79-3,2.23-1.87,4.47-3.75,6.75-5.58,9.35-7.53,20-14.22,32.49-13.07.46,0,2.24-.76,1.24-.85Z"/><path class="cls-3" d="M217.4,205.67c3-.64,6.09-3,8.74-4.45s5.1-2.68,7.75-3.81,1.6,1.15,1.2,3.18-2,3.83-3.2,5.39c-1.75,2.19-3.48,4.38-5.21,6.58-.94,1.2,1.14,3.92,1.6,4.84,1.12,2.21,3.31,3.22,5.21,4.7,5.9,4.6-2.81,9.28-7.12,9.45-1,0-1.58,1.19-.24,1.14,5.81-.24,16.39-6.41,8.19-12.11A14.67,14.67,0,0,1,229,214.4c-1-2,1.1-3.54,2.19-5.21,3-4.67,6.65-7.22,6-13.28,0-.34-.63-.33-.84-.31-7.14.67-12.47,7.58-19.24,9-1.19.25-.89,1.28.28,1Z"/><path class="cls-3" d="M173.22,211.77l-.13-.13c-.46-.45-2.29.24-1.8.75,3.2,3.33,5.56,6.09,6.27,10.84,1.14,7.6-4.57,14.5-9.13,19.87-.53.62,1.4.46,1.79,0,4.67-5.5,9-11.25,9.35-18.73.23-5.58-2.9-9-6.48-12.74l-1.8.75a1.59,1.59,0,0,1,.13.13c.46.46,2.28-.26,1.8-.75Z"/><path class="cls-3" d="M164.42,225.78h-3c-.38,0-1.4,0-1.4.42v3c0,.3.32.45.59.57,4.7,2.15,8.5-2.25,8.61-6.71a.53.53,0,0,0-.38-.58c-3-.92-8.3-.36-8.51,3.72-.05,1,1.93.72,2-.15.14-2.74,3.43-2.89,5.46-2.27l-.42-.58c-.07,3-2,6.9-5.6,5.27a1.12,1.12,0,0,1,.28.58v-3a1,1,0,0,1-.77.73h3c1.11,0,1.49-1,.18-1Z"/><path class="cls-3" d="M178.43,212.57c2,3.49,2.49,6.59,1,10.45-.34.85.85.88,1.35.67.84-.35,2.56.63,3.35.94.18.07-.55,1.46-.69,1.93-1.13,3.93-1.73,8-4,11.44-.29.44.25.74.58.81.5.1,2.44,1.25,3,.66a10.2,10.2,0,0,0-1.82,2.72c-.37.95,1.09.89,1.57.54l.26-.19c1.07-.77-.51-1.42-1.27-.87l-.27.2,1.56.54a10.82,10.82,0,0,1,2.15-3c.39-.44,0-.92-.47-1a24.72,24.72,0,0,1-3.23-.84c.91.19,2-3.75,2.14-4.31,1-3,1.39-6.11,2.67-9,.21-.47-.18-.72-.58-.81-2.13-.47-3.62-1.76-5.76-.86l1.35.67c1.65-4.16,1.23-7.67-1-11.52-.44-.74-2.28,0-1.77.85Z"/><path class="cls-3" d="M91.87,149.88c2.68,1.31,3.95,5.45,5.33,8a24.69,24.69,0,0,0,5.67,6.51c4.45,3.87,10.31,6.1,16,7.46.83.2,2.29-1,1.12-1.3-7-1.69-13.54-4.74-18.51-10.11-3.29-3.56-4-9.67-8.46-11.86-.8-.4-2.22.76-1.11,1.3Z"/><path class="cls-3" d="M125,170.7c-7.12-1.74-10.73,5.27-7,11.05,2.38,3.66,6.34,5.17,10.59,5.07,3.64-.08,8.4-1.09,11-3.92,4.7-5.18-1.08-12.05-5.61-14.91-6.08-3.82-13.41-2.33-16.52,4.34-.25.53,1.65.33,1.92-.26,2.83-6,8.56-6.18,13.66-2.78,3.56,2.36,7.46,7.06,6,11.62-.94,3-4.41,4.05-7.12,4.56-3.89.74-7.72.18-10.65-2.62-3.41-3.26-4.73-12.92,2.52-11.15.58.14,2.28-.74,1.2-1Z"/><path class="cls-3" d="M140.74,172.61c15.55.85,34.29-5.43,43.52-18.55.17-.24-1.57-.15-1.91.32-8.61,12.24-25.86,18.19-40.37,17.4-.44,0-2.22.78-1.24.83Z"/><path class="cls-3" d="M109.44,168.46c.66,3.54,6.8,4.33,9.61,4.44.6,0,1.87-.58,1.08-1.26a15,15,0,0,0-3-2.06c-.28.42-.56,1.2-.84,1.2h3c.51,0,1.36-.49,1-1.07l-2-3c-.33.38-.65,1.1-1,1.1h2a.64.64,0,0,0,.72-.65v-2c0,.24-.85.48-1.36.72,2.89.69,4.76-.66,7.55-.94,1.07-.11,1.53-1.54.21-1.41-2.26.23-4.29,1.63-6.69,1.06-.47-.12-1.71,0-1.71.72v2c1-.26,1.1-.5,1.46-.5h-2c-.51,0-1.36.4-1,1,.66,1,1.33,2.07,2,3.06.33-.37.65-1.05,1-1.05h-3c-.47,0-1.64.7-.83,1.12a14,14,0,0,1,3,1.92c.36-.42.72-.87,1.08-1.29-2.32-.08-7.8-.63-8.35-3.57-.17-.89-2.11-.41-1.93.5Z"/><path class="cls-3" d="M133.82,167.88l9,3c.86.29,2.28-.9,1.11-1.35-2.29-.86-4.7-1.12-7-2l-.88,1.4c4.09.34,7.76,2.68,11.75.87.36-.16.74-.65.44-1-2.47-3.21-5.57-4.16-9.54-4.3-.75,0-2,.85-.88,1.41,5.79,3,12.25,2.23,18.45,1.22,1.06-.17,1.52-1.32.16-1.32h-12c-.39,0-1.41,0-1.41.49v1c0,.52.64.66,1.08.67,5,.1,9.88.79,14.59-1.13.93-.38.55-1.35-.32-1.34-5.33,0-10.14.3-14.68,3.26a.65.65,0,0,0,.33,1.2c10.35.65,19-4.71,28.48-8,1.16-.41.81-1.81-.37-1.39-9,3.16-17.56,8.57-27.45,7.95.11.4.22.8.32,1.2,4.12-2.68,8.57-2.71,13.26-2.73l-.36-1.34c-3.88,1.6-7.76.89-11.8.81-2.75,0,3,.37,2.17.37h8a9.25,9.25,0,0,0,.16-1.4c-5.87,1-12,2-17.51-.89l-.87,1.43a17.72,17.72,0,0,1,2.81.21l2.21.62q3.23.69.88,2.28c-2.46-.23-4.75-1.35-7.25-1.56-.72-.06-2,1-.88,1.41,2.29.86,4.71,1.12,7,2l1.11-1.35-9-3c-.87-.29-2.27,1-1.1,1.35Z"/><path class="cls-3" d="M102.84,161.81c5.94,1.24,10,6.72,16.2,7,.4,0,2-.69,1.1-1.15-3.86-1.93-7.68-3.88-10.85-6.87l-1.78.81a34.77,34.77,0,0,0,8.13,5.1c.47.24,2.24-.16,1.64-.92-.76-1-1.24-2-2-3l-1.64.92a4.35,4.35,0,0,0,2.4,1.12c.85.08,2-1.15.7-1.27a2.81,2.81,0,0,1-1.59-.88c-.49-.38-2.19.23-1.64.92.75,1,1.23,2,2,3l1.65-.92a33.68,33.68,0,0,1-7.86-4.88c-.57-.53-2.4.22-1.78.81,3.25,3.07,7.15,5.11,11.12,7.1l1.11-1.15c-6-.3-10-5.74-15.76-6.95-.73-.16-2.29.94-1.14,1.19Z"/><path class="cls-3" d="M80.39,290.86c2.6-6.93,13.35-7.7,19.56-6.5a17.72,17.72,0,0,1,12.48,9.94c.22.44,2.07-.24,1.93-.52-3.74-7.62-11.16-10.93-19.41-10.65-5.5.18-14.31,2.37-16.46,8.09-.11.3,1.72.12,1.9-.36Z"/><path class="cls-3" d="M156,289.57c1.61.1,2.17-.44,3.45-1.41,4.08-3.13,7.86-5.64,13.19-6,5.17-.37,14.31-.19,15.74,6.16.13.58,2.07.09,1.93-.51-1.61-7.18-12.21-7-17.88-6.55a19.59,19.59,0,0,0-9.56,3.05c-2,1.33-4.33,4-6.69,4.49a6.72,6.72,0,0,0-2.46.84c-.12.08-.59.39-.32.58.49.35.68.27,1.39.31.51,0,2.24-.88,1.21-.94Z"/><path class="cls-3" d="M91,288.5c-2.69,1.51-3.57,4.69-4.49,7.44-.35,1,1.58,1,1.84.19.7-2.08,1.42-5.37,3.5-6.54C93,289,92,288,91,288.5Z"/><path class="cls-3" d="M95.45,289.18a16.15,16.15,0,0,0-2,7.11c0,.54,1.91.2,1.93-.51a15.82,15.82,0,0,1,2-6.87c.26-.51-1.63-.32-1.93.27Z"/><path class="cls-3" d="M99.43,290.11a11.52,11.52,0,0,0,1.1,5.36c.39.81,2.22.08,1.76-.87a10.07,10.07,0,0,1-.9-4.62c0-1.05-2-.78-2,.13Z"/><path class="cls-3" d="M166,289.3v4c0,.39,2,.09,2-.52v-4c0-.4-2-.1-2,.51Z"/><path class="cls-3" d="M173,288.3v6c0,.59,2,.22,2-.52v-6c0-.59-2-.23-2,.51Z"/><path class="cls-3" d="M175.07,288.12c1.21-1,3.35-1.21,4.81-1.89l-1.54.08c.12,2.46,1.89,4.52,2,7,0,.44,2,.09,1.93-.52-.11-2.46-1.88-4.53-2-7,0-.48-1.37,0-1.54.07-1.68.78-3.73.88-5.18,2.11-.79.67,1.14.47,1.51.15Z"/><path class="cls-3" d="M53.56,115.59c7.42,5.94,5.41,16.73,3.29,24.73a113.18,113.18,0,0,1-4.27,12.43c-1.2,3.07-4.76,4-1,5.78.5.24,2-.56,1.83-.63-2.68-1.28-.67-1.09,0-2.86s1.5-3.79,2.23-5.69a95.87,95.87,0,0,0,4-13.15c1.64-7.27,2.1-16.14-4.28-21.25-.4-.31-2.06.46-1.83.64Z"/><path class="cls-3" d="M78.68,271.56l.29.16a1.48,1.48,0,0,0,1.67-.45,1.76,1.76,0,0,0,.37-.87c.65-2.53,3.82-2.76,6-2.16s4.19,1.76,6.39,1.83c3.45.11,5.73-1.23,7.73-4,4.68-6.53-4.2-8.65-8.37-11.11-8.75-5.16,2-18.74-7-24.71-1.41-.93-11.89-5.68-11.23-.84.1.72,2,.26,1.93-.52-.16-1.17,7.32,2,8.13,2.65,3.88,3.27,3.6,7.84,3,12.4-.74,5.76.24,10.5,5.76,13.12,2.33,1.11,5,1.87,6.64,4,1.22,1.52.13,3.58-.68,5-2.86,4.91-7.68,2.33-11.15,1.17-2.32-.77-4.82-1.16-7,0-1.78.94-1.21,2.74-2.26,4.05l1.66-.45-.29-.16c-.6-.32-2.37.54-1.52,1Z"/><path class="cls-3" d="M203.83,183.5c-3.5-1.13-6.89-1.94-10.19.21-2.74,1.78-4.46,3.62-2.88,6.8,1.15,2.32,3.14,4,4.25,6.41a19.77,19.77,0,0,1,1.26,7.47c-.09,2.93-1.53,6.39.82,8.77,3.84,3.91,12.11,2.41,14.11-2.5a25.08,25.08,0,0,0-5-26.92c-.64-.66-2.46.14-1.77.88a22.12,22.12,0,0,1,6.58,17,35.37,35.37,0,0,1-1.63,8.76c-1.33,4.29-10.14,4.51-11.52.23-.59-1.82.26-4.51.41-6.37s-.42-3.89-.66-5.79A13.14,13.14,0,0,0,195,193c-.61-.86-1.33-1.66-2-2.5-4.42-5.76,6.43-6.64,9.67-5.59.87.28,2.27-1,1.1-1.36Z"/><path class="cls-3" d="M146,210.76c-4.66-.2-10.31-2.47-14.94-.82-2.56.91-7.42,3.27-7.85,6.45-1.12,8.22,13.09,9.53,8,19.26-2.06,3.95-4.73,6.14-4.4,11,.35,5,4.23,9.14,8,12,6.43,4.76,15.27,4.77,19.43-2.67l-1.91.44c8.42,10.56,16.51-1.41,17.91-10.51,0-.2-1.84-.06-1.93.52a27.14,27.14,0,0,1-3,8.84,14.59,14.59,0,0,1-2.66,3.45c-3.32,3.32-6.69-.69-8.39-2.82-.32-.4-1.7,0-1.92.43-5.83,10.39-18.2,1.73-22.28-5.62a11.26,11.26,0,0,1,.12-11.11c1.5-2.61,3.49-4.49,4-7.58.82-4.65-4-7.74-6.82-10.67-2.3-2.43-3.33-5.1-.79-7.81,4.83-5.14,12.08-2.2,18.08-1.94.39,0,2.2-.73,1.25-.77Z"/><path class="cls-3" d="M147.44,210.48c2.32-.51,4.5-1.34,5.88-3.4,1.62-2.43,2.53-4.7,5.78-5.33,2.12-.42,4.24-.66,6.32-1.25l-1.06-.08c1,2.93,2,5.71,4.06,8.07.34.39,2.15-.29,1.81-.68-2-2.33-3-5-3.94-7.91-.1-.32-.85-.14-1-.08-3.06.87-6.59.74-9.46,2.18-4,2-3.34,6.65-8.52,7.81-1.15.26-.95.93.18.67Z"/></svg>