<svg id="layer1" xmlns="http://www.w3.org/2000/svg" viewBox="0 0 422 357.41"><defs><style>.cls-1{fill:#d31616;}.cls-2{fill:#492d0c;}</style></defs><path class="cls-1" d="M215.7,188.24c.35-7,1-15.22-1-22.25-3-10-15.32-5.07-16.37,5.47l-1.32-.3c.27,0,.36-.06-.77-.48-10.45-2.73-19.85-1.56-25.43,9.76-6.12,12.44-3.13,32.39,5.58,42.93,4.87,5.86,11.14,10.93,17.76,5.47,2.09-1.56,5.85-8.83,8.36-7.42,2.09,1.17-1,9,5.92,9,7.48,0,7.32-12.49,7.32-16.78C215.7,206.2,215.35,195.66,215.7,188.24ZM201.31,203c-.85,6.19-5.65,15.56-14.07,11.3-5.58-3.23-7-12.36-7.44-18.27-.56-9.84,9.63-19.13,18.55-10.13l0,.39C201.32,190.84,201.66,197.92,201.31,203Z"/><path class="cls-2" d="M216.66,188.11c.39-7.52,3.38-25.17-6.46-27.92-6.74-1.88-12.08,5.83-12.88,11.4l1.56-.63c-1.07-.24-.53,0-1.19.38.24-.14.6-.52.18-.7a24.53,24.53,0,0,0-18.72.12c-7.25,3.14-10.73,11.31-12.05,18.58-1.6,8.82.06,18.31,3.53,26.48,3,7,9.27,15.47,17.52,15.86,2.64.13,5.36-1.5,7.23-3.16,1-.89,6-8.43,6.84-5.58.67,2.33.11,4.53,1.69,6.59,1.4,1.81,4.55,1.49,6.45,1,5.31-1.32,6-8.75,6.23-13.11.56-9.75-.32-19.56.07-29.33,0-.74-1.9-.33-1.92.27-.29,7-.12,14,0,21,.07,5.43.35,11.05-1.4,16.27-.87,2.58-3.7,6.34-7.59,3.11-.94-.78-1.11-2.37-1.26-3.49-.19-1.41.08-3.21-1.09-4.25-1.84-1.61-4.77,1.44-5.78,2.55-3.34,3.67-5.07,8.92-12.24,6.3-4-1.44-7.25-5.61-9.62-8.91-4.3-6-6.24-13.58-7-20.78-.83-7.71.41-15.7,4.42-22.39a16.27,16.27,0,0,1,9.74-7.39,20.66,20.66,0,0,1,7.6-.27c1.34.15,4.72,1.44,5.9.75-.38.23-.55.63,0,.75l1.32.3c.39.08,1.49-.11,1.56-.63,1-6.67,9.59-15.32,14-6.2,3.27,6.7,1.81,16.13,1.45,23.25C214.7,189.12,216.63,188.71,216.66,188.11Z"/><path class="cls-2" d="M200.34,203.11c-1.07,6.46-6.33,16-14,9.43-4.16-3.58-5-10.61-5.49-15.72a14.9,14.9,0,0,1,2.19-9.46,9,9,0,0,1,8.57-4.49c1,.11,5.86,2,5.76,3.34s1.76,4.1,2.17,5.56a34.59,34.59,0,0,1,.8,11.34c0,.74,1.9.34,1.93-.26.47-8.43-.29-20-10.66-21.11-7-.76-12.84,6.77-12.79,13.19.06,7.86,2.09,19.68,11.54,20.91,7,.91,11-7.36,11.91-13C202.39,202.15,200.45,202.5,200.34,203.11Z"/><path class="cls-1" d="M330.74,187.28c.35-7,1.05-15.23-1-22.25-3-10-15.33-5.08-16.38,5.46L312,170.2c.26,0,.35-.07-.78-.49-10.45-2.73-19.85-1.56-25.42,9.76-6.13,12.44-3.14,32.4,5.57,42.94,4.88,5.85,11.15,10.93,17.76,5.46,2.09-1.56,5.85-8.82,8.36-7.42,2.09,1.18-1,9,5.93,9,7.47,0,7.31-12.49,7.31-16.78C330.74,205.23,330.39,194.69,330.74,187.28ZM316.35,202c-.85,6.19-5.65,15.56-14.06,11.3-5.59-3.23-7-12.36-7.45-18.27-.56-9.84,9.63-19.12,18.55-10.12l0,.39C316.37,189.88,316.7,197,316.35,202Z"/><path class="cls-2" d="M331.7,187.15c.39-7.52,3.38-25.18-6.46-27.93-6.74-1.88-12.08,5.83-12.88,11.4l1.56-.63c-1.07-.24-.53,0-1.19.38.24-.14.6-.51.18-.7a24.53,24.53,0,0,0-18.72.12c-7.24,3.14-10.73,11.31-12.05,18.58-1.59,8.83.06,18.31,3.54,26.48,3,7,9.26,15.48,17.52,15.87,2.63.12,5.35-1.5,7.22-3.17,1-.88,6-8.43,6.84-5.57.68,2.32.11,4.53,1.7,6.58,1.39,1.81,4.55,1.49,6.44,1,5.31-1.31,6-8.75,6.24-13.11.56-9.75-.33-19.56.06-29.32,0-.75-1.9-.34-1.92.26-.28,7-.12,14,0,21,.07,5.43.36,11-1.4,16.26-.87,2.58-3.69,6.34-7.58,3.12-.95-.79-1.11-2.38-1.26-3.5-.19-1.41.08-3.21-1.1-4.24-1.83-1.62-4.77,1.43-5.78,2.54-3.33,3.67-5.07,8.92-12.24,6.31-4-1.45-7.24-5.61-9.62-8.92-4.29-6-6.24-13.58-7-20.78-.83-7.71.41-15.7,4.42-22.39a16.3,16.3,0,0,1,9.74-7.39,20.66,20.66,0,0,1,7.6-.26c1.34.14,4.73,1.44,5.91.74-.39.23-.56.63,0,.75l1.32.3c.39.09,1.48-.11,1.56-.63,1-6.66,9.59-15.32,14-6.2,3.27,6.7,1.82,16.13,1.45,23.25C329.74,188.15,331.67,187.74,331.7,187.15Z"/><path class="cls-2" d="M315.39,202.14c-1.08,6.46-6.34,16-14,9.43-4.16-3.57-5-10.61-5.49-15.71a14.93,14.93,0,0,1,2.19-9.47,9,9,0,0,1,8.58-4.49c1,.11,5.85,2,5.76,3.34s1.75,4.11,2.17,5.56a35.18,35.18,0,0,1,.8,11.34c-.05.75,1.89.34,1.92-.26.47-8.43-.29-20-10.66-21.1-7-.77-12.84,6.76-12.78,13.18.06,7.87,2.08,19.69,11.53,20.91,7,.92,11-7.35,11.91-13C317.43,201.18,315.49,201.53,315.39,202.14Z"/><path class="cls-1" d="M347,227.39c-10.49-11,.18-30.43.18-44.25,1.29-10.06,0-23,8.7-22.11,4.8.52-2.43,8.47,5.32,8.47,6.45,0,16.79-7.45,24.54-4.94,12.92,3.77,18.18,58.39,6.56,64.67-16.79,6.28-10.35-31.82-10.64-38.1-1-21.76-22.88-16-20,21.17C362.61,223.8,356.39,237.23,347,227.39Z"/><path class="cls-2" d="M347.93,227c-8.48-9.67-3.08-23.86-.84-34.92a124.36,124.36,0,0,0,1.66-15.64c.19-2.66.8-18.58,7.5-14.63,1.65,1-.6,5.59,1.22,7.34,2.08,2,7.15.25,9.33-.44,5.88-1.84,12.35-5.76,18.64-3.62,2.76.94,4.55,4.17,5.78,6.56,3.61,7,5,15.23,5.9,22.94,1,8.3,1.16,17-.55,25.2a18.87,18.87,0,0,1-3.25,7.84c-3.16,4.05-7.75,1-9.43-2.4-3.07-6.2-2.36-14.55-2-21.23.31-6.42,3.23-30.71-10.28-25.55-6.53,2.49-9,10.36-10.19,16.56s-.91,12.59-.57,18.89a27.42,27.42,0,0,1-1.68,10.5,12.06,12.06,0,0,1-3.39,5.11c-2.73,2.38-6.06-.81-7.82-2.51-.42-.4-2.21.31-1.81.7,5.35,5.17,11.15,4.1,14.47-2.48,2.29-4.55,2.31-10,2-14.91a60.45,60.45,0,0,1,1.5-19c1.27-5,6.78-17,13.26-10.53,4.22,4.25,3.47,11.53,3.06,16.95-.58,7.56-4.28,31.75,7.76,32.57,12.57.86,11.77-20,11.54-27.87-.34-11.29-1.88-24.9-8.39-34.5-2.39-3.51-6.06-4.87-10.27-4.34a49.12,49.12,0,0,0-10.95,3.07c-4.36,1.61-12.49,4.8-11.5-2.51.51-3.83-3-4.53-6.05-3.13-5.9,2.69-5.39,11.59-5.78,17-.67,9.22-2.5,17.92-4.26,27-1.53,7.87-2,16.3,3.64,22.68C346.49,228.17,348.33,227.49,347.93,227Z"/><path class="cls-1" d="M56.79,38.06c10.51,1.29,21,3.88,32.69,5.17,12.85,1.3,25.7,3.88,38.54,0,10.51-2.58,26.86-15.51,38.54-10.34,22.19,7.76,2.34,59.47,0,76.28-3.5,29.74-1.17,60.77-7,89.21-5.84,32.32-38.53,44-65.39,36.2-12.85-3.88-26.86-15.51-30.37-31-2.33-16.81,8.18-18.1,19.86-12.93,11.67,6.47,25.69,20.69,38.53,14.22,14-5.17,19.86-27.15,21-41.37,2.34-14.22,1.17-28.44,3.51-42.66,1.17-12.93,8.17-31,4.67-45.25-3.5-12.93-14-6.47-23.36-2.59-12.84,3.88-23.35,2.59-37.37,0C79,69.09,70.8,71.68,59.12,73c-9.34,0-15.18-1.29-14-14.22,0-5.17,3.5-11.64,5.84-18.1Z"/><path class="cls-2" d="M56.19,38.59c14.7,1.9,29.17,4.88,43.93,6.43,12.51,1.32,24.32.95,35.91-4.27,10-4.51,23.31-13.25,33.72-5.21,6.26,4.83,6.46,14.66,6.16,21.77-.73,17.39-7.13,33.75-10.12,50.74-2.56,14.5-2.21,29.78-2.75,44.45-.57,15.41-1.44,30.84-4.45,46-4.81,24.18-25.54,38.41-49.69,37.81a48.75,48.75,0,0,1-32.53-13.26A41.72,41.72,0,0,1,66,207.55c-2-5.23-3-13.21,1.53-17.47,4-3.8,12.51-.6,16.51,1.68C89.68,195,94.8,199,100.4,202.32c8.47,5,16.66,6.2,25.4,1.37,8-4.42,12.24-14.08,14.9-22.36,3.82-11.89,4.6-25,5.14-37.37.48-11.11,1.23-22.13,3.4-33.06,1.86-9.35,4.18-18.61,4.06-28.21-.08-5.52-1.47-14.83-8.59-15.3s-13.53,4.31-20.27,6c-12,3-25,1.06-36.78-2-10-2.61-19.35,1-29.31,1-3.45,0-7.17-.23-9.87-2.6-3.33-2.92-2.54-8.69-2.34-12.5.28-5.19,3.29-10.43,5.17-15.17.85-2.15,3.62-2.69,5.86-3.68,1.23-.55.1-1.18-.77-.8-1.87.83-4.69,1.46-6.23,2.83-1.3,1.16-2.06,5-2.74,6.69a44.06,44.06,0,0,0-3.22,10.37c-1.22,8.34,1.12,14.84,10,15.79,5.06.54,10-.52,15-1.2,8.79-1.2,16,.52,24.58,2,11.48,2,24.66,3.41,35.73-1.27,4.91-2.08,11.32-6.16,16.67-3.65,6.17,2.9,5.35,14.73,5,20-1,13.25-5.09,26.14-6.4,39.4-1.41,14.34-1.13,28.71-3.59,43-1.84,10.65-5.63,22.36-14,29.67-12.61,11-27.08-1-38-8.22-6-4-14.36-7.8-21.48-4.46-8.06,3.78-5.19,16-2.53,22.15,4.39,10.12,13.5,17.91,23.35,22.46,16.33,7.55,37.6,5,52.44-4.69,21-13.65,22.08-40.61,23.4-63.18,1.37-23.42.41-47.07,6.17-70,4-15.86,9.75-33.69,6.62-50.17-1.09-5.75-4.25-10.69-9.84-12.82-8.37-3.19-17,.53-24.69,4-4.84,2.23-9.58,4.88-14.75,6.28-8.35,2.27-16.64,2.19-25.18,1.37-15.26-1.45-30.17-4.62-45.33-6.58C56.77,37.46,55.1,38.45,56.19,38.59Z"/><path class="cls-1" d="M271.12,176.36c-4.82-6.68-25-11.72-33.87-1.47-6.34-16.18-15.25-5.69-14.61,6.31,2.16,40.25-.49,93.22-2.59,124.47-.22,10.42-1.38,31.16,12.22,24.86,7.24-3.35,7.67-27.36,7.95-40.77.25-11.92-1.33-41.85-1.7-54.13-.42-13.9,12.49-4.74,28-11.11C280.16,219,277.41,185.07,271.12,176.36Zm-8.28,23c-.87,7.78-6,16.19-15.89,13.85-9.17-2.32-8.31-9.39-8.15-17.19.23-10.63,3.84-14.1,14.47-13.88l1.41.74C262.46,183.71,263,194.36,262.84,199.32Z"/><path class="cls-2" d="M272.09,176.1c-7.79-9.79-27.31-10.06-35.71-1.12l1.83-.35c-2.25-5.33-6.56-11.3-12.37-6.56-2.72,2.22-3.6,6.33-4.06,9.61-.86,6.22.33,13.13.49,19.4.69,27.29-.21,54.62-1.59,81.87-.53,10.51-1.5,21-1.69,31.54-.11,6.19-.94,16.77,5,20.78,3.86,2.62,10.07-.51,12.2-3.93,4.8-7.69,4.4-19.58,4.76-28.25.58-14.28,0-28.53-.62-42.79-.27-6.7-.58-13.39-.8-20.09-.15-4.43.44-8,5.68-8.55,3.29-.32,6.64-.11,9.95-.32,11.31-.71,18.95-5.23,21.16-16.78,2-10.41,2-25.29-4.21-34.46-.3-.44-2,.35-1.93.52,4.25,6.26,5,15.13,5.17,22.46.24,8.08-.59,19.77-8.08,24.72-8.17,5.41-18.75.22-26.89,4.71-2.6,1.43-2.81,4.77-2.81,7.38,0,4.72.35,9.48.55,14.2.87,20.87,2.25,42,0,62.8-.53,4.78-1.33,9.68-3.38,14.06-2.83,6.07-9.54,5.15-11.93-.31-3.18-7.28-2-17.13-1.48-24.84,1.6-24.54,2.69-49.12,3.05-73.72.2-13.15.12-26.31-.36-39.45-.21-5.78-1-11.41,1.15-16.94.94-2.45,3.11-5.68,6.19-4,2.57,1.39,3.93,4.95,5,7.47.17.41,1.63-.13,1.83-.35,7.49-8,25-7,32.05,1.82C270.51,177.06,272.19,176.23,272.09,176.1Z"/><path class="cls-2" d="M261.88,199.58a22,22,0,0,1-3.11,8.83c-3.64,5.84-11.54,5.78-16.26,1.7-4.4-3.81-3-13.17-2.47-18.19,1-8.62,9.5-11.43,16.76-7.76,5,2.53,5.14,10.69,5.08,15.42,0,.25,1.92,0,1.93-.52.1-7.66-1.82-17.28-11.25-17.33-6.67,0-13.12,2.24-14.28,9.6-1.54,9.81-1.61,21.53,10.69,22.59,8.68.74,13.78-7.25,14.84-14.86C263.83,198.89,262,199,261.88,199.58Z"/></svg>