<svg id="_ÎÓÈ_1" data-name="—ÎÓÈ 1" xmlns="http://www.w3.org/2000/svg" viewBox="0 0 103.78 63.27"><defs><style>.cls-1{fill:#e2e2e2;}.cls-1,.cls-2,.cls-3{fill-rule:evenodd;}.cls-2{fill:#afafaf;}</style></defs><polygon class="cls-1" points="51.56 56.36 51.33 45.86 51.96 44.17 52.13 42.31 51.52 40.63 52.15 21.12 52.95 20.18 64.17 19.98 65.98 20.92 67.37 26.21 67.64 31.43 70.61 39.68 71.95 56.36 51.56 56.36"/><polygon class="cls-2" points="64.17 19.98 65.98 20.92 67.37 26.21 67.64 31.43 70.61 39.68 71.95 56.36 67.56 56.36 67.14 52.83 66.84 48.18 67.29 41.45 64.85 29.98 64.17 19.98"/><polygon class="cls-1" points="28.01 56.36 27.02 40.27 28.47 21.16 30.33 20.22 37.38 20.15 39.79 20.15 43.39 21.96 43.27 31.3 43.3 40.43 43.95 51.9 43.95 56.36 28.01 56.36"/><polygon class="cls-2" points="39.79 20.15 43.39 21.96 43.27 31.3 43.3 40.43 43.95 51.9 43.95 56.36 41.48 56.36 41.05 46.55 40.21 35.61 40.21 23.62 39.79 20.15"/><polygon class="cls-1" points="4.81 56.36 4.35 48.38 6.18 36.27 6.72 22.46 7.72 20.7 11.61 20.14 19.54 20.38 21.3 21.34 22.13 35.23 20.3 46.22 21.67 49.66 21.67 56.36 4.81 56.36"/><polygon class="cls-2" points="15.57 20.26 19.54 20.38 21.3 21.34 22.13 35.23 20.3 46.22 21.67 49.66 21.67 56.36 16.73 56.36 17.25 53.15 16.94 46.1 17.48 40.8 18.7 33.83 18.14 22.32 15.57 20.26"/><polygon class="cls-1" points="79.65 56.36 79.42 37.8 80.71 22.24 83.68 20.01 94.68 20.08 95.67 21.2 97.2 32.91 97.96 44.93 96.74 56.36 79.65 56.36"/><polygon class="cls-2" points="79.65 56.36 79.42 37.8 80.71 22.24 83.68 20.01 90.16 20.05 83.77 22.77 81.25 38.72 83.01 46.1 83.57 56.36 79.65 56.36"/><polygon class="cls-1" points="11.61 20.14 9.62 19.25 9.39 15.65 11.07 14.36 16.72 13.16 31.21 13.16 44.69 13.16 63.78 13.03 89.42 12.95 90.18 16.15 90.16 20.05 81.64 20 64.17 19.98 52.95 20.18 37.38 20.15 28.92 20.23 19.54 20.38 11.61 20.14"/><path class="cls-3" d="M4.06,48.4v-.06l1.83-12.1.54-13.79a.2.2,0,0,1,0-.13l1-1.77a.31.31,0,0,1,.22-.15L10.54,20l-1-.46a.3.3,0,0,1-.17-.26l-.23-3.6a.28.28,0,0,1,.12-.26l1.67-1.28a.34.34,0,0,1,.12-.06l5.65-1.2H32.38c19,0,38-.15,57-.21a.31.31,0,0,1,.3.26l.75,3.17a.38.38,0,0,1,0,.1l0,3.58,4.22,0a.29.29,0,0,1,.22.1l1,1.13a.3.3,0,0,1,.07.15c1.12,8.61,1.74,15.08,2.29,23.75V45L97,56.39a.31.31,0,0,1-.3.27H79.65a.29.29,0,0,1-.29-.32L79.13,37.8l1.28-15.58a.33.33,0,0,1,.14-.23L82.8,20.3H81.64l-16.26,0,.73.38a.29.29,0,0,1,.16.2l1.39,5.28s0,0,0,.07l.26,5.16,3,8.21a.36.36,0,0,1,0,.1l1.33,16.65a.3.3,0,0,1-.29.33H51.56a.3.3,0,0,1-.3-.33L51,45.86a.36.36,0,0,1,0-.11l.62-1.64.16-1.76-.59-1.62a.69.69,0,0,1,0-.13l.63-19.49a.29.29,0,0,1,.07-.18l.39-.45-11.26,0,2.47,1.24a.29.29,0,0,1,.17.27l-.13,9.35,0,9.11c.31,5.46.65,10.51.65,15.94a.3.3,0,0,1-.3.3H28a.3.3,0,0,1-.3-.32l-1-16.05v0l1.45-19.11a.3.3,0,0,1,.18-.25l.71-.36h-.13l-8.26.13.77.42a.29.29,0,0,1,.15.25l.84,13.89a.13.13,0,0,1,0,.06l-1.81,10.9L22,49.55a.59.59,0,0,1,0,.13v6.68a.3.3,0,0,1-.3.3H4.81a.3.3,0,0,1-.3-.31l-.45-8ZM40.93,16.61a.3.3,0,0,1,0,.59H31.12l.36,2.7c2.56,0,5.13,0,7.68,0,6.88,0,13.75-.12,20.61-.16l-.16-.82a.22.22,0,0,1,0-.08V14.56l-.17-1.21c-9,.06-18,.11-27.06.11h-.65l-.36,1.32-.24,1.83Zm15.63-.89h-7a.3.3,0,0,0,0,.6h7a.3.3,0,0,0,0-.6ZM60,13.35l.16,1.16v4.26l.19.93,4,0q12.75,0,25.48.07l0-3.3H79.09a.3.3,0,0,1,0-.6H89.8l-.62-2.61-25.39.08-3.76,0ZM30.88,19.91l-.39-3v-.08l.28-2.18s0,0,0,0l.32-1.18H16.75L11.2,14.64,9.7,15.79l.21,3.27,1.76.78,7.88.24c3.76-.06,7.55-.13,11.33-.17Zm-6.6-3H17.2a.3.3,0,0,0,0,.59h7.08a.3.3,0,0,0,0-.59Zm47.13.41h-4.5a.3.3,0,0,0,0,.6h4.5a.3.3,0,0,0,0-.6ZM87.51,45.8a.3.3,0,0,1,0,.59H83.32l.54,9.67H96.47l1.19-11.13-.36-5.71H86.49a.3.3,0,0,1,0-.6H97.26l-.36-5.69-1.51-11.6-.84-.95-4.33,0L84,23l-.68,4.3h7.89a.3.3,0,0,1,0,.59h-8L81.56,38.71l1.69,7.09ZM83.26,56.06l-.55-9.92L81,38.8a.53.53,0,0,1,0-.13l2.52-15.93a.29.29,0,0,1,.18-.25l5.06-2.15-4.94,0L81,22.4,79.72,37.82,80,56.06ZM60,49.87a.3.3,0,0,1,0,.6H51.73l.12,5.59H67.23l-.38-3.2-.31-4.66v0L67,41.74H62.79a.3.3,0,0,1,0-.59h4.14L64.64,30.43H54.71a.3.3,0,0,1,0-.6h9.83l-.65-9.55-10.8.19-.65.77-.62,19.34.59,1.63a.5.5,0,0,1,0,.12l-.17,1.86s0,.06,0,.09l-.61,1.63.08,4ZM64.5,20.49l.65,9.45,2.43,11.44a.25.25,0,0,1,0,.09l-.46,6.71.31,4.62.39,3.26h3.79l-1.3-16.32-3-8.2a.3.3,0,0,1,0-.1l-.27-5.18-1.35-5.13-1.22-.64ZM35.79,25.81h-4.5a.3.3,0,0,0,0,.59h4.5a.3.3,0,0,0,0-.59Zm1.64,11a.3.3,0,0,1,0,.6h-9.9l-.22,2.84,1,15.78H41.17l-.36-8.27h-8a.3.3,0,0,1,0-.6h7.92l0-.62-.84-10.94v-12l-.39-3.19H37.38l-7,.06-1.65.84L27.57,36.84Zm2.72-16.17.36,2.91v12c.54,7,1,13.48,1.25,20.46h1.89V51.89L43,40.45c0-6.2,0-12.11.08-18.31l-2.94-1.47ZM15.11,31a.3.3,0,0,1,0,.6H6.67l-.19,4.71v.06L4.7,48.08h7.89a.3.3,0,0,1,0,.6H4.67l.42,7.38H16.47L17,53.13l-.3-7v0l.3-3H12.77a.3.3,0,0,1,0-.59H17l.17-1.75,1.22-6.94-.55-11.34-2.38-1.92-3.84-.12L7.9,21,7,22.55,6.69,31Zm1.34-10.37,1.88,1.51a.27.27,0,0,1,.11.21L19,33.79a.14.14,0,0,1,0,.09l-1.22,7-.53,5.25.3,7a.08.08,0,0,1,0,.07l-.46,2.86h4.29V49.72L20,46.34a.2.2,0,0,1,0-.17l1.82-11L21,21.52l-1.55-.85Z"/></svg>