<svg id="_ÎÓÈ_1" data-name="—ÎÓÈ 1" xmlns="http://www.w3.org/2000/svg" viewBox="0 0 139.74 118.74"><defs><style>.cls-1,.cls-2{fill:#e0e0e0;}.cls-2,.cls-3,.cls-5,.cls-7{fill-rule:evenodd;}.cls-3,.cls-4{fill:#c9c2c0;}.cls-5,.cls-6{fill:#a99a93;}</style></defs><rect class="cls-1" x="2.4" y="90.91" width="118.38" height="9.48"/><rect class="cls-1" x="2.4" y="90.91" width="118.38" height="3.04"/><rect class="cls-1" x="75" y="59.08" width="10.13" height="5.48"/><path class="cls-2" d="M74.1,58.35v1.12H86V58.35c0-4.82-3.86-4.57-6-8C78,53.78,74.1,53.53,74.1,58.35Z"/><path class="cls-3" d="M74.1,58.35v1.12H86V58.35A8.4,8.4,0,0,0,86,57.3H74.17A6.85,6.85,0,0,0,74.1,58.35Z"/><path class="cls-2" d="M82.6,52.92a9.19,9.19,0,0,1-2.54-2.58,9,9,0,0,1-2.53,2.58Z"/><path class="cls-3" d="M84.16,64.56H82.33V62.11c0-1.1.55-1.12.92-1.44.37.32.91.34.91,1.44v2.45Zm-2.79,0H78.76V62.11c0-1.1.78-1.12,1.3-1.44.53.32,1.31.34,1.31,1.44v2.45Zm-3.57,0H76V62.11c0-1.1.54-1.12.91-1.44.37.32.92.34.92,1.44Z"/><rect class="cls-1" x="75" y="67.77" width="11.93" height="23.14"/><polygon class="cls-2" points="103.65 61.94 100.86 61.94 101.04 57.92 103.47 57.92 103.65 61.94"/><polygon class="cls-2" points="104.99 90.91 99.4 90.91 100.74 61.94 103.65 61.94 104.99 90.91"/><polygon class="cls-3" points="104.65 72.02 99.75 72.02 99.7 73.08 104.7 73.08 104.65 72.02"/><polygon class="cls-3" points="105.11 81.92 99.29 81.92 99.24 82.98 105.16 82.98 105.11 81.92"/><polygon class="cls-3" points="104.18 61.94 104.13 60.88 100.26 60.88 100.21 61.94 104.18 61.94"/><path class="cls-3" d="M100.35,57.17a1.9,1.9,0,0,0,.16.75h3.38a1.9,1.9,0,0,0,.15-.75c0-1.5-1.19-1.42-1.84-2.49C101.55,55.75,100.35,55.67,100.35,57.17Z"/><polygon class="cls-2" points="115.93 51.4 112.11 51.4 112.37 45.9 115.67 45.9 115.93 51.4"/><polygon class="cls-2" points="117.76 90.91 110.13 90.91 111.96 51.4 115.93 51.4 117.76 90.91"/><polygon class="cls-3" points="117.29 65.14 110.6 65.14 110.53 66.59 117.35 66.59 117.29 65.14"/><polygon class="cls-3" points="117.91 78.65 109.97 78.65 109.91 80.09 117.98 80.09 117.91 78.65"/><polygon class="cls-3" points="116.65 51.4 116.58 49.95 111.3 49.95 111.24 51.4 116.65 51.4"/><path class="cls-3" d="M111.42,44.88a2.45,2.45,0,0,0,.22,1h4.61a2.45,2.45,0,0,0,.21-1c0-2-1.63-1.93-2.52-3.39C113.05,43,111.42,42.84,111.42,44.88Z"/><rect class="cls-1" x="86.93" y="67.77" width="7.94" height="23.14"/><path class="cls-3" d="M84.08,90.91v-6c0-2.63-1.86-2.67-3.12-3.45-1.26.78-3.12.82-3.12,3.45v6Z"/><path class="cls-3" d="M84.08,79.32v-6c0-2.63-1.86-2.67-3.12-3.45-1.26.78-3.12.82-3.12,3.45v6Z"/><path class="cls-3" d="M92.73,90.91v-6c0-2.63-1.09-2.67-1.84-3.45-.74.78-1.83.82-1.83,3.45v6Z"/><path class="cls-3" d="M92.73,79.32v-6c0-2.63-1.09-2.67-1.84-3.45-.74.78-1.83.82-1.83,3.45v6Z"/><rect class="cls-4" x="86.93" y="64.56" width="7.94" height="3.21"/><rect class="cls-1" x="91.74" y="59.92" width="3.12" height="4.64"/><rect class="cls-4" x="93.69" y="55.29" width="1.17" height="4.64"/><path class="cls-2" d="M95.13,55.29a2.22,2.22,0,0,0-.86-1.58,2.21,2.21,0,0,0-.85,1.58Z"/><rect class="cls-4" x="88.23" y="59.92" width="1.17" height="4.64"/><path class="cls-2" d="M89.67,59.92a2.2,2.2,0,0,0-.86-1.57A2.19,2.19,0,0,0,88,59.92Z"/><rect class="cls-4" x="75" y="64.56" width="11.93" height="3.21"/><rect class="cls-4" x="107.1" y="90.91" width="13.68" height="9.48"/><rect class="cls-1" x="38.06" y="59.08" width="10.13" height="5.48"/><path class="cls-2" d="M49.09,58.35v1.12H37.16V58.35c0-4.82,3.86-4.57,6-8C45.23,53.78,49.09,53.53,49.09,58.35Z"/><path class="cls-3" d="M49.09,58.35v1.12H37.16V58.35a6.85,6.85,0,0,1,.07-1.05H49A8.4,8.4,0,0,1,49.09,58.35Z"/><path class="cls-2" d="M40.59,52.92a9,9,0,0,0,2.53-2.58,9.19,9.19,0,0,0,2.54,2.58Z"/><path class="cls-3" d="M39,64.56h1.83V62.11c0-1.1-.54-1.12-.91-1.44C39.57,61,39,61,39,62.11v2.45Zm2.8,0h2.61V62.11c0-1.1-.78-1.12-1.31-1.44-.52.32-1.3.34-1.3,1.44v2.45Zm3.57,0h1.83V62.11c0-1.1-.54-1.12-.91-1.44-.37.32-.92.34-.92,1.44Z"/><rect class="cls-1" x="36.26" y="67.77" width="11.93" height="23.14"/><polygon class="cls-2" points="19.54 61.94 22.33 61.94 22.15 57.92 19.72 57.92 19.54 61.94"/><polygon class="cls-2" points="18.19 90.91 23.79 90.91 22.45 61.94 19.54 61.94 18.19 90.91"/><polygon class="cls-3" points="18.54 72.02 23.44 72.02 23.49 73.08 18.49 73.08 18.54 72.02"/><polygon class="cls-3" points="18.08 81.92 23.9 81.92 23.95 82.98 18.03 82.98 18.08 81.92"/><polygon class="cls-3" points="19.01 61.94 19.06 60.88 22.93 60.88 22.98 61.94 19.01 61.94"/><path class="cls-3" d="M22.84,57.17a1.9,1.9,0,0,1-.16.75H19.3a1.9,1.9,0,0,1-.16-.75c0-1.5,1.2-1.42,1.85-2.49C21.64,55.75,22.84,55.67,22.84,57.17Z"/><polygon class="cls-2" points="7.26 51.4 11.08 51.4 10.82 45.9 7.51 45.9 7.26 51.4"/><polygon class="cls-2" points="5.43 90.91 13.06 90.91 11.23 51.4 7.26 51.4 5.43 90.91"/><polygon class="cls-3" points="5.9 65.14 12.59 65.14 12.66 66.59 5.83 66.59 5.9 65.14"/><polygon class="cls-3" points="5.28 78.65 13.21 78.65 13.28 80.09 5.21 80.09 5.28 78.65"/><polygon class="cls-3" points="6.54 51.4 6.61 49.95 11.89 49.95 11.95 51.4 6.54 51.4"/><path class="cls-3" d="M11.76,44.88a2.45,2.45,0,0,1-.21,1H6.94a2.45,2.45,0,0,1-.21-1c0-2,1.63-1.93,2.52-3.39C10.13,43,11.76,42.84,11.76,44.88Z"/><rect class="cls-1" x="28.33" y="67.77" width="7.94" height="23.14"/><path class="cls-3" d="M39.11,90.91v-6c0-2.63,1.86-2.67,3.12-3.45,1.25.78,3.11.82,3.11,3.45v6Z"/><path class="cls-3" d="M39.11,79.32v-6c0-2.63,1.86-2.67,3.12-3.45,1.25.78,3.11.82,3.11,3.45v6Z"/><path class="cls-3" d="M30.46,90.91v-6c0-2.63,1.09-2.67,1.83-3.45.75.78,1.84.82,1.84,3.45v6Z"/><path class="cls-3" d="M30.46,79.32v-6c0-2.63,1.09-2.67,1.83-3.45.75.78,1.84.82,1.84,3.45v6Z"/><rect class="cls-4" x="28.33" y="64.56" width="7.94" height="3.21"/><rect class="cls-1" x="28.33" y="59.92" width="3.12" height="4.64"/><rect class="cls-4" x="28.33" y="55.29" width="1.17" height="4.64"/><path class="cls-2" d="M28.06,55.29a2.21,2.21,0,0,1,.85-1.58,2.22,2.22,0,0,1,.86,1.58Z"/><rect class="cls-4" x="33.79" y="59.92" width="1.17" height="4.64"/><path class="cls-2" d="M33.52,59.92a2.19,2.19,0,0,1,.85-1.57,2.2,2.2,0,0,1,.86,1.57Z"/><rect class="cls-4" x="36.26" y="64.56" width="11.93" height="3.21"/><rect class="cls-1" x="48.19" y="59.47" width="26.81" height="31.44"/><rect class="cls-4" x="51.17" y="62.45" width="20.85" height="28.47"/><rect class="cls-4" x="48.19" y="55.13" width="26.81" height="4.33"/><path class="cls-2" d="M76.26,49.18a14.55,14.55,0,0,1-1.26,6H48.19a14.55,14.55,0,0,1-1.26-6c0-11.87,9.5-11.24,14.66-19.71C66.76,37.94,76.26,37.31,76.26,49.18Z"/><path class="cls-2" d="M75.78,52.92A15.79,15.79,0,0,1,75,55.14H48.19a14.62,14.62,0,0,1-.78-2.22Z"/><path class="cls-2" d="M54.77,36.23a23,23,0,0,0,6.82-6.76,23.14,23.14,0,0,0,6.82,6.76Z"/><rect class="cls-1" x="54.14" y="65.42" width="14.9" height="10.3"/><path class="cls-3" d="M54.14,90.91V75.73c0-6.27,4.45-6.38,7.45-8.24,3,1.86,7.45,2,7.45,8.24V90.91Z"/><path class="cls-3" d="M54.15,79.32V75.73c0-6.27,4.44-6.38,7.44-8.24,3,1.86,7.45,2,7.45,8.24v3.59Z"/><path class="cls-5" d="M64.05,90.91V86.2c0-2.07-1.46-2.11-2.46-2.72-1,.61-2.45.65-2.45,2.72v4.71Z"/><path class="cls-5" d="M63.37,79.32v-3.4c0-1.49-1.06-1.52-1.78-2-.71.44-1.77.47-1.77,2v3.4Z"/><rect class="cls-1" x="42.23" y="90.91" width="38.74" height="9.48"/><rect class="cls-4" x="2.4" y="90.91" width="13.68" height="9.48"/><rect class="cls-4" x="80.96" y="93.96" width="39.82" height="6.44"/><rect class="cls-4" x="2.4" y="93.96" width="39.82" height="6.44"/><rect class="cls-6" x="2.4" y="93.96" width="13.68" height="6.44"/><rect class="cls-6" x="107.1" y="93.96" width="13.68" height="6.44"/><path class="cls-7" d="M2.4,90.62H5.15l.47-10.23H5.21a.29.29,0,0,1-.3-.29L5,78.64a.31.31,0,0,1,.3-.29h.43l.54-11.46H5.83a.3.3,0,0,1-.29-.3l.06-1.46a.3.3,0,0,1,.3-.28h.44L7,51.7H6.54a.31.31,0,0,1-.3-.34l.07-1.42a.29.29,0,0,1,.29-.28H7L7.2,46.2H6.94a.29.29,0,0,1-.28-.2,2.84,2.84,0,0,1-.23-1.12,2.61,2.61,0,0,1,1.41-2.42A3.94,3.94,0,0,0,9,41.34a.3.3,0,0,1,.51,0,3.94,3.94,0,0,0,1.15,1.12,2.61,2.61,0,0,1,1.41,2.42A2.84,2.84,0,0,1,11.83,46a.29.29,0,0,1-.28.2h-.26l.16,3.46h.44a.29.29,0,0,1,.29.28l.07,1.42a.31.31,0,0,1-.3.34h-.41l.61,13.15h.44a.3.3,0,0,1,.3.3L13,66.58a.29.29,0,0,1-.29.31h-.41l.53,11.46h.43a.3.3,0,0,1,.3.3l.07,1.43a.3.3,0,0,1-.3.31h-.41l.47,10.23h4.57l.34-7.34H18a.3.3,0,0,1-.3-.3l.05-1.07a.3.3,0,0,1,.3-.28h.25l.38-8.25h-.22a.31.31,0,0,1-.3-.3l0-1.07a.31.31,0,0,1,.3-.29h.25l.43-9.48H19a.3.3,0,0,1-.3-.33l.05-1a.3.3,0,0,1,.3-.28h.24l.11-2.38H19.3A.29.29,0,0,1,19,58a2.17,2.17,0,0,1-.17-.84,2,2,0,0,1,1.07-1.85,2.79,2.79,0,0,0,.82-.79.3.3,0,0,1,.51,0,2.79,2.79,0,0,0,.82.79,2,2,0,0,1,1.07,1.85A2.2,2.2,0,0,1,23,58a.3.3,0,0,1-.27.17h-.22l.11,2.38h.36a.3.3,0,0,1,.3.29l0,1a.29.29,0,0,1-.29.31h-.22l.44,9.48h.24a.3.3,0,0,1,.3.3l.05,1a.3.3,0,0,1-.3.31h-.22l.39,8.25h.24a.29.29,0,0,1,.3.29l.05,1a.3.3,0,0,1-.3.31h-.22l.34,7.34h4V64.56h0v-9a.3.3,0,0,1-.26-.35,2.49,2.49,0,0,1,1-1.76.29.29,0,0,1,.35,0,2.49,2.49,0,0,1,1,1.76.3.3,0,0,1-.26.35v4h1.65a.3.3,0,0,1,.3.3v4.34h1.74v-4a.3.3,0,0,1-.26-.37,2.51,2.51,0,0,1,1-1.75.32.32,0,0,1,.35,0,2.51,2.51,0,0,1,1,1.75.31.31,0,0,1-.26.37v4h2.5V59.77h-.6a.31.31,0,0,1-.3-.3V58.35c0-3.11,1.51-4.2,3.18-5.41a9.57,9.57,0,0,0,2.79-2.69V47.66a.3.3,0,1,1,.59,0v2.59a9.67,9.67,0,0,0,2.78,2.69c.41.3.8.58,1.17.89A15.84,15.84,0,0,1,47,52.29a14.52,14.52,0,0,1-.33-3.11c0-7.42,3.63-10,7.64-13,2.46-1.78,5.06-3.66,7-6.84V24.12a.3.3,0,1,1,.59,0v5.27c2,3.18,4.57,5.06,7,6.84,4,2.9,7.64,5.53,7.64,13a15.27,15.27,0,0,1-.33,3.11,15.84,15.84,0,0,1-.41,1.54c.36-.31.76-.59,1.16-.89a9.57,9.57,0,0,0,2.79-2.69V47.66a.3.3,0,1,1,.59,0v2.59a9.57,9.57,0,0,0,2.79,2.69c1.67,1.21,3.18,2.3,3.18,5.41v1.12a.31.31,0,0,1-.3.3h-.6v4.49h2.5v-4a.3.3,0,0,1-.26-.37,2.51,2.51,0,0,1,1-1.75.32.32,0,0,1,.35,0,2.54,2.54,0,0,1,1,1.75.31.31,0,0,1-.26.37v4h1.74V59.92a.3.3,0,0,1,.3-.3h1.65v-4a.3.3,0,0,1-.26-.35,2.49,2.49,0,0,1,1-1.76.29.29,0,0,1,.35,0,2.49,2.49,0,0,1,1,1.76.3.3,0,0,1-.26.35v9h0V90.62h4l.34-7.34h-.22a.3.3,0,0,1-.3-.31l0-1a.29.29,0,0,1,.3-.29h.24l.38-8.25H99.7a.3.3,0,0,1-.3-.31l0-1a.3.3,0,0,1,.3-.3H100l.44-9.48h-.22a.29.29,0,0,1-.29-.31l0-1a.3.3,0,0,1,.3-.29h.36l.11-2.38h-.22a.3.3,0,0,1-.27-.17,2.2,2.2,0,0,1-.19-.87,2,2,0,0,1,1.07-1.85,2.79,2.79,0,0,0,.82-.79.3.3,0,0,1,.51,0,2.79,2.79,0,0,0,.82.79,2,2,0,0,1,1.07,1.85,2.17,2.17,0,0,1-.17.84.29.29,0,0,1-.28.2h-.11l.11,2.38h.24a.3.3,0,0,1,.3.28l0,1a.3.3,0,0,1-.3.33H104l.44,9.48h.25a.31.31,0,0,1,.3.29l0,1.07a.31.31,0,0,1-.3.3h-.22l.38,8.25h.25a.28.28,0,0,1,.29.28l0,1.07a.29.29,0,0,1-.29.3h-.22l.34,7.34h4.56l.48-10.23h-.41a.3.3,0,0,1-.3-.31l.07-1.43a.3.3,0,0,1,.29-.3h.44l.53-11.46h-.41a.29.29,0,0,1-.29-.31l.06-1.43a.29.29,0,0,1,.3-.3H111l.61-13.15h-.41a.31.31,0,0,1-.3-.34l.07-1.42a.28.28,0,0,1,.29-.28h.44l.16-3.46h-.26a.29.29,0,0,1-.28-.2,2.68,2.68,0,0,1-.23-1.12,2.61,2.61,0,0,1,1.41-2.42,3.94,3.94,0,0,0,1.15-1.12.3.3,0,0,1,.51,0,3.94,3.94,0,0,0,1.15,1.12,2.61,2.61,0,0,1,1.41,2.42,2.84,2.84,0,0,1-.23,1.12.29.29,0,0,1-.28.2H116l.16,3.46h.44a.3.3,0,0,1,.3.28l.07,1.42a.31.31,0,0,1-.3.34h-.41l.61,13.15h.44a.28.28,0,0,1,.29.28l.07,1.46a.3.3,0,0,1-.3.3h-.41l.53,11.46h.44a.31.31,0,0,1,.3.29l.07,1.46a.3.3,0,0,1-.3.29h-.41L118,90.62h2.74a.29.29,0,0,1,.3.29v9.48a.29.29,0,0,1-.3.3H2.4a.29.29,0,0,1-.29-.3V90.91a.29.29,0,0,1,.29-.29Zm3.34,0h7l-.47-10.23H6.22L5.74,90.62Zm12.77,0h5l-.34-7.34H18.85l-.34,7.34Zm10.11,0h1.54V84.94c0-2.18.72-2.71,1.42-3.23a5.28,5.28,0,0,0,.5-.42.29.29,0,0,1,.42,0h0a5.28,5.28,0,0,0,.5.42c.7.52,1.42,1.05,1.42,3.23v5.68H36V68.07H28.62V90.62Zm2.14,0h3.07V84.94c0-1.88-.59-2.33-1.17-2.76l-.37-.28-.36.28c-.58.43-1.17.88-1.17,2.76v5.68Zm5.8,0h2.25V84.94c0-2.23,1.2-2.75,2.38-3.27a7.19,7.19,0,0,0,.88-.43.29.29,0,0,1,.31,0,7.19,7.19,0,0,0,.88.43c1.18.52,2.38,1,2.38,3.27v5.68h2.25V68.07H36.56V90.62Zm2.85,0h5.64V84.94c0-1.84-1-2.29-2-2.72a8.46,8.46,0,0,1-.8-.38c-.26.14-.53.26-.8.38-1,.43-2,.88-2,2.72v5.68Zm9.08,0h2.38V62.45a.29.29,0,0,1,.3-.3H72a.29.29,0,0,1,.3.3V90.62H74.7V59.77H48.49V90.62Zm3,0h2.38V65.42a.29.29,0,0,1,.29-.29H69a.29.29,0,0,1,.3.29v25.2h2.38V62.74H51.47V90.62Zm3,0h4.4V86.2a2.51,2.51,0,0,1,1.91-2.63,6.33,6.33,0,0,0,.69-.34.29.29,0,0,1,.31,0,6.33,6.33,0,0,0,.69.34,2.51,2.51,0,0,1,1.91,2.63v4.42h4.4v-11H54.44v11Zm5,0h4.32V86.2a2,2,0,0,0-1.55-2.09l-.61-.28c-.19.1-.4.19-.6.28a2,2,0,0,0-1.56,2.09v4.42Zm15.87,0h2.25V84.94c0-2.23,1.2-2.75,2.38-3.27a7,7,0,0,0,.87-.43.31.31,0,0,1,.32,0,6.54,6.54,0,0,0,.88.43c1.17.52,2.38,1,2.38,3.27v5.68h2.25V68.07H75.3V90.62Zm2.84,0h5.64V84.94c0-1.84-1-2.29-2-2.72-.27-.12-.54-.24-.8-.38-.26.14-.53.26-.8.38-1,.43-2,.88-2,2.72v5.68Zm9.08,0h1.54V84.94c0-2.18.72-2.71,1.42-3.23.17-.14.35-.27.5-.42h0a.29.29,0,0,1,.42,0,5.28,5.28,0,0,0,.5.42c.7.52,1.42,1.05,1.42,3.23v5.68h1.53V68.07H87.22V90.62Zm2.14,0h3.07V84.94c0-1.88-.59-2.33-1.17-2.76l-.37-.28-.36.28c-.58.43-1.17.88-1.17,2.76v5.68Zm10.35,0h5l-.34-7.34h-4.29l-.34,7.34Zm10.73,0h7L117,80.39h-6.06l-.47,10.23ZM94.56,64.26v-4H92v4Zm-5.46,0v-4h-.58v4Zm-4.27,0V59.77H75.3v4.49h.37V62.11a1.46,1.46,0,0,1,.78-1.51,1,1,0,0,0,.23-.16.32.32,0,0,1,.4,0,1,1,0,0,0,.23.16,1.44,1.44,0,0,1,.78,1.51v2.15h.37V62.11a1.45,1.45,0,0,1,1.1-1.53,2.28,2.28,0,0,0,.35-.17.31.31,0,0,1,.31,0,2.28,2.28,0,0,0,.35.17,1.45,1.45,0,0,1,1.1,1.53v2.15H82V62.11a1.44,1.44,0,0,1,.78-1.51,1,1,0,0,0,.23-.16.32.32,0,0,1,.4,0,1,1,0,0,0,.23.16,1.46,1.46,0,0,1,.78,1.51v2.15Zm-1,0V62.11c0-.69-.26-.85-.51-1L83.25,61l-.11.07c-.25.15-.51.31-.51,1v2.15Zm-2.8,0V62.11c0-.66-.38-.82-.74-1L80.06,61l-.26.12c-.37.16-.74.32-.74,1v2.15Zm-3.57,0V62.11c0-.69-.26-.85-.51-1L76.88,61l-.11.07c-.25.15-.51.31-.51,1v2.15Zm-2.2.6v2.61H86.63V64.86Zm11.92,0v2.61h7.34V64.86Zm1.59-6.13a1.91,1.91,0,0,0-.49.89h1a1.84,1.84,0,0,0-.5-.89Zm5.75-3.15H94v4h.58v-4Zm-.29-1.49a1.94,1.94,0,0,0-.49.9h1a1.87,1.87,0,0,0-.5-.9ZM93,79.32v-6c0-2.18-.72-2.71-1.42-3.24a5,5,0,0,1-.5-.41.29.29,0,0,0-.43,0c-.15.15-.33.28-.5.42-.7.52-1.42,1-1.42,3.23v6a.29.29,0,0,0,.3.3h3.67a.29.29,0,0,0,.3-.3Zm-.6-6c0-1.88-.59-2.33-1.17-2.76l-.37-.28-.36.28c-.58.43-1.17.88-1.17,2.76V79h3.07V73.35Zm-8.05,6v-6c0-2.23-1.21-2.75-2.38-3.27a6.54,6.54,0,0,1-.88-.43.31.31,0,0,0-.32,0,7,7,0,0,1-.87.43c-1.18.52-2.38,1-2.38,3.27v6a.29.29,0,0,0,.29.3h6.24a.3.3,0,0,0,.3-.3Zm-.6-6c0-1.84-1-2.29-2-2.72-.27-.12-.54-.24-.8-.38-.26.14-.53.26-.8.38-1,.43-2,.88-2,2.72V79h5.64V73.35ZM77.63,53.21l-.3.22a8.83,8.83,0,0,0-2,1.81V57H85.6c-.38-1.82-1.54-2.66-2.8-3.57l-.3-.22Zm4.09-.59a8.65,8.65,0,0,1-1.66-1.74,8.62,8.62,0,0,1-1.65,1.74Zm-6.42,5v1.57H85.73v-.82a6.06,6.06,0,0,0,0-.75ZM34.66,64.26v-4h-.57v4Zm-.29-5.53a1.91,1.91,0,0,0-.49.89h1a1.84,1.84,0,0,0-.5-.89Zm-3.22,5.53v-4H28.63v4Zm-2.52-8.68v4h.57v-4Zm.28-1.49a1.94,1.94,0,0,0-.49.9h1a1.87,1.87,0,0,0-.5-.9Zm1.25,25.23a.29.29,0,0,0,.3.3h3.67a.29.29,0,0,0,.3-.3v-6c0-2.18-.72-2.71-1.42-3.23-.17-.14-.35-.27-.5-.42a.29.29,0,0,0-.43,0,5,5,0,0,1-.5.41c-.7.53-1.42,1.06-1.42,3.24v6Zm.6-6V79h3.07V73.35c0-1.88-.59-2.33-1.17-2.76l-.37-.28c-.11.1-.24.19-.36.28-.58.43-1.17.88-1.17,2.76Zm8.05,6a.29.29,0,0,0,.3.3h6.23a.29.29,0,0,0,.3-.3v-6c0-2.23-1.2-2.75-2.38-3.27a7.19,7.19,0,0,1-.88-.43.29.29,0,0,0-.31,0,7.19,7.19,0,0,1-.88.43c-1.18.52-2.38,1-2.38,3.27v6Zm.6-6V79h5.64V73.35c0-1.84-1-2.29-2-2.72a8.46,8.46,0,0,1-.8-.38c-.26.14-.53.26-.8.38-1,.43-2,.88-2,2.72Zm1.15-9.09V62.11c0-.69-.26-.85-.51-1L39.94,61l-.11.07c-.25.15-.51.31-.51,1v2.15Zm-1.83,0V62.11a1.44,1.44,0,0,1,.78-1.51,1,1,0,0,0,.23-.16.32.32,0,0,1,.4,0,1,1,0,0,0,.23.16,1.46,1.46,0,0,1,.78,1.51v2.15h.37V62.11a1.45,1.45,0,0,1,1.1-1.53,2.85,2.85,0,0,0,.35-.17.31.31,0,0,1,.31,0,2.28,2.28,0,0,0,.35.17,1.44,1.44,0,0,1,1.09,1.53v2.15h.37V62.11a1.45,1.45,0,0,1,.79-1.51,1.34,1.34,0,0,0,.23-.16.3.3,0,0,1,.39,0,1.88,1.88,0,0,0,.23.16,1.45,1.45,0,0,1,.79,1.51v2.15h.37V59.77H38.36v4.49Zm5.4,0V62.11c0-.66-.38-.82-.74-1L43.12,61l-.26.12c-.37.16-.74.32-.74,1v2.15Zm2.79,0V62.11c0-.69-.25-.85-.5-1L46.31,61l-.11.07c-.25.15-.51.31-.51,1v2.15ZM45.56,53.21H40.68a3.15,3.15,0,0,1-.29.22c-1.26.91-2.43,1.75-2.8,3.57h10.3V55.24a8.83,8.83,0,0,0-2-1.81l-.3-.22Zm-4.09-.59h3.31a8.65,8.65,0,0,1-1.66-1.74,8.62,8.62,0,0,1-1.65,1.74Zm6.42,5H37.49q0,.36,0,.75v.82H47.89V57.6ZM7.8,46.2l-.16,3.46h3.21l-.16-3.46ZM6.31,78.35h5.87l-.53-11.46H6.84L6.31,78.35Zm6.62.6H5.56l0,.85H13l0-.85Zm-6-14.1h4.62L11,51.7H7.54l-.6,13.15Zm5.37.59H6.19l0,.85h6.19l0-.85ZM6.89,50.25l0,.85h4.79l0-.85ZM9.25,42a5.53,5.53,0,0,1-1.06.93A2.13,2.13,0,0,0,7,44.88a2.28,2.28,0,0,0,.12.73h4.21a2.28,2.28,0,0,0,.12-.73,2.13,2.13,0,0,0-1.17-1.94A5.47,5.47,0,0,1,9.25,42ZM23.06,81.63l-.38-8.25H19.3l-.38,8.25Zm.56.59H18.36l0,.46h5.3l0-.46Zm-1-10.5-.44-9.48H19.82l-.44,9.48Zm.56.6H18.82l0,.46h4.38l0-.46Zm-.69-14.7a1.5,1.5,0,0,0-.75-1.81,3.83,3.83,0,0,1-.73-.63,4.11,4.11,0,0,1-.72.63,1.5,1.5,0,0,0-.76,1.81Zm-2.57,3H22l-.11-2.38H20l-.11,2.38Zm-.56.59,0,.46h3.34l0-.46Zm28.55,3.68H36.56v2.61H47.89V64.86ZM36,64.86H28.62v2.61H36V64.86Zm64.17,16.77h4.14l-.39-8.25h-3.37l-.38,8.25Zm-.56.59,0,.46h5.29l0-.46Zm1-10.5h3.22l-.44-9.48H101l-.44,9.48Zm-.56.6,0,.46h4.38l0-.46Zm.68-14.7h3a1.5,1.5,0,0,0-.76-1.81,4.11,4.11,0,0,1-.72-.63,4.16,4.16,0,0,1-.73.63,1.5,1.5,0,0,0-.76,1.81Zm2.58,3-.11-2.38h-1.85l-.11,2.38Zm.56.59h-3.3l0,.46h3.35l0-.46Zm11.54-15H112.5l-.16,3.46h3.21l-.16-3.46Zm1.49,32.15-.53-11.46h-4.81L111,78.35Zm-6.62.6,0,.85h7.45l0-.85Zm6-14.1-.61-13.15h-3.4l-.61,13.15Zm-5.37.59,0,.85H117l0-.85Zm5.42-15.19h-4.71l0,.85h4.79l0-.85ZM113.94,42a5.78,5.78,0,0,1-1,.93,2.13,2.13,0,0,0-1.17,1.94,2.28,2.28,0,0,0,.12.73H116a2,2,0,0,0,.12-.73A2.12,2.12,0,0,0,115,42.94a5.53,5.53,0,0,1-1.06-.93ZM48.49,59.17H74.7V55.43H48.49v3.74Zm-.85-6.55H75.55c0-.15.07-.3.1-.45a14.72,14.72,0,0,0,.31-3c0-7.12-3.51-9.66-7.39-12.47l-.25-.18H54.87l-.25.18c-3.88,2.81-7.39,5.35-7.39,12.47a14.65,14.65,0,0,0,.31,3c0,.15.06.3.1.45Zm27.75.59H47.8a15,15,0,0,0,.58,1.63H74.8a15,15,0,0,0,.59-1.63ZM55.69,35.94H67.5A22.55,22.55,0,0,1,61.59,30a22.52,22.52,0,0,1-5.9,5.91ZM63.07,79V75.92A1.38,1.38,0,0,0,62,74.49l-.41-.19-.4.19a1.38,1.38,0,0,0-1.07,1.43V79Zm-3.55,0V75.92a1.89,1.89,0,0,1,1.43-2l.49-.23a.29.29,0,0,1,.31,0,2.79,2.79,0,0,0,.49.24,1.89,1.89,0,0,1,1.43,2V79h5.08v-3.3c0-4.66-2.57-5.79-5.08-6.88a21,21,0,0,1-2.08-1,19.84,19.84,0,0,1-2.07,1c-2.51,1.09-5.08,2.22-5.08,6.88V79Zm-5.08-6.75c1-2.28,2.92-3.14,4.84-4a17.33,17.33,0,0,0,2.16-1.06.29.29,0,0,1,.31,0,17.33,17.33,0,0,0,2.16,1.06c1.92.84,3.88,1.7,4.84,4V65.72H54.44v6.56ZM106.8,100.1V94.26H81.26v5.84Zm0-6.44V91.21H81.26v2.45Zm.6-2.45v2.45h13.09V91.21Zm0,3.05v5.84h13.09V94.26Zm-91-3.05v2.45H41.93V91.21Zm0,3.05v5.84H41.93V94.26Zm-.59,5.84V94.26H2.7v5.84Zm0-6.44V91.21H2.7v2.45Zm26.73-2.45v2.45H80.66V91.21Zm0,3.05v5.84H80.66V94.26Z"/></svg>