<svg id="_ÎÓÈ_1" data-name="—ÎÓÈ 1" xmlns="http://www.w3.org/2000/svg" viewBox="0 0 65.31 115.45"><defs><style>.cls-1{fill:#e7e9ef;}.cls-1,.cls-3,.cls-4{fill-rule:evenodd;}.cls-2{fill:#b6bdcf;}.cls-3{fill:#8e95a9;}</style></defs><path class="cls-1" d="M25.72,95.11,25,72l-2-.35L23.35,56,21,55.1l.2-8.09L20,41.79a5.89,5.89,0,0,1,.43-1.17,11.57,11.57,0,0,1-2.12-3.89,11.5,11.5,0,0,1-2.83-4.07l-1.93-5.4a2.73,2.73,0,0,1-1-1.93.88.88,0,0,1-.15-1.06.42.42,0,0,1,.05-.74c-.11-.66.26-.71.75-.78H11.33v-1l1.36-.46V1.92L14.15.3,15.6,1.92V21.29l1.36.46v1H15.25c.57.2.57.57.52,1.9a1.81,1.81,0,0,1-.36,1.05,65.05,65.05,0,0,1,4,5.47A15.62,15.62,0,0,1,20.93,35c.85.67,1.56,1.53,2.37,2.18a1.21,1.21,0,0,1,.37-.07l4.25,4.25h1.9L29.93,38c-2.3-1.93-2-6.74,2-6.74s4.31,4.83,2,6.75l.11,3.4H36l6.11-2.92.27.16c.6-.36,1.18-.68,1.18-.68a13.93,13.93,0,0,1,.43-2.45,10.1,10.1,0,0,1-3-7.39V21.4a16.45,16.45,0,0,1,11.16,0v6.68a9.73,9.73,0,0,1-4.47,8.48,21.59,21.59,0,0,1-.8,2.74,3.86,3.86,0,0,1-.75,1,12,12,0,0,0-1,1.3,7.48,7.48,0,0,1,.28.84l-2.17,5.7L43,52.86l-1.32.67L42.07,67l-1.79.12-.1,28Z"/><rect class="cls-2" x="24" y="95.11" width="17.27" height="12.88"/><polygon class="cls-3" points="20.09 99.19 45.17 99.19 47.72 107.99 17.54 107.99 20.09 99.19"/><path class="cls-4" d="M29.28,35.22a2.38,2.38,0,0,1,1.36-2.48,3,3,0,0,1,1.29-.29,3,3,0,0,1,1.29.29,2.37,2.37,0,0,1,1.36,2.48,8.26,8.26,0,0,1-.4,2.08,4,4,0,0,0,.65-1.13,4.43,4.43,0,0,0,.27-1.52,3.67,3.67,0,0,0-.3-1.44,2.91,2.91,0,0,0-2.86-1.7,2.91,2.91,0,0,0-2.86,1.7,3.51,3.51,0,0,0-.3,1.44,4.43,4.43,0,0,0,.27,1.52,3.93,3.93,0,0,0,.63,1.11,8.18,8.18,0,0,1-.4-2.06ZM14.57,23H13.16c-.3.05-.53.09-.47.44a.3.3,0,0,1-.17.32c-.12.06-.09.16,0,.23a.3.3,0,0,1,.08.39c-.15.32-.07.46.13.73a.32.32,0,0,1,.06.15,3.18,3.18,0,0,0,.15.68l1.63-1V23Zm2.09-.59V22l-2.51-.85L11.63,22v.49Zm-2.42-1.94,1.06.36V2L14.15.74,13,2V20.87l1.06-.36a.31.31,0,0,1,.19,0ZM14.37.1l1.45,1.63a.26.26,0,0,1,.07.19V21.07l1.13.39a.3.3,0,0,1,.23.29v1A.29.29,0,0,1,17,23H16a4.87,4.87,0,0,1,.08,1.62,2.27,2.27,0,0,1-.29,1A59,59,0,0,1,19.68,31a15.31,15.31,0,0,1,1.51,3.8c.77.63,1.42,1.39,2.18,2,.17,0,.38-.09.52,0L28,41.06h1.49l.1-3a4.51,4.51,0,0,1-1.14-1.71,4.93,4.93,0,0,1-.3-1.73A4.17,4.17,0,0,1,28.53,33a3.47,3.47,0,0,1,3.41-2,3.47,3.47,0,0,1,3.41,2,4.35,4.35,0,0,1,.34,1.68,4.94,4.94,0,0,1-.31,1.73,4.43,4.43,0,0,1-1.14,1.72l.09,3h1.55l6-2.88c.16-.08.27,0,.4.08l.89-.52a15.72,15.72,0,0,1,.39-2.18,9.21,9.21,0,0,1-1.43-1.8,10.8,10.8,0,0,1-1.57-5.68V21.4a.3.3,0,0,1,.21-.28,16.79,16.79,0,0,1,11.36,0,.3.3,0,0,1,.19.28v6.68a10.79,10.79,0,0,1-1.56,5.68,9.26,9.26,0,0,1-3,3c-.06.26-.13.52-.2.77-.24.91-.5,1.68-.58,1.88a4.71,4.71,0,0,1-.81,1.12,10.91,10.91,0,0,0-.87,1.13,6.82,6.82,0,0,1,.24.73.31.31,0,0,1,0,.19l-2.15,5.66-.19,4.64a.29.29,0,0,1-.16.25L42,53.71,42.36,67a.3.3,0,0,1-.27.31l-1.51.1-.1,27.45h.79a.29.29,0,0,1,.29.29V98.9h3.61a.28.28,0,0,1,.29.24L48,107.91a.3.3,0,0,1-.29.38H17.54a.3.3,0,0,1-.3-.3.36.36,0,0,1,0-.1l2.55-8.78a.28.28,0,0,1,.28-.21H23.7V95.11a.29.29,0,0,1,.3-.29h1.41l-.72-22.57L22.94,72a.3.3,0,0,1-.24-.33l.35-15.4-2.18-.85a.3.3,0,0,1-.19-.29l.2-8-1.19-5.18a.33.33,0,0,1,0-.14,5.87,5.87,0,0,1,.38-1.06A12.49,12.49,0,0,1,18,36.88,23.85,23.85,0,0,1,16.41,35a8,8,0,0,1-1.23-2.26l-1.9-5.34a3,3,0,0,1-1.07-2,1.13,1.13,0,0,1-.22-1.1.7.7,0,0,1,.09-.95,1.31,1.31,0,0,1,0-.35h-.76a.3.3,0,0,1-.3-.29v-1a.3.3,0,0,1,.23-.29l1.14-.39V1.92a.26.26,0,0,1,.07-.19L13.92.1a.31.31,0,0,1,.45,0ZM27,94.82c-.06-2.08-.44-14.34-.22-22.33.12-4.37.35-7.88.65-10.73.29-2.7.63-4.81,1-6.51a5.51,5.51,0,0,1-.62-.13,10.7,10.7,0,0,0-1.53,4.51A105,105,0,0,0,25.28,72L26,94.82Zm.6,0h1.76c0-2.53.16-20.67.42-27.77.15-3.88.31-7.75.51-11.63q-.7,0-1.29-.09a65.35,65.35,0,0,0-1,6.49c-.3,2.84-.54,6.33-.66,10.69-.22,8,.16,20.28.23,22.31Zm2.35,0h3.63c0-1.57.16-9.25,0-18.77s-.31-18.86-.34-20.63c-.78,0-1.57,0-2.35,0q-.3,5.81-.5,11.63c-.27,7.11-.41,25.22-.43,27.75Zm4.22,0h1.8c0-1.83.25-11.93,0-19.28s-.66-18.26-.73-20.21l-1.41.07c0,1.73.18,11,.35,20.64s0,17.19,0,18.78Zm2.39,0h1.81c.16-2.28-.09-9.68-.31-16-.13-4.1-.26-7.73-.24-9.15,0-3.29.32-8.6.38-9.75l-.8-.28a.27.27,0,0,1-.2-.3V55.11c-.35.06-.82.12-1.37.17.07,1.88.47,12.83.73,20.24s0,17.43,0,19.3Zm2.41,0h1L40,67.11c-.05-1.85-.14-4.47-.29-6.62l-1-.33c-.07,1.43-.33,6.44-.37,9.55,0,1.41.11,5,.25,9.14.21,6.24.46,13.59.31,16ZM25.52,56.3a.3.3,0,0,1-.6,0L25,54.21A7.43,7.43,0,0,1,23.71,53L23.3,71.4l1.39.25a103.2,103.2,0,0,1,.94-12.11,12,12,0,0,1,1.43-4.48,3.88,3.88,0,0,1-1.49-.47l-.05,1.71Zm-2.46-.71.08-3.36a5.36,5.36,0,0,1-.84-1.56l-.47-3.46-.36,0-.19,7.65,1.78.69Zm-.14-4.88c.28.57,2,3.73,4.38,3.76l-.49-5.87A1.93,1.93,0,0,1,26,47.23a18.13,18.13,0,0,1,1.69-5.73l-4.08-4.08a3.15,3.15,0,0,0-1.63,1.27,9.83,9.83,0,0,0-1.64,3.09L21,44.66A23,23,0,0,1,22,39.81a.3.3,0,0,1,.57.19,23.32,23.32,0,0,0-1.23,6.66A4.19,4.19,0,0,1,24,47c.14-2,.53-4.58.53-4.59a.3.3,0,0,1,.59.1s-.46,3-.55,5a1,1,0,0,1-.46.9,4,4,0,0,0-1.23,2.33Zm-.2-1.34a3.83,3.83,0,0,1,1.05-1.44c.7-.6-1-.75-1.34-.75l.29,2.19ZM15.17,23v2.48a1.62,1.62,0,0,0,.3-.88,4.31,4.31,0,0,0-.06-1.4c0-.09-.11-.14-.25-.2Zm0,2.84a51.37,51.37,0,0,1,4,5.44,15.05,15.05,0,0,1,1.47,3.75.27.27,0,0,0,.1.16c.72.57,1.33,1.27,2,1.88a5.05,5.05,0,0,0-1.3,1.21,11.52,11.52,0,0,0-1.1,1.74,11.56,11.56,0,0,1-1.45-2.5,2.42,2.42,0,0,0,.39.21.3.3,0,0,0,.26-.53,8.53,8.53,0,0,1-2.67-2.58,7.34,7.34,0,0,1-1.15-2.09l-1.87-5.24h.7a.62.62,0,0,0,.6-.6v-.85Zm-1.45.85v-.52l.85-.51v1ZM28.23,41.65a17.48,17.48,0,0,0-1.69,5.59,1.32,1.32,0,0,0,1,1,3,3,0,0,0,2.21-.47.3.3,0,0,1,.33.5,3.63,3.63,0,0,1-2.66.55l.48,5.7a16,16,0,0,0,3.83.3l-.1-12.54a5,5,0,0,1-1.29-.2,1.41,1.41,0,0,1-.74-.46Zm8-.11a16.72,16.72,0,0,1,1.67,5.64,1.65,1.65,0,0,1-.31.9l.31,3.69a7.67,7.67,0,0,1,3.37-2.37,3.73,3.73,0,0,0,.8-.39,16.44,16.44,0,0,0-1.61-7.77A.3.3,0,0,1,41,41a17.61,17.61,0,0,1,1.69,7.41,3.3,3.3,0,0,0,.27-.5l1-2.63-1.49-2.86a.3.3,0,0,1,.53-.28s.67,1.27,1.25,2.39l.78-2a5.62,5.62,0,0,0-.75-1.65,7.08,7.08,0,0,0-2.24-2L38.1,40.66a7.14,7.14,0,0,1,1.28,2.4.29.29,0,0,1-.56.18,6.24,6.24,0,0,0-1.28-2.31l-1.3.61ZM37,48.6a2,2,0,0,1-.58.25,3.65,3.65,0,0,1-2.69-.55.3.3,0,0,1,.33-.5,3,3,0,0,0,2.22.47,1.31,1.31,0,0,0,1-1,16.44,16.44,0,0,0-1.68-5.59H34.25a1.43,1.43,0,0,1-.73.46,5,5,0,0,1-1.28.2l.09,12.54a33.24,33.24,0,0,0,4.84-.35l.24-1.67L37,48.6Zm9.45-24a1.63,1.63,0,1,0,1.63,1.63,1.63,1.63,0,0,0-1.63-1.63Zm0,.6a1,1,0,1,0,1,1,1,1,0,0,0-1-1ZM44.32,30.6a14.55,14.55,0,0,0,2.17-.7,14.69,14.69,0,0,0,2.18.7A.3.3,0,0,0,48.8,30a12.64,12.64,0,0,1-1.57-.47,6.32,6.32,0,0,0,.92-.59,3,3,0,0,0,.94-4.17,3.86,3.86,0,0,0-1.32-1.28.3.3,0,0,0-.3.51,3.31,3.31,0,0,1,1.12,1.08A2.58,2.58,0,0,1,49,26.45a2.61,2.61,0,0,1-1.19,2,6.65,6.65,0,0,1-1.3.76,7.3,7.3,0,0,1-1.3-.76,2.41,2.41,0,0,1-.79-3.39A3.23,3.23,0,0,1,45.52,24a.3.3,0,0,0-.31-.51,4,4,0,0,0-1.32,1.28A3,3,0,0,0,44.83,29a7,7,0,0,0,.93.59,13.35,13.35,0,0,1-1.58.47.3.3,0,0,0,.14.58Zm2.06,6.79A8.84,8.84,0,0,1,44.11,36a14,14,0,0,0-.3,1.85.76.76,0,0,0,.44.37.3.3,0,0,1-.13.58,1.31,1.31,0,0,1-.72-.49l-.51.3a6.94,6.94,0,0,1,1.89,1.85c.13.19.24.37.34.55a8.56,8.56,0,0,1,.71-.9,4.17,4.17,0,0,0,.71-1c.06-.14.31-.87.55-1.78l.06-.22-.54.24a.26.26,0,0,1-.23,0ZM39.69,59.86l0-8.94a4,4,0,0,0-1.67,2l-.27,1.87v4.42l1.95.67Zm.58-9.3,0,9.7s.18,2.57.28,6.51l1.19-.08-.39-13.13c-.06-.8-.18-2.31-.26-3.46a9.38,9.38,0,0,0-.84.46Zm1.42-.68.24,3.18.77-.39.15-3.62a4.25,4.25,0,0,1-1.16.83ZM30.21,38.52l-.09,2.84s.15.1.41.18a4.91,4.91,0,0,0,1.4.18,5,5,0,0,0,1.41-.18c.25-.08.41-.15.41-.18l-.09-2.83-.17.09a2.52,2.52,0,0,1-.42.44,1.73,1.73,0,0,1-2.28,0,3.1,3.1,0,0,1-.43-.45l-.15-.09Zm.69-5.25a2.52,2.52,0,0,1,2.06,0,1.82,1.82,0,0,1,1,1.9,4.91,4.91,0,0,1-1.3,3.43,1.18,1.18,0,0,1-.76.3,1.23,1.23,0,0,1-.76-.3,5,5,0,0,1-1.3-3.43,1.83,1.83,0,0,1,1-1.9Zm11.78.18a8.57,8.57,0,0,0,3.81,3.35,8.47,8.47,0,0,0,3.81-3.35,10.21,10.21,0,0,0,1.48-5.37V21.6a16.49,16.49,0,0,0-10.57,0v6.48a10.21,10.21,0,0,0,1.47,5.37ZM24.3,98.9H41V95.41H24.3V98.9ZM45,99.49H20.32l-2.38,8.21H47.33Z"/></svg>