<svg id="_ÎÓÈ_1" data-name="—ÎÓÈ 1" xmlns="http://www.w3.org/2000/svg" viewBox="0 0 131.9 134.51"><defs><style>.cls-1{fill:#fd4d41;}.cls-1,.cls-10,.cls-11,.cls-12,.cls-13,.cls-16,.cls-17,.cls-18,.cls-19,.cls-2,.cls-21,.cls-22,.cls-3,.cls-4,.cls-5,.cls-6,.cls-7{fill-rule:evenodd;}.cls-2{fill:#219f8f;}.cls-3,.cls-9{fill:#f4b00f;}.cls-4{fill:#ffd52f;}.cls-5,.cls-8{fill:#ff5e45;}.cls-6{fill:#e2e3e7;}.cls-15,.cls-7{fill:#488b69;}.cls-10,.cls-20{fill:#351911;}.cls-11{fill:#8ae678;}.cls-12{fill:#559c46;}.cls-13,.cls-14{fill:#f8f8f8;}.cls-16{fill:#48c469;}.cls-17{fill:#e987df;}.cls-18{fill:#6e8ec8;}.cls-19{fill:#ffcc2f;}.cls-21{fill:#30b7f1;}</style></defs><path class="cls-1" d="M88.09,56a4.47,4.47,0,0,1,1.07-7.54c3.48-1.52,3.51-4.26,3.78-7.43h.44c.28,3.17.3,5.91,3.79,7.43A4.48,4.48,0,0,1,98.24,56Z"/><path class="cls-1" d="M88.09,56l0,0,6.06-10.49a4.86,4.86,0,0,0,1.14,1.74L90.2,56Z"/><path class="cls-2" d="M95.26,47.23a6.13,6.13,0,0,0,1.54,1.06L92.35,56H90.2Z"/><path class="cls-1" d="M96.8,48.29l.37.17a4.73,4.73,0,0,1,1.23.8L94.5,56H92.35Z"/><path class="cls-2" d="M98.4,49.26A4.41,4.41,0,0,1,99.56,51l-2.9,5H94.5Z"/><path class="cls-2" d="M88.06,56a4.4,4.4,0,0,1-1.21-1.62l4-6.94a5.26,5.26,0,0,0,1.65-2.85l1-1.8a10,10,0,0,0,.58,2.72Z"/><path class="cls-3" d="M92.21,45.49A16.25,16.25,0,0,0,92.94,41h.44a15.87,15.87,0,0,0,.74,4.46Z"/><path class="cls-4" d="M93.16,41.79A.77.77,0,1,0,92.4,41,.77.77,0,0,0,93.16,41.79Z"/><polygon class="cls-5" points="57.55 47.94 79.07 47.94 70.52 19.02 66.1 19.02 57.55 47.94"/><polygon class="cls-5" points="70.76 33.87 69.13 19.02 67.49 19.02 65.87 33.87 70.76 33.87"/><path class="cls-6" d="M76.48,43.31c-1.71,0-3.09,2.08-3.09,4.63h6.17C79.56,45.39,78.18,43.31,76.48,43.31Z"/><path class="cls-6" d="M60.15,43.31c-1.71,0-3.09,2.08-3.09,4.63h6.17C63.23,45.39,61.85,43.31,60.15,43.31Z"/><path class="cls-6" d="M68.31,43.31a4.87,4.87,0,0,1,5.08,4.63H63.23A4.87,4.87,0,0,1,68.31,43.31Z"/><path class="cls-6" d="M75.55,39.21c-1.51,0-2.73,1.84-2.73,4.1h5.47C78.29,41.05,77.06,39.21,75.55,39.21Z"/><path class="cls-6" d="M61.07,39.21c-1.51,0-2.73,1.84-2.73,4.1h5.47C63.81,41.05,62.58,39.21,61.07,39.21Z"/><path class="cls-6" d="M68.31,39.21a4.32,4.32,0,0,1,4.51,4.1h-9A4.31,4.31,0,0,1,68.31,39.21Z"/><path class="cls-6" d="M74.62,35.64c-1.32,0-2.38,1.6-2.38,3.57H77C77,37.24,75.94,35.64,74.62,35.64Z"/><path class="cls-6" d="M62,35.64c-1.31,0-2.38,1.6-2.38,3.57h4.77C64.39,37.24,63.32,35.64,62,35.64Z"/><path class="cls-6" d="M68.31,35.64a3.76,3.76,0,0,1,3.93,3.57H64.39A3.76,3.76,0,0,1,68.31,35.64Z"/><polygon class="cls-7" points="60.17 33.87 61.19 35.64 75.43 35.64 76.45 33.87 60.17 33.87"/><polygon class="cls-7" points="57.06 47.94 58.47 50.38 78.15 50.38 79.56 47.94 57.06 47.94"/><rect class="cls-8" x="58.47" y="50.38" width="19.69" height="11.64"/><rect class="cls-8" x="66.1" y="15.15" width="4.42" height="3.88"/><rect class="cls-9" x="66.1" y="13.9" width="4.42" height="1.25"/><path class="cls-4" d="M66.1,13.9a1.95,1.95,0,0,1,.47-3.28,2.56,2.56,0,0,0,1.55-2.1h.39a2.54,2.54,0,0,0,1.55,2.1,2,2,0,0,1,.46,3.28Z"/><path class="cls-4" d="M68.31,9.61a.76.76,0,1,0-.76-.76A.76.76,0,0,0,68.31,9.61Z"/><polygon class="cls-5" points="37.24 69.43 49.66 69.43 49.66 83.28 37.24 90.58 37.24 69.43"/><path class="cls-10" d="M44,73.83v4.51H42.89V73.83A.56.56,0,0,1,44,73.83Z"/><rect class="cls-8" x="38.37" y="56" width="10.15" height="11.09"/><path class="cls-6" d="M43.45,63.61a3.32,3.32,0,0,1,3.12,3.47H40.33A3.32,3.32,0,0,1,43.45,63.61Z"/><path class="cls-6" d="M38.11,63.61c-1.23,0-2.22,1.56-2.22,3.47h4.44C40.33,65.17,39.34,63.61,38.11,63.61Z"/><path class="cls-6" d="M48.79,63.61c-1.23,0-2.22,1.56-2.22,3.47H51C51,65.17,50,63.61,48.79,63.61Z"/><polygon class="cls-7" points="49.66 69.43 51.01 67.08 35.89 67.08 37.24 69.43 49.66 69.43"/><path class="cls-11" d="M38.37,56a4.47,4.47,0,0,1,1.08-7.54C42.93,46.94,43,44.2,43.23,41h.44c.27,3.17.3,5.91,3.78,7.43A4.47,4.47,0,0,1,48.53,56Z"/><path class="cls-11" d="M38.37,56l0,0,6.06-10.49a4.86,4.86,0,0,0,1.14,1.74L40.49,56Z"/><path class="cls-12" d="M45.55,47.23a6.13,6.13,0,0,0,1.54,1.06L42.64,56H40.49Z"/><path class="cls-11" d="M47.09,48.29l.36.17a4.42,4.42,0,0,1,1.23.8L44.79,56H42.64Z"/><path class="cls-12" d="M48.68,49.26A4.32,4.32,0,0,1,49.85,51l-2.91,5H44.79Z"/><path class="cls-12" d="M38.35,56a4.4,4.4,0,0,1-1.21-1.62l4-6.94a5.19,5.19,0,0,0,1.64-2.85l1-1.8a10.41,10.41,0,0,0,.59,2.72Z"/><path class="cls-3" d="M42.49,45.49A15.87,15.87,0,0,0,43.23,41h.44a15.87,15.87,0,0,0,.74,4.46Z"/><path class="cls-4" d="M43.45,41.79a.77.77,0,1,0-.76-.76A.77.77,0,0,0,43.45,41.79Z"/><rect class="cls-8" x="48.53" y="65.91" width="10.15" height="13.92"/><path class="cls-13" d="M53.6,76.36a3.3,3.3,0,0,1,3.12,3.47H50.48A3.31,3.31,0,0,1,53.6,76.36Z"/><path class="cls-13" d="M48.26,76.36C47,76.36,46,77.91,46,79.83h4.44C50.48,77.91,49.49,76.36,48.26,76.36Z"/><path class="cls-13" d="M58.94,76.36c-1.22,0-2.22,1.55-2.22,3.47h4.44C61.16,77.91,60.17,76.36,58.94,76.36Z"/><path class="cls-6" d="M53.6,72.92c1.38,0,2.5,1.54,2.5,3.44h-5C51.11,74.46,52.22,72.92,53.6,72.92Z"/><path class="cls-6" d="M49.33,72.92c-1,0-1.77,1.54-1.77,3.44h3.55C51.11,74.46,50.31,72.92,49.33,72.92Z"/><path class="cls-6" d="M57.87,72.92c-1,0-1.77,1.54-1.77,3.44h3.55C59.65,74.46,58.85,72.92,57.87,72.92Z"/><rect class="cls-8" x="46.04" y="79.83" width="15.18" height="3.81"/><path class="cls-13" d="M23.88,89.91H10V108h2.54V96.71a2,2,0,1,1,4,0h.92a2,2,0,1,1,4,0V108h2.55Z"/><polygon class="cls-7" points="9.95 89.91 23.88 89.91 23.88 88.14 14.14 88.14 9.95 89.91"/><rect class="cls-14" x="29.05" y="88.6" width="9.74" height="19.37"/><rect class="cls-8" x="29.05" y="101.03" width="9.74" height="6.94"/><rect class="cls-15" x="29.05" y="86.84" width="9.74" height="1.77"/><rect class="cls-8" x="12.49" y="104.84" width="8.84" height="3.13"/><rect class="cls-8" x="12.49" y="106.4" width="8.84" height="1.56"/><path class="cls-10" d="M36.74,93.05v2.4H31.11v-2.4C31.11,89.33,36.74,89.33,36.74,93.05Z"/><path class="cls-10" d="M36.74,105.58V108H31.11v-2.39C31.11,101.86,36.74,101.86,36.74,105.58Z"/><polygon class="cls-6" points="23.88 89.91 29.05 88.6 29.05 92.78 23.88 95.83 23.88 89.91"/><polygon class="cls-7" points="23.88 88.14 29.05 86.84 29.05 88.6 23.88 89.91 23.88 88.14"/><polygon class="cls-6" points="46.04 87.48 46.04 85.41 38.8 89.66 38.8 91.74 46.04 87.48"/><polygon class="cls-7" points="46.04 85.41 46.04 83.64 38.8 87.9 38.8 89.66 46.04 85.41"/><path class="cls-6" d="M38.79,102.09a6.81,6.81,0,0,1,3.48-4.15L46,95.74V92.16l-7.25,4.26Z"/><path class="cls-6" d="M23.88,106.17A6.82,6.82,0,0,1,27.35,102l1.7-1V97.46l-5.17,3Z"/><path class="cls-6" d="M12.49,89.91h8.84v4a6.45,6.45,0,0,0-4.42-1.48,6.45,6.45,0,0,0-4.42,1.48Z"/><rect class="cls-14" x="46.04" y="85.41" width="11.07" height="10.33"/><rect class="cls-14" x="46.04" y="92.16" width="11.07" height="3.58"/><path class="cls-5" d="M57.11,108V95.74H46V108h2.73v-7.42c0-3.72,5.62-3.71,5.62,0V108Z"/><path class="cls-10" d="M54.39,89.85v.46H48.77v-.46C48.77,86.13,54.39,86.13,54.39,89.85Z"/><polygon class="cls-7" points="46.04 83.64 58.13 83.64 57.11 85.41 46.04 85.41 46.04 83.64"/><polygon class="cls-16" points="14.14 88.14 23.88 88.14 19.01 78.87 14.14 88.14"/><path class="cls-4" d="M19,80a.77.77,0,1,0-.76-.76A.77.77,0,0,0,19,80Z"/><polygon class="cls-16" points="29.05 86.84 38.8 86.84 33.92 77.57 29.05 86.84"/><path class="cls-4" d="M33.92,78.66a.76.76,0,1,0-.76-.76A.77.77,0,0,0,33.92,78.66Z"/><polygon class="cls-5" points="99.37 69.43 86.96 69.43 86.96 83.28 99.37 90.58 99.37 69.43"/><path class="cls-10" d="M92.6,73.83v4.51h1.13V73.83A.57.57,0,0,0,92.6,73.83Z"/><rect class="cls-8" x="88.09" y="56" width="10.15" height="11.09"/><path class="cls-6" d="M93.16,63.61A3.32,3.32,0,0,0,90,67.08h6.24A3.32,3.32,0,0,0,93.16,63.61Z"/><path class="cls-6" d="M98.5,63.61c1.23,0,2.22,1.56,2.22,3.47H96.28C96.28,65.17,97.28,63.61,98.5,63.61Z"/><path class="cls-6" d="M87.82,63.61c1.23,0,2.22,1.56,2.22,3.47H85.6C85.6,65.17,86.59,63.61,87.82,63.61Z"/><polygon class="cls-7" points="86.96 69.43 85.6 67.08 100.72 67.08 99.37 69.43 86.96 69.43"/><rect class="cls-8" x="77.93" y="65.91" width="10.15" height="13.92"/><path class="cls-13" d="M83,76.36a3.31,3.31,0,0,0-3.12,3.47h6.24A3.31,3.31,0,0,0,83,76.36Z"/><path class="cls-13" d="M88.35,76.36c1.23,0,2.22,1.55,2.22,3.47H86.13C86.13,77.91,87.12,76.36,88.35,76.36Z"/><path class="cls-13" d="M77.67,76.36c1.23,0,2.22,1.55,2.22,3.47H75.45C75.45,77.91,76.44,76.36,77.67,76.36Z"/><path class="cls-6" d="M83,72.92c-1.38,0-2.5,1.54-2.5,3.44h5C85.5,74.46,84.39,72.92,83,72.92Z"/><path class="cls-6" d="M87.28,72.92c1,0,1.77,1.54,1.77,3.44H85.5C85.5,74.46,86.3,72.92,87.28,72.92Z"/><path class="cls-6" d="M78.74,72.92c1,0,1.77,1.54,1.77,3.44H77C77,74.46,77.76,72.92,78.74,72.92Z"/><rect class="cls-8" x="75.4" y="79.83" width="15.18" height="3.81"/><path class="cls-13" d="M112.73,89.91h13.93V108h-2.54V96.71a2,2,0,1,0-4,0h-.92a2,2,0,1,0-4,0V108h-2.55Z"/><polygon class="cls-7" points="126.66 89.91 112.73 89.91 112.73 88.14 122.47 88.14 126.66 89.91"/><rect class="cls-14" x="97.82" y="88.6" width="9.74" height="19.37"/><rect class="cls-8" x="97.82" y="101.03" width="9.74" height="6.94"/><rect class="cls-15" x="97.82" y="86.84" width="9.74" height="1.77"/><rect class="cls-8" x="115.28" y="104.84" width="8.84" height="3.13"/><rect class="cls-8" x="115.28" y="106.4" width="8.84" height="1.56"/><path class="cls-10" d="M99.88,93.05v2.4h5.62v-2.4C105.5,89.33,99.88,89.33,99.88,93.05Z"/><path class="cls-10" d="M99.88,105.58V108h5.62v-2.39C105.5,101.86,99.88,101.86,99.88,105.58Z"/><polygon class="cls-6" points="112.73 89.91 107.56 88.6 107.56 92.78 112.73 95.83 112.73 89.91"/><polygon class="cls-7" points="112.73 88.14 107.56 86.84 107.56 88.6 112.73 89.91 112.73 88.14"/><polygon class="cls-6" points="90.57 87.48 90.57 85.41 97.82 89.66 97.82 91.74 90.57 87.48"/><polygon class="cls-7" points="90.57 85.41 90.57 83.64 97.82 87.9 97.82 89.66 90.57 85.41"/><path class="cls-6" d="M97.82,102.09a6.76,6.76,0,0,0-3.47-4.15l-3.78-2.2V92.16l7.25,4.26Z"/><path class="cls-6" d="M112.73,106.17a6.82,6.82,0,0,0-3.47-4.15l-1.7-1V97.46l5.17,3Z"/><path class="cls-6" d="M124.12,89.91h-8.84v4a7.34,7.34,0,0,1,8.84,0Z"/><rect class="cls-14" x="79.5" y="85.41" width="11.07" height="10.33"/><rect class="cls-14" x="79.5" y="92.16" width="11.07" height="3.58"/><path class="cls-5" d="M79.5,108V95.74H90.57V108H87.84v-7.42c0-3.72-5.62-3.71-5.62,0V108Z"/><path class="cls-10" d="M82.22,89.85v.46h5.62v-.46C87.84,86.13,82.22,86.13,82.22,89.85Z"/><polygon class="cls-7" points="90.57 83.64 78.48 83.64 79.5 85.41 90.57 85.41 90.57 83.64"/><polygon class="cls-5" points="122.47 88.14 112.73 88.14 117.6 78.87 122.47 88.14"/><path class="cls-4" d="M117.6,80a.77.77,0,1,0-.76-.76A.77.77,0,0,0,117.6,80Z"/><polygon class="cls-16" points="107.56 86.84 97.82 86.84 102.69 77.57 107.56 86.84"/><path class="cls-4" d="M102.69,78.66a.76.76,0,1,0-.76-.76A.76.76,0,0,0,102.69,78.66Z"/><path class="cls-17" d="M48.53,65.91a4.47,4.47,0,0,1,1.07-7.54c3.49-1.51,3.51-4.25,3.78-7.43h.44c.28,3.18.3,5.92,3.79,7.43a4.48,4.48,0,0,1,1.07,7.54Z"/><path class="cls-17" d="M48.53,65.91l0,0L54.56,55.4a4.89,4.89,0,0,0,1.15,1.74l-5.07,8.77Z"/><path class="cls-18" d="M55.71,57.14a5.66,5.66,0,0,0,1.53,1.06l-4.45,7.71H50.64Z"/><path class="cls-17" d="M57.24,58.2l.37.17a4.57,4.57,0,0,1,1.23.8L55,65.91H52.79Z"/><path class="cls-18" d="M58.84,59.17A4.48,4.48,0,0,1,60,60.88l-2.9,5H55Z"/><path class="cls-18" d="M48.5,65.89a4.51,4.51,0,0,1-1.21-1.62l4-6.94a5.26,5.26,0,0,0,1.65-2.85l1-1.8a10,10,0,0,0,.58,2.72Z"/><path class="cls-3" d="M52.65,55.4a15.88,15.88,0,0,0,.73-4.46h.44a15.87,15.87,0,0,0,.74,4.46Z"/><path class="cls-4" d="M53.6,51.7a.76.76,0,1,0-.76-.76A.76.76,0,0,0,53.6,51.7Z"/><path class="cls-19" d="M77.93,65.91A4.48,4.48,0,0,1,79,58.37c3.49-1.51,3.52-4.25,3.79-7.43h.44c.27,3.18.3,5.92,3.78,7.43a4.47,4.47,0,0,1,1.08,7.54Z"/><path class="cls-19" d="M77.93,65.91l0,0L84,55.4a5,5,0,0,0,1.15,1.74l-5.06,8.77Z"/><path class="cls-12" d="M85.11,57.14a5.88,5.88,0,0,0,1.54,1.06L82.2,65.91H80.05Z"/><path class="cls-19" d="M86.65,58.2l.36.17a4.42,4.42,0,0,1,1.23.8l-3.89,6.74H82.2Z"/><path class="cls-12" d="M88.24,59.17a4.51,4.51,0,0,1,1.17,1.71l-2.91,5H84.35Z"/><path class="cls-12" d="M77.91,65.89a4.4,4.4,0,0,1-1.21-1.62l4-6.94a5.19,5.19,0,0,0,1.64-2.85l1-1.8A10.83,10.83,0,0,0,84,55.4Z"/><path class="cls-3" d="M82.05,55.4a15.87,15.87,0,0,0,.74-4.46h.44A16.25,16.25,0,0,0,84,55.4Z"/><path class="cls-4" d="M83,51.7a.76.76,0,1,0-.76-.76A.76.76,0,0,0,83,51.7Z"/><rect class="cls-14" x="57.11" y="85.41" width="22.39" height="22.56"/><rect class="cls-14" x="57.11" y="92.16" width="22.39" height="3.58"/><rect class="cls-8" x="63.24" y="47.94" width="10.15" height="14.02"/><rect class="cls-8" x="60.15" y="57.33" width="16.32" height="4.63"/><polygon class="cls-16" points="58.13 83.64 78.48 83.64 79.5 85.41 57.11 85.41 58.13 83.64"/><rect class="cls-8" x="57.11" y="95.74" width="22.39" height="12.23"/><path class="cls-10" d="M69.59,88.52v1.35H67V88.52A1.29,1.29,0,0,1,69.59,88.52Z"/><path class="cls-10" d="M60.84,88.52v1.35H59.56V88.52C59.56,86.82,60.84,86.82,60.84,88.52Z"/><path class="cls-10" d="M77.06,88.52v1.35H75.77V88.52C75.77,86.82,77.06,86.82,77.06,88.52Z"/><rect class="cls-8" x="58.13" y="79.83" width="20.35" height="3.81"/><polygon class="cls-16" points="58.68 78.07 77.93 78.07 78.48 79.83 58.13 79.83 58.68 78.07"/><rect class="cls-8" x="58.68" y="67.39" width="19.25" height="10.68"/><polygon class="cls-16" points="57.05 61.96 58.68 67.39 77.93 67.39 79.56 61.96 57.05 61.96"/><rect class="cls-20" x="67.02" y="97.7" width="2.57" height="8.3"/><rect class="cls-20" x="59.56" y="97.7" width="1.28" height="8.3"/><rect class="cls-20" x="75.77" y="97.7" width="1.28" height="8.3"/><path class="cls-13" d="M76.47,57.33c-1.7,0-3.08,2.08-3.08,4.63h6.17C79.56,59.41,78.18,57.33,76.47,57.33Z"/><path class="cls-13" d="M60.14,57.33c-1.7,0-3.09,2.08-3.09,4.63h6.17C63.22,59.41,61.84,57.33,60.14,57.33Z"/><path class="cls-10" d="M68.93,71.45V76H67.8V71.45A.57.57,0,0,1,68.93,71.45Z"/><path class="cls-10" d="M62.33,71.45V76H61.2V71.45A.57.57,0,0,1,62.33,71.45Z"/><path class="cls-10" d="M75.41,71.45V76H74.28V71.45A.57.57,0,0,1,75.41,71.45Z"/><path class="cls-13" d="M68.31,57.33A4.88,4.88,0,0,1,73.39,62H63.22A4.88,4.88,0,0,1,68.31,57.33Z"/><path class="cls-6" d="M68.31,53.89a3.41,3.41,0,0,1,3.37,3.44H64.94A3.41,3.41,0,0,1,68.31,53.89Z"/><path class="cls-6" d="M62.55,53.89c-1.33,0-2.4,1.54-2.4,3.44h4.79C64.94,55.43,63.87,53.89,62.55,53.89Z"/><path class="cls-6" d="M74.08,53.89c-1.33,0-2.4,1.54-2.4,3.44h4.79C76.47,55.43,75.4,53.89,74.08,53.89Z"/><path class="cls-21" d="M73.39,47.94a4.48,4.48,0,0,0-1.07-7.54c-3.49-1.51-3.51-4.25-3.79-7.43h-.44c-.27,3.18-.29,5.92-3.78,7.43a4.47,4.47,0,0,0-1.07,7.54Z"/><path class="cls-13" d="M72.18,47.94a5.11,5.11,0,0,0,1.23-3.44,4.67,4.67,0,0,0-2-4.1c-2.65-1.51-2.67-4.25-2.88-7.43h-.34c-.2,3.18-.22,5.92-2.88,7.43a4.7,4.7,0,0,0-2.05,4.1,5.11,5.11,0,0,0,1.23,3.44Z"/><path class="cls-21" d="M70.74,47.94a7.15,7.15,0,0,0,.77-3.44,5.9,5.9,0,0,0-1.28-4.1c-1.67-1.51-1.68-4.25-1.81-7.43h-.21c-.13,3.18-.15,5.92-1.81,7.43a5.85,5.85,0,0,0-1.29,4.1,7,7,0,0,0,.78,3.44Z"/><path class="cls-13" d="M69.13,47.94a20.34,20.34,0,0,0,.26-3.44A14.38,14.38,0,0,0,69,40.4c-.56-1.51-.56-4.25-.6-7.43h-.07c0,3.18,0,5.92-.61,7.43a14.86,14.86,0,0,0-.43,4.1,19.34,19.34,0,0,0,.26,3.44Z"/><path class="cls-4" d="M69.27,37.44A16,16,0,0,1,68.53,33h-.44a16,16,0,0,1-.73,4.47Z"/><path class="cls-4" d="M68.31,33.73a.76.76,0,1,0-.76-.76A.76.76,0,0,0,68.31,33.73Z"/><path class="cls-22" d="M57.45,62.26l1.45,4.83H77.71l1.44-4.83ZM98.31,86.54l4-7.64a1.11,1.11,0,0,0,.72,0l4,7.64ZM78.77,80.13H90.28v3.21H78.77V80.13ZM79,83.94H90.28v1.17H79.67L79,83.94Zm.8,1.76H90.28v6.16H79.75c0-2,0-4.11,0-6.16Zm0,6.76H90.28v3H79.75v-3Zm0,3.58H90.28v11.63H88.15v-7.12c0-4.11-6.22-4.11-6.22,0v7.12H79.79c0-3.86,0-7.75,0-11.63Zm-.25,12.23H46a.3.3,0,0,1-.3-.3V96.26l-3.33,1.93A8,8,0,0,0,40.22,100a5.85,5.85,0,0,0-1.13,2.15V108a.3.3,0,0,1-.3.3H29.05a.31.31,0,0,1-.3-.3v-6.43l-1.26.74a8,8,0,0,0-2.19,1.77,5.81,5.81,0,0,0-1.13,2.16V108a.3.3,0,0,1-.3.3H9.94a.3.3,0,0,1-.29-.3V89.91h0a.31.31,0,0,1,.18-.28l4.09-1.72,4.24-8.07a1,1,0,0,1-.22-.63,1.06,1.06,0,0,1,.77-1V76.56H17.8a.3.3,0,0,1,0-.6h.91V75a.3.3,0,0,1,.59,0v1h.91a.3.3,0,0,1,0,.6H19.3v1.63a1.06,1.06,0,0,1,.76,1,1.08,1.08,0,0,1-.21.63l4.18,8,4.82-1.22,4.23-8a1,1,0,0,1-.22-.64,1.07,1.07,0,0,1,.76-1V75.25h-.9a.3.3,0,0,1,0-.59h.9v-1a.3.3,0,0,1,.6,0v1h.91a.3.3,0,0,1,0,.59h-.91v1.63a1.07,1.07,0,0,1,.76,1,1.09,1.09,0,0,1-.21.64l2.17,4.14V69.51l-1.31-2.28a.24.24,0,0,1,0-.15,4.82,4.82,0,0,1,.7-2.61,2.22,2.22,0,0,1,1.78-1.16V56.13a4.82,4.82,0,0,1-1.16-1.55A4.76,4.76,0,0,1,37.24,50a4.76,4.76,0,0,1,2.08-1.76h0c3-1.3,3.29-3.59,3.51-6.28a1,1,0,0,1-.46-.87,1.06,1.06,0,0,1,.76-1V38.38h-.91a.3.3,0,0,1,0-.6h.91v-1a.3.3,0,0,1,.59,0v1h.91a.3.3,0,0,1,0,.6h-.91V40a1.06,1.06,0,0,1,.77,1,1,1,0,0,1-.47.87c.23,2.7.54,5,3.53,6.29a4.77,4.77,0,0,1,2.87,4.37,4.71,4.71,0,0,1-.46,2,4.55,4.55,0,0,1-1.16,1.55v2.35a5.33,5.33,0,0,1,.71-.38c3-1.3,3.3-3.57,3.53-6.25a1.16,1.16,0,0,1-.21-.16,1.08,1.08,0,0,1-.31-.75,1.07,1.07,0,0,1,.31-.75,1.09,1.09,0,0,1,.45-.27V48.29h-.91a.3.3,0,0,1,0-.6h.91v-1a.3.3,0,0,1,.6,0v1h.9a.3.3,0,0,1,0,.6h-.9v1.63a1.15,1.15,0,0,1,.45.27,1.07,1.07,0,0,1,.31.75,1.08,1.08,0,0,1-.31.75,1,1,0,0,1-.16.12c.23,2.7.54,5,3.53,6.29l.22.1.23-.25V50.46l-1.36-2.35a.26.26,0,0,1-.05-.17,6.22,6.22,0,0,1,1-3.43,3.93,3.93,0,0,1,.81-.9h-.19a.29.29,0,0,1-.29-.3,5.54,5.54,0,0,1,.85-3.06,3.2,3.2,0,0,1,.66-.75.3.3,0,0,1-.23-.29,4.9,4.9,0,0,1,.75-2.69,2.79,2.79,0,0,1,.81-.83l-1-1.65a.3.3,0,0,1,.25-.47h1.32L65.8,19V14a2.23,2.23,0,0,1-.49-.68,2.17,2.17,0,0,1-.21-.95,2.27,2.27,0,0,1,.36-1.23,2.3,2.3,0,0,1,1-.83,2.34,2.34,0,0,0,1-.85,1,1,0,0,1-.22-.64,1.07,1.07,0,0,1,.76-1V6.2H67.1a.3.3,0,0,1,0-.59H68v-1a.3.3,0,0,1,.6,0v1h.9a.3.3,0,0,1,0,.59h-.9V7.83a1.07,1.07,0,0,1,.76,1,1,1,0,0,1-.22.64,2.34,2.34,0,0,0,1,.85,2.26,2.26,0,0,1,1.35,2.06,2.32,2.32,0,0,1-.21.95,2.23,2.23,0,0,1-.49.68v5l4.31,14.59h1.32a.3.3,0,0,1,.24.47l-1,1.65a2.79,2.79,0,0,1,.81.83,4.9,4.9,0,0,1,.75,2.69.3.3,0,0,1-.23.29,3.45,3.45,0,0,1,.66.75,5.54,5.54,0,0,1,.85,3.06.29.29,0,0,1-.3.3H78.1a3.68,3.68,0,0,1,.8.9,6.22,6.22,0,0,1,1,3.43.27.27,0,0,1-.06.17l-1.35,2.35V58l.21.24.23-.1c3-1.3,3.3-3.59,3.53-6.29a1,1,0,0,1-.16-.12,1.08,1.08,0,0,1-.31-.75,1.07,1.07,0,0,1,.31-.75,1.15,1.15,0,0,1,.45-.27V48.29h-.9a.3.3,0,0,1,0-.6h.9v-1a.3.3,0,0,1,.6,0v1h.91a.3.3,0,0,1,0,.6h-.91v1.63a1.09,1.09,0,0,1,.45.27,1.07,1.07,0,0,1,.31.75,1.08,1.08,0,0,1-.31.75,1.56,1.56,0,0,1-.2.16c.22,2.68.54,4.95,3.52,6.25a5.33,5.33,0,0,1,.71.38V56.13a4.77,4.77,0,0,1-1.61-3.57A4.76,4.76,0,0,1,87,50,4.84,4.84,0,0,1,89,48.19c3-1.3,3.31-3.59,3.53-6.29a1,1,0,0,1-.46-.87,1.06,1.06,0,0,1,.76-1V38.38H92a.3.3,0,0,1,0-.6h.91v-1a.3.3,0,0,1,.59,0v1h.91a.3.3,0,0,1,0,.6h-.91V40a1.06,1.06,0,0,1,.76,1,1,1,0,0,1-.46.87c.22,2.69.53,5,3.51,6.28h0A4.84,4.84,0,0,1,99.38,50a4.76,4.76,0,0,1,.77,2.61,4.77,4.77,0,0,1-1.61,3.57v7.18a2.23,2.23,0,0,1,1.79,1.16,4.91,4.91,0,0,1,.69,2.61.24.24,0,0,1,0,.15l-1.31,2.28V82.68l2.17-4.14a1.09,1.09,0,0,1-.21-.64,1.07,1.07,0,0,1,.76-1V75.25h-.9a.3.3,0,1,1,0-.59h.9v-1a.3.3,0,0,1,.6,0v1h.9a.3.3,0,1,1,0,.59H103v1.63a1.07,1.07,0,0,1,.76,1,1.09,1.09,0,0,1-.21.64l4.22,8,4.82,1.22,4.18-8a1.08,1.08,0,0,1-.21-.63,1.06,1.06,0,0,1,.76-1V76.56h-.91a.3.3,0,0,1,0-.6h.91V75a.3.3,0,0,1,.6,0v1h.9a.3.3,0,0,1,0,.6h-.9v1.63a1.06,1.06,0,0,1,.76,1,1,1,0,0,1-.22.63l4.24,8.07,4.09,1.72a.29.29,0,0,1,.18.28h0V108a.31.31,0,0,1-.3.3H112.74a.3.3,0,0,1-.3-.3v-1.76a5.81,5.81,0,0,0-1.13-2.16,8,8,0,0,0-2.19-1.77l-1.26-.74V108a.31.31,0,0,1-.3.3H97.82a.31.31,0,0,1-.3-.3v-5.85A5.85,5.85,0,0,0,96.39,100a8,8,0,0,0-2.19-1.78l-3.33-1.93V108a.3.3,0,0,1-.3.3ZM79,58.7l.12-.06a5.55,5.55,0,0,0,3.13-2.94h1.45a5.54,5.54,0,0,0,3.14,2.94,4.22,4.22,0,0,1,1.82,1.55,4.18,4.18,0,0,1,.29,4,4.23,4.23,0,0,1-1,1.37H78.77l1.07-3.56a.38.38,0,0,0,0-.1A6.34,6.34,0,0,0,79,58.7Zm-.42,7.51h9.15v6.52a1.26,1.26,0,0,0-.51-.11,1.83,1.83,0,0,0-1.52,1.17,4,4,0,0,0-.3.76,3.67,3.67,0,0,0-.45-.8,2.29,2.29,0,0,0-3.95,0,4.1,4.1,0,0,0-.44.8,4.82,4.82,0,0,0-.31-.76,1.83,1.83,0,0,0-1.52-1.17,1.34,1.34,0,0,0-.51.11v-5.3l.36-1.22Zm-.36,7.22v2.63h2a4.83,4.83,0,0,0-.48-2c-.27-.52-.62-.84-1-.84a.76.76,0,0,0-.51.21Zm0,3.39V78l.47,1.51h.85a4.21,4.21,0,0,0-.6-2,2.06,2.06,0,0,0-.72-.72Zm12.64,6.65,6.65,3.91v-.54a.3.3,0,0,1,0-.16l1.5-2.87V69.73H88.33v3.45a2.53,2.53,0,0,1,.42.61,5.69,5.69,0,0,1,.55,2.55,2.71,2.71,0,0,1,.87.88,4.91,4.91,0,0,1,.7,2.61v3.64ZM88.39,58.94a4.58,4.58,0,0,1,.78.92A4.77,4.77,0,0,1,90,62.47a4.72,4.72,0,0,1-.39,1.88l.08.12a3.86,3.86,0,0,1,.45,1,4,4,0,0,1,.65-1,3.19,3.19,0,0,1,4.85,0,4,4,0,0,1,.65,1,3.85,3.85,0,0,1,.44-1,2.57,2.57,0,0,1,1.26-1.07V56.29H88.39v2.65Zm.86,6A4.54,4.54,0,0,1,88.33,66v.75h1.41A4.41,4.41,0,0,0,89.25,65Zm-.92,2.42v1.75H99.2l1-1.75ZM82.69,50.61a.44.44,0,0,0-.14.33.45.45,0,0,0,.14.33.44.44,0,0,0,.32.13.47.47,0,0,0,.33-.13.5.5,0,0,0,.14-.33.48.48,0,0,0-.14-.33.47.47,0,0,0-.33-.13.44.44,0,0,0-.32.13Zm.79,4.5A14,14,0,0,1,83,52.17a14,14,0,0,1-.5,2.94ZM80.17,79.53H85.8a3.29,3.29,0,0,0-.82-2,2.62,2.62,0,0,0-4,0,3.29,3.29,0,0,0-.82,2Zm.66-3.47h4.32a3.76,3.76,0,0,0-.67-2,1.71,1.71,0,0,0-3,0,3.75,3.75,0,0,0-.66,2Zm2.43-5.28V68a.28.28,0,1,0-.55,0v2.78a.28.28,0,1,0,.55,0Zm2.65,0V68a.3.3,0,1,0-.59,0v2.78a.3.3,0,1,0,.59,0Zm1.32,2.44c-.37,0-.72.32-1,.84a4.83,4.83,0,0,0-.48,2H88.7a5,5,0,0,0-.48-2c-.27-.52-.62-.84-1-.84ZM87,76.66H84.84a3.18,3.18,0,0,1,.58.52,4,4,0,0,1,.65,1,4.26,4.26,0,0,1,.45-1,2.83,2.83,0,0,1,.45-.56Zm3.3,2.87a4.21,4.21,0,0,0-.6-2,1.44,1.44,0,0,0-2.65,0,4.21,4.21,0,0,0-.6,2ZM80.06,70.78a.3.3,0,1,0,.6,0V68a.3.3,0,0,0-.6,0v2.78ZM79,76.66a2.51,2.51,0,0,1,.45.56,3.86,3.86,0,0,1,.45,1,4,4,0,0,1,.65-1,3.54,3.54,0,0,1,.58-.52ZM93.15,42.08a14,14,0,0,1-.51,3.11h1a14,14,0,0,1-.51-3.11h0Zm0-1.52a.47.47,0,1,0,.47.47.47.47,0,0,0-.47-.47Zm-.74,5.23a5.6,5.6,0,0,1-3.14,2.94,4.29,4.29,0,0,0-1.83,1.54,4.15,4.15,0,0,0,.75,5.43h9.93a4.18,4.18,0,0,0,.75-5.43,4.29,4.29,0,0,0-1.83-1.54h0a5.57,5.57,0,0,1-3.12-2.93Zm.45,15.08a.3.3,0,0,0,.59,0V58.08a.3.3,0,0,0-.59,0v2.79Zm2.65,0a.3.3,0,0,0,.6,0V58.08a.3.3,0,0,0-.6,0v2.79Zm-5.31,0a.3.3,0,0,0,.6,0V58.08a.3.3,0,0,0-.6,0v2.79Zm10.21,5.92a4.21,4.21,0,0,0-.59-2,1.64,1.64,0,0,0-1.32-.88,1.62,1.62,0,0,0-1.32.88,4.11,4.11,0,0,0-.6,2Zm-4.45,0a3.29,3.29,0,0,0-.82-2,2.6,2.6,0,0,0-4,0,3.29,3.29,0,0,0-.82,2Zm-3.67,7v4.51a.3.3,0,0,0,.3.29h1.13a.3.3,0,0,0,.3-.29V73.83a.87.87,0,0,0-1.73,0ZM92.9,78h.53V73.83a.27.27,0,0,0-.53,0V78Zm-2,17.53,3.63,2.11a8.63,8.63,0,0,1,2.35,1.91,6.3,6.3,0,0,1,.67,1v-4L90.87,92.7v2.87Zm0-3.56,6.65,3.89v-4L90.87,88v4Zm0-4.7,6.65,3.91V89.83l-6.65-3.9v1.38Zm0-2.07,6.65,3.9V88.07l-6.65-3.91v1.08Zm-3.32,22.43v-7.12c0-3.32-5-3.32-5,0v7.12ZM81.93,89.85v.46a.29.29,0,0,0,.3.29h5.62a.3.3,0,0,0,.3-.29v-.46A2.92,2.92,0,0,0,86.3,87a3.43,3.43,0,0,0-2.52,0,2.92,2.92,0,0,0-1.85,2.85Zm.6.16h5v-.16a2.33,2.33,0,0,0-1.47-2.29,2.64,2.64,0,0,0-1-.2,2.6,2.6,0,0,0-1,.2,2.32,2.32,0,0,0-1.47,2.29V90Zm29.91,14.65v-4L107.86,98v2.87l1.55.91a8.51,8.51,0,0,1,2.35,1.91,6,6,0,0,1,.68,1Zm0-4.68V96l-4.58-2.69v4l4.58,2.69Zm.79-12.14H122l-4-7.64a1,1,0,0,1-.36.06,1.15,1.15,0,0,1-.37-.06l-4,7.64Zm-.79.53-4.58-1.15v1.15l4.58,1.16V88.37Zm0,1.77L107.86,89v3.63l4.58,2.7V90.14Zm5.17-11.4a.47.47,0,1,0,.46.47.47.47,0,0,0-.46-.47ZM115,90.21H113v17.46H115v-11a2.27,2.27,0,0,1,4.54-.3h.35a2.27,2.27,0,0,1,4.54.3v11h2V90.21h-2v3.72a.3.3,0,0,1-.5.22,7,7,0,0,0-8.42,0,.29.29,0,0,1-.51-.2V90.21Zm8.83,0h-8.24v3.1a7.88,7.88,0,0,1,8.24,0v-3.1Zm-1.4-1.77H113v1.17H125.2l-2.78-1.17Zm-6.84,18.26v1h8.24v-1Zm8.24-.59v-1h-8.24v1Zm0-1.57V96.71a1.69,1.69,0,1,0-3.36,0,.3.3,0,0,1-.3.3h-.92a.31.31,0,0,1-.3-.3,1.69,1.69,0,1,0-3.36,0v7.83Zm-21.13-27.1a.46.46,0,0,0-.46.46.46.46,0,1,0,.92,0,.46.46,0,0,0-.46-.46ZM99.58,93.05v2.4a.31.31,0,0,0,.3.3h5.62a.31.31,0,0,0,.3-.3v-2.4c0-4.12-6.22-4.12-6.22,0Zm.6,2.1h5v-2.1a2.51,2.51,0,0,0-5,0v2.1Zm7.08-8H98.12V88.3h9.14V87.14Zm0,1.76H98.12v11.83h9.14V88.9Zm0,12.42H98.12v6.35h1.46v-2.09c0-4.11,6.22-4.12,6.22,0v2.09h1.46v-6.35Zm-2.06,6.35v-2.09c0-3.33-5-3.32-5,0v2.09ZM38.3,86.54l-4-7.64a1.11,1.11,0,0,1-.72,0l-4,7.64Zm19.53-6.41H46.34v3.21H57.83V80.13Zm-.22,3.81H46.34v1.17h10.6l.67-1.17Zm-.8,1.76H46.34v6.16H56.81V85.7Zm0,6.76H46.34v3H56.81v-3Zm0,3.58H46.34v11.63h2.13v-7.12c0-4.11,6.21-4.11,6.21,0v7.12h2.13V96ZM57.6,58.7A6.45,6.45,0,0,0,56.75,62a.43.43,0,0,0,0,.11l1.06,3.55H48.68a4.23,4.23,0,0,1-1-1.37,4.18,4.18,0,0,1,.29-4,4.19,4.19,0,0,1,1.83-1.55A5.55,5.55,0,0,0,52.9,55.7h1.45a5.55,5.55,0,0,0,3.13,2.94l.12.06ZM58,66.21l.37,1.22v5.3h0a1.26,1.26,0,0,0-.51-.11,1.83,1.83,0,0,0-1.52,1.17,4,4,0,0,0-.3.76,3.67,3.67,0,0,0-.45-.8,2.29,2.29,0,0,0-4,0,4.14,4.14,0,0,0-.45.8,4,4,0,0,0-.3-.76,1.83,1.83,0,0,0-1.52-1.17,1.34,1.34,0,0,0-.51.11V66.21Zm.37,7.21a.82.82,0,0,0-.51-.2c-.37,0-.72.32-1,.84a4.83,4.83,0,0,0-.48,2h2V73.42Zm0,3.4a2.06,2.06,0,0,0-.72.72,4.21,4.21,0,0,0-.6,2h.85L58.38,78v-1.2ZM45.74,83.47V79.83a4.91,4.91,0,0,1,.7-2.61,2.71,2.71,0,0,1,.87-.88,5.69,5.69,0,0,1,.55-2.55,2.53,2.53,0,0,1,.42-.61V69.73H37.54V83.81L39,86.68a.3.3,0,0,1,.05.16v.54l6.65-3.91Zm2.48-24.53V56.29H38.67V63.4a2.57,2.57,0,0,1,1.26,1.07,3.85,3.85,0,0,1,.44,1,4,4,0,0,1,.65-1,3.19,3.19,0,0,1,4.85,0,3.52,3.52,0,0,1,.65,1,4.26,4.26,0,0,1,.45-1l.08-.12a4.72,4.72,0,0,1-.39-1.88,4.77,4.77,0,0,1,.78-2.61,4.93,4.93,0,0,1,.78-.92Zm-.85,6a4.26,4.26,0,0,0-.5,1.83h1.41V66A4.29,4.29,0,0,1,47.37,65Zm.91,2.42H36.4l1,1.75H48.28V67.38Zm5.65-16.77a.48.48,0,0,0-.66,0,.47.47,0,0,0-.13.33.46.46,0,1,0,.92,0,.47.47,0,0,0-.13-.33Zm-.8,4.5h1a14,14,0,0,1-.49-2.94,14.66,14.66,0,0,1-.5,2.94Zm3.31,24.42a3.29,3.29,0,0,0-.82-2,2.62,2.62,0,0,0-4,0,3.29,3.29,0,0,0-.82,2Zm-.65-3.47a3.85,3.85,0,0,0-.67-2,1.71,1.71,0,0,0-3,0,3.75,3.75,0,0,0-.66,2Zm-2.44-5.28a.28.28,0,1,0,.55,0V68a.28.28,0,1,0-.55,0v2.78Zm-2.65,0a.3.3,0,0,0,.6,0V68a.3.3,0,1,0-.6,0v2.78Zm-1.32,2.44c-.37,0-.72.32-1,.84a5,5,0,0,0-.48,2h2.94a4.83,4.83,0,0,0-.48-2c-.27-.52-.62-.84-1-.84Zm.26,3.44a2.83,2.83,0,0,1,.45.56,3.86,3.86,0,0,1,.45,1,4,4,0,0,1,.65-1,3.54,3.54,0,0,1,.58-.52Zm-3.29,2.87h3.84a4.21,4.21,0,0,0-.6-2,1.44,1.44,0,0,0-2.65,0,4.1,4.1,0,0,0-.59,2Zm10.2-8.75V68A.3.3,0,1,0,56,68v2.78a.3.3,0,1,0,.59,0Zm1.06,5.88H55.48a3.54,3.54,0,0,1,.58.52,4,4,0,0,1,.65,1,3.86,3.86,0,0,1,.45-1,2.83,2.83,0,0,1,.45-.56ZM43.46,42.08h0a14,14,0,0,1-.52,3.11h1a14,14,0,0,1-.51-3.11Zm0-1.52a.47.47,0,1,0,.46.47.47.47,0,0,0-.46-.47Zm.74,5.23H42.7a5.57,5.57,0,0,1-3.12,2.93h0a4.29,4.29,0,0,0-1.83,1.54,4.19,4.19,0,0,0-.68,2.29,4.06,4.06,0,0,0,.4,1.77,4.19,4.19,0,0,0,1,1.37h9.94a4.34,4.34,0,0,0,1-1.37,4.17,4.17,0,0,0-2.12-5.6,5.6,5.6,0,0,1-3.14-2.94Zm-.45,15.08V58.08a.3.3,0,0,0-.59,0v2.79a.3.3,0,0,0,.59,0Zm-2.65,0V58.08a.3.3,0,0,0-.6,0v2.79a.3.3,0,0,0,.6,0Zm5.31,0V58.08a.3.3,0,0,0-.6,0v2.79a.3.3,0,0,0,.6,0ZM36.19,66.79H40a4.1,4.1,0,0,0-.59-2,1.64,1.64,0,0,0-1.32-.88,1.62,1.62,0,0,0-1.32.88,4.22,4.22,0,0,0-.6,2Zm4.45,0h5.62a3.36,3.36,0,0,0-.83-2,2.6,2.6,0,0,0-4,0,3.29,3.29,0,0,0-.82,2Zm3.67,7a.87.87,0,0,0-1.73,0v4.51a.3.3,0,0,0,.3.29H44a.29.29,0,0,0,.3-.29V73.83ZM43.71,78V73.83a.27.27,0,0,0-.53,0V78Zm2,17.53V92.7l-6.65,3.89v4a6.37,6.37,0,0,1,.68-1,8.43,8.43,0,0,1,2.34-1.91l3.63-2.11Zm0-3.56V88l-6.65,3.91v4L45.74,92Zm0-4.7V85.93l-6.65,3.9v1.39l6.65-3.91Zm0-2.07V84.16l-6.65,3.91v1.07l6.65-3.9Zm3.32,22.43h5v-7.12c0-3.32-5-3.32-5,0v7.12Zm5.62-17.82A2.92,2.92,0,0,0,52.83,87a3.43,3.43,0,0,0-2.52,0,2.92,2.92,0,0,0-1.84,2.85v.46a.29.29,0,0,0,.29.29h5.62a.29.29,0,0,0,.3-.29v-.46Zm-.59.16v-.16a2.33,2.33,0,0,0-1.48-2.29,2.6,2.6,0,0,0-1-.2,2.67,2.67,0,0,0-1,.2,2.33,2.33,0,0,0-1.47,2.29V90ZM24.17,104.66a6,6,0,0,1,.68-1,8.66,8.66,0,0,1,2.35-1.91l1.55-.91V98l-4.58,2.69v4Zm0-4.68,4.58-2.69v-4L24.17,96v4Zm-.79-12.14-4-7.64a1.15,1.15,0,0,1-.37.06,1.09,1.09,0,0,1-.36-.06l-4,7.64Zm.79.53v1.16l4.58-1.16V87.22l-4.58,1.15Zm0,1.77v5.17l4.58-2.7V89l-4.58,1.16ZM19,78.74a.47.47,0,1,0,.47.47.47.47,0,0,0-.47-.47Zm2.63,11.47v3.72a.3.3,0,0,1-.52.2,7,7,0,0,0-8.42,0,.3.3,0,0,1-.5-.22V90.21H10.24v17.46h1.95v-11a2.27,2.27,0,0,1,4.54-.3h.35a2.28,2.28,0,0,1,4.55.3v11h1.95V90.21Zm-8.84,0v3.1a7.88,7.88,0,0,1,8.24,0v-3.1Zm1.4-1.77-2.77,1.17H23.58V88.44ZM21,106.7H12.79v1H21v-1Zm-8.24-.59H21v-1H12.79v1Zm0-1.57H21V96.71a1.69,1.69,0,1,0-3.36,0,.31.31,0,0,1-.3.3h-.92a.3.3,0,0,1-.3-.3,1.69,1.69,0,1,0-3.36,0v7.83Zm21.13-27.1a.47.47,0,0,0-.46.46.44.44,0,0,0,.46.46.47.47,0,0,0,.33-.13.49.49,0,0,0,.13-.33.46.46,0,0,0-.46-.46ZM37,93.05c0-4.12-6.22-4.12-6.22,0v2.4a.31.31,0,0,0,.3.3h5.62a.3.3,0,0,0,.3-.3v-2.4Zm-.6,2.1v-2.1a2.51,2.51,0,0,0-5,0v2.1Zm-7.08-8V88.3h9.14V87.14Zm0,1.76v11.83h9.14V88.9Zm0,12.42v6.35h1.46v-2.09c0-4.12,6.22-4.11,6.22,0v2.09h1.46v-6.35Zm2.06,6.35h5v-2.09c0-3.32-5-3.33-5,0v2.09Zm35-88.94h3.82V15.44H66.4v3.29Zm8.11,14.84L70.3,19.32h-.84L71,33.57Zm3.34,23.89V50.68H73.68v3a2.56,2.56,0,0,1,.39,0A2.39,2.39,0,0,1,76,54.73a4.47,4.47,0,0,1,.75,2.32,2.54,2.54,0,0,1,1.09.41Zm-4.17-7.38H78l1.07-1.84H73.68v1.84Zm.44-2.44h5.14a5.62,5.62,0,0,0-.85-2.81c-.86-1.28-2.11-1.54-3.13-.79,0,.15,0,.31,0,.46a4.75,4.75,0,0,1-.45,2,4.84,4.84,0,0,1-.73,1.11ZM75.06,43H78a4.89,4.89,0,0,0-.75-2.44,1.86,1.86,0,0,0-3.37,0c-.07.1-.13.21-.2.33a5,5,0,0,1,.86,1A4.7,4.7,0,0,1,75.06,43Zm-1.87-2.47a1.49,1.49,0,0,1,.18-.3,3.35,3.35,0,0,1,.65-.74H71.3a6.3,6.3,0,0,0,1.13.62,5.08,5.08,0,0,1,.76.42Zm-2.61-1.64h1.34a3.16,3.16,0,0,0-1-2A3.72,3.72,0,0,0,69.17,36a5.37,5.37,0,0,0,1.41,2.88Zm-1.52-3.57h6.2l.68-1.17h-7c0,.4.08.79.13,1.17Zm.12-1.77h1.24L68.86,19.32h-1.1L66.2,33.57h1.24A1,1,0,0,1,68,32V30.32H67.1a.3.3,0,0,1,0-.59H68v-1a.3.3,0,0,1,.6,0v1h.9a.3.3,0,1,1,0,.59h-.9V32a1,1,0,0,1,.57,1.61Zm-1.49.6h-7l.68,1.17h6.2c0-.38.09-.77.13-1.17ZM67.44,36a3.77,3.77,0,0,0-1.71.87,3.15,3.15,0,0,0-1,2H66A5.36,5.36,0,0,0,67.44,36Zm-2.12,3.48H62.6a3.35,3.35,0,0,1,.65.74l.18.3a5.08,5.08,0,0,1,.76-.42,6.66,6.66,0,0,0,1.13-.62ZM63,40.91a2.63,2.63,0,0,0-.2-.33,1.86,1.86,0,0,0-3.37,0A4.88,4.88,0,0,0,58.64,43h2.92a4.7,4.7,0,0,1,.54-1.13,5,5,0,0,1,.85-1ZM61.34,44a2.1,2.1,0,0,0-3.13.79,5.52,5.52,0,0,0-.85,2.81H62.5a4.84,4.84,0,0,1-.73-1.11,4.75,4.75,0,0,1-.45-2c0-.15,0-.31,0-.46Zm1.59,4.2H57.57l1.07,1.84h4.29V48.24Zm0,2.44H58.76v6.77a2.76,2.76,0,0,1,1.1-.4,4.47,4.47,0,0,1,.75-2.32,2.25,2.25,0,0,1,2.32-1.1v-3Zm3.39-31.36L62.11,33.57H65.6l1.56-14.25Zm2-10.93a.46.46,0,1,0,0,.92.46.46,0,1,0,0-.92Zm.36,1.46a1.11,1.11,0,0,1-.72,0,2.93,2.93,0,0,1-1.27,1,1.7,1.7,0,0,0-.72.61,1.66,1.66,0,0,0,.25,2.1h4.2a1.62,1.62,0,0,0,.51-1.2,1.72,1.72,0,0,0-.26-.9,1.67,1.67,0,0,0-.73-.61,2.91,2.91,0,0,1-1.26-1Zm1.55,5V14.2H66.4v.65Zm3,21.08H70.56a4.32,4.32,0,0,1,.72.53,4,4,0,0,1,.89,1.17,4.19,4.19,0,0,1,.51-1.11,3.62,3.62,0,0,1,.5-.59Zm-.64,3h4.15a4,4,0,0,0-.64-2.06,1.58,1.58,0,0,0-2.87,0,4.15,4.15,0,0,0-.64,2.06Zm-9.1-3a3.14,3.14,0,0,1,.49.59,4.2,4.2,0,0,1,.52,1.11,4,4,0,0,1,.88-1.17,4.4,4.4,0,0,1,.73-.53Zm.64,3a4.25,4.25,0,0,0-.64-2.06,1.59,1.59,0,0,0-2.88,0,4.25,4.25,0,0,0-.64,2.06Zm5.8,49.61a1.58,1.58,0,0,0-3.16,0v1.35a.3.3,0,0,0,.3.3h2.57a.3.3,0,0,0,.29-.3V88.52Zm-.59,1v-1a1,1,0,0,0-2,0v1Zm8.06-1c0-2.1-1.88-2.1-1.88,0v1.35a.3.3,0,0,0,.3.3h1.28a.3.3,0,0,0,.3-.3V88.52Zm-.6,1v-1c0-1.29-.68-1.29-.68,0v1Zm-15.62-1c0-2.1-1.88-2.1-1.88,0v1.35a.31.31,0,0,0,.3.3h1.29a.3.3,0,0,0,.29-.3V88.52Zm-.59,1v-1c0-1.29-.69-1.29-.69,0v1Zm7.77-57.06a.46.46,0,0,0-.46.46.45.45,0,0,0,.46.46.46.46,0,0,0,.46-.46.47.47,0,0,0-.46-.46Zm0,1.52h0a14.22,14.22,0,0,1-.52,3.11h1A14.23,14.23,0,0,1,68.32,34Zm.74,3.7h-1.5a5.55,5.55,0,0,1-3.14,3,4.08,4.08,0,0,0-1.82,1.54,4.16,4.16,0,0,0-.68,2.28,4.22,4.22,0,0,0,.39,1.78,4.05,4.05,0,0,0,1,1.36h9.94A4.17,4.17,0,0,0,74,42.22a4.1,4.1,0,0,0-1.83-1.54,5.56,5.56,0,0,1-3.13-3Zm-.45,14.8V49.74a.3.3,0,0,0-.6,0v2.79a.3.3,0,0,0,.6,0Zm3.5,0V49.74a.3.3,0,0,0-.59,0v2.79a.3.3,0,0,0,.59,0Zm-7,0V49.74a.3.3,0,0,0-.6,0v2.79a.3.3,0,0,0,.6,0Zm8,1.32V48.24H63.53v5.61a2.83,2.83,0,0,1,1,.88,4.06,4.06,0,0,1,.51,1,3.86,3.86,0,0,1,.73-1.06,3.62,3.62,0,0,1,5.18,0,3.86,3.86,0,0,1,.73,1.06,4.4,4.4,0,0,1,.5-1,2.86,2.86,0,0,1,1-.88ZM64.63,57a3.87,3.87,0,0,0-.63-2,1.64,1.64,0,0,0-2.91,0,3.87,3.87,0,0,0-.63,2Zm11.53,0a3.87,3.87,0,0,0-.64-2,1.63,1.63,0,0,0-2.9,0A4,4,0,0,0,72,57Zm-4.8,0a3.12,3.12,0,0,0-.88-1.93,3,3,0,0,0-4.34,0A3.19,3.19,0,0,0,65.25,57Zm3.49.59h-4a5.81,5.81,0,0,1,1.23.84,5.12,5.12,0,0,1,1.22,1.7A5.33,5.33,0,0,1,74,58.53a3.93,3.93,0,0,1,.81-.9Zm-9.11,0h-4a3.68,3.68,0,0,1,.8.9,5.35,5.35,0,0,1,.73,1.64,4.85,4.85,0,0,1,1.22-1.7,5.35,5.35,0,0,1,1.23-.84Zm10.73,0a2.4,2.4,0,0,0-1.93,1.22,5.52,5.52,0,0,0-.85,2.81h5.56a5.52,5.52,0,0,0-.85-2.81,2.4,2.4,0,0,0-1.93-1.22Zm-16.33,0a2.43,2.43,0,0,0-1.94,1.22,5.52,5.52,0,0,0-.84,2.81h5.56a5.62,5.62,0,0,0-.85-2.81,2.41,2.41,0,0,0-1.93-1.22ZM71.7,58.91a5.14,5.14,0,0,0-6.79,0,4.14,4.14,0,0,0-1.38,2.75h9.55a4.22,4.22,0,0,0-1.38-2.75ZM69.22,71.45a.86.86,0,0,0-1.72,0V76a.3.3,0,0,0,.29.3h1.13a.3.3,0,0,0,.3-.3V71.45Zm-.6,4.21V71.45a.27.27,0,0,0-.53,0v4.21Zm7.09-4.21a.87.87,0,0,0-1.73,0V76a.31.31,0,0,0,.3.3h1.13a.31.31,0,0,0,.3-.3V71.45Zm-.6,4.21V71.45a.27.27,0,0,0-.53,0v4.21ZM62.62,71.45a.86.86,0,0,0-1.72,0V76a.3.3,0,0,0,.3.3h1.12a.3.3,0,0,0,.3-.3V71.45ZM62,75.66V71.45a.27.27,0,0,0-.54,0v4.21Zm-3.06-8V77.77H77.63V67.69Zm-.08,10.68-.36,1.16H78.07l-.36-1.16Zm-.46,1.76v3.21H78.18V80.13Zm-.13,3.81-.68,1.17H79l-.67-1.17Zm-.89,1.76v6.16H79.2V85.7ZM67,97.4a.3.3,0,0,0-.3.3V106a.29.29,0,0,0,.3.3h2.57a.29.29,0,0,0,.29-.3V97.7a.3.3,0,0,0-.29-.3Zm2.27.6h-2v7.71h2V98Zm6.48-.6a.3.3,0,0,0-.3.3V106a.29.29,0,0,0,.3.3h1.28a.29.29,0,0,0,.3-.3V97.7a.3.3,0,0,0-.3-.3Zm1,.6h-.68v7.71h.68V98Zm-17.2-.6a.31.31,0,0,0-.3.3V106a.3.3,0,0,0,.3.3h1.29a.29.29,0,0,0,.29-.3V97.7a.3.3,0,0,0-.29-.3Zm1,.6h-.69v7.71h.69V98Zm-3.13-5.54v3H79.2v-3Zm0,3.58v11.63H79.2V96Z"/></svg>