<svg id="_ÎÓÈ_1" data-name="—ÎÓÈ 1" xmlns="http://www.w3.org/2000/svg" viewBox="0 0 58.06 127.86"><defs><style>.cls-1{fill:#f0b27a;}.cls-2{fill:#c89369;}.cls-3{fill:#ae7c5b;}.cls-3,.cls-4,.cls-5{fill-rule:evenodd;}.cls-4{fill:#fff;}</style></defs><rect class="cls-1" x="23.91" y="55.07" width="15.46" height="45.32"/><rect class="cls-2" x="27.78" y="55.07" width="7.73" height="45.32"/><rect class="cls-1" x="27.55" y="24.57" width="8.2" height="4.35"/><rect class="cls-2" x="29.6" y="24.57" width="4.1" height="4.35"/><rect class="cls-1" x="23" y="39.36" width="17.3" height="15.71"/><polygon class="cls-3" points="27.55 28.92 35.74 28.92 38.46 35.01 24.83 35.01 27.55 28.92"/><polygon class="cls-3" points="31.64 13.5 35.74 24.57 27.55 24.57 31.64 13.5"/><path class="cls-4" d="M31.64,53.3a6.08,6.08,0,1,0-6.08-6.08A6.1,6.1,0,0,0,31.64,53.3Z"/><rect class="cls-1" x="24.83" y="35.01" width="13.62" height="4.35"/><rect class="cls-2" x="27.55" y="35.01" width="8.2" height="4.35"/><path class="cls-5" d="M24.21,55.37V69.88h3.27V55.37ZM34.79,44.63a.3.3,0,0,1,.46-.38,4.67,4.67,0,0,1,.58,5A.3.3,0,0,1,35.3,49a4.09,4.09,0,0,0-.51-4.38ZM33,51.06a.3.3,0,0,1,.2.57A4.67,4.67,0,0,1,29,51.05a.3.3,0,0,1,.34-.49,4.06,4.06,0,0,0,3.64.5Zm-1-4.77a1,1,0,0,1,.67.93,1,1,0,0,1-1.93,0,.75.75,0,0,1,0-.21L28,45.47a.29.29,0,0,1,.29-.51L31,46.5a1.13,1.13,0,0,1,.35-.21V44.38a.3.3,0,1,1,.59,0v1.91Zm-.3.55a.38.38,0,1,0,.38.38.38.38,0,0,0-.38-.38Zm0-6a6.38,6.38,0,1,0,4.51,1.87,6.35,6.35,0,0,0-4.51-1.87Zm4.09,2.29a5.76,5.76,0,1,0,1.7,4.09,5.74,5.74,0,0,0-1.7-4.09ZM28.08,55.37V69.88h3.27V55.37Zm3.86,0V69.88h3.27V55.37Zm3.87,0V69.88h3.27V55.37Zm3.86,0v45a.29.29,0,0,1-.29.3H23.91a.29.29,0,0,1-.29-.3v-45H23a.29.29,0,0,1-.3-.3V39.36a.29.29,0,0,1,.3-.3h1.54V35a.2.2,0,0,1,0-.13l2.69-6V24.57a.36.36,0,0,1,0-.1l4.08-11V11.07a.3.3,0,0,1,.59,0v2.37l4.08,11a.5.5,0,0,1,0,.12v4.29l2.69,6a.5.5,0,0,1,0,.12v4.05h1.54a.29.29,0,0,1,.3.3V55.07a.29.29,0,0,1-.3.3ZM29.3,39.06V35.31H27.85v3.75Zm.59-3.75v3.75h1.46V35.31Zm-2.64,3.75V35.31H25.13v3.75Zm4.69-3.75v3.75H33.4V35.31Zm2.05,0v3.75h1.45V35.31Zm2,0v3.75h2.12V35.31ZM29.3,28.62V24.87H27.85v3.75Zm.59-3.75v3.75h1.46V24.87Zm2.05,0v3.75H33.4V24.87Zm2.05,0v3.75h1.45V24.87Zm-8.7,9.84H38l-2.45-5.5H27.74l-2.45,5.5ZM28,24.27h7.34l-3.67-9.92L28,24.27ZM40,39.66H23.29V54.77H40V39.66ZM24.21,70.48V85h3.27V70.48Zm0,15.11V100.1h3.27V85.59Zm3.87-15.11V85h3.27V70.48Zm0,15.11V100.1h3.27V85.59Zm3.86-15.11V85h3.27V70.48Zm0,15.11V100.1h3.27V85.59Zm3.87-15.11V85h3.27V70.48Zm0,15.11V100.1h3.27V85.59Z"/></svg>