<svg id="_ÎÓÈ_1" data-name="—ÎÓÈ 1" xmlns="http://www.w3.org/2000/svg" viewBox="0 0 78.9 124.44"><defs><style>.cls-1,.cls-2{fill:#fff;}.cls-10,.cls-2,.cls-3,.cls-4,.cls-6,.cls-9{fill-rule:evenodd;}.cls-3,.cls-8{fill:#d9d8df;}.cls-4,.cls-7{fill:#e6e6ea;}.cls-5,.cls-6{fill:#bab8c5;}.cls-10{fill:#e7e9ef;}</style></defs><rect class="cls-1" x="18.15" y="91.01" width="26.63" height="2.75"/><path class="cls-2" d="M24.92,72.25H38c.26,1.18.54,2.35.83,3.52H24.09C24.38,74.6,24.66,73.43,24.92,72.25Z"/><path class="cls-3" d="M31.46,55.47a202.88,202.88,0,0,0,6.07,38.29h7.25c-8-19.32-10.59-39-10.63-59.58H31.46Z"/><path class="cls-4" d="M21.35,103.94c5.16-8.83,15.07-8.83,20.23,0l-4-10.18H25.39Z"/><path class="cls-3" d="M31.46,55.47a201.28,201.28,0,0,1-6.07,38.29H18.15c8-19.32,10.59-39,10.63-59.58h2.68Z"/><path class="cls-3" d="M25.39,93.76,19.75,108H11a120.75,120.75,0,0,0,7.11-14.21Z"/><path class="cls-3" d="M37.53,93.76,43.18,108h8.71a120.75,120.75,0,0,1-7.11-14.21Z"/><rect class="cls-5" x="24.09" y="69.69" width="14.75" height="2.56"/><path class="cls-6" d="M23.61,77.61H39.32c-.17-.62-.32-1.23-.48-1.84H24.09C23.93,76.38,23.78,77,23.61,77.61Z"/><rect class="cls-7" x="28.13" y="28.08" width="6.66" height="1.61"/><polygon class="cls-4" points="34.09 26.75 34.09 28.08 28.84 28.08 28.84 26.75 31.46 24.93 34.09 26.75"/><rect class="cls-5" x="28.78" y="29.69" width="5.37" height="4.48"/><rect class="cls-8" x="30.35" y="29.69" width="2.23" height="4.48"/><rect class="cls-7" x="18.15" y="88.26" width="26.63" height="5.5"/><rect class="cls-5" x="18.15" y="91.01" width="26.63" height="2.75"/><path class="cls-9" d="M18.45,93.46h2.07V91.31H18.45v2.15Zm2.27,11.26h-7.5c-.54,1-1.09,2-1.66,3h8l1.17-3Zm-7.18-.6H21l1.17-3H15.07c-.5,1-1,2-1.53,3Zm1.83-3.55h7l1.18-3H16.78c-.46,1-.93,2-1.41,3Zm34.34,4.15h-7.5l1.17,3h8c-.57-1-1.12-2-1.66-3Zm-7.74-.6h7.42c-.52-1-1-2-1.53-3H40.79l1.18,3Zm5.59-3.55h-7l-1.18-3h6.77c.46,1,.93,2,1.41,3Zm-8.82-3H34.87a10.94,10.94,0,0,1,1.87.88,13.25,13.25,0,0,1,3.6,3.13l-1.6-4Zm-10.68,0a10.94,10.94,0,0,0-1.87.88,13.25,13.25,0,0,0-3.6,3.13l1.59-4Zm-11-.59h6.73l1.18-3H18.35c-.42,1-.85,2-1.3,3Zm7.37,0,1.18-3H37.33l1.18,3Zm14.73,0h6.73c-.45-1-.88-2-1.3-3H38l1.18,3Zm2.06-12H35.82c.21,1,.42,2,.65,2.95h5.76c-.35-1-.69-2-1-2.95Zm-5.52-.6H41c-.32-1-.63-2-.92-3h-5l.6,3Zm-8.58.6H21.72c-.33,1-.67,2-1,2.95h5.76c.23-1,.44-2,.65-2.95Zm-5.2-.6h5.33l.6-3h-5c-.29,1-.6,2-.92,3ZM23,80.86H28c.2-1,.38-2,.56-3H23.84c-.26,1-.54,2-.83,3Zm12,0h4.94c-.29-1-.57-2-.83-3H34.42c.18,1,.36,2,.56,3Zm1.55-14.42H32.7c.12,1,.24,2,.38,3h4c-.2-1-.38-2-.56-3Zm-4.43,0H30.83c-.12,1-.24,2-.38,3h2c-.14-1-.26-2-.38-3Zm-1.87,0H26.4c-.18,1-.37,2-.56,3h4c.14-1,.26-2,.38-3Zm-3.72-.6H30.3c.11-1,.22-2,.32-3H27c-.09.53-.17,1.06-.26,1.59s-.15.91-.23,1.36Zm4.39,0H32c-.11-1-.22-2-.31-3h-.51c-.09,1-.2,2-.31,3Zm1.73,0h3.79c-.08-.45-.16-.91-.23-1.36s-.18-1.06-.26-1.59H32.31c.1,1,.21,2,.32,3Zm-5.54-3.55h3.58c.1-1,.18-2,.25-2.95H27.51c-.13,1-.27,2-.42,2.95Zm4.18,0h.39c-.07-.74-.14-1.49-.2-2.23-.05.74-.12,1.49-.19,2.23Zm1,0h3.58c-.15-1-.29-2-.42-2.95H32c.08,1,.16,2,.26,2.95Zm-4.67-3.55H31c.07-1,.13-2,.18-3H27.94c-.11,1-.23,2-.35,3Zm4.37,0h3.38c-.12-1-.24-2-.35-3H31.78c0,1,.11,2,.18,3Zm-4-3.55h3.17v-3H28.29c-.08,1-.18,2-.29,3Zm3.76,0h3.16c-.1-1-.2-2-.29-3H31.76v3Zm-3.41-3.55h2.82v-3H28.58c-.07,1-.15,2-.23,3Zm3.41,0h2.82c-.08-1-.16-2-.23-3H31.76v3Zm-3.14-3.56h2.55V45.13H28.79c-.05,1-.11,2-.17,2.95Zm3.14,0h2.55c-.06-1-.12-2-.17-2.95H31.76v2.95Zm-2.94-3.55h2.35v-3H29c0,1-.08,2-.13,3Zm2.94,0h2.35c0-1-.09-2-.13-3H31.76v3ZM29,41h2.2V38H29c0,1,0,2-.07,2.95Zm2.79,0H34c0-1-.05-2-.07-2.95H31.76V41Zm-2.71-3.55h2.12v-3H29.08l0,3Zm2.71,0h2.12l0-3H31.76v3Zm-3.33-8H34.5v-1H28.43v1Zm6,.6v4.19a186.45,186.45,0,0,0,2.32,30.2c.28,1.68.59,3.35.93,5h1.14a.3.3,0,0,1,.3.29v2.56a.3.3,0,0,1-.3.3h-.46A131.52,131.52,0,0,0,42.86,88h1.92a.31.31,0,0,1,.3.3V93.7q1.47,3.52,3.24,7t3.82,7.06a.3.3,0,0,1-.25.46H43.18a.32.32,0,0,1-.28-.19l-1.59-4A13.73,13.73,0,0,0,36.44,99a9.6,9.6,0,0,0-9.95,0,13.73,13.73,0,0,0-4.87,5.08l-1.59,4a.32.32,0,0,1-.28.19H11a.3.3,0,0,1-.25-.46q2.06-3.53,3.82-7.06c1.18-2.35,2.25-4.7,3.24-7V88.26a.31.31,0,0,1,.3-.3h1.92a131.52,131.52,0,0,0,4.48-15.41h-.46a.3.3,0,0,1-.3-.3V69.69a.3.3,0,0,1,.3-.29h1.14c.34-1.67.65-3.34.92-5a185.33,185.33,0,0,0,2.33-30.2V30h-.35a.29.29,0,0,1-.29-.3V28.08a.3.3,0,0,1,.29-.3h.41v-1a.31.31,0,0,1,.14-.25l2.49-1.73V19.55a.3.3,0,1,1,.59,0v5.22l2.5,1.74a.31.31,0,0,1,.13.24v1h.4a.3.3,0,0,1,.3.3v1.61a.29.29,0,0,1-.3.3Zm-5.37,0v3.89h1V30Zm1.57,0v3.89h1.63V30Zm2.23,0v3.89h1V30Zm.91-2.21v-.87l-2.32-1.62-2.33,1.62v.87Zm4.82,48.28H24.32c-.1.42-.21.83-.32,1.25H38.93c-.11-.42-.22-.83-.32-1.25Zm-14.14-.59h4.46c.1-.6.2-1.2.29-1.8l.18-1.12H25.16c-.22,1-.45,2-.69,2.92Zm5.06,0H33.4c-.1-.57-.19-1.14-.28-1.7-.06-.41-.13-.81-.19-1.22H30c-.06.41-.13.81-.19,1.22-.09.56-.18,1.13-.28,1.7Zm4.47,0h4.46c-.24-1-.47-2-.69-2.92H33.53l.18,1.12c.09.6.19,1.2.29,1.8Zm-4.89,2.44h4.71c.6,3.36,1.29,6.72,2,10H27.07c.75-3.33,1.44-6.69,2-10Zm-4.72-6H38.54V70H24.39v2ZM21.11,93.46h2.07V91.31H21.11v2.15Zm2.67,0h2.06V91.31H23.78v2.15Zm2.66,0H28.5V91.31H26.44v2.15Zm2.66,0h2.07V91.31H29.1v2.15Zm2.66,0h2.07V91.31H31.76v2.15Zm2.67,0h2.06V91.31H34.43v2.15Zm2.66,0h2.06V91.31H37.09v2.15Zm2.66,0h2.07V91.31H39.75v2.15Zm2.66,0h2.07V91.31H42.41v2.15Zm2.07-2.75V88.56h-26v2.15Z"/><path class="cls-10" d="M25.72,218.81,25,195.7l-2-.35.35-15.63L21,178.8l.2-8.09L20,165.49a5.89,5.89,0,0,1,.43-1.17,11.57,11.57,0,0,1-2.12-3.89,11.5,11.5,0,0,1-2.83-4.07L13.53,151a2.73,2.73,0,0,1-1-1.93.88.88,0,0,1-.15-1.06.42.42,0,0,1,.05-.74c-.11-.66.26-.71.75-.78H11.33v-1l1.36-.47V125.62L14.15,124l1.45,1.62V145l1.36.47v1H15.25c.57.19.57.57.52,1.9a1.81,1.81,0,0,1-.36,1.05,65.05,65.05,0,0,1,4,5.47,15.62,15.62,0,0,1,1.5,3.83c.85.67,1.56,1.53,2.37,2.18a1.63,1.63,0,0,1,.37-.08l4.25,4.26h1.9l.11-3.41c-2.3-1.93-2-6.74,2-6.74s4.31,4.83,2,6.75l.11,3.4H36l6.11-2.92.27.16c.6-.36,1.18-.68,1.18-.68a13.93,13.93,0,0,1,.43-2.45,10.1,10.1,0,0,1-3-7.39V145.1a16.45,16.45,0,0,1,11.16,0v6.68a9.73,9.73,0,0,1-4.47,8.48,21.59,21.59,0,0,1-.8,2.74,3.86,3.86,0,0,1-.75,1,11.06,11.06,0,0,0-1,1.3,7.48,7.48,0,0,1,.28.84l-2.17,5.7-.19,4.7-1.32.67.4,13.44-1.79.12-.1,28Z"/><path class="cls-9" d="M29.28,158.92a2.38,2.38,0,0,1,1.36-2.48,3,3,0,0,1,1.29-.29,3,3,0,0,1,1.29.29,2.37,2.37,0,0,1,1.36,2.48,8.26,8.26,0,0,1-.4,2.08,4,4,0,0,0,.65-1.13,4.43,4.43,0,0,0,.27-1.52,3.67,3.67,0,0,0-.3-1.44,2.9,2.9,0,0,0-2.86-1.7,2.9,2.9,0,0,0-2.86,1.7,3.51,3.51,0,0,0-.3,1.44,4.43,4.43,0,0,0,.27,1.52,3.93,3.93,0,0,0,.63,1.11,8.18,8.18,0,0,1-.4-2.06ZM14.57,146.74H13.16c-.3,0-.53.09-.47.44a.31.31,0,0,1-.17.32c-.12.06-.09.16,0,.23a.3.3,0,0,1,.08.39c-.15.32-.07.46.13.73a.32.32,0,0,1,.06.15,3.18,3.18,0,0,0,.15.68l1.63-1v-2Zm2.09-.59v-.49l-2.51-.85-2.52.85v.49Zm-2.42-1.94,1.06.36V125.74l-1.15-1.3L13,125.74v18.83l1.06-.36a.31.31,0,0,1,.19,0Zm.13-20.41,1.45,1.63a.26.26,0,0,1,.07.19v19.15l1.13.39a.29.29,0,0,1,.23.28v1a.29.29,0,0,1-.3.29H16a4.87,4.87,0,0,1,.08,1.62,2.27,2.27,0,0,1-.29,1,60.15,60.15,0,0,1,3.9,5.33,15.48,15.48,0,0,1,1.51,3.81c.77.63,1.42,1.39,2.18,2,.17,0,.38-.09.52,0L28,164.76h1.49l.1-3a4.47,4.47,0,0,1-1.14-1.72,4.83,4.83,0,0,1-.3-1.72,4.17,4.17,0,0,1,.34-1.68,3.48,3.48,0,0,1,3.41-2.06,3.48,3.48,0,0,1,3.41,2.06,4.35,4.35,0,0,1,.34,1.68,4.84,4.84,0,0,1-.31,1.72,4.4,4.4,0,0,1-1.14,1.73l.09,3h1.55l6-2.89c.16-.07.27,0,.4.09.37-.23.71-.42.89-.52a15.47,15.47,0,0,1,.39-2.18,9.21,9.21,0,0,1-1.43-1.8,10.8,10.8,0,0,1-1.57-5.68V145.1a.3.3,0,0,1,.21-.28,16.79,16.79,0,0,1,11.36,0,.3.3,0,0,1,.19.28v6.68a10.79,10.79,0,0,1-1.56,5.68,9.26,9.26,0,0,1-3,3c-.06.26-.13.52-.2.77-.24.91-.5,1.68-.58,1.88a4.71,4.71,0,0,1-.81,1.12,9.94,9.94,0,0,0-.87,1.13,6.82,6.82,0,0,1,.24.73.31.31,0,0,1,0,.19l-2.15,5.66-.19,4.64a.29.29,0,0,1-.16.25l-1.16.59.39,13.25a.3.3,0,0,1-.27.31l-1.51.1-.1,27.45h.79a.29.29,0,0,1,.29.29v3.78h3.61a.29.29,0,0,1,.29.25L48,231.61a.3.3,0,0,1-.29.38H17.54a.3.3,0,0,1-.3-.3.43.43,0,0,1,0-.11l2.55-8.77a.29.29,0,0,1,.28-.22H23.7v-3.78a.29.29,0,0,1,.3-.29h1.41L24.69,196l-1.75-.31a.28.28,0,0,1-.24-.32l.35-15.4-2.18-.85a.31.31,0,0,1-.19-.29l.2-8-1.19-5.18a.33.33,0,0,1,0-.14,5.87,5.87,0,0,1,.38-1.06A12.49,12.49,0,0,1,18,160.58a23.85,23.85,0,0,1-1.61-1.86,8.11,8.11,0,0,1-1.23-2.26l-1.9-5.34a3,3,0,0,1-1.07-2A1.13,1.13,0,0,1,12,148a.7.7,0,0,1,.09-.95,1.31,1.31,0,0,1,0-.35h-.76a.3.3,0,0,1-.3-.29v-1a.29.29,0,0,1,.23-.28l1.14-.39V125.62a.26.26,0,0,1,.07-.19l1.45-1.63a.31.31,0,0,1,.45,0ZM27,218.52c-.06-2.08-.44-14.34-.22-22.33.12-4.37.35-7.88.65-10.73s.63-4.81,1-6.51a5.51,5.51,0,0,1-.62-.13,10.7,10.7,0,0,0-1.53,4.51,105,105,0,0,0-.93,12.37L26,218.52Zm.6,0h1.76c0-2.53.16-20.67.42-27.77.15-3.88.31-7.76.51-11.63q-.7,0-1.29-.09a65.35,65.35,0,0,0-1,6.49c-.3,2.84-.54,6.33-.66,10.69-.22,8,.16,20.28.23,22.31Zm2.35,0h3.63c0-1.57.16-9.25,0-18.77s-.31-18.87-.34-20.63c-.78,0-1.57,0-2.35,0q-.3,5.81-.5,11.63c-.27,7.11-.41,25.21-.43,27.75Zm4.22,0h1.8c0-1.83.25-11.93,0-19.28S35.25,181,35.18,179c-.44,0-.92.06-1.41.08,0,1.73.18,11,.35,20.64s0,17.19,0,18.78Zm2.39,0h1.81c.16-2.28-.09-9.68-.31-16-.13-4.1-.26-7.73-.24-9.15,0-3.29.32-8.6.38-9.75l-.8-.28a.27.27,0,0,1-.2-.3v-4.27c-.35.06-.82.12-1.37.17.07,1.88.47,12.83.73,20.24s0,17.43,0,19.3Zm2.41,0h1l.1-27.71c-.05-1.85-.14-4.47-.29-6.62l-1-.33c-.07,1.43-.33,6.44-.37,9.55,0,1.41.11,5,.25,9.13.21,6.25.46,13.6.31,16ZM25.52,180a.3.3,0,0,1-.6,0l.07-2.07a7.43,7.43,0,0,1-1.28-1.22L23.3,195.1l1.39.25a103.2,103.2,0,0,1,.94-12.11,12,12,0,0,1,1.43-4.48,3.88,3.88,0,0,1-1.49-.47L25.52,180Zm-2.46-.71.08-3.36a5.36,5.36,0,0,1-.84-1.56l-.47-3.46-.36,0-.19,7.64,1.78.7Zm-.14-4.88c.28.56,2,3.73,4.38,3.76l-.49-5.87a1.93,1.93,0,0,1-.86-1.37,18.13,18.13,0,0,1,1.69-5.73l-4.08-4.08a3.18,3.18,0,0,0-1.63,1.26,10,10,0,0,0-1.64,3.1l.66,2.88A23,23,0,0,1,22,163.51a.3.3,0,0,1,.57.19,23.32,23.32,0,0,0-1.23,6.66,4.19,4.19,0,0,1,2.66.31c.14-2,.53-4.58.53-4.59a.3.3,0,0,1,.59.09s-.46,3-.55,5a1,1,0,0,1-.46.9,4,4,0,0,0-1.23,2.33Zm-.2-1.34a3.83,3.83,0,0,1,1.05-1.44c.7-.6-1-.75-1.34-.75l.29,2.19Zm-7.55-26.33v2.48a1.62,1.62,0,0,0,.3-.88,4.31,4.31,0,0,0-.06-1.4c0-.09-.11-.15-.25-.2Zm0,2.84a51.37,51.37,0,0,1,4,5.44,15.05,15.05,0,0,1,1.47,3.75.27.27,0,0,0,.1.16c.72.57,1.33,1.27,2,1.88a5.05,5.05,0,0,0-1.3,1.21,11.52,11.52,0,0,0-1.1,1.74,11.56,11.56,0,0,1-1.45-2.5,3.58,3.58,0,0,0,.39.21.3.3,0,0,0,.26-.53,8.53,8.53,0,0,1-2.67-2.58,7.34,7.34,0,0,1-1.15-2.09L13.87,151h.7a.62.62,0,0,0,.6-.6v-.85Zm-1.45.85v-.52l.85-.51v1Zm14.51,14.92a17.48,17.48,0,0,0-1.69,5.59,1.32,1.32,0,0,0,1,1,3,3,0,0,0,2.21-.47.3.3,0,0,1,.33.5,3.63,3.63,0,0,1-2.66.55l.48,5.7a16,16,0,0,0,3.83.3L31.64,166a5,5,0,0,1-1.29-.2,1.41,1.41,0,0,1-.74-.46Zm8-.11a16.72,16.72,0,0,1,1.67,5.64,1.65,1.65,0,0,1-.31.9l.31,3.69a7.67,7.67,0,0,1,3.37-2.37,3.73,3.73,0,0,0,.8-.39,16.44,16.44,0,0,0-1.61-7.77.3.3,0,0,1,.54-.27,17.61,17.61,0,0,1,1.69,7.41,3.3,3.3,0,0,0,.27-.5L44,169l-1.49-2.86a.3.3,0,0,1,.53-.28s.67,1.27,1.25,2.39l.78-2a5.62,5.62,0,0,0-.75-1.65,7,7,0,0,0-2.24-2l-3.95,1.88a7.14,7.14,0,0,1,1.28,2.4.29.29,0,0,1-.56.18,6.24,6.24,0,0,0-1.28-2.31l-1.3.61Zm.8,7.06a1.77,1.77,0,0,1-.58.24,3.6,3.6,0,0,1-2.69-.54.3.3,0,0,1,.33-.5,3.06,3.06,0,0,0,2.22.47,1.31,1.31,0,0,0,1-1,16.44,16.44,0,0,0-1.68-5.59H34.25a1.43,1.43,0,0,1-.73.46,5,5,0,0,1-1.28.2l.09,12.54a33.24,33.24,0,0,0,4.84-.35l.24-1.67L37,172.3Zm9.45-24A1.63,1.63,0,1,0,48.12,150a1.63,1.63,0,0,0-1.63-1.63Zm0,.59a1,1,0,1,0,1,1,1,1,0,0,0-1-1Zm-2.17,5.38a14.55,14.55,0,0,0,2.17-.7,14.69,14.69,0,0,0,2.18.7.3.3,0,0,0,.13-.58,12.64,12.64,0,0,1-1.57-.47,6.32,6.32,0,0,0,.92-.59,3.16,3.16,0,0,0,1.42-2.51,3.12,3.12,0,0,0-.48-1.66,3.86,3.86,0,0,0-1.32-1.28.3.3,0,0,0-.3.51,3.31,3.31,0,0,1,1.12,1.08,2.58,2.58,0,0,1,.39,1.35,2.61,2.61,0,0,1-1.19,2,6.65,6.65,0,0,1-1.3.76,7.3,7.3,0,0,1-1.3-.76,2.41,2.41,0,0,1-.79-3.39,3.23,3.23,0,0,1,1.12-1.08.3.3,0,0,0-.31-.51,4,4,0,0,0-1.32,1.28,3.12,3.12,0,0,0-.48,1.66,3.16,3.16,0,0,0,1.42,2.51,7,7,0,0,0,.93.59,13.35,13.35,0,0,1-1.58.47.3.3,0,0,0,.14.58Zm2.06,6.79a8.84,8.84,0,0,1-2.27-1.38,14,14,0,0,0-.3,1.85.76.76,0,0,0,.44.37.3.3,0,0,1-.13.58,1.31,1.31,0,0,1-.72-.49l-.51.3a6.94,6.94,0,0,1,1.89,1.85c.13.19.24.37.34.55a8.56,8.56,0,0,1,.71-.9,4.17,4.17,0,0,0,.71-1c.06-.14.31-.87.55-1.78l.06-.23c-.18.09-.36.18-.54.25a.26.26,0,0,1-.23,0Zm-6.69,22.47,0-8.94a4,4,0,0,0-1.67,2l-.27,1.87v4.42l1.95.67Zm.58-9.31,0,9.7s.18,2.58.28,6.52l1.19-.08-.39-13.13c-.06-.8-.18-2.31-.26-3.46-.19.09-.46.23-.84.45Zm1.42-.67.24,3.18.77-.39.15-3.62a4.25,4.25,0,0,1-1.16.83ZM30.21,162.22l-.09,2.84s.15.1.41.18a4.91,4.91,0,0,0,1.4.18,5,5,0,0,0,1.41-.18c.25-.08.41-.15.41-.18l-.09-2.83-.17.09a2.52,2.52,0,0,1-.42.44,1.73,1.73,0,0,1-2.28,0,3.71,3.71,0,0,1-.43-.45l-.15-.09ZM30.9,157A2.52,2.52,0,0,1,33,157a1.82,1.82,0,0,1,1,1.9,4.91,4.91,0,0,1-1.3,3.43,1.24,1.24,0,0,1-.76.3,1.29,1.29,0,0,1-.76-.3,5,5,0,0,1-1.3-3.43,1.83,1.83,0,0,1,1-1.9Zm11.78.18a8.57,8.57,0,0,0,3.81,3.35,8.47,8.47,0,0,0,3.81-3.35,10.21,10.21,0,0,0,1.48-5.37V145.3a16.31,16.31,0,0,0-10.57,0v6.48a10.21,10.21,0,0,0,1.47,5.37ZM24.3,222.59H41v-3.48H24.3v3.48Zm20.65.6H20.32l-2.38,8.2H47.33Z"/></svg>