<svg id="layer1" xmlns="http://www.w3.org/2000/svg" viewBox="0 0 248.17 195.75"><defs><style>.cls-1{fill:#492d0c;}</style></defs><path class="cls-1" d="M50.09,98.16c2.21,1.49,5.56,1.18,8.08,1.15,5-.07,9.89-.94,14.86-1.15,15.47-.68,30.94-1.62,46.4-2.5C131,95,143.08,93,154.33,96.85a22.41,22.41,0,0,1,13.26,12c3.06,7.09-3.18,13.24-8.71,16.52-6.52,3.86-14.56,4.59-21.94,5.36a240,240,0,0,1-25.15,1c-13.3,0-26.59-.16-39.88-.66-9.57-.37-19.45.31-27.21,6.5-7.44,5.94-9.17,15.22-2.25,22.07,9.71,9.61,25.24,8.84,37.73,8.91,8.73,0,17.47-.3,26.16-1.07,9.82-.86,19.45-3.14,29.33-3.67,11.13-.61,26.7,4.24,34.53-6.59,3.17-4.37,2.51-11,.5-15.67-2.24-5.19-7.26-6.81-12.46-6.85-.71,0-2.07,1.06-.76,1.07,7.8.06,12,4.87,12.85,12.26,1,8.92-5.43,14.23-13.79,15.13-7.24.78-14.67-.72-21.95-.32-7.48.41-15,1.6-22.37,2.73A197.21,197.21,0,0,1,63.37,167c-9.61-1-25.14-7.2-23.45-19.22,1-7.33,8.63-12.46,15.13-14.37s13.68-1.37,20.36-1.05c13.66.66,27.43.56,41.11.45,12.58-.09,26.19-.26,38.21-4.37,7.93-2.72,17-9.37,15.18-18.8-1.69-8.56-11.53-13.42-19.14-15.1-9.23-2-19-.76-28.36-.06-13.6,1-27.28,1.51-40.9,2.26-5,.28-10,.4-14.93,1-3.78.46-11.28,2-14.69-.28-.56-.37-2.31.41-1.8.75Z"/><path class="cls-1" d="M50.16,97.88c-8.81,2-16.23,8.93-17.09,18.18-1,10.63,9.37,14.74,18.25,14.69.78,0,2-1.2.72-1.19-8.74,0-17.45-3.79-17-13.71.35-8.45,7.59-15.13,15.44-16.89,1.19-.26.88-1.34-.29-1.08Z"/><path class="cls-1" d="M61.55,120.44c23.5-.06,46.9-2.85,70.38-2.15,3,.09,28.21.64,20.77-8-3.45-4-11.17-4.31-15.94-4.73a148.86,148.86,0,0,0-21.64.05c-20.71,1.22-41.13.2-61,7.09-.19.06-1,.52-.44.69,5.13,1.55,10.58,1.47,15.89,1.62,6.35.19,12.55.5,18.92.24,7.68-.31,15.39.35,23.08.36,8.46,0,16.92-.26,25.38-.28.59,0,2.1-.89.81-.89-14.9,0-29.8-.16-44.7-.18-7.45,0-14.81.13-22.26-.13-3-.1-6.1-.17-9.15-.39a36,36,0,0,1-5.25-.82c.15,0,4.21-1.51,5.22-1.79,14.66-4.14,30.09-4,45.19-4.06,6.44,0,12.91-.93,19.38-1,7.43,0,17.47-.36,23.86,4.09,3.41,2.38,2.19,5.32-1.48,6.3-4,1.07-8.48.94-12.62.92-8.87,0-17.5-.31-26.41.14-15.71.8-31.4,1.91-47.13,2-.59,0-2.1.89-.81.88Z"/><path class="cls-1" d="M141.52,146c-7,.63-13.84-1.5-20.83-1.44-8,.06-16.14,1.31-24.1.71-9.34-.71-22.74-4.41-31.16,1.63-8.24,5.91.09,10.46,6.76,11.71,14.33,2.68,29.64,2.15,44.13,1.53,6.58-.29,13.12-1,19.7-.76,5.17.19,10.33.5,15.48-.17,2.76-.36,13.48-4.37,6.86-7.31-2.92-1.31-6.68-1.29-9.81-1.41-6.53-.27-13.12.11-19.65.4-16.12.7-32.21,2-48.35,2.1-.66,0-1.62.9-.67,1.27,6.38,2.53,13.4,1.45,19.92,0,1.2-.27.85-1.49-.33-1.23-6,1.35-12.53,2.35-18.45,0l-.67,1.28c22.76-.08,45.59-3.39,68.33-2.47a30.17,30.17,0,0,1,8.55,1.29c4.53,1.55-4.47,4.57-5.54,4.75a43.24,43.24,0,0,1-8,.42c-9.15-.07-18,.08-27.21.52a259.33,259.33,0,0,1-35.15-.54c-5-.44-10.17-.76-14.71-3s-3-5.86,1-8.06c2.71-1.51,6-1.81,9-2,5-.33,10.06.42,15,1a95.63,95.63,0,0,0,15.42.23,181.14,181.14,0,0,1,18.93-.33c5.2.28,10.06,1.74,15.32,1.27,1.05-.1,1.52-1.44.2-1.33Z"/><path class="cls-1" d="M166.68,160.92c8.45-5.38,17.21-10.53,26-15.36,7.23-4,15.11-7.79,20.77-14,.78-.85-1.11-.84-1.56-.35-5.87,6.4-14.17,10.26-21.68,14.39-8.35,4.6-16.69,9.55-24.72,14.67-1.11.71.57,1,1.2.61Z"/><path class="cls-1" d="M156.45,128.91c21.89-14.34,49.05-18.36,70.15-34.09,1.05-.78-.59-1.1-1.21-.63-21.09,15.73-48.26,19.75-70.15,34.1-1.1.72.57,1.05,1.21.62Z"/><path class="cls-1" d="M230.78,102.22c1.51,8,8.42,14.28.44,21.37-6.28,5.59-16,6.34-23.21,10.33-.81.44,1.14.2,1.47,0,7.78-4.28,17.42-5.12,24.23-11.18,7.45-6.63.39-13.69-1-21-.07-.37-2,.08-1.93.51Z"/><path class="cls-1" d="M45.07,99.32c7-.31,12.43-3.73,18.22-7.41,9.45-6,19.95-10.84,30.28-15.1C114.68,68.09,138.5,63,161.37,64c14.77.61,29.15,4.47,43,9.52,5.74,2.1,27.49,9.51,20.75,18.86-.51.72,1.43.56,1.8.05,11.31-15.7-47.66-27.7-55.61-28.74-21.07-2.74-42.14.92-62.36,6.82A189.24,189.24,0,0,0,77.56,83c-4.84,2.41-9.64,5-14.31,7.65-5.69,3.29-10.51,7.3-17.43,7.6-.71,0-2,1.15-.75,1.1Z"/><path class="cls-1" d="M76.74,92.71c5.31,2.4,13.07-1.75,17.84-3.77,4.55-1.92,9-4.1,13.58-5.92,1.55-.62,3-1.84-.51.71a42.45,42.45,0,0,1-5.39,3,36.65,36.65,0,0,0-7.09,4.63c-.34.29.3.35.46.33,6.74-.86,12.46-4,18.37-7.22a64,64,0,0,1,6.32-3A21.52,21.52,0,0,1,126.4,80c-.11,0-2.56,2-2.85,2.15a47.63,47.63,0,0,0-10,8.12c-.28.33.25.34.46.33a43.88,43.88,0,0,0,10.85-2.22c1.11-.34,1-1-.17-.61-2.2.67-4.37,1.29-6.64,1.75-4,.82.07-2.26.52-2.65,3.14-2.8,6.93-4.92,10.4-7.29.46-.32,0-.44-.33-.43-6.75.26-12.53,3.27-18.37,6.43-1.72.93-3.45,1.83-5.21,2.68a33.49,33.49,0,0,1-4.9,1.89c-1.21-.79-1-1.37.58-1.75,3.75-2.36,7.7-3.89,11.11-6.79.48-.4-.84-.27-1-.24A99.52,99.52,0,0,0,98,86.67C93.22,88.82,83.89,94.46,78.56,92c-.53-.23-2,.56-1.82.67Z"/><path class="cls-1" d="M168.39,126c12.47-.39,22.27-9.27,34.5-10.65,0-.41,0-.82,0-1.23-7,1.35-12.67,5.21-17.89,9.94-.58.52.22.91.69.88,3.58-.3,6.52-1.78,9.71-3.34.85-.41.6-1.17-.3-1.14a7.05,7.05,0,0,0-4.18,1.33c-.76.5-.12,1,.52,1a20.48,20.48,0,0,0,7.16-1.12c1.13-.4.85-1.59-.32-1.18a19.36,19.36,0,0,1-6.63,1c.17.34.34.68.52,1l2.72-.81c-.1-.38-.2-.76-.31-1.14-2.83,1.38-5.46,2.8-8.68,3.06l.69.87c4.85-4.4,10.06-8,16.61-9.23,1-.19,1.07-1.35-.05-1.23-12.23,1.38-22.11,10.27-34.5,10.66-1,0-1.53,1.31-.21,1.27Z"/></svg>