<svg id="layer1" xmlns="http://www.w3.org/2000/svg" viewBox="0 0 380.75 297.94"><defs><style>.cls-1{fill:#203b54;}.cls-2{fill:#492d0c;}</style></defs><path class="cls-1" d="M48,26.34c6.46,14,179.53,111.35,196.44,119.92,3.53,2.38,16,12,19.62,14.12,1.49.86,31.87,17.72,32.69,22.91.07.28-10.26,34.5-12.19,47.17-1.45,9.52-2.41,25.72,2.79,33.94,1.15,3.7,3.79,2.56,5.74,6.1a3.61,3.61,0,0,0,3.88,1.71c18.59-2.41,25.56-14.57,25.73-30.61.49-2.23,1.61-5.81,1.47-8-2.1-32.33-14.95-63.52-16.36-66.48-.7-4-50.61-31.81-61-37.9-1.37-1-17.39-11.63-18.78-12.61C215.56,107.82,67.82,27.21,59,23.41,53.42,21,46.72,23.68,48,26.34ZM225.67,122c-.81-.5-1.63-1-2.45-1.48-.24-.36-.49-.72-.74-1.07q3.56,2.13,7.13,4.23C228.3,123.15,227,122.59,225.67,122ZM60.33,31.89l-.07.18c-.11-.12-.24-.24-.35-.37ZM225.39,130l-.08.13L223.64,129Z"/><path class="cls-2" d="M50.3,32.33C61.06,41,73,47.74,85,54.53c13,7.38,25.56,15.4,38.59,22.69,27.13,15.17,54.82,29.32,81.32,45.59,12.74,7.83,25,16.42,37.79,24.12s25.59,14.9,38.23,22.6q4.38,2.67,8.68,5.44c1.4.89,2.78,1.81,4.16,2.72,1.77,1.17,1,4.41.88,6.05a159.59,159.59,0,0,1-3.92,23.78C288.34,218.3,285.27,229,284,240c-1.22,10.52-2.05,31,12.8,31.68,6.8.32,14.9-3.46,19-8.8,5.75-7.41,7.2-17,7.61-26.16.5-10.89-1.13-21.26-3.51-31.86-1.56-6.93-3.39-13.8-5.38-20.62-1-3.44-2.09-6.86-3.2-10.26-.58-1.78-1.55-7.55-3.08-8.57-5.34-3.55-10.84-6.85-16.3-10.2C238.5,122.37,184.39,90.42,129.6,59.82c-18.76-10.47-37.6-21-57-30.17a111.93,111.93,0,0,0-16-6.64,12,12,0,0,0-4.16-.64c-1.58.12-2.2,1.91-2.63,3.23-1,2.94-1.36,4.45.53,6.73.47.57,2.32-.14,1.78-.79-1.41-1.7-1.19-2.88-.73-5,.11-.52.48-3,1.18-2.94a11.82,11.82,0,0,1,2.87.59,75.1,75.1,0,0,1,9.29,3.57c10,4.4,19.79,9.51,29.49,14.62C122.93,57.5,151.13,73.7,179.25,90Q222,114.78,264.3,140.3q14.76,8.89,29.46,17.92,4.61,2.84,9.18,5.71l2.82,1.8c1,.65.84.56,1.38,2.06,1.4,3.9,2.68,7.84,3.92,11.79,7.09,22.52,14.42,47.86,8.53,71.49-2.67,10.72-11.09,19.91-22.92,19.35-8.34-.4-10.5-10.35-11.1-17a77.13,77.13,0,0,1,1.68-22c3-14.73,7.22-29.23,9-44.18.31-2.64,1.3-6.8.61-9.38-.32-1.21-4.65-3.18-5.72-3.87-6.31-4.08-12.77-7.94-19.24-11.77-12.66-7.5-25.47-14.75-37.95-22.56-15.08-9.44-29.73-19.41-45.16-28.32-15.58-9-31.46-17.46-47.26-26.06-15.57-8.48-30.68-17.56-46-26.53C80.82,50.06,65.49,42.27,52.08,31.54,51.5,31.08,49.7,31.85,50.3,32.33Z"/><path class="cls-1" d="M267.76,208.6a3.54,3.54,0,0,0-5.27-3c-.31.17-.61.36-.92.54a3.36,3.36,0,0,0-1.63.93l-.4.39a54.2,54.2,0,0,0-7,6,22.8,22.8,0,0,0-13.32,6l0,0-.25.18c-2.94,1.34-6,2.42-9,3.69-1.21.14-2.41.24-3.64.27l-.12,0-.2,0v0a3.47,3.47,0,0,0-2.08.88c-.77-.34-1.56-.67-2.34-1,5.08-.34,10.48-2.31,14.54-4.08,8-3.5,18.54-9.67,22.78-17.57a8.2,8.2,0,0,0,.79-2.13,2.77,2.77,0,0,0,1.4-2.2c1.6-11.26-9.37-11.78-17.65-9.87a52.8,52.8,0,0,0-7.81,2.48c-.3.09-.59.17-.88.27-8.35,2.64-17.21,6.59-22.07,13.47A13.84,13.84,0,0,0,209,213a3.49,3.49,0,0,0-.41,3.79,11.59,11.59,0,0,0,3.26,4.16c-2.78.73-4.12,4.54-1.08,6.33a57.37,57.37,0,0,0,15.75,6.82,3.82,3.82,0,0,0,2.2-.15l.44.15h0a2.89,2.89,0,0,0,3.58-1.07,29,29,0,0,0,7.07-2.47C251,230.46,268.19,220.69,267.76,208.6Zm-48.13,6.62a22.83,22.83,0,0,0,8.9-.5c.41,0,.82,0,1.22-.06-4.29,1.7-9.57,3.07-12.88,1.12A18,18,0,0,0,219.63,215.22Zm29.77-12.63a50.27,50.27,0,0,1-6.9,5.37,23.67,23.67,0,0,0,2.18-2.64,22.93,22.93,0,0,0,6-5.08,8.46,8.46,0,0,0,.8-.28,5.12,5.12,0,0,0,.78-.38A19.46,19.46,0,0,1,249.4,202.59Z"/><path class="cls-2" d="M210.29,203.78c-3.32,4-8,10.72-3.67,15.71,3.71,4.31,9.8,5.23,15.2,5.09,8.13-.22,16.38-3.91,23.58-7.37,6.9-3.31,14.36-6.91,19.27-13,2.77-3.42,4.63-8,3.34-12.37-1.56-5.26-8.12-6.63-12.79-7.05C240,183.42,223,192.43,212,202.25c-.46.41,1.39.23,1.76-.1,10.88-9.69,26.69-17.73,41.56-16.37,11.1,1,13.76,10.26,7.59,18.55-3.49,4.7-8.85,7.35-13.86,10.08-7.8,4.26-16.41,8.24-25.33,9.24-5.09.57-10.94-.56-14.72-4.19-4.92-4.71-.27-11.81,3.05-15.78.44-.52-1.44-.28-1.76.1Z"/><path class="cls-2" d="M206,218.12c2.61,7.46,6.92,13.83,14.71,16.34,6.86,2.21,14.91.31,21.43-2.08,8.27-3,19-7.18,24.82-14.11,5.91-7.08,5-17.76,1.62-25.69-.33-.76-2.24-.18-1.93.52,3.15,7.32,3.8,15.55,0,22.77s-14.39,11-21.53,14.07c-6.92,3-14.75,5.2-22.28,3.62-8-1.68-12.43-8.82-14.93-16-.28-.78-2.2-.23-1.93.52Z"/><path class="cls-2" d="M214.16,224.32c4.93,3.06,6.75,9.48,12.67,11.18.53.16,2.27-.66,1.56-.86-5.8-1.67-7.59-8-12.43-11-.53-.34-2.24.45-1.8.72Z"/><path class="cls-2" d="M221.41,224.79a18.5,18.5,0,0,0,4.81,6.1c1.63,1.49,3.64,3.15,5.92,3.38.85.09,2-1.13.71-1.26-2.12-.22-4.16-2.26-5.6-3.64a16.06,16.06,0,0,1-3.91-5.1c-.33-.78-2.24-.21-1.93.52Z"/><path class="cls-2" d="M227.16,223.45c.47,2.08,3.27,4.1,4.74,5.44,1.95,1.77,4.29,4,6.89,4.73.57.16,2.27-.7,1.2-1-2.35-.66-4.53-2.9-6.29-4.47-1.4-1.25-4.17-3.27-4.61-5.22-.14-.62-2.08-.13-1.93.52Z"/><path class="cls-2" d="M233.87,221.33c.35,2.17,2.91,3.91,4.52,5.11a27.47,27.47,0,0,0,6.89,4c.52.19,1.92-.6,1.82-.64a28.73,28.73,0,0,1-6.44-3.67c-1.74-1.23-4.49-3-4.86-5.33-.05-.33-2,.09-1.93.52Z"/><path class="cls-2" d="M240.88,218.85a30.55,30.55,0,0,0,14.22,8.27c.7.2,2.29-.83,1.16-1.15a29.18,29.18,0,0,1-13.6-7.92c-.51-.55-2.35.18-1.78.8Z"/><path class="cls-2" d="M248.31,216.17c3.44,1.61,6.54,3.81,10,5.41.61.28,2.37-.57,1.53-1-3.43-1.61-6.54-3.81-10-5.42-.6-.28-2.36.58-1.53,1Z"/><path class="cls-2" d="M255,212.61c3.32,1.31,4.9,5.16,8.93,4.78,1.07-.1,1.5-1.5.18-1.38-3.21.3-5.22-3.58-8-4.68-.8-.31-2.26.83-1.12,1.28Z"/><path class="cls-2" d="M259.92,208.92c3.16.63,5.45,3.31,8.29,4.68.5.24,2.28-.51,1.56-.86-3-1.45-5.29-4.1-8.64-4.77-.53-.11-2.27.73-1.21.95Z"/><path class="cls-2" d="M262.68,204.74c1.34,2,3.84,2.92,6.11,3.37.6.12,2.28-.82,1.19-1-2.08-.41-4.28-1.27-5.51-3.09-.35-.52-2.23.11-1.79.75Z"/><path class="cls-2" d="M266.75,202l1,.46a1.88,1.88,0,0,0,1.35-.23c.24-.12.61-.4.22-.57l-1-.45a1.87,1.87,0,0,0-1.36.23c-.23.11-.6.39-.22.56Z"/></svg>