<svg id="layer1" xmlns="http://www.w3.org/2000/svg" viewBox="0 0 249.34 310.72"><defs><style>.cls-1{fill:#6e9365;}.cls-2{fill:#492d0c;}</style></defs><path class="cls-1" d="M84.23,208.87c.13.94.23,1.89.27,2.84a8.39,8.39,0,0,0,.61,2.8c-7.74,10.17-13.52,21-9.92,35.43C77,257,88,257.31,89.67,250a48.89,48.89,0,0,0,.87-6.67,8,8,0,0,0,3.58.32c-.37,3.92-.76,7.84-1.07,11.77-.46,5.79,6.1,8.78,10.78,6.75a7.64,7.64,0,0,0,3,1.38c.06,2.61.12,5.23.13,7.85,0,4.87,3.68,7.3,7.4,7.3s7.6-2.32,7.6-7.2c0-.81.12-1.63.22-2.46a8.48,8.48,0,0,0,1-.15c-.27,3.19-.55,6.39-.8,9.59-.08.19-.17.37-.25.57a6.1,6.1,0,0,0-.12,4.3c0,.63-.1,1.26-.14,1.89-.54,7.87,11.69,10.15,14.33,3.53a7.25,7.25,0,0,0,2.21,1.94c3.24,1.87,8.61,1,10.24-2.75.26-.59.49-1.19.71-1.78h0s0-.09,0-.14a37.49,37.49,0,0,0,2-8.81,5.84,5.84,0,0,0,1.47-2.06c.16-.38.33-.74.49-1.11a30.32,30.32,0,0,0,7.88,2.13c-.26,1-.52,1.9-.79,2.83-2.11,7.15,7.44,12.76,12.57,7.25a24,24,0,0,0,2-2.48,7.16,7.16,0,0,0,5.2-5.08,28,28,0,0,0,.87-8.55,7.42,7.42,0,0,0,3.38-4.24,9.94,9.94,0,0,1,1.25-3,18.38,18.38,0,0,1,1.62,1.16c7,5.2,14.64-5.79,9.11-11.72,0-3.47,0-6.94-.08-10.4a7.22,7.22,0,0,0,3.17.75c7.92,0,10.69-8.15,10.75-14.91a7.72,7.72,0,0,0-4.77-6.94,68.48,68.48,0,0,0-1.52-9.24c.24,0,.47-.09.71-.15,5.09,3.62,14.34-1.14,11.7-8l-.12-.28c.07-1,.26-2,.37-3.05.31-2.91-1.86-5.74-4.59-7a24.17,24.17,0,0,0-1.19-3.87c-1.53-3.79-4.12-7.31-3.82-11.51a6.67,6.67,0,0,0-1.8-4.84,54.15,54.15,0,0,0-3.5-8.59,7.47,7.47,0,0,0-8.41-3.45,5.24,5.24,0,0,1-2.92.12c1.1-9.71-3.33-18-13.41-21.41a6,6,0,0,0-1.69-.29,15.78,15.78,0,0,0-9.11-3,17.13,17.13,0,0,1-2.83-3.87,6.86,6.86,0,0,0-9-3.05,24.15,24.15,0,0,1,.36-3.76c.36-1.49.67-3,.9-4.45a7.94,7.94,0,0,0-4.19-8.37c.09-1.4.16-2.8.18-4.21a6.72,6.72,0,0,0-4.11-6.69c.69-3.83,1.42-7.64,2.22-11.45a212.29,212.29,0,0,1,6-23.56,7.47,7.47,0,0,0,2.35-2.55,62,62,0,0,0,7.12-17.75,8.52,8.52,0,0,0,.21-1.76,38.27,38.27,0,0,0,3-7.83c2-8.35-7.84-11.87-12.69-6.82-3.91-2.63-10.06-2-11.37,3.93A71.41,71.41,0,0,0,143,49.74a7.34,7.34,0,0,0,1.4,4.46c-4.07,9.86-6.59,20.53-8.82,30.73-3.38,15.5-5.53,31.22-8.21,46.84-.14.29-.3.57-.46.84-1.62,1.34-3.17,2.75-4.69,4.21A42.54,42.54,0,0,1,109,143.69a32.21,32.21,0,0,0-6.21,1.16,7,7,0,0,0-4.37,3.78,24,24,0,0,0-7.35.49c-7.15,1.43-6.5,9.53-2.09,13.22a9.85,9.85,0,0,0-1.45,1.14,7.63,7.63,0,0,0-2.18,6.08c-4.27,3.3-3.43,8.64-.25,11.46a5.9,5.9,0,0,0-3.89,3.56,73.19,73.19,0,0,1-8.51,14.92C67.8,206.24,78.7,214.72,84.23,208.87Z"/><path class="cls-2" d="M165.81,21.7c-4.43.92-3.43,8.73-3.44,12,0,9.48,1.43,19.43-.94,28.71-1.34,5.23-4.9,9.73-6.94,14.71A60.53,60.53,0,0,0,150.75,92c-1.74,13,3.42,23.64,6.51,35.88.1.4,2-.1,1.93-.52-2.54-10.07-6.88-19.2-6.91-29.77s3.4-20.91,8.76-30c4.62-7.83,3.58-17.73,3.42-26.41,0-2.22-1.23-18.35,1-18.81.75-.15,1.73-.95.37-.67Z"/><path class="cls-2" d="M143.41,114.68c-1.25,8.87-4.06,17.38-4.25,26.4l1.59-.64c-1.74,0-2.93.74-4.47.95-.47.06-2.1.92-.84.75s2.72-.94,4.05-.94c.34,0,1.59-.15,1.6-.64.19-9,3-17.54,4.25-26.4,0-.2-1.85,0-1.93.52Z"/><path class="cls-2" d="M134.9,145.79c5,6.49,12.8,14.43,8.82,23.19-3.06,6.73-9.42,11-12,18.2l1.92-.43q0-3.76,0-7.54c0-.17-.47-.13-.54-.13a5.08,5.08,0,0,0-3.43,1.41l1.84-.33c-5-10.87-.1-22.25,5.3-32,.14-.26-1.64-.14-1.91.34-5.43,9.77-10.38,21.21-5.32,32.14.23.49,1.58-.11,1.84-.33-.24.21.29,6.08.29,6.93,0,.38,1.79-.06,1.92-.43,2.65-7.44,9.2-12.07,12.39-19.09,3.69-8.13-4.72-16.63-9.2-22.47-.36-.47-2.08.32-1.93.51Z"/><path class="cls-2" d="M148.74,169.15c.25,3.93,1.77,7.45,3.06,11.13,2.25,6.43-.24,10.23-5.48,13.87-2.91,2-5.87,3.84-8,6.68-2.87,3.73-4.34,10-5.48,14.52l2-.12A99.49,99.49,0,0,0,133,202.28c-1-6.26,1.92-9.64,3.83-15.13.38-1.1-1.56-1.15-1.86-.28-1.4,4-4,7.16-4.31,11.51-.41,5.59,2,11.36,2.14,17,0,1.12,1.75.74,2-.12,1.48-5.85,3.63-13.16,8.46-17,3.1-2.49,6.63-4.26,9.38-7.19,5.83-6.22-1.47-15.18-1.88-22-.07-1.06-2-.81-2,.12Z"/><path class="cls-2" d="M146.71,200.55c2.22,2.3,3.47,5.8,4.7,8.69,1.3,3.07,3,6.73,2.59,10.13s-5.34,6.06-7,9.07c-2.15,4-.48,10.18-.37,14.44l1.93-.52c-1.48-9.43-19.4-16.06-11.81-26.16.46-.6-1.45-.37-1.77.06-8,10.63,10.13,17,11.65,26.62.09.54,2,.08,1.93-.52-.14-5.26-1.82-11.48,1.53-16.06,1.92-2.62,6.14-4.66,5.92-8.45-.34-5.56-3.62-13.95-7.53-18-.41-.42-2.22.28-1.81.7Z"/><path class="cls-2" d="M125.11,217.59c-4.55,1.23-12.35,5.41-9.34,11.16l1.72-.75c-4-1.91-3.8-8.14-3.57-11.85a29.62,29.62,0,0,1,.84-5.21,26.71,26.71,0,0,0,.62-5.8c.39-7.31,9.6-5.85,12.89-10.54.54-.77-1.42-.64-1.81-.09-1.77,2.53-6.52,3.18-9.12,4.8a8.28,8.28,0,0,0-4,7.25c.31,6.08-5.33,18.68,2.59,22.43.35.16,2.08-.07,1.73-.75-2.61-5,3.61-8.48,7.69-9.59,1.17-.31.89-1.37-.28-1.06Z"/><path class="cls-2" d="M129.62,229.57c-1.16,4.67-7.05,7.82-7.09,12.8,0,1.47,1.2,3.39-1.45,3.55-.17,0-.59-5.08-.64-5.51-.53-4.33-1.28-8.64-.62-13,.1-.64-1.83-.28-1.92.28-1,6.35.93,12.63,1.07,19,0,.22.45.22.57.22a9.7,9.7,0,0,0,5.24-1.2c.12-.08.47-.28.38-.48-2.72-6.57,4.94-10.14,6.38-15.91.15-.6-1.77-.29-1.92.28Z"/><path class="cls-2" d="M137.08,247.6c2.68,15.34-21.46,13.5-24.49,26.23l2-.17c-.05-6.87-1.55-17.65,5-22.14,1.09-.75-.52-1.31-1.25-.8-7.09,4.89-5.72,15.64-5.66,23.11,0,1,1.77.58,2-.17,3-12.68,27.32-10.26,24.48-26.58-.15-.84-2.09-.35-1.94.52Z"/><path class="cls-2" d="M138.38,263.9c7,6.12-.7,16-5.39,21.11-4.15,4.52-5.41,9.14-5.48,15.2l1.73-.62c-4.32-3.42-5.36-10.86-6.48-15.91-1.54-7-2.87-15.29,5.07-18.83,1.21-.54.12-1.51-.84-1.08-7.07,3.15-8.15,9.79-6.93,16.83,1.07,6.26,2.36,15.87,7.68,20.07.45.35,1.72.05,1.73-.62.05-4.61.59-8.54,3.34-12.36,2.12-2.95,4.63-5.58,6.68-8.61,3.56-5.25,5.78-11.55.38-16.26-.61-.54-2.32.36-1.49,1.08Z"/><path class="cls-2" d="M147.05,243.16C158,246.87,155.18,260,149,267l1.68-.21a23.72,23.72,0,0,1-6.33-10.24c-.23-.71-2.15-.17-1.93.52a24.09,24.09,0,0,0,6.47,10.49,1.38,1.38,0,0,0,1.67-.21c6.8-7.61,9.45-21.24-2.34-25.22-.63-.22-2.26.71-1.17,1.08Z"/><path class="cls-2" d="M157.71,213.09c14.8,5.81,2.29,21.38.67,31.49l1.86-.5a111.51,111.51,0,0,0-7.46-10.37c-.52-.68-2.36.07-1.77.84a111.51,111.51,0,0,1,7.46,10.37c.39.65,1.76.15,1.86-.5,1.74-10.86,14.27-26.41-1.49-32.61-.8-.31-2.26.83-1.13,1.28Z"/><path class="cls-2" d="M155.56,187.61c4.65,1.25,7.09,6.68,8.13,10.95l1.32-.91c-3.89-.14-6.75-2.45-9-5.4-.5-.64-2.35.08-1.78.82,2.56,3.29,5.84,5.72,10.13,5.89.45,0,1.47-.26,1.31-.91-1.14-4.69-3.87-10.3-8.92-11.66-.76-.2-2.29.91-1.14,1.22Z"/><path class="cls-2" d="M110.52,235.1c-3,5.51-16.9,10.28-13.92,18.17l1.93-.51A51.45,51.45,0,0,1,94,236.11c-.33-3.32,0-6.8,1.74-9.68,2.17-3.53,8.94-4.89,12.62-6,.24-.07,1-.31.85-.69-.47-1.67-1.94-2.28-3.39-3-.52-.26-2.3.5-1.55.88a4,4,0,0,1,3,2.65l.85-.7c-5.79,1.72-13.37,3.44-15.54,9.76-2.52,7.34,1,17.29,4,23.93.28.6,2.15,0,1.93-.51-2.84-7.53,10.74-12.13,13.77-17.67.42-.75-1.51-.5-1.78,0Z"/><path class="cls-2" d="M122.13,174.9c-.35,6.92-5,12.88-4.25,19.92l1.74-.7c-10.28-3.24-3-16.36,2.11-21.13.79-.74-1.12-.61-1.53-.23-5.48,5.11-13,18.8-2.13,22.24.42.13,1.81,0,1.74-.7-.7-6.94,3.9-12.84,4.25-19.67,0-.71-1.9-.3-1.93.27Z"/><path class="cls-2" d="M141,186c6.85-6.82,4.85-21.14,5.1-29.87.49-17.14,1.35-34.2,1.34-51.37l-1.93.51c.05,16.35,1,32.68,1.09,49,0,.3,1.9,0,1.93-.52,1.9-25.2-3.83-51,5.28-75.33.12-.32-1.73-.13-1.91.35-9.12,24.37-3.4,50.24-5.3,75.5l1.93-.52c0-16.34-1-32.67-1.09-49,0-.29-1.93,0-1.93.51,0,16.53-.12,33-1.26,49.5-.36,5.3-.17,10.63-.47,15.93-.3,5.07-.69,11.65-4.52,15.47-.4.39,1.42.15,1.74-.17Z"/><path class="cls-2" d="M157,59.66c3.52-12.14,3.22-25.4,2.11-37.88-.07-.77-1.94-.38-1.94.35,0,6.09-.15,12.08-2.12,17.91l1.95-.18c.21-5.1,1.94-10,2.12-15.08,0-1-1.92-.63-2,.17-.18,5.12-1.91,10-2.12,15.09-.05,1,1.71.51,1.95-.18C159,34,159.14,28,159.15,22l-2,.35c1.11,12.34,1.36,25.52-2.11,37.53-.25.86,1.72.61,1.94-.17Z"/><path class="cls-2" d="M149.82,23.91c-9.76,17.93-8.88,38.36-11.28,58.05-1.31,10.65-3.28,21.2-3.67,32a62.74,62.74,0,0,1-.84,6.83c-.2,1.33-.42,2.65-.68,4-.34,1.74,1.37,1.33,1.34-.18,0-.59-1.95-.22-1.93.52a4.65,4.65,0,0,0,.1,1.23c0,.16.23.22.37.25l.07,0a1.56,1.56,0,0,0,1.49-.5c1.71-3,1.57-8,1.92-11.36,1.06-9.89,1.22-19.86,3.28-29.62s1.89-20.45,2.95-30.5c1.13-10.69,3.5-21.14,8.67-30.64.44-.8-1.5-.57-1.79,0Z"/><path class="cls-2" d="M149.8,47.38c-2.87,4.9-3.24,11.27-3.78,16.77-.73,7.34-.87,14.73-1.58,22.07-.1,1,1.76.65,2-.15,3.11-12.39,4.25-25.13,6.37-37.71.17-1-1.81-.72-2,.15-2.12,12.58-3.25,25.31-6.37,37.71l2-.15c.62-6.45.83-12.94,1.34-19.4.48-6.15.71-13.61,3.91-19.07.55-.93-1.42-1-1.85-.22Z"/><path class="cls-2" d="M163.13,67.78c-6.11,2.42-33.5-.22-23.33-10.66l-1.68.2c5.66,10.13,21.33,13.74,30.45,6.38.36-.29.14-.62-.21-.75-7-2.54-14.21.7-21.3-.93-.32.38-.64.76-.95,1.15,4.68.21,9.15,1.7,13.85,1.87.76,0,2.06-1,.73-1.17-8.54-1-16.68-3-24.11-7.43l-1.53,1c5.1,1.92,9.82,4.67,14.92,6.59.63.24,2.38-.66,1.53-1-5.1-1.92-9.82-4.67-14.92-6.59-.53-.2-2.43.44-1.53,1C142.72,62,151.15,64,160,65l.73-1.17c-4.7-.18-9.17-1.67-13.85-1.88-.54,0-2.07.89-1,1.15a29.81,29.81,0,0,0,9.52.29,57.55,57.55,0,0,1,7.65-.36c6.48.27-.63,2.84-2.65,3.21-7.61,1.37-16.76-3.05-20.5-9.75-.28-.5-1.4-.08-1.68.2-11.78,12.09,18.71,14.69,25.69,11.94,1.25-.5.11-1.24-.79-.89Z"/><path class="cls-2" d="M157,83.05c-.4-3-5.56-4.46-7.86-5.3a77.73,77.73,0,0,0-12.75-3.37c-.35-.07-2.15.54-1.38.88,6.68,3,13.08,6.47,20.41,7.57.5.07,2.28-.72,1.22-.93-5.73-1.08-11.28-2.84-17.05-3.76-.35,0-2.15.61-1.39.89,5.42,2,10.57,4.6,16,6.59.33.12,2.19-.34,1.68-.78a45.14,45.14,0,0,0-14-8.54l-1.39.88c1.45.19,2.81.75,4.26.94.51.07,2.26-.79,1.22-.92-1.46-.19-2.81-.75-4.27-.94-.33-.05-2.17.59-1.39.88a44.76,44.76,0,0,1,13.74,8.41l1.68-.78c-5.42-2-10.57-4.6-16-6.59l-1.38.89c5.76.92,11.32,2.68,17,3.76l1.22-.93c-7.22-1.08-13.51-4.53-20.07-7.48l-1.39.88a86.18,86.18,0,0,1,11.49,3c2.4.79,8,2.25,8.4,5.29.07.53,2,.1,1.93-.52Z"/><path class="cls-2" d="M170.29,46c-9.89-.27-19-4.53-28.56-6.56-.41-.09-2.17.46-1.37,1,8.41,5.33,17.22,11,27.54,8.48.27-.07,1.1-.43.77-.83-4.79-6-16.32-5.72-23.13-4.85-.34,0-1.6.54-.91,1,4.25,2.7,8.33,4.54,13.42,3.82.25,0,1.28-.31,1.1-.77-1.7-4.41-5.58-6.6-10-7.78-.59-.16-2.27.72-1.19,1,4.08,1.1,7.65,3.2,9.22,7.29l1.1-.77c-4.69.66-8.38-1.32-12.15-3.71l-.91,1c6.39-.82,17.15-1,21.62,4.56.25-.28.51-.55.77-.83-9.55,2.31-18.08-3.61-25.74-8.47-.46.32-.92.64-1.37,1,9.72,2.06,18.93,6.32,29,6.6.71,0,2.07-1,.77-1.06Z"/><path class="cls-2" d="M144.19,39.14c2.32-4.65,1.18-10.3,1.11-15.28,0-1-1.94-.76-2,.14-.06,4.12-1,8.15-1.06,12.25l2-.13V25.75c0-1-2-.76-2,.14V36.25c0,1,1.95.77,2-.13.09-4.11,1-8.14,1.06-12.26l-2,.14c.07,4.81,1.23,10.41-1,14.89-.5,1,1.46,1,1.85.25Z"/><path class="cls-2" d="M169.39,38.2c4.15-2,4.67-5.61,4.67-9.83,0-.49-1.68.17-1.85.32-.92.83-2,1.66-2.2,2.93-.09.49,1.82.16,1.91-.33A5.05,5.05,0,0,1,174,28.57l-1.85.32c0,3.61-.19,7.26-3.85,9-1.15.55.65.51,1.12.28Z"/><path class="cls-2" d="M134.88,96.67c-6.48,12.83-15.69,23.75-16,38.76,0,.56,1.56-.06,1.72-.17a53.87,53.87,0,0,0,7.74-6.58c1.55-1.48,4.68-3.7,5.32-5.86a.16.16,0,0,0-.06-.2l-.07-.06c-.47-.36-2.21.39-1.81.71s-11.34,11-12.63,11.82l1.72-.17c.28-14.93,9.52-25.8,16-38.55.21-.42-1.65-.25-1.92.3Z"/><path class="cls-2" d="M126.59,136.05c-9.36,6.21-33,21.29-20.38,34.35.3.32,2-.08,1.87-.6-1-5,10.28-5.25,13.78-6.64,5.56-2.21,7.21-8.63,7.51-14.11,0-.37-1.89-.11-1.93.52-.21,3.84-1.33,9.47-4.53,12.06-2.66,2.15-6.8,2.37-10,3.08-3,.65-7.57,1.62-6.73,5.61l1.87-.6c-12.34-12.74,10.91-27.46,20.07-33.54.83-.56-1.12-.38-1.5-.13Z"/><path class="cls-2" d="M155.33,137.49c13.2,6.75,19.34,26.67,10.55,39.13l1.8-.36c-4.44-5-10.68-6.5-16-10.16-5.71-3.9-2.2-14.3-1-19.76.15-.67-1.79-.36-1.93.26-1.18,5.2-4.13,14.15-.4,18.9,1.57,2,4.45,3.15,6.65,4.2,4,1.94,7.87,3.88,10.88,7.29.38.43,1.52,0,1.79-.36,9.05-12.84,2.81-33.08-10.79-40-.53-.27-2.31.51-1.55.9Z"/><path class="cls-2" d="M174.53,175.18c1.92.59,1.14,10.64,1.14,12.12,0,4.7-.23,9.39-.26,14.09l1.87-.63c-4.67-3.21-9-7-11.66-12.14-.31-.61-2.18,0-1.93.52,2.66,5.19,7,9.08,11.79,12.35.46.32,1.86.07,1.87-.62,0-5.05.26-10.09.25-15.14,0-1.76.85-10.7-1.52-11.44-.55-.17-2.29.66-1.55.89Z"/><path class="cls-2" d="M173.68,155.62c9.77,4.54,18.28,13.27,13.48,24.63l1.67-.45c-6.06-4.74-10-11.16-13.72-17.76-.46-.81-2.29,0-1.76.88,3.81,6.72,7.84,13.23,14,18a1.19,1.19,0,0,0,1.67-.44c5.1-12.06-3.78-21.4-14.25-26.26-.86-.4-2.22.84-1.09,1.36Z"/><path class="cls-2" d="M179.74,191.12c4.93,4.73,7.48,11.67,9.79,18,1.39,3.79,2.55,6.89,1.49,11-.94,3.62-3.09,6.69-3.87,10.41L189,230c-2.92-3.88-5.86-7.76-7.59-12.33-1-2.6-1.92-5.65-5-6.15-5.53-.91-8.09-2.47-9.37-8.08-.89-3.87-.46-8-.42-12,0-.51-1.93-.18-1.93.52,0,5.35-1.52,17.42,5.48,19.67a21.41,21.41,0,0,0,5,.83c2.84.21,3.84,4.7,4.66,6.85,1.57,4.16,4.63,7.87,7.27,11.38.32.43,1.77,0,1.87-.49.77-3.72,2.6-6.88,3.86-10.41s.1-6.73-1.05-10c-2.34-6.73-5.09-14.32-10.35-19.37-.45-.43-2.26.29-1.8.73Z"/><path class="cls-2" d="M174.36,221c-1.18,6-3,11.8-3.19,17.91l1.86-.5c-2.1-2.09-3.15-4.69-4.19-7.41-.27-.71-2.18-.14-1.93.51,1.07,2.84,2.16,5.5,4.33,7.67.38.37,1.85.15,1.87-.5.14-6.11,2-12,3.18-17.91.15-.77-1.8-.46-1.93.23Z"/><path class="cls-2" d="M107.24,201.32c-2.87,7.3-12.18,9.89-13.84,17.92l1.36-.59c-3.18,0-4-6.84-3.67-9.07.57-3.53,3.43-6.49,5.81-9,4.58-4.74,10.24-8.71,13.31-14.71.18-.35-1.65-.2-1.91.32-3.89,7.61-12,11.69-16.72,18.62-1.85,2.7-2.93,5.41-2.44,8.7.38,2.52,2.07,5.95,4.81,5.95.31,0,1.28-.19,1.36-.59,1.66-8,11-10.6,13.84-17.91.16-.42-1.71-.21-1.91.31Z"/><path class="cls-2" d="M181,241.16c.5.3-1.25,5.87-1.43,6.53a44.55,44.55,0,0,1-4.28,10.37c-5.37,9-9.06-8.59-10.66-11.94-.31-.63-2.19,0-1.94.52,1.68,3.5,4.6,20.24,11.9,14.34,3.48-2.81,5.08-7.93,6.43-12,.36-1.12,3-7.84,1.52-8.7-.51-.3-2.3.46-1.54.89Z"/><path class="cls-2" d="M162.68,262.58c-2.27,3.91-5.18,7.4-7.46,11.31l1.92-.43c-2.4-3.33-3.15-7.26-3.2-11.31,0-.31-1.94,0-1.93.52.05,4,.8,8,3.2,11.31.31.42,1.7-.05,1.92-.43,2.27-3.92,5.18-7.41,7.45-11.32.13-.23-1.63-.13-1.9.35Z"/><path class="cls-2" d="M179.77,266.5c7.67,7.77-8.84,21.45-14.74,25.08l1.71-.21c-2.77-8.67,1.92-18.07-2.14-26.4-.25-.49-2.1.18-1.94.52,4.07,8.33-.62,17.73,2.15,26.39.15.48,1.47-.07,1.71-.21,6.11-3.77,23-17.76,15.07-25.84-.37-.37-2.14.34-1.82.67Z"/><path class="cls-2" d="M184.84,265.91c-.07-2-1-3.72-1.07-5.66,0-.66-2-.26-1.93.52.07,1.94,1,3.71,1.07,5.65,0,.66,2,.26,1.93-.51Z"/><path class="cls-2" d="M192.7,237.49c5.7,4.8,4.48,14.5,4.17,21.12-.07,1.54.6,3.2-1.4,3.08-2.31-.13-4.32-1.45-6.07-2.83-3.34-2.63-5.36-7-6.7-10.86-.3-.87-2.23-.34-1.93.51,2.64,7.68,8,15.06,16.86,14.57.38,0,1.06-.3,1.07-.77.09-8.08,2.56-20-4.51-25.92-.64-.55-2.34.38-1.49,1.1Z"/><path class="cls-2" d="M195.88,213c6,3.77,16.42,7.08,16.57,15.54.13,6.72-7.42,12.54-9.32,18.86l1.72-.63c-3-2.19-3.82-5.74-6.26-8.35-.59-.64-2.42.14-1.77.84,2.53,2.71,3.46,6.36,6.54,8.61a1.2,1.2,0,0,0,1.72-.62c1.94-6.45,10.47-12.95,9.3-20.16-1.35-8.26-10.82-11.29-17-15.2-.71-.44-2.41.53-1.49,1.11Z"/><path class="cls-2" d="M198.67,236.68A131.07,131.07,0,0,1,196.53,217c0-.86-1.94-.45-1.93.22a130.87,130.87,0,0,0,2.14,19.94c.12.71,2.06.24,1.93-.51Z"/><path class="cls-2" d="M190.7,182.83c6.77,1.17,16.2,10.31,14.33,17.71-.95,3.73-5.45,4.32-8.36,2.75-2-1.09-3.63-3.08-5.1-4.81-2.16-2.53-4.06-5.53-7-7.28-.59-.36-2.36.49-1.52,1,6.57,3.95,13.36,20.19,22.66,10.35,6.87-7.27-7.26-19.69-13.86-20.84-.68-.11-2.29.93-1.17,1.13Z"/><path class="cls-2" d="M165.35,134.89c6.81.42,15.88,5.49,20.14,10.89,3.58,4.54,2.69,11.4,2.68,16.77l1.72-.62c-4.41-3.22-7.44-8.1-13-9.51-.81-.21-2.29,1-1.13,1.27,5.35,1.36,8.34,6.22,12.61,9.33.45.33,1.72.07,1.72-.63,0-6.35.65-13-3.52-18.29-2.27-2.89-5.91-4.6-9-6.46A25.58,25.58,0,0,0,166,133.52c-.92-.05-2,1.29-.68,1.37Z"/><path class="cls-2" d="M189.43,159.13c11,2.74,28.95,17.21,16.95,28.8l1.79-.37c-4.27-2.93-8.24-6.27-12.91-8.55-.49-.24-2.28.51-1.56.86,4.58,2.23,8.48,5.54,12.67,8.4a1.65,1.65,0,0,0,1.79-.37c12.28-11.86-5.73-26.78-17.17-29.63-.53-.13-2.26.69-1.56.86Z"/><path class="cls-2" d="M106.34,177.11c1.64.78-2.85,3.77-3.37,4.18-1.55,1.2-2.83,2.6-4.29,3.9-3.63,3.23-7.09,6.63-8.5,11.4l1.93-.39c-3.67-10.2,2.8-18.22,8.44-26.13.5-.7-1.44-.51-1.79,0-5.75,8.06-12.31,16.31-8.58,26.67.23.65,1.77.13,1.93-.39,1.89-6.38,8.16-11.46,13.3-15.46,1.1-.86,5.13-3.4,2.48-4.67-.55-.26-2.33.54-1.55.91Z"/><path class="cls-2" d="M206.38,210.89c3.7,4.29,7.87.87,9.57-3.3,3-7.25,1.61-17.79-5.65-21.92-.53-.3-2.19.49-1.8.71,5.18,3,6.86,8.62,6.86,14.27,0,3.38-2.27,15.22-7.17,9.53-.38-.43-2.21.24-1.81.71Z"/><path class="cls-2" d="M95.89,216.93c-5.16,3.06-9.55,8.36-10,14.54l1.86-.5c-6.23-7.87-5.91-18.33,2-24.94.84-.71-1.08-.67-1.54-.29-8.2,6.87-8.81,17.69-2.25,26,.33.41,1.83.06,1.87-.5.38-5.8,4.33-10.85,9.21-13.75,1.12-.66-.59-.89-1.19-.53Z"/><path class="cls-2" d="M87.07,197.45c-3.37,4.61-7.93,8-11.72,12.26l1.79-.39c-4.53-5.78-5.78-11.43-.55-17.17,3.82-4.2,9-7.12,13.3-10.81.47-.41-1.39-.24-1.77.08-5.07,4.38-11.35,7.75-15.3,13.28-3.72,5.22-1,10.84,2.51,15.31.32.4,1.54-.11,1.79-.39,3.78-4.23,8.35-7.64,11.71-12.26.43-.58-1.47-.32-1.76.09Z"/><path class="cls-2" d="M95.87,170.76c-5.46,3.6-12.53,4.84-16.28,10.63l1.86-.26c0-7.73,1.38-12.57,7.39-17.77,2.3-2,13.36-9.77,16.3-7.07.47.43,2.27-.3,1.8-.74-3.56-3.26-12.86,3.1-15.81,4.89a35.27,35.27,0,0,0-8.45,7.14c-3.26,3.82-3.16,9.34-3.16,14.06,0,.63,1.67,0,1.86-.26,3.56-5.49,10.46-6.69,15.67-10.12,1.09-.72-.61-.88-1.18-.5Z"/><path class="cls-2" d="M109.54,251.78c-3.82,5.18-18.33,12.41-13.91,20.5.14.26.55.27.8.27h1.06c.37,0,1.07-.31,1.07-.77-.08-7.24-1-14.43-1.08-21.67,0-1-2-.71-2,.15.09,7.24,1,14.44,1.08,21.68l1.06-.78c-1.85,0-.56-3.85-.13-4.76,1-2.15,3-3.94,4.64-5.56,2.94-2.83,6.55-5.19,9-8.49.73-1-1.09-1.28-1.62-.57Z"/><path class="cls-2" d="M93.49,239.88C89.26,244.6,83,251.44,87,258l1.38-.66C79,258,76.55,250.4,74.67,242.68c-1.09-4.49-2.06-10.62.08-14.86,1.77-3.5,4.52-6,5.64-9.84.13-.43-1.76-.17-1.91.33-1.37,4.73-5.89,8-6.62,12.88-.79,5.19.43,10.61,1.81,15.58,2.07,7.46,5.82,12,13.9,11.37.14,0,1.59-.32,1.38-.67-4-6.42,2.17-13.11,6.29-17.71.42-.47-1.44-.23-1.75.12Z"/><path class="cls-2" d="M114.72,273.84c-.29,3.32-2.31,6.61-4.2,9.27l1.81-.34C108.54,277.4,108.13,271,106,265c-.27-.77-2.19-.22-1.93.51,2.16,6.14,2.63,12.59,6.47,18.05.4.56,1.51.08,1.8-.34,1.94-2.72,4-6.17,4.32-9.59.08-.88-1.87-.54-1.94.2Z"/><path class="cls-2" d="M150,275c3.59,2.86-.94,10-2.8,12.66a15.71,15.71,0,0,1-2.46,2.75c-1.21,1.06-2.34-2.5-2.65-3.33-1.22-3.22-1.67-6.66-3-9.85-.23-.55-2.12.07-1.93.52,2,4.71,2.21,10.08,5.4,14.22.17.23.79.09,1,0,3.3-1,5.42-4.16,7.08-7,1.52-2.59,4.27-8.23,1.18-10.7-.46-.37-2.21.38-1.81.69Z"/><path class="cls-2" d="M98.73,269.26H93.4c-1.11,0-1.48,1.43-.17,1.43h5.33c1.11,0,1.48-1.44.17-1.44Z"/><path class="cls-2" d="M103.48,153.48c-1.57.86-16.62,9.21-16.75,5.84-.19-4.91,2.68-8.07,6.83-10.14,6.22-3.1,12.77-4.52,17.54-10,.8-.91-1-1.18-1.61-.54-7.64,8.7-25.23,7.43-24.67,22a.62.62,0,0,0,.64.61c7.12.58,12.88-3.46,18.87-6.74,1.16-.63.11-1.63-.85-1.11Z"/><path class="cls-2" d="M146.36,211.42c4.16-4.11,4-11.47,4.06-16.87,0-7.8-1-15.56-1.62-23.32-.93-10.89-.74-22-1.22-32.91-.6-13.41-.83-26.84.94-40.18l-1.93.52c5.12,18.6,6.16,37.86,5.81,57.08a166.07,166.07,0,0,1-2.57,27.71c-1.8,9.72-4.09,19.33-4.24,29.26l1.93-.51c0-18.55-1.05-37.07-1.1-55.62,0-.26-1.93,0-1.93.52,0,18.54,1,37.07,1.1,55.61,0,.26,1.92,0,1.93-.51.14-9.28,2.11-18.32,3.89-27.39a172.81,172.81,0,0,0,2.92-29.59c.44-19.18-.7-38.51-5.81-57.08-.1-.39-1.87.1-1.93.52-1.69,12.7-1.54,25.47-1,38.25.45,11.05.49,22.19,1.18,33.21.45,7.15,1.4,14.24,1.68,21.4.24,6.08.94,15.4-3.8,20.08-.37.37,1.43.13,1.74-.18Z"/><path class="cls-2" d="M157.27,132.58c1.16,18.2,4.16,36.23,4.28,54.5l1.86-.5c-9.23-17.17-4.36-37-7.41-55.45-.14-.85-2.08-.37-1.93.51,3.08,18.65-1.77,38.41,7.56,55.77.33.6,1.87.17,1.87-.5-.12-18.38-3.13-36.53-4.3-54.84-.06-.83-2-.38-1.93.51Z"/><path class="cls-2" d="M134.94,137.89c-7.42,22.82-23.19,42.47-24.53,67.12,0,1,1.91.71,2-.15,1.33-24.53,17-44.06,24.41-66.76.35-1.06-1.58-1-1.84-.21Z"/><path class="cls-2" d="M112.37,220.86c0-18,1.08-35.18,7.43-52.21,5.92-15.9,15.25-30.29,22.29-45.67.43-.94-1.51-.82-1.82-.14-7.05,15.42-16.13,29.85-22.29,45.67-6.62,17-7.56,34.52-7.55,52.54,0,.93,1.94.57,1.94-.19Z"/><path class="cls-2" d="M171.16,208.93c-.08,7.87-1,15.7-1.06,23.57l1.87-.62c-9.82-15.18-7.2-34.44-13.81-50.8-.24-.59-2.14,0-1.93.52,6.65,16.45,4.05,35.71,13.94,51,.3.48,1.86-.07,1.87-.61.07-7.87,1-15.7,1.05-23.57,0-.47-1.93-.15-1.93.52Z"/><path class="cls-2" d="M131.75,240.86a28.15,28.15,0,0,1-3.12,13l1.87-.09a69,69,0,0,0,1.06-14.14c0-.82-1.94-.41-1.94.24a68.4,68.4,0,0,1-1.06,14.14c-.16.78,1.64.35,1.87-.09a28.94,28.94,0,0,0,3.26-13.35c0-.82-1.93-.41-1.94.24Z"/><path class="cls-2" d="M191.19,192.38c-8.65-12.66-14.69-26.77-21.33-40.52-.22-.45-2.07.23-1.93.51,6.64,13.76,12.68,27.87,21.33,40.53.31.45,2.06-.33,1.93-.52Z"/><path class="cls-2" d="M185.86,185.78c.63-16.27-12.6-29.1-21.33-41.46-.35-.5-2.11.26-1.93.52,8.73,12.36,22,25.17,21.33,41.46,0,.34,1.91.08,1.93-.52Z"/><path class="cls-2" d="M121.41,157.46c-11.44,8.32-23,21.07-25.91,35.33-.15.77,1.29.44,1.58.23,7.37-5.1,4.8-16.73,6.22-24.44,2.61-14.24,11.92-26.22,19.61-38.07.53-.81-1.43-.68-1.81-.1-6.43,9.9-13.38,19.5-17.56,30.63a49.58,49.58,0,0,0-3.1,16.11c-.15,5.16.19,11.89-4.58,15.2l1.58.23c2.78-13.88,14-26.34,25.19-34.45,1.06-.77-.56-1.15-1.22-.67Z"/></svg>