<svg id="layer1" xmlns="http://www.w3.org/2000/svg" viewBox="0 0 245.16 389.56"><defs><style>.cls-1{fill:#68320e;}.cls-2{fill:#43efa9;}.cls-3{fill:#7145ed;}.cls-4{fill:#ef37de;}.cls-5{fill:#2dc931;}.cls-6{fill:#2b5cbf;}.cls-7{fill:#d17e46;}.cls-8{fill:#9e5c30;}.cls-9{fill:#ef9f37;}.cls-10{fill:#efbb95;}.cls-11{fill:#492d0c;}</style></defs><path class="cls-1" d="M195.24,158.63A79.07,79.07,0,0,0,180,136.49a76.81,76.81,0,0,0-7.28-6.92c-12.85-10.69-29.51-17.13-46.31-16.63a59.16,59.16,0,0,0-8.45.87c-1.85.19-3.69.43-5.51.74C97.4,117.07,83.91,125,73,135.46a3,3,0,0,0-1.73,1A23.21,23.21,0,0,0,67,144.2c-8.78,11.07-11.46,25.29-10.23,39.31A3.14,3.14,0,0,0,55.36,186c-.44,12.82,5.34,24.22,13.33,33.76,7.72,11.64,18.74,25.57,32.62,29.59a51,51,0,0,0,21.81,7.42c23.44,2,46.31-10.31,60.7-28.34a73.09,73.09,0,0,0,13.85-27,62.45,62.45,0,0,0,3.68-16.76C201.94,175.63,198.91,166.7,195.24,158.63Zm-65.08,91.84a44.08,44.08,0,0,1-23.11-5.53,3.28,3.28,0,0,0-1.81-1.33c-.48-.15-.95-.34-1.42-.52a85.22,85.22,0,0,1-12.1-9.17,3.05,3.05,0,0,0-.78-3C84.17,224.25,77,218,72,209.8a65.66,65.66,0,0,1-8-21.31,55.26,55.26,0,0,1,.86-25.89,3.08,3.08,0,0,0,.59-.51c2.4-2.66,3.69-5.89,4.83-9.19a48,48,0,0,1,4.92-8.06,3.48,3.48,0,0,0,.76-2.63c15-11.3,31.8-21.4,50.16-22.48a66.26,66.26,0,0,1,30.6,7.13,68.69,68.69,0,0,1,15.91,11.47,72.17,72.17,0,0,1,14.23,19.58,61.55,61.55,0,0,1,4.63,41.66c-.9,2.49-1.92,4.92-2.95,7.3a3.41,3.41,0,0,0-.2,2.18c-.47,1.09-1,2.18-1.52,3.25C176.19,233.26,153.85,249.36,130.16,250.47Z"/><path class="cls-2" d="M108.93,147a2.87,2.87,0,0,0-.71-.52,3.8,3.8,0,0,0-1.63-1,2.44,2.44,0,0,0-1-.12,3.68,3.68,0,0,0-2.17.36,4.47,4.47,0,0,0-1.79,1.74,3.92,3.92,0,0,0,1.32,5.11l.53.54A3.28,3.28,0,0,0,109,151.5a3.39,3.39,0,0,0,.89-2.22A3.23,3.23,0,0,0,108.93,147Zm-1.6-.86h0l.06,0Z"/><path class="cls-2" d="M135.36,283.2a3.55,3.55,0,0,0-1.29-1.29,3.83,3.83,0,0,0-2.66-.34,2.74,2.74,0,0,0-1.68,1.11,3.82,3.82,0,0,0-1.86,3.08v.75a3.4,3.4,0,0,0,1.74,2.82,3.52,3.52,0,0,0,2.28.41,8.25,8.25,0,0,0,.86,0,3.18,3.18,0,0,0,3.12-3.27v-.75a3.4,3.4,0,0,0-.39-1.86C135.41,283.66,135.48,283.43,135.36,283.2Z"/><path class="cls-2" d="M184.56,244.48a3.19,3.19,0,0,0-.09-3.12,3.28,3.28,0,0,0-3.9-1.41c-.06,0,.12,0,.05-.07-2-.69-3.75,1.1-3.75,3.14v1.16c-1,.63-.53,1.18-.54,1.77a3,3,0,0,0,3,3.2h2.25a3.23,3.23,0,0,0,3.15-4.07C184.69,244.83,184.62,244.73,184.56,244.48Z"/><path class="cls-2" d="M93.54,254.61a5.3,5.3,0,0,0-1.06-2,3.3,3.3,0,0,0-4.65,0l0,0c-1.31,1-2.36,2.64-1.75,4.29,0,0,0,0,0,0s0,.22,0,.36a3.45,3.45,0,0,0,.45,1.7,3.51,3.51,0,0,0,2.07,1.59,5.66,5.66,0,0,0,3.18-.18,3.32,3.32,0,0,0,2.29-4C93.88,255.8,93.72,255.2,93.54,254.61Z"/><path class="cls-2" d="M131.19,110.44a3.32,3.32,0,0,0,.41-2,3.66,3.66,0,0,0-.41-2.1,9.18,9.18,0,0,0-1.07-1.72,1.34,1.34,0,0,0-.11-.14c0-.06-.09-.12-.14-.17a6.86,6.86,0,0,0-2.1-1.39,3.37,3.37,0,0,0-3.3,0,3.27,3.27,0,0,0-1.62,2.83,6.36,6.36,0,0,0,1.45,4.3,6.8,6.8,0,0,0,2.42,1.52A3.33,3.33,0,0,0,131.19,110.44Z"/><path class="cls-2" d="M162.05,167.21a4.34,4.34,0,0,0,2.31,7.09,4.83,4.83,0,0,0,2.41-.59,3.53,3.53,0,0,0,1.73-3.06,5.1,5.1,0,0,0-1.82-3.44A3.31,3.31,0,0,0,162.05,167.21Zm.32,3.44v0Z"/><path class="cls-3" d="M143.57,186.93a3.62,3.62,0,0,0-2.45-.78h-.75a3.16,3.16,0,0,0-2.47,5.21,2.75,2.75,0,0,0,.42,1.64,3.17,3.17,0,0,0,2.81,1.58l.45-.06c.16,0,.49,0,.65,0a3.64,3.64,0,0,0,3.64-3.28v-1.5A3.42,3.42,0,0,0,143.57,186.93Z"/><path class="cls-3" d="M187,251.89c-.25-.74-.5-1.34-.75-2.09a3.15,3.15,0,0,0-1.8-2,3.75,3.75,0,0,0-1.72-.43,2.7,2.7,0,0,0-1.48.33,2.82,2.82,0,0,0-2,2.63c0,.09,0,.18-.05.26a3.5,3.5,0,0,0,.63,3.94,5.61,5.61,0,0,0,4.07,1.48A3.3,3.3,0,0,0,187,251.89Z"/><path class="cls-3" d="M164.36,288.15h-2.25a3.12,3.12,0,0,0-3.27,3.07,4.28,4.28,0,0,0,.89,2.42,6,6,0,0,0,1.57,2.73,3.25,3.25,0,0,0,3.18.82,3.32,3.32,0,0,0,2.4-3.16s0,0,0,0a5.89,5.89,0,0,0,.74-2.78A3.12,3.12,0,0,0,164.36,288.15Zm-1.05.39a3.44,3.44,0,0,0-.45-.05A2.3,2.3,0,0,1,163.31,288.54Zm2.82,4a2.09,2.09,0,0,0,0-.35v0C166.25,293,166.14,292.75,166.13,292.51Zm.72,1.67Zm0-.09c-.22.68-.12.29,0,0Z"/><path class="cls-3" d="M69.28,252.28a6.38,6.38,0,0,0-2.77-.54A3.65,3.65,0,0,0,62.87,255v.75c0,.37.32.75.48,1.1a3.64,3.64,0,0,0,.52,1.14,3.46,3.46,0,0,0,3,1.65,4.86,4.86,0,0,0,1.37-.07,3,3,0,0,0,1.47-.81l.28-.18a3.32,3.32,0,0,0,.67-5.14A6.86,6.86,0,0,0,69.28,252.28Z"/><path class="cls-4" d="M120.87,190.15h-2.25a3.43,3.43,0,0,0-2.55,1.61,3.37,3.37,0,0,0-2.22,3.17,5.6,5.6,0,0,0,5.1,5.47,4.49,4.49,0,0,0,3.63-1.48,8.23,8.23,0,0,0,1.56-5.08A3.68,3.68,0,0,0,120.87,190.15Zm-2.58,1.15-.59.14h0Z"/><path class="cls-4" d="M164.8,282c-.06-.14-.12-.27-.19-.4a1.64,1.64,0,0,1,0-.23,3.54,3.54,0,0,0-3.23-3.21h-.75a2.66,2.66,0,0,0-1.77.87,3.27,3.27,0,0,0-.8.66,3.52,3.52,0,0,0-.56.82,3.33,3.33,0,0,0,.07,4.56l.12.14a4.72,4.72,0,0,0,.89,1.05,5.29,5.29,0,0,0,1.88,1.06,5.22,5.22,0,0,0,1.67.22,3.26,3.26,0,0,0,3.27-3.27A5.69,5.69,0,0,0,164.8,282Zm-1.49.12Z"/><path class="cls-4" d="M91.27,244.08a3.62,3.62,0,0,0-2.5.27,3.35,3.35,0,0,0-1.68.88c-.09.09-.16.19-.24.28a3.61,3.61,0,0,0-.75.71,1.47,1.47,0,0,1-.1.13,1.27,1.27,0,0,0-.13.19,3,3,0,0,0-.44,1.06v.06a3,3,0,0,0-.07.61,2.57,2.57,0,0,0,.06.55,1.55,1.55,0,0,0,0,.21,3.22,3.22,0,0,0,.16.5l0,.05A2.92,2.92,0,0,0,87,251.09l1.5.75a3.42,3.42,0,0,0,2.21.38c.31,0,.63.06.94.07a3.3,3.3,0,0,0,2.83-4.93C93.6,246.08,92.93,244.49,91.27,244.08Z"/><path class="cls-4" d="M68.72,258.64a3.65,3.65,0,0,0-3,.44,8.44,8.44,0,0,0-1.52,1.15,4.17,4.17,0,0,0-1.35,2.9,3,3,0,0,0,2,2.89,3.81,3.81,0,0,0,2.85,1.18,4.18,4.18,0,0,0,3.47-2.28,5,5,0,0,0,.24-3.56A4.05,4.05,0,0,0,68.72,258.64Z"/><path class="cls-5" d="M137,170.33a3,3,0,0,0-.46-1.93c-.13-.18-.25-.33-.39-.49a3.28,3.28,0,0,0-3.25-3.15,3.24,3.24,0,0,0-3.13,2.48,4.5,4.5,0,0,0-.87,2.22,14.59,14.59,0,0,0,0,1.87c0,1.78,1.48,2.82,3.27,2.82h.75a3.33,3.33,0,0,0,1.75-.22,3.07,3.07,0,0,0,2.25-2.9v-.75S137,170.31,137,170.33Z"/><path class="cls-5" d="M70.78,243.94a10.75,10.75,0,0,0-4.07-1.19,2.17,2.17,0,0,0-.36,0l-.22,0a3.13,3.13,0,0,0-3,2l-.38.49a4.24,4.24,0,0,0-.68,2.25,3.17,3.17,0,0,0,2.73,3.14,4,4,0,0,0,2,.49h1.5a3,3,0,0,0,2.82-1.43c.11-.23.2-.44.29-.68A3.31,3.31,0,0,0,70.78,243.94ZM62.85,246a2.56,2.56,0,0,1,.22-1A5.18,5.18,0,0,0,62.85,246Z"/><path class="cls-6" d="M91.62,183.25a3.12,3.12,0,0,0,3.25-3.1h0a.45.45,0,0,0,0-.08.17.17,0,0,0,0-.07,7.64,7.64,0,0,0-.27-2.13,3.67,3.67,0,0,0-1.76-2.32l0,0-.08-.08a3.45,3.45,0,0,0-4.89-.12,3.4,3.4,0,0,0-.92,1.84,1.61,1.61,0,0,1-.09.29,3.63,3.63,0,0,0,0,2,4.07,4.07,0,0,0,2.28,2.6s0,0,0,0A3.08,3.08,0,0,0,91.62,183.25Z"/><path class="cls-6" d="M94.62,259.15h-.2c-1-1-2.27-.5-3.19.12a3.44,3.44,0,0,0-1.61,2.17,3.69,3.69,0,0,0-.52,1.94,4.9,4.9,0,0,0,2.37,3.7l.1.12a3.4,3.4,0,0,0,3.21.84c1.37-.22,2.08-1.56,2.47-2.73.2-.63.37-1.33.53-2A3.35,3.35,0,0,0,94.62,259.15Z"/><path class="cls-6" d="M130.47,227.1l.09,0a3.31,3.31,0,0,0,3.87-.55,3.18,3.18,0,0,0,.77-1.29s.05-.09.07-.15a7.51,7.51,0,0,0,.45-2.68,3.76,3.76,0,0,0-2.68-3.59,6.68,6.68,0,0,0-1.67-.12,3.31,3.31,0,0,0-2.67,1.4,3.16,3.16,0,0,0-1.35,2.62A5.26,5.26,0,0,0,130.47,227.1Zm3.29-5.13,0,.06v0Z"/><path class="cls-6" d="M136,298.56a4.49,4.49,0,0,0,.7-1.24c.25-.75.53-1.89.78-2.64a3.61,3.61,0,0,0-3.13-4.53h-2.25a3.57,3.57,0,0,0-3.2,2.88,6.94,6.94,0,0,0-.82,3.32,3.59,3.59,0,0,0,2,3.22c-.07.12-.13.26-.19.38a4.2,4.2,0,0,0-.33.49,4,4,0,0,0-.43,1.35,3.39,3.39,0,0,0,.18,2.87,2.88,2.88,0,0,0,1.34,1.14,3.18,3.18,0,0,0,2.72,1.35h1a3.62,3.62,0,0,0,3.5-3.39v-2.25A3.54,3.54,0,0,0,136,298.56Z"/><path class="cls-7" d="M140.65,315.64a3.19,3.19,0,0,0-4.63-1.95c.06-1.56.11-3.12.12-4.67,0-3.17-4.56-4.59-6.1-1.66-3.27,6.25-8,11.46-9.71,18.44a27.67,27.67,0,0,0-.72,5.06c-1.94,6.08-3.1,12.57-1.15,18.76,0,.09.07.16.1.24-.08,1.4-.14,2.79-.17,4.19a26.45,26.45,0,0,0-.06,8.47,32.85,32.85,0,0,0,1.17,8.24,37.52,37.52,0,0,1,.35,4.39h.06a3.28,3.28,0,0,0,2.13,2.26,79.53,79.53,0,0,0,6.5,10.66,3.32,3.32,0,0,0,6.1-1.74c0-.51,0-1,0-1.55a3.15,3.15,0,0,0,2.09-2.15c.23-.76.44-1.53.63-2.3a4.09,4.09,0,0,0,2.37-2.21,50.54,50.54,0,0,0,3.16-13.3C149.19,348.79,145.11,332,140.65,315.64Z"/><path class="cls-8" d="M211.87,316.79s0-.15,0-.18a20.8,20.8,0,0,0-.6-5.65,53.33,53.33,0,0,0-1.57-6.18c-.29-.92-.53-1.84-.76-2.75a37.87,37.87,0,0,0-.94-5.13,4.13,4.13,0,0,0-.14-.42c-.27-1.92-.47-3.88-.62-5.93a22.47,22.47,0,0,0-3.17-9.56,41.13,41.13,0,0,0-3.57-5.12c-1.26-1.63-3.21-2.75-4.2-4.6q-.31-.69-.63-1.41a2.54,2.54,0,0,0-2-1.57,3.19,3.19,0,0,0,.77-5.09c-.43-.43-.89-.86-1.34-1.29a2.77,2.77,0,0,0-1.6-3c-.81-.42-1.65-1.08-2.47-1.5a3.6,3.6,0,0,0-.92-.32,3.23,3.23,0,0,0-4.33,0,3.39,3.39,0,0,0-2.89,3.16v2.24a2.86,2.86,0,0,0,2.22,2.58,5,5,0,0,1-.18.79,2.77,2.77,0,0,0,.65,2.91,16.62,16.62,0,0,0,1,4.23,3.47,3.47,0,0,0-.5.62,15,15,0,0,0-1.39,2.85c-3.07,4.07-3.75,10.92-1.94,15.39a3.84,3.84,0,0,0,3.57,2.38,3,3,0,0,0,.78,1.31,25.1,25.1,0,0,0,0,3.36,11.66,11.66,0,0,0-.79,7.06c.49,3.22,3.85,6.94,3.85,9a3.28,3.28,0,0,0,2.12,3c-.87,3.77-.56,7.91,1.73,10.3q-.3.93-.51,1.83a6.7,6.7,0,0,0-2.59,4.33c-.51,4,1.45,7.61,2.36,11.37.64,2.59,3.67,2.92,5.47,1.45a21.45,21.45,0,0,0,8.17-16.44,2.9,2.9,0,0,0,2.54-3.12,73.2,73.2,0,0,0-1.51-8c.14-.32.28-.45.43-.78,1.77,1.69,5.39,1.19,5.56-1.81h0S211.87,316.84,211.87,316.79Zm-21.54-47.32a10.28,10.28,0,0,1-.21-1.37,3.08,3.08,0,0,0,1.23.61A3.83,3.83,0,0,0,190.33,269.47Z"/><path class="cls-9" d="M105,283a3.52,3.52,0,0,0,1.68-5.58c-.32-.4-.65-.78-1-1.15q-.78-.94-1.5-1.89a2.84,2.84,0,0,0-1.16-4.22,17.54,17.54,0,0,0-6.9-1.95,5.71,5.71,0,0,0-.59,0,11.41,11.41,0,0,0-1.66,0,3.31,3.31,0,0,0-1.77.65,2.78,2.78,0,0,0-1.35.22,12.6,12.6,0,0,0-7.53,8.28,3.29,3.29,0,0,0,3.15,4.14,20.1,20.1,0,0,0,3.09-.21,3.14,3.14,0,0,0,.07.7c0,.76,0,1.52.09,2.27A18.51,18.51,0,0,0,87,286.6a22.29,22.29,0,0,0-2.06,2.69,4.83,4.83,0,0,0-.62.42,3.74,3.74,0,0,0-3-1c-6,.55-5.33,10.62-4.07,14.4a3.47,3.47,0,0,0,4.13,2.28,24.63,24.63,0,0,0-1.41,4.87,3.76,3.76,0,0,0-2.73,2.35c-.18.42-.34.85-.48,1.27-.08.09-.17.17-.25.27a11.26,11.26,0,0,0,0,14.38c1.4,1.75,4.09.92,5.16-.66.16-.25.33-.49.49-.72.15.58.32,1.16.52,1.73a5,5,0,0,0-3.55,2.1c-.17.21-.32.43-.48.65a2.6,2.6,0,0,0-1.11,1.18,11.76,11.76,0,0,0-1,4.67,10.52,10.52,0,0,0,.71,5,24.84,24.84,0,0,0,5.35,9.29c1.76,1.92,4.71.75,5.47-1.45.07-.19.11-.4.17-.59a3.59,3.59,0,0,0,3.58-2.41,16.73,16.73,0,0,0,1-3.41,2.92,2.92,0,0,0,.63-2,55.19,55.19,0,0,0-1.31-9.71,7.53,7.53,0,0,0,1.64,1.29,3.3,3.3,0,0,0,4.81-3.69,41.78,41.78,0,0,0-1.36-4.84,18.81,18.81,0,0,0,2.08-2.41,9,9,0,0,0,.72-1.5,2.92,2.92,0,0,0,.48-.67,12.88,12.88,0,0,0,1-8.19,2.86,2.86,0,0,0,2.27-1.82,3.14,3.14,0,0,0,1.71-2.84c.11-3.65.37-7.19-1-10.67a3.58,3.58,0,0,0-2.74-2.24,20.3,20.3,0,0,0-.79-6.44l.43.56c2.61,3.31,7.2-1.35,4.62-4.63Z"/><path class="cls-10" d="M182.87,321.15v-1.64a3.33,3.33,0,0,0-.33-1.54c-.6-2.81-2.22-5-3.77-7.48a3,3,0,0,0-.33-2.38c-.62-1-1.22-2-1.86-2.91a3,3,0,0,0-1.57-2.77h0c-.41-.23-.8-.48-1.2-.72a13.57,13.57,0,0,0-1.13-1,3.47,3.47,0,0,0-2-.78,3,3,0,0,0-2.71.33c-.91-1.93-3.46-3-5.19-1.05a11.62,11.62,0,0,0-3.2,6.81,3.07,3.07,0,0,0,1.89,3,2.6,2.6,0,0,0,2.88,1.81c.41,0,.81-.11,1.22-.17a35.72,35.72,0,0,0-1,8.08,3,3,0,0,0-1.17.75c-3.36,3.42-1.69,6.42.64,9.87.1.15.13.1.14.3-1.71-.28-3.64.54-3.84,2.54h0v.71a18.18,18.18,0,0,1-.46,5.42,3.66,3.66,0,0,0-.2.58,2.94,2.94,0,0,0,1.34,3.45,33.11,33.11,0,0,0,.94,4.12c.86,2.88,5.75,3.46,6.31.1.19-1.18.39-2.34.59-3.51a2.7,2.7,0,0,0,1.31-.56,2.92,2.92,0,0,0,4-.39c4.7-5.24,5.7-12.37,7.58-18.93a3,3,0,0,0,1-2Zm-6.44-14.45h0l.06-.09A.31.31,0,0,0,176.43,306.7Z"/><path class="cls-10" d="M72.94,270.63c-1.65-1.89-2.85-4.07-4.5-6-1.22-1.41-3.36-1.1-4.63,0a9.87,9.87,0,0,1-1.56,1.14c-2-.55-4.6-.23-7.64,1.37A3.36,3.36,0,0,0,52.87,270v.75a3.28,3.28,0,0,0,3.39,3.14c.71,0,1.43-.08,2.1-.16a11.76,11.76,0,0,0-.92,2.64,14.27,14.27,0,0,0,0,9.5c0,.05,0,.27,0,.27h-1a3.05,3.05,0,0,0-3.16,2.07,7.56,7.56,0,0,0-.37,4.13c.34,1.56,1.6,3.25.68,3.94-2,1.5-5.13,3.26-7.65,3.49-3.13.29-4.61,4.29-1.65,6.08,8.55,5.15,16.61-.78,21.26-8.11a2.74,2.74,0,0,0,.46-.59,27.76,27.76,0,0,0,2.26-4.74A3.79,3.79,0,0,0,71,290.91c2.34-2.89,2.88-10.18.9-15A3.4,3.4,0,0,0,72.94,270.63Z"/><path class="cls-11" d="M125.33,104.84a4.7,4.7,0,0,0-.37,7c1.42,1.31,4.17.76,5.5-.36a3.93,3.93,0,0,0,1.1-4.44c-.86-2-3.45-2.13-5.31-1.82-.83.13-1.68,1.06-.33.84s3,.06,3.71,1.5a3.57,3.57,0,0,1-.23,3.21c-.73,1.3-2.11,1-3,0-1.31-1.46-1.11-4.53.47-5.7.82-.62-1.12-.44-1.51-.16Z"/><path class="cls-11" d="M128.39,103.32c-.22-9.75-2.14-18.45.13-28.16,1.86-7.94,4.34-15.8,4.55-24,0-.5-1.92-.17-1.93.52C130.91,61,127.79,70,125.79,79c-1.83,8.26.48,16.56.67,24.87,0,.52,1.94.17,1.93-.52Z"/><path class="cls-11" d="M129.72,102.65c-1.7-10.09,7.45-18.15,7.36-28.09-.1-10.73-1.89-21.37-2-32.1,0-.61-1.94-.24-1.94.51.12,11.11,2.46,22.2,2,33.31-.43,9.48-9,17.08-7.3,26.89.11.66,2.06.2,1.93-.52Z"/><path class="cls-11" d="M125.11,111C103.25,111.78,84,122,70.35,139c-16,19.85-20.51,45.61-10.7,69.29,9.31,22.48,30.18,40.91,53.6,47.33S159,253,176.32,237.23a88.39,88.39,0,0,0,24.4-36.14c4.92-14.21,3.62-28.85-2.18-42.55a78.94,78.94,0,0,0-24.93-31.63c-11.9-9-24.66-13-38.92-16.52-.66-.17-2.28.83-1.16,1.11,12.59,3.14,24.19,6.49,35.07,13.85a81,81,0,0,1,25.51,28.51c6.19,11.44,9,24.2,7.18,37.14-1.84,13.26-8.65,25.44-16.94,35.73-8.95,11.1-20.78,20.78-34.08,26-13.77,5.44-29.1,4.54-42.8-.54-24.86-9.23-45.18-33-50.27-58.94-7.93-40.42,27.33-79.71,67.18-81.1.76,0,2-1.21.73-1.16Z"/><path class="cls-11" d="M126,117c-4.51-1.21-9.39.45-13.69,1.85a83.1,83.1,0,0,0-17.11,7.73,70.16,70.16,0,0,0-25.26,25.35C58.6,172,61.76,197.17,73.83,216.1S108,249,130.58,249.23s42.7-13,54.74-31.58c13.15-20.32,12.47-44.86-.1-65.22-12.31-19.94-36-33.72-59.47-34.82-.91,0-2,1.31-.67,1.37,25.37,1.19,49.35,17,61.2,39.22,12.74,23.86,6.53,51.26-11.58,70.4a62.06,62.06,0,0,1-35.3,18.77c-13.25,2-26.77-1.7-38.3-8.13-22.48-12.52-37.36-37.15-36.16-63a56.82,56.82,0,0,1,15.4-35.83,72.87,72.87,0,0,1,18.78-14.47,86.78,86.78,0,0,1,11.93-5.26c4-1.46,9.59-3.54,13.8-2.4.81.22,2.29-1,1.13-1.28Z"/><path class="cls-11" d="M120.77,192.86c-2.19,0-5.32.86-5.22,3.56.09,2.31,3,2.17,4.55,1.66,1.8-.59,3.75-2.36,2.28-4.3-1.16-1.52-4.55-1.92-5.31.23-.1.29,1.74.11,1.9-.36.25-.7.65-.46-.36-.4a1.86,1.86,0,0,1,.88.28,3,3,0,0,1,1.3,1.31,2.17,2.17,0,0,1-1,2.77c-.81.47-1.87-.43-2.15-1.12a2.09,2.09,0,0,1,1.9-2.9,2.89,2.89,0,0,0,1.37-.36c.3-.18.26-.37-.1-.37Z"/><path class="cls-11" d="M138,188.78c-2.45,1.73.35,4.31,2.33,4.76s4.74-.72,5.2-2.82c.56-2.52-2-3.81-4.12-3.67a4,4,0,0,0-2.85,1.38,5.49,5.49,0,0,0-.65,3.24c0,.27,1.93,0,1.93-.51a9.14,9.14,0,0,1,.19-2.09,3.88,3.88,0,0,1,.32-.82c.3-.58.49-.5,1-.4a2.86,2.86,0,0,1,2.26,2.91,2.71,2.71,0,0,1-.6,1.58c-.6.8-1.46.47-2.21.07-1.37-.72-2.77-2.63-1.11-3.8.37-.26-.32-.29-.44-.27a2.73,2.73,0,0,0-1.3.44Z"/><path class="cls-11" d="M128.57,169.53c-1.67,3.58,3.7,4.86,6,3.23,1.49-1,.84-3.19-.62-3.9-1.77-.85-4.64-.41-5.14,1.77-.23,1,1.75.8,2-.12s1.84-.47,2.33-.07.44,1.29,0,1.44c-1.38.49-3.45-.4-2.67-2.08.48-1-1.47-1.11-1.86-.27Z"/><path class="cls-11" d="M105.84,146.64c-1.69.47-4,1.76-4.26,3.7-.32,2.45,3.51,2.54,5,2.09,2.07-.63,3.92-2.73,2-4.7-1.33-1.38-4.59-1.13-5.45.64-.2.4,1.65.23,1.91-.31.14-.29,0-.3.28-.28a2.49,2.49,0,0,1,1,.29,2.31,2.31,0,0,1,1.09,1.44,1.8,1.8,0,0,1-1.92,2.28c-1.17-.1-2.27-1-1.88-2.26a3.77,3.77,0,0,1,2.42-2.16c.2-.05,1-.28.87-.62s-.86-.16-1.06-.11Z"/><path class="cls-11" d="M88.85,176.77c-1.81,1.31-3.53,4.39-1,5.93a4.86,4.86,0,0,0,6.24-1.27c2.26-3.42-5-6.59-6.63-2.58-.24.6,1.68.37,1.93-.25.41-1,1.26-.55,2.05.06a2.22,2.22,0,0,1,.85,2.75c-.75,1.37-2.55.88-3.39-.11-1.19-1.41.34-3.41,1.5-4.24.34-.25.2-.59-.17-.65a1.83,1.83,0,0,0-1.37.36Z"/><path class="cls-11" d="M132.52,219.35a4.91,4.91,0,0,0-5.3,5.45c.39,2.76,4.12,3.62,6.2,2.28,1.69-1.08,1.72-3.53,1-5.2-.95-2.19-3.36-2.15-5.19-1.07-1.12.66.62.73,1.16.42,1-.6,1.79.46,2.17,1.33a4.6,4.6,0,0,1,0,3.53,2.38,2.38,0,0,1-.35.54c-.21.25-.14.17-.28.16a3.26,3.26,0,0,1-2.45-1.49,3.56,3.56,0,0,1-.24-2.82c.23-.83,1-2.25,2-2.21a2.1,2.1,0,0,0,1.36-.36c.29-.22.26-.54-.15-.56Z"/><path class="cls-11" d="M165.63,167.77c-2.08-.34-4.21.62-4.2,2.93,0,2.54,2.45,3.72,4.67,3.06a4.31,4.31,0,0,0,2.7-2.15,2.56,2.56,0,0,0-.72-3.27c-1.77-1.25-5.21-.74-6.31,1.19-.17.3,1.63.17,1.91-.33.68-1.18,2.26-.59,3,.2,1,1,.22,3.09-.87,3.71s-2.13-1.3-2.35-2a3.43,3.43,0,0,1-.1-1.56,2.49,2.49,0,0,1,.22-.65,1.21,1.21,0,0,1,.2-.3c.17-.22-.29-.14.22-.06a2.3,2.3,0,0,0,1.36-.23c.13-.07.68-.47.22-.54Z"/><path class="cls-11" d="M134.27,172.49c0,.07,0,.14-.05.21a.34.34,0,0,0,.08.29c.44.38.92.32,1.42.77a13.15,13.15,0,0,1,3.09,4.29c1.44,3,1.49,6.59,1.5,9.85,0,.87,1.94.49,1.94-.22a28.74,28.74,0,0,0-1.19-9.36,14.25,14.25,0,0,0-2.24-3.94c-.24-.32-2.46-2.81-2.61-2.1.17-.81-1.79-.51-1.94.21Z"/><path class="cls-11" d="M129.87,170c-6,.14-12.07,1.75-15.14,7.36-2.66,4.87-2.7,12.41,2.09,15.92.55.41,2.33-.36,1.79-.75-3.69-2.71-4.08-7.23-3.33-11.44,1.24-7,7.22-9.84,13.84-10,.72,0,2.06-1.13.75-1.1Z"/><path class="cls-11" d="M121.06,197c2.08,2,5.65,1.89,8.33,1.67,3.85-.31,7.38-2.77,10-5.47.83-.86-1-1-1.58-.47a14.69,14.69,0,0,1-8.17,4.67c-1.9.34-5.31.17-6.76-1.21-.58-.55-2.4.21-1.78.81Z"/><path class="cls-11" d="M144.75,192.21c6.91,3.44,17.53-.36,24.06-3.17,8.52-3.68,20.29-10.07,24.13-19,.38-.91-1.55-.71-1.81-.08-3.23,7.52-11.79,12.13-18.63,16-6.42,3.63-18.85,9-26.23,5.31-.6-.3-2.37.56-1.52,1Z"/><path class="cls-11" d="M141.84,186.32c9.07,0,17.57-5.72,22.89-12.79.72-1-1.11-1.11-1.59-.47-4.76,6.33-12.4,11.95-20.6,12-.85,0-2,1.29-.7,1.29Z"/><path class="cls-11" d="M169.68,169.13c4.8-7.31,9.75-14.56,10.94-23.42.12-.9-1.84-.59-2,.19-1.17,8.74-6.09,15.88-10.81,23.09-.55.83,1.42.76,1.82.14Z"/><path class="cls-11" d="M140.27,179.08c7.48-1.25,13.74-10.19,16.49-16.64,4.43-10.37,4.22-23.83,2.1-34.72-.13-.66-1.25-.38-1.59-.14a1.17,1.17,0,0,0-.65,1.09c-.09.94,1.87.63,1.95-.18l0-.12-1.59-.13a73.42,73.42,0,0,1-.11,27.64,33.45,33.45,0,0,1-4.89,11.85c-2.35,3.67-6.85,9.26-11.46,10-1,.17-1.51,1.53-.2,1.31Z"/><path class="cls-11" d="M138.23,173.24c2.57-2.46,2.8-7.67,3.41-11a50.59,50.59,0,0,0,.11-16.29c-1.47-10-6.05-21.17-13.76-28-.41-.36-2.16.37-1.82.68,7.07,6.26,10.6,15.38,12.93,24.31,1.23,4.74,1.28,9.43,1.18,14.28a45.24,45.24,0,0,1-1.29,9c-.53,2.36-.67,5.37-2.52,7.14-.45.44,1.41.23,1.76-.1Z"/><path class="cls-11" d="M133.49,169.41c-.49-2.34.1-4.93-.15-7.33a31.1,31.1,0,0,0-2.58-8.35,50.23,50.23,0,0,0-8.39-13.14c-6.33-7.45-14.23-13.8-24-15.73-1-.19-2,1.15-.67,1.4,9.84,2,17.5,8.88,23.84,16.34a49.16,49.16,0,0,1,7.85,13.13,37,37,0,0,1,2,6.87c.5,2.52-.37,4.85.14,7.32.19.9,2.13.4,1.94-.51Z"/><path class="cls-11" d="M127.67,170.15c-2.69-4.34-6.5-8.28-9.83-12.16A28.9,28.9,0,0,0,108,150.3c-.78-.36-2.24.76-1.12,1.27,4.41,2,7.68,5.42,10.74,9.11,2.78,3.35,6,6.61,8.26,10.31.45.72,2.3,0,1.78-.84Z"/><path class="cls-11" d="M102.76,148c-8.22-3.89-17.05-5.18-26.08-5.26-.86,0-2,1.3-.7,1.31,8.72.08,17.33,1.25,25.28,5,.69.33,2.42-.63,1.5-1.06Z"/><path class="cls-11" d="M120.73,172.6c-3-3.78-9.86-5.22-14.21-6.62a48.92,48.92,0,0,0-18.7-2.54c-5.75.38-11.06,2.61-16.6,3.91-3.32.79-7.28,1.84-9.08,5-.47.82,1.48.64,1.8.07,1.84-3.21,6.32-3.77,9.64-4.54,4.76-1.09,9.07-2.78,14-3.32,6.64-.73,13.21.86,19.41,3.09,3.56,1.28,9.6,2.76,12,5.72.43.55,2.29-.14,1.79-.77Z"/><path class="cls-11" d="M115.29,177.32c-7.38-1.38-14.63.08-21.86,1.71-.61.13-1.31,1.12-.26,1.12h.9c.69,0,2.07-1,.77-1h-.91c-.08,0-.17.48-.26.81,6.77-1.52,13.52-2.83,20.43-1.55.58.11,2.28-.89,1.19-1.09Z"/><path class="cls-11" d="M87.37,181.24c-3.85.9-7.18,3.67-10.43,5.8-4.71,3.09-8.23,7.37-12.57,10.84-.87.7,1.06.77,1.56.36,3.07-2.45,5.62-5.44,8.69-7.9,3.46-2.77,8.58-7,13-8.08,1.18-.27.89-1.3-.28-1Z"/><path class="cls-11" d="M113.81,185.29c-7.64.1-14.08,5.14-19.73,9.78A37.21,37.21,0,0,0,84.3,206.9c-1.15,2.25-2,4.69-2.88,7-1.15,2.93-3,5.33-3.62,8.46-.09.43,1.8.13,1.9-.34.74-3.58,2.88-6.57,4.21-9.95a49,49,0,0,1,4.51-9.37c4.59-6.89,15.53-16.56,24.14-16.67.4,0,2.19-.8,1.25-.78Z"/><path class="cls-11" d="M114.25,191.67a46.37,46.37,0,0,0-15,20.94,49,49,0,0,0-2.7,13.5c-.28,4-1,8.75.85,12.39.26.51,2.11-.17,1.93-.52-1.57-3-1.12-6.48-.93-9.8a63.16,63.16,0,0,1,1.83-13,44.51,44.51,0,0,1,15.49-23.43c.8-.62-1.13-.38-1.49-.1Z"/><path class="cls-11" d="M118.68,199c0-.16,0-.33-.05-.49,0-.41-1.8.07-1.92.43a49.12,49.12,0,0,0-.83,29c1.76,6.25,5.5,17.82,12.52,20.08.44.14,2.16-.57,1.59-.75-7.2-2.31-10.86-15.15-12.64-21.52-2.49-8.85-1.58-18.45,1.27-27.1l-1.92.43c0,.16,0,.32,0,.49,0,.37,2,0,1.93-.52Z"/><path class="cls-11" d="M125,197.79c-1.63,2.15-.48,5.83,0,8.21.93,5,1.57,10.25,4.19,14.67.32.56,2.15-.14,1.93-.51-2.18-3.69-2.87-7.84-3.66-12-.52-2.71-2.46-8.06-.65-10.44.45-.6-1.46-.35-1.77.06Z"/><path class="cls-11" d="M132.46,226.11c3.56,7.85,12.75,14.37,20.74,17.11.56.2,2.31-.64,1.54-.9-7.78-2.68-16.86-9-20.35-16.73-.29-.64-2.18,0-1.93.52Z"/><path class="cls-11" d="M131,198c8.24,17.55,27.77,28.18,46.85,28.82.9,0,2-1.32.67-1.37-18.5-.62-37.59-10.92-45.59-28-.39-.83-2.3-.26-1.93.52Z"/><path class="cls-11" d="M136.79,196a26.9,26.9,0,0,1,4,2.69,33.25,33.25,0,0,0,8,3.43c5.91,2,11.47,3.46,17.74,3.64,5.41.15,10.56-1.07,15.79-2.26,4-.91,7.54-1.95,10.58-4.85.87-.82-1-1.07-1.6-.51-3.7,3.52-9.09,4.08-13.86,5.19a46.14,46.14,0,0,1-17.29.46,60.09,60.09,0,0,1-16.34-5.34c-2-1-3.75-2.86-5.82-3.7-.77-.31-2.26.79-1.13,1.25Z"/><path class="cls-11" d="M64.88,169.2c.08.11.17.21.26.32a1.07,1.07,0,0,0,1.32.18,32.79,32.79,0,0,0,11.37-11.27c3.82-5.91,3.68-10.08.29-16.09-.46-.81-2.29-.05-1.76.88,1.59,2.83,2.85,5,2.61,8.38-.17,2.5-2.32,5.49-3.61,7.48a38.31,38.31,0,0,1-3.49,4.52A24.57,24.57,0,0,1,69,166.42c-1.31,1.14-2.92,1.21-2.37,1.9-.58-.73-2.41.06-1.76.88Z"/><path class="cls-11" d="M77.15,143.27c6.6.11,13.54-2.1,19.33-5.19,2.12-1.12,4.8-3,5.76-5.27,1.38-3.35-1-5.46-2.29-8.41-.25-.61-2.15,0-1.93.51a36.86,36.86,0,0,0,2.19,4c1.78,3.06-.68,5.66-2.94,7.47-4.91,3.94-13.26,6-19.34,5.92-.65,0-2.08,1-.78,1Z"/><path class="cls-11" d="M100,125.61a95,95,0,0,0,12.55,1.79c3.29.21,7.2.82,10.46.12,5-1.08,6.07-3.91,5.94-8.86,0-.27-1.94,0-1.93.51a18.35,18.35,0,0,1-.31,4.9c-.78,3.41-5.8,2.93-8.53,2.75a124.69,124.69,0,0,1-16.58-1.91c-.43-.09-2.08.61-1.6.7Z"/><path class="cls-11" d="M129.52,119.32c3.56,4.43,10.2,7.36,15.22,9.77,4.48,2.16,8.5,1.35,12.14-1.78.88-.77-1-1-1.59-.48-5.52,4.77-10.57.32-15.45-2.33-3.07-1.66-6.31-3.22-8.55-6-.5-.62-2.35.1-1.77.81Z"/><path class="cls-11" d="M158.44,129.75c1.12,2.85,2.92,5.67,4.27,8.44,1.23,2.52,2.85,5.9,5.28,7.48A9.13,9.13,0,0,0,179.34,144c.57-.69-1.39-.59-1.81-.08-4.22,5.1-9.32-.27-11.63-3.95a69.68,69.68,0,0,1-5.53-10.77c-.28-.72-2.19-.15-1.93.52Z"/><path class="cls-11" d="M179.67,147.35c-1.35,1.79-.23,5.13.14,7.08a73.58,73.58,0,0,1,1.09,11.39c.24,5.72,7.44,9.13,11.41,4.42.47-.55-1.43-.34-1.77.06-4.1,4.86-7.4-2.27-7.7-5-.24-2.09,0-4.23-.14-6.34-.19-2.89-3.17-9.13-1.26-11.68.44-.6-1.46-.35-1.77.07Z"/><path class="cls-11" d="M189.91,172c-.87,2.49-.71,4.93-1.67,7.55-1,2.86-2.18,5.74-3.06,8.64-1.91,6.28,0,8.38,5.19,11.31.68.37,2.41-.56,1.51-1.06a21.2,21.2,0,0,1-4.63-2.81c-2.58-2.46-.08-7.83.92-10.34.92-2.3,1.58-4.68,2.43-7,.74-2.05.45-4.13,1.14-6.12.35-1-1.58-.9-1.83-.16Z"/><path class="cls-11" d="M190.08,201.67c-4.3,2.56-24.8,19.9-12.8,24.87.88.36,2.25-.89,1.1-1.37-9.86-4.09,9-20.1,12.58-22.26,1.12-.67.1-1.82-.88-1.24Z"/><path class="cls-11" d="M177.08,225.91c-6.17,2-12.71,3.69-18.47,6.7-3.88,2-5,7.31-4.7,11.33.06.72,2,.29,1.93-.52-.47-5.75,2.14-9.69,7.58-11.59,4.66-1.62,9.25-3.32,14-4.83,1.15-.36.87-1.46-.29-1.09Z"/><path class="cls-11" d="M152.16,244c.65-.78-1.8-.73-2.6-.9-1.62-.34-3.22-.75-4.83-1.14a31.27,31.27,0,0,0-9-1c-2.23.1-9.68,4.61-7.76,7.41.39.56,2.26-.09,1.79-.77-.57-.83,1.76-3.08,2-3.33,2.27-2.48,6.49-2.31,9.64-1.7,2,.39,4,1,6,1.43,1.63.37,5.17,1.73,6.55.09.57-.67-1.38-.56-1.8-.06Z"/><path class="cls-11" d="M128.4,247.18c-6.63.07-10-8.84-16.69-9.93-4-.65-10.27-.19-12.77,3.56-.19.28,1.58.18,1.91-.31,2.18-3.27,8.59-2.95,11.85-1.86,2.41.8,4.27,2.86,6,4.57,2.58,2.51,5.1,4.86,8.85,4.82.56,0,2.11-.87.82-.85Z"/><path class="cls-11" d="M79.59,222.81a19.86,19.86,0,0,0,4.6-.59c4.61-1,7,3.59,8.47,6.82,1.9,4.11,2.91,8.58,6,12,.48.53,2.32-.19,1.79-.77-3.76-4.11-4.69-9.91-7.4-14.67-.93-1.64-2.71-4-4.7-4.51-2.8-.64-5.25.59-8.06.56-.77,0-2,1.14-.74,1.16Z"/><path class="cls-11" d="M79.71,221.06c-.55-2.65-.2-5.35-.46-8A57.52,57.52,0,0,0,77,202.64c-.4-1.34-1.13-3.1-2.42-3.82s-7.21-1.62-6.75-3.77c.37-1.74,2.11-3.82,2.84-5.55,1.17-2.77,1.19-6.19,1.5-9.15a8.41,8.41,0,0,0-1-5.62C70,173,67.35,171.93,66.42,170c-.31-.65-2.19,0-1.93.52a8.25,8.25,0,0,0,2.62,2.57c3,2.41,3.38,5.18,3,8.91-.38,3.51-.76,6.87-2.41,10.05-.55,1.05-2.29,3-2,4.35s.89,1.73,2.21,2.2c3,1.08,5.13-.07,6.79,3.5,2.9,6.24,1.76,13,3.09,19.47.14.64,2.07.16,1.93-.52Z"/><path class="cls-11" d="M71.71,192.09c1.08,0,1.5-1.35.18-1.35-1.08,0-1.5,1.35-.18,1.35Z"/><path class="cls-11" d="M71.66,191.91c6-.87,6-10.42,5.49-15a9.3,9.3,0,0,0-7.1-7.78c1.89.36,2.85.11,4.82,1.43a12.87,12.87,0,0,1,2.68,2.83c2.46,3.08,2.75,8.16,2.35,11.84-.08.77,1.62.26,1.86-.13,3.51-5.75,6.73-16.35-1.33-19.78-.54-.23-2.32.57-1.55.9,7.62,3.24,4.37,13.51,1.09,18.88l1.86-.13c.6-5.58-.68-13.07-6.28-15.89-2.13-1.08-7.25-3-8.34.44-.07.23.2.34.37.37,5.59,1,7.94,5.4,7.74,10.74-.08,2.27-.26,9.86-3.38,10.32-.9.13-1.62,1.19-.28,1Z"/><path class="cls-11" d="M95.3,163.28c.78,1.73,4.91-1.19,5.64-1.69,3.75-2.56,5.34-6.31,7.46-10.22l-1.92.43c-.07,4.79-1.34,9.81-5.34,12.81-.41.3,1.38.12,1.74-.16,4.12-3.08,5.45-8.24,5.53-13.17,0-.4-1.75.13-1.92.43-1.43,2.65-2.62,6.09-4.88,8.18-.35.33-4.23,3.2-4.37,2.87s-2.08.19-1.94.52Z"/><path class="cls-11" d="M111,152.31c5,.12,13.45-3.45,13.14-9.49,0-.5-1.92-.1-1.93.52C122.13,147.8,121,155,115,154.71l-1,.92c4.2-.07,13.76-1.43,13.14-7.37-.06-.56-1.79,0-1.92.4a18.17,18.17,0,0,1-2.88,6.25c-1.41,1.78-3.81,2.71-5.8,3.67-1.17.56.61.68,1.15.42a26.42,26.42,0,0,0,5.69-3.41c2.13-1.77,3-4.68,3.76-7.22l-1.93.41c.51,4.88-6.86,5.86-10.42,5.92-.42,0-2,.88-1,.92,7.57.32,10.24-6.11,10.33-12.8l-1.93.52c.25,4.94-6.21,8.13-10.42,8-.62,0-2.09.91-.79.94Z"/><path class="cls-11" d="M119.83,162.45c3.8,3.18,10.25-4,11.83-6.84l-1.92.42c-.35,4.64-2.43,7.68-6.92,9.17-.31.1-1,.61-.29.65a11.66,11.66,0,0,0,10-4.1c.42-.5-1.45-.22-1.75.12a77.28,77.28,0,0,1-6.65,6.65c-.44.39,1.4.19,1.75-.12a77.28,77.28,0,0,0,6.65-6.65l-1.75.12a8,8,0,0,1-7,3.16c-.1.21-.19.43-.29.65,5-1.67,7.78-4.82,8.18-10.17,0-.43-1.74.1-1.92.42-1.06,1.95-5.76,7.81-8.1,5.85-.42-.35-2.15.4-1.82.67Z"/><path class="cls-11" d="M103.22,126.66c7,1.68,13.06,3.45,20.36,2.16,3.72-.66,8-2.44,7.49-6.84-.06-.59-2-.15-1.93.52a9.48,9.48,0,0,1-3,7.77c-4.45,4.44-10.33,1.65-14.89,0-.47-.17-2.35.47-1.55.89,4.49,2.39,10.12,5.62,15.44,4.88,4.74-.66,7.68-5.22,8.05-9.69l-1.93.4c-.14,6.39-2.92,13.69-11.72,11.63l-1,1c7.14-.31,16.55-.48,17.66-9.4l-1.93.39c.76,3.81,0,6.64-2.89,9.34-2.33,2.19-5.52,2-8.34,2.65-1.16.28-.92,1.16.23.88,3.69-.89,6.51-.94,9.64-3.28s4-6.32,3.29-10.11c-.11-.59-1.86-.13-1.92.4-1,7.87-8.65,7.84-15,8.12-.4,0-2.08.74-1,1,9,2.1,14.66-4.66,14.85-13.14,0-.52-1.88-.18-1.92.39a11.45,11.45,0,0,1-1.54,5.07c-2.22,4.05-6.27,3.58-9.85,2.5a50,50,0,0,1-8.63-3.92l-1.55.89c4.41,1.61,9.55,3.71,14.21,1.62s7.4-5.59,7.17-10.78l-1.93.52c1.09,10.33-20.58,4.16-24.72,3.17-.56-.13-2.27.73-1.2,1Z"/><path class="cls-11" d="M125.29,145.45c2.84.5,5.55,1.36,8.33.19,2.44-1,3.73-3.78,5.72-5.39l-1.68-.23a41.86,41.86,0,0,1-1.95,4,5.26,5.26,0,0,1-7.43,1.41l-1.66.88c4.56,2,9.26,4.45,14.15,2.07,1.2-.59.1-1.32-.79-.89-4,1.95-8.17-.59-11.83-2.16-.42-.18-2.32.35-1.66.88,2,1.62,4.91,1.67,7.28.82,3.23-1.18,4.33-4,5.7-6.91.45-1-1.34-.51-1.69-.23a24.54,24.54,0,0,0-3.05,3.23c-2.35,2.74-5.21,1.77-8.27,1.24-.67-.12-2.29.92-1.17,1.11Z"/><path class="cls-11" d="M133.06,124.31a9.27,9.27,0,0,0,2.74,3.3,25.49,25.49,0,0,1,3.8,4.59,7.76,7.76,0,0,0,6.39,3.36c4.91-.07,10.87-2.82,11.37-8.28.09-1-1.75-.51-2,.19a26,26,0,0,1-2.15,5.17,14.08,14.08,0,0,1-2,2.65c-3.61,4.12-7,.36-9-1.85-3.18-3.49-5-7.86-8.62-11-.59-.52-2.41.26-1.78.81,5.08,4.42,7.84,14.33,15.36,15.13,5.55.6,8.86-7,10.07-11.1l-2,.19c-.55,6-8.83,8.81-13.2,4.89a22.56,22.56,0,0,1-3.06-4.18c-1.18-1.72-3.26-2.32-4.15-4.39-.34-.78-2.25-.21-1.94.52Z"/><path class="cls-11" d="M141.9,151.05c3.55,4.48,9.75,9.15,15.51,5.86,1.15-.66.13-1.52-.84-1.07-2.15,1-4.18,2.9-6.87,2s-4.7-3.21-6.76-5c-.44-.39-2,.07-1.72.79,2.11,5.23,7,10.31,12.95,10.08.07-.45.13-.89.2-1.34-2.35.17-5.35,1.08-7.52,0a14.6,14.6,0,0,1-4.68-4.54c-.4-.54-1.84-.21-1.87.5-.15,5.17,3,12.85,9,12.67,1.07,0,1.51-1.38.19-1.34-5,.14-7.39-7.56-7.27-11.5l-1.87.5a16.87,16.87,0,0,0,5.88,5.26c2.33,1.2,5.53,0,7.9-.17,1.06-.08,1.52-1.39.2-1.34-5.16.2-9.45-4.88-11.22-9.26l-1.71.8c2.37,2.11,5.1,5.23,8.48,5.63,3.07.37,4.82-1.37,7.49-2.61l-.84-1.07c-4.8,2.74-10.11-2.1-12.89-5.62-.52-.65-2.37.09-1.78.83Z"/><path class="cls-11" d="M158.74,146.23c-1,2.67,1.92,7.43,3.37,9.61,2.52,3.81,5.56,6.46,10.21,6.8.08-.33.17-.66.25-1-6.38,2.09-9.84-5-11.6-9.77-.21-.59-1.89-.19-1.92.38-.41,5.86,2.53,13.86,8.65,15.74.38-.33.76-.66,1.15-1-6.09.07-8.23-5.67-10.59-10-.29-.52-1.91-.23-1.93.39-.15,4.45,1.12,10.18,5.63,12.11.55.23,2.32-.58,1.54-.91-4.18-1.79-5.38-7.33-5.25-11.46l-1.92.39c1.22,2.24,2,6.37,4.42,7.75,2.17,1.24,4.75,2.82,7.34,2.79.27,0,2-.72,1.15-1-5.8-1.78-8.66-9.48-8.27-15.08l-1.93.38c2.26,6.09,6.49,12.56,13.78,10.17.59-.19,1.33-.9.26-1-5.08-.37-8.11-4.36-10.29-8.5-.94-1.78-2.86-5.06-2.12-7.11.22-.62-1.7-.37-1.93.25Z"/><path class="cls-11" d="M152.08,167.93c0,4.31,2.63,6.85,5.53,9.71.24-.36.48-.72.71-1.08-3.71,1.31-6-2.47-7.39-5.2-.39-.73-2-.12-1.85.68.57,3.57,2.74,6.11,5.21,8.62.33-.37.65-.75,1-1.12a13.79,13.79,0,0,1-9.91-3.48,1.2,1.2,0,0,0-1.73.63,9.48,9.48,0,0,0,2.21,7.3l1.45-1.08c-2.46-.9-4.26-2.13-5-4.74-.25-.83-1.87-.44-1.95.33-.25,2.56.36,6.7,3.36,7.27,1,.18,2-1.15.67-1.4-2-.37-2.22-4.55-2.07-6l-1.95.34c.89,3,3,4.48,5.85,5.52.53.2,2-.32,1.44-1.07-1.45-1.94-2.45-4.13-2-6.6l-1.72.63a15.57,15.57,0,0,0,11.23,3.77c.39,0,1.49-.59,1-1.13-2.37-2.41-4.49-4.84-5.05-8.29l-1.85.69c1.94,3.7,5,7.27,9.52,5.67.32-.12,1.16-.63.7-1.09-2.64-2.6-5.37-5-5.34-9,0-1-1.95-.72-2,.15Z"/><path class="cls-11" d="M162.46,190.62c-5.68,2.58-10.86,7-5.77,13.23.28.34,1.82,0,1.86-.5a19.67,19.67,0,0,1,.94-5.65c.33-.87,3.23-5.9,4.14-5.84.08-.24.17-.49.26-.73-4.55,2-7.69,9.77-2.67,13,.4.26,1.72,0,1.86-.5,1.07-4.08,1-12.75,6.43-13.62l-.59-.51c-4.12,2.85-6.13,12.15-1.36,15.23.44.28,1.84,0,1.87-.6.32-5.4-.07-13.93,5.23-17.19.84-.51-.81-.48-1.11-.36-2.86,1.13-3,4.72-3.13,7.39-.26,4.43.71,8.62,5.12,10.53.47.2,2.24-.53,1.57-.83-3.4-1.46-4.63-4.45-4.77-7.91-.08-1.8-.37-7.7,1.92-8.61l-1.11-.36c-5.68,3.49-5.31,12-5.65,17.85l1.87-.6c-4.36-2.83-2.8-11.7,1.06-14.38.62-.43-.26-.56-.59-.5-7.29,1.17-7.17,9-8.67,14.77l1.86-.5c-4-2.59-2.57-9.9,1.56-11.75.29-.12,1-.67.26-.73a4.49,4.49,0,0,0-4.44,2.3,19.86,19.86,0,0,0-3.78,10.38l1.87-.5a7.1,7.1,0,0,1-1.8-6.52c.7-3.07,4.36-4.48,6.9-5.63,1.17-.53-.62-.62-1.14-.38Z"/><path class="cls-11" d="M179.3,149.6c-4.58,6.74-4.44,27.13,7,26.8.38,0,2.19-.8,1.25-.78-9.26.22-13.55-9.71-11.45-17.91.1-.39-1.78-.12-1.91.35-1.34,5-2.33,10.23-1.22,15.38.9,4.23,4.63,6.32,8.21,8l1.71-.69c-4-.89-7.62-1.63-9.5-5.63-1.39-3-.94-6.8-.91-10,0-.36-1.77.08-1.91.43-2.84,7.08-5.45,16.32,2.15,21.3l1.71-.7c-6.29-1.71-9.37-7.89-7.4-14,.13-.39-1.69-.07-1.9.35-2.26,4.54-2.12,15.15,4.69,15.9.45,0,2.08-.68,1.59-.74-6.62-.73-6.38-11.48-4.38-15.51l-1.9.35A11,11,0,0,0,172.81,187c.31.09,2.05-.47,1.7-.69-7.52-4.93-4.86-14-2.07-21l-1.92.44c0,4.26-.39,8.7,2.29,12.29,1.79,2.41,5.79,2.92,8.46,3.52.35.08,2-.55,1.7-.69-3.31-1.58-6.11-3.2-7.7-6.67-2.23-4.86-.5-11.62.8-16.44l-1.91.35c-1.22,4.78-.24,11,3,14.88a9.34,9.34,0,0,0,5.26,3.25,15.13,15.13,0,0,0,2.51.24c4.37.22-.93-1.58-1.53-2-6.6-4.43-6.17-19.38-2.23-25.2.13-.18-1.59-.12-1.9.35Z"/><path class="cls-11" d="M139.74,209.18c1.13-1.14,1.65-2.9,2.39-4.3a18.91,18.91,0,0,0,7.24-3.83,2.89,2.89,0,0,0-.5.08,9.19,9.19,0,0,0-2.46.79,10.9,10.9,0,0,0-5.79,10c0,.52,1.67-.13,1.84-.31a17.58,17.58,0,0,0,2.12-2.6c2.31-3.33,4-5.17,8.77-5.08.43,0,2.23-.81,1.24-.84-6.27-.2-11.84,4.79-11.56,11.25,0,.43,1.38,0,1.53-.1,3-1.63,3.91-5.12,7.05-6.91a13.43,13.43,0,0,1,4.72-1.53c.23,0,2.88-.88,1.73-.24a19.46,19.46,0,0,0-2.37,1.67c-2.12,1.66-8.7,6.95-6.26,10.21.3.39,2.15-.24,1.82-.68-2.52-3.36,6.19-10.15,8.72-11.28.59-.26.41-.58-.15-.58a19.86,19.86,0,0,0-9.34,2.11,14.67,14.67,0,0,0-3,2.06c-1.61,1.38-2.18,3.82-4.09,4.85l1.53-.1c-.2-4.52,3.06-10.06,8.39-9.89l1.24-.84c-2.43-.05-5-.26-7.23.87-3.09,1.53-4.34,5.44-6.66,7.76l1.85-.31c0-4.14,2.17-9.23,7.08-9.6.52,0,2.13-.85.82-.84a15.92,15.92,0,0,0-7.69,1.67c-2.75,1.49-2.78,4.62-4.78,6.66-.44.46,1.42.24,1.76-.11Z"/><path class="cls-11" d="M175.1,224.84c-2.32-2-5.3-3.43-5.35-7-.05-3.44,3.89-6.53,6.25-8.41,4.15-3.31,9.11-5.58,14-7.51,1.07-.42.36-1.34-.56-1.08-6.55,1.84-13.84,4.87-17.93,10.61-3.76,5.28-3.74,10.66,2.22,14.06.49.27,2.31-.31,1.65-.93-10.69-10,7.9-16.74,14.53-21.57,1.07-.78-.54-1.26-1.24-.75-7,5.08-26.47,12.48-15.07,23.13l1.64-.92c-6-3.45-5.11-9-1.16-13.75s10-7.13,15.67-8.71c-.19-.36-.38-.72-.56-1.08-6.54,2.56-12.78,5.84-17.87,10.73a10.46,10.46,0,0,0-3.52,7.65c0,2.86,3.68,4.81,5.5,6.38.59.52,2.41-.26,1.78-.81Z"/><path class="cls-11" d="M128.29,206.18c-1-1.25,4.37-3.08,5.26-2.88.28.06,2.14-.26,1.69-.75-2.69-2.91-8.17-3.78-10,.5l1.91-.31c.72-2,1.85-3.5,4.17-3.34.46,0,2.23-.79,1.23-.86-3.4-.24-6.14,1.25-7.31,4.51-.17.47,1.7.18,1.91-.31.73-1.67,1.79-2.07,3.47-1.48a7.27,7.27,0,0,1,2.83,2l1.69-.75c-1.93-.42-4,.41-5.77,1.21-.82.38-3.88,1.87-2.87,3.16.31.41,2.16-.24,1.81-.68Z"/><path class="cls-11" d="M118.06,202.75c1.82-1.3,4.22-3.09,6.63-.63l1-1.16c-3-.07-9.36-.92-9.52,3.51,0,.75.94.73,1.42.53,2.29-1,4.1-1.8,6.23.74l1-1.16c-4.25,0-10.74-.17-9.8,5.82.13.82,1.44.43,1.78,0,2.78-3.14,6-1.34,7,2.07l1.85-.69c-3.34-4-9.86-3-10.93,2.31-.1.49.54.68.9.66a49.81,49.81,0,0,0,5.29-.86c3.6-.6,5.5,1.84,7.2,4.49l1.44-1.1c-3.31-1.72-7.13-2.59-10.79-1.47-1.55.48-5,2-3.33,4.08.57.71,2.4-.07,1.76-.86-1.18-1.47,4.09-2.21,4.47-2.23a12.92,12.92,0,0,1,6.78,1.82c.6.31,1.92-.35,1.44-1.1-1.37-2.14-2.71-3.91-5.11-4.88-2.75-1.1-6.23.48-9,.65l.9.66c.78-3.87,5-4,7.2-1.31.5.59,2.1.21,1.85-.69-1.47-5.41-7-6.16-10.54-2.16l1.78,0c-.71-4.57,4.68-3.87,7.72-3.85.46,0,1.43-.6,1-1.16-2.55-3-5.5-2.51-8.87-1.07l1.41.53c.11-2.94,5.62-2,7.4-1.92.43,0,1.48-.64,1-1.17-3-3.11-6.52-1.69-9.68.58-1.07.76.5,1.49,1.29.92Z"/><path class="cls-11" d="M117.18,223.93c1.19-3.55,8.25-2.79,10.65-1.51l.62-1c-4.93,1.15-10.54.23-12.31,6.08-.16.55.86.51,1.12.43,3.33-1,6.83-3.08,10.45-2.39l.7-1.15c-5,.16-11.21,2.06-10.45,8.1.09.69,1.49.22,1.75-.06a17.69,17.69,0,0,1,9.81-4.91c4.3-.77,2.66.46,1.08.57a17.33,17.33,0,0,0-3.67.31,10.06,10.06,0,0,0-7.46,7.86c-.13.56.82.52,1.11.43,4.44-1.3,11.1-7.08,15.58-3.47l1.25-1c-6.43.13-15.36,2.18-14.92,10.21,0,.64,1.33.23,1.58.08,3.43-2.08,6.36-5.24,10.48-6,5-.93,8.78,3.36,12.92,5.25.57.27,2.4-.48,1.52-1-5-2.89-10-5.33-15.86-3.7-4,1.13-6,4.66-6.72,8.54l1.94-.22.12-.3c.77-.88-1.1-.93-1.57-.39a1.4,1.4,0,0,0-.49.91c-.1.85,1.82.49,1.94-.22.81-4.74,3.34-7.77,8.81-7.75,3.65,0,7.24,2.36,10.31,4.12l1.52-1c-4.21-1.92-7.75-5.82-12.73-5.53-5.57.33-8.84,3.83-13.42,6.6l1.58.08c-.37-6.77,6.86-8.4,12.27-8.51.24,0,1.89-.48,1.25-1-5.5-4.45-12.24,1.59-17.65,3.18l1.12.43c1.09-4.62,4.26-6.58,9-6.78a8.45,8.45,0,0,0,4.58-1.24c.29-.19.56-.6.15-.83-5.08-2.94-13.37.93-17,4.83l1.75-.06c-.63-5,4.32-6.27,8.28-6.4.51,0,1.72-1,.7-1.16-4.43-.85-7.75,1.18-11.9,2.45l1.11.43c1.48-4.9,6.9-3.92,10.66-4.8.34-.08,1.27-.68.61-1-3.68-2-12.47-2.18-14.11,2.72-.25.74,1.7.48,1.94-.22Z"/><path class="cls-11" d="M99.76,238.76a5.56,5.56,0,0,0,2.41-1c3.85-2.45,6.79-4.12,11.46-2.26s7.74,6.75,10.74,10.39c.41.5,2.26-.17,1.8-.74-4.07-5-6.49-13.38-13.54-15.05a15.62,15.62,0,0,0-8.39,0c-2.52.78-3.89,3.72-5.72,5.36l1.74-.12c-.53-6.52,7.48-9.12,12-4.93,1.82,1.68,3.15,3.71,5.12,5.26.37.29,2.13,0,1.87-.63-3.59-9.18-14.3-13.62-22-6.84-.23.2-.28.44,0,.61a1.75,1.75,0,0,0,1.5,0c1.15-.31.91-1.24-.25-.92a17.1,17.1,0,0,1,8-2.05,14.16,14.16,0,0,1,5.33,2.8,16.14,16.14,0,0,1,5.48,6.92l1.86-.64c-4-3.11-6.61-8.85-12.57-8-4.88.71-8.75,3.62-8.33,8.93.06.63,1.52.08,1.74-.12,2.36-2.11,3.63-5.15,7.62-5.15a12.33,12.33,0,0,1,8.8,3.81c3.33,3.21,5,8,7.89,11.54l1.8-.74c-3.34-4.07-6.94-9.56-12.32-11.08a13.49,13.49,0,0,0-7.24-.24c-2.45.66-4.3,3.48-6.58,3.92-.89.18-1.6,1.29-.27,1Z"/><path class="cls-11" d="M99,218.41c1.47.23,3.2-.53,4.61-.87,4.42-1.07,8.84,2.6,11.15,6,.45.67,2.06.17,1.85-.68-2-8.07-10.3-12.1-17.71-8.18l1.24.88c4.12-5.05,10.4-4.22,13.41,1.34.42.77,1.92.1,1.85-.69-.27-3.08-2.13-6.38-5.16-7.57-3.67-1.43-6.09-.92-9.53.9l1.36.7c.89-2.38,3.45-3.23,5.76-3.58,2.9-.44,4.55,2.8,5.72,4.8.43.74,1.95.12,1.85-.69-.75-5.93-6.16-11-12-7.57l1.08,1c4.33-3.08,8.88-1.28,10.17,3.74.23.91,2.16.39,1.93-.52-.73-2.82-3-6.2-6.14-6.78-2.94-.55-4.94,1-7.25,2.66-1,.68.31,1.48,1.07,1,5.12-3,8.65,2.71,9.18,6.93l1.85-.69c-1.72-2.94-3.63-5.59-7.33-5.38-3,.17-6.66,1.83-7.77,4.79-.31.82.83,1,1.35.7,5.63-3,11.36-.12,11.9,6l1.85-.69c-3.73-6.89-12.06-6.88-16.8-1.07-.67.82.64,1.19,1.24.87,6.58-3.47,13.25.77,14.92,7.53l1.85-.69a17.45,17.45,0,0,0-8.26-6.43c-3.16-1.24-5.61,1.18-8.61.71-1-.15-2,1.23-.66,1.43Z"/><path class="cls-11" d="M88.4,201.52c5.22.43,12.26,2,11.74,8.58l1.93-.52c-2.37-3.93-5.95-5.93-10.38-6.76-2.67-.5-5.71-.08-7.25,2.34-.25.4,1,.22,1,.21,4-.9,7,1,9.22,4.28,1.29,1.93,3.74,4.81,3.32,7.3-.09.56,1.83.21,1.92-.31.53-3.17-2.85-7.16-4.85-9.38-2.77-3.08-5.94-3.46-9.8-2.61l1,.2c1.66-2.6,5.79-.77,7.91,0a11.84,11.84,0,0,1,5.88,5.29c.3.5,1.88,0,1.93-.52.54-6.87-7-8.49-12.43-8.93-.47,0-2.24.79-1.24.87Z"/><path class="cls-11" d="M82.59,210.94c3.78-.11,7.34-.65,10.3,2.22a12.53,12.53,0,0,1,3.62,8.72l1.93-.51c-1.53-6.83-11.26-11.94-16.83-6.51-.28.27-.25.52.16.6,4.82.94,8.81,2.44,11.79,6.53.54.74,3.63,7.44,2.85,8s1.09.53,1.53.23c1.15-.8-.3-3.63-.62-4.55a15.82,15.82,0,0,0-5.08-7.71,15.21,15.21,0,0,0-4.82-2.39c-.71-.24-1.53-.42-2.26-.6l-1.08-.24q-1.83-1.34,3.13-1.13c4.23.31,8.4,4.29,9.3,8.3.14.62,1.93.1,1.93-.51A13.57,13.57,0,0,0,94,211.76c-2.83-2.75-7.1-1.91-10.62-1.81-.65,0-2.08,1-.78,1Z"/><path class="cls-11" d="M91.38,183.4c-.17,1.48.87,3.29,1.28,4.68.84,2.8.22,6.66-1.81,8.8l1.78,0c4.14-4.52,6.57-13.75,1.52-18.46l-1.68.78c5.31,1.56,6.09,7.45,5.85,12.22,0,.57,1.68,0,1.86-.28,2.55-3.34,4-11-.71-13.09l-1.56.85c4,1.07,4.29,6.69,4.34,10.11,0,.61,1.67-.1,1.85-.29,2.67-2.68,4.19-7.3,1.23-10.3-.33-.33-2.12.14-1.87.62a19.89,19.89,0,0,1,2.42,8.76c0,.36.91.17,1.07.14,4.13-1,4.63-7.19,2.31-10.12l-1.69.78c2.81,1.41,3.08,5.53,3.14,8.29,0,.48,2,.14,1.93-.52-.07-3.08-.44-7.08-3.51-8.62-.36-.18-2.11.24-1.68.78,1.36,1.72,2.19,7.94-.71,8.61l1.07.14a19.93,19.93,0,0,0-2.42-8.76l-1.87.61c2.79,2.82,1.28,7.15-1.19,9.64l1.85-.28c-.05-3.67-.45-9.3-4.71-10.44-.43-.11-2.34.51-1.56.85,4.31,1.93,2.78,9.3.49,12.29l1.86-.29c.24-5-.74-10.93-6.23-12.55-.31-.09-2.21.29-1.68.78,4.84,4.53,2.47,13.46-1.5,17.8-.5.54,1.42.33,1.78,0a9.13,9.13,0,0,0,2.25-6.3c0-2.45-1.84-5.14-1.58-7.42.08-.64-1.85-.26-1.92.29Z"/><path class="cls-11" d="M105,176.34c1.46,1.22,3.27-.66,3.88-1.86a18,18,0,0,0,1.92-7.19c0-.12-.29-.14-.34-.14h-.61c-.29,0-1.65.16-1.59.66.41,3.14,2.73,6.26.4,9.18-.19.23,0,.31.25.32a5.66,5.66,0,0,0,4.55-2.38c1.16-1.5,2.71-4.3.91-5.9-.29-.25-2,.14-1.88.59.65,2.54,1.35,5,0,7.46-.15.28,1.63.16,1.9-.33,1.37-2.51.68-5,0-7.65l-1.87.59c1,.94.71,2.36.25,3.52-.3.76-1.65,3.34-2.64,3.31a3.92,3.92,0,0,0,.25.32c2.52-3.14.23-6.11-.22-9.55l-1.59.66c.56,0,.14,1,.05,1.52-.17.85-.39,1.7-.63,2.53a22,22,0,0,1-.9,2.51,7.82,7.82,0,0,1-.6,1.1,1.87,1.87,0,0,1-.38.46c.84,0,1.07-.14.68-.39s-2.12.41-1.82.66Z"/><path class="cls-11" d="M82.7,165.25c1.55,1.51,3.69,2,5.13,3.63,1.72,1.94,2.69,5.81,1.78,8.24-.39,1,1.5.93,1.84.2,2.06-4.34,3.2-10.8-2-13.34l-.84,1.24c5.77-.26,5.76,9.47,5.76,13.29,0,.81,1.16.67,1.61.34,3.35-2.48,8.37-9.91,4.78-13.83-.58-.63-2.41.14-1.77.84,3.06,3.34-1.41,10-4.28,12.14l1.61.35c0-5.17-.3-14.83-7.53-14.51-.43,0-1.67.83-.84,1.24,4.7,2.29,3.47,8.16,1.64,12l1.84.2c.9-2.38.34-4.7-.59-7a10.61,10.61,0,0,0-1.94-3c-1.17-1.34-3.16-1.61-4.45-2.86-.61-.59-2.44.2-1.77.84Z"/><path class="cls-11" d="M93.54,246.49c-2.62-.4-5.2-2-7.32.5a3.78,3.78,0,0,0,2,6,5.21,5.21,0,0,0,6-2.83c.94-2.09,0-4.22-2.35-4.32-.71,0-2.07,1-.76,1,2.84.13,1.4,6.11-1.73,5.05a3.15,3.15,0,0,1-1.87-3.87,3,3,0,0,1,.87-1.42c.26-.25.94,0,1.23.09.94.24,1.83.59,2.79.74a1.78,1.78,0,0,0,1.37-.37c.29-.25.23-.59-.18-.65Z"/><path class="cls-11" d="M90.57,252.38a4.39,4.39,0,0,0-4.49,5c.38,2.83,3.77,2.85,5.77,2s3.67-3.44,2-5.45c-1.46-1.71-4.82-2.35-6,0-.48.94,1.48.88,1.83.17.56-1.08,2.27.46,2.7,1.05.81,1.11-.07,2.52-1.09,3.09a2,2,0,0,1-3.06-.78c-.54-1.11.14-3.81,1.7-3.69.89.07,2-1.22.69-1.32Z"/><path class="cls-11" d="M89.12,260c-1.79,2.27-.48,5.18,2.32,5.7,2.27.43,4.88-.7,5.39-3.12s-2.33-3.85-4.34-3.61-5,1.71-3.75,4.14c.38.75,2.22.06,1.77-.85-.67-1.33,1.27-1.86,2.22-1.94a2.19,2.19,0,0,1,2.15,2.41c-.45,3.37-6.59.93-4.15-2.18.76-1-1.08-1.23-1.61-.55Z"/><path class="cls-11" d="M127.62,256.44c-1.38,6.54,3.23,11.91,2.41,18.43-.34,2.7-2.15,7.05.23,9.23.61.55,2.31-.35,1.5-1.09-2-1.85.46-9.34.41-11.82-.12-5.36-3.78-9.26-2.6-14.91.19-.93-1.78-.67-1.95.16Z"/><path class="cls-11" d="M130.21,283.89c-1,1.42-2,4.45-.39,5.82s4.22.45,5.35-1.21a5.25,5.25,0,0,0,.94-2.87,2.74,2.74,0,0,0-1.46-2.39,4.07,4.07,0,0,0-5.77,1.42c-.47,1,1.48.93,1.84.2.61-1.25,1.87-1,2.82-.26s.56,2.38,0,3.33-1.9,1.73-2.43.3a4.78,4.78,0,0,1,.67-3.81c.7-1-1.12-1.22-1.6-.53Z"/><path class="cls-11" d="M131,290.14a5.38,5.38,0,0,0,0,5.63c1.18,1.72,4,1,5.07-.43s1.14-3.82-.46-4.92c-1.4-1-5.26-1-4.92,1.55.1.76,2,.3,1.93-.52s1-.36,1.3-.14a2.22,2.22,0,0,1,.88,1.26,2.87,2.87,0,0,1-.7,2.78c-.93.93-1.73-1.2-1.84-1.79a4.7,4.7,0,0,1,.61-3.3c.55-.81-1.42-.72-1.83-.12Z"/><path class="cls-11" d="M132.5,296.78a5.35,5.35,0,0,0-1.18,6.4c1.25,2.34,4.3,1.52,5.61-.3s.79-5.07-1.57-5.89-4.71,1.1-3.81,3.43c.3.78,2.22.22,1.94-.51-.5-1.28.21-2.48,1.45-1.29a3.38,3.38,0,0,1,.3,3.91c-.91,1.77-2.12.2-2.4-1s-.15-3.18.9-4-.56-1.24-1.24-.73Z"/><path class="cls-11" d="M92,267.32c-.38,2.23.28,4.49.69,6.68.74,3.93.2,8.47-.17,12.44-.85,9.2-3.4,18.31-5.27,27.33a192.13,192.13,0,0,0-3.14,20.38c-.44,4.52-.45,9.92,3.29,13.09.63.54,2.33-.39,1.49-1.1-4.52-3.84-3-11.59-2.27-16.74,1-7.15,2.22-14.21,3.75-21.27,1.68-7.79,3.53-15.62,4.27-23.58a57.74,57.74,0,0,0,.21-9.11c-.2-2.74-1.36-5.54-.9-8.28.17-1-1.81-.69-2,.16Z"/><path class="cls-11" d="M89.58,265.9c-1.64,3.74-3,7.75-6.66,9.94-2.48,1.48-5.19,2.5-6.64,5.16-.19.36,1,.16,1,.14,4.08-1.22,7.22-3.87,10.63-6.32.79-.57-1.14-.31-1.48-.06-3,2.11-5.78,4.71-9.31,5.77l1,.13c1.64-3,5-3.71,7.6-5.65,3-2.26,4.25-6.14,5.69-9.45.15-.33-1.69-.16-1.9.34Z"/><path class="cls-11" d="M92.31,270.17a1,1,0,0,0,.39-.77c0-.26-1.92,0-1.93.51a.51.51,0,0,1-.2.44c-.3.3.26.29.44.27a2.32,2.32,0,0,0,1.3-.45Z"/><path class="cls-11" d="M90.18,271a19.84,19.84,0,0,1-9,9.93c-.74.42-.18.71.41.62,4.5-.64,7.79-4.55,11-7.41.49-.43-1.38-.27-1.77.07-2.48,2.21-5.45,6-8.92,6.49.14.2.28.41.41.62a21.36,21.36,0,0,0,9.75-10.62c.18-.47-1.7-.25-1.91.3Z"/><path class="cls-11" d="M92.94,272.91c-2.11,4.8-6.53,7.47-10.15,11-.53.52.18.93.68.85a14.24,14.24,0,0,0,3.24-1c1.24-.49.12-1.35-.82-1a18.47,18.47,0,0,1-2.2.77l.68.85c3.73-3.64,8.22-6.4,10.39-11.33.42-.95-1.52-.83-1.82-.14Z"/><path class="cls-11" d="M90.53,279.59C89,281.41,87.13,282.87,86,285c-.44.84,1.5.65,1.81.07,1.12-2.15,3-3.63,4.53-5.44.31-.37-.27-.6-.53-.61a1.59,1.59,0,0,0-1.28.54Z"/><path class="cls-11" d="M94.29,267.38c2.52,1.05,5.25,1.5,7.78,2.52,3.5,1.42,3.8,4.86,3.81,8.17,0,.53,1.93.19,1.93-.52,0-3-.23-6.17-3-7.95s-6.07-1.92-8.94-3.11c-.54-.22-2.31.58-1.55.89Z"/><path class="cls-11" d="M92.28,269c1.84,3.07,5.63,2.31,7.9,4.73,1.57,1.69-.39,4.24,1.68,5.67,1.52,1,3.48.95,3.71,3.19.07.58,2,.16,1.94-.52a3.07,3.07,0,0,0-2-2.6,17.92,17.92,0,0,1-2.25-1.09c-1.06-.73-.44-3-.58-4.16-.41-3.52-6.83-3-8.46-5.74-.36-.61-2.2.07-1.93.52Z"/><path class="cls-11" d="M95.38,278.52c1.69,2.22,4.35,3.23,6.48,4.94.57.46,2.32-.38,1.51-1-2-1.63-4.6-2.6-6.21-4.72-.47-.61-2.32.09-1.78.81Z"/><path class="cls-11" d="M91.73,279.54c-2.41,5.95-7,8-12.43,10.73-2.25,1.12-4.69,3.07-3.28,5.82,1.56,3.06-.41,5.1-.34,8.1a6.06,6.06,0,0,0,.79,3.5c1.66,2.08,8.9-2.89,10.6-3.29,1.19-.29.86-1.5-.33-1.22a21.85,21.85,0,0,0-4.66,1.75,25.65,25.65,0,0,1-3.14,1.36c-1.48.59-.78.41-1.19-.77-1.16-3.43,2.35-5.76.58-9.21-2.33-4.55,6.61-7.19,9.36-9a15.44,15.44,0,0,0,5.87-7.58c.4-1-1.54-.9-1.83-.17Z"/><path class="cls-11" d="M85.79,304.1c-2.27,3.37-7.05,3.43-10,6.18-2.45,2.33-1.42,7.52-2.43,10.46-.92,2.65-1.28,5.61.94,7.66,1.75,1.61,6.62-1.09,8.6-.64,0-.43-.07-.86-.1-1.29-5.23,2.69-8.16,6.54-8.5,12.5a18,18,0,0,0,2.38,9.74c1.82,3.28,6.14,4.31,9.13,6.09a1.24,1.24,0,0,0,1.67-.44c1.15-3.1,1.91-5.32,4.75-7.45a9.42,9.42,0,0,0,3.46-5.43c1-3.56-3.33-8-6.16-9.35l-.89,1.37c4.23.16,5.86,3.9,7.9,7,.42.62,1.8.23,1.87-.5a14.15,14.15,0,0,0-4.33-11.53c-2.69-2.72.69-.13,1.65,1a39.79,39.79,0,0,1,3.23,5c.45.74,1.94.12,1.85-.69a23,23,0,0,0-1.51-5.44,8,8,0,0,0-.5-1.25l-.64-1q-1.92-1.55-.09-2.91c.83.82,1.94.23,2.73-.26,1.42-.87.86-3.87.61-5.16-.67-3.55-4.34-6-6.12-8.93-.32.38-.64.77-1,1.15,4.47-.08,7.15,4.27,9.17,7.56.39.64,1.81.22,1.87-.5.23-3.36,0-6.71.54-10.06.45-3,1.28-5.76.7-8.82-.88-4.64-6.72-6.68-8.21-11.21l-1,1c3.92-.34,6.31,3.81,9,5.89.49.37,1.69.07,1.72-.63.13-3.07-.18-5.88-2.29-8.24a6.46,6.46,0,0,0-2.36-1.41c-3-1.37-5.68-2.54-7.83-5.21-.56-.7-2.39.07-1.76.86a16.07,16.07,0,0,0,5.78,4.45c4.72,2.34,6.73,4.2,6.5,9.69l1.73-.64c-3.33-2.55-5.66-6.6-10.33-6.19-.42,0-1.23.4-1,1,1.37,4.17,5,6.05,7.42,9.46,2.07,2.85.68,7.1.06,10.2-.66,3.29-.31,6.72-.54,10l1.86-.5c-2.5-4.07-5.58-8.23-10.77-8.14-.54,0-1.33.55-1,1.15,1.93,3.22,5.38,5.47,6.11,9.34.83,4.41-.73,1.42-2.68,1.94a2.51,2.51,0,0,0-1.86,2.7c.5,3.74,3.35,6.68,3.79,10.62l1.85-.69c-2.36-3.88-5.81-10.56-11.29-8-.3.14-.79.65-.45,1,4.1,4.28,8,6.79,7.46,13.54l1.86-.5c-2.4-3.61-4.23-7.35-9-7.53-.72,0-2,.84-.89,1.37,2.58,1.23,4.06,3.6,5,6.14,1.41,3.65-2.32,6.11-4.62,8.14-1.83,1.62-2.39,4.2-3.2,6.39l1.67-.44c-5.22-3.11-9.27-4.38-10.76-11s1.31-12.05,7.12-15c.71-.36.7-1.11-.1-1.29-2.21-.51-4,0-6.1.72-5.17,1.74-1.5-8.18-1.13-10.14.23-1.22,0-2.61.1-3.86.28-3.15,4-4.07,6.41-4.95a8.53,8.53,0,0,0,4.52-3.42c.7-1-1.11-1.33-1.62-.59Z"/><path class="cls-11" d="M131.61,305.24c-1.64,3.4-5.13,6.1-7.45,9.12a37.54,37.54,0,0,0-5.34,9.91c-3.29,8.87-2.64,19.28-2.69,28.56,0,8.81-.47,17.63,2.51,26.07,2.57,7.29,8.57,13,13.89,18.33.41.41,1.85.22,1.87-.5.07-4.11,1.95-7.65,3.68-11.29a73.9,73.9,0,0,0,3.45-9.58,118.77,118.77,0,0,0,4.87-24.48c1.57-16.11-1.3-32.22-10.27-45.87l-1.78.79c1.82,1.86,3.47,3.58,5.87,4.64.51.23,2.13-.08,1.65-.9-1.39-2.39-3.58-4-5.44-6-.52-.56-2.36.17-1.78.79,1.86,2,4,3.65,5.44,6l1.65-.91a18.5,18.5,0,0,1-5.61-4.42c-.5-.51-2.29,0-1.78.79,9.31,14.17,11.56,30.44,9.94,47.06a118.9,118.9,0,0,1-4.7,22.7c-2,6.76-7,13.72-7.14,20.87l1.87-.5c-5.42-5.42-10.75-10.86-13.75-18-3.56-8.54-2.53-18.56-2.49-27.57,0-8.49.13-16.94,2.21-25.22A33.52,33.52,0,0,1,126,314.48c2.27-3.18,5.75-5.58,7.45-9.12.44-.91-1.51-.77-1.82-.12Z"/><path class="cls-11" d="M133.22,305.13a18.35,18.35,0,0,0-13.37,6.54c-.22.25.06.39.28.44a6.39,6.39,0,0,0,4.93-1.33c1.8-1.23,4.55-5.3,7-4.45.07-.21.13-.43.2-.64-3.17,2-7.06,3.45-9.37,6.58-.46.63,1.46.39,1.78,0,2.14-2.91,5.8-4.21,8.75-6.11.2-.12.65-.48.2-.64a5.65,5.65,0,0,0-5.1.92c-1.86,1.28-4.69,5.3-7.15,4.78.09.15.18.3.28.44a14.91,14.91,0,0,1,10.8-5.54c.62,0,2.08-1,.79-.95Z"/><path class="cls-11" d="M133.37,306.66c-.84,1.62-.67,3.74-.68,5.51a45.53,45.53,0,0,1-1,9.72c-1.88,8.59-4.07,17.07-5.32,25.78a97.86,97.86,0,0,0-.25,24.72c.87,7.9,2.42,17.42,7,24.1.36.53,2.15-.21,1.94-.52-4-5.86-5.23-13.46-6.44-20.34a95.61,95.61,0,0,1-.3-28.26c1.1-8.71,3.38-17.24,5.32-25.78a33.68,33.68,0,0,0,1-7.57c0-2.4-.48-5.48.66-7.66.2-.38-1.64-.22-1.92.3Z"/><path class="cls-11" d="M163,247c-2.92,5.72-.41,10.16,1.29,15.72,1.26,4.13-2.46,6.29-3.78,9.5s-1.12,5.85-.3,9.2c.17.69,2.1.18,1.93-.51-.9-3.69-1.12-6.83,1.16-10.1,1.62-2.33,2.77-4.14,3.07-7,.21-2-1-3.92-1.81-5.58a13.11,13.11,0,0,1,.24-11.2c.42-.83-1.51-.61-1.8-.05Z"/><path class="cls-11" d="M160.8,280.42a3.46,3.46,0,0,0-2.36,4.63c.79,2.43,3.95,1.72,5.36.35a3.31,3.31,0,0,0,1.1-2.71c-.08-.87-1.09-1.61-1.77-2-1.67-.94-4.38-.31-4.69,1.78-.09.67,1.84.31,1.93-.28a2.71,2.71,0,0,1,.19-.73c.1-.22.26-.2.07-.21a2.68,2.68,0,0,1,1.42.62,2.11,2.11,0,0,1,.37,3.12c-.3.4-.66.79-1.16.6a2,2,0,0,1-1-1.4c-.18-.67-.19-2.74.75-2.95.23-.05.95-.31.85-.68s-.84-.21-1.08-.15Z"/><path class="cls-11" d="M161.09,286.86c-2,1.1-3.09,4.54-.91,6,1.53,1.05,5.39.16,5.89-1.8.43-1.7-1.24-3.59-2.56-4.42s-3.68-.4-3.86,1.37c0,.21,1.87,0,1.93-.52a1.67,1.67,0,0,1,.2-.69s-1.29,0-.58.25a4.06,4.06,0,0,1,1.34.9,4.68,4.68,0,0,1,1.65,3.13c.06,1.9-2.22,1.6-2.94.31a3.64,3.64,0,0,1,1.31-4.54c.32-.18.25-.38-.11-.38a2.82,2.82,0,0,0-1.36.36Z"/><path class="cls-11" d="M161.76,293.48c.17,2.91-3.24,4.36-4.88,6.37-1.25,1.53-1.43,3.51-1.46,5.41,0,.54,1.67-.1,1.85-.3a12.46,12.46,0,0,0,1.75-3c.35-.75,1.15-3.26,2-3.52l-1-.22c-.4,1-.89,2-1.21,3-.15.51,1.75.24,1.91-.3.33-1.05.82-2,1.21-3,.17-.44-.91-.26-1.05-.21-3.21,1-3.34,5.09-5.32,7.35l1.85-.3a8.06,8.06,0,0,1,3-6.71c1.66-1.43,3.46-2.69,3.32-5.07,0-.45-2-.09-1.93.52Z"/><path class="cls-11" d="M163,293.9c.23,5.19,4.73,10.25,7.94,13.93,5.13,5.87,7,12.27,6.34,20-.55,6.92-5.08,9.53-9.13,14.12-3.27,3.71-2.75,8.27-.91,12.52.36.83,2.27.27,1.93-.52-2.84-6.55-.76-10.7,4.36-15,3.5-3,5.08-6.82,5.71-11.28a26.27,26.27,0,0,0-2.52-15.19c-3.17-6.24-11.43-11.19-11.77-18.77,0-1-2-.67-1.95.16Z"/><path class="cls-11" d="M160.61,301.4c2.23,1.68-6.13,9.85-2.79,10.52,3,.61,5.25-3.43,7.65-4.3l-1.28,0a19.19,19.19,0,0,0-1.51,3.63c-.11.47,1.35,0,1.51-.07l2.11-.9-1.5.06c-.62,2.95.26,5.68-2.12,8.11-1.19,1.22-2.55,1.95-3.43,3.46-1,1.66.34,3.85,1.18,5.22,1.39,2.24-.59,4.82-1.88,6.57-1.16,1.59-2.16,2.85-1.21,4.73,1,2.06,2.83.13,2,3.63-.52,2.23-1.21,3.38-.08,5.59,1.37,2.64,5.73,5,8,6.94.28.24,2-.21,1.88-.58-.92-2.34-1.49-4.54-.82-7.05.5-1.89,5.21-2.64,7.05-3.6,3.17-1.64,4.34-7.46,5.69-10.47a45,45,0,0,0,4.19-15.27,4.17,4.17,0,0,0-1.94-4c-1-.72-4-.19-4.5-1.58l-.89.54a22.1,22.1,0,0,0,5.78-2.14c.09-.05.34-.23.17-.34-3-2.15-5.8-4.24-8.61-6.67a9.53,9.53,0,0,0-3.41-1.31c-6.47-1.92.41-1.62,3-.07.39.24,2.11-.4,1.82-.65-3-2.5-5.74-3.73-9.65-3.68-.26,0-2,.62-1.42.75a15.29,15.29,0,0,0,6.05-.33c.24,0,1.75-.68.81-.72l-1.81-.08q-4.22-.36,1.18.18l1.54-.71a24.75,24.75,0,0,1-7.58-2.36l-1.33.7c4.5-.22,8,.46,11,3.88.31.35,2.1-.33,1.82-.65-3.33-3.77-7.19-4.21-12-4-.15,0-1.68.54-1.33.69a26.64,26.64,0,0,0,8.14,2.48c.23,0,1.88-.53,1.54-.71-2.51-1.3-5.36-.64-7.81.52-.31.14-.64.47-.08.49,1.21,0,2.42.1,3.63.22q3.5-.9-2.2-.36l-1.43.74c3.76-.05,6.31,1.25,9.09,3.57l1.82-.65c-3.59-2.17-6.74-3.24-10.41-.9-.1.07-.33.21-.17.34,2.76,2.39,6.53,2.06,9,4.93,1.55,1.75,3.91,2.94,5.84,4.2,1.36.89-2.94,2-3.18,2.05s-1,.27-.89.54l.3.9c0,.12.24.12.33.13,7,.21,6.13,5.27,4.92,10.69-1.15,5.17-3.78,10-5.85,14.81-1.26,3-2.64,4.12-5.85,5.26a9.3,9.3,0,0,0-2.82,1.26c-2.82,2.3-1.89,5.93-.7,8.94l1.88-.59c-2.27-2-4.56-3.9-7-5.73-3.22-2.48-.49-4.9-.57-7.8,0-1.12-.27-1.37-1.27-1.79-3.11-1.31-.36-4.55.82-6.16.75-1,1.73-2.51,1.68-3.82-.11-2.68-2.38-4.17-1.64-7.08.47-1.82,3-2.64,4.06-4.09,1.78-2.54.87-4.53,1.49-7.48.1-.48-1.34,0-1.5.06l-2.12.91,1.51-.06a18.55,18.55,0,0,1,1.51-3.63c.18-.39-1.18-.06-1.28,0-1.51.54-5.71,4.63-5.8,2.79-.13-2.67,6.38-7,3.41-9.25-.42-.32-2.08.45-1.82.65Z"/><path class="cls-11" d="M129.8,338c4.66,2,7.44,6.81,9.45,11.25.33.74,2.23.15,1.93-.51-2.1-4.65-5-9.6-9.86-11.73-.63-.28-2.38.61-1.52,1Z"/><path class="cls-11" d="M131,334.15a21.18,21.18,0,0,1,8.22,9.11c.23.51,2.1-.14,1.93-.52a21.65,21.65,0,0,0-8.33-9.27c-.49-.29-2.12.5-1.82.68Z"/><path class="cls-11" d="M131.39,330.8a7.69,7.69,0,0,1,4.26,3c.56.73,2.39,0,1.77-.86a9.06,9.06,0,0,0-4.93-3.46,1.29,1.29,0,0,0-1.36.37.59.59,0,0,0,.26,1Z"/><path class="cls-11" d="M132.41,326.79a4.59,4.59,0,0,1,1.78,2.22c.24.49,2.1-.19,1.93-.51a5,5,0,0,0-1.89-2.38,1.81,1.81,0,0,0-1.25.11c-.06,0-.89.39-.57.56Z"/><path class="cls-11" d="M132.89,322.71c.56.53,1.28.86,1.83,1.38a1.22,1.22,0,0,0,1.29.06c.24-.1.84-.53.5-.84-.56-.53-1.28-.86-1.84-1.38a1.22,1.22,0,0,0-1.29-.06c-.23.1-.83.53-.49.84Z"/><path class="cls-11" d="M131.6,323c-3.77,5.18-7.66,10.35-10.23,16.26-.44,1,1.51.95,1.84.19,2.52-5.78,6.3-10.84,10-15.91.73-1-1.1-1.23-1.6-.54Z"/><path class="cls-11" d="M130.21,332.59c-4,5.39-8.65,10.4-9.36,17.37-.1,1,1.87.77,2-.14.69-6.68,5.2-11.46,9-16.63.74-1-1.08-1.33-1.62-.6Z"/><path class="cls-11" d="M125.48,347.32c-1.73,4-2.79,8.25-4.14,12.4-.1.32,1.75.11,1.9-.36,1.35-4.15,2.41-8.38,4.14-12.4.11-.26-1.7-.12-1.9.36Z"/><path class="cls-11" d="M125.33,359.12c-3.32,2.53-3.1,7.78-3.1,11.53,0,1,2,.69,2-.16,0-3.14-.39-8.38,2.41-10.52,1.05-.8-.52-1.42-1.27-.85Z"/><path class="cls-11" d="M124.87,368.53v8.28c0,.35,2,.06,2-.52V368c0-.36-2-.07-2,.51Z"/><path class="cls-11" d="M125.52,367.23c3.71,2.27,6.27,6.24,8.21,10,.25.48,2.09-.21,1.93-.52-1.95-3.83-4.58-7.89-8.32-10.18-.48-.29-2.09.5-1.82.66Z"/><path class="cls-11" d="M125.92,357a38,38,0,0,1,3.22,5.52c.25.5,2.1-.18,1.93-.52a37.42,37.42,0,0,0-3.22-5.51c-.36-.49-2.1.29-1.93.51Z"/><path class="cls-11" d="M181.08,231.5a1.18,1.18,0,0,0-.12,1,5.37,5.37,0,0,1-.14,2.67,18.64,18.64,0,0,0-.67,6c0,.36,2,0,1.93-.52a17.63,17.63,0,0,1,.64-5.86,11.6,11.6,0,0,0,.28-2c0-.69-.3-1.11,0-1.75.14-.3-1.68-.14-1.9.34Z"/><path class="cls-11" d="M180.69,240.43a4.73,4.73,0,0,0-2.46,6.23c1.17,2.35,4.77,1.6,6.31.18s2.28-4.32.32-5.92c-2.51-2-6.57-.56-7.48,2.44-.27.88,1.7.66,2-.16a2.49,2.49,0,0,1,4.54-.54c.72,1.14.06,2.62-.77,3.48a1.92,1.92,0,0,1-3.21-.6,3.39,3.39,0,0,1,1.65-4c1.21-.54.13-1.54-.85-1.1Z"/><path class="cls-11" d="M181.89,247.81a3.74,3.74,0,0,0-2.12,5.34c1.23,2.34,4.24,2.32,6,.57a3.37,3.37,0,0,0-.87-5.57c-1.89-.76-4.64,0-5.17,2.13-.2.77,1.76.48,1.93-.22.3-1.2,1.32-1.2,2.26-.67,1.35.78,1.18,2.62.45,3.75-.91,1.4-2.32.26-2.82-.9-.33-.77-.43-3.05.66-3.39.29-.09.94-.35.83-.78s-.82-.35-1.11-.26Z"/><path class="cls-11" d="M182.45,254.57c.06,6.54-6.38,10.56-5.06,17.46.14.74,1.77.13,1.93-.38a100,100,0,0,1,4.14-9.65c.32-.71-1.51-.28-1.75-.05-2.53,2.46-3.29,6.05-3.4,9.48,0,.8,1.64.41,1.87-.09a22.33,22.33,0,0,1,2.75-5.06l-1.87.09a35,35,0,0,1-3.61,9.05c-.43.84,1.51.64,1.81.06a36.81,36.81,0,0,0,3.74-9.34c.18-.88-1.61-.23-1.87.09a21.51,21.51,0,0,0-2.76,5l1.87-.09c.1-3.12.69-6.63,3-8.9l-1.75-.05a96.52,96.52,0,0,0-4.13,9.65l1.93-.38c-1.29-6.77,5.12-10.94,5.06-17.46,0-.64-1.94-.25-1.93.52Z"/><path class="cls-11" d="M186.05,256.28c6.11-.18,9.15,7.26,9.26,12.38l1.93-.37a9.29,9.29,0,0,1-.92-2.75c-.1-.74-2-.28-1.93.51a9.26,9.26,0,0,0,.92,2.76c.3.61,1.95.35,1.94-.36-.14-6.32-3.85-13.57-11-13.36-1,0-1.56,1.23-.23,1.19Z"/><path class="cls-11" d="M185.85,258.73a6.46,6.46,0,0,1,4.51,2.33c1.15,1.28,1,2.6.77,4.16-.36,2.06-.2,3.58,2.07,4.08,1,.22,1.92-1.21.64-1.49-1.51-.33-.85-2.14-.66-3.16a5.28,5.28,0,0,0-.31-3.31,7.74,7.74,0,0,0-6.38-4.1c-1-.06-2,1.41-.64,1.49Z"/><path class="cls-11" d="M185.66,261.46c1.44,2.42,2.7,4.93,4.14,7.35.28.47,2.08-.27,1.93-.52-1.43-2.42-2.7-4.93-4.14-7.35-.27-.47-2.08.27-1.93.52Z"/><path class="cls-11" d="M183.82,269.27a11.1,11.1,0,0,1-2.84,7.21c-1.35,1.67-2.17,2.93-2,5.09.19,2.55.81,4.6.57,7.25a19,19,0,0,0,1.53,9.4c.18.45,1.62-.11,1.83-.34.66-.68,2.22-4.17,2.59-2.49.51,2.35-1.84,5.23-2.45,7.42-.67,2.44.78,4.83,1.75,6.95,1.11,2.43.86,5.62.87,8.22,0,.22.7.1.78.09a13.56,13.56,0,0,0,3.5-1.15c1.16-.53-.67-.43-1.11-.23-1.82.84-1.4-3.94-1.47-4.69-.23-2.45-1.55-4.49-2.33-6.76-1.39-4.05,3-7.45,2.1-11.67,0-.12-.26-.13-.33-.13-3.67.05-3.32,2.2-5.64,4.6l1.84-.34c-2.2-5.33-.6-10.34-1.91-15.73-.69-2.86.82-4.64,2.52-6.73a10.27,10.27,0,0,0,2.15-6.49c0-.26-1.91,0-1.94.52Z"/><path class="cls-11" d="M185.2,262.38c0,6.13,3.67,11.21,6.68,16.27a63.19,63.19,0,0,1,7.74,20.26c1.54,7.83.86,15.79-.73,23.54-1.34,6.58-4.24,12.64-4.5,19.43,0,.27,1.91,0,1.93-.52.28-7.22,3.37-13.84,4.8-20.85a60.76,60.76,0,0,0,.71-20.44,59.14,59.14,0,0,0-7.34-20.75c-3.09-5.52-7.41-10.84-7.36-17.46,0-.28-1.92,0-1.93.52Z"/><path class="cls-11" d="M190.67,317.15h-.34c-.76,0-2.05,1.15-.74,1.15-.55,0-1.65,7.3-1.63,8.42,0,.16.26.26.38.28,2.45.58.7,2.47.07,4-.87,2.15-1.76,4.66-1.38,7,.73,4.55,4.26,7.87,4.61,12.56.05.69,1.68.19,1.87-.22,1.62-3.64,6.28-5.23,8.49-8.81,2.47-4,4.39-7.87,3.06-12.63l-1.73.75c2.22,1.33,2.67,3.16,3.47,5.29.24.65,1.89.27,1.93-.37.18-2.23.7-4.35.46-6.58-.27-2.53-2.74-5.12-3.67-7.36-.3-.71-2.2-.12-1.94.52.92,2.2,2.25,4.08,3.31,6.2s.09,5.1-.09,7.44l1.93-.37c-.94-2.5-1.55-4.35-3.87-5.74-.42-.25-1.93,0-1.74.74,1.43,5.09-1.05,9-3.64,13.2-2.1,3.39-6.14,4-7.78,7.65l1.87-.23c-.26-3.52-2-6.13-3.61-9.19-2.46-4.8.18-9.56,2.17-13.95a.38.38,0,0,0-.32-.58c-3.3-.58-.5-6.3-.54-8.9,0-.24-.44-.32-.6-.32h-.34c-.76,0-2.05,1-.74,1h.35c.75,0,2-1,.73-1Z"/><path class="cls-11" d="M193.93,270.19c1.76,3.7,5.84,5.71,8.4,8.85,2.82,3.46,3.27,8.52,4,12.75l1.73-.75-1.84-.92c-.5-.26-2.09.1-1.65.88,1.51,2.74,1.95,5.75,3.14,8.6.9,2.17,2.28,4.08,3.07,6.33,1.92,5.43-1.8,9.81-1.69,15.12l1.73-.6a7.79,7.79,0,0,1-3.48-3.9c-.36-.66-1.52-.29-1.87.21-1.4,2,.33,3.15,1.39,5l1.48-1a19.91,19.91,0,0,1-2.3-.46c-.68-.16-2.29.86-1.16,1.13a19.48,19.48,0,0,0,2.3.45c.47.09,1.9-.2,1.47-.95-.61-1.07-2.35-2.73-1.36-4.16l-1.88.22a10.85,10.85,0,0,0,3.88,4.37c.4.25,1.75,0,1.73-.6-.1-5.52,3.16-9.77,1.69-15.43-.72-2.76-2.57-5.14-3.66-7.74s-1.37-5.05-2.7-7.45l-1.65.89,1.84.92c.47.24,1.86,0,1.72-.76-.64-3.68-1-7.82-3-11.12-2.4-4.14-7.43-6.22-9.45-10.48-.35-.72-2.24-.12-1.94.52Z"/><path class="cls-11" d="M69.24,224.69c-6.38,5.44.09,14.39-2.1,21.18-.2.63,1.73.36,1.93-.26a15.57,15.57,0,0,0,.1-9c-.92-4-2-8.6,1.61-11.63.83-.72-1.1-.65-1.54-.27Z"/><path class="cls-11" d="M67,245.2c-1.38,1.15-1.73,4-1,5.55,1,2.15,4.46.35,5.22-1.18.84-1.7-.72-3.52-2.28-4.06a3.12,3.12,0,0,0-2.8.33,2.78,2.78,0,0,0-.88,2.82c.07.64,2,.2,1.93-.52-.06-.51-.16-1.37.23-1.79-.07.08-.4,0-.09.08a2.2,2.2,0,0,1,.69.29,2.57,2.57,0,0,1,1.39,2.82,1.74,1.74,0,0,1-.59.75c-.16.14-.61.29-.47.34-.52-.18-.64-1-.71-1.42-.16-1.05,0-3,.88-3.7.31-.26.21-.59-.18-.67a1.78,1.78,0,0,0-1.37.36Z"/><path class="cls-11" d="M68.47,251.23a3.45,3.45,0,0,0-3.69,4.36c.54,2.89,3.39,3.31,5.65,2,2.51-1.44,2.43-4.46.26-6.13-1.84-1.43-4.85-1-4.69,1.75,0,.71,2,.29,1.93-.51a1.92,1.92,0,0,1,.12-.92c.12-.24-.41,0-.12,0a3.14,3.14,0,0,1,1.58,1,2.59,2.59,0,0,1-.31,4.15c-2.53,1.61-3.57-4.65-1.46-4.52.8.05,2-1.11.73-1.19Z"/><path class="cls-11" d="M67.53,257.7c-2,1.16-2.43,4.27-1.33,6.21s4.46.67,5.18-1.1-.78-3.8-2.14-4.61a2.49,2.49,0,0,0-2.44,0c-.89.48-.91,1.37-.8,2.28.06.52,2,.1,1.93-.52a4.05,4.05,0,0,1,0-.92c.08-.83.53-.11-.73-.21.37,0,.76.44,1,.67a4.22,4.22,0,0,1,1.4,3.14,1.72,1.72,0,0,1-.85,1.36c-.32.18-.93-1.34-1-1.56-.33-1.19-.3-3.58,1-4.29s-.62-.73-1.15-.42Z"/><path class="cls-11" d="M68,265.12c-5.73,8.61-.73,18.45-3.39,27.76-1.51,5.31-5.27,11.22-10.74,13-3.07,1-12,1.36-11.39-3.61.09-.77-1.86-.4-1.93.25-.92,8,14.77,4.82,18.24,2a25.54,25.54,0,0,0,8.6-15.5c1.46-8.27-2.74-16.1,2.4-23.84.5-.74-1.45-.56-1.79,0Z"/><path class="cls-11" d="M68.66,265.39c.16,3.07,1.51,4.61,3.1,7.08s1.79,5,1.85,7.76c0,.47,1.9.1,1.93-.52a6.66,6.66,0,0,0-3.11-6.18c-.38-.27-1.94,0-1.87.61a34.41,34.41,0,0,0,1.52,5.33L74,279a6.42,6.42,0,0,0-2-3.14c-.4-.35-1.84,0-1.87.61-.13,2.94,1,5.52,1.52,8.37.1.52,2,.07,1.94-.52-.51-2.84-1.65-5.43-1.53-8.36l-1.87.61a6.33,6.33,0,0,1,1.84,3c.2.54,2.08,0,1.94-.52a34.44,34.44,0,0,1-1.53-5.33l-1.87.62a6.44,6.44,0,0,1,3,6l1.93-.52A15.78,15.78,0,0,0,73.69,272c-1.4-2.53-2.94-4-3.1-7.08,0-.48-2-.12-1.93.51Z"/><path class="cls-11" d="M70.56,283.65c.77,3,1.37,5.88.77,9l1.93-.41c-.17-.7-.6-1.2-.77-1.9s-1.8,0-1.92.41a13.51,13.51,0,0,0-.39,3.53c0,.43,1.93.12,1.93-.52a12.7,12.7,0,0,1,.38-3.31l-1.93.41c.17.69.6,1.2.76,1.9.13.53,1.84,0,1.93-.41.61-3.2,0-6.12-.76-9.24-.13-.53-2.06,0-1.93.52Z"/><path class="cls-11" d="M68.48,265c-6-.3-17.55,2.59-18.46,9.81-.05.42.54.5.84.44,3.81-.74,6.16-3.92,9.77-5l-.52-.92A6.16,6.16,0,0,0,56.55,272c-.42.76,1,.56,1.29.45a9.88,9.88,0,0,0,1.91-.76c1-.48.38-1.23-.53-.92a9.52,9.52,0,0,0-5.33,4.65c-.35.62.69.66,1,.54,2.35-.8,3.78-2.61,5.79-4,1.08-.75-.58-1.05-1.21-.61-1.59,1.1-3,3-4.85,3.6l1,.54a7.3,7.3,0,0,1,3.79-3.71c-.17-.31-.34-.62-.52-.93a9.42,9.42,0,0,1-1.9.76l1.29.45a4.44,4.44,0,0,1,2.53-1.89c1.07-.41.36-1.19-.53-.93-3.39,1-5.81,4.23-9.24,4.9l.84.44c.78-6.2,10.58-8.7,15.78-8.45.75,0,2.05-1.07.74-1.13Z"/><path class="cls-11" d="M58.79,272.92c-1.63,2-2.11,4.72-4.71,5.8a.35.35,0,0,0-.21.37v.38c0,.06-.12.1,0,.1,1.56.3,1.78,1.12.88,2.47,0,.07-.07.12,0,.15,2.82,2.31.27,4.65-2.15,5.3-.47.13-1.34.4-1.58.82-1.14,2-.39,3.52.39,5.61s-2.65,5.55-4,7.14l1.58-.55c-1.19,0-2-.64-3.24-.21a1.41,1.41,0,0,0-.62.38c-2,2.34-3-1.78-3-3.1,0-.32-1.81.05-1.92.44-.77,2.77-1.06,5.62,1.18,7.75.36.34,2.1-.39,1.83-.64-2.19-2.08-1.85-4.79-1.11-7.46l-1.91.43c0,5.13,4.36,5.17,6.86,2.23l-1.58.56c2.94.05,3.21.82,5.18-1.9,1.6-2.2,3.18-2.66,2.69-5.59s-2.1-4.37,1.31-5.59a4.93,4.93,0,0,0,2.81-2.42c1.07-1.75-.51-3-.48-4.68,0-.65.17-1.15-.52-1.57-1.23-.76-1.26-.08-.11-.77,2.12-1.29,2.88-4,4.39-5.8a2.58,2.58,0,0,0-1.9.35Z"/><path class="cls-11" d="M70.2,294.65c-1.13.55-2.79,1.45-3.43,2.59s-.89,5-2.61,4.75c-.37,0-1.44.13-1.57.58-1.24,4-6,2.77-9.12,4.25-1.16.54.65.53,1.13.3,3.67-1.72,8.36.13,9.9-4.88l-1.58.58c1.14.14,3,.16,3.83-.89,2.06-2.65.77-5.14,4.58-7,1.16-.55-.64-.53-1.13-.3Z"/></svg>