<svg id="layer1" xmlns="http://www.w3.org/2000/svg" viewBox="0 0 285.29 208.93"><defs><style>.cls-1{fill:#c61a2b;}.cls-2{fill:#334a89;}.cls-3{fill:#fff;}.cls-4{fill:#492d0c;}</style></defs><polygon class="cls-1" points="236.88 153.16 12.21 154.43 12.03 162.78 236.54 161.04 236.88 153.16"/><polygon class="cls-1" points="235.88 135.16 11.21 136.43 11.03 144.78 235.54 143.04 235.88 135.16"/><polygon class="cls-1" points="237.33 116.16 9.97 117.43 9.79 125.78 236.98 124.04 237.33 116.16"/><polygon class="cls-1" points="235.88 98.16 11.21 99.43 11.03 107.78 235.54 106.04 235.88 98.16"/><polygon class="cls-1" points="235.88 80.16 11.21 81.43 11.03 89.78 235.54 88.04 235.88 80.16"/><polygon class="cls-1" points="235.88 62.16 11.21 63.43 11.03 71.78 235.54 70.04 235.88 62.16"/><polygon class="cls-1" points="233.88 42.16 9.21 43.43 9.03 51.77 233.54 50.04 233.88 42.16"/><path class="cls-2" d="M115.43,107.22c0-1.34-1.35-57.31-1.35-64.38L9.67,44.17c0,15.75.63,64.78,1.27,63.73Z"/><polygon class="cls-3" points="17.17 47.42 18.17 49.94 20.91 49.97 18.77 51.6 19.64 54.31 17.35 52.54 15.12 54.45 15.75 51.58 13.59 50.19 16.38 50.1 17.17 47.42"/><polygon class="cls-3" points="17.17 57.42 18.17 59.94 20.91 59.97 18.77 61.6 19.64 64.31 17.35 62.54 15.12 64.45 15.75 61.58 13.59 60.19 16.38 60.1 17.17 57.42"/><polygon class="cls-3" points="17.17 67.42 18.17 69.94 20.91 69.97 18.77 71.6 19.64 74.31 17.35 72.54 15.12 74.45 15.75 71.58 13.59 70.19 16.38 70.11 17.17 67.42"/><polygon class="cls-3" points="17.17 77.42 18.17 79.94 20.91 79.97 18.77 81.6 19.64 84.31 17.35 82.54 15.12 84.45 15.75 81.58 13.59 80.19 16.38 80.11 17.17 77.42"/><polygon class="cls-3" points="17.17 87.42 18.17 89.94 20.91 89.97 18.77 91.6 19.64 94.31 17.35 92.54 15.12 94.45 15.75 91.58 13.59 90.19 16.38 90.11 17.17 87.42"/><polygon class="cls-3" points="17.17 97.42 18.17 99.94 20.91 99.97 18.77 101.6 19.64 104.31 17.35 102.54 15.12 104.45 15.75 101.58 13.59 100.19 16.38 100.11 17.17 97.42"/><polygon class="cls-3" points="26.17 52.42 27.17 54.94 29.91 54.97 27.77 56.6 28.64 59.31 26.35 57.54 24.11 59.45 24.75 56.58 22.59 55.19 25.38 55.1 26.17 52.42"/><polygon class="cls-3" points="26.17 62.42 27.17 64.94 29.91 64.97 27.77 66.6 28.64 69.31 26.35 67.54 24.11 69.45 24.75 66.58 22.59 65.19 25.38 65.11 26.17 62.42"/><polygon class="cls-3" points="26.17 72.42 27.17 74.94 29.91 74.97 27.77 76.6 28.64 79.31 26.35 77.54 24.11 79.45 24.75 76.58 22.59 75.19 25.38 75.11 26.17 72.42"/><polygon class="cls-3" points="26.17 82.42 27.17 84.94 29.91 84.97 27.77 86.6 28.64 89.31 26.35 87.54 24.11 89.45 24.75 86.58 22.59 85.19 25.38 85.11 26.17 82.42"/><polygon class="cls-3" points="26.17 92.42 27.17 94.94 29.91 94.97 27.77 96.6 28.64 99.31 26.35 97.54 24.11 99.45 24.75 96.58 22.59 95.19 25.38 95.11 26.17 92.42"/><polygon class="cls-3" points="36.17 47.42 37.17 49.94 39.91 49.97 37.77 51.6 38.64 54.31 36.35 52.54 34.12 54.45 34.75 51.58 32.59 50.19 35.38 50.1 36.17 47.42"/><polygon class="cls-3" points="36.17 57.42 37.17 59.94 39.91 59.97 37.77 61.6 38.64 64.31 36.35 62.54 34.12 64.45 34.75 61.58 32.59 60.19 35.38 60.1 36.17 57.42"/><polygon class="cls-3" points="36.17 67.42 37.17 69.94 39.91 69.97 37.77 71.6 38.64 74.31 36.35 72.54 34.12 74.45 34.75 71.58 32.59 70.19 35.38 70.11 36.17 67.42"/><polygon class="cls-3" points="36.17 77.42 37.17 79.94 39.91 79.97 37.77 81.6 38.64 84.31 36.35 82.54 34.12 84.45 34.75 81.58 32.59 80.19 35.38 80.11 36.17 77.42"/><polygon class="cls-3" points="36.17 87.42 37.17 89.94 39.91 89.97 37.77 91.6 38.64 94.31 36.35 92.54 34.12 94.45 34.75 91.58 32.59 90.19 35.38 90.11 36.17 87.42"/><polygon class="cls-3" points="36.17 97.42 37.17 99.94 39.91 99.97 37.77 101.6 38.64 104.31 36.35 102.54 34.12 104.45 34.75 101.58 32.59 100.19 35.38 100.11 36.17 97.42"/><polygon class="cls-3" points="45.17 52.42 46.17 54.94 48.91 54.97 46.77 56.6 47.64 59.31 45.35 57.54 43.12 59.45 43.75 56.58 41.59 55.19 44.38 55.1 45.17 52.42"/><polygon class="cls-3" points="45.17 62.42 46.17 64.94 48.91 64.97 46.77 66.6 47.64 69.31 45.35 67.54 43.12 69.45 43.75 66.58 41.59 65.19 44.38 65.11 45.17 62.42"/><polygon class="cls-3" points="45.17 72.42 46.17 74.94 48.91 74.97 46.77 76.6 47.64 79.31 45.35 77.54 43.12 79.45 43.75 76.58 41.59 75.19 44.38 75.11 45.17 72.42"/><polygon class="cls-3" points="45.17 82.42 46.17 84.94 48.91 84.97 46.77 86.6 47.64 89.31 45.35 87.54 43.12 89.45 43.75 86.58 41.59 85.19 44.38 85.11 45.17 82.42"/><polygon class="cls-3" points="45.17 92.42 46.17 94.94 48.91 94.97 46.77 96.6 47.64 99.31 45.35 97.54 43.12 99.45 43.75 96.58 41.59 95.19 44.38 95.11 45.17 92.42"/><polygon class="cls-3" points="54.17 46.42 55.17 48.94 57.91 48.97 55.77 50.6 56.64 53.31 54.35 51.54 52.12 53.45 52.75 50.58 50.59 49.19 53.38 49.1 54.17 46.42"/><polygon class="cls-3" points="54.17 56.42 55.17 58.94 57.91 58.97 55.77 60.6 56.64 63.31 54.35 61.54 52.12 63.45 52.75 60.58 50.59 59.19 53.38 59.1 54.17 56.42"/><polygon class="cls-3" points="54.17 66.42 55.17 68.94 57.91 68.97 55.77 70.6 56.64 73.31 54.35 71.54 52.12 73.45 52.75 70.58 50.59 69.19 53.38 69.11 54.17 66.42"/><polygon class="cls-3" points="54.17 76.42 55.17 78.94 57.91 78.97 55.77 80.6 56.64 83.31 54.35 81.54 52.12 83.45 52.75 80.58 50.59 79.19 53.38 79.11 54.17 76.42"/><polygon class="cls-3" points="54.17 86.42 55.17 88.94 57.91 88.97 55.77 90.6 56.64 93.31 54.35 91.54 52.12 93.45 52.75 90.58 50.59 89.19 53.38 89.11 54.17 86.42"/><polygon class="cls-3" points="54.17 96.42 55.17 98.94 57.91 98.97 55.77 100.6 56.64 103.31 54.35 101.54 52.12 103.45 52.75 100.58 50.59 99.19 53.38 99.11 54.17 96.42"/><polygon class="cls-3" points="63.17 51.42 64.17 53.94 66.91 53.97 64.78 55.6 65.64 58.31 63.35 56.54 61.12 58.45 61.75 55.58 59.59 54.19 62.38 54.1 63.17 51.42"/><polygon class="cls-3" points="63.17 61.42 64.17 63.94 66.91 63.97 64.78 65.6 65.64 68.31 63.35 66.54 61.12 68.45 61.75 65.58 59.59 64.19 62.38 64.11 63.17 61.42"/><polygon class="cls-3" points="63.17 71.42 64.17 73.94 66.91 73.97 64.78 75.6 65.64 78.31 63.35 76.54 61.12 78.45 61.75 75.58 59.59 74.19 62.38 74.11 63.17 71.42"/><polygon class="cls-3" points="63.17 81.42 64.17 83.94 66.91 83.97 64.78 85.6 65.64 88.31 63.35 86.54 61.12 88.45 61.75 85.58 59.59 84.19 62.38 84.11 63.17 81.42"/><polygon class="cls-3" points="63.17 91.42 64.17 93.94 66.91 93.97 64.78 95.6 65.64 98.31 63.35 96.54 61.12 98.45 61.75 95.58 59.59 94.19 62.38 94.11 63.17 91.42"/><polygon class="cls-3" points="72.17 46.42 73.17 48.94 75.91 48.97 73.78 50.6 74.64 53.31 72.35 51.54 70.11 53.45 70.75 50.58 68.59 49.19 71.38 49.1 72.17 46.42"/><polygon class="cls-3" points="72.17 56.42 73.17 58.94 75.91 58.97 73.78 60.6 74.64 63.31 72.35 61.54 70.11 63.45 70.75 60.58 68.59 59.19 71.38 59.1 72.17 56.42"/><polygon class="cls-3" points="72.17 66.42 73.17 68.94 75.91 68.97 73.78 70.6 74.64 73.31 72.35 71.54 70.11 73.45 70.75 70.58 68.59 69.19 71.38 69.11 72.17 66.42"/><polygon class="cls-3" points="72.17 76.42 73.17 78.94 75.91 78.97 73.78 80.6 74.64 83.31 72.35 81.54 70.11 83.45 70.75 80.58 68.59 79.19 71.38 79.11 72.17 76.42"/><polygon class="cls-3" points="72.17 86.42 73.17 88.94 75.91 88.97 73.78 90.6 74.64 93.31 72.35 91.54 70.11 93.45 70.75 90.58 68.59 89.19 71.38 89.11 72.17 86.42"/><polygon class="cls-3" points="72.17 96.42 73.17 98.94 75.91 98.97 73.78 100.6 74.64 103.31 72.35 101.54 70.11 103.45 70.75 100.58 68.59 99.19 71.38 99.11 72.17 96.42"/><polygon class="cls-3" points="81.17 51.42 82.17 53.94 84.91 53.97 82.78 55.6 83.64 58.31 81.35 56.54 79.11 58.45 79.75 55.58 77.59 54.19 80.38 54.1 81.17 51.42"/><polygon class="cls-3" points="81.17 61.42 82.17 63.94 84.91 63.97 82.78 65.6 83.64 68.31 81.35 66.54 79.11 68.45 79.75 65.58 77.59 64.19 80.38 64.11 81.17 61.42"/><polygon class="cls-3" points="81.17 71.42 82.17 73.94 84.91 73.97 82.78 75.6 83.64 78.31 81.35 76.54 79.11 78.45 79.75 75.58 77.59 74.19 80.38 74.11 81.17 71.42"/><polygon class="cls-3" points="81.17 81.42 82.17 83.94 84.91 83.97 82.78 85.6 83.64 88.31 81.35 86.54 79.11 88.45 79.75 85.58 77.59 84.19 80.38 84.11 81.17 81.42"/><polygon class="cls-3" points="81.17 91.42 82.17 93.94 84.91 93.97 82.78 95.6 83.64 98.31 81.35 96.54 79.11 98.45 79.75 95.58 77.59 94.19 80.38 94.11 81.17 91.42"/><polygon class="cls-3" points="89.17 47.42 90.17 49.94 92.91 49.97 90.78 51.6 91.64 54.31 89.35 52.54 87.11 54.45 87.75 51.58 85.59 50.19 88.38 50.1 89.17 47.42"/><polygon class="cls-3" points="89.17 57.42 90.17 59.94 92.91 59.97 90.78 61.6 91.64 64.31 89.35 62.54 87.11 64.45 87.75 61.58 85.59 60.19 88.38 60.1 89.17 57.42"/><polygon class="cls-3" points="89.17 67.42 90.17 69.94 92.91 69.97 90.78 71.6 91.64 74.31 89.35 72.54 87.11 74.45 87.75 71.58 85.59 70.19 88.38 70.11 89.17 67.42"/><polygon class="cls-3" points="89.17 77.42 90.17 79.94 92.91 79.97 90.78 81.6 91.64 84.31 89.35 82.54 87.11 84.45 87.75 81.58 85.59 80.19 88.38 80.11 89.17 77.42"/><polygon class="cls-3" points="89.17 87.42 90.17 89.94 92.91 89.97 90.78 91.6 91.64 94.31 89.35 92.54 87.11 94.45 87.75 91.58 85.59 90.19 88.38 90.11 89.17 87.42"/><polygon class="cls-3" points="89.17 97.42 90.17 99.94 92.91 99.97 90.78 101.6 91.64 104.31 89.35 102.54 87.11 104.45 87.75 101.58 85.59 100.19 88.38 100.11 89.17 97.42"/><polygon class="cls-3" points="98.17 52.42 99.17 54.94 101.91 54.97 99.78 56.6 100.64 59.31 98.35 57.54 96.11 59.45 96.75 56.58 94.59 55.19 97.38 55.1 98.17 52.42"/><polygon class="cls-3" points="98.17 62.42 99.17 64.94 101.91 64.97 99.78 66.6 100.64 69.31 98.35 67.54 96.11 69.45 96.75 66.58 94.59 65.19 97.38 65.11 98.17 62.42"/><polygon class="cls-3" points="98.17 72.42 99.17 74.94 101.91 74.97 99.78 76.6 100.64 79.31 98.35 77.54 96.11 79.45 96.75 76.58 94.59 75.19 97.38 75.11 98.17 72.42"/><polygon class="cls-3" points="98.17 82.42 99.17 84.94 101.91 84.97 99.78 86.6 100.64 89.31 98.35 87.54 96.11 89.45 96.75 86.58 94.59 85.19 97.38 85.11 98.17 82.42"/><polygon class="cls-3" points="98.17 92.42 99.17 94.94 101.91 94.97 99.78 96.6 100.64 99.31 98.35 97.54 96.11 99.45 96.75 96.58 94.59 95.19 97.38 95.11 98.17 92.42"/><polygon class="cls-3" points="108.17 47.42 109.17 49.94 111.91 49.97 109.78 51.6 110.64 54.31 108.35 52.54 106.11 54.45 106.75 51.58 104.59 50.19 107.38 50.1 108.17 47.42"/><polygon class="cls-3" points="108.17 57.42 109.17 59.94 111.91 59.97 109.78 61.6 110.64 64.31 108.35 62.54 106.11 64.45 106.75 61.58 104.59 60.19 107.38 60.1 108.17 57.42"/><polygon class="cls-3" points="108.17 67.42 109.17 69.94 111.91 69.97 109.78 71.6 110.64 74.31 108.35 72.54 106.11 74.45 106.75 71.58 104.59 70.19 107.38 70.11 108.17 67.42"/><polygon class="cls-3" points="108.17 77.42 109.17 79.94 111.91 79.97 109.78 81.6 110.64 84.31 108.35 82.54 106.11 84.45 106.75 81.58 104.59 80.19 107.38 80.11 108.17 77.42"/><polygon class="cls-3" points="108.17 87.42 109.17 89.94 111.91 89.97 109.78 91.6 110.64 94.31 108.35 92.54 106.11 94.45 106.75 91.58 104.59 90.19 107.38 90.11 108.17 87.42"/><polygon class="cls-3" points="108.17 97.42 109.17 99.94 111.91 99.97 109.78 101.6 110.64 104.31 108.35 102.54 106.11 104.45 106.75 101.58 104.59 100.19 107.38 100.11 108.17 97.42"/><path class="cls-4" d="M9.37,44.16c63.21-.41,126.43-1,189.65-.66q10.2,0,20.41.18c1.62,0,13.18-.62,13.58.56,1,3.13.91,6.93,1.11,10.18.44,7.06.65,14.13.85,21.19.79,28.43,1.66,57.11.6,85.54.44-.24.88-.48,1.33-.71q-79,.92-158,1.56-22,.17-44,.24-7.65,0-15.29,0l-5.2,0c-1.58,0-1.41.68-1.48-.56-1.44-26.16-1.15-52.51-1.58-78.7Q11,63.2,10.7,43.45c0-.89-1.95-.5-1.94.21q.54,35,1.16,70.05c.24,13.6.47,27.2.82,40.79.07,2.75.07,5.52.28,8.26.1,1.26,5.89.68,6.89.68,61.45.34,122.94-.75,184.39-1.42l33.88-.37c.38,0,1.31-.17,1.33-.71,1.07-28.75.17-57.75-.63-86.49-.18-6.63-.41-13.27-.79-19.89-.2-3.53-.17-7.41-1.15-10.84-.63-2.17-7.4-1.13-9.16-1.16-6.53-.12-13.06-.18-19.59-.23-64.72-.48-129.44.15-194.15.61H10.09C9.3,43,8.07,44.17,9.37,44.16Z"/></svg>