<svg id="layer1" xmlns="http://www.w3.org/2000/svg" viewBox="0 0 318.35 369.64"><defs><style>.cls-1{fill:#bf8b58;}.cls-2{fill:#875527;}.cls-3{fill:#f7cb41;}.cls-4{fill:#492d0c;}</style></defs><path class="cls-1" d="M280.46,266c0-6.19-6.5-9.62-11.55-11.67-5.23-2.11-11.47-1.72-17-1.56l-1.92,0a14.19,14.19,0,0,0-6.05,0c-1.84,0-3.67-.13-5.48-.27a5.87,5.87,0,0,0-5.14-3.18c-.8,0-1.59-.11-2.38-.17a33.14,33.14,0,0,1-11.18-3.37,6,6,0,0,0-6.09.3,6.23,6.23,0,0,0-1.35-.1c-4.59-1.18-9.13-2.6-13.62-4.17l-.25-.22c-10-9.09-18.15-20.4-26.21-31.14a7.53,7.53,0,0,0-1.46-1.47c-2.27-5.67-4.51-11.35-6.64-17.08a6.74,6.74,0,0,0-2.48-3.31,231.61,231.61,0,0,1-3.2-31.44c-.47-9.76-2.2-19.43-3.42-29.13a5.44,5.44,0,0,0,.59-2.57,124.12,124.12,0,0,0-1.24-14.79c-.07-8.08.63-16.24.63-24.24a30.71,30.71,0,0,0-.88-7.49,28.32,28.32,0,0,0-1-6.63c-1.41-4.92-4.51-8.09-8.18-10.73a6.15,6.15,0,0,0-1.19-.84c-2.52-1.69-5.22-3.22-7.8-4.93-.56-.41-1.13-.8-1.73-1.18a5.41,5.41,0,0,0-4.92-.73l-.29-.13,0,0h0c-.47-.21-1-.43-1.45-.61a5,5,0,0,0-5.35.83,5,5,0,0,0-3.68-.07,13.17,13.17,0,0,0-.58-1.49,1.36,1.36,0,0,1,0-.17,5.22,5.22,0,0,0-2.34-3.39c-3.52-3.73-9-5-14.79-3.58a6.19,6.19,0,0,0-4.55,5.88q-2.52.73-5,1.57C84.63,55,77.59,57.47,71.79,61.3,62.92,67.16,57.36,75.62,57.7,86.45a70.61,70.61,0,0,0,2.62,15c1.63,6.38,2.93,12.83,4.26,19.28,2.28,11.12,4.73,22.2,8.79,32.78a85.31,85.31,0,0,0-.11,13.38c-.16,9.13-.26,18.27.1,27.42.35,8.83.94,17.84,2.92,26.48.18.81.4,1.66.66,2.53A5.74,5.74,0,0,0,75.48,226c-3.93,15.91,2,32.88,15.94,41.86a5.57,5.57,0,0,0,5.93,0c2.12,1.42,5.13.95,7.15-.63,2.71,2.32,6.82,1.55,9.08-1.37a5.69,5.69,0,0,0,7.09,1.12c2.13,2.22,6,2.11,8.36.19a25.64,25.64,0,0,0,19.47,4.13c4.72,1.75,9.49,3.41,14.3,4.86a34.63,34.63,0,0,0,8.15,4.78,72.86,72.86,0,0,0,18.31,6.79,22.12,22.12,0,0,0,3.93,4.43c6.08,5.23,14.14,6,21.77,4.93,8.2-1.13,16.09-4.08,23.64-7.79l1.07-.24c14.28,1.57,27.81-7.68,38.14-17a5.44,5.44,0,0,0,1.72-2.85A6,6,0,0,0,280.46,266ZM87.85,202.16a.49.49,0,0,1,0,.12,7.33,7.33,0,0,0-.38,1.69c-.21,2-.41,4.12-.65,6.18-.37-2.73-.63-5.52-.81-8.34A7,7,0,0,0,87.85,202.16ZM79.41,71s0,0,0,.06a7.93,7.93,0,0,0-1.33,1,.5.5,0,0,0-.07.08l-.29,0c.44-.31.88-.63,1.35-.94Z"/><path class="cls-2" d="M134.7,270.32a50.23,50.23,0,0,0-5.08.53l-.45-.07a5.14,5.14,0,0,0-3.37-2c-5.85-1-11.82-.69-17.71-.93a52.13,52.13,0,0,0-9.18-1,5.54,5.54,0,0,0-3.47,1.07l-1.22-.47a5.74,5.74,0,0,0-1-.65L88,264.16c-7.11-3.56-12.74,6.24-6.15,10.64.64.43,1.29.83,2,1.22.21.18.43.36.67.53a8.8,8.8,0,0,0,2.38,1.18l.16.09a6.21,6.21,0,0,0,2.7,5.71c4.18,3,8.94,4.82,13.67,6.72a4.9,4.9,0,0,0,2,.36,18.19,18.19,0,0,0,2.76.91c5.92,2.85,11.77,1.65,17.44-.93a4.59,4.59,0,0,0,1.75-.24c4.69-1.79,7.93-4.09,9.7-8.25C142.44,279.77,141.72,270.12,134.7,270.32Z"/><path class="cls-2" d="M274.27,276c-9.65,2.88-18.83,7.15-28.14,11a14.62,14.62,0,0,0-9.61,3.14c-8.8,1-17.48,2.94-26.36,3.28-6.83.26-13.15-1.78-19.53-3.64l-.33-.3a2.47,2.47,0,0,0-2.21-.43l-.8-.21a29.48,29.48,0,0,0-5.89-1.45c-7.84-3.83-15.34-8.51-23.74-11-4-2.46-8.14-4.69-13.28-4.88-2.5-.08-2.8,2.71-.25,2.8a21.08,21.08,0,0,1,9.42,2.94c-.08.4.16.82.91,1.14,1.85.79,3.62,1.72,5.38,2.66a35.44,35.44,0,0,0,7.32,3.64,2.4,2.4,0,0,0,2-.32c2.74,1.4,5.44,2.85,8.17,4.26,0,.62.6,1.25,1.76,1.39.5.06,1,.14,1.49.22a64.93,64.93,0,0,0,10.72,4.19c11.37,7.48,26.48,5.22,39.12,1.61,2.57-.74,5.11-1.59,7.62-2.49,14.11.12,27.13-7.58,38.55-15.15C278.56,277.12,275.71,275.6,274.27,276Zm-24.16,12.74c3.45-1.46,6.89-2.95,10.34-4.4a63.09,63.09,0,0,1-10.34,4.45Zm-50.57,6.38a41.66,41.66,0,0,0,10,1.17h.05a1.22,1.22,0,0,0,.14.39A32.26,32.26,0,0,1,199.54,295.16Z"/><path class="cls-2" d="M121.27,145.84c-.2-1.38-3.11-3.46-3.11-1.08v.84c0-2.44-1.4-4.88-2.14-7.31-.25-13.14-1.59-26.2-7.08-38.34a3.64,3.64,0,0,0-1.64-1.55c-.42-1.73-3.17-2.84-3-.31A92.62,92.62,0,0,0,107,113.17a165.13,165.13,0,0,0,5.14,21.22,72,72,0,0,1,1,7.35,2.82,2.82,0,0,0,1.81,2.07c1.23,4.2.29,8.42,3.29,12.68V171c0,5-1.87,9.94-2.76,14.92a17.12,17.12,0,0,0-1.53,7.78c0,1.67,3.1,4,3.11,1.53,0-.85,0-1.65.12-2.43.37-.06.67-.37.76-1.06.17-1.48.71-2.89.88-4.37a1.68,1.68,0,0,0-.08-.54c.39-2.16.23-4.31.66-6.47.74.41.84.33.84-.84V163.09c3,.07,1.45-.19,1.44-1.08C121.6,156.59,122.08,151.21,121.27,145.84ZM109.4,109.05a81.81,81.81,0,0,1,2.49,12c-.67-2.53-1.34-5.06-2-7.6C109.71,112,109.54,110.52,109.4,109.05Z"/><path class="cls-3" d="M140.63,227.16a11.42,11.42,0,0,0-2.82-8.5,15,15,0,0,0-13.62-6.7,11.69,11.69,0,0,0-6.57,2.7,13.78,13.78,0,0,0-6.83,4.23,1.57,1.57,0,0,0-2.15.42,17.06,17.06,0,0,0-2.62,5.57c-.47,0-.94-.08-1.41-.1-3.58-.29-7.16-.5-10.74-.83-3.65-.52-7.3-1.12-11-1.55a2.84,2.84,0,0,0-2.46,1.85,3.12,3.12,0,0,0-1.31,1l-4.52-1A2.88,2.88,0,0,0,72,225.42a12.73,12.73,0,0,0-1.73.47l-.37.15c-1.23-.5-2.47-1-3.71-1.43.61-.32,1-.77.32-1.29a14.18,14.18,0,0,0-18.42.51c-.05-.1-.09-.21-.14-.32-.24-2.82-.28-5.64-.28-8.49,0-1.24-4-.74-4,.69-.07,1.84-.35,3.66-.57,5.49l-.11.09-.23.23a13.18,13.18,0,0,0-6.24-2.71c-.66-.12-4.67.64-3,1.69a40.92,40.92,0,0,0,6.32,3.15c-.57.42-.88,1,.14,1.35l.26.09c-.59.25-1,.63-1,1.09a6.13,6.13,0,0,0,3.85,4.8,3.6,3.6,0,0,0,1.39.21c.3.44.63.88,1,1.34.63.81,3.73.51,3.89-.66a12.76,12.76,0,0,0-.18-4.73c2.66-4.31,6.88-5.82,11.17-4-1.1.3-2.92,1.34-1.2,1.83a111.85,111.85,0,0,1,12.68,4.78A26.14,26.14,0,0,0,77.68,233c-.06.36.21.58.67.74,8.79,3.21,18.8,5.06,27.81,1.79a16.9,16.9,0,0,0,2.65,5.34c3.64,4.83,10.34,6.68,16.09,7s11.91-1.95,14.35-7.58a9.8,9.8,0,0,0,.79-4.84c.18-.37.34-.75.49-1.14A10.59,10.59,0,0,0,140.63,227.16ZM100.87,235a.92.92,0,0,0-.35-.32l-.32-.19a2.29,2.29,0,0,0,.39-.65c.66.25,1.32.51,2,.79C102,234.76,101.44,234.88,100.87,235Zm.43-3.57,1.29-.4a26,26,0,0,0,2.79-.11c0,.68.09,1.36.19,2A38.15,38.15,0,0,0,101.3,231.41Zm11.3,8.39a10,10,0,0,1-3.2-5.58,19.12,19.12,0,0,0,2.36,3.65,16.61,16.61,0,0,0,1,2.07Zm5-11.21a12.6,12.6,0,0,0,1.84,3.3A7.68,7.68,0,0,1,117.64,228.59Zm14.65,2.48a5.56,5.56,0,0,1-1.06.78c0-.15,0-.3,0-.46a13.47,13.47,0,0,0,.37-3.47,8,8,0,0,1,1.55,2.19A5.52,5.52,0,0,1,132.29,231.07Z"/><path class="cls-4" d="M60.51,110.22c3.59,17.67,8.68,34.95,11.55,52.76a129.84,129.84,0,0,1,1.21,19.61c.06,6.18-1.47,11.91-1.81,18A5.29,5.29,0,0,0,73,204c2,2.47,3.13,2.17.35,5.44-1.15,1.37-.77,4.74-.51,6.34.28,1.75,3.11,4.3.82,5.44-.57.29-.4.83.18.83h2.74c.62,0,2.09-1.09.8-1.09s-2.26.45-.73-.31c.09,0,.5-.33.38-.5a24.77,24.77,0,0,1-2.26-4.87c-1.23-3.35,1-5,2.12-7.51s-2.57-4.54-3.39-6.74.64-6.21,1.12-8.58a41.82,41.82,0,0,0,.58-8.66,168.88,168.88,0,0,0-1-19.61c-2.18-18.48-8.1-36.33-11.8-54.51-.11-.55-2-.07-1.93.51Z"/><path class="cls-4" d="M73.29,222.37c-2.48,8.32-3.91,17.11-2.26,25.73,1.84,9.63,9.8,14.82,18.73,17.32,9.79,2.74,20.86,1.77,30.92,2.39,11.33.7,22.46,2.43,33.09,6.54,9.8,3.8,18.47,9.91,27.84,14.59,7.19,3.59,14.8,4.35,22.71,4.2,14.37-.28,30.5-1.35,44.15-6.15,1.29-.45.09-1-.73-.67-13.41,4.72-29.49,5.58-43.59,5.86A48.14,48.14,0,0,1,179.26,286c-8.85-4.83-17.34-10.16-26.84-13.64-18-6.58-37-4.82-55.63-6.84-10.43-1.13-20.44-6.15-23.53-16.7-2.51-8.6-.54-18.39,1.95-26.75.18-.59-1.74-.32-1.92.27Z"/><path class="cls-4" d="M72.37,254.44c-.43,10.93,5.46,20,11.31,28.77,2.1,3.15,4.42,8.25,8.17,9.86,3,1.27,6.26.86,9.39.84,10.2-.07,21.35,2.65,31.26-.8,8.07-2.8,8.37-13.9,16.71-16.62,1.11-.36.92-1.17-.22-.8-5.59,1.82-8.21,6-11.19,10.78-3.25,5.26-7.5,6.86-13.67,7.24-5.7.34-11.43-.37-17.12-.62-4.08-.18-8.9.61-12.85-.55s-6.51-6.81-8.68-10c-5.81-8.69-11.6-17.73-11.18-28.58,0-.46-1.9-.16-1.93.52Z"/><path class="cls-4" d="M139.86,270.3c4.8-.46,8.87,2.63,13,4.46,3.37,1.48,6.77,2.87,10.14,4.36q10.65,4.71,20.9,10.25c.62.34,2.38-.54,1.52-1-7.91-4.28-16-8.13-24.23-11.72-4.34-1.89-8.65-3.73-12.89-5.85a14.78,14.78,0,0,0-8.26-1.7c-1,.09-1.55,1.33-.22,1.2Z"/><path class="cls-4" d="M147.56,275.58c14.6.55,23.58,15.32,37.29,18.69,16.55,4.06,34.4.5,51.16,0,8.7-.24,18.08-5.12,25.71-8.82,8.87-4.31,19.2-9.78,24.78-18.24.15-.23-1.59-.14-1.91.33-5.85,8.86-17,14.33-26.28,18.73a107.24,107.24,0,0,1-15.36,6c-5.23,1.55-10.52,1.26-15.93,1.57-16.08.91-34.72,4.53-49.36-4-9.31-5.45-17.41-14.6-28.85-15-.42,0-2.22.77-1.25.81Z"/><path class="cls-4" d="M250.87,286.55c6.44-1.78,12.68-5.29,18.53-8.43,5.09-2.73,14.12-6.83,16.07-12.9.22-.68-1.72-.42-1.93.24-1.91,6-11.28,9.91-16.33,12.61s-10.87,5.92-16.6,7.51c-1.15.32-.89,1.3.26,1Z"/><path class="cls-4" d="M216.26,246.5c8.09-.4,13,2.87,19.81,6.44,5,2.61,9.25,2.89,14.74,2.44,7-.58,13.26-1.47,20.17-.16,5.82,1.1,7.7,4.42,11.59,8.41.46.47,2.29-.24,1.79-.75-2.83-2.9-4.95-6.74-9.06-7.92a45.36,45.36,0,0,0-17.92-1.27c-3.54.36-7.07.81-10.64.9-4.1.09-7.75-1.77-11.25-3.72-6.27-3.49-11.09-5.8-18.47-5.44-.68,0-2.05,1.13-.76,1.07Z"/><path class="cls-4" d="M216.07,245.94c-6.37-.23-11.38-3.36-16.54-6.79-4.24-2.81-10.33-5.39-13.23-9.61-2.44-3.55-5.85-6.08-7-10.29-.81-3-2.08-6.19-5-7.55,0,0-1.15-3.17-1.66-4-.6-1-2.21-2.49-1.6-3.66s-.63-4-1.15-5.15a3.8,3.8,0,0,0-3-2.17c-1.09-.19-2.24-6-2.55-7.06a91.26,91.26,0,0,1-2.13-9.54c-2-11.13-2.19-22.65-3.1-33.91-.46-5.71-4.08-9.64.28-14.9.9-1.1,1-2.18-.62-2.34-4-.38-.26-2.16.49-4.36.29-.87-.8-2.34-1.11-3.09a41.32,41.32,0,0,1-2.37-8.73c-.74-4.34,0-9.23.49-13.56a87.28,87.28,0,0,1,3.58-17.53c.27-.85-1.7-.61-1.95.17-4.26,13.41-6.73,29.48-.6,42.65.47,1-5.13,4.92-2.14,5.87a5.3,5.3,0,0,0,2.1,0c1.83-.19-.6,1.76-1.09,2.4-1.34,1.76-1.26,4.24-1,6.32a37.3,37.3,0,0,0,1.72,6.09,35.82,35.82,0,0,1,.77,6.62c.39,4.43.65,8.86.95,13.29a129.11,129.11,0,0,0,3.83,25c.42,1.53,1.14,6.69,2.59,7.51s2.43.52,3.34,2.55c.82,1.82.16,3.54.67,5.24.57,1.85,4.13,4.58,2.94,6.61-.25.43.22.7.58.75,3.12.46,4.14,4.47,4.89,6.91.27.86.36,3.37,1.09,3.91,3.59,2.65,5.11,6.78,8.48,9.45,4.54,3.6,10.28,6.71,15.25,9.76,4.24,2.59,8.18,4.19,13.18,4.37.89,0,2-1.28.69-1.32Z"/><path class="cls-4" d="M62.44,109.71c-3.49-7.38-4.9-15.27-5.82-23.33-.41-3.6-1-6.93.63-10.29A26.31,26.31,0,0,1,62,69.88a56.62,56.62,0,0,1,15-10.79c4.61-2.4,11-5.24,16.27-3.6.78.25,2.28-.89,1.13-1.25C83.82,51,70.38,60.47,63,66.87c-3.93,3.41-7.94,7.79-9,13.06-.77,3.94,1,9.9,1.59,13.86a59.23,59.23,0,0,0,4.91,16.43c.38.81,2.29.24,1.93-.51Z"/><path class="cls-4" d="M98,84.89c-4-5-1.36-14.5-2.11-20.59-1.1-8.8-3.07-18.44,8.45-20.23,3.62-.57,7.9-.72,11.09,1.35,2.89,1.88,3.17,6,3.2,9.11,0,4.28-.79,8.54-1,12.81-.27,6.33.07,12.64-.53,19-.09,1,1.88.77,2-.13.71-7.57.23-15.17.73-22.75.31-4.67,1.23-9.2.32-13.87-1.57-8-10.81-7.7-17.09-6.72-8.38,1.3-10.58,7.63-10,15.27.43,5.23,1.2,10.17,1.08,15.44-.09,3.83-.48,9,2,12.21.56.72,2.4-.06,1.76-.86Z"/><path class="cls-4" d="M104,93.05c.56,0,2.11-.85.82-.85-.56,0-2.11.85-.82.85Z"/><path class="cls-4" d="M97,86.49c.35,2.11,2.85,4.09,4.22,5.55,2.3,2.43,4.75,4.75,6.81,7.4.5.63,1.69.19,1.87-.5,1-3.69,2.38-8.17,6.5-9.31,1.19-.32.83-1.65-.36-1.32-5,1.38-6.9,6.16-8.1,10.78l1.86-.5a87.76,87.76,0,0,0-6.19-6.75C102.22,90.37,99.31,88.11,99,86c-.15-.89-2.09-.4-1.93.52Z"/><path class="cls-4" d="M122.27,54c17.89.21,33.31,9.29,35.6,28.1.08.72,2,.27,1.93-.52C157.45,62.19,141.27,53,123,52.78c-.78,0-2,1.17-.72,1.19Z"/><path class="cls-4" d="M123.93,211.7c-10.93.43-20.5,9.65-19.13,21,1.27,10.55,13.58,16.6,23.19,15.48,9.43-1.1,17.11-7.19,17.69-17.1.79-13.46-10.8-20.11-22.9-18.42-.88.13-1.65,1.14-.3,1,11.18-1.56,20,4.23,21.21,15.58,1,9.25-5.56,16.51-14.46,17.93A20.78,20.78,0,0,1,108.38,237c-6.25-10.54,3.54-23.86,14.77-24.29.64,0,2.08-1,.78-1Z"/><path class="cls-4" d="M119.73,217.06c-8,2.21-10.47,10.14-7.88,17.52,2.84,8.07,12.3,10.92,19.93,8.1,8.66-3.21,12.35-13.23,6.54-20.86-4.53-6-14.93-9.37-20.14-2.57-.74,1,1.1,1.13,1.6.49,5.16-6.73,14.5-.77,18,4.65,5,7.83-1.69,16.68-9.67,17.85-6.87,1-12.41-2.76-14.64-9.09-2.09-6,.13-13.08,6.59-14.87,1.18-.33.86-1.54-.32-1.22Z"/><path class="cls-4" d="M120.75,222.49c.15,3.83,1.76,7.31,2.74,11,.17.64,1.93.21,1.93-.38a39.57,39.57,0,0,0-.34-6,11.86,11.86,0,0,0-1.13-3.42c-.14-.24-.28-.49-.43-.73-.74-1.22,0-1.79,1.59-2-.27-.14,0-.28-1-.42v10.95a14.69,14.69,0,0,0,2-.5c-2.11-2.41-6.6-12.12-10.63-6.45-3.2,4.5,5.85,10.91,9.69,7.91.87-.68-1-.71-1.54-.33-1,.78-4.67-2.22-5.28-2.77a5.66,5.66,0,0,1-1.59-2.44c-.24-.73.37-3.18,1.44-2.78,3.06,1.12,4.17,5.36,6.15,7.62.35.4,1.78.11,1.78-.5v-11c0-.43-.41-.47-.75-.42a8.6,8.6,0,0,0-4.51,2.2.36.36,0,0,0-.1.54c2.64,2.93,2.67,7,2.68,10.7l1.94-.38c-1-3.65-2.59-7.13-2.74-11,0-.64-2-.24-1.93.51Z"/><path class="cls-4" d="M123.63,233.09h-7.3c-.55,0-1.28.67-1,1.26a57.76,57.76,0,0,1,3.57,7.23.94.94,0,0,0,1.14.42,5.91,5.91,0,0,0,3.7-3c.81-1.51.91-3.26,1.61-4.79.46-1-1.49-.94-1.84-.19-1,2.28-.92,5.91-3.81,6.76l1.14.38c-.94-2.64-2.46-4.82-3.73-7.31-.33.37-.66.26-1,1.26h7.3c1.08,0,1.5-2,.18-2Z"/><path class="cls-4" d="M126.29,230.54l5.47-8.21-1.26.58c2.05.38,4,1.08,3,3.36a4.08,4.08,0,0,1-2.62,2.35c-1.77.45-3.67.39-5.24,1.42a.57.57,0,0,0,.29,1.08,19.41,19.41,0,0,1,5.7,1c1.68.56,5.24,2.53,1.23,3.21-3.12.52-5.89-1.66-5.61-4.77,0-.5-.51-.43-.89-.43h-1.82c-.36,0-1.06.15-1.07.6-.08,3.92-.79,8,1.91,11.21a1.12,1.12,0,0,0,1.31.07,13.33,13.33,0,0,0,5.06-5c.53-.91-1.43-.89-1.84-.19a10.35,10.35,0,0,1-4.06,4.11l1.31.12c-2.54-3-1.81-7-1.74-10.64-.36.25-.71.74-1.07.74h1.82c-.29,0-.58-.38-.88-.58-.56,6.35,8.17,8,11.82,3.84a.5.5,0,0,0-.05-.79,15.45,15.45,0,0,0-10.45-3.78c.1.36.2.72.29,1.08,1.53-1,4.05-.8,5.8-1.45,1-.38,1.75-1.61,2.34-2.46,2.3-3.28-1.05-4.86-3.86-5.39a1.35,1.35,0,0,0-1.27.58l-5.47,8.22c-.58.86,1.4.84,1.84.18Z"/><path class="cls-4" d="M172.88,211.94c-3.74-15.27-27.25-5.9-34.62,1.11a.62.62,0,0,0,.45,1h1.82c.84,0,2-1.45.71-1.45-1.74,0,0-.5,1.06-1.24a30.86,30.86,0,0,1,4-2.44,38,38,0,0,1,8.91-3.19c6.38-1.49,13.9-.61,15.69,6.69.2.81,2.13.29,1.93-.52Z"/><path class="cls-4" d="M102.68,227.52c-9.56,8.13-27.26,7-31.11-6.46-.2-.68-1.91-.26-1.94.37-.54,11.26,7.72,14,17.34,15.74,4.42.78,16.09,2.16,15.63-5.15,0-.72-1.81-.2-1.93.36-1.31,6.12-5.73,9.66-12.1,9.66-3.72,0-6.46-2.85-8.57-5.55-3.2-4.08-5.52-8.85-10.46-11.09-.54-.24-1.76,0-1.73.74.64,16.69,30,18,40.82,11.93,1.14-.64-.55-1-1.21-.64-10.26,5.74-37.09,3.47-37.68-11.8l-1.73.74c7.36,3.34,8.94,13.89,16.77,16.26a14,14,0,0,0,17.82-10.47l-1.93.37c.45,7.22-14.89,3.2-18.55,2.3-7.23-1.77-10.91-6.09-10.55-13.62l-1.93.37c4.29,15,24.35,15,34.6,6.32.87-.74-1-.81-1.56-.38Z"/><path class="cls-4" d="M142.58,217l4.56-4.56c.82-.82-1.07-.88-1.56-.39L141,216.56c-.82.82,1.08.88,1.57.39Z"/><path class="cls-4" d="M150.84,211.07c1.51-.08,2.62-1.24,3.63-2.25a.56.56,0,0,0-.25-.93,1.37,1.37,0,0,0-1.37.37c-.45.46-1.14,1.37-1.84,1.41-.42,0-1,.3-1.06.77s.51.65.89.63Z"/><path class="cls-4" d="M157.22,210.09H160c.42,0,1-.13,1.07-.58s-.52-.42-.89-.42H157.4c-.41,0-1,.12-1.06.57s.52.43.88.43Z"/><path class="cls-4" d="M164.63,209.85c1.11,1.06,2.55,1.68,3.65,2.74.54.5,2.36-.24,1.79-.79-1.1-1.05-2.54-1.68-3.65-2.73-.53-.51-2.36.23-1.79.78Z"/><path class="cls-4" d="M70.46,224.5c-6.88-4.83-13.22-6.86-21.24-3.58-1.24.51-.1,1.16.77.81,7.29-3,12.93-.5,18.93,3.72.52.36,2.31-.4,1.54-.95Z"/><path class="cls-4" d="M52.69,223.4l.09.08c-.11.35-.23.7-.34,1.05a10.12,10.12,0,0,1,8.7.72c3.27,2.09,5,6.49,7.66,9.26.57.6,2.4-.16,1.78-.82-3.09-3.24-5.14-8.67-9.54-10.41a13.5,13.5,0,0,0-9.43.21c-.43.17-.8.7-.33,1a1.19,1.19,0,0,0,.72.18c.88,0,2-1.25.69-1.32Z"/><path class="cls-4" d="M49.66,221.06c-1.58-4.05.61-9.84-5.17-10.4-.38,0-1.33.19-1.33.72v8.21c0-.24.88-.48,1.33-.72-5.15-.09-10.14-.68-15.12,1-.35.11-1.27.7-.6,1.08a19.72,19.72,0,0,0,6.38,2.19c3.45.68-1.09,6-2,8.19-.22.55.35.72.8.68a16.25,16.25,0,0,0,8-3l-1.59-.27a34.15,34.15,0,0,0,.92,9.29c.19.67,1.46.35,1.76,0A46.08,46.08,0,0,0,46,233.8c2-3.31,4.69-1.83,7.44-.1.49.31,2.17-.17,1.64-.92-1.07-1.51-4.79-5.47-2.09-7.44,1.06-.78-.56-1.23-1.24-.73-3.77,2.75-.53,6,1.55,9l1.65-.92c-1.88-1.18-5.11-3.52-7.57-2.3-2.79,1.37-4,4.82-5.85,7.16l1.76,0a32.46,32.46,0,0,1-.9-9c0-.79-1.18-.53-1.6-.27a11.25,11.25,0,0,1-6.57,2.48l.8.69a45,45,0,0,1,4.57-8.22c.19-.28,0-.58-.34-.65-3.09-.7-6.16-1.06-8.95-2.66l-.6,1.08c4.63-1.52,9.35-.94,14.12-.86.38,0,1.36-.17,1.36-.72v-8.22c0,.24-.92.49-1.36.73,4.33.42,2.87,6.92,3.94,9.67.31.78,2.21.22,1.92-.52Z"/><path class="cls-4" d="M77,220.75c5.4,3.26,13,3.61,19.09,3.69,4.41.06,10.2-.12,13.74-3.18.44-.38-1.4-.19-1.76.12-3.93,3.4-11.87,2.35-16.63,1.93-4.15-.38-9-1-12.62-3.24-.49-.29-2.12.49-1.82.68Z"/><path class="cls-4" d="M79.82,224.09h-.37c-1.09,0-1.49,2-.18,2H84.2c1.09,0,1.5-2,.18-2H79.45c-1.09,0-1.49,2-.18,2h.37c1.09,0,1.49-2,.18-2Z"/><path class="cls-4" d="M86,227.09h3.65c1.11,0,1.48-2,.17-2H86.2c-1.1,0-1.48,2-.17,2Z"/><path class="cls-4" d="M96.72,227.84c1.58-.81,3-1.92,4.56-2.74.15-.07.67-.4.24-.5a2.12,2.12,0,0,0-1.35.25c-1.59.81-3,1.92-4.57,2.73-.15.08-.67.4-.24.51a2.31,2.31,0,0,0,1.36-.25Z"/><path class="cls-4" d="M90.83,262.86c3.57,1.24,7.9-3.06,10.32-5.07,4.67-3.88,8.86-8.28,13.13-12.58.79-.8-1.11-.77-1.55-.31-2.7,2.71-5.36,5.44-8.12,8.07q-2.77,2.64-5.71,5.09c-1.13.94-4.8,4.47-6.54,3.87-.58-.21-2.33.66-1.53.93Z"/><path class="cls-4" d="M98.81,264c3.21-.08,5.46-2.23,6.49-5.15.36-1.05-1.57-1-1.85-.21-.74,2.13-2,3.92-4.46,4-1.09,0-1.5,1.42-.18,1.38Z"/><path class="cls-4" d="M108.92,256.94a17.76,17.76,0,0,1,3.53-4.43c.8-.8-1.11-.75-1.55-.31a19.39,19.39,0,0,0-3.77,4.7c-.42.82,1.51.59,1.79,0Z"/><path class="cls-4" d="M114.47,250.27c0-1.88,1.41-3.09,2.65-4.34.33-.33-.28-.42-.48-.41a2,2,0,0,0-1.28.49c-1.4,1.39-2.78,2.7-2.83,4.78,0,.41,1.92.12,1.94-.52Z"/><path class="cls-4" d="M108,100.18c2.34,9.8,3.55,19.85,6,29.63,2.46,10,6.8,19.34,7.74,29.7,1,10.51-1.75,21.72-4.31,31.84C115.66,198,114,205.94,119,211.61c.32.37,2.12-.31,1.82-.66-5.86-6.62-2.46-16.32-.54-23.87A116.52,116.52,0,0,0,123.59,159c.07-9.46-4.72-19.11-7.29-28-2.94-10.23-3.93-21-6.4-31.29-.1-.44-2,.06-1.93.51Z"/><path class="cls-4" d="M108,98.19a28.54,28.54,0,0,0,1.84,8.38c.27.83,2.2.29,1.93-.52a27.85,27.85,0,0,1-1.82-8c0-1-2-.62-2,.18Z"/><path class="cls-4" d="M111.62,110.22a12.62,12.62,0,0,0,.91,5.48c.23.48,2.09-.19,1.94-.52a12.61,12.61,0,0,1-.92-5.47c0-.32-1.93,0-1.93.51Z"/><path class="cls-4" d="M115.27,118.44v.91c0,.41,1.94.1,1.94-.51v-.92c0-.41-1.94-.1-1.94.52Z"/><path class="cls-4" d="M117.09,123.76c0,1.42,0,2.85,1,3.95.52.55,2.36-.19,1.78-.8-.89-.93-.83-2.14-.83-3.35,0-.91-2-.54-2,.2Z"/><path class="cls-4" d="M118.91,130.13a8.42,8.42,0,0,0,.93,3.83c.39.81,2.3.23,1.93-.52a7.72,7.72,0,0,1-.9-3.47c0-1-2-.67-2,.16Z"/><path class="cls-4" d="M122.16,139.28V142c0,.9,1,.53,1-.2v-2.74c0-.89-1-.52-1,.21Z"/><path class="cls-4" d="M124.39,147.47c0,1.58.87,3,.91,4.56,0,1,2,.69,2-.15-.05-1.59-.87-3-.92-4.57,0-1-2-.69-2,.16Z"/><path class="cls-4" d="M127.16,156.63v3.66c0,.81,2,.39,2-.24v-3.66c0-.81-2-.39-2,.24Z"/><path class="cls-4" d="M127.31,164.51c-1.18,1.33-1.09,3.21-1.09,4.88,0,.92,1.94.55,1.94-.19,0-1.3-.2-3.21.74-4.25.78-.88-1.09-1-1.59-.44Z"/><path class="cls-4" d="M125.3,173.93a9.35,9.35,0,0,1-.86,4.39c-.47,1,1.48,1,1.85.21a10.26,10.26,0,0,0,1-4.75c0-1-2-.7-2,.15Z"/><path class="cls-4" d="M123.58,184.88a3.88,3.88,0,0,0-1,2.93c0,.32,1.93,0,1.93-.52a3.37,3.37,0,0,1,.82-2.55c.3-.31-.26-.33-.46-.32a2.27,2.27,0,0,0-1.29.46Z"/><path class="cls-4" d="M122.16,193.12v3.65c0,.95,2,.61,2-.18v-3.65c0-.95-2-.61-2,.18Z"/><path class="cls-4" d="M123.49,202.41c0,2.19,0,4.38.91,6.39.31.66,2.19,0,1.93-.52-1-2-.91-4.2-.91-6.38,0-.58-1.93-.22-1.93.51Z"/><path class="cls-4" d="M111.62,100.93v.91c0,.93,1.94.58,1.94-.19v-.91c0-.93-1.94-.57-1.94.19Z"/><path class="cls-4" d="M98.9,82c1,1.1,1.68,2.54,2.74,3.65.34.36,2.11-.35,1.82-.66-1.06-1.1-1.68-2.54-2.74-3.65-.34-.36-2.12.35-1.82.66Z"/><path class="cls-4" d="M104.32,89.23v.91c0,.44,1.93.13,1.93-.51v-.92c0-.44-1.93-.12-1.93.52Z"/><path class="cls-4" d="M104.4,89.4l2.74,2.74c.48.48,1.81.33,1.86-.5.07-1,.85-1.74.92-2.74s-1.9-.75-2,.14-.85,1.74-.92,2.74l1.87-.5-2.74-2.74a1.13,1.13,0,0,0-1.31-.15c-.3.15-.81.66-.46,1Z"/><path class="cls-4" d="M113.09,85.74a2.43,2.43,0,0,0,2.08-1.15,9,9,0,0,1,1-2.06c.31-.33-.26-.38-.46-.36a2,2,0,0,0-1.29.47,4.43,4.43,0,0,0-.84,1.44c-.1.24-.19.48-.3.72-.29.63-.44.18.6.1a2.09,2.09,0,0,0-1.29.48c-.31.31.27.37.47.36Z"/><path class="cls-4" d="M87.8,178.87c-4.24-2.39-.06-9.41,2.21-11.74,3.17-3.26,7.41-5.52,11.23-7.92,7.06-4.44,10.74-9.87,11.4-18.34l-1.93.39c.05,5.92,1,12.19-1.71,17.69-2.4,4.89-7.8,6.38-12.51,8-5.08,1.71-12.24,4.26-11.34,10.85l1.93-.52c-1.82-4.26-2.94-8.39-1.47-12.94,1.42-4.37,5.36-7.69,8-11.29,5.12-7,4.45-16,4.42-24.14l-1.93.51c2.79,9.25,7.36,18.7-.91,26.56-5.16,4.91-10.9,7.52-11.87,15.3l1.93-.39c-.28-3.42-1.45-6.4-.91-9.9.45-3,2.39-4.7,4-7.09,2.14-3.13-.67-6.48-3.39-7.78a20.45,20.45,0,0,0-5.88-1.35c-1.29-.19-2.59-.31-3.88-.45-2.69-.3,5.29-2,6.6-1.79,9.38,1.59,3.73,12.18,3.32,17.79-.05.77,1.89.38,1.93-.25.46-6.36,5.46-13.59-1.83-17.79-4-2.3-9.67-.94-12.68,2.25-.25.26-.27.61.17.67,4.65.54,18.77,1.48,13.21,9.61-1.56,2.27-3.18,3.57-3.53,6.43-.44,3.55.63,6.66.91,10.17,0,.62,1.86.17,1.93-.38C86.34,162.33,94,159.81,99,153.82c6.23-7.43,1.4-17-1-24.94-.21-.69-1.94-.15-1.93.51,0,10.6-.11,19-7.36,27.39-5.8,6.73-7.14,12.7-3.6,21,.27.63,2,.17,1.93-.52-1.2-8.78,12.75-9.49,18.29-12.79,8.72-5.19,7.35-15,7.27-23.72,0-.58-1.88-.2-1.93.38-.45,5.78-2.1,10.68-6.53,14.6-3.35,2.95-7.55,4.85-11.14,7.46s-14,12.53-6.78,16.61c.54.31,2.32-.48,1.54-.92Z"/><path class="cls-4" d="M86,178.86c4.53-.9,8.09,1.81,7.51,6.43a14.7,14.7,0,0,0,.14,5.53c.86,4.22,4.65,6,8,8l1.69-.76c-10.5-3.12.73-12.08-1-18.62-1.28-4.94-10.52-3.44-14-3.33-.59,0-2.09,1-.8.91,5.33-.16,15.61-1,12.59,7.41-2,5.66-6.74,12,1.64,14.46.35.1,2.16-.48,1.68-.77-2.25-1.33-4.59-2.49-6.35-4.47-2.4-2.7-2-6.6-1.57-9.83.66-5.22-5.43-6.62-9.25-5.86-.83.16-1.66,1.13-.32.87Z"/><path class="cls-4" d="M86,178.11c-9.23,2.69-6.14,16.78-3.63,23.39l1.94-.52c-2.8-6.84-4.49-16.69,2.51-21.61.8-.56-1.14-.32-1.48-.07-7.29,5.12-5.94,14.93-3,22.2.2.47,2.08-.13,1.94-.52-1.93-5.06-5.73-20,1.85-22.25,1.12-.32,1-.95-.16-.62Z"/><path class="cls-4" d="M83.43,173.6c-1.65-4.09-7.42-2.75-9.22.43l1.91-.34A44.13,44.13,0,0,0,77,163.56l-1.87.59A7.83,7.83,0,0,0,80.93,166c.4,0,2.2-.79,1.25-.79A7,7,0,0,1,77,163.49c-.32-.29-1.88.11-1.88.59a43.18,43.18,0,0,1-.9,9.95c-.11.49,1.7,0,1.91-.34.83-1.48,2-2.21,3.66-1.47a3.35,3.35,0,0,1,1.72,1.9c.19.47,2.08-.16,1.93-.52Z"/><path class="cls-4" d="M83.35,135.1C78,126.3,86.92,121.89,93,118.16c4.22-2.6,5.81-6.09,6-11,0-.8-1.19-.72-1.61-.35-5.06,4.33-11.87,6.11-16.75,10.58s-3.78,9.62-.84,14.91c.33.61,1.59.21,1.8-.31,2.26-5.56,7.51-8.15,13.35-7.63,0-.45.11-.9.16-1.34-6.36,2.22-12.81,5.44-16.26,11.5-.56,1,1.31.79,1.73.38l1.82-1.83c.86-.85-1-1.15-1.61-.55l-1.83,1.83,1.73.38c3.12-5.47,9-8.41,14.77-10.42.67-.23,1.26-1.24.16-1.34-6.72-.59-13.23,2.34-15.86,8.81l1.81-.32c-3.86-6.94-2.56-11.89,4.2-15.91,4.36-2.59,9-4.55,12.89-7.88L97,107.3c-.28,8-5.28,9.55-11.15,13.22-5.34,3.35-7.64,9.92-4.28,15.43.45.72,2.29,0,1.77-.85Z"/><path class="cls-4" d="M79.71,126c-4.06-6.82-10.28-14.24-18.78-14.78-.08.35-.15.71-.23,1.07,7-2.27,18.27,1.62,14.41,10.56-.28.65,1.6.42,1.87-.09,2-3.66,3.18-6.54,3-10.76-.25-5.93-.85-11.28,6.59-12,5.85-.57,7.11-3.75,6.89-9.47,0-.43-.89-.29-1.1-.25C78.46,93.3,76.06,104.7,76,117.38l1.94-.23a105.85,105.85,0,0,0-1.72-18.89c-.44-2.29-.9-3.61-3.16-4.39-2.93-1-8.25-.18-5.23-4.87l-1.8.36c3.45,3.91,3.73,8.64,4.5,13.56.1.69,2,.23,1.93-.52-.78-5-1.14-9.85-4.64-13.81-.4-.46-1.51-.09-1.79.35-4.68,7.26,5.93,3.31,7.67,7.62,2.45,6.06,2.24,14.36,2.3,20.82,0,.84,1.94.43,1.94-.23,0-11.49,1.47-23,14.68-25.85l-1.1-.24c.18,4.65-.46,7.43-5.4,7.91a10.94,10.94,0,0,0-5.59,2,7.17,7.17,0,0,0-3,6c.13,2.77.58,5.48.47,8.26s-1.62,5.15-2.88,7.52l1.87-.08c4.37-10.14-9.21-13.75-16.62-11.34-.61.19-1.32,1-.24,1.07,8,.51,13.94,8,17.73,14.42.34.57,2.22,0,1.79-.77Z"/><path class="cls-4" d="M76.19,133.09c-1.87.08-3.61.83-5.48.91-.41,0-1.38.46-1,1,2,2.8,4.66,3,7.84,3,.81,0,2-1.23.71-1.23-2.81,0-5,0-6.77-2.52l-1,1c1.87-.08,3.61-.83,5.48-.91,1-.05,1.55-1.28.22-1.22Z"/><path class="cls-4" d="M136.29,121.41c-5.62-5.31-13.46-8.94-17.77-15.53-2-3.06,5.28-2.41,6.77-.22a20.66,20.66,0,0,1,1.76,4.34,32.86,32.86,0,0,0,3.2,6.28c2.18,3.42,6.43,4.35,10.08,5.28.57.15,2.29-.69,1.3-1.2-8-4.07-6.35-13-6-20.56.38-7.2-3.16-12.55-8.64-16.86l-1.09,1.25c10.27,2,13.19,11.56,11,20.77-1.51,6.51-7.34,13,.42,17.42.28-.41.56-.83.83-1.25-5.11.11-10.14,1-13.67,5a.55.55,0,0,0,.25.92c5.6,1.5,9.44-2.89,14.42-4.56l-1.14-.39c1.61,3.59,1.86,7-1.42,9.91-1.48,1.34-2.16,3.47-3.11,5.17-2.42,4.32-3.86,8.1-.86,12.47.39.57,1.56.24,1.8-.32,2.36-5.53,8.51-9.76,9.81-15.71,1.43-6.53-2.64-9.33-6.19-14-.53-.69-2.37.06-1.77.85,3.81,5,8.4,8.4,5.16,15.38-2.26,4.86-6.72,8.29-8.85,13.3l1.81-.32c-3.44-5,.6-13.63,5-17.22,2.92-2.4,1.85-7.11.56-10a.91.91,0,0,0-1.14-.39,41.43,41.43,0,0,0-6.75,3.4c-1.82,1-8.2,1.38-.88-1.18a22,22,0,0,1,6.81-.87c.48,0,1.62-.8.83-1.25-5.88-3.35-3-7.73-1.13-12.69a26.24,26.24,0,0,0,1.91-11.06c-.64-7.88-5.28-13.24-13-14.73-.61-.11-1.86.64-1.09,1.25,3.5,2.74,6.17,5.65,7.54,9.93,1.23,3.82.51,8.14.35,12.08-.26,6.47.42,12.21,6.72,15.41l1.3-1.2c-3.23-.82-6.54-1.53-8.87-4.1s-3.56-6.84-4.88-10.11c-1.89-4.71-6.75-5.62-10.63-2.73-5,3.71,15.14,16.73,17.46,18.93.63.59,2.45-.21,1.77-.85Z"/><path class="cls-4" d="M139.11,119.75c-.26-1.46-.38-3.52,1.45-3.89,1.35-.27,2.74-.21,4.09-.46,3.64-.69,4.38-3.23,3.59-6.61-.12-.52-1.79,0-1.92.42-.66,1.92-1.43,3.81-2.17,5.7a17.4,17.4,0,0,0-1.48,4.34c-.06.58,1.86.19,1.91-.31a17.81,17.81,0,0,1,1.48-4.34c.74-1.9,1.51-3.78,2.17-5.7l-1.92.41c.36,1.56.91,4.17-.86,5.12-1.1.59-2.82.39-4,.54-3.17.37-4.82,2-4.24,5.29.09.48,2,0,1.93-.51Z"/><path class="cls-4" d="M143.67,92.47c1.88-9.88.49-19.06-11.3-19.44-.18,0-2,.47-1.52.77C136.13,77,141.5,80.52,144.6,86c3,5.37,2.08,12,.8,17.69-.11.52,1.8.21,1.92-.31,1.34-6,2-12.18-.79-17.9s-8.73-9.28-13.87-12.41l-1.52.77c11.52.38,12.38,9.62,10.61,18.9-.1.53,1.82.2,1.92-.31Z"/><path class="cls-4" d="M63.34,81.51c1.79-2.76,3.09-5.71,5.4-8.11.45-.46-1.42-.24-1.76.11C64.61,76,63.27,79,61.43,81.83c-.18.28,1.59.17,1.91-.32Z"/><path class="cls-4" d="M74.23,71.62A18.73,18.73,0,0,0,78,66.93c.2-.38-.67-.36-.81-.34A1.41,1.41,0,0,0,76,67.2a18.24,18.24,0,0,1-3.58,4.44c-.34.33.28.49.5.49a1.83,1.83,0,0,0,1.28-.51Z"/><path class="cls-4" d="M80.56,66.86c1.51-.08,2.62-1.24,3.63-2.25a.56.56,0,0,0-.25-.94,1.35,1.35,0,0,0-1.37.37c-.45.45-1.15,1.36-1.84,1.4-.43,0-1,.31-1.07.79s.51.65.9.63Z"/><path class="cls-4" d="M87.86,64.11a13.78,13.78,0,0,0,6-1c1.2-.56.12-1.57-.85-1.12a11.37,11.37,0,0,1-5,.78c-1.09,0-1.49,1.39-.17,1.39Z"/><path class="cls-4" d="M124.78,61.2a28.14,28.14,0,0,0,8.43.93c.72,0,2-1.09.75-1.09a26.3,26.3,0,0,1-8-.89c-.61-.18-2.27.72-1.18,1.05Z"/><path class="cls-4" d="M136.61,65.65A5.94,5.94,0,0,1,140,67.4c.38.37,2.15-.35,1.81-.67a6.61,6.61,0,0,0-3.94-1.9,2.4,2.4,0,0,0-1.36.36c-.31.21-.26.45.12.46Z"/><path class="cls-4" d="M145.39,68.24a1.18,1.18,0,0,0,.53.91,16.13,16.13,0,0,1,1.36,1c.36.35,2.11-.38,1.82-.65a6.84,6.84,0,0,0-1.15-.85,1.06,1.06,0,0,1-.62-.91c0-.34-2,0-1.94.52Z"/><path class="cls-4" d="M151.78,74.63c.06,1,.86,1.74.92,2.73,0,.36,2,0,1.93-.51-.06-1-.86-1.75-.92-2.74,0-.35-2,0-1.93.52Z"/><path class="cls-4" d="M149.09,160.73c-3.67-2.24-13-6.18-16.39-1.44-1.53,2.16,2.06,3.64,3.42,4.09,3.41,1.12,10.06.78,12,4.35l1.13-.69c-8,1.42-21.43,12.62-16.64,21.68.23.44,1.23.11,1.53-.07,3.3-2,5.07-4.82,6.84-8.14,2.06-3.87,3.7-6.75,8-8.75a5.17,5.17,0,0,0,2.89-2.62c.21-.37-1.63-.22-1.91.31-1.35,2.46-3.13,1.86-4.83,3.23a18.88,18.88,0,0,0-4,4.45c-2.6,3.91-3.83,8.6-8.13,11.14l1.54-.07c-4.21-8,7.12-19,14.39-20.31.16,0,1.32-.32,1.13-.68-1.84-3.36-7.4-3.49-10.68-4.21a20.25,20.25,0,0,1-3.16-1c-1.35-.54-3.81-3.54.3-3.88,3.42-.29,7.87,1.52,10.75,3.28.51.31,2.18-.47,1.81-.7Z"/><path class="cls-4" d="M151,159c-.21-4.65-1.42-9,0-13.59l-1.92.41c2,4.73-2.71,22.34,5,22.93a2.88,2.88,0,0,1-.24,3.6,13.61,13.61,0,0,1-2.45,1.54,6,6,0,0,0-1.69,1.18,9.68,9.68,0,0,0-2.54,7.42c.32,5.32-.86,7.88-4.39,11.89-2.21,2.5-4.31,4.81-5.57,7.93-.22.54,1.39.07,1.52,0,5-2.24,9.25-6.44,13-10.36a31.34,31.34,0,0,0,4.78-6.39c2-3.61-1.93-7.24,1.74-10.85.46-.45-1.41-.24-1.76.1-1.83,1.81-2.12,3.47-2,6,.24,4.27-.18,6-2.88,9.35-3.67,4.55-8.61,9.4-14,11.83h1.52c2.83-7,10.83-10.53,10.12-18.8-.42-4.81.89-7.27,4.95-9.87,2.07-1.32,2.5-2.82,2.28-5.21,0-.13-.26-.16-.34-.16-7.87-.6-3-17.67-5.13-22.66-.21-.49-1.79,0-1.92.42-1.43,4.65-.22,9.05,0,13.79,0,.41,1.95.08,1.93-.51Z"/><path class="cls-4" d="M85.21,203c-2.72,3.84,1.76,8.41,4.71,10.6.48.36,2.22-.26,1.65-.9-3.53-4-9.16-4.7-14.22-4.78-.29,0-1.87.46-1.25,1a12.82,12.82,0,0,0,10,3.62,17.77,17.77,0,0,0,5.7-1.73c3.46-1.5,4.9-2.9,9-.87.64.32,2.39-.58,1.51-1-1.61-.79-4.71-2.65-6.63-1.79-6.41,2.86-11.38,6.77-17.88,1l-1.25,1c4.68.08,9.88.63,13.16,4.35l1.65-.91c-2.57-1.91-6.79-6.1-4.41-9.47.56-.79-1.41-.71-1.82-.12Z"/><path class="cls-4" d="M197.35,263.81c-.77-.17,5.57-6,6.1-6.72,2.83-3.8,5.66-8,10.11-10,1.17-.53-.62-.6-1.14-.37a19.22,19.22,0,0,0-5.78,4.26c-2.07,2.11-3.56,5.55-6,7.24-.8.56-7.16,5.93-4.89,6.44.5.11,2.21-.67,1.57-.82Z"/><path class="cls-4" d="M202.91,263.24c3.42-3.6,6.08-7.87,10-11,.44-.33-1.38-.16-1.75.13-4,3.08-6.62,7.35-10,11-.42.44,1.43.21,1.75-.14Z"/><path class="cls-4" d="M208.39,260.49c3-2.9,6.61-5,9.21-8.31a2.51,2.51,0,0,0-1.91.35c-2.54,3.26-6.12,5.28-9.05,8.12-.39.38,1.42.16,1.75-.16Z"/><path class="cls-4" d="M215.24,261.1c1.95-1,3.52-2.63,5.47-3.65,1.17-.61.11-1.56-.83-1.06-2,1-3.53,2.62-5.48,3.65-1.17.62-.11,1.56.84,1.06Z"/><path class="cls-4" d="M240.46,273.68c4.73-1.43,7-6.44,9.08-10.53.17-.34-1.65-.19-1.91.32-1.56,3.13-3.67,8.44-7.34,9.55-1.12.34-.95,1,.17.66Z"/><path class="cls-4" d="M247.56,272.65c2.06-2.47,4.12-5,6.39-7.3.82-.83-1.06-1-1.59-.43-2.26,2.29-4.32,4.82-6.39,7.3-.76.91,1.1,1,1.59.43Z"/><path class="cls-4" d="M183.79,280.08c13.45,11.05,29.32,6.66,45.22,6.48.57,0,2.11-.87.82-.86-15.52.17-31.05,4.52-44.23-6.3-.43-.36-2.17.39-1.81.68Z"/><path class="cls-4" d="M200.1,289.46c3.63-.14,7.24-1.29,10.74-2.18,3.17-.81,10.32-3.75,13.26-1.56.56.41,2.33-.4,1.52-1-2.45-1.82-6.76-.45-9.41.1-5.23,1.09-10.51,3.24-15.88,3.45-1,0-1.56,1.24-.23,1.19Z"/><path class="cls-4" d="M199.59,288.38c9.21.54,17.07-4.33,26-5.5.82-.11,1.69-1,.34-.8-8.55,1.12-16.36,6-25.11,5.45-.45,0-2.23.79-1.24.85Z"/><path class="cls-4" d="M76.94,263.57c1,3.42,5.33,4.79,8.3,5.86,5.24,1.9,10.78,2.79,16.13,4.33,12.18,3.49,27.35,6.09,39.67,2,1.15-.38.86-1.56-.31-1.17-11.7,3.87-26,1.24-37.61-1.84-4.11-1.09-8.25-2.06-12.36-3.17-3.55-1-10.73-2.38-11.89-6.53-.23-.81-2.16-.28-1.93.52Z"/><path class="cls-4" d="M82.49,268.28c4,7.15,15.57,8.2,22.75,9.1,10.48,1.31,21.09,1.18,31.64,1.17.84,0,2-1.27.7-1.27-9,0-18,0-27-.7-7.82-.63-21.93-1.21-26.34-9.11-.37-.67-2.23,0-1.78.81Z"/><path class="cls-4" d="M83.52,272c16.33,4.52,32.64,8.16,49.67,8.27.66,0,2.08-1,.78-1-16.78-.11-32.8-3.7-48.9-8.15-.54-.15-2.28.67-1.55.87Z"/><path class="cls-4" d="M85.21,276.41a114.44,114.44,0,0,0,45,9.19c.39,0,2.2-.76,1.26-.76A112.89,112.89,0,0,1,87,275.77c-.52-.23-2,.57-1.82.64Z"/><path class="cls-4" d="M84.31,277.38c12.81,13.86,33.61,5,49.59,10.19.61.2,2.27-.7,1.18-1.06-15.74-5.13-36.45,3.67-49-9.89-.46-.5-2.3.21-1.79.76Z"/><path class="cls-4" d="M93.76,288.55C104.42,293,120,293.74,131,290.37c1.16-.35.86-1.54-.32-1.18-10.57,3.22-25.57,2.39-35.78-1.84-.72-.3-2.25.74-1.14,1.2Z"/><path class="cls-4" d="M89.21,270.33c15.18,5.74,32.05,3.77,47.93,3.7,1.09,0,1.5-1.37.18-1.36-15.57.06-32.09,2-47-3.61-.79-.3-2.26.84-1.12,1.27Z"/><path class="cls-4" d="M111.3,269.32c6.78.12,13.36,1.79,19.86,3.63.6.17,2.27-.72,1.19-1-6.64-1.87-13.36-3.54-20.3-3.67-.7,0-2.06,1.05-.75,1.07Z"/></svg>