<svg id="layer1" xmlns="http://www.w3.org/2000/svg" viewBox="0 0 143.47 143.14"><defs><style>.cls-1{fill:#60b262;}.cls-2{fill:#492d0c;}</style></defs><path class="cls-1" d="M96.11,43C90.36,40.71,86,41.76,82.4,44.37,77.85,45,74.18,48,71.61,51.94a34.22,34.22,0,0,0-17.13-9.62,10.72,10.72,0,0,0-2.59-1.46,14.42,14.42,0,0,0-13.6,1.45c-3.73.84-7.43,2.22-10.17,4.87-3.24,3.12-2.22,7,.13,10a57.88,57.88,0,0,0-.8,8.89c-.13,7.21.89,22.41,10.07,24.33a3.52,3.52,0,0,0,3.95-1.61c.6-1.24,1.12-2.53,1.62-3.83a3.4,3.4,0,0,0,2.58-.37,24.86,24.86,0,0,0,5.09-3.88c7.56-1.95,11.88-8.85,16.73-14.78-.23.34-.45.7-.65,1.06-3.94,7-1.32,16.24,3.44,22.08,8.53,10.46,29.51,6.19,32.77-7a11,11,0,0,0-.12-5.8,3.77,3.77,0,0,0,1.66-1.92C107.87,65.21,106.55,47.27,96.11,43ZM85.4,81.54a12.79,12.79,0,0,1-1.19-.85,7.72,7.72,0,0,0,2.49-.89,3.54,3.54,0,0,0,4.51.75A7.7,7.7,0,0,1,90,82.43h0A5.52,5.52,0,0,1,85.4,81.54ZM66.34,56.46a3.73,3.73,0,0,0-2.37.26A24.54,24.54,0,0,0,61.2,58.2a11.07,11.07,0,0,0-2-6.51l.06-.34A25,25,0,0,1,66.34,56.46Z"/><path class="cls-2" d="M28.59,59.63q-.46-4.32,2.95-3.64c1.76-.08,3.51-.08,5.27,0a66.37,66.37,0,0,1,7.45.72,59.11,59.11,0,0,1,9.45,2.1c4.6,1.45,15.8,6.3,7.48,11.15-1.13.66.51,1.2,1.25.77C72.33,65,59.9,59.2,54,57.34a63.58,63.58,0,0,0-20.46-2.69c-2.71.07-5.43-.6-7.13,1.68-1.25,1.66-.77,3.16.63,4.35.58.51,2.31-.35,1.51-1Z"/><path class="cls-2" d="M26.06,58.47c-3.47,6-1.45,13.67.57,19.8,2,6,5.21,14,12.18,15.2,5.75,1,11.29-4.77,14.93-8.32C59.07,80,64.84,73,64.3,65.1c0-.74-2-.31-1.93.52.47,6.83-4.18,12.43-8.43,17.24a62.45,62.45,0,0,1-4.79,4.7c-4.39,4-9.37,6.35-14.45,1.81-3.83-3.42-5.47-9.41-7-14.15-1.63-5.16-2.7-11.72.14-16.63.5-.86-1.46-.75-1.82-.12Z"/><path class="cls-2" d="M25.24,56.82c-.74-3.71-2-6.81-.25-10.45,2-4.09,7.39-6.16,11.44-7.42,6.06-1.87,12.72-.51,18.6,1.4C60.24,42,65.62,45,68.47,49.82c3.89,6.56-1.72,14.25-4.84,19.87-.13.23,1.64.13,1.9-.35,3.7-6.65,9.63-15.45,3.2-22.43-5.06-5.49-12.69-8-19.88-9.18a29.41,29.41,0,0,0-16.57,2c-2.78,1.2-5.81,2.65-7.77,5-3.55,4.29-2.2,7.53-1.21,12.54.08.39,2-.07,1.94-.52Z"/><path class="cls-2" d="M46.62,37.69a8.9,8.9,0,0,1,2.73-4.79,12.11,12.11,0,0,1,2.92-2.15c1.67-.9,2.86-.32,4.36.49l1.69-.76c-3.64-.94-8.5,1.33-9.88,4.88-.18.48,1.7.25,1.92-.3.9-2.33,3.83-4.42,6.39-3.76.35.09,2.16-.5,1.69-.76a6.94,6.94,0,0,0-7.32-.17c-2.87,1.37-5.95,4.36-6.42,7.62-.08.61,1.84.24,1.92-.3Z"/><path class="cls-2" d="M25.31,54.54c-.79-3,2.62-3.11,4.71-2.89l-.59-.44a4.32,4.32,0,0,1-1,2.9,3.35,3.35,0,0,1-2.8.61c-.75-.07-2.05,1-.74,1.12,3.33.32,6.3-1.29,6.49-4.87,0-.35-.31-.4-.59-.43-2.85-.3-8.48.37-7.4,4.51.18.69,2.12.18,1.94-.51Z"/><path class="cls-2" d="M32.86,50a4,4,0,0,0-3.09,1.35,2.55,2.55,0,0,0-.62,1.63c.14.51.89.91,1.31,1.15a6.32,6.32,0,0,0,7.41-1.19.28.28,0,0,0,0-.37A6.36,6.36,0,0,0,34,50.46a1.88,1.88,0,0,0-1.36.36c-.29.24-.25.6.16.63a4.82,4.82,0,0,1,2.61,1.16c1,.8-.6,1.1-1.24,1.13A4.41,4.41,0,0,1,32,53.2a3,3,0,0,1-.81-.66c-.39-.4.49-1.54.89-1.56a1.7,1.7,0,0,0,1.28-.51c.27-.36-.23-.52-.51-.51Z"/><path class="cls-2" d="M39.86,51.48c-1.23.16-2.36.94-1.6,2.22a6.26,6.26,0,0,0,2.61,2.22c1.25.65,3.39.76,4.05-.8a3.64,3.64,0,0,0-.69-3.46A3.72,3.72,0,0,0,40,50.53a7,7,0,0,0-2.21,1.3.42.42,0,0,0,.21.76,1.6,1.6,0,0,0,1.36-.36,4.84,4.84,0,0,1,.81-.55,1.22,1.22,0,0,1,.57-.19c.11,0,.11,0,0,0H41l.23,0a1.81,1.81,0,0,1,.56.28,3.45,3.45,0,0,1,1.35,2.42,1.89,1.89,0,0,1-.15,1c-.1.19.08-.05-.06.1s.19-.11.08-.06l.1,0c-.2.06.25,0,0,0,.26,0,.05,0,0,0-.23,0,.17,0-.07,0a4.88,4.88,0,0,1-1.87-1,5.08,5.08,0,0,1-1-1.06,1.49,1.49,0,0,1-.24-.51.38.38,0,0,1,0-.21c0,.11-.41.24-.32.23.38,0,1-.25,1.09-.69s-.56-.52-.85-.48Z"/><path class="cls-2" d="M45.52,51.66a3.14,3.14,0,0,0,.1,5,4,4,0,0,0,5.53-.93c.8-1.28-.2-3-1.3-3.65A2.58,2.58,0,0,0,46,53.75c-.23.83,1.74.57,1.95-.19a2.63,2.63,0,0,1,.24-.58c.14-.25.13-.08-.14,0a2.93,2.93,0,0,1,.59.38,2.15,2.15,0,0,1,.73,2c-.25,1-1.73.7-2.27.2-.75-.69-1.34-2.41-.37-3.16s-.55-1.28-1.24-.75Z"/><path class="cls-2" d="M53,53.25c-2.13.8-1.82,3.63-.31,4.89a3.27,3.27,0,0,0,4.49-.61,3.35,3.35,0,0,0-.33-3.6c-1-1.39-3.08-1-4.32-.12-1.08.73.6.93,1.19.53s.93-.21,1.39.42a3,3,0,0,1,.44,2.33,1.64,1.64,0,0,1-.31.65c-.21.14.38,0,0,0a1.66,1.66,0,0,1-.81-.3,2.87,2.87,0,0,1-1-1.88c-.07-.38,0-1.4.31-1.52s.82-.44.52-.75-.94-.12-1.27,0Z"/><path class="cls-2" d="M59.37,55.9a2,2,0,0,0-.83-.12l-.37.07-.1,0c-.2,0-.14,0,.16,0a1.29,1.29,0,0,0-1.48.53,1.92,1.92,0,0,0-.3.63,4.43,4.43,0,0,0,.18,1.39,4,4,0,0,0,.74,1.69,2.42,2.42,0,0,0,3,.5A3.08,3.08,0,0,0,62,58.23a3.22,3.22,0,0,0-1.53-2.9,1.28,1.28,0,0,0-1.67.45,3.19,3.19,0,0,0-.56,2.4c.23.86,2.16.35,1.93-.52A2.26,2.26,0,0,1,60.66,56L59,56.42a2.88,2.88,0,0,1,.82.85,2.6,2.6,0,0,1,.27.85,1.81,1.81,0,0,1-.14.78c0,.08-.23.42-.12.27l-.15.19s-.24.23-.05.06l-.13.1c-.14.1.2-.1,0,0-.07,0-.26.09,0,0-.26.08.17,0,0,0h0c-.24,0,.1,0,0,0s0,0-.08,0a1.33,1.33,0,0,1-.19-.14c.12.1,0,0-.06-.06L59,59.09a2.2,2.2,0,0,1-.26-.56,6.73,6.73,0,0,1-.35-1.84c0,.12,0,.24,0,.36l.25-.45-1.49.53a1.83,1.83,0,0,0,.83.12l.37-.07.11,0c.19,0,.14,0-.16,0,.78.32,2.25-.8,1.12-1.27Z"/><path class="cls-2" d="M63.43,59c-2,.8-1.66,3.68-.42,5.1s3.71.82,4.81-.5a3.87,3.87,0,0,0,.28-4.27c-1.16-1.75-4-.53-5.32.3-.3.19-.27.38.1.38a2.63,2.63,0,0,0,1.37-.36c.56-.36.72-.55,1.24-.35a1.79,1.79,0,0,1,.91,1,3.86,3.86,0,0,1-.07,3,2.22,2.22,0,0,1-.74,1c.43-.28.5,0,0-.23a2.22,2.22,0,0,1-.88-.84A4.94,4.94,0,0,1,64,61a4.41,4.41,0,0,1,0-1c0-.32.48-.85.08-.69.06,0,.87-.35.59-.51s-.94,0-1.24.13Z"/><path class="cls-2" d="M67.88,53.55l-.9-.49a1.42,1.42,0,0,0-1.67.45c-.7,1.37-1,3.36.13,4.58a2.56,2.56,0,0,0,3.79-.43,2.8,2.8,0,0,0-.08-3.11c-.93-1.46-3-1.41-4.47-1.11-.31.06-.93.38-.82.79s.8.35,1.11.28a2.14,2.14,0,0,1,2.67,2.6,1.1,1.1,0,0,1-.3.52c.18-.12.39,0,.06-.2a1.41,1.41,0,0,1-.52-.59,3.78,3.78,0,0,1,.24-3.23l-1.67.45.9.48c.62.33,2.38-.53,1.53-1Z"/><path class="cls-2" d="M61.34,52A3.6,3.6,0,0,0,59,55.35a2.25,2.25,0,0,0,2.5,2,4.25,4.25,0,0,0,3.25-1.67,2.84,2.84,0,0,0-.52-3.47c-.31-.37-2.13.29-1.82.67a2.75,2.75,0,0,1,.72,2.52,2.14,2.14,0,0,1-.57.93,1.09,1.09,0,0,1-.3.23c-.12.07,0,0,.18,0-.77,0-1.23-.74-1.44-1.38a2.2,2.2,0,0,1,.29-1.71,3.36,3.36,0,0,1,.51-.68,2.09,2.09,0,0,1,.22-.2c.08-.07.34-.17.05-.07.1,0,.87-.36.57-.56s-.93,0-1.25.09Z"/><path class="cls-2" d="M56.22,50.84c-1.77-1.17-5-.77-4.67,1.91s3.56,3.41,5.79,2.61,2.35-3.06,1.25-4.82c-1.41-2.27-4.29-1.94-6.27-.61-.3.2-.26.41.12.42A2.4,2.4,0,0,0,53.8,50c2.26-1.52,4.25,2.77,3.19,4.55-.1.17-.54.42-.26.36a2.6,2.6,0,0,1-1.14-.1,3,3,0,0,1-1.75-1.48,3,3,0,0,1-.36-1.87,1.29,1.29,0,0,1,.31-.68c-.36.39-.85.07-.24.26a3.22,3.22,0,0,1,.85.47c.46.3,2.1-.48,1.82-.66Z"/><path class="cls-2" d="M49.81,47.4c-.78-.32-1.66.18-2.29-.08-.27-.1-1.91.18-1.75.64.5,1.51,1.85,3.31,3.5,3.6a3.36,3.36,0,0,0,3.89-2.75c.12-1.48-2.06-2-3.13-2.21a8.16,8.16,0,0,0-4.76.48c-.16.08-.66.41-.23.52a2.18,2.18,0,0,0,1.35-.24,4.76,4.76,0,0,1,2.48.08,2.91,2.91,0,0,1,2.29,1.43A1.55,1.55,0,0,1,51,50.13a2.4,2.4,0,0,1-.37.53c-.36.28-.35.31,0,.1a2.37,2.37,0,0,1-.89-.46,6,6,0,0,1-2-2.85l-1.76.64c.78.31,1.65-.18,2.28.07.44.17,2.19-.53,1.59-.76Z"/><path class="cls-2" d="M43.1,45.13c-1.18,0-2.81.37-3.41,1.52a2.43,2.43,0,0,0,.64,2.56,3.34,3.34,0,0,0,3.16,1,5.29,5.29,0,0,0,3.75-2.88.13.13,0,0,0-.05-.17l-4-2.18a1.67,1.67,0,0,0-1.24.1c-.07,0-.9.39-.58.56L44,47.07c.13.07,1.29.6,1.2.76a6.25,6.25,0,0,1-.74,1,2.93,2.93,0,0,1-.59.52c-.23.16-.19.06-.07.06a2.08,2.08,0,0,1-1.09-.38,2.86,2.86,0,0,1-1.25-1.93c-.1-.66.17-1.19.79-1.21a2.16,2.16,0,0,0,1.29-.46c.33-.31-.29-.34-.46-.33Z"/><path class="cls-2" d="M37.43,44.78a3.15,3.15,0,0,0-3.15-.67A1.61,1.61,0,0,0,33,45.75a3.51,3.51,0,0,0,3.82,3.39C39,49,42.47,47,40,44.76c-1.92-1.77-5.65-1.39-7,.9-.18.31.7.21.78.19.35-.06.93-.19,1.13-.53.44-.75.75-1,1.57-.77a3.85,3.85,0,0,1,2,1.2,1.53,1.53,0,0,1-1.36,2.56A3.21,3.21,0,0,1,35,45.78a1.7,1.7,0,0,1,.14-1.31c-.36.57-1.32,0-.52.33a4.3,4.3,0,0,1,1,.64c.43.33,2.12-.43,1.82-.66Z"/><path class="cls-2" d="M28.63,45.1c-1.43,1.58-1.89,3.6-.09,5.08a4.61,4.61,0,0,0,5.33.09,2.88,2.88,0,0,0-.29-4.93,4.7,4.7,0,0,0-6,1.73c-.52.89,1.44.83,1.84.16a2.08,2.08,0,0,1,3.05-.63,1.85,1.85,0,0,1,0,3,2.5,2.5,0,0,1-2.59-.74c-1-1-.41-2.38.43-3.3s-1.06-1.08-1.6-.49Z"/><path class="cls-2" d="M24.93,46.66a4.61,4.61,0,0,0-1.25.53,2.8,2.8,0,0,0-.78,1.11.17.17,0,0,0,.05.2,3,3,0,0,0,1.78,1,6,6,0,0,0,2.41-.39c.22-.07,1-.29.87-.64s-.86-.19-1.07-.13c-.53.16-1,.37-1.48.08-.29-.17-.66-.38-.46-.73a1.89,1.89,0,0,1,.19-.3c-.05.06-.37.15-.05.06s.95-.29.86-.65-.86-.18-1.07-.12Z"/><path class="cls-2" d="M38.1,39.91a3.07,3.07,0,0,0-2,2.25,3,3,0,0,0,1.35,2.57c1.61,1.18,4.91,1.37,6.32-.31,1-1.2-.21-2.57-1.33-3.11A3.28,3.28,0,0,0,38,42.84c-.39.93,1.54.76,1.82.11.34-.83.56-1,1.35-.53.45.24,1.28,1,1,1.57-.14.33-.62.34-.93.38a3,3,0,0,1-2.12-.52c-1.08-.7-1.62-2.37-.22-3,1.21-.57.11-1.34-.8-.92Z"/><path class="cls-2" d="M47,42.41c-1.06-.09-2.89.14-2.84,1.55,0,1.11,1.26,2.23,2.14,2.73,1.41.81,4.64,1.56,5.79-.11.74-1.06-.45-2.56-1.17-3.29a3.37,3.37,0,0,0-4.19-.84,2.74,2.74,0,0,0-1.12,2.42c0,.72,1.9.3,1.93-.28a4.72,4.72,0,0,1,.15-1.12,2.05,2.05,0,0,1,.16-.41s.18-.23.09-.14c.18-.18-.12,0-.24.07l-.24,0a1.6,1.6,0,0,1,.61.2,4.82,4.82,0,0,1,2.14,2.38,1.55,1.55,0,0,1,.1,1c-.07.12,0,.06,0,0l.06,0c.33-.13-.15,0,.17,0-.11,0-.11,0,0,0h-.29a3,3,0,0,1-.59-.09A4.91,4.91,0,0,1,47,45.09a3.53,3.53,0,0,1-.81-1.21,1.25,1.25,0,0,1-.1-.51.46.46,0,0,1,0-.2c-.09.15-.63.19-.34.21A2,2,0,0,0,47.19,43c.29-.24.24-.58-.17-.61Z"/><path class="cls-2" d="M54.47,44A2.25,2.25,0,0,0,52,45.25a3,3,0,0,0,.72,2.64c1.4,1.86,4.34,2.11,5.58-.07.88-1.54-.9-3.12-2.17-3.64a2.74,2.74,0,0,0-3.92,2.42c0,1,1.91.75,2-.14a2.74,2.74,0,0,1,.11-.76c.05-.14.3-.39.13-.29.12-.07-.08,0,.2,0,0,0,.26.06.41.12.67.25,1.53,1,1.52,1.74,0,.36-.24.56-.58.73s.17,0,0,0a1,1,0,0,1-.34-.06,2.37,2.37,0,0,1-.8-.49A3.16,3.16,0,0,1,53.91,46a1.09,1.09,0,0,1,0-.59c0-.14-.4,0,0,0a1.24,1.24,0,0,0,1.25-.59.61.61,0,0,0-.59-.83Z"/><path class="cls-2" d="M60.57,46.06l-.9-.49c-.5-.27-1.51.12-1.53.75-.08,2.45-.3,5.3,2.11,6.75a1.22,1.22,0,0,0,1.39-.1c1.45-1.25,2-3.24.34-4.59a2.27,2.27,0,0,0-2.35-.27,2.79,2.79,0,0,0-1.39,2.33c-.13,1,1.85.81,2-.13a2.6,2.6,0,0,1,.11-.62c.09-.31.35-.33,0-.28.09,0,.35.24.45.36a1.57,1.57,0,0,1-.4,2.23l1.39-.1c-2-1.2-1.7-3.67-1.63-5.71l-1.53.75.9.49c.84.45,2.2-.78,1.1-1.37Z"/><path class="cls-2" d="M65.06,50.61c-1,.39-1.7.91-1.55,2.08A5,5,0,0,0,65.92,56a2.08,2.08,0,0,0,1.87-.5,6.36,6.36,0,0,0,.86-5.59c-.73-2-3.15-1.49-4.68-.8-1.15.52.67.38,1.1.19,1.31-.59,1.85,1.59,1.93,2.45a6.2,6.2,0,0,1-1.11,4.11l1.86-.5a5.33,5.33,0,0,1-2-2.1c-.21-.39-.8-2-.09-2.25,1.29-.49.06-.63-.65-.36Z"/><path class="cls-2" d="M61.33,44c-1.64,1-1.36,3.11-.13,4.36s3.68,1.17,4.56-.27c.77-1.25-.48-2.91-1.38-3.7a5.44,5.44,0,0,0-5.56-.81c-.21.07-.83.44-.53.73s.93.12,1.27,0c1.95-.69,4.28,1.42,4.48,3.31a1.51,1.51,0,0,1-.05.42c-.07.25-.23.21.08.12s-.29-.06-.43-.11a2,2,0,0,1-.78-.55c-.56-.57-1.29-2.41-.34-3,.23-.14.6-.52.18-.7a1.66,1.66,0,0,0-1.37.19Z"/><path class="cls-2" d="M50.71,42c-1.25,1.15,1.5,2.54,2.38,2.67,2.66.42,3.58-2.26,2.66-4.35C54,36.41,46,38.43,48,42.77c.29.64,2.18,0,1.93-.51-1.17-2.6,1.72-4,3.5-2a3.64,3.64,0,0,1,.77,1.84,3.46,3.46,0,0,1-.09,1.24,1.68,1.68,0,0,1-.16.39c-.18.33.47,0,.2,0a2.81,2.81,0,0,1-1.27-.73c-.18-.15-.53-.75-.62-.66.81-.75-1.1-.66-1.53-.27Z"/><path class="cls-2" d="M45.3,37.84c-.86.21-1.73.35-2,1.32S44,40.63,44.64,41c1.37.88,3.49,1.48,4.74.07.55-.62.11-1.83-.23-2.42a3,3,0,0,0-2.25-1.13A8.53,8.53,0,0,0,40.74,39c-.84.71,1.09.65,1.54.27a4.71,4.71,0,0,1,2.78-.71,2.19,2.19,0,0,1,2.54,1.66,2.78,2.78,0,0,1,.08.49c.06.61-.42.25.37.23a3,3,0,0,1-1.25-.42,5.23,5.23,0,0,1-1.19-.84.87.87,0,0,1-.37-.73l-.21,0a4.64,4.64,0,0,0,.51-.11c1.17-.28.91-1.18-.24-.9Z"/><path class="cls-2" d="M38.26,39.15a3.13,3.13,0,0,0,3.84,3.59c2.07-.78.58-3.69-1-4.13a1.8,1.8,0,0,0-1.36.19c-.2.12-.65.57-.19.7a2.11,2.11,0,0,1,1.35,1.27,1.74,1.74,0,0,1,.11,1.44c.21-.32,1.27-.13.79-.33a2.86,2.86,0,0,1-.62-.4,3.14,3.14,0,0,1-.82-1,2,2,0,0,1-.21-1.56c.18-.4-.66-.39-.82-.36a1.38,1.38,0,0,0-1.11.62Z"/><path class="cls-2" d="M32.81,41c-.9-.47-2-.69-2.7.24-.48.64.15,1.94.48,2.55A3,3,0,0,0,35,45.12c1.27-.82,2.08-2.3.78-3.53a3.54,3.54,0,0,0-4.56,0c-.31.25-.52.71-.11,1a1.28,1.28,0,0,0,1.39-.12,1.1,1.1,0,0,1,1.43,0,1,1,0,0,1,.44,1.36c-1.21,1.67-2.35-1.65-2.45-2.51-.05.18-.1.36-.16.53-.66.07-.79.17-.41.31A1.3,1.3,0,0,0,32.7,42c.29-.21.54-.75.11-1Z"/><path class="cls-2" d="M27.77,43.21a2.88,2.88,0,0,0-2,2.32A2.1,2.1,0,0,0,27.5,47.9c2.34.39,3.87-2.79,1.73-4.07A1.63,1.63,0,0,0,28,43.9c-.09,0-.89.41-.55.61a1.79,1.79,0,0,1,.9,1.44,1.88,1.88,0,0,1-.14.87,1.19,1.19,0,0,1-.18.33c-.31.41,1,0,.67-.14a1.78,1.78,0,0,1-1-1.74c0-.46.3-1.35.78-1.52.13,0,.86-.38.56-.61s-.93,0-1.25.07Z"/><path class="cls-2" d="M55.57,44.06c1.28,1.6,3.37,0,4.44-1,.16-.14.29-.43.11-.61A4.1,4.1,0,0,0,55,41.69c-.3.18-.55.62-.15.85a1.45,1.45,0,0,0,1.38-.16c.65-.42,1.7.42,2.12.85,0-.2.07-.41.11-.61-.26.24-.52.48-.8.7l-.31.19c.29-.15.28.08,0-.25-.47-.58-2.32.12-1.78.8Z"/><path class="cls-2" d="M26.41,58c-.66.55.32.19.91.19.89,0,1.78,0,2.67.11a14.82,14.82,0,0,1,5.36,1c.63.31,2.38-.58,1.51-1-2.13-1-4.77-1.14-7.1-1.27-1.4-.08-3.74-.44-4.93.56-.87.74,1,.86,1.58.41Z"/><path class="cls-2" d="M25.49,60.66c2.1-1.57,5.63-1.17,8.14-1.59.75-.12,1.74-.88.38-.66-3.45.57-7.32.22-10.27,2.42-.36.27.32.29.45.28a2.64,2.64,0,0,0,1.3-.45Z"/><path class="cls-2" d="M25.88,62.51a10.72,10.72,0,0,1,4.54-.71c.86.12,2-1.09.71-1.27a13.18,13.18,0,0,0-5.56.81c-1.17.35-.87,1.52.31,1.17Z"/><path class="cls-2" d="M26.49,63.42c.09,0,.08-.12,0-.12h-.06c.31,0,.35.32.11.79-.15.09-.34.18,0,.08s.8-.18,1.2-.28c.73-.18,1.47-.32,2.2-.53.23-.06.95-.29.85-.66s-.85-.22-1.08-.16c-1.06.31-2.15.52-3.21.81A2.81,2.81,0,0,0,25,64c-.52.57,1,.48,1.16.46.35,0,1-.29,1.11-.67s-.62-.4-.81-.38Z"/><path class="cls-2" d="M27,66.32a3.73,3.73,0,0,1,2.09-.67,2.53,2.53,0,0,0,1.37-.36c.3-.2.26-.45-.12-.45a8.7,8.7,0,0,0-4.83,1.4c-.31.21-.25.43.12.45A2.38,2.38,0,0,0,27,66.32Z"/><path class="cls-2" d="M27,67.6a3.37,3.37,0,0,1,.71,0,4.83,4.83,0,0,0,1.13-.17c.21-.05,1-.29.86-.64s-.85-.18-1.07-.13a2.73,2.73,0,0,1-.7,0,4,4,0,0,0-1.13.17c-.22,0-1,.29-.86.64s.85.18,1.06.12Z"/><path class="cls-2" d="M26.93,71.53c.92,0,1.81.28,2.73.32a1.41,1.41,0,0,0,1.27-.57c.22-.41-.19-.71-.57-.73-.92,0-1.81-.27-2.73-.31a1.38,1.38,0,0,0-1.27.57c-.22.41.19.71.57.72Z"/><path class="cls-2" d="M57.46,65.07c0-.51-1.05.13-.62.18a1.5,1.5,0,0,1,.42.15,9.14,9.14,0,0,1,1.21.61,1.32,1.32,0,0,0,1.38-.13c.3-.21.55-.73.12-1a7.35,7.35,0,0,0-2.55-1,1.64,1.64,0,0,0-1.91,1.35c-.08,1,1.89.68,2-.16Z"/><path class="cls-2" d="M57.14,66.91a13,13,0,0,1,3.35,2.39c.38.4,2.19-.3,1.82-.69A13,13,0,0,0,59,66.23a1.6,1.6,0,0,0-1.25.07c-.09,0-.91.43-.56.61Z"/><path class="cls-2" d="M56.37,69.39a10.36,10.36,0,0,0,2.46,1.91,1.68,1.68,0,0,0,1.24-.11c.07,0,.89-.38.58-.56a10.12,10.12,0,0,1-2.46-1.9c-.34-.36-2.13.34-1.82.66Z"/><path class="cls-2" d="M58.2,70.35l-.18-.1-1.49,1.09c.81.42,1.62.88,2.43,1.31a1.31,1.31,0,0,0,1.38-.13c.29-.21.54-.73.11-1-.81-.43-1.61-.89-2.43-1.31a1.35,1.35,0,0,0-1.38.13c-.29.21-.55.73-.11,1l.18.1a1.33,1.33,0,0,0,1.38-.13c.29-.21.54-.73.11-1Z"/><path class="cls-2" d="M57.27,73.69a2.1,2.1,0,0,0-1.22.76c-.22.39.33.73.59.88s.93,0,1.24-.13c.07,0,.87-.34.59-.51a1.07,1.07,0,0,1-.51-.45c-.07-.15.12-.24,0-.18.06,0,.87-.35.58-.51s-.92,0-1.23.14Z"/><path class="cls-2" d="M56.2,76.71A2.64,2.64,0,0,0,55,77.3c-.32.35-.22.72-.1,1.12.23.76,2.16.23,1.94-.52a3.31,3.31,0,0,1-.12-.42c.06.3-.8.51-.22.33.31-.09.94-.37.82-.81s-.8-.38-1.11-.29Z"/><path class="cls-2" d="M39.05,93c-1.89,1.12-2,3.1-2.36,5.08-.11.71,1.62,0,1.85-.18A13.66,13.66,0,0,0,41,94.45c.19-.36-.69-.3-.8-.28a1.55,1.55,0,0,0-1.12.58A12.76,12.76,0,0,1,36.77,98l1.84-.19c.23-1.36.24-3.59,1.59-4.39,1.11-.66-.63-.7-1.15-.39Z"/><path class="cls-2" d="M72.86,63.22C80.26,58,93.48,60,99.34,66.74c5.09,5.9,6.78,16.2,1.7,22.52-5.39,6.7-16.83,6.67-24.23,4.25C68.53,90.82,62.56,81.23,65.44,72.8c.19-.56-1.72-.31-1.92.28C59.89,83.7,68.92,93,78.67,95.37c8,1.95,18.35-.08,24.15-6.14,7.15-7.45,2-21.24-5.25-26.52-6.8-5-19.55-4.45-26.24.29-.85.61,1.09.53,1.53.22Z"/><path class="cls-2" d="M73.25,50.68c4.61-4,9.75-10.46,16.73-8.47,4.41,1.26,7.86,5.33,10.44,8.9,5.37,7.4,8.46,19.11,5.21,27.82-.22.59,1.7.35,1.93-.26,4.31-11.57-1.76-26.39-10.65-34.21-9.4-8.25-17.71-.49-25.2,6-.83.71,1.1.64,1.54.26Z"/><path class="cls-2" d="M83.17,80.76c-.33,9-1.76,17.58-8.77,23.94-.83.75,1,.53,1.35.36,2.72-1.4,5.91-.24,8.64.31.42.09,1.44-.11,1.56-.62,2-8-4-15.35-1.34-23.36.19-.59-1.73-.33-1.92.27C80.07,89.69,86.05,97,84,105l1.56-.62c-4-.8-7.29-1.73-11,.18l1.35.36c7.19-6.53,8.82-15.09,9.16-24.45,0-.72-1.9-.3-1.92.27Z"/><path class="cls-2" d="M81.21,73.84a3.37,3.37,0,0,0-1.76,2.87,3.29,3.29,0,0,0,1.71,2.69c2.17,1.29,5.4-.28,6.09-2.6,1.08-3.62-7.13-4.3-7.61-.28-.1.81,1.85.47,1.93-.23a1.4,1.4,0,0,1,1.74-1.36c.88.07,2.06.71,2.06,1.71a2.37,2.37,0,0,1-.81,1.56,1.54,1.54,0,0,1-2,.14,2.3,2.3,0,0,1-.11-3.87c.27-.18.58-.58.16-.8a1.49,1.49,0,0,0-1.37.17Z"/><path class="cls-2" d="M88,77.44c-1.66,1-1.54,2.46-.11,3.53,1.25.93,3.34,1.15,4.37-.21a2.93,2.93,0,0,0,.12-2.34,2.43,2.43,0,0,0-2-1.37,4.46,4.46,0,0,0-4.82,2.61c-.26.75,1.69.51,1.94-.21a1.87,1.87,0,0,1,2-1.2c1.13.1,1.19,1.37,1,2.23,0,.24-.12.13.17,0,.09,0-.24-.05-.27-.05a3.09,3.09,0,0,1-1.11-.57c-.67-.55-.92-1.27-.08-1.75.31-.18.54-.63.14-.85a1.46,1.46,0,0,0-1.37.15Z"/><path class="cls-2" d="M91.06,81.54a1.92,1.92,0,0,0-.57,2.71,2.38,2.38,0,0,0,3,1.14,3.57,3.57,0,0,0,1.78-1.25c.28-.35.62-.73.38-1.15a3.47,3.47,0,0,0-.87-1c-1.46-1.14-3.54-.82-5.09-.07-.23.11-.6.5-.19.66a1.8,1.8,0,0,0,1.36-.2,2.31,2.31,0,0,1,2.47.63c.44.4.49.64.16,1.11a2.51,2.51,0,0,1-.45.47c.18-.14.49,0,.2-.11a2,2,0,0,1-1-1.19c-.12-.32-.25-1.19,0-1.33s.62-.49.19-.66a1.72,1.72,0,0,0-1.36.2Z"/><path class="cls-2" d="M88.45,83.2c-.45-.24-.9-.48-1.34-.73a1.39,1.39,0,0,0-1.67.45c-.83,1.62-.75,3.71,1.18,4.42,2.34.85,4.17-1.51,4.78-3.42.06-.17-.08-.33-.21-.41-1.19-.68-2.11-1.67-3.55-1.8a1.41,1.41,0,0,0-1.27.55c-.24.42.21.65.55.68,1,.09,1.89,1.09,2.75,1.59l-.21-.41c-.25.76-.91,2.46-1.81,2-1.12-.59-.86-2.17-.39-3.08l-1.67.45,1.35.72c.63.35,2.38-.54,1.51-1Z"/><path class="cls-2" d="M78,79.1a2.57,2.57,0,0,0-1.76,1.27,1.38,1.38,0,0,0,.61,1.57c1.33,1.08,3.51.86,4.9.09.34-.19.75-.59.46-1a5.51,5.51,0,0,0-2.15-1.79,1.26,1.26,0,0,0-1.67.44L77,82.38c-.23.43.2.77.59.82a1.29,1.29,0,0,0,1.26-.59l1.45-2.7-1.67.44a4.67,4.67,0,0,1,1.87,1.53c.15-.33.3-.66.46-1a2.49,2.49,0,0,1-2.3.11.92.92,0,0,1-.47-.44c0-.08,0-.07.22-.14.38-.12.92-.43.79-.92S78.41,79,78,79.1Z"/><path class="cls-2" d="M77.32,85.14A2.15,2.15,0,0,0,79,87.92a4.84,4.84,0,0,0,4.33-1,2.28,2.28,0,0,0-.11-3.74c-1.63-1-3.86.39-4.69,1.8-.46.8,1.48.61,1.81,0,.48-.83,1.32-1.49,1.87-.3a1.65,1.65,0,0,1-.74,2.07,1.61,1.61,0,0,1-2.21-1.95c.21-.7-1.73-.42-1.93.24Z"/><path class="cls-2" d="M84.83,70.27c-1.94,1.28-.6,3.79.92,4.76,2.26,1.44,5.36.08,6.39-2.22.93-2-.86-3.38-2.73-3.47a5,5,0,0,0-5.09,3.92c-.15.62,1.78.31,1.92-.28.27-1.19,1-2.67,2.39-2.66a1.83,1.83,0,0,1,1.76,2.23,2.8,2.8,0,0,1-1.57,2.06c-.65.21-1.44-.37-1.89-.76-.82-.72-1.8-2.55-.58-3.35.34-.23.2-.54-.16-.59a2,2,0,0,0-1.36.36Z"/><path class="cls-2" d="M92.44,73a2.17,2.17,0,0,0-1.84,2.68,4,4,0,0,0,2.57,2.92c1.39.51,5.54-.44,5-2.61-.37-1.54-2.61-2.42-4-2.65-1.89-.32-4.21.41-4.31,2.63a6.73,6.73,0,0,0,.42,2.35c.25.74,2.17.19,1.93-.52a4.85,4.85,0,0,1-.32-2.71,1.08,1.08,0,0,1,.32-.55.25.25,0,0,1,.19-.09,4.7,4.7,0,0,1,3.23,1.22,1.53,1.53,0,0,1,.61,1.08.41.41,0,0,1-.16.33,2.27,2.27,0,0,1-.86.35c-1,.27-1.77-.35-2.33-1.24a3,3,0,0,1-.46-1.44,1.27,1.27,0,0,1,.1-.58c.12-.24,0-.07.14-.11s.94-.38.83-.79S92.74,73,92.44,73Z"/><path class="cls-2" d="M95.68,78.07c-1.16,1-1,3-.64,4.29a2.61,2.61,0,0,0,4.09,1.47c1.32-.9,1.18-3,.15-4.09a1.94,1.94,0,0,0-2.15-.38,3.54,3.54,0,0,0-1.84,2.45c-.34,1,1.59,1,1.84.2.12-.38.33-1.31.73-1.53-.46.25-.53-.09-.26.19a2,2,0,0,1,.3.45,2.46,2.46,0,0,1,.21,1.2,1.45,1.45,0,0,1-.15.54c-.09.17,0,.12-.09.12-.78,0-1-1.46-1.08-2A4.54,4.54,0,0,1,97,78.9c1-.84-.55-1.43-1.27-.83Z"/><path class="cls-2" d="M97.89,85.29a3.61,3.61,0,0,0-2.77,1.65A2,2,0,0,0,96,89.57a2,2,0,0,0,1.86-.5l1.46-2.7a.09.09,0,0,0,0-.14c-2.61-2-5.54.92-6.74,3.09-.16.29.69.16.76.14.31-.06,1-.18,1.14-.5a8.46,8.46,0,0,1,1.86-2.43c.33-.27.28-.16.67,0s.26.53.08.86l-1.09,2,1.86-.5a1.88,1.88,0,0,1-1-1.47,1.91,1.91,0,0,1,.18-.88,1.94,1.94,0,0,1,.21-.34c.09-.15.52-.34.28-.31.32,0,.95-.19,1.14-.5s-.7-.15-.76-.14Z"/><path class="cls-2" d="M92.51,87.18c-2-.37-4.78.41-4.71,2.86a2.94,2.94,0,0,0,1.36,2.35c1.26.9,2.45.09,3.33-.92a2.27,2.27,0,0,0-1-3.92c-2.16-.72-4.47.81-5.33,2.74-.39.88,1.54.66,1.81.06.5-1.13,1.38-2.26,2.68-1.56,1.51.81.34,2.48-.59,3.16l1.37-.17a2.41,2.41,0,0,1-1.67-2.1,1.24,1.24,0,0,1,1.6-1.42,1.66,1.66,0,0,0,1.37-.36c.29-.27.22-.64-.19-.72Z"/><path class="cls-2" d="M82.94,89.7c-.56,1.29,1.14,1.33,2,1.12.33-.08.93-.39.81-.83s-.79-.4-1.12-.31c-.14,0,.19.1.17.15.41-1-1.53-.81-1.83-.13Z"/><path class="cls-2" d="M83.51,66.66a5.19,5.19,0,0,0-4.61,2.5,2.44,2.44,0,0,0,1,3.87c1.47.62,3.81.09,3.9-1.78A4.14,4.14,0,0,0,81,67.53c-.8-.27-2.27.88-1.12,1.27a3.23,3.23,0,0,1,1.9,2c.36,1,.09,1.43-.88.91-1.74-.93.58-3.75,2-3.65a1.32,1.32,0,0,0,1.26-.58c.21-.42-.18-.76-.58-.78Z"/><path class="cls-2" d="M74.68,70.41A3.16,3.16,0,0,0,72,72.83,4,4,0,0,0,73.52,76c2.67,2.4,6.2.93,7.61-2,.07-.14.12-.34,0-.46a5.57,5.57,0,0,0-5.7-1.3c-2.17.8-2.84,2.82-2.43,5,.15.76,2.09.27,1.94-.52-.24-1.22-.23-2.84,1.08-3.44,1.1-.49,2.56.38,3.32,1.09,0-.16,0-.31,0-.46-.41.84-1,2-2,2.13a3,3,0,0,1-2.1-.91c-1-.86-2-3-.19-3.51,1.18-.31.87-1.42-.3-1.12Z"/><path class="cls-2" d="M76.8,75.76c-1.3-.8-3-1-4,.31-.79,1-.38,2.73,0,3.78a3.84,3.84,0,0,0,2.64,2.7c2,.33,3.51-1.32,4.41-2.94a.39.39,0,0,0-.15-.56,12.57,12.57,0,0,0-4.18-1.83,3.11,3.11,0,0,0-3.26,2.26c-.28.73,1.67.5,1.94-.2.08-.22.3-.86.6-.85a3.28,3.28,0,0,1,1,.35c.81.36,1.56.85,2.34,1.27L78,79.5a6.46,6.46,0,0,1-1.22,1.67c-.29.27-.26.24-.52.16-.78-.23-1.29-1.31-1.56-2a4.88,4.88,0,0,1-.35-2.61c.06-.34.39-.57,0-.44-.2.06,0,0,.11.07a3.09,3.09,0,0,1,.81.41c.6.37,2.36-.48,1.52-1Z"/><path class="cls-2" d="M74.88,81.92a3,3,0,0,0-2.63,1.16,2.38,2.38,0,0,0,.18,2.18,2.74,2.74,0,0,0,4.64.33,2,2,0,0,0,.42-2.14,2.06,2.06,0,0,0-1.88-.83A3.71,3.71,0,0,0,73,83.75a3.42,3.42,0,0,0-.5,3c.11.54,2,.07,1.93-.52a3.75,3.75,0,0,1,.06-2,1.61,1.61,0,0,1,.36-.58c.19-.2-.1,0,0-.06-.16,0,.14,0,.21.06a1.1,1.1,0,0,1,.45.32,1.12,1.12,0,0,1,.08,1.17,2.47,2.47,0,0,1-.49.76c-.13.14-.2.06.27,0,.17,0,.23,0,.05,0a2.07,2.07,0,0,1-1-1A2.91,2.91,0,0,1,74,83.43a1.39,1.39,0,0,1,.13-.56c.15-.32-.4,0,0,0a1.78,1.78,0,0,0,1.28-.5c.3-.35-.25-.44-.48-.44Z"/><path class="cls-2" d="M75.87,87.88a1.56,1.56,0,0,0,.67,2.26,1.68,1.68,0,0,0,1.26-.09c.08,0,.89-.4.56-.59a1.28,1.28,0,0,1-.58-1.9c.18-.34-.68-.25-.78-.23-.35.06-1,.2-1.13.55Z"/><path class="cls-2" d="M76.9,66c-2.76-.28-4,2.28-2.84,4.58a2.28,2.28,0,0,0,2.6,1.4c1.63-.38,2.35-2.13,2.82-3.56a.48.48,0,0,0-.17-.63,5.75,5.75,0,0,0-4.42-1.4,5.5,5.5,0,0,0-3.68,3c-.53.92,1.44.89,1.84.19s1.14-1.94,2.22-1.92a4.71,4.71,0,0,1,2.55,1.19c-.06-.21-.12-.42-.17-.63a5.22,5.22,0,0,1-1.31,2.49c.21-.16.37.07,0-.19a1.87,1.87,0,0,1-.45-.62c-.36-.75-.67-2.68.3-2.58s2-1.21.68-1.34Z"/><path class="cls-2" d="M72.14,68.7c-2.74-1.72-5.3.84-5.79,3.45a4.78,4.78,0,0,0,.6,3.77c1,1.21,2.67.74,3.94.32,1-.34,2.22-1.08,2-2.31a3.27,3.27,0,0,0-2.13-2.21,4.21,4.21,0,0,0-3.67.37c-1.55,1-1.58,3-1.45,4.6,0,.37,2,0,1.93-.51a6.08,6.08,0,0,1,.49-3.5,1.61,1.61,0,0,1,.38-.44c.23-.21-.35,0,0,0a2.62,2.62,0,0,1,1.11.38c.94.52,2.31,2.27.84,3.06-1.79,1-2.26-2-2.22-3.13a6.28,6.28,0,0,1,.75-2.74,2.67,2.67,0,0,1,.71-.89c.31-.23-.54,0-.13,0a2.19,2.19,0,0,1,.81.36c.47.3,2.09-.49,1.82-.66Z"/><path class="cls-2" d="M69.66,78.39c-.52-.18-1.08-.09-1.59-.27a1.81,1.81,0,0,0-1.75.55c-.88,1.79.24,3.42,2.09,3.81a5.05,5.05,0,0,0,5.26-2.36V80A4,4,0,0,0,68.6,78.6c-2.14.85-2.5,2.94-1.28,4.77.34.52,2.12-.22,1.93-.51-.67-1-1.13-2.32-.32-3.39.35-.46.64-.46,1.16-.31.36.1,1.85,1,1.53,1.51a1.75,1.75,0,0,1-2.75.56,2.14,2.14,0,0,1-.63-2.88l-1.75.56c.52.18,1.08.09,1.59.27s2.21-.56,1.58-.79Z"/><path class="cls-2" d="M72.26,83.28c-2-.36-4.08.45-3.93,2.7a3.65,3.65,0,0,0,4.1,3.56c.9-.14,2.16-.47,2.44-1.47s-.67-1.94-1.35-2.44a2.49,2.49,0,0,0-3.21.2,3.08,3.08,0,0,0-.68,4c.25.51,2.11-.15,1.94-.52-.7-1.43-.67-2.89.81-3.77l-1.53.34a3.13,3.13,0,0,1,2.05,1.93c.43,1.25-.74.86-1.32.37a4.27,4.27,0,0,1-1.26-2.36,3.28,3.28,0,0,1,0-1.17,1.72,1.72,0,0,1,.16-.45.8.8,0,0,1,.18-.27c-.33.06-.32.1.05.11A2.26,2.26,0,0,0,72,83.83c.15-.08.68-.47.23-.55Z"/><path class="cls-2" d="M76.13,89.89a2.47,2.47,0,0,0-2.06-.12c-.32.1-.95.42-.8.87,1.21,3.62,5.87,5,8,1.39a.44.44,0,0,0-.16-.62c-.74-.47-1.26-1.19-2-1.66a1.3,1.3,0,0,0-1.66.45c-.33.6-.65,1.2-1,1.8-.5.92,1.46.86,1.83.16l1-1.79-1.67.44c.74.47,1.26,1.19,2,1.66-.06-.2-.11-.41-.17-.61-1.36,2.31-3.66,0-4.24-1.73-.27.29-.53.58-.8.86.37-.13.45-.14.22,0,.69.36,2.42-.59,1.51-1.06Z"/><path class="cls-2" d="M71.21,64.82a3.39,3.39,0,0,0-2.29,2.78c-.16,1.38,1,1.83,2.18,1.61a5.36,5.36,0,0,0,1.23-.4c.75-.33-.7.16.15,0a6,6,0,0,0,.82-.27A3.45,3.45,0,0,0,75,67a2.34,2.34,0,0,0-1.51-3.36,1.75,1.75,0,0,0-1.67.45,4.36,4.36,0,0,0-1.11,4.33c.16.6,2.09.08,1.93-.52a3.82,3.82,0,0,1,1-3.83L72,64.48a1.86,1.86,0,0,1,1.38,2.17c-.2,1.06-1.15,1.33-2,1.62,0,0-.25-.08-.35-.28a1.52,1.52,0,0,1-.07-.92,2,2,0,0,1,1.06-1.58c.19-.06.84-.42.54-.7s-.93-.09-1.27,0Z"/><path class="cls-2" d="M78.19,61.52c-1.19-.08-2.6.34-2.88,1.65a3.56,3.56,0,0,0,1.1,2.9c1.93,2.11,5.28.76,5.79-1.92.41-2.19-2.67-2.48-4.12-2.22-1.87.34-4.33,1.76-3.23,4a4.77,4.77,0,0,0,.82,1.16c.53.58,2.37-.16,1.78-.8-.87-1-1.36-2.3-.14-2.89.68-.34,2.14-.58,2.8.25.38.47,0,1.16-.23,1.59-.42.71-.68.79-1.33.36A3.31,3.31,0,0,1,77.3,63.7a1.42,1.42,0,0,1,0-.84c.09-.24,0-.1.21-.08a1.4,1.4,0,0,0,1.26-.57c.23-.41-.19-.67-.56-.69Z"/><path class="cls-2" d="M84.75,62l-.9-.48c-.48-.26-1.46-.16-1.67.45-.68,1.9-.13,3.87,2,4.46A4.8,4.8,0,0,0,89.45,64a.48.48,0,0,0-.17-.65,11.65,11.65,0,0,0-4.48-1.73,2.64,2.64,0,0,0-2.09.73c-.66.65-.41,1.79-.2,2.56s2.18.35,1.94-.51c-.1-.36-.4-1.15-.13-1.5-.12.15-.38.08,0,.11a2.71,2.71,0,0,1,.63.13,15.22,15.22,0,0,1,2.88,1.3l-.18-.65a2.22,2.22,0,0,1-2.69,1.31c-1.19-.42-1.25-1.87-.9-2.87l-1.67.45.9.48c.72.39,2.43-.59,1.5-1.1Z"/><path class="cls-2" d="M89.44,63.5l-1.35-.73a1.74,1.74,0,0,0-1.66.26A7.61,7.61,0,0,0,84,68.23c-.13,1.6.34,3.23,2.21,3.16s4.91-1.84,4.79-3.92-3.77-1.42-4.56-.2c-.42.64,1.49.37,1.77-.07s-.16-.24.16-.12a1.18,1.18,0,0,1,.65.7c.36.87-.63,1.7-1.2,2.14-.89.7-1.42.66-1.77-.49a6.73,6.73,0,0,1,1.93-6.23l-1.66.27,1.35.72c.53.29,2.17-.5,1.81-.69Z"/><path class="cls-2" d="M94.57,62.08c-.94-.48-2.21-.9-3.16-.16a1.86,1.86,0,0,0-.49,2.23A3.18,3.18,0,0,0,96,65.62c.3-.22.53-.73.11-1-.87-.5-1.62-1.2-2.54-1.62A4.63,4.63,0,0,0,90.8,63a2.76,2.76,0,0,0-2,1.41c-.46.94.25,2,.81,2.71S92,67,91.39,66.23a2.6,2.6,0,0,1-.76-1.54c0-.47.61-.47,1-.49,1.09-.09,2,1,3,1.55,0-.33.08-.66.11-1-.73.55-1.43-.23-1.77-.91a1.91,1.91,0,0,1-.21-1.1c0-.1-.24.15-.46.15a1.94,1.94,0,0,1,.81.27,1.32,1.32,0,0,0,1.39-.12c.28-.21.54-.75.1-1Z"/><path class="cls-2" d="M96.76,66.13l-1.8-1a1.22,1.22,0,0,0-1.36.37c-1.37,1.66-1.45,3.85.64,4.92a3.71,3.71,0,0,0,2.49.32c.78-.17,1.73-1,1.52-1.89a2.79,2.79,0,0,0-4.42-1.62,2.76,2.76,0,0,0-1.42,2c-.1,1.07.92,1.75,1.77,2.1s2.24-.89,1.09-1.37c-.77-.33-1.24-.92-.46-1.54a1,1,0,0,1,1.49.88c0,.1-.1.14,0,.08s.07-.05-.12-.05a1.84,1.84,0,0,1-1-.4c-1.06-.75-.63-1.94.06-2.78l-1.36.37,1.8,1c.84.45,2.19-.78,1.09-1.38Z"/><path class="cls-2" d="M99.43,68.35c-1.72.62-1.62,2.54-.92,3.92a2.07,2.07,0,0,0,1.61,1.29,2.21,2.21,0,0,0,2.17-1.24c.84-1.66-.22-3.1-2-3.27A4,4,0,0,0,96,72c-.18.73,1.77.44,1.93-.23s.65-1.73,1.54-1.6a1.37,1.37,0,0,1,1.12,1.78,2.24,2.24,0,0,1-.35.73,1,1,0,0,1,.71-.21c.23,0,.12,0,0,0a2.4,2.4,0,0,1-.71-1A3.51,3.51,0,0,1,100,70a2.24,2.24,0,0,1,.1-.63,1.4,1.4,0,0,1,.1-.16c0-.08-.26.1,0,0s.81-.47.51-.79-.93-.15-1.28,0Z"/><path class="cls-2" d="M94.72,72.78c-2,.83.35,3.07,1.32,3.7a3.57,3.57,0,0,0,3.1.33,4.14,4.14,0,0,0,2.4-3.11.3.3,0,0,0-.07-.27,3.94,3.94,0,0,0-3.8-.89c-1.48.53-1.68,1.88-1.32,3.26.19.7,2.12.18,1.94-.52a2.54,2.54,0,0,1,0-1.76c.11-.23,0-.06.26,0s1.1.41,1,.71a4,4,0,0,1-.7,1.44c-.23.31-.23.25-.53.18a3.72,3.72,0,0,1-1.73-1.22,4,4,0,0,1-.57-.83c-.27-.55.11-.45-.5-.21.25-.1.81-.47.51-.79s-.94-.17-1.28,0Z"/><path class="cls-2" d="M104,75.92c-1.48-.75-3.84-.72-4.23,1.29a4.14,4.14,0,0,0,2.56,4.26c.49.18,1.41.09,1.67-.45,1-2.08.07-3.84-1.83-4.93a1.46,1.46,0,0,0-1.67.45c-.92,1.65-2.14,3-2,5,0,.69,2,.27,1.93-.52-.08-1.7,1.14-3,1.92-4.44l-1.67.45c1.46.83,2.36,2.23,1.55,3.87l1.67-.45A3.47,3.47,0,0,1,101.78,78a2.14,2.14,0,0,1,0-1.37c.12-.27,0-.06-.18-.06a2,2,0,0,1,.85.31c.61.31,2.37-.55,1.53-1Z"/><path class="cls-2" d="M101.77,82.34c-1.55-.42-3.24.33-3.3,2a3,3,0,0,0,2.46,3.16,2.14,2.14,0,0,0,1.36-.36c.3-.22.25-.49-.14-.52-.89-.06-1.38-1-1.61-1.8a3.12,3.12,0,0,1-.11-1.29,1.86,1.86,0,0,1,.13-.46.86.86,0,0,1,.1-.16c.12-.16-.9.08-.46.2a2,2,0,0,0,1.36-.22c.18-.09.66-.48.21-.59Z"/><path class="cls-2" d="M102.33,83c-.07.1-1.07.46-.26.21a1.32,1.32,0,0,0,.78-.47.29.29,0,0,0,0-.39c-.16-.24-.61-.39-.85-.52a1.54,1.54,0,0,0-1.67.45,13.53,13.53,0,0,0-1.56,4c-.13.73,1.81.4,1.93-.25a12.74,12.74,0,0,1,1.43-3.7l-1.76.45c.15.08.5.19.5.34v-.39H101c.26-.15.56-.3.82-.46l-.54.16a1.64,1.64,0,0,0-.7.55c-.27.37.23.55.52.56a1.63,1.63,0,0,0,1.28-.53Z"/><path class="cls-2" d="M102.43,89.13a3.22,3.22,0,0,0-1.76-1.66,1.44,1.44,0,0,0-1.54.3,18.62,18.62,0,0,0-3,4.4.38.38,0,0,0,.15.55l.9.49a1.46,1.46,0,0,0,1.37-.16c1.08-.72,2.64-2.51.46-2.94-2.35-.46-4.78,1.31-6.22,3-.77.88,1.1.94,1.57.4a5.93,5.93,0,0,1,3.19-2.18c1.27-.23.23.79-.22,1.09l1.37-.16-.9-.48.15.54a16.92,16.92,0,0,1,2.75-4.1l-1.55.29c.57.31,1.1.55,1.35,1.19s2.21.17,1.93-.52Z"/><path class="cls-2" d="M94,92c-.52-.17-1.07-.1-1.59-.28a1.44,1.44,0,0,0-1.49.52,8.18,8.18,0,0,0-1.07,3.1.38.38,0,0,0,.21.39l.9.49a1.43,1.43,0,0,0,1.67-.45l1.21-2.25a.37.37,0,0,0,0-.45c-2.19-1.88-5.32-2.26-7.39,0-.79.87,1.09.94,1.57.41,1.24-1.37,2.82-.69,4,.36,0-.15,0-.29,0-.44-.41.75-.81,1.5-1.21,2.25l1.66-.45-.9-.48.21.39a7.18,7.18,0,0,1,1-2.79l-1.49.52c.52.17,1.07.1,1.59.28.68.22,2.27-.77,1.16-1.14Z"/><path class="cls-2" d="M88,92.9a4.89,4.89,0,0,0-3.16,0c-.19.05-1,.27-.87.6s.86.15,1,.09a2.28,2.28,0,0,1,1.41.12c.45.22,2.22-.49,1.57-.79Z"/><path class="cls-2" d="M63.06,78.76c-1,.43-.85,1.4-.47,2.25a2.44,2.44,0,0,0,3.09,1.1c1-.27,1.61-.76,1.1-1.79a5.76,5.76,0,0,0-2-2.23A2.08,2.08,0,0,0,63,78.5c-1.31,1.36-1,3.16-.23,4.73.22.45,2.06-.25,1.93-.51-.69-1.37-1.14-3.17,0-4.4l-1.78.41a4.68,4.68,0,0,1,2.13,2.75.48.48,0,0,1,0,.31l.67-.28a1.19,1.19,0,0,1-.41-.15,2,2,0,0,1-.76-.87,2.75,2.75,0,0,1-.27-1,1.49,1.49,0,0,1,0-.47c0-.2.22-.24-.12-.08.13-.06.68-.38.25-.46a2.45,2.45,0,0,0-1.35.26Z"/><path class="cls-2" d="M63.7,84.67c-.7.63.28,1.79.71,2.27a3.47,3.47,0,0,0,3.53,1,4.09,4.09,0,0,0,1.91-1.07,4.46,4.46,0,0,0,.67-.94c.12-.23-.51-.91-.67-1.11-1.15-1.43-3.38-.21-4.35.79-.3.32.27.34.46.32a2.11,2.11,0,0,0,1.29-.46,5.32,5.32,0,0,1,.48-.47c-.21.2-.16.06.14.31s.79.91.45,1.42a2.61,2.61,0,0,1-.37.44c-.35.35.19.14-.12.09a2.58,2.58,0,0,1-1-.44c-.33-.22-2-1.81-1.43-2.32.34-.3-.29-.33-.45-.32a2.33,2.33,0,0,0-1.3.46Z"/><path class="cls-2" d="M68.29,67.24c-.77,1.71,2.21,2.9,3.3,1.86,1.37-1.32,3-3.55,1.35-5.28a1.16,1.16,0,0,0-1.53,0,1.66,1.66,0,0,0-.75,1.26c0,.54.33,1,.35,1.56,0,1,2,.76,2-.14,0-.32-.44-1.61-.26-1.75l-1.53,0c1.2,1.23-.08,2.7-1.05,3.63l1-.26c-.2,0-1.13-.2-1-.57.46-1-1.49-1.06-1.86-.25Z"/><path class="cls-2" d="M82,60.08l-.45-.24a1.72,1.72,0,0,0-1.24.1c-.07,0-.89.39-.58.57l.45.24a1.75,1.75,0,0,0,1.25-.1c.07,0,.89-.39.57-.57Z"/><path class="cls-2" d="M74,53.61c1.07-1.78,3.38-1.56,5.16-2,.19-.05,1-.28.87-.61s-.86-.14-1-.09c-2.5.69-5.39.56-6.89,3.07-.19.32,1.61.19,1.91-.32Z"/><path class="cls-2" d="M73.92,56.15a5.27,5.27,0,0,1,.92-1.23,4.23,4.23,0,0,1,.42-.32s.48-.2.26-.13c.36-.11.92-.42.8-.89s-.78-.49-1.14-.37A5.58,5.58,0,0,0,72.08,56c-.24.42.2.73.58.77a1.31,1.31,0,0,0,1.26-.58Z"/><path class="cls-2" d="M71.25,57.81a7.73,7.73,0,0,1,2.26-.76,1.68,1.68,0,0,0,1.28-.51c.27-.37-.23-.52-.51-.52a6.1,6.1,0,0,0-2,.37c-.43.15-.89.41-1.28.53s-1,.31-.85.71.84.26,1.09.18Z"/><path class="cls-2" d="M72.33,58.9l2.77-.83c.19-.06,1-.28.87-.61s-.87-.15-1.06-.1l-2.77.83c-.19.06-1,.28-.87.61s.87.16,1.06.1Z"/><path class="cls-2" d="M85.16,86.19c-1.6.59-1.92,4.81-2.27,6.14-.91,3.51-1.49,7.51-3.09,10.79-.42.87,1.51.65,1.8.07,1.15-2.23,2-4.7,4-6.36L84,96.47A29.3,29.3,0,0,0,78.17,104c-.47.82,1.48.64,1.81.07,1.43-2.53,3.13-4.88,4.57-7.41.47-.83-1.48-.63-1.81-.07-1.49,2.53-3.53,4.64-5,7.16-.48.82,1.2.55,1.51.35a28.71,28.71,0,0,0,6.67-6.71l-1.81-.07a31.32,31.32,0,0,0-2.52,5.79c-.24.77,1.5.32,1.75.06a15.86,15.86,0,0,0,2.51-3.5L84,99.74c-.09,1.3-.26,2.58-.35,3.88-.06.88,1.72.35,1.93-.23a9.85,9.85,0,0,0,.56-3.18c0-.84-1.9-.45-1.94.22a9.86,9.86,0,0,1-.55,3.19l1.93-.23c.09-1.3.26-2.58.35-3.88.06-.84-1.61-.38-1.87.08a14,14,0,0,1-2.26,3.22l1.74.06a30.45,30.45,0,0,1,2.4-5.49c.48-.9-1.46-.52-1.81-.07A26.11,26.11,0,0,1,78,103.47l1.51.34c1.49-2.52,3.53-4.64,5-7.16l-1.81-.07c-1.43,2.53-3.14,4.88-4.57,7.41l1.81.07a27.91,27.91,0,0,1,5.59-7.23c.85-.77-1.08-.77-1.56-.36-2.07,1.77-3,4.28-4.21,6.65l1.8.07c1.25-2.56,1.79-5.55,2.5-8.29q.69-2.66,1.39-5.3c.17-.65.35-1.29.54-1.93s.62-.9-.09-.63c1.26-.47.11-1.18-.78-.85Z"/><path class="cls-2" d="M48.52,34a4.65,4.65,0,0,1-.67.58,5.1,5.1,0,0,0-.75,1l1.83.18,2.43-4.5L49.52,31l-2.18,4.05c-.35.65.66.86,1.09.71A5,5,0,0,0,51.05,34c.27-.41-.24-.72-.58-.75a1.35,1.35,0,0,0-1.26.57,2.42,2.42,0,0,1-1.12.79l1.09.71q1.08-2,2.18-4.05c.5-.93-1.46-.88-1.84-.18l-2.42,4.5c-.52,1,1.44.84,1.83.18s1-1,1.42-1.56c.28-.41-.23-.72-.57-.76a1.34,1.34,0,0,0-1.26.58Z"/></svg>