<svg id="layer1" xmlns="http://www.w3.org/2000/svg" viewBox="0 0 306.31 453.83"><defs><style>.cls-1{fill:#f7cc94;}.cls-2{fill:#d81e1e;}.cls-3{fill:#f4cb1e;}.cls-4{fill:#492d0c;}</style></defs><path class="cls-1" d="M225.51,100.58a19.82,19.82,0,0,0-.66-2.74c-.25-.77-2.47-2.81-3.32-2.29v0c.64-.13,1.28-.3,1.75-.4l.72,0c-.45-.57-.9-1.1-1.36-1.59-1.23-1.54-2.34-3.17-3.45-4.82-.53-.8-5,.23-5,.32s.07.18.1.27c-.3,0-.62,0-.94,0-.2-.46-.39-.92-.59-1.37-.07-.17-.51-.26-1.08-.29-.2-1.51-.35-3-.49-4.54-.05-.52-5-.24-5,.34h0l-.81,0c0-.56,0-1.12-.08-1.66a18,18,0,0,0,5.37-3.25,5.5,5.5,0,0,0,1.78-1.19,29.51,29.51,0,0,0,4.95-11.83c2.15-1.94,3.16-4.12,4.12-7,.27-.79-.81-.8-1.72-.66,1.79-9.17-1.44-17.1-8.25-24.75-.61-.69-2.59-.13-3.69.73a5.88,5.88,0,0,0-2.66.5,11.28,11.28,0,0,0-5.37,6.61l-.19.26a46.56,46.56,0,0,0-5.77,7.06,3.59,3.59,0,0,0-1.09.73c-.35.48-.68,1-1,1.43a2.34,2.34,0,0,0-.09-.24c-.62-1.36-3.65.17-4.25.87-3.53,4.07-4.33,9.06-4.43,14.33,0,.62.43.82,1,.8-.07.27-.14.54-.2.8-.27,1.16,2,.72,3.47,0,.1.21.21.41.31.61-.3,2.87,1.92,6,4.46,8a.91.91,0,0,0,.4.16,25,25,0,0,1,1.25,4.74c.3,2.32.81,4.37,1,6.51a9.59,9.59,0,0,0-1,2.06c-.19-1.22-1.6-3-2.83-3.12-.84-.84-1.9-1.28-2.5-.33L187,86.85c-1,.73-.16,2.36,1,3.33a3.17,3.17,0,0,0,1,1.51,3.72,3.72,0,0,1-.54,1.07h0a2.18,2.18,0,0,0,.48,2.32,17.84,17.84,0,0,1-1.15,2.26c0,.08-.09.15-.13.22-.39.67,0,1.7.68,2.53-.71,1.23-1.48,2.45-2.29,3.68s1.17,3.36,2.45,3.53a11.78,11.78,0,0,1,.47,4,40.77,40.77,0,0,0-2.71,6.76c-.07.1-.13.19-.21.29l.09.08v0c-.47,1.46,1.72,4.55,3.18,3.64-1.92,6.5,6.09,9.41,11.06,8.66a6,6,0,0,0,1.83-.52c8.3-.32,18.57-3.87,21-7.09l-.09-.09-.32-.12a9.7,9.7,0,0,0,1.37-1.92,13.84,13.84,0,0,0,1.47-5.3C228.07,111.13,228.65,104.77,225.51,100.58Zm-36.36-36.2L189.8,63c.15.24.31.46.47.67-.09.06-.19.11-.28.18a5.69,5.69,0,0,0-.58.48Zm3.25,1c2.19,1,4.93.84,7.7.79a1.84,1.84,0,0,0,.42-.08A3,3,0,0,0,202,66c1.17-.25,2.33-.45,3.5-.66.6,0,1.19.08,1.79.09l.1-.11a5.26,5.26,0,0,0,1.87-.75c.25-.06.51-.11.76-.18a5.38,5.38,0,0,0,2.52-1.6,6.2,6.2,0,0,0,1-.45h.69c-.06.25-.13.5-.2.74-.79.39-1.42.94-1.44,1.49a24.65,24.65,0,0,1-.8,5,14.25,14.25,0,0,0-5.53,4.08c-2.26.71-4.47,1.57-6.73,2.27.25-.3.34-.6.17-.85a29.33,29.33,0,0,0-2.34-3c-.56-1.15-1.11-2.3-1.67-3.43-.26-.53-1-.63-1.72-.49a21.08,21.08,0,0,1-1.72-2.48A2.81,2.81,0,0,1,192.4,65.33Zm16.35-6H208c-.32-.13-.65-.26-1-.37a5.87,5.87,0,0,0,2-.76l.18.64A6.4,6.4,0,0,1,208.75,59.33Zm-6.46-2c0,.2,0,.39,0,.57l-.2,0C202.17,57.69,202.23,57.51,202.29,57.33Zm2.88,1.08.29-.14a1.42,1.42,0,0,1,.08.18l.07.08C205.46,58.5,205.32,58.45,205.17,58.41Zm-9.49,1.23a2.25,2.25,0,0,0-.08.24,11.33,11.33,0,0,0-1.18.68l-.1-.05a4.12,4.12,0,0,0,1.32-.87Zm11.39,53.61q0,.87.06,1.74c-.22.25-.43.51-.65.78.1-.83.23-1.67.39-2.5Zm7.59,3.92-.75.34q.06-.51.09-1a8.51,8.51,0,0,0,1.38,0c0,.2,0,.4.06.6A1.3,1.3,0,0,0,214.66,117.17Zm-17.89,4.4a2.48,2.48,0,0,0,.45,0l0,0Zm3.28-36.47a6.85,6.85,0,0,0-.69-.22c0-.17,0-.33,0-.5C199.55,84.63,199.81,84.86,200.05,85.1Zm-7.81,17.71c0,.59,0,1.16,0,1.73a25.42,25.42,0,0,0-.34,3l-.08,0c-.2-.57-.42-1.14-.68-1.72-.08-.17-.18-.37-.3-.57C191.35,104.41,191.81,103.62,192.24,102.81Zm10,24.63c.91-.12,1.68-.27,1.55-.39l-.24-.21c.29,0,.71,0,1.19-.08a3.65,3.65,0,0,0,2,1.85A21.63,21.63,0,0,1,203,129,2.68,2.68,0,0,0,202.29,127.44Zm5.89.77.22,0-.43.11ZM193,90.11a.87.87,0,0,0,.39-.16q-.19.72-.36,1.5a4.86,4.86,0,0,0-.93-1.08l0-.07C192.39,90.23,192.71,90.16,193,90.11Z"/><path class="cls-1" d="M166.15,183.65a43.07,43.07,0,0,0-1.67-13.09c-.12-.48-1.39-.3-2.57.14a29.28,29.28,0,0,0,2.57-10.57c0-.28-.78-.23-.86-.22a10.85,10.85,0,0,0-1.78.29,33.33,33.33,0,0,1,1-3.87c.29-.87-4.11.37-4.65,1.31-.19.32-.36.65-.51,1a5.47,5.47,0,0,0-4.09-2.71c-1-.17-4.23.71-4.25,1.95-.05,3.76-.75,8.36-.36,12.56a42.25,42.25,0,0,0,.36,6.69c.06.45.9.34,1.84,0,.17.25.34.49.53.72-.27,6,2.44,12.91,9.07,13.09a3.64,3.64,0,0,0,2.43-.35l.41-.14a2.69,2.69,0,0,1,.16.29c.65,1.07,5.11-1.05,4.69-1.73A23.88,23.88,0,0,1,166.15,183.65Z"/><path class="cls-1" d="M261,172.36c-.32.15-.63.31-.94.47,0,0,0,0,0,0l.09-.3h.09v-.29c.14-.48.26-1,.37-1.45l0,0a6.31,6.31,0,0,0,1-3.6c.68-2.63.82-5.31-.15-7.37a36.23,36.23,0,0,1,.18-7c.29-1.9-3.64-.6-4.32-.15-2.93,1.93-6.14,3.64-7.73,6.9a.34.34,0,0,0,0,.16,1.32,1.32,0,0,0-.79,1.09c0,2.63-.19,5.27-.28,7.9-6.14,2.66-8.62,10.79-10.93,16.66a.63.63,0,0,0-.05.32c-.26.42-.51.84-.75,1.28s.53.85.87.93a10.12,10.12,0,0,0,1.86.25c-.75.77.09,1.37,1.08,1.41,5.38.21,9.25-2.92,12.69-6.63,4.67-2,7.77-6,11.41-9.75C266.16,171.54,261.54,172.07,261,172.36Zm-9.32,6.2a6.94,6.94,0,0,0-2.17.47c.17-.25.33-.5.49-.76a7,7,0,0,0,1.78.2Zm-4.19-4.13c-.59.49-1.16,1-1.73,1.48a17.81,17.81,0,0,1,2.45-4C248,172.68,247.74,173.55,247.46,174.43Zm10.61.87a2.94,2.94,0,0,0-.42,0l.15-.19a1.62,1.62,0,0,0,.42-.4,4.1,4.1,0,0,0,.26-.41.79.79,0,0,0,.29.2Z"/><path class="cls-2" d="M183.78,167.92a25.58,25.58,0,0,0,2.57,8,5,5,0,0,0,1.72,1.41c5.94,6.23,18,4.63,25.46,3.14,4.06-.82,9-2.08,11.45-5.69,1.59-2.36,1.28-6,1.22-8.69,0-1.59-.11-3.17-.06-4.76.07-2.44,1.53-4.83,1.81-7.31a1.47,1.47,0,0,0-.2-.9c.07-.27.14-.55.2-.82.33-1.31-2.66-3.19-3.9-2.73a1.58,1.58,0,0,0-.38,0h0a2,2,0,0,0-.95.13l-1,.44a67.45,67.45,0,0,1-10.89,2.49,31.93,31.93,0,0,0-10-.22c-5.27-.84-10.25-2.34-15.75-1.7-1.55.18-.33,2,.22,2.47s1,.85,1.55,1.25c0,.35.08.69.13,1-.49,1.58-2.29,2.78-3.26,4a5.43,5.43,0,0,0-1,2.73c-.69-.11-1.32,0-1.28.74a8.45,8.45,0,0,0,.44,2.87C181.89,166.47,182.8,167.39,183.78,167.92Zm25.57-1.32c0,.07,0,.13,0,.2-.09.41-.19.82-.3,1.22C209.14,167.54,209.24,167.07,209.35,166.6Zm-12.19,7.63c.17-.8.33-1.65.45-2.53.1.18.19.36.3.54-.13.91-.3,1.81-.51,2.69C197.31,174.7,197.23,174.47,197.16,174.23Zm7.51-12.93c-.27-.35-.55-.71-.84-1.05.33.06.65.12,1,.16C204.76,160.7,204.71,161,204.67,161.3Zm.5,12.63.1.06c0,.09.09.18.14.27l-.31,0C205.13,174.18,205.14,174.06,205.17,173.93Zm4.27,3.36c-.67.12-1.34.22-2,.32Zm-3.73-21c-1,.08-2,.13-3,.14l-1.06-.41,1.42-.16C204,156,204.84,156.15,205.71,156.27Z"/><path class="cls-2" d="M277.27,297a158,158,0,0,0-5.36-16.86c-.56-1.44-1.13-2.88-1.68-4.33V271.4a7.08,7.08,0,0,0-1.8-4.93A30.31,30.31,0,0,0,266,257.9a3.41,3.41,0,0,0-.17-.33c-.16-.7-.33-1.41-.51-2.11a77.65,77.65,0,0,0-4.28-17.17,3.75,3.75,0,0,0-.77-1c-1.47-8.64-3.6-17-10.34-23.38a9.19,9.19,0,0,0-.87-.62c-1.82-3.13-3.73-6.22-5.64-9.3a60.59,60.59,0,0,0-7.81-13c-.68-.87-3.74-2.31-3.84-2.49.85,1.52,1.74,3,2.63,4.52-1.08-.7-2.18-1.27-1.92-.84,2.12,3.58,4.45,7.25,6.64,11-.85-.51-1.43-.91-1.43-.9,3.56,8.6,5.53,17.75,10.53,25.86h-.17c0,.08,0,.16,0,.23a3.74,3.74,0,0,0,.86.84,58.1,58.1,0,0,0,3,9.59c.5,1.89,1,3.78,1.57,5.65,1,3.46,1.38,7.34,2.17,11a7.46,7.46,0,0,0-3.66,6.15c0,.45,0,.89,0,1.33a13.86,13.86,0,0,0-3.95,1.45,7.32,7.32,0,0,0-2.18,1.83,7.75,7.75,0,0,0-2.95-.56c-4.82,0-8.73-1.57-13.38-2.17a9.61,9.61,0,0,0-6.74,1.86,12.37,12.37,0,0,0-2.82,2.72c-.9,1.16-.35.45-2.36.53a18.51,18.51,0,0,0-4.86,1,7.57,7.57,0,0,0-6.63-4.3h-.58a7.75,7.75,0,0,0-7.23,5.47,15.56,15.56,0,0,1-3.27.16c-3.26-.28-6.59-.57-9.86-.65l-1.06-.05v0a6.73,6.73,0,0,0-2.22.3c-.75-.14-1.48-.25-2.26-.32a12,12,0,0,0-5.91,1.48c-2.45-3.85-6.84-6.65-10.93-8.86-.21-.13-.42-.27-.64-.38l-.54-.24-1.52-.78a2.19,2.19,0,0,0-1.8-.09,10.73,10.73,0,0,0-3.3.25,14.46,14.46,0,0,0-3.73,1.67,21.49,21.49,0,0,0-3.12.76A81.1,81.1,0,0,0,151,253a1.78,1.78,0,0,0-.16-1c.2-1.06.37-2.13.52-3.2a5.67,5.67,0,0,0,.22-1.5,2.54,2.54,0,0,0-1.16-2c.8-2.6,1.62-5.2,2.4-7.79.34-1.11.7-2.2,1.07-3.29.12-.27.23-.55.35-.83,1.08-2.48,2.08-5,3.06-7.66a138.51,138.51,0,0,0,7-13.39c2.77-5.9,5.31-13.68,10.12-18.24,2-1.92-1.43-5.43-3.25-3.72a47.76,47.76,0,0,0-7.32,8.91,1.73,1.73,0,0,0-1.35,1.14q-.87,2.17-1.79,4.33a129.48,129.48,0,0,0-5.68,13q-1.4,3.21-2.7,6.47c-.72,1.14-1.46,2.26-2.24,3.34a1.91,1.91,0,0,0,.09,2.29c-.3.84-.59,1.69-.87,2.54-3.09,7.38-6.37,14.52-8.56,22.29-.87,3.08-1.57,6.2-2.13,9.35-6.12,5.45-8.77,16.09-9,23.75a2.25,2.25,0,0,0,.38,1.23c0,1.22,0,2.43,0,3.64a36.65,36.65,0,0,0-.53,8.81c-5.15,2.23-5.35,11.2-5.48,15.77a47.38,47.38,0,0,0,.78,11.35,1.73,1.73,0,0,0-.25.63c0,.2-.07.4-.1.6l-.29-.07v1.52c-.06.28-.12.55-.19.82a2,2,0,0,0,.19,1.41v1.42c0,2.22,3.67,3.84,4.73,1.49,0,0,0-.07,0-.11l.12.12a2.48,2.48,0,0,0,2.81.26,16.72,16.72,0,0,0,1.6-1.42,2.81,2.81,0,0,0,.29,0,15.62,15.62,0,0,0,1.36,2.35,5.62,5.62,0,0,0,.61.72c.18.38.35.76.53,1.13,1,2,5,2.12,4.28-.7,0-.19-.1-.41-.17-.63a7.79,7.79,0,0,0,1.85-3.12,1.38,1.38,0,0,0,.63-.88c.89,1.15,2.78,1.52,3.65.52a1.7,1.7,0,0,0,1.73-.5,9.92,9.92,0,0,0,1,.94,14,14,0,0,0,3.23,1.9c.68.6,1.38,1.2,2.14,1.77,5.24,3.95,12,2.5,17.49.13,4.46-1.93,12.93,4.22,17.1,5.46,3.84,1.14,9.47,1,14.12,0a5.65,5.65,0,0,0,3.33.79,22.27,22.27,0,0,0,7.34-1.93c1.34-.62,2.65-1.28,4-2,.1-.05,4.23-1.58,1.93-1.34.79-.09,1.57-.21,2.35-.32a17.81,17.81,0,0,0,5.29,5.19c4.69,3,11.16,1.25,16.09,0,2.42-.6,4.82-.24,7.3-.36a21.19,21.19,0,0,0,4.85-1l1.47-.61a7.89,7.89,0,0,0,6.75-.47h0c4.31,3.37,12.22.88,12.29-5.79,0-1,.07-2.08.13-3.12a8.94,8.94,0,0,0,2.48-3.57C283,319.51,280,307.26,277.27,297ZM137.73,330.56l-.18-.72a2.78,2.78,0,0,0,.63.11c0,.55-.09,1.1-.16,1.62C137.93,331.23,137.83,330.9,137.73,330.56Zm31.84-24.23-1-1c-.55-1-1.08-1.93-1.6-2.71-.19-.28-.37-.56-.55-.84l.84,1.09,3,4.06h0Zm-5.57,0,1.16,1.16.31.31.2.34Zm-9.9-14.73q.14-.64.24-1.29,1.31,1.95,2.6,3.9Zm.63,21.21L153.49,311c.69.83,1.37,1.68,2,2.54.33.67.65,1.35,1,2l-.05-.06C155.87,314.6,155.31,313.7,154.73,312.85Zm1-38.32,0,0,0,0Zm-19.4,32.17c0,.11,0,.23,0,.34l0-.3Zm19.44-38.57h-.62l.49-.34C155.67,267.9,155.71,268,155.75,268.13Zm43.46,2.49-.09,0C199.57,270,200.36,270.26,199.21,270.62Zm77.51,59.75c.25-1.29.46-.87,0,0Z"/><path class="cls-2" d="M167.92,120.67c0,4.8.15,9.67,1.54,14.13,0,.15-.05.29-.06.43a2.4,2.4,0,0,0-.11,1.85c.05.18.51.14,1,0l.11.27c.9,2,4.81,2.57,4.81-.3v-2.87a2,2,0,0,0-.82-1.64c.07-.31.15-.61.25-.92,0-.06-.19,0-.49,0,2.07-6,1.3-14.14-1.51-19.78a2.14,2.14,0,0,0-1.3-1.08c-.81-3.7-1.84-7.5-.73-11,.85-2.7-3.95-4.11-4.79-1.41-1.54,4.89.3,9.5,1.07,14.37C167.34,115.34,167.63,118,167.92,120.67Z"/><path class="cls-2" d="M239.49,102.41c-.14,1.1-.28,2.21-.31,3.33,0,.7.76,1.63,1.13,2.15.06.1,1.7,2,1.79,1.8,1.29-3.53,1.2-7.38,1.77-11.06a2.31,2.31,0,0,0-.5-1.34c.33-.07.54-.32.5-.84a7.49,7.49,0,0,0-1.13-3,.53.53,0,0,0,0-.12c.33-1.11-1.92-2.95-3.26-3a.79.79,0,0,0-.93.54,11.85,11.85,0,0,0-.38,1.92.48.48,0,0,0-.16.38,11.6,11.6,0,0,1-.19,1.18c-.32,0-.62.14-.62.54v0s0,0,0,0v2.48a11.36,11.36,0,0,1-.42,2.12C236.52,100.44,238.16,102,239.49,102.41Z"/><path class="cls-3" d="M237.73,133.86a30.76,30.76,0,0,0-4.89-19.15,4.8,4.8,0,0,0,3-4.66c0-1.11,0-2.37,0-3.66.93-.15,1.74-.45,1.88-.89,1.34-4,1.94-11-1.32-14.31-.44-.44-1.73-.39-2.87-.12,1.42-2.63,1.66-5.63,1.7-8.6.38-.19.63-.4.65-.64.25-3.31-1.11-5.44-3.29-7.77a1.88,1.88,0,0,0-1.22-.3,4.09,4.09,0,0,0-.65-.67,10.74,10.74,0,0,0,1.07-3.63c.83-.23,1.51-.57,1.54-1a9.13,9.13,0,0,0-.7-4.4,1.24,1.24,0,0,0,.71-.67c.93-3.39.8-6.75-1.47-9.24.87-5.07,2.28-10,2.4-15.22.11-4.33-1.94-8.12-4.47-11.5-4.69-6.25-10.61-11.11-18.72-9.24-1.91.44-2.78,1-3,1.54a3.15,3.15,0,0,0-.7-.39,11.79,11.79,0,0,0-5.48-.7,1.75,1.75,0,0,0-1.11,0l-.86.37a16.8,16.8,0,0,0-2.46.92,42.05,42.05,0,0,0-6.83,1.25c-4.7,1.33-8.21,5.51-12.06,8.25a1.53,1.53,0,0,0-.36,2.29,11.5,11.5,0,0,0-2.18,3.26,28.84,28.84,0,0,0-2.63,10.6,16.73,16.73,0,0,0-1.79,10.23,4.31,4.31,0,0,0,1.74,2.06h0c-3,0-3.4,3.37-2.84,7.42a1.16,1.16,0,0,0-.19.8A21.57,21.57,0,0,0,172.25,74c-1.82.14-2.23,1.67-1.91,3.76a2.13,2.13,0,0,0,0,.45,21.55,21.55,0,0,0,5,11.73c.17.33.3.59.36.73a3.53,3.53,0,0,0,1.54,1.38l.13.14c-.06.24-.11.49-.16.73a19.87,19.87,0,0,0-2.3-2.39c-.78-.7-3.39-1.57-3.27.38,0,.25.06.5.08.75a1.39,1.39,0,0,0-2,1.15c-.32,3.31,1.37,8,3.93,11.47a1.22,1.22,0,0,0-1.4,1.22c-.17,4.28,1.3,10.1,5,12.74a1.28,1.28,0,0,0-1.21,1.22,9.7,9.7,0,0,0,1.42,7,3.37,3.37,0,0,0,.64,1c.09.6.18,1.19.28,1.78h-.59a1.07,1.07,0,0,0-1.12,1.08,9,9,0,0,0,.33,2.31,3.47,3.47,0,0,0,.2.5c-.08.66-.17,1.31-.29,2a2.11,2.11,0,0,0-.14.22,1.23,1.23,0,0,0-1.37,1.21c-.09.57-.16,1.14-.24,1.72h-.54a1.05,1.05,0,0,0-1.13,1,84.32,84.32,0,0,0-1.27,11.32,3.32,3.32,0,0,0,1.95,2.63q0,3.08,0,6.15c0,2.06,4.32,4.36,4.32,1.65,0-4.11,0-8.2.25-12.29a.67.67,0,0,0,.14-.15,1.81,1.81,0,0,0,.23.49c.07,1.32.12,2.63.14,4l.09,0c.09,1.9,3.78,3.88,4.23,1.94,1.06.29,2,.25,1.84-1.75h0a.92.92,0,0,1-.07-.32c-.09-.57-.18-1.08-.28-1.65a50,50,0,0,0-1.66-7.66c-.44-2-.87-3.95-1.17-6a2.29,2.29,0,0,0-.88-1.33,24.24,24.24,0,0,0,.31-2.58,1.72,1.72,0,0,0,0-.5h.19c1,0,1.18-1.1,1.06-1.84q-.27-1.59-.51-3.18a7.43,7.43,0,0,0,.87-6,1.2,1.2,0,0,0,1-1.2v-8c.05-.28.09-.56.13-.84l-.14,0a3.45,3.45,0,0,0-1.8-2.44c.1-.47.2-.93.31-1.4a4.07,4.07,0,0,0,.66-1.14,1,1,0,0,0,.69-.85,45.89,45.89,0,0,0,1.35-8.71c0-.92-1.09-2.16-2.2-2.72V93.84a1.87,1.87,0,0,0-.1-.59c.84-3.18.19-6.33-.94-9.44a5.14,5.14,0,0,0-3.32-2.35c-.09-.62-.2-1.22-.34-1.81a1.23,1.23,0,0,0,.48-.58c.17-.44.31-.87.46-1.31.92.36,1.76.18,1.76-1.06V69.81c.22-1.92.33-3.85.36-5.8l-.38-.15a3.63,3.63,0,0,0-3.07-2.74c.09-1.66.22-3.31.38-5l0,0a1.53,1.53,0,0,0,2.11-.15,38.82,38.82,0,0,0,6.66-12.71,3.94,3.94,0,0,0,.89-.11,2.32,2.32,0,0,0,1.79.52,11.14,11.14,0,0,0,1.9-.63,1.61,1.61,0,0,0,1.46-.4c.31-.29.6-.61.89-.92,4.25-3,7-8.53,9.49-12.79a1.53,1.53,0,0,0,.14-.39c1.27-1.18,2.45-2.47,3.6-3.72a.32.32,0,0,0,.07.19c2,2.46,5.48,3.8,8.21,5.7a18.3,18.3,0,0,0,3.85,5.72c.36.38,2.08.32,3.37,0a11.12,11.12,0,0,1,1.75,4.64c-.73.22-1.32.55-1.44.93-.59,1.86-1,3.17-.08,4.89v5.9c0,.43,1.06.47,2.2.32-.09.88-.18,1.66-.21,2.21,0,.27.71.39,1.6.37-.12.73-.24,1.46-.32,2.17,0,.09.1.16.27.21a6,6,0,0,0-1.88.64c-1.16.13-2.25.46-2.2,1.06A6.61,6.61,0,0,0,225.34,65a4.4,4.4,0,0,0,2.45.18,1.86,1.86,0,0,1,.1.25c-.45.19-.75.42-.75.68h0c0,.09,0,.15,0,.22a20.35,20.35,0,0,1-.61,5.7c-1.19.12-2.29.45-2.29,1.07v2.53c0,.6,1.42.49,2.77.2a4.56,4.56,0,0,1,.06,1.71c-.05.33,1.46.42,2.83.22a7.64,7.64,0,0,1,1,3c-.35.18-.58.39-.58.62,0,.42,0,.85,0,1.27l-.25-.3c-.52-.62-4.29-.14-4.77.73-.82.2-1.43.49-1.32.83a8.37,8.37,0,0,0,1.21,2.58,1.19,1.19,0,0,0-.58.6c-.93,3,.09,4.9,2,7.14.32.36,1.53.38,2.66.17.35,1,.68,1.91,1,2.84.22.61,2.06.51,3.43.15,0,.26.06.52.08.79-.62-.6-4.27-.07-4.73.79-.82.24-1.41.56-1.32.81a11.77,11.77,0,0,0,.94,2c.19.42.36.84.52,1.27a16.38,16.38,0,0,0,1.08,4.36c.09.23.44.36.91.41a10.67,10.67,0,0,1-1.07,5.43c-1.45.08-3.14.13-3,1.13h0c0,.22.1.44.14.66-.53.22-1,.51-.67.77a4.76,4.76,0,0,1,.85,1c.53,2.2,1.77,4.35,1.77,6.49v.11h.22a6.38,6.38,0,0,0,2.09.36,30.46,30.46,0,0,1,1.33,8.42c-.42.19-.64.39-.64.63v1.8a2.24,2.24,0,0,0-1.23.56,10.63,10.63,0,0,0-1.43,2.18,1,1,0,0,0-.47.36l-.64,1.27c-.07.15.07.25.34.32a24.58,24.58,0,0,0-.81,5.86,35.33,35.33,0,0,0-.86,8.6c.06.9,4.66.24,4.94-.77a32.79,32.79,0,0,0,.8-7.6c.18.47.38.93.61,1.39.46.91,4.92.27,4.94-.77h0v0C238.47,141.8,238.72,137.81,237.73,133.86Zm-58.89-29.1c0,.07,0,.13,0,.19a6.57,6.57,0,0,1-1.93-1.91A17.09,17.09,0,0,0,178.84,104.76Zm35.8-85.16a16,16,0,0,1,5.51,3.46l.49.43-2.14-.77a14.42,14.42,0,0,0-4.42-1.91q-.41-.22-.81-.48C211.57,19.22,213.87,19.38,214.64,19.6Zm-6.75,4.8c.46-.49.91-1,1.35-1.43a1.27,1.27,0,0,0,.27-.41c.37.41.75.81,1.11,1.23A9.38,9.38,0,0,0,207.89,24.4Z"/><path class="cls-3" d="M195.18,402.18a7.83,7.83,0,0,0-1.11,1.8,13,13,0,0,0-2.18-1.84,7.4,7.4,0,0,0-5.39-1.2,9.9,9.9,0,0,0-1.18-1c-.92-.68-3.38-.49-3.83.81a2,2,0,0,0-.57.63c-2.91,5.22,4.05,11.25,9.73,11.24.22.06.43.15.66.2a2.78,2.78,0,0,0,3.08-.94,6.33,6.33,0,0,0,1.3-.59,4.35,4.35,0,0,0,.57-.45,5.81,5.81,0,0,0,2.57-3.84,7.86,7.86,0,0,0,.89-3.36C199.83,401.46,196.43,400.67,195.18,402.18Z"/><path class="cls-3" d="M225.09,401.31c0-.09.12-.17.16-.25l-.14-.11c-.22-.85-3.81-3.08-3.91-2.89a9.87,9.87,0,0,1-1.82,2.27h-.54s.39.26-.61.27v.68c-.4.29-.82.56-1.25.83-.14.08-.28.14-.41.22h-.9s-.08.09-.12.09-.05.29-.07.43c-.42.17-.86.32-1.3.45-.19-.11-.48-.25-.54-.17s-.14.25-.2.37a8.09,8.09,0,0,1-1.83.21h-.17a9.37,9.37,0,0,0-2.92-1.85c-.89-.18-1.54-.52-2.46-.63H206c0,3.84.17,6.59,3.12,9.2,1.14,1,3.6,3.35,5.28,2.33l.09-.08a3.61,3.61,0,0,0,3.58-2,2.62,2.62,0,0,0,1.66-.48c.61.44,1.65,1.14,1.74,1a19.94,19.94,0,0,0,1.82-6.88A4.41,4.41,0,0,0,225.09,401.31Z"/><path class="cls-3" d="M212.93,395.33h.28a2.42,2.42,0,0,0,1.62.68,21.52,21.52,0,0,0,6.26-.52c2.29-.69,1-3.39-.73-4a2.57,2.57,0,0,0-2-1.14l0-.13a23.86,23.86,0,0,0-6.89.75C208.86,391.73,210.85,395.33,212.93,395.33Z"/><path class="cls-3" d="M184.22,393.33h1.05a1.91,1.91,0,0,0-.43.42l-.23.11c-.78.44-.67.88.24.88a36.16,36.16,0,0,0,5.91-.41h.44a.24.24,0,0,1,0-.08,22.83,22.83,0,0,0,2.38-.57c.65-.2,2.61-1.35.79-1.35H193.2a6.57,6.57,0,0,0,.79-.23c.78-.44.67-.77-.24-.77h-.08s.05-.17.08-.19c-.27,0-.55,0-.82,0a35.32,35.32,0,0,0-4.62.21h-.91c0,.06,0,.1,0,.15a17.86,17.86,0,0,0-2.35.57C184.36,392.25,182.39,393.33,184.22,393.33Z"/><path class="cls-4" d="M186.85,41.78a51.05,51.05,0,0,0,13-6.39,42.78,42.78,0,0,0,5.25-4.53c1.69-1.65,3.78-6.6,5.4-2.55.08.2.39,0,.55,0h.58c.35,0,1.65.08,1.65-.39V26.78a15.78,15.78,0,0,0-2.07.52c.85,6.27,5.48,8.85,9.26,13.4.33.4,2.13-.26,1.78-.68-3.67-4.42-8.3-7.12-9.12-13.24-.07-.46-1.85,0-1.85.52v1.16c0-.23.81-.46,1.27-.69-.37,0-1.4-2.45-2.88-2.57a4.32,4.32,0,0,0-2.92,1c-1,1.11-1.37,2.61-2.38,3.69a46.54,46.54,0,0,1-5,4.56,42.51,42.51,0,0,1-13.2,6.78c-1.29.45-.07.78.69.52Z"/><path class="cls-4" d="M202.52,16.65c-22.34.52-38.18,25.06-26.18,44.94.33.54,2.21-.07,1.8-.75-11-18.14,2.24-42.61,23.63-43.1.71,0,2.06-1.12.75-1.09Z"/><path class="cls-4" d="M206.37,16.46c11.3-.36,22.33,7.56,26,18.22,3.24,9.5-1.73,20.38-3.92,29.59-.12.5,1.79.2,1.92-.32,2.69-11.33,7.9-23.05,2-34.25-4.69-8.9-15.34-14.41-25.15-14.09-.56,0-2.11.89-.82.85Z"/><path class="cls-4" d="M185.89,42.33c-2.51,2-2.14,6.29-2.67,9.14-.16.84,1.8.54,1.94-.21.25-1.34.39-2.71.58-4.06s.31-3.32,1.38-4.17-.57-1.22-1.23-.7Z"/><path class="cls-4" d="M186.3,46.55a16.87,16.87,0,0,0-4.82,10.14c-.06.84,1.44.38,1.75.08,3.4-3.24,4.57-8.15,6-12.46.26-.79-1.61-.36-1.87.07-3.08,4.9-6.18,9.74-8.17,15.21-.29.78,1.5.3,1.75.07,4.65-4.38,7.27-10.39,10.55-15.78.5-.83-1.46-.63-1.81-.08-.63.94-1.12,2-1.74,2.89-.42.63.73.64,1,.56,9.1-2.29,12.35-11,17.57-17.85.58-.77-1.23-.54-1.52-.36a25.56,25.56,0,0,0-6.67,6.65c-.55.72,1.41.61,1.81.08a23,23,0,0,1,6.08-6.09l-1.51-.36c-4.71,6.14-7.78,14.8-16,16.89l1,.56c.62-1,1.11-2,1.74-2.89l-1.81-.08c-3.2,5.27-5.76,11.21-10.31,15.49l1.75.08c2-5.37,5-10.11,8.05-14.91l-1.87.07c-1.34,4.09-2.4,8.8-5.61,11.86l1.75.08a15.79,15.79,0,0,1,4.45-9.55c.78-.86-1.1-.88-1.57-.37Z"/><path class="cls-4" d="M209.87,27.74c-.67,2.47,1.82,4.92,3.28,6.59,2.94,3.35,6.42,6.21,9,9.84s-1.5,5.69-1,9.16a1.65,1.65,0,0,0,1.18,1.56c2.59.56,3.26.45,3.69,3.69.08.66,2,.22,1.93-.52A15.1,15.1,0,0,0,226.86,54c-.13-.3-.56-.33-.84-.28-5.11.9-1.16-5.45-.86-7.19.26-1.58-1.35-3.39-2.22-4.5-2.51-3.17-12.38-9.93-11.14-14.53.19-.72-1.75-.43-1.93.24Z"/><path class="cls-4" d="M172,58c-8.13,5.85,2.15,21.34,8.56,24.63.65.34,2.39-.57,1.51-1-5.49-2.81-16-17.73-8.82-22.87,1.06-.76-.55-1.23-1.25-.73Z"/><path class="cls-4" d="M182.64,63.65c-.52,4.16-.15,8.49-2.83,12l1.8-.35c-2.12-3.11,0-7-1.67-10.3-.28-.57-1.4-.31-1.74.08A7.57,7.57,0,0,0,176.27,70c0,.83,1.9.45,1.94-.23a6.64,6.64,0,0,1,1.55-4.34l-1.75.08c1.68,3.37-.4,7.3,1.81,10.55.36.54,1.51,0,1.8-.35,2.75-3.62,2.42-8,3-12.31.1-.81-1.85-.46-1.94.23Z"/><path class="cls-4" d="M170.28,74.87c-6.17,3.31,1.71,15.31,6.18,16.91.55.2,2.31-.62,1.55-.89-3.52-1.26-11.66-12.78-6.55-15.52,1.14-.62-.6-.82-1.18-.5Z"/><path class="cls-4" d="M182.1,79.62c-2.39,4.89.64,10.43-3.36,14.88l1.78,0a5,5,0,0,1,.54-3.67c.47-1-1.48-1.08-1.85-.25a6.11,6.11,0,0,0-.62,4.44c.22.78,1.39.49,1.78.05a10.68,10.68,0,0,0,2.72-6.51c.28-3-.49-6,.87-8.73.5-1-1.46-1.07-1.86-.26Z"/><path class="cls-4" d="M170.1,90.64c-7.62,5.79,5.53,18.74,11.75,19.71.54.09,2.26-.8,1.2-1-5.47-.86-18.23-13.35-11.42-18.52.85-.64-1.09-.56-1.53-.23Z"/><path class="cls-4" d="M185.54,94.49a11.61,11.61,0,0,1-4.83,12.85l1.54.07c.71-2.9,2.32-5.39,3.48-8.11.22-.53-1.18-.22-1.32-.16a24.91,24.91,0,0,0-5,3.11l1.71,0c.44-1.54.53-3.15,1.11-4.64a16.27,16.27,0,0,1-2,.4v1.16c0,.47,2,.14,2-.51V97.45c0-.56-1.75,0-1.91.4a45.55,45.55,0,0,0-1.15,4.64c-.19.67,1.52.08,1.72,0a22.27,22.27,0,0,1,4.23-2.69l-1.31-.16c-1.16,2.72-2.77,5.21-3.48,8.11-.15.61,1.34.19,1.54.06,4.48-2.79,7.29-8.6,5.6-13.79-.18-.57-2.1,0-1.93.52Z"/><path class="cls-4" d="M170.48,106.07c.07,5.59,2.07,12.72,8.69,13,.67,0,2.08-1,.77-1-5.95-.25-7.47-7.75-7.53-12.5,0-.53-1.94-.18-1.93.51Z"/><path class="cls-4" d="M185.54,109.4a26.64,26.64,0,0,1-5.61,10.13l1.75.08a9.63,9.63,0,0,1,1.18-4l-1.27.54h0l-.6-.48a3.34,3.34,0,0,1-.12.63c-.18.78,1.78.48,1.94-.22a3.34,3.34,0,0,0,.12-.63c0-.34-.3-.45-.61-.47h0a1.48,1.48,0,0,0-1.28.54,10.13,10.13,0,0,0-1.3,4.26c-.06.82,1.43.4,1.75.07a28.07,28.07,0,0,0,6-10.72c.25-.72-1.7-.46-1.93.22Z"/><path class="cls-4" d="M172.8,118.69c-1.72,4.76,5,10,9.06,10.8.58.12,2.27-.79,1.19-1-3.7-.76-9.87-5.76-8.32-10,.22-.61-1.71-.36-1.93.26Z"/><path class="cls-4" d="M185.62,119.18c-2.2,2.33-3.08,5.31-4.22,8.22a7.38,7.38,0,0,0,1.83-.41v-2.32c0-.26-.59-.17-.71-.15-1.46.29-1.63,1-2.23,2.3-.18.4,1.69.22,1.94-.31.15-.31.31-.64.44-1,.29-.43,0-.5-.52-.22-.27,0,.08-.09-.92-.14v2.32c0,.47,1.9,0,2.05-.42,1.1-2.82,1.91-5.74,4-8,.46-.48-1.35-.27-1.7.09Z"/><path class="cls-4" d="M177.65,131.26c-1.54,1.12.9,1.46,1.74,1.46,1.76,0,4.23-.48,5.17-2.16.08-.13-.07-.19-.16-.22a5.4,5.4,0,0,0-5.14,1c-.35.3.3.36.46.35a2.21,2.21,0,0,0,1.29-.47,1.67,1.67,0,0,1,1.81-.13c0-.08-.11-.15-.16-.22a2.32,2.32,0,0,1-2.21,1c-.14,0-1.83-.19-1.31-.57.29-.21.27-.43-.12-.45a2.36,2.36,0,0,0-1.37.37Z"/><path class="cls-4" d="M178.76,130.7c-1.88,0-5.66.11-5.45,2.9.11,1.57,3,1.71,4.05,1.74a13,13,0,0,0,5.77-1c1.41-.67,2.07-1.85.66-2.92-.56-.42-2.32.39-1.52,1,1.74,1.32-3.11,1.75-3.74,1.76a5.48,5.48,0,0,1-2.94-.52.71.71,0,0,1-.33-.76c.2-1.18,1.92-1,2.78-1s2-1.2.72-1.2Z"/><path class="cls-4" d="M178,134.91c-11.18,1.46-6.46,22.81-2.86,29.09.28.48,1.83.12,1.93-.41,1.09-5.54,1.23-11.18,1.74-16.8l-1.93.41a32.33,32.33,0,0,0,.58,6.37c.12.58,1.79,0,1.93-.4.58-1.74,1.15-3.48,1.73-5.22l-1.35.61c-.57,0,1.45,10.39,1.75,11.38.19.64,1.71-.05,1.92-.4,4.38-7.42,2-15.93.59-23.86-.1-.53-2-.08-1.94.51,1.38,7.86,3.77,16.29-.57,23.64l1.93-.4a44,44,0,0,1-1.74-11.74c0-.21-.45-.36-.57-.36h-.58c-.38,0-1.21.33-1.35.76-.58,1.74-1.16,3.56-1.74,5.29l1.92-.36a33.08,33.08,0,0,1-.58-6.36c0-.46-1.87-.09-1.92.42-.51,5.61-.65,11.26-1.74,16.8l1.93-.4c-2.71-4.71-8-26.55.61-27.68.86-.11,1.67-1.06.31-.89Z"/><path class="cls-4" d="M225.48,56.6a3.48,3.48,0,0,0-2.15-.72c-.44,0-1.31.18-1.31.77,0,3.75-.76,9.72,2.7,12.33,2.9,2.18,7.2,1.3,6.77-2.81-.09-.89-2-.42-1.93.52.31,3-2.78,1.9-3.94.53a7.59,7.59,0,0,1-1.37-3.48,34.28,34.28,0,0,1-.27-7.23l-1.32.77,1.33.44c.7.49,2.4-.48,1.49-1.12Z"/><path class="cls-4" d="M231.09,58.24c4.26,1,2.31,11.65.28,14,.62-.08.86-.17,1.86-.25V70.22c0-.56-2-.2-2,.52v1.74c0,.69,1.7,0,1.9-.25,2.5-2.85,4.2-13.81-.87-15-.58-.13-2.25.76-1.17,1Z"/><path class="cls-4" d="M234.83,63.46c-1.16,2.44-1.73,5.1-2.9,7.53-.44.93,1.51.81,1.83.14,1.16-2.44,1.73-5.1,2.89-7.53.45-.93-1.5-.81-1.82-.14Z"/><path class="cls-4" d="M228.55,67.48c-6.74-.42-4,17.56,6.21,14.07,1.15-.39.83-1.69-.35-1.29-3.58,1.23-6-1.08-7.09-4.32-.29-.85-1.45-7.21.55-7.09.92.06,2-1.29.68-1.37Z"/><path class="cls-4" d="M236,66.93c-3.12,8-1.78,17.29-8.57,23.58l1.78.15a20.76,20.76,0,0,1,3.41-10.25h-1.89a25.92,25.92,0,0,1-2.26,7.94c-.4,1,1.54.88,1.84.16a27,27,0,0,0,2.37-8.28c.08-1-1.58-.49-1.89,0a21.26,21.26,0,0,0-3.53,10.59c-.05.93,1.39.51,1.77.16,7-6.48,5.59-15.67,8.81-23.91.38-1-1.55-.89-1.84-.16Z"/><path class="cls-4" d="M226.43,78.81c-3.82,2.19-3.25,8-2.39,11.61a13.46,13.46,0,0,0,11.35,10.23c.85.12,2-1.06.71-1.25-4.88-.73-8-4-9.78-8.39-1.19-3-2-9.53,1.35-11.48,1.14-.65-.52-1.13-1.24-.72Z"/><path class="cls-4" d="M235.93,82.9c0,6.84.66,14.32-3.46,20.2l1.92-.44c-.21-3.37,1.57-6,3.46-8.61l-1.9.36c-1.25,3.8-3.38,7.2-4.63,11-.1.3,1.74.1,1.9-.36,1.25-3.81,3.38-7.21,4.63-11,.12-.38-1.67,0-1.9.36-1.95,2.68-3.71,5.35-3.49,8.77,0,.4,1.75-.2,1.91-.44,4.15-5.93,3.52-13.47,3.5-20.35,0-.26-1.94,0-1.94.51Z"/><path class="cls-4" d="M227.9,95.41c-3,4.72-1.19,14.9,4.75,16.63.52.15,2.26-.66,1.55-.86-5.45-1.59-7.28-11.44-4.52-15.81.44-.69-1.48-.43-1.78,0Z"/><path class="cls-4" d="M238.26,100.77c-3.38,5.56-1.76,12.67-7.89,16.6-.81.52,1.13.28,1.48.06,6.39-4.1,4.79-11.2,8.32-17,.14-.23-1.61-.14-1.91.34Z"/><path class="cls-4" d="M228.18,111.27c-6.53,4.18,1.4,15.09,7.45,14.83,1,0,1.56-1.24.23-1.18-4.64.19-11.43-9.79-6.46-13,1.11-.71-.55-1.12-1.22-.68Z"/><path class="cls-4" d="M237.08,112.85c-.78,2.89-1,5.75-2.08,8.58s-3.27,5.46-5.27,7.88c-.78.93,1.07,1.14,1.6.51a39.86,39.86,0,0,0,5.11-7.32c1.58-3.11,1.7-6.51,2.59-9.82.24-.88-1.73-.63-1.95.17Z"/><path class="cls-4" d="M230.71,130.23c-.45,1.81,2.8,1.94,3.84,1.87,2.14-.15,4.4-1.44,4.48-3.78a.49.49,0,0,0-.4-.52c-1.89-.43-8.27-.33-6.75,3.18.34.8,2.25.23,1.93-.52-.85-2,2.58-1.69,3.68-1.44l-.41-.53a2.28,2.28,0,0,1-2.32,2.31c-.42,0-2.29,0-2.1-.75s-1.75-.6-1.95.18Z"/><path class="cls-4" d="M231.31,133.2c-4.74,7.32-3,16.77-2.91,25,0,.49,1.77,0,1.93-.41a89.56,89.56,0,0,0,5.21-16.8c.11-.53-1.75-.16-1.91.32a24.59,24.59,0,0,0-1.17,8.21c0,.53,1.74-.14,1.92-.42a13.72,13.72,0,0,1,2.24-2.79l-1.79.39a11.11,11.11,0,0,1,2.26,4c.19.5,1.8,0,1.92-.41,1.75-5.65.69-11.68.59-17.48,0-.39-1.94-.08-1.93.52.09,5.72,1.16,11.71-.57,17.27l1.92-.41a12.44,12.44,0,0,0-2.37-4.14c-.34-.38-1.52.11-1.79.39a18.7,18.7,0,0,0-2.39,3l1.92-.42a24.59,24.59,0,0,1,1.15-8l-1.91.32a88.76,88.76,0,0,1-5.22,16.79l1.93-.41c-.1-8.2-1.83-17.53,2.88-24.81.19-.28-1.59-.18-1.91.32Z"/><path class="cls-4" d="M185,67.27c1,5.15,4.14,7.69,7.8,11.1,2.74,2.54,6.46,6.86,10.7,6.4,6.17-.67,11.87-7,14.7-12.14.14-.26-1.64-.15-1.91.34-2.91,5.25-9.7,13.31-16.28,9.38-5.35-3.2-11.83-9.44-13.08-15.6-.08-.41-2,0-1.93.52Z"/><path class="cls-4" d="M207.14,51.14c2.79.83,10.58-5.82,10.84-.09,0,.27,2,0,1.93-.52-.11-2.58-2.22-2.72-4.32-2.39a19.77,19.77,0,0,0-3.6,1c-.73.27-2.75,1.4-3.25,1.25s-2.1.55-1.6.7Z"/><path class="cls-4" d="M211,52c-.34.19-1,.63-.65,1.11s.9.34,1.32.34c1.24,0,2.47-.23,3.7-.26.34,0,1.53-.59,1-1.08-1.76-1.58-4.59-1.41-6.81-1.41-.36,0-1.31.31-1.31.75V52c0,.3.39.42.64.54a13.14,13.14,0,0,0,5.22.62c.43,0,1.72-.82.91-1.2a3.93,3.93,0,0,0-3.87-.1c-1.35.88-1.19,2.45-.7,3.79a2.21,2.21,0,0,0,3.93.44,4.19,4.19,0,0,0,.35-3.84c-.37-.71-1.41-.65-2-.38a5.59,5.59,0,0,0-2.2,2.27c-.35.55.46.77.83.76a6,6,0,0,0,4.37-2.15c.85-.85-1-1.08-1.6-.51a3.38,3.38,0,0,1-2.58,1.33l.82.75a5.55,5.55,0,0,1,1-1.31c.18-.15-.32,0-.54-.07,0,0,0,0,.09.13a3.29,3.29,0,0,1,0,2,2.46,2.46,0,0,1-.31.74c-.17.23.59.11.26-.13a2.8,2.8,0,0,1-.83-2.16c0-1.08.8-.84,1.54-.5l.85-1.2a11.34,11.34,0,0,1-4.38-.53.84.84,0,0,1,.2.53v-.58c0,.25-.51.5-.86.75,1.55,0,3.86-.21,5.1.91.33-.36.71-.72,1-1.08-.64,0-1.26.11-1.9.16-.41,0-.82.07-1.24.09-.81,0-.21-.13-.18.29l-.16.52-.2.13c1.15-.64.1-1.57-.83-1Z"/><path class="cls-4" d="M198.32,58.77c-.7,1.35-1.66,2.69-1.79,4.25-.05.64.72.71,1.17.62,1.38-.25,2.89.42,4.28.51a5,5,0,0,0,3.71-1.31c1-.87-.54-1.6-1.3-.93-1.9,1.68-4.76-.08-7.06.35l1.16.63c.12-1.4,1.06-2.65,1.69-3.87.51-1-1.45-1-1.86-.25Z"/><path class="cls-4" d="M192.77,67.63c7.92-.39,16.54,3.59,22.33-3.88.74-.94-1.1-1-1.58-.44-3.15,3.82-5.85,9.59-11.6,9.44-3.82-.1-5.45-5.3-9-6.33-.72-.21-2.28.85-1.15,1.18,2.67.76,3.79,3.4,5.89,5a7.78,7.78,0,0,0,6.08,1.34c5.37-.6,8.37-6.46,11.41-10.16l-1.58-.44C208.37,69.94,200,66,193,66.39c-1,0-1.55,1.3-.22,1.24Z"/><path class="cls-4" d="M196.52,52.56c-2.3-1.63-3.84-4.07-7-3.61-.58.09-1.69.93-.66,1.31a22.48,22.48,0,0,0,3.81.82,3.09,3.09,0,0,1,2.74,2.86l1.06-.93a34.58,34.58,0,0,0-7.8.62c-.29.07-.8.35-.8.72,0,1.71,2,2.18,3.43,2.18A4,4,0,0,0,195,53.6c.16-.48-.59-.59-.88-.59-1.67,0-3,.17-3.91,1.74a.5.5,0,0,0,.36.72c2.06.6,4.3,0,4.43-2.45,0-.5-.49-.59-.88-.59a18.72,18.72,0,0,0-5.48.62c-1,.29-1.06,1.35.08,1.31,2.59-.08,5-1.42,5.12-4.23,0-.86-1.18-.59-1.61-.34-1.47.89-1.49,2.41-1.5,4,0,1,1.95.66,2-.17,0-1-.18-2.38.81-3l-1.61-.33c-.08,1.87-1.18,2.66-3,2.72,0,.43.05.87.07,1.31a16.54,16.54,0,0,1,4.95-.54l-.88-.59c-.05,1-.34,1.32-1.36,1l.36.73c.41-.76,1.1-.58,1.88-.58l-.88-.59a1.76,1.76,0,0,1-2.12,1.34c-.66-.13-1.14-.37-1.14-.93l-.81.71a32.77,32.77,0,0,1,7.27-.53c.47,0,1.16-.39,1.06-.93-.71-4-4.34-3.32-7.35-4.43l-.66,1.31c2.47-.37,3.93,2.06,5.71,3.34.67.47,2.38-.46,1.5-1.09Z"/><path class="cls-4" d="M206,44.23c3-.57,5.95-2.18,9-2.29,0-.23,0-.45.07-.67l-2.61.87a8.27,8.27,0,0,1-2.11.53c-.43,0-2.21.66-1.24.66h1.24c-.43,0-2.21.59-1.24.59,2.24,0,4.54-1.33,6.64-2,.57-.19.9-.75.07-.73-3.32.13-6.29,1.71-9.51,2.32-.79.15-1.69,1-.34.75Z"/><path class="cls-4" d="M212.18,82.74c0,.52-.22,1.61.08,2.05a8.65,8.65,0,0,0,1.58,1.73,10.06,10.06,0,0,0,3.95,1.93,1.5,1.5,0,0,0,1.37-.36.46.46,0,0,0-.22-.82,9.47,9.47,0,0,1-3.22-1.49,6.65,6.65,0,0,1-1.33-1.32c-.42-.52-.27-1.28-.27-1.91,0-.93-1.94-.57-1.94.19Z"/><path class="cls-4" d="M193.08,81.07a6,6,0,0,1-4.67,4.66c-.33.07-1,.19-1.12.55s.66.26.78.23c3.18-.69,6.16-2.38,6.92-5.76.11-.5-1.79-.19-1.91.32Z"/><path class="cls-4" d="M243.15,91.34c7.75-.31,15.23-3.18,21.12,3.57,3.61,4.15,4.88,10.09,5.57,15.38a65.55,65.55,0,0,1-.28,16.85c-.88,6.81-5,11.57-8.08,17.44-.46.86,1.49.7,1.81.09,3.42-6.42,7.38-11.36,8.34-18.76a65.68,65.68,0,0,0-.19-18.47c-.89-5.78-3.1-11.54-7.54-15.49-5.83-5.17-13.66-2.06-20.51-1.78-1,0-1.57,1.22-.24,1.17Z"/><path class="cls-4" d="M254.91,150.24c3.06-1.82,6.27-3.45,8.86-5.94.85-.83-1-1.06-1.6-.51-2.47,2.38-5.6,3.91-8.52,5.65-1.13.67.5,1.25,1.26.8Z"/><path class="cls-4" d="M252.92,151c-3.59,0-8.48-.09-10.55,3.42-.29.5.43.61.77.55a8.63,8.63,0,0,0,3.63-1.4l-1.57-.17a36,36,0,0,0-2.31,6.38c-.14.52.85.43,1.09.35,3.35-1.09,5.11-3.48,7.14-6.25l-1.86.1c-.59,5.07,4.28,2.23,6.59.64a15,15,0,0,1,8.71-3.24c1.8-.12,2.35-1.4,2.27-3,0-.62-2-.22-1.93.52.07,1.36-5,1.71-6.32,2.43-1.45.81-7.86,6.44-7.39,2.4.09-.84-1.6-.26-1.87.1-1.54,2.11-2.93,4.47-5.6,5.33l1.1.36a36.19,36.19,0,0,1,2.31-6.37c.31-.64-1.37-.29-1.56-.16l-2.17.91.77.55c1.55-2.63,5.45-2.36,8-2.37.72,0,2.06-1.09.76-1.09Z"/><path class="cls-4" d="M243.07,146.41a2.29,2.29,0,0,0-1.46.43c-.34.29-.2.53.1.73s1.14.42,1.18.79c.06.61,2,.19,1.93-.52,0-.36-.48-.59-.76-.76l-.52-.27-.24-.13c-.07,0-.07,0,0,0-.07-.07-.06,0,0,.17l-.37.39-.64.22h0a1.64,1.64,0,0,0,1.28-.52c.26-.37-.22-.54-.52-.54Z"/><path class="cls-4" d="M241.73,139.67c1,4.83,6.05,9.17,10.8,10.12.4.08,1.51-.08,1.56-.65.31-3.66-1.67-6.13-2.9-9.41l-1.86.64c1.07,1.28,1.81,2.77,2.89,4.06.42.49,1.69,0,1.87-.5A87.26,87.26,0,0,0,257,132.34l-1.93.38c.54,3.33-.29,8,2.39,10.55.5.48,2.32-.26,1.79-.76-2.55-2.43-1.73-7.13-2.25-10.31-.11-.69-1.83-.18-1.93.38a85.63,85.63,0,0,1-2.9,11.58l1.86-.5c-1.07-1.28-1.81-2.77-2.89-4-.37-.44-2.11,0-1.86.64,1.19,3.16,3.19,5.57,2.89,9.12l1.56-.65c-4.41-.88-9.12-5.1-10.05-9.57-.15-.68-2.08-.2-1.93.52Z"/><path class="cls-4" d="M165.65,93.07c-13.89-4.72-25.1,4.49-29.37,17.42-5.05,15.3,2.11,35.54,19.75,38.22.83.13,2-1,.71-1.22-16.06-2.45-22.2-20.26-19.33-34.17,2.67-12.93,13.26-23.79,27.09-19.09.7.24,2.27-.78,1.15-1.16Z"/><path class="cls-4" d="M154.32,149.05c-3.13,1.18-6.11,2.09-8.65,4.34-.06.05-.16.19,0,.25,5.3,2.68,11.8,1.81,17.49,2.94.36.07,1.63-.08,1.75-.55a7.84,7.84,0,0,1,1.16-2.31c.12-.18-.25-.21-.33-.22-3-.24-5.66-1.67-8.4-2.83l-1.71.69a22.23,22.23,0,0,0,5.38,1.18l1.26-.77a18.51,18.51,0,0,1-4.47-.38c-.47.25-.95-.06-1.42.94h2.31c.4,0,2.2-1,1.26-1h-2.32c-.25,0-2.06.52-1.42.68a18.93,18.93,0,0,0,4.8.57c.37,0,2.24-.72,1.26-.8a21,21,0,0,1-5-1.14c-.43-.15-1.94.59-1.7.69,2.1.89,4.15,1.85,6.32,2.56a12.26,12.26,0,0,0,2.2.36,7.66,7.66,0,0,0-1,2.13l1.75-.54a84.86,84.86,0,0,0-9.29-1,35.89,35.89,0,0,1-5.75-.93c-4.37-1.11,3.65-3.78,5.31-4.41,1.29-.49.06-.7-.66-.42Z"/><path class="cls-4" d="M154.39,144.26c-2.09-1.61-2.23-5.59-2.25-8,0-.51-1.94-.16-1.93.51,0,2.52.19,6.52,2.38,8.22.49.38,2.25-.38,1.8-.73Z"/><path class="cls-4" d="M148.47,129.09c.09,5,1,14,6,16.61a1.37,1.37,0,0,0,1.73-.6,32,32,0,0,0,1.85-10.43,12.07,12.07,0,0,0-1.82.22v12.16c0,.75,1.08.48,1.46.22,2.58-1.75,2.44-4.94,4.29-7.23l-1.9.06a21.07,21.07,0,0,0,.57,5.36c.08.34.57.35.84.33A4.51,4.51,0,0,0,164,145c1.13-.66-.55-1.06-1.22-.67l-1,.33.85.32a19.41,19.41,0,0,1-.58-5.06c0-.93-1.55-.34-1.88.06-1.58,2-1.46,5.2-3.61,6.67a16.42,16.42,0,0,0,1.73.22V134.67c0-.87-2.07-.49-2.09.22a31.94,31.94,0,0,1-1.81,10.42l1.7-.6c-4.52-2.39-5.52-11.26-5.61-15.83,0-.88-2-.48-1.95.21Z"/><path class="cls-4" d="M186.19,125.88c2.82,4.37,11.21,10,16.15,5.57l-1.67.23c4.28,4,9,.37,13.92-.64,2.68-.55,4.76-2,7-3.55,3.72-2.67,3.87-.33,4.73-4.42.15-.72-1.79-.4-1.93.25-.51,2.44-3.18,3-5.11,4.42-2.78,2-13.59,6.18-16.78,3.19-.41-.39-1.3-.1-1.67.22-3.74,3.33-11-3.3-12.81-6-.34-.53-2.22.1-1.79.75Z"/><path class="cls-4" d="M179.73,162.07c-1,5.2,4.35,9.54,2.37,14.87-.39,1.06,1.55,1.09,1.86.25a10.3,10.3,0,0,0-.27-7.23c-.86-2.57-2.56-5.22-2-8,.21-1-1.77-.76-2,.14Z"/><path class="cls-4" d="M230.68,159.71c-5.27,2-5.16,11.73-5.18,16.27,0,1,1.95.7,1.95-.16a54,54,0,0,1,.5-6.95c.34-2.44.88-7,3.58-8.05,1.24-.47.14-1.49-.85-1.11Z"/><path class="cls-4" d="M181.55,178.59c5.41,4,12.49,4,18.93,3.58,8.72-.54,17.24-2.72,25.86-4,.91-.14,1.61-1.24.27-1-6.79,1-13.5,2.51-20.31,3.44-7.35,1-16.61,2-23-2.71-.54-.4-2.31.36-1.8.74Z"/><path class="cls-4" d="M185.92,149.24c11.81,3.18,31.76,6.85,41.34-3.26.8-.85-1.09-.9-1.57-.39-8.75,9.23-27.77,5.44-38.6,2.53-.68-.18-2.29.82-1.17,1.12Z"/><path class="cls-4" d="M165.27,95.65c.11,8.65,1.52,17.17,2.45,25.76.72,6.69-.39,14.86,2.18,21.16.21.5,2.1-.12,1.93-.52-2.35-5.76-1.5-13.19-2-19.32-.75-9.23-2.5-18.32-2.62-27.6,0-.37-1.94-.06-1.93.52Z"/><path class="cls-4" d="M242.31,94.36c-5.22,10.51-4.64,23.44-4.64,34.88,0,.57,1.93.21,1.93-.52,0-11.32-.54-24.2,4.64-34.62.26-.53-1.64-.34-1.93.26Z"/><path class="cls-4" d="M193.44,177c6.87,1.28,14.8,1.9,21.25-1.29.21-.11,1-.64.39-.85-6.2-2.22-12.93-1.83-19.12-4.05l-.64.93c6.45-1.74,14.43-.86,19.76-5.53.32-.28.21-.58-.18-.67-6.73-1.66-15.83,2.43-21.12-3.34l-.78.85c6.75-1.7,14.07-1.71,20.17-5.41.56-.34.39-.77-.22-.81-6.08-.43-12.24.94-18.14-1.08-.58-.2-2.33.65-1.54.92,5.74,2,11.62,1,17.57,1.14,1,0-4.42,1.61-4,1.48a49.79,49.79,0,0,1-6.18,1.27c-2.66.45-5.3.89-7.92,1.55-.25.06-1.14.45-.77.84,4.12,4.49,10.81,3.42,16.28,3.2a22.53,22.53,0,0,1,4.64.22,5.79,5.79,0,0,1-2.35,1.39,22.69,22.69,0,0,1-5,1.25c-3.5.61-7,.86-10.47,1.78-.23.07-1.35.69-.65.94,6.2,2.22,12.93,1.84,19.12,4.05l.39-.84c-5.83,2.88-13.1,2.18-19.3,1-.6-.11-2.28.83-1.19,1Z"/><path class="cls-4" d="M194.8,176.37a17.82,17.82,0,0,0,6.59-1.89c4-2,8.38-2.21,12.34-4.16.39-.2.55-.57,0-.67-5.71-1.13-11.59-1.2-17.21-2.86l-.93.87c5.69-.78,12.51-2,16.68-6.27.23-.23-.05-.41-.28-.43-5.44-.47-12.25.77-16.5-3.37l-.8.75c4.43-1.05,8.93-1.74,13.32-2.9.56-.15,1.36-.86.3-.86-.65,0-4.65.35-4.65-.37,0-.21-.46-.2-.57-.21-5.42-.2-11.31-2.31-16.21,1-.18.11-.27.26-.15.44,1.91,2.86,5.24,2.24,8.17,1.57,3.29-.76,6-2.29,9.56-2,3,.23,5.74,1.34,8.84,1.15.17,0,1.8-.42,1.3-.82a9.06,9.06,0,0,0-7.69-1.83c-.2,0-1.47.39-1.06.79L207,155.4c.42.42,2.23-.29,1.81-.7l-1.16-1.16-1.06.8a6.7,6.7,0,0,1,6.21,1.64l1.3-.82c-3.48.22-6.68-1.46-10.09-1.25a23.15,23.15,0,0,0-5.92,1.25c-1.13.36-2.26.71-3.4,1q-3.3,1.44-5.61-.69a7.11,7.11,0,0,1,5.91-1.31c.87.06,6.74.25,6.74,1,0,.21.46.12.57.12h3.47c.16,0,.33-.21.49-.36-1.54.37-3.09.74-4.64,1-2.39.47-4.77,1-7.14,1.52-.19,0-1.15.42-.8.76,2.93,2.85,7,3.21,11,3.32,1.66,0,3.32.08,5,.17l-.53.93a18.18,18.18,0,0,1-4,2,40.23,40.23,0,0,1-9.21,2.1c-.19,0-1.68.64-.94.86,4.75,1.41,9.67,1.75,14.56,2.4,4.67.63-5.17,2.25-6.35,2.59-2.72.77-4.57,2.53-7.61,2.81-.59.06-2.08,1.06-.79.94Z"/><path class="cls-4" d="M185.62,127.84c-1.19,1.73-1.22,3.4-1.24,5.46,0,.37.93.18,1.08.15,1.33-.28,2.71-.29,4-.58l-1.07-.15c1.36,3.32,6,6.62,9.25,3.9l-1.72,0c-1.48,7.8,5.51.9,7.64-1.31l-1.85.16c-.83,7.4,7.81-1.42,9.39-3.05l-1.86.15c-.41,2.46.64,4.83,3.54,4.41a3.71,3.71,0,0,0,1.62-.75c1.57-1.24,2.19-2.35,4.52-2.6,2.09-.22,3.33-.93,4.15-2.89,1-2.34,3.14-1.93,2.58-5.52-.09-.56-2-.12-1.93.52.7,1.62.3,2.72-1.2,3.33-.3.05-1,.21-1.11.6-.59,3.1-2.86,2.57-5.05,3.33a6.32,6.32,0,0,0-1.87.94,4.78,4.78,0,0,0-.69.8q-1.32,2.72-2.63-2.45c.13-.77-1.62-.09-1.86.15-1.21,1.27-6.16,7.06-5.67,2.75.08-.78-1.61-.11-1.86.15-1.78,1.85-5,6.33-3.94,1,.14-.7-1.49-.15-1.72,0-1.84,1.52-5.25-2.87-5.8-4.21-.15-.37-.8-.21-1.08-.15-1.33.28-2.71.29-4,.57l1.07.16a6.8,6.8,0,0,1,1.09-5c.45-.66-1.47-.43-1.78,0Z"/><path class="cls-4" d="M177.45,188.82c-6.8,11.62-12.25,23.77-18.39,35.71a96.2,96.2,0,0,0-7.68,19.39c-2,7.48-1.75,14.41-1.75,22,0,.39,1.56-.16,1.7-.25,3.43-2,7.23-7.62,11.4-4.73a49.93,49.93,0,0,1,7.62,6.61c4.19,4.4,8.4,4.94,13,.92l-1.78.41c5.21,4.85,12,.49,18.07,2.35.3.1,1.82-.15,1.76-.61-.63-5.71,5.52-5.77,8.77-3,1.31,1.13,3.6.65,5.08.45,3.59-.47,8.39-1.22,9.89-4.93,0-.13-.06-.15-.16-.18l-1.62-.55c-.49-.16-2,.58-1.82.65a28.91,28.91,0,0,0,13.57,2.36c.28,0,1.15-.21,1.15-.62v-1.16c0,.19-1,.38-1.64.58,4.12,1.89,13.64,3.48,13.58-3.48,0-.06,0-.1-.11-.1l-1-.54c-.37-.33-2.06.42-1.81.64,2.61,2.29-.15,4.65-3.72,4.28a14.33,14.33,0,0,1-4.64-1.45c-.35-.16-1.65.07-1.65.58v1.16c0-.2.7-.41,1.16-.62a27.55,27.55,0,0,1-12.95-2.28c-.6.22-1.27.43-1.88.65,2.78.93.24,2.83-2.08,3.46-2.66.74-5.84,1.89-8.2-.14a6.73,6.73,0,0,0-5.48-1.58c-3.83.42-6.84,2-6.35,6.3l1.76-.61c-5.91-1.81-12.91,2.31-17.85-2.28-.33-.32-1.5.16-1.78.41-5.41,4.76-9.44-2.06-12.7-5.05a37.29,37.29,0,0,0-6.37-4.63c-3.95-2.28-10.14,5.21-12.65,6.69l1.7-.26c0-8.16-.05-15.24,2.11-23.29a93.62,93.62,0,0,1,7.65-18.66c6-11.71,11.36-23.61,18-35,.11-.2-1.63-.12-1.9.35Z"/><path class="cls-4" d="M228.4,187.74A52.65,52.65,0,0,1,235.66,203c1.82,6.1,5.34,11.66,8.05,17.39,3.07,6.52,4.28,13.52,6.35,20.38,2.2,7.28,3.81,14.06,3.25,21.74l1.88-.59a14.17,14.17,0,0,1-3.48-1.74c-.33-.24-1.73.07-1.86.5-.31,1.05-.85,1.85-1.16,2.9-.11.38,1.76.14,1.9-.34.32-1.05.85-1.85,1.16-2.9l-1.86.5a13.8,13.8,0,0,0,3.48,1.73c.39.16,1.83,0,1.87-.58.52-7.13-.75-13.56-2.82-20.35s-3.34-13.85-6.17-20.43c-2.61-6-6.36-11.67-8.41-17.94a59.8,59.8,0,0,0-7.5-16c-.33-.47-2.08.3-1.94.51Z"/><path class="cls-4" d="M217.42,183.07c-5.68-1-11.31,2.24-11.41,8.17-.12,6.64-9.62,18.16-1.51,23.83,4.43,3.1,10.38-2,11.34-6,.84-3.52,0-7.73-1-11.13-1.66-5.81-.32-9.8,3.81-14,.37-.39-1.43-.15-1.75.17-2.9,2.94-4.93,5.69-4.87,10,.08,5.67,3.07,10.38,1.66,16.26-1,4.15-6.69,6.05-9.17,2.16-1.27-2-1.12-4.88-1-7.11.16-3.69,2.66-6.9,3.88-10.29,1.7-4.71-1.79-13.16,8.45-11.35.44.08,2.09-.63,1.59-.72Z"/><path class="cls-4" d="M204.82,215.07c6.51,1.11,13.46.64,16-6.44,1.49-4.19.66-8.13-.61-12.21s-4.72-12.13.46-14.63c1.15-.55-.67-.4-1.1-.2-5.65,2.73-3.08,9.59-1.62,14.28,1,3.23,1.94,6.13,1.67,9.53a14.66,14.66,0,0,1-2,6.36c-2.26,3.85-7.51,3.22-11.21,2.59-.44-.07-2.08.64-1.6.72Z"/><path class="cls-4" d="M218.73,184.34c10.66-4.73,13.65,22.11,13.73,28.31l1.36-.74c-5.39,0-8.9.09-9.74-6-1-7-1.3-13.72-3.59-20.46-.2-.59-2.12,0-1.93.52a67.22,67.22,0,0,1,3,13.9c.41,3.41.22,7.14,1.56,10.35,1.46,3.48,7.07,2.63,9.95,2.62.4,0,1.37-.2,1.36-.74-.1-8.07-3-34.38-16.39-28.46-1.24.56-.08,1,.73.66Z"/><path class="cls-4" d="M219.86,182.38c.15-.41,1.46-.78,1.82-.92a10.61,10.61,0,0,1,3.55-.81l-.8-.27a11.31,11.31,0,0,1,2.82,3.89l1.05-1a18.65,18.65,0,0,1-5.32-.53l-.9,1.33a14.48,14.48,0,0,1,2.58.7c.79.23,2.29-.87,1.12-1.29l-.48-.16c-.82-.27-2.28.9-1.12,1.28l.48.17,1.12-1.29a17,17,0,0,0-3-.79c-.68-.06-2,1-.9,1.33a22.37,22.37,0,0,0,6.26.64c.4,0,1.26-.43,1.06-1a11.1,11.1,0,0,0-2.59-3.83c-.83-.84-1.59-.71-2.73-.48-1.45.3-5.26,1-5.84,2.73-.36,1.05,1.57,1,1.84.21Z"/><path class="cls-4" d="M181.85,186.82c8.44,1.5,17.43,4.61,25.88,1.6,1.28-.46.1-1-.74-.71-7.61,2.71-16.34-.52-23.94-1.87-.56-.1-2.27.79-1.2,1Z"/><path class="cls-4" d="M181.45,178.83c-2.69,1.18-2.85,5.69-2.87,8.16,0,1,1.6.64,1.89,0,.64-1.33,1.11-2.73,1.74-4.06.47-1-1.48-.94-1.84-.19-.63,1.32-1.1,2.72-1.73,4.05l1.89,0a22.76,22.76,0,0,1,.32-3.49c.15-.94.43-3,1.44-3.42,1.22-.53.14-1.51-.84-1.09Z"/><path class="cls-4" d="M187.22,193.24c-5.84,2.36-9.17,11.06-11.55,16.4-4.71,10.53-10.12,21.25-11,32.93-.06.83,1.2.85,1.64.43,5.52-5.32,8.67-12.5,12.14-19.22,4.53-8.75,11.55-16,15.36-25.15.44-1.06-1.51-1.13-1.86-.27-3.26,7.83-9,14.22-13.33,21.43-4.49,7.43-7.24,16.09-13.62,22.24l1.64.42c.75-9.91,4.85-19.12,8.87-28.08,2.64-5.87,6.18-17.3,12.6-19.89,1.22-.5.14-1.66-.89-1.24Z"/><path class="cls-4" d="M192,193.91a18.45,18.45,0,0,0-4.14,10.63c0,.38,1.91.1,1.93-.51a17.87,17.87,0,0,1,4-10.22c.42-.55-1.46-.3-1.76.1Z"/><path class="cls-4" d="M195.39,193.54c.45,2.07-.6,4.84-1,6.85a43.79,43.79,0,0,0-1.3,8c0,1,1.93.66,1.95-.16a48.38,48.38,0,0,1,1.46-8.77c.42-2,1.29-4.44.85-6.47-.19-.85-2.12-.35-1.93.52Z"/><path class="cls-4" d="M199.63,201.23c.38-.77.77-1.54,1.16-2.31.23-.47-1.6-.11-1.84.19-5.58,6.88-4.73,16.81-5.3,25.13,0,.37,1.89.11,1.93-.52.56-8.13-.33-18,5.13-24.69l-1.84.2c-.38.77-.77,1.54-1.16,2.31-.19.39,1.65.22,1.92-.31Z"/><path class="cls-4" d="M214.49,218.83a48.34,48.34,0,0,0,1.17,8.88c.19.94,2.12.44,1.93-.51a46.94,46.94,0,0,1-1.14-8.5c0-1-2-.78-2,.13Z"/><path class="cls-4" d="M176.94,183.5a168.49,168.49,0,0,0-23.65,33c-7.47,13.74-10.82,28.68-16.1,43.26-2.29,6.34-5.57,12.24-7.86,18.57-2.34,6.49-1.7,13-1.55,19.74.17,7.45-3.18,15.4-4.78,22.62-1.47,6.59-2.21,13.3-1.18,20,.06.36,1.15,0,1.31,0,2.81-.94,6.77-3.23,9.32-.83,1.35,1.26,2,2.47,3.89,3a5.88,5.88,0,0,0,4.6-1.07,12.12,12.12,0,0,0,2.39-2.51c1.08-1.3,2.22-2.57,4.44-1.53.87.41,1.73,2.54,2.27,3.4,1.4,2.17,5,.11,6.88.26,2.53.21,5,3.7,7.47,3.15A12.4,12.4,0,0,0,170.1,341c2.18-2.15,4.53-4.3,7.75-1.88,2.31,1.74,4.3,3.77,6.68,5.44,4.13,2.89,9.23,3.2,14.09,3.24.41,0,2.21-.78,1.25-.79-6.58-.07-11.82-1.4-16.94-5.64-2.52-2.08-5-5.54-8.63-4.55s-5.53,4.24-8.37,6.27c-1.74,1.25-4.14-1.09-5.46-2.11-.8-.61-2.93-.51-3.78-.45-2.2.18-4.39.92-5.78-1.71a3.69,3.69,0,0,0-2.59-2.24,7.15,7.15,0,0,0-5.58,1.63c-1.92,1.51-3.11,5.52-6.66,3-1.18-.85-1.75-2.6-3.25-3-3.84-1.12-6.8.89-10.38,2.08l1.31,0c-1.13-7.27-.07-14.38,1.52-21.51,1.29-5.84,3.76-11.9,4.27-17.88.61-7.28-.75-14.13,1.22-21.34,1.9-6.94,5.8-13.31,8.33-20,5.08-13.46,8.07-27.32,14.53-40.27a159.37,159.37,0,0,1,25.06-35.77c.41-.45-1.43-.2-1.75.14Z"/><path class="cls-4" d="M227.25,178.48c7.5,11.84,14.35,24,22,35.79s12.3,24.6,16.3,38.06A361.53,361.53,0,0,1,275,293.69c2.3,13.26,7.2,27.67,3.79,41.09l1.75-.54c-1-.3-1.94-.27-2.9-.58-.38-.12-1.58.11-1.75.55a27.49,27.49,0,0,0-1,7c-.42,4.47-2.72,1.21-5,1.13a5.33,5.33,0,0,0-3.34.94c-1.46.83-1.64,3.75-4.67,1.84-1.11-.69-2-1.79-3.3-2.14a8.8,8.8,0,0,0-4.8-.17c-4.4,1.26-7.76,3.26-12.66,2.69-5.22-.61-8.21,1.46-12.46,4.2l1.65-.3c-3-3.46-4-9.4-9.55-9.33-4.71.05-7.71,5.85-10.77,8.57l1.78-.4c-3.08-3-8.29-7.39-11.13-1.82-.13.27,1.66.14,1.91-.34,1.78-3.51,6.3,1.73,7.4,2.81.35.34,1.5-.15,1.79-.4,2.67-2.38,6.73-9.65,11.09-6.63,2.63,1.82,3.56,5.8,5.66,8.19.28.32,1.38-.13,1.65-.3,1.06-.69,2.09-1.42,3.13-2.15,3.11-2.19,6.19-1.32,9.47-1a11.58,11.58,0,0,0,5.51-.9c3.07-1.26,6.25-3.22,9.9-1.34,1,.52,1.79,1.71,2.91,2a5.1,5.1,0,0,0,3.65,0c1.89-.89,3.56-3.82,6-2.31a3.48,3.48,0,0,0,2.92.61c4.73-1.26,2.95-7.19,4.26-10.76l-1.75.55c1,.3,1.94.27,2.9.57.35.11,1.63-.1,1.75-.54,3.07-12.1-.78-24.46-3-36.38-2.63-14.36-5.33-28.59-9.25-42.67s-8.62-27.66-16.39-40.15c-3.79-6.1-8-11.87-11.69-18.06-3.77-6.39-7.27-12.94-11.24-19.22-.3-.47-2.09.28-1.93.52Z"/><path class="cls-4" d="M207.3,349.63c1.75,8,3.86,15.9,3.47,24.16,0,.94,1.91.61,1.95-.18.39-8.37-1.71-16.39-3.48-24.5-.18-.82-2.12-.32-1.94.52Z"/><path class="cls-4" d="M224.7,349.55c-1.92,8.09-3.95,16-3.49,24.41,0,.31,2,0,1.93-.52-.45-8.31,1.56-16.22,3.46-24.24.09-.39-1.79-.12-1.9.35Z"/><path class="cls-4" d="M221.22,374.45a36,36,0,0,0-.89,10.56c.24,5,2.43,9.69,3.5,14.56,1.67,7.64-3.34,13.59-11.3,13.18-8.16-.43-6-9.25-3.92-14.21,1.36-3.24,3.25-6.63,3.44-10.22.26-4.95.18-9.95.66-14.88,0-.27-1.87-.07-1.93.52-.62,6.4.28,13-1.69,19.2-1.44,4.52-4.21,8.52-4.58,13.34-.45,5.83,5.32,7.52,10,6.93,4.22-.53,8.6-2.73,10.76-6.5s.31-9.11-.82-12.84c-2-6.75-3-13-1.32-20,.1-.44-1.79-.15-1.91.34Z"/><path class="cls-4" d="M196.68,349.46c-1.76,8.05-3.86,16-3.48,24.33.05.95,2,.59,2-.18-.39-8.31,1.72-16.28,3.48-24.33.19-.88-1.78-.61-1.95.18Z"/><path class="cls-4" d="M179.31,349.63c1.9,8.06,3.93,16,3.47,24.33,0,.25,1.91,0,1.94-.52.45-8.34-1.57-16.27-3.48-24.33-.09-.39-2,.09-1.93.52Z"/><path class="cls-4" d="M182.78,374.54a33.77,33.77,0,0,1-.77,18.32c-1.32,4.33-3.2,9.32-1.66,13.86s8,7.1,12.52,6.86c4.28-.22,8-2.1,8.54-6.72.52-4.79-2.94-9.83-4.56-14.13-2.27-6.05-1.09-13-1.71-19.29,0-.38-2,0-1.93.52.43,4.43.15,8.88.58,13.32A37.34,37.34,0,0,0,197.3,399c2.94,6.73,3.28,15.79-7.05,13.36-6.75-1.59-9.13-6.69-8.17-13.19.6-4,2.72-7.75,3.22-11.8a36.4,36.4,0,0,0-.58-13.32c-.11-.44-2.05.06-1.94.52Z"/><path class="cls-4" d="M182.42,399.48c2.68,3.91,14.77,6.6,16.15.21.18-.84-1.78-.56-1.95.2-1,4.72-10.57,1.48-12.42-1.21-.43-.63-2.29.06-1.78.8Z"/><path class="cls-4" d="M184.29,397.57c.19-1.31,4.08-1.65,5-1.78a10.92,10.92,0,0,1,5.59.37c.82.35,2.24-.82,1.11-1.31-2.55-1.11-5.77-.66-8.41-.19-1.64.3-5,1-5.27,3.06-.14,1,1.83.73,2-.15Z"/><path class="cls-4" d="M183.2,393.27c4.05-.73,9-2.84,12.93-.82.65.33,2.39-.58,1.51-1-4.46-2.3-9.64-.23-14.22.6-1,.18-1.54,1.49-.22,1.25Z"/><path class="cls-4" d="M211.53,391.15c2.93.44,8-2,10.18.47.53.61,2.37-.13,1.78-.81-2.82-3.22-7.7-.41-11.26-.95-.87-.13-2,1.09-.7,1.29Z"/><path class="cls-4" d="M210.07,395.33H221.5c.7,0,2.07-1,.77-1H210.84c-.7,0-2.07,1-.77,1Z"/><path class="cls-4" d="M208.78,396.48c.3,3.46,1.3,6.7,5.28,6.22,3.73-.45,7.14-3.55,10-5.7.82-.61-1.12-.42-1.5-.14a44,44,0,0,1-6.67,4.49c-4,2-4.93-2.45-5.18-5.39,0-.45-2-.08-1.93.52Z"/><path class="cls-4" d="M150.19,154.15c-.35,7.59-4.61,14.63-2.85,22.3,1.67,7.29,8.24,12.67,12.22,18.71.4.6,2.26-.06,1.78-.79-3.81-5.78-9.18-10.6-11.71-17.15-2.94-7.63,2.15-15.63,2.5-23.28,0-.88-1.9-.51-1.94.21Z"/><path class="cls-4" d="M164.55,156.89c-7.56,10,1.66,21.17,2.79,31.7.07.61,2,.19,1.93-.51-1.1-10.24-10.28-21.47-2.92-31.17.51-.67-1.43-.5-1.8,0Z"/><path class="cls-4" d="M261.65,152.77c-2.53,5.67,2.46,12.31,1.46,18.33-.78,4.74-6.68,7.78-10,10.85-4.21,4-7.29,8.49-12,12-.82.61,1.12.42,1.5.14a64.43,64.43,0,0,0,10.12-9.69c3.22-3.73,8.08-6.44,10.8-10.54,4.7-7.08-3.1-14.49,0-21.43.18-.41-1.67-.22-1.91.31Z"/><path class="cls-4" d="M247.4,157.54c-1.6,4.53.66,9.44-2,13.69-2.84,4.58-7.25,7.7-9.46,12.74-.42,1,1.52.86,1.83.16,2-4.6,5.78-7.65,8.66-11.63a10.12,10.12,0,0,0,2.29-4.94c.43-3.34-.68-6.57.48-9.87.36-1-1.57-.88-1.83-.15Z"/></svg>