<svg id="layer1" xmlns="http://www.w3.org/2000/svg" viewBox="0 0 471.2 324.49"><defs><style>.cls-1{fill:#c17e40;}.cls-2{fill:#492d0c;}.cls-3{fill:#e2acac;}</style></defs><path class="cls-1" d="M136.13,100.34c.11-.32.2-.63.3-.94h.07v-.26c.41-1.33.79-2.66,1.24-4,0-.06,0-.11,0-.16a2.81,2.81,0,0,0,.41-1c.43-2.32.58-4.68.91-7a3.22,3.22,0,0,0,2.09-3.1,31.69,31.69,0,0,1,.19-3.25A3.62,3.62,0,0,0,144.51,78c.54-1.89,1-3.77,1.44-5.67a3.18,3.18,0,0,0,.29-.73,42.2,42.2,0,0,0,1.06-6.85,4.35,4.35,0,0,0,.66-1.2c1.39-3.75,1.22-8.73-3-10.49-.12-.05-.25-.08-.37-.12a14.32,14.32,0,0,0-1.13-3.16,2.81,2.81,0,0,0,.5-3,20.42,20.42,0,0,1-1-7.69,3.21,3.21,0,0,0-2.34-3.24,12.87,12.87,0,0,0-3.69-5,23.38,23.38,0,0,0-1-8.19,3.65,3.65,0,0,0-1-1.64c0-.18,0-.37,0-.55a3.75,3.75,0,0,0-3.5-3.75h-.58a3.77,3.77,0,0,0-3.5,3.75c-.12,4.75-1.41,10.06-1.13,15a3.59,3.59,0,0,0-4.76,0q-4,3.16-7.78,6.61a13,13,0,0,0-7.17,3.2,3.79,3.79,0,0,0-1.81,2.13l-.33.15c-1.93.85-2.38,4.19-.71,5.5.84.66,1.14,2,1.22,3.46a0,0,0,0,1,0,0,5.93,5.93,0,0,0-.09,1l-.22,0v.72a3.76,3.76,0,0,0-.53.25c-1.54.8-3.14,1.43-4.74,2.12a19.36,19.36,0,0,0-6.57,4.21,3.54,3.54,0,0,0,2.48,6c5.06.07,8.75-3.24,12.75-5.89a3.45,3.45,0,0,0,2.87-1.18l.13,0c.41.07.85.12,1.3.17l1,.14c2.27.77,4.51,2.48,7.2,2.69a3,3,0,0,0,2.8-1.41l1.11.09a12.36,12.36,0,0,0,4.15,3.88,7.49,7.49,0,0,0,1.79,2.43,62.65,62.65,0,0,0-1.24,9.88L125.69,93.3a3.14,3.14,0,0,0,.29,2.46,1.14,1.14,0,0,0-.19.19,2.61,2.61,0,0,0-.63-.22c-1.16-2.33-5.07-3.15-6.38-.39a30.14,30.14,0,0,0-1.24,3,2.94,2.94,0,0,0-1.29.86c-.16.18-.3.36-.45.54a3.06,3.06,0,0,0-1.6,2.15l0,.1c-.27.44-.53.89-.77,1.37a3.31,3.31,0,0,0,2,4.94,3.28,3.28,0,0,0,2.43,3.07,3.49,3.49,0,0,0,4.24-2.31,3.49,3.49,0,0,0,1.27-.31,4,4,0,0,0,4.35-.85,4.13,4.13,0,0,0,3.57-1.58,18.85,18.85,0,0,0,2.09-3.6A3.46,3.46,0,0,0,136.13,100.34ZM138.05,69c.25-1,.51-2,.77-3,0,.85.09,1.7.18,2.54A3.24,3.24,0,0,0,138.05,69Zm-17.4-20a3.38,3.38,0,0,0,1.75.63,3.9,3.9,0,0,0-1.62,1.78l-1.13-.21a3.68,3.68,0,0,0-3.44,1.07l-1-.36a34.51,34.51,0,0,0,2.69-3.12A18.3,18.3,0,0,1,120.65,49Zm17.56,8a9.8,9.8,0,0,0-3.56-2c-1.53-1.06-3.08-2.07-4.68-3a4.22,4.22,0,0,0,.67-.26,3.69,3.69,0,0,0,4.15.54,6.67,6.67,0,0,0,2.86,3.52,2.89,2.89,0,0,0,.53.26Q138.21,56.58,138.21,57Z"/><path class="cls-1" d="M209.13,220.27c0-.43-.07-.87-.11-1.3v0a2.62,2.62,0,0,0,0-.28H209a4,4,0,0,0-.13-.62c-.68-5.86-.24-11.63,3.76-16.72,2.76-3.5-2.16-8.49-5-4.95-5.52,7-6.62,14.53-5.63,22.9,0,.59,0,1.18,0,1.77a3.42,3.42,0,0,0-5.72,2.52c-.38,6.89,2.39,13,3,19.76.41,4.58.59,9.19,1.44,13.68a3.34,3.34,0,0,0-3.39,1.59,16.35,16.35,0,0,0-2.07,13,3.54,3.54,0,0,0,5.85,1.54c.49-.44,1-.9,1.39-1.38a3.61,3.61,0,0,0,2.63-.92,12.81,12.81,0,0,0,3.76-8.39s0,0,0-.05q.17-.85.3-1.71c2,.74,4.94-.61,5-3.24.24-9.64-1.5-19.06-3.37-28.47C210.25,226.14,209.59,223.2,209.13,220.27Z"/><path class="cls-1" d="M372.53,259.21c-.11-1.95-.22-3.88-.26-5.76A3.29,3.29,0,0,0,371,251c0-.16,0-.31-.08-.46s0-.15,0-.23c.06-1.44.11-2.88.16-4.32a52.41,52.41,0,0,1,1.58-8.21s0-.07,0-.07h0a3.2,3.2,0,0,0-.41-2.79,2.7,2.7,0,0,0,1.11-2.39,2.89,2.89,0,0,0,1.14-2.58,15.8,15.8,0,0,0-2.88-7.19c0-.29,0-.58,0-.86v-.18h0a3.19,3.19,0,0,0-1-2.26c-.87-3.5-1.91-7-2.58-10.56s-5.93-3.1-6.76-.05c-.45-1.1-.92-2.2-1.42-3.26s-1.29-2.5-2.09-3.87a20.49,20.49,0,0,0,.43-5.51,3.94,3.94,0,0,0,1.21-3.41,13,13,0,0,0-3.18-6.35,68.76,68.76,0,0,0-6.89-11.65.56.56,0,0,1-.05-.08h0l-.55-.72c-2.32-2.83-6.9.38-5.88,3.45-2.41-.89-5.52.75-4.57,4,.16.52.32,1,.49,1.56l-.38-.36a1.46,1.46,0,0,0-.21-.16c-.32-.48-.64-1-1-1.43-2-2.79-7.23-1.43-6.63,1.92a20.57,20.57,0,0,0-8.11-3.53,3.56,3.56,0,0,0-4.43,3.37c-.12,7.59,5.26,16,11.78,21.84l-.81-.05a3.16,3.16,0,0,0-2.84,1.57,3.24,3.24,0,0,0-2-1.44,62.47,62.47,0,0,1-14-6.1c-2.37-7.55-9.05-17.51-16.58-20.16a20.07,20.07,0,0,0-1.84-3.75,3.52,3.52,0,0,0-5.68-.42,5.05,5.05,0,0,0-4-1.63c-2,0-3.92,1.18-5.66,2-2.67,1.27-3.52,2.37-5.92-.09a3.47,3.47,0,0,0-4.24-.55c-1.21.92-2.91,3.07-3.81,2.27a3.57,3.57,0,0,0-5,0c-1.48,1.5-2.47,3.69-4.25,1.73s-5.33-1-5.85,1.54a.15.15,0,0,1,0,.07l-.64-.78a12.41,12.41,0,0,0-3.4-3.1,3.53,3.53,0,0,0-5,1.74l0,0a3.4,3.4,0,0,0-2.14-1c-.7-1.11-1.31-2.27-1.91-3.47-1.18-2.34-4.1-2.1-5.6-.5-.15-.59-.27-1.13-.37-1.54a3.15,3.15,0,0,0-4.71-2.12,26.82,26.82,0,0,0-2-3.89c-2-3.3-6.44-1.4-6.46,2l-.08-.08c-.54-6.73-2.63-13.38-4-20-.82-3.91-6.93-3-6.87.93a66.63,66.63,0,0,0,.53,7.1,3.51,3.51,0,0,0-5.23,4.44c.27.51.61,1.09,1,1.71s.71,1.37,1,2.07a3.53,3.53,0,0,0-5.89,2.11c-2.23.39-4.07,2.61-2.46,5,1.15,1.73,2.39,3.38,3.68,5-1.2-.81-2.39-1.58-3.49-2.32-1.84-1.22-3.89-.17-4.82,1.45a4,4,0,0,0-1.17.54,3.09,3.09,0,0,0-1.82-.72c-1.46-1.49-4.27-1.62-5.5.35a5.69,5.69,0,0,0-2.77-.36,6.22,6.22,0,0,0-5,2.77c-.22-2.07-.5-4.14-.81-6.2,0-1.11-.06-2.23-.1-3.34a4,4,0,0,0,3.48-2.61,15.92,15.92,0,0,0,.7-3.3,3.4,3.4,0,0,0,2.87-3.37c0-1.88,0-4.27-.27-6.72a3.66,3.66,0,0,0,.27-1.33c0-.8,0-1.59,0-2.38a4,4,0,0,0,2.85-3.37c.1-1,.17-1.93.23-2.9a3.55,3.55,0,0,0,3.79-3.42c.12-1.73.18-3.48.19-5.24a3.3,3.3,0,0,0,1-2.24c0-.69,0-1.39,0-2.08,2.13,1.06,5.29-.33,5.15-3.09-.09-1.89-.37-3.77-.64-5.64a3.36,3.36,0,0,0,.52-2.76,9,9,0,0,0-1.5-3.71A3.79,3.79,0,0,0,185.3,112c-.11-.17-.21-.35-.33-.52a3.58,3.58,0,0,0-4.53-1.29,3.32,3.32,0,0,0-5,.22,3.68,3.68,0,0,0-3.69,2.36,3.21,3.21,0,0,0-3.05,2.94h0c0,.1,0,.21,0,.31s0,.07,0,.1c0,.75,0,1.5,0,2.25a4,4,0,0,0-3.42,3,3.61,3.61,0,0,0-2.93,3.35,60.72,60.72,0,0,0,.32,12.53c-2-2.34-5.78-.64-6.07,2.4-.56,5.73.06,13.51,3.83,18.4a3.41,3.41,0,0,0-.38,1.63h0v.08c0,.14,0,.29,0,.43-.31-.54-.62-1.08-1-1.6a3.46,3.46,0,0,0-2.25-1.49q-.81-2.16-1.79-4.26a32.7,32.7,0,0,0-4-17.24,3.29,3.29,0,0,0-1.89-1.58c0-.31,0-.63,0-.94a3.17,3.17,0,0,0,1.19-2.62c0-1.66-.07-3.34-.09-5a3.81,3.81,0,0,0,.66-1.88c.1-1.2.15-2.39.17-3.58a4.09,4.09,0,0,0,1.56-2.75c0-.28,0-.56.05-.85A3.7,3.7,0,0,0,155,113.2c.06-.86.11-1.71.14-2.57a3.05,3.05,0,0,0,1.94-2,4.25,4.25,0,0,0,3.09-3.52c.43-4,.54-8.38-.66-12.3V87.67c0-.33.06-.67.08-1h-.09c-.1-4.43-6.46-4.29-6.93,0h-.06v.55a2.78,2.78,0,0,0-1.64,3,12,12,0,0,0,.28,1.71,2.89,2.89,0,0,0-.79.69,3,3,0,0,0-2.92,3h0v.11c0,.06,0,.12,0,.19a29.78,29.78,0,0,0,.28,3,3,3,0,0,0-2.57,3.19,3,3,0,0,0-1.56,1.92,3.58,3.58,0,0,0-3.62,3.37c0,.42,0,.84-.05,1.27a3.46,3.46,0,0,0-1.32.49A2.9,2.9,0,0,0,136,111.7a53.22,53.22,0,0,0,2.87,28.87,4.05,4.05,0,0,0,4.65,2.38c.08.28.15.57.23.85a3.77,3.77,0,0,0-.4,1.59c-.19,6,2.87,11.4,5.58,16.56,3.7,7,5.78,14.84,9.27,22a3.27,3.27,0,0,0,4.58,1.29,3.14,3.14,0,0,0,1.83,1,38.34,38.34,0,0,0,.44,5.7,72.13,72.13,0,0,0-.5,11c.1,6.7-.05,13.4-.15,20.1-.17,10.81,1,21.5,1.62,32.25a72.71,72.71,0,0,0-1.4,14.88,3.27,3.27,0,0,0,.64,2,2.1,2.1,0,0,1-1.29,1.17c-2.58.72-5,.5-7.39,1.84a3.53,3.53,0,0,0,.83,6.4c5.13,1.39,10.7-.51,15.35-2.66,2.25-1,2.18-3.32,1-4.86a3.79,3.79,0,0,0,.16-1c0-3.33.14-6.66.25-10,1-3.18,2.06-6.37,3.12-9.54a16.16,16.16,0,0,0,1.68-3.17,3.42,3.42,0,0,0,.19-.78l.51-.05c.18,0,.34,0,.53,0h.27v0c3.82-.27,4-5,1.11-6.53,0-.08,0-.16,0-.27a12.88,12.88,0,0,1,.35-1.49,3,3,0,0,0-1.45-3.79c-.12-1.37-.26-2.74-.41-4.11a2.85,2.85,0,0,0,.76-2.22,144.77,144.77,0,0,0-2.29-17.15,3.1,3.1,0,0,0,1.72-3c0-.09,0-.18,0-.26h0s0-.1,0-.14a86.08,86.08,0,0,0-.56-9,3,3,0,0,0,2.29-3.22c-.09-.86-.16-1.75-.24-2.65,2.05.81,4.8-.17,4.83-3h0v-.14c0-1-.07-2.18-.18-3.54a3.14,3.14,0,0,0,2-1.59,12.08,12.08,0,0,0,1.12-2.78,23.36,23.36,0,0,0,14.25,6.82,3.27,3.27,0,0,0,3.29-2.47,15.49,15.49,0,0,0,2.46.17,3.74,3.74,0,0,0,3.21-2.15,3.35,3.35,0,0,0,4.77-2.15c0-.11,0-.22.08-.32a11.22,11.22,0,0,0,3.66,2.19c1.93.71,3.63-.7,4.22-2.41a3.83,3.83,0,0,0,3-.56,10.75,10.75,0,0,0,1.41.67,3.26,3.26,0,0,0,3.22-.73,3.09,3.09,0,0,0,2.33.93c.69.83,1.38,1.73,2.1,2.5a3.53,3.53,0,0,0,5.5-.78c.15-.32.29-.63.42-.94a7.19,7.19,0,0,0,3.5,2.7,4.63,4.63,0,0,0,5.66-2.18c2.71.72,5.38-.54,7.91-2.49,2.76,1.13,4.85.17,7.53-1.75a8.36,8.36,0,0,0,7,1.46c1.74-.38,3.47-1.61,5-2.43l1.78-.81a15.26,15.26,0,0,0,2.2,2.48,4.16,4.16,0,0,0,3.22,1c.51.68,1,1.35,1.57,2,.94,5.93,5.61,10.72,10.49,14.36a71.79,71.79,0,0,0,23.05,11.64,3.18,3.18,0,0,0,3.74-1.43,3,3,0,0,0,.82.9c.08.07.14.14.22.2,3.46,2.72,7.06,3.16,11.32,3.78a3.67,3.67,0,0,0,2.75-.65c3.69,1.93,7.24,4.5,10.21,6a3.47,3.47,0,0,0,2,.4l.82.64a40,40,0,0,0,3.27,8.46l1,2.43a98.43,98.43,0,0,1,4.24,12.73c0,.63.11,1.25.16,1.88,0,0,0,0,0,.07-2.09,9-2.95,18.34,1.07,26.73a3.07,3.07,0,0,0,.28.47l-.26.12a9.59,9.59,0,0,0-1.5,1c-4.43-.7-7.69-.42-9.22,4.88-.58,2,.7,3.6,2.44,4.31,2.32.94,4.49.32,6.64-.75a10.52,10.52,0,0,0,1.8-1.23,3.87,3.87,0,0,0,.85-.14,7.09,7.09,0,0,0,3.64-2.51,2.83,2.83,0,0,1,.87,0,3.57,3.57,0,0,0,4.3-2.44c1.6-4.46,1.34-9.2,2.3-13.8A3.65,3.65,0,0,0,372.53,259.21Zm-12.65,22.43.19.34C359.39,281.59,359.33,281.48,359.88,281.64Z"/><path class="cls-2" d="M415.5,210.74c-1.76-1.94-4.46-4-6.51-6.32a3.58,3.58,0,0,0-.41-1.59,13.35,13.35,0,0,0-2.23-3,6.87,6.87,0,0,1-.17-1c-.23-2.74-2.5-3.32-4.56-4.6-2.68-1.66-4.95-4.05-7.52-5.9a3,3,0,0,0-3.66.12l-.52-.4c-4.49-3.47-9.31-7.37-14.82-9.11a4.06,4.06,0,0,0-.44-.85c-1.54-2.19-3.08-4.62-4.8-6.91-3.64-8.7-8-17.09-13.8-24.42-9.31-11.78-22.24-17.36-36-21.51a53.69,53.69,0,0,0-16.82-3.5,3.32,3.32,0,0,0-2.86,1.62c-1.71-.37-3.44-.7-5.17-1a3.19,3.19,0,0,0-1.7-3c-9.52-4.95-20.78-5.41-31.65-5A32.8,32.8,0,0,0,250.24,112a3.24,3.24,0,0,0-2.26.88,46,46,0,0,0-14.51-6.5,3.6,3.6,0,0,0-4.39,3.59l-1-.31c-1.06-.36-2.13-.7-3.23-1a3.42,3.42,0,0,0-2.09.06,61.06,61.06,0,0,0-8.35-6.35c-3.52-2.91-7-5.86-10.43-8.91-4-3.59-7-8-11.63-10.89a3.18,3.18,0,0,0-1.88-.5,21,21,0,0,0-6.26-6.67,55.06,55.06,0,0,0-6.51-9.66c-4.9-8.87-13.9-15.2-18.57-24.42v0h0A3,3,0,0,0,155,39.85c-1.66-1.89-3.34-3.75-5.06-5.57a3.06,3.06,0,0,0-.63-.53,21.88,21.88,0,0,0-1.3-2.89,4,4,0,0,0-.4-1.55A58.36,58.36,0,0,0,144.16,23c-2.27-3.45-7-1.18-6.4,2.68,1.47,8.9,5.49,16.91,8.91,25.17,1.63,3.93,2.71,8,4.21,12,.19.51.34,1,.47,1.46-5.82,2.87-7.79,10.17-8,16.19a3,3,0,0,0,.73,2.13,38.26,38.26,0,0,1-1.9,6.73c-1.28,2.06-2.64,4.08-4.1,6-2.47,3.29,2.72,6.87,5.49,4.25a20.83,20.83,0,0,0,4.71-6.82c2.57-4.15,4.85-8.47,7.05-12.84.12.16.24.32.37.47a12.74,12.74,0,0,0,.42,1.55,3.62,3.62,0,0,0,4.3,2.45,6.94,6.94,0,0,0,2-.59c.74,3.44,1.33,6.85.63,10.2-.23.71-.45,1.43-.63,2.18a3.37,3.37,0,0,0,.43,2.84,62.62,62.62,0,0,1-3,8.63c-2.19,4.91-6.38,8.61-8.58,13.56-1.66,3.72,2.33,6.74,5.5,4.24,6.25-4.94,9.79-12.6,13.19-19.6,1.57-3.25,3.18-6.56,4.53-9.95a19.26,19.26,0,0,0,1.47,2,3.49,3.49,0,0,0,4.95,0c.17-.21.33-.43.5-.66.24.3.49.6.74.89-.76,8.51,9.39,20.48,15.46,24.47-3.74,2.06-6.62,6.13-8.43,10.56a16.92,16.92,0,0,0-4.54,10.39,22.29,22.29,0,0,0-1.39,4c-1.41,5.77-3,10.84-6.69,15.67-1.78,2.3.71,5.08,3,5.26,5.61.46,9.61-5.73,12.28-9.75a137.82,137.82,0,0,0,7.3-13.2c3.18-2,4.6-5.37,6.44-8.67a3.33,3.33,0,0,0-1-4.48,3,3,0,0,0,1-1.27c.12-.27.22-.54.34-.81h0a.64.64,0,0,1,0-.07c.4-1,.79-1.92,1.14-2.91.07-.2.14-.38.21-.55a3.76,3.76,0,0,0,1.19-.88,10.82,10.82,0,0,1,.72,1.76c1.2,3.47,1.32,7.22,2.62,10.66a3.79,3.79,0,0,0,2.14,2.11c.26,1.19.5,2.37.73,3.56a3.55,3.55,0,0,0,4,2.56c.48,1.28,1,2.55,1.49,3.83a5.22,5.22,0,0,0-3.4,4c-.61,2.72.56,5.32,2.31,7.45a21.21,21.21,0,0,0,1.71,6c1.24,2.82,5.75,1.92,6.4-.84,0,0,0-.07,0-.11.36.33.72.65,1.09,1a30.84,30.84,0,0,0,7,5.27,3.32,3.32,0,0,0,3.29.11c.76.76,1.53,1.5,2.32,2.22a3.36,3.36,0,0,0,5.18-.47c.61.57,1.22,1.11,1.85,1.59,2.32,1.74,5.56-.87,5.32-3.39a3.58,3.58,0,0,0,4.64-1.46,9.82,9.82,0,0,0,2.94-.12c1.88-.36,3.33,1.33,5.18,1.87,1.57.46,3.26-.22,4.64-.87a5,5,0,0,0,2.14-2.42l.15.16a5.77,5.77,0,0,0,4.84,1.93c1.67,1.28,3.61,1.13,5.49.12,2.44,1.85,5.18,2.16,8.94,2.24,2.44.06,4.4,2.21,6.62,3a8.13,8.13,0,0,0,2.49.51c1.85,6.35,3.08,12.79,6.86,18.43,1.88,2.79,6.55,1.88,6.52-1.77a62.59,62.59,0,0,0-.78-10.34,29.92,29.92,0,0,0-.08-9c0-.08,0-.15,0-.22,4.22,1.26,9.19,2,11.06-1.16a10,10,0,0,1,1.19.76,3.6,3.6,0,0,0,4.86-1.3c.7.45,1.39.9,2.11,1.3a3.63,3.63,0,0,0,5.12-1.84,3.75,3.75,0,0,0,3-3.48c0-.2,0-.4,0-.6a19.37,19.37,0,0,1,2,1.93c1.66,1.86,3.9,1.18,5.08-.37a74.24,74.24,0,0,0,9.87,12.13,102,102,0,0,0,7.12,8.79,4.55,4.55,0,0,0,0,.9,19.56,19.56,0,0,0,1.94,6,3.37,3.37,0,0,0-1.36,1.9c-2.23,7.86,8.86,14.13,17.38,17a21.67,21.67,0,0,0,3.19,1.85,3.74,3.74,0,0,0,3.71-.17,3.64,3.64,0,0,0,3.51-2c2.6,1,5.17,2.15,7.73,3.3a3.87,3.87,0,0,0,2.86.23l.27.13a3.06,3.06,0,0,0,2.75-.38,4.07,4.07,0,0,0,3.28,0c3,1.76,6.53-1.72,4.86-4.66A3.66,3.66,0,0,0,415.5,210.74ZM158.28,69.66a9.12,9.12,0,0,0,.36-1.08,8,8,0,0,0,.18-1.09c.59.55,1.2,1.08,1.83,1.56.28.45.54.9.8,1.36a.31.31,0,0,0,.05.1h0A3.68,3.68,0,0,0,158.28,69.66Zm104.09,78.6c0,.24.06.48.09.72-1-.64-1.93-1.31-2.87-2a2.71,2.71,0,0,0-1.71-.57,101.73,101.73,0,0,0-8.11-9.73q6.64,4.8,13.59,9.15A3,3,0,0,0,262.37,148.26Zm-48.49-28.71-.18.23c-.34-.43-.68-.86-1-1.28ZM284.41,145a2.77,2.77,0,0,0-1.12-2.13l-.15-.11a42.45,42.45,0,0,0,10.22,2,4,4,0,0,0-2.7,2.51,11.77,11.77,0,0,0-.35,1.42A54,54,0,0,0,284.41,145Zm11.4.2a3.07,3.07,0,0,0-1-.45,3.2,3.2,0,0,0,1.92-1.26c.79.53,1.58,1,2.38,1.56a4.15,4.15,0,0,0-1.63,1.3ZM169.93,72.56c.9.9,1.79,1.81,2.66,2.74a10.52,10.52,0,0,0-1.62,5,12.19,12.19,0,0,0-1.88,4.06,37.23,37.23,0,0,1-1.33-8.29A3.32,3.32,0,0,0,169.93,72.56Zm138,97.19c-.12.39-.22.77-.31,1.16l-.17.09a3.45,3.45,0,0,0-1.92-.22,3.35,3.35,0,0,0,1.32-4.74,70.18,70.18,0,0,0-7.58-9.5c-.12-.19-.23-.39-.35-.59,1.78,1.31,3.52,2.66,5.18,4.09a54,54,0,0,0,6.1,7.3A3.87,3.87,0,0,0,307.91,169.75Zm17.45-3.06-.2-.06a57.76,57.76,0,0,0-9.7-9.63,37.18,37.18,0,0,0,14.78,5.43c.83.38,1.67.74,2.51,1.09a3.46,3.46,0,0,0-1.2,2c-.4-.26-.8-.51-1.22-.74A3.36,3.36,0,0,0,325.36,166.69Zm31.24-3.57c-.37-.5-.73-1.46-1.08-1.46h0a3.42,3.42,0,0,0,1.77-.61c.29.52.59,1,.87,1.56A3,3,0,0,0,356.6,163.12ZM258,164.67a2.81,2.81,0,0,1-.31-.1c-.09-.13-.18-.26-.29-.39-1-1.12-2.06-2.24-3.14-3.34,1.82,1.21,3.58,2.55,5.31,3.92A4.61,4.61,0,0,1,258,164.67Zm32.44,3a3.12,3.12,0,0,0,.42-.18l.2.2Z"/><path class="cls-2" d="M95.69,56.72c-6,2.6-12.22,4.33-17.38,8.6-3.48,2.87,1.5,7.8,5,5,4.55-3.76,10.63-5.21,16-7.51C103.36,61,99.79,55,95.69,56.72Z"/><path class="cls-2" d="M118.87,31.92c1.12,3.08,6,2.28,6.57-.86A9,9,0,0,0,126.2,27a3.24,3.24,0,0,0-.7-2.14V23.66a2.77,2.77,0,0,0-1.57-2.55c0-.47,0-.95,0-1.43v0h0v-.15c0-4.62-6.52-4.39-7,0a15,15,0,0,0,0,3.07,30.22,30.22,0,0,1-.43,5.27A3.56,3.56,0,0,0,118.87,31.92Z"/><path class="cls-2" d="M124.77,73c2.33-1.66,1.66-6.34-2-6.41-5.75-.12-11.32-.88-17,.12-3.51.62-6.64,3.09-10,4.26-2.41-1.75-5.63-1.58-8.63-1.51-3.32.08-4.28,3.65-2.48,6,3,3.81,8.2,4.58,12.61,3.2a3.45,3.45,0,0,0,2-1.62c.91-.37,1.82-.8,2.75-1.26,6.12-3,11.82-2.52,18.21-2.26-1.6,2-3.4,3-5.49,4.49a4.17,4.17,0,0,0-.78.73,3.93,3.93,0,0,0-1.52.42,11.92,11.92,0,0,0-3,2.27,3.54,3.54,0,0,0-.41,4.45,3.51,3.51,0,0,0-4.76.15,5.56,5.56,0,0,0-1.6,3.62,3.5,3.5,0,0,0,3.5,3.5,3.41,3.41,0,0,0,3.26-2.4.75.75,0,0,1,.07-.12,3.53,3.53,0,0,0,.12-4.1,3.54,3.54,0,0,0,4.77-.15c.24-.24.5-.46.76-.69s.54-.34.83-.49a2.74,2.74,0,0,0,.82-.65,2.68,2.68,0,0,0,1.48-.5c2.43-1.79,5.14-3.3,7-5.72,1.17-1.5,1.47-3.48,0-5A3.23,3.23,0,0,0,124.77,73Zm-15.3,17.31c0-.09,0-.19,0-.28a2,2,0,0,0,0,.26Z"/><path class="cls-2" d="M355.51,241.19c0,2-.09,4-.22,5.95a3.37,3.37,0,0,0-.74,1.36c-.79,2.83-1.73,5.45-1.89,8.4a3,3,0,0,0,2.48,3.29c1.65,2.22,5.93,1.41,6.28-2.14,0-.13,0-.26,0-.39h0v-.42c.53-5.28,1-10.55,1-15.86C362.57,236.87,355.55,236.67,355.51,241.19Z"/><path class="cls-3" d="M112.46,78.28c-.33,0-.85,0-1.36-.07.41-.2.78-.45.21-.44a10.51,10.51,0,0,0-4.06.63,2.87,2.87,0,0,0-.34.16l-1.27.3a15,15,0,0,0,1.88-1.39c.44-.39-.82-.21-.94-.17A15.71,15.71,0,0,0,101.69,80l-.22.1-.07,0a6,6,0,0,1-.85,0h-.16c-.34,0-1.94.68-1.44.72h.39q-.37.2-.75.42h-.14c-7.35.62-8.38,11-7.71,16.71,0,.31,1.16,0,1.29-.07,3.57-1.24,5.31-4.83,6.3-8.62l.83-.62c3.58-.85,5.9-4,7.87-7.22.08-.14-.14-.15-.44-.12a2.43,2.43,0,0,0,.2-.25c1.07-.71,2.14-1.42,3.2-2.14.41,0,.82,0,1.2,0S113.38,78.28,112.46,78.28Zm-7.1,2.3c-.25-.06-.5-.12-.75-.16a.21.21,0,0,1,0-.06c.27,0,.55.08.84.15Zm-4.9,1.67a12.49,12.49,0,0,1,1.08-.84h.69c-.21.28-.43.55-.64.82l-.63.24-.89.28c0-.1.08-.2.13-.3Zm-1.36,3.3v0l0,0Zm.27-1,.3-.8c.37-.11.74-.23,1.1-.36A2,2,0,0,1,99.37,84.55Zm3.6-2c.28-.12.55-.25.83-.39-.46.32-.91.65-1.36,1C102.62,82.91,102.8,82.71,103,82.51Zm-9.47,6a24.38,24.38,0,0,0-.8,3.45,27,27,0,0,1,.8-4.1Zm5.61-1.07A21.36,21.36,0,0,1,101.53,85c.31-.28.64-.53,1-.79l.42-.28a38.65,38.65,0,0,1-3.65,3.47Zm-2.74-4.53c-.39.27-.76.55-1.14.83A1.54,1.54,0,0,1,96.37,82.87Zm-2.27,3a11.24,11.24,0,0,1,.82-1.67h0c.27,0,.53,0,.79,0a8.12,8.12,0,0,0-1.55,2.29,1.43,1.43,0,0,0-.31.12ZM92.62,96.82a22.67,22.67,0,0,1-.05-3.4,3.3,3.3,0,0,0,1.81-.52l.06-.11a2.14,2.14,0,0,0,1-.46c.24-.46.45-.93.64-1.4C95.38,93.37,94.29,95.61,92.62,96.82Z"/><path class="cls-2" d="M101.46,55.35c1.06-9.87,13.62-15.24,20.52-20.71.87-.69-1.06-.71-1.55-.33-7.05,5.59-19.81,11.13-20.9,21.28-.08.79,1.86.42,1.93-.24Z"/><path class="cls-2" d="M99.17,57a158.07,158.07,0,0,1-15.88,7.3c-2.51,1-5.08,2.25-6.55,4.61C73.5,74.08,85.49,81.23,89.55,81.2c2.46,0,4.58-1,6.9-1.66,3.59-1,7.25-1.75,10.88-2.54,5.37-1.18,10.93-2,16.19-3.64,1.32-.41.06-.57-.65-.35-8.87,2.74-18.29,3.72-27.25,6.22-4,1.12-6.94,1.48-10.49-.8-3-2-7.86-5.85-6.49-9.91,1.06-3.14,7-4.6,9.85-5.7A109.25,109.25,0,0,0,100.63,57c.8-.43-1.14-.16-1.46,0Z"/><path class="cls-2" d="M81,67.86l.14.12c-.07.1-.14.21-.22.31-.39.32-.62.25-.25.15l.52-.1a11.69,11.69,0,0,1,1.45-.16c.53,0,3,.17,1.79,1.07a19.17,19.17,0,0,1-2.71,1.15,4.8,4.8,0,0,0-2.2,2.65c-.16.43,1.71.21,1.91-.31a4,4,0,0,1,2.81-2.58,4.54,4.54,0,0,0,2.57-1.76v-.1c-.79-1.14-2.6-1-3.81-.94-1,.07-2.74.13-3.58.82-.06,0-.28.2-.22.31a.25.25,0,0,0,.21.15,2.22,2.22,0,0,0,1.36-.23c.14-.07.68-.48.22-.55Z"/><path class="cls-2" d="M125.11,37c.52-8.34,2.19-16,6.41-23.22l-1.57.58c3.18.17,5.24,7.75,6,10.19,1.3,4.45,2,9,3.71,13.36.2.49,2.09-.12,1.94-.52-2.06-5.09-2.78-10.58-4.48-15.79-.74-2.29-2.92-7.9-5.89-8.07-.47,0-1.31.13-1.57.58-4.26,7.31-5.92,15.05-6.44,23.41,0,.32,1.89.08,1.93-.52Z"/><path class="cls-2" d="M132,15c4.78.88,8.33,8.45,10.49,12.24s4.25,7.84,8,10.3c.53.34,2.24-.44,1.8-.72-4.81-3.13-6.71-8.66-9.77-13.25-2.39-3.59-4.73-8.67-9.35-9.51-.53-.1-2.27.75-1.21.94Z"/><path class="cls-2" d="M125.85,21.94c-2.1-3.23-3.17-7-6.16-9.6a1.3,1.3,0,0,0-1.8.34c-2.77,6-3,13.92-1.67,20.29.16.77,2.1.27,1.93-.51-1.3-6.11-1.11-13.92,1.56-19.67l-1.8.34c3,2.57,4.06,6.39,6.16,9.6.4.62,2.27-.05,1.78-.79Z"/><path class="cls-2" d="M93.61,82.23c-3.57,2.86-4.53,8.41-4.85,12.69-.28,3.84.6,5.36,4.49,4.61a5.24,5.24,0,0,0,3.14-2.17,20,20,0,0,0,1.9-4c1-2.2,2.85-3.47,4.75-4.86C105.48,86.77,106.78,84,109,82c1.93-1.81,5.8-2.44,8.18-3.59,1-.49.39-1.21-.53-.94a4.71,4.71,0,0,0-1.52.66c-1.07.76.58,1.07,1.21.62l.59-.25-.53-.94c-2.61,1.26-6,1.78-8.29,3.57a20.05,20.05,0,0,0-4,4.41C102.48,87.79,100,89.06,98,91c-1.46,1.44-2.12,3.66-3,5.48-.65,1.4-3.54,3.17-4.17,1.18a9.49,9.49,0,0,1-.18-3c.11-4,1.25-9.53,4.47-12.11.87-.71-1-.77-1.56-.36Z"/><path class="cls-2" d="M118.66,78.84c-5.93,3.88-11.13,11-18.47,12.08-.93.13-1.59,1.29-.25,1.1,8.1-1.21,13.42-8.33,19.93-12.58,1.1-.71-.57-1-1.21-.6Z"/><path class="cls-2" d="M103.7,85.86c-.23.23-.51.53-.39.89s.51.51.73.74c.5.52,2.34-.21,1.79-.77a4.38,4.38,0,0,0-.45-.41l-.16-.14c0,.14,0,.17,0,.07a.4.4,0,0,0-.2-.74,1.57,1.57,0,0,0-1.36.36Z"/><path class="cls-2" d="M104.67,86.82c.49,0,1.13,0,1.47.32a1.11,1.11,0,0,0,1.32.17c.31-.15.79-.68.44-1a3.46,3.46,0,0,0-2.58-.92,1.23,1.23,0,0,0-1.26.61.65.65,0,0,0,.61.87Z"/><path class="cls-2" d="M108.34,83.31c-.6.3-1.24.76-1,1.51a3.17,3.17,0,0,0,1.5,1.46c.54.33,2.33-.46,1.54-.93a3.68,3.68,0,0,1-.91-.75,1.15,1.15,0,0,1-.24-.4c-.06-.18.08-.21-.15-.09.22-.11.83-.45.51-.78s-1-.18-1.28,0Z"/><path class="cls-2" d="M108.85,83.64a3.41,3.41,0,0,0,1.22-.29,3.35,3.35,0,0,0,.36-.21l.2-.17c.3-.24.05-.17-.72.21l-.56-.15c0,.66.91.94,1,1.59,0,.39,2,.06,1.93-.52s-.91-.94-.94-1.59c0-.19-.46-.16-.56-.16a3.35,3.35,0,0,0-1.21.29,2.6,2.6,0,0,0-.36.21L109,83c-.29.24,0,.17.73-.21a2,2,0,0,0-1.29.47c-.32.32.27.37.46.36Z"/><path class="cls-2" d="M111.52,80.94a.91.91,0,0,0,.13.74,1.33,1.33,0,0,0,.95.26,1.48,1.48,0,0,0,1.27-.53c.26-.4-.21-.6-.53-.62s0,0,.11.16a1,1,0,0,1,0-.24c0-.83-1.9-.45-1.93.23Z"/><path class="cls-2" d="M114.16,80.74c.17-.1.19-.13.06-.11-.34.12-.28,0,0,.23.54.55,2.38-.2,1.78-.81a2.21,2.21,0,0,0-3,0c-.27.22-.56.62-.14.87a1.37,1.37,0,0,0,1.38-.14Z"/><path class="cls-2" d="M116.3,80.07c.74,0,2-1.11.75-1.11-.74,0-2.06,1.11-.75,1.11Z"/><path class="cls-2" d="M101.32,88.76c0,.55,0,1,.62,1.15a2.74,2.74,0,0,0,1.35-.26c.12-.06.69-.38.25-.45s-.3-.67-.29-1-1.9,0-1.93.52Z"/><path class="cls-2" d="M99.63,93.66c5.05.74,9.72-1.84,13.51-5,4.65-3.88,8.73-11.28,14.75-13.07,1.17-.35.86-1.56-.32-1.21-10.43,3.1-14.8,19.81-27.24,18-.89-.13-2,1.12-.7,1.31Z"/><path class="cls-2" d="M100,58.45c2.46,3.55-12,6.26-13.4,9.14-.42.85,1.51.64,1.8.06,1.45-2.9,17-4.82,13.39-10-.39-.55-2.26.1-1.79.77Z"/><path class="cls-2" d="M88.85,70.38c5,1.65,7.65,1.34,11.89-1.76,1-.75,8.14.48,10.24.12,5.58-1,9.28.42,14.38,2.1.73.24,2.28-.82,1.14-1.19-2.81-.93-5.71-2.32-8.69-2.6-4-.39-7.5,1-11.48-.25a6.41,6.41,0,0,0-4.62-.13,16.36,16.36,0,0,0-3.16,1.9c-2.75,2-5.65,1.58-8.56.62-.73-.24-2.27.81-1.14,1.19Z"/><path class="cls-2" d="M120.25,39.63c-2.57-2.45-4.94,1.69-5.14,3.92,0,.34.31.55.62.55,2,0,3.39-1,4.85-2.26L119,41.37c-.52.6-.63,1.41-1.14,2-.35.41-.08.86.45.87a15.46,15.46,0,0,0,4.66-.85c1.18-.33.87-1.51-.31-1.18A12.43,12.43,0,0,1,119,43l.44.87c.52-.6.63-1.4,1.14-2,.82-1-1.07-.93-1.59-.47a4.17,4.17,0,0,1-2.56,1.45c.21.18.42.36.62.55,0-.39.83-3.49,1.42-2.93s2.4-.21,1.78-.81Z"/><path class="cls-2" d="M108.05,53.73l1.28.07a1.17,1.17,0,0,1,.14-.3,6.77,6.77,0,0,1,.57-.83c.46-.6,1.35-1.66,2.19-1.67l-.59-.27a4.21,4.21,0,0,0,4.79,3.05c.92-.12,1.62-1.19.28-1-1.64.2-2.69-1.15-3.14-2.53-.07-.23-.38-.28-.58-.27a6.55,6.55,0,0,0-5.06,3.14c-.21.29-.8,1-.44,1.41.53.55,1.66-.12,2.1-.49.84-.71-1.08-.67-1.54-.28Z"/><path class="cls-2" d="M108.1,53.3c-.35.28.4-.09.09,0a3.5,3.5,0,0,0-.54.2c-.22.1-.49.26-.51.52-.07.77.85,1.15,1.45,1.32a3.26,3.26,0,0,0,3.78-2c.16-.4-1.69-.2-1.91.32a2.9,2.9,0,0,1-.61,1c-.27.27.73,0,.32-.1a2.36,2.36,0,0,1-.65-.29.9.9,0,0,1-.41-.49,1.6,1.6,0,0,1,0-.21c-.74.34-1,.47-.61.39a2.86,2.86,0,0,0,1.15-.52c.28-.22.27-.45-.13-.48a2.22,2.22,0,0,0-1.37.37Z"/><path class="cls-2" d="M110.57,52.83l1.08-1L110,51.49c0,1,.35,2.06.34,3.11a.63.63,0,0,0,.64.62l.52,0c.46,0,1.28-.18,1.31-.77.06-1,.11-2.06.17-3.08a.63.63,0,0,0-.65-.63l-.51,0c-.46,0-1.28.19-1.31.78,0,.85-.1,1.71-.14,2.56l1.31-.77-2-.12c-.61,0-1.59.38-1.22,1.13.58,1.18,1.87,1.38,3.06,1.44a1.29,1.29,0,0,0,1.26-.59.6.6,0,0,0-.59-.81c-.85,0-1.55-.06-2-.89L109,54.6l2,.11c.46,0,1.28-.18,1.31-.77,0-.86.1-1.72.14-2.57l-1.31.77.51,0c-.21-.21-.42-.42-.64-.62-.06,1-.11,2.05-.17,3.07l1.31-.77-.51,0,.65.63c0-1.06-.36-2.06-.35-3.11,0-.79-1.18-.76-1.62-.37l-1.08,1c-1,.88.56,1.53,1.28.89Z"/><path class="cls-2" d="M109.74,53c-.33-.3-.23-.22-.33-.18a5.15,5.15,0,0,1,1.61-.19,5.94,5.94,0,0,1,3.28.6c.62.41,2.37-.45,1.52-1-1.47-1-3.81-.93-5.5-.76-1,.1-3.92.94-2.36,2.37.57.52,2.39-.25,1.78-.81Z"/><path class="cls-2" d="M115.23,52a8.34,8.34,0,0,0,5.28,2.91,2.42,2.42,0,0,0,1.36-.36c.33-.21.25-.4-.11-.43a7.85,7.85,0,0,1-4.71-2.78c-.33-.37-2.12.32-1.82.66Z"/><path class="cls-2" d="M114.54,56.39l1.54.08a1.39,1.39,0,0,0,1.27-.56c.22-.41-.19-.7-.57-.72l-1.54-.09a1.37,1.37,0,0,0-1.26.57c-.23.41.19.7.56.72Z"/><path class="cls-2" d="M110.66,49.27a4.6,4.6,0,0,0-3.86.73,6.45,6.45,0,0,0-2,3.3c-.25.8,1.51.28,1.75.06a23.33,23.33,0,0,1,3.59-2.74c.27-.17.56-.59.15-.8a1.56,1.56,0,0,0-1.37.17A26.65,26.65,0,0,0,105,53l1.75.06a7.41,7.41,0,0,1,.92-2,1.51,1.51,0,0,1,1.83-.71,1.57,1.57,0,0,0,1.36-.36.4.4,0,0,0-.19-.73Z"/><path class="cls-2" d="M151.45,38A9,9,0,0,0,154,41.56c1.44,1.38.6,2.79-.4,4.19a.09.09,0,0,0,0,.14c.71.76.95.44.89,1.54,0,.11.29.11.33.11l.51,0c.31,0,1.49-.15,1.58-.55.17-.73.53-1.35.64-2.11,0-.18-1.84,0-1.93.52-.11.73-.45,1.26-.61,1.94l1.59-.55c-.48,0-.18,0-.18,0l.05-.92a.2.2,0,0,0-.16-.1c-1.28-.13.11-1.83.33-2.51a1.86,1.86,0,0,0-.24-1.65c-.94-1.54-2.42-2.32-3.07-4.14-.15-.43-2,.16-1.93.52Z"/><path class="cls-2" d="M156.43,43.26c3.86.14,7.35,5.49,9.5,8.18,2.67,3.33,5,7,8,10.07.57.58,2.4-.19,1.77-.83-3.4-3.46-6-7.69-9.1-11.45-2.24-2.74-5.53-7.14-9.46-7.28-.88,0-2,1.27-.7,1.31Z"/><path class="cls-2" d="M126.62,77.8c-.25,5-4.68,8.71-7.84,12.13a31.11,31.11,0,0,0-5.25,8c-2.35,5-6.17,15.2.2,18.8a1.94,1.94,0,0,0,1.87-.5,12.32,12.32,0,0,0,2.4-6.13l-1.93.52a5.64,5.64,0,0,0,1.45,2.71c.3.36,2.11-.31,1.82-.65a3.77,3.77,0,0,1-1.34-2.58c-.09-.42-1.88.07-1.93.52a11.23,11.23,0,0,1-2.38,6l1.87-.5c-6.89-3.9-1.8-15.19.78-20.36,3.17-6.34,11.83-11,12.21-18.49,0-.26-1.9,0-1.93.52Z"/><path class="cls-2" d="M150.65,71.4c.87,6.29,1.67,13.77-3.36,18.56-3,2.84-7.16,4.55-7.43,9.15l1.93-.52.09-1.54a.22.22,0,0,0-.18-.12c-5.89-.94-6.68,6.91-7,11.16,0,.32,1.84,0,1.92-.42.52-3.2-1.23-4.4-4.2-3.31-3.71,1.35-4.06,6.89-5.77,9.89l1.92-.43c.16-2.14.64-6.64-2.77-5.72-3.25.87-4.71,5-5.42,7.86l1.92-.43c0-.85.09-1.71.14-2.56,0-.39-1.4.06-1.53.12-2.43,1.17-2.18,3.49-2.25,6l1.59-.66c-.61,0-1.25-.72-1.71-1.06s-2.12.44-1.82.66c.81.61,1.29,1.15,2.28,1.21.36,0,1.57-.15,1.59-.66.05-1.68-.39-4.29,1.44-5.17l-1.52.13c0,.85-.1,1.71-.14,2.56,0,.34,1.81,0,1.91-.42a18.7,18.7,0,0,1,2-4.91c2.46-4.24,2.49,2.23,2.38,3.62,0,.41,1.75-.12,1.92-.43a26,26,0,0,0,1.79-4.16c.27-.78.58-1.56.9-2.32.92-2.24,4-2.86,3.47.57l1.92-.43a35.23,35.23,0,0,1,.63-4.69,20.85,20.85,0,0,1,.81-2.8s1.88-3.2,1.75-1c0,.3,1.9.06,1.93-.52.31-5.37,6.18-6.52,8.8-10.4,3.46-5.11,2.79-11.52,2-17.31-.06-.4-2,0-1.93.52Z"/><path class="cls-2" d="M117.72,118.4c-2.38,7.4-2.82,18.36,5.52,22,.35.15,1.85-.09,1.88-.58l0-.51-1.94.52c.44,4.53,2.7,7.88,5.33,11.46,1.9,2.58,2.44,5.06,3.57,8s3.67,2.72,5.29.32l-1.92.45c1.6,2.3,2,5.86,4.22,7.64,1.3,1.05,3.89-.19,5.14-.7l-1.52.18c.84,2.24,1.36,4.57,2.2,6.81.15.4,2-.21,1.93-.52-.83-2.24-1.36-4.57-2.19-6.81-.14-.36-1.31.09-1.52.17-3.74,1.52-4.76-5-6.33-7.29-.27-.4-1.69.12-1.91.44-.78,1.15-3-6.16-3.39-6.91-2.36-5-6.4-7.82-7-13.76,0-.3-1.91.06-1.94.52,0,.17,0,.34,0,.51l1.88-.58c-8.23-3.64-7.78-14.52-5.46-21.78.1-.29-1.75-.09-1.89.37Z"/><path class="cls-2" d="M176.77,63.46c2.13,14.81,20.52,23.86,32.27,30,7.6,4,15.31,7.58,22.75,11.87a73.17,73.17,0,0,0,23.64,8.56c19,3.65,38.76,5.14,57.41,10.33a133.86,133.86,0,0,1,31.73,13.14c10.23,6,17.37,16.11,22.11,26.77.4.89,2.32.34,1.94-.52-4.09-9.19-9.74-17.5-17.52-23.94s-18.33-10.42-27.78-13.81c-18.13-6.52-37.4-8.08-56.25-11.41-9.77-1.72-19.81-3-28.77-7.5-7.46-3.71-14.54-8.1-22-11.76a159.38,159.38,0,0,1-23.16-13.35c-6.38-4.57-13.23-10.7-14.41-18.88-.13-1-2.07-.46-1.93.51Z"/><path class="cls-2" d="M280.6,184.62c3.14,4.4,6.36,8.78,10.45,12.37,3.52,3.09,7.83,5.4,11.81,7.85,10.31,6.36,21.07,6.74,32.54,9,23.1,4.62,28.12,36.11,27.24,55.7,0,.27,1.9,0,1.93-.51A90.72,90.72,0,0,0,359.28,235c-3.24-9.16-8.53-17.48-18.14-20.71-4.49-1.52-9.15-2-13.83-2.54a59.09,59.09,0,0,1-18-5,66.41,66.41,0,0,1-26.82-22.62c-.33-.47-2.07.32-1.93.52Z"/><path class="cls-2" d="M362.63,269.41c-.67,2.9-4.27,3.12-6.62,4a6.3,6.3,0,0,0-4.4,5.57c-.08.89,1.87.55,1.94-.2.57-6.56,9.65-3.63,11-9.56.2-.84-1.77-.55-1.94.19Z"/><path class="cls-2" d="M357.5,276.14c-3.81.54-7.38,3.46-7.17,7.56,0,.14.27.19.35.19,1.7.09,4,.25,5.15-1.31.44-.6-1.46-.35-1.77.07-.44.61-1.48.38-2.15.35a3.9,3.9,0,0,1,.35.19,6,6,0,0,1,4.92-6.19c.84-.12,1.67-1.05.32-.86Z"/><path class="cls-2" d="M363.63,275.76c-4.07.68-7,5.37-6.68,9.34,0,.25.42.37.61.37a7.12,7.12,0,0,0,3.62-1c1.58-.86,2.85-1.95,4.76-1.66.86.13,2-1.07.71-1.26a6.9,6.9,0,0,0-3.95.59c-1.45.65-2.76,2-4.43,2l.61.38c-.18-2.56,1.67-7.08,4.54-7.56,1-.16,1.53-1.47.21-1.26Z"/><path class="cls-2" d="M367.6,282.46c1.69-2.09,4.69-2,6.24-4.31.85-1.26-.2-6.07,1.7-6.13.35,0,1-.29,1.08-.72.05-1,.11-2.05.17-3.08s-1.91-.58-2,.19c0,1-.11,2-.17,3.08l1.08-.72c-2.47.07-3.22,1.69-3.31,4s0,3.7-2.46,4.7a8.68,8.68,0,0,0-4,2.59c-.75.93,1.1,1.05,1.58.45Z"/><path class="cls-2" d="M376.46,264.44c-.5-14.42-.77-28.85.24-43.25.15-2.17.64-3.44-.63-5.17s-4.72-2.3-6.72-3.33c-5.64-2.9-9.9-7.31-13.65-12.34-.42-.57-2.28.11-1.78.78a46.17,46.17,0,0,0,10,10.19,31.49,31.49,0,0,0,6.85,3.7c2.39.95,4.37,1.41,4.09,4.67-.14,1.72-.25,3.44-.36,5.16-.84,13.34-.47,26.75,0,40.1,0,.68,2,.28,1.93-.51Z"/><path class="cls-2" d="M355.41,238c-.18,3.78-.22,7.54-.66,11.29a17.1,17.1,0,0,1-1.88,6.5c-.75,1.31-1.57.8-1.64,2.07l1.34-.68c-2.84.11-10.22,2.23-7.74,6.25.34.56,2.22-.06,1.79-.76.64-3,2.38-4.42,5.2-4.37.36,0,1.31-.16,1.34-.68s1.15-1.3,1.51-1.77a11.79,11.79,0,0,0,1.65-4.58c1-4.4.81-9,1-13.5,0-.82-1.9-.43-1.93.23Z"/><path class="cls-2" d="M355,258.79c-3.73,1.34-6.94,4-6.34,8.35.05.39.58.45.88.45,2.14,0,4.42-.94,6.39-1.68s4.95-1.85,5.71-4c.37-1.06-1.56-1.05-1.85-.23-.6,1.66-3.23,2.46-4.72,3.05a15.92,15.92,0,0,1-5.36,1.4l.88.46c-.46-3.28,1.89-5.46,4.77-6.49,1.14-.41.81-1.76-.36-1.34Z"/><path class="cls-2" d="M379.07,219.89c1.55,3.14,4.65,6.25,8.22,6.76.38.06,1.56-.16,1.58-.67.09-1.54.17-3.08.26-4.62l-1.59.67c1,.06,2.85,1.65,3.84,2.15,1.46.73,3,1.3,4.52,1.9.44.18,2.2-.53,1.58-.77a53,53,0,0,1-6.24-2.83c-.93-.52-1.4-1.21-2.46-1.27-.38,0-1.55.14-1.58.67-.09,1.54-.17,3.08-.26,4.62l1.59-.67c-3.19-.46-6.17-3.72-7.53-6.46-.25-.5-2.11.17-1.93.52Z"/><path class="cls-2" d="M397.13,222.55a19.8,19.8,0,0,1,4.39,2.25c.39.29,1.84,0,1.87-.59s.07-1.37.11-2.06c0-.34-1.9-.09-1.93.52s-.07,1.37-.11,2.05l1.87-.59a20.45,20.45,0,0,0-4.63-2.37c-.45-.18-2.2.54-1.57.79Z"/><path class="cls-2" d="M403.22,222.41a4.33,4.33,0,0,0,3.55,2c.48,0,1.28-.19,1.31-.79s.08-1.36.11-2.05c.06-1-1.91-.77-2,.14,0,.68-.07,1.37-.11,2l1.31-.79a2.84,2.84,0,0,1-2.44-1.42c-.39-.8-2.22-.07-1.77.86Z"/><path class="cls-2" d="M406.79,221.41a12.08,12.08,0,0,0,2.48,2.77c.26.29,1.85-.17,1.88-.58,0-.68.07-1.37.11-2l-1.93.52c.41.91,1,1.73,1.4,2.65.19.43,2.06-.24,1.93-.52-.42-.91-1-1.74-1.4-2.65-.18-.39-1.91.1-1.93.52l-.12,2.05,1.88-.58a11.71,11.71,0,0,1-2.37-2.65c-.21-.43-2.06.25-1.93.52Z"/><path class="cls-2" d="M367.62,165.71c3.1,9,9.81,15.61,17.61,20.73,4.66,3.06,10.88,4.24,16,6.39,1.6.68,4.89,1.45,3.84,3.68a16.59,16.59,0,0,0-1.25,4c0,.23.17.38.37.41,4,.53,4.62,4.56,8.27,5.05-.49-.07,3.57,3.48,3.45,3.38,2.46,2,2.35,6.76,2.87,9.63.12.67,2.06.2,1.93-.52-.64-3.52-.67-7-3-9.86-1.12-1.36-2.26-3.27-4.06-3.69-2.8-.65-3.8-3.8-6.56-4.78s.83-3.64.34-5.24-3.36-2.4-4.66-3c-4.7-2.17-9.73-3.53-14.46-5.64-8.42-3.76-15.78-12.48-18.73-21.07-.24-.68-2.16-.12-1.94.52Z"/><path class="cls-2" d="M418.76,219.69a8.48,8.48,0,0,0-.77,3.72c-.05.9,1.9.56,1.95-.19a7.94,7.94,0,0,1,.64-3.41c.49-.89-1.47-.77-1.82-.12Z"/><path class="cls-2" d="M348.32,171.43c4.34,3.6,7.47,8.87,10,13.85l1.87-.6c-1.89-1.13-1-.51-3.65-1.28-.37-.11-1.66,0-1.75.56-.48,3,.82,4.07,3.27,5.47,1.95,1.11,2.28,2.3.91,4.17-1,1.39-.47,2.7.22,4.09.26.53,2.12-.14,1.93-.52-1-2-.84-3.1.48-4.83.55-.71.4-1.23.06-2-1.4-3.22-5.73-1.91-4.95-6.69l-1.75.56a16.38,16.38,0,0,1,3.42,1.16c.31.19,2.12-.11,1.87-.6-2.53-5-5.74-10.4-10.1-14-.44-.36-2.18.38-1.82.69Z"/><path class="cls-2" d="M282.41,188.93c-4.07-3.53-6.53-4.34-11-.88-.49.37-5.65-1.6-6.54-1.74-2.23-.35-4.2-2.15-6.48-1.91-1.91.21-3.35,1.4-4.76,2.6-.58.52-1.14,1.07-1.68,1.63.57.45.71.25.43-.6a2.56,2.56,0,0,0-1.05-1.52c-3.41-1.41-6.86,1.55-9.73,3l1.37.19c-.44-2.14-1.88-3.34-4.17-2.58a32.38,32.38,0,0,0-4.1,1.91c-2,1-1.7-.12-2.88-1.77-.35-.5-1.34-.11-1.68.19a24.81,24.81,0,0,0-2.49,2.73c-2.21,2.68-3.63.17-4.81-1a7.48,7.48,0,0,0-4.49-2.1c-4.92-.07-8.39,3-12.28,5.68l1.51-.05c-3.79-4.21-7.67-5-13.09-5.46-.81-.07-2,1.09-.73,1.2,5,.43,8.54,1.17,12,5,.35.39,1.14.2,1.51-.05,3.68-2.52,7.66-6.71,12.68-4.26,1.54.74,2.47,3.21,4.18,3.65,3.27.84,5.58-3.22,7.56-5l-1.68.19c.78,1.09,1.12,2.76,2.56,3,1.61.24,7.62-4.78,8.44-.8.1.52,1.06.36,1.36.2,2.07-1.08,7.54-5.11,8.22-.82,0,.16.24.28.39.31,1.63.33,2.15-.55,3.3-1.71,2.45-2.46,4.57-2.3,7.31-1.33,2.51.88,5.94.4,7.42,3,.22.38,1,.19,1.29.07a10,10,0,0,0,2.31-1.26c3.57-2.41,5.26-1.39,8,1,.57.49,2.38-.28,1.79-.79Z"/><path class="cls-2" d="M146.5,180c2.09,3.72,4.75,7.35,8.52,9.49.52.29,1.68.13,1.72-.64l0-.63a.66.66,0,0,0-.65-.65l-.63,0c-.57,0-1.4.27-1.29,1,1.77,12.17,6.08,23.65,7.14,36,1.14,13.23.8,26.57.1,39.82-.05,1,1.91.76,2-.14a294.71,294.71,0,0,0,0-38.29c-1-13-5.42-25-7.29-37.87l-1.3,1c.63,0,0-.6-.05,0l1.72-.63c-3.66-2.08-6.2-5.61-8.23-9.22-.44-.77-2.28,0-1.77.86Z"/><path class="cls-2" d="M159.91,266.69c-2.06.84-4.21,1.12-5.74,2.8a40.29,40.29,0,0,0-3.69,4.83c-.8,1.2-4,6.07-.41,5.83,1.11-.08,1.48-1.54.16-1.45,0,0,.9-2.16,1-2.36a32.29,32.29,0,0,1,2.31-3.48c.71-1,1.46-1.89,2.24-2.78,1.15-1.29,3.41-1.57,5-2.21,1.23-.49.14-1.58-.87-1.18Z"/><path class="cls-2" d="M160.41,273.19c-3.26.35-6.66,2.6-6.92,6.17-.33,4.54,5,2,6.91.64l-1.66.28a5.06,5.06,0,0,0,4.26,1,33.37,33.37,0,0,1,7.86-.14c4,.31,6-4,7.82-6.68.18-.27-1.58-.17-1.91.32-1.87,2.71-3.22,5.68-7,5.16-2.68-.37-6.93,1.5-9.19-.31-.39-.31-1.31,0-1.66.29-2.25,1.58-3.86,1.19-3.41-1.41.34-2,2-4.22,4.1-4.44.54-.06,2.09-1,.82-.85Z"/><path class="cls-2" d="M177.5,273.15c1.41-5.72-.45-23.48,7.91-24.19.36,0,1-.27,1.08-.72.35-3.28-1.22-5.68-2.37-8.65-1.72-4.44-.21-10.24-1.26-15s-.53-11.11-.22-16.06c.25-4.18,3.63-7.05,5.9-10.2.3-.41-.25-.64-.55-.69-4.59-.64,2.21-8,3-10,.4-.95-1.53-.8-1.82-.13-1.24,3-3.74,5.16-4.83,8.23-1.37,3.84,4.15,1.25-.25,5.3-3,2.73-3.57,7.52-3.47,11.24.08,3.08-.32,6.18-.1,9.25.28,4,1,7.75,1.07,11.75.07,2.7,0,5.38,1,7.92.32.82,3.17,6.3,1.93,6.59a7.91,7.91,0,0,0-5.3,4.34c-3.48,6.39-2,14.32-3.7,21.16-.21.83,1.76.55,1.94-.2Z"/><path class="cls-2" d="M189.55,203.65c-1.92,4.86,1.68,11.34,2.49,16.15,1.3,7.74,2.72,15.46,4.56,23.08,1.46,6.06,3.41,13.05,1.67,19.22-1.23,4.35-9.54,4.95-8,10.31.19.69,2.12.16,1.93-.52-1.08-3.83,6.56-6.3,8-10,2-5,0-12-1.07-16.93-1.6-7.26-3-14.49-4.45-21.8a78.79,78.79,0,0,0-2.29-10.34c-.93-2.81-2-6.52-.9-9.38.25-.64-1.68-.41-1.94.24Z"/><path class="cls-2" d="M195,275.56a13.52,13.52,0,0,0,3.33-1.73,23,23,0,0,0,1.88-1.54c.43-.37,1.49-.1,2.09-.07l-.65-.64c0,.64-.07,1.27-.1,1.9s.94.69,1.41.51a13,13,0,0,1,4.62-.85c1.11,0,1.47-1.43.16-1.43a16,16,0,0,0-5.64,1.12l1.41.51c0-.63.06-1.27.1-1.9a.65.65,0,0,0-.65-.64c-1-.05-2.39-.44-3.29,0-1.85.9-2.95,2.71-5,3.43-1.16.4-.82,1.76.35,1.34Z"/><path class="cls-2" d="M212.55,269.44c3.1-5,3.83-10.35,3.24-16.15-.4-4,.21-7.5-.86-11.5-1.54-5.76-3.3-10.34-3.43-16.46-.21-9.47,1.94-18.9,2.56-28.32,0-.66-1.89-.25-1.92.29-.88,13.39-5,27.51-.54,40.61,1.34,3.91,2.84,7.62,1.48,11.51-.51,1.47.92,5.63,1,7.34a21.76,21.76,0,0,1-3.31,12.73c-.42.68,1.49.4,1.77-.05Z"/><path class="cls-2" d="M158.38,185.83c2.47,1.81,5.1,2.77,8.07,1.64,1.24-.47.13-1.42-.84-1.05-2.09.79-4.09-.46-5.73-1.66-.64-.47-2.36.44-1.5,1.07Z"/><path class="cls-2" d="M179.43,87.56c-.8,6.12,1.13,12,2.18,18,.08.46,2,0,1.94-.52-1.05-5.89-3-11.76-2.21-17.8.07-.54-1.84-.17-1.91.32Z"/><path class="cls-2" d="M178.56,114.77a48.56,48.56,0,0,0,.78,9.08c.1.67,2,.22,1.93-.52a47.18,47.18,0,0,1-.78-8.79c0-.82-1.9-.43-1.93.23Z"/><path class="cls-2" d="M181.45,118.8a2.34,2.34,0,0,1-.47-1.72l-1.93.4c.51,1.13,1.22,2.14,1.73,3.27.27.6,2.15,0,1.93-.51-.5-1.13-1.22-2.15-1.73-3.27-.23-.52-1.89-.14-1.92.39a2.8,2.8,0,0,0,.59,2.16c.37.45,2.22-.21,1.8-.72Z"/><path class="cls-2" d="M147.46,69.07c-2.73,3.9-.76,11.21-.26,15.55.09.76,2,.31,1.93-.52-.26-2.32-.56-4.63-.75-6.95s-.57-5.85.9-8c.56-.8-1.41-.72-1.82-.12Z"/><path class="cls-2" d="M124.58,126.56c1,12.21,5.77,25.51,13.39,35.18.42.53,1.83.24,1.87-.5.2-3.82.24-7.47-1.32-11-.33-.76-1.84-.45-1.94.34-.84,6.26,1,13,4.18,18.34.36.61,1.82.18,1.86-.5.09-1.69.19-3.38.28-5.07l-1.86.5c1.07,2.12,1.74,4.39,2.81,6.51.37.73,2.22.05,1.77-.84-1.06-2.12-1.74-4.38-2.81-6.5-.32-.64-1.83-.16-1.86.5-.1,1.68-.19,3.37-.28,5.06l1.86-.5c-3-5.15-4.8-11.69-4-17.67l-1.94.34c1.5,3.44,1.49,7,1.29,10.69l1.87-.5c-7.55-9.57-12.28-22.74-13.24-34.86-.07-.85-2-.39-1.93.52Z"/><path class="cls-2" d="M208.28,152.39c-2.31,3.34,1,7.91,2.89,10.63,3.05,4.44,6.91,8.24,10.52,12.21.57.62,2.41-.14,1.77-.84-2.71-3-5.51-5.87-8.08-9-2.27-2.77-7.89-9-5.26-12.82.59-.85-1.39-.85-1.84-.19Z"/><path class="cls-2" d="M229.81,166.15a76.42,76.42,0,0,0,8.27,11.25c.55.62,2.39-.14,1.78-.83a75.71,75.71,0,0,1-8.27-11.25c-.42-.7-2.28,0-1.78.83Z"/><path class="cls-2" d="M239.51,172.88c2.59,3.67,5.1,8.4,9.82,9.53.44.1,2.13-.61,1.59-.74-4.54-1.08-7-5.78-9.47-9.31-.33-.47-2.08.32-1.94.52Z"/><path class="cls-2" d="M254.16,175.77c3.7,2.19,6.82,5.33,11.3,5.74.56.05,2.26-.9,1.19-1-4.31-.4-7.37-3.53-10.94-5.64-.51-.3-2.3.45-1.55.9Z"/><path class="cls-2" d="M148.53,128.67c4.95-.43,8.6-3.92,11.68-7.53,4.22-4.94,8.3-11.56,9.47-18l-1.93.41c-.07,1.26-.13,2.53-.2,3.8,0,.4,1.18.08,1.32,0,3.46-1.32,5-5.1,6.12-8.39l-1.93.4c.1,1.1.36,2.11.46,3.2,0,.48,1.36,0,1.54-.06,4.25-2.36,7.41-9,4.92-13.54-.3-.55-2.14.13-1.93.52,2.19,4-.27,10.49-4.14,12.63l1.54-.06c-.1-1.1-.35-2.11-.46-3.2-.05-.54-1.78,0-1.92.41-.87,2.57-2.14,6.45-4.91,7.51l1.32,0,.21-3.8c0-.43-1.84-.09-1.93.41-.7,3.89-2.59,7.49-4.53,10.89-2.67,4.68-7.85,12.93-13.9,13.45-.57.06-2.08,1-.8.91Z"/><path class="cls-2" d="M148.16,126.76c.63,1,.49.87,1.34,1.47a1.19,1.19,0,0,0,1.66-.45,73.37,73.37,0,0,1,8-17.07c2.51-3.88,4.44-7.58,4.48-12.28a.66.66,0,0,0-.65-.67c-2.16-.12.8-7.31,1.09-8s-.85-1-1.37-.73a19.92,19.92,0,0,0-4.15,2.46l1.63.4c.07-4.48,3.36-9.8,2.4-14.12-.78-3.48-7.84,2.19-8.5,2.67l1.63.41c-.16-3.06.75-5.73,1.7-8.6a.59.59,0,0,0-.38-.8,9.44,9.44,0,0,0-5.8-.3l1,1,2.93-2.07c1.2-.55.13-1.67-.88-1.21a9.48,9.48,0,0,0-3.68,2.66c-.6.7.4,1.17,1,1,5.25-1.44,3.2,1.65,2.61,3.59a13.68,13.68,0,0,0-.46,4.85c0,.84,1.11.79,1.63.41.35-.26,5.31-3.95,5.35-2.42A13.1,13.1,0,0,1,160,82.5,39.55,39.55,0,0,0,158.2,92c0,.85,1.15.78,1.63.41a13.6,13.6,0,0,1,3.73-2.19l-1.37-.73a57.17,57.17,0,0,0-2.44,9c-.08.36.35.65.66.67,4.24.23-3.83,12.33-4.55,13.54a73.87,73.87,0,0,0-6.55,14.87l1.67-.45-1.06-1.2c-.5-.77-2.33,0-1.76.88Z"/><path class="cls-2" d="M182.22,95.1a15.87,15.87,0,0,0-.88,8.73c.63,3.68,3.7,4.36,6,6.74,2,2.08,2.24,5,4.93,6.44,1.93,1.06,2,.85,1.87,3.68,0,.27.07,6.34.38,5.57-.38,1,1.55.83,1.83.13.51-1.29,1-2.15.58-3.51a16.61,16.61,0,0,1-.63-6.18.57.57,0,0,0-.62-.54c-4.83-.12-4.48-4.89-7.45-7.3-2.18-1.77-4-2.62-4.91-5.55a13,13,0,0,1,.77-8.07c.38-1-1.55-.83-1.83-.14Z"/><path class="cls-2" d="M192.54,126.38c-1.54,4.34-5.88,3.64-8.08,7.12-2.44,3.88-.2,8.54-.64,12.82l1.14-.65c-5.54.78-6,6.38-6.32,11.05a21.82,21.82,0,0,1-3.51,10.81c-2,3.28-4.68,7.2-3.25,11.16.17.48,1.47,0,1.71-.21a72,72,0,0,0,14.61-16.56c2.57-3.89,5.11-7.72,7.85-11.5a20.72,20.72,0,0,0,2.1-3.58c1-2.2,1.66-5.37,3.5-1.44.23.49,1.76,0,1.92-.42.25-.62.49-1.25.74-1.87l-1.58.58,1.9.11c.45,0,2.23-.79,1.24-.84l-1.9-.11c-.41,0-1.39.11-1.57.58-.25.62-.49,1.25-.74,1.87l1.92-.42c-3.23-6.92-6.76,1.57-8.58,4.58-2.92,4.84-6.54,9.5-9.67,14.23a66.34,66.34,0,0,1-13.23,14.69l1.71-.21c-2.11-5.87,4.46-11.43,6.15-16.67,1.18-3.68-.74-14.29,4.65-15.05.34,0,1.1-.22,1.14-.65.52-5-2.57-10.59,2.48-14.14,3.27-2.3,4.77-1.5,6.22-5.6.15-.42-1.72-.2-1.91.32Z"/><path class="cls-2" d="M203.68,142c1.59-2.44,2.16-5.39,3.06-8.12.63-1.88,4.24-6.46,3.78-1.88a20.37,20.37,0,0,0,.38,7c.11.46,1.08.16,1.33.08,4.77-1.6,2.14,5,2,7.1a3.17,3.17,0,0,0,1,2.35c1.88,2.23,1.92,3.29.57,6.11-3.19,6.66.87,15.94,5.22,21.21.31.37,1.83,0,1.86-.5.19-3.25.38-6.44,1.79-9.43l-1.86.5c2.5,1.81,3.66,4.62,5.25,7.18.34.55,1.71.13,1.92-.4a17,17,0,0,1,2.08-4.2l-1.8.37c2,2.86,5.63,2.94,8,5.52.4.45,2.24-.23,1.8-.72-2.29-2.55-6-2.74-7.95-5.52-.33-.46-1.54.05-1.79.37a18.22,18.22,0,0,0-2.22,4.46L230,173c-1.64-2.64-2.8-5.51-5.38-7.38a1.51,1.51,0,0,0-1.86.5c-1.41,3-1.6,6.17-1.79,9.43l1.86-.5a30,30,0,0,1-6.13-14.73c-.39-2.76.5-4.73,1.65-7.14.95-2,1.08-3.52-.71-5-4.08-3.38,3.27-13-6.12-9.85l1.33.08c-.81-3.37-.36-6.63-.08-10,0-.22-.15-.33-.36-.35-8-.5-7.29,9-10.49,14-.45.7,1.47.45,1.78,0Z"/><path class="cls-2" d="M241.34,175.63c1.16,1.86,3.3,5.66,6.1,4.71a4.16,4.16,0,0,0,2.48-1.93c.93-1.4.69-5.39,3.26-4.14,2.29,1.11,3.74,3.58,6.5,3.52,2.49,0,3.37-2.78,4-4.71l-1.87.5c1.52,1.69,2.59,3.95,5.17,3.65,3.33-.39,3.91-3,6.1-5.26l-1.73.11c.92,2.09,4.16,7.78,6.94,3.95s5.67.86,8.25,1.72c1.79.59,3.75-.57,5.19-1.45l-1.49.11c.79.7,1.63,1.33,2.42,2,.5.44,2.3-.3,1.8-.74-.79-.7-1.63-1.33-2.43-2-.37-.33-1.12-.12-1.49.11-4.27,2.6-5-2.58-8.94-2.2a9,9,0,0,0-3.91,1.11c-2.72,1.55-3.29-.57-4.41-3.11-.25-.56-1.43-.21-1.74.11a18.77,18.77,0,0,0-2.52,3.17c-1.94,3.1-4.38-.87-5.41-2-.4-.45-1.7,0-1.86.5-2.11,6.89-5.94-1.62-10-.55a3.48,3.48,0,0,0-2.34,2,18.76,18.76,0,0,0-1,2.85c-1.32,4-4.9-2.14-5.3-2.79s-2.2.09-1.8.75Z"/><path class="cls-2" d="M292.63,178.47c1.51,1.57,2.65,4.11,3.71,6,1.44,2.61,3.76,4.7,5.84,6.78,3.32,3.32,5.7,7.15,8.72,10.7,1.79,2.1,4.45,3.75,7.28,3.24,2.56-.46,3.89-1.82,6.45.46a10.58,10.58,0,0,0,5,2.28c.89.2,3,.11,3.26-1.14.5-2.52-5.22-5.21-6.72-6.09-7.87-4.64-17.91-20.82-9.94-28.88l-1.68.19a9.78,9.78,0,0,0,5.88,3c.51.08,1.39-.06,1.55-.67.37-1.52,1.13-2.85,1.51-4.36l-1.87.49a8.11,8.11,0,0,0,6.17,2.46c4,.1,5.15,2.36,7.38,5.27.36.47,1.84.15,1.86-.5.11-3.6-.15-7.19,0-10.79l-1.86.5c2,2.64,5.81,6.22,9,3.32,1.08-1,.25-3.4,2.88-2.35,1.79.71,3.12,2.55,4.23,4,2,2.62,3.27,5.69,5.34,8.23.47.57,2.33-.13,1.79-.79-3.82-4.66-6.46-14.12-14-13-.36,0-1,.25-1.09.7-.63,5.29-4.81,1.08-6.37-.95-.36-.47-1.84-.14-1.86.5-.11,3.6.15,7.19,0,10.79l1.86-.49c-1.31-1.71-2.52-4.82-4.86-5.42-3.3-.84-5.57.6-8.68-2.31a1.28,1.28,0,0,0-1.86.5c-.38,1.52-1.14,2.84-1.51,4.36l1.55-.67a8.69,8.69,0,0,1-5.25-2.68c-.42-.42-1.31-.18-1.68.2-5.18,5.23-3.48,12-.25,17.89,1.75,3.22,3.6,6.84,6.16,9.49,2.92,3,8.37,4,10.36,7.86a6.58,6.58,0,0,1-4.53-1.8,23.26,23.26,0,0,0-1.86-1.56,2.76,2.76,0,0,0-1.82-.77,11.92,11.92,0,0,0-3.86,1.19c-3.23,1.52-6.11-2.36-7.71-4.43a96.9,96.9,0,0,0-8.3-9.92c-3.53-3.54-5.12-8.25-8.46-11.73-.51-.54-2.35.19-1.78.79Z"/><path class="cls-2" d="M139.76,23.06c0,4.55,1.71,8.83,1.17,13.4,0,.37.32.6.65.64,6.9.81,3.44,6.83,6.41,10.85,1.21,1.64,2.39,2.66,3.14,4.56a25.31,25.31,0,0,0,1.48,3.37.86.86,0,0,0,.8.29c-2.49.29-2.68,5.72-1.78,7.27.24-.37.47-.74.7-1.11a6.44,6.44,0,0,0-4.42,4.07c-1.27,3.24-3.58,5.59-4.21,9a9.77,9.77,0,0,0,.2,1.41,11.09,11.09,0,0,1-.61,5.83A38.09,38.09,0,0,1,140,88.76c-2.37,3.88-4.62,7.66-5.74,12.1-.22.89,1.28.61,1.62.39a27.52,27.52,0,0,0,9.59-9.56c2.49-4.3,3.51-14.3,8.16-16.63,1.18-.6.12-1.67-.87-1.17-3.85,1.94-4.93,7.12-6.18,10.86a28,28,0,0,1-12,15.59l1.62.38c1.88-7.44,7.63-13,9.78-20.26.91-3.07-1.28-6,1.29-8.67,2.38-2.47,1.77-6.75,5.45-8.11.45-.16,1-.55.7-1.1-1.06-1.81.83-5.21,1.15-7.21.07-.47-.53-.69-.9-.65.53-.06-.9-4.35-1.45-4.91-3.15-3.21-3.21-6-4.12-10.06-.5-2.23-2.2-3.3-4.26-3.86-1.39-.39-2.1-11.67-2.1-13,0-1-2-.75-2,.14Z"/><path class="cls-2" d="M80.8,67.2l5.06.28c.47,0,2-.85,1-1-1.5-.18-2.9-.7-4.4-.88l-1,1,3.16.17c.3,0,2-.68,1.17-.93s-1.21-.53-1.87-.74L82.77,66a15.52,15.52,0,0,0,5.6-.43c.18,0,1.36-.63.66-.85s-1.21-.53-1.86-.74l-.66.86c.94-.23,1.67-.91,2.6-1.13.2,0,1.34-.64.66-.86s-1.21-.53-1.86-.74l-1.17.93,5.07.28c.66,0,2.08-.91.78-1l-1.27-.07c.06.25.13.49.19.73,1-.54,2.22-.54,3.24-1.09.58-.31.39-.7-.2-.73l-.63,0-.78,1c1.08-.08,2.12-.38,3.2-.46.59-.05,2.13-.92.78-1l-1.26-.07-.78,1,2.53.14c.66,0,2.08-.92.78-1l-2.53-.14c-.67,0-2.09.92-.78,1l1.26.07.78-1c-1.08.08-2.12.38-3.2.46-.59,0-2.13.91-.78,1l.63,0c-.06-.24-.13-.48-.19-.73-1,.54-2.21.54-3.24,1.1-.58.31-.39.69.2.72l1.27.07.78-1-5.07-.27c-.3,0-2,.68-1.17.93s1.21.53,1.87.73l.66-.85c-.94.22-1.68.91-2.6,1.12-.2,0-1.34.64-.66.86s1.21.53,1.86.74l.66-.86a12.7,12.7,0,0,1-4.59.28c-.29,0-2,.68-1.17.93s1.21.53,1.87.74l1.16-.93-3.16-.17c-.47,0-2,.85-1,1,1.5.18,2.9.7,4.4.88l1-1-5.06-.28c-.66,0-2.08.92-.78,1Z"/><path class="cls-2" d="M82.51,72.91c2.2,1.38,5.2,1.57,7.62,2.4.33.11,2.25-.32,1.67-.81-2.23-1.91-4.49-2.24-7.37-2.43-.23,0-1.81.44-1.29.88,2.61,2.16,4.93,3.85,8.32,4.38.43.06,1.62-.13,1.57-.76-.37-4.33-5.73-4.91-9.2-5.16-.32,0-1.32.19-1.35.64-.37,4.85,4.23,6.14,8.28,6.51.3,0,1.79-.16,1.57-.76-1.19-3.14-4.58-4.64-7.72-5.08-.28,0-2,.32-1.5.86C86.48,77,90.5,78.39,95.19,78.8c.33,0,1.75-.14,1.57-.75-1.23-4.14-5.68-6-9.52-7.09-.3-.08-2,.46-1.5.86,4.09,3,8.2,5.36,13.32,5.92.35,0,2.21-.65,1.37-.93-3.27-1.1-6.05-3.19-9.49-3.74-.35-.06-1.93.24-1.5.86,2.73,3.93,9.93,4.47,13.15.89a.25.25,0,0,0,0-.36A18,18,0,0,0,93,70.64c-.35,0-2.19.44-1.38.94a33,33,0,0,0,14.49,5.28c.34,0,2.21-.47,1.38-.94a45.71,45.71,0,0,0-12-5.14c-.32-.07-2,.3-1.5.86,3.5,4,8.59,4.38,13.6,4.67.22,0,1.82-.46,1.29-.87-3.21-2.52-6.88-3.69-10.65-5.11-.51-.19-2.33.55-1.55.89,4.42,2,9.17,2.5,13.76,3.94.34.1,2.26-.39,1.67-.81a38,38,0,0,0-13.28-6.56c-.3-.07-2,.34-1.5.86,4.2,4.16,10.86,6.24,16.69,6.11.17,0,1.87-.5,1.29-.87a39,39,0,0,0-11.45-5.19c-.3-.08-2,.35-1.5.86,4.27,4.2,10.36,5.07,16.1,5.44.2,0,1.84-.51,1.28-.87a26.53,26.53,0,0,0-11.48-4.55c-.4.33-.81.65-1.2,1,4.49.47,8.7,2.16,13.19,2.63.33,0,2.22-.58,1.37-.93-1.66-.71-3.29-1.48-5-2.18l-1.16,1a25,25,0,0,1,8.41,1.69c.53.22,2.3-.58,1.55-.89A27.47,27.47,0,0,0,116.29,70c-.3,0-2,.62-1.16,1,1.67.7,3.3,1.47,5,2.17l1.38-.93c-4.49-.47-8.7-2.16-13.19-2.63-.55-.06-2.28.86-1.2,1A25.11,25.11,0,0,1,118,74.86l1.29-.87c-5.4-.36-11.07-1.22-15.07-5.16l-1.5.85a37.12,37.12,0,0,1,10.85,4.94l1.29-.88c-5.45.13-11.75-1.94-15.67-5.82l-1.5.85a36.46,36.46,0,0,1,12.68,6.31l1.68-.81c-4.57-1.43-9.36-2-13.76-3.94l-1.55.89c3.69,1.39,7.24,2.47,10.4,5l1.28-.88c-4.64-.26-9.32-.67-12.57-4.38l-1.5.86a43.73,43.73,0,0,1,11.61,5c.46-.31.92-.62,1.37-.94a32.31,32.31,0,0,1-14.14-5.18c-.46.31-.92.62-1.37.94a17,17,0,0,1,7.94,2.72c-1.81,1.74-3.7,2.1-5.69,1.1a5.34,5.34,0,0,1-2.79-2.25l-1.5.85c3.32.54,6,2.59,9.14,3.64l1.38-.93c-4.93-.54-8.78-2.79-12.72-5.67L86,72c3.56,1,7.66,2.8,8.79,6.62l1.56-.76c-4.47-.39-8.27-1.75-11.48-5l-1.5.86c2.85.4,5.9,1.74,7,4.61L92,77.57c-3.57-.32-7.89-1.34-7.55-5.79l-1.35.64c3.12.23,7.71.8,8,4.67l1.56-.75c-3.16-.49-5.34-2.15-7.72-4.12l-1.29.87A8.92,8.92,0,0,1,90,75.23l1.68-.81c-2.33-.79-5.3-.94-7.37-2.24-.55-.34-2.27.44-1.8.73Z"/><path class="cls-2" d="M137.93,22.8c-1.12,1.62,0,3.61.82,5.1,1.3,2.36,3.24,4.42,4.2,7,.31.82,2,.34,1.93-.52-.55-4.26-4-6.76-5.77-10.47l-1.72.78c3.13,1.66,4.57,5,6.41,7.87.44.67,2.29,0,1.78-.83-1.92-2.95-3.43-6.38-6.69-8.09-.41-.22-2.08,0-1.71.78,1.72,3.68,5.23,6.28,5.77,10.48l1.93-.52A28.34,28.34,0,0,0,141.71,29c-1-1.44-3.17-4.24-2-6,.57-.84-1.4-.8-1.83-.17Z"/><path class="cls-2" d="M121.6,18.71l-1.27-.07c-.46,0-1.48.26-1.31.93,1.14,4.44,3.8,8.35,4.37,12.94l1.93-.52c-1.08-4.56-2.62-9-3.7-13.54A.66.66,0,0,0,121,18l-.63,0c-.49,0-1.23.18-1.32.75-.8,4.78.1,9.53,1.14,14.21.18.8,1.91.38,1.94-.35.22-4.78-.18-9.52-2.52-13.8-.33-.61-1.83-.16-1.86.5A49.37,49.37,0,0,0,119,32.26c.17.78,1.66.39,1.88-.16,1.42-3.5,1.13-7.21,1.29-10.91l-1.95.35c1.09,2.42,2.34,4.75,3.42,7.17.32.71,1.9.46,1.94-.34,0-.64.07-1.27.11-1.9,0-1-1.91-.66-2,.17,0,.63-.06,1.26-.1,1.89l1.94-.34c-1.08-2.42-2.33-4.75-3.41-7.17-.32-.71-1.91-.46-1.94.34-.15,3.54.18,7.2-1.17,10.55l1.88-.16a48.51,48.51,0,0,1-1.19-12.59l-1.87.49c2.22,4.05,2.56,8.62,2.35,13.14l1.94-.34c-1-4.56-1.9-9.19-1.12-13.86l-1.32.75c.38,0,1.45,5,1.71,5.88.71,2.42,1.42,4.83,2,7.29.21.86,2,.34,1.93-.52-.57-4.59-3.23-8.5-4.36-12.94l-1.31.93,1.26.07c.9,0,2-1.27.69-1.34Z"/><path class="cls-2" d="M144.22,46.35a99.91,99.91,0,0,0,8.21,13.94c.49.66,2.34-.06,1.78-.83a95.66,95.66,0,0,1-8.05-13.63c-.4-.79-2.3-.21-1.94.52Z"/><path class="cls-2" d="M157.45,59.79c-1.27-3.06-2.46-6.14-3.94-9.11-.31-.62-2-.19-1.93.52.75,7.06,5.82,12.52,8.49,18.88.27.65,2,.18,1.93-.51-.64-6.21-3.58-12.09-5.84-17.85-1.68-4.28-2-9.23-5.26-12.72-.38-.41-2,0-1.86.63,2.66,12.4,10.39,24.09,17.88,34.12.35.47,2,0,1.87-.64-2.78-15.17-13.33-27-20-40.47-.32-.62-2.18-.1-1.94.52,3.41,8.77,8.37,16.63,13.86,24.22,5.87,8.11,10.59,17,17.19,24.59.36.41,2.11,0,1.87-.63C174.94,68.79,163.71,60,159.41,47.2l-1.86.63c7.38,10.44,14,21.45,22.43,31.08.41.47,1.9,0,1.86-.63-.66-11.48-13-17.93-15.56-28.8l-1.87.63c8.36,8.81,15.9,21.11,17.79,33.26l1.86-.64c-5.18-5.18-9.87-10.85-14.66-16.4-3.6-4.18-6.48-8.75-11.23-11.77-.48-.31-1.74.08-1.74.72,0,8.16,6.18,18.31,12.12,23.64.37.33,2.13,0,1.86-.64-4-9.71-9.35-19.77-17-27.08-.38-.36-1.81-.11-1.87.5-.66,7.41,2.88,13.7,4.59,20.71.16.68,2,.16,1.93-.52-.17-4.3-3.1-7.12-4.47-11-.22-.61-1.91-.21-1.93.38a25.19,25.19,0,0,0,1.94,11c.26.64,2.07.16,1.93-.52-.76-3.6-2.57-6.77-6.11-8.15-.47-.18-1.61,0-1.74.59a21,21,0,0,0,.08,10.3c.17.63,1.89.19,1.93-.38a26.77,26.77,0,0,1,1-6.3c.21-.7-1.7-.34-1.93.25-2.11,5.45-1.94,11.26-2.2,17,0,.86,1.7.26,1.93-.25a58.33,58.33,0,0,0,3-8.72c.2-.75-1.5-.26-1.73,0-5.68,5.56-8.25,14-10.88,21.28-.24.68,1.36.29,1.57.15,4.65-3.08,7.33-8,10-12.8,3.43-6.19,7.77-11.84,11.06-18.07l-1.8,0c-2.95,6,5.14,11.2,5.66,2.92.12-2-1.39-5.29-3.89-3.68-3.29,2.12-1,7.16.21,10,.27.64,2,.17,1.93-.52-.54-3.85-1.1-7.4-4.77-9.35-.43-.23-1.64,0-1.74.59-.72,4.23-.07,9.16,4,11.34.39.21,1.7,0,1.74-.58l.24-4.43c0-.34-.31-.4-.59-.42l-.63,0c-.33,0-1.33.19-1.34.66-.08,4.23.62,8.43,3.24,11.86.32.42,1.83.06,1.86-.5l.45-8.23c0-.83-1.73-.31-1.93.24-2.68,7.45-3.3,17.93-.76,25.5.22.65,1.61.15,1.87-.24l-.37-.09c.37-.07,1-.22,1.1-.65a94,94,0,0,0,2.74-17.72c.33-4.57,1-11.19-2.3-14.89-.39-.45-1.31,0-1.67.22-4.7,3.4-4.65,11.57-4.66,16.7,0,5.36.26,14.84,5.32,18.24a1.44,1.44,0,0,0,1.73-.58c3.85-11.12,2.63-23.2,3.18-34.76,0-.82-1.59-.27-1.86.11-3.22,4.53-3.7,10.77-4,16.13-.3,5.73-.2,12.61,2.69,17.74.37.65,1.68.16,1.93-.39,2.45-5.34,2.62-11,2.84-16.8.2-5.19,1.28-10.4.2-15.55-.14-.7-1.77-.11-1.93.38a54.89,54.89,0,0,0-2.16,15.91c0,5-.13,11.73,3.69,15.54a1.39,1.39,0,0,0,1.86-.5c2.37-8.85,2.3-18.06,2.76-27.15,0-.78-1.88-.39-1.93.24-.5,7.83-2.18,16.3,1.25,23.7.29.64,1.76.19,1.93-.38,2.13-7.22,1.54-14.69,1.85-22.12,0-.8-1.79-.36-1.93.24-1.78,7.87-.49,19.08-8.44,23.88-4.9,3-7,8.68-8.24,14-.2.84,1.61.16,1.86-.11,2-2.2,2.8-4.76,3.65-7.57.24-.78-1.62-.2-1.86.11-4.1,5.19-6.32,11.15-8,17.49l1.93-.25c.47-3.19,2-5.8,3.59-8.55.49-.84-1.47-.43-1.8,0a47.22,47.22,0,0,0-6.18,8.55c-.43.82,1.19.46,1.49.29,2.54-1.4,4.14-3.5,6.19-5.51.8-.79-1.1-.74-1.55-.3-1.89,1.86-3.45,3.94-5.83,5.26l1.49.29A46.79,46.79,0,0,1,162,114.3l-1.8,0c-1.67,2.87-3.22,5.49-3.72,8.83-.11.76,1.77.35,1.93-.25,1.66-6.21,3.85-12.11,7.87-17.21l-1.86.11c-.81,2.67-1.59,5.17-3.52,7.29l1.87-.11a28.88,28.88,0,0,1,3.86-9.61c2.09-3.15,5.83-4.19,7.81-7.39,3.91-6.36,3.41-13.77,5-20.82l-1.93.24c-.31,7.43.28,14.91-1.85,22.13l1.93-.38c-3.4-7.34-1.75-15.66-1.25-23.43l-1.93.24c-.46,9.09-.39,18.31-2.76,27.16l1.87-.5c-3.46-3.45-3.5-9.52-3.57-14.08a55,55,0,0,1,2.17-16.87l-1.93.39c1.14,5.47,0,11.24-.26,16.77-.2,5.29-.55,10.43-2.78,15.31l1.93-.38c-2.68-4.76-2.8-10.91-2.73-16.22.06-5.53.56-12.44,3.87-17.1l-1.86.11c-.55,11.56.67,23.64-3.18,34.75l1.74-.58c-4.3-2.89-4.6-11.09-4.87-15.66-.29-5.07-.51-14.64,4.22-18.06l-1.67.23c4.22,4.81,2.27,14.66,1.58,20.34-.37,3.07-.89,6.13-1.53,9.15-.23,1.1-.58,2.21-.11,2.08-.6.16-.79.49-1.12,1l1.86-.24c-2.53-7.54-1.92-17.77.76-25.22l-1.93.24-.45,8.23,1.86-.49c-2.5-3.28-3.18-7.33-3.1-11.36l-1.35.67c.25,0-.15,3.32-.19,4.05l1.73-.59c-3.83-2-4.31-6.83-3.64-10.67l-1.74.59c3.49,1.85,3.89,5.42,4.38,8.94l1.93-.52c-.43-1.05-.79-2.11-1.13-3.19-.27-.87-.67-7.46.68-4.13.12.3-.09,5.25-.83,4.61-1.51-1.31-1.61-4.42-.83-6,.41-.83-1.51-.57-1.8,0C156.82,72,153,76.86,150,82.19S144.4,93.54,139.24,97l1.57.15c2.55-7.07,5-15.33,10.48-20.73l-1.74,0a58.33,58.33,0,0,1-3,8.72l1.93-.25c.26-5.75.09-11.56,2.2-17l-1.93.25a26.77,26.77,0,0,0-1,6.29l1.93-.38a20.75,20.75,0,0,1-.08-10l-1.73.59c3.37,1.31,5,4.34,5.72,7.74l1.93-.52A24.35,24.35,0,0,1,153.59,61l-1.94.39c1.36,3.85,4.31,6.8,4.48,11l1.93-.52c-1.68-6.91-5.24-13.13-4.59-20.44l-1.86.5c7.62,7.28,12.93,17.18,16.87,26.85l1.86-.63c-5.94-5.34-12-15.21-12-23.41l-1.74.72c5,3.18,8.08,8.25,11.87,12.64,4.49,5.2,8.91,10.5,13.77,15.36.4.41,2,.06,1.86-.63-1.89-12.15-9.55-24.67-17.92-33.49-.38-.4-2,0-1.87.64,2.57,10.88,14.91,17.35,15.57,28.79l1.86-.63c-8.46-9.63-15-20.64-22.42-31.08-.33-.46-2.07,0-1.87.64,4.3,12.79,15.53,21.59,20.36,34.14l1.86-.64c-5.89-6.76-9.8-14.72-15.15-21.83-6.25-8.31-12-17-15.76-26.75l-1.94.52c6.68,13.5,17.23,25.3,20,40.47l1.86-.63c-7.46-10-15.1-21.53-17.75-33.89l-1.86.64c3.37,3.6,3.78,9.08,5.53,13.53,2.13,5.43,4.82,10.94,5.43,16.8l1.93-.51c-2.67-6.37-7.74-11.82-8.49-18.89l-1.93.52c1.48,3,2.67,6,3.94,9.11.28.66,2.18.07,1.93-.52Z"/><path class="cls-2" d="M184.92,82.32c-3.26,3.73,4.66,14.54,6.41,17.57,2.64,4.57,5.42,9.07,8.08,13.64,1.75,3,4.07,6.32,4.72,9.78l1.94-.52c-2.61-8.86-7.33-16.86-11.25-25.16-3.24-6.84-5.67-14.24-11.3-19.55-.48-.45-2,.06-1.71.82a202.51,202.51,0,0,0,9.46,21.44c4.07,8,9.33,15.64,12.16,24.2l1.85-.69c-9-11.78-13.54-26.14-21.37-38.64-.46-.74-1.93-.12-1.85.69.5,5.15,3,9.64,5.44,14.12,3.64,6.69,7.34,13.45,10.44,20.41.38.85,2.28.34,1.93-.52-4.29-10.64-9-21.25-16.21-30.27-.54-.68-2.29,0-1.76.86,5.72,9.66,11.87,19.16,15.41,29.89l1.85-.69c-4.66-9.24-9.68-18.3-13.62-27.89-.35-.86-2.1-.42-1.93.52,2.32,12.56,12.42,21.49,16.59,33.3l1.85-.69c-2.41-4.56-5.46-8.78-7.42-13.57-.32-.8-1.86-.51-1.95.32-.79,8,3.74,16,7.11,23,.36.73,2.06.13,1.85-.68-1-4.17-2.57-8.16-3.77-12.28-.23-.8-1.63-.47-1.89.15-2.39,5.64-1.58,13.59,2.23,18.44.51.64,2,.19,1.85-.69a29.79,29.79,0,0,0-5.15-11.87c-.39-.58-1.58-.28-1.81.31-1.91,5-.25,9.76,1.73,14.44.36.86,2.09.43,1.93-.52-.73-4.09-2.62-7.58-4.56-11.21-.37-.69-1.78-.17-1.86.5a33.83,33.83,0,0,0,2.8,18.76c.33.73,2,.54,2-.33,0-3.28-2.16-18.47-6.93-18.12-6.84.49.57,16.82,1.75,19.54.37.87,2.06.43,1.93-.52a35.86,35.86,0,0,0-3.29-11.14c-.32-.66-1.58-.19-1.81.32-2.44,5.4-.34,12.72.89,18.2.2.92,2.08.41,1.93-.52a28,28,0,0,0-3.36-9.87c-.4-.67-1.77-.19-1.87.5-.78,5.79.16,11.17,1.65,16.79.22.83,1.94.47,1.94-.33a26.28,26.28,0,0,0-3.83-13.27c-.33-.54-1.38-.28-1.69.14-3,4.1-2.65,9.91-.93,14.48.3.79,1.91.5,1.95-.33a55.19,55.19,0,0,0-.16-9.09c-.09-.81-1.46-.39-1.78,0-2.92,3.31-2.55,8.15-2.73,12.29l2-.14c-.1-1.5-.34-3-.39-4.47,0-1-1.55-.69-1.9-.05-.95,1.76-.53,2.12.5,3.75.48.75,2.32,0,1.77-.86a2.36,2.36,0,0,1-.42-2.65l-1.91-.05c0,1.5.29,3,.39,4.47.08,1,1.93.76,2-.14.16-3.78-.28-8.53,2.4-11.56l-1.78,0a51.72,51.72,0,0,1,.13,8.71l1.95-.33c-1.56-4.13-2.16-9.62.61-13.37l-1.7.13A25.17,25.17,0,0,1,186,164.67l1.95-.33c-1.45-5.46-2.38-10.76-1.62-16.41l-1.86.5a26.8,26.8,0,0,1,3.2,9.53l1.93-.52c-1.18-5.26-3.3-12.3-1-17.45l-1.81.31a34.55,34.55,0,0,1,3.13,10.8l1.93-.52c-2-4.58-5.88-12-4.06-17,.48-1.33,1.83,2.15,2.07,2.72a46.49,46.49,0,0,1,1.59,4.89,33.65,33.65,0,0,1,1.69,8.65l1.94-.33a33.17,33.17,0,0,1-2.77-18.38l-1.87.5c1.88,3.51,3.7,6.92,4.4,10.87l1.93-.52c-1.84-4.35-3.61-9-1.81-13.69l-1.81.31a28.87,28.87,0,0,1,5,11.54l1.85-.69c-3.56-4.53-4.39-12.06-2.15-17.35l-1.89.14c1.2,4.12,2.74,8.11,3.77,12.27l1.85-.68c-3.24-6.68-7.68-14.58-6.92-22.26l-1.94.33c2,4.92,5.11,9.24,7.58,13.92.37.7,2.13.12,1.85-.69-4.17-11.8-14.28-20.76-16.59-33.3l-1.93.52c4,9.71,9.06,18.88,13.78,28.23.36.71,2.12.13,1.85-.69-3.58-10.85-9.78-20.46-15.58-30.23l-1.76.86c7.15,8.92,11.79,19.39,16,29.93l1.93-.52c-2.59-5.82-5.78-11.31-8.63-17S184.62,91.83,184,85.38l-1.85.69c7.83,12.5,12.35,26.85,21.37,38.64.46.6,2.14.17,1.85-.69-2.33-7.06-6.48-13.16-9.8-19.75a253.69,253.69,0,0,1-11.82-25.89L182,79.2c5.68,5.36,8.1,13.13,11.36,20,3.76,8,8.25,15.6,10.74,24.09.27.9,2.11.4,1.94-.52-1.27-6.69-6.83-13.4-10.23-19.11-2.29-3.84-4.56-7.69-6.62-11.66-.79-1.53-4.28-7.28-2.68-9.11.81-.93-1-1.26-1.62-.59Z"/><path class="cls-2" d="M197.84,122.18c-1.74,4.69.7,9.64,4.47,12.58a1.43,1.43,0,0,0,1.68-.21c5.43-5.17-1.46-18.9-6.3-22.5-.5-.37-1.91-.15-1.86.64.26,4.87,5,9.9,9.07,12.14.44.24,1.65,0,1.73-.6,1.68-12.53-7.15-26-14.65-35.36-.39-.47-2-.05-1.86.65,1.69,7.94,6.88,14.34,11.66,20.69,6.1,8.12,11.95,16.34,18.33,24.26l1.79-.77c-4.68-5.41-8.21-11.54-11.57-17.83-2.69-5-5.8-10.06-8.05-15.3-3-7.06-5.75-18.11-13-22.1-.44-.24-1.66,0-1.74.6-.83,6.22,4,12.57,7.12,17.55a226.57,226.57,0,0,0,15.62,21.12c9.39,11.56,22.27,21.72,26.48,36.57l1.86-.65c-6.87-6-10.66-14.53-15.67-21.95-5.43-8.06-9.69-16.86-16.08-24.24-.38-.44-1.79-.11-1.86.5-.41,3.33,1.08,6.47,2.75,9.31,2.8,4.74,5.61,9.48,8.5,14.18,6.14,10,12.83,19.71,19.59,29.27l1.79-.77c-10-10.74-17.26-23.69-24.67-36.28-.31-.52-2.12,0-1.87.64,5.4,13.31,10,27.63,19.55,38.66.38.44,2.16,0,1.86-.64-4.08-8.41-9.56-16-13.91-24.26-.35-.66-2-.24-1.93.52.63,10.62,8.7,19.76,13.67,28.69l1.86-.64a122.38,122.38,0,0,0-12.36-17.83c-.43-.49-1.69-.07-1.86.5-2.16,7.05,3.22,14.94,6.48,20.82.35.62,2.16.21,1.93-.51a49.77,49.77,0,0,0-7-13.21c-.34-.49-1.79-.07-1.86.5-.53,4.35,1.27,8.26,2.51,12.35.21.7,2.07.2,1.93-.52-.79-4.1-3.34-7.36-5.11-11.08-.32-.67-2.19-.13-1.93.52,1.61,4,7.05,11.05,12.19,8.85s2.31-12.34,1.55-16.34l-1.73.74c6.84,4.77,7.31,14.4,14.19,19.2a1.39,1.39,0,0,0,1.73-.6c2.24-9.49-8.13-20.62-13.84-27.06-.37-.42-1.81-.13-1.86.5-.42,5.2,3.48,10.46,6.37,14.44,3.09,4.27,7.15,9.45,12.1,11.69.53.24,1.74,0,1.73-.74-.1-6.85-4.71-13.89-7.87-19.79a136.42,136.42,0,0,0-11.34-18c-7.45-9.81-14.24-21.2-25-27.72-.44-.27-1.86,0-1.73.73,1.1,5.69,5.61,10.4,9.09,14.82,4.59,5.84,9.55,11.39,14.5,16.93,9.7,10.88,21.07,21,28.05,34l1.86-.64c-5.57-6.45-9.85-13.92-15-20.7-5.64-7.41-11.48-14.67-17-22.16-5.14-7-10.72-13.5-15.52-20.72-4.66-7-7.77-15.21-13.18-21.68-.43-.51-2.23.06-1.79.77,9.4,15.2,20.15,29.44,31.36,43.34,11.41,14.14,22.44,28.58,33.77,42.79.37.47,2.16,0,1.86-.64-7.13-13.94-16.84-26.21-26.55-38.41-10.36-13-19.49-27-30.2-39.76-.43-.52-1.89,0-1.86.64.22,5.82,5.37,11.44,8.57,16a162,162,0,0,0,18.79,21.49c14.29,14.15,28.74,28.11,42.61,42.7l1.79-.77C259.4,158.69,247.83,144,235.43,130c-11.93-13.43-22-28.41-33.89-41.84-.38-.43-2.1,0-1.86.64,6.74,19.26,23.69,32.93,37.1,47.51,12.23,13.31,21.86,31.75,39,39.43.36.16,2-.05,1.73-.74-1.44-3.26-3.8-5.78-6.25-8.34-3.1-3.24-5.89-6.75-8.81-10.15-6.9-8.06-14-15.9-21.33-23.6S225.87,118,218.48,110.3q-5.14-5.34-9.93-11c-3.05-3.58-6-7.67-9.57-10.69-.47-.39-2.28,0-1.8.77,11,16.82,26.48,30.08,41.4,43.34,15.87,14.11,30.32,29.81,48.06,41.68.48.32,2.22-.44,1.66-.87-31.62-24.1-56-55.72-83-84.57-.46-.49-2.3.13-1.79.77,13,16.29,29,29.88,43.76,44.54,14.6,14.48,27.91,30,45,41.7.46.32,2.23-.34,1.67-.86-28.79-26.63-59.1-52-83.06-83.31l-1.79.77c12.22,15.78,27.07,29.19,41.32,43.08,7.18,7,14.14,14,21.86,20.47s15.37,12.36,22.44,19.27l1.79-.77c-19.54-17.06-39.33-34-55.43-54.49l-1.79.77c11.27,10.7,21.44,22.47,32.33,33.55C282,165.07,294.72,173,305.71,183l1.67-.87A206.53,206.53,0,0,1,280.72,162c-7.45-6.86-15.52-13.08-21.74-21.15-.42-.54-2.27.11-1.79.77,12.4,17.07,29.24,30.08,44.55,44.36l1.79-.77c-8.9-8-18.22-15.57-27.39-23.29-8.41-7.09-15.55-15.62-24.89-21.58a1.51,1.51,0,0,0-1.54.31c-.23.19-.45.39-.67.59s-.26.29-.19.44c3.81,8.78,11.63,14.55,18,21.43l1.66-.87c-7.55-5.1-14.37-11.27-22.66-15.21-.45-.22-2.13.12-1.66.86,4.37,6.9,9.4,13.35,13.48,20.43l1.79-.77c-5.44-6-11.38-11.46-16.82-17.43-.38-.42-2.16,0-1.86.64,3.77,8.06,10.19,14.19,16.09,20.69.41.46,2,.07,1.86-.64-1.36-8.66-7.53-15.79-12.82-22.42-.41-.51-1.92,0-1.86.64.69,7.49,5.84,13.3,8.42,20.15l1.55-.8c-7.61-1.68-10-11.33-17.7-13-.42-.09-1.93.24-1.48.93,4.21,6.43,10.07,11.42,14.92,17.33.43.52,2.24-.06,1.8-.77-2.93-4.68-7-9.39-12.21-11.55-.38-.16-2,0-1.73.74,2,5.44,5.66,9.7,9.47,14l1.79-.77c-2.66-2.32-5.14-4.8-8-6.87-.38-.28-1.95.09-1.73.73,1.38,4,4.11,6.65,7.18,9.41.47.42,2.27,0,1.79-.77-3.63-5.49-8.8-11.47-15.47-13.05-.36-.09-2,.3-1.49.92,3.54,4,9.76,12.74,16,12,6.63-.79,2.56-11.13,1.9-14.94l-1.86.65a78,78,0,0,0,9.64,9.42c.49.38,1.68.15,1.86-.5.95-3.4-.61-5.52-2.82-8-.44-.51-1.89-.06-1.86.64.2,4.48,3.63,8.83,8.12,9.6.5.08,1.39-.08,1.56-.66,2-6.9-6.85-14.8-12.63-16.92-.44-.16-1.89,0-1.73.74,1.6,7.72,12.13,17,19.95,17.88.39.05,1.26-.2,1.34-.68.84-5.46-5.6-11.09-9-14.43-4.6-4.5-10-9.19-15.8-12.05-.43-.22-2.18.16-1.66.86,7.41,9.82,16.36,24.35,29.31,27.15.48.1,1.41-.09,1.55-.66,2-7.57-7.66-13.63-11.09-19.29-.32-.52-2,0-1.86.65,2.25,8.84,12.81,15,20.82,17.86.4.14,1.95,0,1.73-.74-2.12-7.14-8-12.59-13.89-16.85-.44-.32-2.12.19-1.66.87,8.09,11.92,22.52,16,33.73,24.16.44.32,2.19-.27,1.66-.86-4.66-5.2-9.38-10.37-15.22-14.26-.37-.24-2,.11-1.73.74,6.5,13.63,26.59,14.62,32.05,29.07l1.74-.74c-8-3.05-14-10.35-19.26-16.85-.38-.46-2-.05-1.87.64,2.36,9.07,10.42,17.26,17.22,23.3.39.35,2.15.06,1.86-.65a38.85,38.85,0,0,0-12.53-16c-.48-.35-2.26,0-1.79.77a69.22,69.22,0,0,0,16.75,18.7c.48.39,2.24,0,1.79-.76-4-6.91-10.6-10.83-17.79-13.77-.33-.14-2.09.07-1.74.74,2.27,4.22,6.52,6.16,10.55,8.41.46.25,2.13-.16,1.66-.87-5.58-8.52-12.95-15.55-19.9-22.93-6.49-6.91-12-14.77-19.62-20.51-.48-.36-2.25,0-1.79.76,4.9,8.44,12.44,17.84,22,21,.31.1,1.87-.23,1.55-.8a73.29,73.29,0,0,0-26.66-27.08c-.37-.21-2,.09-1.73.74,3.24,7.36,10.2,12.36,16.23,17.33,7.16,5.91,14.26,12.34,22.08,17.37.46.3,2.08-.15,1.66-.86-4.79-8-12-13.86-19-19.91-8.76-7.6-16.45-16.48-24.92-24.42-.47-.43-2.26,0-1.8.77,5.43,8.43,13.31,14.88,20.7,21.52,7.17,6.45,13.49,13.73,21.67,19,.35.23,2.05-.13,1.73-.74-4.48-8.46-11.58-15-18.36-21.59-8.65-8.45-17.65-16.32-26.83-24.19-.52-.45-2.35.26-1.79.76,15.94,14.51,29.93,31.24,47.92,43.37.44.29,2.21-.29,1.66-.87-11-11.57-22.34-22.85-33.36-34.41-9-9.43-18-19.19-29.52-25.65-.44-.24-2.18.19-1.66.87,10.91,14.23,22,28.57,35.9,40.07.48.4,2.34-.11,1.79-.77-17-20.25-36-38.94-57.33-54.58-.48-.35-2.37.12-1.79.76a528.19,528.19,0,0,0,42.16,41.69c.47.42,2.29,0,1.79-.77-13.44-19.37-35.93-29.69-50-48.47L217,98.1c15.94,12.59,28,29.16,43.39,42.39.49.43,2.35-.18,1.79-.77-12.22-12.92-24.62-26.25-40.1-35.31l-1.54,1c21.11,10.2,38.14,27.28,54.63,43.55.47.47,2.32-.14,1.79-.77-7.29-8.7-16.33-15.64-24.58-23.38-7.59-7.12-14.56-14.85-23.31-20.61l-1.53,1c10.46,4,18.54,12.21,26.93,19.34,9.58,8.14,18.94,16.68,29,24.28.51.39,2.38-.23,1.8-.77-8.35-7.75-17.7-14.39-26.71-21.34-7.41-5.72-13.44-13-22.13-17l-1.35,1c14.22,3.94,23,16.58,34.66,24.71,12.4,8.69,26.46,15.16,37.17,26.09.55-.29,1.1-.58,1.66-.86-9.72-4.86-17.78-12.29-26-19.32-8.44-7.25-16.91-14.64-25.64-21.53-.48-.38-2.35.12-1.79.77,14.9,17,34.32,29.08,51.59,43.47.48.4,2.34-.12,1.79-.77-7.21-8.53-16.2-15.87-24.83-22.92-8.43-6.9-16.62-14.25-26.33-19.35-.42-.22-2.22.23-1.66.87,16.17,18.56,35.6,33.89,55.11,48.75.5.38,2.37-.2,1.79-.77-15.08-14.86-29.37-30.64-46.52-43.2-.47-.34-2.29,0-1.79.77,6.1,9.34,14.07,17.08,22.14,24.71,7.19,6.81,13.12,14.76,21.91,19.71.37.21,2-.07,1.73-.74-3.41-8.52-11.27-14.49-17.73-20.64-8-7.6-16-15.19-25.26-21.3-.47-.31-2.08.15-1.67.86,5.48,9.25,13.44,16.56,20.93,24.14,6.35,6.43,10.81,15,19.4,18.81.47.21,1.83,0,1.73-.74-.89-6.23-5.38-11.67-8.92-16.68a125.1,125.1,0,0,0-14.49-17c-9.83-9.61-19.83-19.88-32.61-25.48-.41-.18-2.23.19-1.66.86,7.12,8.36,16.14,14.62,25,21,9.57,6.86,18.92,14.74,29.38,20.22.42.22,2.26-.3,1.66-.86-8.38-7.92-17.53-14.89-26.74-21.79-8.4-6.3-15.92-13.5-25.15-18.62-.44-.24-2.25.3-1.67.86,10.54,10,23.48,17,35.6,24.91,13.32,8.65,24.14,20.79,37.1,30l1.53-1c-10.59-5.63-18.36-15.12-27.18-23-8.07-7.2-16.2-15.23-25.68-20.55-.44-.24-2.25.36-1.66.87,8.49,7.33,18,13.43,26.14,21.12,4.33,4.06,8.69,8.1,13,12.19,3.13,3,6,7.27,10.12,8.85.34.13,2.07-.05,1.74-.74-5.4-11-14.58-19.71-23.75-27.64-8.56-7.4-17.48-16.21-28.68-19.31-.31-.09-1.87.2-1.55.8,5.31,10.12,15,16.62,23.89,23.39,9.68,7.4,17.29,17.38,28.39,22.87.4.19,2,0,1.73-.74-2.89-8.83-12-14.8-19-20.23-10.35-8-19.93-16.68-30.83-24-.41-.28-1.92.06-1.74.73,1.33,4.87,7.18,8.65,10.82,11.77,5.23,4.5,10.58,8.85,15.72,13.45,7.22,6.44,13.65,16,23.53,18.44.43.1,1.69-.14,1.56-.8-1.95-9.6-10.47-16.9-16.92-23.68-7.8-8.21-17.06-16.27-27.17-21.5-.44-.23-2.18.17-1.66.86,7.68,10.32,19.06,16.79,29.14,24.47,12.22,9.31,24.47,18.55,36.56,28,.55-.29,1.1-.58,1.66-.86-21.69-13-36.06-34.67-56.34-49.46-.36-.26-2,.13-1.74.74,4,8.16,13.56,13.83,20.45,19.44,8.77,7.15,15.63,16.63,25.75,22.05.45.24,2.13-.15,1.66-.87-11.21-16.89-25.75-34.84-44.75-43.19-.48-.2-1.84,0-1.74.74,1.33,9.41,11.6,16.58,18.35,22.21,10.39,8.68,21.34,16.59,31.84,25.12.48.39,2.34-.11,1.79-.77-5.31-6.3-12.18-10.89-18.2-16.45s-12.47-11.64-19.51-16.19c-.46-.29-2.1.17-1.66.87,7.91,12.6,17,27.49,31.31,33.56.45.19,2.14-.12,1.66-.87-4-6.25-9.93-10.88-15.29-15.86-5.85-5.45-11.48-11.28-18-15.9-.44-.31-2.15.21-1.66.86,9.43,12.64,19.68,26,34.55,32.47.4.17,2.28-.28,1.66-.86-6.69-6.3-13.9-12.13-20.85-18.16-4.63-4-9.83-8.18-16.22-8.09-4.39.06-3.23,3.82-1.64,6.41,4.69,7.62,11.89,14.34,18.53,20.23.38.34,2.17,0,1.86-.65C313,163.07,304.35,160.12,298.2,155c-.47-.39-2.29,0-1.79.76,4.28,6.21,9.63,12.13,16.43,15.6.36.19,2-.06,1.73-.74-2-4.66-5.77-8.11-8.21-12.52l-1.73.74c2.82,1.26,4.79,3.78,7.32,5.49.44.29,2.2-.27,1.66-.87-13.77-15.39-27.83-31.68-47.49-39.53-.42-.16-2.2.14-1.67.87a13.85,13.85,0,0,0,2.4,2.67l1.26-1c-7.2-.84-12.11-7.29-19-9.29L248,118.36c3.92.51,7.34,2.64,11.26,3.16.56.07,2.35-.73,1.17-1.09a46.81,46.81,0,0,1-17.56-9.71l-1.27,1c13.3.51,23.44,11.67,36.77,12.82.36,0,2-.7,1.13-1-5.27-2.17-10.29-4.86-15.48-7.2l-1.35,1c7.84,2.59,14.93,6.89,23.29,7.64.54,0,2.05-.85,1-1.11-4.09-1-7.78-2.8-11.64-4.39l-1.14,1c10.67.2,20.29,5,28.84,11.05l1.14-1.05c-7.2-.84-12.12-7.29-19-9.28l-1,1.1c10.83.31,19.52,8.24,27.53,14.68,7.16,5.76,14.91,11.43,19.59,19.51l1.66-.86c-14-5.23-22.66-18.51-34.73-26.68-.54-.37-2.32.42-1.53,1,8.39,5.74,15.27,13.48,22.42,20.63,5.12,5.12,10.26,12.42,17.77,14,.32.07,1.84-.18,1.55-.8-7.78-17-25.58-27-39.9-37.88l-1.67.87c19.17,10.93,30.95,31,50.43,41.5.38.21,2-.05,1.73-.74-3.23-8.59-12.54-14.31-19.6-19.52-9.16-6.77-17.3-15.18-27.29-20.73l-1.54,1c9.84,4.8,17.19,12.76,26.29,18.59s18.48,10.92,25.49,19.09L354,165a28.56,28.56,0,0,1-4.76-3.35c-.56-.44-2.35.33-1.79.77a29.72,29.72,0,0,0,5,3.54c.42.21,2.22-.21,1.66-.87-6.74-7.86-15.8-13-24.45-18.45-9.57-6-17.3-14.4-27.58-19.42-.57-.27-2.37.5-1.54,1,9.53,5.29,17.32,13.28,26,19.78,7.21,5.39,17.16,11.18,20.48,20l1.73-.74c-19.47-10.46-31.26-30.57-50.42-41.5-.47-.27-2.25.41-1.66.86,14.2,10.79,32,20.74,39.76,37.63l1.56-.8c-7.89-1.68-13.4-10.15-18.92-15.44-6.84-6.56-13-13.7-20.92-19.09l-1.53,1c12.08,8.18,20.73,21.44,34.73,26.68.46.17,2.12-.09,1.66-.87-5.4-9.32-14.78-15.47-22.91-22.21-7.22-6-15.55-12.07-25.26-12.34-.51,0-2.06.78-.95,1.11,7,2.06,11.89,8.46,19.39,9.33.44.06,1.88-.52,1.13-1-8.79-6.22-18.68-11-29.63-11.22-.32,0-2,.68-1.13,1,4,1.65,7.79,3.53,12,4.52l.95-1.11c-8.16-.73-15.21-5.06-22.86-7.59-.49-.16-2.18.65-1.35,1,5.19,2.35,10.21,5,15.48,7.21l1.14-1.05c-13.31-1.15-23.37-12.3-36.77-12.82-.27,0-1.83.44-1.26,1a48.26,48.26,0,0,0,18.18,10l1.17-1.09c-3.92-.52-7.33-2.64-11.25-3.16-.56-.07-2.35.74-1.18,1.09,7.06,2.06,11.89,8.46,19.39,9.33.28,0,1.84-.47,1.27-1a13.48,13.48,0,0,1-2.39-2.67l-1.67.86c19.57,7.81,33.54,24,47.24,39.34l1.66-.86c-2.56-1.73-4.46-4.22-7.32-5.49-.33-.14-2.09.09-1.73.74,2.43,4.39,6.22,7.88,8.21,12.52l1.73-.74c-6.69-3.41-12-9.29-16.17-15.4l-1.79.76c6,5,14.71,7.94,18.13,15.48l1.86-.64a187.09,187.09,0,0,1-15-15.43,43.29,43.29,0,0,1-3.5-4.8,10.37,10.37,0,0,1-1.46-3.13c-.8-2.86,5.87-.42,6.26-.26,5.46,2.33,10,7,14.36,11,5.18,4.76,10.84,9,16,13.78l1.66-.86c-14.77-6.4-24.93-19.73-34.29-32.28l-1.66.87c6.82,4.81,12.68,11,18.77,16.63,5,4.7,10.56,9.06,14.29,14.94l1.66-.86c-14.15-6-23.21-20.88-31.05-33.37l-1.66.86c6.84,4.43,13.41,10.31,19.25,16s12.87,10.12,18.2,16.45l1.79-.77c-10.21-8.29-20.89-15.94-31-24.39-6.87-5.77-17.71-13.09-19.06-22.69l-1.74.74c18.89,8.29,33.36,26.2,44.5,43l1.66-.86c-9.5-5.09-16.4-13.82-24.35-20.88-7-6.19-17.21-11.59-21.44-20.17l-1.74.74c20.29,14.79,34.64,36.45,56.35,49.45.46.29,2.24-.4,1.66-.86-12.08-9.48-24.18-19-36.56-28C298.09,138,286.74,131.21,279.12,121l-1.66.87c10,5.15,19.27,13.13,26.91,21.31,6.35,6.79,14.84,13.89,16.77,23.43l1.56-.81c-9.85-2.44-16.57-12.46-23.79-18.91-4.4-3.92-9-7.66-13.45-11.47-3.8-3.21-10.7-7.68-12.07-12.7l-1.74.73c10.83,7.27,20.34,15.83,30.58,23.81,6.89,5.38,16,11.27,18.88,20l1.73-.74c-11-5.43-18.59-15.28-28.13-22.68C286,137,276.23,130.68,271,120.64l-1.56.8c11,3,19.72,11.73,28.07,19,9.06,7.89,18.25,16.46,23.6,27.39l1.74-.74c-4.29-1.65-7.92-6.81-11.22-9.94-3.85-3.66-7.81-7.21-11.64-10.91-8.06-7.8-17.66-13.8-26.14-21.12l-1.66.86c10.16,5.7,19.18,14.61,27.74,22.47,8.06,7.39,15.33,15.87,25.12,21.08.54.28,2.34-.39,1.53-1-12.52-8.88-23.29-19.92-35.67-29-12.13-8.88-25.78-15.25-36.76-25.72l-1.67.86c9.65,5.35,17.57,12.94,26.34,19.51A285.07,285.07,0,0,1,304.08,155l1.66-.87c-10.13-5.3-18.6-13.11-28.15-19.33-9.33-6.07-18.74-13.16-26-21.66L250,114c12.8,5.6,22.36,15.86,32.34,25.29a116.53,116.53,0,0,1,13.48,15.61c3.85,5.19,8.87,11.31,9.8,17.82l1.73-.73c-8.47-3.78-12.91-12.25-19.14-18.62-7.46-7.63-15.44-14.87-20.92-24.14l-1.67.87c9.11,6,17.21,13.51,25,21.11,6.34,6.18,14.21,11.92,17.6,20.39l1.73-.74c-9.15-5.15-15.4-13.6-22.9-20.69s-15.11-14.69-20.89-23.54l-1.79.77c17.15,12.56,31.44,28.33,46.52,43.2l1.79-.77c-19.51-14.86-38.94-30.19-55.11-48.75l-1.66.86c10.08,5.29,18.56,13,27.32,20.18,8.21,6.71,16.72,13.78,23.58,21.9l1.79-.77c-17.27-14.39-36.69-26.42-51.59-43.47l-1.79.77c8.74,6.89,17.17,14.31,25.64,21.53,8.3,7.07,16.39,14.59,26.22,19.5.41.21,2.25-.26,1.66-.86-11.11-11.34-25.8-17.6-38.38-27-11.15-8.32-20.14-20.27-34.07-24.13-.47-.13-2.2.63-1.35,1,9,4.07,15.35,11.77,23,17.69,8.62,6.66,17.55,13,25.54,20.45l1.8-.77c-10-7.61-19.3-16.22-29-24.28-8.56-7.13-16.59-15.47-27.19-19.53-.51-.2-2.4.39-1.53,1,9.08,6,16.32,14.11,24.2,21.5s16.47,14,23.43,22.3l1.79-.77c-16.56-16.34-33.69-33.49-54.88-43.74-.56-.27-2.38.47-1.54,1,15.4,9,27.71,22.28,39.85,35.12l1.79-.77c-15.34-13.23-27.45-29.8-43.39-42.39-.47-.37-2.32.06-1.79.77,14.11,18.77,36.6,29.09,50,48.47l1.79-.77a529.76,529.76,0,0,1-42.16-41.68l-1.79.76c21.32,15.65,40.37,34.34,57.33,54.59l1.79-.77c-13.89-11.5-25-25.84-35.9-40.07l-1.66.86c11.82,6.65,21.06,16.86,30.32,26.58,10.67,11.19,21.64,22.09,32.3,33.29l1.66-.86c-17.89-12.06-31.8-28.75-47.66-43.17l-1.79.76c8.38,7.19,16.89,14.18,24.66,22,7.28,7.37,15.46,14.19,20.39,23.49l1.73-.74c-8.49-5.47-15.08-13.12-22.54-19.82-7-6.32-14.41-12.49-19.56-20.51l-1.8.77c8.13,7.61,15.54,16,23.82,23.45,7.25,6.49,15,12.4,20.11,20.88l1.66-.87c-7.69-4.95-14.8-11.31-21.82-17.18-5.91-4.94-12.89-9.81-16.09-17.08l-1.73.74a72.53,72.53,0,0,1,26.26,26.64l1.55-.8c-9.24-3.09-16.67-12.57-21.4-20.72l-1.79.76c7.63,5.73,13.19,13.56,19.62,20.52,6.9,7.45,14.31,14.39,19.9,22.93l1.66-.86c-3.79-2.11-8-4-10.14-8l-1.73.74c7.08,2.9,13.62,6.77,17.53,13.57l1.79-.76a69.27,69.27,0,0,1-16.75-18.71l-1.79.77a38.32,38.32,0,0,1,12.39,15.8l1.86-.64c-6.71-6-14.76-14.13-17.07-23l-1.86.64c5.28,6.58,11.4,14,19.52,17,.37.14,2,0,1.73-.74-5.5-14.53-25.58-15.49-32.06-29.07l-1.73.74c5.75,3.83,10.38,9,15,14.07l1.67-.87c-11.13-8.08-25.46-12.14-33.48-24l-1.66.86c5.67,4.13,11.44,9.5,13.49,16.41l1.73-.74c-7.87-2.8-18.2-8.73-20.42-17.42l-1.86.64c3.31,5.46,12.82,11.55,10.95,18.75l1.55-.65c-12.56-2.72-21.47-17.27-28.69-26.84l-1.66.86c5.45,2.69,10.26,7,14.68,11.06,3.51,3.24,10.56,9.27,9.72,14.7l1.34-.69c-7.23-.86-17.28-10.15-18.76-17.26l-1.73.74c5.44,2,14.11,9.64,12.22,16.19l1.56-.66c-4.21-.72-7.19-4.93-7.37-9l-1.86.64c2,2.29,3.59,4.24,2.68,7.51l1.86-.5a77.3,77.3,0,0,1-9.64-9.42c-.41-.46-2-.07-1.86.64.58,3.39,4.55,16.38-3.12,12.1-4.34-2.42-7.77-6.78-11-10.45l-1.48.93c6.39,1.52,11.38,7.48,14.86,12.74l1.79-.77c-3-2.69-5.69-5.25-7-9.15l-1.73.73c2.78,2,5.17,4.44,7.75,6.69.49.43,2.34-.15,1.79-.77-3.74-4.18-7.37-8.37-9.33-13.72l-1.73.74c5.08,2.11,9.08,6.78,11.94,11.36l1.8-.77c-4.86-5.91-10.72-10.9-14.93-17.33l-1.48.93c7.61,1.68,10,11.33,17.7,13,.35.08,1.79-.16,1.55-.8-2.58-6.84-7.73-12.66-8.42-20.14l-1.86.64c5.25,6.59,11.33,13.58,12.68,22.16l1.86-.64c-5.83-6.42-12.22-12.47-16-20.44l-1.86.64c5.44,6,11.38,11.46,16.82,17.44.45.49,2.22,0,1.79-.77-4.08-7.08-9.11-13.53-13.48-20.43l-1.66.87c8.28,3.94,15.11,10.11,22.66,15.21.44.3,2.2-.27,1.66-.86-4.35-4.75-9.27-8.93-13.4-13.9a37.74,37.74,0,0,1-2.54-3.57,13.07,13.07,0,0,1-1.72-3.57c.1,1.47,1,2.39,2.81,2.76a95.18,95.18,0,0,1,9.16,8c12.5,11.85,26.06,22.41,38.84,33.94.52.47,2.34-.25,1.79-.77-15.31-14.28-32.15-27.29-44.55-44.36l-1.79.77c6.2,8,14.24,14.37,21.74,21.15a221.16,221.16,0,0,0,26.91,20.35c.46.3,2.23-.35,1.67-.86-11-10-23.63-18-34.12-28.53-11-11-21-22.84-32.33-33.55-.47-.44-2.31.11-1.79.77,16.1,20.48,35.89,37.43,55.43,54.49.51.44,2.35-.23,1.79-.77-7.06-6.91-14.84-13-22.44-19.27s-14.7-13.46-21.86-20.47C238,121,223.1,107.6,210.87,91.81c-.43-.54-2.29.13-1.79.77,24,31.29,54.27,56.68,83,83.31l1.67-.86c-17-11.67-30.29-27.06-44.73-41.52-14.71-14.74-30.7-28.23-43.76-44.54l-1.79.77c27,28.85,51.36,60.47,83,84.57.55-.29,1.1-.58,1.66-.86-17.65-11.81-32-27.45-47.8-41.49C225.46,118.69,210,105.45,199,88.62l-1.8.77c3.29,2.74,5.6,6.33,8.42,9.52,3.21,3.64,6.48,7.27,9.81,10.81,6.86,7.29,14.12,14.19,21.25,21.21S250.39,145.5,257,153c3.2,3.64,6.41,7.29,9.43,11.08s7.12,6.77,9.17,11.41l1.73-.74c-16.74-7.5-25.76-25.29-37.78-38.18-13.65-14.65-31.1-28.87-37.91-48.32l-1.86.65c11.92,13.43,22.08,28.31,33.89,41.84,12.27,14.07,24,28.73,37.07,42.07.49.49,2.33-.21,1.79-.77q-19.56-20.58-40.08-40.24a193.08,193.08,0,0,1-18.08-19.63c-2.52-3.18-4.71-6.58-7-9.91-2.13-3.06-4.48-6.29-4.63-10.14l-1.86.64c10.31,12.28,19.12,25.7,29,38.29s20.2,25.19,27.59,39.64l1.86-.65C248,155.83,237,141.37,225.51,127.25a421.68,421.68,0,0,1-31.36-43.34l-1.79.77c5,6,8,13.57,12.19,20.14,5,7.86,11,14.78,16.51,22.26,5.13,7,10.58,13.8,15.88,20.68,5.58,7.24,10.18,15.27,16.15,22.18.38.44,2.18-.05,1.86-.65-6.2-11.52-15.84-20.64-24.6-30.2q-7.5-8.19-14.66-16.72c-4.42-5.27-11-11.85-12.38-18.78l-1.73.73c10.63,6.43,17.5,17.81,24.77,27.54a152.39,152.39,0,0,1,12,19.29c2.92,5.46,7,11.92,7,18.24l1.73-.74c-4.54-2.05-8.12-6.71-11.12-10.54s-7.37-9.56-6.95-14.86l-1.86.5c5.65,6.37,15.89,17.23,13.7,26.52l1.73-.59c-6.84-4.77-7.31-14.4-14.19-19.2-.43-.3-1.85.07-1.73.74a48.7,48.7,0,0,1,1.09,11.6c-.43,8.22-9.83-2.33-11-5.15l-1.93.52c1.76,3.69,4.32,7,5.11,11.08l1.93-.52c-1.2-4-3-7.8-2.51-12.06l-1.86.5a48.55,48.55,0,0,1,6.83,12.95l1.93-.51c-3.19-5.76-8.58-13.66-6.48-20.54l-1.86.5a123.17,123.17,0,0,1,12.36,17.83c.32.54,2.16-.1,1.86-.65-5-9-13-18-13.67-28.69l-1.93.52c4.34,8.26,9.83,15.85,13.91,24.26l1.86-.64c-9.48-11-14.05-25.19-19.4-38.41l-1.87.64c7.42,12.59,14.64,25.54,24.68,36.28.45.48,2.28-.08,1.79-.77-5.69-8.05-11.27-16.25-16.61-24.53-2.68-4.15-5.22-8.38-7.75-12.62s-7-9.76-6.34-15.07l-1.86.5c6.42,7.41,10.44,16.3,16.08,24.23,5.21,7.36,8.74,15.95,15.67,22,.41.36,2.08.11,1.86-.64-3.71-13.09-14.21-22.71-23.05-32.5a212.71,212.71,0,0,1-15-19.25c-4.32-6.06-12.22-15.24-11.16-23.2l-1.73.59c7.51,4.11,10.11,16,13.37,23.32,2.52,5.65,5.95,11.14,8.91,16.59a84.08,84.08,0,0,0,10.12,15.13c.45.51,2.3-.14,1.79-.77-5.74-7.13-11.45-14.28-16.58-21.87C200.33,104.46,194,98,192.05,89l-1.86.64c7.36,9.15,16.16,22.48,14.51,34.82l1.73-.59c-3.9-2.13-8.42-7.1-8.67-11.7l-1.86.65c4.22,3.14,11.45,16.7,6.53,21.38l1.67-.21c-3.64-2.84-6-7.48-4.33-12,.25-.67-1.69-.43-1.93.23Z"/><path class="cls-2" d="M321,139.51c9.45,6.36,19.23,12.33,27.32,20.44l1.45-1c-7.59-3.05-13.56-8.62-20-13.51-7.07-5.39-14.83-9.64-21.25-15.88l-1.24,1.06c12.16,1.72,23.91,9.92,32.74,18.1l1.46-1c-8.53-2.66-15.58-7.56-22.88-12.52-5.81-4-13.42-6.85-17.3-13L300,123.22a64,64,0,0,1,32.89,15.56l1.23-1.06c-7.15-.68-13.43-4.42-19.52-8-5.51-3.21-11.46-5.26-16.59-9.16-.37.39-.74.78-1.1,1.18,10.93.19,21.82,5.73,30.69,11.74l.86-1.18c-7.09,1-13.9-2.41-20.29-5s-13.45-3.42-19.91-6.07l-.92,1.26a18.71,18.71,0,0,1,4.81.87l1.14-1.22c-5.84-1.45-11.78-2.45-17.56-4.14-.3.42-.61.84-.91,1.27A146.24,146.24,0,0,1,312,126.75c11.89,4,24.95,10.67,33.19,20.33l1.64-.94c-5.42-3.1-10.83-6.22-16-9.77l-1.1,1.18c8.62.36,15.5,10,20.64,15.95,7.27,8.47,15.47,16.27,20.2,26.58l1.72-.79c-8.13-6.38-12.93-15.57-20.31-22.59-5.76-5.48-14.76-10.58-17.21-18.59l-1.72.79c16.32,10.31,26,27.56,38.2,42,.5.6,2.26,0,1.77-.82-4.36-7.55-10-13.77-15.36-20.59-3.75-4.79-10.15-9.28-11.14-15.64l-1.31.91c11.1,1.18,18.52,15.45,22.79,24.39l1.85-.67c-8.1-7.79-15-16.69-22.1-25.35l-1.64.94c5.75,2.86,10.65,8.36,13.69,14l1.64-.94c-9.61-6.82-18.8-14.23-28.71-20.63l-1.32,1.14c11,2.33,18,15.1,23.76,23.73,8.37,12.49,15.4,25.86,24.6,37.8.48.63,2.28,0,1.77-.82-4.51-7.21-10.28-13.75-14.49-21.09-3-5.26-6-12.4-11.58-15.38-.58-.3-1.8,0-1.72.79,1.25,13.57,12.84,24.06,19.09,35.49.38.69,2.23,0,1.78-.82-3.55-6.56-7.7-12.74-11.66-19.06-3-4.73-4.92-9.92-9.57-13.33-.48-.36-1.9,0-1.72.78,3.61,14.59,13.21,26.71,20.79,39.39.36.61,2.11.08,1.85-.67-3.06-8.94-8.14-17-14-24.41-.44-.55-2.06-.13-1.86.67,2.46,9.63,8.22,17.85,13.25,26.28.41.68,2.21,0,1.78-.82-2.51-4.89-5.36-9.9-10.24-12.74-.54-.31-1.84,0-1.72.79.79,5.17,3.79,9.47,7.78,12.75.45.37,1.67,0,1.73-.62.42-4.3-3.9-7.89-7.33-9.72-.59-.31-1.78,0-1.72.79.3,4.25,3.63,7,6.69,9.51.51.43,2.24-.3,1.64-.94a34.42,34.42,0,0,0-6.82-5.56c-.45-.28-2,0-1.72.78,1.69,4.63,5.72,7.85,9.82,10.33.54.32,2.15-.13,1.64-.94-2.18-3.52-5.59-5.8-9.25-7.61-.47-.23-2.31.21-1.64.94,2.46,2.7,16.17,17.22,20,10.39,1.93-3.46-1.91-7.81-3.94-10.28a47.8,47.8,0,0,0-11.35-10.4c-.42-.26-2.07,0-1.72.78,3.94,8.44,12.6,18.84,21.41,22.47.5.2,1.68-.18,1.53-.87-2.23-10.35-12.38-20.59-21-26.18-.57-.37-2.08.12-1.65.94,3.31,6.3,8.33,11.35,13.06,16.59,3.76,4.16,7.24,8.79,12.21,11.58.44.25,1.74.09,1.73-.62-.08-7.42-5.55-13.69-9.84-19.27-5.27-6.85-9.09-15-16.86-19.46-.48-.28-1.93,0-1.72.79,2.13,8,8.95,14.3,14.67,19.91,6.47,6.34,10.44,14.94,19,19,.48.23,1.94,0,1.71-.79-2-7.27-7.82-12.49-12.84-17.78-6.85-7.23-12.34-15.68-19.3-22.87-.44-.45-2.22-.1-1.86.67,3.82,8.09,10.83,13.66,16.77,20.12s11.45,13.83,18.78,18.93c.46.31,2,0,1.72-.79-2.11-6.36-7.21-10.91-11.94-15.41-3-2.87-5.54-6.51-8.36-9.59s-5.62-6-8.39-9.11c-.52-.58-2.32,0-1.78.82,4.56,6.74,10.6,12.16,16.15,18.05,4.65,4.92,9.09,11.14,15.24,14.26.44.22,2,0,1.72-.78-2.74-7-9-11.84-14-17.11-6.55-6.78-12.95-13.71-19.55-20.45-.56-.56-2.4.15-1.78.82,6.09,6.63,13.19,12.22,19.29,18.84,5.1,5.55,10.25,11.83,16.39,16.26.43.3,2-.06,1.72-.79-6-13.48-21.17-19.31-29.5-31l-1.64.94c9.85,7.13,17.71,16.41,25.76,25.43l1.78-.82c-6-6.51-13-12-18-19.4l-1.64.94c5.33,3.57,9.6,8.49,15.23,11.63.43.24,2.06,0,1.72-.79-1.4-3.18-3.94-5.35-6-8.09l-1.78.82a20.76,20.76,0,0,0,5.59,4.86c.47.25,1.71.1,1.73-.62a7.76,7.76,0,0,0-.47-3.37l-1.72.79a8.21,8.21,0,0,1,4.4,5c1.4,4.1-4.92.26-5.14.15-.55-.29-1.83,0-1.72.79,1,6.95,8.37,11.74,13.17,16.11.54.49,2.31,0,1.78-.82a81.63,81.63,0,0,0-15.52-18c-.44-.39-2.26-.12-1.86.67,4,7.91,10.66,17.43,18.73,21.61.45.23,2,0,1.72-.79a54,54,0,0,0-12.36-19.24c-.53-.54-2.3,0-1.78.82,3.78,6.16,8.55,11.57,13,17.22.43.54,2.1.13,1.86-.67a96.63,96.63,0,0,0-4.48-11l-1.85.67c3,4.11,6,8.42,6.79,13.56l1.53-.87c-9.53-2.42-13.67-13.44-23.26-15.88-.52-.13-1.41.07-1.54.7-1.17,5.92,4.16,11.68,8.15,15.37.54.5,2.33,0,1.78-.82-3.15-4.84-8.67-9.63-14.33-11.13-.5-.13-1.69.13-1.53.87.94,4.42,4.17,7.46,7.12,10.7l1.77-.82c-4.81-5.28-10.46-10.89-17.38-13.21-.54-.18-1.63.16-1.54.87.88,6.43,6.86,14.35,12.83,16.91.47.21,1.72-.18,1.53-.87-1.93-7.13-11.34-14.08-17.7-17.1-.45-.21-2,0-1.72.79,2.34,6.41,7.5,11.89,12.67,16.19.43.36,2-.08,1.72-.79C383,215,377,208.07,370.61,206.43c-.47-.12-1.74.13-1.54.87,1.57,5.55,5.72,11.32,11.1,13.64a1.35,1.35,0,0,0,1.49-.53,10.9,10.9,0,0,0,1.51-4.93c.56-4.74,2.63-3.55,5.46-.77,2.25,2.22,4.4,4.47,7.73,4.61.42,0,1.29-.18,1.32-.74l.18-3.17-1.55.7c3,1.12,4.87,3.64,8,4.25.52.1,1.42,0,1.54-.7.42-2.41-.19-4.26-.93-6.57l-1.72.79c1.68,1.43,2.93,3,4.86,4.08a1.33,1.33,0,0,0,1.67-.45c.6-1.43.9-2.93,1.51-4.36.41-1-1.53-.89-1.83-.17-.61,1.43-.91,2.94-1.51,4.37l1.67-.45c-1.87-1-3.25-2.7-4.86-4.08-.45-.38-1.95.07-1.72.79.71,2.22,1.33,3.8.91,6.23l1.54-.7c-3.1-.6-5.11-3.14-8-4.25-.45-.17-1.51.1-1.54.7l-.18,3.17,1.33-.75c-5.62-.23-7.91-7.46-13.52-8.36-.38-.06-1.11.16-1.26.57-1.16,3.26-.58,7.06-2.46,10l1.49-.53c-4.95-2.13-8.88-7.89-10.3-12.94l-1.54.87c6,1.53,11.76,8.25,14.07,13.78l1.72-.79c-5-4.12-10-9.51-12.25-15.65l-1.72.79c6.21,2.95,15.39,9.57,17.28,16.56l1.53-.87c-5.52-2.37-11.22-10.33-12-16.2l-1.54.87c6.68,2.23,12.11,7.71,16.75,12.8.54.6,2.38-.15,1.77-.82-2.85-3.13-6-6.1-7-10.4l-1.53.87c5.44,1.45,10.67,6.08,13.68,10.73l1.78-.82c-3.84-3.55-9.1-9.07-8-14.73l-1.54.7c9.53,2.42,13.67,13.45,23.26,15.89.53.13,1.64-.13,1.53-.87-.8-5.25-3.87-9.67-6.94-13.87-.41-.55-2.18-.06-1.86.67a96.63,96.63,0,0,1,4.48,11l1.85-.67c-4.47-5.65-9.25-11.06-13-17.22l-1.78.82a53.16,53.16,0,0,1,12.21,18.94l1.72-.79c-7.78-4-14.41-13.4-18.3-21.07l-1.86.67a81.86,81.86,0,0,1,15.52,18l1.78-.82c-4.69-4.27-12.09-9-13-15.81l-1.71.79c1.41.74,5.89,4.38,7.64,2,2.59-3.58-.52-7.58-3.89-9.28-.44-.21-2,0-1.72.79a4.52,4.52,0,0,1,.45,3l1.73-.62a19.6,19.6,0,0,1-5.32-4.62c-.52-.58-2.35,0-1.78.82,2,2.64,4.49,4.71,5.84,7.79l1.72-.79c-5.63-3.14-9.9-8.06-15.24-11.63-.52-.35-2.17.16-1.64.94,5,7.36,12,12.89,18,19.4.55.6,2.39-.14,1.78-.82-8.13-9.11-16.09-18.47-26-25.67-.52-.37-2.18.18-1.64.94,8.25,11.56,23.45,17.36,29.35,30.68l1.72-.79c-6.21-4.48-10.5-10.91-16.13-16-6.56-5.95-13.28-12.3-19.28-18.84l-1.78.82c6.28,6.41,12.31,13.06,18.62,19.44,5.26,5.33,12,10.68,14.81,17.81l1.72-.78c-5.95-3-10.53-9.17-15-14-5.47-6-11.58-11.28-16.15-18l-1.78.82c5.2,5.76,10.61,11.34,15.6,17.28,4.57,5.45,10.6,9.48,12.94,16.52l1.72-.78c-7.3-5.07-12.39-12.38-18.52-18.69-5.95-6.12-12.9-12-16.6-19.82l-1.86.67c6.26,6.47,11.74,13.59,17.37,20.6,5.13,6.39,12.39,11.47,14.62,19.75l1.72-.79c-7.72-3.69-12.77-11.48-17.92-18-5.33-6.76-12.95-11.54-15.3-20.38l-1.72.79c6.69,3.86,10.95,10.84,15.15,17.11s11,12.63,11.1,20.74l1.73-.62c-4.84-2.72-8.32-7.24-11.94-11.34-4.69-5.31-9.74-10.26-13.06-16.59l-1.64.94c8.34,5.4,18.42,15.61,20.59,25.64l1.53-.87c-4.72-1.95-8.51-6.09-11.92-9.76s-6.62-7.56-8.69-12l-1.72.78c5.7,3.48,11.79,9.53,14.73,15.56.67,1.38,1.64,4.86-1.81,4-2.08-.5-4-2-5.72-3.28a59.13,59.13,0,0,1-8.61-7.9l-1.64.94c3.55,1.76,6.85,3.95,9,7.37l1.64-.94c-3.9-2.36-7.78-5.37-9.4-9.78l-1.72.78a33.29,33.29,0,0,1,6.55,5.33l1.64-.93c-2.88-2.43-6-5-6.26-9l-1.72.79c3,1.61,7.27,5,6.89,8.84l1.73-.62a19.78,19.78,0,0,1-7.36-12.21l-1.72.79c4.77,2.77,7.53,7.73,10,12.5l1.78-.82c-5-8.33-10.67-16.45-13.1-26l-1.85.67c5.77,7.3,10.8,15.27,13.83,24.11l1.85-.67c-7.52-12.59-17-24.61-20.62-39.08l-1.72.78c4.43,3.27,6.63,8.45,9.29,13.1,3.7,6.47,8.11,12.49,11.66,19.06l1.78-.82c-6.21-11.35-17.7-21.74-18.94-35.19l-1.72.79c5.42,2.87,8.43,10,11.32,15.14,4.15,7.36,10,13.89,14.49,21.09l1.77-.82c-9.42-12.24-16.66-26-25.24-38.77-5.78-8.62-12.72-20.83-23.76-23.16-.5-.11-2.26.53-1.32,1.14,9.91,6.4,19.1,13.81,28.72,20.63.55.39,2.07-.14,1.64-.94-3.08-5.69-8.11-11.31-14-14.21-.49-.25-2.28.16-1.64.94,7.13,8.65,14,17.55,22.1,25.34.44.42,2.23.12,1.86-.67-4.59-9.6-12.11-23.91-24-25.17-.5-.06-1.41.26-1.31.91.94,6,6.79,10.79,10.62,15.14,5.91,6.71,11.55,13.63,16,21.39l1.77-.82c-12.25-14.53-22-31.85-38.46-42.23-.47-.29-2,0-1.72.79,2.36,7.71,10.83,13.09,16.59,18.19,8,7.05,12.87,16.87,21.35,23.53.43.33,2.05-.08,1.72-.79-4.93-10.74-13.5-18.9-21.09-27.74-5.23-6.1-12.19-15.21-21-15.57-.47,0-1.94.59-1.1,1.18,5.15,3.54,10.55,6.67,16,9.77.5.28,2.27-.21,1.64-.94-7.86-9.21-19.72-15.44-30.9-19.69a139.74,139.74,0,0,0-40.5-8.58c-.61,0-2.06.93-.91,1.26,5.77,1.69,11.72,2.69,17.55,4.14.72.18,2.31-.82,1.14-1.22a19.52,19.52,0,0,0-5.25-1c-.65,0-2,.81-.92,1.26,7.33,3,15.2,4.14,22.55,7.16,5.9,2.42,12.09,4.92,18.59,4,.44-.07,1.6-.67.85-1.18-9.08-6.16-20.32-11.8-31.51-12-.5,0-1.91.56-1.1,1.18,5.87,4.47,12.85,7,19.2,10.68,5.51,3.17,11.31,6.09,17.73,6.7.35,0,1.86-.5,1.23-1.07a66,66,0,0,0-34-16.05c-.5-.06-1.66.4-1.24,1.07,3.71,5.87,10.92,9.07,16.62,12.62,8,5,15.09,10.46,24.2,13.3.41.13,2.13-.4,1.46-1-9.18-8.5-21.17-16.8-33.83-18.58-.37-.06-1.83.48-1.23,1.06,6.1,5.93,13.35,10.31,20.26,15.19,7.18,5.07,13.34,11.28,21.61,14.6.45.18,2.09-.4,1.46-1-8.17-8.2-18-14.25-27.58-20.68-.65-.44-2.38.47-1.51,1.06Z"/><path class="cls-2" d="M331.13,136.06c6.07,3.69,13.73,3.71,19.21,8.67l1.71-.68c-6.15-.54-12.39-3.54-17.26-7.26l-1.83.64c4.85,1.67,8.7,4.89,12.92,7.69.32.22,2-.36,1.87-.58-3.13-4-7-7.42-9.5-11.95l-1.88.58a3.35,3.35,0,0,1,1.83,1.37c.33.34,2.08-.38,1.83-.64a3.37,3.37,0,0,0-1.83-1.37c-.27-.13-2.07.22-1.88.58,2.46,4.54,6.36,7.9,9.5,11.95l1.88-.58c-4.22-2.8-8.07-6-12.91-7.69-.35-.12-2.15.39-1.83.64,4.92,3.76,11.27,6.79,17.5,7.34.22,0,2.08-.34,1.71-.68-5.5-5-13.14-5-19.21-8.67-.46-.28-2,.51-1.83.64Z"/><path class="cls-2" d="M357.29,248.45c-1.35,3,.74,6.19,1.41,9.08.13.59,1.76,0,1.92-.4,1.48-3.65.51-7.71.63-11.51l-1.93.52c-.09,4.2,1.39,8.2,2.51,12.2.15.55,2.08,0,1.93-.52-1.12-4-2.6-8-2.51-12.2,0-.44-1.91-.13-1.93.52-.12,3.74.84,7.7-.62,11.28l1.93-.4c-.64-2.8-2.73-6-1.42-8.86.2-.45-1.67-.25-1.92.29Z"/><path class="cls-2" d="M192.7,196.7c-2.18,1.27-1,5.59-.74,7.48A129,129,0,0,0,196.64,222c3.06,9.71,5.93,21,11.23,29.79.25.4,2.07-.23,1.94-.52a133.81,133.81,0,0,1-7.89-24.55c-1.83-7.65-1.63-16.12-5.37-23.17-.21-.39-1.9.09-1.93.52-1,11.78,3.57,22.6,5.75,34,.07.37,1.89-.09,1.93-.52.8-7.14-1-14.28-2.08-21.3-1.05-6.73-1.11-14.28-4.52-20.34-.23-.4-1.75.1-1.92.44-4.35,8.78.65,20.91,4.76,28.92.2.4,1.87-.1,1.93-.52,1.14-9.15.78-19.8-3.54-28.13-.2-.39-1.92.09-1.93.51A41.4,41.4,0,0,0,199,217c.2.4,1.88-.1,1.93-.52.73-6.83-.95-13.53-.79-20.36,0-.25-1.91,0-1.93.51A50.94,50.94,0,0,0,201,215.85c.14.4,1.87-.11,1.93-.52a87.22,87.22,0,0,0-.09-21.6c0-.11-.27-.1-.33-.11l-.63,0c-.35,0-1.55.16-1.6.63-.83,7.39,1,14.55,2.62,21.73.08.37,1.9-.08,1.93-.52.5-7.56,2.14-15.42,0-22.86-.11-.39-1.79.12-1.91.44-1.3,3.47-1.22,7.15-1.88,10.77l1.88-.58c-3.12-2.7-3.51-7.55-5-11.18-1-2.32-3.48-4.48-5.46-5.9-.32-.23-1.73.1-1.86.5-1.81,5.22-2.33,13.64,1.59,18,.28.31,1.71-.17,1.87-.5,1.29-2.7,1.89-5.56,3.61-8.05l-1.91.44a24,24,0,0,0,2.92,4.6c.3.37,1.72-.06,1.92-.44,1.2-2.28,1-4.47,1-7l-1.93.52c3.79,4.82,3.36,11.23,6.73,16.25.28.42,1.68-.12,1.91-.44,3-4.19,1.94-10.36,2.12-15.21,0-.23-1.91,0-1.94.52-.33,6.13-.64,12.26-.37,18.4,0,.4,1.67-.21,1.84-.35,4.88-4.32,5.31-15.41,5.7-21.45,0-.22-1.89,0-1.93.52-.37,5.7-1.19,11.35-1.57,17.05,0,.22,1.9,0,1.93-.51.38-5.7,1.2-11.36,1.57-17.06l-1.93.52A83.72,83.72,0,0,1,212,204c-.64,3.06-1.39,7.36-3.86,9.54l1.83-.35c-.27-6.14,0-12.26.38-18.4l-1.94.52c-.17,4.81.91,10.93-2.08,15l1.92-.44c-3.36-5-2.94-11.43-6.73-16.25-.27-.34-1.93.06-1.93.52-.05,2.38.14,4.68-1,6.85l1.91-.44a24.51,24.51,0,0,1-2.92-4.6c-.21-.44-1.71.14-1.92.44-1.72,2.49-2.32,5.35-3.61,8l1.86-.5c-3.81-4.22-3.25-12.73-1.52-17.72l-1.86.5a17,17,0,0,1,6.31,8.27c1.09,3.11,1.57,6.56,4.18,8.81.32.28,1.8-.15,1.88-.57.64-3.55.56-7.21,1.84-10.62l-1.92.44c2.15,7.44.51,15.3,0,22.86l1.93-.52c-1.57-7.17-3.45-14.33-2.62-21.73l-1.6.63c2.08.11.71,19,.39,21.52l1.93-.52a50.91,50.91,0,0,1-2.76-19.2l-1.93.51c-.16,6.84,1.52,13.54.79,20.37l1.93-.52a41.36,41.36,0,0,1-4-19.9l-1.93.51c4.32,8.34,4.67,19,3.54,28.14l1.93-.52c-4.07-7.93-9.09-20.08-4.79-28.76l-1.91.44c3.13,5.55,3.54,12.61,4.3,18.83.93,7.59,3.16,15.11,2.3,22.81l1.93-.52c-2.18-11.37-6.72-22.19-5.75-34l-1.93.52c3.72,7,3.58,15.53,5.37,23.16a130.43,130.43,0,0,0,7.88,24.56l1.94-.52c-4.8-8-7.38-18-10.27-26.79-1.84-5.59-3.54-11.25-4.87-17-.41-1.75-2.76-9.49-.5-10.79.8-.46-1.14-.19-1.47,0Z"/></svg>