<svg id="layer1" xmlns="http://www.w3.org/2000/svg" viewBox="0 0 194.42 221.24"><defs><style>.cls-1{fill:#6d3e0f;}.cls-2{fill:#492d0c;}.cls-3{fill:#fff;}</style></defs><path class="cls-1" d="M177.21,78.93c0-.06,0-.13,0-.19a22.65,22.65,0,0,0-.43-4.64,2.75,2.75,0,0,0-.38-.82c0-.21,0-.42,0-.63a2.13,2.13,0,0,0-.54-1.19,2,2,0,0,0,.05-.26,14.54,14.54,0,0,0-.53-4,1.12,1.12,0,0,0-.12-.4h-.16v.08c0-3.38,0-6.47-2.27-8.45,0-.08,0-.16,0-.24a2.91,2.91,0,0,0-.9-1,1.88,1.88,0,0,0-.26-1.45c-1.14-1.64-2.14-3.29-3.19-4.88a3.63,3.63,0,0,0-.54-.87l-.16-.18a23.38,23.38,0,0,0-5.16-5.62,2.65,2.65,0,0,0-2.23-.58,6.51,6.51,0,0,0-2.32-1.6,21.53,21.53,0,0,0-16.39,2c-2.27,1.24-5.13,1.59-7.13,3-1.7,1.23-2,2.21-2.84,3.69-.7-.16-1.45-.11-1.66.68a2.46,2.46,0,0,1-.09.29,1.36,1.36,0,0,0-1.84.68c-.37.42-.74.83-1.1,1.25a1.55,1.55,0,0,0-1.62.31c-1.53,1.75-2.81,4.23-4.83,5.48l-.16.06-.32.19a4.8,4.8,0,0,1-.65.3.84.84,0,0,0-.59.57c-1.47,1.21-2.61,2.73-4.08,4s-3.07.79-4.66,1.14c-.72-.5-1.66-.93-2.27-.44l-.38.31c-2.27-3.29-3.44-7.87-7.26-9.71-1.27-.61-2.54-1.21-3.8-1.85-1.65-.82-1.42-1.58-2.56-2.85a13,13,0,0,0-4.27-2.88c-4.36-2.11-7-4.16-12.11-4.85-5.3-.73-10.55,3.58-15.59,2.38-.34-.08-1,0-1.24.38-.54,1.06-1.11,3.45-2.6,3.48-.68,0-.92.62-.92,1.2v2.74c-.81-.19-1.51,0-1.52,1.12a18.91,18.91,0,0,1-.65,5.44c-1-.56-2.08-.62-2.23.41A74.82,74.82,0,0,0,52,74.42c-.78.22-1.11,1-.48,2.06a13,13,0,0,1,.74,1.43,78.16,78.16,0,0,0,2.61,13.8c-.47.45-.47,1.27.41,2.18l.39.46c.7,2.22,1.5,4.43,2.38,6.6a3.59,3.59,0,0,0,1.07,2.55,125.88,125.88,0,0,0,9.29,17.29c1.93,3,3.75,6.15,5.55,9.28-.44,1,.77,2.27,1.58,2.77l2.17,3.79a2.33,2.33,0,0,0,.66,1.16c2,3.45,4,6.89,6.18,10.24v0a3,3,0,0,0,1.91,2.86c6,8.86,13,17.21,19.57,25.64a4.67,4.67,0,0,0,2.62,1.16,3.84,3.84,0,0,0,2.86.9c.4-.13.8-.28,1.19-.45a1.83,1.83,0,0,0,1.23,0c6.61-3.23,12.84-8.61,15.53-15.51a190.26,190.26,0,0,0,13.15-14.71C148,141,152.2,133.13,157.26,126c5.62-7.92,11.37-15.73,16.47-24,.64-1-.41-2.48-1.61-3.19.46-.78.95-1.54,1.39-2.31a1.15,1.15,0,0,0,.65-1.11,30.83,30.83,0,0,1,1.31-6.81,1.53,1.53,0,0,0-.09-1,26.85,26.85,0,0,0,.85-7.36c.56,0,.83-.33.83-1.22h.15ZM63.45,51.58c.47-1.12,0-1.76,1.29-1.72a14.36,14.36,0,0,0,3.68-.54c2.22-.51,4.39-1.31,6.59-1.89,3.47-.92,8.64.54,11.51,2.58a49.68,49.68,0,0,0,4.36,2.51c.21.12.81,1.84,1.15,2.22a13.92,13.92,0,0,0,3.53,2.37c3.35,1.89,5.22,3.31,7.26,6.7A24.65,24.65,0,0,0,107,69.7c.62.57,2.24,1.26,2.9.38l.33-.35a1.75,1.75,0,0,0,1.77.12c1.53-1,3.7,0,5.23-1.09,2.14-1.56,3.59-3.88,5.79-5.31a1.72,1.72,0,0,0,.37-.22c2.3-1.11,3.71-3.51,5.26-5.48a2.54,2.54,0,0,0,2.19-.77c1,.59,2.13.88,2.44-.33.16-.58.36-1.11.56-1.66a1.15,1.15,0,0,0,1.2-.38c.42-.62,1.39-2.84,2-3.25,1.66-1.21,3.38-1.58,5.22-2.37a43.28,43.28,0,0,0,4-2,2.3,2.3,0,0,0,.39.14,25,25,0,0,0,10.22.45,4.56,4.56,0,0,0,1.61,1c1.22,2.07,3.4,3.5,5.14,1.48.18.14.37.27.54.41a1.38,1.38,0,0,0-.28.44c-1.07,2.74.18,4.84,2.23,6.12v.6a3.34,3.34,0,0,0,1.5,2.12,28.92,28.92,0,0,1,1.68,4.17,2.45,2.45,0,0,0,.72,1.16c.07.43.13.86.19,1.3-.05.17-.11.35-.19.58a3.51,3.51,0,0,0,.55,3.57c0,.65,0,1.32,0,2-.07,1.77-.16,3.52-.19,5.26h-.23c-.46,0-.78.57-.92,1-1.08,2.85-.74,7,1.47,9.09a33.05,33.05,0,0,0-.86,5,.36.36,0,0,0-.07.1c-.09.19-.19.37-.28.56a1,1,0,0,0-1,.52c-.07.13-.13.26-.2.38h0l0,.11a25.38,25.38,0,0,0-1.73,4.43,1.19,1.19,0,0,0-1.11.78c-.61,1.39-1,4.05-2.94,4.08-.68,0-.95.62-1,1.19,0,0,.27,2.67-.49,2.67a1,1,0,0,0-.93.76,6.05,6.05,0,0,1-.8,1.92c-1-.5-1.91-.6-2.1.5a47.15,47.15,0,0,1-2.13,7.43,1,1,0,0,0-.76.78,9,9,0,0,0-.47,2.37c-3.37,5.64-7.62,10.81-11.5,16.05-5.13,6.95-11.27,12.49-17.46,18.43a64.18,64.18,0,0,0-8.43,10.64q-3.75,3.78-7.4,7.67a47.42,47.42,0,0,0-4-7.64c-1.06-1.73-2.48-4.17-4.34-5.58A5.85,5.85,0,0,0,98,158c-1.57-1-.79-.07-1.69-2.22a6.73,6.73,0,0,0-2.48-3.28l-.55-.35a3.6,3.6,0,0,0-.83-1.72,9.39,9.39,0,0,0-3.17-2.33,4.73,4.73,0,0,0-.32-3.46A8.71,8.71,0,0,0,87.4,143a3.56,3.56,0,0,0-1.11-.62l-.23-.15c1.09-2.37-1.19-4.33-3.55-5.64.21-2.38-1.48-4-3.53-5.34,1.08-2.68-.43-4.93-2.77-6.55.18-1.89-1-3.38-2.61-4.55.91-1.45-.69-3.36-2.58-5,.77-.54.33-1.79-.29-2.46a38.62,38.62,0,0,0-4.85-4.11,6.43,6.43,0,0,0-2-4.78c1.26-1.39-.8-5-2.85-7.9a2.35,2.35,0,0,0,1.52-1c1.51-2.2-.19-4.28-1.93-5.72a5.27,5.27,0,0,0-1.21-5,27.1,27.1,0,0,1-2.86-5.51v-.06a1,1,0,0,0,.92-.73c.53-2-.58-5.17.29-6.79a4.91,4.91,0,0,0,.06-3.37h.65a.94.94,0,0,0,1-1.05c0-2.7.24-5.26.39-7.9.7.13,1.29-.1,1.29-1.15V53.47A2.9,2.9,0,0,0,63.45,51.58Z"/><path class="cls-1" d="M161.13,74.35a9.25,9.25,0,0,0-1.06-2.61,8,8,0,0,1-1.23-5.64,3.45,3.45,0,0,0-2.57-3.38,1.81,1.81,0,0,0-.67-.25c1.1-1.83-.29-4.39-2.23-5.07a12.88,12.88,0,0,0-10.82.93c-3.44,1.79-5.51,5.8-8.54,8.19-1.12.89-1.87,2.62-2.53,3.84-1,1.78-3,1.39-4.62,2a5.5,5.5,0,0,0-3.44,4.86c-4.35.12-8.69,0-13,.33-4.63.32-8,2.13-12.25-.49a3.75,3.75,0,0,0-.64-.31,22.15,22.15,0,0,0-5.1-7.56,3.6,3.6,0,0,0-2.34-4.45c-4.3-1.34-7.11-5.34-10.73-7.9l-.3-.79a3.49,3.49,0,0,0-1.34-2.29c-1-1.16-2.51-1.78-5.12-1.83a3.41,3.41,0,0,0-3.31,2.57,16.61,16.61,0,0,0-.09,3.91l0,.6c-2.91,2-1.77,6-.88,9.39a4,4,0,0,0,.51,4.16c0,.23.1.45.16.68a3.46,3.46,0,0,0,1.52,6.34c.47,1.87,1.26,4.4.67,5.5-1.24,2.32.69,6,3.51,5.28,1.18,2.5,3.53,5.69,1.87,7.08-1.84,1.53-1,4.33.71,5.49a7.82,7.82,0,0,0,1,.57,27.72,27.72,0,0,0,1.39,9.3,1.43,1.43,0,0,0,.08.22,3.52,3.52,0,0,0,.7,3.86,9.28,9.28,0,0,0,3.37,2.21c2.83,1,2,3.44,1.89,5.95a3.55,3.55,0,0,0,3.5,3.5c2.79.26,4.07,2.28,5.19,4.55a3.74,3.74,0,0,0,.6.86c.9,1.65,2.82,2.71,4.67,1.36a.41.41,0,0,0,.11-.07c.9,2.2,2.17,4.24,3,6.68,1.4,4.25.84,7.31,4.28,10.73a3.35,3.35,0,0,0,.47.39c0,.33,0,.67,0,1-.19,3.44,4.95,4.83,6.52,1.77,1.4-2.72,3.61-4.6,5.4-7,.78-1.05,4-7.48,5.36-7.21,5.64,1.13,5.46-4.91,8-7.88s8.46-2.06,8.51-7.15c0-1.29-1.13-3.54,0-4,1.75-.78,2.6-3.57,3.27-5.16,2-4.79,5.44-8.14,5.35-13.61,0-2.8,1.82-2,3-4.07a7.55,7.55,0,0,0,.76-5c-.48-3.05.08-3.81,2.34-6.05a17.49,17.49,0,0,0,4-6.16C160.85,79.93,161.78,77.1,161.13,74.35Z"/><path class="cls-2" d="M111.58,179.07C101.85,169,93.44,157.5,85.55,146,75.12,130.7,65.63,114.5,59.12,97.16c-4.82-12.85-9.3-29.79-1.33-42.32a22.61,22.61,0,0,1,25.34-9.36c8.71,2.64,15.48,9.68,21.92,15.76,2.88,2.72,5.42,5.45,9.53,3.8,3-1.21,5.56-4,7.87-6.17,4.61-4.31,9.14-8.61,14.58-11.87,8.5-5.09,17.68-8.21,26.39-1.8,6.1,4.49,9.37,12.09,11.21,19.19,5.1,19.64-3.34,37.73-13.64,54.12-13.43,21.37-31.42,39.44-47.92,58.39-.53.62,1.4.47,1.8,0,17.94-20.6,37.39-40.23,51.29-63.95C176,96.13,181.79,78.09,175.08,59,170,44.58,157.5,36.66,142.77,42.65c-10.09,4.1-17.43,12.25-25.47,19.21-1.54,1.32-3.85,3.44-6,2.34a17.63,17.63,0,0,1-3.3-2.61c-3.06-2.76-6-5.69-9.09-8.38-6.32-5.43-13.75-9.88-22.3-9.9-6.57,0-13.2,3.44-17.79,8-9.41,9.36-8,24.23-5,36C58.19,104.2,66.9,120,76,134.81a311,311,0,0,0,28.31,39c1.76,2.06,3.57,4.07,5.45,6,.45.47,2.28-.24,1.8-.74Z"/><path class="cls-2" d="M71,52.76h6.24c1.12,0,1,3.36,1.07,4.09.26,1.75,1.44,2.52,2.91,3.23,4.43,2.15,8.75,9.25,13.46,4.32l-1.79-.23c-.79,5.81,2.67,11.6,6.87,15.32,3.69,3.26,7.24.08,9.78-2.86l-1.7.14c3.48,4.27,8.07,5.18,10.73-.32l-1.81.31c3.58,4.2,8.33,3.24,8.8-2.54l-1.31.78c4.27.65,7.08-1.59,8.78-5.4,1-2.34,3.8-4.07,5.62-5.88a47.15,47.15,0,0,0,5.56-6.49l-1.69.14c3,3.59,16.09-5,10.86,5.58a.55.55,0,0,0,.36.77c4.76,1.82,2.85,5,4.74,8.47a4.85,4.85,0,0,0,2.14,2.29c.18.08-1.49,5.64-1.58,6-1.51,6.77-8.67,11.44-5.71,18.56.27-.3.53-.61.79-.92-1.8.54-3.67,1.32-4.67,3-.76,1.31-1.13,7.51-1.82,7.8a10.27,10.27,0,0,0-4.66,4.86c-1.39,2.57-.41,7.74-3.63,7.74-.38,0-1.25.32-1.25.78v8.16a3.58,3.58,0,0,0,1.5-.77c-6.69-.74-10.82,3.43-10.13,10.15.51-.31,1.07-.61,1.57-.91-5.91-2.81-11,1.93-10.41,8.05l1.06-1a8.1,8.1,0,0,0-7.53,6.52c-.05.2-1,3,.12,2.76-1.1.28-2.21.53-3.32.77-1.26.26-2.9-5.64-3.31-6.47-.75-1.51-1.73-3.54-3.44-4.21-.32-.13-1-5.93-1.28-6.59-1.61-3.79-5.45-3.59-8.49-1.83l1.41.5c.59-7.05-4-10.68-10.8-9.83l.83.82a12.24,12.24,0,0,0,0-8.54c-.81-2.2-4.41-1.21-5-3.06-1.24-4.19,1.69-12.16-3.94-14.18-.18-.06,1-6.7.75-7.86-.58-2.56-3.68-4.31-5.8-5.3-.09,0-.11-6.58-.42-7.49a8.7,8.7,0,0,0-5.86-5.37l-.12,1.22c5.2-2.7,5.66-9.86-1.09-10.46,0,.42.06.85.1,1.27,2.65-1,4.25-2.61,4.21-5.56,0-1.16-1.74-3-.67-4,1.72-1.66.75-4.66,3.39-5.72,1.23-.49.14-1.54-.86-1.14C67,53.74,68,57.1,65.29,59.72a.56.56,0,0,0-.08.71c2,2.52,2.72,5.6-1.52,7.17-.71.26-.72,1.2.09,1.28,5.07.45,4.91,5.83.9,7.91-.48.24-.87,1-.13,1.22A7.92,7.92,0,0,1,69.14,89.5c-.21.33.08.63.36.76,6.13,2.85,7.79,6.33,4.59,12.51a.54.54,0,0,0,.37.76c4.21,1.51,3.62,3.41,3.91,7,.18,2.16-.24,5,.63,6.89.55,1.22,1.09,1.49,2.48,1.84,4,1,3.76,5.65,2.52,9-.2.55.33.88.84.82,6-.75,9.51,2.53,9,8.55-.06.7,1,.75,1.41.5,6.26-3.61,6.95,4.47,6.51,7.67a.59.59,0,0,0,.43.58c4.13,1.62,4.63,7.54,6.6,11a.85.85,0,0,0,.8.28,35.77,35.77,0,0,0,5.22-1.06c.32-.08.78-.36.8-.74.16-3.57,1.14-7.95,5.87-8.4.53-.05,1.11-.38,1.05-1q-1-6.75,7.4-6.24c.6.29,1.59-.21,1.52-.91-.52-5,2-8.84,7.62-8.22.43,0,1.31-.21,1.31-.78,0-2.45-1.27-7.38,1.91-7.38.38,0,1-.33,1.06-.79.08-5.22,1-10.36,6.38-12.62a.8.8,0,0,0,.54-.83c-.72-3.73-.41-7.92,4.17-9.29.32-.1,1-.47.79-.92-1.34-3.2-1.2-5.16.93-7.86a9.9,9.9,0,0,0,2.05-3.19,12.75,12.75,0,0,1,1.93-3.89c1.61-2.55,1.45-6.42,3-9.19.19-.34-.07-.63-.37-.77-4.53-2-1.72-7.71-5.54-10.07-2.91-1.79.69-3.76-1-6.14-1.09-1.54-3-1.61-4.71-1.58-1.14,0-6.52,1.54-7.25.67a1.2,1.2,0,0,0-1.7.13A54,54,0,0,1,136,64.12a36.92,36.92,0,0,1-4.19,3.61c-3.08,2.26,2.45,7.28-7,5.86-.47-.07-1.26.22-1.31.78-.27,3.32-3,4-5.07,1.54a1.19,1.19,0,0,0-1.81.32q-4.95,3.33-7.11-.32a1.19,1.19,0,0,0-1.69.14c-3.9,4.51-7.28,2.9-9.9-1.23C95.93,71.55,94.28,68,94.82,64c.13-1-1.42-.61-1.79-.22-2.32,2.43-7.34-3.46-9.33-4.42C80,57.59,80,55.7,80,51.58a.88.88,0,0,0-.9-.82H71.14c-1.11,0-1.48,2-.17,2Z"/><path class="cls-3" d="M94.39,94.05c-.68-.25-1.27-.77-2-1a1.18,1.18,0,0,0-1.53.73c-.83,4.63.89,15.19,7.1,15.15,7.13,0,2.4-12.41-.43-14.76a1.17,1.17,0,0,0-1.72.63c-.83,4.75,1.16,13.11,6.78,14s4.16-10.23,4.1-13.11l-1.95.33c.84,2.92,2.63,9.57,6.86,9.27s4.68-6.64,5-9.6l-2,.14c0,3.58-.43,8.71,3.21,10.71a1.25,1.25,0,0,0,1.67-.45,19.53,19.53,0,0,0,3-9.37l-2,.13c.57,9.66,10.28,6.47,11.64-1.16-.65,0-1.18.1-2.18.14v6.13c0,1,2,.75,2-.14V95.66c0-1-1.61-.72-1.76.14-.37,2.08-.74,3.53-2.34,5-3.55,3.29-5.32-1.8-5.45-4.12-.06-1-1.89-.77-1.94.13a19.11,19.11,0,0,1-2.9,9l1.67-.44c-3.25-1.78-2.72-6.56-2.73-9.72,0-1-1.87-.74-2,.14-.11,1.07-.86,9.44-3.93,7.59-2.41-1.46-3.31-5.43-4-7.92-.23-.81-2-.48-1.94.33.08,3.51.6,7.21-.58,10.59-1.41,4-5.7-4.87-5.87-5.41a13.51,13.51,0,0,1-.51-6.34l-1.72.64a11,11,0,0,1,3.09,5.28c.68,2,.25,9.57-3.36,5.58-2.62-2.91-3.62-8.79-3-12.52l-1.54.74c.68.24,1.28.76,2,1s2.27-.9,1.11-1.32Z"/><path class="cls-3" d="M114.47,112.44c-2.79.89-5.7,2.76-7.09,5.41-1.81,3.44,4.68,3.17,6.18,3.07.46,0,1.17-.38,1.06-1a10.22,10.22,0,0,0-7.69-8.19c-3.26-.65-4.75,2.73-4.34,5.42,1.88,12.54,14.51,6.54,15-3.17.05-1.06-1.73-.58-2,.16a42.78,42.78,0,0,0-2,11.23c0,.59.71.68,1.15.56a10.17,10.17,0,0,0,4.46-2.64c2.22-2,5.5-8.93,9.49-6.64.71.41,2.42-.57,1.49-1.1-7.32-4.19-9.94,7.55-15.78,9.09l1.15.57a42.51,42.51,0,0,1,2-11.23l-2,.16a11.5,11.5,0,0,1-2.71,7.07c-3.61,4.37-7,.44-8.22-3.33-.3-.94-.76-4.86,1.54-4.78a5.87,5.87,0,0,1,3,1.47,9.49,9.49,0,0,1,3.45,5.87c.36-.31.71-.63,1.06-.95-2.33.15-6-.11-3.49-2.93a10.55,10.55,0,0,1,4.56-2.88c1.17-.37.84-1.66-.34-1.29Z"/></svg>