<svg id="layer1" xmlns="http://www.w3.org/2000/svg" viewBox="0 0 468.79 342.45"><defs><style>.cls-1{fill:#f2c841;}.cls-2{fill:#492d0c;}</style></defs><path class="cls-1" d="M392.49,120.17a98.9,98.9,0,0,1-14.69,1,3.33,3.33,0,0,0-3.23-2.58,78.15,78.15,0,0,1-11.09-1.38,3,3,0,0,0-2.06-1.39,73.07,73.07,0,0,0-17.75-1.31,3.18,3.18,0,0,0-2.49-3,61.24,61.24,0,0,0-15.39-.92q-1.49-.09-3-.12a3.35,3.35,0,0,0-3.16-3.9,3.83,3.83,0,0,0,.77-2.7c7.41-.9,14.86-1.3,22.34-2.15A242.29,242.29,0,0,1,378,100h.47v0c4-.35,3.83-6.93-.48-7.16-7.6-.42-15.23.28-22.84.28H283.7a3.2,3.2,0,0,0-3.2,2.36,4.27,4.27,0,0,0-1.22,2.87h-1.83v0a3.46,3.46,0,0,0-2.7,4.77c-2,2-.06,6.48,3.59,5.93,1.92-.29,3.89-.66,5.88-1a3.09,3.09,0,0,0,2.41,4c.49.09,1,.15,1.48.23a40.85,40.85,0,0,0-4.86.76c-4.2.92-2.67,6.41.93,6.87.76.1,1.52.17,2.29.24a3.51,3.51,0,0,0,1.61,1.09c1.7.54,3.39,1,5.09,1.34-7.32.25-14.64.49-22,.65-6.54.14-13.07.16-19.59.25-3.64-.18-7.29-.46-10.93-.9a2.74,2.74,0,0,0-2.89,1.31c-2.42.12-4.84.25-7.26.44a383.84,383.84,0,0,1-41,1.13c-13.32-.38-26.51-1.71-39.84-.75-6.12.44-12.17,1-18.31.55-4.09-.33-8.13-1-12.19-1.59,2.84.08,5.68.1,8.53.11,15.75,0,31.47-.46,47.22-.49,4.51,0,4.5-7,0-7-12.88,0-25.76.32-38.64.44,3.49-.07,7-.51,10.49-.69,9.48-.51,18.87.14,28.26-1.86h.39v.41s-.09,0,0,0a3.2,3.2,0,0,0,4.58-1.23c.13-.24.18-.5.29-.75a3.57,3.57,0,0,0,5-1.18,23.84,23.84,0,0,0,2.38-9.87c0-.12,0-.25,0-.36h0c0-.08,0-.16,0-.24a3.16,3.16,0,0,0-.93-2.45,4.09,4.09,0,0,0,2.17-3,3.4,3.4,0,0,0,.59.14v.06h.42a3.68,3.68,0,0,0,.26,1.35c-.66,1.86,0,4.34,2.23,4.81l1,.21a3.75,3.75,0,0,0,3.07,3.24v.06h.25c.91.12,1.82.21,2.74.3-2.08,2.11-.19,6.71,3.5,5.86,1.67-.39,3.35-.7,5-1,7.42,2.86,15.63,2.37,23.47,1.92,9.7-.56,20.16,1.26,29.49-1.91a3.88,3.88,0,0,0,2.62-3.45,7.27,7.27,0,0,0,1.21-3,35.38,35.38,0,0,0,3.52-3.68c1.72-1.86,1.11-5.22-1.55-5.85A48.61,48.61,0,0,0,256,93.47a3.6,3.6,0,0,0-.55-1.13,172,172,0,0,0,18.58.38c3.75-.18,5.22-6.29,1.14-6.87a3.9,3.9,0,0,1-.71-.12v.33H274a70.58,70.58,0,0,0-12.4-1.38,49,49,0,0,0,2-5.67,3.54,3.54,0,0,0,.82-2h.05c0-.1,0-.19,0-.29s0-.07,0-.11c0-.43,0-.86,0-1.28a77.08,77.08,0,0,0,1.41-8.88A2.71,2.71,0,0,0,264,63.44c0-.18,0-.37.07-.56.06-.38,2.45-2,2.85-2.72a11.33,11.33,0,0,0,.94-4.35c1.44-1.75,1.27-4.92-1.58-5.73l-.57-.16a3.54,3.54,0,0,0-4.31,2.44c-.2.67-.39,4-.9,4.3a6.5,6.5,0,0,0-3.18,4.16c-.08.27-.15.54-.21.82a3.14,3.14,0,0,0-2.86,2.47h0l0,.1c-.07.24-.13.48-.19.73a3.92,3.92,0,0,0-4.27.69,3.77,3.77,0,0,0-5.67-1.27,3.44,3.44,0,0,0-3.66-1.56,3.27,3.27,0,0,0-1.31-1.19,13.83,13.83,0,0,0-.36-1.34A3.64,3.64,0,0,0,236.62,58c.27-1.21.5-2.42.66-3.65A3.73,3.73,0,0,0,233.9,50c.06-.54.12-1,.13-1.41a3.07,3.07,0,0,0-1.76-3,4.77,4.77,0,0,0,.51-.25A7.7,7.7,0,0,0,235,43.14c2.05-2.83-2-6.75-4.79-4.79-.39,0-.93.08-1.31.13-2.67-1-4.45,1.9-4.45,4.3V46.2a3.19,3.19,0,0,0,.23,1.22v1a12.79,12.79,0,0,1-.13,2,7.66,7.66,0,0,0-.9-.48,3.49,3.49,0,0,0-5.2,3v.48a3.58,3.58,0,0,0,1,2.58A3.3,3.3,0,0,0,217,58.4c-1.44,4.67-4.07,8.44-4.47,13.43-.37,4.5,6.63,4.4,7-.07.24-3,1.71-5.69,3-8.47a2.62,2.62,0,0,0,.84-.62,14.69,14.69,0,0,0,2.82-4.92,5.12,5.12,0,0,0,1.22-.37,7.38,7.38,0,0,0,1.56,2.81c-.17.67-.32,1.35-.48,2A7,7,0,0,0,226.12,64c-3.1,3.53-3.66,9.13-2.35,13.56A3.42,3.42,0,0,0,226.21,80a9.06,9.06,0,0,0,3.3-.14,25.36,25.36,0,0,0,.54,2.53,3.08,3.08,0,0,0,.27.65c-5.13-.29-10.26-.47-15.38-.36-1.76-.17-3.52-.32-5.27-.4a3.41,3.41,0,0,0-1.06-4.86c1.64,1,.93,1.56,1.06-.5a26.1,26.1,0,0,1,.49-3.17c.29-1.64.68-3.46,1-5.1a4.05,4.05,0,0,0-.93-3.5,8.91,8.91,0,0,0,.09-2.16,3.55,3.55,0,0,0-4.43-3.32,20.58,20.58,0,0,1-3.14.27c-1.94,0-2,.37-1.12-1.38,2-4-4-7.55-6.05-3.52-1.67,3.32-2.56,7.14.57,9.92a8.77,8.77,0,0,0,5.4,2,3.33,3.33,0,0,0,1.9,3.8c-1,4-1.84,8.88.41,11.6a32.55,32.55,0,0,0-6.25,1.06,3.36,3.36,0,0,0-2.22,2.12,47.72,47.72,0,0,0-9.2.84c-6.15,1.28-6.69,6.82-3.11,11.11a.43.43,0,0,0,.1.09,3.56,3.56,0,0,0-1.72,1,3.35,3.35,0,0,0-2.72-1.11,3.35,3.35,0,0,0-3.31-4.06v-.4h0c-15.78,0-31.64,2-47.41,1a228.4,228.4,0,0,0-23.11-.18c-2.69.11-5.36.41-8,.66a3.16,3.16,0,0,0-2.42-1.12h-.18c-5.53,0-11.12-.07-16.42-1.21a6.86,6.86,0,0,0-4.38-.6c-3.57.58-3,5.88.11,6.75l.65.16.1.16a4.46,4.46,0,0,1,1,2.37c-.14.89-.29,1.78-.44,2.67a3.83,3.83,0,0,0,.08,1.7c-.07.6-.15,1.2-.25,1.8a19,19,0,0,0-.44,2.75,2.86,2.86,0,0,0,.74,2.27,3.44,3.44,0,0,0-.26,1.28A3.55,3.55,0,0,0,77.52,117a3.7,3.7,0,0,0-.07.76v.48a3.51,3.51,0,0,0,.52,1.89,13.76,13.76,0,0,1-2-.43,3.26,3.26,0,0,0-4.1,2c-2.07-.1-4.13-.15-6.21-.16-3.92,0-4.82,6-.93,6.88,2.66.62,4.7.95,5.77,3.72a19.57,19.57,0,0,1,1,7.08,3.45,3.45,0,0,0-.1.81v2.91c0,.74-.06,1.48-.07,2.17h.07v.23a3.18,3.18,0,0,0,2.36,3.22,7.87,7.87,0,0,0,.69.86c-.68.07-1.35.13-2,.16-4.07.16-4.6,5.53-.93,6.87l1.16.43A99.67,99.67,0,0,0,73.25,171c-2.74,4.78-3,11.05-3.49,16.39-.79,9,0,18.05,1,27,.6,5.74,1.22,11.49,1.81,17.24-.23,9.41-.48,18.83-.2,28.24a3.39,3.39,0,0,0,2,3.06,27.66,27.66,0,0,0,1,5.12c1.14,3.69,7,3.13,6.88-.93-.2-5.7-.57-11.39-1-17.08C83,233.26,80,215.81,84.54,199.4a3.69,3.69,0,0,0-2.42-4.3c0-1.58,0-3.16-.09-4.73-.09-2.89-.32-5.75-.6-8.6l.33-9.41a3.09,3.09,0,0,0-1.63-2.86,91,91,0,0,1-.37-13.93c1.58-.33,3.16-.7,4.75-1.11,4-1,2.89-6.62-.93-6.87l-.34,0a4.49,4.49,0,0,0-.53-1.24,5.28,5.28,0,0,0-3.21-2.06c-.68-.21-.91-2.24-1-3.75V140h0a32.56,32.56,0,0,0-1.26-9.14h.09c3.17-.08,6.41-.17,9.61,0a11.75,11.75,0,0,0,1.94,7.56A4,4,0,0,0,92.23,140,7.53,7.53,0,0,0,94.08,142c3,2,6,1.23,8.4-.87a7.08,7.08,0,0,0,3.37,1.76,5.44,5.44,0,0,0,5.48-1.92c.19.08.37.17.58.24,3.49,1.12,5.82-1.12,7.39-4.08a16.42,16.42,0,0,0,6.07,4c2.72,1,6.62.16,9.18-1.79a74,74,0,0,0,9.55.21s0,0,.07.05c9,5.27,20.33,6.72,30.58,7.81,6.84.72,16.91,2.49,22-3.53a3.7,3.7,0,0,0,.92-3c2.27.34,4.53.19,6.79,1.19h0V142a3.37,3.37,0,0,0,3.74-1.66c4.3.63,9,1.37,12.93-.6,1.16.14,2.33.22,3.51.29a16.07,16.07,0,0,0,1.91,5.61,3.54,3.54,0,0,0,6.4-.84c.09-.3.17-.59.27-.89a2.88,2.88,0,0,0,1.72-.95c.22-.26.4-.52.6-.78a3.47,3.47,0,0,0,4.07.24,3.91,3.91,0,0,0,5-1,10.55,10.55,0,0,0,.87,1.08,3.48,3.48,0,0,0,4.71.17c.19.27.39.54.61.8a3.5,3.5,0,0,0,4.95-.07c.34-.4.65-.81,1-1.22a4,4,0,0,0,4.77,1.52,7.8,7.8,0,0,0,3.58-2.39,4.15,4.15,0,0,0,4.18,2.61c2.93-.1,5.09-2,6.79-4.42a5.36,5.36,0,0,0,5,1.35,6.59,6.59,0,0,0,3.87-2.42,5,5,0,0,0,1.42,1.23,4.23,4.23,0,0,0,4.06.4,3.59,3.59,0,0,0,3.51,2,6,6,0,0,0,2.22-.61,4.05,4.05,0,0,0,4.39,3c1.93-.12,3.52-1.43,4.84-3.28a4.68,4.68,0,0,0,2.12.83c2.51.38,4.53-.87,6.28-2.67a3.54,3.54,0,0,0,3.3,2.24,6.65,6.65,0,0,0,3.43-1,3.92,3.92,0,0,0,3.86,2,7.19,7.19,0,0,0,5.08-2.74,8.22,8.22,0,0,0,.61,1c1.19,1.64,4,2.61,5.5.7.82-1,1.59-2.08,2.33-3.16.6,2,1.81,3.34,4.19,3.21a6.29,6.29,0,0,0,4-2.09,9.92,9.92,0,0,0,.9,1.82,3.56,3.56,0,0,0,5.49.71,13,13,0,0,0,2-2,5,5,0,0,0,3.33,2.93c2.77.76,4.78-1.16,6.56-3.56a4.45,4.45,0,0,0,3.11,3.56c2.3.63,4.16-.54,5.7-2.35a3.82,3.82,0,0,0,4.17-.49,14,14,0,0,0,1.59-1.48,3.77,3.77,0,0,0,5.55-2.92c.17-2,.57-4,.82-6.06a3.78,3.78,0,0,0,6.42.57c.61-.86,1.63-2.95,2.74-3.22C398.84,125.84,396.84,119.5,392.49,120.17ZM270.64,134.76c0-.47-.05-.94-.08-1.4-.05-.89-.13-1.78-.23-2.66l2.54,0A35.73,35.73,0,0,1,270.64,134.76Zm-9.18-.74c-.12-1.12-.24-2.24-.44-3.35l1.94,0A24,24,0,0,1,261.46,134Zm-154.72.92a.94.94,0,0,1,0-.16,19.29,19.29,0,0,0,.82-2.69v.4a16.25,16.25,0,0,1-.47,1.69Zm-5-12.7,1.64.21-1.74-.07ZM182,132l-.27,0,.28,0Zm98.35.67c0-.76,0-1.55,0-2.09h1.21A13.43,13.43,0,0,1,280.38,132.71Zm30-.67.13,0-.15.19A1.49,1.49,0,0,0,310.35,132Zm50.16,0,.33,0c-.12.15-.23.31-.35.47C360.49,132.34,360.5,132.18,360.51,132Zm17-3.54A3.18,3.18,0,0,0,377,128h.83ZM174.81,131.7l-2.77-.06a3.22,3.22,0,0,0-2.7,1.25q-1.11.17-2.16.42L165,133a3.07,3.07,0,0,0-2.58-1.35v0a41.22,41.22,0,0,1-5.78-.3C162.72,131.23,168.76,131.43,174.81,131.7Zm-16-22.86a3.4,3.4,0,0,0,.84-1.12h.79v-.06a3.22,3.22,0,0,0,2.69-2.23c2.49-.26,5-.43,7.51-.61a4.46,4.46,0,0,0,.67-.11,16.37,16.37,0,0,0,.19,2.32,5.08,5.08,0,0,1-.72.58c-1.51.09-3,.24-4.52.48a3.1,3.1,0,0,0-1.32.55C162.91,108.74,160.87,108.8,158.82,108.84Zm89.78-26a3.94,3.94,0,0,0,1,1.28h-1.74L245.9,84A4.77,4.77,0,0,0,248.6,82.82ZM254,84.17l.26-.22a2.29,2.29,0,0,0,.1.23Zm-17.13-1.44a3.36,3.36,0,0,0,1.55-1.41,14.25,14.25,0,0,0,1-2,10.36,10.36,0,0,0,.69,1.08,4.38,4.38,0,0,0,2.28,1.54,3.41,3.41,0,0,0,2.42,2c-2.82-.15-5.64-.33-8.46-.51C236.49,83.21,236.67,83,236.83,82.73ZM128,101.3c1.17.06,2.33.08,3.5.12-.34.12-.69.24-1,.38a4.14,4.14,0,0,0-2.34,4.9,47.52,47.52,0,0,0-6.87,1.87c-3.05,1.11-3.6,5.9,0,6.75a54.9,54.9,0,0,0,12.17,1.3c-1.92,0-3.85,0-5.77,0a206.33,206.33,0,0,1-22.37-1c-7.8-.85-15.33-2.07-23.15-1.54a3.8,3.8,0,0,0,.06-.59A3.49,3.49,0,0,0,81.13,111l0-.09.21-1.23c.14-.44.27-.88.4-1.32a3.12,3.12,0,0,0,.22-3.06c.11-1,.18-2,.23-3a3.47,3.47,0,0,0,.45.06c6.9.27,13.7-.72,20.56-1.25A195.46,195.46,0,0,1,128,101.3ZM97.48,135.85c-.5-.07-.84-.5-1-1.13A24.8,24.8,0,0,0,97.57,129c.73.05,1.46.1,2.19.17a23.52,23.52,0,0,0-.16,4.68C99,135,98.18,136,97.48,135.85Z"/><path class="cls-1" d="M132.45,157.06H125a3.05,3.05,0,0,0-2.55-2.08,2.82,2.82,0,0,0-1-.13v.21h.27a18.58,18.58,0,0,1-2.2-.43,3.22,3.22,0,0,0-3.07-2.2v-.37h0c-4.39,0-11.43-.52-17,.85-.62,0-1.25.15-1.86.15h-.15v.36a3.47,3.47,0,0,0-2.82,1.92,8.74,8.74,0,0,0-.88.73,3.43,3.43,0,0,0-5.45,2.76c-.37,10,1,19.77.13,29.79a217.09,217.09,0,0,0-.62,22.24c-.26,2.8-.45,5.6-.48,8.39-.2,20.79.63,41.6-1,62.35-.3,3.92,6.19,4.82,6.88.93,3.53-20,2.53-40.17,1.85-60.34-.13-4-.24-8-.28-11.95.35-5.22.81-10.43,1.22-15.67a82,82,0,0,0,.06-9.14c0-.94-.17-2.17-.21-3.44,0-.9.08-1.8.1-2.7a5.13,5.13,0,0,1,.77-2.26,2.85,2.85,0,0,0-.42-4.05c.1-2.61.26-5.25.15-7.86.31-1.73.89-3.18,1.92-3.85l.13-.08c-.1,1.64.7,3.32,2.49,3.57,5.52.79,10.68-.7,16.19-.7h15.24C136.45,164.06,136.45,157.06,132.45,157.06Z"/><path class="cls-1" d="M181.45,162c1.91-1.63,1.75-5.32-1.23-6.09-1.26-.33-2.53-.61-3.8-.85a3.22,3.22,0,0,0-2.94-1.7c-4.3,0-9.09-.4-13.63.09-2.7-.07-5.41-.09-8.11-.09l-.16,0-.13,0v0a3.48,3.48,0,0,0-1.26.29A3.53,3.53,0,0,0,147.4,156a25.33,25.33,0,0,0-1.41,5.22c-1.57,3.13-1.76,7-1.71,10.36.09,5.8.63,11.48.5,17.3-.33,15.26-1.76,30.67-1.82,45.95q0,6.18,0,12.36c-.34,11.48-.54,23-.54,34.45,0,.06,0,.1,0,.15s0,.21,0,.31h0c.43,3.91,6.24,3.86,6.89,0h.07v-.51c.8-14.5.85-29,.95-43.53.27-7.74.58-15.48.86-23.27.39-10.84.57-21.8,1-32.64.23-5.69-.42-12.19.38-18.14a8.24,8.24,0,0,1,4.17-2.86c1,.21,2,.4,3,.56,6.43,1.32,12.77,2.94,19.46,2A2.87,2.87,0,0,0,181.45,162Z"/><path class="cls-1" d="M252.76,157.74c-1.53,0-3-.13-4.54-.3a3,3,0,0,0-1.78-1,74.92,74.92,0,0,0-9.63-1.58,3.56,3.56,0,0,0-1.55.25c-7.82-1.45-15.53-3.63-23.58-3.15a3.53,3.53,0,0,0-2.35,1.05l-2.52-.44a3.76,3.76,0,0,0-4.34,2.89c-2,1.51-2.12,5.34,1,6.28a29.53,29.53,0,0,0,8.37.75c8.84,2.84,18.82,2.68,27.85,2.27a3.67,3.67,0,0,0,2.47-1.2,54.45,54.45,0,0,0,10.58,1.2C257.28,164.83,257.27,157.83,252.76,157.74Z"/><path class="cls-1" d="M314.29,179.34c-.59-7.33.76-14.84-1.78-21.93a3.69,3.69,0,0,0-3.05-2.41,3.73,3.73,0,0,0-5.19.11L304,155a56.72,56.72,0,0,0-22.2-3,3.54,3.54,0,0,0-3.28,2.91c-4.44,0-4.58,6.91-.1,7,6.72.13,13.46,1.46,20.13.86,1.18.05,2.36.1,3.54.11h.4v0a3.79,3.79,0,0,0,1.17-.28c.44,7.11,1.42,14,2,20.94a3.45,3.45,0,0,0-.29,1.49,13.25,13.25,0,0,0,.67,4.54c.43,11.17-.14,22.4-.46,33.57-.31,11-.67,22-1.17,32.91-.46,10.28-2.84,21.26-.36,31.4,1.07,4.38,7.82,2.53,6.75-1.85-1.2-4.9-.83-9.74-.35-14.7.54-5.58.8-11.16,1-16.75.5-11,.83-21.91,1.14-32.87.29-10.1.69-20.16.43-30.25C315.49,187.83,314.6,183.19,314.29,179.34Z"/><path class="cls-1" d="M379.92,280.65l-.56.16a6.21,6.21,0,0,0-3.3.32,4,4,0,0,0-.66.32,3.64,3.64,0,0,0-3.24-2.38,5.61,5.61,0,0,0-2.36.24,4.53,4.53,0,0,0,0-1.22c0-.76,0-1.52.06-2.29a3.53,3.53,0,0,0-2-3.1c.54-3.63,1.19-7.25,1.52-10.91a3,3,0,0,0-2-3.13c-.12-3.15-.24-6.3-.31-9.43.49-5.19,1.42-10.37,2.42-15.51h0c0-2.84-1.65-4.55-3.76-4.41.07-4.41.13-8.81.29-13.21a3.31,3.31,0,0,0,1.84-2.2c1-3.53.73-7.23.48-10.86-.33-4.64-.35-9.31-.37-14a208.11,208.11,0,0,1,2.29-31.24,3.63,3.63,0,0,0-1.91-4.07,3.42,3.42,0,0,0-3.4-3.26,18.58,18.58,0,0,0-7.3,1.41c-.89.19-1.79.37-2.69.53a41.85,41.85,0,0,0-11.88-.06,21.18,21.18,0,0,0-3.08-.05,54.39,54.39,0,0,0-6,.11,3.66,3.66,0,0,0-3.33,4.67,3.68,3.68,0,0,0,2.29,4.14c5.46,4.68,15.75,5.65,23.74,3.47a40.72,40.72,0,0,0-.59,9.44c.12,8-.37,15.92.08,23.95.9,16.4,1.83,32.75,1.86,49.18a3.42,3.42,0,0,0,.48,1.79v7.21c0,4.61-.67,9.74.51,14.3-.05,5.12,0,10.25,0,15.37,0,3.85,6.22,4.92,6.87.93,0-.14,0-.29.07-.43a4,4,0,0,0,1.91,1.43c4.34,1.39,8.57.67,13,0a2.79,2.79,0,0,0,1.49-.68C386,285.68,384.11,279.57,379.92,280.65Z"/><path class="cls-1" d="M268.74,276c-.18-.7-.34-1.4-.52-2.1a3.22,3.22,0,0,0-3.13-2.5,1.94,1.94,0,0,1,0-.2c-1.39-5.43-.8-11.51-.7-17,.27-15.2,2-30.33,2.07-45.55,0-4.51-7-4.51-7,0-.08,17.76-2.27,35.44-2.09,53.2a3.41,3.41,0,0,0-.68,1.46,45.9,45.9,0,0,0-.82,5.3,2.75,2.75,0,0,0-.2.5c-1.11,3.81-1.88,9.69-.17,13.92v.07h0v0c0,.15,0,.3,0,.45a5.37,5.37,0,0,0,6.75,3.5,8.18,8.18,0,0,0,2-1.93,8.46,8.46,0,0,0,2.56,1.53,3.47,3.47,0,0,0,1.85.42,8.65,8.65,0,0,0,2,0c1.87-.25,3.52-1.41,3.5-3.5a24.57,24.57,0,0,0-.61-5.28A3.54,3.54,0,0,0,268.74,276Z"/><path class="cls-1" d="M198.26,287.72a3.54,3.54,0,0,0-1.25-4.79,8.86,8.86,0,0,0-6.65-.31,13.32,13.32,0,0,0,1.25-5.85c.13-3.79.18-7.57.35-11.37.36-8.13.17-16.27.5-24.4.18-4.52-6.82-4.5-7,0-.36,8.75-.19,17.52-.58,26.27-.16,3.67.13,7.7-.38,11.33-.09.65-1.92,2-2.37,2.46a12.16,12.16,0,0,0-2,3.54c-1.46,3.49,0,6.61,3.84,7,1.21.14,3.09-.6,4.88-1.35a4,4,0,0,0,2.09,1.94c1.29.47,2.57,1,3.86,1.45,3.62,1.32,5.45-3.36,3.35-5.74Z"/><path class="cls-1" d="M141.58,280.6c1.2-4.36-5.55-6.21-6.75-1.86-.13.47-.24.95-.34,1.43-2.79.14-5.58.33-8.37.35-4.51,0-4.52,7,0,7,3.16,0,6.31-.27,9.47-.4a3.13,3.13,0,0,0,1.65.4,5.53,5.53,0,0,0,3.21-1,3.79,3.79,0,0,0,1-5.24C141.46,281.08,141.51,280.84,141.58,280.6Z"/><path class="cls-1" d="M223.75,22a2.2,2.2,0,0,0-.24.28l-.11.13c-.09.12-.16.24-.24.37A2.15,2.15,0,0,0,223,23l-.12.28c0,.09-.07.16-.1.25a5.94,5.94,0,0,0,1.53,5.94,5.37,5.37,0,0,0,7.43-.08,4.39,4.39,0,0,0-.58-6.42,11.74,11.74,0,0,0-1.47-1A8.26,8.26,0,0,0,232.53,20a4.8,4.8,0,0,0,2-4.28c0-3.9-6-4.84-6.88-.93,0,.1,0,.17,0,.22l-.14.18-.06.07-.39.23a1.19,1.19,0,0,0-.3.08l-.06,0h-.11c.38,0,0-.1,0,0a3.48,3.48,0,0,0-4.49-.9c-1.51.89-2.39,3.25-1.25,4.79A7.72,7.72,0,0,0,223.75,22Zm2.95-6.22-.08,0h0Zm-.15-.08Zm-.05,0h0Z"/><path class="cls-2" d="M57.24,121.75A4.11,4.11,0,0,1,60.65,124c.63,1.28.8,1.27.17,2.68-.3.67.58,2.58.64,3.36,0,.13.27.15.35.16,2,.07,3.89.57,5.87.65.43,0,2.22-.79,1.24-.83-.77,0-5.47-.19-5.6-1.09-.15-1.08-.68-2-.25-3,.58-1.26-.53-2.44-1-3.59-.33-.85-2.8-1.39-3.61-1.46-.44,0-2.23.74-1.24.82Z"/><path class="cls-2" d="M67.12,130.59l-.42,0a1.28,1.28,0,0,0-1.1.65l0,.08c0,.14.08.29.2.35,1.37.58,3.12.69,3.79,2.28.77,1.87.62,4.31.58,6.26-.09,4-.77,7.92-.85,11.89,0,.81,1.92.4,1.93-.24.09-4.72.89-9.38.87-14.11,0-1.39,0-3.93-.94-5.07-.43-.51-3.39-2.28-3.62-1.68l-1.09.66.42,0c1-.06,1.6-1.15.26-1.08Z"/><path class="cls-2" d="M67.92,151.06H86.75c1.43,0,.81,2.5.81,3.58.45-.22.9-.4,1.35-.62-4,0-7.92-.09-11.87.11-1.91.1-9.42.85-7.19-2.76.48-.78-1.47-.58-1.8,0-1.67,2.71.69,3.73,3.22,3.92,5.55.42,11.29-.08,16.86-.08.33,0,1.32-.18,1.32-.67v-3.91a.52.52,0,0,0-.54-.53H68.67c-.73,0-2,1-.75,1Z"/><path class="cls-2" d="M69.45,156v2.62c0,.51.7.65,1.14.66,3.67,0,17.52,1.65,18.15-4.06.11-1-1.8-.77-1.9.13-.41,3.69-13.39,2.48-16.1,2.47.3.22.71.44.71.66v-2.61c0-1-2-.76-2,.13Z"/><path class="cls-2" d="M71.33,157.91c-1.41,2.14-1.2,5.28-1.31,7.76-.21,4.73-.37,9.47-.56,14.2-.51,12.67-1.35,25.34-1.4,38s.5,25.07.57,37.61c0,6.29,0,12.54.66,18.8.39,3.86-1.06,8.08.65,11.75.27.58,2.15-.06,1.93-.52-1.47-3.16-.78-7.29-.66-10.68.19-5.94-.64-12.05-.64-18,0-11.89-.47-23.78-.57-35.67-.1-12,.78-24,1.19-36.05.18-5.24.68-10.54.69-15.77,0-3.34-.71-8.55,1.22-11.47.43-.66-1.48-.39-1.77,0Z"/><path class="cls-2" d="M85.6,158.8c0,10.36.31,20.71,0,31.07-.3,10.93-1.26,21.72-1.07,32.68.37,21,1,41.87,1,62.85,0,.48,1.93.15,1.93-.52,0-21-.56-41.88-1-62.85-.23-10.3.54-20.49,1-30.77.48-11,.06-22,0-33,0-.49-1.93-.15-1.93.52Z"/><path class="cls-2" d="M70.82,285.17a4.57,4.57,0,0,0-4.35,1.21,3,3,0,0,0-.36,3.74c.42.69,2.28,0,1.77-.83a1.85,1.85,0,0,1,1.81-2.88,1.44,1.44,0,0,0,1.37-.36.51.51,0,0,0-.24-.88Z"/><path class="cls-2" d="M67.25,290.18c6.87,0,13.89-.69,20.67.65.43.08,1.58-.15,1.58-.73a8.05,8.05,0,0,0-.66-3.92c-.31-.58-2.16.08-1.93.52a7.93,7.93,0,0,1,.65,3.92l1.58-.73c-6.93-1.37-14.09-.71-21.1-.66-.63,0-2.09,1-.79.95Z"/><path class="cls-2" d="M69.64,286.86c5.22.05,10.43.61,15.66.65.43,0,2.21-.82,1.24-.83-5.23-.05-10.43-.6-15.66-.65-.43,0-2.22.82-1.24.83Z"/><path class="cls-2" d="M90.18,152.06h-1.3c-.87,0-2,1.28-.7,1.29,12.2.06,24.35,1.22,36.55,1.29.87,0,2-1.31.69-1.32-12.19-.07-24.35-1.38-36.54-1.44-.23.44-.47,1.18-.7,1.18h1.31c.86,0,2-1,.69-1Z"/><path class="cls-2" d="M103,165.19c1-1,4.4-.77,5.62-.84,2.46-.14,4.93-.16,7.39-.18,3.77,0,7.53.08,11.29.1.68,0,2.07-1,.77-1-5.21,0-10.41-.16-15.61,0-2.87.06-8.7-.54-11,1.72-.79.78,1.11.67,1.53.26Z"/><path class="cls-2" d="M100.66,164.29c-.65,1.37-.94,1.38-.7,3l.79-.93c-6,1.09-3,9.66-2.76,13.8.54,11.3-.8,22.66-1.32,33.93-.55,11.74-.61,23.49-.63,35.24,0,11.32-.6,22.62-.66,33.93,0,1,2,.74,2-.14.1-20.42.43-40.93,1-61.34.28-10.24,1.27-20.44,1.53-30.68.1-4.12.47-8.52,0-12.63-.31-2.74-2.67-10.07,1.24-10.77a.9.9,0,0,0,.78-.93,3.35,3.35,0,0,1,.61-2.24c.48-1-1.47-1-1.84-.23Z"/><path class="cls-2" d="M96.61,284.65c-.41.2-.86.4-1,.86-.06.18.09.33.22.42.62.44,1.79-.14,2.44-.17-.29-.17-.81-.35-.81-.53v3.27c0,.92,2,.56,2-.19V285c0-.48-.56-.54-1-.53a6.85,6.85,0,0,0-1.09.17l-.51.1c-.13,0-.15,0,0,0-.26,0-.1.06.46.11.08.14.15.28.22.42-.1.32-.47.48-.13.31s.79-.53.48-.9-1-.26-1.29-.08Z"/><path class="cls-2" d="M89.92,290.67c2.86-.67,5.9-.67,8.49-2.23.82-.5-1.13-.29-1.49-.07-2,1.24-4.87,1.14-7.17,1.68-1.14.27-1,.88.17.62Z"/><path class="cls-2" d="M89.45,287.61c2,0,3.9-.61,5.87-.65a1.7,1.7,0,0,0,1.28-.52c.27-.36-.23-.52-.51-.51-2,0-3.9.61-5.87.65a1.69,1.69,0,0,0-1.28.52c-.27.36.23.52.51.51Z"/><path class="cls-2" d="M89.73,164.32c-1.63,1.25-1.76,3.55-1.85,5.47-.19,4-.21,7.89-.42,11.84-.73,13.11.17,26.34,0,39.47-.13,13.41-.38,26.81,0,40.22.24,8.12-2.31,18.48,1.37,26,.27.56,2.14-.08,1.93-.52-3.13-6.43-1.55-15.38-1.34-22.27.39-12.07-.27-24.24-.12-36.32.15-12.54,0-25.05-.13-37.58,0-4.95.41-9.86.5-14.79.05-2.89-1.11-9.36,1.53-11.38.83-.63-1.11-.49-1.51-.18Z"/><path class="cls-2" d="M90.83,238.3c-3.21,14-.76,28.37-.66,42.53,0,.47,1.94.14,1.93-.52-.1-14.08-2.54-28.39.65-42.3.14-.59-1.79-.28-1.92.29Z"/><path class="cls-2" d="M88.94,154.61c-.65,1,2,2.87,2.54,3.39a50.77,50.77,0,0,0,5.29,4.17c.55.37,2.29-.41,1.79-.74a50.52,50.52,0,0,1-4.49-3.5c-.38-.31-3.56-3-3.34-3.3.47-.74-1.47-.53-1.79,0Z"/><path class="cls-2" d="M91.9,155.69c2.12-.6,4.51,0,6.68.08.65,0,2.08-1,.78-1-2.57,0-5.16-.64-7.68.07-1.14.33-.92,1.17.22.84Z"/><path class="cls-2" d="M92.94,158.34a74.43,74.43,0,0,1,7.59-.63c.62,0,2.09-1,.79-1-2.69,0-5.4.38-8.07.67-.87.1-1.66,1.06-.31.91Z"/><path class="cls-2" d="M94.32,160.06h6.53c1.11,0,1.47-2,.16-2H94.48c-1.11,0-1.47,2-.16,2Z"/><path class="cls-2" d="M95.83,163.56c2.4-.61,4.77-1.34,7.18-1.95,1.16-.3.91-1.21-.25-.92-2.4.61-4.77,1.35-7.18,2-1.16.29-.91,1.21.25.91Z"/><path class="cls-2" d="M126.8,154c-1.11,1-.4,2.89-.08,4.12,0,.14.24.16.35.17,2.93.43,4.56-1.08,7.39-1.36s5.51.31,8.23.22c3.58-.1,6.59-1.57,6.84-5.42,0-.32-.95-.11-1.06-.09-6.18,1.34-12.53,2.43-18.87,1.88-.46,0-2.23.77-1.23.86,6.82.6,13.65-.6,20.29-2l-1.06-.09c-.35,5.33-6.93,3.94-10.65,3.79a13.94,13.94,0,0,0-2.58.11,9.67,9.67,0,0,0-1.72.51c-1.55.59-6.94-.15-4.08-2.76.46-.42-1.4-.24-1.77.1Z"/><path class="cls-2" d="M128.12,158.62c-2.81,2.9-1.13,11.47-1,15s.22,6.92.18,10.4q-.17,16.77-.46,33.54c-.36,23.44-.27,47-1.46,70.4,0,.25,1.91,0,1.93-.52,1.14-22.33,1.06-44.78,1.42-67.14q.27-17.23.48-34.47c0-2.81.12-5.63,0-8.43-.1-3.27-.31-6.52-.39-9.79,0-2.24-.75-7.43,1-9.21.38-.39-1.43-.15-1.74.17Z"/><path class="cls-2" d="M143.09,157.18c-1.37,2.4-1.18,5.18-1.06,7.86.24,5,.35,9.94.35,15,0,11.51-.06,23,.6,34.5.7,12.13,1.75,24.23,1.64,36.38s-.94,24.2-.94,36.33c0,.89,1.94.5,1.94-.21,0-11.5.55-22.93.91-34.42.34-10.94-.54-21.91-1.25-32.82-.8-12.08-1-24.1-1-36.19,0-4.81.1-9.62,0-14.43-.1-3.8-1.39-8.34.61-11.85.49-.85-1.46-.71-1.81-.1Z"/><path class="cls-2" d="M153,162.25c-1.48,1.57-.92,3.67-.83,5.68.44-.29.89-.87,1.33-.87h-2c-.36,0-1.33.18-1.33.71,0,21.27-.59,42.52-1,63.78-.2,10.68-.18,21.37-.35,32.05-.11,7.19-2.07,14.64-.63,21.8.15.74,2.09.26,1.93-.52-1.48-7.38.54-15.25.66-22.69.17-10.28.14-20.56.33-30.85.38-21.25,1-42.61,1-63.88a3.34,3.34,0,0,1-1.33.6h2c.5,0,1.35-.11,1.32-.75-.07-1.52-.7-3.46.47-4.71.81-.85-1.08-.87-1.57-.35Z"/><path class="cls-2" d="M125.34,286.67c-.34.17-.67.35-1,.51-.58.28-1.28-.27-1.76-.57s-1.7,0-1.73.6a4,4,0,0,1-2.25,3.49c-.3.15-.55.59-.16.8a1.57,1.57,0,0,0,1.38-.17,5.22,5.22,0,0,0,3-4.34l-1.74.59c1.84,1.15,3.24.89,5.08-.05,1.19-.61.1-1.32-.78-.86Z"/><path class="cls-2" d="M121.51,292c4.69-1.8,30.85,2.54,29.33-7.07,0-.2-.44-.2-.57-.19a12.11,12.11,0,0,0-5.72,1.68c-.85.54,1.11.41,1.51.15,4.14-2.67,3.22.74,1.87,1.9-1.17,1-3.12,1.18-4.57,1.4a70.25,70.25,0,0,1-9.62.42c-4.2,0-8.93-.4-12.93,1.14-1.28.49-.09.87.7.57Z"/><path class="cls-2" d="M151.92,286.06h-.27c-.41,0-1,.63-1.07,1.08s.53.92.88.92h.93c.41,0,1-.63,1.07-1.08s-.53-.92-.89-.92h-.92c-.41,0-1,.63-1.07,1.08s.53.92.88.92h.27c.42,0,1-.63,1.07-1.08s-.52-.92-.88-.92Z"/><path class="cls-2" d="M124.33,289.06h17c1.11,0,1.49-1,.18-1h-17c-1.11,0-1.49,1-.18,1Z"/><path class="cls-2" d="M71.45,273.65v10.44c0,.24,2,0,2-.52V273.13c0-.24-2,0-2,.52Z"/><path class="cls-2" d="M74.53,275.53c-1.38,2.35-.71,5.33-.67,7.91,0,.26,1.94,0,1.93-.52,0-2.52-.71-5.46.64-7.75.1-.18-1.63-.1-1.9.36Z"/><path class="cls-2" d="M75.45,278.22v5.87c0,.5,2,.16,2-.52V277.7c0-.49-2-.16-2,.52Z"/><path class="cls-2" d="M130.45,161.21V186c0,1.05,2,.78,2-.13v-24.8c0-1-2-.78-2,.13Z"/><path class="cls-2" d="M132.45,161.91v4.57c0,.85,2,.44,2-.23v-4.56c0-.85-2-.45-2,.22Z"/><path class="cls-2" d="M136.52,162.63c-1.11,4.35-.72,8.7-.67,13.13,0,.28,1.94,0,1.93-.51,0-4.39-.46-8.67.64-13,.09-.35-1.78-.1-1.9.36Z"/><path class="cls-2" d="M78.42,166.48c-1.69,4.44-1,10.55-1.07,15.25a119,119,0,0,0,1.08,16.87c.09.7,2,.25,1.93-.52a130.15,130.15,0,0,1-1.06-18.41c0-4.15-.43-9.49,1.06-13.42.26-.68-1.68-.44-1.94.23Z"/><path class="cls-2" d="M79.73,173.81c-1.12,5.63-.7,11.26-.65,17,0,.26,1.94,0,1.93-.51,0-5.7-.47-11.34.65-17,0-.14-1.82,0-1.93.52Z"/><path class="cls-2" d="M149.53,153.71c-.19-1.75,14.33-.06,15.71.06,5.18.42,10.37.69,15.58.73.7,0,2.06-1.05.75-1.06-8.39-.07-16.73-.84-25.09-1.54-1.59-.13-9.31-1.61-8.88,2.33.07.62,2,.19,1.93-.52Z"/><path class="cls-2" d="M182.84,152.92c.93,1.66.65,4,.65,5.88,0,.34.93.17,1.07.13,5.28-1.71,20.09,2.62,19.14-7.18,0-.28-.66-.2-.81-.18-5.69.76-11.24,2.91-17,1.33-.51-.15-2.24.65-1.56.84a22.85,22.85,0,0,0,10.11.23c2.27-.38,4.51-.94,6.78-1.33,1.14-.2.53,1.72.4,2.21a3.36,3.36,0,0,1-2.06,2.1c-4.64,2-10.37-.36-15.21,1.2l1.07.13c0-1.84.28-4.22-.65-5.88-.32-.56-2.16.12-1.93.52Z"/><path class="cls-2" d="M206.73,151.06h-1.31c-1.11,0-1.47,1.56-.16,1.56A259.84,259.84,0,0,1,235,154.41c6.1.7,13.13,1.71,19-.54,1.24-.47.15-1.54-.86-1.15-6.77,2.58-15.59.57-22.56-.3-8.38-1-16.78-1-25.22-1a16,16,0,0,0-.16,1.61h1.31c1.11,0,1.47-2,.16-2Z"/><path class="cls-2" d="M253.55,154.55c.81.55.4,2.53.41,3.4,0,.52.46.67.9.68,4.33.09,8.59,1,12.94.82,2.44-.1,6.62-1.41,7-4.32.53-3.62-2.42-4.24-5.23-3.78-4,.65-8.82-.51-12.5,1.36-1.17.59-.12,1.72.88,1.21,2.63-1.34,5.65-.34,8.45-.55a20.6,20.6,0,0,0,2.45-.43c.71-.14,1.42-.25,2.14-.33,1.27,2.82.9,4.51-1.11,5-4.49,1.55-10.26-.42-14.91-.52l.91.68c0-1.3.35-3.57-.9-4.43-.74-.51-2.41.51-1.47,1.16Z"/><path class="cls-2" d="M277.93,154.24c1.32-1.28,4.63.33,6,.41,2.43.15,4.83.19,7.26.17,6.37-.06,12.72-.75,19.1-.82,1.08,0,1.49-1.38.18-1.37-8.06.08-16.08,1-24.14.76-3.09-.1-7.42-2.22-10,.31-.86.84,1,1.11,1.61.54Z"/><path class="cls-2" d="M311.59,152.85c-2.76.93-1,4.68,1.31,5.12,5.52,1.05,10.82-2.71,16.49-1.53a1.51,1.51,0,0,0,1.56-.64,8,8,0,0,0,.65-3.26.29.29,0,0,0-.19-.34c-5.87-1.91-12-.81-18-.72-.7,0-2.06,1.08-.76,1.06,2.73,0,5.46-.26,8.19-.38a36.1,36.1,0,0,1,5.88.2c2.65.3,3.2,1.49,2.31,3.69l1.56-.64a18.59,18.59,0,0,0-8.23.19,46.83,46.83,0,0,1-5.75,1.16c-1.43.14-2.17.53-3.44-.53.41.34-1.64-2.34-1.32-2.45,1.12-.38.89-1.32-.25-.93Z"/><path class="cls-2" d="M333.15,152.67c12,0,23.92-.62,35.89-.65,1.07,0,1.51-1.33.2-1.32-12,0-23.93.62-35.89.65-1.07,0-1.52,1.32-.2,1.32Z"/><path class="cls-2" d="M368.45,152.27v3.26c0,.21.65.2.75.2,5.28.11,14.71,3.59,19-1.3,1.41-1.62-3.52-2.42-4.21-2.54-4-.69-7.81.18-11.82.31-.6,0-2.08,1-.79.92,3-.09,6-.79,9.08-.59,1,.06,8,1,5.27,2.57-3,1.72-7.3.55-10.5.15-1.41-.18-2.81-.34-4.23-.42-.44,0-.39-2.55-.39-3.08s-2.12-.13-2.12.52Z"/><path class="cls-2" d="M384.49,133.86c0,3.06.12,6.11.09,9.17,0,2.74.18,6.53-1.33,8.95-.49.78,1.46.6,1.8.06,1.48-2.36,1.35-5.67,1.44-8.34.11-3.36-.05-6.72-.07-10.08,0-.83-1.94-.41-1.93.24Z"/><path class="cls-2" d="M386.1,134.86c1.57-1.18,3.49-.58,5-1.62a11.85,11.85,0,0,0,2.78-3c2-2.74,3.35-5.87,5.41-8.55.75-1-1.07-1.35-1.63-.62-2.05,2.69-3.51,5.77-5.41,8.56-1.17,1.71-2,2.65-4.09,2.95a7.42,7.42,0,0,0-3.38,1.39c-1.05.79.5,1.52,1.29.93Z"/><path class="cls-2" d="M255.85,160.64c-2.72,8.36-1.4,18.22-1.4,26.87v39.16c0,12.22.66,24.61,0,36.82-.31,5.76-3.23,15.34.1,20.6.36.57,2.2-.13,1.95-.52-3.45-5.46-.38-15.18-.06-21.27.59-11.33,0-22.84,0-34.19v-37.2c0-9.68-1.72-21.24,1.31-30.56.18-.55-1.73-.29-1.91.29Z"/><path class="cls-2" d="M272.24,159.45c0,22,.31,44,.51,66,.17,19.8-.42,39.56-.51,59.35,0,.55,1.93.2,1.94-.52.08-19.79.67-39.54.5-59.35-.19-22-.49-44-.5-65.95,0-.56-1.94-.2-1.94.52Z"/><path class="cls-2" d="M182.45,160.1v95.28c0,9.58-1.71,19.13-1.11,28.71,0,.28,2.06,0,2-.52-.56-8.94,1.07-17.82,1.19-26.75.14-10.5-.11-21-.11-31.51V159.58c0-.24-2,0-2,.52Z"/><path class="cls-2" d="M256.57,283.76l-.41.14c.78-.12,1.67-1.31.42-1.43-4-.38-5.75,1.67-4.57,5.55.35-.32.7-1,1.05-1h-1.3a11.21,11.21,0,0,0-.17,1.42c8.7-.19,17.82-3.13,26.29-.07.45.17,1.31,0,1.48-.54,3.09-9.65-15.45-4.88-19.77-4.75-1.1,0-1.48,1.47-.17,1.43,3.67-.11,20.42-4.21,18.09,3.09l1.48-.55c-8.84-3.2-18.16-.45-27.23-.26-1.11,0-1.48,1.23-.17,1.23h1.31c.44,0,1.21-.22,1-.77-.92-1.61-.27-2.71,2-3.5.14-.47.28-.9.42-1.37-.19,0-.38.08-.57.1-.44.07-1,.3-1.07.8,0,.19-.05.39-.08.58-.14,1,1.83.74,2-.14Z"/><path class="cls-2" d="M181.55,283.35c-.24.95-.52,1.73-.67,2.7l1.39-.64c-1.56.11-3,.49-4.57.65-.22,0-1.49.23-1.39.64.41,1.6.45,2.87-1.28,3.44-.19.07-.58.22-.58.48v.65c0,.12.24.13.29.13,10.09,0,20.21-.64,30.27-1.31.31,0,1.44-.2,1.44-.64v-4.57c0-.43-1.63.14-1.78.23-1.26.77-1.48.54-2.2,1.5l1.9-.43.41-1c.1-.07.33-.22.17-.35a4.92,4.92,0,0,0-3.55-1.37c-.4,0-2.21.74-1.25.78,3.36.15,2.41.95,2.27,2.48,0,.42,1.74-.19,1.92-.43a13,13,0,0,1,1.78-1.11,11,11,0,0,0-1.67.24V290c0-.21.88-.42,1.34-.64-5,.33-10,.65-15,.9-3.08.15-6.17.26-9.25.34-.86,0-7.4.53-3.9-.64.21-.07.59-.21.63-.47a7.52,7.52,0,0,0,0-3.27l-1.39.65c1.54-.16,3-.54,4.57-.65.36,0,1.31-.19,1.38-.65.22-.84.43-1.68.64-2.52.11-.41-1.78-.14-1.9.34Z"/><path class="cls-2" d="M184.53,285.05c4.29,1.23,8.58.11,12.86-.64,1-.16,1.56-1.39.24-1.16-3.95.7-8,1.82-11.94.68-.66-.19-2.28.8-1.16,1.12Z"/><path class="cls-2" d="M200.47,160c-1.73,9.69-1.73,19.53-1.57,29.34.19,10.93.23,21.83.14,32.76-.18,20.68.77,41.31.77,62,0,.37,1.93.07,1.93-.52,0-20-.92-40-.78-60,.07-10.42.17-20.82-.05-31.23-.24-10.89-.45-21.86,1.47-32.63.09-.51-1.82-.17-1.91.32Z"/><path class="cls-2" d="M154.54,165.35c1.74-2,11.13-1,13.11-.88,5,.23,9.93.8,14.92.86,1.14,0,1.45-1.48.15-1.5-7.29-.1-14.51-1.2-21.81-.88-2.62.11-6.09-.4-8,1.76-.82.93,1,1.33,1.64.64Z"/><path class="cls-2" d="M148.81,156.71c-.86.5-1.19-.27-.69.22.18.18.34.38.51.58.49.59.94,1.21,1.4,1.84.81,1.13,1.59,2.28,2.36,3.44.5.74,2.34,0,1.77-.86-1-1.46-2-2.91-3-4.32-.66-.87-1.84-2.83-3.2-2.06-1.14.65-.1,1.72.86,1.16Z"/><path class="cls-2" d="M150.28,156.59a11.57,11.57,0,0,1,4.39-.08,10.52,10.52,0,0,0,3.62-.37c1.15-.32.91-1.23-.24-.91-2.63.74-5.38-.43-8,.45-1.12.37-.9,1.29.24.91Z"/><path class="cls-2" d="M149.82,157.43a39,39,0,0,0,7.06.93c.59,0,2.1-.88.8-.9a34.34,34.34,0,0,1-6.29-.85,2.15,2.15,0,0,0-1.36.22c-.15.09-.67.51-.21.6Z"/><path class="cls-2" d="M151.55,160.06h1.33a1.81,1.81,0,0,0,1.28-.53c.3-.34-.25-.47-.49-.47h-1.33a1.85,1.85,0,0,0-1.28.53c-.3.35.25.47.49.47Z"/><path class="cls-2" d="M153.09,164.06h.9a2.74,2.74,0,0,0,1.36-.47c.3-.19.26-.53-.11-.53h-.89a2.75,2.75,0,0,0-1.37.47c-.3.19-.26.53.11.53Z"/><path class="cls-2" d="M144.76,158.09c-2.2,5.39-1.4,11.32-1.35,17,0,.25,1.94,0,1.93-.52-.05-5.61-.86-11.49,1.32-16.83.11-.26-1.7-.1-1.9.36Z"/><path class="cls-2" d="M147.48,159.22c-3.29,7-1.09,15.16-.95,22.54,0,.63,1.94.25,1.93-.52-.13-7.15-2.36-15.2.82-22,.41-.87-1.52-.65-1.8-.06Z"/><path class="cls-2" d="M204,164.06h-.49c-.61,0-2.09.74-.8.74,7.8,0,15.59.38,23.39.25,4.23-.06,8.46-.32,12.69-.39,4.9-.08,10.07-.88,14.75.81.5.18,2.26-.59,1.57-.84-7.38-2.67-16.89-.93-24.57-.69-9,.29-18,0-27,0-.61,0-2.09,1.15-.8,1.15h.49c.61,0,2.09-1,.8-1Z"/><path class="cls-2" d="M275.53,163.25a1.75,1.75,0,0,0-1.42,0l1.08.32.09-.41-1.35.65c4.42-.29,9.32,1,13.8,1.15,5.48.21,11,.18,16.46.18.68,0,2.07-1,.76-1-5.48,0-11,0-16.45-.19-4.59-.14-9.26-1.44-13.8-1.15-.39,0-1.25.16-1.35.65,0,.14-.06.28-.08.41-.11.52.83.39,1.08.32l-.36,0c.52.28,2.3-.49,1.54-.9Z"/><path class="cls-2" d="M354,163.7c-.73,1-.62,2.55-1,3.69-.09.32.38.37.58.37a15.11,15.11,0,0,1,2.43.14c.86.14.53,1.16.53,1.84,0,.53,1.91.18,1.91-.52v-1.78c0-.09-.08-.15-.17-.18a9.89,9.89,0,0,0-3.94-.51l.58.37c.3-1,.19-2.58.82-3.43.49-.65-1.44-.45-1.78,0Z"/><path class="cls-2" d="M358.15,162.4c-.28.09-.24.06.13-.09s.68-.29,1-.44a6.92,6.92,0,0,0,1.77-1.2,35.66,35.66,0,0,1,5.91-4.39c1.14-.6-.65-.54-1.12-.29a34.41,34.41,0,0,0-6.1,4.43,9.6,9.6,0,0,1-2.61,1.6,2.76,2.76,0,0,0-1.18.8v.1c.2.31.61.28.94.29s2.22-.76,1.25-.81Z"/><path class="cls-2" d="M330.31,164.9c8.44-.45,16.91.81,25.36.89,1.14,0,1.45-1.5.15-1.51-8.45-.08-16.92-1.34-25.37-.89-1.12.06-1.46,1.58-.14,1.51Z"/><path class="cls-2" d="M343.82,163.06h8.9c.81,0,2-1,.71-1h-8.9c-.82,0-2,1-.71,1Z"/><path class="cls-2" d="M350.67,160.94a46.86,46.86,0,0,1,7.77-1.3c.51,0,2.12-.82.84-.78a50.18,50.18,0,0,0-8.25,1.36c-.77.16-1.72,1-.36.72Z"/><path class="cls-2" d="M353.14,160.68a18.35,18.35,0,0,0,5.4-1c.27-.09.95-.33.84-.74s-.83-.31-1.1-.23a14.9,14.9,0,0,1-4.39.83,1.61,1.61,0,0,0-1.27.53c-.26.37.21.57.52.56Z"/><path class="cls-2" d="M353.13,158.43a78.21,78.21,0,0,0,10-.91c.9-.13,1.63-1.19.29-1a74.65,74.65,0,0,1-9.55.87c-.68,0-2.07,1.05-.77,1Z"/><path class="cls-2" d="M354,157.15c3.29-.05,6.51-.83,9.79-.89.75,0,2-1.17.74-1.15-3.29.06-6.51.84-9.79.89-.76,0-2,1.17-.74,1.15Z"/><path class="cls-2" d="M356.11,155.53c3.56-.48,7.07-1.27,10.68-1.33,1.12,0,1.47-1.49.16-1.47-3.61.07-7.12.86-10.68,1.33-1.09.15-1.47,1.65-.16,1.47Z"/><path class="cls-2" d="M275.56,163.06h4.89c1.1,0,1.49-1,.18-1h-4.9c-1.1,0-1.48,1-.17,1Z"/><path class="cls-2" d="M273.93,160.24a28.32,28.32,0,0,0,6.3-.51c1.17-.28.9-1.23-.26-1a23.32,23.32,0,0,1-5.28.38,1.61,1.61,0,0,0-1.28.52c-.26.38.22.57.52.57Z"/><path class="cls-2" d="M274.84,157.62a16.91,16.91,0,0,0,5-.5c.3-.09.93-.37.82-.8s-.81-.38-1.11-.28a13.43,13.43,0,0,1-3.95.38,1.51,1.51,0,0,0-1.27.55c-.23.39.2.65.55.65Z"/><path class="cls-2" d="M277,155.28c.63,0,2.09-1,.79-1-.63,0-2.09,1-.79,1Z"/><path class="cls-2" d="M240.57,162.06h3.56a1.51,1.51,0,0,0,1.27-.47c.25-.38-.21-.53-.53-.53h-3.56a1.51,1.51,0,0,0-1.27.47c-.26.38.21.53.53.53Z"/><path class="cls-2" d="M238.31,160.15c3.42,0,6.82-.41,10.24-.44.61,0,2.09-.94.79-.92-3.41,0-6.81.41-10.23.44-.61,0-2.09.93-.8.92Z"/><path class="cls-2" d="M243.52,158.62l.45-.44a.53.53,0,0,0-.24-.9,1.39,1.39,0,0,0-1.37.36l-.45.45a.53.53,0,0,0,.25.9,1.36,1.36,0,0,0,1.36-.37Z"/><path class="cls-2" d="M242.61,157.21a43,43,0,0,0,7.83-.94c1.21-.23.87-1.4-.31-1.17a39.09,39.09,0,0,1-7.31.84c-1,0-1.53,1.29-.21,1.27Z"/><path class="cls-2" d="M203.56,156.55l.45.45a1.16,1.16,0,0,0,1.31.13c.28-.14.81-.63.46-1l-.45-.45a1.15,1.15,0,0,0-1.3-.13c-.29.14-.82.63-.47,1Z"/><path class="cls-2" d="M203.37,158.06h.89a3,3,0,0,0,1.37-.49c.31-.18.26-.51-.1-.51h-.89a3,3,0,0,0-1.37.49c-.31.19-.26.51.1.51Z"/><path class="cls-2" d="M206.58,160.82a2,2,0,0,1,1.33-.48c.4,0,1-.29,1.07-.74s-.53-.57-.87-.56a4.84,4.84,0,0,0-3.12,1.3.49.49,0,0,0,.22.85,1.47,1.47,0,0,0,1.37-.37Z"/><path class="cls-2" d="M368.84,159.34c-3.27,19.92-2.69,40.14-1.84,60.22.87,20.66,1.18,41.24,1.18,61.92,0,.4,1.93.1,1.93-.52,0-20-.22-40-1.1-60.06-.91-20.62-1.61-41.41,1.74-61.87.09-.55-1.83-.2-1.91.31Z"/><path class="cls-2" d="M384.49,160.1c0,21.85,0,43.7.58,65.55.5,19.06,2,38.06,2,57.14,0,.24,1.93,0,1.93-.52,0-19.07-1.5-38.08-2-57.14-.59-21.84-.58-43.7-.58-65.55,0-.24-1.93,0-1.93.52Z"/><path class="cls-2" d="M312.05,158.64c0,21.3.26,42.6.46,63.9q.15,16,.19,32c0,9.86-1.29,19.76-.65,29.6.05.74,2,.31,1.94-.52-.64-9.73.66-19.53.65-29.28,0-10.65-.1-21.3-.19-31.95-.19-21.3-.45-42.6-.46-63.9,0-.9-1.94-.53-1.94.2Z"/><path class="cls-2" d="M327.72,157.49c1.73,10.4,1.08,20.89.69,31.38-.4,10.76.53,21.47.71,32.22.36,22-.67,44.06-.76,66.1a.46.46,0,0,0,.22.44l.17.09a1.32,1.32,0,0,0,1.67-.44,4.72,4.72,0,0,0,.54-1.57c.2-.89-1.77-.63-1.95.17l-.42,1.23,1.66-.45c-.47-.27.15-6.71.17-7.48.07-2.61.16-5.22.25-7.83.19-5.88.28-11.74.3-17.61,0-10.94.23-21.88.1-32.82-.14-10.76-1.07-21.47-.71-32.23.35-10.61,1-21.19-.71-31.72-.14-.82-2.08-.34-1.93.52Z"/><path class="cls-2" d="M304.87,167.28c1.94,9,1.32,18.25.89,27.4-.47,9.84-.19,19.72,0,29.57.33,19.67.42,39.32.42,59,0,1.06,2,.81,2-.12q0-30.47-.46-60.91c-.17-9.8-.33-19.59.13-29.38.42-8.72.84-17.48-1-26.07-.21-.95-2.14-.44-1.94.52Z"/><path class="cls-2" d="M357.08,168.43c-1.61,4-1,8.33-.75,12.51.43,6.35.1,12.83.1,19.2,0,13.22.23,26.43.46,39.64.16,9.26.15,18.51.22,27.76,0,3.13.08,6.27.17,9.4,0,1.15-.38,4.4.53,5.33.51.53,2.35-.21,1.78-.79-.74-.75-.35-4.11-.38-5.06-.13-3.7-.15-7.41-.17-11.12-.06-9.21-.08-18.43-.24-27.64-.22-12.58-.44-25.15-.44-37.73,0-6,.11-12,0-18-.11-4.62-1.11-9.3.68-13.72.28-.7-1.66-.47-1.94.21Z"/><path class="cls-2" d="M364.18,230.64l-.23-.11a1.92,1.92,0,0,0-1.65.29c-2.43,1.82-.67,10.63-.63,13.43.12,10.19,2.54,20.66-.66,30.62-.13.4,1.74.16,1.91-.34,2.61-8.12,1.56-16.88,1-25.24-.24-3.31-.28-6.63-.39-9.95,0-1.36-.93-7.54.29-8.44l-1.65.29.22.12c.51.25,2.07-.54,1.82-.67Z"/><path class="cls-2" d="M363.68,236.87c-2.35,3.39,0,10,.74,13.59a52.72,52.72,0,0,1-2.11,27.64c-.2.52,1.7.29,1.92-.28,2.92-7.69,2.7-15.77,2.62-23.86,0-4.65-4.26-13-1.39-17.13.45-.65-1.47-.41-1.78,0Z"/><path class="cls-2" d="M361.07,168.32c-.95,1.72-.86,4-.88,5.91,0,2.9.13,5.81.16,8.71,0,.57,1.93.21,1.93-.51,0-2.21-.13-4.41-.16-6.61s-.38-5.45.74-7.49c.43-.78-1.5-.54-1.79,0Z"/><path class="cls-2" d="M363,166.45c-.05,4.79-.61,9.56-.66,14.35,0,1,1.95.68,1.95-.15.05-4.8.62-9.57.66-14.36,0-1-1.95-.68-1.95.16Z"/><path class="cls-2" d="M364.45,163.21v16.31c0,.89,2,.51,2-.21V163c0-.89-2-.51-2,.21Z"/><path class="cls-2" d="M372.74,159.3a30.79,30.79,0,0,0-.65,7.17c0,.88,1.94.49,1.94-.21a30.92,30.92,0,0,1,.65-7.18c.19-.79-1.77-.5-1.94.22Z"/><path class="cls-2" d="M374.93,161.12c-1.52.86-1.55,2.76-.88,4.2.22.48,2.09-.18,1.93-.52-.5-1.06-.8-2.92.43-3.62.33-.19.24-.42-.11-.43a2.54,2.54,0,0,0-1.37.37Z"/><path class="cls-2" d="M360.54,203.34c-1.4-.15-2.89.1-2.57,1.81a79.36,79.36,0,0,1,1,13.71c0,.59,1.67-.09,1.86-.29,1.2-1.28,3.43-.94,4.77-2.06a3.79,3.79,0,0,0,1.47-3.25c.1-4.15-.78-8.23-.88-12.37,0-.2-.45-.2-.57-.2a11.85,11.85,0,0,0-3.92.69c-1.29.45-.09.88.71.6,2.7-.94,2,2,2.22,3.84s.39,3.87.49,5.82c.14,2.73.16,4.49-3.08,5.39a6.07,6.07,0,0,0-3,1.6l1.86-.29c0-1.78.32-13.89-1.58-14.09.5.05,2.25-.8,1.22-.91Z"/><path class="cls-2" d="M361.07,203.88a84.1,84.1,0,0,0-.53,11.11c0,1,1.95.66,1.95-.17a84.18,84.18,0,0,1,.53-11.11c.13-1-1.84-.67-1.95.17Z"/><path class="cls-2" d="M362.13,201.23c-.91,4.55-.57,9.17-1.06,13.76-.11,1,1.86.67,1.95-.17.49-4.58.15-9.2,1.06-13.75.18-.93-1.79-.67-1.95.16Z"/><path class="cls-2" d="M359.81,229.18a6.6,6.6,0,0,1,2.67-.92c.4,0,1-.3,1.07-.75s-.53-.59-.88-.58a9.22,9.22,0,0,0-3.69,1.2c-.31.15-.77.56-.47.94a1.14,1.14,0,0,0,1.3.11Z"/><path class="cls-2" d="M363.78,229.06h.53a1.53,1.53,0,0,0,1.28-.48c.25-.37-.22-.52-.53-.52h-.53a1.53,1.53,0,0,0-1.27.48c-.26.38.21.52.52.52Z"/><path class="cls-2" d="M360,186.07c.52,2.81.54,5.67,1.06,8.47.16.89,2.1.4,1.93-.52-.52-2.8-.54-5.66-1.06-8.46-.16-.9-2.1-.41-1.93.51Z"/><path class="cls-2" d="M363.45,185v-1.59c0-.42-2-.11-2,.52v10c0,.41,2,.1,2-.52V183.44c0-.42-2-.11-2,.52v1.58c0,.42,2,.11,2-.51Z"/><path class="cls-2" d="M364.6,184v-.53c0-.27-1.93,0-1.93.52v.53c0,.26,1.93,0,1.93-.52Z"/><path class="cls-2" d="M373.25,265.31a30.71,30.71,0,0,0-.54,7c0,.35,1.93.06,1.93-.52a30.22,30.22,0,0,1,.52-6.78c.11-.47-1.79-.17-1.91.33Z"/><path class="cls-2" d="M376.43,262.15c-1.89,4.4-.59,9.71-1.07,14.36,0,.18,1.87,0,1.93-.52.47-4.57-.82-9.88,1-14.2.11-.25-1.7-.11-1.9.36Z"/><path class="cls-2" d="M379.06,260.11A168.25,168.25,0,0,1,378,282.22c-.07.57,1.85.2,1.91-.31A169.65,169.65,0,0,0,381,259.6c0-.4-1.93-.1-1.93.51Z"/><path class="cls-2" d="M381.22,264c-1.13,2.55-.61,5.42-.58,8.12,0,1,2,.74,1.95-.14,0-2.53-.58-5.36.48-7.75.45-1-1.5-1-1.85-.23Z"/><path class="cls-2" d="M371.63,282.35c2.06-1.05,5.06-.63,7.29-.54,2,.08,4,.25,6,.28.72,0,2.06-1.08.75-1.1-4.82-.05-10.76-1.5-15.26.79-1.15.59.57.89,1.2.57Z"/><path class="cls-2" d="M331,282a1.59,1.59,0,0,0-.69.59.5.5,0,0,0,.17.65c1,.55,3-.29,4-.57-.38-.19-.94-.38-.94-.56v2.64c0,.6.48.69.94.57,1.06-.28,1.44-.15,1.64.94a23.19,23.19,0,0,0,.24,2.37c.26.87,2.16.35,1.91-.51-.31-1.07-.07-2.26-.59-3.26-.71-1.39-2.26-1.16-3.52-.83a3,3,0,0,0,1.38.57V282c0-.59-.92-.7-1.38-.57s-.77.19-1.1.28l-.89.21c-.61.15-.71-.06-.12.27.05.22.1.43.16.65l-.32.32c1.16-.62.11-1.62-.85-1.11Z"/><path class="cls-2" d="M311.55,282.41c-1.07,1.21-1.1,2.62-1.56,4.1-.27.86-1.13,1.1-1.45,2s.33,1.44.78,1.91,2.34-.21,1.79-.78-1-1.19-.32-1.73a3.11,3.11,0,0,0,1-1.3c.5-1.23.38-2.75,1.3-3.79.77-.88-1.1-.9-1.56-.38Z"/><path class="cls-2" d="M304,281.67c-.4,1.22-3.33,3.05-2.4,4.49.69,1.06,2.33,1.54,3.37,2.19a9.07,9.07,0,0,0,4.38,1.65c.7,0,2.06-1,.76-1.05a7.84,7.84,0,0,1-3.59-1.51c-.87-.54-2.77-1.12-3.13-2.12-.23-.64.92-1.58,1.29-2a5.15,5.15,0,0,0,1.25-1.93c.21-.63-1.72-.37-1.93.26Z"/><path class="cls-2" d="M313.82,288.68c.34,1.06,6.74,1.65,8,1.8,4.75.53,9.45,1,14.2.2,1-.17,1.49-1.57.18-1.36a47,47,0,0,1-18.72-1.13c-1.67-.44-4.15-1.28-5.57.1a.6.6,0,0,0-.16.53l.12.38c.27.86,2.2.33,1.93-.52Z"/><path class="cls-2" d="M314.6,284.2A97.41,97.41,0,0,0,327,283.13c.93-.13,1.6-1.25.26-1.07a95.24,95.24,0,0,1-11.92,1c-.72,0-2.06,1.12-.75,1.1Z"/><path class="cls-2" d="M356.9,281.05a12.07,12.07,0,0,0-3.69,1.19c-.24.12-.62.29-.59.62.12,1.24.41,2.45.53,3.7,0,.23.43.24.58.25,5.36.19,12,4.13,17,.67.88-.6-1.07-.57-1.53-.25-2.36,1.63-6.94-.05-9.48-.62-1.25-.28-2.5-.54-3.77-.72-1.51-.21-1.28-2.13-1.41-3.55l-.6.61a7.21,7.21,0,0,1,2.66-.92c.89-.13,1.63-1.18.29-1Z"/><path class="cls-2" d="M367,283.72a4.06,4.06,0,0,0-.62,2.84c0,.33,1.93.05,1.93-.52,0-.76-.11-1.84.44-2.45.29-.32-.25-.35-.46-.34a2.06,2.06,0,0,0-1.29.47Z"/><path class="cls-2" d="M370.3,289.12c6.36-2.11,13.26-2,19.87-2.47.17,0,1.52-.29,1.4-.61a7,7,0,0,0-4.81-4.29c-.54-.18-1.91.61-1.83.63a6.84,6.84,0,0,1,4.71,4.18L391,286c-7.17.55-14.48.53-21.37,2.82-1.32.43-.06.58.64.35Z"/><path class="cls-2" d="M373.05,285.37a105.37,105.37,0,0,0,12.16-1.06c1-.13,1.53-1.48.2-1.31a103,103,0,0,1-12.16,1.06c-1.06,0-1.52,1.32-.2,1.31Z"/><path class="cls-2" d="M372.73,286.2a18.79,18.79,0,0,1,10.4-.47c.55.14,2.26-.7,1.2-1a21.52,21.52,0,0,0-11.82.58c-1.13.36-.92,1.22.22.86Z"/><path class="cls-2" d="M373.33,285.93a43.21,43.21,0,0,1,7.67-1c1.12,0,1.47-1.49.16-1.47a45.53,45.53,0,0,0-8.2,1.1c-1.22.25-.83,1.62.37,1.38Z"/><path class="cls-2" d="M71.34,144.67c51.59,0,103.11,1.43,154.69,2,26.17.29,52.07-1.39,78.2-2.31,27-.95,54,1.38,81,.85a1.16,1.16,0,0,0,1.08-.73c0-.13.06-.26.1-.39a.44.44,0,0,0-.22-.43c-.17-.18-.33-.37-.49-.55-.43-.66-2.29,0-1.78.81a1.1,1.1,0,0,0,.39.51c-1.68-1.23-4.36-.42-6.36-.41-3.21,0-6.42,0-9.63-.1-6.4-.12-12.8-.36-19.19-.58-12.95-.45-25.87-.61-38.82-.41s-26,1.18-39,1.87c-14.21.76-28.4.75-42.63.61-52.22-.51-104.39-2-156.62-2-.85,0-2,1.27-.71,1.27Z"/><path class="cls-2" d="M63.13,129.07c15.77.06,31.49,1.6,47.26,1.29,7.72-.15,15.39-.93,23.13-.92,8.41,0,16.82.54,25.22,1,13.2.66,26.34.48,39.53.39q47.1-.31,94.2-.41c31.79-.11,63.59-.26,95.38-.26.37,0,2.19-.73,1.27-.73q-88.19,0-176.37.59c-11.08.06-22.16.26-33.24.29-18.87.06-37.72-2.43-56.59-1.3-19.59,1.18-38.94-.56-58.52-.64-.37,0-2.19.73-1.27.74Z"/><path class="cls-2" d="M183.48,97.68c1.22,2.51.67,5.44.6,8.14-.1,4.31.22,8.64.22,13,0,.42,2.15.11,2.15-.52V106.72c0-3.09.57-6.69-.82-9.55-.27-.55-2.35.1-2.15.51Z"/><path class="cls-2" d="M274.11,97.13c-1.65.71-.92,4.7-.91,6,.07,5.25.36,10.48.37,15.73,0,1,2,.77,2-.14,0-4.34-.26-8.67-.31-13,0-.93-.33-7.39-.24-7.43,1.21-.52.14-1.63-.87-1.19Z"/><path class="cls-2" d="M185.93,119.53c6.67,0,13.33.4,20,.5,7.73.11,15.43-.57,23.16-.56,14.74,0,29.57-1,44.23-.24.42,0,2.22-.77,1.24-.82-14.05-.72-28.12.4-42.24.26-7.77-.07-15.51.51-23.27.55-7.3,0-14.58-.47-21.87-.51-.42,0-2.21.81-1.25.82Z"/><path class="cls-2" d="M185.12,88.7c.07-.45.14-.89.22-1.34a8.05,8.05,0,0,1,4.79-.72c1.09,0,2.2.06,3.29,0,4.16-.23,8.33-.38,12.5-.52,8.11-.27,16.14,0,24.23.54,7.35.47,14.68,0,22,.21,3.17.11,6.4.51,9.57.37,1.81-.08,3.57-.27,5.37-.52,3.45-.47,6.42-1.18,6.46,3.28,0,.87,1.94.48,1.94-.22a31.85,31.85,0,0,0-.31-4.36c0-.25-.41-.33-.6-.34a54.47,54.47,0,0,0-9,.72c-4.75.66-9.72,0-14.5-.18-8-.28-15.92.14-23.93-.38A224.76,224.76,0,0,0,204.54,85c-6.62.24-13.73-.31-20.23,1-.28,0-.8.3-.83.64a15.63,15.63,0,0,0-.12,2.82c0,.25.42.31.6.33l.43,0c.8.08,2-1,.73-1.18Z"/><path class="cls-2" d="M181.8,92.35a7.58,7.58,0,0,1-.31-2.72c-.45.24-.91.47-1.37.7,3.79-.13,7.55.49,11.33.37,4.38-.15,8.73-.49,13.12-.52,9.36-.06,18.74.95,28.1,1.2q12.39.32,24.78-.33c4.07-.21,8.12-.59,12.19-.7,2.88-.08,8.25-1.31,8.16,2.82,0,.39,1.92.1,1.93-.52.11-4.8-6.16-3.21-9.28-3.18-9.76.1-19.48,1.12-29.26,1.13-20.11,0-40.15-1.83-60.26-1.15-.34,0-1.38.2-1.37.7a7.5,7.5,0,0,0,.31,2.71c.1.5,2,0,1.93-.51Z"/><path class="cls-2" d="M181.41,93.6c32,0,63.88-.3,95.82-.3.41,0,2.21-.79,1.26-.79-32,0-63.88.3-95.83.3-.4,0-2.2.79-1.25.79Z"/><path class="cls-2" d="M184.43,93.1c-1,2,.61,3.49,2.64,3.22.4,0,1-.28,1.07-.78,0-.71.26-1.39.3-2.1l-1.86.49a2.17,2.17,0,0,1,.51,1.76c0,.4.28.56.64.63,2.08.37,3.88-.41,4.32-2.58.2-1-1.78-.71-2,.14-.23,1.1-.68,1.22-1.7,1l.64.62a3.18,3.18,0,0,0-.69-2.46c-.47-.49-1.82-.3-1.87.5s-.25,1.4-.3,2.11l1.07-.77c-1.11.14-1.43-.7-1-1.6s-1.46-1-1.84-.22Z"/><path class="cls-2" d="M198,94.29c-.23.34-.43,1.07,0,1.35a3.26,3.26,0,0,0,1.81.1c1.13-.16,2.38-.61,2.48-1.89l-1.93.52a6.12,6.12,0,0,0,.6,2.41c0,.11.24.12.33.11,1.56,0,3.22-.4,3.69-2,.1-.34-1.77-.11-1.9.35a4.19,4.19,0,0,1-.26.7c-.15.32.25.25-.26.26l.33.11a6.08,6.08,0,0,1-.6-2.41c0-.29-1.9,0-1.93.52a1.08,1.08,0,0,1-.17.61c.3.1.23.11-.2,0s-.3-.83-.13-1.09-.71-.15-.76-.14a1.83,1.83,0,0,0-1.14.5Z"/><path class="cls-2" d="M212.1,94.2c0,.89.37,1.57,1.36,1.47a4.41,4.41,0,0,0,2.53-1.6l-1.69.16c.35.64.85,1.17,1.2,1.81s2.24,0,1.77-.84c-.34-.64-.85-1.17-1.2-1.81s-1.37-.17-1.69.16-.61.76-.91.79l.79.26a.75.75,0,0,1-.21-.57c0-1-2-.66-2,.17Z"/><path class="cls-2" d="M215.41,95.26a9.36,9.36,0,0,1,2.79.28c.4.12,1.5-.12,1.56-.65a4.55,4.55,0,0,1,.54-1.36c.42-.83-1.52-.6-1.8,0a5.51,5.51,0,0,0-.67,1.65l1.56-.65a11.3,11.3,0,0,0-3.23-.32,1.56,1.56,0,0,0-1.27.53c-.26.37.22.56.52.56Z"/><path class="cls-2" d="M225.45,94.37v1.51a.22.22,0,0,0,.15.2c1.68.76,5,.59,4.73-1.93-.05-.61-1.89-.17-1.94.39-.2,2.37,2.16,2.23,3.89,2.22.34,0,1.32-.18,1.35-.66a5.87,5.87,0,0,0,0-2.25c-.22-.65-2.14-.11-1.93.52a5.27,5.27,0,0,1,0,2l1.34-.66c-1.19,0-2.87.29-2.73-1.4l-1.93.38c.07.73-.09.83-.75.69s-.29-1-.29-1.51-1.89-.21-1.89.52Z"/><path class="cls-2" d="M238.91,93.59c-1,3.65,5.46,3.49,5.27-.46,0-1-1.86-.69-2,.16-.57,5.49,7,2.87,5.56,0-.41-.82-2.31-.25-1.93.52a.94.94,0,0,1-.7,1.41c-1.06.29-1-1.5-1-2.05l-2,.16c0,.55,0,1.56-.72,1.64s-.77-1-.64-1.5c.25-.9-1.73-.67-2,.16Z"/><path class="cls-2" d="M252.18,94.07c.07.61.24,1.21.31,1.82,0,.13.26.17.34.17h3.32c.36,0,1.3-.15,1.3-.7V93.42c0-.36-1.79-.07-1.79.52a2,2,0,0,0,2.49,2.27c1.61-.2,3.16-1.16,2.86-3-.07-.44-2,0-1.91.52a2.07,2.07,0,0,1-.14,1.3,1.24,1.24,0,0,1-.34.38c.27-.2.16,0-.2-.17a1.93,1.93,0,0,1-.87-1.86c0-.36-2.1-.07-2.1.52v1.94c1-.23,1.41-.82,1.94-.82h-3.32c.12,0,.23.18.35.23-.07-.62-.24-1.16-.3-1.77-.05-.42-2,0-1.94.55Z"/><path class="cls-2" d="M266.66,93.05c-.37.78-.75,2,.25,2.46a4.59,4.59,0,0,0,3.22-.11c.29-.09.86-.25.86-.64a2,2,0,0,0-.36-1.3c-.32-.43-1.88.07-1.87.61,0,1.13.26,2.51,1.66,2.5a4.53,4.53,0,0,0,2-.58c.83-.44.88-1.44.94-2.33.05-.65-1.88-.24-1.92.3s-.25,1.19-.29,1.81l.38-.35c-.44.27-.53,0-.69-.45a4.27,4.27,0,0,1-.18-1.42l-1.87.61a1.78,1.78,0,0,1,.24,1.11l.86-.64a1.71,1.71,0,0,1-1.45,0c-.61-.41-.11-1.43.11-1.9s-1.67-.26-1.92.29Z"/><path class="cls-2" d="M273.45,94.67v3c0,.34,2,.06,2-.51v-3c0-.33-2-.05-2,.52Z"/><path class="cls-2" d="M191.69,98.56c14,1.66,28.47-.14,42.56.25,6.91.19,13.8.59,20.69,1,4.28.27,8.67.35,12.76-1.11,1.27-.45.11-1.11-.77-.8-4.77,1.7-10.31.88-15.25.53-6.2-.45-12.42-.64-18.63-.81-13.31-.36-27,1.42-40.18-.15-.61-.07-2.27.93-1.18,1.06Z"/><path class="cls-2" d="M191,100.4c0,4.22-.28,8.43-.3,12.65,0,.34,1.93.06,1.93-.51,0-4.22.28-8.44.31-12.66,0-.33-1.93,0-1.94.52Z"/><path class="cls-2" d="M266,99.31a79.5,79.5,0,0,1-.6,12c-.15,1,1.82.72,2-.15a80.81,80.81,0,0,0,.6-12c0-1-2-.71-2,.15Z"/><path class="cls-2" d="M192.25,113.18c5.13,1.08,10.92,0,16.14-.08,7.38-.16,14.76-.22,22.15-.31,7.12-.1,14.3-.46,21.42-.13,4.69.21,9.5.86,14-.73,1.14-.4.83-1.7-.35-1.29-4.94,1.74-10.33.66-15.45.56-6.48-.12-13,.11-19.46.21-6.21.08-12.43,0-18.63.22-6,.16-13.26,1.41-19.17.17-.93-.19-2,1.11-.67,1.38Z"/><path class="cls-2" d="M192.83,107.93a13.94,13.94,0,0,0,2.46,3.39c.37.37,2.15-.33,1.82-.67a13.16,13.16,0,0,1-2.35-3.24c-.26-.5-2.11.18-1.93.52Z"/><path class="cls-2" d="M193.72,105.22c.49,2.53,3,4.3,4.9,5.84.52.43,2.31-.32,1.79-.75-1.78-1.48-4.29-3.18-4.75-5.61-.13-.65-2.07-.18-1.94.52Z"/><path class="cls-2" d="M195,100.73c-1.11,1.58.69,3.63,1.65,4.8,1.61,2,3.61,3.6,5.28,5.53.42.48,2.27-.2,1.8-.75-1.28-1.48-2.77-2.77-4.11-4.19-.93-1-3.92-3.82-2.82-5.37.49-.7-1.45-.51-1.8,0Z"/><path class="cls-2" d="M195.54,101c.89,4.8,5.89,7.87,9.55,10.52.64.46,2.36-.44,1.5-1.06-3.48-2.53-8.27-5.41-9.12-10-.16-.82-2.09-.34-1.93.52Z"/><path class="cls-2" d="M197.64,100.26c-1,2.37,1.86,4.47,3.46,5.7,2.19,1.69,5.09,3,6.86,5.1.43.53,2.28-.15,1.79-.76-1.56-1.9-4.11-3.13-6.09-4.54-1.59-1.13-5.07-3.36-4.08-5.74.26-.63-1.67-.4-1.94.24Z"/><path class="cls-2" d="M200.06,100c-.74,2,2.5,4.41,3.69,5.48,2.11,1.87,4.43,3.46,6.61,5.24.42.34,2.13-.41,1.82-.67-1.94-1.58-4-3-5.9-4.63-1.22-1-5.05-3.79-4.31-5.75.15-.38-1.71-.17-1.91.33Z"/><path class="cls-2" d="M204.16,100.88c1.75.53,3.52,3.27,4.89,4.45,2.52,2.16,5.26,4.07,7.94,6,.52.37,2.26-.4,1.81-.72-2.94-2.14-5.89-4.26-8.65-6.62-1.36-1.16-2.68-3.47-4.43-4-.54-.16-2.28.65-1.56.88Z"/><path class="cls-2" d="M208.11,100.67a51.71,51.71,0,0,1,6,4.35c2.57,2,5.4,3.52,7.89,5.6.61.51,2.33-.38,1.5-1.07-2.28-1.91-4.84-3.39-7.24-5.13a69,69,0,0,0-6.62-4.82c-.69-.38-2.42.57-1.5,1.07Z"/><path class="cls-2" d="M214.33,101.41a63.19,63.19,0,0,1,13.37,8c.68.56,2.36-.41,1.49-1.13a64.73,64.73,0,0,0-13.75-8.23c-.83-.39-2.23.8-1.11,1.33Z"/><path class="cls-2" d="M217,100.46c4.92,2.45,10.68,5.16,13.81,9.88.29.44,2.05-.34,1.93-.52-3.17-4.78-8.93-7.51-13.91-10-.49-.24-2,.56-1.83.64Z"/><path class="cls-2" d="M222.66,99.49c.81,1.83,3.07,2.86,4.65,3.92a59,59,0,0,1,8.38,6.18c.58.55,2.41-.21,1.77-.82a46.34,46.34,0,0,0-6.89-5.24c-1.72-1.12-5.12-2.62-6-4.55-.36-.8-2.26-.22-1.93.51Z"/><path class="cls-2" d="M227.55,100.35c1.92.47,3.8,2.87,5.31,4.08,2.31,1.85,4.86,3.4,6.74,5.73.41.5,2.26-.17,1.79-.75-2.16-2.68-5.22-4.43-7.83-6.63-1.4-1.18-3-3-4.83-3.46-.6-.14-2.27.77-1.18,1Z"/><path class="cls-2" d="M229.89,101c.06,1.66,4.71,3.57,5.85,4.22,3,1.73,6.41,3.19,9.12,5.37.57.47,2.32-.37,1.51-1a53.31,53.31,0,0,0-7.43-4.42c-1.16-.65-7.06-3.13-7.12-4.67,0-.74-2-.32-1.93.52Z"/><path class="cls-2" d="M234.71,98.89c.54,1.87,2.39,2.77,3.91,3.75a76.2,76.2,0,0,1,8.2,6.58c.44.38,2.2-.35,1.81-.69-2.3-2-4.69-3.88-7.09-5.75-1.64-1.28-4.28-2.26-4.9-4.4-.16-.54-2.08,0-1.93.51Z"/><path class="cls-2" d="M238.93,100.4c2.61,5.59,9.93,5.86,13.32,10.66.37.52,2.24-.13,1.8-.75-3.33-4.71-10.65-5-13.19-10.43-.31-.65-2.19,0-1.93.52Z"/><path class="cls-2" d="M243.75,100.7c2.87,3.36,6.84,5.44,10,8.5.35.33,2.09-.4,1.83-.65-3.11-3-7.06-5-9.89-8.37-.38-.44-2,.4-1.93.52Z"/><path class="cls-2" d="M246.37,101c4,3,8.45,5.6,11.32,9.83.42.63,2.28,0,1.78-.8-2.93-4.33-7.51-7-11.59-10-.59-.45-2.34.4-1.51,1Z"/><path class="cls-2" d="M251.7,100.72l-.07-.08-1.65.91a70.79,70.79,0,0,1,11.32,8.94c.55.54,2.38-.21,1.78-.81a72.49,72.49,0,0,0-11.58-9.15c-.51-.33-2.29.36-1.65.91A1.72,1.72,0,0,0,251,102c.85.1,2-1.09.71-1.25Z"/><path class="cls-2" d="M255.59,99.06H255c-.23,0-1.89.19-1.54.61,2.52,3,6.1,5.21,7.77,8.92.21.46,2.08-.22,1.94-.55-1.7-3.76-5.33-5.8-7.89-8.9-.51.24-1-.08-1.54.92h.6c.4,0,2.2-1,1.26-1Z"/><path class="cls-2" d="M257.51,100.94a12.25,12.25,0,0,1,5.22,5.79c.33.74,2.23.15,1.93-.52A13.11,13.11,0,0,0,259,99.94c-.62-.33-2.38.55-1.52,1Z"/><path class="cls-2" d="M260.62,99.79c.08,1.79,1.76,2.83,2.11,4.52.15.73,2.09.24,1.93-.51-.35-1.69-2-2.76-2.11-4.52,0-.69-2-.28-1.93.51Z"/><path class="cls-2" d="M263.45,100.7v1.81c0,.27,2,0,2-.52v-1.81c0-.27-2,0-2,.52Z"/><path class="cls-2" d="M67.22,92.19a5.2,5.2,0,0,0,0,3.08c.06.49.81.48,1.14.4,4.42-1.1,8.89-.57,13.39-.5s8.88-.41,13.31-.43c10.34,0,20.68.18,31,.55,9.34.32,18.68.58,28,.23,9.53-.37,19,.14,28.51.2,1.1,0,1.48-1.4.17-1.41-20-.13-40,.13-60-.56-9.18-.32-18.37-.39-27.55-.42-5.52,0-11,.56-16.54.34A36.85,36.85,0,0,0,68,94.36l1.14.4a6,6,0,0,1,0-2.35c.43-1-1.52-1-1.85-.22Z"/><path class="cls-2" d="M69,92.91c8.61,0,17.2.67,25.8.86,9.31.2,18.58-.73,27.88-.82,19.45-.2,38.91,0,58.36-.65,1,0,1.55-1.24.22-1.2-19.27.59-38.58.53-57.86.64-9.31.05-18.57.94-27.88.82-8.6-.12-17.19-.81-25.8-.86-.8,0-2,1.2-.72,1.21Z"/><path class="cls-2" d="M72.07,95.31a3.11,3.11,0,0,0-.38,1.77c0,.16.27.21.37.24,1.81.51,4.59,1.37,5.18-1.23l-1.93.39a3.42,3.42,0,0,0,3.84,2.09,3.12,3.12,0,0,0,1.94-.84,11,11,0,0,0,.67-1.64c.26-.52-1.64-.32-1.93.26a11,11,0,0,0-.56,1.33c.09-.27-.65-.27-.93-.4A2.07,2.07,0,0,1,77.24,96c-.19-.62-1.81-.13-1.93.39-.16.72-.38.5-1,.3-.8-.26-1-.45-.45-1.33.46-.73-1.48-.51-1.79,0Z"/><path class="cls-2" d="M87.52,96.08l.08,0L86.31,96c.25.43,0,1.47.15,2a.6.6,0,0,0,.6.34A9,9,0,0,0,89.8,98c.26-.08.65-.31.65-.66v-1.5a7.7,7.7,0,0,1-1.76.36c.43,2.95,2.88,2.45,5.12,1.8.28-.08.84-.3.87-.66a8.49,8.49,0,0,1,.63-2.41c.26-.74-1.69-.5-1.94.21a8.77,8.77,0,0,0-.59,2.41l.82-.65a7.77,7.77,0,0,1-1.89.45c-.73,0-1-1.17-1.12-1.67-.1-.71-2.14-.29-2.14.36v1.51c1-.22.75-.44,1-.65a6.06,6.06,0,0,1-1.8.24c.2.12.46.23.66.35-.25-.72.1-1.63-.28-2.28-.22-.38-1-.19-1.28-.06l-.06,0c-1.24.52-.11,1.31.8.92Z"/><path class="cls-2" d="M100.93,95.44a15.12,15.12,0,0,0-.31,2.11c0,.33.31.42.59.42,1.8,0,4.58-.19,4.36-2.61-.06-.64-1.85-.17-1.93.38-.22,1.55.39,2.81,2.12,2.67a4.39,4.39,0,0,0,3.72-2.91c.24-.63-1.69-.39-1.93.24s-.66,1.48-1.31,1.6c-.83.16-.72-1.49-.67-1.84l-1.93.38c.1,1.17-.81,1-1.67,1l.58.41a15.12,15.12,0,0,1,.31-2.11c.14-.72-1.81-.4-1.93.25Z"/><path class="cls-2" d="M114.5,95.79a5.24,5.24,0,0,0,0,2.16c0,.12.27.11.34.11h3c.38,0,1.56-.09,1.59-.63a5.25,5.25,0,0,0,0-2.09c-.14-.43-1.86,0-1.92.44-.11.71-.42,2.1.57,2.35s2.06-.11,3.08,0c.38,0,1.4-.14,1.57-.57a6.06,6.06,0,0,0,.32-2.2c0-.33-1.93,0-1.94.52a5.52,5.52,0,0,1-.28,2l1.57-.57a10.22,10.22,0,0,0-2.21.06c-1.13.12-.9-1.17-.77-1.94l-1.92.43a4.89,4.89,0,0,1,0,2c.53-.23,1.06-.8,1.59-.8h-3c.11,0,.22.23.34.28a4.75,4.75,0,0,1,0-2c.13-.39-1.74-.11-1.91.4Z"/><path class="cls-2" d="M129.45,95.86v0c0-1-2-.78-2,.13v1.54c0,.3.29.5.57.61a8.27,8.27,0,0,0,5,0c.35-.08.81-.37.84-.76.05-.79.47-1.52.25-2.3s-1.68-.52-1.68.32v2.71c0,.51.21.68.65.68a10.55,10.55,0,0,0,2.85-.35c.32-.08.73-.36.73-.76A10.75,10.75,0,0,1,137,95c.26-1-1.73-.75-2,.13a10.36,10.36,0,0,0-.32,2.71l.8-.76a11.55,11.55,0,0,1-2.68.26c.3.22.67.45.67.67V95.25a7.75,7.75,0,0,1-1.72.33,5.12,5.12,0,0,1,.1,1.91c.27-.25.59-.51.85-.76a6,6,0,0,1-3.57,0c.14.2.34.41.34.61V95.82c0-1-2-.78-2,.13v0c0,1.05,2,.78,2-.13Z"/><path class="cls-2" d="M144.45,95.2v-.1c0-.82-2-.42-2,.24v2.51a.41.41,0,0,0,.41.41,4.45,4.45,0,0,0,3.26-.48c.89-.66.85-1.72.72-2.72-.08-.65-1.93-.23-1.92.37,0,.91-.21,2.35.59,3s2.53.1,3.47-.3c.19-.08.57-.28.58-.53,0-.81.27-1.6.3-2.41s-1.9-.43-1.93.23c0,.82-.26,1.6-.3,2.42l.58-.53c-.57.24-1,.58-1.2-.08a6.09,6.09,0,0,1-.16-2l-1.93.38a4.09,4.09,0,0,1,0,1.48c-.09.34-.4.19-.83.13.12.14.38.28.38.42V95.1c0-.82-2-.42-2,.24v.09c0,.83,2,.42,2-.23Z"/><path class="cls-2" d="M155.47,96.67c-1,2.19,1.92,1.84,3.27,1.83.4,0,1.37-.2,1.37-.73a7.76,7.76,0,0,1,.28-2.3,17.82,17.82,0,0,1-1.94.41v2.71c0,.21.47.22.58.21a12.68,12.68,0,0,0,3.48-.76c.15-.05.59-.25.6-.46a5.53,5.53,0,0,0,0-2.22c-.2-.57-2.11,0-1.93.52a4.94,4.94,0,0,1,0,2l.6-.45a7.27,7.27,0,0,1-1.94.44c.19.07.59.14.59.21V95.36c0-.53-1.81,0-1.95.4a9,9,0,0,0-.32,2.53l1.36-.73c-1,0-2.84.39-2.15-1.18.21-.48-1.67-.27-1.92.29Z"/><path class="cls-2" d="M171.48,96.81l.07-.12-.78.42h0L169.74,97a4.24,4.24,0,0,1-.11,1.22c0,.22.14.3.36.33a5.51,5.51,0,0,0,3.31-.31,2.54,2.54,0,0,0,1.27-2.53c0-.48-1.9-.15-1.93.4-.21,3.8,5.1,2.09,5.24-.88,0-.7-1.89-.28-1.92.28a2.25,2.25,0,0,1-.84,1.86c.08,0-.25-.2-.38-.41a2,2,0,0,1-.17-1.13l-1.93.4a3.71,3.71,0,0,1-.21,1.24c-.16.45-.88.18-1.23.13.11.12.23.23.35.34a5.18,5.18,0,0,0,.12-1.46c-.08-.36-.86-.22-1.07-.15a1.43,1.43,0,0,0-.9.56c-.43.7,1.49.44,1.78,0Z"/><path class="cls-2" d="M69.16,94.49c-.88.78.07,2.29.49,3.06A10.11,10.11,0,0,0,72.21,101c.6.44,2.34-.42,1.51-1a8.68,8.68,0,0,1-1.79-2.33A12.34,12.34,0,0,1,71,95.88a5.05,5.05,0,0,1-.22-.69c-.05-.19,0-.34-.05-.25a.46.46,0,0,0-.22-.82,1.51,1.51,0,0,0-1.36.37Z"/><path class="cls-2" d="M72.9,100.27c0,2.65-.33,5.3-.39,8,0,1.65-.34,4.61,1.06,5.84.5.44,2.31-.3,1.8-.74-1.45-1.28-1-5-.9-6.6.07-2.24.33-4.47.36-6.72,0-.78-1.92-.36-1.93.26Z"/><path class="cls-2" d="M61.49,120c.77-.76,3.84,0,4.83,0a19.13,19.13,0,0,0,3.78.13c.87-.09,1.65-1.05.3-.91-3.15.33-8.06-1.83-10.68.78-.51.5,1.39.33,1.77,0Z"/><path class="cls-2" d="M70.2,114.74a15.13,15.13,0,0,0-.92,5.55l1.94-.52a32.27,32.27,0,0,1,.6-4.71l-1.36.62c10.45.18,20.72.42,31.19.09,10.29-.32,20.6.14,30.88.51,9.77.35,19.57.2,29.34.33,7.73.1,17,2.46,24.5.2,1.13-.34.92-1.14-.21-.8-3.77,1.13-8.08.25-12,.2-5.08-.07-10.17-.48-15.26-.63-9.18-.26-18.36,0-27.55-.32-9.64-.34-19.29-.68-28.94-.44-10.46.27-20.74.09-31.19-.09-.31,0-1.31.19-1.35.62a35.86,35.86,0,0,0-.62,4.94c0,.49,1.92.11,1.94-.52a14.5,14.5,0,0,1,.9-5.31c.21-.48-1.68-.28-1.92.28Z"/><path class="cls-2" d="M109.39,113.38a17.71,17.71,0,0,1,5.09.18,29.46,29.46,0,0,0,4,.38,7.08,7.08,0,0,0,2.87-.69,4,4,0,0,0,1.57-1.62c1.29-1.84,4.71-.88,6.6-1.1,2.64-.3,2.27-2.63,5.19-2.61,2.66,0,7.82,1.35,10-1,1.87-2,3.93-.58,6.41-1.26a4.16,4.16,0,0,0,1.67-1.25c1.32-1.34,6.21,0,8.23,0a3.54,3.54,0,0,0,2.25-.67,3.91,3.91,0,0,0,1.46-2c.39-.87,2.62-.21,3.22-.26,2.28-.2,3-1.73,5.27-2.11,1-.17,1.51-1.55.19-1.33s-2.88.15-4.13.74,0,1.47-2.21,1.22a4.72,4.72,0,0,0-3.42.41,3.39,3.39,0,0,0-.76,1.15c-1.36,2.43-5.72.9-8,.71a5,5,0,0,0-3,1c-2.12,1.51-3.62.92-6,1.05a2.47,2.47,0,0,0-1.87.89c-1.36,2.71-9.61,1.32-12.59,1.53-.38,0-1,.28-1.07.75-.15,2.2-7.12,1.45-8.84,3.18-3.7,3.74-9,0-13.51,2.23a.82.82,0,0,0-.55.79l0,.52c0,.18.26.32.4.37l.27.07c.77.22,2.28-.91,1.13-1.24Z"/><path class="cls-2" d="M171.14,100.45a99,99,0,0,1,15.75,1.47c.71.12,2.29-1,1.16-1.16a102.36,102.36,0,0,0-16.2-1.54c-.81,0-2,1.22-.71,1.23Z"/><path class="cls-2" d="M161.23,103.27c7.54,0,15.07.28,22.61.3.43,0,2.21-.83,1.24-.84-7.54,0-15.07-.28-22.61-.3-.44,0-2.21.84-1.24.84Z"/><path class="cls-2" d="M148.9,105.43c11.95,1.74,24,1,36.06.92.64,0,2.09-1,.79-1-11.89,0-23.83.83-35.64-.89-.53-.08-2.27.79-1.21.94Z"/><path class="cls-2" d="M141,108.92c12.36,0,24.7.86,37.06.91.86,0,2-1.3.7-1.3-12.36,0-24.71-.86-37.07-.9-.85,0-2,1.29-.69,1.29Z"/><path class="cls-2" d="M126.87,111.05c16.81.51,33.44,2.35,50.22.89.46,0,2.13-.81.86-.7-16.62,1.44-33.17-.41-49.81-.92-.37,0-2.19.7-1.27.73Z"/><path class="cls-2" d="M114.47,114.55c10.88,0,21.75.3,32.63.3,10.66,0,21.22-.71,31.85-.9.73,0,2.06-1.13.75-1.1-10.63.19-21.19.9-31.85.9-10.88,0-21.75-.27-32.63-.3-.73,0-2.06,1.1-.75,1.1Z"/><path class="cls-2" d="M72.29,114a42.57,42.57,0,0,0,12-1.27c1.16-.33.89-1.38-.28-1A39.09,39.09,0,0,1,73,112.82c-.77,0-2,1.16-.74,1.16Z"/><path class="cls-2" d="M73.47,111.47c2.53,0,5-.57,7.54-.61.63,0,2.08-1,.78-1-2.52,0-5,.56-7.53.6-.63,0-2.08,1-.79,1Z"/><path class="cls-2" d="M74.37,110.25c1.82,0,3.62-.28,5.43-.3a1.81,1.81,0,0,0,1.28-.49c.3-.35-.25-.46-.49-.45-1.81,0-3.61.28-5.42.3a1.85,1.85,0,0,0-1.29.5c-.29.35.25.45.49.44Z"/><path class="cls-2" d="M73.46,109a20.92,20.92,0,0,0,4.72-.68c.19,0,1-.28.87-.61s-.87-.13-1.06-.08a16.59,16.59,0,0,1-3.71.52,1.94,1.94,0,0,0-1.29.48c-.32.32.27.37.47.37Z"/><path class="cls-2" d="M74.39,108.06h.9c.44,0,1-.61,1.28-1s-.22-1-.52-1h-.9c-.43,0-1,.61-1.28,1s.23,1,.52,1Z"/><path class="cls-2" d="M75,106.36A8.29,8.29,0,0,0,77.6,106c.23-.07,1-.3.85-.68s-.84-.24-1.08-.16a5.12,5.12,0,0,1-1.6.23,1.75,1.75,0,0,0-1.29.5c-.28.36.25.49.51.49Z"/><path class="cls-2" d="M74.9,104.25l3.62-.91c.28-.07.94-.34.83-.75s-.82-.3-1.1-.23l-3.61.9c-.28.07-.94.35-.84.75s.82.31,1.1.24Z"/><path class="cls-2" d="M68.07,120.57c9.86-.12,19.66-.95,29.53-.88s19.85.84,29.79,1c10.1.2,20.2-.06,30.28-.59,10.89-.58,21.55-.26,32.43-.18.72,0,2.06-1.07.76-1.08-9.7-.07-19.26-.68-29,0-10.61.7-21.24.94-31.87.83-9.95-.1-19.87-.9-29.82-1.05-10.51-.16-20.9.73-31.4.86-.71,0-2.06,1.09-.75,1.08Z"/><path class="cls-2" d="M61.19,123.45c28.7,3.39,57.4.66,86.15,1.36,13.88.33,27.73-.21,41.59-1.06,7.1-.43,14.2-1.1,21.31-1.3,7.78-.21,15.46,1.24,23.22,1,.54,0,2.11-.86.83-.82-7.12.22-14.15-1.11-21.27-1s-14.24.76-21.36,1.21c-15,.94-29.91,1.48-44.92,1.12-28.14-.69-56.2,2-84.3-1.31-.44,0-2.23.7-1.25.82Z"/><path class="cls-2" d="M72.83,129.68c-2,.92-.86,3,.83,3.55,2.75.9,5.54-.64,8.32-.12.47.08,1.26-.23,1.3-.8a2.24,2.24,0,0,1,.88-1.88c1-.84-.53-1.56-1.3-.92a3.87,3.87,0,0,0-1.54,2.94l1.31-.79a13.09,13.09,0,0,0-4.41.18c-.72.1-1.44.19-2.16.23a2.78,2.78,0,0,1-1.45-.26c-.13-.07-1.12-.85-.91-.94,1.2-.56.13-1.65-.87-1.19Z"/><path class="cls-2" d="M91.35,130a3.5,3.5,0,0,0,.23,3.59.62.62,0,0,0,.59.29c2.27,0,4.66.27,6.87-.3a5.53,5.53,0,0,0,2.85-2.33c.54-.68-1.41-.37-1.8.12-.81,1-1.2,1.74-2.62,1.74H92.92a1.3,1.3,0,0,1,.6.13c-.47-.82-1-2.24-.37-3.12.51-.73-1.44-.64-1.8-.12Z"/><path class="cls-2" d="M112.45,130.49v-.11c0-1-2-.65-2,.17v2.21c0,.38.49.55.83.59a78.11,78.11,0,0,0,8.79,0,1.3,1.3,0,0,0,1.07-.58c.31-.69.61-1.41.93-2.1.44-1-1.49-.92-1.83-.19s-.58,1.41-.9,2.11l1-.58a75.39,75.39,0,0,1-8.37,0c.21.2.46.39.46.59v-2.22c0-1-2-.65-2,.17v.11c0,1,2,.65,2-.17Z"/><path class="cls-2" d="M131,130.79c.07,0-.71,2-.82,2.29s.39.51.61.53c3.38.36,7.71,1.15,9.71-2.36.5-.89-1.46-.79-1.82-.14-1.41,2.47-4.85,1.49-7.18,1.24l.62.54c.24-.66,1.45-2.68.39-3.13-.67-.29-2.41.64-1.51,1Z"/><path class="cls-2" d="M149.13,129.46a7,7,0,0,0-.3,2.41c0,.29.14.4.4.5,3.44,1.39,9.22,1.1,11.43-2.33.54-.84-1.43-.76-1.83-.14-1.6,2.5-6.05,2.25-8.46,1.29l.4.49a7.26,7.26,0,0,1,.3-2.41c.28-.78-1.69-.54-1.94.19Z"/><path class="cls-2" d="M169.13,130.45c-1.11.5-.5,1.49-.41,2.49,0,.12.27.13.34.13,1.95.15,5.09-1.63,6.65-.36.36.3,1.66-.1,1.86-.5a6.69,6.69,0,0,1,1.73-2.32c.42-.32-1.38-.13-1.74.15a7.18,7.18,0,0,0-1.89,2.51l1.86-.5a4,4,0,0,0-3.3-.47,20.75,20.75,0,0,0-2.07.49c-.32.08-1.49.59-1.55-.12,0-.06-.22-1.32-.37-1.25,1.17-.52-.66-.46-1.11-.25Z"/><path class="cls-2" d="M187.5,130.65c-.4.48.14,1.41.21,2a.18.18,0,0,0,.17.11c3.69.92,9,.42,11.09-3.25.13-.25-1.64-.14-1.91.34a5.26,5.26,0,0,1-4.86,2.54,10.75,10.75,0,0,1-2.27-.26,3.65,3.65,0,0,1-.69-1.62c.39-.47-1.46-.2-1.74.15Z"/><path class="cls-2" d="M207.45,130.31v-.1c0-.47-2-.14-2,.52v2.21c0,.14.29.19.37.2a30.85,30.85,0,0,0,9.2-.31c.26-.05,1.09-.22,1.12-.59a3,3,0,0,1,.84-2c.49-.55-1.42-.35-1.77.05a3.29,3.29,0,0,0-1,2.23l1.11-.6a25.86,25.86,0,0,1-6.45.44c-1-.05-1.44.14-1.44-.9v-1.26c0-.47-2-.14-2,.52v.1c0,.46,2,.14,2-.52Z"/><path class="cls-2" d="M93.45,134.28v7.83c0,1,2,.63,2-.17V134.1c0-1-2-.63-2,.18Z"/><path class="cls-2" d="M77.43,134.65c-.29,1.59-.31,3.22-.6,4.82-.1.53,1.81.2,1.91-.32.29-1.59.31-3.22.6-4.82.1-.53-1.82-.19-1.91.32Z"/><path class="cls-2" d="M113.28,134.31c0,3.12-.28,6.22-.3,9.34,0,.81,1.93.4,1.93-.24,0-3.12.28-6.23.3-9.34,0-.81-1.93-.4-1.93.24Z"/><path class="cls-2" d="M101.84,134.36c-.57,2.68-.08,5.44-.6,8.14-.08.43,1.81.12,1.9-.35.52-2.69,0-5.46.6-8.13.1-.43-1.8-.13-1.9.34Z"/><path class="cls-2" d="M120.8,134.56c-.65,2.54-.32,5.24-.3,7.83,0,1,2,.77,2-.13,0-2.6-.35-5.29.3-7.84.24-1-1.74-.74-2,.14Z"/><path class="cls-2" d="M133.67,135.28a2.69,2.69,0,0,1,1,1.28c.36.7,2.24.1,1.93-.52a3.69,3.69,0,0,0-1.4-1.74,1.49,1.49,0,0,0-1.37.17c-.29.18-.56.58-.16.81Z"/><path class="cls-2" d="M136.27,135.47c-1.28.7-1.33,2.32-1.39,3.61-.08,1.67.08,3.34.1,5,0,.5,1.93.16,1.93-.52,0-1.26-.11-2.51-.12-3.77,0-.71-.2-3.43.64-3.88,1.14-.62-.61-.75-1.16-.45Z"/><path class="cls-2" d="M142.22,134c-1.8,1.13-.94,4.22-1.23,6-.17,1,1.8.77,2-.13a16.78,16.78,0,0,0,.1-2.65c0-.59-.1-1.88.47-2.24a.63.63,0,0,0,.09-1,1.26,1.26,0,0,0-1.39.1Z"/><path class="cls-2" d="M147.63,135.35c.05,2.73.56,5.41.6,8.14,0,.61,2,.23,1.94-.52,0-2.72-.56-5.41-.61-8.14,0-.6-1.94-.23-1.93.52Z"/><path class="cls-2" d="M156.67,134.45c0,3.31.28,6.62.3,9.94,0,.44,1.94.12,1.93-.52,0-3.31-.27-6.62-.29-9.94,0-.44-1.94-.12-1.94.52Z"/><path class="cls-2" d="M168.72,135.35a11.65,11.65,0,0,1,.32,7.15c-.1.37,1.78.11,1.9-.35a11.82,11.82,0,0,0-.29-7.32c-.17-.43-2.06.19-1.93.52Z"/><path class="cls-2" d="M178.38,133.71c-2.15,2-1.27,6-1.23,8.68,0,1.06,2,.79,2-.13,0-1.23-.11-2.46-.12-3.69,0-1.06-.16-3.1.69-3.9s-.56-1.66-1.3-1Z"/><path class="cls-2" d="M188.45,134.27v10.25c0,1,2,.66,2-.17V134.11c0-1-2-.67-2,.16Z"/><path class="cls-2" d="M195.57,133.46c-1.29,1-1.18,3.11-1.21,4.61,0,2.35.24,4.69.27,7.05,0,1,2,.68,2-.16,0-1.67-.17-3.33-.24-5,0-1.14-.53-4.81.51-5.66s-.55-1.44-1.28-.85Z"/><path class="cls-2" d="M207.72,134.53a.88.88,0,0,1,0-.28l-1.6.64c-.29,0,0,1.06,0,1.35,0,.66,0,1.32,0,2,0,1.56-.22,3.12-.41,4.66,0,.23,1.86.06,1.93-.51.13-1.1,1.3-8.15-.32-8.25-.39,0-1.52.15-1.59.65a.88.88,0,0,0,0,.28c0,.29,1.92,0,1.93-.52Z"/><path class="cls-2" d="M214.22,134.9c0,3.31-.28,6.62-.3,9.94,0,.89,1.93.51,1.94-.21,0-3.32.27-6.63.3-9.94,0-.89-1.94-.51-1.94.21Z"/><path class="cls-2" d="M227.31,134.08v-.16c0-.88-1.94-.5-1.94.21v.77c0,.88,1.94.49,1.94-.21v-.77c0-.88-1.94-.5-1.94.21v.16c0,.89,1.94.5,1.94-.21Z"/><path class="cls-2" d="M225.45,135.76v9.34c0,1.06,2,.81,2-.12v-9.35c0-1.06-2-.8-2,.13Z"/><path class="cls-2" d="M225.66,129.78c-.23.62-.49,2,.38,2.24a10.16,10.16,0,0,0,2.85.34,11.24,11.24,0,0,0,5.27-1.18c.29-.16.57-.58.16-.78a1.56,1.56,0,0,0-1.37.17,8.31,8.31,0,0,1-5.73.37l.38.28a2.11,2.11,0,0,1,0-1.67c.25-.67-1.69-.43-1.94.23Z"/><path class="cls-2" d="M243.44,130.53c.05.81.25,1.6.3,2.41,0,.34.63.4.86.37,2.58-.35,5.61-1.2,8.1-.11.44.19,1.75.1,1.75-.62v-2.1c0-.93-2-.57-2,.19v2.11a8.54,8.54,0,0,0,1.74-.61c-3-1.3-6.27-.53-9.38-.12l.86.37c0-.81-.24-1.6-.3-2.41s-2-.32-1.93.52Z"/><path class="cls-2" d="M265.09,129.9c-2.44-.44-2.1,1.71-2.06,3.34,0,.22.69.11.78.09,2.08-.41,4.09,0,6.18,0,.34,0,1.47-.13,1.58-.56a12.39,12.39,0,0,1,1.21-3.31c.14-.23-1.62-.14-1.9.34a12,12,0,0,0-1.21,3.31l1.58-.56c-2.41,0-4.67-.43-7.07,0l.78.09c0-.49-.36-2.23.07-2.55l-1.67.45.14,0c.45.08,2.11-.64,1.59-.74Z"/><path class="cls-2" d="M283.45,130.31v0c0-.46-2-.14-2,.52v3c0,.6,1.64-.09,1.83-.29,1.11-1.17,3.88-.15,5.34-.11.39,0,1.36-.21,1.36-.73a9.36,9.36,0,0,1,.29-2.59c.16-.56-1.76-.28-1.92.29a10.26,10.26,0,0,0-.31,2.82l1.36-.73c-2.72-.07-5.68-1.19-7.86,1.1.62-.09.91-.19,1.91-.28v-3c0-.46-2-.14-2,.52v0c0,.46,2,.14,2-.52Z"/><path class="cls-2" d="M300.09,130.4a7.26,7.26,0,0,0-.3,2.54c0,.31.67.27.83.25a76.85,76.85,0,0,1,7.89-.28c.45,0,1.16-.17,1.34-.66a6.27,6.27,0,0,0,.31-2.24c0-.56-1.93-.21-1.93.52a5.77,5.77,0,0,1-.3,2l1.34-.66a80.84,80.84,0,0,0-8.38.32l.83.25a6.42,6.42,0,0,1,.3-2.27c.23-.61-1.69-.37-1.93.25Z"/><path class="cls-2" d="M318.45,130.05v2.71c0,.47.47.64.89.6a47.2,47.2,0,0,1,8.64-.6c.41,0,1.47-.2,1.47-.76v-2.41c0-1-2-.67-2,.16v2.41c0-.25.75-.5,1.19-.75a47.93,47.93,0,0,0-9,.59c.29.2.84.4.84.6v-2.71c0-1-2-.67-2,.16Z"/><path class="cls-2" d="M338.45,130.21v0c0-1.06-2-.8-2,.12V133c0,.85,1.18.79,1.67.42a7.4,7.4,0,0,1,6.66-.7c.53.21,1.49-.07,1.54-.74s.25-1.4.31-2.11c.08-1-1.89-.81-2,.12-.06.71-.24,1.4-.3,2.11l1.53-.74a10,10,0,0,0-9.06,1.1c.54.14,1.61.28,1.61.42v-2.73c0-1.06-2-.8-2,.12v0c0,1.06,2,.81,2-.12Z"/><path class="cls-2" d="M354.45,130.66V134c0,.6.93.61,1.37.52a38.59,38.59,0,0,1,7.75-.25c.4,0,1.38-.17,1.38-.75a9.87,9.87,0,0,1,.33-2.71c.23-.87-1.72-.62-1.93.17a9.93,9.93,0,0,0-.3,2.71l1.32-.74a44.35,44.35,0,0,0-8.85.35c.38.17.93.35.93.52v-3.31c0-1-2-.63-2,.17Z"/><path class="cls-2" d="M374.82,130.41c-.46,3.35,5.95,1.63,7.72,2.41.42.18,1.62,0,1.74-.58s.51-1.15.6-1.81-1.84-.3-1.92.28-.46,1.18-.6,1.81l1.74-.57a9.36,9.36,0,0,0-3.9-.47c-1.14,0-3.7.47-3.45-1.35.09-.67-1.85-.3-1.93.28Z"/><path class="cls-2" d="M374.52,134c0,2.92.27,5.82.29,8.74,0,.89,1.95.5,1.95-.21,0-2.91-.28-5.82-.3-8.74,0-.88-1.95-.5-1.94.21Z"/><path class="cls-2" d="M362.76,134.88a35.39,35.39,0,0,0-.6,5.42c0,.95,1.94.61,1.95-.17a35.38,35.38,0,0,1,.6-5.43c.15-.9-1.82-.61-1.95.18Z"/><path class="cls-2" d="M354.33,134.15a31.28,31.28,0,0,0-.6,4.82c0,.24,1.93,0,1.93-.52a31.28,31.28,0,0,1,.6-4.82c0-.15-1.84,0-1.93.52Z"/><path class="cls-2" d="M344.69,133.85c0,2.88,0,5.75-.3,8.62-.06.66,1.87.27,1.92-.29.28-2.94.31-5.89.31-8.85,0-.48-1.93-.15-1.93.52Z"/><path class="cls-2" d="M336.91,133.53c-1.57,2.83-.69,6.18-1.57,9.2-.23.78,1.73.52,1.94-.21.84-2.88,0-6.19,1.45-8.88.48-.87-1.47-.74-1.82-.11Z"/><path class="cls-2" d="M326,131.85a51.21,51.21,0,0,1-.6,9.34c-.18,1,1.8.72,2-.15a51.09,51.09,0,0,0,.6-9.34c0-1-2-.72-2,.15Z"/><path class="cls-2" d="M317.66,133.11c-.05.55-.21,1.09-.21,1.64v3.92c0,.58,2,.22,2-.52v-3.24c0-.71.16-1.35.22-2s-2-.39-2,.25Z"/><path class="cls-2" d="M307.36,134.36c-1.26,2.47-.16,5.54-.9,8.13-.32,1.11,1.6,1.15,1.85.27.73-2.56-.31-5.75.91-8.14.51-1-1.45-1.07-1.86-.26Z"/><path class="cls-2" d="M299.19,133.24a67,67,0,0,1,.3,10.41c0,.82,1.93.41,1.93-.24a69.37,69.37,0,0,0-.3-10.69c-.1-.67-2.05-.22-1.93.52Z"/><path class="cls-2" d="M288,134.45c0,3.28,0,6.56-.3,9.83-.05.65,1.88.24,1.92-.29.28-3.35.31-6.7.31-10.06,0-.46-1.93-.13-1.93.52Z"/><path class="cls-2" d="M280.2,134.15c0,2.11-.28,4.21-.3,6.32,0,.25,1.93,0,1.93-.51,0-2.12.28-4.22.3-6.33,0-.25-1.92,0-1.93.52Z"/><path class="cls-2" d="M271.16,134.31a33.35,33.35,0,0,0-.6,7.53c0,.83,1.94.41,1.94-.24a33.35,33.35,0,0,1,.6-7.53c.17-.74-1.78-.44-1.94.24Z"/><path class="cls-2" d="M261.52,133.24c0,4.22-.28,8.44-.3,12.66,0,.25,1.93,0,1.93-.52,0-4.22.28-8.44.3-12.66,0-.25-1.92,0-1.93.52Z"/><path class="cls-2" d="M252.19,134.34q-.47,5.57-.91,11.15c0,.64,1.88.23,1.92-.3q.44-5.58.9-11.15c.06-.63-1.87-.23-1.91.3Z"/><path class="cls-2" d="M242.32,133.7c.94,1.48.5,4.09.4,5.73a18.89,18.89,0,0,1-1,6.11c-.44,1,1.51.94,1.84.19a20.47,20.47,0,0,0,1.15-6.46c.14-1.89.5-4.71-.58-6.4-.45-.71-2.3,0-1.77.83Z"/><path class="cls-2" d="M232.45,134.59v9c0,.91,2,.54,2-.2v-9c0-.91-2-.54-2,.2Z"/><path class="cls-2" d="M234.57,123.75c2.88-.83,6.19-.23,9.17-.23,3.68,0,7.34.16,11,.44a181.41,181.41,0,0,0,19.65.14c6.44-.23,12.85-.79,19.3-.65,6.79.15,13.2.86,20,.31,13.58-1.1,27,0,40.57.07,14.27.08,28.52-1.16,42.79-1.21.64,0,2.09-1,.79-1-14.28,0-28.52,1.15-42.79,1.21s-28.14-1.08-42.34.07c-6.74.55-13.38-.34-20.12-.49-7.1-.15-14.25.61-21.35.81s-14.08-.28-21.13-.61c-5-.22-11-1.1-15.8.29-1.13.33-.92,1.15.22.82Z"/><path class="cls-2" d="M399.35,120c-1.11,0-3.33.42-3.91-1.15-.13-.34-.55-.37-.86-.35-10.21.8-20.58,1.31-30.82,1.74-10.63.45-21.37-.82-32-1.1-9.5-.25-18.64-1.14-28.14-.32-4.92.42-9.87.25-14.81.39-4.72.14-10.07,1.68-14.6-.08-.69-.27-2.26.74-1.15,1.16,2.66,1,5.34.94,8.14.73,5.41-.41,10.75-.69,16.18-.69,5.74,0,11.42-1,17.16-.88,5.5.07,11,.75,16.51.92,10.81.34,21.67,1.4,32.48,1.09,5.69-.15,11.33-1,17-1.18,3.28-.13,12.06-2,13.94,1,.14.22.56.24.78.21l3.37-.29c.81,0,2-1.26.72-1.24Z"/><path class="cls-2" d="M384.45,116.37v3c0,.32,1.85,0,1.94-.52.78-4.73-1.1-4-4.81-3.8-6.12.39-12.18,1.13-18.31,1.29-11.24.3-22.52,0-33.76,0-11.59,0-23.18-.27-34.76-.88-5.07-.26-10.15-.25-15.23-.44a14.35,14.35,0,0,0-6.13,1c-1.18.47.66.4,1.1.22,3.46-1.4,9.6-.35,13.28-.29,5.11.07,10.22.5,15.32.69,9.68.36,19.36.43,29.05.46,9.34,0,18.69.15,28,.07,4.4,0,8.75-.32,13.13-.77,2.47-.25,5-.41,7.44-.57,3.23-.22,4.27.42,3.75,3.57a16.32,16.32,0,0,1,2-.52v-3c0-.29-2,0-2,.52Z"/><path class="cls-2" d="M351.74,115.55c.39-3.25-2.78-2.88-5.15-2.82-2,0-7.6.75-7.91-1.71-.16-1.32-1.82-1.54-2.82-1.54-1.62,0-3.23.41-4.84.55-3.57.29-1.34-.94-3.08-1.72-2.74-1.24-9.09,1.26-7.86-3.83.06-.25-.38-.19-.52-.18-1.9.24-3.78.52-5.69.72-1.72.18-5.39.73-5.86-1.75-.07-.39.25-.78-.31-1-2.36-1.1-5,.54-7.46.6-3.23.09-4-1-4.92-3.58a1.93,1.93,0,0,0-2-1c-1,.11-3,.85-3.81.75-2.29-.3-4.52-.68-6.83-.76-.38,0-2.2.7-1.27.73,3.24.12,6.69,1.52,9.84.42,2.62-.92,2.22,1.94,3.39,3.39.59.73,2.43.74,3.19.75a20.35,20.35,0,0,0,3.31-.09c1.95-.3,4.58-1.46,5,1,.48,2.58,8,1.19,9.36,1,1.83-.23,2.38-.67,2.36,1.24,0,.95,1.14,1.58,1.91,1.73a27,27,0,0,0,4.31.3c1.21,0,2.53.12,2.58,1.56,0,0,.37.72.66.77a17.21,17.21,0,0,0,3.79-.39c1.61-.13,4.38-1.25,5.58.89.23.4-.09,1.26.46,1.57,2.76,1.56,13.19-2,12.6,3,0,.18,1.87,0,1.93-.52Z"/><path class="cls-2" d="M274.51,101.42c4.83,0,9.64-.56,14.46-.6.39,0,2.2-.77,1.27-.76-4.83,0-9.64.56-14.47.6-.38,0-2.19.77-1.26.76Z"/><path class="cls-2" d="M275.09,105c4.08.09,8.08-.69,12.15-.74,4.37,0,8.49,2.28,12.86,2.55.83,0,2-1.17.71-1.25-3.88-.24-7.33-2.11-11.15-2.41-4.66-.36-9.2.7-13.86.6-.83,0-2,1.22-.71,1.25Z"/><path class="cls-2" d="M278.14,108.83c1.41-1,5.19-.09,6.86,0,4,.11,7.9.26,11.86.67,7.61.79,14.39-.57,21.89-1,.66,0,2.06-1.1.77-1-4.81.26-9.46,1.36-14.31,1.43s-9.56-.73-14.34-1c-3.49-.2-10.75-1.7-13.91.43-1.08.73.61.9,1.18.51Z"/><path class="cls-2" d="M279.47,106.85c5.79,1.88,13,.5,19,1,6.36.54,13.25.73,19.5-.77,1.15-.27,1-.9-.16-.63-6.37,1.53-13.53,1-20,.43-5.31-.44-11.69.87-16.81-.8-.45-.14-2.18.58-1.59.77Z"/><path class="cls-2" d="M276.8,111.76c8.18-1.38,16.51-.4,24.73.1,9.32.56,18.21-1.71,27.46-1.58.66,0,2.08-1,.78-1-9.23-.13-18.17,2.07-27.46,1.58-8.41-.45-16.84-1.48-25.21-.06-.87.15-1.64,1.18-.3,1Z"/><path class="cls-2" d="M277.45,113.54c11.18-.19,22.26,1.9,33.45,1.43,5.46-.22,10.91-.87,16.36-1.24,6.41-.43,12.79,0,19.19.11.6,0,2.1-.87.81-.89-12-.19-23.6.46-35.55,1.13-11.18.63-22.28-1.62-33.45-1.43-.59,0-2.1.92-.81.89Z"/><path class="cls-2" d="M382,100.23a77,77,0,0,0-.59,14.63c.05.79,2,.35,1.93-.52a75,75,0,0,1,.61-14.29c.12-.92-1.85-.61-1.95.18Z"/><path class="cls-2" d="M383.52,100.11a37.88,37.88,0,0,0,3.62-3.31c.14-.18.28-.51.08-.7a2.9,2.9,0,0,0-1.23-.82c-.05.4-.09.8-.14,1.2a3.83,3.83,0,0,0,2.06-3.35c0-1-1.92-.7-2,.16a2.31,2.31,0,0,1-1,2.08c-.43.25-.9,1-.13,1.19.19.13.38.26.58.38,0-.23.05-.46.08-.69a40.59,40.59,0,0,1-3.62,3.31c-.87.84,1,1.13,1.61.55Z"/><path class="cls-2" d="M278.73,93.31c8,1,16.3-.72,24.35-1,9.62-.34,19.25.3,28.86.5,8.85.19,17.71.21,26.56.22,9.24,0,19-1.67,28.1,0-.15-.33-.31-.67-.47-1a2.18,2.18,0,0,0-.42.78c-.39,1.06,1.55,1,1.85.23l.19-.43c.38-.47,0-.9-.48-1-7.58-1.38-15.22-.11-22.85,0-9.51.14-19,0-28.53-.15-8.93-.13-17.84-.61-26.76-.65-9.79,0-20.05,2.32-29.74,1.11-1-.12-2,1.25-.66,1.41Z"/><path class="cls-2" d="M278.22,95.36c-.67.32-.61.41.17.27h.94l1.79,0c.55,0,0,.72-.15,1.27a1.34,1.34,0,0,0,.49,1.4c.48.49,1.82.14,2.33,0a2.41,2.41,0,0,0,1.66-2.06c0-.23-1.82-.05-1.92.43-.39,2,1.44,2.47,3,2.14a3.12,3.12,0,0,0,1.88-1c.14-.22.85-2.36,0-2,1.29-.49.06-.7-.66-.42-.46.17-1.06.33-1.06.89s.37.66.13,1.43c-.54.43-1,.36-1.3-.21a1.4,1.4,0,0,1-.1-1.17l-1.92.43c-.74.47-.92.25-.53-.66.11-.33.22-.65.34-1s-.2-.21-.33-.21c-.8,0-6.75-.67-6.71.95,0,.31,1.94,0,1.93-.52Z"/><path class="cls-2" d="M295,96.1c-.79,1,.55,2.31,1.47,2.54a3.25,3.25,0,0,0,2-.29c.77-.32.87-1,.83-1.79l-1.93.52c.51,1.35,1,2.57,2.66,2.14s2.15-1.59,2.87-2.88c.12-.2-1.64-.11-1.9.36a10.15,10.15,0,0,1-1.31,2c.76,0,1,0,.6-.26a1.89,1.89,0,0,1-.38-.5,6.65,6.65,0,0,1-.61-1.36c-.15-.39-2,.09-1.93.52a3.37,3.37,0,0,1,0,.55c0,.88-.6.16.8.32a1.88,1.88,0,0,1-.9-.53c-.46-.41-.85-1.14-.41-1.68.21-.25-.72-.16-.76-.15a2,2,0,0,0-1.14.51Z"/><path class="cls-2" d="M308.25,96.1c-4.67,4.06,8,4.75,4.84,0-.4-.59-1.81-.21-1.86.5-.09,1.13-.06,2.17,1.07,2.69s2.81,0,3.9,0c.37,0,1.25-.31,1.25-.76V96.75c0-1-2-.69-2,.15v1.81c0-.25.56-.51.91-.77-.81,0-1.7.14-2.51.13s-.67-1-.63-1.63l-1.88.5c.6.89.17,1.18-.78,1.16-.74,0-2-.34-1-1.15s-.56-1.48-1.28-.85Z"/><path class="cls-2" d="M321.48,96.31c-.9,4.13,5.85,3.71,5.25.25-.14-.83-1.81-.29-1.94.35-.38,1.89,1.2,3,3,2.78a6.15,6.15,0,0,0,2.6-.89c.85-.52.93-1.73,1.43-2.5s-1.42-.8-1.84-.16-.54,1.87-1.5,2.17a1.27,1.27,0,0,1-1.73-1.58l-1.94.35c.09.53-.08,1-.7.91-.87-.18-.82-1.19-.68-1.86.2-.88-1.77-.61-1.94.18Z"/><path class="cls-2" d="M335,96.63c-.08.61-.25,1.19-.3,1.81,0,.34.31.47.6.48,2,0,5.34.15,5.15-2.66-.05-.67-2-.27-2,.37v2.71c0,.34.39.48.71.48a12.43,12.43,0,0,0,3.27-.36c.38-.1.86-.34.85-.79,0-.83-.29-1.92.43-2.56s-1-.83-1.56-.38c-1,.93-.81,2.18-.78,3.46l.83-.79a8.81,8.81,0,0,1-2.28.25c.2.16.53.32.53.48V96.41a8.39,8.39,0,0,1-1.86.37c.09,1.37-1.63,1-2.56,1l.63.48c0-.61.23-1.2.31-1.81.1-.83-1.84-.49-1.93.22Z"/><path class="cls-2" d="M351.45,96v0c0-.25-2,0-2,.51v2.44c0,.2.58.07.65.06,1.64-.34,4-.78,3.42-3-.09-.36-2.07.1-2.07.52v2.11c0,.06.17.09.25.09,2.15.28,5.95-.52,5.72-3.32,0-.29-1.94,0-1.91.52.07.87-.28,2-1.32,2.13s-.65-1.4-.65-2.05l-1.93.52c.32,1.16,0,1.61-1.09,1.84a4,4,0,0,0,.93.06V95.94c0-.25-2,0-2,.51v0c0,.24,2,0,2-.52Z"/><path class="cls-2" d="M361.88,96.09c-.56,3.75,5.67,2.92,5.51-.43,0-.35-1.94,0-1.94.52v2.11c0,.22.71.12.8.1a13.17,13.17,0,0,1,2.87-.27c.39,0,1.42-.11,1.59-.56a6.08,6.08,0,0,0,.31-2.2c0-.31-1.92,0-1.93.52a5.53,5.53,0,0,1-.29,2l1.58-.57a16.8,16.8,0,0,0-3.74.34,6.58,6.58,0,0,1,.81.1V95.66a14.41,14.41,0,0,0-1.95.52,2.47,2.47,0,0,1-.22,1.2,1.3,1.3,0,0,1-.39.45q.36-.08-.09-.09c-.91-.19-1.13-1.21-1-2,.07-.47-1.83-.12-1.9.34Z"/><path class="cls-2" d="M377.36,96.56a1.59,1.59,0,0,0-.12-.27c-.13-.27-.84-.05-1,0h0c-.21.06-.89.22-.9.52,0,.49.12,1,.13,1.48l.06.06a4.6,4.6,0,0,0,3.62,0c1.24-.49,1.39-1.78,1.27-3,0-.31-1.91,0-1.93.52,0,.82-.06,1.85.67,2.38.54.4,1.52.12,2.07-.07,1.27-.45,2.42-1.72,1.9-3.13-.15-.42-2.05.19-1.93.52a2,2,0,0,1-.56,2.15c-.43.41-.13-.25.46,0a.82.82,0,0,1-.43-.41,3.56,3.56,0,0,1-.25-1.91l-1.93.52a6.12,6.12,0,0,1,0,1.21,2.24,2.24,0,0,1-.18.61c-.17.43-.46.26,0,.3-1-.09-1.09-.84-1.07-1.7l-.89.52h-1a1,1,0,0,1,.11.27c.15.41,2.05-.18,1.94-.52Z"/><path class="cls-2" d="M280.71,96.76c3.41-1,6.91.88,10.38.59,4.59-.37,9.05-1,13.67-1,8.66.06,17.22,1.76,25.88,2,17.68.4,35.21-1.89,52.92-1.22.8,0,2-1.15.73-1.2-18.36-.69-36.52,1.59-54.85,1.18-9.23-.21-18.3-2.06-27.55-1.89-4,.07-8,1-12,.94-3.34,0-6.18-1.41-9.49-.47-1.16.33-.88,1.42.29,1.08Z"/><path class="cls-2" d="M319.24,96.62c2.13-.65,4.42,0,6.52.37a68.89,68.89,0,0,0,7.46.51c5.18.27,10.39.25,15.58.17,11.51-.16,22.92-1.81,34.43-1.88.62,0,2.08-1,.79-1-12.16.08-24.22,1.74-36.39,1.91-6.27.09-12.57-.07-18.82-.54-3.3-.25-6.54-1.39-9.78-.39-1.13.35-.93,1.15.21.8Z"/><path class="cls-2" d="M300.76,288.08a12.48,12.48,0,0,0,5.54-.05c.43-.11,1.34-.76.47-1a32.74,32.74,0,0,0-7.44-.93c-.31,0-2,.59-1.15,1a19.59,19.59,0,0,0,8.22,1.58c.7,0,2.08-1,.76-1.06-2.47-.1-5-.4-6.7,1.72-.3.37.25.53.52.54a28.36,28.36,0,0,0,6.57-.92c3.16-.6,6.79,0,10,0,.7,0,2.07-1.05.76-1.06-3,0-6-.18-9-.09-.91,0-6.76.7-2.92.85l.76-1.06a17.58,17.58,0,0,1-7.44-1.44l-1.15,1a30.67,30.67,0,0,1,7,.89c.16-.33.32-.65.47-1a8.87,8.87,0,0,1-4.1,0c-.59-.11-2.28.82-1.19,1Z"/><path class="cls-2" d="M313.42,288.68c9.45,1.82,18.75-.41,28.24-.58l.51-1.05c-4.75.86-9.39-.86-14.12.35-.36.09-1.39.87-.47,1,5.52.66,11.17-1.27,16.57.3.6.17,2.27-.71,1.19-1-5.48-1.59-11,.36-16.57-.3l-.47,1c4.48-1.14,9.06.58,13.6-.25.58-.1,1.77-1.07.52-1.05-9.32.17-18.53,2.41-27.81.62-.59-.11-2.28.82-1.19,1Z"/><path class="cls-2" d="M354.08,287.38c5.13.11,10.22.82,15.36.9.41,0,2.24-.78,1.24-.83-5-.24-11.49-2.88-16.13.07-.07,0-.37.29-.16.38,3.16,1.47,6.4,1.41,9.81,1.13,5.84-.48,11.66-.87,17.5-1.35.13,0,1.77-.54,1.32-.75-2.25-1.09-4.35-1-6.82-1-.24,0-1.88.66-1.2.81a38.94,38.94,0,0,0,8.43.54c3.4,0,6.61,1.09,10,1,.22,0,1.9-.55,1.2-.81-3-1.12-6.18-.69-9.35-.29-.17,0-1.64.61-1,.78,4.84,1.2,9.89.69,14.78,0,.8-.11,1.7-1,.34-.77-4.47.64-9.11,1.1-13.55,0l-1,.77c2.74-.35,5.47-.68,8.13.3l1.2-.8c-2.94.09-5.16-.76-7.93-.9-3.27-.17-6.54.12-9.78-.58l-1.2.8a15,15,0,0,1,5.84.83l1.32-.75c-4.43.36-8.91.34-13.31.85-1.88.22-3.76.46-5.64.62a18.61,18.61,0,0,1-5.16-.26l-.33-.93a25,25,0,0,1,3.24.15c1.59.13,3.16.39,4.73.62,1.32.19,5.19-.4,1.79-.53-4.19-.16-8.35-.74-12.53-.82-.44,0-2.22.81-1.24.83Z"/><path class="cls-2" d="M255.93,288.06h-.6c-1.14,0-1.46,1.64-.15,1.64,3.54,0,7.07.09,10.6.24,2.26.1,6.61-.7,8.32.89.27-.45.54-.88.81-1.32-4.52.18-9-.22-13.56-.3-.05.51-.09,1-.14,1.51a100,100,0,0,1,13.71-1.28c5-.09,9.72,1.38,14.66,1.58,1,0,2-1.43.65-1.49-4.56-.2-8.92-1.54-13.51-1.21-.91.07-1.55,1.23-.39,1.5,4.21,1,8.34,0,12.6-.12,1.14,0,1.46-1.64.15-1.64h-9.95c-1.14,0-1.45,2-.14,2h3c1.14,0,1.45-2,.15-2h-3c-1.14,0-1.45,2-.14,2h9.94c.05-1,.1-1.12.15-1.62-4.08.13-8.06.88-12.11-.05-.13.5-.26,1-.39,1.47,4.4-.32,8.62,1,13,1.18.22-.5.44-1,.65-1.5-4.52-.18-8.9-1.41-13.42-1.58a80.13,80.13,0,0,0-15.46,1.26c-1.07.17-1.49,1.49-.14,1.51,4.53.08,9,.49,13.56.3.66,0,1.44-.74.81-1.33-1.6-1.49-3.57-1.36-5.64-1.22-4.82.32-9.78,0-14.61,0-.05.5-.1.62-.15,1.62h.6c1.14,0,1.46-2,.15-2Z"/><path class="cls-2" d="M253.3,289.14a7.78,7.78,0,0,1-4.09,0l-1,1.15a83.77,83.77,0,0,0,8.68,0c.43,0,1.57-.59.88-1.08a11.18,11.18,0,0,0-3.7-1.39c-1-.26-3-.4-3.7-1.22-.48-.55-2.33.17-1.78.78.71.81,2.17,1,3.16,1.27a13.37,13.37,0,0,1,4.5,1.55l.88-1.08a79.91,79.91,0,0,1-8.19,0c-.53,0-2.07.78-1,1.15a10.77,10.77,0,0,0,5.55,0c1.2-.24.88-1.3-.29-1.07Z"/><path class="cls-2" d="M201.21,289.4c3.43-.58,6.86-.89,10.15-2.08.65-.24.79-1.26-.05-1.26h-7.83c-.79,0-2.06,1.22-.71,1.4a37.22,37.22,0,0,0,8.08.67c.53-.05,1.72-.91.68-1.19-2.33-.62-4.59-1.49-6.93-2.11-.31.41-.62,1.23-.92,1.23H213c.83,0,2-1,.7-1h-9.34c-.54,0-2.1.79-.92,1.11,2.33.62,4.59,1.43,6.93,2.05.22-.41.45-.84.68-1.25a35.06,35.06,0,0,1-7.59-.39,3.43,3.43,0,0,0-.71,1.48h7.84c0-1,0-1-.06-1.35-2.93,1.06-6.07,1-9.12,1.55-1,.17-1.54,1.36-.22,1.14Z"/><path class="cls-2" d="M195.4,51.8a9.2,9.2,0,0,0-3.17.46c-.2.07-.64.26-.61.54.11,1.17.78,2.14.9,3.31a49.4,49.4,0,0,1-.3,5.43c0,.14.28.16.35.18a2.73,2.73,0,0,0,2.71-.92c.79-1.2.33-3,1.2-4.08.44-.57-1.45-.32-1.77.08-.89,1.13-.6,2.81-1.2,4.09l.65-.55c0-.45.05-.9.08-1.35.07-.91.15-1.81.2-2.72.07-1.47-.75-2.57-.89-4l-.62.54a7.12,7.12,0,0,1,1.66-.14c.59,0,2.1-.89.81-.88Z"/><path class="cls-2" d="M196.45,52c3.37.12,3.19,6.86,4.59,9.09.81,1.31,2.48,1.9,3.86,2.34,4.17,1.34,3.68,3.42,3.28,7-.11.95,1.86.66,1.95-.16.18-1.6,1-4.08,0-5.57-1.75-2.58-5.21-2.17-7.27-4.41-2.48-2.7-.53-9.42-5.67-9.59-.89,0-2,1.29-.69,1.33Z"/><path class="cls-2" d="M195.38,64a4.5,4.5,0,0,0-1.06,3.89c.42,1.9,1.77,3.25.34,4.81-2.35,2.57-.75,7.41,0,10.25.15.58,1,.57,1.4.35,1-.52,2.05-1.2,1.9-2.5-.12-1-2.59-6.63,0-6.71a1.09,1.09,0,0,0,1.06-.8c.08-.34.16-.68.25-1,.34-1.1-1.59-1.13-1.86-.26a13.46,13.46,0,0,0-.35,1.39l1.05-.8a2.9,2.9,0,0,0-3,2.09c-.46,1.73,1.55,6.62.09,7.39l1.4.35c-.81-3.24-2.4-7.75.89-10.12.19-.14.43-.48.31-.73-.95-2.16-2.44-4.73-.75-7,.75-1-1.06-1.36-1.63-.62Z"/><path class="cls-2" d="M199.34,73.19c1.3.82,1.65,3.06,1.88,4.44,0,.23-.1,4-.64,3.68a1.57,1.57,0,0,0-1.67.45c-.47.7-.61,2.07.34,2.53a2.61,2.61,0,0,0,2.84-.57c.88-.64-1.07-.63-1.54-.29a1.94,1.94,0,0,1,.16-1.65l-1.67.44a2.69,2.69,0,0,0,3.08-.31c.46-.34.19-.79.45-1a2.08,2.08,0,0,0,.62-1.22c.51-2.18-.31-6.14-2.3-7.41-.52-.32-2.31.43-1.55.92Z"/><path class="cls-2" d="M206.84,74.57c-.86.83-.8,2.28-.79,3.38,0,1.71.29,3.4.32,5.11,0,1,2,.66,1.95-.17,0-1.23-.16-2.46-.25-3.69-.07-1-.46-3.3.38-4.1s-1-1.09-1.61-.53Z"/><path class="cls-2" d="M203.38,70.46c-.32,3.15-.59,6.29-.61,9.46,0,.48,1.83.1,1.92-.4.56-3.25-.23-7,2.34-9.53.5-.49-1.4-.32-1.78.05-2.67,2.63-1.89,6.4-2.48,9.76l1.93-.4c0-3.09.29-6.15.59-9.23.07-.65-1.86-.25-1.91.29Z"/><path class="cls-2" d="M197.56,65.86c-2.69.72-.74,3.62.46,4.85.51.53,2.35-.2,1.78-.78a9,9,0,0,1-1.17-1.56,4.81,4.81,0,0,1-.44-1,3.15,3.15,0,0,1-.09-.42c0-.36.24-.19-.25-.06.31-.08.93-.37.82-.8s-.8-.36-1.11-.28Z"/><path class="cls-2" d="M198.85,69.07v.3c0,.32,1.93,0,1.93-.52v-.3c0-.31-1.93,0-1.93.52Z"/><path class="cls-2" d="M198.85,68.77a2.36,2.36,0,0,0,.34,1.47,1.49,1.49,0,0,0,1.2.48,2.45,2.45,0,0,0,1.37-.36c.31-.2.26-.43-.12-.44-.82,0-.86-1-.86-1.67,0-.34-1.94,0-1.93.52Z"/><path class="cls-2" d="M199.64,68.65a5.27,5.27,0,0,1,2,1.43c.43.44,2.25-.27,1.8-.72a6,6,0,0,0-2.23-1.59,1.77,1.77,0,0,0-1.36.21c-.22.12-.63.51-.19.67Z"/><path class="cls-2" d="M215.12,51.59a16.59,16.59,0,0,1,.22,3.14c-.11,1-.72,2-.83,3-.15,1.34,1.16,2.3,1.51,3.49.11.35.55.44.87.41,2.26-.21,3.1-2.45,3.56-4.36s.89-5.07-.46-6.67c-.54-.64-2.38.11-1.78.83.92,1.09.67,3.08.55,4.39-.08.84-.5,4.36-1.68,4.47l.87.41a5.18,5.18,0,0,0-.68-1.47,3,3,0,0,1-.42-3.3c.64-1.75.33-3.06.2-4.87-.05-.83-2-.38-1.93.51Z"/><path class="cls-2" d="M218.21,51.68c-.45.28.49,0,.51,0a.68.68,0,0,1-.18-.2,3.65,3.65,0,0,1-.29-.71c-.21-.63-2.13-.07-1.93.52a2.05,2.05,0,0,0,.87,1.3,2.53,2.53,0,0,0,2.2-.4c.23-.14.61-.52.18-.7a1.64,1.64,0,0,0-1.36.19Z"/><path class="cls-2" d="M213.92,61.13c-.35,1.7-1.43,3-2.14,4.54s.17,3,.33,4.61c0,.46,2,.07,1.93-.52-.17-1.79-1-3-.15-4.83.65-1.42,1.62-2.53,1.94-4.11.12-.54-1.8-.22-1.91.31Z"/><path class="cls-2" d="M208.18,70.12c-.3,1.12,1,1.64,1.59,2.4.42.6,2.29-.08,1.78-.79a5,5,0,0,0-1-.94c-.3-.24-.59-.47-.48-.87.22-.79-1.74-.52-1.94.2Z"/><path class="cls-2" d="M207.47,75a22.43,22.43,0,0,0,4.69,1c.5.09,2.26-.71,1.22-.91a21.36,21.36,0,0,1-4.35-.87c-.48-.21-2.25.53-1.56.83Z"/><path class="cls-2" d="M209.09,75.86a33.93,33.93,0,0,0-.3,7.67c0,.61,1.94.24,1.93-.51a32.12,32.12,0,0,1,.31-7.4c.16-.73-1.79-.42-1.94.24Z"/><path class="cls-2" d="M213.31,76c-.05,3-.81,5.94-.6,9,0,.12.27.08.34.08h.3c.37,0,1.56-.07,1.59-.6a2.6,2.6,0,0,1,.81-1.88c.41-.46-1.44-.19-1.75.15a3.57,3.57,0,0,0-1,2.3l1.59-.65c-.23,0,.62-8,.64-8.9,0-.31-1.92,0-1.93.52Z"/><path class="cls-2" d="M228.94,21.44c-2-.56-3.34-.6-5.14.53a4.37,4.37,0,0,0-1.7,4.15c.24,3.22,3.36,4.79,6.26,4.05a5,5,0,0,0,3.67-5c0-2.9-2.37-4.2-5-4.05-.49,0-2.12.82-.84.75,3.86-.23,4.95,4.51,2.76,7.09-1.41,1.66-3.8-.27-4.51-1.73a5.32,5.32,0,0,1-.26-3.58,3.42,3.42,0,0,1,1-1.55c.64-.62,1.47-.14,2.19.06.44.12,2.13-.58,1.6-.73Z"/><path class="cls-2" d="M226.26,13.15a16.75,16.75,0,0,0-.3,5.43c0,1,1.92.63,1.95-.17.06-1.71.71-3.95-.39-5.45-.41-.55-1.54-.2-1.81.32a6.13,6.13,0,0,0-.66,2.89l1.73-.62c-1.22-.82-1.44-3-3.35-2.58-.9.18-1.64-.73-2.3-1.27a5.11,5.11,0,0,0-2.89-1.1c-.54,0-1.89.58-1.1,1.19a5.45,5.45,0,0,1,2.09,3,4.31,4.31,0,0,0,.49,1.67c1.22,1.3,3,1.09,2.92,3.29,0,.36.3.55.63.58a4.36,4.36,0,0,0,3.09-.57l-1.6-.14c.06.82.24,1.6.3,2.41s1.66.29,1.89-.17l.29-.6c.47-.95-1.48-.89-1.83-.18l-.3.61,1.88-.17c-.06-.82-.24-1.6-.3-2.41s-1.3-.34-1.59-.14A2.74,2.74,0,0,1,224,19l.63.58c.12-2.32-1-2.52-2.67-3.55-.69-.41-.77-1.74-.93-2.46-.24-1.14-1.46-2.18-2.35-2.87l-1.1,1.19c1.92.16,2.85,2,4.63,2.45.73.2,1-.35,1.6.35s.71,1.35,1.51,1.89c.45.31,1.71.07,1.72-.62a5,5,0,0,1,.55-2.54l-1.81.33c.91,1.24.27,3.37.22,4.8l1.95-.17a16.75,16.75,0,0,1,.3-5.43c.27-.84-1.7-.61-2,.17Z"/><path class="cls-2" d="M228.51,21.41a21,21,0,0,1,1.2-3.91l-1.54.7c2.87,1.27,4.81-1.48,5.34-4-.65.06-1.06.12-2.06.18v.3c0,.92,1.73.6,2,0a10,10,0,0,0,1-3.78c0-.45-.47-.63-.85-.56a4.7,4.7,0,0,0-3.77,3.45l1.55-.7-.58-.4a1.24,1.24,0,0,0-1.68.16c-.83,1.12-1.83,2-1.38,3.52.26.82,2.18.29,1.93-.52-.34-1.11.46-1.73,1-2.51l-1.68.17a3.24,3.24,0,0,0,1.22.8,1.28,1.28,0,0,0,1.55-.7,3,3,0,0,1,1.63-2l-.87-.56a9.29,9.29,0,0,1-.94,3.44h1.8v-.3c0-1-1.7-.58-1.86.18s-.78,3.3-2.33,2.61a1.23,1.23,0,0,0-1.52.7,20.34,20.34,0,0,0-1.19,3.92c-.09.94,1.89.62,2-.18Z"/><path class="cls-2" d="M226.27,21.76c0,2,.71,4.66-.52,6.42l1.85-.31a5.08,5.08,0,0,0-.73-2.88c-.58-.83-2-.46-2.7-.15-.31.13-1,.64-.26.72,2,.21,3.69-.81,5.63-.9-.11-.18-.23-.35-.34-.52-1.21.81-2.7,1-3.92,1.81-.48.32,0,.53.34.51a13.29,13.29,0,0,0,3.47-.76c.14,0,.86-.38.56-.62s-.93,0-1.26.07a7.23,7.23,0,0,1-2,.43l.35.51c1.21-.8,2.7-1,3.92-1.8.48-.32,0-.53-.35-.52-1.75.09-3.48,1.1-5.21.91l-.27.72c-.28.11,0,0,.19.28a2.48,2.48,0,0,1,.42,1,6.44,6.44,0,0,1,.18,1.69c0,.51,1.68-.05,1.85-.3,1.37-1.95.72-4.62.69-6.85,0-.41-1.94-.09-1.93.52Z"/><path class="cls-2" d="M226.45,32.14v5.12c0,1,1,.61,1-.18V32c0-.95-1-.6-1,.18Z"/><path class="cls-2" d="M265.7,50.36a1.34,1.34,0,0,1,.45-1l-1.91.44c.57,2.72,2.68,2.45,4.71,1.26l-1.69.16c-.49,1.89.36,8-2.18,8.52l.79.08a16.31,16.31,0,0,0-1.21-3.61c-.23-.47-2.08.21-1.93.52a16.31,16.31,0,0,1,1.21,3.61c0,.23.65.12.78.09,5-1.09,3.44-5.7,4.45-9.56.13-.52-1.52,0-1.69.15-.87.51-1.21-1.25-1.31-1.74s-1.74.16-1.92.43-.63.74-.61,1.23a.22.22,0,0,0,.17.11l.3.06c.44.1,2.12-.63,1.59-.74Z"/><path class="cls-2" d="M263.94,54.61c0,.32.25.58.3.9s1.76-.11,1.91-.43a3.51,3.51,0,0,0,.32-1.59c0-.31-1.93,0-1.93.51a3,3,0,0,1-.29,1.42l1.92-.43c-.05-.32-.26-.57-.3-.9s-2,0-1.93.52Z"/><path class="cls-2" d="M263.27,50.78c-1.89.8-2.51,2.24-3.21,4.07-.41,1.07-1.25,2-1.77,3.09a7.33,7.33,0,0,0-.7,3.72c.06,1,2,.68,2-.16A8.25,8.25,0,0,1,261,56.6c.89-1.51,1.43-4,3.14-4.71,1.22-.52.13-1.52-.85-1.11Z"/><path class="cls-2" d="M263.94,60.22a12.92,12.92,0,0,0-.3,3.33c.08,2.24,2.15,2.63,1.42,5.26a6.38,6.38,0,0,0,0,3.33,10.08,10.08,0,0,1-.4,6.2c-.12.35-.93,4.07-.29,2.42.44-1.14,1.15-2,1.53-3.22.87-2.68-.37-3.64-2.33-4.62-.46-.24-2.25.48-1.56.83,3.7,1.85,1.31,5.07.22,7.88-.65,1.67,2.17,1,2.77.82.2,0,.84-.25.86-.53.26-3.68,2.44-6.66,1.13-10.3-.64-1.78.36-3.63.08-5.48L265.87,64c-.7-1.22-.28-2.82,0-4.11.12-.57-1.8-.25-1.92.3Z"/><path class="cls-2" d="M256.1,71.78c.2,1.08.61,2.26.17,3.31s-1,2-1.47,3c-.82,1.89-1.32,4.05-.13,5.87.46.7,1.69.15,1.87-.5a22.09,22.09,0,0,1,2.86-6.7,6.56,6.56,0,0,0,1.36-4.75c0-1-2-.73-2,.15,0,1.3.14,2.51-.68,3.61A8.41,8.41,0,0,0,257,77.54a46.64,46.64,0,0,0-2.45,6.11l1.86-.5c-1.49-2.28.41-5.36,1.49-7.45.77-1.49.4-2.83.1-4.43-.17-.91-2.1-.41-1.93.51Z"/><path class="cls-2" d="M263.29,73.58a3.07,3.07,0,0,1-1-.3c-.4-.19-.36-.48-.44-.87-.13-.58-.46-1.66.27-2,.14-.06.69-.38.25-.46a2.6,2.6,0,0,0-1.34.26,1.81,1.81,0,0,0-1.21,2.27c.07.36.07,1,.35,1.25a3,3,0,0,0,1.51.55A2.74,2.74,0,0,0,263,74c.1,0,.7-.42.25-.45Z"/><path class="cls-2" d="M256.39,61.35a5.7,5.7,0,0,1-.25,1.92l1-.6c-5.83.61-6.8,6.31-6.17,11.22.11.91,2.05.43,1.93-.51-.44-3.4-.34-8.8,4.07-9.27.35,0,.89-.22,1-.6a7.78,7.78,0,0,0,.36-2.3c0-1-2-.75-2,.14Z"/><path class="cls-2" d="M250.68,74.19a11.41,11.41,0,0,1,.7,5.56c-.07,1.76-.54,3.57-.1,5.29.19.77,1.41.38,1.77,0,2.83-2.9.1-7.17,1.62-10.41.46-1-1.49-1-1.84-.2-1.42,3,1.12,7.5-1.39,10.07h1.77c-.41-1.61.08-3.87.15-5.57a11.11,11.11,0,0,0-.75-5.27c-.4-.83-2.31-.25-1.93.51Z"/><path class="cls-2" d="M254.62,74.91c.38,0,2.2-.75,1.27-.75-.38,0-2.19.75-1.27.75Z"/><path class="cls-2" d="M257,83.84c0,.4.28.41.64.41a2.83,2.83,0,0,0,1.36-.37c.32-.18.26-.37-.1-.37h0a1.21,1.21,0,0,1,0-.19c0-.26-1.93,0-1.93.52Z"/><path class="cls-2" d="M247.86,72.13a6.53,6.53,0,0,0,1.72-.74c.32-.27.49-.75.09-1a1.21,1.21,0,0,0-1.39.11,10.08,10.08,0,0,1-1.3.47c-.37.17-.73.64-.44,1a1.1,1.1,0,0,0,1.32.17Z"/><path class="cls-2" d="M246.12,63.85c.6,0,2.09-.92.8-.92-.6,0-2.1.92-.8.92Z"/><path class="cls-2" d="M248.13,62.54c1.5.28,3,.33,4.52.61a2.45,2.45,0,0,0,1.35-.26c.13-.06.68-.39.24-.47-1.49-.27-3-.32-4.52-.6a2.41,2.41,0,0,0-1.34.26c-.14.06-.68.38-.25.46Z"/><path class="cls-2" d="M239,54.14c.2.3.86.91.94,1.2.22.84.37,1.69.67,2.52.56,1.5,1.94,1.84,3.39,1.62a1.24,1.24,0,0,0,1.08-.71,6.44,6.44,0,0,0,.31-4.06c-.51-2.12-.09-4.24-.62-6.35-.19-.75-1.61-.23-1.87.21a6.65,6.65,0,0,0-1,2l1.86-.5c-.71-1.24-2.23-1.08-3.45-.76-.3.08-.76.3-.82.66a9.37,9.37,0,0,1-.84,2.25c-.4.94,1.54.78,1.82.12a10.65,10.65,0,0,0,1-2.57l-.82.66,1.37.44c.35.6,1.74.06,1.86-.5a5.74,5.74,0,0,1,.85-1.65l-1.88.2c.48,1.92,0,3.87.47,5.79a6.48,6.48,0,0,1-.17,4.3l1.08-.71c-1.78.27-1.95-1.72-2.24-3-.23-1-.65-1.11-1.2-1.91-.42-.61-2.28.06-1.78.79Z"/><path class="cls-2" d="M238.63,58.61c.85,0,2-1.29.7-1.29-.84,0-2,1.29-.7,1.29Z"/><path class="cls-2" d="M243.45,60.82c-.8,2.27,2.35,3.95,1.5,6-.2.49,1.69.27,1.92-.29.9-2.19-2.28-3.8-1.5-6,.18-.53-1.72-.28-1.92.29Z"/><path class="cls-2" d="M225.82,38.09a27.29,27.29,0,0,1-2.54,1.83,6.18,6.18,0,0,0-2.09,2.87.52.52,0,0,0,.18.66,3,3,0,0,0,3,.41l-1.15-.4a2.33,2.33,0,0,0,3,1.6c1.21-.27.84-1.58-.36-1.31-.36.08-.58-.6-.66-.81a.93.93,0,0,0-1.15-.4,1.07,1.07,0,0,1-1.18-.2L223,43c.8-2.2,2.82-2.85,4.4-4.35a.56.56,0,0,0-.25-.93,1.37,1.37,0,0,0-1.37.36Z"/><path class="cls-2" d="M226.23,42c.51-.5,1-1,1.51-1.51a.56.56,0,0,0-.25-.94,1.35,1.35,0,0,0-1.37.37l-1.51,1.51a.57.57,0,0,0,.26.94,1.34,1.34,0,0,0,1.36-.37Z"/><path class="cls-2" d="M227.2,38.14c.67,0,1.34,0,2,0,.2,0,2.06.65,1.37,1.13l.8-.35.11,0c-.14,0-1.82.38-1.6.63,1,1.2-.18,2.54,0,3.92l1.87-.58c-1.37-.62-3.37-.47-2.67-2.57.1-.31-1.74-.11-1.9.36-.76,2.28,1.22,2.16,2.75,2.85.31.14,1.94-.1,1.88-.58-.18-1.38,1-2.69,0-3.92l-1.6.63a4.17,4.17,0,0,0,2.4-.76.19.19,0,0,0,.1-.17c-.78-1.62-2.75-1.33-4.25-1.31a2.79,2.79,0,0,0-1.36.36c-.31.18-.27.38.09.37Z"/><path class="cls-2" d="M230.51,44.26c-.23.1,0,0,.16,0a3.9,3.9,0,0,1,.9.19,2.06,2.06,0,0,0,1.35-.23c.19-.09.65-.42.23-.55a5.28,5.28,0,0,0-3.77.24c-.18.08-.65.43-.22.54a2.19,2.19,0,0,0,1.35-.23Z"/><path class="cls-2" d="M233.57,44.14c1.38-.93,1.68-3.13,2.41-4.51l-1.8.35c4.34,6.1,2.72,13.8,2.63,20.8,0,.88,1.93.5,1.94-.21.1-7.24,1.7-15.08-2.79-21.38-.36-.51-1.56-.11-1.8.34-.53,1-.95,3.35-1.81,3.94-1.09.73.56,1.12,1.22.67Z"/><path class="cls-2" d="M232.6,44.36c.1,1.88.76,3.66,1,5.51.3,2.15-2,4-2.81,5.84l1.92-.42c-.1-.3-.2-.68-.3-1a.45.45,0,0,0-.35-.25h-.67c.4,0,.59-1.32.65-1.55.24-.91.48-1.27.07-2.08-.26-.51-2.11.19-1.94.54.54,1.07-.25,2.76-.59,3.83-.06.2.19.26.34.26.8,0,.6,0,.86.75.17.51,1.77-.05,1.92-.42.66-1.62,2.71-3.26,2.83-5,.16-2.21-.89-4.32-1-6.52,0-.39-2-.05-1.93.52Z"/><path class="cls-2" d="M225.06,46.47c.31,3.37,1.81,6.47.08,9.69-.41.76,1.51.5,1.78,0,1.87-3.49.41-6.52.07-10.19-.05-.57-2-.17-1.93.51Z"/><path class="cls-2" d="M220.23,43c.13,3.16,1.09,6.19,1.21,9.35.07,2-.6,3.89.39,5.76.4.76,2.24.05,1.77-.84-.91-1.73-.18-4.27-.25-6.17-.1-2.78-1-5.46-1.17-8.25,0-1-2-.7-2,.15Z"/><path class="cls-2" d="M225.35,57.69c-2.17.64-3.86,2.34-5.62,3.67-.26.2.08.29.24.3a2.87,2.87,0,0,0,1.19-.27,34.42,34.42,0,0,0,3.49-1.61c.31-.19.27-.38-.1-.39a2.66,2.66,0,0,0-1.37.37,31.47,31.47,0,0,1-3.13,1.41l1.42,0c.64-.47,1.25-1,1.88-1.47a8,8,0,0,1,2.15-1.48c.15,0,1-.25.89-.53s-.89-.07-1,0Z"/><path class="cls-2" d="M230.18,58.24c2.19.09,4.17,1.45,5.93,2.62.56.36,2.34-.44,1.53-1-2-1.34-4.22-2.7-6.72-2.8-.77,0-2,1.09-.74,1.15Z"/><path class="cls-2" d="M224.31,63.06H224a1.72,1.72,0,0,0-1.28.51c-.29.36.24.49.5.49h.3a1.75,1.75,0,0,0,1.28-.51c.29-.36-.24-.49-.5-.49Z"/><path class="cls-2" d="M227.17,67a1.68,1.68,0,0,0,1.47,1.38c1.41,0,2.8-.28,4.21-.3.57,0,2.11-.89.82-.87s-2.81.28-4.22.3l.5.09c-.39-.34-.77-.57-.84-1.12s-2,0-1.94.52Z"/><path class="cls-2" d="M223.84,81c4.18-.22,9,2.62,12.77-.27,1-.79-.51-1.49-1.28-.9-2.89,2.2-8-.45-11.33-.27-1.1.06-1.48,1.51-.16,1.44Z"/><path class="cls-2" d="M236.87,70.56c-1.87,4.61-.75,9.7-.36,14.48.07.81,1.77.17,1.94-.36a32.91,32.91,0,0,0,.91-6.93c.21-2.21,1.61-3.92.89-6.18-.24-.77-2.16-.23-1.93.51.64,2-.49,3.9-.91,5.87-.49,2.32-.17,4.62-.9,6.93l1.93-.36c-.36-4.52-1.52-9.48.25-13.84.38-1-1.55-.78-1.82-.12Z"/><path class="cls-2" d="M238.87,79.65c.6,0,1.38-.29,1.86-.3a1.48,1.48,0,0,0,1.27-.54c.24-.39-.19-.66-.54-.65-.8,0-1.57.27-2.36.31-.38,0-1,.27-1.09.69s.57.5.86.49Z"/><path class="cls-2" d="M240.45,79.84c-.5,1.63.16,3.25.28,4.9,0,.38,1.77-.14,1.92-.44.3-.6.51-1.2.81-1.8a18.41,18.41,0,0,1-2,.43v.91c0,.29,1.94,0,2-.52s.24-.95.33-1.43l-1.89.44c.09.51.23,1,.32,1.51s1.66-.19,1.84-.35a5.49,5.49,0,0,0,1.44-3.11,17.15,17.15,0,0,1-2.06.44v3c0,.28,2,0,2.06-.44a4.43,4.43,0,0,1,.68-1.81l-1.88.44c.33,1,.65,2,.92,3,.1.38,2-.08,1.94-.52-.06-2.94-.54-5.82-.89-8.73-.05-.41-1.76.16-1.92.43a1.37,1.37,0,0,0-.31,1c0,.22,1.84,0,1.93-.52a43.87,43.87,0,0,0,.5-5.73,14.57,14.57,0,0,1-2,.52V75.7c0,.26,2,0,2-.52V71c0-.26-1.86,0-1.87.52a42.44,42.44,0,0,1-.57,5.73l2-.52.3-.82-1.91.43c.35,2.92.84,5.8.9,8.74l1.93-.52c-.27-1-.57-2-.9-3-.14-.42-1.77.12-1.92.44a4.59,4.59,0,0,0-.72,1.81c.64-.15,1.81-.3,1.81-.44v-3c0-.29-1.71.06-1.81.44a5.21,5.21,0,0,1-1.36,2.93l1.86-.35c-.09-.51-.2-1-.29-1.51s-1.82.09-1.91.44c-.14.62-.25.92-.37,1.59a12.14,12.14,0,0,1,1.88-.52v-.9c0-.35-1.7.13-1.86.43-.3.61-.57,1.21-.88,1.81l1.94-.44c-.12-1.56-.79-3.18-.31-4.74.1-.33-1.75-.1-1.89.36Z"/><path class="cls-2" d="M216.32,74.34A54.39,54.39,0,0,0,216,81c0,.9,1.77.46,1.94-.21.87-3.56.92-7.21,1.2-10.85l-1.94.22a44.83,44.83,0,0,0,.61,8.58c.16.8,1.76.17,1.94-.36a64.92,64.92,0,0,0,1.5-7.84l-1.94.22c0,2.58-.26,5.2.61,7.68.26.76,1.75.22,1.93-.36.58-1.77.87-3.63,1.36-5.43a13.29,13.29,0,0,0-1.78.21v5.73c0,.88,2,.49,2-.21v-.6c-1,.07-1.48.14-2.13.21a19.17,19.17,0,0,0,.82,6.78c.28.74,2.15.18,1.89-.52a17.82,17.82,0,0,1-.77-6.47c0-.88-1.81-.49-1.81.21v.6c0,.88,2,.49,2-.21V72.62c0-.91-1.94-.44-2.13.21-.49,1.8-.72,3.66-1.29,5.43l1.88-.36c-.84-2.4-.64-4.89-.62-7.39,0-.88-1.81-.47-1.95.22a65.17,65.17,0,0,1-1.51,7.83l1.94-.36a43.43,43.43,0,0,1-.61-8.29c0-.87-1.88-.49-1.94.22A65.75,65.75,0,0,1,216,81l1.94-.21a54.3,54.3,0,0,1,.3-6.63c.1-.84-1.86-.5-1.94.21Z"/><path class="cls-2" d="M219.64,64.25l.9,2.71c.21.63,2.13.07,1.94-.52-.31-.9-.61-1.8-.91-2.71-.21-.62-2.13-.07-1.93.52Z"/><path class="cls-2" d="M222.05,65.46c.94,2.44,2.08,4.79,3,7.23.33.86,2.25.31,1.93-.52-.93-2.44-2.07-4.79-3-7.23-.32-.86-2.25-.31-1.93.52Z"/><path class="cls-2" d="M221.75,65.76v.6c0,.58,1.93.22,1.93-.52v-.6c0-.58-1.93-.22-1.93.52Z"/><path class="cls-2" d="M225.12,69c-.62-.69-1.18-1.42-1.81-2.11-.37-.41-2,0-1.86.63A23.16,23.16,0,0,0,226,76.42c.34.4,1.84.07,1.87-.5.15-3.73-1.9-6.94-3-10.38l-1.93.52c.71,2,2,4.91,4.12,5.62.39.13,1.91,0,1.73-.72A31.34,31.34,0,0,0,227,66.44l-1.86.64c.78,1.2,1.43,2.06,2.93,2,.39,0,1.24-.16,1.34-.66a7.78,7.78,0,0,0-.29-3.45c-.16-.66-2.1-.15-1.94.52a6.86,6.86,0,0,1,.3,3.18l1.35-.66c-1,.06-1.45-1-1.89-1.65-.31-.48-2.11.06-1.87.63a30.88,30.88,0,0,1,1.81,4.52l1.74-.72c-2-.65-3.08-3.44-3.73-5.22-.23-.65-2.13-.11-1.93.52,1.08,3.31,3.17,6.52,3,10.11l1.86-.5a22.46,22.46,0,0,1-4.45-8.62l-1.86.63c.62.69,1.18,1.42,1.8,2.11.44.49,2.29-.21,1.8-.75Z"/><path class="cls-2" d="M218.43,65.9c-.28,1.11-.55,2.22-.91,3.31-.15.45.6.55.87.52a1.2,1.2,0,0,0,1.08-.71c.35-1.09.63-2.21.91-3.32.2-.83-1.76-.56-1.95.2Z"/><path class="cls-2" d="M217.83,67.87c.34.68.58,1.42.91,2.11a.91.91,0,0,0,1.14.4c.31-.09,1-.49.79-.92-.33-.69-.57-1.42-.91-2.11a.91.91,0,0,0-1.14-.4c-.3.08-1,.48-.79.92Z"/><path class="cls-2" d="M228.68,81.12c0,1.82.28,3.62.3,5.43,0,.24,1.93,0,1.93-.52,0-1.71.36-3.41.38-5.12-.64.17-1.84.34-1.84.52v2.1c0,.24,2,0,2-.51V80.91c0-.24-2,0-2,.52,0,1.71-.34,3.41-.36,5.12l1.9-.52c0-1.81-.29-3.61-.32-5.42,0-.25-2,0-1.94.51Z"/><path class="cls-2" d="M223.41,83c-.89,1.12-.44,2.65.23,3.76.41.67,1.52.22,1.81-.3.61-1.09.38-2.32.36-3.51s-1.76-.72-2,.13.27,1.18.7,1.88,1.62.31,1.81-.31c.84-2.69-4.9-2.09-6.27-2.08-1.13,0-1.46,1.5-.15,1.49.44,0,4.66,0,4.57.33l1.81-.31c-.28-.44-.64-.56-.5-1.13l-2,.13c0,1,.28,2.17-.25,3.12l1.82-.31c-.34-.54-.85-1.66-.37-2.26.76-1-1.06-1.36-1.63-.63Z"/><path class="cls-2" d="M248,76a64.42,64.42,0,0,1,.29,7.35c0,1,2,.69,2-.15a66.36,66.36,0,0,0-.32-7.72c-.1-.86-2-.39-1.93.52Z"/><path class="cls-2" d="M246.45,76.06h4.82a1.53,1.53,0,0,0,1.27-.48c.26-.37-.22-.52-.52-.52H247.2a1.58,1.58,0,0,0-1.28.48c-.26.38.22.52.53.52Z"/></svg>