<svg id="layer1" xmlns="http://www.w3.org/2000/svg" viewBox="0 0 356.92 263.72"><defs><style>.cls-1{fill:#f4cb1e;}.cls-2{fill:#492d0c;}</style></defs><path class="cls-1" d="M291,59.74a23.53,23.53,0,0,0-6.85-2.68,10.31,10.31,0,0,0-3.76,0L280,57c-5-1-7.7,3.56-7.2,8a15.65,15.65,0,0,0,1.86,5.92,11.09,11.09,0,0,0,1.48,2.12,7.83,7.83,0,0,0,5.18,2.83,6,6,0,0,0,1.8,0,16.42,16.42,0,0,0,6.89.66,7.88,7.88,0,0,0,5.27-2.68l.44-.13h0c1.53,1.35,4.52,1.48,5.5-.71,2.68-6,2.4-17-6.86-15.29a3.11,3.11,0,0,0-2.24,1.94A7.53,7.53,0,0,0,291,59.74Z"/><path class="cls-1" d="M125.33,75.71a5.43,5.43,0,0,0,.73.6c4.45,3.17,12.07.72,14.51-4a10,10,0,0,0,9.25,5.78,3.34,3.34,0,0,0,1.88-.55,9.72,9.72,0,0,0,3.8-.95,11.52,11.52,0,0,0,1.09-.58,7,7,0,0,0,6.61,2,9.32,9.32,0,0,0,4.67-2.8A5.22,5.22,0,0,0,169.76,73c5.29,2.23,11.11,2.17,16.81,2,6.9-.23,13.89.38,20.77-.21a3.83,3.83,0,0,0,2.11-.84L210,74a10.43,10.43,0,0,0,9.36.19l.73-.14a24.72,24.72,0,0,0,11.08-.64c3.54-1.13,4.45-4,3.6-6.59a4.82,4.82,0,0,0-1-4.53,3.39,3.39,0,0,0,.54-3.38c1.23,0,2.5-.05,3.79-.13l-.32.27a3.56,3.56,0,0,0-.61,4.1c-2.11,2.22-3,5.13-.73,8.21,4,5.49,13.47,3.81,19.07,2.76,1-.2,2.38-.48,3.84-.87,3.45.06,7.37-1.38,9.07-3.67A16.11,16.11,0,0,0,270.55,65a3.82,3.82,0,0,0,.65-2.93c.46-3.25,0-6.47-2.59-7.86s-4.08-.74-5.15.77a28,28,0,0,0-6.69-1.34,10.27,10.27,0,0,0,1-.72c2.12-.25,4.24-.62,6.33-1.08a17.19,17.19,0,0,0,2.3,1c3.15,1.15,7.29.77,10.86-.74a16.34,16.34,0,0,0,3.25-1c5.55-2.35,8.78-8.19,5.37-13.73-2.93-4.76-8.45-4.6-12.51-1.94l-.35.15c-6.43-2.63-15.37-3.68-18.61,0-3.21.33-6.25,1.34-8.35,3.64-5.32-3.49-11.74-4.68-18.43-4.46-5.5.18-12,3.95-11,9.63a5.89,5.89,0,0,0-.78,1.77c.61-4.23-.95-8.48-5.56-10a4.61,4.61,0,0,0-3.47.13,5.59,5.59,0,0,0-3.72,1.47c-.1.09-.19.2-.29.3a8.08,8.08,0,0,0-4.07.23,13.2,13.2,0,0,0-12.55.24c-5.38-2.15-11.07-1.75-16.91-1.12-1,.09-2,.2-3,.34-2.39.26-4.8.5-7.22.55a3.3,3.3,0,0,0-2.51,1.14c-2.87-.31-5.73-.59-8.61-.78a3.2,3.2,0,0,0-2.08.53c-5.71-2.49-12.22-1.67-18.22-1l-.44.07a7.39,7.39,0,0,0-2.52.53,3.87,3.87,0,0,0-5.25,2c-2.41,6,4.88,16.84,10.94,15a8.54,8.54,0,0,0,1,0c4.05,1.49,8.51,1.52,11.65-.72a3.84,3.84,0,0,0,2.74-2.06,22.67,22.67,0,0,0,8,2.47c3.52,1.26,7.62,1.32,11.21,1.39h1.41a2.83,2.83,0,0,0,.84,1.28c.19.17.38.32.58.47a3.42,3.42,0,0,0-1,.47,8.23,8.23,0,0,0-2.89-1,7.81,7.81,0,0,0-8.7,1,17.42,17.42,0,0,0-13.3.71c-.13.07-.25.15-.37.23a7.35,7.35,0,0,0-2.81,1.8A7.92,7.92,0,0,0,132,59.27a6.27,6.27,0,0,0-1.4-.22,3.86,3.86,0,0,0-.93-.38c-5.78-2.91-14.52-3.64-18.19.22a5.24,5.24,0,0,0-2,1.55c-.41,0-.81,0-1.22.05a3.65,3.65,0,0,0-3.38,2.57C101.55,72.17,117.43,77.2,125.33,75.71Zm90.32-28.58a8.67,8.67,0,0,0,.23,3.1,9.38,9.38,0,0,0,3.2,5.07,28.58,28.58,0,0,1-3,.35H216a3.6,3.6,0,0,0-1.93.68c-3.86.41-7.19,1.62-8.8,4.29l-.44.31A3.72,3.72,0,0,0,202,58.16v.33h-.42c-3.76-1-7.5-1.12-11.26-1.46a3.25,3.25,0,0,0,2.56-1.66,19,19,0,0,0,7.12.48,10,10,0,0,0,9.51-1.1,8.68,8.68,0,0,0,5.37-5.09A14.06,14.06,0,0,0,215.65,47.13Z"/><path class="cls-1" d="M102.05,96.07a18.71,18.71,0,0,0,5-.07l.25,0a8.58,8.58,0,0,0,6.1,1,5.24,5.24,0,0,0,1,0c2.73-.17,4.87-2.81,6.37-6a3.39,3.39,0,0,0,1.1-2.41c0-.11,0-.23,0-.34q.18-.5.33-1a8.18,8.18,0,0,0,3.36,6.59,11.59,11.59,0,0,0,8.26,4.57,10.52,10.52,0,0,0,6-1.25l.75-.13a5.77,5.77,0,0,0,.81.34,7.28,7.28,0,0,0,6.41-1,6.51,6.51,0,0,0,3.18-3.06c.37-.51.72-1,1-1.56.76,2.92,2.72,5.35,6,5.66l.5,0a11.83,11.83,0,0,0,4.52.82,22.53,22.53,0,0,0,8.73-2,24,24,0,0,0,6,.32,3.68,3.68,0,0,0,4.39,2.65c4.25-1.24,5.5-5.53,4.4-9.27a2.91,2.91,0,0,0,0-.31l.08,0,.31.13a6,6,0,0,0,3.29,4.61,8.89,8.89,0,0,0,4.31,3.72,6.84,6.84,0,0,0,8.2-2.07l.2,0a50.47,50.47,0,0,0,9.63,1.86,3.41,3.41,0,0,0,3-1.73,29.2,29.2,0,0,0,2.21-5.95c.41,3.78,2.53,7.08,6.58,6.63a7.22,7.22,0,0,0,3.11-1c.74.09,1.49.16,2.24.21,3.8,1,7.46.13,11.36,0a3.38,3.38,0,0,0,2.45-1.14c.46-.13.92-.28,1.38-.44a3.8,3.8,0,0,0,1.64-1.08,9.22,9.22,0,0,0,4.56-3.8,8.06,8.06,0,0,0,3.28,4.62,9.21,9.21,0,0,0,7.78,1.29c6.69,1.61,20.66,2.68,23.37-5.41a5.55,5.55,0,0,0-.26-4.33,6.49,6.49,0,0,0-.08-3.28,4.71,4.71,0,0,0-3.48-5.5,10.62,10.62,0,0,0-8.1.67c-1.27.31-2.56.72-3.84,1.14a15.18,15.18,0,0,0-3.71.32c-2.34-2.4-5.87-3.82-9-1.87a8.71,8.71,0,0,0-3.35,3.93A10.12,10.12,0,0,0,252.17,83a6.71,6.71,0,0,0-.4.68,11.59,11.59,0,0,0-.55-1.51C247.14,73,230,76.61,222.83,78.5a3.58,3.58,0,0,0-2.47,3.16,7.21,7.21,0,0,0-1.42,2q.09-1.14.12-2.28c.05-2.08-2.32-4.24-4.43-3.38-2.45,1-5.89-.42-8.49-.51A8,8,0,0,0,200,80a13.94,13.94,0,0,0-3.95-.15,3.36,3.36,0,0,0-1.71.08,22.92,22.92,0,0,0-8.11,4.13,7.52,7.52,0,0,0-.5-1.08c-1.57-2.68-4.59-3.25-7.66-3a8.54,8.54,0,0,0-8.61-1,5.44,5.44,0,0,0-2.18,1.69,17.61,17.61,0,0,0-3.17.09c-2.54-1.87-5.61-1.24-7.92.79A3.61,3.61,0,0,0,153.56,83c-.14.19-.26.4-.39.6a7.67,7.67,0,0,0-4.71-4.7c-3-1.11-6-.29-9,.56a24.68,24.68,0,0,1-5.25.85c-3.16-1.27-6.58-1.64-9,0a3.06,3.06,0,0,0-2,.89,3.79,3.79,0,0,0-3.41-2.74h-1a3.31,3.31,0,0,0-.55.06,3.41,3.41,0,0,0-1.9-1.5c-5.56-1.9-11.72-1.26-17.43-.48-6.08.83-10.9,3.31-12.5,9.63-1.13,4.47,1.3,11.2,6.1,12.52C95.94,99.64,99.16,98.07,102.05,96.07Z"/><path class="cls-1" d="M202.07,104c-2.56-4.63-8.67-4.27-13.06-2.8a3.79,3.79,0,0,0-1.32.72,44.49,44.49,0,0,0-6.58.42,7.58,7.58,0,0,0-3.29-2.56c-1.84-.74-3.62.76-4.26,2.34a3.67,3.67,0,0,0-1.34.43,6.18,6.18,0,0,0-2.82,3.72,7.35,7.35,0,0,0-2.5-2.65,2.79,2.79,0,0,0-2.13-1.42,47.16,47.16,0,0,0-10.2-.84,22.07,22.07,0,0,0-8,0c-.4-.08-.8-.16-1.2-.21a7.43,7.43,0,0,0-5.92,1.78,4.6,4.6,0,0,0-1.26-.74,5.6,5.6,0,0,0-5.75.54,12,12,0,0,0-2.6-1.64,4.24,4.24,0,0,0-3.26-.1,8,8,0,0,0-3.86-1.32,6.28,6.28,0,0,0-4.72,1.49,13.94,13.94,0,0,0-2-.15,8.88,8.88,0,0,0-5,.85,3.87,3.87,0,0,0-3,2.67c-1.67,2.76-.71,6.36,1.58,8.51a5.61,5.61,0,0,0,3.32,3.89c3.62,1.62,7.89.87,11.8.16.24,0,.47-.06.71-.11l.26-.06.58-.11a6.9,6.9,0,0,0,1.88.83c3.64,1,7-1.37,9.29-4.51,1.71,2.18,4.88,3.52,7.26,4a14.07,14.07,0,0,0,8-.58,15,15,0,0,0,14.4,1.17,5.63,5.63,0,0,0,3-4v0a5.34,5.34,0,0,0,6,3.17c.36-.08.7-.18,1-.29a8.89,8.89,0,0,0,3.06,1.1,20.76,20.76,0,0,0,13.67-3.11,3.21,3.21,0,0,0,.33.12,3.64,3.64,0,0,0,3.05,1.84h.48a4,4,0,0,0,1.66-.38,3.09,3.09,0,0,0,2.22-2.74C203.21,110.57,203.61,106.74,202.07,104Z"/><path class="cls-1" d="M207.11,115.37c4.31,4.42,11.15,1.55,16.67-.21,4.55-.07,8.75-.86,10.72-4.15l.39,0a3.93,3.93,0,0,0,.71-.09,9.85,9.85,0,0,0,5.14,4.32,12.34,12.34,0,0,0,4.62,1.34,12,12,0,0,0,3.21-.19,38.9,38.9,0,0,0,12.64-3.2,13.45,13.45,0,0,0,2,.23,6.39,6.39,0,0,0,6.32-4c1.71-1.47,3.18-3.15,3.18-5.31a3.56,3.56,0,0,0-1.74-3,43.15,43.15,0,0,0-6.16-3.25,10,10,0,0,0-5-.12,12.8,12.8,0,0,0-5.46.12,3.29,3.29,0,0,0-2.27,2.25c-5.33-1.74-11.33-2.35-14.38.61a6.66,6.66,0,0,0-2.57,3.08c-2.48-6.36-14-6.9-21.31-4.3a6.06,6.06,0,0,0-5.4-.32,7.93,7.93,0,0,0-4.09,5C202.27,107.36,203.52,113.21,207.11,115.37Z"/><path class="cls-1" d="M305.77,80.93a12.87,12.87,0,0,0-6.56-2.32,9.44,9.44,0,0,0-7.71,2.81,3.55,3.55,0,0,0-3.27-.15l-.41.17c-1.78.78-2.1,3.28-1.26,4.79,2.11,3.77,4,9,8.79,10.13a12,12,0,0,0,3.74.28,10.83,10.83,0,0,0,13.91,2c5.59-3.39,7.54-17-.64-18.76a8.36,8.36,0,0,0-6.44,1.09Z"/><path class="cls-1" d="M283.89,115.46c3.77,1.49,8.06,1.57,11-.41,4.82-2,7.66-7.1,3.36-11.49a9.71,9.71,0,0,0-6.3-3,13.21,13.21,0,0,0-4.46-1.18,9.66,9.66,0,0,0-7.16,2.44,13.26,13.26,0,0,0-1.92.31,3.3,3.3,0,0,0-1,.44l-.52-.08c-2.51-.31-3.66,2.46-3.38,4.43C274.06,110.47,279.14,114.15,283.89,115.46Z"/><path class="cls-1" d="M309.46,135.88c2.9.78,5.92-.37,6.63-4.26a3.53,3.53,0,0,0-1.45-3.6c.1-5.27-4.2-10.25-9.84-7.14a5.87,5.87,0,0,0-.78.52,5.37,5.37,0,0,0-1.79,0,7.12,7.12,0,0,0-4.07-2.83,4.75,4.75,0,0,0-3.39.43,3.24,3.24,0,0,0-2.42,1c-3.67,3.82-3,10,.67,13.64a8.81,8.81,0,0,0,6.64,4.42,7.05,7.05,0,0,0,4.66-1.78A8.89,8.89,0,0,0,309.46,135.88Z"/><path class="cls-1" d="M286.69,130c2.74-3.59,3.33-9.52-.46-12.57-3.52-2.82-10.86-2.59-13.11,1.84a17,17,0,0,0-6.06-.91A31.46,31.46,0,0,0,259,118a9.87,9.87,0,0,0-6.22,3.06c-5.26-.52-10.45-1.34-15.64-1.13-5.29-1.22-10.59-1-15.19,3a3.49,3.49,0,0,0-.69,4,5,5,0,0,0,1.31,6.68,13.41,13.41,0,0,0,15.11,1.49,17.32,17.32,0,0,0,5.51-1.11,23.32,23.32,0,0,0,8.5-2.7,3.24,3.24,0,0,0,1.44-1.45,11,11,0,0,0,6.68,2.8,4.09,4.09,0,0,0,2.24,1.9,17.67,17.67,0,0,0,9.92.36,3.28,3.28,0,0,0,1.19.61C278.71,137,283.35,134.37,286.69,130Z"/><path class="cls-1" d="M198.23,121.14a11.41,11.41,0,0,0-5.85.23c-5,1.72-5.64,8.34-2.4,12,3.88,4.35,10,3,13.47-.3l.11,0a17,17,0,0,0,5.38.61c1.74,2.22,5.93,1.82,6.24-1.26a3.3,3.3,0,0,0,1.72-3.94,2.59,2.59,0,0,0,0-.48l.07,0c3.64-.41,5.1-6,.93-6.88l-.37-.06a3,3,0,0,0-1.21-1c-3.23-1.58-6.51-2.16-10-.84a3.92,3.92,0,0,0-1.66,1.23,35.1,35.1,0,0,0-3.77.92A21.43,21.43,0,0,0,198.23,121.14Z"/><path class="cls-1" d="M134.16,136.75c6.09,2,16.14-1.74,19.16-5.74l.08-.13c.08,3.36,3,6.48,6,7.52,3.75,1.31,7.34.19,10.83-1.28.55,0,1.09.06,1.64,0a3.51,3.51,0,0,0,4.33.89,29.14,29.14,0,0,1,4.67-2c1.24.46,2.82.12,4.74-1.47s1-4.56-.83-5.62a3.41,3.41,0,0,1,.05-.55,3.81,3.81,0,0,1,.78-2c2.58-2.05.25-5.84-2.48-6-3.19-.15-6-.54-9.15.13-1.2.25-2.39.54-3.58.83a22.61,22.61,0,0,0-2.33,0,11.19,11.19,0,0,0-2,.18A62.41,62.41,0,0,0,159,123a3.09,3.09,0,0,0-2.15,1.61c-.09.06-.16.13-.25.2h0a3.54,3.54,0,0,0-3.19,2.07,3.6,3.6,0,0,0-1.33-1.59,21,21,0,0,0-3.25-1.73,25.82,25.82,0,0,0-11.7-3.15,24.45,24.45,0,0,0-3.25-.43,3,3,0,0,0-1.71.44l-.71,0a3.72,3.72,0,0,0-2.93,1.72c-3.1,0-5.5,1.6-5.56,5.79C122.89,133.09,128.54,135.88,134.16,136.75Z"/><path class="cls-1" d="M93.33,132.58a16.87,16.87,0,0,0,12.4,2.63c.58-.1,1.23-.24,1.9-.42a20.31,20.31,0,0,0,4.43-.64c0,.3,0,.59-.06.89-.12,3.35,5,5,6.52,1.77s3.44-8.24,2.06-11.93a16.77,16.77,0,0,0,.35-3.35,3.56,3.56,0,0,0-3.5-3.51,22.57,22.57,0,0,0-11.13,2.12,26.66,26.66,0,0,0-3.77.24c-1.54-1.7-4-2.54-7.1-1.7C88.92,120.41,88.18,129,93.33,132.58Z"/><path class="cls-1" d="M203.56,150.06c1.5,6.58,12.36,7.52,17.73,7.38,3.53-.1,8.49-1.43,11.31-3.89,1.08-.25,2.17-.51,3.26-.73l.07,0a10.38,10.38,0,0,0,1.15,1c2.59,1.93,6.09,2.37,9.51,1.79a3.36,3.36,0,0,0,.42.22c5.4,2.27,18.81,3,22.43-3,.12-.2.22-.4.32-.59,4.23-2.34,4.35-6.52,3.91-10.93a3.56,3.56,0,0,0-3.5-3.5c-4.5.07-9,.52-13.45.8a13.61,13.61,0,0,0-9.71.29,3,3,0,0,0-.31.16,10.15,10.15,0,0,0-3,1.13,18.3,18.3,0,0,0-4.55,1,10.77,10.77,0,0,0-2,1,2.67,2.67,0,0,0-1.46-1.55,8.78,8.78,0,0,0-3.46-1,2.68,2.68,0,0,0-1.42.31,61.63,61.63,0,0,0-10.61.79l-1.37.07a25.33,25.33,0,0,0-9-.56,7.51,7.51,0,0,0-5.71,3.93c-1.06-3.37-5.61-6-7.66-1.91-.07.13-.12.28-.18.41a3.8,3.8,0,0,0-1-.14H192a1.47,1.47,0,0,0-.21,0l-2.13,0c-4.52-1.32-10.83-.79-13.71-.33-2.28.37-2.88,2.35-2.34,4.09l0,0a4.21,4.21,0,0,0-.5,0,7.83,7.83,0,0,0-1.73.42c-.68-3.51-3.1-6.56-7-6.64a3.5,3.5,0,0,0-3.18,2.08,3.76,3.76,0,0,0-.6-.1c-.36-.14-.72-.29-1.09-.4a3.3,3.3,0,0,0-2.11.08c-6.21-2-13.47-1.88-19.57-1.05a2.75,2.75,0,0,0-1.67.86,3.59,3.59,0,0,0-1.75-.5c-2.87-.1-6.37-.3-9.2.43-6.17-2.42-16.41-4.65-18.35,4.12-1.54,7,5,13.53,11.53,14a7.67,7.67,0,0,0,6.59-2.91,18.44,18.44,0,0,0,4.78-.18,6.45,6.45,0,0,0,4.55-3.65,21.4,21.4,0,0,0,3.68,1.55,14.81,14.81,0,0,0,6.59,3,39.51,39.51,0,0,0,17.55-.44,6.93,6.93,0,0,0,5.18-.47,4.68,4.68,0,0,0,.54-.3,7.61,7.61,0,0,0,1.42,0c5.24,7.9,15.93,2.86,24.32-.26a5.94,5.94,0,0,0,2.79.81h.21a3.77,3.77,0,0,0,5.52-3.49,14.87,14.87,0,0,0,1.48-3.47Z"/><path class="cls-1" d="M283.46,157.51a7.35,7.35,0,0,0,1.61-.81,13.22,13.22,0,0,0,4.5.36,3.41,3.41,0,0,0,1.43.69c6.71,1.58,14.48-2.2,13.1-10.22-.91-5.35-5.57-6.21-10.27-6.54a26.32,26.32,0,0,0-7.7-.75,3.22,3.22,0,0,0-2.06.72c-3.7-3-7.73-1.15-9.12,2.3a3.14,3.14,0,0,0-.9,3.35C275.19,150.51,277.33,159.64,283.46,157.51Z"/><path class="cls-1" d="M116.17,175.57a9.4,9.4,0,0,0,3.1-3.65c1.92-3.71,1.59-8.57-1.64-11.4-3.39-3-8.1-1.14-11.76.15a3.62,3.62,0,0,0-1.39.87c-2,.23-3.9.49-5.86.68A3.49,3.49,0,0,0,95,159.49H93.75a3.57,3.57,0,0,0-3.5,3.54c0,.9,0,1.91,0,2.95a7.67,7.67,0,0,0,.53,5.77,3.59,3.59,0,0,0,2,5.34c7.14,2.28,14,1.51,21.19,0A3,3,0,0,0,116.17,175.57Zm-2.9-7.47a2.68,2.68,0,0,1-.33.84,2.9,2.9,0,0,0-.77-1.09l-.16-.13a3.48,3.48,0,0,0,1.25-1A2.46,2.46,0,0,1,113.27,168.1Z"/><path class="cls-1" d="M128.33,176.66c3.64,3,8.59,4.6,12.13,2.31,2.94,0,5.48-.52,6.77-1.41a6.36,6.36,0,0,0,1.05-.91,3.06,3.06,0,0,0,3-2.49,19.35,19.35,0,0,0,.61-7.22c-.3-2.27-2-3.95-4.43-3.37-3,.72-6.27.17-9.37.67a19,19,0,0,0-2.27.53,12.17,12.17,0,0,0-6.33-.13,3.38,3.38,0,0,0-4.36.31,5.16,5.16,0,0,0-1.22,5.74C123.56,173.32,125.46,175.3,128.33,176.66Z"/><path class="cls-1" d="M296.35,163a3.72,3.72,0,0,0-3.27,0c-.38,0-.77,0-1.15,0-3.15.17-5.19,5-1.77,6.52l.54.22c-.16,3.14.53,6.32,3.39,8a9.22,9.22,0,0,0,6.5.91,16.68,16.68,0,0,0,7.19.52c5.3-.16,10-2.27,9.75-9.12C317.09,157.91,304.19,160.9,296.35,163Zm1.38,7.79,1-.08c.53.16,1,.34,1.55.55a3.17,3.17,0,0,0-1.7.43A1.22,1.22,0,0,1,297.73,170.74Z"/><path class="cls-1" d="M294.44,183.27c-5.62-5.07-16.73-2.32-24.13.4-2.86-4.91-13-5.11-19.7-2.65-2.09,0-4,0-5.54,0-.63,0-1.26-.09-1.89-.11l-.22,0h-.33a3.8,3.8,0,0,0-1.11.13,3.26,3.26,0,0,0-2.29-1.72c5.68-.18,11.35-1.65,13.63-6.18,1.58,3.57,4.5,6.22,8.19,4a4.44,4.44,0,0,0,1.4-1.33c6.68.37,17.45,2.82,22.44-2.68a6.79,6.79,0,0,0,2.59-8.33c-1.66-3.43-5.62-4.41-9.06-5.09a3.49,3.49,0,0,0-3,.79,28.69,28.69,0,0,0-9.1-.84,15,15,0,0,0-5.25.54,2.43,2.43,0,0,0-.66.28,20,20,0,0,0-5.49,2l-.21.14a3.23,3.23,0,0,0-2.17,1.12c-3.21-4.29-11.29-4.15-17.28-4.09a10.38,10.38,0,0,0-5.13.06,3.36,3.36,0,0,0-1.82,1.13,44.46,44.46,0,0,0-5.91.81,2.91,2.91,0,0,0-1.84,1.2,3.2,3.2,0,0,0-1.75,1.47,2.91,2.91,0,0,0-.68.46,3.44,3.44,0,0,0-4.33-3.13c-1.33.46-2.69.88-4.06,1.27a3.5,3.5,0,0,0-3.29-.79c-2,.58-4,1.36-6,2-1.47-.12-2.95-.18-4.45-.2h-.26a3.13,3.13,0,0,0-3.09,1.9,13.4,13.4,0,0,1-6.26-1.91,3.36,3.36,0,0,0-3.93.32,23.48,23.48,0,0,0-4.51-1.47,33.71,33.71,0,0,0-6.86-.78c-1.53,0-2.78,1.22-4.14,1.74a15.25,15.25,0,0,1-2.4.67A16.53,16.53,0,0,0,159,165a3.84,3.84,0,0,0-2.26,2.52,5.72,5.72,0,0,0-.54,2.12,3.47,3.47,0,0,0-.17.45c-1,3.1.28,5.33,2.64,6.81,2.21,2.81,5.6,4.49,9.12,2.63a49.83,49.83,0,0,0,9.54.25c5.79,0,10.75-1.48,10.75-7.66l.26.06c.45,3.44,4,5.54,7.27,5.82,5.08,1.51,11.16,2.24,16,1.15,4.51-1,5.65-5.28,6.07-9.44a1.29,1.29,0,0,0,.16.17c.11.11.25.2.36.3.08,3.73.76,7.78,4.5,8.81a9.62,9.62,0,0,0,6.17-.66,3.18,3.18,0,0,0,.66.19,51.65,51.65,0,0,0,8.67.74,3.37,3.37,0,0,0-1.29.59c-2.18,1.59-2.68,4.15-2.63,6.71a8.89,8.89,0,0,0-1.18-.89,3.22,3.22,0,0,0-2.19-1.82c-8.12-1.56-16.05-2.27-24.19-.56a3.52,3.52,0,0,0-3.31,1.57,3.48,3.48,0,0,0-1.39,3.82,10.91,10.91,0,0,0,.05,7.35,3.62,3.62,0,0,0,4.17,2l.06.29a3.53,3.53,0,0,0,5.85,1.54,10.49,10.49,0,0,0,1.05-1.2c5,.89,10.55,1.25,14.68-1.63a4.66,4.66,0,0,0,.93-.89,14.28,14.28,0,0,0,3.84-1.14,7.15,7.15,0,0,0,2.83-2.21c1.54,3.08,4.72,4.62,8.48,4.11a9.39,9.39,0,0,0,1-.19c4.62.9,9.11,1,13.36-.61,4,1.1,10-1.6,11.53-4.81v0l.12,0c.67-.29,1.36-.56,2.05-.82a3.18,3.18,0,0,0,.41,2.46,10.39,10.39,0,0,0,1.2,1.28,10.85,10.85,0,0,0,3.94,4.32c2.74,1.56,7.31,1.67,10.76.14a4.15,4.15,0,0,0,1.65,1.19c3.37,1.27,5.46.06,6.61-2.17a9.21,9.21,0,0,0,4.12-3.31c1.67-2.39.21-6.77-1.25-8.87A5.32,5.32,0,0,0,294.44,183.27Z"/><path class="cls-1" d="M130,201.38a3.19,3.19,0,0,0,3.26-2.55,3.35,3.35,0,0,0,1.72-1.17,2.71,2.71,0,0,0,2.31,1.66c6.79,1,13.41,3.07,20.33,2.75,4.15-.2,9.81-2.34,12-6.31a5.29,5.29,0,0,0,4.79,3,14.4,14.4,0,0,0,4.35-.83c6.79-.39,17,2.19,21.4-4.48,2.41-3.69-.51-9.09-4.09-10.62-3.74-1.6-7.11,0-10.54,1.34-5.74-2.24-13.56-2.4-16.17,3.16-4.77-8-22.27-6.93-28.6-2.18a3.92,3.92,0,0,0-1,1.12,3.76,3.76,0,0,0-.82,1,3,3,0,0,0-1.85,1.56,11.87,11.87,0,0,0-6.28-3.34,22.49,22.49,0,0,0-8.59-3.12c-5.09-.7-12.77-.31-16,4.45-2.81,4.21-.49,9,4,10.74a29,29,0,0,0,9.41,1.68C122.64,201,126.32,201.37,130,201.38Z"/><path class="cls-1" d="M142.6,203.21c-2.59.95-5.19,1.8-7.76,2.8l-.24.1a18.41,18.41,0,0,0-10-1.8c-4,.53-8.3,4.38-7,8.81,1.26,4.26,5.26,6.67,9.35,7.76a16.59,16.59,0,0,0,8.25-.17,4.08,4.08,0,0,0,1-.12c2.07-.55,4.44-.2,6.39-1.19a11.71,11.71,0,0,0,4.73-4.37c2-3.14,1.22-7.35-.81-10.22A3.54,3.54,0,0,0,142.6,203.21Z"/><path class="cls-1" d="M170.54,205.2c-5.9-.58-12.72-1.52-17.53,1.37-.22.09-.45.17-.66.28a3.48,3.48,0,0,0-1.53,4.19,3.07,3.07,0,0,0,.59,1.05,3.6,3.6,0,0,0,.81.8c.17.14.32.29.5.42-1.46,1.57-1.55,4.37.65,5.48,7.28,3.65,19.25,4.79,26.45.51,4-2.38,4.87-7.12,3-11.12C180.7,203.59,175,203.67,170.54,205.2Zm6.29,7.42a1.83,1.83,0,0,1-.28.44,3.12,3.12,0,0,0-.11-.86,3.88,3.88,0,0,0,.53-.31A1.27,1.27,0,0,1,176.83,212.62Z"/><path class="cls-1" d="M211.67,204.77c-3.45-2.41-10-1.26-14-1.21a3.2,3.2,0,0,0-3.33,2.75,29.39,29.39,0,0,0-3-.29c-1.42-1.69-4.42-2.21-5.88.24-2.59,4.34-2.2,11.32,2.54,14.18,5.33,3.21,11-.15,16.39-1.3a3.88,3.88,0,0,0,.75-.25,3.76,3.76,0,0,0,6.19.09,8.36,8.36,0,0,0,1.32-3.45C214.16,211.73,215.72,207.61,211.67,204.77Z"/><path class="cls-1" d="M281,206.92c-.77-2.79-3.58-3.76-6.45-4.11a4.05,4.05,0,0,0-1-.57c-2.57-1-6.47-1.17-8.94.41a22.78,22.78,0,0,0-11.78,1,3.78,3.78,0,0,0-.5.22,5.66,5.66,0,0,0-3.33,1.46,4.19,4.19,0,0,0-1.19,3.61,4,4,0,0,0-3.38-3l-.33,0a10.24,10.24,0,0,0-2.87-1.41,3,3,0,0,0-.76-.5c-3.22-1.45-5.95-1.52-9.46-1.44a3.29,3.29,0,0,0-2.48,1.17c-1.42.07-2.83.15-4.25.28l-.1,0-.2,0v0a3.52,3.52,0,0,0-2.61,1.69c-2.34.59-4.41,2.57-5.3,6.63a3.88,3.88,0,0,0,1,3.42,3.61,3.61,0,0,0,2.45,4.27,28.4,28.4,0,0,0,16.36,0,3.08,3.08,0,0,0,.67-.29c1.55,0,3.11,0,4.69-.07a3.5,3.5,0,0,0,3.18-4.79,7.42,7.42,0,0,0,1.39-2.17,2.71,2.71,0,0,0,2.17-3.2,5.51,5.51,0,0,0,1.23,2.26c-.08,2.17.1,4.33,1.76,6a5.59,5.59,0,0,0,7.21.26,9,9,0,0,0,1.07-1c6.09,2,15,1.1,20-2.68a3.75,3.75,0,0,0,1.48-4.29A4.25,4.25,0,0,0,281,206.92Z"/><path class="cls-2" d="M143.29,56.93c-2.65,1.81-5.23.41-6.15,4.45s-1.28,9.29,0,13.37c1.21,3.81,6.74,2.73,9.58,2.61,6.87-.31,14.52,1.75,21.29,0,6.52-1.74,6.22-10.1,4-15.11-1.4-3.22-3.76-4.34-7-5a36.29,36.29,0,0,0-9-.22c-1.78.1-3.56.27-5.34.4-1.19.09-2.38.16-3.57.2q-3.25,1.47-2.35-.16c.41-1-1.53-.93-1.84-.19l-.36.88c-.17.42.15.75.58.76a97,97,0,0,0,10.91-.43c4.43-.34,11.26-1.36,14.67,2.22,4,4.2,4.39,14.54-2.58,15.62-4.58.71-9.39,0-14-.27-3.43-.19-12,1.82-13.4-2.55-1-3.2-.47-7.27-.07-10.55.48-4,3.42-3.57,5.78-5.18C145.64,57,144,56.42,143.29,56.93Z"/><path class="cls-2" d="M177.28,57.6c-2.43,0-5.59-.36-6.56,2.47-1.68,4.9-.33,10.37-.21,15.4a.47.47,0,0,0,.4.48,37.2,37.2,0,0,0,11.34.46c2.22-.22,4.41-.65,6.64-.83,2.8-.22,5.48.68,8.26.67,4.58,0,5.94-5.71,6.48-9.24.66-4.27.32-9.58-4.59-10.65-2.75-.59-5.89.14-8.61.53A78,78,0,0,1,174.74,58c-.15.41-.31.81-.47,1.22l2.54-.44c1-.17,1.55-1.44.23-1.21l-2.54.44c-.67.12-1.74,1.14-.47,1.22,7,.42,14-1.09,20.91-1.77,9-.88,7.81,10,5,15.58-1.76,3.48-6.16,1.16-9.12,1.24-5.18.15-10.14,1.36-15.35,1C171,75.08,172.16,71,172,67.52a30.4,30.4,0,0,1,.2-5.8c.37-2.79,2.12-2.88,4.41-2.89C177.37,58.82,178.59,57.6,177.28,57.6Z"/><path class="cls-2" d="M203.15,57.88c-1.36,3.47-3.49,16.9,1.61,18.46,3.71,1.14,7.82.36,11.55-.29,4.33-.75,8.51,0,12.86-.36a8,8,0,0,0,6.77-4.78c1.39-3,2.17-8.94.06-11.87-2-2.73-5.1-3.31-8.28-3.57-7.76-.62-15.8.78-23.48,1.71-.46.06-1.1.31-1.08.85a3.78,3.78,0,0,0,.36,2.2c.25.75,2.06.26,1.93-.51l-.36-2.2c-.12-.75-2.06-.28-1.93.51l.36,2.2,1.93-.51a3.88,3.88,0,0,1-.36-2.2l-1.08.85c5.12-.62,10.24-1.23,15.39-1.58,4.18-.28,9.51-.84,13.31,1.44s2.41,8.14,1.72,11.56c-1.16,5.81-7.41,4.82-11.8,4.55C217.56,74,209.31,78,205,74.63c-2-1.6-1.14-7-1.06-9.17.1-2.53.18-5.41,1.11-7.79C205.37,57,203.42,57.19,203.15,57.88Z"/><path class="cls-2" d="M237.48,56.49h-.72c-.42,0-1.28.06-1.33.61-.32,3.4,0,6.75-.17,10.16-.11,1.75-.41,4.34.61,5.89,2,3,6.18,2.67,9.32,2.47,4.8-.29,9.32-1,14.16-.92,3.66.07,7.37-.23,10.35-2.55,3.3-2.57,3.71-8.07,3.26-11.86-.43-3.6-3.45-5.47-6.72-6.08-4.79-.88-9.94.59-14.79.31-5.35-.31-10.51-.35-15,2.9a8.32,8.32,0,0,1,1.52.26V56.8c0-.91-2-.54-2,.2v.88c0,.76,1.29.54,1.69.25,4.75-3.44,10.49-2.47,16-2.23,3.32.14,6.56-.66,9.87-.64,10.71.06,9.82,16.53.44,18-5.29.85-10.91.19-16.29.87-3.74.48-9.54,1.32-10.43-3.5-.36-1.94,0-4.22.13-6.18.14-2.57-.21-5.12,0-7.69-.44.23-.89.7-1.33.7h.73C237.58,57.49,238.79,56.49,237.48,56.49Z"/><path class="cls-2" d="M273.6,57c-2,1.53-1,6.48-.86,8.57.15,3.06-.7,7,1.55,9.46,1.73,1.9,6.07,1.18,8.24,1.26,4.27.16,8.61,1.82,12.92,1.06,7.73-1.36,10.4-8.84,7-15.65-1.24-2.45-4-4.82-6.86-4.73-6.35.2-14.16,2.06-20.29-.42-.44-.17-2.18.52-1.58.77,7.13,2.88,14.47-.49,21.63.58,3.48.52,5.5,4.42,6.39,7.41,1.89,6.29-2.3,11.68-9.2,11.29-3.29-.19-6.5-1-9.79-1.16-2.49-.09-5.74.5-7.27-2-1.3-2.1-.69-5.38-.75-7.68-.05-2-1.16-7.51.65-8.93C275.78,56.49,274,56.67,273.6,57Z"/><path class="cls-2" d="M119.16,57.49h-.72c-.37,0-2.26.87-1.25,1,3.74.34,7.49.21,11.24.52,3.4.28,6.69-.32,7.22,3.88A25.4,25.4,0,0,1,135,72c-1.42,5.39-9.39,4.27-13.39,3.58-4.74-.82-11.06.42-13.89-4.37-1.55-2.62-1.17-6.7-.1-9.37C109.17,58,115,59,118.27,59.05c.23,0,1.9-.29,1.54-.73l-.36-.44c-.31-.37-2.13.3-1.82.67L118,59l1.53-.73c-5.54-.07-12.68-.91-14.44,5.83-3.16,12.07,9.08,11.4,16.82,12.56,5.7.85,14.45.43,15.4-6.84.38-3,1.84-10.47-2.56-11.38-2.25-.47-4.47-.13-6.75-.31-1.61-.14-3.25-.08-4.86-.09-1,0-2.09,0-3.14-.07-2.59.47-3.28.52-2.08.49C118.32,58.45,120.12,57.49,119.16,57.49Z"/><path class="cls-2" d="M143.8,99.12c-2.65,1.81-5.23.41-6.14,4.45s-1.29,9.29,0,13.37c1.21,3.81,6.74,2.73,9.57,2.61,6.87-.3,14.53,1.76,21.3,0,6.51-1.74,6.21-10.1,4-15.11-1.4-3.22-3.76-4.34-7-5a36.38,36.38,0,0,0-9-.22c-1.78.1-3.56.27-5.34.41-1.19.09-2.38.15-3.57.19-2.17,1-2.95.93-2.35-.16.42-1-1.53-.93-1.83-.18l-.37.87c-.17.42.15.75.58.76a99.39,99.39,0,0,0,10.91-.42c4.43-.35,11.26-1.37,14.67,2.21,4,4.2,4.39,14.54-2.58,15.62-4.58.71-9.38,0-14-.27-3.43-.19-12,1.82-13.39-2.55-1-3.2-.48-7.27-.08-10.55.48-4,3.43-3.57,5.79-5.18C146.15,99.19,144.55,98.61,143.8,99.12Z"/><path class="cls-2" d="M177.79,99.79c-2.43,0-5.59-.36-6.56,2.47-1.68,4.9-.33,10.37-.21,15.4a.47.47,0,0,0,.4.48,37.2,37.2,0,0,0,11.34.46c2.22-.22,4.41-.65,6.64-.83,2.8-.22,5.48.68,8.27.67,4.57,0,5.93-5.71,6.47-9.24.66-4.27.33-9.58-4.59-10.64-2.75-.6-5.89.13-8.61.52-5.12.74-10.53,1.47-15.68,1.15l-.48,1.22,2.54-.44c1-.17,1.55-1.44.23-1.21l-2.54.44c-.67.12-1.73,1.14-.47,1.22,7,.42,14-1.09,20.91-1.77,9-.88,7.81,10,5,15.58-1.76,3.48-6.16,1.16-9.12,1.24-5.17.15-10.14,1.36-15.35,1-4.47-.27-3.31-4.39-3.51-7.84a29.6,29.6,0,0,1,.19-5.8c.37-2.79,2.13-2.88,4.42-2.89C177.88,101,179.1,99.79,177.79,99.79Z"/><path class="cls-2" d="M203.66,100.07c-1.36,3.47-3.48,16.9,1.62,18.46,3.7,1.14,7.81.36,11.54-.29,4.33-.75,8.52,0,12.86-.36a8,8,0,0,0,6.77-4.78c1.39-3,2.17-8.94.06-11.87-2-2.73-5.1-3.31-8.28-3.57-7.76-.62-15.8.78-23.48,1.71-.46.06-1.1.31-1.08.85a3.86,3.86,0,0,0,.36,2.2c.26.75,2.06.26,1.93-.51l-.36-2.2c-.12-.75-2.06-.28-1.93.51l.36,2.2,1.93-.51a4,4,0,0,1-.36-2.2l-1.08.85c5.12-.62,10.24-1.23,15.39-1.58,4.18-.28,9.52-.84,13.31,1.44s2.41,8.14,1.72,11.56c-1.16,5.81-7.41,4.82-11.8,4.55-5.07-.31-13.32,3.69-17.59.29-2-1.6-1.13-7-1.05-9.17a24.35,24.35,0,0,1,1.1-7.79C205.89,99.15,203.94,99.38,203.66,100.07Z"/><path class="cls-2" d="M238,98.49h-.72c-.41,0-1.28.16-1.33.71-.32,3.4,0,6.79-.17,10.21-.1,1.74-.41,4.36.61,5.91,2,3,6.18,2.68,9.32,2.48,4.8-.29,9.33-1,14.16-.92,3.66.08,7.37-.23,10.35-2.54,3.3-2.57,3.71-8.07,3.26-11.86-.42-3.61-3.45-5.47-6.72-6.08-4.79-.88-9.93.59-14.79.31-5.35-.31-10.26-.35-14.76,2.9a13.34,13.34,0,0,0,1.76.25V99c0-.91-2-.54-2,.2v.88c0,.76,1,.54,1.44.25,4.76-3.43,10.38-2.47,15.85-2.23,3.32.15,6.5-.66,9.82-.64,10.71.06,9.78,16.53.4,18-5.29.85-10.92.2-16.31.87-3.74.48-9.54,1.32-10.43-3.5-.36-1.94,0-4.22.13-6.18.14-2.57-.22-5.22,0-7.79a3.24,3.24,0,0,1-1.33.61h.73C238.09,99.49,239.3,98.49,238,98.49Z"/><path class="cls-2" d="M274.11,99.15c-2,1.53-1,6.48-.86,8.57.15,3.06-.7,7,1.56,9.46,1.73,1.9,6.06,1.18,8.23,1.26,4.28.16,8.61,1.82,12.92,1.06,7.73-1.36,10.4-8.84,7-15.65-1.23-2.45-4-4.82-6.85-4.73-6.35.2-14.17,2.07-20.3-.42-.43-.17-2.18.52-1.58.77,7.13,2.89,14.47-.48,21.63.58,3.48.52,5.5,4.42,6.39,7.41,1.89,6.29-2.3,11.68-9.2,11.29-3.29-.19-6.49-1-9.79-1.16-2.49-.09-5.74.5-7.27-2-1.3-2.1-.69-5.38-.74-7.68-.05-2-1.17-7.51.65-8.93C276.3,98.68,274.48,98.86,274.11,99.15Z"/><path class="cls-2" d="M119.67,100.49H119c-.37,0-2.26.47-1.25.56,3.74.33,7.5,0,11.24.32,3.4.28,6.69-.43,7.22,3.77a24.91,24.91,0,0,1-.66,9.1c-1.41,5.39-9.39,4.25-13.39,3.55-4.74-.82-11.06.41-13.89-4.38-1.55-2.62-1.17-6.71-.1-9.37,1.56-3.85,7.34-2.83,10.67-2.79.23,0,1.89-.29,1.53-.73l-.36-.45c-.31-.37-2.13.3-1.82.67l.36.44,1.54-.73c-5.54-.07-12.69-.91-14.45,5.83-3.16,12.07,9.08,11.4,16.83,12.56,5.69.85,14.45.43,15.39-6.84.38-3,1.85-10.47-2.56-11.38-2.24-.47-4.47-.13-6.75-.31-1.61-.14-3.25-.08-4.86-.09-1,0-2.09,0-3.14-.07-2.58.47-3.28.93-2.08.9C118.83,101.05,120.63,100.49,119.67,100.49Z"/><path class="cls-2" d="M144.31,139.45c-2.65,1.81-5.23.41-6.14,4.45s-1.29,9.29,0,13.37c1.21,3.81,6.74,2.73,9.57,2.61,6.9-.31,14.51,1.76,21.3,0,6.51-1.74,6.21-10.1,4-15.11-1.4-3.22-3.76-4.34-7-5a35.82,35.82,0,0,0-9-.22c-1.79.09-3.57.27-5.35.4-1.19.09-2.37.16-3.56.2q-3.25,1.47-2.36-.16c.42-1-1.53-.93-1.83-.19l-.36.88c-.18.42.15.75.57.76a97.16,97.16,0,0,0,10.92-.43c4.43-.34,11.25-1.36,14.66,2.22,4,4.2,4.39,14.54-2.58,15.62-4.58.71-9.38,0-14-.27-3.43-.19-12,1.78-13.39-2.55-1-3.2-.47-7.27-.08-10.55.48-4,3.43-3.57,5.79-5.18C146.66,139.52,145.06,138.94,144.31,139.45Z"/><path class="cls-2" d="M178.31,140.12c-2.44,0-5.6-.36-6.57,2.47-1.67,4.89-.33,10.37-.2,15.4a.44.44,0,0,0,.39.47,36.89,36.89,0,0,0,11.34.47c2.22-.22,4.41-.65,6.64-.83,2.8-.22,5.48.68,8.27.67,4.57,0,5.93-5.71,6.47-9.24.67-4.27.33-9.58-4.59-10.64-2.75-.6-5.89.13-8.61.52-5.12.74-10.53,1.47-15.68,1.15-.16.41-.32.81-.47,1.22l2.53-.44c1-.17,1.55-1.44.23-1.21l-2.54.44c-.67.12-1.73,1.14-.47,1.22,7,.42,14-1.09,20.92-1.77,9-.88,7.8,10,5,15.58-1.77,3.48-6.17,1.16-9.13,1.24-5.17.15-10.14,1.36-15.35,1-4.47-.28-3.31-4.39-3.51-7.84a29.6,29.6,0,0,1,.19-5.8c.37-2.79,2.13-2.89,4.42-2.89C178.39,141.34,179.61,140.12,178.31,140.12Z"/><path class="cls-2" d="M204.18,140.4c-1.37,3.47-3.49,16.89,1.61,18.46,3.7,1.14,7.81.36,11.54-.29,4.33-.75,8.52,0,12.86-.36a8,8,0,0,0,6.77-4.78c1.39-3,2.17-8.94.06-11.87-2-2.73-5.1-3.31-8.28-3.57-7.75-.62-15.8.78-23.48,1.71-.46.06-1.1.31-1.08.85a3.94,3.94,0,0,0,.36,2.2c.26.75,2.06.26,1.93-.52l-.36-2.19c-.12-.75-2.06-.28-1.93.51l.36,2.2,1.93-.52a3.92,3.92,0,0,1-.36-2.19l-1.08.85c5.12-.62,10.24-1.23,15.39-1.58,4.18-.28,9.52-.84,13.31,1.43s2.41,8.15,1.73,11.57c-1.17,5.81-7.42,4.82-11.81,4.55-5.07-.32-13.32,3.69-17.59.28-2-1.59-1.13-7-1.05-9.17.09-2.52.17-5.4,1.11-7.78C206.4,139.48,204.45,139.71,204.18,140.4Z"/><path class="cls-2" d="M238.51,138.49h-.73c-.41,0-1.28.32-1.33.87-.32,3.4,0,6.88-.17,10.29-.1,1.75-.41,4.41.61,6,2,3,6.18,2.69,9.32,2.5,4.8-.3,9.33-1,14.16-.91,3.66.08,7.38-.22,10.35-2.54,3.3-2.57,3.71-8.07,3.26-11.85-.42-3.61-3.45-5.48-6.71-6.08-4.8-.88-9.94.59-14.8.31-5.35-.31-10.51-.36-15,2.9a8.45,8.45,0,0,1,1.51.25v-.88c0-.9-2-.53-2,.2v.88c0,.77,1.3.55,1.7.26,4.75-3.44,10.5-2.47,16-2.23,3.33.14,6.57-.66,9.88-.64,10.71.06,9.82,16.53.44,18-5.29.85-10.91.19-16.29.87-3.74.48-9.54,1.32-10.43-3.5-.36-1.94,0-4.22.13-6.19.14-2.56-.21-4.87,0-7.45-.44.24-.88,0-1.33,1h.73C238.6,140.49,239.81,138.49,238.51,138.49Z"/><path class="cls-2" d="M274.62,139.48c-2,1.53-1,6.47-.86,8.57.15,3.06-.7,7,1.56,9.46,1.73,1.9,6.06,1.18,8.23,1.26,4.28.16,8.61,1.82,12.92,1.06,7.73-1.36,10.4-8.84,7-15.65-1.23-2.45-4-4.82-6.85-4.73-6.35.2-14.17,2.07-20.3-.42-.43-.17-2.18.52-1.58.77,7.13,2.89,14.47-.49,21.63.58,3.48.52,5.5,4.42,6.39,7.4,1.89,6.3-2.3,11.68-9.2,11.3-3.29-.19-6.49-1-9.79-1.16-2.49-.09-5.74.5-7.26-2-1.31-2.1-.7-5.38-.75-7.68-.05-2-1.17-7.51.65-8.93C276.81,139,275,139.19,274.62,139.48Z"/><path class="cls-2" d="M120.18,140.49h-.72c-.37,0-2.26.63-1.25.72,3.74.34,7.5.09,11.24.4,3.4.28,6.7-.38,7.22,3.82a25,25,0,0,1-.66,9.12c-1.42,5.39-9.39,4.26-13.39,3.56-4.73-.82-11.06.41-13.89-4.38-1.55-2.62-1.17-6.7-.09-9.37,1.55-3.84,7.33-2.83,10.66-2.79.23,0,1.9-.28,1.53-.73l-.36-.44c-.31-.37-2.12.3-1.82.67l.36.44,1.54-.73c-5.54-.07-12.68-.91-14.45,5.82-3.16,12.07,9.08,11.41,16.83,12.57,5.7.85,14.45.43,15.39-6.84.39-3,1.85-10.48-2.56-11.38-2.24-.47-4.47-.13-6.75-.31-1.61-.14-3.25-.08-4.86-.09-1.05,0-2.09,0-3.14-.08-2.58.48-3.28.77-2.08.74C119.35,141.21,121.14,140.49,120.18,140.49Z"/><path class="cls-2" d="M141.76,181.64c-2.65,1.81-5.23.41-6.15,4.45s-1.28,9.29,0,13.37c1.21,3.81,6.74,2.73,9.57,2.61,6.87-.3,14.53,1.76,21.3,0,6.51-1.74,6.22-10.1,4-15.11-1.4-3.22-3.76-4.34-7-5a36.3,36.3,0,0,0-9-.22c-1.78.1-3.57.27-5.35.4-1.18.09-2.37.16-3.56.2-2.17,1-3,.93-2.35-.16.41-1-1.53-.93-1.84-.19l-.36.88a.55.55,0,0,0,.57.76,97.16,97.16,0,0,0,10.92-.43c4.43-.34,11.26-1.36,14.67,2.22,4,4.2,4.38,14.54-2.59,15.62-4.58.71-9.38,0-14-.27-3.42-.19-12,1.82-13.39-2.55-1-3.2-.47-7.27-.08-10.55.48-4,3.43-3.57,5.79-5.18C144.1,181.71,142.5,181.13,141.76,181.64Z"/><path class="cls-2" d="M175.75,182.31c-2.44,0-5.6-.36-6.56,2.47-1.68,4.89-.33,10.37-.21,15.4a.44.44,0,0,0,.39.47,36.94,36.94,0,0,0,11.35.47c2.22-.22,4.4-.65,6.63-.83,2.8-.22,5.48.68,8.27.67,4.57,0,5.93-5.71,6.48-9.24.66-4.27.32-9.58-4.59-10.65-2.76-.59-5.89.14-8.62.53a77.87,77.87,0,0,1-15.68,1.15c-.16.41-.32.81-.47,1.22l2.54-.44c1-.17,1.54-1.44.22-1.21l-2.54.44c-.66.11-1.73,1.14-.47,1.21,7,.43,14-1.08,20.92-1.76,9-.88,7.8,10,5,15.58-1.76,3.48-6.17,1.16-9.13,1.24-5.17.15-10.14,1.36-15.35,1-4.47-.28-3.31-4.39-3.51-7.84a31.24,31.24,0,0,1,.19-5.8c.38-2.79,2.13-2.89,4.42-2.9C175.83,183.53,177.05,182.31,175.75,182.31Z"/><path class="cls-2" d="M201.62,182.59c-1.37,3.47-3.49,16.89,1.61,18.46,3.71,1.14,7.82.36,11.54-.29,4.33-.75,8.52,0,12.86-.36a8,8,0,0,0,6.77-4.78c1.4-3,2.18-8.94.06-11.87-2-2.73-5.1-3.31-8.27-3.57-7.76-.62-15.81.78-23.49,1.71-.46.05-1.1.31-1.08.85a3.94,3.94,0,0,0,.36,2.2c.26.75,2.06.26,1.94-.51s-.25-1.47-.37-2.2-2.06-.28-1.93.51l.36,2.2,1.94-.51a3.89,3.89,0,0,1-.37-2.2l-1.08.85c5.12-.62,10.24-1.23,15.39-1.58,4.18-.28,9.52-.84,13.31,1.43s2.41,8.15,1.73,11.57c-1.16,5.81-7.42,4.82-11.81,4.55-5.06-.32-13.32,3.69-17.59.28-2-1.59-1.13-7-1.05-9.17.09-2.52.17-5.4,1.11-7.78C203.84,181.67,201.89,181.9,201.62,182.59Z"/><path class="cls-2" d="M236,180.49h-.73c-.41,0-1.28.42-1.33,1-.31,3.4,0,6.92-.17,10.34-.1,1.74-.4,4.42.62,6,2,3,6.18,2.71,9.31,2.52,4.8-.3,9.33-1,14.17-.9,3.66.07,7.37-.22,10.34-2.54,3.3-2.57,3.71-8.07,3.26-11.86-.42-3.6-3.45-5.47-6.71-6.07-4.79-.88-9.94.59-14.79.31-5.35-.31-10.24-.36-14.75,2.9a16.14,16.14,0,0,0,1.79.25v-.88c0-.9-2-.53-2,.2v.88c0,.77,1,.54,1.42.26,4.75-3.44,10.36-2.47,15.84-2.23,3.32.14,6.49-.66,9.81-.64,10.71.06,9.78,16.53.4,18-5.29.85-10.93.19-16.31.87-3.74.48-9.55,1.32-10.44-3.51a27.83,27.83,0,0,1,.13-6.18c.14-2.56-.21-5,0-7.54-.45.24-.89-.15-1.33.85h.72C236,182.49,237.25,180.49,236,180.49Z"/><path class="cls-2" d="M272.07,181.67c-2,1.53-1,6.48-.87,8.57.15,3.06-.7,7,1.56,9.46,1.73,1.9,6.06,1.18,8.23,1.26,4.28.16,8.62,1.82,12.93,1.06,7.73-1.36,10.4-8.84,7-15.65-1.23-2.45-4-4.82-6.85-4.73-6.35.2-14.16,2.06-20.3-.42-.43-.17-2.18.52-1.58.77,7.13,2.88,14.47-.49,21.63.58,3.48.52,5.5,4.42,6.4,7.4,1.88,6.3-2.31,11.68-9.21,11.3-3.28-.19-6.49-1-9.79-1.16-2.48-.09-5.73.5-7.26-2-1.31-2.1-.69-5.38-.75-7.68-.05-2-1.17-7.51.65-8.93C274.25,181.2,272.44,181.38,272.07,181.67Z"/><path class="cls-2" d="M117.63,182.49h-.73c-.36,0-2.25.73-1.25.82,3.74.33,7.5.14,11.24.45,3.4.28,6.7-.36,7.23,3.83a25.5,25.5,0,0,1-.66,9.13c-1.42,5.4-9.4,4.27-13.4,3.58-4.73-.83-11,.41-13.89-4.38-1.55-2.62-1.17-6.7-.09-9.37,1.55-3.85,7.34-2.83,10.66-2.79.23,0,1.9-.29,1.53-.73l-.36-.44c-.3-.37-2.12.3-1.82.67l.36.44L118,183c-5.54-.06-12.68-.9-14.44,5.83-3.16,12.08,9.08,11.41,16.82,12.57,5.7.85,14.45.43,15.39-6.84.39-3,1.85-10.48-2.55-11.38-2.25-.47-4.47-.13-6.75-.32-1.61-.13-3.25-.07-4.87-.08-1,0-2.09,0-3.13-.08-2.59.48-3.29.68-2.08.65C116.79,183.31,118.58,182.49,117.63,182.49Z"/><path class="cls-2" d="M155.57,202.73c-2.65,1.81-5.23.42-6.15,4.45s-1.28,9.3,0,13.37c1.21,3.81,6.74,2.74,9.58,2.61,6.87-.3,14.52,1.76,21.29,0,6.52-1.74,6.22-10.1,4-15.12-1.4-3.22-3.76-4.34-7-5a36.29,36.29,0,0,0-9-.21c-1.78.09-3.56.26-5.35.4-1.18.09-2.37.15-3.56.19q-3.25,1.49-2.35-.16c.41-1-1.53-.93-1.84-.18l-.36.88c-.17.41.15.74.57.76a97.06,97.06,0,0,0,10.92-.43c4.43-.35,11.26-1.37,14.67,2.22,4,4.2,4.39,14.53-2.59,15.61-4.57.71-9.38,0-14-.26-3.43-.2-12,1.82-13.4-2.56-1-3.19-.47-7.27-.07-10.54.47-4,3.42-3.57,5.78-5.18C157.92,202.81,156.31,202.23,155.57,202.73Z"/><path class="cls-2" d="M189.56,203.41c-2.44,0-5.59-.36-6.56,2.47-1.68,4.89-.33,10.36-.21,15.4a.45.45,0,0,0,.39.47,37.58,37.58,0,0,0,11.35.47c2.22-.23,4.41-.65,6.64-.83,2.79-.23,5.47.68,8.26.67,4.57,0,5.93-5.72,6.48-9.24.66-4.27.32-9.58-4.59-10.65-2.75-.6-5.89.13-8.61.53A78.76,78.76,0,0,1,187,203.85c-.16.41-.31.81-.47,1.21l2.54-.44c1-.16,1.55-1.43.22-1.21l-2.53.45c-.67.11-1.74,1.14-.48,1.21,7,.42,14-1.09,20.92-1.77,9-.87,7.8,10,5,15.58-1.76,3.49-6.17,1.16-9.13,1.25-5.17.15-10.14,1.36-15.34,1-4.48-.28-3.32-4.39-3.52-7.85a30.27,30.27,0,0,1,.2-5.79c.37-2.79,2.12-2.89,4.41-2.9C189.65,204.63,190.87,203.4,189.56,203.41Z"/><path class="cls-2" d="M215.43,203.68c-1.37,3.48-3.49,16.9,1.61,18.47,3.71,1.14,7.82.36,11.55-.29,4.33-.76,8.51,0,12.85-.37a8,8,0,0,0,6.78-4.78c1.39-3,2.17-8.93.05-11.87-2-2.72-5.1-3.31-8.27-3.56-7.76-.62-15.81.77-23.48,1.7-.46.06-1.11.31-1.09.86a3.89,3.89,0,0,0,.37,2.2c.25.74,2.06.25,1.93-.52l-.36-2.2c-.13-.74-2.07-.27-1.94.52s.25,1.46.37,2.2l1.93-.52a3.79,3.79,0,0,1-.36-2.2l-1.09.86c5.13-.63,10.24-1.24,15.39-1.59,4.18-.28,9.52-.84,13.31,1.44s2.41,8.14,1.73,11.56c-1.16,5.82-7.41,4.82-11.8,4.55-5.07-.31-13.32,3.7-17.6.29-2-1.6-1.13-7-1.05-9.17.1-2.53.17-5.4,1.11-7.79C217.65,202.76,215.7,203,215.43,203.68Z"/><path class="cls-2" d="M249.76,202.49H249c-.41,0-1.27,0-1.32.51-.32,3.4,0,6.71-.18,10.12-.1,1.74-.4,4.31.62,5.86,2,3,6.18,2.66,9.32,2.46,4.79-.3,9.32-1,14.16-.93,3.66.07,7.37-.24,10.35-2.55,3.29-2.57,3.7-8.07,3.26-11.86-.43-3.61-3.46-5.48-6.72-6.08-4.79-.89-9.94.58-14.79.3-5.35-.3-10.65-.35-15.15,2.9a6.2,6.2,0,0,1,1.38.26v-.88c0-.91-2-.54-2,.2v.88c0,.76,1.43.54,1.83.25,4.75-3.43,10.56-2.46,16-2.23,3.33.15,6.6-.66,9.92-.64,10.71.06,9.83,16.53.45,18-5.29.85-10.9.2-16.29.88-3.73.47-9.53,1.31-10.42-3.51a27.82,27.82,0,0,1,.14-6.18c.14-2.57-.21-5,0-7.59-.45.24-.89.8-1.33.8H249C249.86,203.49,251.07,202.49,249.76,202.49Z"/><path class="cls-2" d="M131.44,203.49h-.73c-.36,0-2.25.77-1.25.86,3.75.34,7.5.17,11.25.48,3.4.28,6.69-.35,7.22,3.85a25.5,25.5,0,0,1-.66,9.13c-1.42,5.4-9.4,4.27-13.39,3.58-4.74-.82-11.06.42-13.9-4.37-1.55-2.63-1.17-6.71-.09-9.37,1.55-3.85,7.34-2.83,10.66-2.79.23,0,1.9-.29,1.54-.73l-.37-.44c-.3-.37-2.12.29-1.82.66l.37.44,1.53-.73c-5.54-.07-12.68-.9-14.44,5.83-3.16,12.07,9.08,11.4,16.82,12.56,5.7.86,14.45.43,15.39-6.83.39-3,1.85-10.48-2.55-11.39-2.25-.46-4.47-.12-6.75-.31-1.61-.13-3.25-.08-4.87-.08-1,0-2.09,0-3.13-.08-2.59.47-3.28.63-2.08.59C130.6,204.35,132.39,203.49,131.44,203.49Z"/><path class="cls-2" d="M155.57,36.45c-2.65,1.81-5.23.42-6.15,4.45s-1.28,9.3,0,13.37c1.21,3.82,6.74,2.74,9.58,2.61,6.87-.3,14.52,1.76,21.29,0,6.52-1.74,6.22-10.1,4-15.12-1.4-3.22-3.76-4.34-7-5a36.29,36.29,0,0,0-9-.21c-1.78.09-3.56.26-5.35.4-1.18.09-2.37.15-3.56.19q-3.25,1.48-2.35-.16c.41-1-1.53-.92-1.84-.18l-.36.88c-.17.41.15.74.57.76A97.06,97.06,0,0,0,166.41,38c4.43-.35,11.26-1.37,14.67,2.22,4,4.2,4.39,14.54-2.59,15.61-4.57.71-9.38,0-14-.26-3.43-.2-12,1.82-13.4-2.56-1-3.19-.47-7.27-.07-10.54.47-4,3.42-3.57,5.78-5.18C157.92,36.53,156.31,36,155.57,36.45Z"/><path class="cls-2" d="M189.56,37.13c-2.44,0-5.59-.36-6.56,2.47-1.68,4.89-.33,10.37-.21,15.4a.45.45,0,0,0,.39.47,37.58,37.58,0,0,0,11.35.47c2.22-.22,4.41-.65,6.64-.83,2.79-.23,5.47.68,8.26.67,4.57,0,5.93-5.72,6.48-9.24.66-4.27.32-9.58-4.59-10.65-2.75-.6-5.89.14-8.61.53A78.76,78.76,0,0,1,187,37.57c-.16.4-.31.81-.47,1.22l2.54-.44c1-.17,1.55-1.44.22-1.21l-2.53.44c-.67.11-1.74,1.14-.48,1.21,7,.42,14-1.09,20.92-1.76,9-.88,7.8,10,5,15.57-1.76,3.49-6.17,1.16-9.13,1.25-5.17.15-10.14,1.36-15.34,1-4.48-.28-3.31-4.39-3.52-7.84a30.35,30.35,0,0,1,.2-5.8c.37-2.79,2.12-2.89,4.41-2.9C189.65,38.35,190.87,37.12,189.56,37.13Z"/><path class="cls-2" d="M215.43,37.41c-1.37,3.47-3.49,16.89,1.61,18.46,3.71,1.14,7.82.36,11.55-.29,4.33-.76,8.51,0,12.85-.36a8,8,0,0,0,6.78-4.79c1.39-3,2.17-8.93.05-11.86-2-2.73-5.1-3.32-8.27-3.57-7.76-.62-15.81.77-23.48,1.71-.46,0-1.11.3-1.09.85a3.88,3.88,0,0,0,.37,2.2c.25.75,2.06.25,1.93-.52l-.36-2.2c-.13-.74-2.07-.27-1.94.52l.37,2.2,1.93-.52a3.79,3.79,0,0,1-.36-2.2l-1.09.86c5.13-.63,10.24-1.24,15.39-1.59,4.18-.28,9.52-.84,13.31,1.44s2.41,8.14,1.73,11.57c-1.16,5.81-7.41,4.81-11.8,4.54-5.07-.31-13.32,3.7-17.6.29-2-1.59-1.13-7-1.05-9.17.1-2.53.17-5.4,1.11-7.78C217.65,36.48,215.7,36.71,215.43,37.41Z"/><path class="cls-2" d="M249.76,35.49H249c-.41,0-1.27.33-1.32.87-.32,3.4,0,6.89-.18,10.3-.1,1.75-.4,4.4.62,6,2,3,6.18,2.7,9.32,2.51,4.79-.3,9.32-1,14.16-.91,3.66.07,7.37-.23,10.35-2.54,3.29-2.57,3.7-8.07,3.26-11.86-.43-3.6-3.46-5.47-6.72-6.07-4.79-.89-9.94.58-14.79.3-5.35-.3-10.65-.35-15.15,2.91a6.42,6.42,0,0,1,1.38.25v-.88c0-.9-2-.53-2,.2v.88c0,.76,1.43.54,1.83.26,4.75-3.44,10.56-2.47,16-2.23,3.33.14,6.6-.67,9.92-.65,10.71.06,9.83,16.53.45,18-5.29.84-10.9.19-16.29.87-3.73.47-9.53,1.31-10.42-3.51a27.82,27.82,0,0,1,.14-6.18c.14-2.57-.21-4.88,0-7.45-.45.24-.89-.06-1.33.94H249C249.86,37.49,251.07,35.49,249.76,35.49Z"/><path class="cls-2" d="M131.44,37.49h-.73c-.36,0-2.25.63-1.25.73,3.75.33,7.5.09,11.25.4,3.4.28,6.69-.39,7.22,3.81a25.44,25.44,0,0,1-.66,9.12c-1.42,5.4-9.4,4.26-13.39,3.57-4.74-.82-11.06.41-13.9-4.38-1.55-2.62-1.17-6.71-.09-9.37,1.55-3.85,7.34-2.83,10.66-2.79.23,0,1.9-.29,1.54-.73l-.37-.44c-.3-.37-2.12.29-1.82.66l.37.44,1.53-.73c-5.54-.07-12.68-.9-14.44,5.83-3.16,12.07,9.08,11.4,16.82,12.57,5.7.85,14.45.42,15.39-6.84.39-3,1.85-10.48-2.55-11.39-2.25-.46-4.47-.12-6.75-.31-1.61-.13-3.25-.08-4.87-.08-1,0-2.09,0-3.13-.08-2.59.47-3.28.77-2.08.74C130.6,38.22,132.39,37.49,131.44,37.49Z"/><path class="cls-2" d="M159.15,78.64c-2.65,1.81-5.23.42-6.15,4.45s-1.28,9.3,0,13.37c1.21,3.81,6.74,2.74,9.58,2.61,6.87-.3,14.52,1.76,21.29,0,6.52-1.74,6.22-10.1,4-15.12-1.4-3.22-3.76-4.34-7-5a36.29,36.29,0,0,0-9-.21c-1.78.09-3.56.26-5.34.4-1.19.09-2.38.15-3.57.19q-3.26,1.49-2.35-.16c.41-1-1.53-.92-1.84-.18l-.36.88c-.17.41.15.74.57.76A97.06,97.06,0,0,0,170,80.17c4.43-.35,11.26-1.37,14.67,2.22,4,4.2,4.39,14.54-2.58,15.61-4.58.71-9.39,0-14-.26-3.43-.19-12,1.82-13.4-2.56-1-3.19-.47-7.27-.07-10.54.48-4,3.42-3.57,5.78-5.18C161.5,78.72,159.89,78.14,159.15,78.64Z"/><path class="cls-2" d="M193.14,79.32c-2.44,0-5.59-.36-6.56,2.47-1.68,4.89-.33,10.37-.21,15.4a.45.45,0,0,0,.39.47,37,37,0,0,0,11.35.47c2.22-.22,4.41-.65,6.64-.83,2.8-.23,5.48.68,8.26.67,4.57,0,5.94-5.71,6.48-9.24.66-4.27.32-9.58-4.59-10.65-2.75-.6-5.89.14-8.61.53a78.76,78.76,0,0,1-15.69,1.15c-.15.41-.31.81-.47,1.22l2.54-.44c1-.17,1.55-1.44.23-1.21l-2.54.44c-.67.11-1.74,1.14-.48,1.21,7,.42,14-1.09,20.92-1.76,9-.88,7.8,10,5,15.57C214,98.28,209.64,96,206.68,96c-5.18.15-10.15,1.36-15.35,1-4.47-.28-3.31-4.39-3.52-7.84a30.35,30.35,0,0,1,.2-5.8c.37-2.79,2.12-2.89,4.41-2.9C193.23,80.54,194.45,79.31,193.14,79.32Z"/><path class="cls-2" d="M96.46,78.7c-2.44,0-5.6-.36-6.56,2.47-1.68,4.89-.34,10.36-.21,15.4a.44.44,0,0,0,.39.47,37.2,37.2,0,0,0,11.34.47c2.22-.22,4.41-.65,6.64-.83,2.8-.23,5.48.68,8.27.67,4.57,0,5.93-5.72,6.48-9.24.66-4.27.32-9.58-4.6-10.65-2.75-.6-5.89.13-8.61.53a78.71,78.71,0,0,1-15.68,1.15c-.16.41-.32.81-.47,1.22L96,79.91c1-.16,1.55-1.43.23-1.21l-2.54.45c-.66.11-1.73,1.14-.47,1.21,7,.42,14-1.09,20.92-1.76,9-.88,7.8,10,5,15.57-1.77,3.49-6.17,1.16-9.13,1.25-5.17.15-10.14,1.36-15.35,1-4.47-.28-3.31-4.39-3.51-7.84a29.55,29.55,0,0,1,.19-5.8c.37-2.79,2.13-2.89,4.42-2.9C96.54,79.92,97.76,78.69,96.46,78.7Z"/><path class="cls-2" d="M219,79.6c-1.37,3.47-3.49,16.89,1.61,18.46,3.71,1.14,7.82.36,11.55-.29,4.33-.76,8.51,0,12.85-.36a8,8,0,0,0,6.78-4.79c1.39-3,2.17-8.93.06-11.86-2-2.73-5.1-3.32-8.28-3.57-7.76-.62-15.81.77-23.48,1.71-.46,0-1.1.3-1.08.85a3.8,3.8,0,0,0,.36,2.2c.25.75,2.06.25,1.93-.52l-.36-2.2c-.13-.74-2.07-.27-1.93.52l.36,2.2,1.93-.52a3.79,3.79,0,0,1-.36-2.2l-1.08.86c5.12-.63,10.24-1.24,15.38-1.58,4.19-.29,9.52-.85,13.31,1.43s2.42,8.14,1.73,11.57c-1.16,5.81-7.41,4.81-11.8,4.54-5.07-.31-13.32,3.7-17.6.29-2-1.59-1.13-7-1-9.17.1-2.53.17-5.4,1.11-7.78C221.23,78.67,219.28,78.9,219,79.6Z"/><path class="cls-2" d="M253.34,78.49h-.73c-.41,0-1.27-.08-1.32.47-.32,3.4,0,6.68-.18,10.09-.1,1.75-.4,4.3.62,5.86,2,3,6.18,2.64,9.32,2.45,4.79-.3,9.32-1,14.16-.93,3.66.07,7.37-.24,10.35-2.56,3.3-2.57,3.7-8.07,3.26-11.86-.43-3.61-3.46-5.48-6.72-6.08-4.79-.88-9.94.58-14.79.31-5.35-.31-10.44-.36-14.94,2.9a11.29,11.29,0,0,0,1.59.25v-.88c0-.9-2-.53-2,.2v.88c0,.76,1.22.54,1.62.26,4.75-3.44,10.46-2.47,15.93-2.23,3.32.14,6.55-.67,9.86-.65,10.71.06,9.81,16.53.42,18-5.28.84-10.91.19-16.29.87-3.74.47-9.54,1.32-10.43-3.51-.36-1.94,0-4.21.13-6.18.14-2.57-.21-5,0-7.55-.44.24-.89-.15-1.33.85h.72C253.44,79.49,254.65,78.49,253.34,78.49Z"/><path class="cls-2" d="M289.46,78.68c-2,1.53-1,6.47-.86,8.57.15,3.06-.7,7,1.55,9.45,1.73,1.91,6.07,1.19,8.24,1.27,4.27.15,8.61,1.81,12.92,1.06,7.73-1.36,10.4-8.84,7-15.66-1.23-2.44-4-4.81-6.85-4.72-6.35.2-14.16,2.06-20.29-.42-.44-.18-2.18.52-1.59.76,7.14,2.89,14.48-.48,21.64.59,3.48.51,5.5,4.42,6.39,7.4,1.89,6.3-2.3,11.68-9.2,11.29-3.29-.18-6.5-1-9.8-1.15-2.48-.09-5.73.49-7.26-2-1.3-2.1-.69-5.38-.75-7.68-.05-2-1.16-7.52.65-8.93C291.64,78.21,289.83,78.39,289.46,78.68Z"/><path class="cls-2" d="M135,79.49h-.73c-.36,0-2.25.73-1.25.82,3.75.34,7.5.14,11.25.45,3.4.28,6.69-.36,7.22,3.84a25.27,25.27,0,0,1-.66,9.13c-1.42,5.39-9.39,4.27-13.39,3.57-4.74-.82-11.06.42-13.9-4.37-1.55-2.62-1.17-6.71-.09-9.37,1.55-3.85,7.34-2.83,10.66-2.79.23,0,1.9-.29,1.54-.73l-.37-.44c-.3-.37-2.12.29-1.81.66l.36.44,1.53-.73c-5.54-.07-12.68-.9-14.44,5.83-3.16,12.07,9.08,11.4,16.82,12.57,5.7.85,14.45.42,15.39-6.84.39-3,1.85-10.48-2.55-11.39-2.25-.46-4.47-.12-6.75-.31-1.61-.13-3.25-.08-4.86-.08-1.05,0-2.1,0-3.14-.08-2.59.47-3.28.67-2.08.64C134.18,80.31,136,79.49,135,79.49Z"/><path class="cls-2" d="M159.66,119c-2.65,1.81-5.23.42-6.15,4.45s-1.28,9.3,0,13.37c1.22,3.81,6.74,2.74,9.58,2.61,6.89-.3,14.51,1.76,21.29-.05,6.52-1.73,6.22-10.09,4-15.11-1.4-3.22-3.76-4.34-7-5a36.29,36.29,0,0,0-9-.21c-1.78.09-3.56.26-5.34.4-1.19.09-2.38.15-3.57.19q-3.26,1.49-2.35-.16c.41-1-1.53-.93-1.84-.18l-.36.88c-.17.41.15.74.58.76a97,97,0,0,0,10.91-.43c4.43-.35,11.26-1.37,14.67,2.22,4,4.2,4.39,14.53-2.58,15.61-4.58.71-9.39,0-14-.27-3.44-.19-12,1.79-13.4-2.55-1-3.19-.47-7.27-.07-10.55.48-4,3.42-3.56,5.78-5.17C162,119.05,160.4,118.47,159.66,119Z"/><path class="cls-2" d="M193.65,119.65c-2.43,0-5.59-.36-6.56,2.46-1.68,4.9-.33,10.37-.21,15.4a.46.46,0,0,0,.4.48,37.52,37.52,0,0,0,11.34.47c2.22-.22,4.41-.65,6.64-.83,2.8-.23,5.48.68,8.26.67,4.58,0,5.94-5.72,6.48-9.24.66-4.27.32-9.58-4.59-10.65-2.75-.6-5.89.13-8.61.53a78.76,78.76,0,0,1-15.69,1.15c-.15.4-.31.81-.47,1.21l2.54-.44c1-.16,1.55-1.44.23-1.21l-2.54.44c-.67.12-1.74,1.14-.47,1.22,7,.42,14-1.09,20.91-1.76,9-.88,7.8,10,5,15.57-1.76,3.49-6.16,1.16-9.12,1.25-5.18.15-10.14,1.36-15.35,1-4.47-.28-3.31-4.39-3.52-7.85a30.27,30.27,0,0,1,.2-5.79c.37-2.79,2.12-2.89,4.41-2.9C193.74,120.87,195,119.64,193.65,119.65Z"/><path class="cls-2" d="M97,119c-2.44,0-5.59-.36-6.56,2.46-1.68,4.9-.33,10.37-.21,15.4a.44.44,0,0,0,.39.48,37.57,37.57,0,0,0,11.35.47c2.22-.23,4.4-.65,6.63-.83,2.8-.23,5.48.68,8.27.67,4.57,0,5.93-5.72,6.48-9.24.66-4.27.32-9.58-4.59-10.65-2.76-.6-5.89.13-8.62.53a78.66,78.66,0,0,1-15.68,1.15c-.16.4-.32.81-.47,1.21l2.54-.44c1-.16,1.54-1.44.22-1.21l-2.54.44c-.66.12-1.73,1.14-.47,1.22,7,.42,14-1.09,20.92-1.77,9-.87,7.8,10,5,15.58-1.76,3.49-6.17,1.16-9.13,1.25-5.17.15-10.14,1.36-15.35,1-4.47-.28-3.31-4.39-3.51-7.85a31.1,31.1,0,0,1,.19-5.79c.38-2.79,2.13-2.89,4.42-2.9C97.05,120.25,98.28,119,97,119Z"/><path class="cls-2" d="M219.52,119.92c-1.36,3.48-3.49,16.9,1.61,18.47,3.71,1.14,7.82.36,11.55-.29,4.33-.76,8.51,0,12.86-.37a8,8,0,0,0,6.77-4.78c1.39-3,2.17-8.93.06-11.86-2-2.73-5.1-3.32-8.28-3.57-7.76-.62-15.8.77-23.48,1.7-.46.06-1.1.31-1.08.86a3.8,3.8,0,0,0,.36,2.2c.25.74,2.06.25,1.93-.52l-.36-2.2c-.12-.74-2.06-.27-1.93.52l.36,2.2,1.93-.52a3.87,3.87,0,0,1-.36-2.2l-1.08.86c5.12-.63,10.24-1.24,15.39-1.59,4.18-.28,9.51-.84,13.31,1.44s2.41,8.14,1.72,11.56c-1.16,5.82-7.41,4.82-11.8,4.55-5.07-.31-13.32,3.7-17.59.29-2-1.6-1.14-7-1.06-9.17.1-2.53.18-5.4,1.11-7.78C221.74,119,219.79,119.23,219.52,119.92Z"/><path class="cls-2" d="M253.85,118.49h-.72c-.42,0-1.28.08-1.33.63-.32,3.4,0,6.77-.17,10.18-.11,1.75-.41,4.34.61,5.89,2,3,6.18,2.67,9.32,2.48,4.8-.3,9.32-1,14.16-.93,3.66.08,7.37-.23,10.35-2.55,3.3-2.57,3.71-8.07,3.26-11.86-.43-3.6-3.45-5.47-6.72-6.07-4.79-.89-9.94.58-14.79.31-5.35-.31-10.19-.36-14.69,2.89a16.63,16.63,0,0,0,1.83.26v-.88c0-.91-2-.54-2,.2v.88c0,.76,1,.54,1.37.25,4.76-3.43,10.34-2.46,15.81-2.23,3.33.15,6.49-.66,9.8-.64,10.71.06,9.78,16.53.4,18-5.29.85-10.93.2-16.31.88-3.74.47-9.55,1.31-10.44-3.51-.36-1.94,0-4.21.13-6.18.14-2.57-.22-5.14,0-7.71-.44.24-.89.68-1.33.68h.73C254,119.49,255.16,118.49,253.85,118.49Z"/><path class="cls-2" d="M290,119c-2,1.54-1,6.48-.86,8.58.15,3.06-.7,7,1.55,9.45,1.73,1.91,6.07,1.19,8.24,1.27,4.27.15,8.61,1.81,12.92,1,7.73-1.35,10.4-8.83,7-15.65-1.24-2.44-4-4.81-6.86-4.72-6.35.2-14.16,2.06-20.29-.42-.43-.18-2.18.52-1.58.76,7.13,2.89,14.47-.48,21.63.58,3.48.52,5.5,4.43,6.39,7.41,1.89,6.3-2.3,11.68-9.2,11.29-3.29-.18-6.5-1-9.79-1.15-2.49-.09-5.74.49-7.27-2-1.3-2.1-.69-5.38-.75-7.68,0-2-1.16-7.52.65-8.94C292.15,118.54,290.34,118.72,290,119Z"/><path class="cls-2" d="M135.53,119.49h-.72c-.37,0-2.26.89-1.25,1,3.74.34,7.49.23,11.24.54,3.4.28,6.69-.32,7.22,3.88a25.38,25.38,0,0,1-.66,9.15c-1.42,5.39-9.39,4.27-13.39,3.58-4.74-.82-11.06.42-13.89-4.37-1.55-2.62-1.17-6.7-.1-9.37,1.56-3.84,7.34-2.82,10.66-2.78.23,0,1.9-.29,1.54-.73l-.36-.44c-.31-.37-2.13.29-1.82.66l.36.44,1.53-.73c-5.53-.07-12.68-.9-14.44,5.83-3.16,12.07,9.08,11.4,16.83,12.56,5.69.86,14.44.43,15.39-6.83.38-3,1.85-10.48-2.56-11.39-2.25-.46-4.47-.12-6.75-.31-1.61-.13-3.25-.08-4.86-.08-1.05,0-2.09,0-3.14-.08-2.59.47-3.28.51-2.08.47C134.69,120.47,136.48,119.49,135.53,119.49Z"/><path class="cls-2" d="M159.66,160.54c-2.65,1.81-5.23.42-6.15,4.45s-1.28,9.3,0,13.37c1.21,3.81,6.74,2.74,9.58,2.61,6.87-.3,14.53,1.76,21.29,0,6.52-1.74,6.22-10.1,4-15.12-1.4-3.22-3.76-4.34-7-5a36.78,36.78,0,0,0-9-.22c-1.78.1-3.56.27-5.34.41-1.19.09-2.38.15-3.57.19q-3.26,1.49-2.35-.16c.41-1-1.53-.93-1.84-.18l-.36.88c-.17.41.15.74.58.76a97,97,0,0,0,10.91-.43c4.43-.35,11.26-1.37,14.67,2.22,4,4.2,4.39,14.53-2.58,15.61-4.58.71-9.39,0-14-.26-3.43-.2-12,1.82-13.4-2.56-1-3.19-.47-7.27-.07-10.55.48-4,3.42-3.56,5.78-5.17C162,160.62,160.4,160,159.66,160.54Z"/><path class="cls-2" d="M193.65,161.22c-2.43,0-5.59-.36-6.56,2.46-1.68,4.9-.33,10.37-.21,15.4a.46.46,0,0,0,.4.48,37.52,37.52,0,0,0,11.34.47c2.22-.23,4.41-.65,6.64-.83,2.8-.23,5.48.67,8.26.67,4.58,0,5.94-5.72,6.48-9.24.66-4.27.32-9.58-4.59-10.65-2.75-.6-5.89.13-8.61.53a78.76,78.76,0,0,1-15.69,1.15c-.15.4-.31.81-.47,1.21l2.54-.44c1-.16,1.55-1.44.23-1.21l-2.54.44c-.67.12-1.74,1.14-.47,1.22,7,.42,14-1.09,20.91-1.77,9-.87,7.8,10,5,15.58-1.76,3.49-6.16,1.16-9.12,1.25-5.18.15-10.14,1.36-15.35,1-4.47-.27-3.31-4.38-3.52-7.84a30.27,30.27,0,0,1,.2-5.79c.37-2.79,2.12-2.89,4.41-2.9C193.74,162.44,195,161.21,193.65,161.22Z"/><path class="cls-2" d="M97,160.6c-2.44,0-5.59-.36-6.56,2.46-1.68,4.9-.33,10.37-.21,15.4a.45.45,0,0,0,.39.48,37.57,37.57,0,0,0,11.35.47c2.22-.22,4.4-.65,6.63-.83,2.8-.23,5.48.67,8.27.67,4.57,0,5.93-5.72,6.48-9.24.66-4.27.32-9.58-4.59-10.65-2.76-.6-5.89.13-8.62.53A78.66,78.66,0,0,1,94.43,161c-.16.4-.32.81-.47,1.21l2.54-.44c1-.16,1.54-1.43.22-1.21l-2.54.44c-.66.12-1.73,1.14-.47,1.22,7,.42,14-1.09,20.92-1.77,9-.87,7.8,10,5,15.58-1.76,3.49-6.17,1.16-9.13,1.25-5.17.15-10.14,1.36-15.35,1-4.47-.27-3.31-4.38-3.51-7.84a31.1,31.1,0,0,1,.19-5.79c.38-2.79,2.13-2.89,4.42-2.9C97.05,161.82,98.28,160.59,97,160.6Z"/><path class="cls-2" d="M219.52,161.49c-1.36,3.48-3.49,16.9,1.61,18.47,3.71,1.14,7.82.36,11.55-.29,4.33-.76,8.51,0,12.86-.37a8,8,0,0,0,6.77-4.78c1.39-3,2.17-8.93.06-11.86-2-2.73-5.1-3.32-8.28-3.57-7.76-.62-15.8.77-23.48,1.7-.46.06-1.1.31-1.08.86a3.8,3.8,0,0,0,.36,2.2c.25.74,2.06.25,1.93-.52l-.36-2.2c-.12-.74-2.06-.27-1.93.52l.36,2.2,1.93-.52a3.87,3.87,0,0,1-.36-2.2l-1.08.86c5.12-.63,10.24-1.24,15.39-1.58,4.18-.29,9.51-.85,13.31,1.43s2.41,8.14,1.72,11.57c-1.16,5.81-7.41,4.81-11.8,4.54-5.07-.31-13.32,3.7-17.59.29-2-1.6-1.14-7-1.06-9.17a24.69,24.69,0,0,1,1.11-7.79C221.74,160.57,219.79,160.8,219.52,161.49Z"/><path class="cls-2" d="M253.85,159.49h-.72c-.42,0-1.28.37-1.33.92-.32,3.4,0,6.9-.17,10.31-.11,1.75-.41,4.42.61,6,2,3,6.18,2.7,9.32,2.51,4.8-.3,9.32-1,14.16-.9,3.66.07,7.37-.23,10.35-2.55,3.3-2.56,3.71-8.06,3.26-11.85-.43-3.6-3.45-5.47-6.72-6.07-4.79-.89-9.94.58-14.79.3-5.35-.3-10.19-.35-14.69,2.9a16.63,16.63,0,0,0,1.83.26v-.88c0-.91-2-.53-2,.2v.88c0,.76,1,.54,1.37.25,4.76-3.43,10.34-2.46,15.81-2.23,3.33.15,6.49-.66,9.8-.64,10.71.06,9.78,16.53.4,18-5.29.85-10.93.2-16.31.88-3.74.47-9.55,1.31-10.44-3.51-.36-1.94,0-4.22.13-6.18.14-2.57-.22-4.93,0-7.5-.44.24-.89-.1-1.33.9h.73C254,161.49,255.16,159.49,253.85,159.49Z"/><path class="cls-2" d="M290,160.57c-2,1.54-1,6.48-.86,8.58.15,3.06-.7,7,1.55,9.45,1.73,1.91,6.07,1.19,8.24,1.27,4.27.15,8.61,1.81,12.92,1,7.73-1.35,10.4-8.83,7-15.65-1.24-2.44-4-4.81-6.86-4.72-6.35.2-14.16,2.06-20.29-.42-.43-.18-2.18.52-1.58.76,7.13,2.89,14.47-.48,21.63.58,3.48.52,5.5,4.43,6.39,7.41,1.89,6.3-2.3,11.68-9.2,11.29-3.29-.18-6.5-1-9.79-1.15-2.49-.09-5.74.49-7.27-2-1.3-2.1-.69-5.38-.75-7.68,0-2-1.16-7.52.65-8.93C292.15,160.11,290.34,160.29,290,160.57Z"/><path class="cls-2" d="M135.53,161.49h-.72c-.37,0-2.26.68-1.25.77,3.74.34,7.49.11,11.24.42,3.4.29,6.69-.37,7.22,3.83a25.29,25.29,0,0,1-.66,9.13C149.94,181,142,179.9,138,179.2c-4.74-.82-11.06.42-13.89-4.37-1.55-2.62-1.17-6.71-.1-9.37,1.56-3.85,7.34-2.83,10.66-2.79.23,0,1.9-.29,1.54-.73l-.36-.44c-.31-.37-2.13.29-1.82.66l.36.44,1.53-.73c-5.53-.07-12.68-.9-14.44,5.83-3.16,12.07,9.08,11.4,16.83,12.56,5.69.86,14.44.43,15.39-6.83.38-3,1.84-10.48-2.56-11.39-2.25-.46-4.47-.12-6.75-.31-1.61-.13-3.25-.08-4.86-.08-1.05,0-2.09,0-3.14-.08-2.59.47-3.28.72-2.08.69C134.69,162.26,136.48,161.49,135.53,161.49Z"/></svg>