<svg id="layer1" xmlns="http://www.w3.org/2000/svg" viewBox="0 0 287.67 462.81"><defs><style>.cls-1{fill:#f7cc94;}.cls-2{fill:#6d3e0f;}.cls-3{fill:#492d0c;}</style></defs><path class="cls-1" d="M191.36,82.83a36.86,36.86,0,0,0,2.54-14,3.32,3.32,0,0,0-1.45-2.32c0-.59,0-1.18-.09-1.78,1,.28,1.76.1,1.55-1.16a12.89,12.89,0,0,0-1.75-4.49c-.47-.86-2.21-2.3-3.37-2.06A13.73,13.73,0,0,0,187,56c1.64-.62-1-3.77-2.55-3.7l-.5,0h0l-.27,0c-.94.07-1.86.19-2.77.35-8.19,1.18-16.24,3.42-24.54,3.59-1.8.05-1.57,1.42-.66,2.51l-.26.1c-.73.31-.75.86-.42,1.45,0,0,0,0,0,.06a3.38,3.38,0,0,0-2.65-1.54h-.8c-.9,0-1.4.33-1.4,1.24,0,.64,0,1.43,0,2.28a3.32,3.32,0,0,0-.95,1.11c-.73-.11-1.35.1-1.49.89a14.07,14.07,0,0,0-.2,1.82,8.22,8.22,0,0,0-3.76-5.35,1.48,1.48,0,0,0-2.21,1.23,3.24,3.24,0,0,0,1.73,3.09c.42.25.58,1,.64,1.76a5.49,5.49,0,0,1-1.79.93H142v0h0c-1.23.12-1.36,1.84-1.07,2.75a3,3,0,0,0,2.6,2.22h1.6c.79,0,1.12-.77,1.18-1.55.3-.18.59-.36.88-.51a1.27,1.27,0,0,0,.59-.67c.91,5.61,4.08,10.93,5.6,16.35a5.28,5.28,0,0,0,2.47,2.24,20.4,20.4,0,0,0,3.44,4,1,1,0,0,0-.29.57c0,.35-.06.69-.08,1a10.59,10.59,0,0,0-1.73-.29,1.18,1.18,0,0,0-1.4,1.32,8.1,8.1,0,0,0,2.24,6.25c.7.79,2.35,1.44,3.08.76.23.39.46.78.71,1.18.53.84,3.78,2.7,4,.66,0-.2,0-.38,0-.57l.47.21h0a6,6,0,0,0,2.73,2c.12.58.23,1.1.33,1.55a4.26,4.26,0,0,0,1.73,1.94c.73,1.51,3.23,3.35,4.11,1.68.07-.13.13-.26.19-.4h0v0c0-.5.47-1,.68-1.52a1.72,1.72,0,0,0,1.55-.45,31.63,31.63,0,0,0,3.73-5,1.33,1.33,0,0,0,.68-.24c.93.31,1.86.2,2.17-.74.57-1.72,1.1-3.44,1.6-5.18.3-.91.55-1.86.8-2.84.33-1.3-1.51-2.8-2.93-3,0-.08.05-.16.08-.25l.38-.36c.18-.09.36-.15.54-.24a9.43,9.43,0,0,0,2.47-1.89c1.26,1,3.33,1.58,3.47.1C190.89,86.9,191.13,84.87,191.36,82.83Zm-26.64-11.7a2.43,2.43,0,0,1-.86.76c.07-.55.12-1.1.17-1.65C164.24,70.55,164.48,70.84,164.72,71.13ZM169,75.81a18.35,18.35,0,0,1-7.14.31Q165.38,76.06,169,75.81Zm-11,6.28c0-1.33.07-2.67.08-4,7.12,4.5,19.29,1.25,27.66-3.06a33.15,33.15,0,0,0,.76,3.87,24.73,24.73,0,0,1-1.53,3.94,1.88,1.88,0,0,0-.6.13,11.47,11.47,0,0,0-4.27,3.28,41.44,41.44,0,0,1-5.51,2.81,30.47,30.47,0,0,1-8.78-1.84A47.4,47.4,0,0,0,158,82.09ZM173.08,96.6l.41-.1c-.05.35-.1.7-.15,1s-.12.74-.19,1.12l-.24-.57C173,97.58,173,97.09,173.08,96.6Zm12.35-26.85-.7.39a4.61,4.61,0,0,0-.5-.4,3.27,3.27,0,0,0,.63-1.87,4.17,4.17,0,0,0,0-.72.72.72,0,0,1,.87.06A20.8,20.8,0,0,0,185.43,69.75Zm1.14-5.62,0,.09c-.27-.14-.55-.28-.85-.4a4.94,4.94,0,0,0-4.26.07,16.46,16.46,0,0,0-5.42-.42,10.66,10.66,0,0,0-1.49-3.54c4.44-1.76,9.33-2.91,12.79,0A30.39,30.39,0,0,0,186.57,64.13Z"/><path class="cls-1" d="M194.47,64.93v2.16l.38-.11s0,.07,0,.11c0,.88,4.61-.23,4.61-1.7V59.77c0-.8-5,.17-5,1.71v.9a1,1,0,0,0-.32.7A9.55,9.55,0,0,0,194.47,64.93Z"/><path class="cls-1" d="M104.51,200.5a3.62,3.62,0,0,0-1.38,1.15l-.13,0,.09,0c-1.77,1.46-2.41,4-3,7.3a54.18,54.18,0,0,0-.55,10.81c-.7,2-1.28,4.09-1.78,6.18a2.56,2.56,0,0,0-.71.32c-4.07,3.91-6.09,8.9-7.1,14.2-1.83,5.15-1.64,11.29-1,16.41a.43.43,0,0,0,.38.11c7.17.16,10.71-5.27,12.45-11.72.22-.38.43-.76.63-1.15a21.83,21.83,0,0,0,3.19-.78,16.67,16.67,0,0,0,1,2.31c.33.64,4.6-.47,4.87-1.14h0c1.41-3.65.9-7.59.8-11.42a2,2,0,0,0,0-.24h.17v.22c0-.08-.51,0-1.1.08.07-.73.06-1.41.08-2.15v0l0,0v-.12c0-.11-.49-.09-1.15,0-.47-2.34-1-4.68-1.43-7,.5-2.92.83-5.88,1-8.83a35.72,35.72,0,0,0-.08-8.87l0,0h0a11.39,11.39,0,0,0-.32-1.34c1.34-.15,3.61-.58,3.61-1.19C113.1,198.62,107.63,199.08,104.51,200.5Zm-1.19,34.76v0h0Zm-9.68,18.67q-.06-.54-.09-1.08h0a5.39,5.39,0,0,0,1.11-.82c-.21.44-.4.88-.62,1.3C93.92,253.53,93.77,253.72,93.64,253.93Z"/><path class="cls-1" d="M255.86,239.21a52.76,52.76,0,0,0-2.33-14.6c-.12-.37-1-.7-2.05-.88-1-4.24-1.82-8.52-2.77-12.76,0-.2-.29-.36-.64-.5-.23-4.37-1.2-8.57-4.16-11.1,0-.24,0-.49,0-.74,1.25-2.41.84-3.88-2.43-4.33s-5.26,1-7.07,3.63c-.61,0-1.05.06-1.07.33-.57,9.7,3.5,19.37,6.95,28.43,0,1.14,0,2.28,0,3.42-1.29,4.95-4.07,9.49-3.7,14.76.06.8,3.16,1,3.67,1h.8c.13,0,1.46-.1,1.46-.42v-1a21.19,21.19,0,0,0,1.23-1.85A70.45,70.45,0,0,0,246.18,256a16.25,16.25,0,0,1-.82,2.47c-.11.27,3.11,1.24,4.43,1,1,.11,2,0,2.13-.31a37.63,37.63,0,0,0,1.77-4.53c1.07.11,2.08.05,2.24-.28C258.19,249.6,257.31,244.16,255.86,239.21Z"/><path class="cls-1" d="M153.59,306.88h-2.25c-4.44-2.22-12.45-3.85-14.57.33a5.69,5.69,0,0,0-.56,1.62,1.36,1.36,0,0,0-.6,1.28,1.8,1.8,0,0,0,.85,2.21c3.4,2.1,9.23,4,13.28,2.22a9.82,9.82,0,0,0,1.25-.25,1.82,1.82,0,0,0,1.44-1.56c.87-.2,1.8-.91,1.62-1.85h.33C157.68,310.88,156.39,306.88,153.59,306.88Z"/><path class="cls-1" d="M215.89,312.19a4.6,4.6,0,0,0-.17-2.38c-.75-2.27-3.89-3.6-6.1-3.47A4.11,4.11,0,0,0,207,307.5c-4-2.06-9.56-1.85-11.78,1.07a6,6,0,0,0-3.92,2,5.17,5.17,0,0,0-.73,4c.28,2.29,1.91,2.82,4,3.32a24.91,24.91,0,0,0,6.06.77,10.73,10.73,0,0,0,4,.16,5.22,5.22,0,0,0,3.17-1.79,11.59,11.59,0,0,0,2.33-.28,5.82,5.82,0,0,0,6.36-3.48C216.68,313,216.39,312.55,215.89,312.19Zm-15.39,2.74a1.88,1.88,0,0,1-.83-.22ZM211.27,310l-.12-.1.11-.13A1.69,1.69,0,0,1,211.27,310Zm-15.91,5.47a7.31,7.31,0,0,0,.48.62l-.4-.07C195.41,315.82,195.38,315.64,195.36,315.45Zm7.88-6.8a6,6,0,0,0-1.3.73l-.62-.2A3.72,3.72,0,0,1,203.24,308.65Z"/><path class="cls-2" d="M198.26,307.34c.19-1.41.34-2.83.47-4.24a3.44,3.44,0,0,0,1.94.78H203a1.19,1.19,0,0,0,.41-.08c.57,1.6,3.09,3.52,4.08,1.65a11.66,11.66,0,0,0,.73-1.69c.72.34,1.39.3,1.64-.65.45-1.67.81-3.35,1.12-5a.89.89,0,0,0,1.13-.55c1.06.67,2.27.8,2.5-.69,2.41-15.42,1.28-31.25,0-46.72-1-11.92-.76-25.75-6.36-36.7a64.85,64.85,0,0,1-.6-13.51l-.19-.08a3.87,3.87,0,0,0-3-2.88v-.54l-.57-.19c-.24-1.46-2.75-3.16-3.88-2.67.53-10.57,1.78-21.11.95-31.71a1.77,1.77,0,0,0-.14-.56c.71-5.27,1.19-10.59,1.88-15.87a2.05,2.05,0,0,0,.6-1.09c1.47-7.85,4.43-15.29,4.67-23.35a1.93,1.93,0,0,0-.37-1.22,15.64,15.64,0,0,0,.93-7.07L209,111a1.87,1.87,0,0,0-.55-1.89,16.53,16.53,0,0,1,.55-4c.72-2.66-4.08-3.79-4.73-1.42a23.64,23.64,0,0,0-.39,7c-.5,1.56-1,3.11-1.32,4.69a42.52,42.52,0,0,0-1.92,9.8,2,2,0,0,0,1.58,2c-.07.35-.13.7-.2,1a1.71,1.71,0,0,0-1.25,1.12,109.85,109.85,0,0,0-3.1,16.35,2,2,0,0,0-1.7,1.67,121.56,121.56,0,0,0-1.16,18l-.18,2a100.74,100.74,0,0,0-1,16.23,1.85,1.85,0,0,0,.69,1.44,25.76,25.76,0,0,0,.5,9.48c0,.36,0,.73,0,1.09a13.9,13.9,0,0,0-4.93,1.27,23.08,23.08,0,0,0-7,1H176.8c-4.33-.27-8.69-.13-13.05,0a27.71,27.71,0,0,0-5-1c-.06-2.52-.15-5.05-.29-7.58V177.33a2.5,2.5,0,0,0-1.23-1.93,159.05,159.05,0,0,0-2.8-16.11,67.34,67.34,0,0,0-3.63-12.89l-.32-1a61.18,61.18,0,0,0-2.44-15.3,1.89,1.89,0,0,0-.45-.71,164.08,164.08,0,0,0-4.09-20,3.37,3.37,0,0,0-3.06-2.56h-1.17a1.54,1.54,0,0,0-.85.24,1.46,1.46,0,0,0-1.75,1c-2.85,8.89,4.2,19.8,5.83,28.4a3.42,3.42,0,0,0,2.19,2.18c1.09,7.4.77,15.06,1.77,22.41h0v-.2H146c0,2,2.13,2.77,3.45,2.53a123,123,0,0,1,2.38,21,2.83,2.83,0,0,0,1.81,2.18c.19,3.35.31,6.71.37,10-2.61,0-5.24.16-7.95.21s.13,3.79,1.52,4.13a6.65,6.65,0,0,0,1.45,1.81h-1.81c-1.54,0-1.25,1.28-.46,2.41a1.63,1.63,0,0,0-.33.27c-6.56,7.19-6.69,19-6.38,29.36a37.7,37.7,0,0,0-3.66,6.66,40,40,0,0,0-2.17,6.47,82.42,82.42,0,0,0-4.52,19.69c-1.22,9.73-1.43,21.59,4.17,30.12a2.89,2.89,0,0,0,.36.44c.1.67.19,1.34.28,2,.19,1.3,2.39,2.91,3.53,2.33.59,1.84,4.13,3.72,4.15,1.3,0-.74,0-1.48,0-2.22a8.44,8.44,0,0,0,2.23,1.18c3.37,1.2,6.51-.19,9-2.49.72.15,1.34-.12,1.51-1.14l.09-.51a23.13,23.13,0,0,0,3.58-5.74c2.33-5.5,2.79-12,2.2-18.16,2.57-3.6,3.88-7.79,5.32-11.94a1.21,1.21,0,0,0,.19-.2,7.44,7.44,0,0,1,2.41-2.32,3,3,0,0,0,.53.69c2.11,1.93,4.43,3.73,7.35,3.18.26.58.52,1.17.76,1.75,0,12.29,4.16,25.49,9.8,36,.6,1.11,3.79,3.32,4,.78,0-.44,0-.88.06-1.31a32.06,32.06,0,0,0,3.29,5.73C195.4,308.16,198,309.48,198.26,307.34ZM197.47,208v.26c-.26-.1-.52-.19-.8-.27-.56-.14-1.12-.25-1.69-.35C195.77,207.68,196.63,207.79,197.47,208Zm-23.59,44.76-.23-.18a1.07,1.07,0,0,0,.68-.18c.08.32.18.63.27.94C174.36,253.09,174.11,252.91,173.88,252.71Zm-9.79-25.43a1.11,1.11,0,0,0-1.52.73c-.49,1.32-.92,2.65-1.3,4a.61.61,0,0,0,0-.14,58.56,58.56,0,0,1,.75-6.35,5,5,0,0,1,2.1,1.55C164.12,227.13,164.1,227.21,164.09,227.28Zm9.33,4.83c.13-1.21.3-2.46.53-3.73l.44-.11q-.51,2-.84,4ZM165,218c-.06,1.8-.2,3.6-.4,5.4a11.41,11.41,0,0,0-1.83-1.17,20.36,20.36,0,0,1,1.77-4.34Zm-9.09,21.24c.17-.27.32-.56.47-.84-.16,1.39-.33,2.78-.51,4.16-.13-1-.23-2-.29-3A1.08,1.08,0,0,0,155.92,239.25Zm-2.17,9.58q.36.9.78,1.77a1.21,1.21,0,0,0-.72.16l-.14.09C153.7,250.18,153.73,249.5,153.75,248.83Zm5.75-31.38c-.11.3-.23.6-.33.9a2.23,2.23,0,0,0-1.59-.5l-.2-.13c0-.1,0-.2,0-.3a1.83,1.83,0,0,0-.07-.46,3.3,3.3,0,0,0,1.31.45ZM153,217a1.5,1.5,0,0,0,0,.2l-.13.06C152.88,217.21,152.94,217.13,153,217Zm14.94,28.48a.93.93,0,0,0,1.06-.8c0-.14.09-.28.13-.43A28.89,28.89,0,0,0,170,248c-.39.76-.81,1.5-1.26,2.23a3.51,3.51,0,0,0-.67-1,15.72,15.72,0,0,1-.47-3.05C167.7,246,167.83,245.76,167.93,245.52Zm35-28.89a15.48,15.48,0,0,0-.35-1.75H203C203,215.46,203,216,203,216.63Zm-16.29-9.73h.77c1.43.1,2.86.22,4.29.37a35,35,0,0,0-5.2.2,1.07,1.07,0,0,0,.06-.57Zm2.28,14.5c0-.51,0-1,0-1.37h.19l.3,0c-.16.81-.31,1.62-.44,2.43C189,222.13,188.94,221.77,188.94,221.4Zm-8.84-12.9-1.38.28-.9-.14Zm.29,51.79a.93.93,0,0,0,.2-.41h.87a3,3,0,0,0,.82,1c.05.52.09,1,.14,1.56A17.43,17.43,0,0,0,180.39,260.29Zm11.52-57.82c-.58.07-1.16.12-1.74.16a10.15,10.15,0,0,1,.87-.75h2.52A6.67,6.67,0,0,0,191.91,202.47Zm-38.45,66c.25-1.55.53-3.09.83-4.62,0,.28,0,.56,0,.84a1.64,1.64,0,0,0,.11.45c-.12.78-.25,1.57-.4,2.34C153.84,267.78,153.63,268.1,153.46,268.44Zm40.32-2.68c.16,2,.32,4,.46,6-.2-1.55-.38-3.1-.52-4.65ZM166.35,202a2,2,0,0,0,.41.08c-1.31,0-2.63.1-3.95.17a1.73,1.73,0,0,0-.21-.17Zm-13,6.67a12.63,12.63,0,0,0-2.82.81c0-.48-.06-1-.11-1.44a2.74,2.74,0,0,0-.33-1c1.12.22,2.25.42,3.39.59A1.05,1.05,0,0,0,153.31,208.7Zm-16.55,63.48c-.16,1.52-.3,3.11-.38,4.72-.12-3.46-.15-6.93,0-10.4A78.05,78.05,0,0,1,138.08,252C137.38,258.67,137.07,265.42,136.76,272.18Zm62.42,23.43a1.73,1.73,0,0,0,.38.05l-.42,1C199.15,296.32,199.17,296,199.18,295.61ZM209.82,239a1.1,1.1,0,0,0-.53.72c-.15.49-.26,1-.4,1.49a42.8,42.8,0,0,0-.77-4.84,4.27,4.27,0,0,0,1.58.84Zm-49.06-37.62-1.65-.5c.39,0,.77.06,1.16.11A6,6,0,0,0,160.76,201.35Zm32.36,91.2a6.22,6.22,0,0,0,1.81,1.63q-.1,3-.34,6.06a43,43,0,0,1-2.75-10.2C192.23,290.89,192.65,291.73,193.12,292.55Zm-50,2.62c.42-.57.81-1.16,1.19-1.76.19,1.53.42,3,.68,4.45a2.67,2.67,0,0,0,.55,1.05C143.66,299.07,143.15,297.26,143.17,295.17Z"/><path class="cls-2" d="M191.12,148.08a23.6,23.6,0,0,0-10.5-2.87c-3.94-1.24-7.93-2.31-11.89-3.58-1.06-.34,1.76,1.83,2.07,2a103,103,0,0,0,10.13,5.11l-.84.08q-2.72-.81-5.38-1.73a40.88,40.88,0,0,0-10.65-4.3c-1.07-.23,2.16,2.07,2.6,2.28,1.44.69,2.89,1.33,4.35,1.94a52.82,52.82,0,0,0-8.18-.76l-3.45-1.13c-1-.34,1.75,1.83,2.08,2l1.12.58c-.29-.09-.57-.18-.86-.25-.09,0-.52-.14-.39.14l0,0c-1-.12-2.06-.18-3.08-.21-.22-.05-.39-.05-.46,0a1.25,1.25,0,0,0,0,1.47c0,.29,0,.56.09.83l-.11,0s0,0,0,0c-.73,0-1.46-.08-2.21-.09-.14,0-.18.06-.11.19a12.5,12.5,0,0,0,1.68,2.14h-.4a19.35,19.35,0,0,0,3.34,2.55l.1,0c4.86,4.55,15.72,4.56,20.54,2.43,0,0,0-.06,0-.11s-.37-.45-.46-.53l-.31-.26c.61,0,1.22-.12,1.81-.22s-.65-.95-.73-1l-.46-.33a31.08,31.08,0,0,0,5.86-1s0,0,0-.06c.22-.12-.82-1-1.59-1.51a6.12,6.12,0,0,0-.5-.39c2.17.65,4.35,1.28,6.53,1.91,1,.28-.29-.84-.46-1-.7-.53-1.42-1-2.15-1.48.72-.07,1.44-.17,2.16-.28a20.31,20.31,0,0,0,3.06.43c.09,0-.36-.41-.94-.89.31-.08.63-.17.94-.28C194,150,191.37,148.22,191.12,148.08Z"/><path class="cls-2" d="M153,37.45c.41,1.68,3.6,3.58,4.39,1.68.06-.14.1-.27.15-.41h0v0a11.12,11.12,0,0,0,.77-3.91v0a9,9,0,0,0,4.2,1.49,2.43,2.43,0,0,0,1.52-.29,2.85,2.85,0,0,0,2.27.14A4.49,4.49,0,0,0,169,37.55c.24.33.49.65.77,1,.92,1.07,2.88,2,4,.65a11,11,0,0,0,.65-.92,2.31,2.31,0,0,0,2.54.08,12.6,12.6,0,0,0,2.19-2.11,2,2,0,0,0,1.32-.29,7.76,7.76,0,0,0,1.4-1.27,5.15,5.15,0,0,0,.84.24l.25,0A2.59,2.59,0,0,0,186,36.19a8.81,8.81,0,0,0,3.35-2.54,7.4,7.4,0,0,0,3.51.12c2.23-.42.1-3.06-1.84-3.59a15.92,15.92,0,0,0,.47-3.33c.07-1.66-1.73-3-3.26-3H187.2a3.85,3.85,0,0,0-2.45-1h-1.17a1.24,1.24,0,0,0-1.11,1.25h0a3.16,3.16,0,0,0-1.23-.26h-1.17a1.25,1.25,0,0,0-.46.09,3.36,3.36,0,0,0-.7-.09h-2.34c-.56,0-1.41.58-1.41,1.25,0,.82,0,1.63.06,2.43a3.69,3.69,0,0,0-2.15-.68H171.9a1.36,1.36,0,0,0-1.25.48l-.09.17a2.81,2.81,0,0,0-1.64-.65h-.52a1.87,1.87,0,0,0-.34,0,1.33,1.33,0,0,0-.73.33l0,0-.13.14s0,0,0,0c-1.29-1-3.46-1.47-3.66.21,0,.22-.07.43-.1.65-1.27-.78-2.91-1-2.91.5v.62l-.54-.14a9.66,9.66,0,0,0,.54,2.18v.29c-1.18-1.07-.86-3.13-.44-4.73.54-2.11-3.86-4.1-4.66-1.72v0l-.05,0c0,.15-.06.29-.09.43-.13.39-.26.76-.4,1.14h-1.61c-.42,0-1.05.06-1.25.48a16.66,16.66,0,0,0-1.32,7.36A3.09,3.09,0,0,0,153,37.45Z"/><path class="cls-2" d="M138.79,54a50.4,50.4,0,0,0,9.63-.74c5.54,1.71,11.66.05,17.62-1.35h13.63a2.46,2.46,0,0,0,2.07-1H194a.71.71,0,0,0-.26.83c1.43,4.49,8.07,9,12.59,6.94l.59.23c1,.37,3.48.63,3.37-1.05a10.16,10.16,0,0,0-.17-1.25.78.78,0,0,0,.38-.7V54.66a9.26,9.26,0,0,1,2.31.72c2.29,1,4.87-1,1.84-2.38a16.52,16.52,0,0,0-7.1-1.45h-.36a13,13,0,0,0-2.52-1.8c-.88-.49-4.36-.93-3.91.76a17,17,0,0,0-4.31-.26,2.93,2.93,0,0,0,.89-2.13c1.12,0,2.25-.06,3.38-.06,2.54,0,3.65-3.36.88-4.07-1.17-.31-2.31-.86-3.5-1.17a2.22,2.22,0,0,0-.68-.07,19.73,19.73,0,0,0-14.08.37,2.35,2.35,0,0,0-.89.62c-.16,0-.33.06-.49.07a2.51,2.51,0,0,0-2.23-.94h-.23v-.09s.07,0,0,0a83.58,83.58,0,0,0-19.39,2.42,44,44,0,0,0-8.55,1.59c1.08-1.53-1.07-3.58-3.28-2.5a23.43,23.43,0,0,1-3.32,1.57h-2.38c0,.23,0,.45,0,.65a2.72,2.72,0,0,0-2.37,2.09,15.56,15.56,0,0,0-2.91,2C135.58,52.06,136.86,54,138.79,54Z"/><path class="cls-2" d="M155.89,386.8c0,1.42,0,2.82,0,4.23a3.11,3.11,0,0,0-1.93-1.15h-1.16c-.25,0-.32.11-.35.26a1.77,1.77,0,0,0-.82-.26h-1.45a3.79,3.79,0,0,0-2.06-1.37c-5.2-.94-8.39,1.69-10.83,6.06a1.21,1.21,0,0,0-1.08-.14c-4.6,1.84-6.72,5.73-8.32,10a12,12,0,0,0-2.14,1.65,8.14,8.14,0,0,0-3.5,4,6.84,6.84,0,0,0-.15,4.08c0,.13,0,.24,0,.37a3.54,3.54,0,0,0,1.16,2.48,7.11,7.11,0,0,0,3.47,3.26,5.06,5.06,0,0,0,4.1-.44c.68.72,1.37,1.12,1.7.46l1.26-2.58c.64-.59,1.24-1.21,1.79-1.8a1,1,0,0,0,.33-.07,15.89,15.89,0,0,0,3.18-2c4.26,1.52,7.52-4,9.58-9.92a5,5,0,0,0,3.86,2.78c.92.14,1.51-.57,1.88-1.73a2.72,2.72,0,0,0,.9.49c.85,1.11,2.7,3.21,2.91,2.05A67.33,67.33,0,0,0,159,400c.78.63,1.49.9,1.45.11-.17-3.54-1-7-1.17-10.51C159.27,388.39,155.89,385,155.89,386.8Zm-16.5,16.45.23-.12c-.23.36-.48.71-.73,1.07C139.05,403.88,139.21,403.56,139.39,403.25Zm3.34-4.1a10.25,10.25,0,0,1,1.1-.76c-.15.39-.32.78-.49,1.17A5.93,5.93,0,0,0,142.73,399.15Zm-14.91,15.31a5.13,5.13,0,0,1-1.87.5,13.57,13.57,0,0,1,.56-1.59A5,5,0,0,0,127.82,414.46Z"/><path class="cls-2" d="M239.41,415.84c-1.51-1.24-3.17-2.25-4.67-3.5a3.47,3.47,0,0,0-1.5-.33l-.84-.84c-.52-.52-2.27-.62-3.52-.31a19.29,19.29,0,0,0-14-11h0c-.43,0-.9-.45-1.41-.76a8.7,8.7,0,0,0-2.93-.05,15,15,0,0,1-.2-1.77c0-.29-.41-.46-1-.56-.08-1.76-.19-3.5-.21-5.24,0-1-3.32-.52-3.8-.39a5.77,5.77,0,0,0-3.83,2.78,7.78,7.78,0,0,0-1.31-.53c-.62-.18-4.27-.31-4.22.83a24.85,24.85,0,0,0,2.22,9.39,20.39,20.39,0,0,0,2.55,6c.25.4,1.38.55,2.5.47l.52.37c.14.46.27.9.38,1.3.29,1.07,4.56.57,4.91-.38,0-.07.05.55.08-.45h0v.23a19.79,19.79,0,0,0,.74-2.46,18.27,18.27,0,0,0,1.75,1.77c1.5,6.68,6.38,12.35,13.77,11.48a13.42,13.42,0,0,0,1.31.67,8.23,8.23,0,0,0,4,0,13.06,13.06,0,0,0,1.58.23c.75.06,3.51.2,3.71-.91a8.76,8.76,0,0,0-.38-5C237.24,417,239.82,416.18,239.41,415.84Zm-18.72-.54c0,.23.1.44.15.66-.28-.38-.54-.77-.8-1.18Zm2.06-6a11.9,11.9,0,0,0-4-2.42,9.55,9.55,0,0,0-.88-3.07A17.44,17.44,0,0,1,222.75,409.34Z"/><path class="cls-3" d="M146.32,60.91c-4.58,7.83-.4,19,3.91,26.06a24.53,24.53,0,0,0,20.33,11.58c7.21.21,14.08-3.39,19-8.43,8.44-8.65,7.5-20.92,7.44-32.05,0-.47-1.94-.14-1.93.51.06,10,.83,20-4.92,28.67A22.66,22.66,0,0,1,166,96.9c-7.54-1.83-13-8.09-16.22-14.83-2.94-6.22-5.27-15.12-1.56-21.46.23-.38-1.61-.23-1.92.3Z"/><path class="cls-3" d="M130.89,52.81c-1.7,2.31,9.22,2.55,10.16,2.58a142.45,142.45,0,0,0,26-1.84c13-1.94,27.43-6.25,40.62-4.3,7.91,1.17,6.78,9.19-1.5,10.33A12.24,12.24,0,0,0,200,61.65c-.41.3,1.38.12,1.74-.15,3.9-2.93,15-.81,13.37-9.45-1.27-6.73-19.32-3.42-23-3-13.27,1.46-26.29,4.59-39.63,5.48a107.1,107.1,0,0,1-11.19.06c-1.07,0-9.77-.48-8.57-2.12.13-.16-1.56-.11-1.9.35Z"/><path class="cls-3" d="M131.84,52.32c-.26.3-.48.6-.71.92l1.14-.43h-.07l.64.48c-.1-1.09,5.27-3,6.21-3.46a37.2,37.2,0,0,0,5.63-3.21c1.07-.76-.49-1.53-1.3-1-3.68,2.64-8.07,4.09-12,6.37-.23.13-.54.36-.54.67a10.12,10.12,0,0,0,0,1.1c0,.29.4.44.64.48h.07a1.26,1.26,0,0,0,1.14-.43c.23-.31.45-.61.71-.91.81-.93-1-1.33-1.63-.63Z"/><path class="cls-3" d="M147.33,42c-1.38,1.2-1.44,1.76-1,3.6.06.22.42.21.58.22,7.13.13,13.48.28,20.55-.95,9-1.56,18-3.64,27.17-3.13.53,0,1.3-.09,1.57-.6a8.05,8.05,0,0,0,.82-4.18c0-.21-.46-.22-.57-.22-9.81,0-19.52,1.08-29.32,1.09-5.4,0-12.59-.66-17.34,2.54-.85.58,1.1.48,1.52.19,3-2,7.61-1.67,11-1.75s6.93,0,10.39-.07c3.21,0,6.36-.53,9.56-.77,2.5-.19,5-.22,7.54-.26s6.56-.18,4.45,3.71l1.57-.6c-7-.39-13.72.56-20.54,1.77-4.41.78-8.8,1.64-13.23,2.3a42.78,42.78,0,0,1-8.69.2c-.54,0-7.8,0-4.52-2.9.8-.7-1.12-.54-1.52-.19Z"/><path class="cls-3" d="M149.07,39.54c0-7.78.75-17.84,12-13.63,4.39,1.65,7.52,1.34,11.94.05s8.41-3.12,12.86-3.66c7-.85,7.68,6.56,7.59,11.74,0,.94,1.93.59,1.94-.18.09-4.93-.2-11.34-5.95-12.72-4.82-1.15-10.49,1.6-14.94,3.07s-7.85,2.15-12.3.5c-2.85-1.06-5.81-2.18-8.82-1-6.3,2.44-6.24,10.32-6.25,16,0,.93,1.95.59,1.95-.19Z"/><path class="cls-3" d="M192.77,42.31c2.46-2.87,5.75-4.47,8.49-7,2.52-2.31,4.07-5.26,5.55-8.31,3.27-6.77,5.29-14.19,11.79-18.7l-1.42-.61-1.63,1.63,1.77.14c.11-3,.67-6,.81-8.94,0-.7-1-.58-1.38-.4a10.81,10.81,0,0,0-6.24,7.09c.65-.07,1-.13,2-.19V5.41c0-.35-.3-.53-.63-.54C204.06,4.6,204,14.65,204,20.23c0,.93,1.85.58,1.94-.19.53-4.38-1.42-7.57-5-3.39-2,2.29-1.61,5.33-1.94,8.14-.36,3.14-6.08,4.23-7.18,7.63-.23.71,1.11.5,1.38.4a10.46,10.46,0,0,0,3.64-2.7c.84-.83-1.05-1-1.59-.47a10,10,0,0,1-2.86,2.17l1.38.41c1-3.19,5.39-3.35,6.87-6.42.66-1.37.5-3.28.58-4.75a7.15,7.15,0,0,1,1.31-3.95c2.17-2.89,1.55,2.53,1.48,3.12L206,20c0-2.05.07-4.08.27-6.12a23.61,23.61,0,0,1,.81-4c.17-.59,3.47-5.43,3.47-2.71,0,1,1.72.49,1.95-.19a9,9,0,0,1,5.12-5.91l-1.38-.4c-.14,3-.7,5.93-.81,8.93,0,.9,1.4.51,1.76.14l1.63-1.62c.82-.83-.92-1-1.42-.61-5.5,3.81-8.12,9.55-10.7,15.53a50.12,50.12,0,0,1-5.72,10.62c-2.49,3.3-7,4.92-9.75,8.12-.78.91,1.08,1.06,1.59.47Z"/><path class="cls-3" d="M220.31,5a5.32,5.32,0,0,0,2.43,1.24c4.34,1.57,1.73,3.75-1.44,5.72-.08,0-.35.24-.17.35,3.67,2.31-5.81,8.23-7.36,10.41a.11.11,0,0,0,0,.16c1.82,1.45-2,3-3.08,3.71L201,33.11c-.14.1-.38.34,0,.4,7.31,1.18-1.18,4.15-3.84,5.13a44.44,44.44,0,0,0-5.86,2.6c-.32.17-.24.41.11.41a34.11,34.11,0,0,0,8.84-.91c1.12-.3,1-.89-.16-.59-.4.11-10.75,2.3-3.71-.54,1.44-.58,2.91-1.09,4.36-1.65a25.9,25.9,0,0,0,5.85-3.18c.09-.06.35-.23.18-.35a7.7,7.7,0,0,0-2.15-1.16c-2.25-.71-.09-1.45,1.16-2.28l11.38-7.58c.19-.13.34-.29,0-.4-2.79-1,4.08-5.59,4.25-5.72a11,11,0,0,0,3.22-3.83l0-.09c-2.1-2.88,2.54-3,2.66-5.84.07-1.7-4.32-2.18-5.16-3.16-.3-.36-2.11.31-1.82.65Z"/><path class="cls-3" d="M157.67,79.9c.91-.74,6,.43,7.3.5a43.57,43.57,0,0,0,6.66-.21A40.71,40.71,0,0,0,185.09,76c.36-.17.74-.61.45-1l.36.19-1.35-.69c-2.31,6.86-8.15,10.47-15.34,10.24-4.94-.15-8.58-4.7-12.25-7.44-.7-.52-2.38.46-1.48,1.13,5.36,4,9,8.13,16.12,7.7a16.55,16.55,0,0,0,14.8-11.4c.27-.81-.82-1-1.36-.7a13.57,13.57,0,0,0-1.18.74.64.64,0,0,0-.24.87c-.54-.76-6.5,2.05-7.37,2.3A35,35,0,0,1,167,79c-2.72,0-8.29-1.93-10.63,0-1,.83.53,1.52,1.28.9Z"/><path class="cls-3" d="M181.74,52.63c3.18,1.77,5.85,6.82,9.94,6.24,3.36-.48,1.37-4.16-.05-5.68-.32-.35-1.74.06-1.86.49a5.43,5.43,0,0,0,2.53,5.78c.51.31,2.15-.48,1.81-.68a5.17,5.17,0,0,1-2.43-5.41l-1.86.5a8.62,8.62,0,0,1,1.54,2.44c.63,1.47.25,1.92-1.22,1-2.43-1.49-4.08-4-6.59-5.39-.51-.29-2.14.5-1.81.69Z"/><path class="cls-3" d="M197.72,60.57a2.39,2.39,0,0,1,2-.53l-.62-.51c-.16,2.5-1.38,4.06-.52,6.59s-.66,3.19-2.4,4.6c-.89.72,1,.86,1.57.41,1.34-1.07,2.87-1.58,3-3.46a9.45,9.45,0,0,0-.69-3.39c-.42-1.48.85-3.43,1-5,0-.34-.31-.51-.62-.51-1.6,0-3.11.09-4.25,1.33-.8.87,1.08,1,1.57.42Z"/><path class="cls-3" d="M146.33,62.28c-.72-2-2.69-2.05-4.52-1.45s-1.72,2.22-.87,3.77,1.89,2.18.77,4c-.69,1.1-1.74,1.91-1.7,3.34.08,2.76,2.55,3.65,5,3.57.66,0,2.08-1,.78-1-2.35.09-4.11-1.16-3.71-3.6.24-1.44,2.15-2.31,2.13-3.81a3.75,3.75,0,0,0-.83-2.19,16.47,16.47,0,0,1-.94-1.69c-.71-1.52,1.43-2,2-.37.22.61,2.14.05,1.94-.52Z"/><path class="cls-3" d="M177.77,61.88h-.62c.27,0,.55.49.82.75,1.64-3.15,5.34-1.34,8.06-1,.9.12,2-1.16.69-1.33-3.82-.51-8.33-2.37-10.59,2-.29.57.42.59.82.59h.63c1.07,0,1.51-1,.19-1Z"/><path class="cls-3" d="M176.73,63.55c2,0,4,.65,6,.45a9.48,9.48,0,0,0,4.84-1.85c.4-.3-1.38-.12-1.75.15-2.33,1.71-5.24.53-7.82.47-.4,0-2.2.75-1.26.78Z"/><path class="cls-3" d="M178.88,62.17c.09.48.75.8,1.15.95a3.11,3.11,0,0,0,2.59-.3c.15-.09.45-.32.37-.54-.45-1.24-1.55-1.51-2.76-1.53-.37,0-1.28.18-1.35.67-.15,1.23.8,2,1.91,2.23s2.76-.06,3.13-1.24c.07-.24-.2-.35-.37-.39l-.27-.07c-.19-.06-.25-.19-.15,0l-.37.53s0,0,0,0c-.24.09-.49.31-.73.31H182a1.61,1.61,0,0,0,1.27-.58c.26-.37-.22-.6-.52-.59a2.18,2.18,0,0,0-1.15.28c-.13.1-.46.31-.37.53.16.38.82.45,1.17.54l-.37-.4c-.05.18.15,0,.3,0a1.38,1.38,0,0,1-.66-.14,1.28,1.28,0,0,1-.82-1.33l-1.34.66c.78,0,1.31.19,1.59,1l.37-.54c.23,0,.27,0,.11-.08a1.17,1.17,0,0,1-.38-.17c-.12-.07-.32-.2-.35-.35-.12-.65-2.06-.18-1.93.51Z"/><path class="cls-3" d="M163.85,68.29a4.59,4.59,0,0,0-1.59,3.14c0,1.18,2,.89,2.68,1,1.47.21,2.56,1,4.1.84,1.73-.18,3.15-1.56,4.66-2.25,1.23-.56.1-1.16-.75-.77a21.22,21.22,0,0,0-2.29,1.27c-1.57,1-2.41.57-4,0a5.63,5.63,0,0,0-1.52-.31c-1.92,0-.43-1.93.24-2.64s-1.12-.75-1.55-.3Z"/><path class="cls-3" d="M165.82,67.18c2.29-2.63.6-6.92-.85-9.56-.32-.58-2.17.09-1.93.52,1.33,2.42,3.12,6.64,1,9.08-.5.57,1.42.37,1.77,0Z"/><path class="cls-3" d="M162.43,63.45c-1.34-1.42-3.89-1.76-5.75-1.67a13.47,13.47,0,0,0-2.6.37c-.66.17-2.36,1.14-3,1-.43-.13-2.14.56-1.59.73,1,.34,2.56-.43,3.5-.75,2.32-.77,5.73-.94,7.57,1,.32.35,2.09-.35,1.82-.65Z"/><path class="cls-3" d="M160.94,63.82c-2.51,2.95-6.57.49-9.68.15-.47-.06-2.25.76-1.23.87,4.6.5,9,3.17,12.68-1.1.45-.53-1.44-.3-1.77.08Z"/><path class="cls-3" d="M157.55,62.88h-.93c-.45,0-1.23.52-1,1.08a2.45,2.45,0,0,0,.62,1.18,3.86,3.86,0,0,0,1.57.6,1.12,1.12,0,0,0,1.31-.79c.36-1.8-1.25-2.5-2.77-2.54-.55,0-1.58.86-.81,1.33.51.31.71.91,1.24,1.24.73.45,2.36-.34,1.48-1.16a4.58,4.58,0,0,0-1.9-1,1.33,1.33,0,0,0-1.67,1.53,2,2,0,0,0,2.09,1.42,3,3,0,0,0,2.6-1.55c.2-.34-.08-.67-.38-.81a4.33,4.33,0,0,0-4.41.31,1.09,1.09,0,0,0-.37,1.44c.34.6,1.4.6,2,.61s1.25-.46,1-1A2.66,2.66,0,0,0,154.45,63c-.66,0-1.45.77-.82,1.33.39.34.86.59,1.25.93.68.61,2.33-.39,1.47-1.16-.39-.34-.85-.58-1.24-.93l-.81,1.33a1,1,0,0,1,1,.75l1-1c-.14,0-.53-.16-.37,0s-.19.42.15.26a2.25,2.25,0,0,1,1.77.23l-.38-.81a.48.48,0,0,1-.92-.22c0,.9-1.34.38-.73.63a1.75,1.75,0,0,1,.35.2,3.22,3.22,0,0,1,.56.41l1.48-1.16c-.51-.31-.72-.92-1.25-1.24l-.81,1.33c.77,0,1.1.43,1,1.18l1.3-.81c-.63-.15-.7,0-.91-.59-.34.34-.69.19-1,1.19h.93c1.14,0,1.46-2,.15-2Z"/><path class="cls-3" d="M176.47,58.7v-.93c-1,.24-.88.47-1.24.7,1.36-.06,3.49-.72,1.86-2.23-.47-.43-2-.14-1.9.65.6,3.88,6,.91,3.4-2.2-.41-.49-1.78-.15-1.88.5-.24,1.53.55,2.2,1.94,2.63.45.14,1.48-.09,1.55-.67s.23-1.23.31-1.86l-1.94.36a3.73,3.73,0,0,0,3.09,2.52c.46.06,1.21-.21,1.33-.71a10.48,10.48,0,0,0,.31-2.79l-1.86.49a6,6,0,0,0,3.73,2c.69.15,2.29-.89,1.16-1.13a4.85,4.85,0,0,1-3.1-1.69c-.37-.45-1.86-.16-1.87.49a11,11,0,0,1-.31,2.8l1.33-.7a2.64,2.64,0,0,1-1.88-1.84c-.28-.68-1.84-.31-1.93.37s-.23,1.23-.31,1.86l1.55-.67c-.94-.29-1.32-.71-1.17-1.71l-1.86.5c.76.89.64,3.09.31.9l-1.86.65c.86.2,1,.29.2.25-.31,0-1,.28-1,.7v.93c0,.89,2,.51,2-.21Z"/><path class="cls-3" d="M157.76,59.07c.24.41.38.83.62,1.24s1.88-.05,1.93-.52c.18-1.73-.73-2.77-2.23-3.48-.37-.17-1.88,0-1.88.58a7.74,7.74,0,0,0,.31,2.49l1.93-.52a3.76,3.76,0,0,0-3.25-2c-.34,0-1.72.17-1.72.65v1.25a18.64,18.64,0,0,0,2.05-.52c-.66-2.45-5.15-2.7-4.66.21l1.91-.59c-1.5-1-2.62-1.48-4.34-.82-1.28.5-.05.71.67.43.33-.13,1.57.84,1.87,1s2-.1,1.88-.58a1.62,1.62,0,0,1,0-1q-.74.27-.09.45a2.06,2.06,0,0,1,.86,1.4c.11.42,1.84-.06,1.84-.52V57c0,.21-1,.43-1.5.64a3,3,0,0,1,2.5,1.74c.24.41,2.09-.13,1.95-.52a7.67,7.67,0,0,1-.3-2.48l-1.87.58c1.48.7,2.3,1.69,2.12,3.35l1.94-.52c-.24-.41-.38-.83-.62-1.24s-2.09.26-1.93.52Z"/><path class="cls-3" d="M198.15,41.24c-.59,1.78,9.9,5.59,11.37,6.18.5.21,2.26-.56,1.56-.84-1.27-.51-11.4-4.44-11-5.62.18-.54-1.73-.28-1.92.28Z"/><path class="cls-3" d="M149.46,40.88h-.93a1.79,1.79,0,0,0-1.15.53.43.43,0,0,0,.19.78,21.66,21.66,0,0,1,6,1.84c.59.29,2.36-.54,1.53-.94a22.85,22.85,0,0,0-6.4-2.13c-.32.37-.63.92-1,.92h.93a1.48,1.48,0,0,0,1.27-.47c.25-.38-.21-.53-.53-.53Z"/><path class="cls-3" d="M150.68,41.19a12.18,12.18,0,0,0,7.69,3c.83,0,2-1.22.71-1.25a10.49,10.49,0,0,1-6.61-2.57c-.57-.53-2.4.23-1.79.8Z"/><path class="cls-3" d="M153.3,41.91a44.43,44.43,0,0,0,7,2.86c.68.2,2.29-.8,1.17-1.13a41.42,41.42,0,0,1-6.66-2.73c-.62-.3-2.38.57-1.52,1Z"/><path class="cls-3" d="M153.77,39.87A44.37,44.37,0,0,0,163.21,43c.44.09,2.1-.63,1.59-.73a43.9,43.9,0,0,1-9.21-3.07c-.51-.23-2,.57-1.82.65Z"/><path class="cls-3" d="M158,40c2.89,1.36,6.09,1.87,9.19,2.55.67.15,2.29-.87,1.16-1.12-3-.65-6.06-1.11-8.83-2.42-.61-.29-2.37.59-1.52,1Z"/><path class="cls-3" d="M161.52,39.34c3.94.43,7.51,2.35,11.5,2.49.44,0,2.22-.81,1.23-.84-4-.14-7.56-2.06-11.49-2.48-.45,0-2.24.73-1.24.83Z"/><path class="cls-3" d="M167,39.65c4,1.21,8.16,1.26,12.11,2.48.5.15,2.24-.62,1.57-.82-4-1.22-8.16-1.27-12.11-2.49-.5-.15-2.24.62-1.57.83Z"/><path class="cls-3" d="M173.5,39.14a13.06,13.06,0,0,1,4.27.75,41.27,41.27,0,0,0,4.9,1.1c.6.08,2.28-.88,1.19-1-3.32-.44-6.71-2.22-10.09-1.87-.93.1-1.61,1.19-.27,1Z"/><path class="cls-3" d="M177.93,38.89c3.2.12,6.1,1.76,9.32,1.87.79,0,2-1.14.73-1.18-3.22-.11-6.1-1.75-9.32-1.87-.79,0-2,1.13-.73,1.18Z"/><path class="cls-3" d="M184.37,38.64a5.63,5.63,0,0,1,2.26.51c.94.28,1.87.57,2.82.78s2-1.11.68-1.39c-1.92-.41-4.11-1.68-6.11-1.2-1.2.29-.84,1.59.35,1.3Z"/><path class="cls-3" d="M189.35,38.54a3,3,0,0,0,1.65.76,1.29,1.29,0,0,0,1.26-.59c.21-.42-.18-.75-.58-.78a1.66,1.66,0,0,1-.83-.49c-.61-.56-2.31.35-1.5,1.1Z"/><path class="cls-3" d="M154,95.42c.72,1.24.27,3-.3,4.26-.16.34,1.67.18,1.91-.33.58-1.24,1.05-3.18.32-4.45-.29-.5-2.11.21-1.93.52Z"/><path class="cls-3" d="M187.27,93.24c0,1.77-.29,3.58.31,5.29.16.45,2.07-.14,1.93-.52-.6-1.7-.33-3.52-.31-5.28,0-.3-1.92,0-1.93.51Z"/><path class="cls-3" d="M141.38,195c1,1.83,6,1.85,7.71,2.11a128.62,128.62,0,0,0,15,1.33,136.91,136.91,0,0,0,27.33-2.23c3.78-.63,7.5-1.55,11.27-2.23,5.87-1.05,7.5,1.89,5.79,7.09-.23.69,1.71.43,1.93-.24,1.12-3.39,1.6-7.78-3.1-8.14a24.48,24.48,0,0,0-7,.7c-5.44,1.16-10.89,2.14-16.4,2.88a127.63,127.63,0,0,1-26.43.65c-2.79-.22-5.56-.61-8.32-1-1-.15-5.37-.36-5.93-1.4-.37-.67-2.24,0-1.93.52Z"/><path class="cls-3" d="M140.82,197.18c-1.24,2.8-.64,6.16-.57,9.13,0,.18.46.15.55.15,12.75-.8,25.49,0,38.25-.17,10.08-.11,20.58-.42,29.88-4.73.3-.15.63-.68.06-.68h-1.13c-.43,0-2.21.94-1.25.94,1.62-.07,1.06.22-1.67.74a34.64,34.64,0,0,1-7.32,1.79,90.38,90.38,0,0,1-10.12.92c-6.94.35-13.89.2-20.83.08-5.82-.1-11.64-.17-17.45,0-2.17,0-7,1.41-7.11-1.64-.09-2.25-.32-4.7.62-6.81.16-.35-1.68-.17-1.91.33Z"/><path class="cls-3" d="M132.05,107.23c3,6.28,4.3,13.09,5.84,19.83,1.68,7.34,4.16,14.45,5.78,21.82,1.7,7.79,2.88,15.69,4.29,23.54,1.52,8.45,3.13,16.85,3.26,25.47,0,1,2,.74,2-.14-.24-15.86-4.09-32.09-7.21-47.59-1.5-7.48-4-14.64-5.77-22s-3-14.63-6.22-21.43c-.41-.86-2.32-.3-1.93.52Z"/><path class="cls-3" d="M133.67,106.2a69.38,69.38,0,0,0,9.85-3.47l-1.32,0c1.44,9.62,4.5,18.83,7.27,28.13,2.88,9.63,4.41,19.49,5.69,29.45,1,7.87,2.44,15.87,2.47,23.82,0,3.16-1.27,11.19,1.56,13.49.45.36,2.2-.38,1.81-.7-2.84-2.3-1.43-11.18-1.45-14.37,0-8.19-1.65-16.53-2.7-24.63a178.21,178.21,0,0,0-5.45-27.58c-2.72-9.32-5.83-18.49-7.27-28.13-.06-.41-1.13-.1-1.31,0a66,66,0,0,1-9.34,3.3c-1.15.28-.95,1,.19.73Z"/><path class="cls-3" d="M203.15,100.88a30.1,30.1,0,0,1-2.26,9c-1.46,3.79-1.79,8.48-2.5,12.48-1.51,8.53-3,17.09-4.18,25.67A333.2,333.2,0,0,0,191.3,197c0,.49,1.14.24,1.35.14l1.12-.56c1.2-.6.1-1.24-.76-.81l-1.13.56,1.35.15A345.16,345.16,0,0,1,196.4,146c1.11-8,2.57-15.88,3.92-23.8.61-3.57,1.32-7.12,2.09-10.66.8-3.71,2.43-7,2.67-10.85,0-.8-1.89-.41-1.93.24Z"/><path class="cls-3" d="M204.32,100.24A26.18,26.18,0,0,1,210,101c4.56,1.15,1.93,4.49,1.12,6.59a119.84,119.84,0,0,0-4.32,13.59,170.75,170.75,0,0,0-4.15,26.33c-.85,9-1.29,18-1.93,27-.55,7.56-2.51,15.61-.43,23.07.22.76,2.15.24,1.94-.52-1.91-6.82-.25-14,.29-21,.66-8.4,1.09-16.81,1.76-25.21,1.32-16.58,3.95-33.07,10.87-48.32.06-.13.12-.34,0-.45-2.95-2.41-6.39-2.94-10.12-3-.81,0-2,1.18-.72,1.22Z"/><path class="cls-3" d="M154.05,149.55c-.07,3.2,9.22-4.2,9.63-4.54.95-.8,1.88-1.61,2.79-2.45,1.44-1.31,9.25,1.81,11.22,1.93,3.59.23,6.47-.23,9.71,1.74,2.2,1.33,3.68,3.07,6.32,3.42.45.06,2.09-.66,1.59-.73-4.13-.55-6.52-5.08-10.91-5.14a43.23,43.23,0,0,1-10-1,20.59,20.59,0,0,0-6.7-.87,5.5,5.5,0,0,0-4,1.77c-1.26,1.11-2.55,2.18-3.86,3.23-.61.48-3.86,3.09-3.84,2.13,0-.27-1.91,0-1.93.52Z"/><path class="cls-3" d="M155.37,155.37c5.27,2.64,9.41,6.34,15.58,5.91a33.58,33.58,0,0,0,9.47-2.26c3.38-1.29,7.6-5.64,11.24-5.3.54.05,2.26-.87,1.2-1-6-.56-10,4.62-15.51,6.4s-9.91,1.41-14.85-1.68c-1.78-1.11-3.7-2-5.58-3-.5-.25-2.29.51-1.55.88Z"/><path class="cls-3" d="M154.05,99.74c-2.05,5.6,6.11,7,9.77,7.69s4.1,4.68,4.65,7.71c.93,5.16,1.13,10.29,3.08,15.22.25.66,1.92.32,1.93-.36.1-7.47,1.18-15.6,7-20.84,3.9-3.51,6.17-7.24,8.74-11.74.48-.85-1.47-.7-1.82-.1-1,1.69-1.92,3.37-2.82,5.08-1.92,3.66-5.62,5.27-7.9,8.47-4,5.64-5.05,12.55-5.14,19.34l1.94-.37c-2.67-6.77-1.15-15.81-5.32-21.85-2.56-3.69-14.86-1.1-12.17-8.47.26-.72-1.69-.48-1.94.22Z"/><path class="cls-3" d="M189.11,93.83c1.62,2.59,5.29,2.62,8,3.49,4.95,1.58,7.54,5.29,9.42,9.91l1.32-.9c-8.18-.09-16.45-1.8-24.23,1.34-5.67,2.28-10.83,7.19-10.38,13.66,0,.77,2,.33,1.93-.51-.46-6.72,5.56-11,11.26-12.92,6.33-2.19,14.14-.38,20.71-.3.36,0,1.58-.27,1.32-.89-1.2-2.95-2.64-6.08-5.29-8a15.54,15.54,0,0,0-3.83-2.16c-2.39-.89-7-1.18-8.44-3.51-.41-.65-2.27,0-1.79.81Z"/><path class="cls-3" d="M153.3,96a61.68,61.68,0,0,1-8.14,3.62,13.26,13.26,0,0,0-3.14.9c-3.15,2-4.76,5.37-7.9,7.33-.49.31-.46.79.2.75,9.08-.6,22.3-2.26,29.9,3.74,4.53,3.58,4.76,11.2,6.2,16.33.17.61,2.1.09,1.93-.52-1.33-4.76-1.77-10-4.38-14.28-2.51-4.13-7.59-5.37-12.05-6a94.08,94.08,0,0,0-11.38-.69c-1.86,0-3.72.06-5.58.14-2.13.08-3.16.87-1.3-.77,3.06-2.68,4.88-5.18,9-6.53a59.72,59.72,0,0,0,7.81-3.57c1.16-.58-.6-.78-1.18-.49Z"/><path class="cls-3" d="M164,131.08c6.13.07,12.51,1.21,18.46-.73.14,0,.84-.35.56-.59-4.89-4.23-12.45-1.34-18-4.09-1.06-.52,5.28-3.11,5.71-3.22,1.84-.5,3.72-.81,5.57-1.23a19.89,19.89,0,0,0,6.53-2.35c.83-.53-1.12-.34-1.49-.11-5.74,3.65-13.41,2-18.76,6.88-.07.07-.14.21,0,.29,5.54,3.62,13.54.12,18.62,4.51l.56-.59c-5.19,1.69-11.17.46-16.53.4-.43,0-2.21.82-1.24.83Z"/><path class="cls-3" d="M165.17,130.8c4.39-2.31,8.19-5.9,13.07-7.16.11,0,1.33-.57.71-.69-1.81-.33-15.26-1.28-15.07-3.26,0-.28-1.87-.08-1.93.51-.22,2.34,13.52,3.16,15.41,3.51l.71-.69c-5.3,1.38-9.26,5-14,7.51-1.13.6.66.51,1.12.27Z"/><path class="cls-3" d="M162.54,119.93c1.1,0,1.88-.59,1.91-1.71,0-.33-.3-.34-.59-.34h-1.13c-.45,0-1.37.12-1.34.72a4.49,4.49,0,0,0,.56,1.65c.33.66,2.21,0,1.93-.54a4.52,4.52,0,0,1-.56-1.67c-.45.27-.89.84-1.34.84h1.13c-.2,0-.4-.33-.59-.47a1.57,1.57,0,0,1-.11.68c-.07.14,0,0,.08,0a1.52,1.52,0,0,1,.8-.21,1.59,1.59,0,0,0-1.27.52c-.25.37.21.58.52.57Z"/><path class="cls-3" d="M179.52,119a.44.44,0,0,1-.36-.24.94.94,0,0,1,0,.16.94.94,0,0,0,.22.46c.56.55,1.11.34,1.75.05a.66.66,0,0,0,.3-.65v-.42c0-1-1-.75-1,.14v.42c0,1,1,.75,1-.14v-.42c0-1-1-.75-1,.14v.42a1.11,1.11,0,0,1,.31-.66c-.14.07-.29.09-.22,0l.65.18c0-.07-.06-.06,0,0,0-.09-.07-.19-.1-.28a1,1,0,0,0-.91-.67,1.27,1.27,0,0,0-1.26.59c-.2.43.17.8.59.84Z"/><path class="cls-3" d="M180,118.89c-.42,2,3.27,1.23,4.28,1.19-.3-.14-.59-.29-.88-.44.45,4.62-1.05,9.89,2.33,13.71.58.65,2.42-.12,1.77-.85-3.23-3.65-1.74-8.93-2.17-13.38,0-.38-.6-.46-.88-.44s-2.51.12-2.5.06c.2-.95-1.78-.71-1.95.15Z"/><path class="cls-3" d="M160.91,120.94c.27.5-1.52,3.6-1.79,4.22a15.08,15.08,0,0,0-1.69,5c-.06,1,1.91.74,1.95-.14.11-2,1.31-4,2.12-5.83.43-1,1.78-3,1.17-4.12-.42-.76-2.26,0-1.76.86Z"/><path class="cls-3" d="M170.57,262.47c-3.7-1-4.73,7.3-5.25,9.36-2.68,10.63-6.26,20.86-6.45,31.94,0,.9,1.92.53,1.94-.2.16-9.27,2.53-18.13,5.11-27,.47-1.62,3.57-12.95,3.5-13,.69.19,2.28-.85,1.15-1.15Z"/><path class="cls-3" d="M171.05,263.78c5.31,0,5.81,7.63,6.56,11.43,1,5,2.21,9.91,3.47,14.85,1.14,4.43.91,12.12,5.85,14.29.86.37,2.25-.86,1.11-1.36-3.42-1.49-3.83-7.28-4.43-10.45-.9-4.82-2.35-9.52-3.36-14.32-1.15-5.49-1.34-16-9.05-15.92-1.13,0-1.46,1.49-.15,1.48Z"/><path class="cls-3" d="M209.65,202.75c-.46,2.51.41,5.61.92,8.07.94,4.49,1,9.17,1.42,13.73.87,9.81,2.88,19.49,3.68,29.33a288.75,288.75,0,0,1,.75,31.82c-.11,4-1.55,7.9-1.72,11.82a30.46,30.46,0,0,1-.44,3.42c-.1.59-.22,1.17-.35,1.75q-1,1.83,1.06.72c-.32-.81-2.24-.24-1.93.52.23.55.35.7.94.79a1.33,1.33,0,0,0,1.26-.57c1-1.42,1-3.62,1.25-5.25.47-3.39,1.37-6.68,1.74-10.1,1-9.11.37-18.79-.13-27.92a296,296,0,0,0-3.13-29.7c-.74-4.69-1.23-9.33-1.61-14.07-.36-4.47-2.57-10.12-1.76-14.54.16-.9-1.81-.61-1.95.18Z"/><path class="cls-3" d="M187.65,307.32c0,2.33,4.2,1.34,5.53,1.1a41.62,41.62,0,0,0,5.27-1.37c4.57-1.43,9.88-.69,14.6-.63.65,0,2.09-1,.78-1-5-.07-9.94-.33-14.91.58-1.41.26-9.29,3.3-9.34.78,0-.51-2-.16-1.93.52Z"/><path class="cls-3" d="M139.11,207.25c-.19,18.19-5.9,35.4-8,53.32-1,8.77-.41,17.7-.51,26.51-.07,6.3-.3,13.22,2.3,19.11a.75.75,0,0,0,.64.46c7.49.28,14.92-2.47,22.35-.62.85.21,2.28-1,1.1-1.33a30.13,30.13,0,0,0-10.88-.52c-2.34.24-4.67.63-7,.9-4.16.47-5-.51-5.75-4.11-2-9.18-.83-19.78-.82-29.11,0-21.91,8.3-42.79,8.52-64.75,0-1-1.95-.76-1.95.14Z"/><path class="cls-3" d="M214.16,306.56c0,2.49,0,5.19,1.79,7.13.45.5,1.85.33,1.86-.5a43.22,43.22,0,0,0,.05-5.09,5,5,0,0,0-.71-2c-.24-.41-1-.29-1.37-.29s-1.63.87-.82,1.29c2.37,1.23,4.39,2.87,7.18,3,.53,0,2-.67,1.07-1.28a28.08,28.08,0,0,1-3.81-3.25l-1,1.15a4.14,4.14,0,0,1,1.78.5c.82.38,2.23-.8,1.11-1.32a6.13,6.13,0,0,0-2.73-.62c-.41,0-1.49.62-1,1.15a29.21,29.21,0,0,0,4.09,3.52c.36-.43.71-.86,1.07-1.28-2.47-.09-4.25-1.74-6.36-2.84-.27.43-.55,1.12-.82,1.12h.56a2.27,2.27,0,0,1-.8-.13c1.09,1.87.5,4.45.47,6.5.62-.17,1.24-.29,1.86-.46-1.59-1.76-1.59-4.14-1.59-6.39,0-1-2-.72-2,.16Z"/><path class="cls-3" d="M129.29,307.18c-3.35,3.08-6.79,3.85-6,9.16.07.48.81.5,1.14.41,3.17-.91,5.13-3.54,7.8-5.31,1.11-.73-.5-1.36-1.28-.87-2.42,1.52-3.07,4.08-3.72,6.72-.09.36.35.6.64.62,4.92.42,8.91-5.25,13.18-6.9,1.23-.48.14-1.52-.86-1.14a23.84,23.84,0,0,0-5,3c-1.73,1.21-4.43,3.85-6.69,3.66l.64.63c.55-2.2,1-4.4,3-5.7l-1.28-.87c-2.3,1.52-4.14,4.07-6.87,4.86l1.14.4c-.7-4.54,2.54-5.22,5.32-7.77,1-.89-.57-1.54-1.28-.88Z"/><path class="cls-3" d="M151.53,207.44c2.24,3.82-1.57,10.2,1.7,13.38,2.7,2.62,3.45,4.39,3.44,8.16a9.4,9.4,0,0,0,2.82,7.31c.31.32,1.71-.13,1.86-.5l1.05-1.6c.41-.44-1.43-.19-1.75.15-.92,1-.72.64-1.2,1.79l1.86-.5c-4.08-4.22-.75-10.26-4.66-14-4.69-4.56-.27-9.68-3.18-14.66-.28-.48-2.09.25-1.94.52Z"/><path class="cls-3" d="M198.37,206.87c.11,4.74.86,9.42-1.43,13.78a38.31,38.31,0,0,0-2.51,5.3c-1,2.85-.4,5.82-4.23,6.8-1.14.29-.93,1.07.21.77,4.17-1.06,5.23-3.78,5.93-7.87.56-3.22,3.16-5.82,3.95-9s.09-7,0-10.27c0-.47-2-.13-1.93.52Z"/><path class="cls-3" d="M159.45,307.86c.15,11.56,4.22,23.46,2.91,34.93-1.13,9.92-7.47,18.43-7.79,28.53,0,1,1.93.66,2-.16.3-9.52,5.66-17.88,7.56-27.09,1-4.84.23-9.66-.44-14.49-1-7.3-2.14-14.5-2.24-21.89,0-1-2-.64-2,.17Z"/><path class="cls-3" d="M135.05,315.85c.86,7.2-2.18,13.86-1.84,21s1.9,14,2.82,21c1.3,9.81,5.43,21.21,2,31-.14.41,1.73.18,1.91-.33,3.2-9.14-.14-20.23-1.72-29.41-1.2-6.94-2.29-14-3-21-.75-7.72,2.64-15,1.71-22.71,0-.42-2,0-1.93.52Z"/><path class="cls-3" d="M189.73,311c1.46,12.62-1,25.11.56,37.68a147.81,147.81,0,0,0,4,19.09c1.23,4.68,3.4,9.43,3.13,14.3l1.93-.52a.76.76,0,0,0,0-.15c0-.47-2-.11-1.93.52a.76.76,0,0,1,0,.15c0,.49,1.9.08,1.93-.52.24-4.34-1.53-8.43-2.67-12.59a177.76,177.76,0,0,1-4.22-19.07c-2.09-13.09.72-26.23-.81-39.41-.06-.5-2-.09-1.93.52Z"/><path class="cls-3" d="M214.13,309.82c.08,10.57,1.61,21,2.28,31.57.76,12.08-4,23.75-4.24,35.8,0,.93,1.94.59,2-.19.22-11.05,4.08-21.65,4.34-32.68.27-11.59-2.3-23.08-2.39-34.68,0-.94-1.95-.59-1.94.18Z"/><path class="cls-3" d="M197.54,379.17c-.11,5.87-1.29,11.58-1.83,17.4s1.54,10.49,2.8,15.93c.16.67,2.1.18,1.93-.52-1.4-6-3.24-10.81-2.66-17.16.49-5.33,1.59-10.52,1.69-15.9,0-.8-1.92-.39-1.93.25Z"/><path class="cls-3" d="M199.7,413.74c2.48,1.12,5.47.83,7.93,1.95.44.2,1.84.11,1.84-.61v-2c0-.93-2-.57-2,.19v2c0-.21,1.06-.41,1.64-.62-2.48-1.12-5.39-.83-7.86-1.95-.67-.31-2.45.63-1.55,1Z"/><path class="cls-3" d="M200.53,405.76c3.38,2,7.2,3.11,9.88,6.12,2.31,2.58,2.45,6.74,4.62,9.63,3.77,5,11.75,5.59,17.35,4.17,4.34-1.11,10.08-4.11,9.28-9.38-.84-5.47-8.57-8.87-13.09-10.34-.51-.16-2.26.62-1.56.85a24.07,24.07,0,0,1,11.16,6.94c6.44,7.54-6.31,11.93-12.27,11.53-6.42-.42-10.54-5-12-10.86-1.4-5.53-7.25-6.81-11.53-9.37-.52-.31-2.2.47-1.8.71Z"/><path class="cls-3" d="M212.18,377.19c-.85,6.7,3.82,26.85,13.81,23.9,1.16-.34.87-1.48-.3-1.13-8,2.37-12.23-17.69-11.57-23,.11-.87-1.85-.55-1.94.2Z"/><path class="cls-3" d="M198.5,390.85c-1,3.17,11.44,4.44,13.32,4.48.88,0,2-1.3.7-1.32s-12.67-1.45-12.07-3.33c.27-.84-1.7-.61-1.95.17Z"/><path class="cls-3" d="M219,413.94c.5-3.37,6.81-5.12,9.36-5.22.34,0,2-.79,1.05-.77A50.79,50.79,0,0,0,218,410l.63.41c2.71-1.42,5.09-3.25,6.26-6.15.07-.19-.21-.22-.33-.22-3.33,0-6.67.15-9.31,2.42-.34.29.3.31.46.3,3.42-.23,5.75-2,8.12-4.36.14-.13.11-.25-.08-.29-3.55-.85-6.65.93-9.91,2.11l1.07.23c2.08-1.23,3.38-3.24,5-5,.21-.22,0-.3-.25-.31-1.06,0-8.11-1.12-5.44,1.69.33.35,2.11-.35,1.82-.65-.66-.69-1.77-.52-.82-.44.75.06,1.5.12,2.25.16.38,0-.76,1.33-.7,1.25a12.9,12.9,0,0,1-3.35,3.24c-.81.48.83.31,1.07.23,1.18-.43,2.34-.92,3.51-1.39,3.43-.89,4.39-.73,2.89.46-.26.25-2.58,1.57-1.43,1.31a17.15,17.15,0,0,1,2.95-.2c1.11,0-1.38,2.87-1.07,2.5a12.3,12.3,0,0,1-3.84,2.85c-.93.49.15.53.64.41a44.47,44.47,0,0,1,10-1.86l1.05-.76a18.3,18.3,0,0,0-7.84,2.26c-1.59.84-4,2.27-4.29,4.23,0,.21,1.85.07,1.93-.51Z"/><path class="cls-3" d="M220,398.47c.42-4.15,4.07-7,7.82-8.12.26-.08.67-.31.67-.66v-2c0-.16.11-.33-.07-.4-7-2.93-9.32,4.93-10.44,10.37l1.9-.5c-2.27-2.09-4-2-6.88-1.14-.27.08-1,.4-.81.82,3,6.95,15.94,2.45,21.36,2.31.56,0,1.7-.91.69-1.2-3.69-1.05-7.08-2.73-10.95-3-.53,0-1.35.25-1.33.88A4.67,4.67,0,0,0,223,399c.44.62,2.3-.07,1.79-.8a3.64,3.64,0,0,1-.9-2.79l-1.33.88c3.73.23,7,1.88,10.52,2.9l.69-1.2c-4.85.13-17.11,4.32-19.65-1.6l-.81.82c2-.61,3.24-.63,4.81.82.48.44,1.72.2,1.87-.5a30.74,30.74,0,0,1,2.07-6.89c.15-.32,4.77-5.89,4.77-2.37,0,.83.23,1.11-.42,1.37-3.9,1.6-7.91,4.58-8.37,9.06-.09.89,1.87.56,1.95-.2Z"/><path class="cls-3" d="M191.49,320.43c3.6.12,7,.84,10.64.45,4.54-.49,9-2.46,13.23-4.07.58-.22.86-.93,0-.93h-.67c-.66,0-2.08,1.09-.78,1.09-3.53,0-7.71,2.27-11.5,2.91-3.31.55-6.83-.36-10.16-.46-.66,0-2.08,1-.78,1Z"/><path class="cls-3" d="M214.9,418.29c7.11,6,18.76,5.92,24.52-1.89.48-.65-1.45-.42-1.78,0-5.13,7-14.8,6.35-20.94,1.15-.47-.4-2.25.34-1.8.72Z"/><path class="cls-3" d="M199,412.26a8.74,8.74,0,0,1,4.76,1.45c.47.3,2.1-.48,1.82-.66a9.7,9.7,0,0,0-5.33-1.58,2.51,2.51,0,0,0-1.37.36c-.3.2-.26.43.12.43Z"/><path class="cls-3" d="M154.57,371.31a27.44,27.44,0,0,0,.05,10.06c.83,3.83,3.66,6.81,4.64,10.55.69,2.63,1.08,13.51-2.13,14.22a14,14,0,0,0-7.31,3.93l1.69-.15a14.45,14.45,0,0,1-1.43-3.87c-.16-.9-2.1-.4-1.93.52a16,16,0,0,0,1.59,4.2c.3.61,1.38.19,1.7-.14,2.31-2.39,5.34-3.09,8.46-3.66.32-.06.79-.37.8-.74.2-5.48,2.44-12.52-.51-17.64-3.41-5.93-4.67-10.54-3.67-17.42.15-1-1.83-.72-2,.14Z"/><path class="cls-3" d="M158.89,399c-5.15,1.81-9.41,4.29-12.75,8.68-2.15,2.82-3.44,6.15-5.35,9.11-3.87,6-14.47,9-20.18,4.08-2.35-2-2.3-5.6-1.46-8.27,1.29-4.09,5.61-5.91,8.87-8.16A24.78,24.78,0,0,0,138.44,389c.1-.38-1.79-.11-1.9.36a24.35,24.35,0,0,1-6.38,12.16c-3.17,3.24-7.56,4.85-10.74,8-3.81,3.78-4,11.68,1.86,13.67,6.1,2.08,13.36.23,18.42-3.49,3.44-2.53,4.91-6.84,7-10.37,3-5,7.33-7.93,12.81-9.85,1.3-.46.06-.66-.66-.41Z"/><path class="cls-3" d="M117.84,415c-.79,6.45,8.67,5.39,12.69,5.36.6,0,2.09-.92.8-.91-3.62,0-12.28,1.07-11.57-4.74.07-.62-1.85-.24-1.92.29Z"/><path class="cls-3" d="M124,410.33c.66-.21,3.24,2.62,4.16,3,.39.17,1.72,0,1.73-.59.06-2.6.43-5.22-.5-7.71l-1.87.64a8.91,8.91,0,0,0,4.85,2.16c.47.06,1.62-.1,1.56-.78a10.48,10.48,0,0,0-1.58-4.67l-1.27.93a14.12,14.12,0,0,1,4.15.93c.52.17,1.74,0,1.73-.73a10.28,10.28,0,0,0-.5-3.49c-.45.27-.9.85-1.34.85h3.53c.3,0,2-.69,1.15-1.06-3.72-1.58-12-.23-12.94-5.37l-.84.73c1-.21,3-.84,4-.1s.55,2.83.48,3.77,1.7.26,1.93-.24c.72-1.57,1.18-3.78,2.95-4.53l-1.35-.14c1.42,4.59-1.84,5.45-5.73,5.77-2.65.22-5.3.26-7.83,1.15-.65.23-.8.9,0,.95,4.57.24,8.63-1.79,13.13-2,.71,0,2-1.16.75-1.09-4.46.23-8.63,2.26-13.13,2v.94c4.85-1.7,17.51.75,14.73-8.23-.15-.49-1-.27-1.34-.14-2.46,1.05-3.07,3.28-4.12,5.57l1.93-.24c.4-5.24-2.17-5.37-6.66-4.41-.3.07-.91.34-.83.75,1.06,5.62,9.4,4.19,13.33,5.85.38-.34.76-.92,1.14-.92h-3.53c-.32,0-1.54.15-1.34.71a10.38,10.38,0,0,1,.5,3.5l1.74-.75a21.14,21.14,0,0,0-4.94-1.11c-.42,0-1.63.32-1.28.92a9.26,9.26,0,0,1,1.45,4.43l1.56-.79a7.65,7.65,0,0,1-4.24-1.87c-.39-.32-2.13-.06-1.87.64.91,2.41.57,4.91.51,7.44l1.73-.59c-2.2-1-3.27-3.9-5.95-3.05-1.13.36-.89,1.33.26,1Z"/><path class="cls-3" d="M141.06,389.7c-.29,2,4.42.8,5.28.63,4.33-.87,7-3.66,10.79-5.65,1.16-.61.12-1.73-.88-1.2-2.16,1.14-3.94,2.79-6.06,4-.52.3-7.16,2-7.17,2.1.15-1-1.83-.79-2,.13Z"/><path class="cls-3" d="M139.41,316c5.76-.64,12.23,1.15,17.4-2.28,1.09-.73-.54-1.23-1.25-.75-4.56,3-10.82,1.19-15.94,1.76-1,.11-1.54,1.41-.21,1.27Z"/><path class="cls-3" d="M215.92,104.6c1.42,1.47,6.2,3.3,5.62,5.78-.9,3.82-2.8,7.37-4.14,11.05-3,8.09-3.12,15.78-3.08,24.3,0,8.05-1.73,15.94-3.65,23.71C209.06,176,208.78,184,205.79,190c-.45.92,1.5.79,1.83.13,2.6-5.29,2.65-11.55,4.07-17.2,2.27-9,4.43-18,4.58-27.42.15-9.87.51-18,4.27-27.3a64.5,64.5,0,0,0,3.3-9.58c.29-1.23-5.52-4.21-6.14-4.85s-2.38.19-1.78.8Z"/><path class="cls-3" d="M141.49,191.85c-.2-6.57-2.41-12.91-2.28-19.47.06-3.08.67-6.15.55-9.23-.18-4.41-1.5-8.66-2.46-13-1.67-7.56-2.77-15.43-6.34-22.37a53.34,53.34,0,0,1-3.61-9.08c-1.57-5.13.12-7.93,4.67-10.74,1.12-.68-.59-.89-1.18-.52a20.16,20.16,0,0,0-5.39,4.46c-1.79,2.22-.74,4.9,0,7.32a49,49,0,0,0,3.61,9.08c2.18,4.19,3.22,8.46,4.28,13,2.28,9.89,4.9,19.24,4.08,29.44-.58,7.31,2,14.27,2.17,21.55,0,.57,1.95.2,1.93-.52Z"/><path class="cls-3" d="M122.19,113.83c-10.69,7.15-11.82,21.53-11.94,33.26,0,4.6.28,9.08-1.06,13.56-1.07,3.58-3.88,6.79-5.4,10.23-3.44,7.77-4,18-4.16,26.34a.69.69,0,0,0,.66.68c5.57.42,10.28,1.11,15.25,3.88.48.27,1.48.22,1.66-.45.6-2.08,2.28-3.14,3.43-4.86.82-1.24.82-3.5,1.17-4.93.07-.27-.2-.54-.43-.62-8.07-2.72-16.86-1.75-24.75-5-.75-.31-2.06.5-1.29,1.26a12.57,12.57,0,0,0,3.34,2.36c3.75,1.94,1.5,2-1,2.37-.69.11-1.62,1-.63,1.43,2.71,1.3,5.76,2.49,8.28.31.31-.27.5-.77.08-1.06a8.32,8.32,0,0,0-3.44-1.68c-.83-.18-1.89.91-.87,1.43l2,1c.84.43,2.21-.81,1.09-1.36l-2-1-.87,1.42c4.72,1.07-1.86.22-3.17-.41l-.62,1.43c2.14-.32,4.07-.31,6.07-1.14.36-.16.75-.68.44-1.05-2-2.43-5-3-7.21-5.2l-1.29,1.26c5.33,2.24,11,2.58,16.65,3.24,3.81.45,9.7,1.06,6.25,6.23-1.23,1.84-2.41,2-3.07,4.37l1.66-.45a30.13,30.13,0,0,0-9.23-3.54,46.58,46.58,0,0,0-5.27-.54c-1.86-.15-.41-7.45-.28-8.54.6-5.22,1.29-10.71,3-15.7,1.37-4.09,4.24-7.42,5.85-11.39,2.86-7,.92-16.3,1.66-23.79.83-8.44,3.38-17.38,10.78-22.33,1.09-.73-.47-1.51-1.3-1Z"/><path class="cls-3" d="M120.65,189.39c1.67.13,5.08-11,5.64-12.58,1.37-3.78.95-7-2.2-9.5-.58-.48-2.07.15-1.63,1a7.5,7.5,0,0,0,4.87,4.26c.6.19,1.62-.14,1.53-.9a7.49,7.49,0,0,0-1.6-4.2c-.5-.7-2.28,0-1.77.84l1.52,2.53c.42.69,1.71.12,1.86-.5l1-2.35-1.89.16c.17.5.34,1,.5,1.51.29.85,1.81.41,1.95-.33.86-4.52,4.34-7.75,6-11.94.4-1-1.54-1-1.85-.22-1.72,4.34-5.23,7.64-6.12,12.31l1.95-.34-.51-1.51c-.27-.81-1.58-.41-1.89.15a6.54,6.54,0,0,0-1.06,2.71l1.86-.5-1.52-2.52-1.77.84a5.66,5.66,0,0,1,1.44,3.88l1.52-.9c-2.55-.8-3.15-1.84-4.22-3.82l-1.63,1c6.77,5.47-2.36,15.47-3.59,21.73-.07.36.34.59.64.62l.33,0c.93.07,2-1.29.67-1.39Z"/><path class="cls-3" d="M115,202.54c-4.48,3.86-4.42,13.77-5.08,19.16a21.1,21.1,0,0,0,1.36,11.08c2.3,6.11-.72,15.09-4.87,19.77l1.75-.08c-.71-2.45.2-5,0-7.58,0-.33-.64-.32-.84-.3-9.14,1.09-10.16,10.8-10.19,18.36,0,.84,1.93.44,1.94-.23a41.41,41.41,0,0,1,1-9.93,10.5,10.5,0,0,1,3.78-6.09c2.58-1.93,2.1,5.39,2.36,6.29.18.63,1.45.24,1.74-.08,3.12-3.53,4.73-8.06,5.69-12.63,1-5-1.45-8.9-2.11-13.65-.53-3.81.71-8.56,1.31-12.33.53-3.33,1-9.05,3.7-11.41.86-.74-1.06-.78-1.56-.35Z"/><path class="cls-3" d="M99.64,199.27c0,7.19-.14,14.28-1.91,21.29s-7,12.55-9.45,19.28c-2.92,7.91-.92,19.69,6,25,.62.47,2.35-.41,1.51-1.06-9.44-7.27-7.56-21.58-2.52-30.56,2.72-4.85,5.45-9.16,6.83-14.62,1.6-6.33,1.46-13.07,1.47-19.55,0-1-2-.6-2,.18Z"/><path class="cls-3" d="M93.09,242.77c-2.81,5.14-1,12.41.22,17.8.12.54,2.16.05,2.16-.52V252a19.59,19.59,0,0,0-2.16.51c.07,2.54.32,5,.39,7.58,0,.46,1.89.12,1.88-.52-.08-2.53-.27-5-.34-7.57,0-.47-1.77-.11-1.77.51v8.09c0-.17,1.09-.35,1.74-.52-1.16-5.36-2.88-12.5-.11-17.57.22-.39-1.72-.24-2,.29Z"/><path class="cls-3" d="M223.42,109.51c3.39,7.59,7.63,14.44,10.13,22.42,2.62,8.38,2.65,17.42,3.51,26.08,0,.31,2,0,1.93-.51-.87-8.76-1.16-17.55-3.51-26.08-2.21-8-6.75-14.87-10.13-22.42-.19-.43-2,.24-1.93.51Z"/><path class="cls-3" d="M216.85,154.48A18.2,18.2,0,0,0,220,166c.61.88,3.51,2.39,2.36,3.56a6.9,6.9,0,0,0-2,4.07c0,.11.31.11.33.11,2.43.05,3.89-.82,5.64-2.54-.62-.49-1.09-.53-1.41-.14a21.43,21.43,0,0,0-1.63,2.19c-.57.86-.89,1.7-.17,2.47.23.25,1.78-.1,1.33.8-.87,1.76-.73,4-.61,5.91a29.1,29.1,0,0,0,4.6,12.93c.28.44,2.05-.33,1.93-.52-3.33-5.32-6.57-13.56-3.55-19.63.12-.23-.44-.18-.52-.17-3.74.48.67-4.49.95-4.79s-1.44-.12-1.74.19c-.6.64-1.22,1.26-1.85,1.87q-1.41-2.59,1.56-4.08c.05-.05.18-.17.05-.22-5.15-2.27-6.8-8.94-6.52-14.09,0-.21-1.9,0-1.93.52Z"/><path class="cls-3" d="M237.57,156.5c-.08,5.24,3.74,9.44,5.55,14.14,2.58,6.68,1.64,14.23,2,21.22,0,.52,1.75-.14,1.92-.42l.45-.73a.31.31,0,0,0,0-.1c-.14-.26-.29-.52-.44-.78-.29-.51-2.12.2-1.94.52a1.09,1.09,0,0,1,0,1.42l1.92-.43c-.37-6.53.1-13-1.46-19.45-1.36-5.58-6.21-10-6.12-15.91,0-.35-1.92-.07-1.93.52Z"/><path class="cls-3" d="M227.87,191c1.46-4.31,8.19-5.19,12-6.11,3.29-.79,6.89-1.37,9.83-3.13l-1.54-.07c-.58,3.48-1.77,6.77-2.41,10.19-.1.51.46.13-1,.33a22.07,22.07,0,0,1-5.67-.46,17,17,0,0,0-10,2.46c-2.54,1.54-.89,4.15,1.69,4.08,4.37-.11,7.86-3.58,11.63-5.31.77-.36.7-.91-.21-.77a33.5,33.5,0,0,0-13.54,5.41c-.62.41.25.62.6.55,4.55-.94,8.4-3.5,12.36-5.8,1.12-.65-.62-.74-1.16-.42-2.69,1.56-5.52,2.94-8.18,4.53a29.45,29.45,0,0,1,6-2.58c.52-.17,4.33-2.12,2.07-.91-1.92,1-3.73,2.27-5.67,3.29s-7.83.4-3.85-2a14.74,14.74,0,0,1,4.82-1.47c3.65-.67,7.48,1.39,11.12,0a1.15,1.15,0,0,0,.86-1.16c.43-3.38,1.85-6.77,2.42-10.19.11-.62-1.31-.2-1.54-.06-5.89,3.53-19.94,2.08-22.61,10-.18.54,1.73.28,1.92-.29Z"/><path class="cls-3" d="M230,198.93c1.28,12.38,9.38,22.75,6.92,35.51-1.3,6.71-4.33,17.51,2.39,22.38a1.28,1.28,0,0,0,1.67-.45c2-4.14-.1-9.6,3.42-13,.87-.83-1-1.11-1.61-.54-3.83,3.67-1.5,8.89-3.65,13.31l1.66-.45c-7.63-5.53-1.73-19.37-1.17-26.77.8-10.41-6.63-20.25-7.7-30.53-.09-.86-2-.4-1.93.51Z"/><path class="cls-3" d="M245.14,193.24c-.55,13.94,5.05,26,10.08,38.55,2.27,5.67,2.2,11.75,1.12,17.69-1.15,6.29-5.87,10.64-9.11,15.86-.47.77,1.47.57,1.8,0,2.89-4.65,6.77-8.55,8.65-13.78,1.81-5,1.71-11.32.72-16.47-1.13-5.9-4.84-11.27-6.88-16.87-2.87-7.89-4.78-16.87-4.44-25.26,0-.8-1.91-.4-1.94.24Z"/><path class="cls-3" d="M243.12,243.9c.23,3.58,1.93,7.11,1.36,10.72-.36,2.33-.92,4.6-1.07,7-.23,3.72,1.78,5.08,5.12,3.75,1.25-.49.13-1.32-.8-.95-4,1.58-1.85-7.08-1.52-8.77.81-4.24-.88-8-1.16-12.23,0-.75-2-.31-1.93.52Z"/><path class="cls-3" d="M247,260.87a60.15,60.15,0,0,0,4.61-18.42.59.59,0,0,0-.61-.57h-.51a1.38,1.38,0,0,0-1.33.78c-1.87,5.93-.13,12.21-1.51,18.22-.2.86,1.47.38,1.75.12,2.42-2.28,3.14-5.38,4.67-8.23l-1.8.35.43.88c.09.73,2,.28,1.93-.52s-.07-.56-.58-1.15-1.53-.15-1.8.35c-1.46,2.72-2.1,5.75-4.42,7.93l1.76.1c1.38-6-.36-12.25,1.51-18.19l-1.33.71c-.13,0-1,5.92-1.2,6.92a51.84,51.84,0,0,1-3.39,10.61c-.4.92,1.53.75,1.82.11Z"/></svg>