<svg id="layer1" xmlns="http://www.w3.org/2000/svg" viewBox="0 0 365.04 368.36"><defs><style>.cls-1{fill:#443d31;}.cls-2{fill:#f4cb1e;}.cls-3{fill:#492d0c;}</style></defs><path class="cls-1" d="M287.3,115.75l-.35,0v-.2h-2.06c-9-.91-18.09-1.46-27.17-1.78a3.29,3.29,0,0,0-2.77-4.52v0l-.21,0-.2,0c-5.91,0-11.8-.45-17.7-.8,7.89-2.87,16.23-4.71,23.54-9.05a4.43,4.43,0,0,0,.42-.29c5.94-1.2,11.82-3,17.84-4.81,3.86-1.17,3-6.66-.93-6.88a156.35,156.35,0,0,0-26.08.87,65.06,65.06,0,0,0,8.09-5.81c2.57-2.17.24-5.71-2.48-6a28.94,28.94,0,0,0-5.59,0,3.63,3.63,0,0,0-2.59-1.4,82.48,82.48,0,0,0-14.32.21,3.85,3.85,0,0,0-2.49-4.17,34.19,34.19,0,0,0-8.18-1.9,89.82,89.82,0,0,1,9.11-4.78,104.19,104.19,0,0,1,20-4.18,3.5,3.5,0,0,0,0-7,44.4,44.4,0,0,0-19.43,3.45c-.55.14-1.1.27-1.64.42a3.55,3.55,0,0,0-2.57-3.75c-.49-.09-1-.17-1.47-.22a3.69,3.69,0,0,0-4.47-3.87A61.39,61.39,0,0,0,214,52.65a3,3,0,0,0-3.14-2.14,33.54,33.54,0,0,0-8.84,2c5.74-5.63,13.4-9.77,21.12-10,4.5-.15,4.51-7.15,0-7-13.33.46-26.27,9.65-33,20.83a3.77,3.77,0,0,0-.27.58,49.48,49.48,0,0,0-5.07,7.26C183.28,66,181.9,68,180.54,70a3.27,3.27,0,0,0,1.33,4.72,3.27,3.27,0,0,0,2.39,1.87,3.2,3.2,0,0,0-3,2.94H181v9.34c-.74,15.93-3,31.74-4.24,47.63-.83,3-1.71,5.9-2.61,8.78-.1.3-.19.6-.29.89a49.82,49.82,0,0,0-4.3,5.52c-8.31,8.27-14.69,21-17.23,32.53a2.91,2.91,0,0,0-1.64-1.4c-.31-.1-.69-.19-.69-.28h-.52c-2.29-.68-4.64-1.2-7-1.67-5.08-5.28-14.32-7.16-21.19-6.06-3.16.51-3.19,4.95-.84,6.4a33.28,33.28,0,0,0,6.32,3,17.75,17.75,0,0,0-4.11.18c-2.58.43-3.4,4.2-1.55,5.85,2.35,2.09,5.72,3.25,8.6,4.86l-.67.08a4.09,4.09,0,0,0-1.38.37c-3.21-1.23-6.73,2.73-3.82,5.6.07.08.15.14.22.21a3.82,3.82,0,0,0-.77,4.54c.23.4.47.78.72,1.16a3.4,3.4,0,0,0-1.15,3.11c-2.7.55-4,5.06-1,6.54,1.54.77,3.1,1.49,4.67,2.18,1.23.67,2.45,1.37,3.69,2,2.33,11.6,11.44,21.25,18.08,30.62l2,2.84a3.07,3.07,0,0,0,1.19,1.65c.93,1.29,1.86,2.6,2.79,3.91a3.67,3.67,0,0,0-.43.37c-4.17,4.56-5.68,9.94-7.37,15.49a3.45,3.45,0,0,0-3.2,3.43c0,.29,0,.57,0,.84A3.24,3.24,0,0,0,141,283.2v.92h-.1c0,.12.07.22.1.34v2.83a3.37,3.37,0,0,0,3.28,3.5c.09.11.06.22.14.34,3.19,3,7.86-1.6,5-4.72.15-.54.29-1.09.39-1.63a4.18,4.18,0,0,0,1.67-2c2.14-5.74,2.78-12.12,6.76-16.94q.63,1,1.23,2c.09.15.15.3.23.45-5.62,7.27-4.28,16.92-6.07,25.41a108.26,108.26,0,0,0-4.81,10.43c-1.24,3.19,3.71,6.12,5.85,3.41a24.91,24.91,0,0,0,3.78-6.75,3.6,3.6,0,0,0,6.32.58,36.21,36.21,0,0,0,2.43-4.1,3.34,3.34,0,0,0,3.58-.29c.24.34.49.68.77,1,2.06,2.42,5.94.38,6-2.48,0-2.37.22-4.92.42-7.56a3.22,3.22,0,0,0,3.66-3.23c2.39,1.53,5.09,0,5.47-2.85a34.67,34.67,0,0,0-.75-12.54c0-.22-.11-.43-.16-.64a3.4,3.4,0,0,0,2.81,0,26.89,26.89,0,0,0,7.32,4.29,2.76,2.76,0,0,0,3.46-.95q4.37,5.28,8.75,10.54,1.29,1.61,2.61,3.15c3,3.44,7.81-1.52,4.95-4.95l-2.84-3.42c-4.24-5.22-8.23-10.73-12.44-16,3.73,2.55,7.53,5,11.29,7.57q2.84,2.17,5.57,4.47c5,6,11.13,10.77,17.33,15.5a3.63,3.63,0,0,0,1.41,4.21A139.4,139.4,0,0,0,250,301.23a3.52,3.52,0,0,0,3,.12,64.08,64.08,0,0,1,11.27,10.25c2.95,3.42,7.88-1.55,4.95-5a68.18,68.18,0,0,0-21.18-16.39c-1.4-1.15-2.83-2.28-4.27-3.39a5.63,5.63,0,0,0-.47-.69c-.21-.25-.43-.49-.65-.74,7.78,3.8,15.86,6.47,25,5.23,2.79-.38,3.13-4.14,1.55-5.85-9.76-10.54-23.59-15.18-37.39-18.18-7.21-4.31-14.62-8.17-22.68-10.57l-5.87-2.59c0-.09,0-.17,0-.26,2.6,1.57,6.38-.22,5.43-3.69a39.44,39.44,0,0,0-4-9.4,3.31,3.31,0,0,0-1-3.06l-.26-.28.17-.15c1.33,2.05,2.7,4.07,4.15,6a3.5,3.5,0,0,0,6-3.54c-.6-1.38-1.23-2.75-1.87-4.12a3.15,3.15,0,0,0,.51-4.06l-10.33-17.21c7.77,6.83,17,12.52,26.84,15.53,4,1.23,5.8-4.22,2.69-6.4-5.28-3.69-10.6-7.25-16.05-10.55,1.71-1.45,2.12-4.59-.32-5.82-4.32-2.18-8.62-4.47-12.8-7a28.42,28.42,0,0,0,6.94,1.21c4.26.17,4.34-5.5.93-6.88l-.71-.29a16.22,16.22,0,0,0,2.51.34,3.48,3.48,0,0,0,3.37-4.35c2.43,1.52,5,2.94,7.53,4.37a3.21,3.21,0,0,0,1,5c6.19,3.32,11.73,7.91,18.57,9.91,2.72.79,5.87-2.61,4-5.15-.72-.95-1.49-1.84-2.28-2.71-.4-5.28-2.93-9.74-6.33-13.73a3.11,3.11,0,0,0,.43-4c-.62-1-1.28-1.91-2-2.82,2.7,1.84,5.37,3.71,8,5.66,4.38,4.06,8.7,8.23,13.73,11.5,3.37,2.2,7.05-2.75,4.24-5.5a129.58,129.58,0,0,0-13.31-11.23c-2-1.88-4-3.77-6-5.56A3.31,3.31,0,0,0,242,173c-3.55-3.37-8-5.92-12-8.95l1,.17c15,7.09,30.21,14.6,46.72,16.12,3,.28,4.71-4,2.47-6l-1-.83a3.83,3.83,0,0,0-1.09-5.18,121.57,121.57,0,0,0-18.23-8.47l-.59-.34a3,3,0,0,0-1.64-3.47,59.23,59.23,0,0,0-8.78-3.28,25.61,25.61,0,0,0,4.68-1.59,2.81,2.81,0,0,0,1.75-2.65h1.84l.54.07a.17.17,0,0,1,0-.07h.92c3.83,0,4.92-6.11.93-6.68l-1-.13a1.37,1.37,0,0,1,0-.19h-1.48c-8.63-1.19-17.28-2.22-25.91-3.43-3-.42-6.75-.19-9.92-.84a3.18,3.18,0,0,0-2.26-.79,4.2,4.2,0,0,0-3.29,1.12,5,5,0,0,0-.48.68c-5.71-3.55-13.35-4.78-19.11-8.39,7.83.64,15.54,2.65,23.36,3.58a6.88,6.88,0,0,0,2.25.47,3.62,3.62,0,0,0,1.17-.14c1,.07,1.95.12,2.93.14a3.54,3.54,0,0,0,3.46-3.66c13.82-3.19,28.17-3.93,41.85-7.74h11c1.58.15,3.16.31,4.73.48v-.48h.31C291.87,122.51,291.69,116.22,287.3,115.75Zm-71.71,39.93a2.75,2.75,0,0,0,1.49,2.19,2.94,2.94,0,0,0,.31,2.95c.13.21.27.4.41.59a3.59,3.59,0,0,0-.83.48,2.82,2.82,0,0,0-.91-1.22c-1-.8-2.09-1.58-3.16-2.35A3.9,3.9,0,0,0,215.59,155.68ZM216.72,182a3.61,3.61,0,0,0-4.33.84,3.41,3.41,0,0,0-.42-4.38,20,20,0,0,0-7.68-4.35,11.85,11.85,0,0,1-1-2.29,3.59,3.59,0,0,0-.58-1.12c.43,0,.86.07,1.3.09,2.84.14,4.92-4.07,2.47-6-1.46-1.15-3-2.24-4.5-3.31a56.58,56.58,0,0,0,10.65,5.06,3.23,3.23,0,0,0,3.16-.78,3.86,3.86,0,0,0,1.46,1.8l1.15.79a4.26,4.26,0,0,0,.87,2.75c.25.32.51.62.76.93-2.51.38-4.49,3.58-2.13,5.89,4,3.91,10.49,8.36,14.87,13.57A101.08,101.08,0,0,0,216.72,182ZM188.6,199.34c-2.59-.89-4.26,1.22-4.27,3.36a3.24,3.24,0,0,0,0,2.31,42.43,42.43,0,0,0,4.75,9.44,40.08,40.08,0,0,0-8.6-7,39,39,0,0,0-4.65-3.65,3.62,3.62,0,0,0-1-.45,3.44,3.44,0,0,0,2.25-5.11c-1-1.57-1.87-3.2-2.73-4.84,3.23,1.56,6.38,3.54,9.69,4.52a3.16,3.16,0,0,0,3-.53q1.83,1.41,3.71,2.74C190,199.85,189.32,199.58,188.6,199.34Zm27.28-96.94c6.77-1.79,13.56-3.4,20.39-4.73a2.93,2.93,0,0,0,2.31,2c.58.1,1.15.17,1.72.26-6.6,2.11-13.2,4.22-19,8.35a3.81,3.81,0,0,0-1.15,4.73c-3,.21-6,.49-9.08.49H211v-.23a3.33,3.33,0,0,0-2.66,1.37l-2.6-.94a46.5,46.5,0,0,0,6-1.74l.1,0v0a3.5,3.5,0,0,0-1.88-6.73c-3.47.58-6.93,1.13-10.41,1.58,3.91-3,7.72-6.06,11.77-8.82a3.25,3.25,0,0,0,.66-.62C210.74,99.7,212.56,103.28,215.88,102.4Zm-7.35-38.55.33-.22c0,.15,0,.31,0,.46a2.59,2.59,0,0,0-.63-.1C208.36,63.94,208.44,63.91,208.53,63.85ZM191,115.32c-.81-.15-1.63-.28-2.45-.39l0-.19,1.83-.08A4.1,4.1,0,0,0,191,115.32Zm-1.31-12.61a34,34,0,0,0,3.64,0q-1.84,1.35-3.77,2.59C189.63,104.42,189.67,103.56,189.7,102.71Zm-16.11,76.48c.6-.94,1.17-1.89,1.72-2.84a26.72,26.72,0,0,0,4.31,6.56C177.59,181.7,175.58,180.43,173.59,179.19Zm-2.48,25.9a3.42,3.42,0,0,0-1.79,2.32c-2.08-2-4.21-4-6.46-5.81a3.86,3.86,0,0,0-2.13-.84,15.31,15.31,0,0,1-2.82-4.09l.38-.3c4.72,2.81,9.37,5.68,14.8,7h0A3.66,3.66,0,0,0,171.11,205.09Zm-26.17-8.55.32-.09-.18.4c-.07.17-.13.34-.18.5l-.49-.39a3.26,3.26,0,0,0-.58-.36A3.49,3.49,0,0,0,144.94,196.54Zm18.79-5c.35-.35.7-.69,1-1,.49.82,1,1.64,1.41,2.48C165.35,192.48,164.54,192,163.73,191.51Zm32.18-22.23c.72.19,1.45.38,2.17.55a4,4,0,0,0-.78.56Zm-12.34-9.63a3.46,3.46,0,0,0-3.42,4,2.72,2.72,0,0,0-1.74.13c.91-1.77,1.71-3.6,2.52-5.41a2.61,2.61,0,0,0,1.86-2.27l.12-.8a54.16,54.16,0,0,0,5.7,5A31.2,31.2,0,0,0,183.57,159.65Zm3.69-13.94c.87.66,1.75,1.28,2.64,1.87a3.92,3.92,0,0,0,.28.9,27.19,27.19,0,0,0-6.14-1.07q.74-5.1,1.44-10.18c.72.69,1.46,1.36,2.21,2C185.48,140.12,185,144,187.26,145.71Zm-.87-15.23c.2.24.41.47.61.69a4.52,4.52,0,0,0-.73.26Zm25.47-51.54a3.72,3.72,0,0,0-1.77-1c.11,0,.22,0,.33-.09a29.13,29.13,0,0,1,8.83-1.8C216.79,77,214.3,77.94,211.86,78.94Zm-3.44-1c-2.31.52-4.58,1.18-6.84,1.88.21-.2.41-.41.61-.62,1.74-.53,3.46-1.16,5.17-1.87A2.68,2.68,0,0,0,208.42,78Zm-1.76-13.49c-.1.06-.2.1-.3.17-3.2,2.21-6.26,5-9.45,7.58A45.48,45.48,0,0,0,203,64a3.54,3.54,0,0,0-.9-4.42l1.88-.61C202.58,61.22,204.25,64.44,206.66,64.46ZM140.48,192.72a4,4,0,0,0,2.23,3.56,2.76,2.76,0,0,0-2,.78,3.46,3.46,0,0,0-.49-1.57,12.47,12.47,0,0,0-2.23-2.77C138.81,192.76,139.65,192.76,140.48,192.72Zm-1.1,7.15a3.6,3.6,0,0,0,.79,2.59c2.35,2.8,4.73,5.57,7.08,8.38a24.42,24.42,0,0,0-6.4-3.32,3,3,0,0,0-2.9.4c-.56-.49-1.13-1-1.72-1.41a2.77,2.77,0,0,0-2.18-.53c2-.78,3.26-3.33,2.15-5.11.33-.05.66-.09,1-.11A4.08,4.08,0,0,0,139.38,199.87Zm-6.28,6.34.34-.06a3.64,3.64,0,0,0-.62.32l-.22-.18Zm77.61-22a3.33,3.33,0,0,0,1.37-1,3.41,3.41,0,0,0-.55,1.75ZM222,124.91c-1.5-.55-3-1-4.55-1.48a3.14,3.14,0,0,0,.8-3.16q8.34,0,16.69.08a3,3,0,0,0,1,1.46A130.22,130.22,0,0,0,222,124.91Zm-9.64-28.19c1.31-2.46-.4-6.23-3.53-5.23a4,4,0,0,0-.65-2.58,113.31,113.31,0,0,1,25.06-6.39,52.89,52.89,0,0,1-5,2.57c-3,1.33-1.92,4.85.46,6-4.88,1.67-9.82,3.13-14.63,4.57A3.54,3.54,0,0,0,212.34,96.72Zm6.25,47.13c-.63,1.83-.11,4.14,2.13,4.73,1.44.39,3.23.72,4.23,1h0a3.61,3.61,0,0,0-1.16,3.71h.05c-.9-.4-1.76-.8-2.66-1.18l-.38-.18h0l-.83-.36c-2-.86-3.75.74-4.26,2.59A2.91,2.91,0,0,0,214,152a3.68,3.68,0,0,0-1.41-4.12c-2.17-1.43-4.38-2.8-6.58-4.18a37.22,37.22,0,0,0,7.55,1.15,3.09,3.09,0,0,0,3-1.76,4.2,4.2,0,0,0,.7.36A10.42,10.42,0,0,0,218.59,143.85Z"/><path class="cls-1" d="M127.89,151.12c-2,2-.86,4.8,1.36,5.7a59.22,59.22,0,0,0,4.92,17.65,3.5,3.5,0,0,0,4.79,1.25c4.43-2.67,9.38-7.33,12.27-9.55s1-6.78-1.73-6.73c1-1.26,2-2.63,3-4.07a3.15,3.15,0,0,0,0-3.34,59.9,59.9,0,0,0,5.43-6.21,3.09,3.09,0,0,0-.83-4.39,3.66,3.66,0,0,0-5.74-2.78,3.5,3.5,0,0,0-.36-.58,48.06,48.06,0,0,0,5-5.19,3.5,3.5,0,0,0-4.95-4.95c-1.23,1-2.48,2.13-3.77,3.35a3.6,3.6,0,0,0-.48-2.68c.34-.37.66-.75,1-1.14,0,0,0,0,0,0h0c.19-.23.38-.46.56-.7,1.58-2.11,0-4.31-2-5l.31-.25c4.89-4,9.87-7.89,14.8-11.83,3.11-2.49-1-7.71-4.24-5.5-2.57,1.73-5.1,3.57-7.69,5.31a3.46,3.46,0,0,0-2.39-.2,32.39,32.39,0,0,0-11.26,5.62,24.45,24.45,0,0,0-5.29,3.46,3.32,3.32,0,0,0-.94,1.35l-1.08.83a3.86,3.86,0,0,0,0,6.09,3.25,3.25,0,0,0,1.43,1.26,23.63,23.63,0,0,0-1.31,2.09l0,0-.09.07a3.77,3.77,0,0,0-.37,5.9c0,4.77.06,9.61.39,14.43Z"/><path class="cls-2" d="M78.63,216.83l0,0a7,7,0,0,0-1-2.75.45.45,0,0,0-.2-.55,2.1,2.1,0,0,0-.33-.22c-.18-.23-.36-.46-.55-.68a.78.78,0,0,0-.33-.21,10.22,10.22,0,0,0-.69-.81c-.52-.56-1.93-.17-1.86.67a2.22,2.22,0,0,0,.34,1.13,1.49,1.49,0,0,0-1.17.74,20.81,20.81,0,0,0-.71,3.7.31.31,0,0,1,0,.08.55.55,0,0,0-.11.3v.36a41,41,0,0,0-.17,5.77l.17,0v0c0,.62.73.7,1.25.46.47.31,1.49,0,1.52-.62l.23,0v-3.29a39.47,39.47,0,0,1,.94-5.17l.79,1.66c.38.79,2,.37,1.94-.51Z"/><path class="cls-3" d="M109.56,176.69c-8.79-1-15.48-1.81-23,3.27-9,6-15.47,17.53-13.91,28.57.07.49,2,.07,1.93-.51-1.15-8.17,2.6-17.36,8.07-23.3,3.38-3.69,8.57-7.61,13.67-8.07,4-.37,8.11.46,12,.92.48.06,2.24-.76,1.22-.88Z"/><path class="cls-3" d="M72.62,208.53c.74,4,5.1,5.61,8.21,7.44.78.46,2.44-.59,1.48-1.16-2.85-1.67-7.08-3.13-7.76-6.79-.17-1-2.11-.45-1.93.51Z"/><path class="cls-3" d="M109.12,177.7c5.13,1,11.49-1,16.57-1.89,0-.36,0-.73,0-1.09-3.5.77-7.53.85-10.78,2.51-.28.14-.93.64-.37.92a15.86,15.86,0,0,0,4.19,1.32c.56.12-1.31,1.44-1.57,1.7s-.2.63.2.74a38.58,38.58,0,0,0,7,.75,42,42,0,0,1,5,.66,10.24,10.24,0,0,1,2.34.79c3.27,1.44-2.05,2.42-3.06,2.44-5.54.07-11.71-2.24-16.27,2-.23.22-.26.49,0,.67a8.67,8.67,0,0,0,3.82,1.46c.88.13,1.76.22,2.65.29,4.15.37,2.09,2.37-.31,2.47-.32,0-1.68.74-.88,1.06a20.85,20.85,0,0,1,5.14,2.75c.43-.32.85-.75,1.27-.75h-4.23c-.5,0-2.07.57-1,.92a23.07,23.07,0,0,1,5.63,2.46c.21-.33.41-.72.62-1.06a11,11,0,0,1-6.13-.05c-.36-.09-2.06.29-1.48.92,2.07,2.28,4.79,3.51,7.52,4.85l1.13-1.08c-2.48-.08-4.92-.44-7.39-.53-.29,0-1.61.29-1.33.84.17.36.35.71.52,1.06l1.34-.84c-2.12-.11-4.22-.42-6.34-.53-.39,0-1.69.35-1.26,1a16.07,16.07,0,0,0,3.68,3.44c3,2.34-4.33.25-5.19-.09-.39-.16-2.29.24-1.66.87,1.7,1.69,3.4,3.36,5,5.11.38.41,2.3,1.87.56,1.55s-3.54-.62-5.32-.92a99.53,99.53,0,0,0-14.61-1.5c-.77,0-2,1.14-.74,1.16a95.25,95.25,0,0,1,12.5,1.18c2.89.43,7.3,2.28,10.16,1.51,3.7-1-5-8-5.78-8.86l-1.66.87c3.16,1.26,6.37,2.62,9.6,1,.29-.14.77-.44.51-.82-1.47-2.1-3.81-3.18-5.28-5.28l-1.26,1c2.12.11,4.21.42,6.33.53.29,0,1.61-.29,1.33-.84l-.52-1-1.34.84c2.48.08,4.92.43,7.39.52.35,0,2-.64,1.13-1.07-2.61-1.27-5.25-2.46-7.25-4.65l-1.48.94a12.8,12.8,0,0,0,7.58,0c.34-.11,1.26-.61.63-1a25.6,25.6,0,0,0-6-2.57c-.32.38-.63.27-1,1.27h4.22c.28,0,1.84-.56,1.26-1.1-1.65-1.58-3.23-1.93-5.41-2.81-.29.36-.59.68-.88,1a16.63,16.63,0,0,0,7.59-1.86c.18-.09.56-.5.29-.71A9.56,9.56,0,0,0,121,190a22.74,22.74,0,0,1-6-1,4.91,4.91,0,0,1,4.64-1.82c.79,0,1.58.06,2.36.13,4.43.33,9,1.29,12.93-1.33.16-.11.46-.35.36-.58-1.05-2.62-4.24-3.07-6.71-3.46-1.82-.29-3.68-.38-5.52-.51-2.39-.16-5.55.59-1.85-1.79.39-.25.53-.73,0-.87-1-.25-4.1-1.3-4.92-.88a18.83,18.83,0,0,1,4.59-1.09c1.71-.33,3.43-.58,5.13-1,.92-.2,1.11-1.28,0-1.09-4.69.78-10.93,2.84-15.66,1.93-.65-.13-2.28.89-1.16,1.1Z"/><path class="cls-3" d="M93.23,213c-3.21.12-6.16,1.73-9.36,1.84-1,0-1.56,1.25-.23,1.2,3.21-.11,6.16-1.72,9.36-1.84,1,0,1.56-1.24.23-1.2Z"/><path class="cls-3" d="M112.8,216.76c5.74.42,12.14,2.32,15.47,7.27,1.39,2.07,2.5,4.36,3.78,6.51,2.2,3.74,5.74,5.47,6.91,10,1.5,5.73,4.29,10.23,7.79,15,3.06,4.14,8.69,8.43,9.27,13.77.07.69,2,.25,1.93-.51-.57-5.24-5.61-8.8-8.52-12.8-2.46-3.39-5-6.64-6.73-10.47-1.5-3.22-1.6-6.95-3.73-9.83s-4.76-5.15-6.6-8.36a36.23,36.23,0,0,0-4-6.25c-3.27-3.69-10.18-5.06-14.8-5.39-.77-.06-2,1-.74,1.14Z"/><path class="cls-3" d="M158.13,264c.33,8.22-2.47,16.25-5.8,23.64-3,6.68-6.68,14.67-13,18.76-.86.56,1.09.47,1.52.2,6.11-3.95,9.15-10.92,12.32-17.19,4-8,7.25-16.88,6.89-25.92,0-.49-2-.14-1.93.51Z"/><path class="cls-3" d="M186.31,275.81c2.4,1.62,1.54,7.06,1.27,9.41a20.9,20.9,0,0,1-1.35,5.57c-1.27,3.16-2.9-1.21-3.41-2.55-.26-.67-1.87-.34-1.87.36v5.81c0-.17,1.18-.33,1.8-.5a3.83,3.83,0,0,1-1.54-3c-.1-.72-2-.3-2,.36.08,2.37.35,4.71.32,7.08,0,4.4-3.66-1.83-4.27-2.83-.32-.52-1.88-.12-1.87.5,0,1.55.07,3.08,0,4.62q.07,3.24-4.46,2.92c-.75-.71-1.35-1.53-2.13-2.23-.51-.47-1.9-.15-1.85.66.13,2.29.43,4.09-.53,6.29-1.07,2.46-3.2-2.66-3.34-3.11-.25-.78-2-.28-1.94.51q1.08,2.7-1.84,2.51c-.43-.41-1.8-.22-1.86.5-.14,1.59-.39,3.16-.53,4.75l1.73-.61c-2-1.33-3.07-3.39-4.61-5.17-.46-.52-2-.11-1.86.66q-1.31,2-2.6,4c-1.2.58-.11,1.38.8.94,2.49-1.19,4.11-2.56,3.73-5.48l-1.86.66c1.64,1.88,2.78,4,4.89,5.39.44.29,1.67,0,1.73-.61.13-1.59.39-3.16.52-4.75l-1.86.5c3.58,3.39,6.05.4,5.56-3.82l-1.94.51c.71,2.2,2.1,5.29,4.95,4.53,3.68-1,3-6,2.79-8.74l-1.86.66c2,1.81,3.74,4.83,6.89,3.42,4-1.8,3.49-5.95,3.42-9.73l-1.86.5c1.32,2.15,3.22,6.85,6.57,5.35,2.87-1.28,1.18-8.3,1.1-10.6l-1.94.36a5,5,0,0,0,1.75,3.31c.4.41,2,.2,2-.5V288.4c-1,.12-1.39.24-2,.36,1.63,4.27,5.14,7.19,7.42,1.57,1.37-3.4,3.36-12.94-.49-15.53-.6-.4-2.38.45-1.54,1Z"/><path class="cls-3" d="M137.38,307.2c-3.75,2.38-9.84,1.44-14.09,1.3-4-.13-7.9-1-11.93-.66-1.54.11-4.21.78-5,2.38a16,16,0,0,0-1.22,4.7c-.52,3.58-2.47,6.55-4.53,9.45-.19.26,0,.52.31.56,2.07.33,4.24.22,5.86-1.35a19.53,19.53,0,0,0,3-3.91c2.53-4.1,6-4.38,10.34-4.21.17-.38.33-.75.5-1.12-7,1.14-7.83,7.87-8.48,13.87,0,.33.32.44.59.44,4.14,0,5.62-3.16,7.35-6.45,6.07-11.6,17.12,1.86,23.93,5.31.46.23,1.61,0,1.73-.59.65-3.37-2.9-5.93-5.07-7.94-.94-.88-6.62-6.16-1.55-6.12a18.25,18.25,0,0,0,4.73-.11c1.17-.28.9-1.28-.27-1-1.64.4-9.09-1.38-8.58,2.51.67,5.15,9.86,7.44,8.8,12.88l1.74-.59c-6.3-3.2-14.89-14.25-23.14-9.12-2.9,1.81-4.08,4.77-5.69,7.64-.15.27-2.62,2.69-2.54,2,.11-1,.24-2.05.39-3.07.5-3.53,1.65-7.86,5.8-8.54.63-.1,1.75-1.06.5-1.11-3.65-.13-8.26-1-10.9,2.32a26,26,0,0,0-2,3c-.83,1.37-6.34,6.11-3.72,2.05,2-3.09,2.55-5.94,3.2-9.48,1.07-5.82,13.4-2.59,17.8-2.51s9.46.52,13.25-1.87c1.11-.71-.57-1-1.2-.61Z"/><path class="cls-3" d="M149.68,265.39c-3.56,10-13.22,23.57-25.06,23.05-.78,0-2,1.12-.73,1.18,13.17.57,23.74-13.27,27.73-24.45.25-.71-1.7-.47-1.94.22Z"/><path class="cls-3" d="M122.41,288.14c-4.74-.69-8.89-2.36-13.48-3.63a11.2,11.2,0,0,0-6-.42c-4.66,1.24-5.77,6.44-6.75,10.58-.64,2.73-.47,6.11,3,4.05,3.18-1.89,1.79-7.24,6.49-6.73,3,.34,1,3,.22,4.71a13.3,13.3,0,0,0-1.1,6.31c0,.17.47.12.54.11,4.14-.56,4.64-3.37,6.6-6.7,2.17-3.66,10.54-1.42,13.5.32,3.19,1.88,3.7,5.52,7.39,6.86a2,2,0,0,0,1.86-.49c2.31-3.89-1.71-8.08-4.79-10.18-.44-.3-2,.49-1.82.65,3,2,7,6.09,4.71,9.88l1.86-.5c-4.27-1.56-5.31-6.36-9.79-8a24.7,24.7,0,0,0-10.28-1.33c-2,.25-3.32,1.65-4.54,3.14-1,1.22-1.43,3-2.2,4.35l-1.18-.21a14.41,14.41,0,0,1,1.14-4.57A42.88,42.88,0,0,1,109.9,292c.06-.12-.06-.16-.15-.18-2.29-.64-5.37-1.33-7.68-.28a4.07,4.07,0,0,0-1.82,2c-.38.66-1.86,6.67-2.47,4.09-.75-3.15,1.58-8.51,3.17-11.17,2.07-3.47,6.79-1,9.51-.1a57.77,57.77,0,0,0,10.36,2.52c.44.07,2.08-.65,1.59-.72Z"/><path class="cls-3" d="M119.23,287c-3-1.17-4.64-4-7.27-5.74a1.6,1.6,0,0,0-1.48.15l-4.22,2.11c-1.15.58.62.68,1.16.41l4.22-2.11-1.48.14c2.71,1.78,4.41,4.67,7.51,5.88.5.19,2.26-.57,1.56-.84Z"/><path class="cls-3" d="M130,293.36c4.58-.22,7.85,4.42,12.66,4.22.34,0,1.29-.39,1.08-.89a11.9,11.9,0,0,0-2.72-3.84l-1.64.92c2.2,1.24,4.1,2.93,6.51,3.77.54.19,1.61-.16,1.54-.85-.21-2-1.34-3.44-2.11-5.28-.33-.78-2.24-.22-1.93.52.74,1.79,1.91,3.29,2.11,5.28l1.54-.86c-2.28-.79-4.08-2.45-6.15-3.61-.48-.27-2.3.26-1.65.92a10.8,10.8,0,0,1,2.56,3.55l1.07-.89c-4.7.2-7.88-4.45-12.66-4.23-1,.05-1.54,1.33-.21,1.27Z"/><path class="cls-3" d="M147.63,291.16c-.22,0-.09,0,0,.1l.21.18a1.65,1.65,0,0,0,.84.25c.43,0,1.39-.24,1.34-.81s-.73-.8-1.12-1.17-2.32.28-1.8.75c.3.28.95.5,1,.94l1.34-.8c.22,0,.1,0,0-.1a1.24,1.24,0,0,0-.21-.18,1.61,1.61,0,0,0-.83-.25,1.54,1.54,0,0,0-1.28.53c-.27.39.23.54.52.56Z"/><path class="cls-3" d="M125,177.29c4.38-1.16,7.71,1.06,11.9.92,2.82-.09,5.41-.91,8.15-1.45,1.23-.24.84-1.6-.36-1.36-1.45.29-2.88.66-4.32,1-2.92.7-5.38,0-8.21-.68a15,15,0,0,0-7.53.21c-1.19.31-.83,1.67.37,1.36Z"/><path class="cls-3" d="M144.49,177c1.64,2.81,8.41-6.24,9-7a101.91,101.91,0,0,0,14.9-24.47,121,121,0,0,0,10.35-40.79c.74-10.15.35-22.18-4.67-31.29-.43-.79-2.27,0-1.76.86,4.4,8,4.83,18.17,4.64,27.07-.26,12.21-3,24.3-7.12,35.76-3.2,8.93-7.34,18.62-13.11,26.21-1.39,1.83-11,12-10.52,12.8-.45-.78-2.29,0-1.76.86Z"/><path class="cls-3" d="M174.2,74.44c-1.37-4.19-.15-7,5-7.17a1.54,1.54,0,0,0,1.35-.63c5.33-11.31,13.17-21.67,23.83-28.46,10.82-6.9,24.41-7,36.7-9,.38-.06.87-.25.87-.75v-.79c0-.3-.44-.25-.58-.23a41.93,41.93,0,0,0-19.29,7.73,26.86,26.86,0,0,0-7,7c-2.63,4-4.13,8.43-7.72,11.76-.8.75,1.13.64,1.54.25,4.32-4,6.08-9.61,9.57-14.23,2.57-3.39,6.79-5.74,10.47-7.7,1.17-.62,11.56-4.77,11.56-3.32l1.11-.74c-13.12,2.1-26.63,2.66-38.4,9.48C192.14,44.1,184,55.57,178.62,66.9l1.35-.64c-6,.15-9.82,2.21-7.7,8.7.21.62,2.13.07,1.93-.52Z"/><path class="cls-3" d="M212.76,53.76c5.75-5.5,12.52-8.2,20.23-9.79,8.12-1.68,15.88-5.51,24.26-5.8l-.58-1.23c-3.77,3.17-9.26,3.18-13.81,4.53-4.05,1.2-8,4.12-11.32,6.68-6.13,4.75-13.39,10.69-14.86,18.68-.19,1,1.79.8,2-.12,1.64-8.9,11.78-16.49,19.1-21,3.94-2.43,8-3.51,12.52-4.44A16.69,16.69,0,0,0,258,37.9c.66-.55.19-1.26-.57-1.23-8.61.3-16.43,4.3-24.79,5.88-8,1.52-15.22,4.58-21.15,10.25-1,.91.56,1.67,1.3,1Z"/><path class="cls-3" d="M225,65c10.23-3.37,19.49-9.13,29.85-12.17.3-.09,9.47-1.81,9.43-1.27-.14,1.55-1.88,2.7-3,3.46-3.51,2.39-7.93,3.64-11.92,4.94-5.44,1.78-11.57,3-16.41,6.19-5.43,3.6-13.83,8.09-15.42,15-.08.36.35.52.62.54,4.76.43,9-1.27,13.73-1.58,1-.07,1.54-1.36.21-1.27-2.26.15-13.42,2.94-11.64-.38,1.85-3.49,5.74-6,8.85-8.27a50.38,50.38,0,0,1,15-7.37c5.28-1.68,10.64-3.23,15.66-5.63,2.6-1.24,6-3.17,6.3-6.37,0-.35-.31-.53-.62-.54-14.88-.43-27.35,9.06-41,13.53-1.14.38-.85,1.56.32,1.18Z"/><path class="cls-3" d="M258.51,75.94c.58,0,2.1-.89.8-.89-.58,0-2.1.89-.8.89Z"/><path class="cls-3" d="M266.77,74.66c4,.09.64,1.91,0,2.39a35.31,35.31,0,0,1-5.15,2.75,93.52,93.52,0,0,1-11.25,4c-6.28,2-12.69,3.6-18.65,6.43-3.71,1.76-15.12,10.8-5.61,12.16,1,.15,1.95-1.29.65-1.48-6.15-.88,2.17-7,4.2-8.47,4.09-2.94,9.7-4.16,14.46-5.61C254,84.22,263.65,82,270.67,76a.7.7,0,0,0,.23-.92c-1.1-1.65-2.06-1.86-4-1.9-1.14,0-1.45,1.47-.15,1.5Z"/><path class="cls-3" d="M237.37,99.09c4.85-.73,43.58-8.71,42.78-2.07l1.33-.7c-11.21-.55-22.54-.17-33.48,2.53-6.68,1.65-19.06,6-21,13.76s27.55,2.92,31,2.34c1-.16,1.56-1.39.23-1.17-4.64.77-9.32,1.36-14,1.73-3,.23-14.19,1.79-15.33-2.48-.75-2.8,5.06-6.62,6.7-7.76,4.54-3.15,10.06-4.78,15.38-6,9.7-2.18,19.9-2.27,29.79-1.78.4,0,1.27-.18,1.33-.7,1.05-8.76-39.45.34-44.48,1.1-1,.15-1.56,1.38-.24,1.18Z"/><path class="cls-3" d="M285.89,118c3.43,1.56,7,2.59,10.19,4.69l.81-.71c-13.23,3.67-26.95,3.47-40.55,4.18a134.87,134.87,0,0,0-16.16,1.77c-3,.51-6.86,1.1-9.44,2.76-5.64,3.64,9.55,7.34,11.71,7.65,9.77,1.38,19.75-.38,29.55-.47.59,0,2.09-.91.8-.9-7.42.07-14.81.9-22.24.9a43.13,43.13,0,0,1-13-1.79,17.73,17.73,0,0,1-5.49-3c-2.79-2.17,7.5-4.23,7.82-4.29,18.93-3.73,38.48-.86,57.22-6.06.12,0,1.21-.46.81-.72-3.26-2.16-6.9-3.22-10.43-4.82-.47-.22-2.25.51-1.57.82Z"/><path class="cls-3" d="M270.64,139.21c.24,5.75-14.58,4-18,4.22-6.78.48-13.43,2.1-20,3.73-.68.17-1.25,1-.22,1.1,11.35,1.18,22.76,5.78,32.8,11.17a46.31,46.31,0,0,1,10.34,7.39c2.58,2.48,7,10.31.09,10.23-8-.09-16.27-4.81-23.57-7.63-9.1-3.52-18.89-2.45-28.45-3.28-.27,0-1.86.49-1.26,1,9.86,7.86,22.84,10.61,31.73,19.83l1-1c-4.8.68-9.42-3-13.35-5.32-3.42-2-7-3.54-11-3.41-.24,0-1.87.45-1.26,1,8.41,7.08,27.63,6.76,30.86,18.91l.83-.78c-6.49,2.09-12.73-2.69-17.89-6.06-4.34-2.84-8.73-5.71-13.91-6.66-.35-.06-2,.29-1.48.94,3,3.47,27.5,21,18.71,25.59-4.36,2.28-10.46-.34-14.67-1.87-3.58-1.31-7.08-2.8-10.71-4-10.35-3.34-22.59-2.47-33.31-2.47-.77,0-2,1.15-.74,1.15,7.37,0,14.74.06,22.09.67a64.67,64.67,0,0,1,18.68,4.65c6.24,2.42,14.53,6.14,20.82,1.9,8.84-5.94-15.77-22.66-19.08-26.43l-1.48.94c11.36,2.08,20.93,16.62,33.25,12.66.29-.09.94-.35.83-.78-3.35-12.58-22.42-11.93-31-19.16l-1.26,1c9.23-.28,15.6,10,24.83,8.72.28,0,1.49-.46,1-1-8.9-9.23-21.87-12-31.73-19.83l-1.26,1c7.86.68,16-.08,23.72,1.75,4.27,1,8.41,3.12,12.49,4.72,4.84,1.88,15.52,7.32,20.54,3.34,7-5.53-6.42-14.72-10.23-17.1-10.56-6.62-23.93-11.63-36.27-12.91-.08.37-.15.73-.23,1.1A137.51,137.51,0,0,1,264,144.31c3.78-.09,8.76-.94,8.56-5.61,0-.67-2-.27-1.93.51Z"/><path class="cls-3" d="M195.29,206c8.72-1.46,16.32,0,24.36,3.31,5.17,2.1,14.88,6.05,16.08,12.4l1.13-.67c-6.94,1.07-12.54-8.32-19.38-9.54-.27-.05-1.93.3-1.52.78,3.42,3.94,8.09,6.67,11,11l1.37-.7c-9,.43-17.14-5.85-25-9.48-.45-.22-2.23.5-1.57.81,8.15,3.76,16.38,10,25.77,9.55.15,0,1.62-.33,1.37-.7-3-4.41-7.7-7.19-11.17-11.19l-1.52.78c7.5,1.35,12.21,10.74,20.29,9.5.25,0,1.2-.26,1.12-.68-1.26-6.65-11-10.37-16.44-12.69a44.29,44.29,0,0,0-25.6-3.33c-.83.14-1.68,1.06-.33.83Z"/><path class="cls-3" d="M192.44,61.05a57.67,57.67,0,0,1,4.09-5.84c1.05-1.34,7.45-8.61,8.54-4.32.6,2.39-2.3,5.91-3.53,7.68A58.85,58.85,0,0,1,195.37,66l1.83-.23a3.32,3.32,0,0,1,1.51-2.27c.43-.45-1.43-.23-1.76.12a5.65,5.65,0,0,0-1.66,2.48c-.16.55,1.62,0,1.83-.22C199,64,211.09,50.74,205.58,49c-6.42-2-12.45,8.09-15.05,12.4-.17.28,1.61.17,1.91-.33Z"/><path class="cls-3" d="M205.55,62.24q1.71,2.34-2.07,3.75c-.9.45-1.81.87-2.73,1.27A12.1,12.1,0,0,0,197.86,69c-.3.25-.23.52.16.59a59.5,59.5,0,0,0,8.42.78c4.93.14-5.46,5.85-7.13,6.26-.13,0-1.23.5-.8.77,3,1.9,6.86,1.93,10.09,3.39A4.41,4.41,0,0,1,211,83.5c1.26,3.23-2.74,5-5,5.76A63,63,0,0,1,198,90.89c-.19,0-1.69.63-.93.9,4.3,1.56,8.88,2.13,13.16,3.79,2.5,1,5.17,2.54,4.79,5.57s-7.68,1.68-9.64,1.62c-.43,0-2.05.73-1,1,3.47.76,7,1.07,10.44,2.05,1.94.56,4.17,1.42,5,3.42,1.6,4-6.46,3.13-8,3-.6-.07-1.19-.16-1.78-.25-.77-.12-2.13.32-.9.28,2.59-.1,5.27.8,7.68,1.59,3.46,1.15,9.15,3.26,10.26,7.18l.85-.67a29.93,29.93,0,0,1-18.15-.82l-1.55.87c6.88,2.51,14.59,4.12,20.5,8.65l1.05-.83c-7.34.63-14.64-.69-22-.81-.26,0-1.73.35-1.29.85,6.5,7.45,21.32,3.36,25.32,13.38l1.11-.73c-8.85,1.2-16.82-3.06-24.75-6.3-.38-.16-2.2.41-1.68.79,6.5,4.75,14.94,6.12,20.73,11.91q2.81,2.31-2.8,3.66a22,22,0,0,1-3.51-.7,65.08,65.08,0,0,1-6.35-2.17,33.35,33.35,0,0,0-10-2.44c-.41,0-1.36.21-1.36.74,0,2.92,6.14,5.33,8.39,6.51,4.23,2.21,10.56,4.4,12.23,9.36l1.36-.75c-8.35-.25-17.82-4.8-26.07-2-5,1.71-.56,6.06,1.78,7.59,5.4,3.52,12,7.88,14.21,14.18l.85-.68c-6.14,2-13-4.75-18.14-7.15-.37-.17-2.19.31-1.68.79,7.17,6.81,20.39,10.4,23.73,20.52l.85-.67c-10.35,3.34-17.87-9-26.87-11.92-.33-.1-2.21.25-1.68.79,3.42,3.51,6.64,7.29,8.66,11.8l1.57-.73c-6.36-.45-10.57-5.85-16.66-7.14-.33-.07-1.54.12-1.56.61-.28,6.25,5.73,9.85,7.92,15.19l1.36-.74c-5.53.31-9.38-3.82-13.89-6.3-.34-.18-1.92.11-1.74.7.87,2.94,2.13,5.63,2.38,8.72l1.36-.74a7.25,7.25,0,0,1-5-1.46c-.5-.38-2.25.38-1.8.72a9.34,9.34,0,0,0,6.06,1.71c.38,0,1.4-.21,1.36-.74-.25-3.09-1.51-5.79-2.38-8.73l-1.75.69c4.88,2.68,8.76,6.74,14.67,6.4.24,0,1.56-.25,1.36-.74-2.15-5.21-8.21-8.9-7.94-15l-1.57.62c6.11,1.3,10.22,6.69,16.66,7.14.26,0,1.82-.18,1.57-.74-2-4.58-5.31-8.43-8.79-12l-1.68.8c9.92,3.17,17,15.63,28.66,11.88.21-.07,1-.31.85-.68-3.39-10.26-16.59-13.82-23.86-20.72l-1.68.79c6.08,2.83,12.7,9.46,19.93,7.12.2-.06,1-.31.85-.67-1.47-4.22-4.13-6.93-7.75-9.45-1.94-1.35-3.91-2.6-5.73-4.12s-9-6.79-1.68-7.37c7.58-.6,15,2.42,22.53,2.65.27,0,1.52-.25,1.36-.75-1.26-3.71-5-5.66-8.23-7.43-2.75-1.51-12.4-4.72-12.4-8.43l-1.36.74c9.05.43,18.19,8.81,27.16,3.71.1-.06.49-.3.38-.49-5.17-8.59-15.48-9.62-23.07-15.17l-1.68.79c8.44,3.45,16.65,7.64,26,6.38.23,0,1.29-.3,1.12-.72-4.1-10.28-18.91-6.09-25.45-13.59l-1.29.85c7.51.12,14.93,1.42,22.45.77.17,0,1.52-.47,1.05-.83-6-4.6-13.76-6.25-20.75-8.8-.51-.18-2.29.59-1.55.87a33,33,0,0,0,19.92.78c.23-.06,1-.31.86-.68-1.88-6.66-15.72-10.39-21.7-8.88-.4.1-1.36.69-.5.89,3.44.8,13.78,2.88,15.09-2.29,1.51-6-13.07-6.69-16.26-7.39l-1,1c3.63.1,13.09,1.65,12.38-4.62-.65-5.84-14.3-6.74-18.35-8.2l-.93.9c3.9-.73,13.7-1.16,15.14-6.11,2.11-7.21-8.7-6.61-12.5-9l-.79.78a17.84,17.84,0,0,0,11.09-7.57c.25-.37-.21-.48-.5-.48-2.52,0-5-.06-7.51-.27-3.92-.34-.44-1.49,1.06-2.24,2.38-1.2,3.91-2.44,4.64-5.07,0-.15-.06-.23-.18-.29-1.76-.88-2-.67-3.74.2-1.16.58.6.74,1.16.46Z"/><path class="cls-3" d="M191.35,90.44c-.79,1.59-1.59,3.39-2.38,5-.29.58.4,1.09.85,1.09H197c-.28-1-.57-.8-.85-1.09-1.24,4.22-5.09,6.57-8.45,9.07-.74.55-.12,1.13.57,1.15,3.79.13,13.18,2.63,6,6.56-1.15.63-.11,1.73.87,1.19,1.9-1,6-3.64,3.25-6.12-2.59-2.28-6.6-3-10-3.16l.57,1.21c3.58-2.66,7.69-5.41,9-9.91.18-.59-.31-.9-.85-.9H190c.29,0,.57.61.86.9l2.38-4.74c.5-1-1.46-1-1.86-.23Z"/><path class="cls-3" d="M192.73,116.63c2.39.27,5.41,1.41,5.14,4.32s-3.92,3.79-6.29,3.84c-1.08,0-1.51,1.39-.19,1.36,3.39-.07,7.45-1.42,8.38-5.08s-3.51-5.48-6.36-5.8c-.91-.1-2,1.21-.68,1.36Z"/><path class="cls-3" d="M189,125.8c4.12,1.77,8.21,4.46,7.87,9.45l1.15-.6c-3.29.49-6.55-.89-9.7-1.61-.29-.07-2.06.45-1.7.69,2.7,1.83,7.22,4.43,7.88,7.86,1.2,6.32-7.2,2.45-10.14,1.76-.22,0-2,.28-1.76.62,2,3.11,4.58,5.8,6.52,9,1.54,2.49,3.58,12.12-2.27,7.91-.28-.2-2,.21-1.87.59,2.5,5.5,6,10.35,5.55,16.65l1.39-.63c-3.4.19-5.47,1.16-7.16,4.19s.21,6.33-1.11,9.62c-1.5,3.74-5.5,6-8.76,8-.8.48,1.14.23,1.48,0,3.26-2,6.28-4,8.51-7.12,2.92-4.14-1.59-13.51,6.19-13.94.32,0,1.36-.2,1.39-.63.42-6.3-3-11.16-5.55-16.66l-1.88.58c1.67,1.2,5.87,3,7.27.07,3.14-6.56-4.6-13.23-7.77-18.11l-1.76.63c3.73.88,8.44,3.58,12.19,1.3,6-3.65-4-10.61-6.52-12.3l-1.71.69c3.72.85,7.1,2.13,10.93,1.56.27,0,1.12-.22,1.15-.6.33-5.06-3.8-7.78-8-9.58-.52-.23-2,.57-1.82.65Z"/><path class="cls-3" d="M194.25,213.14c6.32-.11,10.15,8.68,12.38,13.39,2.42,5.12,4.15,10.51,6.1,15.81.18.49,2.09-.1,1.93-.52-2.35-6.38-4.49-12.8-7.61-18.87-2.4-4.65-6.06-10.74-12-10.64-.54,0-2.11.85-.82.83Z"/><path class="cls-3" d="M209.14,245c5.28,1.23,2.2,5.24-.19,7.24-.45.38,0,.69.4.71a19.64,19.64,0,0,1,11.19,4.48,14.92,14.92,0,0,1,2.73,3c1.74,2.33-2,1.3-2.46,1l-1.14,1c5.3,0,11.35,2.43,16.43,3.81,6.37,1.73,12.41,3.57,18,7.08,9.86,6.15,17.32,15.92,23.72,25.43l1.27-.93c-12.18-1.27-19.57-13.1-30.55-17.37-.38-.15-2.29.35-1.66.84a86.08,86.08,0,0,0,13.61,8.82l.9-1c-5.62.39-10.36-3.26-15.23-5.48-.41-.19-2.27.38-1.66.85,5.05,3.93,10.52,7.21,15.88,10.71,1.83,1.19,3.6,2.47,5.34,3.8,2.82,2.15-.52,1.93-2.21,1.62-3.58-.65-7-2.67-10.21-4.29-.4-.2-2.22.25-1.66.85,7.52,8,18.62,12.89,21.35,24.47l1.55-.79c-9.32-1.31-17.22-10.75-23.66-16.94-9.44-9.07-20.62-16.65-30.77-24.95-.53-.44-2.32.32-1.79.76,10.48,8.57,21.89,16.41,31.63,25.79,6.36,6.11,14.15,15.09,23.41,16.4.4.05,1.71-.12,1.56-.79-2.75-11.67-13.89-16.59-21.49-24.71l-1.66.85c5.46,2.75,11.62,6.29,17.81,3.9.2-.08.85-.49.51-.78-7.38-6.34-16.14-10.7-23.8-16.66l-1.66.85c5.45,2.49,10.27,6.05,16.5,5.62.32,0,1.64-.62.9-1a85.09,85.09,0,0,1-13.36-8.63l-1.66.84c11.31,4.41,18.69,16.22,31.33,17.54.38,0,1.67-.34,1.27-.93-6.58-9.78-14.08-19-24-25.61-5.11-3.41-10.77-5.05-16.61-6.71s-12.62-4.34-18.64-4.34c-.37,0-1.93.51-1.15,1,2.76,1.79,4,1.12,6.31-1.1.17-.18.25-.32.12-.54a18.16,18.16,0,0,0-7.12-6.6c-1-.56-6.31-3.07-7.24-2.29,3.42-2.86,3.6-6.84-1-7.92-.62-.15-2.28.8-1.18,1.06Z"/><path class="cls-3" d="M215.17,290a36.77,36.77,0,0,1,7.93,6.35l1.69-.76c-4.52-2.1-7.86-5.67-11-9.46-.34-.4-2.18.21-1.81.7a52.35,52.35,0,0,1,6.28,10.22l1.87-.61c-7.92-5.72-10.94-17.46-20.74-20.68-.44-.15-1.57,0-1.74.56a6.21,6.21,0,0,0,0,4.86c.18.54,2.09,0,1.93-.51a5,5,0,0,1,0-4.66l-1.74.56c9.66,3.18,12.69,14.92,20.5,20.57.32.23,2.1-.09,1.87-.61a52.69,52.69,0,0,0-6.4-10.4l-1.81.7c3.19,3.87,6.62,7.44,11.22,9.58.34.15,2.13-.32,1.69-.76a37.07,37.07,0,0,0-7.93-6.35c-.52-.29-2.16.5-1.81.7Z"/><path class="cls-3" d="M128.19,174.48c3.72-7.2,2.84-17.63,1.39-25.28a57.87,57.87,0,0,1-1.12-15.36,27,27,0,0,0-.49-6.59c-.29-1.54-2.65-6.11-1.56-7.44,3.26-4,10.45-4.4,15.15-5.4a48.78,48.78,0,0,0,10-3.46c1.66-.76,9.52-4.92,7.23-.77-1.1,2-3.39,3.62-5.16,4.94a46.24,46.24,0,0,1-9.54,5.45c-1.17.5.66.48,1.12.28,4.9-2.07,16.53-7.42,16.27-13.88,0-.24-.68-.14-.79-.11a48.66,48.66,0,0,0-10.25,3.81c-4.54,2.12-9.11,3-13.94,4.13-3.25.72-13.88,2.82-12.08,7.69,3.11,8.45,1.09,17,2.87,25.64,1.66,8.06,2.9,19.07-1,26.69-.16.3,1.65.16,1.91-.34Z"/><path class="cls-3" d="M144.71,122.77a12.64,12.64,0,0,0,4,1.12l2.36.32,1.17.2c1.39-.07,1.75.67,1.08,2.23-3,1-5.42.51-7.13,3.56a.34.34,0,0,0,.14.51c3.54,1.36,13.26-1,10.9,5.33a3.42,3.42,0,0,1,1.34-.53h-.4c6.68-2,8.25-1,4.7,1.73-1,.88-2.08,1.54-3.07,2.41-.31.27-.21.6.19.68,2.4.48,3.27.59,1.06,2.62s-4.6,4-6.8,6.15c-.82.8,1.08.81,1.56.35,3.09-3,6.42-5.74,9.51-8.73.27-.26.24-.66-.19-.72-1.74-.23-4,0-1.8-1.69a11.67,11.67,0,0,0,3.7-4.08c.15-.28,0-.52-.31-.58a14.07,14.07,0,0,0-9.92,1.9c-.55.32-.4,1,.23,1h.8a1.47,1.47,0,0,0,1.34-.76c1.48-4-1-5.13-4.63-5.42-1.18-.1-2.37-.09-3.56-.11-3.73-.08-1.11-1.89,1.24-2.28a10.3,10.3,0,0,0,5.17-2.29c.14-.11.31-.41.12-.56-3.3-2.56-7.67-1.45-11.24-3.27-.58-.3-2.35.53-1.53,1Z"/><path class="cls-3" d="M144.85,166.58c.73-7.24,12.11-11.56,16.59-16.53.48-.53-.81-.47-1-.41-6.87,2-12.62,6.13-18.72,9.71l1.54.09c1.43-6.38,8.47-11.06,13.91-13.91,1-.5-.16-.77-.7-.65a26.07,26.07,0,0,0-3,.87c-.37.13-9,3.15-7.89,1.55,2.39-3.57,6.33-6.09,9.4-9,.73-.7-.75-.63-1.12-.45-5.13,2.38-5.21-3.11-2.23-5,.52-.33.44-.71-.19-.72-3.06-.05-9.82-.49-5.85-5.08l-1.78,0c-1,1.39-2.51,2.05-3.84,3.05l1.73-.15c-1.26-4,2.18-7.76,4-11,.16-.29-.43-.41-.57-.41H141.9c-.65,0-2.08,1-.78,1,1.93,0,2.9-.75,1.5,1.61-.48.81-1,1.62-1.44,2.44-1.2,2.25-2.23,4.34-1.43,6.87.19.58,1.45.07,1.73-.14,1.51-1.14,3-1.76,4.09-3.3.5-.67-1.44-.36-1.78,0-1.16,1.34-2.78,3.64-.35,4.79a13.25,13.25,0,0,0,3.92,1.06c.92.14,2.53-.4,1.8.31-4.62,4.54,1.22,7.22,5.41,5.27l-1.13-.45c-3.58,3.42-7.66,6.28-10.44,10.44-.11.15-.11.36.11.42a9.65,9.65,0,0,0,5.7-.22,33.47,33.47,0,0,0,4.05-1.72c2.16-1,2.89-1.87.31-.3-4.76,2.9-10.55,7.31-11.83,13.05-.14.65,1.33.22,1.55.09,5.78-3.39,11.26-7.44,17.77-9.33l-1-.41c-4.52,5-16,9.26-16.73,16.79-.07.69,1.86.3,1.92-.28Z"/><path class="cls-3" d="M144.77,116.82c-3.5.13-6.14,2.41-8,5.18-.69,1,1.11,1.33,1.62.59,1.5-2.19,3.43-4.24,6.25-4.34,1.11,0,1.48-1.48.17-1.43Z"/><path class="cls-3" d="M72.79,208.83c-1.7,2.44-4.54,6.45-4.48,9.55.08,4.2,3,7.52,5.79,10.38.37.38,2.16-.32,1.82-.67-2.83-2.91-6.26-6.63-5.54-11,.47-2.91,2.66-6.19,4.32-8.56.17-.25-1.58-.16-1.91.32Z"/><path class="cls-3" d="M75.93,228.51c.94-1.43.85-1.26.51-3-.38-1.85,1.17-2.17,1.52-3.74.4-1.83-.27-4.2,1.82-4.95A2.33,2.33,0,0,0,81.45,215c.17-.89-1.8-.61-2,.18s-2,1.11-2.61,1.74c-1,1-.58,3-.71,4.28-.18,1.63-1.38,1.42-1.6,2.72-.27,1.56.41,3-.48,4.4-.56.85,1.41.79,1.83.16Z"/><path class="cls-3" d="M82.87,215.45c.3-.29-.34-.06-.63,0a4.31,4.31,0,0,0-1,.24,2,2,0,0,0-1.28,1.1,22.91,22.91,0,0,1-1.15,2.52c-.43.81-1.21,2.32-2.17,2.6-1.11.33-1,1,.17.65,2.13-.63,3.3-2.34,4.25-4.25.26-.51.49-1,.7-1.57s.18-.52.81-.57a3.38,3.38,0,0,0,2.11-.82c.43-.44-1.42-.22-1.76.12Z"/><path class="cls-3" d="M75.68,205.27a7.56,7.56,0,0,1,.35,1.55,3,3,0,0,1,0,.79,1.26,1.26,0,0,1-.1.38c-.06.13.63-.05.76,0-.11-.06-.18-.64-.18-.87a3.81,3.81,0,0,1,0-.59c.09-.55.27-.12-.54,0,.42,0,1-.28,1.07-.77s-.52-.65-.89-.61a1.83,1.83,0,0,0-1.63,1.79c-.09.71,0,1.82.69,2.21a2,2,0,0,0,2.61-1.21,5.34,5.34,0,0,0-.24-3.18c-.28-.86-2.21-.33-1.94.52Z"/><path class="cls-3" d="M79,205.13c3-1,5.18-2.14,6-5.35.68-2.65,1.15-5,4.3-5.2a8.34,8.34,0,0,0,4.17-1.48c1.08-.74-.59-1-1.2-.58-2.28,1.55-5.19.52-7.24,2.54-1.11,1.09-1.48,2.89-1.82,4.33-.63,2.67-1.84,3.88-4.48,4.77-1.12.38-.88,1.36.26,1Z"/><path class="cls-3" d="M83.26,201.25c.46.6.64.73,1.4.66a7.13,7.13,0,0,0,1.7-.4,8.65,8.65,0,0,0,3.1-2c1.77-1.71,2.1-4.08-.45-5.12-.52-.21-2.28.57-1.56.86,1.66.68,1.9,2,.94,3.46a6.51,6.51,0,0,1-1.69,1.62,4.67,4.67,0,0,1-1.06.56c-.54.21-.3,0-.58-.33s-2.21.19-1.8.72Z"/><path class="cls-3" d="M84.31,198.8c.15,1.24,1.58,1.11,2.48.83.24-.07.92-.27.86-.64-.39-2.4-4.8-.48-3.28,1.2.71.8,2.39.29,3-.34a1.26,1.26,0,0,0-.22-2.07,2.26,2.26,0,0,0-2.61.91c-.36.8.49,1.73,1.23,1.84a2.66,2.66,0,0,0,2.7-1.46,1.87,1.87,0,0,0-1.41-2.39c-1.2-.12-2.59.53-2.5,1.89A1.62,1.62,0,0,0,86.37,200c1-.05,2.13-.62,1.78-1.78s-1.81-1.12-2.72-.77a1.54,1.54,0,0,0-1,.94,2.13,2.13,0,0,0,.18,1.29c.41.84,1.45.8,2.23.63a1.82,1.82,0,0,0,1.61-1.65,1.77,1.77,0,0,0-.53-1.16,1.67,1.67,0,0,0-1.43-.35c-.91.09-2.21.92-1.65,2s2.3,1.08,3.16.4c.6-.47.35-1.26-.07-1.76-.72-.89-2.23-.44-3,.12-.09.06-.27.21-.21.34A2.13,2.13,0,0,0,87,199.47a1.84,1.84,0,0,0,1.29-.49c.29-.34-.26-.44-.49-.43a1.23,1.23,0,0,1-1.13-.87l-.21.35a2.68,2.68,0,0,1-.57.13s-.19,0-.05,0a.79.79,0,0,1,.26.2,1.27,1.27,0,0,1,.34.74.49.49,0,0,1,0,.27c-.05.14.29-.31,1-.35.08,0,.15,0,0,0a1,1,0,0,1-.72-.89.56.56,0,0,1,.13-.35c-.15.19-.91.23-.93.22a.5.5,0,0,1,.19.1,1.38,1.38,0,0,1,.47,1.18.75.75,0,0,1-.14.33c-.09.11,0,0,0,0a1.39,1.39,0,0,1,.52-.14c.11,0,0,0-.09,0a.81.81,0,0,1-.33-.38,1.64,1.64,0,0,1-.11-1.15c0-.09-1,.12-.63.26a.88.88,0,0,1,.44.54,1.12,1.12,0,0,1,.08.57c0,.05-.06.11,0,0-.32.29.65-.32.89-.26a1.06,1.06,0,0,1-.67-.85,1.14,1.14,0,0,1,.09-.75c.16-.38.64.49-.83.14a.71.71,0,0,1,.31.19,1.55,1.55,0,0,1,.5,1.5,1,1,0,0,1-.26.47c-.07.08-.21.1.1,0s.76,0,.51-.12a1.32,1.32,0,0,1-.51-1.05.83.83,0,0,1,.06-.21c-.09.21-.74.29-.92.28s0,0,0,0a.52.52,0,0,1,.18.18.9.9,0,0,1,.08.7.76.76,0,0,1-.11.26c-.22.32.43-.14.65-.12-.4,0-.45-.65-.33-.94,0,0,.09-.13.06-.1s-.82.18-.77.21a.92.92,0,0,1,.36.7l.86-.65c-.13,0-.16,0-.1,0s.13,0,0,0-.25-.37-.28-.59c-.06-.51-2-.1-1.93.51Z"/><path class="cls-3" d="M188.82,256.68c12,7.89,21.57,19.35,29.32,31.34l1.43-1.11c-12-4.06-20.11-16.09-29.27-24.28-.58-.51-2.27.31-1.62,1a34,34,0,0,1,5.08,7.07c.32-.39.64-1.21,1-1.21h-2c-1.13,0-1.46,2-.15,2h2c.59,0,1.28-.79,1-1.4a34.42,34.42,0,0,0-5.08-7.22c-.54.33-1.08.62-1.62.95,9.26,8.27,17.45,20.34,29.65,24.45.6.21,2-.31,1.43-1.12-7.8-12.09-17.49-23.68-29.6-31.64-.75-.5-2.42.53-1.48,1.15Z"/><path class="cls-3" d="M160.16,245.19c4.32,5.47,8,11.3,9.14,18.28.06.36,2-.07,1.93-.52-1.18-7-4.82-12.81-9.14-18.28-.35-.45-2.05.37-1.93.52Z"/><path class="cls-3" d="M185.38,231.34c-7.3-9.27-15.76-17.77-21.26-28.32l-1.73.74c12.19,6,20.29,19.59,26.21,31.27.35.69,2.23.08,1.93-.52-6-11.92-14.17-25.63-26.61-31.71-.35-.17-2.08.08-1.73.74,5.54,10.64,14,19.22,21.4,28.57.43.55,2.29-.14,1.79-.77Z"/><path class="cls-3" d="M179.46,225.89c5.38,6.39,11.79,12.74,13.2,21.33.06.36,2-.07,1.93-.52-1.41-8.59-7.81-14.93-13.2-21.33-.38-.44-2,.39-1.93.52Z"/><path class="cls-3" d="M177.05,228.39c2.73.43,5.32,7.29,6.37,9.35,1.9,3.75,3.61,7.61,5.18,11.51.36.9,2.28.36,1.93-.52q-2.81-6.94-6.25-13.62c-1.27-2.44-3.37-7.68-6.58-8.18-1-.16-1.95,1.26-.65,1.46Z"/><path class="cls-3" d="M174.37,241v1c0,.95,1.95.61,1.95-.18v-1c0-1-1.95-.62-1.95.17Z"/></svg>