<svg id="layer1" xmlns="http://www.w3.org/2000/svg" viewBox="0 0 262.3 283.26"><defs><style>.cls-1{fill:#f4cb1e;stroke:#492d0c;stroke-miterlimit:10;}.cls-2{fill:#d81e1e;}.cls-3{fill:#492d0c;}</style></defs><path class="cls-1" d="M184.61,44.82A35.49,35.49,0,0,0,178,51.27a36.87,36.87,0,0,0-5.88,7.24c-5.33,6.76-11.43,12.82-17.32,19.09a2.85,2.85,0,0,0-.19,3.9,18.65,18.65,0,0,0-6,3.84,3.13,3.13,0,0,0-3.42,1.27c-7.2,9.7-19.2,14.22-23.42,26a22.73,22.73,0,0,0-2.92,11.88c.33,8.8,3.84,17,7.33,24.95.48,1.11,1,2.23,1.44,3.35a2.76,2.76,0,0,0-2.15,3.63c.09.32.19.63.28.95h0a.59.59,0,0,0,0,.08c1.29,4.32,3.51,8.27,5.49,12.31,2.14,4.36,5.35,10.27,3.05,15.1-1.95,4.09,4.53,6.75,6.46,2.7a14.73,14.73,0,0,0,1.34-4.62,3.41,3.41,0,0,0,.73-2.57c-.78-8-3.25-15.62-6.08-23.1,0-4.11-2.41-7.49-3.43-11.6-1.34-5.33-3.39-10.42-4.78-15.7a4.44,4.44,0,0,0,.19-.55c1.86-7.93,3.92-15.59,8.18-22.61a3.58,3.58,0,0,0,.54-1.9c5.3-4.91,10.85-9.58,16.21-14.41,4.48-4,6.76,0,8.5,4A86.53,86.53,0,0,0,166,102.7c2.6,4.66,4,10,7.82,13.75a3.64,3.64,0,0,0,5.05,2.78c3.44.53,7-1.29,9.35-4,3.3-3.77,4.6-9.35,5.69-14.32a3.15,3.15,0,0,0,.87-1.38,51.87,51.87,0,0,0,1.41-6c1.28-4.48,3-8.78,3.47-13.58.54-5.32,2.14-10.16,3.68-15.23.49-1.65,1.33-4.26,1.94-7.12a9.41,9.41,0,0,0,.63-8.57,9.56,9.56,0,0,0-1.7-4.48,7.11,7.11,0,0,0-1.75-1.72,3.52,3.52,0,0,0-3.31-1.75C193.8,41.35,189.05,41.64,184.61,44.82Zm-7.84,63.37-.36.92c-.26-.4-.52-.82-.76-1.27A3.18,3.18,0,0,0,176.77,108.19ZM169,93.11a3.43,3.43,0,0,0,1,0,4.67,4.67,0,0,1-.14.5,3.73,3.73,0,0,0-.18,1.16C169.46,94.18,169.23,93.65,169,93.11Z"/><path class="cls-1" d="M80.55,218.19q-1.14.45-2.31.87c-3.14,1.15-2.37,5.12.05,6.45a54.36,54.36,0,0,0,10.92,4.92,3.73,3.73,0,0,0,2.32-.08c3.16,1.7,7.42,2.33,10.4,2.55a3.39,3.39,0,0,0,3.82-3.8,3.53,3.53,0,0,0,2.78-1.21l1.21-1.33c.13-.09.28-.16.42-.26a3,3,0,0,0,1-1.23c1.48-1.41,3.06-2.72,4.68-4a9.64,9.64,0,0,0,1.33-1.8c.85-.68,1.72-1.34,2.64-1.94,3.18-2.07.18-7.45-3.13-6.15h-.13c-.13,0-.27,0-.4.06h-.06c-5.63.87-11.22-.55-16.88-.64a32,32,0,0,0-12.93,2.58A12.74,12.74,0,0,0,80.55,218.19Z"/><path class="cls-2" d="M110,211.17a30.92,30.92,0,0,0,8.48-.45,13.41,13.41,0,0,0,8.91-6.46.91.91,0,0,0,.17-.09,10.5,10.5,0,0,0,4.23-5.15,3.2,3.2,0,0,0,.84-1.65c.52-2.55,2-4.21,3.15-6.47,1.46-2.88,1.07-6,.63-9-1.11-7.73-4.21-15.19-7.29-22.32-1.79-4.13-3.8-8.15-5.69-12.23a51.25,51.25,0,0,0-2-8.87c0-.32-.08-.64-.11-1-.53-5.65-1-11.25-3.1-16.56-1.31-3.26-5.47-3.38-6.75,0l0,.09c-1.62-.64-3.67-.6-6.31.4A14.85,14.85,0,0,0,97.3,128c-5.43.7-6.14,8.07-5.7,15.67-2,7.12-.45,15-3,21.89-5.26,5.65-13.41,9-21.11,9.7a3.53,3.53,0,0,0-2.28,6.08,3.4,3.4,0,0,0-3.76.24c-.59-.36-1.2-.71-1.82-1-1.88-.94-4.69-.25-5.14,2.09a8.3,8.3,0,0,0-.12.83A3.7,3.7,0,0,0,52,186.42c-.86,2.46,1.3,6.33,3.32,9.34,3.47,8.1,7.95,16.13,14.58,21.61,1.85,1.53,5.29,1.27,5.85-1.55l.18-1a3.6,3.6,0,0,0,3-.08A101.32,101.32,0,0,1,99,208.16q.9.12,1.83.33C103.93,209.2,106.84,210.94,110,211.17Zm-17.39-37a3.22,3.22,0,0,0-.76-.34c.13-.16.24-.32.36-.48Zm14-45.9a21.12,21.12,0,0,0-.52,4.5,11.71,11.71,0,0,0-1.61-.71,2.77,2.77,0,0,0-1.08-.12A12.39,12.39,0,0,1,106.68,128.31Zm-39.16,54c1.53.1,3.06.15,4.58.12,0,.13,0,.26-.06.39s0,.44,0,.66a13.87,13.87,0,0,0-2-.82,3.06,3.06,0,0,0-2.54.21c-.39-.3-.79-.57-1.19-.83A4,4,0,0,0,67.52,182.29Z"/><path class="cls-2" d="M214.48,53c-1.58-1.15-2-2.09-4.17-2.09a3.54,3.54,0,0,0-3.5,3.5c-.23,6-2.6,11.92-4.38,17.63-2,6.31-3.11,12.77-5.37,19-4.88,13.45-13,25.56-20.26,37.8C169.26,141.61,161.18,154,153,166.3c-6.59,9.82-15.17,19.1-18.22,30.81a1.08,1.08,0,0,1,0,.19c-1.2,1.86-2.42,3.71-3.68,5.55a11.67,11.67,0,0,0-2.63,3.77c-5.29,7.37-11.2,14.29-18.52,19.69a3.85,3.85,0,0,0,.1,6.17,3.37,3.37,0,0,0,2.34,2.63l2.41.8c2,.68,4.63-1.16,4.43-3.37-.14-1.58.68-2.44,1.64-3.35a5.94,5.94,0,0,1,1.15.31,3.51,3.51,0,0,0,4.43-3.38c-.34-4.3,2.85-8.33,6.29-10.61a3.52,3.52,0,0,0,1.73-3,8.83,8.83,0,0,1,.31-2.74c.58-.81,1.16-1.63,1.73-2.46a2,2,0,0,1,1.52.2c2.53,1.32,6.2-.86,5.14-3.95a19,19,0,0,1-.68-6.29,3.61,3.61,0,0,0-.12-.89c3.67-10.59,12.09-19.37,18.09-28.63,6.46-9.95,12.91-19.89,19.16-30a.57.57,0,0,0,0,.13c-.05,4.52,6.95,4.51,7,0,0-3,.23-6,1.85-8,2.1-.77,3.62-1.26,5.15-3.16s.89-4.9-1.12-5.76c2-6.23,4.55-12.85,9-17.19h.09a3.51,3.51,0,0,0,3-1.78l.81-1.63a3.86,3.86,0,0,0-.63-4.21c1-3.67,3.43-7,4.8-10.56a17.82,17.82,0,0,0,1.3-6.1c.06-2.1-.87-4.61,1.29-6a3.53,3.53,0,0,0,1.61-4,12.86,12.86,0,0,1,2-11.74C216.92,56.16,215.91,54.08,214.48,53Z"/><path class="cls-3" d="M49.49,191c4.83,14,14.75,25,27.08,32.92,8.74,5.6,19.55,10.11,30.1,9.81.52,0,2.12-.81.84-.78-11.07.31-22.2-5.07-31.19-11a62.78,62.78,0,0,1-24.9-31.44c-.16-.46-2.07.12-1.93.52Z"/><path class="cls-3" d="M106.5,233.85c3,.51,6.53-3.67,8.39-5.36,6-5.42,10.83-12.24,15.74-18.58a577.76,577.76,0,0,0,37-53.63q8.17-13.49,16.67-26.76c5.23-8.16,10-16.08,13.26-25.26s5-18.73,7.49-28.07c1.88-7,4.11-13.92,5.84-21,.18-.73-1.77-.44-1.94.23-3.52,14.44-7.49,28.93-11.5,43.23-5,17.91-16.31,32.65-26,48.27-10.24,16.58-20.33,33-32,48.63-5.71,7.68-11.41,15.37-17.46,22.78-2.36,2.89-4.72,5.83-7.35,8.47-1,1-5.68,6.2-7,6-.63-.11-2.28.88-1.18,1.06Z"/><path class="cls-3" d="M51.42,190.46c.12-3.4-.88-6.51,1.08-9.63s5.66-2.66,8.87-2.22a27.38,27.38,0,0,0,9.76-.42,22.64,22.64,0,0,0,14.08-9.69c8.44-12.73-1.1-30.77,9.9-42,.53-.54-1.39-.38-1.78,0-6,6.07-6,15.06-5.9,23.05.06,7.16-.45,13.58-4.54,19.75a19.36,19.36,0,0,1-10.83,7.74c-4.74,1.39-9.11.07-13.82,0a9.1,9.1,0,0,0-5.67,1.72c-4.3,3-2.93,7.8-3.08,12.15,0,.49,1.9.17,1.93-.52Z"/><path class="cls-3" d="M95,126.68c10.73-8,23.54-12.89,33.93-21.32,6-4.83,11.24-10.89,16.67-16.32,5.18-5.17,9.14-11.39,14.42-16.45,8.61-8.24,14.14-19.31,23.49-26.87,10.27-8.32,26.37-5.32,25.46,9.74,0,.79,1.9.4,1.94-.25.61-10.29-6.21-16.16-16.25-15.16-12,1.18-20,12.12-26.66,21-4.25,5.69-9.25,10.46-13.83,15.83-6.16,7.23-12.34,14.05-19.11,20.73a98.88,98.88,0,0,1-21.92,16.5,180.75,180.75,0,0,0-19.69,12.26c-.88.65,1.06.68,1.55.31Z"/><path class="cls-3" d="M105.32,231.81c2-1.16,2.83-3,4.26-4.76,3-3.61,6.65-6.69,10-10,6.3-6.3,11.11-14.29,16.36-21.45,11.95-16.3,22.85-33.13,33.74-50.14,9.61-15,21.53-29,26.46-46.48,1.32-4.68,1.88-9.56,3-14.29,1.21-5,2.77-10,4.31-14.92,2.72-8.71,5.93-16.81,4.24-26.09-.06-.34-2,.1-1.93.52C207.52,54,203.81,62.83,201,72s-4.44,18.2-6.75,27.35C190,116.14,178,130,168.77,144.23c-10.32,15.89-20.3,31.86-31.45,47.2-5.41,7.44-10.66,15.1-16.36,22.32-2.93,3.72-6.64,6.83-10,10.15-2.37,2.33-4.3,6.25-7.11,7.92-.79.47,1.15.18,1.47,0Z"/><path class="cls-3" d="M56.31,190.18c10.55,4.2,24.09-6,30.52-13.42,4.84-5.59,8.06-12.51,10.41-19.45,3-9,1.33-17.68.71-26.92,0-.55-2-.16-1.94.52.5,7.38,1.89,14.62.62,22-1,5.76-3.75,11.6-6.58,16.66a45.76,45.76,0,0,1-11.17,13.17c-5.11,4.15-14.46,9.17-21,6.56-.53-.21-2.3.58-1.56.88Z"/><path class="cls-3" d="M76.85,219.75c3.16-2.32,6.1-4.82,9.6-6.63,5-2.59,10.68-2.43,16.11-2.13,5.61.32,13-.5,18.28,1.62.43.17,2.18-.52,1.58-.76-3.07-1.24-6.58-1.09-9.83-1.16-5.06-.12-10.09-.74-15.16-.66-9,.16-15.12,4.55-22.06,9.65-.79.58,1.14.33,1.48.07Z"/><path class="cls-3" d="M183.26,122.62c-2.84,0-6.15-4.74-7.84-6.65-2.1-2.39-4.19-4.87-6.06-7.45-3.07-4.24-4.83-9.26-6.28-14.23-.64-2.2-1.21-6.65-3.21-8-.38-.26-1,0-1.37.17-7.19,4.11-13.61,11.15-19.47,16.92-6.21,6.11-10.79,12.72-10.76,21.72,0,4.06,1.4,7.92,2.58,11.75,1.64,5.33,3.08,10.73,4.56,16.11,2.57,9.31,8.23,19.54,7.15,29.36-.09.82,1.86.46,1.94-.22.65-5.94-1.24-11.46-3.22-17-2.56-7.1-4.39-14.41-6.42-21.67-2.15-7.68-5.43-15.12-4.36-23.24,1.09-8.39,8-14.64,13.87-20.1,2.4-2.24,4.92-4.32,7.33-6.54,1.13-1.05,2.24-2.12,3.38-3.16a27.43,27.43,0,0,1,3.38-2.61c0-.91.22-.61.66.89,2.73,5.87,3.39,12.4,6.81,18a79,79,0,0,0,9.19,11.7c1.78,2,4.44,5.34,7.4,5.35.76,0,2-1.13.74-1.14Z"/><path class="cls-3" d="M138.82,190.9a108,108,0,0,0-5.12-19.63c-2.69-7.53-4.27-15.5-6.23-23.24-1.69-6.68-4-13.26-5.46-20-.73-3.25-3.59-12-.21-14.42.83-.6-1.12-.44-1.51-.15-2.87,2.07-1.72,7-1.26,9.93,1,6.12,3,12,4.63,17.93,2.29,8.36,4.24,16.81,6.48,25.19,1.1,4.13,2.69,8.12,4.12,12.14,1.51,4.21,1.91,8.37,2.63,12.74.08.5,2,.06,1.93-.52Z"/><path class="cls-3" d="M209.12,50.47c-.05,2.48,3.18,3.86,4.92,5.05l-.18-.66c-.63,1.21-.45,2.56-.73,3.86l.81-.73c-1.5.38-2.87-.68-4.42-.26-1.19.32-.84,1.63.35,1.3.69-.19,1.43.26,2.1.37a5.35,5.35,0,0,0,2.32-.11,1,1,0,0,0,.8-.73c.25-1.15,0-2.42.61-3.49a.51.51,0,0,0-.17-.66c-1.3-.89-4.49-2.24-4.45-4.09,0-1-1.94-.71-2,.15Z"/><path class="cls-3" d="M208.51,60.24c-.46,1.56.22,2.66,1.23,3.83.67.78,2.34,1.46,2.15,2.73a29.58,29.58,0,0,0-.46,4.7l1.15-.6c-3.3.72-5.75-.38-8.11,2.65l1.92-.43a2,2,0,0,1-.51-1.27c-.09-.41-2,.08-1.93.52a2,2,0,0,0,.51,1.26c.3.46,1.67-.1,1.92-.43,1.47-1.9,3.83-1.17,5.83-1.61.26-.06,1.15-.22,1.15-.61a37.2,37.2,0,0,1,.59-5.56l-.06-.07c-1.75-1.24-4.2-3-3.47-5.46.11-.37-1.76-.13-1.91.35Z"/><path class="cls-3" d="M204.56,74.16a8.79,8.79,0,0,0,3.18,3.61c1.88,1.34.64,5.21,0,7.12l1.55-.65c-3-.91-5.49,1.51-7.74,3.1l1.5.33a1.35,1.35,0,0,0,.18-1.13c-.08-.66-2-.22-1.93.52l0,.55c-.42.82,1.17.57,1.5.33,1.45-1,3.42-3.22,5.37-2.63a1.4,1.4,0,0,0,1.55-.66,42.09,42.09,0,0,0,1.23-6.5c0-.18-.06-.27-.2-.36-1.66-1.14-3.33-2.24-4.17-4.15-.3-.69-2.2-.09-1.93.52Z"/><path class="cls-3" d="M201.25,88.43a14.17,14.17,0,0,0,2.45,3c2.12,2.11,2.42,3.49,2.08,6.31-.46,3.89-3.24,4.72-6.37,6-1.58.64-2.54,2-4,2.75-.81.44,1.13.19,1.46,0,2.15-1.15,3.72-2.62,6.11-3.48a6.93,6.93,0,0,0,3.5-2.32c.62-1,2.58-6.16,1.91-7-1.68-2-3.88-3.55-5.19-5.84-.26-.44-2.06.29-1.93.52Z"/><path class="cls-3" d="M192,115.92a7.84,7.84,0,0,0,3.12,5.7c1.14.82.23,1.49-.35,2.52-1,1.72-2.15,5-4.55,5-1.73,0-3.53-.2-5.26-.37-.89-.09-2,1.19-.69,1.32,2.49.24,5.81,1,8.16-.11,2.68-1.24,4.11-5.72,5.6-8a.44.44,0,0,0-.17-.62,7.07,7.07,0,0,1-3.91-5.59c0-1-2-.62-1.95.17Z"/><path class="cls-3" d="M177.83,141.27v0c0,.2-.62.4-.91.59,2.17-.68,6.61,1.32,8.64-.73,1.53-1.55,3-3.72,2.19-5.95-.73-2-2.27-3.1-2.07-5.47,0-.31-1.89-.09-1.94.52-.16,1.94.76,3.2,1.72,4.78a3.67,3.67,0,0,1,.55,2.58,5,5,0,0,1-.62,1.54c-.24.46-1.93,1.85-.75,2-2.31-.24-5.68-.62-7.93.09-.24.08-.88.24-.88.59v0c0,.39,2,.05,2-.52Z"/><path class="cls-3" d="M115.25,228.17c.52-.78,6.59,2.8,8,2.66,3.31-.32,4.63-3.71,6.6-5.87a.23.23,0,0,0,.09-.18,17.11,17.11,0,0,1-3.48-8.35c0-.35-2,0-1.93.52a16.45,16.45,0,0,0,2.92,7.59c.77,1.11-1.21,3-1.72,3.69-1.63,2.35-2.94,1.44-4.93.38-1.63-.87-6.07-2.15-7.43-.09-.12.18,1.6.11,1.9-.35Z"/><path class="cls-3" d="M110.29,233.18c.86-.46,3.13.76,3.86,1.11a10.17,10.17,0,0,1,2.53,1.69c.4.38,1.6-.13,1.86-.5s1.64-2,1.51-2.29a21.92,21.92,0,0,1-1.54-3.8c-.11-.48-2.05,0-1.93.51a12.38,12.38,0,0,0,1.06,2.77c.63,1.27-.32,2.12-1,3.13l1.86-.5c-2.18-2.06-6.42-4-9.33-2.43-1.13.61.65.57,1.13.31Z"/><path class="cls-3" d="M131.56,206.61s0,0,0,.08l1.58-.69h0l-1.53.78a13,13,0,0,1,6.19,1.75,5.22,5.22,0,0,0,2.86.79c1.79-.1,2.53-1.52,3.3-2.92.44-.81,1.64-1.65,1.36-2.6s-.68-1.91-1-2.85c-.46-1.21-.92-2.41-1.36-3.62-.14-.39-.81-1.66-.62-2.08l-1.75.56h.05c.49.12,2.2-.65,1.58-.8h0c-.47-.12-1.52.05-1.75.55-.32.72.68,2.49.92,3.14.63,1.7,1.31,3.39,1.92,5.1.44,1.26-1.4,3.63-2.24,4.68-.17.21-3.38-1.81-3.77-1.95a15.36,15.36,0,0,0-4.36-.61c-.22,0-2,.54-1.53.77a2.21,2.21,0,0,0,.62.18c.31,0,1.68-.18,1.58-.69,0,0,0,0,0-.07-.09-.48-2,0-1.94.51Z"/><path class="cls-3" d="M126.57,215.67c.7-.5,3.9,2.19,4.51,2.62a1.52,1.52,0,0,0,1.8-.37c1.21-1.77,2.41-3.55,3.63-5.32a.28.28,0,0,0,0-.37c-1.44-1.51-2.82-3.18-2.09-5.36.21-.62-1.72-.36-1.92.26-.65,1.9.19,3.44,1.37,4.92.85,1.06.66.81-.21,2.08l-2.59,3.78,1.8-.36c-2.23-1.56-5.13-4.13-7.84-2.15-.88.63,1.07.61,1.53.27Z"/><path class="cls-3" d="M153.6,78.85c.87,1.47,2.05,2.76,2.47,4.45l.89-.56c-1.22.28-2.66-2.45-3.13-3.26l-1.87.58,3.76,2.57c.29.2,2.07-.19,1.88-.59a21.05,21.05,0,0,0-3.79-5.37c-.27-.29-2,.22-1.87.59,1.14,2.62,3.27,4.54,5.34,6.44.29.26,2-.2,1.88-.59a5.77,5.77,0,0,0-2.86-3.36c-.38-.17-1.72,0-1.86.5-.44,1.57.17,3.12,0,4.71,0,.28,1.88.06,1.93-.51.12-1.53-.49-3-.06-4.54l-1.87.5a5.49,5.49,0,0,1,2.75,3.22L159.1,83c-2-1.86-4.11-3.73-5.23-6.3l-1.88.59a20.24,20.24,0,0,1,3.67,5.23l1.88-.59-3.76-2.57c-.3-.2-2.08.23-1.88.59,1.2,2.12,2.59,4,5.22,3.35.17,0,1-.26.89-.56-.42-1.68-1.61-3-2.48-4.44-.28-.49-2.09.24-1.93.51Z"/><path class="cls-3" d="M146,87.92a6.86,6.86,0,0,0,2.45,2.65c.36.24,2,0,1.87-.62a7.84,7.84,0,0,0-3.06-4.44c-.35-.26-2,0-1.87.62.67,2.65,3,4.08,4.73,6,.33.37,2.11-.18,1.87-.61a18.73,18.73,0,0,0-4.73-6c-.33-.25-2.1,0-1.87.62a12.91,12.91,0,0,0,6.32,6.64,1.73,1.73,0,0,0,1.67-.45c2.22-3-1.06-7.93-1.17-11.18,0-.5-1.85-.09-1.92.4a12.61,12.61,0,0,0,1.48,8c.25.48,1.87.12,1.92-.4a20,20,0,0,0-1.17-7.81c-.16-.53-1.88-.08-1.92.41-.26,2.64.38,5.25.12,7.89l1.74-.57c-2-.6-3.28-2.2-4.67-3.67-.36-.38-1.89,0-1.87.62.09,2.4,2.21,3.85,3.79,5.39l1.8-.71c-1.14-.81-2.72-2.47-4.29-2.35a4.38,4.38,0,0,0-3.38,1.93c-.46.6,1.45.37,1.78-.05,1.25-1.63,2.87.32,4.09,1.18.42.3,2.25-.26,1.8-.71-1.52-1.49-3.57-2.87-3.66-5.2l-1.87.61c1.47,1.54,2.81,3.17,4.92,3.8.37.11,1.69,0,1.74-.57.25-2.63-.38-5.25-.12-7.88l-1.93.4a19.82,19.82,0,0,1,1.19,7.58l1.92-.41a12.31,12.31,0,0,1-1.5-7.79l-1.92.41a23.68,23.68,0,0,0,1.15,5.22c.42,1.57,1.27,4,.17,5.5l1.67-.45a12.34,12.34,0,0,1-6-6.32l-1.87.61a17.92,17.92,0,0,1,4.61,5.85l1.87-.61c-1.67-1.9-4-3.27-4.61-5.85l-1.87.61a7.54,7.54,0,0,1,2.94,4.25l1.87-.61A6.2,6.2,0,0,1,148,87.4c-.28-.57-2.15.08-1.93.52Z"/><path class="cls-3" d="M142.78,91.32c-2.57,1.49.25,4.44.72,6.35.17.66,1.9.21,1.94-.37.16-2.55-1.7-5.3-3.05-7.35-.32-.49-1.56,0-1.79.36a5.87,5.87,0,0,0,.88,6.52c.41.46,1.72.07,1.86-.5.43-1.66-.43-3.09-1.39-4.38-.29-.39-1.19-.12-1.5.09-2.45,1.62-1.48,5.2.59,6.78.39.3,2.1.1,1.86-.64a2.4,2.4,0,0,1-.2-.91c.17-.74-1.78-.43-1.93.23a2,2,0,0,0,.2,1.2l1.86-.64c-1.28-1-3-4.2-1.17-5.44l-1.5.09c.84,1.14,1.63,2.39,1.25,3.85l1.86-.49c-1.26-1.44-1.88-4-.87-5.71l-1.8.35c1.2,1.83,3.05,4.52,2.9,6.82l1.94-.37c-.25-1-2.74-4.51-1.46-5.25s-.57-1-1.2-.59Z"/><path class="cls-3" d="M133.15,97.14c-1.11,2.14-.08,4.37,1.11,6.25.35.55,1.77.08,1.86-.5a4.78,4.78,0,0,0-1-3.67c-.29-.42-1.18-.17-1.5.06-2.49,1.71-1.38,4.28-.31,6.59.32.71,1.52.25,1.87-.21,1.78-2.35.11-5.61-1.62-7.51-.43-.46-1.52-.15-1.8.35-1.78,3.09.49,6.87,2,9.61.33.6,1.53,0,1.8-.34,2.38-3.25-.93-7.66-1.93-10.85l-1.93.52a16.55,16.55,0,0,0,2.23,4.37c.38.48,1.56.14,1.8-.35a4.78,4.78,0,0,0,.3-3.35l-1.93.51a10.43,10.43,0,0,0,1,2.14c.3.55,1.59.09,1.8-.34a3.55,3.55,0,0,0,.39-1.43c0-.33-.2-1.08,0-1.36l-1.27.55.09.07c.62.34,2.38-.53,1.52-1a1.71,1.71,0,0,0-2,.12c-.71.7-.07,2.08-.5,2.95l1.8-.34a9.84,9.84,0,0,1-.86-1.87c-.22-.75-2.06-.26-1.93.51a3.92,3.92,0,0,1-.18,2.74l1.8-.34a15.41,15.41,0,0,1-2.09-4.1c-.29-.73-2.17-.22-1.93.52.9,2.89,4.18,7.3,2,10.23l1.8-.34c-1.32-2.38-3.54-6-2-8.73l-1.8.34c1.5,1.64,3.16,4.55,1.59,6.62l1.88-.21c-.68-1.46-2.22-4.14-.39-5.39l-1.51.05a3.85,3.85,0,0,1,.83,3.09l1.86-.5c-1-1.53-2-3.57-1.07-5.35.46-.88-1.49-.73-1.82-.11Z"/><path class="cls-3" d="M125.48,105.65c-1,1.94,0,4,1.58,5.26.44.36,1.69,0,1.73-.62a6.38,6.38,0,0,0-1.73-4.65c-.35-.43-1.12-.26-1.51,0-2.65,1.88-.93,6,.82,8a1.24,1.24,0,0,0,1.68-.16c1.72-2.27,0-4.66-1.31-6.67-.45-.66-1.67-.09-1.87.5-.77,2.28.59,4.12,1.71,6,.33.56,1.36.15,1.69-.16,2.26-2.16.26-6.12-.27-8.61-.18-.84-2.1-.34-1.93.51,0,.18.06.35.1.53.12.63,1.27.42,1.59.14,1.14-1,2.07-2.14,3.15-3.17l-1.72-.33-3,4.39,1.83.16L130,104c.57-.83-1.4-.8-1.83-.16l-1.93,2.82c-.57.84,1.4.8,1.83.16l3-4.38c.6-.89-1.32-.71-1.72-.33-1,.92-1.79,2-2.81,2.87l1.6.13c0-.17-.07-.35-.1-.52l-1.93.51c.42,2,2.36,5.92.6,7.6l1.69-.16c-1-1.73-2.24-3.3-1.54-5.38l-1.86.5c.94,1.4,2.77,3.67,1.5,5.35l1.68-.16c-1.08-1.21-3.21-5-1.33-6.36l-1.52,0a5.55,5.55,0,0,1,1.55,4l1.72-.62c-1.17-.95-2-2.57-1.25-4,.48-.94-1.47-.87-1.83-.17Z"/><path class="cls-3" d="M119.36,111.33c.06,1.65,1.1,2.84,2.15,4,.53.6,2.37-.1,1.77-.82-1.07-1.32-2.74-3.23-4.6-3.28-2.67-.06-2.26,2.77-1.78,4.52.23.84,2.16.32,1.93-.51a7.38,7.38,0,0,1-.37-2.46c0-.28.26-.47-.06-.29s-.35,0,0,.16a8.14,8.14,0,0,1,3.09,2.68l1.77-.82c-.84-1-1.92-2-2-3.39,0-1-2-.62-2,.18Z"/><path class="cls-3" d="M113,115.26a8.76,8.76,0,0,0,1.5,5c.33.6,1.56.1,1.8-.34,1.24-2.16,0-5.4-2.77-4.9a3.49,3.49,0,0,0-2.39,2.82c-.37,1.78.58,3.77,1.15,5.4.25.72,1.92.37,1.94-.35a11.45,11.45,0,0,0-2.43-7c-.4-.55-1.53-.15-1.81.33-1.41,2.49.35,5.93,1.73,8.07.41.62,1.71.09,1.87-.5.55-2.09-.61-4.3-1.71-6-.42-.66-2.28,0-1.78.81,1,1.52,2,3.53,1.54,5.39l1.86-.5c-1.15-1.78-2.87-5-1.68-7.12l-1.8.34a10.55,10.55,0,0,1,2.26,6.34l1.94-.35a12.48,12.48,0,0,1-1.13-5.07c0-.33.46-1.71,1-1.27a2.33,2.33,0,0,1,.58,1,2.83,2.83,0,0,1-.17,2.41l1.8-.33a7.71,7.71,0,0,1-1.34-4.34c.07-.92-1.89-.59-1.94.19Z"/><path class="cls-3" d="M100.09,123.45c-.62,4-.37,8.77,3,11.44a1.45,1.45,0,0,0,1.79-.35c3.05-3.66-.3-9.94-1.89-13.56-.26-.59-1.91-.24-1.93.38-.19,4.71,2.16,9.19,4.66,13,.37.56,1.66-.05,1.86-.5,1.75-4,.24-9.56-1.64-13.2-.29-.57-1.86-.26-1.93.38a24.38,24.38,0,0,0,1.36,10.25c.23.71,1.75.13,1.93-.38,1.49-4.19-.84-8.18-.7-12.42l-1.93.38c.49,2.4,1.2,4.75,3.15,6.36a1.38,1.38,0,0,0,1.86-.5c.56-2,.17-3.78.28-5.78l-1.86.5c1.09,1.33,2.06,2.75,3.21,4,.45.5,2.3-.2,1.79-.76-1.15-1.28-2.12-2.7-3.21-4-.34-.42-1.83-.09-1.86.5-.11,2,.27,3.87-.28,5.78l1.86-.5c-1.89-1.55-2.54-3.81-3-6.12-.13-.64-1.91-.2-1.93.38-.14,4.21,2.17,8.28.7,12.42l1.93-.38a23.67,23.67,0,0,1-1.36-10l-1.93.38c1.85,3.57,3.34,9.07,1.64,12.92l1.86-.5c-2.36-3.63-4.7-8-4.52-12.52l-1.93.38c1.48,3.37,4.84,9.62,2,13l1.8-.35c-3.22-2.56-3.45-7.16-2.86-10.93.12-.76-1.83-.41-1.93.24Z"/><path class="cls-3" d="M164,79.07c3.2,9.93,6.17,20,12,28.75,2.95,4.48,8.64,10,12.38,3.28,1.13-2.06,1.08-4.85,1.15-7.11a37.17,37.17,0,0,1,1.83-12c2.5-7.13,5.55-14.06,8-21.23,1.9-5.54,4.06-10.49,3-16.42-.94-5.07-4.83-9.17-8.48-12.51-.65-.59-2.32.37-1.49,1.13,3.69,3.36,6.71,7,8,11.9,1.59,5.85-1.59,11.92-3.44,17.33-1.68,4.94-3.38,9.86-5.38,14.68s-3.86,9.17-4,14.38c-.06,3.09-.08,15.23-6.19,10.11-2.64-2.21-4.5-5.62-6.15-8.59-4.23-7.61-6.61-16-9.27-24.23-.29-.91-2.22-.38-1.93.51Z"/><path class="cls-3" d="M143.83,169.06l10-1.89c1.21-.22.88-1.32-.29-1.1l-10,1.89c-1.2.22-.87,1.32.3,1.1Z"/><path class="cls-3" d="M141.66,165.82c1,1.34,4.79,0,5.94-.35a39.18,39.18,0,0,0,8.31-3c1.16-.61-.57-.87-1.19-.55a32.15,32.15,0,0,1-5.72,2.11c-.8.25-5,1.82-5.55,1-.37-.51-2.24.13-1.79.75Z"/><path class="cls-3" d="M140.52,161.25c2.71.42,5.2-.32,7.77-1.15,3.14-1,6.45-.93,9.54-2.09,1.28-.47.08-.87-.71-.58-2.25.85-4.71.8-7,1.33-2.84.65-5.31,2.07-8.34,1.6-.49-.08-2.25.73-1.23.89Z"/><path class="cls-3" d="M140.68,155.32c5-1.29,9.95-2.73,15-3.57a20.48,20.48,0,0,0,8-2.79c1.09-.7-.62-.79-1.16-.44-3.27,2.11-6.82,2-10.4,2.95l-11.71,3c-1.15.3-.93,1.11.22.82Z"/><path class="cls-3" d="M139.43,148.88c5-3.1,11.25-3.43,17-4.2a69.82,69.82,0,0,0,13.81-3.46c1.28-.46.08-.87-.71-.59-6.47,2.3-13.14,3.14-19.88,4.17a30,30,0,0,0-11.35,3.69c-1.11.68.63.7,1.15.39Z"/><path class="cls-3" d="M140.58,142.26c3.07-3.6,9.63-3.8,14-4.56,5.77-1,11.61-.9,17.25-2.7,1.17-.37.82-1.74-.37-1.36-6.45,2.06-13.43,2.05-20.09,3.16-4.19.69-9.46,1.43-12.38,4.86-.8.94,1,1.28,1.62.6Z"/><path class="cls-3" d="M136,133.06c6.25-.71,12.6-3.58,18.62-5.42,6.72-2.06,13.61-3.23,20.19-5.75,1.27-.49.1-1.07-.75-.74-6.39,2.45-13.08,3.85-19.68,5.58-5.94,1.56-12,4.63-18.1,5.32-.92.11-1.63,1.17-.28,1Z"/><path class="cls-3" d="M135.4,124.32c4.52-1.15,9-2.47,13.51-3.63,5.24-1.35,10.1-3.89,15.46-4.83,1-.18,1.51-1.55.2-1.32-4.49.79-8.65,2.52-12.94,4-5.35,1.88-11.06,3.13-16.56,4.54-1.19.31-.85,1.53.33,1.22Z"/><path class="cls-3" d="M134.67,116c9.68.62,17.61-6.21,27.14-6.44,1.06,0,1.52-1.33.2-1.3-9.36.23-17.25,7-26.65,6.44-.87-.06-2,1.21-.69,1.3Z"/><path class="cls-3" d="M137.54,109.63c2.85-.55,5.27-2,7.89-3.23,4.49-2.06,9.41-2,14.21-2.57,1-.1,1.58-1.28.25-1.13A107.44,107.44,0,0,0,149.15,104c-4.22.9-7.69,3.78-11.89,4.59-1.2.23-.89,1.26.28,1Z"/><path class="cls-3" d="M144.27,102c4.34-1.78,9-2.58,13.4-4.17,1.28-.46.1-1-.74-.7-4.41,1.59-9.05,2.39-13.4,4.17-1.26.51-.1,1,.74.7Z"/><path class="cls-3" d="M134.75,130.39c1.06-6.45.14-13.15,2.64-19.32.21-.52-1.69-.29-1.92.28-2.51,6.18-1.58,12.87-2.64,19.33-.1.64,1.83.29,1.92-.29Z"/><path class="cls-3" d="M138.14,138.1c-.51-9.53,2-18.45,4.61-27.51.14-.49-1.76-.22-1.91.31-2.61,9.13-5.15,18.13-4.63,27.71,0,.43,2,.08,1.93-.51Z"/><path class="cls-3" d="M142.18,143.71c2.13-15.13,5.73-30,7.86-45.14.08-.56-1.84-.19-1.91.32-2.13,15.13-5.73,30-7.87,45.14-.08.56,1.84.19,1.92-.32Z"/><path class="cls-3" d="M143,156.72c3.24-21.52,9.06-42.35,12-63.92.12-.9-1.84-.59-2,.19-2.89,21.56-8.72,42.4-12,63.92-.13.89,1.83.59,1.95-.19Z"/><path class="cls-3" d="M145,163.18c1.34-5,1.42-10.08,2-15.18.66-6.17,3.41-12.42,5.25-18.32,1.55-5,3-10,4.22-15.11,1.43-5.95,1.38-12.12,2.45-18.13.18-1-1.8-.73-2,.14-1,5.46-1.23,11-2.11,16.48-1,6.07-3.15,12.23-5,18.07-1.58,5.06-3.59,10.14-4.59,15.35-1.08,5.6-.72,11.29-2.21,16.84-.25.94,1.73.72,2-.14Z"/><path class="cls-3" d="M147.85,172.39c1.83-5.75,2.27-11.79,3.77-17.63s2.65-11.54,4.08-17.29,3.48-11.39,4.68-17.28,1.83-11.63,2.45-17.47c.06-.62-1.86-.23-1.92.3-1.27,12-4,23.11-7.13,34.74-1.53,5.73-2.51,11.58-4.07,17.3s-1.94,11.87-3.77,17.63c-.17.52,1.74.26,1.91-.3Z"/><path class="cls-3" d="M151.78,168.62c1.76-9.47,5.4-18.39,8.4-27.51,2.89-8.77,3.11-18.24,7-26.69.12-.26-1.68-.13-1.9.35-3.67,7.91-4,16.69-6.48,25-2.9,9.81-7.07,19.14-9,29.25-.08.4,1.82.09,1.9-.36Z"/><path class="cls-3" d="M162,154.53c.64-6.09,2.54-11.92,4.12-17.82,1.77-6.55,2.59-13.42,5.08-19.76.4-1-1.54-1-1.85-.22-2.16,5.5-3,11.36-4.39,17.07-1.68,7-4.17,13.73-4.92,20.88-.1,1,1.87.72,2-.15Z"/><path class="cls-3" d="M170.32,138.76c1.7-.66,1.86-5.22,2.13-6.61.74-3.75,1.06-8.08,2.66-11.58.46-1-1.49-1-1.84-.21-1.16,2.53-1.52,5.52-2.05,8.23-.38,1.91-.74,3.83-1.13,5.74-.15.74-.32,1.48-.5,2.22-.09.41-.62,1.27-.13,1.08-1.23.48-.13,1.51.86,1.13Z"/><path class="cls-3" d="M176.53,130.5a24.52,24.52,0,0,1,.77-3.15c.13-.47-.58-.64-.89-.62a1.16,1.16,0,0,0-1.07.78,25.68,25.68,0,0,0-.77,3.14c-.14,1,1.83.71,2-.15Z"/><path class="cls-3" d="M179.1,128.75a1.31,1.31,0,0,0,.18-1.14c-.13-.71-2.07-.23-1.93.52.06.3.09.33,0,.54-.27.39.22.61.53.63a1.5,1.5,0,0,0,1.27-.55Z"/><path class="cls-3" d="M164.94,67.83c3.59,3.86,5,9.31,7.18,14a80.64,80.64,0,0,0,6.33,10.66c3.11,4.55,7.28,12.53,13.51,13,.55,0,2.26-.9,1.2-1-6-.46-10.39-9.08-13.41-13.49a82.79,82.79,0,0,1-7.16-12.89c-1.73-3.87-2.91-7.86-5.85-11-.43-.46-2.26.24-1.8.73Z"/><path class="cls-3" d="M168.92,63.14c5.7,12.34,13.33,24.49,24.56,32.48.56.39,2.33-.41,1.53-1-11-7.84-18.56-19.91-24.16-32-.33-.71-2.22-.11-1.93.52Z"/><path class="cls-3" d="M178.51,51.78c1.42,5.79,5.32,10.24,9,14.8,2.93,3.68,6.35,8,10.86,9.81.56.22,2.32-.61,1.54-.91-4.31-1.68-7.82-6.06-10.6-9.65-3.53-4.54-7.41-8.83-8.81-14.56-.16-.65-2.1-.14-1.94.51Z"/><path class="cls-3" d="M182.66,47.73c3.83,8.48,10.7,14.62,16.89,21.29.62.67,2.45-.13,1.76-.87-6.06-6.53-13-12.63-16.72-20.94-.4-.89-2.31-.33-1.93.52Z"/><path class="cls-3" d="M56.42,191.58c.38,1.24,2.25,1.91,3.32,2.35A22.28,22.28,0,0,0,65,195.59a2.33,2.33,0,0,0,1.35-.24c.14-.07.69-.46.23-.54a21.57,21.57,0,0,1-4.16-1.22c-1.14-.42-3.62-1.18-4-2.53-.14-.48-2.06.07-1.93.52Z"/><path class="cls-3" d="M59.38,191.92c2.59,1.79,5,3.77,8.26,4.13,1,.11,2-1.29.66-1.44-2.9-.33-5.12-2.22-7.44-3.83-.72-.5-2.4.5-1.48,1.14Z"/><path class="cls-3" d="M64.86,192.68c1.63.28,3,1.22,4.54,1.81.47.19,2.23-.55,1.58-.8a25.42,25.42,0,0,0-4.89-1.87c-.46-.08-2.24.69-1.23.86Z"/><path class="cls-3" d="M68.32,191.56c1.61,1.1,3.32,2.24,5.36,2,.41-.06,1-.27,1.07-.75s-.53-.61-.87-.57c-1.51.21-2.89-.91-4.06-1.71-.65-.45-2.38.46-1.5,1.06Z"/><path class="cls-3" d="M70.3,189.68c1.25,1.4,2.74,2.79,4.77,2.51.41-.05,1-.27,1.07-.75s-.53-.64-.88-.6c-1.33.19-2.39-1.11-3.18-2-.56-.63-2.4.13-1.78.83Z"/><path class="cls-3" d="M73.8,190.27A29.57,29.57,0,0,0,79,192.41c.79.33,2.26-.81,1.13-1.27a27.55,27.55,0,0,1-4.84-2c-.69-.45-2.4.5-1.5,1.09Z"/><path class="cls-3" d="M62.33,194.27a15.84,15.84,0,0,0,5.31-4c.33-.31-.28-.39-.47-.37a2.06,2.06,0,0,0-1.29.47c-1.26,1.24-2.55,2.69-4.24,3.32-.12,0-.86.37-.56.6s.94,0,1.25-.07Z"/><path class="cls-3" d="M68.44,192.48a10.08,10.08,0,0,0,2.15-2.41c.25-.36-.2-.46-.49-.45a1.73,1.73,0,0,0-1.28.5,9.11,9.11,0,0,1-1.89,2.17c-.31.23-.24.5.15.55a1.94,1.94,0,0,0,1.36-.36Z"/><path class="cls-3" d="M73.65,192.19A19.1,19.1,0,0,0,78.21,187c.49-.72-1.45-.52-1.79,0a17.49,17.49,0,0,1-4,4.64c-1.07.75.6.95,1.19.54Z"/><path class="cls-3" d="M79,191.43a5.7,5.7,0,0,0,3.49-2c.24-.34-.21-.38-.47-.36a1.93,1.93,0,0,0-1.29.47,2.71,2.71,0,0,1-1.39,1.11c-.33.07-1,.18-1.12.55s.66.25.78.23Z"/><path class="cls-3" d="M84.35,190.68c1.14-1,2.05-2.3,3.19-3.34.31-.28-.28-.27-.44-.25a2.5,2.5,0,0,0-1.3.44c-1.14,1-2,2.3-3.19,3.33-.32.29.28.28.44.26a2.5,2.5,0,0,0,1.3-.44Z"/></svg>