<svg id="layer1" xmlns="http://www.w3.org/2000/svg" viewBox="0 0 239.75 292.87"><defs><style>.cls-1{fill:#277c2b;}.cls-2{fill:#492d0c;}</style></defs><path class="cls-1" d="M196.67,108.25c-2.87-7.88-13.13-9.3-19.84-6.11-5,2.36-9.21,6-15,5.17-3.16-.47-4.18-.41-2.54-3.06,5-8.09,26.74-19.65,12.47-30.36-5.95-4.47-15.54-2.77-22.43-3.33-3.12-.26-4.86-.7-4-3.77.79-2.72,2.16-5.23,2.91-8,1.6-5.93-2.21-12.93-9.08-11.72-3.54.63-6.4,3-9.07,5.28a62.7,62.7,0,0,1-5,4.41,17.59,17.59,0,0,0-1.57-1.38,4.48,4.48,0,0,0-3.1-.89C120,50,118.72,45.78,115.86,43c-.5-2.77-1.64-5.21-3.91-6.66-7-4.51-12.54,2.34-14,8.66a29.1,29.1,0,0,0-.72,8.58c-.09.61-.17,1.22-.23,1.84a21.88,21.88,0,0,0-1.66,2.26,25.16,25.16,0,0,0-4.16,4.76c-7.33-.31-14.66-1.13-22-1.45a15.66,15.66,0,0,0-4.45.42,3.82,3.82,0,0,0-4.2,1.94,9.29,9.29,0,0,0-3.27,4.57C55.58,72.88,59.4,79.36,63,82.32c2.93,2.4,6.35,4.26,8.65,7.35,1.87,2.52,2.84,5.45,4.11,8.28a3.12,3.12,0,0,0-.52,1.3c-.06.32-.13.62-.2.94H75v.31c-.16.64-.32,1.27-.49,1.9-3.37.62-5.57,2.39-7.64,5.83-1.73,2.86-2.21,6.59-.14,9.39a16.25,16.25,0,0,0,6.49,4.85,33.69,33.69,0,0,0,4.29,9.82c-6.76,1.81-13.45,4.49-18.73,9-5.76,4.92-4.86,12.2,1,16.48,8,5.78,18.69,8.23,27.61,12.34,2,.94,7.79,3.61,4.24,6-3,2-6.33,3.84-7.54,7.53C78,202.45,102.21,203,113.83,205.4c2.47.51,6.6,1.33,7.67,4,.77,2,.19,4.92.58,7.07.46,2.48,2.33,3.94,4.52,4.73s5.11.32,7.41.07c3-.33,3.78.46,6,2.6,3.15,3.12,5.91,6.11,10.69,5.15a3,3,0,0,0,2.47-3.58A8.62,8.62,0,0,0,158.2,222a11.23,11.23,0,0,0,1.21-10.16c2.39-2.71,2.3-6.79,2.12-10.59,8.3-2.34,13.23-10.56,6.49-18.26-2.61-3-7.92-2-11.32-1.87a9.58,9.58,0,0,1-1.23-.07h0a24.87,24.87,0,0,0,2-4.57c3.15-1,6.42-1.72,9.59-2.71,3.67-1.15,6.52-3.42,9.43-5.89,4.23-3.6,7.28-9.81,1.69-13.73-4.38-3.07-10.42-3.4-15.46-4.73l-.62-.18c3-1.71,6.41-3,9.54-4.43A63.26,63.26,0,0,0,182,139.44c3.05-2.14,5.35-5.43,7.57-8.36C194.06,125.07,199.5,116.05,196.67,108.25ZM144.1,141.07a17.26,17.26,0,0,1-.46-7.29q.63,2.78,1.11,5.59C144.55,139.94,144.33,140.51,144.1,141.07Zm18.76-4.63a9.55,9.55,0,0,0,1.74-.28,5.88,5.88,0,0,0,2.19.48,10,10,0,0,1-3.92.92A3.42,3.42,0,0,1,162.86,136.44ZM137.8,69.84c0-.22,0-.43.07-.64,0,.25,0,.48,0,.71ZM157,143.76c.06-.16.13-.32.2-.48l.29.16ZM83,70.41c-.59-.61-1.2-1.19-1.82-1.74l2.24.17C83.26,69.37,83.12,69.89,83,70.41Zm-17,4.77a11.56,11.56,0,0,1-1.88-3.27C64.7,73,65.32,74.08,65.94,75.18Zm5.82,66.35-.53,0,.61-.24A2,2,0,0,0,71.76,141.53ZM83.12,160l2.31,1.64c-1.87-.75-3.74-1.48-5.61-2.25C80.91,159.67,82,159.87,83.12,160Zm107.29-46.81-.49-.22a3.43,3.43,0,0,0-2.43-3.93,14.87,14.87,0,0,0-6-.64,11.51,11.51,0,0,0-1.55,0c.65-.28,1.3-.53,2-.76C186,106.23,190.47,108.93,190.41,113.23Zm-45.1-36.6a15.7,15.7,0,0,0-.65,1.47l-.1-.15a4.15,4.15,0,0,0-2.65-1.65c-.19-.4-.4-.79-.59-1.18A14.79,14.79,0,0,0,145.31,76.63Zm-3.94-20.54a3.12,3.12,0,0,0-.43-.15,3,3,0,0,0-.9-1.82C141.18,53.9,141.49,54.76,141.37,56.09ZM128.68,213.27v-.16a20.91,20.91,0,0,0,2.07,1.46l-.77,0C128,214.68,128.79,215,128.68,213.27Zm25.95-7.49c0-.61,0-1.23,0-1.84.06-.26.11-.52.17-.78A10.42,10.42,0,0,1,154.63,205.78Zm9.24-13.55a12.68,12.68,0,0,0,.27-1.88,2.84,2.84,0,0,0-.36-1.53A2.48,2.48,0,0,1,163.87,192.23Z"/><path class="cls-2" d="M180.86,260.42c-11.14-6.76-18.4-18.6-24.59-29.73-2.26-4.06-4.85-7.83-7.18-11.84-4.6-7.9-7.15-16.9-10.06-25.5-6.39-18.85-11.38-37.41-13.6-57.23-1-9.28-1.83-18.66-3.78-27.8a87,87,0,0,0-4.05-12.91c-1.6-4.2-4.51-7.75-6.06-12-.23-.64-2.14-.07-1.93.51,1.34,3.7,3.52,7,5.34,10.43,2.07,4,3.25,8.57,4.38,12.86,2.51,9.51,3.09,19.67,4.17,29.42,2.26,20.41,7.57,39.46,14.14,58.86,3,8.69,5.74,17.39,10.38,25.36,2.36,4.06,4.95,7.93,7.26,12,6,10.77,13.27,21.9,24,28.43.5.31,2.29-.44,1.54-.9Z"/><path class="cls-2" d="M155.61,229c-1.9-3.25-5-3.46-8.45-3.59s-5.87-.27-6.75-4c-.37-1.57-2.69-2.11-4-2.44-6-1.58-9-5.13-11.44-10.72-1.42-3.32-2.78-6.55-6.87-6.8-6.37-.37-12.36.89-18.69-.86-5.72-1.59-11.57-6.18-15-10.93a6.74,6.74,0,0,1-1-6.71c1.08-2.82,5.41-3.44,8-4.39,2-.75,4.74-2.41,4.86-4.88.25-5.32-9.74-6.84-13.34-7.63-6.24-1.38-14.07-1.13-19.89-3.87-5-2.37-9.07-8.27-9.76-13.67-1.14-8.88,9.82-8.47,15.63-10.19,5.4-1.59,15.75-4.36,10.32-11.83-3.53-4.84-10.71-6-15-10-6.4-5.92,6.45-8.65,10-11.67,5.9-5.07,1.74-11.92-2.28-16.46-6-6.78-13.14-12.57-10.21-22.62,2-7,9.87-7.65,15.79-5.14,2.42,1,5.12,2.34,7.83,2.24,6-.23,8.64-5,10.17-10.3,1-3.62,1.71-7.25,3.84-10.43,3.26-4.89,12.39-11.49,16.43-4.43,1.64,2.86,1.55,6.77,1.49,10-.07,3.83-.11,7.59.15,11.43,0,.37,2,0,1.93-.51-.33-5,0-9.9-.18-14.88-.13-3.18-1.14-9.2-5.16-9.94-7.35-1.35-14.54,4.7-17.81,10.81C93.27,49.86,93.7,63.76,84,61.73c-4.9-1-8.55-4-13.71-3.78C62,58.26,58,66.71,59.24,74.09,61,84.62,79.74,91.33,74,102.9c-2.74,5.54-19.84,6.76-10.93,15,3.34,3.09,8.13,4.47,11.87,7a9,9,0,0,1,3.93,5.7c.81,4-5.7,5.75-8.45,6.57-6.8,2-17.85,1.22-19.14,10.4-.84,5.95,5.56,13.91,11,15.69s11.45,2,17,3.11c4.31.83,12.69,1.79,14.76,6.41,1.77,3.95-4.81,5.76-7.38,6.64s-4.65,2.21-5.64,4.82c-2.34,6.17,7.91,12.59,12,15.06,3.81,2.27,8.32,3,12.68,3.26,4.58.24,10.84-2,14.61,1.25,2.86,2.49,3.21,7.44,5.57,10.43a14.77,14.77,0,0,0,8.84,5.44c2.57.57,3.92,1.74,3.78,4.38,0,.68,2.31,1.42,2.85,1.61,4.25,1.52,9.41-.91,12.19,3.82.29.49,2.09-.24,1.93-.51Z"/><path class="cls-2" d="M117.24,58.76c2.25,1.66,3.52,3.3,6.45,2.24a40.83,40.83,0,0,0,8.45-4.62c3.17-2.07,10.55-7.5,11.89-1.2,1,4.69-4,8.93-5.61,12.95-1.5,3.73,1.85,6.14,4.92,7.31,6,2.28,12.47-2.22,18.7,0,7,2.44,8.26,8.88,5.28,15s-10.09,6.57-14.55,10.78c-7.85,7.41.78,13.47,8.88,11.48,5.14-1.27,9.44-4.11,14.09-6.53,7.21-3.74,14.9-1.62,15.8,6.85,1.38,12.91-11,20.39-21.39,24.15-5.58,2-16.28,4.06-19.43,9.89-1.92,3.55.78,5.42,4.05,5.94,5.78.91,10.68-1.16,16,2.15,5,3.08,5.27,7.59.31,10.75a113.81,113.81,0,0,1-12.22,6.44c-4.68,2.25-12.76,6.8-10,13.23,1.7,3.91,10.87,3,14.23,3.73,1.72.38,3.47,1,4.3,2.68,1.21,2.4-3.69,4.2-5.26,4.84a15.59,15.59,0,0,0-4.6,2.59c-1.3,1.12.06,4.47.19,5.74.32,3-3.1,4.91-2.66,8.14.27,2,2.49,3.14,2.95,5.1.71,3-3.28,6-3.07,9.41,0,.41,2,.06,1.93-.52-.25-4.19,4.9-7.41,2.17-11.41-.9-1.34-1.93-2.23-2.16-3.91-.34-2.47,2.53-4.76,2.78-7.32.38-4.06-2.5-5.06,3.16-7.3a18.91,18.91,0,0,0,4.13-2c2.76-2,3.23-4.48-.14-6.14-3.07-1.51-7-1.47-10.3-1.8-4.77-.47-7.54-2.74-5.45-7.78,1.83-4.4,7.8-6.48,11.8-8.36,4.39-2.06,9.07-4.25,12.71-7.53,4-3.56-1.25-8.17-4.15-10-2.53-1.57-5.13-1.74-8-1.65-3.33.1-12.36,1.53-11.42-4.15.71-4.31,8.48-6.56,11.84-7.84,3.86-1.47,7.75-2.75,11.57-4.35,8.85-3.71,16-9.52,17.75-19.38,1.54-8.62-4-13.93-12.33-12.83s-14.15,8.81-23.06,8.74c-6,0-7.9-5.85-4.53-10.07,2.69-3.36,7.66-4.74,11.21-7,5.19-3.33,8.39-10.47,5.06-16-3.07-5.14-9.75-5.83-15-5-4.81.71-12.61,2.47-14.52-3.74-.8-2.63,2.12-6,3.42-8,1.89-2.88,4.68-8.86.17-10.93-2.83-1.29-7.22,1.42-9.48,2.71-2,1.15-3.93,2.46-5.86,3.72-1,.65-2,1.28-3,1.83-3,1.56-4.13,0-6.22-1.54-.46-.34-2.16.42-1.81.68Z"/><path class="cls-2" d="M142.33,202.89c-14.45-15.27-38.13-19.29-58.16-15.95-.81.14-1.68,1-.33.82,19.58-3.27,42.59.93,56.67,15.81.38.4,2.18-.3,1.82-.68Z"/><path class="cls-2" d="M130.29,166.54c-2.45-4.79-7.43-7-12.27-8.75-6.48-2.31-13.4-4-20-5.82-14.81-4-30.9-5.92-45.83-1.62-1.13.33-.94,1.06.19.73,15.52-4.47,32.23-1.67,47.48,2.65,8.83,2.5,23.91,4.3,28.52,13.33.28.55,2.14-.12,1.94-.52Z"/><path class="cls-2" d="M124.11,127.71c-7.88-7.46-18.22-9.77-28.34-12.67-10.3-3-20.64-5.5-31.4-3.77-.83.14-1.67,1.08-.32.86,11.56-1.86,22.65,1.6,33.65,4.73,8.93,2.55,17.68,5,24.6,11.55.42.39,2.2-.33,1.81-.7Z"/><path class="cls-2" d="M118.9,102.16c-5.31-2.11-10-7.34-14.37-10.93a135.3,135.3,0,0,0-15-11c-8.55-5.26-18.41-10-28.36-11.61-.93-.15-2,1.15-.68,1.37,10.79,1.78,20.87,7.3,30.11,12.9C96,86.15,100.78,90.5,105.7,94.5c3.81,3.1,7.46,7.09,12.08,8.92.79.32,2.26-.81,1.12-1.26Z"/><path class="cls-2" d="M112.65,85.46c-1-4.28-3.44-8-4.68-12.25a58.8,58.8,0,0,1-2.33-15c-.25-9.26,3.52-16.15,8.51-23.54.54-.8-1.42-.7-1.81-.11-5.24,7.75-8.53,14.25-8.64,23.85a55.77,55.77,0,0,0,1.9,13.72c1.18,4.86,4,9,5.12,13.86.18.77,2.12.26,1.93-.51Z"/><path class="cls-2" d="M124.63,126.3c1.49-5.71,1.39-11.67,3.42-17.26,1.91-5.26,6.76-9.61,10.77-13.29A74.38,74.38,0,0,1,152.3,85.58c5-2.79,10.08-5,14.38-8.87.39-.33-1.41-.12-1.74.18-4.62,4.1-10.23,6.5-15.56,9.49-4.43,2.47-8.52,6.21-12.3,9.54A51.79,51.79,0,0,0,127,107.69c-3.35,5.5-2.65,12.94-4.23,19-.09.36,1.79.1,1.91-.36Z"/><path class="cls-2" d="M130.18,164.75c.49-3,.35-5.95,1-8.9.9-4.18,4.75-8,7.67-10.87a98.12,98.12,0,0,1,16.65-13.75c5.77-3.67,11.85-6.84,17.79-10.22,6.33-3.6,10.83-9.1,15.37-14.68.41-.49-1.45-.23-1.75.13-4.9,6-9.61,11.34-16.44,15.23-6.43,3.65-12.94,7.14-19.13,11.19-5.89,3.85-10.53,8.54-15.48,13.46a37.4,37.4,0,0,0-6,8.23c-1.69,3-1,7.26-1.56,10.51-.08.49,1.82.15,1.91-.33Z"/><path class="cls-2" d="M140.6,52.47c0,7.31-12.64,13.67-18,17.43S110,79,111.86,86.58c.14.58,2.07.08,1.93-.52-2.29-9.59,9.4-14.92,15.61-19.76,4.48-3.49,13.17-7.7,13.13-14.35,0-.49-1.93-.16-1.93.52Z"/><path class="cls-2" d="M153.05,225.29c3.29.73,5.15,6.61,6.88,9.08,2,2.86,4.17,5.66,6.21,8.5,3.93,5.47,8.84,12.41,15.82,14,.14-.4.28-.8.41-1.19l-1.76.53c-.27.09-.82.32-.81.69,0,2.53.35,4.46,2,6.47.37.47,1.35.23,1.68-.17,1.33-1.61,1.44-2.47.86-4.55-.23-.81-2.16-.29-1.94.52a3.13,3.13,0,0,1-.51,3.56l1.69-.17c-1.27-1.58-3.43-4.92-.86-5.7.46-.14,1.35-1,.41-1.19-7.85-1.8-13.11-10.67-17.44-16.8-2-2.81-4.19-5.46-5.91-8.43-1.36-2.33-2.64-5.72-5.56-6.36-.74-.16-2.29.95-1.14,1.2Z"/></svg>