<svg id="layer1" xmlns="http://www.w3.org/2000/svg" viewBox="0 0 364.13 478.65"><defs><style>.cls-1{fill:#533b72;}.cls-2{fill:#21751c;}.cls-3{fill:#6d3f0d;}.cls-4{fill:#fff;}.cls-5{fill:#c41851;}.cls-6{fill:#f7ca9f;}.cls-7{fill:#8e5517;}.cls-8{fill:#fcb517;}.cls-9{fill:#492d0c;}</style></defs><path class="cls-1" d="M168.5,194.73C168,183,166.4,171,161.38,160.44c-1.38-2.88-4.84-1.88-6.08.37-.25-.58-.49-1.16-.74-1.73a2.8,2.8,0,0,0-2.93-1.73l-.21-.14a14.82,14.82,0,0,0-2.87-5.66,2.78,2.78,0,0,0-2.78-1.07c-.84-1-1.73-2-2.68-3a3.15,3.15,0,0,0-2.4-1l-.32-.38-.22-.19a33,33,0,0,0,2.13-3.67c1.88-3.71-2.44-6.72-5.5-4.28-2.07,1.65-4.72,2.4-6.82,4.07a3.44,3.44,0,0,0-.55,4.23c.1.16.19.32.29.47a4.59,4.59,0,0,0-.66.42,24.2,24.2,0,0,0-4.54,3.13,3.3,3.3,0,0,0-.81,3.55,2.64,2.64,0,0,0-.21.77,8.52,8.52,0,0,0-.51,1.55,3.38,3.38,0,0,0-4,3.34v7.28c-3.14,4.58-.74,11.3,0,16.68V185h.16l0,.37a3.37,3.37,0,0,0,3.33,3.37,120.29,120.29,0,0,1,1,12.78,3.38,3.38,0,0,0,1.14,2.62c.11.42.22.83.35,1.25a3.17,3.17,0,0,0,.64,1.17,16.81,16.81,0,0,0,1.07,2.41c2.21,3.94,8.25.41,6-3.54a10.24,10.24,0,0,1-.74-1.72,116.44,116.44,0,0,0,1.2-17.4,78.06,78.06,0,0,0,9.05,13.82,1.67,1.67,0,0,0,.23.23c1.44,6.49,4.05,12.93,6,19.11a3.35,3.35,0,0,0-1.62,2.86,46.76,46.76,0,0,1-1.47,9.39,3.38,3.38,0,0,0-1.25,1.84,46.28,46.28,0,0,0-1.51,12.89c0,.18,0,.37,0,.55h0a3.15,3.15,0,0,0,.77,2h0a3.32,3.32,0,0,0-3.55,3.25A78.64,78.64,0,0,0,141,262.93c-1.4,6.08-.66,12.66-.18,19a6.56,6.56,0,0,1-2.52,4c-1.53,1.12-4.37,2.22-5.92.75-2.67-2.51-2.89-8.79-3.45-12.16a2.94,2.94,0,0,0-3.15-2.51,3.1,3.1,0,0,0-3.48,2.11,3.34,3.34,0,0,0-.26,1.12,55.21,55.21,0,0,0-.91,6.39,3.39,3.39,0,0,0-1.26,1.38c-.07.14-.12.29-.19.44A2.77,2.77,0,0,0,118,286v2.44a18.26,18.26,0,0,0,0,7.58v1.22a3.54,3.54,0,0,0,2,3.15,9.09,9.09,0,0,0,1.23,2.71c1.42,2.08,4.82,2.3,6,.08a82.7,82.7,0,0,0,8.92,3.67,11.48,11.48,0,0,0,3.3,1.59l.44.51a3.77,3.77,0,0,0,5.21,2.33c0,.14.08.29.13.44,1.16,3.62,6.43,3.22,6.7-.54a2.83,2.83,0,0,0,1.56-2.13c.43-2.34.75-4.69,1.08-7a3.44,3.44,0,0,0,3.39-3.4V286.36a4.17,4.17,0,0,0-.11-.89c.55-2.29,1.07-4.59,1.58-6.89l0-.11c2-6.47,4-12.81,4.8-19.47a88,88,0,0,0,3.55-16A214.17,214.17,0,0,0,170,211.32a3.4,3.4,0,0,0-.68-2.14c.36-3.66.61-7.33.66-11,0,0,0-.08,0-.13h0c0-.11,0-.23,0-.35A3.11,3.11,0,0,0,168.5,194.73Zm-41.59-23.27c.42,1.3.86,2.59,1.33,3.88a3.46,3.46,0,0,0-.86-.28C127.21,173.86,127.06,172.66,126.91,171.46Zm25.85,81,.07,0c-.13.68-.26,1.36-.4,2q-.85,3.26-1.64,6.54l0,.1v-3.47A11.48,11.48,0,0,0,152.76,252.5Z"/><path class="cls-1" d="M256.69,280.69c-2.61-7.24-7.22-13.84-10.73-20.65a3.23,3.23,0,0,0-4.34-1.39,3.62,3.62,0,0,0-2.59-.07,3.28,3.28,0,0,0-.49-.56c.34-.7.66-1.4,1-2.11a3.3,3.3,0,0,0-4.32-4.3c-5.5,2.32-8.56,6.47-10.61,12a4.25,4.25,0,0,0-.15.56,11.53,11.53,0,0,1-6,1,3.28,3.28,0,0,0-1.75.29,4.75,4.75,0,0,0-.9-.17q-.78-3.17-1.65-6.27c-.68-2.44-1.43-5-2.31-7.59a3.91,3.91,0,0,0,3.63-.75c2-1.65,4-1.36,6.14-.46s4.35-1.32,4.43-3.36l.06-.16a6.75,6.75,0,0,0,1.32-4,3,3,0,0,0-2.49-3.27c-.69-3.32-1.45-6.62-2.2-9.93l.06-.11a3.37,3.37,0,0,0,2.29-3.06V225c2.76-8.63-.6-17.35-2.24-26a165.46,165.46,0,0,0,5.94-17A72.34,72.34,0,0,0,239,194.61c1.32,1.9,2.69,3.76,4.14,5.53-2.62,4.54-5.8,8.69-7.47,13.72a10,10,0,0,0-.81,1.51,11.47,11.47,0,0,0-3.79.76A3.52,3.52,0,0,0,232,223a8,8,0,0,1,1.84.43,3.83,3.83,0,0,0,3,.83,3.55,3.55,0,0,0,2.4-.59,14.74,14.74,0,0,0,3.93,2.7l1.37,1a3.67,3.67,0,0,0,1.57,1,4.44,4.44,0,0,1-.73,1.64c-2.38,3.91,3.51,7.19,6,3.53,4.06-6.65,11.1-11.28,15.15-17.55a9.12,9.12,0,0,0,2-3.82,17.67,17.67,0,0,0,1.1-7.68,3.92,3.92,0,0,0-3.15-3.45c-.44-1-.91-2-1.35-3-4.27-9.3-7.49-19.08-11.34-28.57-4-9.82-8.25-19.53-12.65-29.19A2.78,2.78,0,0,0,240,137.7l-.48-1a4,4,0,0,0-.52-1.05,2.72,2.72,0,0,0-2.12-1.48,2.68,2.68,0,0,0-2,.26l-2.46-.3A27,27,0,0,0,222,127.46c-2.2-.82-4.39,1.26-4.43,3.37-.2,9.95-3.59,19.36-5.13,29.12a2.9,2.9,0,0,0-2,1.15c-7.09,8.68-12.73,18.29-18.28,28a3.33,3.33,0,0,0-.32,2.88,74.72,74.72,0,0,0-5.16,34.9,97.48,97.48,0,0,0,5,21.94c.47,8.46,3,17,5.61,24.84,3.24,9.57,7.44,20.05,14.54,27.46.1.1.2.18.29.26.62,1.07,1.25,2.12,1.89,3.13a3.57,3.57,0,0,0,2.85,1.67c-.16.36-.32.72-.47,1.09-1.4,3.44,3.52,5.62,5.85,3.4,3-2.83,6.95-5.11,11.22-4.21,3.05.65,5.92,2.83,9.13,2.77a13.23,13.23,0,0,0,8-2.78l.13-.12c.45-.06.9-.12,1.35-.22,2-.4,2.78-2.53,2.45-4.3a5.56,5.56,0,0,1-.08-.7,16.27,16.27,0,0,1,1.91-2.72,3.39,3.39,0,0,0,.67-3.62,7.33,7.33,0,0,1,1.88-.93,3.58,3.58,0,0,0,2.09-5.15A77.67,77.67,0,0,0,256.69,280.69Zm-30.1,9.06a2.83,2.83,0,0,0,.42-.64V293c0,3.34,3.7,4.25,5.88,2.5.16.58.32,1.16.5,1.74a28.89,28.89,0,0,0-3.18-.35,13.41,13.41,0,0,0-3,.2Q227,293.42,226.59,289.75ZM214.4,240.91a3.64,3.64,0,0,0,3.63.86h.07c0,.18.07.36.11.55a11.71,11.71,0,0,0-3.11.52Z"/><path class="cls-1" d="M100.1,213.89a3.51,3.51,0,0,0,5,3.09c2.08.84,4.75-.18,4.74-3.09a35.41,35.41,0,0,0-1.49-10.48,3.64,3.64,0,0,0-.75-1.36c-.13-.55-.26-1.11-.38-1.68-.08-1-.21-2.08-.38-3.11a3.66,3.66,0,0,0-.69-3.09c-.16-.56-.33-1.11-.53-1.67-1.28-3.59-6.93-3.21-6.87.93,0,.19,0,.38,0,.56a3.26,3.26,0,0,0,.06,1.51c.07,1.53.21,3.06.4,4.57C98.85,204.6,100,209,100.1,213.89Z"/><path class="cls-1" d="M118.18,258.2c4-.55,2.88-5.95-.52-6.69a17.55,17.55,0,0,0-4.29-9.26,20.19,20.19,0,0,0-3.55-6.46,14.43,14.43,0,0,0-1-4.39,4.32,4.32,0,0,0-.28-1.19,29.82,29.82,0,0,0-1.44-6.33c-1.28-3.63-6.92-3.18-6.92.93,0,2,0,4,0,6.07a29.4,29.4,0,0,0,.59,11.14,4.77,4.77,0,0,0-.69,1.89c-1,8.35,6.15,13.5,13.57,14.33a3.19,3.19,0,0,0,1,.08A19,19,0,0,0,118.18,258.2Z"/><path class="cls-1" d="M159.94,350.35l-.07,0a39.44,39.44,0,0,0,.44-5.28H160c0-4.46-6.45-4.49-6.74-.18-1.2-2.16-4.77-2.93-6.12-.22L144,347.29a4.84,4.84,0,0,0-.6.22,4,4,0,0,0-.77-.23,16.23,16.23,0,0,0-2.22-3.37,3.69,3.69,0,0,0-.35-.34,3.57,3.57,0,0,0-3.49-3.54h-1.37a3.55,3.55,0,0,0-3.37,2.63c-.08.4-.15.79-.21,1.18a5.75,5.75,0,0,0-.9.71,4,4,0,0,0-1.67,2.66,12.1,12.1,0,0,0-.69,3.57,28.46,28.46,0,0,0-.75,3.74,3,3,0,0,0,1.79,3,3.52,3.52,0,0,0,5.27,1.13,62.94,62.94,0,0,0,1,7.84c-.16,2.84,0,5.73.06,8.45a39.87,39.87,0,0,0-4.52,11.65A30.27,30.27,0,0,0,126.82,399a32.18,32.18,0,0,0-13.54,6c-2.82-3.19-7-4.28-11.7.56a16.24,16.24,0,0,0-2,2.6,9.4,9.4,0,0,0-.92.2,5.76,5.76,0,0,0-2.8,1.73c-1.57,1.14-2.66,3.14-2.86,6.27a21.28,21.28,0,0,0,.54,6.29c0,.06,0,.12,0,.18.49,4.25,3.3,7.86,7.81,7.22a7.9,7.9,0,0,0,2.46-.63c5.7-2,10.48-7.29,14.75-12.09A41.07,41.07,0,0,0,124.8,414a2.71,2.71,0,0,0,3.29-1l1.42-1.82a3.55,3.55,0,0,0,3.41-2.09c1.35-.77,2.68-1.56,4-2.36a3.24,3.24,0,0,0,1.48-1.93c.07.4.13.8.2,1.2a2.88,2.88,0,0,0,1.4,2v2.47a3.54,3.54,0,0,0,3.53,3.53H145a3.49,3.49,0,0,0,3.69-4.16c.32-.91.59-1.82.83-2.74a3.55,3.55,0,0,0,4.14-3.44,20.24,20.24,0,0,0-1.43-8,30.85,30.85,0,0,0-2.77-16.54c2.38-5.26,2.76-11.3,2.82-17.1a2.88,2.88,0,0,0,3.08-.94,18.23,18.23,0,0,0,2.68-4.09h.12C161.6,357,163,352,159.94,350.35ZM104,417.16c-.18,0-.31,0-.33,0a1,1,0,0,1-.12-.32Z"/><path class="cls-1" d="M225,107.39a24.48,24.48,0,0,0,5-9,2.92,2.92,0,0,0,1-1.21c.18-.4.34-.8.5-1.2A3.35,3.35,0,0,0,234,93.56c1.3-4.33,1.29-9.43.85-13.89-.38-3.76-2.67-8.83-6.66-6.79a12.61,12.61,0,0,0-10.79-5.83c-.45-.25-.9-.48-1.35-.7a13.88,13.88,0,0,0-6.5-3,56.64,56.64,0,0,0-9.23-5.5,58.1,58.1,0,0,0-19.17-6.74,3.83,3.83,0,0,0-3.24,1l-.54-.26c.28-4.49-.7-8.77-4.93-11.41a3.24,3.24,0,0,0-2.54-.37,3.37,3.37,0,0,0-4.06,3h0c0,.1,0,.19,0,.28s-.07.19.17.5l-.16.87a4.17,4.17,0,0,0-1,.92l-.27.06a3.71,3.71,0,0,0-4.65-4.14A3.36,3.36,0,0,0,156,44.88v2.73a2.76,2.76,0,0,0,.07.65,26.82,26.82,0,0,1-3.36,5.11A35.05,35.05,0,0,0,143,60.66a3.07,3.07,0,0,0-1-.22,3.75,3.75,0,0,0-5.15-.29c-6.62,5.7-12.58,13.53-15,22.17a3.08,3.08,0,0,0-2.75,1c-7.4,8.25-5.24,26.57,7,29a4,4,0,0,0,2.2-.19c3.09,1.49,6.8-2.78,3.94-5.66l-.31-.32c0-.17.06-.35.08-.53a2.73,2.73,0,0,0,2.14-1.71,31.38,31.38,0,0,0,2.15-11.6,3.29,3.29,0,0,0,1-2.34H137v-.14a23.76,23.76,0,0,1,.34-2.67c.75-2.08,1.56-4.16,2.18-6.29a3.62,3.62,0,0,0,2.16-.83,50,50,0,0,0,4.51-4.58c.52,0,1.08-.49,1.64-.49H148v.08l-.08,0c11.24-5.43,23.09-6.93,35.16-6.35,3.4,2.24,6.7,4.71,10.35,6.38a3.39,3.39,0,0,0,.84.26l2.21,1.12c.71.6,1.42,1.21,2.12,1.83a1.22,1.22,0,0,0,0,.17c2,8.53,10.1,9,16.54,5.85a3.32,3.32,0,0,0-.3,1.38c0,5.36,0,10.76,1.49,15.95a3.71,3.71,0,0,0,2.71,2.48C218.78,107.33,222.4,110.1,225,107.39ZM159.1,59.83a6.28,6.28,0,0,0,.86.85l-.27,0a3.35,3.35,0,0,0-1.07-.39Zm52.35,18.54-.17-.08a4.66,4.66,0,0,0,.3-.47l.73.08A8.92,8.92,0,0,1,211.45,78.37Z"/><path class="cls-2" d="M238.1,314.71h0c.67-3-2.81-5.56-5.06-4.35a3.77,3.77,0,0,0-2.81.34c-.09-.31-.18-.61-.29-.91a3.76,3.76,0,0,0-3.37-2.76H225.2a3.58,3.58,0,0,0-3,2c-1.7-.44-3.82.21-4.35,2a25,25,0,0,0-1.86-3.25,4.23,4.23,0,0,0-2.88-1.67c-1.37-3-2.87-5.95-4.41-8.89a51.49,51.49,0,0,0-2.32-5.09,4.31,4.31,0,0,0,.53-1.68C208.09,279.24,202,265,192,259.1v-9.58a3.5,3.5,0,0,0-3.49-3.49H187a3.48,3.48,0,0,0-3.42,3.07,3.66,3.66,0,0,0-1.33.56,3.64,3.64,0,0,0-2.07-.63h-1.36a4,4,0,0,0-2,.56.15.15,0,0,0,0-.07c.39-3-2.38-3.83-4.58-3a3.68,3.68,0,0,0-5.07,2.08c-4,10.93-5.49,22.08-5.56,33.68,0,.13,0,.24,0,.37-.15,1.36-.29,2.71-.41,4.07a114.26,114.26,0,0,0-3,15.76,36.82,36.82,0,0,0-1.32,5c-.37,1.48-.7,3-1,4.47a3.86,3.86,0,0,0-2.23,2.1h-.06a1.43,1.43,0,0,0,0,.22h0c-.44,1.08-.88,2.17-1.31,3.26a3.52,3.52,0,0,0-5,1.13c-.09.16-.18.33-.26.5a3.18,3.18,0,0,0-1.7-1.09,16.55,16.55,0,0,0-3.63-7,3,3,0,0,0-3-.93,3.12,3.12,0,0,0-.82-.13h-1.36a3.5,3.5,0,0,0-3,1.79,25.7,25.7,0,0,0-1.06,16.66,27.92,27.92,0,0,0,2.24,8.74,2.79,2.79,0,0,0,2.84,1.74,10.79,10.79,0,0,0,3.13,2.58l.36.65c-.11,3.94,6.24,5,7,1l.18-1a3.64,3.64,0,0,0,4.09.23,3.71,3.71,0,0,0,5.38-1.93c1.23-3.35,2.33-6.74,3.41-10.14a3.49,3.49,0,0,0,2.17-3.06c.09-1.17.18-2.34.26-3.51a3.07,3.07,0,0,0,2.34-2.38q.88-3.84,1.78-7.68c6.3-14.05,7.6-29.47,11.86-44.17a3.35,3.35,0,0,0,.12-.6,3.43,3.43,0,0,0,1.77-.89c.37.31.76.63,1.16.93a2.91,2.91,0,0,0,3,.23,3.15,3.15,0,0,0,.24.3,3.45,3.45,0,0,0-2.11,4.13c6.05,21.82,18.89,40.83,29,60.86a3,3,0,0,0,2.56,1.73c.91,1.93,1.8,3.81,2.55,5.62a3.71,3.71,0,0,0,4.52,2.32,3.94,3.94,0,0,0,4.78-1.95,3.65,3.65,0,0,0,5.28-1,24,24,0,0,0,1.07-2.31,3.08,3.08,0,0,0,3.37-2.42c.38-1.56.75-3.14,1.08-4.72A2.88,2.88,0,0,0,240,329V317.74A3.16,3.16,0,0,0,238.1,314.71Z"/><path class="cls-2" d="M169.91,171.49a2.56,2.56,0,0,0,0,.27c-1.16,8.72,1.07,17.4,4.22,25.49a3.78,3.78,0,0,0,1,1.46c0,2,0,4,.11,6A2.72,2.72,0,0,0,174,207v12.69c0,1.44-.06,2.88-.06,4.31h.1a3,3,0,0,0,1.57,2.48,3.76,3.76,0,0,0,1.15.41.83.83,0,0,0,0,.15c.93,3.1,6.09,3.67,6.75.1a111.53,111.53,0,0,0,1.49-20,3.28,3.28,0,0,0-.72-2,3.18,3.18,0,0,0,.59-1.16c.18-.63.33-1.26.49-1.89a3.32,3.32,0,0,0,2.24-2.22,42.16,42.16,0,0,0,1.6-9.38,3.76,3.76,0,0,0,1.13-1.53l.08-.24a3.28,3.28,0,0,0,2.29-1.59c7.63-12.14,16.06-24,20.82-37.67a3.13,3.13,0,0,0,.14-1.69,29.84,29.84,0,0,0,1.35-7.43,3.41,3.41,0,0,0-.23-1.4c.19-2.63.18-5.28.18-7.93v0h0v-.27c0-4.32-6.28-4.46-6.91-.54a3.26,3.26,0,0,0-2.94,3.34c0,.16,0,.32,0,.47H205v3.06c-.09,1.35-.22,2.7-.39,4a3.25,3.25,0,0,0-3.33,2.9h0c0,.08,0,.15,0,.22a2.66,2.66,0,0,0,0,.28c0,.7-.06,1.4-.11,2.1a3.37,3.37,0,0,0-4,3.33c0,1.15-.08,2.28-.17,3.41a3.23,3.23,0,0,0-3.82,2.45c-.26,1.07-.49,2.14-.72,3.21l-.22.14c-2.56-.58-4.21.78-4.21,3V165l-.21.14c-1.48-.53-3.07.55-3.82,1.85a20.59,20.59,0,0,0-2.54,9.08,13.58,13.58,0,0,0-3.66-5.68,24.78,24.78,0,0,0-2.65-4.36c0-.08-.07-.16-.11-.25s0,0-.05,0c-2.73-3.42-8-.54-6,3.59C169.3,170.11,169.61,170.8,169.91,171.49Z"/><path class="cls-3" d="M250.34,407.94c0-.06,0-.11,0-.16-.1-13.57-2.2-26.87-5-40a92.13,92.13,0,0,0-4.62-20.91,3.71,3.71,0,0,0-.42-.82l-.83-2.63c-.49-4.52-6.13-3.64-6.89-.35H225a3.47,3.47,0,0,0-2.47,5.9,8.82,8.82,0,0,0,2.33,1.71,10.15,10.15,0,0,0,.9,1.42c.16,1.9.42,3.77.76,5.63-.16,2.78.81,5.76,1.94,8.49.53,5.67,2.52,10.85,4.88,15.9q.3,1,.57,2.07a3.17,3.17,0,0,0,1.4,2c1.11,2.23,2.23,4.45,3.28,6.69.27,1.34.49,2.69.65,4.06,0,0,0,0,0,.05a.49.49,0,0,0,0,.12h0a3.6,3.6,0,0,0,2.27,3,38.31,38.31,0,0,1,1.78,7.7c0,.1,0,.2,0,.3h.05c.73,4,6.72,4.25,6.93,0h0S250.34,408,250.34,407.94Z"/><path class="cls-3" d="M182.47,230c-.11.19-.24.36-.36.53a3.71,3.71,0,0,0-.75.78A3.29,3.29,0,0,0,180,231h-1.36a3.57,3.57,0,0,0-2.69,1.29,2.85,2.85,0,0,0-.9.16,3.09,3.09,0,0,0-1,.48c-5.67,3-6.28,10.15-2,14.95a3.51,3.51,0,0,0,5,0,20.69,20.69,0,0,0,2.56-3.47,3.55,3.55,0,0,0,4.41-1,2.84,2.84,0,0,0,3.24-1.7,23.32,23.32,0,0,0,1.79-10A3.54,3.54,0,0,0,182.47,230Zm-11.23,8.6v0l0-.08A.14.14,0,0,1,171.24,238.62Z"/><path class="cls-4" d="M181.39,53a9.11,9.11,0,0,1-1.06-.45c.51-.2,1-.51.54-.7-1.05-.39-2.11-.66-3.15-1a2.41,2.41,0,0,0-1.05.15,11.39,11.39,0,0,0,1.22-2.5c.11-.29-.31-.32-.59-.32,0-.07,0-.13.07-.2.22-.7-1.64,0-1.85.17a9,9,0,0,0-1,1.28,1.41,1.41,0,0,0-.55.29,4.87,4.87,0,0,0-1.09,2.85l-.11,0-.07,0-.12.09a9.69,9.69,0,0,1-2.16.51A.56.56,0,0,0,170,53H168.4l-.1-.14c0-.21,0-.41,0-.61,0-1.68-1.62-3.32-3.39-2.69A4.5,4.5,0,0,0,162.25,52a2.28,2.28,0,0,0-.69.13,12.34,12.34,0,0,1-2.83-1.29,6,6,0,0,0-2.53-2.23,2.13,2.13,0,0,0-3,2.72c-.49.36-1,.71-1.46,1.09-2.18,1.73.42,5.15,2.58,4.2a2.1,2.1,0,0,0,1-.29c.65-.39,1.27-.83,1.89-1.26a19.45,19.45,0,0,0,1.91.86,5.64,5.64,0,0,0,.85,4.34h0a6.52,6.52,0,0,1-1.42.72,3.13,3.13,0,0,0-.44,0,17.55,17.55,0,0,0-4.78.65c-2,.55-1.6,3-.24,4.06A2.82,2.82,0,0,0,155.82,69h1a1.74,1.74,0,0,0,1.9-1.79,6.73,6.73,0,0,0,1.45-1.72,14.44,14.44,0,0,0,3.18-1.5l.31-.22.35.18a2.27,2.27,0,0,0,2.5-.37h0a11.61,11.61,0,0,0,3.6-1.93l0,0h0l.13-.1c.54.2,1.09.41,1.62.65a1,1,0,0,0,.51,0h0l.11,0a5.17,5.17,0,0,1,1.8,2.79c0,.12.16.11.3.09a9.51,9.51,0,0,0,.75,1.12v0h0l.06.07c.3.39,2,0,1.87-.6-.24-1.06-.33-2.1-.59-3.05l.4.06h0l.29,0c.26,0,1.5-.3,1.52-.65.6-.2,1.35-.57.8-.76a7.67,7.67,0,0,0-.74-.22l.06,0c.14,0,1.2-.46.8-.74l0,0c.14-.18.11-.34-.27-.42a10.93,10.93,0,0,1-1.2-.36l-.72-.31a.41.41,0,0,0-.11.07l-.07,0c-.29-.06-1.47.3-1.56.61a11.52,11.52,0,0,1-1.79-.23,36.43,36.43,0,0,0-3.42-1.55l-.9-.46a1.48,1.48,0,0,0,0-.21A4.83,4.83,0,0,0,171.69,56c.39-.12.75-.24,1-.35a23.45,23.45,0,0,1,3.92-1.23,15.15,15.15,0,0,1,1.63.46c.45.16,2.23-.48,1.6-.84h.36C180.46,54,182.16,53.33,181.39,53Zm-5.94-.55c.07.06.05.07,0,0Zm1.49.54c.14-.1.27-.21.4-.32h.17A5.48,5.48,0,0,0,178,53Zm-4.07,1.78a7.6,7.6,0,0,0,1-1.06,1.92,1.92,0,0,0,1,.2l.09,0s0,0,0,.05h.24C174.41,54.28,173.64,54.53,172.87,54.81Z"/><path class="cls-5" d="M197.66,81.94l-.12-.13c.52-.06.65-.46-.27-1.27-.38-.33-.76-.64-1.16-.94.64.21,1.55.4,1.42-.2-2.65-12.23-20.14-9.82-29.13-9.72-1.15,0,.44,1.28,1.73,2.08-1.24.15-2.48.32-3.71.54H166a17.51,17.51,0,0,0-2.61,0c-8.16,0-17.59.65-22.25,7.56-.34.51.84,1.3,1.48,1.68a16.56,16.56,0,0,0-3.82,7.42,33.43,33.43,0,0,0-1.86,6.13c-.26,1.22,4,3.34,4.38,2.41A35.35,35.35,0,0,0,142.45,94a2.08,2.08,0,0,0,.55,0c.48.12.84.09.93-.16s.23-.65.35-1l.34-.48c1,.47,2.06.73,2.46.39,5.82-4.73,13-6.66,20.13-8.67a52.39,52.39,0,0,0,12.38-3.14c1.16-.19,2.32-.35,3.5-.44,4.77-.39,9.16,1.13,13.54,2.79,1.31.5,1.45,0,1.09-.57C198.07,82.69,198.14,82.48,197.66,81.94Zm-4.92-5.66-.58-.29c.06-.5-1.86-2-2.32-2.22a20.6,20.6,0,0,0-9.45-1.57l-.45-.28C185.32,71.67,191,72.11,192.74,76.28Z"/><path class="cls-6" d="M183.77,119.54c-1.43,1.8-3.37,1.45-5.48,1.45-.56,0-.61.49-.4,1.13-.76,0-1.53,0-2.32,0l-1,0c-.41,0-.53.31-.45.75a11.55,11.55,0,0,0-1.65-.22.54.54,0,0,0-.5.18c-.43-.18-.87-.36-1.32-.53-.75-.28-1.11-.15-1.22.18a64.26,64.26,0,0,0-6.94.17c-.58,0-.61.56-.34,1.24a3.59,3.59,0,0,0-.67.72c-.84,1.24,2.44,4.93,3.51,3.37.71-1,2.62-.78,3.83-.69h0s.3,0,.41,0c.53,0,.65-.32.51-.8a13.07,13.07,0,0,1,2.57.17c2.47,1.78,6.8,4.32,7.07,1.16a.28.28,0,0,0,0-.09,9.28,9.28,0,0,0,2-.44.83.83,0,0,0,.54-1.1,9.91,9.91,0,0,0,2.08-.48.79.79,0,0,0,.58-.61,4.19,4.19,0,0,0,2.35-1.61C188,122.05,184.66,118.43,183.77,119.54Z"/><path class="cls-6" d="M214,98.53l-.18-1c.18-2.65.18-5.29-1-7.65-.09-.5-.19-1-.31-1.49-.39-1.52-2-2.89-3.56-2a4.94,4.94,0,0,0-4.43.86c-1.12-2-3.12-3.21-6.77-3.21a1.78,1.78,0,0,0-1.81,1.53c-3.64-2.34-7.29-4.57-11.78-5.16-3.09-.4-9.38.73-11.52,3.18a3.9,3.9,0,0,0-.32.42h-.25a4.45,4.45,0,0,0-3.19,1.46c-.22.27-.48.73-.3,1.09s.66.45,1,.45h1.05a3.75,3.75,0,0,0,1.47-.34c1.07,1.67,4.28,2.64,5.9,2.9,4,.64,8.13-.28,12.11-.32a12.58,12.58,0,0,1,3,.37,2.33,2.33,0,0,0,.6.54c1.42.82,2.85,1.58,4.31,2.29,1.36,1.71,1.44,4-1.08,6.43a1.86,1.86,0,0,0-1,1.9.21.21,0,0,0,0,.08v.1a2.37,2.37,0,0,0,1.11,2.14,2,2,0,0,0,.94.39h0a18.88,18.88,0,0,0,4,1,2,2,0,0,1,.58,2.18,1.74,1.74,0,0,0-1.54.64,1.94,1.94,0,0,0-1.27-.14c-.12-.18-.22-.35-.35-.53a2.58,2.58,0,0,0-3.45-.55c-.38-.33-.79-.66-1.21-1a2.25,2.25,0,0,0-2.34-.38,7.61,7.61,0,0,0-1.26-.58c-2.9-1-6.18-.22-9.16-.16a2.09,2.09,0,0,0-1.91,1.62,14,14,0,0,0-1.23-1.36,4.09,4.09,0,0,0-3.53-.53l-.26-.07a3.68,3.68,0,0,0-.93-.43,38.52,38.52,0,0,1-.8-4.21,1.19,1.19,0,0,0,0-.79,9.67,9.67,0,0,1,.47-3.65c.62-1.83-2.25-3.2-3.84-2.52a11,11,0,0,0-1.4-1.17,2.83,2.83,0,0,0-.68-.65,24.83,24.83,0,0,0-8-4,3.06,3.06,0,0,0-2.06.23c-3.42.14-6,1.69-8.5,3.48a24.23,24.23,0,0,0-7,4.44,8.56,8.56,0,0,0,1.42.87l-.15.28a1.16,1.16,0,0,0-.29.63,7.28,7.28,0,0,0,.22,6.41l-.07.24a1.48,1.48,0,0,0-.48,1.12c0,.35,0,.69,0,1h0a2,2,0,0,0-.87.24,17.42,17.42,0,0,0-1.6-2.13c-1.05-1.2-5.64-1.84-4.42.83,1,2.21,2.32,5.22.73,7.53-1.42,2,1.87,3.3,3.4,3l.17,0c.45,2.93,1.87,5.28,3.11,8a.65.65,0,0,0,.1.15l.05,0c.76.76,3.9,2.07,4.45,1.52a29.39,29.39,0,0,1,2.88-2.6s0,0,.06,0l.07-.06.14.06a.61.61,0,0,0,0-.15l.16-.11a11.42,11.42,0,0,0,2-1.31s-.06-.11-.22-.21l1.17-1c1,1.2,3.11,1.82,4.09.53a3.22,3.22,0,0,0,3.84.81,8.11,8.11,0,0,0,2.6-2.94,2.73,2.73,0,0,0,2.69.54l.15-.07a3.32,3.32,0,0,0,1.22.11,5.27,5.27,0,0,0,3.24-.85,7.08,7.08,0,0,0,2.17-2.12,11.3,11.3,0,0,0,1.71-1.14,3.17,3.17,0,0,0,2.46.38c1.32.8,3.68,1.11,3.88-.93,0-.15,0-.29,0-.43a1.14,1.14,0,0,0,.4-1.64c-.18-.39-.38-.78-.58-1.17,0-.19-.08-.39-.13-.58l.25.08.4.1a2.71,2.71,0,0,0,.62.93,32.42,32.42,0,0,0,6.31,5.07c1.74,1,3.41-.79,3-2.48a12.82,12.82,0,0,0,3.6,2.68,15.16,15.16,0,0,0,1.79,2.08,2,2,0,0,0,.86.47c.3.72.63,1.44,1,2.14a2.51,2.51,0,0,0,.79.93c.21,2.67,4.52,4.13,4.52.93v0a.1.1,0,0,0,.05,0l.33.07c0-.12,0-.24,0-.36a1.91,1.91,0,0,0,.31-1.22c-.08-2.81-.35-5.67-.47-8.5a10.27,10.27,0,0,0,2.12-4.85,3.94,3.94,0,0,0,5,.7c1.44,1.42,3.91.83,3.78-1.65C216,103.53,214.58,101.21,214,98.53Zm-59-3.6A16.31,16.31,0,0,0,160.2,96a3.06,3.06,0,0,0,1.25-.18,13.25,13.25,0,0,0-1.13,6.18l-.47.82a24.87,24.87,0,0,1-4.1.46,2.73,2.73,0,0,0-1,.18A9.67,9.67,0,0,0,151,98.43a2.56,2.56,0,0,0,2-1.36,1.34,1.34,0,0,0,0-1.13A14.42,14.42,0,0,1,155,94.93Z"/><path class="cls-6" d="M135.13,243.5a29.25,29.25,0,0,0,1.13-6.51c.18-2.46-.81-3.3-2.66-4l0-.08a2.41,2.41,0,0,0-.91-.62,11.64,11.64,0,0,0-1.39-2.85,12.2,12.2,0,0,0,3.76.35c.13,0,.15-.05.05-.14a7.06,7.06,0,0,0-1.13-1.19c.37.09.56.1.4,0a16.47,16.47,0,0,0-3.94-2.07c.05-.16.32-.27.94-.27.33,0-.16-.3-.15-.29-1.19-.87-2.29-1.67-3.45-2.41a11.25,11.25,0,0,0,1.09-1,4.51,4.51,0,0,0-1.11-.58,9.76,9.76,0,0,1,1.11-.94c-.07,0-3.6-1.69-4.47-1.8l-.19-.08-.08.07h-.35a1.82,1.82,0,0,0-.51-.1,10.11,10.11,0,0,0-1.83.1h-.27s-.07,0-.11,0a.17.17,0,0,1,0,.07,10.94,10.94,0,0,0-4.22,1.78,13.31,13.31,0,0,0-1.55.72l.4.16-.08.07c-.81.26-1.62.53-2.42.82a5.29,5.29,0,0,1,.9.41c-.72.16-1,.77-1.08,1.59a.39.39,0,0,0-.35.1c-3,4.67-1.36,11.6,1.77,16.44.48,1.27,1,2.47,1.39,3.52a.88.88,0,0,0,.34.32,14.63,14.63,0,0,0,.71,1.43,8.53,8.53,0,0,0,3.83,4.27,13,13,0,0,0,4.27,2s.75.22.76.09,0-.39,0-.59c2.56,0,4.77-1.14,7.56-2.9a5.07,5.07,0,0,0,2.55-.55,3.54,3.54,0,0,0,2.84-1C140.47,245.84,137.88,244.37,135.13,243.5Z"/><path class="cls-7" d="M135.68,100.21l.37.24c.21.63,1.16,1.23,1.61,1.51.1.06,2.27,1.27,2.29.89v0l.06,0v-.8c0-.25.06-.49.1-.73.15,0,.26,0,.26,0,0-.4,0-.8,0-1.19a11.43,11.43,0,0,1,.54-1.44c.1-.21-.2-.59-.68-1a10.4,10.4,0,0,0,.1-1.11l-.4-.26c-.23-.63-1.19-1.21-1.64-1.49-.1-.06-2.31-1.28-2.31-.9v0s0,0,0,0v.34c-.08,1.13-.32,2.21-.37,3.34l.37.24h0A11.67,11.67,0,0,0,135.68,100.21Z"/><path class="cls-7" d="M202.65,105.82a62.69,62.69,0,0,0-1.34,6.87,1.43,1.43,0,0,0-1.15,1c0,.16-.09.32-.14.48h0v0a15.69,15.69,0,0,0-.46,2.18c-1.13-.33-2.25-.91-3.32-1.32a3.16,3.16,0,0,0-1.4-.12,14.41,14.41,0,0,0-9.31-2.84,3.08,3.08,0,0,0-2.79,2.92c-.37-.07-.74-.13-1.12-.17-.66-1.32-3.58-1.15-4.49-.26a3.8,3.8,0,0,1-.39.33,12.32,12.32,0,0,0-5.07,1.89,26.91,26.91,0,0,0-3.57.34,21.14,21.14,0,0,0-6.3,1.83,3.45,3.45,0,0,0-3.17-.82,11.5,11.5,0,0,0-4.27,2.55,12.66,12.66,0,0,0-1.37.73,11.33,11.33,0,0,0-4.33,2.81,22.75,22.75,0,0,1-3.08-8.38,15.72,15.72,0,0,0-2.07,1c0-.14,0-.28,0-.42,0,0-.68.31-1.48.72,0-.76-.08-1.52-.09-2.3,0-.09-3.8,1.87-4.14,2.65a5.36,5.36,0,0,0-.24.6,2.21,2.21,0,0,0-.81,1,6.74,6.74,0,0,0,.51,5.4c.11.2.59,0,1.17-.29a4.27,4.27,0,0,0,.41.29c.24.15.77,0,1.36-.32a17,17,0,0,0,.74,1.9c.14.31,1.34-.37,2.42-1.14a18.48,18.48,0,0,0,2.23,3.66c-2.74,5.17-3.72,11.86-2.51,16.45,1,3.77,5.79,4,7.89,1.21a5.25,5.25,0,0,0,1.08-.84c0,1.09,0,2.19,0,3.27a2.31,2.31,0,0,0,2.38,2.08,5.6,5.6,0,0,0,.6,0v.64a12.25,12.25,0,0,0-.82,6.24c.24,1.82,3.63,2.05,4.54.74a9.44,9.44,0,0,0,1-1.74,1.32,1.32,0,0,0,.81-.87c0-.17.07-.33.1-.5a3.62,3.62,0,0,0,1.24.2c.05,3,.88,6,3.33,6.69a3,3,0,0,0,3.78.11,2.71,2.71,0,0,0,3.11-1.17c.14-.33.27-.65.39-1,.19,2.81.85,5.54,2.78,7.23a5.53,5.53,0,0,0,3.66,2.78c1.29.26,3.08-.07,3.27-1.66l.12-1.18a39.15,39.15,0,0,0,.75-6.89c1.46.79,3.9.37,3.9-1.42V159h0v-.76c.06-2,.18-3.89.33-5.83l.37-.16c1.15,1,3.45,1.08,4.16-.12a1.81,1.81,0,0,0,1.14-1.47v-.17s0,0,0,0v-1.22c.13-1.19.24-2.39.34-3.59a2.46,2.46,0,0,0,.34-.22,2.56,2.56,0,0,0,1,.36c1.27.54,3.18.16,3.69-1.06a10.39,10.39,0,0,0,.49-5.19,19.91,19.91,0,0,0-.74-2.25c0-.15-.14-.31-.14-.49v-.28c1,1.74,4,1.28,4.68-.4,1-2.41,1.76-4.52,1.32-6.89v-1l-.22.06a5,5,0,0,0-.16-.55,1.51,1.51,0,0,0-.71-.9,23,23,0,0,0-.87-2.49,2.16,2.16,0,0,0,1.31-.19c.72.13,1.65,0,1.65-.91v-.53a2.24,2.24,0,0,0-.15-1c0-.1.15-.2.15-.32v0s-.08,0,0,0v-2.56a6.17,6.17,0,0,0,.78-2.82,1.43,1.43,0,0,0,.22-.81v-.64H206s0-.07,0-.11a65,65,0,0,1,1.36-6.75C207.91,105.37,203.28,103.51,202.65,105.82ZM186,139.59h-.11l.11-.12Zm-17.57,12.19-.26-.08c0-.11-.06-.21-.1-.32C168.2,151.52,168.32,151.66,168.44,151.78Zm25-31.59a3.69,3.69,0,0,0-.58-.09,38,38,0,0,0-3.77-3.07A13.24,13.24,0,0,1,193.46,120.19Zm-24.75,11.37-.52-.07c.5-.07,1-.16,1.45-.26l.91.41C169.94,131.59,169.32,131.57,168.71,131.56Zm-.27-10.32a3.55,3.55,0,0,0,2.08,1.12,15.75,15.75,0,0,0,6.88-.68l1.19-.37a28.8,28.8,0,0,0,3.48,0,3.33,3.33,0,0,0,1.52-.46c1,.79,2,1.64,3,2.45a2,2,0,0,0-.81.4l-.41.37h0c-1.48,1.33-2.91,2.72-4.48,3.94-2.6,2-4.9,1.54-7.32.63a3.12,3.12,0,0,0-2.92-1.7c-2.51.24-4.87-.75-7.36-.52a25,25,0,0,0-5.08,1.17.8.8,0,0,1-.46-1.19c.14-.1.27-.21.42-.3,1.63-1.13,3.22-2.31,4.87-3.41S166.62,121.48,168.44,121.24Z"/><path class="cls-7" d="M206.84,94.74a1.76,1.76,0,0,0-.6-.83c.14-.15.15-.36-.13-.64a2.74,2.74,0,0,1-.82-1.26,2.1,2.1,0,0,0-.13-.68l0,0a2.73,2.73,0,0,0,1-1.3c1.59-.71,2.63-2.78.78-3.85-1.1-.63-2.05-1.46-3.15-2.1A2.51,2.51,0,0,0,201.7,84a1.84,1.84,0,0,0-1-.3,2.47,2.47,0,0,0-.49-.24,8,8,0,0,1-.65-.88,1.71,1.71,0,0,0-.59-1.3,4.22,4.22,0,0,0-.67-.53,2.7,2.7,0,0,0-3,.34l0,0a2.24,2.24,0,0,0-.77,2.63,12.49,12.49,0,0,0,2.26,3.3l.15.2a14.8,14.8,0,0,0,2.44,4.15A21.94,21.94,0,0,0,201,97.78l0,.06v1.87c0,1.36,1.26,1.93,2.53,1.85a2.52,2.52,0,0,0,1.5.5c.14,0,.27,0,.4,0h0a2.84,2.84,0,0,0,1.73-.61,1.76,1.76,0,0,0,.73-1.44,6.12,6.12,0,0,0-.08-.88A20,20,0,0,0,206.84,94.74Z"/><path class="cls-8" d="M218.72,122.86c6.28-3.57,2.21-11.43-1-15.36-.8-1-5.44-2.4-3.79-.38,2.9,3.52,4.94,7.6,2.09,11.86a5.39,5.39,0,0,1-4.93,2.08,6,6,0,0,0-.49-.58c-.26-.38-.54-.74-.83-1.1a12.35,12.35,0,0,0-2.41-2.27,4.83,4.83,0,0,0-3.21-1.25c-1.1.13-.29,1.25.18,1.61,1.55,1.18,2.25,3,3.68,4.2a10.45,10.45,0,0,0,3.49,1.8A8.81,8.81,0,0,0,218.72,122.86Z"/><path class="cls-8" d="M139.36,215.68c-4.87-3.75-11-3.44-16.75-2.61a39.88,39.88,0,0,0-8.47,2.16,2.79,2.79,0,0,0-2.09-1,20.35,20.35,0,0,0-11,4.61,34.54,34.54,0,0,0-3.63,1.36,1.46,1.46,0,0,0-.89,1.31l-1.73.79c-2.33,1,.18,4.61,2.09,4.47a22.25,22.25,0,0,0,9.19-3.13c4.1-1,7.92-3.18,11.88-4.59,5.72-2.05,14.84-3.41,19.9.5C140.42,221.54,141.41,217.27,139.36,215.68Z"/><path class="cls-8" d="M137.76,273c-.18-.66-.38-1.31-.61-2-.24-1.57-.5-3.14-.81-4.7-.1-1.35-.22-2.69-.33-4v-7.7c0-1.61-2.13-2.81-3.57-2.61a5.06,5.06,0,0,0-2.63,1.11,2.46,2.46,0,0,0-.65-.11H129c-1.14-.74-2.59-.9-2.94.41-1,3.77-.06,7.14,1.36,10.55a63.28,63.28,0,0,0,3.95,15.65,4.55,4.55,0,0,0,1.89,1.82c0,.19.08.36.11.53v.3h.07c.29,1.71,3.51,3.69,4.28,2a1.32,1.32,0,0,0,.65-1.27,41.12,41.12,0,0,0-.7-8.66A1.66,1.66,0,0,0,137.76,273Z"/><path class="cls-8" d="M248.71,240.08a16.57,16.57,0,0,0-4.55-9.11,7.9,7.9,0,0,0-6.5-4.07,8.8,8.8,0,0,0-7-1c-7.92,2.12-6,11.64-2.79,16.87a10.9,10.9,0,0,0,1.81,2.21l-.14.16c-.49.06-.86.2-1,.46a57.63,57.63,0,0,1-3.42,6.57,17.59,17.59,0,0,0-1.51,4.06,13.51,13.51,0,0,1-2,3c-.85,1-1.58,1.27-2.18,1.17a6.81,6.81,0,0,1-1.29-1.29,3.19,3.19,0,0,1-.37-.56c-.51-1.39-.5-3.05.06-3,1.66.12,5.47-2.06,2.23-2.31a12.45,12.45,0,0,0-4.55.34c-1.18,0-2.44.06-2.74.42-2.21,2.66-2.41,5.71.63,7.74,2.4,1.59,6.27,1.06,8.9.56a7.67,7.67,0,0,0,3.49-1.61,6.66,6.66,0,0,0,2-2.33l.05-.1c1.45-2.35,2.29-5.34,3.34-8.12a13.11,13.11,0,0,1,2.15-2.6,9.81,9.81,0,0,0,6.4.89,8.82,8.82,0,0,0,2.71-.23C246.36,248.05,249.3,244.46,248.71,240.08Z"/><path class="cls-9" d="M170.1,100.55c-2,5.41-9.09,6.93-10.21,12.67s5.77,6.11,9.33,5.32a12.1,12.1,0,0,0,4.91-2.25c1.88-1.43,3.1-2.58,5.73-2.51a5.89,5.89,0,0,0,1.95-.26,3.66,3.66,0,0,0,2.82-3.17c.39-2.21-3.1-3.62-3-6,0-.23-1.91,0-1.93.51-.09,2.79,7.2,8.17-.81,8.21-2.73,0-4.54,1.72-6.47,3.45-7,6.29-13.85-2.61-7.93-8.15,2.86-2.69,6.08-4.27,7.53-8.14.1-.28-1.73-.1-1.9.36Z"/><path class="cls-9" d="M181.36,89c-5.57.78-11.16,6.19-7.25,11.8,3.27,4.71,11.19,3.53,15.7,1.84,3.79-1.42,10-4.68,8.8-9.68C197,86.11,185.86,87.71,181,87.76c-.8,0-2,1.24-.71,1.23,4.82,0,11.08-1.18,15,2.3,3.53,3.17.26,6.84-2.72,8.72a17.77,17.77,0,0,1-12.7,2.45c-7.72-1.7-5.72-11.3,1.28-12.28,1-.14,1.55-1.4.23-1.22Z"/><path class="cls-9" d="M173.77,94.8c1.37,2.78,2.62,5.54,4.79,7.8.64.66,2.46-.15,1.77-.87-2.17-2.25-3.43-5-4.8-7.79-.4-.81-2.23-.08-1.76.86Z"/><path class="cls-9" d="M174.36,93.58a89.51,89.51,0,0,0,6,9.59c.49.63,2.34-.09,1.77-.81a89.57,89.57,0,0,1-6-9.6c-.4-.67-2.26,0-1.78.82Z"/><path class="cls-9" d="M176.08,91.63c.95,3.93,4.2,7.24,6.66,10.3.38.47,2.24-.19,1.8-.73-2.41-3-5.59-6.24-6.53-10.09-.14-.6-2.08-.1-1.93.52Z"/><path class="cls-9" d="M178,91.19c2.06,3.51,3.74,7.22,6.6,10.19.57.6,2.4-.17,1.77-.83-2.85-3-4.53-6.68-6.6-10.19-.41-.7-2.26,0-1.77.83Z"/><path class="cls-9" d="M180.29,89.14c-.69,2.29.84,4.78,1.94,6.69a54.15,54.15,0,0,0,4.7,6.67c.29.36,2.12-.29,1.82-.66a60.35,60.35,0,0,1-4.59-6.53c-1.07-1.77-2.61-4.35-2-6.51.12-.39-1.76-.15-1.91.34Z"/><path class="cls-9" d="M181.48,89.23C183,93.56,185,98,188.15,101.35c.49.52,2.33-.2,1.79-.77-3.14-3.29-5.08-7.61-6.53-11.87-.25-.72-2.17-.17-1.93.52Z"/><path class="cls-9" d="M182.74,91.13c2.8,2.91,4.41,6.69,7.2,9.6.42.44,2.25-.26,1.8-.72-2.79-2.91-4.4-6.69-7.19-9.6-.43-.44-2.25.26-1.81.72Z"/><path class="cls-9" d="M184.56,89.41a97.44,97.44,0,0,0,6.6,10.19c.57.74,2.4,0,1.76-.87a97.44,97.44,0,0,1-6.6-10.19c-.47-.8-2.3,0-1.76.87Z"/><path class="cls-9" d="M187.48,90.43A29.71,29.71,0,0,0,193,97.76c.51.52,2.35-.21,1.78-.78a29.36,29.36,0,0,1-5.32-7.07c-.37-.71-2.25-.1-1.93.52Z"/><path class="cls-9" d="M191.67,89.83a17.91,17.91,0,0,0,4.27,6.11c.44.44,2.26-.26,1.8-.74a17.05,17.05,0,0,1-4.13-5.89c-.23-.62-2.14,0-1.94.52Z"/><path class="cls-9" d="M153.93,123.65a11.93,11.93,0,0,0-.64,5.76c.08.6,1,.47,1.39.31,2.5-1.1,4.24-3,6.26-4.75,4.24-3.73,10.16-1.2,15.18-2,4.24-.64,8.22-2.54,12.44-.32,2.53,1.32,2.71,4.46,5.9,5.33,2.54.7,4.18-.31,3.88-3.06-.65-5.9-9.76-9-14-11.35-.73-.42-2.43.57-1.49,1.11,4.66,2.66,11.89,5,13.5,10.76.54,1.91-3.82-.87-4.22-1.46a7.09,7.09,0,0,0-1.2-1.67,8.65,8.65,0,0,0-6.14-2.13,29,29,0,0,0-7.73,1.16c-3.51,1-6.69-.32-10.15-.06-6,.46-8.08,5-13.13,7.27l1.39.31c.19-1.68.37-3.36.56-5,.33-1.07-1.6-1-1.85-.22Z"/><path class="cls-9" d="M161.93,127.91c2.85-.21,7.82-2.63,9.95.13,1.4,1.81,2.3,2,4.63,2.06,4.52.14,8.42-4.11,11.51-6.77.86-.73-1.06-.77-1.56-.35-1.7,1.46-3.34,3-5.16,4.29-6.66,4.86-6.19.39-9.49-1.59-2.19-1.32-7.49,1-9.63,1.12-1,.07-1.59,1.21-.25,1.11Z"/><path class="cls-9" d="M147.35,125.31c-3.31,4.89-5.88,9.94-6.59,15.87-.29,2.37,0,7.1,2.67,8.33,4.25,2,8.13-2.78,10-6l-1.92.42c-.2,2.25-1,4.34-1.2,6.58,0,.38,1.2,0,1.31,0,1-.34,1.41,7.61,1.72,8.57a3.88,3.88,0,0,0,3.29,2.6c2.75.32,4.29-3.77,5.54-5.37l-.45-.25c.22.58.43,1.17.63,1.76a52.27,52.27,0,0,0,2.52,5.67,3,3,0,0,0,2.13,1.85c2.39.38,5-3.79,6.58-4.86l-1.72.2c2.6,3.89,2,12.73,8.48,11.27,5.59-1.25,3.62-10.22,4.82-14.08l-1.92.41a25.53,25.53,0,0,0,1.19,8.38c.17.49,1.82,0,1.92-.41a138.32,138.32,0,0,0,3-14.37l-1.92.42c.71,1.88,1.22,2.77,3.05,3.67a1.72,1.72,0,0,0,1.86-.5c1.76-3.4,2.37-7,3-10.77l-1.36.58c.24,0,2.81,3.79,3.09,4.11s1.68-.11,1.86-.5c2.26-4.77,1.32-10,1.21-15.07l-1.93.52c.71,2.27,1.26,4.43,3.05,6.07.38.35,1.66-.07,1.86-.5,2.27-4.79,1.35-10.12,0-15.06s-8-6.77-10.17-11.38c-.25-.52-2.11.13-1.93.52,1.71,3.69,5.29,5.54,8.1,8.3,4.12,4,4.39,13,2.09,17.94l1.86-.5c-1.76-1.61-2.25-3.66-2.92-5.83a1,1,0,0,0-1.95.32c.1,5,1.06,10.26-1.19,15l1.86-.5a24.58,24.58,0,0,1-2.93-4.33.79.79,0,0,0-.56-.4h-.6c-.29,0-1.29.41-1.36.81-.62,3.74-1.23,7.49-3,10.89.62-.17,1.24-.28,1.86-.44a5.5,5.5,0,0,1-2.93-3.49c-.18-.46-1.86,0-1.92.44a138.32,138.32,0,0,1-3,14.37l1.92-.42a25.25,25.25,0,0,1-1.19-8.37c0-.45-1.79,0-1.92.41-1.05,3.42-.43,7.14-1.42,10.6-1.64,5.7-4.92-.05-5.58-2.1-.72-2.23-1.14-4.54-2.46-6.52-.3-.45-1.38,0-1.71.2-.58.41-4.29,3.93-4.44,3.82-2.12-1.54-3.21-6.4-4-8.81-.07-.19-.41-.16-.56-.16-1.62,0-2.46.75-3.39,2.16-1.85,2.8-3.25,4.76-4.78,0-.73-2.26-.31-5-.25-7.33l-.19-.21A5.94,5.94,0,0,0,151,150h1.31c.21-2.26,1-4.34,1.2-6.59,0-.48-1.74.11-1.92.42a16,16,0,0,1-3.76,4.51c-3.91,3.15-5.09-4.14-5.17-6-.29-6.28,3.26-12.4,6.65-17.4.18-.28-1.58-.18-1.91.31Z"/><path class="cls-9" d="M162.29,85c1.64,4.18,7.23,5.06,10.26,7.92.51.48,2.33-.25,1.79-.76-2.91-2.75-8.57-3.73-10.12-7.67-.28-.7-2.19-.13-1.93.51Z"/><path class="cls-9" d="M164.76,82.19c2.28,3.59,6,6,9,9,.58.57,2.41-.2,1.77-.82-3-2.94-6.72-5.4-9-9-.43-.68-2.29,0-1.78.83Z"/><path class="cls-9" d="M164.89,86.47a32.35,32.35,0,0,1,6.47,5.89c.38.49,2.15,0,1.85-.65-1.31-3-4.09-4.8-6.07-7.33l-1.78.79a4.16,4.16,0,0,0,2.11,1.37c.68.12,2.29-.92,1.16-1.13a3,3,0,0,1-1.49-1c-.49-.48-2.32.09-1.78.79,1.89,2.43,4.67,4.16,5.92,7.06l1.86-.65a33.67,33.67,0,0,0-6.73-6.1c-.56-.42-2.32.39-1.52,1Z"/><path class="cls-9" d="M190.48,102.43c.35,1,2.87,1.75,3.73,2.17,2,1,4.3,1.83,5.93,3.34.5.46,2.31-.27,1.79-.75a20,20,0,0,0-5-3l-3-1.43c-.3-.15-1.44-.54-1.56-.9-.24-.68-2.15-.12-1.93.52Z"/><path class="cls-9" d="M191.74,102a53.41,53.41,0,0,0,7.33,4.89c.58.3,2.35-.53,1.53-1a50.42,50.42,0,0,1-7.06-4.71c-.57-.42-2.35.36-1.8.77Z"/><path class="cls-9" d="M194.42,102.59c3.2.1,5.88,2,8.11,4.11.38.38,2.16-.34,1.81-.67-2.39-2.33-5.27-4.17-8.68-4.28-.44,0-2.22.8-1.24.84Z"/><path class="cls-9" d="M158.69,91.63c.38,1.05.3,1.82,1.26,2.48.33.24,1.81,0,1.86-.5.35-3.43-3-3.82-5.74-3.87-.32,0-1.52.11-1.57.59-.29,2.79,2.88,3.77,4.85,5,.31.2,2.14-.16,1.87-.6-1.78-2.9-5.4-4.22-8.58-4.94-.29-.07-2.16.44-1.69.74a17,17,0,0,1,3,3l1.81-.68a11.2,11.2,0,0,0-7.49-3.09c-.21,0-2,.33-1.52.77a11.08,11.08,0,0,0,2.4,1.8l1.69-.74c-1.61-.57-3.18-1.23-4.79-1.8-.32-.11-2.14.34-1.7.74A11.93,11.93,0,0,0,148.67,93c.47.17,2.22-.57,1.57-.8a11.26,11.26,0,0,1-4.07-2.34l-1.7.74c1.61.57,3.19,1.23,4.8,1.8.39.14,2.1-.51,1.69-.74a11.41,11.41,0,0,1-2.4-1.8L147,90.6A10.31,10.31,0,0,1,154,93.51c.38.36,2.18-.28,1.81-.68a16.39,16.39,0,0,0-3-3l-1.69.74c3,.68,6.52,1.88,8.22,4.66l1.87-.6c-1.72-1.07-5-2.11-4.75-4.61l-1.57.58c2.34.05,5.37.25,5.06,3.33l1.86-.5c-.91-.63-.79-1.38-1.14-2.32-.19-.52-2.1.07-1.93.52Z"/><path class="cls-9" d="M175.06,85a5.43,5.43,0,0,0,3.42,4.62c.48.24,1.53-.11,1.53-.74v-4.2c-1,.11-1.3.22-1.95.32.15,1.37.52,1.48,1.28,2.58a1.17,1.17,0,0,0,1.82-.31,16.18,16.18,0,0,0,1.25-4.39l-1.95.32a7.87,7.87,0,0,0,3.23,3.92c.55.35,1.62.11,1.72-.64.15-1.22.44-2.38.6-3.6l-1.87.5A13.88,13.88,0,0,0,186.68,86a1.17,1.17,0,0,0,1.73-.64,9.29,9.29,0,0,1,1.14-3.41l-1.81.31c1.86,3,4.19,2.93,6.5.48l-1.56.26a9,9,0,0,0,5.21,2c1,.08,2-1.36.65-1.47a6,6,0,0,1-4.38-1.64,1.23,1.23,0,0,0-1.55.26l-3.11-.72c-.39-.64-1.54-.25-1.81.31a12.33,12.33,0,0,0-1.25,3.79l1.72-.64a11.75,11.75,0,0,1-2.25-2.26A1.14,1.14,0,0,0,184,83c-.15,1.21-.44,2.38-.6,3.6l1.72-.64a5.57,5.57,0,0,1-2.77-3.28,1.08,1.08,0,0,0-1.95.32,13.71,13.71,0,0,1-1.14,4l1.81-.3A4.27,4.27,0,0,1,180,84.52c-.09-.88-2-.5-2,.32V89a4.72,4.72,0,0,0,1.55-.74A4.1,4.1,0,0,1,177,84.52c-.13-.94-2.05-.46-1.93.51Z"/><path class="cls-9" d="M148.08,95.52c4.71-1.73,7.65,2.24,11.94,1.71a6.9,6.9,0,0,0,3.67-1.68c2.21-1.86,3.53,0,5.41,1.17.7.45,2.41-.52,1.5-1.1-1.88-1.21-5.15-4.74-7.48-1.82-3,3.75-5.59.74-8.57.19a13.11,13.11,0,0,0-7.32.42c-1.24.46-.14,1.48.85,1.11Z"/><path class="cls-9" d="M149.11,97.55a2.45,2.45,0,0,0-.22.71c-.1.46,1.33,0,1.5-.08s1.77,2.74,2,3.13a5.51,5.51,0,0,0,3.2,2.53,7.08,7.08,0,0,0,4.76-.18c4.55-1.42,6.51-7.29,9.25-10.67a2.71,2.71,0,0,0-1.9.36c-2.7,3.32-7.58,14.51-12.89,8.17-1.8-2.15-2.22-5-5.52-3.55l1.5-.07a3.07,3.07,0,0,1,.22-.71c.11-.32-1.74-.12-1.9.36Z"/><path class="cls-9" d="M155.69,97.63c-.83.37-1.85.9-2,1.88-.14.83.59,1.54,1.18,2a7.88,7.88,0,0,0,6.73,1.1c.24-.07,1-.3.85-.68s-.84-.24-1.08-.17a5.8,5.8,0,0,1-4.52-.85c-1-.63-1.86-1.91-.4-2.58,1.23-.56.09-1.06-.73-.68Z"/><path class="cls-9" d="M159.67,96.72c2.18.65,1.61,3.38.4,4.66-.79.85,1.1.87,1.56.37,1.81-1.92,2.23-5.23-.79-6.13-.66-.2-2.28.77-1.17,1.1Z"/><path class="cls-9" d="M156.53,98.09a2.69,2.69,0,0,0-.35,2.1,3.09,3.09,0,0,0,.61,1c.19.23.39.56.7.64a1.72,1.72,0,0,0,1.74-.76c.13-.18.25-.37.37-.55l.19-.27c.23-.33,0,0-.45.15l-.91,0c-.13-.22-.18-.27-.16-.13l1.55-.82c-.6-.2-1.43-.4-2-.59-.38-.13-1.78.1-1.78.66v1.2c0,.33.75.39,1.06.39h1.8c.35,0,1.33-.13,1.33-.65a6.1,6.1,0,0,0-.13-1.81,4.07,4.07,0,0,0-1.14-1.44c-.38-.38-1.86-.17-1.86.5a8.32,8.32,0,0,0,.65,3.85,1,1,0,0,0,1.88-.45,3.11,3.11,0,0,1,.24-1.21c0-.1.31-.45.18-.3.28-.3.22-.64-.2-.74a1.55,1.55,0,0,0-1.37.36,3.11,3.11,0,0,0-.78,2.1l1.93-.37a8,8,0,0,1-.6-3.45l-1.86.5a4.73,4.73,0,0,1,1,1.09,4.09,4.09,0,0,1,.17,1.67c.44-.23.89-.65,1.33-.65h-1.8c.2,0,.21.23.21.39v-1.2c0,.22-.84.44-1.36.66.6.2,1.3.4,1.9.6s1.65-.16,1.6-.81c-.07-.86-1.58-.27-1.91.09a5.37,5.37,0,0,0-.52.73l-.25.36c-.23.34,0,0,.46-.15l.9,0c.14.22.19.26.17.13a.83.83,0,0,0-.26-.33,3,3,0,0,1-.63-.87,1.78,1.78,0,0,1,.23-1.5c.43-.88-1.51-.69-1.81-.08Z"/><path class="cls-9" d="M148.18,88.51c7.2-.37,13.1-3.52,19.9-5.39a64.93,64.93,0,0,1,23.63-1.81c1,.1,2-1.33.66-1.47a73.61,73.61,0,0,0-20.1.88c-8.21,1.42-15.53,5.87-23.94,6.31-1.11.06-1.46,1.55-.15,1.48Z"/><path class="cls-9" d="M206.2,88.11c-.11-4.4,5.35-1.91,6.91-.22,2.06,2.24.44,6.64.33,9.44-.09,2.4,1.15,4.1,2.38,6a4.92,4.92,0,0,1,1.05,3.19c-.29,3.06-5.71,3.45-7.73,1.9-.49-.37-2.23.38-1.81.71,2.54,1.94,6.33,1.09,9-.18,5.63-2.7-.63-8.2-.92-12.13-.26-3.32,1.58-6.64-.47-9.64-1.11-1.63-3.32-2.33-5.17-2.56-2.72-.34-5.55,1.07-5.47,4,0,.49,1.95.14,1.93-.52Z"/><path class="cls-9" d="M211.54,106.18c2.53,2.55,5.71,6,5.64,9.84-.07,3.53-4.83,4.68-7.1,2.5-1.74-1.69-2.3-4.53-2.07-6.84.09-.94-1.87-.64-1.95.17-.28,2.78.49,6.23,2.82,8,2.54,2,5.45,1.27,8-.34,5.72-3.61-.55-11.14-3.56-14.19-.57-.58-2.41.19-1.78.83Z"/><path class="cls-9" d="M212.23,106.12c6.5,1.34,10.63,8.74,6.86,14.66-3.24,5.08-9.79,2.72-11.41-2.1-1-3-.23-6.65.9-9.5.11-.27-1.71-.11-1.9.36-1.56,3.93-2.2,8.84.5,12.41,2.25,3,6.81,3,9.91,1.59,9.1-4.06,5.4-16.35-3.26-18.13-.43-.09-2.09.61-1.6.71Z"/><path class="cls-9" d="M143.21,84c3-11.87,20.63-12.89,30.49-12.88A44.2,44.2,0,0,1,187.23,73c3.72,1.21,6.76,3.84,9.3,6.71,1.85,2.09,4.48,4.88,7.31,5.45.47.09,2.15-.66,1.59-.77-4.07-.81-7.32-5.94-10.28-8.55a21.66,21.66,0,0,0-9.55-4.52c-5.58-1.27-11.56-1.17-17.23-.78-9.19.63-24.38,3.07-27.06,13.8-.11.44,1.78.16,1.9-.33Z"/><path class="cls-9" d="M144.67,82.9a64.06,64.06,0,0,1,7.62,2.94c.57.23,2.34-.61,1.54-.93a67.62,67.62,0,0,0-8-3.06c-.61-.16-2.27.76-1.18,1.05Z"/><path class="cls-9" d="M145.83,78.55c3.64.18,6.26,3.72,9.31,5.35.49.26,2-.54,1.83-.65-3.33-1.77-5.89-5.25-9.88-5.45-.39,0-2.2.71-1.26.75Z"/><path class="cls-9" d="M149.3,76.27c3.37,1.45,6.08,4.12,9.77,4.86.67.14,2.29-.89,1.17-1.11-3.55-.72-6.17-3.34-9.42-4.73-.62-.27-2.38.61-1.52,1Z"/><path class="cls-9" d="M152.7,75.81c3.44.13,6.23,2.43,9.38,3.56.72.26,2.27-.78,1.15-1.19-3.35-1.2-6.16-3.49-9.82-3.63-.84,0-2,1.21-.71,1.26Z"/><path class="cls-9" d="M158.12,73.48c1.84.13,3.59,1.42,5.11,2.35,2,1.18,3.85,2.46,5.88,3.51.74.38,2.44-.63,1.48-1.12-2.21-1.15-4.29-2.55-6.42-3.84-1.61-1-3.45-2.17-5.38-2.31-.95-.06-2,1.32-.67,1.41Z"/><path class="cls-9" d="M164.47,73.34A16.8,16.8,0,0,1,175,79.17c.48.55,2.33-.16,1.79-.79a18,18,0,0,0-11.11-6.16c-.67-.11-2.28.94-1.16,1.12Z"/><path class="cls-9" d="M173.09,74c2.3.09,3.94,1.85,5.47,3.38.54.54,2.38-.21,1.78-.81-1.85-1.84-3.78-3.71-6.54-3.82a1.43,1.43,0,0,0-1.26.56c-.23.41.19.68.55.69Z"/><path class="cls-9" d="M178.52,74.1c1.22.07,2.24,1.31,3,2.11a1.11,1.11,0,0,0,1.32.16c.3-.14.8-.67.45-1-1.14-1.14-2.43-2.6-4.16-2.7a1.26,1.26,0,0,0-1.25.6.62.62,0,0,0,.6.85Z"/><path class="cls-9" d="M184.17,74.73a4.66,4.66,0,0,1,2.93,1.63c.66.64,2.31-.36,1.48-1.16a6.19,6.19,0,0,0-4.26-2,1.08,1.08,0,0,0-1.06.81c0,.52.5.68.91.69Z"/><path class="cls-9" d="M225.24,107.28c1.85-2,4.42-3.37,6.16-5.48a30,30,0,0,0,3.89-6.49,24.09,24.09,0,0,0,1.57-17c-3-10.43-16.4-13.29-25.22-16.47-5.13-1.86-10.35-3.42-15.45-5.35a63.6,63.6,0,0,1-8.42-3.9c-3.26-1.81-5.18-4.62-7.48-7.43-2.44-3-9.43-13.64-13.34-6.94a39,39,0,0,0-2.1,4.37c-1.09,2.48-1.44,2.35-2.63-.1s-2.9-4.46-5.67-2.74-3.05,5.78-4.42,8.29a39.77,39.77,0,0,1-12.76,14.26c-14,10.07-39.07,32.84-16.5,48.15a16.64,16.64,0,0,0,9.72,2.66c1.14,0,1.46-1.53.15-1.51-6.53.09-11.71-3.87-15-9.24-3.42-5.58-2-11.78.85-17.19,4.85-9.15,13.84-16,22.08-21.9C147.53,58.35,152.38,53,155.38,45c4-10.63,5.51,5.79,10,.47,1.45-1.73,2-4.33,3.09-6.32,1.75-3.38,4.59.94,6,2.45a78.67,78.67,0,0,1,5.77,6.61c5.64,7.32,15.3,10,23.75,12.78,4.89,1.62,9.71,3.34,14.48,5.28,5,2,10.13,3.35,13.73,7.6,4.75,5.58,4.11,13.31,1.82,19.74-2.08,5.83-6.5,8.71-10.42,13-.83.91,1,1.32,1.63.63Z"/><path class="cls-9" d="M141.31,83.75c-3.71,4.86-4.26,15.48-.61,20.47.27.38,1.89,0,1.93-.51.19-.58.39-1.15.58-1.72.12-.21-1.63-.12-1.9.35-.67,1.14-.51.65-.61,1.88l1.93-.51c-3.65-5-3.07-15.52.58-20.31a2.48,2.48,0,0,0-1.9.35Z"/><path class="cls-9" d="M140.88,97a31.89,31.89,0,0,0,1.2,7.19c.11.46,1.93,0,1.93-.51v-7.8a12.69,12.69,0,0,0-1.93.52c.54,2.37.65,4.82,1.2,7.19.1.45,2,0,1.93-.51-.55-2.38-.69-4.82-1.24-7.2-.1-.45-2,0-2,.52v7.79a14.85,14.85,0,0,0,2-.51,32.61,32.61,0,0,1-1.18-7.2c0-.36-1.93-.05-1.91.52Z"/><path class="cls-9" d="M207.79,93.74c.55-.12,1-.5,1.53-.55-.28-.18-.57-.35-.86-.52a9.51,9.51,0,0,1-.25,3.41c-.26.69-1,1.36-.94,2.15a8.91,8.91,0,0,0,.78,2.67,2.29,2.29,0,0,1-.13,2.4c-.44.92,1.51.79,1.82.13.84-1.73.53-2.25-.12-3.94s.07-2.38.64-3.86a9.54,9.54,0,0,0,.14-3.16c0-.45-.48-.55-.86-.51a19.15,19.15,0,0,0-2.06.64c-1.2.25-.87,1.38.31,1.14Z"/><path class="cls-9" d="M146.38,107.1c3.87,0,7.81.72,10.73,3.44.66.61,2.32-.37,1.48-1.15-3.26-3-7.75-3.72-12.05-3.76-1.13,0-1.47,1.46-.16,1.47Z"/><path class="cls-9" d="M141.28,112.42c-1,7,6.49,7.87,11.7,7.89,1.14,0,1.46-1.5.15-1.5-4.41,0-10.77-.58-9.89-6.51.16-1-1.82-.8-2,.12Z"/><path class="cls-9" d="M140.06,101.19a5.63,5.63,0,0,0-4.4.5c-2.34,1.69-1.51,3.07-.13,5.14,1.15,1.73-.61,4.13-.87,5.92-.36,2.59,1.62,3.5,3.81,4.18.43.14,2.15-.57,1.59-.74-3.92-1.23-3.77-3.15-2.66-6.54a5.57,5.57,0,0,0,.33-2.82,5.44,5.44,0,0,0-1-1.62c-.77-1.09-1.69-4.1,1.77-3.27.44.11,2.13-.61,1.59-.75Z"/><path class="cls-9" d="M163.73,49.52c-7.38,1.7-3.39,9.3-3.24,14.52a.31.31,0,0,0,.19.2c1.95.87,4.55,1.59,6.67,1,1.94-.52,2.24-2.14,2.83-3.86A28,28,0,0,0,172,54.66c.24-3.33-2.64-3.49-5-4.53-.56-.25-2.33.57-1.54.92,2.63,1.17,5.2,1.46,4.39,5.09a52.06,52.06,0,0,1-2.3,7.41c-.63,1.6-3.26.52-4.53.11-1-.34-.92-3.06-1.11-4.07-.59-3.1-2.31-8.13,2-9.13,1.17-.27.9-1.21-.25-.94Z"/><path class="cls-9" d="M162.5,57.46q.25,0-.18-.09s-.15-.24-.11-.13a1.12,1.12,0,0,0,.33.47,2.17,2.17,0,0,0,1.41.36c.39,0,1.06-.34,1.06-.8V54.88a.88.88,0,0,0-.89-.85h-1.21a1.11,1.11,0,0,0-.9,1v1.2c0,1,2,.76,2-.13v-1.2c-1,.26-.9.15-1.26,1.15H164c-.3-1-.94-.8-.94-1v2.4c0-.26.73-.53,1.08-.79-.14,0-.08-.07,0,.06,0-.07,0-.06,0,0,0-.08-.07-.17-.12-.25a1,1,0,0,0-.86-.44,1.23,1.23,0,0,0-1.25.6.61.61,0,0,0,.59.83Z"/><path class="cls-9" d="M166.07,55.64a2.66,2.66,0,0,0,.86,1.87c.28.32,2.08-.13,2.08-.58v-1.8c0-.32-2,0-2,.51v1.8c0-.19,1.08-.39,1.7-.59a2.4,2.4,0,0,1-.63-1.72c0-.32-2,0-2,.51Z"/><path class="cls-9" d="M164,59.84V61c0,.54,1.72.18,1.76-.39s.33-1.15.38-1.8c-.64.13-1.14.26-2.14.39v2.4c0,.54,2,.2,2-.52V58.76c0-.54-2-.2-2,.51v.57c0,.54,2,.2,2-.52v-.56c0-.54-2-.2-2,.51v2.37c0,.54,2,.2,2-.52V58.73c0-.55-1.79-.18-1.84.39s-.29,1.14-.34,1.79c.64-.13,1.18-.26,2.18-.39v-1.2c0-.54-2-.19-2,.52Z"/><path class="cls-9" d="M172.2,52.51c1.29-.68,2.33-1.73,3.6-2.4.15-.08.68-.4.24-.5a2.28,2.28,0,0,0-1.35.25c-1.28.68-2.32,1.73-3.6,2.4-.14.08-.67.4-.23.5a2.23,2.23,0,0,0,1.34-.25Z"/><path class="cls-9" d="M173,55l3-3a.41.41,0,0,0-.2-.75,1.56,1.56,0,0,0-1.37.37l-3,3c-.3.3-.22.65.2.75A1.57,1.57,0,0,0,173,55Z"/><path class="cls-9" d="M175.2,49.29c-.21-.82-.24-2.77,1-2.88l-.57-.2c0,1.34-.24,3.54.9,4.49.87.72,2.3.83,2.9,1.84.49.83,1.21,1.14,1.6,2.14.45-.24.91-.65,1.36-.65h-3.59c.18,0,.18,0,.18.06v-1.8c0-.45-2-.13-2,.51v1.8c0,.21.91.43,1,.43h3.6c.24,0,1.54-.37,1.36-.83a7.2,7.2,0,0,0-3.68-3.61,2.48,2.48,0,0,1-1.6-2.39,18.94,18.94,0,0,1-.12-2.5c0-.2-.46-.22-.56-.21-2.37.2-4.42,1.72-3.77,4.32.14.55,2.08,0,1.94-.52Z"/><path class="cls-9" d="M170.16,60a11.48,11.48,0,0,0,4.51,2.58c.69.23,2.27-.77,1.16-1.15a9.93,9.93,0,0,1-3.89-2.22c-.54-.53-2.37.22-1.78.79Z"/><path class="cls-9" d="M169.5,63.23a17,17,0,0,1,5.18.56c.75.23,2.28-.86,1.14-1.22a19.34,19.34,0,0,0-5.62-.64,1.41,1.41,0,0,0-1.27.57c-.21.4.19.73.57.73Z"/><path class="cls-9" d="M174,63.9v3c0,.45.72.45,1.07.43,2.41-.12,4.92-1.72,4.2-4.41l-1.68.74a13.23,13.23,0,0,0,5.23.69c.34,0,1.74-.35,1.28-.95-1.53-2-4.21-2-6.52-2-.74,0-2.05,1.13-.74,1.13,2,0,4.17-.11,5.48,1.61l1.27-.94a11.13,11.13,0,0,1-4.41-.51c-.41-.18-1.92,0-1.73.73a2.09,2.09,0,0,1-2.1,2.79c.28.14.65.29.65.43v-3c0-.84-2-.43-2,.23Z"/><path class="cls-9" d="M156.28,55.32c.7,0,1.58.56,2.39.6A1.61,1.61,0,0,0,160,55.4c.27-.38-.23-.54-.52-.55-.7,0-1.58-.56-2.4-.6a1.6,1.6,0,0,0-1.27.52c-.27.38.23.54.52.55Z"/><path class="cls-9" d="M158.22,53.93a.8.8,0,0,1,.32-.5,1,1,0,0,0,.28-.7l-1.87.6,1.8,1.8c.38.38,2.18-.32,1.81-.69l-1.8-1.8c-.36-.36-1.83.08-1.87.6,0,.23-.18.35-.32.5a1,1,0,0,0-.28.7c0,.36,1.88.11,1.93-.51Z"/><path class="cls-9" d="M157,51.73v-2.4c0-.87-1-.77-1.53-.42-.16.11-.49,0-.69.08a2.79,2.79,0,0,0-1,.52c-.62.43-.26,1.06.34,1.22-.36-.1.05.81.12,1a3,3,0,0,0,.53,1.06l1-1.19c-2.21.06-4.6,1.16-4.12,3.73.2,1,1.7,1.11,2.54,1.14a5.9,5.9,0,0,0,4-1.83c.95-.9-.56-1.67-1.31-1-1,1-2.19,1.63-3.59,1l.41.43c-.43-1.54.59-2,2-2,.49,0,1.42-.61,1-1.19-.74-.93-.39-2.35-1.76-2.71l.33,1.23c.16-.12.54,0,.74-.09a2.43,2.43,0,0,0,.93-.51,9.73,9.73,0,0,0-1.75-.42v2.4c0,1.06,2,.81,2-.12Z"/><path class="cls-9" d="M155.14,62.31c.66.56,1.91,0,2.54-.32a4.59,4.59,0,0,0,1.72-2c.16-.3-.68-.18-.76-.16-.32.06-1,.18-1.14.51a5.6,5.6,0,0,1-.69,1,2.91,2.91,0,0,1-.43.43,1.09,1.09,0,0,1-.17.13c.88-.56,1.15,0,.76-.31s-1,0-1.24.13c-.11,0-.84.3-.59.52Z"/><path class="cls-9" d="M158.33,63.74a4.45,4.45,0,0,0,2.7-1.58c.29-.29.23-.62-.19-.72a1.6,1.6,0,0,0-1.37.37c-.18.18-.36.36-.55.53s-.16.14-.24.21-.25.09-.1.08c-.37,0-1,.25-1.09.67s.57.46.84.44Z"/><path class="cls-9" d="M159.21,62.68c-2.61-1.24-9.23-2.78-9.52,1.81,0,.26.15.39.39.46a6.27,6.27,0,0,0,6.16-1l-1.57-.4A9,9,0,0,0,152,67.46c-.32,1.35,1.53,2.25,2.62,2.17,3.31-.24,5.5-3.92,7.14-6.4.53-.8-1.43-.68-1.81-.1a25.24,25.24,0,0,1-3.49,4.42,4.43,4.43,0,0,1-1.19.82c-1,.49-1.39-1.11-1.15-1.7A9.18,9.18,0,0,1,156.24,64c.86-.86-1.08-.81-1.57-.4-1.1.91-2.27.57-3.43.23l.39.47c.19-2.94,4.4-1.39,6.06-.6.63.3,2.39-.59,1.52-1Z"/><path class="cls-9" d="M139.24,134.2c-2.76,2.05-20.46,11.2-9.84,13.61a21,21,0,0,1,5.74,2.11c2.77,1.55.43,3.79-1.09,5.15-2.28,2.06-4.88,3.86-6,6.86-2.64,7.41,14.57,10.36,18.51,11.73,6.48,2.27,11.07,8.84,14.51,14.46,4.17,6.81,9.46,14.51,11.36,22.26.19.77,2.13.26,1.93-.52-1.66-6.78-6-12.09-9.12-18.22a55.24,55.24,0,0,0-10.06-14.22c-6.77-6.77-18.33-5.21-24.4-12.29-5.26-6.11,9.25-9,7.45-14.57-.75-2.3-4.88-3.24-6.88-3.72-2.53-.61-4.93-1-2.19-3.94,3.19-3.35,7.59-5.27,11.27-8,1.05-.79-.56-1.21-1.24-.71Z"/><path class="cls-9" d="M218.25,128.38c4.26,1.14,14.62,2.67,13.55,9.09-.49,3-5.15,5-7.26,6.74-6.8,5.55,2.66,9,7.15,10.62,6.38,2.34,7,7.57,1.89,11.6-3.8,3-8.49,4.77-12.73,7-11.71,6.21-21.32,16.35-30.9,25.31-.5.48,1.39.31,1.78-.05,10.74-10.06,21.27-20.42,34.59-27,5.22-2.59,18.1-8.57,10.61-15.68-3.48-3.3-10-2.34-12.51-6.75-2-3.48,3.61-6.31,5.79-7.92,2-1.48,4-3.35,3.49-6.05-1-5.51-9.73-6.63-13.89-7.75-.51-.13-2.24.66-1.56.85Z"/><path class="cls-9" d="M213.87,128.21c1.66,7.48,2.14,14.21-.1,21.66-1.85,6.16-6.05,11.47-9.86,16.52-7.65,10.13-13.59,20.92-16.56,33.34-2.91,12.14-2.38,24.85-.72,37.13,2,14.8,8.48,28.56,11.64,43.09.11.49,1.51-.08,1.71-.21.85-.53.77-.52,1.41-1.41.16-.21-1.57-.14-1.91.33l-1,1,1.71-.21c-3-14-8.88-27.24-11.39-41.39a99.46,99.46,0,0,1,.82-40.19c3.07-12.85,10.08-23.66,17.91-34.08,3.64-4.85,6.82-9.86,8.58-15.71,2.06-6.87,1.21-13.51-.32-20.37-.1-.45-2,0-1.93.51Z"/><path class="cls-9" d="M162.89,161.68c-.4,5.49,3.92,10.95,5,16.32,1.61,8.31,2.16,17,3.15,25.44a81.29,81.29,0,0,1-1.2,26.9c-1.94,9.16-4.39,18.22-6.64,27.31-4.85,19.65-4.89,40.39-8.78,60.27-.12.63,1.81.29,1.92-.28,2-10.45,3.24-21.08,4.57-31.64,1.12-8.9,1.68-18.1,3.78-26.84,4-16.7,10-33.48,8.8-50.86-.58-8.49-2-17-2.91-25.42a40.06,40.06,0,0,0-2.38-11.17c-1.33-3.21-3.61-6.7-3.35-10.31.05-.68-1.88-.27-1.92.28Z"/><path class="cls-9" d="M233,132.89c4.35.34,10.56.87,8.58,6.59-1.34,3.86-3.59,7.16-3.71,11.39,0,.8,1.91.4,1.93-.24.15-4.9,3.4-8.6,4.21-13.25.87-5-7.14-5.34-10.26-5.58-.73-.06-2.05,1-.75,1.09Z"/><path class="cls-9" d="M198.87,279.35c2.55,5.56,4.75,11.24,6.76,17,1.64,4.73,2.61,10,5.25,14.3,3.17,5.15,10.08,1.21,14.07-.37,9.17-3.63,17.82,2.95,27.19.15,4.49-1.35,11.1-5.05,8.64-10.62-.31-.71-2.21-.12-1.93.52,3,6.82-8.06,10.27-13.06,10-6.86-.43-12.14-3.69-19.1-1.74a65.84,65.84,0,0,0-6.64,2.55c-5.85,2.37-8-1.41-9.61-6.49a219,219,0,0,0-9.64-25.79c-.32-.71-2.21-.11-1.93.51Z"/><path class="cls-9" d="M241.69,136.94c1.16,10.26,5.63,19.55,9.36,29.06,4.22,10.76,7.93,22.1,14,32,2.73,4.44,6.78,8.42,6.07,14.06-.57,4.5-7.32,8.49-10.37,11.27-4.88,4.44-8,10.4-12,15.59-.47.61,1.45.39,1.78,0,4.52-5.89,8-12.11,13.67-17.06,2.59-2.28,6.32-4.71,7.94-7.85,2.08-4,.57-8.11-1.83-11.67-7-10.36-11.63-21.78-16-33.44-4-10.63-9.34-21-10.63-32.45-.06-.53-2-.12-1.93.52Z"/><path class="cls-9" d="M229.21,224.35c8.25.72,17.16,3.93,19.28,12.84.12.49,2.06,0,1.94-.51-2.19-9.19-11.51-12.44-20-13.19-.45,0-2.23.77-1.23.86Z"/><path class="cls-9" d="M230.53,223.88c-8.55,1.39-9,17.29-2.06,21,.67.36,2.41-.57,1.51-1-3.17-1.69-4-5.45-4.17-8.77-.13-3.06.7-9.24,4.51-9.86,1-.17,1.53-1.5.21-1.28Z"/><path class="cls-9" d="M248.8,238.12c.13,3.19-.48,6.29-2.91,8.52-2.19,2-5.46,2.31-8.27,2-.57-.07-2.27.87-1.19,1a15.38,15.38,0,0,0,9.58-1.68c3.75-2.13,4.89-6.28,4.72-10.32,0-.58-2-.2-1.93.51Z"/><path class="cls-9" d="M228.85,174.81c-3.36,13.94-9.28,31-2.31,44.74.39.77,2.23,0,1.77-.86-6.79-13.38-.78-30.45,2.49-44,.23-.94-1.75-.71-2,.15Z"/><path class="cls-9" d="M246,250.46c-3.82,3.52,3.26,14.44,5,17.74a163.06,163.06,0,0,0,8.25,14.12c1.66,2.56,3.43,5.61,5.87,7.53.1-.38.21-.76.31-1.14-3.38,1.42-6.67,3.16-6.55,7.25,0,1,2,.74,2-.14-.09-3.24,2.84-4.85,5.45-5.95.46-.19.78-.78.31-1.14-4.94-3.89-8.3-11.4-11.32-16.74a121,121,0,0,1-6.18-12.38c-.56-1.33-3.27-6.88-1.79-8.25,1-.89-.56-1.57-1.28-.9Z"/><path class="cls-9" d="M230.71,243.06c-.19.17-.1.1-.25.15.26-.08-.22,0,.07,0a1,1,0,0,1,.24,0,2.43,2.43,0,0,1,1.28.31c1.4.77,1.3,2.64,1,4-.11.53,1.8.21,1.91-.32.39-1.88.25-4-1.86-4.68a4.74,4.74,0,0,0-4.18.69c-.34.31.3.39.48.38a2.09,2.09,0,0,0,1.29-.48Z"/><path class="cls-9" d="M230,241.58c2.06-2.64,4.34-1.43,5.87,1a7.07,7.07,0,0,1-.28,8.06l1.72.36a10.38,10.38,0,0,0,1.23-6c-.29-2.17-1.84-4.18-3.06-5.91l-1.23,1.1c4.17.83,3.49,6.12,1.82,8.82-.55.9,1.42.89,1.84.2,2.31-3.74,2.05-9.38-3-10.38-.5-.1-1.69.44-1.22,1.1,2.6,3.68,3.79,6.58,1.76,10.88-.46,1,1.32.86,1.73.36,2.55-3.11,2.11-7.43-.31-10.49s-6.26-2.5-8.5.36c-.75,1,1.09,1.2,1.61.54Z"/><path class="cls-9" d="M230.05,235.25c6.27.19,12.69,5.75,8.47,12-.49.74,1.46.55,1.8,0,4.73-7-2.63-12.94-9.52-13.15-.71,0-2.06,1-.75,1.08Z"/><path class="cls-9" d="M239.06,238.57a8.76,8.76,0,0,1,1.19,3.6c0,.61,2,.23,1.94-.52a9,9,0,0,0-1.2-3.6c-.33-.66-2.21,0-1.93.52Z"/><path class="cls-9" d="M241.46,238.44c-.67,1.57.09,3.41.59,4.93.22.66,2.14.11,1.94-.52-.48-1.43-1.23-3.18-.6-4.66.24-.59-1.67-.37-1.93.25Z"/><path class="cls-9" d="M243.32,239.26a3.16,3.16,0,0,1,.53,2.31c0,.44,1.93.12,1.93-.52a3.24,3.24,0,0,0-.66-2.49c-.39-.41-2.2.28-1.8.7Z"/><path class="cls-9" d="M229.62,185.7c-.49,1.11,2.28,3.78,2.88,4.53,3,3.77,6.65,7,9.56,10.87l1.68-.81a4,4,0,0,0-2.56-.37c-.24,0-1.58.26-1.35.76.74,1.62,1.95,2.53,3.16,3.82l1.29-.87c-1.94.14-5.51.55-6.27,2.7-.42,1.21,1.77.15-.19,2a45.19,45.19,0,0,0-3.58,3.87,123.44,123.44,0,0,0-8,11.17c-.12.17-.1.35.11.43l.2.08a1.69,1.69,0,0,0,1.54-.32l.42-.38c.81-.74-1.11-.64-1.53-.25a4,4,0,0,0,3-2.49q1.44-2.13,2.92-4.23a55,55,0,0,1,7.67-8.82c.11-.1.33-.33.14-.49q.48-2.43,2.73-2.22c.24,0,1.77-.36,1.29-.87-1.11-1.18-2.33-2.07-3-3.61l-1.35.77,1.78.24c.36.13,2.15-.17,1.67-.8a85.31,85.31,0,0,0-6.37-7.33c-.77-.82-6.57-6.22-6-7.61.24-.52-1.66-.31-1.92.27Z"/><path class="cls-9" d="M243.8,204.59c3.41-.06,7-1,9.4,2.06l1.68-.76c-3-1.11-5.46-3.28-8.35-4.64-.47-.23-2.25.5-1.57.82,2.89,1.37,5.34,3.53,8.36,4.64.33.13,2.12-.22,1.68-.76-2.65-3.31-6.68-2.33-10.4-2.27-.6,0-2.1.93-.8.91Z"/><path class="cls-9" d="M243.58,200.85c-.1.26-.51.16-.05.18a8.48,8.48,0,0,1,1,.15,17.71,17.71,0,0,1,2.15.64c.53.19,2.93.94,3,1.34.26.91,2.19.39,1.93-.52-.38-1.35-3.67-2.1-4.77-2.45s-4.52-1.44-5.16.42c-.38,1.07,1.56,1.07,1.85.24Z"/><path class="cls-9" d="M241,207.37a36.82,36.82,0,0,0,4.51,1.28c.56.14,2.27-.72,1.19-1a31.67,31.67,0,0,1-4.15-1.19,1.75,1.75,0,0,0-1.37.2c-.22.13-.61.53-.18.7Z"/><path class="cls-9" d="M232.19,248.47a24.14,24.14,0,0,0-5.55,7.35c-.54,1-1.38,1.69-1.46,2.86-.24,3.39.63,6.6-6.05,5.6-3.71-.56-5.33-3.83-5.07-7.21a7.94,7.94,0,0,1,1.5-3.79c1.93-2.87,4.13.1,5.08,1.87l1.88-.59c-4-2-7.91,1.53-4.5,5.29,1.16,1.27,3.29.38,4.41-.43,1.78-1.3,2.39-4,2.95-5.91,1.06-3.67,3.65-6.42,6.69-8.61.39-.28-1.38-.09-1.74.17a23.37,23.37,0,0,0-5.34,5.35c-2,2.81-1.7,6.68-4.3,9.16-.58.56-4.56-6.71,0-4.37.27.14,2.07-.22,1.87-.58-4.7-8.74-14.21,2-8.74,8.56,2.78,3.34,8.74,2.11,11.84.14,2-1.24,1.16-3.92,1.59-5.79.24-1.05,1.73-2.88,2.28-3.82a19.67,19.67,0,0,1,4.39-5.42c.39-.31-1.4-.11-1.74.17Z"/><path class="cls-9" d="M171.3,247.06c2.07,1.16,5,.75,7.21.31,2.65-.53,5.73-1.39,7.55-3.54.77-.9-1.09-1-1.58-.44-2.1,2.47-8.68,4.31-11.67,2.64-.65-.36-2.39.54-1.51,1Z"/><path class="cls-9" d="M176,232.33a2.23,2.23,0,0,1-.29-.65l-1.09.81c-.22,0,.92.15,1.17.12,1.29-.15,2.5-.48,3.81-.56a26.25,26.25,0,0,0,7.57-1.24c1.27-.46.11-1.16-.78-.84-3.66,1.32-7.77.81-11.52,1.41-.32.05-1.25.31-1.09.81a2.15,2.15,0,0,0,.28.66c.34.69,2.23.08,1.94-.52Z"/><path class="cls-9" d="M177.61,233.15a6.19,6.19,0,0,0-4.5,4.45,7.83,7.83,0,0,0,1.57,6.41,4.91,4.91,0,0,0,5.12,1.75c3.14-.69,5-3.28,6.42-6,.1-.2-1.66-.1-1.9.36-.81,1.58-2.54,5.07-4.69,5.09-1.65,0-3-1.48-3.74-2.78-1.72-3-1.36-7.7,2.36-8.93,1.32-.43.06-.58-.64-.35Z"/><path class="cls-9" d="M179,237.84v3.67a.51.51,0,0,0,.51.51c2.57-.09,4.74-1.62,4.8-4.39,0-.33-.34-.51-.66-.51-.93,0-2.64,0-3.1,1-.34.77.25,1.85.26,2.65s2,.53,1.94-.2a9.32,9.32,0,0,0-.31-2c0-.2,0-.44-.11-.31s-.44.19-.15.15a5.54,5.54,0,0,1,.7,0l-.61-.51c0,1.44-.49,2.92-2.11,2.95.2.18-.16.35.84.52v-3.68c0-.9-2-.52-2,.21Z"/><path class="cls-9" d="M181.37,269.57c3.39,5.62,5.27,11.83,7.34,18a148,148,0,0,0,8.14,18.94c2.89,5.77,6.06,11.22,8.47,17.22,2.22,5.54,4.59,11,8.42,15.68.32.38,2.14-.28,1.82-.67-3.79-4.6-6.09-10.05-8.31-15.53-2.43-6-5.52-11.48-8.47-17.22a144.55,144.55,0,0,1-8.13-18.94c-2.13-6.17-4-12.37-7.35-18-.3-.5-2.11.22-1.93.51Z"/><path class="cls-9" d="M240.86,312.91c0,7.86,1.45,17.62-2.19,24.87-.17.32,1.65.18,1.9-.33,3.67-7.31,2.26-17.17,2.22-25.06,0-.35-1.93-.06-1.93.52Z"/><path class="cls-9" d="M181.7,270.37c-2.38,1.69-2.78,6.36-3.31,8.92-1.19,5.73-1.9,11.56-3,17.32-3,16.54-9.5,33.83-19.59,47.36-.73,1,1.1,1.19,1.6.52,9.92-13.29,15.4-29.18,19.27-45.14,1.1-4.54,1.72-9.17,2.48-13.77.53-3.26.8-12.26,3.79-14.38,1.07-.76-.52-1.36-1.27-.83Z"/><path class="cls-9" d="M130.72,313.31c-.39,7.58-1.61,15.85,1.5,23,3.36,7.78,12.58,9.42,20.11,9.75.41,0,2.21-.75,1.25-.79-8.82-.39-17.43-2.77-20.35-11.93-2.07-6.49-.92-13.92-.58-20.58,0-.29-1.9-.05-1.93.52Z"/><path class="cls-9" d="M214.81,341.88c7.5,2.19,21.73,1.63,26.46-5.66.54-.84-1.42-.76-1.83-.14-4,6.22-17,6.5-23.48,4.62-.73-.21-2.29.85-1.15,1.18Z"/><path class="cls-9" d="M217.36,343.65c-.51,1.63,1.22,4.11,1.9,5.49a65,65,0,0,1,4.06,10c3.08,10.15,6.21,20.21,10.08,30.08,1.86,4.75,3.46,9.61,5.27,14.38,1,2.72,2.34,5.94,5.24,7.21,4.21,1.84,7.91,0,10.55-3.46.45-.59-1.45-.35-1.77.06-7.59,10-12.32-4.84-14.12-9.81-2.56-7.09-5.43-14.07-7.81-21.23-2.32-7-4.4-14.1-6.55-21.17-.88-2.91-5.88-8.88-4.93-11.87.16-.51-1.74-.25-1.92.31Z"/><path class="cls-9" d="M253.81,407.13c-3.7-22.6-5.14-45.73-12.49-67.57-.31-.93-2.24-.4-1.93.52,7.35,21.84,8.79,45,12.49,67.57.15,1,2.09.46,1.93-.52Z"/><path class="cls-9" d="M219.89,348.27a28.4,28.4,0,0,0,8.3-1.65c1.32-.43.07-.61-.65-.38a21.81,21.81,0,0,1-6.38,1.29c-.38,0-2.19.76-1.27.74Z"/><path class="cls-9" d="M221.25,351.38c1.12,1,2.92.87,4.32.87,1.08,0,1.5-1.35.19-1.35-1,0-2.22.1-3-.6-.6-.54-2.31.35-1.49,1.08Z"/><path class="cls-9" d="M223.37,355.94a11.31,11.31,0,0,0,4.92-.87c.34-.16.76-.6.47-1a1.11,1.11,0,0,0-1.31-.13,9.07,9.07,0,0,1-3.9.59c-1.09,0-1.49,1.39-.18,1.39Z"/><path class="cls-9" d="M223.81,359.44a9.77,9.77,0,0,0,4.43-.89c.2-.1.84-.43.53-.74s-1-.14-1.27,0a6.12,6.12,0,0,1-2.92.58,1.68,1.68,0,0,0-1.28.51c-.27.37.23.53.51.53Z"/><path class="cls-9" d="M226.09,364.63a16.53,16.53,0,0,0,4.06-2.49.55.55,0,0,0-.25-.93,1.34,1.34,0,0,0-1.37.36,13.37,13.37,0,0,1-3.29,1.92c-.34.17-.75.6-.46,1a1.11,1.11,0,0,0,1.31.15Z"/><path class="cls-9" d="M247.3,409.32c2.91-.09,4.87-1.86,6.43-4.16.43-.64-1.48-.38-1.77.06-.91,1.33-2.08,3.13-3.86,3.18a1.86,1.86,0,0,0-1.29.49c-.29.34.26.44.49.43Z"/><path class="cls-9" d="M246.34,403.38a8.12,8.12,0,0,0,5.91-1.94c.32-.3-.29-.33-.46-.31a2.23,2.23,0,0,0-1.29.46,3.65,3.65,0,0,1-2.91,1,2.6,2.6,0,0,0-1.36.37c-.31.19-.27.42.11.42Z"/><path class="cls-9" d="M247.2,402.13a2.25,2.25,0,0,1,.82-1.28,15.73,15.73,0,0,1,2.48-2c.25-.17.6-.56.17-.76a1.56,1.56,0,0,0-1.37.18,19.09,19.09,0,0,0-2.83,2.24,3.28,3.28,0,0,0-1.2,1.84c-.06.79,1.88.41,1.93-.24Z"/><path class="cls-9" d="M245.35,398.07a12.66,12.66,0,0,0,3.24-2.44c.34-.34-.29-.48-.5-.48a1.82,1.82,0,0,0-1.28.5,10.31,10.31,0,0,1-2.63,2c-.24.12-.61.5-.2.67a1.84,1.84,0,0,0,1.37-.21Z"/><path class="cls-9" d="M136.38,332.68c-7.75,3.43-12.26,18-10.7,25.79.07.36.58.48.88.44,7-1,13.14-2.08,20.11-.16,3.7,1,7.41,1.82,11.23,1.06,9.31-1.85,5.19-15.05,4.3-21-.13-.88-2.07-.4-1.94.51.92,6.13,5.12,18.64-4.59,19.49-6.06.53-11.87-3-18-2.74a47.14,47.14,0,0,0-5.29.64c-1.93.29-4.85,1.81-5-.73a26.33,26.33,0,0,1,1-7.06c1.18-5,3.74-12.82,8.86-15.09,1.22-.53.13-1.55-.85-1.11Z"/><path class="cls-9" d="M131.69,359.19c1.91,11.38-1.4,22.61-3.87,33.63-.2.9,1.77.64,2-.17,2.51-11.15,5.79-22.47,3.86-34-.15-.84-2.08-.35-1.94.52Z"/><path class="cls-9" d="M155.57,360.5c-1,5.2-3,10.16-4.59,15.22a46.24,46.24,0,0,0-1.73,7.8,28.82,28.82,0,0,0-.36,6.7,8.56,8.56,0,0,0,2.52,4.52c2.82,3.19,4.48,6.1,3.27,10.53-1.83,6.72-10,9-15.81,11l1.32.05c-.5-2.92-1.34-5.74-1.84-8.65-.1-.61-1.64.05-1.85.28-6.57,7.19-13.12,14.58-21.52,19.68-5.52,3.36-12.78,5.16-18.58,1.48-4-2.5-5.07-7.76-4.55-12.08,2.6-21.4,37-4,40-25.46.09-.62-1.84-.25-1.92.3-1.19,8.66-7.71,10.76-15.65,11.17a48.39,48.39,0,0,0-14.45,2.83c-8.45,3.2-12.71,12.74-8.16,20.8,4,7.17,14.54,6.13,20.87,3.21,10.41-4.81,18.14-13.68,25.73-22l-1.85.29c.5,2.91,1.34,5.74,1.84,8.65.07.44,1.12.12,1.32.05,3.88-1.34,7.42-3.59,11.5-4.35,1.56-.29,2.26-2.06,3.11-3.21,3.57-4.87,3.78-9.86-.21-14.46a25.53,25.53,0,0,1-2.64-3.29c-.92-1.48.23-2.78,0-4.06a22.67,22.67,0,0,1,.79-9.4c1.48-6.06,4.17-11.78,5.35-17.92.11-.59-1.81-.26-1.92.3Z"/><path class="cls-9" d="M129.36,392.91c2,2.18,4.94,3.25,7.29,5,.35.26,2.17,0,1.87-.62a14.68,14.68,0,0,0-2.59-3.34c-.64-.67-1.31-1.31-2-2a1.49,1.49,0,0,1,.86-2.5c.87-.16,1.63-1.22.29-1a4.46,4.46,0,0,0-3.74,3.18.2.2,0,0,0,.06.23c1.72,1.93,3.91,3.58,5.14,5.9l1.86-.63c-2.35-1.75-5.27-2.82-7.29-5-.43-.46-2.26.24-1.8.72Z"/><path class="cls-9" d="M93.29,427.32c10.71,2.78,21.26-1.37,29.92-7.51,6-4.25,11.29-8.85,18.23-11.53,5.08-2,9.19-4.08,12.05-8.9.49-.81-1.46-.65-1.81-.07-2.91,4.9-7.32,6.69-12.41,8.64-4.47,1.73-8.39,4.54-12.19,7.4-9.55,7.18-20,14.14-32.62,10.87-.66-.17-2.28.81-1.17,1.1Z"/><path class="cls-9" d="M116.2,220.63a15.57,15.57,0,0,1,7.73-2.33c2.93-.28,7.72.42,3.36,3.56-.19.13-.55.47-.29.72a17,17,0,0,0,5.87,3.74,18.28,18.28,0,0,0,3.16,1,20.71,20.71,0,0,1-4,4c-.42.28-.5.72,0,.89,8.84,3-1.25,5.69,2.25,10.52,1.11,1.54,3.47,1.91,4.89,3.1,3.9,3.27-6.73,4.9-8.94,5.54-4.53,1.32-11.34,4.13-12.66-2.65a11,11,0,0,0-2.68-4.68c-2.11-2.52-2.64-3.84-2.92-7.29-.19-2.36-.16-4.73-.16-7.1,0-2.81-1.51-4.44-.06-7.42.43-.88-1.51-.71-1.82-.09a6.61,6.61,0,0,0-.48,5.28c.77,3.14.42,6.62.59,9.85.07,1.32,0,4.3,1,5.32,1.23,1.24,3,2.75,3.59,4.46.87,2.77,2.21,7,5.68,7.43,5.18.65,9.92-2.32,15-2.6a6.49,6.49,0,0,0,6.28-4.92c.71-2.52-4.29-3.85-5.55-5-2.76-2.55,3.2-5.48,1.67-8.4-.51-1-2-1.6-3-1.92s2.55-3.59,3.37-4.51c.27-.3.22-.64-.21-.75a24.85,24.85,0,0,1-7.14-2.86c-2.83-1.78-.85-1.57,0-3s.29-2.36-1.21-2.94c-4.27-1.63-11-.15-14.63,2.41-1.07.76.57,1.13,1.22.67Z"/><path class="cls-9" d="M104.77,216c-1.56.76-18.38,8.69-12.12,10.87,5.28,1.85,9.59-.44,14.1-3.11,3.45-2,6.59-4.18,10.53-5.12,6.93-1.66,14.11-1.81,20.28,2.18a1.34,1.34,0,0,0,1.66-.45c6.38-9-24.43-7.26-28.52-6.35-1.2.27-.86,1.46.32,1.19,4.88-1.08,10.34-.91,15.29-.75,2.88.09,14.86.41,11.08,5.76l1.67-.45c-10.21-6.6-22.87-3.31-32.49,2.57-2.7,1.65-6.21,4.26-9.56,3.93-3.81-.37-4.62-1.69-1.46-4s6.65-3.65,10-5.29c1.2-.58.12-1.47-.82-1Z"/><path class="cls-9" d="M125.05,256.42c-1,1.42-.27,4.11-.06,5.64a95.66,95.66,0,0,0,2.68,12.19c.86,3.12,2.78,13.09,7.31,13.44,7.77.61,1.52-35.52,1.45-38.31,0-.4-1.94-.08-1.93.51.18,8,1.67,16,2,24,.11,2.66.19,5.31.1,8-.06,1.44.11,5.85-1.88,3.91-3.68-3.57-4.75-10.53-5.95-15.25-.79-3.09-3.87-11.44-1.81-14.45.18-.27-1.58-.17-1.91.32Z"/><path class="cls-9" d="M123.18,211.52C123,199,119,186.8,117.59,174.36c-1.54-13.55-3.46-27.05-5-40.59s-2.21-27-3.12-40.47c-.94-13.93-1.8-27.89.48-41.73.06-.32-1.72.19-1.91.43-17,22.17-19.91,49-16.63,76,1.65,13.57,4.76,27,7.83,40.26,1.58,6.82,2.86,13.77,4.84,20.48,2.42,8.17,6,15.9,7.73,24.29.07.36,2-.09,1.93-.52-1.44-7.17-4.18-13.93-6.59-20.82s-3.65-13.91-5.27-20.91c-3.08-13.32-6.17-26.64-8.12-40.18-4-27.79-1.34-56,16.18-78.9l-1.92.43c-2.18,13.22-1.49,26.54-.61,39.85.9,13.5,1.55,27,3,40.43s3.41,27,5,40.57c1.55,13,5.59,25.95,5.81,39.1,0,.27,1.94,0,1.93-.51Z"/><path class="cls-9" d="M124.49,148H120.7c-.45,0-1.19.14-1.34.64-1,3.37-1,6.92-1,10.4,0,.81,1.93.39,1.93-.25,0-3.48-.07-7.07,1-10.43-.44.22-.89.64-1.34.64h3.79c.72,0,2.05-1,.75-1Z"/><path class="cls-9" d="M101.23,184.33a152,152,0,0,0-2.84,28.39c0,.25,1.93,0,1.93-.52a152.85,152.85,0,0,1,2.84-28.39c0-.13-1.82,0-1.93.52Z"/><path class="cls-9" d="M97.63,231.54c-5.65,16.3,5.77,35.24,24.07,28.14,1.24-.48.14-1.55-.86-1.16-17.16,6.66-26.26-12.62-21.36-26.75.37-1.07-1.56-1.06-1.85-.23Z"/><path class="cls-9" d="M121.25,163.77c3.89,10.93,10.87,20.46,15.21,31.23A98.43,98.43,0,0,1,144,231c0,.59,1.94.22,1.93-.51a99.23,99.23,0,0,0-6.89-34.4c-4.32-11.41-11.75-21.33-15.83-32.8-.23-.66-2.15-.1-1.93.52Z"/><path class="cls-9" d="M132.62,195.85c-1.12,5-.77,10.17-1.89,15.15-.1.45,1.8.15,1.91-.34,1.12-5,.77-10.16,1.89-15.14.1-.46-1.8-.16-1.91.33Z"/><path class="cls-9" d="M153.55,318.06c-6.64.42-9.15-6.24-14.68-8.48-2.43-1-5.41-1.08-8-1.75-1.87-.5-7.73-3-7.73-5.28a.53.53,0,0,0-.41-.54c-1.4-.52-7.15-.61-7.11-2.13a47.13,47.13,0,0,1,1.81-10.05c1.49-5.9,3.25-11.58,2.86-17.74,0-.82-2-.37-1.93.52.63,10-4.45,19.22-4.74,29.16a.59.59,0,0,0,.63.59c1.23,0,6.94-.38,6.94,1.31,0,.95,2,1.89,2.65,2.39a20.93,20.93,0,0,0,9,3.73c2.63.52,5.09.87,7.34,2.41,1.71,1.16,3,2.88,4.54,4.22a11,11,0,0,0,8.56,3c1.06-.06,1.51-1.42.19-1.33Z"/><path class="cls-9" d="M143.1,231.68c-2.41,2.58-3.69,6.3-4.8,9.58-.18.53,1.72.27,1.91-.29,1.08-3.19,2.32-6.84,4.66-9.35.49-.52-1.41-.33-1.77.06Z"/><path class="cls-9" d="M203.8,226.48c7.64,5.45,18.45-8.68,22.37-13.55.74-.92-1.11-1-1.58-.42-3.33,4.14-13.2,17.3-19.27,13-.58-.42-2.34.42-1.52,1Z"/><path class="cls-9" d="M208.52,219c6.42-1.31,11.3-6.1,16.55-9.68,1.09-.74-.51-1.37-1.27-.85-5,3.37-9.59,8-15.63,9.25-1.21.25-.84,1.53.35,1.28Z"/><path class="cls-9" d="M146.81,223.39c.13,1.06,1.18,1.54,2.08,1.86,1.92.69,3.93,1.08,5.69,2.17l.37-1a15.32,15.32,0,0,0-4.77,3.1c-.85.75-2.24,1.94-2.43,3.14-.13.84,1.82.53,1.94-.21.15-1,1.39-1.9,2.06-2.53a12.17,12.17,0,0,1,4-2.58c.37-.14.86-.65.36-1a16.33,16.33,0,0,0-3.88-1.62c-1-.32-3.32-.59-3.48-1.93-.09-.73-2-.28-1.93.52Z"/></svg>