<svg id="layer1" xmlns="http://www.w3.org/2000/svg" viewBox="0 0 308.55 297.38"><defs><style>.cls-1{fill:#c1bcd8;}.cls-2{fill:#21acf9;}.cls-3{fill:#492d0c;}.cls-4{fill:#e8accf;}.cls-5{fill:#c928c9;}</style></defs><path class="cls-1" d="M162.8,153.21a17.76,17.76,0,0,0,1,5.86,3.64,3.64,0,0,0,.22.49c0,5.33,6.94,9.69,11.48,9.78,9.09.17,22.36-7.3,23.77-17,3.64-5.24,5.84-12.11,7.63-17.35a43.17,43.17,0,0,1,6.14-12.15,56.61,56.61,0,0,0,5.25-7.77,81.22,81.22,0,0,0,3.77-8.62c1.73-1.93,3.4-3.9,5.08-5.84,3.63-4.2,7.45-8.55,10.33-13.37a3.79,3.79,0,0,0,1.75-1.52,33.39,33.39,0,0,0,5-13.07,3.88,3.88,0,0,0,0-.48,25.89,25.89,0,0,0,1.42-3.12,3.57,3.57,0,0,0,.61-2c1.08-4.15,1.86-8.48.38-12.63,0-.09-.08-.17-.12-.26-.09-.46-.2-.93-.34-1.4l-.06-.14a25.86,25.86,0,0,0-2.72-12.72c-1.86-3.61-3.94-8.9-7.53-11.52a17.06,17.06,0,0,0-17.85-6.92,17.16,17.16,0,0,0-5.33.94,30.1,30.1,0,0,0-11.08,7,36.13,36.13,0,0,0-10.13,11.87,3,3,0,0,0-.29.77l-.1.07a4.43,4.43,0,0,0-1.54,3.43A8.78,8.78,0,0,0,188.5,47a10,10,0,0,0-3,3.77,3.13,3.13,0,0,0-.4.6,4.71,4.71,0,0,0-.47,1.28c0,.27-.28,1.05.1.08a3.62,3.62,0,0,0,1.13,4.57,110.88,110.88,0,0,0-4,25,28.91,28.91,0,0,0-1.15,9.07,3.54,3.54,0,0,0,1.1,2.41c-1.06,3.91-2.08,7.84-3.49,11.63a136.12,136.12,0,0,1-6.37,13.5A79.39,79.39,0,0,0,165.54,135c-.18.73-.41,1.57-.65,2.48a47.53,47.53,0,0,0-1.75,7.74A27.72,27.72,0,0,0,162.8,153.21Zm24.82-14.15c-.32.6-.64,1.19-1,1.78.46-1.13,1-2.23,1.46-3.32l.1.12C188,138.12,187.82,138.59,187.62,139.06Zm38.43-47.62c.1-.39.19-.77.25-1.16,1.16-6.46-1.65-15.74-5.45-20.94a4.05,4.05,0,0,0-1.2-1.08c-.16-.91-.32-1.83-.45-2.76-.52-3.78-1.5-7.33-5-9.37L214,56a5.07,5.07,0,0,0-1.06-.66,3.35,3.35,0,0,0-2.52-1,2.8,2.8,0,0,0-3.56-.92c-.29.11-.56.25-.83.38h0l0,0a14.8,14.8,0,0,0-3.87,2.88,107.81,107.81,0,0,0-9.29,7.13c1.94-5.26,4.87-9.91,7-15.09,0-.06,0-.12,0-.18l.27-.09a8.24,8.24,0,0,0,1.45-.74,3.64,3.64,0,0,0,2-.33A20.33,20.33,0,0,0,207,45.28a2.87,2.87,0,0,0,2.31-.5c1.77-1.32,3.84-3.13,6-3.65a2.56,2.56,0,0,1,1.57,0c2.06,4.76,4.54,10.63,4.88,11.23,4.31,7.63,9.64,15,11.92,23.59-.14,1-.27,2.07-.35,3.11,0,.12,0,.25,0,.37s0,0,0,0,0,0,0,.06c-.07.34-.13.68-.19,1A43.26,43.26,0,0,1,226.05,91.44Z"/><path class="cls-2" d="M231.83,87.83a54.39,54.39,0,0,0,.32-11.27c0-.52-.17-1-.16-1.55,0,0-.33,0-.33,0v0c0-.15-.11-.18-.49-.13-.12-5.61-2.95-11-6.58-15.38a48.47,48.47,0,0,1-3.36-6.18c0-.1-.14-.15-.3-.17-1.11-4-2.54-7.82-5.47-10.74a3.79,3.79,0,0,0-1.75-2.94,1,1,0,0,0-.48-.09,2.21,2.21,0,0,0-1.61.28c-1.43,1.24-2.78,2.56-4.12,3.88a8,8,0,0,0-1.6,1.28c-.47.23-.93.47-1.38.74h0a37.32,37.32,0,0,0-3.77,2.09,1.6,1.6,0,0,0-1,.12c-.85.49-1.69,1-2.52,1.51l-3.21,1.93c.15-.14.3-.28.46-.41.83-.72-1-.71-1.38-.43l-1.25.83c-.34.23-.41.41-.32.54a54.45,54.45,0,0,0-5.5,6,25.63,25.63,0,0,0-2.84,2.13,4.22,4.22,0,0,0-1.63,2.87,7.25,7.25,0,0,0-.45.78A8.39,8.39,0,0,0,180,65a7.31,7.31,0,0,0-.52.59c-3.6,1.87-3.78,9.26-4,12.41-.13,1.53-.2,3.1-.22,4.66,0,.08,0,.17-.06.24a.32.32,0,0,0,0,.27,43.7,43.7,0,0,0,.3,5.26A41.1,41.1,0,0,0,177.08,95c.1.46.21.92.32,1.39.08,1.27.19,2.53.33,3.8a.36.36,0,0,0-.09.22,26.79,26.79,0,0,0,1.9,10.46c.32,1.42.65,2.85,1,4.27.16.63,1.9.2,1.93-.38a28.25,28.25,0,0,0-.41-6c0-5.69.18-12.37-3-17.16a.63.63,0,0,0-.54-.21,51.24,51.24,0,0,1-1.07-9.17,20.46,20.46,0,0,0,3.21-6.86c.52-1.18,1-2.38,1.41-3.6a23.05,23.05,0,0,0,5.4-4.82,55.18,55.18,0,0,0,4.32-4.06,26.57,26.57,0,0,0,8.32-6.71,12.73,12.73,0,0,0,4.73-3.87,1.59,1.59,0,0,0,.45,0,4.37,4.37,0,0,0,1.53-.43,6.1,6.1,0,0,0,2.69-.93,4.64,4.64,0,0,0,.23,1.21c.19.48,1.45-.06,1.71-.22a4,4,0,0,0,.55-.4c.1.09.19.19.3.28a.58.58,0,0,0,.21.08c1.06,1.44,2.13,2.88,3.07,4.43.13.2.61.19,1.06.08,1.07,2.87,2.51,5.59,3.77,8.42,1.68,3.77,1.79,7.94,3.93,11.52a.49.49,0,0,0,.38.17,30.18,30.18,0,0,0,2.1,11.69,24.59,24.59,0,0,0-1.51,7.5.3.3,0,0,0-.12.16,19.82,19.82,0,0,1-1,2.77c-.45.68-.89,1.36-1.32,2-.34.26-.66.54-1,.82-2.66.55-5.12,3-7,5.6a31,31,0,0,0-2.45,2.12,12.67,12.67,0,0,0-4.62,4.4,6.65,6.65,0,0,0-3.23,4,12,12,0,0,0-3.2,6.15c-.12.48,1.13.14,1.29.08a7.63,7.63,0,0,0,2.35-1.53,6.82,6.82,0,0,0,.79-.3c2.7-1.24,5.41-3.87,7.65-6.75a38.24,38.24,0,0,0,9.52-9.15,22.68,22.68,0,0,0,3.14-4.7c.46-.09.92-.29,1-.51.07-.54.16-1.07.26-1.6a2.72,2.72,0,0,0,.91-.38l.19-.21c.17-.09.29-.2.31-.31s0,0,0-.08c2.31-3,2.23-6.8,3.32-10.35C232.16,87.92,232,87.85,231.83,87.83Zm-2.57-5-.06-.23c-.11-.94-.18-1.88-.21-2.83a.51.51,0,0,0,.46.14C229.41,80.86,229.34,81.83,229.26,82.8ZM185.61,66.57l.19,0-.06.13c-.16.14-.32.26-.48.39C185.38,66.9,185.5,66.74,185.61,66.57Zm22.33-16.75a7.48,7.48,0,0,1,.25-1c.17-.51.38-1.1.63-1.71l.24-.22.62.7,0,.22A19.92,19.92,0,0,1,207.94,49.82Zm.22,68.64.21-.07.12-.06-.57.47Zm1.13-1.48.11-.19.3-.4a12.75,12.75,0,0,0,1.68-1.33l.33-.1-.88,1.06C210.32,116.35,209.8,116.68,209.29,117Zm-19-62.2a.1.1,0,0,1-.05,0l.05,0Zm2.78-2.73-.21.15L193,52Z"/><path class="cls-3" d="M216.47,19.77c-7.78-.13-15.75,6.06-20.93,11.33-6.82,6.94-10.81,16.43-12.21,25.95-.14,1,1.83.71,2-.15a48,48,0,0,1,8.93-21.79c4.41-6,13.56-14.09,21.58-13.95.92,0,2-1.37.67-1.39Z"/><path class="cls-3" d="M218.33,20.06c12.43.19,19.53,8.36,24.72,18.92,5.46,11.12,5,23.71,1,35.18-4,11.63-12.11,21.66-19.33,31.46-6.56,8.9-13,17.89-17.81,27.86s-6.77,21.48-15.78,28.93c-10.31,8.52-25.49,6.89-29.23-7-2.31-8.63,2-18.29,5.54-26s8.08-15.32,10.26-23.65c.16-.61-1.76-.32-1.92.28-2.63,10-8.44,19-12.4,28.56-3.33,8-6.43,18.67-1.22,26.61s14.48,9.24,23,6c10-3.76,15.37-13.15,19.06-22.53a159.21,159.21,0,0,1,20.32-36.41c8-10.9,16.59-21.62,21.42-34.37,7.56-19.94-.09-53.36-25.42-54.78l-1.43,0c-.66,0-2.09,1-.78,1Z"/><path class="cls-3" d="M181.71,89c.62-4.5,1.67-8.93,1.13-13.5-.06-.45-2,0-1.93.52.53,4.49-.5,8.87-1.12,13.3-.07.56,1.85.19,1.92-.32Z"/><path class="cls-3" d="M211.77,37.93c-6.63,8.17-15.63,11.71-24.31,17.14-8.07,5-11.52,12.37-13.19,21.55-1.52,8.35.11,16.52,1.48,24.75.7,4.26,1.38,14.11,6.12,16.11.34.15,1.65-.1,1.75-.55,2.8-13.86-9.18-27.2-2.31-40.4,3.07-5.89,9-10.19,14.05-14.24,2.41-1.94,4.63-4,6.93-6.1,6.59-5.9,11.51-2.5,14.09,3.69,2.32,5.54,4.29,11.35,6.38,17,2.69,7.28,3.93,14.5,0,21.52-5.74,10.15-19,12.87-22.1,25-.05.21.19.23.34.24l1.81.24c.44.06,2.23-.7,1.24-.82-3.48-.46,2.82-8.32,3.54-9.11,2.56-2.82,5.79-5,8.79-7.32,4.93-3.81,9.24-8.27,10.74-14.51,1.79-7.51-2.38-16-5.12-22.78-2.28-5.62-3.33-13.84-9.19-16.92-3.67-1.94-8.35.64-11.13,3-5.8,4.85-11.94,9.69-17.29,15-5,5-8.06,11.21-7.15,18.33,1.27,9.94,6.61,18.16,4.52,28.5l1.74-.55c-4.57-1.93-5.26-12.77-5.94-16.88-1.41-8.53-2.6-16.54-1-25.2,2-10.73,7.78-17,17.11-22.18,7.63-4.21,14.34-7.75,19.93-14.64.42-.51-1.45-.25-1.75.12Z"/><path class="cls-3" d="M213.5,38.36c2.08,3,3.17,6.42,4.55,9.8,1.66,4,4.57,7.71,6.71,11.53,4.15,7.41,7.23,15.4,7.53,24,.67,18.76-16.53,30-29.26,40.57-.45.37,1.39.2,1.76-.11,12.05-10,28.12-20.34,29.3-37.65.63-9.24-2.39-17.66-6.57-25.76-2.08-4-4.7-7.71-6.88-11.66-2-3.65-2.82-7.71-5.21-11.2-.35-.5-2.12.25-1.93.52Z"/><path class="cls-4" d="M121.79,235.49a48.42,48.42,0,0,0-2-7.69c-.27-.9-.52-1.74-.72-2.46a79.57,79.57,0,0,0-6.8-16,136.18,136.18,0,0,1-6.73-13.32c-1.51-3.75-2.62-7.66-3.79-11.54a3.52,3.52,0,0,0,1-2.43,28.45,28.45,0,0,0-1.39-9.05,110.41,110.41,0,0,0-4.69-24.84,3.61,3.61,0,0,0,1-4.59c.41,1,.15.18.1-.08a4.48,4.48,0,0,0-.5-1.27,3.22,3.22,0,0,0-.42-.6A10,10,0,0,0,93.85,138a7.82,7.82,0,0,0-1.14-1.41,4.44,4.44,0,0,0-1.62-3.39l-.1-.07a3.52,3.52,0,0,0-.32-.76,36,36,0,0,0-10.44-11.6A29.92,29.92,0,0,0,69,114a16.77,16.77,0,0,0-5.35-.79,17,17,0,0,0-8.66.49,17.28,17.28,0,0,0-9,6.89c-3.52,2.71-5.46,8.06-7.22,11.71a26,26,0,0,0-2.39,12.79.88.88,0,0,0-.05.15c-.13.47-.23.94-.31,1.4,0,.09-.08.17-.11.26-1.37,4.19-.48,8.5.71,12.62a3.58,3.58,0,0,0,.66,1.95,25.25,25.25,0,0,0,1.51,3.09,3.88,3.88,0,0,0,0,.48A33.45,33.45,0,0,0,44.16,178,3.69,3.69,0,0,0,46,179.47c3,4.74,6.94,9,10.68,13.09,1.73,1.9,3.45,3.83,5.23,5.71a81.41,81.41,0,0,0,4,8.52,56.55,56.55,0,0,0,5.44,7.63,42.86,42.86,0,0,1,6.46,12c1.93,5.19,4.31,12,8.08,17.14,1.67,9.67,15.13,16.78,24.22,16.37,4.54-.21,11.4-4.75,11.21-10.07a4.4,4.4,0,0,0,.21-.5,17.7,17.7,0,0,0,.86-5.89A28,28,0,0,0,121.79,235.49Zm-25.26-6.93.1-.12c.52,1.07,1.05,2.16,1.54,3.27l-1-1.75C96.94,229.5,96.74,229,96.53,228.56ZM50.06,172.72l-.21-1v-.06a.43.43,0,0,0,0-.05,2.58,2.58,0,0,0,0-.38c-.11-1-.27-2.06-.43-3.09,2.05-8.61,7.18-16.16,11.3-23.89.32-.61,2.64-6.55,4.58-11.36a2.68,2.68,0,0,1,1.57-.09c2.21.47,4.33,2.22,6.13,3.5a2.88,2.88,0,0,0,2.32.44,21.09,21.09,0,0,0,3.52,2.06,3.65,3.65,0,0,0,2,.28,8.27,8.27,0,0,0,1.47.7,2.67,2.67,0,0,0,.26.09,1.27,1.27,0,0,1,.06.18c2.26,5.12,5.31,9.69,7.39,14.9a105.52,105.52,0,0,0-9.48-6.88,14.32,14.32,0,0,0-3.94-2.78l0,0h0a7.7,7.7,0,0,0-.83-.36,2.79,2.79,0,0,0-3.54,1,3.31,3.31,0,0,0-2.49,1,5.38,5.38,0,0,0-1.05.68l-.21.11c-3.41,2.13-4.29,5.7-4.72,9.5-.1.93-.23,1.85-.37,2.77a4.08,4.08,0,0,0-1.17,1.11c-3.66,5.29-6.23,14.65-4.9,21.07.08.39.18.78.28,1.16A43.51,43.51,0,0,1,50.06,172.72Z"/><path class="cls-5" d="M107.39,172.22s0,0,0,0a.58.58,0,0,0,0-.19c0-.69-.11-1.37-.21-2.05a.51.51,0,0,0,.19-.64c-.9-2.31-1.39-4.73-2.21-7-1.13-4.86-3.34-9.58-7.77-11.51a11.1,11.1,0,0,0-1.24-.63.43.43,0,0,0-.12-.23c-4.84-5.1-10.84-9.36-17.74-11.05A66,66,0,0,0,71,133.33a4.43,4.43,0,0,0-1.19-2.58,1.2,1.2,0,0,0-1.81.31c-.11.26-.19.53-.28.8-1,.53-1.49,2.12-1.76,3.92-1.45,1.84-2,4.68-2.37,7a15,15,0,0,0-2.94,3.93A12.16,12.16,0,0,0,58,151.18a15.89,15.89,0,0,0-3.35,6.29,52.37,52.37,0,0,0-1.82,6c-.32,1.14-.58,2.26-.79,3.37l-.17.27c-.3.13-.56.32-.6.52a23.47,23.47,0,0,0-.42,4.54,32.86,32.86,0,0,0,.84,9.87.54.54,0,0,0,.32.34,18.34,18.34,0,0,0,.57,2.71,19.73,19.73,0,0,0,1.18,3.36c-.32.17-.52.43-.33.73,1,1.47,2,2.91,3,4.34,1.5,2.7,3.45,5.24,4.92,7.76.15.26.65.24,1.09.11l.58.72c.2.26.73.24,1.18.08.16.25.32.51.49.75a.56.56,0,0,0,.47.21c.85,1,1.73,2,2.65,2.9A13.09,13.09,0,0,0,71,208.76l.28.19a17.86,17.86,0,0,0,5.65,4.5,1.43,1.43,0,0,0,.7,0A15.68,15.68,0,0,0,78.83,215a1,1,0,0,0,.83.16c.69.08,1.79-.44,1.38-.94-.12-.14-.23-.29-.34-.43a.34.34,0,0,0,0-.28,37.65,37.65,0,0,1-2.08-5c-.16-.47-1-.41-1.49-.11l-.25-.44c-.13-.22-.5-.26-.88-.18l-.76-.67a.3.3,0,0,0,0-.4,35.62,35.62,0,0,0-2.7-2.44l-.39-.43a20.11,20.11,0,0,0-3.41-3.3,37.5,37.5,0,0,0-4.06-3.1,1.19,1.19,0,0,0-.66,0c-.18-.3-.36-.58-.52-.82l-.06-.11c-1.84-3.72-3.66-7.45-6.69-10.33a.34.34,0,0,1,0-.1.46.46,0,0,0,.19-.32c.15-4.3,1.49-9.06.92-13.43,3.41-7.95,5.46-16.34,8.16-24.53a28.07,28.07,0,0,1,7.57-3.7c2.41,1.07,4.7,2.5,7.28,3.21a1,1,0,0,0,.43,0A64.56,64.56,0,0,0,90.62,155c.5.37,1,.71,1.56,1a.49.49,0,0,0,0,.65,31.7,31.7,0,0,0,5.92,5.83,14.16,14.16,0,0,0,3.51,4.3,39,39,0,0,0,2.25,3.63.76.76,0,0,0,.51.28c0,.19,0,.38,0,.57a.57.57,0,0,0-.22.47c0,1.4.19,2.83.35,4.27-.21,3.67-.77,7.29-.8,11-.07.47-.13,1-.2,1.43-.27,1.16-.51,2.32-.7,3.5-.17.78-.32,1.55-.45,2.34a.71.71,0,0,0-.23.26c-1.91,3.7-1.35,8.26-1.31,12.28,0,.94,1.6.77,1.89.06a.8.8,0,0,0,.49-.62c0-.67.09-1.34.14-2a.63.63,0,0,0,.27-.49l0-.34a.9.9,0,0,0,.39-.5,68.55,68.55,0,0,0,2.46-16.6,17.23,17.23,0,0,0,.35-2.36.8.8,0,0,0,.53-.64C107.55,179.55,108.51,175.84,107.39,172.22ZM68.62,141.35l0,0-.08,0Zm2-.49h0l.06-.2.28.09.29.27a3.15,3.15,0,0,0-.44,0A.91.91,0,0,1,70.64,140.86ZM68.33,202.6a1,1,0,0,0-.32.22l-.43-.26c-.29-.45-.56-.9-.82-1.35l.34.27C67.52,201.85,67.93,202.22,68.33,202.6Zm2.18-59.2a2.61,2.61,0,0,0,.28-.17l.52.14c-.36.14-.71.27-1.06.43A3.94,3.94,0,0,0,70.51,143.4Z"/><path class="cls-3" d="M65.6,113.65c8.32-.3,17.33,7.73,22.21,13.64a46.16,46.16,0,0,1,9.45,21.8c.15.88,2.08.39,1.93-.52a48.08,48.08,0,0,0-12.61-25.51c-4.89-5.14-13.37-11.08-20.8-10.81-1.09,0-1.49,1.45-.18,1.4Z"/><path class="cls-3" d="M63.49,111.61c-23.83.83-33.36,29.11-28.61,49.33C38,174.23,46.87,185.39,55,196c8.59,11.24,17.64,22.56,22.89,35.83,4.09,10.34,8.21,20.7,18.67,26.1,7.32,3.78,16.26,3.8,22.71-1.72,16-13.73-4-40.07-9.79-53.86a43,43,0,0,1-1.74-5c-.17-.6-2.1-.07-1.93.52,4.53,16,19.2,30.7,17,48.23-1.71,13.48-16.65,16.64-26.73,9.68C86.83,249.37,83.26,240,79.27,230c-8.46-21.36-27-36.78-37.59-56.86C35.94,162.27,33.83,150,36.85,138c3.19-12.67,12-24.94,25.85-25.42.65,0,2.08-1,.79-1Z"/><path class="cls-3" d="M103.38,180.66c-.7-4.41-1.85-8.77-1.4-13.27.06-.58-1.86-.19-1.91.31-.46,4.58.66,9,1.38,13.48.07.47,2,0,1.93-.52Z"/><path class="cls-3" d="M68.61,130.62c5.92,7,13.18,10.51,21.16,14.7,8.61,4.53,13.62,10.34,16.22,19.78,2.4,8.71,1.19,17.13,0,25.88-.54,4.07-1,15.77-5.53,17.78l1.53-.11c-2.12-9.52,1.91-17.86,3.7-27,1.37-7.05-1.22-13-5.83-18.27C95,157.85,88.53,153.91,83.09,149c-4.14-3.73-8.76-6.39-14-3.48-4.7,2.6-5.58,9.6-7.22,14.16-2.8,7.82-6.63,15.66-5.91,24.17,1.26,14.92,21.49,18,25.37,31.8l1.13-.64-1.81.27c-.8.12-1.7,1-.34.77l1.81-.27c.2,0,1.24-.27,1.14-.65-3.31-11.81-16.16-15.06-22.59-24.57-4.18-6.2-3-13.31-1-20.06C61.57,164.29,64,158.12,66.2,152c1.87-5.31,6.4-8.28,11.74-4.91,2.66,1.68,4.77,4.12,7.22,6.06,5.41,4.3,11.1,8.23,15.27,13.83,9.58,12.86-3.51,28-.35,42.23.09.44,1.32,0,1.52-.11,4.46-2,5-10.2,5.7-14.28,1.43-8.36,2.75-16.77,1.63-25.24-1.3-9.82-5.36-17.5-13.73-22.83-8.79-5.6-17.84-8.55-24.77-16.77-.32-.38-2.15.29-1.82.68Z"/><path class="cls-3" d="M66.75,130.71c-2.3,3.5-3.31,7.5-5,11.3-1.8,4.06-4.61,7.82-6.66,11.79-3.89,7.58-6.52,15.74-6.22,24.32.63,18.06,17.55,28.6,30.14,38.61.44.35,2.15-.41,1.81-.68-13.09-10.4-28.41-20.17-30-38.45-.79-9,3-17.87,7-25.67,1.8-3.5,4-6.77,5.86-10.24,1.95-3.69,2.66-7.77,5-11.3.18-.27-1.58-.16-1.91.32Z"/></svg>