<svg id="layer1" xmlns="http://www.w3.org/2000/svg" viewBox="0 0 197.56 220.99"><defs><style>.cls-1{fill:#ffb43b;}.cls-2{fill:#d36d29;}.cls-3{fill:#ff8c3e;}.cls-4{fill:#ffc776;}.cls-5{fill:#382006;}</style></defs><path class="cls-1" d="M138.41,129.5c-.42-.94-.17-1.63-1.2-2,1-1.58.81-3.21-1.37-3.64h0c.73-.9-.26-5.56-.94-5.82,1.79-1.67.43-2.18-.09-3.93-.26-2.44,1.41-3.77,1-5.87,1.49.18,2.56-.6,2.39-2.22,2.18.43,2-1.2,3.42-1.85.73-.89,1.76-.51,2.61-1.75l-.08-.81.25-.69c1.59,1,2.44-.26,3.85-.9,0,0,.69.26.81-.08.48-.22,1.8-1.67,2.14-1.55a9.58,9.58,0,0,1,2.91-.47c-.81.09,3.43-1.84,2.7-.94.73-.9.9-2.4,1.5-3,1.19-1.12,2,0,2.56-.61.94-.42,1.11-1.92,2.06-2.35,1.67-1.33,4.66-1,6.41-1.5-.34-.13,1.93-2,1.8-1.67.38-1,1.41-.64,1.24-2.27,2.18.43,2.61-1.75,3.81-2.87l.25-.68c.6-.56,1.16,0,1.54-1h0l1,.39a7,7,0,0,0,.68-2.87h0a2.06,2.06,0,0,0,1.5-2.95h0a2.88,2.88,0,0,0,1.07-3.9c-1.33-1.67-2.87-.68-4.62-.17-.77-1.07-2.14-1.58-3.13,0-1.11-1.19-5.69-2.52-6.12-.34l-.21-.47a2.76,2.76,0,0,0-3.6.22c-1.24-.86-2.52-.55-2.69.94-2.14-1.58-3.38.69-5-1.11-.26.69-.86,1.24-1.24,2.27a17.43,17.43,0,0,1-4-1.88,14.42,14.42,0,0,0-1,1.58c-.94.43-2.31-.08-2.95,1.63-2.61-1.37-5.3-.42-7.53.31l.13-.35-2.4-.89c-.12.34-.25.68-.51,1.37-.9-.73-2.27-1.25-3-.35a3.84,3.84,0,0,1-2.31-.08c.13-.34-.21-.47-.08-.81-1.37-.52-2.36,1.07-3.72.56s-.26-2.44-2.7-2.19c.77-2-4.28-3.16-1.29-5.94-2.48-1.71.81-3.21-1.67-4.92,2.35-1.07.08-2.31-.56-3.73l-.43-.94c-.21-.47-.17-1.62-.73-2.22,1.89-.86,2.53-2.57.39-4.15h0c.73-.9.42-5.31-.69-6.51.51-1.37.72-7.14-.52-8,2.44-.26.9-2.4-.09-3.93-1.54-2.14-.94-2.7-1.67-4.93,2.14-1.54-4.84-10-6.16-5.43.68.26.13-.34.6-.55l-.73.89a22.14,22.14,0,0,1-2.18-.42,4.79,4.79,0,0,0,.38,2.1c-1.45,1.79-5.3,2.69-2.39,5.35-1.07.77-1.84,2.82-2.22,3.85-.86,1.24-2.27,1.88-.94,3.55-2.36,1.07-3.72,6.81-2.65,9.16-2.83,1.28-.64,8-4.58,8.05l-.12.34c2.22,2.39-1.11,5-1.07,7l.13-.35A2.37,2.37,0,0,0,94,61.36c-.25.68.65,1.41.52,1.75-.39,1-1.45,1.8-1.15,3.08l-1.71-.64c.25,2.44-2.4,2.23-4,2.4-1.5-.17-4.79,1.33-6.46-.47-.26.69-1.2,1.12-1.45,1.8-1.29-2.82-2.06-.77-3.68-.6-.82.09-2.83-1.83-3.51-2.09-.47.21-1-.39-1.72-.64s-1.54,1-2.22.73c-1.5-.17-2.23-2.4-3.68-.6-.09-.81-1-1.54-1.2-2-.13.34-.94.43-1.2,1.11-.6-2.57-2.61-1.37-3.72-2.56L58,62.7c-.55-.6-1.58-1-2.14-1.58-.12.34-.59.56-.72.9-1.07-2.35-4.75.17-5.35-2.39l-.35-.13c-1.58,2.14-8.34-2.74-7.83,2.14-.55-.6-1.84-.3-2.39-.9-.52,1.37-1.46,1.8-2.18,2.7l.13-.34-.39,1a5.26,5.26,0,0,0,.77,1.06c-.21-.47,0,2,0,2,.43.94-.17,1.5,1.55,2.14-1.12,1.93,2.74,4.15,4.45,4.79a1.53,1.53,0,0,0,1.67,1.8l-.26.68,1.37.52c-.64,1.71,3.47,3.25,5.1,3.07.55.6.77,1.07,1.32,1.67-.38,1,.05,2,1.46,1.33-.64,1.71,2.65,3.34,4.15,3.51h0c-.64,1.71.39,2.09,1.8,1.45-.47.21-.38,1-.86,1.24,1,.38,1.59,1,2.27,1.24l-.12.34,1,.39a2,2,0,0,0,3,2.31c-.64,1.71,1,1.54,1.76,2.61.43.94-1.24,2.26,1.28,2.82-.47.21-.51,1.37-.64,1.71.34.13,1.11,1.2,1.46,1.33a1.85,1.85,0,0,1-.73.9c.34.13.9.72,1.24.85-.13.34-.38,1-.85,1.24,1.24.86,1.2,2,.34,3.26h0c.56.59,1.89,2.26.52,1.75l0,1.16c.18,1.62-2.26,1.88-.47,3.33-1.06.77-3.46,3-2.35,4.2-1.75.51-1.84,2.82-2.69,4.06-.51,1.37-2.18,2.7-2.14,4.67-1.5-.17-4.53,3.77-3.76,4.84-1.2,1.11-.9,2.39-1.41,3.77a13.15,13.15,0,0,1-2.78,3.25c-1.45,1.8-1.33,1.45-1.75,3.64a5.19,5.19,0,0,1-1.76,3.64c2,1.92-2.05,5.47,0,7.4.12-.34.25-.69.38-1l.77,1.07a1.7,1.7,0,0,0,1.33,1.67c.77-2.06,2.31.08,3.55-2.19a5.09,5.09,0,0,0,1.63-.17c1.58,1,1.75-.51,2.69-.94,1.07-.77,1.92-2,3-2.78,1.41-.65,3,.34,3.56-2.19.55.6,1.36.51,2,.77-.09-.81.51-1.37.55-2.53,1.5.18,1.63-.17,2.7-.94.94-.43,2,.77,2.48-1.41,2.4.9,1.54-1,2.61-1.76.73-.9,2.35-1.07,2.74-2.09a15.32,15.32,0,0,1,1.84.29c.3-1.84,1.92-2,3.34-2.65a13.43,13.43,0,0,0,3.12-3.13c2,.77,2.35-1.07,3.42-1.84.47-.21,3.12,0,3.25-.34a6.43,6.43,0,0,1,3.38-.69c1.16,0,1,.39,1.84.3l-.34-.13c.3,1.29,2.14,1.58,3.47.13,0,2,3.46,3.25,5,3.42-.64,1.71,3.77,4.53,5.61,4.83h0l-.51,1.37,2.74,1c-.52,1.37,0,2,1.32,1.66h0a1.89,1.89,0,0,0,2,1.93,2.45,2.45,0,0,0,2.35,2.05c-1.24,2.27,2.79,6.12,3.81,3.38l.09.81c.55.6.51,1.76,1.07,2.36.21.47,1.24.85,1.45,1.32,2.23,2.4,4.63,3.29,6.77,4.88,1.45,1.32,6.59,6.37,8.05,4.57.85,1.88,2.61,1.37,3-.81l1.37.51a1.63,1.63,0,0,0,.09-2.31l.94-.43c-.47.21.25-.69.64-1.71-.47.21-1-.39-1.37-.51,1.88-.86.9-2.4-.69-3.38h0c.47-.22.73-.9,1.2-1.12-1-1.54-.13-5.9-2.66-6.46.6-.55.52-1.37.77-2-2.52-.56-.34-3.25-3.34-3.6,1-1.58-.51-1.75-.81-3-.22-.47,1.07-.77,1-1.59-.43-.94-1.37-.51-1.58-1s-.17-1.63-.73-2.22c-.21-.47-1.58-1-1.8-1.46-.77-1.07,0-2-1.28-2.82Z"/><path class="cls-2" d="M89.23,133.49c1.13-1.13,3.34-4.42,5.27-3.66a1.31,1.31,0,0,0,1.9-.74l.8-.11a1.28,1.28,0,0,0,1.47-1.4l.21-1.21-2.84,0c.76.79,1.52,1.48,2.34,2.22a1.43,1.43,0,0,0,2.39-.45l.36-1-1.41.89a5.83,5.83,0,0,1,2.52.6c2,.74,2.37-1.68,1.43-3l-1.45-2-1.91,2.71a19.83,19.83,0,0,0,3.13,2c0-1.41,0-2.82.08-4.23l-6.42-2.4a1.3,1.3,0,0,0-1.89.74l-.12.32c-.42,1.1.47,2.58,1.33,3.2s1.53,1.1,2.33,1.6c.18-1.31.37-2.62.56-3.94-2-.65-3.58-1.74-5.63-2.07-2.21-.36-1.39,2.8-.53,3.68a10.45,10.45,0,0,0,3.92,2.55l-.42-4.39a6.24,6.24,0,0,0-4.93,1.2c-1.78,1.19.43,4.7,2.26,4.39l.61,0c2.46.69,1.16-3.78-.41-4.38-1.9-.74-3-.81-4.55.65s.25,4.88,2.26,4.38a4.74,4.74,0,0,0,2.18-1c1.86-1.31-.67-5.15-2.67-4.22-2.85,1.33-4.69,3.53-6.49,6.05l3.51,3.18c2.33-7.48,11.29-6.63,17.27-4.53,2.89,1,2-3.49.07-4.23L100,122.87c-2.86-1.06-2.06,3.49-.08,4.23l6.1,2.28c3,1.14,1.71-3.29.07-4.23a50.29,50.29,0,0,0-5.53-2.8c0,1.41,0,2.82-.08,4.23l5.14,1.92c2.85,1.07,2-3.49.07-4.23L102.15,123c-2.88-1.08-2,3.44-.07,4.23a16.3,16.3,0,0,0,5.1,1.51c2.68.23,1.1-3.76-.42-4.38-2.22-.91-4.39-1.93-6.61-2.84-2.44-1-2.16,2.39-1,3.52,2.3,2.3,4.86,2.73,7.88,3.67s2-3.49.07-4.23l-3.53-1.32c-2.87-1.08-2,3.44-.07,4.23a21.2,21.2,0,0,1,5.25,2.95c.18-1.31.37-2.62.56-3.94l-1.93-.72c-2.67-1-2.15,3-.56,3.94s3,1.66,4.42,2.5c2.63,1.49,1.8-3.22.07-4.23a24.47,24.47,0,0,0-3.73-1.77c-2.7-1-2.06,3-.56,3.94a33.2,33.2,0,0,0,4.42,2.5c0-1.41,0-2.82.07-4.24l-2.24-.83c-2.86-1.07-1.81,2.88-.56,3.94a27,27,0,0,0,3.49,2.4c0-1.36,0-2.73.07-4.09l-1.73-.28c-2.63-.43-1,3.3-.07,4.09a12.65,12.65,0,0,0,2.82,1.89c2.13,1.17,2-1.9,1.42-3a6,6,0,0,0-2.43-2.63c-1.74-1.14-2.9.36-2.22,2.11.83,2.13,2.1,3,4.19,3.87,0-1.41,0-2.82.07-4.23l-.32-.12c-1.78-.68-2.16,1-1.73,2.4a18.93,18.93,0,0,0,9.36,10.57c2.72,1.32,1.94-3.32.07-4.24a12.66,12.66,0,0,1-6-6.9l-1.73,2.4.32.12c2.87,1.09,2-3.44.07-4.23l-.87-.21-2.22,2.11.7.74,1.43-3-1.84-1.31c0,1.36,0,2.73-.07,4.09l1.72.28c2.45.4,1.27-3.36.07-4.09a27.58,27.58,0,0,1-3.48-2.4c-.19,1.31-.38,2.62-.56,3.94l2.24.84c2.91,1.08,1.93-3.39.07-4.24a15.46,15.46,0,0,1-3.44-1.91c-.18,1.31-.37,2.63-.56,3.94a24.47,24.47,0,0,1,3.73,1.77c0-1.41,0-2.82.07-4.23-1.14-.66-2.28-1.29-3.44-1.92-.19,1.32-.37,2.63-.56,3.94l1.92.72c2.82,1.06,1.88-2.89.56-3.94a24.81,24.81,0,0,0-6.22-3.53c0,1.41,0,2.82-.07,4.23l3.53,1.32c0-1.41,0-2.82.07-4.23-1.94-.61-4.51-.79-6-2.26l-1,3.53c2.23.91,4.39,1.93,6.62,2.84l-.42-4.38a13.29,13.29,0,0,1-4.12-1.21c0,1.41-.05,2.82-.07,4.23l3.53,1.32c0-1.41,0-2.82.07-4.23l-5.13-1.92c-2.89-1.08-2,3.43-.08,4.23a51.32,51.32,0,0,1,5.54,2.8c0-1.41,0-2.82.07-4.23L100,122.87c0,1.41,0,2.82-.08,4.23l5.78,2.16c0-1.41,0-2.82.07-4.23-7.61-2.67-18.15-3.31-21.05,6-.49,1.56,2.1,5.16,3.52,3.18a15.16,15.16,0,0,1,5.84-5.43l-2.67-4.22-1.35.65,2.26,4.38L94.1,129c-.14-1.46-.27-2.92-.41-4.38a3,3,0,0,0-1.55,0q1.13,2.2,2.26,4.39l3.16-.89c2.66.34,1.09-3.78-.42-4.39a4,4,0,0,1-2-1.14c-.17,1.23-.35,2.46-.53,3.68,1.64.27,3.09,1.25,4.64,1.77,2.73.92,2.1-2.93.56-3.94-.8-.5-1.57-1-2.32-1.6l1.33,3.21.12-.33L97,126l6.41,2.4c3,1.12,1.77-3.31.08-4.23l-2.16-1.43c-2-1.57-3,1.14-1.92,2.71l1.45,2,1.42-3a13.6,13.6,0,0,0-3.49-.91,1.24,1.24,0,0,0-1.41.89l-.36,1,2.38-.45L98,123.58c-.78-.82-2.36-1.43-2.84,0a5.23,5.23,0,0,0-.36,2.23l1.48-1.4c-1.94-.33-2.93,0-3.61,1.9l1.9-.74c-3.81-1.5-6.2,1.82-8.67,4.28-1.47,1.46,1.56,5.36,3.32,3.61Z"/><path class="cls-2" d="M94.1,133.8c2.37-.2,4.37-.4,6.25-2,.88-.73-.72-1.88-1.26-2.09l-1-.36c-2.25-.84-5.1.91-2,2.24a12.51,12.51,0,0,0,5.54,1.35c1.61-.05,2-1.46.61-2.3l-1.48-.92-2.51,1.95c2.26.93,4.11,1.54,6.53,1.07,1.41-.27,1-1.66.06-2.22l-1.8-1-2.5,1.94c1.84.65,4.26,1,5.79,2.21a22.06,22.06,0,0,0,4.31,3c2.24,1.09,5-.78,2-2.24-1.53-.74-2.51-2.19-4-3a46.92,46.92,0,0,0-6.09-2.28c-1.52-.53-5.24.37-2.51,1.95.61.34,1.21.69,1.81,1l.06-2.22a4.05,4.05,0,0,1-1.65-.53c-1.59-.66-5.12.32-2.5,2l1.48.92c.21-.77.41-1.54.61-2.3a9,9,0,0,1-1.75-.65l-2,2.24,1,.36-1.26-2.09c-1.06.88-2.36.84-3.61.94-3.27.28-.15,3.11,1.84,3Z"/><path class="cls-2" d="M116.65,72.94c.47,5.3,9.88,6.46,13.87,6.57a1,1,0,0,0,.94-.64l.12-.32c.46-1.23-1.15-2.72-2.12-3.13-3.57-1.51-7.36-2.16-11-3.38-2.19-.72-1.27,2.26-.36,3a15.68,15.68,0,0,0,8.8,3.47c2.38.18-.2-3.4-1.18-3.77-2.58-1-5.11-2-7.58-3.2s-2,1.68-.88,2.82a13.12,13.12,0,0,0,9.32,4c2.23-.1.14-2.93-.64-3.47-2.61-1.79-5.56-2.65-8.3-4.2-2.94-1.66-2.91,1.49-.9,2.93A16.91,16.91,0,0,0,124.38,77c2.61.38,1-2.65-.16-3.41a75,75,0,0,0-7.23-3.9l.18,3.53,8,3c2.38.9,2.31-1.61.89-2.82a30.92,30.92,0,0,0-8.92-5.11c.06,1.17.12,2.35.17,3.53l5.46,2c2.82,1.06,2-2.23.36-3.23l-4.45-2.77-.36,3.24,3.84,1.44c2.38.89,2.32-1.62.89-2.82s-2.74-1.89-4-3c-.3.94-.59,1.88-.89,2.82l4.17,1.56c3.12,1.17,1.66-2.71-.17-3.53a15.67,15.67,0,0,1-3.39-1.9c-.12,1.08-.24,2.15-.37,3.23a21.15,21.15,0,0,0,4.18,1.18c2.25.34,1.31-2.07.36-3a22.28,22.28,0,0,0-3.37-2.58l-.36,3.24,1.6.6c2.9,1.08,1.82-2.18.36-3.24-.75-.56-1.52-1.1-2.32-1.6-.12,1.08-.25,2.16-.37,3.24l2.57,1c1,.38,2.44.12,1.9-1.31a26.22,26.22,0,0,1-1.4-6.3c-.13-1.22-3.49-4.53-4.1-2.29a14.55,14.55,0,0,0,1,10.11c.48,1,3.88,3.28,3.85.88a24.76,24.76,0,0,0-1.3-6.05c-.25-1-3.66-3.91-4-1.81a15.76,15.76,0,0,0,.12,7.51c.32,1,3.31,3.88,4,1.81.82-2.39.2-4.24-.94-6.42-.5-.92-3.06-3.11-3.8-1.3-1.23,3,0,5,1.8,7.49.52.7,3.81,2.58,3.51.37a10.68,10.68,0,0,0-1.6-4.39c-.46-.77-3.18-3.24-3.79-1.3-1,3.29.41,6,1.83,8.94l.67-2c-2,0-2.93,1.56-1.91,3.42,1.32,2.41,3.85,3.27,6.3,4.09a1.11,1.11,0,0,0,1.42-.59l.12-.32c.45-1.2-1.13-2.76-2.11-3.12l-1.61-.6c.24,1.23.47,2.47.7,3.71a29.36,29.36,0,0,0,10.19,1.49c2.43-.06-.21-3.37-1.18-3.77a27.12,27.12,0,0,1-7.85-4.81c-.29.94-.59,1.88-.89,2.82l1.29.48c1.07.4,2.35.12,1.9-1.31a37.57,37.57,0,0,0-2.39-5.44c-1.49-3-.59-6.14-1-9.27-.15-1.22-3.75-4.5-4.11-2.29l-.27,1.72c-.27,1.66,3,4.86,4.06,2.71.59-1.25.38-3.64,1.28-4.59,1.36-1.42-2.3-4.83-3.67-3.39-1.59,1.67-.73,3.27-1.67,5.27l4.06,2.71c.09-.57.18-1.15.28-1.72l-4.11-2.29c.34,2.73-.39,5.64.45,8.3s2.28,4.81,3.09,7.37l1.91-1.31-1.29-.48c-2.39-.9-2.28,1.6-.89,2.82a34.72,34.72,0,0,0,10,6.24c-.4-1.26-.79-2.51-1.18-3.77a26.17,26.17,0,0,1-9.22-1.38c-2.58-.86-.8,3.15.7,3.71l1.6.6-2.12-3.12-.12.32,1.42-.59c-1-.71-1.36-.59-1,.37,1.22,0,1-1.31.67-2-1-2-2.07-3.7-1.3-6.12l-3.8-1.3c.32.8.65,1.61,1,2.42l3.51.36-.6-3.65-3.8-1.3.42,3.6,4,1.81a11.5,11.5,0,0,1,0-5.71l-4-1.81a21.16,21.16,0,0,1,1.12,5.09l3.84.88a10.54,10.54,0,0,1-.5-7.29l-4.11-2.29A29.07,29.07,0,0,0,119,65.48l1.9-1.32-2.57-1c-2.85-1.06-1.92,2.21-.36,3.24.8.5,1.57,1,2.32,1.6.12-1.08.24-2.16.37-3.23l-1.61-.6c-2.85-1.08-1.89,2.2-.36,3.23A15.85,15.85,0,0,1,121,69.19c.12-1,.24-2,.37-3a9.47,9.47,0,0,1-3.13-.82c-2.86-1-1.91,2.19-.36,3.23a28.72,28.72,0,0,0,4.46,2.5c0-1.17-.11-2.35-.17-3.53L118,66c-2.38-.89-2.31,1.61-.89,2.82s2.74,1.89,4,3L122,69l-3.85-1.44c-2.82-1-2,2.24-.36,3.24l4.45,2.76.36-3.23-5.45-2c-3.08-1.16-1.75,2.77.17,3.53a23.25,23.25,0,0,1,6.8,3.69c.3-.94.59-1.88.89-2.82l-8-3c-3.18-1.19-1.54,2.65.18,3.53a62.73,62.73,0,0,1,6.15,3.31c0-1.14-.1-2.28-.16-3.42a12.37,12.37,0,0,1-5.55-2.36l-.9,2.93c2.71,1.53,5.73,2.44,8.3,4.21-.22-1.16-.43-2.31-.65-3.47a7,7,0,0,1-5.19-2.14c-.29.94-.59,1.88-.88,2.82a81,81,0,0,0,7.57,3.21c-.39-1.26-.78-2.51-1.18-3.76A9,9,0,0,1,120,72.93c-.12,1-.25,2-.37,3,3.32,1.1,6.76,1.66,10,3l-2.11-3.12c-.16.35,0,.24.38-.34a16.94,16.94,0,0,1-2.46-.35c-1-.16-1.88-.39-2.82-.62-1.32-.33-2-1.46-1.82.27-.16-1.77-4.37-4.29-4.15-1.86Z"/><path class="cls-2" d="M109.3,70.45c0,2.09-.27,3.93.23,6,.22.89,3.42,4.26,3.5,2.15,0-.36,0-.72,0-1.08,0-1-2.93-4.47-3.59-2.93a5.46,5.46,0,0,0,4,7.33c.53.13.8-.16.77-.67a6.22,6.22,0,0,0-1.31-3.52c-.32-.52-2.38-2.78-3-1.5-1.75,3.85,2.65,6.43,5.7,7.61,1.79.7-.65-3.12-1.2-3.49a13.19,13.19,0,0,0-2.89-1.56c-2.48-1-.07,2.78.78,3.33,1.82,1.19,4.48,3.14,6.52,1.52,1-.77-1.24-3.06-1.8-3.41A9.94,9.94,0,0,0,113,78.56c-2.05-.32.63,3.12,1.19,3.49a19.39,19.39,0,0,0,4,2c1.4.54.39-1.75.15-2.1-1.75-2.53-4-3.83-6.65-5.31-2.17-1.23-.34,2.38.32,3a22,22,0,0,0,7.51,3.86c1.85.65-.45-2.83-.73-3.11A20.11,20.11,0,0,0,111.89,76c-2.32-1-.36,2.34.32,2.94,2.65,2.36,5.84,4.8,9.58,4.18,1.6-.27-1.16-3.22-1.54-3.52A16.2,16.2,0,0,0,115,77.12c-1.85-.63.62,3.12,1.2,3.49a19.07,19.07,0,0,0,8.35,2.88c2.23.26-1-3.4-1.64-3.77a22.93,22.93,0,0,0-3.82-1.8c-1.62-.63.58,3.34,1.65,3.77,2.13.85,4.11,1.8,6.45,1.59,1.22-.11-.33-2.37-.61-2.66a22.32,22.32,0,0,0-3.46-2.91l1.2,3.49a15.69,15.69,0,0,0,5.07,1.07c1.56.07-1.26-3.3-1.54-3.52a7.71,7.71,0,0,0-1.16-.8c.4,1.16.8,2.33,1.19,3.49,3.16.89,4.57-.17,7.56-.76a32.18,32.18,0,0,1,9.6-.13c2,.24-.87-3.67-2.06-3.93a8.54,8.54,0,0,0-5.94.64c-1.35.63,2,3.66,2.67,3.85,2.09.64,3.32.11,5.36-.65,1.67-.62-1.55-4-2.76-4-2.44,0-4.75,0-6.91,1.27-1.33.75,2,3.65,2.66,3.86,2.7.78,5-.73,7.65-.9,1.5-.09,2.33.29,3.8-.09,2.34-.63,3.16-2.25,5.87-1.31a.66.66,0,0,0,.61-.07c1.46-1.94,6.23-1.86,8.33-1.33a.69.69,0,0,0,.61-.08c.3-.5.61-1,.92-1.49.7-1.13-1.71-4.36-3-3.88a20.51,20.51,0,0,1-9.11.88c-2.21-.21,1.12,3.58,2.06,3.93l1,.36c-.68-1.31-1.37-2.62-2.06-3.93-2.25-.76-4.67-1.42-6.78,0-1.17.76,1.65,3.41,2.26,3.69a7.85,7.85,0,0,0,5.29.79c1.57-.26-1.4-3.85-2.41-4a20.55,20.55,0,0,0-6.64.17c-1.67.35,1.38,3.53,2,3.8a8.63,8.63,0,0,0,5.73.59c1.66-.32-1.49-3.78-2.4-4a18.87,18.87,0,0,0-9.69.5c-1.62.5,1.41,3.84,2.41,4,6.36.75,12.36-1.53,18.54-2.67,1.57-.29-1.48-4-2.75-4a115.85,115.85,0,0,0-11.63.77c-1.68.18,1.6,3.73,2.41,4,6.16,1.76,11.91-1.4,18-2.14,1.46-.18-1.36-4-2.75-4A52.47,52.47,0,0,0,150,74.58c-1.58.59,1.44,4.2,2.75,4,4.3-.66,8.54-1.6,12.87-2.13l-2.76-4C156.61,73.62,150.28,74,144,74.9c-1.53.22,1.45,4,2.76,4,3.59,0,7-.93,10.46-1.57,1.79-.32-1.7-3.71-2.41-4-2.78-1-5.35-.32-7.9,1-1.36.7,2.07,3.84,3,3.88,5.71.25,11.08-1.76,16.68-2.53,1.68-.23-1.58-3.74-2.41-4a21.73,21.73,0,0,0-7.92-.31c-1.62.16,1.51,3.76,2.4,4,2.85.67,5.49,0,8.29-.65,1.64-.4-1.54-4-2.76-4a26.92,26.92,0,0,0-10.14,1.68c-1.76.69,1.59,3.67,2.41,4,2.89,1,6.21.12,9-.74,1.8-.54-1.64-3.68-2.4-4-2.74-1-5.71-.31-8.49.21-1.69.32,1.55,3.76,2.41,4a13.34,13.34,0,0,0,8-.77c1.58-.6-1.22-3.49-2-3.8-2.38-.94-4.59-.85-7.13-.75-1.48.05,1.37,3.78,2.4,4a10.63,10.63,0,0,0,5.24-.33c1.75-.47-1.59-3.73-2.41-4a20.89,20.89,0,0,0-3.76-.68c-2.05-.22.86,3.67,2,3.93a16.08,16.08,0,0,0,3.92.27l-3.08-2.86c1.45,5,6.32,3.91,10.07,2.35L167,69.47c-2.27,1.24-4.75,1.52-7.2,2.22-1.61.46,1.4,3.86,2.41,4A17.41,17.41,0,0,0,170.89,74c1.68-.71-1.49-3.72-2.41-4a15.2,15.2,0,0,0-6.84-.27c-1.51.29,1.38,4.11,2.75,4,2.5-.21,5-.69,7.47-.4l-2.41-4c-2,.39-4,.26-6.09.64-1.64.31,1.35,3.54,2,3.8a11.51,11.51,0,0,0,9.28-.48c1.08-.51-1.8-4.24-3-3.88s-2.48.79-3.73,1.16c-1.64.49,1.44,3.82,2.41,4a20.78,20.78,0,0,0,6.2,0c1.68-.24-1.56-3.75-2.41-4a31.48,31.48,0,0,0-5.2-.75c-1.48-.12,1.61,3.67,2.41,4l.64.24-2.4-4a74.83,74.83,0,0,1-10.67,1.13l2.76,4,2.28-.24c1.42-.15-1.34-4-2.75-4a70.57,70.57,0,0,0-8.82,1.08l2.75,4a10.46,10.46,0,0,1,3-.33c1.68,0-1.55-3.54-2-3.8-2.21-1.26-4.36-1.19-6.82-.63-1.71.4,1.55,3.76,2.41,4a18.23,18.23,0,0,0,5.76.23c1.44-.1-1.3-3.86-2.41-4a52.53,52.53,0,0,0-6.52-.14c-1.56,0,1.53,3.72,2.41,4a7.28,7.28,0,0,0,4.36.07c1.75-.48-1.6-3.73-2.41-4-2-.57-3.32-.71-4.86.69-1.2,1.08,1.85,3.54,2.67,3.85l2.56,1c-.68-1.31-1.37-2.62-2.06-3.93-2.37-.84-4.41-.27-6.76.49-1.58.51,1.45,4.16,2.76,4a28.43,28.43,0,0,1,4.12-.28c1.27,0-1.32-3.88-2.75-4A13.69,13.69,0,0,0,142,74.73c-1.38.58,2.07,3.65,2.67,3.86a13.31,13.31,0,0,0,4.55.51c1.32,0-1.36-3.88-2.75-4a17.61,17.61,0,0,0-5.65.45c-1.62.38,1.5,4,2.75,4a49.54,49.54,0,0,0,6-.32c1.56-.21-1.1-3.25-1.54-3.53A11,11,0,0,0,139.59,74c-1.5.32,1.37,4.17,2.76,4,1.78-.23,3.54-.44,5.33-.57,1.64-.11-1.58-3.72-2.41-4a16.26,16.26,0,0,0-3.79-.59c-1.55-.08,1.64,3.68,2.4,4l1.93.72-2.06-3.93a8.52,8.52,0,0,0-6.86,2.13c-1.22,1,1.84,3.62,2.66,3.85a10.2,10.2,0,0,0,4.24.39c1.53-.17-1.37-3.83-2.4-4a25.82,25.82,0,0,0-7,0c-1.48.21,1.39,4.05,2.76,4a21.31,21.31,0,0,0,4.57-.48c1.7-.42-1.61-3.93-2.76-4a29.29,29.29,0,0,0-5.21.24l2.76,4a26.57,26.57,0,0,0,5.51-1.43c1.26-.55-1.9-3.73-2.67-3.85a44.5,44.5,0,0,0-5.64-.55l2.76,4a51,51,0,0,0,5.65-.44l-2.76-4a28.72,28.72,0,0,1-5.13,1c-1.67.16,1.6,3.73,2.41,4,3.36,1,6.68.89,10.14,1.24l-2.41-4a31,31,0,0,0-6.85.73c-1.53.38,1.4,4.18,2.75,4,2.79-.37,5.6-.52,8.38-.89,1.69-.22-1.59-3.74-2.4-4-2.65-.73-5.28-.7-8-1.16q1.2,2,2.41,4a18.17,18.17,0,0,1,7.58-.72c1.94.28-.73-3.74-2.06-3.93a19.67,19.67,0,0,0-8.28.66c-1.66.47,1.46,3.8,2.41,4,2.66.45,5.36.44,8,1.16l-2.4-4c-2.79.36-5.59.51-8.38.88q1.38,2,2.75,4a30.41,30.41,0,0,1,6.86-.73c1.37,0-1.25-3.85-2.41-4-3.41-.34-6.82-.28-10.14-1.24q1.2,2,2.41,4a28.19,28.19,0,0,0,5.13-1c1.55-.44-1.42-4.18-2.76-4a53.31,53.31,0,0,1-5.65.44c-1.34,0,1.33,4,2.76,4a28.23,28.23,0,0,1,4.94.49l-2.67-3.86a24.41,24.41,0,0,1-5,1.22c-1.51.32,1.38,4.16,2.76,4a29.25,29.25,0,0,1,5.21-.24l-2.76-4a21.17,21.17,0,0,1-4.57.48l2.76,4a22.61,22.61,0,0,1,6.26-.11L141,76a6.1,6.1,0,0,1-3.54-.33l2.67,3.85a7.11,7.11,0,0,1,5.64-2c2.2.22-1.12-3.58-2.06-3.93l-1.92-.72,2.4,4a8.6,8.6,0,0,1,3.1.52q-1.2-2-2.41-4c-1.79.12-3.55.34-5.33.56l2.76,4a7.83,7.83,0,0,1,6,.77c-.51-1.18-1-2.35-1.54-3.53a51.81,51.81,0,0,1-6,.33l2.75,4a17.33,17.33,0,0,1,5.65-.44l-2.75-4a11.48,11.48,0,0,1-3.86-.45l2.67,3.86a12.28,12.28,0,0,1,6.06-1.18l-2.75-4a26.06,26.06,0,0,0-4.13.28l2.76,4c2.09-.67,3.86-1.33,6.06-.55,1.68.6-.85-3.48-2.06-3.93l-2.56-1L151.35,76A3.27,3.27,0,0,1,155,75.5l-2.41-4a4.49,4.49,0,0,1-3.66,0l2.4,4a47.24,47.24,0,0,1,5.83.08q-1.2-2-2.41-4a15.38,15.38,0,0,1-5.06-.16l2.41,4c1.79-.41,3.5-.78,5.29.24l-2-3.8a10.42,10.42,0,0,0-3,.32c-1.44.26,1.31,4.24,2.75,4a69,69,0,0,1,8.82-1.09l-2.75-4-2.29.24c-1.4.15,1.32,4.07,2.76,4a74.85,74.85,0,0,0,10.66-1.13c1.81-.36-1.71-3.7-2.41-4l-.64-.24c.8,1.32,1.61,2.64,2.41,4a15.2,15.2,0,0,1,4.5.68q-1.2-2-2.41-4a17.48,17.48,0,0,1-5.5,0q1.2,2,2.41,4c1.25-.37,2.47-.8,3.72-1.17l-3-3.88c-2,1-5.08,1.52-7.24.64l2,3.81c2-.39,4-.26,6.09-.65,1.59-.3-1.41-3.84-2.41-4a39.81,39.81,0,0,0-8.16.33q1.37,2,2.75,4a13.46,13.46,0,0,1,6.15.2l-2.41-4a16.36,16.36,0,0,1-7.95,1.68l2.41,4c2.65-.75,5.28-1.1,7.71-2.43,1.13-.62-1.86-4.37-3.27-3.78a20,20,0,0,1-2.09.74c-2.2.72-2.12-.4-1.31,2.42-.33-1.14-1.76-2.9-3.07-2.87a12,12,0,0,1-3.22-.2l2,3.93a20.84,20.84,0,0,1,3.77.68l-2.41-4a8.25,8.25,0,0,1-4.54.4q1.22,2,2.41,4c1.82-.07,3.88-.32,5.61.37l-2-3.8A12.44,12.44,0,0,1,155,72c.8,1.32,1.61,2.64,2.41,4,2.52-.48,5.3-1.19,7.79-.28q-1.21-2-2.41-4c-2.57.77-5.73,1.75-8.35.79q1.2,2,2.41,4A26.93,26.93,0,0,1,167,74.76l-2.76-4c-2.53.6-5,1.32-7.59.71q1.21,2,2.41,4a20,20,0,0,1,7.23.25l-2.41-4c-5.59.76-11,2.78-16.67,2.53l3,3.89c2.23-1.15,4.26-1.73,6.69-.85q-1.2-2-2.41-4C151,74,147.59,74.91,144,74.9l2.76,4c6.27-.9,12.6-1.29,18.84-2.46,1.47-.27-1.35-4.16-2.76-4-4.32.52-8.57,1.47-12.86,2.13l2.75,4A52.46,52.46,0,0,1,169,75.16l-2.75-4c-5.76.71-11.45,3.87-17.29,2.21l2.4,4c3.88-.4,7.73-.74,11.63-.77l-2.75-4c-5.88,1.08-11.79,3.44-17.85,2.73l2.4,4a17.58,17.58,0,0,1,9-.56l-2.4-4a6.18,6.18,0,0,1-4.21-.21l2,3.81a18.28,18.28,0,0,1,6-.24q-1.22-2-2.41-4l-3.77-.41,2.26,3.69c1.75-1.14,3.77-.4,5.56.2s-.88-3.49-2.06-3.93l-1-.36,2.06,3.93a22,22,0,0,0,9.81-.82l-3-3.88c-1.14,1.83-2.9,1.06-5,1.2-1.65.1-4.22,1.63-5.71,1.12-2.3-.8-5.05,2.18-7.46,2-2.86-.28-5.7,1.63-8.42.83.89,1.29,1.78,2.57,2.66,3.86,2-1.13,4.2-1,6.4-1.06l-2.76-4c-1.67.62-2.76,1.29-4.66.71L140.33,81a5.87,5.87,0,0,1,4.72-.49L143,76.62a47.13,47.13,0,0,0-8-.2c-3.11.18-6.12,2-9.18,1.09-1.93-.54.63,3.14,1.19,3.5a7.65,7.65,0,0,1,1.16.79l-1.54-3.52a12,12,0,0,1-4.38-1c-1.87-.66.69,3.14,1.19,3.5A15.21,15.21,0,0,1,125.05,82c-.2-.89-.4-1.78-.61-2.67-1.82.17-3.29-.55-4.93-1.2l1.65,3.77a11.43,11.43,0,0,1,3,1.48l-1.64-3.77a15.16,15.16,0,0,1-6.64-2l1.2,3.5a13.45,13.45,0,0,1,3.51,1.56c-.52-1.17-1-2.35-1.55-3.52-2.52.42-4.41-.87-6.22-2.47.11,1,.21,2,.32,2.95a13.82,13.82,0,0,1,5,3l-.72-3.11c-1.69-.6-3.46-1-4.85-2.22.11,1,.21,2,.32,2.95a21,21,0,0,1,3.06,2c0-.71.1-1.41.14-2.11L113.87,79c.4,1.16.8,2.33,1.19,3.49a4.38,4.38,0,0,1,2.35.76l-1.81-3.41A3.78,3.78,0,0,1,112,79l.78,3.33,2,1-1.19-3.5c0-.13,0-.26-.08-.4l-3-1.5q2.11,2,2.47-.14l-3.58-2.94c0,.37,0,.73,0,1.09l3.5,2.15c-.38-1.57,0-3.46,0-5.1,0-1.34-3.64-4.52-3.61-2.59Z"/><path class="cls-2" d="M103.51,70a4.12,4.12,0,0,0,2.32-1.74c1.2-1.57-3.29-2-4.09-1.54a9.47,9.47,0,0,0-4.16,4c-1,1.82,3.56,2.16,4.49,1.3l1.69-1.56-4.5-1.3L97.82,73c-.75,2,3.88,2.37,4.77,1a7.75,7.75,0,0,0,1.28-2.45c.78-1.9-4.05-2.53-4.77-1a14.43,14.43,0,0,1-1.84,3l4.77,1,.24-.64c.7-1.9-3.56-2.33-4.5-1.3-1.24,1.36-2.38,2.77-3.56,4.19s2.93,1.91,3.58,1.71A7.28,7.28,0,0,0,101,76.76c1.92-1.6-2.81-2.26-3.81-1.83-2.23,1-3.66,4.49-6.11,3.42a9.93,9.93,0,0,0-6.92-.62c-1.6.43-1.57,1.6-.14,2.25a18,18,0,0,0,11.57,1.36c.8-.18,1.8-.89,1-1.73C93.24,76,86.07,76.3,81.7,77.53c-.65.18-2,1-1,1.73,4.4,3.61,12.91,5.32,17.9,2.07,1-.64-.11-1.6-.78-1.84a24,24,0,0,0-6.3-1.42c-.59,0-3.22.28-2.51,1.5,1.87,3.2,6.49,3.79,9.71,2.56.68-.26,1.06-1,.49-1.56A11.82,11.82,0,0,0,91.55,77c-1.08-.12-3.92,1-1.91,2.12,3,1.65,6.74,2.6,9.67.3.9-.7,0-1.59-.78-1.85a10.94,10.94,0,0,0-3.29-.66c-.95,0-4.06,1.09-1.91,2.12,2.36,1.14,4.34,1.46,6.78.35.69-.32,1-.93.49-1.56a11.61,11.61,0,0,0-5-3.17c-1.19-.47-5.58.38-3.15,1.86a12.63,12.63,0,0,0,4.61,1.73c1,.18,4.86-.62,2.56-2a18,18,0,0,0-3.25-1.64L93.7,76.65a10.84,10.84,0,0,0,6.41.52c.92-.19,1.66-.85,1-1.73a11,11,0,0,0-3.42-2.89l-3.16,1.86a15.48,15.48,0,0,0,5.22,1.38c.85.06,3.52-.49,2.28-1.83a11.82,11.82,0,0,0-4-2.81l-2.67,2.09a10.15,10.15,0,0,0,5,.7c1.05-.15,2.93-1.13,1.25-2.12l-1.84-1.63-3.52,1.57A12.06,12.06,0,0,0,101.16,73c.72,0,3.06-.2,2.51-1.5a16.69,16.69,0,0,0-2.27-3.66l-2.94,1.75c2.93.77,8.71-.94,4.36-3.92l-.63,2,.25-.06-1.62-2.35c-3.13,1.21-7.49,3.52-6.69,7.41.29,1.43,3.24,1.18,4.13.85A8.28,8.28,0,0,0,102,70.85l-4.77-1c-1.83,2.71-3,5.76-5,8.38l4.77,1c.53-1.14,1.12-2.25,1.64-3.41.67-1.48-2.08-1.88-3-1.8a6.51,6.51,0,0,0-5,2.53c-1.13,1.28,2.44,1.83,3,1.8a10.66,10.66,0,0,0,2.57-.45c1-.29,2-1.31.64-2a14.65,14.65,0,0,0-13.51.06c-1.56.84-.31,2,1,2.25a37.48,37.48,0,0,0,9.22.48c1.11-.07,2.87-1.17,1.24-2.11A12.6,12.6,0,0,0,85,75.48c-1.58.39-1.6,1.66-.15,2.26A21.66,21.66,0,0,0,94.46,79c2.36-.09,2.23-2,.16-2.52A47.12,47.12,0,0,0,80,74.75c-.5,0-2.49.56-1.84,1.5,2.76,4,10.07,4.56,14.15,2.4.92-.49,1-1.26.12-1.85-4.2-2.78-10.23-3.06-15.11-2.69-1.24.09-2.73,1.08-1.25,2.12a26.63,26.63,0,0,0,6,3l2.66-2.09a12.45,12.45,0,0,0-6-1.06c-1.12.16-2.85,1.1-1.24,2.12a12.56,12.56,0,0,0,6.23,2.17c.75.06,3.63-.54,2.28-1.82a11.62,11.62,0,0,0-7.77-3.27c-.64,0-3.76.62-2.28,1.83l.84.68,4-1.33c-2.48-1.73-4.86-2.62-7.58-1l3.44-.25c-2.48-.87-5-1.57-7.49-2.44-1.75-.62-5.76.94-2.67,2.09l1.61.6c1.21.46,5.63-.55,3.15-1.85a48.48,48.48,0,0,0-5.74-2.71c-2.42-.91-5.09-.62-7.5-1.57-1.77-.71-5.7.88-2.66,2.09,4.09,1.63,8.22,1.68,12.26,3.81l3.15-1.86-1.6-.6L66.56,74.9c3.6,1.26,8.1,3.9,11.69,1.75l-2.86.42a5.37,5.37,0,0,1,1.83,1c1.08.75,5.74.06,4-1.33l-.84-.69-2.28,1.83,3.54,1.7,2.28-1.83a5.89,5.89,0,0,1-2.76-1.18c-.41.7-.82,1.41-1.24,2.11a5.47,5.47,0,0,1,2.18.54c1.75.64,5.74-.92,2.66-2.09a22.81,22.81,0,0,1-5-2.57L78.5,76.72c3.3-.25,7.46-.18,10.3,1.7l.12-1.85c-1.55.83-4.73,1-5.89-.71l-1.84,1.5A38.4,38.4,0,0,1,93.13,79c.05-.84.11-1.68.16-2.52a10.79,10.79,0,0,1-5.74-.79L87.4,77.9l3.69.28c.41-.7.82-1.41,1.24-2.11a26.77,26.77,0,0,1-6.57-.32l1,2.26c1.9-1,4.36-1.62,6.45-.51.21-.67.42-1.35.64-2l-1.36.27,3,1.8,1.41-.92-3-1.81c-.52,1.16-1.1,2.27-1.64,3.41-.91,1.94,3.83,2.26,4.77,1,2-2.62,3.13-5.67,5-8.38,1.13-1.67-3.74-2.21-4.77-1l-2.33,1.63,4.13.84c-.53-2.59,3.49-4.27,5.25-4.94,2.18-.84-.58-2.29-1.62-2.35a9.1,9.1,0,0,0-2.8.26c-1.15.29-1.79,1.23-.63,2l.76-.14c-1-.26-4.18.1-2.94,1.74a7.87,7.87,0,0,1,1.82,3l2.51-1.5a5.61,5.61,0,0,1-2.4-.74c-1-.41-5-.27-3.53,1.57A6,6,0,0,0,98,73.45l1.24-2.12L98,71.15c-1.71-.6-5.71.66-2.67,2.09L97.65,75l2.28-1.83a7.51,7.51,0,0,1-2.73-.86c-1.22-.53-5.53.36-3.15,1.86a7.21,7.21,0,0,1,2.68,2.32l1-1.73-1.36-.2c-1.72-.59-5.76.84-2.67,2.09L96,77.82l2.56-2-2.45-.92-3.15,1.86a5.69,5.69,0,0,1,3.27,2.12c.16-.52.32-1,.49-1.56l.28.11-1.91,2.12.8.14-.78-1.85-1.8-.33L91.38,79.6a5.17,5.17,0,0,1,3.42,2c.17-.52.33-1,.5-1.56l-1.45-.88-2.51,1.5,3.81.9-.78-1.84c-2.4,1.56-7.26.13-9.28-1.52-.34.57-.68,1.15-1,1.73,2.25-.64,6.36-1.21,8.16.71.33-.58.67-1.16,1-1.73a9.92,9.92,0,0,1-6.54-1l-.15,2.26c2.11-.58,5.5,1.73,8,1.49,3.15-.3,3.45-3.52,6-4.64l-3.82-1.83-1.4.91L99,77.79l3-3.6L97.5,72.9l-.24.64c-.77,2.07,3.81,2.22,4.77,1a14.87,14.87,0,0,0,1.84-3l-4.77-1A7.56,7.56,0,0,1,97.82,73l4.77,1L104,70.17c.73-2-3.51-2.22-4.5-1.3l-1.68,1.57,4.5,1.29a5.28,5.28,0,0,1,2.8-2.91l-4.09-1.54c0,.12,0,.23.08.34-3.17.83.53,2.9,2.37,2.41Z"/><path class="cls-2" d="M56.13,148.61l-.48,1.28c-.6,1.62,3,5,3.65,3.23a7.58,7.58,0,0,1,2.08-2.88c.77-.73-.13-2.15-.63-2.74s-1.84-1.79-2.61-1.07a9.61,9.61,0,0,0-2.49,3.46l3.65,3.23.48-1.28c.38-1-.59-2.3-1.3-2.93-.48-.42-2-1.36-2.35-.3Z"/><path class="cls-2" d="M136,121.26c-.58-2.07-2.81-3.32-4.46-4.48-1.84-1.29-4.37.5-3,2.58a13.63,13.63,0,0,0,4.58,4.81,2.2,2.2,0,0,0,3.39-.94c.8-2.14-1.84-3.87-3.37-4.76s-3.46-.42-3.43,1.48c0,2.61,1.61,3.81,4,4.51,1,.29,2.61.09,2.78-1.23.56-4.3-3.28-8.47-6.62-10.73L127.79,116a16.25,16.25,0,0,0,3,1.56c2.82,1.16,3.43-2.28,1.5-3.74a20.69,20.69,0,0,1-2.91-3.08l-2.64,3.06a13.44,13.44,0,0,0,2.73,1.44,1.93,1.93,0,0,0,2.7-2.32c-.91-2.44-2.56-3.75-4.52-5.39l-3.16,2.65a17.33,17.33,0,0,0,3.49,2.25c2.35,1.1,4.61-.87,2.64-3.06-1.06-1.16-2.28-2.2-3.25-3.43l-3,2.57a9.18,9.18,0,0,0,3.79,1.38,1.88,1.88,0,0,0,1.82-3,21,21,0,0,0-4.83-4.18c-.5,1.25-1,2.5-1.49,3.75l1.6.59a2,2,0,0,0,2-3.33,14.08,14.08,0,0,0-2.54-1.89l-1.5,3.74,1.29.48c2.42.91,3.45-1.66,2-3.34a9.41,9.41,0,0,0-3-2.45c-1.32-.66-2.82-.58-3.39,1l-.12.32c-.37,1,.56,2,1.28,2.52a7.36,7.36,0,0,0,3.47,1.26c2.26.38,2.63-2.15,1.41-3.48a11.27,11.27,0,0,0-3.7-2.69c-2.19-1-5,1.09-2.63,3.06a11,11,0,0,0,5.92,2.39,1.93,1.93,0,0,0,1.41-3.48,17.66,17.66,0,0,0-2.85-2l-1.5,3.75c1.92.79,3.54,1.39,5.62,1.05s1.91-3,.29-3.88c-.7-.41-1.41-.8-2.13-1.16l-1.5,3.75a9.22,9.22,0,0,0,5.31.92,1.93,1.93,0,0,0,.81-3.46l-1.16-1.2c-.4,1-.81,2-1.22,3,2.74-.59,5.33-1.64,8.1-2.09,3.12-.5,1.05-4.7-1.54-4.28-2.78.44-5.34,1.5-8.09,2.09a1.85,1.85,0,0,0-1.22,3,13.51,13.51,0,0,0,2,2.17l.81-3.47a4.73,4.73,0,0,1-2.87-.67c-2.61-1.09-3.84,2.51-1.5,3.74.72.37,1.43.75,2.12,1.16.1-1.29.19-2.58.29-3.87a7.34,7.34,0,0,1-3.2-.79c-2.63-1.09-3.78,2.46-1.5,3.75l1.8,1.19,1.41-3.47a3.82,3.82,0,0,1-2.42-.74l-2.63,3.06a5.43,5.43,0,0,1,2.64,1.87l1.41-3.47c-.34-.14-.68-.29-1-.42l1.29,2.52.12-.32-3.4.94a4,4,0,0,1,2,1.63l2-3.34-1.28-.48c-2.68-1-3.75,2.41-1.5,3.75l1.47,1.08,2-3.34-1.6-.6c-2.75-1-3.62,2.33-1.5,3.74a14.49,14.49,0,0,1,3,2.4c.61-1,1.21-2,1.82-3l-1.34-.55c-1.76-1.06-4.67.49-3,2.57,1.24,1.59,2.7,2.92,4,4.41.88-1,1.76-2,2.63-3a8.31,8.31,0,0,1-2.43-1.44c-2.25-1.76-5.71.53-3.16,2.65,1.15,1,2.62,1.86,3.17,3.35l2.7-2.32-1.51-.88c-2.32-1.59-4.39,1-2.64,3.06a26.14,26.14,0,0,0,4,3.89l1.5-3.75-1.84-1c-2.66-1.72-4.69,1.71-2.11,3.46,1.2.81,4.26,4.08,4,5.69l2.79-1.22-.16,0L131,121.93c.74-.62,1-.71.8-.28l3.39-.94a8.84,8.84,0,0,1-2.71-3l-3,2.57c.48.33,1.92,1.16,2.05,1.62.7,2.53,5.35,2.43,4.51-.61Z"/><path class="cls-2" d="M66.71,88.25a17.92,17.92,0,0,0,3.42.39c3.09.08,2.22-3.91,0-4.65a44.58,44.58,0,0,0-6-1.52c-3.21-.58-3.48,3.83-.62,4.58a15.74,15.74,0,0,0,7.38.09c2.14-.44,1.78-3.65,0-4.33-3.33-1.3-6.59-2.76-10.23-2.57-2.52.13-2.67,3.43-.6,4.43a13.14,13.14,0,0,0,7,1.36,2.3,2.3,0,0,0,.61-4.42C64.94,80.4,62,80,59.15,79.15c-.21,1.52-.41,3-.62,4.58a39.16,39.16,0,0,0,5.49,1c3.31.44,3.36-3.62.62-4.58s-5.65-1.82-8.46-2.8c-.2,1.52-.41,3-.62,4.58,1.47.35,2.95.56,4.41.91,2.75.66,3.74-3.43,1.22-4.36A75.25,75.25,0,0,0,53.74,76c-3.23-.81-3.35,3.66-.62,4.58a7.52,7.52,0,0,0,2.69.64A2.27,2.27,0,0,0,57,76.88l-4.81-1.8-1.82,4.14,2.57,1c3,1.12,4.72-3.05,1.82-4.14l-4.49-1.68c-.41,1.45-.81,2.91-1.22,4.36a14.6,14.6,0,0,0,3.1.27c2.44,0,2.78-3.62.6-4.43l-5.13-1.92c-.4,1.45-.81,2.9-1.22,4.36l1.73.28c3.28.53,3.38-3.67.61-4.58a10.65,10.65,0,0,1-4-2.09l-2.37,3.77c4.12,1.87,8.38,3.51,11.87,6.47.38-1.35.77-2.7,1.16-4-1.86-.19-3.63-.77-5.49-1-2.41-.25-2.39,2.85-1.16,4,2.54,2.49,5.85,3.5,9.13,4.68,2.68,1,3.7-3.44,1.22-4.36l-4.81-1.8-1.82,4.14,9.62,3.6c3,1.12,4.72-3,1.82-4.14a22.59,22.59,0,0,0-6.17-1.94c-2.92-.32-3.48,2.93-1.22,4.36a24.9,24.9,0,0,0,8,3c2.74.64,3.73-3.41,1.21-4.36l-4.81-1.8c-2.45-.92-4.73,2-2.37,3.77A20.77,20.77,0,0,0,70,89c2.84.15,2.55-4.35,0-4.65l-1.4-.16c-3.27-.36-3.41,3.64-.61,4.58a60.81,60.81,0,0,0,6.65,1.76c3.24.71,3.37-3.68.62-4.58a15.53,15.53,0,0,0-6.55-.82,2.3,2.3,0,0,0-.6,4.43,49.19,49.19,0,0,0,9,2.25c2.74.58,3.76-3.43,1.21-4.36a43.66,43.66,0,0,0-5.53-1.7c-3-.66-3.31,3-1.22,4.36a16.08,16.08,0,0,0,9.27,2.21c3-.12,2.4-4,0-4.65a8,8,0,0,0-5.21,0,2.27,2.27,0,0,0-.57,4,12.16,12.16,0,0,0,7,2.26c3.1.13,2.18-3.9,0-4.65A6.52,6.52,0,0,0,77.31,89c-2.59.87-1.37,3.84.59,4.56a36.92,36.92,0,0,0,4.61,1.36c3.2.71,3.46-3.8.62-4.58A9.4,9.4,0,0,0,79,90c-1.92.28-3,2.76-1.16,4.06a13.3,13.3,0,0,0,6,2.39c3.19.48,3.58-4.08.62-4.58a7,7,0,0,0-3.81.15A2.27,2.27,0,0,0,80,96a14.62,14.62,0,0,0,3,1.66c.61-1.39,1.21-2.77,1.82-4.15l-.32-.12c-1.11-.41-2.62-.38-3.12,1l-.12.32a2.54,2.54,0,0,0,1.3,3.19l1.6.61c3,1.12,4.72-3.06,1.82-4.15l-1.6-.6c.43,1.07.87,2.13,1.31,3.2l.12-.33-3.13,1,.32.13a2.27,2.27,0,1,0,1.82-4.15l-1.89-.91-.57,4,1.4-.1c.21-1.53.41-3,.62-4.58a8.11,8.11,0,0,1-3.66-1.21c-.38,1.35-.77,2.7-1.16,4.06a4.5,4.5,0,0,1,3,.17c.2-1.53.41-3.06.62-4.58A38.15,38.15,0,0,1,78.52,89c.19,1.52.39,3,.58,4.55a2.57,2.57,0,0,1,2.37.26V89.13L78,88.19l-.57,4,2.8.06c0-1.55,0-3.09,0-4.64a11.55,11.55,0,0,1-6.85-1.64c-.41,1.46-.81,2.91-1.22,4.36a22,22,0,0,1,4.34,1.26c.4-1.45.81-2.9,1.21-4.36-2.62-.55-5.27-.79-7.78-1.82l-.6,4.43a12.84,12.84,0,0,1,5.32.69c.21-1.52.41-3,.62-4.58a61.59,61.59,0,0,1-6.66-1.76c-.2,1.53-.41,3.06-.61,4.58l1.4.16V84.25a14.64,14.64,0,0,1-8-2.63q-1.18,1.89-2.38,3.77l4.82,1.8c.4-1.45.81-2.9,1.21-4.36a21.16,21.16,0,0,1-6.77-2.54c-.41,1.45-.81,2.9-1.22,4.36a18.06,18.06,0,0,1,5,1.5L63.88,82l-9.62-3.6c-3-1.13-4.72,3-1.82,4.14l4.81,1.8c.41-1.46.81-2.91,1.22-4.36-2.47-.89-4.91-1.63-6.82-3.5-.39,1.36-.78,2.71-1.16,4.06,1.85.19,3.62.77,5.49,1,2.3.23,2.53-2.89,1.16-4.05-3.85-3.27-8.43-5.16-13-7.23C41.52,69,39.84,72.11,41.78,74s4,2.51,6.37,3.28c.2-1.53.41-3,.61-4.58L47,72.42a2.27,2.27,0,0,0-1.22,4.36L51,78.7l.6-4.43-1.87-.13a2.27,2.27,0,0,0-1.22,4.36L53,80.18,54.78,76l-2.57-1c-3-1.12-4.72,3.06-1.82,4.14L55.21,81c.4-1.45.81-2.9,1.21-4.36A7.52,7.52,0,0,1,53.74,76c-.21,1.53-.42,3.06-.62,4.58a63.11,63.11,0,0,1,6.26,2c.4-1.45.81-2.9,1.21-4.36-1.47-.35-2.94-.56-4.41-.91-3.26-.79-3.31,3.63-.62,4.58s5.66,1.81,8.46,2.8c.21-1.53.42-3.06.62-4.58a40.67,40.67,0,0,1-5.49-1c-3.16-.89-3.41,3.7-.62,4.58,2.42.76,5,1,7.34,2l.6-4.43a6.57,6.57,0,0,1-4.59-.79c-.21,1.47-.41,3-.61,4.42,2.8-.14,5.26,1,7.81,2V82.61a10.57,10.57,0,0,1-5-.14c-.2,1.53-.41,3.06-.62,4.58a44.2,44.2,0,0,1,6,1.52V83.93l-2.19-.26c-3.18-.65-3.54,4-.62,4.58Z"/><path class="cls-2" d="M78.16,96.82c.53-3.13-1.2-5.15-3.93-6.48a3.17,3.17,0,0,0-3.88,1.72c-1,3.13.75,4,3.52,5,1.63.58,4.79-2,3.16-3.51a5.92,5.92,0,0,0-3.5-1.7c-1.47-.25-5.07,2-3.16,3.51a6.26,6.26,0,0,0,5.76,1.4c1-.21,3.42-1.89,2.41-3.19-1.78-2.28-4.35-3.29-7-4.28-1.54-.59-5,2.12-3.16,3.51a7.48,7.48,0,0,0,5.2,1.46c1.51,0,4.77-2.79,2.25-3.73l-6.41-2.4c-1.19-.45-3,.79-3.46,1.88l-.12.32c-.31.82-.16,1.49.71,1.8a15.36,15.36,0,0,0,4.91,1c1.6.06,4.67-2.76,2.25-3.73a24.86,24.86,0,0,0-6.22-2c-1.69-.22-5.45,2.82-2.75,3.68a15.48,15.48,0,0,0,5.36.77c1.52-.05,4.74-2.73,2.24-3.73a14.59,14.59,0,0,0-6.19-1.45c-1.49,0-4.77,2.81-2.25,3.73a24.92,24.92,0,0,0,4,1.12c1.45.27,5.12-2,3.17-3.51a12.78,12.78,0,0,0-7.33-2.62c-1.55,0-4.73,2.83-2.25,3.73a21.64,21.64,0,0,0,3.65,1c1.75.3,5.36-2.64,2.74-3.69-2.11-.84-4.08-1.78-6.39-1.88-1.62-.08-4.68,3.46-2.25,3.73l1.41.16c1.67.19,5.44-2.68,2.74-3.69L58.57,83c-.74,1.25-1.49,2.49-2.24,3.74a23.71,23.71,0,0,1,2.92,0c1.13,0,4.71-2.69,2.67-3.56-.92-.38-3.87-1.26-4.28-2.14l-3.88,3c8,4.19,15.21,9.55,20.32,16.92,1.17,1.7,4-.49,4.33-1.89.44-2-.2-2.86-2-3.91-1.5-.88-3.68.71-4,2.19-.68,3,1.55,3.93,4.13,3.22,1.11-.3,3.76-2.24,2.11-3.49-4.89-3.68-10.29,4.34-5.11,5.66,2.69.69,4.89-.69,6.09-3.08,1.46-2.89-2.29-4.66-4.11-5.94l-3.58,3.34a19.13,19.13,0,0,0,3.5,1.69c1.51.59,4.32-1.57,3.47-3.21-1.1-2.09-3.27-2.87-5.37-3.68-1.54-.58-5,2.15-3.16,3.51a16.8,16.8,0,0,0,3,1.84c1.41.68,5.23-1.26,3.89-3-1.65-2.18-4-3.42-6.32-4.75-1.56-.87-4.86,1.18-3.88,3,1.49,2.86,4.84,4.15,7.69,5.28,1.47.58,4.39-1.59,3.47-3.21a14.49,14.49,0,0,0-6.6-5.95c-1.34-.62-4.63.78-4,2.64,1.15,3.61,4.77,4.88,8,6.12,1.26.48,4.79-1.8,3.47-3.21a19.2,19.2,0,0,0-7.18-4.72c-1.52-.62-4.28,1.58-3.46,3.21,1,1.93,2.56,2.87,4.51,3.7,1.39.6,5.25-1.21,3.88-3-3-4-7.75-5.72-11.25-9.16-1.27-1.24-5.07,1.49-3.88,3,.08.16.17.32.25.49l4.34-2.35c-1.33-2.29-3.32-3.62-5.44-5.14-1.63-1.17-5.48,2-3.58,3.34S60.9,86,62.08,88.09c1,1.73,4.81-.64,4.34-2.34a3.41,3.41,0,0,0-.55-1.28l-3.89,3c3.29,3.22,7.85,4.83,10.65,8.56l3.88-3c-1.66-.71-3.06-1.43-3.91-3.11l-3.46,3.21a15.42,15.42,0,0,1,5.73,3.78l3.47-3.21c-2.22-.84-5.49-1.86-6.31-4.38L68,92a12.82,12.82,0,0,1,6,5.35l3.47-3.21c-2.3-.91-5.06-2-6.26-4.34l-3.88,3C69.38,94,71.57,95,73,97l3.88-3a17.41,17.41,0,0,1-3-1.84l-3.17,3.51c1.58.6,3.12,1.17,3.93,2.73l3.47-3.21a8.84,8.84,0,0,1-2.67-1.35c-1.67-1.07-5.5,2-3.58,3.34.43.31.87.6,1.32.88l.84.56c1,.36,1.38,1,1,1.92L77.17,97c-.1-.2-.2-.41-.29-.62l-4,2.19,1.08,1.62,4.33-1.89c-1.06-1.54-1.89-3.58-3.39-4.75-.73-.56-1.49-1.05-2.25-1.57-.43-.29-.73-2-1.4-2.36C68.82,88.44,67,86.65,64.88,85a48.72,48.72,0,0,0-7.54-4.29c-1.62-.84-4.76,1.12-3.88,3,.66,1.44,3.48,2.15,4.88,2.74.88-1.19,1.77-2.37,2.66-3.56a23.87,23.87,0,0,0-2.93,0c-1.49.06-4.77,2.79-2.24,3.74l4.81,1.8,2.74-3.69L62,84.65l-2.25,3.73c1.88.08,3.69,1.1,5.4,1.79l2.74-3.69a20.84,20.84,0,0,1-3.64-1L62,89.22a9.73,9.73,0,0,1,5.5,2.18l3.16-3.51a24.92,24.92,0,0,1-4-1.12L64.42,90.5a12.31,12.31,0,0,1,5.2,1.35c.75-1.24,1.5-2.49,2.24-3.74a12.4,12.4,0,0,1-4.35-.66c-.91,1.23-1.83,2.45-2.75,3.68a24.86,24.86,0,0,1,6.22,2l2.25-3.73a10.46,10.46,0,0,1-3.91-.87l.71,1.8.12-.33-3.46,1.89,6.41,2.4,2.25-3.73a3.75,3.75,0,0,1-3.37-1L68.82,93c2,.78,4.14,1.56,5.53,3.34.8-1.07,1.61-2.13,2.41-3.19A3.13,3.13,0,0,1,74,92.07l-3.17,3.51a3.27,3.27,0,0,1,2.67,1.35l3.17-3.51A3.31,3.31,0,0,1,74.52,92l-3.87,1.71c1.73.84,3.44,1.82,3,4.18-.44,2.58,4.15.87,4.47-1Z"/><path class="cls-2" d="M114.16,87c2.51,3,7.31,2.49,10.84,2.17,2-.19.38-3.43-.45-4a10.59,10.59,0,0,0-7.68-2.18c-2.13.3-.2,3.84.9,4.33a14.68,14.68,0,0,0,9.63,1.29c2.37-.55-.08-4-1.36-4.5a36.82,36.82,0,0,0-4.93-1.49c-2.6-.58-.64,3.94.93,4.48a19.62,19.62,0,0,0,8.41,1.19c2.19-.19.09-3.83-.9-4.33a22.72,22.72,0,0,0-6-1.9c-2.63-.49-.67,4,.93,4.47a25.17,25.17,0,0,0,8.09,1.08c2.05,0,.23-3.47-.44-4-1.73-1.41-3.39-2.23-5.64-1.78s.06,4.09,1.36,4.51a13.67,13.67,0,0,0,6.05.68c2.38-.26-.15-4.11-1.37-4.51a6.58,6.58,0,0,0-2.36-.52c-2.71-.38-.64,4,.93,4.47a13.48,13.48,0,0,0,6,.67c2.14-.23.19-3.86-.9-4.32a15,15,0,0,0-4.75-1.42c-2.81-.27-.52,3.9.93,4.47a11.56,11.56,0,0,0,6.49.47c2.41-.36-.17-4.07-1.37-4.51a15.28,15.28,0,0,0-3.33-.88c-2.68-.35-.68,4,.93,4.48a13.87,13.87,0,0,0,6.49.47c2.42-.43-.15-4.06-1.36-4.51L138,80.48l.93,4.47a22,22,0,0,0,5.73.56c2.29,0-.11-3.83-.91-4.33l-1.48-.92c.16,1.43.31,2.86.47,4.29a45.71,45.71,0,0,0,5.81,1.08c2.75.43.55-3.92-.93-4.47l-2.88-1.08.93,4.47a20.2,20.2,0,0,0,6.16.35c2.43-.12-.24-4.09-1.36-4.51l-1.6-.6.93,4.48a11.92,11.92,0,0,0,4.32.39c2.43-.2-.23-4.08-1.36-4.51l-1.61-.6c.46,1.51.91,3,1.36,4.51a12,12,0,0,0,5.08-.93c2-.74-.77-4-1.75-4.38l-1.6-.6.93,4.47a5.16,5.16,0,0,0,4.06,0c2-.69-.79-4-1.75-4.38l-2.88-1.09.93,4.48a9.92,9.92,0,0,0,6.28,0c2.26-.72,0-4-1.36-4.51a9.46,9.46,0,0,0-3-.76c-2.68-.45-.62,4,.93,4.47,2.77.93,5.07,1.28,7.75,0,1.87-.92-.65-4-1.74-4.38a20.13,20.13,0,0,0-3.65-1c-2.66-.46-.66,4,.93,4.47a11.56,11.56,0,0,0,6.48.47c2.37-.49-.08-4.07-1.36-4.5a7.31,7.31,0,0,0-2.68-.64c-2.57-.38-.87,4.16.92,4.47a10.86,10.86,0,0,0,5.33-.33c2.26-.61,0-4.11-1.36-4.51a2.9,2.9,0,0,0-1.52-.07c-2.22.38-.09,4.8,1.8,4.54,1.33-.18,2.61-.42,3.92-.72,2.39-.55-.1-4-1.36-4.51l-1.28-.48q.87,2.19,1.75,4.38a14.37,14.37,0,0,1,4.54-1.32c2.39-.52-.11-4-1.36-4.51l-1.29-.48q.89,2.19,1.75,4.39c1.89-1,4-1,6.07-1.49,2.21-.51,0-5-1.79-4.54-2.35.55-4.69.57-6.84,1.73-1.84,1,.61,4,1.74,4.38l1.29.49c-.46-1.51-.91-3-1.36-4.51-1.88.41-3.65.58-5.32,1.57s.58,3.94,1.75,4.38l1.28.48c-.45-1.5-.91-3-1.36-4.51-1.31.3-2.6.54-3.93.73l1.8,4.54h.65c-.46-1.51-.91-3-1.37-4.51a8.21,8.21,0,0,1-4.45.4c.3,1.49.62,3,.92,4.47a7.57,7.57,0,0,1,2.69.64c-.45-1.51-.91-3-1.36-4.51a10.45,10.45,0,0,1-5.62-.4l.93,4.47a21,21,0,0,1,3.65,1q-.89-2.19-1.75-4.38c-2.21,1.09-3.92.6-6.12-.13l.93,4.47a9.73,9.73,0,0,1,3,.76c-.46-1.5-.91-3-1.36-4.5a8.73,8.73,0,0,1-5.42,0c-2.52-.71-.63,3.89.93,4.48l2.88,1.08-1.74-4.38a3,3,0,0,1-2.43-.21c-2.38-.8-.71,3.86.93,4.47l1.6.6Q155.88,81,155,78.84a7.37,7.37,0,0,1-4.3.68c-2.36-.07.24,4.09,1.36,4.5l1.61.61c-.46-1.51-.91-3-1.37-4.51a6.73,6.73,0,0,1-3.45-.33c-2.55-.68-.62,3.9.93,4.48l1.6.6c-.45-1.51-.91-3-1.36-4.51a17.2,17.2,0,0,1-5.3-.28c-2.59-.64-.6,3.9.93,4.47l2.88,1.08-.93-4.47a47.54,47.54,0,0,1-5.81-1.08c-2.56-.75-.56,3.64.47,4.29l1.49.92c-.31-1.44-.61-2.89-.91-4.33a14,14,0,0,1-4.86-.48c-2.59-.64-.59,3.9.93,4.47l2.25.84c-.45-1.5-.91-3-1.36-4.5a11.81,11.81,0,0,1-5.63-.41c.31,1.49.63,3,.93,4.48a14.74,14.74,0,0,1,3.33.88c-.45-1.51-.91-3-1.36-4.51a10.33,10.33,0,0,1-5.62-.4l.93,4.47a7.17,7.17,0,0,1,3.83,1.06l-.9-4.33a12,12,0,0,1-5.18-.6l.93,4.47a6.58,6.58,0,0,1,2.36.52c-.45-1.5-.91-3-1.36-4.51a11.84,11.84,0,0,1-5.18-.6c.46,1.5.91,3,1.36,4.51l2.95.7-.45-4a22.66,22.66,0,0,1-7.23-1l.93,4.47A18.9,18.9,0,0,1,129.56,88c-.3-1.44-.6-2.88-.91-4.32a17.62,17.62,0,0,1-7.54-1.13l.93,4.48A38.3,38.3,0,0,1,127,88.53c-.45-1.51-.91-3-1.36-4.51a11.85,11.85,0,0,1-7.85-.86l.9,4.32a6.91,6.91,0,0,1,5,1.11l-.45-4c-1.49.14-6.27,1-7.27-.23-2.13-2.57-3.39.65-1.77,2.61Z"/><path class="cls-2" d="M87.51,90.94c-2.85-.28-4.79-5.23-7.6-1.17l4.19-.26C82.72,83.83,72.66,85.2,69,82.38c-3.48-2.68-8-4.08-11.89-5.93-3-1.42-8-4.9-11.41-4.52-1.29.14-3.3,1.92-2.33,3.33l.29.44c1.38,2,5.58-.71,4.21-2.7l-.29-.43-2.33,3.34c.55-.06,3.55,1.8,4.21,2.08,1.68.74,3.34,1.54,5,2.32,3.71,1.75,7.61,3.15,11,5.48,2.84,2,4.75,2,8,2.82,1.24.33,5.73,1.35,6,2.69.51,2.09,3.39.9,4.19-.27L82,92.19l-1.88-.64c1.59,1.78,3.32,3.21,5.75,3.44s4.7-3.75,1.61-4Z"/><path class="cls-3" d="M57,138.15c1,.37,1-1.8,1.4-2.76,1.4-2.77,5.09-2.85,5.41-5.65-2.17-.08-3.57,2.68-4.49,4.17-.12.32-1.84,3-1,1.8Z"/><path class="cls-3" d="M87.29,133.41c3.57.24,4.81-4,7.77-5.13,7.78-2.21,12.35,3.16,16.6,8.41,2.41,2.36,4.69,5,7.34,6.76,4.53,3.53.28-1.72-1.29-3.4-4-4.81-9.38-10.1-15.35-12.7C97,125,89.69,127,87.21,132.65l.24-.64Z"/><path class="cls-3" d="M66.89,145.89c4-1,6.85-6.58,10-9.07,5.57-4.13,11.38-8.9,15.58-14.27,2-2.53,3.17-6.5,6.73-6.26s7.34,3.84,9.43,6.09a205.37,205.37,0,0,1,14.8,19.07c2.89,4,4.13,8.49,7.46,12.3,2.81,3.24,5.74,6.17,10,7.41-3.61-2.08-6.62-8.7-8.67-12-.72-1-1.69-1.36-2-2.57-.21-.43.8-1.16.28-1.72-.41-.88-1.81-1-2.33-1.6s-1.16-.8-1.37-1.24c-.31-.12.37-1,.17-1.4-1-1.13-2.65-1.73-3.25-3.05-.2-.44,1.12-1,.6-1.6-.08-.77-1.17-.81-1.69-1.36a17.42,17.42,0,0,1-1.28-3.41c-.08-.76-1.16-.8-1.36-1.24s.48-1.29.15-1.41a23,23,0,0,0-3.12-3.36c-1.57-1.69-3.53-4.25-5.42-6.05-1.44-2-2.65-4.65-4.73-6.89-1.89-1.81-4-4-6.1-5.21-1.36-1.24-6.81-3.29-5.21.24a1.94,1.94,0,0,0-.76,3c-2,1.44-1.56,4.17-2.6,6s-5.81,1.85-4.81,4c-3.17.65-5,4.69-7,6.9-2.16,2.85-3.84,7.34-6.53,9.62-2.24,2.09-5.45,3.82-7.81,6.22-1.56,1.25-2.16,2.85-3.73,4.09-1.12,1.05-4.28,1.69-4.45,3.09,1.49.92,9.54-3,9.38-4.53Z"/><path class="cls-4" d="M103.31,99.18c-.9,2.4,1.8,4.58,3.72,5.69,3.17,2,3.73,2.56,3.47,6.37,3.85-.9,2.14,1.59,2.66,3.34.81,3,3,1.49,4.75,3,.9.73.39,2.1.94,2.7.43.94,1.72.64,2.49,1.71,1.67,1.79,2.27,4.36,3.94,6.15,1.11,1.2,3.25,2.78,4.45,4.8.86,1.88,1.24,4,2.44,6a15.35,15.35,0,0,1,1.76,2.61c.43.94-.09,2.31,0,3.12.94,2.69,2.95,1.5,4.37,4,.42.94-.09,2.31.55,3.72.09.81,1.2,2,1.63,2.95.22.47,1,.39,1.46,1.33.21.47-.39,1-.17,1.49a4.52,4.52,0,0,0,2,3.08c-8.26-5-13.83-14.15-18.63-22.19-2.48-4.84-3.56-10.32-6.64-14.59-2.87-3.81-7.41-6.29-10.15-10.44s-3.64-11.12-8-14c-4.28-3.16-4.92,2.45-6.11,6.69-1.24,5.39-4.49,8.08-8.34,12.11-1.46,1.8-6,6.72-5.65,2.57s6.29-7.41,8.38-10.92c2.44-3.38,4.62-9.2,4.44-14C92.6,85,76.81,86.53,70.82,79.6c-.77-1.07-1.37-.51-.09-.82,1.41-.64,5,1.12,6.42,1.63,4.71,1,9.38,3.12,14.55,3.88,10.92,2.14,12.53-13.65,13.73-21,.85-4.37.29-8.09,2-12.54,1.92-5.14,2.35-1.07,2.7,2.18-.34,9.24-3.93,18.83-5.64,27.56-.77,2-1.19,4.24-2.09,6.63,1.93,1.12,1.88-.85,3.17-1.15,1.62-.18,1.49.17,3.21.81,2.05.77,4.32,2,6.76,1.75,2.78-.13,4.92-1.67,7.57-1.46,3,.34,4.5.51,7.06-.09s4.58-1.8,7.27-2.74c2.57-.6,4.41-.3,7.41,0,5.52.89,9.67-1.85,15.28-3.26,2.56-.61,5.6-1.42,8.29-2.36,2.1-.39,7-4,8.69-3.39-2.18,2.7-3.12,3.13-5.95,4.41-2.69,1-4.74,3.3-7.1,4.37-2.22.73-5.56.26-7.91,1.33-1.42.64-1.67,1.33-3.08,2-.82.09-1.24-.85-1.72-.64-.81.09-1.19,1.12-2,1.2-2.44.26-5.17-.77-7.53.3-1.28.3-2.26,1.89-3.21,2.32-.81.08-1.24-.86-2.05-.77-.47.21-1.75.51-2.23.73-1.15,0-2.18-.43-3.33-.47-1.5-.17-1.76.51-3.64,1.37-2.22.73-5.69.6-8.26,1.2-.81.09-1.19,1.12-2,1.2s-1.37-.51-2.18-.43c-1.63.18-2.7,1-4.45,1.46-2.1.39-5-.29-5.65,2.57h0c.13-.34-.09-.81,0-1.15Z"/><path class="cls-4" d="M53.63,150.33l1-2.57c1.35-2.74,2.49-2.31,5.13-3.28,2.84-1.53,2.77-4.8,4.87-6.94,1.49-1.39,2.35-1.07,3.91-1.78,1.75-.32,2.74-1.25,4.42-2.25-1,2.57-2.35,3.67-4.81,5-2.06,1.18-3,2.78-4.41,4.85-1.53,2.35-2,3.49-4.59,4.45-2.24.79-3.31,1-4.84,3.39-.18-.4-.64-.89-.82-1.28Z"/><path class="cls-4" d="M108.93,38.19a10.53,10.53,0,0,1,.64-4.3c.42-1.15,1.42-2.07,1.85-3.21.85-2.28,0-4.24.42-6.34-.39,2.78.65,6.09.54,9,.14,1.36-1,7.09-2.88,5.1Z"/><path class="cls-4" d="M39.42,65.11c.25,1.07,2.42,2.2,3.56,2.63,1.32.82,5.87,2.52,7.51,2.49-.61-1.85-11.29-7.15-11.89-6.4Z"/><path class="cls-4" d="M142.38,152.7c1.18,2.06,1.61,6.12,3.85,7.94,2.1-2.14-1.36-7.65-2.14-9.9-1.21-3.7-1.46-7.37-4.35-10.07-.67,2.67.89,4.56,1.68,6.8a31.45,31.45,0,0,1,1.61,6.12c.39-.18.6-.75.71-1Z"/><path class="cls-5" d="M139.14,129.31c-.51-1.59-.41-3.11-.86-4.64,0-.09-1.53-1.41-1.52-1.43a6.16,6.16,0,0,0-.13-2.73,9.4,9.4,0,0,0-.74-2.38c-.22-.5.55-.89.55-1.36,0-2.24-1.26-2.66-.55-5.3a10.77,10.77,0,0,0,.67-3.43l-1,.53c2.41-.11,2.54-1.75,4-2.32s2.67-2.08,4.25-2.89.86-1.27,1.35-2.56l-1.3.42c3.59,1.22,6.45-2.7,10-3,.16,0,1.3-.26,1-.6.78.12,1.21-.07,1.3-.57-.08.49,1.28.06,1.44-.22,1.17-2.12,1.6-2.47,3.61-3.23,2.62-1,5-3.17,8.08-3.76.23,0,.77-.15.84-.43.2-.75,3.22-3.45,3.7-3.64,1.55-.59,3.17-4.59,4.66-4,.32.12,1.18,0,1.31-.42.5-1.47,6.36-10.33,2-10.73-1.86-.17-3.12.38-4.94-.34-1.13-.45-2.24.67-2.89,1.33l1.34-.29c-1.92-1.52-6.1-2.7-7.51,0l1.44-.31c-1.1-2.4-7-1-8,1l1.31-.42c-1.46-.68-3.71-.21-5-1.07a1.25,1.25,0,0,0-1.4.38c-.44.74-.85,1.5-1.24,2.27l1.31-.42A19.49,19.49,0,0,1,152.33,71a1.31,1.31,0,0,0-1.34.29c-.89.9-.61,1.24-2,1.61-1.14.31-1.4.76-2,1.69l1.3-.42c-1.43-.51-6.7-1.41-7.27.15,0-.1-.05-.16-.13-.19l-2.4-.9c-.32-.12-1.16,0-1.3.42s-.35.91-.52,1.37l1.4-.37a25.2,25.2,0,0,0-5.35-1.18c0-.1-.19-.13-.26-.13a3.85,3.85,0,0,0-1.69.06c-1.85.69-2.28-.59-3.43-1.54-1.53-1.26-4.18-3.63-2.39-5.79.07-.08.1-.15,0-.23-1.59-1.64.22-3-.86-4.08s.74-1.23.24-2.14c-.63-1.14-1.45-2.12-2-3.3-.84-1.84.71-2.82,1-4.4.19-1.12-1.14-2.06-1-3.37a9.8,9.8,0,0,0-.63-4.42c-.28-.85-.31-8.67-.38-8.65,2.12-.75-.82-4.25-1.35-5.1-1.38-2.22-.17-4.84-1.47-7.14s-5.49-5.58-7.11-1.78c-.06.15.16.21.26.21l.35,0c.25,0,1.14-.08,1.18-.44.06-.17.13-.33.19-.49.33-.46-1.1-.22-1.33.06-.33.69-.88.73-1.66.13-.29-.06-1.34,0-1.31.5.2,3-2.44,2.92-2.9,5-.37,1.61.52,2.56-.47,4.21a33.25,33.25,0,0,1-2.08,3.55s-.63,2.57-.23,2.31c-1.78,1.19-2.24,4.16-2.47,6.06s-1,10-3.39,10.43a1,1,0,0,0-.91.6c-.26.71.73,2.1.44,3.32-.33,1.38-1.31,2.44-1.57,3.87-.08.45,1.3.13,1.44-.23,0-.11.08-.23.13-.34s-.31-.23-.42-.22c-3.78.24-3.79,3.12-4,6.44l1.32-.5-1.72-.64c-.25-.1-1.27,0-1.3.42-.28,2.93-8.12,2.21-9.09,1.55a1.31,1.31,0,0,0-1.34.29l-1.46,1.8,1.39-.22c-.87-1.41-1.28-1.84-2.85-1.36-2.26.7-4.08-1.42-6.19-2.09-1.68-.53-2.25.84-4.32-.44-1-.59-2.08.29-2.73.83l1.28-.14a7.13,7.13,0,0,0-1.24-2.08c-.21-.28-1.05,0-1.24.2a8,8,0,0,0-1.3,1.2L63.28,65c-1.17-2.59-4.59-2.55-6.73-4.13a1.29,1.29,0,0,0-1.34.29l-.73.9,1.35-.29c-1.17-1.43-4.14-1.95-5.79-2.57a1.44,1.44,0,0,0-1.15.25c-2.22,1.86-8-3-8,2.4l1.31-.5c-.82-.41-1.54-.48-2.39-.9a1.3,1.3,0,0,0-1.31.42,12.17,12.17,0,0,1-2.13,2.61l1.38-.14c.05-.12.09-.23.13-.35l-1.43.23c-.57,1.52.25,1.18.29,2.29s1.59,4.31,1.49,4.76c-.55,2.37,6.74,4.6,6.06,6.43,0,.1,0,.16.12.19,1.07.4.92,1.23,1.73,1.86a9.1,9.1,0,0,0,3.91,1.7c1.8.38,1.33,3.46,3,3.2.12,0,4.32,4,4.45,4.26.77,1.38,2.16.08,1.19,1.49,0,.06-.12.18,0,.23s2.27,1,2.1,1.44c0,.1,0,.16.13.19,1.26.47.5,2.61,2.07,2.91,1,.2,1.55-.12,1.75.65.14.52.84.84,1.22,1.08.68.42.44,2.3.87,3A33.79,33.79,0,0,1,68,103c-.06,0-.1.17,0,.23.85.31,1,.93.4,1.86a.15.15,0,0,0,0,.23l.3,3.11a.12.12,0,0,0,0,.14,2.48,2.48,0,0,1,1.05,1.72l1.18-.52-.57,0c-.31,0-1.17.09-1.19.52,0,1.16-1.42,2.69-1.14,3.75.42,1.55-1.5,2.58-2,4-.44,1.29-.64.92-1.17,2.12-.38.85-3,7.09-3.16,7.12-1.55.29-4.49,3-4.11,4.71-.13-.59-1,3.08-1,2.87-.59,2.5-2.38,3.68-3.88,5.53s-1,4.29-2.68,6.26a.17.17,0,0,0-.06.16c1.65,2.48-1.69,4.91,0,7.4.24.36,1.31.06,1.44-.31l.39-1-1.4.37c.89,1.23.84,1.9,2.1,2.74a1.28,1.28,0,0,0,1.34-.29c1.31-1.92,4.61-1.31,6.37-2.06,2.12-.91,2.91-3.6,5.41-4a3,3,0,0,0,2.69-2.29l-1.39.37a5.19,5.19,0,0,0,2.14.82c.3.07,1.23,0,1.31-.42.73-3.64,4.5-1.84,5.73-4.89l-1.31.42c3.65.79,4.21-4.11,7.32-3.53.31.06,1-.1,1.18-.44.73-1.8,6-4.88,7.78-5.55,1.41-.51,1.45-1.72,3.26-1.76,2.05,0,4-.71,6.13-.6.21,0,1.63-.42,1-.64l-.34-.12c-.2-.08-1.53.16-1.32.5,1.26,2,3.18,1.14,4.76,0l-1.29.14c.87,2.87,4.12,2.42,5.31,4.86.86,1.74,5.48,2.75,4.76,4.68,0,.11,0,.16.13.2,1.23.46,7.93,6.05,8.07,7.36.31,2.88,3.61,5.15,5.48,2.26l-1.44.31c.41,3.79,4.24,6.19,7.21,8,3.14,1.93,5.59,5.42,9.23,6.42a2.61,2.61,0,0,0,1.3-.07c.85-.23,0,.36,1.13.86,1.53.66,2.68-1.41,3-2.39l-1.31.42,1.37.52c.34.12,1.16-.06,1.31-.42.27-.65.42-2.35.74-2.49.11-.06.41-.25.25-.4a11.45,11.45,0,0,1,.68-1.57c.07-.15-.17-.2-.26-.21-1.33-.23-.21-.82-.2-1.13.08-1.4-1.64-2.48-.46-3.58a.2.2,0,0,0,.07-.16,24.39,24.39,0,0,1-1-4.58c-.39-1.75-1.44-1.7-.93-3.86,0-.11,0-.15-.13-.19-2-.87-3.78-6.17-3-8a.12.12,0,0,0,0-.15c-2.25-2.31-5.18-5.75-5.52-9,0-.35-1.5-.06-1.45.39.15,1.47.79,2,1.06,3.43.31,1.67,2,2.05,2.69,3.63.51,1.2,2.14,5.19,1.65,6.59,0,.1,0,.16.13.19,1.69.47,3.16,4.1,2.45,5.46-.06.1.06.15.13.19,2,.93,3,5.82,1.38,7.3a.15.15,0,0,0,0,.23q2.73,1.25.8,3.06c-.06.05-.26.23-.11.32,1,.58,1.17.76.56,2a.12.12,0,0,0,0,.15c-.17-.15-.36-.1-.56.15-.09,0-.36.2-.3.33,0,.75-.05,1.49-.08,2.23l1.31-.42-1.37-.51c-.32-.12-1.17.05-1.3.42l-1.65.44c-.2-.29-1,.07-1.24.21-1.39.94-6.64-4.67-7.89-5.53-3.1-2.12-7.79-4.32-8.24-8.55,0-.46-1.31.09-1.45.3-1.08,1.67-2.62-2.73-2.37-3.6a.15.15,0,0,0-.13-.19s-4.17-3.61-4.23-3.87-.31-.14-.42-.14l-.92-1.45c0-.11,0-.15-.12-.19-1.11-.41-2.64-.76-2.1-2.2a.16.16,0,0,0-.13-.19c-2-.55-5.54-2.27-5.48-4.73a.18.18,0,0,0-.13-.11c-2-.4-4.16-1.09-4.83-3.31-.12-.39-1.1,0-1.29.14l-2.18-.26-1.31.5c.4.14.8-.63.36-.69a9.08,9.08,0,0,0-2-.11c-1.24,0-2.18.78-3.37.88a10.15,10.15,0,0,0-2.75.26c-1.12.43-1.19,2-2.7,1.72a1.44,1.44,0,0,0-1.13.36c-1.22,1.83-5.19,5-7.33,5.12-1.77.08-4.07,4.1-5.06,3.89-.35-.08-1.15,0-1.31.42-.31.78-3.36,1.9-4.15,1.9-.25,0-1,.14-1,.45-.21.84-.4,1.68-.56,2.53l1.31-.42-2-.73c-.35-.18-1.24,0-1.4.38-.87,2.21-2.26,1-3.5,2.1-1.67,1.47-2.72,3-4.9,3.38s-4.72.87-6,2.7l1.34-.29a15.05,15.05,0,0,1-2.1-2.74c-.22-.31-1.29.08-1.4.38l-.38,1,1.44-.31c-1.48-2.23.92-3.72.61-5.91s1-4.27,1.42-6.28c.57-2.79,3.91-4.09,4.61-7,.47-1.89,1.85-6.44,4-6.83.2,0,.79-.16.84-.43.31-1.72,2.87-7.52,4.54-8.48.09-.06.35-.19.3-.34A4.16,4.16,0,0,1,70,114.66c.1-.08.22-.19.11-.32-.54-.65.52-3.38.56-4.42l-1.19.52.58,0c.23,0,1.28-.12,1.19-.53-.38-1.66-1.35-4.5-.59-6.19a.12.12,0,0,0,0-.15c-.75-.52-.86-.84-.47-1.61a.11.11,0,0,0,0-.14c-1-.92-1.48-1.63-.78-2.9.06-.09-.06-.16-.13-.18-1.88-.74-1-1.32-1.15-2.72s-2-.28-1.76-2.53c0-.4-.81-.15-1-.09l-2.06-2.22c0-.11,0-.15-.13-.19-.72,0-1-.16-.77-.53a.12.12,0,0,0,0-.15c-1-.56-2.26-1-1.43-2.25.28-.4-.56-.29-.73-.24l-1-1.3a.15.15,0,0,0-.13-.19C57.21,86,54.94,85.1,55,83c0-.19-.51-.13-.6-.12s-2.2-2.9-2.22-2.94c-1.19-1.48-5.08.64-5-3a.18.18,0,0,0-.14-.11c-.55-.2-1.24-.31-1-1a.15.15,0,0,0-.13-.19c-5.65-1.34-.64-1.34-1.67-1.79-1.63-.71-4.89-2.14-4.33-4.6a.12.12,0,0,0,0-.15c-.65-.38-2.43-2.8-1.61-3.88.07-.08.09-.14,0-.22-.12-.66-.23-1.31-.35-2,.13-.34-1.28-.17-1.43.23-.05.12-.09.23-.13.35-.17.44,1.22,0,1.38-.15A12.72,12.72,0,0,0,40,60.63l-1.31.42c.78.38,1.61.51,2.39.9.3.14,1.31-.09,1.32-.5,0-2.54,5.21-.71,6.92-1.36.93-.36-1.57-.35.28.61,1.36.72,4,.44,4.92,1.58.24.29,1.15-.06,1.34-.29l.73-.9-1.34.29c1.51,1.12,5.92,2.43,6.63,4,.18.41,1.18,0,1.38-.23.34.38.68.75,1,1.13s1.08,0,1.29-.14c-.43.35,5.51.55,5.69.61,1.6.51,2.68,1.82,4.29,2.24,1.42.37,2.24-1.62,3.54.48.23.37,1.18,0,1.39-.22l1.45-1.8-1.34.29c2.56,1.74,11.5,1.77,11.88-2.3l-1.3.42,1.71.64c.33.12,1.28-.07,1.31-.5a44.49,44.49,0,0,1,1.42-5.26L97,60.51c.29-1.59,2-3.39,1.82-5s-1.08-1.64,0-2.26c3-1.8,1.12-6.06,3.84-8,.07,0,.2-.14.16-.25-.87-2.8-.14-7.14,2.49-8.9,0,0,.21-.16.16-.25-.79-1.61,2.08-6.17,3.1-7.24.08-.08.09-.15,0-.23-2.07-2.4,1.18-3.93,2.38-5.13a.18.18,0,0,0,.06-.16,4.71,4.71,0,0,1-.39-2.09l-1.31.5c.86.18,1.46.3,2.31.44a1.39,1.39,0,0,0,1.12-.36c.68-.58.41-.77-.81-.54.45-.63,2.2-.55,3.08.08a8.27,8.27,0,0,1,3,4.42c.17.63,0,2.65.1,3.44.18,1.1,3.59,5.72,1.76,6.37-.16.06-.59.25-.42.47,1.5,1.89,1,5.75.48,7.86a12.08,12.08,0,0,1,.75,1.73,7.35,7.35,0,0,1-.06,4.77.12.12,0,0,0,0,.15l-.27,3.83c-.06,0-.2.16-.16.25.34.8,2.8,6,1.88,6.64-.1.07-.23.2-.12.32.45.46,1.21,4.68.92,5.64-.75,2.42,2.21,2.8,2,5.08,0,.16.11.2.26.21,1.8.13,1.73,2.13,3.66,2.24.82,0,2.45-1.19,2.58.07,0,.1.2.12.26.13,1.59.28,3.67-.5,5.09.36.33.19,1.25,0,1.4-.38l.51-1.37-1.3.42s2.29.63,2.13,1,.69.19.8.16a10.32,10.32,0,0,1,6.86-.27,1.33,1.33,0,0,0,1.31-.42c.83-1.27,1.62-.84,2.66-1.38.63-.32.75-1.26,1.22-1.75l-1.34.29A26.14,26.14,0,0,0,155,73.4a1.33,1.33,0,0,0,1.31-.42c.39-.77.8-1.53,1.24-2.27l-1.4.37c1.82,1.24,3.06.19,5.14,1.16a1.31,1.31,0,0,0,1.31-.42c.5-1.11,5-.43,5.06-.38.19.42,1.29,0,1.44-.31.87-1.69,3.91.07,4.72.71.33.26,1.1,0,1.35-.29l1.78.29c.2.21.72,0,.94,0,7.78-2.58,2.42,3,2.57,4-.07-.46-2.18,5.76-2.18,5.74l1.31-.42-1-.38a1.36,1.36,0,0,0-1.25.33c-.41.55-.89.51-1.44.9-1.22.88-1.11,3.23-3.2,3.28-.23,0-1,.13-1,.44-.28,2-1.13,2-2.46,3.12s-3.78.5-5.56,1.46c-1.52.81-2.75,2.48-4.34,2.91-2.12.56-2.22,2.09-3.21,3.86l1.44-.22,0-.23c0-.22-.26-.23-.41-.22a8.58,8.58,0,0,0-3.67,1.37c-.1.07-.22.2-.11.32a.46.46,0,0,0,.07.07l1-.59a8.21,8.21,0,0,0-5.23,1.77c-.75.63-3.49,1.5-4.2,1.26-.33-.12-1.16,0-1.3.42-.5,1.31-3.2,4.71-5,4.65-.24,0-1.15.08-1.18.44l-1.37,1.78c-.27,0-1,.15-1,.53,0,1.75-.92,2.9-1,4.52-.07,2,1.54,3.23.11,5.11-.07.09-.1.15,0,.23a6.77,6.77,0,0,1,.91,5.68c0,.1,0,.16.12.19q2.63,1.57,1.25,3.45a.1.1,0,0,0,0,.14,3.16,3.16,0,0,1,1.15,1.95C137.82,130.1,139.26,129.68,139.14,129.31Z"/><path class="cls-5" d="M54.37,150.82c-1.46-5.89,4.8-3.75,7.1-6.12.48-.49-.07-2.37.59-2.52a3.39,3.39,0,0,0,2.21-2,21.12,21.12,0,0,0,1.1-2.89c.18-1,2.88-1.62,3.67-2.38,1.33-1.27,3.26-2.12,4.68-3.22,1.59-1.22,2-4.31,3.14-5.94.31-.45.1-1,.08-1.54-.12-3.35,1-2.1,2.44-2.75,1.78-.84,4.73-3.17,5.19-5.1.52-2.24,2.71-3.21,3.66-5.66.66-1.71,2.46-2.83,2.89-4.68.82-3.53.57-6.29,4-8.12.87-.47.09-1.29-.65-.9-2.74,1.45-3.4,1.23-4.21,4.55-.46,1.91-2.53,11.72-6.06,11.93-.31,0-.79.24-.8.6-.14,3.9-4,5-6.63,7s-1.11,9-5,10.09a.78.78,0,0,0-.6.56c-.35,1.66-5.44,2.85-6.57,3.72-1.63,1.26-1.75,5.37-4.16,5.93-.29.07-.7.37-.59.71,1.13,3.54-3.7,2.23-5.09,3.3a6.42,6.42,0,0,0-1.92,5.76c.18.69,1.63.31,1.45-.39Z"/><path class="cls-5" d="M94.48,91c-1.4-1.34-4.74-3.86-6.87-3.16.24-.08-5.1-2.45-5.24-2.63-1.38-1.64-2.84-1-4.09-2.82a1.69,1.69,0,0,0-1.36-.41c-1.79.17-2.8-.69-4.22-1.77-2-1.56-3.08.67-5.75-2.19A3,3,0,0,0,64.57,77c-1.85.18-1.72.07-3.59-1.35-1.42-1.09-2.14-.78-3.78-1.09-1-.19-1.55-2.21-2.42-2.72a.73.73,0,0,0-.48-.08c-1.44.23-2.39-.67-3.31-1.68-1.42-1.55-4.27-1.7-6-2.76-1.15-.68-5.64-3-5.5-4.3l-1.16.51.73.28c.54.2,1.7-.57.86-.88l-.73-.28c-.34-.13-1.11.08-1.16.52l-.12,1.06a.29.29,0,0,0,.16.31c2.88,1.3,5.28,3.94,8.29,4.87A16.36,16.36,0,0,1,51,72.19c.5.36.8.76,1.39.73,2.3-.14,2.18,1.85,3.94,2.56,1.44.58,2.63-.67,3.8,1.69.2.39.56,1,1,1.08,2.21.55,4,.29,6.14,1.74a6,6,0,0,0,2.58.64c6.35.81,1.51,1.91,4.12,2.38,1.46.26,3-.1,4,1.2s2.73,1.17,3.9,2.57c.23.28.69.17,1,.07,1.2-.47,2,1.29,2.41,2,.1.17.42.17.59.16a9.64,9.64,0,0,1,7.31,2.51c.42.4,1.79-.17,1.33-.6Z"/><path class="cls-5" d="M102.26,86c3.16-3.44,3.2-6.15,4.31-10.63.32-1.29-1.75-1.45-.48-2.49,1.43-1.15,1.38-2.75.33-4.16l-.76.75c2-.11,2.94-1.62,3.87-3.21a10.52,10.52,0,0,0,1.25-4.16c.26-2.39-3.48-5.08.21-7.3,1.67-1,1-4.59.92-6-.18-3.36-1.58-7.62,1.48-10.38a.39.39,0,0,0,.14-.35c-.75-2,.85-3.47.35-5.35a18.69,18.69,0,0,1-.18-6.59c.09-1.12-.7-2.82,0-3.88.38-.62-1.09-.53-1.37-.08-.94,1.52,0,3.84-.16,5.56-.2,2.41.68,5.87-.23,7.95-.18.41-.64,3.21-.75,3.28-.66.45-1.79,1.67-1.51,2.6.4,1.32-.88,4.3-.28,5.14,1.14,1.58,1,6.7-.28,8.18-1.13,1.29-1.19,2.3-.86,4s1.21,2.45,1,4.26c-.15,1.36-1.55,5.29-3.4,5.4-.28,0-1.06.34-.75.75-.13,1-.25,2-.37,3-.31,0-.87.25-.81.64.18,1.15,1.53,2.78.58,3.86a2.84,2.84,0,0,0-.54,2.21,12.81,12.81,0,0,1-2.86,6.66c-.59.65.82.71,1.18.31Z"/><path class="cls-5" d="M107.58,90.88a3,3,0,0,0,2.81-.36c2.47-1.6,1.94-.66,3.55-1.1S120.33,87.5,122,88a1.12,1.12,0,0,0,1-.28c.43-.48,3.24.39,4.43-.28s3.5-.12,4.94-.5a15.23,15.23,0,0,0,3.21-1.59c2.31-1.3,4.33-1,6.8-.88a3,3,0,0,0,1.49-.46c.46-.27,3.58.75,4.61.6,1.6-.22,4.52-.59,5.87-1.4a9.51,9.51,0,0,1,5.52-1.64,4,4,0,0,0,2-.64c1.83-1.17,3.66-.94,5.55-1.45,1.17-.31,2.36-1.82,3.55-1.82,3.63,0,5.66-3.51,9.23-3.85.74-.07,1.18-1,.18-.87a10.05,10.05,0,0,0-4.73,1.89c-1.82,1.17-3.61,1.26-5.44,2.06-3.26,1.42-9,3.61-12.5,3.33a4.31,4.31,0,0,0-2.88,1.35c-1.2,1.27-7.78,2.21-8.27,2.09-.93-.24-2.06-1-3-.48-1.29.76-2.48-1.13-3.86-.48-1.22.57-3,.71-4,1.42-2.71,2-5.53,1.14-8.25,2.33-.91.4-5.95.35-6.85.13a2.28,2.28,0,0,0-1.85.67c-.46.52-2.91.39-3.6.57a5.23,5.23,0,0,1-2.27.36c-1.69-.09-2.76,2.23-4.44,1.91-.5-.09-1.71.68-.87.84Z"/><path class="cls-5" d="M145.07,160.93l.43-.39c.13-.12.25-.35,0-.43-2.62-.89-1.89-2.08-2.18-4.07a33.18,33.18,0,0,0-2.22-3.95c-1.14-1.7-1.7-3.6-2.86-5.21.1.14-.87-.72-1.26-.79-2.18-.41-1.24-2-1.07-3.57.12-1.11-2.62-3.26-3-4.21a5.32,5.32,0,0,0-1.06-2c-1.22-1.81-1.15-2.41-1.43-4.51-.21-1.58-3.07-1.3-3.39-2.88-.54-2.73-2.76-4.18-3.86-6.66-1-2.27-3.77-1.51-4-3.54-.22-1.76-1.41-2.32-2.91-2.85s-2.1-4.34-3.56-5.58A2.2,2.2,0,0,0,111,110c1-.26.69-1.85.14-3-.67-1.4-3.22-1.16-3.74-2.44-1-2.37-4.79-3.52-3.48-6.57.17-.41-1.26-.25-1.45.2-1.34,3.13,2.78,5,3.84,7.65a.35.35,0,0,0,.28.18l2.89,4.69c-.32.51.74.35.94.26,2.3-1,1.9,3.7,2.68,4.9.19.3.73.41,1.09.47,3.93.67,3.3,2.17,3.92,4.76.07.28.64.2.82.14,3.47-1.15,5.72,8.2,7.8,9.29,2.59,1.36,2.08,4.27,3.8,6.27,1.19,1.38,3.91,6.67,3.46,7.92-.17.49-.07,1.71.6,1.82,3.13.52,2.82,3.15,4.54,5.16-.79-.93,1.75,4.32,1.42,4,1.67,1.6,1.46,1.74.9,3.24-.47,1.25,3,1.3,2.46,1.78s.84.49,1.15.19Z"/><path class="cls-5" d="M57.85,150.45c-.64-1.53,2.3-.86,2.87-1.14a16,16,0,0,0,1.16-1.17c1.83.33,1.83-1.76,2.85-2.26.78-.39.93-1.21,1.13-1.95.07-.25,1.23-.7,1.41-.92.62-.77,5-4.42,6-4.32a.94.94,0,0,0,.94-.45c.83-1.44,2.63-3,2.79-4.73.19-1.89,2.6-3.95,4.12-5.14a2.35,2.35,0,0,0,.76-1.56c0-.5,1.43-1,1.72-1.18,1.5-1.17.17-2.16,2.72-3.39a4,4,0,0,0,2-1.77,41.38,41.38,0,0,1,4.21-6.88,4.8,4.8,0,0,0,.47-1.78c.1-.44,1.73-.41,2-1.07.18-.4.31-4.77,0-4.3,1-1.67,3.43-3.18,5.09-1.25.2.23,4.11,4.48,4,5.49a1.48,1.48,0,0,0,.45,1,16,16,0,0,1,3.19,3.87,13.84,13.84,0,0,0,3.47,3.69c1.77,1.16,2.68,3.89,4.14,5.66,1.29,1.56,2.34,3,3.47,4.53a4.62,4.62,0,0,0,1.72,1.31c1.15.53.76,1,1,2.09,0,0,2.87,4.57,2.24,2.91.81,2.16,1.64,3.12,2.32,5.65a2.53,2.53,0,0,0,1.07,1.66c1.3.64,1,2.44,2,3.21,1.31,1.09,1.23,3.4,2.32,4.21,1.48,1.11,2,.92,1.83,3.15a.41.41,0,0,0,.18.38c3,1.91,4.85,4.84,7,7.57a.76.76,0,0,0,.8.2,2.7,2.7,0,0,0,1-.47c.81-.55-.36-1.12-1-.71,1.16-.77-3.82-4.94-3.81-4.92-1.48-1.52-2.7-2.33-2.68-4.62a.48.48,0,0,0-.32-.46c-3-1.49-2.72-6-5.06-8-1.32-1.13-1.84,1.56-1.94-2.8,0-.52.07-1.22-.29-1.61s-4.52-6.07-4-7.22a.45.45,0,0,0-.29-.6c-1.26-.5-3.27-1-2.84-3,0-.21-.15-.38-.32-.46-2.32-1-4.74-4.16-5.79-6.41-.52-1.11-3.06-3.74-3-4.33a.46.46,0,0,0-.32-.46c-.76-.35-5.23-4.74-4.75-6a.46.46,0,0,0-.29-.61c-3.16-1.46-3.27-6.6-7.74-6.31-2.21.14-5.12,2.88-4.47,5.24,1,3.62-1.62,1.81-1.9,3.77-.07.51-2.91,5.29-2.93,5.31-1.73,1.33-1.82,3.55-3.92,4.57-1.7.82-1.41,3.27-3.46,3.39-.32,0-.77.23-.79.6-.12,1.8-2.86,4.16-4.08,5.21a65.47,65.47,0,0,0-3.18,6.54c-1.58-.18-2.66,1.07-3.64,2.19.15-.17-4.83,2.81-4.27,2.83a.81.81,0,0,0-.79.61,1.76,1.76,0,0,1-.94,1.8c-.33,0-.77.23-.8.61l-1.39,1.29a.86.86,0,0,0-1,.6c-.35,1.89-5.54-.39-4,3.38.28.68,1.72.27,1.45-.39Z"/><path class="cls-5" d="M67.4,147.32c1.65-3.14,5.59-4,8.22-6.51.92-.87,1.48-.76,2.2-1.41,2.71-2.43,5.39-8.84,8.64-10,1.65-.58.86-3.06,2.77-3.3,1.31-.17,1.68-.77,2.12-1.82.91-2.16,4.82-3.36,5.33-6.34.12-.72.08-1,.49-1.35,1.75-1.73,2.23.45,3.28,1.06a13,13,0,0,0,3.71,1.81c2,.42,1.81,2,3.07,3.09s5.09,4.11,5.93,5.76c.64,1.24.59,1.67,1.87,2.68s1.12,2.67,2.09,3.56,2.06,1.41,2.57,2.42.34,1.89.94,2.93a23.18,23.18,0,0,0,2,2.13c1.31,1.49,1.63,3.33,3,4.7,2.6,2.66,3.09,7.13,6.85,8.75.46.2,1.78-.46,1.15-.73-1.55-.67-2.57-3.27-3.53-4.34-2.07-2.3-3.57-5.46-5.32-8.08a55.55,55.55,0,0,1-4-6.56c-.51-1-1.82-.92-2.5-2.29s-.51-2-1.86-3.07-1.3-2.41-2.27-3.49-2.48-1.65-3-3.38c-.2-.68-1.2-1-1.73-1.28-1.91-.89-1.55-2.64-3.14-3.37-1.83-.84-3.62-1-5.21-2.51-.45-.43-.92-1.31-1.58-1.47-2-.5-2.34.82-4.16,1.69-.17.08-.51.27-.43.52.45,1.37-2.38,5-3.81,4.79-.27,0-1,.16-1,.52-.09,2.39-1,2.5-2.92,3.34-1.27.55-.54,2.72-2,3.22-3.71,1.3-4.48,9.45-8.34,9.67-1,.05-1.16.22-1.9,1S72,141.09,71.34,142c-1,1.48-1.59,1.22-3.09,1.88-1.17.52-1.67,2.35-2.21,3.37-.33.64,1.13.51,1.36.06Z"/><path class="cls-5" d="M86.85,134.73c0,.13,4-4.94,4.62-5.06,1.2-.23,1.94.21,2.34-1.37.21-.82,1.37-.27,1.94-.65,1.44-.93,1.54-2,3.55-.94a1.08,1.08,0,0,0,.86,0c1.42-.61,5.52.7,6.09,2.23.38,1,1,1.06,1.87,1.39,1.66.62,1.11,2.54,2.37,3.05,1.82.73,1.8,2.31,3.44,3.48a16,16,0,0,1,4.88,5.32c.79,1.31,2.93,2.41,4.42,1.93.86-.28.66-1.09-.21-.81s-3.81-1.7-3-2.91a.28.28,0,0,0-.11-.41c-1.91-1-6.3-4.49-6.34-6.87,0-.34-.36-.38-.64-.36s-5.53-4.89-5.62-5.14c-.61-1.62-3.8-2-5.13-2.33a3.5,3.5,0,0,0-1.47.26c-1.19.32-1.68-.62-2.71-.68-1.94-.1-2.79,2.15-4.64,2.24a.88.88,0,0,0-.81.52c-.47,1.81-1.92.82-2.94,2.16-1.48,1.94-3.47,2.49-4.25,5.15-.17.58,1.3.37,1.45-.16Z"/><path class="cls-5" d="M41.2,63.2a13.74,13.74,0,0,0,4.57,3.68c1,.51,1.81-.3,2.9.5a15.31,15.31,0,0,0,3.44,1.88c3.23,1.3,5.93,2.73,9.43,3.52,4.67,1,8.14,3.24,12.45,5,2.22.9,4.56,1.79,6.69,2.7,1.56.66,3.07.53,4.6,1.21a19.69,19.69,0,0,0,6.72,1c1.28,0,2.66.62,3.94.1,1.74-.72,1.79-3.18,2.61-4.54A7.91,7.91,0,0,0,100,74.94c.6-4.42,1.35-.74,2.11-3.19.13-.41.44-3.49-.11-3.47a3.34,3.34,0,0,0,1.33-.17c1.31-.59,1.65-1.12,1.24-2.55-.86-3.06-.29-1.42.61-3.57.51-1.23-.06-1.85,1-3.08.72-.8,1-.82.82-2-.29-2.17,1.15-6,1.69-8A7.51,7.51,0,0,0,107,42l-1,.68c.59,0,2.47,0,2.45-1.13-.1-5.11,2.34-9,3.7-13.84.14-.5-1.32-.28-1.45.19-.34,1.23-4.81,14-4.13,14-.2,0-1.33.26-1,.67,2.53,2.8.91,7.78.69,11.21-.12,1.8-2.39,9-4.13,9.6-.12,0-.55.27-.44.47.56,1,1.64,3.21-.29,3.73a2,2,0,0,0-1,.55c-1.51,2.09,3.2,1.81-1,4.86-1.13.83-1.16,3.44-1.66,4.44-1.79,3.51-3.44,5-7.47,3.63-1.87-.66-2.45,1-4.53-.56-.47-.35-.76-.74-1.34-.67-2.61.31-4-2.25-6.55-1.77-1.9.35-5.93-2.36-7.33-3.37a14.38,14.38,0,0,0-4.7-1.85c-5.47-1.38-11.19-2.58-15.84-6-1.08-.8-.84-.69-2.26-.68-1.89,0-4.13-2.08-5.2-3.51-.29-.38-1.69.11-1.35.56Z"/><path class="cls-5" d="M48,62.62c.6,1.85,2.32,2.16,3.76,3.33a3,3,0,0,0,2.26.73c1.07,0,1,1.26,1.75,1.52,2.45.8,5.79,2.38,8.43,2.22,2-.12,3.33,1.38,5.18,1.16,3.06-.36,5.56,1.78,8.66,1.62,1.21-.06,2.3,1.38,3.46,1,1.81-.68,3.58.28,5.32-.65.89-.48,1.72.89,2.62.81a24.82,24.82,0,0,0,3.18-.58c3.2-.86,4.59-4.85,6.44-6.91a5.87,5.87,0,0,0,.55-2.29c1.15-.27,1.93-.82,1.91-2.09,0-1.63.94-2.79,1.24-4.31a26.89,26.89,0,0,1,1-4.77c1.19-3.18.31-6.91,1.85-10.15.35-.73-1.12-.7-1.38-.15C102.85,45.89,102,63.5,98.5,63.57c-.31,0-.92.3-.79.7a1.46,1.46,0,0,1-.5,2.26c-.3.1-.65.3-.6.67.1.73-3.2,5.68-4.64,5.39a2.09,2.09,0,0,0-1.35,0c-1.1.52-2.43-.54-3.68-.3a25.44,25.44,0,0,1-12.54-.87c-2.4-.89-4.8-1.31-7.15-2.08-.71-.24-2.15.48-2.74-.13-.33-.34-.7-.74-1.2-.7-1.6.14-6.72-1.37-7.55-2.57-.21-.32-1-.22-1.23-.22-1.43-.06-4.62-2-5.08-3.44-.2-.64-1.65-.24-1.45.39Z"/><path class="cls-5" d="M55.69,142.59l.17.28c.14.22.58.18.78.12l.32-.09c.2-.06.74-.3.61-.62-.43-1.05,6.49-9,6.54-9a2,2,0,0,0,1.41-.7c1.24-1.23,1.27-1.51,3-2.2a1.15,1.15,0,0,0,.59-1.24c-.3-1,2.16-2.84,2.34-4.42.45-4,6.21-5.93,5-10.43l-1,.65A3.8,3.8,0,0,0,79,113.8c1.37-1.7,3.78-2,4.33-4.21.43-1.71,1.74-2.19,2-4.09.32-2.63,2.51-4.36,1-6.76l-.94.76A2.91,2.91,0,0,0,87,94a2.57,2.57,0,0,0-1.6-.42c.26,0-1-2.06-1.38-2.44a1.93,1.93,0,0,0-1.44-.49c-.16,0-2.15-2.61-2.43-2.85a1,1,0,0,0-1.26.14c-.17.22-.35.43-.52.64l1.26-.14c-1.09-.89-1.72-2-3.27-1.59s-2.29-1.46-3.68-1c-.84.27-6.21-3.15-6.82-3.56-2-1.37-5.3-1.07-6.42-3.52a.6.6,0,0,0-.64-.26c-2,.19-3.54-1.68-5.41-2.41-1.42-.55-9.88-4.09-10-5.58-.06-.55-1.51-.22-1.45.39l.06.58a.31.31,0,0,0,.16.18c3.18,1.33,5.87,3.56,9.07,4.79,2.27.86,4,3.07,6.36,3,0,0,3.46,2.13,3.61,2.2,3.31,1.59,7.18,2.58,9.88,5.2a.81.81,0,0,0,.78.12c.67-.21,5.93,1.59,6.47,2a1,1,0,0,0,1.26-.14l.52-.64-1.26.14a4.15,4.15,0,0,1,2,3.18c.07.32.61.3.84.23,1.56.39,2.31,1.25,2.27,2.61,0,.32.63.28.83.22,2.5-.77,2.63,4.07,1.14,3.94-.34,0-1.24.27-.94.76.79,1.26-1.51,8.16-2.86,8.71-.21.08-.46.28-.42.54.2,1.43-4.24,5.65-5.74,5.45-.3-.05-1.11.2-1,.65.9,3.27-2.83,6.19-5,8-.29.25-.2,1-.21,1.18-.16,2.27-1,2.9-2.29,4-.14.12-2.83,4.47-3.68,4.39-.28,0-.83.11-1,.42-.67,1.69-4.35,6.65-5.84,7.45a2.56,2.56,0,0,0-1,.75c-.93,1.58.36.08,1,1.09-.3-.47-1.7,0-1.34.59Z"/><path class="cls-5" d="M65.75,124.92l.57,0c.33,0,.87-.28.8-.69-.11-.61,2.7-5.11,1.76-5.16a1.87,1.87,0,0,0,1.56-.58c1.5-2.12,2.6-4.4,4.29-6.74,0,0,.7-1,.65-1.41-.1-.93-.95-.49-.35-.54a3.38,3.38,0,0,0,2.11-1c2.25-3.67,4.66-7.84.76-11l-.65.89c4.63-.76-.79-6.28-2.69-7.29-1.11-.6-1.81-2-2.94-2.4s-1.6-.1-2.54-.84c-2.28-1.8-5.35-1.55-7.4-3.88-.88-1-2.47-.4-3.38-2.1-.27-.52-1.67,0-1.33.61,2.12,4,8.77,4.42,12.2,7.12a.94.94,0,0,0,.88,0c1.13-.5,5.36,4.29,5.36,4.86a.38.38,0,0,0,.3.39l1.7,2.56c-.37.06-1.17.46-.64.88,3.29,2.64.78,9.16-2.55,10.41a.58.58,0,0,0-.41.58c.12,1.11-1.92,5.94-3.4,6.08-.34,0-.87.26-.8.69.35.93.1,1.51-.75,1.72a1,1,0,0,0-1,.56c-.18.56-2.92,5.41-2,5.35-.79,0-1.14,1-.15,1Z"/><path class="cls-5" d="M72.66,105.75c.45-.92,1.08-1.87.64-2.89-.22-.52.54-1.27.83-1.84.56-1.1,0-2-.72-2.86a23,23,0,0,0-3.26-3.76c-.33-.27-1.64.29-1.36.51a20.09,20.09,0,0,1,2.51,2.86c1,1.23,2.06,2.18,1.24,3.79-.12.23-.9.79-.87,1.06.08.68.41.95.29,1.69a7,7,0,0,1-.73,1.68c-.14.28,1.24.16,1.43-.24Z"/><path class="cls-5" d="M115.45,31.55c1.72.64.44.56.08,1.41-.78,1.89,1.49,3,.22,5.3-.11.19-.27,8.33.18,8.05-2.1,1.33-1.21,3.77-.81,5.6,0-.19-.52.44-.69,1-.8,2.57-.78,5-2,7.51-.63,1.27-.51,1.23-.09,2.44.71,2-.91,2.93-1.93,4.53a8.88,8.88,0,0,0-.83,3.63c-.09.87.85,2.22.49,3-.57,1.33-.93,1.92-.38,3.29s.07,2.38.26,3.65c.22,1.43,2.54,1.2,3.39.81s.08-.95-.59-.64c-2.13,1-.95-2.29-1-2.59a7.66,7.66,0,0,1,.16-5.53c0-.1.1-.24,0-.32-3.46-2.72,1.94-6.11,2.42-8.36,0-.34,0-.68,0-1a10.91,10.91,0,0,1,.67-5.34c.67-1.51-.23-4.84,1.42-5.9.13-.09.31-.25.26-.43-.4-1.49-1.19-4,.47-5.06.15-.1.31-.24.27-.44-.26-1.45-.85-2.11-.51-3.8.24-1.21.69-1.88.54-3.14a48.86,48.86,0,0,1,.7-7.38c.15-.13.22-.41,0-.5l-1.46-.55c-.47-.17-1.78.49-1.15.73Z"/><path class="cls-5" d="M113.72,82.59c2.16.53,5.57-1.15,7.21-.35s4.84-.29,6.51-.72c2-.51,6.95-1.75,8.75-1.14a3.69,3.69,0,0,0,1.67.29c3.59-.64,8.46-.14,11.69-2.18,1.66-1,2.91,1.17,3.86-2l-1.3.44c1.1.44,2.72,1.17,3.88.38,1.63-1.09,3.59,0,5.45-.87,1-.49,1.94-1.06,3-1.53-.34.16,2.65.35,2.81.33,2.1-.27,2.71-2.09,5.41-1.48.46.11,1.71-.59.89-.78-2.81-.64-6.06.66-8.79,1-1.79.23-3.88,2.63-5.86,1.78-2.27-1-2.94,1.53-5.6.47-.38-.15-1.17,0-1.3.44-.51.85-1.1,1-1.78.36a1.15,1.15,0,0,0-1.25.33c-1.58,2.76-6,1.09-8.47,1.77-2.34.62-3.37,0-5.27,0s-4.43,1-6.15,1.29c-2.74.53-5.17,1.39-8,.61a2.52,2.52,0,0,0-1.74-.18c-.55.23-3.67,1.19-4.66,1-.46-.11-1.71.58-.89.78Z"/><path class="cls-5" d="M132.54,77.61c-2.11-.63-4.12-.83-5.51,1.1h1.33c-1.28-3.14-4.2-.93-7.08-2.52.26.14-3.9-6.16-3-7.2,1.2-1.31-.59-2.49.08-3.79,1.63-3.16.7-7.43,1.3-10.74.12-.69-1.36-.48-1.47.13-.34,1.91,0,3.58-.12,5.52,0,.86-.74,4.6-1.59,5.33-.18.15-.36.38-.19.61,1.14.93,1.19,1.87.13,2.83-.21.11-.59.44-.35.71,1.32,1.46.12,2.63.62,4a5,5,0,0,0,2.42,2.93,13.27,13.27,0,0,0,3.48,1.54c1.07.2,3.75-.3,4.28,1,.2.48,1.06.36,1.32,0l3.46-.55c.58.18,1.71-.67.85-.93Z"/><path class="cls-5" d="M143.91,151.64c.9-2.69-1-2.72-1.71-5.2-.53-2-2.28-2.83-2.2-5.16,0-.74-2.54-3.06-2.82-3.75-.55-1.36-2.4-3.71-2.58-5.05-.11-.9-2.09-3.32-1.85-3.79.93-1.8-2.58-3.22-2.73-4.77-.3-3-2.92-5.16-4.83-7.3-1.77-2-3.22-2.5-3.69-5.44-.23-1.45-2.33-2-2.94-3.23a13,13,0,0,0-3.17-4c-1.68-1.54-2.32-3.74-4-5.28-1.3-1.15-1.47-2-.58-3.2.62-.88,1.61.22,2.35.14,2.16-.25,4.37.15,6.47-.47,1.83-.53.61-1.53,3.52-.89a3.56,3.56,0,0,0,2.06-.21c.75-.33,1.15-1.81,2.13-1.8a4.79,4.79,0,0,0,3-.49c3.26-1.31,6.84-1.35,10.44-1.64a3.19,3.19,0,0,0,1.62-.64c.83-.64,2.65-.41,3.71-.6a57.35,57.35,0,0,0,10.81-2.53c2.18-.8,6.5-2.24,8.7-2.15.65,0,1.16-.51,1.64-.86a20.25,20.25,0,0,1,7.05-3.57c.89-.2.67-1-.21-.78-3.19.68-7.32,4.44-10.39,3.94a1.24,1.24,0,0,0-.9.17c-1.51,1.17-2.53,1.25-4.29,1.72-3.61,1-7.09,2.33-10.82,2.8a36.23,36.23,0,0,0-4.49.37c-1.95.52-2,1.12-4.85,1.35-6.26.5-11.42,2.25-17.28,3.82-1.75.47-6.14,2.09-8.21,1.31-2.33-.86-2.71.8-4.51,1.89-.11.07-.34.27-.27.43,1.07,2.21,3.17,3.4,4.38,5.58a16.85,16.85,0,0,0,3.62,4c.55.52.91,2.52,1.67,3,2.42,1.67,2.81,5,5.18,7,2.16,1.83,6.4,5.67,5.37,8.72a.26.26,0,0,0,.15.28c3.32,1.8,1.64,3.26,3.15,5.44a44.6,44.6,0,0,1,4.6,8.19c.55,1.34,2.41,1.55,2.35,3.27-.05,1.33-.08.85.75,2.27.6,1,3.45,6.49,3.19,7.27-.18.54,1.28.35,1.45-.17Z"/><path class="cls-5" d="M133.72,123.93c.21-2.11-3.23-3.17-1.91-5.31.93-1.5-2.55-3.14-2.27-4.68.45-2.46-3.33-3.68-3.21-6,0-.7-1-1.83-1.47-2.18-1.47-1.16-2.28-2.64-3.58-3.88l-1.11.73.25.09a1,1,0,0,0,1.16-.51,10.64,10.64,0,0,0,.76-2.77l-1.16.51c1.06.25,2.64,1.27,3.75.77,1.6-.72,1.66-1.81,3.7-1.63,1.51.13,1.47-2,3.62-1.39a3.06,3.06,0,0,0,2.93-.48c1.79-1.81,2.8-.84,4.77-1.72a.89.89,0,0,0,.38-.31c1-1.42,2.13-1.11,3.66-1.24,4.76-.43,9.93-3.06,14.74-2.5.62.08,1.51-.81.53-.92a19.29,19.29,0,0,0-7,.62c-1.66.49-3.71.27-5.25,1-2.29,1-4.42.2-6.55,1.16-.42.19-.71.75-.94,1.07s-2.52.18-3.22.37a3.84,3.84,0,0,0-2,1.69c-.14.21-3.89.19-4.72.75-1.32.89-2.34.33-3.7.94-2,.88-1,1.65-3.84,1-.37-.09-1.07,0-1.16.51a10.64,10.64,0,0,1-.76,2.77l1.16-.51-.24-.09c-.3-.11-1.56.3-1.1.74,1.25,1.2,8.91,10.47,7.85,12a.3.3,0,0,0,0,.34c1.3,2,2.35,2.44,1.89,5-.28,1.55,2.73,2.58,2.56,4.3-.07.66,1.4.41,1.46-.15Z"/><path class="cls-5" d="M133,109c-.22-.21-1.67-1.4-1.25-1.71.24-.18.26-.36.34-.65.19-.8-1.62-2.74.71-3a8,8,0,0,0,1.62-.13c2.56-.8,5.23-1.4,7.25-3.29.64-.6-.78-.72-1.19-.33-1.58,1.47-3.84,2.12-5.89,2.63-1,.26-2.76-.06-3.58.86a2.65,2.65,0,0,0-.75,1.7c-.05.51.55,1.56.23,1.91-.86.93.54,2,1.17,2.6.43.41,1.8-.16,1.34-.6Z"/><path class="cls-5" d="M94,82a4.53,4.53,0,0,1-.09-1.68,8.28,8.28,0,0,1,.36-2.16c.06-.15-.67-.24-.75,0a8.13,8.13,0,0,0-.36,2.15,4.74,4.74,0,0,0,.11,1.76c.08.19.81.16.73-.07Z"/><path class="cls-5" d="M94.43,81.78a7.54,7.54,0,0,1-1.58-2.92c-.09-.21-.8-.29-.72-.11a7.87,7.87,0,0,0,1.73,3.09c.15.13.87.2.57-.06Z"/><path class="cls-5" d="M92,82.1a7.8,7.8,0,0,0-1.19-3.26c-.1-.2-.82-.18-.73,0A7.58,7.58,0,0,1,91.29,82c0,.23.74.27.75.06Z"/><path class="cls-5" d="M91.1,81.24a8.54,8.54,0,0,1-1.55-2.14c-.11-.22-.81,0-.74.11a8.66,8.66,0,0,0,1.58,2.21c.16.17.85,0,.71-.18Z"/><path class="cls-5" d="M89.42,81.53l-2.35-3.26c-.12-.16-.83-.28-.67-.06l2.36,3.27c.11.16.82.28.66,0Z"/><path class="cls-5" d="M87.84,80.49A16.83,16.83,0,0,0,85.54,78c-.16-.13-.87-.08-.66.1a15.37,15.37,0,0,1,2.23,2.4c.15.18.84.11.73,0Z"/><path class="cls-5" d="M85.84,80.5a9.71,9.71,0,0,0-2-3.18c-.13-.17-.84,0-.71.18a9.73,9.73,0,0,1,2,3.1c.06.22.79.09.74-.1Z"/><path class="cls-5" d="M83.62,80.05A9.63,9.63,0,0,0,81,76.27c-.15-.17-.85,0-.7.2a9.47,9.47,0,0,1,2.55,3.71c.06.22.79.07.74-.13Z"/><path class="cls-5" d="M82.09,80a15.78,15.78,0,0,0-3.87-4.66c-.15-.14-.87-.14-.67,0a15.27,15.27,0,0,1,3.81,4.58c.09.2.81.21.73,0Z"/><path class="cls-5" d="M79.39,78.48c-1.43-1.33-2.55-2.94-4-4.27-.15-.13-.87-.06-.65.14,1.42,1.33,2.54,2.94,4,4.27.14.13.86.06.65-.14Z"/><path class="cls-5" d="M76.64,77.53c-1-1.5-2.17-2.86-3.14-4.36-.13-.19-.83-.19-.73,0,1,1.51,2.16,2.86,3.14,4.36.13.19.82.2.73,0Z"/><path class="cls-5" d="M74.06,77a16.93,16.93,0,0,0-2.82-4.27c-.13-.15-.84-.24-.66,0a16.84,16.84,0,0,1,2.76,4.18c.1.21.79.3.72.14Z"/><path class="cls-5" d="M71.61,75.94c-.78-1.13-1.2-2.43-2.35-3.27-.19-.14-.84.08-.71.18,1.15.84,1.57,2.14,2.36,3.26.12.18.83,0,.7-.17Z"/><path class="cls-5" d="M69.44,74.4c-.6-.67-1-1.51-1.57-2.18-.15-.17-.83-.09-.72,0,.59.67,1,1.51,1.56,2.18.16.17.84.09.73,0Z"/><path class="cls-5" d="M66.08,72.83a8.59,8.59,0,0,0-1.6-2.23.72.72,0,0,0-.47-.2c-.08,0-.31,0-.19.16a8.27,8.27,0,0,1,1.54,2.13c.1.21.79.3.72.14Z"/><path class="cls-5" d="M64.34,72.08a18.46,18.46,0,0,0-2.14-2.79c-.13-.18-.84-.1-.72,0a19.06,19.06,0,0,1,2.13,2.79c.1.2.83.15.73,0Z"/><path class="cls-5" d="M61.29,71.71A24.55,24.55,0,0,0,59,69.24c-.15-.13-.87,0-.64.16a24.1,24.1,0,0,1,2.22,2.41c.16.16.85,0,.73-.1Z"/><path class="cls-5" d="M58.21,71.45l-2.36-3.27c-.12-.16-.82-.29-.66-.07l2.35,3.27c.12.16.83.29.67.07Z"/><path class="cls-5" d="M56.14,70.62A16.24,16.24,0,0,0,54.36,68c-.14-.18-.84-.13-.73,0a17,17,0,0,1,1.79,2.66c.09.19.82.17.72,0Z"/><path class="cls-5" d="M53.74,68.47a21.3,21.3,0,0,0-1.92-2.32c-.18-.14-.84,0-.71.15A22.4,22.4,0,0,1,53,68.61c.15.17.84,0,.71-.14Z"/><path class="cls-5" d="M51.31,67.63a7.36,7.36,0,0,0-1.83-2.7c-.15-.12-.86-.11-.66.07a7,7,0,0,1,1.76,2.61c.09.21.81.22.73,0Z"/><path class="cls-5" d="M48.87,66.66a8,8,0,0,0-1.24-2.09c-.15-.17-.84,0-.7.18a8.17,8.17,0,0,1,1.2,2c.1.23.81,0,.74-.1Z"/><path class="cls-5" d="M46.64,66.24c-.42-.88-1-1.65-1.44-2.53-.09-.19-.82-.13-.73.07.42.88,1,1.65,1.44,2.53.09.19.83.14.73-.07Z"/><path class="cls-5" d="M44.33,65a5.54,5.54,0,0,1-.51-1.74c0-.23-.78-.2-.75,0a5.85,5.85,0,0,0,.54,1.83c.08.19.81.13.72-.08Z"/><path class="cls-5" d="M44.32,65.08a7.24,7.24,0,0,1-.83-3c0-.25-.71-.39-.71-.23a7.34,7.34,0,0,0,.83,3.14c.1.21.79.3.71.14Z"/><path class="cls-5" d="M99.22,67.53c1.2,1,3-.74,4-1.4.16-.12-.48-.42-.67-.29-.44.32-.88.64-1.33,1a6.2,6.2,0,0,1-.86.5,5.16,5.16,0,0,1-.55.2c-.14-.13-.86-.21-.56,0Z"/><path class="cls-5" d="M101.51,65.09a8.11,8.11,0,0,0,1.76-1.39c.21-.2-.51-.28-.65-.14A8,8,0,0,1,101,64.88c-.36.17.36.29.53.21Z"/><path class="cls-5" d="M101.6,65c.85-1.25,1.43-2.66,2.27-3.92.12-.18-.6-.29-.72-.11-.84,1.26-1.42,2.67-2.27,3.93-.11.17.6.29.72.1Z"/><path class="cls-5" d="M102.86,60.42a8.82,8.82,0,0,0,2.24-1.6c.21-.2-.51-.28-.65-.15a8.22,8.22,0,0,1-2.12,1.54c-.36.17.35.29.53.21Z"/><path class="cls-5" d="M98,74.3a2.68,2.68,0,0,0,2,.18c.37-.15-.34-.32-.52-.25a1.41,1.41,0,0,1-1.07-.17c-.21-.08-.85.07-.39.24Z"/><path class="cls-5" d="M97.84,74.07a1.45,1.45,0,0,0-.26,1.6,3.19,3.19,0,0,0,1.57,1c.12,0,.35.13.47,0s-.13-.23-.19-.25a2.05,2.05,0,0,1-1.24-.86c-.19-.45.13-1,.36-1.32.1-.14-.58-.42-.71-.22Z"/><path class="cls-5" d="M95.7,77.77a2.44,2.44,0,0,0,1.43,1c.22.09.85-.06.39-.23a1.87,1.87,0,0,1-1.09-.77c-.11-.19-.83-.15-.73,0Z"/><path class="cls-5" d="M95.69,77.73a3.58,3.58,0,0,0,0,1.81c0,.24.1.47.14.71l0,.2c0,.22.58.14.35,0s-.88-.07-.66.1,1.11.49,1-.13a5.72,5.72,0,0,1-.12-2.6c0-.16-.67-.28-.75,0Z"/><path class="cls-5" d="M93.49,80.58a2.16,2.16,0,0,0,1.36.92c.18.07.88-.12.51-.26a1.81,1.81,0,0,1-1.16-.81c-.09-.18-.82-.07-.71.15Z"/><path class="cls-5" d="M103.65,57.52l-.12.11c-.17.17.51.39.67.28A15.35,15.35,0,0,1,106,56.47c.26-.13-.41-.41-.59-.33a17.85,17.85,0,0,0-1.86,1.49l.67.28.12-.12c.16-.14-.51-.42-.67-.27Z"/><path class="cls-5" d="M104.36,57.7A4.9,4.9,0,0,1,106,55.24c.24-.17-.47-.34-.63-.22a5.21,5.21,0,0,0-1.8,2.59c-.06.17.66.32.75.09Z"/><path class="cls-5" d="M105.52,54.63c.22-.59.44-1.17.65-1.75.07-.19-.64-.43-.72-.22-.21.59-.43,1.17-.65,1.75-.07.19.64.43.72.22Z"/><path class="cls-5" d="M105.53,54.54a3.41,3.41,0,0,1,1.64-3.28c.13-.11-.52-.33-.71-.2a3.56,3.56,0,0,0-1.66,3.44c0,.2.77.27.73,0Z"/><path class="cls-5" d="M106.25,50.54l.53-1.4c.07-.19-.64-.44-.71-.24-.18.47-.35.94-.53,1.4-.07.2.64.44.71.24Z"/><path class="cls-5" d="M107,47.55a5.11,5.11,0,0,1,1.11-1.93c.14-.13-.54-.33-.7-.17a5.16,5.16,0,0,0-1.16,2c-.06.17.66.32.75.1Z"/><path class="cls-5" d="M83.34,102.05a17.84,17.84,0,0,0,3.06-1.68c.14-.1-.51-.36-.7-.23a17.38,17.38,0,0,1-3,1.63c-.25.12.42.37.6.28Z"/><path class="cls-5" d="M84.05,100.26l2.22-2.75c.13-.17-.57-.35-.71-.18l-2.22,2.75c-.13.16.57.35.71.18Z"/><path class="cls-5" d="M83.92,98.27A18.27,18.27,0,0,0,87,96.58c.23-.16-.48-.27-.65-.15a17.15,17.15,0,0,1-2.94,1.62c-.36.17.35.3.53.22Z"/><path class="cls-5" d="M83.45,97.37a3.79,3.79,0,0,0,2.29-1.62c.14-.17-.56-.4-.69-.24A3.49,3.49,0,0,1,83,97c-.14,0-.16.13,0,.21a.8.8,0,0,0,.52.12Z"/><path class="cls-5" d="M82.41,96.13a9.89,9.89,0,0,1,2.31-1.92c.15-.07-.46-.4-.66-.3a9.5,9.5,0,0,0-2.31,1.93c-.16.15.5.44.66.29Z"/><path class="cls-5" d="M80.34,94.76a3.33,3.33,0,0,0,3.5-1.43c.1-.13-.59-.19-.73,0-.53.63-1.36,1.48-2.26,1.2-.18-.06-.88.13-.51.25Z"/><path class="cls-5" d="M80,92.82A7.33,7.33,0,0,0,82.74,91c.13-.16-.57-.31-.72-.14a6.83,6.83,0,0,1-2.61,1.75c-.16.08,0,.2.11.22a.77.77,0,0,0,.52,0Z"/><path class="cls-5" d="M77.64,91.71a2.25,2.25,0,0,0,1.47.07,3.5,3.5,0,0,0,1.4-1.19c.14-.17-.56-.37-.7-.2-.48.59-1.07,1.36-1.93,1.07-.3-.11-.72.09-.24.25Z"/><path class="cls-5" d="M78,91.48c-.47-.21-.79-.65-1.27-.87l.1.15c.54-.57.59-1.4,1.13-2,.12-.13-.56-.26-.72-.09-.55.56-.59,1.39-1.13,2-.06.06,0,.12.09.14.47.22.79.66,1.27.88.17.08.89,0,.53-.21Z"/><path class="cls-5" d="M73.45,88.86a4.21,4.21,0,0,0,2.23-1.3c.13-.12-.55-.3-.72-.15a3.58,3.58,0,0,1-1.86,1.15c-.49.07.12.33.35.3Z"/><path class="cls-5" d="M70.41,87c.86.78,1.78.13,2.48-.51.12-.12-.55-.29-.72-.13s-.75.86-1.1.54c-.15-.14-.87-.09-.66.1Z"/><path class="cls-5" d="M67.75,86a2.18,2.18,0,0,0,2.35-.56c.13-.11-.55-.3-.72-.15-.35.32-.73.66-1.23.49-.21-.07-.86.07-.4.22Z"/><path class="cls-5" d="M66.19,85.3l1.43-.66c.15-.07-.44-.41-.65-.32L65.53,85c-.15.07.45.41.66.32Z"/><path class="cls-5" d="M62.77,83.59l1.44-.65c.35-.17-.36-.3-.53-.22l-1.44.66c-.36.16.35.29.53.21Z"/><path class="cls-5" d="M59.51,82.11c.72-.09,1.41-.31,2.13-.39.44-.06.42-.36,0-.3-.72.08-1.42.3-2.14.39-.44,0-.42.35,0,.3Z"/><path class="cls-5" d="M56.85,80.66c.41.75,1.41.48,2.07.4.4,0-.24-.4-.43-.38s-.88.24-1,0-.8-.32-.66-.07Z"/><path class="cls-5" d="M53.71,80a4,4,0,0,0,3-.24c.24-.11-.44-.33-.62-.25a2.78,2.78,0,0,1-2,.29.72.72,0,0,0-.52,0c-.15.07,0,.19.11.22Z"/><path class="cls-5" d="M54.22,79.75a4.22,4.22,0,0,1-1.44-1.32l-.6.23a5.41,5.41,0,0,0,2.62.09c.45,0,.4-.34,0-.29a4.19,4.19,0,0,1-2.08-.08c-.1,0-.77.05-.6.23A4.47,4.47,0,0,0,53.6,80a.72.72,0,0,0,.52,0c.07,0,.26-.15.1-.22Z"/><path class="cls-5" d="M49.06,77c.72,1.33,2.81,1,4,.69.39-.09-.27-.37-.46-.33-.79.18-2.33.62-2.81-.27-.11-.2-.8-.25-.72-.09Z"/><path class="cls-5" d="M47.89,76.58a4,4,0,0,0,3.13.27c.26-.11-.4-.4-.58-.32a2.84,2.84,0,0,1-2.28-.17c-.3-.11-.75,0-.27.22Z"/><path class="cls-5" d="M46.58,75.38a2.32,2.32,0,0,0,1.7,0c.08,0,.25-.15.1-.23a.72.72,0,0,0-.52,0,.84.84,0,0,1-.66-.07.75.75,0,0,0-.51,0c-.07,0-.27.17-.11.23Z"/><path class="cls-5" d="M47.21,75.14a1,1,0,0,1-.61-1.33c.08-.21-.66-.19-.73,0a1.12,1.12,0,0,0,.71,1.55.77.77,0,0,0,.52,0c.07,0,.27-.15.11-.22Z"/><path class="cls-5" d="M43.67,72.68l.7.26c.18.07.88-.12.51-.26l-.7-.26c-.18-.06-.88.12-.51.26Z"/><path class="cls-5" d="M75.26,113.77c1.46-.3,2.94-.22,4.35-.81.36-.15-.36-.29-.53-.21a22,22,0,0,1-4.2.76c-.47.1.16.31.38.26Z"/><path class="cls-5" d="M77.91,112.33c.89-.39,1.85-.58,2.74-1,.25-.1-.43-.32-.61-.24-.9.39-1.86.57-2.75,1-.25.1.43.32.62.25Z"/><path class="cls-5" d="M77.18,110.69c1.79.59,3.28-.14,5-.67.49-.15.08-.35-.24-.26-1.43.45-2.72,1.15-4.25.64-.18-.06-.87.16-.49.29Z"/><path class="cls-5" d="M78.77,108.83a3.83,3.83,0,0,0,3.57-.82c.15-.11-.5-.38-.68-.25a3.11,3.11,0,0,1-2.62.84c-.31-.1-.75.07-.27.23Z"/><path class="cls-5" d="M79.78,107.22a2.22,2.22,0,0,0,1.46.09,3.43,3.43,0,0,0,1.41-1.18c.14-.18-.55-.4-.69-.24-.47.58-1.09,1.37-1.93,1.09-.3-.1-.74.08-.25.24Z"/><path class="cls-5" d="M81.12,105.29a5.83,5.83,0,0,0,3.67-.73c.25-.16-.45-.35-.62-.24A5,5,0,0,1,81,105c-.51,0-.16.3.16.31Z"/><path class="cls-5" d="M81.63,103.16a2.7,2.7,0,0,0,2.69-.45c.12-.1-.55-.27-.72-.12a1.54,1.54,0,0,1-1.58.34c-.22-.08-.86.08-.39.23Z"/><path class="cls-5" d="M84.1,101.09c.41-.21.69-.57,1.09-.78.24-.12-.46-.29-.64-.2-.4.21-.68.58-1.09.79-.15.08.05.19.12.21a.72.72,0,0,0,.52,0Z"/><path class="cls-5" d="M73.52,117.61a3.31,3.31,0,0,0,2.08-.19c.16-.06,0-.19-.1-.22a.78.78,0,0,0-.52,0,2,2,0,0,1-1.23.17c-.31-.09-.72.11-.23.26Z"/><path class="cls-5" d="M72.37,119.19a4.74,4.74,0,0,0,2.23.35c.51-.05.13-.32-.19-.29A3.14,3.14,0,0,1,72.9,119a.8.8,0,0,0-.53,0c-.13,0-.14.16,0,.21Z"/><path class="cls-5" d="M70.2,121.14a2.72,2.72,0,0,0,2.09-.18c.25-.11-.44-.33-.62-.25a1.54,1.54,0,0,1-1.22.17c-.31-.1-.73.1-.25.26Z"/><path class="cls-5" d="M68.24,123.18a3.23,3.23,0,0,0,3.3-.14c.14-.09-.5-.35-.69-.23a2,2,0,0,1-1.3.45,4,4,0,0,1-1.06-.32c-.3-.11-.73.06-.25.24Z"/><path class="cls-5" d="M67,125.12a3.55,3.55,0,0,0,2.41.32c.36-.13-.35-.29-.53-.23-.41.15-1-.14-1.34-.28a.74.74,0,0,0-.53,0c-.13,0-.15.16,0,.21Z"/><path class="cls-5" d="M66.87,125a1.9,1.9,0,0,0-.2,2.12,2.34,2.34,0,0,0,2.09.61c.51,0,.14-.32-.18-.3a1.22,1.22,0,0,1-1.33-.59,2,2,0,0,1,.34-1.73c.11-.19-.61-.3-.72-.11Z"/><path class="cls-5" d="M64.76,129a10.11,10.11,0,0,0,3.2.76c.51,0,.18-.3-.15-.32a8.42,8.42,0,0,1-2.64-.63c-.21-.08-.87,0-.41.19Z"/><path class="cls-5" d="M63.66,130.68a4.43,4.43,0,0,0,2.1.34c.13,0,.37,0,.44-.17s-.22-.15-.28-.14a3.59,3.59,0,0,1-1.65-.27.75.75,0,0,0-.51,0c-.07,0-.27.16-.1.22Z"/><path class="cls-5" d="M63.94,130.41a5,5,0,0,0-2.49,1.7.08.08,0,0,0,0,.15,2.25,2.25,0,0,0,1.69,0c.08,0,.25-.15.1-.22a.69.69,0,0,0-.51,0,.92.92,0,0,1-.67-.07l0,.14c.52-.49,1.12-1.32,1.87-1.44.44-.07.39-.37-.05-.3Z"/><path class="cls-5" d="M59.56,134.3l1.75.65c.18.07.89-.09.52-.23l-1.74-.65c-.18-.07-.89.09-.53.23Z"/><path class="cls-5" d="M58.52,137.08l.34.13a.8.8,0,0,0,.53,0c.14-.05.14-.16,0-.21l-.35-.13a.8.8,0,0,0-.53,0c-.13.06-.14.17,0,.22Z"/><path class="cls-5" d="M58.45,136.83c-1,.71-1.57,1.82-.52,2.74.15.13.87.21.57,0-.92-.81-.14-1.84.62-2.41.15-.11-.49-.41-.67-.28Z"/><path class="cls-5" d="M110.72,97.41a7.9,7.9,0,0,0,5,.51c.5-.13.07-.33-.24-.25a6.62,6.62,0,0,1-4.15-.52c-.18-.07-.86.16-.61.26Z"/><path class="cls-5" d="M111.72,96.5a12.2,12.2,0,0,0,5.19.7c.39,0-.24-.39-.44-.38a11,11,0,0,1-4.65-.6c-.42-.15-.52.13-.1.28Z"/><path class="cls-5" d="M111.81,95.73c2.23,1.15,4.68.66,7.07,1.06.51.08.21-.29-.11-.34-2.13-.35-4.54.16-6.53-.86-.19-.1-.86-.08-.43.14Z"/><path class="cls-5" d="M116.67,95.6l3.49,1.31c.21.08.84-.06.39-.23l-3.49-1.31c-.22-.08-.85.06-.39.23Z"/><path class="cls-5" d="M119.39,95.48l3.14,1.17c.18.07.86-.15.61-.24L120,95.23c-.19-.07-.86.16-.62.25Z"/><path class="cls-5" d="M121.08,94.09a5.79,5.79,0,0,0,3.36,1.23c.32,0,.7-.26.19-.29a5,5,0,0,1-2.91-1.12c-.16-.12-.87,0-.64.18Z"/><path class="cls-5" d="M123.44,94.21a11.25,11.25,0,0,0,3.41.86c.23,0,.82-.29.34-.31a10.93,10.93,0,0,1-3.13-.8c-.19-.07-.86.16-.62.25Z"/><path class="cls-5" d="M125,93.12c1.42,1.42,3.51,1.62,5.42,1.6.52,0,.16-.32-.16-.31-1.66,0-3.37-.14-4.6-1.36-.14-.14-.86-.13-.66.07Z"/><path class="cls-5" d="M128.5,92.48a13.15,13.15,0,0,0,3.88,1c.44,0,.44-.27,0-.3a11.57,11.57,0,0,1-3.35-.91c-.17-.06-.9.07-.53.2Z"/><path class="cls-5" d="M130.63,92.08a11.67,11.67,0,0,0,3.53.89c.44,0,.46-.28,0-.3a10.44,10.44,0,0,1-3-.77c-.18-.07-.9,0-.54.18Z"/><path class="cls-5" d="M132.69,91.24a13.32,13.32,0,0,0,3.81,1c.51,0,.19-.31-.13-.33a11.46,11.46,0,0,1-3.43-.91c-.3-.12-.73.06-.25.24Z"/><path class="cls-5" d="M137.48,90.71,141,92c.19.07.87-.15.63-.24l-3.49-1.31c-.19-.07-.86.15-.62.24Z"/><path class="cls-5" d="M141,90.85a7.46,7.46,0,0,0,4.21.28c.43-.09.39-.39-.05-.3a6.24,6.24,0,0,1-3.55-.24c-.18-.06-.86.17-.61.26Z"/><path class="cls-5" d="M144.28,90a7.24,7.24,0,0,0,3.07.26c.15,0,.16-.13,0-.21a.76.76,0,0,0-.51-.11,5.76,5.76,0,0,1-2.34-.18c-.3-.1-.74.07-.26.24Z"/><path class="cls-5" d="M146.21,88.81a7.48,7.48,0,0,0,4.24.25c.5-.11.08-.33-.23-.26a6.19,6.19,0,0,1-3.51-.27c-.18-.06-.87.14-.5.28Z"/><path class="cls-5" d="M150.87,88.11a6,6,0,0,0,3.51.4c.38-.08-.31-.34-.49-.3a4.29,4.29,0,0,1-2.6-.29c-.21-.08-.87,0-.42.19Z"/><path class="cls-5" d="M154.74,87.56a6.22,6.22,0,0,0,3.55,0c.38-.09-.28-.37-.47-.33a4.93,4.93,0,0,1-2.82,0c-.3-.11-.74.06-.26.23Z"/><path class="cls-5" d="M158.32,86.17a7.88,7.88,0,0,0,4.25.27c.5-.1.09-.33-.22-.27a6.5,6.5,0,0,1-3.52-.25c-.18-.06-.88.12-.51.25Z"/><path class="cls-5" d="M161.75,85a7.38,7.38,0,0,0,4.21.29c.26,0-.37-.39-.56-.35a6.23,6.23,0,0,1-3.55-.22c-.42-.15-.51.13-.1.28Z"/><path class="cls-5" d="M165.89,83.85a5.62,5.62,0,0,0,4.4.25c.44-.19-.2-.3-.41-.21a4.27,4.27,0,0,1-3.37-.27c-.18-.07-.86.14-.62.23Z"/><path class="cls-5" d="M169.34,83.16a5.62,5.62,0,0,0,3.38.37c.43-.1.39-.39-.05-.3A4.47,4.47,0,0,1,170,82.9c-.18-.07-.86.17-.61.26Z"/><path class="cls-5" d="M172.25,81.39c.8.29,1.66.57,2.38,0,.17-.13-.48-.46-.65-.32-.53.44-1,.28-1.62.07-.42-.16-.52.12-.11.28Z"/><path class="cls-5" d="M172.64,81.39a5.6,5.6,0,0,1,3.38-1c.49,0-.06-.35-.29-.36A6.34,6.34,0,0,0,172,81.11c-.16.1.48.41.67.28Z"/><path class="cls-5" d="M111.41,81.67a2.14,2.14,0,0,0,1.49-.32c.74-.37,1.4-.87,2.15-1.23.15-.07-.45-.4-.66-.3a14.72,14.72,0,0,0-1.39.8c-.41.24-1.18.84-1.68.71s-.21.25.09.34Z"/><path class="cls-5" d="M111.21,80.36c1.83.12,3.37-1.19,4.63-2.35.16-.14-.51-.42-.67-.27-1.15,1.05-2.6,2.38-4.26,2.27-.48,0,.08.34.3.35Z"/><path class="cls-5" d="M111.72,79.24c1.45-.71,2.26-2.2,3.58-3.08.23-.15-.48-.25-.65-.14-1.28.86-2.07,2.34-3.47,3-.35.18.37.29.54.2Z"/><path class="cls-5" d="M112,76.52a7.68,7.68,0,0,0,2.48-2.3c.12-.15-.58-.27-.72-.1a7.62,7.62,0,0,1-2.4,2.23c-.16.08.06.19.12.21a.72.72,0,0,0,.52,0Z"/><path class="cls-5" d="M109.35,73.43c2.13.69,3.38-1.2,4.42-2.73.1-.14-.59-.14-.72,0-.66,1-1.66,2.88-3.08,2.42-.19-.06-.86.18-.62.26Z"/><path class="cls-5" d="M111.16,70.32a8.93,8.93,0,0,0,1.83-1.7c.17-.16-.5-.46-.65-.31a9.8,9.8,0,0,1-1.83,1.7c-.16.08.45.42.65.31Z"/><path class="cls-5" d="M111.12,68.2A21.28,21.28,0,0,0,112.77,66c.1-.13-.59-.19-.73,0a19.69,19.69,0,0,1-1.58,2.14c-.2.2.52.23.66.09Z"/><path class="cls-5" d="M112.33,65.13c.29-.73,1-1,1.63-1.3.26-.12-.4-.41-.58-.33-.73.33-1.46.63-1.77,1.41-.08.19.63.43.72.22Z"/><path class="cls-5" d="M113.56,62.85c.58-.31.89-1,1.35-1.48.16-.16-.51-.44-.66-.29-.47.45-.77,1.17-1.35,1.48-.15.09.46.4.66.29Z"/><path class="cls-5" d="M114.86,60.21a2,2,0,0,0,1.83-1.43c.07-.18-.65-.39-.73-.17a1.74,1.74,0,0,1-1.57,1.28c-.15,0-.16.12,0,.2a.79.79,0,0,0,.52.12Z"/><path class="cls-5" d="M115.38,55.82a3.93,3.93,0,0,1,1-1.57c.21-.2-.51-.23-.66-.09a4.15,4.15,0,0,0-1,1.66c-.08.21.65.2.73,0Z"/><path class="cls-5" d="M114.68,58.85a32.83,32.83,0,0,0,2.78-5.32c.08-.19-.64-.43-.72-.22A32,32,0,0,1,114,58.63c-.09.15.59.43.72.22Z"/><path class="cls-5" d="M116.57,51.63a5.57,5.57,0,0,0,1.51-1.87c.07-.18-.64-.39-.73-.17a5.49,5.49,0,0,1-1.46,1.79c-.15.14.52.4.68.25Z"/><path class="cls-5" d="M115.55,47.75c1.07-.17,1.77-1.17,2.41-2,.15-.18-.54-.42-.68-.26-.56.7-1.25,1.73-2.2,1.88-.38.06.28.37.47.34Z"/><path class="cls-5" d="M117.25,45.56a12.12,12.12,0,0,0,2-3.26c.08-.2-.62-.46-.7-.25a12.25,12.25,0,0,1-2,3.19c-.16.19.53.48.65.32Z"/><path class="cls-5" d="M117.49,41.32c1.05-.15,1.35-1.07,1.68-2,.06-.16-.66-.29-.75-.06-.24.63-.49,1.6-1.28,1.72-.48.07.13.32.35.29Z"/><path class="cls-5" d="M116.15,35.54a4.82,4.82,0,0,1,1.53-.45c.44-.05.4-.35,0-.3a6.94,6.94,0,0,0-2,.6c-.14.06-.11.17,0,.21a.8.8,0,0,0,.53-.06Z"/><path class="cls-5" d="M117.86,33.3l.39-1c.06-.16-.66-.28-.75,0l-.39,1c-.06.15.66.27.75,0Z"/><path class="cls-5" d="M103.63,86.08c1.1-.75,2.39-1.12,3.49-1.88.21-.14-.5-.2-.66-.09-1.09.76-2.39,1.12-3.49,1.88-.21.15.5.2.66.09Z"/><path class="cls-5" d="M104.18,84.09a6.34,6.34,0,0,0,3.58-1.58c.23-.17-.47-.31-.64-.19A5.77,5.77,0,0,1,104,83.79c-.52,0-.14.31.18.3Z"/><path class="cls-5" d="M105.46,82.13a3.56,3.56,0,0,0,2.79-1.88c.06-.16-.65-.34-.74-.12a3.24,3.24,0,0,1-2.54,1.7c-.38.1.31.34.49.3Z"/><path class="cls-5" d="M106.34,79.35a2.37,2.37,0,0,0,2.47-1.67c.07-.17-.65-.35-.74-.12A2,2,0,0,1,106.19,79c-.51,0-.18.31.15.32Z"/><path class="cls-5" d="M105.39,76.69a2.28,2.28,0,0,0,3-1.19c.09-.21-.64-.23-.72,0-.32.78-.92,1.29-1.78,1-.18-.06-.89.12-.52.24Z"/><path class="cls-5" d="M106,76.63c-.09-1.61,1.69-2.53,2.27-3.92.06-.16-.65-.34-.74-.12-.58,1.41-2.37,2.28-2.27,3.93,0,.24.75.29.74.11Z"/><path class="cls-5" d="M106.13,71.66a2.06,2.06,0,0,0,1.9-1.47c.06-.15-.66-.28-.75,0a1.66,1.66,0,0,1-1.51,1.23c-.09,0-.27.1-.14.2a.67.67,0,0,0,.5.09Z"/><path class="cls-5" d="M107.69,69A6.69,6.69,0,0,1,110,67.08c.25-.12-.42-.37-.6-.29A6.85,6.85,0,0,0,107,68.74c-.14.17.56.4.69.23Z"/><path class="cls-5" d="M110.21,58a24.93,24.93,0,0,1,2.44-2.27c.15-.14-.52-.39-.68-.24a23.92,23.92,0,0,0-2.44,2.27c-.15.18.55.4.68.24Z"/><path class="cls-5" d="M110,55.46a20.28,20.28,0,0,0,2.31-1.92c.13-.15-.57-.31-.71-.14a21.1,21.1,0,0,1-2.31,1.91c-.13.12.54.3.71.15Z"/><path class="cls-5" d="M111.62,52.1a5.38,5.38,0,0,0,1.15-2c.06-.15-.66-.28-.75-.05A4.89,4.89,0,0,1,110.9,52c-.13.13.56.3.72.14Z"/><path class="cls-5" d="M111.54,48c.18-.36.56-.55.74-.92.09-.19-.64-.23-.73,0-.18.37-.56.56-.74.92-.1.2.63.24.73,0Z"/><path class="cls-5" d="M111,45.17a6.48,6.48,0,0,0,1.67-1.06c.12-.11-.55-.27-.72-.11a5.66,5.66,0,0,1-1.47.94c-.36.16.35.31.52.23Z"/><path class="cls-5" d="M112.27,40.8c.48-.47.86-1,1.35-1.48.13-.12-.55-.28-.72-.12-.48.46-.86,1-1.35,1.48-.12.12.55.28.72.12Z"/><path class="cls-5" d="M114.54,36.91l1-2.79c.07-.19-.64-.4-.72-.19l-1,2.79c-.07.19.65.4.73.19Z"/><path class="cls-5" d="M96,109.75a5.35,5.35,0,0,1,.34-3c.08-.21-.65-.19-.73,0a5.37,5.37,0,0,0-.35,3.09c0,.22.78.11.74-.09Z"/><path class="cls-5" d="M96.62,108.07l2.22-2.75c.11-.13-.58-.21-.73,0L95.89,108c-.11.14.58.22.73,0Z"/><path class="cls-5" d="M97.71,107.55a4.42,4.42,0,0,0,2.87-1.59c.11-.12-.58-.19-.72,0a3.52,3.52,0,0,1-2.18,1.3c-.44,0-.42.35,0,.3Z"/><path class="cls-5" d="M99.76,107.51c1.36,1,2.71,0,4-.56.26-.13-.4-.42-.58-.33-.66.3-2.14,1.36-2.87.84-.15-.11-.88-.17-.57.05Z"/><path class="cls-5" d="M101.29,110.13a7.19,7.19,0,0,0,3,.24c.51-.05.14-.33-.18-.3a5.82,5.82,0,0,1-2.42-.18c-.22-.08-.85.08-.39.24Z"/><path class="cls-5" d="M102.37,112.51a10,10,0,0,0,4.47.79c.49,0-.11-.33-.34-.31a8.11,8.11,0,0,1-3.72-.69c-.21-.08-.86,0-.41.21Z"/><path class="cls-5" d="M103.75,115a9.91,9.91,0,0,0,4.46.78c.51,0,.12-.32-.2-.29a8.41,8.41,0,0,1-3.73-.7c-.17-.06-.89.07-.53.21Z"/><path class="cls-5" d="M106.85,117.39l3.48,1.3c.18.07.9-.06.54-.2l-3.49-1.31c-.17-.06-.9.07-.53.21Z"/><path class="cls-5" d="M108.41,119.13a7.48,7.48,0,0,0,4.08.64c.26,0-.36-.39-.56-.36a6.25,6.25,0,0,1-3.42-.57c-.41-.15-.51.13-.1.29Z"/><path class="cls-5" d="M110,120.56c1,1.21,2.6,1.34,4,1.5.23,0,.81-.26.33-.31-1.31-.15-2.78-.27-3.65-1.38-.14-.17-.84,0-.7.19Z"/><path class="cls-5" d="M112.08,122.89l3.49,1.31c.3.11.74,0,.27-.23l-3.49-1.31c-.3-.11-.75,0-.27.23Z"/><path class="cls-5" d="M113.52,125.42c1.65.64,3.2,1.52,5,1.4.38,0-.27-.35-.46-.34-1.55.1-2.91-.75-4.3-1.29-.3-.12-.75,0-.27.23Z"/><path class="cls-5" d="M117.05,127.93a7.88,7.88,0,0,0,3.19.74c.39,0-.25-.39-.44-.37a6.48,6.48,0,0,1-2.65-.66c-.42-.15-.51.13-.1.29Z"/><path class="cls-5" d="M118.31,130a5.41,5.41,0,0,0,2.06,1.2.8.8,0,0,0,.53,0c.13-.06.14-.16,0-.22a4.84,4.84,0,0,1-1.87-1.06c-.16-.16-.84-.05-.72.07Z"/><path class="cls-5" d="M119.45,132.48l3.49,1.31c.18.07.86-.15.62-.24l-3.49-1.31c-.18-.07-.86.15-.62.24Z"/><path class="cls-5" d="M121.7,134.83a7.6,7.6,0,0,0,2.78,1.47c.21.08.87,0,.41-.2a6.84,6.84,0,0,1-2.53-1.33c-.14-.14-.86-.14-.66.06Z"/><path class="cls-5" d="M122.79,137.22a11.44,11.44,0,0,0,3.13,1.6c.21.08.87,0,.42-.19a11,11,0,0,1-2.89-1.45c-.15-.13-.86-.12-.66,0Z"/><path class="cls-5" d="M124.77,140a3.44,3.44,0,0,0,2.3.35c.27-.09-.39-.39-.58-.32a2.22,2.22,0,0,1-1.44-.25c-.13-.05-.36-.13-.48,0s.14.23.2.25Z"/><path class="cls-5" d="M124.55,139.82a6.67,6.67,0,0,0,3.68,3.44c.21.08.87,0,.42-.18a6.11,6.11,0,0,1-3.38-3.19c-.1-.2-.81-.24-.72-.07Z"/><path class="cls-5" d="M127.61,145.4l1.4.53c.41.15.5-.14.09-.29l-1.39-.52c-.42-.16-.51.13-.1.28Z"/><path class="cls-5" d="M127.37,145.27a11.77,11.77,0,0,0,4.25,3.22c.41.17.51-.12.1-.28a10.78,10.78,0,0,1-3.78-3c-.13-.14-.84-.27-.57,0Z"/><path class="cls-5" d="M130.53,150.4a1.91,1.91,0,0,0,1.14.9c.3.12.74-.05.26-.23a1.1,1.1,0,0,1-.68-.57c-.11-.21-.81-.26-.72-.1Z"/><path class="cls-5" d="M133.55,154.79a2.19,2.19,0,0,0,1.61.07c.25-.1-.42-.36-.61-.29a.77.77,0,0,1-.74,0c-.31-.11-.74.06-.26.24Z"/><path class="cls-5" d="M134.85,157.66l1.74.65c.13.05.35.14.48,0s-.14-.23-.2-.25l-1.74-.66c-.13-.05-.35-.13-.48,0s.14.23.2.26Z"/><path class="cls-5" d="M105.37,113.39a22.25,22.25,0,0,0-1.77-3.88c-.11-.16-.82-.28-.66-.05a22.34,22.34,0,0,1,1.72,3.79c.09.2.79.31.71.14Z"/><path class="cls-5" d="M101.8,108a6.41,6.41,0,0,0-.87-1.92c-.15-.17-.84,0-.72.11a6.55,6.55,0,0,1,.87,1.92c.08.19.81.11.72-.11Z"/><path class="cls-5" d="M99.25,106.62l-1-.39c-.31-.12-.73.06-.25.24l1,.39c.31.12.73-.06.25-.24Z"/><path class="cls-5" d="M97.35,107.86l-1-.39a.8.8,0,0,0-.53,0c-.13.05-.14.16,0,.21l1,.39a.81.81,0,0,0,.53,0c.13,0,.15-.16,0-.22Z"/><path class="cls-5" d="M97,112.08A4.87,4.87,0,0,1,95.09,111c-.16-.17-.84,0-.72.1a5.41,5.41,0,0,0,2.06,1.2c.18.06.89-.1.52-.23Z"/><path class="cls-5" d="M94.52,114l-1.39-.52c-.13,0-.35-.13-.48,0s.14.24.2.26l1.4.52c.12,0,.35.13.47,0s-.14-.24-.2-.26Z"/><path class="cls-5" d="M92.94,115.35l-1.74-.65c-.18-.07-.89.09-.52.23l1.74.65c.18.07.89-.09.52-.23Z"/><path class="cls-5" d="M92.39,115.31c-1,.49-2.28,1.35-3.5,1-.3-.1-.75.07-.26.23,1.63.52,2.88-.2,4.35-.88.26-.12-.41-.39-.59-.31Z"/><path class="cls-5" d="M90.33,119.15c-.83-.29-1.73-.27-2.57-.57a.75.75,0,0,0-.53,0c-.13,0-.14.16,0,.21.84.3,1.74.28,2.57.56a.74.74,0,0,0,.53,0c.13,0,.14-.16,0-.21Z"/><path class="cls-5" d="M88.36,120.92a4.76,4.76,0,0,1-2,0c-.13,0-.36-.12-.48,0s.15.22.21.24a6.41,6.41,0,0,0,2.72.14c.15,0,.17-.13.05-.21a.77.77,0,0,0-.51-.13Z"/><path class="cls-5" d="M87.09,122.77a3.83,3.83,0,0,1-1.68.07.72.72,0,0,0-.52,0c-.06,0-.26.16-.1.22a5.14,5.14,0,0,0,2.34,0c.45-.06.39-.35,0-.3Z"/><path class="cls-5" d="M85.69,125a6,6,0,0,0-2.64-.11c-.51,0-.13.33.19.29a4.93,4.93,0,0,1,2.06.06c.22.08.85-.09.39-.24Z"/><path class="cls-5" d="M83.23,126.14a4.91,4.91,0,0,1-2.09,0c-.42-.14-.51.15-.09.29a5.94,5.94,0,0,0,2.62.12c.39,0-.25-.38-.44-.36Z"/><path class="cls-5" d="M81.74,128.87a1.39,1.39,0,0,1-1-.17c-.21-.08-.86,0-.4.22a2.69,2.69,0,0,0,2,.17c.16-.06,0-.19-.11-.22a.84.84,0,0,0-.52,0Z"/><path class="cls-5" d="M79.53,130.65c-.45-.16-.79-.23-1,.26-.07.17.65.38.73.16a1.47,1.47,0,0,1,.1-.22c-.26,0-.3,0-.11,0s.74-.06.26-.24Z"/><path class="cls-5" d="M77.8,133.47c.49,0-.07-.34-.3-.34-.49,0,.08.34.3.34Z"/><path class="cls-5" d="M76.28,137.1c-.43.17-.88.14-1.31.31-.26.1.39.4.58.33.42-.17.88-.15,1.3-.31s-.39-.4-.57-.33Z"/><path class="cls-5" d="M142.37,151.75a14.57,14.57,0,0,0,3.91,1.94c.19.07.87-.15.62-.24a14.07,14.07,0,0,1-3.83-1.88c-.18-.14-.84.07-.7.18Z"/><path class="cls-5" d="M142,150.65c.79.29,1.74.59,2.14-.39.09-.22-.64-.3-.72-.12a1,1,0,0,1-.31.48c-.09.07-.48-.12-.57-.16a.88.88,0,0,0-.53,0c-.13,0-.15.16,0,.22Z"/><path class="cls-5" d="M141.41,148.61c.8.29,2,.73,2.49-.28.06-.15-.65-.3-.75-.07-.27.62-.85.3-1.34.12-.21-.08-.85.06-.4.23Z"/><path class="cls-5" d="M142,148.53a3.53,3.53,0,0,1-.44-2.43l-.5.05a5.58,5.58,0,0,0,1.13.25,6,6,0,0,1,1,.1c.3.1.74-.09.25-.24-.71-.22-1.46-.11-2.17-.35-.1,0-.44-.11-.49.05a3.56,3.56,0,0,0,.46,2.5c.09.21.81.25.72.07Z"/><path class="cls-5" d="M139.64,143.38a7.64,7.64,0,0,0,4.37.56c.48-.09-.16-.29-.38-.25a6.08,6.08,0,0,1-3.46-.54c-.18-.06-.9.09-.53.23Z"/><path class="cls-5" d="M139.54,141.08l1.61.6a.72.72,0,0,0,.52,0c.07,0,.26-.16.1-.22l-1.61-.6a.72.72,0,0,0-.52,0c-.07,0-.26.16-.1.22Z"/><path class="cls-5" d="M140.07,140.87c-.26-.13,0-.6,0-.78l-.4,0c.65.18.9-.22,1.44-.49.26-.13-.41-.4-.59-.31s-.68.54-.77.51-.36-.07-.41.06c-.17.48-.25.86.25,1.12.21.1.87.07.44-.16Z"/><path class="cls-5" d="M138.13,137.23c.46.88,1.67,1,2.54.91.09,0,.29-.08.16-.19a.74.74,0,0,0-.5-.12,1.4,1.4,0,0,1-1.48-.59c-.1-.2-.82-.19-.72,0Z"/><path class="cls-5" d="M136.28,135.26a11.35,11.35,0,0,0,3.53.82c.33,0,.68-.29.17-.31a10.42,10.42,0,0,1-3.2-.78c-.18-.07-.87.13-.5.27Z"/><path class="cls-5" d="M134.71,133.28a5.8,5.8,0,0,0,4.6.12c.36-.14-.37-.25-.54-.18a4.41,4.41,0,0,1-3.54-.18c-.18-.07-.89.11-.52.24Z"/><path class="cls-5" d="M134.41,131.3c.6,1.25,1.74.88,2.79.41.35-.17-.36-.29-.54-.21a4.18,4.18,0,0,1-1,.38c-.25,0-.49-.51-.57-.67s-.82-.12-.72.09Z"/><path class="cls-5" d="M135,131.14a2.87,2.87,0,0,1-1.21-1.34l-.62.16a5.74,5.74,0,0,0,2.67,0c.51-.06.12-.33-.2-.29a4.45,4.45,0,0,1-1.95.09c-.09,0-.74-.08-.62.15a3.12,3.12,0,0,0,1.4,1.47c.18.08.89-.06.53-.22Z"/><path class="cls-5" d="M131.69,128c1,.36,2,.68,2.87,0,.14-.12-.52-.35-.7-.21-.57.48-1.12.3-1.75.06a.77.77,0,0,0-.52,0c-.15.06,0,.19.1.22Z"/><path class="cls-5" d="M129,125.15a3.48,3.48,0,0,0,3.71.28c.36-.16-.36-.29-.54-.21a2.22,2.22,0,0,1-2.52-.22c-.16-.12-.88,0-.65.15Z"/><path class="cls-5" d="M129.64,125a3.23,3.23,0,0,1,0-2.23l-.54.09a1.3,1.3,0,0,0,.52,0c.1,0,.43-.15.43-.15.22.06.85-.15.38-.26a1.37,1.37,0,0,0-.53,0c-.1,0-.43.15-.43.15s-.5-.06-.55.1a3.34,3.34,0,0,0,0,2.39c.08.19.82.13.72-.09Z"/><path class="cls-5" d="M128.33,121.09a2.68,2.68,0,0,1,1.71.32c.21.08.85,0,.4-.22a3.87,3.87,0,0,0-2.62-.37c-.37.14.33.33.51.27Z"/><path class="cls-5" d="M124.35,117a20.73,20.73,0,0,0,4.76,1.3c.44.06.48-.24,0-.29a19.72,19.72,0,0,1-4.39-1.21c-.21-.08-.86,0-.41.2Z"/><path class="cls-5" d="M123.78,115.87a4,4,0,0,0,2.69.38c.37-.14-.34-.31-.52-.24-.51.18-1.15-.15-1.63-.32a.81.81,0,0,0-.53,0c-.13,0-.15.16,0,.22Z"/><path class="cls-5" d="M121.25,114a3.56,3.56,0,0,0,4.3.07c.14-.09-.5-.36-.69-.24a2.42,2.42,0,0,1-3,.08c-.15-.11-.88-.14-.57.09Z"/><path class="cls-5" d="M121.9,113.94a2.43,2.43,0,0,1-.2-1.88l-.49.07a1.83,1.83,0,0,0,1,.11,4.57,4.57,0,0,0,.91-.46c.25-.12-.44-.34-.62-.25-.37.18-.63.5-1.07.35-.11,0-.45-.09-.5.07a2.51,2.51,0,0,0,.21,2c.09.2.81.22.73,0Z"/><path class="cls-5" d="M117.1,107.9a7.72,7.72,0,0,0,3.2.7c.31,0,.67-.35.16-.32a6.67,6.67,0,0,1-2.74-.61.75.75,0,0,0-.51,0c-.07,0-.28.16-.11.22Z"/><path class="cls-5" d="M116.6,106.8a3.77,3.77,0,0,0,2.67.33c.46-.16-.19-.28-.41-.2-.47.17-1.21-.21-1.64-.37a.72.72,0,0,0-.52,0c-.07,0-.27.15-.1.22Z"/><path class="cls-5" d="M117.28,106.62a6.15,6.15,0,0,1-.37-1,.94.94,0,0,1,0-.5l0-.07a2.13,2.13,0,0,1,.33.11.78.78,0,0,0,.52,0c.07,0,.26-.16.1-.22a1.66,1.66,0,0,0-1.41,0c-.63.33-.06,1.42.13,1.82.1.23.81,0,.74-.11Z"/><path class="cls-5" d="M115.55,116a14,14,0,0,0,4.06,1c.51,0,.15-.3-.16-.31a11.76,11.76,0,0,1-3.49-.91c-.21-.08-.86,0-.41.22Z"/><path class="cls-5" d="M114.5,115.14a6.61,6.61,0,0,0,3.9.43c.47-.1-.13-.34-.36-.29a5.15,5.15,0,0,1-3.14-.37c-.22-.08-.86.06-.4.23Z"/><path class="cls-5" d="M112.78,113.11c1.2,1.46,3.48.75,5,.38.48-.11-.15-.31-.38-.26-1.21.29-3,1-3.92-.2-.14-.18-.84-.07-.72.08Z"/><path class="cls-5" d="M112.12,111.5a5.8,5.8,0,0,0,4.2,0c.36-.15-.35-.3-.53-.23a4.26,4.26,0,0,1-3.14,0c-.17-.06-.89.07-.53.19Z"/><path class="cls-5" d="M111.66,109a4.17,4.17,0,0,0,3.25.12c.36-.15-.34-.31-.52-.23a2.74,2.74,0,0,1-2.19-.08.8.8,0,0,0-.53,0c-.13,0-.15.15,0,.21Z"/><path class="cls-5" d="M108.75,107a12,12,0,0,0,3.63.86c.44,0,.45-.28,0-.3a10.48,10.48,0,0,1-3.11-.75c-.17-.07-.89.06-.53.19Z"/><path class="cls-5" d="M107.72,105.24c.86.32,2.06.89,3,.55.26-.09-.39-.39-.58-.32-.64.23-1.54-.23-2.14-.46-.12,0-.35-.12-.47,0s.14.22.2.25Z"/><path class="cls-5" d="M105.58,104.48c1,.35,2,.65,2.9-.08.22-.18-.49-.29-.64-.16-.57.48-1.11.26-1.73,0a.8.8,0,0,0-.53,0c-.13,0-.14.16,0,.22Z"/><path class="cls-5" d="M103.57,101.4l1.21.45a.72.72,0,0,0,.52,0c.15-.06,0-.19-.1-.22l-1.21-.45a.7.7,0,0,0-.51,0c-.15.07,0,.2.09.23Z"/><path class="cls-5" d="M121.74,121.51c1.48.58,2.8,1.48,4.27,2.06.22.09.86,0,.41-.21-1.47-.58-2.79-1.48-4.27-2.06-.22-.08-.87,0-.41.21Z"/><path class="cls-5" d="M124.28,124.74l3.62,1.36c.3.11.74-.06.26-.24l-3.62-1.35c-.3-.12-.74,0-.26.23Z"/><path class="cls-5" d="M126.74,127.47a11.53,11.53,0,0,0,3.22,1.69c.3.11.74,0,.26-.23a10.39,10.39,0,0,1-2.91-1.53c-.15-.12-.88-.17-.57.07Z"/><path class="cls-5" d="M127.34,129.53a13.58,13.58,0,0,0,3.62,1.84c.3.11.75,0,.27-.22a12.5,12.5,0,0,1-3.32-1.68c-.15-.11-.87-.18-.57.06Z"/><path class="cls-5" d="M134.36,107.5a11.11,11.11,0,0,1-2.22-2.66c-.09-.18-.82-.07-.71.14a11.32,11.32,0,0,0,2.21,2.67c.16.16.85,0,.72-.15Z"/><path class="cls-5" d="M133.22,105.8a1,1,0,0,0-.61-1.22.74.74,0,0,0-.53,0c-.13,0-.15.15,0,.22a.81.81,0,0,1,.4,1c-.05.18.68.29.75.07Z"/><path class="cls-5" d="M132.75,105.92c1,0,3-.26,2.43-1.74-.1-.23-.81-.09-.75,0,.44,1.08-.61,1.4-1.5,1.38-.32,0-.69.3-.18.31Z"/><path class="cls-5" d="M136.58,104.12c.49.18.84.28,1-.27.07-.18-.65-.41-.73-.2,0,0-.12.22-.05.24-.12,0-.35-.12-.47,0s.14.23.2.25Z"/><path class="cls-5" d="M136.91,104.13a6.47,6.47,0,0,0,3.63-2c.12-.14-.57-.25-.72-.07a5.87,5.87,0,0,1-3.3,1.82c-.47.11.16.31.39.25Z"/><path class="cls-5" d="M87.24,135.5c.74-.37.51-1,.05-1.48a.73.73,0,0,0-.47-.21c-.08,0-.31,0-.19.16.41.46.58.92,0,1.23-.15.07.46.4.66.3Z"/><path class="cls-5" d="M87.18,135.43c1.58-.72,3.31-1.49,4-3.19.09-.21-.64-.21-.73,0-.67,1.63-2.31,2.35-3.83,3-.35.16.38.24.55.16Z"/><path class="cls-5" d="M92.7,131.92l.75-2c.09-.23-.65-.28-.72-.09l-.75,2c-.09.23.65.28.72.09Z"/><path class="cls-5" d="M95.32,129.75a2,2,0,0,0,.81-2.08c0-.23-.77-.22-.75,0a1.91,1.91,0,0,1-.7,1.94c-.16.08,0,.19.13.21a.75.75,0,0,0,.51,0Z"/><path class="cls-5" d="M96.31,129.26A7.32,7.32,0,0,0,98.25,128c.2-.18-.52-.18-.66,0a6.56,6.56,0,0,1-1.69,1.08c-.44.21.2.3.41.2Z"/><path class="cls-5" d="M99.42,129.91c.62-.56,1.34-1,2-1.55.14-.13-.53-.36-.7-.21-.62.57-1.34,1-2,1.56-.14.13.53.36.7.2Z"/><path class="cls-5" d="M100.29,129.05c1.16.36,2.31-.22,3.35-.69.26-.12-.41-.39-.59-.31-.76.35-1.83,1-2.69.71-.42-.13-.49.16-.07.29Z"/><path class="cls-5" d="M101.89,129.22a4.61,4.61,0,0,0,3.38-.3c.24-.11-.45-.3-.63-.22a3.27,3.27,0,0,1-2.35.3c-.22-.07-.86.06-.4.22Z"/><path class="cls-5" d="M103,129.59a7.88,7.88,0,0,0,3.56-.57c.26-.11-.39-.41-.58-.33a7.3,7.3,0,0,1-3.27.54c-.49,0,.06.35.29.36Z"/><path class="cls-5" d="M104.73,131.64l2,.75c.3.12.73-.06.25-.24l-2-.75c-.3-.11-.73.06-.25.24Z"/></svg>