<svg id="layer1" xmlns="http://www.w3.org/2000/svg" viewBox="0 0 146.82 156.89"><defs><style>.cls-1{fill:#f4b653;}.cls-2{fill:#1969dd;}.cls-3{fill:#492d0c;}</style></defs><path class="cls-1" d="M125,80.33c-.25.22-.51.41-.75.61a3,3,0,0,0-1.72.1,96,96,0,0,0-9.81,4.19,62.76,62.76,0,0,0-9.93,2.16A245.41,245.41,0,0,0,78,93.81H77.6c-6.27-1.11-12.85-1.08-19.36-1.33-1-.14-1.94-.26-2.92-.35a3.37,3.37,0,0,0-1.3.13c-.86-.06-1.72-.13-2.58-.22a32.69,32.69,0,0,0-6.38-1.46A75.42,75.42,0,0,1,33,86.2a3.55,3.55,0,0,0-4.71,1.36,3.59,3.59,0,0,0-.91-.11c-.66-1.09-1.31-2.17-1.95-3.2-2.07-3.33-7.52-1.19-6.4,2.7,6,20.94,22.31,36.27,43.79,38.61,6.26,2.15,13.48,2.14,20.32,1.09,23,3.65,38.83-22.56,47.37-42.07C132.11,81,128.16,77.6,125,80.33Z"/><path class="cls-2" d="M126.2,73.61a3.37,3.37,0,0,0-.36-4.61,3.11,3.11,0,0,0-.67-3.91l-.8-.8L124,64a3.16,3.16,0,0,0-1.77-1.31c-3.87-3.2-7.7-6.45-12-8.8-4.06-3.38-8.39-6.48-12.72-9.42A110.76,110.76,0,0,0,76.21,32.82c-5.54-2.19-10-2.55-15,1C53.53,39.2,47.1,46.54,40.89,53.47,35.6,59.36,29.26,65.62,26.22,73c-4.55,11.09,7.54,14.14,18.44,15.18,25.2,8,54.9,8.15,75.7-8.55a2.89,2.89,0,0,0,1-1.54,3.78,3.78,0,0,0,3.89-2.41c0-.1.08-.19.11-.29A3.05,3.05,0,0,0,126.2,73.61Z"/><path class="cls-3" d="M20.3,77.72c-1.81,6.61,10.56,9,14.81,10C48,90.8,60.71,92.93,74,92.58c12.89-.34,25.18-3.69,37.44-7.36,7.18-2.16,17.92-5.88,19.94-14.14.18-.76-1.77-.47-1.94.23-2.08,8.51-14,11.76-21.37,13.76-11.69,3.19-22.94,6.08-35.15,6.4-11.73.31-22.87-2-34.27-4.32-4.2-.86-18.15-3.19-16.37-9.65.21-.75-1.75-.47-1.94.22Z"/><path class="cls-3" d="M18.7,79.33c-1,7.17-1.09,14.06,2,20.76,3.16,6.87,9.79,12.45,15.82,16.77,13,9.33,28.25,11.59,44,10.74,14.14-.77,27.84-4.28,37.66-15.09s13.29-26.16,17.18-39.82c.21-.74-1.74-.47-1.94.22C130,85,126.84,97.42,119.78,108c-9.11,13.69-24.69,17.87-40.29,18.48-14.33.56-28.18-1.54-40.22-9.74-6.49-4.43-12.94-10.18-16.64-17.2-3.31-6.3-2.91-13.64-2-20.47.1-.81-1.85-.47-1.94.23Z"/><path class="cls-3" d="M25.45,75.08C26.8,69.72,32.13,67,36.24,63.89A88.17,88.17,0,0,0,48.3,52.29c4.3-4.78,8.32-9.78,12.76-14.43,3.2-3.35,6.33-6.35,11.44-5.7,2.61.34,5.07,1.72,7.3,3,7.82,4.58,13.91,11.33,22,15.54,9.54,5,21.1,9.37,26.78,19.13.37.63,2.22,0,1.93-.52-6-10.28-18.25-14.88-28.3-20.11-9.68-5-16.78-14.79-27.48-17.85-10.52-3-18.25,9.32-24,16-5.36,6.24-10.84,12.29-17.43,17.26-4,3-8.52,5.56-9.82,10.7-.18.68,1.76.39,1.93-.25Z"/><path class="cls-3" d="M22,85.2c8,5.66,17,10.27,27,10.59.7,0,2.06-1,.76-1.06-9.59-.3-18.26-4.86-26-10.27-.54-.39-2.3.39-1.79.74Z"/><path class="cls-3" d="M24.37,90.76c3.45,3.45,7.16,7.06,12.31,7.27.37,0,2.2-.69,1.27-.73-4.87-.2-8.52-3.94-11.75-7.17-.33-.33-2.07.4-1.83.63Z"/><path class="cls-3" d="M27.59,94.83a11.75,11.75,0,0,0,5.75,4.9,1.64,1.64,0,0,0,1.36-.19c.22-.13.62-.57.18-.73a11.21,11.21,0,0,1-5.49-4.73c-.35-.52-2.23.11-1.8.75Z"/><path class="cls-3" d="M29.19,102.82a14.58,14.58,0,0,0,5.73,3.27c.48.16,2.22-.58,1.58-.8a14,14,0,0,1-5.5-3.15c-.39-.39-2.18.33-1.81.68Z"/><path class="cls-3" d="M37.23,107.71c1.36,1.24,3.32,1.73,5,2.52a1.35,1.35,0,0,0,1.38-.13c.28-.19.56-.72.12-.94-1.47-.72-3.45-1.16-4.67-2.28-.61-.56-2.44.22-1.78.83Z"/><path class="cls-3" d="M87,120.77c8.33-.11,16.3-1.8,23.19-6.68,1.07-.76-.54-1.27-1.25-.76-6.48,4.58-13.93,6.06-21.74,6.16-1.05,0-1.52,1.29-.2,1.28Z"/><path class="cls-3" d="M89.38,117.64a39.38,39.38,0,0,0,22.38-7.49c1.07-.76-.5-1.47-1.29-.9a36.7,36.7,0,0,1-20.93,7c-1.11,0-1.48,1.46-.16,1.44Z"/><path class="cls-3" d="M95.46,113.31c5.52-.23,10.2-3.2,14.79-6,.83-.5-1.12-.29-1.48-.08-3.86,2.34-7.82,5.07-12.48,5.26-.53,0-2.11.85-.83.8Z"/><path class="cls-3" d="M100.45,108.26c3.55-1.7,7.37-2.62,10.61-4.92.82-.58-1.12-.38-1.49-.12-3.11,2.22-6.85,3.08-10.25,4.71-1.16.56.64.56,1.13.33Z"/><path class="cls-3" d="M104.3,103.74c2.25,0,5-.93,6.17-3,.2-.36-.69-.31-.8-.29a1.55,1.55,0,0,0-1.12.58,4,4,0,0,1-3.45,1.8,1.9,1.9,0,0,0-1.29.49c-.3.35.26.43.49.43Z"/><path class="cls-3" d="M110.73,98.2a18.26,18.26,0,0,0,4.4-3.48.52.52,0,0,0-.24-.89,1.37,1.37,0,0,0-1.37.37,15.73,15.73,0,0,1-3.62,2.93c-1.18.61-.12,1.57.83,1.07Z"/></svg>