<svg id="layer1" xmlns="http://www.w3.org/2000/svg" viewBox="0 0 427.84 314.48"><defs><style>.cls-1{fill:#8e856c;}.cls-2{fill:#492d0c;}.cls-3{fill:#ff9700;}.cls-4{fill:#3698c9;}</style></defs><path class="cls-1" d="M29.85,229.75a17.45,17.45,0,0,0,4.89,3.38,30.21,30.21,0,0,0,3.8,1.49,10.22,10.22,0,0,0,2,1.83c3.68,2.52,9.13,3.71,13.16,2.29a6.17,6.17,0,0,0,5.83-.27c3.08-1.73,4.75-5.3,5.1-8.92,3.41-2.85,6.83-5.67,10.4-8.3.83-.53,1.64-1.07,2.45-1.63,8.37-.36,18-5.14,23.83-8.18a3.53,3.53,0,0,0,.32-.21,145.78,145.78,0,0,0,2.1,16.64,4.23,4.23,0,0,0,.76,1.7c.18.57.39,1.15.61,1.72-2.49,3.66-3,8.94-1.68,13.39a4.11,4.11,0,0,0,6,2.45,4.13,4.13,0,0,0,1-.14c1.26-.34,2.56-.76,3.87-1.16a21.67,21.67,0,0,0,6.29-.76c4.68,3.11,11.63,3.31,16.74,1.75a4,4,0,0,0,2.24-1.71c1.21.41,2.43.81,3.66,1.15,4.66,1.26,7-4.76,3.3-7.43a175.4,175.4,0,0,1-14-11c-.86-1.78-1.86-4.14-3.18-5.48a7.34,7.34,0,0,0,.07-1.42h0s0,.62,0,.6,0,.15,0,.06c-.35-5.4-.29-10.6-1.48-15.74.16-1.37.3-2.66.4-4,.29-3.76.65-9.16-.78-13.44a20.38,20.38,0,0,0,1.83-3,67.8,67.8,0,0,0,11.18-6.63c1.95-.15,3.78-.25,5.38-.39,2.85-.26,5.65-.47,8.45-.59,3.13.15,6.25.3,9.39.41,8.73.32,17.46,2.13,26.22,1.84h.38v0l.28-.06c8.06,2.89,21.44-4.43,28.45-8.7.17,1.24.3,2.46.5,3.66C220.87,183,221.5,191,222.29,199c0,.74,0,1.48,0,2.22A88.32,88.32,0,0,1,210,231.79c-3.86,6.14-8.79,13.06-5.45,20.44,1,2.17,3.88,2.58,5.76,1.44a4.14,4.14,0,0,0,4.43,2.67,8.54,8.54,0,0,0,1.26,1c4.44,2.83,9.24,1.14,13.75-1.08a8.64,8.64,0,0,0,2.69.79,10.46,10.46,0,0,0,2.33,1.87c4.22,2.41,9.94.87,11.51-4.17.94-3.05.06-6.07-.91-9A26.93,26.93,0,0,1,244,234.4c.67-7.75,2.61-15.32,2.93-23,1.88-4.88,3.68-9.8,5.17-14.84,2-6.86,3.93-14.19,3.39-21.32a84.48,84.48,0,0,0,5.09-8.94,4.42,4.42,0,0,1,1.36-.29c1.13,3.79,2.16,7.6,3.24,11.4a278.67,278.67,0,0,0,7.72,31.43,4.36,4.36,0,0,0,4.58,2.92,2.86,2.86,0,0,0,.65.69,91.83,91.83,0,0,0,3.25,9.78c.13,1.62.25,3.25.35,4.88a8.43,8.43,0,0,0-2.74,6.57,25.19,25.19,0,0,0,3.17,10.81c0,1.26,0,2.52-.05,3.78-.07,4.57,6.85,5.77,8,1.23l.06-.19.54-.1c3,3.17,6.78,4.86,11.1,1.85a11.87,11.87,0,0,0,2.47-2.32c.45,0,.9,0,1.36,0,.23,0,.47.05.71.06a3.87,3.87,0,0,0,1.43-.25c3.9-.57,7.51-2.33,8.58-6,.86-2.9-.56-6-2.15-8.38a78.09,78.09,0,0,1-7-12.15c-4.9-11.19-7.07-23.17-7.7-35.31-.59-11.39-2.61-22.71-2.75-34.12a96.63,96.63,0,0,0-2.14-19.79c3.23-5.56,9.44-13.52,8.75-20.37a73.43,73.43,0,0,0,13.94-7.19,28.56,28.56,0,0,1,3.47-.93,3.92,3.92,0,0,0,2.92-3.42,4.29,4.29,0,0,0,1.46-2.69,51.09,51.09,0,0,0,7.54-5.75c8.66.33,18-.94,23.14-6.45a28.11,28.11,0,0,1,2.38,2.48,1.54,1.54,0,0,0,.14.13s-.09-.32-.14-.27c-2.05,2.22-3.8,5.19-6.1,6.15l-3.69-.07c-4.63-.08-4.83,8.31-.3,8.57a4.19,4.19,0,0,0,1.21,1.24c7.42,3.85,14.22,6.68,22.58,4.29a4.11,4.11,0,0,0,2-1.25c9.85-1.85,20-10.57,21.42-19.26a4.53,4.53,0,0,0,.05-.9c2.5-4.51,3.36-10.46,4-15,.68-4.79,2.38-14.88-3.3-17.61l-.26-.09a23.39,23.39,0,0,0-4.73-12.81,3.46,3.46,0,0,0-2.84-1.4c-2.27-3.22-5.55-5.45-7.76-8.67a4.54,4.54,0,0,0-4.87-1.67,4.53,4.53,0,0,0-1.25-1.31h0a6.3,6.3,0,0,0-1.7-.85,31.69,31.69,0,0,1-3-1.65,8.57,8.57,0,0,1-1.74-1.26,1.22,1.22,0,0,0-.18-.16s0,0,0-.06,0,.16,0,.07,0,.27,0,.27h0a4.07,4.07,0,0,0-8-1.15c-.31.46-.66.78-1,1.27-2.05,3.29,1.16,6.35,4.12,6a21.6,21.6,0,0,0,3.1,2.14,4,4,0,0,0,1.46,1.66c1.94,1.26,4,2.21,6,3.47a4.66,4.66,0,0,0,.9.44,3.71,3.71,0,0,0,.27.29c.55.47,1.09,1,1.62,1.44,1.37,1.83,2.94,3.53,4.56,5.31a22,22,0,0,1,3.18,4.51c-.09,6,0,12.31,2.91,17.71l.12.19c0,.06,0,.12,0,.19a43.27,43.27,0,0,0-4.54,8.75,16.46,16.46,0,0,0-3.85,3.13A35.16,35.16,0,0,0,374,86.56a4.17,4.17,0,0,0-.81-.1,10.56,10.56,0,0,1-6.64-2.25,3.14,3.14,0,0,0-2-.7,5,5,0,0,0-.55-.73c-2.42-2.62-4.84-5.15-8.45-5.91a5.06,5.06,0,0,0-.68-.1,4.31,4.31,0,0,0-.79-1.57,26.78,26.78,0,0,0-2.39-2.61c-2.8-3.8-5.5-8-9.56-10.57-2.41-2.92-4.75-5.89-7.06-8.87a4,4,0,0,0-.67-4.54c-2.36-2.28-4.79-5.24-7.39-8.13a13.38,13.38,0,0,0-3.86-5.31c-12.89-10.61-27.12-11.8-42.57-6.41-4.64-.41-9.25-1-13.92-.75s-9.22,2.18-13.55,4a65.19,65.19,0,0,0-13.44,7.28l-2.37,1.74c-7.79.26-15.53,1.2-23.28,2a3.8,3.8,0,0,0-1-.4,212.85,212.85,0,0,0-64-4.73c-16.26,1.19-32.9,2.83-47.92,9.67-13.31,6.06-25,16-30.42,29.86a54.66,54.66,0,0,0-3.35,7.4,52.23,52.23,0,0,0-3.54,22.29,3.94,3.94,0,0,0-3.68,5,13.34,13.34,0,0,1,.36,4.09,3.82,3.82,0,0,0-1.3,2.87c0,1.86-.12,3.66-.31,5.44a37.1,37.1,0,0,0-1.26,6.63,3.57,3.57,0,0,0,2.12,3.63,45.59,45.59,0,0,0,.09,8.26c1,8.13,3.25,16.29,2.92,24.53s-4.67,15.05-6.41,23c-1.22,5.56,1,12.59-1.06,17.92-5.95,1-12.95,3.05-17.3,6.7a8,8,0,0,0-10.13,4.16,8.56,8.56,0,0,0,0,7.7A4,4,0,0,0,29.85,229.75ZM236.12,96.13a4,4,0,0,1,1.15-2.19c0,.22.32.43.36.65-.66.76-1.51,1.51-1.52,2.27C236.11,96.62,236.12,96.38,236.12,96.13Zm18.93-23.45q-1.83,2.28-3.71,4.52c-.33.38-.65.76-1,1.15-.07-.19-.14-.38-.22-.56l1.3-1.52.18-.21,2.34-2.3C254.34,73.41,254.69,73.05,255.05,72.68ZM154.69,140.52l-.39.28-1.89,1.37c1.27-1.19,2.57-2.36,3.86-3.53-.29.35-.57.7-.86,1Zm78-73.77.34-.12-.45.47L232.5,67Zm48.7,71.87c0,.12,0,.23,0,.35l-.6,1.15c-.29-1-.61-2.06-.93-3.09a4.52,4.52,0,0,0,1.72,0A4,4,0,0,0,281.42,138.62Zm-213.32-9,.39,1.77v.22a4,4,0,0,0-.53.86C68,131.54,68.06,130.59,68.1,129.64Zm-4.18,73.87c0-4.2-.45-8.46.73-12.64C66.87,183,71,176.11,71,167.68S69,151.26,68,143a47.2,47.2,0,0,1-.2-7.79c.52,2.12.94,4.25,1.29,6.39s.51,4.29.87,6.42c0,.28.07.54.1.82h0c0,.36.07.73.13,1.09a3.08,3.08,0,0,0,.33,1.05c.36,1.74.78,3.48,1.24,5.2,0,2.71.07,5.43,0,8.16a3.73,3.73,0,0,0,2.42,3.73A175,175,0,0,1,75.38,190a3.81,3.81,0,0,0,.08.91c-.64.66-1.27,1.33-1.88,2C70.24,196.32,67,199.85,63.92,203.51ZM256.06,39.67c1-.43,2-.85,3-1.25a3,3,0,0,0-.06.6l-.2.19Z"/><path class="cls-2" d="M206.57,41.31c-21.84.56-43.32-4.51-65.18-2.68a139.29,139.29,0,0,0-42.31,9.83C86.43,53.76,74.86,62.3,68.59,74.75c-7.78,15.46-7.93,36.56-2.3,52.52.16.47,2.07-.11,1.93-.52-5.5-15.59-4.86-33.45.82-49C74,64.16,86.24,55,99,49.25c14.16-6.41,30-9.06,45.4-10.12,20.52-1.41,40.81,3.5,61.32,3,.53,0,2.12-.83.84-.79Z"/><path class="cls-2" d="M207.44,42.52c9.57.45,19.43.51,28.86-1.46,8.71-1.83,16-6,24-9.67,6-2.78,12.12-3.11,18.58-3,4.74.08,8.49-.8,13-2,12.15-3.25,21.57,1.56,30.25,9.72.44.42,2.24-.3,1.81-.71-6.25-5.88-13-10.37-21.7-11.19C298.07,23.8,294,25,290,26c-6.53,1.74-12.95,1.21-19.64,1.66-8.88.58-16.51,6.36-24.47,9.69-11.7,4.89-25.21,4.77-37.65,4.18-.65,0-2.09.91-.79,1Z"/><path class="cls-2" d="M322.3,36.28c5.26,3.63,8.58,10,11.89,15.31a81.92,81.92,0,0,0,13.6,16.46c7.95,7.51,12.75,21.12,25.88,18.37C385.36,84,387.57,70,386.6,60.07c-1.4-14.21-13.41-23.26-25.27-29.23-.69-.35-2.42.6-1.5,1.06,11.07,5.57,22,13.54,24.51,26.42a35.94,35.94,0,0,1-.59,15.58c-2.17,8.42-10.72,14.69-19.18,10-4.91-2.72-7.42-8.28-10.84-12.45C349.87,66.76,345,63,341.06,58.33c-6.08-7.27-9.23-17.58-17.25-23.12-.65-.45-2.38.46-1.51,1.07Z"/><path class="cls-2" d="M361.81,30.35q-3.17-.09-3.81-2.92l-.88.61a7.69,7.69,0,0,0,4.41-2.34c1.8-2,.5-5.23,3.05-6.87l-1.72.2c1.16,1.95,1.46,4.57,2.79,6.37a12.17,12.17,0,0,0,5.43,3.79c6.79,3,12.72,6.29,17.56,12,7.06,8.37,10.23,18.65,10,29.53A43.08,43.08,0,0,1,387,99.18a29.61,29.61,0,0,1-24.08,9.22c-7.14-.67-13.74-4.47-19.6-8.34-.48-.32-2.16.45-1.81.68,11,7.26,23.67,11.74,36.34,5.9,10.42-4.8,17.41-13.82,20.78-24.67a45.4,45.4,0,0,0-3.21-34.32A40.89,40.89,0,0,0,382,33.05a52.88,52.88,0,0,0-9.38-4.66c-5.15-2.08-5.32-5.6-7.85-9.88-.29-.48-1.39,0-1.72.19-3.58,2.3-1,7.41-6.14,8.64-.2.05-1,.28-.88.61.56,2.27,2.38,3,4.52,3.26.46.07,2.24-.72,1.23-.86Z"/><path class="cls-2" d="M331,94.53c9.51.08,20.56-1.44,27.08-9.12l-1.92.44c-.66,7.16-7.39,9.58-13.08,12.07-3.4,1.5-6.39,2.57-10.08,2.41a8.86,8.86,0,0,0-2.77.2c-.17,0-.93.22-.9.51.05.45.13.32.65.67s2-.51,1.83-.63l-.55-.56-.9.51c2.18-.58,5,.37,7.31-.08,3-.59,5.56-2.46,8.42-3.52,5.5-2,11.42-5.76,12-12.1,0-.34-1.74.24-1.91.45-5.85,6.89-15.37,8.1-23.91,8-.37,0-2.19.71-1.27.72Z"/><path class="cls-2" d="M340.54,92c-7.13-.06-13.86,2.62-14.2,10.65,0,.71,1.89.3,1.92-.28.12-2.85.87-5.47,3.15-7.36s5.57-2,8.35-2c.66,0,2.08-1,.78-1Z"/><path class="cls-2" d="M333.38,66.49C329.5,66,328,60.23,324,60.27c-4.84,0-7.77,5.3-12.41,5.22l-.71,1.27,1.12,0c.84,0,2-1.25.7-1.27l-1.11,0c-.85,0-2,1.25-.71,1.27,4.17.08,6.89-3,10.36-4.78,4.07-2.09,7.4,5.26,11.44,5.79.87.11,2-1.11.7-1.28Z"/><path class="cls-2" d="M331.91,65.47c-1.22.07-3.63-4.2-4.32-5-1.1-1.32-2.59-2.6-4.44-2.41-4.76.48-8.25,4.08-12.37,6.12-1.15.57.64.57,1.13.33,3.91-1.94,9.27-7.9,13.32-4,1.56,1.53,3.31,5.95,5.86,5.8.55,0,2.1-.92.82-.85Z"/><path class="cls-2" d="M311,67.1c5.75.54,9-3.48,13.54-6.16.81-.47-1.14-.21-1.47,0-3.29,1.94-6.29,5.85-10.47,5.46-.45,0-2.06.67-1.6.72Z"/><path class="cls-2" d="M310.94,68c3.93.62,7.26-2,10-4.46.87-.78-1-1-1.59-.47-2.12,1.88-4.69,4.13-7.73,3.65-.87-.13-2,1.08-.7,1.28Z"/><path class="cls-2" d="M321.41,63.61a2.69,2.69,0,0,0,.43,4,6.25,6.25,0,0,0,5.15,1.3c.39-.07.9-.49.78-1s-.75-.5-1.15-.42c-1.59.29-5.19-1.38-3.59-3.32.79-1-1-1.31-1.62-.61Z"/><path class="cls-2" d="M320.23,63.55c.63,2.86,2.29,4.87,5.37,4.4.23,0,1.07-.21,1.13-.52.46-2.33-.45-3.75-2.85-3.89-.34,0-1.58.16-1.59.65a4,4,0,0,0,1.54,3.72c.29.24,2-.18,1.88-.59-.37-1-.61-2-1-3l-1.88.59c.48.46,1,.77,1.53,1.23.31.3,1.87-.12,1.88-.59a5.77,5.77,0,0,0-.47-2.42l-1.93.52c.49,1.21,1,2.43,1.48,3.64.18.44,2-.05,1.93-.51A4,4,0,0,0,324.7,63c-.28-.12-2.08.15-1.88.59a7.39,7.39,0,0,0,2.59,3.13c.29.2,2-.14,1.87-.59-.41-1.19-.55-2.44-1-3.63,0-.12-.24-.13-.34-.14h-.51c-.23,0-1.88.29-1.54.73,1.34,1.67,2.56,3.54,4.87,3.76.41,0,2.22-.69,1.26-.78-2-.19-3.19-2.25-4.31-3.64l-1.53.72c.6,0,.39.53.53,1.09.21.82.34,1.62.61,2.42l1.88-.58a7,7,0,0,1-2.48-3l-1.88.59a3.85,3.85,0,0,1,2.47,3.59l1.93-.51c-.49-1.22-1-2.43-1.48-3.65-.19-.46-2.08.16-1.93.52a5.77,5.77,0,0,1,.47,2.42l1.87-.59c-.48-.46-1-.77-1.53-1.23-.27-.26-2,.19-1.87.59.37,1,.6,2,1,3l1.87-.59a3.8,3.8,0,0,1-1.43-3.57l-1.59.65c2.05.12,2.55,1.64,2.19,3.44l1.14-.52c-2.29.34-3.4-2.45-3.8-4.22-.09-.41-2,.07-1.93.52Z"/><path class="cls-2" d="M270.77,37.12c-5.94-2.27-13.28-1.88-19.51-1.25a58.37,58.37,0,0,0-19.36,5.2c-11.43,5.42-22.91,19.27-14,31.66,4.67,6.45,11.28,10.73,17.32,15.73,7.29,6,10.36,14,14.76,22,8.39,15.3,26.61,16.05,41,22.57.49.22,2.27-.53,1.56-.85-12.19-5.53-27.48-6.52-36.91-16.92-4.88-5.39-6.41-12.66-10.47-18.52-3.92-5.65-8.9-9.66-14.27-13.84-5.08-4-10.12-8.29-13-14.17-3.34-6.87,0-14.21,4.65-19.49,5.73-6.53,14.13-10,22.46-11.69,7.27-1.46,17.16-2.29,24.18.38.51.19,2.27-.58,1.56-.84Z"/><path class="cls-2" d="M293.33,131.88c1.41-2.54,4.08-4.12,5.73-6.52,2.32-3.35,3.52-7.48,4.4-11.4,1.63-7.2,1.05-14.92-.27-22.11-1.2-6.58-3.6-13.48-7.93-18.67-4.66-5.58-12.16-8.81-15-15.83-.2-.48-2.09.14-1.93.52,2.32,5.71,7.91,9.29,12.37,13.23,5.8,5.14,8.52,12.37,10.26,19.75a57.33,57.33,0,0,1,.62,23.44,36.19,36.19,0,0,1-3.65,10.14c-1.65,3.14-4.82,4.78-6.49,7.78-.16.28,1.63.16,1.91-.33Z"/><path class="cls-2" d="M338.53,103.5c-3.19-.06-7.35-.6-10.41.58s-5.95,2.88-9.2,3.83c-3.82,1.12-7.92,1.08-11.85,1-.42,0-2,.86-1,.89a9.64,9.64,0,0,1,4,.65c.48.17,2.23-.57,1.57-.82a7.81,7.81,0,0,0-2.75-.66l-.89.85c1.09,0,2.18,0,3.27-.07a39.67,39.67,0,0,0,7.82-1.14,31.45,31.45,0,0,0,7.36-2.94c3.39-1.82,7.53-1.38,11.26-1.32.58,0,2.1-.86.8-.88Z"/><path class="cls-2" d="M284.67,134.21c-4.4,3.64-7.22,8.5-10,13.39a62.89,62.89,0,0,1-10.21,13.6,124.59,124.59,0,0,0-9.29,10.34c-2,2.49-5.47,6.46-4.8,10,.07.36,2-.09,1.94-.52-.66-3.42,2.85-7.31,4.76-9.79a114,114,0,0,1,9.78-10.82c7.8-7.82,11.07-19.3,19.58-26.33.38-.32-1.4-.11-1.74.17Z"/><path class="cls-2" d="M214.38,159.61c3.11,13.63,5.56,27.32,5,41.37-.36,8.52-2.25,16.72-4.61,24.88a36.51,36.51,0,0,1-2.81,7.74c-.52,1-2,2.9-1.57,4.06.08.23.62.11.78.09l.33-.05c.77-.12,1.72-.91.36-.7.73-.12,2.09-3.91,2.46-4.57,1.46-2.67,2-5.84,2.89-8.76a106.07,106.07,0,0,0,4-21.61c1.08-14.5-1.65-28.9-4.86-43-.1-.41-2,.07-1.93.52Z"/><path class="cls-2" d="M250.34,181.3c-.41,13.19-3.85,26-5.81,39-.83,5.56-2.66,11.42-2.19,17.08.41,5.07,2.12,9.78,3.32,14.7.69,2.82,1,4.78-2.43,5.08-3.68.32-6.83.73-10.53.1-5.67-1-11.22-2.19-17-1.45-4.9.63-15-1.31-12-8.44,1.69-4,6-6.48,8.7-9.67.8-.95-1-1.32-1.63-.62-4.71,5.54-15.83,13.71-4.43,19.24,5.05,2.45,11.81.45,17.1,1,3.9.37,7.74,1.36,11.62,1.93,3.08.44,6.42-.43,9.48-.7,3.5-.31,3.74-2.44,3.25-5.8-1.07-7.25-4.06-13.08-3.3-20.67,1.7-17.07,7.24-33.61,7.77-50.83,0-1-1.93-.78-2,.13Z"/><path class="cls-2" d="M262,168.83c4.11,12.14,10.06,23.69,13,36.19,1.45,6.21,3.76,11.48,4.2,17.94.43,6.24.3,11.89-1.4,17.93-.77,2.72-2.69,6.72-.21,9.1,1.77,1.69,5.85,1.69,8,1.52,8.89-.7,18.23.51,26.85-2.21,2.3-.72,5.26-2.61,5.82-5.15,1-4.57-2.74-8-5.49-11.2-9.14-10.5-9.08-23.11-10.68-36.11-1.53-12.42-4.2-24.37-4.25-37,0-9.48.75-19.56-1.39-28.88-.19-.84-2.13-.34-1.93.52,1.93,8.38,1.37,17.41,1.37,25.95a164.75,164.75,0,0,0,2.39,28.12c1.88,11.09,1.8,22.81,4.85,33.63a40.92,40.92,0,0,0,6.06,12.28c3.09,4.41,12.63,12,3.51,16.32-7.17,3.43-17.44,1.89-25.17,2.23-3.65.15-9.6.8-9.12-4.38.44-4.81,2.67-9.27,3-14.19a70.18,70.18,0,0,0-.66-14c-.79-5.6-3.49-10.82-4.54-16.39-.92-4.93-3.41-9.89-5.28-14.5-2.45-6.07-4.89-12.12-7-18.32-.29-.84-2.21-.3-1.93.52Z"/><path class="cls-2" d="M217.5,171.86c-12,9.71-31.28,6.67-45.58,6.25a103.25,103.25,0,0,0-20.64,1c-6.81,1.17-14,2-20.21,5.16-1.18.6-.12,1.61.85,1.12,7.27-3.66,16.56-4.86,24.59-5.68,8.26-.84,16.66-.17,24.94.08,12.3.38,27.16,1.11,37.33-7.11,1-.83-.54-1.46-1.28-.86Z"/><path class="cls-2" d="M132.46,184.61c.3-2.5-10.17,4.27-10.88,4.71-4.89,3.06-8.23,8.67-12,12.9-5.73,6.45-13.86,12.68-22.16,15-9.91,2.78-20.59,6-24.8,16.56-2,5.06-3.85,8.69-11.17,7.23a33.87,33.87,0,0,1-8.57-3.41,84.85,84.85,0,0,1-12.59-7.3c-4-3-7.66-7.9-3.27-12.29s13.27-4.89,19.12-6a37.8,37.8,0,0,0,23-13.62c2.75-3.44,6-7.59,6.91-12a36.42,36.42,0,0,0,.12-9.56c-.66-9.39-2.48-18.73-4.19-28-1.36-7.3-3.26-14.71-3.81-22.13,0-.35-2,0-1.93.52,1.23,16.49,6.43,32.6,7.92,49.12a42.75,42.75,0,0,1,0,10.36c-.81,5.14-5.44,10.47-8.79,14.13a33.85,33.85,0,0,1-18.9,10.45c-4.7.9-9.52,1.61-14.06,3.16-6.89,2.36-12.78,7.23-6.56,14.17,3,3.32,7.3,5.58,11.25,7.52,4.63,2.26,8.87,4.81,14,5.84a13.23,13.23,0,0,0,8.31-1.13c4.38-2.07,4.43-7.47,7-11,5.28-7.27,12.71-9.89,21.16-12.09a38.3,38.3,0,0,0,13.89-7.15c6.64-5,11.58-10.92,17-17.1a32.21,32.21,0,0,1,6.73-5.54c1.09-.71,2.17-1.43,3.27-2.12.43-.27,2.16-2,2-.78,0,.24,1.87.07,1.93-.52Z"/><path class="cls-2" d="M101.21,212.66c-.46,5.75.44,11.39,1,17.1a49.75,49.75,0,0,1-.27,11.76c-.37,2.55-.7,4.49.15,7a.7.7,0,0,0,.63.45c6.24.39,11.93-1.74,18-2.7,4.28-.67,8.7.44,12.89,1.27,4.67.91,12.91,2.86,16.26-1.87,5.1-7.21-8.18-11.58-11.67-14.76-6.35-5.8-7.39-14-7.83-22.16-.4-7.32-.62-14.56-2.5-21.7-.24-.9-2.17-.38-1.94.52,3.53,13.32-.28,29,7.6,41,2.9,4.41,7.82,6.36,12.08,9.13,2.44,1.6,3.69,4.11,2.81,7-.81,2.66-4.79,2.52-7,2.43-8.42-.32-15.49-3.37-24-1.66-3.69.74-7.23,1.81-11,2.16-5,.46-2.31-8.14-2.09-11.09.61-8-1.82-15.93-1.17-24,.08-1-1.89-.74-2,.15Z"/><path class="cls-2" d="M64.07,89.94C62.39,100,60,110,58.59,120.09a95.18,95.18,0,0,0,.7,29.08c1.78,10.74,4,21.3,2.16,32.2-.87,5.14-3.21,9.57-5.35,14.24-1.28,2.78-2.33,5.72-1.71,8.79.19.95,2.13.44,1.93-.52-.84-4.17,1.78-8.37,3.52-12a46.75,46.75,0,0,0,3.57-10.64c2-9.53.1-19.6-1.57-29-1.91-10.86-2.65-21.27-1.29-32.25,1.27-10.13,3.8-20.08,5.48-30.15.17-1-1.81-.79-2,.13Z"/><path class="cls-2" d="M64.18,124.81a205.18,205.18,0,0,0,.37,20.6c.54,6.51,2.3,12.76,3.26,19.19,1,7-1.79,14.07-3.29,20.84C64.18,187,63.71,202,63,202c.24.35.49.69.74,1,.8-1,1.52-2,2.32-3s-1-1.32-1.63-.61c-.8,1-1.52,2-2.32,3-.5.6.17,1,.73,1h.76a1.15,1.15,0,0,0,1-.61c1.86-5.09.72-10.61,1.52-15.92,1-6.63,3.74-12.88,3.83-19.65.08-5.75-2.1-11.4-2.84-17.06a173.62,173.62,0,0,1-1-25.59c0-1.05-1.94-.79-2,.13Z"/><path class="cls-2" d="M215.57,248.29c4.16-1.38,8.07,5.93,9.89,8.54.29.41,1.81.08,1.93-.42.36-1.6,1.23-2.92,1.6-4.52l-1.87.5c2.89,2.88,7.67,6.13,10.17,1.17l-1.92.42c1.79,3.44,5.3,2.87,8.31,4.78.49.31,2.15-.47,1.81-.68-2.77-1.76-6.52-1.4-8.19-4.62-.27-.52-1.72,0-1.92.42-1.57,3.12-5.43-1.16-6.44-2.17-.32-.32-1.76,0-1.87.5-.36,1.6-1.23,2.92-1.6,4.52l1.93-.42c-3-4.31-6.44-10.56-12.53-8.55-1.3.43-.07.78.7.53Z"/><path class="cls-2" d="M292.46,240.64c1.67,4.16,4.58,7.54,9.28,7.84.31,0,1.6-.18,1.6-.62a23.75,23.75,0,0,0-.63-6.83l-1.93.52c1.49,1.69,2.35,3.72,4.51,4.69a2.61,2.61,0,0,0,1.83-.64c-2.09-.93-3-2.93-4.41-4.57-.26-.3-2,.12-1.93.52a23.75,23.75,0,0,1,.63,6.83l1.6-.62c-4.39-.29-7.1-3.84-8.62-7.64-.16-.42-2.05.21-1.93.52Z"/><path class="cls-2" d="M306.83,242.42c.82,1.63,2.12,3,2.94,4.6.32.62,1.92.14,1.94-.52,0-.5,0-1,0-1.51s-1.91-.2-1.93.51l0,1.52,1.94-.52c-.83-1.64-2.13-3-2.95-4.6-.32-.63-2.19,0-1.93.52Z"/><path class="cls-2" d="M310.64,241.57c1.86-.82,3.57.74,4.43,2.26a7.08,7.08,0,0,1,.75,4.73c-.09.44,1.81.12,1.91-.34a7.21,7.21,0,0,0-1.86-6.42c-1.71-1.76-4.31-1.38-6.35-.48-1.16.51.66.44,1.12.25Z"/><path class="cls-2" d="M127.38,237.75c2.53,3.56,4.91,7.3,8.29,10.14.46.39,1.71.06,1.72-.64,0-2.37,0-4.49-1.5-6.45-.53-.7-2.32,0-1.77.86,1.62,2.55,6.86,10.8,9.3,4.38l-1.25.6a5,5,0,0,1,3.35,1.43c.68.56,2.35-.41,1.48-1.13a7.65,7.65,0,0,0-4.17-1.74,1.26,1.26,0,0,0-1.26.6c-.84,2.23-2.22,0-3.14-1.18a42.18,42.18,0,0,1-2.54-3.82l-1.77.86c1.35,1.8,1.34,3.57,1.31,5.73l1.72-.63c-3.26-2.75-5.55-6.43-8-9.87-.52-.73-2.36,0-1.76.86Z"/><path class="cls-2" d="M130.52,147.07c-2.23,5,4.32,10.4,7.67,13.23,3.58,3,6.79,5.94,11,8.17a90.58,90.58,0,0,0,12.32,5c.85.3,2.27-.92,1.11-1.33-6.74-2.39-13.29-4.85-19-9.33-3.46-2.73-13.58-10.26-11.27-15.46.46-1-1.49-1.05-1.85-.24Z"/><path class="cls-2" d="M147.76,158.45c2.81,3.41,7,5.2,10.47,7.78s7.19,5.42,11.36,7.07c.44.18,2.19-.53,1.58-.77-4.39-1.74-8.21-4.84-12-7.61-3.25-2.39-7-4-9.6-7.14-.31-.38-2.14.28-1.82.67Z"/><path class="cls-2" d="M161.3,165.62c3.33,4.08,8.22,6.31,13.07,8,.85.31,2.27-.92,1.11-1.33-4.59-1.66-9.26-3.71-12.41-7.58-.58-.71-2.41.07-1.77.86Z"/><path class="cls-2" d="M170.31,168.72c3.22,2.58,5.72,5.92,8.94,8.5.42.34,2.13-.42,1.82-.66-3.22-2.59-5.73-5.92-8.94-8.51-.42-.33-2.13.42-1.82.67Z"/><path class="cls-2" d="M180.15,169.69c1.71,2.57,4.31,4.33,6.71,6.19.51.4,2.28-.36,1.8-.73-2.39-1.86-5-3.62-6.7-6.19-.33-.49-2.21.13-1.81.73Z"/><path class="cls-2" d="M188.45,171.32c1.38,1.27,3.77.52,5.25-.14.15-.06.68-.39.24-.48a2.32,2.32,0,0,0-1.34.25,2,2,0,0,1-2.33-.28c-.37-.34-2.1.39-1.82.65Z"/><path class="cls-2" d="M194.14,170.24a13.26,13.26,0,0,0,5.76.92c1.12,0,1.47-1.42.16-1.45a10.92,10.92,0,0,1-4.81-.79c-.82-.4-2.22.77-1.11,1.32Z"/><path class="cls-2" d="M131.81,160.44c5.36,4,10.68,8,15.69,12.41.41.37,2.17-.37,1.81-.68-5-4.41-10.32-8.43-15.68-12.42-.46-.33-2.16.43-1.82.69Z"/><path class="cls-2" d="M128.72,165c3,4.5,7,8.15,10.38,12.32.56.68,2.4-.09,1.77-.85-3.4-4.17-7.41-7.81-10.38-12.32-.48-.73-2.33,0-1.77.85Z"/><path class="cls-2" d="M124.74,170.84a17.22,17.22,0,0,0,4.48,7.8c.55.58,2.38-.17,1.78-.81a16.55,16.55,0,0,1-4.33-7.51c-.2-.81-2.13-.3-1.93.52Z"/><path class="cls-2" d="M79.68,66.82a63.66,63.66,0,0,0,.38,19.82c.1.5,2,0,1.94-.52a62.61,62.61,0,0,1-.4-19.61c.07-.59-1.86-.21-1.92.31Z"/><path class="cls-2" d="M86.56,63.94c-1.53,3.22-.81,6.57-.2,9.93.07.34,2-.1,1.93-.52-.6-3.3-1.34-6.6.17-9.77.11-.22-1.68-.1-1.9.36Z"/><path class="cls-2" d="M92,60.06a6.71,6.71,0,0,0-.17,5.58c.29.66,2.19.06,1.93-.52a6.17,6.17,0,0,1,0-5c.4-.83-1.53-.59-1.79,0Z"/><path class="cls-2" d="M97.85,59.24c.77,0,2-1.17.73-1.17-.76,0-2,1.17-.73,1.17Z"/><path class="cls-2" d="M110,57.12l4.59-2.19c1.2-.57.12-1.51-.83-1l-4.59,2.19c-1.2.57-.13,1.5.83,1Z"/><path class="cls-3" d="M217.58,43.82c-.23.11-.43.23-.65.35a27.36,27.36,0,0,0-8.67-2c-1.14,0-2,.7-2.54.7h-1.16a3.33,3.33,0,0,0-3.33,3c-.12,0-.24.17-.37.22-15,6-30.26,7.16-46.18,5.48a2.8,2.8,0,0,0-1.85.44c-1.46-.82-2.93-1.6-4.43-2.32-6.86-10.91-19.48-11.68-31.6-7.18a3.5,3.5,0,0,0-1.4,1,3.28,3.28,0,0,0-3.94,3.34C112,60.76,124.92,69.18,137.94,73c6.24,7,17.37,7.87,26.18,8a98.41,98.41,0,0,0,13.3-.57,11.09,11.09,0,0,0,4.05,1.27,2.85,2.85,0,0,0,3.27-2.49c.82-.19,1.64-.39,2.45-.61a39.23,39.23,0,0,0,13.67-4.15,32.27,32.27,0,0,0,10.32-9.24,3.93,3.93,0,0,0,1.38-1.78c0-.1.06-.2.1-.3,3.17-4.89,2.68-10.46,8.45-13.31C225.16,47.87,221.61,41.83,217.58,43.82Zm-37.13,14.8-1.44.54-1.51-.22C178.49,58.85,179.47,58.74,180.45,58.62Z"/><path class="cls-3" d="M325.83,39.53a21.83,21.83,0,0,0-4.24-4.4,3.57,3.57,0,0,0-4.71,0,3.91,3.91,0,0,0-1.24,0c-.68-.49-1.4-1-2.15-1.48a3.27,3.27,0,0,0-4.65,1.21c-6.2-2.77-12.37-5.59-18.44-8.6-4-2-7.58,4-3.54,6,5.29,2.62,10.65,5.09,16,7.52a2.85,2.85,0,0,0,1.51,1.72,60,60,0,0,0,11,4.05A3.55,3.55,0,0,0,319.3,44a3.13,3.13,0,0,0,.58-.57l.32.1C322.91,46.4,328.25,43.09,325.83,39.53Z"/><path class="cls-3" d="M170.74,106.06c-.26-1.13-3.27-2.17-4.28-2.17h-2.77a.42.42,0,0,0-.15,0,51.93,51.93,0,0,0-1.39,5.49c-4.33,6.4-4.88,16.15-4.13,23.28.11,1.09,3.38,2.19,4.28,2.19h2.77a.32.32,0,0,0,.15-.06C170.08,125.84,173.15,116.27,170.74,106.06Zm-8,16.49a12.77,12.77,0,0,0,2.24.93,51.58,51.58,0,0,1-2.77,6.39A45.82,45.82,0,0,1,162.7,122.55Zm4.38-9.29a34,34,0,0,1-.54,4.14Q166.77,115.33,167.08,113.26Z"/><path class="cls-3" d="M197.92,104.72c.2-.87.41-1.73.65-2.58.53-2-4-4-4.64-1.59a1,1,0,0,1,0,.17c-1.09-.44-2.53-.59-2.73.76a111.29,111.29,0,0,0-.92,16.63,2.81,2.81,0,0,0,1.69,2.15c0,.67.11,1.55.19,2.22.17,1.41,2.07,2.41,3.27,2.41h1.85c.71,0,1.16-.65,1.33-1.29C200.15,117.78,201.1,110.09,197.92,104.72Z"/><path class="cls-3" d="M222.67,97.89c-.91-3-3.7-6.42-7-6.42-.16,0-.23.11-.19.27a110,110,0,0,0,.92,16.63,1.71,1.71,0,0,0,.56.86c.1.94.22,1.89.36,2.83s4,3.2,4.06,2.77.26-.69.76-.84l.17-.08C223.06,108.62,224.25,103.14,222.67,97.89Z"/><path class="cls-3" d="M138.83,100.76a27.14,27.14,0,0,0-5.71,11.45,1.84,1.84,0,0,0,.47,1.55,41.54,41.54,0,0,0-1.41,9.28c0,1.21,1.84,2.85,2.95,2.85H137a1.38,1.38,0,0,0,1.38-1,59.4,59.4,0,0,0,4.64-21.8C143,101.57,140,99.43,138.83,100.76Z"/><path class="cls-3" d="M117.37,90.19c-.07.1-.11.2-.17.3a2.25,2.25,0,0,0-1,1.16c-1.8,4.67-2.76,9.45-1.91,14.44.44,2.6,4,2.69,4.93.34a44.6,44.6,0,0,0,2.83-15.37C122.1,88.64,118.42,88.46,117.37,90.19Z"/><path class="cls-3" d="M100.63,81c-.07.23-.12.47-.18.7a2,2,0,0,0-2.59,1.14,40.41,40.41,0,0,0-2,11.64c0,2,3.16,3.64,4.47,1.79a22.53,22.53,0,0,0,2.25-4.06,1.68,1.68,0,0,0,.81-1,37,37,0,0,0,.92-4.15c.4-1.55.73-3.12,1-4.71C105.85,80,101.33,78.67,100.63,81Z"/><path class="cls-3" d="M97.12,63.82a3.2,3.2,0,0,0-3-2.93H93.2a2.13,2.13,0,0,0-1.85,2v.15a1.4,1.4,0,0,0-1.73,1.17c-1.33,4.58-1,9.67-1,14.39,0,1.79,2.94,4,4.29,2.08a19.88,19.88,0,0,0,2.28-4.07,1.56,1.56,0,0,0,1.17-1.56V73.26C96.35,70.23,97.08,66.87,97.12,63.82Z"/><path class="cls-3" d="M334.76,46.23c-1.18-1-3.69-.8-4.2.78a2.11,2.11,0,0,0-.69,2.76c2.43,4.95,4.59,10,7.39,14.78a2.58,2.58,0,0,0,4.68-1A19.31,19.31,0,0,0,334.76,46.23Z"/><path class="cls-3" d="M301.3,48.66c0-.9-3.17-3.73-3.15-3.76a14.37,14.37,0,0,0-.95,5.67,1.37,1.37,0,0,0,.21.65c-.89,3.12-1.66,6.12-1.13,9.51.15,1,3.21,3.46,3.15,3.76.63-3.71,1.27-7.41,1.61-11.15l.24-.86a1,1,0,0,0-.11-.68C301.24,50.76,301.29,49.71,301.3,48.66Z"/><path class="cls-3" d="M283.54,35.91c0-.66-.81-1-1.38-1h-1.84a3.22,3.22,0,0,0-3.22,2.21c-1,4.18-1.69,8.17-.94,12.46a1.19,1.19,0,0,0,1,1.11c.58,2,3.81.32,4.38-.92a22.24,22.24,0,0,0,1.73-7.58,1.61,1.61,0,0,0,.1-.78V38.11s.09,0,.08-.06C283.44,37.33,283.54,36.63,283.54,35.91Z"/><path class="cls-4" d="M223.42,80a24.28,24.28,0,0,0-2.95-6,1.64,1.64,0,0,0-2.1-.42,14.21,14.21,0,0,0-3.77-4.51c-.85-.71-2.19-.17-3.08.72-1.31.17-2.75,1.3-2.73,2.5a20.72,20.72,0,0,0,.15,2.32A3.16,3.16,0,0,0,207,76.4l-.25-.07a3.22,3.22,0,0,0-3.37,1.89A27.33,27.33,0,0,0,190.57,83l-.23.09-.13.06a31.36,31.36,0,0,0-6,.36c-9.11-1.67-18.32-2.83-27.26,0-1.14-.17-2.28-.36-3.42-.56q-4.55-1.23-9.12-2.3a80.08,80.08,0,0,0-10.58-5.14,3,3,0,0,0-2.81,1l-3.35-2.88a135.51,135.51,0,0,0-14.43-13.71,34.58,34.58,0,0,0-5.44-11.69c-.79-1-2.55-.42-3.36.37a3.74,3.74,0,0,0-2.65,2.05,17.36,17.36,0,0,0-1.05,2.54l-.33-.34c-1.4-1.41-4.84.48-4.28,2.46.07.23.15.46.22.69a2.12,2.12,0,0,0-.22,1.15c.74,6.22,3.93,11.48,8.18,15.9,5.2,9.09,14.19,16.79,23.24,19.18a2.68,2.68,0,0,0,2.09-.45c1.59,1.07,3.22,2.08,4.87,3a2.3,2.3,0,0,0,2.06,0c4.59,5.36,13.6,5.76,20.1,5.81,1.58,0,3.17,0,4.76-.11a52.92,52.92,0,0,0,13.92.93c0,.05,0,.11,0,.16s0,.34-.06.5c-1.27.25-2.29.91-1.67,1.71s.3,2,.07,3.15a4.52,4.52,0,0,0-.11.53,4.24,4.24,0,0,0-.08.58c-.06,1.18,2,1.49,3.49,1,1.25.56,3.71-.12,4.21-1.05.16-.3.35-.57.53-.86,1.59.74,5.27-.36,3.75-2-.69-.77-.52-2.09-.52-3,0-1.79-3.39-1.35-4.59-.36,0-.19,0-.37,0-.56a1.18,1.18,0,0,0,0-.2c3.53-.42,7-1.06,10.31-1.79,6.61-1.48,13.88-3.94,19.64-8.11l.48.21c1.07.4,2.62-.62,3.14-1.48.26-.42.49-.85.71-1.27a3.26,3.26,0,0,0,3.26-2,24.32,24.32,0,0,0,.61-2.73l.41-.15a3.18,3.18,0,0,0,1.06-.71C221.38,83.31,224,81.63,223.42,80Zm-116-21.21c-.29-.25-.58-.5-.86-.76a1.31,1.31,0,0,0-.85-.29l-.84-.69a7.92,7.92,0,0,1,.09-3.81l.25.08a31.46,31.46,0,0,1,2.6,5.47ZM144.54,93.3c1.68.27,3.37.48,5.05.61a1.26,1.26,0,0,0,.59.86c.17.12.34.21.51.31A27,27,0,0,1,144.54,93.3Z"/><path class="cls-4" d="M326.44,44.41a4.11,4.11,0,0,0-3.17-1A29.15,29.15,0,0,1,317,45a22.94,22.94,0,0,1-4.32-1,31.7,31.7,0,0,0-3.25-1.44,2.13,2.13,0,0,0-.61-.12,115.88,115.88,0,0,1-11.21-6.65c-7.27-4.58-14.85-8.35-23.63-8.17-2,.05-1.73,1.41-.81,2.34a2.5,2.5,0,0,0-2,.42,2.13,2.13,0,0,0-1.77,1.05c-.83,1.38.93,3,2,3.47a6.13,6.13,0,0,0,3.53.52,7.16,7.16,0,0,0,.8-.19c.23-.06,1.09-.17.36-.14,1.13,0,2.17-.77,2-2a3,3,0,0,0,1.52.55,12.8,12.8,0,0,1,2.33.41q2.22.84,4.41,1.76l0,0c1.27.75,2.49,1.57,3.71,2.41a14.11,14.11,0,0,0-1.75.62c-.58.29-1.94.89-2,1.66-.08,2.29-.67,4.19,0,6.47a.45.45,0,0,0,.44.13,6.67,6.67,0,0,0,2.5-.49,7.88,7.88,0,0,0,.05,1.1c0,.67,1,0,3-.62v1.73c0,.23,4-.84,4-2.23V41.8a5.91,5.91,0,0,0,.73-.07,39.81,39.81,0,0,0,11.27,6.13,1.72,1.72,0,0,0-.73,1.77c.8,2.3-1.34,6.09,2.25,6.45a2.62,2.62,0,0,0,1.55-.43c.54,1,3-.07,3.49-.53,1.93-1.76,5.08-1.34,7.52-1.88,1.62-.36,3.09-2.69,2.21-3.42a17.79,17.79,0,0,0,2.79-1.62,1.31,1.31,0,0,0,.6-.79C330.06,46.68,328.22,44.86,326.44,44.41ZM294,41.8a2.09,2.09,0,0,0-.33-.69c-.44-.58-1.94.12-3.06.84,0-1,.19-2.07.26-3.16,1.2.84,2.4,1.69,3.59,2.51l.29.14Z"/><path class="cls-4" d="M133.75,100.48a2.46,2.46,0,0,0-.69-1.51s0-.09,0-.14-.2-.28-.52-.33a4.41,4.41,0,0,0-.74-.47,2.91,2.91,0,0,0-1.61-.35c-.35,0-.85.3-.85.72V99c0,.22-.83.49-1,.81V98.39a4.08,4.08,0,0,0-1.4-2.64c-.12-.11-1.6-1.55-1.6-.68v1.72c0-.11-.5-.17-.7-.14-1.51.23.41,3.92.77,4.66a6.46,6.46,0,0,0,1.73,2.33c.14.11,1.2,1,1.2.29V103a1.55,1.55,0,0,0,.68.16,5.92,5.92,0,0,0,2.49-.45,5.2,5.2,0,0,0,.91-.47.61.61,0,0,0,.3,0,.69.69,0,0,0,.62-.72v-.32s.22,0,.22,0C133.94,100.82,134,100.6,133.75,100.48Z"/><path class="cls-4" d="M153.17,103.45a2.69,2.69,0,0,0-2.33-2.56h-.93a1.91,1.91,0,0,0-2,2,2,2,0,0,0-1.3-.21,2.09,2.09,0,0,0-1.37,2.77c.39.93,0,2,.21,3a6.36,6.36,0,0,0,2.77,4.15c1.57,1.15,3.09-.13,3.18-1.76a2,2,0,0,0,1-1.86v-1s0,0,0-.06A14.68,14.68,0,0,0,153.17,103.45Z"/><path class="cls-4" d="M158.69,104.4a2.23,2.23,0,0,1,.26-.51c.79-.88-.95-1.79-1.54-2a3.11,3.11,0,0,0-3.2.57c-1.17,1.31-1.07,3.16-1.07,4.8,0,1.37,1.88,1.59,2.94,1.59H157c.59,0,2.34.1,2.34-.75v-2.72C159.35,105,159,104.66,158.69,104.4Z"/><path class="cls-4" d="M211,97.62c-.15-1.74-2.17-2.13-3.59-1.94a3.21,3.21,0,0,0-1.07.31c-.08-.19-.17-.37-.25-.55-.73-1.51-4.84-1.75-4.92.32a11,11,0,0,1-.39,2.35c-1.78-.3-4.23.6-3,2.12.91,1.1,1,3,1.61,4.25.7,1.54,4.83,1.73,4.91-.32a10.23,10.23,0,0,1,.27-1.83c1.14.74,3.89.93,4.26-.54l.18-.74c.81-.11,1.51-.47,1.66-1.11A7.06,7.06,0,0,0,211,97.62Z"/><path class="cls-4" d="M225.27,85.45c0-.76-1.68.11-1.94.25a9.3,9.3,0,0,0-1.63,1.06c-.19.16-.79.61-.79.92s0,.38,0,.57a8.41,8.41,0,0,0-1.51.92c-.07,0-1.84,1.52-1.09,1.57.24,0,.1,0,.32.17s.34.34.51.51a1.8,1.8,0,0,0,1.37.74,6,6,0,0,0,2.8-1.31l.15-.11a10.72,10.72,0,0,0,1-.67c.19-.16.87-.62.87-.93v-2C225.35,86.58,225.26,86,225.27,85.45Z"/><path class="cls-4" d="M235,92.81c-.09-1.89-.85-3.94-.93-5.83-.05-1.24-1.22-3.09-2.55-3.09h-.92c-.18,0-.33.22-.45.3-.4-.94-1.21-2-2.32-1.89s-1.22,1.67-.93,2.5c1,2.62,2.77,5,3.7,7.63.37,1,1.19,2.46,2.41,2.46H234C234.91,94.89,235,93.51,235,92.81Z"/><path class="cls-4" d="M110.45,85.69l-.09,0a2.39,2.39,0,0,0-.51-.13c-.37,0-.64.41-.81.78a2.14,2.14,0,0,0-.61.55c-.59.86-.19,2.1.1,3a5.4,5.4,0,0,0,1.67,2.31c.16.13,2,1.47,2,.52a12.93,12.93,0,0,1,.1-1.75l0-.11a9.34,9.34,0,0,0,.69-.84,1.65,1.65,0,0,0,.23-.46l.7-.31C114.68,88.91,111.8,85,110.45,85.69Z"/><path class="cls-4" d="M98.91,69.59a2.21,2.21,0,0,0-2.56,2v3.39a2.61,2.61,0,0,0,2.44,2.44,2.21,2.21,0,0,0,2.56-1.94V72A2.62,2.62,0,0,0,98.91,69.59Z"/><path class="cls-4" d="M93.2,57.67c1-.54,1.6-1.67.78-2.65a2.84,2.84,0,0,0-1.8-.84c-1-1.57-4.83-1.13-4.83,1.09v5.54c0,2.26,4.05,2.34,4.91.51a1.7,1.7,0,0,0,.75-2.6,1.68,1.68,0,0,1-.24-.61A1.07,1.07,0,0,1,93.2,57.67Z"/><path class="cls-2" d="M97.06,52.11c.84,0,2-1.29.69-1.29-.84,0-2,1.29-.69,1.29Z"/><path class="cls-2" d="M96.44,51.6c-5.38,11.11,4,22.82,11.46,30.31a68.64,68.64,0,0,0,33.53,18.71c16.26,3.83,33.73,2.34,49.95-.94C204,97.11,219,93.21,226.7,81.94c.46-.68-1.46-.45-1.78,0-8.32,12.22-25.57,15.53-39.22,17.89-16.2,2.79-33.28,3-49.11-1.83-10.72-3.29-19.93-9.83-27.77-17.72-7.13-7.17-15.53-18.5-10.45-29,.23-.48-1.65-.29-1.93.28Z"/><path class="cls-2" d="M166.68,104c-1.28,4.72-12.46,29.09-4.1,31.19,10,2.51,5-26.35,6.89-30.93.42-1.06-1.52-1.11-1.86-.26-1.48,3.65,1.4,30.24-3.9,29.83-6.22-.47,3.88-26.07,4.83-29.57.3-1.11-1.62-1.14-1.86-.26Z"/><path class="cls-2" d="M191.57,101.41c-.15,3.16-8.1,26.13,2.29,22.76,7.65-2.48,1.72-18.45,1.52-23.81,0-1-2-.78-2,.13.24,6.75,3.64,14.09,1.42,20.78-1.16,3.51-4.11.4-4.5-1.58-.43-2.21.19-4.75.62-6.91.77-3.8,2.39-7.61,2.58-11.5.05-1-1.92-.78-2,.13Z"/><path class="cls-2" d="M215.61,94.07c-.2,5.89-2.38,11.61-1.27,17.54.62,3.32,4.59,5.71,7.72,3.82,3.41-2.07,1.82-7.36,1-10.42-1.18-4.57-4.21-9.38-4.62-14.08-.05-.65-2-.23-1.93.51.23,2.7,1.8,5.56,2.7,8.08a43.7,43.7,0,0,1,2.91,11.56c.2,3-1.88,5.16-4.64,2.62-1.75-1.61-1.59-5.08-1.53-7.17.13-4.27,1.42-8.43,1.57-12.69,0-.81-1.91-.41-1.93.23Z"/><path class="cls-2" d="M139.85,100.52c-1.15,5.83-7.21,9.15-8.63,15-.6,2.46.51,8.39,4.18,7.3,2.83-.84,3.71-5.61,4.33-8a54.19,54.19,0,0,0,2.07-12.64c0-.91-1.93-.55-2,.2-.11,5.81-1.31,13-4,18.17-1.2,2.25-2.22-.55-2.6-1.92-.77-2.77.49-5.46,2-7.72,2.29-3.52,5.77-6.28,6.63-10.58.16-.85-1.8-.56-2,.2Z"/><path class="cls-2" d="M117.69,90.4c-3.18,6.48-6.24,14.41-2.78,21.37.3.59,1.56.08,1.86-.27,4.14-4.87,2-12.94,1.92-18.73,0-.51-1.94-.16-1.93.52.1,5.63,2.23,13.53-1.77,18.23l1.86-.27c-3.43-6.89-.38-14.71,2.76-21.13.24-.48-1.64-.29-1.92.28Z"/><path class="cls-2" d="M101.06,79.32c-1.28,2.61-10.38,23.34-.94,20.81,3.13-.84,3.3-5.64,3.55-8.18a116.43,116.43,0,0,0,.24-12.11c0-.48-1.93-.15-1.93.52,0,5.6,1.22,13.52-1.81,18.52-.84,1.37-2.4-1.65-2.51-2.32-.38-2.12.45-4.6,1-6.62A66,66,0,0,1,103,79c.23-.45-1.64-.27-1.92.29Z"/><path class="cls-2" d="M92.79,56.91C91.48,60.33,84.71,80,90.11,81.65c3.12,1,5-2.48,5.53-5,1.29-5.75-2.44-14.53,1.64-19.4.79-.93-1.06-1.18-1.6-.53-2.27,2.69-2.05,6.46-1.94,9.78.07,2.16.21,4.31.24,6.47,0,.55-1.17,9.22-3,7.11-1.94-2.27-.06-8.67.43-11.2a69.73,69.73,0,0,1,3.19-11.8c.39-1-1.55-1-1.84-.19Z"/><path class="cls-2" d="M229.46,82.21c1.66,4.6.09,10.83,4.68,13.94a1.6,1.6,0,0,0,1.87-.49c1.09-2.6.93-5.66.93-8.43,0-.45-1.93-.13-1.93.52,0,2.72.15,5.65-.92,8.2l1.86-.5c-4.49-3-2.93-9.25-4.55-13.76-.21-.57-2.12,0-1.94.52Z"/><path class="cls-2" d="M103.9,48.14c3.4,4.19,1.33,10,3.62,14.67a.62.62,0,0,0,.59.28c2.35,0,3.66,7.94,5.13,10.17s5.21,1.39,7.39.85l-1.1-.22c1,5.84,4.1,5,8.63,7.08,2.69,1.25,1.38,4.63,3.27,5.86,2.26,1.47,6.45,0,8.12,1.54,3.13,2.83,5.07,5.43,9.23,3.3,5.67-2.89,5.7,2,9.93,2.81,1.63.33,3.47-.83,4.77-1.63,3.26-2,5.87,1.13,9.08,1.63,1.65.26,3.64-1.28,4.85-2.15,4.36-3.16,6.63-.7,11.07-.6,1.65,0,3.34-1.69,4.39-2.7,3.65-3.52,8.16,2.24,12.2-1.8,1.35-1.35,2.16-2.94,3.79-4.07s3.1-1.18,4.69-1.85c2.47-1,3.2-2.9,4.85-4.89.54-.66-1.41-.51-1.8,0-2,2.47-3.23,3.69-6.45,4.85a10.23,10.23,0,0,0-4.37,3c-1.38,1.63-3,4.47-6,3.18A14.32,14.32,0,0,0,195.92,86a3.81,3.81,0,0,0-2.62,1,34.42,34.42,0,0,0-2.92,2.61c-2,2-4.85.13-6.93-.56-1.57-.51-2.29-.14-3.79.38-3.5,1.22-5,5.19-9.43,2.66-1.33-.76-3-1.75-4.59-1.4-2.44.54-5,3.55-7.74,1.48-1.33-1-2.76-3.35-4.69-3.39-1.55,0-3,.94-4.33,1.65-3.4,1.85-5.7-1.16-8.08-3.33-1.29-1.17-6.58-.6-7.52-1s-1.39-3.92-2-4.95c-.77-1.23-2.91-1.7-4.21-2-3.47-.89-4.92-2.06-5.57-5.75-.08-.41-.85-.28-1.1-.22-7.54,1.87-7.22-6-9.07-10.86-.08-.23-.37-.29-.59-.29-3.1,0-2.66-5.1-2.75-7.45-.12-2.72-.53-5-2.27-7.16-.42-.52-2.27.16-1.79.75Z"/><path class="cls-2" d="M112.14,47.1A32.64,32.64,0,0,0,114,55.42c.17.52,1.94,0,1.93-.52a20.7,20.7,0,0,0-.92-7.39c-.2-.55-1.89,0-1.93.51-.61,7.93,3,13.16,8.37,18.57.31.31,2-.11,1.87-.61A94.59,94.59,0,0,0,115,49.35c-.3-.5-1.89,0-1.93.52-1.54,20.69,20.57,28.52,37.28,31.35a107.43,107.43,0,0,0,26.32,1.23c10.88-.86,23.19-2,31.55-9.78.47-.45-1.4-.26-1.77.08-8.56,8-22.45,8.72-33.65,9.07a109.61,109.61,0,0,1-25.23-2.22C132,76.45,113.61,68,115,49.35l-1.93.52a94.59,94.59,0,0,1,8.31,16.63l1.87-.6c-5.33-5.4-8.85-10.57-8.25-18.39l-1.93.51a20.75,20.75,0,0,1,.92,7.4l1.93-.52a32.53,32.53,0,0,1-1.84-8.32c0-.44-2-.08-1.94.52Z"/><path class="cls-2" d="M113.25,47.24c1.57.52,8.37,1.65,7.68,4.31a40.81,40.81,0,0,0-1.4,8.48c0,.2.48.17.56.17,2.47,0,7.09-1.32,6.62,2.72a23.28,23.28,0,0,1-2.55,7.17c-.19.42,1,.22,1,.19,3.41-.85,6.83-1.71,10.18-2.77-.35,0-1-.06-1-.08V73a.2.2,0,0,0,0,.08c1.68.81,3.56.47,5.33.07,3.19-.74,5.23,3.52,5.68,6.31.09.51,1.52-.06,1.72-.2,3.2-2.12,7.74-4.73,10.36-.51a2.67,2.67,0,0,0,2.57.85c3.56-.63,5.85-3,7.6-6.1l-1.87.5c2.79,3.26,3.4,6.58,8.24,5.22,1.31-.36,2.72-.32,3.87-1.07,1.7-1.11,1.6-1.51,3-.38,1.14,1,2.79,2.11,3.36,3.54.22.56,1.72-.06,1.92-.42,2.8-4.82,5.59-8.44,11.07-4.12a1.69,1.69,0,0,0,1.86-.49c1.18-2.71,2.33-4.37,5.27-3.25a7.37,7.37,0,0,0,3.75.34c3.91-.65,4.51-4.93,7.4-7,.82-.59-1.12-.39-1.49-.12-1.87,1.37-2.94,3.47-4.29,5.31-1.76,2.38-4.94,0-7-.27-3.09-.39-4.62,3.12-5.59,5.34l1.87-.5c-6.84-5.38-11-1.38-14.8,5.12l1.92-.42c-.91-2.31-4-5.42-6.67-4.43A37.64,37.64,0,0,1,175.74,78c-5.17,1.27-5.4-1.51-8.14-4.72-.35-.4-1.66.13-1.87.5-1.65,2.91-5,5.51-7.57,2.48-.56-.66-3.36-.72-4.2-.8-3.09-.3-6,2.07-8.34,3.65l1.71-.2c-.43-2.7-1.8-6-4.82-6.44a9.19,9.19,0,0,0-3.43,0c-4.12.82-2.83-3-2.83-5.6,0-.32-.94-.12-1.06-.09-3.35,1.07-6.76,1.92-10.16,2.77l1,.19a26.24,26.24,0,0,0,2.79-10.49c0-.2-.48-.4-.56-.4h-5.83c-2.06,0,.61-8.78.83-9.67,0-.13,0-.08-.17-.12-2.77-.92-5.54-1.79-8.31-2.71-.47-.16-2.21.64-1.57.85Z"/><path class="cls-2" d="M128.66,47.91c2-1.92,4.48-1.86,6.64-.16,2,1.55,2.27,3.64,1.79,6a5.33,5.33,0,0,1-1.36,2.63c-1.12,1.14-3,.09-4-.74a2.57,2.57,0,0,1,2-4.56c.28.05,2.05-.32,1.5-.87-.31-.31-.68-.62-1-.93s-1.92,0-1.92.63v2.77c0,.1.16.16.25.2l1.88.92c.32.16,2.07-.14,1.75-.71-.93-1.69-2.21-2.17-3.88-3a1.48,1.48,0,0,0-1.73.59c-.68,1.66-.22,2.7,1,3.93.45.47,2.28-.25,1.8-.74-1.09-1.1-1.48-1.93-.86-3.45l-1.74.58c1.45.69,2.68,1.1,3.5,2.58l1.74-.72L134.28,52a17.46,17.46,0,0,0,.12-2.62l-1.87.63.93.93L135,50c-2.87-.44-6.58,1-6,4.53s5.73,4.22,8,2.31a6.63,6.63,0,0,0,2.21-4.3A5.68,5.68,0,0,0,137.1,47c-2.89-2.62-7.31-1.88-10,.62-.81.76,1.1.68,1.54.28Z"/><path class="cls-2" d="M141.87,55.81c-3.1,3.26-4.6,10.91,1.48,11.57a8.44,8.44,0,0,0,8.37-4.33c1.3-2.3,1.72-6.11-.3-8.14-3.23-3.26-10.92,2.38-7.48,6.5.94,1.13,2.71,2.24,4.23,1.79,2.59-.76,0-3.77-.92-4.77a1.21,1.21,0,0,0-1.8.32,3.44,3.44,0,0,0,1,4.22c.6.6,2.43-.17,1.78-.84-1-1-1.49-1.64-.89-3.18l-1.81.32a11.44,11.44,0,0,1,1.68,2.29,2.23,2.23,0,0,1,.18.57c.07.3.78-.13.39-.23a4.38,4.38,0,0,1-2.56-2.1c-.87-1.47.3-2.76,1.48-3.54,2.2-1.47,3.68-.57,4.11,1.88a7.78,7.78,0,0,1-1.74,6c-1.47,1.81-5.27,2.89-7.11,1-2.13-2.2-.18-6.92,1.57-8.76.83-.88-1-1.15-1.61-.54Z"/><path class="cls-2" d="M157.51,64.32c-.09-1.45,0-4,1.84-3.94A7.65,7.65,0,0,1,164,63c.88.95,2.23,2.83,1.34,4.17a3.59,3.59,0,0,1-2.47,1.18,22.07,22.07,0,0,1-6-.07l.59.82c1-2.53,4-3.06,6.38-3.1.41,0,1.5-.61,1-1.14-.31-.31-.45-.61-.76-.92s-1.69-.34-1.69.5v1.84c0,1,2,.74,2-.14V64.32a18.17,18.17,0,0,0-2,.5c.31.31.52.62.83.93.32-.38.6-.76.92-1.15-3.16.05-7.17,1-8.42,4.3-.17.44.14.77.58.82,3.17.37,8.32,1,10.69-1.84,1.55-1.86.15-4.34-1.23-5.82a8.92,8.92,0,0,0-6.3-3.11c-3,0-4,3-3.82,5.52.06,1,2,.72,2-.15Z"/><path class="cls-2" d="M171.35,59.81a9.91,9.91,0,0,0-1.92,6.75c.25,1.73,2,3.08,3.48,3.82a6.61,6.61,0,0,0,6.92-1.19c1.48-1.27,2.73-3.52,2-5.5-1-2.58-4.87-2-6.91-1.52l1.06.23,0,0-1.79.39c.53.47.66,2.14.83,2.83s1.74,0,1.93-.41c.3-.62.61-1.23.92-1.85.23-.46-1.59-.18-1.84.19a1.53,1.53,0,0,0,0,2.16c.36.42,2.19-.26,1.81-.7a1.09,1.09,0,0,1,0-1.53l-1.85.18L175,65.47l1.92-.41c-.2-.8-.32-2.45-.95-3-.37-.33-1.54,0-1.79.38a.39.39,0,0,0-.1.27c0,.47.8.28,1,.22,1.76-.38,4.23-.48,4.89,1.61.45,1.46-.4,3.1-1.35,4.16a3.42,3.42,0,0,1-4.75.52c-3.67-2.27-2.79-6.3-.77-9.47.41-.65-1.49-.37-1.77.07Z"/><path class="cls-2" d="M186.65,62.21c2.34,0,5.17-.73,7.14.89,2.45,2,1.15,5.41-1.25,6.66a6.41,6.41,0,0,1-4,.54c-.75-.12-2.31-.71-2.13-1.7.31-1.77,4.33-2.06,5.58-1.8l1.17-1.11c-.71-.13-1.1-.8-1.85-.93-.53-.09-1.57.11-1.55.82s0,1.8,1,1.85c.66,0,1.28-.55,1.67-.61,1-.14,1.58-1.35.25-1.15a3.3,3.3,0,0,0-1.19.37l-.43.25c.87-.54.65-.12.61-1.23l-1.55.81c.71.13,1.11.8,1.85.93s2.31-.88,1.17-1.11c-2.56-.54-6.57.15-8.27,2.36-2.32,3,4.11,3.64,5.75,3.42,3.25-.45,6.77-2.84,6.36-6.47-.55-4.8-6.25-4-9.6-4-.77,0-2,1.19-.73,1.17Z"/><path class="cls-2" d="M206.08,56.35c3.13-1.91-3.82-2.63-4.83-2.65a1.64,1.64,0,0,0-1.28.52c-1.4,2.36-2.36,5.14-1.28,7.81a7.14,7.14,0,0,0,4.82,3.9,7.37,7.37,0,0,0,5.92-.81c1.93-1.28,2.17-3.51,1.64-5.6-.09-.39-.83-.28-1.09-.21a14.1,14.1,0,0,0-3,.89,3.85,3.85,0,0,0-1.52,2.38c-.11.32.39.31.58.31h1.85c.45,0,1.47,0,1.47-.6V60.44c0-.57-2-.21-2,.52v1.85c0-.27.84-.92,1.29-.92h-1.85c.2,0,.39.33.59.46.09-.27.37-1.49.71-1.59.7-.22,1.43-.32,2.14-.54L209.14,60c.4,1.59.46,3.41-.91,4.56-1.15,1-3,.55-4.27.06-4.57-1.8-4.36-6.78-2.19-10.41l-1.28.52a18.13,18.13,0,0,1,2.45.22c.22,0,2.27.64,1.95.83-1.11.68.59.9,1.19.54Z"/><path class="cls-2" d="M142.63,40.64c3.53,12.13,18.13,13.4,28.75,12.72,10.35-.66,24-3.08,32.1-10.08.83-.72-1.09-.64-1.53-.26-7.44,6.38-19.59,8.37-29,9.25-10.38,1-24.94-.28-28.4-12.15-.18-.63-2.11-.1-1.93.52Z"/><path class="cls-2" d="M144.55,41.68c2.39,3.93,6.53,6,10.29,8.41.4.26,1.92-.07,1.73-.74-1.35-4.76-3.95-9.08-8.51-11.3-.34-.16-2.08.1-1.74.74,2.73,5,7,9.78,12.21,12.22.36.17,2-.06,1.73-.73A22.64,22.64,0,0,0,149,39c-.34-.15-2.08.09-1.73.74,3.14,5.92,7.67,11.55,14.05,14.08.49.19,1.82,0,1.74-.74-.61-5.38-7-8.24-11.29-10.38-.42-.21-2.25.28-1.66.86a76.58,76.58,0,0,0,13.06,10.26c.4.24,1.93-.07,1.73-.74-1.52-5.11-6.55-7.75-10.23-11.21-.39-.37-2.13-.06-1.86.64A22.42,22.42,0,0,0,167,55.7c.4.13,1.72-.18,1.56-.8-1.6-6.14-8.68-8.15-12.08-13.06-.38-.55-2.2,0-1.79.77,3.35,5.86,9.67,9,15.83,11.18.38.13,2.26-.18,1.66-.86-4.19-4.87-9.75-8.11-14.78-12-.54-.42-2.35.3-1.79.76,5.16,4.22,9.94,8.92,15.84,12.11.47.25,2.08-.13,1.66-.86-2.23-3.91-5.69-6.42-9.23-9.06-1.9-1.42-3.61-4.06-6.08-4.06-.31,0-2,.64-1.14,1,6.56,3,11.92,8,18.48,11.09.55.26,2.37-.49,1.53-1-5.82-3.23-9.87-8.77-15.7-12-.43-.23-2.21.24-1.66.87,4.94,5.62,11.25,9.34,17.68,13,.36.21,2-.09,1.73-.73-2.55-5.45-7.69-9.8-13.13-12.23-.4-.18-2.27.27-1.66.86a87.64,87.64,0,0,0,17.68,13c.43.25,2.17-.2,1.66-.86-3.5-4.59-7.44-9-13.24-10.32-.34-.08-2.07.34-1.49.92,4.13,4.11,8.33,8,14.39,8.5.28,0,1.81-.44,1.26-1a28.4,28.4,0,0,0-11.39-6.62c-.39.36-.78.72-1.18,1.07,5.54,1.32,9.24,6.07,14.78,7.39.34.08,2.07-.34,1.49-.92-3.7-3.68-7.34-7.16-12.14-9.33-.46-.21-2.11.11-1.66.86,2.53,4.25,6.77,6.53,11.21,8.41.41.17,2.23-.18,1.66-.86a22.34,22.34,0,0,0-12.31-7.55c-.63-.15-2.29.77-1.18,1.08,5,1.37,8.85,5.09,13.86,6.47.33.09,2.11-.46,1.48-.93-3.14-2.32-5.59-5.24-9.37-6.56-.55-.19-2.39.59-1.53,1a58.66,58.66,0,0,1,11.88,7.29c.4.3,2.13.12,1.86-.64-1.35-3.87-4.28-6.27-7.59-8.53-.44-.3-2.21.33-1.66.86,2.69,2.56,5.62,4.83,8.32,7.39.44.42,1.94.09,1.86-.64-.37-3.38-2-5.49-4.69-7.52l-1.66.87c3.12,1.12,6.11,2.56,9.23,3.69.38.14,2.32-.32,1.67-.86-8.89-7.25-26-9.92-36.39-4.65-.45.22-.9.72-.2.95,9.16,3.05,19.41,1.05,28.85,1,.73,0,2.07-1.1.74-1.13-10.86-.24-26-7.07-35.32,1.32-.34.3-.18.59.19.71,9.56,3.24,22,2.24,31.46-1,.68-.23.77-.9,0-1-10.56-1-21-3.51-31.65-2.76-.37,0-1.62.61-.9,1a21.25,21.25,0,0,0,10.56,2.86c.5,0,2.07-.85,1-1.1-4.7-1-9.24-2.57-14.07-2.8-.53,0-2.06.92-1,1.11,12.85,2.12,27.74,5.19,40.44,1,.57-.19,1.34-1,.24-1h-2.77c-.25,0-.5.67-.74,1,4.1-.09,7.94-.58,11.61,1.72.55.35,2.33-.47,1.53-1-3.92-2.46-8-2-12.4-1.93-.73,0-2.06,1.13-.74,1.13h2.77a5.89,5.89,0,0,0,.23-1.08c-12.18,4-26.67,1.07-39-1l-1,1.1c4.7.22,9.09,1.74,13.64,2.75l1-1.11a19.74,19.74,0,0,1-9.76-2.68l-.9,1c9.27-.66,18.39,1.22,27.53,2.39a17,17,0,0,0,1.86,0,42.25,42.25,0,0,1-5.9,1.2,66.36,66.36,0,0,1-12.52.61,44.65,44.65,0,0,1-5-.49c-.91-.13-4.52-.23-2.62-1.58,3.58-2.57,8.93-2.06,13.08-1.7,6.18.53,12.24,2.23,18.45,2.37.25-.37.5-.75.74-1.13-4.89.05-9.77.44-14.66.58a73.2,73.2,0,0,1-7.55-.19,28.84,28.84,0,0,1-5.06-.9c-1.07-.28,1.54-.6,2.12-.77,9.26-2.64,22.86-.19,30.35,5.93l1.67-.86c-3.13-1.13-6.12-2.57-9.24-3.7-.38-.14-2.32.36-1.66.86,2.51,1.92,4.2,4.06,4.55,7.27l1.86-.65c-2.69-2.55-5.63-4.83-8.32-7.39l-1.66.87c3.13,2.14,5.9,4.39,7.19,8.09l1.86-.64a60.4,60.4,0,0,0-12.14-7.49l-1.53,1c3.65,1.27,6.08,4.13,9.11,6.37l1.48-.92c-5-1.37-8.85-5.09-13.85-6.47l-1.18,1.08a21.12,21.12,0,0,1,11.7,7.23c.56-.28,1.11-.57,1.66-.86-4.33-1.83-8.47-4.06-10.95-8.22l-1.66.87c4.7,2.12,8.27,5.54,11.88,9.14l1.48-.92c-5.53-1.32-9.23-6.07-14.78-7.39-.62-.15-2.3.74-1.18,1.07a27,27,0,0,1,10.78,6.31l1.27-.94c-5.65-.42-9.55-4.37-13.33-8.14l-1.49.93c5.55,1.31,9.31,5.65,12.63,10l1.66-.86A86,86,0,0,1,165.74,40l-1.66.86c5.22,2.34,10.27,6.53,12.73,11.79l1.73-.73c-6.33-3.62-12.55-7.31-17.42-12.84l-1.66.86c5.82,3.24,9.87,8.77,15.7,12l1.53-1c-6.55-3-11.92-8-18.47-11.08l-1.14,1c1.89,0,5.82,4.28,7.43,5.49a24,24,0,0,1,6.83,7.26l1.66-.86c-5.81-3.13-10.51-7.77-15.58-11.91l-1.79.76c5,3.91,10.59,7.15,14.78,12,.56-.28,1.11-.57,1.66-.86-6.08-2.13-12.26-5.2-15.57-11l-1.79.77c3.33,4.8,10.38,6.81,11.94,12.81l1.55-.8A21.46,21.46,0,0,1,154.72,42l-1.86.64c3.58,3.36,8.61,6,10.09,11l1.73-.74a75,75,0,0,1-12.8-10.07l-1.66.87c4.14,2.08,10.3,4.74,10.88,9.94l1.74-.74c-6.18-2.44-10.62-7.91-13.66-13.64l-1.73.74A21.7,21.7,0,0,1,158.33,50.8l1.73-.74c-5-2.33-9.19-7-11.8-11.79l-1.74.74c4.4,2.14,6.82,6.29,8.12,10.86l1.73-.73c-3.68-2.36-7.69-4.38-10-8.22-.35-.57-2.22.06-1.79.76Z"/><path class="cls-2" d="M270.75,30.93c20.06,1.59,36.91,32.58,58.25,18.22,1.08-.73-.49-1.46-1.29-.92-19.5,13.12-37.37-17.24-56.3-18.74-1-.07-2,1.34-.66,1.44Z"/><path class="cls-2" d="M331.16,48.72c-1.39,2.24,1.15,7.51,1.95,9.64,1.12,3,3.45,7.76,7.33,7.16s3.38-5,2.14-7.69c-2.05-4.41-8.34-6.13-8.64-11.25,0-.48-2-.11-1.94.52.2,3.31,2.45,4.8,4.87,6.69,2.76,2.15,5.44,6,4.55,9.61-.78,3.26-4.39-1.52-4.94-2.4a21.12,21.12,0,0,1-1.68-3.8,46.48,46.48,0,0,1-1.42-4.62c-.22-.88-1-3-.45-3.92.42-.66-1.49-.39-1.77.06Z"/><path class="cls-2" d="M327.52,50.78c-.23-.05-.23,0,0,.18a1.39,1.39,0,0,1,0-.5c0-1-2-.67-2,.16a10.46,10.46,0,0,0,.93,4.8c.38.77,2.16.38,1.93-.52-.33-1.3-.63-3.58-2-4.22a1.7,1.7,0,0,0-1.72.46,4.81,4.81,0,0,0-1,2.25c-.24.9,1.74.65,1.95-.16a7.17,7.17,0,0,1,.48-1.37c.26-.36-.05-.33-.91.07a1.87,1.87,0,0,1,.27.4,12.25,12.25,0,0,1,1,3.09l1.93-.52a9.57,9.57,0,0,1-.91-4.44l-2,.16c0,1.3.56,1.52,1.8,1.52s1.5-1.35.19-1.36Z"/><path class="cls-2" d="M315.39,53.48c-1,2.07-.94,4.32-.94,6.55,0,.42,1.68-.16,1.84-.33a4.75,4.75,0,0,0,1-5.73c-.22-.46-2.08.21-1.93.52a4.46,4.46,0,0,1-.83,5.36l1.83-.33c0-2.18,0-4.37.91-6.38.14-.28-1.67-.14-1.9.34Z"/><path class="cls-2" d="M310.35,54V51.2c0-.22-.88-.31-1-.31h-1.85c-.45,0-1.14.26-1.14.83v3.7a.54.54,0,0,0,.37.47h.93c.44,0,1.7-.42,1.7-1V52.13c0-.56-2-.21-2,.51v2.78c0-.26.61-.53,1.06-.53h-.92c.19,0,.86-.08.86,0V51.2c-1,.26-1.18.69-1.63.69h1.85c-.19,0-.22-.08-.22-.17v2.77c0,.56,2,.2,2-.52Z"/><path class="cls-2" d="M298.76,47c-1.18,4.1-4.14,7.65-4.72,11.94-.41,3,1.54,5.38,4.66,4.26,2.73-1,3.49-4,3.87-6.63.47-3.13.86-6.9,0-10-.13-.43-2,.11-1.93.52,1.23,4.23.77,10.95-1.51,14.71-.91,1.5-2.32.64-3-.67-.79-1.56.06-3.74.58-5.24,1.09-3.16,3.05-6,4-9.23.11-.38-1.77-.14-1.91.34Z"/><path class="cls-2" d="M296,43.1a17,17,0,0,1-1.72,2.09,2.62,2.62,0,0,0-.19,2.6c.07.24.38.1.6.1h.93c.36,0,1.33.06,1.33-.47a4.23,4.23,0,0,1,.74-3.06c.35-.4.09-.47-.42-.47h-3.7c-.36,0-1.26-.24-1.26.29V47c0,.88,2,.49,2-.21V44c-1,.23-1,.92-1.46.92h3.69c-.14,0-.28-.64-.42-.91a5.2,5.2,0,0,0-1.11,3.81c.44-.24.89.1,1.33-.9h-.92c.2,0,.4.36.6.48a2.19,2.19,0,0,1,.26-2.37,9.3,9.3,0,0,0,1.53-1.84c.47-.87-1.48-.68-1.81-.06Z"/><path class="cls-2" d="M288.75,38.26a9.72,9.72,0,0,0-2,6c0,.51.48.68.89.68h1.84c.37,0,1.07-.38,1.07-.83a7.89,7.89,0,0,1,.87-3.55c.28-.58-.4-.81-.83-.81s-.71-.31-1.06-.66a1.21,1.21,0,0,0-1.69.14,2.4,2.4,0,0,0-.55,1c-.12.61.05,1.28-.37,1.8-.76,1,1.08,1.22,1.61.55a2.38,2.38,0,0,0,.56-1c.12-.61-.05-1.28.36-1.8l-1.69.14a3.22,3.22,0,0,0,2.65,1.2l-.83-.8a7.65,7.65,0,0,0-1,3.63c.35-.25.71,0,1.06-1H287.8c.29,1,.59.65.88.86a8,8,0,0,1,1.68-5.07c.82-.9-1-1-1.61-.42Z"/><path class="cls-2" d="M284.17,34.71c-3.31,3.28-7.16,6.53-9.33,10.74-1,1.89-2.16,7,1.44,6.94,2.81,0,4.63-3.39,5.74-5.5,1.83-3.48,3.5-8.44,2-12.32-.24-.62-2.14,0-1.93.52,1.08,2.84.29,6-.64,8.81-.84,2.52-2.25,6-4.63,7.47-.82.51-1.14-3.23-1.12-3.4.2-1.84,1.44-3.54,2.49-5a66.72,66.72,0,0,1,7.48-8c.78-.78-1.12-.66-1.53-.25Z"/><path class="cls-2" d="M273.81,32.32a12.6,12.6,0,0,0,.92,5.54c.27.58,1.63.22,1.86-.24,1-1.92,1.88-3.46,1.92-5.68,0-.32-.3-.42-.59-.41a4.47,4.47,0,0,0-3.42,1.26,5,5,0,0,0-.69,3.23c0,.57,1.93.21,1.93-.52,0-1.16-.09-2.86,1.42-2.91l-.58-.4c0,2.11-.85,3.58-1.78,5.4l1.86-.24a12.81,12.81,0,0,1-.92-5.55c0-.57-1.93-.21-1.93.52Z"/><path class="cls-2" d="M274.37,31.57a23.11,23.11,0,0,0-5.93,4l1.76.13a5.51,5.51,0,0,1,0-.81l-.56.59h0l-1.3-.09a1.91,1.91,0,0,0,1.42,1c.85.12,2-1.08.71-1.26,0,0-.24-.44-.35-.59-.26-.37-1-.25-1.29-.09-.66.32-.61.75-.61,1.4,0,.88,1.38.5,1.76.13a19.84,19.84,0,0,1,5.16-3.43c1.19-.6.11-1.44-.81-1Z"/><path class="cls-2" d="M292.28,28.63c5.1,6.78,16.63,7.22,23.7,3.58,1.14-.59-.65-.54-1.12-.29-6.14,3.16-16.27,2-20.65-3.81-.36-.49-2.1.29-1.93.52Z"/><path class="cls-2" d="M295.25,29.74c4.9,2.44,9.84,4.43,15.41,3.74.18,0,1.54-.48,1-.86-4.29-3.32-8.87-4.77-14.16-5.68-.27,0-2.06.36-1.5.87,3.61,3.31,8.66,4.64,13.45,4.77.46,0,2.06-.72,1-1-3.77-1-7.33-2.66-11.09-3.69-.42-.12-2.17.59-1.37.95,3.28,1.48,6.74,1.76,10.16,2.77.32.09,2.26-.26,1.67-.82A17,17,0,0,0,298.25,26c-.2,0-1.84.48-1.28.89a23.09,23.09,0,0,0,12.52,4.76c.33,0,1.69-.32,1.29-.88-2.14-2.91-5.26-3.89-8.62-4.75-.56-.14-2.27.7-1.2,1,3.49,1,6.68,2.72,10.16,3.69.32.09,2.06-.5,1.5-.86a106.73,106.73,0,0,0-10.28-5.63l-1.55.9a54.55,54.55,0,0,0,10.33,3.75c.44.11,2.17-.65,1.38-.95a46.25,46.25,0,0,0-16.1-2.84c-.18,0-1.86.51-1.28.88a45.51,45.51,0,0,1,6.47,4.62c.47.44,2.28-.28,1.8-.73a45.28,45.28,0,0,0-6.47-4.62l-1.28.88A43.91,43.91,0,0,1,311,28.82l1.37-.95a52.09,52.09,0,0,1-10-3.65c-.53-.25-2.32.52-1.55.9a104.43,104.43,0,0,1,10,5.46l1.5-.86c-3.48-1-6.67-2.72-10.16-3.7L301,27c3.17.81,6,1.76,8,4.49l1.28-.89c-4.23-.16-8.11-2-11.49-4.47l-1.29.88a15.47,15.47,0,0,1,10.57,4.48l1.68-.82c-3.41-1-6.9-1.29-10.17-2.77l-1.37.95c3.77,1,7.32,2.66,11.09,3.69.33-.34.65-.68,1-1-4.43-.12-9.09-1.42-12.42-4.48l-1.5.87c5.08.87,9.43,2.23,13.56,5.41l1-.86c-5.1.63-9.7-1.43-14.15-3.65-.53-.26-2.31.52-1.54.9Z"/><path class="cls-2" d="M151.17,103.17c-2.53,1.45-3.84,4.89-3.92,7.67,0,.42,1.56-.16,1.7-.23,2.21-1.21,3.13-3.34,3.91-5.62.07-.19-.2-.1-.32-.1h-1.85c-.33,0-1.34-.09-1.34.41v.92c0,.45,1.55-.2,1.71-.33a3.41,3.41,0,0,1,2.13-.46c.4,0,2.17-.78,1.23-.78a8,8,0,0,0-5,1.39c.61-.11,1-.22,2-.33v-.93c-1,.22-1.39.11-1.92,1.11h1.85c-.11-1-.22-.38-.32-.45-.7,2-1.48,4.15-3.48,5.24.56-.08,1.13-.22,1.7-.3.07-2.43,1.22-5.85,3.47-7.14.81-.46-1.14-.26-1.48-.07Z"/><path class="cls-2" d="M157.78,104.76c-2.63,1.44-2.72,3.8-1.23,6.2.28.45,1.41.05,1.67-.22,2-2.15,3-4.91,3.89-7.67.24-.71-1.36-.26-1.56-.16-2.07,1.1-2.45,2.93-3.14,5-.22.65,1.72.39,1.93-.25.54-1.64.77-3.35,2.4-4.22l-1.56-.15c-.83,2.5-1.65,5.15-3.5,7.11l1.67-.22c-1.09-1.75-1.44-3.76.62-4.89,1.15-.62-.57-.9-1.19-.56Z"/><path class="cls-2" d="M180.15,101.8c-3,1.13-4.22,4-4.27,7,0,.8,1.19.47,1.59.25,2.4-1.36,3.08-4.37,3.12-6.92,0-.47-.49-.52-.85-.5-4.07.15-4.61,4.09-3.85,7.33.17.76,2.11.26,1.93-.52-.4-1.71-.94-5.51,1.69-5.61l-.86-.5c0,2.09-.4,4.88-2.42,6l1.59.25c0-2.4.66-5,3.13-5.9.29-.11.78-.52.49-.87s-.93-.2-1.29-.07Z"/><path class="cls-2" d="M184.21,102.44a13,13,0,0,0-.93,5.63c0,.43,1.67-.16,1.84-.33a11.11,11.11,0,0,0,2.86-7.58c0-.42-1.68.16-1.84.34a8.39,8.39,0,0,0-1.94,5.72c0,.3,1.92,0,1.93-.51a7.89,7.89,0,0,1,1.76-5.36l-1.84.33a10.64,10.64,0,0,1-2.68,7.21l1.84-.34a12.66,12.66,0,0,1,.91-5.45c.13-.3-1.68-.15-1.91.34Z"/><path class="cls-2" d="M204.52,96.83a31.17,31.17,0,0,0-.93,9.23c0,1,1.74.47,1.95-.19a31.53,31.53,0,0,0,.92-9.24c0-.47-.48-.53-.86-.52-4.46.21-4.87,4.26-2.85,7.48.39.63,2.26,0,1.78-.8-1-1.65-2.22-5.31.85-5.45l-.86-.51a31.11,31.11,0,0,1-.93,9.23l1.95-.19a31.2,31.2,0,0,1,.92-9.24c.24-.79-1.72-.54-1.94.2Z"/><path class="cls-2" d="M208.22,97c0,1.39,0,2.73,1,3.8.34.36,1.84.06,1.86-.5.06-1.28.87-2.41.92-3.7,0-.82-1.58-.16-1.85.14a4,4,0,0,0-1,3c0,.54,1.93.19,1.93-.52a3.37,3.37,0,0,1,.85-2.51l-1.85.13c-.06,1.28-.87,2.41-.93,3.69l1.87-.5c-.94-1-.86-2.3-.86-3.58,0-.54-1.93-.19-1.93.52Z"/><path class="cls-2" d="M222.07,89.44a30.91,30.91,0,0,0,0,3.85,1.63,1.63,0,0,0,2.8.72c1.77-2.84,1.15-5.88-2.07-7.09-.39-.14-1.45.12-1.45.67v4.62c0,.88,2,.5,2-.21V87.38a6.14,6.14,0,0,0-1.68.67c2.65,1,2.82,3.67,1.45,5.86l1.24-.55c-.58,0-.33-3.61-.33-4.13,0-.88-2-.49-2,.21Z"/><path class="cls-2" d="M125.08,97.91c.07,2,1.21,3.78,2.09,5.54.28.57,2.18.28,2.18-.37V97.53c0-.33-.54-.44-.84-.44a3.09,3.09,0,0,0-3,1.39c-1,1.39-.07,2.77.58,4,.35.67,2.19,0,1.9-.52-.8-1.56-1.61-2.86-.2-4.35a3.68,3.68,0,0,1-1.17.23h.93c-.2,0-.17,0-.17-.12v5.54a7.37,7.37,0,0,1,1.72-.38c-.88-1.75-1.89-3.54-2-5.54,0-.63-2.06-.24-2,.52Z"/><path class="cls-2" d="M131.35,99.6v4.62c0,.34.47.67.8.67h.92c.4,0,1.3-.25,1.33-.8a5,5,0,0,1,.45-1.48,6.78,6.78,0,0,0,.48-2.27c0-.46-.5-.55-.86-.52-1.53.15-1.83,1.24-2.75,2.24s1.08,1,1.58.43a8.77,8.77,0,0,0,.71-.9l.27-.43c.2-.22.19-.26,0-.13l-.85-.51a6.3,6.3,0,0,1-.45,2.14,6.32,6.32,0,0,0-.48,1.75,3.08,3.08,0,0,1,1.33-.52h-.92c.2,0,.48,0,.48.13V99.4c0-.9-2-.53-2,.2Z"/><path class="cls-2" d="M108.52,85.65c-1.21,1.39-.78,3.34-.07,4.87.3.65,1.69.07,1.93-.39a13.61,13.61,0,0,0,1.84-5.55c0-.8-1.7-.19-1.92.27a10.23,10.23,0,0,0-.93,4.75c0,.52,1.93.18,1.93-.52a10,10,0,0,1,.92-4.5l-1.92.27a13.62,13.62,0,0,1-1.85,5.55l1.93-.4c-.62-1.33-1.15-3.12-.07-4.36.3-.36-.26-.5-.51-.5a1.73,1.73,0,0,0-1.28.51Z"/><path class="cls-2" d="M110.38,87.91c.82.86,1.2,2.07,2,3a1.48,1.48,0,0,0,1.83.39c.78-.39.82-1.24.83-2,0-1-2-.68-2,.16a8.87,8.87,0,0,1-.06.89s-.07.26,0,.12c0,.08,0,.07,0,0a1,1,0,0,1,1.23-.25s-.15-.12,0,0l-.19-.21c-.15-.19-.28-.39-.41-.59a14.46,14.46,0,0,0-1.47-2.27c-.59-.61-2.42.16-1.77.84Z"/><path class="cls-2" d="M88.35,55.23v3.69c0,1,1.23.66,1.67.23a5.23,5.23,0,0,0,2-3.84c0-.51-.54-.42-1-.42H90.1c-.39,0-.75-.13-.75.34v3.69c0,1,2,.75,2-.14V55.09c-1,.26-1.06.8-1.42.8h.93c-.3,0-.6-.44-.9-.66a4.48,4.48,0,0,1-1.54,3.33c.6.08.93.15,1.93.22V55.09c0-1-2-.75-2,.14Z"/><path class="cls-2" d="M293.21,26.78c.17,1.21,2,2.25,2.82,2.85l1.82-.67L296,28c-.35-.17-2.2.24-1.81.67,4.37,4.85,12,3.81,17.83,3.77.25,0,2.13-.54,1.42-.79s-1.2-.7-1.85-.93c-.3-.1-2.09.33-1.7.72l1.16,1.16,1.81-.67a2.5,2.5,0,0,0-.23-.23c-.37-.37-2.14.34-1.82.67l.24.23c.36.37,2.14-.34,1.81-.67l-1.15-1.16-1.7.72c.62.22,1.19.7,1.85.93l1.41-.8c-5.72,0-13,1.09-17.27-3.62l-1.81.67,1.84.93c.42.21,2.18-.42,1.82-.67-.83-.6-2.55-1.54-2.71-2.7-.06-.42-2,0-1.93.52Z"/><path class="cls-2" d="M281.39,28.8c8.93,2.71,14.73,9.79,22.58,14.32,7.54,4.36,15.11,3.9,22.9.37,1.23-.56.09-1.06-.73-.68-9.83,4.45-17.44,2.18-25.57-4C295,34.51,289.79,30,282.94,27.93c-.54-.17-2.28.65-1.55.87Z"/><path class="cls-2" d="M316.35,47.87v2.77c0,.92,1.76.51,1.92-.2s.36-2.52,1.1-2.92c-.3.16-.3,0,0,.21a2.23,2.23,0,0,1,.49.48,8.06,8.06,0,0,1,1.06,1.66c.32.62,1.93.4,1.94-.36a4.9,4.9,0,0,1,0-.54c0-.13,0-.25.07-.38.12-.52.39-.31-.27-.21.39-.06,1-.25,1.08-.71s-.55-.56-.86-.52a2.33,2.33,0,0,0-2,2.56l1.94-.36c-.73-1.42-1.68-3.13-3.51-3-2.07.13-2.65,2.67-3,4.29.65-.07,1-.14,2-.2V47.67c0-.91-2-.54-2,.2Z"/><path class="cls-2" d="M322.35,46.18V49c0,.12.7-.06.76-.06H324c.39,0,1.56,0,1.58-.57a6.39,6.39,0,0,1,.62-1.78,5.93,5.93,0,0,0,.17-2c0-.37-2.06-.05-2.06.55v2c0,.37,2,.08,2-.52v-2c0-.37-1.83-.08-1.83.52a5.82,5.82,0,0,1-.31,2,5.14,5.14,0,0,0-.54,1.66c.53-.23,1.08.13,1.61-.87h-.93c.12,0,0,.49,0,.54V45.66c0-.37-2-.07-2,.52Z"/><path class="cls-2" d="M306.35,47.1v2.77c0,.44,1.65-.09,1.81-.42a9.43,9.43,0,0,0,.89-4.56c0-.13-.34,0-.4,0h-.92c-.4,0-1.54,0-1.59.51-.07.74-1.25,1.11-1.76,1.58-.33.31.29.32.46.3a2.22,2.22,0,0,0,1.29-.48c.72-.66,1.84-.72,1.94-1.81-.53.22-1.06-.1-1.59.9h.93c-.12-1-.23-.34-.35-.39a9.07,9.07,0,0,1-.77,4.4,18,18,0,0,1,2.06-.55V46.58c0-.34-2,0-2,.52Z"/><path class="cls-2" d="M300.35,40.47v1.84c1-.06,1.42-.12,2.07-.17a3,3,0,0,0-.58-2c-.63-.75-1.49-1.31-2.19-2-.42-.42-1.85-.27-1.85.5s-.19,1-.74,1.51a.5.5,0,0,0,.23.86,1.44,1.44,0,0,0,1.37-.37,2.79,2.79,0,0,0,1.1-2.18l-1.86.5c1,1,2.56,1.79,2.59,3.37,0,.95,1.86.61,1.86-.17V40.29c0-.95-2-.61-2,.18Z"/><path class="cls-2" d="M293.35,36v1.84c0,.3,2,0,2-.51v-3.7c0-.07-.2-.1-.28-.11a5.07,5.07,0,0,0-3.77,0c-1,.43-1.31,1.48-1.75,2.36-.15.31.67.19.76.17.31-.06,1-.18,1.12-.52s.43-.92.67-1.36a1.59,1.59,0,0,1,.33-.44c.16-.16-1,.14-.43.16a2.91,2.91,0,0,1,.58.09c.33.07.77.07.77.46v3.37c0,.3,2,0,2-.51V35.5c0-.3-2,0-2,.52Z"/><path class="cls-2" d="M287.63,32.82c1.14,0,1.45-1.52.15-1.52-1.14,0-1.45,1.52-.15,1.52Z"/><path class="cls-2" d="M305.82,31.76c4.69.14,9.17,1.69,13.86,1.84.81,0,2-1.15.72-1.23a16.69,16.69,0,0,1-8.84-3.59c-.48-.35-2.24.29-1.65.91a1.64,1.64,0,0,1,.85,1.71l1.54-.84c-1.7-.38-2.2-.58-3.75.1-.3.14-.92.72-.36,1a50,50,0,0,0,5.73,1.92c.53.17,2.22-.66,1.33-1.09-4-2-8.76-3.86-12.63-.63a.43.43,0,0,0,0,.72,18.13,18.13,0,0,0,9.64,2.88c.39,0,2-.64,1.12-1.12a12.88,12.88,0,0,0-5-2c-.41,0-2,.74-1.12,1.12a16.67,16.67,0,0,0,6.87,1c.81,0,2-1.23.71-1.24a14.84,14.84,0,0,1-6.06-.81l-1.12,1.12a11.14,11.14,0,0,1,4.22,1.74L313,34.22a16.62,16.62,0,0,1-8-2.14l1.3-.79a9,9,0,0,1,3.1.41,23.75,23.75,0,0,1,4.34,1.79l1.33-1.09a43.67,43.67,0,0,1-5.36-1.77l-.36,1a2.78,2.78,0,0,1,1.8.11c.55.12,1.58-.12,1.54-.84a2.49,2.49,0,0,0-1-2L310,29.8a18.21,18.21,0,0,0,9.64,3.8l.72-1.23c-4.69-.15-9.17-1.7-13.86-1.85-.82,0-2,1.19-.72,1.24Z"/></svg>