<svg id="layer1" xmlns="http://www.w3.org/2000/svg" viewBox="0 0 283.76 170.68"><defs><style>.cls-1{fill:#188925;}.cls-2{fill:#492d0c;}.cls-3{fill:#ff7208;}.cls-4{fill:#fff;}.cls-5{fill:#102368;}</style></defs><path class="cls-1" d="M27.65,24.67c18.73-.12,40.19-1.12,54.13-1.36C117.36,22.69,217.55,20,249,23.25c3,.3,1.31,103.82.76,117.75,0,0-196.14,2.7-222.31,1.67-2.46-.1-2.39-51.82-1.71-69.24-1.12-15.74-.51-31.41.11-47.09Z"/><path class="cls-2" d="M27.29,25.27c42.66-.33,85.33-2.13,128-2.69,21.05-.28,42.11-.45,63.17-.09,7.95.13,15.9.35,23.84.85,1,.06,5.81-.14,6.1.81a20,20,0,0,1,.55,4.16c1.63,19.69.86,39.75.71,59.48-.14,17.76-.2,35.56-.88,53.32l1.33-.71q-78.18,1.07-156.37,1.71-21.34.16-42.69.19c-2.72,0-22.53,1.3-23.17-.79-1.69-5.56-1.16-12.4-1.33-18.13-.27-9.68-.29-19.37-.24-29,.05-7.66.77-15.49.26-23.12-.57-8.44-.56-16.92-.4-25.37.07-3.93.2-7.85.34-11.77.12-3.31-.6-6.86,1.93-9.2.85-.78-1.06-.89-1.58-.41s-2,1.33-2,2q-.23,5.88-.44,11.76c-.28,8.5-.39,17-.16,25.51.26,9.54.2,19,.12,28.54-.14,15.93-1.27,32.92,1.33,48.71.5,3.08,2.72,2.37,5.37,2.42,4.38.08,8.76.1,13.13.11,13.66,0,27.32,0,41-.12q81.88-.51,163.77-1.76h.43c.38,0,1.31-.17,1.33-.71,1.1-28.77,1.13-57.66.92-86.45,0-6.63-.14-13.27-.39-19.91-.13-3.55,0-7.44-.92-10.9-.63-2.43-9.4-1.64-11.39-1.74-8.46-.44-16.94-.6-25.41-.71C151.65,20.41,89.86,23.58,28,24.06,27.22,24.07,26,25.28,27.29,25.27Z"/><path class="cls-3" d="M249,23c3,.19,1.13,32.78.92,38,0,0-197.84,3.87-224,2.84,0,0-.23-33.12,0-39C25.9,24.82,217.51,21,249,23Z"/><path class="cls-2" d="M248.42,23.54c2.62.76,1.27,16.66,1.23,18.78-.11,6.25-.44,12.5-.7,18.76l1.33-.71Q172.13,61.89,94,63c-19.39.24-38.79.52-58.19.41-2.57,0-5.15,0-7.72-.1l-1.24,0c-.37,0,.06.84.05-.12l0-5.05c-.06-11.1-.35-22.24,0-33.34l-1.34.71c53.14-1.06,106.28-1.93,159.42-2.3,21.17-.15,42.53-.83,63.68.46.81.05,2-1.13.72-1.21-25.22-1.54-50.74-.59-76-.37q-51.74.46-103.47,1.42-21.83.36-43.63.79c-.38,0-1.32.17-1.34.71-.44,13-.09,26,0,39,0,.35.29.49.61.5,23.53.89,47.2,0,70.72-.29q51.44-.65,102.86-1.61,25.23-.45,50.44-.93c.38,0,1.31-.17,1.33-.71.32-7.66.7-15.32.76-23,0-2.48,1.25-14.52-2.07-15.48C248.89,22.21,247.29,23.22,248.42,23.54Z"/><path class="cls-4" d="M249,62c3,.19,1.84,31.36,1.63,36.57,0,0-199.26,1.74-225.43.71,0,0,.47-29.56.7-35.43C25.9,63.82,217.51,60,249,62Z"/><path class="cls-2" d="M248.42,62.54c2.59.75,1.62,15.74,1.63,17.56,0,6.19-.15,12.37-.39,18.55l1.33-.71q-78,.68-156,1c-19.27.07-38.54.14-57.81,0-2.8,0-5.61-.06-8.41-.13l-2.93-.08c.46,0,.34.81.36-.17,0-.82,0-1.64,0-2.46.18-10.77.26-21.55.66-32.32l-1.34.71c53.14-1.06,106.28-1.93,159.42-2.3,21.17-.15,42.53-.83,63.68.46.81.05,2-1.13.72-1.21-25.22-1.54-50.74-.59-76-.37q-51.74.47-103.47,1.42-21.83.36-43.63.79c-.38,0-1.32.17-1.34.71-.43,11.8-.51,23.63-.7,35.44,0,.34.29.49.61.5,23.43.89,47,.34,70.41.27q51.5-.16,103-.57,26-.19,52-.41c.38,0,1.31-.17,1.33-.71.29-7.26.45-14.52.37-21.78,0-2.64,1-14.27-2.39-15.26C248.89,61.2,247.29,62.22,248.42,62.54Z"/><path class="cls-5" d="M139.91,67.91a13.31,13.31,0,1,0,13.31,13.31A13.31,13.31,0,0,0,139.91,67.91Zm11.74,15.27v.08a3.16,3.16,0,0,1-.3,1.08,2.29,2.29,0,0,1-.3.77c-.15.08-.27,0-.34.08-.47.31-.8.23-.34.85.08.08.28.15.28.23v.15c0,.16-.61.7-.84,1-.39.54-.54.23-1,.46s-.16,1-.16.85v.08c0,.31-.57.69-.88.93-.46.46-.67.07-1.14.38s0,.46-.14.85a3.29,3.29,0,0,1-1.08.7c-.54.15-.53-.08-1.07-.08s-.39.38-.62.69a1.94,1.94,0,0,1-1.93.39c-.23-.08-.31-.54-.77-.31a.63.63,0,0,0-.31.7,8,8,0,0,1-1.39-.08c-.46-.16-.39-.47-.77-.62s-.78,0-.85.31l-.08.08-1.08-.24c-.08-.07-.31-.07-.46-.15s-.24-.08-.31-.23.07-.39-.16-.62-.77.31-1.16.23c-.23,0-.46-.23-.61-.38s-.39-.31-.54-.39l-.08-.15c.46-.78-.54-1-1.16-.62-.23-.31-.62-.62-.85-.93-.39-.54-.08-.31-.08-.85,0-.69-.47-.77-1-.62a3.62,3.62,0,0,1-.47-1.46v-.08a2,2,0,0,0,.09-.77c-.24-.62-.85-.08-1.16-.31s-.34-1.54-.34-1.85c.92-.08.13-1.24-.1-1.09l-.09-.15a3,3,0,0,1,.08-1.85c1.08-.23.84-.7,0-1.16.16-.62.39-1.16.54-1.78.39.08,1.08-.07,1.08-.46s-.46-.46-.54-.77.08-.17.16-.4.38-.86.62-.86h.23l-.12-.06a.89.89,0,0,0,1.12-.46c.16-.31-.31-.58-.31-.81s.31-.33.39-.41c.23-.23.46-.55.77-.62l.16-.08c-.08,0-.16-.08-.08-.08.54.23,1.54-.08,1-.78a2.5,2.5,0,0,1,1.16-.69l.39-.08c.38.62,1.15.15,1.15-.54a3,3,0,0,0,1.63-.39l.23-.07c.15.61,1.39.54,1.23-.24a12.1,12.1,0,0,0,1.7.08l.23-.15a.55.55,0,1,0,1.08,0c.62,0,1.08.42,1.63.42h.23c-.23,0-.19.83.23,1,.62.15.85-.14,1.47.17.38.15.69-.14.92.86h.08c-.69,0,.31,1.08,1,.7.39.46.85.3,1.24,1.3h.08c-.78,0-.16,1.13.54.9l.23-.13a2.76,2.76,0,0,1,.62,1.82c-.16.39-.54.32.07.56.16.07.24-.15.39-.15h.15a2.05,2.05,0,0,0,.24,1.21c.07.31.23.65.07,1s-.38,0-.31.45a.68.68,0,0,0,.62.38h.08c0,1,.22,1.61.14,2.38C151,82.12,150.65,83.1,151.65,83.18Z"/><path class="cls-5" d="M142.13,81.22a2.21,2.21,0,1,0-2.21,2.2A2.21,2.21,0,0,0,142.13,81.22Z"/><path class="cls-5" d="M139.32,78.93s-.85-1.53-1-1.85-1.1-6.1-1.33-7c.56,2.2,2.2,6.72,2.2,6.72A17.27,17.27,0,0,0,139.32,78.93Z"/><path class="cls-5" d="M138.75,79.17s-1.22-1.27-1.43-1.54-2.64-5.61-3.09-6.37c1.11,2,3.87,5.92,3.87,5.92A16.67,16.67,0,0,0,138.75,79.17Z"/><path class="cls-5" d="M138.26,79.54s-1.51-.91-1.78-1.12-4-4.73-4.63-5.35c1.58,1.63,5.26,4.72,5.26,4.72A18.64,18.64,0,0,0,138.26,79.54Z"/><path class="cls-5" d="M137.88,80s-1.69-.49-2-.61-5.09-3.54-5.86-4c2,1.16,6.31,3.19,6.31,3.19A17.45,17.45,0,0,0,137.88,80Z"/><path class="cls-5" d="M137.64,80.59s-1.76,0-2.1-.08-5.83-2.09-6.69-2.31c2.18.61,6.92,1.45,6.92,1.45A18.56,18.56,0,0,0,137.64,80.59Z"/><path class="cls-5" d="M137.55,81.2s-1.7.42-2.05.47-6.17-.51-7.05-.51c2.26,0,7.06-.39,7.06-.39A17.44,17.44,0,0,0,137.55,81.2Z"/><path class="cls-5" d="M137.63,81.81s-1.54.85-1.86,1-6.1,1.1-7,1.33c2.2-.56,6.72-2.2,6.72-2.2A17.55,17.55,0,0,0,137.63,81.81Z"/><path class="cls-5" d="M137.86,82.38s-1.27,1.22-1.54,1.44-5.6,2.64-6.37,3.08c2-1.11,5.92-3.86,5.92-3.86A17.73,17.73,0,0,0,137.86,82.38Z"/><path class="cls-5" d="M138.23,82.88s-.91,1.5-1.12,1.78-4.73,4-5.35,4.62c1.63-1.58,4.72-5.26,4.72-5.26A17.57,17.57,0,0,0,138.23,82.88Z"/><path class="cls-5" d="M138.71,83.25s-.48,1.69-.61,2-3.53,5.09-4,5.86c1.16-2,3.19-6.31,3.19-6.31A17.45,17.45,0,0,0,138.71,83.25Z"/><path class="cls-5" d="M139.28,83.5s0,1.75-.07,2.1-2.1,5.83-2.32,6.68c.61-2.18,1.45-6.92,1.45-6.92A19.12,19.12,0,0,0,139.28,83.5Z"/><path class="cls-5" d="M139.89,83.58s.42,1.71.47,2-.51,6.17-.51,7.05c0-2.26-.38-7.05-.38-7.05A19,19,0,0,0,139.89,83.58Z"/><path class="cls-5" d="M140.5,83.51s.85,1.53,1,1.85,1.1,6.1,1.33,7c-.56-2.2-2.2-6.72-2.2-6.72A17.27,17.27,0,0,0,140.5,83.51Z"/><path class="cls-5" d="M141.08,83.27s1.21,1.27,1.43,1.54,2.64,5.61,3.08,6.37c-1.1-2-3.86-5.92-3.86-5.92A19.18,19.18,0,0,0,141.08,83.27Z"/><path class="cls-5" d="M141.57,82.9s1.5.91,1.78,1.12,4,4.73,4.63,5.35c-1.58-1.63-5.27-4.72-5.27-4.72A17.57,17.57,0,0,0,141.57,82.9Z"/><path class="cls-5" d="M142,82.42s1.68.49,2,.61,5.09,3.54,5.85,4c-1.95-1.16-6.31-3.19-6.31-3.19A18.31,18.31,0,0,0,142,82.42Z"/><path class="cls-5" d="M142.19,81.85s1.75,0,2.1.08S150.12,84,151,84.24c-2.18-.61-6.92-1.45-6.92-1.45A19.12,19.12,0,0,0,142.19,81.85Z"/><path class="cls-5" d="M142.27,81.24s1.71-.42,2-.47,6.17.51,7.05.51c-2.26,0-7.05.39-7.05.39A17.81,17.81,0,0,0,142.27,81.24Z"/><path class="cls-5" d="M142.2,80.63s1.53-.85,1.86-1,6.09-1.1,6.94-1.33c-2.2.56-6.72,2.2-6.72,2.2A17.48,17.48,0,0,0,142.2,80.63Z"/><path class="cls-5" d="M142,80.06s1.26-1.22,1.54-1.44,5.6-2.64,6.36-3.08c-2,1.11-5.92,3.86-5.92,3.86A17.08,17.08,0,0,0,142,80.06Z"/><path class="cls-5" d="M141.59,79.56s.91-1.5,1.12-1.78,4.73-4,5.35-4.62c-1.62,1.58-4.72,5.26-4.72,5.26A17.57,17.57,0,0,0,141.59,79.56Z"/><path class="cls-5" d="M141.11,79.18s.49-1.68.62-2,3.53-5.09,4-5.86c-1.16,2-3.19,6.31-3.19,6.31A18.31,18.31,0,0,0,141.11,79.18Z"/><path class="cls-5" d="M140.54,78.94s0-1.75.08-2.1,2.09-5.83,2.32-6.68c-.62,2.18-1.46,6.92-1.46,6.92A19.12,19.12,0,0,0,140.54,78.94Z"/><path class="cls-5" d="M139.93,78.86s-.42-1.71-.47-2,.52-6.17.51-7c0,2.26.39,7,.39,7A17.81,17.81,0,0,0,139.93,78.86Z"/></svg>