<svg id="layer1" xmlns="http://www.w3.org/2000/svg" viewBox="0 0 151.69 144.69"><defs><style>.cls-1{fill:#492d0c;}</style></defs><path class="cls-1" d="M54,83.85l-1.94-8c9.4,0,19-4.09,20.69-13.13.89-4.9,1.12-10.72-10.4-14C53.93,46.28,46,51.16,44.1,53.56l-11.45-5C40.8,38.81,59.57,38.07,66,40.75,76.33,45,78.34,55.66,77.67,63.66,77.3,68.18,71.69,80,54,83.85Z"/><path class="cls-1" d="M55,83.59c-.65-2.65-1.3-5.31-1.94-8l-1.05,1c7.49-.14,15.22-2.33,19.7-8.72,2.88-4.1,3.46-10.55.44-14.66-4.43-6-14.32-6.79-20.85-4.85a17.24,17.24,0,0,0-7.52,4.35c.88.19,1.07.18.55,0L42.69,52l-4.22-1.85-4-1.75c-1.91-.84-.41-.43,1.34-1.93,3.63-3.13,8.49-4.63,13.09-5.59,8.82-1.84,18.48-1.09,24.18,6.67,4,5.43,5,14.33,2.26,20.48-3.84,8.49-13,13.06-21.56,15.11-1.22.28-.83,1.67.37,1.38,16.83-4,30.44-17.85,22-35.61-7.64-16.07-34.39-11.81-44.36-.72a.6.6,0,0,0,.27,1l11.45,5.05a1.29,1.29,0,0,0,1.37-.37c6.46-7.09,24.55-7.26,27.08,3.81C74.67,69.35,61.43,75,52.14,75.15c-.49,0-1.18.43-1,1l1.95,8C53.26,85,55.2,84.53,55,83.59Z"/><path class="cls-1" d="M68.08,134.73a27.85,27.85,0,0,1-5.08-.47c-23.09-4.26-42.68-35-47.16-51.08l1.66-.11c4.38,15.65,26.41,40.58,46,42.91,8,.94,16.77-1.41,22.91-9.71,6.26-8.45,1.58-17.16-1.2-21-5.43-7.52-19.2-16.19-29.08-13l.36-3.19A42.14,42.14,0,0,1,92.25,91.42c5,5,14,19.48,3.88,31.26C87.11,133.2,75.38,134.73,68.08,134.73Z"/><path class="cls-1" d="M68.7,134.29c-14.21-.46-25.67-10.11-34.48-20.45C26.65,105,20.09,94.2,16.8,82.92c-.45.24-.91.47-1.37.7,2-.13,2.56,3.85,3.41,5.69A63,63,0,0,0,23.92,98a84.75,84.75,0,0,0,14.19,15.83c9.07,8,21.93,15.33,34.47,12.12,13.55-3.48,22.37-16.3,14.64-29.36C81.44,86.77,67.43,78.8,56,81.94l1.05.2.33-2.85c0-.28,6.63,0,7.06,0a41.27,41.27,0,0,1,14.06,3.56A37.57,37.57,0,0,1,96.77,99.41c10.56,19.76-10,34.71-28.29,34.88-.58,0-2.1.89-.8.88C84.1,135,105.35,124.38,101,104.91c-4.26-19-26.69-28.31-44.33-26.21-.25,0-1.08.22-1.12.57-.13,1.06-.25,2.12-.37,3.18,0,.46.83.27,1,.21,11.41-3.15,25,6.61,30.13,16.31,8,14.94-7.87,28-22.23,26.57-11-1.05-20.86-9-28.43-16.37-7.39-7.25-14.24-16.32-17.23-26.36-.06-.19-.41-.19-.56-.18l-1.67.11c-.25,0-1.5.23-1.37.7,3.45,11.85,10.47,22.81,18.42,32.14,8.66,10.15,20.36,19.13,34.18,19.59C67.93,135.18,69.69,134.33,68.7,134.29Z"/><path class="cls-1" d="M111.85,100.74c-8.36,0-14.27-6.49-18.32-11.21a49.12,49.12,0,0,0-5.83-6.06c-8.61-7.11-15.9-6.23-28.05-1.76l-1.32-3c11.51-4.24,23.12-10.18,36.12.54,2.75,2.27,5,5.35,6.94,7.67A14.1,14.1,0,0,0,116.13,91c6.49-2.13,10.25-6.82,10.09-11.65-.22-6.68-2.72-16.11-13.59-18.83-5.77-1.44-17.59.1-21.28,6.33l-2.48-.59c5.76-9.71,17.06-12.66,24.38-11.35,12.4,2.22,20.39,12.28,20.74,22.89.29,8.88-2.94,18.18-13.2,21.55A33.82,33.82,0,0,1,111.85,100.74Z"/><path class="cls-1" d="M112.19,100.05C99.48,99.44,94.61,86.58,85,80.45c-8-5.08-17.33-2.33-25.51.62l1.14.38-.86-1.92c-.53-1.19,1.75-1.27,3-1.74a59,59,0,0,1,13-3.69c10.15-1.39,17.93,4.84,23.92,12.24,6.83,8.45,19.73,7.61,25.88-1.31,5.11-7.44-.88-20.25-8.35-23.65-8.23-3.75-21.32-2.63-26.77,5.4l1.49-.54-2.09-.49c.21,0,4.83-5,5.16-5.3a23.6,23.6,0,0,1,11.81-4.93c8.37-1.24,16.65,3.21,21.69,9.66,4.51,5.78,5.28,13.32,3.84,20.3-2.07,10-10.91,14.32-20.37,14.57-1.09,0-1.5,1.41-.19,1.38,8.65-.23,16.57-3.29,20.79-11.21,4.1-7.7,2.91-17.63-1.56-24.81-9.92-15.95-33.47-14.25-43,.78a.51.51,0,0,0,.36.74l2.47.59A1.37,1.37,0,0,0,92.27,67c6.21-9.17,22.61-7.8,29,0,2.79,3.41,3.74,8.14,3.94,12.43.42,8.55-10.38,12.93-17.32,10.83-5.13-1.56-7.86-6.84-11.43-10.4a25.25,25.25,0,0,0-11.92-6.68c-9.39-2-18,1.76-26.66,5-.26.09-.69.48-.55.81.44,1,.89,2,1.33,3a.9.9,0,0,0,1.14.38c5.17-1.86,10.46-3.66,16-3.35,5.87.33,10.75,4.33,14.57,8.42,6.09,6.51,11.42,13.54,21.09,14C112.43,101.47,113.5,100.12,112.19,100.05Z"/><path class="cls-1" d="M76.76,40.07a31.78,31.78,0,0,1-5.66-.73A23.92,23.92,0,0,1,55.77,27.48l5.66-2.74c2.25,4.15,7.52,5.8,12,6.57,8.28,1.4,17.13-3.19,22.93-8.47l9.55,7C99.52,35.7,87,40.07,76.76,40.07Z"/><path class="cls-1" d="M77.37,39.63a24.87,24.87,0,0,1-17.09-7.51c-.66-.66-3.18-4.83-3.78-4.54l1.84-.89L62,24.92,60.46,25c3.6,5.6,11,7.2,17.3,6.94C85,31.65,92,27.44,97.29,22.8l-1.79.39L104.72,30c.59.44-8.86,5.58-10.08,6.09a47.89,47.89,0,0,1-17.48,3.58c-.58,0-2.1.91-.81.89C87,40.3,98.52,37,106.7,29.92c.1-.08.34-.28.15-.42l-9.54-7c-.47-.35-1.41.06-1.79.38-8.3,7.25-25.59,13.36-33.12,1.6-.28-.44-1.2-.09-1.54.08L55.2,27.3c-.09,0-.49.27-.39.44A25.21,25.21,0,0,0,76.14,40.5C76.61,40.53,78.37,39.68,77.37,39.63Z"/><path class="cls-1" d="M81.56,23.63l-6.63-4.21C75,14.59,77,13,81.12,9.9l5.33,7.19C83.36,19.39,81.62,22.72,81.56,23.63Z"/><path class="cls-1" d="M82.32,23.13l-6-3.85c-1-.66,0-3.22.53-4.25,1-2.06,3.18-3.47,4.93-4.78l-1.5.05q2.65,3.6,5.33,7.19c.09-.25.19-.49.28-.74-2.11,1.67-4.77,4.18-5.25,7-.14.84,1.82.52,1.94-.21.42-2.41,2.73-4.66,4.54-6.09.22-.18.5-.44.27-.74Q84.68,13.1,82,9.51c-.3-.41-1.18-.2-1.51.05A24.84,24.84,0,0,0,75.58,14c-.77,1-2.5,4.74-1.54,5.85a13.38,13.38,0,0,0,3,1.93l3.76,2.39C81.4,24.52,83.16,23.67,82.32,23.13Z"/></svg>