<svg id="layer1" xmlns="http://www.w3.org/2000/svg" viewBox="0 0 171.09 142.06"><defs><style>.cls-1{fill:#f4b653;}.cls-2{fill:#f94199;}.cls-3{fill:#492d0c;}</style></defs><path class="cls-1" d="M142.11,73c-.24.21-.5.4-.75.61a3,3,0,0,0-1.72.09,95.86,95.86,0,0,0-9.8,4.19A62.52,62.52,0,0,0,119.91,80,244.92,244.92,0,0,0,95,86.45h-.35c-6.27-1.11-12.85-1.08-19.36-1.33-1-.14-1.94-.26-2.92-.35a3.39,3.39,0,0,0-1.3.13c-.86-.06-1.72-.13-2.58-.22a32.76,32.76,0,0,0-6.37-1.46,75.89,75.89,0,0,1-12-4.39,3.55,3.55,0,0,0-4.71,1.36,3.52,3.52,0,0,0-.9-.11c-.67-1.09-1.32-2.17-2-3.2-2.07-3.33-7.52-1.19-6.39,2.7,6,20.94,22.3,36.27,43.79,38.61,6.26,2.15,13.47,2.14,20.31,1.09,23,3.65,38.84-22.56,47.38-42.07C149.18,73.62,145.24,70.24,142.11,73Z"/><path class="cls-2" d="M143.27,66.25a3.38,3.38,0,0,0-.35-4.61,3.11,3.11,0,0,0-.67-3.91l-.81-.8-.41-.32a3.16,3.16,0,0,0-1.77-1.31c-3.87-3.2-7.7-6.44-12-8.79-4.07-3.39-8.39-6.49-12.73-9.43A111,111,0,0,0,93.28,25.46c-5.54-2.19-10-2.55-15,1C70.6,31.84,64.18,39.18,58,46.11,52.68,52,46.33,58.26,43.29,65.68c-4.55,11.09,7.55,14.14,18.45,15.18,25.19,8,54.89,8.16,75.69-8.55a2.84,2.84,0,0,0,1-1.54,3.79,3.79,0,0,0,3.9-2.41c0-.1.07-.19.1-.29A3.05,3.05,0,0,0,143.27,66.25Z"/><path class="cls-3" d="M37.38,70.36c-1.82,6.61,10.56,9,14.8,10C65,83.44,77.78,85.57,91,85.22c12.88-.34,25.17-3.68,37.43-7.36,7.19-2.15,17.92-5.88,19.94-14.14.19-.76-1.77-.47-1.94.23-2.07,8.51-14,11.76-21.36,13.76-11.7,3.19-22.94,6.08-35.16,6.4-11.72.31-22.86-2-34.26-4.32-4.21-.86-18.15-3.19-16.38-9.65.21-.75-1.74-.47-1.93.22Z"/><path class="cls-3" d="M35.77,72c-1,7.17-1.08,14.06,2,20.76,3.16,6.87,9.78,12.45,15.81,16.77,13,9.33,28.26,11.59,44,10.74,14.15-.77,27.84-4.28,37.66-15.09S148.54,79,152.42,65.33c.21-.74-1.74-.47-1.94.22-3.44,12.11-6.57,24.52-13.62,35.12-9.12,13.69-24.7,17.87-40.3,18.48-14.33.57-28.18-1.54-40.21-9.74-6.5-4.43-13-10.18-16.64-17.2-3.32-6.3-2.92-13.64-2-20.47.11-.81-1.84-.47-1.94.23Z"/><path class="cls-3" d="M42.52,67.72c1.36-5.35,6.69-8.09,10.8-11.19a86.94,86.94,0,0,0,12.05-11.6c4.3-4.78,8.33-9.78,12.77-14.43,3.2-3.35,6.32-6.35,11.43-5.7,2.61.34,5.07,1.72,7.31,3,7.82,4.58,13.9,11.33,22,15.54,9.55,5,21.11,9.37,26.78,19.13.37.63,2.22,0,1.94-.52-6-10.28-18.26-14.88-28.31-20.11-9.67-5-16.78-14.79-27.47-17.85-10.52-3-18.25,9.32-24,16C62.48,46.25,57,52.3,50.41,57.27c-4,3-8.52,5.57-9.82,10.7-.17.68,1.77.39,1.93-.25Z"/><path class="cls-3" d="M39.05,77.84c8,5.66,17,10.27,27,10.59.71,0,2.07-1,.76-1.06-9.59-.3-18.26-4.86-25.95-10.27-.55-.39-2.3.39-1.8.74Z"/><path class="cls-3" d="M41.44,83.4c3.46,3.45,7.17,7.06,12.31,7.27.37,0,2.2-.69,1.27-.73-4.86-.2-8.51-3.94-11.75-7.17-.33-.33-2.06.4-1.83.63Z"/><path class="cls-3" d="M44.67,87.47a11.69,11.69,0,0,0,5.74,4.9,1.66,1.66,0,0,0,1.37-.19c.22-.13.62-.57.17-.73a11.21,11.21,0,0,1-5.49-4.73c-.35-.52-2.22.11-1.79.75Z"/><path class="cls-3" d="M46.26,95.46A14.61,14.61,0,0,0,52,98.73c.47.16,2.21-.58,1.57-.8a13.91,13.91,0,0,1-5.49-3.15c-.4-.39-2.18.33-1.82.68Z"/><path class="cls-3" d="M54.3,100.35c1.37,1.24,3.33,1.73,5,2.53a1.39,1.39,0,0,0,1.39-.14c.27-.19.56-.72.11-.94-1.47-.72-3.44-1.16-4.67-2.28-.61-.56-2.43.23-1.78.83Z"/><path class="cls-3" d="M104,113.41c8.33-.11,16.3-1.8,23.19-6.68,1.07-.76-.54-1.27-1.25-.76-6.47,4.59-13.92,6.06-21.73,6.16-1,0-1.53,1.3-.21,1.28Z"/><path class="cls-3" d="M106.45,110.28a39.33,39.33,0,0,0,22.38-7.49c1.07-.76-.5-1.47-1.28-.9a36.75,36.75,0,0,1-20.94,7c-1.11,0-1.47,1.46-.16,1.44Z"/><path class="cls-3" d="M112.53,106c5.53-.22,10.2-3.2,14.8-6,.82-.5-1.13-.29-1.49-.08-3.86,2.34-7.82,5.07-12.48,5.26-.52,0-2.11.85-.83.8Z"/><path class="cls-3" d="M117.52,100.9c3.55-1.7,7.37-2.62,10.62-4.92.81-.58-1.13-.38-1.5-.11-3.11,2.21-6.84,3.07-10.25,4.7-1.15.56.64.56,1.13.33Z"/><path class="cls-3" d="M121.37,96.38c2.25,0,5-.93,6.17-3,.2-.36-.69-.31-.8-.29a1.51,1.51,0,0,0-1.11.58,3.94,3.94,0,0,1-3.46,1.8,1.88,1.88,0,0,0-1.28.49c-.3.35.25.43.48.43Z"/><path class="cls-3" d="M127.81,90.84a18.41,18.41,0,0,0,4.39-3.48.52.52,0,0,0-.24-.89,1.38,1.38,0,0,0-1.36.37A15.73,15.73,0,0,1,127,89.77c-1.17.61-.11,1.57.84,1.07Z"/></svg>