<svg id="layer1" xmlns="http://www.w3.org/2000/svg" viewBox="0 0 222.98 628"><defs><style>.cls-1{fill:#c47d37;}.cls-2{fill:#7c5127;}.cls-3{fill:#7c4979;}.cls-4{fill:#492d0c;}</style></defs><path class="cls-1" d="M124.81,201.12a2.7,2.7,0,0,0,1.25-2.74c-1.61-16.24-6.27-31.64-12.72-46.55a.32.32,0,0,1,0-.09,3.22,3.22,0,0,0,2-3.93c-5.85-17.94-8.06-36.81-14.05-54.71-.07-.18-.14-.33-.22-.49a3.39,3.39,0,0,0-.67-3.14c-.2-.24-.37-.51-.55-.77a18.59,18.59,0,0,0-2-3.72,2.64,2.64,0,0,0,.24-2.55A102.31,102.31,0,0,1,94,71.59c-.33-2.46-.66-4.91-1.2-7.26-.84-3.67-6.72-2.88-6.57.89a30.46,30.46,0,0,0,.48,4.21,3.14,3.14,0,0,0-3.55,2.35c-.36,1.42-1,2.83-1.44,4.24a3.29,3.29,0,0,0-2.47,3v5.32a3.33,3.33,0,0,0,1.51,2.51c0,.27-.23.53-.24.8a3.55,3.55,0,0,0-2.27,3.08V92.9a3.46,3.46,0,0,0,1,2.14,2.34,2.34,0,0,0-.53,1.88c.27,3.6.5,7.57.57,10.57h-.34a3.44,3.44,0,0,0-3.34,3.43c0,.13,0,.38,0,.51a3.22,3.22,0,0,0-.95,1.81c-.57,2.85-1.08,5.74-1.59,8.6a4.25,4.25,0,0,0-.54,1c-.42,1.16-.8,2.34-1.14,3.51a3.14,3.14,0,0,0-3.08,2.34c-3.5,11.76-2.74,24.12-3.58,36.22A119.19,119.19,0,0,0,57.25,194a3.08,3.08,0,0,0-3,3.21,177.85,177.85,0,0,0,1.17,19.09A3,3,0,0,0,54.12,219a158.89,158.89,0,0,0,5.13,37.62,3,3,0,0,0-.61,2,5.51,5.51,0,0,0,.21,1.67,3.36,3.36,0,0,0,3.36,2.39c2.24.78,5.33-1,4.51-3.95-.09-.31-.16-.62-.25-.93a3.34,3.34,0,0,0,.79-1.14c.91-2.33,1.78-4.68,2.64-7,.46-.91.87-1.82,1.28-2.74a3,3,0,0,0,2.73-1.64c2.3-4.08,3.17-8.38,3.75-12.91a120.79,120.79,0,0,0,4.71,14.26,31.14,31.14,0,0,0,3.92,13.72,3.81,3.81,0,0,0,.37.5,22.63,22.63,0,0,0,.21,2.7c.6,4.26,7,2.44,6.45-1.78,0-.26-.06-.52-.08-.79a3.21,3.21,0,0,0,2.69-2.31,36.65,36.65,0,0,0,1-4.08,2.82,2.82,0,0,0,1.67-2.1,73,73,0,0,0,1.88-12.36,2.93,2.93,0,0,0-1-2.43c0-.68-.07-1.35-.12-2a2.9,2.9,0,0,0,1.14-2.6,30.53,30.53,0,0,0-.41-4,20.69,20.69,0,0,0-5-14.29,2.78,2.78,0,0,0-.75-.64,46.92,46.92,0,0,0,9.33-13.06,3.66,3.66,0,0,0,1.11-1.59,90,90,0,0,0,3.53-14.12,3.35,3.35,0,0,0-5.3-3.44,3.48,3.48,0,0,0-3.22-2.56c-2.47-.13-4.79-.55-7.18-.06a25.76,25.76,0,0,1-4.33-.73A35.62,35.62,0,0,0,83,176.84a3.68,3.68,0,0,0-1.5-.06c-.32-.63-.63-1.27-.91-1.93-.83-1.92-4-2.18-5.25-.68a33.67,33.67,0,0,0-4.06,6,3.59,3.59,0,0,0,.11,3.41,4.14,4.14,0,0,0-.45.92,18,18,0,0,0-.87,4.34,14.61,14.61,0,0,1-2,1.6A3.76,3.76,0,0,0,67,191.5a3.26,3.26,0,0,0-1.11-1.16c-.25-.85-.5-1.69-.77-2.53l-.12-.29a109.1,109.1,0,0,1,3.37-13.11,3.42,3.42,0,0,0,3-1.44c8.19-11.18,13.18-24.18,12.62-37.85a86.81,86.81,0,0,0,1.37-9.59,162.91,162.91,0,0,0,.08-28.37,3.34,3.34,0,0,0-1-2.17,3.31,3.31,0,0,0,.76-2.09V91.56a3.28,3.28,0,0,0,2.08-2A33.63,33.63,0,0,0,89,83.05c.16.38.35.77.49,1.16a3.61,3.61,0,0,0,.93,1.32,26.68,26.68,0,0,0,4.22,7.6,1.61,1.61,0,0,0,.22.23,3.55,3.55,0,0,0,0,1.52c3.21,15.08,2.31,30.67,5.69,45.72a3.09,3.09,0,0,0-.29,1.57c.32,5.36,2.46,9.87,5.47,14.24a4,4,0,0,0,3,1.62,149.83,149.83,0,0,1,9.5,32.12,2.71,2.71,0,0,0-1.4,2.71c.79,7.74,1.16,15.5,1.34,23.26l0,.11c-2-.2-4.13,1.46-3.87,3.55-1,1.62-2.84,3.48-3.34,5.32a4.3,4.3,0,0,0-.16.81,12,12,0,0,0-5.77-3.65,3.37,3.37,0,0,0-4.23,3.22,9.86,9.86,0,0,0,.59,3.11,3.2,3.2,0,0,0,.37,1.09l.18.34c.54,1.27,1.19,2.5,1.77,3.57a48.67,48.67,0,0,0,1.75,5.58,3.5,3.5,0,0,0,.31,2.56q3.24,6.36,7,12.45a10.11,10.11,0,0,0,1.06,5.11c1.65,3.29,5.9,1.29,6.23-1.69a60.53,60.53,0,0,0,.3-7.26c.82-3.69,1.55-7.41,2.06-11.15a3.07,3.07,0,0,0,2.66-3.17c0-6.81,0-13.63-.18-20.44A58.32,58.32,0,0,0,124.81,201.12Zm-55.29-1.71a3.3,3.3,0,0,0,4.06,1.37,3.39,3.39,0,0,0,.87,1.95c.41.47.85,1,1.3,1.43,1.93,2.16,3.76,4.41,5.76,6.52a3.33,3.33,0,0,0,3.93.67,5.69,5.69,0,0,0,1.81.58v.29c-2,.22-2.3.91-2.7,2.06,0,.07-.21.13-.23.21a77.36,77.36,0,0,0-3.12,11.64,3.89,3.89,0,0,0-3.91,2.39,2.4,2.4,0,0,0-.38-.4,4.21,4.21,0,0,0-.07-.92,92.52,92.52,0,0,0-4.26-14.9,3.58,3.58,0,0,0-.59-1,28.29,28.29,0,0,1-.36-3.43,3.14,3.14,0,0,0-1.53-2.71q-.41-3.35-1.12-6.63Z"/><path class="cls-1" d="M99.34,578.92c-.19-.75-.4-1.49-.61-2.23-1.27-4.62-2.58-9.24-3.94-13.83a5.23,5.23,0,0,0-.62-1.23c0-.2.08-.4.08-.61v-1.91c0-5.14-.15-10.28-.15-15.44a3.08,3.08,0,0,0-1.65-2.78c-.16-2-.36-4-.51-6,0-.08.17-.16.17-.24,0-1,.14-2,.14-3.06v-3.21c2-9.57,2.23-19.27,1.93-29,.1-1.66.51-3.31.58-5,.1-.3.49-.61.49-1v-5A3.39,3.39,0,0,0,93.76,486a66.3,66.3,0,0,0-.73-6.75c-.19-1.94-.57-3.86-.89-5.77-.81-6.22-1.87-12.42-2.67-18.65a3.63,3.63,0,0,0-1.08-2.15c.27-1.33.56-2.66.87-4,.29-.94.59-1.88.88-2.82a3,3,0,0,0,1.29-2.59c0-.43,0-.86,0-1.29.46-1.28.93-2.56,1.37-3.85a3,3,0,0,0-.56-2.88,3.17,3.17,0,0,0,.18-1c0-15.57-1-31.11-1.5-46.67a3.28,3.28,0,0,0-5.82-2,4.14,4.14,0,0,0-1,.45,2.79,2.79,0,0,0-2.1-.74c-3.2.31-6.37.82-9.56,1.17a22.19,22.19,0,0,0-8.89.45h0q-.72-.3-1.44-.66a3.36,3.36,0,0,0-4.05,5.25,17.67,17.67,0,0,1,1.15,1.47,3.2,3.2,0,0,0-.13,1.18,14.85,14.85,0,0,0,.54,3.1,3.64,3.64,0,0,0-.42,2.31c1.9,13.54,7.77,26,11.95,38.89a2.87,2.87,0,0,0-1,2.38c.26,5.06.45,10.34.76,15.69a3.45,3.45,0,0,0-.25,1.37c0,8.2.41,16.4.48,24.61a3.57,3.57,0,0,0-1.37,3.38,117.4,117.4,0,0,0,4,17.87,4,4,0,0,0-.15.82c-.65,8.89,3,17.17,6.24,25.29a3.63,3.63,0,0,0-.1,1.69c.34,1.94.75,3.89,1.17,5.84a128.06,128.06,0,0,1,1.61,17.16,3.53,3.53,0,0,0-1.9,2.71c-.84,6.33-3.38,13.47-.34,19.6a19.81,19.81,0,0,0,.46,2.37,3.28,3.28,0,0,0,1,1.68,3.34,3.34,0,0,0,3,2.19c.66.73,1.33,1.45,2,2.18,1.14,1.23,2,3.12,3.51,4,1.23.72,3,.49,4.31.84A3.39,3.39,0,0,0,99,586.83a24.68,24.68,0,0,0-.45-4.79A3.11,3.11,0,0,0,99.34,578.92Z"/><path class="cls-1" d="M201.22,382.68c-1.6-4.93-5.11-8.95-9.36-12.17a2.77,2.77,0,0,0-1.71-2.37c-10.17-4.94-19.9-10.68-29.73-16.23a4,4,0,0,0-.89-.84,22.12,22.12,0,0,0-5-2.48c-.36-.17-.71-.35-1.06-.53a3.43,3.43,0,0,0-2-.36,59.23,59.23,0,0,0-6.74-1.1,2.8,2.8,0,0,0-3,2,3.61,3.61,0,0,0-1.38,1.17c-6.09,8.65-14.31,15.3-21.56,22.92a3.39,3.39,0,0,0-1,1.94l-2-.5a4.16,4.16,0,0,0-.8-.3c-1.63-.4-3.27-.76-4.9-1.1-3.18-.73-6.49-1.44-9.74-1.9h-.18a3.6,3.6,0,0,0-.75-.13,2.66,2.66,0,0,0-1.07.08c-.07,0-.09-.08-.16-.12a3.22,3.22,0,0,0-4.44,1.14,3,3,0,0,0-1,3.18,7.72,7.72,0,0,0,2.86,7.37c.92,6.14,2.45,12.2,1.13,18.41-.45,2.09-2.73,4.17-3.52,6.3s.1,4.75,1,6.82c1.68,4,7.44.54,5.77-3.38-1.42-3.36,2.27-4.07,2.85-6.46a37.44,37.44,0,0,0,1.12-6.91c0-.41,0-.82,0-1.24a3.28,3.28,0,0,0,1-2.27v-.31a3.43,3.43,0,0,0,1.5-2.7,13.79,13.79,0,0,0,0-1.81c.25-1.75,1-3.65,2.38-4.44l.28,0a3.11,3.11,0,0,0,3,2l3.44.08c3.75.31,7.42,1.24,11.16,1.79l.07,0h0c.3,0,.59.1.89.13a2.84,2.84,0,0,0,1.39-.14c1.74.46,3.48.9,5.23,1.29,3.8,6.22,12.24,7.68,19.28,8,6.4,5.72,17.27,3.94,24.78,2a52.83,52.83,0,0,0,11.73-4.39,3,3,0,0,0,1.33.23c6.82-.37,9.48-4.89,9.28-9.95A2.93,2.93,0,0,0,201.22,382.68Zm-51.46-9.33a5,5,0,0,1-1.67-.88,3.81,3.81,0,0,1,1.51-1.36A6.09,6.09,0,0,0,149.76,373.35Zm19.91,4.52a11.7,11.7,0,0,1-2.44.07,21.8,21.8,0,0,1-3.43-1.09A35.89,35.89,0,0,1,169.67,377.87Z"/><path class="cls-2" d="M118.62,212.55c0-1.06-1.58-2.68-2.06-3.76a9.54,9.54,0,0,1-.31-1.61c.38-1.88,0-3.68,0-5.52v-1.11s-.32,0-.52,0c0-.15-.19-.29-.24-.44a84.35,84.35,0,0,0,1.79-12c0-.18-.49-.08-1.13.13-.13-.58-.26-1.16-.36-1.73.36-.26.57-.51.52-.71s0-.15,0-.22c.35-.25.56-.5.5-.71-.31-1-.53-1.91-.82-2.86a3.44,3.44,0,0,0,0-1.69,43.77,43.77,0,0,0-4-9.58,3.14,3.14,0,0,0-.42-.63l0,0a2.26,2.26,0,0,0-.39-.37s0,0,0,0a2.68,2.68,0,0,0-.18-.91c-3.18-7.8-6.94-14.68-14-19.55a3,3,0,0,0-1.11-.46,17.38,17.38,0,0,0-2.88-1.48c-8-3.17-11.63,7.1-13.66,13.44l-.9.87-.3-.44a.54.54,0,0,0,0-.11c-2.12,2.5-4.06,5.29-6,8a22.13,22.13,0,0,1-4.61,4.49c-.5.34,1.71,4.49,2.09,4.3a30.26,30.26,0,0,0,7.35-5.47c.19-.19,2.81-3.07,3.38-2.86,1.8,5.8,8.78,8,14.14,9.19,3.22.72,8.31,2.06,11.61.92a2.92,2.92,0,0,0,1.74.9c.11.18.21.37.34.56a3.49,3.49,0,0,0,1.63,1.34,3.28,3.28,0,0,0,1.25,1.55.84.84,0,0,0-.34.52,14.83,14.83,0,0,0,.46,3.7c0,.13.17.18.38.17.15.86.33,1.72.54,2.6.06.21.38.21.83.09q-.31,3.27-.85,6.49c-1.2.31-2.92,1-3.18,1.57-.52,1-1,2.09-1.44,3.16l-.57,1c-.64.29-1.14.63-1.23,1-.14.56-.27,1.11-.41,1.67a2.78,2.78,0,0,0-1,.64,32.94,32.94,0,0,1-3.06,3.49c-.39.39.17.34.93.15-.5.8-1,1.61-1.57,2.37,0,.05,0,.1,0,.16.31.3.69.7,1.09,1.17-.93.48-1.69,1-1.55,1.14.86.85,1.72,1.67,2.62,2.45a10.78,10.78,0,0,0,2.46,3.55,1,1,0,0,0,.73.1c.22.38.45.75.7,1.13l-.31.25a.41.41,0,0,0-.2.37c.46.61.92,1.23,1.39,1.84s4.32-1.05,4.38-1.9c0-.34,0-.77,0-1.24,1.33-.15,3.74-1.27,3.64-2-.22-1.64-.46-3.26-.66-4.87C115.91,214.61,118.62,213.27,118.62,212.55Z"/><path class="cls-3" d="M141.54,344.38l-.59,0c.1-.2-.26-.35-.37-.39l-.33-.12c.5-.17.81-.37.7-.53a33.81,33.81,0,0,0-9.81-9.4,5.69,5.69,0,0,0-2.66-.07,124.83,124.83,0,0,0-14-16.09l-.11-.08c-.47-2.19-1-4.38-1.54-6.56-.28-1.46-.59-2.92-.94-4.36-.4-2.95-.69-5.91-.8-8.9.52-3.89,1.06-7.78,1.74-11.65.64-3.62,2-6.95,2.82-10.45a19.37,19.37,0,0,0,.43-3.2,1.5,1.5,0,0,0,.49-1.68h0c.71-.32,1.14-1.16.79-2.42a25.78,25.78,0,0,0-3.46-7.18c-.22-.54-.46-1.07-.7-1.59a1.82,1.82,0,0,0-.15-.27A57.51,57.51,0,0,0,108,248.74a40.52,40.52,0,0,0-2.89-6.78v-.13a2.5,2.5,0,0,0-1.21-1.86l-.14-.22c-1.08-1.56-4.1-1.68-3.61.86a20.75,20.75,0,0,0,.79,3c-.21,3-.62,6-1,9.05,0,.08-.1.14-.15.23a34.28,34.28,0,0,0-1.52,3.54,1.36,1.36,0,0,0-1,.64A67.14,67.14,0,0,0,93,264.6a18.09,18.09,0,0,1-5.23,3.21c-.45-.74-.88-1.47-1.29-2.14l-.38-.66c-.14-.28-.28-.57-.43-.85q-1.77-4.23-3.85-8.33c-.15-.58-.32-1.15-.5-1.73q-1.08-4.35-2.23-8.7a2.64,2.64,0,0,0-.1-.3c.2-.73.41-1.45.6-2.19.56-2.16-2.8-5.22-3.82-2.47s-2.11,5.26-3.24,7.85a1.83,1.83,0,0,0-.91.93c-3,5.88-5.86,11.59-6.73,17.55-.94-.06-1.75.57-1.7,2,.24,6.85,2.82,13.17,4.38,19.76a42.35,42.35,0,0,0,1.42,6.69c-.9,6.34-1.78,12.68-2.33,19C63.31,325,60.33,336.12,61,347.37c0,.13.12.22.3.29-.22,1.52-.46,3-.68,4.56l0,0c-3.62,7.13-2.91,15.39-2.52,23.27l0,.71c0,.72.07,1.43.09,2.14a6,6,0,0,0-.39,1.48c-.71.06-1.29.26-1.44.61a11.73,11.73,0,0,0-.93,3.23c-.06.44.85.72,1.12.78l1.21.27c3.19,3.07,11.08,2.33,17.28,1.57a42.53,42.53,0,0,0,5.22-.62,14.29,14.29,0,0,1,2-.08c1.37.07,2.59-.48,2.15-1,.65-.21,1.28-.44,1.89-.7.23,0,.69-.06.92-.09,1,0,2.11-.2,2.11-.65v-.46s-.24,0-.24,0,0,0,0-.06c.42-.25.21-.51-.23-.74,0-.2,0-.4,0-.59l0-.1c0-.21.08-.41.12-.62.64-.08,1.15-.28,1.27-.62,1.4-3.85,1.57-7.88,2.73-11.62H93c1.39,0,1.71-.88,1.44-1.82a2.41,2.41,0,0,0,.76-.39c.42-.45.8-.91,1.17-1.38h0a30,30,0,0,1,5.73,1.22,21.43,21.43,0,0,0,5.86,1.79,31.28,31.28,0,0,0,4.52.95,16,16,0,0,0,4-.07c1.19.34,2.39.67,3.59,1.05.73.23,2.25.26,2.27-.86a2.64,2.64,0,0,1,.2-1.08,12.32,12.32,0,0,0,2.88-1.44c.37-.25,0-.39-.71-.43.58-.33,1.15-.67,1.71-1.05a3.11,3.11,0,0,0,1.52-.56q1.77-1.81,3.39-3.75a53.68,53.68,0,0,0,4.78-6.17c.79-1,1.53-2,2.23-3.06a11.42,11.42,0,0,0,.9-1.75c.89-1.4,1.76-2.77,2.64-4.08a1.79,1.79,0,0,1,.28-.2C143.37,344.72,142.36,344.38,141.54,344.38ZM79,269.23c-.11-.45-.23-.9-.33-1.35l-.09-.77c.21.67.43,1.33.65,2ZM81,380l-.65-.09v-.09c.14-.21.28-.42.41-.64.09.25.18.5.26.74A.19.19,0,0,1,81,380Zm2-45.64c0-2.85-.16-5.71-.2-8.57.16,2.83.38,5.66.57,8.49Zm7.4-57.64a3.26,3.26,0,0,0-.38-.18c0-.21-.08-.42-.13-.63l.61.41Zm7.35,64.6c.18.57.37,1.12.55,1.68-.13.27-.26.53-.38.8h0c-.06-.84-.1-1.68-.18-2.5Zm.71,22a9.59,9.59,0,0,0-1.36.38c.17-.24.33-.49.49-.74l1.62.06c.25.06.5.09.75.13Zm22.12-24.59c.28.42.52.86.77,1.29a37.09,37.09,0,0,1-3.44-4.92,3.9,3.9,0,0,0-.19-.35C118.75,336.07,119.71,337.4,120.6,338.76Zm-5.15,13c.44.62.92,1.22,1.4,1.8,0,.29-.11.59-.17.88l-.14.09c-.42-.82-.81-1.68-1.16-2.56Zm-2.55,5.39c.19.31.39.62.6.92a10.86,10.86,0,0,0-1.22-.4A5.89,5.89,0,0,1,112.9,357.11Z"/><path class="cls-4" d="M88.71,55.93c-2.19,1.47-1.92,4.41-2.1,6.79-.36,4.88-4.1,9-6.32,13.13-2,3.67-1.5,8.37-1,12.31.85,6.26-.78,12.36-2.7,18.27-3.45,10.65-8.44,20.87-11,31.78-2.5,10.69-1.21,21.68-4.49,32.32-3.62,11.78-6.33,22.67-7,35.06a194.68,194.68,0,0,0,1.18,34.56c1.57,12.65,4.5,25.28,7.41,37.68,2.55,10.87,7.34,22.83,3.27,33.89-.26.69,1.69.45,1.94-.23,3.42-9.29.55-19.27-1.86-28.46C63,271.16,60.5,259,58.36,247c-4.12-23.18-4.47-49.12,3-71.67,3.37-10.22,4.58-19.71,5.27-30.42.72-11.21,5.93-21.83,9.71-32.25A111.29,111.29,0,0,0,80.86,97.8c1.16-5.44,0-10.28,0-15.7,0-5.74,3.86-9.95,6.29-14.79a14.52,14.52,0,0,0,1.44-4.82c.19-1.6-.22-4.86,1.38-5.93,1.09-.73-.57-1.06-1.22-.63Z"/><path class="cls-4" d="M91.07,60.51c-3.87-.12-2.72,7.11-2.84,9.4-.29,6-.3,12-1,18-.26,2-.49,6-2.22,7.36a40.41,40.41,0,0,0-3.31,3c-.51.5,1.39.34,1.77,0,2.11-2.09,3.86-2.51,4.64-5.27a57.2,57.2,0,0,0,1.66-12.43c.09-1.45,1-19,.55-19.06.63,0,2.09-.91.79-1Z"/><path class="cls-4" d="M85.74,97.64c-2,2.07-1.77,6-1.8,8.66-.06,4.92.46,9.85.83,14.76,1,14-1,28.72-7.92,41-.13.25,1.64.14,1.91-.34,6.58-11.67,8.61-25.37,8.1-38.65-.16-4.22-.64-8.43-.86-12.66-.19-3.46-1.2-10.19,1.48-12.94.4-.41-1.42-.18-1.74.15Z"/><path class="cls-4" d="M90.39,57.86a63.76,63.76,0,0,1,2.55,11.57c.54,4.38,3.38,7.62,4.61,12,2.47,8.76,2.77,17.89,5.43,26.69,3.08,10.13,7,20,9,30.4,1.65,8.56-.72,18.23,2.77,26.36.39.9,2.31.36,1.93-.52-3.43-8-1.35-17.84-2.76-26.36-1.73-10.42-5.87-20.37-9-30.4-2.77-8.8-3.3-17.79-5.44-26.69a29.78,29.78,0,0,0-2-5.58c-.75-1.63-2.31-3.19-2.46-5a58.45,58.45,0,0,0-2.67-13c-.3-.93-2.23-.41-1.93.52Z"/><path class="cls-4" d="M89.71,85.49c-.47,4.59,2,9.9,6.3,11.88.6.27,2.36-.58,1.53-1-4-1.84-6.33-6.86-5.9-11.14.09-.82-1.86-.46-1.93.23Z"/><path class="cls-4" d="M95.13,97c0,19.41,2.86,38,6.09,57,.12.67,2.06.2,1.94-.51-3.22-19-6.1-37.45-6.1-56.76,0-.82-1.93-.4-1.93.24Z"/><path class="cls-4" d="M114.77,164.88c11.74,24.08,11.32,50.84,7.35,76.76-1.91,12.43-4.68,24.71-7.33,37-1.43,6.61-2.82,13-3,19.77s.94,13.6,2.29,20.24c.17.83,2.11.33,1.93-.52a96.34,96.34,0,0,1-2.23-21.68c.17-6.69,1.89-13.13,3.3-19.63,2.79-12.87,5.57-25.74,7.49-38.77,3.66-24.86,3.33-50.68-7.88-73.68-.38-.79-2.28-.2-1.93.52Z"/><path class="cls-4" d="M71.42,207.55c.93,6.3,2.13,13.8,6.1,19,.31.4,1.54-.08,1.83-.34a10.94,10.94,0,0,0,2.7-4.85c.51-1.51.74-4.24,2-5.32.39-.32-1.39-.11-1.74.18-2.79,2.3-1.86,7.54-4.74,10.16l1.84-.35c-4-5.17-5.16-12.67-6.1-19,0-.36-2,.05-1.93.51Z"/><path class="cls-4" d="M95.89,215.85c1.24,2,1.28,4.72,2.29,6.88s3.22,2.24,4.82.42c.8-.92-1-1.2-1.62-.55s-.52.75-1,0a9.4,9.4,0,0,1-1-2.61c-.49-1.64-.73-3.52-1.64-5-.46-.73-2.3,0-1.77.85Z"/><path class="cls-4" d="M74.14,164.57a21.38,21.38,0,0,0-2.22,4.37c-1,2.28-3.31,4.26-4.75,6.31a15.67,15.67,0,0,0-2.31,12.26c.18.79,1.91.37,1.94-.34.41-9.47,12.24-10.5,13-19.63.08-.95-1.88-.64-2,.17-.44,5.52-5,7.4-8.65,10.67a11.76,11.76,0,0,0-4.32,9l1.94-.34c-1.09-5,.49-9.64,3.69-13.52,2.22-2.68,3.24-5.69,5.26-8.41.72-1-1.11-1.15-1.6-.5Z"/><path class="cls-4" d="M69.07,179.67c-1.14,7.53.49,15.48,3.56,22.37,2.6,5.82,8.52,13.07,15,14.53,5.15,1.16,10.63-3.75,13.75-7.08a30.25,30.25,0,0,0,6.41-9.32c1.81-4.43,2.14-9.47,3.22-14.1.15-.67-1.79-.36-1.93.26-1.58,6.77-2,13.72-6.24,19.5a41.43,41.43,0,0,1-6.13,6.36c-2.66,2.34-6.16,4.31-10.08,2.66A17.18,17.18,0,0,1,82,211.3a37.08,37.08,0,0,1-11-31.89c.11-.71-1.83-.36-1.93.26Z"/><path class="cls-4" d="M68.36,188.49h-.7a1.18,1.18,0,0,0-1.06.87c-.63,2.49.61,5.8,1.43,8.1.67,1.88,1.8,5,4.13,5.22,1,.11,2-1.29.66-1.43-1.9-.21-2.94-4.41-3.39-5.85-.55-1.79-1.35-4-.87-5.91-.35.27-.71,0-1.06,1h.7c1.12,0,1.47-2,.16-2Z"/><path class="cls-4" d="M108.51,188.36c2.5.87,2.48,4.43,2.11,6.55a6,6,0,0,1-1.32,2.93c-.62.71-1.16.48-1.67,1.49-.19.39,1.65.22,1.92-.31l.35-.7-1.12.57c4.47-.87,5.86-9.76,1.3-11.34-.49-.17-2.24.58-1.57.81Z"/><path class="cls-4" d="M84.46,189.59c-1.31,1-10.57,2.32-9.94-.3.24-1-1.75-.75-2,.13-1.14,4.73,11.25,2.54,13.19,1.11,1.06-.78-.5-1.53-1.29-.94Z"/><path class="cls-4" d="M93.69,190.15c2,3.77,8,.72,11,.31,1.1-.15,1.46-1.68.15-1.5-2.36.32-7.88,3-9.36.31-.44-.81-2.26-.06-1.76.88Z"/><path class="cls-4" d="M93.9,185.54a32.46,32.46,0,0,0,4.42-2.29c2.15-1.22,4.15-.18,6.39,0,.73,0,2.06-1,.75-1.08-1.9-.15-3.82-1.16-5.76-.64-2.35.63-4.3,2.37-6.56,3.24-1.26.49-.11,1.11.76.78Z"/><path class="cls-4" d="M86.61,183.74c-3.37-.32-6.07-2.61-9.65-2-1.19.2-4,.46-4.65,1.66,0,0,0,.05,0,.08.11.18.12.16.34.25a2.65,2.65,0,0,0,1.82-.64c-.38-.15,1.38-.56,1.29-.54a8.67,8.67,0,0,1,3.44.08c2,.35,3.74,1.64,5.83,1.84.44,0,2.06-.68,1.6-.72Z"/><path class="cls-4" d="M86.23,200.49h.7c.46,0,1,.26,1.37,0s.26,0-.11,0h-.7c-.46,0-1-.26-1.37,0s-.26,0,.11,0Z"/><path class="cls-4" d="M90.35,200.49h1.06c.44,0,1,0,1.26-.45s-.19-.55-.54-.55h-1c-.45,0-1,0-1.27.45s.19.55.54.55Z"/><path class="cls-4" d="M84.73,206.37a15.3,15.3,0,0,0,4-2.38l-1.5.46c.16,0,.12.05.58.25a17.26,17.26,0,0,0,1.76.58,19.36,19.36,0,0,0,4.32.93c.38,0,2.2-.7,1.26-.75a16.51,16.51,0,0,1-5.89-1.57c-1.8-.92-3.73,1.61-5.23,2.1-1.32.43-.06.62.65.38Z"/><path class="cls-4" d="M84.73,207.07c3.43,0,7,0,10.09-1.66,1.15-.6-.58-.88-1.2-.56-2.44,1.28-5.46,1.14-8.14,1.14-.71,0-2.06,1.08-.75,1.08Z"/><path class="cls-4" d="M83.86,206.57c3.57,2.66,6.84,2,10.75.39,1.25-.51.11-1.21-.78-.85-3,1.25-5.39,1.77-8.18-.31-.57-.43-2.35.35-1.79.77Z"/><path class="cls-4" d="M78.54,169.18c-.81,4.18,3.19,7.55,6.55,9,6.43,2.86,13.83.33,19.79,4.48.5.34,2.21-.43,1.81-.7-4-2.8-7.8-2.71-12.51-3.1-5-.42-15.12-2.77-13.72-10,.11-.59-1.81-.25-1.92.3Z"/><path class="cls-4" d="M84.14,166.48c2,3.67,4.76,6.47,8.93,7.33,3.71.76,9.36.54,10.7,4.94.15.48,2.07-.07,1.93-.52-1-3.1-4-3.93-6.87-4.5-1.88-.38-3.78-.56-5.63-1-3.28-.82-5.61-4-7.13-6.73-.27-.51-2.11.19-1.93.51Z"/><path class="cls-4" d="M105.36,180.41l-.14.15c-.23.15-.5.43-.29.71l.31.42c.43.56,1.66,0,1.87-.5a15.81,15.81,0,0,0,.7-2.11l-1.73.6c2.24,1.26,3.06,3.85,2.94,6.28,0,.85,1.9.48,1.94-.22.65-9.66-1.28-17.38-9-23.71-3.52-2.88-8.2-3.86-12.63-3.75-4.63.11-8.37,2.9-12.78,3.91-1.18.28-.88,1.32.29,1.05,3.28-.75,6.16-2.42,9.36-3.45,5.9-1.88,12.13,1.25,16.36,5.08,6.11,5.53,7,13.32,6.46,21.09l1.94-.22c.13-2.8-.82-5.61-3.36-7a1.36,1.36,0,0,0-1.73.59,14.49,14.49,0,0,1-.7,2.11l1.86-.5c-.17-.23-.67.53-.11-.13.76-.88-1.11-.9-1.56-.37Z"/><path class="cls-4" d="M82.89,158.4c2.47-.08,4.61-1.34,7-1.75,1-.16,1.56-1.41.23-1.18-2.38.4-4.58,1.67-7,1.75-1,0-1.56,1.23-.23,1.18Z"/><path class="cls-4" d="M83.79,149c4.53-1.32,8.67-2.49,13,.37,2.42,1.6,4.33,4,6.15,6.24,2,2.43,4.25,4.91,5.5,7.83.93,2.18.75,4.92.91,7.24,0,.38,2,0,1.93-.52-.22-3.36-.27-6.39-2-9.38-1.92-3.35-5-6.49-7.56-9.31-5.52-6-11-5.17-18.15-3.1-1.12.33-1,1,.17.63Z"/><path class="cls-4" d="M110.5,168.37c2.16,3.57,4.26,6.22,5.13,10.47a76.4,76.4,0,0,1,1.1,15.18c0,3.56-1.32,7.12-1,10.67.33,4.26,2.47,8,2.8,12.27l1.86-.66c-2.53-2.11-5.11-4.22-5.89-7.57-.17-.76-2.11-.26-1.93.52.8,3.45,3.4,5.65,6,7.84.51.43,1.92.17,1.85-.65-.37-4.83-2.94-8.92-2.72-13.87.21-4.73,1-9.24.92-14a66.57,66.57,0,0,0-1.38-11.77c-.79-3.88-3-6-4.95-9.19-.38-.62-2.25,0-1.79.79Z"/><path class="cls-4" d="M109.88,203.07c-1.67,1.8.78,5.81,1.52,7.52,1.13,2.59,6.78,13,.2,11.39-.47-.11-1.58,0-1.54.74.14,2.16,1.09,3.44,2.21,5.28l1.43-1.11c-6.11-3.1-12.67-9.43-12.89-16.57,0-1-2-.77-2,.13.24,7.79,7.08,14.4,13.75,17.79.61.31,1.89-.34,1.43-1.11a14,14,0,0,1-2-4.54l-1.54.74c14.76,3.72-1.83-16.58,1-19.64.84-.9-1-1.28-1.63-.62Z"/><path class="cls-4" d="M105.79,205.21c-1.77.68-1.09,3-.8,4.4a32.62,32.62,0,0,0,2.28,7.35c.26.53,2.13-.12,1.94-.52a32.46,32.46,0,0,1-1.73-5.09,29.71,29.71,0,0,1-.79-3.51,10.71,10.71,0,0,1-.11-1.39c0-.46.36-.87-.09-.7,1.28-.48.07-.83-.7-.54Z"/><path class="cls-4" d="M77.12,225.18a46.94,46.94,0,0,1-6.57,23.4c-3.57,6.31-6.91,12.6-8.51,19.71-.21,1,1.77.74,2-.14,1.82-8.08,6-15.06,10-22.2,3.64-6.48,5-13.54,5.06-20.91,0-1-2-.75-2,.14Z"/><path class="cls-4" d="M77.48,226.77c0,3.87-.09,7.73.21,11.59.34,4.43,2,8.72,3.32,12.93,1.63,5.17,3.23,13.12,8.1,16.24.53.34,2.23-.44,1.81-.71-5-3.23-6.79-12.26-8.48-17.65-2.46-7.8-3.07-14.77-3-22.92,0-.48-1.93-.15-1.93.52Z"/><path class="cls-4" d="M92.2,266.3c10.32-11.92,10.35-27.45,10.35-42.35,0-.85-1.94-.44-1.94.22,0,14.56.16,30.07-10,41.77-.76.88,1.11.87,1.56.36Z"/><path class="cls-4" d="M100.6,225.89c.19,7.6,2.6,14.34,6.08,21,2.1,4,4.68,7.74,6.58,11.88,1.33,2.93,3.49,6.17,2.77,9.52-.21.94,1.77.7,2-.15,1.13-5.26-3.8-12.27-6.34-16.62-4.77-8.16-8.84-16.13-9.08-25.79,0-1-2-.71-2,.15Z"/><path class="cls-4" d="M94,277.07c-.81,3.6,21.16,5.36,23-2.62.21-.91-1.77-.65-2,.17-1.42,6.2-19.45,3.92-19.08,2.29.2-.92-1.77-.66-2,.16Z"/><path class="cls-4" d="M64,277.91c1.14-.16,2.67.89,3.73,1.26a20.56,20.56,0,0,0,5.21,1,21,21,0,0,0,11.56-2.42c1.17-.62.09-1.33-.79-.87a18.73,18.73,0,0,1-14,1.45c-1.65-.5-3.65-1.84-5.44-1.59-1,.14-1.58,1.34-.25,1.15Z"/><path class="cls-4" d="M80,307.88c4.22,6.64,16.22,2.87,21.48-.41.53-.32.41-1-.25-.94a27.38,27.38,0,0,0-10.57,1.89c-.42.18-.94.9-.18,1,4.69.85,8.82-2,12.89-4,1.23-.58.11-1.28-.8-.92l-5.25,2.1c-.39.16-.84.63-.36,1a4.53,4.53,0,0,0,2.85.81c.8,0,2-1.18.72-1.21l-2.06-.6-.36,1,5.26-2.1c-.26-.31-.53-.62-.8-.92-3.21,1.52-7.19,4.42-10.94,3.74l-.18,1a23.55,23.55,0,0,1,9.06-1.61c-.09-.31-.17-.63-.25-.94-4.63,2.88-14.84,6-18.48.3-.39-.61-2.25,0-1.78.79Z"/><path class="cls-4" d="M101.51,322.24c5.1-.17,9.75-1.9,14.3-4.11l-1.43-.06c-2.73,2.85-6.25,4.67-9.12,7.36-.14.14-.09.25.08.3a5.22,5.22,0,0,0,3,.21c.23-.05,2.63-.45,2.63-.45a16.32,16.32,0,0,1-2.18,2.06c-3.15,2.67-6.82,4.44-9.47,7.69-.39.48,1.46.22,1.75-.14,3.46-4.24,8.81-6.27,12.27-10.51.26-.32-.23-.35-.46-.32a15.49,15.49,0,0,0-2.6.5,2,2,0,0,1-2.47-.22,26,26,0,0,1,2.36-1.82,40.58,40.58,0,0,0,6-4.8c.48-.51-1.26-.15-1.44-.06-3.93,1.92-7.9,3.44-12.34,3.59-.51,0-2.12.83-.84.78Z"/><path class="cls-4" d="M66,311.76c-3,11.76-5,23.65-6.9,35.62q-1.47,9.5-2.18,19.07c-.47,6.16-1.88,12.64-.48,18.75.11.5,2,0,1.93-.51-1.17-5.13-.18-10.2.23-15.36.61-7.46,1.31-14.86,2.42-22.26,1.79-12,3.94-23.87,6.89-35.62.13-.51-1.78-.22-1.91.31Z"/><path class="cls-4" d="M57.21,386c1.16,1.68,6,1,7.66.93,3.72-.11,7.42,0,11.14,0,4.74,0,10.63-.2,14.19-3.77.51-.51-1.39-.34-1.78,0C84.84,386.79,77.74,386,73.09,386c-2.8-.06-12.65,1.39-14.07-.66-.32-.46-2.19.15-1.81.71Z"/><path class="cls-4" d="M59.48,385.49H71.75c.45,0,2.06-.9,1-1-3.6-.42-7.1-1.34-10.73-1.43-.67,0-2.09.92-.77,1a48.14,48.14,0,0,0,11.81-.37c.88-.15,1.62-1.22.28-1A45.63,45.63,0,0,1,62,383c-.26.34-.52.68-.77,1,3.48.09,6.85,1,10.3,1.41.33-.34.66-1,1-1H60.26c-.68,0-2.08,1-.78,1Z"/><path class="cls-4" d="M71,374.63c4.54,2.41,11.2,4.8,16.35,3.26.47-.14,1.18-.75.57-1.21-3-2.2-6.58-2.24-10.13-2.25,0,.47-.11.93-.17,1.4a34.61,34.61,0,0,0,8.32-.74c1.2-.3.85-1.61-.35-1.31a32.35,32.35,0,0,1-7.8.65c-1.1,0-1.48,1.4-.17,1.4,3.09,0,6.22,0,8.8,2l.57-1.21c-4.46,1.33-10.54-1-14.5-3.05-.73-.4-2.43.6-1.49,1.1Z"/><path class="cls-4" d="M110.53,363.54a28.25,28.25,0,0,0,6.38-10.64c.19-.59-1.62-.16-1.84.18-2.73,4.06-2.9,9-4.63,13.43-.26.65,1.63,0,1.84-.17,2.06-1.9,3.16-4.64,5.65-6.08l-1.54.06a5.6,5.6,0,0,1-.35,4.44c-.2.47,1.68.26,1.92-.29a5.82,5.82,0,0,0,.36-4.67c-.17-.48-1.27-.1-1.54.06-2.77,1.6-4,4.43-6.27,6.54l1.84-.18c1.69-4.35,1.83-9.24,4.49-13.2l-1.85.17a27.37,27.37,0,0,1-6.23,10.4c-.49.51,1.4.33,1.77,0Z"/><path class="cls-4" d="M90.55,376.29c-.74-6.82,4.07-9.86,10.24-10.21,4.09-.23,8.58,1.5,12.09,3.48,1.44.81,3.3,1.89,5,1.88,4.92-.05,8.36-3.79,11.56-7.17a121.17,121.17,0,0,0,14.63-18.62c.66-1-1.13-1.43-1.63-.63-4.25,6.76-9.36,12.66-14.64,18.62a39.11,39.11,0,0,1-4.6,4.31c-4.9,4-8.15.47-12.08-1.11a28,28,0,0,0-9.25-2.26c-7.7-.39-14.17,4.13-13.29,12.23.11.94,2,.45,1.93-.52Z"/><path class="cls-4" d="M115.76,318.39c3.88,6.93,10.28,12.82,16.32,17.85a49.43,49.43,0,0,0,5.45,4.1c.64.4,6.75,4.77,5.72,5.26-1.21.57-.11,1.3.79.88,4.17-2-3.37-6.1-5-7.13-8.12-5.15-16.78-13.3-21.5-21.74-.34-.6-2.21,0-1.79.78Z"/><path class="cls-4" d="M145.66,346.75c3.92-.07,8.53,2.48,12.09,3.94,3.86,1.58,7.5,3.54,11.19,5.45,6.05,3.12,12,5.8,17.51,9.88,5.17,3.84,10.37,7.57,13.81,13.14,3.23,5.22,1.34,15-6.06,14.88-1.11,0-1.47,1.41-.17,1.44,5.05.11,8.08-3.2,9.34-7.86,1.79-6.59-2.7-12.05-7.2-16.27-6.69-6.28-14.65-11-22.87-14.93-4.84-2.32-9.49-4.94-14.43-7.05-4-1.72-8.57-4.13-13-4.05-1.11,0-1.48,1.46-.17,1.43Z"/><path class="cls-4" d="M193.49,394.37c-2.64.39-5,1.51-7.5,2.37a70.25,70.25,0,0,1-12.28,2.44c-8.62,1.23-17.28-.71-25.4-3.46-13.17-4.45-24.62-11.43-38.94-11.16.25.35.49.7.74,1l.7-.7c.86-.86-1-1.25-1.63-.61-.24.23-.47.46-.7.7-.56.56.22,1.05.74,1,16.14-.29,29.57,9,44.72,13.09a54.86,54.86,0,0,0,17.81,1.72,84.13,84.13,0,0,0,9.33-1.45c4.19-.76,8.11-2.92,12.26-3.54,1.08-.16,1.46-1.67.15-1.48Z"/><path class="cls-4" d="M187.38,385.43c-3,1.44-9.53.86-12.81.91-5.18.09-9.65-1.36-14.28-3.48a71.82,71.82,0,0,0-21.55-5.77,212.67,212.67,0,0,1-26.94-5.17c-4.5-1.17-10.89-4.26-15.73-3.21-3.42.75-5.31,3.64-4.79,7.23,1,6.93,5.87,11.89,4.63,19.23-1.49,8.86-7.22,18.92,4.06,23.38.51.2,1.48-.1,1.54-.73.22-2.35-.82-4.14-1.59-6.32-1.33-3.79,3.39-6.08,4.69-8.92,2.42-5.29,1.6-10.86,3.21-16.31.27-.91-1.71-.69-2,.15-1.85,6.27-.21,12.57-4.72,18-1.1,1.32-2.91,3-3.16,4.85-.44,3.17,1.86,5.52,1.57,8.66l1.54-.73C89.6,412.7,97.66,400.57,98.24,392c.32-4.92-2.92-9.37-4.48-13.83s.89-8.7,6.15-7.8c3.63.62,7.21,1.95,10.77,2.9,14.51,3.87,29.91,4.19,44.08,9,6.13,2.09,10.92,5,17.55,5.46,3.47.22,6.91-.38,10.36-.29a11.38,11.38,0,0,0,5.57-.86c1.19-.58.12-1.62-.86-1.14Z"/><path class="cls-4" d="M117.45,373.51a67.26,67.26,0,0,1,7.89,2.06c.54.16,2.28-.67,1.55-.88a70.58,70.58,0,0,0-8.23-2.15c-.55-.08-2.27.8-1.21,1Z"/><path class="cls-4" d="M88.35,378.19a188.89,188.89,0,0,1,4.1,39.94c-.08,6.36,1,12.6.37,19-.63,6-4.2,11.12-6.23,16.67-.24.68,1.7.43,1.94-.23,2.07-5.68,5.22-10.63,6.22-16.67.94-5.64-.1-11.58-.35-17.24-.29-6.77.3-13.33-.45-20.11-.82-7.33-2.23-14.6-3.67-21.83-.14-.7-2.08-.22-1.93.51Z"/><path class="cls-4" d="M56.46,387.22c-.69,3.11.72,6.74,1.28,9.81A151.12,151.12,0,0,0,62,412.68c1.64,5.49,3.08,11,4.53,16.58,1.16,4.42,3,8.85,3.29,13.43,0,.35,2,0,1.93-.52-.25-4-1.87-7.68-2.8-11.57-1.19-5-2.59-9.88-4-14.8-1.32-4.73-2.89-9.4-4.12-14.16-.59-2.25-1-4.54-1.45-6.83-.46-2.51-1.56-5.38-1-7.93.1-.43-1.8-.14-1.91.34Z"/><path class="cls-4" d="M69.48,444.14a6,6,0,0,0-.46,3.37c.21,3.62.4,7.2.4,10.84,0,7-.07,14-.06,21.08A150.4,150.4,0,0,0,75,518.58c3.67,13.52,8.81,26.6,7.38,40.87a153,153,0,0,1-2.94,15.91c-.6,2.91-.76,6.5,2.43,7.77.63.25,2.38-.65,1.53-1-4-1.59-2-7.36-1.2-10.48a80.54,80.54,0,0,0,2.45-17.87c.26-11.63-4-22.94-7.21-33.93a147.91,147.91,0,0,1-6.19-38.72c-.11-6.4,0-12.81,0-19.22v-9.34c0-2.39-1-6.24,0-8.35.44-.89-1.45-.72-1.76-.09Z"/><path class="cls-4" d="M82.73,583.79c0,.67.43.91,1.06,1.15a6.32,6.32,0,0,1,3.89,3.35,3.45,3.45,0,0,0,3,1.61c1.6.15,2.49-2,3.6.17.9,1.73,3.54.7,4.52-.34,1.85-2,1-5.85.92-8.25,0-.9-2-.51-1.94.21a41.64,41.64,0,0,1,0,5.91c-.19,1.55-1.42,2.21-2.22.73-.4-.72-1.06-.7-1.76-.76-1.93-.18-3.17,2.06-4.66-.56a5.81,5.81,0,0,0-1.56-2.07c-.39-.28-2.94-1.11-2.94-1.36,0-.89-2-.51-2,.21Z"/><path class="cls-4" d="M89.05,451.45c1,4.86,1.21,9.87,2.06,14.77,1,5.44,1.92,10.88,2.65,16.36,1.62,12.18,0,23.73-1.4,35.8-1.3,10.89-.53,21.65,1,32.47.73,5.26.85,10.64,1.88,15.84.57,2.86,2,5.48,2.94,8.21.81,2.34.18,4.89.71,7.29.18.83,2.12.33,1.93-.52a41.9,41.9,0,0,1-.35-5.6c-.21-2.78-1.9-5.47-2.8-8.06-1.75-5-1.28-10.6-2.1-15.78a131.69,131.69,0,0,1-.79-37.61c1.32-10.36,2.27-20.31,1.16-30.74-.59-5.49-1.59-10.94-2.55-16.38S92.12,456.38,91,450.93c-.17-.83-2.11-.33-1.93.52Z"/><path class="cls-4" d="M80.63,233.49h-.11c-1.12,0-1.47,1.63-.16,1.63a18.52,18.52,0,0,1,3.41.25c1.39.27,2.08,2.11,2.91,3.1.58.69,2.41-.07,1.76-.84-1.09-1.32-1.75-3-3.5-3.5a15.56,15.56,0,0,0-4.42-.2c-1.12,0-1.47,1.56-.16,1.56h.11c1.12,0,1.47-2,.16-2Z"/><path class="cls-4" d="M93.36,237.32a1.43,1.43,0,0,1-.27-1.09l-.56.59c2.17-1,4.48-1.75,6.66-2.8,1.19-.58.11-1.45-.82-1-2.17,1.05-4.49,1.75-6.66,2.8-.2.1-.57.32-.57.59a2.5,2.5,0,0,0,.44,1.71c.49.62,2.34-.1,1.78-.81Z"/></svg>