<svg id="layer1" xmlns="http://www.w3.org/2000/svg" viewBox="0 0 159.83 109.84"><defs><style>.cls-1{fill:#ffc0d4;}.cls-2{fill:#492d0c;}</style></defs><path class="cls-1" d="M139,71c-.3-2-.29-4.08-.59-6.11a4.53,4.53,0,0,0-2.18-3.41,4.91,4.91,0,0,0-3-4.72,52,52,0,0,0-5.41-2.42,6,6,0,0,0-1.53-1.12,11.43,11.43,0,0,0-3.15-1,5,5,0,0,0,2.24-.91c1.66-1.21,3.46-2.2,5.11-3.4a4.34,4.34,0,0,0,1.77-4.31,20.22,20.22,0,0,0,5.9-3.46c4.35-3.76.23-10-5-8.33a36,36,0,0,0-7.38,3.57,26.79,26.79,0,0,1-3.23.5,7.87,7.87,0,0,0,.56-4.18c0-.21-.06-.41-.1-.61.94-3.3-1.24-6.75-5.2-6.38-.74.08-1.47.17-2.2.28a18.54,18.54,0,0,0-7.32,1.24c1-2.35,2.27-4.63,3.48-6.93,2-3.74-2.8-8.28-6.47-6.35-4.21,2.22-7.86,5.27-11.9,7.73a25,25,0,0,0-4.72-4.19s0-.08,0-.12A69.35,69.35,0,0,1,86.92,9,5.07,5.07,0,0,0,85.35,6.1C85.08,1.21,77.89-1,76,4.23a53.62,53.62,0,0,1-5.47,10.82,22.73,22.73,0,0,1-4.18,5.05l-.21.16a4.17,4.17,0,0,0-.36-.37,30.26,30.26,0,0,0-1.39-6.21C62.63,8.35,54,11,54.86,16.3a36.93,36.93,0,0,1,.88,5.48v.13c0-.36-.64-.75-1-1.15a57.59,57.59,0,0,1-5.17-6.29c-.66-.88-1.25-1.79-1.87-2.7-.26-.38-.48-.77-.73-1.16l-.11-.18a2.41,2.41,0,0,0-.14-.27C43.59,4.57,36,8,37.71,14c1,3.47,2,7,2.75,10.64A118.28,118.28,0,0,1,23,20.41a4.91,4.91,0,0,0-4.8,8.43A141.21,141.21,0,0,0,29.64,37.9c-.3.19-.6.38-.9.6-3.13,2.26-2,6.86,1.18,8.36a19.74,19.74,0,0,1,2.49,1.42,4.45,4.45,0,0,0,1,1.78c.41.46.83.92,1.23,1.38a26.21,26.21,0,0,0-14.09,2c-4.07,1.89-3.6,7.07.08,9a41,41,0,0,0,18.14,4.39c-1.42,4.2-2.59,8.56-5,11.48-3,3.7.67,7.81,4.59,7.79A51.76,51.76,0,0,0,52,84c3-.52,5.9-1.15,8.8-1.89l1-.24a4.91,4.91,0,0,0,3.06,1.68l.66.08a4.94,4.94,0,0,0,5.08-2.81,3.72,3.72,0,0,0,1.27.23,15.18,15.18,0,0,0,6.41-1.39c1,.6,2,1.17,3,1.7a4.79,4.79,0,0,0,4.56-.43c.62.64,1.23,1.29,1.8,2,3.74,4.47,9.94.17,8.33-5a13.61,13.61,0,0,1-.7-4,9,9,0,0,0,2.13-.1,29.69,29.69,0,0,0,2.77,2.61,3.88,3.88,0,0,0,1.32.73,8.77,8.77,0,0,0,1.28,2.26,5,5,0,0,0,7.75-.09l.05-.07a4.77,4.77,0,0,0,1-2.37,5,5,0,0,0,.83-1,5.2,5.2,0,0,0,3.2-4.54l.14,0a11.08,11.08,0,0,0,1.39,1.35c2.77,5.16,11,6.53,16.73,5.74a4.68,4.68,0,0,0,4-3.67A4.55,4.55,0,0,0,139,71Z"/><path class="cls-2" d="M77.69,43.85c.33-.12,0-.17-.19-.43A5.91,5.91,0,0,1,76.77,42a20.86,20.86,0,0,1-.93-3.1A18.24,18.24,0,0,1,75.11,33l-1.33.72c4.17.16,4.52,7.49,6.47,10.2.43.61,2.29-.08,1.78-.79-2.38-3.31-2.23-10.43-7.54-10.64-.4,0-1.28.18-1.33.71C73,35.52,74,46.37,78,45c1.13-.39.86-1.52-.3-1.11Z"/><path class="cls-2" d="M83.76,42.74c4.14-2.68,8.26-5.37,11.59-9.05l-1.5.49c1.4.17,1.31,3.56,1.23,4.51A13.54,13.54,0,0,1,92.47,45c-2.63,3.88-8,8.16-12.74,5.51-.48-.27-2.28.47-1.55.87,6.64,3.68,14.23-3,17.31-8.4a11.54,11.54,0,0,0,1.57-5.29c0-.9-.09-4.2-1.37-4.35a2.29,2.29,0,0,0-2.12.41c-3.16,3.49-7,6-11,8.57-1.09.7.62.8,1.17.45Z"/><path class="cls-2" d="M73.4,46.67c-3.53-6-3.72-12.52-1.89-19.15.73-2.62,3.19-9.73,6.24-4.89,1.2,1.92,1.81,4.14,3.09,6,.31.47,2.18-.14,1.8-.72-2.37-3.52-2.81-8.14-7.45-9.28a1.73,1.73,0,0,0-1.5.49c-5.35,8.5-7.54,19-2.22,28,.34.59,2.18-.09,1.93-.51Z"/><path class="cls-2" d="M81.36,31.82c3.55-3,5.39-7.41,8.93-10.38H88.76c2.76,4.31,5.2,9.17.89,13.41-.86.85,1,1.17,1.62.57,4.7-4.62,2.34-10-.74-14.83-.29-.47-1.17-.31-1.52,0-3.55,3-5.39,7.4-8.93,10.37-1,.85.55,1.51,1.28.89Z"/><path class="cls-2" d="M81.88,35.08a5,5,0,0,0,.73,2.23,3.8,3.8,0,0,0,2.47.93c.35,0,2-.24,1.5-.89-1-1.3-1.34-3.17-2.68-4.16l-1.49.89c.65.15,1.13.71,1.8.86a1.69,1.69,0,0,0,1.37-.36c.31-.27.21-.58-.18-.67-.65-.15-1.13-.7-1.8-.86-.3-.07-2.1.45-1.5.89,1.33,1,1.72,2.86,2.68,4.16l1.49-.89a2.76,2.76,0,0,1-1.94-.74,4.93,4.93,0,0,1-.52-1.91c-.13-.65-2.06-.17-1.93.52Z"/><path class="cls-2" d="M96,33.93a27,27,0,0,1,11.72-1l-.48-1c-3.15,4.06-7.39,7.05-10.89,10.77-.84.89,1,1.28,1.63.62,3.5-3.73,7.73-6.71,10.88-10.77a.63.63,0,0,0-.48-1A29.77,29.77,0,0,0,95.6,32.54c-1.16.38-.81,1.78.38,1.39Z"/><path class="cls-2" d="M70,27.76C68,21.14,63.29,16,60.07,10c-.25-.47-1.86-.11-1.92.41-1.76,15.36,1.25,28.78,12.37,40,.4.41,2.21-.3,1.8-.7-11.06-11.13-14-24.31-12.25-39.56l-1.93.41c3.21,6,7.89,11.18,9.92,17.79.17.55,2.09,0,1.93-.52Z"/><path class="cls-2" d="M71.15,18.47c2.7-6,6.27-11.48,9.15-17.36l-1.74.57C85,4.22,85.37,13.43,87,19.15c.17.59,2.1.06,1.93-.52-1.73-6-2.11-15.16-8.85-17.82a1.59,1.59,0,0,0-1.73.58c-2.88,5.88-6.45,11.38-9.15,17.35-.23.5,1.66.3,1.92-.27Z"/><path class="cls-2" d="M94.13,19.45c6.22-2.3,12-5.66,18.19-8l-1.38-.4c-.94,7-3.18,13.43-8.49,18.37-.87.8,1,1,1.58.45,5.49-5.09,7.88-11.71,8.86-19,.09-.72-1-.53-1.38-.4-6.22,2.3-12,5.66-18.19,8-1.26.47-.13,1.34.81,1Z"/><path class="cls-2" d="M110.63,27.78c2.6-.73,5.11-1.7,7.71-2.41,6.17-1.69,5.31,4,3.63,7.87-3.32,7.75-16.12,9.49-23.28,11.45-1.13.32-.93,1.08.21.76,8.9-2.44,22.7-4.54,25.81-14.82,3.21-10.62-9.41-5-14.28-3.61-1.13.32-.94,1.08.2.76Z"/><path class="cls-2" d="M56.57,22.92c-4.2-6.25-8.38-13.44-16.14-15.5-.42-.11-1.6,0-1.74.56l-.15.54,1.36-.6h-.56c-.34,0-1.39.21-1.37.71.61,10.22,3,21,9,29.46,4.34,6.11,10.36,14,18.41,14.85.48,0,2.24-.78,1.22-.89-8.37-.89-14.92-10.2-19.15-16.64-5.11-7.76-7-18.15-7.56-27.3l-1.37.71h.56c.35,0,1.24-.17,1.36-.6,0-.18.1-.36.14-.54l-1.74.56c7.59,2,11.68,9.1,15.77,15.2.36.54,2.15-.19,1.94-.52Z"/><path class="cls-2" d="M77.88,55.14c8.32,1.29,16-2.38,23-6.49l-1.54.05c3.28,11.69-19.22,17.56-23.25,7.22-.22-.57-2.12,0-1.93.52,4.43,11.36,30.73,4.64,27.11-8.26-.14-.48-1.3-.08-1.54.06-6.31,3.71-13.07,7.16-20.62,6-.5-.08-2.25.75-1.22.91Z"/><path class="cls-2" d="M122.49,39.56c1.94,0,11.66,0,10,2.94a35,35,0,0,1-5.81,7.4c-5.88,6-15.15,12-23.74,8.59-.44-.18-2.2.53-1.58.77,13.06,5.25,28.63-7.88,34-18.89.1-.2-.22-.23-.33-.25-3.8-.56-7.45-1.36-11.3-1.39-.43,0-2.21.82-1.24.83Z"/><path class="cls-2" d="M47.45,42c-8-1.07-16.26-3.09-24,.5-.19.09-.82.39-.53.7,9.29,9.92,24,17,37.81,14.87.87-.13,1.64-1.16.3-1-9.82,1.54-19.64-2.26-27.8-7.47a48.32,48.32,0,0,1-4.61-3.43c-3.05-2.49-5-3.71.84-4.68,5.46-.9,11.34.7,16.74,1.42.54.07,2.27-.82,1.21-1Z"/><path class="cls-2" d="M49.92,59.34C45,61.92,32.34,67.19,42.26,72.13c8.24,4.1,21-.68,28.27-4.93,1.11-.66-.64-.66-1.14-.37C62.17,71.08,52,74.4,43.84,71.32c-9.75-3.65,3.44-9.62,7.22-11.62,1.14-.6-.63-.63-1.14-.36Z"/><path class="cls-2" d="M61.94,72.78c.75,3.38-.55,6.78,0,10.2.06.37.59.4.87.39,10.68-.23,20.27-5,25.07-14.81.47-1-1.48-.87-1.83-.17A23.58,23.58,0,0,1,70.86,81.07a28.17,28.17,0,0,1-5.07.88c-2.3.24-2.16-1.42-2-3.29.16-2.2.6-4.22.11-6.4-.18-.82-2.12-.32-1.93.52Z"/><path class="cls-2" d="M62.6,59.07a27.14,27.14,0,0,0,6,3.29c.67.31,2.41-.62,1.51-1a27.51,27.51,0,0,1-6-3.28c-.58-.49-2.32.36-1.51,1Z"/><path class="cls-2" d="M80.2,65c7.8,7,16.65,14,27.39,15.4,1.71.23,5.11-.43,5.83-2.27,1.33-3.4-2.21-7.13-3.1-10.31-.21-.75-2.14-.22-1.93.52.67,2.4,2,4.53,3,6.82,2.21,5.34-4.94,3.78-7.62,2.88C95.21,75.14,88.64,70.13,82,64.17c-.55-.5-2.37.26-1.79.79Z"/><path class="cls-2" d="M112.67,67.72c9.21,1,20.43.29,26.59-7.59.07-.09.13-.26,0-.34-3.19-2.25-6.81-3.67-10.13-5.71-.54-.33-2.23.45-1.81.71,2,1.23,4.06,2.29,6.16,3.32,5.62,2.78,1.63,5.16-2.33,7-5.24,2.42-11.67,2.32-17.28,1.69-.53-.06-2.26.83-1.21.94Z"/><path class="cls-2" d="M39.68,28.11c-7.55,1.06-17-4.55-23.12-8.49-.56-.37-1.94,0-1.71.83C16.6,27.13,22,32,27.19,36.28c.7.58,2.36-.42,1.48-1.15-5-4.08-10.2-8.77-11.89-15.2l-1.7.84c6.59,4.27,16.29,10,24.45,8.83,1.09-.15,1.46-1.67.15-1.49Z"/><path class="cls-2" d="M28.55,53.59A22.08,22.08,0,0,0,18.31,55c-2.29.92-5.35,4-3.54,6.69,2,2.93,6.6,3.19,9.78,3.5,4.47.42,9,0,13.43.44.86.08,2-1.14.71-1.27-5.42-.53-10.87,0-16.29-.78-3.3-.48-9.13-3.15-4.5-6.9,2.46-2,6.92-2.15,9.94-1.86.86.08,2-1.15.71-1.27Z"/><path class="cls-2" d="M86.19,83.52A45.5,45.5,0,0,0,91,86.72a1.6,1.6,0,0,0,1.67-.44c1.47-2.31,2.35-5,4.07-7.15.51-.64-1.42-.45-1.79,0-1.72,2.14-2.6,4.84-4.07,7.15l1.67-.45a41.06,41.06,0,0,1-4.59-3c-.53-.37-2.27.41-1.8.74Z"/><path class="cls-2" d="M38,75.48c-1.12,3.51-2.7,6.85-3.83,10.36-.06.2.2.21.33.23,6.9.65,13.69-.86,20.45-2,.77-.13,1.72-1,.36-.71a139.08,139.08,0,0,1-14.19,2.1,31.56,31.56,0,0,1-4,0c-1.53-.07.23-3.47.37-3.83.84-2.15,1.72-4.25,2.42-6.44.13-.38-1.74-.15-1.9.34Z"/><path class="cls-2" d="M128.78,34.06a37.19,37.19,0,0,1,11.29-.48l-.6-.48a2.48,2.48,0,0,1-1.62,1.74c-1.21.57-.11,1.28.78.87a4.55,4.55,0,0,0,2.77-2.83c.1-.35-.37-.44-.6-.47a39.46,39.46,0,0,0-11.78.5c-.93.18-1.56,1.4-.24,1.15Z"/><path class="cls-2" d="M119.62,75.42c1.54,2,5.1,2,7.35,2.31,4.05.46,8.15.39,12.2.83.39,0,1.61-.06,1.75-.55a57.79,57.79,0,0,0,1.8-9.42c0-.22-1.86-.06-1.93.52A57,57,0,0,1,139,78.36l1.74-.54c-2.8-.3-5.62-.36-8.43-.52s-8.82.13-10.78-2.4c-.36-.46-2.06.35-1.93.52Z"/></svg>