<svg id="layer1" xmlns="http://www.w3.org/2000/svg" viewBox="0 0 215.99 224.96"><defs><style>.cls-1{fill:#492d0c;}</style></defs><path class="cls-1" d="M53.23,169.91c8.43-7.3,16.33-15.31,20.1-26.07a97.47,97.47,0,0,0,5.17-35c-.55-19.64-8.6-50-30.95-55.11-9-2-17.74,3.38-21.49,11.39-4.24,9-2,20.37-.4,29.76s5.77,17,14.46,21.58c8.53,4.53,21.35,4.83,23.18,16.46.92,5.83-.82,13-2.27,18.61-1.66,6.48-4.75,12.82-10,17.08-4.15,3.33-9.94,4-15.09,3.9-2.09,0-4.71-.19-6.36-1.62-2.37-2,2.6-5.71,3.77-6.64l-1.41-.6a2.13,2.13,0,0,1-1.7,1.43c.05-1,.32-1.09.83-.14.51.58,2.36-.13,1.78-.81l-1.32-1.54c-.51-.59-2.36.14-1.79.81.45.51.89,1,1.33,1.54l1.78-.81c-1.22-1.36-2-2.17-3.8-1.82-.28,0-.81.33-.82.67-.15,5,2.68,4.51,5.29,1.12.7-.9-.89-1-1.41-.59-4.16,3.31-7.79,8.28-.51,9.89a28.16,28.16,0,0,0,19.66-3.33c8.42-5.2,11.63-16.28,13.17-25.41s2-17.79-6.85-22.83c-9.17-5.24-19.86-5.64-26-15.45C28.88,102,28,96.65,27.14,91.69c-1-6-1.73-11.94-1.27-18,.48-6.25,2.92-12.05,7.92-16,8.13-6.34,18.43-2,25,4.1,9,8.35,13.7,21.09,16.1,32.83a96.14,96.14,0,0,1-.78,39.93c-3.31,14.79-11.24,25.13-22.5,34.87-.88.77,1,.94,1.59.46Z"/><path class="cls-1" d="M31.47,162.92l2.31-2-1.78.4a25.93,25.93,0,0,1,3.25,2.27c2.59,2.15,1,7-2.49,4.93-3.34-1.94-.83-7.29,2.39-2L37,166l-2-2.31-1.7.7a6.73,6.73,0,0,0,3.48.2c.09,0,1.48-.46,1.09-.69-6.4-3.69-11.33.67-8.31,7.72,3.15,7.37,12.64,6.87,18.74,4.28,20.21-8.59,30.83-29.71,34.49-50.27,3.25-18.27,1.3-37.91-7.25-54.53C67.7,55.77,53.45,47.53,36.46,52.36c-11.11,3.16-16.33,13.11-17.9,24-1.74,12.1-1.27,25.73,7.24,35.3,4.65,5.23,11.37,7.61,17.15,11.27S53.88,131.39,56.09,138c2.29,6.81-.31,14.24-3.37,20.36C48.89,166,39.9,178.61,30,173.35c-.5-.26-2.06.54-1.82.66,16.16,8.55,30.32-18.29,30.68-30.89.3-10.37-8.46-17.49-16.47-22.35-4.5-2.73-9.15-4.66-13.14-8.18a27.82,27.82,0,0,1-8-13.52c-2.84-9.85-1.94-21.77,1.25-31.4,4.24-12.78,17.14-18.39,29.94-15.29C70.53,56.77,78.56,79,81.27,95.24a92.2,92.2,0,0,1-7.18,52.83A56.78,56.78,0,0,1,55,171.16c-5.72,4-13,7.75-19.74,4.06-4.75-2.61-7.16-15.29.8-10.7l1.09-.69a5.3,5.3,0,0,1-2.25-.23c-.28-.06-2.08.27-1.71.7l2,2.32c.29.33,2-.31,1.88-.59-1.4-2.31-3-4.07-5.81-3.06-2.47.89-2.41,3.79-1,5.58,1.71,2.23,4.4,1.92,6.58.91,5-2.29-.66-7.36-3-8.79-.46-.28-1.43.09-1.79.4l-2.31,2c-.42.36,1.4.16,1.75-.14Z"/><path class="cls-1" d="M52.4,83.6c7-5.36,4.18-15.45-1.68-20.53-6.36-5.52-13.82-2.37-17,4.61a16.19,16.19,0,0,0-.41,12.19c1.15,3,4.66,4.6,7.48,5.66,3.3,1.23,13.85,3.26,12.69-3.31-.16-.93-2.09-.44-1.93.51,1,5.56-11.07,1-13.17-.17-5.14-3-4.68-9.8-2.8-14.64C42,51.39,63.31,73.35,51.11,82.68c-1,.79.51,1.52,1.29.92Z"/><path class="cls-1" d="M44.09,75.19a4.45,4.45,0,0,0,3.29-.9c.72-.53,1.09-.71,1-1.57a5.79,5.79,0,0,0-.81-2c-1.77-3-6.08-1.48-8.4-.25-.14.08-.47.33-.37.53,1.35,3,4.26,5.27,7.6,4.12a4.6,4.6,0,0,0,2.37-6.5,5.88,5.88,0,0,0-6.16-2.83c-2.71.62-4,3.09-3.89,5.74.17,4.64,6.47,3,8.68,1.1,3.8-3.3-1.87-7.77-5.46-6.8-4.48,1.22-2.11,7.94.58,9.82a5.31,5.31,0,0,0,5.73-.22c2.29-1.59,1.41-5.32.34-7.35a4.55,4.55,0,0,0-6.17-2.11c-2.09,1-2.25,3.44-1.72,5.44s2.09,4,4.35,4a3.54,3.54,0,0,0,3.63-4.13c-.29-2-2.12-4.62-4.23-5.07a3.35,3.35,0,0,0-4.21,3.23,5.58,5.58,0,0,0,3.92,4.84c1.54.55,3.78.37,4.51-1.31.94-2.17-1.85-5.56-3.19-7-1-1-2.42-1.69-3.72-.77-2.18,1.54-1,6.09.12,7.92,2.32,3.74,8.37-2.78,4.23-5.95A6,6,0,0,0,40,66.46c-2.93,1.6,1,4.59,2.4,5.6A1.51,1.51,0,0,0,44,71.83l.77-.66c.18-.15.26-.32.13-.52-.6-.92-.61-2.05-1.22-3-.29-.45-1.82,0-1.86.5-.07,1-.14,1.91-.22,2.87l1.87-.5A3.32,3.32,0,0,1,43,68.45c0-.57-1.93-.22-1.93.52a3.59,3.59,0,0,0,.62,2.32c.33.42,1.82,0,1.86-.5.08-1,.15-1.91.22-2.87l-1.86.5c.6.92.61,2,1.21,3,.05-.17.09-.34.13-.52l-.77.67,1.67-.23c-.36-.26-5-4.06-2.76-4.32a4,4,0,0,1,4.2,2.87,3.7,3.7,0,0,1-1.07,3c-.36.38-.38.14,0,.24a1.42,1.42,0,0,1-.67-.54,7.94,7.94,0,0,1-1.26-4.44,6.13,6.13,0,0,1,.23-2,1.57,1.57,0,0,1,.21-.45c-.58.41-.46,0,.17.56,1.5,1.22,4.64,5.19,3.44,7.18-.27.44-2-.48-2.43-.82a4.82,4.82,0,0,1-2-3.09c-.24-1.41.39-2.73,1.81-1.9a6.44,6.44,0,0,1,2.51,3.34c.41,1.1.51,2.62-.6,3.33S43.35,72.64,43,72c-.87-1.76-1-7.39,2.34-4.94,1.56,1.14,4,7.26,1.09,8-2.57.69-4.12-2-4.75-4.16a6.35,6.35,0,0,1-.18-3.15c.34-1.54,1.36-.89,2.45-.41,1.95.85,3.92,2.82,2,4.79-1.16,1.2-3.41,2-4.72.6-.81-.82-.7-2.21-.54-3.23.31-2,1.57-3.29,3.54-2.55a4.71,4.71,0,0,1,3.11,4.78c-.24,1.73-1.78,3-3.47,2.27a7.12,7.12,0,0,1-3.21-3.57l-.37.53c1.76-.94,3.7-1.52,5.19.14,1,1.14,1.3,3.15-.66,3-.72,0-2.06,1-.76,1.06Z"/><path class="cls-1" d="M52.54,69.83a11.65,11.65,0,0,1,.17,11.22c-2.66,4.94-8.26,4.63-12,1.51-5-4.14-6.35-12.18-1.86-17.1.43-.47-1.43-.24-1.76.12-5.78,6.33-2.29,16.75,5.36,19.78,3.17,1.25,6.74.18,9.42-1.65,4.79-3.28,5.06-9.61,2.62-14.39-.26-.51-2.11.17-1.93.51Z"/><path class="cls-1" d="M57.13,64.46c2.14-.13,3.07.66,2.77,2.37a5,5,0,0,1-3.22,4c-.26.14-.82.53-.49.89.91,1,1.87,1.86,2.83,2.77l.89.91c2.55,2.64,1.15,4.57-4.23,5.79-.4-.31-2,.09-1.72.77a9.52,9.52,0,0,1-.18,8.16c-2.55,5.19-6.23-5.51-6.23-7.31,0-.87-1.65-.57-1.88,0-.68,1.72-1.3,3.45-2.11,5.12q-1.45,3.49-6.28.73c-.83-1.59-.18-3.6.53-5.08.47-1-1.33-.61-1.7-.28-5.45,4.81-7.59-4.81-1.42-7.29.64-.26.8-1.07,0-1.11-8.1-.32-2.86-13.09,1.6-10.58.42.23,2,0,1.72-.77-2.2-5.77,7.36-9.23,6.55-2.67-.05.44.53.58.86.52,1.62-.3,11.13.16,6,3.64-1.08.74.55,1.19,1.24.72,2-1.34,4-3.74.63-4.92a16.16,16.16,0,0,0-5.6-.87c-2.56.07-.18-.81-1.6-2.66-3.75-4.89-12,1.48-10,6.76l1.72-.77c-7.83-4.41-14,12.45-3.83,12.85,0-.37,0-.74,0-1.11-3.75,1.51-6.49,5.32-4.67,9.37,1.73,3.84,6.42,1.14,8.47-.67L36,83.52c-1.94,4-.74,8.35,4.07,8.75,4.41.36,6.26-6.3,7.43-9.27l-1.88,0c0,4,2.08,10.34,7,9.48,4.6-.8,4.73-7.79,3.26-11l-1.72.77c2.8,2.14,5.9.76,8.07-1.63A4.29,4.29,0,0,0,63,76.69c-.19-1-4.38-5.47-4.38-5.47,4.85-2.62,3.68-10.88-2.29-7.72-1.17.62-.1,1.44.81,1Z"/><path class="cls-1" d="M58.28,63.16c-2.68.4-4.66,1.87-6.66,3.6-.81.69,1.11.56,1.52.21,1.44-1.24,2.88-2.6,4.83-2.88.35,0,1-.22,1.11-.61s-.62-.34-.8-.32Z"/><path class="cls-1" d="M68.83,147.28c.29-7.19,2.63-14.19,4-21.22A149.53,149.53,0,0,0,75,110.15c.78-9.3,1.1-21.25-5.48-28.7-.36-.42-1.11-.23-1.51,0-2.47,1.61-3.73,3.93-5.33,6.34l1.67-.45c-5.22-3.69-6.76,6.28-8,9.17a13.6,13.6,0,0,1-1.07,2c-1.93,3.07-4.24.68-5.3-1.37a3.05,3.05,0,0,0-2.27-2,4.67,4.67,0,0,0-3,1.18c-2.75,2-2.79,4.33-5.67.18-.34-.49-1.37-.17-1.68.18-3.55,4-.06,8.48,3.45,11.12,6.09,4.6,14.71,2.82,21,7.22,9.24,6.45,1.26,22.8,3.7,32,.21.79,2.14.27,1.93-.52-2.49-9.38,3.32-19.64-.88-28.66-1.85-4-6.18-5.81-10.16-6.88s-8.1-1.28-11.94-2.92c-3.51-1.5-9.2-6.81-5.54-10.9l-1.68.18c1.39,2,3.9,5,6.37,2.43.51-.53,1-1.09,1.42-1.67,2-2.47,3-.53,4,1.29a3.26,3.26,0,0,0,3,2c2.73.31,4.71-1.92,5.87-4.08.89-1.66,2.72-10.55,5-9A1.35,1.35,0,0,0,64.54,88c1.42-2.13,2.54-4.3,4.76-5.74l-1.52,0c7,7.94,6,20.87,5.08,30.65-.42,4.48-1.14,8.93-2,13.35-1.33,7.05-3.71,14-4,21.22,0,.92,1.92.58,2-.19Z"/><path class="cls-1" d="M70.86,107.93c1-5.59,1.42-13.89-2.81-18.28-.35-.36-1.33.09-1.66.28-2.82,1.67-3.83,4-4.85,7A11,11,0,0,1,58,102.39c-1.76,1.43-5.22.3-7.22.11-.34,0-1.49.12-1.57.58-.71,4,17.86-1.39,19.36,4.77.12.5,1.82,0,1.92-.41a5.17,5.17,0,0,0-.21-3.33c-.14-.5-2.07,0-1.93.52a4.7,4.7,0,0,1,.23,3.12l1.92-.41c-.81-3.34-4.68-3.73-7.58-3.73-1.55,0-12.22,1.5-11.8-.84l-1.57.58c3.66.36,6.66,1.17,9.94-.83,4.74-2.9,3.63-9.62,8.45-12.47l-1.65.28c4.08,4.24,3.62,12.56,2.71,17.91-.1.54,1.82.2,1.91-.31Z"/><path class="cls-1" d="M70.18,104.42c2.08-3.29.09-7.85-1.44-11-.33-.7-1.75-.3-1.93.36-1,3.83-.22,7.55,1,11.24.24.71,1.85.28,1.94-.36.7-4.9-.61-8.82-3.25-12.92-.38-.58-1.72,0-1.87.5-1.14,4.15,0,8.67,1.36,12.64.24.72,1.82.28,1.93-.36a16.44,16.44,0,0,0-2-10.4c-.37-.7-1.71-.28-1.94.37-1,3.07-.51,6.25.23,9.34.17.71,1.92.29,1.94-.36.08-3.51-1.88-5.51-5-3.25-.42.3-.49.71,0,.91.74.28,1,1.17,1.37,1.79l1.65-.9c-1.83-.93-2.85-.29-4.78.06-.41.07-1.79,1-.7,1.16s2.1.51,3.16.69c.32-.38.63-.78.94-1.16a17.54,17.54,0,0,0-9.17,2.26c-1.18.62-.1,1.38.79.91a14.75,14.75,0,0,1,7.66-2c.55,0,2.06-1,.94-1.17s-2.09-.52-3.16-.7l-.69,1.16c1.16-.2,2.36-.82,3.49-.24.48.25,2.15-.12,1.65-.89-.62-1-.89-1.72-2-2.14l0,.91c1.93-1.38,1.88,1.87,1.86,2.78l1.93-.37c-.71-3-1.24-6-.21-9L64,94.67a16,16,0,0,1,2,10.09l1.94-.37c-1.29-3.88-2.46-8.27-1.35-12.33l-1.86.5c2.55,4,3.78,7.61,3.1,12.34l1.93-.37c-1.18-3.58-2-7.2-1-10.93L66.81,94c1.4,2.87,3.46,7.33,1.55,10.35-.52.82,1.44.69,1.82.1Z"/><path class="cls-1" d="M33.35,51.71c1.6-3.89.44-10.49-4.82-9.39-2.2.46-4.6,2.88-5.69,4.71-2,3.43-.18,7.17.85,10.66L25.54,57c-2.15-2.41-6.14-6.58-9.75-4.11-5.87,4-2.82,9.37.9,13.6.49-.35,1-.71,1.45-1.07C9.62,61.54,1.11,80,12,81.51c-.15-.33-.31-.66-.47-1-2.41,3-5,5.87-3.07,9.86,1.41,2.87,3.42,3.31,6.22,2.15l-1.24-.85c-3.09,4.23-4.73,18,4,13L16,104.17c-1.53,6.32.27,17,8.58,11.44L23,115.06c-1.29,3.24-2.67,9.47,1.14,11.82,3.57,2.19,7,.17,9.84-2.31L32.45,124c-3.06,7.58,2.59,9.4,8.73,6.28l-1.41-.49c-1.57,8.09,4,4.72,9.13,6.74,0-.37,0-.73-.08-1.09-1.51,1.2-4.38,3.22-2.58,5.3.74.84,2.21,1.3,3.17,1.81,3.08,1.6.44,3.12-.83,4.59s-1.35,8.9-2.19,8.88c-2.51-.07-3.29,2.88-3.87,4.76-.44,1.44-.9,3.16-3.34,2.52-2.27-.59-2.11-3.59-2.21-5.22a8.13,8.13,0,0,0-1.34-4.27c-2-3-6.62-1.19-9,0-6.17,3.16-12.57,12.43-7.87,19a8.64,8.64,0,0,0,3.65,2.53c1.68.76,4.72,0,4.24,2.41-.43,2.17-.64,5.11,1.94,6,.68.23,4.32.93,4.26,1.06-.29.56-.82,2-.31,2.57,1.33,1.59,3.81.33,5.29-.38,3.85-1.83,6.25-6,10.92-5.36,4.26.57,7.39.87,10.78-2.17a39.14,39.14,0,0,0,3.56-4.15c2-2.38,3.95-2.12,6.4-3.17a4.88,4.88,0,0,0,2.74-2.49,2.78,2.78,0,0,0,.17-1.46c-.39-3.36,0-5.16,3.11-6.73,1.57-.8,3.29-2.25,3.44-4.18a13.49,13.49,0,0,0-.26-3.58C78,150,82,148.92,84.12,147.29c1.91-1.51,1.82-4.35,1.46-6.48-.82-4.83,4.55-6.68,6.87-10.33,1.18-1.86.65-4.35-.41-6.1s-2.66-2.82-.53-4.09a10.31,10.31,0,0,0,3.07-3c2.49-3.42.31-9.9-4.3-8.74-1.2.3-.84,1.62.36,1.32,1.55-.39,2.33,1.58,2.86,2.8,1.55,3.55-2.61,6.59-5.27,7.76-.37.16-.73.6-.46,1,1.89,2.75,4.24,5.31,2.83,8.87-1.12,2.84-4.88,4.26-6.73,6.63a4.55,4.55,0,0,0-.44,3.16c.49,2.9,1.3,5.41-2.18,7.46-.7.41-1.5.7-2.17,1.17-4,2.77-1,6-2.45,9.87-.6,1.66-3.64,2.59-5,3.75a5,5,0,0,0-1.46,3.85c-.08,3.2.66,4.4-3.31,5.14a8.52,8.52,0,0,0-3.74,1.86c-4.65,3.57-5.24,8.49-12.61,7.29-2.28-.38-4.55-.69-6.62.57-1.77,1.08-3.24,2.52-4.92,3.72s-5.74,3.25-3.69-.79c.21-.41-.18-.79-.59-.81-1.9-.06-5.22.21-6.17-1.88-.72-1.56.22-4.2.56-5.76.07-.35-.35-.62-.65-.63-6.69-.21-10.92-4.21-8.61-11,.81-2.38,2.54-4.32,4.16-6.18a15.55,15.55,0,0,1,4.69-3.35c6-3,6.23,2.33,6.39,4.95.2,3.18.94,4.77,4.11,5.59,2,.54,3.65-.66,4.6-2.34a31.38,31.38,0,0,0,1.37-3.85c.6-1.48,1.37-1.15,2.64-1.59,2.36-.82,1.42-5.25,1.44-6.95,0-3.33,4.08-3.18,3.79-6.55-.31-3.74-9.14-2.34-2.93-7.29.42-.34.47-.88-.08-1.09a10.06,10.06,0,0,0-4-.73c-3.49,0-5-1.14-4.3-4.86.14-.73-1-.69-1.41-.49a10.82,10.82,0,0,1-4,1.4c-4.7.7-2.59-4.83-2-6.33.37-.91-1.1-1-1.56-.55-8.64,7.56-10-3.12-7.85-8.41.38-1-1.09-.87-1.57-.55-6.8,4.59-6.1-7.6-5.34-10.71.17-.71-1.05-.7-1.4-.5-6.06,3.47-3.32-8.81-1.52-11.28.63-.87-.63-1.1-1.24-.85-4,1.68-4.31-4.43-3.71-6.18.49-1.43,2.08-2.94,3-4.12.37-.45,0-.91-.48-1C4.25,79,11.07,64,17,66.72c.51.23,2.05-.38,1.44-1.08a22.76,22.76,0,0,1-3.77-5.1Q12.74,55.46,20,54.37a14.18,14.18,0,0,1,3.76,3.49c.48.53,2.11.2,1.85-.69-1.2-4.08-2.94-7.74.3-11.4,4.7-5.31,7.27,1.61,5.59,5.72-.42,1,1.52,1,1.84.22Z"/><path class="cls-1" d="M91.62,106.28a12.52,12.52,0,0,0,2.8-8.09c-.06-1.13-2.84-4-3.78-3.08a6,6,0,0,0,.41-7.39,3.72,3.72,0,0,0-2.68-1.24c-.81,0,.84-4,1-4.59.58-2.06,1.28-5.64-.46-7.34-1.94-1.91-5.11-.09-4.2-3.2.79-2.72,1.27-6.18-.64-8.5-1.57-1.9-5.24-.49-7,.17l1.3,0c.06-3.28,1.18-8.63-1.65-11.07-2.09-1.8-6.42.47-8.3,1.38L70,53.18c.29-4,.39-8.52-4.48-9.24-2.46-.36-4.69,2.25-6.66,3.13L60.33,47c.24-9.31-7.33-10.54-12.93-4.64L49.24,42c-1.45-3.79-5-8.87-9.48-6.75s-6.12,10.11-4.93,14.59c.12.44,2.05-.07,1.93-.52-.93-3.51.05-7.48,1.52-10.7,2.86-6.28,7.56.07,9,3.9.18.48,1.61-.09,1.84-.33,5.94-6.26,9.4-.41,9.25,5.3,0,.39,1.4-.07,1.52-.13,2.48-1.11,5.14-3.78,7.47-.66,1.3,1.75.77,5,.63,7,0,.38,1.4-.07,1.52-.13,8.7-4.18,7,4.87,6.91,9.94,0,.34,1.19,0,1.3,0,7.92-3,5.58,6.86,4.34,10.46-.12.34.65.21.78.2,7.95-1,4.7,8.91,2.82,12.91-.09.19.21.24.33.24,5.09,0,5,5.73,2.28,8.57-.3.32.27.34.46.33,6.53-.33,3,7.69.95,10.43-.13.18,1.56.12,1.91-.33Z"/><path class="cls-1" d="M41.6,51.36c3.7-1.49,3.25-6.42,1.11-9.09-.34-.42-1.14-.2-1.51,0C38.61,44,37.47,46.85,39,49.67c1.12,2,3.87,2.86,5.55,1s2.15-7.8-1-8.28-4,3.84-2.56,5.74c.37.48,1.85.18,1.86-.49a15.51,15.51,0,0,0-.64-3.88c-.18-.72-1.44-.27-1.76,0-1.76,1.68-1.06,3.56-.1,5.53.37.75,2.26.15,1.93-.52-.72-1.49-1.67-3.21-.25-4.58l-1.76,0a14.09,14.09,0,0,1,.63,3.56l1.87-.5a2.75,2.75,0,0,1-.52-2.47,2.62,2.62,0,0,1,.59-1.1c.19-.11.19-.15,0-.13.14,0,.33.32.39.41.83,1.15,1,5.69-.58,6.48-.79.38-2.05-2-2.25-2.53a4.25,4.25,0,0,1,2-4.95l-1.51,0c1.4,1.76,2.64,6.21-.13,7.33-1.25.5-.13,1.33.8,1Z"/><path class="cls-1" d="M55,51.06c1.29-2.44-.59-5-2.52-6.38a1.21,1.21,0,0,0-1.55.26c-.81,1.09-1.82,2.54-1.49,4a2.28,2.28,0,0,0,2.24,1.48c2,.11,5-1.19,4.73-3.59a4,4,0,0,0-2.85-3c-1.87-.42-2.8,1.27-3,2.85-.21,1.77.22,4.22,2.25,4.65A2.18,2.18,0,0,0,55,50a4.16,4.16,0,0,0-.12-3.45c-.4-.9-2.32-.35-1.93.51a3.56,3.56,0,0,1,.28,2.44c-.11.39,0,.12-.25-.18a2.39,2.39,0,0,1-.36-.94,5,5,0,0,1,.22-3.07c.12-.28.22-.07-.12-.09.27,0,.56.31.76.48a3.76,3.76,0,0,1,.79.94,1.26,1.26,0,0,1,0,1.39,2.46,2.46,0,0,1-2.33.87c-1.44-.4.17-2.68.65-3.32L51,45.83c1.48,1.1,3.15,3,2.13,5-.53,1,1.43,1.06,1.86.26Z"/><path class="cls-1" d="M65.82,53.48c.11-2.24-2-2.73-3.8-2a2.85,2.85,0,0,0-1.76,1.81c-.33,1.08.51,2.16,1.24,2.85a1.18,1.18,0,0,0,1.29.07c1.31-.68,3.54-2,3.06-3.83a1.84,1.84,0,0,0-1.93-1.25,4.29,4.29,0,0,0-2.53,1.18.49.49,0,0,0-.18.46c.35,1.3.89,2.17,2.29,2.32.83.09,2-1.08.72-1.22-.73-.08-.92-1-1.08-1.61-.06.15-.11.31-.17.47.26-.23.41-.48.68-.23a1,1,0,0,1,.31.83c-.09.91-1.26,1.58-2,1.95l1.29.07c-.72-.68-1.76-2.11-.62-2.87a.55.55,0,0,1,.59,0,1.23,1.23,0,0,1,.62,1.31c0,.88,1.91.53,1.95-.21Z"/><path class="cls-1" d="M73.12,59.84a2.2,2.2,0,0,0-3.53-1.19,3.13,3.13,0,0,0-.18,4.61c1.17,1,2.87,0,3.47-1.17.9-1.75-.15-3.51-1.66-4.46a1.44,1.44,0,0,0-1.55.29l-1,.85a.44.44,0,0,0-.1.61,2.25,2.25,0,0,1,.7,1.59c0,.9,1.93.53,1.94-.2a3,3,0,0,0-.86-2.19c0,.2-.06.41-.1.61l1-.84-1.55.29a2.91,2.91,0,0,1,1.56,2.43,2.29,2.29,0,0,1-.27,1,1.37,1.37,0,0,1-.29.38.64.64,0,0,1,.45-.06c-.72-.33-.83-2.07-.56-2.71.19-.44.36-.25,0-.32.38.07.55.67.63,1,.23.77,2.15.24,1.94-.52Z"/><path class="cls-1" d="M79.36,70.31c.52-.12.69-.18.49-.16l-.43,0a7.92,7.92,0,0,0-1.19.28,2.35,2.35,0,0,0-1.47,1.23c0,.06,0,.11,0,.15l.42.49c.17.2.8,0,1,0a8.87,8.87,0,0,0,3.67-2c.09-.08.12-.16,0-.25a3.54,3.54,0,0,0-4.36-.55,2.7,2.7,0,0,0-1.38,3.6c.11.23.61.11.79.09a5,5,0,0,0,3-1.17,2.16,2.16,0,0,0,.21-2c-.11-.41-2,.09-1.94.52a2.91,2.91,0,0,1,.12,1.37c-.14.53-.53.56-1,.62l.79.09a2.37,2.37,0,0,1,.1-2.35,1.77,1.77,0,0,1,.36-.41q.3-.18-.09-.06a1.64,1.64,0,0,1,.32,0,2.62,2.62,0,0,1,1.28.89l0-.24a5.16,5.16,0,0,1-2.08,1.25l1,0-.15-.18a.35.35,0,0,1,0-.52l.16-.16c-.35.1-.4.12-.15.09a4.21,4.21,0,0,0,2-.57c.29-.2.28-.4-.11-.41a2.4,2.4,0,0,0-1.36.37Z"/><path class="cls-1" d="M82.73,81.71c.76-.44,1.18,0,.64-.39a1.52,1.52,0,0,0-.65-.25,2.46,2.46,0,0,0-1.82.51c-.31.22-.53.54-.15.81a3.05,3.05,0,0,0,3.9.15c1.31-1.05.13-3.17-.63-4.12-.22-.27-.75-.22-1-.14-3.19.93-4,3.75-2.64,6.62.3.63,1.36.27,1.75-.07a5.54,5.54,0,0,0,2.22-2.9c.14-.81-1.81-.49-1.94.22-.19,1-1.11,1.66-1.85,2.3l1.75-.07c-.78-1.64-1.29-4.38,1-5l-1-.14a3.9,3.9,0,0,1,1,2.31,1,1,0,0,1-.17.65c.3-.17.23-.28-.19-.34a4.16,4.16,0,0,1-.62-.41l-.15.82c-.3.22-.59-.16-.14.17a1.73,1.73,0,0,0,.54.28A1.89,1.89,0,0,0,84,82.37c.29-.17.55-.61.15-.82a1.49,1.49,0,0,0-1.37.16Z"/><path class="cls-1" d="M86.51,92.62a4.09,4.09,0,0,0-2.76.26.89.89,0,0,0-.31,1.37,3.57,3.57,0,0,0,3.06,1.33C87.3,95.44,88,95,88,94.11a.43.43,0,0,0-.09-.28s-.11-.16,0,0a1.15,1.15,0,0,1-.11-.36,3.87,3.87,0,0,1-.06-.83c0-.55,0-1.28-.62-1.54-1-.48-2.22.17-3.12.69l-.15.09c-.32.19-.52.67-.13.9A1.4,1.4,0,0,0,85,92.59l.47-.26.22-.1c.33-.15-.14,0,.14,0,.12,0,.12,0,0,0,.11,0,.09,0,0,0a.36.36,0,0,1-.2-.06c.14.06-.09-.11,0,0s0,0,0,.08a1.4,1.4,0,0,1,.06.28,4.53,4.53,0,0,1,0,.52,3.41,3.41,0,0,0,.18,1.31,1.11,1.11,0,0,0,.17.3c-.08-.11,0-.06-.06.06,0-.16-.08.07.06-.1a1,1,0,0,1,.59-.25c-.24,0,.17,0,0,0s.14,0-.1,0l-.23-.07c-.2-.07,0,0-.16-.06a4.85,4.85,0,0,1-.49-.29l-.2-.14h0l-.12-.11-.13-.14s-.14-.25,0-.07c0-.06,0-.2,0,0a.13.13,0,0,1,0-.06c0,.15-.14.22-.25.32.11-.09-.41.16-.22.1-.32.09,0,0,.14,0-.18,0,.26,0,.33,0l.63.08a1.34,1.34,0,0,0,1.26-.56c.24-.44-.2-.66-.56-.72Z"/><path class="cls-1" d="M86.56,100.72c-1.42.68-3.7,2.48-2.34,4.24a2.5,2.5,0,0,0,2.29.67,5.67,5.67,0,0,0,3.31-1.9c.14-.15.3-.34.13-.54A2.73,2.73,0,0,0,87.19,102a2,2,0,0,0-1.35,1c-.18.42.65.44.83.41a1.34,1.34,0,0,0,1.1-.65c-.1.24,0,.08,0,0s.12-.12,0,0c.07,0,0,0-.07.05.15-.09,0-.05-.28.11a.82.82,0,0,1-.35,0,.63.63,0,0,1,.24.11,3.27,3.27,0,0,1,.86.8c0-.18.08-.36.13-.54a5.89,5.89,0,0,1-.94.86,3.46,3.46,0,0,1-.41.23s-.28.08-.16.06c-.11,0-.12,0,0,0s-.28,0-.11,0a.59.59,0,0,1-.26-.07,1.18,1.18,0,0,1-.44-.4c-.71-1,.57-2.2,1.38-2.59.22-.1.83-.45.52-.77s-1-.17-1.28,0Z"/><path class="cls-1" d="M90.19,116.43c-2.09-.79-4.11,0-5.75,1.36-.46.38,0,.69.4.72a5.71,5.71,0,0,0,4.07-1.08,3.49,3.49,0,0,0,.77-3.6c-.07-.31-.6-.31-.83-.28a5.34,5.34,0,0,0-3.38,1.71,4.51,4.51,0,0,0-.8,3.44c0,.32.63.32.83.29,1.55-.24,5.17-1.82,3.55-3.94-.4-.53-2.27.13-1.79.76.78,1-.6,2-1.49,2.1l.83.28c-.15-1.5.26-3.3,2-3.56l-.83-.28a3.2,3.2,0,0,1-.19,2.54c-.42.63-1.33.55-2,.51l.4.72a2.53,2.53,0,0,1,2.66-.75,1.66,1.66,0,0,0,1.37-.18c.23-.14.61-.59.17-.76Z"/><path class="cls-1" d="M86.4,128.11a7,7,0,0,0-6.34,3,.16.16,0,0,0,.06.2c1.65,1.76,4.63.52,6.16-.8,1.81-1.56,3.25-4.4,1.18-6.36-.32-.3-1.16,0-1.48.17-2,1.09-3.7,2.7-4,5.11,0,.2.15.27.34.28a7.17,7.17,0,0,0,5.15-1.91c.12-.11.32-.26.16-.42-1.92-1.94-4.84-.34-6.07,1.56-.09.12.08.22.17.25,2.69,1,6.35-.2,6.09-3.55,0-.26-.67-.18-.8-.15-2.77.46-5.1,2.57-3.79,5.51.23.52,1.61,0,1.85-.3s.25-.92.56-1.33c.44-.57-1.46-.32-1.76.08s-.25.93-.56,1.34l1.84-.3c-.67-1.51-.48-3.84,1.53-4.17l-.8-.16a2.81,2.81,0,0,1-.67,2.24c-.34.38-2,.49-1.36-.31a1.2,1.2,0,0,1,2,0c.06-.14.11-.28.16-.42a3.44,3.44,0,0,1-2.42,1.19l.34.28a5.56,5.56,0,0,1,3.18-4.44l-1.47.16c1.59,1.5.83,3.63-.42,5.07-.52.6-1.38,1.42-2.23,1.35-.65-.05-1.08-.41-.63-1a3.25,3.25,0,0,1,2.8-1.26,2.29,2.29,0,0,0,1.37-.37c.29-.21.25-.49-.14-.51Z"/><path class="cls-1" d="M90.52,114.81a2.62,2.62,0,0,0-3.86-2c-2.08,1-1.59,3.33-.44,4.77a1.1,1.1,0,0,0,1.31.14c1.19-.71,2.48-1.73,2.38-3.27A3,3,0,0,0,88,112a3.2,3.2,0,0,0-3.29.39c-1.29,1.07-1.09,3-.81,4.42.13.66,1.26.48,1.61.18,1.25-1.08,1.86-1.69,1.44-3.36-.12-.49-.77-.46-1.14-.4-2.73.5-4.44,2.71-5.23,5.26-.32,1.06,1.6,1,1.85.21.58-1.9,1.61-3.78,3.73-4.16l-1.14-.4c.26,1.06,0,1.26-.79,2l1.61.17c-.18-.88-.6-3.93,1.15-2.93,1.54.88,1,2.48-.3,3.26l1.31.14c-.56-.71-1.25-1.79-.62-2.67s1.14.89,1.22,1.24c.2.89,2.13.38,1.93-.52Z"/><path class="cls-1" d="M89.3,105.18c1.79-1.74-.68-3.78-2.29-4.28-.51-.16-1.47.06-1.54.72,0,.3-.13.47-.17.79a3.81,3.81,0,0,0,.47,1.7c.24.6,1.18.53,1.6.17s.83-.68.85-1.4a3.58,3.58,0,0,0-.33-1.83,1.9,1.9,0,0,0-2.57-.57c-2.3,1-2.45,4.21-1,6a1.21,1.21,0,0,0,1.81-.32c.47-1.17.71-2.41,1.18-3.58a.58.58,0,0,0-.58-.79,4.66,4.66,0,0,0-3.36,1.46c-1,.85.55,1.47,1.27.85.36-.3.9-.95,1.41-.93-.19-.26-.38-.53-.58-.79-.47,1.17-.72,2.41-1.19,3.58l1.81-.32a3,3,0,0,1-.3-3.62,1.68,1.68,0,0,1,.42-.42s-.35,0-.26,0c.47.31.33,1.46.31,1.9.11-.17.22-.34.34-.51l-.49.43,1.6.16a4.42,4.42,0,0,1-.45-1.34c0-.18.15-.48.18-.79l-1.54.72c.75.23,2.84,1.43,1.79,2.45a.54.54,0,0,0,.25.91,1.38,1.38,0,0,0,1.37-.36Z"/><path class="cls-1" d="M87.79,96.19A4.28,4.28,0,0,0,87.18,91a1.18,1.18,0,0,0-1.81.31c-.54,1.24-1,2.16-.74,3.54l1.94-.51a6.1,6.1,0,0,0-.86-2.07,1.15,1.15,0,0,0-1.53,0l-.49.42c-.26.23-.46.57-.24.89a3.09,3.09,0,0,1,.19,2c-.06.82,1.2.8,1.62.4a2.56,2.56,0,0,0,1-1.71c0-.58-.48-1-.48-1.56,0-1-2-.76-2,.14s.85,1.53.13,2.2l1.63.4a4.05,4.05,0,0,0-.38-2.68l-.24.89.49-.42-1.53,0a4.86,4.86,0,0,1,.69,1.72c.24.93,2.14.42,1.94-.51a4.18,4.18,0,0,1,.65-2.78l-1.81.31a3.23,3.23,0,0,1,.53,4.07c-.54,1,1.42,1,1.85.25Z"/><path class="cls-1" d="M84.86,80.45c0-1.19-1-2.15-1.69-3-.38-.45-1.32-.11-1.67.2a4.38,4.38,0,0,0-1.7,2.88,3.36,3.36,0,0,0,1.66,2.74,1.44,1.44,0,0,0,1.68-.21l1-.84a.41.41,0,0,0,.11-.57l-1.69-2c-.45-.53-2.3.17-1.79.77l1.69,2,.12-.57-1,.84,1.67-.2a3.33,3.33,0,0,1-1.51-2.11c-.15-1,.69-1.81,1.32-2.38l-1.68.21A4.62,4.62,0,0,1,82.93,81c0,.65,1.95.26,1.93-.52Z"/><path class="cls-1" d="M80.44,72.5c0-1.61-1.62-2.92-3-3.51l.33.22c-.64-.68-2.15-.29-2,.76a6.88,6.88,0,0,0,.46,1.32.92.92,0,0,0,1.14.4l1.41-.36c.32-.08.77-.34.8-.73l.06-.84c0-.46-.41-.82-.83-.93a1.68,1.68,0,0,0-1.49.33,1.66,1.66,0,0,0-.36.39c.1-.14-.27.4-.12.18-.38.57.23-1.09,1.31,0a1.13,1.13,0,0,0-1.31-.14c-.29.14-.81.64-.46,1a1.35,1.35,0,0,0,1.78,0,2.3,2.3,0,0,0,.49-.59c-.09.13.05-.07.06-.08-.22.27-1.15,0-.93.27l-.09-.34c0,.3,0,.6-.07.91l.81-.73-1.41.35,1.14.4c-.07-.19-.14-.38-.22-.57l-.16-.45a2.17,2.17,0,0,0-.07-.24c0-.2.06-.13-.06.14l-.5.46h0l-1,.09c-.58-.23,0,0,.09.08a2.78,2.78,0,0,1,.42.22,4.3,4.3,0,0,1,.82.64,2.48,2.48,0,0,1,.88,1.51c0,1,1.93.71,2-.15Z"/><path class="cls-1" d="M80.52,142.81a1.17,1.17,0,0,0,.11-.39,1.51,1.51,0,0,0-.46-1c-.36-.48-1.36-.25-1.68.16-.82,1-2,3.05-.23,3.87,1,.48,2.56.15,2.73-1.1s.58-2.73.11-4c-.58-1.59-2.71-1.23-3.84-.53-2.12,1.34-.66,3.75,1.13,4.54a2.59,2.59,0,0,0,2.86-.43c1-1,.4-3,0-4.1-.17-.55-1-.43-1.38-.26-1.94.85-2.51,2.09-2.66,4.12a.52.52,0,0,0,.41.53c3.5,1.28,5.21-2.95,4.19-5.72-.22-.59-1.21-.47-1.6-.14l-3.43,2.95c-1,.86.57,1.38,1.26.79l3.43-2.95L79.93,139c.33.9.56,4.59-1.13,4l.41.52c.1-1.36.18-2.3,1.54-2.9l-1.38-.26a6.39,6.39,0,0,1,.43,2.7c0,.11-.15.39-.12.36.3-.22.45,0,.06-.18a2.43,2.43,0,0,1-1.61-2.08c0-.29.43-.76.76-.6.67.31.47,1.72.41,2.27,0,.39-.1.77-.17,1.15,0,.15,0,.3-.07.45-.11.65,0,0,.66,0-1.13,0,.19-2.05.36-2.28l-1.68.17c.39.51,0,.86.35,1.4s2.3,0,1.77-.82Z"/><path class="cls-1" d="M75.07,154.33c-.38-.58-.38-1.3-.77-1.89s-1.52-.09-1.81.33a3.82,3.82,0,0,0-.88,2.33,7.39,7.39,0,0,0,1,2.14c.31.72,1.55.32,1.87-.19a7.48,7.48,0,0,0,1-1.76c.22-.7-.42-1.64-.71-2.22s-1.33-.35-1.75,0a4.66,4.66,0,0,0-1.86,4.48c.16.75,1.44.24,1.76,0a5.35,5.35,0,0,0,2.28-3.84c.07-.69-1-.55-1.38-.39-2.28,1-3.45,3-4.13,5.36-.24.81,1.72.56,1.94-.19.5-1.71,1.29-3.43,3-4.19l-1.38-.39a4.32,4.32,0,0,1-1.92,3.19l1.76,0c-.31-1.48.44-2.56,1.5-3.52l-1.76,0a3.93,3.93,0,0,1,.7,1.9c-.06.45-.69,1-.92,1.42l1.88-.19c-.27-.61-.63-1.17-.89-1.79s.31-1.46.69-2l-1.8.33c.38.58.38,1.31.77,1.89s2.28,0,1.78-.8Z"/><path class="cls-1" d="M69.61,165.83c-1.84-1.78-8.76-1.05-5.74,2.14,2.85,3,7-3,3.95-4.61a3.43,3.43,0,0,0-4.53,4.93c1,1.44,3.18,1.35,4.53.54,2.28-1.36,1-3.07-.38-4.54a1.14,1.14,0,0,0-1.31-.12A7.33,7.33,0,0,0,63.52,166c-1.12,1.5,1.45,1.63,2.31,1.61.41,0,1.44-.54,1-1.08l-.85-1a1.13,1.13,0,0,0-1.3-.11,18.19,18.19,0,0,0-4.56,3c-1,.86.56,1.43,1.26.82a16.68,16.68,0,0,1,4.14-2.75l-1.31-.12.84,1,1-1.09a3.47,3.47,0,0,1-.85-.05c0,.22.07.24.18.05a3.42,3.42,0,0,1,.69-.51,8.7,8.7,0,0,1,.94-.53l-1.31-.12a5.66,5.66,0,0,1,1.52,2c.44,1.38-1.68.88-2.11.35-.64-.78-.88-3.21.61-3.11,1,.06,1.26.59,1.17,1.5-.07.6-.44,1.8-1.11,1.36-.95-.61-.95-1.08.08-1.06a3.43,3.43,0,0,1,2,.51c.6.58,2.43-.2,1.77-.83Z"/><path class="cls-1" d="M57.6,174.86a7.78,7.78,0,0,0-5.29-.32c-.35.11-1.1.5-.74,1,.94,1.23,2.14,2.48,3.82,2.16a2.82,2.82,0,0,0,2.11-2.3c.59-2.49-1.17-4.87-3.74-3.33-1.19.71-2.88,2.16-2.07,3.64a3,3,0,0,0,3.79.93c1.24-.66,1.77-4-.13-3.8-2.13.17-3.21,3.18-2.66,4.94l1.86-.66c-1.82-2-4-2-6.07-.31-1,.82.57,1.26,1.24.73,1.31-1,2-.74,3.05.38.42.47,2.1.12,1.85-.66a3.08,3.08,0,0,1,.17-2.25,5.32,5.32,0,0,1,.35-.61c.49-.8-.72-.49-.58.14a9.81,9.81,0,0,0,.07,1.17c-.18.06-.65-.29-.8-.39-.94-.66-.08-1.45.49-2s.55-.62.82-.33a3.2,3.2,0,0,1,.34,2.9,2,2,0,0,1-.29.59c-.16.26,0,0,.1,0-.81-.19-1.47-1.15-1.94-1.76l-.74,1a5.62,5.62,0,0,1,3.84.36c.71.29,2.25-.73,1.15-1.18Z"/><path class="cls-1" d="M40.26,178.37a3.8,3.8,0,0,0-3.61-.2,2,2,0,0,0-1,2,3.27,3.27,0,0,0,1,2.15c.74.68,2.11.28,2.82-.23,1.63-1.2,2.12-4,.29-5.23-1.36-.89-4.21-.79-5,.86-.54,1.17.62,2.59,1.31,3.4.34.41,1.5-.14,1.79-.39l1-.84a.25.25,0,0,0,.08-.21,4.58,4.58,0,0,0-2.7-3.08c-.45-.2-2.22.51-1.58.79a4.12,4.12,0,0,1,2.12,2.11c.2.44.36.45,0,.75l-.68.59,1.78-.4a4.64,4.64,0,0,1-1.3-2.54,1.09,1.09,0,0,1,.23-.72c.09-.1,0-.05.12-.1-.07,0-.43.1-.23.09a2.35,2.35,0,0,1,2.31,2.38,3.79,3.79,0,0,1-1.11,2.47c-.24.11,0,0,.72-.2.25,0,.17,0,0,0a.79.79,0,0,1-.25-.2,2,2,0,0,1-.49-.76,3,3,0,0,1-.22-1.92c.12-.51.48-.47-.23-.33-.29.06.13,0,.28.1a3.8,3.8,0,0,1,.78.33,1.6,1.6,0,0,0,1.25-.08c.08,0,.9-.42.57-.59Z"/><path class="cls-1" d="M34.76,177.86A4.64,4.64,0,0,0,32,176c-.48-.08-1.26.22-1.31.78a5.38,5.38,0,0,0-.13,1.38,7.82,7.82,0,0,0,.93,1.79c.25.48,1.21.31,1.53,0a3.12,3.12,0,0,0,1.25-2.47,5.51,5.51,0,0,0-1.58-3c-.57-.69-2.41.09-1.77.86.87,1,2.1,2.56.81,3.75l1.53,0c-.22-.42-.68-1.15-.77-1.44,0,.16,0-.07,0-.18a7.86,7.86,0,0,0,.11-.83l-1.31.78A3.19,3.19,0,0,1,33,178.72c.59.68,2.42-.11,1.77-.86Z"/><path class="cls-1" d="M28.33,166.9a3.44,3.44,0,0,0-2.56-5.07,1.18,1.18,0,0,0-1.31.77c-.45,1.54-.69,3.37.31,4.76a3,3,0,0,0,3.14,1,3.3,3.3,0,0,0,2.41-2.46c.45-1.74-.64-3.63-1.62-5-.23-.32-.71-.3-1.06-.23-1.57.33-3.05,1.29-3,3a5.65,5.65,0,0,0,2.48,4.13,1.27,1.27,0,0,0,1.67-.45c1.22-2.23.58-4.66-1-6.56a1.21,1.21,0,0,0-1.69.15c-.5.73-1.26,1.68-1.11,2.63s1.06,1.46,1.81,1.91,2.41-.54,1.49-1.1a4.33,4.33,0,0,1-1.27-1c-.39-.52.44-1.55.69-1.92l-1.69.15c1.31,1.61,1.93,3.59.89,5.5l1.66-.44c-1.41-1.06-3.37-4.19-.58-4.77l-1.06-.23c.69.95,2.75,4.69.64,5.29-.43.12-1-.39-1.25-.86a5.44,5.44,0,0,1,.09-3.73l-1.31.77c1.61.23,2,2.24,1.38,3.48-.5,1,1.46.95,1.85.21Z"/><path class="cls-1" d="M33,160c0-1.3-1.25-2.18-2.3-2.64-.41-.19-1.64,0-1.73.58a3.25,3.25,0,0,0,.41,2.53,2.17,2.17,0,0,0,2.07.76,2.86,2.86,0,0,0,2.2-1.34,4,4,0,0,0,0-3.05c-.18-.59-1.46-.11-1.73.13a2.69,2.69,0,0,0-1.25,2c-.05.72,1.88.32,1.93-.27a2,2,0,0,1,.11-.77,3,3,0,0,1,.74-.73l-1.73.14a4.2,4.2,0,0,1,.16,2.3,1.46,1.46,0,0,1-.31.59s-.22.16-.06.06h0a.93.93,0,0,1,.33-.07c-.06,0-.11,0-.32-.09a1.47,1.47,0,0,1-.46-.47,2.78,2.78,0,0,1-.24-2l-1.74.58c.93.41,1.95,1.14,1.92,2.26,0,.52,1.91.19,1.93-.51Z"/><path class="cls-1" d="M46.54,168.83a12.63,12.63,0,0,0-2.47-4.92c-.42-.52-1.53-.23-1.8.32-.9,1.86-1,4.63,1.61,5a4,4,0,0,0,3.06-1.2c.76-.83-.59-2.44-1.11-3.05a1.14,1.14,0,0,0-1.3-.1c-.67.27-1.65.56-2,1.26s.07,1.52.35,2.18a.67.67,0,0,0,.62.41,4.76,4.76,0,0,0,3.36-1.46c1-.85-.57-1.39-1.26-.8-.36.31-.9.95-1.41.93l.62.41a4.33,4.33,0,0,1-.48-1.39c0-.19-.07,0,0-.06a9.07,9.07,0,0,1,1-.44l-1.31-.11a3.48,3.48,0,0,1,1.11,2.06l.35-.49c-.64.51-1.26.78-1.7-.1a3.3,3.3,0,0,1,.29-2.85l-1.8.33a11.8,11.8,0,0,1,2.31,4.61c.22.84,2.15.32,1.93-.51Z"/><path class="cls-1" d="M50.67,162.72a3.48,3.48,0,0,0-2.28-2.6c-.36-.16-1.67.07-1.75.56a3.67,3.67,0,0,0,.64,3.08,2.71,2.71,0,0,0,2.45.69c.79-.11,1.84-.52,2.09-1.37.3-1-.82-2.13-1.62-2.55a3.66,3.66,0,0,0-4,.72c-.88.82-1,2.82.18,3.43s2.52-.29,3.14-1.2a4.45,4.45,0,0,0,.88-3.08c-.1-.5-2,0-1.93.52a3.34,3.34,0,0,1-.33,1.86,4.59,4.59,0,0,1-.54,1,2.21,2.21,0,0,1-.29.32c.27-.22,1,0,.71-.21a2,2,0,0,1-.28-2.46,1.05,1.05,0,0,1,.41-.4c-.27.05-.31.08-.12.08a1.39,1.39,0,0,1,.33.1,2.74,2.74,0,0,1,1.19,1,1.43,1.43,0,0,1,.32,1.32c-.07.17-.25.24,0,.14s.36,0,.08-.08c-1.39-.33-1.55-2.08-1.37-3.22l-1.75.56a3,3,0,0,1,1.93,2.3c.14.52,2.07,0,1.93-.51Z"/><path class="cls-1" d="M54.93,154.88c.55-1.74-1-3.24-2-4.45-.31-.36-1.67.14-1.86.5-.91,1.74-.89,4,1.61,3.65,3-.42,3-3.47,2.27-5.76-.09-.3-.86-.11-1,0a4.17,4.17,0,0,0-3.08,2.31c-.46,1.3.44,2.57,1.42,3.31.42.32,1.46-.1,1.79-.39a4,4,0,0,0,1.35-4.69c-.12-.3-.86-.11-1-.05a3.54,3.54,0,0,0-2.67,2.5,3.23,3.23,0,0,0,.61,3.11c.93.89,2.79,0,3.59-.62,1.45-1.08.18-2.28-.68-3.19-.34-.37-2.14.33-1.82.67a4,4,0,0,1,1.24,1.68.78.78,0,0,1-.08.54l-.42.43c.28,0,.31,0,.1-.09a1.47,1.47,0,0,1-.5-.65c-.4-.86-.4-3.4.79-3.76l-1,0a3.57,3.57,0,0,1-1.16,4.3l1.78-.4c-1.36-1-2.28-3.67,0-4.34l-1,0a7,7,0,0,1,.42,3.08,3.09,3.09,0,0,1-.34,1c-.13.25-.66.58-.22.44s.15,0-.12-.26a1.21,1.21,0,0,1-.34-.65A3.49,3.49,0,0,1,53,150.6l-1.86.5c.93,1.08,2.42,2.53,1.92,4.11-.13.41,1.75.17,1.91-.33Z"/><path class="cls-1" d="M57.94,139.42c-1-1.88-2.95-3.33-5.08-2.13s-.66,3.18,1,4a1.69,1.69,0,0,0,1.54-.32l.5-.42c.1-.1.23-.23.19-.39a8.64,8.64,0,0,0-1.61-3.89c-.31-.39-1.84,0-1.86.5a7.9,7.9,0,0,0,2,5.42c.38.46,1.69,0,1.86-.5a5.67,5.67,0,0,0-1-5.35c-.33-.42-1.37,0-1.67.23l-.49.43c-.15.13-.27.3-.13.49.68.89.94,2,1.62,2.87.32.42,1.37,0,1.66-.24l.5-.42c.08-.07.25-.24.19-.38-.83-2-1.76-3.88-4-4.6a1.74,1.74,0,0,0-1.37.19c-.2.12-.63.55-.18.7,2,.66,2.84,2.37,3.6,4.22.07-.12.14-.25.2-.38l-.49.42,1.67-.24c-.68-.89-.94-2-1.62-2.87l-.13.49.49-.42-1.67.24a5.19,5.19,0,0,1,.93,4.88l1.86-.49a7.41,7.41,0,0,1-1.84-5l-1.86.5a8.19,8.19,0,0,1,1.48,3.68c.07-.13.14-.26.2-.39l-.49.42,1.54-.31c-.83-.44-1.94-1.21-1.62-2.3.06-.21.32-.26,0-.24a1.49,1.49,0,0,1,.68.23A4.08,4.08,0,0,1,56,139.93c.34.62,2.2,0,1.94-.51Z"/><path class="cls-1" d="M49.93,129.07c-.88-1-2-1-3.27-.72-.26.06-.95.34-.84.72A6.22,6.22,0,0,0,49,132.7a1.58,1.58,0,0,0,1.54-.31L51,132c.16-.13.29-.33.13-.52a10.92,10.92,0,0,0-3.57-3.09c-.38-.18-1.91,0-1.73.71a8.55,8.55,0,0,0,2.1,3.48c.36.42,1.35,0,1.67-.23l.49-.42c.1-.08.26-.26.2-.4A5.15,5.15,0,0,0,49,129.38a4.17,4.17,0,0,0-2.32-.67c-.32,0-1.71.36-1.28.9a7.1,7.1,0,0,1,.66,1.13,2.24,2.24,0,0,0,1.16.91c.38.18,2.19-.21,1.67-.82l-1.69-2c-.42-.48-2.27.2-1.8.75s1.13,1.31,1.69,2l1.67-.83c-.89-.4-1-1.16-1.56-1.88l-1.28.9c1.45.13,1.92,1,2.44,2.26.06-.14.13-.27.19-.4l-.49.42,1.67-.23a8,8,0,0,1-2-3.25l-1.74.71a10.46,10.46,0,0,1,3.32,2.93l.12-.52-.49.43,1.55-.32a5.54,5.54,0,0,1-2.76-3.23l-.84.71c.58-.12.86.13,1.22.54s2.27-.19,1.8-.74Z"/><path class="cls-1" d="M42.92,124.91a6.76,6.76,0,0,0-4.71-2.24c-.29,0-1.67.18-1.59.66.45,2.64,2.8,3.92,5.33,3.72.25,0,1.45-.22,1.38-.66-.4-2.41-2.29-3.48-4.46-4.12-.29-.08-2.08.28-1.7.72L41,127.4c.32.38,1.51-.16,1.79-.4l.49-.42a.17.17,0,0,0,0-.27,19.35,19.35,0,0,0-4.29-4c-.29-.18-2.07.15-1.87.59.85,1.87,2.3,2.55,4.27,2.74.17,0,1.84-.33,1.59-.67-.67-.89-.94-2-1.61-2.87-.35-.46-1.52,0-1.85.33l-.49.42c-.09.08-.12.17,0,.26a10,10,0,0,0,3.51,2.1,2,2,0,0,0,1.79-.39l.49-.43a.23.23,0,0,0,.09-.19c-1.59-3-4.21-4-7.28-2.61-.16.07-.53.27-.35.47l2.95,3.44,1.82-.67c-1.31-1.51-2.58-2.87-4.64-3.15-.25,0-1.73.22-1.59.66a12.82,12.82,0,0,0,2.94,4.42c.26.31,2-.16,1.87-.59a9.34,9.34,0,0,0-2.1-3.44c-.31-.37-2.13.3-1.81.67a9,9,0,0,1,2,3.29l1.87-.59a12.62,12.62,0,0,1-2.82-4.27l-1.59.66c1.77.23,3,1.74,4.07,3,.32.37,2.13-.3,1.82-.67l-3-3.43c-.11.16-.23.31-.35.47,1.15-.51,2.33.43,3.08,1.17a6.6,6.6,0,0,1,.95,1.29c.25.41.16.31-.2.62l1.79-.4a16.88,16.88,0,0,1-2.52-1.25c-.09,0-.84-.75-.95-.65l.42-.36-1.85.33c.67.9.95,2,1.62,2.87l1.59-.66A3.92,3.92,0,0,1,39,122.39l-1.87.6A14.4,14.4,0,0,1,40,125.31c.42.42.81.88,1.2,1.33s.18.19-.17.49l1.79-.39L39,122.32l-1.7.71c2.06.61,3.74,1.62,4.12,3.88l1.38-.66a4,4,0,0,1-4.23-3.43l-1.59.66a6,6,0,0,1,4.14,2.1c.33.37,2.13-.32,1.82-.67Z"/><path class="cls-1" d="M34.48,116.17a16.11,16.11,0,0,0-4.71-1.31c-.44,0-1.59.31-1.3,1a7.34,7.34,0,0,0,4.7,4.4c.45.14,1.85-.16,1.52-.93a11.78,11.78,0,0,0-4.44-5.21,1.22,1.22,0,0,0-1.39.11l-.49.42a.67.67,0,0,0-.24.89c1.22,2.45,2.38,4.47,5,5.63.54.25,2-.37,1.43-1.1-1.52-1.82-2.65-3.94-5-4.72-.49-.15-1.53.06-1.53.74,0,2.25,1.52,4,2.91,5.62.53.63,2,.21,1.85-.69-.37-2.5-1.62-4.9-4.14-5.73-.5-.17-1.52,0-1.54.73a6.76,6.76,0,0,0,3.06,5.76,1.23,1.23,0,0,0,1.38-.11l.49-.42c.18-.15.44-.45.32-.72A3.9,3.9,0,0,0,27.64,118c-.39.08-.91.49-.78,1a5.1,5.1,0,0,0,2.94,3.35,1.24,1.24,0,0,0,1.2-.21l.49-.42a.67.67,0,0,0,.24-.89c-.37-.59-.4-1.3-.77-1.89-.49-.77-2.32,0-1.77.86.37.59.4,1.3.77,1.89l.24-.89-.49.42,1.2-.21a3.77,3.77,0,0,1-2.12-2.53l-.78,1c1.19-.25,1.92.69,2.36,1.67l.32-.72-.49.42,1.39-.11A5.64,5.64,0,0,1,29,115.87l-1.53.73c2.14.71,3,2.84,3.31,4.92l1.85-.69c-1.17-1.37-2.73-3-2.71-4.9l-1.54.74c2.07.67,3.06,2.67,4.38,4.25l1.44-1.1c-2.29-1-3.25-3-4.31-5.16l-.24.89.49-.42-1.39.11a10.48,10.48,0,0,1,4,4.59l1.52-.92a6,6,0,0,1-3.88-3.59l-1.29,1a14.71,14.71,0,0,1,4.26,1.2c.85.36,2.25-.85,1.11-1.33Z"/><path class="cls-1" d="M23.55,109.18l.06.06,1.78-.79a11.49,11.49,0,0,0-3.21-2.69c-.44-.22-1.69-.08-1.73.6A4.69,4.69,0,0,0,22.64,111a1.42,1.42,0,0,0,1.54-.29c.75-.65.77-1.11.56-2.1-.29-1.42-1.45-2.64-2.35-3.7-.45-.52-2-.1-1.86.66a12.22,12.22,0,0,0,2.82,6.31c.43.52,2,.1,1.85-.66-.37-2.32-1.81-4.15-3.3-5.89a1.28,1.28,0,0,0-1.87.5c-.5,2.23.5,4.25.43,6.46,0,.89,1.92.53,1.94-.21.07-1.82-.78-3.22-1.48-4.85-.31-.73-2.13-.27-1.93.51a10.24,10.24,0,0,0,1.62,3.93c.39.51,2.08.08,1.86-.66a9.54,9.54,0,0,0-2.12-3.5c-.41-.48-2.07-.1-1.85.66.36,1.23,1.35,1.68,2.18,2.59.48.53,2.3,0,1.78-.8a5.54,5.54,0,0,1-.7-1.75l-1.85.65a6.78,6.78,0,0,1,1.54,2.74c.19.7,1.43.27,1.75,0,1.95-1.88.38-3.88-1.76-4.57a1.42,1.42,0,0,0-1.48.52c-1.47,2.19,0,4.39,2.47,4.54a3,3,0,0,0,2.76-1.3c.66-1.28-.42-2.87-1.12-3.87-.36-.51-1.33-.1-1.68.19a9.32,9.32,0,0,0-1.63,1.37c-.44.56-.22,1.56-.15,2.19s1.94.3,1.93-.36-.28-1.53-.28-2.32-1.39-.45-1.76-.11a3.64,3.64,0,0,0-1.31,3.62c.49,1.55,2.61,1.3,3.8.94.35-.11.88-.36.81-.82-.13-.86-.35-1.81-1.34-2a2.05,2.05,0,0,0-1.5.39c-1,.82.57,1.22,1.23.7.28-.22-.1.35-.73.08.32.13.37,1,.41,1.3l.82-.82c-2.39.73-1.71-2-.61-3l-1.76-.11c0,.79.28,1.52.28,2.31l1.94-.36c-.05-.4-.28-1.31.12-1.63s.89-.64,1.31-1l-1.68.19c.3.43,2.08,3.44.51,3.1s-1.85-1.93-1-3.16l-1.49.52c1.33.43,2.64,1.73,1.34,3l1.75,0a7.5,7.5,0,0,0-1.69-3c-.42-.49-2.06-.1-1.86.66a6.48,6.48,0,0,0,.85,2l1.78-.8c-.71-.78-1.72-1.26-2-2.31l-1.86.66a8.79,8.79,0,0,1,2,3.22l1.85-.65a9.62,9.62,0,0,1-1.47-3.65l-1.93.51c.63,1.5,1.53,2.87,1.47,4.55l1.94-.21c.07-2.19-.92-4.25-.43-6.45l-1.86.5c1.43,1.67,2.8,3.38,3.16,5.61l1.86-.66a11.56,11.56,0,0,1-2.67-6l-1.86.66a13.33,13.33,0,0,1,1.94,2.66,4.51,4.51,0,0,1,.35,1.15c.11.55.11.43-.28.77l1.54-.3a3.85,3.85,0,0,1-1.75-3.87l-1.73.61a10.52,10.52,0,0,1,2.94,2.47c.48.52,2.29,0,1.78-.79,0,0,0,0-.05-.06-.49-.58-2.34.14-1.79.79Z"/><path class="cls-1" d="M19.29,98.43A8.27,8.27,0,0,0,18.09,95c-.47-.62-2.05-.17-1.86.68.28,1.23.37,2.49.64,3.72.19.85,1.61.37,1.89-.15,1.21-2.27.58-4.63-1-6.56A1.19,1.19,0,0,0,16,93a10.13,10.13,0,0,0-.17,8.16c.33.71,1.32.46,1.78,0,2.15-2.09,1.38-5,.21-7.42a1.11,1.11,0,0,0-1.88.15,20.46,20.46,0,0,0-1.39,5.59c0,.59.74.71,1.16.58,3.41-1,3.07-4.16,1.12-6.55a1.16,1.16,0,0,0-1.52,0l-1.47,1.26c-.22.19-.52.58-.25.86,1.14,1.22,2.5,2,4.14,1.33s1.08-2.64.5-3.79c-.38-.77-2.22-.06-1.77.84a2.93,2.93,0,0,1,.42,1.62c0,.68-1.45-.78-1.52-.85-.08.29-.16.58-.25.86l1.48-1.26H15.05c.89,1.09,2.47,3.72.3,4.39l1.15.58a18.81,18.81,0,0,1,1.27-5.22l-1.89.15c1,2,1.93,4.56.1,6.33l1.77,0a9.14,9.14,0,0,1,.09-7.42L16,93.5c1.31,1.64,1.92,3.56.88,5.5l1.89-.15c-.27-1.23-.36-2.48-.63-3.71l-1.85.68a7.59,7.59,0,0,1,1,3.13c.21.89,2.14.38,1.93-.52Z"/><path class="cls-1" d="M18.35,86.51c.23-.6.62-1.61-.11-2s-1.68.07-2.27.31c-2.22.9-2.25,3.46-1.15,5.24.24.38,1.44-.1,1.7-.26,3-1.87,1.74-5.36-.13-7.62-.3-.37-1.55.09-1.83.35-2,1.88-1.65,4.15.45,5.77.35.26,1.52-.15,1.79-.42,1.57-1.57.62-3.35-1-4.42-.32-.22-1.84.12-1.88.57A5.28,5.28,0,0,0,15,88.22c.3.37,1.39-.09,1.7-.27,2.49-1.4,2.26-3.7.1-5.36-.34-.26-1.33.14-1.64.32-1,.61-2.17,1.41-2.22,2.69S15,87,15.85,87c.18,0,1.75-.26,1.6-.62-.65-1.59-1.05-2-2.76-2.13-.25,0-1.87.17-1.77.61A4.7,4.7,0,0,0,15,88.28c.31.19,2-.36,1.88-.58-.64-.9-.93-2-1.62-2.87-.29-.39-1.54.11-1.83.35L13,85.6c-.09.08-.13.14,0,.22.65.67,1.5.94,2.17,1.54.26.24,1.94-.18,1.88-.57-.19-1.24-.6-2.52-1.87-3-1.12-.42-2.56.12-3.57.58,0,0-.52.23-.42.35a5.09,5.09,0,0,0,3.67,2.19c.19,0,2-.36,1.77-.61a9.31,9.31,0,0,0-3.07-2.58,2.19,2.19,0,0,0-1.78.41l-.5.42c-.08.07-.14.14,0,.22.53.46,1.22.59,1.76,1,.36.32,2-.44,1.82-.63a4.16,4.16,0,0,0-1.2-.67c-.57-.25-.54-.21-.11-.58l-1.78.41a9,9,0,0,1,3,2.47l1.76-.61a4.56,4.56,0,0,1-3.34-2l-.42.34c1.61-.72,2.26,1.73,2.42,2.77l1.88-.58a10.25,10.25,0,0,0-1.45-.89c-.6-.37-.8-.41-.28-.85l-1.84.35c.69.89,1,2,1.62,2.88l1.88-.58c-1.36-.88-1.63-1.82-2-3.3L13.09,85c1.54.11,1.85.53,2.43,1.93l1.6-.62c-.86,0-1.91,0-2.25-1s1-2,1.71-2.4l-1.64.32c1.71,1.32,2.49,3.48.26,4.74l1.69-.26a5.28,5.28,0,0,1-1.06-4.21L14,84.07c1.36.9,2.53,2.56,1.1,4l1.78-.42c-1.89-1.44-2.38-3.59-.54-5.32l-1.84.36c1.51,1.82,3.25,5.44.6,7.11l1.7-.27a3.57,3.57,0,0,1-.29-3.93,2.11,2.11,0,0,1,.47-.52c.33-.29-.66-.24-.32.23s0,1.16-.17,1.58c-.1.26,1.72.09,1.9-.37Z"/><path class="cls-1" d="M20.1,75.56a4.68,4.68,0,0,0-.88-2,25.24,25.24,0,0,1-1.51-2.75c-.27-.62-1.7,0-1.92.41A4.72,4.72,0,0,0,16.34,77c.36.45,1.49-.1,1.79-.38A4.61,4.61,0,0,0,19.41,72a3.08,3.08,0,0,0-3.22-2.26c-3,.45-2.6,4.72-.69,6.22a1.63,1.63,0,0,0,1.79-.38c2-2.87-2.16-7.26-4.76-4.46a2.56,2.56,0,0,0,.67,4.15,6.13,6.13,0,0,0,5,.29c.15,0,.73-.31.61-.57a5.6,5.6,0,0,0-4.71-3.28c-.25,0-1.81.19-1.58.72,1.2,2.64,3.79,2.91,6.24,1.8.15-.07,1-.59.42-.74-.86-.21-1.09-1.24-1.56-1.89-.32-.45-2.19.17-1.81.71a.42.42,0,0,1,0,.58c-.44.64,1,.38,1.25.29a7.59,7.59,0,0,0,4-3.29c.47-.77-1.49-.22-1.78,0a8.35,8.35,0,0,0-2.31,5.45c-.06.69,1.47.17,1.72,0A4.07,4.07,0,0,0,20.37,72c.06-.72-1.72-.17-1.92.28-.47,1.07-1.13,2-1.61,3.09l1.92-.28a10.79,10.79,0,0,0,.7-3.16c0-.39-.66-.92-.9-1.2-.38-.44-1.48.09-1.79.38a6.83,6.83,0,0,0-2.17,3.63c-.1.63,1.83.28,1.92-.28a6.2,6.2,0,0,1,2-3.39l-1.79.37c.27.32.8.71.76,1.12a9.45,9.45,0,0,1-.67,2.81c-.2.53,1.69.24,1.92-.28.48-1.07,1.13-2,1.61-3.09l-1.92.28A3.33,3.33,0,0,1,17,75.16l1.72,0a7.92,7.92,0,0,1,2.17-5.22l-1.78,0a5.6,5.6,0,0,1-2.9,2.61l1.24.29c.31-.45.43-.75.09-1.24l-1.81.71c.56.78.77,1.78,1.81,2l.42-.74c-1.68.77-2.9-.17-3.59-1.69l-1.57.72a4.81,4.81,0,0,1,4,2.88l.6-.57c-1.88.67-4.28-1.14-3.59-3.1a3.5,3.5,0,0,1,.31-.61c-.17.26-.21,0,.26.31a3.62,3.62,0,0,1,.91.88,2.71,2.71,0,0,1,.18,3.21l1.79-.38c-1.2-1-1.91-3.41-.93-4.75-.66.06-.75.16-.27.31a4,4,0,0,1,.78.65,3,3,0,0,1,.74,1.69,4.05,4.05,0,0,1-1.26,3.46l1.79-.38a4.37,4.37,0,0,1-.45-5.33l-1.92.4a23,23,0,0,0,1.51,2.75,4.63,4.63,0,0,1,.88,2c0,.49,2,.13,1.93-.52Z"/><path class="cls-1" d="M18.08,84.12c.1-1.31-.79-3.29-2.42-3-1.31.22-3,1.4-3.16,2.8a1.84,1.84,0,0,0,1.71,2A4.51,4.51,0,0,0,18,84.33c.06-.07.15-.22,0-.29a3.17,3.17,0,0,0-2.17-.66,9.87,9.87,0,0,0-2.31,1c-.18.08-.81.32-.56.61A7.13,7.13,0,0,0,15.7,87c.31.14,1.89-.13,1.75-.65a7.32,7.32,0,0,0-1.67-3c-.35-.4-2.17.27-1.82.68a6.84,6.84,0,0,1,1.56,2.79l1.75-.65a6.92,6.92,0,0,1-2.48-2c-.18.21-.37.41-.56.61.5-.21,1-.44,1.46-.7s-.94-.09-.34.1a4.74,4.74,0,0,1,.86.46c0-.1,0-.19,0-.29a3.84,3.84,0,0,1-.58.56c-.17.12,0,.09-.34,0a1.37,1.37,0,0,1-.77-.74c-.55-1.15.63-2.12,1.52-2.57l-1.47.18a2.72,2.72,0,0,1,1.56,2.79c0,.35,1.88.1,1.93-.52Z"/><path class="cls-1" d="M20.46,70a6,6,0,0,0-4.65.1c-1.73.71-2.39,2.47-2.55,4.21,0,.21,1.88,0,1.93-.52A5.68,5.68,0,0,1,16.13,71c.67-.93,1.55-.7,2.51-.32a2,2,0,0,0,1.24-.13s.89-.4.58-.52Z"/><path class="cls-1" d="M25.2,62.64c-.55-1.77-1.62-3.69-3.6-4.09a4.29,4.29,0,0,0-3.88,1.13c-1,1.07-.32,2.52.6,3.36,1.28,1.18,3.43,2,5,.91,1.22-.8,1-2.4.64-3.62A3,3,0,0,0,21,57.91c-4.34.06-1.67,5.6-.14,7.46.31.39,1.38,0,1.66-.24,2.58-2.5.22-5.35-1.63-7.49-.38-.45-1.85,0-1.86.62A14.21,14.21,0,0,0,19.69,62l1.87-.62L20.3,59.88c-.33-.38-2.07,0-1.87.62a1.8,1.8,0,0,0,.89,1.14c.41.19,1,.22,1.35.51s2.26-.34,1.8-.73c-.75-.63-1.72-.33-2.11-1.43l-1.87.62,1.27,1.47c.33.39,2,0,1.87-.62A14,14,0,0,1,21,57.74l-1.87.62c1.4,1.63,4,4.47,1.9,6.53l1.67-.24c-1.09-1.33-2.51-4-2.07-5.75.07-.25-.75-.11,0,.09a1.52,1.52,0,0,1,.36.12,2.5,2.5,0,0,1,.78,1,4.83,4.83,0,0,1,.57,2.81,2,2,0,0,1-.14.48c-.12.31.45.11,0,0a4.8,4.8,0,0,1-2-1.11A2.1,2.1,0,0,1,19.25,60c.27-.76.95-.62,1.55-.37,1.37.58,2.06,2.18,2.47,3.49.19.61,2.12.06,1.93-.52Z"/><path class="cls-1" d="M30.94,53.45c-.37-1.73-.42-3.33-1.53-4.78-.28-.36-1.76.09-1.87.5A10.73,10.73,0,0,0,28,55.72c.22.56,1.71-.09,1.92-.42,1.46-2.24.69-4.33-.42-6.55-.25-.52-1.57,0-1.84.31-1.5,1.45-1.1,2.92.12,4.42.32.41,1.66-.13,1.86-.49A3.91,3.91,0,0,0,29,48.18c-.32-.41-1.66.13-1.86.5a6.35,6.35,0,0,0-.42,5.57c.19.51,2.09-.09,1.93-.52a6.08,6.08,0,0,1,.4-5.37l-1.86.49a3.62,3.62,0,0,1,.52,4.45l1.86-.49c-1-1.28-1.49-2.58-.17-3.86l-1.85.31c1.07,2.16,1.86,4.16.44,6.36l1.92-.42a10.38,10.38,0,0,1-.44-6.35l-1.86.5c1.06,1.38,1.06,3,1.42,4.61.11.48,2,0,1.93-.51Z"/><path class="cls-1" d="M180.64,41.86c-10.6,3.5-20,8-27.35,16.59a86.35,86.35,0,0,0-16.46,31c-4.92,16.22-6.06,52.32,18.87,51.87,9.54-.17,15.32-9,18.28-17,3.35-9,6.48-20.3,2.36-29.45-4.78-10.58-21.68-15.34-15.68-29.15a53.46,53.46,0,0,1,10.91-15.89c5.79-5.85,12.76-7.43,20.48-5a24.31,24.31,0,0,1,5.47,2.48c4.38,2.66.71,5-2.8,6l.78.95,1,1.56,1.49-.52-1.29-1.94c-.29-.79-2.19-.26-1.94.51.19.57.37,1.14.56,1.71.26.79,2.18.25,1.93-.52-.18-.57-.37-1.14-.55-1.7l-1.94.51c.48,1.34.74,2.12,2.08,2.61a1.34,1.34,0,0,0,1.48-.52c1.93-4.36-.85-4.25-4.06-2.44-.93.52.11,1.14.77.95,1.83-.53,6.43-1.58,6.71-4.12.32-2.88-3.18-4.48-5.31-5.49-7.87-3.74-15.79-3.35-23,1.6-4.17,2.87-7.36,7.07-10.14,11.23s-6.63,9.75-6.12,14.86c.48,4.75,3.49,8,6.83,11.2,4.84,4.59,9.67,8.47,11.69,15.12,1.66,5.49.16,11.6-1.19,17-1.44,5.75-3.07,11.34-6.27,16.39-4.44,7-12.78,9.79-20.3,6-6-3-8.94-9.85-10.61-15.93-3.61-13.25-.92-27.73,3.92-40.28,4.65-12,12.27-24.33,23.1-31.66,5-3.39,10.89-5.43,16.59-7.31,1.15-.38.86-1.54-.31-1.16Z"/><path class="cls-1" d="M196,55.07l-2.55.83,1.3,0a13.92,13.92,0,0,1-2.24-4.15l2.68-2.61a4.24,4.24,0,0,1,1.56,2.16,3,3,0,0,1-.67,3c-1,1.25-2.1-3.46-2.15-3.74L192,51c.28.85.56,1.71.83,2.56l1.88-.59a5.08,5.08,0,0,0-2.37-1.19c-.28-.07-2.07.25-1.71.7,5.81,7.3,11.4-1.32,8.53-7.85-3.73-8.47-16.51-5.89-23.26-4.21-21.44,5.31-36,25.83-43.34,45.43-5.38,14.44-7.23,34.12,2,47.36,4.65,6.63,12.23,9.56,20,10.25s14.77-3.74,19.33-9.78c4.89-6.48,9-14.67,10.08-22.8,1.34-10.42-3.16-17-9.27-24.81-6.49-8.31-10.4-18.09-4.4-27.78,5.08-8.21,21.75-20.64,29.92-10.84.31.36,2.12-.3,1.82-.66-5.11-6.13-13.61-3.75-19.67-.36-8.49,4.75-17.08,12.37-17.23,22.79C165,82,178.24,89.49,181.62,100.94c3.18,10.77-2.71,23.38-8.84,32.05-4.93,7-11.7,10.63-20.42,9.25a25.27,25.27,0,0,1-12.8-6.1c-6.43-5.69-8.68-14.76-9.27-23-1.46-20.49,7.75-41.55,21.32-56.49,7.51-8.28,17.26-14.54,28.36-16.5,5.29-.94,10.72-1.17,15.13,2.33a9.1,9.1,0,0,1,3.06,6.09,8.33,8.33,0,0,1-.53,3.85c-1.39,4.59-4.38.44-5.23-.63l-1.7.71a4,4,0,0,1,2.14,1.1c.29.2,2-.13,1.88-.59l-.84-2.56c-.14-.43-2,.06-1.93.52.36,2.31,1.11,4.57,3.8,4.09a3.6,3.6,0,0,0,3-3.6c.24-5-13.33-5.32-6,4.9.24.33,1,.06,1.3,0l2.56-.83c1.31-.43.07-.68-.67-.44Z"/><path class="cls-1" d="M151.83,112.34c-14.54,3.77-5.59,30.58,8.31,20.48a15.38,15.38,0,0,0,5.73-9.35c.66-3.25-1.05-6-3.32-8.17-2.42-2.33-10.89-8.39-12.37-1.93-.22,1,1.76.75,2-.14,1-4.53,9.76,4,10.71,5.39,3.15,4.4-.48,10.35-4,13.28-10.27,8.54-18.79-15-6.64-18.19,1.2-.31.83-1.68-.37-1.37Z"/><path class="cls-1" d="M155.83,121.93a3.8,3.8,0,0,0-3.21-.19c-1.51.45-1.67,1.37-1.54,2.88.25,3.08,4,3.34,6.36,3.11.4,0,1.12-.28,1.1-.77-.06-2.5-1.65-6-4.69-5.63-2.44.33-4.54,2-4.44,4.63a4.83,4.83,0,0,0,4.08,4.47c2.42.25,4.42-1.53,5.26-3.66,1.48-3.74-3.64-4.54-6.12-3.81-1.34.39-2.82,1.31-2.88,2.85-.06,1.79,1.79,3.9,3.32,4.59a3.36,3.36,0,0,0,4.11-1.68,7.47,7.47,0,0,0,.43-5.66,4,4,0,0,0-4.31-2.69c-2.5.15-3.64,2.52-3.9,4.72s.59,4.81,3.18,5.19a4,4,0,0,0,4.27-2.9c.63-1.74.5-4.26-1-5.52s-3.89-.49-4.91.92-.67,4,.18,5.59c.95,1.73,2.71,2,4.37,1.09,3.87-2,.47-9-3.54-7.53-2.39.87-1.51,4.54-1.09,6.32.31,1.32.86,3.06,2.51,2.92,2.75-.23,3.6-4.25,3.46-6.45-.26-4.27-8.11-.57-5.71,3.53a4.72,4.72,0,0,0,4.84,2.34c3-.62.9-4.26,0-5.75-.16-.26-.8-.16-1-.09l-.85.28c-.29.09-.91.31-.84.72.16,1-.18,1.88,0,2.84.11.64,1.67.12,1.86-.25l1.15-2.26-1.86.25a2.85,2.85,0,0,1-.3,1.85c-.25.59,1.67.36,1.93-.26a3.28,3.28,0,0,0,.3-2.11c-.17-.63-1.66-.15-1.87.25l-1.14,2.25,1.86-.24c-.16-1,.18-1.88,0-2.83l-.84.72.85-.28-1-.09a9,9,0,0,1,1.46,3.46,1,1,0,0,1-.16.73c.38-.36.35-.07-.25-.29a3.85,3.85,0,0,1-2.63-3.52c.08-1,1.59-3.09,2.17-1.55a6.55,6.55,0,0,1-.39,4.09,5.32,5.32,0,0,1-.88,1.62c-.27.32.2-.12.44,0-.27-.12-.46-.51-.59-.76a11.46,11.46,0,0,1-.87-3.32,7.12,7.12,0,0,1,0-2.48,2.3,2.3,0,0,1,.27-.76c.12-.2-.24-.11.24.12,1.79.82,3.47,4.66,1.37,6-.52.34-1.44-1.43-1.56-1.71a6,6,0,0,1-.41-3.3c.15-.92.69-2,1.73-1.3a3.67,3.67,0,0,1,1.19,2.84,5.48,5.48,0,0,1-.77,3.14c-.81,1.28-2.19.25-2.72-.78a6.15,6.15,0,0,1-.26-4,5.51,5.51,0,0,1,.74-1.83c.45-.71.6-.6,1.33-.52,2.24.27,2.58,3.39,2.4,5.11a5.48,5.48,0,0,1-.9,2.59c-.55.79-1.36-.36-1.93-1-1-1-2.4-3.36-.5-4.27a3.62,3.62,0,0,1,4,.72c1.46,1.58-.74,5.27-2.73,4.51a4.37,4.37,0,0,1-2.27-5.27,2.61,2.61,0,0,1,1.25-1.31c1-.56,1.72,0,2.36.73a6.34,6.34,0,0,1,1.42,4.11l1.11-.78c-3.1.3-5.34-1.19-4.52-4.46l-.84.59a2,2,0,0,1,1.93,0c.55.27,2.33-.53,1.54-.92Z"/><path class="cls-1" d="M147,123.2c-.36-5.08,2.72-11.56,9.08-10,2.43.61,4.05,2.88,5,5,2.11,4.83.64,11.27-4.33,13.6-1.16.54.65.52,1.13.3,6.92-3.24,8-13,2.58-18.15-2.24-2.14-6-2.35-8.74-1.25-4.68,1.85-7,5.92-6.64,10.94,0,.39,2,0,1.93-.52Z"/><path class="cls-1" d="M141.59,126.3c-4.6.38-.14-4.65,2-4.88.33,0,1.27-.36,1.07-.87a23.4,23.4,0,0,0-1-2.43c-.18-.39-.35-.79-.52-1.18q-1.92-3.66,4.94-3.44c.31.53,1.87.12,1.86-.5a5.72,5.72,0,0,1,.13-1.8l.6-1.85q1-2.85,4.89-1.62c1,2,.52,5.14-.31,7.15-.39,1,1.32.69,1.71.29.82-.86,1.63-1.72,2.46-2.57q6.17-4,6.12,1.51a5,5,0,0,1-2.08,3.37c-.68.62.47,1,1,.79,6.46-2.18,5.4,6.24-.39,6.19-.37,0-2,.69-1.11,1.14,6.23,3-1.39,11.56-4.54,7.69-.39-.48-1.83-.18-1.86.5-.23,5.28-8.87,4.62-6-.45a.44.44,0,0,0-.34-.65c-1-.23-8.89-3.78-4.16-4.81,1.2-.27.87-1.4-.31-1.15-2.49.55-4.74,1.8-2.38,4.21a11.79,11.79,0,0,0,4.34,2.53c1.17.39.07,1.69.25,3,.74,5.23,10.39,1.73,10.58-2.84l-1.86.5c4.84,6,15.82-5.67,7.83-9.52l-1.11,1.14c3.58,0,6.83-1.71,7.57-5.46.84-4.23-4.28-4-6.78-3.12l.94.79c2.82-2.55,3.61-6.47-.16-8.48-3.44-1.83-7.64,3.35-9.5,5.28l1.7.29c1.31-3.19,1.9-9.16-2.45-10-4.11-.82-6.68,5.06-6.63,8.21l1.86-.5c-1.56-2.69-4.55-2.37-7-1.2-4.17,2-1.16,6.75-.08,9.57l1.07-.87c-2.79.29-5.14,1.36-6.1,4.15-.86,2.52,1.83,3.35,3.68,3.19,1-.08,1.55-1.34.22-1.23Z"/><path class="cls-1" d="M139.44,127.16c2.32.57,4.44,0,6.66-.71.23-.07,1-.29.86-.66s-.85-.22-1.08-.15c-1.61.52-3.18,1.08-4.88.66a1.85,1.85,0,0,0-1.36.21c-.18.09-.66.53-.2.65Z"/><path class="cls-1" d="M159.79,55.28c-2.61,5.56-6.77,10.07-10,15.24-2.56,4.09-5.14,8.11-7.39,12.38-3.92,7.44-8.35,17.2-5.53,25.69.15.45.76.4,1.12.32,2.6-.53,4.43-1.93,6.61-3.41l-1.51,0c2.73,4.22,7-2.11,8.71-4.06,2.08-2.33,5.93-3.31,6.23.73.06.74.23,2.34,1.24,2.54a5.36,5.36,0,0,0,3-.16,10,10,0,0,0,1.68-.81c1.88-1,2.52,1.52,2.82,2.86.12.54,1,.39,1.37.23,3.23-1.54,3.48-4.37,2.58-7.62-1.41-5.12-6.5-7.74-10.55-10.47-14.52-9.78.65-20.82,2.39-32.62.13-.89-1.83-.58-1.95.19-1.29,8.79-10.36,15.8-8.79,25.08.78,4.57,5.6,7.62,9.16,9.91a23.24,23.24,0,0,1,6.6,5.84c1.62,2.21,3,7.15-.25,8.71l1.37.23c-.55-2.49-1.15-4.64-4-4.05-1.54.32-4.35,2.77-4.75-.38-.23-1.83-.13-2.92-1.83-3.84-2-1.08-4.35.08-6,1.3-1.39,1-5.9,7.74-7.3,5.58-.29-.45-1.17-.19-1.51,0-1.83,1.24-3.38,2.52-5.68,3l1.12.33c-3-9.17,2.44-19.57,6.71-27.45,4.76-8.75,11.91-16.24,16.11-25.21.44-.94-1.5-.82-1.82-.14Z"/><path class="cls-1" d="M144.76,86.75c-2.64,4.18-5.81,10.75-3.9,15.75.1.26.61.17.8.14a8.8,8.8,0,0,0,4.93-2.08c1-.92,1.85-2,2.76-3,3.61-4,6.55-1.54,9.8.23a1.74,1.74,0,0,0,1.86-.5c1.81-2.81-15-4.84-14.16-10.37.1-.61-1.62-.06-1.83.21A4.58,4.58,0,0,0,144,90c-.07.56,1.85.18,1.91-.32a4.07,4.07,0,0,1,.85-2.59l-1.84.21c-.54,3.43,3.21,4.95,5.83,6,1.21.48,9.59,2.42,8.33,4.37l1.86-.49c-3.14-1.71-5.2-3.27-8.83-2.34-4.29,1.09-5.8,6.41-10.13,7l.79.14c-1.87-4.9,1.28-11.41,3.89-15.55.19-.29-1.6-.18-1.92.32Z"/><path class="cls-1" d="M144.36,89.49c-3,2.12-3,6.46-2.75,9.77,0,.81,1.63.09,1.87-.21,2.15-2.76,2.75-6.08,3-9.5.07-.9-1.6-.42-1.88,0-2.24,3.77-2.52,7.39-1.76,11.65.15.8,1.61.14,1.88-.21,2.33-3,2.91-7.06,3.2-10.76.06-.91-1.6-.4-1.88,0a14.75,14.75,0,0,0-1.92,9.31c.06.69,1.5.22,1.75-.06,2-2.22,2.65-5,3.11-7.85.14-.84-1.64-.48-1.87,0-1.26,2.87-.48,4.94,2.83,4.21.3-.07,1.13-.52.74-.94a3.37,3.37,0,0,1-.63-2l-1.86.65c1.09,1.29,2.17,1.11,3.73,1.46.47.11,2.23-.5,1.34-1.06s-1.53-1.13-2.33-1.64l-1.52,1a15.66,15.66,0,0,0,8.2,1.22c1-.09,1.57-1.3.23-1.19a13.11,13.11,0,0,1-6.91-1c-.57-.26-2.41.43-1.52,1s1.52,1.12,2.33,1.63L153.09,94c-1.17-.27-2.27-.14-3.1-1.11-.43-.51-2-.1-1.86.65a3.71,3.71,0,0,0,.78,2.3l.75-.94c-2.22.49-1-2.42-.73-3l-1.88.06c-.41,2.57-1,5.22-2.74,7.24l1.75-.06a13.87,13.87,0,0,1,1.8-8.69l-1.88.06c-.27,3.59-.8,7.53-3.07,10.45l1.87-.21c-.72-4.07-.49-7.42,1.65-11l-1.88.06c-.25,3.3-.8,6.51-2.89,9.19l1.88-.21c-.15-2.56-.33-6.89,2.05-8.57,1.07-.76-.56-1.15-1.23-.68Z"/><path class="cls-1" d="M156.22,144.93c-2.55,2.64-4,8.63.85,9.26,7.14.94,8.69-5.91,9.24-11.15l-1.94.33c1.32,3.83,3.06,7.22,7.57,6.28,5.62-1.17,4.32-7.65,3-11.42l-1.85.68c5.73,6,19.07-6.28,10.88-11.19-.1.38-.21.75-.32,1.13,2.85-1.53,5.34-2.63,6-6,.59-3-.92-4.91-3.86-5l.3,1.15c3.83-2.4,10-12.92,1.32-12l.73,1c3.37-4.62,5.87-14-2.89-12.3l1,.94c2.21-2.24,5.1-6.41,3.26-9.72s-5.75-2.75-8.85-1.7l1,.94c4.93-5.07,1.31-8.45-4.82-8l.84.81c4-6-1.48-5.14-5-8.49l-.71,1.09c2.37-.71,5.6-1.78,3.63-4.64-1.4-2-3.31-3.64.23-4.67a5.61,5.61,0,0,0,3-3.24c.71-1.64,1.21-2.93,3-3.17a4.25,4.25,0,0,0,2.83-1.5c.64-.7,5.1-6.19,5.5-.14.09,1.29-.78,2.57-1.07,3.8-.4,1.67-.57,4,1.2,5.08,6.76,4,18.38-2.33,19.27-9.9.5-4.23-6.43-6.61-4.69-9.27,2.64-4-.51-5.88-4-7.52,0,.36,0,.73.08,1.09,8-7-9.76-2.46-11.15-2.8-2.18-.54-3.93-2.45-6.1-3.17a8.38,8.38,0,0,0-5.36.51c-2.73,1-5.3,3.63-8.41,2.86a5.92,5.92,0,0,0-4.09.1,3.08,3.08,0,0,0-1.87,2c-1.25,4.35-4.41,3.08-6.95,4.77a5.53,5.53,0,0,0-2.7,3.28c-1,4.26-4.64,3.79-7.6,5.2-1.4.67-2.09,2.37-2.53,3.73-1.8,5.58-4.56,3.65-7.93,5.89-3.95,2.63-3.23,5.92-2.35,10.12l1.05-1c-2.73,0-6.63.83-8,3.62-1.24,2.61-1.16,6.27,2.08,6.76,1,.14,2-1.21.67-1.41-1.48-.22-1.5-2.09-1.52-3.33-.06-3.39,4.19-4.19,6.57-4.23.47,0,1.17-.41,1.05-1a23.31,23.31,0,0,1-.75-5.44c.1-4,5.18-3.57,7.71-4.92,1.08-.57,2.11-1,2.53-2.28,1.16-3.59,1.61-5.82,6-6.22a4.81,4.81,0,0,0,4.37-3.3,7.93,7.93,0,0,1,5.57-5A5.23,5.23,0,0,0,164,41.06,4,4,0,0,0,165.33,39c.67-2.58,2.84-2.42,4.9-2.45,3.61,0,6.23-2.34,9.51-3.52,4.49-1.63,6.83,3.66,10.86,3.31a22.45,22.45,0,0,0,4.83-1.13c.66-.21,7.62-1.52,4.21,1.46-.42.36-.46.84.08,1.09,1.41.65,4.31,1.65,4.31,3.79,0,1.22-1.73,3.33-2.28,4.12a.56.56,0,0,0,.25.93c6,2.79,7.35,8.16,2.18,12.72a16.08,16.08,0,0,1-7.88,3.48c-5.24.85-5.94-2.9-4.64-6.65,1.17-3.38-2.3-8.42-5.82-5.27a21,21,0,0,0-2.15,2.27c-1.41,1.7-1.54.87-3.18,1-2.29.18-2.8,3.12-3.51,4.72-1.31,2.91-4.55,1.74-5.57,4.61-.93,2.62,5.85,5.15.16,6.83-.33.1-1.17.65-.71,1.09a8.38,8.38,0,0,0,2.54,1.78c3.08,1.32,4.6,2.32,2.41,5.64-.35.54.45.85.84.82,4.69-.31,7.26,2.07,3.37,6.06-.63.66.43,1.14,1,1,8.77-3,7.8,5.29,3.63,9.53-.69.7.46,1,1,.95,7.11-1.39,2.65,8,.92,10.42-.41.56.1,1.06.72,1,6.42-.72-.31,8.32-2.43,9.65a.61.61,0,0,0,.31,1.14c6.5.14,0,7.2-2.32,8.44-.37.2-.87.8-.32,1.13,6.48,3.88-3.69,13.35-7.62,9.22-.48-.5-2.16-.21-1.85.68a16.41,16.41,0,0,1,1.27,6.11q-5.56,5.28-7.18.26a22.7,22.7,0,0,1-.84-2.26c-.28-.81-1.86-.46-2,.33-.4,3.91-.54,7.81-5,9.34-5.7,1.94-3-5.39-1.46-7,.85-.87-1-1.19-1.62-.57Z"/><path class="cls-1" d="M127.54,80.85c-2.78,1.66-7.76,6.22-3.75,9.09,1,.68-1,1.71-1.77,2.82a5,5,0,0,0-.66,2.84c0,.45,1.87,3.38,2.09,3.18-2.66,2.42-7.13,7.71-3.14,10.78,2.28,1.76.11,2.92-1.1,5.3-1,1.92-1,4,.83,5.34a5.18,5.18,0,0,0,2.33.64c1.54.06-.35,3-.57,3.53-.75,1.72-1.51,3.61-1,5.48.39,1.39,2.52,1.87,3.7,1.91,3.5.12.28,3.84.78,6.51.28,1.55,2.29,2.58,3.73,2.47.17,0,3.62-.8,3.08.44a7.88,7.88,0,0,0-.38,4.7c.88,4.63,7.05,2.91,9.82,1.7l-1.52.13c-.07,3.27,1.1,9.57,5.57,8.28a13.48,13.48,0,0,0,9-10.42c.07-.49-1.83-.14-1.91.33-.46,3-2.35,5.67-4.42,7.8-4.75,4.87-6.33-4.19-6.28-6.51,0-.4-1.39.07-1.52.12-7.41,3.21-7.67-3.63-5.83-7.83.12-.26-.42-.23-.53-.22-1.5.05-4.14.91-5.46.24-3.27-1.66-.8-6.16.28-8.34.14-.26-.43-.23-.53-.23-8.73.44-5.17-5.65-3-10.6.08-.2-.22-.23-.33-.23-7.6-.31-3.74-6.75-.76-10.13.13-.14.11-.25-.08-.31-7.06-2-1.7-8.56,1.6-11.57.06,0,.16-.2,0-.26-3.69-1.66-3-6,.61-7.64.21-.09.62-.36.23-.51-5.41-2.09-.54-7,2.35-8.76.83-.49-1.12-.28-1.48-.07Z"/><path class="cls-1" d="M150,142.2c-3.77-.07-5.57,4.07-4.61,7.34.09.33.57.41.85.36,2.79-.51,5-2.3,4.9-5.32-.11-2.22-2-3.81-4.18-2.73a6.66,6.66,0,0,0-2.75,3.58c-.44,1-.87,3,.39,3.64,2.4,1.3,5-2,4.37-4.17-.2-.72-1.65-.32-1.87.19a12.78,12.78,0,0,0-.81,3.4c-.11.71,1,.51,1.38.38,2.22-.83,2.34-2.77,2.21-4.87-.05-.75-2-.32-1.93.52.07,1.21.28,2.89-1.09,3.39l1.37.38a12,12,0,0,1,.69-3.07l-1.88.19a2.31,2.31,0,0,1-.35,2.08,1.87,1.87,0,0,1-.68.54c.07,0,0,0-.14-.2-.8-1.07.83-4.71,2.05-5.1.84-.28,1.28,2.13,1.29,2.55a3.31,3.31,0,0,1-2.74,3.39l.85.36c-.42-1.44-.26-5.63,2-5.59a1.41,1.41,0,0,0,1.26-.55c.23-.4-.19-.68-.55-.69Z"/><path class="cls-1" d="M138.59,138c-2,1.66-1.45,4.31-.26,6.31.23.4,1,.38,1.31.17a5.24,5.24,0,0,0,2.77-2.88,1.89,1.89,0,0,0-1.25-2c-1.65-.82-4.62-.56-5.29,1.47a3.54,3.54,0,0,0,1.25,3.58c1.66,1.26,3.34-.92,3.9-2.24s.83-3.79-1.09-4.1-3,2.13-3,3.66c0,1.05,2,.79,2-.13a3.47,3.47,0,0,1,.27-1.53,2.06,2.06,0,0,1,.33-.5c.18-.13.07-.15-.32-.05a.83.83,0,0,1,.19.4,3.78,3.78,0,0,1-.84,3.06c-.23.32-.36.16,0,.26-.2-.06-.37-.43-.46-.58a3.2,3.2,0,0,1-.38-1.1,1.07,1.07,0,0,1,.28-.94,2.19,2.19,0,0,1,2.2.21c.93.7-.83,1.85-1.44,2.22l1.32.17c-.73-1.22-1.54-3.39-.2-4.5,1-.83-.52-1.59-1.3-.94Z"/><path class="cls-1" d="M130.45,132.55a1.85,1.85,0,0,0,.11,2.13,2.73,2.73,0,0,0,2.19.73,3,3,0,0,0,2.34-1.2,2.79,2.79,0,0,0-.06-2.74c-.15-.33-.52-.37-.85-.35-1.4.12-3.54.54-4.09,2.06-.17.48,0,1.49.49,1.74a3.58,3.58,0,0,0,2.71.06c.3-.1.78-.29.83-.66.14-1,.1-2-.92-2.57a1.45,1.45,0,0,0-1.38.16c-.28.19-.55.63-.14.85.68.37.59,1.09.49,1.77l.83-.66c-.28.09-.71.3-.9-.05a.91.91,0,0,1-.09-.77c.29-.62,1.37-.67,1.94-.72l-.85-.34a2.69,2.69,0,0,1,.3,1.87s-.19.31-.09.18a.57.57,0,0,1-.13.14c.16-.15,0,0,0,0l0,0c-.06,0-.26.1,0,0-.06,0-.28.06,0,0l-.19,0h-.14c.22,0-.14,0-.21-.07.16.06-.11-.06-.16-.08s-.06,0-.19-.16a1,1,0,0,1-.08-1.21c.45-.91-1.5-.76-1.81-.12Z"/><path class="cls-1" d="M126.65,124.94a1.73,1.73,0,0,0,2.31,2,3.07,3.07,0,0,0,2.21-3.4c-.09-1.78-2.36-1.39-3.32-.6a3.12,3.12,0,0,0-.41,4.45c.2.29.76.26,1,.16l1.09-.35c.29-.09,1-.38.81-.82a1.9,1.9,0,0,1,0-1.48c.41-.93-1.53-.78-1.82-.12a2.69,2.69,0,0,0-.07,2.12l.82-.81-1.09.35,1,.16a2.44,2.44,0,0,1-.27-2.78,1.07,1.07,0,0,1,.22-.25c.15-.12.27-.12,0-.09a.22.22,0,0,1-.14,0c.17.15.15.38.16.58a2.7,2.7,0,0,1-.23,1.35,1.46,1.46,0,0,1-.22.33c-.07.08-.24.14,0,.07s.17.08,0-.16a1.2,1.2,0,0,1-.13-.91c.1-.87-1.85-.54-1.95.2Z"/><path class="cls-1" d="M124.45,114.18c-.43.07.2.15.33.18a2.59,2.59,0,0,0,1,.08,3.72,3.72,0,0,0,2.11-.85.21.21,0,0,0,.1-.18l-.18-.54a.18.18,0,0,0-.17-.11,8.71,8.71,0,0,0-4,.5c-.12,0-.72.25-.64.46a2.59,2.59,0,0,0,3.42,1.58c1.37-.38,2.54-1.24,2.48-2.79a.21.21,0,0,0-.17-.11,4.74,4.74,0,0,0-3.13.19,2.12,2.12,0,0,0-1.16,1.87c0,.2,1.84.06,1.93-.52a4.06,4.06,0,0,1,.2-.78,1.51,1.51,0,0,1,.11-.22c.21-.38.4,0-.45,0,.33,0,.76,0,.74.4a1.92,1.92,0,0,1-.25.81,1.5,1.5,0,0,1-.47.53q-.23.14.24,0a1.06,1.06,0,0,1-.31-.05,2.07,2.07,0,0,1-1.25-1.42l-.63.47c.34-.11,1.52-.52,1.64-.14s1,.21.48.09c-.17,0-.34-.11-.51-.15a2.28,2.28,0,0,0-1,0c-.32.06-1,.19-1.14.52s.69.19.77.18Z"/><path class="cls-1" d="M125.85,103.79c-.5.09-.55-.26-.31.15a1.06,1.06,0,0,0,.4.44,2,2,0,0,0,1.61.09c.38-.1,1-.45.75-.92a2.34,2.34,0,0,0-3.32-1.07c-1.3.76-1.27,2.41-.9,3.69.08.26.38.3.61.33a4.3,4.3,0,0,0,3.77-1.3,5,5,0,0,0,1-3.67c0-.43-.88-.35-1.11-.27-1.19.39-2.6.78-3.3,1.91-.5.81,1.46.67,1.81.08s1.17-.74,1.77-.93l-1.1-.27a4.84,4.84,0,0,1-.46,2.46,1.43,1.43,0,0,1-1.66.81l.6.33a3.68,3.68,0,0,1-.1-2.13,1.18,1.18,0,0,1,.16-.29c.16-.28-.72-.06-.31.18a2.38,2.38,0,0,1,.74.92l.76-.92c.29-.07.28.09.11-.16s-.14-.23-.22-.34a1.12,1.12,0,0,0-1.07-.28c-.38.07-1,.23-1.09.69s.56.52.85.47Z"/><path class="cls-1" d="M126.73,93.66a3.5,3.5,0,0,0,2.12.72c.7-.08,1.4-.53,1.29-1.3A2.92,2.92,0,0,0,128.28,91a1.8,1.8,0,0,0-2,.79.8.8,0,0,0-.11.5c0,.18,0,.1,0,.25a2.33,2.33,0,0,1-.21.69c-.2.5-.45,1.08-.1,1.58.5.71,1.88.49,2.58.39.4-.06,1-.26,1.07-.73s-.53-.59-.87-.55a4.37,4.37,0,0,1-.94.08c-.09,0-.11,0,0,0-.1,0,0,.09,0,0,.1.14,0-.12,0,0a.89.89,0,0,1,0-.22,1.28,1.28,0,0,1,.13-.39,4.23,4.23,0,0,0,.34-1.15,2.11,2.11,0,0,0,0-.35c0-.16-.11.25,0,0,0-.07,0-.06,0,0a.78.78,0,0,1-.26.17,1.21,1.21,0,0,1-.37.11s-.41,0-.27,0-.16-.09,0,0l.18.12.08.07c.06,0,.11.11.17.17a3.57,3.57,0,0,1,.3.38l.12.2c.06.1,0-.06.05.1a1.08,1.08,0,0,1,.1.35c0-.17,0-.06,0,0,.06-.27.4-.43.63-.5a.71.71,0,0,1,.42,0L129,93a6.22,6.22,0,0,1-.76-.42,1.35,1.35,0,0,0-1.37.14c-.31.22-.54.66-.13.91Z"/><path class="cls-1" d="M129.13,87c1.51-.08,4.41-.83,4-2.92a1.84,1.84,0,0,0-1.48-1.29,5.4,5.4,0,0,0-3.43.56c-.2.09-.69.34-.58.65.28.84.7,1.69,1.69,1.74A2.36,2.36,0,0,0,131,85.2c.29-.27.23-.59-.18-.68a1.66,1.66,0,0,0-1.37.37c-.11.11.19-.12.07,0a1,1,0,0,1,.79-.13c-.41-.14-.61-.83-.73-1.2l-.59.66c.77-.35,1.88-.67,2.2.39a1.06,1.06,0,0,1-.24,1,1,1,0,0,1-.38.26,2,2,0,0,1-.7.15,1.62,1.62,0,0,0-1.27.52c-.26.37.21.58.52.57Z"/><path class="cls-1" d="M132,73.19c1.33,1.26,3.15,1.18,4.8.68.28-.09,1.31-.64.64-1a4.69,4.69,0,0,0-3.75-.37,3.48,3.48,0,0,0-2.14,2.91c0,.25.17.36.37.41a4.47,4.47,0,0,0,5.54-3.14c.07-.24-.2-.37-.38-.41-1.47-.36-5.21,0-4.62,2.39.16.68,2.1.17,1.93-.52-.26-1,.82-1,1.51-.81l-.37-.41a3.65,3.65,0,0,1-1,1.68,1.42,1.42,0,0,1-1.45.16l.37.41a2.76,2.76,0,0,1,.77-1.77c.37-.27,1.29.23,1.65.41l.64-1a2.54,2.54,0,0,1-2.75-.46c-.5-.47-2.32.27-1.79.76Z"/><path class="cls-1" d="M139,65a6.34,6.34,0,0,0,6.22-.66c.08-.06.26-.21.21-.33-1.5-3.94-10.43-.24-8.61,3.89.08.19.38.2.56.18,2.38-.23,4.67-1.07,5.88-3.26.07-.14-.08-.21-.17-.25a5.92,5.92,0,0,0-4.49,0c-.16.05-1,.29-.87.61,1,2.34,3.88,1.48,5.5.38.13-.08.31-.27.16-.41A3.91,3.91,0,0,0,137,66.52a.2.2,0,0,0,.17.25c2.62.6,5.62-.73,5.56-3.7,0-.46-1.38,0-1.54.08-.38.22-.6.71-.91.89-1.12.64.64.65,1.15.36s.59-.72.9-.89l-1.53.07c0,.93-.32,2.51-1.57,2.46-.52,0,.33-1.16.68-1.14a2.75,2.75,0,0,1,1.65.94l.16-.42c-.93.63-1.66.23-2.07-.75l-.86.61c.6-.19,3-.7,2.13.48a3.68,3.68,0,0,1-2.74,1.42l.56.18c-1.24-2.8,3.61-5.85,4.75-2.86l.22-.33a3,3,0,0,1-3.15,0c-.46-.21-2.24.51-1.57.81Z"/><path class="cls-1" d="M131.13,74.33a2.18,2.18,0,0,0,2.43,2.81c2.1-.21,2.73-2.25,2.22-4a.77.77,0,0,0-.87-.44c-2.37.35-4.87,2.45-2.7,4.78a2.66,2.66,0,0,0,2.78.7c1.56-.51,2.12-2.14,2.42-3.59.12-.59-.79-.69-1.15-.57-1.51.49-2.37.88-2.62,2.51-.06.4.34.56.64.62,2.53.54,4.8-.83,6.38-2.72.79-.94-1-1.22-1.61-.56-1.07,1.28-2.35,2.26-4.09,1.9l.64.61c.12-.79.23-.8,1-1.06l-1.16-.57c-.2,1-.62,3-1.71,1.6-.85-1-.23-2.07,1-2.26l-.88-.43c.13.43.49,1.87-.19,2.12s-.62-1.3-.57-1.58c.17-1-1.8-.7-2,.16Z"/><path class="cls-1" d="M129.11,82.32a2,2,0,0,0-1.31,1.93,3.61,3.61,0,0,0,1.5,2.61,1.27,1.27,0,0,0,1.67-.45c.08-.15.3-.38.42-.61a3.68,3.68,0,0,0,.19-1.55c0-.58-.7-.72-1.15-.57a2,2,0,0,0-1.44,1,3.57,3.57,0,0,0-.39,1.57,1.5,1.5,0,0,0,1.86,1.36,3.79,3.79,0,0,0,3.1-4.82c-.23-.76-1.39-.4-1.77,0-.78.79-1.4,1.71-2.18,2.5-.35.35-.13.74.24.92a4.12,4.12,0,0,0,3.08-.16c.36-.12.92-.43.79-.91s-.77-.5-1.14-.38c-.57.18-1,.43-1.61.17.09.3.17.61.25.91.78-.79,1.4-1.72,2.18-2.51h-1.77a2.7,2.7,0,0,1,0,1.84,2.41,2.41,0,0,1-.41.64A1.68,1.68,0,0,1,131,86l-.16.11c-.24.18.15-.07-.1.06s0,.07-.25.08c.14,0,.19.08.09-.06.06.09,0-.13,0-.18a1.58,1.58,0,0,1,0-.28,3.57,3.57,0,0,1,.41-1.13l-.75.54.54-.18-1.15-.56q0,.47,0,.93a.82.82,0,0,1-.07.3c.11-.2,0,0-.09.09a2.66,2.66,0,0,0-.3.47l1.66-.44a2.93,2.93,0,0,1-1-1.55c-.06-.26-.07-.68.17-.78s.75-.6.47-1-.92-.29-1.31-.14Z"/><path class="cls-1" d="M127.21,90.15a4,4,0,0,0-1.43,4.68c.25.8,1.37.44,1.78,0a4.7,4.7,0,0,0,1.81-2.7l-2,.14a5.13,5.13,0,0,0,0,2c.12.46.77.55,1.15.43l.54-.18c.41-.13.88-.45.78-1A2.7,2.7,0,0,1,130.4,92c.33-.66-.63-1-1.11-.81a2.6,2.6,0,0,0-1.72,1.32c-.19.46.05,1-.12,1.4-.43,1,1.51,1.07,1.85.24.17-.42-.06-1.43.35-1.59l-1.11-.81a3.64,3.64,0,0,0-.59,2.36l.78-.94-.54.17,1.15.43a4.16,4.16,0,0,1,0-1.61c.14-1-1.81-.75-2,.14s-.83,1.34-1.47,2l1.78,0a2.63,2.63,0,0,1,.78-3.23c1-.81-.51-1.53-1.29-.93Z"/><path class="cls-1" d="M124.1,104.22a4.5,4.5,0,0,0,.34,3c.17.51,1,.28,1.35.16a4.44,4.44,0,0,0,2.59-1.89,3.09,3.09,0,0,0-.43-3c-.17-.28-.8-.2-1-.12l-1.09.35c-.26.09-1,.35-.83.77.24.72.48,1.44.71,2.17s2.16.17,1.93-.52l-.7-2.17-.83.77,1.08-.35-1-.13a2.76,2.76,0,0,1,.46,2c-.17.74-1,1.07-1.6,1.29l1.35.16A4.1,4.1,0,0,1,126,104c.17-.43-.63-.47-.84-.45a1.28,1.28,0,0,0-1.09.68Z"/><path class="cls-1" d="M125,112.11a2.93,2.93,0,0,0,.13,2.25,5.53,5.53,0,0,0,.62,1.12c.18.26.43.64.74.73a1.35,1.35,0,0,0,1.36-.36c.39-.38.29-1.22.29-1.72s-.28-.56-.64-.62l-1.26-.18a1.28,1.28,0,0,0-1.26.58c-.28.56-.63,1-.13,1.59a1.3,1.3,0,0,0,1.28.31,2.08,2.08,0,0,0,.49-.19l.3-.18c.6-.38-.8.34-1.08-.26.39.84,2.3.28,1.93-.51a1,1,0,0,0-1.32-.52,3.1,3.1,0,0,0-.66.32l-.15.11c.3-.21,1,.33.87-.1l0,.36.37-.71-1.26.58,1.26.19-.64-.62c0,.19,0,.37,0,.56s0,.29,0,.44-.15.24.09,0l1.36-.37c.34.37.43.41.26.12-.12-.13-.23-.26-.34-.4a3.43,3.43,0,0,1-.45-.79,2.16,2.16,0,0,1-.23-1.53c.44-1-1.51-1-1.84-.21Z"/><path class="cls-1" d="M148.75,55c.13-.17.14-.21,0-.11a1.17,1.17,0,0,0-.23,1.37c.15.53,1,.46,1.38.26,1.09-.6,2.83-1.83,1.84-3.25a1.77,1.77,0,0,0-2.87.27c-.6,1-1.45,2.08-1.47,3.32,0,1.56,1.86,1.75,3,1.51,2.16-.46,2.06-2.93.82-4.27a2.14,2.14,0,0,0-2.6-.45c-1.24.69-1.46,2.23-1.57,3.51-.05.49.51.57.87.57,2,0,3.05-1,3.91-2.72a.42.42,0,0,0,0-.49c-2.5-2.3-5.56.88-5.67,3.54,0,.57.72.65,1.14.52l3.79-1.24c.34-.11.93-.4.8-.87s-.79-.46-1.13-.35L147,57.35l1.14.52a4.17,4.17,0,0,1,.61-1.94c.34-.61.72-1.16,1.33-.6l0-.49a6.93,6.93,0,0,1-.7,1.21c-.3.38-.73.35-1.18.36l.87.56a5.46,5.46,0,0,1,.56-2.31c.11-.18-.16.06-.36,0s.07,0,.18.15a2.19,2.19,0,0,1,.7,2.29s0,0,0,0a.8.8,0,0,1-.62-.18c-.46-.47.22-1.57.45-2s.38-.64.58-1c.07-.1.13-.2.19-.3.32-.53-.44.46-.93.23.9.43-.31,1.33-.7,1.54l1.38.26a1.32,1.32,0,0,1-.08-.44c0,.15,0,.06.09,0a.83.83,0,0,0,.18-.8c-.18-.83-2.11-.33-1.93.52Z"/><path class="cls-1" d="M157.09,47.48c.11.6-.13,1.19,0,1.8s1.26.32,1.58.11c.66-.42,1.49-1,1.7-1.78a8.24,8.24,0,0,0-.06-2.1c0-.77-1.18-.56-1.6-.27a6.35,6.35,0,0,0-1.59,1.22,3.62,3.62,0,0,0-.21,2.28c0,.44.86.41,1.12.32,1.65-.57,3.2-1.52,3.54-3.36.1-.56-.8-.59-1.13-.48-1.62.53-2.83,1.09-3.65,2.65-.3.56.41.7.8.69A7.22,7.22,0,0,0,163,45.49c.75-.92-1.1-1-1.58-.45-.95,1.18-2,2.24-3.62,2.27l.8.7a3,3,0,0,1,2.14-1.63l-1.13-.49a2.6,2.6,0,0,1-1.9,2l1.12.31a3.21,3.21,0,0,1,0-1.54c.08-.17.83-.53,1.07-.7l-1.6-.27c0,.57.12,1.15.12,1.72s-.59.93-1.05,1.23l1.59.1c-.12-.6.12-1.19,0-1.8-.15-.78-2.08-.3-1.93.52Z"/><path class="cls-1" d="M165.43,40c.57,1.3,2.31,2.08,3.63,2.27a1.75,1.75,0,0,0,1.88-2.68c-1.69-3.2-7.12,1.06-4.61,3.28s6.41-.49,5.14-3.55c-.6-1.46-2.83-1.92-4.15-1.22-1.73.91-1.2,2.38-.65,3.89a.81.81,0,0,0,.87.42,7.34,7.34,0,0,0,2.82-.63c1.65-.86.17-1.86-.88-2.29-.47-.18-1.76.18-1.53.89.11.36.23.72.35,1.08s.54.42.87.42a16.53,16.53,0,0,0,4.77-.92c1.16-.38.84-1.64-.33-1.25a14.69,14.69,0,0,1-4.25.82l.87.41c-.12-.36-.23-.72-.35-1.08l-1.53.89a3.06,3.06,0,0,1,.71.33c.19.23.3.13.32-.3a2.65,2.65,0,0,1-.63.16c-.33.06-.67.09-1,.12l.88.41a13.57,13.57,0,0,1-.54-1.51c-.25-1.07.86-.85,1.34-.3s.42,2.92-.64,2.67c-2.22-.52-.32-2.81.12-2.36a1.82,1.82,0,0,1,.42,1.17c.52-.14.59-.22.23-.25a2.9,2.9,0,0,1-.47-.16,3.23,3.23,0,0,1-1.71-1.25c-.37-.82-2.28-.25-1.93.52Z"/><path class="cls-1" d="M178.14,36.6a6.7,6.7,0,0,0,4.12,2c.43,0,1.49-.26,1.32-.89-.29-1.11-.78-2.66-2.09-2.9a3,3,0,0,0-2.93,1.36c-1.29,1.7-1,4.31,1.62,4,1.16-.16,3.49-.9,3.38-2.39a2.4,2.4,0,0,0-3-2c-1.15.25-2.85,3.34-1,3.34a4.19,4.19,0,0,0,3.9-3.52l-1.94.36c.79,2.24,2.49,2.77,4.71,2.14,1.16-.34.86-1.49-.31-1.15-1.42.41-2-.23-2.47-1.51-.25-.72-1.88-.34-1.94.36a2.49,2.49,0,0,1-.78,1.6,3.33,3.33,0,0,1-.51.4c-.51.34.53.25.63-.28a2,2,0,0,1,.25-.62c-.17.32-.42-.1,0,.28a1.78,1.78,0,0,1,.5.8c.22.67-1.54,1.5-1.81.54a2.75,2.75,0,0,1,.75-2.29c.25-.28-.09-.24.12-.06a4,4,0,0,1,1,2.13L183,37.4a5.11,5.11,0,0,1-3.05-1.61c-.55-.54-2.39.21-1.78.81Z"/><path class="cls-1" d="M193.59,39.88a2.53,2.53,0,0,0,3.13.88,2.47,2.47,0,0,0,1.55-2.12,1.73,1.73,0,0,0-.77-2c-1.17-.52-2.75.63-3.52,1.38A2.49,2.49,0,0,0,195,42.32a3.2,3.2,0,0,0,2.93-.63c.88-.84.51-2.28.2-3.29-.12-.39-1.09-.07-1.31,0l-1.08.36c-.15,0-.59.22-.61.41a4,4,0,0,0,1.1,3.43c.36.39,2.17-.3,1.82-.68a3.66,3.66,0,0,1-1-3.07l-.62.42,1.09-.35h-1.31a4.33,4.33,0,0,1,.25,2.41c0,.1-.2.41-.17.39.5-.28.63,0,.11-.25a2.15,2.15,0,0,1-1.27-2.64,2.59,2.59,0,0,1,.58-.88,3.08,3.08,0,0,1,.43-.38c.54-.43.36,0-.32-.14.43.08.5.84.52,1.17a2.88,2.88,0,0,1-.39,1.54,1.18,1.18,0,0,1-.18.21c.15-.15,1.07-.09.59-.26a2.81,2.81,0,0,1-1-.89c-.32-.39-2.15.27-1.81.68Z"/><path class="cls-1" d="M197.84,42a3.92,3.92,0,0,0,1.47,2.3,1.25,1.25,0,0,0,1.67-.45,4.51,4.51,0,0,0,.58-1.11,7.75,7.75,0,0,0-.16-1.79c0-.46-.84-.52-1.15-.41a3.22,3.22,0,0,0-2.13,1.77,4.86,4.86,0,0,0,.24,3.12c.28.9,2.21.37,1.93-.52s-.87-2.6.32-3l-1.15-.42c0,.35.06.7.1,1,0,.11,0,.22,0,.33s0-.12,0,0c0-.09.12-.24,0,0a7.6,7.6,0,0,0-.46.78l1.67-.45a2.85,2.85,0,0,1-1-1.69c-.29-.89-2.22-.36-1.93.52Z"/><path class="cls-1" d="M199.53,52.84c-1.6,1.32-1.94,3.95,0,5.13a1.31,1.31,0,0,0,1.56-.28,5.32,5.32,0,0,0,1.5-4.08,2.42,2.42,0,0,0-2.1-1.86,3.27,3.27,0,0,0-3,1.28c-1,1.37-.86,3.24-.49,4.81.07.29.38.38.63.43a3.27,3.27,0,0,0,3.87-1.72,5,5,0,0,0-.63-4.24c-.29-.48-1.18-.28-1.53,0a5.28,5.28,0,0,0-1.62,5.9c.2.68,1.19.44,1.6.17.7-.45,1.61-1,1.82-1.89a2.79,2.79,0,0,0-.83-2.19c-.5-.7-2.35,0-1.77.84a3.65,3.65,0,0,1,.69,1.21c.13.49-.89,1-1.18,1.18l1.6.17c-.47-1.59-.43-3.42,1-4.53h-1.52a4.62,4.62,0,0,1,.65,2.64c-.06,1-.5,1.29-1.45,1.1l.63.43a5.66,5.66,0,0,1,0-3.43,1.58,1.58,0,0,1,.59-.73.47.47,0,0,1,.32,0c.43,0,.77.62.86,1.12a4,4,0,0,1-1.21,2.89l1.56-.27a2,2,0,0,1-.26-3.17c1-.84-.55-1.46-1.28-.86Z"/><path class="cls-1" d="M193.24,57.15c-.48,1.05.23,2.19.94,2.94.38.4,1.54,0,1.79-.37.78-1.22,1-3-.74-3.47a3,3,0,0,0-2.52.71,3.65,3.65,0,0,0-1.11,2.52c0,.5.8.4,1.08.3a5.46,5.46,0,0,0,1.46-.59,2.45,2.45,0,0,0,.83-1c.2-.39-.67-.38-.82-.36a1.42,1.42,0,0,0-1.1.63l-.2.36c.12-.12-.12,0,0,0l-.43.15,1.08.3a3.68,3.68,0,0,1,.61-1.88,1.36,1.36,0,0,1,.17-.17c.08-.06.09-.06,0,0,.19-.11-.13.05-.14.05-.17,0,0,0-.27,0,.18,0,0,0,.19.05.91.39.52,1.79.1,2.45l1.79-.36a2.4,2.4,0,0,1-.82-2.48c.18-.39-.66-.38-.82-.36a1.38,1.38,0,0,0-1.1.63Z"/><path class="cls-1" d="M185.2,45.34a11.41,11.41,0,0,0,.33,4.86c.23.75,1.39.32,1.77,0,1.24-1.1,2.5-3.63.42-4.62a3.44,3.44,0,0,0-3.09.18c-.89.63-.44,2.16-.17,3a.66.66,0,0,0,.62.4,4.27,4.27,0,0,0,2.52-.45c.68-.46.61-1.37.62-2.09,0-.3-.15-.41-.41-.53a4.22,4.22,0,0,0-3.08.17c-1.15.37-.84,1.61.33,1.23a2.06,2.06,0,0,1,1.62-.16l-.41-.53a6.62,6.62,0,0,1-.08,1.26c0,.18.24-.23.34-.24a6.43,6.43,0,0,1-.76,0l.62.4a3.08,3.08,0,0,1-.21-2l-.75.53c.72-.21,1.27-.08,1.44.72s-.59,1.7-1.17,2.21h1.76a10.62,10.62,0,0,1-.31-4.52c.13-.93-1.84-.63-2,.18Z"/><path class="cls-1" d="M179.79,49a3.06,3.06,0,0,0,.93,2.9c.39.41,1.62-.1,1.86-.5a3,3,0,0,0,.38-2.94,2.08,2.08,0,0,0-1.93-1,2.32,2.32,0,0,0-2.25,1.29A2.63,2.63,0,0,0,180,51.45a3.42,3.42,0,0,0,3.54-.55c.7-.59,1.37-2.07.45-2.78s-2.35.13-3.05.63a4.08,4.08,0,0,0-1.72,2.2c-.11.55,1.81.22,1.92-.31A2.82,2.82,0,0,1,182,49.3a3.19,3.19,0,0,1,.6-.5c.18-.11.09,0-.14,0s-.31-.07-.13.12c.47.49.06,1.56-.38,1.92-.25.22,0,0,.17,0a1.14,1.14,0,0,1-.4-.15,2,2,0,0,1-.76-.88,2,2,0,0,1-.16-1.65c.1-.2-.35.17-.61.15a1,1,0,0,1,.41.17c1.14.74.65,2.27.09,3.2l1.86-.5a2.68,2.68,0,0,1-.83-2.52c.08-.58-1.84-.21-1.91.31Z"/><path class="cls-1" d="M173.71,53.88c-1.08,1.25-.39,3,.06,4.34.17.52,1.61-.13,1.84-.32A3.1,3.1,0,0,0,177,55.57c0-.73-.73-1.06-1.35-1.12-2.68-.26-3.89,2.25-4.07,4.48,0,.12.29.14.35.15a5,5,0,0,0,3.72-1c1.05-.86.84-2.39.23-3.43-.2-.35-1-.06-1.3,0-1.83.63-3.11,1.68-3.17,3.72,0,.12.28.14.34.14a4.2,4.2,0,0,0,3.57-1.41c.62-.74,1.21-2.11.61-3-.72-1.09-2.86-.36-3.69.17-1,.66-.42,1.81-.1,2.68.17.48,2.08-.11,1.93-.52a7.88,7.88,0,0,1-.47-1.34,1.11,1.11,0,0,1,0-.48c0-.21.26-.24,0-.21.22,0,.42.26.51.43a2.18,2.18,0,0,1-.11,1.64,3.49,3.49,0,0,1-.56.92,3,3,0,0,1-.37.34c-.26.2.36,0-.08,0l.34.15a2.68,2.68,0,0,1,1.91-2.73l-1.3,0c.56,1,.95,3.3-.78,3.11l.34.14a6,6,0,0,1,.76-2.65,2,2,0,0,1,.57-.61c-.35.24-.59,0-.2.2,1.2.65-.22,2.2-.8,2.68l1.84-.33c-.36-1.12-1.15-2.9-.24-4,.41-.47-1.45-.22-1.75.13Z"/><path class="cls-1" d="M166,65.56c.18,1.82,1.35,3.72,3.45,3.07s2-2.36.76-3.86c-.2-.24-.77-.16-1-.08l-.55.18c-.25.08-.79.24-.84.57a7.84,7.84,0,0,0,0,3.73c.2.69,1.73,0,1.93-.39a7,7,0,0,0,.22-5c-.2-.67-1.6,0-1.86.26a5.12,5.12,0,0,0-1,4.76c.1.37.84.26,1.09.18l.54-.18c.25-.08,1-.31.85-.7-.24-1-.1-1.93-.34-2.88-.1-.38-.85-.26-1.09-.18l-.54.17c-.33.11-.85.28-.85.7,0,1.91.14,3.66,1.66,5,.48.43,2.27-.31,1.8-.73-1.46-1.27-1.53-3-1.53-4.77l-.84.7.54-.18-1.09-.18c.24,1,.1,1.93.35,2.89l.84-.7-.54.18,1.08.18a4.57,4.57,0,0,1,.86-4.24l-1.86.26a6.49,6.49,0,0,1-.21,4.73l1.93-.39a7.4,7.4,0,0,1,0-3.47l-.84.57.54-.18-1-.07a3.6,3.6,0,0,1,.79,1.43,1.28,1.28,0,0,1,0,.55c-.07.42-.39.28.23.24-1.09.08-1.44-2-1.5-2.68s-2-.17-1.94.52Z"/><path class="cls-1" d="M169,76.57a2.21,2.21,0,0,0,2,1.52c.39.07,1.49-.09,1.55-.64a5.51,5.51,0,0,0-1.3-4c-.18-.25-.78-.16-1-.08l-.54.17c-.24.08-1,.33-.84.72A9.88,9.88,0,0,0,170.64,78c.37.4,1.79.07,1.86-.5a7.62,7.62,0,0,0-.51-3.56c-.12-.38-.82-.29-1.09-.2l-.54.18c-.35.11-.84.29-.84.72a4.33,4.33,0,0,0,.28,2,3.25,3.25,0,0,0,1.51,1.28c.38.19,1.92-.07,1.74-.72A4.9,4.9,0,0,1,172.9,76a1.91,1.91,0,0,0-.62-1.13c-.36-.38-2.08,0-1.87.63s.47,1.45.71,2.17,2.13.1,1.93-.52-.47-1.44-.71-2.16l-1.86.63c.6.64.41,1.26.64,2l1.73-.71a2.54,2.54,0,0,1-1.17-1,4.28,4.28,0,0,1-.23-1.88l-.84.72.54-.18-1.09-.2a7.19,7.19,0,0,1,.52,3.3l1.86-.5a9.06,9.06,0,0,1-1.71-3.51l-.84.72.54-.17-1-.09a4.93,4.93,0,0,1,1.17,3.55l1.56-.64a1.35,1.35,0,0,1-1.25-1c-.21-.65-2.13-.1-1.93.52Z"/><path class="cls-1" d="M173.25,82.36a5.7,5.7,0,0,0,2.91,3.33c.37.2,1.75,0,1.87-.49a3.94,3.94,0,0,0-2.84-4.74c-.35-.12-1.64.09-1.74.55-.5,2.09.6,3.59,2.17,4.86.3.24,2-.13,1.88-.59l-1.59-4.87c-.12-.37-1.1,0-1.3,0l-.55.18c-.13,0-.7.26-.63.49a16.94,16.94,0,0,0,2.14,4.7c.28.4,1.94,0,1.93-.52a3.87,3.87,0,0,0-2.38-3.51c-.31-.17-2,.06-1.87.59.24,1,.09,1.93.34,2.88.09.37,1.11,0,1.3,0l.54-.18c.12,0,.72-.26.63-.49a8.79,8.79,0,0,0-2.2-3c-.24-.25-1,0-1.24.1l-.54.18c-.18,0-.66.23-.63.49.23,2.54,1.63,4.39,4.3,4.31.21,0,1.51-.26,1.38-.66-.41-1.27-.82-2.53-1.24-3.79l-1.93.51c.51,1.56,1,3.2,2.56,4.06.4.23,1.81,0,1.87-.59a11.15,11.15,0,0,0-.87-4.51c-.15-.48-1.88,0-1.93.51a8,8,0,0,0,.52,3.43c.15.47,2.07-.09,1.93-.52a8,8,0,0,1-.52-3.42l-1.93.51a11.18,11.18,0,0,1,.87,4.51l1.87-.59c-1.45-.83-1.94-2.4-2.44-3.9-.15-.47-2.06.09-1.93.51.42,1.27.83,2.53,1.24,3.8l1.38-.66c-2.17.06-3-2.24-3.2-4l-.63.49.54-.18-1.25.1a8.41,8.41,0,0,1,2.09,2.83l.63-.49-.54.17,1.3,0c-.25-1-.09-1.93-.34-2.89l-1.88.59a3.68,3.68,0,0,1,2.27,3.37l1.93-.52a16.91,16.91,0,0,1-2.13-4.7l-.63.49.54-.17-1.3,0c.52,1.63,1.05,3.25,1.59,4.88l1.87-.59c-1.45-1.18-2.55-2.58-2.09-4.54l-1.74.55a3.62,3.62,0,0,1,2.51,4.31L178,85a5.45,5.45,0,0,1-2.8-3.19c-.17-.47-2.08.11-1.93.52Z"/><path class="cls-1" d="M177.05,92.1a14.25,14.25,0,0,0,3.36,2.69c.5.26,1.74.15,1.73-.64a6.49,6.49,0,0,0-2.37-5.2c-.46-.39-1.74-.07-1.73.64a10.51,10.51,0,0,0,1.87,5.78,1,1,0,0,0,1.06.25l.55-.18c.29-.09.82-.36.79-.75-.16-2.37-.34-4.51-2-6.32-.49-.53-2.13-.23-1.85.69.63,2,.84,4.09,2.53,5.55a1.21,1.21,0,0,0,1.67-.45c.78-1.83.12-3.81-.46-5.61-.3-.91-1.76-.41-1.95.33-.56,2.2-.33,4.54,1.46,6.09a1.22,1.22,0,0,0,1.67-.44,6,6,0,0,0-.55-5.78,1,1,0,0,0-1.06-.26l-.54.18c-.31.1-.81.35-.8.75A3.31,3.31,0,0,0,183.18,93c.5.1,1.25-.23,1.31-.79a4.39,4.39,0,0,0-1.15-3.61,1,1,0,0,0-1.07-.25l-.54.17c-.43.14-.86.44-.79,1s-.1,1.19,0,1.8c.14.92,2.07.43,1.93-.52-.08-.6.1-1.19,0-1.8l-.79.94.55-.17-1.07-.26a3.41,3.41,0,0,1,1,2.89l1.31-.79c-1.11-.22-1.46-1.22-1.49-2.24l-.8.75.54-.18L181,89.61a4.9,4.9,0,0,1,.46,4.67l1.67-.44c-1.48-1.28-1.44-3.35-1-5.09l-1.94.32c.48,1.5,1.2,3.31.54,4.85l1.67-.45c-1.43-1.22-1.56-3.24-2.08-4.93l-1.85.69c1.52,1.63,1.7,3.47,1.84,5.6l.8-.76-.54.18,1.06.25a9.12,9.12,0,0,1-1.66-5l-1.73.64a5.27,5.27,0,0,1,1.9,4.19l1.72-.63a13.13,13.13,0,0,1-3.09-2.41c-.63-.64-2.46.16-1.76.86Z"/><path class="cls-1" d="M183.87,101.18a.64.64,0,0,0,0-.07l-1.93.52a10.16,10.16,0,0,0,1.7,3.28,1.31,1.31,0,0,0,1.8-.34,4.2,4.2,0,0,0-.17-4.6c-.19-.29-.77-.25-1-.16-1,.31-1.34.56-1.63,1.56-.39,1.32.2,2.88.6,4.12.25.77,1.77.25,1.93-.37A10.74,10.74,0,0,0,185,99c-.24-.77-1.79-.26-1.94.36a10.87,10.87,0,0,0,.69,5.93c.25.76,1.57.22,1.87-.2,1.18-1.64,1-3.63,1.84-5.39.43-.93-1.51-.77-1.81-.12-.69,1.48-.47,2.9-.46,4.48,0,.9,1.84.52,1.94-.2a9.16,9.16,0,0,0,0-3.76c-.2-.74-1.87-.3-1.94.36a8.41,8.41,0,0,0,.52,3.58c.23.72,1.87.31,1.94-.36.12-1.14-.52-1.82-.89-2.87-.27-.75-2.11-.26-1.93.52a4.58,4.58,0,0,1,0,1.65l1.94-.36a5.91,5.91,0,0,1-.34-2.73c.09-.7-1-.5-1.37-.37-2.2.88-2.2,3-.52,4.47A1.29,1.29,0,0,0,186,104c1.87-1.24,2.05-3.67-.17-4.68a2.71,2.71,0,0,0-2.92.41c-1,.94-.73,2.45-.47,3.63.1.43.82.39,1.12.3a10.3,10.3,0,0,0,2.1-.68c.67-.38.88-1.28,1.07-2s-1.64-.52-1.88.05-.29,1.33-.55,2c-.33.81.89.69,1.31.53a3.77,3.77,0,0,0,2.54-2.56c.32-1.5-1.45-2-2.56-2.12-.46,0-1.2.2-1.33.71-.32,1.3.08,2.53,1.65,2.08,1.17-.33.88-1.45-.3-1.11.06,0,.5,0,.48,0-.15-.33,0-.82.11-1.14l-1.32.71c2,.2,1.39,2-.07,2.52l1.31.53c.27-.65.29-1.34.55-2l-1.88,0c-.06.22-.45,1-.27,1-.42.13-.85.2-1.26.32l1.12.3a3.78,3.78,0,0,1,0-2.57c.07-.13-.18,0-.23,0a1.7,1.7,0,0,1,.62,3l1.51,0c-.71-.62-1.88-2.18-.47-2.74l-1.37-.37a6.54,6.54,0,0,0,.35,3c.23.73,1.84.3,1.93-.36a5.61,5.61,0,0,0,0-2l-1.93.52c.31.86,1,1.62.88,2.55l1.93-.36a7.77,7.77,0,0,1-.51-3.27l-1.94.36a8.36,8.36,0,0,1,0,3.45l1.94-.2c0-1.41-.28-2.84.33-4.16l-1.81-.12c-.81,1.76-.68,3.78-1.84,5.39l1.87-.2a10.4,10.4,0,0,1-.68-5.61l-1.93.36a10.19,10.19,0,0,1,.13,5.79l1.94-.36c-.46-1.41-1-2.93-.39-4.37l-.76.5.55-.18-1-.16a3.36,3.36,0,0,1,.13,3.69l1.8-.34a9.31,9.31,0,0,1-1.55-3c-.27-.75-2.08-.27-1.93.52,0,0,0,0,0,.06.25.77,2.17.23,1.93-.51Z"/><path class="cls-1" d="M183.48,111.79a7.42,7.42,0,0,0-.19,3.24c.23.88,1.82.4,2-.33.19-1.09.55-2.14.74-3.24.15-.83-1.25-.66-1.62-.36a5.31,5.31,0,0,0-1.62,5.91c.22.77,1.39.42,1.77,0a9,9,0,0,0,2.92-6.64c0-.74-.9-.68-1.41-.49-2.59,1-3.07,3.72-2.93,6.21.06.93,1.33.67,1.79.21a18.21,18.21,0,0,0,3-4.12c.23-.43-.2-.77-.58-.81-3.3-.33-4.33,2.51-3.5,5.27.14.45.77.52,1.15.4l1.62-.53c.34-.11,1-.45.79-.92-.47-1.28-1.35-2.51-2.86-2.36-1.69.16-2.07,1.81-2,3.22.08.88,2,.41,1.94-.52a3.57,3.57,0,0,1,0-.8c.05-.52.32-.39-.1-.5.56.15.88,1,1,1.48l.79-.92-1.63.53,1.15.4c-.3-1-.81-3.52.89-3.35l-.59-.81a16.42,16.42,0,0,1-2.8,3.77l1.79.21c-.1-1.75-.11-4.19,1.83-4.93l-1.41-.49a7.83,7.83,0,0,1-2.57,5.93l1.77,0c-.47-1.6-.42-3.39,1-4.52l-1.62-.36c-.19,1.09-.55,2.15-.74,3.24l1.95-.33a6.54,6.54,0,0,1,.21-2.88c.16-1-1.81-.71-2,.15Z"/><path class="cls-1" d="M180.28,121.88c-.37.38-1.14,1.15-.68,1.72s1.32.32,1.84.2a3.51,3.51,0,0,0,3-4.24c0-.21-.67-.07-.77-.06a4.15,4.15,0,0,0-3.41,2.26,6.64,6.64,0,0,0,.05,4.42c.09.31,1.12,0,1.28-.08,2.38-.88,3.49-2.75,2.12-5.11-.21-.35-1.26.07-1.51.17-1.92.78-2.1,2.49-1,4.13.25.37,1.74-.1,1.92-.44a4.75,4.75,0,0,0,.58-3.86c-.05-.16-.44-.1-.54-.09a5,5,0,0,0-3.06,1.17c-1,1.05-.64,2.44,0,3.57.09.15.4.11.54.09,1.14-.17,2.78-.44,3.55-1.42.94-1.19-.44-2.09-1.47-2.48-.34-.13-1.87.08-1.88.57,0,1.47.17,1.92,1.48,2.59.37.19,1.8-.1,1.88-.57a4,4,0,0,0-.52-3.43c-.23-.34-2,.14-1.93.52.21.95.08,1.93.34,2.88.09.31,1.13,0,1.29-.08l.54-.18c.09,0,.72-.24.64-.43-.3-.77-.91-1.27-1.25-2-.16-.36-1.82.1-1.91.44-.56,2.2.26,3.69,2.63,3.62.2,0,1.73-.24,1.6-.62a4.33,4.33,0,0,0-2.19-3c-.27-.14-2,.18-1.88.58a8.07,8.07,0,0,0,1.6,3.07c.26.29,1,0,1.29-.08l.54-.18c.08,0,.73-.25.64-.43-.27-.56-.79-.9-1.07-1.45s-2.05.27-1.93.52c.28.55.8.89,1.07,1.44l.65-.43-.54.18,1.28-.09a8.21,8.21,0,0,1-1.6-3.07l-1.88.58a4.11,4.11,0,0,1,2.09,2.83l1.6-.61c-2,.06-2.43-1.58-2-3.26l-1.92.44c.34.72.95,1.22,1.25,2l.65-.44-.54.18,1.28-.08c-.26-1-.12-1.94-.34-2.89l-1.93.52a4,4,0,0,1,.52,3.42l1.88-.57a2.63,2.63,0,0,1-1.24-.87,3.6,3.6,0,0,1-.14-1.6l-1.87.57a3,3,0,0,1,1.56,1.06c.46.71-.28,1.41-1,1.51l.53.09a4.41,4.41,0,0,1-.64-1.82c-.06-.54.2-1.62.89-1.7l-.53-.09a4.57,4.57,0,0,1-.55,3.7l1.91-.44c-.64-1-1.34-2.83.15-3.43l-1.51.17c.81,1.41,1.06,3.54-.83,4.24l1.29-.09a8.17,8.17,0,0,1-.37-2.82c0-.81.39-2.55,1.41-2.72l-.77-.05a3,3,0,0,1-1.09,3.21c.58-.34.13.1,0-.43s.37-.92.61-1.17-1.44-.11-1.74.2Z"/><path class="cls-1" d="M175.09,130.18c-.5,1.4.29,3.34.32,4.8,0,.56,1.54,0,1.73-.17a4.34,4.34,0,0,0,1.68-5c-.13-.44-1.08-.15-1.33-.06a4.77,4.77,0,0,0-3,3.17c-.34,1.23.3,3,1.66,3.23,2.66.46,4.07-3.31,3-5.26-.25-.45-1.22-.16-1.54,0a3,3,0,0,0-1.39,3.62,2.25,2.25,0,0,0,2.8,1.7c1.42-.38,2.73-1.69,2.24-3.24a4.36,4.36,0,0,0-3.73-2.52c-.41,0-1.59.11-1.57.72a4.78,4.78,0,0,0,2.68,4.14c.41.23,1.76-.1,1.75-.68-.07-2.34-1.79-3.37-4-3.3-.16,0-1.81.45-1.3.83s.49,1.37.65,2.07l1.93-.52a.69.69,0,0,1,0-.25c.53-.31.43-.68-.19-.68a7.81,7.81,0,0,0-4.94,1.61c-.83.6.82.52,1.12.41a8.13,8.13,0,0,0,4.23-4c.23-.43-.95-.29-1.07-.25a4.53,4.53,0,0,0-3.21,2.51c-.3.58,1.62,0,1.85-.17.74-.7,1.6-1.26,2.35-2l-1.77.05a9.59,9.59,0,0,0-1.57,2.18c-.27.5,0,1,.2,1.47s1.07.15,1.33.06a6.92,6.92,0,0,0,3.43-2.48c.41-.68-1.5-.41-1.78,0A4.7,4.7,0,0,1,175.3,134l1.33.05c-.12-.34-.23-.68-.34-1s1.24-1.84,1.54-2.16-.27-.45-.49-.44a1.93,1.93,0,0,0-1.28.49c-.75.7-1.61,1.26-2.36,2l1.85-.17c.42-.83.62-1.14,1.5-1.43l-1.06-.25a6.3,6.3,0,0,1-3,3.12l1.11.41a3.91,3.91,0,0,1,2.64-.86l-.18-.68c-.46.27-.9.59-.75,1.19s2.06.06,1.93-.52c-.19-.81,0-1.72-.77-2.26l-1.3.83c1.83-.07,2.79,1.14,2.83,2.87l1.75-.69a4.38,4.38,0,0,1-2.31-3.81l-1.57.72c1.94.12,4.27,2.43,2.35,4.11.58,0,.69-.1.34-.22a1.74,1.74,0,0,1-.42-.39,2.82,2.82,0,0,1-.5-1.1,2.26,2.26,0,0,1,.67-2.46l-1.54,0a3.6,3.6,0,0,1-.43,3.81c-.31.27-.18.24.39-.08a1.91,1.91,0,0,1-.4-.49,2.93,2.93,0,0,1,1.41-4.27l-1.32-.06a3.69,3.69,0,0,1-1.27,4.32l1.72-.16a15.86,15.86,0,0,0-.24-2.38,4.78,4.78,0,0,1-.09-2.19c.19-.53-1.72-.28-1.92.29Z"/><path class="cls-1" d="M179.64,123.91c-.55,1.08-.49,3.24,1.13,3.15a4.4,4.4,0,0,0,3.5-1.64,1.56,1.56,0,0,0-.59-2.13c-1.07-.68-2.61-.21-3.65.3-.19.09-.51.28-.34.51.32.42.64.93,1.19,1.05a9.66,9.66,0,0,0,2,0c.23,0,1.51-.26,1.37-.69a6.63,6.63,0,0,0-1.48-2.62c-.3-.31-1.81,0-1.87.5a6.47,6.47,0,0,0,.33,3c.17.51,2.09-.05,1.93-.52a6,6,0,0,1-.34-2.78l-1.87.5a6,6,0,0,1,1.37,2.44l1.37-.68c-.48,0-.95.06-1.42.08.16,0-.07-.09-.16-.16a4.94,4.94,0,0,1-.62-.75c-.11.17-.22.34-.34.51,1.2-.59,2.18,2.17.18,2.28l.56.17a2.4,2.4,0,0,1-.35-2.78c.19-.36-1.65-.2-1.91.31Z"/><path class="cls-1" d="M173,134.66c2.44,2.34,6,1,7.45-1.72.12-.22-1.64-.12-1.9.36s-1,1.92-1.76,1.84a3.6,3.6,0,0,1-2-1.12c-.35-.34-2.08.4-1.82.64Z"/><path class="cls-1" d="M166.56,138.94c-.15,1.58,0,3.32,1.31,4.41a3.41,3.41,0,0,0,3.51.32c2.93-1.27.65-5.93-2-5.53s-3.65,4.63-1.19,6c1.35.74,2.82-.43,3.16-1.69a9.26,9.26,0,0,0-.11-4.76c-.14-.45-1.07-.18-1.33-.08-3.18,1.2-2.39,4.3-1.55,6.9.22.65,1.74,0,1.93-.4a12.31,12.31,0,0,0,.74-3.24l-1.93.4c.18.54.36,1.08.53,1.62s1.9.13,1.93-.39a1.79,1.79,0,0,0-.31-1.25c-.23-.35-.73-.48-.93-.86-.32-.61-2.18,0-1.93.51.38.75,1.3.87,1.25,1.87l1.93-.39c-.18-.55-.36-1.09-.53-1.63s-1.85-.12-1.93.4a12.74,12.74,0,0,1-.74,3.23l1.92-.39c-.49-1.51-1.79-4.89.35-5.7l-1.33-.08a9.49,9.49,0,0,1,.31,2.6,8.27,8.27,0,0,1-.15,1.72,3.56,3.56,0,0,1-.15.56c-.24.73-.52.15.55.23-.78-.06-1.05-1.09-1.12-1.69a3.75,3.75,0,0,1,.63-2.59c-.32.41-.67-.08-.06.34a3.41,3.41,0,0,1,.58.56,4.41,4.41,0,0,1,.9,1.52c.14.38.29,1.39-.23,1.61.25-.11-.24-.08-.45-.17a2.35,2.35,0,0,1-.89-.73,4.82,4.82,0,0,1-.7-3.48c.06-.69-1.87-.3-1.93.28Z"/><path class="cls-1" d="M158.78,144.49c-.27,1.52-.81,2.87-.39,4.42.13.51,1.64,0,1.84-.31a9.52,9.52,0,0,0,1.92-5.6c0-.48-1.55.1-1.71.21-2.06,1.39-2.21,3.39-2.05,5.7,0,.39,1.16.06,1.31,0,1.89-.71,2.48-2,1.9-3.93-.15-.48-1.49,0-1.71.2a3.59,3.59,0,0,0-1.33,4.27c.15.49,1.49,0,1.71-.2a5.78,5.78,0,0,0,2.41-4.62c0-.36-1.91-.09-1.93.52a5,5,0,0,1-2,4l1.71-.2a3.07,3.07,0,0,1,.89-3.64l-1.71.2c.3,1,.57,2.43-.66,2.9h1.31c-.13-1.94-.17-3.87,1.62-5.07l-1.72.2a8.9,8.9,0,0,1-1.75,5.19l1.85-.32c-.4-1.48.11-2.77.38-4.22.09-.52-1.82-.18-1.92.32Z"/></svg>