<svg id="layer1" xmlns="http://www.w3.org/2000/svg" viewBox="0 0 308.19 383.39"><defs><style>.cls-1{fill:#bc7a39;}.cls-2{fill:#dd580e;}.cls-3{fill:#492d0c;}</style></defs><path class="cls-1" d="M290,308.74c-.73-1.46-1.56-2.92-2.29-4.38-.49-1-2.26-1.15-3.5-.69-.58-1-1.15-2.05-1.65-3.12a1.42,1.42,0,0,0-.75-.67l-.47-.82a1.28,1.28,0,0,0,.57-1.68,45,45,0,0,0-2.33-5.25c.49.28,1,.57,1.5.82a2.42,2.42,0,0,0,.73.21l1.38,1.43a2.09,2.09,0,0,0,1,.44c.05.08.09.16.14.23.18.29.35.58.52.89a.7.7,0,0,0,.13.17c.83,1.41,1.61,2.86,2.41,4.27,1,1.7,5.6.9,4.71-1.31-.78-1.93-1.76-3.77-2.54-5.71a1.66,1.66,0,0,0-1.37-.92,31.47,31.47,0,0,0-2.92-3.81,1.43,1.43,0,0,0-.44-.69c-.94-.88-1.92-1.7-2.93-2.48a25.38,25.38,0,0,0-8.28-6,3.49,3.49,0,0,0-1.86-.06c-.84-1-1.68-2.07-2.51-3.14a2.06,2.06,0,0,0-1.28-.66c-1.08-2.47-2.24-4.91-3.44-7.34-1.24-4.29-2.34-8.63-3.49-13.06-.86-3.34-1.87-6.64-3-9.9a73.61,73.61,0,0,0-8.33-21.2c-.83-1.87-1.7-3.71-2.64-5.51l-.39-.88a82.77,82.77,0,0,0-4.74-10.63c-.46-.86-1.88-1.07-3.06-.79a44.35,44.35,0,0,0-4.31-4.36c-1.22-11.35-4.36-22.46-7.82-33.42a61.47,61.47,0,0,0-3.23-11.85c1.31,0,2.69-.71,2.68-1.85-.07-13-3.56-23.75-17.23-27.23a2.71,2.71,0,0,0-.91,0c-.35-.15-.71-.28-1.08-.41h0l-.53-.19a3.35,3.35,0,0,0-2,.19c-.95-.6-1.91-1.18-2.9-1.71-.71-.37-4.43-.77-4.49-.34l-.32-.05c-1.31-1-2.65-1.92-4-2.82a7.92,7.92,0,0,0-2.52-.48,3.08,3.08,0,0,0-.66-.42,30.24,30.24,0,0,1-4.24-2.39,19.54,19.54,0,0,1-3.59-4.54,1.72,1.72,0,0,0-1.06-.61,18.37,18.37,0,0,0-2.05-3.29,10.69,10.69,0,0,0-1.29-1.19c-.15-1.26-.28-2.53-.33-3.82s-4.21-3.62-4.21-2.39v.46a4.83,4.83,0,0,0-.59-.32,2.41,2.41,0,0,0,.24-.21,42.59,42.59,0,0,0,2.76-3.51,2.26,2.26,0,0,0,2.32-.93L179,96.37a2.92,2.92,0,0,0,2.53-1.3l1.52-2.38a2.29,2.29,0,0,0,2.29-1.42c.74-1.88,1.44-3.77,2.06-5.67,1.08-1.87,2.1-3.78,3-5.76a1.79,1.79,0,0,0-.28-2.18v-.1a27.49,27.49,0,0,0,.37-5.66c0-1.56.07-3.11.07-4.68a2.27,2.27,0,0,0-1.21-2,19.93,19.93,0,0,0-1.51-3.57,2.82,2.82,0,0,0-3.8-.78c-.94-3.33-3.48-5.19-8.83-4.19h-6.43a35.77,35.77,0,0,0-3.88,0,2.23,2.23,0,0,0-1.24.48,28.22,28.22,0,0,1-3.26-1.42,2.88,2.88,0,0,0-2.87.25,3.11,3.11,0,0,0-2.81-.47,4.12,4.12,0,0,1-.34-2.21c.24-2.29-3.21-3.39-4.46-1.49a28,28,0,0,0-4,9.43,2.33,2.33,0,0,0-1.37,1.23c-2.84,7.1-2.26,20.56,4.78,25a26,26,0,0,0,11.24,13.76,2.85,2.85,0,0,0,3-.12c.19.18.4.34.6.51.2.58.42,1.16.66,1.73-.07.13-.15.26-.23.39-.73-.66-2.67-2.2-3.31-1.32a25.81,25.81,0,0,0-4.27,11.3c-2.15,2.41-4.4,4.76-6.61,7.15a.49.49,0,0,0-.14.11l-.4.48a.5.5,0,0,0-.07.48,8.9,8.9,0,0,0-1.83,1.42c-.24.22-.09.63.26,1.08a6,6,0,0,0-.75-.32,4.14,4.14,0,0,0-2.78-1.43h-.63c-.28,0-.63,0-.61.36a29.86,29.86,0,0,0,.75,5.28c-.43-.11-.74,0-.75.38a30.71,30.71,0,0,0,7.38,21.14,25.05,25.05,0,0,0,12.94,11.82,6.93,6.93,0,0,0,1.61,1.1,13.64,13.64,0,0,0,5.36,2.3c.23.05,1.15.22,1-.35-.07-.35-.17-.66-.25-1a10.87,10.87,0,0,0,2.31-.45c.79.51,1.64.8,2.1.55a35.18,35.18,0,0,0,9-7A56.41,56.41,0,0,0,199.53,168a13.16,13.16,0,0,0,4.08.45,25.09,25.09,0,0,0,2.67,2c1,2.15,0,7.62,1.42,9.58,2.21,8.79,4.06,16.57,7.09,25,1.86,8.55,7,14.46,9.58,22.82.44,1.38,2.58,1.65,3.91,1,.22.65.44,1.31.67,2a1.84,1.84,0,0,0,1.8.95c2.39,4.42,4.95,8.76,7.72,13a2.07,2.07,0,0,0,1.31.75q7.53,13.78,15.88,27.09c.8,1.32,1.62,2.62,2.48,3.89a2,2,0,0,0,1.18.71c.52,1.25,1.08,2.49,1.65,3.71a3.34,3.34,0,0,0-.3-.38,32.54,32.54,0,0,0-14.32-7.95l-.08-.05h0a23.25,23.25,0,0,0-10.45-5.32l-2-1c-1.17-.64-2.37-1.26-3.61-1.81-.86-.38-.28,1,.49,2.13a9.77,9.77,0,0,0-6,.9,60.8,60.8,0,0,0-8.14,2.38,62.54,62.54,0,0,0-18.6,6.66c-.25.14-.19.53,0,1-1.94-.85-3.91-1.66-5.9-2.39,11-6.65,19.81-17.86,32.83-18.1a36.6,36.6,0,0,0,5.06.45c2.37,0-1.19-3.57-2.37-3.8-.88-.17-1.73-.27-2.57-.35l-1.89-1.89c-.34-1.16-2.15-3.38-3.54-2.8l-.44.17a.85.85,0,0,0-.53.19c-.1,0-.21.06-.31.09a2.7,2.7,0,0,0-1.32-1c-4.43-.8-8.76,1.44-12.72,3.16-1.95.85-3.91,1.7-5.91,2.42-2.07.39-4.13.77-6.21,1.05a4.19,4.19,0,0,0-1.56-1c-3.53-.8-6.71-1.82-10.35-1.43-1.13.12-.18,1.38.84,2.38H180c-.08,0-.14.13-.2.14a1.07,1.07,0,0,0-1,.19,1.5,1.5,0,0,0-1.34.08,14.75,14.75,0,0,0-5.81,10.29c-.1.36-.19.72-.27,1.09a1.85,1.85,0,0,0-.25-.32l-1.28-1.24c-4.6-4.62-8.25-10.19-14.36-13a3.17,3.17,0,0,0-3.62,1.24,8.84,8.84,0,0,0-2.35,1.25l0,0c-1.08-.11-2.17-.15-3.31-.16-1.32,0-2.92,1.51-2.86,2.64l-.21.16a8.33,8.33,0,0,0-.82.34,18.29,18.29,0,0,0-8.16-1.27,19.38,19.38,0,0,0-3.21-.49,29.65,29.65,0,0,0-4.92-1.91c-.28-.29-.58-.56-.88-.82l0-.06c.34-.91-.49-1.55-1.25-1.73-3.79-.88-8-.41-10.82,1.94-1.32.19-2.46,1-4.09,2.92-1,1.16-.58,2,.28,2.42-.74.67-1.47,1.33-2.19,2-1.26,1.22-.31,2.76,1.28,2.7,3.92-.15,7.66-1.07,11.44-1.49a6.83,6.83,0,0,0,1.34-.13,23.1,23.1,0,0,1,6.13.28c4.44.84,8.54,2.57,12.89,3.16a8.43,8.43,0,0,0,3.19.32,7.5,7.5,0,0,0,2.1,1.05c2.14,3.55,6.27,5.75,10.65,6.83a23,23,0,0,0,2.64,1.92,43.41,43.41,0,0,0-7.08,2.76,2.93,2.93,0,0,0-1.46-.72,31,31,0,0,0-6,.75,6.33,6.33,0,0,0-1.38-2c-5.76-4.24-12.45-6.09-19.34-7.15a27.72,27.72,0,0,0-12-1.71l-.24.05-.39-.05a1,1,0,0,0-.63.09c-6.66-1.08-14.47-2.9-19.33,2a2.72,2.72,0,0,0-.93,2c-.25.14-.5.27-.74.42a45.65,45.65,0,0,0-9.33,4.65c-1.78.79-3.51,1.69-5.21,2.65a1.92,1.92,0,0,0-.22-.18l.39-.89a2,2,0,0,0,.6-.66q2.76-4.55,5.38-9.18a1.54,1.54,0,0,0,.67-.51c4-5.28,8-10.71,11.87-16.34a2,2,0,0,0,2.72-.16A135.63,135.63,0,0,0,109.26,231c5.07-7.85,9.62-17.14,11.59-26.65q.8-2.35,1.52-4.74a2.84,2.84,0,0,0-.56-2.34c.07-1.28.11-2.56.07-3.83a2,2,0,0,0-.33-1c1.22-3.33,2.32-6.73,3.26-10.21,8.58-12.08,8.46-28.81,11-42.85a2.73,2.73,0,0,0-1.09-2.33,52.34,52.34,0,0,0,.45-5.92c0-2.24-3.23-4.13-4.31-2.1a3.7,3.7,0,0,0-.82-.24c-4.57-.76-8.14.55-10.46,3.56a9.7,9.7,0,0,0-3.12,2.85c-4.6,3.67-5.38,11.21-4.66,17.58-.21,3.14-.22,6-.23,8a3.44,3.44,0,0,0,1.21,2.41,155.25,155.25,0,0,0-5.72,20.95c-.84,3-1.66,6-2.48,9a2,2,0,0,0,.47,1.76l-.72,4.3c-.68.54-1.32,1.12-2,1.73-11,4.63-17.36,19.85-20.5,30.4a2.48,2.48,0,0,0,0,1.43c-.73,2.22-1.36,4.48-1.93,6.76-5.29,10-7.2,22.2-8.72,33.18-.12.21-.26.42-.38.62a35.61,35.61,0,0,0-6.45,6.65,11.22,11.22,0,0,0-7.94,4.56,12.89,12.89,0,0,0-4.65,3l-.27.12a2,2,0,0,0-2.69.79c-.11.25-.2.49-.31.74s-.44.48-.65.7a1.83,1.83,0,0,0-.39,2c-.5,1.52-.93,3.07-1.34,4.65-.51,2,2.63,3.95,4.12,2.42a55,55,0,0,1,6.77-6.17l.37-.26a1.81,1.81,0,0,0,.67-.21,11.53,11.53,0,0,0,1.59-1c.18,0,.3,0,.33.09s.07.29.1.44a19.26,19.26,0,0,0-3,5.13,1.78,1.78,0,0,0-2,1l-.07.11c-2.79,1.69-4.22,4.6-5,8-.37.54-.57,1.09-.94,1.64-1.09-.82-3.32-.92-3.32.93v3.81c0,1.41.85,3,2.43,3a3.22,3.22,0,0,0,.79-.1c.32,2.32-.94,4.59-3.06,6.92-1.76,2,1.83,5.41,3.64,3.41s3.79-4.06,5.8-6c1,1.06,2.66,1.43,3.38-.19.19-.45.41-.88.61-1.31a26,26,0,0,0,7.12,7.7c.45.29,2.12,1,2.29.16,4.67.72,10.28-1.48,15.24-3.16a20.53,20.53,0,0,0,2.06.13,2.28,2.28,0,0,0,.47.22c14.22,3.54,30.11-5.27,42.05-13.65a47.23,47.23,0,0,0,8.55-4.88,1.78,1.78,0,0,0,1,.17c12.18-3,22.81-10.46,33-17.52a63.69,63.69,0,0,0,7.8-3.55,64.6,64.6,0,0,0,16.07,8.65c5.76,6.34,14.05,10.23,21.68,13.84a120.45,120.45,0,0,1,14.8,8c4.31,2.81,8.61,5.65,13.34,7.52a.39.39,0,0,0,.22.45,22.41,22.41,0,0,0,10.47,3.2,7.36,7.36,0,0,0,3-1.73c.5,0,1-.08,1.5-.14l.55,0a.92.92,0,0,0,.26-.07c.55-.08,1.1-.16,1.65-.27a14.3,14.3,0,0,0,2.78-.47,16.69,16.69,0,0,0,3.25.78,3.22,3.22,0,0,0,1.54-.45,6.84,6.84,0,0,0,2.26,1.72c.93.45,4.18-1.47,4.1-2.54a5.21,5.21,0,0,0-1.49-3.4c1.43-.63,3.1-2.26,2.73-2.54a2.07,2.07,0,0,0-1.85-.14c.54-.46.85-.89.58-1.13a7.75,7.75,0,0,1-1.35-1.6c-.1-.28-.21-.56-.32-.84a12.16,12.16,0,0,0-.72-1.88,85.65,85.65,0,0,0,5.81,7.27,1.6,1.6,0,0,0,.53.36,40.17,40.17,0,0,1,3.62,6.91c.65,1.63,5.19,1,4.85-.91a25.17,25.17,0,0,0-.89-3.39c1.39-.14,2.68-.81,2-2.08s-1.26-2.39-1.9-3.56c1.08-.13,2.22-.62,2.24-1.47.71-.31,1.44-.84,1.44-1.55v-2.32C291.93,309.24,290.94,308.82,290,308.74ZM154,150.16a36.3,36.3,0,0,1-3-9.52l.06,0a28.15,28.15,0,0,0,1.86,4.07,20.9,20.9,0,0,0,3.21,7.37A16.61,16.61,0,0,1,154,150.16Zm3.29,4.93c.35.21.7.42,1.07.61a6.9,6.9,0,0,0,1,.43c.55.61,1.12,1.2,1.72,1.76,0,.08,0,.17.05.25A14.68,14.68,0,0,1,157.28,155.09Zm44.25-3.91.12,0a.81.81,0,0,1,0,.16A2.39,2.39,0,0,0,201.53,151.18Zm-1-2.43-.92-.5c-.22-.34-.44-.68-.67-1C199.46,147.75,200,148.25,200.52,148.75Zm-72.47-9.36a2.48,2.48,0,0,0-.78-.39,5.19,5.19,0,0,1,.84-.6Q128.09,138.89,128.05,139.39Zm.36-6.17a.37.37,0,0,0,0,.11,7.93,7.93,0,0,0-2.09.54v-.07a.8.8,0,0,0,0-.15A6.88,6.88,0,0,1,128.41,133.22ZM62.61,312.33c.46-.81.93-1.62,1.4-2.42.29-.43.56-.88.84-1.33a1.56,1.56,0,0,0,1.38,0l.19-.12c-.45.39-.9.78-1.34,1.18-1.28,1.17,2.22,3.84,3.41,3.55.81-.19,1.62-.42,2.44-.66l.12.15a27.49,27.49,0,0,0-1.79,2.66A6.21,6.21,0,0,0,62.61,312.33Zm8.83,10.28a11.29,11.29,0,0,1-3.6.19c-.08-.14-.17-.27-.25-.4.22.1.46.2.71.29a.88.88,0,0,0,1.25-.41,8.19,8.19,0,0,0,.78-3c.48.14,1,.29,1.43.47-.32.24-.65.47-1,.72C70.13,321,70.62,321.85,71.44,322.61Zm26.11-50.48a3.57,3.57,0,0,0-1-1.35l.24-.16a7.59,7.59,0,0,0,1.28,1.53Zm24.64,11a5.66,5.66,0,0,0-.42-.43c1-.08,2-.17,3.06-.28l.08.08C124,282.69,123.09,282.9,122.19,283.13Zm17.59-3.89a40.35,40.35,0,0,0-6.21-.18,2,2,0,0,0-.09-.42l.82.26c.91.27,1.18,0,1.1-.5l1.44.5c.84.28,1.14.07,1.13-.35l.28.14c1.5.77,1.76.05,1.46-.89.75.19,1.49.4,2.23.64C141.21,278.68,140.49,278.94,139.78,279.24Zm86.67-.31c-.21-.21-.41-.43-.6-.65.54.2,1.08.42,1.61.66C227.12,278.93,226.78,278.92,226.45,278.93Zm2.46,26.59c2.26.92,4.52,1.86,6.75,2.84.43.32.85.65,1.27,1C234.23,308.12,231.55,306.85,228.91,305.52Zm10.28-7.46a9.28,9.28,0,0,1-1.58-1.8,23.93,23.93,0,0,0,2.95,2.25l.32.55C240.33,298.71,239.76,298.38,239.19,298.06Zm11.66-8.7-.16-.25c1.35.52,2.7,1,4.05,1.49Zm8.55,2.69-1.15-.35a.33.33,0,0,0,.06-.32c.6.16,1.2.32,1.8.46Zm5-.14A9.82,9.82,0,0,0,263.2,290c-.38-.34-.78-.68-1.18-1a1,1,0,0,0-.06-.48c.16-.14,0-.57-.27-1.1l1.17.45a1.26,1.26,0,0,0,.28.07c.42,1.26.86,2.5,1.34,3.74A1.47,1.47,0,0,0,264.38,291.91Z"/><path class="cls-2" d="M206.46,244.59a31.75,31.75,0,0,0-6.29-13.8,90.06,90.06,0,0,0-2.84-14.65c.24-6.43.74-12.85,1.27-19.26.08-.79.16-1.58.2-2.37,0-.12,0-.22,0-.33.08-.34.16-.67.25-1l.09-.11a27.44,27.44,0,0,0,2.36-4.56,3.26,3.26,0,0,0,.85-1.06l.8-1.6a3.66,3.66,0,0,0-.57-4.07,3.66,3.66,0,0,0,.75-1.5,3.2,3.2,0,0,0,1.28-.59,2.65,2.65,0,0,0,1.77-.84c3-.35,3.9-5.59.29-7-1.82-.69-3.7-1.25-5.57-1.85-.54-.33-1.08-.66-1.61-1a3,3,0,0,0-2.44-.47l-.77-.34a3.55,3.55,0,0,0-3.41.15l-1-.64-.06,0a3.53,3.53,0,0,0-1.93-1.23c-3.38-4.43-7.58-8.06-11.78-11.73q-3.79-3.89-7.83-7.55c-5.31-6.6-7.94-15.07-13.34-21.73-1.41-1.74-3.77-1.2-5.06.23a3.76,3.76,0,0,0-2.74,0,3.52,3.52,0,0,0-2.67-1.21,3.38,3.38,0,0,0-1.76.11c-1.17.38-2.33.75-3.47,1.15a16.25,16.25,0,0,0-5.11,2.23,2.73,2.73,0,0,0-2.65-.17,99.46,99.46,0,0,0-12.87,6,3.39,3.39,0,0,0-1.39,1.46c-6.84,5.42-9,15.68-10,24a2.83,2.83,0,0,0,.87,2.43,89.46,89.46,0,0,0-3.47,10.73q-1.14,3.78-2.16,7.61a37.1,37.1,0,0,0-2.36,9.59c-.55,2.45-1.07,4.92-1.54,7.4a3.51,3.51,0,0,0-.84,1.42c-1.13,3.66-1.79,7.06-4,9.91a4.38,4.38,0,0,0-.76.58l-2.4,2.41a3.09,3.09,0,0,0-.9,1.75c-.7,1-1.38,2-2.06,3a3,3,0,0,0-.33,2.77,3.59,3.59,0,0,0,2.43,4c1.45.42,2.92.73,4.35,1.17,3.21,1.57,5.81,4.5,8.36,6.87,3.73,3.47,7.87,6.26,13,7.2a3.62,3.62,0,0,0,2.72-.53c.09.08.19.14.28.21a3.87,3.87,0,0,0-1.34.89L116.61,241a3.5,3.5,0,0,0-.64.89c-1.62,1.6-3.31,3.13-5,4.72-3,2.86.79,7.25,4.24,5.5a78.22,78.22,0,0,1,7.35-3.62,6.33,6.33,0,0,1,1.48-.38c1.81,5.9,8.16,7.54,14.27,7.69a3.24,3.24,0,0,0,1.44-.31,16.57,16.57,0,0,0,5.74-1.24,16.88,16.88,0,0,0,2.45-.06,3.63,3.63,0,0,0,3.5-3.5c0-.19,0-.38.05-.57a3.54,3.54,0,0,0,3,.74c.18,0,.34-.05.52-.08a18.37,18.37,0,0,0,5.3.53,11.91,11.91,0,0,1,5.92,5.93,4,4,0,0,0,.44.79c.1.76.18,1.52.24,2.29a3.5,3.5,0,0,0,7,0c.18-3.05,2.46-3.48,4.68-5a3.45,3.45,0,0,0,1.55-2.64h1.5a4.55,4.55,0,0,0,.66-.1A23.22,23.22,0,0,0,207.4,250C209.63,248.21,208.49,245.6,206.46,244.59Zm-94.89-43.27-.29-.18a68,68,0,0,0,2.15-7,39.61,39.61,0,0,0,1.08,4.09A4.13,4.13,0,0,0,111.57,201.32Zm33.11-64.39c.83.9,1.64,1.82,2.43,2.74,0,.06,0,.11,0,.16l-.4,0L144.59,137Zm2.69,10a.74.74,0,0,0-.19.16c-.64-1.33-1.24-2.67-1.81-4l.22.29s0,0,0,0c.64,1.15,1.28,2.31,1.9,3.48A.75.75,0,0,0,147.37,147Zm.68,79.6,1.13.57c.23.53.48,1,.74,1.56C149.31,228,148.69,227.28,148.05,226.58Zm1.46-11.5c-.15-.94-.34-1.87-.57-2.8q1.89,2.43,3.82,4.79a4.42,4.42,0,0,0-.63,1C151.24,217.08,150.36,216.09,149.51,215.08Zm3.27,20.32-.09,0a3.34,3.34,0,0,0,.46-1.45c.22.3.46.59.7.88A5.3,5.3,0,0,0,152.78,235.4Zm15.63,13.18a19.5,19.5,0,0,0-1.78-1.49,5.4,5.4,0,0,0-.09-.58c0-.12,0-.25.05-.37a3.2,3.2,0,0,0,.27-.25c.86.49,1.72,1,2.6,1.38l.31.12A3.18,3.18,0,0,0,168.41,248.58Z"/><path class="cls-2" d="M228.35,262.08c-3.42-2.34-6.4-3.37-10.59-2.89a3.77,3.77,0,0,0-3.27,2.51h0a3.68,3.68,0,0,0-4.08-.43,61,61,0,0,0-5.61,3.2,3.58,3.58,0,0,0-1.15,1.21,53.5,53.5,0,0,0-8.48,5.21c-2.85,2.18-1.3,8,2.7,6.4,7.12-2.92,14-6.42,21.47-8.37a15.38,15.38,0,0,1,1.54.35,3.17,3.17,0,0,0,3.71-1.33l.26.17C228.55,270.68,232.05,264.61,228.35,262.08Z"/><path class="cls-2" d="M153.58,270.42a67.51,67.51,0,0,1-13.5-2.75,27.1,27.1,0,0,0-10.44-4.34,3.45,3.45,0,0,0-2.15.22c-.35-.07-.49-.15-.84-.22a3.9,3.9,0,0,1-.72-.12v.44h-.44c-4.19-1-8.37-1-12.59-1-1.91-.3-3.82-.41-5.72-.8-4.4-.92-6.27,5.77-1.86,6.69a24.53,24.53,0,0,0,3.06.36,3.34,3.34,0,0,0,1.88.53c3.68,0,7.35,0,11,.29a3.15,3.15,0,0,0,.9.37l9.62,2.41a3.79,3.79,0,0,0,1.32.09,75.67,75.67,0,0,0,20.47,4.84C158.07,277.89,158,270.88,153.58,270.42Z"/><path class="cls-2" d="M158.23,31.85c-6.44,3.89-8.75,12.8-8.95,19.87-.09,3.1,3.85,4.58,6,2.48,4.83-4.78,16.21-15.07,9.87-22.32-3.94-4.5-10.47-1.3-13.57,2.24a29.9,29.9,0,0,0-7.08,16.8,3.49,3.49,0,0,0,3.5,3.5c7.55-.66,13.25-8.83,13.27-16.08,0-8.75-10-9.37-14.73-4.07-3.4,3.79-7.76,13.09-2.27,17C151,56,156.41,46.07,156.89,40.7,157.5,33.78,153,27,145.47,30.6c-5.06,2.41-7.36,13.72-1.5,16.48,7,3.31,13-10.16,8.45-15a5.77,5.77,0,0,0-7.55-.64c-3.73,2.39-4.54,7.37-4.41,11.42.08,2.79,3.91,5,6,2.47a14.4,14.4,0,0,0,3.43-8.89,3.52,3.52,0,0,0-4.43-3.38c-6.14,2-8,8.73-8.18,14.61-.1,2.95,3.95,4.77,6,2.47,2.8-3.17,3.28-6,1.35-9.85-1.25-2.47-4.7-2.08-6,0-2,3.14-2.1,5.49.54,8.25l-1-2.47c0,1.69.61,4.08-.58,5.54-1.41,1.72-1.39,4.28.71,5.5a8.36,8.36,0,0,0,4.17,1.28c2,.16,3.42-1.72,3.5-3.5.17-3.6-.68-5.31-4.17-6.58-2-.73-4.68,1.2-4.43,3.37.46,4.07,2.47,6.31,5.74,8.64a3.5,3.5,0,0,0,5.13-2.09c.73-4.16,1.81-8.05-4.19-8.45v7c8-.27,18.11-3.59,22.29-10.55a3.58,3.58,0,0,0-.54-4.24c-3.93-4.56-10.94-3-11.9,3.18-1.26,8.25,8,9,13.6,6.32,3.6-1.74,6.22-4.58,6.24-8.74a7.35,7.35,0,0,0-6.05-7c-5.85-.85-13.93,9.14-8.59,14,4.18,3.81,11,.86,14.36-2.63,4.77-4.9,1.16-12.14-5.31-12.45-5.37-.26-13.86,5.62-14.11,11.35-.35,8.25,11.08,5.09,14.9,2.25,4.7-3.5,12.51-11.91,7.63-18s-13.89-2.2-16.77,3.59c-2.43,4.89-1.18,13.74,6.21,11.32,6.93-2.26,12-13,4.87-17.94-7.55-5.25-13.29,4.37-13,11.07.36,7.56,8.22,6.14,12.11,2.35,4.86-4.74,6-12.6.59-17.33-4.78-4.2-11.28-3.17-14,2.63-1.68,3.56-2.45,8.71.14,12,3.61,4.61,8.4-1,10.2-4.12,2.56-4.44,5.76-14.7-1.56-16.84-7-2.05-9.69,6.11-9.54,11.45a3.53,3.53,0,0,0,4.43,3.37c5.84-1.83,8.23-7.34,7.25-13.13-.34-2-2.58-2.71-4.3-2.44-3,.47-4.62,2.36-5.81,5.06-1.76,4-8.44,5.61-11.87,8.13l3.53,6c5.42-4.08,9.8-9.58,15.64-13,4.15-2.47,10.05,5.83,13.72,7.43s7-2.38,4.24-5.49c-5.19-5.83-19.7-8.93-17.43,3.08,1.6,8.49,17.4,15.14,21.35,5.28,3.26-8.1-12.48-20.83-18.52-12.4-6.56,9.16,8.9,16.82,16.13,17.23a3.48,3.48,0,0,0,3.5-3.5c-.69-7.33-7.6-13.76-14.6-15.4-2.72-.64-5.88,2.48-4,5.14,4.31,5.93,10.84,10.65,18.13,12,4.4.83,6.22-5.4,1.87-6.75-7.86-2.42-11.25,8.13-11.39,14C177.4,51.82,189,54.91,189.85,45c.3-3.63.13-8.26-2.89-10.81-2.54-2.15-6-1.58-8.41.53-6.26,5.57-4.86,14.45,1.34,19.24,2.33,1.8,5.05-.73,5.27-3,.4-4.19.54-8.89-2.44-12.21-2-2.21-5.47-2-7.76-.49-6.75,4.56-3.85,13.43,2.53,16.52,2.25,1.1,5.37-.18,5.26-3-.21-5.34-3.91-12.2-10.09-8.08-4.9,3.26-3.19,9.75,2.45,10.65a3.53,3.53,0,0,0,3.41-5.85c-5.27-6.35-15-2.09-21.73-1.82A3.53,3.53,0,0,0,155,53.14a9.61,9.61,0,0,0,7.57,1.45c3.29-.79,6.37-2.59,9.7-1,5.35,2.61,9.73,6.16,16.08,4.5,10-2.62,2.69-16.25-1-20.9-2-2.51-5.94-.31-6,2.48-.08,6.33-.11,11.89,4.23,16.91a3.49,3.49,0,0,0,5,0c5.62-6.68,3.1-18-.25-25.15a3.51,3.51,0,0,0-3-1.8h-.8c-2.09,0-3.25,1.67-3.5,3.56a22.43,22.43,0,0,0,3.69,16.24c1.93,2.71,6.52,1.95,6.52-1.76,0-8.67-.15-24.07-11.39-25.82-3-.47-6.51,3.42-3.41,5.85s5,5.13,8.76,6.52c3.53,1.31,5.56-3.46,3.41-5.85-1.4-1.56-2.61-3.26-4-4.81-1.14,2-2.27,4.07-3.41,6,8.94,2.31,7.1,12,7.06,20h7c-.12-5-1.11-8.62-3.69-12.36-1.84-2.68-6.68-2-6.52,1.68.14,3.22.66,6.36.8,9.58.13,2.92-1.23,4.1-3,6.24s-.81,5.86,2.47,5.86h1.61a3,3,0,0,0,3.05-3.31v-.69a3.51,3.51,0,1,0-7,0v1a3.51,3.51,0,1,0,7,0v-1a3.51,3.51,0,1,0-7,0v.69c2-1.17,2.78-2.69,3.95-3.69h-1.61c.83,2,1.65,4.08,2.48,6.07,1.79-2.19,3.61-4.09,4.58-6.79,1.55-4.29-.16-9.69-.35-14.07l-6.52,1.78a14.85,14.85,0,0,1,2.73,8.67c.12,4.5,7,4.52,7,0,.07-10.86.64-23.32-12.19-26.64a3.53,3.53,0,0,0-3.41,5.86c1.4,1.56,2.61,3.25,4,4.81L189,27.49c-2.29-.86-3.8-3.25-5.68-4.72l-3.4,5.85c7.12,1.11,6.25,13.75,6.25,19.09l6.52-1.77c-2.77-3.89-3.34-8.07-2.73-12.73-1.17,1.17-2.33,2.44-3.5,3.44h.8c-1,0-2-1.09-3-1.67,1.81,3.89,4.51,12.67,1.35,16.67h5c-2.89-3-2.23-7.87-2.18-12l-6,2.47a21.17,21.17,0,0,1,3.76,7.23c1.18,4-4.07,1.76-6.08.7-3-1.58-5.73-3.89-9.27-4.18-3.73-.3-9.09,3.17-12.24,1.18l-1.77,6.53c4.23-.17,13.68-4,16.78-.23l3.4-5.85c-1.9-.3-.7,2.09-.34,1.85a1.31,1.31,0,0,1-1.19-.16,6.77,6.77,0,0,1,.31,2.49l5.27-3c-1.53-.74-4.15-2.32-2.53-4.32.75-.92-.23,0-.63-.6,1.17,1.78.48,5.21.3,7.14l5.26-3a5,5,0,0,1-1.52-6.17,4.51,4.51,0,0,1,1.39-1.89c.51-.23.22-.35-.85-.36.44.38.5,2.23.53,2.61,0,.63,0,1.25,0,1.87-.51,1.44.1,1.67,1.84.66-.5-.41-.14-2.73-.06-3.28.14-.94,1.39-5.82,2.42-5.5q.95-3.37,1.87-6.75a22.9,22.9,0,0,1-14-8.82c-1.31,1.72-2.63,3.43-4,5.15,3.66.85,9.07,4.54,9.46,8.65l3.5-3.5c-3.31-.19-7-2.21-9.49-4.35-1.92-1.67-.94-1.88.86-.85a10.41,10.41,0,0,1,4.18,4.88c.58,1.47-6.42-2.38-7.36-3.67-.82-1.11-1.09-.7-1-.71a7,7,0,0,1,2.23.6,10,10,0,0,1,4.06,2.86l4.24-5.5c-5.78-2.54-8.62-8.59-15.45-8.94-8.17-.42-15.19,10.21-21,14.56-3.55,2.66-.14,8.72,3.53,6,3.31-2.42,7.06-4,10.53-6.12A8.52,8.52,0,0,0,162.22,27c.62-1.1,1.23-3.77,2.72-4l-4.31-2.45c.32,1.91-.39,3.9-2.36,4.52l4.43,3.38c0-1.62-.19-3.57,1-4.86-.3.33-1.1-.39-1,0a5.48,5.48,0,0,1-.3,2.94,19,19,0,0,1-2.62,5.34,5.07,5.07,0,0,1-.72.91l2.64.47c.43.83.53.93.31.31-.86-2.91.88-7.58,4.16-4.7,2,1.74.56,4.68-.78,6.32a7.54,7.54,0,0,1-2.26,1.87c.13-.07,1.38.25,1.6.91a5.25,5.25,0,0,1,.22-2.16c1-5,3.56-1.91.57,1.4a5.44,5.44,0,0,1-2.11,1.42c2.2-.72,1.86,2.21,1.9.28a6,6,0,0,1,1.43-3.29,3.21,3.21,0,0,1,2.86-1.26c2,0,1.45.43.67,2a19.17,19.17,0,0,1-7.16,7.36,6.64,6.64,0,0,1-3.57.74c2.84,0,.51,3.35,1.8,1.37a8.77,8.77,0,0,1,1.45-1.47c.88-.82,4.83-3.84,5.89-2.23,0-.05-2.68,1.82-3.51,2.11a3.86,3.86,0,0,1-1.8.31c1.4.3.85,2.27,1.24.84a7.06,7.06,0,0,1,1.62-2.57c.58-.64.06,1.07-.11,1.28a7.58,7.58,0,0,1-5.87,2c1.35.28-.88-.69.45.86l-.54-4.25c-2.82,4.7-11.11,6.91-16.23,7.09-4.55.16-4.48,6.68,0,7l-1.42-.93-.36-2.69c-.19,1.12-.6,2.08-.8,3.21l5.14-2.1a4.6,4.6,0,0,1-2.27-2.59l-4.43,3.38c-1.27-.47-.82-3.27-1-.17l3.5-3.5-.64-.32c.24,1.83.47,3.66.71,5.49a11,11,0,0,0,2.76-6.75,16,16,0,0,0-.26-4.78c-.87-3.19-2.08,1.58-.35-1.42h-6a7.51,7.51,0,0,1-.26,1.48c2,.83,4,1.7,6,2.53.07-2.28.39-7,3-7.83-1.47-1.13-2.95-2.24-4.43-3.36a5.87,5.87,0,0,1-1.38,4l6,2.47a9.73,9.73,0,0,1,.73-4.89c.62-1.26-1-2.41-1.26-.72a6.87,6.87,0,0,1-1,2.57q-2,1.78,1.86,1.53a4,4,0,0,1,0-2.19c.21-1.34,1.47-3.92,2.12-1.74s-.21,5.17-1.41,7.13a2.21,2.21,0,0,1-.58.56c-.91.09-.62.37.86.84a5.09,5.09,0,0,1,.42-2.27,12.87,12.87,0,0,1,3.45-5.65c2.05-2,1.53,1.93,1.21,3-.67,2.27-3.18,6.14-5.81,6.37l3.5,3.5c.16-3.06,1.73-6.22,3.13-8.86a17.82,17.82,0,0,1,3.29-4.46,2.23,2.23,0,0,1,2-.78c1.07.22.15-.67.08-.22-.79,4.81-6.39,9.38-9.7,12.65l6,2.47c.12-4.44,1.36-11.33,5.49-13.82,3.86-2.33.34-8.38-3.54-6Z"/><path class="cls-3" d="M173.6,71.37c4.25,1.37,10.59,2.78,14.06-1,.78-.86-1.1-.88-1.56-.37-2.72,3-8,1.33-11.33.27-.65-.21-2.27.74-1.17,1.1Z"/><path class="cls-3" d="M149.28,73.14a15.27,15.27,0,0,0,12.15-1.49c1.13-.64-.63-.69-1.15-.39a11.6,11.6,0,0,1-9.43,1c-.5-.15-2.24.62-1.57.83Z"/><path class="cls-3" d="M158.69,105.08c-3.94,7.86-7.8,14-16,18-6.28,3.06-13.17,4.62-19.35,7.94a24,24,0,0,0-11.17,13.12c-1.7,4.49-1.87,9.48-2.62,14.19-.82,5.21-2.91,9.71-4.88,14.55-3.58,8.85-3.58,18.56-7,27.43-3.54,9.19-9.72,17.21-14.39,25.83-8.94,16.5-7.75,37.33-19.81,52.17-.54.66,1.41.5,1.79,0,11.73-14.44,11-34.5,19.09-50.78,4-8,9.49-15.21,13.36-23.3,4.2-8.75,4.74-18,7.38-27.23,1.4-4.86,3.9-9.27,5.34-14.1s1.73-9.92,2.5-14.84c1.4-8.93,7.45-14.86,15.39-18.36,6.76-3,14-4.7,20.29-8.76,5.8-3.76,8.86-9.91,11.85-15.9.41-.81-1.52-.57-1.79,0Z"/><path class="cls-3" d="M127.6,180c-2.47,2.86-3.41,6.58-4.34,10.17-1.37,5.33-2.68,10.68-4,16-3.13,12.27-8,21.93-16.54,31.34-7.92,8.78-13.51,18.48-19,28.9a120.23,120.23,0,0,0-7.8,16.71c-2.13,6.14-3.75,12.38-6.72,18.2-.2.39,1.64.23,1.91-.31,2.69-5.26,4.36-10.88,6.16-16.49a105,105,0,0,1,7.5-16.78c6-11.39,12.16-21.89,20.81-31.47a64.92,64.92,0,0,0,14.72-27c1.47-5.2,2.73-10.47,4-15.71,1.15-4.6,1.89-9.94,5.09-13.64.46-.54-1.43-.32-1.77.07Z"/><path class="cls-3" d="M206.44,178.49a56,56,0,0,0-8,39.44c1.39,7.46,4.55,14.57,7.15,21.67.59,1.62,5.18,10.78,7.73,9.57l1.48-.15-.35-.21c-.53-.32-2.21.47-1.81.71a1.74,1.74,0,0,0,1.9,0c.19-.09.51-.32.32-.56a27,27,0,0,0-2.94-2.81,18.06,18.06,0,0,1-4.4-7.1,150.38,150.38,0,0,1-6.78-20c-3.27-13.37.06-29.16,7.48-40.64.43-.66-1.48-.4-1.77.05Z"/><path class="cls-3" d="M177,103.45c3.88,7.21,7.3,14.47,14.78,18.57,6.49,3.55,14.27,4,21.14,6.59,9.55,3.54,12.11,12.2,13.14,21.53.58,5.31.33,10.65.5,16,.17,5.49,2.43,10.82,3.91,16,1.38,4.86,2.08,9.79,3.76,14.58A113,113,0,0,0,241,211.43c4.47,8.61,9.36,17,12,26.41,3.93,14.26,5.82,32.7,20,40.87.54.31,2.22-.47,1.81-.71-14.35-8.29-16.17-27.37-20.15-41.84-2.61-9.47-7.89-18-12.39-26.69a117.72,117.72,0,0,1-6-13.26c-2-5.27-2.69-10.81-4.22-16.2-1.37-4.81-3-9.4-3.46-14.41-.5-5.29-.05-10.67-.5-16-.71-8.29-2.9-16.11-10.46-20.45-5.95-3.42-13.29-4-19.74-6.16-10-3.31-14.17-11.36-18.86-20.08-.31-.58-2.17.08-1.93.52Z"/><path class="cls-3" d="M206.91,176.73c-1.23,2.66.45,6.44,1.26,9,1.67,5.23,3.25,10.4,4.66,15.72a136.82,136.82,0,0,0,6.58,19.64c2.65,6.12,7.25,11.24,11.46,16.33a171.83,171.83,0,0,1,22.93,37c5.22,11.25,5.83,24.18,14.7,33.58.55.58,2.38-.17,1.77-.81-8.72-9.26-9.58-22.11-14.53-33.29a172.8,172.8,0,0,0-20-33.48c-3.61-4.77-7.67-9.16-11.1-14.07-4.21-6.06-6.45-13.46-8.49-20.47-1.64-5.62-2.71-11.45-4.71-17-1.08-2.95-4.1-8.89-2.66-12,.43-1-1.51-.86-1.83-.16Z"/><path class="cls-3" d="M270.32,309.08c1.62,5.94,4.83,12.34,10.36,15.47.46.26,1.65,0,1.73-.6.17-1.29.47-2.52.64-3.81l-1.86.5c1.62,2.36,3.38,4.26,6.1,5.25.39.14,1.64-.11,1.64-.67v-3.81a14.06,14.06,0,0,0-1.95.5c1.37,2.28,2.21,4.35,4.53,5.81a1.32,1.32,0,0,0,1.71-.6c2-5.58-2.78-9.72-2.55-15.23,0-.87-1.91-.5-1.94.21-.23,5.45,4.5,9.77,2.54,15.23l1.73-.6c-2.2-1.38-3-3.49-4.26-5.61-.31-.5-1.81-.1-1.81.5v3.81c0-.22,1-.45,1.49-.67-2.52-.92-4-2.81-5.42-4.91-.36-.51-1.8-.09-1.88.5-.16,1.29-.47,2.53-.64,3.81l1.73-.6c-5.36-3-8.4-9.26-9.95-15-.21-.74-2.14-.22-1.94.52Z"/><path class="cls-3" d="M291.22,314.5a10.1,10.1,0,0,0,.71-9.69c-.09-.21-.38-.16-.57-.16h-1.27c-.39,0-1.34.16-1.36.67-.1,2.6-1.17,5-1.27,7.6,0,.42,1.91.12,1.93-.54.1-2.59,1.17-4.93,1.27-7.53-.45.24-.91.8-1.36.8h1.27c-.19,0-.38-.22-.57-.29a9.71,9.71,0,0,1-.56,9.25c-.43.63,1.48.33,1.78-.11Z"/><path class="cls-3" d="M271.65,280c2.63,2.79,6.31,2.66,9.5,4.54,3.51,2.08,5.2,5.26,6,9.15.54,2.81,1.42,6.17.87,9-.64,3.31-2.33-2.45-2.4-3a51.74,51.74,0,0,1,0-6.35c0-.14-.27-.19-.35-.2-5.47-.47-11,.22-14.94-4.34-.38-.43-2.21.25-1.81.71a11.54,11.54,0,0,0,7.2,4,30.62,30.62,0,0,0,4.29.31c3.53.15,3.67.65,3.61,3.81-.06,3.59.55,9,5.13,6.45,3.32-1.82.46-10.71-.2-13.25a11.75,11.75,0,0,0-4.46-6.26c-3.24-2.57-7.71-2.24-10.59-5.29-.4-.42-2.22.27-1.81.71Z"/><path class="cls-3" d="M272.8,309.32a12.06,12.06,0,0,0,6.69-1.53c1.11-.69-.61-.83-1.17-.48a8.29,8.29,0,0,1-4.74,1,1.73,1.73,0,0,0-1.28.51c-.28.36.24.49.5.49Z"/><path class="cls-3" d="M62.55,278.82c-5.29,2.65-10.52,5.43-14.5,9.9-3,3.32-7,12.55-2.62,16.07,2.76,2.19,5.78-3.53,5.79-5.25,0-4.24,0-6.07,5.74-7.59a32,32,0,0,0,4-1.26c2.37-1,5.19-4.05,6.88-6,.45-.52-1.43-.29-1.76.09a55.46,55.46,0,0,1-5.35,4.81c-1.94,1.76-4.68,1.54-6.91,2.62-4.28,2.06-4.14,4.61-4.6,8.9-.21,2-2.79,2.66-3.39.54-.49-1.71,0-3.71.3-5.41a17.46,17.46,0,0,1,3.72-7.58c3.48-4.41,9-7,13.87-9.46,1.15-.58-.63-.6-1.13-.35Z"/><path class="cls-3" d="M52.08,301.64c3.18,3.17,6.29,5.2,11,4.74,1.09-.11,1.47-1.59.15-1.46-4,.39-6.63-1.43-9.35-4.15-.64-.64-2.46.17-1.76.87Z"/><path class="cls-3" d="M54.59,294.8a44,44,0,0,0-2,5.24c-.25.76,1.71.51,1.94-.21a40.88,40.88,0,0,1,1.85-4.91c.44-.91-1.51-.76-1.82-.12Z"/><path class="cls-3" d="M47.11,306.4c-3.88,1-3.78,6.31-2,9.16.3.47,1.4.09,1.68-.21,2.16-2.34,2.69-5.45,2.73-8.54,0-.85-1.93-.46-1.94.22,0,2.78-.39,5.83-2.35,8l1.67-.21c-.94-1.53-2-6.69.52-7.34,1.16-.31.88-1.35-.28-1Z"/><path class="cls-3" d="M47.07,315.51a22.83,22.83,0,0,0-3.34,11.79c0,.72.94.75,1.41.51,7.07-3.62,8.79-13.2,12.55-19.51l-1.85-.23c-3.46,6.17-7.35,12.25-8.94,19.23-.14.63.79.68,1.16.6,6.72-1.37,10.65-10.78,12.23-16.61.25-.94-1.73-.72-2,.14-1.36,5-4.91,13.95-10.63,15.12l1.16.61c1.55-6.83,5.45-12.82,8.83-18.86.55-1-1.42-.95-1.85-.23-3.44,5.75-5.16,15.3-11.56,18.58l1.41.51c.11-3.75.9-7.89,3-11.06.69-1-1.12-1.35-1.62-.59Z"/><path class="cls-3" d="M59,308.94c-1,5.18-3.6,9.82-5.71,14.6-.14.32.41.43.59.43,4.48,0,7.49-4.24,9.71-7.58a54.18,54.18,0,0,0,7.5-16.57c.18-.73-1.77-.43-1.93.24a56.36,56.36,0,0,1-7.37,16.29,38.29,38.29,0,0,1-2.38,3.26c-1.34,1.66-4.89,5.12-2.49,0a45.79,45.79,0,0,0,4-10.88c.14-.75-1.81-.42-1.94.24Z"/><path class="cls-3" d="M276.67,312.25c2.37,3.13,3.34,7,5.71,10.16.35.46,2.06-.35,1.93-.52-2.37-3.13-3.34-7-5.71-10.15-.34-.46-2.06.35-1.93.51Z"/><path class="cls-3" d="M281.75,312.89a71.17,71.17,0,0,0,3.88,7.13c.43.66,2.29,0,1.78-.81a68.57,68.57,0,0,1-3.73-6.84c-.39-.77-2.28-.18-1.93.52Z"/><path class="cls-3" d="M124.59,249.75c-5.07-2.55-23.87,7.84-18.44,12.92,1.5,1.4,5.16.63,6.86.41,4.14-.53,7.47-1.34,11.71-.64,5.62.91,10.89,3.71,16.3,5.39s10.81,3.78,16.09,6a180.38,180.38,0,0,1,31.18,16.92c9.64,6.51,18.51,13.17,29,18.26,10.68,5.19,19.85,12.66,31.3,16.28a40.76,40.76,0,0,0,29.46-1.9c1.21-.54.14-1.67-.87-1.21-10.69,4.82-21.55,4.2-32.32.06-8.89-3.43-16.39-9.53-24.86-13.79a188.52,188.52,0,0,1-25.79-15.72,192.1,192.1,0,0,0-23.95-14.63,203.56,203.56,0,0,0-24.95-10.62c-7.43-2.65-15.24-6.13-23.14-6.94-2.66-.27-16,3.09-14.84-.81,1.27-4.23,12-10.73,16.14-8.62.84.43,2.22-.8,1.1-1.36Z"/><path class="cls-3" d="M123.79,251.46c5.67,7.46,14.09,7.47,22.16,4.57,7.35-2.65,15.73-5,18.57,4.85,1.44,4.93,6.21,8.1,10.46,10.43,5.46,3,11.44,4.74,17.31,6.68a144,144,0,0,0,21.49,5.55c7.56,1.26,15.13,2.14,22.66,3.65,5.35,1.06,11,.37,15.69,3.73.58.43,2.34-.41,1.51-1-3.36-2.41-7.45-3-11.47-3.4-6.73-.76-13.32-2.27-20-3.24-14.69-2.11-29.37-5.47-43-11.66-5.81-2.64-11.25-6.17-13.11-12.58a9.79,9.79,0,0,0-8.2-6.87c-4.05-.33-7.74,1.06-11.48,2.46-7.63,2.87-15.4,3.17-20.82-4-.46-.6-2.31.1-1.78.79Z"/><path class="cls-3" d="M173.2,265.13c1.16-3.2,2.18-6.75,4.85-9.05,4-3.47,11.28-1.13,16.17-1.16a53.49,53.49,0,0,0,12.67-1.58c5.85-1.49,10.08-5,16.05-1.73a28.67,28.67,0,0,0,3.33,1.21c2.06.8,6.57,5.18,1.92,5.32-4,.11-7.85-.1-11.77.61-8.89,1.61-14.91,10.45-23,14-1.22.53-.14,1.53.84,1.1,5.54-2.43,9.88-6.39,14.69-9.95,7-5.17,14.14-4,22.24-4.51.38,0,1-.3,1.07-.77.24-6-4.93-6.79-9.4-8.92-6.27-3-11.66,1.19-17.83,2.75a46.81,46.81,0,0,1-15.43.9c-3.44-.31-6.42-.6-9.75.33-5.16,1.44-6.88,6.78-8.51,11.27-.38,1,1.56,1,1.84.2Z"/><path class="cls-3" d="M176,285.29c-9.65,5.67-19.47,11-29.31,16.32-9.31,5-18.45,10.52-28.22,14.6-10.9,4.54-22.13,5.56-33.59,7.68-4.63.86-9.09,2.38-13.7,3.31-5.61,1.13-7.23-3-11.7-4.17-.47-.13-2.19.62-1.58.78,3.08.81,5.2,4,8.53,4.35,3.65.39,7.22-.75,10.69-1.74,11.76-3.36,24.07-3.45,35.72-7.38,11.21-3.78,21.32-9.74,31.7-15.34,11.06-6,22.11-11.93,32.95-18.31.84-.49-1.12-.33-1.49-.1Z"/><path class="cls-3" d="M78,296.87c2.27-5.34,9.5-7.33,14.55-8.81a132.39,132.39,0,0,1,17-3.47c16.5-2.54,33.58-2.38,49.6-7.48,1.16-.37.83-1.69-.36-1.32-17.42,5.55-36.19,5.07-54.12,8.22-8.49,1.49-24.55,3.33-28.5,12.64-.43,1,1.52,1,1.85.22Z"/><path class="cls-3" d="M101.62,264.65c-7.48.32-14.54,5-20.84,8.61-.82.47,1.13.24,1.48,0,5.55-3.18,11.95-7.61,18.51-7.89.51,0,2.12-.82.85-.76Z"/><path class="cls-3" d="M228.21,263.15c8.43,4,16.35,8.85,25.39,11.43.84.24,2.28-1,1.11-1.33-9-2.57-17-7.44-25.39-11.42-.82-.38-2.23.79-1.11,1.32Z"/><path class="cls-3" d="M147.51,91.62c3.24,5.18,4.56,10.63,5.17,16.67,0,.13.27.14.34.15,4.15.44,5.19,5.33,6.48,8.53s4.17,5.52,5.82,8.56c.26.48,1.59,0,1.85-.32a9.3,9.3,0,0,0,1.8-2.4l-1.92.42a1.74,1.74,0,0,0,.57,1.15c.31.49,1.53,0,1.85-.32a8.1,8.1,0,0,0,3-5.94l-1.88.59c4,4,5.8-1.33,7.17-4.52-.64.14-1.79.28-1.79.42v1.15c0,.12.15.15.21.15,3.37,0,3.5-3.58,3.74-6.4.34-4.11,1.89-10.65,4.75-13.91A14.37,14.37,0,0,0,188,87.65c0-.29-1.88-.08-1.94.52a15.2,15.2,0,0,1-2.47,6.57c-1.29,2.14-2.16,4-3.28,6.27-2.28,4.66-1.43,10.4-4,14.66l1.57-.58c-.83,0-.23-.28-.23-1,0-.43-1.77.07-1.92.43-.69,1.62-1.13,5.68-3.31,3.52-.34-.34-1.83.11-1.87.6a7.56,7.56,0,0,1-2.79,5.55l1.84-.32a1.84,1.84,0,0,1-.57-1.15c-.11-.54-1.74.13-1.92.42l-1.65,2.2,1.85-.32c-1.53-2.81-3.95-4.94-5.45-7.72-1.26-2.37-1.64-5.29-3.38-7.41-2-2.45-3.73-1.75-4.2-5.46a32.47,32.47,0,0,0-4.79-13.33c-.32-.5-2.11.24-1.93.52Z"/><path class="cls-3" d="M149.49,87.31c2.27-.17,2.85,3,3.28,4.65s.88,3.71,2.28,5a1.41,1.41,0,0,0,1.67-.22,10.76,10.76,0,0,0,1.85-2.44c.45-.82-1.49-.62-1.8-.05a9.92,9.92,0,0,1-1.6,2.16l1.67-.22c-3.1-2.75-1.39-10.37-7.09-9.94-1,.08-1.6,1.2-.26,1.1Z"/><path class="cls-3" d="M157.85,93.92c.28,1,.73,2.3,2,2.31a3.41,3.41,0,0,0,2.82-1.58l-1.92.42c.09.62.48,1,.57,1.57,0,.13.26,0,.35,0h1.72a2.54,2.54,0,0,0,1.37-.45c.29-.19.26-.55-.13-.55h-1.72c.11,1,.23.34.34.39-.09-.61-.48-1-.57-1.61s-1.74.22-1.92.48a3.37,3.37,0,0,1-.51.61c.64-.51.87.08.34-.4a3.62,3.62,0,0,1-.79-1.73c-.13-.47-2.06,0-1.93.53Z"/><path class="cls-3" d="M169.56,95.84a18.86,18.86,0,0,0,4-2.55c-.59,0-1.61-.07-1.61-.1v1.15c0,.68.82.5,1.22.35a19.66,19.66,0,0,1,4.65-1.59c-.29-.16-.87-.32-.87-.48v1.15c0,.43.43.55.79.48,3.35-.61,7-3.91,9.5-6.14.86-.77-1.07-.87-1.58-.4A42.07,42.07,0,0,1,182,90.45c-1.07.77-2.69,2.38-4,2.62.29.16.94.32.94.48V92.41c0-.45-.58-.53-.94-.49a22.6,22.6,0,0,0-5.56,1.86,6,6,0,0,0,1.5.35V93c0-.86-1.57-.42-1.93-.09a10.93,10.93,0,0,1-3.15,2c-1.18.61-.18,1.36.71.91Z"/><path class="cls-3" d="M164.19,95.36c-.3,0-.13,0,0,0l.33.16a1.82,1.82,0,0,0,.86.17,3,3,0,0,0,2.39-1.48l-1.86.24a1,1,0,0,0,.39.91c.26.18.59.15.83.36.51.45,2.32-.3,1.79-.75a1.88,1.88,0,0,0-.78-.43c-.34-.08-.29-.25-.3-.6,0-.71-1.66-.06-1.86.24-.09.13-.19.26-.29.38-.27.22-.16.23.34,0,.1,0-.14-.09-.14-.09a2.4,2.4,0,0,0-.94-.29,1.56,1.56,0,0,0-1.27.53c-.27.39.23.54.52.57Z"/><path class="cls-3" d="M156.82,89a16.79,16.79,0,0,1,8.32-3.91c1-.15,1.64,1.26,2.56,1.39a14.79,14.79,0,0,0,4.3-.22c3.86-.6,7.07,1.32,8.84,4.78.26.5,2.11-.18,1.94-.51-1.1-2.14-3.52-4.69-5.93-5.3-2.69-.68-7.84,2.31-9-1-.09-.24-.62-.14-.79-.11-2.37.39-3.68-.25-5.89.56s-4.19,2.94-6.08,4.48c-.44.35,1.38.17,1.75-.13Z"/><path class="cls-3" d="M159.79,91.91c3.35,1.89,8.44,1.28,12.16,1.28,1.08,0,1.49-1.36.18-1.36-1.88,0-3.75,0-5.63-.13-1.64-.08-3.75-.06-5.21-.88-.71-.41-2.42.56-1.5,1.09Z"/><path class="cls-3" d="M161.29,76.5a21.84,21.84,0,0,1-1.69,3.76,4.92,4.92,0,0,0-.9,2.48c.16,2.36,5.57,1.83,6.92,1.83,1.09,0,1.5-1.36.19-1.36-.74,0-5.64.4-5.1-1.26.63-2,1.91-3.63,2.53-5.61.28-.88-1.7-.65-2,.16Z"/><path class="cls-3" d="M172.3,76.82a14.12,14.12,0,0,1,2.48,4c.16.41.72,1.69.07,1.79a9.16,9.16,0,0,1-3.61-.24,4.79,4.79,0,0,0-3.85.57c-.33.19-.51.67-.13.91a1.4,1.4,0,0,0,1.38-.14c.94-.54,2.22.09,3.2.24a12.39,12.39,0,0,0,2.11,0,3.81,3.81,0,0,0,2.68-.86,2.42,2.42,0,0,0,.19-2.49A13.54,13.54,0,0,0,174.08,76c-.54-.6-2.38.14-1.78.81Z"/><path class="cls-3" d="M149.37,87.53C148,86,147.45,82.66,145.65,82c-2.33-.88-2.77-4.34-3-6.42-.61-4.73.39-9.49.5-14.21,0-.85-1.93-.46-1.94.22-.11,4.86-.9,9.64-.49,14.51A10.65,10.65,0,0,0,142.8,82c1.63,2,2.95,4.35,4.78,6.32.48.52,2.32-.19,1.79-.77Z"/><path class="cls-3" d="M191.19,61c-.32,9.23,4.84,21.22-4.23,27.76-1.07.76.59,1,1.2.59,9.72-7,4.62-18.61,5-28.58,0-.82-1.91-.42-1.93.23Z"/><path class="cls-3" d="M139.46,73.23c.29,8.92,5.25,15.89,9.19,23.56.26.5,2.1-.19,1.94-.51-4-7.68-8.91-14.65-9.2-23.57,0-.36-1.95,0-1.93.52Z"/><path class="cls-3" d="M137.73,56.56a7.23,7.23,0,0,0,6.23,5c4.54.69,6.11-4.64,10.24-5.11,4.49-.5,8.67.15,13-1.59a28.39,28.39,0,0,0,12-9.19c.77-1-1.05-1.37-1.64-.63-5.26,6.65-12,10-20.54,9.89a14.05,14.05,0,0,0-6.71,1.13A3.4,3.4,0,0,0,149,57.17c-2.82,4.19-7.8,3.09-9.32-1.13-.33-.93-2.25-.4-1.93.52Z"/><path class="cls-3" d="M137.29,52.43c-4-5,6.61-5.11,9.56-5.2,4.09-.13,8.12.14,12.22-.19,7.26-.58,19.39-2.11,22-10.37l-1.94.34a11,11,0,0,1-2.25,7.7c-.59.86,1.39.85,1.84.19a11.8,11.8,0,0,0,2.34-8.4c-.1-.94-1.76-.25-1.94.33-2,6.28-10.91,7.66-16.48,8.47-4.81.7-9.54.52-14.36.55-3.61,0-18.36.53-12.76,7.42.54.65,2.38-.1,1.78-.84Z"/><path class="cls-3" d="M169.09,55.89c7.26-.19,17.76,11.78,24.46,4.74.84-.89-1-1.28-1.63-.62-4.72,4.95-16.85-5.76-22.68-5.61-1.13,0-1.46,1.53-.15,1.49Z"/><path class="cls-3" d="M179.17,47.43c1.17,1.06,3,1.33,4.48,1.61,2.36.44,4.74.69,7.09,1.17,1.6.32,3.89.77,4.74,2.36,1.17,2.18-2.32,5-3.62,6.11-.4.35,1.4.14,1.74-.16,1.6-1.4,4.09-3.44,4-5.82-.07-1.65-2.22-2.38-3.5-2.79a48.65,48.65,0,0,0-7.32-1.35c-1.85-.29-4.32-.47-5.77-1.79-.38-.33-2.1.4-1.83.66Z"/><path class="cls-3" d="M138.46,45.62c-1.57-1.07-1-2.61-.48-4.07,1.12-3.08,6.12-3.63,8.81-4.08,4.86-.82,8.44,1.48,13,2.54,5.13,1.21,11.09-.42,15.72-2.54,1.16-.53-.65-.5-1.12-.28a21.25,21.25,0,0,1-15.86,1.23c-1.85-.63-3.66-1.76-5.65-1.94a26,26,0,0,0-8.37.75c-2.3.56-5.43,1.22-7.17,3-1.52,1.54-2.83,4.59-.66,6.07.46.32,2.11-.46,1.82-.66Z"/><path class="cls-3" d="M182.06,38.84c4.71,2.87,18.46,2.33,14.31,11.27-.23.5,1.66.3,1.92-.27,4.34-9.34-9.6-8.78-14.43-11.72-.54-.33-2.24.45-1.8.72Z"/><path class="cls-3" d="M140.26,36.69c.8-8.53,9.73-7.61,14-13.08,2.3-2.93,3.08-6.15,6.71-8,3.84-2,8.79,0,12.39,1.55,5.71,2.46,10.93,5.85,16.7,8.23,6.72,2.76,5.54,9.75,6.27,15.69.12.94,2.06.45,1.94-.52-.73-5.87.35-12.82-5.93-15.94C185.14,21,177.59,16.37,169.83,14,164.54,12.46,158,13.61,155,18.8c-1.71,3-2.88,5.94-6.45,7.2-1.22.44-2.76.68-3.82,1.5-3.4,2.63-6,4.78-6.45,9.32-.1,1,1.88.8,2-.13Z"/><path class="cls-3" d="M140,59.9c-.72,4.36-4.41,11.74-1.1,15.71.29.34,1.79-.06,1.87-.5a29.33,29.33,0,0,1,4.5-12l-1.85.3a8.86,8.86,0,0,1,0,1.15c0,.4,1.93.1,1.93-.51a8.8,8.8,0,0,0,0-1.15c0-.51-1.67.06-1.85.3a30,30,0,0,0-4.65,12.18l1.87-.5c-3.16-3.77.5-11.13,1.19-15.33.1-.55-1.82-.2-1.91.31Z"/><path class="cls-3" d="M186.65,63c4.4,2.87,6.73,6.27,7.41,11.5,0,.12.27.2.34.2H195c.38,0,1.53-.21,1.59-.72.57-4.7.85-9-2.35-12.75l-1.71.68c5.56,1.66,4,12.76,3.63,16.89-.47,5.82-1.93,11.64-2.08,17.47,0,.29,1.92,0,1.94-.52.16-6.53,1.78-13.06,2.22-19.59.29-4.18,1.26-13.41-4.12-15-.29-.09-2,.29-1.7.7,3.19,3.78,2.8,8,2.24,12.58l1.59-.65c-.85,0-.5-1.7-.67-2.52A12.81,12.81,0,0,0,193.77,67c-1.25-2-3.35-3.46-5.3-4.74-.46-.3-2.08.49-1.82.66Z"/><path class="cls-3" d="M190.61,90.89c0,2.7-.49,5.36-.57,8,0,.87,1.92.49,1.94-.21.08-2.69.55-5.36.57-8,0-.87-1.93-.49-1.94.21Z"/><path class="cls-3" d="M190,90.88a69.17,69.17,0,0,0-1.15,10.34c0,1,1.94.6,2-.18A68,68,0,0,1,192,90.69c.15-.89-1.82-.6-1.95.19Z"/><path class="cls-3" d="M141.65,65.34c-6.93,1-6.66,12.71-6.85,17.7s0,10.26.26,15.37c.11,2.24-.63,7.24,1,8.9a1.16,1.16,0,0,0,1.81-.31c1.65-4.58,2.89-9.26,4.08-14,.24-1-1.74-.75-2,.13-1.15,4.59-2.37,9.15-4,13.61l1.81-.31c-1.18-1.18-.67-4.84-.75-6.43-.21-3.93-.36-7.85-.41-11.79s-1.06-20.59,4.79-21.43c1.08-.15,1.47-1.65.16-1.46Z"/><path class="cls-3" d="M140.6,89.16c-.08,3.67-1.07,7.25-1.15,10.92,0,.91,1.93.55,2-.2.07-3.67,1.07-7.24,1.14-10.92,0-.9-1.92-.54-1.94.2Z"/><path class="cls-3" d="M144,91.43a48,48,0,0,0,.59,8.81c.17.93,2.11.43,1.93-.52a46.61,46.61,0,0,1-.56-8.43c0-1-2-.76-2,.14Z"/><path class="cls-3" d="M148.07,99.5a155,155,0,0,0,.58,15.69c.09.81,2,.35,1.94-.52A148.39,148.39,0,0,1,150,99.32c0-1-2-.62-2,.18Z"/><path class="cls-3" d="M184.85,98.91a24.61,24.61,0,0,0-.57,5.75c0,1,2,.72,2-.15a24.72,24.72,0,0,1,.57-5.75c.23-.94-1.75-.71-2,.15Z"/><path class="cls-3" d="M152.68,97.94c1.93,5.12,4,10.2,7.53,14.47.33.4,1.9-.06,1.87-.61-.29-5.26-3.83-9.63-5.75-14.38-.22-.55-2.1,0-1.93.52,1.84,5.75,4.91,10.92,6.75,16.67.18.57,1.78,0,1.78-.52v-4c0-.45-2-.13-2,.52v4a16.85,16.85,0,0,0,2.12-.52c-1.84-5.75-5-10.92-6.81-16.67l-1.88.52c1.91,4.75,5.47,9.12,5.77,14.37l1.88-.61c-3.45-4.21-5.5-9.23-7.41-14.28-.21-.56-2.11,0-1.92.52Z"/><path class="cls-3" d="M161.78,100.9h0l-1.06-.09c1.65,6.87.15,14.78,2.86,21.27.22.53,2.11-.09,1.93-.51-2.71-6.49-1.21-14.41-2.85-21.28-.08-.32-.88-.14-1.06-.08h0c-1.12.33-.95,1,.18.69Z"/><path class="cls-3" d="M163,100.24c-.08,6.91-1.13,14.18,1.72,20.7.23.53,1.78,0,1.92-.41,2.24-6.93,1.77-14.2,1.74-21.38,0-.45-1.92-.12-1.94.52-.12,7.1-1.59,14.33.58,21.27.17.54,1.81,0,1.92-.41,1.78-7.22,3.32-14.5,3.46-22l-1.93.51c-.09,7.49-1.06,14.93-1.15,22.42,0,.44,1.9.12,1.93-.52.31-7.85,4.32-14.68,5.74-22.3l-1.92.4c-.11,5.77-1.13,11.51-4,16.56l1.92-.41c0-4.6,1.25-14.71-4.2-16.82-3.47-1.34-7.42,3.91-1.76,3.75.18,0,1.6-.3,1.37-.72-1.81-3.16-5.26-3.56-8.62-3.65-.26,0-1.92.58-1.18.87,4.36,1.72,9.2.74,13.53-.61.17,0,1.34-.57.68-.79l-1.72-.58-.95.85A16.33,16.33,0,0,0,177.21,95L175.68,95c-1.89,4.2-4.61,8.43-4.61,13.19,0,.44,1.93.12,1.93-.52,0-1.53,2.67-4.32,3.54-5.74,1.43-2.34,2.69-4.78,3.93-7.23.23-.46-1.59-.19-1.84.18A23.62,23.62,0,0,0,175.1,103c-.16.68,1.63,0,1.85-.18,1.19-1.26,2.27-2.61,3.37-4l2-2.39c.79-.95,2.14-1.56.63-1.8.5.08,2.26-.74,1.23-.91-3.12-.49-7.16,7.2-9,9.11l1.84-.18a22.48,22.48,0,0,1,3.38-7.93l-1.85.18c-1.24,2.45-2.54,4.86-3.93,7.23-.8,1.36-3.55,4.18-3.55,6,0,.44,1.93.12,1.93-.52,0-4.65,2.75-8.86,4.59-13,.25-.55-1.38-.14-1.53,0a11.37,11.37,0,0,1-5.59,2.06c-.19,0-1.66.61-.94.85,1,.35,2.16-.1.1.45a15.14,15.14,0,0,1-9.46-.13l-1.18.88c2.93.08,5.9.48,7.48,3.25l1.37-.72c.07-1.54.41-1.83,1-.88a7.85,7.85,0,0,1,1.1,2.18,20.51,20.51,0,0,1,1,5.1,73.13,73.13,0,0,1,.17,8.11c0,.59,1.75-.09,1.93-.41,2.92-5.12,3.92-10.94,4-16.77,0-.46-1.84-.09-1.93.4-1.43,7.7-5.44,14.6-5.75,22.53l1.93-.52c.09-7.49,1.06-14.93,1.15-22.41,0-.44-1.92-.13-1.93.51-.14,7.39-1.68,14.59-3.44,21.74l1.92-.41c-2.16-6.94-.7-14.16-.57-21.27l-1.94.52c0,7.1.5,14.3-1.71,21.16l1.92-.41c-2.84-6.52-1.8-13.79-1.72-20.7,0-.43-1.93-.12-1.93.52Z"/><path class="cls-3" d="M159.8,90.61a2.4,2.4,0,0,0,2.27-2.28c.07-.36-.59-.29-.79-.25-2.87.59-4.12,2.12-5.72,4.59-.29.44,1.41.07,1.53,0a18.34,18.34,0,0,0,6.63-6c.47-.61-1.38-.21-1.63,0a36,36,0,0,0-4.15,4.13c-.13.14-.11.31.09.35,4.36.93,8.83-2.8,10.94-6.3.25-.41-1.58-.06-1.84.21a13.29,13.29,0,0,0-2.95,4.13c-.15.35.67.27.79.24a10.38,10.38,0,0,0,6.8-4.47l-1.76.1c-1.38,1.94-2.56,3.5-2.39,6,0,.46,1.37,0,1.54-.08a13.66,13.66,0,0,0,4.91-4.82c.44-.63-1.23-.25-1.45-.12-1.91,1.09-2.52,2.23-3.26,4.35-.19.54,1.37.09,1.52,0l2.3-1.15h-1.52a3.86,3.86,0,0,0-.59,2.4c0,.48,1.57-.09,1.72-.2a23.62,23.62,0,0,0,3.58-3.56l-1.84.21c-.34,2,0,3.16,1.77,4.21.37.21,1.78,0,1.87-.5l.57-3.45-1.92.42c.64,2.55,1.13,4.74,3.63,5.88A1.91,1.91,0,0,0,182,94.3c.8-.57.7-.46.8-1.47,0-.34-1.88-.11-1.94.51.06-.64-1.83-4.1-2.09-5.11-.12-.49-1.85,0-1.92.41l-.57,3.45,1.86-.5a2.83,2.83,0,0,1-1.68-3.84c.11-.63-1.62,0-1.83.21a22.31,22.31,0,0,1-3.32,3.34l1.71-.2.57-2.2c.23-.52-1.39-.07-1.52,0L169.75,90h1.52a6.31,6.31,0,0,1,2.49-3.69l-1.45-.12C171.11,88,170,89.6,168,90.62l1.53-.09c-.17-2.52.85-3.61,2.22-5.54.42-.59-1.47-.29-1.76.1a5.81,5.81,0,0,1-3.38,2.62A14.08,14.08,0,0,1,168.9,85l-1.84.21a14.24,14.24,0,0,1-3.26,3.58,3.63,3.63,0,0,1-3.23,1,18,18,0,0,1,3-3l-1.63,0c-1.76,2.32-3.25,4.17-6,5.53h1.52a3.23,3.23,0,0,1,2.66-2.54c-.81.12-1.68,1-.33.8Z"/><path class="cls-3" d="M159,90.4c-4,.55-4.53,4.66-4.59,8.12,0,.36,1.92.07,1.93-.52.06-3,.26-5.66-1.78-8.13-.3-.36-1.86.11-1.87.6-.06,2.91-.5,5.85.57,8.62l1.93-.51c-1.82-3.23-3-6.75-5.8-9.28-.33-.29-1.92.08-1.87.6.34,3.94,3.19,7.16,6.38,9.27.31.21,2-.07,1.87-.59A12.74,12.74,0,0,0,150,91c-.39-.23-2.2.32-1.81.68a64,64,0,0,1,12.59,16.59c.28.51,2.11-.19,1.93-.52A64.17,64.17,0,0,0,150,91l-1.81.68a12.41,12.41,0,0,1,5.69,7.39l1.87-.59c-3.16-2.09-5.93-5.22-6.26-9.12l-1.88.59c2.77,2.49,3.91,6,5.69,9.12.26.47,2.1-.09,1.93-.51-1.07-2.78-.63-5.72-.57-8.63l-1.87.6c2,2.44,1.72,5,1.66,8l1.93-.52c0-1.54,0-6.51,2.32-6.83.8-.11,1.7-1,.34-.77Z"/><path class="cls-3" d="M138.34,78.58c-2.08,7.07-1.24,14.77-1.77,22l2-.12c0-7.29,0-14.58.58-21.85l-2,.32c.54,5.85-1.41,12.69,1.81,18,.32.54,1.4.35,1.7-.12,1.77-2.76,2.59-5.93,4.13-8.81l-1.89.13a8.86,8.86,0,0,0,1.23,3c.45.81,2.28.06,1.76-.87a6.88,6.88,0,0,1-1.06-2.7c-.16-.92-1.61-.4-1.9.13-1.46,2.74-2.22,5.81-3.91,8.44l1.7-.12c-3.08-5.09-1.12-12-1.64-17.64-.08-.91-1.89-.48-2,.32-.55,7.27-.57,14.55-.57,21.84,0,1.06,1.89.8,2-.12.52-7.11-.36-14.75,1.67-21.65.33-1.11-1.6-1.15-1.86-.27Z"/><path class="cls-3" d="M152,67.1c1.58-1.28,4.83-.88,6.75-.88.68,0,1.62-1,.63-1.39-3.15-1.12-6.4-.68-9.67-.64-1.11,0-1.47,1.47-.16,1.46,3.46-.05,6.89-.54,10.35-.58,1.11,0,1.47-1.47.16-1.45-3.46,0-6.89.53-10.35.57,0,.49-.11,1-.16,1.46,2.93,0,5.9-.49,8.72.51.22-.46.43-.93.64-1.39-2.54,0-6.09-.31-8.2,1.42-1,.83.53,1.54,1.29.91Z"/><path class="cls-3" d="M174.24,64.43c3,0,6-.51,8.95,0,.89.15,2-1.09.69-1.32-3.13-.54-6.29,0-9.44,0-1.07,0-1.52,1.33-.2,1.32Z"/><path class="cls-3" d="M151.81,118.56c2.1,5.36,6.18,9.56,8.9,14.58,3.22,5.93,8.13,11.76,12.28,17.08a59.29,59.29,0,0,0,14.53,13.24c6.23,4.07,13.07,7,19,11.5.59.45,2.34-.4,1.52-1-5.06-3.78-10.66-6.61-16.13-9.73a59.57,59.57,0,0,1-16.18-13.55c-4.16-4.93-7.63-10.43-11.35-15.68s-8.35-11-10.68-16.94c-.31-.77-2.22-.21-1.94.52Z"/><path class="cls-3" d="M177.48,170.7c1.67,3.8,4.59,7.19,7.25,10.32,2.83,3.31,6.26,7,10.5,8.46,2.39.82,5.07-.35,5.46-2.91.68-4.53-6.58-9.1-9.32-11.71-.53-.51-2.36.23-1.78.79a21.89,21.89,0,0,0,9.94,5.79c.38.1,1.79-.15,1.54-.83.19.5-.79-4-.8-4l-1.72.76c1,.62,2.14,1,3.2,1.6.61.36,2.37-.5,1.53-1-1.05-.62-2.17-1-3.21-1.61-.45-.26-1.91,0-1.73.76.89,3.61,0,1.81.8,4l1.55-.83a20.29,20.29,0,0,1-9.32-5.44l-1.78.79c2.32,2.22,4.8,4.21,6.93,6.63.54.62,4.71,7.18-.13,6.06-1.86-.42-3.61-2-5-3.15-4.57-3.87-9.53-9.46-12-15-.33-.73-2.23-.15-1.94.52Z"/><path class="cls-3" d="M114.91,157.06c-.23,6.42,6.11,12.57,10.08,16.9,5.92,6.47,12,12.64,17.69,19.32,15,17.5,33.52,31.71,55,40.22.4-.3.79-.85,1.18-.85h-3.21c-.64,0-2.09,1-.79,1h3.21c.26,0,2-.67,1.17-1-20.86-8.26-39-21.89-53.66-38.74-5.6-6.45-11.21-12.69-17.12-18.84-4.49-4.68-11.91-11.47-11.66-18.53,0-.47-1.9-.17-1.93.5Z"/><path class="cls-3" d="M111.24,163.64c-8,6.66-9.21,16.9-10.66,26.63-1.94,13.08-9.7,23.13-16.9,33.84-.52.78,1,.72,1.32.58,6.68-2.73,13.58,6.14,18.73,9.27a44.11,44.11,0,0,0,17.41,6.12c.88.11,2-1.13.7-1.29a45.93,45.93,0,0,1-24.72-11.86c-4-3.62-7.76-5.36-12.94-3.25l1.33.59c6.1-9.09,13.74-18.34,16.16-29.24,2.35-10.6,1.66-23,10.82-30.62,1-.84-.56-1.33-1.25-.77Z"/><path class="cls-3" d="M117.85,244.65h-2.4a2,2,0,0,0-1.57.74,4.32,4.32,0,0,0-1.37,3c0,.83,1.91.42,1.93-.25a4,4,0,0,1,1.42-2.91,4.15,4.15,0,0,1-1.15.4h2.4a1.5,1.5,0,0,0,1.28-.47c.25-.38-.21-.53-.54-.53Z"/><path class="cls-3" d="M115.13,246.58a74.19,74.19,0,0,0-7.35,5.48c-.7.61-4.73,3.86-2.31,4.62.48.15,2.21-.6,1.57-.8-1.7-.54,2.85-4.2,3.28-4.56,2-1.64,4.15-3.16,6.31-4.6.83-.56-1.12-.39-1.5-.14Z"/><path class="cls-3" d="M122.94,235.68c.48,3,6.3,3.65,8.54,4.11,4.68,1,9.77,1,14.3,2.6.49.17,2.15-.48,1.35-1a27.7,27.7,0,0,0-14-4.9c-.16.38-.32.76-.49,1.14,5.53-.42,10.32,2.09,15.58,3.19.48.1,1.64-.12,1.55-.81-.48-4.05-4.19-4.41-7.42-5.84-.6-.26-2.36.6-1.53,1,2.87,1.27,6.58,1.64,7,5.39l1.55-.81c-5.6-1.17-10.66-3.66-16.5-3.22-.71,0-1.7,1.08-.49,1.14a26.19,26.19,0,0,1,13.24,4.72l1.35-1c-3.52-1.24-7.48-1.45-11.14-2-2.42-.38-10.44-.94-10.94-4.09-.12-.7-2.06-.24-1.93.52Z"/><path class="cls-3" d="M155.36,230.54a9.89,9.89,0,0,0-2.5-6.78c-.61-.64-2.44.15-1.77.86a8.84,8.84,0,0,1,2.31,6.06c0,1,2,.73,2-.14Z"/><path class="cls-3" d="M145.47,220.57c6.45,7.12,19.18,14.58,29.11,12.18.29-.07,1-.39.82-.8-3.46-10.26-15.2-22.18-26.27-23.6-.32,0-1.59.3-1.33.86,4.9,10.51,17.75,13.34,24.94,21.79.48.56,2.33-.15,1.79-.79-7.11-8.34-20-11.19-24.8-21.52l-1.32.85c10.4,1.34,21.81,13.28,25.06,22.93l.82-.8c-9,2.16-21.24-5.49-27-11.88-.5-.55-2.34.17-1.79.78Z"/><path class="cls-3" d="M179.29,238.3c4.74,1.74,8.89,4.67,13.63,6.41.33.12,2.07-.06,1.74-.72l-2.41-4.82-1.56.79c3.57,1,6.91,2.25,10.65,2.43.74,0,2-1,.75-1.11-3.6-.17-6.79-1.43-10.22-2.38-.3-.08-1.84.21-1.55.79.8,1.6,1.6,3.21,2.41,4.81l1.73-.73c-4.74-1.74-8.9-4.67-13.64-6.41-.59-.22-2.34.64-1.53.94Z"/><path class="cls-3" d="M160.45,248.65h24.87c.86,0,2-1,.7-1H161.15c-.86,0-2,1-.7,1Z"/><path class="cls-3" d="M169.65,249.47c2.61.82,5.36,1,8,1.61l1.18-.88c-3.34,0-6.77-.74-9.8,1.06-.13.08-.45.25-.39.46.23.82,1,.47,1.67.9s2.2-.44,1.8-.71-1.48-.5-1.54-.7l-.39.46c2.27-1.35,5.33-.58,7.85-.55.27,0,1.92-.7,1.18-.88-2.65-.63-5.42-.79-8-1.6-.5-.16-2.25.62-1.56.83Z"/><path class="cls-3" d="M95.84,267.9c6.06,2.45,14.12,1.15,20.54,1.79,5.32.52,10.6,2.47,15.77,3.77a119.64,119.64,0,0,0,18.4,3.29c.44,0,2.23-.75,1.25-.83-11.08-1-21.28-5.13-32.16-6.79-7-1.06-15.65.64-22.22-2-.45-.18-2.2.53-1.58.78Z"/><path class="cls-3" d="M198.11,277.63c13.81-6.17,29.27-3.28,43.28-8.83.21-.08.54-.33.54-.59v-.8c0-.34-.22-.76-.56-.76h-4.81c-.84,0-2,1.38-.71,1.38.26,0,4.2.17,4.2-.08,0,.76-6.86,2.17-7.75,2.37a89,89,0,0,1-12.83,1.46c-7.73.55-15.06,1.67-22.18,4.85-1.21.55-.12,1.42.82,1Z"/><path class="cls-3" d="M131.76,202c4,10.16-4.24,23.61-11.08,30.72l1.74.43c1.8-4.88,4.54-9.21,7.22-13.64.57-.94-1.4-1-1.85-.25-2.69,4.42-5.43,8.76-7.22,13.64-.4,1.08,1.26.92,1.74.43,7.1-7.39,15.52-21.29,11.38-31.85-.35-.9-2.28-.36-1.93.52Z"/><path class="cls-3" d="M137.36,197.78c0,6.7.64,13.41-1.55,19.87-.37,1.08,1.56,1.11,1.85.25,2.25-6.6,1.71-13.39,1.66-20.25,0-1.05-2-.78-2,.13Z"/><path class="cls-3" d="M146,113.64c0,.93-.19,1.86-.25,2.79s-.21,2.14.49,2.77c2.11,1.89,5.37.2,6.1-2.24a3,3,0,0,0-3.42-4,5.15,5.15,0,0,0-4.19,4.52c0,1,1.93.73,2-.14a3.34,3.34,0,0,1,2.07-2.93c1.5-.67,1.95,1.63,1.65,2.63-.45,1.53-2.67,2.33-2.73.26,0-1.26.24-2.51.28-3.77,0-1-1.93-.73-2,.15Z"/><path class="cls-3" d="M150.93,121.27c-3.15.22-2.39,3.69-2.37,5.88a.35.35,0,0,0,.2.21,4,4,0,0,0,4.62-1.32,3.08,3.08,0,0,0-.55-4.35c-3.41-2.28-10,2.83-6.1,6.21.52.45,2.32-.29,1.79-.75a2.53,2.53,0,0,1-.06-4.07c1.3-1.2,3.2-1,3.6.89.18.87-.32,2.74-1.47,2.54-.23,0-.19-2-.19-2.22a7.07,7.07,0,0,1,.06-1.13,5.59,5.59,0,0,1,.21-.81c1-.06,1.6-1.17.26-1.08Z"/><path class="cls-3" d="M148.56,123.19c0,1.57-.1,3.33,1.48,4.19a1.44,1.44,0,0,0,1.66-.44,4.27,4.27,0,0,0,.93-2.76c-.12-.92-1.12-1.38-1.88-1.66s-2.27.73-1.17,1.12c1.68.61,1.07,2,.31,3.21l1.67-.45c-1.2-.66-1.06-2.24-1.06-3.43,0-.86-1.94-.47-1.94.22Z"/><path class="cls-3" d="M146.65,115.55a5,5,0,0,0,.33,2.39,3.33,3.33,0,0,0,2,1.32c.44.15,1.55-.08,1.54-.71,0-.89-.09-2.69-1.37-2.72-1.67,0-2.19,1.52-2.48,2.9-.19.9,1.78.63,1.95-.18a7,7,0,0,1,.37-1.26,3.47,3.47,0,0,1,.18-.33.83.83,0,0,1-.94.13c.28.16.34,1.24.34,1.64l1.55-.71c-.47-.16-1.09-.35-1.31-.84a4.37,4.37,0,0,1-.19-1.8c0-1-1.95-.63-1.95.17Z"/><path class="cls-3" d="M153.34,126.5c-1.51.89-2.27,3.3-2.12,5,.2,2.21,2.63,2.82,4.4,1.87a3.31,3.31,0,0,0,1.32-4.76,3.48,3.48,0,0,0-3.44-1.44c-2.18.52-2.36,3.54-2.08,5.31.12.8.54,1.62,1.49,1.47,1.35-.23,1.71-1.51,2-2.67.24-.85-1.73-.6-1.95.18a8.94,8.94,0,0,1-.38,1.1,1.9,1.9,0,0,1-.2.37c0,.08.76-.43,1.14-.2.09.05,0-.11-.08-.22a4.66,4.66,0,0,1-.16-.76,5,5,0,0,1,.49-3.26c.16-.21.21-.14-.07-.09a3.64,3.64,0,0,1,.55.26,2.26,2.26,0,0,1,1.05,2.93c-.18.43-.57.93-1.08.91-.85,0-1.09-.91-1.11-1.59,0-1.12.41-3,1.45-3.59.33-.19.51-.68.12-.92a1.35,1.35,0,0,0-1.38.14Z"/><path class="cls-3" d="M158.09,133.36a12.77,12.77,0,0,0-.64,5.21c0,.23.45.27.58.27,1.11,0,2.14.15,2.79-.91a4,4,0,0,0,0-4.42c-2-2.87-6.24,0-7.21,2.25-.84,2-.07,4.14,2.22,4.41a3.74,3.74,0,0,0,4.2-3.89c0-.62-1-.37-1.34-.24-2.1.8-2.49,2.32-3.12,4.31-.21.64,1.72.37,1.93-.26.4-1.27.54-2.77,2-3.3l-1.34-.25c0,.64-.17,2.57-1.13,2.6s-1.57-.87-1.76-1.65c-.35-1.38,1.07-4.21,2.67-4,2.3.29,1.68,3.5.92,4.76.42-.17.85-.59,1.28-.59H158.8c.19,0,.39.25.58.34a12.16,12.16,0,0,1,.63-4.91c.25-.58-1.66-.33-1.92.28Z"/><path class="cls-3" d="M160.06,139c-1.52,1.72-.29,5.43,1.9,6s5-1.75,4-4c-.75-1.74-3.27-1.61-4.73-1.11-2.65.9-2.34,3.6-1.26,5.65.29.55,1.37.07,1.72-.16a6.41,6.41,0,0,0,1.83-1.28c.44-.58.28-1.6.28-2.26s-1.66.07-1.85.28a14.32,14.32,0,0,0-2,3.3c-.23.46,1.64.27,1.92-.28a13.38,13.38,0,0,1,1.84-3.06l-1.86.28c0,.54.15,1.41-.2,1.87a6,6,0,0,1-1.5.94l1.73-.15c-.61-1.15-1.49-3.19-.28-4.29.63-.56,1.69,0,2.18.46a1.59,1.59,0,0,1,.33,1.47,2.64,2.64,0,0,1-.46,1c-.38.52-.38.49-.89.1-1.23-.94-2.09-3.57-1-4.84.5-.56-1.41-.37-1.78,0Z"/><path class="cls-3" d="M166.32,142.19c0,1.31.53,3.13,2.09,3.32a3.61,3.61,0,0,0,3.58-2.27c1.07-2.58-1.42-5-4-4.58a3.24,3.24,0,0,0-2.78,2.58,2.43,2.43,0,0,0,1.32,2.72,3.52,3.52,0,0,0,3.9-1,1.35,1.35,0,0,0-.95-2.23,1.23,1.23,0,0,0-1.25.6.62.62,0,0,0,.59.84c.13,0-.35.44-.47.5a.89.89,0,0,1-1.09-.55,1.81,1.81,0,0,1,.07-1.51c.07-.15.45-.51.33-.47a1.92,1.92,0,0,1,.92-.1c1.18.14,1.72,1.58,1.59,2.6-.05.37-.61,1.54-1.1,1.4-.67-.2-.82-1.48-.84-2,0-1-2-.75-2,.14Z"/><path class="cls-3" d="M172.09,136.29a9.26,9.26,0,0,0-.69,4,.59.59,0,0,0,.42.59,4.29,4.29,0,0,0,4.82-1.76,4.53,4.53,0,0,0,.49-4.45c-.88-1.74-3.5-.93-4.65,0-1.38,1.07-1.95,3.85-.21,4.89.75.44,2.43-.57,1.48-1.14-2-1.19,1.1-4.75,1.73-2.51.43,1.51-.67,4.16-2.55,3.68l.43.6a8.41,8.41,0,0,1,.58-3.62c.46-1-1.49-1-1.85-.24Z"/><path class="cls-3" d="M177.77,132.14c-.73.88-.64,2.18-.65,3.26,0,.41,1.68-.16,1.84-.34,1.27-1.34,1.36-2.85,1.37-4.62,0-.11-.29-.13-.34-.12-2.38.08-4.68,1.17-4.77,3.81,0,.12.29.13.34.13a5.83,5.83,0,0,0,3.34-1,4.22,4.22,0,0,0,1.43-3.45c0-.12-.29-.13-.34-.13a4.19,4.19,0,0,0-1.82.27c-1,.44-.51,1.48-1,2.19-.2.28.72.18.77.17a1.83,1.83,0,0,0,1.13-.52c.45-.6.2-1.2.64-1.8-.53.19-1.06.66-1.58.66h.63c-.11,0-.22-.18-.34-.22,0,.89-.29,3.07-1.57,3.11l.33.1c0-.89.44-2.51,1.58-2.54l-.34-.14c0,1.58,0,3-1.17,4.26l1.84-.34a4.65,4.65,0,0,1,.62-3.09c.21-.25-.73-.17-.77-.16a1.93,1.93,0,0,0-1.14.51Z"/><path class="cls-3" d="M180.64,125.26c-1.25.77-3.41,2.59-1.59,4,1.38,1,3.65.57,4.86-.48a2.65,2.65,0,0,0,.77-2.35c-.13-1.18-.87-2.83-2.06-3.26-3-1.1-4.82,3.54-4.87,5.77,0,.48.49.54.87.53a5,5,0,0,0,3.44-1.67.46.46,0,0,0-.22-.81,1.5,1.5,0,0,0-1.37.36,2.24,2.24,0,0,1-1.64.87l.87.53a7.33,7.33,0,0,1,.75-3,5.12,5.12,0,0,1,.8-1.25,1.18,1.18,0,0,1,.32-.27c-.29.14-.16,0,.1.27a4.36,4.36,0,0,1,1.09,2.55,1.64,1.64,0,0,1-.4,1.24,1.12,1.12,0,0,1-.75.24,1.64,1.64,0,0,1-1.1-.36c-.85-.64.75-1.77,1.37-2.15.32-.19.54-.65.14-.88a1.4,1.4,0,0,0-1.38.15Z"/><path class="cls-3" d="M184.2,120.63c-.86.91-.73,2.17-.73,3.35,0,.11.29.12.34.12,1,0,3,.34,3.6-.75a5.5,5.5,0,0,0,.8-2.52,2.26,2.26,0,0,0-2-2.28,5.51,5.51,0,0,0-4.1,1,3.76,3.76,0,0,0-1.21,3.85c0,.11.26.21.34.21h2.54a2.82,2.82,0,0,0,1.36-.48c.31-.19.27-.52-.1-.52h-2.54c.11,0,.22.11.33.15a3.5,3.5,0,0,1,.51-2.9,2.11,2.11,0,0,1,.79-.63c-.14.06.17,0,0,0a1.62,1.62,0,0,1,.49,0c2.39.38,1.55,3.38.74,4.77a5.11,5.11,0,0,1,1.58-.4h-1.9c.11,0,.22-.07.33,0,0-1-.17-2.32.54-3.08.29-.31-.25-.35-.45-.33a2.19,2.19,0,0,0-1.29.42Z"/><path class="cls-3" d="M186.8,112.63a4.77,4.77,0,0,0-1.44,3.14.92.92,0,0,0,.9.88h1.27c.39,0,.83-.48,1-.83.57-1.17,1.72-3.49.51-4.63-.9-.84-2.51-.31-3.4.23a4.78,4.78,0,0,0-2.4,2.84c-.34,1.55,1.34,2.25,2.54,2.53.07,0,0,0,0,0,.44.09,1.12-.23,1.12-.79v-2.54c0-1-2-.74-2,.14v2.54a3.61,3.61,0,0,0,1.52-.78,3.37,3.37,0,0,1-.71-.25c-.2-.08,0,0-.17-.11s-.27-.24-.14-.11a.67.67,0,0,1-.22-.34,1.09,1.09,0,0,1-.05-.26c0,.2,0-.11,0-.17a2,2,0,0,1,.45-.86l.23-.24c.18-.19-.06,0,.13-.13a5.3,5.3,0,0,1,.6-.46c.09,0,.08,0,0,0l.17-.1.29-.14.11,0c.21-.09-.23.07,0,0l.27-.07c.12,0-.24,0,.05,0s-.2,0,0,0-.2-.07,0,0c-.28-.11.12.14-.06,0,0,0,.15.25.06.06a.67.67,0,0,1,.07.24c0,.19,0,0,0,.19a2.3,2.3,0,0,1,0,.45,8.25,8.25,0,0,1-.86,2.26c.33-.2.67-.65,1-.65h-1.27c.3,0,.6.48.9.7a2.93,2.93,0,0,1,1.1-2.15.56.56,0,0,0-.25-.94,1.33,1.33,0,0,0-1.37.37Z"/><path class="cls-3" d="M187.23,111.25a10.3,10.3,0,0,1-.8-1.32,2,2,0,0,0-1.64-.81,1.52,1.52,0,0,0-1.15.4c-.2.22-.28.59,0,.75l1.27.64a1.68,1.68,0,0,0,1,.07c.27-.08.94-.33.94-.69v-.63c0-.48-.61-.55-1-.54a3.66,3.66,0,0,0-2.23,1,.47.47,0,0,0,.2.83,1.44,1.44,0,0,0,1.35-.37,1,1,0,0,1,.22-.18s.24-.09.1,0c.25-.07-.09,0,.13,0-.29-.18-.77-.36-.77-.54v.63c0-.2,1-.41,1.63-.61-.43-.21-.9-.42-1.32-.64-.37.39-.76.78-1.13,1.16.74,0,.92,1.21,1.35,1.67s2.37-.16,1.77-.81Z"/><path class="cls-3" d="M153.07,109.65H151.8a1.46,1.46,0,0,0-1.27.46c-.24.39.2.54.54.54h1.27a1.44,1.44,0,0,0,1.27-.46c.24-.38-.21-.54-.54-.54Z"/><path class="cls-3" d="M150.48,111.2a5.89,5.89,0,0,1-1.19,1.35,2.69,2.69,0,0,0-.73,1.91c0,.37,1.68-.19,1.84-.35a7.48,7.48,0,0,0,1.2-1.55c.31-.55.51-1.15.78-1.72.12-.24-.43-.18-.52-.18a3.41,3.41,0,0,0-1.16.36c-1.19.63-1.78,1.69-2.67,2.63-.29.3.25.29.44.27a2.32,2.32,0,0,0,1.3-.45c.8-.84,1.34-1.88,2.4-2.44l-1.69.17a10.8,10.8,0,0,1-1.82,3.09l1.84-.35a2.3,2.3,0,0,1,.7-1.74,5.48,5.48,0,0,0,1.18-1.36c.16-.28-.68-.16-.76-.14-.31.06-1,.18-1.14.5Z"/><path class="cls-3" d="M141.66,123.12c-1.3,1.5-2,5.93.74,6.2,3,.29,4.2-3.26,2.32-5.32-.94-1-3-.68-4,.06a3.56,3.56,0,0,0-1.31,3.76c.44,1.7,2.36,2.11,3.83,1.66a3.92,3.92,0,0,0,2.82-3.48.24.24,0,0,0-.18-.16,4.09,4.09,0,0,0-3.2.12,2.51,2.51,0,0,0-1.09,2.46c0,.43,1.92.13,1.93-.52a4,4,0,0,1,.23-1.37,2.14,2.14,0,0,1,.13-.19c-.36.15-.32.23.13.24.24.06,0,.7-.07.8a3,3,0,0,1-.89,1.26c-.57.48-1.46-.75-1.64-1.13a3.06,3.06,0,0,1,.19-2.54,2.14,2.14,0,0,1,.3-.44c.18-.23.49-.22.15-.23a1.61,1.61,0,0,1,1.24.91,3.9,3.9,0,0,1,.36,2.33,2,2,0,0,1-.38.89c.14-.18,0-.07-.26-.26a1.27,1.27,0,0,1-.32-.52,5.6,5.6,0,0,1,.75-4.6c.48-.54-1.42-.33-1.77.07Z"/><path class="cls-3" d="M142.91,130.66c-1.34,1.84-1,5,1.25,6,2.46,1.09,4.06-1.69,3.79-3.78s-2.41-2.74-4.15-2.06c-2.41.94-3,3.51-2.85,5.86,0,.34.63.33.84.32a4.71,4.71,0,0,0,4.27-4.68.67.67,0,0,0-.61-.66h-.63c-.37,0-1.32.36-1.34.88-.07,1.71-.58,3.45-.63,5.17,0,.86,1.92.53,1.94-.17.05-1.72.56-3.12.63-4.83-.44.23-.89,0-1.33,1h.63c-.2-1-.4-.55-.6-.71-.06,1.28-.56,2.9-2.09,3,.29.1.57.15.85.26-.11-1.4,0-3.31,1.24-4.25.8-.61,1.53.27,1.79,1a3.14,3.14,0,0,1,0,2c-.13.41-.23.71-.41.63a2.2,2.2,0,0,1-.71-.61,3.47,3.47,0,0,1-.07-4.24c.55-.75-1.41-.63-1.81-.08Z"/><path class="cls-3" d="M146.88,137a4,4,0,0,0-1.65,3.8c.19,1.59,2,2,3.24,1.53,1.91-.77,2.37-4.57.61-5.74-1.22-.81-3.23.12-4.16,1a2.68,2.68,0,0,0-.25,3.73c1,1.21,2.73,1,4,.39.91-.44,2.57-2.21,1.66-3.25s-2.55-.76-3.64-.38c-1.74.63-1.89,2.14-1.26,3.71.2.49,2.09-.13,1.93-.52a4.25,4.25,0,0,1-.38-1.82,1.52,1.52,0,0,1,.25-.7c.08-.13.39-.27.12-.19s.06,0,.16,0a1.59,1.59,0,0,1,.51.16,1,1,0,0,1,.63.73c.1.54-.51,1.33-.83,1.7a1.87,1.87,0,0,1-.3.26c.19-.13.37,0,0-.09a1.74,1.74,0,0,1-.68-.37,2.37,2.37,0,0,1-.48-3.14,2,2,0,0,1,.69-.67c-.2.08,0,0,.22.13a1.72,1.72,0,0,1,.72,1,4.77,4.77,0,0,1-.06,2.94,3.62,3.62,0,0,1-.2.45c-.32.61-.56.07.71.07-.64,0-1.09-.76-1.24-1.28a3.43,3.43,0,0,1,1.18-3.38c.33-.19.23-.43-.12-.45a2.53,2.53,0,0,0-1.37.36Z"/><path class="cls-3" d="M149.25,142.67c-.55,1.38-1.18,3.24-.32,4.64a2.74,2.74,0,0,0,2.87,1.15,3.35,3.35,0,0,0,2.6-1.9c.63-1.51-.36-3.14-1.32-4.26-1.29-1.5-3.39-.59-4.44.66A5.34,5.34,0,0,0,148,149a2.72,2.72,0,0,0,3.74.8c1.72-1,2.11-3,1.91-4.8,0-.38-.61-.41-.87-.41-2.64,0-4.17,3.73-3.6,6,.21.84,2.14.33,1.93-.51-.46-1.83.52-3.45,1.74-4.72a2.34,2.34,0,0,1-.9.25h.64a2.05,2.05,0,0,1-.87-.25,3.89,3.89,0,0,1-.85,3.31c-.75.65-1.39-1.17-1.51-1.62a4.48,4.48,0,0,1,1.07-3.9c.82-1,1.91,1.38,2.11,2.06s-.09,2.16-1.13,1.89c-1.69-.45-.73-3.33-.35-4.3s-1.54-.91-1.83-.17Z"/><path class="cls-3" d="M154.61,147.45c-2.16,1.33-3.65,8.21.35,7.93,3-.2,4.34-5.45,2-7.21a3.5,3.5,0,0,0-4.42.55,5.42,5.42,0,0,0-1.17,4.91,3.11,3.11,0,0,0,4,2.32c2.13-.73,3-3.13,2.68-5.2,0-.25-.4-.39-.62-.39-1.21,0-2.1-.14-2.87.95a3.51,3.51,0,0,0-.34,3.77c.35.79,2.26.22,1.93-.52a2.74,2.74,0,0,1,.46-3.31,4,4,0,0,1-1.14.4h1.27c-.21,0-.41-.25-.62-.39.17,1.09-.05,3.13-1.33,3.57-1,.34-1.59-1.83-1.65-2.46a4.79,4.79,0,0,1,.63-2.74c.57-1,1.59-.78,2,.21a4.38,4.38,0,0,1,.12,2.51,4.2,4.2,0,0,1-.43,1.2,1.88,1.88,0,0,1-.36.51c-.05.06.24.09-.09-.1-1.52-.87-.46-5,.77-5.74s-.52-1.23-1.26-.77Z"/><path class="cls-3" d="M160.79,152c-1,1.18-.94,3.1-.43,4.48a3.32,3.32,0,0,0,4.11,2.07c3.29-.67,3.34-5.23,1.15-7.07-1.37-1.15-3.36-.51-4.66.38s-1.51,2.75-1.37,4.21,1,3,2.71,2.92a3.87,3.87,0,0,0,3.58-3.29,3.25,3.25,0,0,0-2-3.19c-1.41-.62-3.94-.44-5,.76-.8.89-.61,3.18-.22,4.2.66,1.71,2.56,1.55,4,1,.34-.12.75-.58.47-.94s-.91-.26-1.3-.12c-2,.73-1.45-3.05-1.15-4l-.56.62c1.29-.7,2.87-.83,3.61.7a2.23,2.23,0,0,1,.11,1.68c-.14.45-.69,1.24-1.23,1.21-.94,0-1.1-2.13-1.1-2.74,0-1.23.37-2.37,1.67-2.7.91-.23,1.6,1.07,1.83,1.73a3.33,3.33,0,0,1-.36,3.08c-.85,1-2-.25-2.34-1s-.64-2.63.1-3.46-1.06-1.11-1.6-.51Z"/><path class="cls-3" d="M168.88,150.51a4.53,4.53,0,0,0-.47,3.55,2.39,2.39,0,0,0,2.31,1.27,1.62,1.62,0,0,0,1.28-.51,6.43,6.43,0,0,0,.79-4.18c-.17-1.11-.8-2-2-1.86-1.59.22-2.21,1.67-2.89,2.93a2.73,2.73,0,0,0-.18,2.73c1,1.61,3.6,1.1,4.65-.15a2.45,2.45,0,0,0,.48-1.18c.07-.42.15-1.52-.19-1.83a2,2,0,0,0-1.75-.69,2.8,2.8,0,0,0-.93.33,1.7,1.7,0,0,0-.34.26c-.31.29-.15,0,.36,0-.35,0-1,.23-1.1.63s.61.38.82.36a2.54,2.54,0,0,0,1-.36,1.8,1.8,0,0,0,.34-.26l.16-.16c-.9,0-1.11.17-.61.44.54.43.33,1.67.11,2.22a1.07,1.07,0,0,1-.35.44c.14-.11.13,0,.13,0a1.29,1.29,0,0,1-1-.7,2.13,2.13,0,0,1,0-1.66,12.23,12.23,0,0,1,.65-1.18,5.75,5.75,0,0,1,.42-.82q.12-.18.24-.33c.32-.27.09-.26-.67,0,.58.16.7,1.34.75,1.8a5.63,5.63,0,0,1-.69,3.27l1.27-.51c-2.07-.08-1.2-3-.69-4.07.19-.39-.66-.38-.82-.36a1.4,1.4,0,0,0-1.1.63Z"/><path class="cls-3" d="M174.63,147.75c-.6,1.3-.74,2.95.44,4a2.24,2.24,0,0,0,1.87.28,3.25,3.25,0,0,0,2.07-1.54,5.83,5.83,0,0,0,.1-3.93,2.41,2.41,0,0,0-2.36-1.86c-2.57.25-4.07,4.24-2.58,6.26a2.38,2.38,0,0,0,3.15.28,4.37,4.37,0,0,0,2-3.41,2.2,2.2,0,0,0-2.34-2.33c-1.73,0-2.75,1.54-3,3.09-.16.9,1.8.62,1.95-.18a3.13,3.13,0,0,1,.46-1.29,1.41,1.41,0,0,1,.3-.3h0c-.11,0,0,0,.11.06,0,0,.14.1.18.14a1.52,1.52,0,0,1,.38.93,2.39,2.39,0,0,1-.3,1.31,3.9,3.9,0,0,1-.53.79c0,.07-.37.36-.33.34-.21.07.15,0,0,0a1.14,1.14,0,0,1-.22-.22,2.12,2.12,0,0,1-.4-1.22,4.24,4.24,0,0,1,.28-1.61,3.17,3.17,0,0,1,.86-1.34c-.17.08-.41,0-.25.06a1,1,0,0,1,.33.3,3.1,3.1,0,0,1,.57,1.3c.22.93.3,2.65-.7,3.17.07,0,.12,0-.07-.11a1.38,1.38,0,0,1-.37-.68,2.9,2.9,0,0,1,.27-2.06c.45-1-1.5-.88-1.84-.17Z"/><path class="cls-3" d="M181,142.15a2.44,2.44,0,0,0-.7,1.39c0,.16,0,.21.17.27a3.86,3.86,0,0,0,4.22-.89,1.8,1.8,0,0,0-.54-3,3.35,3.35,0,0,0-4,.76,5,5,0,0,0-.51,4.29c.07.21.41.21.57.2a4.56,4.56,0,0,0,4.54-5.79c-.05-.21-.42-.21-.57-.21a5.18,5.18,0,0,0-5.17,5.17.23.23,0,0,0,.18.15,5.27,5.27,0,0,0,6.11-2.35c.44-.63-1.47-.37-1.77.06a5,5,0,0,1-1.46,1.57,1.46,1.46,0,0,1-1,0c-.21,0,0-.81,0-.92.24-1.13,1-2.69,2.32-2.74l-.56-.2c.3,1.38.15,4.29-1.81,4.36l.56.2a5.63,5.63,0,0,1-.17-2.31,4.84,4.84,0,0,1,.32-1.17,2.53,2.53,0,0,1,.31-.49c.19-.23-.28,0,.12.11.72.25,1.31.62,1.22,1.49a2,2,0,0,1-.46.95c-.28.34-.44.19-.88,0,.06.09.11.18.17.26a2,2,0,0,1,.56-1.15c.32-.33-.27-.43-.48-.43a2,2,0,0,0-1.29.49Z"/><path class="cls-3" d="M186.18,134.91a4.76,4.76,0,0,0-1.45,3.5.57.57,0,0,0,.62.54,2.91,2.91,0,0,0,2.23-.77,3.38,3.38,0,0,0,1.06-1.62,2.08,2.08,0,0,0-1.17-2.38,3.5,3.5,0,0,0-3.5.37c-1.42,1-1.75,2.88-1.78,4.49,0,.38.3.49.63.54a4.86,4.86,0,0,0,4.26-1.49,3.12,3.12,0,0,0,.76-3.58,2.77,2.77,0,0,0-1.56-1.23c-1-.29-2,.78-2.64,1.4-1.24,1.22-1.63,2.86.22,3.6.72.28,2.26-.75,1.15-1.19-1.57-.63.71-2.42,1.32-2.85l-1.38.15c2.35,1,.84,4.29-1.43,3.93l.62.53a5.75,5.75,0,0,1,.78-3.25c.31-.45.57-.52.93-.42,1.57.42.72,2.12-.13,2.75a3.94,3.94,0,0,1,1-.28h-.63c.21,0,.41.38.62.56a3.74,3.74,0,0,1,1.09-2.85.46.46,0,0,0-.22-.82,1.5,1.5,0,0,0-1.37.37Z"/><path class="cls-3" d="M188.77,128.12a2.82,2.82,0,0,0-1.44,2.68,2.38,2.38,0,0,0,1.49,2,3,3,0,0,0,2.88-.91,4,4,0,0,0,.8-3.12c-.3-1.93-2.38-2-3.87-1.53-2.37.79-2.79,3.43-2.62,5.61,0,.19.46.15.55.14,3.36-.12,5-2.65,5.81-5.64,0-.19-.18-.24-.33-.24-2.32,0-5.1.7-6,3.11-.14.37,1.72.17,1.91-.33a2.84,2.84,0,0,1,2.86-2l-.32-.24c-.38,1.44-1.22,4.44-3.08,4.51l.55.14c-.11-1.45-.08-3.53,1.21-4.52.18-.14.22-.08,0-.06a.93.93,0,0,1,.49.14,1.87,1.87,0,0,1,.89,1.13,3.29,3.29,0,0,1,0,1.84,3.45,3.45,0,0,1-.63,1.29c-.37.42,1,0,.57-.11a1,1,0,0,1-.35-.21,2.29,2.29,0,0,1,.2-3.64c.31-.2.25-.42-.12-.44a2.35,2.35,0,0,0-1.37.36Z"/><path class="cls-3" d="M191.26,119.69c-1.37,1.54-1.45,3.43-1.45,5.4,0,.57.72.56,1.12.46a3.87,3.87,0,0,0,.61-7.42,1.4,1.4,0,0,0-1.67.45,12.89,12.89,0,0,0-1.33,5.24.54.54,0,0,0,.62.51,4.39,4.39,0,0,0,3.05-1c.34-.29.17-.69-.22-.8a1.55,1.55,0,0,0-1.36.37.86.86,0,0,1-.76.23l.62.52a12,12,0,0,1,1.2-4.92l-1.66.45a3.45,3.45,0,0,1,2.11,2.54,2.23,2.23,0,0,1-1.51,2.73l1.13.47c0-1.63-.08-3.47,1.08-4.76.79-.88-1.08-1-1.58-.44Z"/><path class="cls-3" d="M189.9,114.25c-1.09,1.16-2.67,3.88-1.73,5.47s3.76.24,4.32-1a3.88,3.88,0,0,0-1.61-4.81,2.25,2.25,0,0,0-2.71.92,4.13,4.13,0,0,0-.26,4.07c.09.19.39.16.56.16a2.44,2.44,0,0,0,2.11-.71c.23-.27.94-2.31.48-2.59-2.47-1.47-5.13-.52-7.37.92-.32.21-.24.45.13.48a2.26,2.26,0,0,0,1.36-.37,6.43,6.43,0,0,1,1.94-.93c.24,0,2.06.07,2.06.73a3.89,3.89,0,0,1-.55,2.32,3.71,3.71,0,0,1,1.29-.26h-.63c.18,0,.37-.11.56-.05a4,4,0,0,1,.54-4.35c-.5.16-1,.27-1.49.43,1.94.11,2.43,3.7,1.36,4.91.25-.29.22,0-.11-.32a1.11,1.11,0,0,1-.25-.55,3.37,3.37,0,0,1,.2-1.72,7.17,7.17,0,0,1,1.56-2.85c.45-.48-1.42-.26-1.76.1Z"/><path class="cls-3" d="M143.45,118.28c-2.37.91-3.1,3.36-3.14,5.7,0,.22.46.26.59.26a4,4,0,0,0,3.73-2.39c.62-1.61-.69-2.74-2.12-3.08a1.65,1.65,0,0,0-1.49.5,4.5,4.5,0,0,0-.74,3.6c.43,1.46,2.16,1.56,3.4,1.35.35-.06,1-.22,1.1-.63s-.6-.41-.82-.37c-2.45.41-2-2.61-1.15-3.94l-1.49.49a1.75,1.75,0,0,1,1.5,1.84c0,.57-.49,1.56-1.16,1.59l.58.26c0-1.47.37-3.85,1.95-4.46.21-.08.83-.43.53-.73s-.94-.12-1.27,0Z"/><path class="cls-3" d="M137.13,127c-.3,2.54-.11,6.29,3.17,6.57,2,.16,4.39-1.43,4.31-3.6-.11-2.73-2.87-3.53-4.67-1.74-2.22,2.22-2.09,6.42.59,8.12.68.43,2.4-.51,1.5-1.08-1.94-1.23-2-3.59-1.14-5.52a4.13,4.13,0,0,1,.65-1c.32-.37.22-.26.45,0a2.49,2.49,0,0,1,.64,2,1.72,1.72,0,0,1-2.17,1.39c-1.86-.62-1.54-3.87-1.38-5.27.11-1-1.85-.67-2,.16Z"/><path class="cls-3" d="M142.84,140.29a3.91,3.91,0,0,0,2.33,5,1.18,1.18,0,0,0,1.53-.74c.33-1.43.31-3.15-1.17-3.91a4.15,4.15,0,0,0-3.89.38,3.18,3.18,0,0,0-1.76,3.07c.21,2,3.06,3.15,4.65,3.74a1.25,1.25,0,0,0,1.48-.55,10.58,10.58,0,0,0,1.33-4c.06-.87-1.18-.71-1.63-.4a5,5,0,0,0-2.22,5.8c.2.92,2.14.41,1.93-.52-.44-2-.08-3.2,1.58-4.36l-1.62-.39a9.59,9.59,0,0,1-1.22,3.62l1.48-.55c-1.42-.52-5.55-2.46-3.07-4.32a1.77,1.77,0,0,1,1.71-.27c1,.4.63,2.07.46,2.79l1.54-.73c-1.69-.68-1.93-2.26-1.48-3.85.26-.94-1.72-.73-2,.14Z"/><path class="cls-3" d="M146.2,148.9c-1.92,2.08-2.47,6.72.85,7.76a1.42,1.42,0,0,0,1.48-.52c1-1.56,2.24-4.35,1.29-6.16-1.14-2.2-4.49-.68-5.57.75a5.64,5.64,0,0,0-.09,6.08c1.37,2.11,4.14.8,5.52-.52.85-.8-1.05-.91-1.57-.41-.36.34-.94,1-1.5.76a2.33,2.33,0,0,1-1.05-1.4,5.13,5.13,0,0,1,.38-4.21c.94-1.63,2.3-.64,2.21.91a8.7,8.7,0,0,1-1.43,4.09l1.48-.52c-2.44-.76-1.74-4.77-.42-6.2.8-.86-1.08-.95-1.58-.41Z"/><path class="cls-3" d="M150.09,158c-4-.95-3.52,6.84-.87,8.12,4.36,2.1,6-5.7,1.5-6.85a1.31,1.31,0,0,0-1.48.54c-.64,1-3,4.44-.75,5.1,1.61.46,3.42-.8,4.51-1.85s1.48-2.72-.2-3.49-2.73-.21-3.74,1.19a5.32,5.32,0,0,0-.42,5.93c.45.74,2.29,0,1.77-.85-1.17-2-.26-4.09,1.2-5.64l-1.15.41c.49,0,1.86.14,1.59,1a4.06,4.06,0,0,1-2.44,2c-.24.07-.06.05-.08,0-.37-1,1.08-2.81,1.56-3.54l-1.48.54a2.64,2.64,0,0,1,1.91,2.29c.14.69-.07,2.67-1.18,1.95-.86-.56-1.06-2.05-1.16-3a6.52,6.52,0,0,1,0-1.71,3.77,3.77,0,0,1,.18-.68c.21-.55.28,0-.44-.15.83.2,2.29-1,1.12-1.29Z"/><path class="cls-3" d="M153.64,166.34a6.23,6.23,0,0,0,.51,5.37,2.58,2.58,0,0,0,3.52,1.12c1.57-.88,1.21-3.41.89-4.84a2.7,2.7,0,0,0-2.88-2.34c-2.74.15-4.73,3.6-3.24,5.94a4.51,4.51,0,0,0,2,1.51c1,.44,2-.57,2.63-1.32,1.35-1.72.79-3.6-1.29-4.22a1.41,1.41,0,0,0-1.49.52c-.66,1.34-1.27,2.66-.69,4.13.25.64,1.41.37,1.76,0,.5-.59.77-1.32,1.27-1.9.77-.91-1.1-1-1.58-.44s-.77,1.32-1.27,1.91l1.75-.05c-.5-1.28,0-2.32.58-3.48l-1.48.52c2,.59,1.26,2.56,0,3.5l1.38-.15c-1.57-.67-2.66-2-1.92-3.74.4-1,1.3-2,2.12-.9a5.57,5.57,0,0,1,.66,3.08,3.5,3.5,0,0,1-.24,1.4c-.17.35-.13-.09.4,0a1,1,0,0,1-.35-.18c-1.73-1.1-1.67-3.95-1.09-5.61.27-.77-1.69-.52-1.94.2Z"/><path class="cls-3" d="M158.89,170.45c-1,1.21-1.19,3.39-1,4.9a2.58,2.58,0,0,0,3.86,2,5.15,5.15,0,0,0,2.17-5.08,3.58,3.58,0,0,0-3-2.58c-2.8-.16-3,3.35-2.7,5.31a3.5,3.5,0,0,0,1.18,2.52c1.07.69,2.3-.25,2.89-1.11a8.49,8.49,0,0,0,.86-1.86c.08-.22.09-.49-.16-.6-1.22-.56-2.66-1-3.87-.16-1.38,1,.3,2.48,1.09,3.11.6.48,2.33-.39,1.51-1a3.37,3.37,0,0,1-1.14-1.29c-.52,0-.53.06,0,.1a4.31,4.31,0,0,1,.91.33c-.05-.2-.11-.4-.16-.59a11.69,11.69,0,0,1-.7,1.58,2.52,2.52,0,0,1-.28.44c-.25.3-.08,0,.42,0,.22,0,.05,0-.11-.26a3.09,3.09,0,0,1-.34-.89,5.86,5.86,0,0,1,.28-4.34c.09-.15-.12.08-.29,0a2.47,2.47,0,0,1,1,.73c1.09,1.06.74,2.66.09,3.9a3.17,3.17,0,0,1-.57.75c-.13.09-.12.1,0,.05a1,1,0,0,1-.4-.19c-.59-.36-.69-1.36-.71-2a5.75,5.75,0,0,1,.7-3.35c.78-.91-1.08-1.07-1.59-.47Z"/><path class="cls-3" d="M165.7,174c-.06,1-.29,2.53.4,3.35s1.94.15,2.47-.4a7.8,7.8,0,0,0,1.82-5.44c-.18-2.79-4.07-1.5-5.26-.22-1.95,2.07-2,7.64,2,6.63a4.61,4.61,0,0,0,3.5-4.14c.1-2.08-1.83-3-3.64-3-.45,0-1.2.18-1.33.7a8.65,8.65,0,0,0-.48,4c.3,1.26,1.91,1.1,2.86.9,1.19-.25.88-1.3-.29-1.06-1.45.31-.3-3.42-.16-4l-1.33.69a2.26,2.26,0,0,1,2.14,3.39c-.59,1.34-2,2.23-2.55.41a4.89,4.89,0,0,1,.81-4.07,2.71,2.71,0,0,1,1.24-.66s.08,0,.27.17c.87,1-.12,3.4-.59,4.39a6.09,6.09,0,0,1-.52.89,1.28,1.28,0,0,1-.2.22s.77-.23.93-.13c-.37-.22-.22-2.24-.2-2.76.05-.85-1.89-.48-1.93.22Z"/><path class="cls-3" d="M174.13,167.94c-.81.82-3.21,3.32-1.11,4.11,1.53.57,3.59-.34,4.84-1.16,1.41-.91,2.54-2.45,1.62-4.09-1-1.84-3.93-2.94-5.76-1.74-1.65,1.08-1.28,3.85-.12,5.16a2.38,2.38,0,0,0,3,.23c1.43-.8,2-2.87,2.46-4.31a.34.34,0,0,0-.08-.29,3.8,3.8,0,0,0-4.65-.75,3.61,3.61,0,0,0-1.65,3.94c0,.18.24.26.39.31a3.86,3.86,0,0,0,2.68,0,6.17,6.17,0,0,0,1.86-1.67c.81-.83-1.08-.91-1.58-.4-.34.35-.65.72-1,1.07-.19.2-.08.05.1.05a3.12,3.12,0,0,1-.9-.22l.38.31a2.56,2.56,0,0,1,.77-2.63c.37-.27.89.06,1.22.25.68.4.31.89.09,1.5a7.59,7.59,0,0,1-.89,1.72c-.07.09-.29.32-.28.31-.21.16,0,0,.22,0-.09,0,.09.06-.1,0a.8.8,0,0,1-.25-.21,2.49,2.49,0,0,1-.52-.87,3.81,3.81,0,0,1-.23-2.16,1.51,1.51,0,0,1,.3-.66c.06-.05.06,0-.05,0,.26-.08-.2,0,.08,0-.18,0,.15,0,.14,0a4.11,4.11,0,0,1,2.59,1.82c.86,1.41-.89,2.63-1.81,3a3.8,3.8,0,0,1-1.16.34c-.3,0-.07,0-.41,0,.1,0-.13-.09-.09-.05-.16-.14-.13-.4,0-.73a6.82,6.82,0,0,1,1.45-1.84c.82-.83-1.07-.91-1.57-.41Z"/><path class="cls-3" d="M179.2,160.93c-.86,1-.71,1.88-.17,3,.2.44.72.41,1.12.33,3-.63,4.16-4.15,3-6.79s-4.89-1.46-5.66.89a3.7,3.7,0,0,0,2.54,4.6c3.55.66,4.05-3.93,4.07-6.36,0-.48-.48-.56-.87-.54-2.73.13-5.9,2.81-3.53,5.48.52.59,2.37-.15,1.78-.81-1.32-1.49-.41-3.31,1.54-3.41l-.87-.53a13.64,13.64,0,0,1-.45,3.76,2.88,2.88,0,0,1-.58,1.09c-.19.22-.18.09-.07.11-1.07-.2-1.74-1.67-1.77-2.64a2.15,2.15,0,0,1,.63-1.61c.63-.64,1.12.06,1.39.68.63,1.49.42,4.5-1.5,4.91l1.12.32c-.31-.65-.73-1.4-.17-2.05.78-.9-1.08-1-1.59-.46Z"/><path class="cls-3" d="M184.79,152.81a8.26,8.26,0,0,0-.7,3.36c0,.45.48.67.89.6a3.82,3.82,0,0,0,3.43-2.74,3.67,3.67,0,0,0-1.17-3.47c-1.88-1.58-5.74.54-5.45,3,.25,2.07,3,3,4.71,2.48a3.14,3.14,0,0,0,2.23-2.4,5.92,5.92,0,0,0,0-2.18c-.06-.46-.09-.86-.54-1.08a7.08,7.08,0,0,0-1.8-.61,3.57,3.57,0,0,0-2.84.58,2.63,2.63,0,0,0-.69,2.83c.19.87,2.12.37,1.93-.52-.07-.32-.31-1.41.17-1.57.64-.2,1.56.3,2.11.56l-.41-.37a4.92,4.92,0,0,1,0,2.87,1.24,1.24,0,0,1-.41.56.68.68,0,0,1-.34.1,2.3,2.3,0,0,1-2.16-1.57,1.4,1.4,0,0,1,.59-1.32c.5-.41.85-.78,1.37-.29,1.07,1,1.26,3.47-.55,3.78l.89.61a7.17,7.17,0,0,1,.58-3c.47-1-1.48-.94-1.84-.2Z"/><path class="cls-3" d="M186.66,144.19a9.11,9.11,0,0,0-.65,3.9c0,.31.94.11,1.05.07,3.06-.88,4-3.3,4.05-6.3a.23.23,0,0,0-.17-.13,6.93,6.93,0,0,0-4.84.59c-1.42.86-1.63,2.34-1.36,3.87.08.43,1.35,0,1.53-.11a8.26,8.26,0,0,0,2.22-2.11c.43-.47-1.43-.24-1.76.12-.54.59-.85,1.28-1.59,1.69l1.53-.11a4.07,4.07,0,0,1,.16-2.44c.35-.81,1-.88,1.79-.83,1,.07.42,2,.24,2.64a3.31,3.31,0,0,1-2,2.47l1.05.07a8.52,8.52,0,0,1,.63-3.71c.16-.37-1.68-.19-1.91.32Z"/><path class="cls-3" d="M189.82,136c-.1.67-.54,1.22-.64,1.9,0,.11.31.11.34.11a2.81,2.81,0,0,0,2.73-1.2c.95-1.42.77-3.52.77-5.14,0-.11-.29-.12-.33-.12a4.71,4.71,0,0,0-3.69,1.67c-1,1.25-1.07,3.17-1.09,4.68,0,.34,1.4-.1,1.52-.16a4.24,4.24,0,0,0,2.3-2.18c.19-.38-1.37,0-1.5.07l-1.27.64c-1.13.57.68.42,1.1.2l1.27-.63-1.5.07a2.93,2.93,0,0,1-1.5,1.63l1.52-.16a11.59,11.59,0,0,1,.31-2.81c.1-.45.65-2.24,1.26-2.27l-.33-.11c0,1.84.17,4.25-1.18,5.71a5.38,5.38,0,0,1,1.51-.29h-.64c.11,0,.22-.09.33-.06.11-.67.54-1.3.64-2,0-.17-1.85-.13-1.93.44Z"/><path class="cls-3" d="M192.43,126.88c-.8.94-.71,2.29-.71,3.44,0,.58,1.37.12,1.56,0a3.64,3.64,0,0,0,2.2-3.23c-.07-1.52-1.9-2-3.13-2-.45,0-1.42.21-1.42.79v2.54c0,.57,1.44.12,1.64,0a2.58,2.58,0,0,0,1.16-1,4.35,4.35,0,0,1,.47-1.13c.31-.36-.25-.54-.51-.55a1.7,1.7,0,0,0-1.27.52c-.46.55-.36,1.28-1,1.65h1.52v-2.54c0,.27-.85.53-1.3.79,2.45.07,2.22,2.69.44,3.64l1.57,0a4.48,4.48,0,0,1,.57-2.91c.31-.36-.25-.54-.51-.54a1.63,1.63,0,0,0-1.27.52Z"/><path class="cls-3" d="M191.07,67.3c.09,8.91,1.19,17.76,1.27,26.66l2-.15c-.1-7.72-1-15.35-1.67-23-.08-.83-1.7-.44-1.7.33V98.4c0,1,1.34.68,1.66,0C196.7,90.05,195.12,80,195.06,71c-.65.12-1.36.23-2,.34,1.24,4.85,1.19,10.17,1.36,15.14.09,2.77.07,5.53,0,8.29,0,1.33.17,5.39-1.06,6.34-1,.8.52,1.45,1.28.87,3-2.29,1.82-10.33,1.79-13.47-.07-5.74,0-12.08-1.47-17.69-.2-.82-1.95-.45-1.94.33C193,80,194.29,90,190.26,98.22c.63,0,1.67,0,1.67,0V71a6.89,6.89,0,0,1-1.71.34c.68,7.56,1.91,15.06,2,22.66,0,1,2,.72,2-.15-.08-8.9-1.15-17.75-1.24-26.65,0-1-1.93-.72-1.93.14Z"/><path class="cls-3" d="M193.08,62.59c4.61,6.6,3.73,15.46,3.7,23.11,0,1.06,2,.82,2-.12,0-7.91.86-17-3.91-23.87-.54-.77-2.37,0-1.76.88Z"/><path class="cls-3" d="M195.53,70.53a325.35,325.35,0,0,0,1.9,49.64c.08.63,2,.2,1.94-.52a323.11,323.11,0,0,1-1.91-49.37c0-.79-1.91-.38-1.93.25Z"/><path class="cls-3" d="M190.93,88.91v18.41c0,.9,2,.53,2-.2,0-4.71.69-9.69-1.24-14.13-.33-.75-1.71-.27-1.92.36a22.87,22.87,0,0,0-1.26,5.72c-.05.77,1.23.5,1.6.25A8.44,8.44,0,0,0,193,95.85c.46-.9-1.49-.76-1.82-.12a7.06,7.06,0,0,1-2.24,2.88l1.59.25a22.05,22.05,0,0,1,1.27-5.71l-1.94.36c1.89,4.35,1.26,9.19,1.21,13.81.65-.07.9-.14,1.9-.2V88.71c0-.91-2-.53-2,.2Z"/><path class="cls-3" d="M195.53,66.22c.94,10.1,6.64,19,7,29.2,0,.7,2,.29,1.93-.52-.34-10.2-6-19.1-7-29.2-.07-.72-2-.29-1.93.52Z"/><path class="cls-3" d="M194.28,63.91c-1.08.14-1.25.44-.52.91.37.41.71.84,1,1.28a40.91,40.91,0,0,1,2.64,4,26.32,26.32,0,0,1,3.06,9.27c1.53,8.77.25,18.28-2.42,26.7-.18.55,1.73.28,1.91-.29,3.37-10.61,4.74-23.63.47-34.18-.42-1-7.24-12-8.1-7.42-.11.62,1.82.28,1.92-.29Z"/><path class="cls-3" d="M191.72,63.68c1.22,5.69,2,11.45,3.18,17.14.15.74,2.09.25,1.93-.52-1.22-5.68-2-11.45-3.18-17.14-.16-.74-2.09-.25-1.93.52Z"/><path class="cls-3" d="M138.41,84.63c.08,10,1.35,19.87,1.43,29.83,0,.59,2.09.24,2.09-.38v-4.45c0-.81-2-.4-2,.24v4.45a7.46,7.46,0,0,1,1.8-.38c-.07-10-1.25-19.87-1.33-29.83,0-.62-2-.24-2,.52Z"/><path class="cls-3" d="M139,86.35q0,11.76-.84,23.48a13.54,13.54,0,0,0,1.74-.16V106.5c0-1-2-.68-2,.16v3.17c0,1,2.13.69,2.19-.16.56-7.82.75-15.64.75-23.48,0-1-1.84-.68-1.84.16Z"/><path class="cls-3" d="M139.68,77c-.11,10.81-1.82,21.55-1.91,32.37,0,.35,1.93.06,1.94-.52.08-10.82,1.8-21.56,1.9-32.37,0-.34-1.93-.06-1.93.52Z"/><path class="cls-3" d="M139.69,66.11c-7.76,12.85-8.24,28.66-8.26,43.27,0,.46,1.93.14,1.93-.52,0-14.53.53-30.25,8.24-43,.23-.38-1.6-.24-1.91.29Z"/><path class="cls-3" d="M138.77,66.94c-4.25,2.34-4.61,8.07-4.84,12.38-.3,5.81.58,11.57.67,17.36,0,.62,1.94.24,1.93-.51-.06-4.25-.57-8.48-.69-12.73-.14-4.58-.62-13.29,4.14-15.92,1.14-.63-.57-.93-1.21-.58Z"/><path class="cls-3" d="M142.84,81.26c-.08,9.17-1.2,18.52,1.28,27.48.2.72,1.45.57,1.78.05,4.41-6.79,2.37-17.26.79-24.68-.2-.94-2.14-.43-1.93.52,1.47,6.91,3.63,17.19-.49,23.55l1.78,0c-2.44-8.85-1.33-18.06-1.25-27.1,0-1-2-.78-2,.13Z"/><path class="cls-3" d="M144.93,66.51V61.43c-1,.25-1,.49-1.39.74,2.21,0,2,12.76,1.91,14.31a154.32,154.32,0,0,1-2,16.86c-.13.92,1.83.62,1.95-.18,1.47-10.16,4.08-22.14,0-32a.78.78,0,0,0-.62-.5h-.63c-.4,0-1.24.39-1.24,1v5.08c0,1,2,.61,2-.18Z"/><path class="cls-3" d="M187.26,66a49.79,49.79,0,0,0,1.29,9.08c.19.92,2.12.42,1.93-.52a47.4,47.4,0,0,1-1.25-8.7c0-1-2-.76-2,.14Z"/><path class="cls-3" d="M187.27,66c.14,4,1.81,7.69,2.55,11.6.16.86,2.1.37,1.93-.51-.72-3.78-2.4-7.37-2.53-11.25,0-1-2-.65-1.95.16Z"/><path class="cls-3" d="M156.25,108.24c4.71,5,5.79,12.43,11.56,16.6.55.4,2.32-.4,1.52-1-5.62-4.06-6.69-11.48-11.29-16.4-.49-.52-2.33.2-1.79.78Z"/><path class="cls-3" d="M171.48,105c.46-.16.83-.48,1.27-.63l-1.34-.11a37.7,37.7,0,0,1-1.26,11.3l1.92-.26a35.31,35.31,0,0,1,3.18-8.25c.26-.53-1.64-.33-1.93.26a35.28,35.28,0,0,0-3.17,8.25c-.16.7,1.74.32,1.92-.26a38.48,38.48,0,0,0,1.27-11.56c0-.48-1.15-.17-1.33-.1-.46.16-.83.48-1.27.63-1.29.45-.11,1,.74.73Z"/><path class="cls-3" d="M172.07,103.15c-.5-1-2.06-.31-2.54.41-1.6,2.4-2.29,5.53-3.19,8.25l1.93-.41c0-4-.25-7.72-1.91-11.42-.23-.54-1.74,0-1.92.41-1.79,4.23-.85,8.92-1.9,13.33l1.92-.42c-1.82-4.22-3.62-8.45-6.41-12.14l-1.81.69a32,32,0,0,0,7,5.08c.32.16,2.08,0,1.87-.61-1.07-3-3.68-5-6.4-6.43l-1.7.75c4.84,1.56,9.6,2.29,14.47.5.19-.06.8-.33.55-.62-1.82-2.13-4.59-2.54-7.27-2.63-.27,0-2.15.61-1.4.84,3.93,1.21,7.75,0,11.06-2.23.8-.55-.81-.48-1.1-.35-2.09.91-3,2-3.16,4.34,0,.39,1.19.07,1.32,0a11.78,11.78,0,0,0,4.34-2.86c.32-.32-.28-.41-.48-.39a21.45,21.45,0,0,0-5.83,1.43c-1.29.45-.08.82.7.55,1.5-.53,6.58-1.59.57.72l1.31,0A3.17,3.17,0,0,1,174,96.7l-1.1-.34a9.07,9.07,0,0,1-8,1.57l-1.4.84c2.5.07,5,.46,6.69,2.44.19-.2.37-.41.56-.62-4.13,1.52-8.21.53-12.19-.76-.39-.12-2.11.52-1.7.75,2.66,1.43,5.24,3.31,6.29,6.26l1.87-.6a32,32,0,0,1-7-5.08c-.36-.35-2.17.21-1.81.69,2.74,3.63,4.5,7.82,6.29,12,.21.5,1.81,0,1.92-.41,1.05-4.4.12-9.12,1.9-13.33l-1.92.41c1.66,3.71,1.9,7.42,1.9,11.43,0,.47,1.79,0,1.93-.42.42-1.29.84-2.58,1.28-3.86.31-.88.64-1.76,1-2.62.14-.36.3-.71.47-1q.72-.91-.87-.3c.29.53,2.13-.14,1.93-.52Z"/><path class="cls-3" d="M157.07,90.65h9.52c.58,0,1.52-.69.82-1.21-2.56-1.93-6.73-1.67-7.44,1.94-.07.39.35.62.65.67a11.57,11.57,0,0,0,9.86-2.79c.62-.53.23-1.26-.56-1.18-2,.21-2.71.85-4.07,2.33-.34.38-.12.77.26,1,3.62,1.85,7.16-.62,10.09-2.75l-1.57-.57c-1.73,3.26,2.65,3.92,5,4,1,0,2-1.39.66-1.44-1,0-5-.08-3.84-2.33.49-.94-1.13-.9-1.57-.58a26.76,26.76,0,0,1-3,2q-6.12,1.26-2.1-.19l-.57-1.19a8.35,8.35,0,0,1-4,2.24c-4.13.28-3.89.45.71.21.28-.43.55-1.15.83-1.15h-9.52c-1.12,0-1.47,1-.16,1Z"/><path class="cls-3" d="M173.57,72.65h10.15c.68,0,1.64-.89.63-1.21a15.9,15.9,0,0,0-4.91-.6c-.05.49-.11,1-.16,1.52a10.76,10.76,0,0,0,4.32-.75c1.22-.51.14-1.61-.87-1.18a8,8,0,0,1-3.29.5c-1.13,0-1.47,1.47-.16,1.47a12.72,12.72,0,0,1,4,.62c.21-.47.42-1.37.63-1.37H173.73c-1.13,0-1.47,1-.16,1Z"/><path class="cls-3" d="M153.22,73.47c3.52,1.93,7.07,1.37,10.68,0,.68-.27.76-1.07-.06-1.15-.28,0-.94-.08-1.15-.3l-.27.79-.3.16c1-.08,1.53-1.39.21-1.28a1.92,1.92,0,0,0-1.16.36c-.2.16-.53.52-.26.79a3.69,3.69,0,0,0,2.23.77l-.06-1.15c-2.86,1.1-5.55,1.51-8.35,0-.67-.36-2.41.56-1.51,1Z"/></svg>