<svg id="layer1" xmlns="http://www.w3.org/2000/svg" viewBox="0 0 488.28 187.67"><defs><style>.cls-1{fill:#e09336;}.cls-2{fill:#f7d6b5;}.cls-3{fill:#492d0c;}</style></defs><path class="cls-1" d="M425.46,65.83c-1.67-2.9-4.7-4.88-7.82-6.12a4.78,4.78,0,0,0-1.78-3.33c-7.61-6-16.71-11.19-26.41-12.76-17.6-8.59-39-9.95-56.7-1.37a12.77,12.77,0,0,0-2.6.46c-5.27-.19-10.58.11-15.85.32-10.86.42-21.78-.1-32.65-.26-23.6-.36-47.23,0-70.83.19s-47.49.5-71.22-.4c-11.18-.42-22.34-1-33.51-1.57-10.45-.52-21.23-.82-31.34,2.35A6.11,6.11,0,0,0,72.09,45C60.58,46.44,49.7,50.36,42.48,59.71c-7.71,10-11,24.9-.92,34.58,4.49,4.3,9.91,3.46,15.53,3.6,4.67.11,6.81,8.08,9,11.33,4.28,6.44,13.9.82,10.35-6.08-.81-1.57-1.65-3.12-2.42-4.72a11.81,11.81,0,0,1-.68-2,5.75,5.75,0,0,0,1.1-1.4c2.83-3.06,2.67-8.76-2.51-9.78C65.72,84,55.52,81.37,55.07,73.5c-.3-5.28,7.26-8.46,12-10a7.71,7.71,0,0,0,2.76.83c16.85,1.82,33.56-2.94,50.42-2.74,9.17.11,18.32.88,27.46,1.61,9.76.78,19.54,1.27,29.29,2.27,19.13,2,38.1,5.22,57.33,6.15,9.12.44,18.24.78,27.29,2.08a65.36,65.36,0,0,1,12.7,2.67c4.1,1.45,8,2.25,12,0a6.68,6.68,0,0,0,1.17-.86c.05.38.11.77.17,1.15a.31.31,0,0,0,0,.08c0,1.2,0,2.41,0,3.6s1.43,2.6,2.56,2.22,1-.28,1.69-1.08a1,1,0,0,0,.16-.26c.32-.06.57-.3.63-.83l.09-.73a.89.89,0,0,0,.27-.37l.49.18a55.67,55.67,0,0,0,9.27,4.1,6.47,6.47,0,0,0,1.54,2.93,40.88,40.88,0,0,0,8.18,6.92,6.51,6.51,0,0,0,1.48,3.2c1.44,1.74,2.83,3.52,4.2,5.33a74.49,74.49,0,0,0,4.85,12.13c0,.29.08.58.13.88-.14.06-.2.23-.12.55a36.7,36.7,0,0,0,12.47,19.35c12.56,15.44,33.74,26.14,53.62,22,10.57-2.21,18.37-10.41,24.56-18.72a81.91,81.91,0,0,0,13.8-29.47,5.73,5.73,0,0,0-.95-4.92,3.33,3.33,0,0,0,.94-2.44c.11-.17-.33-.63-.91-1.08-.89-.73-2.13-1.45-2.38-1.18-.67.7-1.24,1.49-1.85,2.23a5.38,5.38,0,0,0-5.88,2.73,7.42,7.42,0,0,0-2.3,0,39.11,39.11,0,0,0-8.87,2.3,13.41,13.41,0,0,0-5.12,1.33,5.52,5.52,0,0,0-3.27-1.07c-7.22,0-15.07.28-22.66-.56a22.51,22.51,0,0,0-5.58-1.88c-4.29-2.22-8.59-4.34-13.41-5.09A62.25,62.25,0,0,0,339.8,91c-3-1.79-6-3.56-9-5.13a1.45,1.45,0,0,0-1-.93c-1.67-.6-3.29-1.29-4.94-1.89-1.73-.76-3.48-1.48-5.24-2.14-.46-.25-.91-.52-1.37-.79a2.38,2.38,0,0,0-1.63-.27l-.1,0c-1.6-1-3.23-1.93-4.91-2.77a6.66,6.66,0,0,0-2.89-.72,32.65,32.65,0,0,0-5.57-1.74l-.49-.22a2.19,2.19,0,0,0-1.33-.09,19.79,19.79,0,0,0-4.29-.08l-.31.06c-.64-.14-1.3-.26-2-.35a37.38,37.38,0,0,0-.25-11.47l8.84.2a5.3,5.3,0,0,0,4.3,1.7c7.86-.27,15.36,1.63,22.81,3.93a41.16,41.16,0,0,0,11,6.4A65.41,65.41,0,0,0,357.82,79a89.62,89.62,0,0,0,22,6,16.73,16.73,0,0,0,7.19,3.82,32,32,0,0,0,11.74.2,42,42,0,0,0,8.63-.57c6.41-1,15.13-4.07,18-10.49a14.2,14.2,0,0,0,1.15-4.44,12.26,12.26,0,0,0,1.29.56s.65.21.68,0C429,70.89,427.66,68.15,425.46,65.83Z"/><path class="cls-1" d="M175.58,111.71a31.57,31.57,0,0,0-11.8-19.92,6.42,6.42,0,0,0-2.23-1.12,26.17,26.17,0,0,0-13-5.08c-2.2-1.55-4.61-2.87-6.42-4.84a5.46,5.46,0,0,0-5-1.58c-.1-.13-.2-.25-.31-.37-.17-.43-.3-.86-.44-1.31-1.89-6.2-12.52-5.48-11.8,1.51a7.49,7.49,0,0,1-.11,2.55A24.55,24.55,0,0,0,121.11,88a4.88,4.88,0,0,0-.26,2.19c-4.8.68-8.61,4-11.47,8a26.89,26.89,0,0,0-4.82,8.09c-2.85,7-4.77,15.46-3,23a17.48,17.48,0,0,0,.91,2.79,4.89,4.89,0,0,0,.26.88c1.47,3.65,4,9,7.48,12.33a33.42,33.42,0,0,0,4.67,5.57,5.69,5.69,0,0,0,5.45,1.54c9.48,7.17,24,5,34.73,1.17,15.7-5.62,28.18-21.2,23.2-38.43A5.68,5.68,0,0,0,175.58,111.71Z"/><path class="cls-2" d="M423,81.2a23.09,23.09,0,0,1-10.73,5.26,2.54,2.54,0,0,0-1.73,1.48,13.93,13.93,0,0,0-4.67,1.66,50.79,50.79,0,0,0-5.38.11,2.71,2.71,0,0,0-1.73-.59l-2.6,0c-11.16-.22-21.9-2.72-32.3-6.42a36.53,36.53,0,0,0-8.66-3.36c-6.08-2.56-12.06-5.43-17.93-8.4A161.72,161.72,0,0,0,316,61.51c-6.56-2.2-14.26-3.75-20.73-.53a2.79,2.79,0,0,0-1.29,3.17,9.55,9.55,0,0,1,0,6.33,2.82,2.82,0,0,0,3.44,3.44l2.17-.55a13.82,13.82,0,0,0,6.24,1.7,3.92,3.92,0,0,0,3.51-1.57,2.65,2.65,0,0,0,1.11,1.06,102.17,102.17,0,0,0,11.21,4.89c5.55,5.49,12.87,8.74,20.41,11.2a2.81,2.81,0,0,0,1.25.75c11.89,3.69,23.16,9.08,35.25,11.61,7.15,2.14,14.39,3.57,21.8,3.17,6.05-.32,13.89-2.11,19.57-5.94a2.67,2.67,0,0,0,1.54-.82,42.88,42.88,0,0,0,4.12-4.71,2.4,2.4,0,0,0,.51-1.29,13.93,13.93,0,0,0,1.25-7,3.38,3.38,0,0,0-.24-1c.2-.51.41-1,.6-1.51C428.74,81.14,424.9,79.44,423,81.2ZM303.46,64.9c-.22-.1-.44-.19-.67-.27q.52,0,1,0a2.65,2.65,0,0,0,.3.44Z"/><path class="cls-2" d="M288.43,65.11c.05-.13.05-.23.1-.36.49-.06.8-.22.8-.54V62.84c0-1.24-3.38-1.55-3.89-.45a3.37,3.37,0,0,0-1.63-.23H272.44c-.31,0-.66-.63-.95-.68a45.2,45.2,0,0,0-9.26-.73c-7.09-.38-14.23-.37-21.28-.61-13-.45-25.94-1.57-38.89-2.61-10.39-.83-20.65-1.23-31-1.3-5.14-.38-10.28-.81-15.42-1.2-10.58-1-21.26-3.12-31.88-2.18-1.45.13-1.13.74-.39,1.22-.37.59.24,1.49,1.51,1.66C150.75,59.05,177,59.27,203,61c7,.45,14.1.91,21.15,1.34a3.5,3.5,0,0,0,1.58.62c15.12.73,30.25,2.89,45.37,2.73a26.71,26.71,0,0,0,13,.52h0c.18,2,3.93,1.82,3.93.74a1.82,1.82,0,0,1,0-.32C289.66,66.67,289.46,65.63,288.43,65.11Z"/><path class="cls-2" d="M117,49.55c-14.83-.06-29.7-1.59-44.36,1.33-10,2-22,6.91-28.75,14.91a14.06,14.06,0,0,0,1.9,20.1c6.32,4.93,14.73,6.39,22.42,7.79,2.25.41,4-3.07,1.44-3.52C63.15,89,56.41,87.77,50.58,84.45,42.74,80,43,71.08,49.43,65.32,56.81,58.74,68,55.23,77.57,53.72c8.37-1.32,16.89-1.19,25.4-.88a1.73,1.73,0,0,0,1.16.32h12.42C118.93,53.16,119.62,49.55,117,49.55Z"/><path class="cls-3" d="M318,63.69c16.53,5.5,31,15.8,47.77,20.66,8.37,2.42,17.45,3.34,26.12,4,7.43.53,14.95.28,22.12-1.87,8.57-2.58,20.42-10.23,14-20.57-8-13-24-13.5-34.74-23-.53-.47-2.34.28-1.79.76,8.71,7.73,21,9.33,29.81,16.88,4.75,4.06,8.51,10.63,5.14,16.62-3,5.37-10.39,7.83-16,9.19-8.56,2.09-18,1.07-26.65,0a105.69,105.69,0,0,1-24.53-5.59c-13.77-5.2-26.13-13.46-40.13-18.12-.63-.21-2.27.71-1.18,1.08Z"/><path class="cls-3" d="M322.5,44.88c8.51-1.86,16.39-5,25.09-6s19.09-2.43,27.19,1.53c.53.26,2.12-.53,1.82-.68-7.35-3.59-16.33-2.84-24.23-2.14a85.55,85.55,0,0,0-12.08,1.49c-6.07,1.46-11.87,3.8-18,5.13-1.16.26-.95,1,.18.7Z"/><path class="cls-3" d="M376.65,39c1.42,3.45,3.6,7.11,6.71,9.26a4.8,4.8,0,0,0,7.41-2.55c.91-3.21-3.56-5.65-5.84-6.65-1.55-.68-6-2.23-6.95.22-.39,1,1.54,1,1.84.21s4.76,1.2,5.34,1.52c1.75.94,4,2.61,3.66,4.85-.29,1.82-2.22,2.23-3.61,1.51a10.06,10.06,0,0,1-2.95-2.68,24.9,24.9,0,0,1-3.68-6.2c-.35-.85-2.26-.3-1.93.51Z"/><path class="cls-3" d="M377.33,44.79V55.71c0,.59,1.8.16,1.91-.39a14.63,14.63,0,0,1,1.85-3.71c.42-.8-1.52-.56-1.8,0-.66,1.25-1.68,2.57-1.94,4,.64-.12,1-.25,2-.38V44.27c0-.57-2-.21-2,.52Z"/><path class="cls-3" d="M381.14,49.29c0,4.73-.78,10,.84,14.58.75,2.1,3.51,3.89,5.57,2.48s1.83-5.35,1.79-7.58c-.06-3.42-.32-7.49-1.77-10.64-.26-.57-2.14.06-1.93.51a27.18,27.18,0,0,1,1.31,16c-.41,1.57-.77,1.3-1.86.3-1.38-1.24-1.63-2.93-1.87-4.68-.5-3.79-.17-7.67-.14-11.48,0-.45-1.93-.13-1.94.52Z"/><path class="cls-3" d="M292.81,80.6c10.1-.15,17.54,11,21.8,19,4.56,8.48,7.13,17.87,11.4,26.48,8.73,17.6,29.68,29.84,48.8,32.24,17.19,2.16,33.28-7.58,42-22,11.4-18.84,14.47-43.88,13.77-65.49,0-1.07-2-.81-2,.12.67,20.75-2.2,44.25-12.26,62.71a46.34,46.34,0,0,1-20.83,20c-11,5.13-23.19,3.71-34.18-.47A72.44,72.44,0,0,1,335,135.86c-6.53-7-9.82-16.28-13.23-25-4.65-11.94-13.28-32-28.78-31.78-1.14,0-1.45,1.54-.14,1.52Z"/><path class="cls-3" d="M288.06,62.12c0,6.86,0,13.69-1.27,20.45a.17.17,0,0,0,.16.22c12.09,2.52,8.27-18,8.18-24.39,0-.36-1.94-.06-1.93.52.08,5.87,1,11.7.1,17.57a13.85,13.85,0,0,1-1.11,3.68,5.55,5.55,0,0,1-1,1.46l-2.16-1c.1-.58.19-1.16.26-1.74A144.52,144.52,0,0,0,290,61.61c0-.35-1.94-.06-1.94.51Z"/><path class="cls-3" d="M290.67,60a2.44,2.44,0,0,0-1.5.32,1.1,1.1,0,0,0-.47,1c0,.91,1.94.54,1.94-.2,0-.11,0-.22,0-.33s-.06,0,0-.07l-.29.3c-.21.16-.75.18-.41.18a1.41,1.41,0,0,0,1.26-.56c.23-.39-.19-.68-.55-.68Z"/><path class="cls-3" d="M290.27,60.71c-5.87-1.06-11.8-.35-17.71-.53-7.56-.23-15.06-.31-22.63-.13a367.18,367.18,0,0,1-45.22-2C190.58,56.64,176.47,55,162.31,54c-7.44-.52-14.85-.68-22.27-1.42-2.94-.3-5.78-.74-8.74-.83-.91,0-5.67-1.1-6.65-.51,1.11-.68-.59-.91-1.19-.54s-.88.46-1.13,1c-.07.15.08.28.19.33,2.66,1.28,6.93.7,9.74.79,7.2.24,14.36,1.62,21.6,1.83,16,.45,31.88,2.57,47.75,4.21,14,1.44,27.87,2.57,41.91,2.35,7.56-.12,15.11-.39,22.68-.25s15.55-.57,22.88.75c.59.1,2.27-.83,1.19-1Z"/><path class="cls-3" d="M297.39,61c6.52.12,12.95,1.81,19.47,1.28.53-.05,2.1-.93.83-.83-6.38.52-12.69-1.16-19.05-1.28-.43,0-2.22.81-1.25.83Z"/><path class="cls-3" d="M295.36,74.75c14.12-.73,25.69,7,37.47,13.62a163.46,163.46,0,0,0,39.59,16.17A89,89,0,0,0,407,106.71c6.52-.94,16.58-2.5,20.29-8.8.55-.91-1.42-.9-1.84-.2-4.21,7.14-18.3,8-25.62,8.37-13.83.71-27.46-2.49-40.37-7.19-12.14-4.42-23.3-10.63-34.49-17-9.18-5.2-18.74-9.1-29.46-8.54-1.08.05-1.5,1.44-.18,1.37Z"/><path class="cls-3" d="M124.37,55.06c1,2,4.77,2.1,6.7,2.33,4.85.57,9.77.35,14.64.65,15.86,1,31.75,1.71,47.59,3.13s31.69,3.21,47.62,3.64c8,.22,16-.37,24-.15,6.86.18,13.41,2.57,20.27,2.79.47,0,2.23-.86,1.22-.89-5.65-.18-11.11-1.77-16.69-2.57-6.61-1-13.61-.14-20.26,0-15.8.28-31.63-1.47-47.34-3-15.28-1.47-30.57-2.36-45.89-3.28-5.47-.33-10.92-.75-16.4-.82-2.82,0-12,.66-13.55-2.35-.28-.56-2.13.11-1.93.51Z"/><path class="cls-3" d="M125.62,65.05c13.19,0,26.38-.3,39.57.21,13.84.53,27.64,2.32,41.44,3.38s27.86,2.17,41.7,4.17c6.71,1,13.34,2.11,20.09,2.8,3.12.31,6.22.77,9.34,1.09,2.24.23,5.47,1.23,7.66.1-1.18.61-.11,1.41.8.94l.46-.23c.26-.14.82-.52.49-.88-1.42-1.53-6.75-.93-8.7-1.16-7.89-.92-15.85-1.6-23.69-2.94C241,70.18,227,68.94,213.05,67.85c-14.46-1.13-28.91-2.79-43.38-3.64s-28.9-.41-43.33-.39c-.82,0-2,1.23-.72,1.23Z"/><path class="cls-3" d="M208.45,64.52c-.08,1-.76,6.92-2,7.19a11.43,11.43,0,0,0-3.86,1.83,5.44,5.44,0,0,0-1.82,7.2c1.9,4.09,6.66,5,10.7,3.69,3.35-1.07,5.89-4.72,4.16-8.1-1.16-2.28-2.43-4.5-3.56-6.8-.26-.51-3.18-7.06-1.69-7,.89,0,2-1.28.69-1.33-6.75-.29-.3,10.18,1,12.64,1.86,3.49,3.93,7.79-1.56,9.54a7,7,0,0,1-7-1.77c-3.66-3.9,0-8,4.19-8.85a1.05,1.05,0,0,0,.81-.71c.73-2.57,1.72-5,1.92-7.7.08-1-1.88-.66-2,.17Z"/><path class="cls-3" d="M201.4,76.25c1.87,5.38,11.7,4.78,13.49-.37.25-.72-1.7-.47-1.94.22-1.38,4-8.32,3.37-9.62-.37-.25-.73-2.17-.18-1.93.52Z"/><path class="cls-3" d="M173.14,60c-.15,2.62-1,9.66-4,10.44a4.73,4.73,0,0,0-3,3c-1.52,3.67,1.78,8.3,5.47,8.89,3.91.62,8.21-.27,8.7-4.77.28-2.56-1-5.32-1.94-7.6-1.29-3-2.21-8.16-1.09-11.39l-1.67.45.18.55c.29.89,2.22.36,1.94-.52-.19-.58-.18-.84-.63-1.16a1.24,1.24,0,0,0-1.67.45c-1.67,4.85.56,10.56,2.14,15s0,9.13-6,7.3c-3.46-1.06-6.24-8.68-.71-9.11a1.23,1.23,0,0,0,1-.6c1.5-3.65,3-7.12,3.26-11.1.06-1-1.9-.74-2,.14Z"/><path class="cls-3" d="M167.38,74.32c1.88,6.79,12,1,14.06-2.81.44-.79-1.5-.56-1.79,0-1.66,3-8.83,7.76-10.34,2.32-.18-.65-2.11-.13-1.93.52Z"/><path class="cls-3" d="M139.12,56.8c-.12,3.06-.48,9.58-3.59,11.17a4.63,4.63,0,0,0-2.7,2.81c-1,4,2,8,5.82,9,3.12.81,7.27-.39,8.63-3.43.75-1.67.29-3.87,0-5.58A87.68,87.68,0,0,1,146.22,56c0-1-2-.75-2,.14a102.85,102.85,0,0,0,.65,13,37.65,37.65,0,0,1,.76,5.61c-.07,4.13-5.46,4.38-8.14,2.73a7.21,7.21,0,0,1-2.94-4.78c-.5-2.32,1.94-2.76,3.11-4.16,2.49-3,3.23-8.24,3.38-11.92,0-1-1.92-.75-2,.14Z"/><path class="cls-3" d="M134.64,71.75c2.07,4.37,9,2.69,12,.44.8-.6-1.13-.38-1.5-.11-2.42,1.8-7,2.42-8.56-.84-.24-.52-2.11.13-1.93.51Z"/><path class="cls-3" d="M129.66,73.44c-3.58,1.06-4.44,3.62-5.16,7.17-.29,1.43-.46,2.84-.64,4.28-.52,4.24-3.09,4.58-5.83,6.31a11.53,11.53,0,0,0-4.83,5.45c-3.72,8.82,14.63,15,20.35,16,10.6,1.75,19.79-2.27,25-11.55,2.24-4,3.13-8.79-.3-12.3-3.95-4-10.14-3.33-12.72-9.19-.36-.82-2.27-.26-1.93.52,3,6.82,12.93,6,14.93,13,1.23,4.27-2.64,9.61-5.12,12.69-3.94,4.87-10.56,6-16.48,5.79-6.54-.23-25.45-6.35-21.46-15.83,1.76-4.16,7.94-4,9.47-8.08,1.3-3.47.71-11.68,5-13,1.17-.35.84-1.6-.34-1.25Z"/><path class="cls-3" d="M132.91,75.85c-2.95,2.15-3,6-3.34,9.37a30.13,30.13,0,0,1-1.11,6.54c-1.47,4.6-6.83,6.33-11,7.53-1.14.33-.91,1.24.24.9,4.88-1.43,9.42-3.12,12.17-7.67,2.85-4.7-.32-12.88,4.53-16.4.87-.63-1.07-.6-1.54-.27Z"/><path class="cls-3" d="M135.91,79.9c.27,4.95-2.25,9.27-2.57,14.13-.37,5.62,0,10.3-3.68,15-.77,1,1.06,1.34,1.63.62,3-3.86,3.85-7.88,4-12.72.17-5.88,2.9-11.35,2.58-17.19-.06-1-2-.77-2,.13Z"/><path class="cls-3" d="M139.13,81.38c3.72,7.28,2.91,24.4,15,22.83,1-.13,1.55-1.41.22-1.24-10.44,1.36-10-15.8-13.26-22.1-.39-.75-2.28-.16-1.94.51Z"/><path class="cls-3" d="M142.34,80.74c2.19,6.14,7,13.11,13.65,14.87.43.11,2.12-.59,1.6-.72-6.49-1.73-11.18-8.67-13.31-14.67-.16-.42-2.06.17-1.94.52Z"/><path class="cls-3" d="M120.43,86.39c-15.84,8.32-23.15,28.48-19.77,45.52,3.45,17.45,21.53,26.09,38,25.78,15.9-.3,32.19-7.9,38.6-23.19,7.5-17.9-2.14-41.64-19.83-49.21a29.09,29.09,0,0,0-5.25-1.57c-.75-.17-2.29,1-1.13,1.22,19.62,4.4,30,26.82,25.63,45.54-3.8,16.18-20.2,24.87-35.69,25.84-16.43,1-33.72-7.09-38.19-23.83-4.32-16.21,3.29-37.13,18.42-45.08,1.17-.61.1-1.51-.83-1Z"/><path class="cls-3" d="M105.1,132.56c-1.45,15.18,22.15,16,32.34,16,1.08,0,1.5-1.35.19-1.35-9.57,0-31.92-.72-30.57-14.82.09-1-1.88-.66-2,.17Z"/><path class="cls-3" d="M114.3,138.1c4.36,1.92,8.44,4.44,13,5.84.65.2,2.28-.76,1.17-1.1-4.45-1.36-8.42-3.84-12.66-5.71-.61-.27-2.37.6-1.53,1Z"/><path class="cls-3" d="M120.51,138.35c.07,1.73,1.82,1.82,3.19,1.82a1.4,1.4,0,0,0,1.26-.56c.23-.4-.18-.7-.55-.7-.64,0-1.92.18-2-.75s-2-.56-1.95.19Z"/><path class="cls-3" d="M121.09,133.16h1.28a1.84,1.84,0,0,0,1.29-.52c.29-.35-.25-.48-.5-.48h-1.28a1.8,1.8,0,0,0-1.28.52c-.3.35.25.48.49.48Z"/><path class="cls-3" d="M123.17,129.1a9.82,9.82,0,0,1,4-1.15c1,0,1.55-1.25.22-1.21a12.39,12.39,0,0,0-5,1.42c-1.2.58-.11,1.38.8.94Z"/><path class="cls-3" d="M142.81,116.94c8.24-2,19.7-4.24,20.08-14.75,0-.83-1.91-.45-1.93.23-.36,9.8-10.72,11.6-18.43,13.5-1.17.29-.89,1.31.28,1Z"/><path class="cls-3" d="M152.24,119.87a30.16,30.16,0,0,0,11.86-11.16c.44-.69-1.48-.44-1.78,0a28.58,28.58,0,0,1-11.25,10.67c-1.15.59.6.75,1.17.46Z"/><path class="cls-3" d="M157.43,120.74c2.2-1.56,3.46-4,5.31-5.94a.58.58,0,0,0-.26-1,1.31,1.31,0,0,0-1.36.37c-1.73,1.78-2.93,4.17-5,5.62-1.07.75.49,1.47,1.28.91Z"/><path class="cls-3" d="M160.23,125.35l3.86-3.86c.3-.31-.28-.33-.46-.32a2.21,2.21,0,0,0-1.29.47l-3.86,3.85c-.31.31.28.33.46.32a2.27,2.27,0,0,0,1.29-.46Z"/><path class="cls-3" d="M161.68,129.08c1.54-.82,2.41-2.25,3.6-3.46a.43.43,0,0,0-.2-.77,1.55,1.55,0,0,0-1.37.37c-.9.92-1.66,2.33-2.82,2.95-.26.14-.81.49-.5.85a1.2,1.2,0,0,0,1.29.06Z"/><path class="cls-3" d="M160.32,128.89a4.85,4.85,0,0,0,.7,3.28c.28.33,1.39-.12,1.65-.3a18.66,18.66,0,0,0,4.7-5.34c.21-.3-.71-.21-.77-.2a1.73,1.73,0,0,0-1.13.54,17.49,17.49,0,0,1-4.29,4.93l1.66-.3c-.7-.82-.59-2.12-.59-3.13,0-.34-1.93-.05-1.93.52Z"/><path class="cls-3" d="M116,50.39c.06,6,1.11,16.92,9.23,16.65a1.22,1.22,0,0,0,1-.58c2.85-7.29-4.71-11.35-5.08-18.16-.06-1-2-.65-2,.17A15.22,15.22,0,0,0,122,55.72a39.82,39.82,0,0,1,2.4,4.27c.36.8,1.66,6-.47,5.57C118.48,64.39,118,54.45,118,50.23c0-1-2-.67-2,.16Z"/><path class="cls-3" d="M122,46.38c3.4-.22,6.56-1.27,9.91-1.82,4.06-.68,8.35-.83,12.46-1.13a132.92,132.92,0,0,1,26.6.92c7.34.94,14.65,2.32,22,2.8,9,.59,18,.82,27,1,16.86.3,33.72.26,50.56,1.11s33.85,4.1,50.84,3.57c.48,0,1.34-.21,1.33-.83,0-2.34-.08-4.07-2.12-5.36-.56-.35-2.34.45-1.53,1,1.86,1.18,1.7,3.14,1.72,4.92l1.34-.83c-17,.53-33.91-2.63-50.84-3.56-17.48-1-35-.83-52.49-1.15-8.36-.15-16.71-.44-25.06-.94-8.54-.52-17-2.22-25.5-3.23a131.29,131.29,0,0,0-21.81-.58c-4.22.19-8.43.66-12.63,1.12-3.89.43-7.66,1.68-11.56,1.93-1,.06-1.58,1.2-.25,1.12Z"/><path class="cls-3" d="M123.14,43.58c2.14,2.07,7.11,1.43,9.74,1.39,5.17-.08,10.33-.67,15.5-.67,18.3,0,36.43,1.28,54.69,2,38,1.44,76.21-.05,114.22-.05.42,0,2.21-.81,1.25-.81-36.11,0-72.3,1.05-108.39.23-17.75-.4-35.39-2-53.15-2.14-5.44,0-10.82,0-16.25.35-3.81.24-12.72,2-15.79-.93-.37-.36-2.13.36-1.82.66Z"/><path class="cls-3" d="M311.82,39c.69,2.63,1.86,5.09,2.56,7.71.24.91,2.18.39,1.93-.52-.7-2.62-1.86-5.08-2.56-7.7-.25-.91-2.18-.39-1.93.51Z"/><path class="cls-3" d="M308,38.37c.6,2.37,1.33,4.7,1.93,7.06.23.92,2.16.41,1.93-.51-.6-2.37-1.32-4.7-1.93-7.06-.23-.92-2.16-.41-1.93.51Z"/><path class="cls-3" d="M302.19,40.3l1.92,3.85c.4.79,2.3.21,1.93-.52l-1.92-3.85c-.4-.79-2.3-.21-1.93.52Z"/><path class="cls-3" d="M297.69,39.66c1.21,2.51,2,5.19,3.21,7.7.29.59,2.16,0,1.93-.52-1.21-2.51-2-5.19-3.21-7.7-.28-.59-2.16,0-1.93.52Z"/><path class="cls-3" d="M291.27,38.37c.64,2.57,1.29,5.14,1.93,7.71.23.91,2.16.4,1.93-.52l-1.92-7.7c-.23-.92-2.17-.41-1.94.51Z"/><path class="cls-3" d="M284.21,39a36.23,36.23,0,0,0,2.57,7.07c.23.47,2.08-.21,1.93-.52a36.38,36.38,0,0,1-2.57-7.06c-.1-.42-2,.08-1.93.51Z"/><path class="cls-3" d="M277.2,38c-.56.84.07,2.36.32,3.2a35.14,35.14,0,0,0,2.2,5.49c.39.79,2.29.21,1.93-.52a41.12,41.12,0,0,1-1.79-4.28c-.27-.73-1.32-3-.83-3.72s-1.4-.82-1.83-.17Z"/><path class="cls-3" d="M270.09,38.22a31,31,0,0,0,1.28,7.21c.19.75,2.13.24,1.93-.51A30.28,30.28,0,0,1,272,38c0-.88-1.95-.49-1.93.21Z"/><path class="cls-3" d="M266.33,38.19c-1.76,2.06-1.37,6-1.38,8.53,0,.3,1.94,0,1.94-.52,0-1.33,0-2.66.12-4s.17-3.12,1.07-4.17c.38-.45-1.46-.19-1.75.15Z"/><path class="cls-3" d="M255.33,37.09v8.34c0,.43,2,.12,2-.51V36.57c0-.42-2-.11-2,.52Z"/><path class="cls-3" d="M248.26,38.21a29.91,29.91,0,0,0-.65,7.06c0,.93,1.95.58,1.95-.19A30.43,30.43,0,0,1,250.2,38c.21-.85-1.76-.58-1.94.19Z"/><path class="cls-3" d="M240,36.75a12.91,12.91,0,0,0-1.34,5.31c0,.94,1.93.6,1.94-.18a11.91,11.91,0,0,1,1.23-5c.46-.95-1.49-.85-1.83-.16Z"/><path class="cls-3" d="M231.66,37.54c-1.7,2-1.37,5.47-1.37,7.89,0,.34,1.93.06,1.93-.51,0-2.24-.38-5.69,1.2-7.51.41-.48-1.45-.23-1.76.13Z"/><path class="cls-3" d="M222.67,37.52c-1.42,1.63-.76,4-.73,6,0,.39,1.95.08,1.94-.52,0-1.73-.71-4.13.55-5.57.44-.5-1.43-.27-1.76.1Z"/><path class="cls-3" d="M215.54,35.71c-1.76,2.51-1.9,5.45-2.57,8.34-.11.49,1.79.19,1.91-.32.67-2.89.81-5.83,2.57-8.35.17-.24-1.58-.15-1.91.33Z"/><path class="cls-3" d="M205.24,36.89A38.09,38.09,0,0,1,204,45.24c-.25,1,1.74.77,2-.13a37.32,37.32,0,0,0,1.28-8.34c0-1.06-1.95-.8-2,.12Z"/><path class="cls-3" d="M192.58,35.93c-1.79,2.07-1.51,5.52-2.1,8-.21.91,1.76.66,2-.16.3-1.29.46-2.59.65-3.9a6.87,6.87,0,0,1,1.1-3.46c.8-.92-1.06-1.15-1.6-.52Z"/><path class="cls-3" d="M181,36c-2.12,2.33-2.11,5.68-2.11,8.65,0,.9,1.94.52,1.94-.2,0-2.62-.14-6,1.74-8,.8-.88-1.08-1-1.57-.42Z"/><path class="cls-3" d="M169.31,36.35c-1.33,2.17-1.23,4.88-2.56,7.06-.19.3,1.6.18,1.91-.32,1.33-2.17,1.24-4.89,2.57-7.06.18-.3-1.61-.18-1.92.32Z"/><path class="cls-3" d="M157.83,36.22c-1.54,1.73-1.35,4.43-2,6.54-.16.51,1.75.25,1.92-.3.61-2,.41-4.69,1.85-6.31.47-.52-1.42-.31-1.77.07Z"/><path class="cls-3" d="M148.36,35.87c-3.61,1.14-3.93,5.19-5.36,8.19-.16.33,1.67.17,1.91-.33.59-1.25,1-2.57,1.48-3.86.36-1,1-3,2.14-3.36s.95-1-.17-.64Z"/><path class="cls-3" d="M134.17,33.7c-4.27,1.15-4.91,6.72-6.53,10.13-.44.92,1.5.78,1.82.12.71-1.5,1.19-3.11,1.8-4.66s1.48-4,3.21-4.47c1.18-.31.88-1.44-.3-1.12Z"/><path class="cls-3" d="M122,35.73c-3.87,1.28-4.45,6.48-6.55,9.44-.49.7,1.45.5,1.8,0a24.31,24.31,0,0,0,2-3.88c.56-1.25,1.47-4.17,3-4.66,1.12-.37.9-1.28-.25-.91Z"/><path class="cls-3" d="M384.45,42.21c-33.42,2.19-66.89.55-100.32-.78-32.06-1.27-64-1.11-96.12-.15-30.33.9-60.81,2.91-91.15,2-15.71-.49-34.64-1.33-46.77,10.53-4.06,4-6.41,9.29-7.88,14.68-.11.43,1.78.16,1.91-.33,3.05-11.21,10.21-19,21.48-22.18,10-2.85,20.89-2.18,31.16-1.86,29.44.92,59-1,88.47-1.95,33.24-1,66.39-1.13,99.62.18,32.26,1.28,64.55,2.79,96.81.82l2-.13c.51,0,2.11-.87.83-.79Z"/><path class="cls-3" d="M384.13,47.06c-33.68,0-67.33-1.57-101-2.36-32.65-.77-65.19-2.23-97.8-4C156.06,39.16,126.18,37,96.87,39,80.79,40.14,62.18,43.2,49.62,54.11a25.15,25.15,0,0,0-8.71,20.67c0,1,2,.67,2-.16-1-21.27,21.5-29.12,38.77-32.36,9.59-1.79,19.29-2.19,29-2.31,16.88-.2,33.76.28,50.63,1,32.54,1.38,65,3.77,97.59,4.66,33,.89,65.94,1.89,98.9,2.55q13.1.27,26.17.27c1.09,0,1.5-1.36.19-1.36Z"/><path class="cls-3" d="M380.11,40.41c-8.15,1.93-16.7.46-25,.56-7.8.09-15.57,1.34-23.32,2.07-16.69,1.57-33.83.83-50.57.56-16.4-.26-32.78-1-49.18-1.27s-32.94.21-49.41.05c-30.15-.3-60.53-4.21-90.68-2.61-17.46.92-36.81,5.15-48.71,19a36.21,36.21,0,0,0-6.83,12.9c-.1.34,1.76.12,1.9-.35,7.43-23.88,33.89-30.4,56.17-30.93,31.6-.74,63.2,2.71,94.79,2.79,16.48,0,32.95-.35,49.42.06s32.71,1,49.07,1.22c15.64.19,31.46.53,47-1.06,8.13-.84,16.17-1.86,24.35-1.63,6.47.18,12.87.72,19.29-.39l1.8-.42c1.13-.27,1-.82-.15-.55Z"/><path class="cls-3" d="M383.73,43.2c-16.05-.54-32.11-.18-48.15-.94-15.62-.74-31.22.21-46.84-.52s-31.33-2.14-47-2.55c-15.91-.42-31.81-.8-47.72-1-16.88-.21-33.73-.32-50.6-1-14.75-.63-29.49-1.07-44.24-.2-17,1-35.74,4.39-49.6,15C37.9,60.84,34.7,74.55,37.71,88.44c.19.89,2.13.39,1.93-.51C27.75,33,110.33,37.17,142.72,38.53c32.75,1.38,65.55,1.19,98.31,2,15.7.41,31.35,1.77,47,2.55s31.23-.32,46.85.52c16,.87,32.11.4,48.15.94.92,0,2-1.35.67-1.39Z"/><path class="cls-3" d="M64.12,54.65c8-2.93,17-2.67,25.45-3.47,6.86-.65,16.69-2.42,22.81,1.57.62.4,2.37-.47,1.52-1-5.94-3.86-15-2.53-21.69-2-9.56.76-19.81.64-28.9,4-1.26.46-.13,1.31.81,1Z"/><path class="cls-3" d="M115,61.46c-7.9,2.27-16.1.15-24.14,1.22-.87.12-1.65,1.11-.3.93,8.24-1.1,16.54,1,24.66-1.33,1.13-.33.92-1.15-.22-.82Z"/><path class="cls-3" d="M88.43,35.29c-.46-4.45,2.53-6.6,6.92-5.35,2.21.62,3.81,3.12,5.33,4.67.39.4,2.2-.3,1.81-.7-1.55-1.58-2.9-3.47-4.9-4.51A10,10,0,0,0,92,28.79c-3.91.4-5.91,3.22-5.52,7,0,.48,2,.09,1.93-.51Z"/><path class="cls-3" d="M111.37,33.24a23.78,23.78,0,0,1,6.26-4c1.33-.62,3.05-1.34,4.55-1,1.81.38,1.67,2.8,1.54,4.17-.1,1,1.87.67,2-.17,1-10.28-12.26-3-15.9.47-.87.82,1,1.08,1.6.52Z"/><path class="cls-3" d="M110.32,32.72c2.18,1.78,5.65.73,8.09.14.64-.16,1.3-1.1.23-1.1a32.65,32.65,0,0,0-7.57.7c-.26.06-1.33.74-.62,1,3.73,1.36,8,.82,10.65-2.37a.32.32,0,0,0,0-.42c-1.74-1.49-4.12-1.48-6.3-1.48-.5,0-2.08.79-1,1.13a22.46,22.46,0,0,0,6.64.67c.25,0,1.85-.44,1.26-1-1.45-1.27-5.89-2.52-6.36.5-.12.81,1.83.48,1.94-.22.22-1.42,2.41.31,2.63.5l1.26-1a21.19,21.19,0,0,1-6.2-.61c-.32.37-.64.75-1,1.13.52,0,5.63.31,4.69,1.27-1.74,1.77-4.62,1.66-6.77.87l-.63,1a28.31,28.31,0,0,1,6.56-.58c.07-.37.15-.74.23-1.1-1.69.41-4.5,1.37-6,.13-.56-.45-2.36.31-1.79.77Z"/><path class="cls-3" d="M92,33.51a11.08,11.08,0,0,0,6.5,0c.22-.06,1.17-.48.76-.86-2.71-2.51-7.32-3.31-10.48-1.19-.17.11-.56.43-.3.66,2.1,1.9,4.89,2.1,7.58,2.1.37,0,1.94-.52,1.15-1-1.65-1-7.8-4-8.16,0a.33.33,0,0,0,.2.35c2.89,1.35,6.36,1.33,8.09-1.73a.32.32,0,0,0-.13-.49A3.9,3.9,0,0,0,91,35.16c.1.66,2,.21,1.93-.51-.28-1.92.57-3.95,2.76-2.49,0-.16-.09-.32-.13-.49a2.51,2.51,0,0,1-3,1.48c-1.27-.23-1.88-.27-1-1.43l-1.27.53a10.43,10.43,0,0,1,5.38,1.84l1.14-1c-2.32,0-4.72-.11-6.54-1.75-.09.22-.19.44-.29.67,2.27-1.53,5.63-.35,7.49,1.37l.77-.87a8.48,8.48,0,0,1-5.06,0c-.62-.18-2.27.73-1.18,1.06Z"/><path class="cls-3" d="M88.86,59.42c-8.71-3.66-18.79,7.47-9,13.44,3.91,2.39,8.32-.11,10.28-3.67,1.46-2.64.73-5.73.74-8.57a17.67,17.67,0,0,1,3.3-9.6c.55-.84-1.42-.75-1.82-.14a22.86,22.86,0,0,0-2.87,5.95c-1,3.2-.2,6.38-.42,9.63-.46,6.85-9.67,7.27-11.37.73-1.35-5.23,5.64-8.43,9.68-6.74.67.29,2.4-.65,1.51-1Z"/><path class="cls-3" d="M78.15,65.18c-1,2.95,1.32,4.79,4,5.21a7.78,7.78,0,0,0,7.47-2.69c.56-.77-1.41-.68-1.82-.11-2.21,3-9.23,1.87-7.75-2.62.25-.76-1.71-.51-1.94.21Z"/><path class="cls-3" d="M75.66,67.4c1.62,2.79,5.92,4.91,9,3.28.22-.12.84-.54.48-.87a12.8,12.8,0,0,0-8.23-3.43c-.33,0-1.84.44-1.25,1,3.15,3.12,10,8.82,13.35,2.87.5-.87-1.46-.75-1.82-.12-2.25,4-7.79-1.6-9.75-3.55l-1.25,1a11.14,11.14,0,0,1,7.17,3l.49-.87c-2.2,1.17-5.37-1.34-6.41-3.14-.37-.64-2.24,0-1.78.8Z"/><path class="cls-3" d="M55,63.34c-8.3,3.55-7.86,17.18,2.36,16.87,3.71-.12,5.27-3.85,5.8-6.93.46-2.66.09-5.36.34-8,.41-4.21,4.68-7.7,6.93-11.05.53-.79-1.43-.68-1.82-.1-1.94,2.91-5,5.59-6.29,8.91-1.2,3.13-.72,6.28-1,9.56a13.14,13.14,0,0,1-1,4.14c-2.14,5.1-7.75,1.46-8.9-1.59-1.42-3.79.66-9.3,4.36-10.88,1.24-.53.12-1.3-.79-.91Z"/><path class="cls-3" d="M57.61,65.56a4.2,4.2,0,0,1,1.21-1.83c.93-1.09,2-2.11,3-3.12,1.76-1.77,3.6-3.46,5.37-5.21.46-.46-1.41-.25-1.76.1-1.88,1.86-3.83,3.66-5.7,5.54-1.14,1.13-3.77,3.11-4,4.84-.07.55,1.85.18,1.92-.32Z"/><path class="cls-3" d="M51.23,69.46c-3.59,5.52,8.24,10.8,10.84,4.71.43-1-1.52-1-1.85-.22-1.69,4-9.63-.45-7.14-4.27.58-.9-1.39-.92-1.85-.22Z"/><path class="cls-3" d="M51.83,71.11c.08,3.3,3.24,4,6,3.51.37-.07,1-.23,1.09-.67s-.57-.49-.84-.45c-2.3.43-4.23-.34-4.3-2.91,0-.64-1.95-.25-1.93.52Z"/><path class="cls-3" d="M65.31,64.05c.57,2.75,7.46-.18,8.67-.93.79-.49.09-1-.55-1h-4.5c-.89,0-1.56,1-.42,1.22a14.72,14.72,0,0,0,7.57-.77c1.17-.38.83-1.74-.35-1.36a12.49,12.49,0,0,1-6.55.56c-.14.47-.28,1.35-.42,1.35h4.49c-.18,0-.37-.73-.55-1.11-.43.27-5.29,2.26-5.46,1.47s-2.11-.38-1.93.53Z"/><path class="cls-3" d="M61.71,54.53C49.51,57.64,36.61,70.62,42.2,84c.19.45,2.07-.19,1.93-.52-5.18-12.34,6-25.36,17.73-28.35,1.13-.28,1-.84-.15-.55Z"/><path class="cls-3" d="M61.54,79.6c3.13,5.87,11.17,3.2,15.59,7.15,4.19,3.76-1.09,8.07-4.42,9.57-5.58,2.5-8.58-2-12.74-4.8-.61-.41-2.36.46-1.51,1,3.74,2.49,6.48,6.71,11.48,5.77,3.93-.73,7.92-2.73,10-6.26,1.91-3.23-.75-6.51-3.66-7.76-4.27-1.83-10.46-.79-13-5.5-.35-.65-2.22,0-1.78.8Z"/><path class="cls-3" d="M43.57,83.48c6,7.74,16,11.6,25.59,12.48,1,.09,2-1.31.66-1.43-9.15-.84-18.69-4.5-24.48-11.91-.55-.71-2.39.06-1.77.86Z"/><path class="cls-3" d="M40.5,86.22a5.13,5.13,0,0,0-2,6.48c1,2.71,3.92,3.34,6.47,2.92l-.79-.11c-.37,3.52.86,6.55,4.84,5.56a12.41,12.41,0,0,0,8-6.63c.15-.32-1.67-.17-1.91.33a11,11,0,0,1-5.61,5.49C46,101.63,45.85,97,46.06,95c0-.23-.71-.12-.79-.11-4.89.8-7.28-6-3.28-8.58.81-.54-1.14-.31-1.49-.08Z"/><path class="cls-3" d="M56.38,95.84c-1.83,3.6,1.49,7.47,3.72,10,2.83,3.26,6.46,7,10.29,9,2.57,1.39,6.14.93,7.2-2.11a17.94,17.94,0,0,0,.57-7.54c-.31-3.71-3.66-7-5.14-10.27-.33-.73-2.23-.14-1.93.52,1.74,3.82,4.86,7,5.22,11.33a12.59,12.59,0,0,1-.91,6.65c-1.4,2.81-5.36-.8-6.57-1.81-3.45-2.86-13.36-10.39-10.63-15.74.45-.89-1.5-.73-1.82-.1Z"/><path class="cls-3" d="M364.48,60.57c-5.44,0-12.72-.66-16.22,4.68-3.21,4.92,2,9.22,6.7,10,5.11.84,11.13-.08,14.67-4.18,4.71-5.43-1.14-9.65-6.43-9.86-.87,0-2,1.26-.7,1.31,5.12.2,9.16,3.89,5,8.64-2.57,3-7.49,3.32-11.1,2.91-3.82-.44-8.87-3.71-6.74-8,2.44-5,9.59-4.15,14.09-4.15.86,0,2-1.31.69-1.31Z"/><path class="cls-3" d="M343.91,48.52c-.13.4-.53.6-.64,1.28,0,.17.05.24.19.32,4.13,2.37,9.23,1.36,13.26-.73,3-1.56,6.51-4.68,1.77-6.59-.55-.22-2.31.59-1.55.9,4.41,1.78.31,4.41-2.19,5.54a12.33,12.33,0,0,1-4.35,1.2,10.62,10.62,0,0,1-4.57-.74c-1-.41-.16-1,0-1.45s-1.72-.35-1.93.27Z"/><path class="cls-3" d="M343.87,42.26c-4.31,1.62-4,6.93.23,8.49.54.2,2.3-.6,1.55-.88-2.76-1-4.66-5.55-1-6.91,1.28-.48.1-1-.73-.7Z"/><path class="cls-3" d="M358.67,67.9a14.13,14.13,0,0,0,.55,1.55c.4.6,1.32.56,1.95.57.21,0,1.73-.37,1.3-.8s-.67-.82-1-1.2a4,4,0,0,0-1.65-.79c-.39-.13-1.79.07-1.75.67a2.29,2.29,0,0,0,.71,1.37c.39.41,2.19-.29,1.81-.69a1.92,1.92,0,0,1-.58-1.2l-1.75.67a3.61,3.61,0,0,1,1.4.66c.38.37.67.83,1,1.21l1.31-.8c-.39,0-.78,0-.93-.41s-.23-.9-.43-1.33-2.14.1-1.94.52Z"/><path class="cls-3" d="M357.33,66a8.51,8.51,0,0,1-3.14-3.11l-1.36.75c2.23,0,4.94-.12,5.84,2.34.23.61,1.77.07,1.93-.4a4.16,4.16,0,0,1,1-1.79l3-1.12c-.41.49-.83,1-1.27,1.43a10.78,10.78,0,0,0-2.07,3c-.14.3.42.35.57.35,1,0,4.58,0,4.46,1.76-.15,2.06-3.09.6-3.81,0-.41-.37-2.2.1-1.8.72,2,3.07-1.45,1.21-2-.62-.17-.59-1.45-.06-1.73.15-1,.75-2.2,1.17-3.21,1.92l1.73-.14c-.5-1.08-.05-1.95,1.33-2.62,1.08-.4.36-1-.48-.75a19.49,19.49,0,0,1-5.27.56l.5.48a12.44,12.44,0,0,1,2.9-2.32c1.13-.63-.61-.77-1.17-.46a16.11,16.11,0,0,0-3.52,2.81c-.33.33.29.48.5.48a23.71,23.71,0,0,0,6.28-.72l-.47-.75c-2,.74-3.12,1.57-2.53,3.8.16.59,1.47,0,1.73-.14,1-.75,2.2-1.18,3.21-1.93l-1.73.15c1.19,4,8.83,4.15,5.72-.62l-1.8.72a5.19,5.19,0,0,0,6.94,0c2.86-2.72-3.75-3.42-5-3.45l.57.35c.86-2,2.53-3.31,3.78-5,.2-.26,0-.42-.29-.46a7.16,7.16,0,0,0-8,4.47l1.93-.4c-1.07-2.89-4.39-2.8-7-2.8-.2,0-1.62.3-1.35.75a9,9,0,0,0,3.27,3.31c.54.33,2.24-.46,1.8-.72Z"/><path class="cls-3" d="M349.27,48.16h1.93c.35,0,1.08-.51,1.07-.95a2,2,0,0,0-.62-1.67,2.61,2.61,0,0,0-1.54-.34c-.41,0-1,.28-1.07.73s.53.57.87.57h.19c.09,0,.06,0,0,0s.17.33.17.53c.36-.25.72.11,1.07-.89h-1.92c-.41,0-1,.64-1.08,1.09s.53.91.88.91Z"/><path class="cls-3" d="M347.76,47.2c0,.13,0,.14,0,0-.17.2.14-.12-.22.19a1.14,1.14,0,0,0-.35.49c-.16.47.43.78.76,1s1.67.06,1.73-.61.65-1.15,1.1-1.61l-1.15.4c.53,0,1.05.72,1.4,1.07.54.54,2.37-.21,1.78-.8-.77-.77-1.76-1.76-3-1.44a3.24,3.24,0,0,0-1.45,1.22,2.47,2.47,0,0,0-.65,1.37l1.73-.61s-.37-.21-.36-.19c.1.2-.27.41.15.06a1.19,1.19,0,0,0,.42-.75c.1-.87-1.86-.54-1.94.2Z"/><path class="cls-3" d="M395.33,53.88c3.57,2.56,7.6,4.49,11.42,6.63s9.1,4.61,11,8.67c.27.58,2.15-.05,1.93-.51-1.66-3.59-5.84-5.76-9.08-7.7-4.44-2.65-9.23-4.78-13.44-7.8-.5-.36-2.23.41-1.81.71Z"/><path class="cls-3" d="M399.83,53.91c4.9,4.78,10.5,8.52,16.18,12.29.48.32,2.24-.39,1.66-.87-3.45-2.87-6.43-6.25-10.4-8.44-.44-.24-2.26.3-1.66.87,4,3.81,8.83,6.38,13.61,9.08.44.25,2.23-.23,1.66-.87-1.12-1.25-2.09-2.6-3.21-3.85-.39-.43-2.14,0-1.86.65a4.06,4.06,0,0,0,1.35,2c.49.53,2.33-.19,1.79-.77l-1.21-1.8-1.86.65c1.12,1.24,2.09,2.6,3.21,3.85l1.66-.88c-4.69-2.65-9.42-5.14-13.35-8.89l-1.66.88c3.87,2.13,6.78,5.44,10.14,8.25l1.66-.88c-5.58-3.71-11.11-7.39-15.92-12.1-.51-.5-2.34.24-1.79.78Z"/><path class="cls-3" d="M391.8,83c7.38,1.21,13.86-.27,19.34-5.5.84-.8-1.06-.88-1.57-.4-4.74,4.53-10.22,5.82-16.61,4.77-.68-.11-2.29,1-1.16,1.13Z"/><path class="cls-3" d="M392.22,79.55c5.83,1.56,14.55,1.8,18.44-3.74a2.53,2.53,0,0,0-1.9.36c-3.25,4.62-10.09,4-14.94,2.68-.41-.11-2.09.57-1.6.7Z"/><path class="cls-3" d="M395.84,77.75A12.5,12.5,0,0,0,404.18,74c.34-.33-.29-.46-.49-.46a1.92,1.92,0,0,0-1.28.5,8.69,8.69,0,0,1-5.78,2.71c-.63,0-2.09,1-.79,1Z"/><path class="cls-3" d="M393.67,75.71a11.49,11.49,0,0,0,6.5-1.65c.29-.19.28-.36-.09-.36a2.73,2.73,0,0,0-1.37.37,6.23,6.23,0,0,1-3.77.91,3,3,0,0,0-1.36.37c-.32.18-.27.36.09.36Z"/><path class="cls-3" d="M396.38,72.37c.33-.29,1.13-.24,1.43-.24a1.39,1.39,0,0,0,1.26-.56c.22-.4-.18-.72-.56-.72a5.33,5.33,0,0,0-3.72,1.05.48.48,0,0,0,.23.84,1.47,1.47,0,0,0,1.36-.37Z"/><path class="cls-3" d="M318.31,67.39c3.39,5,5.8,10.59,10.27,14.77.48.45,1.93.13,1.86-.65C330,77,327,74,325.3,70c-.29-.71-2.09-.25-1.93.52,1.11,5.42,4.66,10.32,8.42,14.26.4.41,1.82.17,1.86-.5.28-4.82-1.73-8.79-3.86-13-.34-.69-2.19-.21-1.93.51a35.57,35.57,0,0,0,13.05,16.93c.4.28,1.71,0,1.73-.6.2-6.12-4.8-10.8-7.78-15.7-.35-.57-2,0-1.86.66,1.18,6.69,6.74,15.36,13,18.21.53.24,1.79,0,1.73-.76-.48-6.33-5.48-11.85-9.7-16.18-.48-.49-2.29,0-1.79.79C341.62,83,347.42,90.49,355,96.38c.49.38,1.77-.08,1.73-.75-.48-6.8-6.85-14.69-12.41-18.21-.39-.25-2,.06-1.72.75,3.61,8.71,12.65,14.88,20.1,20.14.49.35,2.09-.15,1.66-.89a56.67,56.67,0,0,0-14.13-16c-.54-.42-2.39.24-1.78.79,7.15,6.37,15.24,11.61,21.82,18.62.48.5,2.24,0,1.79-.79a65.32,65.32,0,0,0-12.84-16c-.53-.48-2.37.21-1.78.79A80.63,80.63,0,0,0,376.21,99c.45.24,2.29-.31,1.66-.89-4.14-3.76-6.72-8.81-11.69-11.66l-1.52,1c6.82,2.64,11.75,8.5,18,12.19.41.25,1.73,0,1.73-.6,0-4.55-6.15-9.47-9.83-11.3l-1.35,1.06c6.37,2,10.84,8.42,15.74,12.67.49.42,2.28,0,1.79-.79-2.82-4.47-6.89-7.6-10.92-10.91-.49-.41-2.35.06-1.78.78,4,5.16,10.18,8.64,16.18,11,.5.2,2.1-.07,1.65-.89C393.33,96,389.63,92,384.62,90.19c-.52-.19-2.19.56-1.35,1.06,6,3.54,11.23,8.58,18.16,10.34.38.1,2.05-.31,1.47-1-3.75-4.26-8.36-7.95-13.79-9.8-.55-.19-2.19.72-1.34,1.06,7.17,2.89,12.56,8.8,20.08,11,.51.15,2.14-.43,1.34-1.06-4.74-3.69-8-9.81-14.52-10.37-.43,0-1.68.35-1.26,1,3.54,5.32,10.91,8.21,17,9.16.34,0,2.1-.31,1.48-1-3-3.18-5.65-6.74-9-9.63l-1.78.79c4.21,3.31,9.22,9.14,15.14,8,7.33-1.42-3.88-9.54-5.79-10.82-.44-.3-1.88,0-1.72.76,1.2,5.39,7.37,6.64,12.15,6.75.46,0,1.21-.17,1.34-.7.88-3.73-1.12-6.31-3.93-8.63l-1.79.79c2.8,2.24,5.92,8.51,10.28,6.47,1.91-.89.24-8.56-1.57-9a1.47,1.47,0,0,0-1.49.52l-.17.27c-.51.82,1.44.69,1.81.1.06-.09.12-.18.17-.27l-1.48.51c1.15.27,1.5,6.18,1.47,7.1,0,0-6.4-5.84-7.23-6.5-.57-.46-2.38.29-1.79.79,2.56,2.11,4.63,4.45,3.78,8l1.33-.7c-4.34-.1-9.85-1.15-10.95-6.08L409,90c1.49,1,2.93,2,4.32,3.17a20.91,20.91,0,0,1,2.33,2.28c1.79,2-1,3.49-2.86,2.73C409,96.63,406,93.46,402.9,91c-.55-.43-2.39.26-1.78.79,3.33,2.89,5.94,6.45,9,9.63l1.48-1c-5.87-.92-13-3.69-16.38-8.82l-1.26,1c5.95.51,9.39,6.8,13.73,10.17l1.34-1.06c-7.39-2.15-12.67-8-19.72-10.84L388,92c5.19,1.77,9.58,5.38,13.17,9.46l1.47-1c-6.78-1.72-11.89-6.74-17.79-10.2l-1.35,1.06c4.76,1.71,8.25,5.76,10.6,10.1l1.66-.89c-5.92-2.35-11.94-5.74-15.92-10.81L378,90.5c4,3.32,8.09,6.44,10.91,10.92l1.79-.79c-5.12-4.43-9.69-10.86-16.36-13-.51-.16-2.22.63-1.35,1.06,3.07,1.53,9.42,6.49,9.42,10.52l1.73-.6c-6.21-3.68-11.15-9.55-18-12.2-.55-.21-2.44.47-1.52,1,4.87,2.79,7.37,7.77,11.42,11.45l1.66-.89a79.22,79.22,0,0,1-18.49-14l-1.78.79a64.87,64.87,0,0,1,12.83,16l1.79-.79c-6.58-7-14.67-12.25-21.83-18.62l-1.78.79a56.79,56.79,0,0,1,14.12,16l1.65-.89c-7.19-5.08-16.18-11.22-19.69-19.66l-1.73.75c5.42,3.43,11.54,11.19,12,17.74l1.72-.76c-7.5-5.82-13.22-13.25-18.48-21.08l-1.79.79c4.19,4.29,9.08,9.67,9.56,15.91l1.72-.75c-6.11-2.77-11.49-11.29-12.63-17.74l-1.86.65c2.85,4.67,7.82,9.28,7.63,15.12l1.73-.6a34.89,34.89,0,0,1-12.64-16.45l-1.93.51c2.07,4.1,4.13,8,3.85,12.69l1.86-.5c-3.71-3.89-7.17-8.63-8.27-14l-1.93.52c1.62,4,4.73,7.13,5.13,11.55l1.86-.65c-4.47-4.18-6.87-9.78-10.27-14.76-.4-.6-2.27.07-1.78.78Z"/><path class="cls-3" d="M318.83,66.67c-.65-.42-1.29-.85-1.93-1.28-.29-.19-2,.18-1.87.59a124.27,124.27,0,0,1,5.13,12.83l1.93-.51a70.14,70.14,0,0,0-12.25-14.84c-.3-.26-1.91.12-1.88.59a15.51,15.51,0,0,0,3.21,8.34l1.88-.58c-3.82-1.56-6.52-4.45-9.63-7.06-.3-.26-1.92.11-1.88.58A21.61,21.61,0,0,0,304.11,73l1.93-.52a18.3,18.3,0,0,0-7.76-7.77c-.34-.17-1.92,0-1.87.58a7.51,7.51,0,0,0,3.26,5.85c.42.32,2.1-.44,1.82-.65a7.29,7.29,0,0,1-3.15-5.71l-1.88.58A18,18,0,0,1,304.11,73c.26.45,2.09-.21,1.93-.52a21.42,21.42,0,0,1-2.56-7.7l-1.88.58c3.11,2.61,5.81,5.5,9.63,7.06.27.11,2.12-.23,1.87-.58a15.57,15.57,0,0,1-3.21-8.35l-1.87.59a69.65,69.65,0,0,1,12.14,14.69c.25.4,2.06-.1,1.93-.51A123.54,123.54,0,0,0,317,65.46l-1.88.59L317,67.33c.45.3,2.08-.48,1.82-.66Z"/><path class="cls-3" d="M279.79,62.25c1.46,1.33,3,2.53,4.49,3.86l1.66-.88A29.61,29.61,0,0,0,280.81,62c-.41-.18-1.74-.06-1.74.6,0,2.4,3,5,4.57,6.69l1.79-.77a26.73,26.73,0,0,0-15.29-6c-.44,0-1.42.23-1.33.84.3,2.24,1.38,3.2,3.41,4.08.4.17,1.73.06,1.73-.6,0-3.25-5.07-4.74-7.66-5-.45,0-1.21.19-1.34.69-.57,2.2-.58,3.7,1.49,4.87.45.25,2.26-.35,1.66-.88A19.55,19.55,0,0,0,256,61.93c-.3,0-1.82.42-1.27,1A8.21,8.21,0,0,0,258.27,65c.37.13,2.09-.43,1.48-.93-2.9-2.44-13.33-5.6-14.06.57,0,.33.33.54.6.54h1.29c.32,0,1.78-.45,1.26-1-2.26-2.54-5.61-3.26-8.87-3.44-.37,0-1.51.24-1.34.82.48,1.59.54,3.52,2.53,3.52.31,0,1.8-.39,1.26-1-3.31-3.57-12.65-6.18-14.06.5-.16.76,1.3.37,1.58.2.82-.51.46-.61.94-1.56s-1.51-.68-1.81-.08c.34-.68-.61,1.17-.35,1l1.58.2c1.08-5.12,8.06-1.95,10.33.5l1.26-1c-.91,0-1.09-2.1-1.32-2.89l-1.34.84c2.93.16,5.8.75,7.82,3l1.26-1c-.56.22-.76.11-.59-.31.26-2.15,4.47-1.09,5.62-.82a11.43,11.43,0,0,1,4.62,2.1l1.48-.94a5.27,5.27,0,0,1-2.9-1.76l-1.26,1a17.88,17.88,0,0,1,11,4.3l1.66-.87q-2-1.93-1.08-4.12l-1.34.69c1.69.14,6.46,1.53,6.46,4l1.74-.59a4.47,4.47,0,0,1-3-3.63l-1.34.84a24.91,24.91,0,0,1,14.24,5.58c.49.39,2.37-.14,1.79-.77-1.25-1.36-4.42-4.23-4.42-6.14l-1.73.59a29.61,29.61,0,0,1,5.13,3.21c.47.33,2.23-.35,1.66-.87-1.46-1.33-3-2.53-4.49-3.85-.53-.48-2.35.26-1.79.77Z"/><path class="cls-3" d="M226.63,61.35c-4.13.82-7.78-2.37-11.81-.55l1.28,0c-.93-1.13-2-1.28-3.19-2-.39-.24-1.58,0-1.58.6v.64c0-.22.58-.45.94-.67-1.52.15-3.05.52-4.57.64-1,.07-1.62,1.23-.28,1.13,1.52-.12,3.13-.49,4.65-.65.3,0,1.26-.26,1.26-.67v-.65a10.55,10.55,0,0,0-1.92.6c1.09.68,2.11.75,3,1.83.28.33.92.19,1.24,0,2.23-1,5.1.52,7.31.93a10.15,10.15,0,0,0,4-.2c1.2-.24.88-1.26-.28-1Z"/><path class="cls-3" d="M126.26,54.16h2.57c.31,0,1.85-.45,1.25-1a13.49,13.49,0,0,0-2.7-2c-.4-.23-2,0-1.73.77,2.11,4.62,7.48,6,12.17,6.13.33,0,1.83-.43,1.24-1l-1.92-1.92-1.65.91c1.79,1.24,3.37,1.36,5.54,1.39.45,0,1.44-.23,1.32-.88-.37-1.95.16-2.67-1.36-4l-1.65.91a17.49,17.49,0,0,0,9.39,2.68c.49,0,1.89-.52,1.12-1.13a16.69,16.69,0,0,0-5.32-2.65l-1.15,1.17a58.36,58.36,0,0,0,14.34,2.61c.37,0,2-.73,1.11-1.13a13.73,13.73,0,0,1-2.57-1.29l-1.33,1.1c4.77,1.43,14.59,3.41,18.7-.56a.61.61,0,0,0-.43-1h-.65c-.81,0-2,2-.71,2h7.06a3.9,3.9,0,0,1,.47-1.43,4.63,4.63,0,0,0-2.66.81c-.23.13-.5.46-.27.71,2,2.15,4.63,2.69,7.38,3.37.51.13,2.26-.69,1.33-1.1a21.72,21.72,0,0,0-8.1-2.05l-.72,1.24a84.18,84.18,0,0,1,11.56.64l.71-1.24c-5.15-.14-10.18-1-15.27,0-.41.09-1.22.69-.61,1.08,4.36,2.78,10.16,3.38,15.2,3.65a27.13,27.13,0,0,0,7.42-.47c4.13-1,7.52-.65,11.81-.5.4,0,2-.64,1.11-1.13a5.78,5.78,0,0,0-3-.75c-.55,0-2.08.9-.93,1.2a37.73,37.73,0,0,0,7.28,1.32c.83,0,2-1.16.71-1.24a35.07,35.07,0,0,1-6.84-1.25l-.93,1.21,2.17.53,1.11-1.13c-3-.11-6.24-.94-9.23-.64-2.16.22-4.28,1.41-6.59,1.59-5.64.44-12.95-.31-17.8-3.41l-.61,1.08c4.74-1,9.5-.08,14.26.05.8,0,2.05-1.05.71-1.24a82.57,82.57,0,0,0-11.55-.64c-.8,0-2.05,1.17-.72,1.24a19.38,19.38,0,0,1,7.31,1.81L185,57.43c-.9-.21-1.8-.44-2.69-.69a3.57,3.57,0,0,1-3.13-2.15c.75-.06,1.67-1.43.47-1.43h-7.07c-.81,0-2,1.43-.71,1.43-4.29,0-10.57.45-15.76-1.11-.53-.16-2.18.54-1.33,1.14a12.69,12.69,0,0,0,2.57,1.31l1.11-1.12a56.65,56.65,0,0,1-13.9-2.52c-.7-.2-2.29.78-1.15,1.17a15.82,15.82,0,0,1,5,2.5c.37-.38.74-.76,1.12-1.13a16,16,0,0,1-8.59-2.46c-.5-.32-2.28.36-1.65.91,1.22,1.07.95,2.35,1.21,3.71l1.32-.88A7.7,7.7,0,0,1,137,54.94c-.49-.34-2.26.3-1.65.91l1.92,1.92,1.25-1c-4.14-.16-9.05-1.26-10.94-5.41l-1.73.77a8.47,8.47,0,0,1,2.44,1.94c.41-.34.83-.89,1.24-.89H127c-.82,0-2,1-.72,1Z"/><path class="cls-3" d="M46.11,80.41c-4.82,6.68,18.1,14,22.38,14.18l.71-1.26c-8-.37-15.12-5.32-22.07-8.87L45.8,85.57c7.12,1.7,13.11,6.18,19.08,10.19l1.33-1.1c-8.9-2.46-21.28-9.47-24-18.93l-1.86.66C45.92,84,52.43,92.82,62.71,93.31c.3,0,1.89-.5,1.25-1-4.77-4-10.05-9.35-16.59-9.86-.52,0-1.6.35-1.24,1,4.2,8,15.48,10.65,23.43,13,.72.22,2.28-.84,1.14-1.18C62.92,93,52,90.44,47.91,82.65l-1.24,1c6,.47,11.17,5.76,15.51,9.4l1.24-1c-9.79-.46-16-9.23-21.29-16.46-.39-.55-2.07-.1-1.85.66,2.83,9.84,15.55,17,24.78,19.59.52.14,2.22-.51,1.33-1.11C60.3,90.65,54.2,86.12,47,84.38c-.5-.11-2.27.63-1.33,1.11,7.21,3.68,14.55,8.72,22.87,9.1.84,0,2-1.2.71-1.26C65.39,93.16,44,86,47.93,80.55c.57-.79-1.39-.73-1.82-.14Z"/><path class="cls-3" d="M144.3,70.44c-.08-1.39-.13-2.78-.12-4.16.6-3.26,1-6.54,1.28-9.85.16-1.59-3.55-1.57-3.93-.19-.11.39-.21.78-.31,1.18a1,1,0,0,0-.15.2,14.25,14.25,0,0,0-1.87,6.55,1.32,1.32,0,0,0-.89.81c-.33,1.16-.55,2.35-.8,3.53a3.07,3.07,0,0,0-1.23,1l-.21.32c-1,.88-1.39,2.47-.7,4.9a3.55,3.55,0,0,0,2.55,2.52c.48,1,2.24,1,3.22.41.72,1.32,4.07,1,3.86-.52,0-.13,0-.27-.05-.4a3,3,0,0,0,1-1.23C146.88,73.41,145.9,71.61,144.3,70.44Z"/><path class="cls-3" d="M179,77.67a6.8,6.8,0,0,0-2.24-4.23,16.53,16.53,0,0,0-.33-2,2.6,2.6,0,0,0-.29-.7l1.23-13.59c.17-1.79-3.29-3.61-3.49-1.35l-.33,3.57c-.59-.06-1.05.21-1.05,1a95.34,95.34,0,0,1-.42,10.69,5.84,5.84,0,0,0-.33.53c-1.82-.32-3.67-.15-4.51,1.38-1.4,2.58.1,5.71,2.21,7.64a2.35,2.35,0,0,0,.8,1c1.21,1.77,3.05,2.69,5.76,1.44A5,5,0,0,0,179,77.67Z"/><path class="cls-3" d="M211,73.25c.06-.55.11-1.1.13-1.66a.73.73,0,0,0,.07-.29c0-3.75,0-7.3,1.73-10.73.84-1.7-3-1-3.62.15a20.73,20.73,0,0,0-1.9,8.82.85.85,0,0,0,0,.22c0,1.11,0,2.19-.08,3.26-.14,0-.28.06-.42.11-4.58,1.64-8,10.15-1.11,10.86a5.57,5.57,0,0,0,1.9-.16c2.43.43,5.09-.27,6.37-2.49A5.71,5.71,0,0,0,211,73.25Z"/><path class="cls-3" d="M120.79,50c-.89-1.39-4.06-1.51-3.6.7,1.06,5,2.67,9.84,4.14,14.72.57,1.87,4.47,2,3.79-.29-.07-.24-.15-.48-.22-.72,1,.3,2.18.15,2.12-1.17C126.77,58.05,123.47,54.15,120.79,50Z"/><path class="cls-3" d="M91,53.21c0-.23.08-.46.13-.68.34-1.74-3.47-.81-3.86.59a36,36,0,0,1-3.12,7,9.19,9.19,0,0,0-3.23.72A6.09,6.09,0,0,0,78,63.31a5.6,5.6,0,0,0-1.33,3c-.35,2.77,2.29,4.59,4.71,4.77a5.69,5.69,0,0,0,4.75-2.27h.53c.83,0,2.54-.46,2.58-1.57a5.69,5.69,0,0,0-1-3.57,3.16,3.16,0,0,0-1-2.62l0-.06a3.29,3.29,0,0,0,2.83-1.24c.63-1.37,1-2.82,1.61-4.21a1.47,1.47,0,0,0,.24-.39c.1-.33.24-.67.31-1C92.43,53.37,91.79,53.14,91,53.21Zm-9.2,10.71a5.7,5.7,0,0,0-.15,1.19,1.46,1.46,0,0,1-.25-1A1.47,1.47,0,0,1,81.79,63.92Z"/><path class="cls-3" d="M64.61,56.05c-.32.38-.65.74-1,1.09a2.31,2.31,0,0,0-2.23.75c-.68.88-1.17,1.88-1.84,2.76a1.47,1.47,0,0,0-.21,1.8c-.28.64-.57,1.28-.86,1.92A3.68,3.68,0,0,0,55,64.1c-4.44,1.73-4,7.68-2.55,11.24.45,1.1,2.26,1.19,3,.38.13-.13.24-.27.36-.4l.53.41a3.84,3.84,0,0,0,1.49.66,1.4,1.4,0,0,0,1.4,0,3.92,3.92,0,0,0,2.94-3.94,9.16,9.16,0,0,0,.1-4.93,3.12,3.12,0,0,0-.66-1.24c.71-1.46,1.37-2.95,2-4.43a27.58,27.58,0,0,0,4.12-4C69.42,55.86,66.09,54.25,64.61,56.05Z"/><path class="cls-3" d="M100.55,33.85h-.15c.75-.6,1.14-1.74.09-2.22a16.92,16.92,0,0,0-6.38-1.45,3.42,3.42,0,0,0-2.6,1.51,4.12,4.12,0,0,0-2.8.4,3.25,3.25,0,0,0-1.81,3.18c-1.58.31-3.51,2.92-1.25,3l2.44,0a4.59,4.59,0,0,0,3.55,1.82c2.36,0,4-1.64,5.17-3.56a9.47,9.47,0,0,0,2.18.33C100.62,36.91,103,34,100.55,33.85Z"/><path class="cls-3" d="M122.33,28.69a2,2,0,0,0-1.32.39c-.38-.4-2.92-2-3.23-1.11A14.53,14.53,0,0,0,117.2,30a7.8,7.8,0,0,0-1.12.56,9,9,0,0,0-3.67.05c-.37,0-.62,0-.63.23a2.25,2.25,0,0,0-1.42,1.84c-.21,1.65,1.83,3.09,3.06,3.71a9.81,9.81,0,0,0,5.49.89,5.87,5.87,0,0,0,4.38-2.81c.12-.12.24-.25.35-.38.29,0,.48-.11.46-.35,0-.06,0-.12,0-.18a7.54,7.54,0,0,0,1.37-2.83C125.74,29.59,123.15,28.69,122.33,28.69ZM114.5,35.1a1.92,1.92,0,0,1-.34-.05,1.55,1.55,0,0,1-.1-1.23,1,1,0,0,1,.19-.32l.45.11c0,.1,0,.22.09.35a2.2,2.2,0,0,0,.81,1.11.1.1,0,0,1,.05,0A8.81,8.81,0,0,1,114.5,35.1Z"/><path class="cls-3" d="M390,62a37.77,37.77,0,0,1-1.3-9.69c0-1.91-3.73-3.08-3.7-.75,0,.25,0,.5,0,.75-1.18-.45-2.93,0-2.91,1.57a16.22,16.22,0,0,0,1.52,6.85,2.26,2.26,0,0,0,2.72.94c0,.15.06.29.1.44C386.92,64,390.61,64.38,390,62Z"/><path class="cls-3" d="M389.9,47.71C389,45.89,388.4,44,387,42.47c-.35-.38-3.45-2.07-3.33-1.56A17.8,17.8,0,0,0,384.77,44c-.78-.59-1.55-1.19-2.31-1.81-.16-.23-.33-.46-.5-.68a5.93,5.93,0,0,0-2.3-1.5l-.13,0a8.46,8.46,0,0,0-.79-.41c-.2-.08-1.44-.52-.9.13a70.34,70.34,0,0,0,5.81,6.38c.43.42.86.82,1.32,1.21a7.87,7.87,0,0,0,2.34,1.37,12.09,12.09,0,0,0,1.13.61c.07,0,1.66.73,1.46.26-.27-.64-.55-1.27-.84-1.9C389.55,47.83,390,47.94,389.9,47.71Zm-4.42-2.09.36.81q-.63-.69-1.23-1.41C384.9,45.22,385.18,45.43,385.48,45.62Z"/><path class="cls-3" d="M378.33,47.06v5.55c0,2.36,3,1.77,3-.44V46.62C381.33,44.26,378.33,44.85,378.33,47.06Z"/><path class="cls-3" d="M320.21,50.88a2.11,2.11,0,0,0-.66-2.6A2.93,2.93,0,0,0,317.13,46c-10.57,0-21.13.41-31.69.7A2.68,2.68,0,0,0,284,45.54a40,40,0,0,0-12.74-.08c-29.67-.3-59.32-1.57-89-2.7q-48.51-1.84-97-1.83c-.65,0-1,.3-1,.71l-.76,0c-16.21.59-36.41,4.71-42.91,21.8C37,73,38.44,82.46,46.7,88.91c7.56,5.91,17.62,8.55,27.12,8.09,2.63-.12,1.66-2.91-.54-2.8a36.89,36.89,0,0,1-23.43-6.68c-8.05-5.87-8.72-15.33-5.05-24C51.43,47.93,69.65,44.7,86,44.33a1.74,1.74,0,0,0,.66.14c12.45,0,24.89.76,37.33,1,17.88.74,35.75,1.53,53.65,1.92,26.27.58,52.42,2,78.65,3.69,21,1.36,42.1,2.48,63.19,2.28C321.48,53.29,321.36,51.64,320.21,50.88Zm-24.35-.64-4.7-.15L295.6,50A3.45,3.45,0,0,0,295.86,50.24Z"/><path class="cls-3" d="M353.39,138c7.21,6.75,15.95,7.12,25.25,8.43.95.13,2-1.22.67-1.4-8.95-1.26-17.46-1.62-24.43-8.14-.62-.58-2.3.35-1.49,1.11Z"/><path class="cls-3" d="M362.43,138.26c3.83,3.07,10.32,6.14,14.67,2.37.46-.4-1.39-.22-1.76.1-3,2.57-8.72-1.25-11.09-3.15-.44-.35-2.17.4-1.82.68Z"/><path class="cls-3" d="M366.11,135.49c2,1.87,4.85,1.48,7.4,1.46.54,0,2.11-.83.82-.82-2.26,0-4.59.34-6.4-1.31-.4-.36-2.15.37-1.82.67Z"/><path class="cls-3" d="M370.74,131.45a3.4,3.4,0,0,0,2.39,1.19,1.26,1.26,0,0,0,1.25-.59.59.59,0,0,0-.59-.81,1.79,1.79,0,0,1-1.29-.65,1.13,1.13,0,0,0-1.31-.14c-.29.14-.81.64-.45,1Z"/><path class="cls-3" d="M374.71,127.1l.92-.92a.46.46,0,0,0-.22-.81,1.46,1.46,0,0,0-1.36.37l-.92.92a.46.46,0,0,0,.22.81,1.46,1.46,0,0,0,1.36-.37Z"/><path class="cls-3" d="M376.12,124.32c1.07,0,1.51-1.32.2-1.32-1.08,0-1.51,1.32-.2,1.32Z"/></svg>