<svg id="layer1" xmlns="http://www.w3.org/2000/svg" viewBox="0 0 245.87 234.62"><defs><style>.cls-1{fill:#4e9b55;}.cls-2{fill:#492d0c;}</style></defs><path class="cls-1" d="M151.09,92.78a3.58,3.58,0,0,0-.63-1.2c-.05-2-.1-4-.12-6,0-.74-1.31-1.39-2.6-1.85-.09-.38-.17-.76-.26-1.13s-.06-.85-.07-1.27a4.21,4.21,0,0,0-.45-1.78,229.77,229.77,0,0,0-4.82-25.7,3.7,3.7,0,0,0-1.78-2.47c-.29-1.34-.57-2.67-.84-4a47.87,47.87,0,0,0,.61-5,3.46,3.46,0,0,0-2.65-3.85V32.83c0-1.16-5-1.72-5-1.32V33c0,1.41-.57,2.8-.71,4.2-.19,0-.5.1-.57.2-6.13,9.64-4.13,21.66-8.37,32-2.54,6.22-7.69,16-4.43,22.91a2.59,2.59,0,0,0-.17.38,20.07,20.07,0,0,0-.14,10.51,3.26,3.26,0,0,0,0,.83c.14,1.52.46,3,.65,4.51a4,4,0,0,0,.75,3.24q.82,3.66,1.85,7.28a25.57,25.57,0,0,0,1.13,3.93c2.47,8.33,5.26,16.58,6.92,25.12h0a59.24,59.24,0,0,1-6.69-7.64c-3-6.55-7.44-12.37-11-18.68a4.23,4.23,0,0,0-1.15-1.33c-1.58-3-3.19-5.94-4.72-8.94a3.64,3.64,0,0,0-4.46-1.78,3.45,3.45,0,0,0-1-.18q-1.07-1.09-2.16-2.16c-.83-1.11-1.67-2.21-2.55-3.29a3.35,3.35,0,0,0-2.41-1.32A155.57,155.57,0,0,0,78.51,91.38,136.18,136.18,0,0,0,67,80.74a2.18,2.18,0,0,0-1.47-.67,2.9,2.9,0,0,0-2-1.2,2.37,2.37,0,0,0-2.4-.51c-1.2-.51-2.41-.3-1.9,1.72A39.64,39.64,0,0,0,71.11,99.69c1.69,6,5.77,10.94,9.39,16.07,2.63,5.58,5.24,11.18,9.53,15.77,7.15,7.65,17.53,11.08,25.83,17.25.67.93,1.35,1.84,2,2.77a4.16,4.16,0,0,0,5.06,1.57c.24.23.46.49.7.72a4.12,4.12,0,0,0,6.61-1.47c1.53,3.49,7.22,1.69,7.63-2.13.29-2.65.73-5.28,1.26-7.89a4.3,4.3,0,0,0,.94-2.37l.3-3.15c.37-1.51.75-3,1.15-4.53a4.32,4.32,0,0,0,2.22-3.32c.48-3.74,1.13-7.43,1.78-11.12,1.27.56,2.54.93,2.61.7A55.34,55.34,0,0,0,150.55,103c.73.59,1.34.75,1.33-.21A52.66,52.66,0,0,0,151.09,92.78Z"/><path class="cls-1" d="M217.67,134.13a191.41,191.41,0,0,1-23.9,3.26,40.68,40.68,0,0,0-9.83.41,1.67,1.67,0,0,0-1.43.94c-5,.38-9.87,2.15-14.42,3.91a104.27,104.27,0,0,0-20.89,10.7c-.08.05-.13.11-.2.16.59-1,1.17-2.08,1.75-3.12a39,39,0,0,0,4.89-4.63A4.49,4.49,0,0,0,155,145c.42-.33.82-.68,1.23-1a3.66,3.66,0,0,0,3.17-1.18,47.21,47.21,0,0,0,3.64-4.38,37.71,37.71,0,0,0,3.59-2.59,4.33,4.33,0,0,0,3-1.1c3.6-3,6.25-6.8,8.88-10.59a3.65,3.65,0,0,0,3.49-2c3.53-6.46,7.46-12.68,11.27-19a73.19,73.19,0,0,0,7.06-10.37,4.08,4.08,0,0,0,.31-3.29c.12-.17.25-.33.37-.51a3.21,3.21,0,0,0,2-1.79,26,26,0,0,1,1.27-3.2l.13-.2c.71-.71,1.44-1.41,2.19-2.09,2.14-2,.3-3.91-1.83-3.32l.36-.35c2.53-2.29-.29-4.25-2.73-2.92-5.47,3-9.36,7.86-12.93,13a27,27,0,0,0-4.28,2.11c-8.07,3.15-13.71,9.11-18.22,16.12a51.88,51.88,0,0,0-6.08,6.41c-7.64,9.67-12.56,21.09-18.33,31.92-.46.39-.9.8-1.36,1.18a3.28,3.28,0,0,0-1.18,3.41c-.06.12-.13.23-.19.34-2.29,4,2.77,7.45,5.82,5.27a4.36,4.36,0,0,0-.34,2.39H142.8c-.91,0-2.32.62-2.32,1.76v.73c0,2,2.33,3,4.06,2.87l.22,0c-.14.5.5,1.71.62,1.93.45.82.91,1.63,1.4,2.42a16,16,0,0,0-3.26-.9c-.48-.08,1.21,4.68,2.64,4.92a15.25,15.25,0,0,1,3.6,1.05A28,28,0,0,0,157.25,183c.32.29,1.1.88.93,0,0-.21-.09-.44-.15-.71.33.28.66.55,1,.81l.76,1c1,1.22,1.15,1,1,.28.73.49,1.49.95,2.27,1.38a.19.19,0,0,0,.22-.06,16.41,16.41,0,0,0,5.5,5c.1.06.73.38.73,0v-1.6a19.68,19.68,0,0,1,2.2,1.63c.43.31.38,0,.21-.54a14.83,14.83,0,0,0,1.92,1.16,19.5,19.5,0,0,0,4,5.66s.94.89.94.29a5.41,5.41,0,0,0-.27-1.67,3.16,3.16,0,0,1,2.59.2,56.31,56.31,0,0,0,5.15,4.43c.37.28.36-.05.17-.62l.11,0c.15,0,.31,0,.31-.17,0-2.67,3.31,1.77,4.19,2.65s.7-.08.12-1.37c1.69,1.46-.71-3.08-1.16-3.62-.13-.16-.47-.29-.47-.44h.06a46.09,46.09,0,0,0-4-4.14c-.39-.42-.75-.85-1.13-1.28l.32.18c1.33.83-.28-2.37-.46-2.65a28.9,28.9,0,0,0-1.92-2.61,3.8,3.8,0,0,0-1.43-1.7l-.92-.58q-.47-.37-1-.72c-.3-.19-.38-.07-.33.24a31.16,31.16,0,0,1-3.75-2.42,39.29,39.29,0,0,0-3.83-3.07l-1.63-1.35c-.44-.36-.46-.06-.31.48-.57-.45-1.14-.9-1.72-1.34-.78-.63-1.56-1.28-2.33-1.93a8.31,8.31,0,0,0-1.5-2.34l-.69-.52a3.32,3.32,0,0,0-.78-1c-1.5-.94-2.9-2-4.4-2.93-.17-.11-.26-.08-.28,0-.64-.51-1.26-1-1.92-1.51s-.35.52.14,1.62a21.51,21.51,0,0,0-2.63-1c-.28-.09,0,.83.56,1.89a1.71,1.71,0,0,0,.07.26c-.59-.44-1.19-.86-1.81-1.25-.21-.14-.34-.15-.41-.09a3.36,3.36,0,0,0-2.08-.81c-.33,0-.33.2-.28.52a.9.9,0,0,1,0,.16c-.82-1.22-1.85-3.56-3.37-4.18,11.85-.64,23.91.12,35.55-2.49,7.83-1.76,14.5-6.75,21-11.75,2.45-.82,4.93-1.6,7.38-2.3a4.39,4.39,0,0,0,2.83-5l.87-.55a1.93,1.93,0,0,0,.87-.95c2-.33,3.93-.68,5.88-1.06C223.65,137.8,220.25,133.63,217.67,134.13Zm-54.47,44c-.35-.41-.7-.83-1.06-1.24,1.09,1,2.18,2.06,3.28,3.08Z"/><path class="cls-1" d="M130.37,158.54c-3.43-.65-6.82-1.42-10.21-2.24a4.37,4.37,0,0,0-1.72-.57l-.56-.06c-2.76-.9-5.53-1.76-8.38-2.39-8.89-4.86-17.54-10.05-28.27-9.41a8.7,8.7,0,0,0-3,1.68c-5.08-1-10.2-.66-15.52-.08a4.68,4.68,0,0,0-1.48.4c-2.62-.11-5.24-.27-7.85-.53-.66-.07-2.18.81-3.21,1.75-1.82.84-4.48,3.3-2.33,3.66h0c-.06.47.26.77,1.22.68.55-.05,1.1-.06,1.65-.08,4.41,1.09,8.65,2.77,13.14,3.63a64.5,64.5,0,0,0,17.95,6.62C80.67,162.7,80,164,81.29,164c4.6,0,9.11.39,13.66.53a4.21,4.21,0,0,0,1.45,0c1.9,0,3.8,0,5.73-.13s3.61-.28,5.41-.44,3.38-.06,5-.13a4.21,4.21,0,0,0,1.78-.45l4.09.45a3.24,3.24,0,0,0,3.06-1.14c.86-.07,1.73-.15,2.6-.2a3,3,0,0,0,1-.39c.64.12,1.27.27,1.92.39C128.69,162.8,132.84,159,130.37,158.54Z"/><path class="cls-1" d="M137.41,164c-.1-1.46-5.73-1.79-5.68-1.07.07,1,.14,1.94.22,2.91-.58-.49-3.84-2.44-5.11-1.93-4,1.62-7.87,3.65-12,5-3.51,1.16-6.7.21-8.69,3.91-.06.12,0,.28.26.44-2.81,1-5.21,3.23-7.3,6.61a30,30,0,0,0-3.56,3.74,8.19,8.19,0,0,0-2,.72c-.39.12-.78.25-1.15.4A14.35,14.35,0,0,0,85,188.09c-.35.31.5.79,1.62,1.22l-.31.38c-.15.21.19.47.75.74a20.61,20.61,0,0,0-1.74,3.26c-3,2.33-5.67,5.14-8.54,7.74-.29.26,4.37,2.28,5.35,1.9,10.86-4.16,19.08-12.59,27.79-20.1a4.12,4.12,0,0,0,2.27.3c6.12-3.4,10.36-8.81,14.82-14.06.18-.21-.29-.5-1-.8,2-.92,3.92-1.91,5.9-2.71.91,12,2,23.95-1.93,35.52-3,8.65-7.72,16.44-10.93,24.88-.36.06-.62.18-.62.36V228a44.86,44.86,0,0,0-2.2,8.24c-.11.6,1.2,1,2.2,1.21v.26c0,1.3,5.64,2.31,5.7,1.37a2,2,0,0,1,.15-.76h1.28c.26,0,1.84-.25,1.47-.92a22.15,22.15,0,0,1-1.62-3.89c.5-1.36,1.09-2.78,1.68-4.19.16-.37-1.16-1-2.58-1.35,2.92-8.07,7.24-15.61,10.47-23.62C140.26,191.42,138.36,177.52,137.41,164Z"/><path class="cls-2" d="M134.15,158.61c-2.31-11-9.07-20.3-11.29-31.33-.44.3-.88,0-1.32,1.05h2c.48,0,1.42-.39,1.32-1.05-.39-2.52-5.25-7.64-4.09-9.68,1.38-2.46-1.34-6-2.26-8.16-.37-.87,1.27-2.1.62-3.72a22.15,22.15,0,0,1-1.82-5.18,62.43,62.43,0,0,1-.41-10c-.45.24-.89.74-1.33.74h2c.46,0,1.23-.19,1.33-.75.9-5.13,2.61-10.83.66-15.91l-1.72.77,1.32.58c.45.2,1.72.11,1.73-.61.08-5.28,4.1-7.46,2.65-13l-1.32.89c.63,0,0-.47,0,0,0,1,1.56.47,1.88,0a14.41,14.41,0,0,0,1.74-3.81,13.82,13.82,0,0,1,2.13-4c1.79-2.83,1.51-6,1.46-9.23,0-.92-2-.56-2,.19V47c0,.89,1.66.55,1.92,0,1.13-2.44.74-5.73,2.16-7.87,1.57-2.36,1.66-5.41,3.15-7.64,2.85-4.27.34-11.44.77-16.13l-1.86.5c4.92,5.83.85,15.14,3.25,22,.11.34.55.4.86.37a3.58,3.58,0,0,0,2.2-.84,6.82,6.82,0,0,1-1.45-.27v7c0,.57.56.61,1,.48l1.92-.58-1.16-.48c0,1.31-.83,7,.06,7.89,1.52,1.43.88,4.15,1,6,.18,3.19,1.59,4.41,4.68,3.46l-1.12-.32c.39,3.39.29,6.81.92,10.18.76,4.09,1,8.27,2.83,12.07,1.39,2.89.79,6,1.23,9.08a11.13,11.13,0,0,1-.54,5.55c-.11.35-.77,1.88-.38,2.32,1.85,2.06,2.81,2.91,2,5.8-.78,2.7-1.89,5.29-2.62,8-.29,1.08-.74,3-.07,4,1,1.67-4.14,7.4-5.28,9.06a.41.41,0,0,0,.16.59c2.33,1.18-2.32,9.81-2.88,11.82-1.88,6.78-5.3,13.11-7.31,19.87.45-.24.89-.68,1.33-.68h-.66c-.83,0-2,1-.71,1h.66c.51,0,1.17-.09,1.33-.64,2.51-8.45,6-16.8,9.23-25,.79-2,1.84-4.3,1.43-6.51-.47-2.53,3.6-6.68,5.22-9,.16-.23,0-.44-.16-.58-2.62-2,1.83-10.59,2.54-13,.2-.69.77-2.47.26-3.18s-.47-.56-1.22-1.06c-2.14-1.42-.69-3.54-.17-5.33.73-2.5-.64-5.64-.36-8.26.27-2.42-1.27-4.64-2.16-6.77-1.18-2.8-.9-6.61-1.74-9.64-.9-3.22-.54-6.87-.92-10.18-.05-.44-.85-.4-1.12-.32-3.41,1-2.42-5.13-2.56-6.86a4.58,4.58,0,0,0-.66-1.93c-1-1.83-.3-5.59-.3-7.63,0-.57-.72-.61-1.13-.48-.66.19-1.16.38-1.82.58a2.68,2.68,0,0,0,1.3.48v-7c0-.77-1.37-.59-1.77-.28-.12.1-.83-6.26-.83-6.26,0-2.19.06-4.37.07-6.56,0-3.18-.43-6.29-2.53-8.78-.41-.49-1.81-.19-1.87.5-.47,5.25,1.56,10.8-.65,15.81-.93,2.11-1.33,4.41-2.42,6.55,1.37-2.69-1.59,1.8-1.59,2.12a15.2,15.2,0,0,1-1.28,6.83c.63,0,.87,0,1.87,0v-.59c-1,.07-1.29.13-1.93.19,0,3.56.67,7.9-3,10a.74.74,0,0,0-.34.47,12.09,12.09,0,0,1-1.79,6.25l2,0v-.59c0-.34-.57-.25-.91-.25h-.66c-.42,0-1.49.1-1.32.75.8,3.07.73,4.4-1.82,7-1.11,1.15-.82,4.1-.84,5.54.57-.21,1.15-.43,1.73-.63l-1.33-.59c-.42-.19-2,0-1.72.76,1.9,5,.2,10.7-.68,15.73a3.28,3.28,0,0,1,1.33-.58h-2c-.38,0-1.33,0-1.33.57a94.2,94.2,0,0,0,.43,10.22c.16,1.46,2.69,6.48,1.47,7.16-.25.14-.67.37-.56.73.7,2.24,4.24,6.76,2.16,8.83a.52.52,0,0,0-.17.48c1.16,3.32,4.11,5.59,4.65,9.11.44-.29.88-.1,1.32-1.1h-2c-.46,0-1.46.44-1.32,1.1,2.22,11,9,20.57,11.29,31.59C132.38,159.81,134.32,159.42,134.15,158.61Z"/><path class="cls-2" d="M136.83,158.93l-.12-.45c-.09-.33-.57-.41-.86-.37a1.76,1.76,0,0,0-1.47,2.29c.2.7,1.44.32,1.76,0,2.44-2.66,3.55-9,4.76-12.21a101.22,101.22,0,0,1,6.49-15l-1.66.45,1.25.79a1.36,1.36,0,0,0,1.67-.44c1.4-2.34.79-6.58,2.83-8.15,1.82-1.41,2.24-3.5,2.86-5.64.41-1.41,1.83-1.34,2.62-2.74.62-1.09.56-2.41,1.2-3.55a57.82,57.82,0,0,1,6-8.09l-1.55.29,1.25.79a1.4,1.4,0,0,0,1.55-.29c3.43-3.13,7.65-6.21,9.4-10.67l-1.81.33.51.93c.29.52,1.41.15,1.69-.17,3-3.52,6.81-3.58,9-7.89l-1.67.45c.4.25.39-.49.05-.08-.67.82.67,1,1.2.72,2.52-1.17,4.4-3.09,7.06-3.93s4.55-3.76,6.19-5.8c.74-.93-1.1-1-1.59-.45l-.33.4c-.76.93.92.89,1.42.6,1.73-1,3.69-3.88,5.48-4.4a13.17,13.17,0,0,0,5.16-3.2c1.68-1.72,3.84-2.64,5.49-4.57,2-2.29,3.44-5,5.52-7.16l-1.77-.13c-.3,6.42-7.87,10.62-10.31,16.33a.42.42,0,0,0,.15.59,2.56,2.56,0,0,0,1.81.24l-.68-.85-3.94,4.79c-.26.31-.23.7.22.81,1.69.43-1.14,2.63-1.87,3.51-1.78,2.17-.44.86-1.62,3.07-.83,1.56-3.69,3.49-3.58,5.49,0,.8.36,1.07,1,1.47s-2.18,3.59-2.86,4.49c-1.72,2.26-2.58,4.88-4.38,7.1a12.93,12.93,0,0,0-2.07,4.15,26.65,26.65,0,0,1-8.6,11.38c-.38.29-1,.65-.93,1.18.17,2.93-.87,3.71-3,5.27-2.39,1.71-5.11,3.24-7,5.57a2.24,2.24,0,0,0-.57,1.49c0,.2-7.36,3-8.05,3.3-.22.09-.69.43-.55.75.72,1.67-7,5.76-8.22,6.69-2.24,1.74-4.55,3.39-6.85,5-1,.7-7.38,5.58-7.95,5.23s-2.37.48-1.51,1l.42.26a1.25,1.25,0,0,0,1.16,0c7-3.88,13-9,19.71-13.32,1.56-1,3.81-2.2,4.86-3.83,1.64-2.53,5.48-3.21,8.43-4.44.29-.12.62-.4.56-.75-.51-2.77,7.48-6.56,9.27-8.14.83-.73,1.6-1.3,1.6-2.45,0-2.4,1-2.65,2.67-4.22a24.51,24.51,0,0,0,6.51-10.19c.88-3,3.39-5.73,4.81-8.61,1.28-2.58,3.45-4.78,5.07-7.17a.45.45,0,0,0-.34-.66c-2.69-.68,1.54-5,2.2-5.93,1.52-2.23,2.81-4.5,4.61-6.69.26-.31.23-.7-.22-.81-1.67-.42,1.78-3.41,2.57-4.37.45-.55-.12-.92-.68-.85-.27,0,3.05-4.77,2.85-4.51,1.15-1.44,2.39-2.81,3.58-4.22,1.79-2.15,3.51-4.49,3.65-7.37,0-.87-1.41-.5-1.77-.13-3.59,3.81-5.76,7.89-10.18,10.91a32.6,32.6,0,0,1-6.14,3.75c-1.8.81-3.15,3.3-5,4.38l1.42.59.33-.4-1.59-.45c-1.89,2.36-3.7,5.35-7.1,5.46-1.55.06-4.46,3.32-5.37,3.74l1.2.71.32-.4c.21-.24.28-.54,0-.74l-.42-.26a1.35,1.35,0,0,0-1.67.45c-1.53,3-6.38,4.72-8.77,7.56l1.68-.17-.51-.93c-.3-.55-1.61-.14-1.8.33-1.69,4.33-5.82,7.32-9.16,10.36l1.55-.29-1.25-.79a1.36,1.36,0,0,0-1.55.29c-1.89,2.3-3.74,4.61-5.43,7.06-.41.59-2.33,5.43-2.76,5.44s-1.07.11-1.26.56c-1.17,2.63-1.2,5.17-3.71,6.88-2,1.34-1.4,6.52-2.62,8.54l1.67-.45-1.25-.79a1.36,1.36,0,0,0-1.67.45,97.48,97.48,0,0,0-6,13.64c-.83,2.17-1.63,4.36-2.43,6.55-.65,1.76-1.24,5.2-2.58,6.66l1.76,0c.14-.77-.33-.91-1.42-.44C135.12,160.24,137.05,159.72,136.83,158.93Z"/><path class="cls-2" d="M139.33,161.72c1.86-2.67,5.62-4.6,8.2-6.53A72.65,72.65,0,0,1,157,149l-1.37-.23c.16.36.32.72.47,1.08s1,.44,1.38.23c1.21-.65,4.2-4.46,5-4.28,1.12.25,2.52-.69,3.31-1.37,1.53-1.34,2.22-1.25,3.88-1.81a4.2,4.2,0,0,0,1.4-1c2.35-2.08,5.7-2.91,8.59-3.88l-1.12-.32c.16.36.31.73.47,1.09a.78.78,0,0,0,.86.37c3.86-.68,8-1,11.32-3.38l-1.6-.27c0,.28,0,.57-.07.85-.05.57.75.6,1.13.48,3.59-1.14,6.07.39,9.59-1.59l-1.59-.11.16.36.81-.84-.39.13c-.66.22-1.27,1.08-.2,1.21,4.5.52,8.65.61,13-.89,1.13-.4.86-1.55-.31-1.16l-.39.13c-.6.2-1.31,1.21-.2,1.21,1.59,0,4.51-.93,5.85-.54a10.33,10.33,0,0,0,4.53,0c1.48-.34,3.16-.09,4.7-.43,2.66-.59,5.08-2.07,7.71-2.79l-1.07-.64c-2.83,3.89-9.71,3.74-13.61,6.4-.27.19-.45.47-.27.78.29.48.3.43.84.7l.6-1.09L215.78,139c-.31.1-1.14.53-.73,1l.85.95c.25-.32.49-.65.74-1-1.4.47-4.93.85-5.78,2.19-1,1.5-4.09,1.51-5.49,2.82s1.09,1.36-1.78,2.47a60.13,60.13,0,0,0-10,4.83c-2.88,1.79-6.29,4.25-9.81,4.5-1.47.1-2.94,0-3.41,1.7-.87,3.1-10.06-.52-11.87,3.2l1.48-.53-7.2-1.32c-.55-.1-1.38.06-1.55.69-.46,1.7-22,.48-21.81.94-.34-.77-2.25-.2-1.94.52.06.12.11.24.16.36a.67.67,0,0,0,.61.37c6.27.36,12.46-.39,18.72-.51,1.67,0,5.6.36,6.21-1.87l-1.55.69,7.2,1.32a1.41,1.41,0,0,0,1.49-.53c.86-1.75,8.27-1.05,10.13-1.43a2.17,2.17,0,0,0,1.32-.72c.95-1.5.89-1.57,2.88-1.71a18.29,18.29,0,0,0,8.4-3.43c4.25-3.14,9.22-5.08,14.07-7.21.3-.13.79-.53.49-.89-1.47-1.74,3.17-2.4,4-3a18.22,18.22,0,0,1,5.32-2.25c.31-.1,1.14-.53.73-1l-.85-1-.74,1,4.64-1.54c.32-.11,1.31-.74.6-1.1,0,0,4.56-2.06,5.06-2.22,1.26-.39,2.5-.8,3.74-1.25a9.13,9.13,0,0,0,4.55-3.25c.46-.63-.74-.73-1.06-.64-4,1.07-7.1,2.55-11.26,3a24.39,24.39,0,0,1-5.56-.13c-1.52-.12-3.37.81-5,.82-.07.4-.13.8-.2,1.21l.39-.13c-.1-.39-.21-.77-.31-1.16-2.53.89-8.92,1.14-11.95.79-.07.4-.13.8-.2,1.21l.39-.13c.27-.09,1-.41.81-.84-.05-.12-.1-.24-.16-.36-.26-.61-1.15-.35-1.58-.11-1.53.86-6.6.52-8.66,1.18l1.12.48c0-.28.05-.57.08-.85.07-.79-1.23-.54-1.6-.28-1.08.78-8.62,4.09-9.47,2.14-.17-.4-.74-.44-1.12-.31-2.18.73-4.34,1.48-6.46,2.37-.61.25-3.86,2.63-4.29,2.41a1.42,1.42,0,0,0-1.38.14,15.81,15.81,0,0,1-5.24,2.94c-2.25.61-3.32,3.61-5.34,4.69l1.38.22-.48-1.08c-.21-.49-1-.44-1.37-.23A86.65,86.65,0,0,0,145,155.44c-2.54,1.9-5.63,3.49-7.47,6.14C136.94,162.39,138.91,162.32,139.33,161.72Z"/><path class="cls-2" d="M137.93,163.73c9.58,3.77,12,13.38,15.22,22.16a5,5,0,0,1,1.6-.56h-.25c-.39,0-2.2,1-1.26,1h.91c.31,0,1.63-.36,1.6-.84-.08-1.3-.65-2.14.33-1.2a32.39,32.39,0,0,1,2.44,2.8c.31.37,1.65-.22,1.86-.52.54-.76,1.46-1,2-1.76l-1.87.49a44.68,44.68,0,0,1,4.6,5.76c.28.39,1.41,0,1.7-.24a14.37,14.37,0,0,0,2.79-2.43l-1.78.4c2.21,1.8,3.21,4.27,5.59,5.89a21.88,21.88,0,0,0,3.78,1.63c1.73.73,2.63,2.27,4,3.51a3.47,3.47,0,0,0,3,.72c2.3-.71,8.2,4.72,10.28,5.74.3.15,2-.09,1.88-.59-1.44-6.61-8.72-10.79-12.62-15.87a4.8,4.8,0,0,1-1.6.51h4c.27,0,1.67,0,1.59-.51-.49-3.1-2.66-4-5.37-5.26-.51.24-1,.77-1.54.77h.67c.17,0,1.93-.44,1.54-.7a27.42,27.42,0,0,0-8.75-4.12l-1.59.74c.89.16,1.76.42,2.65.59.26,0,2.09-.39,1.71-.7a31.69,31.69,0,0,0-9.41-4.7c-.43-.15-2.15.54-1.6.73a10,10,0,0,0,3.49.61c.22,0,1.74-.23,1.6-.65-1.32-3.83-6.1-4.36-9.36-5.89l-1.7.69a16.56,16.56,0,0,0,5,0c.2,0,1.51-.26,1.39-.64-1-3.31-7.62-4.44-10.41-5.22-4.71-1.31-9.53-2.21-14.34-3.05-.45-.08-2.11.65-1.59.74,4.1.71,8.18,1.52,12.22,2.5,3.12.75,11,1.88,12.18,5.55l1.39-.64a21,21,0,0,1-4.27,0c-.36-.08-2,.56-1.71.7,3.15,1.48,8,2.05,9.24,5.76l1.6-.64a6.28,6.28,0,0,1-3.15-.57l-1.6.73a30.81,30.81,0,0,1,9.19,4.63l1.7-.7c-.89-.16-1.76-.42-2.65-.58-.42-.07-2.15.6-1.59.74a26.5,26.5,0,0,1,8.52,3.91c.51-.24,1-.84,1.54-.84H182c-.2,0-1.91.67-1.54.84,2.54,1.14,4.78,2.45,5.26,5.49a4.12,4.12,0,0,1,1.59-.33h-4c-.15,0-1.83.09-1.6.39,3.92,5.1,11.2,9,12.62,15.62.63-.2,1.26-.45,1.88-.65-3.32-1.63-6.11-4-9.3-5.86-1-.59-2.82-.09-3.93-.64s-1.94-2.07-2.71-2.88c-1.05-1.11-3.66-1.62-5-2.28-2.42-1.16-3.52-4.21-5.59-5.89-.35-.28-1.53.1-1.78.41a7.21,7.21,0,0,1-2.52,2.23l1.7-.24a46.08,46.08,0,0,0-4.7-5.9c-.35-.34-1.63.17-1.87.5-.53.76-1.45,1-2,1.75l1.86-.5c-2-2.41-6.94-6.91-6.52-.5a4.81,4.81,0,0,1,1.59-.56h-.91c-.39,0-2.2,1-1.26,1h.25c.21,0,1.75-.43,1.6-.84-3.3-8.87-5.7-18.52-15.34-22.32a2.55,2.55,0,0,0-1.82.56Z"/><path class="cls-2" d="M133.42,159.74c-5.75-6.82-6.82-16.71-11.32-24.37-.27-.46-1.19-.17-1.51,0l-1.24.81,1.51,0c-1.49-2.38-.72-6.11-2.47-8.2-.92-1.12-2.15-1.68-2.68-3.13-.47-1.29-.78-2.6-1.36-3.86a.64.64,0,0,0-.61-.37c-1.6,0-2.08-3.28-2.73-4.39a60.59,60.59,0,0,0-6.29-8.17c-.35-.42-1.12-.21-1.51,0l-1.24.81,1.51,0c-3.38-3-7.61-5.94-9.38-10.25-.28-.7-1.59-.35-1.87.19l-.5.94,1.81-.34c-2.73-3.14-7.16-4.09-9-7.61-.25-.47-1.21-.16-1.51,0l-.42.27c-.23.16-.5.5-.27.77l.34.4,1.64-.92c-1.72-.77-3.6-3.18-5.1-3.61-3.87-1.1-5.34-2.62-7.78-5.57l-1.78.8.33.4,1.65-.92c-1.91-1.08-3.08-3.16-4.84-4.2-1.12-.66-2.51-.92-3.68-1.59-.9-.51-1.89-1.83-2.74-2.19-4.79-2-6.94-7.24-10.41-10.8-.5-.53-1.91-.14-1.85.66.18,2.85,1.91,5,3.66,7.14,1.17,1.43,2.44,2.78,3.65,4.18.65.74,2.53,4.19,3.5,4.29-.39,0-1.76.42-1.24,1l4,4.75.73-1-1.57.42c-.34.09-1.12.53-.74,1a38.49,38.49,0,0,1,4.51,6.17c.37.66,4.91,5.7,3,6.19-.37.1-1.07.51-.73,1,1.94,2.78,4.23,5.26,5.79,8.3C74,111.29,76,113.3,77,116a26.8,26.8,0,0,0,6.63,10.11c1.91,1.74,2.81,2.17,2.85,4.83,0,.73,1.16,1.51,1.67,1.89,1.93,1.5,9.84,5.23,9.36,8.09,0,.27.18.4.4.49,2,.79,7.84,2,8.31,3.93.36,1.47,3.14,2.89,4.23,3.61,6.87,4.55,14,8,21.33,11.73.65.33,2.4-.58,1.51-1-5.58-2.83-11.43-5.11-16.62-8.64-1.24-.84-9.18-5.07-8.53-6.63.14-.34,0-.53-.34-.66-1.9-.76-7.88-2-8.39-4.08-.32-1.28-2-2.3-3-3.06-1.94-1.52-4.08-2.78-6.07-4.22-.61-.44-1.94-1.28-2-2.25,0-.53.8-1.82.24-2.33-3.87-3.54-8.1-7.08-9.73-12.3-1-3.18-3.45-5.59-5-8.53-1.35-2.62-3.58-4.84-5.26-7.25l-.74,1c2.08-.56,3-1.56,1.87-3.59a69.5,69.5,0,0,0-8-10.74l-.73,1,1.57-.41c.34-.09,1.12-.53.74-1l-4-4.74-1.25,1a2.87,2.87,0,0,0,1.92-.28c.22-.11.71-.43.56-.75-2.54-5.7-10.23-9.9-10.65-16.36l-1.86.66c3.35,3.44,5.44,8,9.6,10.57A49.43,49.43,0,0,0,64.08,80c2.28,1,3.83,3.28,6,4.53.48.27,2.25-.2,1.64-.92l-.33-.39c-.5-.59-2.35.12-1.78.8,3.54,4.29,8.1,7.16,13.15,9.41.46.2,2.28-.17,1.65-.92-.34-.39-.65.41-.19.1l-1.51,0c2.23,4.22,6,4.15,9,7.61.42.49,1.52.19,1.8-.33.16-.32.33-.63.49-.94l-1.88.19c1.83,4.45,6,7.44,9.53,10.54a1.28,1.28,0,0,0,1.51,0l1.24-.81-1.51,0c2.67,3.15,6.19,6.56,7.2,10.68.51,2.08,2.39,2,3,3.75.71,2,1,4,2.81,5.39,2.29,1.72,1.59,5.84,3.13,8.3.28.46,1.18.18,1.51,0l1.24-.81-1.51,0c4.52,7.68,5.52,17.49,11.32,24.37C132.14,161.14,134,160.42,133.42,159.74Z"/><path class="cls-2" d="M132,161.86c-2.06-2.34-5.25-3.53-7.91-5.08a81.82,81.82,0,0,0-11.85-5.91,1.29,1.29,0,0,0-1.55.69c-.09.4-.18.81-.28,1.21l1.55-.69c-1.64-.63-3.88-3.88-5.8-4-2.31-.17-3.5-1.13-5.55-2.26a1.37,1.37,0,0,0-1.38.14c-.47.39-2.49-1.26-3-1.43a59.4,59.4,0,0,0-7.69-1.86c-.53-.1-1.4.06-1.55.69-.09.4-.19.81-.28,1.21l1.33-.72c-3.39-.09-7.14.24-10.21-1.45-.48-.26-1.9,0-1.72.77l.21.88,1.32-.88c-1.45-.23-7.58.53-8.54.12-.55-.23-1.57-.08-1.73.61l-.09.41c-.06.24.18.45.4.49l.39.08.42-1.17c-2.59.78-9.08,1.55-11.31,1.1-.38.4-.76.79-1.15,1.18l.4.08c.22-.41.45-.81.68-1.22-1.53.25-3.67-.41-5.13,0a26.81,26.81,0,0,1-5.26,1c-4.22.41-7.23-.81-11.23-1.31-.38-.05-1.79.44-1.24,1a9.39,9.39,0,0,0,5.05,2.6c.84.21,1.9.35,2.75.5,0,0,6.41,1.51,6.22,1.65s-.56.85,0,1c1,.19,4.36.17,3.66,1.36a.45.45,0,0,0,.34.66c.9.16,11.42,2.24,10.31,4.28-.17.31,0,.57.33.66,4.38,1.25,9.92,2.23,13.78,4.71a18.46,18.46,0,0,0,9.08,2.8c2.08,0,2.86,1.77,4.65,1.87,2.11.12,8.94-1.84,10.17.07.25.39,1,.21,1.29.08l6.68-2.54-1.37-.23c.81,2,4.42,1,5.94.75,6-.88,12-1.1,18-2.49a1,1,0,0,0,.82-.67l.09-.4c.2-.85-1.77-.57-1.94.19.06-.28-20.25,3.81-21,2.1-.22-.53-1-.39-1.38-.23-2.69,1-4.47,2.26-7.06,1.59-1.93-.49-4.34.1-6.26.34-1.43.18-2.93.55-4-.91-.29-.4-.5-.94-1.06-.95-3.21-.07-7.4-.13-10.32-1.8a41.62,41.62,0,0,0-8.86-3.85c-.44-.13-5.53-1.43-5.38-1.7a1.35,1.35,0,0,0-.11-1.36c-.57-1.15-2.84-1.24-3.89-1.44-.89-.17-1.52-1-2.33-1.11-1-.19-4.76-.23-4-1.43a.45.45,0,0,0-.34-.66c-1.12-.2-3.14-1.08-4.19-.25a1.52,1.52,0,0,0,.49-.86c.06-.16-.09-.35-.22-.42-4.28-2.21-10.82-1.06-14.19-4.68l-1.25,1c3.3.42,7.48,2.69,10.86,1.62,3.56-1.13,7.61-.72,11.25-1.32.45-.07,1.78-1,.68-1.21l-.39-.08c-.72-.14-2.3.95-1.15,1.18,4.47.91,8.46.17,12.77-1.13.43-.13,1.36-1,.42-1.17-.42-.08,0,.43.1,0l-1.73.61c3.62,1.56,5.76-.46,9.34.11.44.07,1.46-.29,1.32-.89l-.21-.88-1.72.77c3.35,1.84,7.3,1.59,11,1.68.48,0,1.2-.18,1.33-.73.09-.4.18-.81.28-1.21l-1.55.69c3.67.69,7,1.29,10.14,3.46.92.65,1.84-.32,2.54.07,1.44.79,3.14,2.77,5,2.26,1.24-.33,4.08,3,5.69,3.65a1.3,1.3,0,0,0,1.55-.69c.09-.41.18-.81.28-1.21l-1.55.68A71.32,71.32,0,0,1,121.14,157c2.91,1.66,6.81,3.12,9,5.67C130.71,163.25,132.55,162.52,132,161.86Z"/><path class="cls-2" d="M131.58,163.19c-9.94,3.92-12.47,13.5-15.9,22.73-.07.19.21.41.33.41h.25c.39,0,2.19-1,1.25-1-1.31,0,.3-3.48-2.22-2.81-2.2.59-3.53,2.73-4.92,4.39.64-.14,1.28-.31,1.92-.46-.54-.76-1.45-1-2-1.76-.3-.42-1.56.05-1.84.33a45.9,45.9,0,0,0-4.73,5.93l1.86-.5a13.44,13.44,0,0,1-2.65-2.34c-.31-.36-1.52.19-1.79.41-2.87,2.32-4,5.23-7.72,6.77-.87.35-6.64,4.34-6.75,4.31a4.18,4.18,0,0,0-2.48.38c-3.32,1.54-6,4.21-9.3,5.83l1.51-.06C77.84,199.2,85.11,195.14,89,190c.13-.17-.26-.21-.33-.21-4.39,0-1.13-3.67,1.26-4.75.3-.13.64-.5.07-.5-.72,0-.46-.11.78-.46a20.77,20.77,0,0,1,6.64-2.94c.8-.2,1.24-.84.11-.64s-1.86.62.32-.79l2.47-1.24c2.76-.11,3.3-.87,1.63-2.26.8-2.32,6.32-3.52,8.57-4.57.76-.36.18-.59-.37-.46-5.24,1.17-3.36-1.19-.63-2.46a47.2,47.2,0,0,1,8.22-2.57c4-1,8-1.74,12-2.45.76-.13,1.72-.92.36-.68-5.25.92-10.49,2-15.63,3.39-2.77.77-9,2-10.08,5.29-.06.19.2.2.33.21a25.78,25.78,0,0,0,3.75.24,28.52,28.52,0,0,0-4.45,1.42c-2,.81-3.56,1.88-4.28,3.95-.06.19.2.22.33.22a12.55,12.55,0,0,0,4.28-.77c1.3-.46.06-.67-.66-.41a33,33,0,0,0-9.84,5c-.43.34.58.28.69.26,1.52-.27,1.7-1-.62-.2A29.52,29.52,0,0,0,88,185c-.29.19-.27.4.11.4-1.77,0-4.56,2.42-5,5.12,0,.12.3.13.33.13,5.56,0-1.93,5.71-3.56,7.34-2.32,2.32-4.68,4.9-5.4,8.19-.1.47,1.34,0,1.51-.06,2.27-1.11,7.53-6.19,9.92-5.45,1,.31,2.55-.63,3.31-1a4.45,4.45,0,0,0,1.37-1.19c1.89-2.28,3.91-2.77,6.38-3.95,2.72-1.3,3.66-4.26,5.91-6.08l-1.79.4a13.4,13.4,0,0,0,2.66,2.33c.42.31,1.59-.12,1.86-.49a44.27,44.27,0,0,1,4.57-5.74l-1.84.34c.55.76,1.45,1,2,1.75.33.46,1.64-.11,1.92-.44.77-.93,1.54-1.86,2.36-2.75,1.09-1.19.43,1.25.37,2.22,0,.11.29.32.33.32h.92c.39,0,2.19-1,1.25-1,.77,0,3.65-9.59,4.12-10.68,2.15-5,5.48-9,10.61-11,1.29-.51.07-.75-.66-.47Z"/><path class="cls-2" d="M132.26,163.06c.09,14.34,1.9,28.65-3.2,42.4C124.79,217,117.39,227.53,116.25,240c0,.12.29.29.34.29h9.6c.21,0,1.76-.38,1.6-.81-4.79-12.26,2.83-25.1,6.65-36.58,4.51-13.61,1-26.47.82-40.36,0-.31-1.94,0-1.93.5.11,7.19,1.32,14.28,1.79,21.44C135.61,192,134,199,131.56,206c-3.76,10.7-10.18,22.43-5.71,33.89a5.07,5.07,0,0,1,1.6-.6h-5.77c-3.3,0-3.51-.93-2.93-4.15a52.24,52.24,0,0,1,3.2-10c2.55-6.31,5.83-12.31,8.44-18.6,5.87-14.13,3.9-29.13,3.8-44,0-.31-1.94,0-1.93.51Z"/></svg>