<svg id="layer1" xmlns="http://www.w3.org/2000/svg" viewBox="0 0 199.12 443.7"><defs><style>.cls-1{fill:#f73c3c;}.cls-2{fill:#492d0c;}</style></defs><path class="cls-1" d="M61.48,111.29c0-.09,0-.19,0-.27a3.11,3.11,0,0,0-2.36-2.56c-.26,0-.51,0-.77-.06a3.21,3.21,0,0,0-2-1.79,20.72,20.72,0,0,0-7.15-.09l-.7,0c-.74-.83-1.77-1.26-2.64-.3l-.11.13-.65-.06a23.86,23.86,0,0,0-4.45-.57,1.74,1.74,0,0,0-1,.32,1.55,1.55,0,0,0-.83-.17H36c-.65,0-1.3.13-1.47.86a42.76,42.76,0,0,0-.82,16.79,27.85,27.85,0,0,0,4,15.92c.57.88,2.24,2.12,3.13.85.44-.62.85-1.27,1.25-1.93l.19.15c.88.63,2,.61,2.47-.5.14-.38.28-.76.41-1.14a20,20,0,0,0,4.21-5.75,12.17,12.17,0,0,0,1.22.92c1,.64,1.94.59,2.47-.5l.59-1.23.27.07c.13.26.28.5.41.72.44.7,1.91,2,2.8,1.19,5.07-4.6,6.1-11.34,6.18-17.9A3.81,3.81,0,0,0,61.48,111.29ZM57,118.55a1.12,1.12,0,0,0,.53-.47l.07-.11c-.2,2.48-.66,5-1.62,6.43A24.1,24.1,0,0,0,57,118.55Z"/><path class="cls-1" d="M104.38,106.1a59.37,59.37,0,0,1-.87-12.42c0-1.17-1.14-2.05-2.3-2.35.15-1.36.29-2.74.45-4.12.26-2.17-3.75-3.5-4.71-1.45-.49,1-.92,2.06-1.3,3.1-1.16-.67-2.73-.69-3.32.59l-.2.45c-1-.74-2.5-1-3.22,0-.29.42-.56.84-.81,1.27C87,90.09,84.88,89.89,84,91.3a20.37,20.37,0,0,0-2.61,6.33,18.93,18.93,0,0,0,1.85,16.43c.69,1.15,3.9,2.47,4.45.44.24-.92.47-1.84.68-2.76a2.07,2.07,0,0,0,.89-.51l.14-.18c1.15.92,3.14,1.25,3.83-.25,0,0,0,0,0-.06a2.07,2.07,0,0,0,2.47-.44c.26-.38.49-.77.72-1.17.21.41.42.82.65,1.23.69,1.21,3.86,2.42,4.45.44.27-.92.5-1.83.7-2.75C103.52,108.17,104.7,107.59,104.38,106.1Z"/><path class="cls-1" d="M180.34,104.8c.29-2,.5-4,.78-6,0-.08-4.4.51-4.69,1.58s-.58,2.16-.82,3.25a10.27,10.27,0,0,0-2.07.71c-.69,0-4.26.62-4.54,1.58-.1.36-.2.72-.28,1.09a7.41,7.41,0,0,0-2.05.44l.51-3.11a13.45,13.45,0,0,0-4.07,1c.11-1.27.23-2.54.38-3.79,0-.19-4.29.65-4.66,1.58,0,.07-.05.15-.08.23a10.09,10.09,0,0,0-2.61.51c0-.77,0-1.55,0-2.32,0-.28-4.55.61-4.69,1.73-.06.44-.1.87-.15,1.31-1.26.31-2.63.83-2.62,1.47a120.34,120.34,0,0,0,1.84,17.55c.06.36,2.15-.15,3.51-.76.06.56.12,1.12.19,1.68s3.54-.7,4.45-1.39l.17.47c.19.5,2.39-.18,3.7-.86a13.68,13.68,0,0,0,3-1.13c.21.66.43,1.32.68,2,.13.35,1.32.1,2.47-.32l.3,2.17c.08.56,4.37-.87,4.65-1.58a50.13,50.13,0,0,0,1.63-4.94l.64-.21c.14.4.31.79.48,1.18s.86.19,1.86-.09v2.86c0,.22,5-.55,5-1.73V104.34A7.84,7.84,0,0,0,180.34,104.8Z"/><path class="cls-2" d="M83.92,395.35c-.3.85-.87,1.48-1.17,2.34-.18.52,1.68.15,1.91-.31,12.56-24.86,15.54-52.72,17.14-80.15.86-14.61,1.32-29.25,2.62-43.83,1.32-14.84,3.34-29.5,3.93-44.4.63-16,.42-31.95.47-47.92.05-16.26,1.05-32.46.18-48.71-.42-7.85-.93-15.68-1-23.54s1-15.54,1.5-23.3c.89-13.13-.22-26.83-8.59-37.54-9.11-11.66-24.74-13.76-36.86-5.8C48.65,52.32,42.86,74.6,46.54,91.83c.11.51,2.05,0,1.93-.52a52,52,0,0,1,5.77-36.17c7.42-13.31,22-21.55,36.4-13.73,11.57,6.27,16.12,19.62,17.07,32,1.18,15.19-2,30.51-1.38,45.78.31,7.86.91,15.69,1.17,23.55.28,8.47-.32,16.93-.48,25.39-.3,16,0,32-.26,48-.42,30-4.78,59.74-6.26,89.72-1.55,31.24-3.39,63.43-17.75,91.87l1.91-.31c.3-.85.87-1.48,1.17-2.33.17-.48-1.72-.24-1.91.3Z"/><path class="cls-2" d="M111.53,78.59c1.83-8,3.49-16.05,7-23.5,5.12-10.84,15.64-15.43,27.29-12.8,17.48,4,20.53,26.51,19.83,41.23,0,.76,1.89.35,1.92-.26.81-16.7-3.6-40.84-24.22-42.6-8.94-.77-17.18,1.6-23,8.63-6.7,8.06-8.48,19.66-10.75,29.56-.15.68,1.79.37,1.93-.26Z"/><path class="cls-2" d="M80.62,394c-2.89,2-3.56,5.13-3.72,8.48a.22.22,0,0,0,.18.14c15.64,2.49,34.55,3.21,49.23-3.74.07,0,.5-.26.4-.42-1.09-1.69-1.81-2.41-3.85-2.49-.44,0-2.22.79-1.24.83,2.31,1.71,2.49,2.73.56,3.05q-1.65.6-3.36,1.05a58.5,58.5,0,0,1-6.45,1.32,94.84,94.84,0,0,1-13,1,125.5,125.5,0,0,1-13-.46c-1.79-.15-3.57-.37-5.35-.6-4.94-.65.18-7.43,1.15-8.09.81-.56-1.13-.35-1.5-.1Z"/><path class="cls-2" d="M88.58,396.63c-.75,5.49,19.19,2.07,22.06,1.2,1.11-.34,1-.93-.15-.59-2.72.83-20.65,3.8-20-1.13,0-.22-1.85-.07-1.93.52Z"/><path class="cls-2" d="M119.72,394c-.08-26.19-3.51-52.22-3.51-78.39q0-15,.18-30c.06-5.39,1.14-14.73-2.6-19.22-.54-.64-2.38.11-1.78.84,1.72,2,1.86,5.23,2.12,7.78a113.61,113.61,0,0,1,.27,13.18c-.15,9.86-.14,19.71-.14,29.58,0,25.51,3.43,50.88,3.5,76.41,0,1,2,.66,2-.16Z"/><path class="cls-2" d="M104.32,264.82a37.41,37.41,0,0,0,15.21-3.76c-.51,0-1.31.07-1.31.1v5.21c0,1.42-7.08,1.41-8,1.4a17.81,17.81,0,0,1-7.38-1.45,7.51,7.51,0,0,1-1.76-1.2c-2.57-2.26,1.34-2.62,3.26-2.63.56,0,2.1-.85.81-.84a16,16,0,0,0-6.82,1.43c-.12.05-.46.23-.4.41,2.11,7.48,15.63,5.45,20.91,3.5a.5.5,0,0,0,.38-.51v-5.84c0-.43-1.14,0-1.29.1A30.88,30.88,0,0,1,105,264c-.55,0-2,.88-.69.84Z"/><path class="cls-2" d="M113.88,259.66c4.6-15.48,3.5-32,2.79-48-.83-18.66-.37-37.36-.73-56-.35-18.21-1.38-36.44-2.6-54.61-.47-7-.48-13.76-.34-20.73,0-1.9.44-6.48-2.61-5.77-1.21.29-.84,1.59.35,1.31.24-.05,0,11.1,0,12.27-.13,8,1,15.9,1.15,23.84.41,17.85,2,35.66,2.23,53.54.2,16.53,0,33,.72,49.56.65,14.87,1.36,30.29-2.94,44.73-.26.9,1.71.67,2-.15Z"/><path class="cls-2" d="M45.37,87A18.86,18.86,0,0,1,43,94l1.34-.65C39.63,93.43,33,95,30.21,90.11a8.71,8.71,0,0,1,.43-9.24c1.26-1.94,4.68-4.93,7-3.1,1.09.84,1.11,2.55,1,3.77a12.37,12.37,0,0,1-.64,2.88c-.94,3-3.55-2.27-3.63-2.45l-1.56.76c1.6.22,1,1.94,2.34,2.34.58.17,2.27-.7,1.19-1-.34-.1-.38-1.19-.57-1.46a2.16,2.16,0,0,0-1.76-.87c-.31,0-1.8.16-1.57.76.79,2,2.26,4.34,4.74,4,2.71-.36,3.28-3.54,3.43-5.78.29-4.41-3.58-5.2-7-3.86a10.5,10.5,0,0,0-6.56,10.27c.63,8.84,10.22,7.39,16.46,7.31A1.5,1.5,0,0,0,45,93.78a18.93,18.93,0,0,0,2.34-7c.06-.76-1.88-.37-1.93.25Z"/><path class="cls-2" d="M45.37,88.32c3.4,12.5,30.35-1.28,19.75-13.1C61.76,71.48,55.73,73.82,53,77c-1.23,1.44-2.64,3.62-1.58,5.52,1.16,2.06,4.62,1.62,6.5,1.38.25,0,1.3-.34,1.1-.8-1-2.33-1.12-2.8-3.7-3.71-.42-.15-1.89,0-1.74.73.26,1.23.91,2.26,1.17,3.5.14.67,2.08.18,1.93-.52-.25-1.23-.91-2.26-1.16-3.5l-1.74.73c2.1.74,2.46,1.38,3.31,3.29l1.1-.79c-4.46.58-6.63-1.65-3.72-5.4,3.15-4.07,8-3.74,10.44.75,5,9.32-14.69,20.15-17.57,9.6-.18-.68-2.11-.16-1.93.51Z"/><path class="cls-2" d="M165.65,79c-.23,5.1-4.61,6.93-9.05,8.16-5,1.4-10.5.13-11.68-5.42-.59-2.79.85-5.64,2.72-7.61,1.44-1.51,3.82-2.34,5.61-1,1.23.92,3.16,5,0,5.1-.36,0-2.21.63-1.26.63h2.15c-.43,0-1.47.52-.78.46a6.8,6.8,0,0,0,3.5-1.61c.08-.06.24-.2.23-.33-1.41-11-14.3-3.93-14.17,4.16.11,6.78,7.79,7.62,12.87,6.42,5.32-1.25,11.52-3.27,11.81-9.47,0-.26-1.91,0-1.94.51Z"/><path class="cls-2" d="M164.49,73.14c.47,4-1.89,11.7,2.76,13.86,5.11,2.36,11.72-1.21,15.56-4.38,4.53-3.73,4.83-10.54-.88-13.26-4-1.91-8.35.78-9.27,4.82a.3.3,0,0,0,.19.33,10.27,10.27,0,0,0,5.07,1.31c.25-.35.51-1,.76-1h-2.34c-.69,0-2.06,1-.76,1h2.34c.69,0,2.07-1.1.76-1.1-.84,0-4.26,0-3.89-1.66A3.94,3.94,0,0,1,179.21,70c2.17.24,3.76,2,4.65,3.84,2.56,5.32-3.19,9.57-7.31,11.55-3.89,1.87-9.61,2-10.09-3.12-.29-3.19.34-6.38,0-9.6-.07-.61-2-.18-1.93.52Z"/><path class="cls-2" d="M43.16,90.66c0,3.21-1,4.76-4.79,5.08a1.65,1.65,0,0,0-1.07.5c-1.46,1.76-3.53,2-5.58,2.54-3.92,1.13-4.93,4.29-5,8.1,0,.75,1.9.33,1.92-.26.05-2.4.2-5.5,2.68-6.7,1.32-.64,2.87-.71,4.23-1.22a7.45,7.45,0,0,0,3.15-2c.21-.25,1.6-.31,1.89-.44,1.39-.6,2.81-1.38,4.15-2.09.21-.11.5-.27.5-.52v-3.5c0-.55-2.06-.2-2.06.52Z"/><path class="cls-2" d="M46.71,87.83c-2.94,3.93,1.12,9.45,5.48,10.1,4.55.68,13.62-1.75,13,5.41-.07.92,1.89.59,2-.19.35-4.19-2-5.85-5.93-6.2-2.33-.21-4.69,0-7-.14-3.56-.23-8.68-4.8-5.9-8.51.72-1-1.12-1.1-1.59-.47Z"/><path class="cls-2" d="M29.36,106c6.74.07,13.44.67,20.19.36,5.57-.25,13.07-.38,17.51-4.33.4-.36-1.4-.15-1.74.16-4.83,4.29-14.48,3.51-20.5,3.49-4.74,0-9.47-.4-14.21-.45-.39,0-2.2.76-1.25.77Z"/><path class="cls-2" d="M28.22,108v16.07c0,2.21-.75,5.33-.18,7.44.23.84,2.3,2,2.9,2.37,6.29,4.06,14.92,3.93,21.68,1.34,1.25-.48.1-1.28-.82-.92a22.8,22.8,0,0,1-13.2.92c-2.7-.54-8.38-2.27-8.38-5.94V107.81c0-.89-2-.51-2,.21Z"/><path class="cls-2" d="M66.39,104.67c.09,9.07,2,27-10.57,28.42-.93.11-1.62,1.19-.28,1,6.15-.72,7.83-1.83,10.44-7.65,3.22-7.16,2.42-14.7,2.34-22.33,0-.57-1.94-.21-1.93.52Z"/><path class="cls-2" d="M26.76,134c3.2,5.81,10.16,9.16,15.32,13,.61.45,2.35-.41,1.51-1-5.09-3.76-11.9-7-15.05-12.74-.37-.66-2.23,0-1.78.81Z"/><path class="cls-2" d="M41.94,145.7a8,8,0,0,1,1.81,6.61,4.18,4.18,0,0,1-1,2.48c.13-.11-1.21-3.38-1.34-3.89-.43.3-.87.94-1.31.94h7c-.21,0-.42-.41-.63-.6,0,2.54,0,4.18-2.69,5.13l1.13.34c-.26-1.16-.69-2.8.38-3.69.89-.74,2.41-.94,3.48-1.29L47.75,151q-1.16,2.34-2.33,4.68h1.89c.16-.9,1-1.4,1.17-2.34s-1.81-.62-1.95.18-1,1.4-1.17,2.34,1.62.54,1.89,0l2.34-4.67c.33-.66-.65-.83-1.08-.69-1.58.51-3.38.85-4.69,1.94s-1.15,3.14-.79,4.76c.1.44.81.47,1.13.35,3.51-1.25,4.31-2.71,4.32-6.35,0-.34-.29-.38-.63-.38h-7c-.45,0-1.47,0-1.31.73.33,1.37.79,3.81,2.35,4.41a2.45,2.45,0,0,0,2.81-1c2-2.86,1.3-7.59-1-10.06-.55-.6-2.39.13-1.78.8Z"/><path class="cls-2" d="M50.28,148.8c-3.14,1.58-3.66,5.32-.1,6.88,2.31,1,5-.83,6.45-2.4,0,0,0-.05,0-.08-2-2.47-4.68-3.39-7.78-3.53-5.29-.25-.83-4.58,1.6-6.08,5-3.11,10.34-5,12-11.33.08-.32-1.78-.08-1.9.36-1.42,5.35-5.68,7.74-10.24,10.22-3.06,1.66-5.92,3.61-6.13,7.38,0,.1.3.1.33.1,3.11,0,6.08.13,8.75,1.87-.54,2.52-1.36,3.24-2.48,2.18a3.75,3.75,0,0,1-1.1-1.63c-.75-1.71.57-3.21,2-4,.8-.41-1.14-.16-1.46,0Z"/><path class="cls-2" d="M31.93,103.84H56.45c.63,0,2.09-1,.79-1a184.46,184.46,0,0,1-24.31-1.18c-.34.31-.67.61-1,.93,8.19-.09,16.33-1.09,24.52-1.18.4,0,2.06-.78,1-.94a148.36,148.36,0,0,0-22.4-1.18c-.27,0-1.94.54-1.17.9,8.8,4.15,19.91,5.77,29.17,2.23.59-.23.86-.78,0-.8-9.8-.19-19.79-3.27-29,1.43-.22.11-.63.49-.2.64,7.6,2.74,16.59,2.31,24.24,0,.18-.06,1.34-.6.67-.83-6.22-2.16-12.61-1.31-19.07-1.22-.39,0-2.06.73-1,1a103.8,103.8,0,0,0,18.9,2.34c.29,0,1.91-.5,1.17-.9-6-3.32-12.34-3.55-19.07-3.56-.26,0-1.95.69-1.17.91,4.08,1.14,11.14,2.69,14.66-.88,4.6-4.67-6-6.76-8.6-7-.38,0-1.65.13-1.58.72.5,4,3.63,5.74,7.37,6,.24,0,2-.32,1.51-.82a21.75,21.75,0,0,0-4.8-3.58c-.35-.2-1.68.07-1.74.57-.74,6.88,6.78,8.12,11.84,6,.2-.09,1-.55.42-.75-6.45-2.32-13.23-2.36-19.06,1.49-.5.33,0,.58.36.58,7.15.09,14.29.87,20.83-2.59.39-.21.56-.58,0-.69-8.5-1.68-18.42-3.26-26.66.38-.55.24-.9,1,0,1H53.67s2.35-1-1.6.06c-1.15.3-.93,1,.21.69s2.3-.71,3.51-1c.56-.15,1.34-.73.28-.73H37.58c-1.37,0-6.38.61.56-.73a29.86,29.86,0,0,1,5.34-.47,61.76,61.76,0,0,1,9.6.8c2.09.31,7.26.12,2,1.76-3.56,1.11-7.6.8-11.29.68-2.24-.07-8,0,2.23-1.81a19.61,19.61,0,0,1,8.6.9l-2.55.41a6.49,6.49,0,0,1-3.39-1.63c-1.44-1.15-1.52-3-1.35-4.65l-1.74.57a20,20,0,0,1,4.55,3.43l1.51-.83c-3.55-.29-6.18-2-6.64-5.63l-1.58.73c2.94.3,7,.66,8.74,3.5,3.08,5.17-10.38,3.07-12,2.61l-1.18.91c6.47,0,12.52.26,18.3,3.45l1.18-.9a102.45,102.45,0,0,1-18.47-2.33l-1,1c6.17-.09,12.34-1,18.3,1.11.23-.27.45-.55.68-.83A41.12,41.12,0,0,1,40.06,104a25.08,25.08,0,0,1-3.55-.83L39,101.94a24.29,24.29,0,0,1,5.62-.64,69.5,69.5,0,0,1,9.45.68c2.19.24,4.41.5,6.62.55-3.45-.07-6.8.9-10.34.69a41.22,41.22,0,0,1-14.94-3.9l-1.18.9a145.41,145.41,0,0,1,22,1.16l1-.95c-8.19.09-16.33,1.08-24.52,1.17-.41,0-2.06.81-1,1a178.14,178.14,0,0,0,22.85,1.21c.27-.32.53-.92.79-.92H32.72c-.63,0-2.09,1-.79,1Z"/><path class="cls-2" d="M34.09,138.88c4.32,1.52,8.42,3.32,13.06,3.55.6,0,2.06-.87.92-1.25l-10.51-3.5c-.55-.19-2.22.6-1.32,1.12,3.49,2,6.91,2.44,10.91,2.46.81,0,2.06-1.17.7-1.29-2.38-.2-4.63-1-7-1.16-.62-.06-2.05.92-.92,1.24,3.53,1,6.87,1.29,10.32-.1.33-.13.9-.76.34-1a13.66,13.66,0,0,0-3.9-1.34c-.24.43-.47,1.25-.71,1.25h9.35c.84,0,2-1,.7-1H46.69c-.81,0-2.06,1-.71,1.18a10.72,10.72,0,0,1,3.1,1c.12-.34.23-.71.35-1.05-2.91,1.17-5.54.7-8.36-.11-.31.41-.62.82-.92,1.24,2.38.2,4.63,1,7,1.16.24-.43.47-.86.7-1.29-3.64,0-6.88-.32-10.1-2.21l-1.33,1.12,10.51,3.5c.31-.41.62-.82.92-1.24-4.5-.21-8.44-2-12.62-3.46-.74-.26-2.27.8-1.14,1.2Z"/><path class="cls-2" d="M30.19,104.67c-.2,9.67-2.44,19.64,0,29.2.14.58,2.08.07,1.93-.52-2.43-9.56-.2-19.52,0-29.2,0-.47-1.92-.16-1.93.52Z"/><path class="cls-2" d="M62.89,102.34c.06,9.74,1,19.52-1.15,29.12-.08.34,1.79.07,1.89-.37,2.19-9.65,1.25-19.47,1.19-29.27,0-.25-1.94,0-1.93.52Z"/><path class="cls-2" d="M162.15,81.32c1.1,6.68-5,7.75-10.08,9.33-3.91,1.23-7.66,3-9.71,6.7a.42.42,0,0,0,.33.63c1.24.26,2.27.91,3.5,1.17.69.14,2.29-.91,1.16-1.15-1.85-.38-3.38-.6-2-2.26a11.33,11.33,0,0,1,4.44-3c2.52-1.12,5.26-1.65,7.84-2.59,4.5-1.63,7.32-4.24,6.49-9.32-.12-.75-2.06-.28-1.93.52Z"/><path class="cls-2" d="M165.86,80.94c-5.29,4.48,1.79,9.34,6.1,10.68,2.52.78,5.26.54,7.85.76,4.42.37,6,3.69,6.87,7.62.12.6,2.06.12,1.93-.52-1-4.9-3.25-7.71-8.32-8.13-2.56-.22-5.06-.08-7.55-.85-3.45-1.07-9.79-5.57-5.36-9.32.83-.7-1.1-.61-1.52-.24Z"/><path class="cls-2" d="M147.4,102.47c9.77-6.38,24.21-3.32,35.22-3.24l.7-1.31c-11.35,0-23.46-1.39-34.38,2.38-.92.32-1.09,1.27.06,1.26,8.58-.07,17.12-1.09,25.69-1.16.62,0,1.66-.94.67-1.27-10.33-3.5-21.35-1.33-32-1.21,0,.42,0,.84.07,1.26,11-2.1,22.15-2.28,33.35-2.29.86,0,2-1.3.7-1.31-10.14-.06-20.23-1.1-30.37-1.16-.57,0-2.08.9-.91,1.26,11.49,3.55,23.65,2.43,35.5,2.38.83,0,1.62-1.3.45-1.31-9.75-.06-19.45-1.09-29.2-1.17-.15.44-.3.88-.44,1.31,7.08-.18,13.94-2.35,21-2.54.82,0,1.62-1.51.44-1.51H156.46c-.85,0-2,1.48-.7,1.51,4.71.12,9.3,1.07,13.61-1.2.31-.17.92-.71.34-1a21.17,21.17,0,0,0-8.58-2.43c-.06.42-.12.85-.19,1.27,2.69-.67,3.75.15,6.31-1.37l-1.52,0a11.42,11.42,0,0,0,5.85,4.66c1.32.56,8.08,1.21,8.08,2s.94.6,1.39.42.94.92,1,1.07c.43.67,2.28,0,1.78-.82-1.24-2-1.53-2.2-3.83-1.28.46.15,1.19.29,1.19.43V95c0-.35-.09-.56-.43-.56-5-.1-10.56-1-13.38-5.6-.3-.49-1.11-.19-1.47,0-1.57.93-3.58.51-5.35,1-.7.18-1.22,1.21-.17,1.26a19.45,19.45,0,0,1,7.78,2.21c.11-.34.23-.69.34-1-3.82,2-8,1.27-12.08,1.17a3.23,3.23,0,0,0-.7,1.45h17.52a4.26,4.26,0,0,1,.45-1.45c-7.08.18-13.94,2.08-21,2.26-.82,0-1.63,1.27-.45,1.28C162,97,171.71,98,181.45,98.08l.45-1.32c-11.54,0-23.37,1.15-34.56-2.3l-.92,1.27c10.13.07,20.23,1.1,30.36,1.16l.7-1.3c-11.55,0-23,.21-34.38,2.38-1,.19-1,1.27.06,1.26,10.33-.12,21.05-2.27,31.07,1.12l.66-1.26c-8.57.08-17.11,1.09-25.69,1.17l.06,1.26c10.61-3.67,22.35-2.34,33.36-2.29.86,0,2-1.3.7-1.31-11.78-.09-26.68-3.09-37.18,3.76-1.1.72.52,1.27,1.26.79Z"/><path class="cls-2" d="M147,102.19c-2.34,7.94-1.24,16.37-1.17,24.52,0,.85,1.91.46,1.94-.22.24-7.8,4.94-17.21,1.16-24.67-.29-.58-1.94-.32-1.93.37.09,6.3,1.06,12.54,1.17,18.83,0,.66,1.94.27,1.93-.52C150,114.3,149,108.17,148.9,102l-1.93.37c3.72,7.33-.93,16.68-1.17,24.37l1.94-.22c-.07-8.17-1.18-16.57,1.16-24.52.22-.74-1.73-.47-1.93.22Z"/><path class="cls-2" d="M184.22,99.84v19.85c0,.92,2,.55,2-.19v-7c0-.91-2-.55-2,.2v7c0,.92,2,.55,2-.19V99.64c0-.91-2-.54-2,.2Z"/><path class="cls-2" d="M186.19,98.16l-2.33-2.33c-.43-.42-1.86-.26-1.86.5-.08,8.59-1.21,17.3,0,25.86.12.81,2.06.34,1.94-.52-1.2-8.43-.07-17,0-25.52l-1.86.5L184.42,99c.57.57,2.4-.19,1.77-.82Z"/><path class="cls-2" d="M45.37,105.84c.86,4.44-1.67,9.59-6.16,11-.32.1-.86.28-.85.7.07,2.16.49,3.86,2.66,4.62a10.79,10.79,0,0,0,6.29.12c4.21-1.55,1.32-7.65,3.42-10.84.47-.71-1.46-.49-1.78,0-1.54,2.32-1.33,4.78-1.25,7.44.1,2.93-2.36,2.72-4.66,2.47s-2.69-2.4-2.75-4.33l-.84.7c5.23-1.62,8.92-6.84,7.85-12.38-.12-.61-2.06-.14-1.93.52Z"/><path class="cls-2" d="M163.32,97.52c-.3,6.54-4.31,12.11-3.5,18.83,0,.16.24.25.37.28,3.23.69,6.46.65,8.74-2,2.5-2.89,1.53-8.27,1-11.64-.11-.69-2-.23-1.93.51.74,4.67,1.84,13.28-5.54,12.28-2.87-.39,2.7-16.32,2.8-18.49,0-.82-1.9-.44-1.93.23Z"/><path class="cls-2" d="M149.51,128.26c4.39,2.85,11.45,2.38,16.4,2.12,5.24-.26,12-.44,16.5-3.46.5-.33.43-.91-.24-.9-10.56.13-21,2.2-31.53,2.34-.75,0-2.06,1.14-.74,1.16,10.72.1,23,2.46,32.51-3.77.52-.34.42-.89-.24-.9-8.19-.08-16.33-1.08-24.52-1.16-.51,0-2.09.82-1,1.13,9.15,2.5,18.29,3.23,27.59,1.13,1.18-.26.89-1.3-.28-1-8.82,2-17.49,1.17-26.14-1.19l-1,1.13c4.41,0,8.81.33,13.21.65q3.76.27,7.54.44a3.87,3.87,0,0,0,2.43-.11,18.07,18.07,0,0,1-4.48,1.84c-7.93,2.4-16.84.77-25,.69-.25.38-.49.77-.74,1.16,6.3-.08,12.54-.8,18.8-1.49,3.62-.39,7.24-.69,10.88-.82l1.16-.62a11.25,11.25,0,0,1-2.16.88c-.87.28-1.78.47-2.67.67a63.12,63.12,0,0,1-14.19,1.15c-3.43,0-7.71-.07-10.69-2-.56-.37-2.34.45-1.52,1Z"/><path class="cls-2" d="M145.87,128.91c-4.82,6.78,17.13,7.57,20.38,7.59.73,0,2.05-1.1.74-1.11-2.91,0-23.17-1-19.32-6.43.52-.73-1.43-.57-1.8-.05Z"/><path class="cls-2" d="M150.83,131.73l17.52,3.5c.37.08,2.13-.59,1.39-.87a52.56,52.56,0,0,1-10.39-5.78c-.5-.33-2.22.43-1.81.71,4.85,3.31,9.79,3.61,15.5,3.62.39,0,1.18-.21,1.18-.73V131c0-.35-.74-.16-.88-.12-1.21.31-2.21.85-3.41,1.16-.33.09-1.35.72-.46.85,5.48.79,9.84-2.08,14.23-5,.47-.31,0-.59-.34-.56-4.48.41-8,2.61-11.66,5-.48.31,0,.58.36.56a26.23,26.23,0,0,0,9.15-2.6c1.17-.54-.62-.66-1.15-.41a14.62,14.62,0,0,1-5.34,1.64c.89-.59,10.71-5.75,3.82-1.47-2.4,1.5-11.18,3.19-5,1.59a7.56,7.56,0,0,0-1.29-.13v1.17a4.4,4.4,0,0,0,1.59-.72c-5.36,0-10-.28-14.57-3.4l-1.75.71a53.9,53.9,0,0,0,10.66,5.91c.46-.3.94-.59,1.4-.88L152,130.82c-.5-.1-2.25.7-1.21.91Z"/><path class="cls-2" d="M163.66,133.24c-3.88,2.8-5.48,7.72-9.34,10.51l1.59.11a4.5,4.5,0,0,0-1.25-2.48l-1.64.92c1.9.9,3.75,1.44,5.66,2.34.44.2,1.54.09,1.54-.62v-2.33c0-.17.14-.35,0-.42a17.1,17.1,0,0,0-7.32-1.29c-.51,0-1.34.23-1.28.89.22,2.32,2,3.37,3.61,4.82.57.53,2.41-.23,1.79-.81-1.47-1.36-3.23-2.34-3.42-4.52-.44.29-1.09.59-1.53.89.75,0,6.18.14,6.18.73v2.23a10,10,0,0,0,1.94-.61c-1.9-.9-3.83-1.43-5.73-2.33-.46-.22-2.26.21-1.6.92a3.92,3.92,0,0,1,1.12,2.19c.1.64,1.3.33,1.6.11,3.88-2.8,5.49-7.73,9.35-10.51,1.07-.77-.54-1.24-1.24-.74Z"/><path class="cls-2" d="M167.6,131.75c-3.19.77-4.56,3.68-3.8,6.75,1,3.87,4.91,5.61,8.58,5.18.43-.05,1-.29,1.06-.8.35-3.44-1.69-6.86-5.55-5.38a3,3,0,0,0-2.17,2.59c0,1.91,2.46,3,3.91,3.53.49.19,1.59-.07,1.59-.74v-1.16a1,1,0,0,0-1-.88h-2.33c-1.13,0-1.47,2-.16,2h2.34c-.31-1-.83-.77-.83-1V143c0-.25,1-.49,1.5-.74-1.11-.44-4.65-2.35-2.14-3.51s3.07,2.71,2.91,4.25l1-.8a6,6,0,0,1-6.58-3.58c-.89-2.09-.47-4.91,2-5.51,1.21-.29.83-1.67-.37-1.38Z"/><path class="cls-2" d="M110.37,82.12c.07-6.23,1-12.49-.09-18.68-1.16-6.58-5.82-12.24-10.28-16.93-8.24-8.68-20-12.58-30.76-6C63.42,44,63.37,49.78,70,52.05c5.71,2,12-.93,12.32-7.3,0-.34-.3-.49-.61-.49a36,36,0,0,0-9.85,1.22c-.28.08-1.14.51-.75.94,1.93,2,2.1,2.52,5,2.53.36,0,1.11-.17,1.11-.7V45.92c0-.17.19-.31,0-.39s-.34-.21-.57-.31a1.37,1.37,0,0,0-1.61.44,2.49,2.49,0,0,0-.53,1.64c0,.86,1.92.5,2-.22a2,2,0,0,1,.43-1.32l-1.66.45c.82.37.47,1.47.47,2.25l1.33-.7c-2.06,0-2.83-.73-4.14-2.13l-.75.93c.82-.23,8.24-2,8.19-.72A6.23,6.23,0,0,1,78.52,50c-2.1,2.14-5.9,1.58-8.37.57-1.93-.79-3.65-2.4-3.58-4.61.19-5.58,10.23-7.69,14.13-7.74,9.64-.11,17.55,8.32,22.82,15.44,6.63,8.94,5,18.3,4.91,28.7,0,.88,1.93.5,1.94-.21Z"/><path class="cls-2" d="M64.77,47.28A8.46,8.46,0,0,0,66,42.44c0-.38-.29-.55-.64-.59-6.91-.79-12.88,5.95-15.78,11.6C47.26,58,46.07,65.12,40.42,66.72c-2.75.79-4.65-.84-4.64-3.41s1.47-2.13,2.66-.52c.49.66,2.33,0,1.78-.83l-1.08-3.17-1.73.62a5.36,5.36,0,0,0,2.52,1.25c.79.21,2.29-.94,1.13-1.25a4,4,0,0,1-2.15-1.08c-.41-.36-1.75,0-1.73.62a6,6,0,0,0,1.26,3.84L40.22,62c-4.49-6-9.58,3.53-3.48,6,4.79,2,9.18-2.87,11.17-6.49,1.75-3.18,2.75-6.7,4.59-9.84,1.1-1.89,3.15-3.67,4.65-5.25,2.28-2.41,9.5-5.14,5.78.69-.56.88,1.41.85,1.84.18Z"/><path class="cls-2" d="M116.2,63.28c-2.11-5.71,6.74-13.7,10.63-16.73s11.62-3.35,13,2.3a9.26,9.26,0,0,1-.82,5.5,7,7,0,0,1-2,2.62l-4.66-2.42a6.2,6.2,0,0,1,3.78-1.94l-.85-.88-1.17,3.5,1.91.07a1.34,1.34,0,0,1,1.28-1.52c1.13-.05,1.46-1.57.15-1.5-2.22.11-3.39.88-3.39,3.15,0,1,1.65.84,1.91.07l1.17-3.5c.18-.56-.32-1-.86-.89-5.4.63-9.11,6.22-2.1,8,6.3,1.59,8.69-8.44,7-12.56-2.58-6.25-12.45-3.48-16.39-.41C120.64,49.4,112,57.71,114.27,63.8c.34.93,2.27.39,1.93-.52Z"/><path class="cls-2" d="M126.18,47.77C132.74,45,140,40.07,147.38,42c4.08,1.07,7.68,7.1,10.85,9.8,2.71,2.31,5.94,3.69,9.45,2.55,2.26-.73,5.36-3.55,5.84-6,1.36-7.07-19.46-.62-5.84,1.89.44.08,1.54-.23,1.54-.79V47.12c0-.6-.91-.73-1.38-.6a6.39,6.39,0,0,0-2.92,1.39c-1,.86.5,1.54,1.23.9a3.86,3.86,0,0,1,2-1c-.38-.2-1-.4-1-.6V49.6c0-.26.67-.52,1.11-.78-1.22-.23-5.16-1-2.29-1.89a7.81,7.81,0,0,1,4.78-.12c2.72.92-1.45,4.73-2.19,5.39-4.09,3.66-9.25-1.66-12-4.37-3.79-3.78-6.55-7.58-12.27-7.72-6.7-.17-13.11,4-19.06,6.5-1.22.51-.14,1.57.86,1.16Z"/><path class="cls-2" d="M114.33,57.65C108.49,69,109,82.36,109.39,94.77c.49,17.69,0,35.41-.31,53.11s-.69,35.44-.65,53.17c0,18,1.13,36.07,1.17,54.12l1.93-.37c-.75-11.32,2-22.31,3.14-33.5,1.19-11.39.37-23.18.37-34.63,0-22.41,1.38-44.95,0-67.33,0-.77-1.78-.18-1.93.36-2.72,9.7-2.61,19.91-2.48,29.9.16,12,.14,24,.14,36,0,24.74-1.12,49.47-1.16,74.21l1.93-.21c-.14-7.24-2.37-15.29,1.11-22l-1.88.06a71.62,71.62,0,0,0-1.32,15.18,13.05,13.05,0,0,0,1.78-.21v-7c0-.87-1.78-.48-1.78.22,0,3.95,0,7.84-1.09,11.67-.22.77,1.78.5,2-.21,1.08-3.83,1-7.72,1-11.68-.65.07-1.11.14-2.11.22v7c0,.88,2.13.49,2.13-.21a70.87,70.87,0,0,1,1.26-15.18c.18-.83-1.58-.42-1.83.06-3.55,6.89-1.36,15-1.21,22.34,0,.87,2,.49,2-.21,0-24.75,1.18-49.47,1.18-74.22,0-11.47.08-22.94-.11-34.4-.18-10.51-.42-21.31,2.45-31.52l-1.94.36c1.46,23.44,0,47.11,0,70.58,0,10.92.58,22-.55,32.86s-3.67,21.16-3,32c0,.68,1.94.29,1.93-.37,0-17.4-1-34.78-1.15-52.18-.17-17.71.28-35.43.61-53.14.3-16.5.89-33.06.49-49.56-.34-13.93-1.94-29.49,4.66-42.32.45-.88-1.49-.71-1.81-.1Z"/><path class="cls-2" d="M107.43,267.34h-.09c-.07.32-.13.64-.2,1,3.37-1.36,7.91-.29,11-2.51.48-.34.44-1-.24-1H98.09c-.75,0-2,1-.74,1h21c.75,0,2-1,.74-1H102.76c-.16,1-.33.83-.5,1.2,2-.17,3.85-.83,5.84-1.12.66-.1,1.73-1,.5-1.1-2.38-.21-4.63-.94-7-1.15-.24.38-.49,1.17-.74,1.17H113.7c.25,0,.49-.78.74-1.16a33.41,33.41,0,0,0-9.85,1.23c-.33.1-1.27.6-.63,1,3.39,2,6.81,2.61,10.5,1.1,1.24-.51.11-1.2-.78-.84-3.14,1.29-5.61.29-8.19-1.22l-.63,1a29.57,29.57,0,0,1,8.84-1c.74,0,2-1.05.74-1.05H101.59c-.72,0-2.08.93-.74,1.05,2.38.2,4.63.92,7,1.12.16-.37.33-.77.5-1.14-2,.29-3.82.83-5.84,1-.69.06-1.71,1-.5,1h16.35c.75,0,2-1,.74-1h-21c-.75,0-2,1-.74,1H117.2c-.08,0-.15-.43-.23-.73-2.87,2-7.41,1-10.6,2.27-.5.2-.86.77-.2,1a1.82,1.82,0,0,0,.52.08c.76,0,2-1.08.74-1.12Z"/><path class="cls-2" d="M110.77,293.74c-2.29,28.81,0,57.69,0,86.54,0,.5,1.93.16,1.93-.52,0-18.11,0-36.22.94-54.32.66-13.1,2.83-27.3.23-40.27-.13-.63-1.78-.05-1.93.39-4.84,14.24-2.42,29.78-2.34,44.5.11,19.08,1.13,38.14,1.17,57.22,0,.56,1.8.08,1.92-.39,4-14.71,2.16-30.22.81-45.16-1.59-17.67.54-35.37-.8-53.06,0-.61-1.52,0-1.73.14-4.71,3.27-6.18,9.38-7.15,14.7-1.24,6.79-1.29,13.81-1.27,20.68.07,21.89,3.42,43.56,3.55,65.43,0,.51,1.93.16,1.93-.52,0-27.63-1-55.3,2.33-82.79.09-.72-1.63-.22-1.85.15-6.65,10.61-6.08,24.09-5.94,36.15.18,16.46-2.3,32.95,0,49.34.09.63,1.78,0,1.93-.39,7.25-21.3,5.87-44.53,5.84-66.69,0-.57-1.78-.06-1.92.4-6.88,22.4-7.23,46-11.68,68.9l1.92-.28c2.33-14.48,6.81-28.57,8.17-43.21.08-.77-1.7-.16-1.92.28-6.54,13.2-12.56,27.24-14,42-.07.73,1.74.24,1.92-.27,3.61-10.41,9.24-20,12.85-30.37.23-.67-1.62-.13-1.86.15-6.9,8.47-9.42,18.87-11.74,29.32-.15.66,1.33.22,1.54.1,11-6.12,11.75-22.49,15.56-33.07l-1.92.27a113.68,113.68,0,0,0-5.85,34c0,.65,1.75-.06,1.93-.39,4.6-8.38,6.92-17.45,8.18-26.86.09-.73-1.73-.22-1.93.27-3.36,8.65-2.4,17.91-2.34,27,0,.6,1.54,0,1.73-.14,8.35-6.3,7.21-21.44,7.21-30.74,0-.59-1.77,0-1.92.4a31.87,31.87,0,0,0,0,21.14c.21.57,1.84.12,1.93-.4,2.16-13.07.27-26.31-1-39.37-1-9.72,3.46-21.7-1.32-30.82-.32-.6-1.7-.08-1.93.4-7.19,15.26-3.62,33-3.51,49.17,0,.56,1.8.08,1.93-.4,5.69-21.46,2.43-43.65,2.34-65.52,0-.51-1.87-.14-1.93.4a292.57,292.57,0,0,0-1.17,30.48c0,.51,1.93.17,1.93-.51.09-16.39,2.25-32.67,2.34-49,0-.64-1.75,0-1.93.4-5,9.55-2.44,21.37-2.34,31.65,0,.51,1.93.16,1.93-.52.06-11.69,1.11-23.14,1.17-34.83,0-.21-.46,0-.58,0H111c-.33,0-1.3,0-1.36.42a263.27,263.27,0,0,0-1.24,30.38,11.41,11.41,0,0,1,1.86-.62V270c0-.51-1.81-.14-1.85.4-1.22,15.22-3.38,30.37-3.48,45.67,0,.52,1.87.13,2-.4a302.79,302.79,0,0,0,3.51-44.5c0-.55-1.8-.09-1.92.4-7,28.62-8.07,58.27-9.34,87.58,0,.72,1.8.28,1.93-.27,3.85-16.88,6.89-34.15,7-51.51,0-.5-1.93-.16-1.94.52-.21,21.73-7.94,42.52-8.17,64.23,0,.59,1.77,0,1.93-.4,5.65-15.41,5-32.13,9.34-47.88l-1.92.28c-2.32,20.6-5.75,41.22-4.68,62,0,.64,1.75,0,1.93-.4,4.34-9.25,4.7-19.39,7-29.2l-1.93.4c-.11,11.65-2.29,23.66,1.17,35,.18.62,1.78.07,1.92-.39a80.83,80.83,0,0,0,3.49-23.48,15,15,0,0,1-2,.52v18.68c0,.51,2,.17,2-.51V368.08c0-.51-1.93-.16-1.94.52a79.79,79.79,0,0,1-3.5,23.23l1.92-.39c-3.46-11.38-1.28-23.37-1.17-35,0-.54-1.81-.1-1.93.4-2.3,9.8-2.66,19.95-7,29.2l1.92-.4c-1.06-20.71,2.36-41.26,4.67-61.78.08-.7-1.77-.26-1.92.28-4.3,15.75-3.69,32.47-9.34,47.88l1.92-.4c.23-21.7,8-42.5,8.18-64.23l-1.93.52c-.12,17.27-3.17,34.47-7,51.26l1.93-.27c1.27-29.32,2.32-59,9.34-87.59l-1.93.4a302.28,302.28,0,0,1-3.5,44.26l1.93-.4c.09-15.22,2.18-30.28,3.39-45.43a17.69,17.69,0,0,1-2,.4v35c0,.5,2,.16,2-.52,0-10.1,0-20.2,1.21-30.24l-1.32.63c1.29,0,.13,15,0,17.16-.29,5.88-.55,11.75-.58,17.64l1.94-.52c-.1-10.25-2.61-21.9,2.33-31.41l-1.93.4c-.09,16.38-2.24,32.66-2.33,49l1.93-.51A293.4,293.4,0,0,1,112.69,297l-1.92.39c.09,21.78,3.33,43.9-2.33,65.28l1.92-.4c-.11-16.16-3.65-33.73,3.5-48.93l-1.92.4c4.23,8.08,1.43,19.43,1.17,28.14-.18,6.49,1.28,13.26,1.77,19.74a91.55,91.55,0,0,1-.6,22.07l1.92-.4a31.36,31.36,0,0,1,0-20.9l-1.93.4c0,8.72,1.11,24-6.8,30l1.73-.14c-.07-9-1-18.18,2.33-26.74l-1.93.27c-1.25,9.42-3.58,18.49-8.17,26.86l1.93-.39a112.32,112.32,0,0,1,5.83-33.75c.19-.59-1.72-.3-1.92.27-3.62,10-4.48,26.56-14.81,32.33l1.55.1c2.31-10.36,4.75-20.66,11.61-29.07l-1.86.15c-3.6,10.41-9.23,19.95-12.84,30.36l1.92-.27c1.45-14.8,7.47-28.85,14-42.05l-1.92.28c-1.37,14.63-5.85,28.73-8.17,43.21-.11.67,1.81.3,1.92-.28,4.46-22.88,4.8-46.5,11.68-68.9l-1.93.4c0,22.09,1.39,45.21-5.83,66.44l1.92-.39c-2.2-15.57,0-31.16,0-46.78,0-12.65-1.25-27,5.77-38.23l-1.85.15c-3.35,27.58-2.37,55.33-2.34,83l1.93-.52c-.12-20.94-3.33-41.69-3.53-62.64a162.39,162.39,0,0,1,.74-19.73c.67-6,1.91-14,7.26-17.69l-1.73.15c1.26,16.57-.9,33.19.51,49.72,1.35,16,3.71,32.52-.51,48.25l1.93-.39c0-17.84-1-35.65-1.15-53.48-.15-15.72-2.85-32.83,2.31-48l-1.92.39c2.82,14.11.26,29.69-.41,44-.78,16.86-.76,33.75-.76,50.63l1.93-.52c0-28.76-2.29-57.57,0-86.3.06-.7-1.87-.3-1.92.28Z"/><path class="cls-2" d="M86.3,401.36c3.74,3.11,11.18,2.35,15.62,2.21,4.89-.14,10.48-.4,15-2.42.3-.13.64-.49.07-.49-8.83-.06-17.64-1.06-26.47-1.33-.75,0-6.07.51-1.45.51h19.66c.3,0,2-.46,1.42-.54-9-1.27-18.16-2.19-27.23-1.08-.18,0-1.87.57-1.22.8,10.19,3.51,21.11,2.43,31.7,2.38.38,0,2.21-.74,1.26-.76-8.67-.15-17.22-2.14-25.9-1.15-.12,0-1.71.53-1.33.7,13.07,6,28.23,1.34,41.6-1.15.75-.14,1.72-.93.36-.68-12.93,2.41-27.5,7-40.14,1.19l-1.34.7c6.86-.79,13.64.33,20.46.94,1.13.09,2.25.16,3.38.2l1.24-.72-3.38.05c-3.44.07-6.87.14-10.3.1a67.59,67.59,0,0,1-9.84-.84,37.52,37.52,0,0,1-4.68-1.13l-1.16,0c1.58-.16,3.15-.25,4.73-.27,6.75-.19,13.54.87,20.2,1.8a3.44,3.44,0,0,1,1.43-.57H86.67c-.39,0-2.2.58-1.26.59,6.32,0,12.61.35,18.91.71,3.16.18,6.33.25,9.5.31,2,0-3.54.78-4.06.85-5.66.76-16.82,2.44-21.64-1.58-.39-.32-2.09.42-1.82.64Z"/><path class="cls-2" d="M94,71.46V70.29c0-.49-1.93-.16-1.93.52V72c0,.49,1.93.16,1.93-.51Z"/><path class="cls-2" d="M101.36,49C87,50.68,84,64.23,83.91,76.64l1.93-.51c-2.38-6.93-1.11-14.37,4.49-19.34,7.53-6.67,14,.84,15.77,8.18.15.65,2.09.15,1.93-.52-1.9-8.06-7.76-13.8-16.11-10s-10.78,14.1-8,22.18c.23.69,1.93.15,1.93-.51.07-10.85,2.1-24.55,15.25-26.08.92-.11,1.61-1.2.27-1Z"/><path class="cls-2" d="M107.15,52.18c3-.94,3.6,2.37,3.62,4.61,0,.35,1.93.05,1.93-.52,0-1.53-.16-3.27-1.31-4.4s-3.09-.74-4.41-.32c-.17.05-1,.26-.88.57s.88.11,1.05.06Z"/><path class="cls-2" d="M108,51.53c-.43-.49-1.18-2.18-2-2.31a11.67,11.67,0,0,0-1.77-.09c-.39,0-2.22.76-1.26.79,4.51.12,8.83,3.31,9,8,0,.33,2,0,1.93-.52-.19-5.07-5-8.17-9.68-8.31l-1.26.79a3.29,3.29,0,0,1,1.65.19c.58.33,1.1,1.54,1.57,2.08.32.36,2.11-.32,1.82-.66Z"/><path class="cls-2" d="M94.77,55A8.54,8.54,0,0,0,92,66.8,5.73,5.73,0,0,0,99.17,69c2-.84,3.8-3.08,3.62-5.31-.24-3-4-3.29-6.3-3.1-.32,0-1.27.27-1.27.71V66c0,.34.65.86,1,.86h2.34c.37,0,1.69-.53,1.69-1.07V63.44c0-.58-.9-.54-1.3-.46a2.42,2.42,0,0,0-1.31.59c-.25.31-.87,1.69-1.16,1.75-1.2.25-.9,1.35.27,1.11a2.1,2.1,0,0,0,1.21-.59c.26-.3,1-1.68,1.27-1.75-.38-.15-1-.3-1-.45V66c0-.24.58-.14,1-1.14H96.91c.2,1,.31.76.31.93V61.1c0,.24-.57.47-.93.71,1.79-.15,4.14,0,4.48,2.19.24,1.56-1,3.17-2.19,4-1.85,1.17-3.75-.54-4.82-1.94-2.3-3.05-1.1-8.37,2.23-10.3,1.13-.65-.53-1.1-1.22-.69Z"/><path class="cls-2" d="M85.06,64.78c-1.1,5.43-2.25,10.79-2.33,16.35,0,1,1.94.72,2-.15.08-5.56,1.24-10.92,2.34-16.35.19-.95-1.78-.7-2,.15Z"/><path class="cls-2" d="M85.24,80.8c-1,1-1.35,2.47-2.33,3.51a.5.5,0,0,0,.23.87,1.4,1.4,0,0,0,1.37-.37c1-1,1.35-2.46,2.33-3.5a.5.5,0,0,0-.23-.87,1.41,1.41,0,0,0-1.37.36Z"/><path class="cls-2" d="M82.68,85.08A69.37,69.37,0,0,1,97.35,82.8c.74,0,2.06-1.15.74-1.15a66.63,66.63,0,0,0-14.52,1.16c-.65.14-1.29,1-.23,1H99.69a5.08,5.08,0,0,0,.23-1C91.22,85.3,80.47,81,72.59,86.55c-.23.15-.62.64-.16.81,10.65,4.13,20-3,30.76-2.3.25-.39.49-.22.74-1.22H88.74c-.31,0-2,.76-1.13,1.13,5.07,2.08,9.73,1.35,14.92.07.64-.16,1.29-1.05.23-1.08-4.87-.12-9.4-.89-13.82,1.44-.18.1-.56.5-.29.71,1.67,1.26,3.07,1.34,5.2,1.36.76,0,2-1.14.73-1.15-4.09,0,1.11-1.46,2.25-1.43,1.73,0,3.46.2,5.19.25.08-.37.16-.73.23-1.1-4.6,1.14-8.49,1.78-13.11-.11-.38.35-.75.91-1.13.91h15.18c.73,0,2.08-.92.74-1a35.24,35.24,0,0,0-11.22,1.39C89.81,86,87,86.88,84,87.43a22.72,22.72,0,0,1-4.28.31c-1.53,0-8.53-.27-2.71-2.11,7.43-2.33,15.63.44,23.15-1.72.61-.17,1.32-1.07.23-1.07H84.07a5.69,5.69,0,0,0-.23,1.08,61.8,61.8,0,0,1,13.51-1.11l.74-1.16A75.08,75.08,0,0,0,82.4,84c-1.18.29-.89,1.32.28,1Z"/><path class="cls-2" d="M74.9,89.6c5.18-.07,10.33-.59,15.49-1a6.42,6.42,0,0,0,5.08-.9c-1.1,0-2.19.09-3.29.15a27.87,27.87,0,0,1-11.07-1.3l-1.71.67a48.94,48.94,0,0,0,7,1c.64,0,1.28.09,1.92.1l1.75,0a3.46,3.46,0,0,0,3.17-.71,65.38,65.38,0,0,0-14,1.21c-.13,0-1.6.52-1,.68,8.34,2.18,16.43-3.17,24.69-3.49.36,0,2.17-.78,1.26-.74-4.36.17-8.47,1.34-12.65,2.52-1.38.4-2.78.75-4.18,1.06-2.33.53-4.69-.22-6.92.27,4.27-.93,8.8-.77,13.14-.78.37,0,2.19-.73,1.27-.73A64.27,64.27,0,0,1,81,86.54c-.42-.09-1.89.61-1.71.68,5.55,1.93,10.86,1.31,16.63,1.21.37,0,2.19-.75,1.26-.73-7,.1-14,1.06-21,1.16-.37,0-2.18.75-1.26.74Z"/><path class="cls-2" d="M77.22,96.34v22.19c0,.9,1.77.52,1.78-.2.13-9.69,2.32-20-1.25-29.36-.29-.74-1.82-.27-2,.36-2.16,8.45-1.26,17.08-1.19,25.7,0,.9,1.8.51,1.93-.21,1-5.81,1.29-11.71,2.33-17.52l-1.94.21c-.13,5-.77,9.45,1.17,14.17.31.75,2.22.18,1.93-.52-1.87-4.56-1.29-9-1.16-13.86,0-.9-1.82-.5-2,.21-1,5.81-1.29,11.71-2.33,17.52l1.94-.21c-.07-8.61-1-17.24,1.17-25.69l-1.94.36c3.54,9.24,1.48,19.44,1.36,29,.65-.07,1.13-.14,2.13-.2V96.14c0-.9-2-.53-2,.2Z"/><path class="cls-2" d="M81,116.7c7.6.06,16,1.26,22.95-2.48.41-.22.93-.84.18-1-1.2-.31-2.3-.85-3.51-1.16-.69-.18-2.28.85-1.15,1.14s2.29.86,3.5,1.17l.18-1c-6.49,3.48-14.35,2.26-21.43,2.2-.8,0-2,1.2-.72,1.21Z"/><path class="cls-2" d="M80.81,116.73c7.6,2.31,15.83,1.17,21.22-5,.8-.92-1.06-1.18-1.61-.54-4.75,5.47-11.83,6.33-18.49,4.3-.8-.24-2.28.93-1.12,1.28Z"/><path class="cls-2" d="M82.8,116.43c4.56,2.67,10.67,1.3,15.68,1.24.54,0,2.11-.84.82-.82-4.68.05-10.44,1.39-14.69-1.09-.49-.29-2.11.49-1.81.67Z"/><path class="cls-2" d="M77.26,118.88c6.25,1.24,12.53,2.35,18.51,4.64l1.39-.88c-2-.25-3.81-1-5.84-1.17-.49,0-2.24.84-1.22.92,2,.15,3.86.91,5.84,1.16.33,0,2.16-.58,1.39-.87-6.08-2.33-12.49-3.45-18.85-4.71-.51-.1-2.26.71-1.22.91Z"/><path class="cls-2" d="M85.07,123.36c.46,4.86,5.46,4.28,8.67,2.42a9,9,0,0,1-1.52-.24v4.67c0,.89,2,.52,2-.21v-2.33c0-.84-1.5-.49-1.86-.11-1.36,1.45-2.25,3.21-3.55,4.67-.72.82.69.85,1.16.68,4.17-1.54,6.38-4.53,7.56-8.75.22-.75-1.32-.46-1.59-.24-1.12.89-2.39,1.45-3.5,2.34l1.4.55c2.28-2.53,2.51-5.17,2.52-8.49l-1.09.71c2.88-.26,5.32-2.08,8.17-2.34,1-.09,1.56-1.32.23-1.2-2.88.26-5.31,2.08-8.17,2.34-.32,0-1.09.27-1.09.7,0,3-.07,5.55-2.15,7.86-.76.84.92.94,1.4.56,1.13-.89,2.39-1.45,3.51-2.34l-1.59-.24c-1,3.64-2.79,6.26-6.44,7.61l1.19.67c1.3-1.47,2.22-3.22,3.58-4.67-.59,0-1.69-.07-1.69-.11v2.34c0,.89,2,.52,2-.21v-4.67c0-.79-1.29-.47-1.69-.24-3.9,2.25-5.23.28-5.47-2.25-.07-.74-2.06-.3-2,.52Z"/><path class="cls-2" d="M103.76,87.15c1.58,3.58,1.45,7.9,2.34,11.68.2.86,2.13.35,1.93-.51-.89-3.79-.76-8.11-2.34-11.68-.36-.83-2.27-.26-1.93.51Z"/><path class="cls-2" d="M92.08,89.49a71.28,71.28,0,0,1-2.33,16.1c-.08.32.37.25.57.25h3.51c.42,0,1.35-.09,1.35-.64,0-3.62-.53-6-3.57-8.22-.52-.38-2.26.42-1.8.76,3,2.16,3.43,4.49,3.44,8,.45-.25.9-.86,1.35-.86H91.1c.19,0,.38.36.57.48A72.2,72.2,0,0,0,94,88.91c0-.51-1.92-.12-1.93.58Z"/><path class="cls-2" d="M88.92,90c-4.24,3.1-9.79,15.84-.89,16.22.87,0,2-1.25.69-1.3-7.18-.31-1.78-11.77,1.45-14.14,1.06-.78-.54-1.31-1.25-.78Z"/><path class="cls-2" d="M122.53,53.46a7.59,7.59,0,0,1,2.24,4.31c0,1,2,.73,2-.14a8.47,8.47,0,0,0-2.44-5c-.61-.64-2.44.15-1.76.86Z"/><path class="cls-2" d="M122.45,54.46a22.9,22.9,0,0,1-2.79,20.91c-2.72,3.73-6.15,6.95-6.56,11.78l1.93-.51c.28-6.76,3.3-12.47,5.83-18.59l-1.92.42c-.34,3.73-2.07,6.43-4.58,9.14-.45.48,1.42.24,1.76-.11,5.06-5.35,14.54-21.33,5.86-27.15-.32-.21-2.12.23-1.87.6,5.66,8.44,7.42,22.15.09,30.16-.45.48,1.42.26,1.75-.11,7.45-8.13,5.86-22,.09-30.56l-1.87.59c8.4,5.63-.9,21.38-5.81,26.58l1.76-.11c2.57-2.77,4.4-5.71,4.75-9.55,0-.41-1.76,0-1.92.42-2.56,6.18-5.57,12-5.85,18.78,0,.37,1.89.08,1.93-.51.5-6,5.94-10,8.77-15s2.32-12.6.58-17.68c-.18-.51-2.09.07-1.93.52Z"/><path class="cls-2" d="M117.46,78.18c2.55-.24,4.24-2.74,5.67-4.59,2.25-2.91,4.79-7.34,8.61-8.31l-1-.8C128.54,67,127,71,128.28,74.31c.32.78,2.23.21,1.94-.52-1.19-3,.12-6.6,2.16-8.86.61-.68-.43-.93-.95-.8-3,.76-5.17,3.06-7.08,5.38-1.11,1.34-2.12,2.75-3.18,4.12-.76,1-2.12,3.17-3.49,3.3-1,.09-1.54,1.37-.22,1.25Z"/><path class="cls-1" d="M84.17,190.58c1-1.83.88-4.11.07-6.52a45.05,45.05,0,0,0-4.41-15.38c-.6-1.26-3.45-3.1-3.34-.53,0,.47.07.93.11,1.4l-.35-.14a24.5,24.5,0,0,0-2.4-3.69c-.52-.66-2.82-2.36-3-.46-.09,1.07-.15,2.14-.16,3.2a1.06,1.06,0,0,0-.64.82,14.61,14.61,0,0,0-.28,2.68c-.32,2.87.68,6.37,1.32,8.68.06.21.14.41.2.62a16,16,0,0,0-2.51-.81.93.93,0,0,0-1,.45l-.69,1.39a33.79,33.79,0,0,0-3.91-1c-1.34-.28-1.21,1-.85,2.05a27.59,27.59,0,0,0-4-.45c-2.1-.08-.78,2.75,0,3.5.27.24.55.46.83.68a3,3,0,0,0,.92.78l.2.09a20.82,20.82,0,0,0,8.24,3.6,29.36,29.36,0,0,0,8.87,2.07h.2a2.48,2.48,0,0,0,1.91.73,1,1,0,0,0,1.31-.37c.18-.25.33-.5.49-.76a6.6,6.6,0,0,0,2.4-2A.77.77,0,0,0,84.17,190.58Zm-8.89-11.82a19,19,0,0,1,.07-2c.22.87.46,1.75.72,2.62.1.8.17,1.61.23,2.42a21.09,21.09,0,0,1-1-3Z"/><path class="cls-1" d="M83.21,238.26c0-.88,0-1.77,0-2.66,0-.74-1-1.06-1.74-1.18-.83-1-4.12-1.43-4.77,0a14.09,14.09,0,0,0-1.37,8.53c-.22,1-.47,2.08-.69,3.13-1.28-.39-2.57-.74-3.88-1.07a5.4,5.4,0,0,0-.74-.14l-1.16-.47c-1.18-.46-6.12.09-3.57,1.63,3,1.81,6.63,2.2,9.63,4a5.32,5.32,0,0,0,3.22.26l.28.07c1,.22,4.78-.85,2.47-2-.25-.12-.51-.21-.77-.33,1,0,2-.28,2.19-.9A17.4,17.4,0,0,0,83.21,238.26Z"/><path class="cls-1" d="M157.35,192.66c.67-1.59-1.83-4.53-3.45-3.27-.28.22-.56.42-.85.62a4.13,4.13,0,0,0-.66.11,1.46,1.46,0,0,0-2,.43,33.9,33.9,0,0,0-2.13,3.49,12.52,12.52,0,0,0-1.42,2.77c-.26-.12-.52,0-.78,0h-1.58a1.47,1.47,0,0,0-1.63-1H142a1.36,1.36,0,0,0-1.54,1.28,17.87,17.87,0,0,0-1.5-2,2.88,2.88,0,0,0-3-2.63c-.29-.19-.59-.4-.9-.58-1.05-.6-2.09-.35-2.46.63a1.75,1.75,0,0,0-.68,2.56l.55,1c.51,5.77,4,10.63,8.74,14.08a1.64,1.64,0,0,0,2.47-.55,1.38,1.38,0,0,0,1.73-1.49c0-.35,0-.7.05-1a1.59,1.59,0,0,0,2.09-.38,20.57,20.57,0,0,0,1.65-2.1,10.3,10.3,0,0,0,6.18-5.79,19.51,19.51,0,0,0,1.79-2.54,2.43,2.43,0,0,0-.2-2.57C157.08,193.35,157.21,193,157.35,192.66Z"/><path class="cls-2" d="M141.66,211.73c-4-3.46-7.77-9.93-9.42-14.88-2.58-7.75,8.95-.9,11.14.75a1.26,1.26,0,0,0,1.55-.28c.79-1.13,1.51-2.3,2.24-3.47,2-3.26,7.92-8.6,10.53-2.36,1.3,3.1-3.81,7.57-5.56,9.47-2.3,2.48-4.66,4.91-6.95,7.39-.76.82-3,2.66-3,4a.59.59,0,0,0,.42.57l.11,0c.8.33,2.25-.82,1.12-1.29,1,.42,7.22-7.31,8.45-8.61,2.45-2.6,6.76-6.08,7.27-9.92.56-4.14-3.48-6.4-7.25-5.9-4.48.59-6.79,6.36-9,9.56l1.55-.28c-2.44-1.83-11-8-14.1-4-2,2.59,0,6.28,1.16,8.79a36.93,36.93,0,0,0,8.24,11.53c.64.55,2.33-.38,1.49-1.11Z"/><path class="cls-2" d="M85.13,194.86c-4.14-.22-7.73-1.77-11.74-2.51-2.74-.51-5.49-.88-8.2-1.57-3.18-.81-7-2.35-6.88-6.18.12-4.42,8-3.16,10.62-2.25.45.16,1.46-.12,1.56-.66.53-3-.44-5.45-1.31-8.27-1.31-4.27,3.26-7.69,7.55-6,2.4,1,3.93,3.64,4.87,5.87,2.83,6.72,3,15.06,3,22.23,0,.85,1.94.45,1.94-.22a102.23,102.23,0,0,0-1.2-15.53c-.68-4.23-1.89-10.1-5.88-12.58A8.47,8.47,0,0,0,69,167.9c-4.61,3.87.43,9.1-.46,14l1.55-.67c-4.19-1.47-16.74-1.35-13.23,6.39,1.55,3.44,7.32,4.36,10.49,5,5.62,1.12,11.33,3.09,17,3.39.78,0,2-1.09.74-1.16Z"/><path class="cls-2" d="M83,251.93a58.89,58.89,0,0,1-12.85-4.25,25.7,25.7,0,0,1-5.66-3.26,57.93,57.93,0,0,1,5.92-.52c1.46,0,2.91.13,4.37.15.38,0,1.39-.21,1.36-.74-.09-1.82-.59-3.59-.77-5.4s.68-6.33,4.63-4c1.12.67,2,2.68,2.31,3.84,1.31,4.87-3.18,10.09-.88,14.86.28.59,2.15-.05,1.93-.51-1.78-3.69.57-8.51,1-12.34.23-2.22-.92-6.86-3.78-7.07-2.41-.18-4.88.21-6.46,2.21-1.83,2.32,0,6.32.11,8.89l1.36-.74c-4.24-.06-9.09-1-13,1.07-.16.08-.55.36-.32.57,4.93,4.52,13.1,7,19.55,8.13.52.1,2.26-.74,1.21-.93Z"/></svg>