<svg id="layer1" xmlns="http://www.w3.org/2000/svg" viewBox="0 0 362.28 244.3"><defs><style>.cls-1{fill:#b9c1c0;}.cls-2{fill:#492d0c;}</style></defs><path class="cls-1" d="M292.07,36,274,49.26c-14.24,4.24-26,14.55-36.5,25.35-1.21,1.25-2.42,2.54-3.61,3.83-10.12,7.53-19.43,16-28.76,24.46-1.69-.15-3.38-.24-5.08-.34a3.32,3.32,0,0,0-.12-3.22c1.47-1,2.93-2,4.36-3.06a3.17,3.17,0,0,0,1.38-3.22,123.66,123.66,0,0,1,13.8-6.27c4.23-1.61,1.72-8.15-2.5-6.55a137.05,137.05,0,0,0-27.35,14.29c-13.59,6.09-25.84,14.8-37.78,23.86-6.55,3.35-12,8.08-17.24,13.15l-2,1.45a3.41,3.41,0,0,0-1.27,1.74c-1.86,1.86-3.7,3.72-5.58,5.56a4.14,4.14,0,0,0-2.57,2.46l-.59.55c-3.43,2.82-6.86,5.62-10.41,8.26a3.33,3.33,0,0,0,0,5.46c-2.59,2.51-5.16,5-7.74,7.55a2.79,2.79,0,0,0-.89,1.75,21,21,0,0,0-2.91,2.83c-2.54,3,1.69,7.41,4.81,5,1.35-1,2.62-2.17,3.87-3.32-.14.79-.32,1.58-.53,2.36a29.11,29.11,0,0,0-1.72,4.91c-.63,2.61,1.68,4.09,3.83,3.86-.33,1.55-.73,3.15-1,4.84a3.08,3.08,0,0,0,1,3A92.25,92.25,0,0,0,97.57,195a3,3,0,0,0-2.06-.31,3.62,3.62,0,0,0-3.41.32c-2.38,1.45-7.57,2-9.15,4.64-1.28,2.14-.66,4.83,1.86,5.54a3.84,3.84,0,0,0,2.42,2.32,3.39,3.39,0,0,0,2.7,3.42l-.22.17c-2,.87-4,1.77-5.95,2.73-4,2-1.65,8.43,2.49,6.55,13.22-6,27.41-9.46,40.63-15.47a3.47,3.47,0,0,0-1.68-6.67,3.61,3.61,0,0,0-2.52-2.5c.56-.08,1.12-.15,1.69-.18,2.44-.13,3.47-2.66,2.9-4.73a52.43,52.43,0,0,0-1.64-5,23,23,0,0,0,3.2,1.66,3.09,3.09,0,0,0,1.94.91l.39,0,.85.72a2.94,2.94,0,0,0,4.1.1c.53.05,1.07.08,1.62.1a2.68,2.68,0,0,0,2.23-1.08c28.41-5.84,48.37-31.1,66.4-51.88,11.68-13.47,23.38-26.52,36.35-38.79S269,73.23,280.79,59.73a3.22,3.22,0,0,0,.7-1.29,2.59,2.59,0,0,0,.41,0c7,0,13.86-.92,20.82-.94,4,0,4-6.41.17-6.94-.91-.12-1.82-.21-2.73-.3a3.44,3.44,0,0,0-3.06-1.51c-1.08.07-2.15.2-3.22.34a2.72,2.72,0,0,0-.1-.57,3.5,3.5,0,0,0-.26-4.94l2.69-2A3.51,3.51,0,1,0,292.07,36ZM191.61,109.7c.42.93,1.19,2.58,1.71,4-.27.23-.6.38-.87.61a3.65,3.65,0,0,0-1,1.84c-1.33-1.18-2.93-3-3.63-3.69Zm-72.17,79.5-.35.09a2.87,2.87,0,0,0-2.45-.8,4.17,4.17,0,0,0,.18-.63c.21-1.17.43-2.28.65-3.37A46.7,46.7,0,0,1,119.44,189.2Zm13-41.64.33-.3c.17.6.35,1.2.55,1.79Zm21.27,19.69c-.15-.75-.31-1.49-.49-2.22.91.4,1.86.75,2.83,1.08Zm-7.45-26.45c-1-.9-2-1.76-3.08-2.6l1-.83a2.6,2.6,0,0,0,.16.34C144.92,138.75,145.57,139.78,146.22,140.8Zm24.13,14.08a35.91,35.91,0,0,1-4.8-3q-1.38-2-2.81-3.92a43.77,43.77,0,0,0,6.54,4.48C169.65,153.26,170,154.07,170.35,154.88Zm8.36,2.12-.27-.77.86.19Zm-.28-37.63,3-2.24a102.64,102.64,0,0,1,6.61,14.06A51.44,51.44,0,0,0,178.43,119.37Zm26.31,8.23c-2.62,3-5.26,6.06-8,9.23a61.29,61.29,0,0,0-2-7.16,3.73,3.73,0,0,0,3.38-.21c.48-.29,1-.59,1.42-.89a3.65,3.65,0,0,0,4.38-3,99,99,0,0,0,11.51-10.24l.82-.59C212.41,119,208.58,123.26,204.74,127.6Zm26.53-35.81c2.08-2.41,4.16-4.81,6.28-7.14l1.37-1.38a3.23,3.23,0,0,0,.54-.72c9.59-10.41,21-21.36,34.47-26.28C259.12,67.39,245.25,79.67,231.27,91.79Z"/><path class="cls-2" d="M91.86,176.86c2.27-2.11,3.93-5.08,5.69-7.61,3.38-4.85,6.53-9.8,10.35-14.32,7.81-9.27,17.32-17,26.09-25.31,19.14-18.1,40.3-33,63.25-45.83,21.36-12,43.55-22.54,65.92-32.48,18.57-8.25,37.46-17.91,49.41-35l-1.92.42c5,10.41-8.84,19.12-14.47,26.09-.19.24,0,.36.26.38,6.74.48,11.84,3.58,17.09,7.56l2.71,2.12c3.73,2.91-4.59,6.55-5.3,6.7-2.84.59-6.08-.08-8.91-.47-8.15-1.14-15.93-.91-23.65,2.13-1.27.5-.07.82.69.52,9.54-3.76,17.93-1.67,27.72-1.17,5.68.28,10.18-2,12.75-7.09,0-.08,0-.14-.05-.18-4.08-3.19-8.22-6.93-13.07-8.94a22.62,22.62,0,0,0-5.63-1.71c-4-.54-.25-3,1.33-4.59,5.47-5.62,14.71-13.08,10.46-21.87-.27-.55-1.68.08-1.92.42-13.3,19-35.2,28.5-55.76,37.47a651.83,651.83,0,0,0-66.38,33.67,295.46,295.46,0,0,0-56.29,41.93c-8.36,8-17.27,15.44-25,24.08-3.56,4-6.35,8.31-9.4,12.64-2.43,3.46-4.59,7.63-7.71,10.53-.46.42,1.4.23,1.76-.11Z"/><path class="cls-2" d="M102.11,163.57c13.59,5.25,25.39,22,23.2,36.67-.13.87,1.83.55,1.94-.2,2.28-15.23-9.94-32.2-24-37.63-.7-.27-2.26.73-1.15,1.16Z"/><path class="cls-2" d="M95.49,184.74c.52,4.48,4.86,5.35,8.36,3.36,3.83-2.19,3-7-.77-8.7-3.31-1.51-7.37.59-9,3.58-2.4,4.35,2.13,7,5.85,7.57.68.11,2.28-1,1.16-1.14-2.86-.47-6.47-1.93-5.55-5.46.59-2.28,3.15-4.25,5.52-3.72,2.92.65,4.62,4.35,2.39,6.58a3.88,3.88,0,0,1-3.58,1.05c-1.65-.4-2.26-2.15-2.43-3.64-.09-.73-2-.28-1.93.52Z"/><path class="cls-2" d="M115.8,159.25c2.11-1.94,6.26-5.53,9.11-2.76,2,1.93.62,6,0,8.21-.21.69,1.09.51,1.37.39,3.93-1.75,7.18-.82,8.63,3.16.72,2-.22,4.16.27,6s3.19-.11,3.87-.14c1,0,1.54-1.32.21-1.25-2.52.12-2.05,1.35-1.94-1.55a10.25,10.25,0,0,0-1.89-6.33c-2.32-3.3-6.95-2.2-10-.86l1.38.39c1-3.48,2.09-8.52-2.2-10.09-3.66-1.34-8,2.19-10.42,4.39-.86.8,1,.95,1.59.45Z"/><path class="cls-2" d="M130.23,147c5-3.16,7.81-.1,9.55,3.52.24.51.93.5,1.38.28,5.52-2.76,7.69,2.85,10,6.67a16.07,16.07,0,0,0,7.42,7c.78.33,2.25-.78,1.13-1.26-7.68-3.27-9.1-18.61-19.4-13.47l1.39.28c-2.68-5.59-7.5-7.14-12.75-3.82-1.11.7.51,1.3,1.27.82Z"/><path class="cls-2" d="M147.85,132.13c5.46-1.83,8.29,3.05,9.24,7.42.12.59,1.48,0,1.72-.15,5.53-3.72,8.38-.9,9.42,3.82.13.56,2.07.08,1.94-.52-1.59-7.2-7.66-7-12.88-3.51L159,139c-1.35-6.22-5.71-9.61-11.89-7.54-1.3.43-.09.92.72.64Z"/><path class="cls-2" d="M91,176c-4.46,5.29-7.18,12.1-9.63,18.5-2.25,5.9-4.24,12.83-2.78,19.13.1.41,2-.07,1.93-.51-1.47-6.36.6-13,2.76-19,2.27-6.3,5.13-13.16,9.46-18.31.38-.46-1.45-.19-1.74.15Z"/><path class="cls-2" d="M77.67,216.81c8.4,4.46,21.6.59,30-2.28,13.16-4.52,24.4-12.12,35.88-19.8,8.64-5.77,17.27-11,25.42-17.44a301.23,301.23,0,0,0,24.41-21.43c11.52-11.39,21.28-24.77,31.54-37.26C237,103.82,249.18,89,262.44,75.15c4.06-4.22,9.32-10.89,15.14-12.75,1.11-.35.93-1.11-.2-.75-3.88,1.24-7.07,4.29-10,7a229.47,229.47,0,0,0-16.5,17.23c-13.08,14.68-25.46,30-37.92,45.2-11.29,13.77-22.54,26.67-36.12,38.3-7.27,6.23-14.76,12.65-22.92,17.68-12.52,7.72-24.36,16.89-37.67,23.21a83.2,83.2,0,0,1-18.64,6.16c-5.5,1.15-13,2.43-18.12-.3-.53-.29-2.17.51-1.81.7Z"/><path class="cls-2" d="M79.13,215.4c2.65-2.58,8.59-3,12.14-4.6,3.22-1.45,6.59-3.74,7.77-7.2.13-.37-1.73-.15-1.9.34-1.74,5.09-8,7.7-13,8.33a11,11,0,0,0-6.78,3.28c-.41.4,1.41.17,1.74-.15Z"/><path class="cls-2" d="M171.11,118.45a3.83,3.83,0,0,0,1.11,2.49c.38.53,2.25-.12,1.79-.75s-1-1.25-1-2-1.87-.4-1.93.24Z"/><path class="cls-2" d="M179.94,124.1c2.6,5,7.37.73,10.9,3.23,4.52,3.19-3.19,10.6.39,13.8.43.38,2.2-.35,1.81-.69-3.29-2.95,3.55-9.77,0-13.46-3.16-3.24-8.63,1.34-11.11-3.4-.29-.54-2.14.13-1.94.52Z"/><path class="cls-2" d="M195.38,91.2a2,2,0,0,0,2.48,1.94c4.28-.27,6.07,2.38,6.61,6.37,0,.25.66.16.8.13,1-.21,2.07-.47,3.1-.75,3.59-1,3.92,1.27,3.9,3.89,0,.26.69.15.79.14,2.44-.35,5.68-1.27,6,2,.25,2.67-1.06,5.53-2.44,7.74-.18.28,1.6.17,1.91-.32,1.45-2.33,4.36-8.47,1.22-10.63a4.41,4.41,0,0,0-2.76-.19c-1.32.2-2.79,1.2-2.78-.7,0-.7-.17-2.1-.83-2.58-2.22-1.63-6.66,1.52-7.36-1.14-.31-1.19-1.47-4.56-2.91-5-1.6-.46-5.35.83-5.8-1.48-.09-.46-2,0-1.93.52Z"/><path class="cls-2" d="M220.56,87.06c3.76-1.61,5.78-.11,8,2.77.3.4,1.17.13,1.49-.08,2.79-1.8,2.77,1.69,2.75,3.25,0,.8,1.41.36,1.74,0a5,5,0,0,0,1.57-2.49c.2-.72-1.75-.44-1.93.23A3.11,3.11,0,0,1,233,92.71l1.74.06c.06-4.29-2.12-6-5.88-3.62l1.5-.08c-2.94-3.87-6.07-4.75-10.54-2.83-1.23.53-.1,1.19.78.82Z"/><path class="cls-2" d="M239.59,75.37c.71-.43,1.65-1.23,2.29-.36a3.74,3.74,0,0,1,.52,1.57,14.48,14.48,0,0,0,.95,4c.11.22.6.14.78.1,1.57-.35,2.83-.94,3.19-2.64.09-.43-1.81-.13-1.91.34s-.3,1.45-.92,1.58l.79.1c-.87-1.75-.4-4.15-1.57-5.72s-4.4.23-5.6,1c-.81.5,1.14.27,1.48.06Z"/><path class="cls-2" d="M252.33,66.27A33.2,33.2,0,0,1,255.59,64c.76-.41,1.25.61,1.65,1.16s1.08,2.21,1.94,2.22a4.33,4.33,0,0,0,2.82-1c1.07-.76-.55-1.22-1.24-.73s-.75.15-1.25-.57c-.3-.43-.6-.86-.92-1.28A2.73,2.73,0,0,0,257,62.62c-2.1-.43-4.38,1.82-5.88,2.92-1.06.78.56,1.23,1.24.73Z"/><path class="cls-2" d="M286.38,52.6c7.31-3.05,15.79-2.07,23.3-.31.67.16,2.28-.85,1.16-1.12-8.21-1.93-17.28-2.79-25.25.54-1.24.52-.11,1.27.79.89Z"/><path class="cls-2" d="M288.91,48.14c3.88-1.69,10.27-1,14.21.22.44.13,2.14-.57,1.59-.73-5-1.48-12-1.85-16.91.27-1.17.51.66.43,1.11.24Z"/><path class="cls-2" d="M287.4,47.16a32.35,32.35,0,0,0,11.14-4.46c1.07-.75-.49-1.52-1.3-1-3,2.11-6.67,3.17-10.22,4-1.21.29-.83,1.69.38,1.4Z"/><path class="cls-2" d="M285.75,44.89c4.25-3.21,9.53-9.85,15.37-9.33,1,.09,2-1.37.65-1.48-6.91-.62-12.34,6.08-17.32,9.85-1,.79.5,1.57,1.3,1Z"/><path class="cls-2" d="M283.48,56.78c8-1,16.19-.73,24.19-2.16.89-.15,1.63-1.23.29-1-8,1.42-16.15,1.13-24.19,2.16-.91.11-1.63,1.17-.29,1Z"/><path class="cls-2" d="M150.48,191.42c2.19-1.75,4.65-1.87,7.2-2.41,1.61-.34,3.32-1.65,4.74-2.49,4.66-2.78,8.74-6.45,13.38-9.3,4.48-2.75,9.11-5.56,13-9.14,4.43-4.08,7.79-9.11,12.25-13.15,1-.9-.52-1.39-1.27-.86-4.54,3.21-9.19,6.45-14.28,8.71-1.22.54-.14,1.54.84,1.11,5.26-2.34,10-5.65,14.71-9l-1.27-.86a115.23,115.23,0,0,0-9.2,10.05c-4.06,4.67-9.36,8.07-14.56,11.33-4.66,2.93-9,6.21-13.5,9.33-4.17,2.88-9.44,2.71-13.3,5.79-1,.81.53,1.43,1.27.85Z"/><path class="cls-2" d="M174.85,175.6c3.89-2.89,7.52-6.09,11.41-9,.39-.29-1.39-.07-1.74.17a50.14,50.14,0,0,1-6.49,3.61h1.42a22.68,22.68,0,0,0,5.74-5.44c.11-.16-1.59-.11-1.9.35a22,22,0,0,1-5.58,5.27c-.46.34,1.21.12,1.42,0a55.21,55.21,0,0,0,7.13-4l-1.74.17c-3.89,2.89-7.52,6.09-11.41,9-.38.28,1.38.09,1.74-.17Z"/><path class="cls-2" d="M120.23,140.27c4.42-3,7.38-7.3,10.49-11.58,4.67-6.42,10.29-11.81,15.9-17.37.81-.79-1.11-.64-1.53-.27a13.22,13.22,0,0,0-4.15,8c-.14.76,1.49.22,1.74,0,3.2-2.75,4.82-6.75,8-9.49l-1.67.24c4.24,2.87,9.68-4.69,12.38-6.89l-1.67-.14a3.19,3.19,0,0,0-.66,1.77c-.11.52.83.38,1.08.32a20.06,20.06,0,0,0,6.4-2.74l-1.36-.4c-11.07,8.16-22,16.5-33,24.85a77.63,77.63,0,0,0-10.95,10.57c-1.59,1.8-5.74,4.5-6.32,6.95-.16.68,1.78.37,1.93-.25.55-2.33,4.51-4.91,6.18-6.69a101.57,101.57,0,0,1,13.24-12.23c10.16-7.61,20.2-15.39,30.43-22.92.85-.63-1-.67-1.36-.4a13.57,13.57,0,0,1-5.46,2.36l1.09.32c.17-.5.35-1,.53-1.5.49-.82-1.38-.38-1.67-.14-1.56,1.27-6.88,7.88-9,6.41a1.54,1.54,0,0,0-1.66.24c-3.2,2.74-4.83,6.74-8,9.48h1.73c.55-2.88,1.48-5.41,3.75-7.43l-1.53-.27c-4.18,4.13-8.49,8.08-12.24,12.6-4.46,5.39-7.94,12.08-13.8,16.1-1.08.74.6.92,1.18.52Z"/><path class="cls-2" d="M95.39,183.56c.08,2.95,3.33,3.35,5.67,3,.31-.05,1.09-.27,1.08-.72-.09-2.8-4-5.39-6.06-2.62a1.94,1.94,0,0,0,.38,2.95,4,4,0,0,0,3.93.28c1.06-.47,2.27-2,1.57-3.19s-2.52-1.17-3.65-.73-2.73,2-1.87,3.37c1,1.58,3.25,1.42,4.74.8.32-.13.76-.5.49-.87a3,3,0,0,0-1.16-1.15,5.19,5.19,0,0,0-2.22-.16c-.4,0-1.4.47-1,1l.57.78a.89.89,0,0,0,.78.21l1.07-.18c.38-.07,1.42-.44,1-1l-.29-.39c-.34-.48-1.36-.18-1.68.18-1,1.17.56,1.49,1.48,1.08.29-.13.79-.52.49-.87s-.94-.24-1.3-.08l-.21.09,1-.1c0,.1.09.21.14.31l-1.68.19c.1.12.19.26.29.38l1-1-1.07.18.78.22-.57-.78-1,1a3,3,0,0,1,1,0c.33.14.58.6.78.88.16-.29.32-.59.49-.88a1.65,1.65,0,0,1-2.17-.69,1.24,1.24,0,0,1,1-1.56c1.45-.18,1.19,2.1,0,2.08s-2-1-1.4-2.06c.29-.48,1,.12,1.34.38A3.09,3.09,0,0,1,100.2,186l1.08-.71c-1.56.24-3.89.12-4-2,0-.91-2-.53-1.94.2Z"/></svg>