<svg id="layer1" xmlns="http://www.w3.org/2000/svg" viewBox="0 0 453.45 413.22"><defs><style>.cls-1{fill:#93591f;}.cls-2{fill:#704722;}.cls-3{fill:#9bd1dd;}.cls-4{fill:#492d0c;}</style></defs><path class="cls-1" d="M346.7,342.07c-.23-1-.3-2.07-.49-3.09a3.74,3.74,0,0,0-.17-.62c0-6.95-1.71-13.25-9.45-16-1.88-.68-4,0-4.47,2.18a5.24,5.24,0,0,0-.1,1.1s0,0,0,0a18.06,18.06,0,0,1-1.35,2.59,2.81,2.81,0,0,0-1.5.51,73.22,73.22,0,0,0-7.19,5.83,68.59,68.59,0,0,0-11.71-.77c-5.93-2-11.94-3.75-17.87-5.7A110.18,110.18,0,0,0,282,322a62.47,62.47,0,0,0-5.83-3.72,2.46,2.46,0,0,0-.73-.89,62.68,62.68,0,0,0-10.61-6.52,3,3,0,0,0-2.34-.21c-8.39-5.92-17.36-9.83-26.63-13.15-17.1-9.26-34.66-16.74-53.47-12.46a61,61,0,0,0-10.5-.76l-.07,0,.07-.35a6.89,6.89,0,0,1-.81-.06,3.34,3.34,0,0,0-.8.08l-1.63-1a25.38,25.38,0,0,0-8.69-6.59c-7.88-3.93-16.79-5.84-24.94-9.18-22.23-9.11-44.23-18.9-67.21-26,0-2-1.65-4-4-3-1.41.56-2.89.6-4.3,1.17a3.15,3.15,0,0,0,.4,6c22.72,6.38,44.39,15.8,66.13,24.86,4.41,1.84,8.83,3.52,13.27,5.13a3.12,3.12,0,0,0,1.55,2.45c7.15,4.11,14.29,8.26,21.5,12.26a3,3,0,0,0-1.05,1.13c-7.47,14.09,1.42,32.57,12.79,43.42,3.74,6.38,7.63,12.66,10.38,19.55a3.13,3.13,0,0,0,5.92-2c-.15-.56-.33-1.12-.49-1.68a36.11,36.11,0,0,0,2.11,3.75,5.77,5.77,0,0,0,1.26,1.83,53.13,53.13,0,0,0,6.71,7.48,3.16,3.16,0,0,0,5.15-1.72c.42-2.12-.55-4.22-2-6.17a2.61,2.61,0,0,0,.51-1.2c4.59.54,9.3,1,13.64,2.66a16.78,16.78,0,0,1,5.56,3.42,59.48,59.48,0,0,0,5.89,8.26l0,0h0c.17.2.33.41.51.61,2.54,2.92,6.11-1.2,4.69-4.06a37.13,37.13,0,0,0-2.43-4.18,75.74,75.74,0,0,1,10.52,4,3.13,3.13,0,0,0,2.28.18l.65.41c2,1.21,4.81-.74,4.53-3-.35-2.72-1.15-7.59-4.45-8.31a47.37,47.37,0,0,1-7.56-2.33c-.57-.41-1.14-.81-1.73-1.2s-.89-.69-1.33-1.05c5-.85,10-1.49,14.94-.31,5.62,1.35,8.79,7.22,12.44,11.15,7.12,7.64,15.78,2.77,24.21,1.51a2.6,2.6,0,0,0,2.74,1.21l.7-.12a19,19,0,0,1-1,2.23c-1.93,3.66,3.42,6.07,5.59,2.82,3.95-5.93,9.78-3.61,15.68-3.15,4.78.38,8.36-1.36,10.8-4.64a15.46,15.46,0,0,0,4.25-3.68l.13-.11c6.31-1.8,11.38-6.1,15.42-11.43a1.49,1.49,0,0,1,1.87.54l1,.2C345.64,346.67,347.2,344.31,346.7,342.07ZM169,306.88c-.35-2.11-.7-4.21-1-6.32,0-.24.07-.48.1-.72.82,2.15,1.67,4.3,2.53,6.43A3.38,3.38,0,0,0,169,306.88Zm6-7.23a10.11,10.11,0,0,1-.82-2.11l1.2.25,1.1.63A3.41,3.41,0,0,0,175,299.65Zm9.61,2.12a3.06,3.06,0,0,0,1.15-.46,62.17,62.17,0,0,0,1.44,7.58C186.31,306.52,185.46,304.15,184.6,301.77ZM201,305.2c-.23-.5-.46-1-.7-1.5,0-.1-.09-.19-.13-.29h0l.72.06c1.37,1,2.77,1.9,4.2,2.75,0,0,0,.08,0,.12C203.74,305.93,202.37,305.56,201,305.2Zm12.71,44.43a3.55,3.55,0,0,0,.88-1.11q.66.81,1.35,1.62C215.2,350,214.46,349.78,213.71,349.63Zm13.39-4.8a3,3,0,0,0,1-1.34,25.24,25.24,0,0,0,3.6.4l.4.11C230.38,344.3,228.72,344.6,227.1,344.83Zm50.1,13.34a14.82,14.82,0,0,1-7.12.45,3.66,3.66,0,0,0,2.27-.66l.48.31c1.76,1.06,4.19-.39,4.56-2.26.32.07.64.14,1,.19a5.5,5.5,0,0,0,1.44,1.25Zm13.93-2.38-.64,0,.72-.63a7.49,7.49,0,0,0,1,.15Z"/><path class="cls-2" d="M322.34,327.57c-1.3-.65-3.39-.85-3.72-2.33a2.5,2.5,0,0,0-3.06-2.06l0,0a5.69,5.69,0,0,1-.06-.83,3.15,3.15,0,0,0-1.71-2.57,58.11,58.11,0,0,0-13-4.75c-3.34-.85-7.44,2.25-10.22,3.93-2.37,1.45-1.48,5.15,1.12,5.67,4.16.84,8.45,3.59,12.27,5.41a3.23,3.23,0,0,0,.74.25c1.26,1.16,2.53,2.32,3.86,3.4a3.28,3.28,0,0,0,4.68-.67l1.08.23a2.89,2.89,0,0,0,2.48-.56,2.8,2.8,0,0,0,2,.11l.8.38C323.13,335,325.94,329.37,322.34,327.57Z"/><path class="cls-2" d="M329.59,323.76c-.15-.2-.32-.37-.48-.55a3.93,3.93,0,0,0-.3-.62,6.58,6.58,0,0,0-1.57-2.19c-1.51-1.11-3-1-4.78-.6a2.46,2.46,0,0,0-1.35.85,3.12,3.12,0,0,0,.57,6c.72.14,1.44.3,2.15.49,0,0,.12.06.28.11l.79.63a3.19,3.19,0,0,0,3.81.26A3.14,3.14,0,0,0,329.59,323.76Z"/><path class="cls-3" d="M298.52,179.5c-1.94-.39-3.86-.79-5.73-1.29a3.51,3.51,0,0,0-.12-1.35,3.14,3.14,0,0,0-.38-.85,18.47,18.47,0,0,0,2.28-1c1.81-1,1.72-3.25.58-4.62a2.38,2.38,0,0,0,1.75-2.12,3.15,3.15,0,0,0,3.33-2c.61,0,1.21-.07,1.82-.08,3.62-.08,3.77-5.44.4-6.19-4.55-1-8.91-2.71-13.46-3.73a3,3,0,0,0-2.16.5,2.88,2.88,0,0,0-1.82-.92l-1-.2a3,3,0,0,0-3.11,4.64c-.24,1.19-.47,2.29-.73,3.47a68.07,68.07,0,0,0-3.52,12.56,3.17,3.17,0,0,0,2.32,3.55l0,.77c-.1,3.18,4.28,3.67,5.77,1.42a61,61,0,0,0,12.55,3.59C301.24,186.44,302.47,180.31,298.52,179.5Z"/><path class="cls-3" d="M305.43,134.31c-.56-.31-1.13-.6-1.69-.89,0,0,0-.08,0-.13l1.88.1c3.6.2,3.76-5.51.4-6.19-7.2-1.44-14.35-2.67-21.72-2.23a3.07,3.07,0,0,0-2.75,3.85A3.14,3.14,0,0,0,281,131a3.11,3.11,0,0,0-.14,5.44,12.47,12.47,0,0,0,.53,3.77c.9,3,4.89,2.4,5.87,0a2.93,2.93,0,0,0,1.78.94l7.8,1.57a3,3,0,0,0,3.63-3.2c1,.19,2,.41,3,.6C306.94,140.8,308.49,136,305.43,134.31Z"/><path class="cls-3" d="M354.58,157.41c-6.72-3.22-13.78-4-21.14-4.26a2.58,2.58,0,0,0-2,.7l-.34-.12.06-.16a3.13,3.13,0,0,0-5.59-2.82c-1.28,2.2-2.51,4.38-3.85,6.55a3,3,0,0,0-1.83,2.29l-.39,2a2.8,2.8,0,0,0,2.2,3.52c-.53,2.83,3.49,5.3,5.34,2.65a18.3,18.3,0,0,1,3.36-3.45c2.34,1.38,5.44,2.23,7.45,3a3.29,3.29,0,0,0,4.61-2.14l.2-1a3.1,3.1,0,0,0-.12-.9,2.89,2.89,0,0,0,3.48-2.35A31.19,31.19,0,0,1,351.8,163C355.44,164.74,358.22,159.15,354.58,157.41Z"/><path class="cls-3" d="M343,185.74l-9.75-2A2.81,2.81,0,0,0,331,184c-1-.09-1.91-.29-2.87-.45-.13,0-.24-.06-.37-.07l-.33-.25a3.15,3.15,0,0,0-2.62-1.29c-.44-.16-.88-.3-1.35-.42-2.07-.53-3.75,1.34-3.74,3.28,0,4.33-.79,7.95.93,12.11a3.31,3.31,0,0,0,3.76,2q.15.27.3.51a3.16,3.16,0,0,0,5.4-.32c.16-.31.3-.62.44-.93.34,0,.69,0,1.05-.08a5.15,5.15,0,0,0,4.49-3.6c1,.22,1.94.43,2.91.62a3.06,3.06,0,0,0,3.67-3.31C345.87,191.47,346.56,186.46,343,185.74Z"/><path class="cls-3" d="M319.22,198.82a5.13,5.13,0,0,0-3.27-2.35,3.89,3.89,0,0,0-2.74.57,4,4,0,0,0-1.61,2.5,3.15,3.15,0,0,0,2.45,3.69,3.31,3.31,0,0,0,1,0,3.11,3.11,0,0,0,4.13-4.43Z"/><path class="cls-3" d="M346.1,224.74c-3-1.54-6.34-2.38-9.37-3.92a3.26,3.26,0,0,0-1.56-.37,17.22,17.22,0,0,0-4.11-.88A3.44,3.44,0,0,0,328,221a2.92,2.92,0,0,0-1.07-.13c-11.82.89-13.06,15.92-11.32,25,.47,2.47,3.53,4.12,5.46,1.86l.65-.81a3.39,3.39,0,0,0,5.07-.83A49.75,49.75,0,0,0,331,234.86a16.5,16.5,0,0,0,2.86.51c1,.33,2,.63,3,.88a3.3,3.3,0,0,0,3.8-3,6.92,6.92,0,0,0,1.54-2.8c0-.13.06-.25.09-.37a2.2,2.2,0,0,0,.37-.06c.21.1.43.19.64.3C346.88,232.15,349.69,226.56,346.1,224.74Z"/><path class="cls-3" d="M303,244.28c-1.4-2-3.42-2.64-5.7-3.1a3.13,3.13,0,0,0-1.23,6.13l1,.22c.12,0,.45.12.65.18l.07,0a3.13,3.13,0,0,0,5.2-3.47Z"/><path class="cls-3" d="M336.43,279.46c.26-.35.52-.71.76-1.07a3.28,3.28,0,0,0,.49-2.83c.59-.39,1.2-.77,1.84-1.13,2.52-1.39,1.35-5.09-1.11-5.67-4.23-1-8.14-2.43-12.53-2.51-.65,0-1.26.54-1.62.47l-.64-.13c-4-.8-5.17,5.31-1.26,6.23.55.13,1.08.33,1.62.48a24.78,24.78,0,0,0-8.21,16.4,2.87,2.87,0,0,0,1.72,3.37,2.68,2.68,0,0,0,2.66.16c-1.17,2.78,2.28,4.91,4.7,3.63,5.27-2.8,9-7.65,13.49-11.5C340.84,283.2,338.9,279.24,336.43,279.46Z"/><path class="cls-3" d="M304.09,261.91c-2.92-1.64-6.36-1.44-9.57-2.09l-3.9-.79a3.1,3.1,0,0,0-3.67,3.26,2.43,2.43,0,0,0-1.69.24,15.29,15.29,0,0,0-4.95,3.81,3.29,3.29,0,0,0-3,2.44,39.78,39.78,0,0,0-1.37,6,45.37,45.37,0,0,0-1.45,13.55,2.84,2.84,0,0,0,2.08,2.68c.29,1.27.62,2.53,1,3.78a3.15,3.15,0,0,0,5.75.39c.07-.15.27-.28.34-.44.65,2.83,5.58,3.37,6.27-.09l1.38-6.83c1-4.77,3.18-9.25,4.36-13.94a18.18,18.18,0,0,0,2.61-.73l.64.11a3,3,0,0,0,3.49-2.11l.2-.12a3,3,0,0,0,1.24-3.43A3.24,3.24,0,0,0,304.09,261.91Zm-15.37,12.68c0-.28.1-.57.15-.84l.36.09c-.06.22-.13.44-.19.66A1.92,1.92,0,0,0,288.72,274.59Z"/><path class="cls-3" d="M310.68,207.77c-4.33-4-8.3-7-14.34-7.38a3.36,3.36,0,0,0-3.69,3,2.63,2.63,0,0,0-1,.9c-.17-.15-.33-.3-.51-.44a3.18,3.18,0,0,0-4.42.26,29.07,29.07,0,0,0-2.33,3.15,4,4,0,0,0-1.95.41c-9.48,4.75-6.31,19.88-.57,26.22,1.61,1.79,4.68.45,5.13-1.67a3.33,3.33,0,0,0,4.23-1.4c2.51-5,5.19-12.51,4.33-18.82a6.84,6.84,0,0,1,2.41.31,3.1,3.1,0,0,0,3.17-1.26l2.08.42a3.09,3.09,0,0,0,1.74-.24c.49.43,1,.82,1.52,1.28C309.49,215.23,313.65,210.49,310.68,207.77Z"/><path class="cls-3" d="M256.35,187.25c-10.83-2.21-21.62-4.95-32.68-4.7a31.51,31.51,0,0,0-4.85.3,3.14,3.14,0,0,0-2.26,1.45,2.08,2.08,0,0,0-.32-.12,12.24,12.24,0,0,0-2-1.92c-1.24-1-3.36-1.17-4.41.26a30,30,0,0,0-4.47,8.49c-6.72,5.69-4.75,18.92-2.46,25.91a3.23,3.23,0,0,0,2.32,2.14l1,.19a3.3,3.3,0,0,0,1-.05,3.23,3.23,0,0,0,3.94-.67,34.16,34.16,0,0,0,2.57-3.47c.05.41.11.8.17,1.2.49,2.92,4.42,4.13,5.92,1.19a37.06,37.06,0,0,0,2.91-9,39.32,39.32,0,0,0,9.74-10.06,4.29,4.29,0,0,0,.42-.79c.65-.1,1.3-.19,2-.32,2.63-.49,3.81-3.51,2-5.29a3.23,3.23,0,0,0,.61-1.35,2.54,2.54,0,0,0,1.52-.55c5.38.92,10.74,2.16,16.11,3.26C259.07,194.19,260.3,188.06,256.35,187.25ZM220.53,202.4l-.54-.06c0-.31.09-.61.14-.92a3.17,3.17,0,0,0-1.89-3.4l.13-.56a41.77,41.77,0,0,0,6.5.67A28.24,28.24,0,0,1,220.53,202.4Z"/><path class="cls-3" d="M261.49,145.76c-9.12-3.76-18.64-3.87-28.36-3.68a2.69,2.69,0,0,0-2.35,1.3c-.75-.1-1.5-.21-2.26-.34a18.5,18.5,0,0,0-1.15-2.32,3.16,3.16,0,0,0-5.4.32,32.84,32.84,0,0,0-3.48,19.09,46.2,46.2,0,0,0,1.14,9.25,3,3,0,0,0,2.35,2l1,.2a3.13,3.13,0,0,0,3.68-2.41c.15-.72.31-1.43.49-2.16a3.22,3.22,0,0,0,2.44-2.29c.13-.48.32-1.25.53-2.21a24.51,24.51,0,0,0,11.18-4.25h1.46c2.15.05,3-1.73,2.72-3.42a3.49,3.49,0,0,0,.49-1.43l1.87-.21a3.25,3.25,0,0,0,2.7-4.16,37.5,37.5,0,0,1,8.16,2.29C262.38,152.88,265.22,147.3,261.49,145.76Z"/><path class="cls-3" d="M264,108.78,250.37,106a3.27,3.27,0,0,0-3.76,3,12.11,12.11,0,0,0-1.86-1.07,3.3,3.3,0,0,0-1.45-.33,3,3,0,0,0-2.06-1.58l-1-.2a3.17,3.17,0,0,0-2.48.58,2.49,2.49,0,0,0-3.08,1.68,17.44,17.44,0,0,0,1.53,16.61,2.89,2.89,0,0,0,3.32,1.26c.13.16.25.34.39.51,1.33,1.67,4.42,2,5.39-.32l.09-.23a3.12,3.12,0,0,0,1.63-2,17.25,17.25,0,0,0,3.07-7.8,98.41,98.41,0,0,0,11,1.22,2.54,2.54,0,0,0,2.77-2.47C267,114.44,267.6,109.5,264,108.78Z"/><path class="cls-3" d="M237,238.17c-8.21-.81-16.42-1.5-24.67-1.75a3,3,0,0,0-3.69-1.5,15.8,15.8,0,0,0-1.87.74,3.17,3.17,0,0,0-2.42-.91c-8.82,1-13.36,9.27-15,18.27a34.52,34.52,0,0,0-1.31,7.77,40.87,40.87,0,0,0,.9,11.72c.55,2.31,1,3.83,2.27,4.82a19.51,19.51,0,0,0,1.48,3.06c1.27,2.13,4.28,1.6,5.39-.32q1.28-2.19,2.58-4.36a3.38,3.38,0,0,0,3.22-.82,23.67,23.67,0,0,0,7.64-16.15,2.2,2.2,0,0,0-.23-1.07,44.85,44.85,0,0,0,5.29-4.47,29.27,29.27,0,0,0,7-3.13,3.07,3.07,0,0,0,.86-4.29c.85-.2,1.7-.4,2.53-.62a2.64,2.64,0,0,0,1.79-1.5q3.47.3,6.93.64C239.69,244.7,241,238.57,237,238.17Z"/><path class="cls-3" d="M194.36,193.67A107,107,0,0,1,201,183.15c.5-.64,1-1.29,1.43-2,2.22-3.24-2.17-7.42-4.67-4.16-.4.51-.77,1.05-1.15,1.57a23.5,23.5,0,0,1-6.57,5.93c-2.85,1.71-5,2.16-6.18,4.9a3,3,0,0,0-.95.85,48.71,48.71,0,0,0-5.28,9,76.33,76.33,0,0,0-11.41,34.13,2.62,2.62,0,0,0-2.06,2.38c-.39,2.66-.2,5.34-.6,8-.57,3.86,5.19,5.14,6.06,1.55a3,3,0,0,0,1.44-2.07l.15-.61a2.62,2.62,0,0,0,1.14-1.33c1.86-4.47,3.53-9.23,6.4-13.18a3.15,3.15,0,0,0,.47-2.92c1.69-3.51,3.31-7.06,4.92-10.62A173.67,173.67,0,0,0,194.36,193.67Z"/><path class="cls-3" d="M189.36,151.73q-4.1,8.34-8.36,16.58a2.82,2.82,0,0,0-1.61,2.12c.05-.25-1.8,1.55-2.16,2-1.26,1.4-2.41,2.88-3.55,4.38A82.85,82.85,0,0,0,167,187.28a72.83,72.83,0,0,0-4.36,9.65,3.2,3.2,0,0,0-.88,1,39.64,39.64,0,0,0-2.21,5.37,2.8,2.8,0,0,0-1,1.93L156.17,217c0,.24-.24.43-.24.64-.41-.74-.93-1.49-1.39-2.2a3.19,3.19,0,0,0-4.38-.88c-2.73,1.82-5.7,3.64-7.85,6.16a3,3,0,0,0-.63,3l-2.52,2.5c-2.54,2.54,1.18,6.7,4.06,4.69a56.7,56.7,0,0,0,8.31-7.78,17.69,17.69,0,0,1,1.29,4.24c.62,4,6.87,3.55,6.24-.44a26.19,26.19,0,0,0-1.15-4.49,3.24,3.24,0,0,0,4.34-1.29c.59-1.18,1.16-2.37,1.71-3.56a2.8,2.8,0,0,0,2.4-1.71c2-4.05,3.71-8.26,5.5-12.45a2.81,2.81,0,0,0,1.35-1.39q1.69-3.71,3.4-7.41a3,3,0,0,0,2.74-2.36c.67-2.6,1.88-5,2.55-7.61a2.74,2.74,0,0,0,0-1.48l13.08-28.55C196.62,150.9,191.14,148.11,189.36,151.73Z"/><path class="cls-3" d="M349.16,348.53c-4.13,1.11-8.3,2.3-12.52,3.05-6.83,1.22-10.52,9.53-15.87,13.25-2.31,1.6-6.75,1.07-9.4,1-3.29-.05-6.57-.23-9.86-.13a24.19,24.19,0,0,0-12.35,3.41c-.17-.4-.33-.8-.46-1.2a3.12,3.12,0,0,0-2.33-2,3.08,3.08,0,0,0-4-3.44c-4.09,1-7.93,1.85-11.63,3.65a3.83,3.83,0,0,0-2.35-1.83,13.2,13.2,0,0,0-2.95-.05l0,0c-.39-.46-.79-.91-1.22-1.35a2.74,2.74,0,0,0-3.11-.58A23.3,23.3,0,0,0,247,348.94c-3.23-1.18-6.2,2.53-3.49,5.12,3.19,3.05,7.23,5.35,9.91,8.72-.41.67-.83,1.34-1.26,2l-.19.28a27.23,27.23,0,0,0-2.84-1.48,3.17,3.17,0,0,0-4.49,2.36,56.91,56.91,0,0,1-6.64-2.57c-3-1.53-5.4,1.9-4,4.52.07.14.13.28.19.42a3.37,3.37,0,0,0-1.41,1.29,7.29,7.29,0,0,1-.14-3.22c.71-4-5.17-5.14-6.13-1.24a27.24,27.24,0,0,1-2.36,5.95c-1.48-3-2.87-6-4.1-9.1a18,18,0,0,0-.78-1.95c-1.7-3.52-7.36-1.85-5.92,2,.22.59.45,1.17.68,1.76,1,3.36-.51,5.68-4.27,7.25-.35.14-.71.28-1.09.4a3.3,3.3,0,0,0,.93-1.62l.15-.55a13.82,13.82,0,0,0,1-3.89,19.16,19.16,0,0,0,.65-5.18c-.11-3.58-5.5-3.82-6.19-.4,0,.16-.07.44-.12.78a2.4,2.4,0,0,0-1.54.19l-.17.09a3.29,3.29,0,0,0-2.11,3.17,4.05,4.05,0,0,0,0,.69,17.69,17.69,0,0,1-4.1-3.71,3.11,3.11,0,0,0-2.4-1.24,19.27,19.27,0,0,1-1.34-2.32c-.25-.59-.5-1.19-.77-1.78-1.59-3.41-6.85-2-6.05,1.54a2.91,2.91,0,0,0-2.5,1.43,11.06,11.06,0,0,0-2.78-.74,3.15,3.15,0,0,0-2.72.78,6,6,0,0,0-3.68,1.71,3.16,3.16,0,0,0,.93,4.87,7.55,7.55,0,0,0,4.54.24,28.21,28.21,0,0,0,10.14,3.66l1,.8a3.07,3.07,0,0,0,4.37-.33l3.06.87c.92.62,1.85,1.23,2.78,1.87a12.23,12.23,0,0,1-4-.9c-3.69-1.58-6.53,4-2.82,5.58,7.08,3,18,1.2,23-4.39,1.14,2.31,2.31,4.6,3.49,6.88s4.42,1.61,5.39-.32c.57-1.12,1.15-2.21,1.72-3.3l.15.38c.56,1.47,2.38,2.67,4,2a9,9,0,0,0,3.59-3.26l.63.36c1.9,1.1,5-.66,4.53-3l-.21-1.06.53.17c1.65.56,4.34,2.55,6.17,1.74a4.34,4.34,0,0,0,2.23-2.1,7.48,7.48,0,0,0,2.64.71c1.42.07,2.6-.82,3.61-2.09a3.23,3.23,0,0,0,2.34,2.24l1.95.39a3.24,3.24,0,0,0,3.45-1.82c.61.06,2.46.08,2.3-.13a8.87,8.87,0,0,0,2.47,2.3,3.08,3.08,0,0,0,3.14-.2c.34-.2.68-.39,1-.57a2.75,2.75,0,0,0,3.33.92c1.16-.44,2.92-.11,4.13-.09a22.58,22.58,0,0,0,3.4-.22,7.07,7.07,0,0,1,.63,2.08,3.16,3.16,0,0,0,5.46,1.86c8.72-9.62,23.94-.55,34.21-6.47,5.19-3,8.38-11.31,14.28-12.49,4.26-.85,8.48-2,12.68-3.11C355.08,353.39,353,347.48,349.16,348.53Z"/><path class="cls-4" d="M273.59,53.48c-4.42,3.9-4,14-5.31,19.45-2.65,11.35-6.49,22.42-7.89,34-.09.7,1.75.24,1.92-.28.51-1.57,1.36-2.71,2-4.16.22-.52-1.68-.3-1.92.27-.64,1.5-1.48,2.62-2,4.17l1.92-.28c1.26-10.41,4.42-20.45,7-30.57a116.76,116.76,0,0,0,2.58-12.24c.45-3.07.68-8,3.19-10.17.81-.72-1.11-.59-1.52-.23Z"/><path class="cls-4" d="M278.83,58.69c8.11,1.82,15.31,6.18,23.66,7,.54.06,1.43-.28,1.3-1-.52-2.76-.28-4.06-2.26-6.31l-1,1.14c8.22-.1,15.29,4.9,22.9,7.32,6.71,2.14,13.11,1,19-2.71,1-.64-.33-1.34-1.07-1a70.82,70.82,0,0,0-10.52,6,.61.61,0,0,0-.1,1c2.51,2.37,5.41,4.35,7.52,7.11l.71-1.09c-10.62,3.47-21.64-2-32.39-2.06-.39,0-1.05.32-1.06.78l0,1.12a.51.51,0,0,0,.23.48c1.39.76,2.34,0,3.61-.79,1.1-.7-.49-1.39-1.28-.89a2.76,2.76,0,0,0,2.65,1c1.58.16,3.15.45,4.71.72,3.23.56,6.42,1.25,9.65,1.76a30.17,30.17,0,0,0,14.26-.74c.4-.13,1.09-.59.71-1.09-1.86-2.44-4.27-4.22-6.57-6.22-1.32-1.14,7.34-5.3,8.76-5.93l-1.07-1c-14.51,9-25.93-5.32-40.46-5.15-.44,0-1.46.59-1,1.14,1.74,2,1.65,3.6,2.1,6l1.3-1c-8.33-.85-15.57-5.22-23.66-7-.95-.22-1.94,1.12-.67,1.41Z"/><path class="cls-4" d="M302.73,66.6c1.41,5.06-1.05,12.9-7.49,12.67-2.86-.11-5.77-1.22-8.46-2.12-4.58-1.53-9.1-3.3-14-3.21-.69,0,.25.54.6.35a10.67,10.67,0,0,0,2.41-1.58,7.69,7.69,0,0,0,2.16-3.7c.88-3.52-1.67-7.71-2.41-11.07-.15-.7-2.09-.21-1.93.52,1.38,6.26,5.45,12.24-2.73,15.75-.83.36-.63,1.07.26,1,8.51-.94,16.09,4.95,24.52,5.26,7.48.27,10.84-7.8,9-14.35-.19-.71-2.12-.18-1.93.51Z"/><path class="cls-4" d="M262.4,108.75c-8.67.52-15.72-5.78-24.45-2.3-6.91,2.76-5.31,11-5.11,17,.22,6.18,8.75,5.17,13,5.78,10.55,1.52,22,1.08,29.85,9.54.36.38,1.95,0,1.87-.62-.72-5.69-2.72-14.37,1.53-19.1,2.25-2.5-1-6.65-3.3-7.9-10.59-5.83-23.79-6.21-35.57-5.72-.39,0-2.08.75-1,1l3.29.66c.53.11,2.26-.74,1.2-1l-3.28-.66-1,1c11.43-.48,25.83-.5,35.68,6.22,5,3.41.78,7.49,0,11.61-.89,4.84-.1,9.61.51,14.42l1.87-.61c-9.48-10.25-26.23-9.18-39-10.83-3.1-.4-3.71-2.51-3.81-5.27-.12-3.37-.54-7.47.26-10.72,2.58-10.52,19.61-1.08,26.61-1.5.63,0,2.08-1.06.79-1Z"/><path class="cls-4" d="M223.16,139.61c4,3.75,12,3,17,3.12a221.13,221.13,0,0,1,30.36,3.14c2.68.43,8.7.76,9.66,3.9,1,3.36-1.88,8.86-2.8,12-3,10.31-3.16,19.88,2.67,29.21.39.62,2.26,0,1.79-.79-6.77-10.82-4.72-21.52-1.19-33,1.77-5.77,2.87-9.69-3.74-11.36a111.24,111.24,0,0,0-14.53-2.31c-4.48-.52-8.89-1.52-13.4-1.77-3.92-.22-7.87-.16-11.8-.29-3.73-.13-9.34.13-12.25-2.61-.55-.51-2.37.24-1.78.8Z"/><path class="cls-4" d="M224.5,139c-6,4.51-7.27,14.93-7.38,21.82-.05,3.51.39,7.4,2.55,10.29,1.78,2.38,4.18,1.33,6.57.55,5.7-1.86,10.54-3.61,16.63-3.37,6.28.24,12.14,1.45,17.2,5.16a139.44,139.44,0,0,1,11.17,9.28c1.12,1,6.53,7.16,7.09,6.84-1.14.65-.1,1.73.87,1.18,3.05-1.75-6.86-9.51-8-10.55a131.33,131.33,0,0,0-11.05-8.92c-4.06-2.9-8.26-3.36-13.21-4.09a32.27,32.27,0,0,0-14.69.94c-2.44.74-4.83,1.66-7.26,2.46-2.74.89-3.84-.2-4.85-2.73-2.92-7.28-1-23,5.67-27.94,1.05-.79-.51-1.51-1.29-.92Z"/><path class="cls-4" d="M209.11,183.53l-.43-.3a1.58,1.58,0,0,0-1.66.24c-1.85,1.46-2.84,5.17-3.87,7.06a36.75,36.75,0,0,0-3.76,11.2c-1.5,8.43.92,17.09,3.85,24.93.19.51,1.25.16,1.55,0,26.12-15.78,61.3,1,78.25,23,.32.42,2,0,1.87-.62-2.94-12.4-18.11-41.51,3.55-45,.21,0,1.49-.42,1.05-.85-11.62-11.37-26-16.85-41.75-19.85a131.91,131.91,0,0,0-21-2.39c-4.82-.14-10.31,0-14.58,2.54-1.12.66.61.82,1.18.48,5.35-3.17,13.28-2.14,19.19-1.63a146.59,146.59,0,0,1,16,2.37c14.79,2.92,28.23,8.55,39.12,19.21l1-.85c-24,3.92-9.17,32.21-5.78,46.54l1.87-.62c-17.77-23.08-54.14-39.14-81.22-22.78l1.55,0c-2.61-7-4.46-14-4.19-21.51a34.61,34.61,0,0,1,1.94-9.49,38.59,38.59,0,0,1,2.89-6.22c.72-1.32,1.58-4.29,2.74-5.2l-1.67.24.43.3c.52.36,2.26-.41,1.8-.73Z"/><path class="cls-4" d="M198.4,234.42c-7,5.12-9.37,17.67-10.85,25.55-1.09,5.74-3.57,20.25,5,21.65.49.08,2.25-.73,1.22-.9-8.16-1.33-5.07-17-4.12-22.08,1.36-7.26,3.83-19.37,10.25-24.06.83-.61-1.12-.45-1.51-.16Z"/><path class="cls-4" d="M200.4,283.5c25.3-29,62,17,80.56,33,.27.23,2-.19,1.88-.58-5.85-17.95-17.8-47.18,5.58-57.7.1,0,.58-.27.37-.43-9.55-7.07-19.19-13.91-30.29-18.34a94.67,94.67,0,0,0-25-6,148.1,148.1,0,0,0-23.53-1c-2.36.13-10.45.09-10.88,3.7,0,.21,1.87,0,1.93-.52.66-5.52,29.26-1.61,33.35-1.14,14.45,1.68,28,7.13,40.09,15.06,3.36,2.2,6.61,4.57,9.86,6.94,1.71,1.26,2.42,1.67.44,2.79a33.33,33.33,0,0,0-4.18,2.78c-4.4,3.43-6.7,8.61-7.62,14-2.3,13.49,3.88,27.87,8,40.42l1.88-.58c-19.82-17.06-57.13-63.11-84.14-32.14-.37.43,1.45.17,1.75-.17Z"/><path class="cls-4" d="M252.67,133.86c-.14.44-.94.85-1.2,1.3-.57,1,0,2.33.32,3.25s1.8.36,1.94-.35c.3-1.46.59-2.92.89-4.38l-2,.18c-.3,1.92.22,3.8,0,5.7-.11.94,1.79.59,2-.18q.88-4.38,1.76-8.76c.18-.89-1.78-.62-1.94.18-.52,2.55-1,5.11-1.55,7.66-.18.91,1.76.59,2-.17.54-2.23,1.88-4.13,2.42-6.36l-1.95.18-.66,3.29c-.19.89,1.78.61,1.94-.18.23-1.1.45-2.19.67-3.29.18-.9-1.77-.59-1.95.18-.54,2.22-1.88,4.13-2.42,6.35l2-.17c.51-2.56,1-5.12,1.54-7.67l-1.94.18-1.77,8.76,2-.18c.23-1.9-.29-3.78,0-5.7.14-.92-1.79-.6-2,.18-.3,1.46-.59,2.92-.88,4.38l1.94-.35c-.33-.86-1-2.25-.08-3a2.52,2.52,0,0,0,1-1.24c.26-.83-1.71-.59-2,.18Z"/><path class="cls-4" d="M250,169.86c-.95,5-1,10.67-4.11,15l1.85-.3c-.05-4.64,1.79-8.7,3.74-12.81.06-.13-.07-.24-.18-.26l-1.09-.22c-.4-.08-1.63,0-1.74.56-.66,3.29-1.33,6.57-2,9.86-.11.56,1.81.23,1.92-.31l2-9.86c.13-.62-1.63-.11-1.84.19-1.88,2.75-2.5,6.54-3.16,9.76-.11.56,1.81.23,1.92-.31.63-3.08,1.2-6.88,3-9.52l-1.84.19c-.66,3.29-1.33,6.57-2,9.86-.11.56,1.81.23,1.92-.31l2-9.86-1.74.57c1.3.26.5.85,0,1.88-.6,1.27-1.13,2.57-1.62,3.88a19.86,19.86,0,0,0-1.23,7.23c0,.53,1.68-.05,1.85-.3,3.18-4.43,3.28-10.05,4.26-15.23.11-.56-1.82-.23-1.92.31Z"/><path class="cls-4" d="M239.39,222.37c-.59,2.92-1.17,5.84-1.76,8.76l2-.16c.75-3.75,1.47-7.52,1.1-11.36-.08-.84-1.64-.28-1.88.17-2,3.7-2.76,7.92-3.58,12l1.95-.17c.51-2.56,1-5.11,1.54-7.67.18-.87-1.47-.6-1.78-.18-1.69,2.34-2.24,5-2.81,7.8-.08.38.35.53.63.58l1.1.23a1.21,1.21,0,0,0,1.32-.76c.48-1.87,1.71-3.38,2.2-5.26l-2,.17c-.29,1.46-.58,2.92-.88,4.38-.18.92,1.79.66,1.95-.16.3-1.46.59-2.93.89-4.39.19-.94-1.75-.61-2,.17-.48,1.87-1.71,3.38-2.19,5.26l1.32-.76-1.1-.22.63.59c.51-2.48,1-5,2.47-7.1l-1.78-.18q-.78,3.82-1.54,7.67c-.19.92,1.78.65,1.95-.17.8-4,1.52-8.06,3.46-11.65l-1.88.16c.36,3.7-.4,7.39-1.12,11-.19.92,1.78.66,2-.16l1.77-8.77c.18-.92-1.79-.65-2,.17Z"/><path class="cls-4" d="M229.86,281.7c-3.08,2.39-2.09,6.26-.85,9.42.26.67,1.81.24,1.93-.37a34.91,34.91,0,0,0,.89-10.23c0-.16-.25-.26-.38-.28l-1.1-.22c-.46-.09-1.43.08-1.55.66a53.43,53.43,0,0,0-1.33,12.41c0,.69,1.82.2,1.93-.37q1.11-5.48,2.21-11l-1.93.23a19.5,19.5,0,0,0-.45,8c.15.7,2.09.21,1.93-.52-.56-2.59-.06-5.19.45-7.75.16-.77-1.8-.46-1.93.23q-1.11,5.47-2.21,11l1.93-.38a51.53,51.53,0,0,1,1.34-12.12l-1.56.66.93.18c-.08,0-.1,2.87-.12,3.36a43.83,43.83,0,0,1-1,6.33l1.93-.38c-1.07-2.74-2.28-6.4.48-8.54.89-.69-1-.75-1.56-.36Z"/><path class="cls-4" d="M282.35,122.29a17,17,0,0,0-7.27,10c-.22,1,1.76.74,2-.14a15.44,15.44,0,0,1,6.6-9c1.08-.74-.49-1.46-1.29-.91Z"/><path class="cls-4" d="M284,122.66c12.23,2.33,29.39.82,38.82,10.3.39.38,2.18-.32,1.82-.68-9.5-9.55-26.81-8.08-39.07-10.42-.48-.09-2.17.68-1.57.8Z"/><path class="cls-4" d="M323.59,132.67c-3.71,9.52-8.12,18.7-1.29,27.9l1.63-1A79,79,0,0,1,312.85,151a43.42,43.42,0,0,0-12.43-7.32c-4.3-1.79-7.76-1.88-12.28-2.13-2.48-.14-4.83,1.26-7.26,1.42.19.37.37.75.55,1.13l.35-.15c1.22-.54.13-1.56-.85-1.13a3.76,3.76,0,0,0-.77.41c-.69.52-.17,1.18.55,1.13,2.12-.13,4.24-1,6.34-1.36,4.76-.75,9.23.71,13.54,2.51,8.52,3.53,14.08,10.56,21.85,15.23.55.33,2.24-.16,1.63-1-6.59-8.87-2.18-17.73,1.36-26.83.41-1-1.53-1-1.84-.22Z"/><path class="cls-4" d="M311.69,87.79c-2.42,11.37-6.81,22.12-10.83,33l1.94-.21c3.06-10.33,8-20,10.35-30.57l-1.94.21c-2.44,11.28-7.6,21.84-9.23,33.31-.12.85,1.84.52,1.95-.21,1.62-11.47,6.78-22,9.22-33.31.17-.82-1.78-.52-1.94.21-2.31,10.56-7.29,20.23-10.35,30.57-.24.8,1.7.45,1.94-.21,4-10.87,8.41-21.61,10.83-33,.18-.82-1.78-.53-1.94.2Z"/><path class="cls-4" d="M313.19,93.32c7.53,4.29,17.22,3.8,25.54,4.74,5.77.65,10.35,4,15.31,6.66A45.21,45.21,0,0,0,366.25,109c.38.09,1.92-.58,1.71-.67-3-1.28-5.57-.86-8.41.64-.1,0-.33.19-.18.31a28.47,28.47,0,0,1,4.77,5.1l1.77-.61c-4.73-.89-9.52-1.4-14.21-2.5-5.17-1.21-9.62-4-14.26-6.48-8.54-4.49-17.59-2.26-26.73-3.81-.21,0-2,.36-1.77.61.68.8.33.47,1.5,1.18.46.28,2-.52,1.83-.63l-1.4-1.07-1.76.61c4.75.81,9.46.67,14.27.65,5.31,0,9.94,1.84,14.51,4.31A57.09,57.09,0,0,0,350.1,112c4.63,1.27,9.5,1.62,14.21,2.51.2,0,2-.33,1.76-.62a21.45,21.45,0,0,0-1.89-2.38c-.34-.36-.69-.72-1-1.09q-3.18-2.27,3-1.42l1.72-.67a49,49,0,0,1-13.18-4.9c-3.74-2-7.17-4.35-11.3-5.52-9.23-2.63-19.65-.27-28.35-5.24-.47-.26-2,.54-1.83.64Z"/><path class="cls-4" d="M308.86,102.73c4.12-.35,7.66-4.22,5.89-8.38-.38-.87-2.29-.32-1.93.52a4.53,4.53,0,0,1-3.79,6.42c-1.1.1-1.49,1.55-.17,1.44Z"/><path class="cls-4" d="M284.53,155.13l-.23,0c-.49-.1-2.25.69-1.22.9a159.5,159.5,0,0,1,36.23,11.49l4.56,2.15c1.76.84-1.61,4.33-2.11,5.1a29.1,29.1,0,0,0-3.74,9.6c-1.54,7,.18,14.22,3.66,20.34l1.87-.61c-6.88-8.95-14.63-14.6-25.32-18.08-4.5-1.46-13.07-4.78-17.53-1.67-.84.59,1.11.45,1.51.17,2.31-1.62,8.76.74,11.08,1.35,3,.78,6,1.82,9,2.89,8.08,2.94,14.36,9.38,19.48,16,.3.4,2.09-.21,1.87-.61a29,29,0,0,1,3.51-34.22c.15-.16.07-.29-.11-.38-8.22-3.9-16.44-7.73-25.15-10.44a173,173,0,0,0-17.56-4l-1.22.9.22,0c.49.1,2.26-.69,1.23-.9Z"/><path class="cls-4" d="M261.73,173.86c-1,1.73-.24,4.66,0,6.48a39.09,39.09,0,0,0,2,8.47c.19.51,1,.34,1.36.19,3-1.26,6-2.62,9.31-2.91,1-.09,1.57-1.27.24-1.16-3.67.32-7,1.79-10.34,3.19l1.36.18a39.65,39.65,0,0,1-1.77-7.14c-.33-1.85-1.38-5.46-.37-7.21.49-.84-1.47-.68-1.81-.09Z"/><path class="cls-4" d="M242.45,223.88c1.36,3.79-.14,9.12,2.62,12.35.41.48,2.26-.2,1.8-.74-2.65-3.1-1.18-8.47-2.49-12.13-.23-.64-2.15-.07-1.93.52Z"/><path class="cls-4" d="M256.81,238.34c4.63-1.59,9.6-2.61,14.48-1.78.59.1,2.28-.83,1.19-1-5.55-1-11.16.24-16.42,2-1.29.44-.11,1,.75.75Z"/><path class="cls-4" d="M280.28,236.62c5.1.93,10.12,1.49,15,3.24,4.47,1.58,8.36,4.55,11.9,7.62,6.77,5.89,12.21,13.15,18.77,19.25.34.32,2.09-.31,1.88-.59-5.76-7.85-10.46-17-10.89-26.94-.25-5.91,3.33-23.2,12.26-21.19.28.07,2.14-.41,1.7-.72-12.7-8.95-25.76-19-42.17-17.69-.31,0-2,.71-1,.83a6,6,0,0,0,3.54-.48c1.3-.44.07-.76-.69-.5-3.58,1.23,2.66.88,3.52.93a34.17,34.17,0,0,1,5.93,1.08,49.74,49.74,0,0,1,11.32,4.69c6.27,3.35,12,7.73,17.76,11.81l1.7-.73c-8.07-1.82-12.28,6.41-14.31,12.89-4.06,13,1.76,26.09,9.43,36.54l1.87-.6c-6.93-6.44-12.72-14-19.87-20.2-7.79-6.77-16.28-8.23-26.09-10-.47-.09-2.15.67-1.57.78Z"/><path class="cls-4" d="M286.57,254.6c2.1,2.25,6.1,2.78,8.93,3.45a67.87,67.87,0,0,1,10.34,3.18,130.32,130.32,0,0,1,12.88,6.07c2.87,1.54,6.57,3.4,8.33,6.28.31.5,2.11-.23,1.94-.52-3.45-5.64-12.59-8.69-18.31-11.22-3-1.31-6-2.54-9.06-3.59-4.05-1.4-10.09-1-13.23-4.32-.35-.37-2.15.32-1.82.67Z"/><path class="cls-4" d="M328.29,274.42c-7.12-2-14,9.22-15.73,14.56-4.4,13.89,4.68,28.88,10.71,40.78l1.87-.63c-7.91-8.33-14.54-17.48-24.85-23.05a78,78,0,0,0-11.17-4.63c-3-1.07-9.15-2.28-10.94-5.23-.32-.52-2.2.09-1.8.74,1.43,2.36,5.53,3.32,7.91,4.21,3.95,1.49,8,2.7,11.86,4.47,11.59,5.36,18.66,15.24,27.19,24.23.36.38,2.15-.07,1.86-.63-4.53-8.94-9.34-17.81-11.2-27.76a28.72,28.72,0,0,1,1.6-15.91c1.26-3.22,7.34-11.3,11.5-10.13.58.16,2.27-.72,1.19-1Z"/><path class="cls-4" d="M233,293.23c3.32.45,6.41-.37,9.72-.59,4.13-.26,8.25.36,12.39,0,.51-.05,2.1-.93.82-.81-3.66.33-7.26-.05-10.92,0s-7.21,1.08-10.76.61c-.43-.06-2.23.68-1.25.81Z"/><path class="cls-4" d="M292.65,186.88c-2.86,2.39-2.63,8.91-2.52,12.28,0,.43,1.83,0,1.92-.42.6-3,1.19-5.9,1.79-8.86.1-.52-1.81-.19-1.92.32q-.89,4.43-1.78,8.85l1.91-.31q1.06-5.24,2.11-10.46l-1.91.31a68.53,68.53,0,0,0-1.64,12.34c0,.37,1.92.09,1.93-.52a67,67,0,0,1,1.62-12.13c.11-.53-1.81-.2-1.91.31q-1,5.24-2.11,10.46c-.1.53,1.81.2,1.91-.31.6-3,1.19-5.9,1.79-8.86.1-.52-1.81-.19-1.92.32q-.89,4.43-1.78,8.85l1.92-.41a37.65,37.65,0,0,1,.37-6.37c.24-1.74.54-4.29,2-5.49.46-.39-1.38-.22-1.76.1Z"/><path class="cls-4" d="M299.54,148.16a29.37,29.37,0,0,0-.82,8.35c.06.68,1.82.17,1.94-.38q1-4.83,1.94-9.66c0-.24-.17-.37-.38-.41l-.8-.16c-.46-.1-1.43.08-1.56.65-.78,3.58-2.11,7.06-1.3,10.76.15.7,1.81.17,1.93-.38.82-3.81,2.33-7.63,1.47-11.56-.16-.72-1.62-.12-1.87.23-2.36,3.31-2.49,7.62-2.33,11.55,0,.66,1.82.18,1.93-.38a29.37,29.37,0,0,0,.82-8.35c0-.16-.26-.25-.38-.27l-.81-.16c-.45-.09-1.44.08-1.55.65-.49,2.41-1,4.83-1.46,7.24-.15.75,1.8.43,1.93-.24l1.95-9.65c.05-.24-.18-.38-.38-.42l-.81-.16c-.44-.09-1.45.09-1.55.65-.71,3.78-.76,7.65-1.47,11.43-.14.76,1.81.43,1.94-.24.7-3.78.75-7.64,1.46-11.43l-1.55.65c.82.17.39-.1.25.63-.18.88-.36,1.76-.53,2.64q-.63,3.06-1.24,6.14l1.93-.24c.49-2.41,1-4.83,1.46-7.24l-1.56.65c1.13.23.48,2.45.37,3.52a44.23,44.23,0,0,1-.75,4.44l1.93-.38c-.15-3.7,0-7.85,2.2-11l-1.86.23c.84,3.83-.67,7.58-1.47,11.29l1.93-.38c-.79-3.6.55-7,1.31-10.48l-1.56.65c.82.17.4-.1.25.63s-.35,1.75-.53,2.63c-.41,2.05-.83,4.1-1.24,6.15l1.93-.38a28.51,28.51,0,0,1,.82-8.07c.15-.75-1.8-.43-1.93.24Z"/><path class="cls-4" d="M302.64,120.45c-.06.27-.11.54-.17.81s1,0,1,0c.26-.07.83-.2.9-.52s.1-.54.16-.81-1,0-1,0c-.25.06-.83.2-.89.51Z"/><path class="cls-4" d="M283.72,239.52a8.63,8.63,0,0,0-1.36,2.35l1.92-.42c.14-1.41-.15-2.78,0-4.19a.2.2,0,0,0-.17-.12l-.81-.17c-.36-.07-1.64.06-1.74.55-.33,1.61-.65,3.22-1,4.83l1.92-.42c.08-1.14-.23-2.25-.15-3.38,0-.33-1.85-.05-1.92.42a14.24,14.24,0,0,0,.46,6.05c.12.45,1.84,0,1.92-.42l.33-1.61-1.92.42c1.16,2.17.78,4.33.32,6.67l1.86-.5c-.65-.77-1.44-1.33-2.09-2.1-.27-.31-1.78.1-1.86.5-.22,1.08-.43,2.15-.65,3.22-.09.48,1.81.17,1.91-.33l.81-4-1.92.42a22.59,22.59,0,0,0,.25,4.1l1.93-.52c0-.24-.06-.48-.09-.71-.05-.42-2,0-1.93.51,0,.24.05.48.09.72.06.42,2,0,1.93-.52a22.48,22.48,0,0,1-.25-4.09c0-.32-1.82-.06-1.92.42l-.81,4,1.91-.33c.22-1.07.43-2.14.65-3.22l-1.86.5c.64.77,1.44,1.33,2.09,2.1.26.32,1.78-.09,1.86-.5.47-2.38.9-4.62-.3-6.86-.23-.42-1.83,0-1.92.43l-.33,1.61,1.92-.43a13.65,13.65,0,0,1-.48-5.86l-1.92.42c-.08,1.14.23,2.25.15,3.39,0,.33,1.83,0,1.92-.43.33-1.61.65-3.22,1-4.82l-1.75.54c1,.21.73,3.18.63,4.22,0,.35,1.77,0,1.92-.42a7.62,7.62,0,0,1,1.21-2.15c.4-.52-1.47-.25-1.76.13Z"/><path class="cls-4" d="M272.42,307.6c-.21,1.66,0,3.32-.17,5-.13,1.05,1.81.78,2-.13a30.38,30.38,0,0,0,0-8.57c0-.29-.4-.43-.64-.48l-.81-.16a1.15,1.15,0,0,0-1.31.8,48.21,48.21,0,0,0-1.3,10.62c0,1.1,1.78.76,2-.12.81-3.82,2.65-8.27.56-12-.36-.63-1.6-.29-1.81.3-1.49,4.11-.2,8.37-.88,12.59-.16,1,1.42.68,1.8.25,2.39-2.71,2.25-6.64,2.11-10,0-1.09-1.79-.77-2,.12-.59,2.95-1,5.68,0,8.57.34.93,2.26.39,1.93-.52-1-2.76-.53-5.37,0-8.17l-2,.12c.12,3.06.38,6.83-1.78,9.28l1.79.26c.66-4.06-.65-8.26.78-12.2l-1.82.3c1.88,3.32,0,7.8-.76,11.21l2-.12a47.62,47.62,0,0,1,1.3-10.62l-1.31.8c.87.18.2,0,.25.4.11,1,.15,1.95.19,2.93a22.17,22.17,0,0,1-.3,4.53l2-.13c.21-1.66,0-3.32.17-5,.13-1-1.85-.8-2,.13Z"/><path class="cls-4" d="M317.84,302.56a13.88,13.88,0,0,0-.33,5.94c.15.68,1.83.19,1.93-.38a10.09,10.09,0,0,0-1.19-7.19c-.31-.51-1.77,0-1.86.5-.5,3,.37,5.74.79,8.68.1.68,1.84.18,1.94-.38A26.23,26.23,0,0,0,319,302c-.08-.66-2-.22-1.93.52.35,2.95.54,5.9,1.6,8.7.26.69,2.17.12,1.93-.52-1.06-2.8-1.25-5.75-1.6-8.7l-1.93.52a25,25,0,0,1,.15,7.43l1.94-.38c-.41-2.85-1.28-5.48-.8-8.39l-1.86.5a9.41,9.41,0,0,1,1.05,6.66l1.93-.38a13.17,13.17,0,0,1,.33-5.65c.15-.75-1.8-.44-1.93.23Z"/><path class="cls-4" d="M324.5,252.8c-.45,3,.35,6.12-.17,9.18-.16.9,1.8.6,1.94-.18.55-3,.44-6,1-9a.47.47,0,0,0-.4-.51l-.81-.17c-.53-.1-1.41.06-1.54.7-.69,3.42-1.16,6.72-.33,10.15.2.82,1.81.31,1.94-.35a42.71,42.71,0,0,0,1.14-9.82.49.49,0,0,0-.4-.51l-.81-.17c-.53-.1-1.41.06-1.54.7a28.56,28.56,0,0,0-.81,8.38c.08.8,2,.35,1.93-.52a27.61,27.61,0,0,1,.83-8l-1.55.7.81.16-.41-.52a42.71,42.71,0,0,1-1.14,9.82l1.94-.35c-.8-3.33-.32-6.51.35-9.81l-1.55.7.81.16-.41-.52c-.54,3-.43,6-1,9l1.94-.18c.53-3.07-.27-6.15.18-9.18.13-.91-1.83-.61-1.95.18Z"/><path class="cls-4" d="M331.18,207.32c-.78,3.88-1.57,7.77-.67,11.69.11.48,1.84,0,1.92-.42l1.62-8c0-.13,0-.21-.17-.24l-.8-.16c-.38-.08-1.64,0-1.74.55q-.82,4-1.63,8.05c-.11.56,1.72.1,1.92-.32,1.57-3.35,2.92-6.82,2.11-10.56-.1-.48-1.83,0-1.92.42l-2.43,12.07c-.1.52,1.81.19,1.91-.32L333.73,208l-1.92.42c.8,3.68-.56,7.08-2.1,10.36l1.92-.32,1.62-8-1.75.55c1.11.22.19,2.16,0,3.11-.33,1.62-.65,3.24-1,4.86l1.92-.42c-.88-3.85-.11-7.68.65-11.49.1-.51-1.81-.19-1.91.32Z"/><path class="cls-4" d="M339.11,173.1c-2.73,2.16-2.5,6.9-3.09,10-.18,1,1.79.68,2-.16q.88-4.42,1.78-8.85c.2-1-1.6-.57-1.9,0a25.66,25.66,0,0,0-2.32,7.26c-.19.94,1.78.68,2-.16a20.54,20.54,0,0,1,2-6.09c.25-.45-.22-.72-.58-.79l-.81-.16a1.29,1.29,0,0,0-1.14.41c-1.31,1.76-2.49,3.74-2.1,6,.15.86,1.62.33,1.89-.15a25.76,25.76,0,0,0,2.32-7.26l-2,.15q-.72,3.63-1.46,7.24c-.19.94,1.79.69,2-.15q.72-3.63,1.46-7.24c.19-.94-1.79-.69-2,.15a24.1,24.1,0,0,1-2.21,6.9l1.89-.15c-.31-1.85.72-3.53,1.78-4.94l-1.14.41.8.16-.58-.78a21.81,21.81,0,0,0-2.16,6.45l2-.16a24.28,24.28,0,0,1,2.2-6.9l-1.9,0q-.89,4.42-1.78,8.85l2-.16c.29-1.55.48-3.12.74-4.68.23-1.39.48-3.37,1.67-4.31,1-.81-.54-1.43-1.28-.85Z"/><path class="cls-4" d="M344.94,152.52c.65-3.22,1.29-6.44,1.94-9.66.18-.89-1.79-.61-1.95.18a66.34,66.34,0,0,1-3.17,11.74h1.89q1.38-6.84,2.75-13.68l-1.95.18c-.21,1.66,0,3.32-.17,5-.11.92,1.85.62,2-.18.21-1.67,0-3.32.17-5,.12-.94-1.79-.59-1.95.18q-1.38,6.84-2.75,13.68c-.18.88,1.65.59,1.89,0a69.17,69.17,0,0,0,3.29-12.08l-1.95.18c-.65,3.22-1.29,6.44-1.94,9.66-.18.89,1.79.61,1.95-.18Z"/><path class="cls-4" d="M325.46,153l-3.39,4.34c-.73.95,1.11,1.09,1.59.47l3.39-4.34c.74-1-1.11-1.09-1.59-.47Z"/><path class="cls-4" d="M319,159.64l-1.14,5.64c-.11.58,1.81.26,1.92-.3l1.14-5.63c.11-.59-1.81-.26-1.92.29Z"/><path class="cls-4" d="M327.37,172.37c12.91-2.53,23.58,5.31,32.55,13.3.41.36,2.2-.1,1.8-.72-4.52-7.16-6-14.16-2.16-22l-1.56.62.8.16c.25.05,1.84-.22,1.57-.73-4.12-7.83-14.17-7.6-21.6-10-6.32-2-11.73-1.69-15.82,3.95-.48.65,1.45.43,1.78,0,5.35-7.36,12.45-2.49,19-1.26,5.69,1.07,11.76,2.3,14.69,7.86l1.57-.74-.81-.16a1.6,1.6,0,0,0-1.56.62c-3.9,8-2.35,15.11,2.28,22.44l1.8-.72c-9.42-8.4-20.6-16.17-34.06-13.52-.85.17-1.63,1.21-.29.94Z"/><path class="cls-4" d="M321.61,180.06l-.15.26a.35.35,0,0,0,.14.53c1.36.55,2.92.42,4.35.62,4.17.58,8.29,1,12.41,1.92,7.1,1.6,15.87,3,21.23,8.22,1.56,1.52-1.08,3.73-1.95,4.94a21.23,21.23,0,0,0-3.32,9.24c-1.07,6.92,1.77,14.12,4,20.51l1.93-.52c-5.88-11.72-22.16-19.65-34.64-21.44-.62-.08-2.32.88-1.17,1.11l1.61.33c.66.13,2.29-.89,1.17-1.11l-1.61-.33-1.17,1.11c12.09,1.73,28.18,9.47,33.88,20.85.33.66,2.18.19,1.93-.52-3.14-8.87-6-17.76-2.11-26.91,1.07-2.54,5.32-5.21,3.21-8-3.77-5.06-11.24-5.38-16.66-7.13a78.93,78.93,0,0,0-12.23-2.76c-.79-.12-8.54-1.73-9.07-.79.48-.84-1.47-.68-1.81-.09Z"/><path class="cls-4" d="M307.85,194.24c-.77,4-1.41,9.13.78,12.83.34.57,2.17-.13,1.94-.52-2.18-3.66-1.56-8.62-.8-12.6.12-.61-1.81-.28-1.92.29Z"/><path class="cls-4" d="M314.18,206.79c3.18.63,6.25,1.05,9.36-.08,1.25-.46.13-1.4-.83-1.05-2.39.88-5,.38-7.39-.1-.77-.16-2.29,1-1.14,1.23Z"/><path class="cls-4" d="M328.31,219.6c7.1,1.37,14.31,2,21.33,3.76a29,29,0,0,1,10.6,4.92c.75.59,3.46,2.51,1.87,3.62a29.77,29.77,0,0,0-4.76,4.28c-10.47,11.33-2.07,27.51,1.9,39.7l1.93-.52c-8.33-15.94-24.95-21.75-41.07-26.89-.62-.2-2.27.71-1.18,1.06,15.75,5,32.17,10.76,40.32,26.35.32.62,2.15.17,1.93-.52-2.22-6.83-5-13.5-6.43-20.58-1.93-9.8,1.91-17.65,10-23.29.22-.16.5-.39.29-.67-7.66-10.6-24-10.06-35.54-12.28-.62-.12-2.28.85-1.18,1.06Z"/><path class="cls-4" d="M290.24,240.2a54.18,54.18,0,0,1,3.36,12.4c.1.57,1,.47,1.39.29,4.36-2.19,8.72-3.72,13.66-3.7,1.08,0,1.49-1.37.18-1.37-5.28,0-10,1.63-14.69,4l1.39.29a53.54,53.54,0,0,0-3.36-12.4c-.38-.84-2.29-.27-1.93.51Z"/><path class="cls-4" d="M311.66,263.12c2.78-.29,5.59.11,8.38,0,1,0,1.54-1.26.22-1.22-2.79.1-5.59-.3-8.37,0-1,.11-1.56,1.36-.23,1.22Z"/><path class="cls-4" d="M328.27,263.89c1.56,1.63,3.8,1.94,6,2.29a42.13,42.13,0,0,1,13.55,5.05,102.14,102.14,0,0,1,12.66,8.45c1.09.82-5.09,6.28-6.05,7.59-8.81,12.05-1.7,29.29.77,42.21l1.93-.52c-2.37-8.48-9.5-14.48-16.54-19.23a76.59,76.59,0,0,0-26.3-11.38l-.95,1.12c1.4.07,2.78-.06,4.18,0,.77,0,2-1.09.74-1.15s-2.79.06-4.19,0c-.52,0-2.06.89-.95,1.12a78.27,78.27,0,0,1,23.64,9.8c7.71,4.62,15.92,11.22,18.44,20.24.2.71,2.07.21,1.93-.52-3.21-16.84-11-36.37,6.15-48.36.16-.11.57-.47.28-.7a111.71,111.71,0,0,0-17.23-11.23,52.94,52.94,0,0,0-7.84-3.13c-2.77-.88-6.16-.1-8.39-2.42-.49-.52-2.32.2-1.78.77Z"/><path class="cls-4" d="M297.47,314.42c-5,.37-9.38,8.41-14.17,6.32-.52-.23-2,.56-1.82.66a7.39,7.39,0,0,0,6.13-.31,16.92,16.92,0,0,0,3.68-2.41c1.49-1.14,3.38-3.33,5.34-3.47.51,0,2.11-.89.84-.79Z"/><path class="cls-4" d="M296.73,315.55,312,318.63c1,.2,1.93-1.22.65-1.48l-15.29-3.08c-1-.2-1.94,1.22-.65,1.48Z"/><path class="cls-4" d="M321.56,319.53l9.73,2c4,.8-.24,4.54-1.68,6.57-1.85,2.61-3.88,5.07-6.81,6.5-4.29,2.09-10.11.63-14.43-.65-6.71-2-12.65-6.15-18.54-9.82-6.76-4.21-13.9-7.86-20.82-11.82-14.87-8.5-29.86-16.88-45.95-22.91-14.91-5.59-29.88-6.76-45.67-6.79-.44,0-2.08.8-1,1l2.41.49c.58.12,2.28-.79,1.2-1l-2.42-.49-1,1a180.39,180.39,0,0,1,26.08,1.47c9.43,1.39,18.51,4.84,27.24,8.55,16.36,6.94,31.64,16.24,47.07,25,6.39,3.62,12.66,7.37,19,11.14,5.69,3.4,12.17,6.3,18.88,6.69,11.05.66,15.21-6.68,21.07-14.81.2-.27,0-.46-.3-.51l-12.87-2.59c-.58-.12-2.28.78-1.2,1Z"/><path class="cls-4" d="M332.84,321c3.9,3,8.06,5.92,12.73,7.58.17.06-.81,8.35-.58,9.7.5,3,4,5.08,1.76,8.17-.71,1,1.12,1.23,1.61.53,1-1.46,1.85-2.87.79-4.65-3-5-2.37-8.72-1.07-14.21.06-.26-.19-.49-.42-.55-4.92-1.28-9.34-4.6-13.33-7.66-.65-.5-2.36.43-1.49,1.09Z"/><path class="cls-4" d="M287.25,322.62c3.71,1.62,7.29,0,9.72-3,.47-.58-1.44-.36-1.78.06-1.74,2.14-3.66,3.3-6.38,2.11-.49-.21-2.26.54-1.56.84Z"/><path class="cls-4" d="M291.38,325.26c2.74.44,5-.88,7.25-2.34,1.1-.73-.53-1.24-1.24-.76-1.66,1.09-3.24,2.16-5.31,1.82-.87-.14-2,1.07-.7,1.28Z"/><path class="cls-4" d="M295.44,328.49a20.64,20.64,0,0,0,5.94-2.47.58.58,0,0,0,.11-1,1.3,1.3,0,0,0-1.39.13,17.34,17.34,0,0,1-5,2c-1.18.33-.84,1.61.35,1.29Z"/><path class="cls-4" d="M298.33,329.84a6.63,6.63,0,0,0,6.18-2c.39-.48-1.46-.21-1.75.14a2.75,2.75,0,0,1-2.84,1.16,2.33,2.33,0,0,0-1.35.24c-.14.07-.69.43-.24.51Z"/><path class="cls-4" d="M298.23,329.86c2.25,3.1,5.7,2,8.7.73,1.24-.51.12-1.33-.8-.95-2.29.94-4.41,1.77-6.11-.58-.45-.61-2.31.08-1.79.8Z"/><path class="cls-4" d="M304.58,334.67a4.62,4.62,0,0,0,3.55-.58.59.59,0,0,0,.11-1,1.34,1.34,0,0,0-1.39.12,2.06,2.06,0,0,1-1.6.06c-.93-.19-2,1.12-.67,1.38Z"/><path class="cls-4" d="M312.32,334.14l1-.64a.64.64,0,0,0,.09-1.05,1.22,1.22,0,0,0-1.39.1l-1,.64a.63.63,0,0,0-.09,1.05,1.23,1.23,0,0,0,1.38-.1Z"/><path class="cls-4" d="M56,240c12.72,4.56,25.28,9.64,37.88,14.51,11.77,4.54,23.88,8.16,35.84,12.17a221.47,221.47,0,0,1,30.07,12.17c5.94,3,12.84,6.75,19.69,5,1.13-.28,1-.87-.16-.59-8.08,2-17.79-5.32-24.76-8.61-9.11-4.31-19-7.36-28.58-10.51-23.09-7.61-45.52-16.71-68.39-24.91-.43-.16-2.16.54-1.59.74Z"/><path class="cls-4" d="M58.8,242.2c5.58,5.07,14.32,6.88,21.33,9.1,11.86,3.76,23.5,9.26,35,14.09,10.16,4.28,19.92,9.81,30.26,13.58,7.44,2.72,17.26,4.94,22.67,11.2.3.35,2.1-.33,1.82-.65-4.94-5.73-13.6-8-20.47-10.42-10.55-3.75-20.45-9.23-30.75-13.64-11.53-4.93-23.24-9.47-34.85-14.22-7.61-3.11-16.87-4-23.17-9.69-.37-.34-2.1.4-1.82.65Z"/><path class="cls-4" d="M170.65,289.61c-3.52,2.77-3.64,7.86-3.56,12a40.65,40.65,0,0,0,4.49,17.75c3.78,7.28,9.79,13.06,13.17,20.59a29.79,29.79,0,0,1,2.18,12.48c0,1.85-1,7.14.27,8.57.38.43,2-.41,1.93-.52-1.13-1.29-.2-5.11-.31-6.76-.25-3.89,0-7.41-1.06-11.24-2-7.44-7.58-13.44-11.81-19.65a39.77,39.77,0,0,1-6.48-16.92c-.78-5-1.55-12.93,2.92-16.44.38-.29-1.39-.09-1.74.18Z"/><path class="cls-4" d="M163.27,287.23c-6.86-1.7-6.21,20.34-6.16,23.9.13,7.78,5.72,15.87,10.3,21.85,5.56,7.29,19.76,16.8,13.26,27.21-.47.76,1.47.55,1.79,0,4-6.36.51-12.28-3.82-17.43-6.08-7.23-12.36-13.37-16.55-22.05-2.9-6-3.24-10.74-2.85-17.24.07-1.14,1.52-15.57,2.84-15.25.59.15,2.27-.75,1.19-1Z"/><path class="cls-4" d="M193.08,367.5c6.5,2.95,19.79,10.22,24.83.48,4.34-8.4-5.67-12.05-12.28-11.22l.36,1.35c3.23-1.74,7-1.3,10.36-.36,3.92,1.09,5.15,3.77,6.72,7.12a13.54,13.54,0,0,0,6.87,6.47,3.84,3.84,0,0,0,4.59-1.38c2.46-4.48-.65-6.47-2.66-10.28l-1.21,1.17c7.86,1.18,14.19,12.35,20.42,2,5-8.24-8.14-12-13.64-13.16,0,.48-.09,1-.13,1.43,6.5-2.23,14.21-2,20,2.07,4.55,3.18,3.54,9.69,7.47,12.84,3.28,2.62,7.75,1.31,11.3,0,3.24-1.23,6-3.3,9.35-4.44,4.43-1.53,2.24,1.56,1.33,3.83a13.1,13.1,0,0,0-.87,4.33c0,.42.31.59.66.68,5.42,1.3,9.53-1.29,14.06-4,3.6-2.11,6.71-2.11,10.66-1.33,2.68.53,5.44-.83,7.79-1.93,3.33-1.55,6.17-3.5,9.67-4.76a11.86,11.86,0,0,0,4.67-3.1c3.45-3.63,6.78-6.39,11.76-7.57a28.7,28.7,0,0,1,8.87-.59c1,.1,2-1.34.65-1.47a29.82,29.82,0,0,0-13.41,1.63c-3.35,1.37-5.7,3.74-8.34,6.16-3.06,2.82-5.87,3.68-9.52,5.42-4.73,2.26-8.22,5.55-13.91,4.22a12,12,0,0,0-7.71,1c-3.17,1.36-5.82,3.61-9.1,4.78-7.74,2.76-3.06-5.15-2.08-8.82.13-.48-.57-.7-.91-.68-5.5.37-9.59,3.16-14.49,5.37s-9,1.62-10.8-3.42a31.37,31.37,0,0,0-2.39-5.7c-4.85-8.15-17-8.7-25.05-5.94-.77.27-1.17,1.22-.14,1.44,5,1,15,3.36,12.9,10.41-2.93,9.61-13-1.42-18.38-2.23-.63-.1-1.59.44-1.2,1.17a32.29,32.29,0,0,0,2.76,4q2.56,5.83-3.46,4.63a12.84,12.84,0,0,1-2.38-2.1c-2.22-2.31-2.66-5.81-4.92-8-4.1-4-12-4.87-17-2.18-.78.42-.62,1.47.36,1.35,5.46-.69,13.73,1.68,10.89,8.85-3.67,9.26-16.71,1.53-22.19-1-.85-.39-2.23.84-1.1,1.35Z"/><path class="cls-4" d="M185.91,305.18l-.48.73c-.06.1-.14.23,0,.33.59.49,1.25.18,1.93,0,3.31-.92,7.46-.74,10.88-1.2a71.63,71.63,0,0,1,30.5,2.92c15.54,4.81,29.53,15.19,44.06,22.37,12.67,6.26,27.17,12.18,41.56,11.06,9-.71,21.39-4.52,23.89-14.42.15-.58-1.77-.29-1.92.29-3.74,14.83-25.46,14.42-37,11.69-13.62-3.23-26.21-9.84-38.41-16.5s-24-14.1-37.66-17.21a73.65,73.65,0,0,0-20-1.49c-2.7.14-5.34.47-8,.83a48.54,48.54,0,0,1-6.48.44c-.93,0-1.84,1.24-1.12.12.44-.66-1.48-.4-1.77.05Z"/><path class="cls-4" d="M188.1,319.41c17.31-3.06,35.73-3.26,52.44,2.79,14.18,5.14,26.5,14.59,40.55,20.14a59.76,59.76,0,0,0,36.14,2.5c8.21-1.87,20.55-5.65,22.95-14.95.19-.76-1.76-.47-1.94.22-2.91,11.32-20.79,14.11-30.49,15.25-15,1.74-29.21-5.18-42-12.06-11.87-6.39-23.13-13-36.54-15.57s-27.48-1.82-40.85.54c-.94.17-1.57,1.38-.25,1.14Z"/><path class="cls-4" d="M194.35,331.52c6.59.91,13-1.35,19.66-.53a152.55,152.55,0,0,1,24.5,5.53c13.72,4,26.78,10,40.57,13.86,11.52,3.22,23.74,4.86,35.37,1.45,11.46-3.37,21.33-11.21,28.7-20.42.44-.55-1.45-.31-1.77.09-8.35,10.44-19.57,18.56-32.92,21s-28.34-2.69-40.85-7.07c-12-4.2-23.72-8.84-36-12.12a131.71,131.71,0,0,0-18.16-3.4c-6-.74-11.9,1.57-17.87.75-.47-.07-2.24.73-1.23.87Z"/><path class="cls-4" d="M202.2,345.64c.83-7.77,66,8.13,72.3,9.55,9.5,2.13,19.13,4.95,28.82,6.05,7,.79,14.9-1.84,21.35-4.27,8.3-3.13,16.58-8.13,21.55-15.64.52-.8-1.44-.67-1.81-.1-8.89,13.45-29.72,21-45.35,18-12.71-2.5-25.3-5.6-37.95-8.35-14.1-3.05-28.3-6.09-42.65-7.73-3-.34-17.6-2.87-18.2,2.73-.09.85,1.86.5,1.94-.21Z"/><path class="cls-4" d="M69.21,244.14c31.9-27.65,67.69-50.19,99.49-77.93,15.87-13.84,33.73-24.51,50.87-36.64a270.43,270.43,0,0,0,23.49-18.7c3.56-3.16,7.07-6.37,10.6-9.56,1.75-1.59,3.52-3.17,5.28-4.74,1.48-1.32,3.49-3.88,5.45-4.54,1.17-.38.81-1.82-.38-1.42-2.61.87-4.35,3.21-6.37,5-4,3.53-7.94,7.14-11.9,10.72a286.46,286.46,0,0,1-23.17,19.3c-17.32,12.63-36.14,23.07-52.37,37.18-7.9,6.86-15.74,13.78-23.92,20.31s-17.12,12.51-25.67,18.78c-18,13.19-35.83,26.65-52.7,41.28-1,.86.53,1.65,1.3,1Z"/><path class="cls-4" d="M206.2,137.78c-7.38,10.14-12.16,21.89-16.88,33.42-5.46,13.34-11.49,26.37-17.48,39.48s-11.48,26.4-17.22,39.61c-1.82,4.21-3.94,8.27-5.68,12.51-1.36,3.32-3.17,7.7-2,11.33.13.42,2.05-.14,1.94-.51-1.27-4,1-8.65,2.46-12.31,1.69-4.12,3.78-8.07,5.55-12.16,5.88-13.54,11.54-27.15,17.68-40.58,5.73-12.52,11.48-25,16.68-37.73,4.71-11.53,9.51-23.28,16.88-33.41a2.47,2.47,0,0,0-1.9.35Z"/><path class="cls-4" d="M118.27,207.15c10.09-5,20.85-5.35,29.73,2.14,7.49,6.32,11.07,16.37,12.65,25.74.13.74,2.07.27,1.93-.51-1.84-10.89-6.35-21.64-15.61-28.2-8.93-6.33-20.24-4.63-29.49-.07-1.2.59-.11,1.34.79.9Z"/><path class="cls-4" d="M104.6,256.33c-.12-1.58,6.35-5.81,7.43-6.72,3.09-2.57,6.3-5.07,9.17-7.9,10.69-10.56,20.86-22.26,33.33-30.78,1.09-.74-.57-1.06-1.21-.63C140.55,219,130.15,231,119.21,241.77c-3.46,3.42-7.44,6.38-11.16,9.51-1.17,1-5.53,3.69-5.38,5.57,0,.67,2,.25,1.93-.52Z"/><path class="cls-4" d="M182.39,188.33c6.13-2.71,11.12-7.14,16-11.68,6.14-5.74,12.4-10.92,19-16.08,13.37-10.41,24.15-23.81,38.55-32.95,1.11-.7-.51-1.3-1.26-.82-13.45,8.54-24,20.69-36,30.91-5.68,4.81-11.77,8.9-17.21,14-6.13,5.76-12,12.1-19.86,15.55-1.22.54-.13,1.5.84,1.07Z"/><path class="cls-4" d="M203.57,171.57c-1,10.43-5.71,19.84-10.23,29.14-5,10.32-9.57,20.87-14.42,31.27-4.69,10.08-9,20.42-13.89,30.38-1.72,3.47-7.74,11-6.21,15,.2.52,2.1-.07,1.93-.52-.84-2.22,1.52-5.8,2.45-7.71,1.27-2.58,2.73-5.06,4-7.63,5.12-10.35,9.55-21.11,14.44-31.58,4.58-9.82,8.89-19.78,13.61-29.54,4.51-9.31,9.2-18.7,10.23-29.14,0-.58-1.87-.18-1.92.32Z"/><path class="cls-4" d="M133.47,233c4.15-.57,7.61-2.67,11.55-3.94,6-1.93,11.31,2,14.24,6.7,3.87,6.26,4.61,14.18,6.19,21.21.14.6,2.07.11,1.93-.51-1.89-8.42-2.76-18-8.76-24.71a13.09,13.09,0,0,0-9.32-4.08c-5.67,0-10.05,3.62-15.54,4.37-.89.12-1.64,1.15-.29,1Z"/><path class="cls-4" d="M213.39,213.39a26.23,26.23,0,0,0,8.06-5.34c.39-.38-1.42-.15-1.75.17a24.16,24.16,0,0,1-7.41,4.94c-1.17.5.66.41,1.1.23Z"/><path class="cls-4" d="M210.21,210.59a24.86,24.86,0,0,0,10-5.11c.79-.69-1.13-.5-1.51-.17a21.65,21.65,0,0,1-8.69,4.53c-1.14.31-.94,1.07.2.75Z"/><path class="cls-4" d="M209.93,205.86c3.65.58,6.82-1.31,9.36-3.77.85-.83-1-1-1.59-.47-2,1.89-4.24,3.41-7.07,3-.88-.14-2,1.08-.7,1.28Z"/><path class="cls-4" d="M209.74,200.44a24.86,24.86,0,0,0,10-5.11c.78-.68-1.14-.48-1.51-.15a21.56,21.56,0,0,1-8.69,4.52c-1.13.32-.94,1.05.2.74Z"/><path class="cls-4" d="M210.62,194.75c2.29-1.48,4.77-2.58,6.77-4.49.94-.91-.56-1.67-1.3-1-2,1.91-4.48,3-6.77,4.5-1.1.7.47,1.49,1.3.95Z"/><path class="cls-4" d="M212.17,190.67c2-1.26,4.43-1.63,6.45-2.89,1.1-.7-.6-.87-1.18-.51-2,1.26-4.43,1.63-6.45,2.89-1.1.69.6.87,1.18.51Z"/><path class="cls-4" d="M200.8,245.8c2.18-2.51,6.17-2.19,9.2-2.31,1.1-.05,1.49-1.48.17-1.42-3.79.15-8.28,0-11,3.16-.81.93,1,1.24,1.61.57Z"/><path class="cls-4" d="M196.09,253.75c4.12-1.09,8.18-2.07,11.82-4.38.81-.51-1.13-.26-1.47-.05-3.24,2.06-6.86,2.88-10.51,3.85-1.13.3-1,.88.16.58Z"/><path class="cls-4" d="M196.41,259.64c2.34-2.19,5.7-3.06,8.55-4.39,1.15-.53-.67-.4-1.1-.2-3.08,1.44-6.65,2.4-9.19,4.77-.38.35,1.42.12,1.74-.18Z"/><path class="cls-4" d="M195.44,266.33c2.4-1,4.64-2.35,7-3.36,1.25-.52.09-1-.73-.66-2.4,1-4.64,2.34-7,3.35-1.25.53-.09,1,.73.67Z"/><path class="cls-4" d="M194.84,273.45a48.62,48.62,0,0,0,8.17-4.07c1.1-.72-.57-1.05-1.21-.63a45.76,45.76,0,0,1-7.74,3.85c-1.24.51-.11,1.22.78.85Z"/><path class="cls-4" d="M281.92,216.26c2.85-1.09,6-1.28,8.92-2,1.18-.3.89-1.36-.28-1.06-3.13.8-6.4,1.05-9.43,2.21-1.26.48-.12,1.24.79.89Z"/><path class="cls-4" d="M279.42,220.64a28.93,28.93,0,0,0,9.16-2.45c1.27-.52.07-.75-.67-.45a24.34,24.34,0,0,1-7.66,2.12c-.51,0-2.11.87-.83.78Z"/><path class="cls-4" d="M281.45,224.89c1.92-.5,3.9-.72,5.82-1.21.2-.05,1-.29.86-.62s-.86-.16-1.06-.1c-1.91.49-3.89.71-5.81,1.21-.2.05-1,.28-.87.62s.86.15,1.06.1Z"/><path class="cls-4" d="M281,231.1c1.81-.54,3.4-1.6,5.2-2.13.17-.05,1-.26.89-.56s-.89-.1-1.05,0c-1.81.54-3.4,1.6-5.2,2.14-.16,0-1,.25-.89.56s.89.09,1.05,0Z"/><path class="cls-4" d="M282.52,267.44a9.22,9.22,0,0,1,4,.18,1.56,1.56,0,0,0,1.37-.37.44.44,0,0,0-.21-.79,12.32,12.32,0,0,0-5.47-.14c-.32.08-.93.39-.82.82s.8.38,1.12.3Z"/><path class="cls-4" d="M279.38,274.5a49.48,49.48,0,0,1,6.47-1.77c.76-.11,1.73-.87.36-.68a52.88,52.88,0,0,0-7,1.88c-1.12.32-1,.88.15.57Z"/><path class="cls-4" d="M280.08,279.79c1.74.3,3.2-.34,4.85-.8.27-.08.94-.34.83-.75s-.82-.3-1.09-.22c-1.11.31-2.23.92-3.41.72a1.7,1.7,0,0,0-1.36.36c-.3.27-.23.62.18.69Z"/><path class="cls-4" d="M275.74,287.43a23.52,23.52,0,0,0,9.49-3.38c.82-.52-1.13-.32-1.49-.09a18.7,18.7,0,0,1-7.65,2.72c-.8.11-1.71.93-.35.75Z"/><path class="cls-4" d="M278.33,291.23c2.88.47,5.86-.64,8.25-2.18.78-.5-1.15-.19-1.46,0a7.32,7.32,0,0,1-5.2,1.47,2.6,2.6,0,0,0-1.34.26c-.13.06-.69.37-.25.44Z"/><path class="cls-4" d="M281.55,163a7.89,7.89,0,0,1,4.68-.35,1.46,1.46,0,0,0,1.36-.37.47.47,0,0,0-.22-.83,11.11,11.11,0,0,0-6.64.55c-.32.12-.77.55-.48.91s.92.24,1.3.09Z"/><path class="cls-4" d="M279.22,168.4a54.13,54.13,0,0,0,6.84-1.1c1.21-.31.83-1.72-.37-1.41a51.67,51.67,0,0,1-6.32,1c-1.1.13-1.46,1.65-.15,1.49Z"/><path class="cls-4" d="M280.38,171.66c1.36-.35,2.77-.41,4.13-.76,1.19-.31.85-1.59-.34-1.28-1.36.35-2.77.41-4.13.76-1.2.31-.85,1.59.34,1.28Z"/><path class="cls-4" d="M277.78,176.75a15.47,15.47,0,0,0,6.38-.49c1.16-.3.89-1.29-.27-1a11.92,11.92,0,0,1-4.93.41,1.69,1.69,0,0,0-1.37.37c-.29.26-.22.63.19.7Z"/><path class="cls-4" d="M282.49,180.77a18.44,18.44,0,0,0,4.9-2.5c.3-.2.55-.64.14-.87a1.38,1.38,0,0,0-1.37.15,15.42,15.42,0,0,1-4,2.08c-.32.09-.93.38-.81.82s.8.41,1.12.32Z"/><path class="cls-4" d="M282.87,127.57a11,11,0,0,1,4.93-.44,1.52,1.52,0,0,0,1.37-.36A.46.46,0,0,0,289,126a14.11,14.11,0,0,0-6.39.46c-1.17.32-.87,1.48.31,1.16Z"/><path class="cls-4" d="M281.05,132.84c1.74-.43,3.62-.21,5.4-.41,1.06-.12,1.49-1.54.17-1.39-2,.22-4,0-5.92.5-1.2.29-.84,1.59.35,1.3Z"/><path class="cls-4" d="M281.31,137.05c1.66.28,3.07-.35,4.64-.8,1.19-.34.82-1.73-.37-1.39s-2.35.94-3.62.73c-1-.17-1.95,1.24-.65,1.46Z"/><path class="cls-4" d="M282.56,141.09A4,4,0,0,0,284,141a3.11,3.11,0,0,1,1-.22,1.91,1.91,0,0,0,1.37-.37c.3-.25.23-.56-.17-.61a3.77,3.77,0,0,0-1.42.08,3.65,3.65,0,0,1-1,.22,1.86,1.86,0,0,0-1.37.36c-.3.25-.23.56.17.62Z"/><path class="cls-4" d="M326.67,157.84a25.55,25.55,0,0,0,7.56-.14c.47,0,2.11-.89.85-.73a22.88,22.88,0,0,1-6.81.15c-.45-.08-2.1.63-1.6.72Z"/><path class="cls-4" d="M326.26,161.07a21.5,21.5,0,0,0,6.73.49c1-.11,1.6-1.26.26-1.11a18.61,18.61,0,0,1-5.81-.45c-.64-.13-2.28.85-1.18,1.07Z"/><path class="cls-4" d="M327.29,165.41c1.36.28,2.73.51,4-.27.35-.22.75-.63.44-1.06a1.06,1.06,0,0,0-1.32-.18,3.2,3.2,0,0,1-2.45,0c-1-.21-1.92,1.23-.64,1.49Z"/><path class="cls-4" d="M326.65,164.92c.57,1.82,2.53,3,4.3,3.37a2.08,2.08,0,0,0,1.36-.22c.16-.09.67-.5.21-.6-1.63-.36-3.42-1.39-3.94-3.06-.17-.54-2.09,0-1.93.51Z"/><path class="cls-4" d="M322.21,186.37c1.51-.86,4.05-.46,5.66-.17,1,.19,1.94-1.25.65-1.49-2.14-.39-5.2-.71-7.19.42-1.13.65-.11,1.81.88,1.24Z"/><path class="cls-4" d="M320.08,189.87a21,21,0,0,1,6-.28c.51.08,2.26-.75,1.22-.93a24.45,24.45,0,0,0-6.88.31c-.86.11-1.66,1.07-.31.9Z"/><path class="cls-4" d="M321.19,194.31l3.82.77a1.49,1.49,0,0,0,1.37-.37.48.48,0,0,0-.23-.84l-3.82-.77a1.45,1.45,0,0,0-1.36.37.48.48,0,0,0,.22.84Z"/><path class="cls-4" d="M320.82,198.85l3.05.61a2.07,2.07,0,0,0,1.36-.22c.16-.08.67-.49.22-.58l-3.06-.62a2.08,2.08,0,0,0-1.36.23c-.15.08-.67.48-.21.58Z"/><path class="cls-4" d="M320.84,228.19c2.89-.29,5.81.25,8.71.16.52,0,2.12-.82.84-.78-2.91.09-5.81-.45-8.72-.16-.49.05-2.1.9-.83.78Z"/><path class="cls-4" d="M318.62,233.36c3.3.51,6.17-1.11,9.39-1.36.49,0,2.12-.84.85-.75-2.88.23-5.76,1.82-8.65,1.38-.45-.07-2.09.65-1.59.73Z"/><path class="cls-4" d="M321.12,238c1.58.26,3.17-.1,4.74.16a1.66,1.66,0,0,0,1.36-.37c.29-.27.23-.66-.19-.73-1.58-.26-3.17.1-4.74-.16a1.63,1.63,0,0,0-1.37.37.4.4,0,0,0,.2.73Z"/><path class="cls-4" d="M317,242.73a38.53,38.53,0,0,0,9.17.19c1,0,1.57-1.25.24-1.19a35,35,0,0,1-8.25-.14c-.69-.12-2.29.93-1.16,1.14Z"/><path class="cls-4" d="M319.83,247.14l4.58.92a2.17,2.17,0,0,0,1.35-.24c.15-.07.68-.44.23-.53l-4.58-.92a2.2,2.2,0,0,0-1.35.24c-.15.07-.68.44-.23.53Z"/><path class="cls-4" d="M323.82,278.21a19.19,19.19,0,0,1,5.8.45,1.66,1.66,0,0,0,1.37-.36.41.41,0,0,0-.2-.74,22.07,22.07,0,0,0-6.73-.49c-1,.1-1.58,1.28-.24,1.14Z"/><path class="cls-4" d="M319.35,282.06l6.87,1.38c.5.1,2.26-.69,1.23-.89l-6.88-1.39c-.49-.1-2.25.69-1.22.9Z"/><path class="cls-4" d="M318.14,288.29l6.12,1.23a1.57,1.57,0,0,0,1.36-.37.41.41,0,0,0-.2-.75l-6.11-1.24a1.62,1.62,0,0,0-1.37.37.42.42,0,0,0,.2.76Z"/><path class="cls-4" d="M317.31,293.76a16.21,16.21,0,0,0,6.93-.33c1.2-.31.85-1.61-.34-1.3a13.72,13.72,0,0,1-5.91.25c-.94-.16-2,1.15-.68,1.38Z"/><path class="cls-4" d="M240.1,111.07c2.2.43,4.86.5,6.84-.7,1.12-.67-.59-.85-1.18-.5-1.23.74-3.11.47-4.47.21-.56-.11-2.27.78-1.19,1Z"/><path class="cls-4" d="M241.27,116.7l5-1.36c.27-.08,1-.34.84-.74s-.82-.28-1.09-.21l-5,1.37c-.27.07-.94.33-.84.73s.83.29,1.09.21Z"/><path class="cls-4" d="M238.36,121.22l4.59.93c1,.19,2-1.17.66-1.43L239,119.8c-1-.2-1.95,1.16-.67,1.42Z"/><path class="cls-4" d="M280.39,73.16a28.06,28.06,0,0,0,8.26.81c1-.1,1.54-1.4.21-1.26a25.22,25.22,0,0,1-7.33-.74c-.73-.15-2.29,1-1.14,1.19Z"/><path class="cls-4" d="M281.14,69.28l1.53.31a1.66,1.66,0,0,0,1.37-.37.39.39,0,0,0-.2-.71l-1.52-.31a1.66,1.66,0,0,0-1.37.37.38.38,0,0,0,.19.71Z"/><path class="cls-4" d="M282.17,66.7a1.65,1.65,0,0,1-.39-1.46l-.38.37a3.57,3.57,0,0,1,2.18-.66,1.89,1.89,0,0,0,1.36-.37c.31-.25.23-.54-.16-.6a7.08,7.08,0,0,0-3.92.82c-.62.3-1,.52-1.09,1.25a2.33,2.33,0,0,0,.6,1.37c.32.48,2.2-.13,1.8-.72Z"/><path class="cls-4" d="M309.3,66.85c0-.09,0-.11,0-.06a.9.9,0,0,1-.47.28c-.34.11-.45,0-.15.09a6.34,6.34,0,0,1,1.17.76c.6.46,2.34-.4,1.51-1a4,4,0,0,0-2.2-1,1.7,1.7,0,0,0-1.82,1.2c-.21.84,1.76.57,1.94-.19Z"/><path class="cls-4" d="M307.37,67.2a5.38,5.38,0,0,0,1,2.07,3.33,3.33,0,0,0,2,1.06,1.8,1.8,0,0,0,1.36-.36c.33-.26.21-.52-.16-.6-1.36-.3-1.89-1.45-2.23-2.68-.17-.6-2.1-.08-1.93.51Z"/><path class="cls-4" d="M155.24,207.66c3.41,1.56,4.3,5.46,7,7.74.47.39,2.24-.35,1.8-.72-2.85-2.36-3.75-6.26-7.3-7.88-.5-.23-2.28.53-1.55.86Z"/><path class="cls-4" d="M159.26,202.89a86.2,86.2,0,0,1,5.87,9.81c.36.73,2.25.13,1.93-.51a87.66,87.66,0,0,0-6-10.08c-.4-.61-2.26.06-1.78.78Z"/><path class="cls-4" d="M164.23,201.39a9.84,9.84,0,0,0,3.27,4.86c.61.5,2.33-.38,1.5-1.06a8.83,8.83,0,0,1-2.84-4.32c-.24-.83-2.17-.3-1.93.52Z"/><path class="cls-4" d="M168.37,196.52c-.21,1.28,1,2.3,1.89,3a1.38,1.38,0,0,0,1.28,0c.18-.08.87-.49.52-.76-.69-.55-1.93-1.47-1.76-2.51.11-.74-1.83-.39-1.93.25Z"/><path class="cls-4" d="M171.73,191.59a2.19,2.19,0,0,0,1.63,2.38,1.39,1.39,0,0,0,1.37-.36.53.53,0,0,0-.24-.9,1.15,1.15,0,0,1-.81-1.28c.14-1-1.83-.67-2,.16Z"/><path class="cls-4" d="M176.49,183.84a1.22,1.22,0,0,0,0,.92c.19.28.67.33,1,.39a1.71,1.71,0,0,0,1.36-.37c.31-.26.22-.58-.17-.66l-.34-.07c.06,0-.08-.09,0,0s.07-.36.09-.46c.14-.72-1.8-.39-1.93.25Z"/><path class="cls-4" d="M180.15,177.37l-.15.77c-.2,1,1.78.72,1.95-.15.06-.25.11-.51.16-.76.19-1-1.78-.73-2,.14Z"/><path class="cls-4" d="M165.79,229.66a12.22,12.22,0,0,1,2.83,5.22c.21.75,2.14.22,1.93-.52a13,13,0,0,0-3-5.49c-.52-.53-2.36.2-1.79.79Z"/><path class="cls-4" d="M169,221.59c1.19,1.92,1.54,4.21,2.74,6.12.47.76,2.31,0,1.77-.86-1.2-1.91-1.55-4.2-2.75-6.12-.47-.76-2.31,0-1.76.86Z"/><path class="cls-4" d="M170.94,215.46a38.2,38.2,0,0,1,3.51,6.28c.17.41,2.05-.23,1.93-.52a37.79,37.79,0,0,0-3.51-6.27c-.29-.44-2,.34-1.93.51Z"/><path class="cls-4" d="M176.29,208.4c-.42,2.69.68,5.25,1.68,7.68.36.88,2.28.33,1.93-.51-.94-2.31-2.05-4.76-1.66-7.31.16-1-1.82-.74-2,.14Z"/><path class="cls-4" d="M179.53,204.37a4.53,4.53,0,0,0,1.57,4.46c.44.37,2.18-.38,1.81-.68a4.24,4.24,0,0,1-1.47-4.1c.09-.55-1.82-.2-1.91.32Z"/><path class="cls-4" d="M184.41,199.89a11.06,11.06,0,0,0,1.61,4.44c.44.7,2.3,0,1.77-.83a10.15,10.15,0,0,1-1.44-4.13c-.11-.85-2-.38-1.94.52Z"/></svg>