<svg id="layer1" xmlns="http://www.w3.org/2000/svg" viewBox="0 0 335.19 249.24"><defs><style>.cls-1{fill:#ffce55;}.cls-2{fill:#492d0c;}.cls-3{fill:#f9da78;}</style></defs><path class="cls-1" d="M161.72,178.21c.1-2.58.17-5.15.18-7.73a2.5,2.5,0,0,0-1-2.08,56.8,56.8,0,0,0,1-12.46,2.66,2.66,0,0,0-3.64-2.45c-3.36-6.88-10.5-12.07-17.58-15.09-9.91-4.22-23.37-5.73-32.27,1.26-5.33-.45-11.42,1.1-16.1,2.53C81.88,144,72.5,148.64,67.46,159.3c-1.57,3.34-1.82,7.23-.38,9.84a2.59,2.59,0,0,0-1.1,1.52,36.79,36.79,0,0,0-1.22,7.14c-4.17,14-.64,30.13,2.13,44a2.63,2.63,0,0,0,2.62,1.89h.9A2.65,2.65,0,0,0,73,222a3.22,3.22,0,0,0,1.07.76c0,.07,0,.15,0,.22.09,1.86,2.31,3.64,4.08,2.35a15.52,15.52,0,0,0,4-4.36l.23.11.47.15a2.18,2.18,0,0,0,2.07.85c.4,0,.8-.1,1.21-.16a55.66,55.66,0,0,0,6,.16,2.6,2.6,0,0,0,2.64-2.67c2.37-.92,4.72-1.94,7.07-2.86a2.87,2.87,0,0,0,4.42-.36c.36-.47.69-1,1-1.46a26.1,26.1,0,0,1,5.61-.93c.07.28.13.57.2.85a2.41,2.41,0,0,0,1.69,1.77,24.65,24.65,0,0,0,1,4.57c.77,2.3,4.82,2.87,5.24,0,.25-1.68.61-3.37.83-5.08.06,0,.32.07.32.11v4.25A2.75,2.75,0,0,0,127,222c.22.88.38,1.76.64,2.64a2.7,2.7,0,0,0,5.1.22l.58.49c-.09.09-.2.17-.29.27-2.1,2.22-1.75,4.78.45,6.78,5.88,5.35,13.44-1.71,18-5.24a3.15,3.15,0,0,0,1.22-2.44,23.1,23.1,0,0,0,4.82-8.11,2.39,2.39,0,0,0,2.46-1.94,118.9,118.9,0,0,0,2.46-26.28A65.27,65.27,0,0,0,161.72,178.21ZM70.08,179c.18-.62.38-1.23.59-1.85-.13,3.49-.18,7-.38,10.49A53.19,53.19,0,0,1,70.08,179Zm68.86,28c-.53-3.89-1.29-7.76-2.15-11.62.1-.75.19-1.5.27-2.24.79,4.2,1.49,8.41,2,12.64C139.05,206.14,139,206.54,138.94,207Zm-51.4-34.34c0-.56,0-1.11,0-1.66,0-.18,0-.37,0-.55,0,.26,0,.54,0,.87S87.56,172.16,87.54,172.61Zm21.88-20.31a2.69,2.69,0,0,0,.44,1.5l-1.22.41A2.25,2.25,0,0,0,109.42,152.3Zm23.26,12.07a16.43,16.43,0,0,1-3.44-4.79c1.47.37,3,.71,4.45,1a24.22,24.22,0,0,0,2.1,3A3.12,3.12,0,0,0,132.68,164.37Zm4.76,1.63V166h0l-.09-.54a1.09,1.09,0,0,0,0-.17q.57.57,1.14,1.11v.26l-.93-.2C137.49,166.28,137.47,166.14,137.44,166Zm14.1,18.15c-.4-4.57-.79-9.13-1.06-13.71a2.78,2.78,0,0,1,1.21.07,3.25,3.25,0,0,1,1.22.64,2.49,2.49,0,0,0-1,2C151.92,176.85,151.75,180.5,151.54,184.15ZM109.42,152.3a3,3,0,0,0-.77-1.66l1.16.08A3.33,3.33,0,0,0,109.42,152.3Zm42.35,9.1a29.94,29.94,0,0,1-3.6-5.47c.46,0,.93.07,1.4.08A9.59,9.59,0,0,1,151.77,161.4Zm-52.86-11c1.62-.07,3.25-.05,4.87,0-1.13.39-2.24.84-3.33,1.33A27.19,27.19,0,0,0,92.24,155a23.87,23.87,0,0,0-7.15,1.12,48.31,48.31,0,0,1,7.69-4.67c.52-.27,1-.52,1.57-.76C96,150.56,97.56,150.48,98.91,150.43Zm-13.2,63.32c1-3.15,1.88-6.29,2.61-9.44.14,3,.37,6.07.67,9.08a26.43,26.43,0,0,0-3.7,1.17A2.82,2.82,0,0,0,85.71,213.75Zm15.34-40.84c0-.22.06-.44.1-.66,0,.29-.05.57-.07.86Zm38.56,47.8c.14-.21.29-.4.42-.61a24.27,24.27,0,0,0,.75,3.87c-.47-.19-.92-.4-1.36-.63C139.5,222.46,139.57,221.58,139.61,220.71Zm5.92.2c0-.07,0-.2,0-.2h0s0-.24,0-.35,0-.07,0-.09c0-1,0-1.78,0-2.78a3.37,3.37,0,0,0,3.6-1.78h.06a3.49,3.49,0,0,0,0-.72s0-.17,0-.21c0-1.87,0-3.79,0-5.66a3.13,3.13,0,0,0,1.22.09c0,.78.05,1.54.09,2.32-.83,4.07-2.23,8-4.71,10.71C145.73,221.8,145.62,221.36,145.53,220.91Zm-44.79-16.55c.09,2.35.2,4.69.31,7l-1.69.69A62,62,0,0,0,100.74,204.36Zm9.53,4.15c.29-2.81.55-5.62.8-8.44q.06,1.32.15,2.64c0,1.93,0,3.87,0,5.8l-.94.13Zm25.92-66.06a29.06,29.06,0,0,0-8.71-1,2.72,2.72,0,0,0-2.22,1.24c-2.15,0-4.3.09-6.4.22a29.92,29.92,0,0,0-3.42-.94.88.88,0,0,0-.15-.12C121.68,139.12,129.64,140.23,136.19,142.45ZM73.26,159.9a3.62,3.62,0,0,0,.41.27c-.09.26-.19.51-.27.77a2.42,2.42,0,0,0-1.08,1.55c-.25,1.07-.45,2.15-.63,3.22l-.4.51C70.65,165.05,72.4,161.49,73.26,159.9Z"/><path class="cls-2" d="M74.67,173.2c-2.08.75-2.18,4.53-2.42,6.27a159.36,159.36,0,0,0-1.09,17.34C70.83,207.92,71,219,71,230.15c0,.88,1.94.49,1.93-.21,0-9.33-.1-18.65,0-28,.09-5.74.27-11.49.67-17.22.1-1.37.09-10,1.81-10.65,1.27-.46.12-1.23-.79-.9Z"/><path class="cls-2" d="M76.75,173.41a149.08,149.08,0,0,0,16.69-5.56c3.17-1.2,6.34-2.39,9.55-3.48s8.81-3.47,12.26-2.19c7.11,2.64,11.74,12.13,16.31,17.71.43.52,2.29-.16,1.79-.76-2.69-3.28-5.06-6.8-7.75-10.07-2.41-2.92-5.81-7.23-9.74-8.16-4.6-1.09-10.76,1.62-15,3.11-8.1,2.86-16,6.32-24.36,8.41-1.17.3-.9,1.28.26,1Z"/><path class="cls-2" d="M111.31,165.65c-.07,9.41-.17,19.12-1.15,28.48-.61,5.88-2.73,14.05.48,19.51.47.81,2.3,0,1.76-.88-3.14-5.34-.76-14.11-.15-19.9.93-9,1-18.32,1-27.33,0-1.06-2-.82-2,.12Z"/><path class="cls-2" d="M136.44,179.89c7.39-1.79,14.39-2.41,20.94-6.59s11.83-11.65,7.94-19.35c-3.43-6.82-11.77-11.26-18.63-13.82-7.36-2.74-15.38-3.53-23.18-3.65-14.48-.22-31.09,2.25-44.32,8.43-6.22,2.9-12.17,7-15.37,13.28-3.57,7,1.47,13,7.24,16.54.52.32,2.2-.46,1.81-.7-5.63-3.45-9.83-8.3-7.54-15.16s9.89-11.37,16.06-14c12.27-5.25,26.67-7.29,39.91-7.47,13.92-.19,28,2.89,38.47,12.54,6.7,6.18,6.18,13.41.18,19.78-6.45,6.85-15.2,7.33-23.72,9.4-1.15.28-.94,1,.21.77Z"/><path class="cls-2" d="M62.23,163.86c-.53,13.24-1.24,26.45-.62,39.71.26,5.53.21,27.38,10.25,25.64,1-.17,1.53-1.49.21-1.26-12.84,2.23-8.22-56.16-7.9-64.28,0-.92-1.91-.58-1.94.19Z"/><path class="cls-2" d="M164.27,158c0,14.05.79,28-.56,42-.72,7.57-1.91,15.5-5.36,22.37a13.53,13.53,0,0,1-6.74,6.66c-5.37,2.38-11.8,5-17.75,4.64-.38,0-2.2.66-1.27.73,4.31.29,8.58-1,12.63-2.32,3.29-1.06,7.24-2.21,10.12-4.21,5.9-4.1,7.7-12.31,9-18.92,3.29-17,2-34.34,1.88-51.51,0-.25-1.94,0-1.93.52Z"/><path class="cls-2" d="M78.16,181.49c-2.36,2.84-2.71,6.42.9,8.33,2.81,1.48,7.15,1.08,9.08-1.66,2.27-3.25.9-7.88-3.24-8.41-3.65-.46-8.08,1.71-7.7,5.88.07.75,2,.31,1.93-.52-.29-3.2,3-4.79,5.76-3.93,3,.91,3,5.16,1.18,7.13-1.58,1.73-4.45,1.22-6.2.08-2.49-1.62-1.76-4.51-.13-6.47.75-.91-1.11-1-1.58-.43Z"/><path class="cls-2" d="M102.31,181.13a6.86,6.86,0,0,0-.7,5.09c.63,2.16,3.22,1.37,4.6.49a3.36,3.36,0,0,0,.67-5.25,3.14,3.14,0,0,0-5,.43c-.45.78,1.49.56,1.8,0,.07-.12.2-.41.33-.47-.27.13.08.08.34.21a3,3,0,0,1,1.27,1.36,2.52,2.52,0,0,1-1.26,3.5c-.77.34-1-1.52-1-2a6.33,6.33,0,0,1,.75-3.39c.46-.76-1.48-.55-1.8,0Z"/><path class="cls-2" d="M79.24,207.11c-2.93,2-.28,5.37,2.19,6.26,2.65.95,6.6-.69,6.57-3.84,0-2.27-2.74-3.75-4.72-3.85-3-.16-4.74,1.94-4.64,4.82,0,.52,2,.16,1.93-.51,0-1.51.32-3.6,2.22-3.27A4.14,4.14,0,0,1,86,209.57a2.62,2.62,0,0,1-.59,2.24c-.83,1.1-2,.93-3.11.4-1.67-.79-3.59-3.46-1.53-4.87.33-.24.2-.54-.16-.6a2,2,0,0,0-1.37.37Z"/><path class="cls-2" d="M100.63,206.05c-6-.22-6.8,11.2-.65,10.4,4.38-.57,6.43-5.43,2.82-8.42a5.39,5.39,0,0,0-5.34-.86c-2.09,1-2.34,3.51-2.81,5.51-.11.47,1.8.18,1.91-.33a21.32,21.32,0,0,1,1.1-3.84c.76-1.73,3-.18,3.92.73a4.45,4.45,0,0,1,1.19,3.69c-.17,1.32-1.56,3-3,2.7-1.62-.38-2-2.67-2-4a8.2,8.2,0,0,1,.45-2.86c.13-.38.71-1.88,1.23-1.86s2.22-.79,1.24-.83Z"/><path class="cls-2" d="M73.47,231.93c3-.46,6.77-.44,8.91-2.83,2.81-3.14,5.33-2.2,8.91-2.5,2.79-.23,5.49-1.71,7.92-3,4.85-2.52,10.43-6.14,16.18-3.89,2.61,1,3.86,4.05,6.74,4.65,1.85.39,3.49-.26,4.21,1.89.91,2.68,2.55,4.13,3.91,6.53.37.64,2.22,0,1.94-.52-1.34-2.34-3.21-3.74-3.92-6.53-.25-1-.71-2.1-1.86-2.18-3.76-.24-5.51-1.83-8.35-4.06-2-1.58-4.55-1.61-7-1.46a23.79,23.79,0,0,0-8.8,2.67c-1.45.73-2.86,1.57-4.29,2.35-4,2.21-6.8,2.23-11.4,2.15a4.59,4.59,0,0,0-3.53,1.2c-.87.87-1.72,1.71-2.5,2.65-1,1.22-5.09,1.54-6.85,1.82-.91.14-1.61,1.25-.27,1Z"/><path class="cls-2" d="M126.2,180a3.61,3.61,0,0,0-3,2.65,5.08,5.08,0,0,0,.67,4.45c1.32,1.55,5.87,1.2,6.32-1.13.38-1.93-1.72-4.18-3.36-4.85a3.69,3.69,0,0,0-3,.2c-1.18.59-1.42,1.88-1.5,3.09,0,.3,1.9.07,1.93-.52a3.66,3.66,0,0,1,.69-2.25c-.08.09-.62-.06,0,.14a3.53,3.53,0,0,1,.86.45,5.77,5.77,0,0,1,2.4,3.34c.4,1.69-1.24,2.16-2.39,1a4.34,4.34,0,0,1-.9-3c0-.58.37-2.71,1-2.83.78-.15,1.71-1,.36-.74Z"/><path class="cls-2" d="M132.08,197.31c6.34.23,1.75,6.52,1.06,9.36-.91,3.74.16,8.63.28,12.46.07,2,.48,11.26-.43,11.87-1.09.73.51,1.32,1.26.82,1.17-.78.82-3.78.9-4.93a105.41,105.41,0,0,0,.09-11.52,79.39,79.39,0,0,1-.15-8.86c.13-1.92,1.73-3.44,2.13-5.3.74-3.41-1.39-5.13-4.46-5.24-.89,0-2,1.3-.68,1.34Z"/><path class="cls-2" d="M133,196.91c.12-5.79,2-11.88,0-17.53-.27-.75-2.19-.2-1.94.52,2,5.55.12,11.53,0,17.22,0,.88,1.93.51,1.94-.21Z"/><path class="cls-2" d="M72.38,168.46c4.51-4.73,11.36-6.36,17.36-8.36,1.12-.38.88-1.37-.27-1-6.45,2.15-13.8,3.93-18.64,9-.79.82,1.1.79,1.55.32Z"/><path class="cls-2" d="M71.14,164.93c2.57-1.58,5.33-2.8,7.74-4.64.36-.28-.32-.33-.46-.32a2.49,2.49,0,0,0-1.29.46c-2.32,1.77-5,2.92-7.47,4.44-.82.5,1.13.28,1.48.06Z"/><path class="cls-2" d="M71,165.52c.52-1.66,2.19-2.77,3.41-3.9.8-.75-1.12-.63-1.53-.24-1.37,1.28-3.22,2.54-3.8,4.41-.19.6,1.74.33,1.92-.27Z"/><path class="cls-2" d="M69.36,164c1-2,3.4-3.18,5-4.65.8-.74-1.11-.64-1.53-.26-1.81,1.67-4.32,2.86-5.4,5.18-.25.52,1.65.32,1.92-.27Z"/><path class="cls-2" d="M68.91,163.07a28.42,28.42,0,0,1,4.68-4.75.46.46,0,0,0-.21-.81,1.5,1.5,0,0,0-1.37.37,29.81,29.81,0,0,0-4.92,5.06c-.55.83,1.42.74,1.82.13Z"/><path class="cls-2" d="M69.59,159.06a23,23,0,0,1,6.23-4.4c.3-.17.54-.62.14-.84a1.46,1.46,0,0,0-1.37.16A24.67,24.67,0,0,0,68,158.65c-.78.88,1.1.95,1.58.41Z"/><path class="cls-2" d="M71.2,154.58a7.53,7.53,0,0,1,4.57-2.28c1.21-.24.85-1.49-.34-1.25a9.86,9.86,0,0,0-5.83,3c-.78.93,1.07,1.15,1.6.52Z"/><path class="cls-2" d="M138.47,141c5,.17,9.78,2.86,13.6,5.93.58.46,2.33-.38,1.51-1-4-3.24-9.13-6-14.4-6.16-.84,0-2,1.21-.71,1.26Z"/><path class="cls-2" d="M141.83,144.26c4.55.62,9.23,3.11,13,5.61.52.34,2.31-.42,1.54-.93-3.91-2.57-8.7-5.08-13.38-5.72-.61-.09-2.28.89-1.19,1Z"/><path class="cls-2" d="M147.06,148.5a18.93,18.93,0,0,1,9.68,5.09c.55.58,2.39-.17,1.78-.81a20.27,20.27,0,0,0-10.32-5.49c-.75-.17-2.29,1-1.14,1.21Z"/><path class="cls-2" d="M151,151.78a16.14,16.14,0,0,1,6.5,3.28c.51.38,2.27-.38,1.8-.73a17.31,17.31,0,0,0-7.1-3.52c-.55-.11-2.27.77-1.2,1Z"/><path class="cls-2" d="M154.65,155.43c1.37-.27,2.7.6,3.67,1.48.38.35,2.11-.39,1.82-.65a5.74,5.74,0,0,0-5.13-1.54c-.33.07-1,.19-1.13.53s.68.19.77.18Z"/><path class="cls-2" d="M157.12,159.58a7.54,7.54,0,0,1,1.54,1.8c.32.57,2.16-.11,1.94-.52a8.57,8.57,0,0,0-1.67-2c-.43-.41-2.22.31-1.81.7Z"/><path class="cls-2" d="M155.94,164.54l1.6,1.51a1.22,1.22,0,0,0,1.29.06c.24-.1.83-.53.49-.85l-1.6-1.51a1.22,1.22,0,0,0-1.29-.06c-.24.1-.83.53-.49.85Z"/><path class="cls-2" d="M101,141.8a6.85,6.85,0,0,1,3.43-.88,1.5,1.5,0,0,0,1.27-.54c.24-.38-.2-.64-.54-.63a10.64,10.64,0,0,0-5.38,1.39c-.29.18-.56.6-.15.82a1.49,1.49,0,0,0,1.37-.16Z"/><path class="cls-2" d="M102,142.22a5.46,5.46,0,0,1,2-.6,1.65,1.65,0,0,0,1.28-.52c.26-.37-.23-.54-.52-.54a9.37,9.37,0,0,0-3.55.91c-.21.1-.84.44-.53.75s1,.15,1.28,0Z"/><path class="cls-2" d="M134.26,173.47a8.63,8.63,0,0,0,2.06,3.13c.44.42,2.25-.29,1.8-.73a7.77,7.77,0,0,1-1.93-2.92c-.23-.6-2.13,0-1.93.52Z"/><path class="cls-2" d="M137.53,173.23a30.06,30.06,0,0,0,3.2,4.16c.48.59,2.33-.12,1.79-.8a29.79,29.79,0,0,1-3.2-4.15c-.36-.64-2.22,0-1.79.79Z"/><path class="cls-2" d="M140.74,173.65a4.84,4.84,0,0,0,2.34,1.76c.85.4,2.22-.83,1.09-1.37a3.33,3.33,0,0,1-1.66-1.27c-.47-.8-2.29,0-1.77.88Z"/><path class="cls-2" d="M144.34,172.51a3,3,0,0,0,2.55,1.41,1.29,1.29,0,0,0,1.26-.59.6.6,0,0,0-.59-.82,1.58,1.58,0,0,1-1.45-.86c-.44-.76-2.28,0-1.77.86Z"/><path class="cls-2" d="M150.2,172.1c.33,0,.7.48.92.69.37.35,2.12-.38,1.82-.66a2.42,2.42,0,0,0-1.49-.82,2.34,2.34,0,0,0-1.36.36c-.33.21-.24.39.11.43Z"/><path class="cls-2" d="M162.67,175.61a14.5,14.5,0,0,1-2.74,5.53c-.52.67,1.43.5,1.8,0a15.51,15.51,0,0,0,2.87-5.81c.16-.69-1.78-.38-1.93.26Z"/><path class="cls-2" d="M163.05,179a21.35,21.35,0,0,1-3.14,6.25c-.56.89,1.41.87,1.84.19a23,23,0,0,0,3.26-6.6c.21-.91-1.76-.66-2,.16Z"/><path class="cls-2" d="M163.08,184c-.77,1.74-1.9,3.25-2.81,4.91-.18.34,1.64.2,1.92-.31.9-1.66,2-3.18,2.8-4.92.17-.39-1.69-.2-1.91.32Z"/><path class="cls-2" d="M162.28,188.87c-.51,2-2.08,3.58-3.2,5.3-.2.29.71.2.77.18a1.73,1.73,0,0,0,1.13-.52c1.12-1.72,2.7-3.25,3.21-5.29.1-.43-1.79-.15-1.91.33Z"/><path class="cls-2" d="M162.26,193a12.11,12.11,0,0,1-1.83,5c-.73,1,1.11,1.16,1.6.51a13.72,13.72,0,0,0,2.18-5.63c.19-.9-1.78-.64-2,.17Z"/><path class="cls-2" d="M162.32,197.72c-.88,2-1.92,4-2.8,6.05-.4.93,1.54.76,1.82.11.88-2,1.92-4,2.8-6,.4-.93-1.53-.77-1.82-.11Z"/><path class="cls-2" d="M161.11,204.47a16,16,0,0,1-1.6,3.78c-.28.41.24.76.58.8a1.31,1.31,0,0,0,1.26-.59,15.57,15.57,0,0,0,1.6-3.78c.37-1.05-1.57-1-1.84-.21Z"/><path class="cls-2" d="M159.87,211.15a21.52,21.52,0,0,0-2,4.16c-.16.55,1.76.27,1.92-.3a21.43,21.43,0,0,1,2-4.15c.19-.37-.69-.32-.8-.3a1.49,1.49,0,0,0-1.12.59Z"/><path class="cls-2" d="M157.91,218.46l-1.2,2.26c-.23.43.2.75.58.8a1.3,1.3,0,0,0,1.26-.59l1.2-2.27c.23-.43-.2-.75-.58-.79a1.29,1.29,0,0,0-1.26.59Z"/><path class="cls-2" d="M109.93,213.7a13.31,13.31,0,0,0,7.76,4.45c1,.16,2-1.24.65-1.45a11.56,11.56,0,0,1-6.64-3.86c-.61-.69-2.44.1-1.77.86Z"/><path class="cls-2" d="M108.84,210.68c2,1.19,4,2.6,6,3.78.49.29,2.29-.45,1.55-.87-2-1.19-4-2.6-6-3.78-.49-.29-2.29.45-1.55.87Z"/><path class="cls-2" d="M108.06,207a26.24,26.24,0,0,1,6.67,4c.6.55,2.43-.23,1.77-.83a27.06,27.06,0,0,0-6.94-4.28c-.7-.33-2.42.64-1.5,1.07Z"/><path class="cls-2" d="M108.84,204.28a17.17,17.17,0,0,1,5.48,3.31c.48.45,2.29-.28,1.79-.74a18.3,18.3,0,0,0-5.73-3.49,1.67,1.67,0,0,0-1.36.19c-.23.14-.62.56-.18.73Z"/><path class="cls-2" d="M110.42,201.16a9.37,9.37,0,0,1,3.88,2.61c.36.33,2.09-.4,1.83-.65a9.86,9.86,0,0,0-4.12-2.68,2.28,2.28,0,0,0-1.35.25c-.16.08-.66.36-.24.47Z"/><path class="cls-2" d="M110.87,198c.88.81,1.91,1.45,2.8,2.26.61.57,2.31-.34,1.49-1.09s-1.91-1.46-2.8-2.27c-.61-.57-2.31.34-1.49,1.1Z"/><path class="cls-2" d="M110.66,195a9.86,9.86,0,0,1,2.61,1.42c.65.58,2.33-.37,1.49-1.13a11.18,11.18,0,0,0-3-1.6c-.81-.38-2.23.79-1.11,1.31Z"/><path class="cls-2" d="M111.53,190.63l1.6,1.51a1.18,1.18,0,0,0,1.3.11c.26-.13.83-.6.47-.93l-1.6-1.51a1.14,1.14,0,0,0-1.3-.11c-.26.12-.83.6-.47.93Z"/><path class="cls-2" d="M111.93,186.85l1.6,1.51a1.14,1.14,0,0,0,1.3.11c.27-.12.83-.6.47-.93L113.7,186a1.14,1.14,0,0,0-1.3-.11c-.27.12-.83.6-.47.93Z"/><path class="cls-2" d="M111.45,182.16a8.94,8.94,0,0,0,2.07,2c.48.45,2.29-.28,1.79-.74a9.06,9.06,0,0,1-1.93-1.77c-.36-.63-2.21,0-1.93.51Z"/><path class="cls-2" d="M113.44,179.73v.76c0,.93,2,.57,2-.19v-.76c0-.93-2-.57-2,.19Z"/><path class="cls-2" d="M62.23,172.34a22.34,22.34,0,0,0,2.4,6.8c.28.52,2.12-.16,1.93-.52a22.25,22.25,0,0,1-2.4-6.8c-.07-.46-2,0-1.93.52Z"/><path class="cls-2" d="M61.83,178A23.38,23.38,0,0,0,65.51,185c.48.59,2.33-.12,1.78-.8a22.32,22.32,0,0,1-3.53-6.66c-.27-.78-2.19-.22-1.93.52Z"/><path class="cls-2" d="M62.62,183.11a9.84,9.84,0,0,0,2.5,5.65c.54.69,2.38-.07,1.76-.86a8.85,8.85,0,0,1-2.3-4.93c0-1-2-.73-2,.14Z"/><path class="cls-2" d="M62.23,188.59a8.74,8.74,0,0,0,2.48,3.92c.57.56,2.4-.21,1.78-.81a8,8,0,0,1-2.33-3.63c-.22-.81-2.15-.29-1.93.52Z"/><path class="cls-2" d="M63,193.12a6.92,6.92,0,0,0,1.6,3.78c.32.45,2.05-.35,1.93-.52A7,7,0,0,1,65,192.6c0-.28-1.94,0-1.93.52Z"/><path class="cls-2" d="M62.63,199.55a3.75,3.75,0,0,0,1.27,2.74c.44.43,2.25-.29,1.8-.72A3.43,3.43,0,0,1,64.56,199c0-.51-1.94-.16-1.93.52Z"/><path class="cls-2" d="M63,206.2a4.39,4.39,0,0,0,.88,3.3c.5.52,2.34-.21,1.78-.78A3.69,3.69,0,0,1,65,206c0-.87-1.94-.47-1.94.22Z"/><path class="cls-2" d="M67.37,216.3c.39,0,2.2-.77,1.26-.77-.39,0-2.2.77-1.26.77Z"/><path class="cls-2" d="M131.12,155.43a25.83,25.83,0,0,1,5.14,5.95c.32.58,2.17-.09,1.93-.52a26,26,0,0,0-5.27-6.14c-.44-.42-2.23.3-1.8.71Z"/><path class="cls-2" d="M134.48,155.27c1.13.76,1.52,2.18,2.26,3.26.52.76,2.35,0,1.76-.87-.82-1.21-1.26-2.68-2.54-3.54-.74-.5-2.41.52-1.48,1.15Z"/><path class="cls-2" d="M136.66,155.71a2.29,2.29,0,0,0,.86,1.24c.45.42,2.26-.3,1.81-.73s-.69-.58-.74-1-2-.14-1.93.52Z"/><path class="cls-2" d="M139.93,155.85l1.2,1.13a1.22,1.22,0,0,0,1.29.07c.24-.11.84-.54.5-.86l-1.2-1.13a1.2,1.2,0,0,0-1.29-.07c-.25.11-.84.54-.5.86Z"/><path class="cls-2" d="M97,167.49a2.31,2.31,0,0,0-.06,4c1.5.9,4.2.1,4.77-1.64.46-1.43-1-2.51-2.19-2.83a3.76,3.76,0,0,0-4.4,1.9c-.49,1,1.46,1,1.84.21a1.25,1.25,0,0,1,1.56-.8c.53.14,1.31.58,1.33,1.21a1,1,0,0,1-1.53.77,1.15,1.15,0,0,1,0-2,.58.58,0,0,0,.11-1,1.3,1.3,0,0,0-1.39.12Z"/><path class="cls-2" d="M93.38,192.49a3.22,3.22,0,0,0-2.59,1.58,2.61,2.61,0,0,0,.53,2.57c1.5,1.81,4.65,1.34,6.39.11a2.71,2.71,0,0,0,.48-3.94c-1.26-1.61-3.51-1.34-5.14-.47-1.14.61.65.54,1.12.29,1.84-1,3.18,2.12,2.48,3.51-.62,1.21-2.24,1-3.13.24a2.86,2.86,0,0,1-.9-1.62c-.08-.38,0-1.45.42-1.52s1-.19,1.12-.54-.67-.23-.78-.21Z"/><path class="cls-2" d="M123.2,201.77c-3.29.13-3.62,3.33-3,5.92s2.67,5.14,5.35,3a4.09,4.09,0,0,0-.56-7,3.67,3.67,0,0,0-3.68.18c-1.53,1-1.34,3.12-1,4.7.12.65,2.06.18,1.93-.51-.21-1.14-.45-2.6.29-3.6.15-.21,0-.13.27-.09a2.76,2.76,0,0,1,1.12.5c1.93,1.37,1.74,3.55.38,5.25a1.81,1.81,0,0,1-.32.3s.4,0,.11,0-.57-.4-.75-.62a6.27,6.27,0,0,1-1.12-2.43,8.15,8.15,0,0,1-.27-2.86,3.33,3.33,0,0,1,.31-1.23c.12-.24.46-.44.24-.43a1.65,1.65,0,0,0,1.27-.52c.26-.37-.21-.57-.51-.56Z"/><path class="cls-2" d="M79.78,185.23c0-.45-.1-1.18.23-1.54a.54.54,0,0,0-.25-.92,1.34,1.34,0,0,0-1.36.37,3.11,3.11,0,0,0-.57,2.24c0,1,2,.7,2-.15Z"/><path class="cls-2" d="M79.3,186.06a5.07,5.07,0,0,1,1.69-2c.23-.15.62-.52.19-.7a1.62,1.62,0,0,0-1.37.19,6.49,6.49,0,0,0-2.3,2.52c-.41.78,1.51.52,1.79,0Z"/><path class="cls-2" d="M80.39,186.27l1.6-1.51a.43.43,0,0,0-.21-.78,1.53,1.53,0,0,0-1.36.36l-1.6,1.52a.42.42,0,0,0,.2.77,1.54,1.54,0,0,0,1.37-.36Z"/><path class="cls-2" d="M79.75,188.53c.08-.41.92-.86,1.23-1.08.64-.48,1.31-.93,1.9-1.47.32-.3-.29-.31-.46-.3a2.3,2.3,0,0,0-1.29.46,22.28,22.28,0,0,1-1.9,1.46c-.36.27-1.29.78-1.38,1.28s1.83.11,1.9-.35Z"/><path class="cls-2" d="M81.28,188.66c.49-.44,1.11-.7,1.6-1.14s-.3-.39-.47-.38a2.25,2.25,0,0,0-1.29.48c-.49.44-1.1.7-1.6,1.13-.35.31.3.39.48.38a2.12,2.12,0,0,0,1.28-.47Z"/><path class="cls-2" d="M79.8,189.18A7.11,7.11,0,0,0,85,187.79c.2-.13.63-.48.19-.65a1.77,1.77,0,0,0-1.36.21,3.67,3.67,0,0,1-2.81.89,1.87,1.87,0,0,0-1.37.36c-.32.25-.21.5.16.58Z"/><path class="cls-2" d="M82.18,210.53a1.8,1.8,0,0,1,.63-1.3c.29-.15.79-.53.48-.9s-.94-.27-1.29-.09a3.21,3.21,0,0,0-1.77,2.48c0,.92,1.91.58,2-.19Z"/><path class="cls-2" d="M83.59,210.81l.4-.37a.41.41,0,0,0-.2-.75,1.58,1.58,0,0,0-1.37.36l-.4.38a.41.41,0,0,0,.2.75,1.56,1.56,0,0,0,1.37-.37Z"/><path class="cls-2" d="M81.9,211a3.23,3.23,0,0,0,3.66.7c.14-.06.86-.39.55-.64s-1-.07-1.26.06a.16.16,0,0,0,.12,0,1.82,1.82,0,0,1-.39-.14,3.28,3.28,0,0,1-.87-.66c-.43-.38-2.21.34-1.81.7Z"/><path class="cls-2" d="M125,186l-.15.1.21-.13a4.54,4.54,0,0,0,.56-.42.43.43,0,0,0-.21-.78,1.57,1.57,0,0,0-1.37.37c-.39.33-.91.47-1,1.06-.11.87,1.85.54,1.94-.2Z"/><path class="cls-2" d="M124.06,186.94a2.36,2.36,0,0,0,3.27-.82c.23-.41-.2-.65-.55-.67a1.4,1.4,0,0,0-1.27.55c-.18.32-.3.26.15.11.38,0,.46,0,.24-.05a1.79,1.79,0,0,1-.32-.13,1.45,1.45,0,0,0-1.38.16c-.26.17-.58.65-.14.85Z"/><path class="cls-3" d="M290,188.35a37.22,37.22,0,0,0,.58-9.22c.83-4.47.67-9.36.64-13.43,0-.51,0-1,0-1.55.7-7.49.23-15.06.67-22.59a2.8,2.8,0,0,0-1.14-2.58c0-.11,0-.22,0-.34a2.65,2.65,0,0,0,1.11-2.92c-.3-1.18-.17-2.37-.46-3.55a3,3,0,0,0-2.16-2.27c-.31-.57-.64-1.12-1-1.68a2.39,2.39,0,0,0-3.43-.77c-1.26-2.09-2.5-4.18-3.64-6.34a3,3,0,0,0-2.68-3.11c-.43-.81-.86-1.62-1.3-2.43a3.29,3.29,0,0,0-1.38-1.39,3.21,3.21,0,0,0-5.14-.34,2.48,2.48,0,0,0-2.45-1.34q-1.4-2.22-2.84-4.42a3.22,3.22,0,0,0-3.26-1.48q-1.24-2-2.49-3.9a3.11,3.11,0,0,0-5.64.51c-.61-.87-1.23-1.74-1.86-2.6,1.78-.42,3.23-2,2-4.06l-.06-.1a3.11,3.11,0,0,0-.33-3.07l-.08-.12a3.6,3.6,0,0,0-.41-.9c-1.77-2.66-2.46-4.4-5.56-5.76a2.57,2.57,0,0,0-2.12,0c-.55-.24-1.1-.47-1.67-.67a33.18,33.18,0,0,0-4.6-2.38,60.63,60.63,0,0,0-11.34-3.24A24.3,24.3,0,0,0,217.62,78a3.11,3.11,0,0,0-2.51,1.31c-9-1.87-18.34-1-25.37,4.15a2.55,2.55,0,0,0-3.8-1.24c-21.1,13.23-4.08,44.46,5.85,59.38,7.08,10.65,15.37,18.1,26.36,24.69,13.72,8.21,28.77,14.1,44.09,18.7,7.59,4,16.07,8.18,22.09,4.68C286,192.15,289.39,191.3,290,188.35ZM201.8,100.24a16,16,0,0,0,1.93-.37,3,3,0,0,0-.65,2.25C202.66,101.49,202.23,100.86,201.8,100.24Zm13.43-5.83-.09-.11.58-.41.13-.12a3.25,3.25,0,0,0-.29,1.11Zm10.38,2.11.61.12a3.63,3.63,0,0,0,.18.76C226.14,97.1,225.87,96.81,225.61,96.52Zm16,1.18a2.93,2.93,0,0,0,.5-.67s0,.06,0,.09c.23.7.5,1.4.74,2.1C242.42,98.7,242,98.21,241.57,97.7ZM246.9,140l-.72-1.42q2.22,3.51,4.29,7.09Z"/><path class="cls-2" d="M186.06,83.83c-9.59,8.61-9.43,22.34-7.13,34.07,2.57,13.12,8.7,23.2,17.91,32.87,11.54,12.11,26,19.91,41.07,26.8,13.71,6.27,28,11.62,42.18,16.59.56.2,2.32-.64,1.55-.91-27-9.43-56.78-19.51-78.45-38.83-10.14-9-17.73-19.56-21.3-32.66-3.34-12.25-4.67-28.34,5.71-37.65.82-.74-1.09-.68-1.54-.28Z"/><path class="cls-2" d="M186.2,83.62a217.84,217.84,0,0,0,23.37,16.9c2.6,1.67,11.08,5.16,9.92,8.75-.76,2.35-1.11,4.73.73,6.59,3,3.07,6.91.48,10-.34,4.33-1.16,6.51,4.87,8.13,8.21.37.76,2.26.17,1.93-.52l-.06-.13-1.86.67a4.63,4.63,0,0,0,3.55,2.22c4.18.51,6.4,1.85,9.6,4.45,6.08,4.92,14.19,7,20.41,11.82.12-.33.23-.67.35-1-2.95,1.42-5.65,4.11-2.1,6.64,3.09,2.2,7.22.43,8.94-2.47l-1.82-.14c-3.31,7.89-.83,16.26-.45,24.48.36,8,.94,16.42,3.08,24.21.22.8,2.15.28,1.93-.51C280,186.81,279.47,179.8,279,173c-.63-8.75-3.34-19.28.12-27.55.42-1-1.47-.74-1.82-.14-2.78,4.67-11,.22-4.21-3.05.41-.2.82-.64.35-1-5.7-4.47-12.85-7.93-19.35-11.09-2.14-1.05-3.6-3.78-5.94-4.48-2.63-.79-6.25-.39-8-2.7-.4-.53-2.19,0-1.86.66a.83.83,0,0,0,.07.13l1.93-.52c-1.6-3.29-3.83-9.4-8.1-9.73-1.13-.08-1.86.54-2.85.81-2.95.79-4.84,3.27-7.94.13-1.67-1.69.21-5.84.82-7.59.06-.17-.09-.34-.22-.42-11.65-7.38-23.48-14.62-34-23.6-.59-.51-2.4.27-1.78.81Z"/><path class="cls-2" d="M187.71,84.69c8.22-2.74,15.86-7,24.76-6.65a95,95,0,0,1,26.76,4.52c.56.19,2.31-.66,1.54-.91A102.15,102.15,0,0,0,213.23,77c-9.25-.44-17.21,3.93-25.77,6.79-1.12.37-.89,1.31.25.92Z"/><path class="cls-2" d="M240.91,83.13c1.71.47,16,10.51,14.2,12.41-2.08,2.19-1.59,4.31.88,5.74,1.4.8,11.29,3,10,4.89-2,3.09.94,4.7,3.52,5.53,3.5,1.12,12.06,2.89,12.61,7.44.23,1.88.06,3,1.87,4,2.71,1.58,6.48,2.15,7.58,5.51s-6.57,7.94-8.69,9.71-4.7,4.07-3.93,7c.16.64,2.1.13,1.93-.52-1.9-7.24,19.29-12.07,10.48-19.71-2.4-2.08-6.8-1.64-7.22-5.53s-2.3-3.67-5.22-6c-3.3-2.67-14.59-2-10.52-8.36a.28.28,0,0,0,0-.38c-3.33-3.31-17.25-3.27-10.75-10.13a.28.28,0,0,0,0-.38c-5.05-4.16-9-10.41-15.58-12.22-.59-.16-2.27.72-1.2,1Z"/><path class="cls-2" d="M292.06,132.12c2.22,4.06,1.51,9.19,1,13.61-.79,6.5-1.2,13.09-1.61,19.62-.19,3.15-.26,6.29-.27,9.44,0,1.89,1.36,9-.5,10.05-4,2.34-7.39,5.2-9.23,9.56-.14.34,1.7.16,1.91-.34,1.91-4.53,5.56-7.47,9.85-9.69.14-.07.43-.19.41-.39-.93-10.13-.25-20.18.62-30.28.57-6.57,3.13-16-.22-22.1-.27-.49-2.1.22-1.93.52Z"/><path class="cls-2" d="M237.2,133.78c-2.42-3.44-7.33-6.52-10.69-2.41-2.23,2.73-2.58,8.17,1.82,8.66,3.92.43,7.72-4.08,7.49-7.79-.1-1.58-1-3.81-2.93-3.87s-3,1.27-3.34,3.06c-.18.86,1.78.58,1.95-.19.33-1.55.84-2,1.81-.62s.55,3.24-.06,4.64c-.76,1.79-2.89,4.32-5.09,3.25s-1.16-4.78-.25-6.4c2.06-3.65,6.06.42,7.51,2.48.45.64,2.3-.06,1.78-.81Z"/><path class="cls-2" d="M241.26,139.32c-2.7,3.07-.81,7,.73,10.14.32.66,1.34.43,1.76,0,3-3.18,5.4-13.38-1.82-12.31-1,.15-1.51,1.52-.19,1.32,5.42-.81,2.39,8.42.42,10.49h1.76c-1.28-2.66-3.39-6.46-1.06-9.12.8-.9-1.06-1.11-1.6-.5Z"/><path class="cls-2" d="M234.93,152.45c-1.49-1.69-3.41-3.07-5.77-2.92A4.91,4.91,0,0,0,225,152.6c-2.31,5.58,4.92,8.83,9.09,9.62.41.08,1.13-.15,1.26-.6,1-3.36-1.61-5.29-3.5-7.69-.57-.72-2.4.06-1.76.87,1.5,1.9,4.18,3.82,3.4,6.57l1.26-.61c-3.54-.67-8.82-2.82-8.06-7.34a2.91,2.91,0,0,1,2.16-2.4c1.64-.38,3.33,1.21,4.29,2.3.61.69,2.44-.11,1.76-.87Z"/><path class="cls-2" d="M253.09,159.35c-2.12,1.6-1.64,4.44.46,5.84,2.89,1.93,5.72-1.46,6.52-3.91a7.73,7.73,0,0,0-2.74-8.06c-2.87-2.15-6,.36-7.53,2.85-.51.86,1.45.75,1.82.12,1.19-2,2.76-3.37,4.73-1.49a7.29,7.29,0,0,1,2,5.46c-.06,1.48-1.35,5.08-3.29,4-1.32-.72-2.11-3.07-.75-4.1,1.05-.79-.56-1.23-1.23-.72Z"/><path class="cls-2" d="M214.89,104.75c-4.66-3.37-9.12-2.26-13.55,1a.62.62,0,0,0-.09,1c4.61,3.78,9,1.21,13.84-.48,1.15-.4.81-1.78-.37-1.37-4.18,1.45-7.94,4-12,.71l-.09,1c3.63-2.65,6.91-3.54,10.77-.76.72.52,2.39-.47,1.48-1.13Z"/><path class="cls-2" d="M239.46,117c2.8-1.48,6.5-1.81,8.1,1.5,1.32,2.73-.48,5.41-3.19,6.17-1.16.33-.87,1.43.3,1.09,3.54-1,6.55-4.22,4.71-8-2-4.14-7.36-3.43-10.72-1.65-1.17.62-.09,1.38.8.91Z"/><path class="cls-2" d="M232.08,95.55a8,8,0,0,0-6.43,2.11c-1.92,1.87-1.38,4.46,0,6.44,1.67,2.35,4.81,3.94,7.23,1.72,1.64-1.5,2.14-4.41,1.72-6.5-.55-2.71-3.33-1.82-4.75-.35-.82.85,1.07,1,1.58.44a3.33,3.33,0,0,1,.72-.63c.22-.12-.11-.06,0,0,.41.26.5,1,.56,1.46a7.21,7.21,0,0,1-1,4.56c-1,1.61-2.44.45-3.48-.57-1.37-1.35-2.53-3.29-1.71-5.23s3-2.42,4.77-2.23c.84.09,2-1.1.71-1.24Z"/><path class="cls-2" d="M220.88,109.33l2.27.78c.44.16,1.3,0,1.48-.53l.27-.76a.52.52,0,0,0-.36-.72l-1.51-.53-.66,1.31a19,19,0,0,0,7.87-1.82c1.21-.55.13-1.53-.84-1.08a16.5,16.5,0,0,1-6.84,1.54c-.65,0-1.65,1-.66,1.31l1.51.53c-.12-.24-.24-.49-.35-.73l-.27.76,1.48-.54-2.26-.78c-.79-.28-2.28.86-1.13,1.26Z"/><path class="cls-2" d="M228.08,109a12,12,0,0,0,.16,6.92c.11.46,2,0,1.93-.51a11.68,11.68,0,0,1-.18-6.75c.13-.4-1.75-.17-1.91.34Z"/><path class="cls-2" d="M220.39,109.83c2.75.84,5.7.38,8.52.39.41,0,2.2-.82,1.24-.82-2.7,0-5.55.47-8.18-.33-.45-.14-2.17.58-1.58.76Z"/><path class="cls-2" d="M254.12,94.9c-.91,2.11-3.19,2.69-5.11,3.59l1.18.62c1.31-1.12,3-1.6,4.33-2.73.73-.62-.52-.8-.92-.71-1.89.42-6,1.79-3.39,4.15,2.37,2.11,6,3.06,8.93,4.09.66.23,2.27-.73,1.17-1.11a53.45,53.45,0,0,1-6.34-2.55,7.4,7.4,0,0,1-2.53-1.78c-1-1.18,1.82-1.61,2.44-1.75L253,96c-1.32,1.12-3,1.61-4.34,2.73-.81.69.75.83,1.18.63,2.28-1.06,5-1.86,6.13-4.37.38-.91-1.55-.71-1.81-.09Z"/><path class="cls-2" d="M265.58,108.17c-3,6.91,8.08,13.69,13.25,8.56.84-.84-1-1-1.59-.48-4,4-11.88-3.23-9.83-7.93.42-1-1.52-.86-1.83-.15Z"/><path class="cls-2" d="M269.25,122.1c-1.61-1.19-4.08-1.66-5.68-.15a3.08,3.08,0,0,0-1,2.61c.17.53.79.83,1.25,1a5.71,5.71,0,0,0,4.48,0c1.78-.84,1.12-2.43.18-3.71-.3-.4-2.15.22-1.81.69.46.62,1.33,1.88.62,2.61,0,0-.13,0-.34,0a3.85,3.85,0,0,1-1.2-.22c-.95-.29-1.38-.72-1.16-1.74.1-.46.43-1.33.86-1.3a4.08,4.08,0,0,1,2,.9c.46.35,2.17-.42,1.81-.68Z"/><path class="cls-2" d="M248.8,110.32c.45.91.87,1.48,2,1.23.42-.1,1.26-.41,1.42-.85.08-.25.17-.5.26-.76a.55.55,0,0,0-.37-.76,6.18,6.18,0,0,0-1.95-.32,5,5,0,0,1-1.34,0,1.31,1.31,0,0,0-1.36.37.56.56,0,0,0,.25.94c1.09.32,2.2,0,3.29.3-.12-.26-.25-.52-.37-.77l-.26.75.49-.46-.32.16c-.33.16.13-.09.45.11a4.26,4.26,0,0,1-.24-.48c-.41-.84-2.32-.28-1.94.52Z"/><path class="cls-2" d="M213.76,122.4a4.63,4.63,0,0,0-2.95,6.49c1.32,3.18,5.23,2.76,7.32.6a5,5,0,0,0-.91-7.67c-3.12-2.19-6.42.33-7.53,3.35-.37,1,1.56.93,1.84.18.76-2.06,2.18-3.86,4.37-2.33a4.08,4.08,0,0,1,1.19,5.21c-1.14,2.12-3.52,2.14-4.43-.06-.63-1.5-.45-4.06,1.43-4.52,1.2-.3.86-1.54-.33-1.25Z"/><path class="cls-2" d="M254.79,144.73a1.69,1.69,0,0,0,1.16.82,1.54,1.54,0,0,0,1.58-.86,5,5,0,0,0,.09-2.76,4.65,4.65,0,0,0-1.05-2.61c-1-1-2.44-.46-3.26.51a8.28,8.28,0,0,0-1.06,1.79c-.47,1,1.48,1,1.85.23a5.43,5.43,0,0,1,1-1.58c.18-.2-.1.07.09-.08s-.19.08.07,0l-.14,0c.17,0-.27,0-.11,0l-.19,0c.19.06-.16-.11,0,0l.09.07c.12.09-.13-.13,0,0a1.85,1.85,0,0,1,.29.4.41.41,0,0,1,0,.09c.09.16-.07-.15,0,0s.09.2.13.3.15.45.21.68a5.81,5.81,0,0,1,.2,2.4l0,.21c-.05.24,0-.1,0,.06a.59.59,0,0,1-.06.14c.12-.22.1-.15.06-.09s.19-.17.1-.1a1.29,1.29,0,0,1,.79-.22c.07,0,.38.18.21.05s.11.13-.06-.05a2.48,2.48,0,0,1-.19-.26c-.5-.73-2.34,0-1.76.86Z"/><path class="cls-2" d="M220.19,89.82c-2.38-.87-5.34-2.87-7.94-1.65-1.77.82-3.15,2.52-2,4.42A5.79,5.79,0,0,0,215.35,95a7.57,7.57,0,0,0,6.25-3.66.11.11,0,0,0,0-.16c-2.65-2.6-7.34-4.17-9.95-.62-.09.12.09.19.16.21l1.51.53c.44.15,2.17-.56,1.59-.76-.32-.11-1.48-.24-.89-.87s1.64-.35,2.39-.11a8.09,8.09,0,0,1,1.9,1c.88.59,1.56,1,.77,2-1.58,2-4,1.9-5.9.51-1.24-.88-1.95-2.51-.89-3.81.88-1.07,1.44-.63,2.66-.21s2.45,1,3.7,1.49c.43.16,2.17-.54,1.58-.75Z"/><path class="cls-2" d="M235.36,92.94a5.11,5.11,0,0,0,2.89,2.91c.52.2,1.64-.17,1.54-.86a10,10,0,0,0-2.55-5.24,1.22,1.22,0,0,0-1.86.5,4.63,4.63,0,0,0,.73,3c.38.78,2.28.19,1.93-.52a4.23,4.23,0,0,1-.71-2.63l-1.87.5a9.25,9.25,0,0,1,2.39,5l1.54-.87a3.9,3.9,0,0,1-2.1-2.21c-.38-.78-2.28-.2-1.93.51Z"/><path class="cls-2" d="M282.81,163.49a26.5,26.5,0,0,0,.4,8.75c.15.64,1.47.2,1.74-.09a6.74,6.74,0,0,0,1.78-5.88c-.36-1.73-2.31-1.07-3.13-.13-.57.65,1.38.53,1.8.06-.72-.14-.95,0-.67.36a2.07,2.07,0,0,1,.12.49,4.66,4.66,0,0,1,0,1.49,5.71,5.71,0,0,1-1.45,3.28l1.74-.09a26.2,26.2,0,0,1-.4-8.47c.07-.8-1.88-.43-1.93.23Z"/><path class="cls-3" d="M157,74.18c-.28-1.29-.53-2.58-.78-3.87a3.23,3.23,0,0,0,.79-1.72c.13-.86.26-1.72.38-2.58,2.37-6.22,2.31-14.12,2.77-20.17.13-1.81.3-3.8.41-5.87a3.63,3.63,0,0,0,.9-2.48,18.94,18.94,0,0,0-.9-5.61C160,24.16,157.2,17.2,148.1,16.12a3.6,3.6,0,0,0-2.71.88c-13.46-5-31.58-1.22-38.93,11.45a2.91,2.91,0,0,0,.78,3.87c-.43.21-.86.41-1.28.64a29.09,29.09,0,0,0-3.56,1A2.89,2.89,0,0,0,99,32.35c-5,.9-9.41,3.78-14.13,5.52C79.12,40,76.17,44,72.93,49c-4.47,6.93-14.92,5.51-22,8.34-13.46,5.39-11.79,16.88-7.61,28.14a3.18,3.18,0,0,0-.74,1.71,63.63,63.63,0,0,0,.06,13.09A3.22,3.22,0,0,0,45,103.12c0,.1,0,.21,0,.32a3.46,3.46,0,0,0,3,3c9.28.73,18.18-1.43,27-4,10.86.1,21.68-2.95,32.22-5.15a3.66,3.66,0,0,0,2.7-5c4-3.74,8.16-8.46,13.06-9.51a3.65,3.65,0,0,0,1,.15c2.12.32,3.85.44,5.59.7l1.14.16a3.26,3.26,0,0,0,2.28-.3c.3-.06.58,0,.9-.14l.69-.22a3.5,3.5,0,0,0,4.31,1.64,33.06,33.06,0,0,0,7.26-3.78,25.24,25.24,0,0,0,4.65-2.48,3.21,3.21,0,0,0,.8-.75l1.44.25A3.52,3.52,0,0,0,157,74.18ZM122.68,36.82c.47-.25.94-.48,1.42-.69l-1.21,2.26c-.54.51-1.08,1-1.59,1.6C121.78,38.94,122.24,37.88,122.68,36.82Zm4.68-14.18a3.3,3.3,0,0,0,.08-.61c.55-.1,1.1-.17,1.65-.24C128.51,22.06,127.93,22.34,127.36,22.64ZM85.86,45.06a4.84,4.84,0,0,0,.33.46c-.56.62-1.11,1.26-1.65,1.9a3.22,3.22,0,0,0-1.18-.64A11.09,11.09,0,0,1,85.86,45.06ZM57.7,62.5l.47-.11a55.46,55.46,0,0,0-3.26,5.77c.06-1.65.14-3.29.25-4.94C56,62.94,56.86,62.7,57.7,62.5Z"/><path class="cls-2" d="M48.76,67.28c-.08,5.71,1,11.51,1.76,17.15.26,1.9,3,15.06,2.11,15.7-1,.8.51,1.53,1.3.93,1.89-1.44-.5-10-.75-11.81-1-7.25-2.56-14.77-2.45-22.11,0-1-1.95-.77-2,.14Z"/><path class="cls-2" d="M41.17,65.62l-.75,0c-.37,0-2.19.71-1.26.74l9.06.29c.37,0,2.19-.7,1.26-.73l-9.06-.3-1.26.74.75,0c.37,0,2.19-.71,1.26-.74Z"/><path class="cls-2" d="M37.66,67.87c.1,6.36,3,12.1,3.4,18.38.37,5.66-.58,11.79,1.93,17.08.36.74,2.25.15,1.94-.52C42.61,97.93,43.25,92.3,43,87c-.25-6.65-3.33-12.7-3.43-19.37,0-.9-2-.52-2,.2Z"/><path class="cls-2" d="M41.26,63.62c3.91-3.38,8.89-5.33,13.51-7.54,2.11-1,4.17-2.11,6.18-3.33,1.77-1.06,3.21-.25,5.22-.23,4.79,0,10.31-4.35,3.29-6.57-.78-.25-2.28.88-1.12,1.25,2.82.89,3.16,2.76.08,3.72-2.47.77-3.62-.39-5.79-.61-1.79-.18-4.72,2.68-6.18,3.45C51,56.67,44.77,58.68,40,62.81c-1,.86.56,1.42,1.26.81Z"/><path class="cls-2" d="M71.65,46.68c3.12-5.55,10.79-6.55,16.32-8.45,3.88-1.34,7.46-3.15,10-6.41l-1.67.45c5.17,2.69,14.61-1,11.21-7.84-.36-.72-2.25-.12-1.93.51,2.45,4.91-3,8.82-7.75,6.34a1.44,1.44,0,0,0-1.67.44c-6.55,8.26-21,5.34-26.36,14.86-.48.86,1.47.71,1.81.1Z"/><path class="cls-2" d="M109.36,25.41c.09-2.66,4.67-3.9,6.72-5.08,2.32-1.34,5.41-4.84,8-4.78,5.42.11,10.84,0,16.25.5,12.15,1.12,20.93,7,21.29,20,0,.46,2,.12,1.94-.52-.37-13-9-18.72-21-20.24-5.86-.74-11.81-.54-17.7-.63-2.77,0-2.9.3-5.15,2.1a59.51,59.51,0,0,1-11.86,6.9.59.59,0,0,0-.39.46l-.06,1.85c0,.44,1.91.14,1.93-.52Z"/><path class="cls-2" d="M160,35.17a48.41,48.41,0,0,0-9.69,3.31c-5.64,2.35-8.73,1.11-13.85-.25-2.73-.72-9.7-2-10.9,2.24a6.33,6.33,0,0,0-.1,3.18c.36,2.32-9.31,7-9.53,3.82-.17-2.61-3.2-3.37-5.25-3.7a8.06,8.06,0,0,0-4.89.56c-2.68,1.53-2.33,4.67-5.36,6.08-2.43,1.13-5.47.71-7.8,2.15-2.06,1.26-2.56,3.38-4.67,3.79A142.72,142.72,0,0,0,73.3,60.22a159.24,159.24,0,0,0-16.06,5.66c-2.05.86-5.72,2-6.7,4.29-.23.54,1.67.32,1.92-.27,1.43-3.26,9.89-5.1,12.89-6.16,6.19-2.19,12.52-4.06,18.9-5.65,1.88-.47,3.85-.67,5.7-1.16.24-.07.65-.2.78-.44,1.82-3.28,4.66-3.85,7.91-4.64,2.16-.54,4.35-1.23,5.8-3A19.87,19.87,0,0,0,106,45.75a5.09,5.09,0,0,1,5.64-.54c1.93.57,2.35,2.32,2.47,4,0,.22.44.24.58.24,3.1,0,6.64-.26,9.47-1.66A7.15,7.15,0,0,0,127,45.44c1.86-2.39-3.2-6.56,3.75-7,4.12-.27,7.8,2.9,11.85,2.74,6.14-.24,11.11-3.89,17.05-5,.86-.16,1.63-1.22.29-1Z"/><path class="cls-2" d="M78,63.06a9.17,9.17,0,0,0-5.84,2.35c-1.33,1.13-2.7,3.17-1.76,4.92,1.08,2,4.39,2,6.33,1.85a7.94,7.94,0,0,0,5.13-2.09c2-2.06,1.1-5.5-.76-7.32-2.36-2.31-5.76-.7-7.26,1.71-.2.31,1.6.19,1.91-.31.42-.68,1.09-1.72,1.92-1.62A3.62,3.62,0,0,1,79.78,64a5.34,5.34,0,0,1,.89,5.35c-1.23,2.78-6.19,2.59-8.09.79C70,67.72,75,63.93,77.19,63.92c.57,0,2.1-.87.81-.86Z"/><path class="cls-2" d="M88.28,56.83c2.16.07,3,.37,4,2.37a7,7,0,0,1,.09,5c-.06.19.19.18.31.18A6.51,6.51,0,0,0,97,63.07l-1.67.45c5.9.91,8.86-4.51,6.68-9.7-.17-.41-2,.23-1.93.52a9,9,0,0,1,.49,5.62A4.9,4.9,0,0,1,99,62.52c-.86.79-2,.13-3,.39-.45.12-1.16.71-1.54.74a18.1,18.1,0,0,0,.1-3.59,7.51,7.51,0,0,0-1.93-3.76c-.39-.47-2.52-.18-3.1-.2-.37,0-2.2.7-1.27.73Z"/><path class="cls-2" d="M103,49.82c1.43,2.46,3.43,4.91,6.48,5.06,2.86.13,5-2,6.49-4.21.13-.21-1.6-.13-1.91.34-1.39,2.13-3.07,3.83-5.62,2.33a10.87,10.87,0,0,1-3.51-4c-.27-.48-2.08.25-1.93.52Z"/><path class="cls-2" d="M127.24,46.36c-2.28,3.16,3.33,5,5.54,5.19,5.3.45,7.93-3.6,7.44-8.5-.09-.88-2-.41-1.94.52.36,3.46-.87,6.78-4.83,6.58-1,0-6-1.31-4.59-3.23.72-1-1.1-1.27-1.62-.56Z"/><path class="cls-2" d="M123,59c-2.44-3.08-7.81-4.68-10.75-1.25-2.65,3.1-1.79,9.9,1.73,12.14A6.6,6.6,0,0,0,122,68.8c3.08-3.36,0-7.56-2.74-9.9-.51-.43-2.3.32-1.8.74,2.18,1.84,4.62,4.56,3.68,7.64a3.6,3.6,0,0,1-5.2,2c-3-1.46-3.48-5.86-3.17-8.73.57-5.22,6-3.78,8.38-.79.39.5,2.25-.17,1.8-.74Z"/><path class="cls-2" d="M81.83,83.53c-2.8,1.78,3.63,4.39,4.71,4.61,3.24.65,7.36-2.11,6.78-5.74-.5-3.07-4-4.16-6.73-4.16A6.87,6.87,0,0,0,79.65,84c-.17,1,1.8.75,2-.14a5.28,5.28,0,0,1,9.23-2.31c1.43,1.77-.15,4.63-2.09,5.18a5.53,5.53,0,0,1-3.82-.85c-.29-.16-1.79-1.45-1.81-1.43,1.1-.7-.49-1.42-1.29-.91Z"/><path class="cls-2" d="M64.77,78.34,62,78.24c-.4,0-1.56.12-1.58.7a7.71,7.71,0,0,0,.68,4.24,2.25,2.25,0,0,0,2.66.79c2.12-.48,3.73-2.43,4.66-4.28.47-.93,1-2.3.32-3.25a2,2,0,0,0-1.7-.57,8.31,8.31,0,0,0-3.17.78c-.13,0-.87.38-.56.62s1,.06,1.26-.07l.55-.22.26-.09c-.22.08,0,0,.07,0s.55-.13.26-.07l.21,0h.26s.35.06.16,0a.62.62,0,0,1,.39.17c.52.38.43,1.23.26,1.84a7.87,7.87,0,0,1-1.33,2.61,8.8,8.8,0,0,1-1,1.16,3.19,3.19,0,0,1-.44.37l-.27.19h0a1,1,0,0,1-.17.1c-.27.14.12,0-.09,0s.25-.06,0,0l.09,0c-.16,0,.25,0,.08,0s-.21,0,0,0c0,0-.24,0,0,0a.63.63,0,0,1-.36-.15,1.34,1.34,0,0,1-.38-.37c-.81-1.18-.75-2.94-.71-4.29l-1.58.69,2.77.1a2.36,2.36,0,0,0,1.37-.37c.29-.21.26-.49-.14-.5Z"/><path class="cls-2" d="M103.18,71.92c-.61,1.49-.17,3.49,0,5a33.14,33.14,0,0,0,2.3,8.64c1.22,2.86,4.35,5,7.47,3.42s2.13-5.92,1-8.59a13,13,0,0,0-11.12-8.19c-.41,0-2.21.72-1.25.78,4.24.27,7.52,2.84,9.66,6.39,1.42,2.34,2.65,5.94,1.35,8.58-.84,1.69-3.36,0-4.11-1a15.29,15.29,0,0,1-2.22-5.1c-.81-2.7-2.36-7.55-1.23-10.33.14-.33-1.7-.15-1.9.34Z"/><path class="cls-2" d="M136.93,58a20.24,20.24,0,0,0-4.08,10.2.56.56,0,0,0,.62.54,7.64,7.64,0,0,0,8-6.63c.48-3.59-2.18-5.91-5.62-4.69-1.13.41-.84,1.59.32,1.18,2.59-.92,3.55,1.48,3.35,3.69a5.44,5.44,0,0,1-5.33,5.18l.62.54c.23-3.67,1.89-6.9,4-9.87.57-.81-1.4-.76-1.83-.14Z"/><path class="cls-2" d="M53.26,99.79c-.08,2.8.74,5.65.65,8.34,0,.47.49.63.88.59,10.66-1.08,21.08-3.55,31.42-6.3,5.47-1.45,10.93-3.35,16.48-4.48,3.84-.77,7.71-1.22,11.36-2.69,2.17-.87,3.48-3.32,4.58-5.24,1.77-3.08,5-5.35,8.72-3.29,1.44.79,1.81,1.81,3.41,2.24,3.18.87,8-3,10.71-3.95,4.6-1.59,8.92-2.91,13-5.7,1.08-.75-.52-1.33-1.26-.82-4.7,3.23-10,4.4-15.25,6.44-3,1.16-6.06,3.21-9.08.71a4.94,4.94,0,0,0-2.89-.92c-2.4,0-5.36.18-7.11,2.13-2.64,2.94-3.35,6.67-7.53,8s-9,1.75-13.39,3c-5.76,1.6-11.53,3.21-17.32,4.7-6.25,1.6-12.55,3-18.91,4-1,.16-5.82,1.13-5.8.5.07-2.32-.76-4.94-.69-7.42,0-1-1.93-.65-2,.17Z"/><path class="cls-2" d="M161.59,37.76c-1.5,2-1.34,4.63-1.34,7,0,3.43-.05,6.82-.28,10.25a134.87,134.87,0,0,1-3.39,23.23c-.1.42,1.79.14,1.91-.34a138.85,138.85,0,0,0,3.15-20.18c.34-3.54.56-7.1.6-10.66,0-3.13-.73-7,1.25-9.67.14-.18-1.56-.12-1.9.34Z"/><path class="cls-2" d="M44.05,105.39c2.3,1.13,5,1,7.32,2.08.52.25,2.3-.51,1.56-.88-2.31-1.13-5-1-7.33-2.08-.51-.26-2.3.51-1.55.88Z"/><path class="cls-2" d="M123.75,32.25c-4.12-1-8,.8-9.28,4.91,0,.07,0,.12,0,.15,4.67,1.86,10.39.68,13.06-3.83,0-.06,0-.11,0-.15a16.83,16.83,0,0,0-6.71-1.19c-.4,0-2.21.74-1.26.77a26.41,26.41,0,0,1,4.43.45c2.77.57.11,2.57-1,3.31-.74.47-7.23,1.68-6.16-1A4.33,4.33,0,0,1,122.16,33c.44.11,2.13-.6,1.59-.73Z"/><path class="cls-2" d="M82.78,45.38c-.6,1.9,1.32,2.27,2.77,2.06a4.33,4.33,0,0,0,3.83-4.19c0-.12-.3-.12-.34-.12l-7.39-.24c-.39,0-2.2.73-1.26.76l4.79.15,2.22.08c.22,0-.3,1.49-.39,1.68-.31.68-.9,1.39-1.69,1.1A1.22,1.22,0,0,1,84.68,45c.11-.35-1.75-.12-1.9.35Z"/><path class="cls-2" d="M70.25,56.85s.36-.23.11-.11h0c-.09,0-.08,0,0,0a8.19,8.19,0,0,0,1.11-.28,3.24,3.24,0,0,0,1.73-1.59c.16-.29-.45-.32-.56-.33a6,6,0,0,0-2,.25c-.28.09-.85.33-.87.69s.44.67.76.85,2.26-.46,1.56-.85l-.05,0a2,2,0,0,1-.27-.22c-.07-.07-.08-.09-.07-.11a1.11,1.11,0,0,1-.68.38l.13,0h.71l-.56-.32a1.83,1.83,0,0,1-.54.69l.13,0-.4.07a3.78,3.78,0,0,0-1.82.8c-.28.24-.26.5.15.55a2,2,0,0,0,1.37-.37Z"/></svg>