<svg id="layer1" xmlns="http://www.w3.org/2000/svg" viewBox="0 0 352.17 305.64"><defs><style>.cls-1{fill:#4657bc;}.cls-2{fill:#494432;}.cls-3{fill:#f4ac4d;}.cls-4{fill:#492d0c;}</style></defs><path class="cls-1" d="M320.41,160.9C306.26,152.08,290.77,146.32,274,150a59.11,59.11,0,0,0-8.15,2.45,69.13,69.13,0,0,0-15.17,3.22c-5-7.6-10.32-15.1-17.14-21.09l-.06-.09a56.46,56.46,0,0,0,1.26-5.82,2.38,2.38,0,0,0-.33-1.56l.87-3.46c.59-2.42-4.07-4.74-4.74-2q-1.16,4.68-2.36,9.36c-5.93,14.47-10.36,29.46-15,44.38-15.13,1.54-28.54-2.38-40.5-9.4A126.29,126.29,0,0,1,157,153.18c-4.53-4.65-8.76-9.62-13.26-14.28-2.27-2.36-5.74-6.75-9.44-9.2a102,102,0,0,0-9.52-8.16q.72-9.83,1-19.57c0-1.21-1.23-2.59-2.4-3.15,0-1.85,0-3.7,0-5.56a122.41,122.41,0,0,0,14.89-5.81,118.2,118.2,0,0,1,12.52-2.71c1.67-.16,3.34-.26,5-.3a24.83,24.83,0,0,0,3,.59,18,18,0,0,0,7.94-.08l.12,0s0,0,0,0a11.44,11.44,0,0,0,5.86-3.34c.29-.33-2.82-1.42-3-1.47l-.14,0,.75-.51,1.93-.32s-.36-.21-.89-.49c.29-.24.57-.49.85-.75l.92-.12s0,0,0-.07l-.09-.64a13.51,13.51,0,0,0,2.29-3.34l0,0a.07.07,0,0,0,0-.06,11.93,11.93,0,0,0,.84-2.53c.13-.65-2.63-1.37-3-1.48a22.11,22.11,0,0,0-19.53,3.33,5,5,0,0,0-3.2,2.79l-.17.18-.23.12c-.13.07-.14.15-.09.22-.37.4-.74.82-1.09,1.25-.13.16.62.55.63.56.17.08.34.15.51.24a4.29,4.29,0,0,0,.44,1.52v0a64.11,64.11,0,0,0-9.27,2.42c-2.41.9-4.76,1.92-7.1,3a85.71,85.71,0,0,0-13.62,5,1.21,1.21,0,0,0-1.2.59c-.55.27-1.11.52-1.65.8,0,0,0,0,.06.08l0,0,.13,0a11.52,11.52,0,0,0,1.27.72c.3,25.68-5.14,51.07-6.6,76.66-.17,2.82-.31,5.69-.46,8.6l-.09.37-.37-.06a47,47,0,0,0-8.34-1.73A31.32,31.32,0,0,0,91,177.6a49.41,49.41,0,0,0-7.38,1.64c-7.09,2.19-13.62,6.07-20.18,9.56a4.26,4.26,0,0,1-.5,0l.21.13-.25.13a.31.31,0,0,0-.32.17c-.73.38-1.46.76-2.2,1.13s2.4,4,3.52,3.77c8.47-1.94,15.84-6.85,23.67-10.36,1.16-.37,2.33-.72,3.52-1a60.67,60.67,0,0,1,15.34-1.59,45.07,45.07,0,0,1,4.66.43c-1.87,7.61-4.09,15.11-6.65,22.57-3.1,9-5.7,18.11-5.38,27.73.06,1.73,2.89,4.1,4.2,2.16,9.92-14.7,11.85-33.51,12.89-51.22a105.46,105.46,0,0,1,9.58,4.47,115.29,115.29,0,0,1,21.73,15.06c2.74,2.34,1.75-.83.17-2.17-2.55-2.18-5.29-4.43-8.16-6.63,3.56,2.33,7,4.8,10.24,7.24,2.45,1.84,2.17-.13.7-1.7a68.2,68.2,0,0,0-33.87-20q.84-3.84,1.61-7.71c1.27-6.42,2.36-12.93,3.31-19.48A183.3,183.3,0,0,0,136,164.3c7,5.43,13.75,11.18,20.63,16.78,6.55,5.33,12.83,10.83,18.92,16.67,5,4.76,10.23,9.83,16.76,12.33,1.46.55,5.13-2.9,3.76-3.42-6.89-2.64-12.29-8.15-17.52-13.17C172.91,188.05,167,183,160.91,178c-12.92-10.55-27-20.44-38.58-32.45.88-6.85,1.58-13.73,2.14-20.6a4.74,4.74,0,0,0,1.22,2c.59.47,1.17,1,1.76,1.45-1.54.48-3.22,1.19-1.69,1.15,2-.05,4.53,2.64,5.91,3.82.28.23.54.48.81.73-.43.19-.7.35-.65.41,9.75,11.86,20.37,23.23,33.33,31.58,13.09,11.51,28.58,16.81,46.2,15.07A325.17,325.17,0,0,1,200,212.39c-.89,2,3.25,4.5,4.51,2.52,6-9.36,10.19-19.49,13.68-29.91a1.48,1.48,0,0,0,2-1.15c2.44-10.82,5.17-21.58,7.94-32.32,1.35-4.42,2.79-8.8,4.39-13.11,4,6.51,7.77,13.26,11.75,19.9C235.23,162.8,228,170,226.21,180.9a1.1,1.1,0,0,0,.16,1.49c.61,1,2.32,1,3.53.49a2.05,2.05,0,0,0,.88-.5,219.32,219.32,0,0,1,19.06-15.1,115,115,0,0,0,17.77,21.83A132.8,132.8,0,0,0,285.1,209.3c1.73,1.6,3.17.31,1.89-1.63-1.52-2.33-3.08-4.64-4.66-6.93.3.21.58.43.88.63,2.28,1.53,2.14-1.35,1-2.58-4.8-5-9.39-10.26-13.83-15.61-1.84-2.56-3.79-5-5.8-7.44q-3-4.19-6-8.39c-.92-1.29-1.83-2.61-2.72-3.93a88.06,88.06,0,0,1,14.27-7.06c.44-.17.87-.3,1.31-.45,12.56-.79,26.63.5,38.68,5.08a54.85,54.85,0,0,1,5.58,4.25c1.46,1.27,4.68.09,4.77-1.44C321.49,163.06,321.92,161.84,320.41,160.9Zm-56.58,18.4.59.73,5.54,7.69-.87-.77C267.28,184.44,265.54,181.88,263.83,179.3Zm-51.23-2.1a3.47,3.47,0,0,0-.46-.41l.6-.07C212.69,176.88,212.64,177,212.6,177.2Zm-46-101.93a16.58,16.58,0,0,0-4.3-.51c.65-.22,1.32-.42,2-.61,1.09.07,2.2.21,3.28.38C167.24,74.78,166.91,75,166.57,75.27Zm-4.48,7.79c.47-.09.93-.2,1.39-.32-.32.13-.65.25-1,.36Zm6.62-9.42-1-.19c.47-.07.93-.11,1.39-.14ZM171,70.52a10.36,10.36,0,0,1-.54,1.4,24.47,24.47,0,0,0-6.39-.26A18.28,18.28,0,0,1,171,70.52ZM109,205.75a79.86,79.86,0,0,1-4.41,15A126,126,0,0,1,109,205.75Zm137.39-43.94.56.91A132.57,132.57,0,0,0,234.16,173,27.83,27.83,0,0,1,246.39,161.81Zm5.5,4.08.34-.22q2.6,4.14,5.2,8.26C255.5,171.33,253.66,168.64,251.89,165.89Z"/><path class="cls-2" d="M119.54,185.85c-2.7-1.17-5.17,3.09-2.12,4.42,16.5,7.14,29.31,26,27.78,44.21-1.19,14.17-10.13,26.31-22.43,33a46.72,46.72,0,0,1-39.35,2.34c-8.19-3.23-14.52-9.29-19.54-16.38a34.67,34.67,0,0,1-4.2-8,3,3,0,0,0,0-.61,5.56,5.56,0,0,1,0-.75h.09l0,.31a2.17,2.17,0,0,1,0-.36c.6-.39,1-.88.93-1.42-.12-.86-.22-1.73-.29-2.61a2.27,2.27,0,0,0,.84-1.44c1.22-8.3,3-16.49,2.62-24.86,5-13,15.3-23.06,31.27-24.85,1.7-.19,5.26-3.13,1.88-2.75-13.38,1.5-25.29,7.39-33.23,18.47-.37.51-.71,1-1,1.56a2.74,2.74,0,0,0-3.15,1.45c-.28.6-.53,1.22-.77,1.83a2.31,2.31,0,0,0-1.48,1.49A74.37,74.37,0,0,0,55.13,220h0c-1.05,1-2.13,1.34-2.29,2.42-3.08,21,6.4,41.08,25.78,50.52,14.46,7,31.84,5.95,45.95-1.33a47.49,47.49,0,0,0,25.8-38.07C152,213.57,137.34,193.56,119.54,185.85Z"/><path class="cls-2" d="M315.33,172a26.52,26.52,0,0,0-13.64-10.49,33.53,33.53,0,0,0-9-4.41c-10.39-3.15-21.69,2.24-30.9,6.51-1.58.73-2.81,4.49,0,4.08,12-1.78,26-6.1,37.4-2,6.55,4.76,11.95,12.25,15.21,18.65,8.67,17,1.57,38.61-11.48,52-14.76,7.85-35.06,4.52-51-2.54-.42-.49-.83-1-1.22-1.51-9.05-12-11.4-28.56-9.66-43.16.34-2.92-4.1-1-4.66.74-3,9.22-4,19.08-1.68,28.48a32.57,32.57,0,0,1-2.28-4.72c-2.4-6.18-1.4-12.3.76-18.33,2.1-5.84,6.15-13.44,12.43-15.5,2.47-.81,3.29-5.29,0-4.22-12.57,4.12-20.35,21.65-19.26,34.1.85,9.64,6.82,17.67,14.57,23.6a1.37,1.37,0,0,0,.77,1.05c1,.55,2,1.08,3,1.6,1.35.86,2.74,1.67,4.14,2.41.42.48.83,1,1.27,1.45,13.42,14.29,36,15.16,51.15,3.3a53.06,53.06,0,0,0,5-4.43,41.19,41.19,0,0,0,15-16.18C330,206,325.6,186.85,315.33,172ZM263,242.83c10.23,2.59,20.85,3.24,30.52,1C283.86,249.09,272.4,247.91,263,242.83Z"/><path class="cls-2" d="M270.94,102.91c-.84-.71-4.55,2.46-4.67,2.37a4.9,4.9,0,0,1,.65.63l-.32,0a3.86,3.86,0,0,0-3.41-1,10.13,10.13,0,0,0-1,.31,13.23,13.23,0,0,0-8,.84,28.53,28.53,0,0,0-4.45,1.54c-2.87.2-5.69.67-8.08,1q-1.35.21-2.7.45a3.75,3.75,0,0,1,.58-.13l-1.6.22a7.5,7.5,0,0,1,1.51-.84,96,96,0,0,0-17.29,0c-1,.12-4.33,2.51-4.41,2.49l.05,0s0,0-.05,0h.12l1.81.4c-1.34.81-2.64,1.88-4.05,2.08l1.45-.2a6.9,6.9,0,0,1-1.38.73c1.13.09,2.26.2,3.39.31-1.25.72-3.06,1.88-3.21,1.84,1,.31,2,.57,3,.81-1.42.78-3.3,2-1.85,1.48,1.23-.4,2.47-.75,3.72-1.07a74.44,74.44,0,0,0,22.3.42c.1,0,.21.06.31.09a12,12,0,0,0-3.21,3.41.56.56,0,0,1,0,.12c6.78,2.54,17.09-2.66,22.75-6.14a12.07,12.07,0,0,0,4.08-3.88C271.55,108.62,274.24,105.68,270.94,102.91Zm-3.14,4.93a3.46,3.46,0,0,0-.26-.7l.11-.1A2.31,2.31,0,0,1,267.8,107.84Zm-13,5.9a44.35,44.35,0,0,0-4.63,1c.22-.18.45-.35.68-.52l1.81-.48a12.69,12.69,0,0,0,1.92-.22A2.75,2.75,0,0,0,254.82,113.74ZM249.28,110c0,.06-.07.12-.09.17-.29,0-.59,0-.88-.06l.07-.09.28-.05Zm-1,4.82c-.15.11-.31.22-.45.34l-.46,0a2.36,2.36,0,0,1-.28-.12Zm11.4-3,.33-.17c1.22-.31.89,0,0,.42A4.08,4.08,0,0,1,259.71,111.76Zm3,0c0,.15,0,.31,0,.46a1.79,1.79,0,0,1-1.29.34C261.8,112.32,262.25,112.06,262.68,111.78Zm-23.51-.39c-.75-.07-1.5-.16-2.25-.26l.32-.06c1-.16,2.11-.35,3.26-.52C240,110.88,239.47,111.2,239.17,111.39Zm11.47,5.51-.1,0a2.73,2.73,0,0,0-.69.2l-.35,0c.8-.29,1.59-.63,2.37-1a43.12,43.12,0,0,0,4.67-1.4,3.36,3.36,0,0,0,.48.13C254.46,115.75,252.08,116.43,250.64,116.9Zm16.3-11a3.56,3.56,0,0,1,.68,1l-.19,0a5.16,5.16,0,0,0-.43-.61Zm-.63,0c-.09,0,0,0,0,0Zm-33.56,9c.54,0,1.08-.06,1.62-.11l.42-.24a6.58,6.58,0,0,0,1.27-.64l.49,0c-.32.18-.63.57-1,.75V115h0l0-.21c.13,0,.24-.14.37-.15.94-.13,1.88-.29,2.82-.4,1.8.09,3.6.09,5.41,0-.88.41-2.11,1-2.87,1.48a72.49,72.49,0,0,1-11.78-.29C230.6,115.27,231.67,115.1,232.75,115Zm25.5,2a8,8,0,0,1,2-1.39l-4.85.68c1-.37,2.12-.77,3.21-1.19q.3,0,.6,0a9.94,9.94,0,0,0,2.64-.67A7.8,7.8,0,0,1,258.25,117Z"/><path class="cls-3" d="M110.69,143.61c0-.39-.77-1-1.62-1.47,0-.25-.07-.5-.11-.76-.16-1.17-3-2.51-4-2.53-15.6-.3-31.08,1.7-46.69,1.58-.15,0-.62,0-.46.33a17.1,17.1,0,0,0,4.06,5.63c-.48-.1-.8-.09-.77.09.06.35.14.71.22,1.07,0,.07,0,.19.07.36a34.55,34.55,0,0,0,1.83,5.66c2.13,9.42,8.65,19.13,17.2,22.57.29.11,1.46.58,1.43-.08a39,39,0,0,0-.88-6.69l.11.1c.27.22,2.62,1.68,3.44,1.56.79.63,1.6,1.23,2.42,1.77.22.14,3,1.8,3.21,1.06a20.82,20.82,0,0,0,.49-3.48c.62.23,1.25.43,1.9.6.09,0,.85.23.91,0s.07-.44.11-.67a67.44,67.44,0,0,0,7.65-.36,11.55,11.55,0,0,0,1.56.56c.38,1.2,3.3,2.51,4.35,2.36,3.63-.51,4.38-6.85,4.65-10.72a.12.12,0,0,0,0-.12s0,0,0-.06l.12.05c0-.22-.08-.44-.11-.66s0-.63,0-.89C112.23,154.81,111.47,149.16,110.69,143.61Zm-10.09,23.9c-.15-.21-.3-.42-.44-.64l.45.12c0,.2.09.41.13.61ZM85.86,170c-.14-.12-.27-.25-.4-.38l.45.07C85.9,169.78,85.88,169.89,85.86,170Zm-.74-18.79c.12.94.25,1.9.4,2.87-.33-.92-.63-1.84-.88-2.78C84.8,151.27,85,151.23,85.12,151.2Zm10.68-1.13c0-.73,0-1.46.07-2.19a19.9,19.9,0,0,1,.89,3.24A12,12,0,0,0,95.8,150.07Zm-19.86,4.45c.2.47.4.94.62,1.41-.08-.15-.17-.3-.26-.45C76.17,155.16,76.06,154.84,75.94,154.52Zm-7.36.12c0-.18,0-.34,0-.51a23,23,0,0,1,4.92,9.77l-.41-.35c-1.51-2.84-2.93-5.74-4.41-8.6Zm10.1,5.92c-.31-.85-.65-1.7-1-2.52.5.91,1,1.78,1.61,2.64q.18.73.33,1.47C79.28,161.63,79,161.1,78.68,160.56Zm5.86,6.13c.39.33.78.65,1.19.95l-1.08-.08C84.62,167.27,84.58,167,84.54,166.69Zm0-3.11c-.35-.46-.68-.94-1-1.43a28.29,28.29,0,0,0-4.25-8.68c-.18-.53-.33-1.06-.48-1.6.68,0,1.37,0,2.05-.09h0a41,41,0,0,0,4.4,8.69,25.57,25.57,0,0,1,.76,4.86C85.3,164.51,84.67,163.71,84.57,163.58Zm10.19,0,.45.76a2.36,2.36,0,0,1-.47.61C94.76,164.47,94.77,164,94.76,163.56ZM105,143.32c-1.3-.94-3.66-1.85-3.71-1.43a65.87,65.87,0,0,0-.4,9.61A13.61,13.61,0,0,0,98,146.13a23.46,23.46,0,0,0,2.85-2.17c.36-.32-1.13-1.45-2.5-2.16,2.15-.07,4.3-.12,6.46-.13C104.85,142.22,104.92,142.77,105,143.32Zm-20.71,1.43-.91-1.32a4.67,4.67,0,0,0-1-.8c4-.23,7.94-.48,11.9-.66C91,143.06,87.65,144,84.29,144.75Zm21.76,17.88a64.9,64.9,0,0,0,.49-7.75l.42,2.44c.1.77.21,1.55.32,2.32a29.8,29.8,0,0,1-.89,6C106.27,164.6,106.16,163.61,106.05,162.63ZM67.94,143.25c3.69-.05,7.39-.23,11.07-.43.06,1,.18,2,.34,3-1.14.23-2.28.44-3.42.64-.18-.08-.34-.18-.51-.26s-2.15-1-2-.17c0,.28.11.55.16.82l-1.22.21c-1-.5-2.71-1.28-2.58-.52,0,.29.12.59.18.88l-1.17.18a30.91,30.91,0,0,0-3.57-2.82,12.06,12.06,0,0,0-1.89-.84C63.89,142.93,67,143.27,67.94,143.25Z"/><path class="cls-4" d="M255.46,162.72c2.31,0,4.15.32,4-2.58l-1.58.68c5.07.37,9.9-.49,14.84-1.58,8.87-2,16.41-2.08,25,.91,12,4.14,21.25,14.43,26.61,25.57a44.36,44.36,0,0,1-10.25,52c-26.07,23.61-72.81,13-84.22-20.52-7.31-21.5,12.48-45.12,29.55-55.28.84-.5-1.12-.33-1.49-.11-18.06,10.74-37.25,34.56-29.65,56.91,5.08,14.95,17.7,25.52,32.55,30,28,8.49,62.58-5.26,69-35.59,3.55-16.75-3.93-33.78-16.21-45.09A44.89,44.89,0,0,0,290.58,157c-10.76-1.6-20.74,3.8-31.46,3-.35,0-1.61.15-1.58.68.09,1.79.35,1.2-1.27,1.22-.55,0-2.1.87-.81.85Z"/><path class="cls-4" d="M283.36,206.49a7.55,7.55,0,0,1-1,3.49c-.32.49-.58.2.31.17a1.24,1.24,0,0,1-.53-.18,3.57,3.57,0,0,1-1-.8,7,7,0,0,1-.94-1.23c-.46-.72-.68-1.12,0-1.76.94-.89,2.51-.91,3.72-1.09l-.78-.07.66,4.42c.05.34,2-.07,1.93-.52l-.66-4.42c0-.22-.67-.09-.78-.07-2.45.37-5.05.72-6.64,2.83,0,0,0,.05,0,.08.87,1.69,2.19,3.84,4.38,3.51,2.53-.39,3.05-2.64,3.28-4.88,0-.2-1.87,0-1.93.52Z"/><path class="cls-4" d="M301.12,165c11.05-1,15,14.36,18,22.33a54,54,0,0,1,2.26,32.15c-6.63,26.61-37.21,34-59.7,22.5-21.66-11.1-31.15-36.44-19.23-58.12,11.7-21.27,41.15-31.32,61.58-16.39,14.67,10.72,22.95,31.44,16.61,48.79-6.82,18.67-27.42,29.52-45.81,33.17-.79.16-1.68,1.08-.33.81,19.31-3.84,39.33-14.37,47.6-33.17,8.55-19.44-3.92-45.72-22.77-54.22-16.68-7.52-36-2.22-49.3,9.5-16.49,14.54-19.72,38.17-6.89,56.05,16.67,23.23,55.19,28.1,73.61,4.4,8.95-11.5,9.55-27.32,5.95-40.89-2.53-9.55-8-29-20.8-27.77-.55,0-2.09,1-.82.86Z"/><path class="cls-4" d="M280.56,203.67c-7.08-12.29-20.88-18.77-31.85-27-.52-.39-2.28.37-1.8.73,10.86,8.16,24.71,14.61,31.72,26.78.35.62,2.2,0,1.93-.51Z"/><path class="cls-4" d="M279.49,201.85c-12.91,1.63-25.48-2.19-38.27-3.32-.82-.07-2,1.1-.72,1.22,13,1.15,25.67,5,38.76,3.3,1-.12,1.56-1.37.23-1.2Z"/><path class="cls-4" d="M275.81,208.43a288.83,288.83,0,0,0-32.29,10.87c-1.23.52-.11,1.29.8.91a286.49,286.49,0,0,1,31.78-10.69c1.17-.33.88-1.42-.29-1.09Z"/><path class="cls-4" d="M279.52,210c-4.6,8.75-4.75,18.86-7.51,28.21-.09.3,1.76.08,1.9-.37,2.76-9.35,2.92-19.46,7.51-28.21.1-.19-1.66-.1-1.9.37Z"/><path class="cls-4" d="M282.44,209.79q8.91,16.35,19.34,31.75c.44.64,2.3,0,1.78-.81Q293.09,225.34,284.22,209c-.36-.66-2.23,0-1.78.81Z"/><path class="cls-4" d="M284.87,209.58c8.84-2.38,17.85,3.29,26.35,5.08.53.11,2.27-.72,1.22-.94-9.22-1.94-18.16-7.54-27.79-4.95-1.14.31-.92,1.12.22.81Z"/><path class="cls-4" d="M286.11,206.32c10.79-4.55,21.61-9.12,31.6-15.29,1.1-.69-.63-.73-1.15-.41-9.86,6.09-20.52,10.6-31.16,15.1-1.26.53-.08.94.71.6Z"/><path class="cls-4" d="M286.27,202.92c1.61-11.73,6.42-23.49,5-35.47-.06-.45-2,0-1.93.52,1.41,11.9-3.38,23.6-5,35.26-.08.57,1.84.2,1.91-.31Z"/><path class="cls-4" d="M287.43,201c-9.52-12-10.92-28.13-19.22-40.8-.37-.55-2.24.09-1.8.77,8.31,12.66,9.69,28.79,19.22,40.79.43.53,2.29-.15,1.8-.76Z"/><path class="cls-4" d="M78.05,189.2c2.45,0,4.12.28,4-2.71l-1.34.82c5.54.4,10.81-.7,16.19-1.91a40.54,40.54,0,0,1,24.77,1.68c11.78,4.56,20.81,15,25.88,26.29A44,44,0,0,1,135.41,265c-26,21.72-74.3,11.89-83.29-22.89C46.6,220.8,64.8,198.68,81.89,188.52c1.12-.67-.57-1-1.21-.6-18.48,11-36,33.52-30.13,56.15,3.79,14.67,17.35,26.12,31.31,30.62,28,9,63.17-3.41,70.38-34.12,4-17.06-3.45-34.61-16-46.18-6.54-6-14.52-9.29-23.1-11.2-10.58-2.35-21.06,3.77-31.67,3-.47,0-1.37.23-1.34.82.08,1.64.06,1.06-1.31,1.08-.73,0-2.05,1.13-.74,1.11Z"/><path class="cls-4" d="M105.91,232.67c-.06.6-.43,3.6-1.12,3.54-1.18-.09-2.22-2.17-2.67-3-.05.17-.11.34-.16.51,1.15-1.52,2.83-1.66,4.6-1.92l-.86-.39c.22,1.47.43,2.94.65,4.42.12.81,2.06.34,1.94-.52l-.66-4.42c0-.34-.6-.43-.86-.39-2.4.36-4.85.68-6.41,2.73-.09.12-.25.33-.17.5.84,1.64,2.17,3.91,4.3,3.83,2.56-.08,3.16-3,3.37-5,.09-.92-1.87-.61-2,.18Z"/><path class="cls-4" d="M124,191.63c11.1-1,15.27,15.23,18.16,23.29a52.25,52.25,0,0,1,1.17,32.85c-7.64,24.77-36.78,31.11-58.24,20.81A46.88,46.88,0,0,1,61.62,242.9c-4.44-12-1.61-25,5.29-35.47,12.67-19.19,40.57-27.52,59.88-13.41,15.28,11.17,23.29,32.88,15.53,50.51s-27.43,27.39-45.24,30.93c-1.23.24-.83,1.63.37,1.39,19.89-4,40.78-15.43,48.09-35.44,7.18-19.68-5.87-43.65-23.85-52.52-17.06-8.4-37.91-1.45-50.81,11.16-15.56,15.2-17.45,38.55-4.34,55.79,17.51,23,56.77,27.2,74.07,1.76,8-11.85,8.16-27.33,4.32-40.65-2.74-9.47-8-28-20.76-26.8-1.11.11-1.47,1.61-.16,1.48Z"/><path class="cls-4" d="M103.12,230c-7.06-12.26-20.9-18.73-31.83-27-.41-.3-2.05.47-1.83.64,10.89,8.17,24.7,14.63,31.73,26.83.25.44,2-.31,1.93-.52Z"/><path class="cls-4" d="M102.06,228.25c-12.9,1.64-25.49-2.19-38.27-3.32-.75-.07-2,1-.74,1.12,13,1.15,25.65,5,38.75,3.3,1-.12,1.6-1.26.26-1.1Z"/><path class="cls-4" d="M98.33,234.62A290.88,290.88,0,0,0,66,245.49c-1.22.51-.14,1.66.88,1.24A282.57,282.57,0,0,1,98.71,236c1.19-.34.82-1.76-.38-1.42Z"/><path class="cls-4" d="M102.1,236c-4.6,8.77-4.75,18.86-7.51,28.21-.33,1.11,1.6,1.15,1.86.27,2.76-9.34,2.92-19.47,7.51-28.21.52-1-1.44-1.07-1.86-.27Z"/><path class="cls-4" d="M104.92,236q8.91,16.35,19.34,31.75c.3.44,2-.35,1.94-.52q-10.49-15.39-19.34-31.75c-.24-.43-2.06.29-1.94.52Z"/><path class="cls-4" d="M107.41,235.87c8.8-2.36,17.77,3.3,26.19,5.07.48.1,2.18-.67,1.57-.8-9.27-1.94-18.27-7.56-27.94-5-1.14.31-1,1,.18.69Z"/><path class="cls-4" d="M108.73,232.9c10.8-4.56,21.6-9.14,31.59-15.32,1.12-.69-.51-1.27-1.26-.81-9.85,6.09-20.52,10.58-31.16,15.07-1.23.52-.13,1.46.83,1.06Z"/><path class="cls-4" d="M108.84,229.3c1.61-11.74,6.41-23.5,5-35.49-.08-.64-2-.2-1.93.51,1.41,11.89-3.39,23.59-5,35.23-.1.75,1.84.4,1.93-.25Z"/><path class="cls-4" d="M110,227.32c-9.52-12-10.91-28.13-19.22-40.8-.47-.72-2.31,0-1.77.85,8.31,12.66,9.69,28.8,19.22,40.79.54.68,2.38-.08,1.77-.84Z"/><path class="cls-4" d="M105.26,228.22c1.13-10.31,3.71-20.57,5.82-30.71.18-.88-1.78-.6-2,.18-2.11,10.14-4.69,20.41-5.82,30.71-.1.92,1.86.61,2-.18Z"/><path class="cls-4" d="M147.15,200.1a3.37,3.37,0,0,1,.67.88l1.75-.68c-2.14-.69-4.38-3.55-6.11-5-4.25-3.47-8-7.46-12.4-10.78-7.63-5.78-17.84-8.14-27.25-8.72-17.28-1.08-35.27,5.89-45.42,20.26-.48.69,1.26.28,1.47.17,7.22-3.58,13.63-8.25,20.31-12.71a40.43,40.43,0,0,1,28.47-6.82c15.77,1.82,34.55,7.52,42.25,22.71.29.57,2.15-.09,1.93-.52-8.25-16.28-28.53-21.62-45.31-23.37A41.31,41.31,0,0,0,84,180.13c-8.83,4.6-16.33,11.29-25.3,15.73l1.47.18c11.38-16.11,31.68-21.75,50.52-18.3,10.22,1.86,18.19,6.71,25.78,13.61,2.46,2.25,4.93,4.46,7.47,6.6,1.15,1,2.6,2.72,4.07,3.19.32.1,1.93-.08,1.75-.68a3.65,3.65,0,0,0-.81-1.06c-.37-.43-2.21.24-1.8.7Z"/><path class="cls-4" d="M320.54,165.26c-.67.3-6.65-3.38-7.88-4.06-4.15-2.3-8.23-4.75-12.37-7.09-7.12-4-12.73-6.12-21.1-5.57-19.5,1.28-39.74,12-46.45,31.28-.12.34,1.71.1,1.9-.35,13.78-31.49,52.24-34.91,79.52-19.37l1.1-.66-3.81.57c-.77.11-1.74.87-.38.67l3.82-.56c.09,0,1.45-.46,1.09-.66-28.14-16-69-12.13-83.24,20.36l1.9-.35c3.65-10.49,11.31-18.38,20.91-23.74,9.25-5.18,24.33-9.44,34.69-5.22,7.21,2.94,13.83,7.54,20.6,11.34,2.75,1.54,7.4,5.13,10.8,3.63,1.17-.51-.66-.41-1.1-.22Z"/><path class="cls-4" d="M205,209.09c5.78,1.48,7.35,7.81,5.52,12.93-2.72,7.68-12.37,7.48-18.1,3.38-4.23-3-3.88-8.65-1.41-12.65,3.46-5.59,10.12-6.27,15.26-2.66.64.44,2.37-.45,1.51-1.06A12.79,12.79,0,0,0,190.36,211c-4.36,4.81-4.33,12,1.09,15.88,6.17,4.42,15.76,3.66,20-2.87,3.71-5.72,1.59-14.34-5.33-16.12-.76-.19-2.29.92-1.14,1.22Z"/><path class="cls-4" d="M203,218.65l80-11.87c1.07-.16,1.47-1.64.16-1.44-27.51,4-55.18,6.92-82.69,11-1.07.16-1.48,1.64-.17,1.44,27.51-4.06,55.19-6.93,82.7-11,.05-.48.11-1,.16-1.44l-80,11.87c-1.07.16-1.47,1.64-.16,1.44Z"/><path class="cls-4" d="M202.29,215.18c-3.72-3.83-7.55-7.53-11.54-11.09s-8.94-6.74-12.91-10.55c-5.23-5-10.18-10.37-15.35-15.48a166,166,0,0,0-18-15.83c-4.29-3.16-9.57-6.63-15.11-6.58-.81,0-2,1.25-.72,1.24,6,0,11.62,4.3,16.17,7.75a178.63,178.63,0,0,1,17.68,16c4.55,4.53,9,9.21,13.55,13.7,3.52,3.43,7.87,6.18,11.6,9.39,4.49,3.86,8.73,8,12.85,12.25.53.55,2.37-.19,1.78-.8Z"/><path class="cls-4" d="M110.29,194c-3.23,12.12-4,24.59-4.87,37.05l1.93-.36c-1.51-11.56.86-23.22,3.3-34.49,2.37-10.94,4.59-21.87,6.65-32.87,4.13-22.07,9.08-46,3.64-68.29-.19-.78-2.12-.27-1.93.52,5.54,22.65.26,47.06-3.94,69.5-2.06,11-4.34,22-6.71,33s-4.39,22.09-2.94,33.2c.1.75,1.89.3,1.94-.36.88-12.46,1.65-24.93,4.87-37,.22-.82-1.74-.55-1.94.2Z"/><path class="cls-4" d="M121.84,92.54c-.16-4.85,13.29-7,17-8,6.74-1.76,13.23-3.9,19.05-7.81C162,74,165.6,70.15,170,67.8c5.62-3,8.06,9.15,9,12.4l1.06-.94a101.19,101.19,0,0,0-11.48,2.95c-4.08,1.22-8.25,1.37-12.45,1.81-6.39.68-7.26-5.08-9.78-9.75l-1,1.11a47.18,47.18,0,0,0,22.63-10c.17-.14.45-.44.33-.69a3.85,3.85,0,0,0-3.54-2.59c-.93-.14-2,1.18-.68,1.38,4.21.64-1,3.77-1.42,4a40.81,40.81,0,0,1-5.83,3.39A39.89,39.89,0,0,1,145.54,74c-.52.08-1.32.47-1,1.11,2.09,3.88,3.29,9.83,8.42,10.37,9.22,1,18-3.31,26.88-4.85.42-.07,1.22-.35,1.06-.94-1-3.62-2.75-13.13-7.85-13.75-4.15-.5-7.88,3.38-10.84,5.71-8.62,6.81-17.59,9.95-28.09,12.76-4.25,1.13-14.47,2.28-14.26,8.28,0,1,2,.68,2-.15Z"/><path class="cls-4" d="M122.11,99c.13.85.26,1.69.38,2.54l1.93-.52c-.54-1.27-1.29-2.34-1.83-3.62-.12-.27-.58-.22-.81-.19l-2.54.38c-.34,0-1.14.25-1.12.71.8,32.25-3.38,64.34-3.83,96.57,0,.46,1.93.14,1.94-.52.44-32.23,4.62-64.31,3.82-96.57-.38.23-.75.47-1.12.71l2.14-.32c-.64.09,2.26,5.36,1.42,3.37.23.54,2,.07,1.93-.52-.12-.84-.25-1.69-.38-2.54-.07-.53-2-.09-1.93.52Z"/><path class="cls-4" d="M197.78,213c-7-2.54-12.52-8.55-17.49-13.84s-9.34-10.73-14.12-16a249.75,249.75,0,0,0-44.44-37.9c-.69-.46-2.4.49-1.5,1.1a247.82,247.82,0,0,1,45.54,39.17c8.8,9.84,17.94,24,30.89,28.74.8.29,2.27-.86,1.12-1.28Z"/><path class="cls-4" d="M121.8,126.63c2.29-.34,3.46,2.55,5,4.36,2.42,2.94,4.78,5.93,7.18,8.88a137.54,137.54,0,0,0,16.33,17.36c10.62,9.22,21.9,18,35.9,21.39,7.72,1.86,16.75.65,24.54-.09.74-.07,13.83-1.59,13-2.8-.31-.45-2.18.17-1.81.7.39-.36.37-.45-.06-.25s-1.11.24-1.66.34c-1.47.26-3,.45-4.44.63-3.93.49-7.89.79-11.85,1-7.81.45-14.87.31-22.28-2.34-12.45-4.45-22.43-12.83-32.07-21.56a132.79,132.79,0,0,1-12.72-13.79c-2.11-2.55-4.16-5.13-6.23-7.71-1.61-2-4.72-4.62-5.11-7.21,0-.28-.64-.21-.8-.19l-2.54.38c-.85.13-1.67,1.09-.32.89Z"/><path class="cls-4" d="M207,212.33c7.29-11.89,8.4-27.1,11.35-40.45,4.17-18.86,9.39-38.19,17.15-55.9l-1.87.07c-4,17.76-10.18,35-14.23,52.71-3.56,15.61-13.49,28.92-18.08,44.2-.23.77,1.33.36,1.58.22,1.42-.83,1.61-1.69,2.45-3.2.47-.85-1.48-.68-1.81-.09a7.77,7.77,0,0,1-1.86,2.64l1.58.21c4.6-15.32,14-28.68,18.08-44.2,4.67-17.56,10.19-35,14.23-52.71.18-.79-1.65-.45-1.88.07-7.37,16.82-11.71,34.69-16.37,52.39-3.79,14.41-4.18,31-12.13,44-.5.81,1.45.66,1.81.08Z"/><path class="cls-4" d="M235.64,117.39c7.52-1,15.14-1.35,22.57-3,4-.85,9.75-1.62,13-4.43,4-3.51-.81-6.84-4.56-7.78-3.92-1-8.68,1.17-12.17,2.66-2.59,1.1-5.07,2.44-7.62,3.63-1.69.79-4.38.35-6.21.35-4.73,0-9.44-.06-14.16.33s-14.3,1.7-12,8.57c.08.22.64.1.78.07,2.82-.49,5.59-1.18,8.39-1.78,5.26-1.11,8.8-.19,12.9,2.84a11.81,11.81,0,0,0,9.06,2.48c7.79-.85,14.82-4.77,22.45-6.19.75-.14,1.73-.92.37-.67-4.41.82-8.7,2.62-13,3.93a53.7,53.7,0,0,1-10,2.3c-4.53.5-7.56-3.33-11.27-5.16a12.44,12.44,0,0,0-6.53-.72c-1.53.18-11.2,2.49-11.47,1.67-2-6,7.81-6.5,11.48-6.75,5-.33,10.08-.09,15.11-.2,3.68-.08,5.94-1.18,9.26-2.81,4.35-2.14,10-5.3,14.88-3.21,1.77.76,3.64,2.12,4.12,4.06.77,3.16-6.42,4.72-8.17,5.1-8.75,1.9-17.44,2.7-26.3,3.93-.46.07-2.1.92-.85.74Z"/><path class="cls-4" d="M228.87,134.15c6.68,1.58,11.1,8.49,14.85,13.74A148.21,148.21,0,0,0,258.37,165c11.78,12.16,24,24,32.46,38.84l1.25-1c-6.84-1-12.81-5.91-17.75-10.37a130.58,130.58,0,0,1-16.71-18.91c-8.56-11.44-18.31-25.51-20.67-39.94l-1.86.66c13.46,12.48,22.78,28.37,33.63,43l1.78-.8c-14.56-14.25-25.39-32.11-41.76-44.52l-1.51,1c8.06,3.66,14.3,10.67,19.38,17.75.43.6,2.3-.08,1.79-.79-5.14-7.16-11.5-14.27-19.66-18-.56-.26-2.38.35-1.51,1,16.26,12.33,27,30.14,41.49,44.31.5.48,2.33-.07,1.78-.8-10.84-14.63-20.16-30.53-33.63-43-.47-.43-2-.15-1.86.66,2.5,15.29,13.21,30.2,22.34,42.22,8,10.52,19.86,25.73,34,27.69.49.07,1.62-.35,1.25-1-9-15.8-22.24-28.22-34.72-41.19A153.34,153.34,0,0,1,244,145c-3.52-4.85-7.79-10.49-13.94-11.95-.69-.17-2.29.88-1.15,1.15Z"/><path class="cls-4" d="M196.75,211.77c20.9-3.16,41.55-7.8,62.51-10.57,5.19-.68,32.3-5.35,32.6,3.66.1,3-3,6.15-5.09,7.84-4.46,3.63-11.91,3.11-17.31,3.18-11.22.15-20.9,3.9-31.59,7-5.1,1.49-10.33,2.2-15.51,3.36s-10.43,2.54-15.82,3c-6.13.48-11.59-1.62-13.11-8.07-1.63-6.88,5.09-14.11,11.64-14.52,1.08-.07,1.5-1.48.18-1.39-7.27.46-14.8,7.52-13.89,15.26,1.17,10,10.76,10.79,18.83,9.69,4.58-.62,9.06-1.87,13.56-2.88,6.46-1.44,12.84-2.57,19.19-4.55,6.13-1.91,12.36-4.49,18.77-5.22,5.57-.63,11.2-.13,16.78-.73,6.18-.67,13.36-4.09,15.09-10.7,1.11-4.28-2.8-6.13-6.34-6.93-11.46-2.61-24.54,0-36,1.81-18.17,2.84-36.18,6.63-54.36,9.38-1.05.16-1.49,1.58-.18,1.39Z"/><path class="cls-4" d="M108.69,138.63c3.57,5.82,2.62,15.8,1.71,22.14-.52,3.66-1.57,7.5-4.78,9.67-4.26,2.87-11.45,2.7-16.38,2.92-8.34.39-16.43.88-21.43-6.92C63.17,159.2,62.31,150,59,142.17l-1.34.81c8.79.26,17.59.11,26.36-.5,7-.49,15.24-.87,21.46-4.4,1.14-.64-.57-1-1.2-.59-6.1,3.46-14.53,3.52-21.35,4-8.15.57-16.36.63-24.52.39-.3,0-1.57.26-1.34.81,3.81,9,4.57,20,11.28,27.63,5.77,6.5,17.63,4.47,25.3,3.84,8.08-.66,15.66-2,18.07-10.6,2-7,2.72-19.23-1.24-25.68-.34-.56-2.22.06-1.79.76Z"/><path class="cls-4" d="M110.47,150.84c-1.73,8.57-6.39,16.59-11.48,23.6-.53.73,1.42.59,1.81.06,5.13-7.07,9.86-15.23,11.61-23.89.15-.77-1.8-.45-1.94.23Z"/><path class="cls-4" d="M110.61,143.91c-3.36,11.18-10.82,20.43-15.07,31.23-.16.39,1.7.19,1.91-.33,4.25-10.79,11.71-20.05,15.07-31.22.13-.45-1.76-.19-1.91.32Z"/><path class="cls-4" d="M105.93,140.76c-11.2,6.18-16.67,20.67-20,32.29-.19.65,1.74.37,1.92-.26,3.21-11.23,8.42-25.54,19.24-31.51,1.14-.63-.58-.85-1.18-.52Z"/><path class="cls-4" d="M98.57,138.19c-10.81,7.91-16.87,20-21,32.4-.35,1.06,1.58,1,1.85.21,4.06-12.13,9.89-24,20.46-31.74,1.06-.77-.52-1.42-1.28-.87Z"/><path class="cls-4" d="M89.92,140.72c-10.16,4.79-12.83,18-17.4,27.23-.41.83,1.52.59,1.8,0,4.26-8.59,6.9-22,16.36-26.48,1.22-.57.1-1.18-.76-.78Z"/><path class="cls-4" d="M76,144.21c-4,5.67-6.21,12.32-8.82,18.7-.39,1,1.55.79,1.82.12,2.61-6.38,4.8-13,8.82-18.7.56-.79-1.41-.7-1.82-.12Z"/><path class="cls-4" d="M112.23,150.32c-5.7-1.44-10.84-4-16-6.83-.52-.28-2.15.51-1.81.7,5.22,2.82,10.44,5.48,16.22,6.94.49.13,2.21-.65,1.57-.81Z"/><path class="cls-4" d="M107.51,156.88c-5-3.68-10.43-6.79-15.46-10.46-.52-.38-2.27.39-1.8.73,5,3.67,10.43,6.78,15.46,10.45.52.38,2.27-.38,1.8-.72Z"/><path class="cls-4" d="M109.67,164.46c-8.44-6.31-16.53-13.23-25.89-18.18-.73-.39-2.43.6-1.49,1.1,9.36,5,17.44,11.87,25.89,18.18.67.51,2.37-.44,1.49-1.1Z"/><path class="cls-4" d="M103.36,168.85l-30-22.22c-.73-.54-2.4.48-1.48,1.16l30,22.22c.73.54,2.4-.48,1.48-1.16Z"/><path class="cls-4" d="M95.59,170.28c-9.93-7.58-17.64-17.87-29-23.52-.5-.25-2,.55-1.82.65,11.36,5.65,19.07,16,29,23.52.43.33,2.1-.44,1.82-.65Z"/><path class="cls-4" d="M78.71,166.76c-6.92-5.23-13-11.51-19.88-16.75-.62-.48-2.35.41-1.5,1.05,6.91,5.24,13,11.52,19.88,16.76.62.47,2.35-.41,1.5-1.06Z"/></svg>