<svg id="layer1" xmlns="http://www.w3.org/2000/svg" viewBox="0 0 300.51 323.26"><defs><style>.cls-1{fill:#9e7956;}.cls-2{fill:#704b2c;}.cls-3{fill:#492d0c;}</style></defs><path class="cls-1" d="M216.74,279.5c-6.88-44-8.88-88.65-8.91-133.12,0-2.94-2.13-6.42-5.25-6.93-4.61-.76-9.23-1.42-13.85-2.09a11.58,11.58,0,0,0-3.24-.45,6.6,6.6,0,0,0-5.39,2.77,104.61,104.61,0,0,0-13-1.11c-14.94-.47-29.76,2.49-44.72,2.17-1.22-.19-2.18-.36-3.41-.52h.24c-1-.08-1.48-.17-2.09-.25a8.19,8.19,0,0,0-1.71,0c-4.61-1.88-10.23.9-10.25,6.34-.07,23.6-2.91,47.06-4.48,70.59-1.5,22.35-6.89,45-4.72,67.47a7.65,7.65,0,0,0,7.21,7.16,5.59,5.59,0,0,0,4.44,1.55c5.57-.71,11-.81,16.6-1.52,3.83-.49,7-2.81,7-7.08V273.1a35.93,35.93,0,0,0,1.6-8.12,73.52,73.52,0,0,0,1.79-8.37c6.48-8.37,18.5-28.11,30.17-18.53,5.69,4.68,7.36,12.89,8.17,19.84,1,8.27.75,16.62,1.56,24.9.53,5.41,5.62,8.94,10.75,6.2a14.14,14.14,0,0,0,3.75-2.88,8,8,0,0,0,8.28-1,6.92,6.92,0,0,0,2.7.81,7.7,7.7,0,0,0,4.9.56,7.78,7.78,0,0,0,6.83,1.7C215.75,287.14,217.34,283.34,216.74,279.5Zm-59.68-68.9c-3.16,1-6.78,1-10.36.81.11-3.4.46-6.79.85-10.18,4.8-.33,9.59-.88,14.38-1.33-.05.51-.1,1-.16,1.53C161.28,205.9,160,209.63,157.06,210.6Zm-22.91-50.78c-.1-.92-.2-1.84-.32-2.76l2.26.43A7.42,7.42,0,0,0,134.15,159.82Zm4.55,65.24a7.35,7.35,0,0,0,.82.1c-.31.23-.61.47-.91.72Z"/><path class="cls-2" d="M213.42,137.44c0-.07,3.45-.6,3.38-.73h0l-5.91-8.4c.21,0-12.14-21.79-33.57-35.82-2.12-3-15-5.89-21.21-7.44-5.61.93-23.65,5.42-33.77,15.12-8.25,7.91-24.75,32.49-27.49,36.51-.44.66.24,1,.82,1,3.74.1,7.46.65,11.18,0l1,0a3.16,3.16,0,0,0,.69-.16,6.41,6.41,0,0,0,1,.39C125,142.51,214.51,138.35,213.42,137.44Z"/><path class="cls-2" d="M174.71,284.36c-1.87-8.61-4-17.12-4.45-25.86,0-2.13,0-4.27,0-6.4,0-1.71-1.65-2.1-3-1.58,0-.75,0-1.49-.05-2.24,0-1.5-1.37-2-2.62-1.72a2,2,0,0,0-1.24-.78c0-.95,0-1.89,0-2.83,0-1.84-1.76-2.11-3.14-1.49a2.73,2.73,0,0,0-3.33.55,2.67,2.67,0,0,0-2,1.67l-.27.82a2.31,2.31,0,0,0-1.25,1.47c-.26.92-.5,1.84-.74,2.76-.28-1.8-3-1.85-4-.69a25.18,25.18,0,0,0-5.57,10.78,32.79,32.79,0,0,0-4.33,8.77c-1,4-2.56,10.07-.22,13.85a5,5,0,0,0,1.24,1.37,2,2,0,0,0,1.69,1.37c2.67.52,4.67,0,7.21-.86a2.87,2.87,0,0,0,2.72-.8l.26.09c.06.42.13.85.2,1.28a2.17,2.17,0,0,0,2.78,1.73c.13.36.24.74.38,1.1.73,1.94,4,1.56,4.48-.39,0,.13.06.26.1.39.51,2.1,4.27,1.44,4.52-.52,0-.15,0-.31,0-.47,1.35.15,3.06-.89,3.06-2.36V282a18.35,18.35,0,0,0,.66,3.38h0c0,.19.06.37.1.55.27,1.36,1.92,1.55,3.17,1A2.5,2.5,0,0,0,174.71,284.36Z"/><path class="cls-3" d="M184.58,153.14c-2.68,6-8.91,9.58-11.86,15.53-.48,1,1.47.93,1.84.19,2.95-6,9.17-9.46,11.86-15.52.44-1-1.51-1-1.84-.2Z"/><path class="cls-3" d="M239.54,220.09c-4.37-.63-7.29-4.55-9.92-7.74a93.24,93.24,0,0,0-8.77-9c-7.77-7.18-14.91-15-22.46-22.43-7.08-7-14.95-13-22.36-19.61-8.39-7.46-16.29-15.45-24-23.59-14.46-15.24-28.1-31.21-42.32-46.66-14.81-16.08-29-32-40.86-50.44l-1,1.09c7-.88,13.54,7.87,17.43,12.58,5.38,6.52,10,13.63,14.77,20.59,12.63,18.44,31.76,30.69,46.34,47.49,8.48,9.77,16.17,20.19,24.35,30.21,8.29,10.18,17.93,19.09,27.36,28.19,19.54,18.83,35.9,40.46,54.54,60.12l1.45-1c-17.94-8.41-26.2-30.08-38.63-44.33-16.8-19.25-38.58-33.42-54.77-53.19-7.49-9.15-14.25-18.86-22.24-27.6-9.13-10-18.59-19.55-28.06-29.2A277.2,277.2,0,0,1,85.29,55.79c-3.22-4.36-6.16-9-10.21-12.65-3.64-3.26-9.21-7.1-9.54-12.46-.05-.83-2-.38-1.93.52.27,4.32,3.81,7.46,6.8,10.22A83.23,83.23,0,0,1,81.34,53.67a307.07,307.07,0,0,0,26,31.37c9.38,9.71,19.18,19,28.12,29.11,8.25,9.34,15.64,19.3,23.46,29,16.3,20.2,38.53,34.57,55.59,54.13C227,211.6,234.89,232.62,253,241.09c.48.23,2.06-.4,1.45-1-19-20.1-35.84-42.11-55.81-61.36-9.87-9.51-19.63-18.94-28.25-29.62s-16.65-21.42-25.7-31.54c-8.46-9.45-18.21-17.23-27.58-25.71-7.17-6.5-12.71-14-18.12-22-5.08-7.48-10.24-15-16.47-21.57-3.63-3.84-8.7-8.62-14.44-7.9-.47.06-1.38.48-1,1.09,12.15,19,26.86,35.24,42.06,51.76,15,16.33,29.45,33.22,44.83,49.23,15.08,15.69,32.35,28.83,47.63,44.26,7.3,7.38,14.61,14.65,22.17,21.76,4.75,4.47,8,12,15.1,13,.91.13,2-1.17.68-1.35Z"/><path class="cls-3" d="M133.91,120.79c-3.45,1.86-5.49,5-7.45,8.34-1.33,2.24-2.53,4.54-3.91,6.75-.84,1.35-2,2.06-2,3.65l1.86-.5c-8.35-8.56-14.66-18.73-21.31-28.6C93.6,99.35,84.41,90.11,75.45,80.27S59.57,59,50.88,49C50,47.89,46,45,47.51,43.85q2.93-2.25,5.78-4.61A61.46,61.46,0,0,0,64.87,27.36c.55-.78-1.41-.68-1.81-.11-3.42,4.87-8,8.79-12.52,12.55-2.1,1.73-7.65,3.87-4.53,6.72,9.9,9,16.44,21.73,25.24,31.83s18.52,19.2,26.22,30.23c7.43,10.64,14,21.89,23.12,31.24.4.41,1.83.19,1.86-.5.09-2,2.85-4.84,3.85-6.59,2.2-3.85,4.31-8.82,8.4-11,1.17-.62.1-1.4-.79-.92Z"/><path class="cls-3" d="M125.73,131.17C111.79,119,101,102.93,89.44,88.61c-6.44-8-12-16.62-18.11-24.84-6.42-8.64-14-16.6-19.69-25.78-.32-.53-2.13.19-1.93.51C54.52,46.33,60.93,53,66.47,60.26,73,68.83,78.88,77.82,85.37,86.4c6.07,8,12.71,15.64,18.9,23.59,6,7.74,12.23,15.4,19.65,21.87.42.37,2.17-.37,1.81-.69Z"/><path class="cls-3" d="M127.62,121.34c-14.27-12-26.44-26.53-37.58-41.45C84.18,72,79.19,63.59,73.86,55.38,68.8,47.58,61.59,41,57.14,32.9c-.37-.67-2.24,0-1.93.52C59.14,40.59,65.43,46.22,70,53c5.85,8.7,11.07,17.84,17.26,26.32,11.3,15.46,23.91,30.43,38.58,42.8.54.46,2.34-.3,1.79-.77Z"/><path class="cls-3" d="M64.31,36.1C59.6,40.55,57,46.53,53.1,51.66c-.73,1,1.1,1.22,1.61.54,3.84-5.13,6.5-11.13,11.21-15.57.87-.82-1-1.1-1.61-.53Z"/><path class="cls-3" d="M69.12,45.56c-3.68,5.91-7.34,11.78-9.81,18.33-.38,1,1.56.93,1.84.18,2.47-6.55,6.12-12.42,9.81-18.34.54-.88-1.42-.84-1.84-.17Z"/><path class="cls-3" d="M77.84,53.6c-.59,7.13-5.4,13.31-9.08,19.18-.15.25,1.61.15,1.91-.33,3.73-6,8.5-12.14,9.1-19.37,0-.29-1.88-.07-1.93.52Z"/><path class="cls-3" d="M86.53,64.62C82.15,70.42,78.62,76.8,77.38,84c-.12.69,1.82.35,1.92-.27,1.23-7.13,4.7-13.41,9-19.14.5-.66-1.44-.46-1.79,0Z"/><path class="cls-3" d="M95.91,75.94A74.87,74.87,0,0,0,87.58,93.6c-.2.65,1.73.37,1.92-.25A74.42,74.42,0,0,1,97.7,76c.45-.75-1.48-.52-1.79,0Z"/><path class="cls-3" d="M102.5,80.76c-3,6.73-8.56,11.75-9.15,19.44-.07.88,1.89.53,1.94-.2.59-7.58,6.11-12.5,9-19.12.41-.93-1.53-.77-1.82-.12Z"/><path class="cls-3" d="M109.63,90.36c-2.77,7.13-7.72,12.33-7.62,20.38,0,.53,1.94.18,1.94-.52-.1-7.86,4.91-13.18,7.61-20.13.22-.56-1.7-.33-1.93.27Z"/><path class="cls-3" d="M117.75,99.49c-5.77,6.54-8.92,14.68-10.92,23.08-.18.75,1.77.46,1.93-.23,1.95-8.14,4.95-16.14,10.55-22.49.77-.87-1.11-.87-1.56-.36Z"/><path class="cls-3" d="M124.71,110.07c-1.46,8.37-7.82,14.69-10,22.83-.21.79,1.75.52,1.94-.21,2.17-8.14,8.51-14.44,10-22.82.15-.84-1.81-.53-1.94.2Z"/><path class="cls-3" d="M286.88,228.47c-17.08,7.78-30.52,23.28-42.08,37.62l1.87-.24c-8.58-20.29-24.14-36.63-36.27-54.78a126,126,0,0,0-22.49-25.58c-7.82-6.84-16.84-14.77-16.34-26.1.2-4.6,2.94-8.77,7.65-9.65,6.28-1.18,12.51,3.46,17,7.21s8,8,12.24,11.75c4.92,4.46,10.3,8.39,15.63,12.35,20.18,15,38.28,32.16,57.79,47.95l1.67-.85a13.75,13.75,0,0,0-4.63-2.11c-.63-.15-2.29.81-1.18,1.06a11,11,0,0,1,4.27,2c.46.3,2.22-.4,1.66-.85-10.93-8.85-21.24-18.42-31.89-27.61s-22-17.26-33.13-25.78c-9.88-7.57-17.74-18.43-28.8-24.29-5.24-2.78-13.63-3.28-17.58,2-4.58,6.19-2.52,14.32,1.18,20.4,6.77,11.13,19.58,17.93,27.69,28.09,7.82,9.78,14.24,20.74,21.8,30.75,8.27,10.95,16.45,21.8,21.84,34.53.29.68,1.55.16,1.87-.23,11.22-13.92,24.44-29.3,41-36.85,1.23-.56.1-1.21-.77-.82Z"/><path class="cls-3" d="M275.22,223.72c-9,11-23.92,14.89-29.19,29.09-.25.67,1.69.43,1.94-.23,5.16-13.92,20.21-18,29.06-28.8.56-.68-1.4-.56-1.81-.06Z"/><path class="cls-3" d="M267,219.9c-13.59,3.75-19.95,18.44-28.22,28.5-.77.95,1.07,1.2,1.61.55,7.82-9.53,14.11-24.22,27-27.76,1.18-.33.84-1.62-.35-1.29Z"/><path class="cls-3" d="M257.68,208.74c-14.51,3.71-20.77,19.12-26.27,31.55-.26.59,1.66.37,1.93-.25,5.09-11.5,11.07-26.89,24.59-30.35,1.17-.3.91-1.25-.25-.95Z"/><path class="cls-3" d="M252.16,203.1c-5.65,1.11-10.83,4.62-15.15,8.28-5.34,4.53-11.53,10.5-12.7,17.75-.09.52,1.83.18,1.91-.32.9-5.58,4.84-10.13,8.68-14,4.4-4.46,10.59-9.65,16.92-10.9.79-.15,1.68-1,.34-.78Z"/><path class="cls-3" d="M240.72,191.47c-11.66.06-18.87,15.8-23.4,24.47-.44.84,1.5.64,1.81.06a133.49,133.49,0,0,1,7-12c3-4.54,7.78-11.4,13.9-11.43.74,0,2.05-1.14.74-1.13Z"/><path class="cls-3" d="M230.9,185.58c-10,1.08-20.78,12.24-22.37,21.93-.12.72,1.82.37,1.93-.26,1.42-8.66,11.13-19.68,20.16-20.65.92-.1,1.62-1.16.28-1Z"/><path class="cls-3" d="M220.83,178.91c-9.63,4.32-18.1,14.23-20.45,24.55-.15.65,1.79.33,1.92-.27,2.21-9.7,10.16-19.5,19.27-23.59,1.23-.55.09-1.06-.74-.69Z"/><path class="cls-3" d="M211.48,172.35c-1.73,4.62-6.48,6.88-10.35,9.48s-7,5.74-8.58,10.14c-.38,1.05,1.55,1,1.84.22,2-5.44,6.33-8.42,11-11.43,3.28-2.12,6.53-4.41,8-8.19.39-1-1.55-1-1.85-.22Z"/><path class="cls-3" d="M201.9,167.51c-5.16,5.4-11.71,9-14.33,16.37-.11.3,1.73.11,1.9-.36,2.59-7.31,9.08-10.86,14.17-16.19.37-.39-1.43-.14-1.74.18Z"/><path class="cls-3" d="M194.42,163.57c-.24.78-1.51,1.53-2.1,2-1.43,1.19-2.9,2.33-4.35,3.48a79.36,79.36,0,0,0-8.34,7.06c-.39.41,1.43.17,1.75-.16a83.35,83.35,0,0,1,8.87-7.48c1.41-1.12,2.82-2.23,4.19-3.37.56-.47,1.65-1.15,1.88-1.9.12-.35-1.75-.12-1.9.35Z"/><path class="cls-3" d="M266.4,236.74c-1.1,1.16-13.56-10.72-14.57-11.69-6.07-5.79-11.87-11.88-17.57-18-6.65-7.19-13.65-13.91-20.75-20.67-4.8-4.57-9.16-9.53-14.24-13.8S189,164.26,185.1,158.8l-1.8.74,2.16,2.81c.37.49,2.23-.16,1.8-.73l-2.16-2.82c-.37-.48-2.22.14-1.8.74,4.19,5.86,9.88,10.14,15.34,14.74,6.07,5.1,11.33,11.2,17.11,16.63,7.56,7.12,14.54,14.61,21.67,22.13a246.21,246.21,0,0,0,20.42,19.8c2.05,1.71,7.45,6.94,10.35,3.9.53-.56-1.39-.41-1.79,0Z"/><path class="cls-3" d="M268.91,229.05q2.08-.35.87-1-.54-.42-1-.87c-1.18-1-2.31-2-3.46-3.06a32.37,32.37,0,0,0-5.48-4.44c-1.79-1-3.61-3.85-5.05-5.34-2.14-2.2-4.35-4.34-6.56-6.46-4.5-4.31-9.18-8.45-13.9-12.52-7-6-13.38-12.62-20.1-18.94-5.87-5.53-12.41-11.25-20.29-13.61-.51-.15-2.25.63-1.56.84,9.21,2.76,16.58,10.09,23.33,16.61,7.82,7.56,15.78,14.77,23.89,22,7.45,6.67,14.14,14.14,21.71,20.61,1.89,1.61,6.29,7.65,9.23,6.26.16-.08.42-.26.38-.47l0-.19c-.08-.53-2-.08-1.93.52Z"/><path class="cls-3" d="M248.36,252.25c-4.16,1-10.5-11-12.44-13.72-6.17-8.74-13.36-16.89-20.21-25.1-7.09-8.5-13.69-17.38-20.4-26.18-2.89-3.78-5.74-7.59-8.62-11.37a58.64,58.64,0,0,0-4.84-5.61c-1.08-1.11-4.45-2.94-4.51-4.61,0-.68-2-.27-1.93.52.05,1.65.44,1.83,1.84,2.59,2.28,1.23,4.11,3.57,5.75,5.5,3.74,4.38,7,9.19,10.52,13.76,7.84,10.26,15.68,20.47,23.92,30.41,6.8,8.19,13.58,16.41,19.64,25.16,2.3,3.31,6.55,10.9,11.57,9.7,1.18-.28.88-1.33-.29-1.05Z"/><path class="cls-3" d="M141.79,143.38a414.82,414.82,0,0,1,34.77-33.62c22.62-19.3,46-38.4,62.74-63.32.47-.7-1-.59-1.29-.44-9.26,4.63-15.71,13.3-21.76,21.43-3.45,4.65-6.79,9.39-10.4,13.92-5,6.22-11,11.59-16.67,17.18-9.86,9.77-19.42,20-29.78,29.24-8,7.1-16.36,13.72-24.69,20.39Q109.56,168.31,84,187.87a297,297,0,0,1-28.73,19.92c-9.63,5.7-19.6,11.54-26.67,20.43-.54.69,1.33.61,1.68.2,16.88-19.12,39.53-30.14,59-46,20.84-16.93,41.5-33.87,63.36-49.51,1.06-.77-.59-1.05-1.21-.61-21.58,15.44-42.12,32-62.6,48.88C69.06,197.46,45.9,208.6,28.71,228.08l1.68.2c7.81-9.83,19.31-15.86,29.92-22.16,8.93-5.31,17-11.63,25.22-17.91q25.13-19.14,49.72-38.89c8.12-6.49,16.23-13,24.09-19.79,9.55-8.27,18.23-17.61,27.2-26.5,9.23-9.14,18.52-17.89,26.25-28.36,7.34-9.92,14.61-22.14,26-27.85l-1.28-.44c-17,25.27-40.83,44.55-63.76,64.12A400.46,400.46,0,0,0,140.23,143c-.78.84,1.1.83,1.56.34Z"/><path class="cls-3" d="M177.3,108.33c-5-3.9-8.81-9-13.27-13.4-2.17-2.17,5.2-6.49,6.55-7.68,3.11-2.73,6-5.72,8.85-8.7a297.36,297.36,0,0,0,24.65-28.67C211,40.59,218,31.39,225.52,22.62,232.07,15,239.22,8.24,245.27.23l-1.91.43q4.47,5.41,9.24,10.56A93.05,93.05,0,0,0,260,18.53a18.76,18.76,0,0,0,2.91,2.11c.46-.08.52-.06.17.05-1.38.61-2.06,1.34-3.73,1.78-1.12.3-1,.82.14.52,1.88-.49,3.32-1.61,5.13-2.26,0,0,.87-.37.58-.5-4.54-2.17-8.21-6.85-11.55-10.47C250.79,6.64,248,3.42,245.29.15c-.33-.4-1.66.1-1.92.44-4.63,6.13-9.88,11.37-15,17-7.71,8.5-14.87,17.44-21.73,26.62-6.06,8.11-11.79,16.75-18.93,24-4.67,4.7-9.09,9.65-13.75,14.36-4,4-9.71,7.18-12.81,11.9a.09.09,0,0,0,0,.14c5,4.61,8.93,10.17,14.29,14.36.4.31,2.06-.47,1.83-.64Z"/><path class="cls-3" d="M266.52,25.3c-13.61,13.61-27.45,27-41.13,40.53-.51.51,1.34.28,1.64,0,13.61-10.73,19-28.82,32.65-39.51a22.66,22.66,0,0,1,7.11-3.74,16,16,0,0,0-4.64,2.19A68,68,0,0,0,251,34.72c-7.15,7.54-13.13,16.1-20.26,23.66-.47.5,1.42.3,1.77-.08,11.54-12.24,20.54-28,35.79-36.14.94-.51-.14-.7-.67-.56-20.93,5.53-26.46,31.76-42.13,44.12l1.64,0c13.67-13.55,27.51-26.93,41.13-40.53.48-.48-1.4-.29-1.77.07Z"/><path class="cls-3" d="M258.66,17.18c-15.55,11.4-28.75,25.84-41.5,40.2-6.71,7.55-13.64,14.88-20.22,22.56-7.48,8.71-15,17.46-23.52,25.15-.79.71,1.12.54,1.51.19,15-13.53,26.81-30.14,41-44.52,14.6-14.81,27.33-31,44.26-43.39.85-.61-1.1-.49-1.51-.19Z"/><path class="cls-3" d="M248.77,9.34c-14.93,17.76-32.22,33.39-47,51.28-6.58,8-13.09,16-19.68,24-4.44,5.37-8.75,11.7-14.12,16.2-.46.39,1.39.21,1.76-.1,5.11-4.29,9.22-10.29,13.45-15.4,6.62-8,13.16-16,19.76-24.05,14.95-18.15,32.46-34,47.59-52,.43-.51-1.45-.27-1.76.11Z"/><path class="cls-3" d="M189.48,102.85c-7-4.39-14.28-8.75-20.17-14.69-.36-.35-2.13.36-1.82.66,5.89,5.94,13.12,10.3,20.17,14.69.47.3,2.09-.49,1.82-.66Z"/><path class="cls-3" d="M194.13,96.41c-3.42-6.49-9.86-11.47-16.07-15.14-.48-.28-2.06.51-1.82.66,6.15,3.63,12.57,8.58,16,15,.25.47,2.09-.23,1.93-.52Z"/><path class="cls-3" d="M201.82,86.92c-4.92-5.34-9.42-11.65-16-15.06-.52-.27-2.09.53-1.82.67,6.6,3.41,11.09,9.72,16,15.06.34.38,2.14-.31,1.81-.67Z"/><path class="cls-3" d="M212,78.81c-5.65-5-11.27-10.18-15.16-16.75-.41-.7-2.27,0-1.77.83,3.95,6.68,9.69,11.88,15.43,17,.6.53,2.31-.35,1.5-1.08Z"/><path class="cls-3" d="M220.88,70.47c-1.76-6.88-9.5-10.2-12.75-16.24-.24-.45-2.07.27-1.93.52,3.26,6.06,11,9.37,12.75,16.24.09.38,2-.12,1.93-.52Z"/><path class="cls-3" d="M231.72,58.05c-6.76-4.58-13-8.58-16.62-16.17-.31-.63-2.18,0-1.93.52,3.69,7.64,9.92,11.75,16.75,16.38.54.37,2.28-.41,1.8-.73Z"/><path class="cls-3" d="M241.06,47.6c-3.48-3.05-7.14-5.86-10.56-9s-7.7-7.06-8.3-11.83c-.09-.74-2-.28-1.93.52.57,4.59,4.51,8.31,7.65,11.35,3.59,3.48,7.61,6.45,11.36,9.74.56.49,2.38-.27,1.78-.79Z"/><path class="cls-3" d="M247.1,37.48c-2.7-3.11-5.86-5.85-8.76-8.78-2.7-2.74-7.56-6.74-8.15-10.79-.1-.71-2-.25-1.93.51.54,3.72,4.58,7.18,7,9.73,3.26,3.43,6.93,6.53,10,10.1.47.54,2.32-.17,1.79-.77Z"/><path class="cls-3" d="M254.8,27.22c-5.61-6.42-9.8-14.89-16.68-20.08-.52-.39-2.28.38-1.8.73C243.2,13.06,247.39,21.54,253,28c.41.47,2.25-.21,1.8-.73Z"/><path class="cls-3" d="M131.74,140.26c1.41,3.37,5,5.64,7.87,7.73,4.55,3.37,9.9,5.69,6.11,12.07-2.47,4.15-7.26,6.61-10.81,9.72-6.23,5.43-13.07,10.31-19.58,15.4C94.57,201.42,73,216.71,53.15,234c-2.41,2.09-9.31,8.87-12.66,6.24-1.79-1.41-3.2-4.3-4.56-6.13-2.4-3.24-4.75-6.49-6.9-9.89-1.77-2.79-3.66-5-.66-7.56,2.61-2.25,5.32-4.39,8-6.5a231.9,231.9,0,0,1,20.38-13.93c11.16-6.87,23.18-11.73,34.62-18a174.51,174.51,0,0,0,22.13-14.71,107,107,0,0,0,14-12.52c2.76-3,5.88-6.89,6.17-11.15,0-.69-1.89-.28-1.92.28-.53,7.85-9.5,14.73-15,19.34a173.89,173.89,0,0,1-24.31,17C82.11,182.62,70.73,187,60.26,193a224.15,224.15,0,0,0-36,25.65c-.09.07-.27.22-.21.36,3.38,7.89,9.24,14.59,14.22,21.48,2,2.84,6.45.67,8.71-.59,5.45-3,10-7.77,14.55-11.94,7.51-6.87,16.27-12.56,24.37-18.71,18-13.72,35.56-28.08,53.6-41.76a43.46,43.46,0,0,0,7.28-6.53c1.16-1.38,3.69-5.84,2.15-7.66-4.22-5-12.69-7.3-15.3-13.57-.25-.6-2.14,0-1.93.52Z"/><path class="cls-3" d="M132,139.9c-9.57,6.12-18.48,13-27.4,20.06-7.94,6.24-16.57,10.2-25.4,15-20.81,11.29-39.32,26.23-56.08,42.88-.5.49,1.4.32,1.78,0C42.67,200.06,62.4,184.68,84.71,173c7.63-4,14.55-7.55,21.35-12.86,9-7,17.83-13.94,27.4-20.07.87-.55-1.09-.46-1.51-.19Z"/><path class="cls-3" d="M143.08,152.71c-11.37,10.66-23.23,20.67-36.52,28.88s-24.8,17.89-36.77,27.66c-6.51,5.3-13.2,10.36-19.85,15.48-3.31,2.54-6.6,5.1-9.76,7.8-1.16,1-3.46,2.5-3.72,4.14-.15,1,1.82.68,1.95-.16.3-1.85,4.28-4.19,5.61-5.28,3.47-2.85,7.06-5.57,10.63-8.3,6.84-5.22,13.58-10.5,20.23-16a351.87,351.87,0,0,1,36-26.42c12.27-7.77,23.25-17.37,33.82-27.28.88-.82-1-1.1-1.61-.54Z"/><path class="cls-3" d="M143.55,162.78c.23-.62,1.19.26-.31-.63a17.92,17.92,0,0,1-2-1.47c-1.52-1.22-2.93-2.57-4.35-3.9-2.48-2.34-4.89-5.2-7.81-7-.48-.3-2.12.48-1.81.67,2,1.27,16.3,17.09,18.18,12,.15-.41-1.72-.19-1.91.33Z"/><path class="cls-3" d="M136.25,169.31c-7.54-2.92-10.68-11.41-17.37-15.55-.61-.38-2.37.47-1.52,1,6.85,4.24,10,12.68,17.73,15.69.68.27,2.26-.71,1.16-1.14Z"/><path class="cls-3" d="M125.69,179.06c-7.34-3.32-12.6-10.16-18.46-15.46-.44-.4-2.22.33-1.81.7,6,5.39,11.25,12.23,18.71,15.6.49.22,2.26-.52,1.56-.84Z"/><path class="cls-3" d="M112.85,186.7c-6.21-6.62-12.75-13.43-20.92-17.61-.74-.38-2.44.62-1.49,1.1,8.07,4.14,14.51,10.81,20.64,17.36.59.63,2.42-.15,1.77-.85Z"/><path class="cls-3" d="M102.28,196.32c-6-6.59-12.53-12.68-17.94-19.76-.34-.44-2,.38-1.94.52,5.45,7.12,12,13.25,18,19.88.31.33,2.08-.36,1.83-.64Z"/><path class="cls-3" d="M91.62,205.18c-7-7.69-12.46-16.67-19.47-24.36-.34-.37-2.15.31-1.82.67,7,7.69,12.46,16.67,19.47,24.36.34.38,2.14-.31,1.82-.67Z"/><path class="cls-3" d="M79.13,209.19c-5.43-7.08-12.19-13-17.83-19.92-.51-.62-2.36.11-1.78.82C65.16,197,71.92,202.93,77.36,210c.49.64,2.34-.09,1.77-.82Z"/><path class="cls-3" d="M68.38,217.86c-4.14-8.79-12-14.83-18-22.2-.53-.65-2.38.1-1.78.83,6,7.26,13.81,13.24,17.89,21.89.38.81,2.29.24,1.93-.52Z"/><path class="cls-3" d="M61.29,227.24c-4.4-2.08-7.6-6.51-10.49-10.28-3.22-4.2-6.08-8.67-9.23-12.93-.39-.54-2.26.12-1.79.76,5.63,7.63,11,19.16,20,23.4.58.27,2.35-.56,1.54-.95Z"/><path class="cls-3" d="M48.17,239.89c-4.64-9.13-10.76-18.16-18.32-25.12-.59-.54-2.41.23-1.78.82,7.46,6.87,13.58,15.8,18.17,24.82.39.77,2.29.18,1.93-.52Z"/><path class="cls-3" d="M94.63,137.58c7.92-10.56,13.87-22.46,22.92-32.17a63.78,63.78,0,0,1,21.17-14.69,78.58,78.58,0,0,1,8-2.9c2.36-.74,6.39-2.48,8.81-2.3.47,0,.94.11,1.41.18,26.95,4.19,47,29.54,58.53,52.16.3.59,2.17-.06,1.93-.52-11.76-23.08-32.31-48.87-59.91-52.68-4.85-.67-11,2.24-15.52,3.83a67.84,67.84,0,0,0-22.08,13c-11.49,10.07-18,24.12-27,36.16-.48.64,1.44.42,1.78,0Z"/><path class="cls-3" d="M104.22,139c-6,49.88-7,100.3-11.46,150.32-.09,1,1.88.74,2-.14,4.45-50,5.49-100.45,11.46-150.33.12-1-1.86-.73-2,.15Z"/><path class="cls-3" d="M205.35,140.55c1.82,24.84,4.27,49.64,6.41,74.45q2,23.28,3.92,46.56c.69,8.6,1.75,17.31,1.8,25.95,0,.47,1.94.14,1.93-.52,0-8.35-1.06-16.78-1.73-25.09q-1.86-23.17-3.9-46.33c-2.17-25.17-4.65-50.33-6.5-75.54,0-.5-2-.12-1.93.52Z"/><path class="cls-3" d="M146.77,200.73a74.14,74.14,0,0,1-.67,11.14c-.06.35.33.66.65.67,4.18.16,11.35,2.78,15-.58a5.74,5.74,0,0,0,1.41-3.53c.35-2.62.42-5.25,1-7.85.11-.51-.54-.7-.9-.7H149.83c-1.13,0-1.46,2-.15,2h13.38c-.31-1-.61-.69-.91-.92-.67,3.11-.29,6.64-1.42,9.6-1.35,3.51-10.72.67-13.32.57.21.22.43.41.65.64a73,73,0,0,0,.67-11.16c0-1.05-2-.81-2,.12Z"/><path class="cls-3" d="M154.13,201.53a49.43,49.43,0,0,1-1.12,9.56c.66-.06,1.18-.11,2.18-.16v-2.39c0-1-2-.69-2,.16v2.39c0,1,1.59.65,1.76-.16a50.35,50.35,0,0,0,1.23-9.55c0-1-2-.7-2.05.15Z"/><path class="cls-3" d="M148.11,206.31c-.2.79.12,1.23.94,1.32,1.59.18,3.26-.74,4.91-.67,3.21.12,7,.75,9.81-1.09,1.1-.72-.5-1.35-1.27-.86-2.11,1.36-5.5.69-7.86.57-.64,0-4.4-.13-4.58.58.23-.92-1.74-.68-1.95.15Z"/><path class="cls-3" d="M93.52,137.3c2,1.75,5.5.88,7.93.85.73,0,2.06-1.12.75-1.11-2,0-5.26.9-6.89-.5-.52-.45-2.33.3-1.79.76Z"/><path class="cls-3" d="M100.09,138.79c10.8-.55,21.5,1.36,32.29,1.34,11.72,0,23.43-.29,35.15-.48q14-.24,27.92-.1c7,.08,14.32.32,21.09-1.51,1.16-.31.92-1.2-.23-.89-7.28,2-15.29,1.44-22.76,1.34-9.72-.12-19.44,0-29.16.19-10.41.18-20.82.39-31.24.42-10.79,0-21.49-1.89-32.29-1.34-.66,0-2.06,1.09-.77,1Z"/><path class="cls-3" d="M137.12,282.2c-2.53-1.31,1-16.66,1.37-18.38,1.85-8.68,7.5-25.31,18.54-25.45,7.87-.09,11.64,10.94,12.9,17,2.12,10.28,1.69,21.65,2.39,32.12,0,.36,2,0,1.93-.52q-.69-10.32-1.39-20.64c-.42-6-.63-11.86-2.75-17.59-2.57-7-8-12.59-15.8-10.65-9.15,2.28-14,13.43-16.52,21.44a68.43,68.43,0,0,0-2.7,14.53c-.14,1.57-1.57,7.86.21,8.78.5.26,2.06-.54,1.82-.66Z"/><path class="cls-3" d="M134.19,283.46v4.05a20.59,20.59,0,0,0,2.12-.52c-.73-2.39-.43-4.94-.43-7.42,0-.59-1.69-.22-1.69.52v6.74c0,.59,2,.23,2-.51v-6.75a20.31,20.31,0,0,0-2.11.52c0,2.48-.3,5,.43,7.42.21.7,1.68.15,1.68-.52v-4c0-.59-2-.23-2,.51Z"/><path class="cls-3" d="M135.92,278.07c.82,2.93,2.66,5.41,4,8.09.31.61,2.18,0,1.93-.52-1.38-2.68-3.22-5.16-4-8.09-.18-.61-2.1-.09-1.93.52Z"/><path class="cls-3" d="M135.3,272.09c3.19,4.52,6,9.28,8.7,14.07.32.55,2.15-.14,1.94-.52-2.78-4.86-5.6-9.67-8.83-14.24-.3-.43-2.17.18-1.81.69Z"/><path class="cls-3" d="M137.94,268.63c1,6,5,10.79,7.41,16.18.27.6,2.16,0,1.93-.52-2.43-5.39-6.43-10.21-7.41-16.18-.09-.56-2-.11-1.93.52Z"/><path class="cls-3" d="M140,264.59c1.12,7.22,6.42,13.08,9.44,19.55.21.46,2.08-.2,1.93-.52-3-6.47-8.32-12.33-9.44-19.55-.06-.38-2,0-1.93.52Z"/><path class="cls-3" d="M140.63,260.54c4.76,8.3,8.63,17.11,14.16,24.94.34.49,2.1-.28,1.93-.51-5.53-7.84-9.4-16.65-14.16-24.94-.28-.5-2.1.21-1.93.51Z"/><path class="cls-3" d="M142.64,256.32c.53,11.88,10.77,20.87,16.28,30.68.41.74,2.26,0,1.76-.85-5.34-9.52-15.57-18.48-16.08-30,0-1-2-.69-2,.16Z"/><path class="cls-3" d="M145.52,254.64c-2.16,3,2.38,9.23,3.81,11.79,3,5.38,6.73,10.38,9.58,15.84.37.71,2.23,0,1.78-.83-2.19-4.18-5-8.09-7.41-12.12-1.34-2.23-8.14-11.43-6.16-14.18.71-1-1.12-1.17-1.6-.5Z"/><path class="cls-3" d="M146,251.11c.47,5.53,4.46,9.89,7.48,14.28,3.93,5.72,6.31,12.14,10.79,17.53.46.56,2.32-.14,1.79-.78-3.8-4.56-6.42-9.79-9.27-14.95-3-5.43-8.31-10.16-8.86-16.6-.06-.71-2-.28-1.93.52Z"/><path class="cls-3" d="M148.05,247.06c1.95,12.06,11.63,21,16.85,31.68.34.69,2.22.08,1.93-.51-5.22-10.66-14.9-19.64-16.85-31.69-.11-.68-2-.22-1.93.52Z"/><path class="cls-3" d="M149.4,244.37c1.24,10.79,10.2,18.91,15.58,27.8.45.73,2.29,0,1.77-.85-5.32-8.79-14.19-16.81-15.42-27.47-.1-.88-2-.41-1.93.52Z"/><path class="cls-3" d="M151.42,241.67c-.33,9.58,8,19.2,13.54,26.37.31.39,2.15-.25,1.81-.68-5.44-7-13.74-16.73-13.42-26.21,0-.36-1.91-.09-1.93.52Z"/><path class="cls-3" d="M155.46,243.52c.31,7.28,5,15.07,9.52,20.54.5.61,2.35-.11,1.78-.81-4.4-5.31-9-12.84-9.36-19.91,0-.94-2-.58-1.94.18Z"/><path class="cls-3" d="M157.47,239.46c-1.33,6.35,4.75,14.93,8.86,19.22.59.62,2.43-.16,1.77-.84-4-4.18-10-12.4-8.67-18.53.2-.94-1.78-.69-2,.15Z"/><path class="cls-3" d="M161.53,241a44.2,44.2,0,0,0,4.8,9.6c.38.53,1.86.21,1.86-.5a21.86,21.86,0,0,0-.68-6.24c-.25-.84-2.15-.33-1.93.52a38.4,38.4,0,0,0,2.69,7.41c.39.8,2.29.22,1.93-.52a38.83,38.83,0,0,1-2.69-7.41l-1.93.52a20.46,20.46,0,0,1,.66,5.89l1.86-.5a42.84,42.84,0,0,1-4.64-9.28c-.33-.83-2.24-.27-1.93.51Z"/><path class="cls-3" d="M150,247c-5.22,2.54-9.47,9.9-12.64,14.57-.56.82,1.41.71,1.82.13,4.64-6.58,9.52-13,14.16-19.55.6-.85-1.34-.62-1.71-.29-3.8,3.44-5.84,8.24-8.88,12.29-.58.78,1.39.69,1.82.13a45.77,45.77,0,0,0,6.8-12.29c.29-.79-1.34-.42-1.59-.27a16.93,16.93,0,0,0-7.09,9.9c-.15.56.83.57,1.12.47,3.88-1.29,5.72-4.4,7.5-7.92.47-.92-1.47-.76-1.82-.13-4.08,7.49-8,15-10.85,23.08-.3.87,1.6.38,1.89,0,5.42-7.73,8.85-16.66,14.71-24.11l-1.7-.29c-4,9.59-10.48,17.91-14.16,27.64-.36,1,1.31.73,1.7.29,6.88-7.88,10.94-17.57,16.3-26.45l-1.82-.13c-4.42,11.17-12.59,20.51-14.89,32.52-.17.86,1.46.46,1.76.12,7.24-8.35,10.69-19.08,16.3-28.47.52-.86-1.44-.73-1.82-.12-7,11.17-15.09,22.19-18.27,35.21-.21.86,1.48.43,1.77.12,4.61-4.9,7.44-10.9,10.59-16.78,3.78-7.05,9-13.22,12.45-20.45.46-1-1.46-.66-1.83-.13-7.07,10.3-15.09,22.45-16.23,35.22-.08.86,1.43.49,1.76.12,7.4-8.45,11.88-18.93,17.65-28.47l-1.89,0c-3,9-9,16.84-10.78,26.29-.17.91,1.46.37,1.76.12,6.51-5.53,9-14.13,13.6-21.05l-1.88,0c-2.95,9.09-7.84,17.45-9.44,27-.13.78,1.27.52,1.59.27,5.35-4.28,7.44-11.09,11.63-16.32l-1.76-.12c-2.27,6.53-5.22,12.77-6.74,19.55-.17.77,1.29.49,1.59.26,2.52-2,4.82-4.16,7.88-5.28,1.25-.46.12-1.3-.81-1-3.2,1.18-5.65,3.44-8.31,5.52l1.59.26c1.52-6.77,4.48-13,6.75-19.55.27-.79-1.49-.46-1.77-.12-4.06,5.05-6.14,11.92-11.29,16l1.6.27c1.59-9.51,6.48-17.88,9.43-27,.28-.86-1.6-.39-1.88,0-4.55,6.8-7,15.32-13.36,20.74l1.76.12c1.78-9.42,7.78-17.28,10.79-26.29.28-.83-1.6-.43-1.89,0-5.69,9.42-10.1,19.81-17.4,28.16l1.76.12c1.13-12.64,9.1-24.67,16.12-34.89l-1.83-.13c-3,6.23-7.34,11.58-10.78,17.53-3.82,6.6-6.72,13.77-12,19.39l1.76.13c3.14-12.9,11.18-23.83,18.14-34.9l-1.82-.12c-5.54,9.25-8.92,19.91-16.06,28.15l1.76.13c2.29-11.91,10.4-21.14,14.77-32.2.4-1-1.47-.71-1.82-.13-5.29,8.76-9.27,18.37-16.06,26.14l1.7.28c3.68-9.73,10.15-18,14.16-27.64.39-.93-1.33-.75-1.7-.28-5.94,7.56-9.45,16.58-15,24.42l1.88,0c2.76-8,6.7-15.37,10.72-22.76l-1.82-.13c-1.38,2.74-2.81,5.85-6,6.91l1.12.47a15.27,15.27,0,0,1,6.39-9l-1.59-.27a44.52,44.52,0,0,1-6.68,12l1.82.13c3-3.94,4.95-8.64,8.65-12l-1.71-.28c-4.63,6.58-9.52,13-14.15,19.55l1.82.13C141,259,142.92,256.48,145,254c1.57-1.93,3.51-4.9,5.82-6,1.19-.59.11-1.41-.81-1Z"/><path class="cls-3" d="M89.81,294.64c3.41,1.61,7.21,1.17,10.84.68,5.92-.8,11.81-1.3,17.78-1.65s11.84-.29,17.77-.35c2.9,0,5.79-.15,8.69-.34,3.9-.25,7.81-1.78,11.66-.36.12-.44.25-.88.38-1.32-9.18,3.2-18.64-3.74-28.05-2.74-.46.05-1.65.79-.83,1.27,0-.06-.05-.11-.07-.17a.6.6,0,0,0,.48,1c20,.64,40,.68,60,1.35l-.09-1.28c-7.27,2.69-16.81.55-24.43.76-5.33.14-13.5.6-15.84,6.44a.52.52,0,0,0,.18.67c11.16,6.11,25.62,1.9,37.46.48,10.61-1.27,24.26,2.61,33.36-4.64.42-.33.46-.87-.09-1.09-14.64-6-29.5,3-44.29,3.31-.05.47-.11,1-.17,1.42,11.49-.28,22.23-5.12,33.71-5.39.66,0,1.65-1,.64-1.36-1.82-.62-3.63-1.24-5.39-2l-.89,1.36c7,1,14.2,4.45,20.52-.26,1.06-.79-.51-1.46-1.28-.89-5.53,4.13-12.53.6-18.57-.26-.75-.11-2,.88-.9,1.36,1.77.79,3.57,1.41,5.4,2l.64-1.36c-11.49.27-22.22,5.12-33.71,5.39-1.1,0-1.48,1.45-.17,1.42,14.43-.34,29.13-9.23,43.35-3.43l-.09-1.09c-7.29,5.81-19.56,3.83-28.26,3.77-11.2-.07-21.87,4-33.2,2.4-1.45-.2-7.06-1-5.55-3.17,1.19-1.67,3.45-2.32,5.33-2.8,4.22-1.1,8.84-.94,13.16-.89,6.4.07,13.79,1.28,19.93-1,.68-.25.75-1.24-.09-1.27-20-.67-40-.7-60-1.35.15.33.31.66.47,1a2.41,2.41,0,0,0,.41-.67.51.51,0,0,0-.18-.67l-.29-.18-.83,1.27c9.64-1,19,6,28.57,2.65.55-.19,1.27-1,.38-1.31-4.26-1.58-8.22-.11-12.6.24-6.39.52-12.82.31-19.23.41-5.92.1-11.85.55-17.75,1-5.39.44-12,2.76-17.16.35-.8-.38-2.22.78-1.11,1.3Z"/><path class="cls-3" d="M101.75,300.11a23.05,23.05,0,0,0,7-1.4c1.16-.38.82-1.75-.36-1.36a21.54,21.54,0,0,1-6.48,1.31c-1.12,0-1.48,1.47-.16,1.45Z"/><path class="cls-3" d="M86,291.36c2.54.11,4.87,1.24,7.41,1.35.14-.5.27-1,.4-1.49-3.17.46-6-1.21-9.19-1.34l-.39,1.49a24,24,0,0,0,7-1.39c.44-.15,1.24-.87.55-1.29a29.57,29.57,0,0,0-8.5-3.08c-.14.5-.27,1.27-.4,1.27h2.69c1.14,0,1.46-1,.15-1H83c-1,0-1.52,1.19-.4,1.47,2.59.63,5.36,1.1,7.67,2.52.19-.43.37-.87.55-1.3a21.71,21.71,0,0,1-6.48,1.3c-.9,0-1.57,1.44-.39,1.49,3.32.14,6.3,1.86,9.68,1.36.8-.12,1.65-1.44.4-1.49-2.54-.11-4.87-1.24-7.41-1.35-1-.05-2,1.42-.65,1.48Z"/></svg>