<svg id="layer1" xmlns="http://www.w3.org/2000/svg" viewBox="0 0 283.3 289.94"><defs><style>.cls-1{fill:#f7830f;}.cls-2{fill:#32a51b;}.cls-3{fill:#267182;}.cls-4{fill:#a01a21;}.cls-5{fill:#492d0c;}</style></defs><path class="cls-1" d="M200.07,91.78a74.66,74.66,0,0,0-2.76-7.2,3.38,3.38,0,0,0-3-1.67h-.8a3.38,3.38,0,0,0-3.42,3.21,15.39,15.39,0,0,0-7.52.22,21.9,21.9,0,0,0-6,2.11,3.28,3.28,0,0,0-1.64,0c-1.89.56-3.79,1.42-5.7,1.42h-40.7c-8.12,0-16.12-1.36-24.19.17a3.46,3.46,0,0,0-1,.39c-3.13-.2-6.07-.36-9.16-.47a3.39,3.39,0,0,0-3.34,3.51v4.81a3.42,3.42,0,0,0,2.41,3.38c16.88,5.66,35.42,6.82,53.09,6.34,17.47-.47,37.1-2.71,52.17-12.31A3.5,3.5,0,0,0,200.07,91.78Z"/><path class="cls-1" d="M180.82,56.8c-3.14-1.66-6.25-2.28-9.34-.11l-.58.37c-4.9-.35-9.64.81-14.3,2.29a3.56,3.56,0,0,0-3.22-2.23,10.76,10.76,0,0,0-4.23.89,2.85,2.85,0,0,0-1.61,2.35c-.78.43-1.58.85-2.34,1.25A3.22,3.22,0,0,0,143.78,63c-.58,0-1.15,0-1.73,0a28.92,28.92,0,0,0-7.79-4.12,3.17,3.17,0,0,0-3.68,1.28,3.38,3.38,0,0,0-1.14-.48c-6.26-1.34-12.48-1-18.82-.95a3.44,3.44,0,0,0-1.73-.73,3.42,3.42,0,0,0-3.92.65,5.14,5.14,0,0,0-1.23,1.88,4.09,4.09,0,0,0-1.25,2.9c-2.41,1.68-1.76,6.51,2,6.51h8.18c6.84,1,14.26,0,21.5-.09a3.47,3.47,0,0,0,1.91-.67c5.35,1.4,11.13.61,16.68-.11a34.69,34.69,0,0,0,11.41-1.83,25.51,25.51,0,0,0,9.47-3.56,3.9,3.9,0,0,0,.78-.65,3.23,3.23,0,0,1,2.9-.16C181.27,65,184.81,58.91,180.82,56.8Z"/><path class="cls-1" d="M209.37,169.9a137,137,0,0,1-21.83,8.44,48.88,48.88,0,0,0-8.77,1.07c-8.52-.68-17.18.37-25.69,1.75l-.79,0a62.84,62.84,0,0,0-11.71.37,3.22,3.22,0,0,0-3.24-2.52c-14.21-.07-28.34-1.58-42.52-2.4-4.23-.25-4.36,5.54-.93,6.87,6.91,2.69,12.76,7.37,20,9.16,5.84,1.43,12,.8,18-.32a3.15,3.15,0,0,0,3,1.71c10,0,20.06.57,30.1.12,9-.4,19.54-1,26.92-6.76a2.74,2.74,0,0,0,1.08-2.37,2.86,2.86,0,0,0,.52-.16c6.79-2.17,13.3-5.66,19.35-9C216.9,173.78,213.38,167.93,209.37,169.9Z"/><path class="cls-1" d="M162.27,220.32c2.21-1.89.93-4.42-1.16-5.33-.92-2-3.35-3.08-5.17-1.08H131.72c-2.82,0-5,3.8-2.47,5.79,1.09.89,2.14,1.74,3.18,2.68a3.42,3.42,0,0,0,1.54,3.35c.51.36,1,.67,1.55,1,.69.47,1.36.94,2,1.44a70.12,70.12,0,0,1,6.15,6.61c2,2.47,5.72.37,6-2.26a2.77,2.77,0,0,0,1.36-1c.19-.23.36-.47.54-.71h0l.46-.62.51-.67C155.78,226.47,158.88,223.24,162.27,220.32Zm-17.18.82-.69-.59h1.13A7,7,0,0,0,145.09,221.14Z"/><path class="cls-2" d="M134.2,53.33a15.76,15.76,0,0,0-3.42-2.15c-1-.45-1.11-1-2.1-1.6-2.28-1.34-6.59-.46-9,.41a3.45,3.45,0,0,0-.8-.08h-6.66a2.91,2.91,0,0,0-2.1.81,3.42,3.42,0,0,0-3.29,3.48V55a3.37,3.37,0,0,0,2.43,3.37,79.48,79.48,0,0,0,13.7.93,3.28,3.28,0,0,0,1.89-.57c.65.13,1.29.27,1.94.44a3.16,3.16,0,0,0,3-.56C133.22,60.57,137.55,56,134.2,53.33Z"/><path class="cls-2" d="M174.37,48.23c-4.92-.86-9.67-.32-14.57-.32h0v.19a3.78,3.78,0,0,1-1,.22,3.61,3.61,0,0,0-.46.17,10.63,10.63,0,0,0-4.37-.09c-2.95.81-5,5.41-5,8.2,0,3.36,4.9,4.95,6.52,1.77a2.55,2.55,0,0,1,.57-.68,24.91,24.91,0,0,0,9.17-1.64c1.63,0,3.25.05,4.89.05a3.33,3.33,0,0,0,2.37-1C176.94,55.73,178.77,49,174.37,48.23Z"/><path class="cls-2" d="M189.32,76.85c-13.57,7.89-30.13,9.16-45.49,9.25a265.79,265.79,0,0,1-44.87-4c-4.41-.72-6.31,6-1.86,6.75a285.12,285.12,0,0,0,48.18,4.23c16.1-.09,33.41-2,47.57-10.19C196.75,80.63,193.23,74.58,189.32,76.85Z"/><path class="cls-2" d="M221.57,145.36c-26,1.85-50.28,12.6-76.21,14.44l-1.72.12c-11.68-.32-23.42-1.93-35-3.06-14.21-1.38-28.43-2.62-42.71-2.67-4.51,0-4.51,7,0,7,1.2,0,2.4,0,3.61.05a3.36,3.36,0,0,0,1.88,1.42c22.69,7.31,47.45,6,70.9,4.35.47,0,.93-.08,1.4-.12,2,.05,3.89.08,5.83.09,25.1,0,48.8-9.14,72.94-14.74C226.31,151.35,225.53,145.08,221.57,145.36Z"/><path class="cls-2" d="M204,101.46a3.49,3.49,0,0,0-3.41-.9l-1.24.35h0a7.73,7.73,0,0,0-2.62-.46,3.69,3.69,0,0,0-3.31,2.27c-2.57.83-5.12,1.68-7.7,2.45-.39.08-.77.13-1.15.22a3,3,0,0,0-1,.42l-1.38.38a3.52,3.52,0,0,0-.69.26c-10.86-3.15-23-.85-33.59,2.81l-.91,0a74.39,74.39,0,0,0-21.85.32,44,44,0,0,0-13,.26q-5.37-.93-10.83-1.4a3.3,3.3,0,0,0-1.28.14,18.55,18.55,0,0,0-3.72-.74,36,36,0,0,1-3.73-.86c0,.09,0,.18.07.27a3.67,3.67,0,0,0-3.44.61l0,0a2.66,2.66,0,0,0-1,1.4,17.78,17.78,0,0,0-3.91,2.61,3.23,3.23,0,0,0-2.07,1.49c-1,1.66-2.2,3.16-3.21,4.82-2.07,3.43,2.39,6.53,5.1,4.55a58.53,58.53,0,0,0,23.72,3.2c13.89,7.32,31.37,5.77,46.3,3.44a161.33,161.33,0,0,0,30.31-7.61c7.38-.86,14.75-1.84,22.06-3.26a3.46,3.46,0,0,0,2.57-3.37A21.72,21.72,0,0,0,204,101.46ZM90.4,116l.2.1a3.69,3.69,0,0,0,.31,1.47c-.67-.16-1.34-.34-2-.54A10.19,10.19,0,0,1,90.4,116Z"/><path class="cls-3" d="M190.09,71.69c-.84-1.86-1.56-3.76-2.4-5.62a2.88,2.88,0,0,0-3.41-1.68,3.78,3.78,0,0,0-6,.06,3.44,3.44,0,0,0-.66.66,16.57,16.57,0,0,0-6.33,1.81c-.25.14-.48.28-.71.44a21.86,21.86,0,0,0-2.24.76l-1.67.41q-1.53.09-3.06.33a33.85,33.85,0,0,0-14,1.06,58.88,58.88,0,0,0-20.9,1.64l-.37,0-.68,0c-3.24-.16-11.64-1.17-19-.54a45.63,45.63,0,0,0-9.22.69,3.25,3.25,0,0,0-2.45,4,6,6,0,0,0-.93,3.4c.06,3.18,3.56,4.11,5.59,2.8a51.81,51.81,0,0,0,9,3,3.42,3.42,0,0,0,1.23.06l1.16.16c6.56,2.49,14.24,2.7,21,2.54a82.6,82.6,0,0,0,18.65-2.42,77,77,0,0,0,10.85-.12c5.77-.33,12.1-.9,17.29-3.67a7.44,7.44,0,0,0,3.29-3.23l.42-.14a3.55,3.55,0,0,0,5.16-2.4A3.67,3.67,0,0,0,190.09,71.69Z"/><path class="cls-3" d="M186.11,188.35a55.46,55.46,0,0,1-5.72,2.75,94.83,94.83,0,0,0-13.22.72c-2.93.32-5.86.52-8.79.66-1.34-.06-2.68-.09-4-.1a59.48,59.48,0,0,0-9.81.25,28.79,28.79,0,0,0-12.26-.25,61.63,61.63,0,0,0-10.71,1l-1.76-.59a3.08,3.08,0,0,0-3.74,1.59c-2.22,1.76-1.52,6.51,2.12,6.51h.11c.6,0,1.36.58,2.18.59a14,14,0,0,1,4.69.58,3.32,3.32,0,0,0,1.73.07c11,3.77,24.64,4.79,35.42.65a4.27,4.27,0,0,0,1.42-.9,4.51,4.51,0,0,0,.86.2,25.48,25.48,0,0,0,5.16.05c.9,0,1.82-.24,2.75-.24h.11V202c.31,0,.62,0,.93-.07a2.88,2.88,0,0,0,1.54-.68l.24-.06c2.08-.2,4.16-.46,6.25-.82a2.34,2.34,0,0,0,.55-.15,37.42,37.42,0,0,0,5.86-1.45,3.79,3.79,0,0,0,2.29-4.81C193.15,191.5,189.82,186.31,186.11,188.35Z"/><path class="cls-3" d="M222.53,140.71a13.41,13.41,0,0,0-1.4-4,3.52,3.52,0,0,0-.55-1.62,37.82,37.82,0,0,0-3.76-5.52,3,3,0,0,0-2.82-1.09,3.55,3.55,0,0,0-5.77.13,4,4,0,0,0-2.57,1.83,4.31,4.31,0,0,0-.83.58,6.61,6.61,0,0,0-1.06,1.26,32.92,32.92,0,0,0-4.27,1.24,25.39,25.39,0,0,0-4.53.77,3.46,3.46,0,0,0-1.16.55c-1.1.28-2.18.59-3.25.93a35.92,35.92,0,0,0-6.45.3c-1.77.07-3.53.23-5.29.45a57.31,57.31,0,0,0-20.66,3.4,84.69,84.69,0,0,0-32.66,2.6q-1.81,0-3.63.15c-3.6,0-7.27,0-10.94.28-6.1-1.1-12.26-.82-18.52-.77a3.32,3.32,0,0,0-2.51,1l-.74-.12c-3.69-.72-7.37-1.54-11.06-2.39a3.62,3.62,0,0,0-1.8,0,3.67,3.67,0,0,0-3.76-1.53h0a3.18,3.18,0,0,0-.51.13l-.19.06-.35.17c-.1.06-.21.11-.31.18l-.14.11a3.82,3.82,0,0,0-.87.84,76.3,76.3,0,0,0-6.42,9.62c-1,1.89-.2,4.66,2.09,5.14,9.37,2,19.11,1.69,28.73,1a160,160,0,0,0,29.34,4.2c8.75,2.25,17.88,3.13,26.55.41a69.57,69.57,0,0,0,12.21-1.37,85.71,85.71,0,0,0,20-6.48,65.92,65.92,0,0,0,24-5.9c.62-.2,1.24-.41,1.85-.65a10.39,10.39,0,0,0,2.9.26,10.66,10.66,0,0,0,6-2.28C219.77,146.1,223.09,143.93,222.53,140.71Z"/><path class="cls-4" d="M215.76,125.44c-1.12-2.39-2.08-4.84-3.21-7.22-.88-1.87-3.16-2-4.78-1.26a86.9,86.9,0,0,1-9.78,3.57,57.36,57.36,0,0,0-8.51.89,43.75,43.75,0,0,0-13.14.68,99.45,99.45,0,0,0-24,6.13,133,133,0,0,0-14.12.77,81.51,81.51,0,0,0-10.48-.14c-14-1.78-28-4.1-42.07-4.88a3.94,3.94,0,0,0-1.57-.08c-2.31-.11-4.62-.19-6.93-.2a3.44,3.44,0,0,0-3,1.74,31.12,31.12,0,0,0-2.88,9.78,3.42,3.42,0,0,0,1.73,3C93.79,149,118,148.9,140.69,146c16.95-2.19,33.54-6.21,50-10.6a3.32,3.32,0,0,0,1.16.17,43.1,43.1,0,0,0,14.34-3.59c2.15-.5,4.32-.94,6.52-1.23C215.46,130.35,217,128,215.76,125.44Zm-37.51,3.49c-.75.21-1.51.4-2.26.58l-.4-.1c.59-.14,1.19-.27,1.78-.39Z"/><path class="cls-4" d="M126.17,43.82c-2-2-3.56-4.29-6.58-4.29-1.78,0-3.47,0-4.53,1.71-.23.37-.81.54-1.18.75a11.48,11.48,0,0,0-1.12.86c-4,.53-3.82,7.06.51,7.06H123.7A3.61,3.61,0,0,0,126.17,43.82Z"/><path class="cls-4" d="M172.45,43.61c-2.64-3.45-6.53-4.63-10.08-6.87A3.53,3.53,0,0,0,157.58,38c-1.08,1.78-2.92,3-4,4.81-1.85,3.06,1.53,5.88,4.19,5a2.64,2.64,0,0,0,.3.1,51.53,51.53,0,0,0,11.36.93C171.83,48.88,174.12,45.8,172.45,43.61Z"/><path class="cls-4" d="M173.43,200.91h-12a3.27,3.27,0,0,0-2.23.67c-9.43-.21-18.82-1.46-28.25-.82a3.44,3.44,0,0,0-2.3,1.05l0-.06c-2.53-3.2-7.41.88-5.5,4.23s4.62,5.8,7,8.73c1.24,1.55,3.26,1.28,4.61.19h30.75a3.45,3.45,0,0,0,3.43-3.48h0c2-1.4,4.23-2.7,6.33-4.1C178,205.45,177.06,200.91,173.43,200.91Z"/><path class="cls-4" d="M228.19,154.74c.08-2.19-1.77-4.46-4.35-3.64-15.12,4.84-30.44,9.76-46.15,12.1-4.82.58-9.64,1.14-14.42,1.34-.89,0-1.78.07-2.67.07a3.26,3.26,0,0,0-3.26,2.59,300.7,300.7,0,0,1-55.64-.56,3.19,3.19,0,0,0-1.94-1.1c-4.39-.88-8.76-1.74-13.17-2.23-1-.19-2.1-.36-3.16-.52-1.27-.25-2.55-.45-3.85-.58a2.74,2.74,0,0,0-2.21.72c-.6,0-1.2,0-1.8.08a2.86,2.86,0,0,0-.51.09,38.3,38.3,0,0,0-9.79-3.17c-4.42-.76-6.3,6-1.86,6.75,10.85,1.86,19.15,9.42,28.84,14.08a3.47,3.47,0,0,0,4.53-1c15.7,2.57,31.54,2.72,47.36,1.69,17.77.87,35.45.34,51.88-5.91a3.12,3.12,0,0,0,.8-.45,119.11,119.11,0,0,0,14.59-4.91,2.75,2.75,0,0,0,3.06.55,21.2,21.2,0,0,0,6.29-4.18,7,7,0,0,0,1.7-1.64c1.81-1.83,3.56-3.77,5.59-5.51A3,3,0,0,0,228.19,154.74Z"/><path class="cls-4" d="M203,95c-22,6.75-44.81,13.33-68.06,12.71-7.07-.19-14.11-.28-21.16-.84-5.93-.47-14.64-.48-19.59-4.3-3.57-2.76-7.05,3.33-3.53,6,5.09,3.92,13.22,4.23,19.34,4.9a237.39,237.39,0,0,0,24.15,1.19c24.34.13,47.58-5.87,70.71-13C209.15,100.38,207.31,93.62,203,95Z"/><path class="cls-5" d="M120.71,39.41c-.54,3.14,5,8.05,6.79,10.16,3.52,4.21,6.62,9.61,11.07,12.84,2.88,2.1,5.84.41,7.89-1.89,2.35-2.66,3.78-6.25,5.49-9.31a99.92,99.92,0,0,1,8.84-14c.77-1-1.06-1.29-1.62-.59A101.73,101.73,0,0,0,150.1,51c-1.49,2.68-2.86,5.45-4.56,8-2.76,4.16-6,2.27-8.65-.71s-5-6.46-7.63-9.57c-1.5-1.78-7-6.84-6.59-9.44.17-1-1.81-.74-2,.14Z"/><path class="cls-5" d="M117,39.73C102,50.58,97,72.32,91.43,88.94c-8.59,25.9-24,49-32.59,75a.54.54,0,0,0,.37.74c10.72,3.05,20.57,8.1,30,14,8.94,5.56,18.32,11.55,25.74,19.06,11.65,11.8,17.27,28,29.61,39.26.62.57,2.31-.35,1.49-1.1-13.8-12.61-19.84-31.14-34.09-43.45-8.63-7.46-19-13.79-28.87-19.39a119.29,119.29,0,0,0-14.49-6.89c-1.11-.44-8-1.92-7.37-3.68.93-2.83,2-5.61,3.06-8.38C73,131.61,86,111,93.62,88.1c5.3-16,10.25-37.11,24.63-47.52,1.07-.77-.52-1.4-1.27-.85Z"/><path class="cls-5" d="M161.66,36.57c21.17,15.67,32,40.71,42.72,63.9,7.86,17,15.19,34.18,22.61,51.35.9,2.08,1.81,4.17,2.71,6.26.59,1.36-3.11,4.12-4,5-7.43,7-15.55,13.35-23.35,19.94-9.28,7.84-18.36,15.88-27.69,23.66-9,7.48-17.49,15.5-24,25.23-.89,1.34-2,3.3-3.4,4.21l1.5-.07a.27.27,0,0,1-.08-.07c-.57-.45-2.37.32-1.79.78l.08.07a1.35,1.35,0,0,0,1.5-.07c2-1.36,3.56-4,4.79-6,3.52-5.76,8.64-10.75,13.51-15.4,9.46-9,20-16.86,29.76-25.59,7.92-7.12,16.26-13.74,24.35-20.66,1.52-1.3,12-8.78,10.86-11.34q-9.51-22-19.05-44c-9.16-21-18.56-43.16-32.56-61.49a84.68,84.68,0,0,0-16.92-16.69c-.54-.4-2.32.39-1.53,1Z"/><path class="cls-5" d="M112.33,49.58c4.63.05,9.22.76,13.85.81.61,0,2.09-.91.8-.92-4.64-.06-9.22-.76-13.86-.82-.61,0-2.09.91-.79.93Z"/><path class="cls-5" d="M151.21,48.71c7.1,0,14.13-.1,21.08-1.72,1.15-.26,1-.9-.17-.64-6.47,1.5-13.05,1.54-19.66,1.54-.43,0-2.21.82-1.25.82Z"/><path class="cls-5" d="M106.66,57.84c8.67.86,17.35,1.58,26.07,1.63.76,0,2-1.15.73-1.16-8.72-.05-17.4-.77-26.07-1.63-.78-.07-2,1-.73,1.16Z"/><path class="cls-5" d="M148.22,58.7a113.08,113.08,0,0,0,28.21-3.31c1.18-.31.87-1.45-.3-1.14a108.82,108.82,0,0,1-27.2,3.21c-.81,0-2,1.25-.71,1.24Z"/><path class="cls-5" d="M101.5,69.85c27,1.61,54.93,2.51,80.8-6.71,1.31-.46.06-.6-.64-.35-25.22,9-52.57,7.91-78.89,6.33-.37,0-2.2.67-1.27.73Z"/><path class="cls-5" d="M98.08,82.88c19.23,5.44,38.46,4.05,58,1.9,7.91-.87,15.85-1.68,23.66-3.27,3.26-.66,9.55-1.51,11.36-4.87.12-.22-1.65-.12-1.9.35-2.25,4.18-12.19,4.5-16.28,5.12-6.55,1-13.14,1.61-19.72,2.36-18,2-35.88,2.68-53.51-2.31-.42-.12-2.11.57-1.59.72Z"/><path class="cls-5" d="M94.41,90.34c17.56,0,35.1-1,52.64-1,7.72,0,15.68,1.23,23.37.21s15.08-3.86,22.82-4.89c.87-.11,1.65-1.1.3-.92-7.21,1-14.07,3.45-21.23,4.68-8.53,1.45-17.64-.06-26.25,0-16.94,0-33.9,1-50.87,1-.63,0-2.08,1-.78,1Z"/><path class="cls-5" d="M90.58,100.7c.84,1.28,4.13,1.65,5.42,2,4.21,1.14,8.51,2.08,12.81,2.85,11.67,2.11,24.12,1.16,35.92.91,19.67-.43,40.88-2.83,58.36-12.52.81-.45-1.14-.21-1.47,0-17.51,9.71-38.87,11.54-58.54,11.83-10.29.16-20.71.61-31-.66A107.88,107.88,0,0,1,101,102.83c-1.82-.43-7.4-1-8.5-2.64-.31-.46-2.07.31-1.93.51Z"/><path class="cls-5" d="M88.13,105.59c.72,2.7,11,2.7,12.91,2.9,7.12.74,14.29,1.21,21.45,1.42a308.73,308.73,0,0,0,38-.85,159.54,159.54,0,0,0,20.85-3.19c7-1.61,13.76-4,20.88-4.92.91-.12,1.63-1.18.28-1-12.16,1.59-23.74,5.88-36,7.47a245.74,245.74,0,0,1-42,1.48c-5.75-.24-11.48-.49-17.22-.94-2.09-.17-16.54-.28-17.24-2.87-.17-.64-2.1-.12-1.93.51Z"/><path class="cls-5" d="M80.55,123.72c5.91-.43,11.51,1.12,17.23,2.42A85.48,85.48,0,0,0,112,127.81c10.66.57,21.5.2,32.16-.12,21.25-.65,41.93-6.08,62.4-11.39,1.14-.29.93-1-.21-.75C185.48,121,164.66,126.18,143,126.83c-11.18.34-22.53.61-33.68-.16-9.4-.65-18.53-4.55-28-3.87-.59,0-2.09,1-.8.92Z"/><path class="cls-5" d="M71.2,138.32c11.31,4.69,23.53,5.28,35.63,5.07,13.5-.23,27.19-.57,40.66-1.44,13.79-.89,27.48-3.26,41-5.95,8.39-1.66,18.27-3.16,25.17-8.61.79-.63-1.14-.39-1.49-.11-7.67,6.07-19.34,7.22-28.69,9a292,292,0,0,1-40.82,5.16c-11.1.5-22.25.75-33.36,1.08-12.36.38-25-.18-36.55-5-.45-.18-2.21.53-1.58.79Z"/><path class="cls-5" d="M65.08,156.35c14.21.77,28.22,3.47,42.4,4.53,13,1,26.22.54,39.21.19a208,208,0,0,0,36.58-3.93c13.61-2.8,25.62-8.94,38.75-13.08,1.12-.36.91-1.22-.23-.86-11.9,3.76-22.94,9.27-35.14,12.27-13.39,3.3-27.25,4.29-41,4.65-13.52.36-27.26.63-40.74-.51-13-1.12-25.95-3.55-39-4.26-.67,0-2.08.93-.78,1Z"/><path class="cls-5" d="M63.92,160.91H62.29c-.9,0-1.57,1.38-.41,1.42,6.34.2,12.42,2.19,18.74,2.42,7.09.25,14.24,1.24,21.33,1.68,14.25.86,28.32,2.41,42.62,2.07a195.25,195.25,0,0,0,41.81-5.58c13.25-3.23,26.12-6.95,38.41-13,1.18-.58.12-1.69-.88-1.19-24.21,11.89-52.34,17.42-79.18,18.28-14.12.46-28.06-1.2-42.12-2.06-7.13-.44-14.24-.89-21.33-1.69-6.24-.7-12.46-2.43-18.74-2.63-.14.48-.27,1.27-.41,1.27h1.63c1.13,0,1.47-1,.16-1Z"/><path class="cls-5" d="M90.64,178.56c10.73-.54,21,3,31.61,3.22,11.71.21,23.45.19,35.15-.17a208.21,208.21,0,0,0,31.52-3.17c11-2,20.73-7.27,31.53-9.71,1.21-.27.85-1.59-.35-1.32-10.19,2.3-19.47,7.17-29.75,9.35-11.36,2.41-23.06,3.14-34.64,3.5s-23.29.62-34.82,0c-10.13-.52-19.85-3.65-30.08-3.14-1.09.06-1.49,1.48-.17,1.42Z"/><path class="cls-5" d="M112.18,191.57c16.28,4.71,32.77-.11,49.17-.93,12.89-.63,29.94.87,40.84-7.42,1-.8-.51-1.57-1.31-1-10.31,7.85-27.1,6.35-39.38,6.89-16.07.71-32.26,5.67-48.22,1-.89-.25-2.28,1-1.1,1.37Z"/><path class="cls-5" d="M122.42,203.82c12.65,0,25.24,1,37.88.82,9.69-.14,20.39-.71,28.84-6,1.11-.7-.48-1.39-1.28-.9-8.75,5.45-20.25,5.4-30.22,5.47-11.69.08-23.35-.84-35-.85-1.11,0-1.48,1.43-.17,1.43Z"/><path class="cls-5" d="M126.42,206.79c16.79-2.3,33.69,4.65,50.21-1,1.3-.44.08-.83-.7-.56-16,5.42-32.86-1.56-49.19.68-.84.11-1.68,1-.32.84Z"/><path class="cls-5" d="M130.91,216.79c12.14,4.63,24.08-2.06,36.32-2.39,1.1,0,1.49-1.44.17-1.41-11.86.32-23.65,7-35.38,2.5-.82-.31-2.26.87-1.11,1.3Z"/><path class="cls-5" d="M60,164.42c-2.48,1.78-1.91,6.32-1.9,8.93,0,4.7,1.06,10.45-.83,14.91-.17.41.15.65.57.65h.81c.42,0,1.09,0,1.27-.48,1.74-4.55,3.17-9.35,1.68-14.16a.62.62,0,0,0-.62-.36h-.82c-.4,0-1.27.19-1.27.77v.81c0,1,1.7.52,1.93-.17.81-2.45,1.61-4.89,2.43-7.34l-2,.18c-.23,1.11-.59,2.15-.82,3.26s1.59.42,1.89,0a13.88,13.88,0,0,0,1.63-3c.18-.4-.15-.49-.57-.49H60.11c-.4,0-1.27-.32-1.27.25V169c0,.46.45.63.85.57a30.7,30.7,0,0,0,3.51-.61c.68-.17,1.24-1,.17-1H58.48c-.56,0-2.1.7-.91,1a28.52,28.52,0,0,0,7.55.73c.87,0,2-1.36.7-1.37a26.31,26.31,0,0,1-7.12-.71c-.3.42-.61.33-.91,1.33h4.89a7.6,7.6,0,0,1,.18-1.36c-1,.24-2,.58-2.94.73.29.19.92.33.92.52V168c-1,.25-.93.5-1.37.75,2.53,0,2.58.35,1,2.52h1.87c.23-1.1.59-2.15.81-3.26.2-.94-1.72-.53-1.95.18-.82,2.44-1.58,4.89-2.4,7.33.65-.06,1-.11,2-.17v-.82c-1,.25-.93.5-1.37.75,2.57,0-.49,10.59-.92,11.84-.24.67.67,1.17,1,0a17.81,17.81,0,0,0,.51-4.3c.16-3.21,0-6.45-.07-9.66,0-1.85-.57-6.69,1.21-8,1.07-.77-.53-1.31-1.26-.79Z"/><path class="cls-5" d="M56.34,169.77c-.92,6.18-4,11.75-4.89,17.93-.14.94,1.69.76,1.91,0a17.26,17.26,0,0,1,6.23-8.62c1-.82-.52-1.52-1.28-.91a18.87,18.87,0,0,0-6.8,9.3l1.9.05c.93-6.18,4-11.75,4.89-17.93.15-1-1.83-.74-2,.14Z"/><path class="cls-5" d="M75.41,176.82c2.19-.76,3.66-.72,4.07-3.24.06-.35-.33-.67-.63-.67H77.22c-.39,0-1.38.39-1.38,1v3.27a.6.6,0,0,0,.66.55c.49,0-.61,1-1,1.81a31.52,31.52,0,0,0-1.38,4.22c-1.17,4.09-1.93,8.18-3.92,12-.49.94,1.47.82,1.84.16,3.14-5.62,5.81-11.49,9-17.11.51-.91-1.32-.76-1.71-.32-3.52,4-4.18,9.85-4.25,15,0,1,1.74.53,2-.18a19.78,19.78,0,0,1,3.89-7.82l-1.76,0c1.56,3.63,1.76,7.55,2.44,11.41.14.77,1.94.35,1.94-.35,0-3.27.28-6.59,0-9.85a38.17,38.17,0,0,0-.69-4.64c-.29-1.36-2.56-4.53-.63-4.33.88.1,2-1.15.7-1.29s-3.46-.44-3.77,1.55c0,.22,1.21,2.79,1.32,3.08a21.17,21.17,0,0,1,1,4.58c.52,3.63.16,7.43.13,11.08l1.94-.35c-.69-3.85-.89-7.77-2.45-11.41-.28-.65-1.38-.42-1.76,0a21.82,21.82,0,0,0-4.25,8.48l2-.18c.06-4.85.57-10.54,3.89-14.34l-1.71-.32c-3.14,5.63-5.82,11.49-9,17.11l1.83.16c3.1-5.93,3.42-12.8,6.52-18.74.2-.39-.18-.72-.57-.72-.6,0-.19-1.93-.19-2.71l-1.32.74c2.68,0-.55.89-1.44,1.2-1.14.39-.85,1.6.32,1.2Z"/><path class="cls-5" d="M100.4,191.3c-2.16.49,0,2.44.7,3.2.38.41,1.74,0,1.74-.61v-.82c0-.08,0-.14,0-.17-.55-.27-.87-.54-1.42-.81s-1.53.09-1.53.68v1.63c0,.37.78.18.93.15a12.8,12.8,0,0,0,2.84-1c.41-.19.49-.58,0-.69-11.09-2.32-10.25,16.19-12.17,22.61-.19.63,1.68.18,1.91-.28,3.07-6.21,5.88-12.54,9-18.74l-1.92.28c-.89,3.86-2.36,7.55-3.26,11.41-.15.65,1.64.2,1.85-.16a89.26,89.26,0,0,0,5.77-11.53l-1.92.4c.85,4.34,1.59,8.69,2.44,13,.11.56,2,.1,1.93-.51-.86-5.48-2.39-10.82-3.26-16.3l-1.93.52a2.54,2.54,0,0,0,.82,1.63c.36.57,2.18-.13,1.93-.52a2.59,2.59,0,0,1-.82-1.63c-.11-.56-2-.09-1.93.52.87,5.48,2.39,10.82,3.26,16.29l1.93-.51c-.84-4.34-1.59-8.7-2.44-13-.12-.63-1.76,0-1.93.4A88.64,88.64,0,0,1,97.17,208l1.85-.16c.9-3.87,2.36-7.55,3.26-11.41.16-.68-1.7-.17-1.92.28-3.07,6.21-5.89,12.53-9,18.74l1.92-.28c1-3.41,1.22-7.08,1.85-10.56a39.28,39.28,0,0,1,1.61-6.16,14.86,14.86,0,0,1,1.32-2.72c.76-1.24,5.38-2.62,2.48-2a6.11,6.11,0,0,0,1.26.15v-1.63a9.82,9.82,0,0,0-1.93.68c.78.39,1.35.5,1.35,1.46l1.82-.61c-1-1.11-1.09-2-2.44-1.69,1.16-.26.9-1.07-.24-.8Z"/><path class="cls-5" d="M125.84,215.3c-1.51.9-2.28.63-1.86,2.73l1.93-.51a2.79,2.79,0,0,0-.81-1.63c-.3-.37-1.77,0-1.92.43a14.57,14.57,0,0,0-.83,5c0,.46,1.68-.21,1.84-.33,1.72-1.29,2.44-3.08,3.34-5,.12-.25-.43-.22-.53-.21-7.24.83-9.9,11.83-11.15,17.67-.09.42,1.8.12,1.9-.35,1-4.49,2.87-9.06,6.44-12.12l-1.82.24a23.28,23.28,0,0,0-4.09,16.39c.06.47,1.66-.18,1.84-.34a20.82,20.82,0,0,0,6.61-14l-1.93.52c0,5.21-.12,10.35-1.62,15.39-.11.38,1.76.14,1.91-.34,1.51-5.1,1.63-10.29,1.64-15.57,0-.32-1.9,0-1.93.52-.28,4.86-2.7,10.45-6.43,13.66l1.84-.33a23,23,0,0,1,4.06-16.21c.2-.27-1.56,0-1.83.25-3.64,3.12-5.55,7.73-6.59,12.32l1.9-.35a53.25,53.25,0,0,1,3.14-9.59,28.59,28.59,0,0,1,2.47-4.51c2.77-4.17.92.75-.92,2.13l1.84-.34a11.21,11.21,0,0,1,.81-4.8l-1.92.43A2.91,2.91,0,0,1,124,218c.16.43,2-.08,1.93-.51-.33-1.67.41-1.58,1.41-2.17.81-.48-1.14-.25-1.48,0Z"/><path class="cls-5" d="M141.91,240.85c-.29,2,1.79,2.07,3.22,1.85,2.52-.39,3.42-2.54,3.6-4.82,0-.11-.3-.12-.34-.12-3.18,0-3.51,1-4.84,3.82-.09.18.22.21.32.21,1.37,0,1.43-.48.59,1.29a57.45,57.45,0,0,0-2.41,6.06,116,116,0,0,0-3.39,12.8l1.92-.43a35,35,0,0,1,4.87-17.84l-1.91.44c-.1,4.9-.72,9.76-.82,14.66,0,.33,1.8,0,1.92-.43,1.54-4.93,2.41-10.09,4.89-14.67l-1.92.44c2,3.88,2.37,8.22,4.07,12.22.19.43,1.78-.09,1.92-.43,1.55-3.67,2-7.66,3.26-11.41.12-.34-1.74-.14-1.9.35-1.31,3.75-1.72,7.73-3.26,11.4l1.92-.43c-1.71-4-2-8.33-4.08-12.22-.23-.44-1.73.09-1.91.43-2.49,4.58-3.35,9.74-4.89,14.67l1.91-.44c.1-4.9.72-9.76.82-14.66,0-.41-1.75.15-1.92.43a35.36,35.36,0,0,0-4.9,18c0,.31,1.82,0,1.91-.43,1.58-7,3.4-13.87,6.52-20.37.09-.19-.22-.21-.32-.21-1.79,0-.95-.49-.38-1.86.47-1.19.5-.74.07,1.34l-2.57.82a1.26,1.26,0,0,1,0-1c0-.21-1.85-.06-1.93.52Z"/><path class="cls-5" d="M164.72,218c.14,1.16.05.82.89,1.79a1.22,1.22,0,0,0,1.87-.5c.35-1.5,1.12-2.58,1.47-4.08-.65.06-1.11.12-2.11.17v5.71c0,1,2,.64,2-.17v-3.26c0-.92-1.51-.66-1.76,0-2.71,7-2.4,14.79-3.25,22.17-.11,1,1.78.57,2-.17a70.48,70.48,0,0,0,2.46-17.93l-1.85.5c2.43,3.67,3.3,8,4.82,12.07.27.73,1.95.43,1.94-.35-.09-4.9-.72-9.76-.82-14.66l-1.86.5c2.93,4.12,3.38,9,4.81,13.69.26.84,2.19.32,1.94-.51-1.48-4.85-2-9.79-5-14-.38-.53-1.88-.21-1.87.5.1,4.9.73,9.76.82,14.66l1.94-.34c-1.56-4.19-2.47-8.61-5-12.38-.36-.55-1.85-.19-1.86.5a70.46,70.46,0,0,1-2.44,17.93l1.95-.17c.82-7.24.38-14.94,3-21.83h-2v3.26c0,1,2,.64,2-.17v-5.71c0-1-1.64-.59-1.82.17-.34,1.5-1.21,2.59-1.56,4.08l1.9-.5c-.25-.49-.48-1-.73-1.47-.1-.84-2-.37-1.91.51Z"/><path class="cls-5" d="M184,202.68c2.08-.91,3.56-1.37,3-3.9-.15-.73-1.61-.05-1.86.24-1.59,1.76-1.58,2.9-.88,5.16.19.64,1.63.17,1.86-.24.77-1.39,1.67-2.89,2.44-4.28.22-.38-.18-.75-.52-.75h-.81c-.47,0-1.41.61-1.41,1.2v20.37c0,.57,2,.22,2-.39.13-7.36,1.53-14.63,1.65-22l-1.92.38a101.69,101.69,0,0,0,4.07,13.85c.21.61,1.93.2,1.94-.38.07-4.58.54-9-1.63-13.17-.31-.61-2.06-.19-1.93.51,1.18,6.36,5.06,11.43,9.84,15.6.51.44,2.32-.3,1.8-.75-4.72-4.11-8.54-9.1-9.71-15.36l-1.93.51c2.12,4.13,1.7,8.4,1.63,12.9l1.93-.38A101.27,101.27,0,0,1,189.47,198c-.12-.63-1.93-.19-1.93.38-.12,7.37-1.51,14.63-1.63,22a18.22,18.22,0,0,1,1.93-.38V199.59c0,.27-.9.53-1.34.8-.27,0-1.87,3-2.16,3.52l1.87-.25c-.56-1.82-.65-3.07.75-4.61l-1.87.24a2.48,2.48,0,0,1-1.86,2.61c-1.23.55-.1,1.16.76.78Z"/><path class="cls-5" d="M199.8,185.1c-.56,1.33-.23,1.88,1.17,2.33.53.17,1.41-.09,1.54-.7.23-1.15.68-2.08.82-3.26.11-1-1.76-.57-2,.17s-.6,1.61-.82,2.44,1.07.6,1.39.44a13.64,13.64,0,0,0,3.64-2.72c.4-.39,0-.9-.45-.9-6.68,0-3.82,17-3.76,21.11,0,1,1.56.55,1.89,0,3.63-6,3.31-13.76,3.31-20.54,0-1-1.72-.53-2,.17-1.91,5.82.66,14.3,4.17,19.06a1.2,1.2,0,0,0,1.86-.49c.66-5.78-1.6-11.37-4.08-16.47l-1.72.79a44.36,44.36,0,0,1,11.27,12.1c.45.67,2.31,0,1.77-.82a45.09,45.09,0,0,0-11.54-12.34c-.42-.3-2.07.06-1.72.79,2.43,5,4.71,10.47,4.07,16.12l1.86-.5c-3.36-4.57-5.81-12.86-4-18.41l-2,.17c0,6.64.36,14.31-3.2,20.2h1.9c-.09-6.49-1.89-14.45,1.57-20.35a3.28,3.28,0,0,1-1.27.42h.82c-.15,0-.3-.45-.45-.76a11,11,0,0,1-2.88,2.25c.46.15.93.33,1.39.47.21-.82.6-1.59.82-2.42l-2,.18c-.14,1.15-.59,2.14-.82,3.26l1.54-.7-.46-.92c.42-1-1.53-.9-1.84-.17Z"/><path class="cls-5" d="M216.05,171.59c.67,1.11.59,1.7,1.68,2.5.35.26,1.8-.12,1.88-.57.19-1.12.63-2.15.82-3.26,0-.11-.31-.12-.34-.12a3.92,3.92,0,0,0-2.44.55c-.09.07-.13.15,0,.23a3.55,3.55,0,0,0,2.16,1c.17,0,1.78-.3,1.6-.63a1.85,1.85,0,0,1-.13-1c0-.27-1.92,0-1.93.52a5.66,5.66,0,0,1-.8,3.17c-.11.18,1.6.09,1.9-.35l1.63-2.45-1.91.44c.05,7.07.75,14.11.81,21.18,0,.3,1.83,0,1.92-.43,1.48-6.48,1.64-12.86,1.64-19.48,0-.11-.29,0-.33,0h-.82c-.29,0-1.62,0-1.59.47.32,5.85,4.7,12.59,11.13,12.24.47,0,2.12-.83.85-.76-5.91.32-9.77-7-10.05-12.14l-1.6.62c1.78,0-.71,17.51-1.13,19.36l1.91-.44c-.06-7.07-.76-14.12-.81-21.19,0-.39-1.75.19-1.92.44-.54.82-1.09,1.63-1.63,2.44l1.9-.35a5.67,5.67,0,0,0,.83-3.34l-1.93.52a1.84,1.84,0,0,0,.12,1l1.6-.63a3.7,3.7,0,0,1-.91-.4c-.51-.46-1.07-.42-1.7.12-.07,0-.65,2.65-.74,3.14l1.88-.58c-1.13-.83-1-1.38-1.58-2.38-.27-.45-2.06.31-1.93.52Z"/><path class="cls-5" d="M232.84,161.81v1.24c0,.39,1,.09,1-.52v-2.05c0-.19,0-.57-.12-.57h-1.63a1.88,1.88,0,0,0-1.36.79,17.66,17.66,0,0,0-1.64,5.9c0,.46,1.67,0,1.84-.26.59-.79,1-1.63,1.63-2.42l-1.84.32c-.12,5.69-1.55,11.53,0,17.12.14.51,1.8,0,1.92-.41a32.15,32.15,0,0,0,0-18l-1.87.6c3.15,4.13,5.37,9.23,9.77,12.23.48.32,2.16-.45,1.82-.69-4.41-3-6.62-8.08-9.78-12.22-.26-.34-2,.13-1.87.6a31.81,31.81,0,0,1,0,17.83l1.92-.42c-1.55-5.59-.12-11.43,0-17.11,0-.49-1.68.08-1.85.31-.58.78-1.05,1.67-1.63,2.44l1.85-.31a16.62,16.62,0,0,1,1.62-5.6l-1.37.59c1.33,0,.86.77.86,1.88,0,.39,1.71.09,1.71-.52V161.3c0-.39-1-.09-1,.51Z"/></svg>