<svg id="layer1" xmlns="http://www.w3.org/2000/svg" viewBox="0 0 270.45 335.34"><defs><style>.cls-1{fill:#266f9b;}.cls-2{fill:#e5254e;}.cls-3{fill:#32a51b;}.cls-4{fill:#ff8b00;}.cls-5{fill:#492d0c;}</style></defs><path class="cls-1" d="M188.35,77.06c-1,.36-2,.7-3,1a1.47,1.47,0,0,0-2.15-1.68,17.12,17.12,0,0,1-1.61.92c-.18.1-.36.18-.54.26A28,28,0,0,1,170.15,80a53.61,53.61,0,0,0-8.05-1.46,68,68,0,0,0-10.6.26c-7.68-.6-15.14-.19-21.57,5.1a1.18,1.18,0,0,0-.46.87,18.79,18.79,0,0,0-1.57,1.39,10.84,10.84,0,0,1,0-3.26c.36-.67.74-1.32,1.13-2a18.41,18.41,0,0,0,5.53-3.3c7.23,0,13.61-3.11,20-6.08l.17,0a21.83,21.83,0,0,0,12.84-9.06c1-1.38-1.26-3.11-2.36-1.81a22.66,22.66,0,0,1-6.12,5.05,30.68,30.68,0,0,0-10.37,1l-.44.08a1.53,1.53,0,0,0-.85-.08,39.44,39.44,0,0,0-10.27,3.44c-1.27.51-2.51,1.06-3.73,1.65a36.32,36.32,0,0,0-4.13,2.2q-2,1.18-3.89,2.49a1.51,1.51,0,0,0-.26.24,1.55,1.55,0,0,0-1-1.2c-2.34-.8-4.65-1.68-6.94-2.6a1.28,1.28,0,0,0-.73-1.26c-.47-.23-1-.43-1.42-.65a1.3,1.3,0,0,0-.54-.3l-.3-.07a53.67,53.67,0,0,0-5.58-2.11,1.57,1.57,0,0,0-.54-.23c-.63-.13-1.25-.3-1.87-.46q-1.44-.61-2.94-1.14a1.27,1.27,0,0,0-1.2.24,1.42,1.42,0,0,0-.8-.17H84.41c-4.14-2-8.19-3.25-12.38-4.82a1.49,1.49,0,0,0-1.46,2.47,29,29,0,0,0,7.62,4.9,1.27,1.27,0,0,0,1.06,1.08c1.84.44,3.69.8,5.56,1.13a67.86,67.86,0,0,0,9.27,1.44,97.25,97.25,0,0,0,9.89,1c2.93.39,5.85.83,8.74,1.41.7.21,1.38.45,2.06.71a39.61,39.61,0,0,1,5.53,5.11,1.37,1.37,0,0,0,2.22-.21c.28.27.56.55.83.85a23.63,23.63,0,0,0-1.65,5.06c-1.31-1.58-2.65-3.13-4.09-4.61a1.49,1.49,0,0,0-2.53,1,34.39,34.39,0,0,0-16-4c-5.55-.11-11.12.57-16.67.8-6.84.3-15.23,1.29-19.08-5.58a1.5,1.5,0,0,0-2.59,1.51,13.35,13.35,0,0,0,7.92,6.31,1.25,1.25,0,0,0,1,.8c16.54,3.18,33.6-1.54,49.08,6.07A49.21,49.21,0,0,1,123.51,94a1.53,1.53,0,0,0,2.42-.42,1.31,1.31,0,0,0,.74-.68,18.5,18.5,0,0,1,5.49-6.78,103.66,103.66,0,0,1,17.59-4.23c2.45,0,5,.18,7.51.34l3,.33c2.59.26,5.2.47,7.79.49a1.69,1.69,0,0,0,1.88,1.71c1.88-.25,3.73-.57,5.57-.94,5.32.8,10.55.52,14.35-4.26C190.64,78.52,189.92,76.49,188.35,77.06Zm-85.18-6.69a1.11,1.11,0,0,0,.16.24l-2.91-.27a1.77,1.77,0,0,0,0-.32C101.3,70.12,102.23,70.24,103.17,70.37Zm21.4,20.12-.81-1a1.63,1.63,0,0,0,.27-.26c.37-.47.73-1,1.08-1.53.1.46.22.92.35,1.41C125.15,89.52,124.85,90,124.57,90.49Z"/><path class="cls-1" d="M107.6,160.3a1.62,1.62,0,0,0-1.07-1.49,1.25,1.25,0,0,0-.49-.58,1.49,1.49,0,0,0-1.15-.14h0l-.22,0-.13,0a2.15,2.15,0,0,0-.34,0l-.16.05-.13,0-.07,0a2.19,2.19,0,0,0-.3.16c-.45.23-.94.45-1.4.68a1.52,1.52,0,0,0-.78,1.29v2.41c0,.82.76,2,1.58,2h.8c.79,0,1.55-.85,2-1.48.06-.11.1-.52.14-.52h.31c.82,0,1.21-.76,1.21-1.57V161C107.33,160.77,107.63,160.55,107.6,160.3Z"/><path class="cls-1" d="M116.49,147.8a1.73,1.73,0,0,0-2,.8c-.16.24-.3.54-.43.78a2.38,2.38,0,0,0-.71-.18,1.5,1.5,0,0,0-1.5,1.5,1.45,1.45,0,0,0,1,1.38l.09.07c.14.14.27.3.4.44a3.19,3.19,0,0,0,1.31.89,2,2,0,0,0,1.94-.55c.2-.2.33-.46.54-.67a5.08,5.08,0,0,0,.58-.72A2.62,2.62,0,0,0,116.49,147.8Z"/><path class="cls-1" d="M124.26,134.14a2.15,2.15,0,0,0-2.42.31A3.87,3.87,0,0,0,121,136l0,0a2,2,0,0,1-.2.38v0a.05.05,0,0,0,0,0l-.1,0a1.2,1.2,0,0,0-.46.37,1.31,1.31,0,0,0-.27,1,1.45,1.45,0,0,0,.19.68,1.37,1.37,0,0,0,1,.69,1.34,1.34,0,0,0,.83-.06l.06,0a3.81,3.81,0,0,0,1.5.54c1.7.15,2.6-2.18,2.6-3.56C126.07,135.35,125,134.49,124.26,134.14Z"/><path class="cls-1" d="M125.37,110.7h-1.52a1.77,1.77,0,0,0-1.6,1.1,1.5,1.5,0,0,0-2,2.26c.36.36.76.76,1.19,1.15,0,.34,0,.67,0,1a1.52,1.52,0,0,0,2.86.65,2,2,0,0,0,.24,0,1.5,1.5,0,0,0,1.5-1.5c0,.29.08-.24.11-.33l.27-.66a6.47,6.47,0,0,0,.42-2.21A1.5,1.5,0,0,0,125.37,110.7Z"/><path class="cls-1" d="M132.49,105a1.49,1.49,0,0,0-1.1-1.45c-1.61-.32-4-.67-4.22,1.59a1.73,1.73,0,0,0,.11.71,1.88,1.88,0,0,0-.2.75,4.32,4.32,0,0,0,2.3,2.3,1.53,1.53,0,0,0,1.47-1.17A2.81,2.81,0,0,0,132.49,105Z"/><path class="cls-1" d="M151.74,97.76a1.5,1.5,0,0,0-1.5-1.5A1.38,1.38,0,0,0,149,97a12.19,12.19,0,0,0-2-1.33,1.52,1.52,0,0,0-2.21.89,4.61,4.61,0,0,0,.54,3.93c.59.76,1.65,1.37,2,2,.8,1.46,2.8.55,2.78-.8a4,4,0,0,0,.52-.11,1.52,1.52,0,0,0,.68-2.49A3.92,3.92,0,0,0,151.74,97.76Z"/><path class="cls-1" d="M167.84,167.05l-2.4-1.6a1.49,1.49,0,0,0-2.05.54,11,11,0,0,0-.95,2.43,1.94,1.94,0,0,0,.55,2.9c.08.06.19.1.28.16a4.61,4.61,0,0,0,1.24.61l.3.1h0l.14.08s0,0,0,0a1.51,1.51,0,0,0,2.79-.88,11.31,11.31,0,0,0,.75-2.68A1.53,1.53,0,0,0,167.84,167.05Z"/><path class="cls-1" d="M183,166.65a5,5,0,0,0-.55-1.14l0-.09a4.61,4.61,0,0,0-.38-1c-.18-.26-.36-.51-.55-.75a2.65,2.65,0,0,0-1.14-.82c-1-.41-2,.56-2.17,1.49,0,.19,0,.39-.09.58a1.41,1.41,0,0,0-.45,1.06,1.5,1.5,0,0,0,1.5,1.5,2,2,0,0,0,.75-.21c.12.3.24.6.38.89a1.53,1.53,0,0,0,2.69.14A2,2,0,0,0,183,166.65Z"/><path class="cls-1" d="M68.42,103.7H67.9c-.1,0-.2-.17-.29-.2a2.36,2.36,0,0,0-.54-1.13,1.5,1.5,0,0,0-2.12,0,1.45,1.45,0,0,0-.27,1.69l0,.11a5,5,0,0,0-.07,1.8c.26,1.76,2.6,2.13,4,2.14a1.71,1.71,0,0,0,1.71-1.5V105C70.33,104.16,69.23,103.7,68.42,103.7Z"/><path class="cls-1" d="M119,185.5c-10.34,5.3-17.44-.93-25.88-6.39-3-1.92-6.66-3.9-10.26-4.24-5.07-.48-9.45,2.86-14.44,3.21-1.92.13-1.93,3.13,0,3,5.65-.4,10.61-4.27,16.32-2.72,4.64,1.26,8.66,4.53,12.56,7.2,7.53,5.15,14.81,6.84,23.21,2.53C122.24,187.21,120.72,184.62,119,185.5Z"/><path class="cls-1" d="M182.37,174.27a45,45,0,0,1-7.34,3.39c-2.07-.07-4.27-.69-7-1a17.9,17.9,0,0,0-11.92,3.13c-2.73,1.82-4.84,4.26-7.44,6.2-1.06.53-2.1,1.09-3.14,1.69l-1.25.72c-5.53,2-11.45.76-16.92-1.45-1.8-.73-2.57,2.17-.8,2.89.74.3,1.48.57,2.22.83a1.53,1.53,0,0,0,.63,1.42c5.28,4,10.49,2.05,15.58-.64a20.35,20.35,0,0,0,5.76-3.14c1-.5,1.93-.95,2.89-1.33,6.78-2.67,13.91-3.85,20.75-6,3.92.38,7-1.42,9.78-4.32A1.51,1.51,0,0,0,182.37,174.27ZM167.56,180c-3.37.9-6.77,1.7-10.14,2.65A14.93,14.93,0,0,1,167.56,180Z"/><path class="cls-2" d="M117.33,119.55v-.14a1.55,1.55,0,0,0-1.94-1.44,16.37,16.37,0,0,0-1.83.41,9.69,9.69,0,0,0-1.27-2.34c.86-.6,1.71-1.2,2.61-1.75a1.39,1.39,0,0,0,.48-2l.06-.1a1.52,1.52,0,0,0-1.7-2.2c-4.37,1.25-8.78,2.54-13.22,3.71a17.14,17.14,0,0,0,1.7-4.41,17.67,17.67,0,0,0,1.34-3.07,1.52,1.52,0,0,0-2.21-1.7c-2.79,1.92-4.79,4.32-7.16,6.36a9,9,0,0,0-.47-3.62c.08-.34.15-.69.21-1a1.65,1.65,0,0,0-1.74-1.89,1.6,1.6,0,0,0-.6-.61c-.15-.19-.29-.26-.45-.45a1.45,1.45,0,0,0-2.4.47h-.27a1.4,1.4,0,0,0-1.44,1,35.85,35.85,0,0,0-1.12,8.13,6.58,6.58,0,0,1-2.41-.34c-.53-1.61-1.91-2.61-4.7-4a1.7,1.7,0,0,0-.45-.15h0a1.07,1.07,0,0,0-.25,0l-.87-.64A1.52,1.52,0,0,0,75,109.38c.33,1.11.6,2.64,1.07,4-.07.46-.13.92-.19,1.39a22.19,22.19,0,0,1-6.25,0,1.49,1.49,0,0,0-1.46.39.92.92,0,0,1-.41.25l-1-.49a1.75,1.75,0,0,0-2.12.62,5.85,5.85,0,0,0-.64,0c-1.3.19-1.44,2.19-.36,2.74a24.65,24.65,0,0,1,4,2.41,1.09,1.09,0,0,0,.23.14l-.51.45a1.77,1.77,0,0,0-1.32,0,20.93,20.93,0,0,1-3,.64c-2.07-.47-3.71-.21-6.29.81a1.71,1.71,0,0,0-1.12,1.31c-.43.09-.86.18-1.29.3a1.51,1.51,0,0,0-.36,2.74c1.71,1,3.86,1,5.81,1a1.67,1.67,0,0,0,1.9.68c-.12.47-.24.94-.37,1.41a1.81,1.81,0,0,0-2.26.47l-2.41,3.21c-1.11,1.48,1.15,2.77,2.36,1.82.13-.11.28-.2.41-.29.1.67.21,1.35.3,2s.57,1.12,1.57,1.06v2.06c0,.25-1,.7-1,1.29v3.21a1.58,1.58,0,0,0,1.8,1.47,37.28,37.28,0,0,1,0,7.76,1.43,1.43,0,0,0,1.08,1.81,1.22,1.22,0,0,0,1.2-.08,16,16,0,0,0,3-1.17,32.12,32.12,0,0,0,5.5,3.57,1.56,1.56,0,0,0,.32,2.35,2.62,2.62,0,0,0,2.14,0c1.28-.24,2.59-.4,3.87-.58a1.35,1.35,0,0,0,1-1c1.47-.37,3-.66,4.46-.9,1.22.67,2.46.71,4.54.45,2.39.69,4.53-.26,4.84-3.15a8.13,8.13,0,0,1,1.23.8,1.37,1.37,0,0,0,2.22.2l.15-.17a1.52,1.52,0,0,0,.3-1.64c1.46-.3,2.28-.55,2.72-1.41a19.48,19.48,0,0,0,1.12,1.62,1.51,1.51,0,0,0,2.56-1.06c0-.17,0-.34-.06-.51a1.34,1.34,0,0,0,.21.2c.35.26,1.94,3.19,3.66.26,1.13-1.93,1.72-4.35,2.64-6.6a1.88,1.88,0,0,0,.88.44h.8A1.66,1.66,0,0,0,114,146c0-2.47,0-5,.15-7.48a30.82,30.82,0,0,0,1.55-7.41,1.42,1.42,0,0,0,.65-.89,30.32,30.32,0,0,0,.83-6.92,7,7,0,0,1,1.23-1.26C119.63,121.15,118.33,119.55,117.33,119.55Zm-21.09-6.37.05.06a1.52,1.52,0,0,0-.77,1.68l-2.25.52A17.89,17.89,0,0,0,96.24,113.18Zm-21.7,4.47c-.3.11-.6.2-.9.32a1.42,1.42,0,0,0-.36.21l-.09-.06-1-.48C73,117.61,73.78,117.63,74.54,117.65ZM91,153.5a8.69,8.69,0,0,1-.51,1.37l-1.36-.65-.18-.08a12.25,12.25,0,0,0-2.53-.88,1.71,1.71,0,0,0-1.23.28c-.79-.13-1.58-.26-2.37-.33a1.48,1.48,0,0,0-1.29,2.22q-.37.1-.72.24l-.58.22a1.37,1.37,0,0,0-.67-1.67l-1.59-.8-.17-.08-1.45-.73a1.5,1.5,0,0,0-1.51,0c-.55-.1-1.1-.19-1.65-.25A1.47,1.47,0,0,0,71.75,154a15.91,15.91,0,0,1-3.07-2,1.56,1.56,0,0,0-1.82-.24l-.39.19c.34-.82.68-1.65,1-2.51.49-1.37-1.14-2.23-2.2-1.66,0-.94-.09-1.89-.13-2.84a1.62,1.62,0,0,0-.11-1.26l-.12-.21a1.42,1.42,0,0,0-.61-.56,2.7,2.7,0,0,0,0-.28V132.25a1.37,1.37,0,0,0-.2-.71c.11-.4.21-.81.31-1.21a1.66,1.66,0,0,0,.23-.23,17.06,17.06,0,0,0,2.55-4.3l.12-.16a1.48,1.48,0,0,0,1.34-.35c1.47-1.37,3.63-2.71,4.71-4.5a1.44,1.44,0,0,0,.64.12c8.72-.12,17.28-1.79,25.73-4,.3.14.6.38.91.5a1.59,1.59,0,0,0,1.44,1.25h.8a1.6,1.6,0,0,0,1.49-1.49,1.57,1.57,0,0,0,.2-.76s0,0,.05-.06a1.46,1.46,0,0,0,1.47,1.33,10.28,10.28,0,0,0,2.38-.23,20.1,20.1,0,0,1,2.61,3.16,1.12,1.12,0,0,0,.16.37,3.74,3.74,0,0,0,1,3.47,1.79,1.79,0,0,0,.62.34A34.42,34.42,0,0,0,111,136.31a5.35,5.35,0,0,0-.17,1.71,1.35,1.35,0,0,0-1.33,1,9.55,9.55,0,0,1-.8,2,1.31,1.31,0,0,0-.83.26c.46-.33.15-.38-.94-.14a1.48,1.48,0,0,0-1.46,1.66,10,10,0,0,0-1.58,3.42l-.57-.22a1.49,1.49,0,0,0-1.85,1.74,1.29,1.29,0,0,0-.57.43l-.13-.18c-.84-1.06-2.57-.14-2.56,1.06q0,1.17,0,2.34a1.52,1.52,0,0,0,.08.45,14.46,14.46,0,0,0-2.28.25.6.6,0,0,0-.08-.08,1.48,1.48,0,0,0-2.13,0l-.58-.29A1.51,1.51,0,0,0,91,153.5Z"/><path class="cls-2" d="M188.64,125a1.52,1.52,0,0,0-1.5-1.5c-1.11-.08-2.2-.25-3.3-.42l0-.14a1.49,1.49,0,0,0-1.74-1l-.06-.11c0-.86.16-1.77.21-2.4a1.34,1.34,0,0,0-.87-1.32c0-.35.06-.61.07-1a1.43,1.43,0,0,0-1.5-1.4h-3.21a1.41,1.41,0,0,0-1.44,1c-.09.41-.17.78-.25,1.19a8.77,8.77,0,0,1-.68.56l-.22-.15,0-.1a8.93,8.93,0,0,1,.4-1.9,7,7,0,0,0,.27-.68,1.48,1.48,0,0,0,.44-1.51c-.51-1.55-2.85-2.52-4.37-2.64-.36,0-.66.22-.92.22h-.48a1.44,1.44,0,0,0-1.29,2.16c.06.1.13.15.19.25s0,.14,0,.22c-.47-.3-.95-.6-1.44-.87a8,8,0,0,1,.67-1.3,1.51,1.51,0,0,0-1.69-2.21,20.44,20.44,0,0,0-4.07,1.87,8.14,8.14,0,0,0-3.16-2.67,1.17,1.17,0,0,0-1,.06l-.36-.1c.22-.32.45-.63.67-1a1.5,1.5,0,0,0-1.69-2.2,15.69,15.69,0,0,0-2.14.78,1.23,1.23,0,0,0-.27,0c-3.61.66-5.52,1.85-6.62,4.45a9.59,9.59,0,0,0-2.11-5.37,1.51,1.51,0,0,0-2.74,1.16s0,.08,0,.12a1.65,1.65,0,0,0-2.22.19c-.93-1.13-3.13-.37-2.62,1.29.21.66.38,1.32.55,2,.22,1,.39,2,.57,3a7.73,7.73,0,0,1-3.68,1.19,1.58,1.58,0,0,0-1.37.91,1.33,1.33,0,0,0-.31.18,2.22,2.22,0,0,0-.72.41c-.69.64-.48,1.73-.76,1.91a1.5,1.5,0,0,0,1.15,2.74c.84-.2,1.63-.33,2.38-.46-.1.24-.21.48-.32.71-.2.44-.44.86-.67,1.28a2.93,2.93,0,0,0-.73-.83,1.52,1.52,0,0,0-2.56,1.06,7,7,0,0,0,.18,1.4,4.53,4.53,0,0,0-.18,1,1.45,1.45,0,0,0,.75,1.29,6.85,6.85,0,0,0,2.2.7c-.15.93-.29,1.68-.46,2.68h-1a1.65,1.65,0,0,0-1.39,1.07,1.61,1.61,0,0,0-.47,2.48c.45.51.89.91,1.33,1.41a1.43,1.43,0,0,0,1.34,2h.65a10.36,10.36,0,0,0-.12,2.75,1.81,1.81,0,0,0-1.6,1.62v1c0,1.45,1.85,1.81,2.7,1.1.8-.24,1.52-.39,2.07-.55a12.18,12.18,0,0,0,2.38,2.32,1.31,1.31,0,0,0-.33.6c-.42,1.58-.35,3.17-.62,4.76a3.67,3.67,0,0,0-.22,1.25,1.51,1.51,0,0,0,2.95.4c.06-.24.11-.47.15-.71a2.38,2.38,0,0,1,1.21.15,2,2,0,0,0,1,0,1.78,1.78,0,0,0-.26,1.28v2.92c0,.82.48,1.19,1.3,1.19h.76a3.8,3.8,0,0,1-.06,1.22v.8c0,1.2,1.81,2.13,2.66,1.06.14-.17.31-.34.44-.52a1.55,1.55,0,0,0,.87-1.22c.41-.64.81-1.29,1.21-1.95.65-1.07,3.62.13,5.24,1-.15.82-.26,1.65-.38,2.48a0,0,0,0,1,0,0,.94.94,0,0,0-.1.23,2.73,2.73,0,0,0-3.31,2.93,1.5,1.5,0,0,0,1.5,1.5,17.4,17.4,0,0,0,1.82-.15,1.34,1.34,0,0,0,1.65-.29l0,0a7.26,7.26,0,0,0,3.17-1.67,2.31,2.31,0,0,0,1.1-1.42,6.81,6.81,0,0,0,.61-1.51,9.05,9.05,0,0,1,1.41.66l-.06.51a1.49,1.49,0,0,0,1.06,1.44c-.09.54-.17,1-.26,1.61-.11.81.77,1.33,1.5,1.33h1.69c.7,0,1.14-.22,1.33-.71,1.29-1.6,2.57-3,3.62-4.59.2,0,.39,0,.58,0a1.54,1.54,0,0,0,1.28-2.16c.13.07.35.16.35.22v2.88a1.51,1.51,0,0,0,2.33,1.2,1.6,1.6,0,0,0,.86.18h1.6a1.48,1.48,0,0,0,1.45-1.84c-.13-.81-.25-1.52-.39-2.22a20.11,20.11,0,0,0,2.29-6.31,1.49,1.49,0,0,0,1.3-1,31.27,31.27,0,0,0,1.66-7.62,1.19,1.19,0,0,0-.26-.85,1.6,1.6,0,0,0,.26-.75c.07-.7.22-1.39.33-2.09a1.39,1.39,0,0,0,.57-1.12v-2.4c0-.05-.06-.09-.06-.13a40.45,40.45,0,0,0-.37-5.39c0-.12-.12-.58-.25-1.19C187.06,128.76,188.56,127.38,188.64,125Zm-42-9.57a1.23,1.23,0,0,0,1.39.63,1.68,1.68,0,0,0,2.44.37,13.5,13.5,0,0,0,2-1.91,1.59,1.59,0,0,0,1.57-.85,4,4,0,0,1,1.24-.85s-.17.07-.15.1a1.42,1.42,0,0,0,1.18.74v1.71c0,.82,1.11,1.3,1.93,1.3h.81a1.43,1.43,0,0,0,1.5-1.4c0-.17,0-.27,0-.44a2,2,0,0,0,.27.22,1.05,1.05,0,0,0,0,.31.15.15,0,0,1,0,.06,1.69,1.69,0,0,0,.45,1h0c.88,1.08,2.14,1.2,3.47,1.24a1.47,1.47,0,0,0,1.46-1.28,16.11,16.11,0,0,1,1.87,1.3s0,.06,0,.09a1.53,1.53,0,0,0,1.1,1.45,24.2,24.2,0,0,1,4.16,2,1.59,1.59,0,0,0,1.36.38,1.45,1.45,0,0,0,2.36.42l1.26-1.26.82.09a7.26,7.26,0,0,0,.23,3.72,1.46,1.46,0,0,0,.2.37c.44,1.71,1.49,2.51,3.36,4.27a32.89,32.89,0,0,1,.4,5.71,1.44,1.44,0,0,0-.81,1.28c-.1,2.43-.46,4.83-.67,7.24a2.62,2.62,0,0,0-.1,1.84,1.42,1.42,0,0,0-.63.59c-.05.09-.17.41-.32.81a1.53,1.53,0,0,0-1.48,1.08,6.41,6.41,0,0,0-.21,3.36,2.16,2.16,0,0,0,.22.49s-.08,0-.12,0h-.32a1.52,1.52,0,0,0-2.62,0h-.27a1.47,1.47,0,0,0-1.36.84c-1.29.22-2.58.42-3.85.75a1.5,1.5,0,0,0-.64,2.5c-.53.09-1,.19-1.44.3L168,156c-.33-.56-.74-1.21-1.2-2.06-.78-1.4-2.67-.63-2.8.76,0,.11,0,.21,0,.32l-.47-.16a1.3,1.3,0,0,0-1.05.12l-.55-.12a1.58,1.58,0,0,0-.84,0,1.93,1.93,0,0,0-.68-.48,6.09,6.09,0,0,0-2.08-.39c-1.62-.73-3.21-1.53-4.86-2.2h0c-3.6-2.17-7.19-4.35-10.62-6.8,0-.11.06-.22.08-.33a1.5,1.5,0,0,0-.69-1.69,7.57,7.57,0,0,1-2.47-2c.19-.21.39-.45.61-.73a1.51,1.51,0,0,0-.54-2.06,7.44,7.44,0,0,0-2.7-1,2.72,2.72,0,0,1,.18-.55c.27-.64-.37-1.35-.88-1.7-.31-.21,0-.44-1-.68v-.5c1-2.43,1.19-5,1.73-7.55a1.5,1.5,0,0,0-.58-1.67,43.4,43.4,0,0,0,2.42-5.08,7.78,7.78,0,0,0,.84-.38,1.55,1.55,0,0,0,.28-2.43,1.46,1.46,0,0,0,.59,0h.81c.81,0,1.91-.48,1.91-1.3V115c0,.68,1.28,1.12,2.3,1.12A1.24,1.24,0,0,0,146.67,115.46Z"/><path class="cls-2" d="M137.46,204.82a1.26,1.26,0,0,0,.62-1.46.64.64,0,0,0,0-.07s0,0,0,0v0a1.76,1.76,0,0,0-.18-.4,15.39,15.39,0,0,0-6.92-7.69,1.28,1.28,0,0,0-.66-.18c-.29-.2-.6-.41-.94-.62a1.51,1.51,0,0,0-2.2,1.69c.07.37.18.69.27,1l-.48-.33a1.3,1.3,0,0,0-1.63.1,2.26,2.26,0,0,1,0-.26,1.54,1.54,0,0,0-1.43-1.87h-1.21c-.3,0-.92-.79-1.69-.63-2.44.48-4.88,1.1-7.31,1.63h-3.32a1.52,1.52,0,0,0-.93.29,1.31,1.31,0,0,0-.7,1.74,1.41,1.41,0,0,0,1.43,1.8h.06c1.44,1.17,2.86.62,5.23-.83a1.39,1.39,0,0,0,1.1-.55l1.74-.36a9.88,9.88,0,0,0-.39,1,12.94,12.94,0,0,0-2,7.24,1.5,1.5,0,0,0,1.5,1.5,9.31,9.31,0,0,0,3.62-1,1.53,1.53,0,0,0,.51-.29,7.87,7.87,0,0,0,3.45-4.83,27.79,27.79,0,0,1,5.3,1.86,1.46,1.46,0,0,0,1,.15l1.38.66a1.73,1.73,0,0,0,.92.13,15.12,15.12,0,0,0,2.64.82h.14a1.49,1.49,0,0,0,1-.2h0Z"/><path class="cls-2" d="M191.64,68.12a23.77,23.77,0,0,0-3.84-4.71A1.51,1.51,0,0,0,185.48,62a1.46,1.46,0,0,0-2,.48,18.54,18.54,0,0,1-9.53,8.14c-1.79.65-1.1,3.41.79,2.89s3.55-1.14,5.3-1.77a1.46,1.46,0,0,0,1.15.17,1.52,1.52,0,0,0,.38,0c1.49,0,4.29.84,5.53-.39a2.28,2.28,0,0,0,.3-.44,1.45,1.45,0,0,0,1.12-.91,1.88,1.88,0,0,0,.67-.48A1.5,1.5,0,0,0,191.64,68.12Z"/><path class="cls-2" d="M67.57,72.4c-.3-.22-.61-.42-.93-.62a1.46,1.46,0,0,0,.8-1.73,1.49,1.49,0,0,0-.13-1.13c-.35-.66-.73-1.3-1.12-1.92-1-1.77-1.81-3.6-2.89-5.3a1.44,1.44,0,0,0-1.64-.64,1.47,1.47,0,0,0-1,0c-1-.16-2.11.71-1.79,1.75a14,14,0,0,0-1.4,2.11,1.44,1.44,0,0,0,.06,1.56,1.59,1.59,0,0,0,.17,1.86c.41.44.78.9,1.13,1.36.11.15.21.29.32.42a19.86,19.86,0,0,0,3.33,3.79l0,0h0a3.5,3.5,0,0,0,.3.24A1.23,1.23,0,0,0,64.56,74c.51.3,1,.61,1.5,1C67.63,76.11,69.13,73.51,67.57,72.4Z"/><path class="cls-2" d="M145,251.13a6.4,6.4,0,0,0-2.1.81l-.15.05a1.59,1.59,0,0,0-2.12-.71l-4.81,2.41a1.27,1.27,0,0,0-.76,1.1l-.47.19a1.42,1.42,0,0,0-1.62-.64,22.94,22.94,0,0,0-3.82.86,1.74,1.74,0,0,0-2.16-.71,11.4,11.4,0,0,0-1,.51,10.49,10.49,0,0,0,0-4.43,1.63,1.63,0,0,0-.11-.31c0-.16.07-.33.11-.49a1.51,1.51,0,0,0-2.74-1.16,18.37,18.37,0,0,0-2,3.84,10.87,10.87,0,0,0-2,4.73,8.64,8.64,0,0,1-1.53,0,24.34,24.34,0,0,0-2.33-1.86c-1.48-1.11-3-2.15-4.56-3.26a1.32,1.32,0,0,0-2.08.78l-1.13-.78c-1.21-.81-3,.84-2.05,2.06a14.45,14.45,0,0,0,5.63,4.3c.62.52,1.23,1.05,1.82,1.61a1.45,1.45,0,0,0,2.3-.3c.27.05.55.1.82.13a22.11,22.11,0,0,1,1.7,1.78,1.32,1.32,0,0,0,2.21-.24,1.56,1.56,0,0,0,1.65.62,11.07,11.07,0,0,0,4.08-1.76,11.84,11.84,0,0,0,1.26.17,1.52,1.52,0,0,0,2.24,1.44,47.42,47.42,0,0,0,6.21-3.38,20.59,20.59,0,0,0,4.52-2.76l1.34-.31a1.29,1.29,0,0,0,1.57,0,8.37,8.37,0,0,1,1.64-1c.38-.13.75-.28,1.13-.43l.08,0h0l.36-.15C147.83,253.15,146.6,250.82,145,251.13Z"/><path class="cls-2" d="M153.4,42.71a24.28,24.28,0,0,0-11.25-3.53c-8.42-4.78-17.45-3.3-25.77,1-4.63-3.29-9.58-2.69-14.61-1A30.55,30.55,0,0,0,92,41.82a15.8,15.8,0,0,0-9.85,3.3,1.52,1.52,0,0,0,.76,2.8h.86A19.89,19.89,0,0,0,96.45,45.3a1.58,1.58,0,0,0,.29-.22,19.17,19.17,0,0,0,6.57-1.23,1.61,1.61,0,0,0,1-1.77c.5,0,1,0,1.51,0-.18.25-.39.48-.58.73a30.78,30.78,0,0,0-4.51,3.37,16.18,16.18,0,0,0-8.53,5.56,1.53,1.53,0,0,0,1,2.56A14.33,14.33,0,0,0,92,56.09a1.51,1.51,0,0,0,1.3,2.25h.91s0,.06,0,.1a1.5,1.5,0,0,0,1.5,1.5h.08a2.31,2.31,0,0,0,1.9.65,3.89,3.89,0,0,0,1.68.51c2.05.1,3.3-1.94,4.08-4a18.88,18.88,0,0,0,3.34-3.05c.69-.67,1.36-1.36,2-2.08a25.93,25.93,0,0,0-.07,10.09A1.47,1.47,0,0,0,110,63.15a19.5,19.5,0,0,0,2.89,7.29,1.52,1.52,0,0,0,2.35.3,17.24,17.24,0,0,0,1.77-2,1.49,1.49,0,0,0,1.31-.29l.18.43a1.51,1.51,0,0,0,2.36.31c4.33-5.42,5.81-13.13,4.49-20.11.23.52.48,1,.76,1.54a12.33,12.33,0,0,0,4.4,5.53,26,26,0,0,0,3.77,2.84,1.53,1.53,0,0,0,2.21-.9c.07-.18.12-.36.18-.54a1.42,1.42,0,0,0,1.42-1.86q-.33-.8-.69-1.56a11.31,11.31,0,0,0-1.58-6.22,10.86,10.86,0,0,0-1.32-2.58c4.89,2.33,10,4.49,15.38,3.38a1.51,1.51,0,0,0,.66-2.5c-.16-.18-.33-.34-.49-.51.87,0,1.75-.06,2.64-.14A1.51,1.51,0,0,0,153.4,42.71Zm-39,24.4A18.32,18.32,0,0,1,112.8,62l.34-.2A16.93,16.93,0,0,0,115,66.36C114.79,66.62,114.59,66.86,114.41,67.11Z"/><path class="cls-3" d="M75.24,88.29a73.41,73.41,0,0,1-25.68.8,1.76,1.76,0,0,0-.51,0s0,0,0,0a1.4,1.4,0,0,0-1.5-1.37H46a1.4,1.4,0,0,0-1.45,1c-.33,1.26-.55,2.48-.76,3.77a1.4,1.4,0,0,0-.38,2.36c-.14.87-.29,1.71-.46,2.57a1.52,1.52,0,0,0,1.67,1.87c0,.31-.09.61-.12.93-.17,1.69,2.58,2,2.94.39A7.42,7.42,0,0,1,48,99.11c3.68-.43,7.32-1,10.94-1.71a23.24,23.24,0,0,0,3.49-.61,1.42,1.42,0,0,0,.54-.25c2.78-.64,5.54-1.35,8.28-2.15a1.47,1.47,0,0,0,.75-.5c.28-.09.56-.18.86-.3a1.61,1.61,0,0,0,1-1.78c.74-.19,1.48-.4,2.23-.63A1.5,1.5,0,0,0,75.24,88.29Z"/><path class="cls-3" d="M202.28,89.73a1.5,1.5,0,0,0-3,0c0,.89-.12,1.77-.21,2.65a20.09,20.09,0,0,0-1.81-4.21,1.51,1.51,0,0,0-2.74,1.16l0,.09a1.49,1.49,0,0,0-2.21.26,5.61,5.61,0,0,0-.58,0l-.65-.44a1.48,1.48,0,0,0-1.82.24,9.19,9.19,0,0,0-.77,1,5.79,5.79,0,0,0-.87.65c-1.51-.2-3-.41-4.52-.52a1.23,1.23,0,0,0-.76.21L179,90.48a49.27,49.27,0,0,0-8.68-.64h-.16c-1.42-.28-2.83-.55-4.26-.76-1.89-.28-2.71,2.61-.8,2.89,6.59,1,13,3,19.65,3.26h.12a1.54,1.54,0,0,0,1.89,1.56c.52-.1,1-.23,1.42-.36a6,6,0,0,0,2.27,2.14,4.93,4.93,0,0,0,1.49.57,21.72,21.72,0,0,0,1.15,3.6,1.68,1.68,0,0,0,1.29,1h.8a1.74,1.74,0,0,0,1.3-1c.15-.3.29-.71.42-1a1.58,1.58,0,0,0,1.39-1.51V100a1.53,1.53,0,0,0,.87-.19,1.3,1.3,0,0,0,1.1.17c.64,1.25,2.91,1,2.84-.65C202.94,96.14,202.42,93,202.28,89.73Z"/><path class="cls-3" d="M159.56,55.28a6.34,6.34,0,0,0-2.32-2.44,3.68,3.68,0,0,0-1.63-2.62c-1.51-.9-3.15.12-4,1.39a3.74,3.74,0,0,0,.17,4.48c1.5,1.81,4.41,1.72,6.49,1.45A1.52,1.52,0,0,0,159.56,55.28Z"/><path class="cls-3" d="M85.11,55.64a14.1,14.1,0,0,1-.75-2.81,1.52,1.52,0,0,0-2.56-1.06c-.4.4-.81.78-1.22,1.17h-.13c-.83.07-1.83.63-1.87,1.46-.22.1-.25.18-.25.14h0c-1,.15-1.94,2.06-.49,2.79,1.07.53,2.26,1.07,3.33,1.6a1.54,1.54,0,0,0,2.28-1.42l.18,0A1.53,1.53,0,0,0,85.11,55.64Z"/><path class="cls-3" d="M83.24,97.91l-3.2-.8c-1.19-.3-2.47,1.07-1.69,2.2a7.46,7.46,0,0,0,1,1.18,6.09,6.09,0,0,0,.72,1.12,2.89,2.89,0,0,0,3.54.65,1.46,1.46,0,0,0,.73-1.3v-1.6A1.49,1.49,0,0,0,83.24,97.91Z"/><path class="cls-3" d="M68.26,165.54c0-.08-.06-.18-.09-.28a1.74,1.74,0,0,0-.81-2.68A24.78,24.78,0,0,0,64,161.29a1.51,1.51,0,0,0-1.88,1.62c-.74,1-.13,2.43,1.26,2.92l.44.13c.6,1,1.16,2.08,1.7,3.14a1.5,1.5,0,0,0,2.79-.75,13.13,13.13,0,0,0-.15-1.66A1.32,1.32,0,0,0,68.26,165.54Z"/><path class="cls-3" d="M95.55,163.58a1.32,1.32,0,0,0-1.33-1.88H91.68c-.82,0-1.35.21-1.35,1v.72a10.39,10.39,0,0,0-.1,1.68,4,4,0,0,0,0,1.21,2.45,2.45,0,0,0,1.37,1.33,3.81,3.81,0,0,0,.31.56,2.92,2.92,0,0,0,.29.46,1.49,1.49,0,0,0,2.12,0,1.6,1.6,0,0,0,.3-.42.57.57,0,0,0,.13-.08c1-.7.94-1.7.48-2.75C95.39,164.79,95.49,164.24,95.55,163.58Z"/><path class="cls-3" d="M165.48,97.06a2.22,2.22,0,0,0-.39.11.13.13,0,0,0,0-.06c-1,.17-2.78.12-3.55,1a2.1,2.1,0,0,0-.47,1l-.11.22-.11.15c-.14.16-.28.31-.43.46a1.52,1.52,0,0,0,.3,2.36,7,7,0,0,0,1.21.45,5.07,5.07,0,0,0,2.76.56,1.52,1.52,0,0,0,1.5-1.5c0-.46,0-.92,0-1.37a2.47,2.47,0,0,1,.07-.48s0,0,0-.07C167.45,99.19,167,96.86,165.48,97.06Z"/><path class="cls-3" d="M153.45,164.7h-2.38a1.88,1.88,0,0,0-1.75,1.34,3.26,3.26,0,0,0-2.13,4.38,1.52,1.52,0,0,0,2.2.86c.88-.43,1.91-.64,2.75-1.14a9,9,0,0,0,2.6-3.3A1.42,1.42,0,0,0,153.45,164.7Z"/><path class="cls-3" d="M110,182.79a1.5,1.5,0,0,0-1.5-1.5,1.19,1.19,0,0,0-.26.05l-.85-1.72c-.55-1.08-2.57-.93-2.75.36-.22,1.6-.62,4.35,1.19,5.05l.07.06a2.66,2.66,0,0,0,2.19-.06,1.53,1.53,0,0,0,1-.87A1.48,1.48,0,0,0,110,182.79Z"/><path class="cls-3" d="M140.87,181.73a3.41,3.41,0,0,0-1.32-.71c0-.08.07-.25.1-.33a1.58,1.58,0,0,0-1.44-2H136.6a1.59,1.59,0,0,0-1.31.89,1.62,1.62,0,0,0-1.59,2.31,3.73,3.73,0,0,0,2,1.86,2.36,2.36,0,0,0,1.41,0,6.58,6.58,0,0,0,1.09.08c.08,0,.68.08.54,0a1.53,1.53,0,0,0,2.12,0A1.49,1.49,0,0,0,140.87,181.73Z"/><path class="cls-3" d="M82.46,200.88c0-.18.07-.36.11-.54a1.32,1.32,0,0,0,.18-.71,2,2,0,0,0-.06-.48,1.52,1.52,0,0,0-1.45-1.1v-.22a4.07,4.07,0,0,0-.5-.13h-.28c-.46,0-.89.45-1.18.8a1.59,1.59,0,0,0-2.73,1c0,1-.47,1.94-.52,2.92a5.45,5.45,0,0,0,1.77,3.84,1.5,1.5,0,0,0,2.5-.65c0-.18.07-.35.11-.53a2.24,2.24,0,0,0,.52-.06,1.39,1.39,0,0,0,1.83-1.4,8.63,8.63,0,0,0-.42-2.08C82.37,201.33,82.41,201.11,82.46,200.88Z"/><path class="cls-3" d="M83.66,212.57h0a2.19,2.19,0,0,0-.14-.56c.51-.64,1-1.3,1.46-2,.9-1.34-.8-2.69-2-2.06-.43.22-.86.45-1.28.69A1.53,1.53,0,0,0,81,209v0l-.16.08c-.19.11-.4.2-.6.3a5.26,5.26,0,0,0-1.25.91,2.72,2.72,0,0,0-.4.51c-.16.12-.31.24-.48.35a1.67,1.67,0,0,0,0,2.76c0,.18.06.36.1.54a1.51,1.51,0,0,0,2.51.66l.33-.34a4.45,4.45,0,0,0,2.62.78C85.6,215.64,85.59,212.64,83.66,212.57Z"/><path class="cls-3" d="M91.69,216c.23.19.24.11,0,0Z"/><path class="cls-3" d="M94.84,218.39a16.53,16.53,0,0,1-2.36-1.08,1.36,1.36,0,0,0,0-.29,1.56,1.56,0,0,0-1.1-1.17,1.35,1.35,0,0,1,.34.11l-.15-.14-.4-.4c-1-1-3.06,0-2.51,1.46a8.22,8.22,0,0,0,.45,1c-.18.25-.38.49-.58.73,0,.06-.17.11-.17.17v-1.5a1.25,1.25,0,0,0-1.18-1.42,1.44,1.44,0,0,0-1.79,1.42c0,.45-.58,1.43-.66,2.12a5.35,5.35,0,0,0,.85,3.45,1.5,1.5,0,0,0,2.78-.76v0a2.51,2.51,0,0,0,1.16-.26,6.83,6.83,0,0,0,1.69-1.74c.69.36,1.44.6,2.15.93C95.06,221.8,96.59,219.22,94.84,218.39Z"/><path class="cls-3" d="M169.65,203.24c-1.82,7.36-7.11,13.53-11.65,19.4h0l-.24.3,0,.06c-3,2.07-6.1,4-9.28,5.77a1.39,1.39,0,0,0-1-.1,74.29,74.29,0,0,1-9.28,1.77,87.43,87.43,0,0,0-17.78.43q-2.8-.18-5.61-.51a1.33,1.33,0,0,0-.88-.11l-.06-.09a1.56,1.56,0,0,0-2.38-.23c-2.1-.29-4.19-.64-6.29-1a1.63,1.63,0,0,0-1-1c-.27-.36-.59-.76-1-1.24a1.51,1.51,0,0,0-2.56,1.06,3.31,3.31,0,0,0,0,.33l-.76-.16a3.2,3.2,0,0,1,.21-1,1.33,1.33,0,0,0-.77-2v-.36A1.42,1.42,0,0,0,98,223a4,4,0,0,1-2.08-1.17,1.49,1.49,0,0,0-2.48,1.36,5,5,0,0,0-.93-.19c-1.93-.2-1.9,2.81,0,3a14.45,14.45,0,0,1,2.15.82c.18.07-.3.12.7.19v.06a1.52,1.52,0,0,0,0,2.89l.21.07a1.26,1.26,0,0,0,1.56.73l.22-.09,2,.63c1.14,1.85,1.59,3.18,4.46,3.52a1.12,1.12,0,0,0,.82-.22l0,0a1.59,1.59,0,0,0,2.24-.92,19.74,19.74,0,0,0,3.76.13c.66.09,1.15.18,1.81.26,0,.07,0,.14,0,.22v1.42c0,.11.17.21.19.31a4.31,4.31,0,0,0,1.29,3.16,1.82,1.82,0,0,0,2.62-.31,10.43,10.43,0,0,1,3.9-3.52v2c0,.82.21,1.37,1,1.37h3.21c.82,0,1.76-.55,1.76-1.37v-.56c0-.17,1.12-.3,1.72-.33l1.5.19c2,1,4.38,2.05,6.14.46a1.72,1.72,0,0,0,.57-1.13,13.26,13.26,0,0,0,3.5-1.27c.63-.13,1.28-.29,2-.48-.72,1.4,1.07,3.06,2.34,1.78l3-3c.73-.31,1.45-.62,2.16-1,.52-.13,1-.28,1.54-.45a1.67,1.67,0,0,0,.63,0h0a1.25,1.25,0,0,0,.4.05c1.48,0,3.24,0,4.26-1.24a1.51,1.51,0,0,0,.32-1.6,14.88,14.88,0,0,0,2.53-2.36,31.59,31.59,0,0,0,6.55-5.62c.85-.73,1.68-1.48,2.5-2.26a1.14,1.14,0,0,0,.22-.22c.79-.77,1.64-1.56,2.39-2.38a1.42,1.42,0,0,0-.29-2.37v-.29c0-.11-.11-.22-.13-.32a70.83,70.83,0,0,0,2.38-8.91C172.94,202.16,170.12,201.35,169.65,203.24Z"/><path class="cls-4" d="M78.74,224.5a1.48,1.48,0,0,0-1-1.38c0-.13,0-.26,0-.39s0-.36,0-.55a1.27,1.27,0,0,0,.21-1.29c-.29-.84-.7-1.76-1.75-1.76a1.66,1.66,0,0,0-1.55,1.9,1.43,1.43,0,0,0-.45,1.06,4.79,4.79,0,0,0,.77,2.61c0,.2,0,.4,0,.6a1.52,1.52,0,0,0,2.89.58A1.54,1.54,0,0,0,78.74,224.5Z"/><path class="cls-4" d="M86.07,227a3.67,3.67,0,0,0-1.74.42,1.5,1.5,0,0,0-3,.28c0,1.52.65,3.23,2.2,3.76.12,0,.25.06.37.09a1.46,1.46,0,0,0,1.33.86,1.5,1.5,0,0,0,1.5-1.5,2.9,2.9,0,0,0-.15-.83l.52-.52A1.51,1.51,0,0,0,86.07,227Z"/><path class="cls-4" d="M95.53,235.57a1.33,1.33,0,0,0-1.44-.87H92.48A1.34,1.34,0,0,0,91,236a7.86,7.86,0,0,0,.25,1.59,1.24,1.24,0,0,0,.42,1.88,8.72,8.72,0,0,1,.14,1.13c.06,1.93,3.06,1.92,3,0a5.05,5.05,0,0,0-.08-.68C96.45,239.18,96.08,237,95.53,235.57Z"/><path class="cls-4" d="M108.22,243c-.27-.54-.54-1.05-.8-1.58a1.47,1.47,0,0,0-1.3-.72h-2.41a1.47,1.47,0,0,0-1.44,1.08,6,6,0,0,0,0,2.64,1.42,1.42,0,0,0,1.2,1.62,2.76,2.76,0,0,0,.63.25,4.12,4.12,0,0,0,2.77-.44,1.29,1.29,0,0,0,.6-.66,3.14,3.14,0,0,0,.5-.38A1.51,1.51,0,0,0,108.22,243Z"/><path class="cls-4" d="M120,246.7a4.21,4.21,0,0,0-.56-.41s0-.1.05-.15a1.85,1.85,0,0,0-.41-2.31,12.48,12.48,0,0,0-1.79-1.37,1.51,1.51,0,0,0-2.21.89,6.58,6.58,0,0,0-.18,1.57,1.33,1.33,0,0,0-.67,1.24,2.24,2.24,0,0,0,2.45,2c.14.08.27.17.41.24l.51.26.28.16h0C119.32,250.13,121.43,248,120,246.7Z"/><path class="cls-4" d="M133.29,243a1.43,1.43,0,0,0-.95-1.35,1.4,1.4,0,0,0-1.35-.9h-1.61a1.49,1.49,0,0,0-1.5,1.47,10.94,10.94,0,0,0,.41,2.2v0a1.4,1.4,0,0,0,0,2,3.79,3.79,0,0,0,.58.46,1.61,1.61,0,0,0,2.2.48C133,246.91,133.27,244.63,133.29,243Z"/><path class="cls-4" d="M147.68,237.77a1.5,1.5,0,0,0-1.45-1.07h-2.41a1.46,1.46,0,0,0-1.29.71,5.55,5.55,0,0,0-.55,4.08c.21.71,1.12,1.88,1.15,2.27.1,1.92,3.1,1.93,3,0a4,4,0,0,0-.37-1.44,2.15,2.15,0,0,0,1,0C148.76,241.59,148.15,239.26,147.68,237.77Z"/><path class="cls-4" d="M160.24,235.62c0-.15.09-.29.14-.44a4.73,4.73,0,0,0,.19-1.05,1.5,1.5,0,0,0-1.5-1.5,4.32,4.32,0,0,0-3.59,1.64,1.77,1.77,0,0,0-.51.19,1.44,1.44,0,0,0-.74,1.29,1.82,1.82,0,0,0,.21.67,3.64,3.64,0,0,1-.45.66c-1.33,1.4.79,3.52,2.12,2.12a6.12,6.12,0,0,0,1-1.46,10.09,10.09,0,0,0,2,.29,1.48,1.48,0,0,0,1.15-2.4Z"/><path class="cls-4" d="M165.73,230a2.62,2.62,0,0,0-1.85-.58,1.5,1.5,0,0,0-1.5,1.5,2.28,2.28,0,0,0,0,.26l-.08,0a1.51,1.51,0,0,0-.54,2.05,1.53,1.53,0,0,0,2.05.54c.89-.45,2-1.06,2.35-2.1A1.72,1.72,0,0,0,165.73,230Z"/><path class="cls-4" d="M172.22,224.77c-.61-1.17-2.44-1-3.53-1a1.52,1.52,0,0,0-.66,2.86,1.38,1.38,0,0,0,.17,1,1.49,1.49,0,0,0,2.05.54C171.39,227.44,173,226.38,172.22,224.77Z"/><path class="cls-4" d="M80.58,165.09a15.85,15.85,0,0,0-2.94-1.4,1.5,1.5,0,0,0-1.81,1,1.32,1.32,0,0,0-.68,2c.11.16.23.31.35.46A19.67,19.67,0,0,1,75,172a1.51,1.51,0,0,0,2.21,1.69,5.48,5.48,0,0,0,1.46-1.21,8.19,8.19,0,0,0,.58-.83,1.11,1.11,0,0,1,.2-.26c1.36-.41,1-2.3-.15-2.76a3.78,3.78,0,0,0,1-.46A1.64,1.64,0,0,0,80.58,165.09Z"/><path class="cls-4" d="M56.1,110c-1.52-.37-3.32-.31-3.94,1.39a4,4,0,0,0-.19,1.32c0,.11,0,.21,0,.32a1.49,1.49,0,0,0,2.29,1.88,2.45,2.45,0,0,0,.31-.43,7.23,7.23,0,0,0,1.16.07,1.63,1.63,0,0,0,1.62-1.5v-1.61A1.61,1.61,0,0,0,56.1,110Z"/><path class="cls-4" d="M100.4,97.08a1.41,1.41,0,0,0-1.5-1.38H95.69a1.41,1.41,0,0,0-1.5,1.38,8,8,0,0,0,.83,3.46,2.07,2.07,0,0,0,3.34.71,1.33,1.33,0,0,0,.4-.71,2.35,2.35,0,0,0,1.44-1.16A5,5,0,0,0,100.4,97.08Z"/><path class="cls-4" d="M112.91,103.26c0-.12.08-.4.09-.47a3.1,3.1,0,0,0,.22-1.12c-.19-1.57-1.69-2.24-3-2.77a1.67,1.67,0,0,0-1.65,0l-.13.1a1.25,1.25,0,0,0-.19.15,3.58,3.58,0,0,0-1.42,2,3.46,3.46,0,0,0,.37,2.25,5.23,5.23,0,0,0,.41.69l.24.37a.15.15,0,0,0,0,.06,1.46,1.46,0,0,0,1.44,1.18,1.51,1.51,0,0,0,.81-.25,3.32,3.32,0,0,0,1.6.25,1.52,1.52,0,0,0,1.5-1.5A1.39,1.39,0,0,0,112.91,103.26Z"/><path class="cls-4" d="M138,155.62a2.16,2.16,0,0,0-1.79.9,1.38,1.38,0,0,0-1.54.34,2.44,2.44,0,0,0,.27,3.48,3.14,3.14,0,0,0,1.1.66,1.49,1.49,0,0,0,.58.62,1.51,1.51,0,0,0,2.06-.54,1.46,1.46,0,0,0,.07-.19c.07,0-.06,0,0-.07.47-.21.56-.81.56-1.3v-2.4A1.35,1.35,0,0,0,138,155.62Z"/><path class="cls-4" d="M178.81,107.43c-.05-.07-.11-.13-.17-.2.06-.28.1-.56.14-.8a14.2,14.2,0,0,0,.24-2.26,1.52,1.52,0,0,0-1.5-1.5,13.47,13.47,0,0,0-3.53.25,1.82,1.82,0,0,0-1.21,2.62,5.27,5.27,0,0,0,1.44,1.46c.43.36.9.77,1.32,1.19a0,0,0,0,0,0,0,1.79,1.79,0,0,0,.4.42,3.74,3.74,0,0,1,.27.31,1.54,1.54,0,0,0,2.05.54A1.5,1.5,0,0,0,178.81,107.43Z"/><path class="cls-4" d="M187.14,108.7h-2.41a1.35,1.35,0,0,0-1.44.9,3.73,3.73,0,0,0,.19,3.13c.44.78,1.2,1.2,1.56,1.88.92,1.7,3.51.16,2.59-1.54a.11.11,0,0,0,0,0,1.26,1.26,0,0,0,.58-.91c.05-.33.07-.44.07-.44.09-.5.21-.78.33-1.27A1.36,1.36,0,0,0,187.14,108.7Z"/><path class="cls-4" d="M194.5,118.24a6.07,6.07,0,0,0-1.13-.89,2,2,0,0,0-2.7.54,3.51,3.51,0,0,0-.16,2.72,0,0,0,0,0,0,0,1.47,1.47,0,0,0,0,.78,3.22,3.22,0,0,0,1.16,1.88,1.76,1.76,0,0,0,2.23-.32,5.13,5.13,0,0,0,.94-2.3C195,119.79,195.23,119,194.5,118.24Z"/><path class="cls-4" d="M90.62,193a13.05,13.05,0,0,0-1,1.21,1.36,1.36,0,0,0-.82.69c-.91,1.71-2.29,3.11-3.21,4.82a1.51,1.51,0,0,0,2.36,1.81,14.75,14.75,0,0,0,1.56-2,1.29,1.29,0,0,0,1.08-.75c.72-1.38,1.68-2.62,2.41-4S91.84,191.68,90.62,193Z"/><path class="cls-4" d="M113.82,212.78a4.48,4.48,0,0,0-2.49,1.07v-3a1.43,1.43,0,1,0-2.85,0c0,.1.11.2.11.29a1.44,1.44,0,0,0-2.26,1.21v.11c0,.05,0,.1,0,.15-.13-.46,0,.24,0,.45a16.52,16.52,0,0,0,.28,1.83,7.31,7.31,0,0,0,1.68,3.44,1.31,1.31,0,0,0,1.42.33,1.53,1.53,0,0,0,.43,0h.8a1.47,1.47,0,0,0,1.3-.7,8.51,8.51,0,0,1,.59-1,1.33,1.33,0,0,0,1.58-.31,3.87,3.87,0,0,0,1.23-2.3C115.76,213.46,114.65,212.81,113.82,212.78Z"/><path class="cls-4" d="M138.11,212a1.74,1.74,0,0,0-2,.4,1.58,1.58,0,0,0-2.79.9v6.42a1.4,1.4,0,0,0,1,1.37c0,.06.11.12.14.19a1.53,1.53,0,0,0,2.77-.36c.12-.48.26-.94.4-1.4a2.2,2.2,0,0,0,1.42-1.05c.95-1.42.63-2.93,1.25-4.41S139.1,211.15,138.11,212Z"/><path class="cls-4" d="M157.51,208.39a3.52,3.52,0,0,0-2.18-1.12v-1.22a1.39,1.39,0,0,0-2.75-.35,1.44,1.44,0,0,0-2.34,1.15,22.18,22.18,0,0,0,.91,6.82,1.53,1.53,0,0,0,2.92,0c.29-1.12.72-2,1.1-3.08,0,0,.1.11.14.11h.29C157.07,211.7,159,209.63,157.51,208.39Z"/><path class="cls-4" d="M159.83,200a1.55,1.55,0,0,0,.68-1.58c-.12-.69-1.1-1.4-1.48-2,0-.29-.06-.58-.07-.86a1.51,1.51,0,0,0-3-.4,2.84,2.84,0,0,0,.12,2.3c.05.32.11.64.18,1a13.72,13.72,0,0,0,.66,4.39,1.55,1.55,0,0,0,1.29.82h.81a1.58,1.58,0,0,0,1.29-2.34C160.17,201,160,200.45,159.83,200Z"/><path class="cls-5" d="M191.13,145.9c4.18-12.61,10.44-24.67,12.18-38,1.54-11.72-1.79-23.32-7.31-33.57a71.46,71.46,0,0,0-24-25.91c-10.65-6.87-24.16-9.2-36.53-10.74-25.11-3.11-52.75.66-71.76,18.51a72,72,0,0,0-18.6,28.94C41.49,96,42.79,106.4,46,117.21c2.86,9.76,7.5,18.9,10.33,28.65,1.62,5.57-1.12,10.49-3.1,15.66-2.11,5.55-2.88,10.72-.22,16.18,1.75,3.57,5.07,5.63,8.68,6.89A34.2,34.2,0,0,0,68,185.87c3.95.56,4.52,6.2,5.09,9.5,2,11.4-4.49,22.84-1.4,34.06,2.69,9.81,14.23,14.66,22.32,19s14.66,11.74,23.79,13.42c4.51.83,10.12.37,14.67-.07A15,15,0,0,0,141,257.8c8.09-7.22,18.62-10.73,26.79-17.8,6.38-5.52,9.15-11.92,9.92-20.25,1-10.81-.45-21.74,3.6-32.09.73-1.87,6.77-3.25,8.59-4.41a15.25,15.25,0,0,0,6-7.84c1.5-4.8.5-9.09-1.08-13.74a63.19,63.19,0,0,1-3.71-15.94c-.07-.8-2-.35-1.94.52.54,6.79,2.72,12.51,4.7,19,2.74,8.95-1.69,16.82-10.44,19.69-.77.25-2.87.23-3.29,1.18a42.36,42.36,0,0,0-2.56,7.51c-1.6,6.61-1.37,13.61-1.52,20.35-.13,6-.47,12.08-3.12,17.57-2.93,6.08-9.08,10.06-14.66,13.42-4.8,2.9-9.85,5.39-14.46,8.6-4.35,3-6.69,6.49-12.45,7s-12.89.7-18.24-1.72c-4.33-2-7.83-5.58-11.8-8.16C91.91,244.57,79,241.13,74,230c-2.2-4.94-1-10.87-.19-16,1-5.89,1.87-11.67,1.39-17.66-.28-3.5-1-11.17-5.22-11.67-7.32-.85-13.39-2.84-16.26-10.21-2.56-6.58,1.92-14.11,4.08-20.17,1.45-4.07,1.13-6.72-.12-10.74-3.12-10-7.75-19.47-10.58-29.61-3.52-12.59-2.78-23.69,2.66-35.57A70.69,70.69,0,0,1,75.86,48.52C89.25,40,106.69,38,122.24,38.16c14.74.16,31.27,2.5,44.55,9.2C189.84,59,205.44,87.1,200.64,112.65c-2.17,11.56-7.78,22.32-11.45,33.43C188.91,146.9,190.88,146.67,191.13,145.9Z"/><path class="cls-5" d="M124.2,147.09c1.3-.54,1.42-.76,1.93-.25a13.9,13.9,0,0,1,2.85,5.43c1.32,3.73,1.71,7.76,2.71,11.57.75,2.92,2.31,5.57,3.19,8.46.94,3.07.6,6.94-4.77,6.69a15.11,15.11,0,0,1-5.42-1.74,1.25,1.25,0,0,0-.91-.07c-3.39.9-4.85,3.16-9.38.73-4.2-2.25-1.77-8-.1-11a45.07,45.07,0,0,0,3.76-7.71c1.46-4.28,2.75-9.18,6.35-12.2,1-.84-.56-1.36-1.25-.78-3.34,2.8-4.86,6.73-6.23,10.77-1.64,4.8-4.47,8.78-6.16,13.46-1.2,3.31-.66,6.38,2.13,8.55a7.59,7.59,0,0,0,4.45,1.39,56.2,56.2,0,0,0,6-2c4.4,2.15,15,3.38,13.83-4.69-.67-4.44-3.15-8.37-4.15-12.75-1.26-5.52-1.77-11.6-6-15.79a1.16,1.16,0,0,0-1.3-.1l-2.39,1C122.15,146.58,123.25,147.49,124.2,147.09Z"/><path class="cls-5" d="M66.2,135c.9-3.74,2-7.31,4.53-10.3,3.77-4.5,10.24-5.47,15.7-6.06,7.39-.79,24.91-4.36,24.95,7.37.05,12.23-8,21.15-19,25.11-6.38,2.28-13.89,3-20-.43-5.6-3.09-7.33-9.83-6.18-15.69.17-.9-1.8-.62-2,.17A15.66,15.66,0,0,0,69.81,151c5.06,4.11,12.53,3.65,18.49,2.5,14.2-2.72,24.35-13.06,25-27.7.58-12.47-18-9.46-25.4-8.64-6.16.69-12.34,1.53-17.3,5.56-3.78,3.08-5.28,7.87-6.38,12.42C64,136.06,66,135.79,66.2,135Z"/><path class="cls-5" d="M144.78,228c-15.73,3.37-32.89,4.24-46.74-5.69C86.44,214,81.48,199,77.54,186l-1.31.92c5.08.8,10.41,1.57,14.88,4.28,4.24,2.57,4.6,6.83,5.44,11.19.87,4.54,6,6.89,9.85,8.2,12.15,4.11,27.77,3.06,39.81-.93,2.95-1,7.78-2.76,8.73-6.17s.66-7,2.48-10.35c2.39-4.35,9.48-4.39,13.72-4.9,2.21-.26,3.67-1.31,2.93,1.15-.51,1.74-1,3.47-1.55,5.19a100.37,100.37,0,0,1-4.82,12.78c-4.59,9.91-12,18.06-22.92,20.67-1.2.29-.86,1.49.32,1.21,20.1-4.82,26.2-24.8,31.61-42.27.14-.46-.59-.6-.88-.56-5.32.66-12,.55-16.83,3.34-4.31,2.52-5.11,7.24-5.7,11.85-1.13,8.88-17.8,9.43-24.5,9.84-8.71.54-23.41.79-29.26-7.17-1.28-1.73-1.22-3.88-1.54-5.91a12.5,12.5,0,0,0-3.74-7c-4.34-4.21-11.69-4.9-17.34-5.8-.43-.07-1.5.29-1.31.91,4.25,14.08,9.62,28.77,22,37.68,6.22,4.46,15.53,6.7,23.06,7.61,8.15,1,16.47-.87,24.39-2.57C146.31,229,146,227.76,144.78,228Z"/><path class="cls-5" d="M171.11,152.69c-11.81,2.1-25.49-2.91-30.53-14.28a34.19,34.19,0,0,1-2.8-13.11c-.09-6.09,6-7.9,11.11-8.46,9.63-1,23.48,1,29.33,9.62,6.28,9.22,4.71,23.25-7.37,26.28-1.19.29-.86,1.5.32,1.2,12.88-3.22,14.91-15.81,9.77-26.62-5.31-11.17-22.47-12.8-33.18-11.64-3.7.41-10.3,2.16-11.44,6.47-1.23,4.7,0,9.9,1.44,14.41,4.27,13.59,19.82,19.8,33.15,17.43C171.91,153.81,172.42,152.46,171.11,152.69Z"/><path class="cls-5" d="M90.14,190.43c-1.46,3.62-3.87,6.73-6.07,9.92-.2.3.06.49.32.58,5.38,1.87,9.26-.09,10.69-5.65l-1.94.23c-.87,3.8-.73,9.1-3.94,11.8-.13.12-.3.41-.11.57a10,10,0,0,0,5.56,2.24c.44,0,1.21-.21,1.34-.69.28-1.06.75-2,1-3l-1.94.23q0,6.06-.08,12.12c0,.34.29.46.6.46l7.07.05c.35,0,1.33-.18,1.34-.69a34.29,34.29,0,0,1,1.07-9.08l-1.93.37a35.47,35.47,0,0,1,.94,10,.4.4,0,0,0,.38.43c5.32.92,11.35-.1,9.68-6.81-.17-.67-1.93-.24-1.94.37l-.06,9.09c0,.36.29.43.6.46,6.92.67,10.08-2,11.5-8.7.16-.77-1.79-.46-1.94.23-.48,2.26-.92,4.55-2.55,6.3-4.27,4.59-5.67.46-5.65-2.15,0-1.82,0-3.64,0-5.46l-1.93.38c1.08,4.34-6,8.17-6.2,2.24a28,28,0,0,0-.94-6.87c-.2-.73-1.78-.18-1.93.37a34.43,34.43,0,0,0-1.08,9.09l1.34-.68c-1.42,0-6.48.88-6.46-1.33,0-3.46,0-6.93.07-10.39,0-.87-1.77-.41-1.94.23-.27,1-.75,2-1,3l1.34-.68c-6.21-.77-3.18-2.37-2.12-5.1s1.17-5.79,1.81-8.6c.17-.77-1.77-.44-1.94.23-.76,2.94-1.7,5.77-6.25,4.79-1.21-.26,1.43-3.41,1.56-3.59a34.25,34.25,0,0,0,3.63-6.5c.27-.66-1.67-.44-1.94.22Z"/><path class="cls-5" d="M124.33,215.07c0,2.39-1.3,7.75,1.19,8.93a5.22,5.22,0,0,0,4.34.46c3.88-1.52,3.72-7.37,4.49-10.75l-1.93.4q0,3,0,6.07c0,.14.28.18.36.2,7.83,1.69,9.66-2.65,9.72-9.76,0-.52-1.8-.06-1.92.4-1.87,6.68,3.21,8.14,8.84,7.44.35,0,1.11-.25,1.12-.71l.06-9.09c0-.51-1.82-.08-1.93.4-.76,3.35-.06,7.27,4.2,6.13,6.61-1.77,4.67-9.54,5.86-14.45.15-.58-1.78-.28-1.91.29-.71,2.9-.44,5.79-.75,8.75-.15,1.39-3.2,7-5.51,3.43-.82-1.26-.27-3.11,0-4.44l-1.92.4-.06,9.1c.37-.24.74-.48,1.12-.71-5.37.67-8.78-1.27-7.23-6.82l-1.93.4a22.21,22.21,0,0,1-.72,6.75c-.7,2.17-5.51,3.33-5.49.26,0-1.52,0-3,0-4.55,0-.51-1.82-.08-1.93.4-.51,2.24-.78,4.52-1.39,6.74s-4.85,5.13-4.82.18c0-2.12,0-4.24,0-6.37,0-.47-1.93-.14-1.94.52Z"/><path class="cls-5" d="M154.78,198c-.56,3.16.72,8.22,4.89,6.48a6.13,6.13,0,0,0,3.28-4.91,12.09,12.09,0,0,0-1.11-4.06,16.59,16.59,0,0,1-1.05-5c0-.47-1.95-.13-1.93.52a18.51,18.51,0,0,0,1.25,5.53c.62,1.8,1.25,3.31.41,5.12-.16.33-1.18,2.34-1.89,2.15s-1.11-.9-1.4-1.44a7.31,7.31,0,0,1-.54-4.72c.11-.61-1.82-.27-1.91.29Z"/><path class="cls-5" d="M88.09,113.9c-.9-2.88-1.47-5.89-.57-8.85s4.47-2.58,5.27.25a27.88,27.88,0,0,1,.59,7.52c0,.43,1.74-.24,1.92-.44,1.64-1.85,5.54-9.45,8.68-7.65s-1.69,8.26-3.28,9.52c-.4.32,1.41.06,1.74-.18a30.31,30.31,0,0,1,7.64-3.64c1.63-.57,4.78-1.69,5.76.4,1.15,2.46-2.48,5.21-4.22,5.38-.47,0-2.12.84-.85.72,2.88-.27,10-3.46,6.46-7.42-2.53-2.82-11.28,1.83-13.58,3a27.9,27.9,0,0,0-2.44,1.39c-.72.46,1.88-.37,2.29-.77a12.71,12.71,0,0,0,1.21-1.53c1.63-2.22,3.39-6.18.36-7.92-4.69-2.7-9.59,6.72-11.67,9.07l1.91-.44c0-3.63-.18-7-1.6-10.43,0-.11-.24-.11-.34-.11-8-.34-9.31,5.92-7.21,12.66.13.41,2-.15,1.93-.52Z"/><path class="cls-5" d="M88,113.77c-3.27-2.77-5.78-11.13-11.6-7.59-4.53,2.76-3.1,8.66,1.12,10.89L78.66,116c-4.35-.21-11.36-4.15-15.48-1.59-4.43,2.74.9,5.78,3.53,6l.21-1.16c-5.31,1-10.11,0-13.54,4.74-3.23,4.51,5.39,5.2,7.72,5.24.8,0,2-1.18.72-1.22-4-.1-8.59,2-6.94,6.77s7.11,2.64,9.77.47c.89-.73-1-.86-1.58-.42-6.32,5.15-9.83-5.8-2-5.6l.72-1.22a22.28,22.28,0,0,1-4.75-.5c-4.06-.93-1.21-5.21,1.24-6,2.8-.93,6-.57,8.91-1.13.72-.14,1.23-1.07.21-1.16l-2.69-.72q-2.29-3,1.13-3.61c.76.14,1.45.52,2.22.61,3.37.41,6.43,1.56,9.85,1.73.39,0,2-.65,1.12-1.11a6.37,6.37,0,0,1-3.37-4c-.73-2.3.69-6.56,4.37-5,2.79,1.14,3.92,5.63,6.17,7.54.58.49,2.39-.28,1.79-.79Z"/><path class="cls-5" d="M64.2,138.34C61,138.2,58.85,140,58,143.05a4.22,4.22,0,0,0,1.12,4.06c.85.82,2.8.49,2.56,1.15-.94,2.7-3.54,7.19-.58,9.45,3.48,2.65,7.77-1.39,9.27-4.13l-1.9,0c.13,3.37.94,9,5.15,9.74,4.4.77,7.13-2.95,8.78-6.51l-1.88.16c.62,8.88,16,6.4,11.55-2.93-.39-.82-2.29-.29-1.93.52,1.38,3.11,4.77,7.64,8.24,3.82,1.49-1.64,4-6.59.28-7.18-.94-.15-2,1.18-.67,1.39s.36,2.59.16,3.13c-1.59,4.34-5,.77-6.08-1.68l-1.93.52c3.54,7.4-7.19,9-7.69,1.89-.06-.85-1.66-.34-1.89.15-1.14,2.46-3.46,7.13-7.29,4.75-2.41-1.5-2.75-5.47-2.84-7.93,0-1-1.56-.65-1.9,0-.75,1.36-5.43,6.22-6.78,2-.32-1,.28-2.72.56-3.62.5-1.61,1.22-3.15,1.7-4.77.13-.46-.58-.68-.89-.62-5.09.84-3.69-6.81.38-6.64.92,0,2-1.33.67-1.38Z"/><path class="cls-5" d="M98.27,152.28c4.59,6.37,16.14,3.79,9-4L106,149.33c3.73.13,7.72-.86,9.48-4.49,1.88-3.88-3.5-4.38-5.84-4.08-.76.1-1.67,1.31-.43,1.35,3,.12,7.91-.45,9-4,1.24-3.91-3.58-4.15-6.18-3.81l.54,1.1c3.42-2,7.18-2.95,7.71-7.39.4-3.29-3.66-3.67-5.85-3.34l.33,1.23c2.23-.84,9.08-4.32,5-7.51-3-2.37-6.93-1.46-9.47,1.08-.85.85,1,1.11,1.6.53,2-2,4.82-2.25,6.65-.18,2.14,2.44-3.23,4.45-4.66,5-.87.33-.58,1.36.33,1.22q1.13,2.85,2.27,5.68a22,22,0,0,1-3,1.63c-.83.4-1.45.76-2.24,1.22s-.14,1.19.54,1.1c1.75-.23,4.79-.51,4.61,2-.2,2.83-4.83,3.11-6.58,3-.15.45-.29.9-.44,1.36,1.7-.22,4.45-.19,4.31,2.08-.19,3.13-4.9,3.86-7.08,3.78-.4,0-1.82.44-1.23,1.09,1,1.11,5.21,6.16-.45,5.79-2.14-.15-3.82-1.79-5-3.41-.5-.68-2.34.05-1.78.83Z"/><path class="cls-5" d="M141,113c-5-2.72.33-11.23,3.94-6.41,1.53,2,1.4,5.37,1.4,7.79,0,.29,1.91,0,1.94-.52a10.42,10.42,0,0,1,3.85-7.1c5.54-5,5.19,3.9,4.66,6.74l1.91-.44c-.33-3.16,1.91-7.7,5-3.87,1.83,2.3.1,5.52-1.28,7.52-.11.16,1.59.11,1.9-.36,2.37-3.43,3.21-9.16-2.35-9.56-4-.3-5.54,3.38-5.18,6.79,0,.36,1.85-.05,1.92-.43.78-4.18.88-9.86-4.77-8.23a11.15,11.15,0,0,0-7.58,9.46l1.94-.52c0-4.16-.33-9.91-5.72-9.57-4.51.3-8.4,6.65-3.38,9.35.48.27,2-.53,1.82-.64Z"/><path class="cls-5" d="M140.85,114.56c-3.38-1.46-7.45-1.3-10.06,1.55-3.69,4,4.33,5,6.47,4.92.39,0,2-.85,1-.89a11,11,0,0,0-9,3.41c-2.67,3,1.05,4.11,3.47,4.06.11,0,.32-.42-1,.51a6,6,0,0,0-1.57,1.71c-1,1.7-1.43,3.44-.48,5.25,1.59,3,6.19.42,7.92-.78.75-.52-.56-.52-.85-.45-3.88,1-5.37,5.06-4.59,8.75.89,4.22,5.66,2.11,7.85.52l-1.71.07c-.71,2.06-4.09,9.92-.58,11.21,3.19,1.18,5.65-.79,7.31-3.49l-1.92.3c-1.32,3.91-1.9,10.44,3.92,10.23,4.35-.15,6.15-4.47,6-8.23,0-.44-1.95-.11-1.93.52.08,2.62-1.34,8.87-5.46,6.18-2.83-1.85-1.47-6.53-.64-9,.19-.58-1.68-.09-1.92.3-1,1.57-4,3.5-4.78.65a8.41,8.41,0,0,1,.29-3.79,39.24,39.24,0,0,1,1.6-5.18c.21-.61-1.53-.06-1.71.07-5,3.67-5-3-4-5.77a6.08,6.08,0,0,1,1-1.72c-1.9,2.48-4-1-4.36-2.15-.76-2.65,1.92-5.1,3.9-6.13.77-.41.16-.69-.41-.62-3.05.38-5.48-.35-3.6-3.09a14.32,14.32,0,0,1,4.62-3.36,5.35,5.35,0,0,1-2.9-1c-1.13-.76-.8-2.16-.18-3.09,1.51-2.27,4.69-1.54,6.73-.66.47.2,2.24-.53,1.56-.82Z"/><path class="cls-5" d="M168.32,115.68c-.1-3.19,1.47-5.67,4.71-3.62,2.95,1.87,1.32,4.46-1.29,5.58l1,.94c2.42-1.8,4.69-3.41,7.79-3.87,1.66.37,2.32,1.19,2,2.48-.16,2.62-2,4.13-4.68,4.32,0,.44,0,.87.07,1.3a12.69,12.69,0,0,1,7.19-.5c3.38.79,3.76,6.43-.5,5.5-.47-.1-2,.27-1.45,1l.12.17c.5.67,2.35-.07,1.78-.83L185,128l-1.45,1c1.61.35,3.15.93,4.67-.16a4.76,4.76,0,0,0,1.33-5.38c-2-3.93-8.46-3.2-11.89-2-.89.32-1.12,1.38.07,1.3,5.1-.37,7.42-4,6.67-9,0-.27-.4-.38-.62-.41-4.88-.51-8.38,1.43-12.2,4.27-1,.74.33,1.26,1.05.95,4.11-1.77,5.72-5.81,1.09-8.23-4.29-2.24-7.44,1.16-7.3,5.37,0,1,2,.65,1.95-.17Z"/><path class="cls-5" d="M156.05,155.17a10.18,10.18,0,0,0-4.11,6.29c-.25,2,1,5,3.47,4.87,4.57-.3,7-4.93,7.28-9.11l-1.93.52c-.32,12,13.48,9.18,12.36-1.32,0-.32-1.92.05-1.93.52-.24,11.16,20.33,2.55,10.71-5.39l-1.55.68c5.16.23,10.15-5.91,5.48-10.41-.61-.59,2.92-2.13,3.24-2.41a3,3,0,0,0,1.38-2.55c-.11-2.31-4.67-4.06-6.15-5.37-.37-.32-2.06.43-1.82.64,3.63,3.2,10.56,5.52,1.39,9.12-.12.05-.82.28-.59.51,2.46,2.37,3.71,10-1.66,9.74-.2,0-1.89.4-1.55.69,2.59,2.13,3.61,4.85,1.15,7.54-3.89,4.27-8.19,1.19-8.1-3.31l-1.93.52c.3,2.75-.46,9.51-5.25,8-3.05-1-3.31-5.12-3.25-7.7,0-.24-1.89,0-1.93.52-.18,2.58-3.64,11.13-6.89,5.1-1.24-2.3,2.25-6.7,3.91-7.86.37-.25-1.37-.07-1.73.19Z"/><path class="cls-5" d="M64.93,102.3a4.26,4.26,0,0,0-.23,6.62c2,1.66,5.75-.59,6.08-2.91.3-2.14-1.81-4.21-3.72-4.74a3.8,3.8,0,0,0-3.16.51c-1.06.78-1.15,2.1-1.08,3.31,0,.52,2,.15,1.93-.52a3.47,3.47,0,0,1,.51-2.44c.15-.18-.14,0,0,0a3,3,0,0,1,.93.28,4.66,4.66,0,0,1,2.65,3.41,2.32,2.32,0,0,1-.73,2c-.78.74-1.24.87-2,0-1.06-1.13-1.53-4.08,0-5.07,1.09-.72-.61-.82-1.16-.46Z"/><path class="cls-5" d="M76.63,98.67c-.48,2.25.11,4.33,2.7,4.42A6.72,6.72,0,0,0,85,100.37c1.52-2.39-1.42-3.93-3.46-3.86-2.81.09-6.18,1.87-4.91,5.13.19.47,2.08-.15,1.94-.52-.86-2.19.53-4.25,3-3.7a2.2,2.2,0,0,1,1.5,3.42,3,3,0,0,1-3,1.38c-1.76-.39-1.74-2.5-1.45-3.89.1-.44-1.8-.14-1.9.34Z"/><path class="cls-5" d="M95.58,96.9c-.14,1.07-.36,3,1,3.5a3.7,3.7,0,0,0,3.58-1.1c.65-.61,1.44-1.68,1.1-2.63-.51-1.42-2.86-1.16-4-1-.29,0-1.1.25-1.1.66a6.51,6.51,0,0,0,.57,3c.33.67,2.21.06,1.93-.52a6,6,0,0,1-.57-2.74l-1.1.66a4.62,4.62,0,0,1,1.74,0l.34.16a.85.85,0,0,1,.16.17c.1.12,0,0,.07.12a1,1,0,0,1,0,.84,2.51,2.51,0,0,1-.22.4l-.17.24a1.84,1.84,0,0,1-.15.18,3.39,3.39,0,0,1-.45.4c-.07.06-.06,0,0,0l-.15.1c-.06,0-.36.19-.08,0-.07,0-.38.15,0,0-.28.1,0,0,0,0s.21,0,0,0h0c-.15,0,.16.06,0,0l-.08,0c-.13-.07.1.08,0,0a1.45,1.45,0,0,1-.17-.18,1.54,1.54,0,0,1-.2-.48,5.1,5.1,0,0,1,0-2.06c.1-.77-1.85-.42-1.94.24Z"/><path class="cls-5" d="M107.7,101.28a4.49,4.49,0,0,0,.46,4c1.2,1.7,3.78.5,4.7-.87.8-1.19-.26-2.67-1.43-3.06a2.44,2.44,0,0,0-2.24.39,3.17,3.17,0,0,0-1,2.55c0,1,1.94.67,2-.16a2.67,2.67,0,0,1,.34-1.58c.07-.09-.16,0-.2,0s.06,0,.11,0a1.18,1.18,0,0,1,.6,1.57,1.77,1.77,0,0,1-.44.36,2.29,2.29,0,0,1-.31.16c.13-.06-.15,0,0,0a1,1,0,0,1-.19-.13,1.58,1.58,0,0,1-.36-.56,3.76,3.76,0,0,1-.17-2.61c.45-1-1.5-.93-1.84-.19Z"/><path class="cls-5" d="M120.86,114.67a3.52,3.52,0,0,0,2.11,4c2,.63,3.42-1.24,3.34-3a2.62,2.62,0,0,0-2.9-2.38,2.71,2.71,0,0,0-2.53,3.35c.13.91,2.06.43,1.93-.52a1.83,1.83,0,0,1,.11-1.16c.13-.19.11-.16.2-.21.25-.13-.17,0,.11,0-.21.06.08,0,.11,0s.16,0,.19,0a1.23,1.23,0,0,1,.41.24,1.28,1.28,0,0,1,.42.91,2.41,2.41,0,0,1-.38,1.43c-.13.18.17,0,0,0,.17,0-.13-.07-.22-.12a2.62,2.62,0,0,1-1-2.68c.17-1-1.8-.75-2,.14Z"/><path class="cls-5" d="M128,104.07c-1.39,1.5-.81,4.62,1.31,5.11s5.21-1.39,4.79-3.81a4.48,4.48,0,0,0-3.77-3.32,3,3,0,0,0-2.62,1,4.11,4.11,0,0,0-.47,3.2c.1.71,2,.25,1.93-.51a3.87,3.87,0,0,1,.15-2.31c.13-.26.34-.31,0-.21.09,0,0,0,0,0a.83.83,0,0,1,.31,0,3.7,3.7,0,0,1,2.44,2.37c.34,1-.43,2.75-1.74,2.44s-1.52-2.81-.79-3.6-1.1-.88-1.56-.37Z"/><path class="cls-5" d="M143.29,97.61c.05,2.11,1.29,5.41,3.66,5.76,2.17.33,4.46-1.57,3.74-3.81a4.67,4.67,0,0,0-4.07-3.06c-2.7-.12-3.46,2.33-3.33,4.56,0,.59,2,.2,1.93-.52a4.9,4.9,0,0,1,.37-2.62c.12-.22.49-.45.22-.36a2.61,2.61,0,0,1,.43.07,4,4,0,0,1,2.52,2.45,2.11,2.11,0,0,1,0,1.6c-.35.84-.94.72-1.54.2a7.09,7.09,0,0,1-2-4.78c0-.58-1.94-.21-1.93.51Z"/><path class="cls-5" d="M160,99c-.76,1.58-1.12,3.79.86,4.59a3.51,3.51,0,0,0,4.27-2.06,2.93,2.93,0,0,0-2-4.17c-2.18-.42-3.68,1.59-3.71,3.55,0,1,1.93.7,2-.15a2.77,2.77,0,0,1,.52-1.81.48.48,0,0,1,.56-.21c1.08.28,1.19,1.71.89,2.58a1.77,1.77,0,0,1-.73.95.68.68,0,0,1-.68,0c-1.11-.45-.37-2.37,0-3,.48-1-1.48-1-1.84-.21Z"/><path class="cls-5" d="M173.26,105.41c-.68.79-1.38,2-.36,2.87a4.53,4.53,0,0,0,3.34.58c.91-.13,2.67-.59,2.7-1.76a1.7,1.7,0,0,0-.74-1.18,7.42,7.42,0,0,0-2.91-1.5,4,4,0,0,0-3.8,1c-.87,1-.17,2.37.61,3.18.42.44,2.25-.26,1.8-.73a2.78,2.78,0,0,1-.87-1.65c0-.26.1-.82.36-1s1,.17,1.36.34a10.29,10.29,0,0,1,1.37.78c.4.28.84.62.89,1.11a.46.46,0,0,1-.1.24c-.09.11.13-.11,0,0l-.11.08c.19-.14-.18.07,0,0-.3.13.15,0-.11,0s.13,0-.13,0c-.07,0-.47,0-.18,0h-.56c.21,0,0,0,0,0l-.37-.05a2.19,2.19,0,0,1-.58-.21,1,1,0,0,1-.57-.81,2.33,2.33,0,0,1,.73-1.47c.3-.35-.26-.49-.5-.48a1.78,1.78,0,0,0-1.28.5Z"/><path class="cls-5" d="M182.38,110.13a3.39,3.39,0,0,0,3.27,4c1.87.07,4-1.83,3.12-3.81-.71-1.52-3-1.24-4.22-.76a2.78,2.78,0,0,0-1.6,4.16c.34.62,2.2,0,1.94-.52-.46-.84-.81-2.15.17-2.8a1.32,1.32,0,0,1,1.73.35,1.82,1.82,0,0,1,.1,1.53,1.73,1.73,0,0,1-.42.76c-.12.12,0,.09-.29,0-1.41-.25-2-2-1.87-3.19.09-.71-1.84-.35-1.93.26Z"/><path class="cls-5" d="M192.51,117.74a4.12,4.12,0,0,0-1.27,4.75,3.25,3.25,0,0,0,4.14,2.24c1.31-.53,1.46-2.12,1-3.28-.74-1.71-2.75-1.61-4.2-1-1.22.56-.1,1.24.78.84,1.32-.6,2.36,1.73,1.5,2.65.41-.44.22-.22-.27-.6a3.57,3.57,0,0,1-.55-.61,3.61,3.61,0,0,1-.64-1.57,3.1,3.1,0,0,1,.75-2.86c1.05-.78-.59-1.07-1.21-.61Z"/><path class="cls-5" d="M53,112.4a3.45,3.45,0,0,0-.17,2.65c.38.69,1.56.39,2.1.16a5,5,0,0,0,2.85-3.77c.17-2.38-3.57-2.4-4.94-1.5a3.23,3.23,0,0,0,1.13,5.8,1.5,1.5,0,0,0,1.36-.37.42.42,0,0,0-.2-.77c-1.43-.34-2.6-2.78-1.21-3.88.39-.31,1.2-.07,1.57.17a1,1,0,0,1,.31,1.07,3.9,3.9,0,0,1-1.57,2.28c-.09.07-.25.07.06,0s.4.2.31-.07a3.81,3.81,0,0,1,.34-2c.25-.75-1.71-.5-1.94.21Z"/><path class="cls-5" d="M60,163.63c-3.09,4.33,6.27,5.75,8.21,2.48a2.67,2.67,0,0,0-.66-2.92c-.87-.91-2.44-.68-3.51-.4a4.69,4.69,0,0,0-3,2.12c-.72,1.35.27,2.65,1.3,3.47.4.32,2.07-.45,1.82-.65-1.47-1.16-2.15-3.55.09-4.41,1.59-.61,2.64,2.16,2,3.26s-2.61.53-3.55.1c-1.54-.7-1.72-2.09-.79-3.4.19-.27-.71-.16-.76-.16a1.9,1.9,0,0,0-1.14.51Z"/><path class="cls-5" d="M71.52,168.46a6.69,6.69,0,0,0,5.57,2.28,3.07,3.07,0,0,0,2.3-1.13,2.14,2.14,0,0,0-.2-2.3c-1.92-3.5-8.18,2.57-4.09,5.28.61.41,2.36-.46,1.51-1a2.26,2.26,0,0,1-.57-3,2.68,2.68,0,0,1,.83-1.05c.15-.1.55.55.68.84.5,1.06-.14,1.17-1,1.08a5.18,5.18,0,0,1-3.23-1.83c-.5-.58-2.35.14-1.78.81Z"/><path class="cls-5" d="M88.69,164.87c-.09,1,0,2.31,1.2,2.51A4,4,0,0,0,93.12,166c.51-.54,1.11-1.46.81-2.24-.48-1.21-2.6-.88-3.54-.73-.31.05-1,.21-1.12.57a5.4,5.4,0,0,0-.38,2,2.93,2.93,0,0,0,1,1.66c.39.4,2.19-.3,1.82-.69a2.9,2.9,0,0,1-.87-1.36,3.92,3.92,0,0,1,.34-1.9l-1.12.57c.6-.09,1.67-.26,2,.47.22.54-.18,1.18-.51,1.59a2.7,2.7,0,0,1-.69.62c.15-.1,0,0-.06,0s0,0,.11,0,.36,0,.28,0c-.65-.19-.57-1.59-.52-2.15,0-.37-1.88-.12-1.93.52Z"/><path class="cls-5" d="M100.18,161.42c.48,2.39,2.66,3,4.75,2.19a4.3,4.3,0,0,0,2.51-5c-.51-1.74-2.65-1.66-4-1.16a4.25,4.25,0,0,0-2.66,4.54c.08.79,2,.34,1.93-.52a2.92,2.92,0,0,1,1.23-2.87,1,1,0,0,1,1.59.53,3.12,3.12,0,0,1-1,3.24c-1.23.91-2.19-.3-2.43-1.47-.16-.81-2.09-.32-1.93.52Z"/><path class="cls-5" d="M112.33,149.16v2.3c0,.39.53.58.89.63,2.42.38,5.21-1.94,4.86-4.47a2.52,2.52,0,0,0-2.29-2.11c-1-.2-1.67,1-2,1.74a3.21,3.21,0,0,0,.18,2.67c.39.86,2.31.3,1.94-.52a2.35,2.35,0,0,1,.42-2.9l-1.14.42c2.13.43.54,4.05-1.28,3.76.22.21.43.42.43.63V149c0-1-2-.73-2,.15Z"/><path class="cls-5" d="M119.71,134.8a5.18,5.18,0,0,0,3.22,4.43,2.69,2.69,0,0,0,3.94-2c.23-2-.71-4-2.82-4.29-2.29-.33-3.41,1.76-3.17,3.73.1.85,2,.38,1.93-.52-.08-.7-.11-2.14.91-1.76,1.17.44,1.29,2.17,1.18,3.19s-.83.41-1.42,0a4,4,0,0,1-1.81-3c0-1-2-.67-2,.16Z"/><path class="cls-5" d="M136.39,157.79c-.3,1.12-.45,2.52.57,3.3a2.9,2.9,0,0,0,3-.05c.76-.41,1.63-1.23,1.32-2.19-.43-1.31-2.44-1.63-3.57-1.81-.41-.07-1.35.22-1.35.75v3.45c0,1,2,.65,2-.17v-3.45c0,.26-.88.51-1.32.76a6.19,6.19,0,0,1,1.65.44,2.88,2.88,0,0,1,.47.3s.21.3.16.2a.39.39,0,0,1,0,.43s-.13.19,0,0a.69.69,0,0,1-.11.13c-.15.16.15-.12,0,0s-.29.19-.05,0c-.08,0-.47.19-.17.09-.32.11.09,0-.24.05h0s-.22-.09,0,0a.74.74,0,0,1-.21-.13,1.57,1.57,0,0,1-.28-.69,4.16,4.16,0,0,1,.21-1.67c.23-.88-1.74-.63-2,.17Z"/><path class="cls-5" d="M146.76,166.51a3.34,3.34,0,0,0,.57,3.36c1,1.2,2.91.95,4.2.43a1.76,1.76,0,0,0,1.19-2.43,4.29,4.29,0,0,0-3.06-2.47,2.22,2.22,0,0,0-1.75.54,2.46,2.46,0,0,0-.59,1.8c0,.24,1.93,0,1.93-.52a2.26,2.26,0,0,1,.56-1.65l-1.75.54c1.35.31,3.71,2.18,2.68,3.79-.16.24-.42.16.13.08a1.75,1.75,0,0,1-.93-.15,2.29,2.29,0,0,1-1.08-1.07,3.07,3.07,0,0,1-.2-2.61c.1-.24-1.69-.1-1.9.36Z"/><path class="cls-5" d="M161.21,168.15c-1.54,1.24-.17,3.46,1.12,4.29a3.23,3.23,0,0,0,3,0,3,3,0,0,0,1.75-2.58c.07-.82,0-1.92-.88-2.3a3.57,3.57,0,0,0-2.76.36c-1.68.83-2.26,2.68-.56,3.86.43.3,2.05-.48,1.82-.64a1.74,1.74,0,0,1-.4-2.81c.06-.06.4-.29.28-.24-.4.15-.38,0-.06.18.58.32.64,1.17.64,1.74a2.85,2.85,0,0,1-.92,2.24c.58-.36.9-.12.41-.25a1.65,1.65,0,0,1-.41-.18,3.24,3.24,0,0,1-.77-.61c-.76-.75-1.58-2.44-.53-3.28.34-.28-.31-.29-.45-.27a2.39,2.39,0,0,0-1.29.45Z"/><path class="cls-5" d="M177.36,163.16c-1.4,1.6-.74,3.93-.15,5.73a.72.72,0,0,0,.63.46c1.84.07,4.81.24,6-1.59.74-1.18-.37-2.48-1.23-3.22a5.25,5.25,0,0,0-3.72-1.39c-1.88.24-2.15,1.88-1.65,3.44.29.91,2.21.38,1.93-.52a3,3,0,0,1-.2-1.53s0,0,0,0-.26.08,0,.07c-.23,0,.33.07.24,0a6.82,6.82,0,0,1,.68.25,5.35,5.35,0,0,1,1.23.81,3.56,3.56,0,0,1,.82.95,1.12,1.12,0,0,1,.15.69c-.07.21-.25.29-.66.41a9.4,9.4,0,0,1-2.9.18l.64.46c-.44-1.32-1.21-3.41-.16-4.62.81-.92-1-1.26-1.62-.59Z"/><path class="cls-5" d="M126.75,98.07c-4.23-4.48,7.6-9.56,10.6-10.94,7.94-3.66,16.49-3.52,25.06-2.92,9.8.68,26.81,4.85,30.49-8,.29-1-1.31-1.13-1.75-.45-4.84,7.57-16.61,3.78-23.83,2.85-8.37-1.07-17.24-1.65-25.59-.23a22.83,22.83,0,0,0-16.54,12c-1,1.82-2.82,9.57,1.44,8.25,1.18-.37.81-1.77-.38-1.4-.49.15-.24-2.64-.19-3.11a13.51,13.51,0,0,1,2.34-5.8c2.84-4.27,7.38-6.84,12.21-8.2,8.13-2.29,17.83-1,26.06,0S187.3,85,192.78,76.4L191,76c-2.74,9.57-12.89,7.81-20.69,7.33-9.82-.61-19.5-1.85-29.15.72C137.09,85.1,119,92.62,125,98.94c.64.67,2.46-.14,1.77-.87Z"/><path class="cls-5" d="M126.26,97.1c-1.7-6.09-.65-11.32-6.58-15.08-4.89-3.12-11.32-3.82-17-3.7-13.43.27-32.78,7.49-42.05-5.51-.38-.53-1.81-.16-1.86.5C57.91,85,71.61,85.21,80,84.77c6.78-.36,13.46-1.6,20.28-1.41,7.68.22,24.32,5.74,23.42,15.81-.08.89,1.65.56,1.89,0s.68-1.05,1-1.57c.8-.87-1.07-1-1.59-.45A4,4,0,0,0,123.8,99l1.89,0c.59-6.63-6.22-11-11.47-13.44-7.4-3.47-14.8-3.79-22.81-3.09-8.78.77-31.79,5.46-30.68-9.33l-1.86.5C66,83.55,77.25,81.9,88.1,80.75c7.47-.8,15-1.82,22.46-.5,4,.69,8.18,2.4,10.86,5.5s1.9,8.27,2.9,11.86c.23.8,2.16.28,1.94-.51Z"/><path class="cls-5" d="M125.6,92.92c-3.13-5.09,5.55-13.09,9.46-15,5.95-2.9,13.28-2.63,19.68-4,11.38-2.45,15.76-10.71,19.75-20.74.39-1-1.54-.88-1.83-.16-3.76,9.16-13.31,10.81-22,11.65A51.69,51.69,0,0,0,132.18,70a15.46,15.46,0,0,0-8.4,9.65c-1,3-1.86,8,2.09,9.08.76.2,2.29-.92,1.14-1.22-5.83-1.54.53-12.46,2.77-14.37,5-4.25,12.71-6.09,19.06-7,5.4-.8,10.36-.55,15.38-2.93,4.32-2,8.43-5.57,10.27-10L172.66,53c-2.54,6.37-4.85,12.79-10.79,16.78-6.25,4.2-14.81,3.87-22,5.31a20.52,20.52,0,0,0-12.46,7.31c-2.4,2.87-6,7.55-3.62,11.33.41.67,2.27,0,1.77-.82Z"/><path class="cls-5" d="M125.68,86.75c-.94-3.25-1.38-6.84-4.73-8.49-6.63-3.27-14.14-3.86-21.4-4.32-7-.44-14.07-.73-20.51-3.75-5.59-2.61-7.84-8.26-9.12-13.91L68,56.8c5.93,9.67,16.47,9.39,26.6,9.11,8-.23,14,.79,20.39,5.87a31.45,31.45,0,0,1,7.34,8.3c2.12,3.45,1.63,7,2.58,10.63.15.57,2.08.06,1.93-.51-.82-3.17-.57-6.21-1.9-9.34a24.36,24.36,0,0,0-5-6.94c-3.91-4.08-9-7.74-14.72-8.65-12.25-2-27.41,3.86-35.28-9-.3-.49-2.06-.08-1.93.52C70.41,67.45,76.75,72.34,87.42,74c7.77,1.18,15.67.86,23.42,2.31,3.41.64,7.9,1.77,10.44,4.33,1.57,1.58,1.88,4.65,2.47,6.68.16.57,2.09,0,1.93-.52Z"/><path class="cls-5" d="M114,40.92c-2.8,6.38-7.49,13.74-4.79,20.9,1.8,4.76,8.53,8.34,13.4,6.51,8.26-3.1,2.69-21.72.18-27-.4-.83-2.3-.26-1.93.52,3,6.31,5.24,16,3,22.77-2.53,7.58-12.24-1.06-13.33-5.38-1.52-6,3-12.86,5.34-18.13.45-1-1.5-1-1.84-.2Z"/><path class="cls-5" d="M112.89,41.57c-3.37,7.37-8.52,20.18-19.19,16.17-5.23-2,2.86-8.36,4.41-9.32l12.26-7.67c.94-.58-.13-.92-.73-.81-4.77,1-9.43,3.92-13.89,5.76-2.08.86-17.68,6.14-13.82-.05.49-.79-1.46-.61-1.8-.06-.29.29-.57.58-.85.88-.18.13-.42.3-.37.56,2,9.71,26.32-5.16,31-6.08l-.73-.81c-5.74,3.59-13,6.72-17.4,12-2,2.37-2.2,6.2,1.45,7,12,2.45,17.29-8.31,21.48-17.46.39-.87-1.54-.66-1.81-.06Z"/><path class="cls-5" d="M121.53,42c4.28,4.35,2.54,11.51,6.94,15.71,2.16,2.07,6.54,2.55,9.17,1.15,9.59-5.13-3-14.71-7.58-18.38l-1.31,1.15c7.36,1.85,12.47,7.23,20.39,5.92,1.15-.19,9.72-2,5.64-4.2-.69-.38-2.41.57-1.5,1.07,1.23.67-2.93,1.59-3.24,1.66a13.36,13.36,0,0,1-6.85,0c-4.7-1.25-8.55-4.54-13.31-5.74-.58-.14-2.18.46-1.32,1.16a76.47,76.47,0,0,1,7.52,6.87c3.17,3.35,5.32,9.94-2.1,9.82-8-.12-6.25-12.57-10.68-17.07-.58-.59-2.41.18-1.77.83Z"/><path class="cls-5" d="M112.73,38c-.56.08-1.32.31-1.41,1-.11.86,1.35,1.29,1.91,1.5,2.4.91,5.86.17,8.21-.57,1-.3,1-1.33-.08-1.33a28.27,28.27,0,0,1-6.43-.53c-.78-.17-2.31,1-1.12,1.28a11.25,11.25,0,0,0,6.48-.57c1.16-.37.83-1.67-.35-1.29a8.9,8.9,0,0,1-5,.58l-1.12,1.28a32.54,32.54,0,0,0,7.37.63l-.09-1.34a18.06,18.06,0,0,1-3.25.68,14.87,14.87,0,0,1-2.31.07c-.32,0-.64-.06-1-.12a1.39,1.39,0,0,0-2,.13c1.06-.14,1.5-1.56.18-1.38Z"/><path class="cls-5" d="M82.6,205.42c-2.65,1.38-10.66,7.34-5.08,10.18,2.84,1.44,7.58-.67,10-2.13l-1.68.18c-1.38,2.37-4.79,9.85,1,9.85,3.21,0,6-1.36,7.22-4.47.11-.26-1.69-.09-1.9.36-1.16,2.54-3,10.75,1.66,11.4,3.2.45,5.07-1.67,6.56-4.28l-1.91.43c0,3.76.14,10.12,5.71,9.3,3.71-.55,8.2-3.88,6.57-8.09-.15-.38-1.93.1-1.94.52,0,4.39-.49,11,5.4,11,3.86,0,7.7-4.34,6.31-8-.05-.11-.25,0-.33,0h-.58c-.37,0-1.51.05-1.6.52-.83,4.52.75,9,5.87,8,4.76-.94,5.32-4.48,5.26-8.62,0-.28-1.88,0-1.93.5-1.22,10.88,17.59,5.67,14-1.67-.18-.38-1.93.09-1.93.51,0,10.51,17.08,4.54,11.13-3.39-.31-.4-2.06.31-1.93.52,4.93,8,16.36-.22,10.5-5.18-.34-.28-2,.43-1.88.58,2.18,2.64,5,4.19,8.25,2.33,2.74-1.58,4.36-6.29.52-7.51l-1.71.67a9.2,9.2,0,0,0,8.6-3.74c2.71-3.73-.07-6.47-3.92-6.16-.29,0-2,.71-1.06.72,5.26.05,8.8-5.12,5-9.82-.35-.44-2,.39-1.94.51a7.14,7.14,0,0,1,.52,7.59c-1.37,2.45.44,2.6.44,4.82,0,3-3.28,5.6-6.09,5.38-.35,0-1.92.6-1.71.67,4.89,1.55.47,10.68-5,4l-1.88.58a3.76,3.76,0,0,1,1.31,4.76c-1.71,4.56-6.32,2.06-8-.74l-1.93.52c1.72,2.29,2,4.74-.25,6.8-4.08,3.7-7-1.15-7-4.45l-1.93.52c3.29,6.72-11.16,9.76-10.14.63l-1.93.52c0,1.14,0,2.28,0,3.42-.11,3.2-4.33,5.24-6.48,2.6-1.4-1.73-1.16-4.53-.79-6.54l-1.6.63c1.39,0,.3,3.1,0,3.85a3.67,3.67,0,0,1-6.89.08c-1.07-2.37-.71-5.48-.68-8l-1.94.52c1.67,4.29-4.27,9.21-7.46,4.86-1.35-1.85-1-5-1-7.1,0-.35-1.75.15-1.92.44-2,3.58-4.35,3.36-5.49-.24-.8-2.52,0-5.32,1.07-7.6l-1.9.36c-1.39,3.39-5.79,4.29-6.75.5-.53-2.1,1.31-4.85,2.33-6.61.19-.33-1.52.08-1.69.19-2.49,1.51-7.36,3.24-8.29-.55-.85-3.51,3.87-6.23,6.31-7.5.81-.42-1.14-.17-1.46,0Z"/><path class="cls-5" d="M80.44,205.17c-1.69,1-3-.27-3.5-1.91a5,5,0,0,1,2-5.19c.85-.67-1.09-.6-1.53-.25-2.08,1.67-3.3,4.46-2,7s4.22,2,6.21.86c1.12-.65-.6-.82-1.18-.49Z"/><path class="cls-5" d="M78,220.7H76.8c-.39,0-1.29,0-1.34.52-.15,1.61.39,3,2.18,3.08a4.14,4.14,0,0,0,3.69-2c.79-1.5-.79-3-2.26-3.07-2.17-.08-4.18,2.36-3,4.37.36.58,2.23-.06,1.79-.79a1.85,1.85,0,0,1,0-1.77c.22-.43.41-.77.83-.54a1.35,1.35,0,0,1,.67,1.89,1.21,1.21,0,0,1-.27.29s-.35.24-.26.19a.89.89,0,0,1-.41.15c.14,0-.17,0-.11,0-.93-.14-1-1.32-.95-2.14-.45.23-.89.78-1.34.78h1.15c.45,0,1,0,1.27-.46s-.2-.54-.53-.54Z"/><path class="cls-5" d="M81.8,229.14a2.48,2.48,0,0,0,.4,2,2,2,0,0,0,1.78.32,5.08,5.08,0,0,0,3.56-2.61c.76-1.46-.25-2.55-1.66-2.93s-2.79-.21-3.63,1.22-.22,2.38.75,3.37c.39.4,2.19-.3,1.81-.69a3.32,3.32,0,0,1-1-1.63c-.17-.81.47-1.55,1-2.09l-1.5.48c.89.08,2.13.25,2.5,1.2a2.12,2.12,0,0,1-.56,2,3.82,3.82,0,0,1-.81.74s-.36.18-.23.13c-.19.08.17,0,.06,0,.11,0,0,0-.08-.06a.81.81,0,0,1-.27-.28,2.49,2.49,0,0,1-.19-1.43c.05-.6-1.87-.2-1.91.31Z"/><path class="cls-5" d="M91.54,235.37c-.34,1.61-.06,3.86,2,3.95a3.4,3.4,0,0,0,3.53-2.93,2.69,2.69,0,0,0-3.88-2.73,3.33,3.33,0,0,0-1.91,2.14,3.8,3.8,0,0,0,.91,3.4c.59.74,2.42-.06,1.76-.88s-1.34-2.63-.08-3.33c.26-.14.47-.17.84.15a1.81,1.81,0,0,1,.37,1.57,1.51,1.51,0,0,1-.54.89s-.26.17-.09.07c0,0-.37.17-.14.08,0,0-.4.09-.14.05-.25,0,0,0-.15,0s-.13,0-.24-.09a.83.83,0,0,1-.29-.36,3.49,3.49,0,0,1,0-2.12c.21-1-1.77-.8-2,.12Z"/><path class="cls-5" d="M102.47,240.56c-.17,1.17-.36,2.9.6,3.83a2.43,2.43,0,0,0,2.85.21,2.61,2.61,0,0,0,1.5-2.15c0-1.21-1.23-1.8-2.27-2-.47-.11-1.53,0-1.53.73a13.35,13.35,0,0,0,.59,4.21c.28.89,2.21.36,1.93-.52a12.19,12.19,0,0,1-.56-3.84l-1.54.73c.56.13,1.27.33,1.41.91.09.35-.22.7-.45.87,0,0-.23,0,0,0,0,0-.13,0-.3-.21-.58-.75-.35-2.08-.22-2.92.14-1-1.84-.73-2,.15Z"/><path class="cls-5" d="M115.75,243.84c-.86,2,1.14,3.29,2.82,3.62,1.85.37,4.47-1,4.26-3.11-.15-1.55-2.39-2.3-3.67-2.26-2.24.09-3,1.88-2.31,3.82.3.84,2.22.3,1.93-.51-.16-.46-.58-2,.07-2a2.32,2.32,0,0,1,2,1.1c.49,1-.69,1.72-1.55,1.59s-2.11-1.09-1.66-2.1-1.52-.92-1.84-.18Z"/><path class="cls-5" d="M128.93,242.34c-.58,1.35,0,2.9.57,4.15.11.22.36.22.57.24,1.25.07,3.93,0,4.33-1.56.25-1-.87-2.1-1.59-2.66a3.25,3.25,0,0,0-3.6-.59c-1.5.83-.27,2.94.29,4,.32.61,2.18,0,1.93-.51a10.24,10.24,0,0,1-.9-2.13,2.59,2.59,0,0,1-.1-.67.63.63,0,0,1,.09-.32.92.92,0,0,1-.49.25.65.65,0,0,1-.37,0,1,1,0,0,1,.42.12,4.44,4.44,0,0,1,1.06.65,3.29,3.29,0,0,1,1.34,1.89.65.65,0,0,1,0,.36c0,.1-.13.13,0,.06-.25.12,0,0-.16.06.18-.05-.21,0-.26,0a5.73,5.73,0,0,1-1.17,0l.58.24c-.57-1.17-1.13-2.62-.58-3.9.23-.53-1.67-.31-1.92.27Z"/><path class="cls-5" d="M140.59,240.26c-2,2.23,1.42,4.62,3.47,4.76s4.58-1.77,3.77-4a3.9,3.9,0,0,0-4.07-2.26c-2.55.32-3.08,2.7-2.77,4.87.11.78,2,.31,1.94-.51a4.84,4.84,0,0,1,.11-2.45,1.62,1.62,0,0,1,.4-.6c.05-.05.17-.08.1-.07a2.61,2.61,0,0,1,2.25,1.3c.49.79.16,2.35-.9,2.49S141,242,142.18,240.7c.79-.88-1.08-1-1.59-.44Z"/><path class="cls-5" d="M152.11,236.88a2,2,0,0,0-.49,2.21,2.06,2.06,0,0,0,2.35,1,5.72,5.72,0,0,0,3.24-1.82,2.23,2.23,0,0,0,.76-1.69c-.08-1.14-1.62-1.53-2.52-1.56-1.33-.06-3,.54-3.42,1.91a3.69,3.69,0,0,0,.46,2.63c.32.66,2.2,0,1.93-.52a4,4,0,0,1-.53-1.95,1.86,1.86,0,0,1,.16-.62,2.2,2.2,0,0,1,.17-.25c-.13.16.3-.21.06,0l.1-.06c.18-.11-.2.09,0,0s-.23.08,0,0l.17,0c-.32.08,0,0,.1,0-.28,0,.12,0,.19,0-.23,0,.1,0,.15,0a.66.66,0,0,1,.22.06,1.75,1.75,0,0,1,.46.23c.8.62.21,1.45-.48,2s-1,.9-1.51.28a1.37,1.37,0,0,1,0-1.57c.27-.28.25-.58-.18-.66a1.63,1.63,0,0,0-1.36.36Z"/><path class="cls-5" d="M162.45,231.1a4,4,0,0,0-.88.86,1.05,1.05,0,0,0-.12.63c0,.26.19.81.44.91a6.67,6.67,0,0,0,2.32.59c1.07,0,2.55-.49,2.59-1.76a3.13,3.13,0,0,0-1.06-2.29,2.53,2.53,0,0,0-3.31,0,4.73,4.73,0,0,0-1.32,3.09c-.05.33.33.47.6.47h.23c.21,0,0,0,0,0a1.85,1.85,0,0,1,.41.38c.52.51,2.35-.22,1.79-.78a2.13,2.13,0,0,0-1.68-.76l.61.47a6.34,6.34,0,0,1,.5-1.9c0-.1.1-.2.16-.3l.11-.14c-.11.14,0,0,0,0l.08-.07c.13-.12-.17.11,0,0s-.22.1-.06,0-.27.08-.1,0-.33,0-.22,0-.19-.05,0,0-.13-.06.06,0a1,1,0,0,1,.23.13c.15.09-.05-.06.09.06l.21.2a3.5,3.5,0,0,1,.33.43,1.45,1.45,0,0,1,.19.35,2.81,2.81,0,0,1,.16.49,1.85,1.85,0,0,1,0,.23.53.53,0,0,1,0,.13c0-.15,0,0,0,0a1.5,1.5,0,0,1,0,.2.76.76,0,0,1,0,.11c0,.13.07-.14,0,0s-.17.22,0,0c-.16.19.13-.07,0,0l.1,0c-.17.07.26-.08.08,0s.26,0,.06,0-.26,0,0,0a1.59,1.59,0,0,1-.64-.08,6.76,6.76,0,0,1-1-.32l.21.23c-.09-.19-.31-.59-.21-.78s.45-.35.6-.5a.4.4,0,0,0-.2-.74,1.54,1.54,0,0,0-1.36.37Z"/><path class="cls-5" d="M167.43,224.65a6.48,6.48,0,0,0,2.5,3.08,1.53,1.53,0,0,0,1.67-.45,2.87,2.87,0,0,0,.44-2.77,2.9,2.9,0,0,0-2.69-1.24,1.59,1.59,0,0,0-1.27.52c-.27.38.22.56.52.57,1.76,0,2,1.58,1.2,2.88l1.67-.44a5.61,5.61,0,0,1-2.1-2.67c-.34-.66-2.22,0-1.94.52Z"/><path class="cls-5" d="M106.51,255a28.24,28.24,0,0,1-6.19-3.94l-1.27.94c5.06-.14,10.65-1.42,14.26,3.08,1.94,2.42,3.21,3.88,6.43,3.81.38,0,1.28-.16,1.34-.67.63-4.64,2.19-7.92,7.21-9.16l-1.09-.37a54.06,54.06,0,0,1-.58,8.62c-.07.42.56.47.84.42C131,257,143.55,246,145,252.24c.16.68,2.09.18,1.93-.52-.95-4.05-5.56-2.5-8.3-1.35a53.44,53.44,0,0,0-7.36,4.09c-1,.62-2,1.25-3,1.84l-.58.3a2.83,2.83,0,0,0,1.31-3c.16-1.71.12-3.45.12-5.17,0-.54-.74-.46-1.1-.37-5.62,1.39-8.11,4.69-8.88,10.38l1.34-.67c-4.09.08-5.64-4.59-8.86-6.31s-8.25-.68-11.83-.59c-.24,0-1.85.43-1.27.93A29.35,29.35,0,0,0,105,255.9c.57.29,2.34-.54,1.53-.94Z"/><path class="cls-5" d="M58.22,64.27c1.43,5.15,6.58,6.84,10.41,9.87.34.27,2.14-.17,1.87-.61-1.87-3-10-12.29-6.4-15.87.49-.49-1.41-.31-1.78.06-2,2-.37,5.23.64,7.32,1.56,3.19,3.75,6,5.61,9l1.87-.61c-3.76-3-8.88-4.62-10.29-9.68-.15-.55-2.08,0-1.93.51Z"/><path class="cls-5" d="M184.51,60.62l-.44-.06a1.61,1.61,0,0,0-1.5.5c-3,4.7-7.59,10.27-13.15,11.67-.61.16-1.31,1-.25,1,7.71.07,15.52.79,21.85-4.41.85-.7-1.08-.69-1.55-.31-5.6,4.61-12.79,3.69-19.54,3.64-.09.34-.17.68-.25,1C176,72.1,181,66.41,184.37,61.09l-1.49.51.45.06c.6.09,2.27-.89,1.18-1Z"/><path class="cls-5" d="M46.72,85.54c4.61,10.93,25.83,4.76,34.19,3.25C78,89.32,75,92.14,72.16,93.3a48,48,0,0,1-11,2.53A33.48,33.48,0,0,0,53.09,98c-2.33.94-11.76,4.85-7.45,8.34.54.44,2.33-.32,1.8-.75-5-4.09,12.55-8.56,15-8.92,7.43-1.11,14.23-3.4,20-8.36.56-.49-.21-.77-.64-.7-5.16.89-10.26,1.94-15.48,2.46-5.55.55-15,1.23-17.6-5.06-.29-.67-2.19-.08-1.94.52Z"/><path class="cls-5" d="M197,86.5c-6.53,1.45-12.21,3.59-19.07,3.28-6.42-.29-12.73-1.41-19.18-1-.36,0-1.62.62-.89,1C163.53,93,170.08,93,176.37,94c8.5,1.34,15.76,6.76,24.21,8.46.64.13,2.28-.87,1.17-1.09-7.55-1.52-14.1-5.68-21.44-7.87-7-2.07-14.39-1-20.92-4.71l-.89,1c7.42-.43,14.77,1,22.18,1.16,5.75.09,11.08-2.29,16.6-3.51,1.18-.27.89-1.28-.28-1Z"/><path class="cls-5" d="M78.93,54.41c-2.33,5.58,8.79,4.82,7.79,0-.57-2.75-3.8-2.89-6-2.27a5.34,5.34,0,0,0-3,1.94c-.87,1.26-.2,2.8.61,3.89.35.48,2.08-.31,1.93-.52-1.16-1.56-1.53-3.7.54-4.67a3,3,0,0,1,3.92,2,2,2,0,0,1-2.09,2.79c-1.94-.12-2.47-1.83-1.81-3.43.14-.33-1.7-.15-1.9.34Z"/><path class="cls-5" d="M153.27,52.26a2.48,2.48,0,0,0-.66-1.32,1.13,1.13,0,0,0-1.86.49c-.46,2.62.79,5.39,3.57,6A3.81,3.81,0,0,0,159,53.6c.15-5.58-10.42-3.08-7.61,2.23.43.8,2.26.06,1.77-.87-1.56-3,4-4.58,3.88-1,0,1.5-1,2.36-2.42,1.81-1.82-.69-2.24-2.81-1.94-4.51l-1.86.5a1.83,1.83,0,0,1,.49,1c.16.93,2.1.44,1.93-.52Z"/><path class="cls-5" d="M126.76,187.8a5.32,5.32,0,0,1,5.55-.19c.74.33,1.48.68,2.2,1.06a26.13,26.13,0,0,0,3.78,1.51,10,10,0,0,0,5.94-.24c7.49-2.63,9.36-11.21,18.76-10.13,3.68.42,7,1.59,10.78,1.44a22.49,22.49,0,0,0,7.08-2c5.56-2.25,10.41-6.61,12.08-12.47L191,167c-1.82,8.64-9.77,11.87-17.66,13.25-4.66.82-11.65-.67-15.89,1.86a16.21,16.21,0,0,0-4.6,4.13c-3.36,4.31-7,6.91-12.81,7.15-4.88.2-8.9-3.5-13.58-4-.61-.07-2.28.93-1.19,1,5.17.61,9.92,5.07,15.41,4a27.48,27.48,0,0,0,8.37-2.57c3.47-1.94,4.62-4.72,7.31-7.57,3.45-3.68,12.07-2.42,16.72-3A36.65,36.65,0,0,0,182,179a17.1,17.1,0,0,0,10.93-12.24c.16-.75-1.75-.38-1.93.25-2.65,9.27-13.32,14.34-22.36,12.62-5.31-1-9.9-2-14.69,1.11-6.33,4.07-8.55,11.5-17.9,7-4.06-2-7.14-2.48-11.25-.27-.19.1-.55.44-.3.67l.47.42c.5.46,2.32-.28,1.79-.75Z"/><path class="cls-5" d="M124.19,187.79c-2,0-3.57-2.33-5.94-2.31a28.33,28.33,0,0,0-6.21.86c-8.43,1.93-12.17-1.51-18-6.54-3-2.54-6.59-4.86-10.66-4.63-8.2.47-15.5,7.3-23.83,3.48l-1.7.7a49.67,49.67,0,0,0,17.62,1.73c3.26-.26,6.48-1,9.78-.64,3.79.47,6.38,3.51,9,6,3.21,3,7.15,5.4,11.69,5.56,5.62.19,10.19-3.11,15.91-2.82.4,0,2.21-.73,1.25-.78-4-.2-7-.15-10.68,1.64-7.32,3.54-13.53-1.45-18.41-6.24A13.69,13.69,0,0,0,83,179.57c-8.22.34-15.47,1.32-23.62-1-.4-.11-2,.57-1.71.69,4.56,2.09,8.6,1.65,13.25.13s9.09-4.3,14.35-3.09c2.94.67,5.46,2.89,7.69,4.8,3.21,2.76,7,6.72,11.55,6.85a23.12,23.12,0,0,0,6.24-.74c4.13-1,7.53-1.7,10.72,1.25.26.24,1.14.06,1.44.06s2.2-.77,1.25-.77Z"/><path class="cls-5" d="M121.66,194c-6,0-14.43-.45-16.88,6.38,0,.15.07.25.19.3,7.18,3.14,13.28-1.87,18.78-6.07.46-.35,0-.61-.37-.61-4,0-12.12,11.5-7.66,14.26,5.93,3.66,14.78-8.44,9.9-13-.37-.34-1.79-.05-1.87.5-.72,5.12,1.33,9.12,6.45,10.25,3.27.72,7.64.44,9.71-2.49,4.17-5.9-11-10-14.72-10-.66,0-2.08,1.13-.78,1.13h1.07c.65,0,2.08-1,.77-1h-1.06c-.66,0-2.08.86-.78.86,4,0,9.44,2.25,12.52,4.61a3.77,3.77,0,0,1,1.63,3.2c-.13,3.47-5,3-7.15,2.71-4.81-.67-6.33-5.34-5.73-9.56l-1.87.49c3.38,3.14-.41,8.63-3.07,10.9-4.22,3.61-4.71-1.4-4-3.35a20.41,20.41,0,0,1,3.58-5.65c.84-1.07,1.75-2.07,2.68-3.06-.6.14-1.2.26-1.81.36-1.55,1.18-3.08,2.33-4.71,3.4q-3.89,2.79-8.91-.33c1.18-2.15,4-2.74,6.18-3.08a46.46,46.46,0,0,1,7.18-.21c.65,0,2.08-1,.78-1Z"/><path class="cls-5" d="M103.1,181.18c-1,1.77,1,3.26,2.54,3.46,1.77.21,3.87-1.16,3.71-3.08a2.89,2.89,0,0,0-2.7-2.26c-1.94-.14-3,1.44-3,3.21,0,1,1.94.67,1.95-.16a3.43,3.43,0,0,1,.27-1.45.64.64,0,0,1,.24-.27c-.16.1.08,0-.11,0a1.67,1.67,0,0,1,1.35,1,1.15,1.15,0,0,1-1,1.61c-.89-.05-1.91-1-1.38-1.91.25-.42-.21-.73-.58-.77a1.32,1.32,0,0,0-1.26.58Z"/><path class="cls-5" d="M137.53,181.93a2.24,2.24,0,0,0,2.21,2.12,3,3,0,0,0,3.15-2.11c.89-3.13-3.62-2.75-4.73-.76-.23.42.21.74.59.78a1.3,1.3,0,0,0,1.26-.58.89.89,0,0,1,.69-.41c.12,0,.14,0,.2,0a.84.84,0,0,1,.12.77c-.08.52-.39.93-.72.9a1,1,0,0,1-.81-.9c0-1-2-.68-2,.16Z"/></svg>