<svg id="layer1" xmlns="http://www.w3.org/2000/svg" viewBox="0 0 607.1 341.61"><defs><style>.cls-1{fill:#efc689;}.cls-2{fill:#492d0c;}</style></defs><path class="cls-1" d="M262.24,97.17a3.31,3.31,0,0,0,3.09,2,108.23,108.23,0,0,0,32.09-5.05c3.65-1.17,3.13-6.77-.81-6.86A3.41,3.41,0,0,0,293.35,84a3.28,3.28,0,0,0-.26-1.53l.24-.16a3.52,3.52,0,0,0,.69-.64c.59-.2,1.17-.42,1.76-.65A3.73,3.73,0,0,0,298,78.77c7.55-2.25,14.95-5.11,22.4-7.63,4.26-1.43,2.43-8.19-1.86-6.75-10.24,3.46-20.48,7.73-31.1,9.92a100,100,0,0,0-13.17,1.56,3,3,0,0,0-1.66.88c-1.64.21-3.27.46-4.9.76a3.25,3.25,0,0,0-2.5,3.16l-.78.12c-3,.55-3.36,5.22-.87,6.47a3.87,3.87,0,0,0,1.48,3l-2.25.32C259.34,91.12,259.64,95.87,262.24,97.17Z"/><path class="cls-1" d="M311.34,118.4a3.22,3.22,0,0,0-3.38-3.29,76.77,76.77,0,0,0-11.68,1.14c-1.49.18-3.43.32-4.43.41v-1.33a3.31,3.31,0,0,0-.28-1.25,10.78,10.78,0,0,1,2.06-6.7,7.55,7.55,0,0,1,6-2.51,53.4,53.4,0,0,0,6.69.84c2.54.1,3.78-2.48,3.32-4.52a3.44,3.44,0,0,0-3.33-4.25H291.57c-3.13,0-4.09,3.41-2.89,5.48a16.86,16.86,0,0,0-4,10,2.88,2.88,0,0,0-1.43,2,9.48,9.48,0,0,1-2.38,5,4.17,4.17,0,0,0-.93,2.83,50.16,50.16,0,0,0-11.48,4.83,3.52,3.52,0,0,0,1.77,6.52l3.56,0c-2.9,1.6-5.76,3.27-8.61,5a3.52,3.52,0,0,0,1.77,6.52h1.51a.53.53,0,0,0,.13,0l.76,0a60.09,60.09,0,0,0,10.8-1.07c2.11-.31,4.21-.66,6.3-1,3.82-.6,10.22-2.76,14-1.33,4.24,1.59,6-5.17,1.87-6.75-4-1.5-9.46,0-13.55.67a3.24,3.24,0,0,0-2-.79c2.4-1.09,4.85-2.1,7.38-3a3.42,3.42,0,0,0,2.13-4.79h.22a3.58,3.58,0,0,0,1.87-.53,102.39,102.39,0,0,0,13.81-1.24C316.16,124.64,315.07,118.57,311.34,118.4Z"/><path class="cls-1" d="M330,140.52a3.05,3.05,0,0,0,3.28,2.42h17.3a3.38,3.38,0,0,0,.93-6.63c-10.94-3.54-21.54-4.45-32.21.47-4.1,1.89-.54,8,3.53,6.11A27.3,27.3,0,0,1,330,140.52Z"/><path class="cls-1" d="M287.58,153c-1.05-.16-2.1-.3-3.15-.43a3,3,0,0,0-3.09-1.33,3.19,3.19,0,0,0-2.89-1.65,55.55,55.55,0,0,0-16.69,2.71c-1.85.19-3.7.41-5.56.7a2.85,2.85,0,0,0-2.49,2.74c-.55.28-1.09.58-1.63.89a3.34,3.34,0,0,0-1.66,3.26c-.82.24-1.64.5-2.46.77,2.47-3.55,4.9-7.11,7.27-10.72,2.21-3.37-2.74-7-5.5-4.24-10.48,10.65-18.41,23.48-26.46,36.18q-2.72,3.36-5.52,6.68a3.19,3.19,0,0,0-3-3c.91-1.62,1.82-3.24,2.75-4.85,13.9-14.3,27.28-29.92,36.53-47.61,2.08-1.73,4.24-3.37,6.47-4.89a3.69,3.69,0,0,0-1.49-6.65c-.21-2-2.54-3.75-4.48-3-13.63,5-25.3,13.58-35.75,23.51a24.42,24.42,0,0,0,2.23-7.49c8.07-2.31,15-8.31,14-16.79a36.23,36.23,0,0,1,7.33-.55c4.51,0,4.51-7,0-7-4.21,0-8.47.12-12.41,1.76-1.67.7-3.12,2.34-2.45,4.31,2.57,7.44-4.4,10.87-10.67,12.09a3.52,3.52,0,0,0-2.57,3.38c-.27,9.49-6.62,15.59-16.18,14.53a3.48,3.48,0,0,0-3.5,3.5,29.56,29.56,0,0,0,1.15,4.37c-5.27,2.45-9.55,6.53-15,8.66-1.33.52-2.76,1.74-2.57,3.37.39,3.29.63,6.85-1.91,9.34s-7.3,1.13-10.05.41a3.63,3.63,0,0,0-4,1.6c-3.47,4.64-6.85,9.37-11.21,13.22-4.94,4.39-11.63,6.39-17.85,8.14a3.46,3.46,0,0,0-2.57,3.37c.38,3.38.39,6.72-2.77,8.7s-8,1.38-11.64.92c-1.9-.24-3.38,1.77-3.38,3.5v8.28c0,.07-.27.13-.34.19a23.74,23.74,0,0,0-4.12,1.26c-2.16.88-4.68,2.92-7,3.17A3.56,3.56,0,0,0,98,230.83a16.24,16.24,0,0,1-3.68,7.59,84.75,84.75,0,0,1-11.93,6.36c-4.06,1.7-2.67,7.75,1.86,6.75a31.2,31.2,0,0,0,10.4-4.25c-.79,2.9,3,5.76,5.91,3.35,4.66-3.92,9.13-8.09,13.53-12.33a3.85,3.85,0,0,0,6.14,2.49c2.35-1.87,4.73-3.71,7.11-5.55.29,2.46,3.57,4.49,6,2.27,6-5.57,12.27-10.81,18.68-15.92-.18,2.8,3.39,5.35,5.92,2.8,17.76-18.69,37.92-35,56.71-52.56-.94,1.55-1.88,3.1-2.8,4.67-2,2-4,4-5.92,6-5.34,5.35-10.83,10.55-16.39,15.67-15.69,10.74-29.28,25-43.11,37.68-3.35,3.09,1.56,7.86,5,4.95l.88-.75c-1.6,2.76,1.92,5.93,5,4.58q2.55-1.12,5-2.42c-1.48,1.68-2.93,3.38-4.34,5.12a3.5,3.5,0,0,0,4.95,5Q176,241.62,188.25,230a2.78,2.78,0,0,0,3.41-.1C204,221,213,209.38,221.24,197.12l.57-.54h0a3.53,3.53,0,0,0,2.51,5.87c1.82.14,3.65.23,5.47.3-3,1.43-6,3-8.88,4.66a3.3,3.3,0,0,0-1.62,2.3c-.82.19-1.64.4-2.46.62-3.82,1-3,6.9.93,6.88,1.42,0,2.83,0,4.24-.08a105.33,105.33,0,0,0-14.21,6.68,3.33,3.33,0,0,0-1.61,3.63c-.83.29-1.65.6-2.47.93-2.74,1.12-3.87,6.22,0,6.75,3,.42,6.06.75,9.1,1a59.91,59.91,0,0,0-10.15,3.61,3.58,3.58,0,0,0-3.87-1.55c-5.44,1.26-9.3,1.88-14,5.27-2.39,1.74-2.27,5.48.83,6.4,1.65.49,3.31.93,5,1.34a15.84,15.84,0,0,0-1,5.17,3.56,3.56,0,0,0,3.5,3.54h3.28a3.6,3.6,0,0,0,3.38-2.61c.42-1.35.77-2.73,1.08-4.1,1.78.27,3.57.48,5.37.67a3.42,3.42,0,0,0,3.29,2.68c23.86.09,47.83,3.07,71.45-1.77,4-.81,2.93-6.84-.93-6.87-3.51,0-7-.38-10.5-.6a3.32,3.32,0,0,0-2.62-1.4h-5.38a3,3,0,0,0-2.82-1.46A263,263,0,0,0,220,247.63a140.36,140.36,0,0,1-15.09-1c1-.47,1.91-.87,2.8-1.24,8.32-3.44,17.76-5,26.64-6.11,16.31-2.11,32.47-2.42,49.47-2.42,4,0,4-7,0-7-2,0-3.74-.17-5.49-.18a3.71,3.71,0,0,0-3.19-1.78H253.85a3.4,3.4,0,0,0-2.74,1.66c-1.84.09-3.68,0-5.53.1,2.85-1.41,2.33-6.76-1.57-6.76H225.38c6.51-2,13.33-4.13,20.27-5.53,13.16-.19,26.27-2.22,39.36-3.57,4.39-.45,4.6-6.92,0-6.9-2.78,0-5.6.07-8.43.18a3.15,3.15,0,0,0-3.05-1.82c-9,0-18.06.18-26.89,1.64h-9a131,131,0,0,1,13.55-4.79,210.12,210.12,0,0,0,34.77-6.37c3.73-1,3.08-7.23-.93-6.88a194.77,194.77,0,0,0-27.08,4.27c1.86-2,.93-6-2.44-5.91a52.29,52.29,0,0,0-9,1.08c1-.31,2-.61,3.08-.87a149.46,149.46,0,0,0,16.72-1.53c2.74-.43,3-3.08,1.9-5,3.6-.86,7.2-1.69,10.83-2.37l6-.74c4.34-.54,4.64-7,0-7l-1.5,0-.14,0c-12.95,0-26.06,0-38.65,3.41a3.28,3.28,0,0,0-2.48,3.17,70.14,70.14,0,0,0-8.2,3.74A3.15,3.15,0,0,0,232.5,183a3.2,3.2,0,0,0-.55-.87q6.3-8,12.25-16.23a3,3,0,0,0,4,2c12.73-4.57,26.28-5.08,39.36-8.2C290.78,158.93,291.07,153.49,287.58,153Zm-39.16-24.17c-1.14,1-2.26,2-3.35,3a3.69,3.69,0,0,0-1.77-.18Q245.81,130.11,248.42,128.78Zm-22.15,21.84q-4.64,4.95-9.49,9.69a3.14,3.14,0,0,0-1.92-.94C218.58,156.35,222.38,153.42,226.27,150.62Zm-88.6,55.89a15.17,15.17,0,0,0,.1-1.68c1.06-.32,2.12-.66,3.17-1C139.84,204.7,138.75,205.6,137.67,206.51Zm40-22.65c-.81.64-1.63,1.26-2.43,1.9q-6.68,4.45-13.27,9.07a3.62,3.62,0,0,0-2.52-2.6,110.47,110.47,0,0,0,7.24-9c4.75.93,9.85.91,13.82-2.21.21-.17.41-.35.61-.53Zm21.93-21.09-1.26,1.52c-5.65,5-11.16,10.26-16.6,15.57,2.94-3.09,3.77-7.37,3.59-11.6,5.18-2.74,9.62-6.85,15.3-8.56,1.35-.41,2.77-1.83,2.57-3.38a17.16,17.16,0,0,0-.73-3,19.94,19.94,0,0,0,7.09-1.92C206.16,155.13,202.84,159,199.63,162.77ZM197,204.12c-8.07,5.93-16.13,11.87-24,18.06q10.71-9.3,21.18-18.87c1.56-1.05,3.14-2.05,4.75-3C198.3,201.57,197.65,202.84,197,204.12Zm35.57-18.79a3.83,3.83,0,0,0,.35.74c-.39.17-.76.35-1.14.53A4.2,4.2,0,0,0,232.58,185.33Z"/><path class="cls-1" d="M322,85.72s-.11,0-.11,0h0a4,4,0,0,0-.85-.13c-4-.53-4.57,5.84-.89,6.87a128.18,128.18,0,0,0,33.75,5.05,3.26,3.26,0,0,0,.95-.15q2,.12,4,.15c2.63,0,3.94-2.87,3.26-4.93H367c4.51,0,4.51-7,0-7-2.07,0-4.14-.09-6.21-.18a3.71,3.71,0,0,0,.49-5.36,11.56,11.56,0,0,1-1.4-1.72l-.64-1c-.06-.17-.13-.31-.19-.44a3.81,3.81,0,0,0-5.3-4,3.54,3.54,0,0,0-2.07,4.44A65,65,0,0,1,345,75.87c-4.39-1.29-6,5.22-1.86,6.75.79.3,1.56.63,2.32,1a50.39,50.39,0,0,1-13.58-2.81c-3.75-1.39-5.51,3.61-3.1,5.95C326.52,86.38,324.2,86,322,85.72Z"/><path class="cls-1" d="M541.66,239.12a3.65,3.65,0,0,0-5.82,1.31,28.2,28.2,0,0,0-2.38-3,2.83,2.83,0,0,0-.37-.32c-1.93-5-4.92-10.54-10.3-10.54a3.54,3.54,0,0,0-3.43,2.8c-10.73-5.37-18-16.56-27.6-23.64a3.05,3.05,0,0,0-1.61-.64,4.15,4.15,0,0,0-.42-1.39l-4.92-9.84c-1.29-2.58-5.9-2.13-6.39.84a1.85,1.85,0,0,0,0,.23c-.46-.23-.91-.46-1.38-.68a3.81,3.81,0,0,0-2.07-.39c-4-3.19-8.59-5.79-12.49-9.34.71-2.48-1.1-3.53-1.87-6.22-1-3.57-6.28-3.12-6.82.31-.58-.28-1.15-.59-1.7-.9a2.82,2.82,0,0,0,0-3.52c-.18-.24-.38-.47-.56-.7h0l-.09-.09a48,48,0,0,0-7.54-7.54l-2.21-2.21a3.38,3.38,0,0,0-2.05-1l-1.32-.92c-4.64-3.16-9.45-6.09-13.13-10.25q-1.36-1.72-2.63-3.53a3.68,3.68,0,0,0-5.86-.26q-10.32-8.61-20.93-16.85a3.5,3.5,0,0,0-4.95,5q2.43,3.12,4.93,6.16c-4.07-4.15-8.18-8.27-12.42-12.25-8.88-8.31-18.6-16.69-30.1-21.08a2.83,2.83,0,0,0-3.54,1c-1.79-1.35-3.6-2.66-5.46-3.93-3.27-2.21-7.38,3.05-4.24,5.5a113.53,113.53,0,0,1,9.66,8.64,3.72,3.72,0,0,0,.18,4.48c.76,1,1.53,1.94,2.3,2.9a3.58,3.58,0,0,0-1.21,4.59c4.79,10.06,12.74,17.57,20.94,24.9a4.16,4.16,0,0,0-.72.61c-12.3-.84-24.52-2.8-36.88-2.9-4.51,0-4.51,7,0,7,13.37.1,26.58,2.41,39.91,3.09a38.44,38.44,0,0,0,4.57,1.56c1.2.35,2.67.67,3.34,1.82a3.17,3.17,0,0,0,3.45,1.64,3.34,3.34,0,0,0-2.18,4.13c-8.78-1.52-18.51.12-27.18.73-4.19.29-8.38.55-12.58.65l-.21,0c-1.64-.24-3.27-.5-4.91-.78a3.53,3.53,0,0,0-3,.77c-2.74-.13-5.58-.53-7.68-2.06-3.66-2.66-7.15,3.42-3.53,6,5.2,3.79,13.31,3.75,20.51,3.25,15.49,2.06,31.17,2.63,46.64,4.92a35.27,35.27,0,0,0,6.47,11.55c-23.83-.06-47.51-1.83-70.93-6.43-4.41-.87-6.28,5.87-1.86,6.75a381.26,381.26,0,0,0,73.09,6.68,3.25,3.25,0,0,0,3.35-3.13c.77.72,1.55,1.43,2.37,2.1a4,4,0,0,0,1.09.64,32.84,32.84,0,0,0,8.32,9.47c3.36,7.12,8.2,13.47,15.21,16.72A38,38,0,0,0,436.33,242c.12.15.23.3.35.44a3.31,3.31,0,0,0,1.14.92A48.89,48.89,0,0,0,444,247.9a3.54,3.54,0,0,0,5.14-2.09c.16-.53.3-1.06.44-1.59a41.34,41.34,0,0,0,10,5.67,2.87,2.87,0,0,0,3.67-1.31q3.07,2.73,6.27,5.33c3.47,2.82,8.46-2.1,4.95-4.95-6.68-5.41-12.89-11.34-19-17.38a36.94,36.94,0,0,0-5.6-5.58,4.24,4.24,0,0,0-1.19-.65,33.45,33.45,0,0,0-7-10.83,3.52,3.52,0,0,0-5.09.18A37.26,37.26,0,0,0,426.87,203a3.43,3.43,0,0,0-5.09.35c-1.51-7.62-6.81-14.15-13.66-18.93a2.9,2.9,0,0,0-2.18-.49c-.46-1-.94-2.09-1.48-3.18-1.12-2.26-3.3-2.17-4.81-1l-.21-.26a3,3,0,0,0,.16-3.55c.88.83,1.75,1.68,2.64,2.5,3.28,3,7.32-1.12,5.23-4.53q7.44,6,15,11.76c14.82,12.47,29.38,25.33,45.64,35.67a311.58,311.58,0,0,1,24.3,22.69c2.79,2.94,7.4-.81,5.49-4.24-1.2-2.17-2.48-4.29-3.8-6.38,2.16,2.46,4.32,4.91,6.51,7.34,1.5,1.68,3.88,1.08,5.18-.34l.35.32c1.48,1.61,2.92,3.24,4.3,4.94a2.83,2.83,0,0,0,2.78,1.09c2,1.54,4,3,6.13,4.38a3.2,3.2,0,0,0,4.53-1.05,35.52,35.52,0,0,0,14.35,6.32A3.92,3.92,0,0,0,542,255a19.36,19.36,0,0,0,3.71-.08c1.7-.21,3.75-1.45,3.5-3.5C548.62,246.38,545.14,242.62,541.66,239.12ZM384.22,144.23a269,269,0,0,0-18-20.1c4.68,3.62,9.05,7.7,13.23,11.62,5.53,5.18,10.81,10.61,16.07,16.06A65.29,65.29,0,0,1,384.22,144.23Zm54.89,87.31a35.09,35.09,0,0,0,4.37,6.83c0,.19,0,.39-.05.58-.52-.42-1-.86-1.52-1.3-1-2-1.9-3.94-2.89-5.85A2.67,2.67,0,0,0,439.11,231.54Zm-25.62-31.1a3.77,3.77,0,0,0-.75,0c-.46-1.07-.87-2.16-1.23-3.28A21.14,21.14,0,0,1,413.49,200.44Zm-5.07-37.5a3.84,3.84,0,0,0,3.07-2.9c3.81,4.1,7.71,8.13,11.66,12.1A109.69,109.69,0,0,0,408.42,162.94Zm17.63,2.17q7,6.21,13.77,12.66c5.06,4.83,10.1,9.79,15,14.93C445,183.69,435.36,174.56,426.05,165.11Z"/><path class="cls-1" d="M420.85,229.9c-30,0-60-.15-89.13-8.08-4.36-1.18-6.27,5.57-1.92,6.75,29.73,8.1,61.05,8.33,91.05,8.33A3.51,3.51,0,1,0,420.85,229.9Z"/><path class="cls-2" d="M75.9,255.17a121.75,121.75,0,0,1,1.85-17.56l-1.34.67c4.67.12,13.63,2,17.6-1.67,4.46-4.14.42-12.89,8.55-13.75,3.72-.39,9.45-.12,11.2-4.26a60.24,60.24,0,0,0,2.91-8.75c1.09-4.36,11-2.08,14.06-1.17.61.18,2.27-.72,1.18-1.05-5-1.51-11.52-2.33-16.17.85-1.2.82-1.29,2.83-1.63,4.08-1.23,4.53-2.18,8.05-7.25,8.76-4.25.59-9-.15-10.92,4.36a53.31,53.31,0,0,0-2.48,8.91c-1.15,4.87-12.66,2.69-16.3,2.59-.39,0-1.26.18-1.34.67A120.49,120.49,0,0,0,74,255.41c0,.81,1.92.4,1.93-.24Z"/><path class="cls-2" d="M132.23,206.39a43.54,43.54,0,0,0,3.18-7.56c.5-1.5.93-3,1.41-4.53.9-2.88,1.62-2.08,4.23-1.92,4.45.25,8.93.43,13.14-1.23,3.39-1.33,4.23-4.37,4.52-7.66.23-2.69-.14-8.68,3.68-9.23,2.71-.39,5.61.26,8.33.36.87,0,2-1.28.69-1.33-4.63-.16-12.08-2.29-13.77,3.84-1.2,4.34.36,10.46-4.28,13s-11.23.83-16.15.75c-.41,0-1.09.11-1.26.57-1.86,4.95-3,10.13-5.55,14.79-.51.92,1.45.86,1.83.17Z"/><path class="cls-2" d="M173,173.87c.89-3.35,1.44-6.87,2.75-10.09,1.79-4.4,6.66-4.59,10.72-5.06,6.2-.71,5.49-4.29,7.49-8.95,2.46-5.74,7.87-2.92,12.09-4.49a8.27,8.27,0,0,0,5.42-5.93c1.34-4.88,1-10.4,7.9-10.65,2.57-.09,6-.82,8-2.69,4.4-4.33-.49-11,5.53-15.26,6.35-4.46,16.77-3.87,24.19-4.62,8.92-.89,17.91-3.41,26.51-5.79,3.47-1,6.73-2.24,10.08-3.52,3.78-1.44,9.65-4.16,13.69-2.66.77.29,2.27-.81,1.13-1.24-5.43-2-12.79,1.72-17.77,3.67a136.93,136.93,0,0,1-32.39,8.1c-7.57.92-15.65.74-22.88,3.44-6.6,2.47-8.36,6.8-8.22,13.57.12,6-6.73,4.88-10.74,5.89a8.43,8.43,0,0,0-5.39,4.67c-2.75,6-.2,12.21-10.08,12.13a9.53,9.53,0,0,0-7.62,3.33c-1.73,1.82-2,4.34-2.53,6.68-.82,3.89-9.43,3.32-12.8,4.83-5.31,2.38-5.71,10-7,14.81-.23.88,1.74.63,2-.17Z"/><path class="cls-2" d="M258.77,95.14c20.62-1.56,38.28-17,59.3-15,18.16,1.65,33.87,13.51,52.54,12.28,1.07-.07,1.51-1.44.19-1.35-19.31,1.27-36-11.44-55.05-12.5-20-1.11-37.11,13.78-56.79,15.27-1.06.08-1.51,1.45-.19,1.35Z"/><path class="cls-2" d="M259.05,91.46c4.87-1.37,9.82-2.18,14.79-3.06s9.73-2.49,14.64-3.9c9.2-2.65,17.76-7.12,27.11-9.34,10-2.39,21.27,2.16,31.1,3.86,8.68,1.5,16.6,5.72,25.54,6,1,0,2-1.4.65-1.44-9.38-.3-17.94-4.69-27.1-6.28-9.6-1.65-18.73-4.63-28.6-3.9-9.22.69-18.76,6.3-27.38,9.2C279.56,86,269,87.18,258.69,90.08c-1.2.34-.83,1.71.36,1.38Z"/><path class="cls-2" d="M262.43,81.75c4.58-4,14.09-4.23,19.78-5.32,7.84-1.5,15.43-3.89,23.17-5.84,11.16-2.81,22-3.66,33.33-1.41,10.75,2.13,20.81,7.4,31.42,10.17.73.19,2.29-.89,1.15-1.19-11.85-3.09-23-8.75-35.09-10.84-9.94-1.72-19.77-.55-29.51,1.73-9.12,2.13-18,4.93-27.2,6.69-5.75,1.09-14,1.54-18.63,5.56-.88.76,1,.94,1.58.45Z"/><path class="cls-2" d="M260.52,75.06c18.28-9.77,40.3-8.46,59-17.47,1.15-.55-.67-.39-1.09-.18-18.8,9.06-40.87,7.78-59.34,17.65-.8.43,1.14.17,1.46,0Z"/><path class="cls-2" d="M317.67,59.06c5.06.86,9.86,2.65,14.82,3.92a95,95,0,0,0,12.68,1.84c9.26,1.07,19,2.23,26.63,8,.61.46,2.35-.42,1.51-1C366.26,66.47,357.52,65,349,63.91c-5.12-.66-10.29-1-15.34-2.14s-10-3.11-15.26-4c-.87-.15-2,1.06-.7,1.28Z"/><path class="cls-2" d="M258.81,82.52c0,2.89-.12,6.39,1.95,8.68.6.67,2.43-.12,1.76-.86-1.89-2.1-1.75-5.31-1.75-8,0-1-2-.76-2,.14Z"/><path class="cls-2" d="M259.75,77.16c.55,4.63.25,9.34.23,14,0,3.71-.41,8.61,1.62,11.9.27.44,2-.32,1.93-.51-2-3.31-1.6-8.18-1.62-11.9,0-4.65.32-9.35-.23-14,0-.31-2,.07-1.93.51Z"/><path class="cls-2" d="M371.85,73.29v29.57c0,1,2,.7,2-.15V73.13c0-1-2-.7-2,.16Z"/><path class="cls-2" d="M340.16,89c.06,3.1.87,6.13.92,9.24,0,.93,1.95.57,1.95-.19a27.28,27.28,0,0,0-.93-8.25c-.44.3-.88.12-1.32,1.12h5.54c-.2-1-.41-.59-.62-.77a27.27,27.27,0,0,1-.92,8.2c.64-.11,1.29-.29,1.94-.41-.93-1.85-1.93-3.72-2.85-5.57-.32-.64-2-.45-2,.32v5.55c1-.06,1.38-.13,2-.19a13.52,13.52,0,0,0-.9-5.71c-.35-.78-2-.31-1.91.52.09,1.6.85,3,.93,4.62,0,.76,2,.33,1.94-.52-.09-1.6-.84-3-.92-4.62l-1.93.52a12.77,12.77,0,0,1,.87,5.38c0,.93,1.89.57,1.89-.19V92.52a18.52,18.52,0,0,0-1.89.36c.93,1.85,1.88,3.69,2.8,5.54.37.74,1.74.34,1.95-.35a28.64,28.64,0,0,0,.93-8.45.67.67,0,0,0-.61-.68h-5.55c-.4,0-1.51.38-1.32,1a27.73,27.73,0,0,1,.92,8.22c.65-.06,1.3-.09,1.95-.15,0-3.12-.87-6.13-.93-9.23,0-.93-2-.55-1.94.21Z"/><path class="cls-2" d="M296.85,86.23V92.7c0,1,2,.64,2-.17V87.91c-1,.25-.81.5-1.16.75,1.28-.09,2.6-.83,3.87-.92-.29-.2-.71-.39-.71-.58v4.62a7.13,7.13,0,0,1,1.72-.34c-.09-1.23-1-2.46-1-3.73,0-.49-.57-.77-1-.77h-.93c-.35,0-.78.7-.78,1.14v3.7c0,1,2,.63,2-.17v-3.7c-1,.25-1.05,0-1.41,1h.92c-.29,0-.58-.52-.87-.72a6.42,6.42,0,0,0,.35,2c.21.61.78,1.12.83,1.77s2.18.35,2.18-.38V87c0-.48-.71-.61-1.12-.58-1.28.09-2.48.83-3.75.92-.35,0-1.13.29-1.13.75V92.7c0,1,2,.64,2-.17V86.06c0-1-2-.63-2,.17Z"/><path class="cls-2" d="M283.85,91V97.5a13.39,13.39,0,0,0,1.9-.52c-.56-2.4-.69-5.88,2.12-6.92l-1.31,0c.07,2.12,1.06,4.34.2,6.39a18.17,18.17,0,0,1,2.09-.43V89.59c0-.31-2,0-2,.51v4.63c0,.3,2,0,2-.52V89.59c0-.31-2,0-2,.51v6.47c0,.38,1.63-.08,1.77-.43.89-2.11,0-4.37-.06-6.55,0-.34-1.21,0-1.33,0-3.52,1.31-4.15,4.45-3.36,7.87.1.41,2,0,2-.52V90.51c0-.3-2,0-2,.52Z"/><path class="cls-2" d="M274.85,94.59v5.54c0,.81,1.76.4,1.78-.24.06-1.6.79-3,.84-4.62-.44.22-1,.67-1.42.67H277c.32,0,.87-.18.87-.67v-.92a7.12,7.12,0,0,1-1.69.38c.12,1.2,1.22,2.08,2,2.89.36.36,1.92.12,1.92-.5,0-.32.27-1.24-.14-1.19.93-.11,1.61-1.23.27-1.07-1.53.18-2,1-2,2.5l1.87-.5a4.47,4.47,0,0,1-1.55-2.65c-.07-.63-1.7-.21-1.7.38v.92c0-.22.43-.57.88-.57h-.93c-.33,0-1.32.13-1.34.62,0,1.6-.67,3-.73,4.6.65-.08,1.12-.19,2.12-.27V94.35c0-.81-2-.4-2,.24Z"/><path class="cls-2" d="M103.54,251.54c12.8-10.87,24.31-23.12,36.16-35,12.53-12.57,25.84-24.33,38.4-36.89,12.36-12.37,24.42-25,36.7-37.49,11.49-11.65,25.17-21.34,35.71-33.89.43-.51-1.45-.27-1.76.1-10.16,12.1-23.31,21.39-34.41,32.58-12.75,12.86-25.23,26-38,38.8-12.11,12.16-24.94,23.53-37.11,35.61-12.34,12.24-24.18,25-37.45,36.28-.45.39,1.39.21,1.76-.11Z"/><path class="cls-2" d="M144.22,253.4c6.74-6,12.57-13,18.48-19.81,6.51-7.52,13.83-14.34,20.8-21.44,13.82-14.08,26.33-29.31,40.33-43.22,13.25-13.17,27.19-25.61,40.21-39,5.33-5.48,10.18-11.61,15.24-17.36,4.29-4.87,8.7-9.83,12-15.48.19-.33-1.62-.2-1.91.32-3.47,6-8.27,11.21-12.83,16.39-5.13,5.83-10.08,11.95-15.49,17.52-13,13.39-27,25.82-40.23,39-13.57,13.48-25.68,28.28-39.06,42-6.51,6.66-13.43,13-19.56,20-6.37,7.27-12.5,14.77-19.72,21.23-.47.42,1.39.24,1.77-.09Z"/><path class="cls-2" d="M137.65,247.2c15.52-13.78,31.28-27.33,45.25-42.72,14.4-15.86,28.71-31.34,44.52-45.83,12.66-11.6,26-22.52,38.39-34.37a181.85,181.85,0,0,0,13.74-14.43c1.93-2.29,5.53-5.89,5.24-9.17-.07-.76-2-.32-1.93.52.34,3.84-5.4,8.87-7.67,11.41-4.14,4.64-8.59,9-13.13,13.28-12.66,11.89-26.09,23-38.88,34.76-15.32,14.1-29.08,29.31-43.06,44.71-13.55,14.93-29,28-44.05,41.39-.87.78,1,.93,1.58.45Z"/><path class="cls-2" d="M279.73,112.48c10.62-.31,20.26-5.29,30.74-6.49.85-.1,1.67-1,.32-.86-10.31,1.19-19.83,6.14-30.26,6.45-.59,0-2.1.94-.8.9Z"/><path class="cls-2" d="M312.36,105.83c-.55.68.19.27,1.1.33s1.92.15,2.88.25c2.92.28,5.83.65,8.74,1,4.58.56,9.25,1.47,13.86,1.6.92,0,2-1.34.68-1.38-5.65-.16-11.37-1.31-17-2-2.07-.25-10.21-2.48-11.9-.38-.77,1,1.07,1.22,1.61.55Z"/><path class="cls-2" d="M267.08,130.23c13.06-.18,26-3.65,38.82-5.55,1-.15,1.53-1.47.21-1.27-12.87,1.89-25.76,5.36-38.82,5.54-1.05,0-1.53,1.3-.21,1.28Z"/><path class="cls-2" d="M308.22,124.7c12,3.79,24.74,3.76,37.2,4.68.95.07,2-1.33.66-1.43-12.29-.9-24.88-.83-36.75-4.57-.84-.26-2.27,1-1.11,1.32Z"/><path class="cls-2" d="M247,151.49c9.66-3.06,19.78-4,29.65-6.14,10.25-2.24,20.17-6.44,30.85-5.83.91,0,2-1.3.67-1.37-9.41-.54-18.42,2.36-27.4,4.8-11.24,3.05-23,3.74-34.11,7.26-1.16.37-.84,1.65.34,1.28Z"/><path class="cls-2" d="M308.18,140.24c17.31,3.91,35.26,3.69,52.89,4.63.66,0,2.08-.91.78-1-17.49-.94-35.29-.73-52.47-4.61-.54-.12-2.26.72-1.2,1Z"/><path class="cls-2" d="M215,204c16.47-.25,32.15-6,48.53-7.14,12.31-.82,25.53.44,37.26-4.11,1.27-.49.09-1-.74-.7C288.38,196.64,275,195,262.65,196c-15.79,1.25-30.93,6.79-46.84,7-.65,0-2.07,1-.77,1Z"/><path class="cls-2" d="M301.94,193.94c17.17.12,34.05,3.4,51.08,5.18,8,.83,15.85,2,23.84,2.19,8.25.25,16.66-.36,24.51,2.71.61.23,2.36-.64,1.53-1-6-2.35-12.47-2.72-18.88-2.84-8.92-.17-17.62-.78-26.48-1.81-18.2-2.12-36.5-5.48-54.86-5.61-.76,0-2.05,1.14-.74,1.15Z"/><path class="cls-2" d="M184.75,252c-2.44-1.49,1.28-9.06,2-10.68,1.12-2.46,2.42-4.85,5.28-5.61a40.63,40.63,0,0,0,4.35-1.08c2.39-.93,4.46-4.17,5-6.54.48-2,.73-4,1.19-6.05.72-3.13,5.07-4.2,7.5-5.75,2.74-1.76,3.51-4.26,4-7.27a13.26,13.26,0,0,1,2.95-7.14c1.1-1.29,2.77-1.89,4-3.07a14.35,14.35,0,0,0,3.81-8.9c.34-3.41,1.23-6.78,5-8,2.15-.71,4.66-.2,6.75-1.24,3.31-1.64,4.21-3.75,4.34-7.47.16-4.35.74-7.92,5.66-9.58a14,14,0,0,0,3.7-1.45c2.54-1.82,3-3.62,2.78-6.67-.2-3.32-1.47-10.6,4.63-10.41a11.19,11.19,0,0,0,4.15-.45c2.58-.86,3.94-3.57,4.55-6,.72-2.84,0-5.53,2.56-7.72,1.72-1.48,4.38-1.93,6.34-3.1,3.73-2.21,5-8.29,6.54-12q1.76-4.22,3.73-8.32c.82-1.7,1.74-3.35,2.68-5,0-.08,2.53-5,.36-2.74-.84.86,1,1.07,1.6.5a7.56,7.56,0,0,0,1-1.15c.14-.19.28-.45.09-.66l-.13-.15a1.18,1.18,0,0,0-1.3-.11c-3.57,1.48-5.41,7.55-7,10.8-2.68,5.56-4.7,16.26-10.69,18.93-2.92,1.3-6.36,2.32-7.09,5.92-.5,2.46-.46,4.87-1.47,7.22-1.82,4.22-4.71,2.12-7.52,2.76a6.84,6.84,0,0,0-5.12,5.5,20.11,20.11,0,0,0,0,5.37c.31,3.21.83,5.73-3.64,7.34-.81.29-1.67.46-2.46.8a9.4,9.4,0,0,0-5.87,7.76c-.56,4.07,1.45,8.31-5.39,9.49-1.86.32-3.79.24-5.55,1-3.14,1.46-4.6,4.45-5.06,7.7a27.86,27.86,0,0,1-1.68,6.86c-1,2.5-3.24,3.25-5,4.92-3,2.83-3.68,5.74-4.31,9.73-.59,3.73-3.31,5.45-6.5,7-1.21.6-3.26,1.5-3.91,2.73-2.59,4.93-.82,12.86-8.5,14.14-2.59.44-4.54,1.09-6.06,3.31-1.62,2.39-7.76,13.07-3.76,15.51.67.41,2.4-.52,1.5-1.06Z"/><path class="cls-2" d="M475.13,252.16c-22.55-24.71-44.79-49.7-67.21-74.52-11-12.14-21.94-24.3-33.05-36.32-12.84-13.89-25.54-28.32-39.6-41-1.7-1.53-3.47-3-5.26-4.41-.49-.39-2.26.36-1.8.73,15.8,12.63,29.23,28.56,43,43.36,10.71,11.53,21.25,23.22,31.81,34.9,23,25.43,45.81,51,68.88,76.38l1.43,1.56c.41.46,2.24-.23,1.8-.72Z"/><path class="cls-2" d="M314.2,91.94c.46-.57,10.77,2,12.16,2.16,8.16,1,16.34,3.8,24.37,5.6,4.41,1,8.67,2.62,13,3.82,2.74.76,6.46,2,9.22.7,1.2-.57.12-1.47-.83-1-2.27,1.08-6.16-.59-8.38-1.2-2.61-.73-5.19-1.58-7.78-2.38-6.66-2.07-13.6-3.31-20.37-5-5.29-1.3-10.49-2.06-15.85-3-1.54-.27-5.83-1.78-7.16-.17-.76.93,1.09,1.1,1.6.49Z"/><path class="cls-2" d="M370.72,105.9c7.42,4.16,13,11.28,18.66,17.44S401.07,135.9,407,142.08c12.53,13,25.61,25.3,37.79,38.63s23.86,26.68,36.44,39.42c6.16,6.25,13.05,11.86,19.74,17.54,3.33,2.83,6.68,5.63,10,8.44l5.68,4.77c.53.45,4.93,4.91,5.06,4.89-.57.06-2.09,1-.81.89,1.63-.15,2.18-.08,3.14-1.41.07-.1.14-.2,0-.3-13.29-11.36-26.9-22.34-39.75-34.2-13.07-12.08-24.54-26.2-36.5-39.36-12.13-13.36-25.13-25.75-37.71-38.65-6-6.16-11.88-12.44-17.72-18.74-6.09-6.57-12-14.35-19.9-18.79-.52-.29-2.16.5-1.82.69Z"/><path class="cls-2" d="M435.45,255.18a53.43,53.43,0,0,0-3.7-20.48.61.61,0,0,0-.6-.31c-4.28,0-8.23.36-11.56-2.87S417,224,416.24,220c-1.12-5.9-8.4-5.47-12-8.59-4.06-3.51-.78-12.49-6.48-15.38a5.2,5.2,0,0,0-2.13-.43c-3-.23-3.94-1.9-4.65-4.72-1-3.95,0-8.37.13-12.39,0-.54-.74-.49-1.1-.39.29-.08-4.44.77-4.44-.53,0-.33-.29-.46-.6-.46s-1.78-11.26-2.51-12.94c-1.48-3.41-4.52-4-7.82-4.23-7.59-.49-4.91-8.19-8.85-12.6-2.08-2.32-6-1.36-8.7-1.79-7.48-1.19-5-9-6.86-14-1.6-4.32-5.67-5.41-8.95-8-4.59-3.67-2.41-10.12-5.7-14.63-2.93-4-1.9-9.68-6.59-12.11-.59-.3-2.36.53-1.54,1,3,1.54,3.14,3.64,3.63,6.58a12.61,12.61,0,0,0,2.71,5.34c3.41,4.67,1.35,10.27,5.7,14.63,3.51,3.52,7.32,3.75,9.28,9.06,1.54,4.13-.37,8,3.13,11.47,2,2,5.46,2.11,8.11,2.09,3.19,0,4.6,1.55,6.06,4.22,1.06,1.91.13,4.53,1.25,6.47,2.84,4.91,8,1.9,11.92,5.28,3.68,3.19,2.93,10.7,3.47,15,0,.24.42.31.6.31.65,0,.32-.16.32.47,0,.35.29.43.6.46,2.33.22,3.84.56,6.05-.06l-1.1-.4c-.12,4.78-2.8,17.45,4.72,18,8.79.66,3.69,14,11,16.77,4.61,1.72,9.16,3.66,9.71,9.11.44,4.3.88,9.07,5.22,11.43a12.75,12.75,0,0,0,4.38,1.43c1.57.23,5.41-.71,6.18,1.15,2.47,6,3.07,12.39,3.12,18.82,0,.84,1.95.43,1.94-.23Z"/><path class="cls-2" d="M305.71,235.34c2.08-1.66,5.74-1.48,8.27-1.62,3.65-.2,7.32-.11,11,0,9.14.19,18.28.3,27.43.58,10.58.31,21.16.49,31.73-.08,11.52-.61,22.81-2.51,34.31-.43.88.16,2-1.06.7-1.3-11-2-21.84-.5-32.84.32-13,1-26.09.41-39.11,0q-13.44-.4-26.9-.48c-4.57,0-11.95-.83-15.81,2.26-1,.82.55,1.33,1.25.77Z"/><path class="cls-2" d="M197.3,237.12c6.19-2.52,15.25-.75,21.82-.77,9.26,0,18.39-.8,27.61-1.34,17.16-1,34.32,1.17,51.49.42.61,0,2.08-1,.79-1-19.11.83-38.21-1.67-57.31,0a286.26,286.26,0,0,1-28.85.91c-5.37-.07-11.15-1-16.27,1.1-1.26.51-.09,1,.72.63Z"/><path class="cls-2" d="M404.37,213.19c-16.13-.86-32.14,2.84-48.28,2.77-18.38-.09-36.73-1.11-55-2.75-.55-.05-2.26.88-1.2,1,17.16,1.54,34.35,2.51,51.58,2.74,17.44.24,34.78-3.65,52.15-2.73.68,0,2.08-.94.78-1Z"/><path class="cls-2" d="M206.58,219.71c7.09-2.93,15.07-2.34,22.56-2a154.17,154.17,0,0,0,18.74,0c8.26-.58,16.55-.72,24.81-1.27,8.88-.59,17.53-3,26.49-2.13.82.08,2-1.09.72-1.22-7.87-.75-15.59.83-23.36,1.86-9.36,1.24-19,1-28.43,1.55-8.25.52-16.29,0-24.54-.22-6-.17-12.15.17-17.79,2.5-1.23.51-.11,1.31.8.93Z"/><path class="cls-2" d="M233,183.52c1.86.95,5.38-.13,7.28-.38,4.75-.64,9.48-1.45,14.24-2.07,16.08-2.08,32.19-3.85,48.29-5.81.48-.06,2.11-.91.85-.76-8.18,1-16.37,1.76-24.56,2.63-7,.76-14.13,2.46-21.15,2.93-3.58.24-7.15.89-10.7,1.43-2.36.36-4.73.71-7.1,1-1.28.18-4.11,1-5.33.36-.49-.25-2,.55-1.82.65Z"/><path class="cls-2" d="M307.48,176.34c13.94.18,28.08,2.92,41.94,4.46,4.87.54,9.77,1.43,14.68,1.22,3.37-.15,10.54-2.07,13.1.63.46.48,2.29-.23,1.8-.75-1.89-2-5.69-1.46-8.13-1.35a114.76,114.76,0,0,1-18.34-.57c-14.64-1.63-29.55-4.52-44.3-4.71-.71,0-2.06,1-.75,1.07Z"/><path class="cls-2" d="M251.35,163.43c5.56-.53,11.2-2.4,16.64-3.61,4.5-1,9.06-1.52,13.59-2.35,7.09-1.31,14-2.82,21.29-2.34.78.05,2-1.08.73-1.16-10.56-.69-22,1.86-32.32,4-6.46,1.37-13.1,3.67-19.68,4.3-1,.1-1.58,1.27-.25,1.14Z"/><path class="cls-2" d="M308.4,157.84a217,217,0,0,1,30,2.71c8.87,1.33,17.61,3.42,26.63,2.82.93-.06,1.62-1.1.28-1-9.86.66-19.58-2-29.29-3.32a213.68,213.68,0,0,0-26.85-2.24c-.69,0-2.07,1-.76,1Z"/><path class="cls-2" d="M558.18,253.91c-5.13-3.21-5.71-10.12-11.09-13-2.86-1.51-6.41-.08-9-2.52-2.06-1.92-2.63-5.42-3.62-7.95a8.47,8.47,0,0,0-7.62-5.67c-1.74-.1-3.63.71-5.23,1.25-6.86,2.31-9-1.81-11.14-6.78-1.61-3.83-2.59-8.18-6.23-10.56-1.62-1.06-3.88-1.07-5.73-1.18-5.05-.29-7.8-2.49-8.71-7.3-.66-3.47-.21-8.82-3.69-11-4-2.57-7.63-1-12,0-1.18.26-.91,1.2.25.94,3.72-.85,7.71-2.37,10.9.7,1.86,1.79,2,5.17,2.29,7.54.51,4.35,1.51,8,5.93,9.71a14.64,14.64,0,0,0,4.26.52c4.79.23,7,2.22,8.88,6.4s3,8.79,6.46,12c2.13,2,6.47.71,8.77,0,9.52-3,10.09,4.1,13.08,10.25,2.14,4.41,6.62,3.38,10.63,4.62,5.18,1.61,6.41,10,11.09,13,.52.32,2.31-.44,1.54-.92Z"/><path class="cls-2" d="M472.47,189.76c-1.66,0-2.07-5.49-2.66-7.2a17.1,17.1,0,0,0-4.56-7c-3.57-3.33-8.48-2.79-12.7-1.24l1.38.28c-2.14-5.17-.89-11.34-4.7-15.86-1.21-1.44-4.28-1.08-5.83-.87-3.71.51-7.11,1.26-9-2.67a14.18,14.18,0,0,1-.94-4.13c-.62-4.39-2.14-9.11-7.4-9.55-4.21-.36-10.31,2.17-13.77-1.26-2.6-2.58-2.94-5.54-3.57-9-.9-4.84-5.06-6.55-9.55-7-2-.17-3.84.64-5.26-1.26-1.86-2.52-2.7-6.09-3.78-9-2.23-6-15.66-10.86-19.39-4-.5.93,1.46.88,1.84.18,1.88-3.45,7.71-1.42,10.47-.57,3,.92,4.42,3,5.47,5.78,1.15,3.09,2.12,7.79,5,9.83a3.52,3.52,0,0,0,2,.45,22,22,0,0,1,7,.76c5.86,1.74,4,10.71,8,14.58,3.56,3.44,7.69,2.14,12.23,1.68,9.72-1,7.45,8.3,10.18,13.9,1.78,3.63,6,3.4,9.31,2.75,9.69-1.91,7.41,10,9.79,15.71.23.55.94.44,1.38.27,10.74-3.95,15.22,6.62,16.18,15.28,0,.38.61.25.87.25h1.85c1.08,0,1.51-1.18.19-1.18Z"/><path class="cls-2" d="M511.76,243.88c12.17,0,24.9.23,36.55-3.76,1.14-.38.87-1.48-.29-1.08-11.33,3.87-23.71,3.63-35.54,3.64-.79,0-2,1.2-.72,1.2Z"/><path class="cls-2" d="M499.7,228a109.51,109.51,0,0,0,16.88-1c.81-.12,1.68-1,.33-.81a107,107,0,0,1-16.4.9c-.57,0-2.1.87-.81.87Z"/><path class="cls-2" d="M482.14,214.14c7.37,0,14.57-.24,21.76-1.92,1.15-.27.94-1-.19-.73-6.86,1.6-13.76,1.76-20.76,1.76-.59,0-2.1.9-.81.89Z"/><path class="cls-2" d="M464.91,194.94h12.94c1.13,0,1.46-1,.15-1H465.06c-1.13,0-1.46,1-.15,1Z"/><path class="cls-2" d="M446.1,178.14a30.17,30.17,0,0,0,13-3c1.16-.56-.61-.71-1.17-.44a25.55,25.55,0,0,1-11,2.51c-.64,0-2.08,1-.79,1Z"/><path class="cls-2" d="M432.26,160.94h6.47c.72,0,2.06-1,.75-1H433c-.72,0-2.06,1-.75,1Z"/><path class="cls-2" d="M418.69,146.94h.92c.44,0,1-.1,1.06-.57s-.5-.43-.9-.43h-.92c-.43,0-1,.1-1.06.57s.51.43.9.43Z"/><path class="cls-2" d="M88.41,238.94h22.18c.63,0,2.09-1,.79-1H89.19c-.63,0-2.08,1-.78,1Z"/><path class="cls-2" d="M106.89,224.36c8.06-.13,16-1.73,24-1.85.64,0,2.08-1,.78-1-8.05.12-16,1.72-24,1.85-.65,0-2.08,1-.79,1Z"/><path class="cls-2" d="M128.24,209.45c4.31-2.57,10.41-2.56,15.25-3.49,1.21-.23.87-1.38-.31-1.16-5.23,1-11.5,1.12-16.18,3.91-1.13.67.52,1.17,1.24.74Z"/><path class="cls-2" d="M149.44,193.05a54.8,54.8,0,0,0,12.53-1c1.19-.28.88-1.38-.3-1.11a49.87,49.87,0,0,1-11.51.87c-.8,0-2,1.22-.72,1.22Z"/><path class="cls-2" d="M168.85,175.47c4.38,0,8.39-.44,12.07-3,1.07-.76-.57-1.13-1.23-.66-3.12,2.2-6.4,2.51-10.11,2.51-.78,0-2,1.18-.73,1.18Z"/><path class="cls-2" d="M189.17,156.92a32.15,32.15,0,0,0,9.74-1.91c1.12-.38.9-1.31-.24-.93a28.84,28.84,0,0,1-8.74,1.79c-.69,0-2.07,1.07-.76,1Z"/><path class="cls-2" d="M477.53,253c11.17-.31,21.35-5.38,31.93-8.39,1.13-.33.92-1.14-.22-.82-10.23,2.92-20.13,8-30.92,8.25-.63,0-2.09,1-.79,1Z"/><path class="cls-2" d="M478.47,247.52c7.07-.13,13.6-2.33,20.17-4.77,1.27-.48.11-1.11-.76-.79-6.07,2.26-12.11,4.35-18.66,4.47-.71,0-2.05,1.11-.75,1.09Z"/><path class="cls-2" d="M476.5,243.85c5.09-2,10.28-3.73,15.47-5.46,1.15-.38.82-1.72-.36-1.32-5.35,1.78-10.71,3.57-16,5.64-1.24.48-.14,1.53.85,1.14Z"/><path class="cls-2" d="M468.51,239.05c6.78-1,13.83-2.62,19.4-6.81.81-.6-1.13-.38-1.49-.11-5.08,3.81-11.41,5.21-17.57,6.13-.81.12-1.7,1-.34.79Z"/><path class="cls-2" d="M462.4,235.67a185.41,185.41,0,0,0,23.11-7.39c1.14-.43.79-1.87-.38-1.43a184.33,184.33,0,0,1-23.11,7.4c-1.22.28-.82,1.7.38,1.42Z"/><path class="cls-2" d="M456.56,232.83c6.37-.32,13.41-4.79,18.29-8.58,1-.81-.55-1.3-1.25-.76-4.46,3.46-11,7.76-16.83,8.06-1,0-1.53,1.34-.21,1.28Z"/><path class="cls-2" d="M457.27,228.8a41.31,41.31,0,0,1,15.24-6.27c1.19-.26.9-1.27-.27-1a44.17,44.17,0,0,0-16.18,6.67c-1.07.76.58,1.07,1.21.62Z"/><path class="cls-2" d="M451.23,222.44c6.48-1.93,12.55-4.81,18.74-7.48,1.25-.54.09-1-.73-.67-6,2.6-11.93,5.43-18.23,7.31-1.14.33-.92,1.18.22.84Z"/><path class="cls-2" d="M447,215.16c6.67-.18,12.76-2.56,19-4.68,1.11-.38.89-1.34-.26-.95-5.89,2-11.68,4.38-18,4.55-.71,0-2.06,1.12-.76,1.08Z"/><path class="cls-2" d="M440.56,207.7c6.93-.21,13.33-2.76,19.91-4.7,1.12-.33.93-1.12-.21-.78-6.23,1.84-12.34,4.35-18.91,4.54-.61,0-2.09,1-.79.94Z"/><path class="cls-2" d="M435.52,204.89c7-1.88,13.34-5.51,20.34-7.39,1.15-.31.91-1.18-.24-.87-7,1.88-13.33,5.51-20.33,7.39-1.15.31-.92,1.18.23.87Z"/><path class="cls-2" d="M433.19,197.66c5.19-.06,10.52-.93,14.84-4,1.08-.75-.56-1.13-1.22-.67-3.76,2.64-8.38,3.38-12.89,3.44-.78,0-2,1.2-.73,1.19Z"/><path class="cls-2" d="M429.78,190.38c5,0,9.69-.24,14.37-2,1.25-.47.15-1.53-.85-1.16-4.32,1.61-8.81,1.71-13.36,1.71-1.1,0-1.47,1.43-.16,1.43Z"/><path class="cls-2" d="M420.24,185.59a111.34,111.34,0,0,0,16.88-1.86c.92-.15,1.6-1.29.27-1.06A108.88,108.88,0,0,1,421,184.5c-.71,0-2.05,1.11-.75,1.09Z"/><path class="cls-2" d="M417.3,179.89c4.29-2,9.18-2,13.16-4.73,1.07-.74-.6-1-1.2-.56-3.8,2.62-8.6,2.61-12.72,4.51-1.22.56-.1,1.18.76.78Z"/><path class="cls-2" d="M406.93,173.67c6.11-1.84,12.41-1.41,18-4.84,1.12-.68-.49-1.32-1.27-.84-5.23,3.18-11.4,2.68-17.1,4.4-1.17.35-.84,1.64.35,1.28Z"/><path class="cls-2" d="M400.12,167c4.84-.9,9.72-1.17,14.38-2.91,1.28-.48.07-.83-.7-.54-4.3,1.6-8.87,1.8-13.35,2.63-.81.15-1.68,1.07-.33.82Z"/><path class="cls-2" d="M397.15,159.76a54.2,54.2,0,0,0,12.52-1.91c1.18-.29.88-1.36-.29-1.06a50.37,50.37,0,0,1-11.5,1.79c-.78,0-2,1.19-.73,1.18Z"/><path class="cls-2" d="M390,156.22a31.85,31.85,0,0,0,13.46-2.91c1.19-.56.13-1.71-.88-1.23a29.57,29.57,0,0,1-12.43,2.64c-1.14,0-1.46,1.52-.15,1.5Z"/><path class="cls-2" d="M387.25,150.61a44.44,44.44,0,0,0,15.3-2.91c1.25-.48.14-1.47-.84-1.09a41.4,41.4,0,0,1-14.27,2.63c-1.09,0-1.5,1.39-.19,1.37Z"/><path class="cls-2" d="M384.92,145.56c4.63-1.85,9.27-3.73,13.34-6.67.81-.59-1.13-.38-1.5-.12-3.82,2.77-8.18,4.53-12.53,6.27-1.28.51-.08.83.69.52Z"/><path class="cls-2" d="M375.86,135.63c5.41-.14,10.56-1.89,15.55-3.85,1.26-.5.09-1-.74-.68-4.49,1.77-9.15,3.41-14,3.54-.64,0-2.08,1-.78,1Z"/><path class="cls-2" d="M372.7,131.07c3.34-1.09,6.76-1.92,10.17-2.77,1.18-.3.88-1.41-.3-1.11-3.4.85-6.82,1.68-10.16,2.77-1.15.37-.87,1.49.29,1.11Z"/><path class="cls-2" d="M366.72,130A75.32,75.32,0,0,1,381,123.75c1.15-.39.84-1.65-.33-1.26a80.66,80.66,0,0,0-15.26,6.69c-1.12.66.5,1.27,1.27.82Z"/><path class="cls-2" d="M364.43,118.28a58.11,58.11,0,0,0,11.34-3.79c1.18-.57.13-1.71-.88-1.22a55.82,55.82,0,0,1-10.84,3.6c-1.21.3-.83,1.71.38,1.41Z"/><path class="cls-2" d="M358.86,114.5c4.12-1,8.37-1.06,12.26-2.86,1.21-.56.13-1.51-.83-1.07-3.71,1.72-7.84,1.77-11.77,2.68-1.2.28-.85,1.53.34,1.25Z"/><path class="cls-2" d="M354,111.85a24.75,24.75,0,0,0,10.68-2.9c1.18-.59.12-1.73-.88-1.23a22.15,22.15,0,0,1-9.66,2.63c-1.13,0-1.45,1.53-.14,1.5Z"/><path class="cls-2" d="M351.26,105.52a8.72,8.72,0,0,1,6.1-2.29c.58,0,2.1-.91.81-.89a12.85,12.85,0,0,0-8.68,3.26c-.47.45,1.4.26,1.77-.08Z"/><path class="cls-2" d="M114.54,248.42a112,112,0,0,0,16-3.75c1.12-.37.9-1.31-.25-.94a107.71,107.71,0,0,1-15.45,3.65c-.91.15-1.61,1.26-.28,1Z"/><path class="cls-2" d="M117.08,242.9c4.36,0,8.75-.14,12.77-2,1.22-.56.1-1.19-.76-.79-3.56,1.64-7.42,1.69-11.26,1.69-.72,0-2.06,1.1-.75,1.1Z"/><path class="cls-2" d="M123.84,237.51c5.74,0,11.37-.18,16.9-1.9,1.17-.36.83-1.67-.36-1.31C135,236,129.57,236.1,124,236.11c-1.1,0-1.49,1.4-.17,1.4Z"/><path class="cls-2" d="M130,230.91a77.53,77.53,0,0,0,19.92-2.83c1.16-.32.89-1.35-.27-1a73.33,73.33,0,0,1-18.91,2.71c-.75,0-2,1.16-.74,1.15Z"/><path class="cls-2" d="M137,224.41c7-1.84,14.24-2.06,21.26-3.7,1.18-.27.88-1.36-.29-1.09-7,1.64-14.29,1.86-21.26,3.7-1.18.31-.88,1.4.29,1.09Z"/><path class="cls-2" d="M141.4,218.1a80.73,80.73,0,0,0,24.29-3.75c1.17-.37.83-1.68-.35-1.31a79.21,79.21,0,0,1-23.77,3.66c-1.1,0-1.49,1.41-.17,1.4Z"/><path class="cls-2" d="M146.94,213.45c8.49,0,17.09,0,25.21-2.82,1.15-.4.84-1.65-.33-1.25-8,2.74-16.38,2.72-24.69,2.73-1.08,0-1.51,1.34-.19,1.34Z"/><path class="cls-2" d="M155,206.8a150.69,150.69,0,0,0,19.65-1.87c.87-.13,1.64-1.14.3-.94a148.57,148.57,0,0,1-19.17,1.83c-.64,0-2.08,1-.78,1Z"/><path class="cls-2" d="M164,198.63c5.14,2.3,12.18,1.91,17.37,0,1.14-.42.82-1.73-.35-1.31-4.78,1.76-11.17,2.13-15.9,0-.8-.35-2.24.79-1.12,1.29Z"/><path class="cls-2" d="M169.75,192c7.24,0,14.28-.21,21.09-2.93,1.26-.51.09-1-.73-.67-6.31,2.53-12.89,2.61-19.58,2.62-.65,0-2.08,1-.78,1Z"/><path class="cls-2" d="M176.21,186.44a61.46,61.46,0,0,0,18.06-2.85c1.12-.35.93-1.15-.21-.78A58.09,58.09,0,0,1,177,185.5c-.61,0-2.09.95-.79.94Z"/><path class="cls-2" d="M187.31,176.31c5.54,0,10.89-.25,16.22-1.93,1.12-.35.91-1.21-.23-.85-5,1.56-10,1.77-15.21,1.77-.66,0-2.08,1-.78,1Z"/><path class="cls-2" d="M193.81,168.94h15.71c.82,0,2-1,.72-1H194.52c-.81,0-2,1-.71,1Z"/><path class="cls-2" d="M201.15,163.29a102.06,102.06,0,0,0,16-1.88c.8-.13,1.69-1,.33-.79A100.62,100.62,0,0,1,202,162.44c-.56,0-2.11.86-.82.85Z"/><path class="cls-2" d="M207.93,154.27c6.48-.07,12.93-.86,19.41-.93,1.06,0,1.52-1.3.21-1.29-6.49.07-12.93.86-19.41.93-1.06,0-1.53,1.3-.21,1.29Z"/><path class="cls-2" d="M213,148.49a104,104,0,0,0,16.16-1c.79-.12,1.7-1,.34-.76a97.25,97.25,0,0,1-15.26.89c-.42,0-2.21.83-1.24.83Z"/><path class="cls-2" d="M216.92,145a77.14,77.14,0,0,0,19.92-2.82c1.17-.32.87-1.47-.31-1.15a73.27,73.27,0,0,1-18.9,2.72c-.82,0-2,1.27-.71,1.25Z"/><path class="cls-2" d="M230.37,137.57c5.14-1.56,10.57-1.22,15.72-2.77,1.16-.35.85-1.53-.32-1.18-5.14,1.56-10.57,1.22-15.71,2.78-1.16.35-.86,1.53.31,1.17Z"/><path class="cls-2" d="M232.37,131c7.22.11,15,1.78,21.52-2.11,1.11-.66-.64-.64-1.14-.35-5.73,3.4-12.84,1.69-19.15,1.59-.45,0-2.22.85-1.23.87Z"/><path class="cls-2" d="M242.78,125.52c4.33-.06,8.61-.87,12.94-.93.72,0,2.06-1.11.75-1.09-4.33.06-8.61.86-12.94.92-.72,0-2.05,1.12-.75,1.1Z"/><path class="cls-2" d="M249.23,118c4.4-.11,8.55-1.73,12.94-1.85.61,0,2.09-1,.79-.93-4.39.11-8.55,1.73-12.94,1.85-.61,0-2.09,1-.79.93Z"/><path class="cls-2" d="M254.15,114.53a19.07,19.07,0,0,0,7.9-2c1.2-.58.12-1.48-.82-1a16.45,16.45,0,0,1-6.88,1.71c-1.06,0-1.52,1.33-.2,1.3Z"/><path class="cls-2" d="M258.34,114.33a20.6,20.6,0,0,0,5-3,.42.42,0,0,0-.2-.76,1.56,1.56,0,0,0-1.37.37,17,17,0,0,1-4.23,2.52c-1.19.6-.1,1.35.79.9Z"/><path class="cls-2" d="M177.42,257.75a4.67,4.67,0,0,0,1.59-.45,3.27,3.27,0,0,1,1.18-.48c.38,0,1-.27,1.08-.71s-.55-.51-.85-.5a4.4,4.4,0,0,0-1.59.45,3.32,3.32,0,0,1-1.19.48c-.38,0-1,.27-1.08.7s.56.52.86.51Z"/><path class="cls-2" d="M139.55,259.71c15.73,0,32.07.17,47.41-3.74,1.2-.3.83-1.66-.37-1.36-15.14,3.86-31.34,3.65-46.87,3.66-1.12,0-1.47,1.44-.17,1.44Z"/><path class="cls-2" d="M189.85,255.69c37.28,0,74.55.9,111.83.92.41,0,2.2-.79,1.26-.79-37.29,0-74.56-.91-111.84-.92-.4,0-2.2.79-1.25.79Z"/><path class="cls-2" d="M309.33,256.78c9.58,0,19.15,0,28.72-.68,11.24-.75,22.32-2.09,33.62-2.34,20.18-.44,40.42-1.43,60.59-1.6.74,0,2.05-1.14.74-1.13-20.17.17-40.4,1.23-60.59,1.61-9.53.17-19,.82-28.43,1.86-11.25,1.23-22.61,1.15-33.9,1.15-.75,0-2.05,1.13-.75,1.13Z"/><path class="cls-2" d="M438.77,256.48c5.25-3,10.86-1.81,16.37-.68,5.13,1,10.87.73,16.06.7,10.92-.08,21.82-.68,32.76-.68,10.19,0,19.68.29,29.71,2.13,6.9,1.26,14,1.79,20.42-1.36,1.21-.59.09-1.15-.75-.74-9.63,4.69-20.53.16-30.5-.93-10.25-1.11-21.09-.15-31.4-.15-11.76,0-23.34,1.11-35.1,0-6.8-.63-12.41-2.5-18.75,1.16-1.13.66.58.87,1.18.53Z"/><path class="cls-2" d="M75.46,256.67c16.29.18,32.23,4,48.57,3.4,16.06-.62,31.9-4.07,47.8-6.19.84-.11,1.67-1,.31-.87-15.77,2.11-31.39,5.32-47.31,6.14-16.31.85-32.3-3.21-48.57-3.39-.61,0-2.09.9-.8.91Z"/><path class="cls-2" d="M175.51,245.54c-4.94-2.7-2.31,5.46-1.72,7.24.26.77,1.57.26,1.88-.19,2.68-4,2.83-8.46,2.83-13.11,0-.91-1.59-.51-1.88,0-1.89,3.45-1.06,7.5-1,11.26,0,.93,1.57.49,1.89,0,2-3.36,2.66-7.47,0-10.64a1.25,1.25,0,0,0-1.87.5c-1,5-1.71,10,0,15,.26.73,1.6.32,1.88-.19,1.8-3.29,1.12-7.07,0-10.49-.22-.72-1.92-.35-1.94.35-.08,4.15-.74,8.24.93,12.18.3.69,1.35.31,1.76,0,3.05-2.55,2.09-7,2-10.49l-1.94.35a9.87,9.87,0,0,1,.92,4.46c0,.92,1.95.56,1.95-.19a11.21,11.21,0,0,0-.93-4.78c-.3-.66-2-.39-1.94.35.05,3.12,1.06,7.56-1.67,9.85l1.76,0c-1.63-3.82-1-7.81-.92-11.85l-1.94.35c1,3.19,1.74,6.77.06,9.85l1.87-.2c-1.68-4.81-.95-9.74,0-14.62l-1.86.5c2.47,2.92,1.83,6.63,0,9.7.62,0,1.25,0,1.88,0-.07-3.62-1-7.61.86-10.93l-1.88,0c0,4.52-.09,8.89-2.71,12.77l1.87-.19c-.31-.93-.61-1.87-.89-2.82-.14-.49-.26-1-.37-1.47l-.12-.68c.19-.95.08-1.2-.34-.73.65.36,2.39-.54,1.51-1Z"/></svg>