<svg id="layer1" xmlns="http://www.w3.org/2000/svg" viewBox="0 0 369.51 231.75"><defs><style>.cls-1{fill:#4eb6c4;}.cls-2{fill:#f7cf7f;}.cls-3{fill:#bc1919;}.cls-4{fill:#63d666;}.cls-5{fill:#492d0c;}</style></defs><path class="cls-1" d="M342.47,119.18a14.32,14.32,0,0,0,.75-5.39,10.15,10.15,0,0,0-3.17-6.86,3.11,3.11,0,0,0-2.16-1.73h-.1c-4-2.5-9.47-3.48-13.75-4a3.45,3.45,0,0,0-3.37,2.57c0,.16-.06.32-.09.48a3.56,3.56,0,0,0-5.08,2.1c-.29,1-.54,2-.78,2.94a4.48,4.48,0,0,0-.64,1.87c-.19,1.83-.81,3.5-1.14,5.33,0,0,0,0,0,0h0a4.09,4.09,0,0,1-.13,1,3.61,3.61,0,0,0,0,1s0,0,0,0a23.24,23.24,0,0,0-2.1,1.73,63.79,63.79,0,0,0-7.22,8,53.7,53.7,0,0,0-9.07,6.78,35.56,35.56,0,0,0-8.88,3.85,37.85,37.85,0,0,0-10.47,7.1,57.19,57.19,0,0,0-13,7.38,107.63,107.63,0,0,0-22.78,8.79,3.47,3.47,0,0,0-1.79-.7H224.6a3.39,3.39,0,0,0-3.35,3c-3.56.18-7.11.55-10.64.94a81.29,81.29,0,0,0-17.71,0c-1.24-.12-2.48-.25-3.71-.43-13.23-4.19-26.87-7.65-40.75-7a8.25,8.25,0,0,0,.88-2.9,3.42,3.42,0,0,0-1.74-3,37.2,37.2,0,0,0-5.93-2.68,3.8,3.8,0,0,0,1.5-5.81,50.51,50.51,0,0,1,4.43-3.54c3-2.11,1.38-7.43-2.42-6.46a3.52,3.52,0,0,0-1.57.06c-1.33.35-2.54.95-3.87,1.29a3.48,3.48,0,0,0-2.44,3.94,30.13,30.13,0,0,1-7,3.76A52.87,52.87,0,0,0,119.16,144c-3.16-.19-6.34-.2-9.51-.2a3.25,3.25,0,0,0-2.57,1.16,233.76,233.76,0,0,0-23.51-1.14c-1.18-.22-2.37-.46-3.54-.74h0a77.82,77.82,0,0,0-14-9.26c-1.23-5.66-4.29-10.91-8.07-15.8.3-1.11.62-2.23.92-3.36a3.23,3.23,0,0,0-.83-3.25,20.05,20.05,0,0,1,6-5.77c.33-.18.66-.36,1-.51,4.14-1.78.56-7.58-3.54-5.84a18.61,18.61,0,0,0-7.7,6.18h-.86a3.35,3.35,0,0,0-2.69,1.1A3.46,3.46,0,0,0,46.87,109c-2.65,8.28-3.81,16.4-2.58,25,.29,2.09,2.06,2.68,3.74,2.36A27.33,27.33,0,0,0,60.1,149.06l.17.06c6.41,4.95,16.47,7.22,23.55,8.16a2.77,2.77,0,0,0,1.81-.37,3.26,3.26,0,0,0,1.59,3.76c13.28,6.42,27.74,8.52,42.3,9.2.95.26,1.89.52,2.85.76a3.74,3.74,0,0,0,1.35,1.67C149.81,183.48,171,185.16,190,184.58a201.18,201.18,0,0,0,58.78-10.64,3.57,3.57,0,0,0,2-1.63,50.35,50.35,0,0,0,15.39-4.79c5.79-.44,11.58-2.62,16.77-5.17a4.34,4.34,0,0,0,.72,0,39.14,39.14,0,0,0,8.55-2.5c1.33-.27,2.65-.53,3.9-.8,6.15-1.32,12.3-2.6,18.38-4.18,10.54-2.73,23.43-6.39,30-15.84C347.79,134.13,347.25,123.49,342.47,119.18ZM173.76,177.44l.1-.07a114,114,0,0,0,12.81-.36c1.55.15,3.1.32,4.64.52A156,156,0,0,1,173.76,177.44Zm165.68-44a11.3,11.3,0,0,1-4.55,5.6,21.29,21.29,0,0,0,3.28-10.39,18.24,18.24,0,0,0,1-1.78A19.09,19.09,0,0,1,339.44,133.4Z"/><path class="cls-2" d="M160,123.46a3,3,0,0,0,2.28.11c24.88-8.15,44.1-29.57,63.54-46.1,2.29-2,.48-6.17-2.48-6-3.85.26-7.47-.42-10.2-3.32a3.4,3.4,0,0,1-1-1.87,7.79,7.79,0,0,0,.32-1.72l.1-.17a109.75,109.75,0,0,0,11.09,3.5c0,.21,0,.41.06.63.18,4.19,6.28,4.49,6.94.84a3.5,3.5,0,0,0,2.91-5.9,71.44,71.44,0,0,0-7.05-6.69,3.52,3.52,0,0,0-2.24-4.54c-3.76-1.27-7.52-2.57-11.3-3.76A46.75,46.75,0,0,0,198.84,45h0c-11.85-4.47-25.64-.94-36.67,5a3.08,3.08,0,0,0-1.58,2,42.5,42.5,0,0,0-7.07,5.3c-2.58,1.23-5.1,2.6-7.57,4.06-8.61,3.32-16.19,9-23.81,14.44-3.16,1.69-6.32,3.36-9.51,5-6.72,1.89-12.92,5.31-18.91,9.26a3.7,3.7,0,0,0-1.47,1.78C82.46,95.72,72.64,99.44,64,105.55c-3,2.13-1.26,7.9,2.69,6.4,12.52-4.76,26-8.44,38.35-14.12a3.64,3.64,0,0,0,5.11,2.14c.82-.39,1.63-.79,2.44-1.2-.59,2.54,2.54,5,5.31,3.78.82-.36,1.62-.76,2.43-1.15-.51,2.5,2.6,5.12,5.32,3.74.86-.44,1.72-.9,2.57-1.35a8.38,8.38,0,0,0,6,3,20.48,20.48,0,0,0,9.64-2,3.62,3.62,0,0,0,1.85,3.26c-1.68,1.9-3.33,3.82-4.92,5.79-2,2.43-.24,7.18,3.4,5.85l1-.38a4.2,4.2,0,0,0,0,1.37c-.78.56-1.56,1.11-2.35,1.65a3.59,3.59,0,0,0-1.46,4q-2.69,1.38-5.36,2.61a68.35,68.35,0,0,1-10.24,3.75,3,3,0,0,0-.66-.81c-.66-.57-1.35-1.12-2.05-1.66a5.67,5.67,0,0,0,.5-2.32,3.56,3.56,0,0,0-2.57-3.38c-9.2-3-18.75-5.72-28.49-6.06A22,22,0,0,0,81.49,121,15.42,15.42,0,0,0,72.26,122c-3.89,2-4.2,7.13-2.79,10.7,3.77,9.57,17.36,10.34,26,10.34A92.88,92.88,0,0,0,112,141.82a64.45,64.45,0,0,0,19.94-3.71,94.44,94.44,0,0,0,26-13.69C158.57,124.11,159.26,123.78,160,123.46Zm44.78-60.87a2.46,2.46,0,0,1,.73,1.14,9.38,9.38,0,0,0-.2,1.18s-.06.07-.08.11a4.25,4.25,0,0,0-1.1-.83A3.23,3.23,0,0,0,204.74,62.59Zm4.6,11.76a16.5,16.5,0,0,0,5.75,3.14l-4.84,4.24a4.11,4.11,0,0,0-.29-.3,3.57,3.57,0,0,0-5.21-3c-.38.18-.75.37-1.12.56Q206.48,76.64,209.34,74.35Zm-48.17,27.72.45-.24q-1.87,1.69-3.71,3.44Q159.51,103.65,161.17,102.07Zm-25.7-2.32.7-.42,1,.22A7.66,7.66,0,0,1,135.47,99.75Z"/><path class="cls-2" d="M309,99.21A45.14,45.14,0,0,0,308,84.4c-1-3.92-6.77-3-6.87.93a32.31,32.31,0,0,1-1.09,7.48,23.47,23.47,0,0,0-4.42,3.9,25.24,25.24,0,0,0-.53-14.9A3.47,3.47,0,0,0,289,80.73a1.59,1.59,0,0,0-.2-.07c-.46-.1-.93-.17-1.39-.23-.19-.28-.38-.55-.59-.81-5.48-6.67-13.56-4.25-20.91-4.25a3.36,3.36,0,0,0-2,.6,3.28,3.28,0,0,0-1.88-.6c-15.69.28-30.39,9.74-42.62,18.69q-2.66,1.95-5.28,4a113.67,113.67,0,0,0-14.58,7.9,159.89,159.89,0,0,0-17.95,13.1,85.15,85.15,0,0,0-15,11.59c-2.13,2.07-.6,6.11,2.47,6a24,24,0,0,0,13-4.7l.83.13a3.69,3.69,0,0,0,.85,1.37,3.43,3.43,0,0,0,2.51,3.08c.74.17,1.48.32,2.22.43-.14.3-.3.59-.43.88a3.56,3.56,0,0,0,3,5.27,28,28,0,0,0,7.59-.33,3.28,3.28,0,0,0,1.45.33,44.63,44.63,0,0,0,14.85-3c.75-.11,1.51-.25,2.26-.4a2.73,2.73,0,0,0,2.26.84c5.18-.7,10-3.23,14.67-5.54a28,28,0,0,0,4.84-.68l0,0c-7.62,2.95-15.13,6.25-22.61,9.47l-3.4,0a3.26,3.26,0,0,0-3.33,2.84l-2.76,1.16c-3.72,1.54-3.1,6.4.93,6.87a55.65,55.65,0,0,0,8.27.33,91.51,91.51,0,0,1-24.83-1.54l-.12-.09c3.88-.14,4.57-5.76.82-6.86s-26.06-8.33-29.57-1c-.48-.09-.95-.19-1.43-.3-4.39-1-6.26,5.75-1.86,6.75,1.76.4,3.52.7,5.28.94a25,25,0,0,0,5.8,3.63c6.91,3.37,14.57,4.89,22.14,5.89A2.78,2.78,0,0,0,195,161.2c11.81,1.67,24.13,1,35.5-1,15.13-2.57,31.47-8.58,42.8-19.53,19.23,1.07,31.86-18.19,35.05-37.07.2-.34.41-.67.6-1A3.36,3.36,0,0,0,309,99.21Zm-60,6.44a13.37,13.37,0,0,0,.07,1.42c-2.8,2.82-5.7,5.53-8.66,8.15A123.69,123.69,0,0,0,248.94,105.65Zm-19.83,47.73A122,122,0,0,0,244.47,149l1.08-.39c2-.61,4-1.33,6-2.12l1.26-.34A99.4,99.4,0,0,1,229.11,153.38ZM247,140.57l-1.33.29a86.53,86.53,0,0,1,10.68-5.24c.94-.27,1.88-.53,2.83-.78A105.56,105.56,0,0,1,247,140.57Zm22.48-15.68c-1.15.16-2.3.34-3.44.57,1.19-.83,2.37-1.69,3.51-2.62l.56-.31C269.83,123.3,269.62,124.09,269.44,124.89Zm.71-31.53c-.65.79-1.31,1.57-2,2.35.72-1,1.42-1.94,2.11-2.92C270.24,93,270.2,93.17,270.15,93.36ZM277,123.78c1.9-5.18,6.07-9.34,11-12.2-.29.84-.57,1.68-.85,2.52a0,0,0,0,0,0,0A54.85,54.85,0,0,1,277,123.78Zm8.26,6.7a84.34,84.34,0,0,0,6.68-5.84A27.71,27.71,0,0,1,285.23,130.48Z"/><path class="cls-3" d="M273.37,129.18l-.09-.08-.28-.19a2.9,2.9,0,0,0-.7-.36l-.14-.05c-.12,0-.25,0-.38,0a3.18,3.18,0,0,0-.69,0H269.8a3.57,3.57,0,0,0-1.16.12,3.1,3.1,0,0,0-4.48-1c-7,4.63-14.29,8.83-22.5,10.74-.83.15-1.67.31-2.5.5a3,3,0,0,0-2.45,3.65c-.32.19-.65.37-1,.57a3.53,3.53,0,0,0,.84,6.39c.29.09.57.16.86.23l.6.57,0,.06a2.87,2.87,0,0,0,1,3.4c-2.49,2-.47,6.61,3.3,6.07,12.94-1.84,36.26-12.33,32.14-28.84A3.35,3.35,0,0,0,273.37,129.18Z"/><path class="cls-3" d="M316.77,81c-1.12-.63-2.38-2.17-4.64-1.8a3.13,3.13,0,0,0-2,1.31c-2.12-.36-3.5,1.34-3.65,3.18,0,0-.08-.09-.11-.14-1.37-1.82-4.89-2.69-6,0-.14.33-.25.67-.37,1a3.31,3.31,0,0,0-2.69,3.34c.11,2.38.75,4.68,1.09,7-3.34,1.07-3,6.82,1.12,6.81,5.64,0,9.92-.9,14.1-4.9a3.5,3.5,0,0,0,0-5c-.32-.29-.66-.56-1-.82a4,4,0,0,0,1.9-2.23c.15-.44.29-.88.43-1.32C318.05,87.54,320.12,82.9,316.77,81Z"/><path class="cls-3" d="M195,146.13l-.46.4h0a44.41,44.41,0,0,0-6.9-1c-1.57-.56-3.14-1.09-4.72-1.62a3.51,3.51,0,0,0-4.33,2.58c-3.43-.33-5.86,4.64-2.24,6.4l.47.23c.74,5,6.22,9.61,11.35,8.4a6.14,6.14,0,0,0,4.17-3.91c2.92-1.3,5.13-4.56,7.62-6.56C203.47,148.26,198.49,143.34,195,146.13Z"/><path class="cls-3" d="M95.81,113a3,3,0,0,0-2.38,2.13,15.45,15.45,0,0,0-1.62.43c-2.94,1-3.72,6.21,0,6.75.35,0,.71.07,1.07.1a7.74,7.74,0,0,1-2.25,1.33c-.13.06-.26.09-.39.14-.15-.18-.31-.36-.47-.53a3.29,3.29,0,0,0-2.43-2.6l-1.65-.37-.43-.22c-.13-.14-.28-.26-.42-.39.25-.14.5-.26.75-.38,4.09-1.89.54-7.92-3.53-6a16,16,0,0,0-4.12,2.75,24,24,0,0,0-3.16-.65c-1.85-.23-3.55,1.77-3.5,3.5a18.7,18.7,0,0,0,.48,3.56c-3,3-2.62,7.73-1.64,11.58a3.42,3.42,0,0,0,2.44,2.45,17.24,17.24,0,0,0,9.34-.92,8.33,8.33,0,0,0,1.09-.2,6.41,6.41,0,0,0,2.66-1.49c.37,0,.74-.1,1.12-.17a7,7,0,0,0,4.54-3c5.36-1.33,8.17-4.85,10.68-9.42a3.52,3.52,0,0,0,.72-1.43C104.86,115,101,111.77,95.81,113Z"/><path class="cls-3" d="M138.54,113.3a31.86,31.86,0,0,1-8.33-5.91,3.36,3.36,0,0,0-5.06.3c-2.76.08-4.91,3.64-2.47,5.94.28.27.58.35.89.6-1.21,2.06-.26,5.25,2.87,5.25h3.88a3.7,3.7,0,0,0,.93,0c.16.14.32.34.47.48a3.45,3.45,0,0,0,5.15-.32C140,119.47,141.93,115,138.54,113.3Z"/><path class="cls-4" d="M111.89,103.25a10.21,10.21,0,0,0-3.56.39,3.88,3.88,0,0,0-2.55-1.15c-5.63-.11-11.17-1.16-16.79-1.29-3-.07-4,2.84-3,4.94a16.49,16.49,0,0,1-2.14.22c-3.64.14-4.69,5-1.63,6.53a3.18,3.18,0,0,0,2.93,1.59h1.29a3.26,3.26,0,0,0,2-.61c3.91-.83,7.92-1.1,11.83-2a3,3,0,0,0,2.37-2.21,14.07,14.07,0,0,0,4.46,4.59,6.66,6.66,0,0,0,4.23,5.41,2.77,2.77,0,0,0,2.38-.1,3.83,3.83,0,0,0,3.6-.79,3.9,3.9,0,0,0,1.49-4.21,2.77,2.77,0,0,0,3.29-2.5c.09-.62,1.2-1.56,1.58-2.23a4.15,4.15,0,0,0-.88-5.09C119.66,101.86,115.67,102.56,111.89,103.25Z"/><path class="cls-4" d="M179.75,141.36l-9.37,3.75a5.22,5.22,0,0,0-.84-.81,3.42,3.42,0,0,0-1.52-.45,3.46,3.46,0,0,0-.34-.44c-1.61-1.75-3.8-1.17-5,.31a.87.87,0,0,0,.07-.17c-1.6,2-2.29,4.52-3.87,6.46-1.94,2.38-.22,7.3,3.4,5.85l2.62-1.05a3.85,3.85,0,0,0,.76,0,3.56,3.56,0,0,0,3.63-1.59l.17.07a3.21,3.21,0,0,0,4-1.89l8.21-3.28C185.75,146.46,184,139.68,179.75,141.36Z"/><path class="cls-4" d="M227.54,147.82a5.67,5.67,0,0,0-1.3.35,3.53,3.53,0,0,0-4.93-1.1,4.21,4.21,0,0,0-2.81-.54c-3.85.72-6.21,1.16-8.85,3.23-1.86-1.29-4.73-1-5.22,1.79-.78,4.48,1.71,8.31,6.35,8.87a9.27,9.27,0,0,0,8-3.19c.86,0,1.68-.12,2.48-.22a3.68,3.68,0,0,0,1.64.14,8.82,8.82,0,0,0,3-1.17,31.22,31.22,0,0,0,4.26-1.77C234.12,152.28,231.13,147.32,227.54,147.82Z"/><path class="cls-4" d="M305.43,105.78l0-.15c.68-4.42-6.06-6.31-6.75-1.86a7.94,7.94,0,0,1-.88,2.28s0,0,0-.06c.07-3.57-4.75-4.67-6.53-1.77a44.49,44.49,0,0,1-11,12.67c-2.86.44-5.37,1.75-6.11,5a3.65,3.65,0,0,0,0,1.43c-.51,2.66,2.57,5.77,5.18,3.81l1.77-1.32a3.13,3.13,0,0,0,.7.38l.26.09a3.45,3.45,0,0,0,5.73,1.6,28.64,28.64,0,0,0,3.86-3.94l.17-.14a3,3,0,0,0,4.3.75c4.89-3.69,7.6-8.78,10.3-14.17A3.6,3.6,0,0,0,305.43,105.78Zm-7.69,4.94-.36.25c.07-.44.13-.9.19-1.35a3.28,3.28,0,0,0,.56.86A2.74,2.74,0,0,0,297.74,110.72Z"/><path class="cls-5" d="M50.75,109.05c-6.13-.33-9,4.32-10.19,9.83a25.37,25.37,0,0,0,4.69,21.24c12.11,15.82,35.32,21.1,53.84,24.33,11.31,2,22.79,2.92,34.19,4.2,15.67,1.77,31.34,3.57,47.07,4.7a324.31,324.31,0,0,0,89-5.73c13.83-2.84,27.55-6.38,41.16-10.06A78.06,78.06,0,0,0,337,145.16c8.4-6.29,13.89-15.66,11.88-26.31-2.13-11.35-12.61-18.47-23-21.48-.43-.13-2.13.57-1.59.73,11.67,3.38,21.42,11.4,23.08,24,1.56,11.74-8.09,21.1-17.17,26.67-10.47,6.44-22.53,8.93-34.26,12a446.78,446.78,0,0,1-45.34,9.65c-33.34,5.08-66.67,2.94-100-.69-23.8-2.6-48.36-4-71.39-11-12.56-3.84-25.5-9.95-33.34-20.91C43.13,134,42.2,130,42,125.38s.54-15.95,7.51-15.56c.39,0,2.21-.72,1.26-.77Z"/><path class="cls-5" d="M73.92,159c16.51,4.78,32.87,10.13,49.5,14.48a269.18,269.18,0,0,0,48.69,7.85c23.31,1.69,47,2.32,70-2.27,21.84-4.35,42.46-12.83,63.4-20.15,1.28-.44.1-1-.75-.71-21.17,7.4-42,15.8-64.07,20.21-22.64,4.52-46.33,3.45-69.25,1.79-33.26-2.42-64.22-12.88-96-22.09-.55-.16-2.29.68-1.54.89Z"/><path class="cls-5" d="M68,111.66c13.62-12.89,37.26-11.66,54.41-7.75,12.58,2.86,32.85,12.58,22.18,28.52-4.57,6.83-14.67,8.4-22.16,9.18a128,128,0,0,1-22.49-.08c-9.48-.69-20.07-.45-28.43-5.48-6.48-3.9-15.89-18.7-5.07-23,1.25-.49.12-1.27-.79-.91-8.1,3.19-6.54,11-2.83,17.37,5.39,9.18,15.34,11.48,25.22,12.27,16.29,1.29,34.56,3.95,50-2.8,6.49-2.84,10.68-8.16,11.26-15.28s-5.07-12.29-10.72-15.5c-14.53-8.27-34.27-9.29-50.42-6.84-8.07,1.23-15.79,4.21-21.76,9.87-.84.8,1.06.88,1.57.4Z"/><path class="cls-5" d="M146.08,134.27c16.22-6,29.28-17.64,43.36-27.32C206.36,95.3,224.3,85.17,241.06,73.3c1.07-.76-.5-1.46-1.28-.9C224,83.61,206.92,93,191,104.07c-14.73,10.27-28.76,22.71-45.78,29-1.24.46-.15,1.53.86,1.16Z"/><path class="cls-5" d="M61.21,113.7c3-8.78,11.22-13.23,19.18-16.85s15.68-7.74,23.41-12.12c17.9-10.14,35.47-20.62,52.6-32,8.22-5.47,16.83-10.38,26.42-13,8.29-2.23,16.77-1.42,24.93.82,14.25,3.9,29.77,13.56,32.87,29,.17.8,2.1.3,1.94-.52-3.06-15.2-17.56-24.37-31.29-29-17-5.7-32.88-1.91-48.07,6.82-9.49,5.45-18.27,12.08-27.61,17.77-10.88,6.64-21.94,13-33,19.29-5.57,3.16-11.08,6.72-17,9.27-4.07,1.76-8.14,3.48-12.06,5.56-6.39,3.39-11.91,8.08-14.28,15.08-.27.8,1.69.56,2-.19Z"/><path class="cls-5" d="M81.89,108.94c-7.14,3.24-15.68,9.76-16.35,18.18-.84,10.53,14.21,12,21.35,10.38s11.09-6.75,14.28-13.07c2.65-5.27,2.66-10.9-4.5-9.88-.83.12-1.68,1-.33.84,7.17-1,4.33,6.54,2.49,10.18a35.14,35.14,0,0,1-4.74,6.93c-3,3.49-6.66,4.41-11.21,4.7-8,.51-17.54-4.3-14.85-13.57,1.89-6.5,9.17-11.68,15-14.33,1.17-.53-.63-.6-1.15-.36Z"/><path class="cls-5" d="M87.26,107.34c-4.8.29-8.48,2.32-12.43,4.93-.33.22-.51.59-.14.86,7.21,5.34,18.6,7.16,26.9,3.48.51-.23.83-.79.17-1a22.77,22.77,0,0,0-8.41-1.21c-.5,0-1.37.23-1.32.88.68,8.48,12,7.71,15.92,2.14a.39.39,0,0,0,0-.46,23.08,23.08,0,0,0-8.51-4.86c-.7-.25-2.27.76-1.15,1.16,2.58.91,10.89,4.81,3.74,7A6.17,6.17,0,0,1,94,114.71l-1.32.87a21.56,21.56,0,0,1,8,1.14c.06-.35.12-.7.17-1-5.39,2.39-11.52,1.68-17,.15a24.47,24.47,0,0,1-6.65-3,2,2,0,0,1,1.62-1.51,17.15,17.15,0,0,1,8.32-2.7c1-.06,1.56-1.3.23-1.22Z"/><path class="cls-5" d="M98.58,111.1a7.48,7.48,0,0,1-2.28-4.58l-1.35.76c4.87.29,10.06-.93,14.85-.26,4.37.6,3.28,10.13,3.29,12.89,0,.15.27.2.36.22,4.46,1.12,8.09-.4,10.86-4,.49-.64-1.44-.43-1.79,0a6.71,6.71,0,0,1-6.55,3.34c-1.35-.11-1-3.32-1-4.07a34.3,34.3,0,0,0-.5-5.45,4.63,4.63,0,0,0-2.46-3.64c-1.54-.74-3.69-.39-5.31-.27a80.45,80.45,0,0,1-11,.22c-.36,0-1.42.23-1.35.76a7.22,7.22,0,0,0,2.4,4.78c.43.45,2.26-.25,1.81-.72Z"/><path class="cls-5" d="M126.31,113.15c-4.78-1.57-11.76.73-13.29,6-1.22,4.24,1.75,9.79,6.46,10a8.88,8.88,0,0,0,7.82-5c1.87-4.07-3.58-4.33-6.1-4-.37.06-1,.29-1,.78v2.34a.55.55,0,0,0,.38.58c5.67,2.57,10.66.38,13.16-5.22.45-1-1.51-1-1.86-.22-1.12,2.51-2.61,4.69-5.55,5.18a7.78,7.78,0,0,1-3.8-.64c-.82-.3-.45-1.39-.45-2.17l-1.07.78c1.8-.26,5.51-.56,4.47,2.34a6.8,6.8,0,0,1-4.4,3.72c-3.18.94-5.12-2.18-6-4.68-2.14-5.84,5.24-10.07,10.18-8.45.82.27,2.28-.92,1.11-1.3Z"/><path class="cls-5" d="M82.82,117.84c-3.61,0-6.57.28-9.34,2.75-.36.32-.13.68.22.82A20.61,20.61,0,0,0,82,122.62c.39,0,1.2-.17,1.2-.73v-1.17c0-.69-.82-.58-1.25-.4-4.14,1.76-6.1,5.92-7.52,10-.16.46.64.56.9.54,5.27-.38,7.76-4.72,10.39-8.75l-1.87.19a18.82,18.82,0,0,0,2.35,7c.31.64,1.92.42,1.94-.36a4.48,4.48,0,0,1,1-3.18l-1.68.17c1.23,2,3,3.13,4.78,4.68.42.38,2,.27,2-.5v-5.85c0-.93-2-.57-2,.19v5.85c0-.16,1.16-.33,1.78-.5-1.68-1.5-3.52-2.7-4.72-4.68-.3-.49-1.42-.18-1.7.18a5.63,5.63,0,0,0-1.36,3.83l1.94-.35a19,19,0,0,1-2.35-7c-.06-.83-1.63-.18-1.88.19-2.07,3.17-4.06,7.32-8.34,7.63l.87.53c1.2-3.4,2.77-7.27,6.3-8.77a6.31,6.31,0,0,0-1.54-.4v1.17a3.41,3.41,0,0,0,1.48-.73,30.42,30.42,0,0,1-6-.45c-3.17-.62,4.51-1.78,5.36-1.79s2.05-1.27.75-1.27Z"/><path class="cls-5" d="M109,125.6c-1.37,1.11-.3,3.87-.17,5.31a15.4,15.4,0,0,1-1.55,7.52c-2.39,5.52-8.08,9.18-13.43,11.33-.84.33-.66.85.2.76,14.17-1.54,26.53-13.05,18.67-27.62-.31-.58-2.16.09-1.93.52,4.17,7.71,3.18,15.69-3.71,21.42a22.25,22.25,0,0,1-7.53,3.82,24.59,24.59,0,0,1-3.79.81c0,.77.45.72,1.32-.16a30,30,0,0,0,7.18-4.72A18,18,0,0,0,110.6,129c-.17-1.76-.48-5.77-3.15-3.6-.82.67,1.11.52,1.51.2Z"/><path class="cls-5" d="M127.13,124.59c1.62,8,7.45,15.78,14.25,20.14.54.34,1.76,0,1.72-.77-.36-7.64-5.59-13.79-9.43-20-.37-.6-1.72-.06-1.86.5-.32,1.2-.86,2.31-1.17,3.51-.23.86,1.48.39,1.76.11l1.17-1.17c.21-.21.28-.56,0-.72-5.62-2.89-15.27,3.67-13.2,10.08.64,2,3.23,1.88,4.7,1a8.37,8.37,0,0,0,2.81-2.74c1.66-2.49.39-4.07,3.91-5,1.17-.31.87-1.43-.3-1.12s-2.32.86-3.51,1.17c-.28.07-.81.31-.82.66a9.75,9.75,0,0,1-1.1,4.15c-1.48,2.81-4,2.26-4.09-.92,0-2.34,2.16-4,3.86-5.23.85-.6,7.61-3.24,5-.65l1.76.11c.31-1.2.86-2.31,1.17-3.51l-1.86.5c3.8,6.18,8.92,12.19,9.28,19.75l1.73-.77c-6.6-4.23-12.27-11.92-13.84-19.64-.15-.77-2.09-.28-1.93.52Z"/><path class="cls-5" d="M140.71,120.88c1-1.58,1.13-3.35-.31-4.7s-4-1.81-6.1-1.83a1.41,1.41,0,0,0-1.26.55c-.23.4.19.69.55.69,2.9,0,7.64,1.44,5.3,5.16-.53.85,1.43.75,1.82.13Z"/><path class="cls-5" d="M97.29,126a36.56,36.56,0,0,0,11-1.24c1.13-.35.91-1.24-.23-.88a33.89,33.89,0,0,1-10,1.1c-.68,0-2.07,1-.77,1Z"/><path class="cls-5" d="M102.9,93.13c7.43.09,14.8,1.1,22.23,1.17.41,0,2.2-.78,1.25-.79-7.43-.07-14.8-1.08-22.23-1.17-.4,0-2.2.78-1.25.79Z"/><path class="cls-5" d="M111.63,89.48H124.5c1.09,0,1.49-1,.17-1H111.8c-1.09,0-1.48,1-.17,1Z"/><path class="cls-5" d="M119.52,86.21c5.48-.07,10.89-1.09,16.38-1.17.64,0,2.08-1,.78-1-5.49.08-10.9,1.1-16.38,1.17-.65,0-2.08,1-.78,1Z"/><path class="cls-5" d="M130,79.48H142.9c.56,0,2.1-1,.82-1H130.85c-.56,0-2.11,1-.82,1Z"/><path class="cls-5" d="M140.58,73.48h17.55c.68,0,2.08-1,.77-1H141.35c-.67,0-2.07,1-.77,1Z"/><path class="cls-5" d="M150.25,67.48H167.8c1.14,0,1.46-1,.15-1H150.4c-1.14,0-1.45,1-.15,1Z"/><path class="cls-5" d="M159.06,59.2c5.19.16,10.08,2.2,15,3.49.45.12,2.15-.6,1.59-.75-5.08-1.32-10.07-3.37-15.38-3.53-.41,0-2.21.76-1.25.79Z"/><path class="cls-5" d="M168.69,58.26c3.93.08,7.76,1.11,11.7,1.17.83,0,2-1.23.71-1.25-3.94-.06-7.77-1.09-11.7-1.17-.83,0-2,1.23-.71,1.25Z"/><path class="cls-5" d="M180.37,52.48h5.85a1.59,1.59,0,0,0,1.27-.48c.27-.38-.22-.52-.51-.52h-5.85a1.63,1.63,0,0,0-1.28.49c-.27.38.23.51.52.51Z"/><path class="cls-5" d="M181.66,51.85c.87-2,2.06-3.71,4.45-3.7a13.58,13.58,0,0,1,5.58,1.8c.64.32,2.39-.58,1.52-1-5.07-2.48-10.73-3.26-13.37,2.79-.41.93,1.53.78,1.82.12Z"/><path class="cls-5" d="M162.29,107.12c1.32,1.48,1.11,3.92,1.11,5.77,0,.37,1.93.07,1.93-.52,0-2,.18-4.36-1.22-5.93-.35-.39-2.16.29-1.82.68Z"/><path class="cls-5" d="M171.59,105.73a3.36,3.36,0,0,0,.36,1.87c.5.8,1.74.89,2.57.91a1.58,1.58,0,0,0,1.28-.54c.25-.38-.22-.58-.53-.58a1.73,1.73,0,0,1-1.52-.55,2.5,2.5,0,0,1-.23-1.35c0-.82-1.93-.41-1.93.24Z"/><path class="cls-5" d="M179.78,103.53c0,1.1.42,1.73,1.61,1.58a11.64,11.64,0,0,0,3.46-1.58c.26-.13.59-.53.18-.71a1.68,1.68,0,0,0-1.36.19c-.71.35-1.38.79-2.1,1.1-.25.11.09,0,.31,0s0-.06,0-.11a2.53,2.53,0,0,1-.14-1c0-.56-1.94-.2-1.93.52Z"/><path class="cls-5" d="M181.31,103.42c4.23-2.08,8.64-3.76,12.87-5.85,1.16-.56-.64-.55-1.12-.31-4.24,2.09-8.65,3.77-12.88,5.85-1.15.57.65.55,1.13.31Z"/><path class="cls-5" d="M203.79,91.87c2-2,4.6-3.46,6-6,.52-1-1.44-1-1.86-.25-1.26,2.37-3.85,3.83-5.73,5.67a.59.59,0,0,0,.26,1,1.31,1.31,0,0,0,1.36-.37Z"/><path class="cls-5" d="M218.58,80.3c4.28-1.57,7.68-4.92,11.7-7,1.18-.61.1-1.33-.78-.87-4,2.08-7.46,5.46-11.7,7-1.27.46-.12,1.21.78.87Z"/><path class="cls-5" d="M99.81,148.15a26.33,26.33,0,0,0,16.8-23.77c0-.36-1.75.16-1.92.44A167.78,167.78,0,0,1,103,142.37a2.62,2.62,0,0,0,1.9-.35,169.91,169.91,0,0,0,11.7-17.55l-1.92.43a25.38,25.38,0,0,1-16,23c-1.17.48.67.38,1.1.21Z"/><path class="cls-5" d="M154.34,137.83c5.77-1.47,10.84-6.18,15.45-9.7,7.76-5.94,15.66-11.19,24-16.37,20.22-12.62,40.13-25.77,58.5-41,.44-.36-1.39-.17-1.75.13-17.35,14.37-36.07,26.86-55.12,38.84-7.39,4.65-14.89,9-21.85,14.31-5.63,4.27-12.32,11.37-19.35,13.16-1.14.29-1,.92.17.63Z"/><path class="cls-5" d="M159.69,134.67c-4.66,2.33-7.62,3.12-9.83,7.83a10.16,10.16,0,0,0-.6,7.42c1.61,5.14,7.88,7.71,12.47,9.33,13.21,4.67,28.56,5,42.45,5.23,24.69.43,45.53-9.8,67-20.6,15.26-7.67,36.05-17.4,41.71-35.07,10.16-31.68-32.34-38.39-54.16-39.8-.86-.05-2,1.2-.7,1.29,16.53,1.06,38.33,3,49.76,16.62,6.45,7.68,5.47,18.56,1,26.9-5,9.3-14.52,15.71-23.35,21s-18,9.33-26.88,14.12a118.92,118.92,0,0,1-40.68,13.55c-9.78,1.27-19.65.49-29.46-.08A113.22,113.22,0,0,1,167,159.3c-5.15-1.32-10.9-3.24-14.44-7.44a8.15,8.15,0,0,1-1.71-6.57c.77-5.53,5.11-7.35,9.63-9.61,1.19-.6.11-1.47-.82-1Z"/><path class="cls-5" d="M153.9,144.84c6.47-7,20.95-5.47,29.32-3.71,11.13,2.34,20.52,9.36,32.36,7.2,12.13-2.21,23-9,34-14.08,9.91-4.56,19.73-9.32,28.79-15.43,10.7-7.21,31.8-26.27,20-40.4-8.61-10.36-28.24-11.54-40.26-8.29-1.2.32-.83,1.71.37,1.39,12.1-3.26,33-1.77,40,10.39,4.68,8.13-3,18.49-8,24.38-7.17,8.4-17,14.33-26.66,19.44-9.16,4.84-18.74,8.8-28,13.46-6.11,3.08-12.31,5.92-19,7.45-7.4,1.68-14.23-.3-21.06-3a64.69,64.69,0,0,0-24.24-5.13c-6.48-.05-14.63.72-19.3,5.76-.84.9,1,1.28,1.63.61Z"/><path class="cls-5" d="M235.28,143.42c-6.09,6.81-1.53,14.84,7.27,15.57,9.91.82,18-4.44,25.94-9.73,5.25-3.5,10.55-8.33,11.52-14.92,1.07-7.3-7.44-8.82-12.81-8.94-.44,0-2.22.81-1.25.83,5,.11,11.46,1,12.17,7,.55,4.6-3.27,9.22-6.27,12.18A53.66,53.66,0,0,1,251,157.67c-9.24,2.7-22.75-4.6-14-14.36.43-.48-1.43-.25-1.75.11Z"/><path class="cls-5" d="M245.71,141.12c-1.16,4.33-3.37,8.31-3.51,12.87,0,.48.49.54.87.53,4.16-.12,7.48-2.48,7.84-6.8.17-2.09-.59-5.93-3.46-4.84-1.25.47-.13,1.33.81,1-.53.2.18.82.4,1.47a7.45,7.45,0,0,1,.27,3c-.26,3.2-2.55,4.89-5.65,5l.87.53c.14-4.56,2.34-8.55,3.51-12.87.22-.83-1.75-.56-1.95.19Z"/><path class="cls-5" d="M257.18,139.92v8.19c0,.5.57.69,1,.68a12.82,12.82,0,0,0,9-3.78c.29-.27.56-.77.12-1a39.71,39.71,0,0,0-12.1-4.84c-1-.25-1.91,1.15-.65,1.47a36.92,36.92,0,0,1,11.29,4.52l.09-1.05a10.64,10.64,0,0,1-7.55,3.24c.3.23.81.45.81.68v-8.19c0-1-2-.79-2,.13Z"/><path class="cls-5" d="M263.86,135.48h7c.36,0,1.72-.21,1.27-.81-1.55-2.1-4.25-2.5-6.7-2.27-1.56.15-4.34.95-4.52,2.86-.08.8,1.87.45,1.93-.22.13-1.4,2.17-1.52,3.24-1.53a5.12,5.12,0,0,1,4.26,2c.42-.32.84-1,1.27-1h-7c-.74,0-2.05,1-.75,1Z"/><path class="cls-5" d="M257.31,134.34a6.83,6.83,0,0,0-2.85.22,21,21,0,0,0-5.07,3.83c-.56.56.22.94.71.94,2.4,0,2.82-1.1,4.4-2.74.55-.57-.2-.91-.7-.91a16.27,16.27,0,0,0-7.53,1.31c-.43.21-.8.68-.34,1.06,1.72,1.41,4.16,1.29,6.26,1.3.87,0,2-1.33.69-1.33-1.82,0-4,.18-5.44-1-.12.35-.23.71-.34,1.06a14.16,14.16,0,0,1,6.51-1l-.71-.92c-.94,1-1.22,1.93-2.61,1.93l.7.92c.56-.56,1.13-1.28,1.74-1.79.37-.31,1.67-1.67,2.13-1.67h2.26c1.07,0,1.51-1.14.19-1.14Z"/><path class="cls-5" d="M293.76,106.29c8.75,11.79-10.38,19.17-19.11,21.43-.56.15-1.34,1-.27.94,5.34-.38,9.5-3.18,13.84-6.11,1.08-.73-.61-.87-1.17-.49-3.62,2.44-7.32,5.26-11.9,5.59l-.27.94c9.25-2.4,30-10.42,20.68-23-.36-.48-2.23.16-1.8.73Z"/><path class="cls-5" d="M282.19,117.49c-.9.81-2.38,1.26-2.54,2.6a.27.27,0,0,0,.19.32c3.74,1.64,7.58-2,8.76-5.26.21-.59-1.16-.29-1.34-.23a7.12,7.12,0,0,0-3.49,2.46,23.22,23.22,0,0,0-1.78,3.89c-.25.52,1.65.32,1.93-.27,1.09-2.26,1.46-4.4,4.09-5.35l-1.34-.23a7.41,7.41,0,0,1-3.14,4c-.22.13-2,.72-1.91.09s1.71-1.37,2.1-1.72c.82-.74-1.1-.66-1.53-.27Z"/><path class="cls-5" d="M296.89,101.86c9.41-.73,15.34,8.36,14.34,17l1.94-.35a14.93,14.93,0,0,0-5.25-8.26c-3.28-2.5-7-4.22-10-7.1-.56-.53-2.39.23-1.79.8,5.52,5.28,12.88,7,15.14,15.07.21.75,1.86.31,1.94-.35,1.13-9.8-5.87-18.87-16.07-18.07-1,.08-1.55,1.33-.22,1.23Z"/><path class="cls-5" d="M298.59,97.11c2.05,1.06,3.86,2.4,6.26,2.48.39,0,1.83-.46,1.22-1.11a17.87,17.87,0,0,1-1.39-1.85,6.65,6.65,0,0,0-2.26-1.78c-.46-.24-1.74-.13-1.72.62.06,2,1.11,3.83,1.17,5.85,0,1,2,.68,1.95-.16-.06-2-1.11-3.82-1.17-5.85l-1.72.63a6.07,6.07,0,0,1,2.13,1.73,18.22,18.22,0,0,0,1.24,1.65l1.23-1.1c-2.08-.06-3.66-1.28-5.45-2.2-.72-.37-2.43.61-1.49,1.09Z"/><path class="cls-5" d="M283.16,127.24c2.34,4.68,4.71,9.36,7,14,.33.66,2,.18,2-.51V120.88a15.51,15.51,0,0,0-2,.51c1.16,4.57,2.34,9.09,7.2,10.74.5.17,1.55,0,1.73-.59a39.45,39.45,0,0,0,1.17-10.66l-1.87.63c1.19,1.93,3.06,3.43,3.44,5.73.11.67,1.66.12,1.86-.24,2.2-3.83,2.45-7.93-1.17-10.92-.52-.43-2.31.32-1.79.75,3.38,2.79,3.23,6.54,1.17,10.14l1.86-.24c-.41-2.47-2.31-3.91-3.58-6-.34-.56-1.86,0-1.86.63a37.5,37.5,0,0,1-1.17,10.4l1.74-.59c-4.68-1.58-5.74-6-6.83-10.32-.17-.7-1.93-.15-1.93.51v19.89l1.93-.51-7-14c-.33-.66-2.21,0-1.93.51Z"/><path class="cls-5" d="M211,146.77c-2.68,1.25-6.26,3.59-4.22,6.93,1.78,2.93,6.08,4.07,9.27,4.21,2.65.12,6.59-.84,8.25-3.1,2.27-3.1-3.28-3.6-5.1-3.63-.38,0-2.19.74-1.26.75,1.41,0,5.91.2,4.77,2.76s-5.33,2.65-7.68,2.18a10.4,10.4,0,0,1-6.32-3.69c-2-2.8,1.09-5.11,3.39-6.2,1.16-.54-.66-.42-1.1-.21Z"/><path class="cls-5" d="M192.76,141.79c-10.77,2.49-22.44,1.64-31.08,9.66-.26.25-.26.52.16.57,6.94.8,12.8-2.05,19.43-3.57.87-.21,1.17-1,0-.86-2.38.25-4.64.92-7,1.17-.22,0-1.65.59-.93.88,5.2,2.06,10.25.29,15.6.05.6,0,2.1-1,.79-.95-2.11,0-3.27.22-4.8,1.67-.51.48,1.39.32,1.78,0,2.88-2.72.53-1.47-1.69-1.16-3.54.5-6.69.94-10.12-.41l-.93.88a23.21,23.21,0,0,0,3.77-.64c2.34-1.14,2.46-1.36.36-.64-1,.3-2,.62-3,.94a35.94,35.94,0,0,1-8.91,2c-5.18.38,3-3.81,3.77-4.15,7.12-3.19,15.44-2.82,22.95-4.55,1.16-.27.93-1.07-.21-.81Z"/><path class="cls-5" d="M187.81,145.33c-5.26-.72-10.94,1.27-13.93,5.81-3.36,5.11,1.53,11.42,6.53,12.49,9.25,2,23.5-5.75,24-15.84,0-.31-1.91-.06-1.93.51-.35,8-9,13.32-16.11,14.57-13.72,2.42-15.45-18.87-.1-16.79.46.07,2.11-.68,1.59-.75Z"/><path class="cls-5" d="M186.92,150c-3.83,1.15-7.87,1.2-11.7,2.34-.13,0-1.17.4-.81.69,3.29,2.72,8.28,1,11.14-1.57l-1.83.21c-1.86,2.94-1.12,4.06,0,7.12.18.5,1.46,0,1.71-.2a13.29,13.29,0,0,0,6.07-10.84c0-.32-1-.12-1.06-.09-4.7,1.5-6.24,6.82-2,10.05.45.34,2.16-.42,1.81-.69-2.72-2.06-3.83-7.34.36-8.67l-1.06-.09a12.5,12.5,0,0,1-5.64,10.22l1.72-.2c-1-2.89-1.79-4.11,0-6.92.26-.42-1.59,0-1.84.21-2.14,1.91-5.3,2.65-7.57.77l-.82.69c3.83-1.15,7.87-1.2,11.7-2.34,1.12-.34,1-1-.18-.69Z"/><path class="cls-5" d="M194.24,148.3c.57,1.67,1.42,4,3.22,4.7,2,.78,3.74-1.21,4.55-2.76.24-.44-1.63-.26-1.92.29a9.27,9.27,0,0,1-.75,1.2l-.2.23q-.57.39-.12.18a2.42,2.42,0,0,1-1.12-.88,10.47,10.47,0,0,1-1.73-3.47c-.2-.59-2.12,0-1.93.51Z"/><path class="cls-5" d="M171,142.82c-3.51.08-6.59,1.29-9.87,2.4-1.12.38-.89,1.36.26,1,2.92-1,5.73-2.21,8.86-2.28.71,0,2.05-1.12.75-1.09Z"/><path class="cls-5" d="M207.42,155.76c-4.08,3.52,1,6.3,4.62,6a8.5,8.5,0,0,0,3.3-1.18c.95-.53,2.13-2.38,2.88-2.38-.43,0,2.47,1.86,2.9,2a17.31,17.31,0,0,0,4.43.36c1.13,0,1.46-1.48.15-1.49a25.31,25.31,0,0,1-2.89-.14c-1.89-.2-2.12-1.06-3.47-2a3.12,3.12,0,0,0-2.09-.12,1.13,1.13,0,0,0-.63.39,7.69,7.69,0,0,1-4,3c-2,.62-6.79-1-3.91-3.43,1-.86-.53-1.6-1.3-1Z"/><path class="cls-5" d="M302.45,90.27c-7.33-2.66,4.62-15.57,9.95-13.86,4.92,1.58,7.45,8.3,4.6,12.46-2.43,3.56-8.46,4.43-12.19,6.17-.81.38-.65.92.23.85,5.51-.44,10-3.59,14.78-6.09,1.06-.56-.39-.88-1-.61-5.72,2.61-9.5,7.92-15.21,10.53-1.06.48-.37,1,.49.8,5.8-1.27,11.43-3.28,15.86-7.34.81-.74-1.1-.65-1.53-.26a26,26,0,0,1-8.55,5,40,40,0,0,1-4.42,1.31l.21.55a13.88,13.88,0,0,0,1.46-.81c4.53-2.57,7.62-6.91,12.44-9.12l-1-.61c-3.05,1.6-6,3.38-9.14,4.75-6.77,2.91-.4.25,1.15-.32,2.53-.93,5.57-2,7.44-4.09,4.66-5.09.81-12.53-5.2-14.45-6.46-2.07-20.57,12.86-12,16,.55.2,2.31-.62,1.55-.89Z"/><path class="cls-5" d="M47.5,108.25c4.51-6.63,14.94-8.75,22.36-10,.86-.15,1.64-1.18.3-.95-8.06,1.41-19.5,3.74-24.44,11-.46.67,1.46.44,1.78,0Z"/><path class="cls-5" d="M188.8,125.32c10.34,2.77,19.75,8.09,29.25,12.87.84.42,2.22-.79,1.11-1.35-9.51-4.78-18.92-10.1-29.26-12.87-.87-.23-2.28,1-1.1,1.35Z"/><path class="cls-5" d="M199.31,125.25c6.7,1.45,13.4,4.41,18.41,9.16.58.56,2.41-.21,1.77-.81a39.93,39.93,0,0,0-19-9.56c-.75-.17-2.29,1-1.14,1.21Z"/><path class="cls-5" d="M205.12,118.07c8.19.29,15,4.55,22.06,8.16.46.23,2.25-.48,1.57-.83-7.2-3.67-14.11-7.94-22.4-8.23-.49,0-2.24.87-1.23.9Z"/><path class="cls-5" d="M214.76,113.64a30.49,30.49,0,0,1,18.17,10.26c.56.67,2.4-.1,1.77-.85a32.14,32.14,0,0,0-19.27-10.81c-1-.17-2,1.17-.67,1.4Z"/><path class="cls-5" d="M226,106.47c5.14,2.69,9.54,6.9,15.62,7.15.9,0,2-1.3.69-1.35-5.75-.24-10-4.34-14.81-6.89-.71-.37-2.42.6-1.5,1.09Z"/><path class="cls-5" d="M234.07,102.73c3.12,1.6,6,3.51,9.36,4.68a2.86,2.86,0,0,0,1.83-.64c-3.33-1.17-6.25-3.08-9.36-4.68-.49-.25-2,.55-1.83.64Z"/><path class="cls-5" d="M242.21,95.65c1.67,4.34,6.76,6.17,10.89,7.25.55.14,2.27-.7,1.21-1-3.85-1-8.61-2.77-10.17-6.8-.24-.61-2.14,0-1.93.52Z"/><path class="cls-5" d="M249.23,92.14a7.13,7.13,0,0,0,6.42,3.75c.67,0,2.09-1,.78-1a6.09,6.09,0,0,1-5.27-3.28c-.32-.6-2.18.06-1.93.52Z"/><path class="cls-5" d="M251.11,92c2-2.79,4.67-3.76,7.69-1.89.68.42,2.41-.52,1.5-1.07-4.14-2.56-8.34-1-11,2.78-.59.84,1.38.82,1.83.18Z"/><path class="cls-5" d="M265,84.48h3.51A1.84,1.84,0,0,0,269.8,84c.3-.35-.25-.48-.49-.48H265.8a1.85,1.85,0,0,0-1.28.53c-.3.35.25.47.49.47Z"/></svg>