<svg id="layer1" xmlns="http://www.w3.org/2000/svg" viewBox="0 0 338.05 281.33"><defs><style>.cls-1{fill:#fff;}.cls-2{fill:#492d0c;}.cls-3{fill:#006843;}.cls-4{fill:#f00822;}.cls-5{fill:#a34417;}.cls-6{fill:#e2a763;}.cls-7{fill:#56260b;}.cls-8{fill:#ffc925;}.cls-9{fill:#b7b791;}.cls-10{fill:#00858a;}.cls-11{fill:#ffa6b7;}.cls-12{fill:#00c3de;}.cls-13{fill:#ffac49;}.cls-14{fill:#9ba265;}</style></defs><path class="cls-1" d="M46.17,74.82c18.73-.12,43,.72,56.9.48,35.57-.61,136.41-1.66,168.63-.78,0,0-.12,104.55-.67,118.48,0,0-198.1,2.86-224.27,1.83-2.46-.1-1.73-52.74-1-70.15C44.58,108.93,46.17,74.82,46.17,74.82Z"/><path class="cls-2" d="M45.81,75.42c22.46-.11,44.91.65,67.37.32q28.94-.42,57.86-.65,32.1-.28,64.21-.3,12.76,0,25.55.14c3.08,0,6.15.09,9.23.16,1,0,.7-.59.7,1.28-.05,38.87.79,77.89-.67,116.73.45-.23.89-.47,1.33-.71q-77.91,1.13-155.83,1.83-22,.18-44,.23c-5.17,0-10.34,0-15.52-.06-1.4,0-8.45.45-8.78-.43-1.92-5.21-1.08-12.51-1.18-17.91-.18-9.55-.11-19.11,0-28.66.24-17.89-.07-35.77.35-53.65q.23-9.51.65-19c0-.88-1.91-.51-1.94.21-.72,15.67-1.3,31.44-.62,47.12.76,17.64-.67,35.49-.42,53.17.09,6.06-.07,12.37,1,18.36.49,2.75,3.38,1.93,5.63,2,10.59.19,21.18.13,31.78.09,60.17-.23,120.35-1.08,180.51-1.92l7.6-.11c.38,0,1.31-.16,1.33-.71,1.49-39.42.63-79,.67-118.47,0-.34-.29-.49-.61-.5-35.58-1-71.25-.31-106.84,0q-26.55.24-53.1.62c-21.87.33-43.72-.46-65.59-.35C45.73,74.22,44.5,75.43,45.81,75.42Z"/><polygon class="cls-3" points="118.94 194.82 45.94 194.82 46.17 74.82 118.94 75.82 118.94 194.82"/><polygon class="cls-4" points="270.94 192.82 197.21 193.65 197.94 73.82 271.7 74.52 270.94 192.82"/><path class="cls-5" d="M177.85,120.83c-1.18-.57-.69-2.18-1.2-3.15a15.45,15.45,0,0,0-2.79-3.87,10,10,0,0,0-4-2.39l-1.24-1.13c.25-.18.4-.41.19-.69-1-1.28-2.48-1.38-3.93-1.86A21.71,21.71,0,0,0,162,107a5.16,5.16,0,0,0-.94-.23,7.91,7.91,0,0,0-3.26-.54c-1,.08-1.42.4-1.42.82l-.13.1a3.32,3.32,0,0,0-1.42.81,1.15,1.15,0,0,0-.47.53c-.53,1.47,1.18,1.8,2.62,2a10.29,10.29,0,0,1,1.12,2.45,2.69,2.69,0,0,0-1.65-.52,1.17,1.17,0,0,1-.49-.84,1.83,1.83,0,0,1,.24-.31c.05,0,.18-.17.05-.22a6.44,6.44,0,0,0-2.59-.58,4.69,4.69,0,0,0-1.17.38c.1-.5.21-.94.25-1.09.09-.36-1.73,0-1.9.37l0,.06a1.1,1.1,0,0,0-.5.29,2.67,2.67,0,0,0-.28.56h0a3,3,0,0,0-.78.3,2.08,2.08,0,0,0-1.39.4,2.21,2.21,0,0,0-.73,2,.47.47,0,0,0,.06.09.57.57,0,0,0-.34.22c-.27.38.22.42.51.43.78,0,1.52.27,2.31.3a2,2,0,0,0,.39-.08,1.33,1.33,0,0,0,1,0l.17.17c.15.2.31.52.48.72,0,0,0,.19,0,.19h0s0-.08.05-.06.06,0,.09,0a3.19,3.19,0,0,1,.45.74,1.3,1.3,0,0,0-.56.28h0c-.11.18-.23.35-.35.52s0,.1.17.1h0a1.16,1.16,0,0,0-.15.26,10.92,10.92,0,0,1-.88,2,.6.6,0,0,0,.33.82,1.06,1.06,0,0,0-.33.49c-.76,1.84-.57,2.8-.41,4.82,0,.53.56.74,1,.68.12,1.19.48,2.8,1.23,3.41.11.21.22.41.35.61a.45.45,0,0,0-.2.39,1.22,1.22,0,0,1-.06.42.45.45,0,0,0-.17.11,1.39,1.39,0,0,0-.26.37l-.09,0V132a1.06,1.06,0,0,0,.05.72c-.43.14-.63.86-.1.95.05,0,.05.07.05.08v0h.2a4.38,4.38,0,0,0,1.09-.07l-.29.48a.5.5,0,0,0,.44.74c.85-.08,1.8-.74,2.6-.26.33.2,1-.06,1-.43v-.46a1.23,1.23,0,0,0-.06-.36,2,2,0,0,0,.15-.93,15.78,15.78,0,0,0,2.4,3.25,2.28,2.28,0,0,0,.5,1.33c.39.44,1-.09.8-.56a4.85,4.85,0,0,1,.32.69c.15.64,1.06.36,1-.26a4.36,4.36,0,0,0-.35-1.11l.37.23c.5.29,1.51.16,1.69-.5A3,3,0,0,0,165,137a.49.49,0,0,0,.66-.16,3.58,3.58,0,0,1,2,.52c.47.3,1.05-.43.6-.79l-.1-.07h0l-.28-.19v0c0-.11-.1-.19-.14-.28l.34.17.49.43,0,0,.37.3a.61.61,0,0,0,.51.09,1.12,1.12,0,0,0,.84-.32.43.43,0,0,0,.29-.06l.21-.16a.75.75,0,0,0,.15-.16,2.82,2.82,0,0,0,1-.14h0l.29-.11.35.23c.4.27,1-.28.68-.68-.1-.14-.2-.26-.3-.38a.44.44,0,0,0-.13-.25,4.91,4.91,0,0,0-1-.79.43.43,0,0,0-.4-.06s0,0,0,0l-.1-.08h0l0,0a10.41,10.41,0,0,0-.86-.62L170,133q-.27-.22-.54-.42a19.84,19.84,0,0,0-5.43-3.4l-.05,0h0a.35.35,0,0,0-.2,0l0,0a10.51,10.51,0,0,0-.23-3.51.93.93,0,0,0,.43-.56l.25.23a1.29,1.29,0,0,0,1,.12c.22.26.78.53.78.79h0c0,.07,0,.12.06.16.49.58.92,1.16,1.44,1.71a.48.48,0,0,0,.75-.6c-.26-.41-.49-.83-.71-1.26a.44.44,0,0,0,.05-.26.56.56,0,0,0-.14-.3l.07,0-.12-.17a1.22,1.22,0,0,0,.5-.08,7.26,7.26,0,0,0,.88,1.88.51.51,0,0,0,.9-.09c.21.4.43.8.63,1.21a9.61,9.61,0,0,0,.42,1,.5.5,0,0,0,.88,0,13.58,13.58,0,0,1,.37,1.46,23.75,23.75,0,0,0,.29,2.36c.1.56,1,.42,1-.13s-.07-.95-.13-1.44a.44.44,0,0,0,.13-.34,23.6,23.6,0,0,0-.37-3.14.41.41,0,0,0-.25-.32c-.08-.76-.2-1.52-.32-2.29.16.31.3.65.44,1s.24.73.38,1.09a22,22,0,0,1,.9,6.51c0,.6.79.63,1,.13.8-2.11-.09-4.36-.55-6.55-.05-.7-.46-1.39-.46-2.1v-.1s.27.11.33.16a1.19,1.19,0,0,0,.81.16c.78,3.18.45,6.84.44,9.89,0,0,0,0,0,.05s0,0,0,.08h0a.5.5,0,0,0,.95,0h0v-.15c.3-4.39,2-8.89.51-13.22a.4.4,0,0,0-.1-.17h.26C178,122.3,178.75,121.26,177.85,120.83Zm-9.59,13.45a.08.08,0,0,0,0,0l.12.12Zm-10-20.8-.27-.18a1.17,1.17,0,0,0,.19-.14C158.16,113.27,158.19,113.37,158.21,113.48Zm18.34,15,0,0,0,.25A2.46,2.46,0,0,1,176.55,128.53Z"/><path class="cls-6" d="M159.19,110.12c.09.21.4.13.45-.06a2.93,2.93,0,0,0,.12-.75,1.69,1.69,0,0,0,0-1c1.47.25,2.84,1.17,4.23.86v.6h2c1,0,1-1,0-1h-1.2c.08-.18-.05-.4-.26-.28a3.23,3.23,0,0,1-2.73-.12.2.2,0,0,0-.1-.23,6.26,6.26,0,0,0-3-.75s0,0-.06,0a.19.19,0,0,0-.1,0l0,0s0,0,0,0l-.09-.18c-.15-.29-.58-.05-.44.24C158.37,108.46,158.82,109.27,159.19,110.12Z"/><path class="cls-6" d="M171.94,114.84a5.44,5.44,0,0,1,1.8,2.45,8.28,8.28,0,0,0,2.37,3.2c.26.2.51-.24.25-.43-1.47-1.13-2-2.82-2.89-4.37-.72-1.26-2.2-1.73-3.31-2.54-.26-.19-.51.24-.25.43C170.56,114.05,171.27,114.41,171.94,114.84Z"/><path class="cls-6" d="M176.45,125.43a3.23,3.23,0,0,0-.57-1.88.22.22,0,0,0-.38,0,.25.25,0,0,0-.21.31,9.79,9.79,0,0,0,.47,1.51,38.08,38.08,0,0,1,.4,8c0,.28.44.35.5.07A17.57,17.57,0,0,0,176.45,125.43Z"/><path class="cls-6" d="M171.73,122.76a7.17,7.17,0,0,0,.19,1.66.23.23,0,0,0,.35.13c.4,1.59,1.23,3,1.6,4.65a.25.25,0,0,0,.49-.06c.08-2.39-1.31-4.31-2.13-6.45A.26.26,0,0,0,171.73,122.76Z"/><path class="cls-6" d="M171,123.29a.24.24,0,0,0-.48,0c-.1-.11-.19-.23-.3-.33a.26.26,0,0,0-.42.25c.09.34.17.67.24,1-.23-.28-.46-.56-.67-.85s-.57,0-.45.31a1,1,0,0,0,0,.17s0-.11,0-.11.06.06.09.12c-.18,0-.38.06-.3.26s.12.34.18.52a.71.71,0,0,0-.15.15.25.25,0,0,0,.09.34s0-.23.06-.22.05,0,.09,0a2.25,2.25,0,0,1,.08.24l.1-.13h0l.14-.05a.31.31,0,0,0,.17-.09l.18.16a.29.29,0,0,0,.36,0,1.83,1.83,0,0,1,.13.16c.14.19.48.15.47-.12a7.63,7.63,0,0,0-.12-1l.07.11c.22,1.52.82,3,1.15,4.46a.25.25,0,0,0,.49-.07,9.52,9.52,0,0,0-1.17-4.59A5.85,5.85,0,0,1,171,123.29Z"/><polygon class="cls-6" points="168.93 123.82 168.93 123.81 168.93 123.82 168.93 123.82"/><path class="cls-6" d="M151.68,111.82s0-.48.09-.93l0-.1,0,0c0-.08,0-.16.05-.24s-.2-.29-.36-.16c0-.07,0-.14,0-.21a.28.28,0,0,0,0-.11c0-.07,0-.15,0-.23H151c0,.18,0,.33,0,.47a3.36,3.36,0,0,1-.55,1.41c0-.15.09-.29.13-.44l0,0h0l0-.11c.1-.28-.3-.41-.45-.19s-.31.48-.45.72c0-.08,0-.15,0-.24,0-.32-.49-.32-.5,0a3.1,3.1,0,0,1-.46,1.41h-.18c-.08,0-.18-.07-.22,0a1.86,1.86,0,0,0-.17.48l-.17,0c-.13,0-.09.12-.09.25a.4.4,0,0,1-.16.25h0l-.07,0c.1.08.22.16.22.24s0,.3.16.24a.05.05,0,0,0,0,0,1.67,1.67,0,0,0,.27.31.26.26,0,0,0,.4,0,.93.93,0,0,0,.11-.8l0,0a.27.27,0,0,0,.38-.11c.14-.29.28-.6.43-.9,0,.18.28.12.42,0l0,0,0,0a.36.36,0,0,1,0-.1,5.59,5.59,0,0,0,.55-.77v0h0a.28.28,0,0,0,.35.23C151.26,112.8,151.67,112.73,151.68,111.82Z"/><path class="cls-6" d="M152,112.9c1.55-.18,2.56,1.18,2.94,2.58a8,8,0,0,0,.18,1.14.25.25,0,0,0,.49-.07,5.13,5.13,0,0,0-.22-1.31A3.85,3.85,0,0,0,155,114a5.61,5.61,0,0,1,1.17,1.3c.16.21.56.1.46-.19a7.2,7.2,0,0,0-.41-1,1.88,1.88,0,0,1,1.17,1.29.25.25,0,0,0,.48-.13,2.39,2.39,0,0,0-2.19-1.78c-.15,0-.23.1-.23.23a2.52,2.52,0,0,0-1.37-.59,2.64,2.64,0,0,0-2.12-.71C151.64,112.44,151.64,112.94,152,112.9Z"/><path class="cls-6" d="M155,120.82l0-.25s0,0,0,0a8.37,8.37,0,0,0,.41-1.62c.14.35.24.72.35,1.09s.42.13.49-.11.18-.61.27-.93c0,.12.08.23.13.4a.23.23,0,0,0,.07.1,3.49,3.49,0,0,0-.07.37h.48c0-.13,0-.24,0-.34s0,0,0-.08c.12-.47.25-.93.39-1.39.2.32.38.65.57,1a.26.26,0,0,0,.47-.13c0-.3-.06-.61-.09-.91a.24.24,0,0,0,.43-.08c.13-.6-.15-1.58.52-1.09a.25.25,0,0,0,.37-.15,7,7,0,0,1,.18-.89.25.25,0,0,0-.49-.13.66.66,0,0,0-.07.47.25.25,0,0,0-.39,0,1.85,1.85,0,0,0-.49,1.13l-.22-.24a.25.25,0,0,0-.43.17c0,.24.05.47.07.7-.11-.17-.22-.35-.35-.52s-.37.2-.42.36c-.1.32-.19.62-.28,1,0-.14-.07-.27-.12-.43s0-.05-.05-.08,0-.15.05-.25h-.49l0,.16,0,0a7.81,7.81,0,0,1-.29.86,3.26,3.26,0,0,0-.49-.86c-.11-.16-.41,0-.46.28-.08.41-.14.8-.22,1.22a.25.25,0,0,1,0-.08.32.32,0,0,0,0-.09.14.14,0,0,1,0-.06h-.05c-.1-.17-.33-.23-.42-.06h0v0c-.16.5-.31.58-.54,1.18-.08-.19-.15-.42-.21-.59a.25.25,0,0,0-.37-.14,4.72,4.72,0,0,0-.43.27,3.7,3.7,0,0,1-.08-.94.25.25,0,0,0-.38-.21,2,2,0,0,0-.87,1.21,2.45,2.45,0,0,1,.45.07c0,.27.23.35.28.06a2.12,2.12,0,0,0,.12-.2,3.07,3.07,0,0,0,.11.56.24.24,0,0,0,.41.11c.54-.62.48-.11.84.48a.25.25,0,0,0,.43,0,8.58,8.58,0,0,0,.37-.82c0,.08,0,.15.05.23l.06.08c0,.07,0,.14-.06.22Z"/><path class="cls-6" d="M152.25,121.87c0-.32-.5-.31-.54,0a5.5,5.5,0,0,0,.93,3.85c.14.19.3.14.3-.13,0,0,.22-.08.38-.12A5.21,5.21,0,0,1,152.25,121.87Z"/><path class="cls-6" d="M154.19,124.1c-.28.07-.46.08-.62.14a11.19,11.19,0,0,1-.22-1.31c0-.32-.41-.32-.41,0v-.11h-.17a13.32,13.32,0,0,0,.36,1.83.25.25,0,0,0,.46.15c.17-.23.49-.16.74-.22A.25.25,0,0,0,154.19,124.1Z"/><path class="cls-6" d="M155.25,124.82s0,0,0,.06c0,.33.68.33.68,0v-.66a2.94,2.94,0,0,0,.47-1c0,.08.07.16.12.24s.37,0,.44-.19a1,1,0,0,0,.13.28.22.22,0,1,0,.35-.28c-.13-.17-.22-.33-.35-.5a.26.26,0,0,0-.35,0,1.53,1.53,0,0,1-.11-.51.25.25,0,0,0-.49-.06c-.07.27-.13.61-.21.94v-.28h-.53c0-.09,0-.17,0-.27,0-.32-.51-.29-.5,0,0,0,0,.09,0,.14s0,0,0,0a2.34,2.34,0,0,0,0,.26v1.8Z"/><path class="cls-6" d="M159.15,120.45a2.57,2.57,0,0,1-.05.4,5.44,5.44,0,0,0-.19-.52c-.14-.3-.57,0-.43.25a3.36,3.36,0,0,1,.32,1.29.25.25,0,0,0,.25.25h.17a.25.25,0,0,0,.25-.25,6.93,6.93,0,0,1,.1-.78.44.44,0,0,0,.54-.11c.24-.22-.12-.57-.35-.35,0,0-.1-.16-.13-.26A.25.25,0,0,0,159.15,120.45Z"/><path class="cls-6" d="M159.63,120.37s0,0,0,0S159.62,120.32,159.63,120.37Z"/><path class="cls-6" d="M160.34,119.78c.28.22.6.23.72-.15a.19.19,0,0,0-.08-.23s0,0,0,0a4.21,4.21,0,0,0,.74-.94c.16-.28-.28-.54-.43-.25a3.35,3.35,0,0,1-.67.83.24.24,0,0,0,0,.35l-.06,0C160.33,119.15,160.09,119.59,160.34,119.78Zm.33-.39h0S160.66,119.39,160.67,119.39Z"/><path class="cls-6" d="M162.29,116.34a1.05,1.05,0,0,0-.66.92.26.26,0,0,0,.05.12.25.25,0,0,0,0,.49h.18a7.9,7.9,0,0,1,.25-.61c0-.28.18-.37.41-.49S162.57,116.19,162.29,116.34Z"/><path class="cls-6" d="M162,115.14v.35a.25.25,0,0,0,.5,0v-.35A.25.25,0,0,0,162,115.14Z"/><path class="cls-6" d="M161.81,113.89v.18a.25.25,0,0,0,.5,0v-.18A.25.25,0,0,0,161.81,113.89Z"/><path class="cls-6" d="M162.1,111.89s0,0,0-.07a1.81,1.81,0,0,1-.15-.76.25.25,0,0,0-.5,0,2.36,2.36,0,0,0,.22,1,0,0,0,0,0,0,0,.48.48,0,0,0-.05.22c0,.3.41.31.48,0A.24.24,0,0,0,162.1,111.89Z"/><path class="cls-6" d="M157.52,130.2a3.49,3.49,0,0,0-.05-.65h.16a.25.25,0,0,0,.25-.25c0-.17,0-.34,0-.51l0-.32v-.06a.26.26,0,0,0-.05-.39c-.41-.28-.45.26-.42.73a2.33,2.33,0,0,1-.37-.46.25.25,0,0,0-.43.25,2.58,2.58,0,0,0,.35.45.2.2,0,0,0,0,.08c-.08-.1-.15-.21-.23-.32-.2-.29-.78-.94-.69-1.33s-.41-.45-.48-.13c-.11.49.26,1,.51,1.37s.39.56.59.84a15.44,15.44,0,0,0-1.44-1.12c-.27-.18-.52.25-.26.43a11.51,11.51,0,0,1,1.73,1.38.23.23,0,0,0,.37-.06l.12.19A.25.25,0,0,0,157.52,130.2Z"/><path class="cls-6" d="M159.62,128.66c-.34-.67-.78-1.81-1.64-1.9l0,0-.06-.19c-.07-.32-.55-.18-.48.13a5.86,5.86,0,0,0,1.26,2.19c.14.17.49.15.47-.13v0c0,.06,0,.11.08.16C159.33,129.2,159.76,128.94,159.62,128.66Zm-1.24-1c-.08-.13-.15-.26-.22-.39a1.29,1.29,0,0,1,.37.34A.2.2,0,0,0,158.38,127.71Z"/><path class="cls-6" d="M160.29,127a1.31,1.31,0,0,0,.25-.89.25.25,0,0,0-.5,0,2.62,2.62,0,0,1,0,.28l-.27-.28a.23.23,0,0,0-.25,0c-.12-.24-.23-.49-.34-.73s-.66-.17-.54.13a16.47,16.47,0,0,1,.94,2.66c.06.28.37.21.37-.07a1.52,1.52,0,0,1,.36-.06,5.53,5.53,0,0,0-.35-1A.26.26,0,0,0,160.29,127Z"/><path class="cls-6" d="M161.25,125.59v-.49a.23.23,0,0,0,.1-.39l-.1-.18a.25.25,0,0,0-.5,0h0a3.48,3.48,0,0,1-.22-.43.25.25,0,0,0-.49.06v.54a.23.23,0,0,0,.34.2,4.74,4.74,0,0,1,.37.75A.26.26,0,0,0,161.25,125.59Z"/><path class="cls-6" d="M162,122.58v-1.26a1.64,1.64,0,0,1,.29.2c.25.19.6-.16.35-.36a1.47,1.47,0,0,0-.89-.43.26.26,0,0,0-.25.25v.7l-.06-.11c-.15-.29-.59,0-.43.25s.36.58.53.88A.25.25,0,0,0,162,122.58Z"/><path class="cls-6" d="M163.65,118.78a1.45,1.45,0,0,0-1.3,1.07s0,0,0,.06,0,0,0,0a.18.18,0,0,0,0,.13l.07.05.06,0s0,0,.06,0a1.37,1.37,0,0,0,.84-.21c.25-.19,0-.62-.26-.43l-.09,0a.81.81,0,0,1,.57-.29A.25.25,0,0,0,163.65,118.78Z"/><path class="cls-6" d="M164.34,117.62a4,4,0,0,0,.44-.82c.12-.31-.37-.43-.48-.14a8.61,8.61,0,0,1-.68,1.18h0a.23.23,0,0,0,0,.16.25.25,0,0,0,0,.09.27.27,0,0,0,.12.09.23.23,0,0,0,.14,0c.14,0,.22-.14.35-.18A.23.23,0,0,0,164.34,117.62Z"/><path class="cls-6" d="M164.82,115.31v.36a.25.25,0,0,0,.5,0v-.36A.25.25,0,0,0,164.82,115.31Z"/><path class="cls-6" d="M165.48,114.48c.25-.07.25-.49,0-.48s-.42.13-.43.43S165.41,114.73,165.48,114.48Z"/><path class="cls-6" d="M165.85,111.53c-.86-.19-1.19.32-1.2,1.12a.17.17,0,0,0,0,.14s0,0,0,0a.25.25,0,0,0,.09,0,.24.24,0,0,0,.09,0h.35a.25.25,0,0,0,0-.5h-.09c0-.3.15-.48.55-.39S166.16,111.59,165.85,111.53Z"/><path class="cls-6" d="M159.47,133.15a3.13,3.13,0,0,1-1.18-1c-.2-.22-.46-.67-.77-.75a.25.25,0,0,0-.13.48s.2.23.27.31l.51.57a2.81,2.81,0,0,0,1.16.89C159.64,133.73,159.77,133.24,159.47,133.15Z"/><path class="cls-6" d="M159.93,131.62a.24.24,0,0,0-.41.15c-.19-.1-.47.09-.33.33a4.15,4.15,0,0,0,.74.93.25.25,0,0,0,.42-.15.39.39,0,0,0,.08.1c.15.29.58,0,.43-.25A5,5,0,0,0,159.93,131.62Z"/><path class="cls-6" d="M161.53,130.55c-.21-.21-.41.07-.6.12a.2.2,0,0,0-.16.19.24.24,0,0,0-.17.35,4,4,0,0,0,.75.94c.23.23.58-.13.35-.36a4.05,4.05,0,0,1-.56-.68l.15-.07a3.4,3.4,0,0,1,.55.7.25.25,0,0,0,.44-.25A4.84,4.84,0,0,0,161.53,130.55Z"/><path class="cls-6" d="M162.63,129.54c-.14-.29-.57,0-.43.25s.22.6.35.89.57,0,.43-.25S162.76,129.83,162.63,129.54Z"/><path class="cls-6" d="M162.17,127.78a17.34,17.34,0,0,0,.89,2.84c.12.3.6.17.48-.13a19.07,19.07,0,0,1-.89-2.84C162.59,127.34,162.11,127.47,162.17,127.78Z"/><path class="cls-6" d="M169.1,134.77c-1.56-1-2.9-2.39-4.67-3-.3-.11-.43.37-.13.48,1.72.63,3,2,4.55,3C169.12,135.38,169.37,134.94,169.1,134.77Z"/><path class="cls-6" d="M170.16,133.53a23,23,0,0,0-3.54-1.95.26.26,0,0,0-.37.23,1.86,1.86,0,0,0-.47-.09c-.32,0-.32.48,0,.5,1.25.08,2.19,1.53,3.24,2.09a.25.25,0,0,0,.25-.43,10.5,10.5,0,0,1-1.56-1.2,24.21,24.21,0,0,1,2.2,1.28C170.18,134.14,170.43,133.71,170.16,133.53Z"/><path class="cls-7" d="M173.73,120.09a29.6,29.6,0,0,0-5.91-7.52.37.37,0,0,0-.32-.1c-.23-.32-.83-.13-.66.28a2,2,0,0,1,.13.41c-.26-.37-.88,0-.63.39s.33.5.5.74c-.16.1-.39.29-.27.5s.37.42.37.62h0c0,.09.16.17.13.23,0-.29-.33-.52-.56-.24a1.25,1.25,0,0,0-.2.38,1.08,1.08,0,0,0,0,.19v0a.37.37,0,0,0-.35.37c0,.1,0,.18,0,.27s0,0,0,.08h0a0,0,0,0,1,0,0,.42.42,0,0,0-.21.34l-.09.07a1.39,1.39,0,0,0-.35.79,1,1,0,0,0,.08.38.34.34,0,0,0-.48.34v.17s-.5.29-.34.55c0,0-.17.11-.16.16-.16,0-.5.19-.5.36v.2c0-.09-.33,0-.33.33a2.53,2.53,0,0,0,.15.51c-.14,0-.23,0-.3.19h0s0,0,0,.07a1.94,1.94,0,0,0,.63,2.15.38.38,0,0,0,.53-.53c-.18-.2-.5-.4-.6-.62,0-.06-.08-.11-.08-.18v-.36c1,.11.77-.19.61-.54a1.06,1.06,0,0,1-.11-.36.36.36,0,0,0,.5-.34v-.16s.68-.32.54-.56c.13,0,.46-.19.46-.34v-.21c0,.08.28,0,.36-.22,0-.09-.05-.18-.05-.28a.35.35,0,0,0,.29-.45c0-.19-.16-.35-.2-.54,0,0,0-.06-.05-.09a.35.35,0,0,0,0-.2.48.48,0,0,0,.16-.12h0a.38.38,0,0,0,.33-.56s0-.07-.08-.1l.12-.06c.13-.11.13-.29.17-.44a.36.36,0,0,0,.61.17.9.9,0,0,0,.23-.53c.09-.06.07-.15.07-.27v-.18c0-.19-.07-.34-.25-.36s-.08-.16-.15-.24a.38.38,0,0,0,.14-.47c0-.08-.06-.13-.09-.2l.16.21h0l.06.08a.34.34,0,0,0,.59-.15,31.09,31.09,0,0,1,4.67,6.27A.37.37,0,0,0,173.73,120.09Z"/><path class="cls-7" d="M162.3,111.56a5.09,5.09,0,0,0,.68,1.28.38.38,0,0,0,.7-.19,2.84,2.84,0,0,0-.55-1.54c.26.11.51.22.78.31.46.16.65-.56.2-.72s-.88-.35-1.32-.53a.38.38,0,0,0-.72-.15.34.34,0,0,0-.15.18.35.35,0,0,0-.19.52C161.9,111,162.11,111.28,162.3,111.56Z"/><path class="cls-7" d="M152.3,114.11a.37.37,0,0,0,.1.23l.17.18a14.37,14.37,0,0,0,1.43,1.77c.29.29.84-.11.59-.46-.49-.68-.82-1.61-1.58-2-.19-.27-.38-.54-.55-.82a.38.38,0,0,0-.65.38C152,113.62,152.14,113.86,152.3,114.11Z"/><path class="cls-7" d="M155,113.2c.24.42.88,0,.65-.38s-.5-.69-.71-1.06a.37.37,0,0,0-.65.37C154.5,112.51,154.79,112.82,155,113.2Z"/><path class="cls-7" d="M155.57,125.05a5.37,5.37,0,0,0-.87.25.13.13,0,0,0,0-.06c0-.48-.67-.48-.63,0,0,.12,0,.23,0,.34s-.16.13-.16.19v.53l.33,0a1.8,1.8,0,0,0,.08.21c.17.34.59.17.59-.19v-.24a3.56,3.56,0,0,1,.6-.23c.22.17.5.27.73.44a.46.46,0,0,0,.67-.32v-.56l.07,0a5.38,5.38,0,0,1,.65.78c.26.4.91,0,.65-.38s-.62-.66-.87-1.05a.47.47,0,0,0-.21-.18h0a.31.31,0,0,0-.33.08h0l-.09-.09c-.17-.35-.82-.17-.82.19v.47A.42.42,0,0,0,155.57,125.05Z"/><path class="cls-7" d="M158.54,124.53a1.54,1.54,0,0,1,.05-.31.56.56,0,0,1,.27.1c.25.19.53-.08.56-.32a1.05,1.05,0,0,1,.05-.19.36.36,0,0,0,.47-.35v-.35a4.76,4.76,0,0,0,.31-.52h0a.36.36,0,0,0,.29-.62,1,1,0,0,0-.52-.27.39.39,0,0,0-.43.54.72.72,0,0,0-.12.25c0,.13-.07.09-.17.19a.48.48,0,0,0-.11.25.4.4,0,0,0-.35.37,1.6,1.6,0,0,1,0,.21l-.09,0v0c0-.48-.72-.48-.75,0v0c-.24-.1-.56,0-.53.32a1.45,1.45,0,0,0,.47,1A.38.38,0,0,0,158.54,124.53Z"/><path class="cls-7" d="M160.82,120.82H161c.24,0,.36-.1.36-.29.26-.26.52-.48.79-.74a.32.32,0,0,0,0-.42.28.28,0,0,0,.13-.09h0a1.89,1.89,0,0,0,0-.23c.18-.35.28-.23.35-1.23h-.32c-.21,0-.36,0-.37.18a2.09,2.09,0,0,1-.31,1s0,0,0,0h0a.2.2,0,0,0,0,.1.48.48,0,0,0,0,.18.42.42,0,0,0-.12.08l-.89.89s0,0-.06,0A.33.33,0,0,0,160.82,120.82Z"/><path class="cls-7" d="M163.85,115.49v-.18a.38.38,0,0,0-.75,0v.18a.3.3,0,0,0,.07.2.36.36,0,0,0-.24.33,1,1,0,0,1-.25.62.37.37,0,0,0-.08.21.35.35,0,0,0,.22.41.31.31,0,0,0,.28,0,.49.49,0,0,0,.4-.53h0a2.18,2.18,0,0,0,.18-.7.42.42,0,0,0-.05-.2A.35.35,0,0,0,163.85,115.49Z"/><path class="cls-7" d="M164,113.34a1.16,1.16,0,0,0-1,.92l0,.07s0,0,0,.07v0s0,0,0,0v.05a.3.3,0,0,0,.34.27.36.36,0,0,0,.34-.15h0a.37.37,0,0,0,.34-.52h0C164.48,114,164.49,113.29,164,113.34Z"/><path class="cls-7" d="M172.62,120.8a.57.57,0,0,0-.48.19c-.06-.12-.12-.25-.19-.37-.18-.37-.69-.14-.69.2h-.32v.34a1.24,1.24,0,0,0-1,0l-.26-.21a.44.44,0,0,0-.73.26v.23l-.05-.06a.36.36,0,1,0-.6.38,2.85,2.85,0,0,0,1.05,1,.41.41,0,0,0,.6-.33v-.35a.32.32,0,0,0,.44-.19,6.11,6.11,0,0,1,.94.27s.06,0,.09,0a.29.29,0,0,0,.49-.18.38.38,0,0,0,.62-.17.54.54,0,0,1,.09-.12l.11.21c.23.43.88.05.65-.38S173,120.86,172.62,120.8Zm-2.22,1h0s0,0,0,0S170.42,121.82,170.4,121.82Z"/><path class="cls-7" d="M164.88,124.5a4.18,4.18,0,0,1,1.29,1.64c.25.39.88,0,.65-.37a.29.29,0,0,0,0-.37,13.13,13.13,0,0,1-1.06-2c-.21-.42-.82-.07-.66.35A.38.38,0,0,0,164.88,124.5Z"/><path class="cls-7" d="M159,130.83a.49.49,0,0,0,.13-.38.4.4,0,0,0,.67-.25,1.18,1.18,0,0,1,.06-.27,1.83,1.83,0,0,0,.69-.12c.11-.05.41-.2.41-.32V129c0,.24.27.25.41,0,.19,0,.26-.15.29-.37.2,0,.3-.15.3-.36v-.72a.42.42,0,0,0,.13,0h0c0,.09.09.17.12.26h0a.37.37,0,0,0,.72-.2,8.64,8.64,0,0,1-.52-1.85.38.38,0,0,0-.7-.19.39.39,0,0,0-.35.56,3,3,0,0,1,.15.51h0c-.24-.05-.58.11-.58.36v.15a.29.29,0,0,0-.27.19h0a.32.32,0,0,0,0,.09,3.54,3.54,0,0,0-.19,1.17.38.38,0,0,0-.71.14.31.31,0,0,0-.31.19,3.75,3.75,0,0,0-.36,1.07.38.38,0,0,0-.43-.35.41.41,0,0,0-.49-.17h0a.37.37,0,0,0-.69.27,1,1,0,0,1-.08.87c-.3.37.23.91.53.53a1.29,1.29,0,0,0,.25-.44.42.42,0,0,0,.15,0C158.47,130.9,158.73,131.08,159,130.83Z"/><path class="cls-7" d="M164.57,132.49l.31.16a.38.38,0,0,0,.55-.42c0-.19-.13-.35-.17-.54l0,0a.34.34,0,0,0,.07-.32.8.8,0,0,0-.13-.19l0,0c.22.21.43.42.66.61s.91-.24.53-.53c-.7-.56-1.2-1.3-2.11-1.52a.38.38,0,0,0-.43.53.4.4,0,0,0,.33.56l.08,0,0,.05a1.37,1.37,0,0,0-.39.35.37.37,0,0,0-.09.31.36.36,0,0,0-.09.57,1.36,1.36,0,0,0-.42-.11l-.09,0a2.48,2.48,0,0,0-.19-.26c-.24-.27-.62,0-.65.26a.86.86,0,0,1,0,.17.36.36,0,0,0-.31.26.26.26,0,0,1-.08.19.35.35,0,0,0-.09.31.39.39,0,0,0-.09.58c.22.26.3.61.52.88a.37.37,0,0,0,.63-.26v-.71a.33.33,0,0,0-.28-.35.39.39,0,0,0,.28-.26s0,0,0-.05a2,2,0,0,1,.2.22.5.5,0,0,0,.69-.06,10.52,10.52,0,0,1,1,1.3.33.33,0,0,0,.5,0c.34.3.68.61,1,.89s.91-.22.53-.53C166.12,133.88,165.36,133.17,164.57,132.49Zm0-.9,0,0v0l-.06,0Z"/><path class="cls-7" d="M161.44,133.83a.32.32,0,0,0-.56.09.4.4,0,0,0-.15.09,2.61,2.61,0,0,0-.27.31.39.39,0,0,0-.52-.19,2.25,2.25,0,0,0-.72-.23.28.28,0,0,0-.32.2.41.41,0,0,0,0,.68,3.61,3.61,0,0,1,1.07,1.9.37.37,0,0,0,.72-.2c-.08-.29,0-.58-.09-.86.08-.07.38-.16.38-.28v-.21c0,.09.23.05.29-.22,0-.08,0-.13,0-.2s0,.13.07.19c.3.37.8-.16.5-.53C161.69,134.2,161.57,134,161.44,133.83Z"/><path class="cls-7" d="M155.88,132l.3-.52.12.08a.38.38,0,0,0,.63-.37c0-.13-.15-.24-.18-.35a.35.35,0,0,0-.52-.22h0a.41.41,0,0,0-.4,0c-.12-.12-.31-.12-.44.09a6.73,6.73,0,0,0-.4,1c-.06-.28-.11-.57-.18-.85v-.05h0a.46.46,0,0,0-.52-.31c0-.28,0-.55,0-.77a.36.36,0,0,0-.6-.25.36.36,0,0,0-.4-.17c.06,0,0-.11-.11-.19a.38.38,0,0,0,.12-.6,18.67,18.67,0,0,1-1.36-2.05c-.28-.39-.94,0-.65.37l.14.22a.36.36,0,0,0,0,.23,10.4,10.4,0,0,0,.78,1.74,3,3,0,0,0,.59.79,3.43,3.43,0,0,0,.22,2.25.37.37,0,0,0,.68.07.45.45,0,0,1,0,.11.38.38,0,0,0,.68,0,3.12,3.12,0,0,0,.25.53c.11.19.43.31.58.12a7,7,0,0,0,.59-.84.46.46,0,0,1,.12.27c0,.2-.06.37.14.37.61,0,.68.4,1,.88a.35.35,0,1,0,.59-.38A2.16,2.16,0,0,0,155.88,132Z"/><path class="cls-8" d="M164.82,138.45l-.63-.27a.56.56,0,0,0-.57-.08,1.68,1.68,0,0,0-1.21-.6.43.43,0,0,0-.2,0,.5.5,0,0,0-.34,0h-.05a.48.48,0,0,0-.72-.51,10,10,0,0,1-.92.63c-.11,0-.24.16-.36.16h0c-.34,0-.69-.1-.87.16a1.94,1.94,0,0,0-.73,0,.45.45,0,0,0,.14.88h0c.12,0,.29.2.47.18s.46-.11.7-.17h0l-.24.34a.44.44,0,0,0,.13.62c.08.31.37.61.62.53.82-.26,1.4-1.1,2-1.38l.1,0,.05,0c.16.1.33.23.5.36a.39.39,0,0,0,.44,0h0a.43.43,0,0,0,.46-.13l.25.12a.39.39,0,0,0,.32,0,1.21,1.21,0,0,0,1.12-.06C165.9,139,165.4,138.17,164.82,138.45Z"/><path class="cls-8" d="M151.2,131.39a.87.87,0,0,0-.31-.84c-.33-.32-1,0-.83.49,0,.07,0,.13.05.2s-.17-.05-.17-.11h0s0-.07,0-.12a.46.46,0,0,0-.74-.12,4.28,4.28,0,0,0-.32-.59.46.46,0,0,0-.26-.2,1.43,1.43,0,0,0-.92-.74.5.5,0,0,0-.63.48,1.57,1.57,0,0,0,0,.23h0L147,130a.5.5,0,0,0-.85.36c0,.05,0,.1,0,.16a.44.44,0,0,0-.19.37v0a1.67,1.67,0,0,0,.32,1.91.42.42,0,0,0,.34.15.5.5,0,0,0,.56.11l.26.17a.5.5,0,0,0,.72-.31.44.44,0,0,0,.32-.22v0l.1.12a.53.53,0,0,0,.76-.07.49.49,0,0,0,.61-.33c0-.09,0-.16.06-.24a1.13,1.13,0,0,0,.41-.06l0,.06c.34.55,1.2.05.87-.5A1.89,1.89,0,0,1,151.2,131.39Z"/><path class="cls-8" d="M146.18,116.84a.16.16,0,0,0-.09,0h0c.16,0,.36-.3.55-.43a7.37,7.37,0,0,1,.68-.37,2.37,2.37,0,0,0,.74.15.44.44,0,0,0,.45-.35h.35c-.05.09-.12.17-.17.26-.31.52.37,1,.79.63.22-.19.48-.33.7-.52a.41.41,0,0,0,.1-.56.58.58,0,0,0-.45-.81h-2.05a3,3,0,0,0-1-.19.5.5,0,0,0-.4.77c-1.08.65-2.18,1.67-.74,2.3C146.27,118,146.78,117.1,146.18,116.84Z"/><path class="cls-8" d="M131.58,135.36a2,2,0,0,0-.64-.52v0c0-.28,0-1-.25-1h-.18c-.09,0-.19.09-.27.21h0a.51.51,0,0,0-.92.39s0,.07,0,.11h0l0,.06,0,.08a.61.61,0,0,0-.09.18.53.53,0,0,0,.67.6l.12.06a.59.59,0,0,0,.23.13,1.38,1.38,0,0,1,.63.61,2.82,2.82,0,0,0,.7.76c.52.39,1-.48.51-.86A3.36,3.36,0,0,1,131.58,135.36Zm-1.07-.54h0Z"/><path class="cls-8" d="M133.25,136.3a10.89,10.89,0,0,0,.37-1.14c.38.09.68-.43.51-.78l-.06-.16v0a.89.89,0,0,0,.12-.45c.06-.64-.94-.63-1,0,0-.11,0,0,0,0s0,0,0,.06H133a.49.49,0,0,0-.25.91,9.61,9.61,0,0,1-.35,1C132.12,136.3,133,136.88,133.25,136.3Z"/><path class="cls-8" d="M136.77,141.76c0,.08-.07.15-.1.23h0l-.35.17a.51.51,0,0,0-.12.76.49.49,0,0,0-.16.25s0,.1,0,.15l0,0v.21a3.12,3.12,0,0,0,0,.52l-.46.05c.13-.55-.76-.77-1-.2a2,2,0,0,0-.09.33,4.39,4.39,0,0,1-1,0c-.6-.06-.56.8-.07,1a2.29,2.29,0,0,0,1.34.17.55.55,0,0,0,.52-.22s0,0,0,0a5.86,5.86,0,0,1,1-.07l0,0c.29.33.65,0,.65-.36v-.18c0-.05,0-.09,0-.13l.09,0a.79.79,0,0,1-.21-.49.58.58,0,0,0,.11-.15q.15-.3.27-.6a6.33,6.33,0,0,0,.54-1.11C137.94,141.42,137,141.16,136.77,141.76Z"/><path class="cls-8" d="M144.59,149.77a.54.54,0,0,0,.16-.7.54.54,0,0,0-.11-.63v0c.09-.63-.87-.9-1-.27a1.56,1.56,0,0,0,0,.42l-.28.17a.5.5,0,0,0,.09.9,1.72,1.72,0,0,0,0,1,1.8,1.8,0,0,0-.22.06c0-.57-.79-.55-1-.1a1.67,1.67,0,0,0,0,.18.3.3,0,0,1-.23.17.53.53,0,0,0-.83-.21.78.78,0,0,0-.33.71.51.51,0,0,0,.37.48,2.25,2.25,0,0,0,1.13-.07.5.5,0,0,0,.78.12,1,1,0,0,1,.93-.41.5.5,0,0,0,.56-.73C144.42,150.51,144.16,150,144.59,149.77Zm-2.78,1.74c0,.09-.14.13,0,0Z"/><path class="cls-8" d="M171.81,151a1.18,1.18,0,0,0-.26,0,.55.55,0,0,0-.32-.4,4.42,4.42,0,0,1-1.27-.87,3.27,3.27,0,0,1-.35-.48,3,3,0,0,1-.14-.3c.1-.09.17-.18.18-.18h0c.44-1-.26-1.27-.71-.8l-.07.08a.56.56,0,0,0-.44.28c-.22.34,0,.83.15,1.14a4.11,4.11,0,0,0,1.88,1.85h0c.25.58.71.68,1.32.68S172.45,151,171.81,151Z"/><path class="cls-8" d="M179.31,144.46a.44.44,0,0,0-.28-.21c-.18-.05-.35-.13-.53-.18a.6.6,0,0,0-.27,0,6,6,0,0,0-.94-.09,1.42,1.42,0,0,0-.27-.64,5.64,5.64,0,0,0-.47-.5v0a7,7,0,0,0-.54-1c-.24-.48-1.06-.2-1.06.25h0a1,1,0,0,0,.1.7,3.39,3.39,0,0,0,.35.32,1.19,1.19,0,0,0,.15.18c.29.35.85.61.73,1.14a.51.51,0,0,0,.62.62,2.61,2.61,0,0,1,1.18,0,1.13,1.13,0,0,0,1.71.2C180.21,144.93,179.76,144.38,179.31,144.46Z"/><path class="cls-8" d="M183.52,135a.49.49,0,0,0-.37-.18.8.8,0,0,0-.64.26.53.53,0,0,0-.68-.19c-.72.34-1.59-.34-2.15-.71s-1,.51-.5.86a4,4,0,0,0,2.42.91c.21.59,1,.6,1.57.15a3,3,0,0,0,.47-.12A.5.5,0,0,0,183.52,135Z"/><path class="cls-8" d="M141.86,142.6c.23.24.47.48.71.71a.43.43,0,0,0,.28.15,3.37,3.37,0,0,0,.35.29.5.5,0,0,0,.73-.57,2,2,0,0,0-.41-.64c0-.1.06-.19.08-.29.06-.47-.47-.59-.79-.36-.05-.09-.11-.16-.17-.25-.34-.51-1.15-.06-.89.45A.49.49,0,0,0,141.86,142.6Z"/><path class="cls-8" d="M168.69,145.21a.55.55,0,0,0-.41-.25.52.52,0,0,0-.73-.05l-.14.13a2.24,2.24,0,0,0-.46.15c-.42.18-.27.81.12.91l.11,0a.63.63,0,0,0,.24.16,1.14,1.14,0,0,0,1.37-.31A.49.49,0,0,0,168.69,145.21Z"/><path class="cls-8" d="M145.37,112.65v-.53a.5.5,0,0,0-1,0v.53A.5.5,0,0,0,145.37,112.65Z"/><path class="cls-8" d="M175.25,137.36a.47.47,0,0,0-.41-.72h0a.5.5,0,0,0-.68.18.44.44,0,0,0,0,.15.38.38,0,0,0-.11.4,6.91,6.91,0,0,1-1,.74l-.08.08a2.83,2.83,0,0,1-.3-.44.49.49,0,0,0-.56-.22,1,1,0,0,0-.23.07s-.27.14-.13.1a.5.5,0,0,0,.27,1l.05,0a10.19,10.19,0,0,0,1.24,1.31.51.51,0,0,0,.85-.36,2.24,2.24,0,0,0-.18-.91A3.87,3.87,0,0,0,175.25,137.36Z"/><path class="cls-8" d="M138.36,130.07a1.39,1.39,0,0,1-.06.13.63.63,0,0,0-.31-.14,5.67,5.67,0,0,0-.06-.73V129h-.09a.61.61,0,0,0,0-.13.46.46,0,0,0-.58-.33c-.11-.53-1-.5-1,.1a1.13,1.13,0,0,0,.74,1.08c0,.18,0,.37,0,.55a.48.48,0,0,0-.18.07.51.51,0,0,0-.21.3h0c0,.08-.05.16-.08.25a.52.52,0,0,0,.21,1h.17a.51.51,0,0,0,.44-.29,2.3,2.3,0,0,0,.34-.28.51.51,0,0,0,.82.19,2.59,2.59,0,0,0,.83-1.11C139.46,129.7,138.5,129.44,138.36,130.07Z"/><path class="cls-9" d="M141.9,114.74s0,0,0,0a.13.13,0,0,1,0,.06h0a.46.46,0,0,0,.47.27,10.3,10.3,0,0,0,0,1.11.52.52,0,0,0,0,.18,1,1,0,0,0-.07.35.52.52,0,0,0,.52.5c.22,0,.43,0,.64,0a.72.72,0,0,0,.8-.24c.08,0,.16-.08.24-.14a.51.51,0,0,0,.19-.56c.19-.31.1-.75-.34-.73a5.12,5.12,0,0,0-.62.07,4.32,4.32,0,0,1,.35-.46.49.49,0,0,0-.39-.83v0a.39.39,0,0,0-.13-.34l.06-.29c.15-.2.3-.41.46-.61a.53.53,0,0,0,0-.63c.07-.12.15-.23.23-.36.32-.47-.4-1-.78-.61l-.08.1h0a1.71,1.71,0,0,1-.11.14.43.43,0,0,0-.42,0,5.62,5.62,0,0,0-1,1l0,.07s-.06,0-.06.1a.5.5,0,0,0,0,.38v.3A2.57,2.57,0,0,0,141.9,114.74Z"/><path class="cls-9" d="M150.26,127.29a.76.76,0,0,0-.49-.3,3.49,3.49,0,0,0-1.22-.74c-.27-.11-.54.13-.62.4-.12,0-.25,0-.38,0a5.87,5.87,0,0,0-1.48-.62.48.48,0,0,0-.36,0l-.14-.3a1.47,1.47,0,0,0-.52-1,4.86,4.86,0,0,0,.65-1.21.46.46,0,0,0,.31-.21,3.21,3.21,0,0,0,.19-.31.45.45,0,0,0,.52-.22l.35-.64a.45.45,0,0,0,.36-.25c.18-.33.35-.67.5-1a.47.47,0,0,0,.38-.23l.08-.12a.52.52,0,0,0,.52-.48,1.48,1.48,0,0,0,0-.21h0l.14.07,0-.13h.17c0-.32,0-.56,0-.77a.38.38,0,0,0,0-.1c0-.08,0-.13,0-.13h0c0-.2,0-.38-.08-.57a.55.55,0,0,0,.1-.41c-.26-1.43-1.18-2-2.26-1.44a.49.49,0,0,0-.39.23l0,0a.51.51,0,0,0-.11.79l.89.71.09,0c-.06.13-.13.25-.18.38a3.6,3.6,0,0,0-1.06,1.25,4,4,0,0,0-.81,1,3.07,3.07,0,0,0-1.06,1.19l-.22-.07a.51.51,0,0,0-.61.35,5.79,5.79,0,0,0-.22.62,3.49,3.49,0,0,0-.31,1.28.58.58,0,0,0-.19.36,3.39,3.39,0,0,0,0,.55,2.4,2.4,0,0,0,.27,1.22,2.83,2.83,0,0,0,2.17,2.1.5.5,0,0,0,.35.16,7.18,7.18,0,0,0,1.61,0,2,2,0,0,0,1.37.52c.18.27.57.54.78.79s-.4.18.6.16v0c0,.66.71.63.78,0,0-.07-.22-.13-.21-.2h0v-.07a.43.43,0,0,1,0-.05.43.43,0,0,0,.17-.39.43.43,0,0,1,0-.11A2.23,2.23,0,0,0,150.26,127.29Z"/><path class="cls-9" d="M145,131.83a.5.5,0,0,0-.64-.33l-.06-.06a.57.57,0,0,0-.4-.12h0a.4.4,0,0,0-.16-.2l-.09-.3a.43.43,0,0,0,.09-.26,3,3,0,0,0-2-3.14s-.05,0-.08,0l-.2-.19a3.75,3.75,0,0,0,.17-1.81c0-.25,0-.51,0-.76a.5.5,0,0,0,.1-.43,5.74,5.74,0,0,0-.31-.86.14.14,0,0,1,0-.06l-.09-.18a2.42,2.42,0,0,0-.6-.89.29.29,0,0,0-.28-.13.49.49,0,0,0-.47.2.44.44,0,0,0-.47.39h0a5.79,5.79,0,0,1,.25-.93c.25-.59-.61-1.1-.87-.51,0,0,0,.1-.05.15l-.09,0c0-.06,0-.13,0-.2a.5.5,0,0,0-.75-.43,1.61,1.61,0,0,0-.79,1.49c0,.28-.32.49.62.5h.05v0c0,.25.28.15.48,0a2,2,0,0,0,.25.41.51.51,0,0,0,.57.09.37.37,0,0,0,.14.2,2.71,2.71,0,0,1,.79.83.63.63,0,0,0-.23.48v.78a.43.43,0,0,0-.18.35,3.69,3.69,0,0,0,.17,1.21c0,.15,0,.3,0,.45v.32H140a.49.49,0,0,0,.37.2,4.08,4.08,0,0,0,1.68,1.37.3.3,0,0,0,0,.1,3.9,3.9,0,0,0,.85,2.45l.06.16a.54.54,0,0,0,.19.23,1.62,1.62,0,0,0,.65.77l.16.09.1,0,.11,0,.2.07a.45.45,0,0,0,.23,0l.13-.05a.76.76,0,0,0,.17-.13.43.43,0,0,0,.36-.23l.19-.35A.52.52,0,0,0,145,131.83Z"/><path class="cls-10" d="M156.2,141.77a9,9,0,0,0,2.14-1.29c.39-.34,0-.84-.4-.82v-.07c0-.22,0-.42-.19-.48l-.53-.17a.48.48,0,0,0-.34-.36c-.3-.09-.6-.15-.9-.22a.51.51,0,0,0-.48-.54H155a.63.63,0,0,0-.23-.13c-1.24-.3-3-.78-3.91.36a2.25,2.25,0,0,0-.32.59.87.87,0,0,0-.09.11,1.64,1.64,0,0,0-.25,2.33l.18.18a2.76,2.76,0,0,0,3.16,1.43,2.7,2.7,0,0,0,.79-.35l.52-.1a1.65,1.65,0,0,0,.79-.2h.07A1.08,1.08,0,0,0,156.2,141.77Z"/><path class="cls-10" d="M149.94,139.09a1.36,1.36,0,0,0-1.22-1.22.62.62,0,0,0-.49.15,2.89,2.89,0,0,0-.66,0,1.34,1.34,0,0,0-.12-.24.51.51,0,0,0-.46-.68h-.27a1,1,0,0,0-.17-.1.87.87,0,0,0-.6-.21,2.15,2.15,0,0,0-1,0,2.84,2.84,0,0,0-.75-.05.52.52,0,0,0-.48.36,3.83,3.83,0,0,1-.8-1.44.76.76,0,0,0,0-.15,4.1,4.1,0,0,0-.26-.68,7.28,7.28,0,0,0-.32-.86.46.46,0,0,0-.51-.23,2,2,0,0,0-.32-.17,4.56,4.56,0,0,0-.42-.31.51.51,0,0,0-.7.24,1.68,1.68,0,0,0-.65.13c-.4-.18-.75.21-.75.64h0c0,.05-.35.23-.33.49a2.72,2.72,0,0,0,.62,1.38,8,8,0,0,0,.72.85c.5.53,1.62,1.54,2.43,1.08a1.48,1.48,0,0,0,.45-.4l.26.28a.55.55,0,0,0,.15.08,1.64,1.64,0,0,0,.52,1.76,2.6,2.6,0,0,0,2.15.67,1.66,1.66,0,0,0,1.52.53,2.76,2.76,0,0,0,1.33-.74,1.39,1.39,0,0,0,1.11-.78A.55.55,0,0,0,149.94,139.09Z"/><path class="cls-10" d="M165,141.32a.5.5,0,0,0-.41-.61,3.16,3.16,0,0,0-.12-.72.54.54,0,0,0-.8-.27,1.44,1.44,0,0,0-.61-.43.43.43,0,0,0-.19,0,1.24,1.24,0,0,0-.52-.34c-.73-.25-1.21.23-1.42.91a.48.48,0,0,0-.66.06,5.17,5.17,0,0,0-.63.92h-.08v.06a.41.41,0,0,0-.18.13.16.16,0,0,0,0,.07h0a.38.38,0,0,0-.23.41,1.71,1.71,0,0,0-.13.23h-.18a.49.49,0,0,0-.81-.18l-.11.16a.86.86,0,0,0-.13.14.72.72,0,0,0-.42.49,20.36,20.36,0,0,0,0,3.22.49.49,0,0,0,.91.27.53.53,0,0,0,.83.15,4.8,4.8,0,0,0,.32-.43.67.67,0,0,0,.21-.1,4,4,0,0,0,.55-.53,3.49,3.49,0,0,0,1.32-1.37l.33-.29a1.14,1.14,0,0,0,.42-.11,1.51,1.51,0,0,0,.61-.49.91.91,0,0,0,.67.28,1,1,0,0,0,.89-.64C164.71,142.21,164.94,141.78,165,141.32Zm-4.65,1.38a.35.35,0,0,1,0-.11l.29-.1,0,0a1.86,1.86,0,0,1-.33.19S160.37,142.71,160.37,142.7Zm-1.79,1.92h0v0Z"/><path class="cls-10" d="M169.94,139.27v0c0-.48-.59-.72-.81-.26,0,.09-.08.18-.11.27h-.08v.11a1.17,1.17,0,0,0-.44.2,3.82,3.82,0,0,0-1.95,2.32,3,3,0,0,0-.48.08.14.14,0,0,0-.12.08l-.29-.05a.41.41,0,0,0-.37,0l-.22,0a.5.5,0,0,0-.48.63,1.4,1.4,0,0,0,2.32.89h.29a.41.41,0,0,0,.19-.05,1.51,1.51,0,0,0,1.73.13,1.6,1.6,0,0,0,1.77-1.3A3.75,3.75,0,0,0,169.94,139.27Z"/><path class="cls-11" d="M139.45,132.07a2.35,2.35,0,0,1-.25-.53c0-.07,0-.15,0-.23-.16-.53-1-.45-1,.13v0a2.29,2.29,0,0,0-.52,0,.49.49,0,0,0-.37.48,1.65,1.65,0,0,0,1.07,1.46,2.08,2.08,0,0,0,.85.28.48.48,0,0,0,.48-.37,1.67,1.67,0,0,0-.18-1.11A.43.43,0,0,0,139.45,132.07Z"/><path class="cls-11" d="M148.36,136.23a.55.55,0,0,0-.36-.38,1.41,1.41,0,0,0-.83-.3.5.5,0,0,0-.5.5,2.38,2.38,0,0,0,.21.9,2.35,2.35,0,0,0,.65,1.22.5.5,0,0,0,.78-.1,2.14,2.14,0,0,0,.09-1.66A1.16,1.16,0,0,0,148.36,136.23Z"/><path class="cls-11" d="M172.48,139a.74.74,0,0,0-1-.31,1,1,0,0,0-.3.28.62.62,0,0,0-.2.42s0,.09,0,.14a3.33,3.33,0,0,0-.14,1.29.5.5,0,0,0,.75.43A1.68,1.68,0,0,0,172.48,139Z"/><path class="cls-12" d="M151.41,147.45c0-.15,0-.31,0-.46a5.22,5.22,0,0,0,.13-1.07v0c0-.09,0-.18,0-.27a.44.44,0,0,0-.69-.41c0-.06.06-.12.06-.19v-.18l-.19,0s-.07,0-.07,0a.5.5,0,0,0-.72-.16l-.06,0a1.67,1.67,0,0,0-.11-.41.56.56,0,0,0-.53-.33,1.72,1.72,0,0,0-.06-.34,1,1,0,0,0,0-.38.45.45,0,0,0,.05-.36c-.1-.33-.34-.58-.34-.76h0v-.13c-.09-.57-1-.41-1,.13v.18a.46.46,0,0,0,0,.71l.05.11a.67.67,0,0,0,0,.2s0,0,0,0,0,0,0,0a7.2,7.2,0,0,1-.16.78l-.29-.07a.46.46,0,0,0-.37.05l-.41-.33a13,13,0,0,0-2.64-1.09.5.5,0,0,0-.51.87c.66.45,1.32,1,2,1.39a3.38,3.38,0,0,0-.73.11,1.25,1.25,0,0,0-.66.31s0,0,0,0l-.18.12a.56.56,0,0,0,.1.83l.35.13c.6.46,1.71,0,2.68-.33.42,0,.84.09,1.24.11a3.47,3.47,0,0,0,1,.65,1.56,1.56,0,0,0,.16.2c0,.1,0,.21-.05.31s0,0,0,.05c-.44,1-1.45.14-2.22.61a.7.7,0,0,0-.06,1.19,3.37,3.37,0,0,0,3.23-.47h.14v-.09a.76.76,0,0,0,1.19-.71C151.63,147.93,151.52,147.71,151.41,147.45Z"/><path class="cls-12" d="M160.21,149.44l-.19.11c-2-.07-4.45,1.06-6.22-.11-.53-.36-1,.51-.5.86a5.67,5.67,0,0,0,4.06.5.4.4,0,0,0,.31.26,4.36,4.36,0,0,0,3.05-.76C161.25,150,160.75,149.08,160.21,149.44Z"/><path class="cls-12" d="M166.14,147.42a1.81,1.81,0,0,0-.42,0l-.12,0h-.25a.45.45,0,0,0-.59-.34h0l-.09-.13a7.12,7.12,0,0,1,1.41-.83l.07,0h0l.09,0c.5-.26.23-1.11-.3-.91l-.18.06h0l-.16.08a15,15,0,0,1-1.62.63v-.07h-.21l-.08,0h-1.06a.5.5,0,0,0-.26.92,9.78,9.78,0,0,0,.16,2,.49.49,0,0,0,.9.12.94.94,0,0,0,.06-.15l.09-.07a1.21,1.21,0,0,0,.75-.2,1.46,1.46,0,0,0,.24-.17,1.56,1.56,0,0,0,.62.13.41.41,0,0,0,.23.05h.06a.46.46,0,0,0,.7,0C166.78,148.46,166.77,147.47,166.14,147.42Z"/><path class="cls-13" d="M161.27,144.66a2.24,2.24,0,0,0-.13.27.46.46,0,0,0-.21-.13,1.59,1.59,0,0,0-.21-.15.52.52,0,0,0-.74.3,3.32,3.32,0,0,0-.11.73,1,1,0,0,0-.05.16,1.12,1.12,0,0,0-.67.35,8.24,8.24,0,0,1-1.21,0h-.13a.47.47,0,0,0-.35.14,4.46,4.46,0,0,0-.66-.52,2.07,2.07,0,0,0-.6-1.25l0,0-.13-.07a.19.19,0,0,0-.1,0l-.06,0a13.31,13.31,0,0,0-2.09.19.35.35,0,0,0-.29.35,2.67,2.67,0,0,0-.46-.57.43.43,0,0,0-.32-.12.5.5,0,0,0-.82.55l.06.09c.12.2.24.41.37.61-.18.77-.47,2.78.35,3,0,.05,0,.11,0,.17h-.12c-.64,0-.65,1.17,0,1.17H153c.2,0,.35-.19.43-.4l.48-.08a.46.46,0,0,0,.46.13l0,0,0,0a6.65,6.65,0,0,0,.76.23,4,4,0,0,0,.93.18,5.94,5.94,0,0,0,3-.4h0a.53.53,0,0,0,.41.21,9.27,9.27,0,0,0,1.95-.19.52.52,0,0,0,.5-.51c0-.72-.23-1.75-.19-2.64A.45.45,0,0,0,162,146a1.43,1.43,0,0,1,.16-.93C162.4,144.49,161.56,144.2,161.27,144.66Z"/><path class="cls-14" d="M135.94,140.77v-1.53a1.7,1.7,0,0,0-.28.06,2.59,2.59,0,0,0-.11-.37.56.56,0,0,0-.16-.21c.27-.51-.53-1-.88-.44a.67.67,0,0,0-.06.15.56.56,0,0,0-.54.09,1.54,1.54,0,0,0-.13-.42.49.49,0,0,0-.8-.07,2.23,2.23,0,0,0-.3-.2.36.36,0,0,0-.36-.14.49.49,0,0,0-.52.62c0,.09.06.17.08.26h-.13c-.6,0-.62.78-.13,1a2.31,2.31,0,0,0,.94.17l.23.22a.89.89,0,0,0-.28.07.5.5,0,0,0,0,1,2.78,2.78,0,0,1,.9.38.55.55,0,0,0,0,.31c.31,1,1.06,1.3,2,1.51.32.08.53,0,.53-.38v-.69a.58.58,0,0,0,0-.19,3.73,3.73,0,0,1,.05-1.11Zm-1,1.23v.05l-.07,0Z"/><path class="cls-14" d="M131.63,134.58c.21.61,1.17.35,1-.26-.31-.9.25-1.63,0-2.5h.16c0-.12,0-.22,0-.34s0,0,0,0a1,1,0,0,1,0-.25c.26-.37.56-.72.77-1.09s-.26-.81-.68-.5l-.08.08a2.6,2.6,0,0,1,.1-.4c.13-.33-.27-1-.61-.83l-.4.17a.49.49,0,0,0-.85.34c0,.18,0,.35,0,.52a.49.49,0,0,0-.14.18l0-.07c-.19-.45-1-.23-.93.25a2.84,2.84,0,0,0,.1.44h0l.06.14a2.32,2.32,0,0,0,.16.36.44.44,0,0,0-.11.29c0,.06,0,.12,0,.18l-.44-.17c-.62-.18-.88.82-.27,1a2.86,2.86,0,0,1,1,.47,2.83,2.83,0,0,0,.16.36.48.48,0,0,0,.29.21s0,0,0,0a.59.59,0,0,0,.5.35A2.86,2.86,0,0,0,131.63,134.58Z"/><path class="cls-14" d="M143,149.27a1.36,1.36,0,0,0,.3-1.3c-.09-.53-1-.44-1,.05a6.77,6.77,0,0,0-.36-.88v-.23a.44.44,0,0,0,.17-.66c-.17-.24-.37-.46-.53-.71a.51.51,0,0,0-.92.12.13.13,0,0,1,0,.06.71.71,0,0,0-.54.08c0-.12,0-.24,0-.36,0-.46-.6-.59-.93-.38l0,0-.06,0h0a3.55,3.55,0,0,0-1.06-.24.45.45,0,0,0-.11,0h0c-.47-.18-.81.51-.45.84.19.17.4.33.6.49l0,0,.4.33a3.49,3.49,0,0,0-.86-.05l-.09,0v0h0a.48.48,0,0,0-.14,1c.57.2,1.08.4,1.61.57a.94.94,0,0,0-.23.48v0a2.13,2.13,0,0,0-.43.46.5.5,0,0,0,.3.73,2.4,2.4,0,0,0,1.16.13l.46-.11a.44.44,0,0,0,.32.34,11.16,11.16,0,0,0,2.44.37.5.5,0,0,0,.35-.85Z"/><path class="cls-14" d="M168.14,151a.44.44,0,0,0-.41-.25,4.87,4.87,0,0,0-.65.05.5.5,0,0,0-.41-.76,3.23,3.23,0,0,0-2.29.67c-.06.05-.1.12-.16.18a6.22,6.22,0,0,0-.82.46.47.47,0,0,0-.17.2,1.06,1.06,0,0,0-.16.19,1.56,1.56,0,0,1-.68.61,5.39,5.39,0,0,0-2.77-.17c-.46.11-.5.89,0,1a6.45,6.45,0,0,0,2.64.32l.17,0a.45.45,0,0,0,.37.41.53.53,0,0,0,.75.33l.18-.09a1.31,1.31,0,0,0,.33.26,1.59,1.59,0,0,0,1.74-.24,4.22,4.22,0,0,0,1.56-.23c.5-.18.44-1-.15-1a4.07,4.07,0,0,0-.49.05l.29-.31a6.36,6.36,0,0,0,1.25-.84A.49.49,0,0,0,168.14,151Z"/><path class="cls-14" d="M176.34,146.62a1.84,1.84,0,0,0,.17-.71l.16-.22a.5.5,0,0,0-.62-.71.57.57,0,0,0-.42,0,3.7,3.7,0,0,0-.92.66,1.9,1.9,0,0,0-.31.23h0v0l.06-.09a.5.5,0,0,0-.6-.78,2.09,2.09,0,0,0-.91.86,2.45,2.45,0,0,0-.72.65,2.35,2.35,0,0,0-1.27,2.25,8.23,8.23,0,0,1-.57.75c-.32.34,0,1,.49.83a5.74,5.74,0,0,0,1.35-.69.51.51,0,0,0,.46.36,3.59,3.59,0,0,0,2.59-1.16,16.72,16.72,0,0,0,1.67-1.47A.5.5,0,0,0,176.34,146.62Z"/><path class="cls-14" d="M181.56,138.88c-.23.25-.44.52-.65.78a1.42,1.42,0,0,1,.07-.22l0,0a3.68,3.68,0,0,0,1-1.81.5.5,0,0,0-.75-.55.52.52,0,0,0-.93.1,5.32,5.32,0,0,0-.23,1.27l-.07,0a1.35,1.35,0,0,0-.34.27v0a.62.62,0,0,0,0-.33,3.8,3.8,0,0,1,.18-.47c.17-.34-.12-.91-.57-.74a2.14,2.14,0,0,0-.83.66h-.1c-.22,0-.41.35-.48.56a10.17,10.17,0,0,0-.34,2.77c0,.38,0,.74,0,1a.66.66,0,0,0,.45.61.92.92,0,0,0,.63.36.5.5,0,0,0,.73.4,5.23,5.23,0,0,0,2.42-3.17,6.2,6.2,0,0,1,.52-.81C182.67,139.1,182,138.4,181.56,138.88Z"/><path class="cls-14" d="M184.36,130h0v-.19h-.06a.67.67,0,0,0-1.07,0c0-.21-.29-.42-.29-.62v-.35h.35s0,.12,0,.1a.51.51,0,0,0-1,.17c0,.18,0,.41,0,.59a.53.53,0,0,0-.51.37,2.48,2.48,0,0,0-.1.39l0,0a2.6,2.6,0,0,0-.13.36.13.13,0,0,1,0-.06.47.47,0,0,0-.31-.32,2.11,2.11,0,0,0-.36-.43c-.48-.41-1.19.29-.7.71a1.66,1.66,0,0,1,.38.52c0,.82,0,2.22.84,2.41a3.69,3.69,0,0,0-.12.79.49.49,0,0,0,.87.3.49.49,0,0,0,.5-.34c.07-.19.14-.39.2-.58a4.19,4.19,0,0,1,.45-.59.33.33,0,0,0,.17-.18c.28-.3.58-.57.84-.86C185,131.38,184.44,131.05,184.36,130Z"/><path class="cls-14" d="M155.93,152.07c.35-.54-.51-1-.86-.5a.76.76,0,0,0-.12.3l-.16,0-.25,0c0-.27-.2-.5-.54-.37,0,0-.06,0-.06,0h-.07l-.12.05a.45.45,0,0,0-.33-.12,5.4,5.4,0,0,0-1.4.22.54.54,0,0,0-.77-.08l-.13.12a5.81,5.81,0,0,0-1.39-.9.51.51,0,0,0-.74.3,2.86,2.86,0,0,1-.07.28.19.19,0,0,0-.15-.1l-.23,0a.56.56,0,0,0-.61-.32l-.71.18a.53.53,0,0,0-.28.8l0,0a6.5,6.5,0,0,1-.87-.12.54.54,0,0,0-.46-.39c-2.4-.21-1.58,2.7.38,1.71a.57.57,0,0,0,.5.53,4.61,4.61,0,0,0,1.31-.19c-.11.16-.22.32-.32.5a.5.5,0,0,0,.43.75,2.53,2.53,0,0,0,1.82-1,.51.51,0,0,0,.62.41,1.84,1.84,0,0,0,1.26-.89.51.51,0,0,0,.51.18c.16,0,.31-.08.46-.12a5.15,5.15,0,0,0-.32.45.51.51,0,0,0,.57.74l.19-.07c-.23.7-.43,1.41-.63,2.11a.5.5,0,0,0,1,.27,6.51,6.51,0,0,1,1.71-2.45,4.34,4.34,0,0,0,.72-1.16C155.93,152.92,155.72,152.41,155.93,152.07Z"/><path class="cls-14" d="M161.17,154a1.94,1.94,0,0,1-2.17-1.25.52.52,0,0,0-.48-.38h-.14a1.92,1.92,0,0,0-.14-.49c-.26-.59-1.13-.08-.87.51s-.62,1.59-1,2.06a5.85,5.85,0,0,0-1,1.63c-.2.56.61.82.92.38.49-.71,1.05-1.3,1.58-1.93a.46.46,0,0,0,.47.41,2.28,2.28,0,0,1,.93.16.38.38,0,0,0,.52-.19,3.78,3.78,0,0,0,1.38.14C161.81,155,161.82,154,161.17,154Zm-2.83-.05,0,0,0,0Z"/><path class="cls-2" d="M146.78,114.17c-.35-.07.95-1.63,1-1.75a3.13,3.13,0,0,0,.74-2l-.25,0a3.11,3.11,0,0,1,.3,1.27c0,.08.19.09.24,0a2.25,2.25,0,0,0,.76-2.13l-.24,0a5.23,5.23,0,0,1,.38,1.57c0,.07.19.1.23,0a2.52,2.52,0,0,0,.61-2.44c0-.07-.26-.09-.24,0,.13.52.34,1,.46,1.52,0,.07.17.06.22,0a1.71,1.71,0,0,0,1.15-1.46l-.24,0c.16.57.68,1.2.31,1.79-.05.07.19.12.23.06.39-.61-.13-1.23-.3-1.84,0,0-.23-.09-.24,0a1.89,1.89,0,0,1-.43,1c-.57.73-.58,0-.74-.46-.25-.66-.31.11-.32.37a2.48,2.48,0,0,1-.7,1.44l.24,0a5.26,5.26,0,0,0-.38-1.6s-.25-.09-.24,0a2.28,2.28,0,0,1-.75,2.11l.24,0a3.07,3.07,0,0,0-.31-1.3s-.24-.1-.24,0a3.75,3.75,0,0,1-1.1,2.39c-.3.35-.82.87-.69,1.38,0,0,.08,0,.11.06l.13,0c.15,0,.16-.07,0-.09Z"/><path class="cls-2" d="M146.74,114.24a4.57,4.57,0,0,0,2.63.63c.64,0,2,.18,1.37,1a3,3,0,0,1-1.61.83c-.13,0,0,.09.06.09h-.25c1,0,1-.09,0-.09,0,.06.18.08.23.06s.43-.11.59-.17a5.12,5.12,0,0,0,.75-.35c.35-.21.74-.54.59-1s-.71-.48-1-.53a5.41,5.41,0,0,0-.9,0,3.81,3.81,0,0,1-2.2-.58c-.06,0-.29,0-.21,0Z"/><path class="cls-2" d="M148.39,116.36l0,0s.14,0,.19,0c.27-.13.48-.36.75-.49.08,0,0-.08-.07-.08-.66,0-4.37,0-3,1.7a5.86,5.86,0,0,0,.44.42c.54.5-.38.18-.64.08a1.54,1.54,0,0,1-1-1.23c-.1-.66.51-.91.91-1.28.24-.24.18-.91.51-1,.15,0-.07-.09-.14-.06-.46.17-.3.55-.5.94-.31.61-.9.54-1,1.28-.2,1.17,1.35,1.73,2.25,1.64,0,0,.18,0,.14-.08a6,6,0,0,0-.69-.73c-.7-.7.24-1.37,1-1.38a14,14,0,0,0,1.44-.14c.39,0-.48.22-.32.36-.05,0-.28,0-.23.06Z"/><path class="cls-2" d="M145.89,115c-.15.26.73.23.83.23s.05-.11-.05-.11-.57,0-.54-.07-.2-.11-.24,0Z"/><path class="cls-2" d="M148.08,113.29c-.18.3,0,.43.3.47.08,0,.57-.07.39-.25a.44.44,0,0,0-.63,0c-.27.29.28.31.43.29s0-.11-.12-.1a.41.41,0,0,1-.11-.07c0-.11.07-.11.13,0-.4.18-.17-.27-.15-.31s-.2-.1-.24,0Z"/><path class="cls-2" d="M152.59,110.71c.51-.06,5.24,0,2.86,1.28-.08.05,0,.08.06.08a2.25,2.25,0,0,1,2.26,1.44c.2.36.41.95.82,1.13.59.25-.81.83-.89.92-.55.6-1.07.1-1.44-.39,0,0-.24,0-.24,0-.05.76-.59,2.56-1.5,1.17,0,0-.23,0-.24,0-.09.8-.74,1.21-1.19.42,0-.06-.21,0-.24,0l-1.27.57c.16-.21.33-.41.5-.6a.43.43,0,0,0,.15-.24c.13-.8-.42-.85-.88-1.34,0-.06-.28,0-.24,0,.35.38.74.43.91,1.07.06.22-.67,1-.76,1.33,0,0,.06,0,.09,0a1.89,1.89,0,0,0,1.27-.29c.54-.49.43.11,1,.13a.86.86,0,0,0,.75-.48c.39-.58.12.06.74.08a.67.67,0,0,0,.55-.22,2.92,2.92,0,0,0,.52-1.15c.15-.58.07-.2.42.19.72.79,2.1-.88,2.51-1.24,0,0,0,0,0-.05-1.15-.51-1.14-2.28-2.4-2.6-.05,0-.94-.14-.74-.25a1,1,0,0,0,.51-.91c0-.07-.19,0-.21,0-.34.14-1.24-.3-1.59-.36a8.2,8.2,0,0,0-2.1,0c-.15,0-.14.12,0,.1Z"/><path class="cls-2" d="M151.64,117.66c-.41.78-.95,1.48-1.36,2.26,0,0,.08.08.1.09a1.62,1.62,0,0,0,1,0c.09,0-.13-.13-.19-.11a1.06,1.06,0,0,1-.8,0l.11.09c.4-.79.95-1.49,1.36-2.27,0-.06-.2-.14-.24-.07Z"/><path class="cls-2" d="M152,118a4,4,0,0,0-.31,3s.07,0,.1,0a2.37,2.37,0,0,0,1.43-.86c-.23.22.4,1.19.81,1.22a1,1,0,0,0,.93-.45,2.77,2.77,0,0,0,.33-.55c.29-.52.06-.24.17-.07s.25.48.51.5c.5,0,.68-.3.9-.7.32-.59.16-1,.68-.27a.86.86,0,0,0,.46.38c1.84.23.72-3.39.58-4.2,0-.07-.26,0-.25,0a19.35,19.35,0,0,1,.38,2.72c0,.15.06,2.12-.94,1-.18-.21-.31-.46-.48-.67,0-.06-.21,0-.24,0a1.36,1.36,0,0,0-.33.64c-.06.6-.45.63-1.16.09,0-.07-.22,0-.25,0-.15.25-.28.52-.42.78-1,1.75-1.35-.49-1.45-.73,0-.07-.19,0-.24,0-.44.38-1.27,1.42-1.37.38a4.07,4.07,0,0,1,.4-2.34s-.21-.06-.24,0Z"/><path class="cls-2" d="M150.67,120.44a2.76,2.76,0,0,0-.92,2,1.82,1.82,0,0,0,.12,1.06,6.06,6.06,0,0,1,.41,2.72c0,.08.16.11.21.1.35-.06.68-.05.9-.41.31-.52,1.28.44,1.59.58.5.23.76,0,1-.42s0-1.15.79-.62a1.33,1.33,0,0,0,.51.3c.85.11.84-.64.82-1.36,0-.16.95.21,1.13.11s1.4-1.11,1-1.35a1,1,0,0,0,.51.18c.94.09.1-1.2,1-1.25.77,0,.16-1-.08-1.27-.05,0-.29-.07-.19,0,.91.81-.11,1.07-.46,1.22a0,0,0,0,0,0,0c0,.31-.05,1.41-.94.85,0,0-.19-.08-.2,0-.08,1.23-.71,1.65-1.87,1.14,0,0-.17-.06-.17,0a7.66,7.66,0,0,1,0,1.07c-.08.88-1.34-.06-1.61-.24,0,0-.19-.08-.19,0-.18,1.71-1.35,1.1-2.48.54,0,0-.14-.06-.17,0-1,1.76-.81-.31-.81-.29a4.92,4.92,0,0,0-.49-1.55,2.86,2.86,0,0,1,.78-3c.05,0-.16-.14-.22-.1Z"/><path class="cls-2" d="M151.26,121.37a4.35,4.35,0,0,0,1.16,4.43c.05,0,.29,0,.19,0a4.27,4.27,0,0,1-1.11-4.34c0-.06-.21-.12-.24,0Z"/><path class="cls-2" d="M154.45,124.94a9.68,9.68,0,0,1-.68-3.09c0-.08-.25-.07-.25,0a9.74,9.74,0,0,0,.68,3.1c0,.08.27,0,.25,0Z"/><path class="cls-2" d="M156,124.22c0-.91.14-1.82.15-2.73,0-.07-.24-.1-.24,0,0,.91-.14,1.81-.15,2.72,0,.08.24.11.24,0Z"/><path class="cls-2" d="M157.78,123.22a17.67,17.67,0,0,0-.3-1.89c0-.08-.25-.08-.25,0a17.67,17.67,0,0,1,.3,1.89c0,.07.25.09.25,0Z"/><path class="cls-2" d="M159.14,122.16a3.38,3.38,0,0,1-.3-1.13c0-.07-.26-.1-.25,0a4,4,0,0,0,.3,1.13c0,.07.27.08.25,0Z"/><path class="cls-2" d="M157.17,119.53a10.07,10.07,0,0,0,.08-2.51c0-.07-.27-.09-.25,0,.26.84-.12,1.64-.07,2.48,0,.08.25.11.24,0Z"/><path class="cls-2" d="M155.51,119.88c0-.84.71-1.55.46-2.41,0-.08-.27-.06-.25,0,.25.86-.42,1.58-.46,2.42,0,.07.25.08.25,0Z"/><path class="cls-2" d="M153.39,120.29a4,4,0,0,0,.68-2c0-.07-.24-.1-.24,0a4,4,0,0,1-.68,2c0,.07.2.12.24.06Z"/><path class="cls-2" d="M154.22,116.34c1.35-1.62-1.17-3-2.36-3.59-.05,0-.29,0-.21.06,1.18.63,3.65,1.92,2.33,3.51,0,.05.19.08.24,0Z"/><path class="cls-2" d="M152.1,110.86c-.2.33-.18.72-.38,1.06a4.81,4.81,0,0,1-.91.83c-.05,0,.18.11.24.06.26-.25.58-.44.82-.71s.24-.81.46-1.18c0-.07-.2-.12-.23-.06Z"/><path class="cls-2" d="M150.81,110.57c-.23.77-.25,1.75-1.12,2.09-.08,0,.14.11.21.08.89-.35.92-1.33,1.15-2.14,0-.06-.22-.11-.24,0Z"/><path class="cls-2" d="M149.67,111.39c-.26.41-.32.9-.6,1.29,0,.06.2.1.24,0,.28-.39.34-.88.6-1.28,0-.06-.2-.11-.24,0Z"/><path class="cls-2" d="M153.64,111.76a4.27,4.27,0,0,1,1.85,1.72,3.49,3.49,0,0,1,.48,1.4,3.21,3.21,0,0,0,.12.93c0,.08.27,0,.25,0a4.28,4.28,0,0,1-.15-1.13,3.46,3.46,0,0,0-.46-1.22,4.09,4.09,0,0,0-1.92-1.76c-.06,0-.29,0-.17.08Z"/><path class="cls-2" d="M158.94,118.13c1.69-.15,2.18-1.86,2.29-3.32.15-2-1.47-3.53-2.77-4.78a6.14,6.14,0,0,1-1.65-2.32c-1-2.93,7.67-.38,8.7.12s2.12,1.17,3.26,1.62h0q.62,2.58-3,1.38a13.8,13.8,0,0,1-4.23-1.78c-.05,0-.29-.06-.19,0l.09,1.3c-.12,0,.06.1.1.11,2,.37.31,1.28.09,1.41,0,0,0,.06,0,.07.9.44,2.53,2.4.53,2.64-.11,0,0,.1.06.11,1.38.92,1.39,1.54,0,1.86,0,0-.06,0-.05,0,.29.6.92,1.43-.56,1.54q-.06,0,0,.06c.68,1,.28,1.5-1.21,1.4,0,0-.19-.05-.16,0a2.93,2.93,0,0,1,.29,1.28c.09,0-.14-.14-.2-.11l-.15.08c-.09,0,.14.13.2.1l.32-.14s0,0,0,0c.11-1.28.17-.57,1.19-1.2a10.07,10.07,0,0,0,.91-2.1c-.08-1,1.13-1.38.35-2.48,0,0-.67-.35-.33-.39s.62-1,.51-1.26a1.78,1.78,0,0,0-1.06-1.23c.42.23.15-1.4.15-1.39a.81.81,0,0,0-.51-.32c.05,0,.53-.16.36-.46-.44-.77-.53-.56.35-.09a19.09,19.09,0,0,0,3.07,1c1.48.45,3.36.5,3.91-1.3,0,0-.08-.08-.11-.08-2.65-.73-4.78-2.28-7.5-2.91-1.66-.38-3.56-.91-5.14,0-1.31.75.87,2.89,1.34,3.37a9.88,9.88,0,0,1,2.55,3.38c.6,1.53.06,4.43-2,4.61-.13,0,.09.12.15.12Z"/><path class="cls-2" d="M166.83,111.54c0,.26,0,.52,0,.78-.06,1.17-1.64.14-2.06-.18a9.13,9.13,0,0,1-2.29-2.22c0-.07-.27-.08-.24,0a9.28,9.28,0,0,0,3.3,2.92,1.43,1.43,0,0,0,1,.17c.71-.26.48-.78.58-1.39,0-.07-.23-.12-.24,0Z"/><path class="cls-2" d="M165.87,113.08l-.09,0,.12.15a2.61,2.61,0,0,1,.17.28,4.23,4.23,0,0,1,.27.57c.22.52.48,1.51-.52,1.32a3.07,3.07,0,0,1-1.29-.85c-.25-.22-.79-.67-.78-1.06,0-.07-.24-.07-.25,0,0,.6,1,1.27,1.39,1.57s1.1.68,1.63.37.11-1.24-.08-1.7c0-.08-.74-1.2-.82-.69,0,.06.24.08.25,0Z"/><path class="cls-2" d="M165.78,115.83c-.24.24-.1.75-.22,1.06-.26.65-1.12.11-1.44-.22a2.49,2.49,0,0,0-.65-.51c-.06,0-.29,0-.14,0,.42.21.66.64,1,.88a1.42,1.42,0,0,0,.92.21.61.61,0,0,0,.55-.47c.08-.26,0-.69.16-.9.05,0-.18-.14-.23-.09Z"/><path class="cls-2" d="M164.79,117.33c.17.47.32,1.13-.09,1.52-.58.58-1.3-.75-1.73-1-.06,0-.29,0-.2.08.7.36.89,1.32,1.82,1.09s.65-1.18.45-1.75c0-.08-.27,0-.25,0Z"/><path class="cls-2" d="M163.81,119.17a3,3,0,0,1-.11,1.2c-.37.9-1.26-.3-1.47-.69,0-.07-.26-.09-.24,0,.27.51.75,1.24,1.42,1.15s.64-1,.64-1.55c0-.08-.24-.13-.24-.07Z"/><path class="cls-2" d="M162.07,119.8a3.25,3.25,0,0,1,.39,1.46,1.53,1.53,0,0,1-1.65,1.3s.05.26.07.26h-.1c-.15,0,0-.11.07-.1a1.94,1.94,0,0,0,1.64-.71c.48-.62.09-1.53-.18-2.14,0-.07-.27-.13-.24-.07Z"/><path class="cls-2" d="M169,111a13.84,13.84,0,0,1,6.21,6c.62,1.42.52,3.52,1.95,4.49.7.38-.06.45-2.28.2-1.38-.38-1.42-1.1-1.73-2.16a8.17,8.17,0,0,0-1.22-2.41c-.35-.49-4-5.23-4.42-5,.08,0-.15-.12-.2-.09l-.15.07s0,0,0,.06a25.83,25.83,0,0,1,4.16,4.45,10.54,10.54,0,0,1,1.59,2.93,3.14,3.14,0,0,0,5,2.26c.06,0,0-.07,0-.08-2.23-1.09-2-4.68-3.55-6.52a15.31,15.31,0,0,0-5.14-4.22c-.07,0-.29,0-.14.06Z"/><path class="cls-2" d="M173,120.48c0,1.1-1.74-.53-2.11-.77,0,0-.26,0-.23,0l.12.34c.5.79.28,1.12-.67,1-.18-.22-.33-.48-.49-.72,0,0-.24-.07-.25,0-.15,1-1,1.27-2,.67,0,0-.24-.06-.23,0,.29.85-.25,1.16-1.6,1,0,0-.23,0-.21,0,.28.71-.08,1.43-1.09,1.7.15,0,.15.12,0,.12h-.15s-.2-.18-.09-.13a1.15,1.15,0,0,0,1.42-.28c.32-.51,0-1.27.66-1.07a1.73,1.73,0,0,0,.75,0,.72.72,0,0,0,.6-.51c0,.11.06-.61.09-.59a4.72,4.72,0,0,0,.84.49c.33.17,1,.06,1.11-.4.15-1-.07-.79.59,0a1,1,0,0,0,.57.32c.68.1.61-.78.48-1.19-.07-.23-.56-.79-.16-.49l.72.58a3.28,3.28,0,0,0,1,.58c.48.16.55-.3.53-.65,0-.07-.25-.07-.25,0Z"/><path class="cls-2" d="M162,125c.07,0,.43.19.56.19a.52.52,0,0,0,.48-.29,2.82,2.82,0,0,0-.33-2.74c0-.06-.28,0-.24,0a3.05,3.05,0,0,1,.4,2.56c-.21.59-.67,0-1,.18-.12,0,.12.1.18.07Z"/><path class="cls-2" d="M164,120.22c0,.28.38.76.51,1a9.31,9.31,0,0,0,.87,1.19c.05.05.28.09.19,0a8.83,8.83,0,0,1-.72-1c-.14-.21-.67-.8-.62-1.09,0-.07-.22-.14-.23-.08Z"/><path class="cls-2" d="M165.08,118.58c.35.06.82.85,1,1.12a5.07,5.07,0,0,1,1,1.6c0,.07.26.11.24,0a4.85,4.85,0,0,0-1.23-1.84c-.33-.36-.58-.93-1.11-1-.16,0-.06.09,0,.11Z"/><path class="cls-2" d="M166.09,116.4c.76.8,1.89,1.27,2.42,2.27.3.55.47,1.32,1,1.69.06,0,.28,0,.14,0-.57-.39-.74-1.33-1.09-1.9-.52-.86-1.59-1.3-2.27-2-.05,0-.28-.08-.22,0Z"/><path class="cls-2" d="M166.78,114.23a12,12,0,0,1,4.36,5.79c0,.07.27.09.24,0A12.13,12.13,0,0,0,167,114.2c-.05,0-.3,0-.19,0Z"/><path class="cls-2" d="M176.73,122.14c1.56,3,.23,5.59-.17,8.66-.19,1.4.06,2.81-.13,4.2-.27,2.06-.19-.71-.21-.35,0-.87.07-1.73.08-2.6,0-1.93-.06-4.78-1.21-6.41a7.14,7.14,0,0,1-1.66-3,2.26,2.26,0,0,0-.56-1.54c-.05,0-.29-.06-.19,0,.58.48.52,1.64.65,2.31.24,1.19,1.61,2.21,2,3.38,1.07,3,.66,6.41.54,9.53,0,.08.21.13.25.06,1.07-2.25.49-4.95.94-7.39.49-2.61,1.18-4.36-.12-6.83,0-.07-.26-.09-.24,0Z"/><path class="cls-2" d="M174.09,125.07a31,31,0,0,0,.42,5c.11.85,0,6.73-.22,2.55a38.44,38.44,0,0,0-1.28-6c-.4-1.8-1.77-3.1-2.08-5,0-.07-.25-.11-.24,0,.35,2.12,1.8,3.71,2.27,5.82.26,1.21.53,2.37.9,3.56s.13,2.7.38,4c0,.06.22.13.24.06,1-3.3-.25-6.56-.15-9.91,0-.08-.24-.12-.24-.06Z"/><path class="cls-2" d="M172.35,125.91c.12,1.5.37,3,.52,4.5a22.84,22.84,0,0,1,.28,2.88c0-.26-.57-1.78-.66-2.3a25.36,25.36,0,0,0-1.36-4.93c-.59-1.47-1.7-2.58-2-4.19,0-.07-.25-.12-.24-.05.4,2,1.92,3.48,2.42,5.45a55,55,0,0,0,1.74,6.65s.22.14.24.06c.49-2.55-.47-5.46-.68-8,0-.07-.24-.13-.24,0Z"/><path class="cls-2" d="M170.08,125.76a26.09,26.09,0,0,0,.69,3.5c0,.15.39,1.19.12.26-.16-.55-.36-1.09-.53-1.63a5.87,5.87,0,0,0-1.27-2.17,33.33,33.33,0,0,1-2.24-3c0-.06-.28-.05-.24,0a29.67,29.67,0,0,0,2.26,3,9.89,9.89,0,0,1,2,4.5c0,.06.24.08.24,0,0-1.53-.67-2.94-.75-4.46,0-.08-.26-.1-.25,0Z"/><path class="cls-2" d="M168.72,126.16c.33,1,.48,2.12.75,3.17h.25a13.62,13.62,0,0,0-1.9-3.79,4.37,4.37,0,0,0-1.22-1.24c-.24-.16-1.36-.67-1.26-1,0,0-.23-.07-.25,0-.12.43,1.25,1,1.53,1.23a10.16,10.16,0,0,1,2.85,4.81c0,.08.27.06.25,0-.27-1.05-.42-2.13-.75-3.17,0-.08-.27,0-.25,0Z"/><path class="cls-2" d="M165.18,123.82a14.85,14.85,0,0,1,2.18,4.29h.23a27.85,27.85,0,0,0-2.31-2.3c-.6-.6-1.58-1-1.76-1.92,0-.07-.26-.1-.24,0,.17.83,1,1.22,1.6,1.75a22.61,22.61,0,0,1,2.49,2.5s.26.08.23,0a14.75,14.75,0,0,0-2.2-4.33s-.28-.07-.22,0Z"/><path class="cls-2" d="M144.16,111.51c.33-.33.69-.18.45.28-.12.22-.38.31-.45.57-.14.51,0,1-.47,1.4a.69.69,0,0,0-.3.61s0,0,0,0c.87.34,1.43-.5,2.19-.75l-.18-.05c-.34,1-1.46,1-2,1.74,0,0,.1.06.12.06a.68.68,0,0,0,.34-.11c.07,0-.17-.07-.22,0,.73-.42,1.74-.77,2-1.63,0-.08-.15-.06-.19-.05a2.73,2.73,0,0,0-.6.28c-.24.15-.46.32-.72.46l-.48-.29a3.51,3.51,0,0,1,.34-.33,1,1,0,0,0,.29-.65,1.76,1.76,0,0,1,.41-1.1c.13-.15.6-.86.13-1s-.67.24-.92.48c-.07.07.17.09.22,0Z"/><path class="cls-2" d="M144.61,112a4.65,4.65,0,0,0,.14,1c0,.07.25,0,.25,0a2.73,2.73,0,0,0-.15-1.06c0-.08-.27,0-.24,0a2.84,2.84,0,0,1,.14,1l.25,0a4.75,4.75,0,0,1-.15-1.06c0-.07-.25-.05-.24,0Z"/><path class="cls-2" d="M143.85,111.41c-.39.49-1.38.48-1.86,1a1.64,1.64,0,0,0-.18,2.3c.38.65-.11,2,.58,2.48a3.53,3.53,0,0,0,2,.26c.14,0,.14-.1,0-.1l-.86,0c-1.19,0-1.29-.62-1.28-1.44a2.6,2.6,0,0,0-.36-1.47c-.65-1.13,0-2,1.1-2.53.45-.23.79-.15,1.06-.49,0-.05-.19-.08-.24,0Z"/><path class="cls-2" d="M143.47,115.48c-.19.72,1.8.46,2.12.29.08,0-.15-.12-.21-.09-.28.16-1.8.35-1.66-.16,0-.06-.23-.11-.25,0Z"/><path class="cls-2" d="M148.1,116.28c2.87,1.88.83,4.49-1.11,5.93-.73.55-2.19,1.85-1.72,2.94a2,2,0,0,0,1.82,1.38c1.28.23,2.33-.86,3.51,1.17.55.93-.18,4.16-1.3,2.36-.41-.65-.8-1.37-1.68-1.46a6.26,6.26,0,0,0-1.37,0c-2.6.07-3.38-1.33-3.59-3.53s2.14-3.6,3.56-4.92c.92-.87,1.45-1.75.43-2.67-.05,0-.29,0-.22,0,1.82,1.63-2.7,4.45-3.52,5.6a4.19,4.19,0,0,0,.41,4.65c1.39,1.37,4.53.4,5.5,1.93.21.33.63,1.44,1.24,1.32,1-.19,1.18-2,.95-2.78-.44-1.41-1.26-1.73-2.64-1.77-6.22-.18-.79-4.2.78-5.82,1.27-1.3.51-3.5-.84-4.39-.05,0-.29,0-.21,0Z"/><path class="cls-2" d="M138.25,120.92c-.12-.06-.47-.2-.59-.09s-.11.26-.12.42-.39.33-.59.33c-.76,0,.2,1.16.48,1.34,0,0,.31.13.33,0a3.37,3.37,0,0,0,0-.44A1.07,1.07,0,0,1,138,122c.22-.34.84-1.1.06-1.15-.17,0-.06.1,0,.11.35,0-.36,1-.44,1.12a1,1,0,0,0-.17.39c0,.18.14.46-.08.31a1.87,1.87,0,0,1-.42-.64c-.12-.27-.09-.35.19-.4a1.33,1.33,0,0,0,.56-.27c.12-.09-.06-.68.32-.47.05,0,.3,0,.19,0Z"/><path class="cls-2" d="M138.58,121c.41,0,.76.42.3.64-.17.08-.36.14-.42.34a1.58,1.58,0,0,0,.09.64c.06.3-.19.47-.35.15a3.89,3.89,0,0,0-.16-.38c0-.06-.26-.08-.24,0,.2.36.22.69.67.75s.34-.41.27-.67,0-.54.34-.7c.11,0,.3-.13.29-.27-.05-.49-.49-.58-.89-.58-.16,0,0,.11.1.11Z"/><path class="cls-2" d="M139.47,121.45c1.31,0,.11.58,0,1a2.41,2.41,0,0,0,0,.54,1.93,1.93,0,0,1,0,.24c0,.23-.57,0-.4-.28,0-.06-.2-.11-.24-.05-.2.31.34.59.6.61s.3-.44.3-.67a.82.82,0,0,1,.25-.65c.1-.1.37-.24.38-.4,0-.4-.66-.42-.91-.43s0,.11.06.11Z"/><path class="cls-2" d="M140.23,121.79c1.45,1.15,1.62,2.17,1.13,3.88-.32,1.11.39,1.86,1.2,2.48,1.09.83,1.08,1.59,1.44,2.77.15.47.73.48,1.1.5.15,0,.16-.08,0-.1-1.19-.09-1-1.44-1.37-2.27s-1.4-1.2-1.91-1.83c-.79-1,.2-2.54.09-3.62-.07-.79-.92-1.4-1.47-1.84,0,0-.29,0-.22,0Z"/><path class="cls-2" d="M139.63,123.07c1.24,1.4-.34,2.78.15,4.35a3.2,3.2,0,0,0,1,1.14c.91.81.93,1.56,1.3,2.66.67,2,2.19,3.33,4.15,2,.08-.06-.15-.12-.21-.08-2.5,1.69-3.69-1.15-3.71-3,0-.68-.87-1.22-1.31-1.58a2.67,2.67,0,0,1-.72-3.44,1.67,1.67,0,0,0-.39-2s-.29,0-.22,0Z"/><path class="cls-2" d="M147.55,129.65v.9l.25,0a2.07,2.07,0,0,1,0-1c.13-.24.34.16.36.24a1,1,0,0,1,0,.4,2.55,2.55,0,0,1-.22.54c0,.07.21.07.25,0,.18-.38.57-1.4-.22-1.36-.62,0-.42.79-.41,1.21,0,.07.25.06.25,0v-.91c0-.06-.25-.05-.25,0Z"/><path class="cls-2" d="M147.55,129.82h0s-.05-.29-.08-.32c-.29,0-.73-.16-.88.15a1.76,1.76,0,0,0-.05,1.26c.16.67.67,1.45,1.46,1.22a0,0,0,0,0,0,0c-.14-.66-1.05-1.18-.46-1.87.05-.06-.18-.13-.23-.08a.8.8,0,0,0,0,1.1,5.6,5.6,0,0,1,.38.61c.15.29-.33.11-.45,0a1.37,1.37,0,0,1-.26-.37,2.6,2.6,0,0,1-.31-1.39c0-.58.57-.68,1.1-.69.15,0,.14-.11.14-.11v.22c-1,0-.28.32-.18.32Z"/><path class="cls-2" d="M146.21,130.05c-.27.19-.61.43-.52.81a3.53,3.53,0,0,0,.28.67,4.45,4.45,0,0,1,.19.65.62.62,0,0,0,.6.46c.42,0,.58-.11.51-.57,0-.08-.25-.09-.25,0a1.25,1.25,0,0,1,0,.33c-.07.63-.56,0-.6-.1a3.13,3.13,0,0,1-.2-.66,5.1,5.1,0,0,1-.31-.82c0-.31.28-.52.49-.66s-.15-.12-.21-.08Z"/><path class="cls-2" d="M145.4,130.87c-.66.21,0,1.3.18,1.66s.13.53.48.59a.53.53,0,0,0,.68-.44c0-.06-.23-.11-.25,0l0,.14c-.08.23-.24.27-.49.13a1.59,1.59,0,0,0-.07-.2c-.07-.18-.16-.36-.24-.53s-.55-1.06-.09-1.21c.12,0-.1-.12-.17-.1Z"/><path class="cls-2" d="M146.35,133.36c.25.32.83.1,1.05-.11l.37-.36c.14-.12.23,0,.38-.08s.18-.18.1-.39-.27,0-.25,0c.15.39,0,.2-.27.31s-.83,1-1.14.57c-.05-.06-.28,0-.24,0Z"/><path class="cls-2" d="M148.39,129.72c.32.43.73,1.38,1.28,1.55.3.1.81.16,1-.13a1.45,1.45,0,0,0,.24-.52c.16-.5.66-.62.7,0,0,.29-.06.72.25.88,0,0,.29,0,.17-.06-.53-.29.22-1.48-.75-1.41-.35,0-.51.3-.62.6-.17.5-.63,1-1.17.3-.29-.4-.6-.81-.9-1.21,0-.06-.28,0-.24,0Z"/><path class="cls-2" d="M148.46,132.43a.85.85,0,0,0,.83.62c.54,0,.94-.69,1.49-.51.07,0,.29,0,.14-.07a1.1,1.1,0,0,0-.78,0,3.09,3.09,0,0,0-.51.32.6.6,0,0,1-.93-.37c0-.07-.25-.09-.24,0Z"/><path class="cls-2" d="M151.26,125.89a4.14,4.14,0,0,0,.61,3,6.29,6.29,0,0,0,1.07,1.15,1.22,1.22,0,0,0-.82-.37s-.11,0-.1,0c.08.4.63,1.1.38,1.33-.09.09-1,1.27-1,1.28s0,0,0,.06c1.25.92-.51.26-1.16.24,0,0-.09,0-.07,0a1.54,1.54,0,0,0,1.14,1,8.84,8.84,0,0,0,1.53.23c-.09,0-.05.8.06.94s.61.12.84.07c.59-.12,1-1.06,1.74-.44a3.59,3.59,0,0,0,1.14.65s.12,0,.13,0a6.26,6.26,0,0,0,.16-2.66c0-.07-.24-.13-.24,0,0,.73.57,3.23-1,2.06-.23-.17-.31-.31-.58-.4-.43-.15-2.4,1.44-1.89-.16,0-.06-.13-.09-.16-.1-.46,0-.92-.07-1.38-.15-.08-.24-.17-.49-.26-.73a10.08,10.08,0,0,0,1.09.24c.08,0,.15,0,.06-.07l-.58-.76s0,0,0,0c-.08-.5.57-1,.89-1.31a0,0,0,0,0,0,0l-.05-.07c-.41-.27-.3-.43.31-.49,0,0,.26.09.2,0-.88-1.21-2.32-2.66-1.8-4.36,0-.07-.22-.15-.24-.08Z"/><path class="cls-2" d="M151.94,126.61a7.54,7.54,0,0,0,2.93,3.36c.24.15,1.61,1.15,1.92.68,0-.07-.2-.12-.24-.06-.2.31-2.05-1-2.28-1.19a6.8,6.8,0,0,1-2.09-2.79c0-.06-.27-.06-.24,0Z"/><path class="cls-2" d="M153.76,126.57c-.11.44.67,1.1.89,1.45a11.15,11.15,0,0,0,1.62,2.23,1.6,1.6,0,0,0,1.11.54c.84-.13.44-1.25.62-1.8,0-.06-.22-.14-.24-.07-.15.45.19,2.23-.93,1.6a4,4,0,0,1-1.14-1.17c-.36-.48-.63-1-.95-1.52-.18-.29-.83-.82-.75-1.18,0-.07-.22-.14-.23-.08Z"/><path class="cls-2" d="M155.65,125.68c.22,1.38,1.7,2.68,2.76,3.5.24.18.73.54,1.08.44.62-.19.3-1.06.4-1.53,0-.08-.22-.15-.24-.08a8.64,8.64,0,0,0,0,1.14c-.09.87-1.54-.41-1.8-.65a5.79,5.79,0,0,1-1.94-2.77c0-.07-.25-.12-.23,0Z"/><path class="cls-2" d="M157.53,124.41a9.83,9.83,0,0,0,1.43,2.41,6.1,6.1,0,0,0,1.62,1.7s.21.08.22,0c.06-.71-.18-1.54.15-2.19,0,0-.21-.13-.24-.06a5.78,5.78,0,0,0-.15,2.2h.21a6.9,6.9,0,0,1-1.86-2.09,7.58,7.58,0,0,1-1.13-2c0-.07-.27-.09-.25,0Z"/><path class="cls-2" d="M158.82,123.52c.22.72,1,1.12,1.3,1.76s.59,1.28,1.31,1.45c0,0,.21,0,.2,0a10.46,10.46,0,0,0-.6-4.16c0-.08-.27,0-.25,0a10.5,10.5,0,0,1,.61,4.16l.21-.06c-.73-.17-1-1-1.33-1.56s-1-.92-1.21-1.58c0-.08-.26,0-.24,0Z"/><path class="cls-2" d="M162.75,125.27a11,11,0,0,1,1,3.46,11.75,11.75,0,0,1,0,1.78c0,.27-.06,2.18-.49,1.08a11,11,0,0,1-.33-2.5c-.1-.71-.38-2.11-1-2.44.06,0,.29,0,.2-.08l-.07,0s-.25,0-.23.06a10.58,10.58,0,0,1,.95,3.11c.08.81,0,1.92.64,2.53,0,0,.22,0,.24,0a9.44,9.44,0,0,0-.68-7c0-.07-.27,0-.24,0Z"/><path class="cls-2" d="M162.82,132c.05.45-.27.06-.38-.1a4.29,4.29,0,0,1-.41-1.43,20.21,20.21,0,0,0-1-2.35c0-.07-.27,0-.25,0,.24.63.63,1.18.83,1.82a7,7,0,0,0,.66,2.09c.29.39.88.62.8-.07,0-.07-.26-.05-.25,0Z"/><path class="cls-2" d="M162.07,132.5c-.22.24-.27.57-.46.83l.23,0a4.27,4.27,0,0,1-1-1.72,11.08,11.08,0,0,1-1-2.34c0-.07-.26-.05-.25,0a10.57,10.57,0,0,0,1,2.36,4.26,4.26,0,0,0,1,1.75.21.21,0,0,0,.23,0,6,6,0,0,1,.45-.83s-.19-.08-.24,0Z"/><path class="cls-2" d="M160.93,133c-.05.46-.15,1.15-.77.65a7.7,7.7,0,0,1-.91-1.06,4.19,4.19,0,0,1-1.24-2.22c0-.07-.26-.08-.25,0,.07,1.24,1.31,2.28,2,3.19a1.08,1.08,0,0,0,.85.43c.45-.08.49-.59.53-1,0-.07-.24-.09-.25,0Z"/><path class="cls-2" d="M159.57,133.48c-.07.34.1,1.09-.47.58a17.25,17.25,0,0,0-1.41-1.15,7.11,7.11,0,0,1-2.33-2.52c0-.07-.28-.06-.25,0,.74,1.62,2.46,2.35,3.62,3.56.22.23.52.55.87.5s.17-.73.22-.95c0-.06-.23-.09-.25,0Z"/><path class="cls-2" d="M157.39,133.41a19.66,19.66,0,0,1,2.5,3.78s.18.1.22.06c.59-.79.27-2.29.23-3.21,0-.06-.24-.13-.23,0,0,.87.35,2.39-.22,3.15l.22.06a19.9,19.9,0,0,0-2.5-3.77c0-.05-.28-.09-.22,0Z"/><path class="cls-2" d="M160.34,136.05a6.76,6.76,0,0,0,1.15,1.61s.19.09.21,0a4.88,4.88,0,0,0-.37-3.86l-.23,0a6.32,6.32,0,0,1,.76,2.17,1.66,1.66,0,0,0,.46,1s.19.09.22,0c.44-1.2-.31-2.29-.38-3.49l-.24,0c.15.5.44.93.59,1.42a5.78,5.78,0,0,0,.55,1.47s.18.1.22,0c1-1-.38-2.46.16-3.56,0-.06-.2-.15-.23-.08-.41.83.16,1.89.18,2.75a1.37,1.37,0,0,1-.12.53c-.08.2-.44-.82-.45-.86-.16-.59-.49-1.09-.66-1.68,0-.06-.24-.12-.24,0,.07,1.19.82,2.26.38,3.46l.21,0a2.85,2.85,0,0,1-.53-1.66,5.16,5.16,0,0,0-.66-1.5c0-.05-.26-.09-.23,0a4.87,4.87,0,0,1,.38,3.84l.21,0a6.7,6.7,0,0,1-1.12-1.57c0-.06-.27-.1-.22,0Z"/><path class="cls-2" d="M164,129a14.54,14.54,0,0,0,3,2.22c1.59,1.1,3.16,2.13,4.71,3.3.29.2.57.4.84.62,1.87,1.4-1,1.11-1.8.61s-1.25-1-1.87-1.48c-.46-.37-4.72-2.81-4.54-3.3,0-.08-.22-.09-.25,0l-.05.14s0,0,0,0c1.93,1.57,4.11,2.83,6.08,4.38,1.1.88,2.26,1.36,3.56.7,0,0,0,0,0,0-.88-1.49-3-2.76-4.37-3.71-1-.7-2.14-1.27-3.16-2A10.14,10.14,0,0,1,164.2,129c0-.06-.28,0-.24,0Z"/><path class="cls-2" d="M163.31,133.77c1.45.52,2,2.18,3.14,3.06a2.06,2.06,0,0,0,1.7.49c.84-.3-.54-1.63-.77-1.84-.49-.44-1-.87-1.49-1.32l-1-.94c-.35-.34-1-.72-1.06-1.21,0-.08-.25-.13-.24-.06.09.41.29.5.61.8l1.51,1.42c.78.72,2.11,1.5,2.42,2.54s-1.4.2-1.68-.05a11.1,11.1,0,0,1-1.3-1.52,4,4,0,0,0-1.8-1.47c-.14,0-.17,0,0,.1Z"/><path class="cls-2" d="M163.28,134.72a6.26,6.26,0,0,0,2,2.53,1.65,1.65,0,0,0,1.82-.33c.07-.06-.17-.09-.22,0-1,.76-1.67.22-2.33-.61a11.53,11.53,0,0,1-1.07-1.58c0-.06-.28,0-.24,0Z"/><path class="cls-2" d="M168.34,136.83a1.87,1.87,0,0,0,1.5.63c.62,0,1-.64,1.45-1,.08-.06-.16-.09-.21,0-.24.19-.44.42-.67.61a1.27,1.27,0,0,1-1.83-.23c-.05-.05-.28,0-.24,0Z"/><path class="cls-2" d="M160.65,137a7.69,7.69,0,0,1-1.08.39c-.34.07-.68,0-1,.1a1,1,0,0,0-.73.81c-.12.86.88.95,1.45.68.08,0-.14-.12-.2-.09-.41.19-.85.21-1-.28a.82.82,0,0,1,.28-.82c.33-.31.84-.22,1.25-.28a5.26,5.26,0,0,0,1.25-.42c.08,0-.14-.12-.21-.09Z"/><path class="cls-2" d="M161.32,137.37c-1,.59-3.63,1.78-1.94,3.08.14.11.55.31.76.22,1.56-.68.87-2.62,3.71-.89a1.23,1.23,0,0,0,1,.17c.35-.16,1.27-.69,1.1-1.21a.77.77,0,0,0-.62-.54,2.94,2.94,0,0,0-.78-.06c-.7,0-1.4-.72-2-1-.07,0-.29,0-.15,0,.59.32,1.21,1.11,2,1.12,2.6.05.59,2.19-.65,1.27a3.09,3.09,0,0,0-1.06-.48,2,2,0,0,0-1.94.74h0c-.37.83-.92.73-1.66-.29,0-.41.41-.72.7-.95a20.33,20.33,0,0,1,1.79-1.09c.06,0-.15-.14-.22-.1Z"/><path class="cls-2" d="M157.6,138.13c-.74.05-.89.82-.6,1.41,0,0,.26.08.25,0a.92.92,0,0,1,.51-.88c.08,0-.15-.11-.21-.08a1,1,0,0,0-.55.93l.25,0c-.24-.47-.22-1.26.46-1.31.16,0,0-.11-.11-.1Z"/><path class="cls-2" d="M158.63,139.87c-.84.15-.35,1.44.14,1.73,0,0,.2.06.22,0,.12-.48-.07-.94.51-1.18.08,0-.15-.1-.21-.08-.6.25-.41.71-.55,1.23H159c-.42-.24-.89-1.46-.16-1.59.12,0-.11-.1-.17-.09Z"/><path class="cls-2" d="M165.56,139c.91.39,1.31,1.58.24,2.06l.18.05c.93-.53.13-1.32-.6-1.5-.06,0-.3,0-.18.08.62.15,1.46.87.6,1.37-.11.07.13.08.18.05,1.12-.5.79-1.75-.21-2.17-.06,0-.29,0-.21.06Z"/><path class="cls-2" d="M137.44,130.57a6.69,6.69,0,0,0-.3-1.23c0-.06-.26-.09-.24,0a7.26,7.26,0,0,1,.3,1.2c0,.08.25.1.24,0Z"/><path class="cls-2" d="M136.76,129.14a.46.46,0,0,0,.75-.24.69.69,0,0,0-.83-.76c-.73.14-.49,1.4.35,1,.12,0-.12-.08-.18,0-.44.21-.37-.5-.28-.69s.5-.07.64.11.09.8-.24.57c-.05,0-.29,0-.21.07Z"/><path class="cls-2" d="M137,129.31c.44.05.68.71,1,.95.05,0,.3,0,.19,0-.47-.33-.61-.95-1.25-1-.17,0-.06.1.05.11Z"/><path class="cls-2" d="M136.6,130.76a.67.67,0,0,0,.09,1.07.64.64,0,0,0,.82-.34c.14-.59-1.1-1-1.15-.1,0,.06.25.05.25,0,0-.25.08-.47.37-.31a.53.53,0,0,1,.28.4.19.19,0,0,1,0,.16c-.23.48-.51,0-.57-.15a.66.66,0,0,1,.17-.68c.07-.07-.17-.07-.22,0Z"/><path class="cls-2" d="M137.35,130.67c-.29.7,1.31.71,1,.11s-1.26-.65-1.12.13c0,.08.26.08.25,0-.06-.36.13-.63.5-.33.55.44-.67.68-.43.12,0-.08-.21-.11-.24-.05Z"/><path class="cls-2" d="M138.1,130.26c0,.65,1.06.69,1.2.11s-1.3-.57-1.27.19c0,.07.25,0,.25,0,0-.52.89-.62.76-.07s-.7.14-.69-.23c0-.06-.24,0-.25,0Z"/><path class="cls-2" d="M137.43,131.75a1.47,1.47,0,0,0,.73,1.75,1.49,1.49,0,0,0,1.4.21,1.15,1.15,0,0,0,.54-1.34c-.16-.78-.93-.93-1.45-1.4-.06-.05-.28,0-.24.05a6.91,6.91,0,0,0,.92.6,1.39,1.39,0,0,1,.56,1.27,1.07,1.07,0,0,1-.2.52c-.39.57-1.18.15-1.57-.16a1.33,1.33,0,0,1-.45-1.5c0-.07-.22-.07-.24,0Z"/><path class="cls-2" d="M138.41,134.17a3.27,3.27,0,0,0,1.88,3.58c.75.42,2.1,1.18,2.94.6.11-.07-.13-.08-.18,0-.79.54-2.35-.51-3-.92a3.06,3.06,0,0,1-1.36-3.22c0-.08-.23-.06-.24,0Z"/><path class="cls-2" d="M140,132.77c.5.21,1,.35,1.5.59a4.12,4.12,0,0,1,1.45,1.51,4.19,4.19,0,0,1,.52,1.5,1.58,1.58,0,0,0,.27.83c0,.05.29.06.22,0-.29-.34-.24-.93-.37-1.35a4.08,4.08,0,0,0-.71-1.43,5.89,5.89,0,0,0-2.74-1.71c-.07,0-.29,0-.14.07Z"/><path class="cls-2" d="M146.41,136.46c-1,0-2.12-.14-2.93.56a2.07,2.07,0,0,0,.16,2.86c1.47,1.43,4.61,1.21,6.26.38.08,0-.15-.11-.21-.08-1.66.84-5.17,1-6.28-.9a2,2,0,0,1,.69-2.47,5.18,5.18,0,0,1,2.42-.24c.16,0,0-.11-.11-.11Z"/><path class="cls-2" d="M147.11,135.63c-1.11.8-.24,2.85,1.08,2.78s.66-2,.51-2.7c0-.07-.25-.12-.23-.05.14.71.48,1.7.07,2.38a.67.67,0,0,1-.73.22,1.22,1.22,0,0,1-.84-.91,1.43,1.43,0,0,1,.36-1.62c.06,0-.16-.14-.22-.1Z"/><path class="cls-2" d="M147,134.82c-.53.37.25.87.64.5s-.53-.9-.88-.48c0,0,.19.09.24,0,.21-.25.42.17.44.31s-.13.19-.33.07a.26.26,0,0,1,.11-.37c.07,0-.16-.09-.22-.06Z"/><path class="cls-2" d="M147.85,135.09c0,.34.24.52.57.4s.13-.5,0-.6a.59.59,0,0,0-.56,0c-.33.14-.21.47-.07.72,0,.06.28,0,.24-.05s-.31-.8.13-.58a.31.31,0,0,1,.14.21c.09.35-.17.15-.19-.08,0-.07-.25,0-.25,0Z"/><path class="cls-2" d="M148.76,135.28c-.14.32.1.42.38.46,0,0,.08,0,.09,0a.63.63,0,0,0,.08-.38s0,0-.05-.05a1.08,1.08,0,0,0-.5-.11.08.08,0,0,0-.07,0,1.31,1.31,0,0,0-.15.46c0,.07.23.12.24.05s0-.1,0-.15.1-.22.26-.13c0,.25-.12,0-.05-.1s-.22-.12-.25-.05Z"/><path class="cls-2" d="M148.18,134.62a.56.56,0,0,1,.21-.43c.07-.05-.16-.08-.22,0a.63.63,0,0,0-.24.48c0,.06.24.07.25,0Z"/><path class="cls-2" d="M148.38,134.15v.61c0,.08.25.1.25,0v-.6c0-.08-.25-.1-.25,0Z"/><path class="cls-2" d="M147.86,133.81a.73.73,0,0,0,.68.37c.16,0,.45-.11.46-.31,0-.71-1.06-.62-1,.15,0,.08.26.06.25,0a.65.65,0,0,1,0-.34c.09-.26.41-.07.46.13a.24.24,0,0,1-.1.22c-.23.21-.46-.11-.55-.25s-.28,0-.24,0Z"/><path class="cls-2" d="M148.85,137.7c.52.05.86.66,1.05,1.09,0,.07.27.05.24,0-.22-.53-.61-1.11-1.22-1.17-.11,0-.24.08-.07.1Z"/><path class="cls-2" d="M156.51,138.52c-1.68-.58-2.73-1.54-4.54-1.12a3,3,0,0,0-2.22,3.6c.32,1.33,2.06,1.87,3.25,1.93,2.11.11,3.37-1.1,5-2.3.08,0-.16-.11-.21-.07a26.52,26.52,0,0,1-2.61,1.88c-1.65.95-4.42.39-5.18-1.44-.53-1.29.38-2.54,1.4-3.19,1.7-1.09,3.41.24,5,.78.07,0,.28,0,.13-.07Z"/><path class="cls-2" d="M157.84,140.71c-1.17,1-.91,3.8-.91,5.15,0,0,.07.07.11.08a6.93,6.93,0,0,0,2.6.19c.17,0,.23-.45.25-.52a2.46,2.46,0,0,1,1.59-2c1.68-.68,4.81-.93,3.78-3.68,0-.07-.27-.09-.24,0,1.18,3.15-3.11,2.94-4.72,4.15a1.65,1.65,0,0,0-.55,1.1c-.3,1.53-2.59,1-2.57-.4,0-1,0-3.19.89-4,.05,0-.17-.12-.23-.07Z"/><path class="cls-2" d="M164.09,143c1.73.64,3.3,1.3,5.16.93a3.06,3.06,0,0,0,2.44-3.08c0-.07-.25-.09-.25,0a3.07,3.07,0,0,1-1.37,2.62c-1.79,1.22-4.07.13-5.85-.53-.07,0-.28,0-.13.08Z"/><path class="cls-2" d="M172.42,138.35a2.28,2.28,0,0,0-1.67,1.27c-.33.55-.37,1.49.51,1.47a2.18,2.18,0,0,0,1.76-1.52c.2-.58.15-1.36-.63-1.21-.15,0-.13.12,0,.09.69-.13.46.9.35,1.22-.2.58-1,1.54-1.7,1.22-1.07-.5.62-2.39,1.32-2.43.11,0,.22-.12,0-.11Z"/><path class="cls-2" d="M172.06,138.05c.26.22.87.31.84-.17s-.82-.29-1-.09c0,0,.19.08.24,0,.57-.62.7.66.14.19-.05,0-.29,0-.22.05Z"/><path class="cls-2" d="M172.88,138.21c-.07.41.74.62.84.2s-.7-.47-.9-.28.16.15.21.1.26-.13.45,0c0,.22-.09.22-.36,0,0-.07-.23-.14-.24-.08Z"/><path class="cls-2" d="M173.25,138.77c-.24.67,1,.86,1,.18,0-.22-.32-.33-.5-.33a.72.72,0,0,0-.71.53s.22.1.25,0c.1-.26.71-.71.71-.18s-.64.23-.49-.19c0-.06-.22-.11-.25,0Z"/><path class="cls-2" d="M173.42,138a2.31,2.31,0,0,1,.59-.45c.08-.05-.15-.1-.21-.07a2.6,2.6,0,0,0-.62.47s.19.1.24,0Z"/><path class="cls-2" d="M173.8,138.2a6.54,6.54,0,0,1,.76-.61s-.19-.09-.24,0a5.57,5.57,0,0,0-.76.6c0,.05.19.09.24,0Z"/><path class="cls-2" d="M174.09,137.29c.29.54,1.53.4,1.41-.31-.14-.88-1.44-.35-1.42.38,0,.07.26,0,.25,0,0-.52.7-1,.92-.33s-.69.66-.92.25c0-.06-.28,0-.24,0Z"/><path class="cls-2" d="M165.17,141.46c.39.37,1.18.19,1.62,0,1.1-.54,2.13-4,3.83-2.1,0,.06.28,0,.23-.06A1.47,1.47,0,0,0,169,139a4.47,4.47,0,0,0-1.24,1,7,7,0,0,0-.5.71c-.33.48-1.23,1.3-1.84.71-.06-.05-.28,0-.24.06Z"/><path class="cls-2" d="M153,139.71a4.38,4.38,0,0,0,.85.54c.06,0,.3,0,.18-.06a3.85,3.85,0,0,1-.81-.52s-.29,0-.22,0Z"/><path class="cls-2" d="M152.25,138.43a1.19,1.19,0,0,0,.64.55c.06,0,.29,0,.16-.09a1.1,1.1,0,0,1-.57-.51c0-.06-.28,0-.23.05Z"/><path class="cls-2" d="M151.79,136.91a3.73,3.73,0,0,1,.38.68c0,.06.27,0,.24,0a3.48,3.48,0,0,0-.38-.68c0-.06-.28,0-.24,0Z"/><path class="cls-2" d="M150.2,137.59a4.78,4.78,0,0,0,.54.47c.06,0,.29,0,.22-.06a3.73,3.73,0,0,1-.52-.45c-.05-.05-.28,0-.24,0Z"/><path class="cls-2" d="M151.18,139.61c0,.18.38.3.49.34s.3,0,.18-.07-.44-.14-.42-.26-.23-.09-.25,0Z"/><path class="cls-2" d="M151.85,142l.45-.23c.12-.06-.12-.09-.18-.06l-.45.23c-.12,0,.12.09.18.06Z"/><path class="cls-2" d="M154.75,138.7a1.39,1.39,0,0,0,.32.32c.05,0,.29,0,.18,0a1.28,1.28,0,0,1-.28-.29c-.05-.05-.28-.08-.22,0Z"/><path class="cls-2" d="M154.88,137l.31.75c0,.08.26,0,.25,0l-.31-.75c0-.08-.27,0-.25,0Z"/><path class="cls-2" d="M146,139a6.35,6.35,0,0,0,.78.4c.09,0,.24,0,.09-.07a7.14,7.14,0,0,1-.73-.37c-.06,0-.28,0-.14,0Z"/><path class="cls-2" d="M144.91,139.67h.68c.17,0,0-.11-.06-.11h-.68c-.17,0,0,.11.06.11Z"/><path class="cls-2" d="M144.68,138.15h.38c.17,0,.05-.1-.06-.1h-.37c-.17,0-.06.1.05.1Z"/><path class="cls-2" d="M145.36,137.28l.15.16c.06.05.28,0,.24,0l-.14-.15c-.06-.06-.29,0-.25,0Z"/><path class="cls-2" d="M144.91,135.93a1.51,1.51,0,0,0,.23.61c0,.06.27,0,.23,0a1.8,1.8,0,0,1-.22-.6c0-.07-.25,0-.24,0Z"/><path class="cls-2" d="M143.31,140a1.76,1.76,0,0,1,.9-.21c.08,0,.29-.07.13-.09a2.39,2.39,0,0,0-1.21.24c-.12,0,.12.09.18.06Z"/><path class="cls-2" d="M145.32,141.84c.3.15.52,0,.74-.24,0,0-.19-.09-.24,0a.41.41,0,0,1-.32.21c-.06,0-.3,0-.18.07Z"/><path class="cls-2" d="M143.72,135.4a1.37,1.37,0,0,1,.07-.45c0-.06-.22-.12-.24,0a1.16,1.16,0,0,0-.08.45c0,.08.25.1.25,0Z"/><path class="cls-2" d="M141.13,132.36a.75.75,0,0,0,0,.7c0,.07.26,0,.24,0a.79.79,0,0,1,0-.67s-.2,0-.24,0Z"/><path class="cls-2" d="M141.05,134.46a1.75,1.75,0,0,0,.08.55c0,.06.27.06.24,0a1.52,1.52,0,0,1-.07-.52c0-.07-.25-.08-.25,0Z"/><path class="cls-2" d="M139.84,134.26a1.6,1.6,0,0,0,.38.54c.06.06.29,0,.24-.05a1.5,1.5,0,0,1-.37-.52c0-.07-.27,0-.25,0Z"/><path class="cls-2" d="M139.63,135.67a1.92,1.92,0,0,0,1,.52c.17.05.07-.08,0-.11a1.45,1.45,0,0,1-.78-.39c0-.05-.28-.08-.22,0Z"/><path class="cls-2" d="M141.13,135.88c-.16.17,0,.36.16.5s.29,0,.22,0a.32.32,0,0,1-.14-.41c0-.05-.19-.11-.24-.06Z"/><path class="cls-2" d="M142.26,135.75a2,2,0,0,0-.08.61c0,.07.25.08.25,0a1.74,1.74,0,0,1,.08-.6c0-.06-.23-.1-.25,0Z"/><path class="cls-2" d="M142,137.19a.71.71,0,0,0,.16.31c0,.06.28.07.22,0a.47.47,0,0,1-.14-.29c0-.07-.26-.09-.24,0Z"/><path class="cls-2" d="M141.1,137.56h.45c.13,0-.08-.12-.14-.12H141c-.13,0,.08.12.15.12Z"/><path class="cls-2" d="M139.13,137.47l.61.08c.15,0,.15-.09,0-.1l-.6-.08c-.15,0-.15.09,0,.1Z"/><path class="cls-2" d="M137.94,135.73a4.5,4.5,0,0,1,.73.15c.06,0,.29-.06.17-.09a4.15,4.15,0,0,0-.78-.16c-.08,0-.28.1-.12.1Z"/><path class="cls-2" d="M141.14,138.87a1.91,1.91,0,0,1,.58-.43c.12-.05-.12-.1-.18-.07a2.11,2.11,0,0,0-.64.48s.19.08.24,0Z"/><path class="cls-2" d="M155.5,143.21a5.27,5.27,0,0,0,.54-1c0-.06-.22-.14-.25-.07a4.31,4.31,0,0,1-.52,1c0,.07.19.15.23.09Z"/><path class="cls-2" d="M156,142.8a1.07,1.07,0,0,1,.3-.74c0-.05-.19-.11-.24-.05a1.15,1.15,0,0,0-.31.77c0,.07.25.09.25,0Z"/><path class="cls-2" d="M165.76,143.79h0l-.19,0a2,2,0,0,1,.65.75c0,.06.27,0,.23-.06a2.05,2.05,0,0,0-.68-.78.25.25,0,0,0-.19,0h0c-.1.07.14.08.19,0Z"/><path class="cls-2" d="M170.09,143.62c.19.22.51.2.77.21s0-.11-.11-.11a.63.63,0,0,1-.44-.1c0-.05-.28-.07-.22,0Z"/><path class="cls-2" d="M171.53,142.24h.76c.11,0,.23-.11.06-.11h-.76c-.11,0-.23.11-.06.11Z"/><path class="cls-2" d="M156.79,144c-.45.2-1.28-.16-1.78-.16h-2c-.17,0,0,1,.06,1h2.49a4,4,0,0,0,1.44-.43c.08,0-.15-.44-.21-.41Z"/><path class="cls-2" d="M152.16,144.91c-.08.5,1.51.25,1-.72a1.1,1.1,0,0,0-1.22-.38.8.8,0,0,0-.54.64,1,1,0,0,0,.14.47c.22.51.39.62,0,1.21a1.21,1.21,0,0,0-.17,1c.08.17.57.83.43,1a2.44,2.44,0,0,0-.34.61c-.28.62.07.93.63,1,1.38.22,1.53-1.36.09-1.12-.14,0-.07.14,0,.14h.65v-.18c1,0-1.18,1.91-1,.35a2,2,0,0,1,.42-1s-.06,0-.06,0c-.78-.92-.69-1.51,0-2.47l0,0a2.07,2.07,0,0,1-.58-1.05c.84-.59,1.29-.55,1.37.12-.07.39-.29.5-.65.34,0-.07-.24-.08-.25,0Z"/><path class="cls-2" d="M161,145.41a.35.35,0,0,1,0-.08q-.48-.87.9-.6c.31.24.17.65.13.94a6.84,6.84,0,0,1-.21,2,.59.59,0,0,0,0,.59,1.53,1.53,0,0,1,.28,1.11.76.76,0,0,1-1.2,0c-.32-.38-.14-.56.52-.54.06.06.28,0,.24-.05-.52-.5-1.53-.11-1,.65s2,.3,1.64-.71c-.12-.37-.41-.65-.21-1.05a1.88,1.88,0,0,0,.15-1.15c-.09-.76.47-1.61-.39-2.06s-1.66.32-.92,1c0,.05.16,0,.21,0l.11-.07c.12-.07-.13-.09-.18-.05Z"/><path class="cls-2" d="M153.53,149.44a.62.62,0,0,0,.58.55c1.11.12,2.26.1,3.37.13.42,0,2.85.21,2.87-.51,0-.08-.25-.1-.25,0,0,.76-6.13.68-6.33-.13,0-.06-.26-.08-.24,0Z"/><path class="cls-2" d="M157.53,146.18c-.17.47.16.9.38,1.3.43.78.83,1.58,1.29,2.34,0,.07.27.05.24,0-.36-.6-.69-1.23-1-1.85s-.85-1.19-.64-1.76c0,0-.22-.1-.25,0Z"/><path class="cls-2" d="M155.12,144.36c.06.58,1,1.24,1.28,1.74a11.53,11.53,0,0,1,.53,2,7.32,7.32,0,0,0,1.14,1.68c0,.05.28.08.23,0a7.83,7.83,0,0,1-1.25-2,9,9,0,0,0-.46-1.79c-.29-.47-1.18-1.1-1.23-1.65,0-.06-.25-.11-.24,0Z"/><path class="cls-2" d="M153.76,144.25c.65,1.09,1.42,1.84,1.58,3.16a7.16,7.16,0,0,0,1.14,2.59c0,.06.27,0,.23-.06a8.06,8.06,0,0,1-1.2-3.24c-.11-.93-1.06-1.74-1.52-2.5,0-.06-.27,0-.23.05Z"/><path class="cls-2" d="M151.2,145c-.66.44-1.67-1.26-1.58-1.8,0-.06-.24-.07-.25,0-.14.83,1.16,2.42,2,1.83.08-.05-.16-.08-.21,0Z"/><path class="cls-2" d="M149.54,143c0-.38.05-1.15-.43-1.29a1.13,1.13,0,0,0-1.28.48.67.67,0,0,0,.61,1.05.86.86,0,0,0,.87-.77c0-.06-.24,0-.24,0,0,.44-.5.83-.93.49s-.14-.77.09-1c.45-.49.8-.23.94.09a1.19,1.19,0,0,1,.07.27c0,.23,0,.46,0,.7,0,.06.25,0,.25,0Z"/><path class="cls-2" d="M148.16,143.13c0,.62.16,1.14-.93.86a6.21,6.21,0,0,1-1.63-.81c-.39-.23-.78-.48-1.17-.7l-.26-.13c-.08,0-.64-.26-.3-.26.16,0,0-.27-.1-.27h-.15c-.1,0-.07.22,0,.25,1.56.63,2.86,2.13,4.65,2.06l0,0a4.49,4.49,0,0,0,.08-1c0-.08-.24-.1-.24-.05Z"/><path class="cls-2" d="M143.37,142a3.63,3.63,0,0,1-1-.5,1.26,1.26,0,0,0-.74-.08c-.55.08-.37.38-.06.64a1,1,0,0,0,.2.07c.41.1.39.29.37.56s.25.45.42.52c.5.2.93-.23,1.21-.6,0-.05-.19-.12-.24-.06a2.14,2.14,0,0,1-.52.52c-.42.28-.63-.25-.6-.56s-.24-.4-.45-.45a.63.63,0,0,1-.46-.33c0-.19.17-.26.39-.23a1.13,1.13,0,0,1,.66.24,2,2,0,0,0,.79.36c.14,0,.16-.08,0-.1Z"/><path class="cls-2" d="M143.32,143.1a5.52,5.52,0,0,0,1.21.8l.58.37a1.39,1.39,0,0,1,.32.32.45.45,0,0,1,.09.28c-.1.11-.09.2,0,.26s-.27-.06-.24,0v0s.09,0,.12,0c.52,0,.32-.61.1-.84a5.75,5.75,0,0,0-.83-.56,5.8,5.8,0,0,1-1.13-.74c-.05-.06-.28,0-.24,0Z"/><path class="cls-2" d="M144.94,145.17c-.56.21-1.18-.31-1.43.54-.16.57.38.89.87,1s1-.21.91-.74-.45-.65-.76-.36c0,0,.19.08.24,0s.27.33.27.33a.52.52,0,0,1-.19.53c-.39.33-1,0-1.12-.48s.44-.73.84-.67a1.15,1.15,0,0,0,.55-.07c.12,0-.12-.09-.18-.07Z"/><path class="cls-2" d="M145.36,146a12.24,12.24,0,0,1,2.76.32c.55.14,1.39.41,1.31,1.12,0,.25-.45.53-.59.74s.2.12.24.06c.2-.32.56-.51.61-.91s-.38-.67-.65-.79a9.12,9.12,0,0,0-3.73-.65c-.17,0-.06.11.05.11Z"/><path class="cls-2" d="M148.8,148.35a2.52,2.52,0,0,0-1.64-.21.79.79,0,0,0-.54.43c-.11.23-.09.74.16.89.54.31,1-.61,1.44-.35.16.1.32.25.53.2.4-.09.29-.58.18-.85,0-.06-.27-.07-.24,0s.2,1-.21.67a1.05,1.05,0,0,0-.4-.19c-.28,0-.52.2-.73.34-.66.41-.66-.65-.24-.94a1.73,1.73,0,0,1,1.56.09c.06,0,.28,0,.13-.07Z"/><path class="cls-2" d="M149.22,148.81a7.88,7.88,0,0,1,2.2.38c.11,0,.24-.06.07-.1a8.87,8.87,0,0,0-2.33-.38c-.17,0,0,.11.06.1Z"/><path class="cls-2" d="M152.7,150c1.22,1.31,2.72,1.06,4.45,1.08a17.54,17.54,0,0,0,2.9,0c.58-.08,1-.89,1.42-1.18.07-.05-.17-.08-.22,0a4.48,4.48,0,0,1-2.8,1.18c-1.72,0-4.22.36-5.51-1-.05,0-.28,0-.24,0Z"/><path class="cls-2" d="M162.53,145.69l-.06.07c-.06.07.17.11.21.1a6.65,6.65,0,0,1,1.08.09,3.7,3.7,0,0,0,.88-.09c.85-.17,1.63-.58,2.48-.75.09,0-.12-.12-.19-.11a20.69,20.69,0,0,0-2.2.67,4.43,4.43,0,0,1-1.95.09.72.72,0,0,0-.29,0l.2.11.06-.07c.06-.06-.17-.15-.22-.1Z"/><path class="cls-2" d="M167.21,145c-.34.3-.42,1.06.14,1.15.24,0,.44-.14.61-.28a2.28,2.28,0,0,1,1-.32c.57-.14.3-.48-.1-.67a1.72,1.72,0,0,0-1.61.42s.18.12.24.07c.37-.33,1.21-.7,1.57-.16.15.22-.57.31-.68.33a1.23,1.23,0,0,0-.62.27c-.28.22-.53.28-.53-.18a.8.8,0,0,1,.26-.57s-.18-.11-.24-.06Z"/><path class="cls-2" d="M166.7,145.85a7.16,7.16,0,0,0-2,.92c-.59.49.37.68.68.75.1,0,.24-.05.07-.09s-.68,0-.67-.39.45-.42.63-.52a16,16,0,0,1,1.55-.59c.08,0-.15-.11-.21-.08Z"/><path class="cls-2" d="M165.71,147.52c-.48.23-.36.76,0,1a.91.91,0,0,0,1.1-.18c.8-.8-1-1.77-1.44-.6,0,0,.22.09.25,0a.59.59,0,0,1,1-.23.6.6,0,0,1,0,.69c-.45.79-1.54-.27-.73-.67.08,0-.15-.09-.21-.06Z"/><path class="cls-2" d="M162.75,149.31a7.4,7.4,0,0,1,1-.48c.37-.16,1.15-.52,1.53-.27.05,0,.29,0,.21-.05-.36-.25-.9-.08-1.29,0a6.25,6.25,0,0,0-1.65.73c-.07,0,.17.08.22,0Z"/><path class="cls-2" d="M155.94,151.5c-.07.59.28,1.23-.15,1.75a7.8,7.8,0,0,1-1.32,1,3.14,3.14,0,0,0-1.48,2.51s.08,0,.1,0h.23c.11,0,.22-.1.05-.1-.65,0,.61-1.8.69-1.88a9.33,9.33,0,0,1,1.3-1.05,2.34,2.34,0,0,0,.88-.86c.17-.41-.1-1-.05-1.46,0-.06-.24-.05-.25,0Z"/><path class="cls-2" d="M157.61,151.84c0,1,.26,1.73-.6,2.41a3.48,3.48,0,0,0-1.67,2.28c0,.07.24.11.25,0,.1-1.14,1-1.78,1.87-2.43s.41-1.52.39-2.26c0-.08-.25-.1-.24,0Z"/><path class="cls-2" d="M157.79,154.09a20.71,20.71,0,0,1,3.16,1.58c.06,0,.29,0,.21-.06A22.06,22.06,0,0,0,158,154c-.06,0-.3,0-.18.07Z"/><path class="cls-2" d="M156.94,155.6c.72.46,1.51.77,2.19,1.28.06,0,.29,0,.22-.06-.69-.51-1.48-.83-2.19-1.29-.06,0-.3,0-.22.07Z"/><path class="cls-2" d="M158.53,152.37c1.17.09,2.83.77,3.92,0a6.19,6.19,0,0,0,1.33-1.42,2.15,2.15,0,0,1,1.66-.87c.66-.06,2.08,0,1.33.83-.06.06.17.15.22.1s.69-.54.69-.76c0-.05-.07-.08-.11-.09a4.56,4.56,0,0,0-3.11,0,6.1,6.1,0,0,0-1.63,1.65c-1.13,1.37-2.91.6-4.39.49-.16,0,0,.12.09.12Z"/><path class="cls-2" d="M162.87,152.74c1.37,0,2.42-1,3.7-1.4l1-.17a1.81,1.81,0,0,1,1.28.22,4.13,4.13,0,0,0-.55.47c-.22.2-.57.46-.62.76,0,.06.23.07.25,0,.09-.49.86-1,1.27-1.26,0,0,0-.06-.05-.06a4.76,4.76,0,0,0-2.34-.12c-1.3.33-2.6,1.45-3.92,1.47-.15,0-.15.1,0,.1Z"/><path class="cls-2" d="M163.59,154a3.9,3.9,0,0,0,1.92,0,19,19,0,0,1,2.68-.55,14.84,14.84,0,0,0-2,.92c-1.54.73-4.26-1-5.87-1.46a11.23,11.23,0,0,0-2.18-.61c-.15,0-.15.09,0,.1a14.52,14.52,0,0,1,2.7.77c1.19.33,2.22,1.43,3.42,1.59,1.75.22,3.08-.93,4.7-1.39.11,0-.05-.09-.09-.09-1.76-.11-3.5.84-5.18.61-.1,0-.24.07-.07.09Z"/><path class="cls-2" d="M158.38,153.27a2.83,2.83,0,0,1,2.1,1.26c.05.06.28,0,.24-.05a3,3,0,0,0-2.28-1.31c-.11,0-.23.09-.06.1Z"/><path class="cls-2" d="M155.62,153c-1.12.34-2.68.63-3.38,1.69,0,.06.2.08.24,0,.68-1,2.18-1.3,3.28-1.63.15,0-.06-.11-.14-.08Z"/><path class="cls-2" d="M169.26,150.91c0-.24.4-.63.53-.78a3.37,3.37,0,0,1,.75-.71c.05,0-.15-.15-.22-.11a3.66,3.66,0,0,0-.82.8c-.13.16-.51.51-.47.74,0,.07.25.13.23.06Z"/><path class="cls-2" d="M169.25,150.92s0,0,0,.05.18.12.23.09a4.32,4.32,0,0,0,.51-.45,5.46,5.46,0,0,0,1-.83s-.2-.14-.24-.07a2.19,2.19,0,0,1-.49.47,4,4,0,0,1-.58.43c-.15.06-.25.26-.39.35l.23.09a.09.09,0,0,1,0-.06c0-.05-.2-.14-.24-.07Z"/><path class="cls-2" d="M169.65,150.19a3.89,3.89,0,0,1-.08-.83c0-.07-.25-.06-.25,0a3.83,3.83,0,0,0,.08.83c0,.08.26.05.25,0Z"/><path class="cls-2" d="M170,149.53a1.32,1.32,0,0,1-.08-.52c0-.08-.24-.11-.24,0a1.46,1.46,0,0,0,.07.55c0,.07.27.08.25,0Z"/><path class="cls-2" d="M169.79,148.93c.16-.23.32-.7.07-.93a.8.8,0,0,0-.91,0,.57.57,0,0,0-.07.87,1,1,0,0,0,1,.21c.13,0-.11-.09-.17-.08-.59.18-1.06-.56-.58-.94.65-.5.6.52.39.81,0,.06.2.1.24,0Z"/><path class="cls-2" d="M169.87,150.82a2.34,2.34,0,0,0,1,.63c.07,0,.28,0,.12-.08a2.38,2.38,0,0,1-.94-.59c0-.05-.28,0-.21,0Z"/><path class="cls-2" d="M170.11,150.54a2.19,2.19,0,0,1,1.11,1c0,.07.27,0,.24,0a2.37,2.37,0,0,0-1.17-1.08c-.06,0-.3,0-.18.08Z"/><path class="cls-2" d="M171.07,151.52c-.49,1,1.46,1,1.34.27-.07-.44-1.21-.85-1.27-.27,0,.08.23.13.24.07.05-.42.67-.18.78.1.2.54-1.25.71-.85-.1,0-.05-.21-.14-.24-.07Z"/><path class="cls-2" d="M170.54,149.33a2,2,0,0,0,.91-1.5,2.28,2.28,0,0,1,1-1.74c.84-.62,1.94-1,2.08-2.14l-.24-.06a10.9,10.9,0,0,0,.08,2c0,.07.25.11.24,0a10.58,10.58,0,0,1-.08-2c0-.07-.23-.12-.24-.06-.14,1.13-1.22,1.55-2.06,2.12a2.19,2.19,0,0,0-.87,1.08,4.25,4.25,0,0,0-.15,1,1.85,1.85,0,0,1-.84,1.15s.16.13.22.08Z"/><path class="cls-2" d="M174.62,145.67a2.87,2.87,0,0,1,.95-.45,2.52,2.52,0,0,0,.87-.53h-.24a2.62,2.62,0,0,1,.16,1.72c0,.08.22.06.24,0a2.63,2.63,0,0,0-.15-1.75c0-.07-.19,0-.23,0a3.16,3.16,0,0,1-1.12.62,1.87,1.87,0,0,0-.7.36c-.06.08.18.07.22,0Z"/><path class="cls-2" d="M171.18,150c1.28-.4,2.72,0,3.91-.81a4.61,4.61,0,0,0,1.89-3c0-.07-.22-.05-.25,0a9,9,0,0,1-4.17,3.3c-.16.05.05.1.13.08a.91.91,0,0,0,.34-.17c.08-.06-.16-.08-.21,0s.15.13.24.09a6.31,6.31,0,0,0,.66-.29,7.77,7.77,0,0,0,1.24-.81,11,11,0,0,0,2-2.13h-.25A4.7,4.7,0,0,1,175.1,149c-1.18.91-2.72.51-4,.92-.16,0,0,.1.13.08Z"/><path class="cls-2" d="M172.11,148.51c.34.07.77-.62.95-.81.51-.57,1-1.14,1.5-1.73,0-.05-.2-.07-.24,0-.35.43-.72.84-1.08,1.26s-.48.54-.73.8a3.07,3.07,0,0,1-.25.26c-.14.14-.2.1,0,.13-.08,0-.28.06-.12.1Z"/><path class="cls-2" d="M177.66,144a5.07,5.07,0,0,0,0-2,4.17,4.17,0,0,1,1.32-4.84c.7-.64.48.56.77,1,0,.06.28,0,.24-.06a2.89,2.89,0,0,1-.3-1.42c0-.07-.19,0-.22,0a5,5,0,0,0-2.26,2.92,3.74,3.74,0,0,0,.08,2.07,6.63,6.63,0,0,1,.11,2.39c0,.06.24,0,.25,0Z"/><path class="cls-2" d="M181.52,139c0-.31.4-2.7-.59-2.22a2.41,2.41,0,0,0-1,1.39c-.55,1.44-1.13,2.86-1.66,4.31,0,.07.21.08.24,0,.55-1.5,1.15-3,1.72-4.47.11-.3,1-1.61,1.13-.63a10.85,10.85,0,0,1-.07,1.61c0,.07.24.07.25,0Z"/><path class="cls-2" d="M179.47,142.26a8.72,8.72,0,0,1,1.46-2.34c.58-.85,1.69-1.09,2.17-2,0-.07-.2-.06-.24,0-1,1.06-1,2.56-1.71,3.78a4.15,4.15,0,0,1-2.89,1.57.8.8,0,0,0-.7.64s.23.07.25,0c.14-.61,1.37-.71,1.88-.89a3.43,3.43,0,0,0,1.31-.82c.86-.92,1-2.14,1.43-3.27a3.67,3.67,0,0,1,.46-.76c0,.07-.64.4-.84.53a6.32,6.32,0,0,0-1.17.95c-.4.43-.62,1-1,1.46a3.09,3.09,0,0,0-.68,1.14c0,.06.24.08.25,0Z"/><path class="cls-2" d="M176.67,145.18c.36-.32.61-.74,1-1.06,0-.05-.17-.14-.23-.09-.36.32-.61.74-1,1.06-.05,0,.17.14.23.09Z"/><path class="cls-2" d="M177.28,144c-.23-.24-.4-.55-.64-.78s-.07-.65-.15-1-.47-.43-.79-.29a.62.62,0,0,0-.13,1.09c.21.19.46.33.66.53a4,4,0,0,1,.58,1.27c0,.08.27,0,.25,0a4.19,4.19,0,0,0-.66-1.36c-.27-.29-.72-.42-.87-.82-.09-.25.33-.83.61-.57s0,.55.05.83.12.34.32.53.34.47.53.68c.05.05.28,0,.24-.06Z"/><path class="cls-2" d="M177.59,144.32c.44.24,2.1-.15,2.14.41a.8.8,0,0,1-.46.67c-.21.12-.56.17-.68-.11a2.48,2.48,0,0,0-.17-.37c-.24-.36-.9-.23-1.24-.22-.16,0,0,.11.11.11l.52,0c.45,0,.46.29.58.57a.54.54,0,0,0,.47.29,1.05,1.05,0,0,0,1.11-.81c.18-.83-1.87-.38-2.19-.56-.05,0-.3,0-.19,0Z"/><path class="cls-2" d="M181.33,135.33a1.22,1.22,0,0,1-.75-.69,1.72,1.72,0,0,0-.33-.55.82.82,0,0,0-1-.07c-.46.22-.28.78.07,1a1.94,1.94,0,0,0,.61.22,1.68,1.68,0,0,1,1.25.66s.28.1.23,0a1.64,1.64,0,0,0-.85-.66c-.46-.13-1.61-.18-1.31-.92a.54.54,0,0,1,.92-.06c.11.18.18.38.29.56a1.41,1.41,0,0,0,.82.59c.14,0,.17,0,0-.1Z"/><path class="cls-2" d="M181.8,135.58a2,2,0,0,0,.72-.09,6.9,6.9,0,0,0,.67-.43c.24-.11.5-.18.56.16a1.08,1.08,0,0,1,0,.4c-.05.32-.35.34-.6.31-.52-.06-1.66-.56-1.81.27,0,.07.24.1.25,0,.17-1,1.8.31,2.33-.39.21-.28.14-1-.27-1a1.21,1.21,0,0,0-.67.14,2.76,2.76,0,0,0-.5.34,1.27,1.27,0,0,1-.74.15c-.17,0-.05.1.06.1Z"/><path class="cls-2" d="M181.43,136.48a3.39,3.39,0,0,0,.47-1.92c-.14-.83-1.11-1.34-1.38-2.15s.23-1.45.19-2.16a1.8,1.8,0,0,0-.14-.76c.42.61.89.89.93,1.71,0,.07.24.13.24.05a2.47,2.47,0,0,0-1.44-2.1s-.21-.06-.15,0c.74,1.08-.17,2.29.22,3.45a3.75,3.75,0,0,0,.89,1.17c.8.9.29,1.7-.06,2.61,0,.06.21.15.23.08Z"/><path class="cls-2" d="M181.82,133.33c0-1.08-.29-1.9.11-3a16.29,16.29,0,0,0,.95-2.39l-.25,0a5.55,5.55,0,0,1,.68,2.33c0,.07.25.06.25,0a5.65,5.65,0,0,0-.69-2.36c0-.06-.23,0-.24,0a18.1,18.1,0,0,1-1.06,2.67c-.33.9,0,1.78,0,2.7,0,.06.25.06.25,0Z"/><path class="cls-2" d="M182.5,133.74a11.15,11.15,0,0,1,1-1.48,3.18,3.18,0,0,0,.3-1.53c.05-.64-.37-1.91.38-.73a3,3,0,0,1,.41,2c-.21,1.57-2.78,1.53-2.92,3.24,0,.08.24.12.24.06.11-1.32,1.65-1.72,2.49-2.5,1.12-1,.09-2.7-.61-3.66,0,0-.23-.09-.23,0a19.41,19.41,0,0,1-.08,2.41c-.1.86-.86,1.43-1.21,2.2,0,.06.21.13.25.05Z"/><path class="cls-2" d="M155.58,152.32c-.17-.36-.19-.48-.65-.55-1.23-.19-2.25.29-3.44-.6,0,0-.23-.09-.23,0-.09,1.07-.44.17-.92-.11a1.86,1.86,0,0,0-1.3-.45s-.14,0-.12.05c.32,1.49-.91.53-1.6.06,0,0-.23-.07-.22,0,.1,1.57-1.22.52-2.25.42,0,0-.11,0-.09,0,.17.62-1.12,1.12-1.43,1.57,0,0,.11.08.14.08l.76.55c0,.06.16.06.2,0,.73-.15,2.25-.66.65.36-.07.05.06.09.09.1a4.64,4.64,0,0,0,2-.12,1.8,1.8,0,0,0,.79-.51c-.36.31-.8.92-1.19,1.3,0,0,.1.08.11.08a4.13,4.13,0,0,0,1.75,0,1.21,1.21,0,0,0,.47-.23,3.51,3.51,0,0,0,.77-.72,1.13,1.13,0,0,1-.37,1.17c-.05.06.14.09.17.09.9-.08,5-3.62,5.88-2.47,0,.06.28.06.22,0-.74-.94-1.73-.15-2.55.37-.34.21-1.32.13-1.53.36s-2.29,2.16-1.36.94c.27-.35,0-.63-.07-1,0-.06-.2-.09-.24,0l-.38.51a1.78,1.78,0,0,1-2.22.58c.55-.55.64-.56.73-1.34,0-.07-.22-.1-.25,0l-2.25.79a2.91,2.91,0,0,0,.42-.25c.35-.45.28-.2.19-.8,0-.08-.19-.09-.24-.05-1,.74-3.17.33-1.47-.49.07,0,.58-.28.52-.49-.14-.49,1.68.54,1.63.52.42.1.75.25.79-.29,0-.76,1.07.32,1.78.43,0,0,.1,0,.13,0,.25-.37-.07-.86-.21-1.23-.06-.16,1.55,1,2,1,0,0,.12,0,.13,0,.24-.83.53-.05,1,.14.83.33,2.5-.75,3,.21,0,.06.27.07.24,0Z"/><path class="cls-2" d="M144.94,150.76v-1.13c0-.08-.38-.1-.43-.1-.72,0-.81-.61-.27-.71,0,0,0,0,0,0s-.22-.32-.3-.49.14-.75.4-.22a1.89,1.89,0,0,1,0,.58c0,.08.15.1.21.09a2.36,2.36,0,0,1,.65-.07l-.19-.08c.07.47-.55.45-.67.89a4.83,4.83,0,0,0,.05,1.07,1.43,1.43,0,0,0,.09.68c0,.07.26.1.23.05a4,4,0,0,1,0-2c.27-.27.62-.13.54-.64,0-.06-.14-.08-.19-.08a2.74,2.74,0,0,0-.7.08l.22.09c0-.44.08-.82-.44-.92s-.57.18-.4.55.15.27-.07.45a.33.33,0,0,0-.1.46.7.7,0,0,0,.74.39c-.07,0-.34-.06-.34-.09v1.13a2.42,2.42,0,0,0,1,.07Z"/><path class="cls-2" d="M144.05,150.69l-.49.19c-.35.11-.45-.14-.58-.35a.72.72,0,0,0-.62-.32c-.5,0-.46.42-.33.76l.12-.07c-.48.1-1-.07-1.26.43-.2.35.46.54.67.5s.63-.31.7.07c0,.15.15.19.29.2.41,0,.53-.14.49-.49,0,0-.1.21-.15.21h.05s-.16-.18-.15-.12,0,0,0,.06c0,.26-.07.28-.3.15a1,1,0,0,0-.06-.23.42.42,0,0,0-.39-.17.71.71,0,0,0-.35.16c-.36.24-1.19-.57-.08-.62a3.39,3.39,0,0,0,.54-.05s.13,0,.11-.07-.08-.23-.11-.36c-.07-.39.43-.17.58,0s.17.31.36.4.79-.14,1.08-.24-.07-.09-.14-.07Z"/><path class="cls-2" d="M144.19,150.62c-1.43-.86-.71-1.8-1.23-3a.22.22,0,0,0-.24-.06c-.36.29-.51.81-.58-.15a3.86,3.86,0,0,0-.09-.84,2.52,2.52,0,0,0-1-1.39s-.19-.09-.21,0c-.21.61-.47,1.3-.65.28a2.31,2.31,0,0,0-.48-1.38s-.22-.11-.23,0-.17,1.47-.75.47a2.7,2.7,0,0,0-.46-.74s-.2-.1-.23,0a4,4,0,0,0-.15,1.29c0,.08.24.12.24.06a6.86,6.86,0,0,1,.07-1,7.24,7.24,0,0,1,.46.68.87.87,0,0,0,.61.35c.21,0,.27-.22.32-.37.22-.64.27,0,.32.37a4,4,0,0,0,.32,1.22.2.2,0,0,0,.24,0c.29-.24.47-1.11.88-.71.68.7.47,1.69.7,2.55,0,.06.18.09.23.05s.49-.56.58-.36c.2.44,0,1,.09,1.44a2,2,0,0,0,1.11,1.33c.07,0,.28,0,.14-.06Z"/><path class="cls-2" d="M137.59,145.23c-.14,0-.6.08-.38.32a4.36,4.36,0,0,0,.88.65c.19.12.37.24.54.37a9.34,9.34,0,0,0-1.53,0s-.13,0-.13,0a1,1,0,0,0,.77,1.11,9.49,9.49,0,0,0,1.18.24c1,.14-.22.43-.6.5-.75.14-.44.78-.07,1.12a1.41,1.41,0,0,0,.77.31c.27,0,1.83-.34,1.43.18,0,0,0,0,0,0,.86.49,1.91-.12,2.87.38.06,0,.3,0,.18,0a2.86,2.86,0,0,0-1.29-.4c-.41,0-1.36.34-1.34-.35,0,0,0,0,0,0a1.69,1.69,0,0,0-1.15,0c-2.62.54-1.47-1.13-.4-1.21a1,1,0,0,0,.61-.31s0,0,0-.06a4.26,4.26,0,0,0-1.37-.3c-.58-.1-1.25-.26-1.34-.94,0-.23,1.43-.1,1.67-.11,0,0,.13,0,.08-.07a3.18,3.18,0,0,0-.63-.46s-1.19-.8-.66-.84c.17,0,0-.1-.06-.1Z"/><path class="cls-2" d="M138.05,144.6a3,3,0,0,1-.29-1.28c0-.18,0-.44.23-.44a.25.25,0,0,0,.17,0,.36.36,0,0,0,0-.54.8.8,0,0,0-.25-.11c-.18,0-.08-.1-.09-.26,0-.35-.52-.46-.78-.33a.39.39,0,0,0-.09.5,1.07,1.07,0,0,0,.75.29c.15,0,.16-.1,0-.1-.36,0-.69-.2-.5-.57.17-.05.29,0,.34.12a.33.33,0,0,1,0,.32s.06.06.09.07c.43.09.62.52.12.56-.16,0-.16.13-.18.26a2.65,2.65,0,0,0,.27,1.56c0,.06.28,0,.25,0Z"/><path class="cls-2" d="M137.11,142.21a1.77,1.77,0,0,0-.52-.09.07.07,0,0,0-.07,0c-.51.9,1.08.78,1.55.77.13,0-.08-.12-.14-.12-.24,0-.48,0-.71,0s-.48,0-.57-.21.24-.36.43-.29.17-.05,0-.1Z"/><path class="cls-2" d="M136.89,143a3.32,3.32,0,0,0,.39,1.83c0,.06.28,0,.24-.05a3.26,3.26,0,0,1-.38-1.8c0-.07-.25-.06-.25,0Z"/><path class="cls-2" d="M142,150.79c0,.29.13.55.15.83,0,.08.25.09.25,0,0-.28-.13-.54-.15-.83,0-.08-.26-.08-.25,0Z"/><path class="cls-2" d="M142.71,151a2.4,2.4,0,0,1,.16,1c0,.06.24,0,.24-.05a2.34,2.34,0,0,0-.15-1c0-.07-.27,0-.25,0Z"/><path class="cls-2" d="M135.78,144.33c.38.19.82.12,1.21.31.06,0,.29,0,.21-.07-.38-.19-.84-.12-1.21-.3-.06,0-.29,0-.21.06Z"/><path class="cls-2" d="M135.8,145a8.49,8.49,0,0,0,1.88-.08c.16,0,0-.11-.11-.1a8.59,8.59,0,0,1-1.75.08c-.15,0-.17.07,0,.1Z"/><path class="cls-2" d="M136,144.3c-.2-.48-.42-.77-.95-.8,0,0-.12,0-.13,0-.11.41-.58,1.65.1,1.78s.74-.8.75-1.24c0-.07-.25-.08-.25,0s-.27,1.48-.54,1.1.09-1.24.19-1.61l-.13,0c.44,0,.57.37.71.71,0,.07.27.07.25,0Z"/><path class="cls-2" d="M134.71,144.29a1.27,1.27,0,0,0-.82-.27s-.08,0-.09,0c-.36.6.49.67.9.68.17,0,.05-.1,0-.1a2.85,2.85,0,0,1-.42,0c-.56-.11-.2-.67.26-.28,0,.05.29,0,.22,0Z"/><path class="cls-2" d="M137,143.85c-.47-.63-1-1-.91-1.86,0-.68.4-1.27.38-2,0-.07-.18-.09-.23-.06-.45.33-.38.86-.36.22a3.35,3.35,0,0,0-.39-2.07c-.27-.37-.69-.22-.9.09a3,3,0,0,0-.21.52c-.31.88-.17.2-.13-.35,0-.26-.06-.74-.35-.85a.35.35,0,0,0-.3,0,1.65,1.65,0,0,0-.31.34c-.42.52-.73-1-.6-1.36,0-.05-.22-.11-.25,0-.29.72.11,1.12.46,1.75a.18.18,0,0,0,.22,0,2.17,2.17,0,0,0,.56-.53.94.94,0,0,1,.3,1,1.12,1.12,0,0,0,.13.74c0,.06.22.08.25,0s.55-1.85,1.05-1.14.22,1.76.21,2.47c0,.07.22.09.25,0,.59-1.25.24.13.18.34a4.32,4.32,0,0,0-.22,1.18c0,.6.62,1.07.93,1.48,0,.07.27.06.24,0Z"/><path class="cls-2" d="M132.06,137.28c-.11.21-.2.42-.31.63,0,0-.24,0-.22.05.29,1.06-1.07.21-.76,1.14.14.41.79.49,1.14.57.09,0,1.43.36.6.36a1.87,1.87,0,0,0-.93.15s-.07,0-.05.07a1.77,1.77,0,0,0,1.38.75c.2,0,2,.47.73.77a3.93,3.93,0,0,0-.87.31s-.05,0,0,.06a2.29,2.29,0,0,0,1.47.6c1.22.2,1.62,1.35,2.72,1.68.06,0,.3,0,.17-.09-.9-.27-1.26-1.32-2.14-1.55-.42-.11-.84-.16-1.26-.25-1-.21.78-.9.82-.91s.07,0,0-.07a2.4,2.4,0,0,0-1.49-.64c-.37-.07-2.07-.74-.63-.78a2.71,2.71,0,0,0,.9-.09s.13,0,.07-.08a3.4,3.4,0,0,0-1-.32,5.87,5.87,0,0,1-1.09-.3l.41-.67h.23s.18,0,.14-.08c-.37-.59-.45-.45-.14-.45,0,0,.13,0,.14-.05a3.18,3.18,0,0,0,.23-.84c0-.06-.23-.06-.24,0Z"/><path class="cls-2" d="M132.76,136.05a1.1,1.1,0,0,1,.49-1c.12-.06-.12-.09-.18-.06a1.22,1.22,0,0,0-.56,1.1c0,.07.25.06.25,0Z"/><path class="cls-2" d="M132.82,134.49c.32.29,1.18.8,1.43.18.31-.78-.95-.89-1.4-.77,0,0,0,0,0,0a3.29,3.29,0,0,0,.16.77c0,.07.26.07.24,0s-.29-.7,0-.75a.69.69,0,0,1,.85.48c.1.67-.73.27-1,0-.05-.05-.29,0-.23,0Z"/><path class="cls-2" d="M133.65,133.68c.12-.18.39-.57.51-.2s-.07.58-.38.49c-.15,0-.17.06,0,.1.44.12.77-.15.62-.62s-.77-.12-1,.15c0,.07.2.14.23.08Z"/><path class="cls-2" d="M131.08,135.37c.07.42.62.77.93,1,.05,0,.29,0,.19,0-.29-.22-.81-.57-.88-1,0-.07-.26-.1-.24,0Z"/><path class="cls-2" d="M131.09,135.49c.71-.46-.33-1.71-.86-.79-.43.76.56,1.6,1.08.72,0-.07-.2-.13-.23-.08-.12.21-.34.54-.55.23a.85.85,0,0,1-.11-.64c.05-.35.45-.58.61-.17a.54.54,0,0,1-.18.66s.17.11.24.07Z"/><path class="cls-2" d="M130.33,134.69a.45.45,0,0,0-.74-.13c-.47.37.23.61.52.64.1,0,.23-.08.06-.09s-.56-.1-.45-.38a.19.19,0,0,1,.37,0c0,.07.27,0,.24,0Z"/><path class="cls-2" d="M132.29,136c.38-.31.13-.82,0-1.23a1.54,1.54,0,0,1,.06-1.36c.09-.15.1-.14,0-.25s-.16,0-.21,0a2,2,0,0,0,1.18-1.54s0,0-.06,0a1.68,1.68,0,0,0-.47-.08h-.06c-.93.31,0-.47.21-.61s1.2-.86.7-1.2a1,1,0,0,0-.86,0c-.28.07.44-.83.46-.86.24-.28.05-.57-.1-.81a.45.45,0,0,0-.41-.11,1.38,1.38,0,0,0-.65.52c-.25.3-.31.12-.65,0a.39.39,0,0,0-.4.14,2,2,0,0,0-.08,1.17c0,.33-.79-.11-.94-.14a.17.17,0,0,0-.18,0c-.26.26-.19.4-.08.77s.82,1.43.28,1.23a1.85,1.85,0,0,0-1-.14c-.46.09.21.84.28.9.48.47,1,.69,1.39,1.3s1.1,1.19,1.22,1.7c0,.07.26.05.25,0-.08-.3-.06-.41-.3-.64a16.47,16.47,0,0,1-1.31-1.61,15.74,15.74,0,0,0-1.27-1c-.54-.52,1-.26,1.1-.24s.21,0,.19-.05c-.17-.6-.51-1.11-.68-1.71-.09-.29.82,0,1,0s.17-.05.27-.13-.13-1.83.64-1.07c0,0,.2.06.24,0s.19-.28.29-.41c.7.07.87.25.52.54s-.46.42-.37.84c0,.07.17.05.21,0,1.64-.67.14.93-.22,1.21a1.3,1.3,0,0,0-.52.8c0,.06.19,0,.21,0,.37-.32.6-.2.7.36a2.18,2.18,0,0,1-1,1c-.08,0,.15.07.19.06-.83.29.56,2.17,0,2.66-.07.06.17.09.22,0Z"/><path class="cls-2" d="M156.1,107.16a2,2,0,0,0-1.74.65c-.32.34-.77,1.2-.44,1.67a1.56,1.56,0,0,0,1,.63c1.06.21,2,.07,2.85,1,.67.71.27,1.53,0,2.27,0,.06.21.14.24.07.44-1.16.51-2.42-.85-3a6,6,0,0,0-1.62-.39c-2.74-.31-.93-2.89.69-2.81.17,0,0-.12-.09-.12Z"/><path class="cls-2" d="M159.38,112.47c.37.06.66.55.74.88,0,.07.26.09.24,0a1.37,1.37,0,0,0-1-1c-.15,0-.17.07,0,.1Z"/><path class="cls-2" d="M159.38,114.05a2.49,2.49,0,0,1,.91,1.59c0,.06.24.13.24,0a2.63,2.63,0,0,0-1-1.66s-.29-.08-.19,0Z"/><path class="cls-2" d="M159.31,116a1.11,1.11,0,0,1,.55,1c0,.08.25.12.25.06a1.25,1.25,0,0,0-.65-1.16c-.07,0-.29,0-.15,0Z"/></svg>