<svg id="layer1" xmlns="http://www.w3.org/2000/svg" viewBox="0 0 204.41 229.54"><defs><style>.cls-1{fill:#31af7f;}.cls-2{fill:#492d0c;}</style></defs><path class="cls-1" d="M160.2,186.68c-1.47-2.43-3-4.82-4.57-7.19a3.46,3.46,0,0,0,0-1.86c-3-11.2-9.28-20.64-18-26.41a22.58,22.58,0,0,0-1.49-3.5l3.77-3.77c2.94-2.94-.77-7.16-4.24-5.49l-.91.43a3.09,3.09,0,0,0-4-.43c-2.06,1.36-4.06,2.68-6,4,.19-1.35.38-2.71.56-4.06,1.75-4.18,3.32-8.43,5.29-12.51,1.67-3.48-2.56-7.18-5.5-4.24-1.14,1.14-2.35,2.15-3.39,3.25-1.32-2.24-2.54-4.53-3.74-6.84a66.71,66.71,0,0,0-17.59-31c-2.54-2.6-6.6.08-5.85,3.4q.66,2.85,1.38,5.68c-2.34-3.45-4.79-6.82-7.32-10.13a3.52,3.52,0,0,0,0-3.19c-2.87-5.6-6.23-10.92-9.54-16.27a3.49,3.49,0,0,0-.35-1c-2.25-4.27-5.17-8.1-7.42-12.36a3,3,0,0,0-3.55-1.65c-1.3-1.92-2.58-3.71-3.86-5.63-2.41-3.62-8-.65-6.2,3.35h-.27V42.59c0-1.91-2.06-3.33-4-3.33H50.88a3.44,3.44,0,0,0-3.56,3.33V50c0,8-1.32,15.88-2,23.82a3.5,3.5,0,0,0-1.88,5.85l1.39,1.6a2.9,2.9,0,0,0,.07.87,3.35,3.35,0,0,0,3.79,3.36l1,1c.1.5.21,1,.32,1.5a3.18,3.18,0,0,0,3.48,2.48c7.87,8.21,15.67,16.59,19.4,27.16l-2.18-1.09c-3.43-5.83-8.59-10.46-11.83-16.41-2.16-4-8.14-.45-6,3.53.74,1.41,1.56,2.77,2.4,4.11a3.2,3.2,0,0,0,.07,3.31c.2.32.4.65.59,1-1.48,1.5-1.78,4,.67,5.22l3.52,1.76,17.47,29.12a3.53,3.53,0,0,0,6.3-.61,82.48,82.48,0,0,0,9.08,8.73,3.62,3.62,0,0,0,5.08-.26q3.54,3.91,7.28,7.68a3.57,3.57,0,0,0,5.47-.66l1.56,1.43a3.76,3.76,0,0,0-.16,3.47c.32.7.6,1.41.87,2.12a3.1,3.1,0,0,0-2.4.74c-1.84-1.46-3.63-3-5.33-4.63-3.25-3.14-8.15,1.75-5,5L115.15,186a3.21,3.21,0,0,0,4.1.51q4.44,2.81,9.05,5.31a19.37,19.37,0,0,0,6.59,3.41q4.43,2.16,9,4c2.12.87,4.47-1.29,4.43-3.37,0-.61,0-1.22-.08-1.81,2.84,1.43,5.59-1.52,4.84-4.15,0-.12.08-.24.12-.35.5.45,1,.89,1.51,1.36C157.54,193.66,162.3,190.14,160.2,186.68Zm-52.09-43.42c-.18-.55-.37-1.1-.56-1.64a4,4,0,0,0,.57-.6c.51.74,1,1.49,1.54,2.23A3.68,3.68,0,0,0,111,144.4c.28.39.55.79.82,1.19a3.28,3.28,0,0,0-1,.52C109.94,145.15,109,144.21,108.11,143.26Zm6.27-12.94c-.42-1.07-.83-2.14-1.24-3.21l2,2A3.76,3.76,0,0,0,114.38,130.32ZM60.79,87.14c.29.67.59,1.33.91,2l-1.48-1.58A3.73,3.73,0,0,0,60.79,87.14Z"/><path class="cls-2" d="M57.74,44.22c4.07,31.64,23.43,58.54,42.36,83.18,9.58,12.47,19.53,24.66,28.49,37.6,4.7,6.78,9.38,13.54,14.26,20.2s10,13.64,13.37,21.33c.33.74,2.23.15,1.93-.52-6.21-14-17-25.59-25.45-38.25-8.63-13-18.36-25.11-27.91-37.4C84.86,104.73,63.94,76.83,59.67,43.7c-.1-.74-2-.28-1.93.52Z"/><path class="cls-2" d="M58.45,42.18c-3.52-3.33-4.8-8-9.45-10.14-.38-.17-1.65.05-1.74.57-1.11,6.5-4.24,12.22-3.6,18.93a64.37,64.37,0,0,1,.27,12.72c-.4,4-2.55,7.47-2.81,11.52C40.65,83.23,47.23,89.22,53,92.59a44.22,44.22,0,0,0,10.9,4.19q1.77,1-1.87,1.37A35.1,35.1,0,0,1,55.24,100a36,36,0,0,1-9.72.48c-.32,0-1.92.23-1.51.82,3,4.4,9.32,2.35,11.69,7.62a13.86,13.86,0,0,0,2.84,4.55c1.74,1.77,1,2.32.06,4.52-1.57,3.69,1.22,7.54,3.43,10.23,3.7,4.48,7.56,8.82,11.66,12.94,2.79,2.81,3,6.07,3.8,9.83.61,2.77,5.17,4.9,7.46,6.14,9.14,5,20.4,6.51,30.6,7.62l.76-.91c-7.46.71-19,2.17-19.17,11.79,0,.14.28.2.36.21,1,.11,5-.3,4.19,1.71a8,8,0,0,0-.46,3.53c.12,2.13,2.47,3.49,4,4.47,2.57,1.62,4.15,2.57,7.27,2.92,5.9.66.58,5.3,1.85,8.46.63,1.58,5,2.35,6.31,2.69a54.59,54.59,0,0,0,10.66,1.21c3.11.15,6.23.15,9.34.35-2.61-.17-6.4,2-8.8,3.71-.31.22-.23.52.15.56,7.8.71,17.21-.6,23.82,4.25,5.29,3.87,8.29,10.43,12.8,15.11.37.39,2.18-.15,1.8-.71-4.29-6.42-10.16-11.68-12.17-19.37-.15-.57-2.08-.06-1.93.51,2,7.79,7.95,13.07,12.3,19.57l1.8-.71c-5.59-5.81-9-13.59-16.48-17.38-3.59-1.82-8.95-1.54-12.85-1.73-2.12-.1-4.25-.19-6.37-.33a8.62,8.62,0,0,1,3.79-2.2c1.31-.49,2.67-.89,4-1.35.34-.12,1-.71.25-.78-4.29-.38-8.61-.32-12.9-.57a48.48,48.48,0,0,1-8.82-1.28c-3-.76-5.51-1.8-4.52-5.29,1.29-4.56.56-5.28-4.34-5.83-2.36-.26-5.46-2.57-7.39-4.07-2.55-2-1.63-5-.62-7.52.09-.21-.2-.3-.35-.32-1.73-.18-5,.43-4.61-2.43.36-2.51,2.41-4.31,4.47-5.51,3.59-2.08,8.24-2.38,12.29-2.77.36,0,1.75-.81.76-.92a117,117,0,0,1-23-4.55c-5.64-1.8-13.42-4.6-14.81-10.92q-.6-2.67-1.18-5.34c-.25-1.14-2.72-3-3.52-3.8A39,39,0,0,1,69,133.46c-4-6.16-12.79-11.09-6.46-19.08.14-.18.08-.32-.11-.41-3.72-1.73-4-5-6.17-7.94-2.6-3.48-7.9-1.68-10.47-5.44l-1.51.82A40.13,40.13,0,0,0,66.71,96.9c.18-.09.67-.53.21-.64C60,94.66,53.49,92,48.32,87a18.19,18.19,0,0,1-4.91-8.72c-1.13-4.27.87-7.48,2-11.37,1.61-5.35.53-11.82,0-17.22-.57-5.95,2.73-11.63,3.71-17.41l-1.74.57c4.51,2.07,5.8,6.78,9.21,10,.43.41,2.23-.31,1.8-.72Z"/><path class="cls-2" d="M62.49,42.5c5.61,1,7.76,6.75,13.84,6.63l-.84-.82c-2,4.17-4.5,8.18-4,12.94.06.6,1,.48,1.39.32.73-.34,9.21-3.6,9.07-.55a15.5,15.5,0,0,0,1.26,5.8c1.53,4.18,4.53,7.82,7,11.44,3.47,5,3.74,13,10.45,14.39,5.54,1.15,7.59,3,9.32,8.26,1.16,3.52,2.08,7,4.06,10.22,4.61,7.37,14.6,7.25,22.12,8l-.48-1c-5,7.35-12.67,11.54-14,21-.07.47.52.69.89.64,8.94-1.19,17-6.75,25-10.55l-1.35-.68c-2.33,6.95-10.91,9.79-12.22,17.08-.07.39.34.58.64.63,6,1.08,7,9,8.59,13.81,1.87,5.6,7.18,9.24,11,13.44,2,2.18,3.34,5,5.61,6.91,1.81,1.51,3.58,1.94,3.64,4.59.1,4.78-3.17,11.28-6.51,14.61-.86.86,1,1.18,1.61.57,4-4,7.53-11.38,6.72-17.14-.3-2.12-4.41-4.15-5.63-5.54-3.64-4.18-7.14-8.32-11-12.34-5.11-5.3-4.2-13.7-9.6-18.75a6.13,6.13,0,0,0-2.83-1.39c-1.17-.22,3.33-5.57,3.81-6,3.22-3.13,6.51-5.82,8-10.22.28-.83-.81-.94-1.35-.68-7.27,3.45-14.28,7.92-22.13,10-1.88.49.64-4.72,1-5.4A23.61,23.61,0,0,1,130,127c2.59-2.72,5.3-5.18,7.43-8.31a.6.6,0,0,0-.47-1c-8.86-.84-18.37-1-22.58-10.33-2.27-5-2.35-11.7-7.58-14.74-2.17-1.26-6.84-.52-8.29-2.56-1.83-2.58-3-5.77-4.26-8.67C91,73.87,83.63,68.32,84,59.44a.65.65,0,0,0-.65-.64,19.89,19.89,0,0,0-11.31,1.62l1.4.32c-.5-4.45,2.05-8.36,3.88-12.21.27-.57-.39-.83-.84-.82-5.38.11-8.1-5.68-13.34-6.62-1-.17-2,1.18-.67,1.41Z"/></svg>