<svg id="layer1" xmlns="http://www.w3.org/2000/svg" viewBox="0 0 553.77 448.95"><defs><style>.cls-1{fill:#f7ba31;}.cls-2{fill:#d8b266;}.cls-3{fill:#c61c1c;}.cls-4{fill:#ffac06;}.cls-5{fill:#253aa5;}.cls-6{fill:#2dad42;}.cls-7{fill:#f4ab19;}.cls-8{fill:#fff;}.cls-9{fill:#492d0c;}</style></defs><path class="cls-1" d="M323.89,307.29a27,27,0,0,0,.4-18.4,3.58,3.58,0,0,0-3.4-2.52,3.19,3.19,0,0,0-1.85-1.66,3.43,3.43,0,0,0-4.28-.26,4,4,0,0,0-3.6,1.41l-.18-.15a3.71,3.71,0,0,0-2.46-3.07c-7.86-3.06-15.94-1.92-24-.61l-.07,0a40.45,40.45,0,0,0-11.51-1.13c-4.69-.27-9.35,0-13.83,1.77a2.6,2.6,0,0,0-.62.32c-1.58.34-3.16.7-4.74,1.07a38.13,38.13,0,0,0-8.24,1.25q-3.19-.19-6.42-.23a3.18,3.18,0,0,0-2.8,1.34,2.43,2.43,0,0,0-.38,0,3.61,3.61,0,0,0-4.1-1.88c-7,1.5-13.44,5.37-20.64,6.22a3.6,3.6,0,0,0-3.5,3.5c-.49,7.64.53,15.22.63,22.85,0,2.5,2.2,3.68,4.43,3.38a101.84,101.84,0,0,0,13.81-3.14,3.74,3.74,0,0,0,2.62-.75A106.15,106.15,0,0,1,244.75,313a4,4,0,0,0,3.18-2.19l.34.17c7,2.78,14.72,3.11,22.27,2.54a210.61,210.61,0,0,0,51.64,2,3.55,3.55,0,0,0,3-5.26A28.39,28.39,0,0,1,323.89,307.29Zm-51.07-.93,1.16-.3,4.29-.7c0,.1.07.19.11.29C276.55,305.92,274.69,306.17,272.82,306.36Zm28.61,2.89c.63-.1,1.27-.2,1.9-.32.31,0,.62.06.92.07a44.4,44.4,0,0,0,4.61.07l.08.15C306.44,309.27,303.93,309.28,301.43,309.25Z"/><path class="cls-1" d="M210.14,274.15a22.47,22.47,0,0,0,4.11-1.32,72.82,72.82,0,0,1,11.46-2.36,4,4,0,0,0,1.14-.31,3.33,3.33,0,0,1,.83.55c2.39,2.26,5.64.49,6-2.47.12-1.1.26-2.19.41-3.26a3.32,3.32,0,0,0,2.13-3.09,31.19,31.19,0,0,1,1.77-9.22,3,3,0,0,0-.67-3.17c.22-1.93.43-3.85.58-5.79a3.39,3.39,0,0,0,.93-.92,3.68,3.68,0,0,0,1.64,3.22,3.9,3.9,0,0,0,.87,4.57,3.52,3.52,0,0,0-1.44,4.74c-.23.12-.47.24-.7.38a3.48,3.48,0,0,0,0,6,3.27,3.27,0,0,0,.53.85c-.7,1.87,0,4.33,2.24,4.66.75.11,1.5,0,2.26.12a3.48,3.48,0,0,0,1.84.32h5.48c10.16,1,20.27-1.07,30.43-2.19,5.92-.65,11.82-.82,17.71-1.75l4.69-.73a3.48,3.48,0,0,0,2.85,2.38,3.81,3.81,0,0,0,4.71,1.49c1.05-.45,2.13-.82,3.18-1.26a3.58,3.58,0,0,0,.46-.29s0,0,.06,0a3.5,3.5,0,0,0,2.79,1.39H319a3.53,3.53,0,0,0,3.5-3.47,14.15,14.15,0,0,0-2-8.57,2.92,2.92,0,0,0-1.67-2.1A12.28,12.28,0,0,0,317,251c.07-.59.15-1.2.26-1.8a5,5,0,0,0,.17-1.25,3.34,3.34,0,0,0-2.21-3.13,17.63,17.63,0,0,0-.4-5.42c.2-.65.38-1.3.58-1.94.88-2.8-1.83-4.68-4.3-4.31-.91.14-1.66.42-2.54.64l-.34.11a3.05,3.05,0,0,0-3.17-2.14l-.54,0a3.69,3.69,0,0,0,1.2-4.31c.63-2.06-.43-4.67-3.2-4.6a117.57,117.57,0,0,0-12.42,1.35l-2.85.09c.94-2-.39-5.22-3.14-5.25-8-.08-16-1.11-23.93-.81a40.18,40.18,0,0,0,7.09-1.83,4,4,0,0,0,1.08-.59l.19-.05a3.53,3.53,0,0,0,0-6.75c-1.4-.49-2.81-.93-4.22-1.35a3.8,3.8,0,0,0,1.46-3.34c.92-.17,1.84-.37,2.76-.62,3.45-.92,3-5.32.51-6.55,3.63-1.66,1.78-7.78-2.37-6.54a10.69,10.69,0,0,1-3.07.53c-.82,0-.34.35-.59-.19a2.81,2.81,0,0,0-3.54-1.67,69.35,69.35,0,0,1,4.17-7.49l0,0c.64-.39,1.27-.79,1.9-1.25a3.78,3.78,0,0,0,1.59-3.58l.31-.22a3.54,3.54,0,0,0,.43-5.63,3.58,3.58,0,0,0-1.69-3c-.55-.31-1.08-.61-1.62-.89,1-.43,1.93-.86,2.88-1.31,2.74-1.31,2-5.29-.53-6.29,2.07-1.84.82-4.73-1.33-5.66l0,0a3.48,3.48,0,0,0,0-5,18.23,18.23,0,0,0-1.55-1.15,3.55,3.55,0,0,0,.41-3.18q.86-.47,1.71-1a3.47,3.47,0,0,0,.51-5.59,3.76,3.76,0,0,0-.24-4.2,3.55,3.55,0,0,0,.16-1.51,3,3,0,0,0,1.73-2,3.66,3.66,0,0,0,1.78-4.73l.3,0c4.45-.64,2.55-7.38-1.86-6.75l-5.68.81a3.26,3.26,0,0,0-1.64-.3,28.67,28.67,0,0,0-7.28,1.39,3.45,3.45,0,0,0-2.26,2.2c-1.34-2.67-6-3.22-6.53.47a4.41,4.41,0,0,0-.12,1.15h.12c-1.91,10.75-1.25,22.06-2.39,33.06a3.86,3.86,0,0,0-2.29,1.54c-3.56,5.39-3.79,12-3.73,18.34a66.62,66.62,0,0,0-1.22,14.56,34.7,34.7,0,0,0-1.65,5.63,3.48,3.48,0,0,0-4.59,2.29c-2.11,7.88-3.3,15.94-4.65,24a58.82,58.82,0,0,0-2.43,12.94,3.43,3.43,0,0,0-2.72,1.61c-4.64,7.19-5.44,15.65-6.19,24a2.79,2.79,0,0,0,1.46,2.91c-2.19.55-4.36,1.19-6.51,2A3.5,3.5,0,0,0,210.14,274.15Zm96.78-25.84a14.54,14.54,0,0,0,.46,2.93,2.59,2.59,0,0,0-.19.64c-.79-.79-1.57-1.6-2.32-2.43A3.41,3.41,0,0,0,306.92,248.31Zm-14.76-6a3.44,3.44,0,0,0,2.72,1.42,3.62,3.62,0,0,0,.82,5.36,57.93,57.93,0,0,0,5.8,6.86c-2.67.39-5.32.87-7.89,1.29,1.7-2,.88-5.82-2.52-5.84-3.67,0-7.33-.13-11-.23a3.22,3.22,0,0,0,.46-2.27,3.57,3.57,0,0,0-3.44-3.84l-1.14,0C281.39,244.29,286.79,243.33,292.16,242.32Zm-15.67-12.47a3.85,3.85,0,0,0,.69-.16,3.26,3.26,0,0,0,2.56,2,3.11,3.11,0,0,0,3.09,2c.78,0,1.55-.08,2.31-.14a4.37,4.37,0,0,0,.4,1.35c-7.16.5-14.33.93-21.47,1.57a3.4,3.4,0,0,0-2.52-3.31c-.8-.21-1.59-.39-2.37-.55C265,231.82,270.71,230.62,276.49,229.85ZM251.2,131.57a2.82,2.82,0,0,0,1.5-3c-.07-.67-.17-1.32-.28-2a3,3,0,0,0,1.25.82,46.71,46.71,0,0,0-3.2,14.49C250.67,138.47,250.88,135,251.2,131.57ZM250,150.68a2.68,2.68,0,0,0,.26.47c0,1.43,0,2.85.08,4.25,0,.13,0,.26,0,.39v0a3.75,3.75,0,0,0-.81.78Q249.77,153.64,250,150.68Zm-6.15,60.82c.32.1.65.21,1,.29a4.19,4.19,0,0,0-.28,1.74,3.56,3.56,0,0,0,1.06,5.07,3.28,3.28,0,0,0,.86,4.36,3.86,3.86,0,0,0,.1,1.44,3.8,3.8,0,0,0-.66,1.7l-1.11-.08a3.17,3.17,0,0,0-2.42.84C243,221.77,243.48,216.65,243.81,211.5Zm-2.57,21.92a3.5,3.5,0,0,0,2.58,3.29H244a3.59,3.59,0,0,0,1.4,2c-1.36.22-2.73.47-4.09.73a2.86,2.86,0,0,0-1.65.94C240.25,238.1,240.78,235.77,241.24,233.42Z"/><path class="cls-1" d="M279,204.58a3.14,3.14,0,0,0,2.61,1.15,52.85,52.85,0,0,0,16.79-2.66,3.64,3.64,0,0,0,1.24-6.16,3.7,3.7,0,0,0-1.43-2.53c1.72-1.77.75-4.38-1.17-5.39.67-1.85-.78-4.23-2.85-4.76a3.54,3.54,0,0,0,0-3.29,5.8,5.8,0,0,0,.27-.62,3.38,3.38,0,0,0-2-4.11c0-.11.06-.22.08-.34a3.64,3.64,0,0,0-2.55-4.33,3,3,0,0,0-1.14-1.85c.17-4.32-6.63-4.23-7,.17a6.44,6.44,0,0,0,.37,3c-.58,1.64-.36,3.55,1.37,4.48a8.5,8.5,0,0,0,1.08.48c-.05.21-.12.42-.15.64a3.75,3.75,0,0,0,1.88,4.1,3.75,3.75,0,0,0,.42,1.09c-.22.54-.44,1.07-.68,1.59a3.76,3.76,0,0,0,.13,3.63,3.71,3.71,0,0,0-.79,4.18c-.14,0-.28.06-.42.11a3.29,3.29,0,0,0-2.31,4.3c-.93.22-1.85.47-2.77.77A3.68,3.68,0,0,0,279,204.58Z"/><path class="cls-2" d="M388.13,350.18a63.75,63.75,0,0,0-7.24-5.45,3.38,3.38,0,0,0-1-2.17,33.59,33.59,0,0,0-10.52-7.05,2.93,2.93,0,0,0-1.62-1.75,135.49,135.49,0,0,0-19.32-7.24,4.09,4.09,0,0,0-1.62-2.91c-12.46-8.92-29.73-6.44-44.24-6.21A131.5,131.5,0,0,0,263,311.76c-17.16.06-33.67,3.95-50.21,8.08-24.82,6.18-57.78,15.6-65.93,43.31-.93,3.17,3.6,6.22,5.85,3.4,1.77-2.21,3.59-5,5.56-7.77a2.7,2.7,0,0,0,2-.57c1-.71,1.92-1.41,2.89-2.09a3.73,3.73,0,0,0,.72-.09c8.25-1.93,15.21-6.88,21.87-12l.34,0c8.94-1.87,17.74-4.38,26.54-6.87a41.34,41.34,0,0,0,8.24-2.31c2-.56,4-1.09,6-1.62a3.16,3.16,0,0,0,3.32,2.67c13-.66,25.37-4.42,38-7q3.21-.35,6.43-.58l.5.06a3,3,0,0,0,2.38,2.34c17.33,3.53,34.53,8.81,52.34,9a3.24,3.24,0,0,0,2.49-1,109.39,109.39,0,0,1,34.41,12.61,41.25,41.25,0,0,0,7.67,5,3.28,3.28,0,0,0,4.42-.93,24,24,0,0,0,6.86.77C388.51,356.05,390.54,352.3,388.13,350.18ZM196,332.53l-2.51,1a3.89,3.89,0,0,0-.29-1c1.35-.45,2.71-.88,4.06-1.3A3.45,3.45,0,0,0,196,332.53Zm80.7-13.24c-1.12,0-2.23,0-3.35,0a3.17,3.17,0,0,0-1.93.66c-2.2,0-4.41,0-6.61.08a3.44,3.44,0,0,0-2.24-.74c-3.69,0-7.41,0-11.14.11,3.26-.33,6.55-.56,9.88-.65A131.84,131.84,0,0,1,276.66,319.29Z"/><path class="cls-3" d="M319,269.82a117.92,117.92,0,0,0-16.91-.2,3.65,3.65,0,0,0-3.06-.95c-7.55,1.08-15.15,1.59-22.74,2.2-9.9-1.82-20.09-2-29.5,2-.12.05-.22.12-.32.17-2.9.19-5.81.4-8.71.63a3.51,3.51,0,0,0-2,.76,3.47,3.47,0,0,0-6.11-.3c-2.41,3.88-9.11,3.37-13.1,4-4.61.67-8.64,2.73-11,6.84-1.67,2.91,1.79,6.82,4.79,4.79l.43-.29a4.14,4.14,0,0,0,1.48-.35c.83-.36,1.66-.71,2.5-1a3.21,3.21,0,0,0,2.37.14A132.42,132.42,0,0,0,230,283.51c1.88,2.39,6.56,1.76,6.25-1.94,0-.43-.09-.86-.14-1.29a3.36,3.36,0,0,0,1.71.35l1.15-.05a3.38,3.38,0,0,0,2.66,1.32A158.88,158.88,0,0,0,266,280.7c5.56-.2,11.12-.28,16.69-.11,1.23.06,2.45.1,3.67.14,11,.6,22.09,2.39,33-.23a3.2,3.2,0,0,0,2.27-4.4,5.52,5.52,0,0,0,.81-1.85A3.56,3.56,0,0,0,319,269.82Z"/><path class="cls-4" d="M235.24,119.41a3.87,3.87,0,0,0,3.17,2.2h7c3.43,0,4.25-4.19,2.45-6.13a40.48,40.48,0,0,0,14-1.42,34.49,34.49,0,0,0,10.29.17,14.9,14.9,0,0,0,1.77,0,13.06,13.06,0,0,0,3,1.43,3.46,3.46,0,0,0-.13.92,1.79,1.79,0,0,0,0,.23c-.05.25-.08.51-.11.77a3.7,3.7,0,0,0,1.84,3.2,3.35,3.35,0,0,0,1.35.48,3.58,3.58,0,0,0,2.91-.33,6.42,6.42,0,0,0,1.81-1.93c.14-.19.26-.39.39-.58a4.37,4.37,0,0,0,1.49-2.07,3,3,0,0,0-.08-2.15,3.57,3.57,0,0,0,1.41-.82,3.39,3.39,0,0,0,1.91-4.65,5.74,5.74,0,0,0-.36-1.33,3.63,3.63,0,0,0-3.65-2.39,3.88,3.88,0,0,0-3.45-.6c-.08-.12-.15-.25-.23-.38a3.65,3.65,0,0,0-5.73-.49,22.64,22.64,0,0,0-4.28-.61,3.27,3.27,0,0,0-2.35.93c-1,.08-2.07.18-3.07.29s-1.7,0-2.55,0c-3.67-.19-7.35,0-11.07,0a3.22,3.22,0,0,0-2.62,1.23,54.6,54.6,0,0,0-8.8-.6,3.4,3.4,0,0,0-3.27,4.39l-.12.08a3.26,3.26,0,0,0-3.14,3.13l-1,1a3.5,3.5,0,0,0,0,5A10.58,10.58,0,0,0,235.24,119.41Z"/><path class="cls-5" d="M239,109.26c15.52-.17,30.77-4.24,46.33-3.17,4.51.31,4.48-6.69,0-7-15.56-1.07-30.81,3-46.33,3.17C234.53,102.31,234.53,109.31,239,109.26Z"/><path class="cls-5" d="M320,264.23c-14.34,2.39-28.84-2.19-43.28-1.21-11.72.8-23.36,2.88-35.12,3a3.37,3.37,0,0,0-2.07.67,3.58,3.58,0,0,0-1.4.09c-9.77,2.54-19.32,6.6-29.53,6.86-4.51.11-4.52,7.11,0,7,10.9-.28,21-4.4,31.39-7.11a3.58,3.58,0,0,0,1.18-.55c.14,0,.28,0,.43,0,12.25-.12,24.41-2.26,36.62-3.09,14.65-1,29,3.5,43.65,1.06C326.29,270.24,324.4,263.49,320,264.23Z"/><path class="cls-5" d="M116.12,282.54c-5.76-13.85-19.87-10.44-31.64-14.5-2.51-.87-4.23,1.17-4.29,3.28a3.94,3.94,0,0,0-1.86,3,3.95,3.95,0,0,0-.06,2.44c2.19,6,7,7.86,12.94,8.62,3.11.41,6,.5,8.18,1.46a3.76,3.76,0,0,0,.82.43c1.68,1.07,2.71,2.91,2.68,6.33,0,4.15,5.56,4.49,6.88.93.58-1.56,1.27-3.08,1.93-4.61l.89-1.54a3.54,3.54,0,0,0,.5-1.6C115.13,286.55,117.06,284.82,116.12,282.54Z"/><path class="cls-5" d="M166.35,193.15c-2.16-.89-4.27-1.91-6.36-2.94-2.49-1.22-4.12-2.25-6.71-.62-3.15,2-7.3,5.2-5.48,9.33a2.85,2.85,0,0,0,4.21,1.4c.14.07.27.15.42.21,3,1.22,6.2,2.57,8.61,4.81a3.53,3.53,0,0,0,6-2.47,20.93,20.93,0,0,0-.22-3.26C169.5,198.3,169.63,194.49,166.35,193.15Z"/><path class="cls-5" d="M184,167.66a5.62,5.62,0,0,0-2.75-3.44,9.33,9.33,0,0,0-1.1-.41,3.53,3.53,0,0,0-6.92,1v2.54a3.5,3.5,0,0,0,1.77,3,15,15,0,0,0,5.6,1.75C182.78,172.19,184.8,169.76,184,167.66Z"/><path class="cls-5" d="M213.79,116.9a3.41,3.41,0,0,0-3.31-2.58,3.51,3.51,0,0,0-3.5,3.5q0,.33.09.66a3.81,3.81,0,0,0-2,3.15c.09-1-.17.27-.25.5a9.32,9.32,0,0,0-.39,2c-.29,3.1,4,4.55,6,2.47,1.34-1.41,2.44-3,3.81-4.44A3.54,3.54,0,0,0,213.79,116.9Z"/><path class="cls-5" d="M202.8,211.18c-.8-.69-1.74-1.21-2.54-1.9a3.58,3.58,0,0,0-5.8,1.49,3.16,3.16,0,0,0-1.27,1.83c-1.89,2-2.08,4.34-2.59,7.11a3.75,3.75,0,0,0,.65,3c.75,2.78,5,3.67,6.44.89a7,7,0,0,0,4-3.58,9.07,9.07,0,0,0,.84-3.89C204,215,204.65,212.8,202.8,211.18Z"/><path class="cls-5" d="M186.36,248.24a11,11,0,0,0-2.69.34c-1.21-.84-2.52-1.58-3.79-2.4a3.53,3.53,0,0,0-5.14,2.09,20,20,0,0,0-.76,6,3.55,3.55,0,0,0,2.57,3.37,24.81,24.81,0,0,0,6.64,1.4,3,3,0,0,0,3-1.74,2.85,2.85,0,0,0,1.78-2.46C190.78,253.38,190.25,248.21,186.36,248.24Z"/><path class="cls-5" d="M340.44,188.41c-2.67-4.1-4.75-8.56-8.17-12.13a3.15,3.15,0,0,0-2.08-1c-1.61-2-6.05-1.28-6.43,2.22-.29,2.74-.53,5.58.55,8.19,1.36,3.31,4.05,5.49,6.9,7.53a3.22,3.22,0,0,0,4-.38C338,195,342.67,191.84,340.44,188.41Z"/><path class="cls-5" d="M301.18,135c-1.2-1.17-2.49-2.26-3.76-3.36q-1.53-1.87-3.22-3.62c-3.06-3.1-7.73,1.37-5.26,4.57a3.41,3.41,0,0,0,.39.94,26.35,26.35,0,0,0,7,7.6c1.6,1.21,3.64.33,4.68-1.16A3.29,3.29,0,0,0,301.18,135Z"/><path class="cls-5" d="M353.85,150.89a12.07,12.07,0,0,0-4.48-3.15c-.88-1-1.76-2.05-2.58-3.13a5.12,5.12,0,0,0-1.21-1.12l-.06-.14a3.51,3.51,0,0,0-4-1.61,3.4,3.4,0,0,0-2.5,3.14,4,4,0,0,0-.07.87,19.7,19.7,0,0,0,3,9.38,3.38,3.38,0,0,0,4.86,1.09,2.88,2.88,0,0,0,.58,0,3.46,3.46,0,0,0,4.43.84,3.31,3.31,0,0,0,.52-.38C354.53,155.83,356,153,353.85,150.89Z"/><path class="cls-5" d="M324,117.89c-2-1.89-4.61-2.92-6.34-5.08a3.48,3.48,0,0,0-4.24-.55,3.43,3.43,0,0,0-1.13,1.07,4.07,4.07,0,0,0-2,1.38,3.25,3.25,0,0,0-1,3.41,17,17,0,0,0,4.07,7.89,3.52,3.52,0,0,0,4.24.55,3.31,3.31,0,0,0,1.66-3.17,3.07,3.07,0,0,0,.31-.17C322.83,125.43,327.15,120.83,324,117.89Z"/><path class="cls-5" d="M402.72,197.86a19.37,19.37,0,0,0-5.78-4.36,4.16,4.16,0,0,0-4,.52h-.3a5.34,5.34,0,0,0-2.37.76,3.24,3.24,0,0,0-1.5,1.7l-.24.22a4,4,0,0,0-.87.53c-3.76,3.08-7.65,5.91-10.07,10.23-1.23,2.2.29,5.43,3,5.27a16.44,16.44,0,0,0,2.69-.39,3.8,3.8,0,0,0,4.16.54,35.29,35.29,0,0,0,11.89-9.17C402.29,204.51,405.45,200.56,402.72,197.86Z"/><path class="cls-5" d="M454.06,242.37c-4.41-2.7-7.85-5.77-13.19-6.19a2.89,2.89,0,0,0-2.67,1.17,12.45,12.45,0,0,0-4.81,1.85,3.3,3.3,0,0,0-1.67,3.31l-.14.12a3.75,3.75,0,0,0-1.36.37,20.93,20.93,0,0,0-9.62,9.61,3.46,3.46,0,0,0-1.22,1.45,3.11,3.11,0,0,0-1.84,1.62c-1.67,3.24-1.3,5.54.16,7.07.07,2,2.41,3.93,4.42,3.15a14,14,0,0,0,1.66-.77,17.58,17.58,0,0,0,4.29-.17,27.08,27.08,0,0,0,9.12-3.35,2.79,2.79,0,0,0,2.35-1.05l.65-.84c5.17-3.53,9.84-8.12,14.58-11.85C456.6,246.43,455.81,243.44,454.06,242.37Z"/><path class="cls-3" d="M129.88,253.32c-6.35-.66-11.77-3.52-16.79-7.22-.79-.62-1.58-1.23-2.39-1.83a2.82,2.82,0,0,0-2.87-.32,2.84,2.84,0,0,0-3.28.87c-3,3.81-5.13,8.4-9.44,10.88-3.63,2.56-.45,8.33,3.53,6,.28-.16.55-.33.82-.5a3.18,3.18,0,0,0,.72.5c8.7,4.35,15.24,13,25.75,8.25,2.22-1,2.19-3.22,1.06-4.76,1.85-1.92,3.66-3.88,5.36-5.94A3.54,3.54,0,0,0,129.88,253.32Z"/><path class="cls-3" d="M158.73,209.65a80.92,80.92,0,0,0-12.33-3c-.4-.18-.81-.35-1.21-.51-.51-2.51-3.56-4.37-5.73-1.92a11.53,11.53,0,0,0-.8,1,10.19,10.19,0,0,0-2.27,5.39c-2.22,1.41-2.48,5.5.81,6.41,8.05,2.24,18.54,8.17,23.62-2.24A3.55,3.55,0,0,0,158.73,209.65Z"/><path class="cls-3" d="M196.78,152.1a3.9,3.9,0,0,0-2-3.17,17,17,0,0,0-4.11-3,3.54,3.54,0,0,0-4.79,1.25c-.52,1-1.08,2-1.65,3-.24.43-.5.85-.75,1.27a3,3,0,0,0-1.76,2.24c-.42,1.9.08,3.65,1.77,4.55a3.76,3.76,0,0,0,1,2.67c1.48,1.47,3.45,1.17,4.95,0,2-1.56,3.58-3.71,5.64-5.17A3.73,3.73,0,0,0,196.78,152.1Z"/><path class="cls-3" d="M208.92,195.36a3.36,3.36,0,0,0-.08-.91c.35-3.49-4.68-5.74-6.46-2.23a35.13,35.13,0,0,0-3.52,8.45,3.47,3.47,0,0,0,2.23,4.13,3,3,0,0,0,3.39-.44,3.2,3.2,0,0,0,3-2.46c.12-.51.21-1,.3-1.52a6.15,6.15,0,0,1,.7-.75A3.24,3.24,0,0,0,208.92,195.36Z"/><path class="cls-3" d="M173.67,260.93c-2.28-.19-3.49,1.87-3.38,3.81h0a3,3,0,0,0-2.17,1.72c-.31.59-.63,1.17-1,1.75a27.56,27.56,0,0,0-2.86,5.23,3.87,3.87,0,0,0,2.07,5.07,3.66,3.66,0,0,0,3.95,3.36,4.16,4.16,0,0,0,1.17,2.12c.89,2.64,5.61,3.21,6.82-.23,1.86-5.27,4.51-10,5.16-15.59C184.05,263.15,177.64,261.26,173.67,260.93Z"/><path class="cls-3" d="M218.88,154.77c-.45.76-.9,1.52-1.33,2.29a3.57,3.57,0,0,0-2.19,2.35c-.46,1.57-.6,3.18-.9,4.77-.14.52-.27,1-.37,1.58a3.89,3.89,0,0,0-.06,1c-.63,4.1,5.74,5.74,6.81,1.49.36-1.45.73-2.9,1.12-4.35a43.19,43.19,0,0,1,3-5.61C227.25,154.42,221.2,150.9,218.88,154.77Z"/><path class="cls-3" d="M325.29,166.12c-1.26-1.23-2.91-2.33-3.89-3.73a3.48,3.48,0,0,0-3.42-1.6c-2.06-2.72-7.31-.85-6.15,3,.32,1.08.36,2.2.64,3.29a10.79,10.79,0,0,0,2.8,4.6,3.44,3.44,0,0,0,4.6.24,3.07,3.07,0,0,0,1.92,0C324.81,172.85,328.07,168.83,325.29,166.12Z"/><path class="cls-3" d="M339.24,136.81c-.06-.16-.13-.31-.19-.47l0-.05v0l-.15-.39c0-.05-.05-.09-.07-.14-.2-.49-.4-1-.61-1.47-.51-1.23-1-2.47-1.58-3.67-1.18-2.41-4.22-2-5.71-.4a3.28,3.28,0,0,0-2.25.42,3.51,3.51,0,0,0-1.26,4.78c1.45,2.06,3.81,3.9,5.08,5.72a3.51,3.51,0,0,0,6.53-1.8A2.81,2.81,0,0,0,339.24,136.81Z"/><path class="cls-3" d="M339,136.32v0C339.23,136.74,339.43,137.18,339,136.32Z"/><path class="cls-3" d="M310.52,107.2c.34.2.37.28-.26-.31s-1-1-1.55-1.5l-.39-.39a3.64,3.64,0,0,0-.8-2.35c-2.8-3.59-5.08-7.49-9-10.06a3,3,0,0,0-2.83-.4c-3.19-2.54-7.43,2-4.58,5.26.5.57,1,1.1,1.59,1.62,2.41,2.46,4.8,5,7.22,7.42,2.12,2.17,4.9,6.17,8,7.11a3.4,3.4,0,0,0,3.4-.9l0,0A3.8,3.8,0,0,0,310.52,107.2Z"/><path class="cls-3" d="M387.42,184c-4.29-2.61-7.77-6.28-12.06-8.89a3.06,3.06,0,0,0-4.09.49,4.68,4.68,0,0,0-.45.19,4,4,0,0,0-2.85,2.42,3.72,3.72,0,0,0-1.53.94,3.63,3.63,0,0,0-3.31,3.7,3,3,0,0,0-.65,2.27c.4,4.74,3.17,9.18,5.55,13.19,2.18,3.67,6.91,1,6.4-2.7l-.15-1,.34-.19a3.44,3.44,0,0,0,4.85-2,4.21,4.21,0,0,0,2.24-2.46,3.84,3.84,0,0,0,.79-.82c.46.31.91.61,1.39.89C387.75,192.37,391.27,186.32,387.42,184Z"/><path class="cls-3" d="M376,234.12c-2.13-1.45-4.21-3-6.34-4.44a3.28,3.28,0,0,0-4,.38,3.9,3.9,0,0,0-1.32.29,3.69,3.69,0,0,0-4.29.9,3.48,3.48,0,0,0-2.64,3.31,3.23,3.23,0,0,0-.88,1.17c-2.2,0-4.4,1.68-3.44,4.25a16.11,16.11,0,0,0,4.08,6c2.42,2.44,5.79.31,5.89-2.6a3.26,3.26,0,0,0,1.33-1,4.13,4.13,0,0,0,2.59-.72,3.77,3.77,0,0,0,2.58-.53,3.25,3.25,0,0,0,3.14-.87C376.34,242.45,379.63,236.59,376,234.12Z"/><path class="cls-3" d="M482.62,264c-1.64-.75-3.23-1.59-4.81-2.46a17.85,17.85,0,0,0-6.77-4,3.62,3.62,0,0,0-5.28-3c-8.22,3.92-11.05,14.23-20.77,14.74-1.87-1.69-5.06-.08-5.53,2.44a3,3,0,0,0,.29,2.84c.32.47.65.91,1,1.33a27.87,27.87,0,0,0,8.52,9.45c2.12,1.51,4.35,0,5-2.07.41,0,.83-.06,1.27-.12a18.56,18.56,0,0,0,10.18-5.65,3.82,3.82,0,0,0,.49-.33c4.54-3.71,10-5.42,15.59-6.71C484.58,269.7,485.4,265.22,482.62,264Z"/><path class="cls-6" d="M145.72,225.59a4.22,4.22,0,0,0-2.81-.71c-4,.56-7.37-1.58-10.49-3.86a4.57,4.57,0,0,0-3.81-2,3.26,3.26,0,0,0-3.36,3.72c-2.23,2.08-4.54,4.07-6.73,6.19-3,2.86.79,7.28,4.24,5.5a6.42,6.42,0,0,1,1.31-.49c.14.07.28.15.43.21a20.34,20.34,0,0,1,7.68,5.07,3.5,3.5,0,0,0,5.18,2.83c1.21-.61,2.56-1.24,2.87-2.73l.06-.21a67.57,67.57,0,0,1,8.49-7.22C152.24,229.4,149.19,223.75,145.72,225.59Z"/><path class="cls-6" d="M225,99.48a3.53,3.53,0,0,0-4.89,0,3.63,3.63,0,0,0-4.41,1.38,28.83,28.83,0,0,0-2.89,6.55,3.52,3.52,0,0,0,2.44,4.31,3.57,3.57,0,0,0,4.31-2.45l0-.09a3.94,3.94,0,0,0,2.51-2.45c-.17.43.18,0,.17-.07s.2-.2.31-.29l.12-.09a23.78,23.78,0,0,0,2.3-1.81A3.52,3.52,0,0,0,225,99.48Z"/><path class="cls-6" d="M232.86,89a3.34,3.34,0,0,0-1.57-2.08,3.56,3.56,0,0,0-4.79,1.26,7.36,7.36,0,0,0-.58,1.06c-.12.2-.23.4-.33.61a7.42,7.42,0,0,0-.84,3.27,3.53,3.53,0,0,0,3.5,3.5,3.48,3.48,0,0,0,3.21-2.16,3.35,3.35,0,0,0,1.17-.77A3.54,3.54,0,0,0,232.86,89Z"/><path class="cls-6" d="M234.54,130.36a3.29,3.29,0,0,0-3.95,2.4l0,.1a3.48,3.48,0,0,0-1.36,2.73,3,3,0,0,0,.11.8c-.34.82-.71,1.64-1.1,2.45a3.64,3.64,0,0,0-.44.7c-.27.54-.5,1.06-.72,1.59-1.21,2.28-2.51,4.52-3.72,6.66-2.23,3.93,3.82,7.46,6,3.53l1.69-3a2.67,2.67,0,0,0,.94-.75,38.77,38.77,0,0,0,6.61-13C239.46,131.75,236.81,130,234.54,130.36Z"/><path class="cls-6" d="M206.64,128.7a3.5,3.5,0,0,0-2.57-3.38c-2.32-.57-3.53.9-4.68,2.47a3,3,0,0,0-.34.7,3.13,3.13,0,0,0-.32,1.39,3.5,3.5,0,0,0,3.5,3.5,3.38,3.38,0,0,0,2.48-1,1.09,1.09,0,0,1,.13-.17l0-.05a6,6,0,0,0,.45-.42,3.26,3.26,0,0,0,.78-1.24A4,4,0,0,0,206.64,128.7Z"/><path class="cls-6" d="M363.37,220.7c-1.11-1.25-1.86-2.49-3-3.61-.05-.06-.09-.13-.15-.19l0,0c-.22-.19-.44-.39-.69-.57a2.91,2.91,0,0,0-1.93-.66c-1.57-2.61-6.44-2-6.51,1.78,0,.25,0,.49-.05.73a3.8,3.8,0,0,0-1.85,3.07c0-.27,0-.18,0,0a3.06,3.06,0,0,0-1.74,2.21c-.48,2-1.08,3.81.35,5.87a4,4,0,0,0,.8.84c.61,2.55,4.64,4,6.52,1.06a9.91,9.91,0,0,1,3.06-3,3.62,3.62,0,0,0,1.27-.71c.25-.13.51-.26.78-.37a3.59,3.59,0,0,0,4.17-3.57A3.64,3.64,0,0,0,363.37,220.7Z"/><path class="cls-6" d="M316.32,155.4l-1.9-3.8a2.92,2.92,0,0,0-1.67-1.48,39.42,39.42,0,0,0-5.23-6.85,3.53,3.53,0,0,0-4.95,0c-1.47,1.47-1.17,3.45,0,4.95s2.37,3.25,3.48,4.91a3.36,3.36,0,0,0,1,2.07c.61.65,1.18,1.34,1.74,2,.3.57.59,1.14.88,1.71a3,3,0,0,0,2.71,1.67C315,161.38,317.75,158.26,316.32,155.4Z"/><path class="cls-6" d="M329,126.21a13.39,13.39,0,0,0-2.46-3.25,3.54,3.54,0,0,0-4.24-.55l-.25.19a3.39,3.39,0,0,0-2.36,1,3.52,3.52,0,0,0,0,5,23.94,23.94,0,0,0,2.4,2l.42.33q.51.41,1,.87a3.54,3.54,0,0,0,4.24.55,3.44,3.44,0,0,0,1.63-3.62A3.88,3.88,0,0,0,329,126.21Z"/><path class="cls-6" d="M190,227.77c-1.53-.89-4-.47-4.78,1.26a8.93,8.93,0,0,0-.39,1,3.77,3.77,0,0,0-.73,2.06c.09-.33.08-.31,0,.08s-.18.58-.27.87a8,8,0,0,0-.35,2.23,4,4,0,0,1,0,1.27,3.79,3.79,0,0,0,1.75,3.2c1.59,1.15,3.85.23,4.79-1.26a8.44,8.44,0,0,0,.77-3.15c.1-.62.22-1.24.34-1.86.06-.28.13-.55.19-.83s.51-1.27-.05-.05A3.57,3.57,0,0,0,190,227.77Z"/><path class="cls-6" d="M208.38,179.72c-.1.32-.17.65-.25,1a3.41,3.41,0,0,0-1.15,2.5c0,.1,0,.17,0,.22-.07.35-.15.69-.22,1a16.48,16.48,0,0,0-.4,3.2c-.11,3.49,4,4.26,6,2.36a3.12,3.12,0,0,0,1.52-2.07c.5-2.1.62-4.28,1.27-6.34C216.47,177.26,209.71,175.43,208.38,179.72Z"/><path class="cls-6" d="M419.79,215.08a33.26,33.26,0,0,1-7.55-5.17,3.26,3.26,0,0,0-4.36-.35,4.11,4.11,0,0,0-2.58,1.17,3.41,3.41,0,0,0-4.33.57l-.15-.12a3.65,3.65,0,0,0-5.38.61c-2.7-1.38-5.51,1.24-4.91,4.07a25.23,25.23,0,0,0,1.44,4.56c0,2.83,2.28,5.37,4.61,7.05a2.78,2.78,0,0,0,2.88.32,6.82,6.82,0,0,0,3.9-1,6.56,6.56,0,0,0,.59-.35,13.64,13.64,0,0,0,2.35.71,3.47,3.47,0,0,0,4-1.86,3.52,3.52,0,0,0,4.11-2.49c0-.17.08-.35.12-.52A3.46,3.46,0,0,0,416,221l.21.12C420.26,223.2,423.8,217.16,419.79,215.08Z"/><path class="cls-7" d="M80.57,303.49c-.16-.74-.35-1.48-.54-2.21a44.77,44.77,0,0,0-4.25-15.77l0-.06c0-.24-.09-.29-.12-.52a3.42,3.42,0,0,0-3.5-3.32h-.63a3.34,3.34,0,0,0-3.37,2.47,3.39,3.39,0,0,0-2.07,1.33,2.75,2.75,0,0,0-1.74,2.22,2.66,2.66,0,0,0-.29.45c-3.67,8.29-2.83,18.44.28,26.8a3.53,3.53,0,0,0,6.75,0c.14-.43.27-.88.4-1.32a3.41,3.41,0,0,0,5.32-1.86c.06-.24.11-.48.17-.72a3.38,3.38,0,0,0,3.12-3.38c0-.45,0-.89,0-1.33A3.44,3.44,0,0,0,80.57,303.49Z"/><path class="cls-7" d="M176.78,180.72c-.3-.3-.6-.6-.91-.89a3.2,3.2,0,0,0-1.7-2.83c-1.46-.69-3-1.22-4.45-1.91a3.64,3.64,0,0,0-4.76,1.48l-.81,0c-4-.08-4.77,5.92-.93,6.88l.11,0a3.16,3.16,0,0,0,2.72,1.37,16.42,16.42,0,0,1,4.79.51h0c.56.28,1.13.59,1.69.92C176,188.24,179.6,183.53,176.78,180.72Z"/><path class="cls-7" d="M194.41,136.57c-.11.33-.2.68-.3,1a3.11,3.11,0,0,0-.61.69,26,26,0,0,0-2.9,5.91c-1.1,3.21,2.94,5.5,5.41,3.78a3.65,3.65,0,0,0,2.35-1,3.32,3.32,0,0,0,1-2.5c.63-2,1.15-4,1.8-6C202.56,134.12,195.8,132.29,194.41,136.57Z"/><path class="cls-7" d="M351.23,206.18c-1.16-1.85-2-3.86-3.17-5.71a3.37,3.37,0,0,0-2.54-1.59c-.42-.75-.84-1.49-1.27-2.22-1.81-3.06-6.69-1.49-6.57,1.73a3.33,3.33,0,0,0-1.1,3.51c0,.12.07.24.1.36a3.23,3.23,0,0,0-.22,1.24,26.56,26.56,0,0,0,.76,7.28,7.64,7.64,0,0,0,9.29,1.2,3.93,3.93,0,0,0,2.77-.84C351.19,210.48,352.62,208.39,351.23,206.18Z"/><path class="cls-7" d="M369.09,167.39c-3.74-3.77-7.24-7.88-12.34-9.79-3.62-1.35-5.39,3.44-3.4,5.85.23.29.47.56.72.83a3.41,3.41,0,0,0-.48,1.78,25.41,25.41,0,0,0,.76,7.27c.89,3,5.5,3.48,6.6.51a3.31,3.31,0,0,0,2.14-1.14,3.38,3.38,0,0,0,1.19-.12l.21,0C367.67,175.17,372.15,170.48,369.09,167.39Z"/><path class="cls-7" d="M385.26,252.25c1.19-1.55,1.25-3.81-1-4.8a1.87,1.87,0,0,1-.61-.56.36.36,0,0,1,0-.09h0c-.19-.25-.37-.53-.53-.72a2.89,2.89,0,0,0-3.09-1c-.06-.08-.12-.14-.17-.22a3.77,3.77,0,0,0-5.87-.26,3.53,3.53,0,0,0-5.71,2.9,4,4,0,0,0-2.75,2.13c-2.52,0-4.76,2.43-3.14,5.11,2.24,3.72,4.57,7.08,8.24,9.51,1.95,1.3,3.94.2,4.78-1.53a4,4,0,0,0,2.16-2.48,4.38,4.38,0,0,0,1.28-2c2.18.84,4.37-1,4.5-3.29A4,4,0,0,0,385.26,252.25Z"/><path class="cls-7" d="M431.85,225.87l-.77-.34a4.72,4.72,0,0,0-.5-.3c-.92-.41-1.83-.81-2.77-1.13l-.49-.16-.32-.09a9.24,9.24,0,0,0-1.07-.24,3.67,3.67,0,0,0-2.38.42c-4.53.7-8,4.31-12,7.47a13.14,13.14,0,0,0-10.27,10.42c-.33,1.7.45,4,2.44,4.31a12.81,12.81,0,0,0,10-2.31,24.56,24.56,0,0,0,10.13-8c.26-.34.55-.7.82-1.06a3.51,3.51,0,0,0,2-.37c1.53-.76,2.48-1.91,4.24-2.18C433.89,231.82,434.55,227,431.85,225.87Z"/><path class="cls-7" d="M506.81,283.54c-.41-.37-.82-.72-1.24-1.06a3.62,3.62,0,0,0-.66-.85,7.58,7.58,0,0,0-4.09-2.17,3.66,3.66,0,0,0-1.48.05c-.53-.22-1.08-.41-1.63-.6a3.66,3.66,0,0,0-2.73-2.43,3.46,3.46,0,0,0-5.81-1.83c-1,.89-1.93,1.83-2.85,2.79a3.82,3.82,0,0,0-4.68,1.09,43.41,43.41,0,0,0-5.71,9.52c0,.05,0,.09-.05.13-1.91,3-4.17,5.51-7.38,6.51-4.21,1.49-2.49,8.11,1.86,6.75a5.27,5.27,0,0,1,1.26-.28,3.48,3.48,0,0,0,1,.33,26.3,26.3,0,0,0,3.53,1.22,3.41,3.41,0,0,0,1.83-.12,3,3,0,0,0,1.77,2.31l3.81,1.9c1.57.79,4,.56,4.79-1.25.57-1.25,1.37-4.65,2.43-8.17a29,29,0,0,0,5.47-9.18,20.28,20.28,0,0,0,3,.41h0a9.46,9.46,0,0,1,2.86,1,3.08,3.08,0,0,0,2,0C507,289.68,509.35,285.81,506.81,283.54Z"/><path class="cls-7" d="M260.68,49.93Z"/><path class="cls-7" d="M279.08,84.83c-.42-.19-.85-.37-1.27-.53a3.38,3.38,0,0,0-3.37-3.39c-.72,0-1.44,0-2.16,0a76.54,76.54,0,0,0-8.16.51,26.3,26.3,0,0,0-14.3,1c2.06-5.29,4.19-10.55,6.62-15.68a4.2,4.2,0,0,0,.5.17c2.82,3.24,5.51,6.61,8.78,9.32a16.48,16.48,0,0,0,4.65,3.09c4,1.75,7.64-4,3.54-6a21.91,21.91,0,0,1-4-2.66c-3.16-2.91-5.4-7-8.46-10a6.28,6.28,0,0,0,.27-.59c-.19.52.35-.73.31-.65.27-.54.59-1.06.89-1.59s.61-1.1.88-1.66a10.26,10.26,0,0,0,2.77-2c3.21-3.18-1.75-8.13-4.95-4.95-.25.24-.49.47-.75.7,0,0-.11.05-.19.06l.54-.06a3.69,3.69,0,0,0-3.38,2.57c.2-.52-.35.72-.31.64-.06.13-.13.25-.2.37-2-2.46-4.06-4.87-6.28-7.15-3.15-3.24-8.1,1.71-5,4.94,1.68,1.74,3.27,3.54,4.81,5.39a3.85,3.85,0,0,0-.09.76,7.9,7.9,0,0,0,.83,3.41,3.93,3.93,0,0,0-.35.57c-3.63,7.37-6.6,15-9.55,22.68,0,.11-.05.21-.09.31a3.92,3.92,0,0,0-3,5.58,3.73,3.73,0,0,0,.16,3.4,3.59,3.59,0,0,0,2.87,5.49,43.24,43.24,0,0,0,7.38-.26,4,4,0,0,0,4.48,4.16,52.29,52.29,0,0,0,15.2-4.38,3,3,0,0,0,1.6-1.59,22.27,22.27,0,0,0,10-7.14A3.49,3.49,0,0,0,279.08,84.83Z"/><path class="cls-8" d="M268.91,291.65a74.31,74.31,0,0,1-8.31.35,2.25,2.25,0,0,0-.38,0c-2.75-.29-1.5,3.93.69,4.33.37.06.71.26,1.07.3a1.78,1.78,0,0,0,1.29-.25,66.06,66.06,0,0,0,7.17-.34C273.26,295.74,271.12,291.4,268.91,291.65Z"/><path class="cls-8" d="M307.45,291.8a13,13,0,0,0-4.61.14c-.64.1-1.27.22-1.91.29-.41,0-.95-.19-.7.12-1.66-2.06-6.15.11-4.37,2.32,2.78,3.45,6.61.56,10.09,1.25C308.7,296.46,310.65,292.43,307.45,291.8Z"/><path class="cls-9" d="M278.27,295.29c-1.46-3.36-4.3-4.28-7.79-3.48-4,.92-6.66-1.24-10.21-.58-2.67.5-4.79,2.24-7.7,1.59-.33-.07-1.58.46-1.19.54,4.21.95,7.95-2.24,12.1-1,4.75,1.4,10.86-2.38,13.34,3.33.15.33,1.55-.16,1.45-.39Z"/><path class="cls-9" d="M278.26,295.08c-1.15-1.87-3.51-.78-5.07.08a15.87,15.87,0,0,1-18.12-1.59c-.31-.26-1.6.3-1.36.5A17.23,17.23,0,0,0,265.1,298a26.44,26.44,0,0,0,6.14-.8c1.18-.34,4.5-3.44,5.57-1.71.23.37,1.58-.18,1.45-.39Z"/><path class="cls-9" d="M278.35,295.21c-2.33-6.13-7.41-3.29-12.27-4-1.72-.25-3.37-1.45-5.17-1.12-2.76.51-4.94,2.25-7.86,2.11-.29,0-1.65.53-.94.57,2.67.13,8.22-2.35,10-1.84,1.44.42,3.07,1.17,4.61,1.05,4.28-.36,8.42-1.08,10.2,3.59.12.33,1.55-.12,1.45-.39Z"/><path class="cls-9" d="M263.37,291.87c-2,1.64.08,4,2,4.36,2.09.4,5.37-1.11,4.18-3.69-.31-.67-1.75-.26-1.45.39.75,1.62-.93,2.55-2.34,2.17-.85-.23-2.56-1.6-1.44-2.52.76-.63-.39-1.19-1-.71Z"/><path class="cls-9" d="M263.87,292.3a2,2,0,0,0-.22,2.46,2.81,2.81,0,0,0,2.38,1.07,3.11,3.11,0,0,0,2.44-1.06c.43-.56,1-1.7.29-2.26-.42-.34-1.77.23-1.34.58s.08,1-.13,1.37a1,1,0,0,1-1.08.48c-1-.15-2-1.43-1.17-2.36.57-.66-.83-.66-1.17-.28Z"/><path class="cls-9" d="M257.26,292.32c-2.35,3.65,4.81,4.9,7,4.95,4.05.09,9.4-.24,9.45-5.47,0-.38-1.45-.13-1.45.38,0,4.69-5.51,4.56-9,4.27-1.61-.13-6.24-1.66-4.64-4.15.34-.52-1.1-.33-1.33,0Z"/><path class="cls-9" d="M290.86,295.21c2.31-5.32,7.31-1.63,11.17-2.63,3.38-.88,6.21-.24,9.38.64a7.58,7.58,0,0,0,4.17,0c.55-.13,1.29-.74.27-.51-3.15.71-5.88-1.55-9-1.69a5.73,5.73,0,0,0-1.8.27,19.31,19.31,0,0,1-8.49.16,6.46,6.46,0,0,0-7.18,4c-.09.21,1.27.09,1.43-.27Z"/><path class="cls-9" d="M290.83,295.15c.54-.87,5.25,2.05,6.33,2.36a17.73,17.73,0,0,0,6.11.44,19.55,19.55,0,0,0,10.61-4.15c.65-.53-.8-.54-1.16-.24a16,16,0,0,1-10.16,3.56,15,15,0,0,1-7.91-2.35c-1.78-1-3.95-1.62-5.17.34-.36.59,1.1.45,1.35,0Z"/><path class="cls-9" d="M290.76,295.34c1.55-4.12,10.53-3.13,14.37-4.32,2.88-.9,6.66,2,9.91,1.86.8,0,1.14-1.06.14-1-3.09.16-5.32-2.24-8.19-2.14-3.09.11-5.78,1.52-9,1-3.78-.62-7.19.8-8.58,4.48-.29.77,1.16.7,1.38.14Z"/><path class="cls-9" d="M303.17,292.38c1.13.93.15,2.21-.89,2.66-1.46.64-3.5-.79-2.76-2.41.32-.68-1.14-.54-1.36-.07-1.11,2.42,1.69,3.83,3.74,3.43,1.6-.3,4.69-2.48,2.61-4.2-.43-.35-1.78.23-1.34.59Z"/><path class="cls-9" d="M302.55,292.55c.7.8.34,2.56-.92,2.39a1.7,1.7,0,0,1-1.19-.79c-.24-.37-.61-1.19-.18-1.54.26-.21-.23-.25-.35-.24a1.76,1.76,0,0,0-1,.35c-.66.53-.19,1.53.22,2.08a2.53,2.53,0,0,0,2.26.73c1.6-.12,4.05-1.7,2.49-3.47-.24-.28-1.6.24-1.37.49Z"/><path class="cls-9" d="M309,292.37c2.16,3.36-4.74,4-6.66,4.09-3.54.15-6.92-.88-7-4.8,0-.35-1.45-.1-1.45.39.06,5.65,6.58,5.3,10.65,5,2.08-.17,7.81-2,5.87-5-.27-.42-1.63.11-1.45.39Z"/><path class="cls-9" d="M281.7,292.92c-9.65-7.43-20.16-8.49-31.91-6.59-.78.12-1.12,1.19-.14,1,11.44-1.85,21.55-.84,30.93,6.38.5.38,1.78-.32,1.12-.82Z"/><path class="cls-9" d="M287.36,293.21c8.07-7.35,19.1-9.07,29.24-5,.47.19,1.78-.49,1.14-.74-11-4.35-22.85-2.44-31.56,5.5-.64.58.79.64,1.18.29Z"/><path class="cls-9" d="M284.62,298.11a1.4,1.4,0,0,0-.89.29c-1.05,1-1.76.6-1-.7,1.21-2,5.13,1.28,2.51,3-1.3.85-3.83.94-4.71-.55-1.72-2.91,3-4.89,5.07-4.54a4.26,4.26,0,0,1,3.61,5.19c-.41,1.53-2.59,1.94-3.86,2.47-3.41,1.41-4.15,4.23-3.62,7.71.07.47,1.53.14,1.45-.39-.34-2.22-.43-4.73,1.61-6.17a26.09,26.09,0,0,1,3.74-1.66c2.36-1.15,2.89-3.59,1.5-5.81-1.65-2.63-5.74-2.66-8.24-1.54-2,.88-4.13,4-2.13,5.87,2.77,2.56,10.75-.63,6.63-4.53-1.77-1.68-4.44-.15-5.29,1.68a1.11,1.11,0,0,0,.87,1.71,3.29,3.29,0,0,0,1.35-.2c.41-.12,1.48-1.06,1.15-1,.7-.05,1.21-.85.21-.77Z"/><path class="cls-9" d="M282.18,283.56c-1.47-.59-2.54,1-2.56,2.24-.05,2.26,2.67,2.4,4.29,2a4.12,4.12,0,0,0,2.88-2.59,2,2,0,0,0-1.54-2.57c-1.67-.54-5.16-.19-5.28,2.09,0,.26,1.42.07,1.45-.39.08-1.57,1.91-1.4,3-1,2,.77.74,3.72-.94,4a1.92,1.92,0,0,1-2.36-1.54,2.34,2.34,0,0,1,.12-1.2,1.53,1.53,0,0,1,.23-.46c.33-.46-.54,0-.45,0,.34.14,1.66-.4,1.18-.59Z"/><path class="cls-9" d="M281.32,284.81c-.18,1.59,1.89,1.58,2.83.89a1.33,1.33,0,0,0,.56-1.63c-.44-.87-1.6-.85-2.38-.58a1.46,1.46,0,0,0,.61,2.84c.72,0,2-.55,1.92-1.46s-1.32-1.09-2-1c-.23,0-.81.18-.83.5s-.2.66-.22,1.1c0,.25.23.13.44.13h.68c.35,0,1.37.22,1.37-.22v-.87c0-.47-1.34-.08-1.49.08-.52.55-.74,1.1-.18,1.69.32.35,1.21,0,1.35-.37a1.71,1.71,0,0,0,0-1.4c-.25-.5-1.15-.11-1.41.18a1.44,1.44,0,0,0-.29,1.29c0,.47,1.5.16,1.45-.39,0-.37-.1-.57.17-.87l-1.39.18a1.38,1.38,0,0,1,0,1.19l1.4-.38c-.27-.28-.48-.57-.18-.88-.44,0-.4.05-1.4.07v.86a3.6,3.6,0,0,1,1.19-.16h-.68a.68.68,0,0,1,.45.1c0-.44.19-1,.22-1.41-.27.17-.55.28-.82.44a.68.68,0,0,1,.75.37.36.36,0,0,1-.09.41c-.19.1-.14.1.13,0a.36.36,0,0,1-.15-.08,1.11,1.11,0,0,1-.49-.78.7.7,0,0,1,0-.43.38.38,0,0,1,.09-.13c.13-.13-.22,0-.1,0,.53.1.78.93.32,1.22.11-.07.08,0,.06,0a.5.5,0,0,1-.19-.07c-.22-.11-.25-.42-.22-.63.06-.59-1.4-.31-1.45.18Z"/><path class="cls-9" d="M142.59,365.89c10.6-20.44,29.26-33,50.62-40.23,22.58-7.66,45.86-11.18,69.66-11.94,24.33-.78,49.57.92,72.95,8.06,22.8,7,50,19.62,62.54,41l.61,1.13c.39.72,2.24,0,1.77-.83-11.48-21.23-36.6-32.51-58.1-40.65-21.17-8-44.83-9.93-67.27-10.21-22.6-.28-45.7,1.64-67.57,7.59C188.06,325.21,166,332.78,152.38,349a95.05,95.05,0,0,0-11.62,16.68c-.5,1,1.46.9,1.83.18Z"/><path class="cls-9" d="M235.71,282.33c-.81,10.71-1.39,21.6-.32,32.31,0,.34,2,0,1.93-.52-1.06-10.7-.48-21.6.32-32.3,0-.24-1.89,0-1.93.51Z"/><path class="cls-9" d="M207.35,292.86c0,9.14-.31,18.27-.33,27.41,0,.33,1.94.05,1.94-.52,0-9.14.3-18.27.32-27.41,0-.33-1.93,0-1.93.52Z"/><path class="cls-9" d="M236.41,282.74c23.72,0,47.44-.34,71.16-.44,4.08,0,8.17,0,12.25.2a31.81,31.81,0,0,1,3.78.36c1.28.21.72,3,.73,4,.17,10.66,1,21.15,1,31.84,0,.54,1.93.2,1.93-.52.08-11.06-.8-21.93-1-33-.05-2.78.43-3.14-2.34-3.52a85.16,85.16,0,0,0-10.35-.44c-25.45-.28-50.94.41-76.38.42-.69,0-2.07,1-.77,1Z"/><path class="cls-9" d="M235.89,270.84c-2.78,4.07-1.9,9.3-4.88,13.35-.46.62.77.59,1,.53,3.15-.64,6.27-1.6,9.51-1.62,3.66,0,7.2,1.47,10.88,1.66,3.29.16,6.64-.56,9.87-1.11A56.54,56.54,0,0,1,276,283c8,.57,15.42,1,23.38,0a43.28,43.28,0,0,1,13.19.54,15.18,15.18,0,0,0,6.64-.2l-.91-.68-1.39,1.34c-.83.78,1.08.8,1.55.34l1.4-1.33c.66-.64-.48-.79-.91-.68-3.74,1-7.63-.5-11.35-.73a49.27,49.27,0,0,0-9.47.48c-9.05,1.15-17.76-.31-26.8-.48-8.5-.16-16,3-24.59.93-5.21-1.26-9.85.1-15,1.14l1,.53c3-4,2.13-9.3,4.89-13.35.51-.76-1.44-.6-1.81-.06Z"/><path class="cls-9" d="M205.14,279.66a71,71,0,0,0-2.09,16l1.94-.24c0-2.06.08-1.83,2.08-2.41a37.89,37.89,0,0,0,6.83-2.88c5-2.6,10.58-1.82,15.61-4.19,1.21-.58.1-1.24-.77-.83-3.87,1.83-8,.87-11.78,2.43-4.28,1.75-7.94,4.48-12.71,4.78-.29,0-1,.26-1,.67v2.67c0,.82,1.82.41,1.83-.24a70.32,70.32,0,0,1,2-16c.18-.74-1.82-.44-2,.23Z"/><path class="cls-9" d="M236.87,268.62c15.3.59,30.64-.64,45.92-1.14,13.35-.44,26.53,1,39.86,1.14.44,0,2.21-.84,1.23-.85-12.39-.1-24.68-1.51-37.08-1.23-16.22.37-32.46,1.86-48.69,1.23-.45,0-2.22.81-1.24.85Z"/><path class="cls-9" d="M321.6,272.31c0,2.8-.2,6.35,2.16,8.29.48.39,1.71.18,1.87-.5.44-1.94-.48-4.27-1-6.11-.72-2.5-1.62-4.94-2.48-7.39l-1.86.65,1.87,3c.8,1.28,2.13,1.63,2.59,3.34.88,3.19-1.07,6.46-.35,9.56.17.73,2.1.23,1.93-.51-.7-3,.93-6.39.36-9.56a4.47,4.47,0,0,0-.72-1.76c-.44-.6-1.53-1.06-1.86-1.59-.68-1.08-1.36-2.16-2-3.25-.33-.52-2.1,0-1.86.65.69,2,1.4,4,2,6s1.95,5,1.44,7.23l1.86-.49c-2.19-1.8-2-5.17-2-7.74,0-.86-1.93-.46-1.93.22Z"/><path class="cls-9" d="M239.29,271.61h-1.4c-.42,0-2,.93-1,1,24.8,1.14,49.13-5.78,73.92-4.64.48,0,2.23-.84,1.22-.89-13.08-.6-26.17-.1-39.24.5-10.85.5-22.81-1-33.3,2.26-1.12.35-.93,1.11.21.76,10.07-3.16,21.84-1.6,32.3-2.09,12.92-.61,25.87-1.1,38.81-.51l1.22-.9c-24.8-1.14-49.13,5.78-73.92,4.65-.33.3-.67.88-1,.88h1.4c.6,0,2.09-1,.8-1Z"/><path class="cls-9" d="M209.46,278c6.51-1.22,12.56-4.45,19.28-4.65.65,0,2.09-1,.77-1-6.84,0-13.62-.42-19.81,2.93-.75.41-.16.86.45.76,6.17-1,11.3-5,17.44-6,.89-.14,1.62-1.21.28-1-6.16,1-11.3,5-17.43,6l.45.76c5.52-3,11.79-2.45,17.85-2.41l.77-1c-6.93.21-13.07,3.44-19.77,4.69-.88.17-1.62,1.25-.28,1Z"/><path class="cls-9" d="M207.85,276.19c7.57.49,15-3,21.68-6.15,1.21-.57.12-1.46-.82-1-6.19,3-13.14,6.33-20.16,5.87-.87-.05-2,1.21-.7,1.3Z"/><path class="cls-9" d="M237.69,265.15c-2.51-3.74-1.19-7.34,2-10.15.1-.08.25-.26.19-.41-1.1-2.66-3.38-5.67-.56-8.47,1-.94,1.92-1.4,2.59-2.6,1.07-2-1.19-5.59-1.59-7.56-.73-3.66,2.54-6,4.23-9,1.6-2.82-2.79-7.47-.6-9.54.86-.81,2.07-3.74,1.51-4.94a8.55,8.55,0,0,0-1.57-2c-3.3-3.63,1.25-5.31,2.9-7.7.16-.23.06-.67.06-.94-.56-1-1.15-1.92-1.78-2.84-1.2-2.2-1.28-5.1.72-6.93s3.29-3,1.61-5.63-2.76-3.55-1.08-6.55c.67-1.2,1.81-2.2,2.2-3.56a6.47,6.47,0,0,0,.22-3.48c-.36-1.67-4.42-3.21-1.21-5.43,2-1.37,2.46-2.61,2.39-5.08s-3.25-5.59-.83-8a7.79,7.79,0,0,0,1.79-2.56,2.72,2.72,0,0,0-.24-2.42c-2-2.57-1.64-4.3.25-6.63,1.25-1.54,2.43-4.16,1.26-6.13-2.26-3.79.6-5.69,1.18-9.25.73-4.48-3.07-6.4,2.22-9.72,1.11-.7-.58-1-1.19-.57-1.59,1-4.3,2.5-4,4.8.2,1.3.66,2.52.93,3.8.63,3-1.24,4.33-2.65,6.55a3.07,3.07,0,0,0,0,2.6c1.44,2.41,2.68,4.41.94,7.18-1.52,2.42-3.9,4.53-1.51,7.19s-.39,4.31-1.74,6.2c-.66.91.16,3,.43,3.86,1,2.92,2.3,5.71-1.17,8.11-.51.35-1.64,1.64-1.42,2.33a8.74,8.74,0,0,0,2.13,3c2,2.34-.57,5.38-1.84,7.23a5.59,5.59,0,0,0-1.06,3.18c.14,2.46,4.37,5.72,1.57,8.14s-3.25,4.76-1.89,8.33c1,2.59,2.42,2.69,0,4.95a6.78,6.78,0,0,0-2.36,4.44c-.13,1,1.55,2.55,2.08,3.14.81.9.69,4.18-.42,5.11-3.69,3.1.73,5.46.55,9.06-.15,3.07-5,5.09-4.91,8.19.07,4.18,3.92,8.16-.27,11.4a6,6,0,0,0-1.91,3.15c-.77,2.31,3,4.55,1.08,6.83-2.66,3.15-3.38,6.59-1,10.11.36.54,2.23-.09,1.79-.75Z"/><path class="cls-9" d="M209.87,274c-.44-1.18-1.88-4.36-.21-5.28a27.15,27.15,0,0,0,3-1.9c3.06-2.29-3.23-5.39,1.3-7.36,1.9-.83,1.92-3,2.09-4.8.23-2.37-.35-4.43.26-6.82.34-1.33,1.83-2.66,2.57-3.81,1.43-2.24-1.92-2.51,1.52-5.32.86-.7,2.23-1.26,2.79-2.3,1.42-2.65-.38-3.91-.81-6.47-.53-3.14,2.57-6.28,3.18-9.22a25,25,0,0,0,.13-6c-.09-3,1.55-5.14,3.3-7.38,1.55-2,1.72-3.55,1.76-6.06.07-4.4,2.1-9.81,3.81-13.85.92-2.14,2.09-5.16.07-7.12-.91-.88,1.32-2.93,1.22-4.24-.31-3.74.88-5.19,2.8-8.24s.85-7.93.67-11.25a13.39,13.39,0,0,1,1.56-7.12c.5-.93,1.83-2.46,1.72-3.59-.32-3.22-.79-3.54,1.23-6l-1.86.5.15.05c.38.12,1.82-.05,1.88-.58.39-3.46-2.85-6,0-9.09,1.65-1.79,1.4-3,0-4.92l-1.16.57a7.94,7.94,0,0,0,3.36-1.13c2.24-1.86,1.87-4.88,4.53-6.53.79-.49-1.14-.19-1.46,0-2.76,1.71-2.78,6.35-6.05,7-.09,0-1.32.35-1.16.57,2.25,3.08.14,3.9-1.24,6.52-1,2,1.5,5.25,1.24,7.5l1.88-.58-.15,0a2.11,2.11,0,0,0-1.86.5,7.17,7.17,0,0,1-1.73,1.87c-.07,0-.25.14-.23.26.54,3.55.11,5.38-1.58,8.54s-.9,7.55-.72,11c.22,4.25-1.42,6.58-3.51,9.89-1.87,3,1.65,5.45-2.32,7.68-.11.06-.32.19-.18.32,4.42,4.29-.25,10.66-1.5,15.64-.89,3.53-.51,8.58-2.53,11.54-2.84,4.14-4,6-3.74,11.2.25,4.51-3.11,7.9-3.44,12.29-.11,1.41,1.25,2.79,1.53,4.16.71,3.52-3.4,3-4.31,5.11-.82,1.9-.13,3.79-1.25,5.55-.82,1.27-2,2.3-2.25,3.88-.45,3.17.25,6.1-.68,9.27-.25.86-2.7,1.83-3.41,2.58-.5.53.88,2.66,1.11,3.14,1.33,2.85-2.75,4.26-4.59,5.54a.17.17,0,0,0-.1.16c.58,1.54.82,3.14,1.39,4.67.16.41,2.06-.19,1.94-.51Z"/><path class="cls-9" d="M258.59,118.67c2.73-.73,5.61-.92,8.37-1.5,1-.22,1-1.56-.1-1.56H257.8c0,1,.06,1.09.1,1.56A66.79,66.79,0,0,1,273,116c1.11,0,1.48-1.4.17-1.4a69.94,69.94,0,0,0-15.61,1.52c-1,.23-1,1.53.1,1.53h9.07c0-1-.07-1-.1-1.51-2.77.58-5.63.54-8.37,1.28-1.19.32-.83,1.61.36,1.29Z"/><path class="cls-9" d="M325.54,267.09c-2.62-3.3,1.34-8.67-2.3-11.75-2.3-1.94-3.54.81-2.59-3.46.6-2.69,1.14-4.52-1-6.4a2.51,2.51,0,0,0-1.63-.34c-2.36.22-2.17-2.08-2-3.78.21-2.14.82-4.2.38-6.35-.31-1.53-1.8-2.08-3.14-2.35-2.17-.43-1.44-1.52-1.35-3.74a13.53,13.53,0,0,0-.88-5.71.83.83,0,0,0-.89-.48c-3.32.39-1.94-5.52-2.06-7.38a4.71,4.71,0,0,0-2.42-4c-2.5-1.45-1.36-3.78-1-6.47.2-1.48.41-4.22-1.11-5.21a4.26,4.26,0,0,0-1.89-.84c-.7-.06.57-5.09.48-5.68-.54-3.5-5.31-4.53-5.1-8,.15-2.56.7-5,0-7.51-.62-2.18-3.47-2-3.38-4.07.1-2.25.47-5.17-.65-7.25-.82-1.51-3.61-2.43-3.52-3.83.24-4,1.35-10.17-3.66-11.63-1.11-.32-.27-6.82-.61-8.34-.65-2.87-4.21-2.94-4.66-5.9-.64-4.17-.31-9.36-6-8.61l.85.87c.8-2.64,2.67-11.3-2.51-10.17-1.22.27-.83,1.66.37,1.4,2.05-.45.56,7.61.28,8.52-.16.54.31.94.86.87,5.19-.69,3.51,6.59,4.68,9.53.75,1.86,3.25,1.89,4.19,4,1,2.32.06,6,0,8.49a.68.68,0,0,0,.66.67c5.6.47,3.62,8.24,3.52,12,0,.41.3.59.66.67,4.94,1.05,3.6,7.05,3.53,10.68,0,.4.29.6.65.67,5.35,1,2.33,7.35,2.77,10.86A4.37,4.37,0,0,0,296.9,190c3.81,3.13,2.72,5.5,2.37,9.55a.67.67,0,0,0,.65.67c5,.43,1.85,8.41,2.15,11.54,0,.29.41.44.64.48,5.6.85,2.27,7.11,3.64,10.69a2.31,2.31,0,0,0,1.85,1.37c3,.22,1.58,7.11,1.53,9.3a.76.76,0,0,0,.91.68c6.41-.63,2.79,6.81,3.43,10.41a2.66,2.66,0,0,0,1.77,2.05c5.12.72,2.52,5.65,2.26,8.89,0,.48.49.72.9.68,6.89-.7,2.1,8.32,4.78,11.71.57.72,2.4-.07,1.76-.88Z"/><path class="cls-9" d="M236.43,255.43c10,0,20,.22,30-.33,11.39-.63,22.7-2.09,34.13-1.68.77,0,2-1.11.74-1.16-10.31-.37-20.55.67-30.81,1.44-11.09.84-22.23.57-33.35.57-.76,0-2,1.16-.73,1.16Z"/><path class="cls-9" d="M240.62,244.78c10.73.06,20.87.08,31.49-1.62a114.59,114.59,0,0,1,15.27-1.1c5.93-.15,11.71-1.79,17.64-2,1,0,1.55-1.26.22-1.22-4.7.13-9.3,1-14,1.64-5.14.67-10.38.39-15.55,1-5.41.59-10.69,1.81-16.15,2.12-6.07.36-12.18,0-18.25,0-.81,0-2,1.22-.71,1.23Z"/><path class="cls-9" d="M308,224.13a194,194,0,0,0-21.27,1.59c-3.46.38-6.94.3-10.4.61-4.28.37-8.26,1.22-12.49-.15-.79-.25-2.28.88-1.13,1.26,6.36,2.05,13.63.23,20.17-.07,8.37-.39,16.51-1.88,24.93-1.89,1.08,0,1.5-1.35.19-1.35Z"/><path class="cls-9" d="M302.72,210.89c-11-.52-21.81,1.87-32.78,2-.73,0-2.05,1.13-.74,1.12,11-.14,21.79-2.52,32.77-2,.75,0,2.06-1.06.75-1.12Z"/><path class="cls-9" d="M298.78,199.16c-7.06,1.84-14.38,1.28-21.61,1.24-.38,0-2.19.75-1.26.75,7.74,0,15.46.52,23-1.44,1.13-.29,1-.84-.15-.55Z"/><path class="cls-9" d="M246.63,191.16c8.62-.09,17.18-1.24,25.8-1.34.41,0,2.2-.81,1.25-.8-8.62.1-17.18,1.25-25.8,1.34-.41,0-2.2.81-1.25.8Z"/><path class="cls-9" d="M246.88,176.61a88.66,88.66,0,0,0,22.82-2.74c1.15-.31.9-1.25-.26-.94a84.72,84.72,0,0,1-21.81,2.61c-.7,0-2.06,1.08-.75,1.07Z"/><path class="cls-9" d="M249.41,165.77c7.07-.17,14.12-1.9,21.13-2.68.47-.06,2.11-.88.85-.73-6.88.77-13.79,2.49-20.72,2.66-.37,0-2.18.77-1.26.75Z"/><path class="cls-9" d="M248.84,154.75c4.45-1.26,9.14-.66,13.68-1.29,1.1-.15,1.46-1.69.15-1.51-4.73.66-9.57.06-14.21,1.38-1.2.34-.82,1.77.38,1.42Z"/><path class="cls-9" d="M277.76,138c-4,.7-8,.85-11.86,2-1.17.35-.83,1.67.36,1.32,3.88-1.15,7.89-1.3,11.85-2,1.23-.22.84-1.53-.35-1.32Z"/><path class="cls-9" d="M272.76,130.22a39.62,39.62,0,0,0-11.66,2.08c-1.12.35-.93,1.12.2.76A36.19,36.19,0,0,1,272,131.14c.6,0,2.09-.94.8-.92Z"/><path class="cls-9" d="M214.36,266.78c4.45-.81,8.54-2.65,12.81-4.06,1.14-.37.88-1.45-.28-1.06-4.09,1.34-8,3.18-12.29,3.95-.95.17-1.56,1.41-.24,1.17Z"/><path class="cls-9" d="M238.5,244.43c-5.45,2.15-11.2,3.41-16.73,5.34-1.28.45-.11,1.11.76.8,5.54-1.93,11.28-3.19,16.74-5.34,1.26-.49.11-1.14-.77-.8Z"/><path class="cls-9" d="M238,232.26c-4,.84-7.65,2.63-11.41,4.1-1.25.48-.12,1.29.8.93,3.6-1.4,7.11-3.11,10.91-3.92,1.2-.25.88-1.36-.3-1.11Z"/><path class="cls-9" d="M241.39,220.38a23.16,23.16,0,0,0-9.35,2.26c-1.16.54.65.55,1.14.32a18.16,18.16,0,0,1,7.39-1.74c.55,0,2.1-.86.82-.84Z"/><path class="cls-9" d="M240.68,209a21.16,21.16,0,0,0-6.08.74c-.2.07-1,.29-.86.64s.86.17,1.06.11a17.41,17.41,0,0,1,5.08-.59c.6,0,2.1-.9.8-.9Z"/><path class="cls-9" d="M229.9,206.43a44.18,44.18,0,0,0,8.15-3.52c1.15-.56-.65-.5-1.12-.27a39.64,39.64,0,0,1-7.19,3.16c-1.14.29-1,.92.16.63Z"/><path class="cls-9" d="M231.84,193.51c2.62-.07,4.8-1.23,7.23-2,1.17-.39.81-1.81-.37-1.41-2.25.76-4.29,1.9-6.71,2-1.13,0-1.46,1.54-.15,1.5Z"/><path class="cls-9" d="M232.28,179.45c2.68.57,5.81.28,7.95-1.6,1-.86-.56-1.53-1.29-.89-1.65,1.46-3.94,1.51-6,1.08-.95-.21-1.94,1.14-.66,1.41Z"/><path class="cls-9" d="M244.15,168.21c-1.56,0-3.38,0-4.64,1-.3.26-.22.57.17.64a1.78,1.78,0,0,0,1.37-.37c.54-.46,1.68-.28,2.33-.28a1.65,1.65,0,0,0,1.28-.52c.28-.37-.23-.52-.51-.52Z"/><path class="cls-9" d="M246,158.69a4,4,0,0,0-2.82.93c-1,.88.56,1.5,1.28.86a1.7,1.7,0,0,1,1.36-.4,1.11,1.11,0,0,0,1.07-.77c.06-.51-.52-.62-.89-.62Z"/><path class="cls-9" d="M242.45,154.61h-.7a1.34,1.34,0,0,0-1.06,1.06,1,1,0,0,0,.91.94h.7a1.32,1.32,0,0,0,1-1.06,1,1,0,0,0-.9-.94Z"/><path class="cls-9" d="M239.77,114.73c-4.21.2-9.31,3.61-8,8.36a.81.81,0,0,0,.89.5c4-.48,7.71,1.29,11.61,2,1,.19,1.93-1.26.64-1.49-4.09-.74-7.87-2.52-12.1-2l.89.5c-1-3.6,2.7-6.17,5.94-6.32,1.13-.06,1.45-1.58.14-1.52Z"/><path class="cls-9" d="M239.49,115.15c2.67,2.66,8,3.07,10.84.26l-1.78.4c3.43,2.32,10.65,5.53,13,.17l-1.86.5a6,6,0,0,0,4.63.63c4.23-.82,7.7-2.28,12.11-.32,3.51,1.56,6.66,1.11,8.83-2.14l-1.75.54c.18.06,5.4,1.89,3.08,3.43a5.31,5.31,0,0,0-1.91,1.64c-1.19,2.46-3,3.07-5.29,4.56-.8.52,1.14.25,1.47,0a22.7,22.7,0,0,1,4.47-2.49c.21-.08.6-.19.64-.46l3.07-3.63c.08,0,.49-.22.42-.37-1-2-2.33-2.73-4.36-3.44a2,2,0,0,0-1.74.54c-2.55,3.83-7.54-.48-11.05-.62s-7.47,3.4-10.8,1.45a2,2,0,0,0-1.86.5c-1.73,3.9-7.22.23-9.3-1.17-.4-.26-1.48.11-1.78.41-2.16,2.17-5.61.59-7.28-1.07-.35-.34-2.1.37-1.82.65Z"/><path class="cls-9" d="M233.21,106.75c-2.64,3.92-1.48,9.73-2.15,14.18-.13.87,1.79.51,1.94-.2.9-4.33,3.21-8.16,5.52-11.86.54-.88-1.35-.6-1.7-.27a17.09,17.09,0,0,1-3.32,2.54l1.53.4a37.13,37.13,0,0,1,3.36-5.19l-1.69-.26a61.92,61.92,0,0,0-5.64,11.5c-.27.75,1.68.51,1.94-.2a60,60,0,0,1,5.52-11.19c.52-.85-1.34-.66-1.7-.27-1.5,1.64-2.4,3.65-3.61,5.5-.56.85,1.22.58,1.53.4a18.4,18.4,0,0,0,3.65-2.81l-1.69-.26c-2.37,3.8-4.72,7.74-5.64,12.17l1.94-.2c.65-4.29-.51-10.11,2-13.86.54-.81-1.42-.7-1.82-.12Z"/><path class="cls-9" d="M285.13,105.87c-1.35.95-.79,3-.52,4.37a18.07,18.07,0,0,0,2.31,6.29c.33.52,2.21-.1,1.79-.75a17.12,17.12,0,0,1-1.85-4.71c-.19-.68-1.22-4.18-.54-4.66,1.07-.75-.6-1-1.19-.54Z"/><path class="cls-9" d="M239.77,105.19c9-.13,18.17-1.06,27.16-1.82,6.3-.53,14.27-1.59,20.31.74,3,1.15,2.41,5.12,2.4,7.63l1.93-.51c0-3-.16-5.6-2.09-8-.28-.34-2.07.11-1.93.52,1.53,4.59,2.57,9.16,2.09,14l1.93-.52a57.77,57.77,0,0,0-.7-10c-.06-.39-1.94,0-1.93.52a44.11,44.11,0,0,0,1.4,9.34c.1.41,2-.09,1.93-.52a44.67,44.67,0,0,1-1.4-9.34l-1.93.52a57.77,57.77,0,0,1,.7,10c0,.31,1.88,0,1.93-.52.49-4.86-.56-9.43-2.09-14l-1.93.52c1.93,2.42,2.07,5,2.09,8,0,.31,1.93,0,1.93-.51,0-2.64.45-5.57-1.81-7.39-3.32-2.68-10.69-1.73-14.48-1.66-11.43.23-22.82,2.07-34.25,2.24-.4,0-2.2.79-1.26.77Z"/><path class="cls-9" d="M236,90.92a65.74,65.74,0,0,0-.66,11.48,13.43,13.43,0,0,1,2-.52V90.53c0-.53-2-.18-2,.52v12a14,14,0,0,0,1.92-.51c-.14-6.42-3.37-17.39,6-18.62,5.91-.77,11.75-2,17.65-2.84,6.88-1,15.7-2.36,21.93,1.55,7.19,4.51,1.5,13.53,4.8,19.76.32.61,2.18,0,1.93-.52-3.87-7.31,2.65-16.18-6.68-21-6.62-3.4-16-1.66-22.94-.61-3.9.59-7.76,1.39-11.65,2-2.9.45-7.32.18-9.88,1.85-5.79,3.78-3.17,13.23-3,18.92,0,.55,2,.17,2-.51v-12c0-.53-2-.18-2,.52V102.4c0,.52,1.92.18,1.92-.52a65.86,65.86,0,0,1,.69-11.23c.12-.67-1.82-.33-1.92.27Z"/><path class="cls-9" d="M233.15,88.38c-.05,5.35-.64,10.67-.69,16,0,.46,1.92.14,1.93-.52.05-5.35.64-10.67.7-16,0-.46-1.93-.14-1.94.52Z"/><path class="cls-9" d="M260.73,57.84c-1,.27-.58.08.14.76s1.38,1.43,2.05,2.16c1.76,1.93,3.46,3.92,5.15,5.9,2.78,3.25,5.37,6.77,8.38,9.8.44.44,2.26-.26,1.8-.72-3.54-3.57-6.59-7.74-9.87-11.55-1.33-1.55-5.3-7.92-7.88-7.21-1.14.32-.91,1.17.23.86Z"/><path class="cls-9" d="M259.41,66c-1,1.08-1.72,0-.64,1A15.76,15.76,0,0,1,260,68.22c1.24,1.34,2.38,2.79,3.51,4.23,2,2.58,4,5.22,5.93,7.92l1.93-.52A165.29,165.29,0,0,0,258,63.75c-.33-.36-2.07.31-1.88.59a43.72,43.72,0,0,0,4.25,5.42c.36.38,2.15-.32,1.81-.67a41.86,41.86,0,0,1-4.12-5.26l-1.88.59a162.36,162.36,0,0,1,13.2,16c.35.5,2.11-.26,1.93-.52-2.43-3.47-5-6.85-7.68-10.12-1-1.27-3.89-5.81-6-3.59-.44.46,1.42.24,1.76-.11Z"/><path class="cls-9" d="M244,80.31c5.64-4.82,10.37-10.55,15.34-16,.79-.87-.93-.85-1.4-.54a50.44,50.44,0,0,0-15.63,16.31c-.55.91,1.36.52,1.69.25,3.76-3.07,6.25-7.27,8.49-11.5.46-.87-1.48-.72-1.81-.1-2.19,4.12-4.59,8.21-8.25,11.19l1.69.26a48.79,48.79,0,0,1,15-15.74l-1.4-.54c-5,5.48-9.7,11.2-15.34,16-.87.75,1,.86,1.57.41Z"/><path class="cls-9" d="M232.3,84c4.22-11.59,16.11-18.13,22.26-28.54.53-.91-1.34-.67-1.71-.3a34.05,34.05,0,0,0-7.09,9.51c-.38.79.91.74,1.32.55,4.08-1.87,7.57-5,10.84-8a58.54,58.54,0,0,0,5.94-6.36c.48-.59.91-1.21,1.34-1.84.72-1,.74-1.66.69-1.66.38,0,1.37-.17,1.37-.73V45.3c-1,.24-.93.48-1.37.72,3,.37,3.09,3.08,2.05,5.28-.71,1.5-5.32,2.19-7,3-1.22.55-.12,1.39.81,1,2.9-1.31,7.41-.86,8.47-4.8.83-3.09-.47-5.28-3.63-5.66-.38-.05-1.31.2-1.31.72v1.34c0-.25.85-.22,1.29-1.22h-.7a1.58,1.58,0,0,0-1.26.81c-3.1,6.92-11.48,14.6-18.32,17.72.44.19.88.43,1.31.62a32.88,32.88,0,0,1,6.86-9.16l-1.71-.28c-6.23,10.56-18.08,17.09-22.37,28.88-.28.77,1.68.54,1.94-.18Z"/><path class="cls-9" d="M251.75,53c-2.86-2.18-4.8-5.2-7-8-.35-.46-2,0-1.86.63.9,3.64,3.37,6.58,5.64,9.47l1.8-.76a27,27,0,0,1-6.21-8.56l-1.34.81c2.47-.13,5.85-2,7.49.48,1.45,2.16,1.93,4.92,3.08,7.24.32.66,2.2,0,1.93-.52-1.29-2.61-1.89-5.51-3.53-8s-5.85-.47-8.22-.34c-.27,0-1.58.25-1.34.8a27.87,27.87,0,0,0,6.34,8.8c.45.43,2.29-.14,1.8-.76-2.22-2.82-4.62-5.67-5.51-9.23l-1.87.64c2.17,2.81,4.12,5.83,7,8,.54.41,2.32-.35,1.79-.75Z"/><path class="cls-9" d="M257.25,50.16a3,3,0,0,0-1,.27,1.14,1.14,0,0,0-.39.25c-.28.22-.5.21,0,.14.28.16.56.32.85.47,0-1.53-.16-3.11.53-4.52-.63,0-1,0-2,.07v6c0,.87,2,.48,2-.21v-6c0-.84-1.55-.46-1.8.07a10.67,10.67,0,0,0-.73,4.82c0,.44.51.52.87.47a3.32,3.32,0,0,0,1-.27,1.28,1.28,0,0,0,.4-.25c.27-.22.5-.21,0-.15,1-.13,1.57-1.34.24-1.15Z"/><path class="cls-9" d="M249.67,62.12l.69-1.34-1.87.08c-2.51,9-7.21,17.17-11.79,25.22l1.81.07c3.28-7.59,6.36-15.23,11.16-22,.56-.79-1.43-.52-1.81-.07-3.6,4.28-9.25,9.64-9.83,15.5-.08.83,1.87.47,1.94-.22.56-5.68,6.19-11,9.7-15.21l-1.81-.07c-4.8,6.79-7.88,14.44-11.16,22-.39.92,1.5.63,1.81.07,4.63-8.14,9.37-16.45,11.92-25.51.21-.78-1.63-.4-1.87.07l-.7,1.34c-.44.85,1.5.66,1.81.07Z"/><path class="cls-9" d="M257,72.38c-3.12.67-4.34,6-5,8.54-.18.64,1.62.1,1.84-.18a29.2,29.2,0,0,0,5.66-13.47c.11-.68-1.5-.08-1.72.07a19.45,19.45,0,0,0-5.95,5.79c-.81,1.31-.91,4.35,1.22,4.39,3.57.06,5.76-4.94,7.14-7.58.27-.5-1.59-.1-1.84.18a6.62,6.62,0,0,0-1.48,6.24c.16.59,1.62,0,1.85-.29a8.4,8.4,0,0,0,2.18-5.57L259,71a21.91,21.91,0,0,0,1.4,6c.19.56,1.93,0,1.93-.52a22.41,22.41,0,0,0-.7-6.68l-1.87.61c1.34,1.83,2.86,3.51,4.19,5.34.31.44,2.18-.19,1.81-.7-1.34-1.83-2.85-3.51-4.19-5.34-.27-.38-2,.1-1.87.61a22.41,22.41,0,0,1,.7,6.68l1.93-.52a21.89,21.89,0,0,1-1.39-6c0-.49-1.9-.08-1.94.52a7.6,7.6,0,0,1-2,5.11l1.85-.29a6.09,6.09,0,0,1,1.32-5.78l-1.84.18c-.38.73-3.66,6.72-4.39,6.25-1.86-1.19.05-4,.9-5.09a19.7,19.7,0,0,1,4.5-3.89l-1.71.06a28.74,28.74,0,0,1-5.51,13.24l1.85-.18a36.39,36.39,0,0,1,1.16-3.48c.29-.72,1.32-3.83,2.16-4,1.17-.24.94-1-.2-.76Z"/><path class="cls-9" d="M247.08,105a5.89,5.89,0,0,0-4.77,2.36c-.27.36-.51.75-.76,1.13s-.77.9-.73,1.21c.13.92,1.24.84,2,.85s2.1-.87.81-.88c-.71,0-.94-.24-.54-.83s.58-.92.89-1.37a2.88,2.88,0,0,1,2.33-1.6,2,2,0,0,0,1.29-.48c.3-.33-.27-.4-.48-.39Z"/><path class="cls-9" d="M250.48,107.1a4.67,4.67,0,0,0-2.2,1.74c-.47.91.31,1.49,1.11,1.77a1.68,1.68,0,0,0,1.36-.19c.22-.13.63-.58.18-.73s-1.08-.39-.81-.91a2.44,2.44,0,0,1,1.11-.92c.21-.1.84-.44.52-.76s-.95-.16-1.27,0Z"/><path class="cls-9" d="M252.52,106.68c0-.21-.06-.17-.28.12l-1,.27c-.35-.15-.45-.16-.3,0a1,1,0,0,1,.17.37,2.94,2.94,0,0,1,.14,1c0,.56,1.36.1,1.56,0,1-.54,1.75-1.48,2.79-2,.25-.13.6-.53.18-.7a1.68,1.68,0,0,0-1.36.19c-1,.53-1.75,1.48-2.79,2h1.56c0-.58-.11-1.52-.75-1.79s-1.83.09-1.88.84,1.89.34,1.93-.26Z"/><path class="cls-9" d="M257.26,105.07v4.67c0,.47,1.48-.14,1.64-.32.57-.61.74-1.4,1.3-2,.3-.32-.31-.35-.51-.33a2.2,2.2,0,0,0-1.32.46c-.56.61-.61,1.4-1.17,2,.61-.1,1.06-.21,2.06-.32v-4.67c0-.34-2-.06-2,.52Z"/><path class="cls-9" d="M258.26,105.07a3.55,3.55,0,0,0,.63,1.65,4.61,4.61,0,0,1,.76,2.35c0,.24.44.31.6.31a4.55,4.55,0,0,0,1.64-.17c.81-.28,1.05-1,1.6-1.56.79-.83-1.1-.83-1.56-.35a9.62,9.62,0,0,0-.82,1.25c.13-.19.85.06.3.06H261a1.13,1.13,0,0,1,.59.13,4.75,4.75,0,0,0-.63-2.24,4.31,4.31,0,0,1-.76-1.9c0-.66-2-.31-1.93.47Z"/><path class="cls-9" d="M265.26,106.4v2c0,.28.67.2.79.18a1.81,1.81,0,0,0,1-.47l1.39-1.33c.34-.32-.29-.44-.49-.43a1.93,1.93,0,0,0-1.28.49c-.47.45-.89.89-1.35,1.34a17.94,17.94,0,0,1,1.9-.29v-2c0-.44-2-.13-2,.52Z"/><path class="cls-9" d="M267,106a8.63,8.63,0,0,0,4.36-.73c.75-.31,1.45-.72,2.19-1.07,1.31-.63,2.09-.08,2.9,1,.39.51,2.25-.15,1.8-.74-3.09-4.06-6.46.92-10.06.52-.59-.06-2.27.91-1.19,1Z"/><path class="cls-9" d="M237.5,102.39c10.36-5.88,23.24-3.18,34.59-3.08.68,0,2.07-1,.77-1-12.15-.11-25.43-2.7-36.54,3.6-1.13.65.59.84,1.18.51Z"/><path class="cls-9" d="M240.67,99.83c6.64-.84,13.08-3,19.85-2,.44.07,2.08-.64,1.59-.72-7.06-1.07-13.64,1.12-20.59,2-.47.06-2.11.89-.85.73Z"/><path class="cls-9" d="M236.27,99.16C243,99,249.4,97.27,256,96.48c.45,0,2.11-.85.85-.7-6.46.77-12.79,2.51-19.32,2.66-.36,0-2.18.74-1.27.72Z"/><path class="cls-9" d="M236.76,97.93l16.73-2c.88-.1,1.65-1.08.31-.92l-16.74,2c-.88.11-1.65,1.09-.3.93Z"/><path class="cls-9" d="M239.17,95.42c3-.67,6.06-.79,9.06-1.34,1.22-.22.86-1.46-.33-1.25-3,.55-6.08.67-9.07,1.34-1.2.27-.85,1.52.34,1.25Z"/><path class="cls-9" d="M238.9,92.79a57.79,57.79,0,0,0,14.21-2.05c1.19-.31.86-1.55-.33-1.24a55.59,55.59,0,0,1-13.68,2c-1.07,0-1.51,1.35-.2,1.33Z"/><path class="cls-9" d="M272.57,85.82c2.86-.7,6-1.81,8.88-.63.48.2,2.25-.54,1.57-.82-3.41-1.4-7.26-.12-10.65.71-1.14.28-.94,1,.2.74Z"/><path class="cls-9" d="M277,89.92a20.48,20.48,0,0,0,6.08-.74c.22-.07,1-.29.86-.65s-.85-.2-1.07-.14a16.75,16.75,0,0,1-5.08.59c-.62,0-2.09.94-.79.94Z"/><path class="cls-9" d="M278.4,93.42a3.49,3.49,0,0,1,2.25.44,1.2,1.2,0,0,0,1.29.09c.24-.11.85-.58.49-.89a4.89,4.89,0,0,0-3.33-.9,1.41,1.41,0,0,0-1.26.56c-.23.4.19.7.56.7Z"/><path class="cls-9" d="M283.24,99.61h2.1a1.71,1.71,0,0,0,1.28-.51c.28-.36-.24-.49-.51-.49H284a1.68,1.68,0,0,0-1.28.51c-.28.36.24.49.5.49Z"/><path class="cls-9" d="M252.66,58.4c-8.69,10.62-17.5,21.16-26,32-8.85,11.3-16.76,23.12-24.72,35-15.21,22.77-32.3,44.24-49.89,65.21s-35.83,41-53.29,62C84,270.35,65.11,284.9,47.54,299.83c-.09.08-.13.15,0,.23l.18-.06,1.5-.08.18-.36c.11-.21-1.65-.11-1.9.36-.06.12-.12.24-.19.36-.19.37,1.38,0,1.5-.08l.38-.18c.11,0,.55-.24.36-.42.3.29,22.51-19.4,24.39-21.06,8.39-7.41,16.76-15,24.22-23.36,18.17-20.38,35.9-41.25,53.52-62.11,18.06-21.39,35.51-43.33,51.23-66.51,8-11.85,15.81-23.73,24.58-35.07s18-22.34,27.11-33.45a2.75,2.75,0,0,0-1.9.36Z"/><path class="cls-9" d="M60.9,289.54c1.5,11.54-.71,23.06-.84,34.62,0,.54,1.8.09,1.93-.4,1.37-5.49,6.43-7.35,11.26-9.1,2.72-1,7.77-2,9.69-4.46.57-.72.06-3.82,0-4.72a74.65,74.65,0,0,0-.81-10c-.94-6.13-4.78-11.12-6.73-16.91-.2-.6-2.12,0-1.93.52,1.78,5.29,5,9.9,6.45,15.33a48.19,48.19,0,0,1,1,10c.18,4.19.08,6.25-4.14,8C70.59,315,62,316.37,60.07,324l1.92-.39c.13-11.57,2.34-23.06.84-34.62-.07-.56-2-.13-1.93.52Z"/><path class="cls-9" d="M77.72,277.46c1.4,7.94,9.68,4.49,15.35,6.56,7.88,2.87,10,11.83,10.72,19.2,0,.34,1.81-.1,1.92-.44a36.41,36.41,0,0,1,13.37-18.42c.16-.13.09-.22-.07-.26-6-1.49-5.23-9.89-11.88-11.58-3.41-.87-7-.44-10.54-.69a22.33,22.33,0,0,1-11.94-4.61c-.41-.3-2.05.48-1.83.64a23.91,23.91,0,0,0,13.87,4.8c6.48.24,12.49,0,15.44,7a9.75,9.75,0,0,0,2.77,4.27s2.31.71,1.21,1.53a41.68,41.68,0,0,0-3.35,2.88,34.6,34.6,0,0,0-9,14.81l1.91-.44c-.73-7-2.42-14-8.52-18.15-5.62-3.85-16.1.6-17.55-7.62-.06-.34-2,.09-1.93.52Z"/><path class="cls-9" d="M92.27,262.38c8.82-1.89,12.45,6.74,18.92,10.39,4.51,2.55,10.42-.67,15-.67a1.44,1.44,0,0,0,1.35-.66,78.06,78.06,0,0,1,10-16.77c.28-.37-.23-.54-.52-.55-10.78-.16-20.86-3.63-27.23-12.72-.37-.52-2.24.12-1.8.75,4.69,6.68,11.36,10.46,19.24,12.19a34.17,34.17,0,0,0,4.52.65c1,.09,2,.15,3,.18.63,0-1.9,3.46-2,3.59a64.29,64.29,0,0,0-7.16,12.93L127,271a32.89,32.89,0,0,0-8.4,1.24c-5.64,1.41-9.21-2.56-12.64-6.27A14.08,14.08,0,0,0,92,261.44c-1.18.25-.91,1.18.25.94Z"/><path class="cls-9" d="M117.87,236a23.44,23.44,0,0,1,11.19,3.13c3,1.66,4.48,5.47,6.77,7.9a1.24,1.24,0,0,0,1.68-.17c5.29-6.33,7.09-17.67,16.19-19.76.49-.12,1.32-1,.4-1.22-6.85-1.45-18.38.29-21.47-7.7-.31-.81-2.23-.26-1.93.52,3.33,8.62,15,6.85,22.27,8.4l.4-1.21c-10,2.31-11.68,13.56-17.45,20.48l1.68-.16c-2.52-2.68-4-5.92-7-8.14-3.39-2.51-7.9-3.24-12-3.38-.87,0-2,1.27-.69,1.31Z"/><path class="cls-9" d="M134.42,214.84c7.39.26,13.21,4.08,20,6.41.44.15,1.55-.06,1.74-.56a17.45,17.45,0,0,1,8-9.32c.52-.32.45-.63-.17-.63-3.6,0-5.82-1.14-9.09-2.41s-8.4-2.35-10.53-5.45c-.36-.53-2.14.21-1.93.51,3.1,4.53,10.83,5.28,15.41,7.74,1.59.85,5.47-.42,2.66,1.45a16.89,16.89,0,0,0-6.29,8.42l1.74-.56c-6.92-2.38-12.85-6.22-20.35-6.47-.47,0-2.23.84-1.23.87Z"/><path class="cls-9" d="M147.75,199.49c3.18-.78,6.18-1.31,9.27,0,2.63,1.14,5,3.21,7.38,4.77.38.24,2,0,1.87-.61-.59-3.44.6-6.57,2.45-9.43.06-.09.15-.24,0-.32a20.67,20.67,0,0,0-14.21-3.31c-.85.12-1.66,1.07-.31.88,1-.14,13.77.79,12.1,3.79-1.57,2.81-2.53,5.69-2,8.91l1.87-.61c-2.91-1.9-5.7-4.29-9-5.44-3.07-1.07-6.62-.17-9.64.58-1.16.28-.94,1.05.2.76Z"/><path class="cls-9" d="M162.74,183.23c4.23-3.68,8.16,2.29,10.93,5,.5.5,1.43.15,1.8-.34,1.93-2.53,4.69-6.18,2.66-9.39-1.68-2.65-6.06-3.63-8.7-4.87-.66-.31-2.4.61-1.51,1,2.59,1.22,5.7,2.07,7.87,4,2.92,2.61-.44,6.86-2.14,9.1l1.8-.33c-4.14-4.09-8.52-9.67-14.3-4.66-.88.77,1,.93,1.59.45Z"/><path class="cls-9" d="M172.52,168.32c3,.15,4.6,2.34,6.19,4.62.36.51,1.34.1,1.68-.19,1.75-1.45,4.48-3.4,4.5-5.95s-3.54-4.7-5.37-6c-.57-.42-2.33.41-1.52,1,1.75,1.27,4.29,2.8,4.9,5s-2.74,4.4-4.08,5.51l1.68-.18c-1.88-2.69-3.8-4.87-7.26-5.05-.82,0-2,1.15-.72,1.22Z"/><path class="cls-9" d="M179.54,156.79c2.65,2,4.5,4.56,7.69,5.7a1.66,1.66,0,0,0,1.74-.56,41.84,41.84,0,0,1,6.91-8.33c.75-.76,4.72-4.86,4-6.28-2.7-5.55,3.78-11.24,6.92-15.31,2.27-2.92,12.72-16.53,4.5-17.9-.51-.08-2.26.75-1.22.92,7.64,1.27-5.71,18.06-8,20.6-2.6,2.87-6,7.82-4.36,11.76,1,2.43-4,6.6-5.45,8.08a31.8,31.8,0,0,0-5.25,6.75l1.74-.57c-3.15-1.12-4.88-3.64-7.45-5.56-.49-.37-2.22.39-1.81.7Z"/><path class="cls-9" d="M196.38,131.89c1.31,2.31,4,3.84,5.88,5.63.58.55,2.41-.22,1.78-.81-1.91-1.8-4.56-3.31-5.88-5.64-.39-.67-2.25,0-1.78.82Z"/><path class="cls-9" d="M188,144.75a13.26,13.26,0,0,1,3.29,4.7c.27.72,2.18.15,1.94-.52a13.94,13.94,0,0,0-3.44-5c-.51-.5-2.34.24-1.79.77Z"/><path class="cls-9" d="M189.64,149.57c1.62,1.4,4.27.66,6.07.1.27-.08.95-.33.84-.74s-.82-.3-1.09-.22c-1.16.36-3,1-4,.11-.51-.45-2.31.3-1.79.75Z"/><path class="cls-9" d="M207.76,122.61H207a1.89,1.89,0,0,0-1.29.53c-.3.35.26.47.49.47h1.56a1.85,1.85,0,0,0,1.28-.53c.31-.35-.25-.47-.48-.47H207a1.89,1.89,0,0,0-1.29.53c-.3.35.26.47.49.47H207a1.85,1.85,0,0,0,1.28-.53c.3-.35-.25-.47-.48-.47Z"/><path class="cls-9" d="M213.34,111.1c2.7,1.63,6.25,2.3,8.22-.79a12.53,12.53,0,0,0,1.58-4.69c.43-2.58-.19-4.88,1.84-6.87.86-.85-1-1.14-1.61-.55a4.87,4.87,0,0,0-1.87,4,29.35,29.35,0,0,1-.39,4.07,9.28,9.28,0,0,1-1.51,4c-1.26,1.7-3.34.62-4.77-.24-.71-.43-2.41.54-1.49,1.1Z"/><path class="cls-9" d="M225.45,96.64a10.21,10.21,0,0,0,2.37,1.1,5.25,5.25,0,0,0,3-1.75c2.18-2.18,2-6.21,2-9-.36.26-.71.63-1.07.63h1.69c1.11,0,1.47-1,.16-1h-1.68c-.38,0-1.06.26-1.06.73,0,2.69.2,5.88-1.62,8.1-1.08,1.31-1.38.5-2.52,0a2.09,2.09,0,0,0-2,0c-1.12.67-.09,1.73.86,1.15Z"/><path class="cls-9" d="M259.45,55.4c20.33,22.84,44.11,42.28,64.59,65s41.15,44.87,63,66.06A728.72,728.72,0,0,0,452.5,242.6c22,16.84,44.41,33.51,68.42,47.46,1.74,1,3.5,2,5.26,3l.6-1.1-.29.07c-.29.06-1,.42-.81.84.49,1.16,3.16,2,4.33,2.06.35,0,1.58-.28,1.32-.89l-.07-.15c-.33-.77-2.24-.2-1.93.52a1,1,0,0,0,.07.15l1.32-.89c-.74,0-2.82-.65-3.11-1.32l-.81.83.29-.06c.38-.09,1.26-.73.6-1.1-24.16-13.31-46.5-29.81-68.46-46.44a762.47,762.47,0,0,1-67.77-57.34c-22-21.06-42.77-43.34-63.19-65.9s-44-42.43-64.61-65c-.82-.9-1.63-1.81-2.43-2.72-.52-.58-2.36.16-1.78.81Z"/><path class="cls-9" d="M512.27,285.72c-5.53,2.61-11.34.86-16.37,5-2.24,1.87-3.13,5.19-4.08,7.79-1.42,3.89-3.62,6.05-3.7,10.3l1.87-.62c-6-5.2-15.52-3.83-22.41-7.06-5.63-2.65,7.24-8.21,8.79-9.23,3.34-2.2,10.76-21.19,16-16,.44.44,2.25-.28,1.81-.72-4.08-4-11.66,4-13.35,7-2.88,5.1-3.83,8.57-9.6,11.5-2.36,1.2-5.08,2.63-6.68,4.82-2.34,3.17,4.23,4.54,6,5,5.6,1.4,13.1,1.5,17.64,5.44.43.37,1.85,0,1.86-.62.07-3.47,1.77-5.68,3.14-8.66,1.21-2.63,1.84-5.3,3.44-7.77,3.51-5.38,11.33-3.14,16.37-5.52,1.22-.57.08-1.05-.73-.67Z"/><path class="cls-9" d="M488.32,269.63c-5.26-2.05-10.54-.56-15.34,2-3.27,1.75-5.87,4.42-8.42,7.06-4.72,4.88-11.95,4.38-18.17,5.41-.26,0-1.13.23-1.13.61v.8a12.85,12.85,0,0,0,1.92-.52c-1.41-3.93-4.85-7-6.87-10.64-2.86-5.17,7.37-4.8,10.51-5.67s5.35-2.94,7.36-5.36c1.26-1.53,2.34-3.16,3.44-4.8.53-.78,1.1-1.53,1.66-2.29s1.09-1.38,1.67-2c.77-.68.65-.73-.36-.16-.07.44,1.83.11,1.9-.35s.14-.45,0-.81c0-.12-.24-.13-.34-.13-2.26.08-3.52,2.21-4.79,3.84s-2.31,3.4-3.54,5.05c-3.71,5-7.61,7.38-14.09,7.4-2.52,0-5.85.33-6.15,3.44-.43,4.43,6.24,9,7.68,13,.15.43,2-.06,2-.52v-.8c0,.2-.81.4-1.2.61,5.06-.85,11.57-.19,16.14-3,7.77-4.76,13-15.94,24.31-11.53.53.21,2-.59,1.81-.65Z"/><path class="cls-9" d="M458.59,247c-8.52-.32-11.87,5.1-16.85,11.07s-18,4-20.89,12l1.92-.42c.31-4.14-2.92-5.36-4.71-8.64-2.5-4.59,2.57-8.65,5.47-11.29s5.93-4.59,8.27-7.78c2.17-3,5.68-3.62,8.55-5.91.43-.35-1.39-.17-1.76.13-2.63,2.1-6.57,2.37-8.16,5.29-2.25,4.12-6.7,6.73-10.16,9.73-3,2.63-4.78,5.19-4.47,9.32s5.38,5.08,5,9.66c0,.37,1.78,0,1.92-.42,2.23-6.31,11.6-5.51,16.68-8.43,6.91-4,8.34-13.89,17.91-13.54.42,0,2.21-.78,1.24-.81Z"/><path class="cls-9" d="M434.21,230.13c-5.89-.2-9.59,3.34-13.19,7.62s-8,8.64-14.18,8c-5.51-.6-4.24-6.29-2.58-9.75l-1.58.55c9.65.36,15.8-7.64,22.52-13.34.39-.33-1.4-.12-1.74.17-5.55,4.7-11.4,12.72-19.52,12.42-.4,0-1.38.13-1.58.55-1.39,2.89-2.69,6.42,0,9,2,1.86,5.61,1.36,8,.88a20.46,20.46,0,0,0,8.07-4c4.81-3.59,7.37-11.56,14.54-11.31.39,0,2.2-.73,1.26-.76Z"/><path class="cls-9" d="M422.21,218.78c-5.08.28-9,3.08-12.95,6-2.75,2.07-6.3,5.25-10,4.38a9.07,9.07,0,0,1-4.33-2.93,13.57,13.57,0,0,1-3.45-9.81c.48-6.37,7.39-5.45,11.87-4.06.46.15,1.53,0,1.74-.56.77-2,1.32-2.77,3.6-3.58,1.29-.46.08-.87-.71-.59a6.93,6.93,0,0,0-4.81,4.47l1.74-.56c-4-1.25-9.62-2.43-13.12.73-3.2,2.88-2.53,7.58-.95,11.13,1.5,3.4,4.79,6.9,8.77,6.86,8.59-.06,13.29-10.15,21.78-10.61.59,0,2.09-1,.8-.91Z"/><path class="cls-9" d="M403.12,201.64c-7.15,2.61-13.95,12.27-22.15,9.68-.49-.16-1.71.05-1.71.74v.8c1-.11,1.48-.21,2.13-.32-.87-3.5-2.61-6.19.42-9a98.55,98.55,0,0,1,10.33-8.82c1.08-.74-.47-1.48-1.28-.93a60.13,60.13,0,0,0-12.09,10.7c-1.87,2.3.11,6.18.7,8.54.21.85,1.79.49,1.79-.32v-.81c0,.25-.86.5-1.37.74,9.5,3,15.51-6.72,23.52-9.64,1.15-.42.89-1.81-.29-1.38Z"/><path class="cls-9" d="M387.61,186.89c-3.8,1.82-6.61,5-9.61,7.89-1.89,1.81-5.82,5.54-7.79,2.21a56.28,56.28,0,0,1-2.61-5.21c-.66-1.43-4.22-8-2.14-8.89a15.29,15.29,0,0,0,7.69-7.29c.16-.3-1.64-.17-1.91.33-1.76,3.17-3.84,5.78-7.54,6.76-.22.05-.8.21-.87.48-.63,2.43,1.49,6,2.4,8.15.65,1.51,2.62,7.7,4.49,8.17,7.26,1.86,13.53-9.69,19-12.31,1.15-.56-.65-.52-1.12-.29Z"/><path class="cls-9" d="M368.68,168.76c-4.64,1.1-8.44,3.91-12.24,6.65l1.37-.16c-6.06-4.07-1.81-11.84,1.71-16.18.75-.92-1.11-1-1.57-.43-3.94,4.85-8.34,13.13-1.66,17.63a1.4,1.4,0,0,0,1.38-.16c3.51-2.53,7-5.21,11.31-6.23,1.18-.28.87-1.4-.3-1.12Z"/><path class="cls-9" d="M353.27,154.29c-3.76,2.1-8.16,2.88-10.87-1.13-2.38-3.5-1.29-8.44.43-11.93.48-1-1.47-.91-1.83-.18-2.14,4.31-2.92,9.78.25,13.81s9,2.65,12.86.51c1.15-.65.1-1.6-.84-1.08Z"/><path class="cls-9" d="M341,137.05c-1.88,4-9,7.16-7.36,0a.4.4,0,0,0-.22-.42c-4.14-1.77-4.81-8.65-9.55-9-1-.08-3.22-2.94-4.56-3.49-3.78-1.57-7.08-2.33-8.7-6.57-1-2.6-.35-5.3-2.26-7.52-2.37-2.75-5.62-3.53-7.37-7.08-2.4-4.87-3.16-8.73-9.17-9.74a3.15,3.15,0,0,0-.71,1.43h1.68c.84,0,2-2,.71-2h-1.68c-.8,0-2.06,1.24-.71,1.47,5.66,1,6.26,5.83,8.39,10.16,1.91,3.87,7.4,5,8.37,9.18.7,3,.63,6.55,3.38,8.61,3.42,2.56,8.21,2.6,10.44,6.62.14.24.56.25.79.23,3.22-.16,4.6,4.1,6.15,6.27a8.61,8.61,0,0,0,2.34,2.08c.65.42.68,4.45.74,5,0,.26.41.35.61.37,4.93.58,8.36-.78,10.52-5.39.44-.94-1.51-.83-1.83-.14Z"/><path class="cls-9" d="M313.13,114.24a16.25,16.25,0,0,1,4-2.28c1.19-.57.13-1.69-.87-1.21a17.85,17.85,0,0,0-4.42,2.55c-1,.87.55,1.62,1.3.94Z"/><path class="cls-9" d="M316.61,124.16c2.27,0,4.86-1,6.05-3,.55-1-1.42-1-1.85-.25-.77,1.33-2.62,1.78-4,1.81-1.12,0-1.48,1.48-.16,1.46Z"/><path class="cls-9" d="M325.87,131c1.32,1.1,3.72.86,5.32.86a2.75,2.75,0,0,0,1.37-.36c.31-.19.26-.4-.11-.4-1.44,0-3.57.24-4.76-.75-.4-.32-2.09.43-1.82.65Z"/><path class="cls-9" d="M351.26,157.5v1.61c0,.12.17.15.23.15a4.9,4.9,0,0,0,1.75-.17c1.14-.42,1.45-1.88,2.19-2.72.5-.55-1.42-.08-1.63,0-1.9,1.06-2.65,3.19-3.58,5-.23.45,1.39,0,1.51,0a21.37,21.37,0,0,0,5.36-3.43c.41-.38-.57-.32-.7-.3a6.49,6.49,0,0,0-3.58,2c-.22.21.05.33.26.33a15,15,0,0,0,6.22-1.07c1.18-.5-.65-.48-1.11-.27a9.6,9.6,0,0,1-3.87.54l.26.33c.34-.32,1-1.1,1.47-1.17l-.7-.3a18.62,18.62,0,0,1-4.73,3l1.51,0c.82-1.62,1.47-3.69,3.15-4.62l-1.62,0c-.66.74-1,1.74-1.68,2.49a5.2,5.2,0,0,1,1.5-.39h-.78s.57.09.57-.27V157c0-.33-2,0-2,.52Z"/><path class="cls-9" d="M289.65,122.88c4.52,8.16,11.53,14.45,17.56,21.44a323,323,0,0,1,20.14,25.91C337,184,345.68,198.45,356,211.84c18.58,24.22,39,47,57.39,71.36.36.48,2.22-.17,1.8-.73-17.9-23.71-37.69-46-55.91-69.45-9.73-12.53-18.07-25.86-27-39a318.89,318.89,0,0,0-19.83-26.43c-7-8.26-15.59-15.71-20.86-25.23-.33-.61-2.18,0-1.93.51Z"/><path class="cls-9" d="M385.62,253.94c-4.36,4.12-9.48,8.1-11.86,13.78l1.92-.44a23.74,23.74,0,0,0-6.37-7c-2.59-1.73-9.05-1.65-8.26-5.56,1.09-5.41,10.27-7.34,14.4-9.73.81-.46-1.14-.22-1.47,0-4.82,2.77-10.66,4.08-14.17,8.73-2.33,3.08-.16,4.49,2.59,5.18,5.31,1.33,8.37,4.45,11.35,8.9.26.39,1.75-.05,1.92-.43,2.34-5.61,7.37-9.52,11.69-13.6.39-.37-1.42-.14-1.74.17Z"/><path class="cls-9" d="M373.25,239a99.57,99.57,0,0,0-14.47,10.61l1.69-.18c-2.73-2.63-5.78-5.4-5.81-9.36l-1.08.72c5.64-.21,8.62-3.2,7.8-8.93l-1.07.88c1.72-.13,3.34-.6,5-.81,1-.12,1.55-1.4.22-1.24-1.69.21-3.34.68-5,.81-.44,0-1.16.34-1.08.88.61,4.26-.92,7-5.65,7.17-.33,0-1.09.29-1.08.72,0,4.34,2.94,7,6,10a1.31,1.31,0,0,0,1.68-.18,97.86,97.86,0,0,1,14.12-10.32c1.11-.71-.53-1.18-1.24-.73Z"/><path class="cls-9" d="M362.2,224.85c-2.43,1.33-4.35,3.47-6.47,5.21-4.13,3.39-9.41.76-8.32-4.31.53-2.5,2.32-4.86,4-6.73,1.43-1.6,3.13-2.65,3.26-4.87,0-.27-1.89-.05-1.93.51-.16,2.74-4.34,5.78-5.83,8.23s-2.46,5.63-.35,8c5.53,6.28,12.94-3.72,17.14-6,.82-.46-1.13-.24-1.48-.05Z"/><path class="cls-9" d="M349.7,209.18a22.85,22.85,0,0,1-9.63,4.61l1.13.36c-.2-3-1.74-5.32-1.63-8.41.06-1.64.41-3.3.63-4.92.4-2.93,2.22-3.25,4.65-4.41,1.2-.57.12-1.5-.83-1l-5,2.41c-.22.11-.55.33-.56.61-.1,3-1,6-.83,9,.16,2.55,1.51,4.69,1.68,7.24,0,.47.85.43,1.13.36A25.22,25.22,0,0,0,351,210c1-.86-.57-1.39-1.25-.79Z"/><path class="cls-9" d="M338.5,189.45a10.17,10.17,0,0,1-5,3.17c-1.87.6-2-1.08-2.56-2.13a22.84,22.84,0,0,0-2.87-3.71c-3.93-4.72-.05-7.92.53-12.76.09-.72-1.85-.34-1.92.26-.44,3.64-3.14,6.21-2.25,10.07.83,3.61,4.7,5.65,5.61,9.38.05.22.4.27.58.25a13.49,13.49,0,0,0,9.69-4.53c.51-.63-1.42-.45-1.79,0Z"/><path class="cls-9" d="M324.21,170.16l-7.8-.25a8.23,8.23,0,0,1-.6-2.13c-.33-1.61-.33-3.32-.53-4.95a15,15,0,0,0-3-6.66c-3-3.81-13.19-6.56-9-12.65.1-.14.12-.33-.11-.38-3.92-.87-16.79-8.71-13.35-14.11.41-.65-1.49-.37-1.77.07-2.86,4.47,4.58,9.9,7.57,12a20.14,20.14,0,0,0,2.86,1.7c2.12,1,3,.8,1.34,3.18-1.3,1.88,3.56,5.53,4.66,6.23s2.42,1.43,3.59,2.24c1.79,1.24,2.23,3.18,3.51,4.74,2.9,3.53,1.16,8.32,3.41,12.09,2,3.4,9,1.16,11-1.21.47-.56-1.43-.34-1.77.07Z"/><path class="cls-9" d="M299.46,143.36l5.05-2.42c1.19-.56.13-1.69-.88-1.21l-5,2.41c-1.19.57-.13,1.7.87,1.22Z"/><path class="cls-9" d="M306.19,150.45a15.34,15.34,0,0,0,6-1.88c.21-.09.64-.45.21-.59a1.94,1.94,0,0,0-1.35.22,10.47,10.47,0,0,1-4.07,1.35,1.9,1.9,0,0,0-1.29.49c-.3.33.26.41.48.41Z"/><path class="cls-9" d="M316.06,160.86a1.35,1.35,0,0,1,.63.07,4.07,4.07,0,0,1,.77.67c.36.35,2.12-.37,1.82-.66a3.36,3.36,0,0,0-.91-.73,2.72,2.72,0,0,0-1.06-.14,2.6,2.6,0,0,0-1.36.37c-.31.19-.27.42.11.42Z"/><path class="cls-9" d="M321.64,169.19a4.8,4.8,0,0,0,3.42-1.22.51.51,0,0,0-.24-.88,1.42,1.42,0,0,0-1.37.36,2.24,2.24,0,0,1-1.62.4c-.41,0-1,.3-1.07.75s.53.59.88.59Z"/><path class="cls-9" d="M235.84,126.83c-11.4,16.31-19.11,34.61-26.93,52.81C201,198.07,191,215.16,182,233c-6,11.83-10.06,24.37-16.2,36.17-5.09,9.77-10.08,20.19-16.58,29.13-.08.11,1.58.08,1.9-.37,6.28-8.63,11.08-18.67,16-28.09,6.12-11.62,10.27-23.84,16-35.62,4.39-9.08,9.56-17.77,14.36-26.63,4.71-8.68,8.73-17.68,12.64-26.74,8.09-18.71,15.88-37.61,27.62-54.4.09-.12-1.58-.09-1.9.36Z"/><path class="cls-9" d="M165.27,280.05a112.14,112.14,0,0,0,9.25,11.27c.58.58,1.91.23,1.85-.69-.46-6.12,5.32-9,6.26-14.59a52.61,52.61,0,0,1,1.48-7.88c.66-2,1.52-1.39,1.52-3.1,0-.52-.46-.65-.9-.66a12.66,12.66,0,0,1-6.91-1.45c-.76-.4-2.44.63-1.48,1.13.63.33,7.33,2.93,7.33,1.52,0,.39-.87,1.13-1,1.44a18.71,18.71,0,0,0-1.3,4.4c-.3,1.56-.46,3.16-.69,4.74-.39,2.77-2.45,5-4,7.15a11.08,11.08,0,0,0-2.19,7.82l1.85-.69A113.53,113.53,0,0,1,167,279.19c-.54-.72-2.38.05-1.76.86Z"/><path class="cls-9" d="M177.8,255.72c3.7,9,10.25-1.72,14.32-4.26.06,0,.37-.26.17-.35-3.92-1.76-10.55-2.15-11.72-7.18-.09-.41-2,.08-1.93.52,1.14,4.93,7.52,5.56,11.44,7.14.23.09-1.1,1.08-1.42,1.37-.94.87-1.79,1.85-2.67,2.78a18,18,0,0,1-2.91,2.6c-1.66,1.09-3-2.19-3.35-3.13-.19-.46-2.08.17-1.93.51Z"/><path class="cls-9" d="M182.23,238.32l5,4.83c.55.52,1.56,0,1.73-.63a14,14,0,0,1,3.39-5.88,4.66,4.66,0,0,0,1.44-3.18c0-1.44-1.13-2.87-2-3.89-1.41-1.65-3.51-.29-3.68-3.15-.06-1-2-.77-2,.13.07,1.21.15,2.35,1.31,3a4.26,4.26,0,0,0,1.25.36c1.62.34,2.54,1.92,3,3.38s-1.29,3-2.17,4.05a13.71,13.71,0,0,0-2.59,5.31l1.73-.64-5-4.83c-.65-.62-2.31.35-1.48,1.14Z"/><path class="cls-9" d="M190.4,220.93c-.61,2.86,4.27,4.64,6.3,5.37,1.8.64,4.14-3.23,4.94-4.36a12.35,12.35,0,0,0,2.49-8.43,4.78,4.78,0,0,0-1.69-2.93c-1.33-1-4.18-1.14-2.69-3.17.72-1-1.11-1.17-1.6-.51a4,4,0,0,0-1,2.76.5.5,0,0,0,.41.53c4.83,1.06,5.48,4.75,3.77,8.87A17.52,17.52,0,0,1,198,224c-1,1.09-1,.82-2.55.07-1.1-.55-3.45-1.73-3.11-3.29.19-.9-1.78-.64-2,.17Z"/><path class="cls-9" d="M198.88,203.46c1.6.63,3,.9,4.15,2.35.35.43,1.63-.1,1.92-.44,2.92-3.44,3.54-8.28,5.52-12.22,2.17-4.34,6.47-12.2,3.52-16.89-.11-.17-.39-.13-.55-.12l-.61.05c-.48,0-2.12.85-.85.75,3.52-.29-2.77,15.18-3.41,16.56-1.86,4-2.63,8.82-5.53,12.22l1.92-.43c-1.2-1.46-2.51-1.79-4.26-2.48a2.54,2.54,0,0,0-1.82.65Z"/><path class="cls-9" d="M207.27,193.38c2.43,0,4.82-.79,6.06-3,.53-1-1.43-1-1.85-.23-.84,1.5-2.44,1.79-4,1.81-1.11,0-1.48,1.45-.17,1.43Z"/><path class="cls-9" d="M213.12,169.58c.56,2.69,2.61,3.25,5.09,2.88s4-3.52,5-5.53c1.86-3.9,1.89-8.41,1.7-12.61-.23-5.08,6-12.53,9.33-16.1.83-.9-1-1.24-1.62-.59-1.78,1.9-3.91,3.89-4.82,6.34-1,2.73-4.16,4.68-4.6,7.71-.46,3.2.14,6.36-.36,9.56a34,34,0,0,1-1,4.35,16,16,0,0,1-1,2.2q-1.31,3.94-5.78,1.27c-.19-.91-2.12-.41-1.93.52Z"/><path class="cls-9" d="M234.15,136.44a68.16,68.16,0,0,0-2.53,7.24c-.24.74,1.62.21,1.87-.11a22,22,0,0,0,4.13-8,8.38,8.38,0,0,0,0-3.56c-.2-1-.71-1.63-.39-2.69a13.73,13.73,0,0,0,.55-2c.11-.73-1.83-.39-1.93.25-.17,1.11-.67,2.11-.84,3.22a1.08,1.08,0,0,0,.4.91,6.31,6.31,0,0,1,.44,3.21c-.17,3.18-2.28,6.19-4.14,8.63l1.86-.12a67.34,67.34,0,0,1,2.52-7.24c.27-.56-1.64-.36-1.92.25Z"/><path class="cls-9" d="M290.83,89.22a5.38,5.38,0,0,0,1.74-.24,3.92,3.92,0,0,0,1.45-1c.32-.31-.29-.35-.47-.34a2.15,2.15,0,0,0-1.29.47l-.54.5c-.06.05,1-.21.6-.17h-.24a2.54,2.54,0,0,0-1.37.37c-.29.19-.26.45.12.45Z"/><path class="cls-9" d="M292.26,96.8V94.38c0-1-2-.79-2,.13v2.42c0,1,2,.79,2-.13Z"/></svg>