<svg id="layer1" xmlns="http://www.w3.org/2000/svg" viewBox="0 0 351.14 274.34"><defs><style>.cls-1{fill:#eab847;}.cls-2{fill:#423407;}</style></defs><path class="cls-1" d="M148.5,162.52a13.62,13.62,0,0,0,6.89-2.56,10.57,10.57,0,0,1,4.09-.05c2.14.4,3.19,1.59,5.36,1.59a3.5,3.5,0,0,0,3.45-3.5c0-4.37-1.36-8.88-1.8-13.24-.12-1.2-.4-2.39-.4-3.59V91.64a3.22,3.22,0,0,0-3.34-3.38,3.64,3.64,0,0,0-3.64-2c0-.24,0-.49,0-.73a3.57,3.57,0,0,0-2.55-3.38c-.2-.06-.39-.14-.58-.21a3.56,3.56,0,0,0,.09-5l-2-2a3.48,3.48,0,0,0-4.17-.54L144.62,73a32.35,32.35,0,0,1-3.3-5.61c-1.48-3.18-6.69-1.6-6.53,1.76A14.73,14.73,0,0,0,136,74.54a3.57,3.57,0,0,0,.13,2.33c-1.44,1.3-1.81,3.65-.49,5-1.16.07-2.32.13-3.49.15a3.4,3.4,0,0,0-3.35,4l-.73.1c-4.4.46-4.61,7,0,7h.7c-1.62,1-1.29,4.62.92,5.72a13.21,13.21,0,0,1-2.65.51c-4.45.39-4.56,6.81,0,7a30.52,30.52,0,0,1,4,.45,18.88,18.88,0,0,1-4,.71c-4.46.28-4.42,7,.13,7a60.29,60.29,0,0,1,9.9.5v.17a36.41,36.41,0,0,1-8.88,1.52c-4.5.14-4.59,7-.06,7h3a38.25,38.25,0,0,0-7.85,2.66c-3.92,1.83-.88,6.91,2.69,6.4.5-.07,1-.18,1.48-.26-3.19,2-1.45,7.74,2.6,6.38.71-.23,1.42-.47,2.12-.72a35.09,35.09,0,0,1,5.23-1.17,28.59,28.59,0,0,1-6,3.66c-3.65,1.64-1,7.58,2.7,6.4a36.25,36.25,0,0,1,5.11-1.26c.34,1.64.73,3.26,1.18,4.88a28,28,0,0,1-4.07,1.88,3.84,3.84,0,0,0-1,.53,21,21,0,0,0-5.16.49,3.2,3.2,0,0,0-2.4,4c-2.25.39-4.52.75-6.79,1.08-4.45.64-2.55,7.38,1.86,6.75,5.27-.77,10.48-1.66,15.65-2.87.05,2.53.27,5.07.34,7.66a3.37,3.37,0,0,0,.79,2.16l.09.9a43.49,43.49,0,0,1-4.53.58c-3.74.22-5,6.16-.93,6.88a48.79,48.79,0,0,0,17.17,0c4.44-.78,2.56-7.52-1.86-6.75-.66.11-1.31.21-2,.29a38.59,38.59,0,0,0,1.3-8.15,3.13,3.13,0,0,0-3.51-3.36c0-.7,0-1.41,0-2.11A2.88,2.88,0,0,0,148.5,162.52Zm8.22-13.08a3.54,3.54,0,0,0,2.6,1.69A3.23,3.23,0,0,0,160,153a21.62,21.62,0,0,0-3-.31c-.33,0-.65,0-1,0l0-.83C156.26,151.05,156.49,150.25,156.72,149.44Zm-3.67-23q-.12,2.92-.38,5.83-.53-5-.86-9.94C152.25,123.64,152.67,125,153.05,126.39Zm-9.71-24.29a13.88,13.88,0,0,1-.45-1.93c0-.2,0-.39,0-.58l.9.08A19,19,0,0,1,143.34,102.1Z"/><path class="cls-1" d="M186.27,159.46l3.77,0c6.78,1.63,13.78.88,20.73,0a4,4,0,0,0,3.41-3l4.76-.06a3.12,3.12,0,0,0,1.55-.42,8.55,8.55,0,0,0,5.94-4.37c2.62-4.49,1-9.39-1.89-13.2l-.06-.82a3.93,3.93,0,0,0-1-2.37c.46-.24.91-.47,1.36-.73a3.53,3.53,0,0,0,.71-5.5,20.33,20.33,0,0,0-3.35-2.47,3.58,3.58,0,0,0-.17-2.72c1.29-.45,2.56-1,3.83-1.56,2.66-1.24,1.85-4.63,0-6a25.47,25.47,0,0,0-3.73-2.36,3.58,3.58,0,0,0-.35-3.65,3.63,3.63,0,0,0,0-4.16c1.15-1.62,1-4.23-1-5.14-.37-.17-.74-.32-1.11-.47q.56-.3,1.11-.63c2.74-1.67,1.93-5.36-.84-6.4-.51-.19-1-.35-1.53-.52l.32-.23A3.79,3.79,0,0,0,220,90.91c3.14-.85,3-5.46-.13-6.73a40.41,40.41,0,0,0-3.94-1.31,3.43,3.43,0,0,0,.29-1c3.42-.32,4.44-5.63.59-6.83a50,50,0,0,0-7.48-1.72c-1.71-.39-3.43-.78-5.14-1.19a3.64,3.64,0,0,0-.84-.82c-1.43-1-2.3-3.18-3.37-4.56-2.77-3.56-7.69,1.43-4.95,5,.24.31.46.61.67.91L192.15,74a37.54,37.54,0,0,0-6.62,2.34c-3.72,1.72-1,7.31,2.69,6.4a46.19,46.19,0,0,0,6.4-2.24,31.27,31.27,0,0,1,5-.75,4,4,0,0,0-.35,1.23h-2.79c-3.85,0-4.9,6.17-.93,6.87,1.7.3,3.4.52,5.11.69a2.85,2.85,0,0,0,2,1.35c.87.16,1.74.29,2.61.4h-.51c-1.07-.07-2.14-.12-3.22-.14-4.63-.07-4.34,6.47,0,7l.95.1c-1.33,0-2.67,0-4,0a3.38,3.38,0,0,0-3.34,4.09h-1.76c-3.53,0-4.29,4.25-2.3,6.12l-.67.13c-4.11.85-2.78,6.57.93,6.88,1.93.16,3.85.21,5.77.19a3.17,3.17,0,0,0,2.48,2.75,27.78,27.78,0,0,0,3.12.69c-2.26,1.13-1.88,4.81.22,6.11-1.32,1.9-1,5.06,1.77,5.45.31,0,.62.06.93.08v0h.48a20.45,20.45,0,0,0,2.06,0,28,28,0,0,1,7.11,1.08,47,47,0,0,1-10.76,1.85c-4.41,0-8.85.2-13.18.22-4.52,0-4.52,7,0,7h3.77a3.63,3.63,0,0,0,2.35,6.12,39.09,39.09,0,0,0,19-2.29c.31.88.66,1.78,1.09,2.79a4.14,4.14,0,0,0,2.25,2.16,1.71,1.71,0,0,1-.62.39c-1.89-.82-3.81-1.56-5.68-2.42a3.44,3.44,0,0,0-5.11,2.73h-2.72a45.67,45.67,0,0,0-21.5-3.2,3.52,3.52,0,0,0-.93,6.88l.59.2C182,155.32,182.8,159.46,186.27,159.46Zm27.19-40.82c-.66-.21-1.32-.38-2-.53l1.06-.2c.78.16,1.55.34,2.31.57C214.38,118.55,213.92,118.6,213.46,118.64Z"/><path class="cls-1" d="M312.76,182.18a69.75,69.75,0,0,0-6.88-1.53,3,3,0,0,0-1.28-.51c-11.24-1.64-22.72-3-34.26-3.66a3.81,3.81,0,0,0,.55-6.23q.23-.56.42-1.11a2.92,2.92,0,0,0-1-3.5l.06-1.37.36-.19a60.81,60.81,0,0,0,5.92-4.15q2.22-.21,4.47-.6a3.41,3.41,0,0,0,2.54-3l.61,0a3.52,3.52,0,0,0,3.38-2.57,26.93,26.93,0,0,0,1.14-5c.25-1.9-1.78-3.5-3.5-3.5a14.78,14.78,0,0,0-4,.21,3.29,3.29,0,0,0-3.13-2.25c-.26,0-.52,0-.77,0a30.11,30.11,0,0,0,4.57-1.68c3.1-1.42,1.82-5.11-.69-6.16.32-.39.64-.79.93-1.22a3.18,3.18,0,0,0,.15-3.17c2-1.72,1.54-5.23-1.06-6a3.48,3.48,0,0,0-.16-5.54c4.44-1,2.52-7.57-1.86-6.75a8.26,8.26,0,0,1-2.28.06c.85-1,1.71-1.9,2.65-2.77a19.45,19.45,0,0,0,7.43-2.12c2.49-1.3,2.21-6-.84-6.4a46.65,46.65,0,0,0-6.21-.39,13.38,13.38,0,0,0,1.12-1.62c1-.11,2-.25,3.05-.43a2.79,2.79,0,0,0,2.53-2.88,3.62,3.62,0,0,0-1.2-5.79,3.38,3.38,0,0,0-3-4.3c.56-.12,1.14-.21,1.7-.3,2.68-.4,3.26-4.17,1.55-5.85-1-1-2-1.89-3.07-2.73a4,4,0,0,0-3.49-4.42c-2.92-.12-5.8-.65-8.7-.9-.5-.06-1-.1-1.51-.12a4,4,0,0,0-.61,0,3.37,3.37,0,0,0-.45-1.36,14.64,14.64,0,0,1-2.59-6.4c-.34-4.44-7.08-4.56-7,0a28,28,0,0,0,.95,6.87,3.83,3.83,0,0,0-1.44,0,4.79,4.79,0,0,0-3,1.91h-.1c-4.45.35-4.55,7.21,0,7a15.53,15.53,0,0,0,2.66-.36l.73-.12a9.88,9.88,0,0,0,2,0,5.32,5.32,0,0,0,.79.41,37.7,37.7,0,0,0,12.27,3.13,13.86,13.86,0,0,0-1,1A76.79,76.79,0,0,0,258.75,82a3.46,3.46,0,0,0-3.4,3.23,62.16,62.16,0,0,0-10.8,2c-4,1.07-2.9,6.6.93,6.87.89.06,1.77.11,2.66.15a62.66,62.66,0,0,0,9.88,0l.8,0A3.66,3.66,0,0,0,262.74,96l.94-.21A3.57,3.57,0,0,0,266,98.08l.6.19-.08.13a19.86,19.86,0,0,0-2.61,3.73,3.84,3.84,0,0,0-.26,3,3.44,3.44,0,0,0,2.95,4.24,9.54,9.54,0,0,0,3.59,1,19.47,19.47,0,0,1-2,1.76A3.66,3.66,0,0,0,268,118c-.6.41-1.2.83-1.8,1.28a3.88,3.88,0,0,0-1.59,2.8,27.91,27.91,0,0,0-10.66,3.32,3.13,3.13,0,0,0-1.16,1.09c-.7.18-1.39.38-2.09.6-3.4,1.07-3.07,5-.53,6.4-.79.34-1.57.69-2.34,1.1-2.8,1.47-1.92,5.53.83,6.4a46.08,46.08,0,0,0,13,2.09l-.26.22a3.1,3.1,0,0,0-.8,3.57,37.52,37.52,0,0,0-9.91.64c-2.44.44-3.11,3.57-1.95,5.42-1.58,2-.11,4.81,2.14,5.4a2.71,2.71,0,0,0,1.86,1,35.63,35.63,0,0,0,10.11,0l.09,0,.42.06c-.23,3.29-.83,6.54-.94,9.84a3.37,3.37,0,0,0,.13,1.08v0a3.86,3.86,0,0,0-.12.72,15.7,15.7,0,0,0-3.56.92,4.19,4.19,0,0,0-2.49,4,207.66,207.66,0,0,0-46.51,4.2,3,3,0,0,0-2.32,2c-1.38,0-2.75,0-4.12.05-2.66-.05-5.32-.08-8-.11-25.73-.22-51.38,1.67-77,3.41a3.52,3.52,0,0,0-1.53-.33c-4.33,0-8.67,0-13,.09a3.39,3.39,0,0,0-3.33-4.17c-3.57,0-7.14-.08-10.71-.16l.42-.11c4.32-1.27,2.48-8-1.87-6.75-.49.14-1,.27-1.48.38a34.86,34.86,0,0,0,.81-6.19,3.46,3.46,0,0,0-3-3.42c0-.89,0-1.79,0-2.71a3,3,0,0,0-.06-.52l.55-.19a4.43,4.43,0,0,0,1.15-.66c3.54-.48,6.76-1.54,8.69-3.66,2.21,1.29,5.13-.71,5.13-3.14v-.11c2,1.08,5.28.06,5-3s-.69-6.31-1.1-9.46c0-2.78,0-5.58.08-8.39.72-14.22,3.38-28.29-1.22-42.29a3.82,3.82,0,0,0-4.63-2.39,3.33,3.33,0,0,0-1.9-1.07,38.64,38.64,0,0,0-5.67-.79l-2.33-.29a3.93,3.93,0,0,0,1-4.44,3.88,3.88,0,0,0,.14-.45c.92-.18,1.84-.22,2.77-.4,3.94-.8,2.94-6.73-.93-6.73H85.2a3.32,3.32,0,0,0-4.82-1.71A13.26,13.26,0,0,1,76,73.93a3.71,3.71,0,0,0-3.11,5c-1,0-2,0-3,0a3.4,3.4,0,0,0-3.3,4.29c-2.26.54-2.64,2.79-1.77,4.55a46.07,46.07,0,0,0-7.09,1.48A3.31,3.31,0,0,0,55.3,92.7c-.47,2.08,1,4.73,3.37,4.49,6-.6,12.11-2.09,18.18-3.06h2.24a3.53,3.53,0,0,0,2-.58,48.1,48.1,0,0,1,8.31-.23c1.49.19,3,.4,4.46.61-.12.19-.22.39-.32.58A3.24,3.24,0,0,0,91,98.7s0,0,0,.06a3.56,3.56,0,0,0,.34,1.8l.22.45c0,.15.08.3.11.45-2.7.06-5.42.17-8.13.21a3.65,3.65,0,0,0-.5-.13,88.13,88.13,0,0,0-15.22-1.15,3.41,3.41,0,0,0-3.35,2.92l-1.76.15a4.09,4.09,0,0,0-3.36,4.84c-2.43,1.89-.62,6.74,3.09,6.13a3.37,3.37,0,0,0,3.33,4.19,100.36,100.36,0,0,0,22.68-3.1,5.16,5.16,0,0,0,.8,0,21,21,0,0,0,2.93-.33l.63,2.93A3,3,0,0,0,91,120.25a3.85,3.85,0,0,0-2,4c.77,4,1.4,8,2,12-3.38-3.26-7.5-5.26-11.93-7.08-3.19-1.3-5,2.74-4,5.15a12.47,12.47,0,0,0,2.11,2.9H73a3.18,3.18,0,0,0-3.25,2.52,49.93,49.93,0,0,0-7.89,1.68c-3.75,1.15-3.09,6.88.93,6.88,4.54,0,9.08,0,13.6-.31a3.62,3.62,0,0,0,.36.42c-4.08-.54-8-.26-10.31,2.08a3.41,3.41,0,0,0-1,3c-1.55.39-3.1.82-4.64,1.25a3.53,3.53,0,0,0,0,6.75,54.2,54.2,0,0,0,10.56,1.89,3.77,3.77,0,0,0,.85,1.61,42.42,42.42,0,0,0,5.88,5.95v2.49c0,.32-.17.63-.08.92-.28-.07-.66-.13-.94-.21-4-1.2-5.91,4.24-2.75,6.4l.16.09c-11.73-.21-23.45-.07-35.12,1.67-3.38.51-3.32,6.19,0,6.75l2.33.36c-1.9,2.14,0,6.57,3.62,5.77,2.74-.61,5.49-1.18,8.25-1.73a3.12,3.12,0,0,0,3.07,1.85c12.43,0,24.83-.49,37.24-1.16a3,3,0,0,0,1.64,1c20.45,4.57,41.3,4.69,62.12,3.25,20.52-1.43,41.05-3.54,61.53-5.36,4.57-.41,9.13-.92,13.68-1.47,8.66,1.21,17.29,2.52,26,3.45,18.39,2,37.88,2.13,54.78-6.35C316.38,187.18,315.54,183,312.76,182.18ZM82.55,149.54a25.47,25.47,0,0,0,8.1-1.38l.14.18a2.82,2.82,0,0,0-.82,1.52,3.16,3.16,0,0,0-1.7-.47c-1.79,0-3.55.11-5.31.26ZM161.47,191a286.28,286.28,0,0,1-34.39,1c16.41-1.23,32.87-1.79,49.33-2.2Zm79.69-7.63-2.21-.12c1.7-.1,3.41-.18,5.12-.24Z"/><path class="cls-1" d="M37.86,50.2a3.83,3.83,0,0,0,4.39,4c15.19-2.48,30.81-3.57,46.34-4.29l16.68.38c22.75.45,45.45-.35,68.16-1.76l5.71-.35c42.93-.23,85.7-4,128.61-5.08,4.5-.12,4.52-7,0-7-43,.12-85.8,2.42-128.65,5.08l-3.85,0c-22.75,0-45.51.09-68.25.94-6.18.23-12.4.47-18.64.77-17-.39-34.09-.69-51.13.33-4.48.26-4.51,7.27,0,7Z"/><path class="cls-2" d="M53.16,88.75c16.17-2.29,33-4.24,49.24-1.46.44.07,2.1-.65,1.59-.73-16.63-2.85-33.89-.84-50.46,1.51-.77.11-1.73.88-.37.68Z"/><path class="cls-2" d="M51,89.08c-2.38,24.52.8,49.69,3.1,74.12,0,.36,2,0,1.93-.52-2.3-24.43-5.48-49.59-3.1-74.12,0-.26-1.87-.06-1.93.52Z"/><path class="cls-2" d="M102.23,87.18c1.72,13.64,1.82,27.72,2.5,41.46.54,10.71,1.77,22.56-.76,33.1-.17.7,1.78.4,1.93-.25,2.44-10.16,1.29-21.64.83-32-.63-14.2-.79-28.78-2.57-42.87-.08-.63-2-.2-1.93.52Z"/><path class="cls-2" d="M54.56,163.62c9.14,2.49,19.42,2,28.79,1.71a141.44,141.44,0,0,0,15.38-1.22c2.18-.31,5.08-.54,6.86-2,1-.84-.52-1.62-1.3-1-1.88,1.56-5.73,1.54-8,1.81-4.64.56-9.32.77-14,.92-8.66.26-18.22.69-26.66-1.61-.89-.24-2.28,1.05-1.1,1.37Z"/><path class="cls-2" d="M57.52,85.46c-2.34-7.19,4.73-7.74,9.83-9.61s7.74-5.69,7.24-11.24c-.07-.73-2-.3-1.94.52.75,8.24-5.6,9.43-11.88,11.66C56.25,78.4,54,81.11,55.59,86c.25.76,2.17.22,1.93-.52Z"/><path class="cls-2" d="M76.75,65.11c.33,4.81,1.91,7.56,6.76,8.32,3,.47,6.14.47,9.07,1.57,4.33,1.62,5.57,5.59,5.34,9.81,0,.82,1.89.44,1.93-.23.32-5.82-2.22-9.85-8-11.25-2.81-.68-5.73-.66-8.56-1.23-3.71-.75-4.35-4.27-4.58-7.5,0-.66-2-.25-1.93.51Z"/><path class="cls-2" d="M74.09,65V62.33c0-.51-.82-1.18-1.27-1.18h-2.2c.27,1,.53.46.8.56-.14-.29-.29-.46-.44-.76-.32.4-.63.86-1,1.25a42,42,0,0,1,10.33-.42c-.16-.35-.33-.69-.49-1-1,1.32-3.08,2.17-2.8,4.11.14,1,2.08.46,1.93-.51s2-2.26,2.5-3A.64.64,0,0,0,81,60.33a43.64,43.64,0,0,0-10.83.44c-.59.08-1.3.51-1,1.18.15.29.29.59.44.89s.55.31.81.31h2.2c-.3,0-.58-.46-.58-.69V65.1c0,1.06,2,.8,2-.12Z"/><path class="cls-2" d="M75,59.64c-.06-3.15-1.25-7.15,0-10.14.28-.68-1.66-.45-1.94.22-1.24,3,0,7,0,10.14,0,.86,2,.46,1.94-.22Z"/><path class="cls-2" d="M76.58,49.83c-1.24.64-1.1,2.42-1.12,3.61,0,1.9.26,3.79.29,5.69,0,.49,1.94.15,1.93-.52,0-1.26-.17-2.52-.24-3.78,0-.69-.46-4.17.3-4.56,1.15-.6-.61-.73-1.16-.44Z"/><path class="cls-2" d="M67,165.58c1.71,2.18,3.88,3.25,4.61,6.13.54,2.09.55,4.26,1.56,6.21.42.82,2.25.07,1.76-.87-1.11-2.16-1-4.79-1.73-7.09s-3-3.42-4.44-5.25c-.57-.73-2.4,0-1.76.87Z"/><path class="cls-2" d="M88.63,164.79c-2.21,2.37-6.21,9.38-3.62,12.52.37.44,2-.39,1.93-.52-2.49-3,1.24-9.83,3.43-12.18.38-.4-1.43-.14-1.74.18Z"/><path class="cls-2" d="M52.13,99.44a7.56,7.56,0,0,0,4-.17c4.14-.87,7.94-2.18,12.18-2.76a100.41,100.41,0,0,1,16.34-1c5.73.14,11.4,1.53,17.07,2.24.55.07,2.27-.84,1.2-1-9.06-1.13-17.53-2.69-26.71-2-4.35.31-8.68,1-13,1.6-2.73.41-6.78,3.14-9.51,2.25-.55-.17-2.3.65-1.55.89Z"/><path class="cls-2" d="M54.67,125.19c3.4-1.51,8.12-1.4,11.77-1.93,4.34-.63,8.68-1.23,13-1.59,8-.68,16.05-.33,24.05-.31,1.14,0,1.46-1.51.15-1.51-9.25,0-18.5-.3-27.72.66-4.41.45-8.78,1.19-13.16,1.77-3,.4-6.22.44-9,1.68-1.21.53-.14,1.68.88,1.23Z"/><path class="cls-2" d="M51.85,127.23c7.46.39,15.12-2.2,22.57-2.81,10.11-.84,20,.8,30.12,1.06.62,0,2.09-.9.8-.93-8.83-.23-17.55-1.52-26.41-1.27a109.4,109.4,0,0,0-11.28,1c-4.81.64-9.69,2.27-14.58,2-.49,0-2.24.86-1.22.91Z"/><path class="cls-2" d="M56.51,117.44c3.67-.82,7.44-.82,11-2.08,1.29-.45.09-.87-.71-.59-3.39,1.19-7,1.14-10.53,1.91-1.16.26-.94,1,.21.76Z"/><path class="cls-2" d="M56.32,116.17a28.07,28.07,0,0,1,5.34.4c1,.18,2-1.17.67-1.41a31.76,31.76,0,0,0-5.84-.41c-1.11,0-1.48,1.42-.17,1.42Z"/><path class="cls-2" d="M55.92,115a34.34,34.34,0,0,0,6.25-.44c1.23-.23.84-1.55-.35-1.33a31.35,31.35,0,0,1-5.73.36c-1.11,0-1.48,1.42-.17,1.41Z"/><path class="cls-2" d="M55.91,113.32a20.14,20.14,0,0,0,6.9-1.33c.32-.13.76-.57.47-.93s-.92-.25-1.3-.11A16.85,16.85,0,0,1,56.1,112c-1.06,0-1.51,1.33-.19,1.31Z"/><path class="cls-2" d="M56.43,110.41a19.83,19.83,0,0,0,7.14-1c1.27-.47.11-1.1-.76-.78a15.71,15.71,0,0,1-5.63.65c-.71,0-2.06,1.08-.75,1.08Z"/><path class="cls-2" d="M56.31,106.15H61.1c1.08,0,1.51-1,.19-1H56.5c-1.08,0-1.51,1-.19,1Z"/><path class="cls-2" d="M56.8,104.15H64c.57,0,2.1-1,.81-1H57.61c-.57,0-2.1,1-.81,1Z"/><path class="cls-2" d="M85,114.58c3.64-2.76,10-.93,14,.23.65.19,2.28-.77,1.17-1.09-4.83-1.41-11.94-3.12-16.37.23-1,.79.59,1.11,1.22.63Z"/><path class="cls-2" d="M83.07,111.75a51.85,51.85,0,0,1,12.71,1.55c.8.21,2.29-1,1.13-1.26a55.08,55.08,0,0,0-13.65-1.65c-1.09,0-1.5,1.35-.19,1.36Z"/><path class="cls-2" d="M83.48,111.15H95.86c1.11,0,1.48-2,.16-2H83.65c-1.11,0-1.48,2-.17,2Z"/><path class="cls-2" d="M85,107.93a81.82,81.82,0,0,0,9.4.41c.6,0,2.09-.92.79-.92a76.73,76.73,0,0,1-9-.4c-.5,0-2.25.79-1.22.91Z"/><path class="cls-2" d="M88.37,106.78c2.18,0,4.23.74,6.34-.16,1.25-.53.09-1-.73-.68-1.39.59-3.35-.12-4.84-.16-.66,0-2.08,1-.77,1Z"/><path class="cls-2" d="M90.39,102.77c1.74,1,4.08.52,6,.5a1.53,1.53,0,0,0,1.27-.54c.24-.39-.21-.64-.54-.63-1.6,0-3.75.53-5.2-.3-.59-.35-2.35.49-1.52,1Z"/><path class="cls-2" d="M55.93,151c7.68,0,15.37.11,23.05,0,8.21-.15,16.29-2.26,24.48-2.76,1.12-.07,1.46-1.59.14-1.51-7.58.46-15,2.05-22.59,2.66-8.22.67-16.68.13-24.93.13-1.14,0-1.45,1.51-.15,1.51Z"/><path class="cls-2" d="M57,161.33c-.23-3.39,1.39-4,4.29-4.63a6.7,6.7,0,0,0,4.33-2.58l-1.79-.06A2.89,2.89,0,0,0,66,156.39a12.69,12.69,0,0,1,3.24.79c2,1.1,2.22,3.7,2.56,5.67.17,1,2.1.46,1.93-.52-.31-1.84-.62-4.48-2.26-5.73-1.41-1.08-5.25-1.32-5.72-3.06-.21-.74-1.43-.56-1.79-.06-1.44,2.05-4.29,1.87-6.44,2.71s-2.65,3.14-2.51,5.26c.08,1.06,2,.8,2-.12Z"/><path class="cls-2" d="M59,162.43l.18-.05h1c-.3-.19,1.37-2.22,1.54-2.39-.3.16-.22.22.26.17s1,.12,1.46.16a7.1,7.1,0,0,0,2-.13l-.8-.14c.47,1.74,1.17,3.49,3,4.13.46.17,2.21-.56,1.57-.79-1.62-.57-2.21-2.33-2.61-3.85-.07-.26-.64-.17-.8-.14-1.44.25-3-.48-4.38,0A4,4,0,0,0,59.22,161c-.36.48-1,1.28-.95,1.93s1.67-.06,1.9-.19c1.12-.63-.65-.6-1.14-.32Z"/><path class="cls-2" d="M74.94,163.13c-.45-3.44,1.52-4,4.24-5.11a4.9,4.9,0,0,0,3.34-3.57l-1.86.5c1.59,1.36,2.4,3.2,4.27,4.28s3.68,1.39,3.27,3.91c-.09.57,1.83.21,1.91-.31.33-2-.5-2.87-2.24-3.74-2.48-1.23-3.38-3.11-5.4-4.83-.35-.3-1.76,0-1.86.5-1.07,4.88-8.45,2.5-7.6,8.89.06.47,2,0,1.93-.52Z"/><path class="cls-2" d="M79.73,163.53c-.11-.56-.52-2,.08-2.41.3-.22,1-.17,1.36-.23a3.67,3.67,0,0,0,2.9-1.85l-1.8.35a15.3,15.3,0,0,0,3.33,4.09c.54.4,2.31-.39,1.52-1a14.67,14.67,0,0,1-3.06-3.89c-.33-.51-1.58-.1-1.8.34-.59,1.19-2.2.85-3.3,1.32-1.58.68-1.46,2.35-1.16,3.78.15.72,2.09.23,1.93-.52Z"/><path class="cls-2" d="M92.06,162.24c-1-1,.2-2.57.83-3.4,1.06-1.4,2.23-1.5,3.88-1.5a3.45,3.45,0,0,0,3.72-2.49l-1.86.5c1.42,1.74,3.32,3.11,3.54,5.5,0,.47,2,.08,1.93-.52-.22-2.47-2.19-3.87-3.66-5.67-.31-.39-1.72.07-1.86.5-.55,1.68-2.22,1.1-3.6,1.28a5.56,5.56,0,0,0-2.7,1.28c-1.21,1-3.55,3.67-2,5.22.39.4,2.19-.31,1.81-.7Z"/><path class="cls-2" d="M96.51,163.27c.34-1.34.63-2.85,1.8-3.72l-1.54.31c.65.3,1.35.5,2,.8.46.22,1.81,0,1.73-.72a3.62,3.62,0,0,0-.4-1.2l-1.86.63a9.2,9.2,0,0,1,1.53,2.28c.33.66,2.21,0,1.93-.52a10,10,0,0,0-1.66-2.51c-.38-.39-2.16,0-1.87.63a3.77,3.77,0,0,1,.4,1.2l1.74-.72c-.66-.31-1.35-.5-2-.8a1.6,1.6,0,0,0-1.54.31c-1.38,1-1.8,2.69-2.19,4.27-.18.71,1.77.41,1.93-.24Z"/><path class="cls-2" d="M53,149.84c8.67.17,16.83,1.61,25.53.67s17.14-2.4,25.8-2.67c.56,0,2.11-.9.82-.86a212.57,212.57,0,0,0-22.37,2.23,71.58,71.58,0,0,1-16.08.8c-4.16-.36-8.28-.94-12.46-1-.45,0-2.22.84-1.24.86Z"/><path class="cls-2" d="M86.19,154.06c.46.85,1.14,1.55,1.6,2.4.34.62,1.71.16,1.93-.39a4.45,4.45,0,0,1,2.42-2c.76-.38.16-.9-.45-.78-1.34.27-2.77-.84-3.48-1.85-.37-.52-2.12,0-2.12.63v2.79c0,.56,2,.21,2-.52v-2.79c0,.21-1,.42-1.65.63a4.89,4.89,0,0,0,4.86,2.13c-.15-.26-.24-.51-.4-.77a5.84,5.84,0,0,0-3.13,2.79l1.94-.39c-.47-.85-1.13-1.55-1.59-2.4-.35-.63-2.2,0-1.93.52Z"/><path class="cls-2" d="M72.93,154v0l-.79.36h0l-1,0c.32.13.37,1.16.42,1.44a12.33,12.33,0,0,1,.18,1.82c0,.42,1.67-.17,1.84-.34a17.11,17.11,0,0,1,3.86-3.5c.33-.18.25-.4-.11-.4-1.34,0-3.31.12-4.21-1.07-.28-.37-2.1,0-2.1.51v1.6c0,.29,2,0,2-.52v-1.59c0,.17-1.16.34-1.8.51,1.06,1.41,3.2,1.32,4.79,1.32,0-.13,0-.26-.07-.39a17.85,17.85,0,0,0-4.12,3.69l1.85-.34a10.69,10.69,0,0,0-.44-3c-.28-.9-1.91-.38-2.27.22-.18.29.7.18.77.16.34-.06.93-.18,1.13-.51Z"/><path class="cls-2" d="M99.37,150.87a14.69,14.69,0,0,0,1.67,3.31c.13.2.57.2.77.17,1-.21,3.89-.92,2.88-2.58a5.79,5.79,0,0,0-3.37-2.09A1.64,1.64,0,0,0,100,150c-.32.29-.2.6.19.7a5.87,5.87,0,0,1,2.24,1.2c.22.19.58.52.57.84s-.63.43-.9.48l.77.16a13.34,13.34,0,0,1-1.53-3.07c-.23-.69-2.15-.14-1.93.52Z"/><path class="cls-2" d="M55.43,153.1a5.87,5.87,0,0,0,.41,2.56c.15.35.51.36.85.35a6.14,6.14,0,0,0,2.38-.59,3.47,3.47,0,0,0,.92-.6c.22-.2.18-.45.18-.72s-.29-.49-.61-.51c-.58,0-1.08-.6-1.47-1-.54-.54-2.37.2-1.78.79a3.83,3.83,0,0,0,2.46,1.42c-.2-.17-.68-.34-.68-.52v.4c0-.1.19-.21.25-.31a2.41,2.41,0,0,1-1.46.4l.87.35a5.15,5.15,0,0,1-.38-2.23c0-.91-1.94-.54-1.94.19Z"/><path class="cls-2" d="M55,136.89c1.54,3.82,4.6,7,7.66,9.71.52.45,2.33-.3,1.79-.77-3-2.59-6-5.74-7.52-9.46-.28-.69-2.18-.1-1.93.52Z"/><path class="cls-2" d="M57,136.09c.92,3,2.74,5.52,4.45,8.08.29.44,2.17-.16,1.81-.7-1.67-2.5-3.43-5-4.33-7.9-.17-.55-2.1,0-1.93.52Z"/><path class="cls-2" d="M59.24,135.72c-1,.83,3.25,5.58,3.85,6.46.3.44,2,0,1.87-.62-.55-2.6-2-4.84-3.2-7.18L59.9,135c3.53,2.54,4.24,7.27,7.58,10,.5.4,2.27-.35,1.81-.73-3.34-2.7-4.05-7.43-7.59-10-.34-.25-2.16,0-1.87.62,1.2,2.34,2.65,4.58,3.2,7.19l1.86-.62c-.66-1-1.37-1.94-2.07-2.91-.39-.56-.79-1.12-1.17-1.69s-.49-1.26-.89-.91c.82-.72-1.11-.6-1.52-.23Z"/><path class="cls-2" d="M62.69,134.58a84,84,0,0,0,7.19,9.18c.38.4,2.18-.3,1.81-.68a86.34,86.34,0,0,1-7.19-9.19c-.31-.42-2.16.21-1.81.69Z"/><path class="cls-2" d="M59.61,143.11a8.44,8.44,0,0,0,3.55-.56c.16-.08.85-.4.54-.69s-1-.11-1.27,0a4.84,4.84,0,0,1-2,.24,1.75,1.75,0,0,0-1.28.51c-.29.35.24.47.5.47Z"/><path class="cls-2" d="M58.83,140.79c2.62,0,5.19-.28,7.77.38.64.16,2.28-.8,1.17-1.09-2.71-.7-5.43-.45-8.2-.42-.75,0-2,1.15-.74,1.13Z"/><path class="cls-2" d="M64.43,144.15H77.61c.78,0,2-1,.72-1H65.15c-.78,0-2,1-.72,1Z"/><path class="cls-2" d="M75.49,145.73c2.27,0,4.52-.37,6.79-.4,1.11,0,1.48-1.45.17-1.43-2.27,0-4.52.38-6.79.4-1.11,0-1.48,1.45-.17,1.43Z"/><path class="cls-2" d="M85.85,137.38c3.46,2.22,6.6,5,10.51,6.46.49.18,2.25-.59,1.56-.84-3.82-1.38-6.88-4.16-10.26-6.32-.51-.33-2.2.45-1.81.7Z"/><path class="cls-2" d="M93.06,139.05a7.09,7.09,0,0,0,3.52,2.62A1.35,1.35,0,0,0,98,141.3a.55.55,0,0,0-.25-.92,5.73,5.73,0,0,1-2.87-2.17c-.49-.71-2.34,0-1.77.84Z"/><path class="cls-2" d="M96.26,138.66a9.08,9.08,0,0,1,1.6,2c.42.81,2.25.06,1.76-.87a8.53,8.53,0,0,0-1.6-2,1.12,1.12,0,0,0-1.32-.17c-.3.15-.8.69-.44,1Z"/><path class="cls-2" d="M93.88,140.65c2.75-1.6,5.35-3.43,8-5.2.8-.53-1.14-.26-1.47,0-2.64,1.77-5.24,3.6-8,5.19-.82.48,1.13.24,1.47.05Z"/><path class="cls-2" d="M54.29,81.83c-.86,2-.48,4.1-.46,6.17,0,1,2,.61,2-.18,0-1.89-.45-4,.34-5.82.43-1-1.51-.88-1.83-.17Z"/><path class="cls-2" d="M55.48,83c-.89,1.4-1.32,3.55.18,4.69.71.53,2.39-.46,1.49-1.14s-.37-2.44.18-3.3c.27-.43-.23-.8-.6-.85a1.26,1.26,0,0,0-1.25.6Z"/><path class="cls-2" d="M57.09,85v1.6c0,.22.23.25.35.25a1.52,1.52,0,0,0,1-.38s-.3.07,0,0l.6-.16a3.36,3.36,0,0,0,1.32-.63l-1.74.13a1.16,1.16,0,0,0,.46.9c.45.45,2.27-.26,1.8-.73a.78.78,0,0,1-.33-.69c0-.22-.46-.25-.59-.25a1.85,1.85,0,0,0-1.15.38s.25-.07,0,0l-.62.16a4.51,4.51,0,0,0-1.57.63,13.56,13.56,0,0,0,1.49-.13v-1.6c0-.53-1-.19-1,.52Z"/><path class="cls-2" d="M96.09,81.22v3.2c0,.88,2,.5,2-.21V81c0-.88-2-.5-2,.21Z"/><path class="cls-2" d="M94.17,84c0,.08,0,.09-.12.18a1.1,1.1,0,0,0-.28.62c-.1.92,1.86.61,2-.18,0-.07,0-.09.12-.17a1.13,1.13,0,0,0,.28-.63c.1-.92-1.86-.61-2,.18Z"/><path class="cls-2" d="M115.69,87.36c16.17-2.29,33-4.24,49.24-1.46.45.08,2.1-.65,1.59-.73-16.63-2.85-33.89-.83-50.46,1.51-.77.11-1.73.88-.37.68Z"/><path class="cls-2" d="M113.57,87.69c-2.38,24.52.8,49.69,3.1,74.12,0,.36,2,0,1.94-.52-2.3-24.43-5.49-49.59-3.11-74.12,0-.25-1.87-.06-1.93.52Z"/><path class="cls-2" d="M164.76,85.79c1.72,13.64,1.82,27.72,2.51,41.46.53,10.71,1.76,22.56-.76,33.1-.17.7,1.77.4,1.93-.25,2.43-10.15,1.28-21.64.82-32-.63-14.2-.79-28.78-2.57-42.87-.08-.63-2-.19-1.93.52Z"/><path class="cls-2" d="M117.09,162.23c9.14,2.49,19.42,2,28.79,1.71a141.24,141.24,0,0,0,15.38-1.22c2.18-.31,5.09-.54,6.86-2,1-.84-.52-1.62-1.3-1-1.88,1.56-5.73,1.54-8,1.81-4.64.56-9.32.77-14,.92-8.66.26-18.21.69-26.66-1.61-.89-.24-2.28,1-1.1,1.37Z"/><path class="cls-2" d="M120.06,84.07c-2.35-7.19,4.72-7.74,9.82-9.61s7.74-5.69,7.24-11.24c-.07-.73-2-.29-1.93.52.74,8.24-5.61,9.43-11.89,11.66-4.52,1.61-6.77,4.32-5.18,9.19.25.76,2.18.22,1.94-.52Z"/><path class="cls-2" d="M139.29,63.72c.33,4.81,1.9,7.56,6.75,8.32,3.05.48,6.15.47,9.08,1.57,4.32,1.62,5.56,5.59,5.33,9.81,0,.82,1.9.44,1.93-.23.32-5.82-2.22-9.85-8-11.25-2.82-.68-5.74-.66-8.57-1.23-3.71-.75-4.35-4.27-4.57-7.5-.05-.66-2-.25-1.93.51Z"/><path class="cls-2" d="M136.09,63.59V60.94a.7.7,0,0,0-.74-.79h-2.2c.27,0,.54.26.8.37-.14-.3-.29-.57-.44-.86l-.95,1.2a42.08,42.08,0,0,1,10.33-.45l-.49-1c-1,1.32-3.08,2.17-2.8,4.11.14.94,2.08.45,1.94-.52s2-2.26,2.49-3a.64.64,0,0,0-.49-1.06,43.68,43.68,0,0,0-10.83.44c-.59.08-1.29.51-1,1.18.15.29.3.79.44,1.08a1.1,1.1,0,0,0,.81.51h2.2c-.3-1-.11-.85-1.11-1.08v2.64c0,1.06,2,.8,2-.12Z"/><path class="cls-2" d="M137.57,58.25c0-3.15-1.24-7.15,0-10.14.28-.68-1.66-.45-1.94.22-1.24,3,0,7,0,10.14,0,.87,2,.46,1.94-.22Z"/><path class="cls-2" d="M139.11,48.44c-1.24.64-1.1,2.42-1.12,3.61,0,1.9.26,3.79.29,5.69,0,.49,1.95.15,1.93-.52,0-1.26-.17-2.52-.23-3.78,0-.69-.47-4.17.29-4.56,1.15-.6-.61-.73-1.16-.44Z"/><path class="cls-2" d="M129.55,164.19c1.71,2.18,3.88,3.25,4.62,6.13.53,2.09.54,4.26,1.55,6.22.42.81,2.25.06,1.76-.87-1.11-2.17-1-4.8-1.73-7.1s-3-3.42-4.44-5.25c-.57-.73-2.4.06-1.76.87Z"/><path class="cls-2" d="M151.17,163.4c-2.22,2.37-6.22,9.38-3.63,12.52.37.44,2-.39,1.93-.52-2.48-3,1.25-9.83,3.44-12.18.37-.4-1.44-.14-1.74.18Z"/><path class="cls-2" d="M114.66,98.05a7.56,7.56,0,0,0,4-.17c4.14-.87,7.94-2.18,12.19-2.76a100.28,100.28,0,0,1,16.33-1c5.73.14,11.4,1.53,17.07,2.24.56.07,2.27-.84,1.2-1-9.06-1.13-17.52-2.69-26.71-2-4.35.31-8.68,1-13,1.61-2.73.4-6.78,3.13-9.51,2.24-.54-.17-2.29.65-1.55.89Z"/><path class="cls-2" d="M117.2,123.8c3.4-1.5,8.12-1.4,11.77-1.93,4.34-.63,8.68-1.23,13.06-1.59,8-.68,16-.33,24-.31,1.14,0,1.46-1.51.15-1.51-9.25,0-18.5-.3-27.72.66-4.41.45-8.77,1.19-13.16,1.77-3,.41-6.22.44-9,1.68-1.21.53-.14,1.68.88,1.23Z"/><path class="cls-2" d="M114.38,125.84c7.46.38,15.12-2.2,22.57-2.81,10.11-.84,20.05.8,30.12,1.06.62,0,2.1-.9.8-.93-8.83-.23-17.54-1.52-26.41-1.27a112.25,112.25,0,0,0-11.28,1c-4.81.64-9.69,2.27-14.58,2-.49,0-2.24.86-1.22.91Z"/><path class="cls-2" d="M119,116.05c3.67-.82,7.44-.82,11-2.08,1.29-.45.09-.87-.71-.59-3.39,1.19-7,1.14-10.53,1.91-1.15.26-.93,1,.21.76Z"/><path class="cls-2" d="M118.85,114.78a28.07,28.07,0,0,1,5.34.4c1,.17,2-1.17.67-1.41a31.63,31.63,0,0,0-5.84-.4c-1.1,0-1.48,1.41-.17,1.41Z"/><path class="cls-2" d="M118.45,113.58a34.34,34.34,0,0,0,6.25-.44c1.23-.23.85-1.55-.35-1.33a31.35,31.35,0,0,1-5.73.36c-1.1,0-1.48,1.42-.17,1.41Z"/><path class="cls-2" d="M118.44,111.93a20.09,20.09,0,0,0,6.9-1.33c.33-.13.76-.57.47-.93s-.91-.25-1.3-.11a16.83,16.83,0,0,1-5.87,1.06c-1.07,0-1.52,1.33-.2,1.31Z"/><path class="cls-2" d="M119,109a19.83,19.83,0,0,0,7.14-1c1.27-.47.11-1.1-.75-.78a15.79,15.79,0,0,1-5.64.65c-.71,0-2.06,1.08-.75,1.08Z"/><path class="cls-2" d="M118.84,105.15h4.79c1.08,0,1.51-2,.19-2H119c-1.08,0-1.5,2-.19,2Z"/><path class="cls-2" d="M147.5,113.19c3.64-2.76,10-.93,14,.23.65.19,2.28-.77,1.17-1.09-4.83-1.41-11.94-3.12-16.37.23-1,.79.59,1.11,1.22.63Z"/><path class="cls-2" d="M145.6,110.36a51.79,51.79,0,0,1,12.71,1.55c.8.21,2.29-1,1.13-1.26A55.08,55.08,0,0,0,145.79,109c-1.09,0-1.5,1.35-.19,1.36Z"/><path class="cls-2" d="M146,109.15h12.38c1.11,0,1.48-1,.17-1H146.18c-1.11,0-1.48,1-.17,1Z"/><path class="cls-2" d="M147.48,106.54a79.62,79.62,0,0,0,9.4.41c.6,0,2.09-.92.8-.92a76.9,76.9,0,0,1-9-.4c-.49,0-2.25.79-1.22.91Z"/><path class="cls-2" d="M150.9,105.39c2.18,0,4.24.74,6.35-.16,1.24-.53.09-1-.74-.68-1.39.59-3.35-.12-4.83-.16-.67,0-2.08,1-.78,1Z"/><path class="cls-2" d="M152.92,101.38c1.74,1,4.08.52,6,.5a1.53,1.53,0,0,0,1.27-.54c.24-.39-.2-.63-.54-.63-1.59,0-3.75.53-5.2-.3-.58-.34-2.35.49-1.52,1Z"/><path class="cls-2" d="M118.46,149.58c7.69,0,15.37.1,23,0,8.21-.15,16.29-2.26,24.48-2.76,1.13-.07,1.46-1.59.15-1.51-7.59.46-15,2-22.6,2.66-8.22.67-16.68.13-24.93.13-1.14,0-1.45,1.52-.15,1.52Z"/><path class="cls-2" d="M119.52,159.94c-.23-3.39,1.39-4,4.29-4.63a6.7,6.7,0,0,0,4.33-2.58l-1.78-.06a2.88,2.88,0,0,0,2.18,2.33,12.69,12.69,0,0,1,3.24.79c1.95,1.1,2.23,3.7,2.57,5.67.16.95,2.09.46,1.93-.52-.32-1.84-.63-4.48-2.26-5.73-1.42-1.08-5.25-1.31-5.73-3.05-.21-.75-1.43-.57-1.78-.06-1.45,2-4.3,1.86-6.45,2.7s-2.65,3.14-2.5,5.26c.07,1.07,2,.8,2-.12Z"/><path class="cls-2" d="M121.56,161.12c.06,0,.12,0,.18,0h1c-.3,0,1.38-2.3,1.54-2.47-.3.17-.22.18.26.13L126,159a7.07,7.07,0,0,0,2-.14l-.79-.14c.46,1.73,1.16,3.49,3,4.13.46.16,2.21-.57,1.57-.8-1.62-.57-2.2-2.33-2.61-3.85-.07-.26-.64-.17-.8-.14-1.44.25-3-.48-4.38,0a3.93,3.93,0,0,0-2.16,1.65c-.36.47-1,1.27-.94,1.92s1.66,0,1.89-.14c1.12-.64-.65-.57-1.14-.29Z"/><path class="cls-2" d="M137.47,161.74c-.45-3.43,1.52-4.05,4.24-5.11a4.88,4.88,0,0,0,3.34-3.57l-1.86.5c1.59,1.36,2.4,3.2,4.27,4.28s3.68,1.39,3.27,3.91c-.09.57,1.83.21,1.91-.31.33-2-.5-2.87-2.24-3.73-2.48-1.24-3.38-3.11-5.4-4.84-.34-.3-1.75,0-1.86.5-1.07,4.88-8.45,2.51-7.6,8.89.06.47,2,.05,1.93-.52Z"/><path class="cls-2" d="M142.27,162.14c-.12-.56-.53-2,.08-2.41.29-.22,1-.17,1.36-.23a3.67,3.67,0,0,0,2.89-1.85l-1.8.35a15.3,15.3,0,0,0,3.33,4.09c.54.4,2.31-.39,1.52-1a14.51,14.51,0,0,1-3.06-3.89c-.33-.51-1.58-.1-1.8.34-.58,1.19-2.2.85-3.29,1.32-1.59.68-1.47,2.34-1.17,3.78.16.72,2.09.23,1.94-.52Z"/><path class="cls-2" d="M154.59,160.85c-1-1,.2-2.57.83-3.4,1.06-1.4,2.23-1.5,3.88-1.5a3.45,3.45,0,0,0,3.72-2.49l-1.86.5c1.42,1.74,3.32,3.11,3.54,5.5,0,.47,2,.09,1.93-.52-.22-2.47-2.19-3.87-3.66-5.68-.31-.38-1.72.08-1.86.5-.55,1.69-2.21,1.11-3.6,1.29a5.52,5.52,0,0,0-2.69,1.28c-1.21,1-3.55,3.67-2,5.22.39.4,2.19-.3,1.81-.7Z"/><path class="cls-2" d="M159,161.88c.34-1.34.63-2.85,1.81-3.72l-1.55.31c.66.31,1.35.5,2,.8.46.22,1.81,0,1.73-.72a3.62,3.62,0,0,0-.4-1.2l-1.86.63a9.2,9.2,0,0,1,1.53,2.28c.34.67,2.21,0,1.93-.52a10.23,10.23,0,0,0-1.66-2.51c-.38-.39-2.16,0-1.87.63a3.77,3.77,0,0,1,.4,1.2l1.74-.72c-.65-.31-1.35-.5-2-.8a1.63,1.63,0,0,0-1.54.31c-1.37,1-1.79,2.69-2.19,4.27-.18.71,1.77.41,1.93-.24Z"/><path class="cls-2" d="M115.52,148.45c8.67.17,16.83,1.61,25.53.67s17.14-2.4,25.8-2.67c.57,0,2.11-.89.82-.85a209.5,209.5,0,0,0-22.36,2.23,72.86,72.86,0,0,1-16.09.8c-4.16-.37-8.27-1-12.46-1-.45,0-2.22.84-1.24.86Z"/><path class="cls-2" d="M148.72,152.67c.47.85,1.14,1.55,1.6,2.4.34.62,1.71.16,1.93-.39a4.44,4.44,0,0,1,2.43-2c.75-.38.15-.89-.46-.78-1.34.27-2.53-.84-3.25-1.85-.36-.52-1.88,0-1.88.63v2.79c0,.56,2,.21,2-.52v-2.79a10.68,10.68,0,0,0-1.88.63,4.7,4.7,0,0,0,4.74,2.13l-.46-.77a5.9,5.9,0,0,0-3.16,2.79l1.92-.39c-.46-.84-1.13-1.55-1.6-2.39-.34-.64-2.2,0-1.93.51Z"/><path class="cls-2" d="M135.46,152.64l0,0-.8.36h0l-1,0c.32.13.37,1.16.42,1.44a13.86,13.86,0,0,1,.19,1.82c0,.42,1.67-.17,1.83-.34a17.11,17.11,0,0,1,3.86-3.5c.33-.18.25-.4-.11-.4-1.33,0-3.07.12-4-1.07-.27-.37-1.86,0-1.86.51v1.6c0,.29,2,0,2-.52V151a17.12,17.12,0,0,0-2,.51c1.07,1.41,3.08,1.33,4.68,1.33,0-.14-.1-.27-.13-.4a18.2,18.2,0,0,0-4.15,3.69l1.83-.34a10.34,10.34,0,0,0-.44-3c-.29-.9-1.91-.38-2.28.22-.18.29.7.18.77.16.34-.06.93-.18,1.13-.51Z"/><path class="cls-2" d="M161.9,149.48a14.76,14.76,0,0,0,1.67,3.32c.13.19.57.2.77.16,1-.21,3.9-.92,2.88-2.58a5.8,5.8,0,0,0-3.36-2.09,1.63,1.63,0,0,0-1.37.37c-.31.28-.2.59.19.69a6,6,0,0,1,2.24,1.2c.22.19.58.52.57.84s-.63.43-.89.48l.76.16a13.55,13.55,0,0,1-1.53-3.07c-.23-.69-2.15-.14-1.93.52Z"/><path class="cls-2" d="M118,151.71a6,6,0,0,0,.41,2.56c.16.35.52.36.85.36a6.33,6.33,0,0,0,2.38-.6,3.32,3.32,0,0,0,.92-.6c.22-.2.18-.45.18-.72s-.28-.49-.61-.51c-.58,0-1.08-.6-1.46-1-.55-.55-2.38.2-1.79.79a4.39,4.39,0,0,0,2.7,1.42c-.2-.17-.45-.34-.45-.52v.4c0-.1,0-.21,0-.31a2.81,2.81,0,0,1-1.58.4c.29.12.53.24.81.35a5.17,5.17,0,0,1-.41-2.23c0-.91-2-.54-2,.19Z"/><path class="cls-2" d="M117.57,135.5c1.54,3.82,4.6,7,7.66,9.71.52.45,2.33-.3,1.79-.77-3-2.59-6-5.74-7.52-9.46-.27-.69-2.18-.1-1.93.52Z"/><path class="cls-2" d="M119.57,134.7c.92,3,2.74,5.52,4.45,8.08.3.44,2.17-.16,1.81-.7-1.67-2.5-3.43-5-4.33-7.9-.17-.55-2.1,0-1.93.52Z"/><path class="cls-2" d="M121.77,134.33c-1,.83,3.25,5.57,3.85,6.47.3.43,2-.05,1.87-.63-.55-2.6-2-4.84-3.2-7.19l-1.86.63c3.53,2.54,4.25,7.27,7.59,10,.48.4,2.25-.35,1.8-.72-3.34-2.71-4-7.44-7.59-10-.34-.25-2.16.05-1.87.62,1.2,2.34,2.65,4.59,3.2,7.19l1.87-.62c-.67-1-1.38-1.94-2.07-2.91-.4-.56-.8-1.12-1.18-1.69s-.49-1.26-.89-.91c.81-.72-1.11-.6-1.52-.23Z"/><path class="cls-2" d="M125.22,133.19a86.34,86.34,0,0,0,7.19,9.19c.38.39,2.18-.31,1.81-.69A86.34,86.34,0,0,1,127,132.5c-.31-.41-2.16.22-1.81.69Z"/><path class="cls-2" d="M122.14,141.72a8.44,8.44,0,0,0,3.55-.56c.17-.08.85-.41.54-.69s-1-.11-1.27,0a4.83,4.83,0,0,1-2,.25,1.74,1.74,0,0,0-1.28.5c-.29.35.25.47.5.47Z"/><path class="cls-2" d="M121.36,139.4c2.62,0,5.2-.28,7.77.38.65.16,2.28-.8,1.18-1.09-2.72-.69-5.44-.45-8.21-.43-.75,0-2,1.16-.74,1.14Z"/><path class="cls-2" d="M127,143.15h13.18c.79,0,2-1,.72-1H127.69c-.79,0-2,1-.73,1Z"/><path class="cls-2" d="M138,144.34c2.27,0,4.52-.37,6.79-.4,1.11,0,1.48-1.44.17-1.43-2.27,0-4.52.38-6.79.4-1.11,0-1.48,1.45-.17,1.43Z"/><path class="cls-2" d="M148.38,136c3.46,2.22,6.6,5,10.51,6.46.5.18,2.25-.59,1.56-.84-3.81-1.38-6.88-4.16-10.26-6.32-.51-.33-2.2.45-1.81.7Z"/><path class="cls-2" d="M155.59,137.66a7.09,7.09,0,0,0,3.52,2.62,1.35,1.35,0,0,0,1.37-.37.55.55,0,0,0-.25-.92,5.7,5.7,0,0,1-2.87-2.18c-.49-.7-2.33,0-1.77.85Z"/><path class="cls-2" d="M158.79,137.27a8.53,8.53,0,0,1,1.6,2c.42.81,2.25.06,1.76-.87a8.53,8.53,0,0,0-1.6-2,1.11,1.11,0,0,0-1.32-.17c-.3.15-.8.69-.44,1Z"/><path class="cls-2" d="M156.42,139.26c2.75-1.6,5.34-3.43,8-5.2.8-.53-1.14-.26-1.47,0-2.64,1.77-5.24,3.6-8,5.19-.81.48,1.13.24,1.48,0Z"/><path class="cls-2" d="M116.82,80.44c-.86,2-.48,4.1-.46,6.17,0,1,2,.61,2-.18,0-1.89-.44-4,.34-5.82.43-1-1.51-.88-1.83-.17Z"/><path class="cls-2" d="M118,81.6c-.88,1.4-1.32,3.55.18,4.69.71.53,2.39-.46,1.49-1.14s-.37-2.44.18-3.3c.27-.43-.23-.8-.59-.85a1.27,1.27,0,0,0-1.26.6Z"/><path class="cls-2" d="M119.09,83.58v1.6c0,.22.49.25.62.25a1.89,1.89,0,0,0,1.17-.38s-.23.07.05,0l.63-.16a3.52,3.52,0,0,0,1.34-.63l-1.74.13a1.21,1.21,0,0,0,.47.91c.45.45,2.27-.26,1.8-.74a.78.78,0,0,1-.33-.69c0-.22-.45-.25-.58-.25a1.88,1.88,0,0,0-1.16.38s.25-.07,0,0l-.63.16a3.52,3.52,0,0,0-1.34.63c.58,0,.73-.08,1.73-.13v-1.6c0-.53-2-.19-2,.52Z"/><path class="cls-2" d="M158.09,79.83V83c0,.88,2,.5,2-.21v-3.2c0-.88-2-.5-2,.21Z"/><path class="cls-2" d="M156.7,82.61c0,.08,0,.09-.12.18a1.18,1.18,0,0,0-.28.62c-.1.92,1.86.61,1.95-.18,0-.07,0-.09.12-.17a1.13,1.13,0,0,0,.28-.63c.11-.92-1.86-.61-2,.18Z"/><path class="cls-2" d="M176.83,86c16.18-2.29,33-4.24,49.24-1.46.45.08,2.1-.64,1.59-.73-16.63-2.85-33.89-.84-50.46,1.51-.77.11-1.73.88-.37.68Z"/><path class="cls-2" d="M174.72,86.3c-2.39,24.52.8,49.69,3.1,74.12,0,.36,2,0,1.93-.52-2.3-24.43-5.48-49.59-3.1-74.12,0-.25-1.88-.06-1.93.52Z"/><path class="cls-2" d="M225.9,84.4c1.73,13.64,1.82,27.72,2.51,41.46.53,10.71,1.77,22.56-.76,33.1-.17.7,1.77.4,1.93-.25,2.44-10.15,1.28-21.64.83-32-.63-14.2-.8-28.78-2.58-42.87-.08-.63-2-.19-1.93.52Z"/><path class="cls-2" d="M178.23,160.84c9.14,2.49,19.42,2,28.79,1.71a141.24,141.24,0,0,0,15.38-1.22c2.19-.31,5.09-.54,6.86-2,1-.84-.52-1.62-1.3-1-1.88,1.56-5.73,1.54-8,1.81-4.63.56-9.31.77-14,.92-8.66.26-18.21.69-26.66-1.61-.89-.24-2.28,1.05-1.1,1.37Z"/><path class="cls-2" d="M181.2,82.68c-2.35-7.19,4.73-7.74,9.83-9.61s7.73-5.69,7.23-11.24c-.07-.73-2-.29-1.93.52.74,8.24-5.61,9.43-11.88,11.66-4.53,1.61-6.77,4.32-5.18,9.19.25.76,2.17.22,1.93-.52Z"/><path class="cls-2" d="M200.43,62.33c.33,4.81,1.9,7.56,6.76,8.32,3,.48,6.14.47,9.07,1.57,4.33,1.62,5.56,5.59,5.33,9.81,0,.82,1.9.44,1.94-.23.31-5.82-2.23-9.85-8-11.25-2.81-.68-5.74-.66-8.56-1.23-3.71-.75-4.36-4.27-4.58-7.5-.05-.66-2-.25-1.93.51Z"/><path class="cls-2" d="M197.09,62.2V59.55c0-.51-.15-.4-.59-.4h-2.21a2.35,2.35,0,0,1,.81.17c-.15-.29-.3-.66-.44-1-.32.39-.64.75-1,1.15A41.61,41.61,0,0,1,204,59.05c-.16-.35-.32-.71-.49-1.06-1,1.32-3.08,2.16-2.79,4.1.14.94,2.07.45,1.93-.53s1.95-2.25,2.5-3a.65.65,0,0,0-.5-1.06,43.68,43.68,0,0,0-10.83.44c-.59.08-1.29.51-.95,1.18.14.29.29.48.44.78s.55.2.8.2h2.21c-.31,0-.26-.24-1.26-.47v2.65c0,1.05,2,.8,2-.13Z"/><path class="cls-2" d="M198.71,56.86c-.05-3.14-1.24-7.15,0-10.14.28-.68-1.66-.45-1.94.22-1.24,3-.05,7,0,10.14,0,.87,1.95.47,1.94-.22Z"/><path class="cls-2" d="M200.25,47.05c-1.24.64-1.1,2.42-1.11,3.61,0,1.9.25,3.79.28,5.69,0,.49,2,.15,1.93-.52,0-1.26-.17-2.52-.23-3.78,0-.69-.47-4.17.29-4.56,1.15-.6-.61-.73-1.16-.44Z"/><path class="cls-2" d="M190.69,162.8c1.72,2.18,3.88,3.25,4.62,6.13.53,2.09.54,4.26,1.55,6.22.42.81,2.25.06,1.77-.88-1.12-2.16-1-4.79-1.74-7.09s-3-3.42-4.44-5.25c-.57-.73-2.4,0-1.76.87Z"/><path class="cls-2" d="M212.31,162c-2.22,2.38-6.22,9.38-3.62,12.52.36.44,2-.39,1.93-.52-2.49-3,1.24-9.83,3.43-12.18.37-.4-1.44-.14-1.74.18Z"/><path class="cls-2" d="M175.8,96.66a7.56,7.56,0,0,0,4-.17c4.14-.87,7.95-2.18,12.19-2.76a100.28,100.28,0,0,1,16.33-1c5.74.14,11.4,1.53,17.07,2.24.56.07,2.27-.84,1.21-1-9.06-1.14-17.53-2.69-26.72-2-4.35.31-8.67,1-13,1.6-2.73.41-6.77,3.14-9.51,2.25-.54-.17-2.29.65-1.55.89Z"/><path class="cls-2" d="M178.34,122.41c3.41-1.5,8.12-1.4,11.77-1.93,4.34-.63,8.68-1.23,13.06-1.59,8-.68,16-.33,24.05-.31,1.13,0,1.45-1.5.14-1.51-9.25,0-18.5-.3-27.72.66-4.4.45-8.77,1.19-13.16,1.77-3,.4-6.21.44-9,1.68-1.21.53-.14,1.68.88,1.23Z"/><path class="cls-2" d="M175.52,124.45c7.46.39,15.13-2.2,22.57-2.81,10.11-.84,20,.8,30.12,1.06.62,0,2.1-.9.8-.93-8.83-.23-17.54-1.52-26.4-1.27a112.45,112.45,0,0,0-11.29,1c-4.81.65-9.69,2.27-14.57,2-.5,0-2.24.86-1.23.91Z"/><path class="cls-2" d="M180.18,114.66c3.67-.82,7.44-.82,11-2.08,1.29-.45.08-.87-.71-.59-3.4,1.19-7,1.13-10.53,1.91-1.16.26-.94,1,.2.76Z"/><path class="cls-2" d="M180,113.39a28.07,28.07,0,0,1,5.34.4c1,.18,2-1.17.67-1.41a30.78,30.78,0,0,0-5.84-.4c-1.1,0-1.48,1.41-.17,1.41Z"/><path class="cls-2" d="M179.59,112.2a34.52,34.52,0,0,0,6.26-.45c1.22-.23.84-1.55-.36-1.33a31.35,31.35,0,0,1-5.73.36c-1.1,0-1.48,1.42-.17,1.42Z"/><path class="cls-2" d="M179.58,110.54a20.09,20.09,0,0,0,6.9-1.33c.33-.13.77-.57.48-.93s-.92-.25-1.3-.11a16.85,16.85,0,0,1-5.88,1.06c-1.06,0-1.52,1.33-.2,1.31Z"/><path class="cls-2" d="M180.1,107.63a19.88,19.88,0,0,0,7.15-.95c1.27-.47.1-1.1-.76-.78a15.74,15.74,0,0,1-5.63.65c-.72,0-2.06,1.08-.76,1.08Z"/><path class="cls-2" d="M180,103.15h4.79c1.08,0,1.51-1,.2-1h-4.8c-1.07,0-1.5,1-.19,1Z"/><path class="cls-2" d="M180.47,101.15h7.19c.57,0,2.1-1,.81-1h-7.19c-.57,0-2.1,1-.81,1Z"/><path class="cls-2" d="M208.64,111.8c3.65-2.76,10-.93,14,.23.65.19,2.27-.77,1.17-1.09-4.84-1.41-12-3.12-16.37.23-1.05.79.58,1.11,1.21.63Z"/><path class="cls-2" d="M206.74,109a51.79,51.79,0,0,1,12.71,1.55c.8.21,2.29-1,1.13-1.26a55.08,55.08,0,0,0-13.65-1.65c-1.09,0-1.5,1.35-.19,1.36Z"/><path class="cls-2" d="M207.15,108.15h12.38c1.11,0,1.48-1,.17-1H207.32c-1.11,0-1.48,1-.17,1Z"/><path class="cls-2" d="M208.62,105.15a82,82,0,0,0,9.4.41c.61,0,2.09-.92.8-.92a79.25,79.25,0,0,1-9-.39c-.49-.06-2.25.78-1.22.9Z"/><path class="cls-2" d="M212,104c2.18,0,4.24.75,6.35-.16,1.24-.53.09-1-.74-.68-1.39.59-3.35-.12-4.83-.16-.67,0-2.08,1-.78,1Z"/><path class="cls-2" d="M214.06,100c1.74,1,4.08.52,6,.5a1.52,1.52,0,0,0,1.27-.54c.24-.39-.2-.63-.54-.63-1.59,0-3.75.53-5.19-.31-.59-.34-2.36.5-1.53,1Z"/><path class="cls-2" d="M179.61,148.19c7.68,0,15.37.1,23,0,8.21-.15,16.28-2.26,24.47-2.76,1.13-.07,1.46-1.59.15-1.51-7.58.46-15,2.05-22.6,2.66-8.22.67-16.68.13-24.93.13-1.14,0-1.45,1.52-.14,1.52Z"/><path class="cls-2" d="M180.66,158.55c-.23-3.39,1.4-4,4.29-4.63a6.66,6.66,0,0,0,4.33-2.58l-1.78-.06a2.88,2.88,0,0,0,2.18,2.33,12.69,12.69,0,0,1,3.24.79c2,1.1,2.23,3.7,2.57,5.67.16,1,2.1.46,1.93-.52-.32-1.84-.63-4.48-2.26-5.73-1.42-1.08-5.25-1.32-5.73-3-.2-.75-1.43-.57-1.78-.06-1.44,2-4.3,1.86-6.44,2.7s-2.66,3.14-2.51,5.26c.07,1.07,2,.8,2-.12Z"/><path class="cls-2" d="M182.71,159.65l.17-.05h1c-.29-.19,1.38-2.22,1.55-2.39-.31.17-.22.22.25.17s1,.12,1.46.16a7.17,7.17,0,0,0,2-.13l-.8-.14c.46,1.74,1.16,3.5,3,4.14.47.16,2.21-.57,1.58-.8-1.63-.57-2.21-2.33-2.62-3.85-.07-.26-.63-.17-.8-.14-1.44.25-3-.48-4.38,0a3.93,3.93,0,0,0-2.16,1.65c-.36.47-1,1.27-.94,1.92s1.66-.06,1.89-.18c1.12-.64-.64-.61-1.13-.33Z"/><path class="cls-2" d="M198.62,160.35c-.46-3.43,1.52-4,4.23-5.11a4.91,4.91,0,0,0,3.35-3.57l-1.87.5c1.59,1.36,2.4,3.2,4.27,4.28s3.68,1.39,3.27,3.92c-.09.56,1.83.21,1.91-.32.33-2-.5-2.87-2.24-3.73-2.48-1.24-3.38-3.11-5.39-4.84-.35-.3-1.76,0-1.87.5-1.07,4.88-8.44,2.51-7.59,8.89.06.47,2,0,1.93-.52Z"/><path class="cls-2" d="M203.41,160.75c-.12-.56-.52-2,.08-2.41.29-.22,1-.17,1.36-.23a3.67,3.67,0,0,0,2.89-1.85l-1.8.35a15.33,15.33,0,0,0,3.33,4.09c.54.41,2.32-.39,1.52-1a14.71,14.71,0,0,1-3.06-3.89c-.33-.5-1.58-.1-1.8.34-.58,1.19-2.2.85-3.29,1.32-1.59.68-1.46,2.35-1.16,3.78.15.72,2.09.23,1.93-.52Z"/><path class="cls-2" d="M215.73,159.46c-1-1,.2-2.57.83-3.4,1.06-1.4,2.23-1.5,3.88-1.5a3.46,3.46,0,0,0,3.73-2.49l-1.86.5c1.41,1.74,3.32,3.11,3.53,5.5,0,.47,2,.09,1.93-.51-.22-2.48-2.19-3.88-3.65-5.68-.32-.39-1.73.07-1.87.5-.55,1.68-2.21,1.1-3.6,1.28a5.57,5.57,0,0,0-2.69,1.28c-1.21,1-3.55,3.67-2,5.22.39.4,2.19-.3,1.81-.7Z"/><path class="cls-2" d="M220.18,160.49c.34-1.34.64-2.85,1.81-3.72l-1.55.31c.66.31,1.35.5,2,.8.46.22,1.82,0,1.74-.72a3.86,3.86,0,0,0-.4-1.2l-1.87.63a9.2,9.2,0,0,1,1.53,2.28c.34.67,2.22,0,1.94-.52a10.56,10.56,0,0,0-1.67-2.51c-.37-.39-2.16,0-1.86.64a3.89,3.89,0,0,1,.4,1.19L224,157c-.65-.31-1.34-.5-2-.8a1.63,1.63,0,0,0-1.54.31c-1.37,1-1.79,2.69-2.19,4.27-.18.71,1.77.41,1.93-.24Z"/><path class="cls-2" d="M176.66,147.06c8.67.17,16.83,1.62,25.53.68s17.14-2.41,25.81-2.68c.56,0,2.1-.89.81-.85a209.5,209.5,0,0,0-22.36,2.23,72.2,72.2,0,0,1-16.08.8c-4.17-.37-8.28-1-12.47-1-.45,0-2.22.84-1.24.86Z"/><path class="cls-2" d="M209.86,151.28c.47.85,1.14,1.55,1.6,2.4.34.62,1.72.16,1.93-.39a4.47,4.47,0,0,1,2.43-2c.76-.38.15-.89-.46-.78-1.34.27-2.6-.84-3.32-1.85-.36-.52-1.95,0-1.95.63v2.79c0,.56,2,.21,2-.52v-2.79a9.63,9.63,0,0,0-1.81.63,4.76,4.76,0,0,0,4.78,2.13c-.15-.25-.29-.51-.44-.77a5.9,5.9,0,0,0-3.16,2.79l1.93-.39c-.46-.85-1.13-1.55-1.6-2.39-.34-.64-2.2,0-1.93.51Z"/><path class="cls-2" d="M196.61,151.25v0l-.8.36h.05l-1,0c.32.13.38,1.16.42,1.44a12.34,12.34,0,0,1,.19,1.82c0,.42,1.67-.17,1.83-.34a17.11,17.11,0,0,1,3.86-3.5c.33-.17.25-.4-.1-.4-1.34,0-3.15.12-4.06-1.07-.27-.36-1.93,0-1.93.52v1.59c0,.29,2,0,2-.51v-1.6a13.78,13.78,0,0,0-2,.52c1.07,1.4,3.12,1.32,4.72,1.32l-.12-.4a17.9,17.9,0,0,0-4.13,3.69l1.83-.34a11.07,11.07,0,0,0-.44-3c-.29-.9-1.91-.38-2.28.22-.17.29.71.18.77.16.34-.06.93-.18,1.14-.51Z"/><path class="cls-2" d="M223,148.09a14.76,14.76,0,0,0,1.67,3.32c.13.19.57.2.77.16,1.06-.21,3.9-.92,2.89-2.57a5.78,5.78,0,0,0-3.37-2.1,1.66,1.66,0,0,0-1.37.36c-.31.29-.2.6.19.7a6,6,0,0,1,2.24,1.21c.22.18.58.51.58.83s-.64.43-.9.48l.76.16a12.92,12.92,0,0,1-1.52-3.07c-.24-.69-2.16-.14-1.94.52Z"/><path class="cls-2" d="M179.11,150.33a5.82,5.82,0,0,0,.4,2.55c.16.35.52.37.86.36a6.38,6.38,0,0,0,2.38-.6,3.27,3.27,0,0,0,.91-.6c.22-.2.19-.45.19-.72s-.29-.49-.62-.51c-.57,0-1.08-.6-1.46-1-.54-.54-2.38.2-1.78.8a4.21,4.21,0,0,0,2.62,1.41c-.2-.17-.52-.34-.52-.52v.4a.61.61,0,0,1,.09-.31,2.68,2.68,0,0,1-1.54.4c.28.12.54.24.83.35a5,5,0,0,1-.41-2.23c0-.91-2-.54-1.95.2Z"/><path class="cls-2" d="M178.71,134.11c1.55,3.82,4.6,7,7.66,9.71.52.45,2.33-.3,1.79-.76-3-2.6-6-5.75-7.51-9.47-.28-.68-2.19-.1-1.94.52Z"/><path class="cls-2" d="M180.71,133.31c.92,3,2.74,5.52,4.46,8.08.29.44,2.17-.16,1.81-.7a30.9,30.9,0,0,1-4.34-7.9c-.17-.55-2.09,0-1.93.52Z"/><path class="cls-2" d="M182.91,132.94c-.94.83,3.25,5.57,3.86,6.47.29.43,2,0,1.86-.63-.55-2.6-2-4.84-3.19-7.18l-1.87.62c3.54,2.55,4.25,7.27,7.59,10,.49.4,2.26-.35,1.8-.72-3.34-2.71-4.05-7.43-7.59-10-.34-.24-2.16,0-1.86.62,1.2,2.35,2.64,4.59,3.19,7.19l1.87-.62c-.67-1-1.38-1.94-2.07-2.91-.4-.56-.79-1.12-1.18-1.69s-.49-1.26-.88-.91c.81-.72-1.11-.6-1.53-.23Z"/><path class="cls-2" d="M186.36,131.8a87.65,87.65,0,0,0,7.19,9.19c.39.39,2.19-.31,1.81-.69a87.65,87.65,0,0,1-7.19-9.19c-.3-.41-2.16.22-1.81.69Z"/><path class="cls-2" d="M183.28,140.33a8.39,8.39,0,0,0,3.55-.56c.17-.07.85-.4.54-.69s-1-.11-1.26,0a5,5,0,0,1-2,.24,1.75,1.75,0,0,0-1.29.5c-.28.35.25.47.5.47Z"/><path class="cls-2" d="M182.5,138c2.63,0,5.2-.29,7.77.37.65.16,2.29-.8,1.18-1.09-2.72-.69-5.43-.45-8.21-.42-.74,0-2,1.15-.74,1.14Z"/><path class="cls-2" d="M188.1,141.15h13.18c.79,0,2-1,.73-1H188.83c-.79,0-2,1-.73,1Z"/><path class="cls-2" d="M199.16,143c2.28,0,4.53-.37,6.79-.4,1.11,0,1.49-1.44.17-1.43-2.27,0-4.52.38-6.79.4-1.11,0-1.48,1.45-.17,1.43Z"/><path class="cls-2" d="M209.53,134.6c3.46,2.22,6.59,5,10.5,6.46.5.18,2.25-.59,1.57-.84-3.82-1.38-6.88-4.16-10.26-6.32-.52-.33-2.2.45-1.81.7Z"/><path class="cls-2" d="M216.73,136.27a7.12,7.12,0,0,0,3.53,2.62,1.33,1.33,0,0,0,1.36-.37.54.54,0,0,0-.25-.92,5.7,5.7,0,0,1-2.87-2.18c-.49-.7-2.33,0-1.77.85Z"/><path class="cls-2" d="M219.93,135.88a8.53,8.53,0,0,1,1.6,2c.43.81,2.26.06,1.77-.87a9.08,9.08,0,0,0-1.6-2,1.13,1.13,0,0,0-1.32-.17c-.31.15-.8.69-.45,1Z"/><path class="cls-2" d="M217.56,137.87c2.75-1.6,5.35-3.43,8-5.2.79-.53-1.14-.26-1.48,0-2.64,1.77-5.24,3.6-8,5.19-.81.48,1.14.24,1.48.05Z"/><path class="cls-2" d="M178,79.05c-.85,2-.48,4.1-.45,6.17,0,1,2,.61,2-.18,0-1.89-.45-4,.34-5.82.42-1-1.52-.88-1.84-.17Z"/><path class="cls-2" d="M179.15,80.21c-.88,1.4-1.32,3.55.19,4.69.71.54,2.38-.46,1.48-1.14s-.36-2.44.18-3.3c.27-.43-.23-.8-.59-.85a1.27,1.27,0,0,0-1.26.6Z"/><path class="cls-2" d="M180.09,82.19v1.6c0,.22.56.25.69.25a2,2,0,0,0,1.21-.38s-.22.07.06,0l.64-.16a3.45,3.45,0,0,0,1.34-.63L182.3,83a1.21,1.21,0,0,0,.47.91c.45.45,2.27-.27,1.8-.74a.78.78,0,0,1-.33-.69c0-.22-.45-.25-.58-.25a1.83,1.83,0,0,0-1.15.38s.24-.07,0,0l-.62.16a3.68,3.68,0,0,0-1.41.63c.57,0,1.65-.09,1.65-.13v-1.6c0-.53-2-.19-2,.52Z"/><path class="cls-2" d="M219.09,78.44v3.2c0,.88,2,.5,2-.21v-3.2c0-.88-2-.5-2,.21Z"/><path class="cls-2" d="M217.84,81.22c0,.08,0,.09-.11.18a1.12,1.12,0,0,0-.29.62c-.1.92,1.86.61,1.95-.18,0-.07,0-.09.12-.17a1.07,1.07,0,0,0,.28-.63c.11-.92-1.85-.61-1.95.18Z"/><path class="cls-2" d="M239.37,85.28c16.17-2.29,33-4.25,49.23-1.47.45.08,2.11-.64,1.6-.73-16.64-2.85-33.89-.83-50.47,1.52-.76.11-1.73.87-.36.68Z"/><path class="cls-2" d="M237.25,85.6c-2.38,24.53.8,49.69,3.1,74.12,0,.36,2,0,1.93-.51-2.3-24.43-5.48-49.6-3.1-74.12,0-.26-1.88-.07-1.93.51Z"/><path class="cls-2" d="M288.43,83.71c1.73,13.64,1.82,27.71,2.51,41.46.54,10.7,1.77,22.56-.76,33.09-.17.71,1.77.41,1.93-.24,2.44-10.16,1.29-21.65.83-32-.63-14.19-.79-28.78-2.57-42.86-.08-.64-2-.2-1.94.52Z"/><path class="cls-2" d="M240.77,160.15c9.13,2.49,19.42,2,28.78,1.7a139.15,139.15,0,0,0,15.39-1.22c2.18-.31,5.08-.53,6.86-2,1-.83-.52-1.61-1.31-1-1.87,1.55-5.72,1.53-8,1.81-4.63.55-9.31.77-14,.91-8.66.27-18.22.7-26.67-1.6-.88-.24-2.28,1.05-1.09,1.37Z"/><path class="cls-2" d="M243.73,82c-2.35-7.19,4.73-7.74,9.83-9.61s7.73-5.69,7.23-11.24c-.06-.74-2-.3-1.93.51.74,8.25-5.6,9.43-11.88,11.67-4.52,1.6-6.77,4.32-5.18,9.19.24.76,2.17.21,1.93-.52Z"/><path class="cls-2" d="M263,61.64c.33,4.81,1.91,7.55,6.76,8.31,3,.48,6.14.47,9.07,1.57,4.33,1.62,5.56,5.59,5.33,9.82,0,.82,1.9.43,1.94-.23.32-5.82-2.23-9.86-8-11.26-2.81-.68-5.73-.66-8.56-1.23-3.71-.75-4.36-4.26-4.58-7.5,0-.66-2-.24-1.93.52Z"/><path class="cls-2" d="M260.09,61.5V58.86c0-.52-.62-.71-1.06-.71h-2.21c.27,0,.54.22.81.32l-.44-.87-1,1.18a41.65,41.65,0,0,1,10.34-.44l-.49-1.06c-1,1.32-3.09,2.17-2.8,4.1.14.95,2.08.46,1.93-.51s2-2.26,2.5-3a.64.64,0,0,0-.49-1,44.22,44.22,0,0,0-10.84.43c-.58.08-1.29.51-.95,1.18.14.3.29.84.44,1.13a1.13,1.13,0,0,0,.8.55h2.21c-.3-1-.79-.94-.79-1.17v2.65c0,1.06,2,.8,2-.13Z"/><path class="cls-2" d="M261.25,56.17C261.19,53,260,49,261.25,46c.28-.67-1.66-.45-1.94.22-1.24,3-.06,7,0,10.14,0,.87,1.95.47,1.94-.21Z"/><path class="cls-2" d="M262.78,46.36c-1.24.64-1.1,2.42-1.11,3.61,0,1.9.25,3.78.29,5.68,0,.49,1.94.15,1.93-.52,0-1.26-.17-2.52-.24-3.77,0-.7-.46-4.17.29-4.57,1.16-.59-.6-.72-1.16-.43Z"/><path class="cls-2" d="M253.22,162.1c1.72,2.19,3.88,3.25,4.62,6.13.54,2.1.54,4.26,1.56,6.22.41.81,2.24.07,1.76-.87-1.12-2.16-1-4.79-1.74-7.09s-3-3.42-4.44-5.26c-.57-.73-2.4.06-1.76.87Z"/><path class="cls-2" d="M274.84,161.31c-2.22,2.38-6.22,9.39-3.62,12.52.36.44,2-.39,1.93-.52-2.49-3,1.24-9.82,3.43-12.17.37-.4-1.44-.15-1.74.17Z"/><path class="cls-2" d="M238.33,96a7.35,7.35,0,0,0,4-.17c4.14-.87,7.95-2.17,12.19-2.76a100.28,100.28,0,0,1,16.33-1c5.74.15,11.4,1.54,17.08,2.25.55.07,2.26-.85,1.2-1-9.06-1.14-17.53-2.7-26.72-2-4.35.31-8.67,1-13,1.6-2.73.41-6.78,3.14-9.52,2.25-.54-.18-2.29.64-1.55.88Z"/><path class="cls-2" d="M240.87,121.71c3.41-1.5,8.12-1.39,11.77-1.92,4.35-.64,8.69-1.23,13.06-1.6,8-.67,16.05-.33,24.05-.31,1.14,0,1.45-1.5.15-1.5-9.26,0-18.5-.3-27.73.65-4.4.46-8.77,1.19-13.16,1.78-3,.4-6.21.44-9,1.68-1.2.53-.14,1.67.88,1.22Z"/><path class="cls-2" d="M238.06,123.76c7.46.38,15.12-2.2,22.57-2.82,10.1-.83,20,.8,30.12,1.06.61,0,2.09-.89.79-.92-8.83-.23-17.54-1.53-26.4-1.27a109.15,109.15,0,0,0-11.28,1c-4.81.64-9.7,2.27-14.58,2-.49,0-2.24.86-1.22.91Z"/><path class="cls-2" d="M242.71,114c3.67-.83,7.45-.83,11-2.08,1.29-.46.08-.87-.71-.59-3.4,1.19-7,1.13-10.53,1.91-1.16.26-.94,1,.2.76Z"/><path class="cls-2" d="M242.52,112.7a29,29,0,0,1,5.35.39c.95.18,1.95-1.16.66-1.41a31.58,31.58,0,0,0-5.83-.4c-1.11,0-1.49,1.42-.18,1.42Z"/><path class="cls-2" d="M242.13,111.5a33.6,33.6,0,0,0,6.25-.45c1.22-.22.84-1.55-.36-1.32a31.29,31.29,0,0,1-5.72.35c-1.11,0-1.48,1.42-.17,1.42Z"/><path class="cls-2" d="M242.11,109.85a20,20,0,0,0,6.91-1.34c.32-.12.76-.56.47-.92s-.92-.26-1.3-.11a17.08,17.08,0,0,1-5.88,1.06c-1.06,0-1.52,1.33-.2,1.31Z"/><path class="cls-2" d="M242.63,106.94a19.85,19.85,0,0,0,7.15-1c1.27-.47.11-1.1-.76-.78a15.74,15.74,0,0,1-5.63.65c-.72,0-2.06,1.08-.76,1.08Z"/><path class="cls-2" d="M242.52,103.15h4.79c1.08,0,1.5-2,.19-2h-4.79c-1.08,0-1.51,2-.19,2Z"/><path class="cls-2" d="M243,100.15h7.19c.57,0,2.11-1,.81-1h-7.19c-.57,0-2.1,1-.81,1Z"/><path class="cls-2" d="M271.17,111.11c3.65-2.76,10-.93,14,.23.65.19,2.28-.77,1.17-1.1-4.84-1.4-11.95-3.11-16.37.24-1,.79.59,1.1,1.21.63Z"/><path class="cls-2" d="M269.28,108.28A51.91,51.91,0,0,1,282,109.83c.79.2,2.28-1,1.12-1.27a56,56,0,0,0-13.65-1.65c-1.08,0-1.5,1.36-.18,1.37Z"/><path class="cls-2" d="M269.69,107.15h12.38c1.11,0,1.47-1,.16-1H269.85c-1.11,0-1.47,1-.16,1Z"/><path class="cls-2" d="M271.15,104.46a82,82,0,0,0,9.4.4c.61,0,2.1-.92.8-.92a76.72,76.72,0,0,1-9-.39c-.5-.06-2.26.79-1.23.91Z"/><path class="cls-2" d="M274.57,103.3c2.19.06,4.24.75,6.35-.15,1.24-.54.09-1-.74-.69-1.39.6-3.35-.12-4.83-.16-.66,0-2.08,1-.78,1Z"/><path class="cls-2" d="M276.59,99.3c1.75,1,4.08.52,6,.49a1.48,1.48,0,0,0,1.27-.54c.24-.38-.2-.63-.54-.63-1.59,0-3.75.54-5.19-.3-.59-.34-2.36.5-1.53,1Z"/><path class="cls-2" d="M242.14,147.49c7.68,0,15.37.11,23.05,0,8.21-.16,16.28-2.27,24.47-2.76,1.13-.07,1.46-1.6.15-1.52-7.58.47-15,2-22.59,2.67-8.23.67-16.69.13-24.94.13-1.13,0-1.45,1.51-.14,1.51Z"/><path class="cls-2" d="M243.19,157.86c-.23-3.4,1.4-4,4.29-4.64a6.66,6.66,0,0,0,4.33-2.57l-1.78-.06a2.89,2.89,0,0,0,2.18,2.33,12.69,12.69,0,0,1,3.24.79c2,1.1,2.23,3.69,2.57,5.66.16,1,2.1.46,1.93-.51-.32-1.84-.63-4.48-2.26-5.73-1.41-1.08-5.25-1.32-5.73-3.06-.2-.74-1.42-.56-1.78-.06-1.44,2-4.3,1.87-6.44,2.71s-2.66,3.13-2.51,5.26c.07,1.06,2,.8,2-.12Z"/><path class="cls-2" d="M245.24,159l.18,0h1c-.3-.19,1.37-2.21,1.54-2.38-.31.16-.22.22.26.17l1.46.16a8,8,0,0,0,1.95-.13l-.8-.14c.47,1.73,1.16,3.49,3,4.13.47.16,2.21-.57,1.58-.79-1.63-.58-2.21-2.34-2.62-3.86-.07-.26-.63-.17-.8-.14-1.44.26-3-.47-4.37,0a4,4,0,0,0-2.17,1.65c-.35.48-1,1.27-.94,1.92s1.67-.05,1.89-.18c1.12-.63-.64-.61-1.13-.33Z"/><path class="cls-2" d="M261.15,159.66c-.46-3.44,1.52-4,4.24-5.12a4.88,4.88,0,0,0,3.34-3.57l-1.87.5c1.6,1.37,2.4,3.2,4.27,4.28s3.68,1.4,3.27,3.92c-.09.56,1.83.21,1.92-.31.32-2-.51-2.87-2.24-3.74-2.49-1.23-3.39-3.11-5.4-4.84-.35-.29-1.76,0-1.87.5-1.06,4.88-8.44,2.51-7.59,8.89.06.47,2,.06,1.93-.51Z"/><path class="cls-2" d="M265.94,160.05c-.12-.55-.52-2,.08-2.41.29-.22,1-.16,1.36-.22a3.68,3.68,0,0,0,2.89-1.86l-1.79.35A15,15,0,0,0,271.8,160c.55.41,2.32-.38,1.53-1a14.75,14.75,0,0,1-3.07-3.9c-.33-.5-1.58-.09-1.8.35-.58,1.19-2.2.84-3.29,1.32-1.58.68-1.46,2.34-1.16,3.77.15.73,2.09.24,1.93-.52Z"/><path class="cls-2" d="M278.26,158.77c-1-1,.21-2.58.83-3.41,1.06-1.4,2.23-1.49,3.88-1.49a3.48,3.48,0,0,0,3.73-2.49l-1.86.49c1.41,1.75,3.32,3.11,3.53,5.51,0,.46,2,.08,1.93-.52-.22-2.47-2.19-3.87-3.65-5.68-.31-.39-1.72.07-1.86.5-.55,1.69-2.22,1.11-3.61,1.29a5.39,5.39,0,0,0-2.69,1.28c-1.21,1-3.55,3.67-2,5.21.39.4,2.2-.3,1.81-.69Z"/><path class="cls-2" d="M282.72,159.79c.33-1.34.63-2.84,1.8-3.71l-1.54.31c.65.3,1.34.49,2,.8.46.21,1.81,0,1.73-.73a3.69,3.69,0,0,0-.4-1.2l-1.86.64a9.3,9.3,0,0,1,1.53,2.28c.33.66,2.21,0,1.93-.52a10.32,10.32,0,0,0-1.67-2.52c-.37-.39-2.16,0-1.86.64a3.86,3.86,0,0,1,.4,1.2l1.73-.73c-.65-.3-1.34-.49-2-.8a1.65,1.65,0,0,0-1.55.31c-1.37,1-1.79,2.7-2.19,4.28-.17.71,1.77.41,1.94-.25Z"/><path class="cls-2" d="M239.2,146.36c8.66.17,16.83,1.62,25.53.68s17.14-2.41,25.8-2.67c.56,0,2.1-.9.81-.86A212.39,212.39,0,0,0,269,145.74a71.6,71.6,0,0,1-16.08.8c-4.17-.36-8.28-.95-12.47-1-.45,0-2.22.83-1.23.85Z"/><path class="cls-2" d="M272.4,150.59c.46.85,1.13,1.55,1.59,2.4.34.61,1.72.16,1.93-.39a4.57,4.57,0,0,1,2.43-2c.76-.38.16-.89-.45-.77-1.35.26-2.38-.84-3.09-1.86-.36-.51-1.72,0-1.72.63v2.8c0,.56,2,.2,2-.52v-2.8a13.35,13.35,0,0,0-2,.63,4.58,4.58,0,0,0,4.66,2.14c-.15-.26-.35-.52-.5-.77-1.26.63-2.65,1.41-3.19,2.78l1.92-.38c-.46-.85-1.14-1.55-1.61-2.4-.34-.63-2.21,0-1.93.52Z"/><path class="cls-2" d="M259.14,150.55v0l-.8.36h0l-1,.05c.32.13.38,1.15.42,1.44a12.21,12.21,0,0,1,.19,1.81c0,.42,1.67-.17,1.84-.34a17,17,0,0,1,3.85-3.49c.33-.18.25-.4-.1-.4-1.34,0-2.92.12-3.82-1.08-.28-.36-1.7,0-1.7.52V151c0,.29,1,0,1-.52v-1.6c0,.18-1.06.35-1.7.52,1.07,1.41,3.25,1.32,4.84,1.32,0-.13,0-.26-.05-.4-1.66.89-2.79,2.37-4.1,3.69l1.86-.33a10.76,10.76,0,0,0-.44-3c-.28-.9-1.9-.37-2.27.22-.18.29.71.18.77.17.34-.06.94-.19,1.14-.52Z"/><path class="cls-2" d="M285.58,147.39a14.13,14.13,0,0,0,1.66,3.32c.13.2.58.2.77.16,1.06-.2,3.9-.92,2.89-2.57a5.82,5.82,0,0,0-3.37-2.09,1.6,1.6,0,0,0-1.36.36c-.32.29-.2.59.18.7a5.84,5.84,0,0,1,2.25,1.2c.22.19.57.51.57.84s-.63.42-.9.48l.77.16a13.15,13.15,0,0,1-1.53-3.07c-.24-.69-2.16-.14-1.93.51Z"/><path class="cls-2" d="M241.64,149.63a6,6,0,0,0,.4,2.56c.16.34.52.36.86.35a6.32,6.32,0,0,0,2.38-.59,3.54,3.54,0,0,0,.91-.61c.22-.19.19-.45.19-.71s-.29-.5-.62-.52c-.57,0-1.08-.6-1.46-1-.54-.54-2.38.21-1.78.8a3.65,3.65,0,0,0,2.36,1.42c-.21-.18.21-.35-.79-.52v.4c0-.11.29-.21.35-.32a2.23,2.23,0,0,1-1.4.4l.89.36a5.16,5.16,0,0,1-.37-2.24c0-.91-1.92-.54-1.92.2Z"/><path class="cls-2" d="M241.25,133.42c1.54,3.81,4.59,7,7.65,9.7.53.46,2.33-.29,1.8-.76-3-2.6-6-5.75-7.52-9.46-.28-.69-2.19-.11-1.93.52Z"/><path class="cls-2" d="M243.24,132.62c.93,3,2.74,5.52,4.46,8.08.29.44,2.17-.17,1.81-.71a31.32,31.32,0,0,1-4.34-7.89c-.17-.56-2.09,0-1.93.52Z"/><path class="cls-2" d="M245.44,132.24c-.94.83,3.25,5.58,3.86,6.47.29.43,2,0,1.87-.62-.55-2.61-2-4.85-3.2-7.19l-1.87.62c3.54,2.55,4.25,7.28,7.59,10,.49.39,2.26-.36,1.8-.73-3.34-2.7-4-7.43-7.59-10-.34-.25-2.16,0-1.86.62,1.2,2.34,2.64,4.58,3.19,7.19l1.87-.62c-.67-1-1.38-2-2.07-2.92-.4-.56-.79-1.12-1.18-1.69s-.48-1.26-.88-.91c.81-.71-1.11-.59-1.53-.23Z"/><path class="cls-2" d="M248.89,131.1a87.65,87.65,0,0,0,7.19,9.19c.39.39,2.19-.31,1.81-.69a87.15,87.15,0,0,1-7.18-9.18c-.31-.42-2.17.21-1.82.68Z"/><path class="cls-2" d="M245.81,139.63a8.54,8.54,0,0,0,3.55-.55c.17-.08.85-.41.54-.69s-1-.11-1.26,0a4.86,4.86,0,0,1-2,.24,1.78,1.78,0,0,0-1.28.5c-.29.36.24.47.49.47Z"/><path class="cls-2" d="M245,137.32c2.63,0,5.2-.29,7.78.37.64.17,2.28-.8,1.17-1.08-2.72-.7-5.43-.46-8.21-.43-.74,0-2,1.15-.74,1.14Z"/><path class="cls-2" d="M250.63,141.15h13.18c.79,0,2-1,.73-1H251.36c-.79,0-2,1-.73,1Z"/><path class="cls-2" d="M261.7,142.26c2.27,0,4.52-.37,6.79-.4,1.1,0,1.48-1.45.16-1.43-2.27,0-4.52.37-6.79.4-1.1,0-1.47,1.44-.16,1.43Z"/><path class="cls-2" d="M272.06,133.91c3.46,2.21,6.6,5,10.5,6.45.5.18,2.26-.58,1.57-.83-3.82-1.39-6.88-4.16-10.26-6.33-.51-.32-2.2.46-1.81.71Z"/><path class="cls-2" d="M279.27,135.58a7,7,0,0,0,3.52,2.61,1.33,1.33,0,0,0,1.36-.36.54.54,0,0,0-.24-.92,5.72,5.72,0,0,1-2.87-2.18c-.49-.71-2.34,0-1.77.85Z"/><path class="cls-2" d="M282.47,135.19a8.54,8.54,0,0,1,1.59,2c.43.81,2.26.06,1.77-.88a8.8,8.8,0,0,0-1.6-2,1.1,1.1,0,0,0-1.32-.17c-.31.15-.8.68-.44,1Z"/><path class="cls-2" d="M280.09,137.17c2.75-1.59,5.35-3.42,8-5.19.79-.53-1.14-.27-1.48,0-2.64,1.76-5.23,3.6-8,5.19-.82.47,1.13.24,1.47,0Z"/><path class="cls-2" d="M240.5,78.36c-.86,2-.48,4.1-.46,6.16,0,1,2,.61,2-.18,0-1.88-.45-4,.34-5.82.43-1-1.52-.87-1.83-.16Z"/><path class="cls-2" d="M241.68,79.52c-.88,1.4-1.31,3.54.19,4.68.71.54,2.38-.45,1.48-1.13s-.36-2.44.19-3.31c.27-.42-.24-.8-.6-.84a1.27,1.27,0,0,0-1.26.6Z"/><path class="cls-2" d="M243.09,81.5v1.59c0,.22.33.25.46.25a1.67,1.67,0,0,0,1.09-.38s-.28.08,0,0l.61-.17a3.15,3.15,0,0,0,1.33-.63l-1.74.14a1.19,1.19,0,0,0,.47.9c.45.45,2.27-.26,1.8-.73-.25-.25-.34-.34-.34-.69s-.45-.25-.58-.25a1.83,1.83,0,0,0-1.15.38s.24-.08,0,0l-.62.17a2.61,2.61,0,0,0-1.18.63c.58,0,.89-.09,1.89-.13V81c0-.54-2-.19-2,.52Z"/><path class="cls-2" d="M282.09,77.75v3.19c0,.89,2,.51,2-.21V77.54c0-.89-2-.5-2,.21Z"/><path class="cls-2" d="M280.38,80.53c0,.07-.05.09-.12.17a1.07,1.07,0,0,0-.28.63c-.11.92,1.85.61,1.94-.18,0-.07.05-.09.12-.18a1,1,0,0,0,.28-.62c.11-.92-1.85-.61-1.94.18Z"/><path class="cls-2" d="M29.6,50.54c65.21,0,130.47-1.33,195.66-3,27.3-.71,54.84-.89,82.05-3.47.49,0,2.11-.89.84-.77-27.81,2.64-56,2.8-83.87,3.52-38.81,1-77.63,1.67-116.45,2.21-25.65.36-51.31.75-77,.76-.4,0-2.2.78-1.26.78Z"/><path class="cls-2" d="M30.3,44.28c65.21,0,130.47-1.33,195.66-3,27.3-.71,54.84-.89,82-3.47.5,0,2.11-.89.84-.77-27.81,2.64-56,2.8-83.86,3.52-38.81,1-77.63,1.67-116.45,2.21-25.66.36-51.32.75-77,.75-.4,0-2.2.78-1.25.78Z"/><path class="cls-2" d="M33.08,184.63c65.21,0,130.47-1.33,195.65-3,27.3-.71,54.85-.89,82-3.47.49,0,2.11-.89.84-.77-27.81,2.64-56,2.8-83.86,3.52-38.81,1-77.63,1.67-116.45,2.21-25.66.36-51.32.75-77,.75-.39,0-2.2.78-1.25.78Z"/><path class="cls-2" d="M33.08,195.06c65.21,0,130.47-1.33,195.65-3,27.3-.71,54.85-.89,82-3.47.49-.05,2.11-.89.84-.77-27.81,2.64-56,2.8-83.86,3.52-38.81,1-77.63,1.67-116.45,2.21-25.66.36-51.32.75-77,.76-.39,0-2.2.78-1.25.78Z"/><path class="cls-2" d="M74.4,177.71l-1.2-.16a1.46,1.46,0,0,0-1.37.36c-.43.49-.36.76-.38,1.52a.72.72,0,0,0,.62.72h15.2c2.86,0,2.84.84,2.84,3.34,0,.93,1.91.5,2-.28.3-6.34-6.85-6.35-11.53-6.29-3.54.05-7.13-.7-10.65-.2-3.32.48-2.76,5-3.3,7.41-.19.87,1.77.59,2-.19a34.93,34.93,0,0,0,.58-4.21c.25-2.58,2.69-1.92,4.28-1.85,2,.08,3.92.31,5.89.29,4,0,11.12-.65,10.85,5.14.65-.06,1-.12,2-.18v-4.06c0-.34-.32-.92-.65-.92H76.24c-.51,0-5.81.31-2.55.66.87.09,2-1,.71-1.1Z"/><path class="cls-2" d="M77.94,182.51c-.11,1.3-.55,2.08,0,3.4.28.66,1.62.36,1.87-.2,1.07-2.37,1.05-4.92,1.05-7.46,0-.9-1.78-.53-1.78.2v3.47c0,.9,2,.53,2-.2v-1c-1,.07-1.49.14-2.14.2a2.22,2.22,0,0,0,.8,1.92c.53.54,2.31-.2,1.73-.79a1.58,1.58,0,0,1-.59-1.33c0-.9-1.8-.52-1.8.2v1c0,.9,2,.53,2-.2v-3.47c0-.9-2.14-.53-2.14.2,0,2.39.16,4.92-.85,7.14l1.83-.2c-.51-1.2-.12-1.91,0-3.09.08-.88-1.9-.54-2,.21Z"/><path class="cls-2" d="M131.22,180.18c-.84.48-1.13.58-1.36,1.48l2-.13c.47-3.18,1.21-4.41,4.35-4.65,2-.14,4-.54,5.92-.8,4.61-.62,12-1.16,10.49,5.58l1.95-.32c-1.65-4.85-9.06-4.88-13.19-4.73-2.76.11-10.87.82-10.67,5,.06,1.05,2,.78,2-.13-.25-5.13,18.24-4.7,20,.32.31.91,1.77.46,1.94-.32,1.63-7.41-6-7.59-11.4-7-3.24.33-6.65.63-9.84,1.26-2.7.53-3.11,3.7-3.44,5.91-.15,1.06,1.75.72,2-.13l.27-.14c1.14-.65.11-1.77-.87-1.21Z"/><path class="cls-2" d="M140.09,180.07v3.24c0,1,1.49.49,1.71-.19a21.11,21.11,0,0,0,.69-6.49l-2,.36c.06,1.4.71,2.65.78,4,0,.76,1.95.33,1.91-.52-.06-1.4-.75-2.65-.81-4.05,0-.73-2-.35-2,.35a21.08,21.08,0,0,1-1,6.49,11.14,11.14,0,0,0,1.71-.19v-3.24c0-.93-1-.57-1,.19Z"/><path class="cls-2" d="M193.34,180.57l-1.62,1.63,1.76,0c-.74-3.32,0-5,3.52-5.47,1.49-.19,3-.46,4.44-.74,5.37-1,11.95-2.63,13.63,4.29l1.86-.65c-5.88-6.27-23.59-10.4-27,.49-.25.78,1.71.52,1.94-.2,2.91-9.28,18.4-4.71,23.29.5.43.46,2,.12,1.86-.66-1.8-7.37-8.81-6.27-14.78-5.1s-12.43.16-10.68,8c.15.71,1.45.26,1.75,0l1.62-1.62c.83-.82-1.06-.93-1.58-.42Z"/><path class="cls-2" d="M201.09,177.63v3.24c0,.92,1.71.62,2,0,1-2.29.92-5,.92-7.48-.65.06-.9.12-1.9.18v5.68c0,1,2,.62,2-.18v-5.68c0-1-2-.62-2,.18,0,2.29.13,5-.83,7.13h1.81v-3.25c0-1-2-.62-2,.18Z"/><path class="cls-2" d="M257.59,178.28c.2-2.68,7.74-2.87,9.83-3.36,4.3-1,11.38-3,11.74,3.5l1.72-.64c-5-4-9.88-4.07-16.08-3.41-4,.43-9.53.13-9.17,5.67.07,1,2,.76,2-.14-.32-4.86,6.78-4.06,10-4.35a15.2,15.2,0,0,1,11.86,3.37c.45.36,1.76.09,1.72-.64-.36-6.52-6.12-6.35-11.26-5.37-3.56.68-6.72,1.5-10.37,1.55-2.69,0-3.66,1.35-3.86,4-.08,1,1.89.77,2-.14Z"/><path class="cls-2" d="M266.09,177.8v1.62c0,.37,1.82-.11,2-.44a13.09,13.09,0,0,0,.85-5.76c0-.36-1.75.11-1.9.44a11.3,11.3,0,0,0-.84,5,13.79,13.79,0,0,1,1.92-.52v-.81c0-.28-2,0-2,.52v1.62c0,.28,2,0,2-.52v-1.62c0-.28-2,0-2,.52v.81c0,.28,2,0,2-.52a11.2,11.2,0,0,1,.83-4.79l-1.91.44a12.83,12.83,0,0,1-.8,5.6,14.91,14.91,0,0,1,1.9-.44v-1.62c0-.28-2,0-2,.52Z"/><path class="cls-2" d="M200.47,176.17c-.05,1.41-.76,2.65-.81,4.06,0,.42,1.87.1,1.92-.41.09-.88.53-1.56.62-2.43-.64.13-1.11.27-2.11.41V181c0,.27.87.18,1,.17a4.81,4.81,0,0,0,2.76-1.28c.33-.32-.24-.42-.44-.41a2,2,0,0,0-1.26.49,1.62,1.62,0,0,1-.72.35,2.23,2.23,0,0,1,.66.16v-3.24c0-.44-1.72-.09-1.77.41-.09.88-.64,1.56-.73,2.43l2-.41c0-1.4.78-2.64.83-4.05,0-.41-1.89-.13-1.91.51Z"/><path class="cls-2" d="M193.35,177.15c5.07,2.55,11.53-1.6,16.11,2.36.45.4,2.23-.34,1.8-.7-4.78-4.16-11.2.09-16.35-2.51-.48-.24-2.26.5-1.56.85Z"/><path class="cls-2" d="M196.41,166.44c.16,2.61,3,5.22,4.94,6.59.52.37,2.26-.4,1.8-.72-2-1.36-4.65-3.84-4.81-6.39,0-.55-2-.17-1.93.52Z"/><path class="cls-2" d="M196.41,167.25c.9,2.49,2.66,4.45,4.13,6.61.37.55,2.24-.1,1.79-.76-1.41-2.08-3.12-4-4-6.37-.24-.69-2.16-.13-1.93.52Z"/><path class="cls-2" d="M197.22,167.25a11.84,11.84,0,0,0,4.93,5.76c.47.31,2.13-.46,1.82-.68a11.38,11.38,0,0,1-4.81-5.6c-.18-.49-2.09.09-1.94.52Z"/><path class="cls-2" d="M199.66,166.44c.84,1.68,1.71,3.32,3.43,4.24.51.27,2.3-.49,1.55-.89-1.52-.81-2.31-2.39-3-3.87-.31-.62-2.18,0-1.93.52Z"/><path class="cls-2" d="M256.46,165.63c.89,3.2,3.11,5.59,5,8.28.5.74,2.34,0,1.76-.86-1.76-2.58-3.92-4.86-4.78-7.94-.26-.91-2.19-.39-1.93.52Z"/><path class="cls-2" d="M257.25,163c.19,3.71,3.32,6.19,5,9.29.41.78,2.25.05,1.76-.86-1.47-2.78-4.6-5.26-4.77-8.57,0-1-2-.74-2,.14Z"/><path class="cls-2" d="M260.51,165.63c.08,1.67,1.38,3,2.49,4.13.37.36,2.14-.35,1.82-.67-1.09-1.09-2.3-2.36-2.38-4,0-.36-1.95,0-1.93.52Z"/><path class="cls-2" d="M260.69,165.77a8.29,8.29,0,0,1,4.69,3.91c.29.55,2.14-.12,1.93-.51a8.85,8.85,0,0,0-5.05-4.21,1.88,1.88,0,0,0-1.35.22c-.21.11-.64.45-.22.59Z"/><path class="cls-2" d="M133.2,166.58c2.35,3.1,4.89,6,6.41,9.59.33.78,2.24.22,1.94-.51-1.57-3.74-4.15-6.7-6.57-9.89-.47-.62-2.33.09-1.78.81Z"/><path class="cls-2" d="M135.62,169a16.93,16.93,0,0,0,4,3.25,1.65,1.65,0,0,0,1.25-.09c.08,0,.91-.41.57-.59a17.18,17.18,0,0,1-4.06-3.25c-.38-.37-2.16.33-1.81.68Z"/><path class="cls-2" d="M137.48,168.47a4.44,4.44,0,0,1,1.55-2.31l-1.85.28c1.08,3,3.17,5.59,4.93,8.21.31.45,2.18-.15,1.81-.71-1.73-2.57-3.75-5.09-4.81-8-.22-.62-1.58,0-1.85.28a4.91,4.91,0,0,0-1.7,2.56c-.1.63,1.83.27,1.92-.29Z"/><path class="cls-2" d="M74.07,169.23c-2,2.43,1,5.86,2.33,7.89.4.59,2.27-.07,1.79-.79-1-1.4-4-4.94-2.55-6.71.76-.9-1.11-.94-1.57-.39Z"/><path class="cls-2" d="M72.32,168.12,78,173.8c.34.34,2.09-.38,1.83-.64l-5.68-5.68c-.34-.34-2.09.38-1.83.64Z"/><path class="cls-2" d="M61.06,83.68c5.1-4.74,16.88-4,16.4-13.33-.06-1-1.72-.59-2,.16-.91,2.9-1.36,6.25-3.75,8.37-1.53,1.36-5.06.74-7,1.56-3.41,1.4-5.59,2.23-2.9,5.83.51.68,2.35-.06,1.77-.84-.91-1.22-1.9-2.3,0-3a12.11,12.11,0,0,0,2-.91c1.84-1.07,4.46-.29,6.49-1.17,3.72-1.63,4.35-6.62,5.43-10l-2,.16c.44,8.39-11.23,8.16-16,12.64-.88.81,1,1.09,1.61.53Z"/><path class="cls-2" d="M134.75,66.63a20.59,20.59,0,0,1-.44,5.76c-.57,2-2.63,3.06-4.25,4-3,1.83-8,1.08-8.3,5.62l1.93-.52c-.46-4.48,4.62-4.66,7.72-6.07,1.16-.54-.65-.54-1.13-.31-3.43,1.57-9,1.86-8.52,6.9,0,.44,1.89,0,1.93-.52.25-3.18,3.6-3.2,6-4a15.57,15.57,0,0,0,4.41-2.64c2.8-2.28,2.6-5.37,2.6-8.73,0-.37-1.93-.07-1.93.51Z"/><path class="cls-2" d="M195.59,67.27c-.31,6.45-9.35,7.69-14,9.92a.8.8,0,0,0-.5.62v4.06c0,1,1.86.69,1.9-.16.28-5.48,6.45-7.19,10.18-10,1.05-.8-.54-1.42-1.28-.85-4.1,3.14-10.52,5-10.82,11.05.65-.05,1-.1,2-.16V78.23c0-.47,1.54-.89,2-1.08,2.06-.8,4.11-1.53,6.12-2.47,3.17-1.49,6.12-3.82,6.3-7.57.05-1-1.93-.69-2,.16Z"/><path class="cls-2" d="M258.9,66.52a48.46,48.46,0,0,0-1.71,4.68c-.92,2.7-3.27,3.59-5.81,4.5a31.23,31.23,0,0,0-5.27,2.21c-1.26.72-1,1.14-1,2.52,0,.53,1.79,0,1.92-.4.85-2.93,2.7-4.94,5.95-5.07.61,0,2.09-1,.79-.94-4.15.17-7.47,2.18-8.66,6.3l1.93-.41c0-3.16,6.8-3.89,9.17-5.42a5.68,5.68,0,0,0,2.67-2.91c.7-1.76,1.15-3.62,1.95-5.35.21-.47-1.67-.27-1.92.29Z"/><path class="cls-2" d="M207.56,90.15h13c.78,0,2-2,.73-2h-13c-.77,0-2,2-.73,2Z"/><path class="cls-2" d="M210.43,88.05c3.14,1.84,6.95,1,10.4,1,1.13,0,1.47-1.5.15-1.49-2.88,0-6.44.9-9.07-.64-.77-.45-2.44.58-1.48,1.15Z"/><path class="cls-2" d="M214.83,88c1.16,0,2.62-.14,3.55.69.45.4,2.23-.33,1.81-.71-1.19-1.06-3.08-.93-4.57-.93a1.78,1.78,0,0,0-1.28.5c-.29.35.25.45.49.45Z"/><path class="cls-2" d="M263.15,103.37c5.89,3.59,9.53,10.23,16.41,12.24.65.19,2.27-.78,1.17-1.1-6.65-1.94-10.32-8.62-16.05-12.1-.58-.35-2.35.47-1.53,1Z"/><path class="cls-2" d="M268.84,102.61c3.94,2.48,6.61,6.45,10.55,8.93.67.43,2.4-.51,1.5-1.07-3.94-2.48-6.61-6.45-10.55-8.93-.67-.43-2.39.51-1.5,1.07Z"/><path class="cls-2" d="M270.25,99.09c.73,1.88,2.41,3.41,3.79,4.82,1.95,2,4,3.83,6,5.79.33.33,2.07-.4,1.83-.64-1.83-1.81-3.74-3.55-5.57-5.36-1.5-1.48-3.33-3.12-4.12-5.13-.16-.41-2.05.21-1.93.52Z"/><path class="cls-2" d="M275.33,98.56c2.6,1.74,4.89,3.55,6.36,6.37.38.73,2.23,0,1.77-.84-1.52-2.92-3.94-4.82-6.63-6.61-.68-.46-2.39.48-1.5,1.08Z"/><path class="cls-2" d="M278.36,95a6.31,6.31,0,0,0,4.11,5.75,2,2,0,0,0,1.24-.13s.9-.4.59-.52a6.07,6.07,0,0,1-4-5.61c0-.29-1.95,0-1.94.51Z"/><path class="cls-2" d="M282.42,95.85a17.1,17.1,0,0,0,2.5,4.17c.47.49,2.31-.22,1.8-.75a16.26,16.26,0,0,1-2.37-3.94c-.33-.67-2.21,0-1.93.52Z"/><path class="cls-2" d="M245.91,104a23.08,23.08,0,0,0,4.94,7.45c.4.42,1.87.22,1.86-.5a15.21,15.21,0,0,0-.81-5.84c-.31-.76-2.12-.3-1.94.51,1.29,5.55,9.07,4.75,6.8-1.33l-1.85.67a15.55,15.55,0,0,0,6.81,5.86c.71.29,2.25-.73,1.14-1.18a14.55,14.55,0,0,1-6.17-5.49c-.39-.55-2.13-.07-1.86.66s1.36,4.26-1,3.25a3.93,3.93,0,0,1-1.95-3l-1.94.51a14.33,14.33,0,0,1,.81,5.52l1.86-.5a22.18,22.18,0,0,1-4.79-7.16c-.3-.78-2.22-.22-1.93.52Z"/><path class="cls-2" d="M180.91,102.28,180,102c-.4-.14-1.85.19-1.54.87,1.88,4.08,6.88,6.92,11,8,.54.14,1.4-.07,1.54-.7a7.27,7.27,0,0,0-2.66-7.74c-.52-.43-1.79.07-1.71.79.52,5,7,8.58,10,3.06,1.92-3.56-3.62-8.73-6.89-5.92-8.31,7.15,10.83,16.23,12.63,4.94l-1.86.5,3.24,3.25a1.23,1.23,0,0,0,1.86-.5,19.58,19.58,0,0,0,.82-3.25l-1.87.5c5.37,5.4,11.89,2.92,18.64,2.67,1,0,1.53-1.34.2-1.29-6,.22-12.2,2.69-17.06-2.19-.47-.48-1.75-.24-1.86.49-.14.92-.56,2.24-.81,3.25l1.86-.5-3.25-3.24c-.47-.48-1.74-.24-1.86.49-1,5.94-8.79,4.17-10.7-.16a2.59,2.59,0,0,1,4.34-2.79c1.39,1.55,1.19,8.56-3.95,4a5.75,5.75,0,0,1-1.54-3.85l-1.72.79a6.39,6.39,0,0,1,2.21,6.86l1.55-.7c-3.73-1-8.53-3.55-10.25-7.28l-1.53.87.9.33c.75.27,2.27-.8,1.14-1.22Z"/><path class="cls-2" d="M189.11,131.55c1.14,4.93,3.87,11.13,9.54,11.73.44,0,1.24-.2,1.32-.73a8.85,8.85,0,0,0-4.27-9.34c-.49-.31-2.24.21-1.65.91,3.65,4.35,11.3,8.68,10-.66l-1.72.78c5.67,4.09,9.17,9.2,16.58,5.65,1.2-.57.11-1.42-.81-1-6.48,3.11-9.74-2.44-14.26-5.7-.5-.37-1.82,0-1.72.77.27,1.89.64,5-2.24,3.18a18.07,18.07,0,0,1-4-3.84l-1.64.92a8,8,0,0,1,3.84,8.5l1.32-.72c-5-.54-7.34-6.77-8.31-11-.18-.79-2.12-.29-1.93.52Z"/><path class="cls-2" d="M268.87,135.8c-4.8-3.52-8.7-7.75-15.11-7.44-.37,0-1.26.16-1.36.63-1.24,5.94,8.55,13,13.87,12.9,2.31,0,4.51-.86,5.11-3.33.69-2.87-4.72-5.34-6.69-6.08-.36-.14-2.15.19-1.68.79,4.47,5.7,16.74,9,17.28-1.31l-1.74.57c2.49,1,4.82,2.28,7.3,3.25.53.21,2.3-.58,1.56-.87-2.49-1-4.82-2.27-7.3-3.25-.37-.14-1.71,0-1.74.58-.47,8.85-10.13,4.68-13.56.31l-1.67.8a15,15,0,0,1,5.38,3.42c2.39,2.4-1.38,4.35-3.65,3.63a16.69,16.69,0,0,1-3.55-1.8c-3-1.85-7.83-5.88-7-9.88l-1.35.63c6-.29,9.67,3.93,14.09,7.17.51.37,2.25-.39,1.8-.72Z"/><path class="cls-2" d="M139.1,139.23c2.29-5.4-8.7-8.92-12.5-9.15-.39,0-1.52.15-1.59.66-1.08,7.55,8.86,8.62,14.12,7,5.1-1.56,8.81-9.79,1.06-9.3-.34,0-1.22.17-1.37.56-4.35,11.38,14,7.65,19.8,7.53.4,0,2.19-.81,1.25-.79-5.14.11-16.79,3.38-19.65-2.48-.93-1.91.5-5.75,2.49-2.78,1.41,2.12-1.29,5.07-2.77,6.14-4.75,3.45-13.89-.19-13-6.42l-1.59.65c3.35.2,14,3.69,11.84,8.7-.14.33,1.7.16,1.91-.34Z"/><path class="cls-2" d="M118.78,113c7.49-1.81,17.67-2.93,21.95-10.28a.19.19,0,0,0-.06-.22c-3.42-2.49-9.09-4.67-13-1.77-5.41,4,0,11,4.27,13.54,7.75,4.56,9.49-9.19,3-12.65-.32-.17-1.94.13-1.75.69,1.24,3.55,4.76,14.09,9.94,13.32,5.64-.84,5.38-10.41.73-12.39-.39-.16-1.64,0-1.74.57-.69,3.77-.07,7.73,3.31,10a1.62,1.62,0,0,0,1.79-.37,18.93,18.93,0,0,0,3.32-10.79l-1.93.52c2.19,4.64,3.46,9.53,7.37,13.08.33.3,2.09-.07,1.86-.62-.7-1.7-.31-1-1.68-2.53-.4-.43-2.23.25-1.81.71l1.56,2.34,1.87-.61c-3.83-3.48-5.1-8.35-7.24-12.89-.27-.58-1.91-.08-1.93.52a17.64,17.64,0,0,1-3.17,10.31l1.79-.38c-3.26-2.15-3.86-5.89-3.19-9.52l-1.74.57c2.22.94,2.76,3.58,3,5.71.37,3-1.52,6-4.25,3.24s-4.62-7.47-5.93-11.26l-1.75.68c3.07,1.63,4.29,5,4,8.33-.71,7.85-8.94-2.29-9.82-4.87-1.52-4.52,3.41-6,7-5.1,6,1.56,2.45,5.14-1.1,7-4.49,2.41-9.88,3.13-14.79,4.31-1.15.28-.93,1.08.22.81Z"/><path class="cls-2" d="M146,108.06a42.42,42.42,0,0,0-16.94.86c-.87.23-1.16,1.14,0,1,6.5-.93,12.61-3.28,18.93-4.92.86-.23,1.15-1.19,0-1-4,.73-8.1.93-11.87,2.57-.28.13-.76.4-.53.76a5.32,5.32,0,0,0,4.37,2.57c.58.06,2.26-.91,1.19-1a4.51,4.51,0,0,1-3.76-2.3c-.17.25-.35.5-.52.76,3.43-1.5,7.2-1.64,10.85-2.3,0-.33,0-.66,0-1-6.15,1.6-12.09,3.91-18.4,4.81v1a38.75,38.75,0,0,1,15.5-.77c.59.08,2.28-.88,1.19-1Z"/><path class="cls-2" d="M59.34,107.27c2.79,2.17,4.71,5.21,8.11,6.49.41.16,1.82,0,1.88-.58.46-4.48-1.6-7.83-4.92-10.62-.34-.28-1.83.12-1.88.59-.6,6,3.9,14.32,10.84,11.83,6.58-2.36,4.72-11.93-1.94-12.48-.32,0-1.49.15-1.58.56C67.62,113.58,85,119,83.94,105.17c0-.11-.28,0-.34,0H82c-.32,0-1.5,0-1.58.45-.73,3.88.27,7,4.21,8.26.32.1,1.81-.17,1.76-.66-.48-4.45-9.61-14-13.81-8.37-4.8,6.43,14.66,5,17.09,5,.39,0,2.19-.8,1.25-.78-5,.07-11.79,1.46-16.29-1.2-1.38-.82-.59-2.24-.15-3.33.61-1.51,3.92,1.11,4.56,1.59,2.36,1.75,5.09,4.59,5.42,7.63l1.76-.62c-3.81-1.19-4.56-4.39-3.9-7.92l-1.58.56c2.32,0,1.44,3.21.93,4.94-.84,2.9-3.73,2.32-5.75,1.16a8.57,8.57,0,0,1-4.15-9.09l-1.58.56c8.31.68,5.69,14.09-.75,10.75-3.62-1.87-5.33-7.63-5-11.4l-1.87.59c3.36,2.82,5.27,6.06,4.81,10.47l1.88-.58c-3.41-1.28-5.33-4.32-8.12-6.49-.41-.33-2.09.44-1.82.65Z"/><path class="cls-2" d="M69.26,138.2c-1.43-1.39-2.39-2.32-4.37-2.59-.38-.06-1.55.06-1.55.66,0,4.37,9.5,12.14,13.19,6.79,2.23-3.23,2.83-8.73-.28-11.63-2.19-2-3.72,1.87-4,3.22-3.06,15.89,23.83,4,9.84-5.47-.5-.34-1.76.07-1.73.74.23,5.38,2.73,12.53,8.5,14.09.49.13,1.39-.11,1.55-.66,1.34-4.64.77-8-2.51-11.64-.38-.42-2.13,0-1.86.65,1,2.49,2.27,4.81,3.25,7.3l1.73-.74c-7.2-2.74-15-6.34-22.81-4-.6.18-1.32,1.21-.23,1.21H84.23c.76,0,2-1,.73-1H68.73c-.07,0-.15.54-.23.9,7.06-2.13,14.52,1.46,21,3.93.37.15,2-.06,1.73-.79-1-2.49-2.27-4.84-3.25-7.33l-1.86.64c3.12,3.41,3.63,6.68,2.36,11.08l1.56-.67c-5.36-1.44-7.53-8.57-7.74-13.5l-1.72.74c9.29,6.29-3.13,15.31-6.06,9.3-1-1.93-.45-4.4-.06-6.4.32-1.66,1.59,1.91,1.68,2.2a10,10,0,0,1-.12,4.91c-1.42,7.1-10.75.09-10.75-4.12l-1.56.67A6.43,6.43,0,0,1,67.47,139c.51.5,2.34-.24,1.79-.78Z"/></svg>