<svg id="layer1" xmlns="http://www.w3.org/2000/svg" viewBox="0 0 295.9 405.39"><defs><style>.cls-1{fill:#f7ba31;}.cls-2{fill:#492d0c;}</style></defs><path class="cls-1" d="M43,301.26A3.68,3.68,0,0,0,46.61,304a3.22,3.22,0,0,0,2,1.46,140.3,140.3,0,0,0,39.58,4.11c10.73-.31,21.81-1.82,31.87-5.81,15.78-2.44,31.68-6.08,46.25-12.76l.67-.33c1.53-.42,3.07-.85,4.62-1.25a3.18,3.18,0,0,0,2.45-2.68l.08,0c1.39-.41,2.76-.86,4.11-1.36,5,4,13.72,4.91,17.78.93a4,4,0,0,0,1.6-.71,17,17,0,0,0,2.09-.47,23.23,23.23,0,0,0,11.75-4.64c3.82-1.21,7.54-2.77,11.48-3.86a3.51,3.51,0,0,0,1.05-.49c3.7,1.2,7.4,2.36,11.15,3.35a4.37,4.37,0,0,1-2.59.91l-.06,0a3,3,0,0,0-1.53-.87c-7.46-1.72-14.63.92-20.25,5.8a25.94,25.94,0,0,0-9.83,1.66,29.43,29.43,0,0,0-7,2.05,3.48,3.48,0,0,0-2.63,1.34,3.25,3.25,0,0,0-1.43,1.8q-5.06-1.69-10.21-3a3.57,3.57,0,0,0-4.37,3.08,3.44,3.44,0,0,0-1.19.12l-3.39-.11c-4.52-.18-4.5,6.81,0,7a31.52,31.52,0,0,1,8.12,1.6,49.63,49.63,0,0,0,7,2.28,3.42,3.42,0,0,0,1.86,0,4.08,4.08,0,0,0,1.35.85c11.43,4.31,24.58,4.51,36.9,2.93a3.62,3.62,0,0,0,1.73.4,208.88,208.88,0,0,0,22.31-1,11.35,11.35,0,0,0,7.28-1.07,71.3,71.3,0,0,0,8.86-2.23c5.8-1.89,5.91-5.88,4.3-10a3.43,3.43,0,0,0-.42-1.42c-.3-.53-.55-1-.8-1.54a8.24,8.24,0,0,0-2.15-4.79,3,3,0,0,0-2.11-1.16,3.75,3.75,0,0,0-3.75,0c-1-.19-2-.33-2.88-.42a20.12,20.12,0,0,0-6.26-1c-.34-.13-.69-.23-1-.35,1,.07,2.08.12,3.13.13,3.79.06,4.36-4.57,1.76-6.52-16.28-12.24-37.86-14.47-57-19.6a3.19,3.19,0,0,0-3.07.65,3.33,3.33,0,0,0-3.24,1.87l-2.26-1a55.54,55.54,0,0,0,19.85-20c7-8,11.88-18,9.62-28.83a3.16,3.16,0,0,0-.28-.72,3.17,3.17,0,0,0,.28-.62c4-12.39,1.16-25.46-.8-38a3.17,3.17,0,0,0-3.51-2.51c-.39-1.58-.81-3.15-1.31-4.71a3.5,3.5,0,0,0-.52-1,35.6,35.6,0,0,0-1.47-5.9c-3-8.82-10.87-12.52-19.83-11.69a3.71,3.71,0,0,0-3.42,3.89,3.5,3.5,0,0,0-.31.53,3.28,3.28,0,0,0-1.7,4.85,26.93,26.93,0,0,0,2.21,3.38,3.8,3.8,0,0,0-.16,2.2c.09.42.19.82.29,1.23-.34-.78-.71-1.55-1.11-2.32-1.94-3.68-7.16-1-6.4,2.7.33,1.58.64,3.14.93,4.69a3.18,3.18,0,0,0-.57.72,3.09,3.09,0,0,0-1.45-2A147.43,147.43,0,0,0,182.19,148a3.16,3.16,0,0,0-1.61-2.89c-1-1.39-2.87-2.15-4.46-.94-6.17,4.7-9.52,11.82-12.19,19.26-8,6.05-15.58,12.59-23.35,18.9a82.73,82.73,0,0,1-14.14,4.55c-1.88.35-3.76.69-5.63,1.06-3.39.66-3.09,4.52-.87,6.11a3.74,3.74,0,0,0-1.58,3.81c1.73,12.06,8.16,22.88,9.4,35q-.53,3.63-1.38,7.24a3.85,3.85,0,0,0-.08,1.25,11.35,11.35,0,0,0-4.47,6.53,25.48,25.48,0,0,0-11.44,8.34,3.45,3.45,0,0,0-2.45.24c-1.31.66-2.6,1.33-3.87,2a3.54,3.54,0,0,0-1.75.36c-1.1.54-2.18,1.05-3.22,1.61l-.14.05a3.14,3.14,0,0,0,.61-1.84c.08-11.32,1.41-22.63-.93-33.82a3.3,3.3,0,0,0-.55-1.26c.09-2.18.18-4.36.19-6.53,0-.18.11-.37.16-.54a2.69,2.69,0,0,0,.88-1.35c1.85.9,4.42.37,4.93-2.1,1.72-8.29,4-16.47,4.14-25a3.28,3.28,0,0,0-.6-2.07c.39-.42.79-.84,1.19-1.25a3.21,3.21,0,0,0,3.29-.08c2.33-1.48,4.76-2.81,7.11-4.25a3.14,3.14,0,0,0,4.09,2.2,49.12,49.12,0,0,0,8.86-3.56,3.28,3.28,0,0,0,.94-.71c13.29-2.77,28.25-10.4,31.15-23.05,0,0,0-.1,0-.15a23.33,23.33,0,0,0,4.63-9.4,3.52,3.52,0,0,0,3-5.17,25.77,25.77,0,0,0-2.6-4c-1.07-1.82-2.06-3.68-3-5.59a2.93,2.93,0,0,0-1.88-1.58,40.38,40.38,0,0,0-3.73-8.85c-.07-.11-.14-.19-.21-.29,4.06-1.39,8.56-4.18,8.69-8.2a19,19,0,0,0,2.93-6.52c1,3.44,3.72,7.81,7.93,5.89a6.47,6.47,0,0,0,2.32-1.76s0,0,0,.07c.08.33.5.41.93.35-.7,1.35-2.05,2.16-4.42,2-.59,0-2,1-.94,1.19l.22.05v0h0c11.62,2,8.2-10.84,5.3-17.74a.67.67,0,0,0-.22-.25c-.57-1.93-1.14-3.87-1.6-5.83a23.16,23.16,0,0,1-.23-7.73.79.79,0,0,0,.45-.49,7.52,7.52,0,0,0,.21-2.55,13.53,13.53,0,0,0,0-1.56,2.38,2.38,0,0,0-.21-1.67c-.07-.36-.56-.43-1-.33s-.9.32-.9.69a38.5,38.5,0,0,1-.49,5.18.76.76,0,0,0-.32.44,32.29,32.29,0,0,0,.8,12.2c-.64-.23-1.83.2-1.59.79.66,1.66,1.32,3.31,2,5-.27.17-.45.39-.39.65l1.71,6.82a6.79,6.79,0,0,1-.46,1.65c-2.59,6.14-6.8-2-7.34-4.18-.12-.48-.91-.46-1.45-.19.22-1,.4-2,.55-3.08A3.56,3.56,0,0,0,175,98.3c.94-10.47,3.79-20.7,3.21-31.28a3.59,3.59,0,0,0-2.57-3.38,21.24,21.24,0,0,0-7.47-1.1,4.81,4.81,0,0,0-4,1.2,2.9,2.9,0,0,0-1.07,2.78A3.44,3.44,0,0,0,161.84,68a5.14,5.14,0,0,0-6.48-.95,7.32,7.32,0,0,0-4.76-2.58c-3.14-.35-5.62,1.64-7.45,4a3.87,3.87,0,0,0-2.92,2.19c0-.16-.09-.32-.14-.47-1.69-5-6.46-7.95-11-10.15-4-1.92-7.44,3.73-3.68,6a3,3,0,0,0,0,.42,3.23,3.23,0,0,0-.8,2.27c0,1.21.07,2.42.16,3.62A3.86,3.86,0,0,0,123.9,74a3.16,3.16,0,0,0-3.76-1.5c-2.62-.51-5.66,2.2-3.83,5.11s3.45,5.66,6.16,7.93l.07,0c.58.82,1.18,1.63,1.79,2.45a4,4,0,0,0,2.93,1.6.57.57,0,0,0,0,.13c-.54-.18-1.67.25-1.67.77,0,4.69.06,9.36.39,14a19.54,19.54,0,0,1-2.72,6.57.29.29,0,0,0-.06.18,2.48,2.48,0,0,1-.47,0,4.82,4.82,0,0,1-3.9-5.51,26.25,26.25,0,0,1,2-5.4c.47-.07,1-.29,1.09-.59l2.4-7.22c0-.14,0-.23-.15-.29l.15-.51c.22-.69-1.68-.27-1.92.25-1.25,2.66-2.21,5.44-3.36,8.13-2,3.88-3.83,8.51.25,11.14,3.78,2.43,7.17.64,9.1-2.45a3.16,3.16,0,0,0,3,1.8,3.88,3.88,0,0,0,1-.14h0a3.57,3.57,0,0,0,3.47,1.7,38.55,38.55,0,0,0,5.37,4.73,23,23,0,0,0,4.26,2.46,3.52,3.52,0,0,0-.62,1.24c-.29,1.06-.56,2.13-.82,3.19a3.09,3.09,0,0,0-1.49.89c-8.47,9.07-18.2,13.36-29.75,17.21-7.55,2.51-15.09,6.34-20.07,12.72-9.94,12.74-5.87,31.16-3.22,45.67a3.7,3.7,0,0,0,.37,1.05c0,3.46.12,6.93.19,10.39a36.42,36.42,0,0,0-2.37,8.54c-4.69,8.92-3.76,20-2.2,29.75a2.79,2.79,0,0,0,.71,1.46,66.48,66.48,0,0,0,.9,8.17c0,.06,0,.11,0,.16a4.35,4.35,0,0,0-1.3,1.15c-.26.35-.5.72-.74,1.07a3.94,3.94,0,0,0-1.66,1.34,19.14,19.14,0,0,0-2.12,3.74A96.44,96.44,0,0,0,66.77,273a60.23,60.23,0,0,0-11,6c-.12.09-.23.19-.34.29-2.3.57-4.56,1.21-6.78,2-7.05,2.38-16.68,9.08-9.9,16.95A12.78,12.78,0,0,0,43,301.26Zm86.4-197.07a2.32,2.32,0,0,0-1.37.52l-.09.13-.06-.69a24.61,24.61,0,0,0,.52-3.92,30.06,30.06,0,0,0,1.29,3.17c0,.19.09.36.14.54A2.55,2.55,0,0,0,129.43,104.19Zm15,45.48.32-.74c-.14.76-.26,1.53-.36,2.29a3.88,3.88,0,0,0-.39-.42C144.16,150.43,144.31,150.05,144.45,149.67Zm-29.45,19a4.52,4.52,0,0,0-.4-.49c.6-.48,1.18-1,1.77-1.45C115.9,167.36,115.44,168,115,168.66Zm6.59-22.22c1.85-.63,3.65-1.36,5.41-2.15a63.27,63.27,0,0,0-5.51,4.13,2.71,2.71,0,0,0-2.16-.67,20.44,20.44,0,0,0-4.88,1.27h-.69C116.38,148.11,119,147.3,121.59,146.44ZM86.43,284.08l-.89-.15a3,3,0,0,0-.51-.25,3.85,3.85,0,0,0-.12-1l.09,0,.64-.4a3.53,3.53,0,0,0,.92,0l1,0a1,1,0,0,0,.12.17A3.24,3.24,0,0,0,86.43,284.08Zm19,16.64.4-.1a3.4,3.4,0,0,0,1.29-.72l2,0C107.87,300.22,106.65,300.49,105.42,300.72Zm34.88-36.28a47.89,47.89,0,0,1-4.67,1.63q1.16-1.05,2.43-2h.16Zm-18.5,16a3.52,3.52,0,0,0-.68-.58,31,31,0,0,0,3.63-1.14l.8-.33c1.5-.34,3-.7,4.51-1.07a4.18,4.18,0,0,0,.61.15,3.46,3.46,0,0,0,2.3.95h.94c.36,0,.74,0,1.11,0l1,.11c.1.14.2.28.3.44l.15.18A52.73,52.73,0,0,0,121.8,280.42Zm33.75,2.22a82.08,82.08,0,0,0-12.34-2.83,3.15,3.15,0,0,0,.48-.88c1.25,0,2.5-.06,3.75-.16A51.62,51.62,0,0,0,164.17,280q-2.79,1.06-5.49,2.34C157.64,282.48,156.59,282.57,155.55,282.64Zm47.7-9.09-1.08.19c0-.1,0-.2,0-.3Zm-12.08-108.1c.05.37.11.73.17,1.1-.1-.48-.2-1-.31-1.44C191.08,165.22,191.12,165.34,191.17,165.45Zm-4.25,41.42c.66-7.91,3-15.71,4.25-23.53a30.58,30.58,0,0,0,.4-4.68,3.62,3.62,0,0,0,.25-.94,38.7,38.7,0,0,0-.09-8.75,96.76,96.76,0,0,0,4.58,17.2,3.23,3.23,0,0,0-.26,1.17c-.46,10.87,2.44,21.43,5.82,31.73-.58,2.78-1.21,5.56-1.82,8.34a4.32,4.32,0,0,0-.66.23c-5.52,2.46-9.73,6.69-13.16,11.54C184,228.81,186.07,217.07,186.92,206.87ZM155.5,189.82a4.15,4.15,0,0,0,.72-1c-.4,1.86-.75,3.69-1.08,5.47a4.13,4.13,0,0,0-3.07-.63C153.18,192.32,154.31,191,155.5,189.82Zm-6.59,7.57c-1.25,2.6-2.4,5.25-3.43,8A4.22,4.22,0,0,0,143,204,87.21,87.21,0,0,0,148.91,197.39Zm-10.46,41.28c0,.81-.08,1.62-.1,2.42a3.21,3.21,0,0,0-1.37-.29l-.47,0A12.83,12.83,0,0,1,138.45,238.67Zm-4.52-21.83,1.16-.92c-.29.77-.57,1.54-.84,2.32a3.86,3.86,0,0,0-3-.46c-.06-.16-.11-.33-.16-.49A2.72,2.72,0,0,0,133.93,216.84Zm-29.14,50.45a4.25,4.25,0,0,0,.24,1,3.26,3.26,0,0,0,2.17,4.87,3.65,3.65,0,0,0,2.5,1.1c.35,0,.69,0,1,0a2.81,2.81,0,0,0-1.28,2.53q-2.7-.45-5.43-.74a40.28,40.28,0,0,0-1.78-7.44C103.11,268.2,104,267.77,104.79,267.29Z"/><path class="cls-1" d="M163.84,335.3a54.36,54.36,0,0,0-5.39-21.37,3.46,3.46,0,0,0-4.13-1.54,16.79,16.79,0,0,0-5.95-6.94,3.51,3.51,0,0,0-4.79,1.26,40.45,40.45,0,0,0-3.43,24.2,21.82,21.82,0,0,0-2.59,1.49c-.28-6.21-2.78-12.11-6.38-17.67a4,4,0,0,0-5-1.16,17.28,17.28,0,0,0-2.64-2.5c-2.17-1.62-5.31.57-5.26,3,0,.71,0,1.44.09,2.16a3.46,3.46,0,0,0-4,2.83,2.92,2.92,0,0,0-1.25,1.26c-.21.47-.4,1-.59,1.53h-.17c-.39-2-2.73-3.71-4.59-3.25a3,3,0,0,0-4.53.21,15.45,15.45,0,0,0-1.36,1.8,3.38,3.38,0,0,0-5.06-.19,18.38,18.38,0,0,0-3.91,7.74c-.79-1.14-1.53-2.34-2.22-3.56a46.11,46.11,0,0,0-2.81-5.08,3.38,3.38,0,0,0-4.23-1.39c-1.3-1.66-2.61-3.31-3.79-5-1.9-2.72-6.43-1.91-6.52,1.66a4.67,4.67,0,0,0-.49.27l-1.56-1.83c-2.71-3.22-7.14.87-5.5,4.24,2.27,4.66,4.26,9.36,6.81,13.79a13,13,0,0,1-5.73-2.31,4.24,4.24,0,0,0-.4-.48Q63,325,59.6,321.51c-3.68-4.56-7-9.46-11.6-13.1a3.61,3.61,0,0,0-3.81-.64c-1.93-1.67-3.86-3.34-5.81-5a3.62,3.62,0,0,0-5.13.37c-.8-.94-1.59-1.89-2.35-2.87-2.68-3.48-8.7-.21-6,3.53,1.84,2.6,3.8,5.09,5.84,7.5a3.1,3.1,0,0,0,.32,4.44L47.87,330.2a3.49,3.49,0,0,0,2.52.88l.59.47a3.41,3.41,0,0,0,.9.5l1.45,1.23A15.3,15.3,0,0,0,52,335c-3.81,3.41-6.1,8.26-10.66,11.41a3.52,3.52,0,0,0,2.69,6.4,78.49,78.49,0,0,0,21-7.74c.11.06.22.1.33.17s.25.12.38.18A22.23,22.23,0,0,0,67,352.72a4.09,4.09,0,0,0,2.12,2.19,31.36,31.36,0,0,0,2.24,3.46c1.22,1.62,3.94,2.63,5.5.71,2.21-2.72,3.93-6,5.89-9.13a3.09,3.09,0,0,0,.53-.5,17.11,17.11,0,0,0,1.81-2.6c.19-.26.39-.52.59-.76a4.55,4.55,0,0,0,3.3,2.32,10.11,10.11,0,0,0,2.84.12,16.82,16.82,0,0,0,.85,3.39,3.57,3.57,0,0,0,3.79,2.48c.93,1.57,2.76,2.56,4.56,1.22.56-.42,1.1-.84,1.63-1.26a3.46,3.46,0,0,0,5.59-1.64,33.56,33.56,0,0,0,1.73-8.15,2.9,2.9,0,0,0-.84-2.28,17.79,17.79,0,0,0,1.37-2.49,3,3,0,0,0,1-1.8c.86,4.38,2.83,8,6.4,9.09.75,3.32,2.39,6.5,5.27,8.15a3.54,3.54,0,0,0,6.28.84,9.39,9.39,0,0,0,5-4.06,3.58,3.58,0,0,0,1-.41c1.47-.92,2.55-2.31,4-3.21,2.84-1.77,1.63-5.55-.76-6.41a3.11,3.11,0,0,0,.76-1.3,5.78,5.78,0,0,1,2.72-3.26A18.66,18.66,0,0,0,144.6,341a3.47,3.47,0,0,0-1.37,3.69c.9,4.43,3,8.46,4,12.84.68,2.81,3.91,3.07,5.85,1.54a53,53,0,0,0,4.41-3.89,3.2,3.2,0,0,0,3.71-2.47,10.34,10.34,0,0,1,1.25-3.17,3.92,3.92,0,0,0-1.44-4.82,3.71,3.71,0,0,0,2.72-3.37c0-.4,0-.81.07-1.21a3.44,3.44,0,0,0,.61-2.93C164.25,336.59,164.05,335.94,163.84,335.3Zm-6.71,9.83a9.07,9.07,0,0,0-1.21-3.09l.06-.12a21.64,21.64,0,0,0,1.79,1.92,4.5,4.5,0,0,0,.56.44A2.93,2.93,0,0,0,157.13,345.13Z"/><path class="cls-1" d="M193.3,346a10.77,10.77,0,0,1,.12-2.27,2.84,2.84,0,0,0-2.52-3.28.13.13,0,0,0,0-.06c-4.15-10.67-8.89-21.07-14-31.32a3,3,0,0,0-4.19-1.42l-.27-.95c-1.21-4.05-6.4-2.81-6.88.93a16.15,16.15,0,0,1-1,3.75,3.34,3.34,0,0,0-.11,3.63,44.36,44.36,0,0,1,3.88,9.52c-.85,6.35-.4,12.78-.35,19.2a3.48,3.48,0,0,0,3.31,3.41,3.37,3.37,0,0,0,.38.76c.22.33.46.64.7,1a8.22,8.22,0,0,0,4.58,5,58,58,0,0,0,8,5.78,3.52,3.52,0,0,0,5.14-2.09c.31-1.61.62-3.21,1-4.8a6.25,6.25,0,0,0,1.27.14C196.49,353,196.8,347.05,193.3,346Zm-17.6-5.26.21-1c.14.25.28.51.43.76A5.17,5.17,0,0,0,175.7,340.78Z"/><path class="cls-1" d="M275.23,309.72c-.17-3.81-5.51-4-6.83-.64a3.25,3.25,0,0,0-2.43.38c-4.57,2.74-6.31,7.28-7,12.15-.37.69-.73,1.4-1,2.12-.48.68-1,1.35-1.51,2-2.84,1.12-4.29,2.4-6.43,5.16a3.83,3.83,0,0,0-.71,3.56q-.72.65-1.5,1.23a4,4,0,0,0-1.68,0,3.33,3.33,0,0,0-.81-.53c.28-1.09.53-2.19.92-3.26a3,3,0,0,0-.48-2.88,17.68,17.68,0,0,0,1.41-6.08,3.05,3.05,0,0,0-3.32-3.35c.05-.48.09-1,.11-1.46.15-3.41-5-4.87-6.52-1.77v0a3.45,3.45,0,0,0-.46.12,3.33,3.33,0,0,0-1.32-.28c-3.41,0-5.89,3.17-7.93,5.79a17,17,0,0,0-7,6.34c0-.5-.11-1-.19-1.53a2.88,2.88,0,0,0-2.37-2.42l.09-.67c.39-3.22-3.6-4.21-5.74-2.61-.55-5.28-2.86-9.44-8.74-8.85-5.22.53-7.31,5.62-8.2,11.56A18.18,18.18,0,0,0,194,329a13.75,13.75,0,0,0,.84,6.66,52.68,52.68,0,0,1-.31,5.57,3.88,3.88,0,0,0,2.42,4.21,12.9,12.9,0,0,0,9.26,10.82c4.36,1.2,7.37-1.07,9-4.36a3.43,3.43,0,0,0,2.91-.29,13,13,0,0,0,2.41-3.21c3.42-2.38.64-7.78-2.76-6.46a25.42,25.42,0,0,0,1.3-4.7c.17-.37.32-.73.46-1.09a3.45,3.45,0,0,0,.14.34c-.09.24-.19.49-.27.73-1,2.91,2.63,5.55,5.14,4a24.81,24.81,0,0,0,3.7-2.9l.42-.09.21.05-.06.24a3.89,3.89,0,0,0-1,4.65c2,4.37,5.21,7.76,8.57,11.14a3.27,3.27,0,0,0,3.54.8,4,4,0,0,0,4.65-2.21,3.06,3.06,0,0,0,2.92-1.71,32.06,32.06,0,0,0,2.53-8.47,38.5,38.5,0,0,0,9.46-9c0,.71-.05,1.41-.06,2.11a3.64,3.64,0,0,0,1.43,2.81,3,3,0,0,0-.63,2,35.1,35.1,0,0,0,.54,4.1l-.18-.16c-3.3-3.06-8.27,1.88-4.95,4.95,2,1.83,4.46,3,6.42,4.82a3.53,3.53,0,0,0,6-2.48c0-1.31,0-2.62-.07-3.92A3.65,3.65,0,0,0,268,347a19.7,19.7,0,0,0-.29-2.55c-.14-1.6-.33-3.2-.63-4.8a3,3,0,0,0-.88-1.65c8.22-4.93,8.09-16.75,9.7-25.37A3.79,3.79,0,0,0,275.23,309.72Zm-38.32,29.54L236,339a7.82,7.82,0,0,1,1.79-2.92c0,.14,0,.29,0,.44a3.52,3.52,0,0,0,.41,1.76A3.59,3.59,0,0,0,236.91,339.26Z"/><path class="cls-2" d="M155.83,17.71c.35-2.22-.63-4.23-3-4.41a5.07,5.07,0,0,0-5,3.73c-.26.79,1.7.55,2-.19.37-1.13,1.32-2.54,2.69-2.24s1.64,2.09,1.46,3.3c-.14.88,1.82.58,1.94-.19Z"/><path class="cls-2" d="M154,16.44c-2.64,1.46-5.76.66-8.47,2.44-3.16,2.08-5.55,5.45-7.73,8.46-1.56,2.16-3.63,4.73-2.52,7.5.55,1.37,4.21,2.78,4.22,4,0,.93,1.94.57,1.94-.19s-.64-1.32-1.34-1.8c-2.7-1.87-4.09-3.4-2.2-6.74A42.1,42.1,0,0,1,145.19,21c3.1-3,6.41-1.73,9.64-3.52,1.16-.64.1-1.49-.81-1Z"/><path class="cls-2" d="M153.51,17.69c3.83,2.14,7,5.48,10,8.64A12.26,12.26,0,0,1,167,32.1c.6,2.95-3.92,4.9-5.87,6-.31.19-.26.26.1.26h2.62c.37,0,2.19-.62,1.26-.62-2.69,0-1.07-.4.26-1.24A12.54,12.54,0,0,0,168,34.3c1.47-1.63.92-3.46,0-5.19-2.4-4.62-8.21-9.59-12.64-12.07-.48-.26-2,.54-1.83.65Z"/><path class="cls-2" d="M140.78,39.36c-6.57,3.39-15.3,4-18.76,11.5-1.4,3-.93,6.72-.45,9.84.88,5.65,2.08,11.1,2.47,16.82.72,10.44-1.3,21.65,2.86,31.55,3.21,7.66,13.75,9.31,19.65,14,.48.39,2.24-.37,1.81-.71-5.7-4.54-13.36-6-18.18-11.67-5.94-7-3.87-19.95-4-28.39a111.2,111.2,0,0,0-1.13-14.12c-.62-4.29-1.89-8.41-2-12.76-.26-10.69,11.49-11.83,18.89-15.65,1.15-.59-.61-.71-1.16-.43Z"/><path class="cls-2" d="M147.7,122.71c10.89.85,25-3.74,29.25-14.72,2.45-6.35,2.41-14.3,3.15-21,1-8.77,1.29-17.94,1.41-26.77,0-.33-1.92-.06-1.93.52A351.84,351.84,0,0,1,177,96.87c-.63,5.34-1,10.59-3.81,15.28-4.55,7.49-16.24,10.37-24.21,9.75-.42,0-2.22.73-1.25.81Z"/><path class="cls-2" d="M161.73,39.4c.14,1.15,1.42,1.46,2.36,1.82,3.11,1.17,5.95,1.59,8.82,3.49,5.94,3.92,7.72,10.88,7.54,17.6,0,.92,1.92.57,1.94-.19.15-5.62-.86-10.86-4.46-15.31a20.83,20.83,0,0,0-6.74-5c-1.39-.72-7.32-1.26-7.53-2.91-.09-.78-2-.32-1.93.52Z"/><path class="cls-2" d="M123.35,61.34c7.36-1.39,14-.36,18.85,5.58.34.42,1.51-.1,1.79-.38,3.73-3.8,9.9-5,12.52.29.24.5,1.42,0,1.71-.18,2.72-2.12,4.4-3.93,8.23-4.44,4.33-.57,8.49-.09,12.76-.44-.58,0-2.09,1-.81.9a4.55,4.55,0,0,0,2.29-.7c.34-.2.59-.54,0-.63-5.32-.87-10.12-.49-15.41.21-3.51.46-5.94,2.86-8.6,4.94l1.72-.18c-3.38-6.82-11.91-4.08-16.22.3l1.79-.39c-5.21-6.36-12.57-7.2-20.34-5.74-.82.16-1.67,1.11-.32.86Z"/><path class="cls-2" d="M149.76,76.11l-.18.11,1.15-.36c.3,0-.19-.08-.19-.08a2.07,2.07,0,0,0-.74.1c-.14,0-1,.28-.88.57a5.94,5.94,0,0,0,.18.6c.06.12.23.35.35.35h.43c-.11,0-.23-.3-.34-.35s0-.07,0,0c0,.19.44.1.55.09a1.86,1.86,0,0,0,1.49-.72c.18-.31.54-1,.42-1.39,0-.12-.24-.15-.34-.15a2.3,2.3,0,0,0-1.47.41l1.53-.34c-1.18-.34-3.25-.09-3.63,1.33-.44,1.69,1.65,2.19,2.86,2.07s3.73-1,3.12-2.71c-.51-1.49-2.48-2.11-3.89-2s-3.74,1.26-3.73,3,2.37,2.38,3.64,2.55a5.9,5.9,0,0,0,5.2-2c1.26-1.66.3-3.81-1.27-4.84-.48-.3-2.12.48-1.82.67A3.57,3.57,0,0,1,154,75.88a2.55,2.55,0,0,1-2.11,2.55c-2,.14-4.67-1.87-2.69-3.72.77-.71,1.95.12,2.56.72s.95,2-.19,2.08A1.45,1.45,0,0,1,150,75.89a1.19,1.19,0,0,1,.16-.39c.2-.2.12-.17-.25.1a1.37,1.37,0,0,0,.4.09,2.35,2.35,0,0,0,1.43-.54,5.08,5.08,0,0,1-1.37.25h0a.79.79,0,0,1-.34,0,2.59,2.59,0,0,1-.42,1.36A3.84,3.84,0,0,1,151,76.4h0a2.06,2.06,0,0,1,.55.06s0,0,0,0-.26-.08-.34-.08h-.44a.84.84,0,0,1,.35,0,2.53,2.53,0,0,1-.19-.45l-.88.55,0,0h-1a2.38,2.38,0,0,0,2.24-.33c.32-.2.24-.43-.12-.45a2.35,2.35,0,0,0-1.37.36Z"/><path class="cls-2" d="M158.83,81.48c1.54-2.81,12.62-5.19,14.3-1.86.38.75,2.22,0,1.77-.84-1.44-2.85-6.75-2-9.19-1.58-2.77.45-7.22,1.34-8.72,4.07-.52,1,1.44.94,1.84.21Z"/><path class="cls-2" d="M146.61,81.42c-4.3-4.14-12.83-5.16-18.26-3.08-1.26.48-.12,1.19.77.85,4.56-1.74,12.12-.44,15.7,3,.51.49,2.34-.25,1.79-.78Z"/><path class="cls-2" d="M122.29,72c-1.21,0-5-.41-5.8,1a5.39,5.39,0,0,0-.26,5.74c2.27,3.94,5.24,6.15,5.38,11.09.14,4.61-2.6,9.5-4.49,13.62-2.1,4.61-2.65,9.46,2.81,11.56,3.6,1.39,8.77,1.09,10.16-3.05.35-1-1.58-1-1.84-.21-1.35,4-6.34,2.52-8.78,1.3-3.25-1.63-1.93-5.79-1-8.19,1.48-3.91,3.38-7.6,4.57-11.64a12.11,12.11,0,0,0-.88-9.46c-2-3.49-9.14-10.31,0-10.4,1.09,0,1.5-1.4.18-1.38Z"/><path class="cls-2" d="M123.41,98.62c-.15,3.13-2.79,5.3-4,8-.72,1.61-1.1,4.49,1.12,5,1.68.42,3.47-.73,4.4-2,1.87-2.62.44-6.18,2.16-8.87.19-.3-1.59-.18-1.92.32-1.22,1.9-1,4.29-1.22,6.44-.18,1.63-2.3,5-3.11,1.88-1.06-4.08,4.32-7.34,4.52-11.35,0-.38-1.91-.11-1.94.52Z"/><path class="cls-2" d="M178.71,72.49l0,.6c0,.27.95,0,1,0,2-.56,3.69,1.89,4,3.41.4,1.91-1.08,4.57-1.8,6.24-1.8,4.13-1.39,9.47-.25,13.68,1,3.83,3.77,7,4.75,10.86,1.71,6.81-7.09,7-11.07,4.3-.51.24-1,.79-1.54.79h.87c.4,0,2.2-1,1.26-1h-.87c-.18,0-1.94.47-1.54.75,6.83,4.71,17.56,1.56,14-8.07-1.47-3.94-3.88-7-4.55-11.27-.85-5.39,1-9.65,2.46-14.65,1.14-3.84-2.27-6.61-5.86-5.62l1,0,0-.6c0-.26-1.9,0-1.93.52Z"/><path class="cls-2" d="M177.4,97.74c1.17,4.1,4.65,8.05,3.93,12.52l.85-.54c-3.21.69-1.88-7.81-2.41-9.45-.18-.57-2.1,0-1.93.52,1.09,3.36-1.54,11,4.56,9.72.22-.05.8-.25.85-.54.74-4.61-2.71-8.52-3.91-12.74-.17-.57-2.09,0-1.94.51Z"/><path class="cls-2" d="M156.7,85.76a20.36,20.36,0,0,0,17.48-.62c1.14-.63-.57-.91-1.2-.56-4.48,2.46-10.12,2.19-14.74.25-.57-.24-2.34.59-1.54.93Z"/><path class="cls-2" d="M145.47,86.22c-5.3.17-11.31,3.18-15.82-.81-.38-.34-2.1.4-1.83.65,4.77,4.22,10.86,1.11,16.39.93.39,0,2.19-.8,1.26-.77Z"/><path class="cls-2" d="M146.93,84.68c.74,2.55,1.89,4.7,2.12,7.41.13,1.56.29,3.16.29,4.74,0,.82,2.18.41,2.18-.24v-.53c0-.82-2-.41-2,.24v.53c0,.82,1.72.41,1.72-.24,0-1.38-.09-2.77-.12-4.15-.05-3.07-1.38-5.42-2.21-8.27-.2-.7-2.18-.17-2,.51Z"/><path class="cls-2" d="M153.45,84.51c-.09,4.29-1.2,8.58,0,12.8.23.82,2.16.29,1.93-.52-1.18-4.1-.08-8.29,0-12.46,0-.94-1.93-.6-2,.18Z"/><path class="cls-2" d="M148.88,96c-2,.06-5.4,1.34-5,3.88.39,2.21,4.28,1.7,5.79,1.69A1.46,1.46,0,0,0,151,101c.23-.39-.19-.67-.55-.67-1.24,0-3.32.42-4.32-.51a1.32,1.32,0,0,1,.32-1.92,3.74,3.74,0,0,1,2.22-.71c1,0,1.55-1.25.23-1.21Z"/><path class="cls-2" d="M154.32,97.26a2.85,2.85,0,0,1,3.37,1.55c.7,1.56-2,1.67-2.92,1.51s-2,1.07-.7,1.3c1.72.3,6-.31,5.67-2.87a3.58,3.58,0,0,0-2.44-2.65,6.32,6.32,0,0,0-2.77-.13c-.41.06-1,.25-1.08.74s.53.6.87.55Z"/><path class="cls-2" d="M142.36,108.4c1.54-.43,6.36-2.69,7.51-2.06a3.89,3.89,0,0,0,3.37.31c1.4-.35,1-1.68,2.94-.93,1.73.68,3.13,2,4.87,2.67.57.21,2.33-.62,1.55-.91-2.66-1-5.74-4.47-8.84-2.92a3.45,3.45,0,0,0-1.22,1c-.37.39-2.11-.56-2.75-.7-2.28-.54-5.75,2.13-7.68,2.65-1.15.32-.91,1.24.25.93Z"/><path class="cls-2" d="M141.92,108.91c4.72,3.41,12.76.68,18.07.57,1.08,0,1.51-1.38.19-1.35-4.82.1-12.55,2.74-16.76-.3-.66-.48-2.38.45-1.5,1.08Z"/><path class="cls-2" d="M142.18,108.68c-.76,2.25,4.48,3.16,5.88,3.45,5.26,1.09,9.77-1,14.82-2.2,1.21-.29.83-1.66-.37-1.38-3.1.74-6.09,1.93-9.24,2.44-.26,0-9.6-1-9.24-2.06s-1.57-1.09-1.85-.25Z"/><path class="cls-2" d="M140,120.82c2.9,6.7-5,12.39-10,15.35-6.89,4.12-15.35,3.51-23,5.14-13.08,2.8-22.43,12.61-24.26,25.91-1.93,14.08,3.6,28.19,3.66,42.26,0,8.2-3.38,15.7-4.44,23.74-1.16,8.78,2.15,17.4,3.52,26,0,.24.41.22.61.22h2.17c.78,0,2-1.07.73-1.07-2.74,0-3.17-7.61-3.67-9.84A51,51,0,0,1,84,233c.67-8.13,4.26-15.49,4.44-23.73.31-14.63-5.5-28.85-3.48-43.53,1.15-8.37,6.15-15.39,13.15-20,7.36-4.81,17.27-4.06,25.58-5.94,7.38-1.67,22.33-10.09,18.25-19.52-.31-.72-2.22-.14-1.93.52Z"/><path class="cls-2" d="M110.79,186.89c-.84,2.14-.74,4.57-1.19,6.84-.67,3.36-1.72,6.65-2.68,9.94-1.74,6-4.91,11.25-6.86,17.14-1.65,5,.36,10.09,1.14,15,1.15,7.32-2.36,15.59-3,22.91-.06.66,1.87.27,1.92-.29.61-6.71,2.59-13.21,3.19-19.91.5-5.61-2.45-10.77-1.68-16.46.82-6,5.15-11.25,6.77-17,.93-3.32,1.93-6.61,2.78-9.94.69-2.77.53-5.86,1.56-8.48.2-.51-1.69-.28-1.92.29Z"/><path class="cls-2" d="M84.28,259c-1.74,3.62-3.77,7.09-5.31,10.8s-1.65,7.34-2.07,11.13c-.7,6.26-2.87,12.22-2.41,18.56.18,2.51,1.32,4.2,3.76,2.82,5.29-3,4.63-13.53,6.55-18.36l-1.88.19c1,4.7-1.26,10.75-2,15.41-.42,2.79-1.82,9.32,1.67,10.88,2.93,1.3,4.85-1.88,5.24-4.24s-.08-5-.33-7.45c-.43-4.25,1.2-9.66,2.92-13.49.42-.94-1.52-.8-1.82-.13-1.89,4.19-3.42,9.51-3,14.14a61.23,61.23,0,0,1,.39,6.2c0,2.63-2.44,5.51-3.39,1.69-1.92-7.73,3.91-15.87,2.24-23.53-.16-.72-1.67-.31-1.87.2-2,5.08-1.83,10.78-4.36,15.67s-2.27-4.28-2.1-6c.57-6,2.28-11.85,2.83-17.87s4.22-11.22,6.75-16.47c.45-.92-1.5-.8-1.82-.13Z"/><path class="cls-2" d="M89.44,284.78c.08,4.68.68,9.24,0,13.89s-1.79,9.3-1.29,14.17c0,.29.4.42.63.46,8.65,1.55,6.11-23.56,7.41-28.22l-2,.33c2.3,6.73.68,13.51,1.14,20.39.14,2.09,1.54,5.46,4.16,3.61,2.24-1.58,1.83-7.87,2-10.14.34-4.86.19-9.79.75-14.63.12-1-1.85-.76-2,.14-.79,6.78-.41,13.65-1.31,20.43-.23,1.68-.85,4.48-1.57,1.14a23.46,23.46,0,0,1,0-6.32c.31-5.09.43-10.27-1.23-15.14-.31-.92-1.74-.4-1.94.33-1.69,6-.83,13-1.64,19.28a29.15,29.15,0,0,1-1,4.79c-1.42,4.67-1.59-1.88-1.38-3.73.41-3.51,1.27-6.94,1.63-10.47.36-3.38-.37-7-.43-10.45,0-1-2-.75-2,.14Z"/><path class="cls-2" d="M98.38,259.58c5.18,4.49,6,12,6.12,18.41.15,6.71,2.71,12.62,3.67,19.17l1.31-1c-4-.21-5.4-9.14-7.29-11.92-.49-.72-2.33,0-1.77.85,2.22,3.27,3.37,12.19,8.38,12.46.55,0,1.41-.26,1.31-1a92.17,92.17,0,0,0-2.69-10.71c-1.07-3.9-.79-7.86-1.09-11.84-.43-5.66-2-11.78-6.46-15.63-.64-.56-2.33.38-1.49,1.11Z"/><path class="cls-2" d="M163,120c.88,7.65,5.71,13.39,11.91,17.6,6.68,4.54,13.54,5,21.32,5.5,11.21.75,18.11,6.18,21.21,16.92,2.57,8.88,2.48,18.93,2.74,28.09.28,10.12.66,20.71-1.11,30.7a61,61,0,0,1-11.5,25.52c-6.7,9-15.49,14.74-26.1,18.17-8.52,2.75-17.34,4.32-25.71,7.55-1.27.5-.1,1,.73.68,16.58-6.41,34.45-7.26,47.67-20.43a63.48,63.48,0,0,0,14.32-22.63c3.57-9.46,3.64-19.34,3.72-29.31a251,251,0,0,0-1.54-31.85c-.89-7.5-3.37-17.16-10.64-21.08-8.57-4.63-18.38-2.15-27.27-5.45s-16.71-10.86-17.82-20.5c-.07-.56-2-.14-1.93.52Z"/><path class="cls-2" d="M192.64,185.7c1.46,4,1.43,8.93,2.32,13.18.66,3.22,1.36,6.35,1.81,9.6.64,4.66.69,12.34,4.64,15.62.45.37,2.2-.37,1.81-.69-4.05-3.37-4-11.76-4.67-16.54-.4-2.88-1.05-5.67-1.66-8.5-.93-4.26-.86-9.13-2.31-13.19-.2-.54-2.11,0-1.94.52Z"/><path class="cls-2" d="M200.65,222.2c-4.8,6-9.12,12.41-14,18.42s-10.46,17.27-19.36,17.26c-3,0-6-1.94-8.6-3.09a24.53,24.53,0,0,0-8.59-2.23c-6.09-.38-12.28,1.44-18.26,2.32-.32,0-1.32.39-1.06.92,1.7,3.47,5.36,3.09,8.75,3.42,4.55.45,6.07,6.31,11.1,5.21,1.2-.27.86-1.49-.33-1.23-3.48.76-5.18-3.89-8-4.79-3-1-8,.23-9.61-3.13l-1.07.92c8.18-1.19,16.54-3.91,24.58-.76,4.8,1.88,9.85,5.38,15.19,3,6.57-2.89,10.72-9.23,14.88-14.79,5.23-7,10.48-14.15,15.92-21,.75-.95-1.09-1.14-1.6-.5Z"/><path class="cls-2" d="M133.45,255a8.81,8.81,0,0,1-2.61-.91,5.89,5.89,0,0,0-2.53-.38c-.87.06-2.88.27-3,1.49-.06,1,1.3,1.71,2,2.12a11.61,11.61,0,0,0,3.86,1.43,1.63,1.63,0,0,0,1.36-.37c.29-.27.23-.67-.19-.74-1.66-.26-4-1.08-5-2.52-.17-.23,0-.23-.23-.14a3.34,3.34,0,0,1,1.66-.07c1.36.29,2.49,1.18,3.92,1.25a1.48,1.48,0,0,0,1.27-.54c.25-.39-.21-.61-.54-.62Z"/><path class="cls-2" d="M126.43,255c-1.57-1.46-4.3-3.11-6.55-2.67-1.23.23-2.68,1.3-1.77,2.62s3.49,2.2,5,2.82a50.15,50.15,0,0,0,5.89,1.95c.85.21,2.29-1,1.11-1.33a49.72,49.72,0,0,1-7.42-2.58c-.57-.25-3-1.12-3-2,0-.61,2.89.68,3.06.77a9.18,9.18,0,0,1,2.13,1.52c.65.59,2.32-.36,1.49-1.14Z"/><path class="cls-2" d="M118.65,253.63c.28,0-.21-.19-.28-.23l-.63-.43a3.44,3.44,0,0,0-1.56-.63,4.59,4.59,0,0,0-3.25,1,2.06,2.06,0,0,0-.63,2.23,3.37,3.37,0,0,0,2.36,1.84c.68.21,2.28-.8,1.16-1.14s-2.4-1.49-1.31-2.52c.94-.91,2.44.94,3.41,1.08.82.11,2-1,.73-1.21Z"/><path class="cls-2" d="M157,270.26c-6.67,0-11.86-2.53-18.07-4.37-4.91-1.46-10.24-2.81-15.24-3.89a37,37,0,0,1-8.89-3c.32-2,1.41-2.27,3.26-.91.94.28,1.87.64,2.82.89a29.19,29.19,0,0,0,6,.83c1.06.07,8.87.91,9.21.52-.53.62,1.4.46,1.79,0s.43-.41.51-1c0-.32-.33-.39-.59-.39-6.82,0-13-.23-19.58-2.17a9.14,9.14,0,0,0-7.52.68c-.14.08-.58.44-.3.64,6.42,4.46,14.73,5.86,22.22,7.68,8,1.94,15.21,5.5,23.58,5.53.69,0,2.07-1,.76-1Z"/><path class="cls-2" d="M173,138.05c-1.23,12.08-5.51,24-9.19,35.51s-5.5,23-7.71,34.68c-1,5.23-.83,10.48-2,15.67-.8,3.56-1.59,7.3.3,10.61,1.12,2,4,1.91,5.85,1.73,1.67-.15,3.3-.63,4.95-.87,4.72-.68,8.39.57,12.4,2.88.56.32,1.63.13,1.72-.64.81-7.08.9-14.21,1.31-21.33.47-8.22,2.87-16.13,3.72-24.29s.77-16.27.91-24.39c.14-7.76,1.3-15.43,1.46-23.16,0-1-1.94-.79-2,.13-.15,7.1-1.23,14.13-1.42,21.25-.21,8.15-.18,16.3-.79,24.44s-2.87,16.06-3.73,24.2c-.81,7.74-.57,15.54-1.46,23.28l1.72-.64a22.73,22.73,0,0,0-10.22-3.47c-3.18-.19-6.31.94-9.44,1.23-7,.65-3.48-10.48-2.74-13.87,1.18-5.34,1.14-11.1,2-16.54a245.23,245.23,0,0,1,8.64-35.87c3.21-9.87,6.56-20.33,7.61-30.67.1-1-1.87-.79-2,.13Z"/><path class="cls-2" d="M179.78,142.11c-4.45.31-8.28,12.21-6.39,15.65,1.28,2.34,3.5.78,4.84-.68,3.47-3.73,5.15-9.47,5.47-14.4.05-.79-1.21-.62-1.6-.31-4.59,3.7-4,13.88-4.38,19.12a135,135,0,0,1-2.11,15.23c-.68,3.63-1.38,7.26-1.91,10.92-.38,2.64-1.26,5.5-.21,8.07.33.82,2.24.26,1.93-.52-1-2.45-.08-5.2.23-7.73.38-3.05,1-6.07,1.56-9.08a135.25,135.25,0,0,0,2.28-14.68c.26-3.21.47-6.43.82-9.64.33-3,.48-8.83,3-10.89l-1.6-.31a25.13,25.13,0,0,1-2.47,9.65c-.55,1.06-4.47,6.73-4.3,2.69.09-2.06,2-11.59,4.6-11.77,1-.08,1.52-1.41.2-1.32Z"/><path class="cls-2" d="M169.58,148.17c-2.25,3.41-4,7.07-6.18,10.54-2.92,4.74-7.51,8.06-11.9,11.33a70.84,70.84,0,0,1-38,14.16c-.13,0-1.69.45-1.33.69l1.3.87c.44.29,2-.49,1.83-.64l-1.31-.87-1.34.68c12-.94,22.67-3.9,33.11-10a94.21,94.21,0,0,0,15.58-11.57c4.59-4.17,6.81-10.43,10.16-15.5.11-.17-1.59-.11-1.9.35Z"/><path class="cls-2" d="M185.69,146.42c-1.71,4.2.68,10.18,1.29,14.46.64,4.45,2.08,8.68,3.05,13.06.78,3.51,2.33,6.85,2.61,10.45,0,.36,2,0,1.94-.52-.53-6.7-3.57-13.69-5.13-20.24-.65-2.76-.93-5.67-1.43-8.46s-1.51-6.42-.42-9.09c.13-.34-1.71-.15-1.91.34Z"/><path class="cls-2" d="M191.84,184.1c-5.64,8.14-7.77,17.62-8.68,27.35-.47,5-.51,10.12-.53,15.18,0,2.18,0,4.37.05,6.55a26.08,26.08,0,0,0,.82,5.2c.38,1.62,1.87,1.32,1.31,3.78-.18.76,1.77.46,1.93-.23.23-1,.39-1.26-.24-2.23-2-3.12-1.92-6.79-1.94-10.4,0-5,0-10,.31-15,.57-10.59,2.64-21.27,8.77-30.13.53-.76-1.43-.62-1.8-.07Z"/><path class="cls-2" d="M111.66,187c.52,2.95,2.68,5.43,3.63,8.28,1.34,4,2.62,8.09,3.75,12.19,1.83,6.62,3.88,13.12,4.54,20,.73,7.73-1.48,14.85-7,20.32a43,43,0,0,1-12.16,8,10.69,10.69,0,0,0-4.46,3c-.12.15,1.55.1,1.9-.34,2-2.48,6.58-3.79,9.29-5.42a44.86,44.86,0,0,0,8.29-6.47c4.51-4.44,6.13-10.65,6.23-16.78.12-7.15-2.18-14.29-4.2-21.06-1.22-4.06-2.32-8.15-3.64-12.19-1.09-3.35-3.6-6.6-4.2-10-.07-.39-2,0-1.93.51Z"/><path class="cls-2" d="M130.8,203.91c12.71-1.38,24.92-11.11,30.63-22.33.46-.9-1.49-.78-1.82-.12-5.32,10.46-16.68,19.92-28.59,21.21-1,.11-1.55,1.38-.22,1.24Z"/><path class="cls-2" d="M143.54,204.76c8.86-3.73,16.32-12,20.52-20.5.49-1-1.46-1-1.86-.25-4,8.11-11.09,16-19.53,19.56-1.22.51-.14,1.61.87,1.19Z"/><path class="cls-2" d="M125.16,234c.14,1.9,6.3,1.25,7.63,1.2a21.41,21.41,0,0,0,13.28-5.59c.87-.79-1-1-1.58-.45a19.45,19.45,0,0,1-10.34,4.67c-.48.08-7,.52-7.06-.35s-2-.33-1.93.52Z"/><path class="cls-2" d="M124.78,235.42c3.71,2.43,7.13,3.89,11.61,4,.26,0,2.14-.54,1.41-.82-4-1.53-8-1.38-12.14-1.34-.36,0-1.35.21-1.37.69-.5,9.56,12.6,9.27,19.08,8,.79-.16,1.69-1.06.34-.79-6.23,1.25-18,1.26-17.49-7.7l-1.38.68c3.93,0,7.65-.16,11.38,1.28l1.41-.82c-4.27-.1-7.52-1.53-11-3.83-.48-.32-2.14.46-1.81.68Z"/><path class="cls-2" d="M80.07,263.18c-10.38,1.25-18.33,8.36-26.53,14.23-6.19,4.44-15.08,7.11-18.31,14.63-3,7.08,4.39,12.35,10.12,14.14a39.47,39.47,0,0,0,11.19,1.38c7.09.06,14.26,1.26,21.33,1.74.86.06,2-1.19.71-1.28-8.86-.59-17.78-1.18-26.61-2-7.33-.69-18.52-5.41-14.51-14.75,2.63-6.13,10.9-8.77,16.08-12.22,8.33-5.56,15.92-13.33,26.32-14.59,1-.12,1.54-1.43.21-1.27Z"/><path class="cls-2" d="M52,281c4.66-.19,9.3-1.16,13.93-1.74,4.16-.52,8.38.07,12.46-.92,1.18-.29.87-1.41-.3-1.13-3.83.94-8,.34-11.93.83-4.62.58-9.3,1.55-13.94,1.74-1,0-1.55,1.27-.22,1.22Z"/><path class="cls-2" d="M105,276.37c6.87.16,13.58,1.82,20.39,2.59s13.67,1.09,20.51,1.25c7.69.19,17.39,1.29,24.48-2.46.8-.43-1.14-.18-1.47,0-4.18,2.22-9.71,1.81-14.31,1.82q-8.38,0-16.77-.44c-10.59-.54-21-3.25-31.56-3.48-.37,0-2.19.71-1.27.73Z"/><path class="cls-2" d="M169.63,276.84c1.06,0,1.57-.39,1.52-1.29.11-.54.25-1.08.41-1.61,1.38-5.08,8.33-5.88,12.24-3.11a18.42,18.42,0,0,0,10.25,3.34,78.63,78.63,0,0,0,13-.81c4.75-.56,8.22-3.69,12.64-5.13,3.31-1.07,11.74,4.25,6.37,5.89-1.52.46-3.16.6-4.72.94-3.39.74-6.5,3.51-9.23,5.46-8.4,6.05-21.31,10.15-31.41,6.7-.64-.22-2.27.71-1.17,1.08,10.56,3.61,23.51-.59,32.58-6.32,3.61-2.28,6.66-5.41,11-6.21a22.55,22.55,0,0,0,5.06-1.31c4.12-1.8-.41-5.7-2.52-6.92-3.74-2.15-8.63.38-11.88,2.21-4.7,2.65-9.24,2.7-14.41,3.08-5.82.43-10.28-.14-15-3.66-5.81-4.31-16.3.77-15.33,8.45,0,.33.62.32.84.3a1.92,1.92,0,0,0,1.55-1c.53-.73-1.42-.6-1.81-.07Z"/><path class="cls-2" d="M102.24,308.37c12.57-.16,24.58-3.15,36.37-7.34,6.6-2.34,13.12-4.86,19.89-6.7s13.73-3,20.44-5.18c1.14-.36.88-1.41-.27-1-11.32,3.63-23,5.59-34.2,9.64-13.55,4.88-26.93,9.28-41.49,9.46-.76,0-2,1.18-.74,1.16Z"/><path class="cls-2" d="M142.52,277.13v.37c0,.28,2.17,0,2.17-.51,0-7-2.39-12.2-10.18-11.6-2.44.19-4.72,1.41-6.83,2.55-1.91,1-3.68,2.26-5.57,3.34-5.64,3.21-10.71,1.19-16.11,0-.44-.1-2.1.61-1.58.72,6.28,1.38,12,3,18-.11,5.49-2.86,11.81-8.31,18-3.86,2.77,2,2.36,6.5,2.36,9.46,0,.28,1.72,0,1.72-.51v-.37c0-.28-2,0-2,.51Z"/><path class="cls-2" d="M199.82,255c15.7,3,30.76,9,45.31,15.52,8.17,3.64,14.71,8.76,21.89,14,2.36,1.71,4.41,3,6,5.51,2.54,4,2,8.67-2.78,10.67-1.22.51-.14,1.65.88,1.22,5-2.12,6.79-6.93,4.14-11.88-1.69-3.15-3.9-4.67-6.76-6.68-4.45-3.11-8.59-6.64-13.15-9.6-8.27-5.39-18.33-8.57-27.48-12.12a155.8,155.8,0,0,0-27.4-8.09c-1-.19-1.94,1.23-.65,1.47Z"/><path class="cls-2" d="M157.75,296.56c5.37,1.22,10.44,3.43,15.71,5a122,122,0,0,0,19.1,3.95,232.89,232.89,0,0,0,37.6,2.17c8.42-.28,16.87-1.13,25.23-2.19,3.27-.42,11.8-.61,13.58-4.2.41-.84-1.52-.61-1.8,0-1,2-6.34,2.37-8.22,2.69-3.13.52-6.29.85-9.43,1.17a262.61,262.61,0,0,1-28,1.6,211,211,0,0,1-33-3c-10.23-1.65-19.55-5.92-29.57-8.18-.62-.14-2.28.8-1.18,1.05Z"/><path class="cls-2" d="M261.18,279.63c-10.22,1.06-19.91-3.22-30.05-3.49-1.12,0-1.46,1.43-.15,1.47,10.14.26,19.79,4.55,30,3.48,1.1-.11,1.47-1.6.16-1.46Z"/><path class="cls-2" d="M25.45,289.63c-1.52,5.14,1.11,10.95,2.84,15.72A44,44,0,0,0,37.8,321,53.08,53.08,0,0,0,53.51,332c3.88,1.89,11.05,2.28,13.8,5.74.4.5,2.26-.17,1.8-.74-2.26-2.85-7.88-3.6-11.14-4.7-6-2.05-11.52-5.87-16.23-10a39.46,39.46,0,0,1-11.17-16.48c-1.72-5-4.77-11.09-3.19-16.43.19-.66-1.75-.38-1.93.25Z"/><path class="cls-2" d="M25.88,289.76c1.34,8.5,13.45,13.62,19.93,17,5.47,2.85,10.41,6.17,13.86,11.39,4,6.1,5.76,13.27,10.26,19.2.43.56,2.29-.12,1.79-.78-4.24-5.58-6.1-12-9.55-18A29.67,29.67,0,0,0,51.9,308.35c-4.53-2.88-9.52-5-14.1-7.76-3.68-2.23-9.27-6.79-10-11.35-.11-.7-2-.24-1.93.52Z"/><path class="cls-2" d="M68.17,332.57c-7.42.19-8.42-7.36-11.48-12.34a13.2,13.2,0,0,0-4.38-4.35c-.74-.44-4.26-1.84-4.47-2.69-.13-.55-2.07-.06-1.93.52.22.91,3.1,2,3.84,2.44a16.12,16.12,0,0,1,6.59,7.55c2.43,5.16,4.52,10,11,9.81.61,0,2.09-1,.79-.94Z"/><path class="cls-2" d="M65.54,334.68c-3.67-.31-7.11-2-10.83-1a19.43,19.43,0,0,0-6.89,3.45c-6.25,4.69-9.46,12.43-14.78,18-.38.4-.08.67.4.69A47.57,47.57,0,0,0,56.51,351c6.87-3.35,10.51-10.46,14.34-16.67l-1.86.11-.8,1.17c-.56.61,1.38.48,1.79,0a3,3,0,0,0,.94-1.45c.27-.64-1.6-.31-1.86.12-3.48,5.64-6.57,11.47-12.22,15.27-3.78,2.55-8.68,3.79-13.09,4.61-1.51.28-8.22.18-8.29.26,3.27-3.71,5.87-7.93,8.89-11.84a28,28,0,0,1,6.77-6.48c4.54-3,9-.8,13.67-.4.72.06,2.06-1,.75-1.08Z"/><path class="cls-2" d="M62,334.46c-2.73.85-4.78,3-6.69,5-2.86,3.09-6.73,5.08-9.78,8-.43.42,1.41.21,1.76-.12,2.11-2,4.53-3.57,6.8-5.38s5.12-6,8.08-6.86c1.11-.34.95-1-.17-.65Z"/><path class="cls-2" d="M73.8,334.86c-3.06-.77-4-6.51-4.52-9.13-1-5.37-.17-11-.1-16.46l-1.77.62a38.58,38.58,0,0,1,17.5,8.84c5.94,5.35,3.9,15.75,1.82,22.33.64-.15,1.79-.29,1.79-.44v-.87c0-.28-2,0-2,.52v.87c0,.32,2-.06,2.08-.44,2.23-7.08,3.55-15.53-1.21-21.85C83.56,313.77,75,310.38,69,309.17c-.35-.07-1.74.12-1.74.62-.08,6.23-1,12.81.61,18.92.63,2.34,1.67,6.2,4.36,6.87.43.11,2.12-.59,1.6-.72Z"/><path class="cls-2" d="M89.64,338c.57-6.06,1-13.25,5.94-17.49,3.68-3.17,8.36-4.83,8.43-10.38l-1.87.59c4.2,3.56,10.23,7.1,11,13,.39,3-1.84,6.65-2.78,9.45a27.62,27.62,0,0,0-1.76,10.11c0,.35,1.92,0,1.92-.52v-.87c0-.33-2,0-2,.52v.87a17.37,17.37,0,0,0,2-.52c-.34-7.08,4.1-12.74,4.55-19.56.36-5.53-7.58-10.18-11.11-13.17-.33-.28-1.86.1-1.87.59-.08,6.48-6.71,7.34-10,11.67-3.41,4.5-3.85,10.74-4.36,16.2,0,.27,1.88.06,1.93-.52Z"/><path class="cls-2" d="M79.89,337.2c.62,0-.09-.62-.36-1.21-.48-1.06-.88-2.15-1.29-3.24a22.54,22.54,0,0,1-1.66-6.06l-1.93.52a18.64,18.64,0,0,0,6.17,10.16c.43.38,1.84.25,1.86-.5.18-5.87-3.21-11-3.92-16.71l-1.93.51a47.89,47.89,0,0,0,7,18.44c.41.64,2.27,0,1.78-.81a47,47,0,0,1-6.89-18.14c-.13-.8-2-.31-1.93.51.69,5.61,4.08,10.65,3.91,16.39l1.86-.5a18,18,0,0,1-6-9.87c-.15-.82-2-.29-1.93.52.16,2.54,1.29,5.12,2.19,7.46.34.88,1,3.77,2.34,3.79.83,0,2-1.24.71-1.26Z"/><path class="cls-2" d="M66.58,335.27a31.2,31.2,0,0,0,14,5.17c2.68.31,6.68.81,8.52-1.7.54-.74-1.42-.61-1.81-.07-1.52,2.07-7.27.44-9.26,0a28.85,28.85,0,0,1-10-4.37c-.56-.37-2.33.44-1.52,1Z"/><path class="cls-2" d="M73.47,337.91c-3.06-2.24-7.93,4.29-9.37,6.12-5.53,7,5,13.62,7.94,18.88.3.55,1.73.09,1.92-.4,1.67-4.24,8.77-4.78,12.11-7.71,4.21-3.69,2.84-10.21,2.7-15.05,0-.49-2-.14-1.93.52.22,7.8.91,13.85-7.43,17.24-2.86,1.16-6.14,2.18-7.37,5.28l1.93-.4c-2.32-4.14-6.35-6.93-8.6-11.11a7.18,7.18,0,0,1,.89-7.78c.64-.81,4.49-5.55,5.4-4.88.5.37,2.23-.4,1.81-.71Z"/><path class="cls-2" d="M80.73,340.39c-3.76-1.9-9.21,6.54-10.38,9.16-.34.76.91.67,1.3.48,4.31-2.1,7.33-5.81,10.84-9,.42-.38,0-.77-.41-.77-4.07,0-4.69,7.54-4.38,10.42,0,.42.86.35,1.1.27,4.65-1.59,5.7-7.25,8.17-10.94.52-.78-1.43-.65-1.81-.08-1.85,2.76-3.2,8.78-6.64,10l1.11.27a12.93,12.93,0,0,1,2.55-9.31,3.76,3.76,0,0,1-1.27.51h.43c-.13,0-.27-.48-.41-.74-3.25,2.91-6.08,6.53-10.06,8.47l1.29.49A19.27,19.27,0,0,1,74.55,346c.38-.5,3.81-5,4.65-4.58.61.31,2.38-.55,1.53-1Z"/><path class="cls-2" d="M100.47,340.53c-2.82-2.15-3.31-7.54-3.86-10.79l-1.93.51c1.06,3.45,1.25,10.58,5,12.36a1.67,1.67,0,0,0,1.74-.57c2.53-5.07,2.2-10.92,4.36-16.11l-1.93.41c-.1,5.1-1.21,10.12-1.31,15.24,0,.44,1.92.13,1.94-.52.09-5.12,1.2-10.13,1.3-15.24,0-.54-1.76,0-1.92.4-2.16,5.2-1.83,11-4.36,16.12l1.74-.57c-3.33-1.59-3.63-8.91-4.6-12-.17-.55-2-.06-1.93.51.57,3.37,1,8.74,4,11,.48.37,2.21-.39,1.81-.7Z"/><path class="cls-2" d="M97.94,343.84a15.14,15.14,0,0,0-4.86,6.07c-.61,1.47.24,2.95,1.85,2.52,3.22-.87,4.76-6.45,6-9.09l-1.93.41c.52,3.07,1.62,6,1.74,9.15,0,.57,1.67-.07,1.85-.29,2.13-2.56,1-5.85,1.82-8.83l-1.86.5a24.09,24.09,0,0,1,3.91,4.79c.32.43,2.18-.19,1.81-.7a23.8,23.8,0,0,0-3.92-4.79c-.37-.32-1.72,0-1.86.5-.75,2.84.35,6.17-1.67,8.59l1.85-.29c-.12-3.13-1.22-6.07-1.74-9.15-.1-.6-1.75,0-1.92.41A45.64,45.64,0,0,1,95.18,351a5.37,5.37,0,0,1-.44.53c-.57.66.62.39.31-.19a2.48,2.48,0,0,1,.13-2.14A13.82,13.82,0,0,1,99.45,344c.83-.61-1.12-.46-1.51-.17Z"/><path class="cls-2" d="M90.11,340.58c5.54,3.1,14.25,5.24,20.33,2.63,1.22-.52.14-1.61-.86-1.17-5.21,2.23-13.26,0-18-2.6-.76-.42-2.44.6-1.49,1.14Z"/><path class="cls-2" d="M87.87,341.48c-6.85,7.89,7.69,15.06,9.42,21.87.21.83,1.59.34,1.89-.17,1.88-3.25,5.4-3,8.36-4.43,2-1,3.59-2.87,5-4.54,2.73-3.19,4.51-8.12,1.39-11.57-.57-.63-2.41.13-1.78.84,5.12,5.66-3.38,14-8.64,15.33-3,.76-4.61,1.44-6.2,4.18l1.89-.16c-1.57-6.18-15.71-13.94-9.74-20.81.8-.92-1.06-1.17-1.61-.54Z"/><path class="cls-2" d="M111.52,339.66v.72c0,1,1.8.64,1.8-.17,0-6.43,1.42-13.07,2-19.5.32-3.35.72-6.84,2.26-9.87,2.7-5.35,10.84,2.36,13.07,4.59,5.31,5.33,7.06,12.23,6.62,19.63-.85,14.31-17.69,10.95-26.11,5.28-.66-.44-2.39.48-1.5,1.08,6.94,4.67,20.4,8.89,26.93,1.31,5.9-6.86,2.48-20.15-2.62-26.4-3.66-4.48-13.45-13.21-18.27-5.67-2.36,3.7-2.34,9.19-2.69,13.39-.45,5.44-1.66,10.88-1.66,16.33,0,1,2.13.64,2.13-.17v-.72c0-1-2-.64-2,.17Z"/><path class="cls-2" d="M123.61,342.07c.26-2.2-1-4.57-1.52-6.68-.86-3.45-.16-7.89,1.08-11.17.25-.67-1.69-.42-1.93.23-1.9,5-3.69,12.92.5,17.25.4.41,1.32.12,1.68-.21,2.67-2.51,4.18-6.34,4.79-9.87a11.48,11.48,0,0,0-1.69.23V344c0,.84,1,.43,1-.23V331.62c0-.83-1.6-.42-1.72.23-.57,3.3-1.55,6.94-4,9.29l1.73-.21c-4.06-4.18-2.17-11.87-.34-16.71l-1.92.23a23.25,23.25,0,0,0-1.3,9.72c.2,2.67,2.06,5.49,1.75,8.13-.1.8,1.86.45,1.94-.23Z"/><path class="cls-2" d="M113.87,345.12c-3.27,5.45,9.41,10.64,10,15.61,0,.37.59.5.88.47,4.23-.4,11.1-2.18,13.19-6.41,1.63-3.28,2-10.41-1.48-12.73-.73-.49-2.41.51-1.48,1.13,2.59,1.72,2.56,7.83,1.59,10.4-1.2,3.15-4.32,4.06-7.21,5.07-1.78.62-3.2,1.69-4.07-.12-1.6-3.33-11.87-9.3-9.54-13.19.56-.93-1.41-1-1.86-.23Z"/><path class="cls-2" d="M124.52,346.55c-2,1.28-1.57,3.83-1.54,5.91,0,.36,1.75-.18,1.91-.44a12.09,12.09,0,0,0,1.26-3.76,6,6,0,0,1,.63-1.52c-.47-.31-.44-.35.11-.11a5.43,5.43,0,0,1,.92.57c2.12,1.54,3.74,4,5.18,6.13.3.44,2-.35,1.94-.52-1.61-2.39-3.91-6.25-6.88-7a3.4,3.4,0,0,0-2.94,1c-1.27,1.61-1,3.87-2.11,5.57l1.91-.44c0-1.6-.53-4.37,1.07-5.4.78-.5-1.15-.2-1.46,0Z"/><path class="cls-2" d="M139.65,341c-2.23-1.49.42-11.06.65-13.65.8-9.08,1.48-18.13,5.07-26.61l-1.56.63c3.41.92,6,4.21,8.46,6.55,3.17,3,6.24,5.58,8.76,9.21a26.06,26.06,0,0,1,2.45,24.8c-.24.54,1.66.33,1.92-.26a26.33,26.33,0,0,0-1.71-23.87c-2.85-4.63-6.62-7.77-10.51-11.45-2.47-2.34-4.79-5.05-8.17-6a1.52,1.52,0,0,0-1.56.63c-3.82,9-4.38,18.68-5.23,28.3-.21,2.42-2.83,10.77-.37,12.42.54.36,2.27-.41,1.8-.73Z"/><path class="cls-2" d="M151.08,341.61c-1.56-.48-3.12-4.62-3.72-5.81a16.42,16.42,0,0,1-2-5.19l-1.32.87c5.15.46,3.68,9.76,8.31,11.65a1.33,1.33,0,0,0,1.73-.61,29.27,29.27,0,0,0-.44-19.31c-.25-.71-1.89-.34-1.94.35-.43,6.1-.61,12.7,1.75,18.45.27.65,1.39.34,1.75,0,2.73-2.82,1.89-7.05,4-10.17l-1.88,0c-.15,3.81-1.16,7.5-1.31,11.32,0,.9,1.92.54,1.95-.2.14-3.82,1.16-7.51,1.3-11.32,0-.95-1.57-.42-1.88,0-2.05,3-1.25,7.22-3.8,9.86l1.76-.05c-2.33-5.67-2.16-12.11-1.74-18.12l-1.93.35a28.74,28.74,0,0,1,.43,19l1.72-.61c-5-2.05-2.73-11.3-9.1-11.86-.5-.05-1.39.25-1.33.87.25,2.34,1.73,4.81,2.83,6.83.8,1.47,1.87,4.28,3.66,4.82.71.21,2.28-.82,1.15-1.16Z"/><path class="cls-2" d="M139.92,344.09a40.76,40.76,0,0,0,9.23,2.1c4.43.26,8.67-2,13-2.5,1-.13,1.54-1.42.22-1.26-3.88.48-7.51,2-11.39,2.45-3.31.4-6.79-1-9.92-2-.73-.22-2.28.85-1.14,1.19Z"/><path class="cls-2" d="M137.87,344.8c2.51,2.87,5.48,4.77,6.64,8.64,1,3.23-2.08,7.49-3.21,10.38-.23.61.36.87.86.89,3.76.12,7-2.12,10.49-3.06s7.15-1.92,10.18-4.29c4.5-3.51,3.21-10.08.75-14.31-.47-.8-2.3,0-1.76.88,3.34,5.74,2.57,11.35-3.7,14.52-2.4,1.22-5.14,1.34-7.62,2.28-2.69,1-5.23,2.57-8.19,2.48l.85.88c1.16-3,3.83-6.64,3.42-10-.57-4.74-4-6.84-7-10.16-.62-.71-2.44.1-1.76.87Z"/><path class="cls-2" d="M152.34,347.15c0-.48-.17-.61-.5-1s-2,.08-1.87.61A22.75,22.75,0,0,1,150,358c-.14.54,1.76.23,1.92-.3a82.39,82.39,0,0,0,2.61-10l-1.92.42a13,13,0,0,0,1.8,3.13c.32.38,1.89-.07,1.87-.6a10.25,10.25,0,0,1,.22-2.82,5.24,5.24,0,0,1,.3-.78c.31-.69,0-.54.39-.28,1.17.75,1.13,2.78,1.08,4,0,.4,1.9.12,1.93-.52.08-1.72-.36-5-2.89-4.51-2.69.56-3.06,3-3,5.46l1.87-.6a12.22,12.22,0,0,1-1.68-3c-.23-.48-1.85-.07-1.93.41A82.72,82.72,0,0,1,150,358l1.92-.3a23.52,23.52,0,0,0,0-11.43l-1.88.61a.75.75,0,0,1,.38.78c0,.45,2,.1,1.93-.52Z"/><path class="cls-2" d="M166.73,340.82c0-1.83,2.19-3.44,2.61-5.23a29.12,29.12,0,0,0,.58-9.54c-.39-3.76-.86-7.49-1.56-11.2-.77-4.15-2.64-8-3.39-12.11l-1.29,1c9.17,1.21,17.56,6.2,20.87,15.1,1.58,4.26,1.68,8.92,3.18,13.15,1,2.86,3,6.29,2.29,9.39-.22,1,1.76.78,2-.13.7-3.25-1.2-6.81-2.32-9.77-2-5.23-1.67-11.15-4.41-16.2-4.17-7.66-12.5-11.91-20.92-13-.58-.07-1.42.31-1.29,1,1.24,6.83,3.75,13.13,4.6,20.11a40.71,40.71,0,0,1,.06,11c-.37,2.49-2.89,4.17-2.94,6.6,0,1.06,2,.81,2-.12Z"/><path class="cls-2" d="M178.48,343.85c1.27-6.93,2.57-13,0-19.77-.29-.75-1.95-.47-1.95.33,0,5.76,0,13.2,4,17.76a1.18,1.18,0,0,0,1.87-.5c.32-1.3.54-2.61.87-3.92l-2,.34c.62,3.24,1.54,6.27,5.31,4.65,1.22-.52.14-1.53-.84-1.1-2,.84-2.36-3.16-2.53-4.07s-1.79-.31-1.95.34c-.32,1.3-.55,2.62-.87,3.92l1.86-.5c-3.82-4.34-3.8-11.62-3.82-17.07l-1.95.33c2.55,6.69,1.23,12.64,0,19.42-.17.94,1.8.68,2-.16Z"/><path class="cls-2" d="M164.43,341.75c2.55,3,7.36,3.44,11,4.07,6.15,1,12.44-.33,18.14-2.61,1.23-.49.14-1.58-.87-1.17a33.56,33.56,0,0,1-16.61,2.34c-3.16-.34-7.81-1-9.94-3.49-.58-.69-2.41.09-1.76.86Z"/><path class="cls-2" d="M166.08,343.15c-1.09,3.91,4,8.65,6.53,11.06,5.13,4.87,11.87,7.3,18.69,8.61.52.1,2.2-.44,1.32-1.12-2.92-2.27,5.23-8,4.95-11.22-.17-1.93-1.43-8-4.29-7.62-1,.14-1.53,1.46-.21,1.27.94-.13,2.23,5.27,2.42,6.07.65,2.66-1.86,4.7-3.47,6.45-1.81,2-3.44,4.12-.91,6.09l1.33-1.12c-6.76-1.29-12.79-3.7-18.05-8.22-2.42-2.08-7.31-7-6.37-10.44.24-.83-1.73-.57-1.94.19Z"/><path class="cls-2" d="M179.65,345.65c-1.77,3-1.89,9.36,1.44,11.37a1.42,1.42,0,0,0,1.73-.59,11.79,11.79,0,0,0,0-9.71l-1.86.63c.83,1.19,1.77,2.3,2.61,3.49.39.55,1.66,0,1.86-.5.71-1.65.82-3.51,1.68-5.08l-1.8.35a9.51,9.51,0,0,1,3,5.54c.15.68,2.09.18,1.93-.51a9.94,9.94,0,0,0-3.11-5.78,1.43,1.43,0,0,0-1.8.35c-.92,1.68-1.06,3.62-1.81,5.37l1.86-.5c-.83-1.19-1.78-2.29-2.61-3.48-.34-.49-2.15.09-1.86.63a11.38,11.38,0,0,1,0,9.45l1.73-.59c-2.89-1.75-2.68-7.87-1.17-10.4.46-.78-1.48-.58-1.8,0Z"/><path class="cls-2" d="M196.69,340.51c-7.66-10.6-1-22.27,3.11-32.85l-1.86.5c5.31,5.13,13.54,4.49,18.75,9.8,4.82,4.92,2.79,17.32-1.33,22.05-.53.6,1.4.44,1.78,0,4.34-5,4.9-13.86,3-19.94-2.56-8.34-15-7.37-20.44-12.65-.44-.42-1.67,0-1.87.5-4.19,10.86-10.8,22.51-3,33.33.35.49,2.22-.15,1.8-.74Z"/><path class="cls-2" d="M205.82,341.78c-2.53-2.85-3.07-6.71-4.79-10l-1.78.82c1.54,2.88,2.08,8.24,6.45,7.65a1.2,1.2,0,0,0,1.08-.74,40.8,40.8,0,0,0,1.3-10c0-1-1.93-.62-2,.18-.07,4-.75,8.11.88,11.93a.92.92,0,0,0,1.13.34c5.66-1.66,5.58-10.82,5.6-15.5l-2,.18a77.75,77.75,0,0,1-1.3,16.55c-.19.88,1.77.61,1.95-.18a77.75,77.75,0,0,0,1.3-16.55c0-.95-1.94-.61-2,.18,0,3.42.23,12.88-4,14.11l1.12.35c-1.58-3.72-.93-7.67-.86-11.59l-2,.18a40.72,40.72,0,0,1-1.3,10l1.07-.74c-3,.4-3.86-5.25-4.87-7.16-.37-.69-2.22,0-1.78.82,1.74,3.33,2.24,7.14,4.79,10,.54.61,2.38-.14,1.78-.82Z"/><path class="cls-2" d="M194,340.62c-1.13,4.76,10.09,4,12.69,4.25a12.15,12.15,0,0,0,5.36-.52,13.54,13.54,0,0,0,2-1c.42-.24,3-1.43,1.88-1.62.46.08,2.13-.65,1.59-.75-1.22-.22-2.36.69-3.32,1.3-3.4,2.16-6.36,1.93-10.18,1.31-1.81-.29-9,.42-8.11-3.27.1-.43-1.79-.15-1.91.34Z"/><path class="cls-2" d="M195.69,343.75c.87,6,2.18,10.27,7.71,13.22,4.57,2.44,10,2.92,14.89,4.54.56.18,1.58-.16,1.54-.86-.4-6.64,10-6.61,5.78-14.42-1.08-2-4.85-9-8-6-.85.81,1.05,1,1.59.45-.67.65,9.16,8.66,3.36,13.28-2.77,2.2-4.91,3.32-4.68,7.22l1.54-.86c-4.06-1.34-8.28-2.07-12.33-3.45-6.64-2.27-8.55-7.12-9.49-13.63-.11-.79-2.05-.32-1.93.52Z"/><path class="cls-2" d="M207.13,343.41c-4.38,1.71-.5,10.31,2.27,11.93a1.32,1.32,0,0,0,1.67-.44c1.54-3.87.61-7.36-.38-11.23l-1.86.67c1.92,3.34,6.2,4.59,8.71,7.4.54.61,2.38-.14,1.78-.82-2.51-2.81-6.81-4.09-8.71-7.4-.36-.63-2.05-.09-1.86.67.92,3.57,1.92,6.95.49,10.54l1.67-.44c-1.53-.89-2.33-2.85-2.92-4.42-.41-1.09-1.63-4.81,0-5.43,1.24-.48.13-1.4-.83-1Z"/><path class="cls-2" d="M220.7,338.14c.79-8.05,2.79-14.64,8.79-20.24,3.18-3,7.73-6.45,8.19-11.11l-1.93.39c1.05,5.54,6.49,7.3,10.29,10.7,6.9,6.17-1.55,17.23-6.61,21.55-.84.72,1.09.67,1.54.28,5-4.24,10.35-11.33,9.34-18.25-1-7.11-11.26-7.57-12.63-14.8-.12-.62-1.88-.16-1.93.39-.57,5.84-7.45,9.95-11.19,13.89-4.22,4.44-5.21,11.64-5.79,17.46-.07.74,1.87.36,1.93-.26Z"/><path class="cls-2" d="M229.32,337.68l-.87.44,1.41.51c0-4.05,0-8.09,1.25-12l-1.9-.05c0,4.67.77,9.36-.44,13.94-.26,1,1.59.6,1.9,0,2.6-4.61,6-8.71,8.28-13.49l-1.85-.24c-1.45,4.57-3.78,8.88-4.41,13.69a.59.59,0,0,0,.42.59c3.07,1.31,6.06-1.13,7.9-3.42.77-1-1.06-1.29-1.62-.59a10.41,10.41,0,0,1-2.89,2.56c-3.07,1.81-.76-3.89-.56-4.48.93-2.73,2.13-5.36,3-8.11.35-1.11-1.49-1-1.85-.24-2.28,4.78-5.69,8.89-8.28,13.5l1.91.05c1.21-4.58.49-9.27.43-13.94,0-.94-1.67-.8-1.9-.05a41.63,41.63,0,0,0-1.36,12.38c0,.72.92.76,1.41.52l.87-.44c1.18-.59.12-1.66-.86-1.17Z"/><path class="cls-2" d="M222.87,342c3.69.26,6.83,1.5,10.56,1.22,3.49-.26,6.88-1.91,9.91-3.52,5.8-3.09,9.54-7.61,12.61-13.32,3.6-6.68,6.06-14.29,12.22-19.2,4.46-3.55,10.46-3.9,13.44-9.29.49-.89-1.33-.8-1.71-.31a15,15,0,0,0-3.09,10.66c.38,6.68,1.5,12.34-1.76,18.54a21.06,21.06,0,0,1-13.37,10.78c-2.93.82-6,.76-8.93,1.19-3.54.52-6.81,1.69-10.46,1.53-.86,0-2,1.22-.7,1.28a30.8,30.8,0,0,0,8.16-.93c3.27-.72,6.57-.76,9.85-1.38,4.35-.82,8.69-2.38,12-5.48a24.92,24.92,0,0,0,7.71-13.36c1.37-7.62-3.11-15.52,2.2-22.36l-1.71-.31c-2.84,5.13-9.39,5.91-13.73,9.37-3.81,3-6.28,7.7-8.41,12-2.75,5.5-5.09,11.08-9.42,15.57-3.06,3.17-7.51,5.27-11.61,6.65-4.53,1.53-8.59-.27-13-.58-.87-.06-2,1.2-.7,1.29Z"/><path class="cls-2" d="M252,338.3c-2.94-4.55,8.4-10.32,11.2-12.48,3.93-3,8.29-7.22,6.73-12.63-.23-.8-1.78-.27-1.94.36-.85,3.49-.26,7.06-2.13,10.29-1.27,2.18-3.59,4.15-5.49,5.81-2.61,2.28-5.4,4.38-8.14,6.51-1,.8.57,1.27,1.25.74,3-2.36,6.08-4.7,9-7.23a34.41,34.41,0,0,0,5.23-5.69c2.28-3.13,1.39-7.05,2.26-10.63l-1.94.36c3.13,10.89-23.2,17-17.78,25.4.42.64,2.28,0,1.78-.81Z"/><path class="cls-2" d="M222.86,342.44c.13-.28,3.79,4.69,4.12,5.22,1.22,2,1.83,4.24,3,6.27,2.95,5.18,10.43,5.55,15.52,6.89a3.12,3.12,0,0,0,1.72-.66c-4.54-1.55-3.38-3.4,0-5.64a23.23,23.23,0,0,0,5.52-4.38c2.13-2.61,1.3-11.27-3-10.91-.45,0-2.12.8-.86.69,2.65-.22,2.82,5.79,2.83,7.4,0,3.38-2.69,5.06-5.22,6.72-3.55,2.33-7,4.75-1.14,6.75l1.71-.67c-4.42-1.16-9.24-1.6-13-4.32-3-2.13-3.75-6.37-5.59-9.41-1.08-1.78-5.38-7.94-7.5-3.59-.1.21,1.67.1,1.9-.36Z"/><path class="cls-2" d="M236.81,343.23l-.08-.15-1.25.61c.81.05,1.4,2.78,1.51,3.46a32.15,32.15,0,0,1,0,5.55l2-.13c0-3.27.37-6.56-.45-9.77l-1.7.83c1.86,1.72,4.49,2.5,6,4.65.52.76,2.35,0,1.76-.87-1.54-2.28-4.26-3.11-6.23-4.93-.53-.48-1.91,0-1.71.84.79,3.08.45,6.23.42,9.38,0,1.05,2,.79,2-.13a29.43,29.43,0,0,0-.29-7c-.26-1.12-1.22-3.24-2.58-3.33-.42,0-1.12.12-1.25.61a1.45,1.45,0,0,0,0,.92c.22.94,2.15.43,1.93-.52Z"/><path class="cls-2" d="M250.55,339.83c.15,1.95,3.66,4.22,4.93,5.39,5.59,5.17,4.45,10.81-.42,15.83-.66.68.45,1.1,1,1,6.87-1.64,13.64-5.15,20.06-8.08,3.3-1.5,6.39-4.92,5.09-8.78-2.23-6.61-19.37.11-19.13-7,0-1-1.93-.76-2,.14-.2,5.92,9.3,4.76,13.05,5a10.48,10.48,0,0,1,5.35,1.4c3.46,2.37-1.26,7-3.27,8-2.43,1.3-5.15,2-7.62,3.2a55.43,55.43,0,0,1-11.94,4.7l1,1c3.21-3.32,5.59-6.51,4.4-11.27a12.16,12.16,0,0,0-3.38-5.57c-1.32-1.26-5.08-3.61-5.23-5.48-.07-.91-2-.44-1.93.51Z"/><path class="cls-2" d="M256.62,338.83c6-.5,9.31,9.26,7.87,13.92l1.93-.37c-.12-6-2.88-10.17-5.66-15.24l-1.86.64c2.7,2.53,3.72,6.34,4.28,9.89.11.69,2.05.23,1.93-.52-.57-3.63-1.65-7.55-4.42-10.14-.39-.36-2.21,0-1.86.65,2.78,5.07,5.54,9.27,5.66,15.24,0,.72,1.77.13,1.93-.38,1.83-5.89-2.62-15.38-9.55-14.81-1,.08-1.59,1.23-.25,1.12Z"/><path class="cls-2" d="M141.83,60.73c.2,1,1.63.75,2.27.46a2.16,2.16,0,0,0,1.26-2.28c-.17-2.27-3.54-2-4.47-.46-1.08,1.74.46,4.1,2.4,4.22s3.9-.67,4.2-2.67c.67-4.47-6.73-4.79-8-1.09-.64,1.86.87,3.93,2.52,4.63a5.09,5.09,0,0,0,6.18-2.16c1-1.73.36-3.35-1-4.55-1-.92-2.93-1.82-4-.43-.74.94,1.11,1.05,1.59.45l-.37.14a2.73,2.73,0,0,1,.48.25,4.85,4.85,0,0,1,.77.58,3.16,3.16,0,0,1,1.07,1.44,2.69,2.69,0,0,1-2.85,3.32c-1.93-.34-3.87-4.07-1.33-4.92,1.89-.64,4.14,2,2.59,3.52-1,1-2.3-.52-2.55-1.4-.11-.39,0-1.7.64-1a1.35,1.35,0,0,1,.26.67,1.51,1.51,0,0,1,0,.52c-.23.3-.11.39.37.28-.18-.79-2.11-.3-1.93.51Z"/><path class="cls-2" d="M152.38,59.28c.14-2.39-2.88-2.13-4-.69s.3,2.8,1.68,3.09A3.62,3.62,0,0,0,154,60.05c.83-1.68-1.29-3.68-2.83-3.78a3.34,3.34,0,0,0-3.46,3.46c.21,2.09,2.71,2.88,4.46,2.26a5,5,0,0,0,3.15-4.29,3.55,3.55,0,0,0-3.19-3.84c-2.52-.46-6.21,1.72-5.09,4.61.36.92,2.29.39,1.93-.52-1-2.68,3.59-3.63,4.32-1,.49,1.72-1.59,5.27-3.38,3.11a1.56,1.56,0,0,1,.72-2.28c.67-.2,1.89,1.44,1.48,2.07-.3.47-1.13.44-1.59.28-.94-.32,0-1.63-.1-.72-.06,1.06,1.91.82,2-.12Z"/><path class="cls-2" d="M158.36,59.6c-.07.55.19.57.8.07a1.17,1.17,0,0,1-.44-.52c-.13-.27.05-1.53.49-1.06a1.87,1.87,0,0,1,0,2.12c-.54,1.14-1.31,1.12-2,.17a2,2,0,0,1,1.06-3c1.61-.57,2.77,1.19,2.52,2.6a2.89,2.89,0,0,1-2.77,2.2c-1.05,0-1.8-1.07-2.16-1.94a5.31,5.31,0,0,1-.31-2.65,4.22,4.22,0,0,1,.29-1.15,2.08,2.08,0,0,1,.28-.48c.18-.21-.31-.09-.07,0,.68.32,2.41-.62,1.5-1.05-1.72-.81-3.18.3-3.75,1.93a5.49,5.49,0,0,0,1.33,5.67c2,1.7,4.82.89,6.53-.79a3.27,3.27,0,0,0-1.44-5.64c-2.2-.58-5,.93-5.28,3.26-.38,3,3.45,4,5.26,2.07A3.61,3.61,0,0,0,161.38,58a2.08,2.08,0,0,0-2.73-1.32c-2.06.57-2.76,3.51-.5,4.26a1.62,1.62,0,0,0,2.14-1.84c-.11-.81-2-.34-1.93.51Z"/><path class="cls-2" d="M158.76,52.78l-.11,0,1.25-.11c-.83-.35-.11-1.39.3-1.76-.86.77-1-.24-.49.55a3.76,3.76,0,0,1,.41,2.24,1.89,1.89,0,0,1-.3.9c-.11.16,1.39-.11.94-.28a2.34,2.34,0,0,1-.63-.45,1.33,1.33,0,0,1-.14-2.13c.16-.15.42-.16.2-.16a.62.62,0,0,1,.59.45,1.81,1.81,0,0,1-.35,1.28,4.36,4.36,0,0,1-.78,1c-.35.36-.58.22-1,0-1.52-1-1.37-3.16-.3-4.37.62-.69,1.61.25,2.07.73a3.52,3.52,0,0,1,.88,2.54c0,.29,1.9.05,1.93-.52A3.69,3.69,0,0,0,160,48.92a4.11,4.11,0,0,0-4.38,3A2.91,2.91,0,0,0,158,55.43a4.58,4.58,0,0,0,4.46-2.58c.44-.81.44-1.78-.63-2a4.76,4.76,0,0,0-3.34.89,1.6,1.6,0,0,0-.54,2.39,2.37,2.37,0,0,0,3.12.69c1.44-.68,1.31-3.18.33-4.2-.68-.71-2.2-.11-2.83.38a2,2,0,0,0-.91,1.66c0,1,1.2.77,1.8.53.08,0,.87-.35.58-.55s-.95,0-1.25.11Z"/><path class="cls-2" d="M166.28,56.21a.85.85,0,0,0,.3.59c.17-.29.33-.58.49-.87-.38.2-.07.17-.23,0a1,1,0,0,1-.17-.47,1.48,1.48,0,0,1,.06-.55c.08-.38.14-.21.39-.11.84.35.74,1.37.53,2.08a3.54,3.54,0,0,1-.55,1,1.81,1.81,0,0,1-.3.32c-.27.21.28.1.15,0-.61-.54-1-3.76.22-3.55,1.81.31,1.63,2.5.88,3.6a4.23,4.23,0,0,1-1.72,1.36c-.85.39-1.34-.18-1.78-.83a6.53,6.53,0,0,1-.84-4.23c.2-1.55,2.22-2.55,3-.82.34.75,2.24.16,1.93-.51-1-2.16-3.92-1.93-5.58-.71-2,1.44-1.54,4.46-.68,6.39,1.05,2.37,3.43,2.53,5.5,1.25s3.63-3.55,1.91-5.72c-1.39-1.76-4.28-1.09-5.15.8-.68,1.46-.16,4.36,1.86,4.25,3.29-.17,4.77-6.26.56-6A2.29,2.29,0,0,0,164.74,56c.14,1.6,2.11,1.46,3.13.92.27-.14.81-.51.5-.87l-.16-.31c-.09-.75-2-.3-1.93.52Z"/><path class="cls-2" d="M174.55,56.26c-1.25,0-1.65.11-1.22.43a1.37,1.37,0,0,1,.2.22,1.49,1.49,0,0,1,.26.68,1.29,1.29,0,0,1-.24.91,1.33,1.33,0,0,1-.27.26c.54-.43.83,0,.58-.16a2.25,2.25,0,0,1-.68-2,2.19,2.19,0,0,1,.29-1c.11-.18.37-.26,0-.15-.12,0,.27.07.39.12.64.25.59,1.09.43,1.62s-.59,1.3-1,1.44c-.62.2-1.52-1.26-1.7-1.7a1.61,1.61,0,0,1,2.85-1.45c.36.57,2.18-.13,1.94-.52-1.38-2.24-5.92-1-6.75,1.17-.49,1.29.73,2.8,1.86,3.28a3.78,3.78,0,0,0,3.65-.85,3.24,3.24,0,0,0,1.2-2.8c-.21-1.29-1.94-1.36-2.92-1.15a2.56,2.56,0,0,0-2.16,2.53,2.15,2.15,0,0,0,1.45,2.38,2.62,2.62,0,0,0,3-2.5c-.11-1.52-2.55-2-3.09-.53-.2.52,1.7.29,1.92-.28Z"/><path class="cls-2" d="M178.56,57c-.23.51-.24,1.06-.43,1.58a.79.79,0,0,1-.64.51c-.16,0-.14,0,0,0-.33-.16-.11-.85.08-1.21a2,2,0,0,1,.18-.26c.07-.07.24-.2.15-.16.2-.11-.26,0,0,0-.08,0,.18.12.22.16a3,3,0,0,1,1,2.51.63.63,0,0,1-.14.24c0,.06.11,0,0,0,.1,0-.18,0-.22,0a1.65,1.65,0,0,1-.44-.1,1.83,1.83,0,0,1-1.19-1.6,1.73,1.73,0,0,1,1.23-1.81c.9-.27,1.2.71,1.17,1.41,0,1,1.91.66,2-.16.15-3.43-4.17-3.16-5.74-1s.47,4.66,2.9,4.6A2.55,2.55,0,0,0,181,60a4,4,0,0,0-1.51-3.44c-1.79-1.45-4.4.87-4.12,2.82.15,1.09,1.49,1.18,2.32,1a3.35,3.35,0,0,0,2-1.11c.52-.6.43-1.39.72-2.07.44-1-1.51-.93-1.83-.18Z"/><path class="cls-2" d="M177.39,53.83a1.49,1.49,0,0,1-.15.4l-.07.08c.22-.17.92-.18.63-.22a1.25,1.25,0,0,1-.65-.43A.75.75,0,0,1,177,53a.52.52,0,0,1,.22-.32c-.25.2-.54,0-.15.19a2.51,2.51,0,0,1,1.05,2,1.55,1.55,0,0,1-.23.88l-.06.07a1.15,1.15,0,0,1,1.07-.29.55.55,0,0,1-.24-.12c-.65-.47-1.43-2.13-.64-2.79.2-.17-.06.07-.35.09a.77.77,0,0,1,.36.12,1.87,1.87,0,0,1,.74.76,2,2,0,0,1,.24.86,1,1,0,0,1-.1.41c-.1.24.13,0,.31,0-.33.06-1,.21-1.11.58s.64.3.79.27c1-.17,2.08-.67,2-1.83a2.26,2.26,0,0,0-1.61-1.93,3.12,3.12,0,0,0-3.23,1,2.23,2.23,0,0,0,0,2.18,2.1,2.1,0,0,0,1.53,1.33A2.15,2.15,0,0,0,180,55a2.8,2.8,0,0,0-.92-2.67c-1-.86-2.73-.38-3.58.4s-.28,1.71.6,2.11a2.49,2.49,0,0,0,3.25-1.31c.14-.53-1.77-.24-1.91.3Z"/><path class="cls-2" d="M172,51.59c-.2.87-.11-.58,1.09,0a.49.49,0,0,1-.21-.26c-.19-.4.13-.78.38-1.06.41-.43-1,0-.62.14a1.23,1.23,0,0,1,.35.29,2.69,2.69,0,0,1,.46.89,3,3,0,0,1,0,2,.64.64,0,0,1-.19.27c.3-.28,1-.15.56-.24a2,2,0,0,1-.67-.34c-.77-.53-1.63-1.74-1.16-2.7.17-.33.42-.2,0-.2a2.24,2.24,0,0,1,1.16.42c.54.34,1.17,1.2.43,1.67-.31.2-.26.41.11.42a2.56,2.56,0,0,0,1.37-.36c1.33-.86.67-2.06-.54-2.63a4.06,4.06,0,0,0-4.07.61,1.79,1.79,0,0,0-.05,2.4,3.13,3.13,0,0,0,2.32,1.52c1.15.11,2.59-.48,2.81-1.69a3.06,3.06,0,0,0-1.06-3c-1.11-.7-2.94.32-3.47,1.34a.88.88,0,0,0,.37,1.19,2.35,2.35,0,0,0,2.09-.38,1.07,1.07,0,0,0,.45-.7c.1-.43-1.79-.14-1.9.34Z"/><path class="cls-2" d="M176,49.86a1.72,1.72,0,0,1,0,.42c.1-.23,1-.3.84-.31a.51.51,0,0,1,.17,0l0,0a1.25,1.25,0,0,1-.16-1.16l-1.33.71a6.14,6.14,0,0,1,1.42,0c.37.08.44.59.47.89a1.54,1.54,0,0,1-.2.84l0,0a1,1,0,0,1,.71-.15c-.14,0-.32-.23-.43-.35-.5-.56-2.35.17-1.79.79a2,2,0,0,0,2.18.64,2.12,2.12,0,0,0,1.45-1.56,2.08,2.08,0,0,0-.44-1.89c-.67-.67-1.77-.47-2.62-.46-.45,0-1.21.17-1.33.71-.21,1,.09,2,1.18,2.14a2,2,0,0,0,1.56-.53,1.5,1.5,0,0,0,.33-1.29c-.08-.74-2-.29-1.93.51Z"/><path class="cls-2" d="M174.33,47.24a1.92,1.92,0,0,1,0-.22c0-.11,0,0-.05,0-1.13,0-1.47.11-1,.34a1,1,0,0,1,.17.1.92.92,0,0,1,.25.91.73.73,0,0,1-.16.32.63.63,0,0,1,.43-.13,1.87,1.87,0,0,1-.91-.91.8.8,0,0,1,0-.72c.1-.17-.1.11,0,0s0,0,.07-.07.24-.12,0,0c.16-.08-.22,0,.05,0-.27.07-.08,0,0,0-.1,0-.16,0-.09,0s-.13-.07.06,0,.07,0,.14.1a1.7,1.7,0,0,1,.4,1.09c.06.76,2,.31,1.93-.51a2.08,2.08,0,0,0-1-1.7,2.61,2.61,0,0,0-2.22,0,1.89,1.89,0,0,0-.92,3.11,2.45,2.45,0,0,0,2.56.78,2.05,2.05,0,0,0,1.53-1.86,1.74,1.74,0,0,0-1.35-1.69,1.53,1.53,0,0,0-1.94,1.26c0,.91,1.93.55,1.94-.2Z"/><path class="cls-2" d="M168.05,49.4c.23,0,.1.13.21-.1,0-.06.12-.18.19-.19s.27.07.38.19a1.48,1.48,0,0,1,0,1.36c-.49,1.13-1.6.22-1.88-.59a2,2,0,0,1,.09-1.5c.22-.47.55-.43,1-.34,1.87.34,1.62,2.28.4,3.24-1,.82.55,1.36,1.26.8a3.6,3.6,0,0,0,1.63-3.53c-.36-1.48-2.25-1.91-3.55-1.89-2.56,0-4,3.39-1.88,5s5.58-.11,5-2.84c-.29-1.36-2.05-1.49-3.11-1.05a2.47,2.47,0,0,0-1.5,1.56c-.21.71.52,1.09,1.09,1.15a1.35,1.35,0,0,0,1.27-.58c.22-.42-.19-.7-.57-.74Z"/><path class="cls-2" d="M168.56,46.15c-.35.66-.22-.33,1.25-.13.06,0-.07-.06-.11-.12a1.7,1.7,0,0,1-.24-.76,1.31,1.31,0,0,1,.15-.8c.16-.28-1.3.12-.77.22a1.49,1.49,0,0,1,.63.31,2,2,0,0,1,.45,2.48c-.28.32.81-.12.5-.14a1.68,1.68,0,0,1-.53-.15,1.26,1.26,0,0,1-.62-.54c-.25-.46.17-.86.58-1,.09,0,.87-.36.57-.56s-.92,0-1.24.11c-.77.24-2.11.84-1.88,1.86s2,1.17,2.8,1,1.87-.63,2-1.65a2.4,2.4,0,0,0-1-2.22,2.9,2.9,0,0,0-2.73,0,1.46,1.46,0,0,0-.85,1.47c0,.43.19,1,.66,1.18a2.17,2.17,0,0,0,2.29-.95c.16-.31-.69-.2-.78-.19-.34.06-.95.19-1.13.53Z"/><path class="cls-2" d="M166,44.59c-.16.14-.68.26-.76.16.07.08,0,.27,0,.35a1.75,1.75,0,0,1-.1.34.9.9,0,0,1,.28-.13c.43-.13.19,0,.17,0a1.38,1.38,0,0,1-1.05-1.13,1.53,1.53,0,0,1,.28-.77.64.64,0,0,1,.12-.16c.12-.13.09-.09,0,0,.08,0-.11,0-.18,0,.12,0-.2,0-.06,0s.27.09.11,0a1.91,1.91,0,0,1,.28.15,3.36,3.36,0,0,1,1.32,2,1.24,1.24,0,0,1,0,.83c-.06.11.1-.08,0,.06.11-.11,0-.07.22-.12-.14,0,.19,0-.1,0,.24,0-.22,0-.17,0a1.65,1.65,0,0,0-1.37.36c-.28.27-.23.69.2.75,1.49.21,3.49-.27,3.29-2.13a3.77,3.77,0,0,0-2.12-2.85,2.71,2.71,0,0,0-2.44.24,2.52,2.52,0,0,0-1.2,2.13,2.3,2.3,0,0,0,1.91,1.79,2.15,2.15,0,0,0,2.68-1.66,1,1,0,0,0-.76-1.1,2.26,2.26,0,0,0-2,.57.4.4,0,0,0,.2.74,1.57,1.57,0,0,0,1.36-.36Z"/><path class="cls-2" d="M163.4,47.89c-.29-.25-.15-.62.1-.85-.26.24-.29.05.09.17a1.15,1.15,0,0,1,.35.22c.39.33.23,1,0,1.32a2.26,2.26,0,0,1-.55.6.94.94,0,0,1-.24.13c.11,0,.23,0,0,0-.7-.09-1.17-1-1.27-1.6a1.93,1.93,0,0,1,.79-1.74c.47-.38,1-.07,1.49.33a2.36,2.36,0,0,1,.62,2.16c-.09.51-.55,1.5-1,1.47a2.07,2.07,0,0,0-1.37.36c-.29.23-.25.54.15.56a3.94,3.94,0,0,0,3.83-1.83,2.87,2.87,0,0,0-.72-3.68c-2.06-1.54-6.61.56-5.6,3.38s5.3,1.47,6-.84c.36-1.23-1-1.88-2-1.83a3.26,3.26,0,0,0-2.32.92c-.38.44-.65,1.06-.13,1.51s2.23-.34,1.81-.71Z"/><path class="cls-2" d="M160.89,42c0,.08,0,.08,0,0a1,1,0,0,1,.61-.26.78.78,0,0,1,.3,0c-.16,0,.16.1,0,0s0,.07-.1-.09-.17-.29-.1-.14a.56.56,0,0,1-.09-.44c0,.09,0,.1,0,0s-.11.12,0,0c0,0-.29.18-.11.09-.27.14.13,0-.1,0a1.37,1.37,0,0,1,1.55,1.26.85.85,0,0,1-.19.62c-.19.2,0,0,.11.07-.41-.21-.34-.77-.23-1.13s-.58-.66-.9-.64a1.12,1.12,0,0,0-1.06.79,1.83,1.83,0,0,0,1,2.25,2.56,2.56,0,0,0,3-1.08,2.29,2.29,0,0,0-.33-2.64,3.08,3.08,0,0,0-2.62-.94c-1.34.08-2.51,1.17-1.81,2.5a1.68,1.68,0,0,0,3,0c.23-.43-.21-.78-.59-.83a1.28,1.28,0,0,0-1.26.6Z"/><path class="cls-2" d="M158.36,44.3c0,.08,0,.15,0,.23s0,.07,0,.12l1.21-.4c.11,0,.13,0,.06,0s0,.05-.07,0a1.56,1.56,0,0,1-.43-.69,2,2,0,0,1-.08-.36.66.66,0,0,1,.07-.28.53.53,0,0,1-.23.16c-.07,0-.42.07-.19.07a1,1,0,0,1,.42.32,2.18,2.18,0,0,1,.58,1.37.66.66,0,0,1-.15.41,1.08,1.08,0,0,1,.54-.15H160a1.06,1.06,0,0,1-.64-.55.39.39,0,0,1,0-.35c-.05.12.06,0,0,0s.08,0,.16,0c.26-.06.94-.35.84-.73s-.83-.26-1.09-.21c-.79.16-1.93.62-1.87,1.59,0,.69.89,1.13,1.47,1.25A2.5,2.5,0,0,0,161.39,45c.46-.8-.13-1.93-.72-2.5-1.12-1.07-4.14-.35-3.56,1.52a1.76,1.76,0,0,0,1.15,1.23,1.65,1.65,0,0,0,2-1.22c.1-.75-1.85-.39-1.93.25Z"/><path class="cls-2" d="M157.56,47.43a2,2,0,0,1,.27-.72c.06-.07.07-.07,0,0a1.47,1.47,0,0,1-.91.24c.09,0,0,0,.13,0a1.85,1.85,0,0,1,.77.86A1.6,1.6,0,0,1,158,49c-.08.24-.31.24.08.11.15,0-.18,0-.2,0a.75.75,0,0,1-.29-.09,1.22,1.22,0,0,1-.51-1.28,1.69,1.69,0,0,1,.29-.72c.19-.27.35-.18,0-.16.51,0,1.36.45,1,1a3,3,0,0,1-1.46.93c-.17.06-.84.41-.54.68s.93.08,1.26,0a4.89,4.89,0,0,0,2.69-1.9c.67-1.16-1.42-1.63-2.13-1.65a3.13,3.13,0,0,0-2.87,1.63,1.76,1.76,0,0,0,.51,2.23c1.46.92,4.73-.05,4.07-2.16a2.53,2.53,0,0,0-1.33-1.53,2.35,2.35,0,0,0-2.62.79,2.8,2.8,0,0,0-.32.83c-.13.61,1.8.29,1.92-.28Z"/><path class="cls-2" d="M152.24,50.4h-.68c-.34,0-1.27.22-1.35.66-.41,2.15,2.76,2.64,3.87,1.19,1.56-2.06-1.17-2.9-2.82-2.72-1.32.14-3.5,1.06-3.17,2.75.26,1.32,2.18,1.89,3.29,2,1.5.18,3.43-.28,4.24-1.65A3.27,3.27,0,0,0,153.88,48a6.63,6.63,0,0,0-6,1.14,3.5,3.5,0,0,0,.4,5.78c2.35,1.36,5.05-.07,7.14-1.27,1.13-.64-.61-.74-1.16-.43a12.53,12.53,0,0,1-2.47,1.2A2.64,2.64,0,0,1,148.8,53a2.92,2.92,0,0,1,1-4c2.44-1.44,5.56,1.54,3.84,4-.8,1.13-3.17-.11-3.59-1.1s.67-1.49,1.47-1.37,1.2.54,1.05,1.24c-.08.37.32.47-.11.19a1.06,1.06,0,0,1-.34-1.15c-.45.21-.9.6-1.35.6h.67c.63,0,2.09-1,.79-1Z"/><path class="cls-2" d="M151.73,46.12c.6.14,1.85,0,1.78-.88,0-.62-.9-1-1.42-1.05-1.46-.14-3.35,1.93-1.76,3,1.07.72,2.86.21,3.85-.39a2.44,2.44,0,0,0,1.14-3.32c-.87-1.63-3.3-1.85-4.86-1.21-1.38.56-3,2.17-2.33,3.79s2.48,2.13,3.92,2.36a5.06,5.06,0,0,0,4.54-1.68,2.23,2.23,0,0,0,.45-2.39,3.5,3.5,0,0,0-2.8-1.5c-.85-.12-2,1.07-.71,1.26.76.11,1.77.47,1.75,1.39a2,2,0,0,1-1.56,1.65c-1.34.42-4.44-1-3.68-2.73a1.88,1.88,0,0,1,2.61-1,1.44,1.44,0,0,1-.53,2.82.51.51,0,0,1-.4-.2.56.56,0,0,1,0-.44c.33-.25.21-.3-.35-.15.34.19,0,.29.25,0l1-.56.26,0a1.49,1.49,0,0,0-1.37.36.46.46,0,0,0,.22.82Z"/><path class="cls-2" d="M156.47,40.33a.57.57,0,0,1-.3-.33.88.88,0,0,1,0-.16c.1-.21,0-.21-.24,0a1.25,1.25,0,0,1,.63.94c.1.58-.49,1-.92,1.29-1.3.72-2.14-1.35-1.49-2.3a1.71,1.71,0,0,1,3,.34,3.32,3.32,0,0,1,.2,1.82,2.35,2.35,0,0,1-.31.85.72.72,0,0,1-.18.21c.31-.2.41,0,.05-.14a1.78,1.78,0,0,0-1.37.2c-.2.12-.63.55-.18.69a3.06,3.06,0,0,0,3.54-1.09,3.53,3.53,0,0,0,0-3.49c-1.43-2.45-6.66-1-7,1.7-.19,1.5,1.29,2.37,2.58,2.34a4.71,4.71,0,0,0,3.72-1.85c.84-1.3-.37-2.53-1.68-2.58s-3.33,1.44-1.6,2.48c.5.3,2.3-.45,1.55-.89Z"/><path class="cls-2" d="M155.4,35.72c-.25,0-.3-.4-.28-.58a.77.77,0,0,1,.14-.34c-.15.24-.63,0-.28.18s.52.78.56,1.18a2.16,2.16,0,0,1-.45,1.45c-.43.57-1.38-.14-1.68-.5-.64-.75-.45-2.7.7-2.85a1.66,1.66,0,0,1,1.76,1.89c-.11.73,1.84.37,1.93-.26.36-2.65-2.88-3-4.72-2.32a3,3,0,0,0-2,2.79,2.55,2.55,0,0,0,2.6,2.48,3.65,3.65,0,0,0,3.43-1.63,2.56,2.56,0,0,0-.17-2.8c-.78-.95-2.48-.56-3.27.1a1.49,1.49,0,0,0-.49,1.49c.16.61.9.73,1.42.77.71.06,2.06-1,.76-1.05Z"/><path class="cls-2" d="M160.1,31.51c-1.75-.61,1.41-1.62.68,0-.51,1.14-2.09,1.94-3.18,1.2s-.22-2.41.68-2.88a2.32,2.32,0,0,1,2.35.57,1.63,1.63,0,0,1-.08,2.59.57.57,0,0,0,.25,1,1.35,1.35,0,0,0,1.37-.37,2.74,2.74,0,0,0-.06-4.29,4.4,4.4,0,0,0-4.69-.6,3.93,3.93,0,0,0-2.27,3,2.59,2.59,0,0,0,2.26,2.68,4.8,4.8,0,0,0,4-1.23c.91-.75,1.82-2,1.16-3.15-.75-1.34-3-1-4-.27-1.42,1-1.27,2.49.39,3.07.84.29,2.27-.91,1.11-1.32Z"/><path class="cls-2" d="M159.9,37.47a1.2,1.2,0,0,1-.56-1.36c.13-.69.5-.32.8.1a3.41,3.41,0,0,1,.41,2.48,1.62,1.62,0,0,1-.24.69c-.09.12-.18.14,0,0-.22.12.32,0,.07,0,.19,0-.08,0-.13-.06a1.7,1.7,0,0,1-.48-.35,1.3,1.3,0,0,1-.4-1.1,1.22,1.22,0,0,1,.38-.68c.11-.1.08,0-.11,0a.61.61,0,0,1,.26.08,1.58,1.58,0,0,1,.59.53.74.74,0,0,1,.1.26c0,.09,0,0,.15-.16-.31.19-.53.64-.14.87a1.4,1.4,0,0,0,1.38-.15c1-.61.42-1.62-.28-2.19a2.82,2.82,0,0,0-3.53.32c-1.6,1.4-.41,3.58,1.43,3.85a2.61,2.61,0,0,0,2.58-1.19,4.12,4.12,0,0,0,0-3.61,2.53,2.53,0,0,0-3.52-1,2.14,2.14,0,0,0-1.09,2.82,2,2,0,0,0,1.2,1c.7.28,2.26-.74,1.15-1.17Z"/><path class="cls-2" d="M164.42,33.84c-.49-.12-.48-.49-.16-.81-.7,0-.88.06-.52.21a1.2,1.2,0,0,1,.23.22,1.75,1.75,0,0,1,.24.54,3.25,3.25,0,0,1-.56,2.68c-.33.46-.37,0,.29.08a1,1,0,0,1-.49-.3,1.67,1.67,0,0,1-.37-1.12,1.57,1.57,0,0,1,.44-1.15c-.15.16.11.26.19.41.17.34-.29.65-.51.82s.32.31.46.3a2.52,2.52,0,0,0,1.29-.46c.39-.29.78-.65.69-1.18s-.81-.57-1.18-.61a3.69,3.69,0,0,0-3,1.18,2,2,0,0,0,0,2.29c.61.89,1.89.63,2.74.35a2.89,2.89,0,0,0,1.84-2,2.62,2.62,0,0,0-.31-2.49c-.71-.72-2.11-.36-2.86.13s-1.23,1.4-.07,1.68a2.28,2.28,0,0,0,1.35-.25c.16-.08.67-.39.24-.49Z"/><path class="cls-2" d="M164.64,31.1c-.35-.15-.28-.78-.07-1.08a1.2,1.2,0,0,1,.24-.24c.2-.15-.17.07.06,0,0,0-.35.07-.13.05-.24,0,.1.05-.07,0,.16,0,0,0,.14.07a1,1,0,0,1,.39.39,1.36,1.36,0,0,1,0,1.1,1.94,1.94,0,0,1-.27.43s-.22.19-.11.11-.27.16-.1.07c-.23.13.19,0,0,0a.57.57,0,0,1,.29,0c.08,0,0,0-.09-.12a1,1,0,0,1-.06-.65.24.24,0,0,1,.09-.14.39.39,0,0,1-.16.1h-.11l-.4-.36c0,.2.09.17.14-.09.12-.1.09-.07-.11.1a.93.93,0,0,0-.26.5c-.19.91,1.79.64,2-.17-.26.32-.28.37,0,.13a1,1,0,0,0,.22-.27.84.84,0,0,0,0-.71c-.25-.62-1.26-.47-1.76-.37A1.87,1.87,0,0,0,163,32.4a1.68,1.68,0,0,0,2.21.79,3.11,3.11,0,0,0,2-1.84,2.1,2.1,0,0,0-.73-2.49,2.47,2.47,0,0,0-2.71,0,2.63,2.63,0,0,0-1.23,1.76,1.52,1.52,0,0,0,1.06,1.69c.76.31,2.25-.78,1.13-1.24Z"/><path class="cls-2" d="M161.5,27.4h-.68c.2,0,.4.39.6.5a3.36,3.36,0,0,1,.37-2,1,1,0,0,1,.22-.25.58.58,0,0,1-.33.12c.33,0,.69.54.92.73s.6,1.18.2,1.49c.24-.19.07,0,0-.21a.26.26,0,0,1,0-.21c.1-.22-.14,0,.07-.08l-1.11-.28a.52.52,0,0,1,.05.27c.18-.17.2-.2.07-.11a2.63,2.63,0,0,0-.39.29c-.33.28-.18.66.21.76a1.57,1.57,0,0,0,1.36-.36c-.11.09.12-.07.12-.07a1.37,1.37,0,0,0,.43-.4,1.05,1.05,0,0,0,.08-.9c-.11-.43-.8-.36-1.11-.28a2.29,2.29,0,0,0-1.73,1.39c-.23.68.44,1.15,1,1.28,1.58.37,3.4-.8,3-2.54a3.1,3.1,0,0,0-1.48-1.65,2.45,2.45,0,0,0-2.31,0c-1.35.67-1.73,2.56-1.58,3.95a.87.87,0,0,0,.6.58h.68a1.92,1.92,0,0,0,1.27-.95.8.8,0,0,0-.54-1.05Z"/><path class="cls-2" d="M158.63,25.46a1.85,1.85,0,0,1-.95-1.34.93.93,0,0,1,.55-.82c-.13.07.14,0,0,0a.74.74,0,0,1,.5.14c.57.3.71,1.08.76,1.65a1.77,1.77,0,0,1-.66,1.64,1,1,0,0,1-.26.13c.09,0-.13,0,0,0a.7.7,0,0,1-.46-.21c-.51-.49-.08-1.58.32-2-.42.43-.62-.17-.21.34a.45.45,0,0,1,.09.25c.06.25.29-.17.54-.18a1.67,1.67,0,0,0-1.28.52c-.26.37.22.55.52.54.79,0,2.71-.51,2.05-1.69s-2.13-.85-3-.27-1.6,2-1,3,1.78.78,2.64.61a3.49,3.49,0,0,0,2.49-1.92,3,3,0,0,0-.44-2.92c-1.16-1.41-3.89-.63-4.79.69-.66,1,0,2,.82,2.55a1.36,1.36,0,0,0,1.27,0c.16-.07.89-.5.52-.75Z"/><path class="cls-2" d="M154.92,21.87c-.72-.18-.59-1.17-.36-1.69a1.94,1.94,0,0,1,.27-.43c.13-.15.24-.19.13-.16s-.13,0,.06.1a2,2,0,0,1,.51,3.12c.16-.12.48,0,.15-.13s-.23-.51-.24-.71a2.25,2.25,0,0,1,.12-.81,2.17,2.17,0,0,1,.15-.35c.13-.24.36-.25-.09-.1l-1.12-.44c0,.29,0,.58,0,.87s0,.29,0,.43c-.06.46-.33-.08.62-.18-.39,0-1,.25-1.09.69s.56.52.85.49a1.66,1.66,0,0,0,1.49-1,4.61,4.61,0,0,0,.05-1.53c0-.54-.72-.56-1.11-.43a2.6,2.6,0,0,0-1.82,2.29,1.63,1.63,0,0,0,1.5,2,2.87,2.87,0,0,0,2.8-3.8c-.61-2-3.27-2.15-4.56-.79-1,1.09-1.28,3.22.51,3.65a1.53,1.53,0,0,0,1.36-.37.42.42,0,0,0-.2-.76Z"/><path class="cls-2" d="M149.72,15c-.39.42-.75,1-.42,1.53a2.15,2.15,0,0,0,1.43.9c1.27.31,3.16-.3,3.2-1.82.06-2.34-5.08-1.29-3.66.81.35.52,2.23-.11,1.8-.74a.56.56,0,0,1-.11-.51c0,.08,0,0-.11.11.15-.11-.24.08-.23.08.2-.07-.24,0,0,0s-.18,0,0,0,.21.06,0,0a.8.8,0,0,1,.16.08.67.67,0,0,1,.23.4,1.33,1.33,0,0,1-.16.69c.07-.06.45-.13.25-.1.12,0-.1,0-.25-.06-.44-.1-1-.64-.57-1.09.26-.28.26-.58-.18-.66a1.67,1.67,0,0,0-1.36.37Z"/><path class="cls-2" d="M150.31,18.34a2.31,2.31,0,0,0-1.8,1.49,1.64,1.64,0,0,0,.51,1.46,3.27,3.27,0,0,0,3.81.86,2.26,2.26,0,0,0,1.14-2,1.9,1.9,0,0,0-1.67-2.06,2.22,2.22,0,0,0-2.61,1.59c-.21.86.74,1.49,1.48,1.56,1.05.09,2.16-.71,1.65-1.82a.93.93,0,0,0-1.16-.44c-.32.09-1,.51-.78.95a1.18,1.18,0,0,1,.12.36c0-.19.21-.35.34-.42.37-.08.47-.11.29-.09.15,0,.17,0,.07,0,.1,0,.11.05,0,0,.14.11-.08-.15,0,0,0-.12,0-.13,0-.14s0,0,.09-.12a.33.33,0,0,1-.13.07c-.22.07.13,0,0,0a.51.51,0,0,1,.39.26,1.18,1.18,0,0,1,.05.68,1,1,0,0,1-.15.54c.12-.22-.19.16,0-.06-.19.18.16-.06-.08,0,.37-.16-.2,0,.19-.05-.07,0-.34,0-.05,0l-.25,0c.25.05-.09,0-.15-.05l-.24-.11c-.09,0-.08,0,0,0l-.18-.1-.21-.16s-.27-.25-.14-.12a1.87,1.87,0,0,1-.32-.42c.1.17,0,0,0-.07a.29.29,0,0,1,0-.09c0-.17,0,.16,0,0s0,.08,0,0,0-.06,0,.05c0-.05.16-.16,0,0,.2-.17-.09,0,.07-.05l.13-.06c-.23.1,0,0,.09,0,.39-.12.9-.48.78-.95s-.76-.55-1.15-.44Z"/><path class="cls-2" d="M151.08,25.4h.68a1.2,1.2,0,0,0,1-.59c.84-1.76-1.44-3.3-3-2.37-.71.42-1.37.85-1.45,1.75a2.58,2.58,0,0,0,1,1.94c1.83,1.58,6.37,1,5.68-2.15a3.84,3.84,0,0,0-5.76-2.32,3.39,3.39,0,0,0-1.18,4.5c1.29,2.41,4.25.9,6,0,1.17-.6.12-1.63-.86-1.13s-2.7,1.79-3.37.21a2.1,2.1,0,0,1,.57-2.62c.81-.62,1.85.38,2.3,1s.8,1.78-.07,1.92a2.06,2.06,0,0,1-2.08-.88c-.18-.23-.48-.8-.12-1s.63.77.47,1.11a2.09,2.09,0,0,1,1-.39h-.68c-1.11,0-1.49,1-.18,1Z"/><path class="cls-2" d="M153.46,26.32a1.83,1.83,0,0,0-.63,1.5c.08.45.54.73.92.89a4.62,4.62,0,0,0,3.76-.27,1.25,1.25,0,0,0,.8-1.14A2.26,2.26,0,0,0,157.23,26a3.42,3.42,0,0,0-3.14.09,1.44,1.44,0,0,0-.68,2.15,2,2,0,0,0,2.29.32,1.67,1.67,0,0,0,1.19-1.86c0-.21-.44-.25-.56-.25h-.68c-.29,0-1.47.29-1.37.76,0,.19.19.31.23.48.1.52,2.05.05,1.93-.5,0-.18-.19-.27-.23-.45-.45.24-.91.71-1.37.71h.68a2.14,2.14,0,0,1-.56-.18c0,.22,0,.69-.12.8a1.68,1.68,0,0,1,.7-.21c.05,0,.18,0,0,0a.78.78,0,0,1-.3-.24,1,1,0,0,1-.16-.85.6.6,0,0,1,.15-.31c-.08.07-.51.1-.28.11a1.86,1.86,0,0,1,1.26.93.86.86,0,0,1,.14.46.31.31,0,0,1-.12.24c.08-.07.09-.08,0,0s.18-.09,0,0l.09,0c-.07,0-.25.08.06,0-.28.08.05,0-.06,0s-.25,0,0,0h-.32l-.3,0a2.65,2.65,0,0,1-.49-.15.89.89,0,0,1-.56-.59c-.1-.38.21-.78.46-1.06s-.26-.42-.48-.41a1.93,1.93,0,0,0-1.28.49Z"/><path class="cls-2" d="M150.27,29.89c-.84,1.69.92,2.08,2.26,1.77,1.66-.39,2.79-2.41,1-3.53a4,4,0,0,0-4.92,1,3,3,0,0,0,.66,4.16c2.76,2.11,8.55-1.61,6.08-4.86-1.15-1.52-3.27-1.3-4.8-.58-1.33.62-3,2.08-2.2,3.7.32.66,2.21.05,1.93-.52-.63-1.31,1-3.19,2.42-2.54,2,1,1.41,3.74-.55,4.31-.8.23-1.6-.62-1.93-1.24a2.16,2.16,0,0,1,.21-2.42,1.21,1.21,0,0,1,2,.58c.12.31,0,1-.21,1-.42,0-.28-.59-.18-.79.41-.83-1.52-.59-1.8,0Z"/><path class="cls-2" d="M145.43,28.39c1,.62,2.92.34,3-1.14.1-1.71-2.23-2-3.33-1.24a1.88,1.88,0,0,0-.27,3.13,3.61,3.61,0,0,0,3.71.16,1.86,1.86,0,0,0,.71-2.88c-.86-1-2.47-.92-3.62-.7a2.8,2.8,0,0,0-2.38,2.49c-.1,1.53,1.25,2.37,2.59,2.56.86.13,2-1.09.7-1.28a1.52,1.52,0,0,1-1.28-1,1.42,1.42,0,0,1,.29-1.4,1.64,1.64,0,0,1,2.12.46c.52,1.14-.75,1-1.33.6a.83.83,0,0,1-.29-.46,1,1,0,0,1,0-.49c0-.29.29-.26,0-.27.2,0,.34.33.38.47a.62.62,0,0,1,0,.33c0,.06,1-.05.48-.33-.65-.39-2.39.51-1.51,1Z"/><path class="cls-2" d="M144.09,21.18a2.52,2.52,0,0,0,.79,2.59,3.46,3.46,0,0,0,3.22,0c1.76-.88,2.29-3.4,0-4-1-.26-2.7.08-3.13,1.14-.35.87.64,1.79,1.48,1.79a1.91,1.91,0,0,0,2-1.38c.18-1.05-1.19-1.19-1.91-1.13-.31,0-1.09.27-1.09.7a1.76,1.76,0,0,0,.31,1.2c.47.56,2.32-.15,1.78-.79a.94.94,0,0,1-.15-.62l-1.08.7c.17,0,.21,0,.2.15s-.07.2,0,.14l0,.05a.89.89,0,0,1,.7-.22c.24,0,.21.09.09,0a1.29,1.29,0,0,1-.36-.56c0-.07-.07,0,0,0a.86.86,0,0,1,.81.56c.21.49-.12,1.41-.55,1.46-1.14.12-1.18-1.22-1.08-2s-1.85-.52-1.94.21Z"/><path class="cls-2" d="M140.46,25.25c-.84,2.76,3.33,2.67,4.83,1.68,1.35-.9,1.42-3-.28-3.5-1.87-.57-4.64,1.17-4.16,3.28.54,2.3,4.76.77,4.08-1.43a1.6,1.6,0,0,0-1.56-1c-.37,0-1.33.19-1.32.72a2.09,2.09,0,0,0,.23,1.07c.37.74,2.26.15,1.93-.52a1.55,1.55,0,0,1-.22-.75l-1.33.72c.49,0,.46.74.22,1-.12.11-.13.12,0,0l-.05,0a.33.33,0,0,1,.26,0,.68.68,0,0,1-.28-.43,1.34,1.34,0,0,1,.32-1.25.74.74,0,0,1,.19-.16s.38-.18.3-.15l.21-.05c-.11,0-.1,0,0,0-.08,0,0,0,.1,0-.11,0,.11.07.14.09s.1.11.12.14a1,1,0,0,1,.17.43,1.05,1.05,0,0,1-.28.91.49.49,0,0,1-.27.13,3.79,3.79,0,0,1-.82,0c-.71-.13-.78-.63-.59-1.26.14-.45-.59-.54-.86-.52a1.23,1.23,0,0,0-1.08.72Z"/><path class="cls-2" d="M137.94,28.6c-.44.42-1.07,1.13-.71,1.78a2.27,2.27,0,0,0,1.71.92c1.59.26,3.78,0,4.88-1.3a1.46,1.46,0,0,0-.19-1.86,2.88,2.88,0,0,0-3.12-1.06,3.14,3.14,0,0,0-2.17,2.09,1.29,1.29,0,0,0,1,1.78,2.83,2.83,0,0,0,2.91-1.24c.53-1.14-.64-1.69-1.6-1.73-.36,0-1.49.25-1.34.82,0,.18.19.29.23.46.19.7,2.12.18,1.93-.52,0-.18-.18-.29-.22-.45l-1.34.82c.36,0,.58.21.51.59,0,.14-.17.19-.05.16s.15.05,0,0c-.45-.21,0-1.13.12-1.4a1.39,1.39,0,0,1,.21-.27c.05-.05.25-.15.06-.09s0,0,.07,0a1.52,1.52,0,0,1,.59.37c.39.33.81.84.66,1.34A.38.38,0,0,1,142,30c-.21.15.06,0-.19.1s-.1,0,0,0l-.24.07a4.49,4.49,0,0,1-1.35.09c-.91-.12-1.53-.51-.71-1.3.3-.28.22-.62-.19-.71a1.64,1.64,0,0,0-1.36.37Z"/><path class="cls-2" d="M143.09,33.37c1.22.06,3.39-.62,2.74-2.25s-3.28-1.13-4.29-.21c-1.3,1.2-.5,3.09.92,3.72a6,6,0,0,0,4.8-.47c1.19-.59,2.43-1.76,1.75-3.18-.91-1.92-3.61-1.78-5.24-1s-3,2.63-1.55,4.14c1.21,1.3,3.55.87,4.74-.19.81-.74-1.11-.66-1.54-.27s-1.27-.07-1.64-.56c-.66-.87.13-2.13,1-2.5,1.68-.75,3.49,1.69,1.82,2.83a2.48,2.48,0,0,1-3.55-.55,1.86,1.86,0,0,1-.12-1.25,1,1,0,0,1,.33-.54c-.17.16,0,0,.21.12a1,1,0,0,1,.56.74.72.72,0,0,1,0,.41c-.05.19.35,0-.11,0-.69,0-2.07,1-.76,1Z"/><path class="cls-2" d="M137.91,35a3.13,3.13,0,0,0,3.27-1,2,2,0,0,0-.3-2.29c-.76-.92-1.92-.73-2.93-.5a3,3,0,0,0-2.18,3.18c.21,2.73,4.76,2.43,6,.73a2,2,0,0,0-.87-2.8,2.49,2.49,0,0,0-3.38,1.31.32.32,0,0,0,.07.28,1.9,1.9,0,0,0,1.21.42,1.48,1.48,0,0,0,1.27-.54c.24-.39-.2-.63-.54-.64.11,0-.23.22,0,.05-.17.11-.4,0-.13.12A1.05,1.05,0,0,1,140,34c.13.33.27.88-.13,1.08a1.53,1.53,0,0,1-2.19-1.42,2.18,2.18,0,0,1,.28-1c.2-.35.33-.35.69-.48a3,3,0,0,1,.5.43,1.46,1.46,0,0,1,.3,1,.66.66,0,0,1-.15.35.29.29,0,0,1,.21-.08,1.38,1.38,0,0,1-.45,0,1.62,1.62,0,0,0-1.37.37.41.41,0,0,0,.21.75Z"/><path class="cls-2" d="M146.67,35.39c-.92,1-.67,2.2.71,2.5a3.94,3.94,0,0,0,4.07-1.8c.72-1.22-.06-2.28-1.31-2.56a4.81,4.81,0,0,0-4.09,1.06,2.12,2.12,0,0,0,0,3.3,4.59,4.59,0,0,0,4.23.35c1.3-.49,2.75-1.7,2.18-3.24-.5-1.37-2.26-1.71-3.52-1.39a3.14,3.14,0,0,0-1.83,1.1c-.41.56,1.47.29,1.76-.1a1.75,1.75,0,0,1,.34-.38c-.39.07-.45.11-.18.11l.3.08a2.25,2.25,0,0,1,.93.65,1.71,1.71,0,0,1-.33,2.47c-.49.4-1.3.12-1.81-.16a1.66,1.66,0,0,1-.88-2c.16-.59.54-1.17,1.19-1.12a1.38,1.38,0,0,1,1.36,1.25,2.08,2.08,0,0,1-.56,1.28,1.12,1.12,0,0,1-.34.31c.23-.1-.05,0-.22-.1-.88-.27-.76-1.2-.25-1.75.3-.33-.27-.38-.47-.37a2,2,0,0,0-1.29.47Z"/><path class="cls-2" d="M147.37,40.92c1.17.1,3.1-.49,2.52-2s-3.11-.94-4.09-.22c-1.31,1-1.4,2.7.12,3.47a5.32,5.32,0,0,0,4.28-.2c1.11-.51,2.22-1.58,1.49-2.87s-2.81-1.25-4-.74c-1.06.45-2.06,2-.66,2.72a2.06,2.06,0,0,0,2.86-1.47c0-.24-1.9,0-1.93.52a1.08,1.08,0,0,1-.09.5c-.28.42.05.36,1-.19a.92.92,0,0,1-.47-.42,1,1,0,0,1-.12-.62,1.21,1.21,0,0,1,.17-.46l.22-.29c-.32.09-.34.15,0,.17a1.58,1.58,0,0,1,.66,2.87c-.85.54-2.22-.47-2.5-1.22a1.58,1.58,0,0,1,.07-1.09,1.9,1.9,0,0,1,.26-.43c.34-.51.14-.17.42,0a1.22,1.22,0,0,1,.53.69,1.34,1.34,0,0,1,.05.35c.06.69-.54.12.55.21a2.57,2.57,0,0,0-1.37.37c-.33.2-.24.35.11.38Z"/><path class="cls-2" d="M142.71,34.62c-1.31-.14-2.78.41-2.68,1.92.09,1.31,1.3,1.87,2.46,1.93A5,5,0,0,0,146,37.3a1.74,1.74,0,0,0,0-2.71c-1.36-1-6.26-.4-5,2.06,1.06,2.11,5.85-.59,3-2a1.53,1.53,0,0,0-1.74.58,1.35,1.35,0,0,0,0,1.25c.27.63,2.16,0,1.93-.51a1,1,0,0,1,0-1l-1.74.58c.32.16.8.54.4.89.26-.23.49.07.16-.2a1,1,0,0,1-.27-.69c0-1,1.42-.35,1.77,0,.69.76-.11,1.82-1,1.85a1.67,1.67,0,0,1-1.24-.44,1.71,1.71,0,0,1-.34-.82,1.4,1.4,0,0,1,0-.5c.06-.5.3,0-.46-.08a1.91,1.91,0,0,0,1.37-.37c.29-.24.24-.58-.17-.62Z"/><path class="cls-2" d="M143.41,45.11c.75,1.43,3.29.09,4.05-.72,1.19-1.29-.48-2.58-1.65-2.84a4.81,4.81,0,0,0-4.36,1.39,2.87,2.87,0,0,0-.24,3.19c.62.73,1.8.64,2.65.5a8.32,8.32,0,0,0,3.35-1.32,3.07,3.07,0,0,0,1.53-2c.13-1.22-1.51-1.86-2.46-1.79a3.58,3.58,0,0,0-3.55,2.94l.05.06a3.55,3.55,0,0,0,2.6-.14c.05,0,.87-.34.59-.5s-.93,0-1.24.14c-.16.06.3-1.14.35-1.23a2.17,2.17,0,0,1,.38-.48c.37-.25.31-.27-.16-.07a2,2,0,0,1,1.24.73,1.26,1.26,0,0,1,.1,1.39A3.35,3.35,0,0,1,144.12,46c-1.68,0-1.45-2-1-3.09a1.81,1.81,0,0,1,.51-.62q.3-.18,0-.06a1.38,1.38,0,0,1,.35,0,2.53,2.53,0,0,1,1.31.56A1.55,1.55,0,0,1,145.9,44a1.21,1.21,0,0,1-.34.77,1.65,1.65,0,0,1-.41.34c.63-.39.44,0,.19-.5s-2.05.28-1.93.52Z"/><path class="cls-2" d="M143,48.61c-.63,1.24.7,1.82,1.71,2.06a4.69,4.69,0,0,0,3.37-.38c.81-.4,1.89-1.19,1.83-2.22s-1-1.49-1.92-1.55c-1.43-.09-4.58.62-4.79,2.42-.12,1,1.16,1.61,2,1.6a3,3,0,0,0,2.93-2.43c.05-.23-.18-.32-.37-.35a9.12,9.12,0,0,0-.9-.23c-.47,0-1.39.08-1.57.62s.11.45.23.81c.2.62,2.12.06,1.93-.52-.08-.23-.31-.3-.23-.55l-1.56.62a9.12,9.12,0,0,1,.9.23l-.36-.36a3,3,0,0,1-.41,1c-.28.25-.24.29.12.13a1.39,1.39,0,0,1-.41-.27.73.73,0,0,1-.26-.9c.24-.62,1.37-.88,1.94-.81a1,1,0,0,1,.82.9c.12.56-.47,1-.89,1.29a1.53,1.53,0,0,1-1.22,0c-.71-.2-1.33-.55-.93-1.34.19-.39-.68-.37-.82-.35a1.4,1.4,0,0,0-1.11.62Z"/><path class="cls-2" d="M141.89,52.9c1,1.2,3.16.24,3.73-.94.92-1.89-2.38-2.47-3.53-2a3.75,3.75,0,0,0-2.12,4.2c.24,1.88,2.83,2,4.21,1.71,1.54-.32,3.36-1.2,3.82-2.83.53-1.85-1.59-2.89-3.1-2.88s-3.88.7-4,2.57c0,.84,1,1.25,1.66,1.25a3.92,3.92,0,0,0,2.91-1.24c.32-.33-.28-.42-.49-.41a1.94,1.94,0,0,0-1.28.48c-.64.65-1.37-1.32-.1-1.72a2.32,2.32,0,0,1,2.1.77c1.14,1.18-.16,2.93-1.46,3.2-1.86.39-2.6-1.32-2.33-2.86a4.91,4.91,0,0,1,.34-1c.23-.51.26-.6.75-.34a1.41,1.41,0,0,1,.75.9.86.86,0,0,1-.06.5c-.15.49.17.16,0-.06-.35-.42-2.19.24-1.81.7Z"/><path class="cls-2" d="M139.5,47.92c.73.22,2.58,0,2.7-1a1.65,1.65,0,0,0-1.32-1.67,3.6,3.6,0,0,0-3.48,1.56c-.77,1.25.24,2.68,1.41,3.15,1.95.8,7.23-1.3,5-3.86-1.06-1.2-2.92-1-4.22-.36-.82.38-1.83,1.49-.62,2.1a1.84,1.84,0,0,0,1.24-.14c.05,0,.88-.36.59-.5a.66.66,0,0,1-.26-1.11c.16-.23.38-.13-.08-.12a1.88,1.88,0,0,1,.66.16,2.49,2.49,0,0,1,1,.82,1.5,1.5,0,0,1,0,1.64,1.27,1.27,0,0,1-1.85.58,2.28,2.28,0,0,1-1.19-1.61,1.8,1.8,0,0,1,.2-1.11,1.88,1.88,0,0,1,.42-.51c.4-.38-.68-.07-.34,0a1.41,1.41,0,0,1,.8.84,1.24,1.24,0,0,1,.1.54.52.52,0,0,1-.07.21c.4-.74,1.65-.18.89-.41a2.45,2.45,0,0,0-1.35.26c-.17.08-.65.34-.25.45Z"/><path class="cls-2" d="M133.65,50.54c1.4.78,4.06-.17,3.5-2.09-.27-.92-1.51-1.27-2.33-1.35a3.24,3.24,0,0,0-2.7,1.27c-1.3,1.59.27,3.34,1.87,3.63a5,5,0,0,0,4.63-1.59c1.13-1.44-.22-3-1.6-3.52a4.81,4.81,0,0,0-4.86.82c-1,1-1.31,2.81.06,3.69a5.23,5.23,0,0,0,4.69.14,4.49,4.49,0,0,0,2-1.67c.51-.78-1.44-.62-1.81-.07a2.34,2.34,0,0,1-3.7.32c-.53-.64-.1-1.67.41-2.18s1.68-.12,2.22.14a1.64,1.64,0,0,1,.92,2c-.21.77-1.17.93-1.84.88a1.61,1.61,0,0,1-1.45-2c.17-.9.84-.7,1.37-.21a.87.87,0,0,1,.22.67.81.81,0,0,1-.15.37c.38,0,.39-.06.05-.18-.58-.32-2.35.5-1.53,1Z"/><path class="cls-2" d="M135.17,56.66c1.93.16,4.07-1,2.65-3.06a2.19,2.19,0,0,0-2.36-.7,2.57,2.57,0,0,0-2.12,2.64c-.33,6.73,10.09,1.91,7-2A5.17,5.17,0,0,0,135.5,52a3.76,3.76,0,0,0-3.21,4.1c.07,5.61,8.4,3.87,10.28.39a3,3,0,0,0,.28-1.68c0-.55-2-.16-1.93.52.17,2.72-3.49,4.3-5.59,2.82-1.61-1.15-1.72-5.59.92-5.19,1.81.27,3.66,2.12,2.28,3.87-.64.82-2.09,1.64-2.77.46a4.4,4.4,0,0,1-.41-2.83c.13-.85.2-.65.67-.1a2.73,2.73,0,0,1,.35,1.36c-.54,0-2.26.88-1.2,1Z"/><path class="cls-2" d="M128.89,56.64c1.16.4,3,.44,3.61-.87A2.22,2.22,0,0,0,131.37,53c-3-1.72-6.7,2.91-3.78,5.1,1.93,1.45,6.66,1,6.44-2.16a2.7,2.7,0,0,0-2.64-2.28c-.94-.08-2.7.38-2.25,1.65.24.67,2.16.11,1.94-.52s.16-.06-.6-.06a1.62,1.62,0,0,1,.73.27,1.66,1.66,0,0,1,.85,1.76c-.18,1.51-1.7,1.15-2.65.6a2,2,0,0,1-.93-1.46c-.1-.62.31-2.35,1.18-2a1.71,1.71,0,0,1,1,1.16,1.37,1.37,0,0,1,0,.75.51.51,0,0,1-.11.22c.23-.35.49,0-.14-.26a1.65,1.65,0,0,0-1.37.18c-.22.14-.62.59-.17.75Z"/><path class="cls-2" d="M128.8,50.32a1.81,1.81,0,0,0-.85,2,3,3,0,0,0,1.69,1.53c1.56.73,4.08.41,4.38-1.6.34-2.37-2.83-3.54-4.53-2.31a1.71,1.71,0,0,0-.23,2.72,2,2,0,0,0,3-1.12c.07-.25-.2-.5-.41-.55a2.14,2.14,0,0,0-1.85.16.67.67,0,0,0-.06,1.12c.59.6,2.43-.18,1.77-.84-.2-.21-.09-.26-.1.06l-.35.49,0,0-.73.26q-.17,0,.15,0c-.14-.18-.28-.36-.41-.55-.13.24,0,.2.39-.1.16,0,.14,0,.06-.06s-.09-.49,0-.7.13-.07,0-.08a1.31,1.31,0,0,1,.58.18,1.65,1.65,0,0,1,.8,1.12,1.19,1.19,0,0,1,0,.59c-.05.14-.22.26-.05.16-.13.08.05,0-.12,0a2.41,2.41,0,0,1-.47,0,2.63,2.63,0,0,1-1-.45c-.49-.33-.82-.85-.34-1.23.31-.23.53-.69.12-.95a1.3,1.3,0,0,0-1.38.12Z"/><path class="cls-2" d="M122.52,52.09a1.4,1.4,0,0,0,0,2.22,4.46,4.46,0,0,0,2.58.81c1.23,0,4-.78,3.55-2.5-.3-1.21-2-1.77-3.1-1.86-1.6-.14-3.14.64-3,2.38,0,.25.41.26.61.26h2c.39,0,1.54-.13,1.32-.78s-.62-.75-1.3-1c-.43-.13-1.56.11-1.55.72a1.5,1.5,0,0,0,.31,1c.51.62,2.35-.1,1.78-.8a.5.5,0,0,1-.14-.36l-1.55.69a5.36,5.36,0,0,0,.54.14c-.2-.05-.1,0,0,.22.44-.3.88-.88,1.32-.88h-2c.21,0,.41.24.62.36a1.75,1.75,0,0,1,0-.6s.17-.2.06-.11c.12-.1-.18.07.06,0-.36.15.25,0-.12,0,0,0,.36,0,.12,0l.3,0a2.68,2.68,0,0,1,1.66.93.42.42,0,0,1,.07.31c0,.16,0,.08-.11.21s-.08.06,0,0l-.15.11c.12-.08-.2.1-.24.11s-.52.18-.25.1c-.11,0-.11,0,0,0h-.19c-.48,0-2.48-.38-1.64-1.27a.48.48,0,0,0-.22-.84,1.44,1.44,0,0,0-1.37.37Z"/><path class="cls-2" d="M123.5,55.84c-.61.11-1.83.37-1.94,1.15-.08.52.37,1,.71,1.35a3.51,3.51,0,0,0,4.52.31,2.19,2.19,0,0,0,.6-2.17c-.31-1-1.65-1.23-2.55-1.06s-2.57,1.08-1.56,2.23a2,2,0,0,0,3-.75c0-.06,0-.11,0-.14l-.46-.23A2,2,0,0,0,124,57c-.11.19-.17.35,0,.53.36.45,2-.38,1.93-.51s-.12-.2,0-.38l-1.86.5.23.12c.21.1.17,0,.09.24-.24.56,1.58,0,1.06-.29a.81.81,0,0,1-.34-.39.92.92,0,0,1,.1-1c-.55.6-1.14.08-.57.28a1.88,1.88,0,0,1,.44.24,1.52,1.52,0,0,1,.47,1.62,2,2,0,0,1-.25.62.49.49,0,0,1-.11.14c-.13.13.64-.18.65-.18s-.2,0-.31-.07a1.92,1.92,0,0,1-.51-.22,3.77,3.77,0,0,1-1-.72,1.92,1.92,0,0,1-.48-.84.53.53,0,0,1,0-.33l.06-.08c-.12.11-.8.24-.45.17s1-.18,1.14-.5-.7-.17-.77-.16Z"/><path class="cls-2" d="M124.63,49.33c-.37,1.36,1.2,1.58,2.2,1.52s3.25-.51,3-1.81a1.63,1.63,0,0,0-1.44-1.15,3.8,3.8,0,0,0-3.06.94.91.91,0,0,0,.61,1.59,2.63,2.63,0,0,0,2.59-1.62c.05-.19-.18-.4-.32-.4h-.91a2.9,2.9,0,0,0-1.37.48c-.3.19-.26.52.11.52H127a.61.61,0,0,1-.32-.14c0,.17-.11.47-.27.58.86-.6,1.21,0,.81-.26a.44.44,0,0,1-.19-.27.85.85,0,0,1,.11-.64.46.46,0,0,1,.17-.17s-.54.12-.36.14c.55.07,1.26.77.91,1.33a.38.38,0,0,1-.12.13c-.1.06.12,0,0,0,.26-.07,0,0,0,0,.22,0,0,0-.06,0h-.29c-.58-.09-1-.48-.85-1.1.11-.39-1.77-.13-1.9.35Z"/><path class="cls-2" d="M129,45.76c-.72.33-1.57.9-1.42,1.8.11.66.85,1.15,1.39,1.41,1.44.7,4.11.6,4.36-1.41.34-2.78-3.24-2.25-4.6-1A1.42,1.42,0,0,0,129,49c1.41.57,2.79-.63,3.28-1.86.05-.12.09-.24.13-.37s-.2-.4-.39-.45a2.48,2.48,0,0,0-2.85,1c-.48.85,1.47.7,1.82.1.19-.33-.64-.08-.13.06L130.5,47a3,3,0,0,1-.42.84c-.32.45-.26-.11.35.14a.63.63,0,0,1-.32-.41c-.1-.37.26-.7.44-.79s.24-.1.26-.1a.5.5,0,0,1,.4.16,1.37,1.37,0,0,1,.1,1.34c-.07.13,0,0,0,.06s.17-.05.08,0c.22,0-.11,0-.16,0a.82.82,0,0,1-.2,0l-.33-.1a4.39,4.39,0,0,1-.52-.27,1.38,1.38,0,0,1-.59-.68c-.09-.29.05-.35.27-.44s.8-.5.49-.84-.94-.22-1.29-.06Z"/><path class="cls-2" d="M133.18,44.47c-.94.86-.66,2,.2,2.77a3.87,3.87,0,0,0,3.29.76,4.43,4.43,0,0,0,3-1.72c.66-1,0-1.9-.88-2.46-1.63-1.07-5.66,0-5.3,2.39.18,1.19,1.41,1.41,2.39,1.13a2.64,2.64,0,0,0,2-2.38c0-.33-.3-.43-.59-.43a4.41,4.41,0,0,0-1.89.38c-.23.1-.66.33-.59.65a1.71,1.71,0,0,0,.53.8c.47.49,2.3-.23,1.79-.76a1,1,0,0,1-.38-.56l-.59.66a.46.46,0,0,1,.38-.08l-.59-.42c0,.41-.23,1.1-.46,1.22.37-.19.37.09.09-.26a1.23,1.23,0,0,1-.16-.86.94.94,0,0,1,.88-.74,1.65,1.65,0,0,1,1.52.71c.68.84-.5,1.63-1.22,1.71-.9.11-2.85-1.28-1.86-2.2.3-.27.23-.6-.18-.68a1.66,1.66,0,0,0-1.37.37Z"/><path class="cls-2" d="M139.49,41.24c-.52.25-1.22.67-1.19,1.33,0,.46.6.77.95.93,1.16.52,3.18.43,3.88-.77a1.48,1.48,0,0,0-.57-1.72c-.9-.6-2.29-.1-3.08.47a1.27,1.27,0,0,0-.37,2c.34.42,1.09.27,1.52.18a2.36,2.36,0,0,0,1.4-.92,1,1,0,0,0,.14-1.05c-.32-.57-2.16.1-1.93.52a.62.62,0,0,1,0,.62.69.69,0,0,1-.16.18c.32-.26,1.2.08.85-.24a.68.68,0,0,1,.08-1.06c.16-.13-.17.07-.28,0a.84.84,0,0,1,.46.53,1.74,1.74,0,0,1,.11.55.35.35,0,0,1-.12.26c.07-.06.08-.07,0,0a1,1,0,0,1,.23-.12c-.21.09.44-.1.2,0s.22,0,0,0,.13,0-.1,0a2.4,2.4,0,0,1-.8-.25c-.25-.14-.42-.28-.45-.53a.75.75,0,0,1,.07-.18c0-.05,0-.05,0,0l.11-.09.25-.13c.22-.1.62-.48.2-.63a2,2,0,0,0-1.36.21Z"/><path class="cls-2" d="M142.48,38.61a1.72,1.72,0,0,0-.76,1.44c.07.44.56.66.94.72a2.48,2.48,0,0,0,2-.6,1.8,1.8,0,0,0,.44-1.69c0-.23-.42-.26-.58-.26a2.73,2.73,0,0,0-2,.73c-.35.47-.05.92.3,1.28s2.26-.24,1.8-.73a1.22,1.22,0,0,1-.31-.43.17.17,0,0,1,0-.12c-.6.21-.77.31-.52.3l-.58-.25a1.57,1.57,0,0,1,0,.89c-.1.18-.09.07.12,0a1.16,1.16,0,0,1,.6-.1c-.16,0,.14.06,0,0s-.16-.1-.19-.3.2-.47.36-.61.24-.56-.17-.63a1.76,1.76,0,0,0-1.36.37Z"/></svg>