<svg id="layer1" xmlns="http://www.w3.org/2000/svg" viewBox="0 0 224.98 375.42"><defs><style>.cls-1{fill:#c1162a;}.cls-2{fill:#d3ae6c;}.cls-3{fill:#492d0c;}</style></defs><path class="cls-1" d="M92.29,105.2a3.25,3.25,0,0,0-.23-4,13.91,13.91,0,0,0-1.94-8.57c-.35-2.24-.78-4.48-1.24-6.72,0-.75.1-1.51.2-2.29.29-2.26-2.45-4-4.43-3.37S81,81.46,79.14,82a26.53,26.53,0,0,1-6.73,1.23,3.18,3.18,0,0,0-2.91,1.62c-5.94,1.35-11.33,3.73-13.32,10.47a3.23,3.23,0,0,0,0,1.66c-.28,2.36,2.08,4.62,4.31,4a47.7,47.7,0,0,0,6.77,6.63,3.72,3.72,0,0,0,2,.77A48.8,48.8,0,0,0,74.93,112a3.57,3.57,0,0,0,2,.45,3.73,3.73,0,0,0,3.3,1.84,3.44,3.44,0,0,0,.86.09c1.62,0,3.3-.33,4.37-1.65a5,5,0,0,0,.57-.9,14.82,14.82,0,0,0,3.76-4.1A3.16,3.16,0,0,0,92.29,105.2Z"/><path class="cls-1" d="M164,312.71a92.19,92.19,0,0,0-2-18.06,3,3,0,0,0-2.26-2.39c-.29-5.87-.74-11.74-.79-17.63a3.23,3.23,0,0,0-1.27-2.65c0-2.86-.08-5.72-.16-8.57.45-13.21.54-26.4-1.11-39.55a3.7,3.7,0,0,0-.59-1.64c-.42-2.1-.91-4.18-1.43-6.27a3.68,3.68,0,0,0-.74-1.48c3.1-12.66,7.62-25,7.84-38.21a3.64,3.64,0,0,0-.34-1.66c.5-6.36-.84-12.43-5.71-17.89a4.23,4.23,0,0,0,.19-.57,3.13,3.13,0,0,0,.31-3.86,5.68,5.68,0,0,0-2.15-2.42,4.41,4.41,0,0,0-.39-2c-6.13-13.89-5.73-29.56-10.54-43.75q-.56-2.46-1.17-4.92A3.1,3.1,0,0,0,139.87,97c-.54-1.06-1.13-2.12-1.76-3.15a3.7,3.7,0,0,0-1.27-1.28,11.91,11.91,0,0,0-10.56-6.22c0-.06-.28-.13-.33-.19-2-2.48-6.15-.34-6.15,2.47v2.47c0-.21-1.4-.16-2.14.16a58.13,58.13,0,0,0,3.57-7.41c1.63-4.22-5.09-6-6.7-1.86a55.31,55.31,0,0,1-6.6,12.11,3,3,0,0,0-3.26.94c-6.06,6.49-11.76,13.27-17.41,20.1-5.29,4.43-10.66,8.65-15.58,12.9-2.34,2-.63,5.24,1.79,5.84l-.43.59a2.91,2.91,0,0,0-.57,2.38c-.67.87-1.34,1.76-2,2.69-1.89,2.76,1.2,5.68,4,5.14h0a3.84,3.84,0,0,0,3,2.49,21.62,21.62,0,0,0-1.75,5.4,15,15,0,0,0-1.53,9.68,16.91,16.91,0,0,0,.39,4.74,2.35,2.35,0,0,0,.14.45,3.92,3.92,0,0,0,1,3.77,3.65,3.65,0,0,0,4.43,3.94,17.68,17.68,0,0,0,4.18-1.56,13.72,13.72,0,0,0,8.91-1.75c2.4,1.91,5.36,2.47,8.59,2.38a3.2,3.2,0,0,0-1.36,2.63c0,.52,0,1,0,1.55l-1,0a34.84,34.84,0,0,0-9.78-3.06,3.81,3.81,0,0,0-3,.71l-.36,0a3,3,0,0,0-4.48.23,14.62,14.62,0,0,0-1.06,1.46,2.93,2.93,0,0,0-1,.36,2.43,2.43,0,0,0-.25-.2c-.12-.31-.25-.61-.4-.91-1.16-2.41-4.81-2.15-6,0-3,5.28-3.07,11.5-1.63,17.29a3.25,3.25,0,0,0,.52,1.11c0,.38,0,.76,0,1.14a3.36,3.36,0,0,0,3.55,3.4l.11.27a2.93,2.93,0,0,0,1.7,1.47,17.16,17.16,0,0,0,1.12,4c.6,1.43,2.18,2.82,3.79,2.64.19,1.68.41,3.34.65,5a2.85,2.85,0,0,0,1,1.92c0,.46.06.91.1,1.36a3.45,3.45,0,0,0-3,4.34c.5,1.83,1.21,3.79,1.63,5.75a4.1,4.1,0,0,0-1.09.1c-3.73.87-7.57.88-11.35,1.43a21.41,21.41,0,0,1-2.75-4.7c-1.31-3.61-6.85-3.19-6.87.93,0,4.79-.22,9.56-.64,14.31a3.24,3.24,0,0,0-.5,1.26c-.63,3.43-1.24,6.85-1.79,10.28a3.36,3.36,0,0,0-2.3,1.58c-4.47,8-5.94,17.51-6.77,26.49-.08.8-.14,1.62-.2,2.45-2.15,5.48-1.81,12.23-1,17.69,0,.3.09.61.14.91-3.79,7-3,16,4.17,21.07a17.85,17.85,0,0,0,4.52,2.33c.31.41.64.82,1,1.21a3.52,3.52,0,0,0,5.13-.18,40.93,40.93,0,0,0,7.95-.81,3.49,3.49,0,0,0,4.52-.24c6.57,5,18,4.78,25.13,3.71a33.41,33.41,0,0,0,10.46-3.37,3.38,3.38,0,0,0,4.37.81,21.75,21.75,0,0,0,3.88-2.87,6.4,6.4,0,0,0,.87-.36,3.44,3.44,0,0,0,1.73.55c.63,0,1.25,0,1.87,0h1.94a3.5,3.5,0,0,0,1.57-.38c.52-.08,1-.18,1.56-.29a3.45,3.45,0,0,0,4.15,2.4c2.71-.63,5.53-.64,8.25-1.27a3.27,3.27,0,0,0,1.66-.92,38.47,38.47,0,0,0,7.69-1.6c3.79,1,7.56,1.92,11.59.62a3.57,3.57,0,0,0,2-5.22A3.25,3.25,0,0,0,164,312.71ZM88.9,128.16a3.94,3.94,0,0,0-.39,1.82,3,3,0,0,0-1.51-.53c.73-.65,1.47-1.28,2.22-1.91C89.11,127.75,89,128,88.9,128.16ZM76.19,292.79a3.23,3.23,0,0,0-.75-.41,42,42,0,0,0,.79-4.64C76.15,289.41,76.14,291.1,76.19,292.79Zm.3-57.8a35.57,35.57,0,0,0-1.26,4.16c-.22-1.49-.46-3-.71-4.45l2.2-.2A2.75,2.75,0,0,0,76.49,235Zm17.65-47.94c-.07.53-.13,1.07-.2,1.6q-.12-1.28-.33-2.55l.71.13A4,4,0,0,0,94.14,187.05Zm2.79,91.21c0-1,.13-1.93.26-2.87.25,1.08.52,2.15.81,3.22A3.73,3.73,0,0,0,96.93,278.26Zm1.78-113.72a2.89,2.89,0,0,0,.31,2.64,3.68,3.68,0,0,1-2.17-1.58l0,0a4,4,0,0,0,.67-.86c2.06-3.75,4.19-7.45,6.15-11.22a.5.5,0,0,1,0,.12C102,157.25,100,160.85,98.71,164.54ZM101.45,207c-.34.41-.67.83-1,1.26.19-1.77.33-3.55.42-5.32a3.11,3.11,0,0,0,1.19.66C101.88,204.72,101.67,205.85,101.45,207Zm1.35,59a107.34,107.34,0,0,1-.29-14.12q.51-2.1.93-4.23a139.53,139.53,0,0,0,.4,20.55A16.49,16.49,0,0,0,102.8,266Zm25.93-149.17c.22-.57.43-1.15.65-1.72-.06.46-.13.92-.18,1.38-.26.46-.5.92-.74,1.38Zm-5.64,15.62c-.42,1.37-.83,2.74-1.25,4.11q-1.29,2.25-2.51,4.55l-.23-.14C120.45,138.18,121.8,135.34,123.09,132.47Zm-8.38-36.1c-.47,1.21-.95,2.42-1.44,3.62-.7.34-1.38.71-2,1.11C112.44,99.57,113.61,98,114.71,96.37Zm-7.58,66.21c-.06.23-.12.45-.17.69a3.66,3.66,0,0,0,.22,2.33,4.78,4.78,0,0,1-1.88,1.19C105.89,165.47,106.49,164.05,107.13,162.58ZM114,175.85c-2-1.15-5-.51-5.21,2.49h-.44c-.2,0-.42-.32-.66-.47-.1-.65-.2-1.28-.31-1.93a2.82,2.82,0,0,0-1.4-2.09,11.41,11.41,0,0,0,6-3.11c4.16-.66,6.92-3,9-6.23,0,0,0,0,0,0l-.28.43a3.06,3.06,0,0,0-.41,1c-.21.31-.41.63-.62.95a30.25,30.25,0,0,1-2.24,3l-.33.37c-.1.11-.19.23-.3.34h0c-.19.23-.38.45-.57.7a2.83,2.83,0,0,0-.13,3.32,2.77,2.77,0,0,0-1.15.5C114.58,175.39,114.27,175.59,114,175.85Zm39.16,2.9c-1.3-1.2-3.3-1.57-4.66.11A54.57,54.57,0,0,1,137.22,189a20.68,20.68,0,0,0-1.87,1.45,3.4,3.4,0,0,0-1-.71c-1.31-.61-6.24-1.84-9.58-3.39a3.24,3.24,0,0,0-1.74-.94l-.28-.18c0-.17-.07-.34-.11-.51a16.72,16.72,0,0,0-.64-3,3.59,3.59,0,0,0-.24-1.69,3.52,3.52,0,0,0,2.14-4c-.58-2.82,3.52-5.58,5.41-7l.4-.27c3.55-2.1,7.39-3.92,10.43-6.5a3,3,0,0,0,1-1.41,27.77,27.77,0,0,1,8.45-2.08,3.38,3.38,0,0,0,.88,2.86c4.21,4.69,4.2,10.88,2.85,16.93Z"/><path class="cls-2" d="M112.11,71.4c3-4.75,5.82-9.61,8.56-14.51a3.73,3.73,0,0,0,.43-.36,3.46,3.46,0,0,0,3.7-3.4V48.69a3.3,3.3,0,0,0-.92-2.29,3.29,3.29,0,0,0-2.83-2.33c-.1-.44-.22-1.08-.36-1.51v-.22h0s0,.16,0,.14a3.23,3.23,0,0,0-3.32-2.37c-.63-.77-1.3-1.47-2-2.2a3.22,3.22,0,0,0-2.81-.92,5.05,5.05,0,0,0-3.31-.74l-.25-.11-.14,0a19.18,19.18,0,0,0-6.8-1.65l-.23,0v0l-.35,0a2.93,2.93,0,0,0-3.3,2.46,6.62,6.62,0,0,0-5.33-3,9.18,9.18,0,0,0-7.27,2.77,8.3,8.3,0,0,0-4.82,3.62,3.48,3.48,0,0,0-4.24,2.46c-.07.41-.11.82-.16,1.22a3.12,3.12,0,0,0-1,.93,3.63,3.63,0,0,0-.75,2,15.48,15.48,0,0,0,.17,4.44v2.12a2.78,2.78,0,0,0,1.61,2.57A3.36,3.36,0,0,0,79,57.14s0,.06,0,.09a49.31,49.31,0,0,0,1.79,5A7.3,7.3,0,0,0,81,63a5.72,5.72,0,0,0,1.52,2.62c2,3.63,4.71,6.87,8.13,7.83a3.25,3.25,0,0,0-2.08,4.07c1.39,4.89,3.77,9.4,5.25,14.25v3.84a3.43,3.43,0,0,0,6.37,1.77c.56-.83,1.1-1.63,1.66-2.39a3.73,3.73,0,0,0,2-1.42c.63-.85,1.21-1.76,1.77-2.68a15.48,15.48,0,0,1,2.75-1.78A3.19,3.19,0,0,0,109.8,85c.16-.16.31-.32.47-.47a3.13,3.13,0,0,0,.91-1.49,3.13,3.13,0,0,0,.5-3.21,13.68,13.68,0,0,0-.51-7.35l0-.08A3.6,3.6,0,0,0,112.11,71.4Z"/><path class="cls-2" d="M58.48,196c.44,2,.9,4,1.37,6,0,5.89,3,10.93,7.39,14.85A3.7,3.7,0,0,0,72,217a4.25,4.25,0,0,0,.49-.21,3.73,3.73,0,0,0,2.61.32A3.53,3.53,0,0,0,77.55,213a3.43,3.43,0,0,0,0-1.46c-.89-3.78-3.3-7.06-6-9.79a3.16,3.16,0,0,0-3.21-.93l-.55-1.18-.3-.62c-.15-4.92-1.33-9.62-2.47-14.33-.08-.8-.16-1.61-.22-2.41a3.28,3.28,0,0,0,1.31-1.9c3.22-12.2.27-24.73.12-37.1a3.58,3.58,0,0,0-.34-1.52c.19-1,.37-2,.55-3,4.38-6.59,6-15,6.14-22.79a3.58,3.58,0,0,0-3.5-3.56h-.64l-.26,0a22.09,22.09,0,0,0-3.61-4,3.73,3.73,0,0,0-1.67-.82c-1-3.32-5.26-3.65-6.72-.17-1.27,3-1.4,6.35-1.42,9.64-2,6.4-1.26,16.2-1.24,19.85a1.36,1.36,0,0,0,0,.2,1.79,1.79,0,0,0,0,.23h0a3.28,3.28,0,0,0,1,2.11c0,1.92.09,3.83.14,5.75A2.84,2.84,0,0,0,53,147.4c-2.21,12.69-1.71,27,3.52,38.87,0,.07.07.12.1.18C56.18,189.69,57.1,192.84,58.48,196Z"/><path class="cls-2" d="M128.1,188c9,.28,15.5-7,20.16-13.79a2.86,2.86,0,0,0,.49-1.47,3.16,3.16,0,0,0,3-2.51,17.59,17.59,0,0,0,.23-2.12l.14-.18c1.58-2,1.21-5.11-1.55-5.85l-.21-.08a9.23,9.23,0,0,0-1.42-1.54,3.76,3.76,0,0,0-5.48.68,2.87,2.87,0,0,0-1.71,2.3,3,3,0,0,0-1.25,1.11,3.42,3.42,0,0,0-2.85,1,4,4,0,0,1-1.2.72,3.25,3.25,0,0,0-.8.59,24.83,24.83,0,0,0-8.79,6.94,3.52,3.52,0,0,0,1.95,5.87c-.84.6-1.68,1.21-2.51,1.84C123.63,183.5,124.39,187.89,128.1,188Z"/><path class="cls-2" d="M102.28,328a3.77,3.77,0,0,0-5.68-1.47c-.55-.29-1.09-.6-1.64-.95a3.45,3.45,0,0,0-5.27,2.83c0,.17,0,.35,0,.52a70.23,70.23,0,0,1-8.28,5.31,3.16,3.16,0,0,0-2.46-.12c-4.51,1.45-8.82,3.41-13.2,5.2-3.06.67-6,1.56-8,3.31-2.65,2.31.13,6.9,3.4,5.85.82-.27,1.64-.55,2.45-.84,1.77-.3,3.52-.68,5.26-1.12a1.21,1.21,0,0,0,0,.14c-.13.14-.25.29-.37.44a3.53,3.53,0,0,0,1.54,5.83c4.18,1.44,9-2,12.32-4.16a86,86,0,0,0,12.08-9.53,7.35,7.35,0,0,0,2.59-1,8.87,8.87,0,0,0,5-3.71C104.52,333.5,105.11,329.37,102.28,328ZM77.14,344.06l.43-.44.64-.26c-.34.25-.69.5-1,.74C77.16,344.09,77.15,344.08,77.14,344.06Z"/><path class="cls-2" d="M161.32,343.29a3.39,3.39,0,0,0-3.23-4.25H158a8.18,8.18,0,0,0-4.54-.63,4.87,4.87,0,0,0-1.49.41,67,67,0,0,0-7.2-3.74H145a3.33,3.33,0,0,0-2.53-.26,26.36,26.36,0,0,0-3.7-2,22.39,22.39,0,0,0-6.8-4.33,16.82,16.82,0,0,0-7.62-3.37l-.08-.05-.08-.12a3.57,3.57,0,0,0-5.72-.41l-.47-.06a3.47,3.47,0,0,0-3.38,2.57,9.61,9.61,0,0,0,2.17,8.49,2.63,2.63,0,0,0,2.42,1c8.5,6.8,18.31,13.62,29,16.36a3.55,3.55,0,0,0,4.43-3.38,10.31,10.31,0,0,0-.05-1.11,3.64,3.64,0,0,0,1.26-.7q1.58.75,3.24,1.38c2.31.87,4.23-1.31,4.43-3.37A8,8,0,0,0,161.32,343.29Z"/><path class="cls-3" d="M80.08,37.14c-6.75,11.1-4.82,26.44,5.58,34.76,9.5,7.61,20.54,7.07,29.18-1.41,7.48-7.34,11.61-20,6.38-29.67-3.3-6.11-10.72-8.94-17.24-9.58A36,36,0,0,0,93,32.3,55.63,55.63,0,0,0,87.18,34c-1.7.58-1.79,1.88-1.22.75.47-.95-1.48-.88-1.84-.17l-.48.69a.53.53,0,0,0-.09.67.71.71,0,0,1,.1.14c.25.41,1,.25,1.3.11,11.85-4.61,29.88-6.73,35.64,7.87,3.49,8.85-1.26,19.46-7.35,25.89-8.56,9.05-20.5,7-28.56-1.57C76.78,60,76,47,81.91,37.31c.54-.88-1.42-.84-1.83-.17Z"/><path class="cls-3" d="M82.26,36.84C83.4,36,84.51,35,85.62,34.12s9.55-3.36,4.55-2a40.1,40.1,0,0,0-8.24,3.34c-.74.4-.17.82.43.7,4.45-.84,7.75-4.22,12.14-5.05.54-.1,1.78-1,.54-1a13.94,13.94,0,0,0-7.55,2.28c-.47.31-.48.77.19.72,3.95-.27,7.25-1.62,10.87-3.19.53-.23.9-.87,0-.83a27.88,27.88,0,0,0-10.35,2.69c-.58.26-.88.78,0,.82a27.81,27.81,0,0,0,6.1-.54c1.3-.21,2.59-.42,3.9-.59,6-.77,2.24.6.27-.3l-1.17.93c3.86.07,7.39.62,10.61,2.9l1.51-.84A15.88,15.88,0,0,1,102.76,32a4.94,4.94,0,0,1,4,.23,8.71,8.71,0,0,1,3.62,2.35l1.5-.84c-2.15-.39-4-1.91-5.89-3l-1.38.91a14.32,14.32,0,0,1,9.81,4.94l1.5-.84c-7.52-1.88-12.49-8.68-20.21-10.11-.25-.05-1.85.22-1.57.74,1.94,3.59,7.68,2.26,10.92,1.73.57-.1,1.78-1,.54-1-5.94,0-11.85-.27-17.15,2.79-.56.33-.4.69.2.72,3.55.2,6.67-.86,10.1-1.59.6-.12,1.33-.92.28-.91-5.71.06-11.83.52-16.32,4.43-.28.24-.25.54.16.59A16.74,16.74,0,0,0,94.4,30.77c.49-.33,0-.61-.37-.6A15.17,15.17,0,0,0,86,31.94c-.31.19-.61.67,0,.71,7.66.58,16.69-5.43,23,.89l1-.83a12.45,12.45,0,0,1-8.85-2.41l-.79.78c4.39-1.32,10.09,0,12.63,4l1.68-.79c-4.54-1.34-7.67-4.93-11.5-7.51l-1.29.85c6.27-.13,10.22,3.6,14.15,8l1.29-.85c-6.28.33-4.75-2.94-1.93-.29a10.18,10.18,0,0,1,2.59,5.08l1.87-.62a48.15,48.15,0,0,1-3.47-6l-1.87.61c1.39,2,2.65,4.08,4,6.07l1.81-.72c-6.16-7.52-12.15-9.82-21.7-10.37-6.77-.4-16.29,0-20.54,6.19-.49.72,1.24.35,1.48.22,1.19-.66,2.35-1.36,3.54-2l-1.48-.22-1.51,1.52c-.58.57,1.23.36,1.47.22l2.53-1.52-1.48-.22A16.64,16.64,0,0,0,79,38.38c-.25.69,1.55.09,1.73,0a12.33,12.33,0,0,0,3.16-3.16l-1.78,0a12.6,12.6,0,0,1-2.91,3.41l1.66.1c4.56-4.54,12.08-5.31,18-3.59.54.15,2.28-.67,1.56-.87-7.1-2-16-.88-21.38,4.49-.56.55,1.33.35,1.65.1a14.1,14.1,0,0,0,3.16-3.67c.46-.7-1.47-.39-1.78,0a8.71,8.71,0,0,1-2.91,2.91l1.73,0a14.92,14.92,0,0,1,3.47-5.43c.56-.62-1.25-.36-1.48-.22L80.41,34l1.48.21,1.51-1.51c.59-.59-1.25-.35-1.47-.22-1.19.66-2.35,1.36-3.54,2l1.48.22c4.37-6.42,14.39-5.43,21.2-5,7.7.52,12.69,4.08,17.44,9.89.37.45,2.21-.15,1.81-.72-1.39-2-2.65-4.07-4-6.07-.3-.43-2.11.15-1.86.62a50.66,50.66,0,0,0,3.6,6.17c.29.42,2,0,1.87-.62-1.07-4.33-4.24-8.37-8.92-6.64-.23.08-.79.38-.53.69a6.49,6.49,0,0,0,6.07,2.66c.24,0,1.75-.35,1.29-.85-4.28-4.76-8.5-8.36-15.17-8.22-.17,0-1.84.48-1.29.85,3.93,2.65,7.09,6.28,11.75,7.66.37.11,2.1-.13,1.68-.8-2.94-4.65-9.74-5.57-14.67-4.1-.13,0-1.21.48-.79.78a15.12,15.12,0,0,0,10.36,2.64c.23,0,1.47-.42,1-.84-2.56-2.58-5.27-3.38-8.86-3.27a25.23,25.23,0,0,0-4.58.71c-1.76.4-3.51.81-5.27,1.16-4.82,1,4.86-1.75-2,.48a5.5,5.5,0,0,1-4.78.07c2.09-1.82,5.28-2.25,7.92-2.6l2.52-.19c1,.41,1.51.2,1.39-.64-.7.15-6.79,1.19-3.76.25,3.2-1,6.84-.72,10.16-.68l1.05-.81c-.69.11-1.39.21-2.09.29-2.14.26-5.07.53-6.3-1.74l-1.57.74c7.65,1.42,12.69,8.23,20.22,10.11.3.07,2-.33,1.5-.84a15.24,15.24,0,0,0-10.4-5.18c-.32,0-2.19.45-1.38.92,2.16,1.25,3.78,2.63,6.23,3.07.28,0,2-.32,1.51-.84a11.27,11.27,0,0,0-11.88-2.5c-.31.12-.89.49-.41.77,2.69,1.6,5.11,2.83,8.26,3.08.21,0,2.08-.43,1.5-.84-3.5-2.49-7.41-3.08-11.63-3.16-.28,0-1.95.57-1.17.92,2.92,1.33,5.54,1.8,8.44.3.13-.06.59-.4.32-.59A9.21,9.21,0,0,0,100,30.46a31.49,31.49,0,0,0-4.09.5l-2.58.43c-.43.07-4.37,1.12-2.81.4a43,43,0,0,1,5.59-1.73,2,2,0,0,1-2.62.38,11.06,11.06,0,0,0-3.18,1.21c-1.86,1-3.63,2.17-5.57,3.06,2.7-1.24,6.11-1.88,9-2.62.37-.1,1.37-.73.49-.9-5.83-1.14-9.13,2-13.5,5.42-.84.66,1.1.56,1.52.23Z"/><path class="cls-3" d="M83.88,32.57c-3.55,0-4.45,2.06-5.82,5.1l1.83.13c.52-1.18,1-2.37,1.51-3.54.4-.89-1.13-.7-1.53-.42-2.37,1.68-3.15,3.64-3.38,6.52-.08.92,1.6.46,1.88,0a27.43,27.43,0,0,0,2.08-4.71c.27-.76-1.63-.54-1.88,0a10.46,10.46,0,0,1-2.41,3.89l1.7.28c8.29-13.61,29.94-13.49,40.66-2.7l1.65-.91a22.16,22.16,0,0,1-5.93-5.45l-1.65.91c4.75,2.29,9.41,6,9.39,11.72,0,.91,1.94.55,2-.19,0-6.09-4.7-10.08-9.82-12.55-.46-.22-2.25.17-1.65.91a23.1,23.1,0,0,0,6.2,5.67c.47.28,2.27-.28,1.65-.91C108.57,24.51,85,24.91,76,39.69c-.52.86,1.33.72,1.7.28a15.64,15.64,0,0,0,2.65-4.2l-1.88,0a16.2,16.2,0,0,1-2,4.39l1.88,0a6.87,6.87,0,0,1,2.68-5.61l-1.53-.42c-.52,1.18-1,2.37-1.52,3.54-.41.94,1.53.79,1.83.13.62-1.4,1.2-4,3.28-4,.82,0,2-1.22.71-1.23Z"/><path class="cls-3" d="M77.35,42.44c-.76-1-3-.23-3.93.24-1.6.84-1.44,2.73-1.5,4.31-.17,4-.71,10.17,3.75,11.88.48.19,2.24-.56,1.56-.82-3-1.18-3.06-4-3.28-6.89a45.69,45.69,0,0,1-.1-4.68c0,.12.33-5.18,1.69-3.34.32.43,2.18-.2,1.81-.7Z"/><path class="cls-3" d="M122.88,44.39c1.33-.62,1.91,5.32,1.92,5.82.06,2.08-.18,5.54-2.28,6.64-1.17.61-.12,1.71.87,1.19,3.37-1.76,3.56-6.38,3.27-9.7-.22-2.39-1.41-6.65-4.65-5.13-1.19.56-.13,1.66.87,1.18Z"/><path class="cls-3" d="M105.12,50.53a20.56,20.56,0,0,0,3.4-.53c1.22-.25,3.13-.91,4.26-.13,0-.33.07-.66.11-1l-.06,0c-1.14.42-.82,1.73.35,1.3a3,3,0,0,0,1-.48c.31-.25.51-.7.1-1-2.5-1.73-6.27.29-9,.38-1.09,0-1.49,1.43-.17,1.39Z"/><path class="cls-3" d="M105.35,50.88c3.31-.88,6.77,1.15,10.13-.08,1.26-.47.12-1.22-.79-.89-1.62.6-3.85,0-5.52-.21a10.93,10.93,0,0,0-4.11.13c-1.17.31-.88,1.37.29,1.05Z"/><path class="cls-3" d="M109.5,50.34h2.35a1.6,1.6,0,0,0,1.27-.49c.27-.38-.22-.51-.51-.51h-2.34a1.58,1.58,0,0,0-1.28.49c-.27.37.22.51.51.51H110a1.61,1.61,0,0,0,1.27-.49c.27-.38-.22-.51-.51-.51h-2.35c-.31,0-2,.66-1.15,1.1a4.23,4.23,0,0,0,1.48.75c.33-.34.65-.85,1-.85h-1.31c-.25,0-.5.58-.76.93a7.4,7.4,0,0,0,3.84-.84c.39-.23.54-.69,0-.82a8.58,8.58,0,0,0-3.84,0c-.23.05-1.34.68-.65.91a4.34,4.34,0,0,0,3.71-.19c.43-.24.51-.64,0-.79a4.56,4.56,0,0,0-3,.14c-.59.23-.86.9,0,.9a13.47,13.47,0,0,1,2.91.25A1.78,1.78,0,0,0,112,50.5c.31-.27.21-.57-.18-.66a15.54,15.54,0,0,0-3.34-.28c0,.31.13.61.13.91.33-.13.23,0,1.23.13v-.78c0,.13-.9-.12-1.1-.18-.22.3-.26.61-.48.92a6.1,6.1,0,0,1,2.58,0v-.78a5.35,5.35,0,0,1-2.12.26,2,2,0,0,0-1.4.62c-.26.37.11.64.4.64H109a1.91,1.91,0,0,0,1.15-.49c.28-.24.24-.66-.18-.7s-.74-.43-1.12-.63c-.39.33-.77.82-1.16.82H110a1.61,1.61,0,0,0,1.27-.49c.27-.38-.22-.51-.51-.51h-.52a1.58,1.58,0,0,0-1.28.49c-.27.37.22.51.51.51h2.35a1.6,1.6,0,0,0,1.27-.49c.27-.38-.22-.51-.51-.51h-2.34a1.58,1.58,0,0,0-1.28.49c-.27.37.22.51.51.51Z"/><path class="cls-3" d="M93.84,49.85c-3.49-1-7.11-1-10.67-1.41-.33.34-.65.9-1,.9h.52c.68,0,2.07-1,.77-1H83c-.45,0-2.07,1-1,1.11,3.56.46,7.19.38,10.67,1.35.57.16,2.27-.65,1.2-.95Z"/><path class="cls-3" d="M92.8,50.14c-1.44.08-2.82.45-4.26.56a10.28,10.28,0,0,1-4.11-.9,4.42,4.42,0,0,0-.63,1.54h.78c1.12,0,1.46-2,.15-2H84c-.69,0-1.62,1.2-.63,1.55a18.61,18.61,0,0,0,4.24,1.2c1.73.17,3.37-.41,5.08-.51,1.11-.07,1.47-1.52.16-1.44Z"/><path class="cls-3" d="M91.51,50.34H87.87c-.24,1-.47.91-.71,1.32a14.66,14.66,0,0,0,3.37-.27c.47-.11,1.33-.92.42-1.12A14.93,14.93,0,0,0,87.61,50a1.58,1.58,0,0,0-1.14.4c-.2.2-.3.59,0,.73a6.31,6.31,0,0,0,2.48.37c.38,0,1.75-.37,1.25-1a3.43,3.43,0,0,0-2.88-1,1.58,1.58,0,0,0-1.14.4.44.44,0,0,0,.21.79,9.92,9.92,0,0,0,2.82.3,1.62,1.62,0,0,0,1.15-.4c.19-.2.29-.58,0-.72a3.83,3.83,0,0,0-1.7-.37,1.58,1.58,0,0,0-1.14.4c-.32.32-.19.66.21.79a9.38,9.38,0,0,0,2.56.56,1.42,1.42,0,0,0,1.27-.56c.23-.4-.2-.66-.56-.67a7.43,7.43,0,0,1-2.12-.49l-.93,1.2a2,2,0,0,1,.9.15L90,49.74a8.3,8.3,0,0,1-2.38-.23l-.93,1.2a2,2,0,0,1,1.8.56l1.25-1A4.74,4.74,0,0,1,88,50.11L86.9,51.23a13.46,13.46,0,0,1,2.9.22c.14-.38.28-.76.43-1.14a10.37,10.37,0,0,1-2.36.21c-.45,0-1-.08-1.26.35s.19.47.55.47H90.8c.45,0,1,0,1.27-.44s-.2-.56-.56-.56Z"/><path class="cls-3" d="M85.35,50.29a21.79,21.79,0,0,1,6.55.46c.84.26,2.28-1,1.11-1.32-2.46-.74-5-.59-7.49-.58-1.11,0-1.48,1.45-.17,1.44Z"/><path class="cls-3" d="M94.57,46a55.7,55.7,0,0,0-9.33-1.62c-1-.09-1.95,1.37-.65,1.48a53.33,53.33,0,0,1,8.88,1.51c.89.23,2.28-1.06,1.1-1.37Z"/><path class="cls-3" d="M105.4,46.37c0,.26-.39.27.16.14a9.49,9.49,0,0,1,1.19-.18c.84-.09,1.68-.13,2.53-.17,1.29-.06,2.59-.07,3.89-.07,1.08,0,1.5-1.36.19-1.36s-10-.56-9.91,1.8c0,1,2,.66,2-.16Z"/><path class="cls-3" d="M92.09,64.29a7.79,7.79,0,0,0,2.5-.29c1.58-.4,2.4,0,3.93,0a6.91,6.91,0,0,0,2.59-.38c1.51-.51,3.93.53,5.55.62.43,0,2.22-.77,1.25-.82-2.37-.12-4.65-1.22-7-.45-1.44.48-2.25-.38-3.56-.35s-2.69.84-4,.8c-.42,0-2.21.79-1.25.82Z"/><path class="cls-3" d="M91.55,64.75c3,2.61,9.51,1.38,13,.31,1.12-.35.92-1.15-.21-.8-2.92.91-8.41,2-11-.22-.46-.39-2.23.35-1.81.71Z"/><path class="cls-3" d="M92.33,65.26a11.1,11.1,0,0,0,11.88,1.65c1.14-.61-.64-.6-1.13-.33-2.67,1.41-6.86-.09-8.94-2-.4-.37-2.17.35-1.81.68Z"/><path class="cls-3" d="M97,57l-.08,0-1.52.76c-.33,0,0,.06.15.1l.72.29a3.92,3.92,0,0,0,1.28.23c.34-.28.69,0,1-1H96.51a2,2,0,0,0-1.29.55c-.32.33.27.45.47.45h1.56a2,2,0,0,0,1.29-.56c.32-.33-.28-.44-.47-.44H96.51a2,2,0,0,0-1.29.55c-.32.33.27.45.47.45h2.08a2.09,2.09,0,0,0,1.16-.25c.31-.21.24-.39-.13-.42.23,0,0,0,0,0l-.26-.07-.76-.29a4.07,4.07,0,0,0-1.12-.41c-.23,0-2,.34-1.52.76a.18.18,0,0,0,.07,0,1.65,1.65,0,0,0,1.25-.08c.08,0,.91-.43.57-.6Z"/><path class="cls-3" d="M101.1,57.32h.14c.13.1.56.21.56.31h0c0,.15-.29.31-.35.47-.4.35-.23.11,0,0A2.06,2.06,0,0,1,102,58c.08-.4.13-.8.21-1.21a6.53,6.53,0,0,0-.66.1c-.12,0-.8.21-.4.16a1.43,1.43,0,0,0-1,.55c-.22.39.2.67.55.67a13,13,0,0,0,3.11-.32c.32-.07.93-.39.82-.81s-.8-.37-1.12-.3a9.15,9.15,0,0,1-2.09.21c-.16.4-.31.81-.47,1.21.36-.05.69-.23,1-.26s1-.27,1.08-.7-.55-.52-.85-.51c-.69,0-2.72.44-2.67,1.38,0,.16.25.3.38.32h0a1.58,1.58,0,0,0,1.37-.36.44.44,0,0,0-.21-.79Z"/><path class="cls-3" d="M88.65,74c-2.14,5-8.3,5.47-13,6.84a49.35,49.35,0,0,0-9.21,3.46c-6.31,3.3-11.72,9-12.68,16.3,0,.17,1.85,0,1.93-.51C57.17,88.91,67.58,83.7,77.24,80.89c5.24-1.53,10.92-1.74,13.31-7.31.1-.25-1.7-.1-1.9.37Z"/><path class="cls-3" d="M56.53,102.25c8.45,2.87,12.3,13.58,21,15.4.42.09,1.32-.23,1.31-.78-.08-4-3-8.51-4.78-12.06-.38-.77-2.22-.06-1.76.85,1.53,3.13,4.51,7.78,4.58,11.36l1.31-.78c-4.29-.9-7-4.81-10-7.66-3.18-3-6.35-6.2-10.59-7.64-.83-.28-2.28.92-1.11,1.31Z"/><path class="cls-3" d="M66.52,97.17c.74,2.11,2.65,3.52,4.22,5a49.45,49.45,0,0,1,6.51,7.58c.31.45,2.18-.16,1.8-.7a69.63,69.63,0,0,0-5.72-6.77c-1.63-1.82-4-3.23-4.88-5.62-.2-.58-2.11,0-1.93.51Z"/><path class="cls-3" d="M77.3,101.34a22.32,22.32,0,0,1-2.6-9.11l-1.88.6c2.25,2.88,3.31,6.55,6,9.1.33.32,1.91-.07,1.88-.59-.05-.88-.22-1.73-.26-2.6,0-.41-2-.06-1.93.51,0,.88.21,1.73.26,2.6l1.87-.59c-2.66-2.55-3.74-6.24-6-9.11-.29-.36-1.89.11-1.88.6a22.59,22.59,0,0,0,2.6,9.1c.26.52,2.12-.14,1.94-.51Z"/><path class="cls-3" d="M88.37,83.91c3.4,6.3,3.46,13.7,6.76,20,.36.68,2.24.06,1.93-.52-3.3-6.33-3.35-13.73-6.76-20-.37-.68-2.24-.06-1.93.52Z"/><path class="cls-3" d="M110.48,73.24a10.23,10.23,0,0,0,4.62,4.62c.55.26,2.32-.55,1.54-.91a9.46,9.46,0,0,1-4.23-4.23c-.36-.63-2.21,0-1.93.52Z"/><path class="cls-3" d="M56.44,102.19C55,113,51.26,123,52,134.09c.71,10.36-1.06,20.38-1,30.74.06,9.66,1.4,19.84,4.78,28.92.9,2.43,2.14,4.58,2.78,7.12a55.72,55.72,0,0,1,.94,8.25c.5,5,3.77,8.25,6.38,12.3.35.54,2.15-.18,1.93-.51-2.26-3.52-5.09-6.52-6.15-10.67-.67-2.62-.56-5.56-.88-8.24a24.56,24.56,0,0,0-2.58-7.58c-3.81-8.22-4.66-18.15-5.2-27.08-.58-9.59,1.77-18.89,1.31-28.41-.32-6.64-.84-12.77.41-19.39,1.11-5.92,2.81-11.67,3.6-17.66.07-.59-1.85-.22-1.92.31Z"/><path class="cls-3" d="M66,188.33a59.2,59.2,0,0,0,2.42,9.93c1.08,2.92,3.53,4.85,5.6,7.05a33.13,33.13,0,0,1,7.16,11.47c1.39,3.78-2.35-1.56-2.61-2.35a5.84,5.84,0,0,0-1.9-3c-.5-.47-2.32.27-1.79.75,2,1.82,2.48,7,5.84,7.31,1.35.12,3-.56,2.61-2.29-1.22-5.33-4.86-9.84-8.52-13.72-4.53-4.81-5.68-9.25-6.88-15.67-.13-.67-2.07-.19-1.93.52Z"/><path class="cls-3" d="M74.72,212.85c1.47,4.68,4,8.9,5.84,13.43l1-1c-1.41.2-3.84-3.67-4.56-4.62-1.1-1.44-2.16-2.94-3.11-4.48-.46-.74-2.3,0-1.77.85a58.15,58.15,0,0,0,4.53,6.28c1.06,1.28,2.81,3.65,4.74,3.39.38-.06,1.28-.4,1-1-1.82-4.53-4.37-8.75-5.84-13.42-.28-.89-2.2-.36-1.93.51Z"/><path class="cls-3" d="M66.39,222c1.31,1.33,1.18,3.43,2.7,4.5,1.14.8,2.94.9,4.27,1.16.34.07,1.93-.25,1.51-.84-1.7-2.36-4.84-4.7-5.42-7.67l-1.87.62,3,2.9A26.76,26.76,0,0,1,74.39,228c.36.59,1.66.09,1.92-.4.68-1.26-.56-3.15-1.13-4.22-.93-1.75-2.15-3.35-3-5.15l-1.87.62c2.73,2.33,3.46,6.68,6.49,8.72a1.52,1.52,0,0,0,1.87-.5c.16-.39.41-.73.58-1.13s-1.67-.3-1.92.28c-.17.39-.42.74-.59,1.13l1.87-.5c-3-2-3.77-6.39-6.49-8.72-.35-.29-2.13.07-1.87.62.7,1.48,1.67,2.85,2.49,4.26.65,1.11,2.36,3.53,1.64,4.87l1.93-.4a25.33,25.33,0,0,0-3.45-5L69.38,219c-.36-.35-2,0-1.87.62.61,3.06,3.81,5.44,5.56,7.88l1.5-.84c-1.41-.28-3.23-.39-4.29-1.44a4.52,4.52,0,0,1-.71-1.87,5.05,5.05,0,0,0-1.37-2.12c-.43-.43-2.25.27-1.81.72Z"/><path class="cls-3" d="M73.94,118.06c-1.5,10.67-8.09,20.22-7,31.26a111.46,111.46,0,0,1-.21,19.76c-.22,2.86,0,5.69,0,8.54-.09,3.54-.79,7-.68,10.53,0,1,2,.71,2-.15-.37-11.25,2.19-22.63,1.42-33.87-.51-7.37-.55-12.94,1.83-20,1.83-5.39,3.91-10.54,4.71-16.21.14-1-1.83-.72-2,.15Z"/><path class="cls-3" d="M112.34,74.16c.18,5.5,9.89,8.67,14,10.45,7.82,3.43,13.22,7.19,16.6,15.34,3.09,7.44,3.73,15.79,5.07,23.66,1.89,11.1,5.82,21.9,9.67,32.44.21.58,2.12,0,1.93-.52-3.86-10.57-7.69-21.33-9.67-32.44-1.42-8-2.18-16-5.07-23.66-2.62-6.91-7.35-11.18-13.88-14.31-4.58-2.2-16.46-5.23-16.66-11.47,0-.49-2-.14-1.94.51Z"/><path class="cls-3" d="M112.8,74.16c1,2.53,1.71,4.24.56,6.85s-3.27,4.77-5.08,6.86c-4.4,5.08-8.45,10.42-12.62,15.69a57.83,57.83,0,0,1-13,12.33c-2,1.41-6.33,3.33-7.41,5.75-.18.4,1.68.21,1.91-.32.61-1.35,3-2.54,4.19-3.37,2.07-1.46,4.17-2.86,6.25-4.31,4.78-3.33,8.37-8.36,11.92-12.91,3.92-5,7.93-9.92,12-14.79a26.3,26.3,0,0,0,4.1-6.24c.94-2.13-.24-4.07-1-6-.19-.52-2.09.07-1.93.51Z"/><path class="cls-3" d="M114.63,74.62c3,10.84-3.88,19-11.37,25.84S89,114.35,81.42,120.84c-.82.71.78.76,1.17.61,3.92-1.51,7-4.59,10.28-7.09q5.47-4.14,10.58-8.75a54.22,54.22,0,0,0,14.49-20.84L116,85c-2.61,10.4-8.67,19.31-13.66,28.67-.48.9,1.35.52,1.69.22a77.38,77.38,0,0,0,17-22.56c.44-.86-1.51-.67-1.81-.08a75.92,75.92,0,0,1-16.8,22.27l1.68.22c5-9.45,11.15-18.46,13.79-29,.2-.81-1.7-.36-1.94.23a52,52,0,0,1-12.85,19.07c-2.86,2.74-5.91,5.26-9,7.72-3.61,2.88-8,7.14-12.34,8.81l1.17.61c8.78-7.52,17-15.72,25.36-23.63,6.42-6,10.67-14.54,8.22-23.48-.19-.71-2.12-.19-1.93.52Z"/><path class="cls-3" d="M122,82.93a19.11,19.11,0,0,0-.77,4.83,47.29,47.29,0,0,1-3,10.46c-2.49,6.48-6.11,12.51-9.46,18.57-.5.91,1.14.91,1.58.58,6.91-5.34,10.42-13.68,14-21.39l-1.91,0c0,12.62-8.42,23-14.12,33.67-.53,1,1.44,1,1.85.24,5.76-10.75,14.28-21.28,14.24-34,0-1-1.59-.74-1.91-.06-3.45,7.42-6.79,15.57-13.44,20.71l1.57.58A185.06,185.06,0,0,0,120,98.46a56.76,56.76,0,0,0,2.61-8.31c.54-2.2.35-4.91,1.2-7,.44-1.05-1.51-1.06-1.85-.25Z"/><path class="cls-3" d="M69.79,138c-.91,3.29,2.91,7.53.33,10-.37.35-.5.91.09,1.13l1.11,1.77a.59.59,0,0,0-.06.74c.92.94-1,6.91-1,8.32a23.42,23.42,0,0,0,.13,4.81c.2,1.12,1.69,3.91,1.57,5-.46,4.21,5.41,2.61,7,1,.84-.91-1-1.28-1.63-.61-1.77,1.91-4.5-3.89-4.68-4.36-1-2.44-.42-6.29-.19-8.87.19-2.13,1.24-2.38,1.87-3.88.49-1.18-1.42-1.39,0-2.87a.58.58,0,0,0-.07-.88,10.33,10.33,0,0,0-2.93-1.47l.09,1.14c3.83-3.65-.86-6.72.34-11.06.26-.95-1.72-.74-2,.14Z"/><path class="cls-3" d="M72.69,155.92c5.88.25,16-5.12,16.43-11.67,0-.35-.31-.47-.61-.48-2-.09-3.38,1.11-4.71,2.41-1,1-2,2.16-3,3.21-1.92,2-5.49,2.53-8.13,2.62l.66.77a68.75,68.75,0,0,1,9-6.27c1.13-.66-.55-1-1.22-.65a72.67,72.67,0,0,0-9.33,6.54c-.61.5.26.78.67.77a19.87,19.87,0,0,0,9-2.54c2-1.11,3.84-5.8,6.34-5.69l-.6-.48c-.37,5.47-8.75,10.5-13.76,10.29-.78,0-2,1.11-.73,1.17Z"/><path class="cls-3" d="M73.63,148.22c5-2.41,8-6.91,11.75-10.76.49-.5-1.41-.31-1.78.06-3.56,3.64-6.41,8-11.12,10.29-1.16.56.62.67,1.15.41Z"/><path class="cls-3" d="M74.73,168.6c3.66.41,7-1.91,9.27-4.6.52-.62-1.23-.32-1.46-.18a24.17,24.17,0,0,0-6.25,5.72c-.2.26,0,.4.27.43,3.2.39,5.81-2.06,7.9-4.14.5-.5-1.4-.32-1.77.06-1.18,1.17-3.07,3.4-4.91,3.17.09.14.19.28.28.43a21.73,21.73,0,0,1,5.64-5.26l-1.47-.17c-1.5,1.79-3.75,3.91-6.28,3.63-.5-.06-2.25.79-1.22.91Z"/><path class="cls-3" d="M131.12,109.31c-5.18,19.12-7.65,44.38-26.78,55.17l1.69-.18c1.19-6.16,10.16-10.29,14.68-13.88,6.48-5.17,11.29-13.72,14.14-21.34.11-.3-1.73-.12-1.9.36-3.12,8.36-8.41,16.93-15.58,22.4-4.25,3.23-12.12,7-13.24,12.82-.1.49,1.5-.07,1.68-.17,19.41-10.94,22-36.11,27.21-55.54.09-.35-1.78-.1-1.9.36Z"/><path class="cls-3" d="M135.39,123.08l.92-.46-1.55,0c.15,6.26-3.71,12.67-5.76,18.48a86,86,0,0,1-10.17,20.16c-.46.66,1.46.43,1.77,0a91.66,91.66,0,0,0,10.32-20.41c2.16-5.86,5.92-12.37,5.77-18.72,0-.53-1.37-.06-1.55,0l-.91.46c-1.16.57.6.73,1.16.45Z"/><path class="cls-3" d="M74,174.42a9.88,9.88,0,0,0,9.37,1.21c1.67-.64,7.08-4,7.86-1.2.45,1.64,3,2.16,4.39,2.32a14.31,14.31,0,0,0,5.4-1c4.2-1.27,7.84-.85,11.91-1.63,4.81-.91,7.76-5.83,11.35-8.66.25-.2-.07-.14-.25-.14h-1.37c-.4,0-2.2.61-1.26.61-.11,0-3.71,4.18-4.25,4.72-3,3.1-7.38,2.88-11.34,3.21-4.27.35-11.59,5-12.55-1.4a.2.2,0,0,0-.17-.12c-6.18-1.79-10.83,6.1-17.27,1.41-.43-.32-2.08.45-1.82.65Z"/><path class="cls-3" d="M73,171.45a3.69,3.69,0,0,0,.12,1.24,1.88,1.88,0,0,0,1,1,1.45,1.45,0,0,0,1.38-.16c.28-.18.56-.61.14-.83-.63-.34-.7-.75-.7-1.44,0-.88-1.94-.5-1.94.21Z"/><path class="cls-3" d="M137.67,163.88c-3.8.56-6.28,2.7-8.61,5.63-1.8,2.26-4,5-5,7.7-.91,2.48,2.61,2.26,4,1.88,3.83-1,5.49-6,8.94-7.74,1.19-.6.1-1.38-.8-.93a16.51,16.51,0,0,0-4.62,3.92c-.82.91-1.64,1.82-2.53,2.68-1.42,1.37-3.86,1.71-2.76-.69.66-1.44,1.77-2.63,2.53-4,1.73-3.15,4.91-6.69,8.58-7.23,1-.14,1.56-1.39.23-1.2Z"/><path class="cls-3" d="M136.77,164.75c2.46.4,4.18-.89,6.25-2,1.17-.61.12-1.7-.87-1.19-1.53.8-2.89,2-4.72,1.7-1-.16-2,1.24-.66,1.45Z"/><path class="cls-3" d="M136.59,170.55c-1.05,3.66-4.38,6.24-7.41,8.28-1.09.73.58,1,1.2.58,3.33-2.24,7-5.07,8.14-9.1.2-.7-1.74-.42-1.93.24Z"/><path class="cls-3" d="M128.3,179.42c-2.47,1.23-4.74,1.39-6.72,3.41-.09.1-.12.19,0,.29,4.93,5.27,14.8-4.86,18.86-7,1.14-.61-.64-.58-1.13-.32a85.48,85.48,0,0,0-7.22,4.89c-1.89,1.27-4.68,3.27-7.1,2.85-3.82-.67,3.18-3.11,4.47-3.76s-.64-.57-1.13-.32Z"/><path class="cls-3" d="M123.39,185c5.83,6.1,14.39-4.34,19.59-6.36,1.25-.48.12-1.22-.78-.87-4.41,1.71-12.47,11.21-17,6.45-.49-.52-2.33.21-1.79.78Z"/><path class="cls-3" d="M128.07,187.27c2.77.41,4.76-1.18,7.28-1.9.16-.05,1-.26.88-.56s-.88-.09-1,0c-1.77.5-3.66,2-5.53,1.75a2.53,2.53,0,0,0-1.35.25c-.13.06-.69.44-.24.5Z"/><path class="cls-3" d="M132.45,187.64c6.21.11,9.86-4.4,14.5-7.85s7.73-8.72,7.6-14.46c0-1.05-2-.79-2,.13.13,5.55-2.78,9.94-6.93,13.38-3.84,3.18-7.73,7.4-13.06,7.31-1.13,0-1.46,1.47-.15,1.49Z"/><path class="cls-3" d="M140.64,162c10-4.23,14.54,3.07,13.09,12a52.12,52.12,0,0,1-2.86,9.28,62,62,0,0,0-2.75,11.76,205.42,205.42,0,0,0-1.64,21c-.36,7.35,0,14.56,2.92,21.39.22.5,2.1-.14,1.93-.52-3.68-8.51-3.11-17.47-2.65-26.52.53-10.51,1.66-20.54,5.18-30.48,2-5.71,4.29-14.1-1.16-18.62-3.42-2.84-9.13-1.37-12.74.15-1.26.54-.07.81.68.49Z"/><path class="cls-3" d="M128.36,188.85a151.18,151.18,0,0,1-6.53,32.1c-1.6,5.25-3.3,10.18-3.71,15.7a85,85,0,0,0,.36,11.51c.21,3.31.27,12.43,5.44,12.49,2.83,0,5.23-1.35,7.73-2.56,3.89-1.88,8.33-1.71,12-4.11,1.09-.72-.58-1-1.2-.58-3.09,2-6.94,2.08-10.32,3.33-3.66,1.35-8.21,4.78-10.43-.6-2.09-5-1.72-12.68-1.71-18,0-8.47,3.58-16.45,5.83-24.5a131.35,131.35,0,0,0,4.47-25c.06-.8-1.88-.42-1.93.24Z"/><path class="cls-3" d="M141.51,156.65c4.1-.79,8.25-1.9,12.43-1.08,4.89,1,7.41,6.39,8.73,10.65,2.53,8.18-1.15,17.35-3.53,25.13a131.3,131.3,0,0,0-4.25,18.38c-.71,4.63-1,10.26,2.8,13.65.42.37,2.18-.36,1.82-.68-5.39-4.85-2.73-14.29-1.31-20.34,1.89-8.06,4.64-15.89,6.38-24,1.66-7.69.67-16.63-5.63-22-4.49-3.83-12.08-1.52-17.11-.54-.8.15-1.68,1.06-.33.8Z"/><path class="cls-3" d="M152.51,159.05c9.16,1.91,7.45,16.24,7.41,23.08l1.93-.52c-.06-7.49-.84-14.94-.91-22.42l-1.93.52a30.85,30.85,0,0,1,1.83,5c.17.65,2.1.13,1.93-.52a31.19,31.19,0,0,0-1.83-5c-.3-.64-1.94-.16-1.93.52.06,7.48.85,14.93.91,22.42,0,.57,1.93.2,1.93-.52.05-7.51,1.69-21.53-8.14-23.58-.59-.13-2.28.79-1.2,1Z"/><path class="cls-3" d="M157.4,223.62c3.32,1.9,1.6,10.69,1.18,13.87a89.33,89.33,0,0,0-1.05,10.45c0,2.88.91,5.66,1,8.56l1.53-.75-.91-.46a1.25,1.25,0,0,0-1.2.21l-.45.23c-1.15.42-.8,1.84.37,1.41,1.56-.57.34-.4,1.09,0,.48.24,1.56-.1,1.54-.74-.12-3.46-1-6.81-1-10.27.06-4.29,1.35-8.48,1.45-12.76.07-3.08,1.19-9-2.09-10.88-.78-.45-2.45.6-1.48,1.16Z"/><path class="cls-3" d="M71.52,175.16c-1.32,5-1.38,10.28-2.56,15.35-.16.69,1.78.39,1.93-.25,1.18-5.07,1.24-10.32,2.56-15.35.18-.68-1.76-.39-1.93.25Z"/><path class="cls-3" d="M71.51,164.23c-1.11,3.87-.27,8-.92,11.92-.74,4.48-2.56,8.38-2.28,13,.06,1,2,.71,2-.15-.28-4.56,1.28-8.65,2.28-13,.91-4-.21-8,.92-11.91.26-.92-1.72-.7-2,.14Z"/><path class="cls-3" d="M60,218.61c-2,17.62-6.46,34.8-10,52.14a252,252,0,0,0-4.13,26.07c-.65,6.41-1.6,13.88.09,20.21,3.07,11.51,22.38,7.61,30.6,7a78.2,78.2,0,0,1,13.34-.18c4,.35,7.65,2,11.53,2.68a17.41,17.41,0,0,0,6.15,0c4.12-.77,11.57-5.54,15.37-2.6.6.47,2.34-.4,1.51-1-3.94-3.06-7.57-1.27-11.57.79-8,4.11-15.83-.59-23.92-1.3-6.88-.61-13.88.56-20.74.95-7.25.4-17.22,1.38-20.34-6.82-2.15-5.62-.59-14.05-.08-19.88a237.2,237.2,0,0,1,4.14-26.07c3.52-17.36,8-34.51,10.05-52.13.1-.91-1.86-.6-2,.18Z"/><path class="cls-3" d="M161.46,286.08c0,5.56.56,11.11,1,16.64.49,5.69,2.27,12.61,1.22,18.27a24.36,24.36,0,0,0-4.46-.4c-1.82,0-4,.89-5.46-.41a2.69,2.69,0,0,0-1.24-.67c-2.57-.39-5.1.39-7.58,1s-4.65,1.23-7,1.81a46.82,46.82,0,0,1-5,.95c-2.62,1.06-3.13,1-1.55-.31.81-.81-1.09-.83-1.56-.36l-1.28,1.28c-.38.38-.08.77.41.75a52.33,52.33,0,0,0,11-1.72c2.33-.58,4.64-1.23,7-1.8,5.52-1.34,3.63-.39,6.44.77,2.46,1,5.91-.29,8.56.1a4.22,4.22,0,0,0,2.93-.21c2.55-1.61.32-10.62.11-12.91-.72-7.63-1.57-15.32-1.64-23,0-.84-1.94-.43-1.93.23Z"/><path class="cls-3" d="M124,323.48c7.88,1.06,8.75-6.32,8.29-12.53-1.08-14.42.74-28.81.05-43.25,0-1-2-.73-2,.14.56,12-.58,23.87-.64,35.81,0,5,3.81,19.61-5.09,18.41-1-.13-2,1.24-.66,1.42Z"/><path class="cls-3" d="M116.29,179.13c4.45,8.92,3.83,20.19,3.83,29.89,0,.95,1.95.62,1.95-.18,0-9.78.63-21.26-3.85-30.23-.39-.78-2.29-.2-1.93.52Z"/><path class="cls-3" d="M99.48,183.49,100,183l-1.74.12c.62,3.67-2.28,9.12-3.09,12.66A142.4,142.4,0,0,0,92.33,216c-1,12.61-1,25.29-1,37.94,0,.64,1.67.07,1.86-.25,5.43-9.29,4.48-20.71,7-30.9,1.55-6.32,3.16-12.33,3.58-18.87.41-6.26.46-12.55,1-18.8.07-.78-1.77-.33-1.93.25-1.27,4.75-1.3,9.94-2.71,14.59-.65,2.13-.89,7.48-2.7,8.93l1.67-.23-.15-.12c-.52-.42-2.3.34-1.8.74l.16.12c.45.37,1.26.1,1.66-.23,1.67-1.33,2-5.11,2.44-7,1.44-5.61,1.85-11.41,3.36-17l-1.93.25c-1.11,12.27-1,24-4.17,36-2.79,10.52-1.66,22.72-7.27,32.32l1.86-.25c0-13.84.07-27.67,1.31-41.47a135.35,135.35,0,0,1,3-18.22c.77-3.36,3.27-7.64,2.68-11.14-.1-.63-1.49-.1-1.73.12l-.56.47c-.84.72,1.09.68,1.54.29Z"/><path class="cls-3" d="M85,184.05c-4.69,4.44-4.58,12.74-5.83,18.65-.11.51,1.73.11,1.91-.33,2.45-5.94,2.58-12.44,4.47-18.55l-1.91.33q-1,4.8-1.91,9.59c-.1.49,1.81.17,1.9-.32l1.92-9.6c.1-.5-1.76-.14-1.91.33-1.88,6.1-2,12.6-4.47,18.55l1.91-.33c1.21-5.77,1.11-14.11,5.68-18.44.43-.42-1.41-.21-1.76.12Z"/><path class="cls-3" d="M77.29,251.94c-3.14,7.33-1.34,16.65-1.25,24.4a275.34,275.34,0,0,0,2.52,34.54c.06.44,2,0,1.93-.52a281.58,281.58,0,0,1-2.44-30.7c-.13-4.61,0-9.22-.26-13.83-.23-4.81-.53-9.69,1.41-14.21.16-.39-1.69-.2-1.91.32Z"/><path class="cls-3" d="M160.58,261.73c-3.19,3.89-2.42,10.16-2.22,14.83A136.91,136.91,0,0,1,157.21,303c-.15,1,1.82.71,1.95-.15a131.71,131.71,0,0,0,1.24-24.55c-.16-4.76-1.47-12,1.79-16,.78-1-1.06-1.23-1.61-.56Z"/><path class="cls-3" d="M159.14,268c.69,7.09,1.92,14.09,3.2,21.1.13.73,2.07.25,1.93-.52-1.27-7-2.51-14-3.2-21.1-.07-.71-2-.28-1.93.52Z"/><path class="cls-3" d="M105.42,325.59c.1,1.92.62,3.75.9,5.65.7,4.63-5.08,6.1-8.36,7.8a118,118,0,0,0-13.21,8.18c-4,2.8-8.22,5.59-12.86,7.12-1.73.57-3.56.84-4.51-1.22-.55-1.19,1.64-2.86,2.41-3.52,1.31-1.14,2.88-2.11,3.61-3.75.39-.89-1.14-.67-1.53-.41a51.73,51.73,0,0,1-6.34,3.64c-2,.93-8.4,2.56-3.94-1,.46-.37.46-1-.26-1-1.44,0-4.7.88-3.28-1.25a.39.39,0,0,0-.15-.56c-1.41-2.15-1-3.56,1.13-4.26,1.13-.67-.53-1.12-1.23-.71-1.3.77-3,1.79-3.28,3.43-.34,1.89,1.78,1.88.43,3.9-.26.39.21.68.55.68a28.36,28.36,0,0,0,3.84-.15,20.65,20.65,0,0,0-1.83,2.67c-.28.39.23.66.55.68,5.7.3,10.41-2.33,15-5.38l-1.52-.42c-1.21,2.73-9.68,6.49-4.5,9.83,3.54,2.28,10.19-2.18,13-3.84,7.3-4.22,13.82-9.42,21.46-13.16,2.23-1.09,5.74-2.23,6.44-5s-.52-5.59-.68-8.45c0-.74-2-.31-1.93.52Z"/><path class="cls-3" d="M60.31,340.39c2.7-1.8,6.08-2.05,9.2-2.74a84.72,84.72,0,0,0,10.49-3c5-1.81,10.27-4.74,12-10.08.25-.77-1.7-.52-1.94.2-4.1,12.6-22.13,9-31,14.9-1.09.73.55,1.15,1.23.7Z"/><path class="cls-3" d="M71.39,346.75c2.55-2.9,2.71-6.24,2.72-10,0-1-1.6-.8-1.91-.08-1.23,2.88-1.38,6.1-3.09,8.77-.63,1,.82,1.32,1.47.81,1.69-1.35,3.32-2.76,5-4.07,3.4-2.63,6.32-2.37,9.58.33l.55-1.3c-4.25,1.57-8.85.89-13,2.66-1.08.45-.34,1.56.63,1.32,3.17-.77,6-2.26,9.33-2.44,1.13-.06,1.46-1.44.14-1.44H77a12.32,12.32,0,0,0-.15,1.44c3.49-.06,7-.58,10.4.54.88.29,2.27-1,1.09-1.39-3.71-1.23-7.5-1-11.34-.91-1.14,0-1.46,1.32-.15,1.32h5.76a10.27,10.27,0,0,0,.14-1.33c-3.52.19-6.48,1.87-9.85,2.7.21.44.42.93.63,1.37,4-1.68,8.47-.94,12.54-2.44.52-.19,1.15-.77.55-1.28-6.74-5.58-11.75-.54-17.38,3.94l1.47.81c1.81-2.83,2-6.09,3.31-9.14l-1.92-.07c0,3.38,0,6.53-2.39,9.21-.82.93,1,1.34,1.64.64Z"/><path class="cls-3" d="M69,337c0,1.51-.6,3-.64,4.47,0,.82,1.92.42,1.94-.23,0-1.52.59-3,.64-4.48,0-.82-1.92-.42-1.94.24Z"/><path class="cls-3" d="M55,352.57a25.63,25.63,0,0,0,6.53,4.58c.59.29,2.35-.55,1.53-1a24.85,24.85,0,0,1-6.27-4.39c-.5-.49-2.33.24-1.79.77Z"/><path class="cls-3" d="M56.81,351.81c-.2,8.47,11.14,8.59,17.08,7.1,4.62-1.16,8.5-4.66,12.11-7.55,5.53-4.43,12-7.43,17.93-11.26.85-.55-1-.39-1.31-.23-11.48,5.95-30.46,25.79-43.3,13.9l-1.69.73c4.44,1.24,8.54,3.14,13.21,3.33,3.53.15,7.06-1.29,10.23-2.66,9.86-4.28,17.41-10.8,26.06-17,.45-.32.05-.53-.34-.49-4.59.47-7.67,3.05-10.88,6.23-.52.52,1.24.23,1.45.12a13.17,13.17,0,0,1,2.08-1.1c1.12-.32,1-1-.18-.69a12.23,12.23,0,0,0-3,1.46l1.45.11a43.38,43.38,0,0,1,4.18-3.72c5.08-3.87-.48,1.14-1.46,1.91-3.41,2.68-6.76,5.38-10.4,7.76a68.65,68.65,0,0,1-12.62,6.11c-6.7,2.6-12-.45-18.16-2.17-.29-.08-2.15.32-1.7.74,10.3,9.53,25.28-.73,34.49-6.82,3.37-2.23,6.67-4.56,10.16-6.58q2.2-1-1.29-.06c-2,1.27-4,2.4-6,3.56s-4.14,2.4-6.17,3.68c-6.47,4.08-11.31,10.7-19.8,10.55-4.93-.09-10.25-1.77-10.12-7.49,0-.37-1.91-.09-1.93.52Z"/><path class="cls-3" d="M72.16,342.43A15.39,15.39,0,0,0,73.39,337c.1-1.43.39-2.62-.63-3.65-.31-.31-1.77.07-1.87.5a35.7,35.7,0,0,0-.84,7.77c.65-.17,1.75-.34,1.75-.51v-5.12c0-.37-1.75-.07-1.75.52,0,2.37-.36,4.67-.41,7A20.16,20.16,0,0,1,71.8,343v-6.4c-1,.22-.89.43-1.27.65.8-.12,1.45-.55,2.25-.61.54,0,2.07-.94.79-.84-1,.08-1.76.53-2.72.67-.3,0-1,.23-1,.65v6.39c0,.38,1.82.07,1.83-.51.05-2.37.37-4.67.37-7,0-.37-2.2-.07-2.2.52v5.11c0,.37,2.15.08,2.15-.51a33.84,33.84,0,0,1,.74-7.58l-1.81.5c.91.91.61,2.26.55,3.49a14,14,0,0,1-1.19,5.29c-.17.36,1.69.19,1.92-.33Z"/><path class="cls-3" d="M75.05,342.33c5.27-.12,11.62-2.28,15,3.08l1.76-.62c-2.86-.88-5.4-2.46-8.31-3.2l-1.43.74c4.37,0,7.58.39,10.59,3.79.3.34,2.09-.35,1.82-.65-3.17-3.58-6.59-3.88-11.15-3.89-.26,0-2,.58-1.43.74,2.92.73,5.46,2.32,8.32,3.19.22.07,2-.29,1.76-.62-3.56-5.61-10.16-3.44-15.68-3.31-.38,0-2.19.77-1.27.75Z"/><path class="cls-3" d="M56.35,348.8c-2.88,3.19-.51,7,2.58,9,.58.37,2.35-.45,1.53-1-2.44-1.56-5-5-2.54-7.64.78-.86-1.1-.89-1.57-.38Z"/><path class="cls-3" d="M54.3,349.53c-2.07,3.92,2.31,7.07,5.47,8.41.78.32,2.25-.79,1.13-1.26-2.55-1.08-6.46-3.74-4.76-6.95.5-1-1.46-.91-1.84-.2Z"/><path class="cls-3" d="M113.62,325.43c-.14,2.57-1.08,5-.89,7.59.27,3.61,5.12,5,7.7,6.26,7.21,3.52,13.44,8.49,20.28,12.6,3.54,2.13,8.55,5.19,12.83,3.64,6.25-2.26-3.19-8-4.08-10l-1.73.77c4.57,3,9.12,5.52,14.72,5.22.4,0,1.39-.46,1-1a15.06,15.06,0,0,0-2.69-3.3c-.37.37-.74,1.13-1.12,1.13h5.12c.43,0,1.7-.35,1.25-1-1.22-1.83.33-2,.45-3.77.1-1.55-2.05-2.73-3.14-3.38-.62-.37-2.38.5-1.52,1,2.12.68,2.6,2.1,1.42,4.26a.53.53,0,0,0-.27.75c.42.64.85,1.4,1.28,2,.41-.34.83-.89,1.24-.89h-5.11c-.48,0-1.89.38-1.12,1a13.54,13.54,0,0,1,2.43,3l1-1c-5.13.27-9.33-2.33-13.42-5-.4-.26-2,.06-1.73.76a8.81,8.81,0,0,0,2.8,3.09c.76.63,1.49,1.25,2.19,1.94,2.35,2.26-1,3.78-3,3.24-4.46-1.2-8.66-4.2-12.44-6.77-4.46-3-8.95-5.95-13.7-8.55-3.1-1.7-7.74-2.64-8.71-6.51-.55-2.2.78-5,.91-7.27,0-.9-1.91-.55-1.95.2Z"/><path class="cls-3" d="M162,339.53c-8.94-6-27-2.27-31.13-15.1-.25-.76-2.17-.22-1.93.52,1.74,5.34,6.91,7.92,11.82,9.83,6.11,2.37,14.3,2.15,19.72,5.76.6.4,2.36-.45,1.52-1Z"/><path class="cls-3" d="M151.29,346c-2.37-2.69-2.45-5.78-2.46-9.21l-2,.32c1.3,3,1.49,6.32,3.29,9.13l1.62-1c-5.74-4.57-10.61-9.36-17.38-3.74-.41.34-.47,1,.1,1.17,4.16,1.53,8.72.84,12.79,2.56l.87-1.43c-3.3-.81-6.14-2.56-9.59-2.75-.13.5-.26,1.32-.4,1.32h5.76c1.14,0,1.45-1.31.15-1.33-3.77-.06-7.5-.42-11.14.78-1.17.39-.81,1.86.38,1.47,3.46-1.14,7-.56,10.61-.51a11.81,11.81,0,0,1,.15-1.41h-5.76c-.91,0-1.57,1.36-.4,1.43,3.4.18,6.34,1.72,9.6,2.52.81.2,1.93-1,.87-1.45-4.1-1.73-8.63-1-12.79-2.56,0,.39.07.77.1,1.16,5.78-4.79,10.06.33,14.6,3.94.61.49,2.16-.17,1.62-1-1.72-2.7-1.88-5.89-3.11-8.78-.34-.77-1.95-.59-1.95.32,0,3.68.11,7.09,2.66,10,.62.71,2.44-.1,1.76-.88Z"/><path class="cls-3" d="M150.08,337.1c0,1.51.6,3,.64,4.47,0,.64,2,.25,1.93-.51,0-1.52-.59-3-.64-4.48,0-.63-1.95-.25-1.93.52Z"/><path class="cls-3" d="M164.34,352a23.7,23.7,0,0,1-6,4.23c-1.2.61-.1,1.29.77.85a27.09,27.09,0,0,0,6.79-4.72c.81-.81-1.09-.82-1.56-.36Z"/><path class="cls-3" d="M162.23,351.81c.15,6.25-6.46,7.16-11.5,6.91-4.41-.22-8.24-3.16-11.58-5.75-6.5-5.05-13.56-8.81-20.45-13.27l-1.82.68c12.49,6.47,32.21,27,46.56,13.68.49-.45-.84-.33-1-.3-5.17,1.44-9.7,3.86-15.37,2.88-4.12-.71-8-3.05-11.69-4.82-7.38-3.51-13.32-9.32-19.91-14l-1.52.76c4,.41,6.61,3,9.3,5.67l1.81-.68a12.1,12.1,0,0,0-2.67-1.33c-.48-.14-2.2.61-1.58.79a15.88,15.88,0,0,1,2.44,1.22c.38.22,2.23-.27,1.81-.68-2.89-2.87-5.7-5.42-9.88-5.84-.21,0-2,.43-1.52.77,8.07,5.78,15.18,11.75,24.18,16.1,7.38,3.56,13.09,3.85,20.69,1.18.72-.74,1.25-.83,1.58-.26a10.12,10.12,0,0,1-5.39,2,18.6,18.6,0,0,1-6.93-1A48.93,48.93,0,0,1,137,351.29c-6.22-3.66-11.89-8.27-18.31-11.59-.46-.24-2.19.44-1.82.68,5.94,3.84,12.37,6.87,17.94,11.26,4.57,3.61,8.76,7.05,14.67,7.93s14.85-1.06,14.67-8.28c0-.4-1.94-.08-1.93.52Z"/><path class="cls-3" d="M150.73,342.34a14.64,14.64,0,0,1-1.17-4.78c-.13-1.28-.5-3,.45-4l-1.85.31a34.7,34.7,0,0,1,.68,7.67c0,.38,2,.08,2-.51v-5.12c0-.37-2-.07-2,.52,0,2.37.78,4.67.83,7,0,.39,2.13.07,2.13-.51v-6.4c0-.13-.49-.15-.56-.16-.88-.13-1.75-.56-2.66-.64-.45,0-2.29.76-1.3.84a9.15,9.15,0,0,1,2.22.56c.34.12.3,1.48.3,1.88v4.43c0-.17,1.11-.34,1.75-.51-.05-2.37-.73-4.67-.73-7,0-.37-2-.07-2,.52v5.11a14.21,14.21,0,0,0,1.93-.51,34.12,34.12,0,0,0-.64-7.68c-.12-.53-1.63.11-1.84.32-1,1-.74,1.75-.7,3.16a15.38,15.38,0,0,0,1.25,6c.24.52,2.11-.13,1.93-.51Z"/><path class="cls-3" d="M145.92,341.58c-5.91-.14-13.12-2.26-16.93,3.75-.2.31,1,.12,1,.1,2.85-.88,5.4-2.47,8.31-3.2.23-.06,1.42-.65.56-.65-4.94,0-8.95.42-12.38,4.3-.37.42,1.45.16,1.75-.17a14.05,14.05,0,0,1,2.52-2.35c1.62-1.13,4.45-.93,6.23-1.38-2.5.63-4.68,2.15-7.14,2.9l1,.1c3.08-4.87,9-2.76,13.77-2.65.39,0,2.2-.73,1.26-.75Z"/><path class="cls-3" d="M163,349.38c2.42,2.68.27,6-2.28,7.6-1.1.71.56,1.07,1.22.65,3-1.9,5.73-5.84,2.84-9-.48-.53-2.33.18-1.78.78Z"/><path class="cls-3" d="M164.87,350.05c1.67,3.14-2.19,5.68-4.65,6.72-1.22.51-.13,1.49.84,1.08,3.26-1.37,7.69-4.65,5.58-8.64-.38-.72-2.23,0-1.77.84Z"/></svg>