<svg id="layer1" xmlns="http://www.w3.org/2000/svg" viewBox="0 0 297.29 186.18"><defs><style>.cls-1{fill:#d3ae6c;}.cls-2{fill:#492d0c;}</style></defs><path class="cls-1" d="M193.14,44.34c-.26.5-.48,1-.71,1.52-5.6,5-6.17,12.52-5.09,20.18a32.14,32.14,0,0,0,.76,3.39c-.11.94-.23,1.88-.39,2.81a2.86,2.86,0,0,0-.92,1.14,53.57,53.57,0,0,0-2.89,9.08,3.46,3.46,0,0,0,.28,2.54c-.06.1-.13.2-.2.3a2.79,2.79,0,0,0-.37-.4,6,6,0,0,0-3-1.33,3.64,3.64,0,0,0-5.5-.68,4.46,4.46,0,0,0-1.2.36,3.87,3.87,0,0,0-.9.58,3.44,3.44,0,0,0-3.84,3.36c-.11,3.86.27,6.47,3.64,8.73a3.46,3.46,0,0,0,4.58-1,3.23,3.23,0,0,0,2-1.4,7.65,7.65,0,0,0,7.38-1,3.57,3.57,0,0,0,1.45,0c8-1.83,9.14-7.3,8.42-13.84.75-2.19,1.35-4.36,1.86-6.3,1.95-7.31,4-16.94,2.33-24.78a3.8,3.8,0,0,0-1.73-4,3.46,3.46,0,0,0-2.29-.8h-.64A3.33,3.33,0,0,0,193.14,44.34Z"/><path class="cls-1" d="M249,95.14c-1.75-4.24-6.56-4.23-10.53-4.08-7,.25-13.94,1.56-20.78,2.72-4.94.84-9.87,1.75-14.8,2.63-8.78,1.33-17.57,2.58-26.44,3.15a3.11,3.11,0,0,0-1.07.26c-3.64-.63-7.26-1.27-10.91-1.79,0,0,0,0,0,0a6.29,6.29,0,0,0-1.26-3.83c0-.11.06-.21.1-.32a2.87,2.87,0,0,0,.07-1.64l.06-.56a5.17,5.17,0,0,0-.11-1.56c0-.33.09-.64.11-1,.23-3.64-5-4.58-6.55-1.75a6.94,6.94,0,0,0-4.83,4.51l-.67.21a3.75,3.75,0,0,0-2.45,2.6c-.63.59-1.23,1.21-1.81,1.87a2.81,2.81,0,0,0-2.25-.06,3.57,3.57,0,0,0-1.17-3.17,3.45,3.45,0,0,0-1.35-3.13,3.5,3.5,0,0,0-.16-1.3,3.09,3.09,0,0,0,.66-.48h0c2.4,2,7.22.18,5.85-3.4-1.13-3-2.32-6-3.49-8.94-.6-4.75-1.52-9.51-1.38-14.26,4.34-5.17,11.46-7.86,17.59-10,14.2-4.88,34.06-6.67,33.11-26.2A3.57,3.57,0,0,0,190,22.36a4,4,0,0,0-2.56.24c-6.64,2.91-11.35,8.33-18.4,10.71-3.61,1.21-7.31,2-10.84,3.26-1.22.19-2.44.4-3.67.62a76.78,76.78,0,0,0-9.11-.47,3.16,3.16,0,0,0-2.85,1.52c-7.47.4-15.87,5.54-21.21,8.75-5.92,3.55-14.91,9-19.11,15.84C95.69,70,92.76,80.74,91.75,90.36a3.16,3.16,0,0,0,.18,1.47c-.15.24-.29.49-.43.75h-.06c-3.45,0-5.34,5.35-6.31,8-4.89,13.11,3.79,23.23,16.28,26.45,7.38,1.9,14.73.8,22-.82,7-1.57,14-3.45,21.13-4.81-1.91,1.65-2,5.32,1.17,6C157.18,129.94,167,125,178,122.53c12.59-2.81,25.67-1.8,38.16-5.31a3.23,3.23,0,0,0,2.08-1.62,22.47,22.47,0,0,0,7.88-1.74,14.6,14.6,0,0,0,4.73-1.17,11.2,11.2,0,0,0,7.72-4.69c1.91-2.5-1.25-6-3.92-5.2a11.54,11.54,0,0,0-9.52-.81,11.71,11.71,0,0,0-6.1,1.33,28.52,28.52,0,0,0-4.73.8,3.33,3.33,0,0,0-2.4,4.13,3,3,0,0,0,0,.42,25.64,25.64,0,0,1-3.28,1.8,3.53,3.53,0,0,0-1.86,1.64c-1,.15-1.95.3-2.92.42.19-.21.38-.42.57-.65,1.82-2.25.83-6-2.47-6a174.37,174.37,0,0,0-18.7,1.38,3.81,3.81,0,0,0,.93-.86c1.9-.21,3.8-.5,5.68-.76,5.58-.79,11.14-1.79,16.69-2.79,12-1.84,24-3.65,36.23-3.89a4,4,0,0,0,.93.37,3.54,3.54,0,0,0,1.83,0C247.77,99.5,250.14,97.81,249,95.14ZM148.11,120.72c2.57-.42,5.16-.76,7.77-1a60.52,60.52,0,0,1,7.27,0C158.16,121,153.14,121.72,148.11,120.72Zm4-10.38a2.86,2.86,0,0,0-1.31-.5,222.67,222.67,0,0,1-23.8-4.23A47.8,47.8,0,0,0,112.3,100c1.51-3.1,2.33-6.56.43-8.52l.19-.09a3.43,3.43,0,0,0,.92,1.4,19.06,19.06,0,0,0,.25,2.34,3.48,3.48,0,0,0,4.3,2.45A18,18,0,0,0,123,94.94a3,3,0,0,0,.67-.29A24.23,24.23,0,0,0,127,92.38a3.76,3.76,0,0,0,.3.47c-1.49,1.58-1.94,4.53.48,5.61a14.7,14.7,0,0,0,3.35,1.05c.11,2.59,3.07,3.91,5.26,2.76l0,0a2.77,2.77,0,0,0,1.87-.62,21,21,0,0,0,2.35-2l1,0a3.52,3.52,0,0,0,1.16-.21,3.45,3.45,0,0,0,1.52,3.54c9.26,6.32,20.69,6,31.55,5.29A227.55,227.55,0,0,1,152.07,110.34Z"/><path class="cls-2" d="M194.1,19.74c-3.74-.11-6.64,1.5-9.73,3.48-6.35,4.06-12.61,8.15-19.9,10.3-10.67,3.15-22.28-.34-32.29,5.87-5.87,3.65-10.67,8.53-16.86,11.77-4.57,2.4-9.41,4.23-13.26,7.79-4.49,4.14-7.24,9-9.32,14.73s-4.67,11.85-5,17.85c0,.92,1.9.59,2-.18.3-5.11,2.44-9.84,4-14.67,1.93-6.11,4.4-11.59,8.91-16.25,4.18-4.31,10-6.38,15.19-9.11,4.71-2.47,8.85-6,12.92-9.33,9.23-7.67,21.71-4.8,32.55-6.91a42.42,42.42,0,0,0,12.53-5c5-2.84,11.67-9.23,17.67-9,.84,0,2-1.23.71-1.27Z"/><path class="cls-2" d="M85.87,95.72c-6,7.45-5.9,20.35,1.18,27.06,7.62,7.23,21.89,5.6,31.25,4.6,7.33-.78,14.58-2.31,21.85-3.54a143.21,143.21,0,0,1,26-1.89c11,.13,22.25-.09,32.77-3.74,3.42-1.19,15.73-7.9,10.91-12.93-3.26-3.42-12.33-1-16.16-.07-5.73,1.3-11.33,3-17.14,4-8.64,1.47-18,0-26.68-1-7.77-.9-14.93-3.24-22.24-5.91-5.43-2-11.54-3.7-17.4-2.68-1.31.22-2.17.4-3.46.71s-.94,1,.2.76c12.9-3.07,25.51,5.36,38,7.51,10.63,1.82,22.23,3,32.92,1.19,7.65-1.3,15-4.2,22.74-4.9,2.44-.22,7.11-.65,8.11,2.29,1.65,4.83-7.47,9.24-10.54,10.43-10.34,4-22.31,3.53-33.16,3.41-12.71-.16-24.84,2-37.32,4.18-11.5,2-26.4,4.61-37-1.73-9-5.39-9.15-20.3-3.06-27.81.46-.57-1.44-.35-1.77.06Z"/><path class="cls-2" d="M114.76,88.61c0,.12,0,.25.07.37s.25.17.35.18a5.89,5.89,0,0,0,2-.22,34.46,34.46,0,0,1,9.88-.7c4,.23,8,1,12,1.21,5.1.33,11.67-.18,14-5.5.17-.41-1.69-.22-1.92.31-2.95,6.79-13.68,4.1-19.52,3.43-1.05-.13-15-.48-14.86.4-.09-.48-2,0-1.93.52Z"/><path class="cls-2" d="M192.46,20.36c7.89,5.26,2.55,16.15-2,21.86-6.32,8-19.65,7.71-28.85,10.16-5.9,1.58-14.32,4.11-17.07,10.26-3.57,8,5.06,13.59,6.51,21,.13.62,2.07.14,1.94-.52-1.62-8.16-11.55-14.17-5.17-22.69,3.33-4.44,10.18-6.07,15.24-7.42s10.17-2.08,15.23-3.25c7.8-1.81,13.16-5.22,17.14-12.21,3.18-5.61,5-13.73-1.18-17.88-.55-.37-2.29.41-1.8.74Z"/><path class="cls-2" d="M146,97.37A14.58,14.58,0,0,0,152,92c.81-1.25,1.45-10.11,4.6-7.11.79.75,2.57.31,3.37-.12,8.27-4.4,7,4.32,6.9,8.45,0,.32,1.91.06,1.93-.51.07-2.36,1.31-8.86-2.1-9.78a6.48,6.48,0,0,0-4-.16c-2.53.68-3.12,1.69-5.57.59a5,5,0,0,0-4.35,1.08,7.66,7.66,0,0,0-1.66,4c-.73,4-2.44,6.7-6.28,8.62-1.14.57.66.5,1.12.27Z"/><path class="cls-2" d="M169.43,84.22a3.9,3.9,0,0,0,2.34-1.68c1.8-3,7.82-1,10.67-1.27s4.05-2.73,4.12-5.26c.16-6-1.72-11.36-.58-17.46,1.06-5.69,4.18-14.18,9.72-16.81,7-3.32,3,13.53,2.52,15.56-1.66,7.06-.8,13.63-.46,20.78.66,13.93-12.44,16-23.1,18.56-1.2.28-.87,1.47.32,1.19,8.26-2,20.72-3.38,23.78-13,2.52-7.93-.65-16.42.72-24.55,1-5.69,4.07-12.62,1.6-18.32-1.32-3-5.32-2-7.46-.63-4.43,2.92-6.58,8-8.23,12.85-2.47,7.3-1.84,13.62-.85,21.08.85,6.42-7.37,4-11,4.26-2.83.19-2.57,2.66-5,3.68-1.22.52-.12,1.42.82,1Z"/><path class="cls-2" d="M166.9,96.33c2,5.55,8.44,1.56,12.66,1.19,4.88-.43,9.84.58,14.75.4,5.36-.2,10.42-2.54,15.71-3.22,4.21-.55,8.41-.61,12.6-1.43,5.63-1.11,11-3,16.75-3.65,4.06-.48,8.91-.64,11.93,2.57,4.08,4.34-3.69,7.4-6.45,9.2-1.1.71.47,1.5,1.3,1,4.11-2.68,10.72-5.15,6.91-11-3.22-5-12.71-3.58-17.32-2.68-5.59,1.09-11,2.87-16.64,3.77-5.46.88-10.76.82-16.15,2.29-6.69,1.84-12.69,1.44-19.53,1.3a40.57,40.57,0,0,0-7.63.52c-2,.34-5.73,2.67-7-.7-.34-.93-2.26-.4-1.93.51Z"/><path class="cls-2" d="M208.21,104.86c4.75-.83,37.45-11,33,3.14-1.83,5.77-12.32,6.77-17,7.4-6.22.83-12.3,1.77-18.42,3.18-6.64,1.52-13.17,3.23-19.9,4.34a133.82,133.82,0,0,0-18.37,4c-3.24,1-6.2,2.49-9.62,2.94s-6.84-.33-10.1-1c-5.17-1.07-10.07-2.11-15.36-1.4-1.07.15-1.47,1.62-.16,1.44,7.62-1,14.68,2,22.2,2.47,7.16.5,13.84-3.48,20.67-5,8.46-1.94,17.07-2.93,25.51-5,9-2.21,17.87-3.58,27-4.91,5.83-.85,21.35-6,14.18-14.48-2.5-2.94-7.57-3.17-11.09-3.09-7.68.16-15.32,3.43-22.85,4.74-1.23.21-.84,1.56.36,1.35Z"/></svg>