<svg id="layer1" xmlns="http://www.w3.org/2000/svg" viewBox="0 0 295.9 478.47"><defs><style>.cls-1{fill:#91826d;}.cls-2{fill:#423407;}</style></defs><path class="cls-1" d="M173.77,177A53.34,53.34,0,0,0,168,172.4a5.11,5.11,0,0,0-2.22-.82c-.51-1.33-3.71-3.83-4.25-2-.75,2.53-1.21,5.13-1.81,7.69-.57-2.3-1.11-4.61-1.81-6.88-.3-1-4.25-3.65-4.26-1.87V169c-1.14-1.24-3.39-2.4-3.68-1-.06.29-.13.57-.2.86-1.07-.87-2.44-1.47-2.85-.63-.16.31-.31.63-.47.95-1-.75-2.21-1.14-2.69-.43-.66,1-1.33,2-2,3-.94-1.18-3.05-2.31-3.77-1.39-2.1,2.68-3.85,5.6-5.8,8.38a4.31,4.31,0,0,0-1.81-.9c-.78-1.28-2.74-2.66-3.7-1.7-2.44,2.4-5.09,4.74-7.09,7.15v-3.58c0-.39-.62-1-1.15-1.49.12-.73.11-1.46.26-2.19.11-.58-.66-1.38-1.53-2,.3-1.08.58-2.17.91-3.25s-2.27-2.81-3.56-2.86c1.07-4.58,2.84-9.15,6.35-10.83,1.47-.7-2.23-3.89-3.65-3.21-5.52,2.64-6.8,11.5-7.89,16.79-1.61,7.81-2.08,15.78-3.48,23.62-.23,1.29,3.63,3.86,4.22,2.53a86.24,86.24,0,0,0,4.15-12s-.06,0,0-.06a2,2,0,0,0,.41-.87V188c0,1.32,3.32,3.77,4.44,2.52a64.33,64.33,0,0,1,7.56-7.45v2.83c0,1.38,3.67,4.06,4.19,2.23a27,27,0,0,1,1.81-4.57c.86.5,1.74.73,2.2.14,1.13-1.44,2.13-2.95,3.13-4.46,1,1.15,3,2.21,3.68,1.3.2-.25.38-.52.58-.77,1,1.16,3,2.29,3.61,1.3.38-.59.72-1.2,1.07-1.8,1.06.89,2.58,1.51,3.13.75a25.05,25.05,0,0,0,2-3.19c.27.48.55,1,.88,1.44s3.16,2.9,3.87,1.95c.35,1.15.73,2.29,1.19,3.42.29.72,3.5,3.69,4.17,2.16a33.06,33.06,0,0,0,1.68-5.16c1.14,1,2.72,2,3,.95.62-1.92,1.49-3.74,2.19-5.62.85.67,1.67,1.36,2.47,2.1C173.11,179.58,176.25,179.32,173.77,177Z"/><path class="cls-1" d="M106.08,215.14a1.23,1.23,0,0,0-.2-.57q-.15-3.39-.33-6.78c-.09-1.6-4.65-3.35-4.56-1.69q.23,4.14.41,8.28a110.54,110.54,0,0,0-.58,18.46c-.86-.39-1.64-.45-1.86.26,0,0,0,.08,0,.12-.6-.07-1,.11-1.08.71-.19,4.32.31,8.63.49,12.94a.64.64,0,0,0-.42.41,24.61,24.61,0,0,0-1,3.71,23.87,23.87,0,0,0-3.76-7.18c-.59-.74-4.76-2.86-4.12-.59a52,52,0,0,1,1.47,7.29c-.56,0-1,.15-1,.76-.19,1.69-.31,3.35-.44,5,0,0,0,0,0,0h-.53c-.29,0-.89,0-1,.42a14.91,14.91,0,0,0-.59,6.1c0,.73,1,1.5,2,2,1.12,1.23,3.93,2.29,4.09.8s.3-3.24.42-4.86c1.12.44,2.22.48,2.21-.39,0-.34,0-.68,0-1,.09.25.19.5.29.74.41,1,4.22,3.28,4.46,1.34.12-1,.23-2,.34-3.06.86.23,1.62.12,1.76-.62,1-5.1.42-10.23.12-15.37a3.72,3.72,0,0,0,2.63.8c.76.15,1.39,0,1.45-.66C107.45,233.33,106.18,224.27,106.08,215.14Z"/><path class="cls-1" d="M83.44,262.6c.09-.59.16-1.19.26-1.78s-4.7-.75-5,.45-.46,2.16-.68,3.25c-1.34,0-2.88.35-3,1,0,.09,0,.19-.05.29-.77.16-1.41.42-1.52.76s-.16.45-.23.67a8,8,0,0,0-2.15.29v-1.93c0-.43-1.33-.58-2.62-.48V265c0-.24-.44-.4-1.06-.46.48-1.2,1-2.38,1.51-3.56.2-.44-1.21-.67-2.57-.6.18-.56.35-1.12.54-1.68.12-.33-4.53-.87-5,.45a90.09,90.09,0,0,0-3.83,16.15,1.44,1.44,0,0,0-.9.66,34.4,34.4,0,0,0-1.74,12.34c-.76,7.95,1.53,18.63,7.63,22,.84.46,4.55.63,4.87-.61a14.28,14.28,0,0,0,.34-1.78.7.7,0,0,0,.19-.32,17.07,17.07,0,0,0,.33-2.89c.14-.09.22-.18.19-.26l-.2-.65a28.83,28.83,0,0,0-1.09-6.69,53.27,53.27,0,0,0,1.29-6c.84-.15,1.51-.42,1.58-.81.26-1.6.48-3.2.7-4.79a22.75,22.75,0,0,0,.62,3.66c.1.36.78.53,1.6.55,0,1.56,0,3.13,0,4.7,0,.31.66.48,1.51.5l.09.45c0,.52-.25,1-.26,1.55h-.23v.23c0,.17.43.29.75.38l0,0c0,.13.21.23.21.31v2.33c0,1.84,5,.11,5-1.53v-1.33a1.8,1.8,0,0,1,0-.22c.23-1.9.38-3.8.54-5.7.22-.76.42-1.5.57-2.18.67-3.06,1.27-6.13,1.87-9.2,1-5.39,2.75-11.43,2.75-16.94C86.33,262.59,84.8,262.45,83.44,262.6Z"/><path class="cls-1" d="M251.72,278.74a53.38,53.38,0,0,0-4.85-16.2,3.48,3.48,0,0,0-2.05-1.32,36,36,0,0,0-5.16-6.45,1.61,1.61,0,0,0-.14-.63,16.08,16.08,0,0,1-1.11-3.45c-.08-1-.18-2-.35-2.94-.32-1.87-4.71-3.09-4.83-.88-1-.14-1.87.12-1.59,1.21.13.5.26,1,.4,1.49-1.36-.34-2.78-.13-2.5,1.14,0,.13.07.42.1.55a3.82,3.82,0,0,0-1.07,0H228a1.8,1.8,0,0,0-1.14.18c-1.26-1.05-3.9-1.52-4.14-.05-.06.37-.09.69-.13,1.06a16.15,16.15,0,0,0-1.12-1.23c-1-1-3.86-1.35-4,.53-.05.52-.08,1-.1,1.52-1.31-.38-2.73-.35-2.53,1.1a64.67,64.67,0,0,0,1.49,7.25c-.25,5.81-.88,11.6-1,17.43a1.33,1.33,0,0,0,.3.81c-.14,1.12-.25,2.25-.3,3.39-.08,1.79,4.39,3.09,4.79,1.15,1.3-6.29,2.25-12.63,3.35-18.95a44.09,44.09,0,0,0,1.43,4.58c.52,1.4,3.41,2.33,4.46,1.08.1-.12.19-.25.28-.37a3.34,3.34,0,0,0,.86.55c-.21,2.76-.3,5.51-.34,8.2-.1,6.08-.11,13.56,3.42,18.81.65,1,4,2.07,4.4.28.16-.75.32-1.5.46-2.26a1.3,1.3,0,0,0,1.11-1,1.39,1.39,0,0,0,1.58-1A29.82,29.82,0,0,0,242,291c.1.19.18.39.29.58a2.81,2.81,0,0,0,1,.94.49.49,0,0,0,0,.11c.61,1.55,4.64,2.61,4.72.28.06-1.77,0-3.54,0-5.3,1.37.59,3.13.55,3.18-1a39.38,39.38,0,0,0-.37-6.62A1.05,1.05,0,0,0,251.72,278.74Z"/><path class="cls-1" d="M129.13,384.94a14.89,14.89,0,0,0-2.5,1.58l.39-2c.07-.34-.31-.5-.58-.5-3.32,0-5.07,2.94-6.65,5.47a27.33,27.33,0,0,0-3.12,7.43c0-.8-.07-1.61-.16-2.42-.17-1.61-3.6.67-4.31,1.77a3.78,3.78,0,0,0-1.16,1.26c-.45,1.39-.7,2.79-1.05,4.21-.1.39.33.44.94.29l0,.24a23.12,23.12,0,0,0-3.44,4.47c-.67-.26-3.4,1.11-3.89,1.61l.24-.87a24.84,24.84,0,0,1,4.48-8.1c1.67-1.94-3-.23-3.73.62-2.82,3.16-4.5,7-6.26,10.82-.45.76-.87,1.54-1.26,2.33-.09-.11-.31-.13-.6-.08a19,19,0,0,0,.11-2.81c0-.77-1-.52-1.67-.29,0-.43.08-.85.1-1.29s-.64-.51-1-.47a9.83,9.83,0,0,0-2.17.49c0-.18,0-.36,0-.54,0-.61-.6-.6-1.26-.41.28-.9.53-1.81.73-2.74a.35.35,0,0,0-.2-.45,5.36,5.36,0,0,0,.69-1.52.08.08,0,0,1,0,0,1.5,1.5,0,0,0,0-.29c0-1.35-4.43.58-4.43,2,0,.54-1.29,1.79-2.47,2.85a20,20,0,0,0-5.73,4.19,9.72,9.72,0,0,0-.85,1,24.82,24.82,0,0,0-4.48,8.35c-.14,0,0,0-.16,0-.72-.13-1.13.31-1.13,1.2v2.1A3.49,3.49,0,0,0,74,427.52a1.06,1.06,0,0,0,1.73-.68,3.45,3.45,0,0,0,.43-.23.88.88,0,0,0,.4-.41,6,6,0,0,0,1-.46c.22-.13.41-.27.62-.41-.05.54-.11,1.09-.17,1.64s.59.6,1.41.25a2.65,2.65,0,0,0-.82,1.06,3.23,3.23,0,0,0-1.64,1.84c-.47,3.49.52,7.75,3.95,7.56a11.32,11.32,0,0,0,3,2.62,15.11,15.11,0,0,0,6,1.75,8.59,8.59,0,0,0,.87.7c.11.43.25.86.4,1.29.24.67,1.37.28,2.41-.34-.07,1.92.55,4,.69,5.86.06.75.92.59,1.75.25a14.64,14.64,0,0,0,.93,3.16c.57,1.37,3.9-1.33,4.27-1.92.11-.19.2-.37.3-.55a14.65,14.65,0,0,0,2.81-2.09,7.44,7.44,0,0,0,3.19-2.09A43.29,43.29,0,0,0,111,429.17a98.62,98.62,0,0,0,4.59-11.68c1.09-1.78,2.22-3.55,3.35-5.31a56.86,56.86,0,0,0,4.32-8.29,18.82,18.82,0,0,0,6.88-15.57c.37-1.09.72-2.18,1.05-3.25S129.33,384.84,129.13,384.94ZM92,428.4c.16-.83.35-1.66.55-2.49.41-.81.78-1.63,1.14-2.47l.41-.18Q93.1,425.86,92,428.4Z"/><path class="cls-1" d="M212.73,418.37A2,2,0,0,0,212,417a4.33,4.33,0,0,0-.37-.44q-.77-.8-1.5-1.62a2.42,2.42,0,0,1,0-.25c.12-.84-.9-1.58-1.54-2a5.17,5.17,0,0,0-.11-.54c-.17-.78-1.82-2-3.08-2.18a30.38,30.38,0,0,0-2.66-2.25,3.55,3.55,0,0,0-1-.5c-5-5.07-8.85-11.33-13.78-16.42-.88-.91-4.56-1.58-4-.05-.93-.27-1.69-.2-1.54.78.05.32.12.63.18.95v0a4.27,4.27,0,0,0-2.93-.63,3.9,3.9,0,0,0-.56-.5l-.12-.47c.24-1,.47-2,.7-3,.37-1.64-3.56-3.46-4.52-2a25.8,25.8,0,0,0-1.78,3.42c-.28.53-.52,1.07-.76,1.62a2.85,2.85,0,0,0-2.25-.15c-1-.73-2.35-1.15-2.88-.53a5.66,5.66,0,0,0-.8-.82c0-.67-.08-1.35-.14-2.1-.11-1.38-3.88-3.87-4.52-2-.13.4-.26.8-.4,1.21-1.05-.38-2.11-.3-2.32.74l-.18,1c-.08,0-.15,0-.15.1,0,.32,0,.63,0,.94a23.68,23.68,0,0,0-.2,3.24,12.49,12.49,0,0,0,5.5,13,18.06,18.06,0,0,0,5.74,7c1.11,9.85,6.55,20.83,13.32,27.79,1.6,5.68,7.55,8.59,13.47,7.71a.92.92,0,0,0,.69-1.14,1,1,0,0,0,.32-.25,1.47,1.47,0,0,0,.95-.37c1.6-1.42,2.23-2.64,2-3.87,2.55-5.7,7.71-11.06,10.35-17a1.15,1.15,0,0,0,.57-.79c.18-.75.35-1.48.5-2.22A15.5,15.5,0,0,0,212.73,418.37Z"/><path class="cls-1" d="M157.17,103a25.64,25.64,0,0,0-4.9,8.13c-1.15-.46-2.34-.66-2.44-.27-1.27-.66-3-1.07-3.16-.51a78.71,78.71,0,0,1-3.57,8.31,11,11,0,0,1-.24-1.32c-.11-.94-4.35-2.65-4.6-1.74-.16.61-.36,1.21-.57,1.79,0-.47-.06-.94-.08-1.41,0-1.21-3.71-2.8-4.6-2-.43.41-.88.79-1.31,1.19,0-1.32.11-2.64.14-4s-3.43-2.48-4.45-2.09c-.49.18-1,.38-1.45.59a16.1,16.1,0,0,1,2.59-2.56c.77-.6-3.34-3-4.29-2.24-3.26,2.54-5.15,6-7,9.6-.47.94,3.69,2.55,4.45,2.1,1.78-1.08,3.56-2.16,5.39-3.13a41.1,41.1,0,0,0,.15,6c.13,1.09,3.81,2.5,4.6,1.74.52-.5,1.07-1,1.61-1.46.17,1.48.38,3,.62,4.45.16,1,4,2.65,4.6,1.74a34.63,34.63,0,0,0,2.16-3.44l.07.12c.43.81,3.87,2.83,4.59,1.74.53-.78,1-1.58,1.46-2.38.93.93,3.92,2.2,4.32,1.33a35.81,35.81,0,0,0,1.5-3.81c1.06.4,2.08.57,2.18.13,1.17-5.42,3-10.55,6.83-14.7C162.18,104.53,158.12,102,157.17,103Z"/><path class="cls-1" d="M169.92,112.6a149,149,0,0,1-.64,16.24c-.3-.59-.6-1.18-.94-1.77s-3.15-3-3.14-3.44a33.61,33.61,0,0,1-.73,6.38c-.14-1.21-.19-2.43-.21-3.64,0-.72-1.57-2.05-2.53-2.94-.25-.28-.49-.56-.73-.85-.48,1.65-.95,3.31-1.42,5a30,30,0,0,1-2.26-2.33c-1.6,5.16-1.38,10.52-1.83,15.84-1.64-3.53-3.1-7.33-2.79-10.48.14-1.37-3.34-3-3.26-3.79-.53,5.32,3.7,12.22,5.78,16.93.33.74,3.3,3.38,3.26,3.67.53-3.9.49-7.84.86-11.73l1,.89c.24.29.49.57.74.86l1.65-5.77a14.62,14.62,0,0,0,1.19,2.14c.22.32,2.91,3.17,2.94,3.11a28.39,28.39,0,0,0,1.37-6.43c.21.57.42,1.13.62,1.7.28.84,3.31,3.33,3.26,3.68a128.86,128.86,0,0,0,1.05-19.44C173.19,114.93,169.92,113.52,169.92,112.6Z"/><path class="cls-1" d="M98.77,125.5c-6,4.72-9.17,11.75-12,18.83a41.54,41.54,0,0,0-4,9.84.69.69,0,0,1,0,.13,2,2,0,0,0-.18.83c-.21.94-.39,1.87-.52,2.83a2.72,2.72,0,0,0,2.64,2.78,2.81,2.81,0,0,0,2.92,2c-.09.5-.18,1-.31,1.5-.34,1.4,1.09,2.54,2.46,2.74-3.76,7.62-7.08,15.41-7.71,24-.18,2.55,4.56,4.09,4.76,1.32.79-10.92,6-20.37,10.86-30,1.12-2.23-2.39-4.23-4.09-2.77-.2.17-.4.32-.61.48,0-.29.09-.57.15-.85a2.42,2.42,0,0,0-1.88-2.6c.21-.54.42-1.08.65-1.62.62-1.39-.68-2.93-2.09-3.3A75.24,75.24,0,0,0,93.4,143a2.14,2.14,0,0,0-.05-1.54c2.24-4.89,5-9.43,9.18-12.74C104.7,127,100.77,123.92,98.77,125.5Z"/><path class="cls-1" d="M88.27,220.29c-1.26,1.89-2.51,3.79-3.72,5.7,0-.62.06-1.25.07-1.88,0-1.37-1.12-1.51-2.28-1.16,0-.32.12-.63.17-.95.16-1-.25-1.52-.88-1.7.81-3.28,1.66-6.56,2.46-9.86.59-2.47-3.31-2-4.22-.65a43.58,43.58,0,0,0-3.21,5.61,45.14,45.14,0,0,1,4.11-11.79c1.44-2.76-3.26-2.79-4.37-.68-5.42,10.34-5.92,22.17-6.47,33.61-.1,2.22,2.24,2.15,3.67,1.07a1.26,1.26,0,0,0,.75,1.08c-.31,1.72-.58,3.45-.74,5.2-.28,3,4.19,1.84,4.7-.36.08-.35.17-.71.25-1.06,1.23.14,2.89-.46,3.26-1.57C84.11,234,88,228,92,222,93.82,219.24,89.71,218.12,88.27,220.29Z"/><path class="cls-1" d="M197.17,241.39v0h0c0-.18-.06-.37-.09-.56,0-.38-.49-.76-.49-1.1v-6.21a3.63,3.63,0,0,0-2.53-3c0-.58,0-1.16-.05-1.74a4.24,4.24,0,0,0-2.42-3.08c-.1-1.59-.17-3.19-.19-4.8s-2.9-4.33-3.73-2.61c0,0,0,0,0-.06a4.15,4.15,0,0,0-1.58-2c0-1.61.05-3.22.07-4.83s-2.62-4.27-3.66-2.63c-.34-2.82-.63-5.65-1.13-8.45-.32-1.77-3.89-4-3.89-1,0,1.31-1.46,3.53-1.91,4.74q-.39,1.08-.72,2.19a41.73,41.73,0,0,1-2.35-11.1c-.08-2.13-4.07-4.64-3.95-1.61.27,6.78,2.95,13,4.79,19.48.35,1.2,3.17,4.14,3.82,1.56.49-1.95,1-3.89,1.58-5.81a58.09,58.09,0,0,0,1.43,7.93,4.68,4.68,0,0,0,2.07,2.38,32.88,32.88,0,0,0,1.08,7.07,4.85,4.85,0,0,0,2.8,2.59,4.48,4.48,0,0,0,2.1,2c.11,1.11.23,2.23.35,3.34a3.78,3.78,0,0,0,2.36,2.49c.37,2.5.83,5,1.32,7.49a3.31,3.31,0,0,0,1.21,1.74,3.22,3.22,0,0,0,.24.28c0,1.41.06,2.82.06,4.24,0,2.15,4,4.66,3.95,1.61A93.93,93.93,0,0,0,197.17,241.39Z"/><path class="cls-1" d="M183,269.41a21,21,0,0,0-1.3,5.27c-.17-.52-.34-1-.5-1.57-.58-1.89-4.61-3.54-4.62-.54,0,.67,0,1.34,0,2a1.5,1.5,0,0,0-2,1.13,47.85,47.85,0,0,0-1.55,8.51c-2.71-5.25-5.25-10.59-6.55-16.36-.58-2.57-5.27-3.06-4.57,0,2,8.84,6.64,16.72,10.69,24.73.87,1.71,4.17,2.56,4.43,0s.39-5,.66-7.52a2.17,2.17,0,0,0,2.73-.58c.77,1.52,3.65,3.13,4.37.76,1.37-4.49.84-9.3,2.63-13.66C188.43,269.17,184.08,266.77,183,269.41Z"/><path class="cls-1" d="M121.89,286.26c-.44,1.64-1,3.25-1.53,4.83-.53-1.44-2.84-1.69-4.11-.83a1.79,1.79,0,0,0-1.47-1.43c0-1.32,0-2.65,0-4,0-4.55.19-12-4-15-1.79-1.31-6.08.55-3.6,2.37,3.68,2.69,2.61,12.1,2.57,16,0,2,.1,4,0,6a19.88,19.88,0,0,0-.24,10.88v.21h-.4s0,.22.07.37c.37,2,4.91,1.76,4.93-.37,0-1.54.06-3.11.12-4.65a2.89,2.89,0,0,0,2.4-1.23l.3-.61c0,.16.09.32.13.47.55,2,4,1.63,4.82.14a54.12,54.12,0,0,0,4.73-12.09C127.34,284.83,122.45,284.13,121.89,286.26Z"/><path class="cls-1" d="M175.58,75.72c-.33-1-1-1.86-1.25-2.86a2.32,2.32,0,0,0,1.43-2.65,3.39,3.39,0,0,0-.67-1.29A2.73,2.73,0,0,0,174,68a9.73,9.73,0,0,1-1-1.66c-1.13-2.42-4.78-1.47-4.17,1.26.46,2,.46,4.32,1.05,6.31.48,1.63,1,3,1.46,4.41-1.51-.4-3.17.37-2.51,2.42.1.3.19.61.29.91a2.14,2.14,0,0,0-.57,2.82,34,34,0,0,1,2.38,6.77c.56,2.37,4.64,2.8,4.53-.08a31.81,31.81,0,0,0-.47-4.29,1.56,1.56,0,0,0,1.47-1.43A23,23,0,0,0,175.58,75.72Z"/><path class="cls-1" d="M161.65,52.4c-.23-1.22-3.6-4.44-3.3-2.92a30.29,30.29,0,0,1,.43,3.51c-.74-1.05-1.48-2.09-2.25-3.12-.21-.28-2.63-2.58-2.39-.92a22.75,22.75,0,0,1,.16,4.2c-.53-.91-1.06-1.82-1.6-2.72-.21-.35-2.93-3.31-2.76-1.48a26.77,26.77,0,0,1-.36,5.73,5,5,0,0,1-.62-1.21c-.33-1-1.51-3.19-2.81-3.19h-.52a.44.44,0,0,0-.39.36,14.78,14.78,0,0,1-.82,3.09c-.06-.24-.11-.47-.18-.72-.23-.8-3.44-4.29-3.23-2.49a13.07,13.07,0,0,0,.41,2,8.25,8.25,0,0,1-.09,2.82,6.57,6.57,0,0,1-.16-.82c-.09-.76-2.52-4.72-3.28-3.25A9.49,9.49,0,0,1,136,53.7a1.84,1.84,0,0,1-.05-.25c-.08-.62-2.27-4.52-3.15-3.47A20.09,20.09,0,0,1,126,55.76c-.52.25,0,1.51.72,2.57-1,.24-3.5.31-4.18,1.16-5.29,6.73-7.82,14.89-11.09,22.68l1.35-.43.17,0c-.7,1.55-1.44,3.08-2,4.66a.46.46,0,0,1,.19-.13l.62-.19c.74-.18,1.83-.38,2.69-.62-.27.84-.54,1.68-.87,2.52a.45.45,0,0,0,.36,0c1.45-.25,2.35-1,2,1.09-.44,2.25-.82,4.51-1.26,6.77a14.73,14.73,0,0,1,2.64-.65c-.17,2.67-.68,5.31-1.06,8,0-.34,4.61-.5,4.75-1.53.55-3.87,1.39-7.63,1.05-11.56a14.19,14.19,0,0,0-1.91.4c.29-1.54.57-3.07.86-4.6,0-.11-.81.07-.75,0-2.88.68.37-5.7.75-6.35a.41.41,0,0,1-.09.1l-1.28.39c-.61.1-1.31.18-1.93.32a32.52,32.52,0,0,0,1.73-4.49,4.52,4.52,0,0,1-1.42.43c2.45-6.21,4.84-12.45,8.94-17.8.67.86,1.51,1.52,2.09,1.24a18,18,0,0,0,5.64-4.41c.14.25.28.52.42.8.24.48,2,3.36,2.87,2.56.65-.6,1.25-1.16,1.78-1.75.37.76.75,1.53,1.13,2.34.18.39,2.52,3.72,3,2.34a18.08,18.08,0,0,0,.8-2.92c.71.83,2.21,2.33,2.35,1.35a46,46,0,0,1,1.33-4.62A25.78,25.78,0,0,1,150,57.76c.12.17,2.63,3.07,2.73,1.8.12-1.55.38-3,.51-4.51.41.72.82,1.44,1.21,2.17.24.46,3,4,3,2,.06-1.58.19-3.14.18-4.7.62.89,1.22,1.78,1.8,2.7.24.39,2.76,3.33,2.75,1.47A33.29,33.29,0,0,0,161.65,52.4Z"/><path class="cls-1" d="M191.28,145.5a15.73,15.73,0,0,0-1.12-1.8c-.78-4.18-1.35-8.39-2.22-12.56a8.5,8.5,0,0,0-2.34-2.91,53.75,53.75,0,0,1-1.33-7.07c-.18-1.1-3.54-4.38-3.36-2.82,0,.13,0,.26.05.4a63.1,63.1,0,0,0-2.59-6.91c-.31-.66-3.66-4-3.24-2.42a20.31,20.31,0,0,1,.55,2.73c-1.06-1.28-2.89-2.71-2.65-1.68.72,3.17,1.72,6.24,2.75,9.33.17.52,3.09,3.94,3.25,2.74.07-.53.12-1,.17-1.57a58.68,58.68,0,0,0,2.35,6.19,14.28,14.28,0,0,0,1.69,1.94c.76,2.52,1.62,5,2.52,7.51a2.4,2.4,0,0,0,.39.6c.33,2,.66,3.89,1.06,5.82.17.84,2.86,3.55,3.31,3.28C191.41,146.92,192.1,147,191.28,145.5Z"/><path class="cls-1" d="M228.15,196.2c-.2-.92-1.66-1.19-3-1-.1-1.24-.18-2.49-.2-3.74,0-1-1.73-1.23-3.13-.91,0-.57,0-1.14,0-1.72,0-.86-1.29-1.15-2.56-1-.21-3.33-.09-6.67-.06-10,0-1.27-2.66-1.29-4.09-.52a45.42,45.42,0,0,1-.64-6.31c0-.89-1.49-1.18-2.83-1-.11-.72-.23-1.44-.32-2.17-.12-.94-1.66-1.21-3-1-.2-1.08-.42-2.16-.68-3.23-.42-1.74-5.35-1-5,.48,1.35,5.56,1.68,11.29,3.15,16.81.23.9,1.82,1.19,3.13,1l0,.07c.18.81,1.22,1.12,2.3,1.06q.61,2.37,1.38,4.72a1.79,1.79,0,0,0,1.65,1,38.49,38.49,0,0,0,.46,3.85c-1-.2-1.92-.22-2.08.17-2.15,5.25.69,9.88,1.07,15-.33,0-.54.08-.54.2a44.25,44.25,0,0,1-.27,4.8c-.19-.58-.39-1.16-.61-1.72s-2.47-1.12-3.84-1.19c-.28-.83-.58-1.66-.88-2.49s-3.42-1.29-4.52-1.16c-1-.14-1.91-.12-2,.19-1.35,7.1,1.94,13.92,4.2,20.48.31.91,4.65,1.47,4.88,1,1.29.22,2.65.22,2.65,0,0-1.44-.28-2.88-.33-4.32,1.43.37,3,.48,3,.12v-5.49c1,0,1.21-.06,1.28-.29a30.87,30.87,0,0,0,1.1-6.59c.34,0,.63-.1.64-.23.51-5.3-2.48-9.92-1.68-15l.31,0a31.68,31.68,0,0,0,.68,3.68c.23.93,1.61,1.19,2.86,1l.3,2.15c.14,1,1.76,1.22,3.11,1,.2,2.31.34,4.62.57,6.93.16,1.69,5.14,1.2,5-.48C229.25,205.64,229.17,200.86,228.15,196.2Z"/><path class="cls-1" d="M191.29,153.5a20,20,0,0,0-3.63,6.43c-.87-.31-1.59-.45-1.62-.13a11.5,11.5,0,0,1-.52,2.34l-.2-.07c-.07,0-2.28-.53-1.88,0a6.91,6.91,0,0,1,.76,2.06c.29.78,1.64,1.25,2.3,1.57.2.1,3.09,1.25,3.14.65a16.94,16.94,0,0,1,.73-3.07c.68.21,1.24.25,1.37-.08,1.11-2.8,2.12-5.63,4.2-7.88C196.14,155.12,192.15,152.57,191.29,153.5Z"/><path class="cls-1" d="M113.85,116.53c.38-.4.66-.86.46-1.28a3,3,0,0,1-.32-1,2.57,2.57,0,0,1,0-.48.71.71,0,0,1,0-.12.34.34,0,0,1,0-.08c.33-.5.58-1.16-.28-1.17a4.6,4.6,0,0,0-3.07,1.55,3.67,3.67,0,0,0-1,2,3,3,0,0,0,0,.42,1.61,1.61,0,0,0-1.38.71,3,3,0,0,0-.54,3,2.79,2.79,0,0,0,2.47,1.77,2.51,2.51,0,0,0,1.29-.43,10.75,10.75,0,0,0,2.19-1.74,2,2,0,0,0,.71-1.42A2.8,2.8,0,0,0,113.85,116.53Z"/><path class="cls-1" d="M104.75,104.71c-3.19,0,1,1.72,2.3,1.72C110.24,106.43,106,104.71,104.75,104.71Z"/><path class="cls-1" d="M108.78,65.67c-3.64,4.77-6.87,9.83-11,14.18-.54.56.83,1.17,2.26,1.37a4.69,4.69,0,0,0,1.81.64,30.06,30.06,0,0,1-.51,5.08c-.12.63.56,1,1.46,1.15-.12.67-.25,1.34-.41,2s1.07,1.18,2.37,1.24c-.29,2.77-1.54,5.36-2.78,8-.36.74.46,1.2,1.52,1.38l-.06.45c-.17,1.48,4.16,1.66,4.86.75A6,6,0,0,1,110.1,100c.83-.61-.07-1.19-1.27-1.49,0-.19.06-.38.08-.57,0-.43-.25-.74-.71-1,1.22-3,2-5.93,1.17-9.3-.1-.45-.63-.74-1.29-.91.09-.48.19-1,.31-1.44s-.56-1-1.49-1.14a50.19,50.19,0,0,1,2.54-9.37c.19-.49-.35-.82-1.15-1,1.75-2.37,3.44-4.78,5.23-7.13C114.39,65.54,109.67,64.49,108.78,65.67Z"/><path class="cls-1" d="M170.1,41.3a36.78,36.78,0,0,0-5.75-6.17c-.5-.61-1-1.23-1.45-1.87a.43.43,0,0,0,0-.63c-.07-.11-.13-.35-.2-.35h0v0a17.77,17.77,0,0,0-2.09-2.6,3.18,3.18,0,0,0-1.26-.52c0-.15-.09-.31-.32-.52a7.1,7.1,0,0,0-2.39-1.59,6.51,6.51,0,0,0-1.39-.19c-1.12-.45-2.24-.89-3.34-1.39-.8-.36-4-.21-3.92.56-.28-.08-.57-.15-.85-.24-.67-.21-2.68-.21-3.18.35a6.55,6.55,0,0,0-3.5,0,2.55,2.55,0,0,0-.49,0,24.51,24.51,0,0,0-6.73,3.31c-1.94,1.34,2.81,2.17,3.64,2l2.52-.5a4.88,4.88,0,0,0,2.4.32,21.25,21.25,0,0,0,4.31,1.26c.35.07,3.32.12,2.62-1-.08-.13-.16-.26-.25-.39l.66.17c.53.13,4.47.4,3.06-1.14l-.94-1c1.25.27,2.51.52,3.78.74l.17,0c.36.32.71.65,1.07,1-1,.05-1.85.37-1.17,1.26q2.21,2.88,4.5,5.67a33.93,33.93,0,0,0-9.44-3.81c-2.93-.63-3.26,1.58-.38,2.2,5.77,1.25,10.47,5.33,15.59,8,.67.36,5,.72,3.63-.92l-.79-.93C169.64,42.58,170.86,42.31,170.1,41.3Z"/><path class="cls-1" d="M131.37,41.72a12.06,12.06,0,0,0-1.05-2.62,1.35,1.35,0,0,0-1.07-.69,2.08,2.08,0,0,0-.7-.24,2.26,2.26,0,0,0-2.46-2.09c-2.54,0-3.5,1.63-3.72,3.55-.84-.08-1.68-.16-2.53-.2-1.45-.06-4.91,2.32-2.17,3a17.73,17.73,0,0,0,1.88.35c-.49.2-1,.44-1.49.6-1.67.51-3,2.88-.36,2.88h.6c-.46,0-.92.55-1.37.85-1.74,1.17-.54,1.92.78,2.06a31.91,31.91,0,0,0-7.25,9.17c-1.12,2.11,3.73,1.4,4.53-.11A27.56,27.56,0,0,1,124.28,48c1.57-1,.76-1.78-.38-2l.91-.61c1-.66.94-1.48.32-1.93a6.21,6.21,0,0,0,1.35-.38,2.88,2.88,0,0,0,.17.31C127.62,44.94,131.82,43.66,131.37,41.72Z"/><path class="cls-1" d="M188.59,313.92a33.83,33.83,0,0,0-1.38,4.54,2.77,2.77,0,0,0-2.15,0c0-.11,0-.22-.05-.33-.31-1.63-4.14-2.9-4.82-1-.35,1-.64,1.95-.91,2.95-.13-2.7-.1-6.48-1.19-8.84-.57-1.24-3.51-2.21-4.48-.95a5.16,5.16,0,0,0-.77,1.58c-.26.68.21,1.29.94,1.72a4.58,4.58,0,0,0,.08.79,47.29,47.29,0,0,1,.69,7,70.62,70.62,0,0,0,1.41,12.4c.38,1.58,4.12,3,4.82,1q.36-1,.66-2c.9,1.32,4.21,2.09,4.6.44s.77-3.6,1.15-5.39c1.37.72,3.42.86,3.57-.39a50.7,50.7,0,0,1,2.63-12.08C194.1,313.49,189.34,312,188.59,313.92Z"/><path class="cls-1" d="M128.64,346.26a28.76,28.76,0,0,0-5.85,11.42c-1-.13-2-.12-2,.13-.42,1.38-.79,2.76-1.16,4.15-1.22-.2-2.44-.25-2.52.05-.29,1.13-.61,2.25-.93,3.36-.2-.05-.43-.11-.65-.15a2.59,2.59,0,0,0-.33-.64c0-.21-.06-.43-.07-.64-.07-1.87-2.92-4.21-4.35-2-1.17,1.81-2.2,3.79-3.48,5.54a6.69,6.69,0,0,1,0-1.95c.22-1.69-1.61-3-3.09-2.74-1.15-1.42-4-1.56-4.3.76a33.2,33.2,0,0,0,0,10.05c.38,2.49,3.93,2.95,4.66.57a3.55,3.55,0,0,0,.54.3c-.41,1.38-.79,2.77-1.18,4.16a12,12,0,0,0-3.08-.53,4.6,4.6,0,0,0-.51-.14,22.25,22.25,0,0,0-.87-4.55,2.59,2.59,0,0,0-2.17-1.7c.06-4.37.68-8.68,1.12-13.05.14-1.32-1.16-2.14-2.46-2.23.13-.66.26-1.31.36-2,.21-1.34-1.16-2.16-2.52-2.23l.42-2.5c.36-2.17-3.15-2.73-4.44-1.68a8.42,8.42,0,0,1-1.62,1.06,37.47,37.47,0,0,1,.28-4.1,1.67,1.67,0,0,0-.73-1.59c.25-1.22.49-2.44.73-3.67.47-2.36-4.46-3.22-4.93-.85-.65,3.31-1.26,6.63-2.07,9.9a32.57,32.57,0,0,0-2.13,6.91c-.36,2.13,4,3.25,4.76,1.31.06-.15.11-.31.16-.46h0s0,0,0-.06c.34-.93.65-1.87.94-2.82a3.22,3.22,0,0,0,1.24,0c.76-.17,1.46-.33,2.14-.52-.27,1.55-.55,3.1-.85,4.65-.23,1.19,1,2,2.24,2.23a72.86,72.86,0,0,0-1.72,7.75c-.26,1.86,2.74,2.86,4.18,1.94a53.69,53.69,0,0,0,0,5.38c.08,1.3,1.53,1.78,2.82,1.69a36.48,36.48,0,0,1-.21,9.38,2,2,0,0,0,1.56,2v5.85c0,.76,4.9,1.28,4.94.82s.07-.61.1-.92c1.36.52,3.3.21,3.59-1.16.16-.79.3-1.6.45-2.43,1.28.32,2.85,0,3.23-1.25.2-.67.37-1.33.53-2,.32-1.07.68-2.11,1.07-3.15,1,.15,2,.16,2.08-.12.29-.85.54-1.7.77-2.56,1.13.2,2.23.26,2.38-.07.29-.66.45-1.32.73-2a9.79,9.79,0,0,0,4.13.54v.1c0,.83,5,1.17,5,.82,0-11.22.14-24.67,7.92-33.62C133.35,347.27,129.49,345.29,128.64,346.26Z"/><path class="cls-1" d="M201.05,299.72A17,17,0,0,0,198,306.4c-.28,1.05.58,1.5,1.65,1.5,0,.54,0,1.07,0,1.61a1.84,1.84,0,0,0-.62,1.09c-.28,2-.48,4-.64,6-1,.29-1.93,1-2,1.85q-.3,4.53-.54,9.06a3.45,3.45,0,0,0-2.23,1c-1.33.09-2.88.92-3,2-.21,1.79-.33,3.58-.42,5.37-1.27.14-2.65.94-2.74,2-.07.84-.13,1.67-.2,2.5a2.23,2.23,0,0,0-.85,1.18c-.05.22-.09.45-.14.67a2.7,2.7,0,0,0-2.35,1.52c0,.16-.08.5-.13.5h-.24v0c-1,2.48-1.2,5-1.69,7.52a2.88,2.88,0,0,0-2.24,1.6c-.39-1.28-2.32-1.41-3.6-.75,0-.47,0-.93,0-1.4a1.43,1.43,0,0,0-.74-1.37,21.46,21.46,0,0,0-.43-2.67c-.14-.74-2.34-1.49-4.34-1.34v-3.39c0-1-4.61-1.79-4.76-1-.35,1.79-.64,3.58-1,5.35.05-2.66.22-5.34.25-8,0-1.1-4.87-1.61-4.88-1q0,2.78-.21,5.55c-.17.05-.28.12-.3.23a62.72,62.72,0,0,0-1,10.77c-.28,2.35-.52,4.71-.57,7.09,0,.23.29.46.73.67-.12,1.34-.18,2.69-.21,4.05,0,.66,2,1.19,3.47,1.29.13,2,.19,4,.21,6.07,0,.47,1,.87,2.12,1.09.14.35.77.64,1.54.86,0,.46,0,.91,0,1.36,0,2.72,4.32,1.59,4.89-.36.07-.23.12-.46.19-.69.65.75,2.09.69,3.18.13.07,1,.12,1.95.14,2.86,0,.61,1.9,1.17,3.32,1.3.77.76,3.87,1.49,4.6.93.36,1,4.81,1.52,4.86.89.18-2.72.38-5.42.62-8.12l.18-.2a13.43,13.43,0,0,0,1-1.33c.43,0,.75-.12.84-.33a27.7,27.7,0,0,0,1.69-5.3,33.91,33.91,0,0,0,1.47-11.35,1.89,1.89,0,0,0,.52-.85,49.57,49.57,0,0,0,1-5.87c1.35.07,3-.82,3.22-2,.12-.76.21-1.51.29-2.27,1.18-.23,2.33-1,2.34-1.93,0-3,.1-6.06.22-9.08,1.21-.15,2.4-.87,2.4-1.95,0-2.7,0-5.39.08-8.09a2,2,0,0,0,1-1.37,71.58,71.58,0,0,0,.63-10.13,1.71,1.71,0,0,0,.42-.9,78.33,78.33,0,0,0,.53-10.5C205.52,298,202.05,298.44,201.05,299.72Zm-18.47,67.46v2.26c0-.14-.61-.29-1-.43.14-.6.37-1.19.5-1.79A2.26,2.26,0,0,0,182.58,367.18Z"/><path class="cls-1" d="M152.17,284.86a39.57,39.57,0,0,0-3.56,3.53c-.18.07-4.3,1-4.54,2.05a19.07,19.07,0,0,0-.47,3.33c-1.1.36-2.16.84-2.16,1.39,0,1,0,2,0,3.06-1.28.39-3,1-3.12,1.67-.36,1.56-.63,3.13-.86,4.71-1.29.37-2.81.93-2.82,1.59,0,1.33-.05,2.65-.06,4-1.34.34-3.62,1-3.62,1.81,0,.55,0,1.11,0,1.66-1,.23-4,1.25-4.21,2-.06.23-.11.47-.16.71-1.16.29-3.92,1.05-4,1.92-.19,1.37-.39,2.73-.6,4.1-1.33.37-3.08,1-3.08,1.67.06,5.79.47,11.56.53,17.34,0,0,4.46-.94,4.56-2.06,0-.14,0-.28,0-.43,1.25-.39,2.9-1,3.07-1.54a42.71,42.71,0,0,0,1.21-4.67c0,.1,0,.19.05.29.05.34,4.24-1.26,4.52-1.92.18-.43.34-.86.5-1.29,1.27-.36,3.59-1.44,3.74-2a58.51,58.51,0,0,0,1.48-8.25c.88-.41,1.62-.88,1.67-1.21.31-2.24.54-4.49.76-6.74,1.23-.44,2.73-1.11,2.88-1.53a35,35,0,0,0,1.76-8,.93.93,0,0,0,.34-.36,49.3,49.3,0,0,0,2.11-7.9,36.36,36.36,0,0,1,8.2-10.3C156.8,283,152.93,284.19,152.17,284.86Z"/><path class="cls-1" d="M167.16,212.6c.41-2-4.52-1.44-4.86.24-1.05,5.09-.5,10.08.31,15.07a2.81,2.81,0,0,0-1.07.77c0-.59-.08-1.17-.14-1.73-.16-1.77-4.92-.88-4.9,1,0,3.52.35,7.11.47,10.7-1.35,0-3,.67-3.08,1.55a51.47,51.47,0,0,0-.22,7.37c-1.34-.1-3.16.64-3.46,1.56-.17.53-.33,1.07-.5,1.61-.74-1.07-4.55-.35-4.75,1q-.08.53-.15,1c-.18-2.26-.21-4.56-.21-6.87,0-1.08-2-1.13-3.48-.61.09-1.25.19-2.5.3-3.76.19-2.07-4.71-1.41-4.86.24-.53,5.94-.93,11.77,0,17.69.24,1.62,3,.95,4.27,0a24.56,24.56,0,0,0,1,3.13c.44,1.12,2.3,1.13,3.58.59,0,.33.06.65.1,1,.23,1.91,4.37.62,4.88-.6s.94-2.4,1.36-3.61l.06.53c.24,2,4.32.51,4.89-.6a18,18,0,0,0,1.75-6.51,2.85,2.85,0,0,0,1.92-1.37,30.93,30.93,0,0,0,1.66-7.23c1.4.69,4.59.24,4.59-1.53v-2.82c1,0,3-.73,2.93-1.91C168.74,229.84,165.36,221.33,167.16,212.6Z"/><path class="cls-2" d="M125.93,32.65c-12.41-1.15-16.3,9.57-18,20-.08.51.54.67.9.67h4.55c-.24,0-.48-.7-.72-1-4.28,4.63-8.64,10.12-10.35,16.32-.78,2.8-3.74,5.48-5.29,8a44.83,44.83,0,0,0-4.2,9.38c-.2.57.32.86.84.83a17.93,17.93,0,0,0,11.51-5.21L103.54,81c-3.21,3.76-4.7,8.3-6.18,13-.27.86.8.93,1.35.7,3.05-1.28,5.27-1,7.8-3.33l-1.62-.38c-.35,6-4,10.36-6,15.78-.31.84.82,1,1.35.7,3.82-1.82,6.45-2.7,8.08-6.85.42-1.06-1.5-1-1.85-.23a119.61,119.61,0,0,0-4.55,12.77c-.31,1,1,.91,1.57.57,2.7-1.72,4.2-4.15,6.23-6.55.8-.93-1-1.26-1.62-.58-1.91,2.25-3.33,4.59-5.9,6.23l1.57.56a119.61,119.61,0,0,1,4.55-12.77l-1.85-.23c-1.42,3.61-4,4.44-7.09,5.92l1.36.7c2-5.57,5.77-10,6.12-16.16.05-.81-1.2-.76-1.62-.38-2.3,2.08-4.74,2-7.38,3.07l1.36.69c1.43-4.5,2.83-8.94,6-12.59.84-1-1-1.15-1.62-.59a15.19,15.19,0,0,1-9.73,4.37l.85.83a44,44,0,0,1,9-15.79c1.37-1.53,2.24-6,3.37-8a48.6,48.6,0,0,1,7.25-9.52c.53-.58-.2-1-.73-1-3.09,0-3.64.31-3-2.84a40,40,0,0,1,1.9-6.62c2.2-5.76,6.6-8.85,12.85-8.27,1,.09,2-1.3.67-1.42Z"/><path class="cls-2" d="M127.7,32c3.86-2.05,7.66-4.24,11.68-6,6-2.58,11.74-1.4,17.38,1.38.45.23,1.82-.07,1.82-.69v-3.2a8.78,8.78,0,0,0-1.82.7c6.06,3.53,9,9.68,11.92,15.79.28.6,1.9.11,1.9-.52v-1.6a10.68,10.68,0,0,0-1.88.63c3.47,5.24,8.33,9.89,10.55,15.86l1.87-.62-1.52-1.6c-.34-.36-2.09.05-1.87.62,1.83,4.71,5.76,8.31,7.59,13a3,3,0,0,1,1.35-.51H180.6c-.34,0-1.28-.07-1.35.39-1.14,7.63,6.86,13.6,10.69,19.27.6-.24,1.2-.54,1.8-.79-2.6-3.66-5.23-4.92-9.62-5a1.63,1.63,0,0,0-1.28.49c-2.72,4.72-1.19,6.9,3,9.93.51.37,2.26-.4,1.8-.73-2.47-1.78-5.1-3.4-4.26-6.83,1.23-5,7.07.7,8.53,2.76.33.48,2.2-.13,1.8-.73C188,78.54,180.06,72.82,181.18,65.4c-.45.21-.9-.12-1.35.88h6.07c.26,0,1.55-.5,1.35-1-1.83-4.71-5.76-8.19-7.59-12.9-.62.21-1.24.36-1.86.57.5.53,1,1,1.52,1.56.33.36,2.08,0,1.86-.63-2.26-6.06-7.19-10.77-10.71-16.08-.32-.5-1.89,0-1.89.61V40a15,15,0,0,0,2-.52c-3-6.32-6-12.5-12.28-16.15-.44-.26-1.68.1-1.68.7v3.19c0-.23,1.12-.46,1.7-.69-12-5.94-20.82-.81-31.73,5-1.15.61.57.78,1.15.47Z"/><path class="cls-2" d="M185.9,91.37c.7,0,2.07-1.06.77-1.06-.7,0-2.07,1.06-.77,1.06Z"/><path class="cls-2" d="M181.84,91.81c-2.74.1-5.32,1.26-6.39,3.92-1.18,2.93.42,6.13,2.36,8.29.52.59,2.37-.15,1.78-.81-3-3.3-4.13-9.92,2-10.14,1,0,1.53-1.31.21-1.26Z"/><path class="cls-2" d="M174.58,102.11v8c1-.24,1-.81,1.43-.81h-4.55c-.86,0-2,1-.7,1h4.56c.39,0,1.26.21,1.26-.36v-8c0-1-2-.61-2,.18Z"/><path class="cls-2" d="M129.77,58.44c2.63-2.86,6.62-7.9,9.66-3,.47.76.36,3.56,1.51,3.89,3.56,1,4-4.42,4.06-6.48l-1.94.35c.95,2.67,2.14,4.48,5,5,.45.08,1.47-.29,1.32-.89a13,13,0,0,1,0-4.45l-1.55.69c2.93,1,4.41,3.77,6.58,5.74.42.39,1.86.27,1.86-.5a42.89,42.89,0,0,0-.63-8.08l-1.86.67a26.6,26.6,0,0,0,6.27,7.91,1.24,1.24,0,0,0,1.86-.5l.63-2-1.32.73c.45,0,.55,1.7.64,2.27.11.79,2,.32,1.93-.52s-.41-1.72-.63-2.63c-.06-.25-.39-.36-.61-.36h-.63c-.52,0-1.15.16-1.32.71L160,59l1.86-.51a26.6,26.6,0,0,1-6.27-7.91c-.33-.64-2-.08-1.85.66a41.85,41.85,0,0,1,.62,7.75l1.86-.5c-2.46-2.24-4-5-7.21-6.13-.46-.16-1.5.1-1.55.69a14.53,14.53,0,0,0,0,4.79l1.32-.9c-2.37-.42-3.09-2.33-3.78-4.24-.25-.71-1.93-.37-1.94.35,0,1.31-.78,5.86-1,2.67a9.19,9.19,0,0,0-2.36-3.53C135,49.6,130.93,55,128.19,58c-.81.87,1.06,1,1.58.46Z"/><path class="cls-2" d="M140.37,80c-2.9.39-4.05,2.57-4.21,5.34,0,.48.5.55.86.53,3.59-.2,3.14,2.68,5.62,4,1.54.82,4,.17,5.3-.73.8-.53,1.71-2.14,2.67-2.14s2.08.66,3.08.21c2.6-1.18,2-4.62.63-6.35-.49-.6-2.34.12-1.78.81a4,4,0,0,1,1,1.86q-2,4.05-.66,2.49a9.08,9.08,0,0,0-2.54-.27c-1.93.19-2.32,2.3-4,2.86-3,1-3.23-1.28-4.85-3-1.11-1.13-2.83-1.14-4.29-1.06l.86.53c.08-1.3.18-3.65,2.06-3.9,1-.13,1.54-1.42.21-1.25Z"/><path class="cls-2" d="M154.79,72.07a8.19,8.19,0,0,1,3.26-1.16c.17,0,3.09.83,2.33,1.54-1.28,1.21-4.1.58-5.69.55-.2,0-1.9.51-1.55.7,1.26.66,2.51,1.47,3.76,2.13a4,4,0,0,1,1.55-.55h-4.39c-.26,0-2,.43-1.43.59,3.09.8,5.91,1.06,8.87-.33,0,0,.52-.28.42-.4-2-2.55-5-2.39-7.86-2.36-.37,0-2.2.5-1.26.5h5c.19,0,1.91-.13,1.55-.46-.81-.73-1.76-.59-2.79-.6-.39,0-2.2.81-1.27.82a3,3,0,0,1,2.23.77,4.15,4.15,0,0,1,1.55-.53h-5a2.94,2.94,0,0,0-1.26.61c2.63,0,5.35-.53,7.19,1.8.13-.13.27-.28.41-.4-2,.94-4.17,0-6.17-.51a3.32,3.32,0,0,1-1.43.5h4.39c.19,0,1.9-.28,1.54-.47-1.25-.66-2.51-1.21-3.76-1.87-.52.24-1,.53-1.55.76,3.1,0,6.57.57,9-1.75a.16.16,0,0,0,.09-.16c-2.39-3-6.43-1.19-9.22.25-.81.43,1.14.21,1.47,0Z"/><path class="cls-2" d="M138,73c-1.64-3-7.39-4.47-9.33-1a.43.43,0,0,0,.16.59c2.66,1.92,5.72,1.25,8.8,1.21.82,0,1.63-1.51.46-1.51h-6.27c-.4,0-1.26.63-1.26,1.19v.66c0,.18,0,.35.19.43a12.7,12.7,0,0,0,5.4,1.44c.39,0,2-.74,1.09-1.16a12.93,12.93,0,0,0-5.42-.82c-.23.43-.47,1.26-.7,1.26h6.27c.84,0,2-1,.7-1h-6.27c-.85,0-2,1.17-.7,1.17a11.21,11.21,0,0,1,4.61.49c.37-.39.73-.81,1.1-1.2a10.8,10.8,0,0,1-3-.54c-.2-.06-1.3-.73-1.3-.35v-.56c-1,.24-1,1-1.44,1h6.27a3.85,3.85,0,0,1,.45-1.41c-2.65,0-5.21.38-7.5-1.27,0,.2.11.37.16.57,1.28-2.29,4.88.07,5.72,1.63.36.68,2.22,0,1.78-.83Z"/><path class="cls-2" d="M133,91.94c-1.12,3.84,16.87,4.32,19.32,3.81,1.2-.25.86-1.44-.33-1.2-2,.41-17.68-.61-17-2.79.24-.84-1.72-.59-1.95.18Z"/><path class="cls-2" d="M100.08,123.3C88.8,133.93,78.6,149.52,78.22,165.47a.86.86,0,0,0,.89.81h5.1c0-1,0-1.09-.08-1.53-6.61,2.33-11.29,5.91-12.69,13-.69,3.52-.55,7.11-1.1,10.66-.75,4.75-3.78,8.14-6.38,12s-2.33,7-1.78,11.36a72.86,72.86,0,0,1,.54,16.82c-.91,8.42-4.47,18.57-1.07,26.8.35.84,2.27.28,1.93-.52-3-7.23-.33-16.34.74-23.75A41.91,41.91,0,0,0,65,221c-.55-5.27-2.53-13.18-.51-18,1.5-3.6,4.54-6.38,6.34-9.83a22,22,0,0,0,1.86-7.86c.29-2.92.35-5.84.92-8.74,1.13-5.75,5.64-8.87,10.89-10.72.94-.33,1.08-1.33-.08-1.33s-4.21.69-4.18-.78A35.2,35.2,0,0,1,81,158a51.45,51.45,0,0,1,4.68-12.76,75.56,75.56,0,0,1,16-21.43c.87-.82-1-1.1-1.61-.54Z"/><path class="cls-2" d="M85.93,281.86c-2.73,4.68-3.52,9.54,0,14a1.17,1.17,0,0,0,1.81-.31c1.85-3.15,5-5.32,7.54-7.87l-1.79-.24c-.3,6.46-3.55,11.62-6.33,17.26-.47.95,1.12.94,1.58.59,1.57-1.16,3.52-1.51,5.1-2.68l-1.46-.78a48.16,48.16,0,0,0-7.82,17.83c-.18.86,1.25.7,1.63.4,1.24-1,2.58-1.72,3.82-2.69l-1.57-.59c-3.93,6.9-7.55,13.78-9,21.67-.09.5.54.69.91.67A6.89,6.89,0,0,0,85,337.49l-1.63-.4C83,345,78.54,352,78.22,359.91c0,.84,1.17.77,1.63.4,3.45-2.73,5.48-6.67,8.93-9.39l-1.63-.41c-1.36,5.05-3.75,9.72-5.1,14.77-.14.5.57.68.9.67a17,17,0,0,0,6.89-1.48l-1.36-.72c-1.48,5.14-4.78,9.46-5.16,14.9,0,.52.49.63.91.63h3c1.76,0,.77.94.61,2.5-.18,1.72.4,3.46.57,5.15.09.93,2,.46,1.93-.51-.28-2.76-.66-4.89,0-7.66.12-.51-.56-.48-.91-.48H86.07c-1.84,0,.25-4.45.59-5.3,1.19-3,2.78-5.77,3.67-8.89.25-.85-.77-1-1.36-.77a11.68,11.68,0,0,1-5,1.17c.23,0,1.93-5.11,2.18-5.74a75.22,75.22,0,0,0,2.92-8.36c.23-.86-1.27-.69-1.63-.41-3.44,2.73-5.48,6.67-8.93,9.4l1.63.4c.33-7.94,4.78-14.88,5.1-22.82,0-.86-1.16-.75-1.63-.41-3.42,2.54-.91-3.67-.59-4.66.51-1.59,1.19-3.12,1.85-4.64A110,110,0,0,1,90.33,317c.52-.91-1.13-.94-1.57-.59-1.24,1-2.59,1.72-3.83,2.68l1.63.41a45.67,45.67,0,0,1,7.49-17.08c.68-1-.84-1.24-1.47-.78-1.57,1.17-3.52,1.52-5.1,2.69l1.58.59c2.84-5.76,6.12-11.07,6.43-17.64.05-1-1.37-.67-1.8-.25-2.68,2.68-5.82,4.93-7.76,8.24l1.81-.31c-3.35-4.17-2.46-8.54,0-12.86.56-1-1.41-1-1.85-.25Z"/><path class="cls-2" d="M94.89,397.17c-2.25,3.57-5.28,4.89-8.82,6.84-3,1.65-5.32,4.3-7.68,6.75-5.33,5.51-8.47,11.31-7.81,19.15,0,.59,1.52,0,1.73-.15,1.6-1.18,4.12-1.65,6-2.47L77,427.11c-1,3.17-.18,6.26,0,9.51,0,.14.26.21.36.22,3.35.3,6,2.37,8.69,4.2,1.25.86,7.54,3.49,7.21,4.95-.71,3.05,0,7.67,3.74,8.21,9.66,1.38,14-7.87,15.75-15.66,1.19-5.22,1.65-10.59,3.17-15.74,1.63-5.53,6.31-10.53,9.64-15.12,6.31-8.71,11-18.13,4.33-28.06-.3-.46-2.18.15-1.8.72,9.89,14.84-6,27.5-12.71,39.72-3.29,6-3.36,13.5-4.84,20-.89,3.95-2.24,8.09-5.27,10.93-2.63,2.46-7.71,3.52-9.74,0-1.13-2-.49-4.71,0-6.73a.24.24,0,0,0-.18-.29c-4.68-1.27-8-4.58-12.18-6.69-.94-.47-4.21-1-4.29-2.42-.15-2.8-.85-5.27.07-8.05.18-.56-1.15-.26-1.33-.19-2.32,1-4.73,1.41-6.77,2.91l1.72-.16c-.69-8.24,3-13.84,8.49-19.53a35.66,35.66,0,0,1,10.24-7.45,13.46,13.46,0,0,0,5.43-5.28c.43-.69-1.48-.43-1.78,0Z"/><path class="cls-2" d="M128.34,380.42l3.53,1.25a1.67,1.67,0,0,0,1.86-.5c2.29-4.44,1.41-8.92,0-13.53l-1.87.6c1.25,1,2.58,1.71,3.83,2.69.39.3,1.87,0,1.87-.6a76.9,76.9,0,0,0-1.27-16.11l-1.88.6c1.26,1,2.58,1.71,3.83,2.69.38.3,1.87,0,1.87-.61,0-7.12-.46-13.72-3.82-20.14-.29-.54-2.14.14-1.94.52,3.37,6.42,3.82,13,3.83,20.14l1.87-.6c-1.25-1-2.57-1.71-3.82-2.69-.34-.26-2,0-1.88.6a77,77,0,0,1,1.28,16.11l1.87-.6c-1.25-1-2.57-1.71-3.83-2.68-.32-.26-2,.06-1.87.6,1.36,4.49,2.26,8.94,0,13.32l1.86-.5a6.07,6.07,0,0,0-4.11-1.43c-.47,0-2.23.83-1.23.87Z"/><path class="cls-2" d="M89.72,385.61c.28,5.46,2.67,9.95,5,14.77.29.6,1.85.32,1.85-.37V392c0-.86-1.83-.47-1.85.22a51.72,51.72,0,0,1-2.51,13.43c-.24.79,1.52.35,1.77.08q3.84-4,7.67-8.06l-1.75-.08c-.38,5-4.59,8.39-3.82,13.58.1.67,1.49.21,1.75-.07,4.47-5,7.79-10.81,11.61-16.26l-1.88.07a38.52,38.52,0,0,1-1.27,10.74c-.23.78,1.49.38,1.75.08,4.33-5.1,5.4-12.06,9-17.6l-1.87.22a9.59,9.59,0,0,0,2.62,6.84,1.31,1.31,0,0,0,1.86-.5c.72-2.32,1.46-8.1,4.28-8.76,1.18-.28.89-1.33-.28-1.06-4.1,1-4.89,6.65-5.93,10l1.86-.5a9.26,9.26,0,0,1-2.48-6.58c0-.76-1.65-.12-1.87.21-3.57,5.42-4.59,12.34-8.81,17.31l1.75.08a38.16,38.16,0,0,0,1.28-10.74c0-.9-1.57-.37-1.87.07-3.74,5.34-7,11.1-11.36,16L98,410.6c-.75-5,3.45-8.45,3.83-13.28.06-.82-1.44-.4-1.76-.08l-7.65,8.06,1.75.08A51.61,51.61,0,0,0,96.63,392c-.64.08-1,.15-2,.22v8.06c1-.12,1.41-.25,2-.37-2.34-4.82-4.76-9.31-5-14.77,0-.68-1.92-.27-1.87.52Z"/><path class="cls-2" d="M137.51,333c2.06-2.52,2.08-5.29,1.34-8.35l-1.09.82c8-.68,6-11.09,6-16.78,0-.84-2.15-.44-2.15.23v2.68c0,.33.73.65,1,.65h1.28c.37,0,1.29-.27,1.34-.78.28-3.38,1.12-6.79,1.71-10.12.46-2.55-.05-7.68,3.57-8.07,1-.11,1.59-1.28.25-1.14a5.2,5.2,0,0,0-5,4c-.66,2-.61,4.31-1,6.4-.53,3-1.28,6-1.53,9l1.34-.68c-1.15,0-.68-1.28-.68-2.23L142,309c0,3.68,1.84,14.93-4,15.43-.35,0-1.22.32-1.09.82.7,2.89.73,5.39-1.22,7.76-.56.69,1.4.57,1.81.07Z"/><path class="cls-2" d="M154.58,293v18.8c0,.51,1.77-.06,1.95-.3.92-1.31,1.67-2.72,2.6-4l-1.82.19c-1.51,5.88-3.62,11.42-3.82,17.56,0,.57,1.68-.14,1.85-.3,1.62-1.45,3.49-2.57,5.11-4l-1.84.2c-2.36,4.85-4.83,9.38-5.11,14.87,0,.2.47.19.56.19,4.61,0,3.09,3.84,2.6,7.15s-1.24,6.68-1.88,10c-.06.3.36.29.56.29,4.17,0,2.35,2.79,1.57,5.64-.69,2.5-1.37,5-2.13,7.49-.09.3.39.29.56.29,2.5,0,2.84.47,2.64,2.93-.23,2.75,0,2.68-.65,4.83-.09.3.39.3.56.3,3.11,0,1.87,5.8,1.87,7.86,0,.42,1.82.11,1.82-.51v-8.06c0-.2-.35-.18-.45-.18-2.67,0-1.49-.69-1.31-2.93.23-2.76,0-2.68.68-4.84.09-.29-.38-.29-.54-.29-4.18,0-2.35-2.79-1.57-5.64.69-2.5,1.37-5,2.13-7.49.09-.3-.39-.29-.55-.29-4.67,0-2.22-5.06-1.65-8.16a59.24,59.24,0,0,0,.94-9.11c0-.2-.47-.18-.57-.18-6.58,0,.44-11.6,1.83-14.48.27-.55-1.62,0-1.84.19-1.62,1.46-3.48,2.58-5.1,4l1.85-.3c.2-6.08,2.32-11.52,3.82-17.34.15-.6-1.63-.11-1.84.19-.91,1.29-1.72,2.75-2.62,4a10.05,10.05,0,0,0,1.79-.3v-18.8c0-.41-2-.1-2,.52Z"/><path class="cls-2" d="M157.32,385.61c-.68,6-1.24,11.82,1.39,17.42,2.95,6.31,9.13,10.29,12.28,16.61,5.49,11,6.61,24.85,20.19,29.41a9.5,9.5,0,0,0,8.34-1.5c1.62-1.31,3.57-2.84,3.39-5.08-.28-3.65-.25-5.67,3.17-8.07a6.39,6.39,0,0,0,2.81-3.7c.63-2.17,3-4.16,4.13-6.18a17.86,17.86,0,0,0,2.31-7.49c.14-2.8-3.77-3.52-3.77-6.43l-.06-.08c-11.69-5.79-18.84-17-26.79-26.85-.31-.38-2.14.27-1.81.67,4.31,5.36,8.35,10.93,13,16.05a56.86,56.86,0,0,0,7.6,7c1.69,1.31,6.17,2.83,6.17,5,0,.09,2.52,2.67,2.61,2.76,2,2.07.72,5,0,7.12a21.38,21.38,0,0,1-1.79,3.7c-.66,1.17-2.82,2.61-3.35,3.78-1.15,2.52.36,1.57-1.3,3.52-.75.89-1.95,1.35-2.78,2.14a7.25,7.25,0,0,0-2.6,5.52c.18,2.33,1.58,1.89-.6,4.77-2.68,3.55-7.1,2.84-10.37,1-3-1.65-5.38-4.35-7.58-6.88-4.57-5.27-5.76-13.25-8.37-19.54-2.79-6.73-8.5-10.76-12.26-16.78-3.47-5.56-2.68-12.32-2-18.5,0-.28-1.87-.09-1.94.52Z"/><path class="cls-2" d="M160.47,381.88c.72,0,2.05-1.11.75-1.11-.73,0-2.06,1.11-.75,1.11Z"/><path class="cls-2" d="M159.58,382.77v4c0,.84,1.55.48,1.9.1a15.08,15.08,0,0,0,2.75-4.18l-1.77.34a10.92,10.92,0,0,1,2.5,5.24c.11.7,1.49.24,1.76-.05L168,386.9l-1.75.05c.25,2.32,1.5,3.52,2.63,5.51.32.57,1.78.08,1.86-.5.26-1.84,1-3.53,1.28-5.37l-1.73.61a8.07,8.07,0,0,1,2.42,2.58c.38.52,1.53.11,1.8-.34a25.22,25.22,0,0,0,3.89-12.25l-1.94.37c.25,4.85,2.26,8.91,3.83,13.42.24.7,1.87.31,1.93-.36.27-2.72,1.12-5.32,1.28-8.06l-1.94.36c.26,1.84,1,3.54,1.28,5.38.1.73,1.67.25,1.87-.21,1.38-3.09,2.45-6.3,3.83-9.39.41-.93-1.53-.77-1.82-.12-1.38,3.09-2.44,6.31-3.82,9.4l1.87-.2c-.26-1.84-1-3.54-1.28-5.37-.1-.73-1.89-.29-1.93.36-.16,2.74-1,5.34-1.28,8.05l1.94-.36c-1.57-4.51-3.58-8.57-3.83-13.42,0-.71-1.91-.31-1.93.36a24.66,24.66,0,0,1-3.77,11.92l1.8-.34c-.93-1.28-1.26-2.19-2.68-2.79-.49-.21-1.64-.08-1.73.61-.26,1.83-1,3.53-1.28,5.37l1.86-.5c-1-1.78-2.25-3.14-2.47-5.24-.08-.71-1.5-.22-1.76.05l-1.27,1.35,1.75-.05a11.44,11.44,0,0,0-2.62-5.51c-.39-.48-1.57-.16-1.81.34a14.64,14.64,0,0,1-2.54,3.87c.58,0,1.64.08,1.64.11v-4c0-.89-2-.52-2,.21Z"/><path class="cls-2" d="M205.8,279.56c.13,5.39,1.14,10.91,1.28,16.31,0,.21.45.41.56.41h1.28c.37,0,1.66-.62,1.66-1.13v-4c0-.2-.61-.21-.72-.2-5.65.48-7,5.35-4.83,10.19.47,1.06,2.14,2.27,1.87,3.5a59.28,59.28,0,0,0-1.11,7.62c-.39,4.31-.37,8.91,1.3,13,.22.54,1.95.05,1.92-.52-.15-3.05-1.53-5.31-2.55-8.13-.08-.21-.4-.27-.57-.27h-1.28c-.35,0-1.39.28-1.36.79.27,5.2,2.49,9.83,3.83,14.8.14.55,2,.08,1.93-.49-.3-5.45-3.69-6.81-7-2.39-3.89,5.27-1.83,13.28-.08,19,.17.54,2,.05,1.93-.52-.23-4.64-3.32-7-7.12-3.44s-1.62,13.16.09,17.39l1.75-.68c-7.85-2.67-6.89,6.91-4.3,11.42l1.75-.68a13.66,13.66,0,0,0-4-1.38c-.39-.06-1.44.12-1.57.6-1,3.55.14,4.45,2.61,6.92.4.4,2.2-.3,1.8-.7-2.17-2.18-3.39-3.21-2.49-6.51l-1.57.6a12.06,12.06,0,0,1,3.65,1.3c.29.15,2-.21,1.75-.67-.93-1.62-4.56-11.9.8-10.07.29.1,2-.12,1.75-.67a31,31,0,0,1-1.65-8.65,28.27,28.27,0,0,1,0-6.1q.24-2.49,3.72-2.49c1.09.78,1,3.2,1.08,4.33l1.93-.52a47.39,47.39,0,0,1-2-10.62,14.77,14.77,0,0,1,.94-6.49c.57-.89,1.17-1.76,1.82-2.6,1.82-2.46,2.42,4.32,2.41,4.12l1.93-.52c-1.33-5-3.56-9.56-3.83-14.76l-1.36.71c2,0,3.17,6.2,3.26,7.86l1.93-.52c-2.7-6.57-1.52-14.64,0-21.37a.17.17,0,0,0-.05-.2A9,9,0,0,1,206,298a8.4,8.4,0,0,1,.12-3.42c.14-1.14.46-1.66,2.46-1.57v2.69c0-.24.8-.48,1.25-.72-1.29,0-2-13.83-2-15.91,0-.46-2-.12-2,.52Z"/><path class="cls-2" d="M205.18,275a45.58,45.58,0,0,0-1.47-12.08c-.1-.36-2.13.1-2.13.52v1.34c0,.27,2-.06,2.11-.44a11.54,11.54,0,0,0-2.43-10.82c-.26-.31-1.93.08-1.89.52.18,1.91,1,3.51,1.3,5.37.07.39,1.78-.16,1.93-.44,1.35-2.48,2.36-7.8-.41-9.78-2-1.46-4.34-.51-6.34.57a13.38,13.38,0,0,1,1.73-.26v-8.06c0-.11-.34-.17-.39-.17h-1.05c-.37,0-2.19,1-1.27,1h2.33c.37,0,2.19-1,1.27-1h-2.33c-.37,0-2.19.76-1.27.76,1.24,0,.72,7.13.72,8,0,.36,1.56-.18,1.7-.26,5.72-3.1,4.65,7.32,3.42,9.59l1.92-.44c-.3-1.86-1.1-3.46-1.28-5.37l-1.93.52a11.26,11.26,0,0,1,2.41,10.66c.63-.14,1.75-.29,1.75-.44v-1.34c0,.17-1.13.35-1.77.52a45.08,45.08,0,0,1,1.36,12.08c0,.24,2,0,2-.52Z"/><path class="cls-2" d="M117.82,149c-7.31,13.39-7.62,28.83-12.76,43-.39,1.08,1.55,1.11,1.86.26,5.13-14.12,5.46-29.59,12.75-43,.54-1-1.42-1-1.85-.26Z"/><path class="cls-2" d="M117.86,168.3c2.41,4.87-.15,10.87-1.37,15.75-.12.48.56.68.9.65,5.66-.49,8.66-5.47,13.27-8.19l-1.41-.51c.12,2.82.75,5.25,0,8.05-.25.95,1.45.6,1.79.23,4.39-5,6-12.74,12.16-15.83a5.52,5.52,0,0,0-1.62-.5v6.71c0,.84,1.36.72,1.83.38a36.57,36.57,0,0,0,9.21-9.56l-1.64.14c2.88,3.88,5.73,11.13,10.21,13.39,5.09,2.55,3.37-8.24,3.16-10l-1.93.52c1.9,4.79,5.51,4,9.27,1.53,1.1-.71-.49-1.42-1.29-.9l-6-1.15c-.35-.89-2-.42-1.93.52.3,2.58.9,5.64.13,8.22-.11.36-2.62-2.61-3.09-3.23-2.36-3.14-4.33-6.55-6.67-9.71a1.18,1.18,0,0,0-1.7.14,35.58,35.58,0,0,1-8.95,9.24c.54.12,1.43.25,1.43.38V167.8c0-.71-.73-.75-1.22-.5-6.7,3.32-8.35,11.08-13,16.39l1.84.22c.8-3,.16-5,0-8,0-.68-.9-.81-1.4-.51a29.15,29.15,0,0,0-4.64,3.41c-1.23,1.08-7.1,6.59-5.91,2.12s2.54-9.09.4-13.43c-.39-.79-2.22-.07-1.77.85Z"/><path class="cls-2" d="M171.36,191a81.15,81.15,0,0,0,2.55,17.46c.17.73,1.77.14,1.93-.38,1.27-4.13,2.26-8.52,5-11.94l-1.87.23c1.21,5.71,1.27,11.6,1.28,17.41a.57.57,0,0,0,.59.55h1.28a1.48,1.48,0,0,0,1.34-.78c.5-1.48,2.49-2.75,3.63-3.79l-1.74-.08c-.11,5.07-1.14,10.21,1.28,14.9.3.58,1.86.28,1.93-.38.24-2.47,1.37-4.41,2.48-6.57l-1.87.08c0,5.77,0,11.73,3.9,16.38.38.45,1.78.09,1.87-.5.37-2.47,2.17-4.22,2.55-6.71l-1.94.23c0,6-.37,15.72,6.76,17.87.63.19,2.28-.74,1.18-1.07-6.44-1.94-6-11.73-6-17,0-.83-1.84-.43-1.94.23-.37,2.47-2.17,4.22-2.55,6.71l1.87-.5c-3.73-4.49-3.75-10.29-3.76-15.84,0-.82-1.62-.4-1.87.09-1.2,2.33-2.36,4.21-2.62,6.85l1.94-.37c-2.36-4.59-1.39-9.66-1.28-14.63,0-.81-1.41-.35-1.74-.05-1.49,1.35-3.35,2.35-4,4.31l1.34-.67c-1.2,0-.72-4.84-.74-6a59.16,59.16,0,0,0-1.22-11.19c-.16-.75-1.6-.09-1.86.23-2.86,3.5-3.87,8-5.17,12.22l1.93-.37a81.15,81.15,0,0,1-2.55-17.45c0-.64-1.95-.25-1.93.51Z"/><path class="cls-2" d="M177.74,113.09c2,3.49,5.44,5.74,7,9.55,2.18,5.39,1.37,11.73,3.22,17.3.22.65,1.58,0,1.86-.27,4.11-4.07,5.84-2.33,7.82,1.83a13.91,13.91,0,0,1,1.21,6.16,5.37,5.37,0,0,0,2,3.69c3.42,1.93,5.95,1.7,7.49,6.2,1.68,4.87,1.05,8.89,5.29,12.45s3.7,10.69,3.7,15.59c0,.29.68.23.82.21,7.27-.82,5.6,8.83,5.56,13.21,0,.22.5.23.62.23,4,0,3.3,2.52,3.3,5.7v7.49c0,.22.18.24.3.24,3,0,1.7,4.19,1.7,6.36v8.17c0,.22.68.24.8.24,3.43,0,2.09,10.57,2.09,13.19,0,.65,1.73-.07,1.92-.28,1.27-1.34,2.58-2.68,3.85-4l-1.84.27a25.23,25.23,0,0,1-1.26,9.27c-.21.55,1.7.31,1.92-.27,1.19-3.08,1.28-6.26,1.29-9.52,0-.65-1.67.07-1.86.27-1.28,1.34-2.52,2.69-3.8,4,.62-.09.89-.18,1.89-.27V226.68c0-.21-.68-.23-.8-.23-1.59.58-2.2.07-2.2-1.51v-13c0-.22-.26-.24-.38-.24-3.47,0-1.88-10.36-1.88-13.19,0-.22-.4-.23-.53-.23-3.7,0-3.18-1.59-3.14-4.59a17.48,17.48,0,0,0-.82-6.23c-.76-2.09-3.12-3-5.18-2.73-.5.06-.61-6.24-.68-6.93a23.73,23.73,0,0,0-2.31-7.48c-.35-.78-2-1.67-2.68-2.27-1.71-1.58-2.56-4.37-2.95-6.57-.77-4.33-1.28-8.65-6-10-5.45-1.56-3.55-6.42-5.45-10.46-3.1-6.59-6.59-6.18-11.53-1.29l1.85-.27c-1.7-5.14-1.69-10.47-2.77-15.74-1-4.81-5.09-7.09-7.43-11.1-.35-.6-2.19.08-1.93.51Z"/><path class="cls-2" d="M207.17,248.92c-1.7,1.94-.9,4.19-.09,6.43.16.47,1.46-.08,1.7-.23,2-1.17,3.67-1.43,5.24-3.22l-1.84.33c.28,3,1.57,5.38,2.83,8,1.4,2.91,1.31,6,.69,9.15-1.11,5.55-4.15,10.27-3.52,16.1a.2.2,0,0,0,.17.12c3,.69,7.19.86,9.21-2.05,2.86-4.11,1.78-9.44,2.74-14.09l-1.57.57c9.38,0,5.57,14.67,4.93,20.44-.33,3-.95,10.14,3.3,10.87,3,.52,5.74-2.85,7.3-4.75,3.87-4.73,2.73-11.16,2.64-16.82,0-.34-1.93,0-1.93.51,0,3.34-1.25,17.19,3.31,18.1,1.51.3,3.12-1,3.92-2.09,4.49-6.26,3.64-12.35,3.47-19.64,0-.35-2.09,0-2.09.52v15.59c0,.34,1.34,0,1.46,0,6.33-2.63,4.66-8.31,4.46-14,0-.35-1.92,0-1.92.51v4.16c0,.41,1.84-.08,2-.42,2.71-6.33-.93-13.19-4.08-18.64-3.79-6.52-8.73-12.3-12.44-18.87-.27-.49-2.08.22-1.92.52,3.49,6.18,8,11.73,11.79,17.76,3.42,5.51,7.58,13,4.78,19.56a17.26,17.26,0,0,1,1.88-.43v-4.15a13.4,13.4,0,0,0-1.89.51c.15,4.45,2.13,10.77-3.31,13l1.2,0V276.66c0,.17-1.16.34-1.81.52.14,5.86.95,11.3-1.84,16.74-.25.5-2,3.89-2.65,3.51-.85-.47-1.13-2-1.36-2.87-1.27-4.7-1-9.95-1-14.78l-1.93.51c.08,4.87.78,9.79-1.11,14.42-.82,2-5.14,7.64-7.29,4.5-.9-1.31-1-3.25-1.11-4.77-.44-5.28,1.19-10.62,1.35-15.89a17,17,0,0,0-1.75-7.7c-1.15-2.48-2.45-1.61-5.07-1.61-.34,0-1.49.12-1.58.57a56.77,56.77,0,0,0-.68,7.13,20.29,20.29,0,0,1-1,4.95c-1.18,3.55-6.84,5.12-6.78.17.07-5.47,3.47-10.56,4.11-16s-3.49-9.27-4-14.35c0-.47-1.67.13-1.84.33-1.36,1.55-3.28,2-5,3l1.71-.23c-.69-1.9-1.7-4.21-.09-6,.4-.47-1.45-.22-1.75.13Z"/><path class="cls-2" d="M83.34,256.74c2.76,7,2.93,13.33,1.1,20.59-1.2,4.74-2.67,9.15-2.83,14.06-.08,2.51.09,15.85-5.6,10.52-3.76-3.52-2.28-11.64-2.22-16.16,0-.41-1.93-.11-1.93.52-.07,5.56-1.61,14,3.88,17.54,2.74,1.77,5.89-.72,6.82-3.13,2.12-5.51.7-12.18,2.22-17.93,2.49-9.48,4.23-17.05.49-26.53-.21-.54-2.11.06-1.93.52Z"/><path class="cls-2" d="M59.11,258c-2.86,14.83-14.74,58.82,12,58,.58,0,2.1-.93.81-.89-25.5.77-13.6-43.55-10.93-57.43.11-.56-1.81-.23-1.91.3Z"/><path class="cls-2" d="M69.31,290.19a20,20,0,0,0,1.3,18.9c.31.46,2,.05,2-.52V303.2c0-.4-2-.09-2,.52v5.37a12.69,12.69,0,0,0,1.93-.52,19.7,19.7,0,0,1-1.28-18.69c.17-.41-1.69-.22-1.92.31Z"/><path class="cls-2" d="M69.58,308.89v2.69c0-.28.41-.3.76-1.3H69.07c-.92,0-1.11-.11-.58.44-.78-.82-1.55-1.51-2.33-2.33-3.17-3.34-2.56-10.3-2.56-14.46,0-.52-.46-.65-.91-.65H61.41c-.4,0-1,.35-1,.83,0,5.7,0,11.94,3.93,16.5.61.71,2.44-.09,1.76-.88-3.76-4.36-3.72-10.05-3.73-15.5-.35.27-.7,0-1,1h1.27c-.3-1-.6-.7-.91-.93,0,4.41-.57,11.64,2.77,15.15,2.29,2.41,2.69,2.83,6,2.83.41,0,1.22-.4,1.22-.87v-2.69c0-1.07-2-.82-2,.12Z"/><path class="cls-2" d="M55.27,299.55C54.2,307,60.87,312,67,314.68c.59.25,2.35-.59,1.54-.95-5.79-2.54-12.31-7.29-11.28-14.41.11-.78-1.84-.44-1.94.23Z"/><path class="cls-2" d="M85.89,252.71C87,255,87.5,255.5,90,255.53c.34,0,1.56-.15,1.56-.66v-16.1a14,14,0,0,0-1.9.51c1.36,5.39,3.26,11.23,7.73,14.84.36.29,1.82-.1,1.88-.59,1.09-8.05.1-16.08,0-24.16l-1.88.59c1.39,1.71,2.44,3.65,3.83,5.37.29.35,1.82-.16,1.88-.59,1.16-8.48.08-17,0-25.51,0-.32-1.94,0-1.93.52.08,8.51,1.15,17,0,25.51l1.87-.59c-1.39-1.72-2.44-3.66-3.82-5.37-.27-.33-1.89.14-1.88.59.09,8.08,1.09,16.11,0,24.16l1.88-.59c-4.41-3.56-6.33-9.38-7.67-14.69-.11-.43-2,0-2,.51v16.11a6,6,0,0,0,1.66-.65c-2.12,0-2.54-.67-3.45-2.55-.24-.48-2.06.2-1.9.52Z"/><path class="cls-2" d="M61.58,256.74v9.39c0,.47,1.82,0,2-.41,1.2-3.78,2.39-7.58,5-10.63l-1.84.3c2.4,4.15,2.53,8.91,3.84,13.43.16.57,1.74-.06,1.92-.42a30.19,30.19,0,0,1,5-6.6l-1.85.3a1.33,1.33,0,0,0,.29,1.18c.15.25.55.19.8.15,1-.15,1.57-1,2.53-1.23,1.14-.29.94-1-.19-.71a7.72,7.72,0,0,0-2,1.12l.8.15a1.32,1.32,0,0,1-.29-1.17c0-.56-1.65.1-1.84.3a31.18,31.18,0,0,0-5.18,6.82l1.92-.41c-1.3-4.51-1.43-9.27-3.82-13.43-.3-.5-1.57,0-1.85.31-2.71,3.11-4,7-5.18,10.85a16.45,16.45,0,0,1,1.92-.42v-9.39c0-.41-2-.1-2,.52Z"/><path class="cls-2" d="M208.41,246.06a39,39,0,0,1,6.32,8c.2.38,1.84-.05,1.92-.43.29-1.48.62-4.75,2.89-3.4a21.36,21.36,0,0,1,4.17,3.89c.29.3,1.86-.14,1.88-.58.1-2.43.76-7,4.5-4.78.34.2,1.88-.09,1.88-.59,0-3.21-.08-6.37-1.28-9.39-.17-.44-2.06.18-1.93.51,1.2,3,1.27,6.19,1.28,9.4l1.88-.58c-5-3-8.06,1-8.26,6l1.88-.58c-1.87-2-4-4.89-7-4.65-2.68.21-3.32,2.93-3.75,5.15l1.91-.44a39.31,39.31,0,0,0-6.43-8.12c-.33-.34-2.1.36-1.82.65Z"/><path class="cls-2" d="M112.69,267.39c-2.45,12.85-.32,26-2.55,38.93l1.92-.43c.31-6.82,3.89-12.53,6.36-18.71l-1.92.43a29.1,29.1,0,0,0,2.56,10.74c.21.48,1.71-.12,1.91-.43,3.77-5.78,3.93-14.18,11.09-17.16,1.17-.49-.67-.42-1.11-.24-7.67,3.2-7.82,11.52-11.88,17.74l1.92-.43a28.89,28.89,0,0,1-2.55-10.74c0-.38-1.78.09-1.92.44-2.5,6.24-6.08,12-6.39,18.88,0,.29,1.84,0,1.91-.44,2.23-12.9.1-26.08,2.56-38.93.08-.43-1.82-.11-1.91.35Z"/><path class="cls-2" d="M163.7,270.16c2.34,6.13,4.59,12.61,9,17.6a1.26,1.26,0,0,0,1.8-.33c2.69-6.45,1.65-13.71,3.89-20.31l-1.94.35c1.4,4,3.54,7.77,3.83,12.09.05.81,1.8.26,1.94-.35,1-4.46,1.29-9,2.55-13.43.24-.83-1.73-.58-1.95.19-1.26,4.38-1.57,9-2.55,13.42l1.94-.35c-.29-4.32-2.43-8.06-3.83-12.08-.29-.84-1.73-.27-1.94.35-2.2,6.48-1.13,13.65-3.76,20l1.8-.33c-4.36-4.91-6.55-11.27-8.85-17.31-.31-.8-2.23-.24-1.94.52Z"/><path class="cls-2" d="M178.58,322.35v6.71c0,1,1.95.53,2.16-.18,1.3-4.44,1.48-9.18,3.87-13.26l-1.21.57c1,0,1.21,1.07,2.14,1.16,1.3.14,2-1,3.25-1.16,1-.1,1.54-1.42.21-1.29a5.47,5.47,0,0,0-2.1.57c-1.18.59-.36.74-.93-.33-.08-.16-.39-.24-.54-.24-2.62,0-3,1-4,3.6-1.26,3.39-1.62,7.09-2.64,10.56a14.61,14.61,0,0,0,1.76-.18v-6.71c0-.95-2-.6-2,.18Z"/><path class="cls-2" d="M100,364.28c1.93,1.69,4.62,2.19,6.55,4,.41.4,2,.26,2-.49v-5.37c-1,.11-1.46.23-2.11.35.45,2.59,3.37,5,5.09,6.86a1.23,1.23,0,0,0,1.64-.18c1.44-1.68,2.38-3.69,3.81-5.37.77-.91-1.1-1-1.6-.46-1.43,1.68-2.4,3.69-3.83,5.37l1.68-.17c-1.63-1.72-4.47-4.14-4.88-6.57-.13-.75-1.8-.33-1.8.35V368c0-.16,1.1-.33,1.72-.49-1.91-1.82-4.54-2.37-6.45-4-.59-.52-2.48.26-1.85.81Z"/><path class="cls-2" d="M151.37,125.68a1,1,0,0,0-.61-.29c-.47,0-1.29.19-1.3.81,0,1.25,1.17,2.84,1.73,3.88a32.87,32.87,0,0,0,3.67,6,1.15,1.15,0,0,0,1.81-.3c1.4-3.11,2.11-6.5,3.34-9.68.54-1.38,1.22-3.26,2.56-4.06,1.82-1.08,4.64,5.06,5.1,6,.34.69,1.91.23,1.91-.5v-8.05c0-1.07-2-.82-2,.12v8a11.75,11.75,0,0,0,1.83-.5c-1.61-3.28-4.95-9.32-9-5.31-3.39,3.35-3.69,9.48-5.57,13.67l1.8-.3a27.22,27.22,0,0,1-2.64-4.15c-.68-1.19-2.58-3.59-2.56-5l-1.3.8-.22,0c.69.61,2.34-.4,1.47-1.16Z"/><path class="cls-2" d="M125.64,63.05c-5.59,4.64-10,10.55-11.68,17.7-.08.32.36.36.57.36a18.93,18.93,0,0,0,7.13-1.5l-1.32-.2c-1,2.52-1,5.64-2.48,7.93-.24.36.2.49.49.48a7.77,7.77,0,0,0,5-1.72l-1.72,0c-1.47,3.25-2.7,6.52-5,9.28-.52.61,1.43.34,1.78,0l2.55-2.69-1.85.16c-1.63,3.1-1,4.64,1.34,6.93.44.43,2.24-.29,1.8-.72-2.24-2.17-2.78-3.51-1.22-6.49.31-.58-1.6-.11-1.85.15l-2.55,2.69,1.78,0c2.41-2.85,3.66-6.16,5.17-9.52.29-.64-1.54-.11-1.72,0-2.82,2.1-1.28-.33-1-1.57a42.06,42.06,0,0,1,1.42-5.17c.21-.55-1.17-.26-1.33-.19a14.46,14.46,0,0,1-5.4,1.18c.66,0,2.19-5.1,2.5-5.76a33.65,33.65,0,0,1,9.13-11.09c.83-.68-1.1-.57-1.52-.22Z"/><path class="cls-2" d="M131.6,102.78c-5.12.37-7.21,3.91-7.45,8.8,0,.78,1.21.64,1.6.31,2-1.63,4.46-2.4,6.41-4a7.83,7.83,0,0,1-1.58-.31V117c0,.92,1.34.54,1.75.16,2-1.92,4.18-3.45,6.2-5.37-.59,0-.95-.11-1.95-.16v8c0,.35.61.65.95.65h1.28c.47,0,1.23-.21,1.32-.79.38-2.5,2.17-4.23,2.55-6.73l-1.86.5a23.6,23.6,0,0,0,3.83,5.36,1.21,1.21,0,0,0,1.86-.5c1.1-3.82,1.46-7.53,4.76-10.26l-1.6-.14c.48,2,2.07,3.39,2.55,5.37.21.86,1.78.29,1.94-.34,1.14-4.33.44-8.87,4.76-11.6,1.11-.7-.52-1.26-1.26-.79-4.79,3-4.15,7.63-5.45,12.56l1.94-.34c-.48-2-2.06-3.39-2.55-5.37-.15-.63-1.24-.43-1.59-.14-3.64,3-4.2,6.88-5.45,11.22l1.86-.5a23.39,23.39,0,0,1-3.82-5.37c-.34-.64-1.77-.11-1.87.5-.38,2.5-2.17,4.22-2.55,6.71.44-.24.74-.49,1.18-.74-1.78,0-.78-1-.78-2.65V111.4c0-.91-1.23-.54-1.64-.16-2,1.93-4.24,3.45-6.26,5.37.6.06.9.11,1.9.16v-9.39c0-.78-1.24-.66-1.66-.31-1.94,1.63-4.45,2.4-6.4,4l1.59.31c.17-3.35.7-7,5.3-7.31,1.05-.07,1.52-1.41.19-1.31Z"/><path class="cls-2" d="M165,87.59c.07,1.44.58,1.71,1.53,2.76.32.36,2.07-.09,2.07-.6V79a20.89,20.89,0,0,0-2.13.52c1.65,2.49,4.11,2.41,6.34,4.11.36.28,1.85,0,1.82-.6-.28-5.46-2.78-9.94-5.12-14.77l-2,.52c.93,1.32,1.62,2.71,2.55,4,.3.43,1.93.05,1.93-.52a21.58,21.58,0,0,0-1.28-8c-.2-.52-2.1.08-1.93.51a21.66,21.66,0,0,1,1.27,8.06L172,72.3c-.93-1.32-1.62-2.7-2.55-4-.31-.44-2.13.11-1.93.52,2.34,4.82,4.82,9.31,5.1,14.77l1.88-.6c-2.08-1.59-4.58-1.56-6.16-3.95-.3-.44-1.77,0-1.77.52V90.27c0-.2,1.09-.4,1.71-.6a2.71,2.71,0,0,1-1.3-2.6c0-.41-2-.07-2,.52Z"/></svg>