<svg id="layer1" xmlns="http://www.w3.org/2000/svg" viewBox="0 0 247.03 210.86"><defs><style>.cls-1{fill:#ef1131;}.cls-2{fill:#0d5912;}.cls-3{fill:#492d0c;}</style></defs><path class="cls-1" d="M154.33,146.69a50.19,50.19,0,0,0,9.38-19.23,26.83,26.83,0,0,0,3.22-16,4.65,4.65,0,0,0-.46-1.59,11.83,11.83,0,0,1,.33-1.57,3.23,3.23,0,0,0-.23-2.43,5.42,5.42,0,0,0,.32-1.23c0-.11,0-.22,0-.33a2.73,2.73,0,0,0-1.25-2.77c-.08-.22-.15-.44-.22-.66a3.74,3.74,0,0,0-1.33-4.74,10.5,10.5,0,0,0-.23-3.84c-1.19-4.45-4.9-5.46-8.77-5.11a3.57,3.57,0,0,0-1.33-1.26c-.9-1.26-1.79-2.52-2.66-3.8a3.57,3.57,0,0,0-1.92-1.45l-1.15-1.62a3.62,3.62,0,0,0-4.83-1.12,18.7,18.7,0,0,0-3.05-3.41,3.3,3.3,0,0,0-2.29-2.16,7.74,7.74,0,0,0-2-.14,3.27,3.27,0,0,0-1.86.56c-1.33.22-2.69.37-4,.56-1.95.28-4.07,1.45-6,2a33.7,33.7,0,0,1-8.55,1A3.37,3.37,0,0,0,112.28,81a7.45,7.45,0,0,0-2.63.5,10.33,10.33,0,0,0-2-1.28c-.56-2.15-3-3.86-5.16-2.37-1.06.75-2,1.4-3,2a3.59,3.59,0,0,0-4.42,1.28c-2,2.84-4.56,5.47-5.92,8.71-1.12,2.66-3.89,4.71-4.64,7.43a7.9,7.9,0,0,0,1.19,6.22,17.31,17.31,0,0,0,1.75,2.17,8.33,8.33,0,0,0,.6.6c-.11.82-.2,1.63-.28,2.44-1.59,3.7-4.61,6.66-5.89,10.57-1.64,5,1,10.38,3.54,14.65-.17.43-.36.86-.56,1.31-.7,1.57-.62,4,1.26,4.79a18.4,18.4,0,0,0,9.59,1.54,3.53,3.53,0,0,0,3.07,3,3.8,3.8,0,0,0,1.63,3.66,34.54,34.54,0,0,0,10.77,4.11l1.48,1a3.22,3.22,0,0,0,3.57-.06l2,.28c1.26.17,2.66.3,4.12.36a3.14,3.14,0,0,0,3.08,3,3.45,3.45,0,0,0,3.17.83,42.71,42.71,0,0,0,12.71-4.92,3.38,3.38,0,0,0,1.4-.53c1.78-1.15,3.57-2.24,5.31-3.4a3.26,3.26,0,0,0,4.58-.21l.51-.57A3,3,0,0,0,154.33,146.69ZM138.47,96.36c.29.48.55,1,.8,1.48-.39-.33-.8-.64-1.22-.94,0-.16,0-.33,0-.5Zm-.6,11.11a12,12,0,0,1-2.45,2.08c0-.09.07-.18.11-.26a3.28,3.28,0,0,0,1.79-3s0-.06,0-.09a2.55,2.55,0,0,1,.48-.4l.79.74C138.34,106.93,138.09,107.23,137.87,107.47Zm2.51,10.1a4,4,0,0,0-1-2.38c.6-.39,1.17-.81,1.71-1.24a1.15,1.15,0,0,0,0,.18,35.82,35.82,0,0,1-.78,5.92A17.09,17.09,0,0,0,140.38,117.57Zm-19.83,16.36a10,10,0,0,0,2.19-.07,26.16,26.16,0,0,1-4.56,2.5Q119.41,135.19,120.55,133.93Zm33.94-26.76a5.23,5.23,0,0,0-.69.31c0-.36,0-.72,0-1.07l.39.12A3,3,0,0,0,154.49,107.17Zm-48.21,22.45c.39-.34.77-.7,1.13-1.08.06.11.1.23.17.34a11.19,11.19,0,0,0,1.4,2c.13.23.24.47.38.7A4,4,0,0,0,111,133c-.28.33-.55.66-.82,1a20.57,20.57,0,0,1-2.88,1.79c.13-.14.24-.29.37-.43A3.51,3.51,0,0,0,106.28,129.62Zm-13.82,5.11c.07-.16.13-.33.2-.49a10.66,10.66,0,0,0,3.55-5.07,2.76,2.76,0,0,0,1.59.06,3.66,3.66,0,0,0,2.66,3.08A11.12,11.12,0,0,1,92.46,134.73Z"/><path class="cls-2" d="M80.47,97.19a7.16,7.16,0,0,0-2.75-.79,2.85,2.85,0,0,0-3-.58c-.78.31-3.08.16-4.61,1.92a3.66,3.66,0,0,0-.85,2A30.27,30.27,0,0,0,64,103.17C55,108,48.59,117.25,44.25,126.68c-1.72,2.18-3.39,4.4-5.09,6.61-.33.22-.67.44-1,.65a3.84,3.84,0,0,0-1.55,4.15c0,1.84,1,3.63,3.32,3.4,11.72-1.23,25.89-.68,35.14-9.2,2.82-2.59-.23-6.37-3.41-5.84l-.28,0a32.85,32.85,0,0,0,2.94-4.55A3.16,3.16,0,0,0,77,119.52a41.7,41.7,0,0,0,1.15-11.14,3.43,3.43,0,0,0-.46-1.74,22.14,22.14,0,0,0-.3-2.55c.73-.19,1.48-.37,2.27-.5C82.65,103.09,83,98.53,80.47,97.19Z"/><path class="cls-2" d="M83.76,87.22a40,40,0,0,0-2.7-4.65,3.55,3.55,0,0,0-1.62-3.75c-.71-.39-1.43-.74-2.15-1.1C68.49,68.08,55.55,63.4,42,64.05a3.44,3.44,0,0,0-2.69,1.36c-.14-.22-.28-.43-.41-.65C36.4,61,30.47,64.39,32.8,68.3c.3.5.65,1,1,1.55a92.6,92.6,0,0,0,7,9.67c3.07,6.64,7.8,11.68,15.56,12.94,8.07,1.3,16.27-.91,24.39,0C83.6,92.82,84.8,89.33,83.76,87.22Z"/><path class="cls-2" d="M126.09,43.05c-.22-2.68-3.86-5.1-6-2.47-.38.47-.72.91-1,1.35a3.38,3.38,0,0,0-1.08.8,3.28,3.28,0,0,0-2.31.36,50.73,50.73,0,0,0-15.45,13.54A23.36,23.36,0,0,0,96,63.92a49,49,0,0,0-3.29,9.84A3.52,3.52,0,0,0,92.61,75c-.88,2.88,2.26,4.54,4.67,3.81,1.28,1.41,3.85,1.87,5.33.36,1.33-1.35,2.61-2.73,3.87-4.13a3.18,3.18,0,0,0,2.26-1l.57-.64a4,4,0,0,0,4.79-.77,3.7,3.7,0,0,0,3.88-.79,3.21,3.21,0,0,0,3.91-2.41C124.14,60.74,126.85,52.21,126.09,43.05Z"/><path class="cls-2" d="M174.93,42.07c-7.22,3.34-15.4,5.44-21.87,10.22a24,24,0,0,0-6.5,7.34,37.35,37.35,0,0,0-4.88,14.13c-.69,4.38,5.88,6.34,6.75,1.87,0,0-.15,0-.14-.07a3.25,3.25,0,0,0,2.15,1.63v5.67c0,2.47,2.37,3.72,4.58,3.38.81-.13,1.62-.27,2.32-.43a3.85,3.85,0,0,0,3,1.57,7.33,7.33,0,0,0,5.24-2,6.75,6.75,0,0,0,1.73-.24,3.14,3.14,0,0,0,3.7-.77,18.36,18.36,0,0,0,2.13-3.47,3.07,3.07,0,0,0,2-3.09c-.17-6.81-1.93-13.25-3.83-19.7a32.25,32.25,0,0,0,.69-4.58,28.74,28.74,0,0,1,6.51-5.37C182.41,45.77,179,40.2,174.93,42.07Z"/><path class="cls-2" d="M211.41,100.8c-1.81.1-3.39.5-4.95.48a3.59,3.59,0,0,0-2.29-2.4,36.22,36.22,0,0,0-8.3-2.09c-1-.37-1.92-.77-2.87-1.19a31.22,31.22,0,0,0-7.2-2.84,3.51,3.51,0,0,0-4.31,3.95c-.24-.43-.48-.87-.75-1.32a3.5,3.5,0,0,0-6.2.42,3.52,3.52,0,0,0-3.93,1.62c-2.13,4.24-4.45,9.9-2,14.52a8.89,8.89,0,0,0,7.53,4.53,6.81,6.81,0,0,0,.76.26,3.11,3.11,0,0,0,1.66,1.07l.16,0,.06,0,.1,0,.39.08c10.9,2.28,18.45-4,27.73-8.62a3.06,3.06,0,0,0,1.42-1.35c1.06-.07,2.07-.16,2.94-.21C215.89,107.55,215.92,100.54,211.41,100.8Z"/><path class="cls-2" d="M106.37,159.25c.65-5.57-5.19-8.22-10.6-9.11.44-.74.87-1.48,1.26-2.22a3.54,3.54,0,0,0-3-5.27,24.28,24.28,0,0,0-17.18,6.14,13.31,13.31,0,0,0-3.79,1,3.34,3.34,0,0,0-1.21.52l-.48.31a23.34,23.34,0,0,0-2.59,1.73,3.7,3.7,0,0,0-1.45,2.53c-13.79,1.15-8.63,21.73-6.28,31,1,3.94,6.71,2.93,6.88-.94a13.6,13.6,0,0,1,2.41-7.45A74.16,74.16,0,0,0,81.1,173a34.23,34.23,0,0,0,16.41-5.2,9.82,9.82,0,0,0,7.29-4.31A3.35,3.35,0,0,0,106.37,159.25Z"/><path class="cls-2" d="M176.66,164.8c-4.28-5.74-3.55-24.19-13.23-24.19a3.67,3.67,0,0,0-2.46,1.06,3.66,3.66,0,0,0-3,2.53c-1.49,3.87-4.62,6.19-8.24,7.55a31,31,0,0,0-4.63,1.24,4,4,0,0,0-1.4.87h0a3.57,3.57,0,0,0-4.34,3.42,8,8,0,0,0,.58,2.39,29.87,29.87,0,0,0-.43,4.86c0,3.24,4.37,4.71,6.24,2.2,4.43,2.14,8.13,3,13,2.25a8.27,8.27,0,0,0,4.92.19c3,.49,6,.2,9,.77C175.36,170.45,178.68,167.52,176.66,164.8Z"/><path class="cls-3" d="M125.6,137.85c3.06-.14,6,.39,8.45-1.72,1.39-1.18,1.63-3.55,1.9-5.17.57-3.41,2.58-5.58,4.11-8.5s5.42-8.42,3.15-11.87a4.7,4.7,0,0,0-3.39-2.2,35.46,35.46,0,0,1-9.24-2.9c-4.83-2.5-17.16-4-19.86,2.19-1.46,3.36-.43,5.85-4.1,8.43a13,13,0,0,0-3.23,2.57c-.77,1-.41,2.71-.24,3.82a68.68,68.68,0,0,1,.77,12.5c0,.25.14.36.38.42a21,21,0,0,0,10.59-.28c2.61-.82,2,1.88,3.45,2.6,1.26.63,3.31.17,4.69.58.64.18,2.28-.76,1.18-1.08-1.75-.51-4.27.19-5.23-1.91-.29-.63-.61-1.42-1.39-1.59-4.82-1.07-11.85,4.59-11.6-3.9a31.21,31.21,0,0,0-.55-6.4c-.59-3.31-.66-4.77,2.39-6.72,3.31-2.12,4-4.44,4.56-8.2.91-6,13.11-3.76,16.66-2.07,1.73.81,3.51,2.14,5.41,2.5,2.9.56,6.17.07,7.28,3.49,1.44,4.42-4.15,10.7-6.22,14.23a15.23,15.23,0,0,0-1.5,4.52c-.53,2.51-.42,5.43-4.6,5.5-1,0-2,0-3.08,0-.73,0-2,1.18-.74,1.13Z"/><path class="cls-3" d="M122.47,120.93c.72,1.95,2.28,7.11,5,7a2.22,2.22,0,0,0,2-2.88c-.41-2-3.24-3.3-5.07-3.21l.85.35c-.19-.94-.39-1.88-.59-2.82l-1.08.87c4.12-.65,4.41-4.42,5-7.9.13-.86-1.46-.42-1.76-.11-2.44,2.52-3.59,6-5.1,9-.46.92,1.33.67,1.69.27,2-2.15.17-6.06-1-8.21-.33-.6-1.76-.07-1.86.49a16.19,16.19,0,0,0,.35,6.46l1.94-.52c-1-2-1.92-4-3.75-5.38-.49-.38-1.78.07-1.72.76a9.64,9.64,0,0,0,4.14,7.26l1.51-1a22.45,22.45,0,0,0-7.64-2.91c-.4-.07-1.55.06-1.54.68.07,4,4.61,5.35,8,5.32.16-.41.32-.81.47-1.22a10,10,0,0,1-5-.28c-.7-.23-2.28.78-1.16,1.15a12,12,0,0,0,5.92.35c.67-.12,1.72-1.24.47-1.22-2.71,0-6.71-1-6.77-4.3l-1.55.68a21.39,21.39,0,0,1,7.28,2.76c.59.36,2.35-.4,1.51-1a9,9,0,0,1-3.72-6.76l-1.72.76c1.63,1.26,2.45,3.08,3.32,4.89.34.7,2.1.29,1.94-.52a15.33,15.33,0,0,1-.35-6.14l-1.86.5c.85,1.55,2.67,5.41,1.22,7l1.69.27c1.45-3,2.54-6.34,4.86-8.73l-1.76-.11c-.3,1.88-.26,6.08-2.78,6.47-.39.07-1.2.32-1.08.87.2.94.4,1.88.59,2.82.08.35.59.36.86.34,1.41-.07,4.15,2,3.29,3.69.22-.42.28-.11-.24-.71a9,9,0,0,1-1-1.46,26,26,0,0,1-1.88-4.16c-.28-.76-2.2-.21-1.93.52Z"/><path class="cls-3" d="M125.57,119.21c-2.17,4.15-9.17,5-13.33,4.62l-1.43.73a1.67,1.67,0,0,1,1.32.59c.4.32,2.07-.45,1.83-.65a2.24,2.24,0,0,0-1.89-.69c-.32,0-1.95.69-1.43.74,5,.44,14.17-.62,16.83-5.69.12-.22-1.65-.12-1.9.35Z"/><path class="cls-3" d="M114.26,124.17a2.72,2.72,0,0,0-2.26-.79c-.42.07-1,.28-1.07.78a3.93,3.93,0,0,0,.69,3.16,1.2,1.2,0,0,0,1.81-.31,3.53,3.53,0,0,0-1.44-4.32,1.3,1.3,0,0,0-1.56.27,2.46,2.46,0,0,0-.78,2c.09.74.89,1.3,1.44,1.68.7.47,2.4-.5,1.49-1.11s-1.32-1.11-.53-2l-1.55.27a2.47,2.47,0,0,1,1.08,3l1.81-.31a3,3,0,0,1-.5-2.47l-1.07.78c.44-.07.6.24,1,.49.69.49,2.39-.47,1.49-1.11Z"/><path class="cls-3" d="M127.44,121a9.5,9.5,0,0,0-4.4,2c-2.75,1.83-5.54,4.4-8.81,5.22-.78.2-1.24.83-.11.61,2.25-.43,5.5-.63,6.47-3.1.12-.31-1.72-.13-1.9.35-.65,1.65-2.68,1.79-4.2,2.08,0,.21-.07.41-.11.62a20.23,20.23,0,0,0,6-2.88c1.09-.7,2.14-1.46,3.21-2.2.72-.51,2.15-1.86,3-1.93.48,0,2.12-.83.85-.74Z"/><path class="cls-3" d="M128.53,122.75a3.85,3.85,0,0,0,1.85-2.49,2.46,2.46,0,0,0-1.65-2.33,1.65,1.65,0,0,0-1.25.07c-.07,0-.91.44-.56.61a2.48,2.48,0,0,1,1.52,1.68c.2,1-.7,1.84-1.41,2.33-.31.22-.25.47.13.5a2.14,2.14,0,0,0,1.37-.37Z"/><path class="cls-3" d="M133.94,138.1c.53,2.27,1.83,7.67,5.26,7.28,2.37-.27,4.1-.77,6.44.71a7,7,0,0,0,4,.77c2.84-.31,6.68-1.63,8.18-4.31.86-1.52.25-3.24-.36-4.68-1.57-3.7.2-6.09,2.46-9,3.26-4.17.92-9.41,1.22-14.24.17-2.75-.65-4.19-3.41-4.52-.63-.07-1-1.85-1.57-2.39a3.75,3.75,0,0,0-2.51-.69c-4.28.43-5.47,3.31-7.08,7-.41.95,1.53.82,1.82.13s.74-1.67,1.09-2.51q1.06-3.48,5.64-.75c0,.48.5.55.87.53,4.33-.18,3.15,3.3,3.12,6.22,0,2.68.7,5.25.59,8-.15,4-6.05,6-4.85,10.72.58,2.24,2.38,4.57.58,6.75-3.47,4.22-7,1.37-10.8.54a5.65,5.65,0,0,0-3-.17c-4.11,1.1-5.08-2.79-5.81-5.88-.19-.79-2.12-.28-1.93.52Z"/><path class="cls-3" d="M140.54,125.17a103.32,103.32,0,0,1,11.54,0c.28-.23.55-.47.82-.71l-1.41.3c-.73.15-1.72,1-.37.67l1.41-.3c.23,0,1.76-.68.82-.71a106,106,0,0,0-12,0c-.48,0-2.12.84-.85.74Z"/><path class="cls-3" d="M153.92,126.93a2,2,0,0,0,.78-1.58c-.06-.53-.58-.84-1-1a6.08,6.08,0,0,0-4.19.44.93.93,0,0,0-.55.65c-.11,1.25-.11,3.23,1.55,3.38a4,4,0,0,0,3.27-1.86c.57-.75,1.32-2,.63-2.94-1.07-1.41-3.8-.21-5,.3-.36.15-.75.62-.46,1s.92.31,1.31.14.72-.29,1.09-.41a5.33,5.33,0,0,1,.85-.2c.06,0,.47,0,.2,0,.07,0,.4.07.14,0,.21.06,0,0,.08,0s-.08-.11,0,0,0-.12,0,.06,0,.29,0,.08c0,.11-.09.51,0,.37a3.82,3.82,0,0,1-.24.55c-.05.09-.1.19-.16.28s-.05.07,0,0a.91.91,0,0,1-.11.16,4.42,4.42,0,0,1-.39.47s-.3.28-.12.12l-.24.21-.25.17c.25-.16,0,0-.09,0-.25.12.22-.06,0,0s.24,0,0,0c.17,0,.11,0,.17,0s.14.11,0,0c.17.13,0,0-.05-.09s0,0-.07-.15a4.33,4.33,0,0,1-.11-1.86l-.55.64a3.84,3.84,0,0,1,2-.31,1.14,1.14,0,0,1,.33.07c.08,0,.15.13.1,0,.08.17-.27.48-.44.64a.56.56,0,0,0,.25.93,1.34,1.34,0,0,0,1.37-.36Z"/><path class="cls-3" d="M142.47,125.54c-.18-.11-.35-.24-.54-.34-.7-.41-2.38.34-1.48,1.12,2.55,2.24,5.91,3.93,6.79,7.5l1.93-.52a4.4,4.4,0,0,0-3.67-3.24c-.48-.09-1.26.22-1.31.78-.23,2.56,1.45,4.79,4.19,3.95a2.78,2.78,0,0,0,2-2c.29-1.45-1.21-2.75-2.22-3.5-.7-.52-2.38.46-1.48,1.13.63.47,2.78,2.38,1.25,3.1s-1.84-2-1.77-2.77c-.44.26-.88.52-1.31.79a3,3,0,0,1,2.4,2.33c.25.91,2.16.39,1.93-.52a10.55,10.55,0,0,0-4.38-5.81c-1-.71-1.92-1.47-2.86-2.29l-1.48,1.12.54.35c.73.48,2.41-.52,1.48-1.13Z"/><path class="cls-3" d="M142.31,124.63c3.15-2.6,7.6-2.68,10.56-5.66.22-.22,0-.32-.25-.33-3.92-.06-7.54,2.34-8.19,6.38,0,.2.17.21.33.22a8.39,8.39,0,0,0,4.93-1.06c.12-.06.45-.2.41-.39s-.13-.62-.2-.93-.89-.09-1,0a4.76,4.76,0,0,0-3,1.91c-.14.21,1.59.13,1.91-.34a2,2,0,0,1,1.27-1l-1.05,0c.07.32.13.63.2.94l.41-.39c-3,1.63-2-.77-1-2.3a6.14,6.14,0,0,1,1.06-1.16,2.94,2.94,0,0,1,2.11-.93,9.17,9.17,0,0,1-2.61,1.63c-2.57,1.2-5.3,1.77-7.54,3.61-.42.35,1.39.16,1.75-.14Z"/><path class="cls-3" d="M147.17,127.36a3.34,3.34,0,0,0,2.12,0,2.1,2.1,0,0,0,1.21-1.5c.22-.76-1.74-.49-1.94.22,0,.1-.05.2-.09.3s-.19.23,0,.12a1.2,1.2,0,0,1,.33-.13c.09,0,.08,0,0,0a2.34,2.34,0,0,1-.38-.09,1.56,1.56,0,0,0-1.37.37.42.42,0,0,0,.2.76Z"/><path class="cls-3" d="M138.86,125.58c-4.06,1.72-1.11,7.32.78,9.61,1,1.19,2.48,2.06,4,1.36,2-.9,0-2.87-1.18-3.28a1.31,1.31,0,0,0-1.48.54l-.37.56a.49.49,0,0,0,0,.53l.12.19a.9.9,0,0,0,.8.27.83.83,0,0,1,.44,0c.81.28,2.27-.89,1.12-1.29a3.12,3.12,0,0,0-1.39-.13l.8.27c.17.26.09.06.28-.22l-1.48.53c1.25.44.06.15,1,.67a3.82,3.82,0,0,1-1-.87,12,12,0,0,1-1.54-2.32c-.67-1.25-2.06-4.53-.16-5.34,1.22-.51.14-1.53-.85-1.11Z"/><path class="cls-3" d="M155.05,99c-3.06,1.79-6.32,3-9.35,4.89-1.95,1.21-4.55-.87-6.52-1.28a10.25,10.25,0,0,1-4.25-1.63c-.82-.7-1.15-3-1.76-3.93-.35-.57-2.17.14-1.93.52,1,1.54.91,4.17,2.92,5a46.43,46.43,0,0,0,8.69,2.9c1.36.24,2.86-.53,4-1.12,3.09-1.6,6.33-3.13,9.35-4.88,1.12-.66-.62-.74-1.16-.43Z"/><path class="cls-3" d="M139.84,100.88c5.29-1.55,5.19-8.66,7.6-12.68l-1.91.33c-1.16,3.74-4.57,6.77-4.59,10.86l.88-.58a2.54,2.54,0,0,0-1.71,1.15l1.92-.42c-.08-3.12,1.59-11-2.28-12.42-.45-.17-2.19.54-1.58.77,3.42,1.26,1.86,9.41,1.93,12.16,0,.52,1.74-.16,1.92-.42l0-.18c.25-.07.88-.24.88-.58,0-4,3.43-7,4.57-10.67.15-.5-1.68,0-1.91.33a28.17,28.17,0,0,0-2.12,5.4c-.61,1.79-1.64,5.69-3.74,6.31-1.11.33-.95,1,.17.64Z"/><path class="cls-3" d="M140.11,99.37c1.93,1,4.34-.22,6.07-1.12a68.55,68.55,0,0,0,6.91-4.42c1-.7-.36-1.12-1-.85-3.25,1.35-5.3,4.08-7.93,6.27-.89.74,1,.91,1.58.44,2.37-2,4.24-4.53,7.16-5.74l-1-.85c-1.46,1-2.88,2-4.36,2.94-1.21.78-4.32,3.1-5.86,2.3-.66-.33-2.4.57-1.52,1Z"/><path class="cls-3" d="M140.57,100c.07.32.13.63.2.94.13.63,2.07.15,1.93-.52l-.2-.93c-.13-.63-2.07-.15-1.93.51Z"/><path class="cls-3" d="M141.43,100.38a5.24,5.24,0,0,0-.86.9s-.12.1,0,.07c-.31.1-.73.18-.91.5-.7,1.18.87,1,1.59.87.28-.06.95-.35.84-.74s-.82-.28-1.1-.23c.07,0,0,0-.07,0q.39.45.54.12l-.77.46a3.24,3.24,0,0,0,1.38-.67c.35-.3.58-.69.94-1s.2-.6-.18-.68a1.7,1.7,0,0,0-1.37.37Z"/><path class="cls-3" d="M152.58,94a1.75,1.75,0,0,0,.18-1.59c-.09-.45-1.51.12-1.7.23-.43.25-.93.39-1.33.68a3,3,0,0,0-.93,1.42c-.15.38.93.14,1,.12a9.59,9.59,0,0,0,3.88-2c.43-.34-.58-.3-.69-.27l-.94.2c-.33.06-1,.18-1.13.52s.68.19.77.17l.93-.2L152,93a5.66,5.66,0,0,1-2.28,1.27l1,.12c.14-.35.33-.94.62-1.12l.39-.17a9.06,9.06,0,0,0,.82-.42l-1.71.23a1.54,1.54,0,0,1-.15,1.42c-.19.29.7.19.77.18.35-.07.92-.19,1.13-.52Z"/><path class="cls-3" d="M145.44,94.88c2.35-.59,5-2.83,5.22-5.39,0-.48-.81-.31-1.07-.24a4.46,4.46,0,0,0-3.54,4c-.08.69,1.63.17,1.85-.17a5.67,5.67,0,0,0,1-2.76c.06-.48-.82-.31-1.06-.25-1.48.39-2.63,1.28-2.34,2.93.09.53,2,.08,1.93-.52s-.09-1.44.62-1.62L147,90.65a5,5,0,0,1-.84,2.52L148,93c.15-1.16.54-2.64,1.83-3l-1.06-.25a5.32,5.32,0,0,1-3.51,4.31c-.22,0-1,.3-.86.65s.85.19,1.07.14Z"/><path class="cls-3" d="M141.1,99.89c.6-2-.56-3-1-4.81a24.33,24.33,0,0,0-1.19-3.62c-.27-.65-.64-1.57-1.46-1.63A1.58,1.58,0,0,0,135.77,91c-.26.78,1.7.53,1.94-.2-.5,1.51-1.71-.49-1,.53a5.83,5.83,0,0,1,.44,1c.28.68.5,1.39.72,2.1.17.54.32,1.09.44,1.64a11,11,0,0,0,.79,1.49,3.46,3.46,0,0,1,.1,2.57c-.24.8,1.72.54,1.94-.2Z"/><path class="cls-3" d="M137.93,94.16a6.94,6.94,0,0,0-.13-3c-.08-.39-.85-.22-1.08-.17l-1.87.4c-.26.05-.93.31-.85.68s.13.63.2.94.85.22,1.08.17l.93-.19c.25-.06.95-.32.85-.69-.21-.85-.75-1-1.42-1.39-.49-.3-2.29.43-1.55.88.53.32.88.36,1,1l.85-.69-.93.2,1.08.18c-.07-.32-.13-.63-.2-.94l-.85.69,1.87-.4-1.08-.17a6.27,6.27,0,0,1,.13,2.79c-.15.64,1.79.33,1.93-.27Z"/><path class="cls-3" d="M133,98.51l-.3-1.41c-.06-.28-.63-.24-.82-.2s-4.35.47-4.85-.59c-.68-1.44.3-3.33.83-4.65,1.23-3.11-1.19-6.48.65-9.13.46-.65-1.46-.41-1.78,0a4.26,4.26,0,0,0-.65,4.21c.94,3.32-.73,5.4-1.16,8.53-.48,3.49,4.51,2.92,6.66,2.51l-.81-.2.3,1.4c.12.57,2.06.09,1.93-.51Z"/><path class="cls-3" d="M156.3,102.35a8.2,8.2,0,0,0-6.88,2.75c-1.31,1.34-2.32,3-3.55,4.42-2.23,2.57-3.13,1.42-5,0-1.06-.82-2.94-.88-4.21-1-3.18-.33-4.79-2.21-7.41-3.65-1.56-.86-5.94,1.39-5.47-2.45.29-2.35-.24-3.83-1-6.15-1.1-3.29,1.16-5.34,2.25-8.15a35.4,35.4,0,0,0,1.11-5c1.2-5.28,9.51-.19,13.23-1.93,2.11-1,4.5-4.79,7.28-3.49,3.06,1.45,5,5,6.79,7.69,1.53,2.25,3.75,3.86,5.43,6s.48,4.81,0,7c-.21.9,1.76.64,2-.17.95-4.19,1.28-6.17-1.66-9.43-3.74-4.14-6.92-10.22-12.11-12.67-2.52-1.19-4.77,1.1-6.47,2.58-3.94,3.43-9.52-1.22-14.11,1.14-2.47,1.27-2.55,5-3,7.31-.45,2.09-2.16,3.6-2.65,5.59-.81,3.33,1.5,5.62,1.32,8.85-.2,3.45.06,4.59,4.08,4.49,3.13-.08,4.11,2.35,6.67,3.32,2.78,1,6.62-.55,8,3.27a.79.79,0,0,0,.87.41,8.57,8.57,0,0,0,5.15-2.36c2.58-2.61,4.41-7.27,8.79-7,.9,0,2-1.25.69-1.33Z"/><path class="cls-3" d="M133.62,145.92c-3.11,2.42-7.73-1.52-11.31-.26-1.88.66-5.34,2.49-6.33.13a3.54,3.54,0,0,0-1.92-1.45c-2.15-.78-4.56-.64-6.81-.78a10.93,10.93,0,0,1-4.74-1.18c-2.91-1.62-.31-4.52.57-6.36.46-1-1.49-.85-1.83-.16-1.39,2.92-3.39,5-.25,7.57,2.52,2,7.17,1.44,10.15,1.7,3.84.34,2.78,4.89,7.4,3.26,2.39-.84,5.1-1.92,7.63-1.41,1.39.29,2.79,1.11,4.23,1.14a6,6,0,0,0,4.46-1.42c1-.81-.55-1.32-1.25-.78Z"/><path class="cls-3" d="M115.63,148.71c-.06,1.47-.2,2.94-.39,4.4-.09.76-.22,1.51-.36,2.26-.08.35-.59,1.68-.25,1.53-1.23.55-.08,1,.73.67,1.23-.54,1.36-2,1.57-3.18a44.12,44.12,0,0,0,.63-6c0-.71-1.9-.29-1.93.28Z"/><path class="cls-3" d="M115.16,147.58c-2.66,2.23-4,5.57-6.69,7.79-.84.71,1.08.68,1.55.29,2.65-2.23,4-5.56,6.68-7.78.85-.71-1.08-.68-1.54-.3Z"/><path class="cls-3" d="M110.88,156.09c-.63-1.48-1.82-1.8-3.28-1.24s-1.77,1.89-1.27,3.29c.1.27.88,0,1,0,2.18-.53,3.93-2.1,3.49-4.49-.06-.33-2,.1-1.93.52.23,1.28-.23,3.11-1.69,3.46h1a2.57,2.57,0,0,1,.11-2.38c.3-.43.43.14-.64,0a1,1,0,0,1,.39.16,2.32,2.32,0,0,1,.83,1.16c.17.41,2-.23,1.93-.52Z"/><path class="cls-3" d="M116,155.12c.09.65-.16,1.32-.07,2,.06.46.83.39,1.12.33l.47-.1c.36-.08.9-.41.81-.85s-.13-.62-.2-.94-.58-.41-.86-.37a2.65,2.65,0,0,1-1-.14c-.53-.13-1.39.08-1.54.69a3.06,3.06,0,0,0,.35,2.84c.79.8,2.13.49,3,.08.3-.13.78-.53.48-.9s-.94-.25-1.3-.09-.49.17-.66-.22a3.13,3.13,0,0,1,0-1.89l-1.54.69a5.27,5.27,0,0,0,2,.21l-.86-.38c.07.32.13.63.2.94l.81-.84-.47.1,1.12.32c-.09-.65.17-1.31.07-2s-2-.33-1.93.51Z"/><path class="cls-3" d="M119.48,148.5c.46,2.19.93,4.38,1.39,6.57.15.72,1.86.26,1.93-.36.16-1.38,0-1.88-1.17-2.64-.52-.34-1.76.06-1.73.76.16,3.09,2.79,3.75,5.34,2.78.3-.12.78-.5.5-.85a3.39,3.39,0,0,0-2.7-1.21c-.38-.05-1.51.27-1.33.85s.57.83.76,1.31c.3.74,2.21.17,1.94-.52-.21-.51-.6-.75-.77-1.31l-1.33.86a1.92,1.92,0,0,1,1.65.81c.16-.28.33-.56.49-.85-1.78.69-2.54-.88-2.61-2.39l-1.73.75c.86.56.87.86.75,1.86l1.94-.37c-.46-2.19-.92-4.37-1.39-6.56-.15-.74-2.09-.25-1.93.51Z"/><path class="cls-3" d="M117.93,146.85c-1.46,1.75-.4,4.32-.85,6.38-.21,1,1.76.72,2-.14a9.74,9.74,0,0,0,.12-2.8c0-.91-.23-2.11.4-2.87.79-.94-1-1.25-1.62-.57Z"/><path class="cls-3" d="M113.3,147.07c-2.62,1.08-5.43,1.66-7.86,3.19-.8.51,1.14.26,1.48,0,2.28-1.44,5-2,7.49-3,1.17-.48-.66-.42-1.11-.24Z"/><path class="cls-3" d="M115.51,103.87a6.38,6.38,0,0,0,4-3.55,3,3,0,0,0,0-2.21c-.22-.68-.74-.47-.12-1.26a10.61,10.61,0,0,0,1-1.78c.92-1.8,1.85-4.81.07-6.35-2.08-1.78-4.69-1.76-7.26-1.3-1,.18-1.52,1.53-.2,1.29,2.09-.37,6.58-.7,6.45,2.74a9.89,9.89,0,0,1-2.25,5.63c-.26.33-.16.56-.07,1a6.83,6.83,0,0,1,.62,1.65c0,1.29-1.52,2.63-2.57,3s-.85,1.57.32,1.19Z"/><path class="cls-3" d="M111,89.72c2.63,4.09,2.25,5.76-.22,9.77-1.65,2.68-3.58,5.05-4.51,8.11-1.25,4.1-4.74,16.68-11.48,10.27-3-2.83-2.21-6.23-1.93-9.72a7.94,7.94,0,0,0-.33-2.32c-.67-3,.81-5.27,2.11-7.77,1.77-3.4,1.24-7.22,6.58-7.19a7.09,7.09,0,0,0,4.8-1.74A3.52,3.52,0,0,0,107,88c1.08-1.85,5.86-5.19,5.53-.46-.07,1,1.89.67,1.95-.16a4.08,4.08,0,0,0-5.12-4,4.29,4.29,0,0,0-2.78,1.77,10.85,10.85,0,0,0-.93,1.79c-1.51,3.16-3.87,2.44-6.33,2.44-3.63,0-5.06,2.72-5.68,5.82s-2.59,5.56-3.27,8.64a7.44,7.44,0,0,0,.26,2.43,12.44,12.44,0,0,1-.26,5.43c-.75,3.43,2.59,7.53,5.49,8.82s6-.78,7.91-2.67a12.85,12.85,0,0,0,3.09-5.66A46.07,46.07,0,0,1,112,100.82c3-5,4.15-6.75.82-11.93-.45-.7-2.3,0-1.77.83Z"/><path class="cls-3" d="M105.24,104.06A24.74,24.74,0,0,0,105,93.64l-1.93.52c1.51,3.08,1.88,6.42,2.55,9.75l1.93-.52-.1-.47c-.16-.75-1.43-.29-1.76,0a4.26,4.26,0,0,0-1.65,2.6l1.94-.35a21.35,21.35,0,0,0-4.51-9.5c-.52-.61-2.36.13-1.78.82a20.58,20.58,0,0,1,4.35,9.2c.19.85,1.78.27,1.94-.35.32-1.19.42-1.1,1.3-1.94l-1.76,0,.1.47c.18.82,2.1.32,1.93-.52-.66-3.32-1-6.67-2.55-9.75-.36-.74-2.1-.35-1.93.52a23.8,23.8,0,0,1,.2,10.08c-.2.87,1.77.6,1.95-.18Z"/><path class="cls-3" d="M105,103.56a13.06,13.06,0,0,0-5.3-3.43c-.48-.14-1.58,0-1.53.75.19,3,2,4.49,4.35,6,.77.51,2.42-.54,1.47-1.16-1.93-1.26-3.69-2.49-3.86-5l-1.53.74a12.18,12.18,0,0,1,4.93,3.23c.66.65,2.3-.36,1.47-1.17Z"/><path class="cls-3" d="M105.73,107c-2.43-1.48-5.27-1.86-7.93-2.73-.29-.1-2.09.09-1.74.71,1,1.81,2.84,2.49,4.82,2.75l.47-1-1.88.39c-1.18.25-.9,1.18.25.94l1.88-.4c.39-.08,1.38-.86.47-1-1.63-.21-3.21-.72-4.07-2.23l-1.74.71c2.66.88,5.5,1.26,7.93,2.74.52.32,2.31-.45,1.54-.92Z"/><path class="cls-3" d="M103.55,118.19c-.92.88-1.88,1.51-3.22,1.09-.16.33-.31.67-.47,1l.94-.2-.51-.87a3.32,3.32,0,0,1-3.27-.12c-.54-.3-2.32.49-1.54.93a6.05,6.05,0,0,0,5.57,0c1-.52.39-1-.5-.86l-.94.2c-.49.1-1.3.73-.47,1a6.13,6.13,0,0,0,6-1.83c.81-.77-1.1-.73-1.55-.3Z"/><path class="cls-3" d="M101.42,99.79a2.41,2.41,0,0,0-2.49-1.63,3.21,3.21,0,0,0-2.39,1.66,1.75,1.75,0,0,0,.12,2.11c1,.91,2.62.59,3.8.25.37-.1.89-.41.79-.88s-.2-.94-.29-1.41c-.19-.85-2.12-.35-1.94.52l.3,1.41c.27-.3.53-.6.8-.89l-.37.1s-.42.09-.29.07l-.38.05s-.41,0-.18,0l-.29,0c-.17,0,.14,0-.09,0s0,0-.07,0-.21-.17,0,0c-.06-.06-.21-.31-.13-.14,0-.07-.08-.39-.07-.21a1.17,1.17,0,0,1,0-.37c0-.2,0,.05,0-.07s0-.12.08-.19.24-.38.1-.19a2.79,2.79,0,0,1,.28-.32c.11-.11-.16.13,0,0s.28-.17,0,0a1.11,1.11,0,0,1,.19-.09c-.31.13-.11,0,0,0-.31.07-.15,0-.07,0s-.25,0,0,0c-.26,0,0,0,0,0s-.13-.08.06,0,.11.07.28.27a2.92,2.92,0,0,1,.29.48.93.93,0,0,0,1.14.37c.29-.08,1-.46.79-.89Z"/><path class="cls-3" d="M102.69,103.66c1.25,1.56,2.51,3.24,4.4,4.06.32.14,1.91-.11,1.75-.68-.28-.93-1.11-1.21-1.87-1.67a1.51,1.51,0,0,0-1.26.06c-.1,0-.9.43-.55.64.68.42,1.5.65,1.74,1.49l1.75-.67c-1.76-.77-3-2.47-4.15-3.93-.34-.43-2.19.22-1.81.7Z"/><path class="cls-3" d="M106.32,109.05c-.2-.82-.92-1-1.67-.65a2.24,2.24,0,0,0-1.1,1.68c-.21.76,1.74.48,1.93-.22l.15-.5a1.47,1.47,0,0,1,.1-.22c.18-.27,0-.19-.5.21l-.72,0h0l-.31-.16a.55.55,0,0,1,.14.33c.18.73,2.11.22,1.93-.51Z"/><path class="cls-3" d="M105.79,109.05c-.66-.41-1.52-.64-1.74-1.48-.15-.57-2.08-.06-1.93.51.24,1,1.12,1.21,1.86,1.68a1.49,1.49,0,0,0,1.27,0c.11,0,.89-.45.54-.67Z"/><path class="cls-3" d="M109.61,101.58c.75-1.33-.1-2.68-.78-3.84-.29-.5-2.1.22-1.93.51.63,1.09,1.51,2.41.8,3.66-.18.32.7.22.78.21.35-.06.94-.2,1.13-.54Z"/><path class="cls-3" d="M97.82,143.21c-.4,1.94-2.52-1.66-2.46-1.53-.52-1.19-.4-2.45-1-3.64-1.56-2.9-6-1.75-7.12-5.17-.88-2.58,1.41-6,1.24-8.78-.24-3.86-2.71-8,1.9-10.47.82-.43-1.13-.19-1.46,0-3.79,2-3.47,5-2.71,8.83.59,3-.06,5.39-.78,8.3-.59,2.4-.08,3.94,2,5.06,2.41,1.3,4.87,1.38,5.67,4.49.69,2.72.82,3.11,3.37,4.48,1.57.84,3-.57,3.29-1.9.08-.4-1.81-.1-1.9.35Z"/><path class="cls-3" d="M87.81,135.41c-2,.51-3.22,2.13-5,3.06-1.17.61-.11,1.49.82,1,1.55-.8,2.8-2.44,4.51-2.87,1.19-.3.87-1.48-.32-1.19Z"/><path class="cls-3" d="M81.74,136.7a8.46,8.46,0,0,0,.24,3.57c.14.68,1.23.47,1.6.18a4.2,4.2,0,0,0,1.86-2.13.56.56,0,0,0-.36-.77c-2.25-.79-4.53.9-3.47,3.29a.91.91,0,0,0,1.14.41,3.79,3.79,0,0,0,2.31-1.72c.67-1-1.13-1.33-1.62-.58-.29.44-.52.82-1,1l1.15.41a1.89,1.89,0,0,1-.21-1.39c.12-.31.34-.17.63-.07-.12-.26-.24-.51-.37-.77-.22.77-.68,1-1.29,1.47l1.61.19a7.38,7.38,0,0,1-.21-3.2c.2-1-1.77-.72-2,.15Z"/><path class="cls-3" d="M85,126.76c-1.36,1.18-3.22,2.23-4.13,3.83-1,1.76-.32,3.46.68,5.06.22.33.74.3,1.07.23l.93-.2c.4-.08.89-.46.79-.92l-.69-3.28c-.11-.49-.79-.48-1.15-.4l-.46.1c-.4.08-.89.46-.79.92l.2.93c.18.85,1.88.43,1.94-.33a15.51,15.51,0,0,0-.44-4.5c-.18-.89-2.12-.39-1.93.52a14.36,14.36,0,0,1,.41,4.13l2-.33-.2-.94-.79.92.47-.1L81.7,132l.69,3.28.79-.92-.94.2,1.06.24c-.91-1.45-1.49-2.91-.31-4.36a25.1,25.1,0,0,1,3.27-2.81c1-.86-.55-1.5-1.28-.87Z"/><path class="cls-3" d="M87.21,130.08a10.33,10.33,0,0,0-6.68-3.8l.6.34c-.07-.31-.13-.63-.2-.94-.15-.74-2.09-.25-1.93.52.07.31.13.62.2.94s.39.32.6.34c2.15.16,4.29,1.79,5.62,3.39.47.56,2.32-.14,1.79-.79Z"/><path class="cls-3" d="M82.34,125.38a3.9,3.9,0,0,0-2.35-4c-.39-.17-1.83,0-1.88.58A7,7,0,0,0,79,126.2c.12.21.6.11.78.08l.47-.1c.28-.06,1.12-.21,1.15-.6s.08-.83-.3-1.06-.69,0-1-.21a1.84,1.84,0,0,0-1.24.12c-.06,0-.88.37-.58.53a2.07,2.07,0,0,0,.85.19c.45,0,.36.64.33.95l1.15-.59-.47.09.78.08a7.06,7.06,0,0,1-.89-4.22l-1.88.58a3.73,3.73,0,0,1,2.25,3.86c0,.27,1.92,0,1.93-.52Z"/><path class="cls-3" d="M82.27,131.12a5.27,5.27,0,0,0,1.29-.42c.32-.18.31-.4.24-.72s-2,.1-1.93.51c.11.57-.11.19.78,0-.32.07-.94.18-1.14.5s.7.15.76.14Z"/><path class="cls-3" d="M100,123.54c-.08,2.5-1.76,4.47-3.32,6.27-.8.92,1,1.15,1.6.52,1.72-2,3.58-4.21,3.67-7,0-1-1.92-.66-2,.17Z"/><path class="cls-3" d="M101,126c.2,1.11.2,2.36-.84,3l1.59.11c-.27-1.67.76-2.75,1.84-3.86l-1.7-.3c-1,2.05-2.7,3.64-3.7,5.68-.45.93,1.5.81,1.82.14,1-2.05,2.7-3.63,3.7-5.68.47-.95-1.32-.68-1.7-.29-1.35,1.38-2.52,2.78-2.2,4.83.11.65,1.28.31,1.59.11a3.91,3.91,0,0,0,1.53-4.31c-.15-.79-2.09-.3-1.93.52Z"/><path class="cls-3" d="M158.84,136.16c3.5.85,7.62,1.14,9.09-2.79.36-1-.6-2.54-1-3.36-1-2.24.21-3.78,1.44-5.47,1.09-1.48-.35-4.69.22-5.21,1.53-1.39,3.72-3.66,3.46-6a5.12,5.12,0,0,0-1.73-3.53c-2.61-2.77-1.65-2.17-2.7-4.93-1.48-3.89-5.67-2.33-8.14-.06-.85.79,1,.88,1.57.41,5.35-4.94,4.51,1.68,5.34,3.45a3.19,3.19,0,0,0,1.16,1.26c4.39,3,2.06,7.17-1.35,9.53-.22.15-.51.46-.28.73,2.65,3.18-.49,4.78-1.3,7.81s4.68,9.26-4.66,7c-.69-.17-2.29.86-1.16,1.13Z"/><path class="cls-3" d="M161,138.74c.72,3.42-.82,3.38-2.74,5.69-.79,1-.16,1.88-1.34,2.78-2.38,1.83-4.3,4.07-7.79,3.8-3-.23-4.8-3-7.73-3.21a4.37,4.37,0,0,0-1.81.39c-2.26.92-4.08,1-6.14-.91-.46-.44-2.27.28-1.8.73,1.89,1.79,4.1,3.32,6.76,2.24,2.23-.91,2.85-1.57,5.2,0A12.91,12.91,0,0,0,148,152c2.51.63,5.6-.93,7.71-2.05,3.32-1.77,4.66-6.4,7.61-7.93.16-.09.42-.28.37-.5l-.69-3.28c-.13-.61-2.07-.13-1.93.51Z"/><path class="cls-3" d="M167,104.15c.78-2.73,3.11-4.9,2.2-7.89a2,2,0,0,0-1.5-1.35c-2.62-.27-2.4-2.76-2.45-4.6-.16-5.65-4.51-7.85-9.48-6.71-1.15.27-.95.92.18.66,3.94-.91,6.14,1.38,7.11,4.81.35,1.23-.66,5.15,0,5.73,1.52,1.36,3.74.43,4.48,2.87.64,2.08-1.9,4.89-2.45,6.81-.13.45,1.77.19,1.91-.33Z"/><path class="cls-3" d="M135.89,79.77c-2.13-4.56-2.8-6.65-7.95-6.09a61.06,61.06,0,0,0-6.81,1.44,8.19,8.19,0,0,0-1.54.75c-4,2.13-3.94.48-6.85.14a3.82,3.82,0,0,0-2.6.92,42.2,42.2,0,0,1-5.88,4.33c-3.09,2-5.84,5-2.19,7.85.51.41,2.29-.35,1.8-.74-4.27-3.36,1.25-6.49,4.18-8.17a7.17,7.17,0,0,0,1.63-1c4.22-4.53,2.81-.89,5.29-.87a12.17,12.17,0,0,0,5.81-1.93,20.52,20.52,0,0,1,5.65-1.5c4.57-.91,6,2.18,7.53,5.4.3.63,2.18,0,1.93-.52Z"/><path class="cls-3" d="M89.5,96.93c-.36,2.65-3.23,4.09-3.11,6.74.08,1.86,1,3.8,1.59,5.54.33,1,.24,2.53.89,3.24.37.4,2.19-.29,1.81-.69s-.54-2.35-.77-3.07c-.52-1.62-1.11-3.2-1.49-4.86-.61-2.66,2.63-4.55,3-7.21.07-.57-1.85-.2-1.92.31Z"/><path class="cls-3" d="M138.36,78.11a41.13,41.13,0,0,0,2.15-6.49c.21-.79-1.29-.59-1.6-.32a7,7,0,0,0-2.2,3.33c-.18.59.84.61,1.14.53A4.11,4.11,0,0,0,141,71.52c.12-.82-1.25-.59-1.6-.32-1,.74-2,1.36-3,2.1l1.55.49c.63-1.74-.33-1.64-1.47-2.65-.44-.39-1.58-.33-1.8.33-.35,1-1.06,1.83-1,3l1.93-.52c-.26-.94-.8-1.77-1.06-2.71s-2.17-.32-1.93.51.8,1.77,1.06,2.72,2,.32,1.93-.52.62-1.57.86-2.3l-1.8.33a5.79,5.79,0,0,0,1,.74c.54.32.69.2.43.91-.33.91,1.09.84,1.55.48,1-.73,2-1.36,3-2.1L139,71.69c-.15,1-.45,2-1.51,2.24l1.14.53a5.11,5.11,0,0,1,1.51-2.36l-1.61-.31a39.19,39.19,0,0,1-2,6.15c-.44,1,1.5.9,1.83.17Z"/><path class="cls-3" d="M118.05,74.32a3.67,3.67,0,0,0,0-2.53c-.07-.31-.89-.11-1.05-.06a2.11,2.11,0,0,0-1.11.59,8,8,0,0,0-.5,1c-.19.32.7.23.78.21a1.66,1.66,0,0,0,1.13-.54,3.54,3.54,0,0,0,.25-.52c.18-.49.29-.33-.38-.13l-1-.06a3.45,3.45,0,0,1,0,2.35c-.18.32.7.23.78.21.36-.06.94-.19,1.13-.54Z"/><path class="cls-3" d="M116.94,74.26c-2.17-.75-4.54-.18-6.71.27-.23,0-1,.31-.86.67s.85.19,1.07.14c1.6-.34,3.36-.78,4.94-.23.52.18,2.27-.61,1.56-.85Z"/><path class="cls-3" d="M92.94,140.91c.09-2.23-3.94-.7-5-.46l1.08.19c-.25-.95-.81-1.77-1.06-2.72-.17-.63-2.1-.11-1.93.52.25.95.81,1.76,1.06,2.71.1.39.83.24,1.08.19.49-.11,2.91-1.08,2.87-.17,0,.74,1.91.33,1.93-.26Z"/><path class="cls-3" d="M83.35,123.21c-.31-2.09-1.68-3.06-2.85-4.7-.84-1.18,1.09-3.19,1-4.63s-.77-2.58-1-3.92c-.26-2,3.51-3.3,5-4,1.16-.57-.64-.56-1.13-.32-2.53,1.25-6.61,2.76-5.46,6.2a13.57,13.57,0,0,1,.62,2.59c.21,1.56-1.35,1.86-1.29,3.14.12,2.53,2.74,3.65,3.11,6.19.06.44,2,0,1.93-.52Z"/><path class="cls-3" d="M141.13,152.52a3.19,3.19,0,0,0-1.69,1.29,18.21,18.21,0,0,0-.88,2c-.18.47-3-1.53-3.29-1.76a1.3,1.3,0,0,0-1.56.27c-2.58,2.64-5.74,4.82-9.46,5.35-1.07.15-2.53-1.55-3.42-2.08-.73-.43-2.43.56-1.49,1.12a3,3,0,0,1,1.68,1.75.71.71,0,0,0,.63.44c5.25.86,10.17-2.42,13.68-6l-1.55.27c1.44,1,3.33,2.65,5.27,2.13,1.78-.48,1.31-2.88,2.93-3.6,1.21-.54.14-1.58-.85-1.14Z"/><path class="cls-3" d="M107.47,153a23.54,23.54,0,0,0-5.24.09c-2.11.22-2-2.57-2.14-4.06,0-.32-.65-.3-.84-.28-1.66.18-1.82-2-1.83-3.08,0-.6-1.94-.23-1.93.52,0,2.33,1.08,3.88,3.5,3.63l-.84-.28c.11,1.45.11,4.09,1.92,4.55,2,.5,4.19-.29,6.21,0,.61.07,2.28-.92,1.19-1.05Z"/><path class="cls-3" d="M100.84,80.81c-.28-2.72-4.57-2.27-6.39-1.14-1.13.71-1.3,1.72-1.55,3-.68,3.45-3.79,3.13-5.85,5-1,.88-.76,3.69-1.61,4.13A2.67,2.67,0,0,0,84,94c.06,3.29.56,4.87-1.7,7.72-1.36,1.72.38,3,1.7,3.93.57.42,2.35-.36,1.8-.77-3.06-2.25-.93-3.24.08-5.58.87-2-.85-6.09,1.42-7.26.28-.15.6-.32.58-.68-.25-4.52,3.1-3.52,5.36-6a4.47,4.47,0,0,0,1.36-2.12A17.65,17.65,0,0,0,95,81.57c.11-.55,3.64-2.89,3.91-.24.07.67,2,.24,1.93-.52Z"/><path class="cls-3" d="M84.94,90.63l.32-.57a.19.19,0,0,0-.06-.22c-3.21-3.71-2.3-8.76-5.37-12.78C77,73.36,72,69.92,67.93,67.79c-11.49-6-24.84-3.6-37.22-5.14-.28,0-1.78.18-1.57.73,2.28,6.06,4.09,12.3,7.39,17.91,3,5.11,7.75,8.61,12.92,11.28a27.78,27.78,0,0,0,15.93,2.71c4.62-.52,14.34-7.1,17.16-.82.26.58,2.15,0,1.93-.52-1.26-2.82-4.38-3.27-7.2-2.9-6.62.86-11.82,4.23-18.89,3.15C50.78,93,43.62,88,39.18,81.89c-4-5.56-5.72-12.7-8.11-19l-1.57.72c11.79,1.47,24.29-.62,35.44,4.33A41.43,41.43,0,0,1,78,77.77c2.15,2.4,2.57,5,2.86,8,.08.85,2.31,4.83,2.14,5.13s1.62.25,1.92-.29Z"/><path class="cls-3" d="M80.17,97.28c-5.37-5.53-18.88,5-22.92,8.13C52,109.47,47.92,115.35,44,120.7a78.25,78.25,0,0,0-6.91,11.88C35,137,32.71,141.85,28,144c-1,.45.17.59.65.47a40.22,40.22,0,0,0,5.11-1.69c3.83-1.5,7.67-.67,11.59-.28a43.2,43.2,0,0,0,13.44-1.19c7.65-1.68,14-6.31,19.56-11.6.44-.42-1.4-.21-1.75.12-5.53,5.23-11.4,9.38-19,11-6.62,1.46-12.59,0-19.14.08-2.81,0-6.43,1.72-8.08,2.74,3.5-2.17,5.55-5.47,7.43-9.05,5.15-9.79,10.7-19.62,18.8-27.37,3.64-3.49,17.11-14,21.7-9.32.37.38,2.16-.33,1.82-.67Z"/><path class="cls-3" d="M124,70.64c.74-5.51,3.44-10.49,4.18-16,.68-5.09-.26-10.6-1.25-15.57-.1-.5-.78-.49-1.15-.42-9.08,1.67-19.57,7.61-26,14.2-6.87,7-8.38,16.59-8.78,26,0,1,1.92.77,2-.13.35-8.21,1.45-16.52,6.56-23.24,2.71-3.57,7.07-6,10.75-8.49a42.59,42.59,0,0,1,15.92-7L125,39.58a51,51,0,0,1,1,16.74c-.67,5-3.3,9.46-4,14.46-.14,1,1.84.76,2-.14Z"/><path class="cls-3" d="M173.52,121c5.27-1.41,10.76-1.47,16-2.89a77.21,77.21,0,0,0,10.77-3.57c6.45-2.78,11.52-7.5,15.86-12.93.38-.47-.5-.52-.75-.5-4,.44-6.76,1.16-10.52-1.26-1.88-1.21-3.67-2.5-5.61-3.62-4.55-2.61-10.88-2.94-16-2.94-4.61,0-13.93-.42-16.67,4.29-.43.76,1.5.51,1.79,0,1.87-3.23,7.37-2.88,10.59-3a53.59,53.59,0,0,1,13.79.88c7.35,1.58,11.68,8.61,19.54,7.07,2.24-.44,1.14.22.1,1.46a44.47,44.47,0,0,1-4.76,4.75,34.93,34.93,0,0,1-9.28,5.59c-8.11,3.49-16.75,3.54-25.13,5.78-1.15.31-.91,1.2.24.89Z"/><path class="cls-3" d="M167.8,86.86c7.33-1.56,10.6-9,10.94-15.89.29-5.77-4.49-9.92-3.08-15.84,1.28-5.31,6.06-9.3,8.09-14.35.23-.59-1.39-.12-1.54-.05-9.7,4.62-22.07,1.7-31,7.94-6.81,4.78-9,14.66-10.5,22.28-.11.58,1.81.25,1.92-.3,1.49-7.83,3.67-16.52,10.09-21.81,4.56-3.75,12.94-3.45,18.62-4.22a39.82,39.82,0,0,0,12-3.5l-1.53,0c-2.94,7.32-10.68,12.79-7.61,21.39,1.6,4.45,3,7.4,2.23,12.25S172.78,85,167.6,86.1c-1.16.25-.94,1,.2.76Z"/><path class="cls-3" d="M166.85,143.85c3,1,4.35,9.73,5,12.25,1.18,4.3,2,8.88,3.69,13,.16.38,2-.13,1.93-.52-.76-3.6-12.23-.12-14.11.36-10.8,2.75-21.09-1.17-26.46-10.95-.25-.44-2.06.29-1.94.52a21.86,21.86,0,0,0,15.71,11.6,23.54,23.54,0,0,0,8.49.29c3.06-.56,15.65-4.74,16.38-1.3l1.93-.52c-2-4.8-2.89-10.17-4.29-15.17-.71-2.51-1.75-9.33-4.77-10.28-.41-.13-2.11.55-1.6.71Z"/><path class="cls-3" d="M109.49,161.76c-2.68,7.66-17.44,8.92-24.33,10.11a25.68,25.68,0,0,0-10.91,4.57c-4.93,3.59-7.92,9.23-13,12.84l1.57,0a51.74,51.74,0,0,0-3.3-14.09c-2.34-5.67-3.51-10.53,1-15.51,5.78-6.35,14.41-9.94,21.85-13.91,1.15-.62-.57-.92-1.2-.58-8.14,4.34-16.82,8.26-23.13,15.2-2.86,3.14-3.12,6.65-2.18,10.62.65,2.76,2.06,5.33,2.92,8a57.07,57.07,0,0,1,2.09,10.75c.06.57,1.32.2,1.56,0,4.76-3.4,8-8,12-12,4.65-4.61,11.51-4.92,17.56-6.23s17-3.23,19.34-10.07c.23-.66-1.7-.41-1.93.24Z"/></svg>