<svg id="layer1" xmlns="http://www.w3.org/2000/svg" viewBox="0 0 269.54 589.59"><defs><style>.cls-1{fill:#f9deb7;}.cls-2{fill:#1ca332;}.cls-3{fill:#efb82e;}.cls-4{fill:#f99115;}.cls-5{fill:#664a2f;}.cls-6{fill:#492d0c;}</style></defs><path class="cls-1" d="M178.42,182.24a6.9,6.9,0,0,0-5.78-3.13,45.91,45.91,0,0,0-11.39-1.81,12.63,12.63,0,0,1-2.15-1.06,29,29,0,0,0-3.85-3.19c-1.54-1.59-3-3.38-4.41-5.1,0-1,0-2,0-3a3.33,3.33,0,0,0-.5-1.82l.59-1a3,3,0,0,0,2.69-1,49.29,49.29,0,0,0,10.82-20.63,3,3,0,0,0,2.57-3.31,29.62,29.62,0,0,0-2.28-10.73,18.92,18.92,0,0,0-3.24-6.79,3.73,3.73,0,0,0-1.54-3.61,31.22,31.22,0,0,0-12.56-5.68A3.34,3.34,0,0,0,143.6,112l-.39-.1a13.07,13.07,0,0,0-2.79-.28,24.24,24.24,0,0,0-2.45-.22,3.3,3.3,0,0,0-3,1.69,14.29,14.29,0,0,0-5.82,7.26,3.42,3.42,0,0,0-2.14,2.16,34,34,0,0,0-1.72,7,3.13,3.13,0,0,0-2.56,3.28,28.24,28.24,0,0,0,.44,4.1c-.07,1.16-.09,2.33-.09,3.51a3.46,3.46,0,0,0,3,3.35c1.71,7.81,5.26,15.4,8.9,22.62-2,9.78-14.6,15.05-23.58,15.51-2.14.12-4.15,2.18-3.37,4.44a73,73,0,0,0,6.58,13.29c2.29,3.91,3.9,8.25,6.53,12,3.09,4.37,7.38,4.65,11.81,3.79a3.45,3.45,0,0,0,2,.51A163.73,163.73,0,0,0,152,214.43c.85-.11,1.7-.19,2.55-.28l.18,0c3.12.4,8.82.38,11.67-2.08,1.4.93,3.43,1,4.51-.34,3.83-4.91,8.12-16.95,6.22-24.88C178.77,186,179.73,184.07,178.42,182.24Zm-42.73-33.83a3.07,3.07,0,0,0,1.4.57c.32.05.63.07.94.1v0h.26a22.13,22.13,0,0,0,2.3.05c3.37.18,6.79.75,9.86.13l-2.58,5.17c-.74,1.11-1.52,2.21-2.28,3.31A19,19,0,0,1,135.69,148.41Z"/><path class="cls-1" d="M198.12,350.46c0-2.78-.2-5.52-.2-8.29v-.12h-.34a5.86,5.86,0,0,1-.12-.88,2.72,2.72,0,0,0-1.77-2.25,3.3,3.3,0,0,0-2.07-1.44,3,3,0,0,0-.54-.58,3.62,3.62,0,0,0-4.43-3.33,9.09,9.09,0,0,0-5.2,2.72c-1,1-2.37,5-4.16,4.55-4.18-.95-6.59,1.71-8.81,4.67a3.55,3.55,0,0,0-5.73,1.58c-.13.38-.23.75-.33,1.13a3.29,3.29,0,0,0-.59.92,3.56,3.56,0,0,0-4.27,4.31,25.41,25.41,0,0,0,3.27,7c-.08.12-.15.24-.22.37a2.9,2.9,0,0,0-1.57,0c-.18-.08-.36-.14-.54-.2-2.61-2.66-6.58-1.67-9.24,2.52-2.84,4.5.06,14.52,2,19a6.51,6.51,0,0,0,5.61,3.94,3.44,3.44,0,0,0,2,.63,41.6,41.6,0,0,0,21.22-5.36,3.73,3.73,0,0,0,1.66-.31,22.21,22.21,0,0,0,8.39-6C199.1,368.91,199.58,359.38,198.12,350.46Z"/><path class="cls-1" d="M151,427.37c-.08-4.52-.25-9.05-.21-13.58s1.19-8.8,1.71-13.27c.86-7.39-1.92-14.35-9.82-11.36-4.74-1.77-10.3-.55-15.22-.48-3.79.05-4.3,4.42-1.93,6.24.18,8,3.51,15.51,4.07,23.49q.08,1,.12,2c-1.33,7.65-3.55,15.36-3.13,23.15a3.51,3.51,0,0,0,3.5,3.45h.53a3.52,3.52,0,0,0,1.24-.18,3.33,3.33,0,0,0,.45.13c5.73.89,13.47,1.84,18.44-1.84C156.46,440.93,152.37,433,151,427.37Z"/><path class="cls-2" d="M187.48,186.05c-5.42,3.72-7.65,11.15-9.62,17.07a138.43,138.43,0,0,0-4.64,18,7,7,0,0,0-2.14,1.29c-.08,0-.16.18-.24.19a45.34,45.34,0,0,0-10.61,1.46h-3.35c-.11,0-.2-.18-.3-.17-3.71-1-7.5-1.63-11.42-.63a3.12,3.12,0,0,0-1.78,1.12,167.16,167.16,0,0,0-21.79-1.32c-.32-.29-.63-.61-1-.89a3.59,3.59,0,0,0-3.09-.79,3.4,3.4,0,0,0-1.18-.2c-3.1-10.63-6.34-21.71-13-30.69-1.33-2.44-5.14-2-6.23.19a2.65,2.65,0,0,0-.15,2.77c1.36,11.85,7.72,22.31,11.64,33.41a211.91,211.91,0,0,0,7.84,20.32c1.9,4,4.16,8,6.15,11.92,0,.21.26.43.26.63v0c0,.29-.26.58-.27.87a9.55,9.55,0,0,1-3,6.57c-3,2.86.52,6.73,3.76,5.56,7.32,2.53,14.48,5.41,21.81,7.9a3,3,0,0,0,4-1.86h0a3.21,3.21,0,0,0,3.56,1.23c5.24-1.61,9.4-5.39,14.6-7a3.5,3.5,0,0,0,2.57-3.38c-.12-1-.27-2.06-.32-3.09a3.4,3.4,0,0,0-1.58-2.82A72.16,72.16,0,0,1,173.18,240a3.83,3.83,0,0,0,.69-.25,11.26,11.26,0,0,0,6.64-8.74c1.63-3.2,2-7.1,2.08-10.78a3.16,3.16,0,0,0-1.41-2.82c.7-3,1.49-5.91,2.33-8.83,1.37-4.71,3.13-13.44,7.5-16.43C194.71,189.56,191.21,183.49,187.48,186.05Z"/><path class="cls-2" d="M222.19,338.92a18.55,18.55,0,0,0-4-8.53,12.08,12.08,0,0,0-1.48-2.71,3.58,3.58,0,0,0-1.58-2.63A204.93,204.93,0,0,1,198.07,311a3.57,3.57,0,0,0-2.4-1,132.54,132.54,0,0,0-7.37-19.64,36.19,36.19,0,0,0-11.18-15.57,3.77,3.77,0,0,0-5.87,1.56c-6.29.21-12.72,6.67-18.48,7.7a4.92,4.92,0,0,0-.61.16c-11.68-2.67-23.12-6.49-35-8.41a3.55,3.55,0,0,0-1.42.06c-1-1.42-2.77-2.22-4.45-1-9,6.69-15.5,18.55-17.18,30-3.13,6-6.77,11.72-11.81,15.45A59.33,59.33,0,0,1,73.54,324c-.22-.3-.43-.59-.59-.83a3.5,3.5,0,0,0-6,3.53c2,4.21-3,6.16-5.8,8.46-2.54,2.07-.28,5.84,2.48,6a33.8,33.8,0,0,0,10.71-1.45c2.08,2.27,5.22,3.74,2,6.9-2,2-.66,6.21,2.47,6a38.76,38.76,0,0,0,9.34-2.34c.84-.28,5.52-1.5,5.94-.23.33,1,.19,2.11.53,3.13.88,2.6,3.08,3.28,5.53,3.86,4,.95,5.36,2.07,7.14,5.71,2.17,4.47,4.61,9.57,9.94,10.68,2.63.55,4.62-1.28,6.26-3.07,3-3.22,4.8-3.32,9-2a3.55,3.55,0,0,0,4.45-3.38v-2.94a3.24,3.24,0,0,0,3.13.61c4.88-1.43,9.7-3,14.59-4.45a3.49,3.49,0,0,0,2.44-2.44,49.68,49.68,0,0,0,1-5.5c1.85.87,4.29.38,4.73-2.12.27-1.51.51-3.17.71-4.94a2.76,2.76,0,0,0,2.2-1.13c.13-.17.28-.32.42-.49-.82,4.11,5.32,5.51,6.82,1.48a17.88,17.88,0,0,0,.55-1.71,3.56,3.56,0,0,0,.53-.9c0-.09.07-.19.1-.28a3.43,3.43,0,0,0,4.2.54,13.31,13.31,0,0,0,4.08-4,3.59,3.59,0,0,0,1.63-.48c2.17-1.2,6.56-4.06,8.68-1.26a3.36,3.36,0,0,0,2.21,1.4h0a3.47,3.47,0,0,0,2.42,3.38l.12,0a3,3,0,0,0-.83,2.3,25.91,25.91,0,0,0,1.29,8v8.5c0,3.26,5,5.07,6.46,1.76.83-1.85,1.86-3.52,2.72-5.32a14.39,14.39,0,0,0,5-3.41,3.88,3.88,0,0,0,3.56-.43c3.93.77,8.49.26,9.07-4.55C225.07,344,223.76,341.33,222.19,338.92Z"/><path class="cls-2" d="M108.92,234.48c0-.15,0-.31,0-.47-.26-9-4.29-18-7.7-26.19a3.83,3.83,0,0,0-1.89-2,3.13,3.13,0,0,0-.39-.42c-.75-3.2-1.48-6.4-2.17-9.62-.78-3.66-5.65-3-6.75,0-2.3,6.26-2,12.62-1.07,19A3.28,3.28,0,0,0,88,217c-.36,16.1,5.9,31.87,2.67,47.94-3.15,15.66-9.34,30-6.35,46.29.67,3.62,2.39,7.2,3.38,4.15,1.34-4.17,5.77-12.55,6.69-16.81,0-.06,0-.12.08-.19a3.08,3.08,0,0,0,.69-.91c.67-1.33,1.27-2.67,1.82-4,3.22-5.93,7-11.7,9-18,3.87-11.72,3.59-24.49,6-36.52A3.76,3.76,0,0,0,108.92,234.48Z"/><path class="cls-2" d="M198.38,303.66a10.54,10.54,0,0,1-.46-2.23v0a25.36,25.36,0,0,0-.45-4c-1.07-10.2-2.69-20.33-4.63-30.41-.51-18.6,2.77-37.25,3.46-55.92,1.41-6.3,1.88-12.63-.5-19.11-1.28-3.46-7.26-3.25-6.88.93,0,.11,0,.21,0,.32a3.37,3.37,0,0,0-.53,1.29c-1.3,6.56-2.51,13.12-3.81,19.68a3.87,3.87,0,0,0,0,1.35c-1.13,7.5-2.14,15-5.34,22a30.79,30.79,0,0,0-2.52,14.15,3.51,3.51,0,0,0-.35,2.39,44.2,44.2,0,0,1-.64,17.18,3.49,3.49,0,0,0,5.77,3.4c.42,1.42.83,2.81,1.22,4.17a3.26,3.26,0,0,0,1.76,2.12c1.13,2.72,2.37,5.44,3.45,8.2,1.16,5.48,6.45,10.63,7.68,16C196.59,309.62,199.38,308.05,198.38,303.66Z"/><path class="cls-2" d="M162,115.65a1.36,1.36,0,0,0,.36-1.88c-4.59-9.53-12.8-10.58-20.94-7.76a25.93,25.93,0,0,0-4.45.22c-2.05.28-2.26,1.55-1.49,2.5a47.91,47.91,0,0,0-14.57,12.69c-1.47,2,3.33,3.37,4.66,1.54,3.56-4.89,8.79-8.87,14-11.83a26.71,26.71,0,0,1,2.44-1.24,42.9,42.9,0,0,1,5,.5c6.37,1.64,12.07,5.88,12.81,12.68.24,2.24,5.18,2.25,4.9-.34A15,15,0,0,0,162,115.65Z"/><path class="cls-3" d="M193.58,309.41c-2.6-1.59-2.76-3.51-3-6.28-.28-3.7-1.85-5.63-5-7.37-2.65-1.45-3.43-2.27-2.74-5.24a3.44,3.44,0,0,0-.87-3.08,13.17,13.17,0,0,0-2.5-2.3,40.8,40.8,0,0,0-4.32-7.83c.26-1.34-.91-1.95-2.17-1.89a2.51,2.51,0,0,0-.55,0c.29-2.44-2.35-5.19-5.24-3.65-15.89,8.45-34.31,6.51-49.78-1.91-4-2.15-7.5,3.89-3.53,6.05.68.37,1.38.7,2.07,1.05a12,12,0,0,1-3.3,1.46,2.45,2.45,0,0,0-2,2c-.19,2.77-1.72,2.86-3.87,3.7s-2.89,2.5-3.61,4.4c-1.38,3.65-1,8.55-3.32,11.77-1.31,1.88-3.33,3.32-4.8,5.1-2.11,2.54-2.27,6.28.94,8,3.83,2.09,8.56.38,11.77-2.24a2,2,0,0,0,.82-2.06c-1.86-5.2,2.42-17.81,8.17-19.6a2.42,2.42,0,0,0,2-2.61c-.32-2.95.62-4.59,3-6.19a2.3,2.3,0,0,0,.81-.9c1.91.73,3.84,1.4,5.8,1.95-5.06,2.15-.85,8.22-2.06,13.18a72,72,0,0,1-3.34,10.42c-1,.62-2.1,1.2-3.07,1.79-8.06,5-9.24,16-.37,21a5.63,5.63,0,0,0,7.88-2.83c.6-1.7-.27-3.42-1-4.94-1.71-3.57-2.61-5.22-.68-9.09.53-1.06,1-2.14,1.47-3.23a21.42,21.42,0,0,0,2.88-2c2.78-2.38,3.89-5.23,2.73-8.68-1.25-3.77-.23-5.52,1.77-8.69,1.07-1.71,2.42-3.19,3.46-4.9a.42.42,0,0,0,0-.1,59.52,59.52,0,0,0,10.25.32,3.18,3.18,0,0,0,.84,2.89l.35.45c-2.32,3.7-2.36,8-1.78,12.53s4.21,11.26,1.53,15.62c-4.07,6.63,4.3,12.65,10.64,11.84a.57.57,0,0,1,0-.13c-1.44-4.51.45-8.94-1.13-13.45-1.74-5-5.22-7.87-5-13.67.11-2.79,1.38-6.22-.14-8.85-.13-.23-.29-.46-.45-.69a15.11,15.11,0,0,1,1.61-1.93c.32-.31-1.29-2-2.19-2.8l.29-.37c.2-.26-.38-1-1.11-1.76a54.42,54.42,0,0,0,9.19-1.92c-1.74,6,3.43,11.06,5.82,16.29.17.36.33.73.5,1.09a56.16,56.16,0,0,1-.9,13.44c-1.06,5.57,10.84,15,12.91,7.82.38-1.3-.92-3.52-1.37-4.66-1.39-3.58-3-7.09-4.51-10.6-.73-1.66-1.49-3.31-2.24-5-.64-5.81-1.93-11.8-5-16.61a3.19,3.19,0,0,0-.92-.86,4.61,4.61,0,0,0-1.79-1.77,52.35,52.35,0,0,0,6.39-2.75,1.41,1.41,0,0,0,.13.24,1.13,1.13,0,0,1,.1.13,7.16,7.16,0,0,0,2.44,6.85c.77.71,1.59,1.36,2.41,2,1.91,5,2.9,10.15,4.16,15.69,1.53,6.76,5.24,11.52,12.62,11,1.06-.08,2.56-.91,2.56-2.14C194.23,311.13,194.45,309.94,193.58,309.41Zm-95.12-.79c.51-1.69,2.6-3.16,3.8-4.35a13.26,13.26,0,0,0,.95-1.07,15.76,15.76,0,0,0,.06,5.58C101.3,309.69,97.76,310.94,98.46,308.62Zm8.21-14.88c.33-2.26.78-5.1,2.24-5.89,1.08-.58,2.37-.74,3.47-1.31a5,5,0,0,0,1.36-1c0,.25,0,.5,0,.76A20.32,20.32,0,0,0,106.67,293.74Zm12.11,30c-2-2.68-1.45-6.39,0-9.11A8.4,8.4,0,0,1,120,313c-.18,2.4.88,4.43,2.26,7.09a10.84,10.84,0,0,1,.9,2.23C123.73,324.61,120,325.44,118.78,323.76ZM152.16,305c.75,1.51,1.84,2.89,2.68,4.36,1.77,3.07,1.23,6.24.91,9.57-.14,1.36,1.16,5.06-1.86,4.84-2.51-.18-3.27-.8-2.19-3.19,1.43-3.17,2-4,1.59-7.77s-1.93-7.25-2.41-11c0-.14,0-.28,0-.42A18,18,0,0,0,152.16,305Zm19.42,5.4a7.39,7.39,0,0,0,.14-1.14c.7,1.63,1.38,3.26,2.05,4.91.61,1.5,2.6,8.07-2.17,4.07C169.4,316.4,171.15,312.56,171.58,310.4Zm11.81-10.49a5.21,5.21,0,0,1,2.23,3.08c.39,1.66.3,3.23.64,4.82C184.69,305.75,183.93,302.72,183.39,299.91Z"/><path class="cls-3" d="M181.06,184.06c-8.53,7-7.78,20.36-13.74,28.19l-.29,0c-4.72.14-9.41,1.36-14.09,2.47-6.08-.21-12.35.75-18.28,1.34a3.51,3.51,0,0,0-1.69.64,19.61,19.61,0,0,1-10.45-4.43,24.93,24.93,0,0,1-2.83-2.89c-.51-1-1-2-1.62-3a57.33,57.33,0,0,0-7.68-14,3.75,3.75,0,0,0-1.74-1.32c-.27-.47-.55-.92-.85-1.36a3,3,0,0,0-1.13-2.47c-2.69-2.36-3.8-3.09-7.41-1.19-3,1.61-1.71,6.2,1.45,6.5.16.38.31.76.47,1.13a28.69,28.69,0,0,0,4.11,8.79c2.26,8.44,8.13,16.6,16.17,19.92,9.71,4,22.07,3.89,32.34,3.08A35.89,35.89,0,0,0,164,223.33c3.87.59,7.22.48,10.34-3,7.86-8.69,8.43-22.41,12.61-32.9C188.34,183.86,183.44,182.1,181.06,184.06Z"/><path class="cls-3" d="M226.47,343.8c-2.31-4.1-5.61-10-10.35-11.43-5.71-1.73-9.49,2.5-12.86,6.33-4.45,5-4.73-6.6-7.64-7.85s-6.22-.38-9.16.39c-3.38.88-8,7.23-11.51,5.68-1.09-.49-3.69-.11-4,1.32l-.36,1.59a4.81,4.81,0,0,0-.27.44c-.4-.33-.8-.67-1.21-1a5,5,0,0,0-3.75-.81,7.29,7.29,0,0,0-4.1,2.6c-.81,1-1.7,3.32-2.86,4.88a31.62,31.62,0,0,0-.32-7.51c-.1-.63-.86-1-1.42-1-7.59-.78-14.14,1.38-18.06,8.21-3.28,5.72-3.89,14-8.84,18.62a22.33,22.33,0,0,0-10,2.12,11.44,11.44,0,0,0-3.93,2.9c-.1.1-4.07-3.4-4.35-3.7a11.12,11.12,0,0,1-2.1-4.26c-1.49-4.78-4.35-6.63-8.77-7.66,2.74-10-12.39-5.22-17.78-4.52-3.06.4-4.47-1-3-4,1.11-2.12,1.53-3.78.47-6-2.27-4.67-9.78-2.87-14.66-2.1,1-3.42,3.75-5.59,6.75-7.66a1.13,1.13,0,0,0,.4-1.5c-.66-1.47-1.23-3-1.9-4.44-.76-1.68-5.56-.51-4.63,1.55.53,1.16,1,2.33,1.5,3.5-3.64,2.6-6.89,5.61-7.34,10.33-.1,1.11,1.06,1.52,2,1.48,4.39-.18,16.79-3.4,12.51,4.82-1.58,3-.65,5.88,2.85,6.7s7.19-.09,10.61-.77c4.16-.82,9.12-2.4,6.92,3.64-.31.85.78,1.32,1.4,1.43,4.21.75,6.44,1.9,7.67,5.95a14.36,14.36,0,0,0,4.29,6.87c1.89,1.71,4.76,3.68,7.49,3.22s3.63-2.85,6-3.51a3,3,0,0,0,.68-.31l2.94-.57c.8-.15,1.6-.28,2.4-.4.35-.06.58-.09.74-.13a5,5,0,0,0,3.15-.41c9.71-6.62,7-27,21.13-26.65a29.52,29.52,0,0,1-.1,8.8c-.18,1.15,1.13,1.46,2,1.48a8.43,8.43,0,0,0,6.89-2.81,21.4,21.4,0,0,0,2.47-4.22,8.8,8.8,0,0,1,1.17-1.54l.43.33c4,3.29,7.34,2,9-1.9,5.73.28,9.31-5.87,15.15-7.05,3.27-.66,2.86,2.68,3.39,4.89a6.22,6.22,0,0,0,3.91,4.24c5,2.2,8.76-1.33,11.74-4.82,2.66-3.12,4.82-2.9,7.21.16a63,63,0,0,1,5.31,7.56C222.76,347,227.56,345.73,226.47,343.8Z"/><path class="cls-4" d="M163.92,125.35a29.85,29.85,0,0,0-3-.52l-.13-.31a1.35,1.35,0,0,0,.75-2.33,99.19,99.19,0,0,0-7-8.35l-.14-.16h0c-.13-.14-.25-.29-.39-.42a3.14,3.14,0,0,0-3.75-.07,18.57,18.57,0,0,0-2.64-.88,8.67,8.67,0,0,0-1.79-.8c-1-.68-2.54-.82-3.27-.07a2.34,2.34,0,0,0-1.64,2.11h0a8.83,8.83,0,0,0-3-.26,2.67,2.67,0,0,0-1.94.08l-.1,0c-1.17-.34-3-.07-3,1.48a1.46,1.46,0,0,0,0,.37h0a11.92,11.92,0,0,0-2.58,2.25c-1.73,1.87,2.45,3.67,3.95,2.67.24-.16.86-.71,1.33-1a2,2,0,0,0,.7-.27l.15-.1a3,3,0,0,0,3.05-.25l.11.12c.61.72,2.61,1.54,3.72,1a13.27,13.27,0,0,0,1.19,1.29c-2.09-.61-3.13,2-.85,3.47,4.14,2.68,8.87,3.09,13.6,3.6a5.64,5.64,0,0,0,1.58,1.93c.87.62,3.27,1.07,3.65-.45a3.23,3.23,0,0,0,.09-.73l.83.17C166.62,129.68,166.65,126,163.92,125.35Z"/><path class="cls-4" d="M211.07,202.42c-2.76-3.47-5.39-6.88-7-11.07-.44-1.16-2.84-2.77-4.11-2.52s-1.3,1.28-1.71-.09a4.36,4.36,0,0,1,0-2.24c2.25,0,4.29-1.42,5.06-4.87.27-1.23-3.09-2.91-4.09-2.73a7.09,7.09,0,0,0-4.58,3.25,12.39,12.39,0,0,1,.16-1.94c.06-.38-.23-.78-.68-1.16.7-.24,1.4-.5,2.12-.77,3.28-1.22.07-.74-1.46-.17-1.74.64-1.39-1.57-.77-3.57.65,1.32,2.12,2.68,3,2.11,2.39-1.55,2.75-4,.93-6.32a10.32,10.32,0,0,0-4.74-3.43,8.9,8.9,0,0,0-2.38-2.64c1.43-.25,2.73-.95,2.08-1.57-.95-.91-2-1.7-2.92-2.64l-.1-.12a1.34,1.34,0,0,0,1-1.19V156.3a5.06,5.06,0,0,0,3.12-2.56,6.6,6.6,0,0,0,3.29,1,6.09,6.09,0,0,0,1.74,2.37c1.41,1.15,1.68.35,1.42-.77l.67.16a20.83,20.83,0,0,0,2.5.39c-.82-2.19-2-4.2-2.84-6.38-.27-.74-4.16-1.78-4.81-1.36l-.81.5c-.2-1.4-3.27-4.82-3.52-2.61,0,.39-.1.8-.17,1.22a2.76,2.76,0,0,0-1.25-.61c.12-.92-2.29-4.58-3.27-3.36-.14.17-.27.34-.4.52a16.24,16.24,0,0,0,.12-3.54,4.67,4.67,0,0,0-.85-2.16,6,6,0,0,0,3.62.59,3.37,3.37,0,0,0,1.22-.46l.49,1.09c.55,1.26,2.94,2.81,4.26,1.69.3-.26.73-.69,1.21-1.14,1.27,2.12,3.4,3.24,6.43,2.86,2.71-.34.09-3.14-1.79-3.41a14.29,14.29,0,0,0-1.31-2.13c0-.05,0-.1,0-.14a2.37,2.37,0,0,0-1.57-1.59,14.18,14.18,0,0,0-2.31-1.69c-1-.6-2.06-1.1-3.1-1.6,0-.12,0-.24,0-.37-.08-1.58-3.44-3.15-4.41-2.11a14,14,0,0,1-1.43-1.16,6,6,0,0,0-3.22-1.16c-.4,0-1.88-.11-1.11.62.3.28.6.55.91.81a2.85,2.85,0,0,0-2.64,3.11,4.59,4.59,0,0,0-.93-1,7.79,7.79,0,0,1,.07-3.33c.22-1-1-1.95-2.27-2.3v-.06a3.35,3.35,0,0,0-.86-2.06A6.86,6.86,0,0,0,182.7,123a4,4,0,0,0,1.33-1.66c2.29-.73,3.69-3.12,4.38-5.51,1.11-.21,2.17-.72,3.69-1,3.23-.6,1.27-4.28-1.55-3.76-.67.13-2.48,1-3,.8-1.12-.47-3.37-.08-3.6,1.41l-.09.64-.06-.22c-.53-2.18-4.22-1.45-4.81.29l0,.1c0-.13-.07-.26-.12-.39-.47-1.41-2.37-1.51-3.54-1-.56-4.07-2.67-7.89-7-7.55a8.38,8.38,0,0,0-1.78.34c-.15-.21-.3-.41-.46-.61.46-.19.77-.47.76-.84a15.56,15.56,0,0,0-.18-2.33c1.92-.85,2.38-2.34,2.72-4.31,1.72-.79,3.41-2.33,5.34-3.36,2.09-1.11-2.79-.82-3.66-.36a7.88,7.88,0,0,0-1.55,1.21.39.39,0,0,0-.15-.06,6.92,6.92,0,0,0-2.43-.39c-.41,0-4.26.62-3.46,1.47a8,8,0,0,0,1.44,1.22c0,.41-.11.88-.19,1.32a9.47,9.47,0,0,0-3.24-1.09c-.8-.14-4.51-.09-4.51,1.21,0,1.62,1.2,2.62,2.74,3.19a7.49,7.49,0,0,0-2.63,1.14c-.15.06-.27.13-.39.19l-1-.37-.19-.07a.29.29,0,0,0-.1-.2l-.23-.19c1.31-.39,3.14-1.12,2.08-1.35-.77-.17-1.32-.3-2.08-.4.34-.18.77-.42.77-.72v0s-.16,0-.13,0a.76.76,0,0,0,.52-.63c0-.27,0-.54,0-.81.78-1.47.49-3.48-.08-5.57-.31-1.11-5.18,0-4.93.91a9.49,9.49,0,0,1,.33,3.16l-1.22-.7c-.65-.35-3.62.06-4.5.7-.71-.29-1.43-.56-2.16-.82a4,4,0,0,0-1.72.14,22.76,22.76,0,0,0,1.21-6.69c0-1.35-1-3.19-2.33-3.51-1.62-.38-2.76.06-2.9,1.81a4.67,4.67,0,0,0,1.63,3,21.35,21.35,0,0,1-1.21,3.59,6.88,6.88,0,0,0-5.32-2c-.51,0-.7.4-.75.83a4.23,4.23,0,0,0-4.25,3c-1.39-1-1.4.72-.9,2.23a6.9,6.9,0,0,0-1.81-.12,3.67,3.67,0,0,0-1.71-2.74,10.33,10.33,0,0,1,1.09-1.29c.76-.83-.53-1.09-1.19-1.09h-3.83a6.11,6.11,0,0,0-1.85-3.44c-.9-1-3.29-.36-4.19.27,0,0-.1,0-.15.06-.73.51-.67.83-.23,1h0a9.76,9.76,0,0,1,1.66,3c-.63.56-.68,1.11.87,1.11h2.37a6.6,6.6,0,0,0-2.76,1c-1.34.66-1.21,1.86.39,1.85a29.15,29.15,0,0,0,4.06-.11,4.91,4.91,0,0,1,.61,2.48,11.23,11.23,0,0,0-2.54,2.92,11.4,11.4,0,0,0-3.51,5.07c-.33,1,1.46,1,2,1l.35,0a6.29,6.29,0,0,0,1.18,2.48c.13.17.27.33.41.48a2.25,2.25,0,0,0-.46.15c-1,.48-2.06.93-3.07,1.41A14,14,0,0,1,115,111c.3-1.73-2.31-2.76-3.69-2.4-2.38.62-4.09.76-5.24,1.79a14.41,14.41,0,0,0-1.75-.19c-2.72-.15-4.73.59-5.39,2.11-.1,0-.2,0-.3.06-1,.28-1.47,1.67-2.21,1.9-2.86.9.8,3.75,2.65,3.17a4.43,4.43,0,0,0,1-.41c1,1,3.26,2,4.08.7a4.11,4.11,0,0,0,.9-2.74,3.64,3.64,0,0,0,1.42.88l.15.05c.64.23,2.17.48,2.64-.27a4.14,4.14,0,0,0,.79-2.45l.09-.1a9.78,9.78,0,0,1-.58,4.08c-.69,1.63,2,2.59,3.68,2.31-.28,1.58-.06,3.13,1.46,4a6.62,6.62,0,0,0,1.88.68,11.4,11.4,0,0,0-2.23.92l-.21,0a2.73,2.73,0,0,0-2.17-2c-3.61-.72-7-.78-9.5.68a6.34,6.34,0,0,0-4.17-.07,4.54,4.54,0,0,0-.93.41c-2-1.48-4.61-1.62-7.53.18a50.1,50.1,0,0,0-5.44.2c-3.26.22-1.55,4.31,1.17,4.13,1.4-.1,2.69-.21,4-.2a4.27,4.27,0,0,0,2.45.89c1.07.08,2.43-.37,2.48-1.64a1.51,1.51,0,0,1,.28.15c-.46,2.35.59,4.82,3.62,5a2.3,2.3,0,0,0,2.21-.92,4.76,4.76,0,0,0,.63.22l1,.24A1.85,1.85,0,0,0,101,134a6.29,6.29,0,0,1-.11.74,8.53,8.53,0,0,0-8.6,2.44,13.82,13.82,0,0,0-2.72,5.06c-.7,2,1.46,2.77,2.65,3.66a2.15,2.15,0,1,0,2.66-3.37A7.92,7.92,0,0,1,96,140.28a3.85,3.85,0,0,1,5.41-.8,2.76,2.76,0,0,0,1.56.43c0,.24,0,.48.08.73a7,7,0,0,0-2.39,1.33,4.88,4.88,0,0,0-1.57,5.21l-.22.1a11.87,11.87,0,0,0-4.76,3.57,9.42,9.42,0,0,0-3,2.25l-.27.07a7.14,7.14,0,0,0-5.74-1.94,6.08,6.08,0,0,0,.36-1.39c0-.22-3,.51-3.13.56,2.9-.9-1.67-.31-2.4-.13a44.91,44.91,0,0,0-5.87,2c.07,0-.75.33-.65.4a19.87,19.87,0,0,0,5.07,2.18c.76.28,2.16-.38,3.23-.9a16.27,16.27,0,0,0,2.2-.84.46.46,0,0,0,.07-.07,5.29,5.29,0,0,1,2.28,1.58,2.82,2.82,0,0,1,.42.52c-.88,1-1.14,2.4-.53,4.52a8.07,8.07,0,0,0-2,4.72,7.93,7.93,0,0,0-2.23.94c-3.46,2.16-3.72,5-2.35,7.56a11.23,11.23,0,0,0-5.4,6A2.07,2.07,0,0,0,74,180c-.29.37-.6.77-1,1.2a2.1,2.1,0,0,0,.54,3.1c2.18,1.5,4.22,1.75,6.85,1.79,3,0,3.84-4.41.59-4.45a7.33,7.33,0,0,1-2.39-.18,1.83,1.83,0,0,1,.13-.16,11.35,11.35,0,0,0,2.82-1.43,2,2,0,0,0,.23-3.21,3,3,0,0,1,2.4.55,2.83,2.83,0,0,0,3-.33c0,1.5,1.49,3.54,3.08,5.23a18.19,18.19,0,0,1-1.53,4.25,15.54,15.54,0,0,0-.63-3.28c-.19-.63-3.34-4.36-3.5-3a10.71,10.71,0,0,0,.61,5.74,19.08,19.08,0,0,1-.82,4.07c-.7-1.45-3.33-3.41-3.34-2.72,0,2.8.26,6-2.43,7.59l-.62.38c-.14-.08-.26-.17-.41-.25-1-.49-2.71-.06-4.18.74-.81-.65-1.57-1-1.57-.66a14.11,14.11,0,0,0,0,1.74,3.08,3.08,0,0,0-1,1.57c-.22,1.27,1.77,3.24,2.86,3.57l.11,0a13.28,13.28,0,0,0,2.9,2.57c.4.27,1.17.89,1.48.24a18.47,18.47,0,0,0,1.86-5.1c.47-.28.89-.53,1.24-.72,2.42-1.27,3-3.21,3.21-5.53a2,2,0,0,1,.51.32c.28.31,2,2.13,2.4,1.1a25.65,25.65,0,0,0,1.09-4l.06.06c.19.25,1.84,1.95,2.28,1.32a18.75,18.75,0,0,0,3-7.05c.22.09.43.11.56,0a16.29,16.29,0,0,0,2.65-4.42c.28.28.56.55.84.8,3.67,3.29,5.88,1.58,7.09-1.84l.53.35c.14.08.77.42.94.15s.4-.71.59-1.07a21.1,21.1,0,0,0,3.39,2c.78.37,2.45.85,3-.25a16.82,16.82,0,0,0,.66-1.66,5,5,0,0,0,2.71.31,6.13,6.13,0,0,0,4-2.86,6.37,6.37,0,0,0,1.61.13,4.14,4.14,0,0,0,2.35-.81,7.75,7.75,0,0,0,2.09-.37c3.11-1,4.63-3,5-5.41.82.12,1.51-.12,1.59-1.09a18.17,18.17,0,0,0-4.28-13.7,32,32,0,0,1-2.81-11.11c0-1-1.25-2-2.44-2.43-.09-.41-.17-.82-.27-1.24a8.76,8.76,0,0,0-1.4-2,32.34,32.34,0,0,0-2.45-5.86c1.33-.29,3-.88,3.09-1.26,1.4-3.75.75-6.61-1.64-7.53,2.29-1.57,2.88-5.69,3-8.44,2.82-2.25,5.68-4.43,8.68-6.46,0,0,0,0,0,0a19.69,19.69,0,0,1,10.46-2.76,2.55,2.55,0,0,0-.36-.62c3-.17,6-.09,8.87-.09a6.49,6.49,0,0,0-1-1.49l.42.14a.19.19,0,0,0,.07.25,65.71,65.71,0,0,1,9.21,9.21,1.11,1.11,0,0,0,.68.25,8.07,8.07,0,0,0,.69,2.21,14.41,14.41,0,0,0,6.66,6.32s0,0,0,.06,0,.16,0,.21a7,7,0,0,0-.49.83,2.63,2.63,0,0,0,.84,3,3.42,3.42,0,0,0,.42.52c-.06,1.06-.06,2.13-.06,3.18a2.3,2.3,0,0,0,.16.82c-.53-.1-.95,0-1.11.52-1.06,0-2.06.09-2.22.44-2.88,6.26-3.55,13.16-5,19.85,0,0,0,.08.08.12a5.09,5.09,0,0,1-1.26,2.35,17.69,17.69,0,0,0-2.86,3.19c-2.27,3.1-5.19,7.35-3.76,11.35.17.46,1.14.59,2,.63,0,.48.07,1,.14,1.5,0,.28.56.43,1.11.51.24.32.48.62.74.91,1.4,4.93,6,7.12,10.64,6.7h0a4.44,4.44,0,0,0,3.25,1.37,8.81,8.81,0,0,0,1.23-.15c1.52.34,3,.64,4.42.92.73.15,5.49-.63,3.71-1.73a8.92,8.92,0,0,0-2.42-1,20.79,20.79,0,0,1,6.8,1.9c.73.4,2.88,0,3.9-.6a7.92,7.92,0,0,0,1.75.05,8.26,8.26,0,0,0,3.15,5,5,5,0,0,0,.48,2.55,8.29,8.29,0,0,0,6.68,4.37,50.81,50.81,0,0,0,6.06,9C207.72,201.63,211.79,203.32,211.07,202.42Z"/><path class="cls-5" d="M104.55,370.15c-.16-.58-.34-1.15-.54-1.7a4.17,4.17,0,0,0-.68-1.76c-.4-1-.84-1.92-1.32-2.89a1.88,1.88,0,0,0-2.17-.89l-1.47-1.25a13.21,13.21,0,0,0-1.44-2.3,2.54,2.54,0,0,0-3.64-.24,3.15,3.15,0,0,0-.71,0,21.62,21.62,0,0,0-6.78,1.73c-1.51-1.37-4.3.25-4.3,2.12a2.72,2.72,0,0,0,.09.69,1.4,1.4,0,0,0,.75,1.76,2.8,2.8,0,0,1,.46.3,8.17,8.17,0,0,0,2.08,1.6,2.39,2.39,0,0,0,2,0c-.82.67-1.63,1.36-2.5,2a2.29,2.29,0,0,0-.93,1.52,3.12,3.12,0,0,0-1.91,1.68,3.5,3.5,0,0,0-1.71.34c-.48-1.76-3.81-.89-4.58.83-.64-.95-2.62-.63-3.75.28a3.71,3.71,0,0,0-2.94.42,3.42,3.42,0,0,0-.84.08c.41-1.78-1.52-2.32-3.08-1.69-6.78,2.75-10.05,9.15-12.34,15.72-.37,1.06.08,1.55.81,1.69-.07.29-.13.58-.17.85-.24,1.56,1,2,2.31,1.8,1,1.35,2.36,2.18,4.06,1.51.76,1.17,2.27,2.19,3.41,1.51a22.6,22.6,0,0,0,3-2.24l.91-.25a3.53,3.53,0,0,0,2.4.58,29.55,29.55,0,0,1,5.61-1.27,31.26,31.26,0,0,0,3.51-.51c.69-.14.92-.51.86-1,2.44-.2,4.91-.29,7.52-.3.45,0,1.32,0,1.32-.73V388a1.73,1.73,0,0,0-.27-.89,3.1,3.1,0,0,0,1.12-1.39c1.1-3.09,2-6.25,2.85-9.42h0A21.66,21.66,0,0,0,98,372.87a2.46,2.46,0,0,0,2.62,0C102.25,374.14,105.1,372.13,104.55,370.15Z"/><path class="cls-5" d="M151.27,546c.24-2.32.35-4.64.39-7a.47.47,0,0,0,0-.17v-3.18s0-.06,0-.09a81,81,0,0,0-1.26-15.14c-.1-.52-.67-.74-1.38-.77a13.67,13.67,0,0,0-1.91-4.24c0-.33.07-.68.11-1,.07-.81-.73-.81-1.38-.86-.05-.37-.42-.5-1.31-.5h-3.81c-1.49,0-4.75,1.76-2.65,2.29-.06.11-.12.15-.13.28s0,.11,0,.19c-3.39,1.36-5.43,5.65-5.69,9.24a49.6,49.6,0,0,0,2.09,17.38.91.91,0,0,0-.17.42c-.54,4.48.14,12.09,5.15,14,3.5,1.32,6.45-1,8.4-3.81a14,14,0,0,0,4-6.23A.67.67,0,0,0,151.27,546Z"/><path class="cls-6" d="M124.3,125.75c-4.36-1.75,6.34-15.08,8.62-16.67,7.25-5,16.69-5.48,23.67.3,4.95,4.1,6.76,11,7.36,17.08l1.87-.63c-5.4-8.8-11.36-17.1-22.85-15.82-11.07,1.25-16,7.95-20.4,17.47-.25.53,1.65.33,1.92-.26,4.67-10,10.49-17.59,23-16.09,8.14,1,12.72,9.16,16.57,15.43.3.5,1.92,0,1.86-.62-.78-8-3.8-15.88-11.21-19.82-5.89-3.13-13.35-2.43-19.25.16-4.65,2-7.73,6.09-10.45,10.2-1.24,1.86-6,8.67-2.21,10.16.54.22,2.31-.58,1.54-.89Z"/><path class="cls-6" d="M129.51,104.84c-.9,1.52-2.84,4.85-4.67,2.61a5.87,5.87,0,0,1-.84-4.79,2.41,2.41,0,0,1,1.35-1.78c.71-.25,1.31-.19,1.21.85a4.86,4.86,0,0,1-3.27,3.67c-4.63,1.64-5.13-8.08-.75-9.05l-1.13-.53c-.26,2.35-3,2.81-4.46,1.23-1.78-1.94-1.28-6,2.56-4.73-.11-.23-.23-.46-.35-.7-.14.43-.42.73-.57,1.15-.36,1,1.57.92,1.83.17.15-.42.43-.72.58-1.15a.49.49,0,0,0-.35-.7c-4-1.36-8.42,2-6,6.22,2,3.41,8.23,2.31,8.66-1.66.06-.61-.75-.62-1.14-.53-4.42,1-6.16,7-3.41,10.44,3.44,4.32,10-1.33,9.71-5.49,0-.17-.25-.32-.4-.35-4.61-1.06-7.21,2.73-5.86,7a3.81,3.81,0,0,0,3.46,2.93c2.66,0,4.42-2.6,5.62-4.62.54-.9-1.43-.85-1.83-.18Z"/><path class="cls-6" d="M132.5,101.22,130.78,103l1.68-.16c-1.1-1.75-2.36-5.2.75-5.67,2.43-.37,3.65,1.62,2.62,3.69l1.49-.53C135,99.65,134.13,98,135,95.74c.72-1.93,2.65-3.41,3.7-.9.33.8,2.19.33,1.93-.52a6.79,6.79,0,0,1-.33-2.79c.23-2.39,3-1.81,4.23-.56.58.6,2.41-.17,1.77-.83-4-4.15-9.28-.76-7.6,4.7l1.93-.52c-2.93-7-13.27,4.74-4.4,7.21a1.33,1.33,0,0,0,1.48-.53c1.65-3.33-1-5.5-4.27-5.22-4.61.39-4.72,4.65-2.71,7.84.35.55,1.35.19,1.69-.16l1.72-1.72c.85-.85-1-1.09-1.6-.52Z"/><path class="cls-6" d="M134.1,103.41c-3.68-.71-6.11-5.27-3.37-8.33.4-.45-.81-.26-1-.21a24.93,24.93,0,0,0-7,3.14l1.71-.24c-1-1.8,0-3.19,1.49-4.31.79-.58-1.14-.29-1.47,0-1.68,1.22-3,2.78-2,4.88.23.43,1.44-.06,1.71-.23a20.08,20.08,0,0,1,5.66-2.61l-1-.22c-3,3.32-.55,8.13,3.53,8.92.45.09,2.12-.64,1.59-.74Z"/><path class="cls-6" d="M127.15,111.86c-2.63-1.8-4.23-3.86-7.61-3.42a4.79,4.79,0,0,0-3.88,3.8c-.32,3.74,3.62,8.91,6.85,4.63,3-4-1.56-7.44-5.24-7.28-3.46.15-10.06,3.11-6.7,7.25a1.19,1.19,0,0,0,1.52,0c5.09-4.34-1.33-9-6.23-7.77-6.26,1.54-7.22,13.06.27,9.61.24-.1.7-.46.55-.79-1.24-2.65-3.39-3.18-4.76-.41-.48,1,1.48.91,1.84.19s.47-.55.7.18c-1.85-.31-2.45-1.38-1.8-3.23a4.5,4.5,0,0,1,4-4.34c3.18-.4,7.69,2.74,4.18,5.74h1.52c-2.91-3.57,7.09-8.13,8.87-2.28q.77,3.52-3.54.58-1.12-4.95,4.48-4c1.29.64,2.31,1.87,3.5,2.68.66.46,2.38-.47,1.49-1.08Z"/><path class="cls-6" d="M125,110.89c-2.54-3.32-7.56-7.83-11.61-3.79-1,1-2.21,3.13-1.27,4.51s3.2.83,4.5.21c3.05-1.46-1.32-3.57-2.71-3.87a4.27,4.27,0,0,0-3.29.59c-1.29.88-.07,2.75.5,3.65.3.47,2.18-.13,1.81-.72a4.28,4.28,0,0,1-.92-2.33c0-.55.24-.37,1-.15s2.77.94,2.67,2-1.76.1-1.92-.64a4,4,0,0,1,1.08-3c2.48-3,7,2.49,8.31,4.26.35.46,2.22-.18,1.81-.72Z"/><path class="cls-6" d="M122.59,122.92c-4.09-.94-15-1.53-9.74,5.35.3.38,1.38-.09,1.66-.28,3.52-2.31,2.75-6.24-1.63-6.55-4.22-.3-7.61,4.66-7.68,8.44-.15,8.2,13.08,2.91,8.89-2.3-2.3-2.86-7.07-1.24-9.66.38a11.82,11.82,0,0,0-4.51,4.61c-.56,1.11-.58,4.33,1.27,4.39,4.37.13,4.6-3.79,0-4.73-4.37-.89-8.46,4.11-10.25,7.34a.15.15,0,0,0,.05.19,7.27,7.27,0,0,0,5.46,2.39c.47,0,2.24-.8,1.23-.87-4.56-.31-5.1-2.32-2.33-5.5a5.59,5.59,0,0,1,6.18-2.06c1.78.92.31,1.82,0,.6-1.29-4.74,9.32-10.62,11.25-4.78,1.28,3.85-5.12,4.84-5.66.59-.3-2.28,1.35-5.07,2.68-6.7,2.42-3,8,1.31,3.21,4.42l1.65-.27c-3.89-5.11,2.86-4.65,6.36-3.85.49.11,2.2-.67,1.57-.81Z"/><path class="cls-6" d="M115.72,129.42c-3.64,1.19-4.57,6.17-.46,7.5.4.13,1.57-.1,1.75-.54,6-15.25-20.17,1.28-9.75,7.24,3.75,2.14,8.23-4.36,2-4.72-6.64-.38-11.91,9.39-5,12.92a2,2,0,0,0,1.78-.4c2.46-2.49,2.17-4.58-1.52-4.77-2.84-.14-5.43,1.45-7.5,3.19-2.33,2-4.41,6.08-2.83,9,1.22,2.24,5,.94,6.71.34,1.31-.45.07-.7-.67-.44-5.61,1.94-5-3.14-3.65-6.13a9.84,9.84,0,0,1,3.58-4c5.56-3.77,6.81.2,4.13,2.91l1.79-.4c-4.17-2.13-3.68-7-.93-10.18q4-2.88,5.44,0c.62,1.3-.84,2.3-2.21,1.52s-1.62-2.61-1.36-4c.53-2.8,3.14-5.18,5.35-6.74,4.89-3.44,3.84,2.22,2.76,4.93l1.75-.54c-2.64-.86-3.62-5.28-.46-6.3,1.32-.43.07-.69-.67-.45Z"/><path class="cls-6" d="M140.83,101.33l-1.07.18.87.42c-.12-1.36-.09-4.93,2.06-4.84s2.6,3.41,2.73,4.9l1.85-.67a11,11,0,0,1-2.16-3.43c-.57.27-1.14.37-1.71.64,4.54,2.7,6.06-1.48,8.72-4.48h-1.77a13.46,13.46,0,0,0,1.42,4.35c.39.72,2.24.11,1.77-.75a16.7,16.7,0,0,1-1.26-3.83c-.21-.73-1.41-.36-1.77,0-1.58,1.72-2.74,5.47-5.61,3.76-.45-.26-2,0-1.72.81a11.91,11.91,0,0,0,2.32,3.74c.52.57,1.93.17,1.85-.67-.25-2.8-1.58-6-4.9-5.71s-4,4-3.75,6.67c0,.38.61.42.87.42a4.13,4.13,0,0,0,2.52-.72c1.09-.73-.52-1.32-1.26-.81Z"/><path class="cls-6" d="M148.77,100.92c2,1.72,8.69,4.34,10.36.67,1.53-3.33-3.63-4.08-5.74-3.6-.32.08-.77.33-.81.7-.6,5.5,7.43,8,9.5,2.68a.44.44,0,0,0-.16-.61l-.9-.45c-.47-.24-1.69-.11-1.72.62-.18,4.19,5,2.92,6.7.6.71-1-1.12-1.14-1.6-.49-1,1.35-3.25,2-3.15-.29l-1.73.62c1.88.94-1.83,1.8-3,1.24a3.85,3.85,0,0,1-2-4.1l-.81.7c1.43-.33,3.15,0,3.7,1.52.69,2-4.1.92-4.4.83a7.47,7.47,0,0,1-2.75-1.7c-.59-.51-2.31.36-1.5,1.06Z"/><path class="cls-6" d="M160.19,104.07c.07,2.45,1.51,3.88,4,3.28,1.12-.27,3.93-2.15,2.14-3.4-1.5-1-6.17-.56-4,1.84,2.74,3,6.31,1,8.26-1.74.57-.81-1.4-.76-1.83-.15a6.23,6.23,0,0,1-2.21,2.06c-.83.43-1.89-.48-2.44-1-.7-.66-.26-.37.36-.18.28.08.53.3.41.6a1.63,1.63,0,0,1-1.35.82c-1.13.11-1.37-1.58-1.39-2.34,0-.94-2-.58-1.95.19Z"/><path class="cls-6" d="M162.89,111.4c.52,3.33,4.27,2.2,5.51,0,.16-.28-.45-.32-.57-.32-7.44-.11.79,10.84,3.7,4.36.07-.15-.08-.23-.18-.28l-.89-.45c-.36-.18-1.68.06-1.74.57-.27,2.19,1.2,5.69,3.85,5.83,1.89.11,3-.8,3-2.77,0-.21-.46-.33-.57-.33h-.9c-.3,0-1.31.3-1.35.73a13.23,13.23,0,0,0,2.74,10.12c.29.34,1.19.06,1.48-.11l.37-.17c.6-.05,2.08-1.05.79-.94a4.6,4.6,0,0,0-2.32.71l1.49-.14a12.62,12.62,0,0,1-2.63-9.64l-1.36.62c.25,0,.62,1.53-1.16,0a4.7,4.7,0,0,1-1.51-4.17l-1.74.57c.12.06,1.35,1.22.24.9a3.88,3.88,0,0,1-1.61-1.37,5.31,5.31,0,0,1-.83-1.58c-.45-1.22-1.67-1.34-1.88-2.67-.08-.53-2-.09-1.93.52Z"/><path class="cls-6" d="M165.58,121.15a5.47,5.47,0,0,0,3.31,6.52,1.75,1.75,0,0,0,1.74-.56c2.32-4.09-1.13-7.57-3.92-3.38-2.17,3.24-1.27,13.62,3.69,13.82,3.52.15,4.32-4.63.45-3.66-6.67,1.67.36,11.14,4.48,11.72.37.06,1.46-.12,1.57-.59.51-2.07-.33-2.71-2.34-2.52-.35,0-1.24.16-1.36.59-.68,2.45-1.15,7.18,1.89,8.38,1.63.65,3.73.51,4.72-1.12a.14.14,0,0,0-.05-.19c-3.71-4.68-8.27,4-1.29,4.86.47.06,2.24-.74,1.23-.87-3.31-.42-2.32-3-3.69-4-2-1.52-1.44-5.39-.9-7.34l-1.36.59,1.24,2,1.57-.59c-3.3-.46-5.5-4-6.31-6.9,0-.57,0-1.13,0-1.7,1.86-.09,1.86-.06,0,.07-1-.68-1.45-2.22-1.8-3.33a17.12,17.12,0,0,1-.45-7.4c0-.06.91-3.37,1.49-2.08s-.13,2.93-.75,4l1.74-.56a5.06,5.06,0,0,1-3-6c.12-.54-1.8-.22-1.92.31Z"/><path class="cls-6" d="M167.51,139.24a7.11,7.11,0,0,1,.6-3.59c.63-1.17,2.65,1,3,1.4,1.85,2.06,2.3,5.28-.28,6.93l1.57,0c-.77-2.29,1.16-3.85,3.28-4.14,3.91-.54,2.95,4.07,2,6.16l1.87-.22,2.62-.7A4.48,4.48,0,0,1,183,147a20.34,20.34,0,0,0,.5,2c.25.71,2.17.15,1.93-.52-.94-2.67-.89-5.06-4.22-5.41a3.1,3.1,0,0,0-3.53,3.24c0,.68,1.69.18,1.87-.22,5-11.25-11-7.45-9-1.57.19.57,1.23.27,1.57.05,3.65-2.33,3-7-.33-9.44-3.75-2.7-6.2.56-6.17,4.32,0,.84,2,.43,1.94-.23Z"/><path class="cls-6" d="M165.73,142.66c-1.56,2.33-.09,6.92,2.67,7.91,1.95.7,5.57-1.72,3.25-3.69-2.9-2.46-6.08.23-6.27,3.44-.21,3.54,3.21,8.16,7.13,7.31,2.2-.49,3.14-2.57,1.56-4.37-2.16-2.45-5.31.92-6.37,2.65-2.25,3.66.3,7.5,3.91,8.7,3.8,1.25,7.23-1.31,8.84-4.55a.5.5,0,0,0-.18-.66c-4-2.56-6.6,3-6.25,6.44s7.8,6.83,9.28,2.61c.61-1.72.34-4.2-1.86-4.46s-3.53,2.58-4.05,4.2a5.9,5.9,0,0,0,8.6,7c1.12-.67-.49-1.34-1.28-.86-3.45,2.09-5-2.31-5.48-4.3.85-3,.65-3.46-.59-1.49a3.65,3.65,0,0,1-2.65-3.79,10.91,10.91,0,0,1,.3-1.8q-.09-2.19,1.32-1.35c-2,2.93-5.89,2.06-7.86-.2-1.32-1.52-.93-3.6-.2-5.26q2.74-3.45,3.36-.93c.7,2.26-3.66-.29-4.35-1.25a8.65,8.65,0,0,1-1.12-2.89c-.6-1.45-.19-2.29,1.24-2.52-1.15-1.15-2.37-3.77-1.33-5.31.68-1-1.13-1.29-1.62-.56Z"/><path class="cls-6" d="M168.85,134.62a7.85,7.85,0,0,1,3.63-6.74L171,128c1.74,2.67,1,6,.89,9,0,.42,1.8,0,1.93-.42a10.81,10.81,0,0,1,2-4.48c.5-.55,1.74,1.38,1.88,1.61.52.89,1.68,3.92.39,4.66h1.52c.95-1.8,2.23-2.7,3.2-.64a3.67,3.67,0,0,1-1.32,4.32c-.83.68,1.16.33,1.49.12a2.36,2.36,0,0,0,1-1c.41-.57-1.47-.3-1.76.1l-.76.78,1.49.12c2-1.64,3.15-5.27.17-6.66-2.35-1.11-4.52,1.41-5.45,3.18-.25.47,1.38.08,1.52,0,2.59-1.49.91-5.59-.89-7.1-3.32-2.77-5.87,3.24-6.46,5.3l1.93-.42c.07-3,.84-6.28-.9-9-.26-.4-1.22-.09-1.53.1a8.75,8.75,0,0,0-4.43,7.59c0,.36,1.9.09,1.93-.52Z"/><path class="cls-6" d="M117,140.63c-2.66-.48-1.72,2-.86,3.33,1.41,2.2,3.48,5.32,6.45,4.31s1.34-6.07-.84-7.08c-2.55-1.18-6.16.13-7.72,2.29-2,2.79,1.93,7.48,5,7.16,3.37-.36,4.21-4.48.42-5.26-4.15-.85-8,.16-8.53,4.81-.42,3.65,3.3,8.35,7,5.73a.43.43,0,0,0,.2-.41c-1.51-5.7-9.71-2.88-12.46-.22-3.35,3.22-1.38,9.65,3.59,7.74.43-.16.93-.74.22-.9-3.53-.79-10-.59-10.27,4.31-.16,3.53,2.58,7.63,6.24,5.44,3.21-1.92-3.79-4.83-5.65-4.33-3.6,1-3.85,7,0,7.7.6.11,2.28-.83,1.19-1-3.52-.63-2.23-8.09,2.8-4.07-.25.28-.51.55-.77.83a6.21,6.21,0,0,1-1.31-2.19c-1.43-3.34-.35-6.52,5.39-5.9-.86-.09-1-4.35-1-4.79.21-3.93,6.11-5.67,9.1-3.59a4.05,4.05,0,0,1-2-2.51c-.84-2.69,0-5.69,3.31-5.86,5.53-.28,2.68,4,1,2.25a6.68,6.68,0,0,1-1.79-3.23c-.92-3.91,6.81-4.41,6.6.72-.12,2.85-2.06.18-3-.95a16.2,16.2,0,0,1-1.45-2.15c-.92-1.56,0-.78-1.87-1.12.59.11,2.27-.83,1.18-1Z"/><path class="cls-6" d="M108.44,145.49c-1.74,1.27-4.26,3.51-4.24,5.93,0,1.36.34,4,2.32,3.73,3-.4,3.26-4.19.16-4.78-2.79-.52-8.54,2.32-10,4.66-2.18,3.48-1.91,8.38,3.39,7.62.31-.05,1-.23,1.1-.64.36-2.47-4.25-2.49-5.7-2.1a10.07,10.07,0,0,0-6.92,6.45c-1.66,5.07,8.33,7.21,7.67,1.58-.58-4.94-12.36,1.4-13.95,2.54-6.32,4.55,1.93,11.88,6.35,6.5a.28.28,0,0,0-.12-.46c-3.07-1.19-11.81-.4-11.15,4.75.57,4.37,6.9,3,6.41-1,0-.4-.87-.24-1.08-.19-2.21.44-3.22,1.4-3.53,3.71-.1.73,1.84.37,1.93-.25L82.91,181l-1.09-.2q-3.37,2.52-2.32-1,10.38-3.39,3.74-2.78c-3-2.07-.75-5.51,1.56-6.9a27,27,0,0,1,5.58-2.47,3.32,3.32,0,0,1,3.9.77L92.5,170a3.65,3.65,0,0,1-2-2.16c-1.1-2.47,2-5.23,3.59-6.34q5.28.92,3-2c-.47-1.35.66-3.87,1.57-4.7a16.87,16.87,0,0,1,5.82-3.28c2.6,2.52,3.15,2.7,1.62.54-.77-2.51,2.15-5.1,3.83-6.32.88-.64-1.07-.62-1.54-.28Z"/><path class="cls-6" d="M82.63,170.58l-1.34.44,1.12.32c-.74-2.16-.06-4.42.72-6.48a15.05,15.05,0,0,1,1-2l4,1.5q-.72.88-.69-.27a12.81,12.81,0,0,1,0-4.82,7.87,7.87,0,0,1,.87-2.55c1.9-4.5,5,2.29,5.11,2.59l1.85-.66a6.72,6.72,0,0,1-2-6.66c.23-1.14,1.63-4.12,3.5-2.47,1,.9,1.33,2.73,1.62,4,.2.8,1.81.28,1.94-.36a38.38,38.38,0,0,1,1.37-5.67c.66-1.75,3.37,1.44,4.07,1.81s2.4-.57,1.51-1c-2.44-1.29-2.71-4.28-5.87-2.79-2.42,1.13-2.57,5.71-3,7.88l1.94-.36c-2.73-11.43-13.71-.47-6.79,6.49.43.42,2.23.07,1.86-.67-2.12-4.26-5.75-7.36-8.86-2.21-1,1.64-2.78,10.29.89,9.93,3.88-.38,4.36-7.55-.26-7.1-5.07.5-8.16,8.14-6.69,12.44.14.42.77.44,1.12.32l1.34-.44c1.15-.38.86-1.55-.31-1.16Z"/><path class="cls-6" d="M77.9,155.87l-.9.45,1.38.24c-1.27-3.92,5-5.44,6.42-1.76a12.67,12.67,0,0,1,.6,3.91l1.94-.35a8.76,8.76,0,0,1-.89-4.65c.2-2.79,3.22,2.16,3.33,2.41.39.9.69,1.83,1,2.75s1.78.32,1.94-.35c.79-3.21.78-7.18,3.68-9.37l-1.51,0c1.64,2.58,4.31,9.16,8.66,6,2.32-1.68,4.9-7.14.86-8.37-.41-.12-1.57.08-1.54.7.12,3.29,3,4.35,6,4.59.87.06,2-1.19.7-1.3q-3.37.12-4.75-3.47l-1.54.69c3.36,1-.22,9.42-4.06,4.9-1.1-1.3-1.63-3.13-2.54-4.57-.29-.45-1.19-.22-1.52,0-3.35,2.53-3.44,6.51-4.38,10.33l1.94-.35c-.72-2.15-2.32-8.25-5.92-7.08-3.22,1.05-2.61,5.11-1.38,7.59.31.65,2,.44,1.94-.35-.14-3.83-1.22-8.1-5.74-8.11-3.47,0-6.21,3.42-5.16,6.67.17.53,1,.44,1.38.25l.89-.45c1.19-.59.11-1.48-.82-1Z"/><path class="cls-6" d="M115.05,156.87c-2.51,3.09-3.56,5.45-1.87,9.31.83,1.89,2.85,3.62,5,3.26,6-1,2.38-9.56-2.86-9.32-6.11.29-9.12,5.07-8.64,10.85.33,4,5.79,2.92,5.37-.16-.32-2.4-3.93-3.21-5.8-3.24-2.3,0-4.45,1.22-6.2,2.57-2.74,2.12-4.61,10.81.93,9.9.72-.12,3.21-1.11,2.85-2.24-.66-2.11-3.8-2.17-5.62-2.14-3.39.06-9.12,6.72-5.13,8.83.43.22,1.82,0,1.87-.6.46-5.67-8.28-4-11.24-2.37-5.22,3,4.89,3.38,6.79,3,1.15-.25,1-.94-.19-.69a11.72,11.72,0,0,1-4.72,0l-1.18-.48a3.66,3.66,0,0,1,4.48-2.54c2.29.07,4.32,1.2,4.13,3.62l1.87-.6c-2.59-1.37-.14-4.61,1-6.1.87-1.29,2.22-1.6,4-.91,3,.65.16,2-.34.53a6.53,6.53,0,0,1,1.16-6.2q4-4.47,7.63-1.78l.77.63q2.08,1.46-.14,2.05c-3-4.91,2.89-13.42,8.59-9.84a4.78,4.78,0,0,1,1.75,3l-2.84,2.31a7.63,7.63,0,0,1-1.84-2.89c-1.37-3.14.23-5.5,2.15-7.86.44-.53-1.45-.28-1.76.1Z"/><path class="cls-6" d="M123,152.88c-1.84-.49-5.13-.26-4.35,2.4.53,1.79,2.6,4.66,4.77,4.2,3.14-.67,2.59-5.63-.58-5.69-5.78-.13-4.76,7-3.4,10.46.17.42,2.06-.2,1.94-.52-1-2.61-2-5.94-.36-8.48s2.51,1.57,2.51,2.47a2.9,2.9,0,0,1-.21,1.09c-.14.34,1.28.22.44-.13a6.58,6.58,0,0,1-2.7-2.85,5,5,0,0,1-.61-1.66c-.19-1.08.13-.8,1-.57.43.11,2.11-.58,1.6-.72Z"/><path class="cls-6" d="M181.91,149.62c-7.25.69-2.62,11.44,2.25,12.61,6,1.45,4.47-7.76,1-5.1-4.7,3.56.46,16.6,5.77,11,1.43-1.51,2.23-2.72,1.05-4.55-.32-.5-1.68-.3-2.11,0-4.37,2.86-.37,7.48,2.81,9.34.41.25,1.61-.05,1.74-.57a18.86,18.86,0,0,0,.45-4.16c0-.53-1.93-.19-1.94.52a10.93,10.93,0,0,1-.44,3.9l1.74-.57a10,10,0,0,1-4.22-4.48c-.05-2.52-.09-2.58-.14-.17-1.72.87-2.86.51-3.4-1.1a10.67,10.67,0,0,1-1-3.6,29.37,29.37,0,0,1,.56-4.79c1.13,1,.76,4.5-2.06,2.69a8.7,8.7,0,0,1-2.41-2.88c-.86-1.44-3-6.84.1-7.13.91-.09,1.64-1.11.29-1Z"/><path class="cls-6" d="M174.23,146.36c2.86-.72,7.21-3.52,9.19.44a18.17,18.17,0,0,1,1.41,7.15c0,.36,1.8-.06,1.92-.43.84-2.68,1.43-5,3.5-7.08l-1.83.34a4.87,4.87,0,0,1,.09,3.35c-.1.46-2,4.59-2.5,2.7-.71-2.81,5.69-5.69,7.34-2.86,1.3,2.23-2,4.86-2.54,3.72-1.14-2.59,4.44-5.11,6.17-4.24,3,1.53.2,6.85-1.31,8.35-.39.39,1.43.16,1.75-.16,1.66-1.66,4.25-6.29,1.83-8.44-1.75-1.55-4.88-.9-6.72.23s-6,5.3-1.81,6.12c1.94.38,5.36-2.34,5-4.36-1.16-6.52-9.29-2.59-11.43,1.25-1.17,2.1,1.9,2.12,3.08,1.69,2.57-.91,4.12-5.53,3-7.87-.22-.45-1.6.11-1.84.34-2.09,2.06-2.8,4.5-3.66,7.26l1.91-.43c-.13-3.42-.59-7.3-3.47-9.46-2.42-1.81-7.17,1.3-9.21,1.82-1.13.28-1,.85.15.57Z"/><path class="cls-6" d="M174.61,141.25c-3-3.12,2.1-4.83,4.67-5.08,3.68-.36,7.12,5,3.53,7.59l1.72-.18a7.32,7.32,0,0,1-.2-5.31c1.26-3.52,3.64,1,4.09,2.24.17.5,1.84,0,1.92-.41.62-3.4,4.25-3.54,3.91.31-.06.6,1.87.2,1.91-.31.53-6-6.87-4.37-7.74.31l1.93-.42c-2.73-7.7-10.13-2.55-7.76,4.1.19.52,1.46,0,1.72-.18,2.38-1.71,2.17-4.43.7-6.77-1.21-1.94-3.68-2-5.68-1.78-3,.28-10.24,2.66-6.53,6.58.38.4,2.19-.29,1.81-.69Z"/><path class="cls-6" d="M171.09,128.8c-.27-2.77,1.49-3.76,5.29-3,1.19,1,1.29,2,1.42,3.39.19,2.1-.47,4.28-.58,6.38l1.93-.51a11.7,11.7,0,0,1,.95-5.77c1.11-2.89,2.06,2,2.05,1.86a26,26,0,0,1,0,3.53c0,.4,1.85.06,1.92-.42.1-.7.44-4.3,2.35-3.31,1.14.58,1.36,2.2,1.55,3.28.09.53,1.66-.06,1.84-.31,1.68-2.18,7.46,6.14,8.52,7.11.41.38,2.17-.35,1.81-.68-2.69-2.47-7.85-11.83-12.09-6.33l1.85-.31c-1.08-6.12-7-4.25-7.74.87l1.92-.42c.07-2.85.46-7.81-3.63-6.83-2.95.7-3.56,5.83-3.23,8.24.07.48,1.9,0,1.93-.51.22-4,2.14-10.77-4-11-2.91-.12-6.29,2.23-6,5.27,0,.44,2,.07,1.93-.51Z"/><path class="cls-6" d="M111,127.76a10.33,10.33,0,0,0-16.29-1.19c-3.38,3.73,5,6.53,7.75,4.33,3.6-2.9-3.16-8.13-6.12-7.83-1.64.16-4.55.75-4.89,2.84-.29,1.74.89,2.22,2.43,2,.27,0,1.33-.37,1.07-.87-1.82-3.59-6.69-4.73-10.09-2.79-1,.55-2.37,2.8-1.07,3.76,1.86,1.36,3.61.72,5.44-.36,1.13-.66-.53-1.13-1.24-.71l1.67-2.09a5.45,5.45,0,0,1,3.36,2.7l1.08-.87c4.36-.72,3.52-2.8,6.08,0a4.37,4.37,0,0,1,1.12,3l-2.71.62q-3.47-5.08,1.82-5.57c4.24-1.13,6.71.9,8.81,3.87.43.62,2.29-.07,1.78-.8Z"/><path class="cls-6" d="M173.33,120.29a9.17,9.17,0,0,1-.05-4c.39-2.39,2.84-4.89,4.32-1.69,1.26,2.69,1,6.84.06,9.61l1.73-.6c-2.82-1.34-1.83-4.54-.59-6.69a7.74,7.74,0,0,1,2.91-3c1.73-.92,2.42,1.65,2.68,2.81.17.79,1.76.17,1.93-.36.31-1,1.18-3.47,2.17-1.74.34.6,2.22,0,1.79-.78-2-3.56-5.14.36-5.9,2.73l1.94-.36c-2.26-10.37-16.35,4.63-8.45,8.36a1.36,1.36,0,0,0,1.73-.6c1.1-3.2,1.81-11.71-3-12.34s-6.14,5.56-5.19,9.13c.19.73,2.13.21,1.93-.52Z"/><path class="cls-6" d="M166.41,112.45c-1.64-1-.43-3,.75-3.81,2.22-1.49,4.22,2,4.68,3.66l1.94-.52c-.43-1.13-1.52-4.57.69-4.12.65.13,2.28-.88,1.16-1.1-1.49-.3-3-.19-4,1.12s-.24,3.37.23,4.62c.27.7,2.14.2,1.94-.52-.94-3.35-3.88-5.5-7.28-4.08-2.11.88-4.19,4.17-1.62,5.72.58.35,2.35-.48,1.53-1Z"/><path class="cls-6" d="M162.38,110.22c-2.4-1.15-1.92-4.4-1-6.4,1.67-3.7,4.36-.32,4.95,2.13.25,1,.09,2.22-.71,1.09a12.74,12.74,0,0,1-1.36-3.2,6,6,0,0,1-.19-3.15c.57-3.37,4-2,5.62-.36.45.46,2.27-.08,1.79-.77-.74-1-1.79-2.8.66-2.87a6.15,6.15,0,0,1,2.6.6c.59.26,2.36-.59,1.53-1-3.13-1.39-9.9-.73-6.58,4l1.79-.77c-3.53-3.63-9.17-2.83-9.51,2.82-.15,2.47,2.33,8.76,5.51,5.79,1.68-1.58.53-4-.55-5.57a3.78,3.78,0,0,0-4.79-1.46c-3.5,1.39-5.08,8.21-1.28,10,.58.28,2.35-.56,1.53-1Z"/><path class="cls-6" d="M153.17,105.06a17.37,17.37,0,0,1-.44-4.93l-1.88.6a4.7,4.7,0,0,0,6.35-1.39c.18-.32-1.63-.19-1.92.32-.64,1.12-1.61,1-2.61.39-.39-.24-1.88,0-1.88.6a17.74,17.74,0,0,0,.45,4.93c.15.5,2.08,0,1.93-.52Z"/><path class="cls-6" d="M140.94,145c.07,1.2,1.37,1.53,2.36,1.56a1.8,1.8,0,0,0,1.29-.5c.29-.35-.26-.44-.5-.45a1.19,1.19,0,0,1-1.22-1.13c0-.5-2-.13-1.93.52Z"/><path class="cls-6" d="M147.2,146.81a2.36,2.36,0,0,0,1.79-.88.58.58,0,0,0-.26-1,1.31,1.31,0,0,0-1.37.36s-.24.21-.07.1.36-.08.07-.08a1.09,1.09,0,0,0-1.06.8c-.05.51.51.67.9.67Z"/><path class="cls-6" d="M133.77,149c6.51,2.12,16.25,3.3,22.18-.88,1.07-.75-.59-1-1.21-.59-5.16,3.64-14.08,2.26-19.79.4-.62-.2-2.26.71-1.18,1.07Z"/><path class="cls-6" d="M133.48,148.94c2.77,3,5.85,7.67,9.92,9,5.74,1.82,9.91-6.31,12.76-9.73.79-.95-1-1.31-1.63-.61-2.6,3.12-7.28,12.14-12.25,7.84a86.92,86.92,0,0,1-7-7.33c-.62-.67-2.45.13-1.77.87Z"/><path class="cls-6" d="M124.37,129.16c-1,3,.58,7.18.56,10.29a29.21,29.21,0,0,0,1.44,10.61,29.65,29.65,0,0,0,12.4,15.48c.6.34,2.36-.5,1.52-1-6-3.52-10.15-9.8-12.44-16.28-1.25-3.53-1-7.14-1-10.81,0-2.72-1.43-5.93-.57-8.51.24-.74-1.71-.48-1.94.21Z"/><path class="cls-6" d="M139.74,165.84c13.17,8,25.65-18.7,26-28.4,0-.79-1.91-.39-1.93.25-.27,8.36-11.41,34-22.5,27.22-.53-.33-2.32.45-1.54.93Z"/><path class="cls-6" d="M132,160.39a41.66,41.66,0,0,0,2,6c1,2.71.07,5-1.61,7.14-.12.15,1.55.1,1.9-.35,1.47-1.89,2.35-3.72,2-6.12s-1.87-4.73-2.37-7.22c-.08-.4-2,.06-1.93.51Z"/><path class="cls-6" d="M153.37,160.44c-3.6,2.21-2.15,9.86.19,12.48.57.63,2.4-.14,1.77-.84-1.8-2-3.58-9-.7-10.81,1.12-.69-.5-1.31-1.26-.83Z"/><path class="cls-6" d="M133.78,169.49c-.58,10.2-15.83,10.91-23.15,13.76-.59.23-.86.8,0,.8h.9c.68,0,2.07-1,.76-1-.4-.09-.52.17-.38.71.56-.19,1.13-.35,1.7-.52,1.38-.41,2.79-.76,4.18-1.14a69.47,69.47,0,0,0,8.9-3c4.32-1.83,8.74-4.84,9-9.92,0-.74-1.9-.34-1.93.26Z"/><path class="cls-6" d="M152.18,167c-2.17,4.81,2.74,9.29,6.62,11.36,4.84,2.57,10.81,2.88,16.17,2.93,1.12,0,1.47-1.45.16-1.46A42.69,42.69,0,0,1,162.32,178c-3.88-1.25-10.53-5.84-8.29-10.79.46-1-1.49-1.05-1.85-.25Z"/><path class="cls-6" d="M106.54,188.17a117.13,117.13,0,0,1,9.15,15c2,3.78,3.8,8,6.51,11.39,1.67,2.07,4.26,2.51,6.76,2.62,6.38.26,13-1,19.35-1.51,7.39-.57,16.67,1.42,23.15-3.07,2.93-2,3.82-5.9,4.63-9.13,1.69-6.74,1.58-13.59,4.37-20.09.45-1-1.5-1.11-1.86-.27-3.63,8.47-1.91,19.38-7,27.08-2.45,3.68-7.71,3.66-11.63,3.68-4.5,0-8.95.1-13.45.44-5.24.41-10.46,1-15.71,1.33-4.59.27-6.85-1.47-9-5.26-4.37-7.79-8.14-15.9-13.5-23.09-.56-.76-2.39,0-1.76.88Z"/><path class="cls-6" d="M139.67,188.7c-4.47-4.34-13.41-1.6-18.88-1.49-.68,0-2.07,1.06-.76,1,5.1-.11,13.74-2.8,17.84,1.19.47.45,2.28-.27,1.8-.74Z"/><path class="cls-6" d="M149.43,190.69c5.26-6,15.58-3.79,22.46-6.89,1.21-.54.13-1.55-.85-1.11-7.31,3.29-17.46.86-23.22,7.45-.8.92,1.05,1.19,1.61.55Z"/><path class="cls-6" d="M105.06,183.7c-1.59.5-12.23,2.59-8.84,5.74.47.44,2.28-.29,1.8-.74-2.37-2.21,6-3.7,7.28-4.11,1.13-.35.91-1.25-.24-.89Z"/><path class="cls-6" d="M94.28,190.31c-6.81,1.73-7,11.33-7.47,16.95-1.28,14.52,3.72,28.83,4,43.31s-5.35,27.88-7,42.05c-1,8.3-1.43,17.6.2,25.88.15.77,2.08.28,1.93-.52-3.9-19.88,3.74-39.19,6.33-58.62,1.64-12.31-1.19-24.51-2.88-36.63A78.25,78.25,0,0,1,89,204.38c.37-3.89.82-11.74,5.58-13,1.18-.3.88-1.41-.3-1.11Z"/><path class="cls-6" d="M188,185.42c9.19,6.38,9.22,16.59,7.54,26.68-.78,4.66-1.9,9.25-2.68,13.91-1.14,6.82-1.2,13.87-1.31,20.77a116.57,116.57,0,0,0,.81,19.14c1,6.94,2.49,13.79,3.45,20.75a57.68,57.68,0,0,1-.4,19c-.62,3-1.19,6.41,2.12,7.88.57.26,2.34-.57,1.54-.92-4.12-1.83-1.26-9.27-1-12.8a94.91,94.91,0,0,0-1-19.42c-1-6.94-2.75-13.71-3.41-20.7-.72-7.49-.18-15.3.17-22.82.47-10.3,3.28-20.05,4.43-30.25,1-8.7-.93-16.83-8.41-22-.56-.38-2.32.4-1.79.76Z"/><path class="cls-6" d="M96.16,190.67c1.17,5.43,4.94,9.61,7.77,14.24s4.53,9.61,8.26,13.79a17.39,17.39,0,0,0,10.46,5.38c7.26,1.19,15.24,1,22.58.92,5.47-.09,11-.59,16.48-.9,4.39-.25,8.69-1,12.52-3.25s5.3-6.68,6.63-10.55c2.69-7.84,5.4-15.22,9.44-22.5.49-.9-1.46-.81-1.83-.15a117.94,117.94,0,0,0-7,15.07c-1.86,4.86-2.85,9.95-5.5,14.49-2.93,5-10.18,5.4-15.31,5.69-4.44.25-8.88.47-13.32.75-6.84.42-13.76-.24-20.59-.63-6.16-.36-10.5-2.22-14.38-7.06-2.85-3.56-4.45-7.9-6.62-11.86-2.59-4.73-6.44-8.51-7.62-13.94-.18-.81-2.11-.31-1.93.51Z"/><path class="cls-6" d="M181.25,184.07a5.63,5.63,0,0,1,2.38-.3,1.62,1.62,0,0,0,1.27-.51c.27-.37-.22-.54-.51-.54a9.35,9.35,0,0,0-3.89.6c-.21.1-.84.44-.53.75s.95.15,1.28,0Z"/><path class="cls-6" d="M125.72,217.67c-2.06-.15-7.29,2.67-4.14,4.87,2.29,1.6,6.74-2.73,8.17-3.9.82-.67,1.62-1.34,2.46-2,2.31-1.77,1,3.56.95,3.59-.32,1.19-.48,3.23,1.26,3.52,4.73.8,4.92-6.41,7.81-8.59l-1.74.13c.78,3.18-.24,6.95,3.94,7.61,1.81.28,3.2-1.36,4-2.72a11.23,11.23,0,0,0,1.13-4c.32-2.18,1.57,1.39,1.55,1.25a15.71,15.71,0,0,1,0,2.06c0,2.44.52,4.3,3.17,4.57a4,4,0,0,0,3.93-2,10.57,10.57,0,0,0,.76-4.09c0-2.06,2.69,2.9,2.51,2.7,4.18,4.45,6.67-.89,4.66-5l-1.1.76c3.22-.26,5,4.7,8.16,3.41,3.38-1.38-1.19-6.31-1.23-8.2l-1.36.78a16,16,0,0,1,7.23,1.27c.48.23,1.73,0,1.74-.7,0-1.18.14-2.56-.7-3.54a7.25,7.25,0,0,0-1.33-1.38c-1.68-1.55-5.57-4.78,3.37-4.16.43,0,1.34-.23,1.35-.78a5.22,5.22,0,0,0-.73-3.39c-1.29-1.64-6.45-5.14,1.17-5.24.27,0,1.54-.25,1.35-.77-1.16-3.09-8.13-7.88.95-4.67.49.18,2.35-.51,1.54-.89-.24-.12-3.39-1.62-3.39-2.5l-1.11.75,3.28,1.22c.44.45,2.27-.25,1.8-.74a4.85,4.85,0,0,0-4.79-1.47c-.39.06-1.11.26-1.11.75,0,1.38,2.65,2.35,3.78,2.88l1.54-.89a11.14,11.14,0,0,0-7.86.08c-.28.1-.59.3-.59.62,0,.13-.08.47.06.56a9.44,9.44,0,0,1,4,4.82l1.35-.78a14.37,14.37,0,0,0-7.25,1.61c-.13.07-.47.31-.37.51,1.47,3,4.5,4.38,4.47,8.06l1.36-.77a10.89,10.89,0,0,0-8.32,2.62c-.17.14-.27.31-.14.5,2,2.68,4.49,3.87,4.42,7.51l1.74-.71a18.08,18.08,0,0,0-8-1.41c-.42,0-1.36.21-1.35.77,0,1.77,4.22,8.25.53,5.15a6.72,6.72,0,0,0-5.24-1.88c-.22,0-1.32.34-1.11.76a7.52,7.52,0,0,1,.82,4.7c-.2,1.17-2.84-3.76-3-4.09-.82-1.49-3.33-.32-4.36.12-.27.11-.59.29-.59.62a17.56,17.56,0,0,1-.39,3.84c-1,4.61-3.28.39-3.47-.34-.4-1.51-.06-3.19-.26-4.73-.3-2.34-2.9-1.79-4.44-1.27-.23.08-.83.26-.85.58a11.76,11.76,0,0,1-1.53,5.42c-2.34.07-3.45-.79-3.31-2.57a28.68,28.68,0,0,0-.39-3.69c-.16-.62-1.47-.08-1.74.13a6.16,6.16,0,0,0-2.4,2.9c-.4,1-3.79,7.2-3.38,3,.11-1.13,2-4.73-.09-5.25a4.75,4.75,0,0,0-4.15.85c-1.11.77-2.12,1.72-3.17,2.57a32.71,32.71,0,0,1-2.75,2c-3.1,2.07-1.43-2.43.2-2.31.69.05,2.07-.94.77-1Z"/><path class="cls-6" d="M125,217.48c-.5-1.45-1.25-1.91-2.79-1.5-1.19.32-2.33,1-3.47,1.41-2.57.93-3.55-1.42-1.44-3.2,1.43-1.21,3.25-1.91,4.08-3.68.77-1.61-1.43-3-2.73-3.06-2.39,0-4.54.78-6.83,1.34q-6.59-1.18-1.06-4.78c.85-.55,1.76-1,2.62-1.55A4.71,4.71,0,0,0,115,201c.69-1.53-.85-3.29-2.48-3.43-3.11-.26-5.4,1.52-8.33,2.3l1.08.18c-.31-3.51,3.74-4.4,5.75-6.46a.27.27,0,0,0,0-.37c-3.29-2.5-6.7-1.28-10.42-.51l1.08.17c-.65-3.49,4.29-2.45,5.37-5.25,0-.13-.07-.27-.19-.31-2.87-.87-5.94-1.08-8.53.65-1.08.72.61.87,1.18.49-1.08.72,6.1-.18,2.85,1a5.58,5.58,0,0,0-1.71.8,2.86,2.86,0,0,0-.9,3.17c.07.39.86.22,1.08.18.39-.08,10.2-.93,6.68,1.33a31,31,0,0,0-2.7,1.88,3.88,3.88,0,0,0-1.48,3.78c0,.38.89.22,1.08.17a21.55,21.55,0,0,0,3.54-1.32c4-1.83,7.07,1,2.48,3.64a9,9,0,0,0-4.13,4.21c-2.12,4.22,6,2.37,7.25,2,2.08-.61,8-.05,4.88,2.76-.81.72-1.81,1.28-2.69,1.93A3.4,3.4,0,0,0,114,217.1c.55,5.05,8.16-1.62,9,.89.21.63,2.13.06,1.93-.51Z"/><path class="cls-6" d="M124.29,156.56c-3.32,1.86-2.38,8,.72,9.68.37.19,1.73,0,1.74-.59,0-2.5-.59-7.8-4.42-4.94-2.9,2.17-2.11,9.16,1.34,10.46.42.15,1.66,0,1.74-.59.51-4-4.88-4.56-7.29-2.27-2.9,2.76-5.27,9-.1,10.52a1.59,1.59,0,0,0,1.5-.5c2.74-4.69-4.07-7.08-7.61-4.93-3.86,2.33-4.06,7.22,1.2,6.78.93-.08,1.61-1.14.27-1-3.39.28-2.74-2.34-1.75-4,2-3.3,8.4-.84,6.09,3.11l1.49-.5c-2.58-.77-2.5-2.85-2.1-4.88a9.83,9.83,0,0,1,1-2.46q1.44-2.94,5.35.37l1.73-.59c-2-.76-2.39-3.49-2.59-5.35l.06-1.71c0-1,.59-1.43,1.86-1.16.56,1.08.3,2.73.28,3.88l1.74-.59c-2.15-1.14-3.71-6.75-1.08-8.23,1.14-.63-.58-.87-1.19-.53Z"/><path class="cls-6" d="M128,156.87c-3.91,3.89,2.61,12.11,4.52,7.41,1.05-2.57-1.84-3.37-3.65-2.42-3.54,1.86-3.46,7.9-1.4,10.9.31.45,1.57.06,1.84-.31,3.3-4.46-5.94-1.53-7.58.1-4.15,4.13,3.81,7.52,4.52,2.48,0-.15,0-.18-.17-.24-5.82-2.59-11.4.14-15.1,4.92-.4.52.78.35,1,.3,4.19-1,1.52-4.09-1.71-4.36-3.44-.28-9.38,1.71-10.08,5.52a.13.13,0,0,0,0,.18,4,4,0,0,0,1.91,1c.47.15,2.21-.6,1.57-.79-5.1-1.6,3.66-5.53,5.92-4.76.32.1,3.46,2.44,4,1.69,2-2.56,11.07-5.8,10.58-2.3-.94.54-1.46.25-1.56-.9q-.19-3.87,4.88-2.69l1.85-.31a8.15,8.15,0,0,1-1.18-3.74,14.24,14.24,0,0,1,.08-3.63q0-2.33,2.31-.27a20.64,20.64,0,0,0-1.45-2.66,4.53,4.53,0,0,1,.6-5.16c.46-.46-1.41-.26-1.76.09Z"/><path class="cls-6" d="M161.78,161.76c-5-.53-11.81,6.54-6.19,10.36,4.06,2.75,9.12-4.39,7-7.94-1.35-2.25-3.45-2.29-5.6-1.45-2.89,1.13-3.42,4.38-2.84,7,1.38,6.31,9,2.88,11.12-.56.27-.44-1.21-.17-1.31-.12-3.21,1.4-3.72,6.65-1.16,8.88,3,2.61,7.12-4,8.22-5.51l-1.85.3c-.15,6.46,4.52,8.06,9.6,5.3,1.13-.62-.64-.64-1.15-.37-5.19,2.83-6.6-1.83-6.52-5.45,0-.51-1.68.06-1.85.3-.69,1-3.74,6.48-5.64,3.71-.95-1.39-.71-5.83,1.05-6.61l-1.31-.12c-2.11,3.38-5.88,3.27-7.27-.27-1.57-4,3.7-8.11,5.26-3,.59,1.9-1.93,6.56-4.54,4.79-3.36-2.28.27-8.75,3.76-8.37.48.05,2.25-.77,1.23-.88Z"/><path class="cls-6" d="M162.44,155.84c-5.17.12-6.06,8.67-1.28,10,4.34,1.19,9.45-6.27,4.24-7.46-6-1.36-5.06,8.59-4.07,11.65,2.29,7.15,11.51,3.58,12.45-2.32.05-.32-.34-.63-.59-.63h-.45a1.66,1.66,0,0,0-1.34.88c-1.15,2.42-1.68,8.67,1.79,9.67,3.27.94,6.74-.79,6-4.52-.11-.55-1.3-.18-1.56,0-2.47,1.74-1.55,4.93.77,6.41,2.72,1.73,6.21-2.59,7.44-4.3l-1.86.24c2.53,5.4,4.59,6.1,10.44,6.11.71,0,2.06-1.08.75-1.08-5.19,0-7-.79-9.26-5.54-.3-.63-1.56-.18-1.87.24a14.18,14.18,0,0,1-2,2.38c-2.17,2.25-5.69-2.13-3.22-3.87l-1.56,0c-2.59,2.4-4.07,2.55-4.43.47a10.47,10.47,0,0,1-.28-2,8.18,8.18,0,0,1,.82-4.22l-1.34.66c.48,0-.87,2.13-1.13,2.6-2.53,4.57-6.7.44-7.6-1.67a15.1,15.1,0,0,1-.74-6.63,6.93,6.93,0,0,1,.87-2.9q2.49-1.16,2.26,1.44a5.3,5.3,0,0,1-.82,2.12c-2.66,4.69-7.8-6.49-3.15-6.6.71,0,2.06-1.12.76-1.08Z"/><path class="cls-6" d="M190.27,176.49c-1.84,3.61,3.92,4.61,6.36,4.65l-.6-.32c.42,1.21.92,2.38,1.34,3.58.25.72,2.17.17,1.93-.51-.41-1.21-.92-2.38-1.34-3.59-.08-.24-.37-.31-.6-.32-1.71,0-6.67-.69-5.28-3.41.44-.86-1.5-.68-1.81-.08Z"/><path class="cls-6" d="M93.85,183.91a7.55,7.55,0,0,0-4,4.85l1.93-.4c-1.64-3.61-6.81-2.76-9.54-.94-4.66,3.09-.36,7.55,3.7,7.52.33,0,1.31-.17,1.35-.63.47-4.62-6.4-3.1-8.94-2-3.52,1.52-6,8.83-.68,9.34.45,0,1.41-.08,1.56-.62,1.45-4.95-5.66-3.29-8-2.17-1.41.66-3.16,1.78-3.34,3.47-.26,2.47,4.19,3.39,5.79,3.8.55.14,2.26-.7,1.2-1-2.88-.74-7.44-2.88-3.15-5.48,2-1.18,6.7-2.1,5.62,1.62l1.56-.62c-3.86-.38-2.12-4.47-.81-6.46s7.71-3.51,7.31.36l1.35-.63c-2.81,0-4.68-1.51-4.46-4.18.37-4.26,6.47-3.35,7.58-.89.27.59,1.78.13,1.93-.39A6,6,0,0,1,95,184.38c1.13-.64-.6-.8-1.17-.47Z"/><path class="cls-6" d="M195.22,180.87c-4.84,1.91,3.92,11.1,6.29,4.74a.58.58,0,0,0-.38-.79c-4.25-1.58-6.1,4.26-4.12,7.37s8.74,4.53,8.12-.69c-.11-.88-1.9-.45-1.95.33A14.61,14.61,0,0,0,206.41,202c.55.73,2.39,0,1.77-.86a13.56,13.56,0,0,1-3-9.49l-1.94.33c.38,3.22-3.48.5-4.07-.14-.9-1-.78-2.8-.7-4,.11-1.65-.44-1.86-1.49-2.91-.44-.44-2.08-2.46-.85-2.95s.14-1.58-.87-1.18Z"/><path class="cls-6" d="M189.76,166.49c-.13,2.75,1.34,7.73,4.36,8.72,2.68.88,4.57-1.05,5.62-3.32l-1.92.42c0,3.53-1,10.13,4.14,10,.56,0,2.11-.88.82-.85-4.1.09-3.06-7.19-3-9.69,0-.47-1.76.07-1.92.42-2.71,5.86-6.28-3.25-6.14-6.24,0-.36-1.9-.09-1.93.52Z"/><path class="cls-6" d="M182.19,218.1c-1.69,4.64-1,9.59-2,14.37-1.73,8.18-15,9.51-20.56,5.56-.65-.46-2.37.44-1.5,1.06,6,4.25,12.87,2.61,19-.41,7.77-3.82,4.43-13.77,6.86-20.41.37-1-1.56-.92-1.84-.17Z"/><path class="cls-6" d="M112.73,234.56c1.35,4.08,6.41,8,10.78,8.43a37.23,37.23,0,0,0,8.56-.46c3.71-.52,6.81-2.26,10.45-3.11,1.21-.28.86-1.54-.33-1.27-4.39,1-8.25,2.85-12.8,3.4-5.63.68-12.75-1.55-14.73-7.5-.29-.85-2.21-.32-1.93.51Z"/><path class="cls-6" d="M177.43,238.24c-11.68,9.59-11.82,23.45-5.14,36.19.3.57,2.16-.09,1.93-.52-6.46-12.32-6.76-26.05,4.72-35.48.82-.67-1.11-.52-1.51-.19Z"/><path class="cls-6" d="M110.37,238.4c5.08,11.14,16.83,25.75,1.56,34.32-1.15.65-.11,1.63.84,1.1,5.9-3.31,9.58-7.8,8.8-14.82-.83-7.57-6.2-14.37-9.27-21.12-.38-.83-2.29-.26-1.93.52Z"/><path class="cls-6" d="M111.11,274.12q14.91,4.78,30.11,8.64c12.4,3.16,24.51-.72,33.37-10,.45-.48-1.42-.27-1.77.09-5.11,5.35-12.6,9.71-20.06,10.29s-14.9-2.64-21.9-4.55c-6.1-1.67-12.15-3.36-18.17-5.29-.48-.15-2.22.59-1.58.8Z"/><path class="cls-6" d="M116.21,270.52c-.48,2.85,22.77,8.35,24.3,8.75,12.22,3.24,21.34-2.52,31.64-8.57.81-.48-1.14-.23-1.47,0a115,115,0,0,1-15,7.87c-6.49,2.61-13.58.14-19.84-1.82-1.83-.58-18.11-4.34-17.71-6.71,0-.18-1.83-.06-1.93.51Z"/><path class="cls-6" d="M106,361.31c1.17,4.73,1.73,10.71,7.22,12.41,3.29,1,6.42,1,9.26-1.08a21.2,21.2,0,0,0,3.25-3.82c2.27-2.79,4.92-.23,7.48-.68,4.32-.76,6.8-6.8,7.49-10.43.55-2.93.25-5.94.82-8.89.52-2.74,2.78-5.06,4.68-6.93,1.67-1.63,3.92-2.73,6.08-1.39,1.73,1.07.63,3.95.23,5.4s-.85,3.54.31,4.75c1.8,1.89,4.8,1.76,7.1.8,5.21-2.16,4.78-7.31,8.38-11.07l-1.84.33c.6,3.05-.35,6.07,3.74,5,2.91-.78,6.13-3.75,6.69-6.75l-1.92.43c2.7,6.57,8.11-.63,10.6-3.45,5.6-6.37,6.15,1.47,9.33,4.84,2.55,2.69,8.33.59,10.68-1.29,2.53-2,9.25-10.68,11.62-3.87.69,2-2.07,5.25.5,6.92,2.1,1.37,4.59.63,6.78,1.9,4.95,2.86-3.91,7.29-6.51,7.31-1.25,0-2.49-.05-3.73-.05-1.94,0-5.25.09-6.59,1.85a3.27,3.27,0,0,0-.83,2c-.06,3-1.76,4.45-4.88,5.36a13.23,13.23,0,0,0-4.93,2.5.17.17,0,0,0,0,.27,1.46,1.46,0,0,0,1.18.51c.43.06,2.23-.68,1.25-.8l1.81-1.56c1.07-.34,2.15-.67,3.24-1a20.82,20.82,0,0,0,2.62-1c2.34-1,1.94-1.71,1.66-3.92-.61-5,9.65-3,13-3.91,3.64-1,7.66-4.54,4.6-8.21-2.08-2.5-6.13.5-7.69-3.71-1-2.68,1.63-4.27-.59-6.76-3.32-3.72-7.86-.12-10.27,2.31-2.67,2.71-5.31,8.05-11,4.5-1.23-.76-1.66-2.89-2.1-4.15s-1.76-3.33-3.33-3.64c-2.28-.45-4.23.67-5.9,2.13a45.51,45.51,0,0,0-4.1,4.56c-1.82,2.09-3.14,2.9-4.39-.14-.17-.43-1.84,0-1.92.42-.42,2.25-2.22,4-4,5.31-2.78,2.11-2.45-3.52-2.62-4.39-.09-.49-1.65.13-1.84.33a13.31,13.31,0,0,0-2.93,4.8c-1.81,4.68-10.57,8.38-9.45,1.23.53-3.36,2.15-5.93-1.81-7.65-4.35-1.89-9.61,4.61-11.53,7.45-2.81,4.15-1.38,10.11-2.79,14.72-.86,2.85-3.27,6.71-6.55,5.71a6.09,6.09,0,0,0-3.56-.21,9.76,9.76,0,0,0-5.22,4c-3.94,5.2-9.62,2.56-12.48-1.57-1.55-2.25-1.66-5.62-2.3-8.21-.11-.44-2,.06-1.93.52Z"/><path class="cls-6" d="M174.49,275.25c11.64,4.33,13.76,22,18.81,31.88,3.15,6.14,7.19,10.57,13.43,13.43,4.33,2,8.49,3.49,9.94,8.46,1.22,4.19.46,9,.4,13.3,0,1,1.94.68,2-.16.09-6.34,1.62-14.51-3.87-19.06-2.66-2.2-6.44-3.36-9.5-4.85-4.48-2.17-7.37-6.37-9.81-10.55-6.07-10.41-7.4-28.94-20.23-33.72-.79-.29-2.26.84-1.12,1.27Z"/><path class="cls-6" d="M217.08,334.44c.72,4.48,5.17,7.08,6.72,11.2.25.68,2.16.11,1.93-.52-1.55-4.12-6-6.76-6.72-11.2-.1-.66-2-.2-1.93.52Z"/><path class="cls-6" d="M136.1,284.06c-4.19,4.15-5.67,10.67-7.57,16.08a86.4,86.4,0,0,0-5,23.1c0,.39,1.88.13,1.93-.51a89.37,89.37,0,0,1,5-22.89c1.79-5.28,3.38-11.83,7.43-15.86.47-.47-1.41-.28-1.77.08Z"/><path class="cls-6" d="M132.57,287.92c.25-1.88,2.39-8.43-1.57-7.14-5.63,1.84-8.55,10.9-11.49,15.32l1.86-.11a91.18,91.18,0,0,1,8.45-16.44c.51-.79-1.46-.39-1.8,0-4.42,4.9-8.71,9.92-13.75,14.2l1.66.15c2.36-3.05,5.25-5.57,7.17-8.95.28-.49-.42-.58-.76-.53-8.78,1.54-15.47,9.47-19,17.21-.25.56,1.65.35,1.93-.25a35.89,35.89,0,0,1,9.55-12.43,19.37,19.37,0,0,1,4.19-2.62c3.39-1.66.22,1.73-.15,2.18-1.5,1.85-3.24,3.48-4.7,5.37-.56.73,1.36.41,1.67.16,5.14-4.37,9.5-9.48,14-14.47l-1.8,0a92.15,92.15,0,0,0-8.57,16.71c-.27.66,1.6.26,1.86-.12,2.18-3.29,3.89-6.87,6.08-10.16.76-1.13,4-5.8,4-2.88a48.85,48.85,0,0,1-.71,5.1c-.09.73,1.85.37,1.93-.26Z"/><path class="cls-6" d="M155,346.46c.11-5.24,1-10.42.9-15.67-.16-5.6-2.18-11.43-3.36-16.89s-2.33-11.12-3.37-16.7c-.57-3.09-3.29-8.66-1-11.44.43-.52-1.44-.27-1.76.1-1.83,2.2-.71,5.55-.12,8,1.19,4.94,2.08,9.94,3.11,14.92,1.31,6.32,2.72,12.61,4.09,18.9s-.3,12.9-.45,19.26c0,.37,1.92.09,1.94-.52Z"/><path class="cls-6" d="M140.06,292.24c-1.87,7,1.14,14.18,1.4,21.23.4,10.76.09,21.53-2.3,32.07-.11.49,1.8.18,1.91-.32,2.13-9.4,2.59-18.9,2.43-28.51-.13-8-3.6-17-1.53-24.79.12-.47-1.78-.19-1.91.32Z"/><path class="cls-6" d="M165.2,286.64c8.44,13.5,14.9,28.33,14.7,44.52,0,.84,1.93.44,1.94-.23.2-16.41-6.29-31.36-14.85-45.06-.36-.56-2.23.07-1.79.77Z"/><path class="cls-6" d="M165.73,285.06c4.8.37,6.66,4.52,8.37,8.38s3.56,7.65,5.21,11.54c3.55,8.33,7,16.55,13.21,23.32.49.55,2.34-.17,1.79-.78-7.54-8.27-11.06-18.82-15.59-28.83-2.61-5.75-4.87-14.24-12.26-14.82-.81-.06-2,1.09-.73,1.19Z"/><path class="cls-6" d="M166.54,283.64c-.27-.41-.55-.81-.83-1.22l-1.86.64a15.23,15.23,0,0,0,4,4.47c.39.31,1.85.17,1.87-.49.05-2.37.52-5.09-.45-7.31l-1.86.64c1.82,1.48,3.37,3.07,5.5,4.12.47.23,1.8,0,1.73-.73a18.62,18.62,0,0,0-.89-4l-1.87.64c6.58,5.57,9.67,13.46,12.48,21.38.24.68,2.15.12,1.93-.52-2.84-8-6-16-12.61-21.62-.39-.33-2.09-.08-1.87.64a18.64,18.64,0,0,1,.9,4l1.73-.73a28.64,28.64,0,0,1-5.24-3.94c-.38-.31-2.16,0-1.86.64.95,2.18.49,4.7.44,7l1.87-.5a15.4,15.4,0,0,1-4-4.48c-.3-.51-2.07,0-1.87.63.35,1.06.14.79,1,1.47.53.43,2.32-.32,1.79-.76Z"/><path class="cls-6" d="M114.26,278.05c-5.4-2.06-8.29,6.45-10,9.93-.46.93,1.49.83,1.83.14,1.07-2.19,3.69-10.14,7-8.87.73.27,2.26-.78,1.14-1.2Z"/><path class="cls-6" d="M105.69,346.58c1.39-7.42,2.68-14.87,5.38-21.95.2-.52-1.7-.28-1.92.29-2.7,7.07-4,14.53-5.38,21.94-.11.63,1.82.29,1.92-.28Z"/><path class="cls-6" d="M111.53,350.66c.51-5.37,1.22-11,4.42-15.51l-1.88.19c.3,6.25-.81,12.4-.9,18.64,0,1,1.71.48,1.94-.18,1.45-4.21,3.16-8.3,4.48-12.55.26-.81-1.71-.57-1.94.19-1.33,4.24-3,8.34-4.48,12.54l1.94-.18c.1-6.35,1.2-12.62.89-19,0-.85-1.63-.16-1.88.18-3.26,4.6-4,10.37-4.54,15.85-.08.91,1.88.59,2-.19Z"/><path class="cls-6" d="M90.94,391.68c6.3.24,12.57-1.3,18.89-1.48,7.73-.23,15.45-.09,23.18-.49,13.22-.68,26.11-1.72,39.08-4.46,8.08-1.7,18.07-4.44,23.26-11.46,6.72-9.08,2.36-21.79,2.62-32.1,0-.9-1.93-.53-1.95.21-.23,9.74,3.18,20.23-1,29.5s-18,11.75-27,13.5c-12.18,2.38-24.36,3.05-36.73,3.69-6.43.33-12.88.21-19.32.34-6.77.15-13.59,1.77-20.32,1.52-.82,0-2,1.18-.72,1.23Z"/><path class="cls-6" d="M158.41,352.21c-.95,2.44.92,5.15,2.19,7.13,1.9,3,4.31,5.54,6.39,8.36.39.54,2.26-.12,1.79-.76-1.63-2.22-3.46-4.31-5.11-6.53s-4.42-5.63-3.33-8.43c.25-.65-1.68-.41-1.93.23Z"/><path class="cls-6" d="M163.78,362.13c-1,.28-3.4-1.55-4.3-2a11.1,11.1,0,0,0-3-.71,45.92,45.92,0,0,0-7.77-.44c-2.6,0-7.86.19-9.09,3.13-.11.27,1.71.12,1.9-.36,1.48-3.54,11.07-2,14.09-1.49s5.25,3.24,8.33,2.39c1.11-.31,1-.85-.15-.54Z"/><path class="cls-6" d="M109.2,373.52l-.45.9,1.26-.56a75.62,75.62,0,0,0-8.63.67c-1.2.14-5,.2-5.62,1.68-.38,1,1.55.84,1.83.14-.13.31,0,.09.4,0s1-.21,1.52-.3c1.14-.19,2.3-.31,3.45-.44,2.11-.23,4.23-.43,6.35-.46a1.36,1.36,0,0,0,1.26-.56l.45-.9c.46-.92-1.49-.81-1.82-.14Z"/><path class="cls-6" d="M90.85,390.68c-1.76-2.16-.85-7.44-.17-9.75,1.86-6.28,8.2-6.77,13.68-6.77.44,0,1.21-.17,1.34-.68,1.51-5.87-1.91-10.17-7.87-10.87-6.86-.8-10.91,2-15,7.17a10,10,0,0,1-10.15,3.85,13.35,13.35,0,0,0-4.36-.43,9.6,9.6,0,0,0-6,3.48c-2.61,3-9,9.73-7.35,14.19.27.7,2.18.14,1.93-.52-1.43-3.77,3.76-9.34,5.92-12.05,2.59-3.25,5.9-4.12,10-3.34a11.59,11.59,0,0,0,6.07-.41c3.8-1.26,5.92-5.24,8.48-8,6.1-6.58,18.81-2.25,16.4,7.16l1.34-.68c-5.84,0-9.79-.2-14.11,4.29-2.68,2.79-4.68,10.76-1.94,14.12.44.54,2.29-.15,1.79-.76Z"/><path class="cls-6" d="M54.51,391.66c-.43,5.88,4.93,5.4,9.18,4.37a75.69,75.69,0,0,0,9.44-3.36c4.74-1.85,9.72.8,14.63.63.59,0,2.1-.95.81-.9-6.15.21-10.94-2.34-16.84,0-4,1.58-15.92,7.34-15.3-1,0-.63-1.88-.22-1.92.3Z"/><path class="cls-6" d="M81.39,364.36c-.63,1.49.68,2.63.88,4.12L84.2,368c-1-1.32-2.48-3-1.67-4.69.73-1.55,3.14-2.37,4.62-3,2.72-1.24,8.47-3.8,9.45.64.1.42,2-.06,1.94-.51-1.05-4.74-7.63-2.34-10.59-1.19A24.46,24.46,0,0,0,82.23,362c-2.81,2.09-1.79,4,0,6.47.27.37,2,0,1.93-.52-.18-1.34-1.48-2.58-.91-3.94.14-.33-1.69-.15-1.9.34Z"/><path class="cls-6" d="M96.16,360a9.11,9.11,0,0,0,2.3,3.23c.4.41,2.23-.23,1.8-.71s-.84-1.23-1.34-1.79-2.19.16-1.81.71c1,1.38,2.28,2.43,3.08,3.93.31.59,2.16-.08,1.93-.51-.84-1.58-2.19-2.69-3.2-4.13l-1.81.71c.5.56.85,1.23,1.35,1.79l1.8-.71a8.4,8.4,0,0,1-2.17-3c-.22-.58-2.13,0-1.93.52Z"/><path class="cls-6" d="M82.18,391.82c-2.78-1.6-1.37-5.65-5.59-5.55a1.16,1.16,0,0,0-1,.62c-.63,1.7-.58,3.38-1,5.13l1.53-.75c-2.41-1.31-2.68-3.82-5.6-4.54a1.17,1.17,0,0,0-1.25.61c-.57,1.51-.75,3.45-1.68,4.74l1.7-.11c-2.57-3.09-5.71-3.53-5.45,1.39l1.31-.81-.48-.28a1.15,1.15,0,0,0-1.72.64,3.14,3.14,0,0,0,.55,2.62c.44.83,2.26.07,1.76-.88-.12-.62-.23-1.24-.35-1.86l-1.72.65a1.84,1.84,0,0,0,1.31.61c.45.05,1.34-.21,1.31-.81-.14-2.6.19-2.23,1.72-.4a1.15,1.15,0,0,0,1.7-.11c1.16-1.63,1.2-3.25,1.9-5.12l-1.25.62c2.39.58,3.09,3.3,5.15,4.41a1.15,1.15,0,0,0,1.53-.74,22,22,0,0,0,.32-2.81c.16-2.27,1.93,1.29,2,1.5a4.2,4.2,0,0,0,1.78,2.4c.79.45,2.45-.61,1.47-1.17Z"/><path class="cls-6" d="M80.43,392.23c-2.13,1-4.71,3-4.89,5.56-.09,1.31-.31,3.69,1.63,3.17,1.32-.35,1.87-1.59,2.4-2.74a14.5,14.5,0,0,0,1.5-5.18l-1.93.52c.7,2.85,2.45,12.23,7.24,9,2-1.34.75-3.64-.27-5.21-.83-1.29-2.39-3.69-4-4-.47-.08-2.24.69-1.23.87S83,396.3,83.57,397c.94,1.19,2.22,3,1.89,4.63-.39,1.92-2.64-2.71-2.85-3.24A44.5,44.5,0,0,1,81.07,393c-.13-.52-1.91,0-1.93.52a15.13,15.13,0,0,1-2.08,6.16,5.07,5.07,0,0,1-.36.54c-.45.6,1.27.37,1-.22a3.86,3.86,0,0,1-.18-1.62,6.29,6.29,0,0,1,4.08-5.84c1.17-.53-.64-.58-1.14-.35Z"/><path class="cls-6" d="M79.19,392.72c3.68,2.43,12.22,2,12,8,0,.23,1.91,0,1.93-.52.18-6.08-8.47-5.71-12.14-8.12-.44-.29-2,.5-1.83.63Z"/><path class="cls-6" d="M92.12,401.17a7.59,7.59,0,0,0,1,1.95,1.24,1.24,0,0,0,1.8-.33c.33-.66.71-1.56,0-2.13a3.87,3.87,0,0,0-2.38-.41,1.59,1.59,0,0,0-1,.27c-.17.11-.45.41-.34.65.24.51.12,1.06.52,1.5a1.27,1.27,0,0,0,1.69-.16,2.57,2.57,0,0,0,.63-2c0-.34-.29-.45-.63-.45h-.9c-.46,0-1,0-1.26.42s.18.58.57.58h.89c-.21,0-.42-.34-.63-.53,0,.47.08,1.09-.27,1.47l1.69-.15s-.17-.23-.12-.12a.43.43,0,0,1,0-.11c0,.08,0,.07,0,0a2.11,2.11,0,0,0-.23-1l-1.31.92c.33,0,.65,0,1,0l.39,0c-.14,0,.13,0,.17.05s0,0,0,.06a2.13,2.13,0,0,1-.29.88l1.8-.33a6,6,0,0,1-.81-1.64.93.93,0,0,0-1.13-.35c-.29.08-1,.45-.81.87Z"/><path class="cls-6" d="M82.3,393.35a5.64,5.64,0,0,0,2.75-3.11c.36-1-1.3-.75-1.71-.31a2.25,2.25,0,0,0-.63,1.22c-.13.9,1.45.48,1.77.14a3.25,3.25,0,0,0,.7-.94c.14-.33.32-.68.47-1l-1.73,0v.45a17.08,17.08,0,0,1,1.79-.19,1.3,1.3,0,0,0-.93-1.4c-.52-.11-1.69.11-1.57.86.07.48.35.86.42,1.34.12.8,2.05.33,1.93-.51-.07-.48-.39-.87-.46-1.35-.51.29-1,.58-1.54.86,0,0,.23.53.23.39,0,.94,2.13.59,2.13-.19v-.44c0-.91-1.8-.58-2.07,0a5,5,0,0,1-.87,1.64l1.72.14a1,1,0,0,1,.25-.57l-1.72-.31a4,4,0,0,1-1.74,2.26c-1.17.62-.11,1.49.81,1Z"/><path class="cls-6" d="M55.27,394.62c-2.19,1.78-2.44-5.53-2.43-5.77.09-2.12,1.57-4.39,2.56-6.19a20.81,20.81,0,0,1,7.52-8c3.52-2,9.18.27,13.08.13,1.12,0,1.46-1.54.15-1.49-5.17.18-10.67-2.45-15.35.87a27.86,27.86,0,0,0-9,11.65c-1.46,3.25-.88,14.31,4.74,9.75,1-.83-.52-1.59-1.3-.95Z"/><path class="cls-6" d="M122.23,389.39c1.37,4.58,1.74,9.38,3,14a50.37,50.37,0,0,1,1.63,18.8c-1,10.22-3.22,20.31-2.52,30.65s5.21,19.82,7.58,29.86a88.56,88.56,0,0,1,2.41,16.74c.13,3.72-.11,7.33,1.73,10.7.39.71,2.24,0,1.78-.82-2-3.62-1.29-7.59-1.62-11.51a135.52,135.52,0,0,0-2.36-15.63c-2.17-10.75-7.26-20.39-7.64-31.54-.38-11,2.29-21.56,2.89-32.42a51.66,51.66,0,0,0-1.95-15.34c-1.16-4.63-1.66-9.45-3-14-.25-.83-2.18-.31-1.93.52Z"/><path class="cls-6" d="M152.26,388.14c-.17,4.1,0,8.21-.17,12.31-.18,4.56-1.22,8.75-.86,13.34.39,4.84-.24,9.17-.43,14-.19,5,.62,9.92,1.31,14.89,1.59,11.42-1,22.76-2.82,34a220.23,220.23,0,0,0-3.42,34.27c0,.2.46.14.56.14h1.34c.58,0,2.1-.84.81-.84-2.59,0,2.34-32.14,2.92-35.71,1.69-10.21,3.77-20.33,2.75-30.74-.49-5-1.52-9.79-1.58-14.79s1.11-9.36.63-14.31c-.45-4.62.33-8.87.64-13.46s.06-9.05.26-13.58c0-.38-1.91-.1-1.94.52Z"/><path class="cls-6" d="M135.56,509.84c-.93,12.15-2.79,24.26-1.95,36.47.39,5.77,3.09,13,9.95,12.3s9.18-8.62,9.65-14.41c1-11.77-2.84-23.75-5-35.21-.14-.73-2.08-.26-1.93.52,1.59,8.6,3.71,17.09,4.66,25.8.72,6.68,1.35,16.42-4.65,21-5.55,4.26-8.7-2.12-9.93-5.9-1.39-4.29-1.15-9.08-1.08-13.53.14-9.13,1.48-18.21,2.18-27.3.07-.86-1.88-.5-1.94.22Z"/><path class="cls-6" d="M136.13,550.13c-1.41,2.67,3.63,4.88,5.45,5.71,3.14,1.43,5.62,0,8-2.1.48-.42-1.38-.25-1.76.08-1.28,1.13-2.33,2.12-4.14,1.46a20,20,0,0,1-3-1.63c-1.3-.74-3.57-2.07-2.65-3.83.2-.38-1.63-.22-1.91.31Z"/><path class="cls-6" d="M142.24,546.43c-.36-.81,0-1,1-.54a19.82,19.82,0,0,0,2.31.08,8.61,8.61,0,0,0,2.71-.55c.24-.08,1.31-.59.65-.9-3.54-1.63-7.1-1.59-10.92-1.95l-.48.94a45.2,45.2,0,0,0,8.08-3c.23-.12.5-.36.31-.62a5.81,5.81,0,0,0-3.18-2.21,21.7,21.7,0,0,0-2.1-.57c-.41-.1,4.71-2.44,5.4-2.6.3-.07,1.06-.39.78-.81A5.92,5.92,0,0,0,143,531c-2.62-.54,0-.91,1.4-1.82,3-1.94.74-3.34-1.74-4.12-.38.32-.77,1-1.16,1h2.24c.68,0,2.07-1,.77-1h-2.24c-.27,0-2,.64-1.16.9,2.73.86,3.81,1.78.79,3.56-.87.51-1.75,1-2.57,1.53-.5.35,0,.62.38.64,2.35.16,4,.8,5.31,2.71l.78-.81c-2.84.66-5.51,1.55-7.49,3.77-.24.26.07.44.29.5a11.85,11.85,0,0,1,5,2c.45.36-5.55,2.53-6.32,2.78-.3.1-1.43.85-.48.94,3.65.35,7.17.29,10.57,1.86l.66-.89c-3.62,1.16-7-.61-10.32,1.62-.19.12-.54.37-.31.62,1.45,1.58,3.15,1.05,5,.55,1.16-.31.92-1.19-.23-.89Z"/><path class="cls-6" d="M140.18,545.31c.13-3.38,4.15-4.79,6.2-7,.16-.17.06-.33-.11-.42a8.67,8.67,0,0,0-4.19-1.09c-1.44.22-1.71.15-.8-.22a44.46,44.46,0,0,1,4.8-3.26c.14-.08.57-.4.31-.6a5.72,5.72,0,0,0-2.45-1.37,18.41,18.41,0,0,0-2.56-.51c-.42-2.28.39-3.46,2.43-3.52.3-.09,1.06-.37.79-.79a6,6,0,0,0-2.81-2.45l-.93.91a7.78,7.78,0,0,0,3.43-1.19c.89-.59-.12-.79-.71-.66-2.14.46-4.82-1-6.54-2.09a7.93,7.93,0,0,1-1.4-1.25c-.88-.9-1.14-6.29,1.92-4.12,2.35,1.66,4,6.15,3.83,9,0,.73,1.79.28,1.93-.27a11.28,11.28,0,0,1,1.78-3.57,17.2,17.2,0,0,1,1.33-1.63c1.23-1.43,6.73-2.76,4.91.45-1.46,2.58-6.34,3.34-8.9,4.54-1,.48-.4,1,.48.77,4.92-1.45,12.78-2,13.7,4.59.08.57,2,.14,1.93-.51-.71-5.14-5.68-6.32-10.21-6a26.11,26.11,0,0,0-3.18.42c-1.7.35-2.37,1.48-.37.7a32.45,32.45,0,0,0,6.4-2.92c2.39-1.61,3.49-6-.87-5.37-4.16.58-7.93,4.8-8.93,8.76l1.93-.27c.14-3.06-3.94-14-8.62-9.49-2.5,2.43-2.14,4.76.53,6.88a11.84,11.84,0,0,0,4.89,2.16c1.77.35,4.86-.44,1,.1-.27,0-1.64.55-.92.92a4.52,4.52,0,0,1,2.56,2.31l.78-.79c-2.67.76-5.13,1.64-6.22,4.37-.05.13.07.26.19.3.75.24,6.57,2.12,6.06,2.38-1.84,1-3.45,2.55-5.15,3.73-.48.33,0,.63.37.62,0,0,6.51,0,4.33,1.81-.9.75-1.93,1.39-2.86,2.1a4.69,4.69,0,0,0-2,3.82c0,.72,1.9.3,1.92-.27Z"/><path class="cls-6" d="M144.24,525.79c2.75-.86,5.7,4.91,6.81,6.57,1.47,2.22,3.1,4.94,5.74,5.86.41.14,1.74-.09,1.76-.65,0-1.73.37-3.53-1-4.84-.31-.32-1.76,0-1.86.49-.26,1.2-.74,2.47.79,2.65.45,0,2.24-.73,1.23-.85-.85-.1-.2-1.7-.11-2.11l-1.86.49c1.26,1.25.88,3.09.84,4.69l1.75-.66c-5.46-1.91-7.34-14.51-14.31-12.33-1.11.35-.95,1,.18.69Z"/><path class="cls-6" d="M157.06,527.92a.43.43,0,0,0,.17-.16c-.18.15.16-.08,0,0a1,1,0,0,0-.59.62c-.08.26.21.44.4.51a1.64,1.64,0,0,0,.58.06c.39,0,1.28-.17,1.28-.74v-1.43c0-.94-2-.59-2,.18v1.43c1-.24,1-.49,1.39-.73-.14,0-.45-.09-.14,0l.42.52h0l-.34.47c-.37.25.16-.09.27-.18a1.11,1.11,0,0,0,.47-.74c.11-.92-1.85-.61-1.94.18Z"/><path class="cls-6" d="M137.37,512.27c-.79,1.13,3.72,1.32,4.11,1.32,2.35,0,5.15-.87,6.31-3.07.17-.32-1.64-.18-1.91.32-.88,1.67-2.57,2-4.31,1.91-.22,0-2.64-.3-2.29-.8.16-.24-1.58-.15-1.91.32Z"/><path class="cls-6" d="M124.92,446.65v.47c0,.15.22.24.32.26,6.57,1,11.83,2,18.46.83,3.75-.66,8.69-1.95,10.38-5.76.26-.57-1.66-.36-1.93.25-1.85,4.17-8.77,4.82-12.75,5.05-.45,0-12.6.05-12.6-1.62,0-.57-1.88-.21-1.88.52Z"/><path class="cls-6" d="M152,359.81c-3.82,2.49-3,9.64-2.64,13.46.37,4.43,1.42,12,6.26,13.89.68.26,2.26-.73,1.16-1.15-4.07-1.57-4.88-8.55-5.38-12.21-.41-3-1.42-11.18,1.83-13.3,1.1-.71-.55-1.13-1.23-.69Z"/><path class="cls-6" d="M93.75,193c4,6.51,6.13,13.74,9,20.75,3.2,8,6.24,16,6.84,24.61,0,.63,2,.23,1.93-.52-.64-9.27-4.09-17.75-7.51-26.28-2.63-6.56-4.71-13.22-8.41-19.31-.34-.55-2.22.07-1.8.75Z"/><path class="cls-6" d="M190.64,188.66c-2.69,2.77-3.55,7.15-4.47,10.77-1.75,6.9-4.28,13.21-4.47,20.44,0,1,1.93.65,2-.17.17-6.33,2.28-11.48,3.76-17.52,1-4.25,1.68-9.76,4.83-13,.84-.87-1-1.09-1.6-.51Z"/><path class="cls-6" d="M110.42,241c-2.12,6.1-2.56,12.31-3.44,18.65-.84,6.05-1.94,12.12-2,18.24,0,1,1.94.69,2-.15a133.59,133.59,0,0,1,1.84-16.8c1-6.68,1.3-13.31,3.53-19.74.36-1-1.57-1-1.84-.2Z"/><path class="cls-6" d="M173.37,244.24c.16,4.17,1.24,8.26,1.94,12.36.91,5.34.19,11,.15,16.43,0,.34,1.92.06,1.93-.52,0-5.43.63-11-.15-16.42-.59-4.14-1.77-8.18-1.94-12.37,0-.36-2,0-1.93.52Z"/><path class="cls-6" d="M110.12,274.2a55,55,0,0,0-12.29,15.51c-2.2,4.24-3.29,9.12-4.78,13.63-1.89,5.75-4.31,11.81-9.07,15.8s-15,4.2-20.29,1.5c-.48-.25-2.34.32-1.64.93,2.76,2.4,5.41,5.53,2.65,9.24-1.39,1.87-3.55,3-5,4.93-1.23,1.65-1.82,4.63-.12,6.14,2.86,2.55,16.07-3,15.91,1.75-.12,3.34-4,4.47-1.39,8,1.35,1.82,5.8,1.77,7.73,1.39,2.69-.52,10.36-3.69,11.36.37.32,1.3.73,3.18,1.87,4.07a6.76,6.76,0,0,0,4.65,1.36c4.48,0,5.36,1.54,7.36,4.86.41.67,2.26,0,1.78-.82-2-3.37-3.08-5-7.21-5.34-3.57-.27-5.82-1.8-6.69-5.34a2.43,2.43,0,0,0-1.39-1.76c-4.43-1.46-9,1.35-13.44,1.37-4.67,0-5.7-2.92-3.48-6.54a3.67,3.67,0,0,0,.5-3.59c-1.61-4-11.34-.23-14.08-.26-3.78,0-2.54-4.18-1.08-6.13s3.54-3,4.95-4.93c2.83-3.79-.26-7.11-3.14-9.61l-1.64.93c9.47,4.83,22.08,1.41,27.81-7.2,3.36-5.05,5-11.23,6.79-16.95a50.12,50.12,0,0,1,14.93-22.86c.87-.79-1-1-1.6-.48Z"/><path class="cls-6" d="M81.31,331.33c7.77-3.23,17-13,14.72-22.11-.16-.64-1.23-.5-1.6-.18-2.11,1.81-2.76,4.31-3.39,6.92-1.2,5-3.66,9.44-5.24,14.27-.33,1,1.29,1,1.73.39,3.51-4.62,4.92-10.36,8.34-15l-1.78-.21c.38,6.21-6.17,10.18-6.68,16.27-.08.94,1.41.64,1.79.21.85-1,1.65-2,2.5-2.92s-1-1.22-1.61-.57c-.86,1-1.66,2-2.51,2.92l1.79.21c.5-6.09,7.06-10,6.67-16.27-.05-.87-1.37-.77-1.78-.21-3.43,4.66-4.84,10.4-8.35,15l1.73.39c1.31-4,3.18-7.74,4.59-11.68,1.06-2.95.9-6.64,3.48-8.85l-1.61-.18c2.11,8.37-6.49,17.49-13.65,20.45-1.22.51-.13,1.55.86,1.14Z"/><path class="cls-6" d="M91.67,327.42a33.23,33.23,0,0,0-3,7.64c-.19.65,1.75.37,1.93-.26a31.7,31.7,0,0,1,2.85-7.37c.44-.76-1.49-.53-1.79,0Z"/><path class="cls-6" d="M124.83,129.72c-3.39-.45-4.41,2.29-3.53,5.13a15.54,15.54,0,0,1,.71,6.24c-.11,1.62.8,2.43,2.22,2.94.72.26,2.27-.78,1.14-1.18-2.35-.84-1-3.22-1.21-4.95-.11-1.05-2.67-7.27,0-6.92.85.11,2-1.09.71-1.26Z"/><path class="cls-6" d="M163.44,130.93c.06,4.06.81,8.09-.65,12-.21.56,1.7.32,1.92-.27,1.5-4,.72-8.09.66-12.23,0-.52-1.94-.17-1.93.51Z"/><path class="cls-6" d="M143.2,111.79c-5.63,2.72,8.27,9,7.89,2.48-.24-4-5.52-.21-5.49,2.42.05,5.08,7.47,1.48,8.9-.76l-1.86.15c-.78,3.26,3.53,9.85,6.44,5.41l-1.79.38a15.1,15.1,0,0,0,3.27,3.93c.5.37,2.25-.39,1.8-.72a15.3,15.3,0,0,1-3.27-3.93c-.3-.44-1.57,0-1.79.37-.58.88-2.15-2.08-2.14-2.06a5.19,5.19,0,0,1-.59-3.65c.16-.68-1.63-.2-1.85.15-1.34,2.09-5.77,3.31-5.07-.32.77-4,2.56.56.53.37-1.11-.11-6.44-2.5-3.81-3.77,1.16-.56-.6-.72-1.17-.45Z"/><path class="cls-6" d="M138.25,114.66c-3.58-.12-4.7,2.73-2.56,5.61,1.95,2.62,7.6,1.24,9.48-.69,2.11-2.18-.8-4.76-3.17-4.52-3.08.31-3.17,4-2.41,6.24,1.13,3.3,4.79,3.62,7.5,2.33a6,6,0,0,0,3.23-3.85c.28-1.07-1.35-2.1-2.24-1.83-2.94.89-3.35,5.17-.78,6.91,3.08,2.08,6.76,1.33,8.53-2l-1.88.19c.24,4.29,5,4.87,8.47,5,.83,0,2-1.22.7-1.26-3-.07-7-.41-7.24-4.21,0-.79-1.66-.22-1.88.19-2.27,4.27-5.59,1.33-6.36-.86-2.27,1.65-4.08,1.66-5.45,0a4.81,4.81,0,0,1-.9-1.81c-.28-.82-.56-5.32,2.33-2.78.11,2.77-1.5,3.72-4.81,2.86-2.46-1.1-2.89-2.51-1.27-4.25.84,0,2-1.21.71-1.26Z"/><path class="cls-6" d="M152.94,135.8c.84-1.91,4.08-.93,5.64-.66.64.11,2.29-.89,1.18-1.08-2.84-.48-7.29-1.35-8.76,2-.28.62,1.65.41,1.94-.23Z"/><path class="cls-6" d="M151.33,136.5c.07,1,1.51.64,2.09.45a2,2,0,0,0,1.48-2.28c0-.12-.27-.12-.34-.12-1.19-.08-4.28.64-2.82,2.37.55.66,1.41.48,2.14.25,1-.34,1.26-1.19,1.35-2.17,0-.11-.3-.13-.34-.12A3.49,3.49,0,0,0,152,136c-.62,1,.89,1.25,1.44,1.27.32,0,1.44-.17,1.44-.64v-.33s.12-.05.1-.07a5.67,5.67,0,0,0-2.38-.38c-.32,0-1.72.15-1.72.64v.33s.24,0,.26.06c.22.11.54.22.76.33s2.2-.32,1.87-.65a5.07,5.07,0,0,0-1.28-1l-1.53.7c.66.05,1.3.29,2,.33l.82-.72a4.09,4.09,0,0,0-.71.17c-.21.07-1.08.3-.27.16-.14,0-1.42.37-1.1.66,1.41,1.28,4.45.27,3.52-1.89-.18-.42-1.93.07-1.94.52a1.22,1.22,0,0,1-.31.89c-.09.12.1.18.16.19a2.64,2.64,0,0,0,3.38-1.52c.16-.44-1.37,0-1.5.06-.75.35-1.1.46-1.38,1.27l1.91-.43c0-.3.21-.48-.16-.32l-1,.26a3.92,3.92,0,0,0,.53.05,2.66,2.66,0,0,0,1.37-.37c.31-.19.25-.38-.11-.4-1.06,0-2.54-.06-2.58,1.3,0,.32,1.79-.06,1.92-.44,0-.13.09-.26.14-.39.12-.32.28-.23-.25,0,.23-.09.46-.16.69-.27l-1.5.06a4.13,4.13,0,0,1-.3.68c-.3.35,0,.3.79-.14a1.64,1.64,0,0,1-.38-.1l.15.19a1.51,1.51,0,0,0,.35-1.06l-1.94.52a1.82,1.82,0,0,1,.18,1.12c-.15.69-.57-.13.76.08a1.57,1.57,0,0,1-.69-.48l-1.1.67a4.32,4.32,0,0,0,.71-.17c.21-.08,1.08-.3.27-.16.25,0,1.75-.66.82-.72-.67-.05-1.3-.29-2-.33a2.55,2.55,0,0,0-1.18.27c-.06,0-.61.3-.36.44a5.22,5.22,0,0,1,1.31,1l1.82-.65c-.38-.19-.6-.18-.6-.59l-1.59.64c.49,0,1.62-.14,1.62.53l1.6-.64c-.38,0-.81-.07-1-.45a.42.42,0,0,1,0-.31c.1-.37.43-.14-.27-.11l-.34-.12a2.84,2.84,0,0,1-.38,1.36c-.16.24,1.51,0,.94-.33a1.1,1.1,0,0,1-.29-.28,1.31,1.31,0,0,1-.25-.77.65.65,0,0,1,.13-.35c-.12.18-.84.11-.14.16l-.33-.12a1.65,1.65,0,0,1-.27,1.35c-.36.4,1.12.09.68-.22-.1-.07-.11-.23-.12-.34,0-.33-2,0-1.93.52Z"/><path class="cls-6" d="M151.76,132.14c1.75-1.62,3.92-1.78,6.16-1.27.61.14,2.28-.8,1.19-1a9.68,9.68,0,0,0-8.9,2c-.82.76,1.09.73,1.55.31Z"/><path class="cls-6" d="M141.39,135.57c-2.44-1-5.89-2.86-8.51-1.56-1.19.58-.13,1.68.87,1.19s2.56.2,3.51.52,2,.78,3,1.19c.85.34,2.25-.87,1.1-1.34Z"/><path class="cls-6" d="M136.09,135a3.84,3.84,0,0,1,4.11,2.16l1.88-.59a8.5,8.5,0,0,0-4.22-1.39c-.3,0-1.68.16-1.59.67.16.89.57,1.71,1.55,1.84a4,4,0,0,0,2.7-.78c.38-.29,1-.89.67-1.4-.48-.79-2.11-.43-2.8-.3-.25,0-1.06.2-1.12.55-.35,1.81,1.3,2.15,2.74,1.86.17,0,1.29-.29,1.14-.65-.57-1.4-2.14-1.38-3.41-1.11-.19,0-1.26.27-1.14.65.62,1.91,3.68,1.22,4.21-.42.07-.21-.19-.25-.33-.26-.56,0-1.07-.28-1.64-.33-.2,0-2,.41-1.53.76a1.94,1.94,0,0,0,1.27.41,2.44,2.44,0,0,0,1.37-.37c.3-.2.26-.46-.13-.47a.8.8,0,0,1-.69-.25l-1.53.76c.56,0,1.07.28,1.64.33l-.34-.26a1.46,1.46,0,0,1-.16.41q.85.08.3-.09a1.19,1.19,0,0,1-.51-.74l-1.13.65a1.42,1.42,0,0,1,1.82.85l1.14-.65c-.94.19-1.34-.59-1.18-1.41l-1.13.55c.63-.12,1.82-.06,1,.79,0,0-.22.17-.19.16.3-.12.36,0,.07-.16a1.94,1.94,0,0,1-.72-1.43l-1.59.67a7.43,7.43,0,0,1,3.64,1.23c.3.19,2.11-.16,1.87-.59-1.2-2.27-3.31-2.73-5.7-2.42-.33,0-1,.2-1.13.55s.67.24.79.22Z"/><path class="cls-6" d="M142.36,131.21c-.08,0-1.37-1.07-1.6-1.23a4.68,4.68,0,0,0-1.48-.48,21.58,21.58,0,0,0-4.93-.65c-.68,0-2.07,1-.77,1,2,0,4.54.2,6.21,1.44a3.12,3.12,0,0,0,2.81.78c1.17-.25.91-1.14-.24-.89Z"/></svg>