<svg id="layer1" xmlns="http://www.w3.org/2000/svg" viewBox="0 0 148.11 153.37"><defs><style>.cls-1{fill:#088720;}.cls-2{fill:#492d0c;}</style></defs><path class="cls-1" d="M81.51,74.79c.81,1.56,27.43,7.69,36.91,48,.85,3.61,2.22,9.39.9,13,1.87-1.23,3.39-1.09,5.54-.49-2.61-39.48-35.37-58.52-40.19-59.45Z"/><path class="cls-2" d="M80.61,75.16c.93,1.3,3.89,2,5.25,2.75a54.77,54.77,0,0,1,12.26,8.8,63.46,63.46,0,0,1,13.46,19.08,87,87,0,0,1,5.06,14c1.4,5,3.12,10.89,1.72,16.07-.19.7,1.34.23,1.55.13l4.36-.25c.43.1,1.61-.15,1.56-.76-1.94-25.27-18.39-52.63-43.55-60.64-.55-.18-2.3.66-1.54.9,25,8,41.24,35.17,43.16,60.26l1.56-.76a8.84,8.84,0,0,0-6.73.73l1.56.13c2.42-9-2.67-20.94-6.21-29.08a65.36,65.36,0,0,0-12.82-19.23A55,55,0,0,0,88.87,77.8c-1.6-.91-5.36-1.85-6.46-3.38C82.06,73.92,80.19,74.56,80.61,75.16Z"/><path class="cls-1" d="M75,61.11C80.46,48.27,80.09,41,81,30.8c.91-9.08-3.78-18.51-15.74-9.54-3.78,2.93-8.75,5.34-14,4.53C47.14,25.38,44.44,24.07,40,27c-4.23,2.55-4.6,6.08-4.11,9.89.33,5.46,2.79,8.2,6.36,12.26a53.24,53.24,0,0,0,10.89,8.7c1.27.88,10.75,7.18,12.09,8.3l-.6-.24C50.14,58.63,43.86,53.41,34.24,54.06,25,54.68,18.65,67.73,24.14,75c2.54,3.4,5.84,7.39,6.64,11.71.9,3.72-1.11,7.94.46,11.39,4.94,10.83,16.63,6.69,22.27-.13,5.84-7.05,9.29-10.71,15-18.17l.3,0c-7.17,11.7-14.46,20.62-15.18,30.84-.29,4.09,2.5,10.4,7.26,13,5.32,3,11.7-.18,14.79-4.19,4.13-5.35,4.68-3.23,10.87-2.7,5,.76,11.13-.91,13.47-5.92,3.21-7.46.27-15.17-4.85-21-1.43-1.44-11.75-12.51-13.49-15v-.15c12.67,5.83,22.61,5.69,32.43,3C123.52,75,128.75,63,121.85,57.05c-3.19-2.8-7.28-6-8.84-10.09-1.56-3.46-.6-7.77-2.42-11.09-6.46-11.82-18.76-5.69-23.42,2.2-4.44,7.52-5.39,13.7-11.89,23.72Z"/><path class="cls-2" d="M76,61a73.36,73.36,0,0,0,5.25-20.89c.59-5.93,1.88-12.64-.4-18.33-1.49-3.74-4.92-4.81-8.59-4.28a17.42,17.42,0,0,0-6.18,2.7c-2.66,1.61-4.56,3.31-7.57,4.54-3.57,1.46-7.22.59-10.8.12a13,13,0,0,0-11.63,5.06c-3.43,4.49-.53,12.2,2.33,16.09,6.7,9.13,17.24,13.65,25.92,20.49l1.7-.72c-9.35-3.84-17.45-11-27.8-12.06C30.83,52.91,24.78,56.94,22,63.76a12.28,12.28,0,0,0,1.14,11.46c4,5.9,7.37,10,6.61,17.51-.88,8.68,6.7,14.34,14.79,11.68,9.52-3.13,15.6-13.18,21.59-20.64l1-1.28q2.34-2.19-.4-.93c-1,1.6-2,3.17-3,4.76-1.89,2.92-3.77,5.85-5.54,8.85-3,5.06-5.55,10.75-5.6,16.73-.08,9.8,9.73,15.37,18.11,12,4.12-1.67,6.83-8.13,11.5-7.24,3.63.68,7.53,1.17,11.11,0,11.91-4,10-17.39,3.83-25.79a91.7,91.7,0,0,0-6.59-7.21q-2.29-2.49-4.54-5c-.77-.85-3.36-3-3.44-4.23l-1.87.59c11.3,5,25.88,7.43,37.37,1.36a15.4,15.4,0,0,0,7.85-11.76c.87-7.32-8.08-11.11-11.36-16.51-2-3.32-1.49-7.51-2.46-11.13-.76-2.87-3.41-5.42-5.86-6.88-3.11-1.85-7.48-1.34-10.65.06-5,2.21-8.23,5.89-10.76,10.62-3.75,7-6.23,14.47-10.53,21.25l1.92-.42c-.08-.23-.17-.45-.26-.68-.19-.48-2.09.13-1.93.52.08.23.17.45.26.68.21.52,1.72-.1,1.92-.43C81.45,53.37,83.8,43,89.94,35.37c4-5,10.93-7.53,16.4-3.41,5.18,3.91,3.79,9.91,5.7,15.26,1.52,4.25,5.63,7.32,8.9,10.17,4,3.43,3.59,8.62,1.46,12.93-3.31,6.69-11.15,8.08-17.88,8.6-7.63.59-15.09-1.6-22-4.64-.37-.17-1.91,0-1.88.59.11,1.75,3.91,4.79,5,6q3.93,4.4,8,8.66c4.71,4.95,7.42,11.38,6.37,18.24-1,6.33-6.55,9.24-12.9,8.55-2-.21-3.9-.7-5.87-.86a6.52,6.52,0,0,0-4.81,2.06c-4.29,3.9-8.1,10-15.84,5-2.66-1.71-4.27-4.77-5.36-7.63-2.15-5.67.78-12.22,3.31-17.26,3.18-6.32,7.45-12.1,11.17-18.1.16-.25-.46-.24-.54-.24-3,.19-5,4.87-6.7,7-3.66,4.49-7.32,9.23-11.39,13.36-6.13,6.21-14.86,6-18.89-1.84-1.29-2.51-.42-5.86-.23-8.52.21-3-1.06-5.84-2.5-8.41-2.59-4.64-6.43-7.53-6.4-13.21,0-6.93,5.85-13.27,12.79-13.24,10.44,0,19.33,8.29,28.55,12.08.33.14,2.08-.42,1.7-.72-6.31-5-13.59-8.61-19.67-13.86-4.76-4.12-9-8.88-9.61-15.33-.42-4.12.31-7.1,3.88-9.59,4-2.8,7.64-.59,11.7-.66A22.57,22.57,0,0,0,63.61,23c4-2.32,8.34-7,13.11-3.68,1.89,1.3,2.63,3.87,3.11,6,1.09,4.8-.12,10.46-.54,15.3a69.94,69.94,0,0,1-5.23,20.7C73.91,61.65,75.76,61.46,76,61Z"/></svg>