<svg id="layer1" xmlns="http://www.w3.org/2000/svg" viewBox="0 0 270.87 265.38"><defs><style>.cls-1{fill:#b7b1ac;}.cls-2{fill:#492d0c;}</style></defs><path class="cls-1" d="M95.72,163.64A16.89,16.89,0,0,0,90.4,166l-2.49-3.32c-.58-.78-4.29-.86-4.73.08a35.93,35.93,0,0,0-1.52,3.78,24.92,24.92,0,0,1-2.86-5c-.36-.9-4.74-1.06-4.82-.09a31.57,31.57,0,0,1-.65,3.89c-2-3.06-3.58-6.05-3.73-10.37,0-.84-3.69-1-4.61-.38a23.83,23.83,0,0,1-.56-3.38c.25.37.49.74.75,1.1.54.75,4.49-2,4-2.67a48,48,0,0,1-7.88-18.4c-.07-.33-4.28,1.43-4,2.68a54.58,54.58,0,0,0,2.07,7.31,8.39,8.39,0,0,0-2.87,0c0-1.09,0-2.2,0-3.33,0-.94-4.81-1-4.81-.09,0,6.29.37,11.95,4,17.25.26.38,1.88.64,3.11.6a4.79,4.79,0,0,0,.89,1.84h-.13s0,.12.08.18c.14.29.87.47,1.72.54a79.84,79.84,0,0,0,3.53,7.36c.28.53,2.62.7,3.9.43l.22.3C71.09,169,71.64,170,75.06,170c.38,0,2.36.08,2.42-.58s.13-1.13.23-1.69c1,1.43,2,2.86,2.92,4.4.41.71,4.68.83,4.74-.08a21.06,21.06,0,0,1,1-5l.87,1.15c.64.85,3.58.66,4.39.23,2.35-1.24,4.88-3.33,7.51-3.83C101.24,164.18,96.57,163.48,95.72,163.64ZM61.2,149a34.12,34.12,0,0,1-.71-5,44.52,44.52,0,0,0,2.59,5.05A9,9,0,0,0,61.2,149Z"/><path class="cls-1" d="M125.4,154.73a47.8,47.8,0,0,1-3.31-15.87c-.06-2.46-3.16-2.34-4.27-.71-.57-.79-1.11-1.59-1.66-2.4-.42-.63-.52-1.23-.65-1.1a1.88,1.88,0,0,0-.73-1.23l-.17-.15a2.22,2.22,0,0,0-2.44-.17c-1.21-.16-3.54.22-3.93,1.07-1.3,2.86.07,5.57,2.73,7a3.72,3.72,0,0,0,2.63,0c1.63,2,3.51,3.88,4.5,4.92a67.78,67.78,0,0,0,6.24,18c1.09,2.24,4.23.19,4.32-1.63.13-2.71,1.13-5.19,1.31-7.89S126,152.4,125.4,154.73Z"/><path class="cls-1" d="M184.3,76.62a8.6,8.6,0,0,0-1.2.87c-.37-.73-.73-1.47-1.09-2.18-.93-1.85-3.83-2-3.94.38a35.37,35.37,0,0,1-.45,4l-.87-1.74c-.93-1.86-3.82-2-3.93.39a40,40,0,0,1-1.74,8.2c-1.72-2.13-3.54-4.18-4.6-6.71-.78-1.88-4.12-3.14-4.18-.18,0,2.14.17,4.44-1.73,5.77a9.27,9.27,0,0,0-1.25,1L157,81.88c-.93-1.86-3.83-2-3.94.38a36.85,36.85,0,0,1-2,9.44,31.71,31.71,0,0,1-1.43-5.41c0-.66-.11-1.31-.21-2-.35-2.3-4.44-3.87-4.28-.74a20.65,20.65,0,0,0,.21,2.11,29.74,29.74,0,0,1-1.36,9.93,5,5,0,0,0-4.06-.69l-.43-.42a2.59,2.59,0,0,0-1.53-.78c-.06-.11-.14-.22-.2-.33-.46-.88-1.88-1.16-2.76-1.26-.31,0-2.33-.09-1.88.77,1.66,3.14,4.27,5.66,6.76,8.15a5.56,5.56,0,0,0,2.86,1.09c.47.31,1,.61,1.48.89a1.74,1.74,0,0,0,2.52-1.1c.64-1.88,1.24-3.74,1.73-5.6.25.75.49,1.5.7,2.26.52,1.87,3.39,3,4.15.71,1.08-3.25,2.24-6.56,3-9.93l.95,1.89c.63,1.27,2.86,2.19,3.72.64,1-1.83,2.53-2.46,3.85-4a5.63,5.63,0,0,0,1.13-2.15,26.48,26.48,0,0,1,4.2,6.22c.81,1.94,4,3.09,4.18.18a35,35,0,0,1,1.5-7.15l1.13,2.27c.93,1.86,3.83,2,3.94-.38a40.24,40.24,0,0,1,.58-4.78,3.26,3.26,0,0,0,1.62.82c1.93.34,2.1-1.41,3.4-2.23C188.92,79.33,186.34,75.34,184.3,76.62Z"/><path class="cls-1" d="M106.69,42.47H94.86A2.09,2.09,0,0,0,93.12,46c-.9,1-1.15,2.46.43,3,1.86.63,3.66,1.28,5.48,1.79a1.56,1.56,0,0,0,.16.79c.67,1.42,2,1.54,3.41,1.55a2.21,2.21,0,0,0,2.09-1.18c.39-.09.78-.16,1.18-.24,2.66-.55,2.07-3.87-.5-3.93a12.81,12.81,0,0,1-1.39-.11,30.39,30.39,0,0,0,3.79-1.48C110,45.1,108.82,42.47,106.69,42.47Z"/><path class="cls-1" d="M207.2,46.28a45.78,45.78,0,0,0-8.62-9.15v-.35c0-2.13-4.24-3.21-4.72-.82-.14.69-.36,1.39-.5,2.09-.61-1-1.22-2-1.76-3.1a3.26,3.26,0,0,0-2.93-1.62c-.33-.78-.68-1.55-1-2.32-.71-1.52-4-2.71-4.43-.31-.07.45-.15.89-.22,1.34a2,2,0,0,0-2.38,1.21c-.3-.31-.59-.62-.9-.93-1-1-.84.23-.56.92a9.09,9.09,0,0,1,1,4.52,2.63,2.63,0,0,0-2.19-.49l-1.52-1.36c-.82-.74-1.63-1.48-2.43-2.24a6.94,6.94,0,0,0-.82-1.35l-3.94-3.94c-1.55-1.54,0,2.08.35,2.53s.6.8.91,1.18a2.94,2.94,0,0,0-.85.06c-1.41-.12-2.89.53-2.05,2.17-8.72-.92-17.47-.4-26.21-.14a11.82,11.82,0,0,0-3-.71h-21c-2.9,0,.69,1.11,1.65,1.25a96,96,0,0,0,10.41.8,85.64,85.64,0,0,1-15.67,1.74l-.56-.7c.66-.17,1.08-.34.75-.39a122.15,122.15,0,0,0-15.53-.93.57.57,0,0,1-.48.23H97a28.21,28.21,0,0,0-2.5-2.31c-1-.92-4.67-.44-4.63-.39,1,1,2.1,1.7,3.21,2.7h-4.5c-.66,0-5.29.6-3.3.65,1.14,0,2.25,0,3.35.14-1.42,0-3.61,1-4,.84A30.69,30.69,0,0,0,97,38.75,35.26,35.26,0,0,0,104,40c3.51,1,8,1.87,11.36,1.16.42-.09.46-.34.09-.56a3.78,3.78,0,0,0-.4-.22c4.71,0,9.39-.37,14.16-.45,2.15,0-2.06-1.34-2.72-1.37-1.21,0-2.41-.14-3.6-.28a84.9,84.9,0,0,0,15.65-2.8c9.89-.21,19.79-.91,29.64.07l.27.49c-.23,0-.26.28.13,1.13a31.2,31.2,0,0,1,1.92,6c-.65.58-.76,1.58.34,2.67.08.09.17.16.25.24s.07.42.11.63a1.54,1.54,0,0,0-1,2.2l-.32-.58c-.71-1.41-1.47-2.77-2.31-4.11-1.47-2.37-2.51-1.73-1,.63s2.55,4.57,4,6.63c-.33.89-.66,1.81-1,2.75a8.31,8.31,0,0,1-1.47-2c-.63-1.19-5.27-.85-4.66.3,1.24,2.35,3.42,3.48,5.25,5.26a.1.1,0,0,1,0,0,9.15,9.15,0,0,0,0,2.28c.44,3.36,1.83,7.16,2.63,10.52.53,2.26,4.57,3.29,4.57.3,0-.29,0-.59,0-.88a1.72,1.72,0,0,0,.75-.41,21,21,0,0,0,1.86,3c.84,1.08,3.16,1.89,4,.3a3.11,3.11,0,0,0-.19-2.49,2.27,2.27,0,0,0-1.28-1.36c-1.32-2.23-2.31-4.68-4-6.71A3.15,3.15,0,0,0,173.7,61a12.32,12.32,0,0,1,.52-5.53l.25.2c.33.24.62.11.52-.33v0c1.27,1.33,2.65,2.55,3.78,3.69s3.45.58,3.8-.66a1.92,1.92,0,0,0,2.57-1.81c0-1.35.24-2.67-.56-3.75a1.34,1.34,0,0,0,.56-1.51c-.38-2.16-.2-4.35-.6-6.48a7.81,7.81,0,0,0-.25-.95,20,20,0,0,0,.53-2.53,2,2,0,0,0,.84-.22c.79,1,1.56,1.95,2.28,3,.18.26,1.61,2,1.52.76,0-.6-.11-1.46-.09-2.31a2,2,0,0,0,1.82-.38c.51.66,1,1.31,1.63,1.94,1,1.1,3.7,2,4.14-.19a2,2,0,0,0,.05-.26A26.93,26.93,0,0,1,201.08,48c1.95,2.7,1.37-.27.33-1.71a36.19,36.19,0,0,0-4-4.61c0-.13.05-.25.08-.38A34.14,34.14,0,0,1,203.4,48C204.9,50.15,209,48.86,207.2,46.28Zm-118-10c.77.11,1.55.24,2.31.41s1.3.58,2,.85C92.06,37.18,90.64,36.71,89.22,36.24Zm18.17,2.38c-1.16-.09-1.59.05-1.58.26a30.69,30.69,0,0,1-3.14-.65c-.29-.11-.57-.23-.85-.36.39-.14.69-.28.51-.34-.66-.22-1.31-.42-2-.62,2.64.14,5.29.18,8,.2a14.31,14.31,0,0,0,1.88,1.82C109.21,38.78,108.25,38.68,107.39,38.62Zm9.37.44c.23-.21-.66-.23-1.4-.21-.16-.11-.31-.24-.46-.36a5.3,5.3,0,0,0,.72.14c1.23,0,2.46.15,3.68.29Z"/><path class="cls-1" d="M207.67,64.08a3.91,3.91,0,0,0-2.16-1.76,5,5,0,0,0-1.75-2.22c-.53-.38-1.67-.83-1.63.25a6.6,6.6,0,0,0,2.17,4.13,5.21,5.21,0,0,0,3.49,1.69c.37,0,.47-.43.45-.69A3.13,3.13,0,0,0,207.67,64.08Z"/><path class="cls-1" d="M209.13,62.2c.32,0,1.37,4,2.62,4C211.43,66.25,210.38,62.2,209.13,62.2Z"/><path class="cls-1" d="M250.74,111.23c-.12-.74-3.71-1.75-4.29-2l-.08,0a14.73,14.73,0,0,1-.28,2c-.6-.85-1.51-1.72-1.51-2.63v-7.88c0-.31-.93-.7-1.78-1-.28-2.65-.8-5.27-1.33-7.87a1.85,1.85,0,0,0,.23-1.07,39.09,39.09,0,0,0-7.8-22.08,71.12,71.12,0,0,0-4.44-7.89c-1-1.51-4.48-1.88-4.22.62a12,12,0,0,0,.26,1.52,1.56,1.56,0,0,0-.15,1.65c1.6,4.13,4.33,7.42,6.83,11a2.49,2.49,0,0,0,1.07.85,1.63,1.63,0,0,0-.09.45c-1.38-.5-2.94-.13-2.67,1.59.5,3,1,6.1,1.42,9.15-.17-.57-.33-1.15-.49-1.72a55.09,55.09,0,0,0-1.71-7.54c-.59-1.9-4.44-2.47-4.51-.33a1.65,1.65,0,0,0-1.28,1.75c0,6.06,0,12.11-.3,18.16-1-4.35-1.92-8.71-3.11-13-.6-2.15-4.48-2.52-4.48.11a123.84,123.84,0,0,1-.88,18c-.45-1.73-.82-3.47-1.13-5.23a92.87,92.87,0,0,0-1.28-15,3,3,0,0,0-2.56-2.24c0-.13-.05-.26-.07-.39-.4-2.37-4.59-3.43-4.59-.43,0,1.51.3,3.66.27,5.56a35,35,0,0,1-3.12-11.12c0-.77,0-1.56,0-2.34a12.07,12.07,0,0,0,1.21.55c1,.39.14-1,0-1.24a7.22,7.22,0,0,0-1.28-1.25c-.07-1-.18-1.91-.34-2.87A2.9,2.9,0,0,0,200,64.89a10.1,10.1,0,0,1,.45-3c.39-1.32-3.48-3.56-3.59-3.21a10.84,10.84,0,0,0,.82,8.3c0,1.93.12,3.85.32,5.76-1.1-1.6-4.39-2.16-4.27.47,0,.74.1,1.47.19,2.2-1.16-.5-2.84-.51-3,1-.3,2.57,3.31,5.8,4.91,7.51l.18.17.48,1.48c.59,1.77,3.89,2.7,4.44.42.07-.25.12-.51.18-.76a30.74,30.74,0,0,0,3.53,6.11c.64.86,2.1,1.65,3.18,1.13.58,3.21,1.16,6.43,1.7,9.65a2.7,2.7,0,0,0,1.38,1.83,63.9,63.9,0,0,0,2.68,7.9c.72,1.75,3.74,2.71,4.44.43a56.5,56.5,0,0,0,2.07-10.4c.79,3.35,1.64,6.69,2.69,10,.52,1.64,4.16,2.82,4.44.43.33-2.8.57-5.6.76-8.4.11.2.2.4.31.6,1,1.77,4.22,1.72,4.22-.62,0-1,0-1.93,0-2.9.26.57.52,1.13.79,1.69.81,1.65,3.9,2.59,4.4.55.26.64.52,1.28.79,1.92-.24,4-1.12,8-1.25,12,0,.74,3.83,1.81,4.32,2l0,0c.5-2.73.81-5.49,1.12-8.25.85,1.2,1.7,2.41,2.44,3.7a5,5,0,0,0,1.62.92c0,.65-.09,1.3-.15,2A14,14,0,0,0,243,116l-.55-.25a37.52,37.52,0,0,1-1.2,8c.08-.69.18-1.37.32-2.06s-4.3-2.2-4.37-2a60.91,60.91,0,0,0-3.37,13.33l-.58-.18c-.08.46-.18.92-.27,1.38a14.22,14.22,0,0,0-3.67-1.38c-.3.79-.57,1.59-.84,2.39-1.16-.49-2.73-.94-3-1.05l-.06,0a55.25,55.25,0,0,1-1.27,5.56,4.13,4.13,0,0,0-1.16-.34,48.79,48.79,0,0,0-1-6.41,2.17,2.17,0,0,0-2.24-1.53h-3.95a2.62,2.62,0,0,0-2.17,1.72c-.5-.39-1-.73-1.46-1.1-1.55-1.25-3.9.1-4,2-.15,3.88-1.1,7.64-1.44,11.43-.44.7-1,1.56-1.46,2.47a8.38,8.38,0,0,0-2.05-.53,2.68,2.68,0,0,0-2.63,1.31,11.92,11.92,0,0,0-1.27,2.52,9,9,0,0,0-2.67-1.2c-1.5-.39-2.82,1.07-2.94,2.42a38.61,38.61,0,0,1-1,4.85,25.24,25.24,0,0,0-5.92,2.78,34.86,34.86,0,0,0-8-2.65,15.65,15.65,0,0,0,2.6-11.13c0-.13,0-.27,0-.4,1.2.2,3.49-1.38,3.72-2.32.13-.53.25-1,.37-1.58.57,1.56,1.19,3.14,1.84,4.75.35.86,1.56.59,2.62,0,0,0,.17,0,.17,0,.62,1.49,4.53-.57,4.53-1.86V139.8a4,4,0,0,0,.76,1.74c.8,1.42,4.24-.52,4.24-1.86V137c0,.65.55,1.3.86,1.93.79,1.64,4.09-.73,4.35-1.85A85.06,85.06,0,0,1,210.2,122c.74,1.68,1.43,3.38,2,5.13.5,1.44,4.86-.55,4.3-2.17a79.36,79.36,0,0,0-3.95-9.2c-.74-1.48-3.88.55-4.27,1.5-1.95,4.78-4.14,9.48-5.88,14.33-1.6-4.14-3-8.47-3.18-12.88-.07-1.79-4.68,0-4.68,1.54v7c0-3-.58-6-.58-9.13,0-1-1.24-.87-2.45-.32,0-.14,0-.27,0-.41-.18-1.38-2.26-.68-3.48.24-1.08-.19-2.16.15-2.33,1.25-.34,2.16-.76,4.34-1.29,6.51a2.49,2.49,0,0,0-1.2,1.43,24.26,24.26,0,0,0-.22,3.57q-.76,2.24-1.73,4.37c-.09-.2-.18-.39-.26-.6-.54-1.4-4.63.53-4.36,1.86a30,30,0,0,1,.49,6.1,15.61,15.61,0,0,0-1.1,3.19,1.43,1.43,0,0,0-.65,1.54c.08.23.16.46.23.7s-.07.5-.1.75l0-.09c-.72-1.73-5.08-2.17-4.62.28.15.79-.13,1.83.73,2.91a5.13,5.13,0,0,0,1.23,1.08,3.73,3.73,0,0,0,.36.32,3.53,3.53,0,0,0,1.66.64c.65.23,1.3.41,1.91.57a11.59,11.59,0,0,1-1.06,3c-4.42-.71-9-1-13.32-1.59a2.51,2.51,0,0,0-2.79,3.09l-.79-.08a2.42,2.42,0,0,0-3.45-1.3l-1.91,1Q151.76,158,150,158c-1.28,0-2.78,1.62-2.29,2.94l-.2-.17c-2.22,1.11-1,3.75,1.15,3.75h3.94a2.4,2.4,0,0,0,2.39-2.23,40.2,40.2,0,0,1,12.24,2.46,2.56,2.56,0,0,0,3.44-2.07c.31-.07.61-.12.92-.21a11.81,11.81,0,0,0,1.35,1.84,14,14,0,0,0,4.23,3.07c1,.5.54-1,.36-1.32a5.28,5.28,0,0,0-.42-.77,2.41,2.41,0,0,0,1.78.66c2.54,0,2.94-2.57,1.17-3.35a28,28,0,0,1,5.57,2.29,2.57,2.57,0,0,0,2.82-.65c2.44-2.27,4.84-1.89,7.39-3.53,1.14-.74,1.71-2.55,2-4.41l.42.4c1.16,1.13,2.91.23,3.67-.84a15.52,15.52,0,0,0,1.48-3,5,5,0,0,0,1.9,1.55,2.1,2.1,0,0,0,2.66-1.13,2.42,2.42,0,0,0,2.58-2.44v-5.26c0-.37.36-.67.24-.93.21-2,.44-4.06.78-6.09.4.39,1,.79,1,1.22v8.67c-1,3.86-2.37,7.76-3.22,12.12-.05.27,1.65,1.1,2.93,1.62-.07.33-.08.67-.14,1,0,.13.35.39.86.68-.27,1.1-.53,2.2-.83,3.27-.1.37,4.08,2.38,4.39,2a53.84,53.84,0,0,0,4-5.51c.62.23,1.13.36,1.27.25a23.52,23.52,0,0,0,6.14-7.05c.89.36,1.68.6,1.74.48.76-1.3,1.44-2.63,2.09-4,0,.21.07.43.11.65.13.62,4.3,2.21,4.38,2a59.35,59.35,0,0,0,3.87-18.78,4.25,4.25,0,0,0,1.38.38,101,101,0,0,0,3.82-10.83,20.13,20.13,0,0,0,4.07,1.63C250.63,122.5,251.76,117.18,250.74,111.23Zm-71.83,51.09c-1.91,0-2.61,1.45-2.09,2.51a4.14,4.14,0,0,0-1.45-1.32c-.46-.24-1.09-.59-1.54-.89a3.23,3.23,0,0,0-.35-.88c.3-.14.6-.29.89-.45a47.12,47.12,0,0,1,5,1.07A3.14,3.14,0,0,0,178.91,162.32Z"/><path class="cls-1" d="M117.52,154.64a5.58,5.58,0,0,0-2.07-1.49,6.79,6.79,0,0,0-2.67-.77c-1.06,0,.1,1,.38,1.2s.31.2.47.3a1,1,0,0,1,0,.17c0,.29.64.71.82.84a7.85,7.85,0,0,0,1.64.88c.33.13,1.88.78,1.87,0A2.06,2.06,0,0,0,117.52,154.64Z"/><path class="cls-1" d="M105,159.63c-4.21-2.71-8.75-3.51-13.53-4.67-.54-.14-1.89-.17-1.35.78a4.56,4.56,0,0,0,2.81,1.75c3.48.85,7.06,1.24,10.12,3.21.69.45,2.11,1.18,2.95.72S105.28,159.84,105,159.63Z"/><path class="cls-1" d="M207.17,167.24c-4.17,1.08-6.71-.09-9.19,3.62-5-.59-10-.26-15-1-.65-.1-2.13-.42-2.52.36a38.14,38.14,0,0,1-3.15,5.48A54.09,54.09,0,0,0,155.87,173c-10.26.72-20.29,3.21-30.59,3.35-3.1,0,.79,1.91,2.1,1.89,16.84-.22,33.81-7.08,50.19-.47.73.3,2.9,1,3.57.19a31,31,0,0,0,3.75-6.15c5,.47,10,.18,14.88,1,.69.12,2.09.39,2.52-.36,2.18-3.78,5.2-2.66,8.8-3.59C212.48,168.51,208.3,167,207.17,167.24Z"/><path class="cls-1" d="M153.1,64.94a5.57,5.57,0,0,1-4.86-3,1.3,1.3,0,0,0-.23-.33,2.1,2.1,0,0,0-.28-2.76,1.77,1.77,0,0,1-.53-1l0-.16,0-.38c0-.29,0-.58,0-.88,0-2.74-4.78-3.12-4.78-.22a7.43,7.43,0,0,0,2,5.49l.09.07a1.64,1.64,0,0,0-.6,2.1,9.3,9.3,0,0,0,8.29,4.88,2.87,2.87,0,0,0,2.75-1.93C155.18,65.67,154.14,65,153.1,64.94Z"/><path class="cls-1" d="M140.75,58.38c-1,0,1.3,3.81,2.7,3.81C144.45,62.19,142.15,58.38,140.75,58.38Z"/><path class="cls-1" d="M134.8,48.49c-6.23,7.18-15.5,13.12-24.92,14.92a1.91,1.91,0,0,0-1.29,3,11,11,0,0,1,1.35,3.42c-.6,1.84-1.19,3.7-1.78,5.56-.68-.11-1.2-.13-1.23,0a55.61,55.61,0,0,1-2.83,10.31c-.69,1.8-4.32,10.62-6.58,10.62-.16,0-.08.08.13.21q-1.44,1.88-2.81,3.79c-4.9,4.21-11.08,6.7-17.52,8.21-.15,0,2.29,3.25,3.05,3.44.46.11,1.21.21,1.21.32v2.13A3.49,3.49,0,0,0,81,113c-.47-.89-3.91-2.68-4.33-1,0,0,0,.08,0,.13-.26-.6-.44-1.2-.72-1.8-.52-1.1-4.38-2.66-4.38-.62v4.1a10.84,10.84,0,0,1-2.16-3.48c-.48-1.14-4.76-2.55-4.5-.62a.76.76,0,0,1,0,.15,4.17,4.17,0,0,0-.38-.26c-1.45-3.13-3.29-6-4.26-9.41-.28-1-2.44-2.13-3.7-2-.12-.35-.25-.69-.37-1a1.19,1.19,0,0,0-.31-.44,63.51,63.51,0,0,1-.92-20c.17-1.4-1.87-2.35-3-2.35H50.66c-.47,0-1.33.09-1.5.68a37.53,37.53,0,0,0-1.3,9.31.92.92,0,0,0,0,.28c-.05,2.35-.26,4.68-.51,7-1.08-.23-2.12,0-2.12.89a31.28,31.28,0,0,0,1.32,9.21c.41,1.37,4.55,3.14,4.58,1s.21-4.16.41-6.23c.45,2.19,1,4.38,1.58,6.56a3,3,0,0,0,1.72,1.5c.35.93.7,1.87,1,2.81S59,109.59,60,108.82c.4.85.78,1.71,1.11,2.59a3.16,3.16,0,0,0,1.83,1.33,38,38,0,0,0,2.38,3c.77.84,3.33,2,4.14.63a24.81,24.81,0,0,1,2.43,2.94c.58,1,4.73,2.75,4.73.62v0c1,1,3.55,1.7,3.68,0,0-.47,0-.93,0-1.4.67,1.12,1.26,2.25,1.87,3.41s4.38,2.68,4.43.65c1.32,1.06,4.44,1.45,3.8-.4-1.06-3.05-2.31-6-3.42-9.06l1.23.11c.17.07.3.09.39,0h0c.63,0,1.26,0,1.87,0,.24.64.51,1.26.78,1.83.6,1.25,5-.7,4.44-1.88l-.39-.86a9.79,9.79,0,0,0,1.17-.58A6.12,6.12,0,0,0,98,113a6.75,6.75,0,0,0,3.28.42c.33,0,1.77-.15.91-.63a5,5,0,0,1-2.42-4.94,10.82,10.82,0,0,0,.52-1.87,12.86,12.86,0,0,0,3.07,5.22,2.84,2.84,0,0,0,3.3.83,1.75,1.75,0,0,0,.68-2.7c-.23-.24-.46-.51-.7-.79.29-.73.54-1.46.77-2.19,1.56,1.68,5.31.19,4.12-2.18-.49-1-1-2-1.4-3,.86.39,2.75-.74,3.53-1.72.2.19.57.38.77.58s2.2,1.84,2.2,1.26V87.22s.49-.14.48-.29a15.36,15.36,0,0,0-.29-2.13c.41.49.78,1,1.21,1.39,5.14,5.33,10.92,8.25,13.23,15.9.38,1.29,3.33,2.85,3.42,3.13a28.06,28.06,0,0,0-7.82-12.58c-3.91-3.7-9.63-6.62-10.47-12.27a3.07,3.07,0,0,0,1.11-.63c.72-.64,1.11-2,0-2.56a5,5,0,0,1-1.9-1.67,2,2,0,0,0,1.91-.46,9,9,0,0,0,2.34.52c3.12.28,2.56-4-.18-4.28l-1.54-1.57c-.19-2.1-3.22-3.08-4.27-1.68-.08-.3-.16-.6-.25-.91,9.72-2.48,18.78-8.6,25.27-16.08C140.62,49.05,136.55,46.48,134.8,48.49ZM112.58,97.4c0-.27-.44-.55-.71-.83-.88-1.4-1.21-3.18-1.94-4.68-.14-.31-.52-.37-1-.27a32.32,32.32,0,0,0,2.34-6c.22-.57.44-1.14.64-1.71a15.55,15.55,0,0,1,.11,2.27c0,.24.57.44.57.6Zm-7.93,2.86a2.79,2.79,0,0,0-.89-.85c.2-.25.4-.49.59-.74a14.59,14.59,0,0,0,.32,1.49S104.66,100.23,104.65,100.26Z"/><path class="cls-1" d="M77,136.54c-3.48-3.55-6.07-7.37-5-12.52.25-1.2-1.93-.88-3.35,0,0-.19.07-.37.11-.56.35-1.5-2.78-5-3.29-2.83a25.79,25.79,0,0,0,1.63,17.28c1,2.07,4,2.75,2.67-.19a18.75,18.75,0,0,1-1.58-5.33,22.57,22.57,0,0,0,4.85,6.71C74.28,140.3,78.44,138,77,136.54Z"/><path class="cls-1" d="M82.39,184.92c-.11-.53-.79-1.1-1.57-1.55,0-.83-.09-1.65-.1-2.47,0-1.78-3.45-4.85-3.4-2,.09,5.72,1.24,11.36,1.31,17.08a3.9,3.9,0,0,0,1.22,2.3c.16,7.08-.23,14.19-.27,21.28,0,1.29,4.12,3.25,4.13,2.18C83.76,209.42,84.9,197.06,82.39,184.92Z"/><path class="cls-1" d="M107.1,186.37a4,4,0,0,0-1.44-2.34c0-1,.1-1.93.12-2.92,0-1.58-3.53-4.66-3.59-2.46-.15,5.46-.71,10.27,1.5,15.42,0,0,0,0,0,0,.42,12.55,1.42,25.07,2.47,37.58.13,1.62,3.75,4.32,3.52,1.54C108.39,217.63,107.15,202,107.1,186.37Z"/><path class="cls-1" d="M175.47,204.68c-1.37-8.31-2.57-16.66-3.94-25-.14-.85-3.15-4.53-3.63-2.65-3.65,14.59-.15,29.11,1.28,43.74.14,1.43,3.86,4.29,3.67,2.28-.89-9-2.61-18-2.88-27.05q.83,3.41,1.93,6.8C172.21,203.78,175.81,206.75,175.47,204.68Z"/><path class="cls-1" d="M204.84,200.93c-1.26-6.78-1.28-13.63-1.28-20.51,0-2.41-4.63-3.69-4.63-1.07,0,7.21,0,14.42,1.34,21.54C200.71,203.23,205.37,203.74,204.84,200.93Z"/><path class="cls-2" d="M66.33,83.48a6.31,6.31,0,0,0-3.83.88c-.85.66-1.13,2.93.07,3.39a3,3,0,0,0,1.39.06c1.45-.15,2.7,1.73,3.43,2.67,1.47,1.9.48,3.57,3.29,3.83.42,0,1.44-.09,1.57-.62.34-1.34,0-5.15,2-5.45a13.93,13.93,0,0,0,3.41-.6c1.14-.49,3.4-2.49,1.45-3.57-4.2-2.31-10.61-2.68-14.92-.35-.18.1-.54.36-.32.59L65,85.55c.42.43,2.24-.27,1.8-.72l-1.2-1.24-.32.58c2.38-1.29,6-1,8.53-.69a9.85,9.85,0,0,1,2.63,1c2.76,1.19.3,2.63-1.38,2.81-4.44.47-3.78,2.94-4.75,6.73l1.56-.62c-2.36-.22-1.23-1.71-2.22-3a21.69,21.69,0,0,0-2.88-3.1A2.35,2.35,0,0,0,65,86.79c-2,.11-1.1-2.35.6-2.34.64,0,2.08-1,.78-1Z"/><path class="cls-2" d="M64.34,86.05c.41,1.71,2.51,3.3,3.68,4.52.62.64,2.24.11,1.76-.88A15.48,15.48,0,0,0,67.4,86l-1.77.87c1.27,1.39,2.33,3,3.6,4.34.46.49,1.89.35,1.87-.5a6.61,6.61,0,0,0-2.61-5.45c-.62-.48-2.14.16-1.62,1a11.91,11.91,0,0,0,2.54,2.62c.45.41,1.77.07,1.73-.64a5.44,5.44,0,0,0-3.42-4.94c-.69-.3-2.18.6-1.29,1.25,1.92,1.43,3.35,3.08,5.86,3.3.61.06,1.36-.28,1.29-1-.22-2.23-2.3-2.87-4.26-3-.52,0-1.75.44-1.21,1.17a6.7,6.7,0,0,0,5.41,2.82c.51,0,2-.76,1.06-1.31s-2-1.29-3-1.88l-1.29,1.25a12.49,12.49,0,0,0,4.49,1.35c.49,0,1.78-.47,1.21-1.17s-1.15-1.68-1.8-2.47l-1.62,1c.77.68,1.65,1.2,2.41,1.87l1.48-1.15c-2.61-1.86-5.45-2.07-8.58-2.13-.52,0-1.61.88-.81,1.32A9,9,0,0,0,70.49,86c.54.06,2-.8,1.06-1.31-1.39-.75-3.83-1.61-4.62.43S68.7,89,70.2,89.61c.5.21,1.53-.08,1.54-.74l0-1.83-2,.13c0,.81,0,1.63,0,2.44,0,1.06,1.56.7,1.91.07,1.1-2,2.47-3.36,4.92-3,1,.16,2-1.26.65-1.47-3.46-.55-5.81,1.24-7.42,4.18l1.91.06c0-.81,0-1.63,0-2.44,0-1.05-2-.8-2,.13l0,1.83,1.54-.74a4.63,4.63,0,0,1-2-1.49c-.82-1-.62-1.68.76-.93.36-.43.71-.87,1.07-1.31a6.77,6.77,0,0,1-2.62-1.11c-.28.44-.55.88-.82,1.32,2.66,0,5,.2,7.25,1.79.73.52,2.36-.38,1.48-1.15s-1.64-1.2-2.41-1.87c-.58-.51-2.25.25-1.62,1S73.54,86.2,74.19,87l1.21-1.17a11.09,11.09,0,0,1-4-1.23c-.69-.34-2.2.73-1.29,1.25s2,1.3,3,1.89c.36-.44.71-.88,1.07-1.31a5.22,5.22,0,0,1-4.3-2.23l-1.21,1.17c1.43.08,2.83.35,3,2l1.29-1c-2.14-.2-3.41-1.79-5-3l-1.29,1.25a4.12,4.12,0,0,1,2.56,3.72l1.72-.64a10.72,10.72,0,0,1-2.26-2.35l-1.62,1a5.32,5.32,0,0,1,2.12,4.41l1.87-.5c-1.28-1.38-2.33-2.95-3.6-4.33-.62-.68-2.45.1-1.77.87A15.38,15.38,0,0,1,68,90.57l1.76-.88c-1-1.07-3.15-2.65-3.51-4.16-.23-.94-2.16-.43-1.93.52Z"/><path class="cls-2" d="M69.73,92.86q-.08,4.59-.14,9.17l1.93-.52,0-1.83c0-.14-.28-.18-.36-.19-3-.29-6.08-1.55-9-2.56l-1.56.83c8.92,3,18.12,2.8,25-4.36.49-.5-1.41-.31-1.77.07-6.07,6.35-13.93,6.09-21.63,3.46-.49-.17-2.25.59-1.56.83,2.21.78,4.43,1.52,6.69,2.14,2,.54,2.26-.07,2.23,2.13,0,.44,1.92.13,1.93-.52,0-3.05.09-6.11.14-9.17,0-.43-1.92-.12-1.93.52Z"/><path class="cls-2" d="M69,98.35a8.37,8.37,0,0,0,.56,3.68c.25.56,1.92.06,1.93-.52l0-1.83-1.94.52c.09.86,1.13.82,1.79.83a1.79,1.79,0,0,0,1.28-.49c.3-.35-.26-.43-.49-.43s-.6,0-.64-.43-1.93-.08-1.94.52,0,1.22,0,1.83l1.93-.52A8.35,8.35,0,0,1,71,97.84c0-.45-1.92-.14-1.93.51Z"/><path class="cls-2" d="M65.73,77.9c3.39-5.1,7.9-9.64,8.87-15.92.14-.88-1.83-.57-1.94.19-1,6.16-5.43,10.61-8.75,15.6-.55.82,1.41.74,1.82.13Z"/><path class="cls-2" d="M77.68,63.69c-1.78,2.1-.21,6.21.33,8.51.22.92,2.15.41,1.93-.51-.28-1.2-.57-2.4-.79-3.61-.19-1-.62-2.88.15-3.79s-1-1.29-1.62-.6Z"/><path class="cls-2" d="M95.15,65.65c2.93-2.31,4.6-7.7,9.14-6.81.65.13,2.29-.88,1.17-1.1a7.88,7.88,0,0,0-6.58,1.69c-2.11,1.63-3.22,4.22-5.3,5.85-.88.69,1,.77,1.57.37Z"/><path class="cls-2" d="M98.37,60.91a4.07,4.07,0,0,0,3.7,2.41c2.09,0,3.06-1.55,3.13-3.46,0-.13-.29-.15-.34-.15a5.59,5.59,0,0,0-3.29.7c-.81.57-.41,1.61-.17,2.38.15.5,1.63-.09,1.84-.32.5-.56.75-1.26,1.25-1.82.06-.07.15-.19,0-.27-1.45-.88-3.64-1.55-5-.11-.82.85-.38,2.34.26,3.16.92,1.18,2.93.48,3.76-.46a2.51,2.51,0,0,0,0-3.21c-.88-1.06-2.8-.28-3.73.26l1.7-.13c.12-.33,0-.33-.35,0a2.43,2.43,0,0,0,1.37-.36c.3-.2.26-.45-.12-.45-.87,0-2.62,0-2.81,1.16-.1.59,1.5,0,1.7-.12s.57.53.6.58a2.21,2.21,0,0,1,.27,1.1,1.88,1.88,0,0,1-.72,1.6c.48-.34,1,0,.63-.19a1,1,0,0,1-.34-.24,2.1,2.1,0,0,1-.52-.78,2.34,2.34,0,0,1-.09-1.85.66.66,0,0,1,.15-.23c-.34.26-.8.1-.32.19a5.27,5.27,0,0,1,1.73.77,2.51,2.51,0,0,0,0-.27c-.51.56-.76,1.26-1.26,1.81l1.85-.32A6.59,6.59,0,0,1,103,61a.83.83,0,0,1,.11-.51c-.35.1-.39.13-.11.09s.4,0,.6,0l-.34-.15a4.35,4.35,0,0,1-.43,1.88c-.2.37-.55.32.06.26a1.45,1.45,0,0,1-.5-.11,3.93,3.93,0,0,1-2.1-2c-.25-.5-2.1.18-1.93.52Z"/><path class="cls-2" d="M57.23,56.06a4.1,4.1,0,0,0-2.34,3.6c.09,2,2,2.63,3.68,2.7.4,0,1.23-.18,1.35-.65.71-2.89-.25-5.76-3.55-5.94-.41,0-1.21.19-1.35.65-.62,2.16.76,4,2.44,5.17a1.51,1.51,0,0,0,1.79-.36,4.1,4.1,0,0,0,.19-4.48,3,3,0,0,0-3.53-1.38,3.34,3.34,0,0,0-2.25,3.35c0,.87.21,1.78,1.16,2,1.78.41,3.81-1.07,4.6-2.58,1.32-2.53-1.81-3.06-3.65-3-.42,0-1.2.16-1.35.65-.63,2.09.09,4,1.2,5.76.34.55,1.67-.08,1.86-.5a5.46,5.46,0,0,0,.07-4.41c-.09-.22-.36-.25-.58-.26h-.61c-.43,0-1.36.21-1.35.78a7.94,7.94,0,0,0,1.17,3.69c.31.63,2.19,0,1.93-.52a7.94,7.94,0,0,1-1.17-3.69l-1.35.78h.62l-.59-.26a5.09,5.09,0,0,1-.06,4.15l1.86-.5a6.3,6.3,0,0,1-1.07-5.28L55,56.19c1,0,3.07,0,2.77,1.5a3.3,3.3,0,0,1-1.67,2s-.25-.11-.39-.47A3.39,3.39,0,0,1,56,56.68c.26-.5.21-.54.75-.18a3,3,0,0,1,.95,1.08,3.58,3.58,0,0,1-.23,3.64l1.79-.37c-1.52-1.11-2.88-2.69-2.3-4.69l-1.35.65C58.24,57,58.48,60,58,62l1.35-.65a2.31,2.31,0,0,1-2.51-2,2.92,2.92,0,0,1,1.58-2.76c.26-.14.6-.53.18-.71a1.68,1.68,0,0,0-1.36.19Z"/><path class="cls-2" d="M55.32,53.88c6.09-.72,3.19,9.57,8.53,11.11.76.21,2.29-.89,1.14-1.23-3-.85-3-4.92-3.73-7.38a4.84,4.84,0,0,0-5.74-3.81c-1,.13-1.52,1.46-.2,1.31Z"/><path class="cls-2" d="M59.8,55.82a4.08,4.08,0,0,0-3.91-.4c-1.45.63-1.75,2.15-1.52,3.56.13.8,2.07.32,1.93-.51-.09-.54-.22-1.73.41-2.06.44-.23,1.19.19,1.58.45.63.42,2.37-.47,1.51-1Z"/><path class="cls-2" d="M55.9,53.18A4.35,4.35,0,0,0,55,59.69c.35.39,2.17-.28,1.81-.68a3.92,3.92,0,0,1,.55-5.71c.83-.58-1.12-.38-1.49-.12Z"/><path class="cls-2" d="M65.56,43.87c5.09-6.38,12.87-2.94,19.6-2.75,3.52.09,7-.36,10.49,0,3.15.31,6.15,1.8,9.11,2.82,4.84,1.66,10,1.13,14.9.23,3.9-.71,7.76-1.55,11.68-2.1,2.44-.34,4.67-.19,7-.93l-1.15-.58c.37,12.88-9.75,21.84-22.18,22.14-3.59.08-10.67,1.2-8.22,6.3.4.84,2.31.27,1.93-.52-2.31-4.8,6.69-4.39,9.2-4.44a18.46,18.46,0,0,0,10-3.28c6.9-5.06,11.48-11.46,11.23-20.35,0-.58-.68-.73-1.16-.58-2.59.82-5.46.7-8.16,1.08-4,.56-8,1.53-12,2.19a26.38,26.38,0,0,1-13.31-.9,51.81,51.81,0,0,0-8.25-2.47c-4-.67-8.22.07-12.25,0-3.07-.09-6-1-9.14-1.12a13.18,13.18,0,0,0-11,4.75c-.76,1,1.07,1.23,1.62.56Z"/><path class="cls-2" d="M105.84,52.47c.46,2.32,2.14,3,4.33,2.62,2-.31,2.71-2.37,3.17-4.08s1.82-.58,3-1.74c3.62-3.51,9.9-6.94,15.06-5.92.61.12,2.28-.83,1.19-1.05-4.58-.9-8.83,1.11-12.87,3.08a11.5,11.5,0,0,0-3.27,2c-1.56,1.51-1.55,1.07-3.38,1.37-.41.06-.94.22-1.1.65a9.63,9.63,0,0,0-.59,1.89c-.11,1.85-1.33,2.08-3.64.69-.13-.66-2.07-.18-1.93.52Z"/><path class="cls-2" d="M63.15,43.19C51.21,48.86,38.36,37,25.87,42c-.15.06-.74.37-.59.63,1.92,3.34,6.47,2.5,9.7,2.1,3.79-.47,6.67-.41,10.08,1.59,2.88,1.68,5.27,3.61,8.59,4.35.59.13,2.28-.78,1.19-1-5.09-1.13-8.92-6.44-14.31-6.43a42.3,42.3,0,0,0-5.27.48,34.45,34.45,0,0,1-4.19.32q-3.24.63-2.24-2a16.58,16.58,0,0,1,4.6-.41c10.38.1,20.22,7.25,30.47,2.39,1.22-.58.1-1.16-.75-.76Z"/><path class="cls-2" d="M25.27,43.24c.14,1.25-.62.84-.66,1.62a11,11,0,0,0,.72,4.32c1.16,3.33,3.65,6.24,6.06,8.72,5.23,5.37,13.59,5.3,20.48,7,1,.24,1.91-1.16.65-1.48-7.79-1.94-15.49-2-21.15-8.33a20.32,20.32,0,0,1-4.75-8.61c-.2-.85.71-2.66.58-3.78-.11-.94-2-.46-1.93.52Z"/><path class="cls-2" d="M54.94,65.83c2.17,2.47,4,2.44,2.89,6.47-1,3.36-2.16,6.65-3.2,10-1.52,4.82-2.82,9.54-1.19,14.46,3.14,9.46,14.66,12.1,23.35,12.39.7,0,2.07-1,.76-1-10.07-.34-22.22-4.41-23-16.12-.39-5.65,2.68-12,4.4-17.25.64-2,1.48-4,1.47-6.11,0-1.2-2.93-2.68-3.66-3.51-.43-.48-2.27.2-1.8.74Z"/><path class="cls-2" d="M76.79,109.16c16.41-.83,37.46-20.2,31.89-37.63-.22-.69-2.14-.14-1.93.52,2.53,7.91-.91,15.57-5.65,21.89-5,6.69-15,13.68-23.56,14.11-.71,0-2,1.17-.75,1.11Z"/><path class="cls-2" d="M79.82,37.06c6.74-10.18,19.58.49,28.68-5.54l-1.72.17c.75,1.26,1.69,2.75,3.41,2.68,2.27-.1,1.88.41,4,1.19,3.12,1.11,5-3.26,5.86-5.32l-1.93.41c.44,5,5.19,4,6.8.28l-1.93.41c1.12,6,8.1-.56,10-2.6l-1.79.37c2.47,2.72,6.72,2,10,2.71,4.07.88,7.46-.67,11-2.54l-1.54,0c.58,2.6,2.95,3.09,5.24,2.3,1.55-.53,1.71-2.21,3.47-.84.62.48,2.43-.29,2.81-.42,3.38-1.2,8-3.88,10.2.38a8.15,8.15,0,0,0,2.71,3.36c1.46,1,4.61,1.15,5.89-.32,1.55-1.77,2.41-5.66,5.62-4.34,2.32.95.47,2.95,2.11,3.7a5.91,5.91,0,0,0,4.11.42c.73-.14,3.81-1.53,3.94.35a3.77,3.77,0,0,0,1.6,2.53c1.27,1,3.45,1,4.88,1.83a15.2,15.2,0,0,1,3.64,3.65c4,4.87,9.87,8,15.09,11.31,1.81,1.16,1.72,3.91,1.7,5.76,0,1.17,1.73,1.83,2.53,2.26A6.65,6.65,0,0,0,229,62a8.48,8.48,0,0,1,6.17,3.36c2.89,3.36,3,7.46,3.67,11.61.44,3,2.6,5.72,4.06,8.26a31.23,31.23,0,0,1,3.6,8.92c1.23,5.71-4.66,10-.72,15.52,2.31,3.23,3.75,5.18,3.5,9.33-.15,2.43-.4,4.28.62,6.6,1.26,2.85,6,7.49-.76,8.75a31.55,31.55,0,0,0-5.79,1.14c-3.26,1.28-4.61,3.79-4.18,7.19.4,3.22,2.33,5.5,0,8.6-1.69,2.24-5.45,3.22-7.57,5.17a13.41,13.41,0,0,0-2.73,4.6c-1.46,3.28-4.47,4.09-7.64,5.07-2.85.88-5.6,2.19-5.63,5.51l1.12-.71c-5.12,1.06-8.53-.22-10.94,5.33l1.86-.5c-3.37-3.44-6.62-3.4-10.32-.49L199,175l-1.53-1.76c-.36-.56-2.17.15-1.94.51a5.73,5.73,0,0,0,1.66,2c.38.35,1.33,0,1.66-.26q4.62-2.3,7,1c.39.4,1.67,0,1.86-.5,1.8-4.14,5.13-3.41,8.72-4.15.35-.07,1.11-.23,1.12-.7,0-4.26,6.72-4.9,9.91-6.37,1.85-.85,2.58-2.18,3.35-4a13.06,13.06,0,0,1,6.11-6.74,15,15,0,0,0,3.23-2c2.84-2.66,2.27-5.18,1.25-8.64-2.88-9.78,9.93-5.62,13.09-11.8.7-1.38-.63-3.27-1.29-4.33-1.63-2.62-2.32-4-2.12-7.14.27-4.18-.18-6.74-2.75-10.11-3.56-4.64-1-8.21.08-13.14,1-4.56-2.11-9.62-4.28-13.38a33.07,33.07,0,0,1-3.34-7c-.77-2.48-.67-5.23-1.42-7.77-1-3.27-4.18-7.15-7.75-7.47-1.87-.17-5.4-.44-6-2.72-.4-1.53-.09-3-.74-4.55-1.16-2.86-6.36-4.52-8.67-6.2-3.69-2.68-6.59-5.92-9.75-9.13-2.92-3-7.49-1.43-7.85-6.61,0-.14-.27-.2-.36-.2-2.37-.17-8.76,2.12-8.22-1.51.2-1.36-1.84-2-2.89-2a8.14,8.14,0,0,0-4.77,1.22,5.75,5.75,0,0,0-1.7,2c-1.78,2.82-4.61,1.81-6-.55-2.41-4.16-4.43-4.51-9-2.87-1.38.49-4.26,2.56-5.29,1.07a1.81,1.81,0,0,0-1.29-.45c-1.94.06-5.47,4.55-6.47.1-.11-.5-1.31-.07-1.55.05-3.7,2-14.34,3.57-18-.45-.38-.42-1.49.06-1.79.38-1.16,1.23-5.6,5.83-6.31,2-.11-.61-1.76,0-1.92.4-1.87,4.3-2.82.38-3-1.09,0-.59-1.76,0-1.92.4-.89,2.21-2,5.24-4.15,2.47-.23-.3-1-.06-1.26,0l-4.06-1.87c-.31-.52-1.36-.07-1.72.17-5.64,3.73-13.15-.22-19.27-.09-4.23.09-7.42,2.46-9.67,5.86-.43.66,1.48.4,1.77,0Z"/><path class="cls-2" d="M55.15,72.38a9.88,9.88,0,0,0-8,4.17,14.18,14.18,0,0,0-2.93,7.09,6.49,6.49,0,0,0,.93,3.77c1,1.88-1.31,3.39-2.26,4.71-1.88,2.57-2.87,4.74-1,7.59,1.47,2.28,4.61,3.67,3,6.77s-7.52,7.57-3.71,11.25c1.75,1.7,1.33,2.09.09,4.09a24.89,24.89,0,0,0-2.27,4.6,6.44,6.44,0,0,0-.14,3.43c.24,1.38,2.68,2.54,1.4,4.2-4.28,5.59,3.29,10.76,4.19,16.33.6,3.67-.56,6.91.95,10.48a12.51,12.51,0,0,0,2.84,3.48c1.85,1.89,2.13,3.58,2.46,6.08.72,5.62,11.12,8.47,15.68,8.74.41,0,2.21-.74,1.25-.79-5.16-.32-13-3-15-8.46-.62-1.69-.11-3.35-1.37-4.89-1.93-2.35-4-4.18-4.8-7.27-.5-2,0-4.43,0-6.51A13.52,13.52,0,0,0,44,143.77c-2.83-4.48-4.62-6.51-.85-11.43a.11.11,0,0,0,0-.16c-5.31-4.13-.55-9.53,1.89-13.88a.12.12,0,0,0,0-.16c-7.4-3.26.75-8.92,2.34-13.29.81-2.21-3.17-5.07-4.13-6.55-2.36-3.64,2.84-7.66,4.48-10.53a.12.12,0,0,0,0-.16c-3.35-4.17.14-14.58,6.29-14.43.41,0,2.21-.78,1.25-.8Z"/><path class="cls-2" d="M69.23,178.46c2,2.41,6.09,3.2,9,2.22a34.38,34.38,0,0,0,5.68-2.87c3-1.72,6.3-2.95,9.28-4.75.8-.48-1.14-.21-1.47,0-2.62,1.58-5.49,2.68-8.21,4.1-3.76,2-8.91,5-12.38.79-.37-.44-2,.4-1.93.52Z"/><path class="cls-2" d="M92.8,174.19c3.86,2.14,7.24,7,11.9,7.48,2.46.25,4.24-3.07,5.43-4.62l-1.87.2c1.15,2.41,3.19,5.28,6.33,4.89a5.4,5.4,0,0,1,3.79.46c.5.43.77,1.47,1.36,1.8a4.73,4.73,0,0,0,3.07.24c1.71-.6,4.92-2,6.69-1,1.22.69,2,.37,3.31.09,3.32-.73,5.13-4.63,7.55-6.65.88-.74-1-.88-1.58-.42-2.1,1.75-5.22,7.4-8.84,5.36a3.44,3.44,0,0,0-3.32,0c-1.06.56-4.7,2.24-5.78.71a5.69,5.69,0,0,0-1.71-1.81,6.8,6.8,0,0,0-1.62-.3c-3.33-.52-5.7-.48-7.32-3.88-.34-.72-1.51-.27-1.87.2-.72.95-1.45,1.88-2.2,2.8-1.57,1.9-6-2.23-6.71-2.83a31.92,31.92,0,0,0-5.09-3.72c-.63-.35-2.38.53-1.52,1Z"/><path class="cls-2" d="M138.77,178.49a5.54,5.54,0,0,0,4.12.19,14.26,14.26,0,0,0,2.83-1.25c2.85-1.43,5-1.18,8-1.07a26.1,26.1,0,0,1,10.41,2.33,5,5,0,0,0,3.78-.28c3.42-1.78,4.36,1.72,7.47,2,2.1.18,4.55-1,6.44-1.75,5.15-2,8.17,0,11.35-5.4l-1.86.5a41.64,41.64,0,0,0,6.57,3.22c.48.17,2.23-.57,1.58-.81a39.16,39.16,0,0,1-6.34-3.1,1.69,1.69,0,0,0-1.86.5c-1.92,3.25-3.91,3.07-7.07,3.58-2.74.45-6.79,3.45-9.42,1.8-2.08-1.29-3-3.69-5.76-2.11-2.37,1.36-4.36-.34-6.57-.67a75.8,75.8,0,0,0-9-.73c-1.44-.06-3.27-.4-4.68,0-2.27.62-6.24,3.2-8.37,2.25-.46-.21-2.23.51-1.57.81Z"/><path class="cls-2" d="M102.68,59c-.29.8-.16,1.77.91,1.74a3.25,3.25,0,0,0,2.77-1.88c.16-.26,0-.4-.27-.44a5.59,5.59,0,0,0-5,1.46c-1.52,1.66,1.35,2.43,2.46,2.5.39,0,1.45-.09,1.56-.61.62-2.87-1.17-3.88-3.81-3.4-.32.06-1.15.24-1.12.7a2.08,2.08,0,0,0,2.31,2.2c1.81-.2,2.56-1.42,2.68-3.16,0-.14,0-.24-.18-.28A10,10,0,0,0,92.79,65.6c-.11.61,1.82.26,1.92-.29a8.57,8.57,0,0,1,4.09-6c.9-.54,4.75-1.71,4.35.34-.28,1.46-1-.5-1-1l-1.12.7c2.15-.39,2.58,1.06,2.21,2.81l1.56-.61c-.73-.05-1.6-.06-2-.77-.71-1.17,1.94-1.37,2.09-1.35-.1-.14-.19-.29-.28-.43-.93,1.52-.13.19,0-.2s-1.71-.28-1.92.29Z"/><path class="cls-2" d="M57,54.85a3.67,3.67,0,0,0-.82,2.77c0,.39.29.51.62.57,1.22.2,2.85-.08,3.44-1.33a2,2,0,0,0-.77-2.46c-1.27-.86-3.08-.16-4.1.75a1.44,1.44,0,0,0-.17,2.09,3.17,3.17,0,0,0,2.21.95,1.36,1.36,0,0,0,1.27-.57c.22-.4-.19-.71-.57-.73-.6,0-1.9-.66-1.06-1.32a1.71,1.71,0,0,1,.23-.13s.33-.12.13-.06c0,0,.32-.06.08,0h.16a.71.71,0,0,1,.43.2,1.32,1.32,0,0,1,.38.8,1.1,1.1,0,0,1,0,.18s-.06.27,0,.12a1.3,1.3,0,0,1-.08.17c-.09.17.11-.12,0,0s-.19.16,0,0c-.2.16.06,0-.09,0,.24-.11,0,0,0,0,.24-.07,0,0-.08,0-.29,0,.16,0-.15,0l-.45-.06.62.56a2.94,2.94,0,0,1,.48-2.1.49.49,0,0,0-.23-.85,1.44,1.44,0,0,0-1.37.36Z"/><path class="cls-2" d="M65.53,178.57c10.13,7.87,5.89,20.33,8.32,31,.94,4.15-.1,8.67-.35,12.88-.09,1.5-.49,4.3,1.25,5,.75.29,2.26-.78,1.13-1.23-1.51-.6-.06-8.51.07-9.91.45-4.83-1.28-9.16-1.06-13.92.42-9-.1-18.87-7.86-24.89-.62-.49-2.34.4-1.5,1.06Z"/><path class="cls-2" d="M86.77,176.22c-3.79,10.67-2.08,22.64-4.55,33.62-.08.34,1.8.07,1.9-.37,2.47-11,.76-23,4.55-33.62.1-.28-1.74-.09-1.9.37Z"/><path class="cls-2" d="M82.66,209.81c-2.15,4.33-1.11,9.95-1.13,14.6,0,.47,1.93.15,1.93-.52,0-4.62-1-10.08,1.11-14.37.23-.45-1.64-.27-1.91.29Z"/><path class="cls-2" d="M73.92,225c-.63,3.61-2.69,6.75-3.24,10.38-.18,1.18-.24,4.11,1,4.88,2.29,1.45,4.35-2.44,5.26-3.9.4-.65.79-1.29,1.2-1.93.73-1.15.81-.81,1.55.22.86,1.2,1.43,2.35,3.09,2.24,4.5-.3,2-7,2.45-9.55.06-.35-.33-.61-.64-.61-2.88-.05-5.79-.11-8.55.85-.54.18-1.27,1-.38,1.28l1.33.49c.8.3,2.26-.86,1.12-1.28l-1.33-.49-.39,1.29a22,22,0,0,1,7.53-.77l-.64-.61a18.46,18.46,0,0,0,.22,4.75c0,.11.22,3.76-.81,3.22-.53-.29-.91-1.17-1.23-1.65-1.11-1.68-3.23-2.22-4.54-.51s-2.25,4.39-4.09,5.87c.37-.3,0-.75-.09-1.51a10,10,0,0,1,.23-4c.69-3,2.4-5.69,2.94-8.78.17-.95-1.81-.69-2,.15Z"/><path class="cls-2" d="M73.38,231.13c-.88,2.89-1,5.9-1.47,8.87-.15.9,1.81.61,1.94-.18.52-3.14,1.42-6.19,1.93-9.33.15-.89-1.65-.58-1.88,0-1,2.52-2.25,5-2,7.8.08.73,1.49.3,1.77,0,2-2.35,1.57-5.5,2.53-8.25l-1.95.18c-.48,2.16-.59,4.37-1,6.54-.17.89,1.63.55,1.88,0a18.53,18.53,0,0,0,1.51-7.16l-2,.18a19.23,19.23,0,0,0,.38,4.85c.19.77,1.64.32,1.88-.18a28.57,28.57,0,0,0,2.39-6.21c.2-.88-1.75-.58-2,.18a24.32,24.32,0,0,0-1,5.13c0,1,1.58.5,1.89,0a21.57,21.57,0,0,0,1.9-4.35l-1.94.18-.06,3.74c0,.86,1.41.58,1.77.15,1.21-1.45,1.51-3.19,2.42-4.8H80.56a17.33,17.33,0,0,0-1,4.19c-.06.89,1.42.54,1.77.15a5.57,5.57,0,0,0,1.57-3.58l-2,.18a19.23,19.23,0,0,0,.38,4.85c.21.87,1.75.25,1.94-.35a19,19,0,0,0,1-4.66c0-.91-1.65-.59-1.89,0-.89,2.17-.62,4.43-.61,6.72,0,1,1.78.56,2-.19a24.63,24.63,0,0,0,.52-5.14c0-.36-.29-.53-.62-.55-2.51-.2-4.57-1.79-7.1-2-.62,0-2.06.95-.92,1.26a32.11,32.11,0,0,0,6.89,1.08c.86,0,2-1.23.7-1.29-1.94-.09-3.85-.48-5.79-.56-.23.43-.46.86-.7,1.29a16.57,16.57,0,0,0,7-1c.62-.26.8-1.14-.06-1.15-3.72-.06-7.63,0-10.55,2.6-.42.38,0,.88.45.88l.89,0-.56-.73c-.41,1.07-.54,2.2-1,3.26s1.5.83,1.83.16c.46-.93.92-1.86,1.39-2.79l-1.81.33c1.39,2.45,4,1.9,5.37-.27l-1.8.33a2,2,0,0,1,.33,1.56c0,.95,1.94.6,1.95-.18a3.44,3.44,0,0,0-.5-2.2c-.4-.57-1.52-.13-1.81.33-.93.57-1.52.44-1.76-.38-.33-.59-1.57-.14-1.8.33L73,233.76l1.83.16c.41-1.07.54-2.2,1-3.26.15-.41-.14-.72-.57-.73h-.89l.45.89c2.2-2,5.47-1.83,8.25-1.79l-.06-1.15a13.14,13.14,0,0,1-5.5.7c-.84,0-2,1.23-.7,1.29,2,.08,3.85.47,5.79.56l.7-1.29a30,30,0,0,1-6.45-1c-.31.41-.62.83-.92,1.25,2.51.19,4.57,1.79,7.1,2l-.62-.55a24.64,24.64,0,0,1-.53,5.14l2-.19c0-2.12-.34-4.35.49-6.37H82.33a18.67,18.67,0,0,1-1,4.67l1.94-.35a18.05,18.05,0,0,1-.36-4.52c0-.94-1.89-.61-2,.18a4.33,4.33,0,0,1-1.21,2.92l1.77.15a17.22,17.22,0,0,1,1-4.19c.28-.86-1.6-.5-1.89,0-.83,1.47-1.08,3.16-2.18,4.48l1.77.15c0-1.25,0-2.5.05-3.74,0-1-1.71-.5-1.94.18a19.48,19.48,0,0,1-1.79,4h1.89a24.32,24.32,0,0,1,1-5.13l-2,.18a26.6,26.6,0,0,1-2.27,5.88l1.89-.19a17.49,17.49,0,0,1-.37-4.51c0-.94-1.92-.61-2,.18a17.82,17.82,0,0,1-1.39,6.83l1.89,0c.4-2.17.52-4.38,1-6.53.2-.93-1.71-.51-1.95.18-.84,2.43-.45,5.53-2.18,7.59l1.77,0c-.27-2.52.92-4.85,1.85-7.12H73.84c-.52,3.14-1.41,6.19-1.93,9.33l1.94-.18c.48-3,.6-6,1.48-8.87.26-.83-1.71-.58-2,.18Z"/><path class="cls-2" d="M75.13,238.51c1.42-1.49,2.67-3.13,4.08-4.62l-1.49.49c1.53.16,2.29,1.22,3.23,2.29l1.81-.72c-1.05-.61-2-1.31-3.09-1.92-.35-.2-2.08,0-1.87.62a4.22,4.22,0,0,0,2.37,3c.31.14,2-.12,1.74-.69a5.43,5.43,0,0,0-3.26-3c-.28-.11-2.05.19-1.74.69A14.19,14.19,0,0,0,80,238.52c.34.28,2.09,0,1.87-.61A11,11,0,0,0,80.54,235l-1.8.71a14.26,14.26,0,0,1,2.64,1.92,1.55,1.55,0,0,0,1.87-.5,18.81,18.81,0,0,0,.52-4.79l-1.93.52c0,1.88-.19,4.5,1.89,5.34.51.21,2.27-.56,1.56-.85-1.79-.73-1.54-3.44-1.52-5,0-.48-1.92-.15-1.93.52a17.42,17.42,0,0,1-.52,4.55l1.87-.5A14,14,0,0,0,80.54,235c-.39-.23-2.26.11-1.8.71A10.31,10.31,0,0,1,80,238.42l1.86-.61a13.75,13.75,0,0,1-3-3.7l-1.75.69A4.72,4.72,0,0,1,80,237.49l1.75-.69a3.72,3.72,0,0,1-2-2.67l-1.87.61c1,.61,2,1.31,3.09,1.93.4.23,2.3-.17,1.81-.72-1.12-1.26-2.38-2.78-4.28-2.5-.91.14-1.37.81-2,1.46-1.08,1.2-2.07,2.47-3.18,3.63-.51.54,1.4.36,1.78,0Z"/><path class="cls-2" d="M80.06,233.66c-.81,1.6.31,3.67,1.74,4.51a2.56,2.56,0,0,0,3.68-2c.08-.51-1.32,0-1.51,0a5.92,5.92,0,0,0-2.11,1.1l1.82-.24c1.24-2.35.6-5,1.46-7.47.13-.36-1.73-.14-1.91.35-.85,2.44-.22,5.12-1.45,7.46-.21.38,1.6,0,1.82-.25a4.77,4.77,0,0,1,1.49-.7l-1.51,0a5.75,5.75,0,0,1-.23.93c-.19.52.87.34.27.07a3.33,3.33,0,0,1-1.18-1.12,3.06,3.06,0,0,1-.48-3.08c.14-.28-1.66-.15-1.9.34Z"/><path class="cls-2" d="M79.56,236.08c0,.39-.2.67,0,1s.9.57,1.33.67a4.67,4.67,0,0,0,2.73-.33c1.91-.79,2.14-2.81,2-4.65,0-.37-1.85.05-1.92.43-.2,1-.32,2-.59,3a4.9,4.9,0,0,1-.53,1.22c-.4.67-.52.53-1.23.35-.27-.07-2.06.36-1.7.69,1.38,1.29,3.73.29,4.91-.82.31-.3-.28-.31-.45-.3a2.33,2.33,0,0,0-1.3.46c-.53.51-.8.51-1.34,0l-1.71.69c1.49.38,3.51.16,4.52-1.14s1-3,1.32-4.48l-1.92.43a5.15,5.15,0,0,1-.54,3.45,1.3,1.3,0,0,1-.41.4c.33-.07.35-.09.07-.08a2.1,2.1,0,0,1-.5-.09c-1-.21-.82-.72-.74-1.45,0-.22-1.87-.05-1.93.52Z"/><path class="cls-2" d="M111.36,181.9c-.8,5.1-2.31,10.45-1.78,15.65.62,5.93,3.28,10.76,2.83,16.88-.31,4.37-3.65,14.18.32,17.53.69.59,2.35-.41,1.47-1.15-2-1.73-.94-7.06-.73-9.36.32-3.4,1-6.7,1.06-10.12.14-4.41-2.06-8.32-2.83-12.56-1-5.56.76-11.53,1.62-17,.16-1-1.82-.78-2,.13Z"/><path class="cls-2" d="M98.05,178.83c1.13,8.83,3.89,16.6,3.29,25.64a32.3,32.3,0,0,0,1.59,13.63c1.37,4,1.14,8.08.51,12.18,0,.17,1.85,0,1.94-.52a28.57,28.57,0,0,0-.1-10.71c-1-4.77-2.43-8.34-2.14-13.37.28-4.73.52-9.18-.34-13.88-.83-4.53-2.23-8.9-2.82-13.49,0-.33-2,.05-1.93.52Z"/><path class="cls-2" d="M103.51,225.85c-.67,2.14-4.47,17,1.08,16.39a2.33,2.33,0,0,0,1.54-.86,4.56,4.56,0,0,0,.64-1.19c.68-1.54,0-.44-.11-.55a6.72,6.72,0,0,0,5.58,2.11c.32-.05,1.08-.25,1.08-.7,0-.2,0-.41,0-.61l-1.33.71h1c.47,0,1.4-.22,1.33-.86a55,55,0,0,1-.35-7.8c0-.89-1.93-.52-1.94.21a59.42,59.42,0,0,0,.35,8.11l1.33-.87h-1c-.37,0-1.32.17-1.33.7,0,.21,0,.41,0,.62l1.09-.71c-1.72.26-5.6-4.19-6.9-1.86-.34.62-.58,1.3-.86,1.95a1.19,1.19,0,0,1-.81-1.16,11.5,11.5,0,0,1-.08-3,39.43,39.43,0,0,1,1.63-10.85c.24-.77-1.72-.51-1.94.21Z"/><path class="cls-2" d="M104.54,229.4l5.73.09c.79,0,2-1.17.73-1.19l-4.3-.06c-.33,0-2,.72-1.12,1.08a11.38,11.38,0,0,0,4.21.77l0-1c-1.59.83-3.8,1-5.17,2.16-1.72,1.49-1.34,4.39-1.26,6.41,0,.73,1.8.2,1.93-.37a27.82,27.82,0,0,0,.58-6.11c0-.87-1.92-.49-1.94.22-.09,2.73-.48,5.45.35,8.1.23.73,1.82.26,1.94-.36a45.86,45.86,0,0,0,.6-7.94c0-.87-1.6-.44-1.87.06a11.12,11.12,0,0,0-.68,8.86c.25.73,1.58.2,1.88-.22,1.81-2.59,1.63-6.28,2.12-9.29l-1.94.21a25.65,25.65,0,0,0,.39,5.67c.16.77,1.78.19,1.94-.37a25.71,25.71,0,0,0,1-5.49l-1.94.22c-.09,3.21-.41,6.28.81,9.34.3.75,1.73.21,1.94-.37,1.09-3.09.61-6.56.63-9.78,0-.88-1.8-.46-1.94.22-.54,2.65-1.12,5.82.43,8.24.38.6,1.68,0,1.86-.5.84-2.42.6-4.82.6-7.33,0-.87-1.93-.49-1.94.22-.08,2.92-.7,6.46,1.37,8.86.37.43,1.85.16,1.86-.5.06-3.46.11-6.93.17-10.39,0-.87-1.61-.45-1.88.06-1.69,3.15-1.15,7.09-1.18,10.53l1.93-.36c-.06-2.74-1.36-5.58-4.33-5.9-.44-.05-1.22.2-1.33.7a6.21,6.21,0,0,0,1.42,5.81c.38.39,1.88.18,1.86-.5a4.82,4.82,0,0,0-1.93-4c-.39-.36-1.87-.21-1.86.5a3.78,3.78,0,0,0,.45,2c.35.67,1.52.27,1.87-.21,2.64-3.67-.56-6.74-4.52-6.2-.45.06-1.76.9-.7,1.15a18.72,18.72,0,0,0,3.66.39c1.13,0,2.74-.23,3.79.27.62.3,2.38-.58,1.53-1-2.31-1.1-5.35-.24-7.81-.81l-.71,1.15c3.27-.44,4.8,2.36,3,4.93l1.87-.21a2.35,2.35,0,0,1-.44-1.69l-1.86.5a4.24,4.24,0,0,1,1.77,3.41l1.86-.5a5.52,5.52,0,0,1-1.26-5.24l-1.34.7c2.37.26,3.08,3.29,3.13,5.23,0,.67,1.93.3,1.94-.36,0-3.28-.55-7.23,1-10.23l-1.87.06c-.06,3.47-.11,6.93-.17,10.4l1.87-.5c-1.92-2.23-1.29-5.59-1.22-8.3l-1.94.22c0,2.51.24,4.91-.6,7.32l1.86-.5c-1.41-2.21-.76-5.25-.27-7.67l-1.94.22c0,3.21.46,6.69-.63,9.77l1.93-.36c-1.18-2.95-.89-5.93-.8-9,0-.86-1.91-.49-1.94.22a25.5,25.5,0,0,1-1,5.48l1.93-.36a24.07,24.07,0,0,1-.38-5.36c0-.88-1.83-.48-1.94.21-.46,2.87-.27,6.53-2,9l1.88-.21a10.39,10.39,0,0,1,.55-8.25l-1.88.06a45.86,45.86,0,0,1-.6,7.94l1.93-.36c-.8-2.56-.42-5.18-.34-7.81l-1.94.22a27.73,27.73,0,0,1-.58,6.1l1.94-.36c-.05-1.36-.53-4.83,1.11-5.6,1.35-.63,2.83-.85,4.18-1.55.54-.29.87-1,0-1a9.27,9.27,0,0,1-3.41-.58L106,229.42l4.29.07.73-1.19-5.73-.09c-.79,0-2,1.17-.73,1.19Z"/><path class="cls-2" d="M194.64,176.2c-.23,3.46.65,6.57,1.25,9.94.7,3.87-.52,8-.3,11.85.25,4.43,1.45,8.46,1.26,13a33.92,33.92,0,0,0,.39,8.83c.15.67,2.09.18,1.93-.52-.73-3.32-.47-6.68-.32-10.06s-.66-6.74-1.24-10.14c-.62-3.67.28-7.8.3-11.51,0-4-1.61-7.56-1.34-11.61.05-.79-1.89-.4-1.93.24Z"/><path class="cls-2" d="M196.77,219.79c-.09,2.89-.48,5.75.34,8.57,0,.14.23.21.36.22a3.46,3.46,0,0,0,3.9-2.08c.1-.2,1.72-4.31,2.11-3.39.68,1.58,1,3,2.18,4.26.33.36,1.81,0,1.86-.5.43-4.6,1.16-9.69-.12-14.22-1.22-4.29-5.44-2.54-8-.53-.84.67,1.1.57,1.53.23,1.82-1.46,3.37-1.92,4.35.39a13.21,13.21,0,0,1,.73,4.14,64.16,64.16,0,0,1-.45,10.27l1.86-.5c-1.82-1.93-1.51-6.37-5-4.68a5.92,5.92,0,0,0-2.66,3.73c-.7,2.15-1.2.7-1.31-.85a54.84,54.84,0,0,1,.18-5.58c0-.49-1.91-.17-1.93.52Z"/><path class="cls-2" d="M197.81,214.21a17.84,17.84,0,0,0-.66,11.09c.12.46,1.82,0,1.92-.42A57.93,57.93,0,0,0,200.7,212c0-.44-1.75.09-1.92.42-1.88,3.76-1.68,9.57-.69,13.54.13.55,1.72-.15,1.92-.43,2.78-4,2.52-10.05,2.59-14.73,0-.46-1.75.13-1.92.43a21.91,21.91,0,0,0-2.11,14.12c.09.5,1.76-.09,1.92-.42,2-4.2,2.07-8.93,3-13.4.12-.54-1.7-.06-1.91.32a19,19,0,0,0-2.06,10.46c0,.52,1.67-.15,1.85-.32,2.84-2.6,3.44-7.51,3.08-11.16,0-.43-1.8,0-1.92.43a40.88,40.88,0,0,0-1.11,10.47c0,.45,1.55-.11,1.71-.22,3.53-2.45,2.73-10.6,2.79-14.32,0-.35-1.91-.06-1.93.52-.15,3.93-1.86,9.24.27,12.84.25.42,1.82,0,1.92-.42a37.6,37.6,0,0,0,.6-7.42c0-.34-1.92-.07-1.93.51-.1,3.08-.53,6.18.32,9.18.13.47,1.8,0,1.92-.42.89-2.83.62-5.71.62-8.65,0-.35-1.93-.05-1.94.52,0,2.85-.08,5.71-.13,8.56,0,.34,1.92.06,1.93-.52.05-2.85.09-5.71.14-8.56l-1.94.52c0,2.85.28,5.69-.59,8.46l1.92-.43c-.84-3-.42-6.1-.32-9.17l-1.93.51a37.31,37.31,0,0,1-.58,7.24l1.92-.43c-2.13-3.6-.42-8.91-.27-12.84l-1.93.52c0,2.06-.1,4.12-.25,6.18s-.19,6.21-2.1,7.54l1.71-.22a39.94,39.94,0,0,1,1.09-10.28l-1.92.42c.34,3.46-.19,8.28-2.91,10.76l1.85-.32a18.45,18.45,0,0,1,2-10.26l-1.91.32c-1,4.48-1.05,9.21-3,13.41l1.92-.42a21.37,21.37,0,0,1,2.09-13.94l-1.92.42c-.08,4.68.21,10.53-2.57,14.54l1.92-.42c-1-4-1.19-9.64.67-13.35l-1.92.43a57.39,57.39,0,0,1-1.6,12.72l1.92-.43a17.39,17.39,0,0,1,.63-10.9c.15-.37-1.7-.18-1.91.33Z"/><path class="cls-2" d="M207.73,213.91c-1.17-7,.53-14-.35-21.1-.36-2.83-1.21-5.53-1.48-8.38a98.15,98.15,0,0,1,.11-10.29c0-.44-1.93-.13-1.94.52a93.29,93.29,0,0,0,1.38,18.67c1.26,7-.82,14.08.35,21.1.08.52,2,.07,1.93-.52Z"/><path class="cls-2" d="M163.76,179.57c-.24,3.45.64,6.56,1.25,9.94.7,3.86-.52,8-.3,11.84.25,4.44,1.45,8.47,1.26,13a33.47,33.47,0,0,0,.39,8.83c.15.67,2.08.18,1.93-.52-.73-3.32-.47-6.68-.33-10s-.66-6.74-1.23-10.15c-.62-3.67.28-7.79.3-11.5,0-4-1.62-7.56-1.34-11.62.05-.78-1.89-.4-1.93.25Z"/><path class="cls-2" d="M165.89,223.15c-.09,2.89-.48,5.76.33,8.57,0,.15.23.21.37.22a3.47,3.47,0,0,0,3.9-2.08c.09-.2,1.71-4.31,2.11-3.39.68,1.59,1,3,2.17,4.27.34.35,1.82,0,1.87-.5.43-4.61,1.16-9.7-.13-14.22-1.22-4.3-5.44-2.55-7.95-.54-.84.67,1.1.58,1.52.23,1.83-1.45,3.38-1.92,4.35.39a13.22,13.22,0,0,1,.74,4.14,64.11,64.11,0,0,1-.46,10.27l1.87-.5c-1.83-1.93-1.51-6.36-5-4.67a5.87,5.87,0,0,0-2.67,3.73c-.69,2.15-1.19.7-1.3-.85a54.75,54.75,0,0,1,.18-5.58c0-.5-1.91-.18-1.93.51Z"/><path class="cls-2" d="M166.93,217.57a17.77,17.77,0,0,0-.66,11.09c.11.46,1.82,0,1.92-.42a57.86,57.86,0,0,0,1.63-12.91c0-.44-1.76.09-1.92.42-1.89,3.76-1.69,9.57-.7,13.54.14.55,1.73-.14,1.92-.42,2.78-4,2.52-10.06,2.6-14.73,0-.47-1.75.12-1.92.42a21.93,21.93,0,0,0-2.12,14.13c.1.5,1.77-.09,1.92-.43,2-4.19,2.07-8.92,3-13.4.11-.53-1.71-.06-1.91.33a18.94,18.94,0,0,0-2.06,10.46c.05.51,1.66-.16,1.84-.33,2.84-2.6,3.44-7.51,3.09-11.15,0-.44-1.81,0-1.92.42a40.5,40.5,0,0,0-1.12,10.47c0,.46,1.56-.11,1.71-.21,3.54-2.46,2.74-10.61,2.8-14.33,0-.34-1.91-.06-1.93.52-.15,3.93-1.87,9.24.26,12.85.25.41,1.83,0,1.92-.43a36.86,36.86,0,0,0,.6-7.42c0-.34-1.91-.06-1.93.52-.1,3.07-.52,6.17.33,9.17.13.48,1.8,0,1.92-.42.89-2.83.62-5.71.61-8.64,0-.36-1.92-.06-1.93.51,0,2.86-.09,5.71-.13,8.56,0,.34,1.92.07,1.93-.52,0-2.85.09-5.7.13-8.55l-1.93.51c0,2.86.28,5.69-.59,8.46l1.92-.42c-.85-3-.42-6.11-.33-9.18l-1.93.52a36.49,36.49,0,0,1-.57,7.23l1.92-.42c-2.14-3.6-.42-8.92-.27-12.85l-1.93.52c0,2.06-.1,4.12-.25,6.18s-.2,6.21-2.1,7.54l1.7-.21a40,40,0,0,1,1.1-10.29l-1.92.43c.33,3.46-.19,8.27-2.91,10.76l1.84-.32a18.47,18.47,0,0,1,2-10.27l-1.91.33c-1,4.48-1,9.21-3,13.4l1.92-.42a21.38,21.38,0,0,1,2.1-13.94l-1.92.43c-.08,4.68.2,10.53-2.58,14.54l1.92-.43c-1-4-1.19-9.64.68-13.34l-1.92.42a58,58,0,0,1-1.61,12.72l1.92-.42a17.48,17.48,0,0,1,.63-10.91c.16-.36-1.69-.18-1.9.33Z"/><path class="cls-2" d="M176.84,217.28c-1.16-7,.54-14.06-.35-21.1-.35-2.83-1.21-5.54-1.47-8.39a98.17,98.17,0,0,1,.1-10.29c0-.43-1.92-.13-1.93.52a93.23,93.23,0,0,0,1.37,18.67c1.27,7-.82,14.09.35,21.1.09.52,2,.08,1.93-.51Z"/><path class="cls-2" d="M64.53,151.37c-1.74,6.3,3.45,11.15,9.33,12.07.5.08,2.26-.75,1.22-.91-5.54-.86-10.24-5.63-8.64-11.45.15-.55-1.76-.27-1.91.29Z"/><path class="cls-2" d="M90.35,155.82c2.66,2.06,5.37,3.78,8.82,2.64,1.14-.38.85-1.56-.32-1.17-2.73.9-4.94-.92-7-2.51-.6-.46-2.34.4-1.51,1Z"/><path class="cls-2" d="M109.94,146.29c0-.2,0-.41,0-.61,0-.81-1.92-.41-1.93.24,0,.2,0,.41,0,.61,0,.81,1.92.41,1.93-.24Z"/><path class="cls-2" d="M113.93,131.61c1.68.64,2.34,2.44,3.49,3.67.36.39,2.17-.3,1.82-.68-1.26-1.34-1.9-3.08-3.73-3.78a2,2,0,0,0-1.35.23c-.22.11-.63.41-.23.56Z"/><path class="cls-2" d="M172.6,63.78a5,5,0,0,1,3.44,1.6c.65.65,2.47-.16,1.77-.88a7,7,0,0,0-5.06-2.21c-1.14,0-1.45,1.45-.15,1.49Z"/><path class="cls-2" d="M191.78,74.11c1.14,1.71,2.78,2.9,4.21,4.35.43.44,2.25-.27,1.8-.72-1.42-1.45-3.06-2.64-4.21-4.35-.31-.48-2.19.14-1.8.72Z"/><path class="cls-2" d="M205.54,88.1q0,3.38-.11,6.73c0,1,1.95.75,2-.14q.06-3.36.11-6.73c0-1-1.95-.75-2,.14Z"/><path class="cls-2" d="M179.31,129a3.89,3.89,0,0,0,.92.69,4.31,4.31,0,0,1,.89.56,1.15,1.15,0,0,0,1.32.15c.28-.14.81-.65.45-1a4.18,4.18,0,0,0-.92-.69,3.92,3.92,0,0,1-.89-.56,1.13,1.13,0,0,0-1.31-.14c-.29.13-.82.65-.46,1Z"/><path class="cls-2" d="M183.84,146.3c.24-.22.21-.13,0-.11h.36a2.5,2.5,0,0,0,1.36-.36c.31-.2.26-.44-.11-.44a4.74,4.74,0,0,0-3.35,1.05c-.33.3.3.35.46.33a2.2,2.2,0,0,0,1.29-.46Z"/><path class="cls-2" d="M213.24,136.37a4.1,4.1,0,0,0,2.27-1.54,3.92,3.92,0,0,0,.44-2.13c0-.87-1.93-.48-1.94.22,0,.92,0,2-1,2.38-.3.11-.94.36-.83.79s.81.38,1.11.28Z"/><path class="cls-2" d="M157.17,92.73l2.44,0a1.51,1.51,0,0,0,1.28-.54c.24-.39-.21-.62-.54-.62l-2.45,0a1.49,1.49,0,0,0-1.27.54c-.24.39.21.61.54.62Z"/><path class="cls-2" d="M59.32,132.17c.8,0,2-1.21.72-1.21-.8,0-2,1.21-.72,1.21Z"/><path class="cls-2" d="M134.91,91.58a9,9,0,0,1,4,1.23,1.81,1.81,0,0,0,1.25-.12c.06,0,.89-.38.58-.54a10.41,10.41,0,0,0-4.54-1.35,2.53,2.53,0,0,0-1.37.36c-.31.2-.26.4.11.42Z"/><path class="cls-2" d="M145.49,160.43a19,19,0,0,0,5.72.74,1.39,1.39,0,0,0,1.26-.56c.23-.4-.19-.69-.56-.7a17.69,17.69,0,0,1-5.27-.66c-.72-.24-2.28.81-1.15,1.18Z"/><path class="cls-2" d="M158.13,161.15a11.08,11.08,0,0,0,4.67.78,1.5,1.5,0,0,0,1.27-.55c.24-.39-.2-.63-.54-.64a9.06,9.06,0,0,1-3.87-.58,1.54,1.54,0,0,0-1.38.16c-.26.18-.57.62-.15.83Z"/><path class="cls-2" d="M175.12,160c1.59,1.51,3.93,1.23,5.87.65.15,0,1-.25.89-.54s-.89-.08-1,0a3.74,3.74,0,0,1-3.89-.73c-.36-.34-2.1.39-1.82.65Z"/><path class="cls-2" d="M190,153.62c6.14,1.66,8.57-4.87,11.59-8.85l-1.79.38c3,2.28,6.31,1,6.19-3l-.87.61c2.5-.75,6-1.3,7.89-3.32a4.65,4.65,0,0,0,1.31-4.05c-.25-2.54.38-4.61.45-7.16,0-.39-1.91-.1-1.93.52-.1,3.35-.1,1.83-1.29,4.77-.1.25.92,3.53.85,4.11-.34,3-5.1,3.72-7.47,4.43-.26.08-.88.25-.87.61l-2.45,1.78a1.73,1.73,0,0,0-1.79.39c-1.83,2.41-4.28,9-8.25,7.95-.48-.13-2.2.63-1.57.81Z"/><path class="cls-2" d="M184.45,73.35c2.34,2.11,5.07,3.07,7.88,4.41,2.22,1.06,3.27,3.48,5.4,4.69,1.94,1.1,4.2,1.48,6.14,2.65,3.73,2.23.64,6.85-1.38,9.07-.13.14-.11.25.08.3a5.73,5.73,0,0,1,2.91,1.84c.37.36,2.13-.36,1.82-.66s-2.81-1.9-2.27-2.5a12.27,12.27,0,0,0,2.41-4.57c.85-2.61-1.5-4.12-3.52-5.09-2.87-1.39-5.17-1.89-7.36-4.44-2.66-3.1-7.25-3.62-10.29-6.36-.39-.35-2.12.39-1.82.66Z"/><path class="cls-2" d="M188,76.22v0c.1-.1.19-.21.29-.32l-.05,0,.73-.27h-.07l.47.05c-.21-.06-.54-.48-.73-.67a1.15,1.15,0,0,0-1.3-.12c-.29.13-.81.6-.47,1a3.49,3.49,0,0,0,1.37,1.1,1.33,1.33,0,0,0,1.7-1c.1-1-1.86-.66-1.95.17Z"/><path class="cls-2" d="M173.4,65.6c.58-.5,2.19,1.13,2.59,1.53s2.25-.27,1.81-.72c-1.6-1.6-3.93-2.74-5.93-1-.29.25-.24.53.16.59a1.87,1.87,0,0,0,1.37-.36Z"/><path class="cls-2" d="M145.36,92c4.55,2,8.94,2.91,12.39-1.41l-1.68.16c1.33,2.13,3.88,2,5.46.17,2.28-2.59-.15-5.22-2.71-6.08-.77-.26-2.28.86-1.13,1.24,1.51.51,2.88,1.37,2.73,3.13s-1.66,2.18-2.58.71c-.32-.52-1.38-.22-1.69.16-2.81,3.52-6.12,2.24-9.65.68-.76-.33-2.25.75-1.14,1.24Z"/><path class="cls-2" d="M177.48,130.09c4.36-2,3.5,3.61,3.47,6.12l1.35-.75h-.61a1.55,1.55,0,0,0-1.35.63c-1,1.88-1.82,3.79-2.71,5.69-2,4.33-6,5.15-10.09,6.38-1.13.34-.92,1.18.22.83,2.82-.85,6.3-1.45,8.68-3.36,3.06-2.44,4.1-6.4,5.82-9.82l-1.35.63h.61c.42,0,1.35-.21,1.36-.75a36.79,36.79,0,0,0-.5-7.34c0-.22-.42-.25-.57-.24a13.6,13.6,0,0,0-5.06,1.32c-1.22.57-.08,1,.73.66Z"/><path class="cls-2" d="M145.21,157.77c3.56,3.66,9.08,7.58,11.62.88l-1.86.5c1.7,2.78,5.67,6.78,8.84,3.34,1.44-1.55,4.48,1,6.33.5,2.12-.56,3.18-2.15,4.35-3.92.49-.73-1.45-.54-1.79,0-3.17,4.75-4.83.69-8.44,1.84a3.54,3.54,0,0,0-1.63.92c-2.17,2-5-2-5.87-3.4-.33-.55-1.69,0-1.86.5-1.91,5-6.3-.24-7.9-1.88-.46-.47-2.29.24-1.79.75Z"/><path class="cls-2" d="M114.34,132.55a1.8,1.8,0,0,1-.08.21c-.09.24.21.43.4.47a6.07,6.07,0,0,0,2.64-.2l-1-.16c1.57,2.16.71,4.83,3.33,6.24a2.55,2.55,0,0,0,3.26-.39l-1.8.34c2,3.4.93,6.47.37,10.11-.13.85,1.82.53,1.94-.2.62-4,1.64-7.05-.53-10.7-.35-.59-1.52,0-1.8.34.9-.47.61-.84-.88-1.12a3.21,3.21,0,0,1-.78-1.85,9,9,0,0,0-1.33-3.56c-.22-.3-.74-.22-1-.15-.71.15-.6.11-.72.41.28-.72-1.67-.49-1.94.21Z"/><path class="cls-2" d="M223.37,76.82l1.56-.82-.83-.25c1.08,2.57.31,5.55,1.45,8.07,1,2.18,4.08.73,5.49,0h-1.57a11.58,11.58,0,0,1,1.13,6c0,.78,1.92.36,1.93-.25a12.16,12.16,0,0,0-1.12-6.27c-.29-.52-1.17-.22-1.56,0-2.67,1.44-2.81-1-3-3a16,16,0,0,0-.85-5c-.12-.3-.56-.3-.83-.26a7.21,7.21,0,0,0-3.37,1.56c-.86.67,1.07.65,1.54.29Z"/><path class="cls-2" d="M139.62,55a3.84,3.84,0,0,0,4.61-.89c.27-.26.26-.52-.16-.58a1.86,1.86,0,0,0-1.37.36c-.15.15-.31.29-.47.43s-.46.25-.16.19-.2-.07-.28-.1a3.71,3.71,0,0,1-.61-.28c-.5-.25-2.28.5-1.56.87Z"/><path class="cls-2" d="M147.06,53.51c1.07,0,1.51-1.33.19-1.33-1.07,0-1.51,1.33-.19,1.33Z"/><path class="cls-2" d="M111.8,100.08c0,1.28,1.5,1.23,2.46,1.24a1.32,1.32,0,0,0,1.26-.58.58.58,0,0,0-.58-.79,8.7,8.7,0,0,1-1.14,0c-.07,0-.16-.06-.08,0s0,.09,0,0c0-1-2-.68-2,.16Z"/><path class="cls-2" d="M94.07,100.59c.62,2.13.65,4.35,1.82,6.3.43.73,2.28,0,1.77-.84-1.09-1.82-1.08-4-1.66-6-.25-.88-2.18-.35-1.93.52Z"/><path class="cls-2" d="M97.43,103.22c.19,0,.26.33.26.48,0,.33,1.93,0,1.93-.52s-.49-.71-.94-.76a2.36,2.36,0,0,0-1.37.37c-.33.21-.24.4.12.43Z"/><path class="cls-2" d="M99,98.22a9.86,9.86,0,0,0,1.13,5.52c.34.56,2.16-.14,1.93-.52a9.84,9.84,0,0,1-1.13-5.52c0-.44-1.92-.13-1.93.52Z"/><path class="cls-2" d="M101.48,95c-.08,2.5-.58,5.06,1.21,7.11.6.68,2.43-.11,1.77-.87-1.61-1.83-1.09-4.14-1-6.37,0-1-1.94-.77-2,.13Z"/><path class="cls-2" d="M103.36,93.27a5.13,5.13,0,0,0,1.2,5.14c.42.46,2.26-.23,1.8-.73A4.66,4.66,0,0,1,105.28,93c.19-.61-1.73-.34-1.92.27Z"/><path class="cls-2" d="M105.85,89.59c0,1.53-.13,3.29,1.39,4.15a1.33,1.33,0,0,0,1.38-.13c.3-.22.54-.72.12-1-1.14-.64-1-2.1-.94-3.22s-1.94-.67-2,.16Z"/><path class="cls-2" d="M109,85.54l0,1.83c0,.24,1.93,0,1.94-.52s0-1.22,0-1.83c0-.25-1.92,0-1.93.52Z"/><path class="cls-2" d="M110.87,84.35a2.5,2.5,0,0,0-2.7.57c-.57.79-.43,2.12-.45,3,0,.24,1.92,0,1.93-.52s0-1.23.09-1.85a3.14,3.14,0,0,1,.17-.75.75.75,0,0,1,.1-.2c.25-.45-1.56.07-1,.34a1.87,1.87,0,0,0,1.23-.13s.88-.37.59-.5Z"/><path class="cls-2" d="M90.37,105.07c-.81,1.73-.73,3.8-.76,5.67,0,1,1.94.65,2-.17,0-1.71-.1-3.73.64-5.32.45-1-1.5-.91-1.84-.18Z"/><path class="cls-2" d="M87.24,105.78a46.33,46.33,0,0,1-.75,8.56c-.2,1,1.78.78,2-.13a45.37,45.37,0,0,0,.74-8.55c0-1.06-2-.8-2,.12Z"/><path class="cls-2" d="M81.72,111.06c-.57,1.17-.71,2.48-1.28,3.65-.47.94,1.49.85,1.83.16.57-1.17.71-2.49,1.28-3.65.46-1-1.49-.86-1.83-.16Z"/><path class="cls-2" d="M77.45,113a3.69,3.69,0,0,0-.74,2.62c0,.29,1.92,0,1.93-.52a3.33,3.33,0,0,1,.56-2.25c.29-.31-.26-.33-.46-.31a2.23,2.23,0,0,0-1.29.46Z"/><path class="cls-2" d="M77.31,114c6.23.19,12.36,1.23,18.58.27.85-.13,1.65-1.11.31-.91-6,.94-12-.13-18.1-.31-.63,0-2.09.91-.79,1Z"/><path class="cls-2" d="M85.76,110a23.48,23.48,0,0,0,6.94.76,1.35,1.35,0,0,0,1.26-.57c.21-.4-.18-.73-.57-.73a22.44,22.44,0,0,1-6.49-.68c-.76-.24-2.28.86-1.14,1.22Z"/><path class="cls-2" d="M87.59,106.1l11,.17c.38,0,2.2-.73,1.27-.75l-11-.17c-.38,0-2.19.73-1.26.75Z"/><path class="cls-2" d="M96.91,102.26a8.67,8.67,0,0,0,7.11-.59c1.12-.67.09-1.76-.87-1.19a6.09,6.09,0,0,1-5.14.44c-.85-.28-2.27,1-1.1,1.34Z"/><path class="cls-2" d="M105.06,91.68a13,13,0,0,0,5.1-2.78c.34-.32-.29-.42-.48-.41a2,2,0,0,0-1.28.49,9.1,9.1,0,0,1-3.54,2c-.19.06-1,.28-.86.62s.86.17,1.06.11Z"/><path class="cls-2" d="M110.19,84.58c.68,0,2.08-1,.78-1-.68,0-2.08,1-.78,1Z"/><path class="cls-2" d="M110.47,74.62c0-1.07.11-2.31-.63-3.16-.37-.43-2.2.24-1.8.7.65.76.51,2,.5,3,0,.45,1.92.14,1.93-.51Z"/><path class="cls-2" d="M50.75,132.92c.08,3.4,2.24,6.61,4.81,8.71.42.34,2.13-.42,1.82-.67-2.54-2.06-4.62-5.21-4.7-8.56,0-.35-1.94,0-1.93.52Z"/><path class="cls-2" d="M49.47,141.61a8.65,8.65,0,0,1,1.11,2.31c.19.43.72.45,1.12.34s1-.44.81-.85a9.49,9.49,0,0,0-1.27-2.62c-.54-.59-2.38.16-1.77.82Z"/><path class="cls-2" d="M54.17,152.64c1.13,1.14,2.49,2,3.62,3.12.44.44,2.26-.27,1.8-.73-1.12-1.13-2.49-2-3.62-3.11-.43-.44-2.25.26-1.8.72Z"/><path class="cls-2" d="M60.08,142.76c-4.25,3.42-1.47,9.05,1.62,12.27,2.5,2.61,6.32,2.85,5.93-1.6,0-.48-.83-.48-1.14-.4-5.86,1.5-.88,10.59,3.35,11.19,1,.14,2-1.2.68-1.39-2.14-.3-7.16-7.6-3.68-8.49L65.7,154c.32,3.69-3-.5-3.85-1.7-1.75-2.4-3.26-6.38-.49-8.62,1-.82-.53-1.47-1.28-.87Z"/><path class="cls-2" d="M71.67,163.21c.16.65.43,1.2.58,1.85,0,.14.24.19.36.2,5,.55,9.31-2.08,13.86-3.61,1.3-.44.09-.9-.71-.63-2.67.9-11.16,5.8-12.16,1.68-.13-.56-2.07-.06-1.93.51Z"/><path class="cls-2" d="M96.68,166.35c.74,0,2-1.12.74-1.12-.74,0-2,1.12-.74,1.12Z"/></svg>