<svg id="layer1" xmlns="http://www.w3.org/2000/svg" viewBox="0 0 196.4 261.78"><defs><style>.cls-1{fill:#f4a240;}.cls-2{fill:#f2c841;}.cls-3{fill:#492d0c;}</style></defs><path class="cls-1" d="M53.86,210.9c12,10.83,26.79,12.65,42.33,12.82,9.73.11,22.84,1.07,32.51-3.28a3.93,3.93,0,0,1-.28-2c-5.58,1.57-11.34,2.49-13.29,3a3.31,3.31,0,0,1-2.67-.41c-13.66,2.94-27.68,2.58-39.75-5.48A3.53,3.53,0,0,1,74.48,209c15.23-1.41,31.11,2.22,46.2-.44,2.79-.64,5.56-1.34,8.29-2.2a3,3,0,0,1,3.35.82l1.82-.78a3.14,3.14,0,0,1,2.21-1.88,3.06,3.06,0,0,1-.58-1.29,113.74,113.74,0,0,1-1.87-13.06,3.28,3.28,0,0,1-.91-1.68c-4.86-21.86-6.5-44.44-6.58-66.8,0-.08,0-.17,0-.26h0V121a3.36,3.36,0,0,1,4-3.35c.32-2.87.59-5.74.64-8.62a3.4,3.4,0,0,1,4.81-3.12,4,4,0,0,1,1-.72,3.67,3.67,0,0,1,.82-1.25c1-5.7,1.93-11.41,2.71-17.13.53-4,6.93-2.93,6.87.93a110.27,110.27,0,0,1-2.85,21.46,3.36,3.36,0,0,1,.08.71,57.33,57.33,0,0,1-.77,8.18c-.47,4.56-1.36,9.12-2.09,13.57-.06.35-.1.7-.16,1.05-.15,4.5-.43,9-.87,13.48,0,6.42.17,12.83.2,19.25,0,.27,0,.55,0,.82h0v.11h0a3.62,3.62,0,0,1-.28,1.36,2.85,2.85,0,0,1,.17.35c3.87,9.5,3.1,20.51,2.93,30.69,1.05,3.7,1.09,7.56-1.27,10.1a3.56,3.56,0,0,1,.91,1.29l.51-.17c4.43-1.25,6,5.18,1.86,6.75-1.61.62-3.23,1.16-4.84,1.74a3,3,0,0,1-1,2.91c-10.82,10.08-28.19,9.36-42,9.33-18,0-35.06-2.37-48.89-14.88C45.55,212.82,50.52,207.88,53.86,210.9Z"/><path class="cls-1" d="M88.11,144.79c.55-7.3.92-14.61,1-21.94,0-3.2-3.69-4.12-5.75-2.78-.2-3.24-.5-6.37-2.5-9.12v-7.5c0-1.38,0-2.45-2-3v-.05h.31l-.1,0a3.39,3.39,0,0,0-2.92-3c0-.87-.29-1.74-.29-2.61V91.38h.35a3.18,3.18,0,0,0-1.55-2.81c-.26-3-.33-6-.33-9.06,0-3.84-6.21-4.83-6.87-.85-.32,1.89-.62,3.8-.9,5.71-1.94-.23-4,.92-3.85,3.34,0,.2,0,.39.06.58-2.15-.73-4.88.37-4.68,3.15,1.1,15.18,5.51,30,5.55,45.26,0,5,.19,10,.13,15.1a3.66,3.66,0,0,0-.93,1.53c-3.43,10.35-7.41,22.4-5.81,33.58-.1.23-.2.46-.31.68a3.68,3.68,0,0,0,1.62,4.84,3.43,3.43,0,0,0,2.5,2.09c0,.13,0,.25,0,.38a3.58,3.58,0,0,0,2.43,3.23A17,17,0,0,0,65.91,204a3.54,3.54,0,0,0,4.14,1.42c1.72,1.86,5.18,1.56,6-1.26.3-1.07.54-2.14.76-3.21a12.22,12.22,0,0,0,2.63,3.83c1.5,1.43,4.53,1.41,5.5-.71,4.39-9.62,3.09-20.41,3-30.68C87.9,163.86,88.05,154.32,88.11,144.79Zm-6.56-9.93c.07-.23.14-.48.21-.72,0,.53-.05,1.07-.07,1.6a.75.75,0,0,0-.07.12,46.87,46.87,0,0,0-3.3,10.69c0-3.06.05-6.13,0-9.2A3.6,3.6,0,0,0,81.55,134.86Z"/><path class="cls-2" d="M76.53,206c0,.08,0,.15,0,.22h0c0,.24,0,.48.09.72.4,2.4,2.75,3,4.6,2.2a3.16,3.16,0,0,0,2,2.77c1,3.34,5.54,2.41,6.65-.37.29-.71.55-1.42.79-2.15A3.48,3.48,0,0,0,94.41,206c0-1,.08-2,.12-3a3.64,3.64,0,0,0,3.77-3.45c0-10.75-.3-21.5-.56-32.26-.2-8.53-1.12-17.51-.25-26,.56-5.53,1.62-11,2-16.55a37.1,37.1,0,0,0,.54,8.6c-1.32,6.36-1.82,13.07.43,19.12a3.71,3.71,0,0,0,2.1,2.18c0,.18,0,.37,0,.56a3.15,3.15,0,0,0-.21.94c-.88,14.77-.92,29.56-.92,44.35a3.28,3.28,0,0,0,1.87,3c.13,2.8,2.8,3.7,4.81,2.83a3.36,3.36,0,0,0,3.41,2.16c1,2.11,4.17,2.4,5.83.9a3.07,3.07,0,0,0,3.09-3c0-2.72,0-5.39,0-8,0-.52,0-1,0-1.56.24,1.52.49,3,.76,4.58a2.85,2.85,0,0,0,1.69,2.2,2.86,2.86,0,0,0-.57,4.17,10.2,10.2,0,0,0,3.13,3.11c2.81,1.76,5.7-1.12,5.18-4-.8-4.38-1.16-8.71-2.68-12.93,0-.14-.12-.26-.18-.39a3.19,3.19,0,0,0,1-2.37c.06-20.66,1.74-41.44-2-61.9a2.79,2.79,0,0,0-.21-.69c.17-3.77.32-7.54.34-11.32a3.53,3.53,0,0,0-6-2.47c-7.06,6.72-7.8,18.24-8.28,27.85a17.67,17.67,0,0,0-3.15,7.29c.09-7.54.11-15.06-1.24-22.51a3.26,3.26,0,0,0-.78-1.33c0-2.12.3-4.22-.7-6.28V117.6a1.45,1.45,0,0,1,0-.29h0v-.92a3.2,3.2,0,0,0-2.11-3.16c-1.71-2.4-5.08-1.12-5.89,1.3a7.06,7.06,0,0,0-1.55-2.42c-.19-5.53-.73-11-.82-16.57,4.24,2.21,10.19,2.25,15,2.2,1.65,4.11,4.38,8.58,8,4.5a3.62,3.62,0,0,0-1-5.57l-.16-.29c-.23-.6-.44-1.2-.64-1.81,0-.12,0-.23,0-.35-.11-2.73-1-4.16-3.5-5.22a3.23,3.23,0,0,0-4,1.71A40.39,40.39,0,0,1,102.6,90c-3.42-.71-5.39-3-8.76-3.82a3.7,3.7,0,0,0-4.49,4.4,3.42,3.42,0,0,0-1.54,2.67v.09h0V94a1,1,0,0,1-.08.47c-2-1.81-5.9-1-5.77,2.47,0,.14.12.27.13.4h0c0,.21,0,.43.08.65.2,3,.73,6.06.85,9.12a3.46,3.46,0,0,0,2.51,3.3c-.24,8-.14,16-.23,24a191.71,191.71,0,0,1-2.57,28.19c-.9,5.62-2,11.12-3.1,16.64a3.29,3.29,0,0,0-1.23,2.6c0,1.41-.11,2.8-.21,4.2C76.73,192.68,75.62,199.29,76.53,206Zm23.21-84.32c.05-1,.06-2,0-3l.24.68C99.89,120.09,99.81,120.87,99.74,121.65Z"/><path class="cls-2" d="M36.85,138.63c.16.34.31.69.46,1a3.29,3.29,0,0,1,.82,1.66c0,.1,0,.2,0,.31a15.66,15.66,0,0,0,1.45,2.55A2.78,2.78,0,0,1,40,147c1.46,3.59,2.61,7.31,4,10.92.46,1.2,1,2.62,1.69,4.07,2.21,1.77,4.21,3.75,6.33,5.59a5.11,5.11,0,0,0,4.1.24c4.07-1.87,7.63,4.16,3.53,6a11.41,11.41,0,0,1-2.16.72,3.1,3.1,0,0,1-3.3,2.53c-9.08-.48-13.32-8-16.43-16a2.79,2.79,0,0,1-1.37-1.4,71,71,0,0,1-4.05-12.85s0-.05,0-.08a31.89,31.89,0,0,1-1.84-5.46C29.66,137.64,35.11,134.86,36.85,138.63Z"/><path class="cls-2" d="M26.19,113.72a62.88,62.88,0,0,0,2.42,11c1.37,4.35,7.58,2.54,6.75-1.86-.39-2-1-4.5-1.74-7.23,0,0,0-.1,0-.15A37.31,37.31,0,0,1,35.5,104a3.49,3.49,0,0,0,.43-.61c1.08-2,2-5.78,3.77-7.25,3.11-2.53,9.23,2,11,4.26,2.81,3.53,7.73-1.46,5-4.95A19.91,19.91,0,0,0,45.32,89a3.53,3.53,0,0,0-.7-3.69l-1.85-1.85a3.5,3.5,0,0,0-3.37-.91,3.57,3.57,0,0,0-.95-.13H36.6a4.07,4.07,0,0,0-1,.14,3.33,3.33,0,0,0-2.58.35C22.27,89.27,23.73,102.22,26.19,113.72Zm5.7-18-.24.16a14.7,14.7,0,0,1,.77-2.35,3.54,3.54,0,0,0,.52.25C32.57,94.46,32.22,95.1,31.89,95.77Z"/><path class="cls-3" d="M148.41,87.15c-1.67,12.15-3.92,24.2-5.8,36.31a247.92,247.92,0,0,0-2.6,39.92,75.21,75.21,0,0,0,.75,13.25c.78,4.18,1.57,8.37,2.28,12.57,1.05,6.16,3.73,15.44,1.28,21.5-.27.67,1.66.44,1.93-.23,2.11-5.19.12-12.78-.67-18-1.39-9.23-3.5-18-3.62-27.34A251.92,251.92,0,0,1,144.28,125c1.87-12.72,4.31-25.36,6.07-38.1.11-.81-1.84-.47-1.94.22Z"/><path class="cls-3" d="M147.76,68c9,.55,16,2.73,21.28,10.17,3.11,4.32,6.35,10.62,5.05,16.1-2.28,9.57-13.53.39-16.67-3-2.47-2.64-6-8.1-10.24-7.71-4.44.41-6.45,4.34-8.11,8C137.52,95.11,137,99,135,102.22c-3.61,5.93-11.53,1.78-13.83-2.66-2.82-5.41-5.45-8.86-12.21-8-6.26.83-8.92-2.29-13.24-6.13-2.59-2.3-5.35-2.78-8.67-2.5-.3,0-1.35.2-1.39.61C85.16,88.44,82,90.67,78,87.33c-2.6-2.16-3.27-5.7-2.92-8.87l0-.06c-2.58-1.19-5.88-1.55-7.94.88-1.87,2.21-2.92,4.93-4.91,7-2.95,3.13-6.06.59-7.64-2-1.36-2.21-.88-4.86.32-7,.1-.17-1.64-.1-1.9.37-2.67,4.73.47,12,6.53,10.79,5.49-1,6.4-6.66,9.94-10,3.33-3.14,3.64,3.44,3.89,4.68a9.69,9.69,0,0,0,2.19,4.09A7.39,7.39,0,0,0,80.66,90c4.35,0,6.5-2.74,6.94-6.93l-1.4.61c6.86-.57,9.3,5,14.43,8.09,4,2.41,9.1-.38,13.35,1.29,3.44,1.35,4.42,5.69,6.12,8.56a8.53,8.53,0,0,0,7.3,3.86c6.19.15,9.47-2.21,11.48-8.1,1.47-4.3,2.6-9.08,6-12.35,2.61-2.53,6.89,2.73,8.32,4.26,4,4.29,7.81,9.31,14.13,9.49,3.66.1,8.25-1.5,8.85-5.62.92-6.35-3-13-6.86-17.72-5.09-6.34-12.53-7.69-20.27-8.16-.37,0-2.2.66-1.27.72Z"/><path class="cls-3" d="M146.18,65.81c-5-4.2-2.9-11.68-6.1-16.82-2.53-4.06-7.27-8.42-12.18-9.27a11.14,11.14,0,0,0-9.65,2.44c-4.77,4.38-7.06,15.49-16,9.22-4.23-3-12.67-16.3-19.41-11.28-3.73,2.78-3.39,7.91-7.75,10.47-3.61,2.14-8.23,2.7-12.28,3.54-4.93,1-9.49,2.13-14.58,2-.4,0-1.44.08-1.57.6-2,7.57,7.29,15.15,3,22.09-.21.35,1.6.22,1.92-.3C56,71.4,46.65,64,48.62,56.38l-1.57.6c5.75.18,11-1.09,16.63-2.25,4.65-1,10-1.72,14-4.57,3-2.16,4.75-10.91,9-9.5,6,2,9.22,7.58,13.8,11.42a9.75,9.75,0,0,0,9.81,1.27c3.95-1.53,5.42-5.59,7.57-8.86,6-9.09,19-.36,21.34,7.3,1.52,4.92.87,11.14,5.18,14.72.45.38,2.2-.36,1.8-.7Z"/><path class="cls-3" d="M54.29,90.76c7.2,16.82,7.52,36.34,6,54.29-1.52,18.17-5.54,37.84-15.58,53.36-.18.29,1.59.18,1.91-.31,9.89-15.29,13.69-34.31,15.47-52.16,1.83-18.29,1.45-38.54-5.89-55.7-.22-.52-2.1.11-1.93.52Z"/><path class="cls-3" d="M146.37,212.26c.69,8.56-10.92,12.41-17.31,14.24-11.67,3.35-24.26,4-36.33,3.29-16.37-.93-51.87-7.09-44-31.29.35-1.08-1.58-1.09-1.85-.24-8.46,26,29.43,32.2,46.93,33.07,13,.64,26.56-.34,38.94-4.49,6.63-2.22,16.22-6.7,15.54-15.1-.07-.92-2-.44-1.93.52Z"/><path class="cls-3" d="M140.66,203.85c-5.21,4.32-12.14,5.73-18.66,6.81a127.58,127.58,0,0,1-22.43,1.52c-8.57-.13-17.82-.68-25.57-4.53-5.87-2.92-10.94-7.25-16.69-10.39-.52-.29-2.13.51-1.82.68,6.74,3.68,12.66,8.64,19.68,11.81,7.94,3.58,18.43,3.31,27,3.31,12.55,0,29.85-.66,40-9.09.78-.65-1.14-.42-1.5-.12Z"/><path class="cls-3" d="M158.13,110c3.15,1,4.7,4.47,4.17,7.56a3.44,3.44,0,0,1-3.43,3.07c-1.81,0-1-2.77-.67-3.94.51-2.1,1.52-2.48,2.37-.34.27.67,2.17.09,1.93-.51-.67-1.71-2.07-3.37-4-2.14-2.45,1.52-2.73,5-2.45,7.54,0,.16.26.24.38.26,3.41.62,7-.52,7.84-4.19a7.2,7.2,0,0,0-4.91-8.34c-.6-.18-2.27.7-1.19,1Z"/><path class="cls-3" d="M165.36,53.48c.5,1.89-2.34,4.08-4.05,3.83-2.92-.42-3.22-5.4-2.12-7.43s3.42-2,5.17-.94c2.43,1.44,2.51,4.61,1.91,7-.18.72,1.76.42,1.93-.24.83-3.35,0-7.27-3.68-8.35-2.76-.8-6.11.23-7.38,2.94-1.46,3.13.12,8.22,4.06,8.11,2.35-.06,6.86-2.54,6.09-5.47-.18-.69-2.11-.17-1.93.51Z"/><path class="cls-3" d="M149.18,39.41c-.67.68-1.22,1.09-2.12.6a4,4,0,0,1-1.57-1.9c-1-2.13-.8-4.75-.39-7-.29.17-.58.34-.86.52,2.63-.82,3.82,1,5.22,2.92.31.43,2.17-.2,1.81-.69-.81-1.11-1.69-2.56-3-3.1a6.16,6.16,0,0,0-4.21.14c-.22.06-.8.22-.86.51-.53,2.93-.79,7.08,1.85,9.14,1.85,1.44,4.51.19,5.92-1.24.47-.48-1.41-.29-1.77.08Z"/><path class="cls-3" d="M127.07,15.11a2.78,2.78,0,0,1-.41,1.16,2.12,2.12,0,0,1-.38.46c-.26.27-.41.13.09.14a2.26,2.26,0,0,0-1.36.37c-.3.2-.27.48.13.49A3.65,3.65,0,0,0,129,14.6c0-.35-1.87-.11-1.93.51Z"/><path class="cls-3" d="M126.89,13.1l-1.14-1.55-.57-.78c-.36-.49.85-1.53,1.16-1.77.85-.65,2.76,2,3.14,2.47s2.16-.23,1.82-.69c-1-1.25-2.27-2.9-4-2.73a5.54,5.54,0,0,0-4.21,2.86.14.14,0,0,0,0,.18l2,2.7c.29.4,2.15-.22,1.81-.69Z"/><path class="cls-3" d="M117.8,119.73c-.8.91-1.09,2-2.45,2l.9.67a13.45,13.45,0,0,1,.52-4.24c.33-.79,1.55-1,2.26-1.24l-1.17-.62c-.07,1.28-.15,2.57-.22,3.85-.07,1,1.9.78,2-.13.07-1.28.15-2.57.22-3.85,0-.59-.71-.78-1.16-.63-1.23.41-2.72.79-3.49,1.93-.93,1.39-.78,3.48-.88,5.06,0,.52.49.66.91.67,2.25,0,2.91-1.3,4.23-2.81.81-.92-1-1.29-1.63-.61Z"/><path class="cls-3" d="M103.77,104.8c-.65.73-1.22,1.85-2.11,2.31s-1.17-2.12-1.23-2.58c-.17-1.29.1-3,1.18-3.72a1,1,0,0,1,.35-.16c-.11,0,.25,0,.15,0a1,1,0,0,1,.77.65c.69,1.57-.62,3.59-1.43,4.82-.27.4.22.66.55.68a1.4,1.4,0,0,0,1.27-.56c1-1.55,2.53-4.14,1.26-6-1-1.39-3.17-.92-4.31-.07-1.81,1.35-2,3.72-1.56,5.77.16.7.32,1.62,1,2a3.09,3.09,0,0,0,2.27.29c1.59-.3,2.48-1.94,3.47-3,.8-.88-1.08-1-1.58-.44Z"/><path class="cls-3" d="M110.2,66.72a14.27,14.27,0,0,1-1.3,2,4.36,4.36,0,0,1-.66.63c-.37.31.12.11-.06,0-.68-.25-.88-1.32-1-1.93-.33-2,.47-4.72,2.44-5.61l-1.34-.1a20.27,20.27,0,0,1,.61,7.64c0,.75,1.9.34,1.93-.26a21.45,21.45,0,0,0-.6-7.9c-.15-.46-1.06-.23-1.34-.11A6.41,6.41,0,0,0,105.52,69,2.14,2.14,0,0,0,108,70.39c1.92-.28,3.12-2.12,4-3.66.43-.77-1.5-.52-1.79,0Z"/><path class="cls-3" d="M100.6,29.93c-.8,1.54-2,2.55-3.52,1.33s-1.87-3.73-1.8-5.57l-1.06.78c1.51,0,2.84-1,4.33-1L97.67,25c.52,1.57,1,3.21-.15,4.59-.81.93,1,1.25,1.62.59,1.5-1.73,1.13-3.67.46-5.7a.82.82,0,0,0-.88-.45c-1.51,0-2.84,1-4.33,1-.4,0-1,.32-1.07.79-.11,2.76.61,5.88,3.31,7.19,2.43,1.17,4.77-.82,5.81-2.85.51-1-1.45-1-1.84-.24Z"/><path class="cls-3" d="M70.1,25.66A7,7,0,0,0,68.47,27c-.2.21-.39.42-.6.62-.46.46-.27-.13.78-.05a1,1,0,0,1-.41-.22c-.46-.33-.82-.77-.5-1.32a2.63,2.63,0,0,1,.28-.4l.19-.19c-.75.07-1,.13-.63.17.48.07.9.34,1.39.39a2.7,2.7,0,0,0,1.34-.26c.11-.05.7-.4.26-.45-.86-.09-1.48-.52-2.38-.38a3.38,3.38,0,0,0-2.64,2l0,.08c.36.47.79,1.1,1.4,1.25a3.18,3.18,0,0,0,1.82-.26c1.14-.47,1.74-1.68,2.81-2.28.32-.18.26-.37-.1-.37a2.83,2.83,0,0,0-1.36.37Z"/><path class="cls-3" d="M55.09,90.07C50.28,86.55,47.18,80.79,42,77.78c-4.61-2.7-9.67-2.15-14.25.37-5.93,3.27-9,10.71-10.86,16.81-2.49,8.06-3.07,16.83-.42,24.87S24.26,135,26.64,143.29c1.83,6.35,2.47,13,3.68,19.51,2,10.76,6.09,22.65,19,22,.65,0,2.11-1,.75-1.08l-3.19-.19c-.72,0-2.06,1-.75,1.08l3.19.19.75-1.08c-12.44.58-15.88-11.47-17.84-21.48-1-5.17-1.67-10.39-2.72-15.55-1.3-6.4-4-12.19-6.86-18-3.38-6.71-6.29-13.36-6-21A51.35,51.35,0,0,1,22,86.89C25.85,79.2,34.27,73.77,42,79.83c4.16,3.25,7,7.85,11.27,11,.54.39,2.31-.38,1.79-.75Z"/><path class="cls-3" d="M59.15,105.5c-7.06-2.62-11.85-10.29-20.25-8.6-9.86,2-9.55,15.45-7.6,22.63,1.43,5.29,3.92,10.28,6.14,15.26,2.29,5.14,3.34,10.33,4.42,15.82,1.78,9,4.71,17.14,14.9,18.1.21-.49.43-1,.65-1.46L53.16,167c-1-.06-2,1.38-.66,1.46l4.26.25c1,0,2-1.33.65-1.46-10.17-.95-12.18-9.91-13.87-18.42a65.06,65.06,0,0,0-2.75-11.21c-1.58-4.07-3.55-8-5.22-12-3.27-7.86-7.62-23.41,3.7-27.32C46,96,52.35,104.73,58.05,106.85c.86.32,2.26-.92,1.1-1.35Z"/><path class="cls-3" d="M128.06,124.78c-1.36,23.07-3.5,48.06,5.47,70l1.75-.67a15.62,15.62,0,0,0-4.77-.34c-2.83.33-3.84.06-5-2.73-2.37-5.75-.68-13.28.06-19.18,1.92-15.36,2.37-30.89,3.28-46.34,0-.37-1.89-.11-1.93.52-1,16.86-1.87,33.67-3.78,50.45-.64,5.65-1.35,11.62,1.25,16.87,1.53,3.09,6.79,1.07,9.32,1.56.26.05,2-.12,1.75-.66-9-21.89-6.83-46.89-5.47-70,0-.37-1.89-.11-1.93.52Z"/><path class="cls-3" d="M82.25,105.31c2,5.2,1.54,11.2,1.31,16.65-.31,7.37-1,14.76-1.52,22.13-1.23,16.77-3.67,33.6-9.28,49.52l1.92-.29c1.11-18.78,2-37.58,3.36-56.34a174.85,174.85,0,0,0,.57-18.45c-.17-4.76-.55-10.79-4.07-14.4l-1.29.83c4.42.18,9.67-.23,9.76,5.55,0,.49,1.94.15,1.93-.52-.1-6.3-6.13-5.78-10.9-6-.24,0-1.75.37-1.3.83,3.74,3.84,3.8,10.47,4,15.47a178,178,0,0,1-.74,18.9c-1.25,18.12-2.15,36.27-3.22,54.4,0,.7,1.75.21,1.92-.29,5.8-16.47,8.13-33.85,9.4-51.2.47-6.41,1-12.84,1.34-19.26.3-5.88.87-12.45-1.24-18.07-.22-.58-2.13,0-1.93.52Z"/><path class="cls-3" d="M82.1,107.88c4.52,22.53-.2,47.13-5.16,69.22-.12.55,1.79.23,1.92-.31,5-22.1,9.7-46.87,5.17-69.43-.1-.5-2,0-1.93.52Z"/><path class="cls-3" d="M80,106.3l-4.11,69.39c-.05.95,1.91.63,1.95-.18L82,106.12c.05-1-1.91-.63-1.95.18Z"/><path class="cls-3" d="M123,137.38c2.95,20.11-2.28,40.18-1.45,60.34,0,1,1.91.68,2-.16.12-2.14.25-4.28.37-6.43.06-1-1.9-.68-2,.17-.13,2.14-.25,4.28-.38,6.42l2-.16c-.84-20.28,4.39-40.46,1.43-60.7-.13-.86-2.07-.38-1.94.52Z"/><path class="cls-3" d="M123.44,169.92l-1.06-.06a1.3,1.3,0,0,0-1.26.58c-.22.41.18.74.57.76l1.07.06a1.3,1.3,0,0,0,1.26-.58c.21-.41-.18-.74-.58-.76Z"/><path class="cls-3" d="M101.7,137.41c4.49,20.71-1.32,42.26-2.66,63,0,.27,1.89,0,1.93-.51,1.34-20.76,7.15-42.32,2.66-63-.09-.41-2,.06-1.93.52Z"/></svg>