<svg id="layer1" xmlns="http://www.w3.org/2000/svg" viewBox="0 0 245.81 595.91"><defs><style>.cls-1{fill:#f9deb7;}.cls-2{fill:#664a2f;}.cls-3{fill:#1ca332;}.cls-4{fill:#f99115;}.cls-5{fill:#efb82e;}.cls-6{fill:#492d0c;}</style></defs><path class="cls-1" d="M62.17,313.41c-.81-5.07-4.12-9.84-6.13-14.48-.91-2.14-3.62-1.92-5.24-.69a3.46,3.46,0,0,0-1.45-.13h-.53a3.28,3.28,0,0,0-3,1.54c-3.55,7.42-8.3,14.12-11.39,21.75-.72,1.8.79,3.75,2.45,4.25,3.27,1,6.63,1.57,10,2.23a26.46,26.46,0,0,0,7.24,1.54,2.93,2.93,0,0,0,2.62-1.13,2.73,2.73,0,0,0,3.56-1.67A22.54,22.54,0,0,0,62.17,313.41Zm-12.35,7.92c-.46-.19-.91-.38-1.34-.59,1.19-2.31,2.21-4.7,3.3-7.06a19.23,19.23,0,0,1,2.44,2.62,3.3,3.3,0,0,0,1,.83l.14.27a13.38,13.38,0,0,1-.89,5C52.93,322,51.38,321.64,49.82,321.33Z"/><path class="cls-1" d="M183.16,302.6c-2.18-3.35-3.82-7.23-7.15-9.57-1.17-2.56-5.66-3-6.6.43a5,5,0,0,0,.29,3.48,2.71,2.71,0,0,0,.39.73l.25.33c.13.18.23.32.32.43a3.55,3.55,0,0,0,3.11,2.07c1.32,1.72,2.24,3.93,3.34,5.64C179.56,309.91,185.62,306.4,183.16,302.6Z"/><path class="cls-1" d="M140,102.85a3.19,3.19,0,0,0-.13-.74h0s0-.22,0-.23c-.13-.9-.28-1.9-.39-2.8a4,4,0,0,0-.52-1.56v-.08a3.55,3.55,0,0,0-1.31-2.67c-.1-1-.22-2-.39-3a2.86,2.86,0,0,0-1.26-2,32.61,32.61,0,0,0-1.89-10.11,3.84,3.84,0,0,0-2.64-2.33,10.27,10.27,0,0,0-3.35-3.59c-6.55-4.38-16.59,1.09-23.73,3.26a3.67,3.67,0,0,0-2-.91h-.53a3.66,3.66,0,0,0-3,2,93,93,0,0,0-4.33,14.24,3.77,3.77,0,0,0-2.85,4.39c.85,4.56,3.22,9.24,7.65,9a20.88,20.88,0,0,0,2.4,7.13,3.29,3.29,0,0,0,.28,1c.23.49.47,1,.71,1.45a3.81,3.81,0,0,0-.14,1c0,2.68.15,5.37.12,8.05a3.23,3.23,0,0,0-.27.44,3.5,3.5,0,0,0-1.47,1.3l-.81,1.3a2.88,2.88,0,0,0-.74.62c-5.54,6.46-2.74,14,3,18.58a9.31,9.31,0,0,0,4.52,3.74c2.48,3.27,7.29,5.48,8.41,9.45s6.54,2.88,6.87-.93c.45-5.15,3.73-9,6.56-13.05.48-.69.91-1.4,1.31-2.11a10.64,10.64,0,0,0,1.81-2.5c3.23-6.42,1-14.91.83-21.74a3.27,3.27,0,0,0-.64-1.88l0-.1a3,3,0,0,0-2.56-2.43c2.11-3,3.88-6.12,5.87-9.19C137.51,106.66,140.36,105.68,140,102.85Zm-17.19,9.36c-1.36,1.76-3.32,4.13-5.7,4.41a6.86,6.86,0,0,1-5-1.88,32.18,32.18,0,0,0-2.94-4.69,1.72,1.72,0,0,0,.07-.21l.08,0A25.19,25.19,0,0,0,123.74,111C123.45,111.4,123.16,111.81,122.85,112.21Z"/><path class="cls-2" d="M106.64,540.17c1.31-5.63,1.66-13.09-3-17.29a6.32,6.32,0,0,0-1.75-1.07,10.44,10.44,0,0,0-.54-7.58c-.43-1-2.91-.68-3.68-.52-1.31.25-2.62.45-3.93.65a7.56,7.56,0,0,0-1.79,0c-1.05,0-1.93-.22-2.7.78H88.12c-.63,0-2.42,0-2.48.91,0,.55-.08,1-.12,1.51a23.8,23.8,0,0,0-1.22,9.15c0,.61-.09,1.18-.13,1.72-.55,7.28-.4,15.51,2.39,22.39.8,5.7,4.06,10.75,11,8.24,3.42-1.24,5.29-4.62,6.18-8.61a24.4,24.4,0,0,0,1.07-4.14A37.12,37.12,0,0,0,106.64,540.17ZM91.88,517.11H92c.11,0,.21-.15.31-.15a4.9,4.9,0,0,1,1.08,1.67,9.84,9.84,0,0,0-2.26-.34c.18-.37.37-.61.58-1C91.76,517.19,91.82,517.11,91.88,517.11Zm1.79,39.74a6.56,6.56,0,0,0,1.83-.11,7.15,7.15,0,0,1-.57.53C94.52,557.58,94.09,557.34,93.67,556.85Z"/><path class="cls-2" d="M60.2,371.86c-.05-.13-.09-.25-.13-.38.63-4.63.4-9.54-1.94-13.43a2.24,2.24,0,0,0-.92-1.32c-.27-.34-.55-.67-.86-1a16.52,16.52,0,0,0,1.21-9,2.21,2.21,0,0,0-1-1.42c-.08-.59-.16-1.17-.28-1.75-.33-1.69-4-3.36-4.79-1.18a36,36,0,0,0-1.66,7.82,24.69,24.69,0,0,1-4.46,7c-1.43,1.57,1.54,3.07,3.25,2.89a4.14,4.14,0,0,0,.6.09.86.86,0,0,0,0,.16l0,0c-2.78,4.62-5.61,9.22-8,14h-.08a14.8,14.8,0,0,0-8.72,3.82,10.55,10.55,0,0,0-8.29,4.64,9.71,9.71,0,0,0-3.56,3.42c-2.74,2.87-4.17,6.86-2.28,10a17.11,17.11,0,0,0,.21,1.77c.27,1.52,1.93,2.17,3.34,2.08a3.26,3.26,0,0,0,1,.45,7.05,7.05,0,0,0,1.7,1.66,7.89,7.89,0,0,0,.85,1.06,3.55,3.55,0,0,0,1.22,1,6.47,6.47,0,0,0,3.53,1.17,4.57,4.57,0,0,0,3.18-1.17,5.92,5.92,0,0,0,3-2.66,68.63,68.63,0,0,0,8.07-8.19c.46-.48.9-1,1.34-1.5,1.19-1.3,2.41-2.57,3.69-3.76,1.1.66,2.7.84,3.42,0A100.57,100.57,0,0,0,60.39,378,1.33,1.33,0,0,0,62,377c.17-.86.45-1.67.63-2.54C62.82,373.32,61.5,372.2,60.2,371.86Z"/><path class="cls-3" d="M188.42,325.11h-.08c-1.92-8-7.52-15.59-12.14-22.2-3.26-4.66-6.66-9.23-9.51-14.16-3-5.13-6.39-10.65-11.41-13.95a3.21,3.21,0,0,0-1.88-.57,3.85,3.85,0,0,0-4-1.69c-11.41,2.86-23,6.13-34.73,6.77A284.69,284.69,0,0,1,77.23,271a3.55,3.55,0,0,0-3-1.91H72.27a3.65,3.65,0,0,0-3.37,2.63c-3.81,10-3.94,21.4-3.42,32a122.44,122.44,0,0,0,5.46,31.88c-7-1.16-9.72,4.53-10.29,12a3.65,3.65,0,0,0-1.4,2.55,35.82,35.82,0,0,0,0,5.46,20.76,20.76,0,0,0,2.35,16A3.45,3.45,0,0,0,64,373.26c.15.48.3.93.44,1.32,1.11,3.15,5.44,3.22,6.59.52l.19,0a7,7,0,0,0,1,.82c.85,3.42,2.07,6.86,2.94,10,1,3.55,1.92,7.09,2.78,10.65,0,1.59-.06,3.18-.07,4.76-.23,3.22-.51,6.43-.7,9.64-1.93,8.19-.33,16.5,1.76,24.62.23,6.26,1.42,12.48,2.48,18.67.14.93.3,1.85.45,2.78a3.24,3.24,0,0,0-.44,1.65c0,.32,0,.64,0,1a3.48,3.48,0,0,0-.49,1.27,47,47,0,0,0-.09,14.64c-.58,11.64-1.14,23.29.72,34.82a2.83,2.83,0,0,0,1.29,2,4,4,0,0,0,3.36,3.16c6.34.57,12.68.63,19,.63a3.53,3.53,0,0,0,3.5-3.5c-.08-9.32-1.19-18.6-1.27-27.92a3.23,3.23,0,0,0-1.26-2.64c0-.18,0-.36,0-.53a3.3,3.3,0,0,0-.86-2.28V459c1-.54.8-1.26.75-2.18a91.68,91.68,0,0,1,.18-11.49c.39-3.7.73-7.41,1.22-11.1.15-1,.32-2.09.47-3.13a3.68,3.68,0,0,0-1.92-3.86,128.49,128.49,0,0,0-.09-16.88c.19-6.94.46-13.88.88-20.81A3,3,0,0,0,105.7,387q.57-6.36.73-12.75a138.33,138.33,0,0,0,42.62-6.79,100.08,100.08,0,0,0,18.14-7.7c9.68-3.54,18.55-8.91,21.67-18.25a3,3,0,0,0,1-1.8c.14-.74.28-1.49.41-2.23a27.4,27.4,0,0,0,1.62-8.84A3.51,3.51,0,0,0,188.42,325.11Zm-44.22,3.17c-9.44.3-18.49,4-27.06,7.66-2.62,1.11-5.22,2.3-7.79,3.52A70.27,70.27,0,0,0,112.09,317c2.14-3.25,4.41-6.62,6.35-10.12,1.94,1.16,3.84,2.41,5.8,3.53l.15.09c2.84,6.08,10.13,10.59,17.1,11.14,1.51,1.69,3.11,3.31,4.75,4.88A12.72,12.72,0,0,1,144.2,328.28Z"/><path class="cls-4" d="M144.13,68.83a4.06,4.06,0,0,0-1.53.31c-.16-.91-.34-1.82-.52-2.73a2.58,2.58,0,0,0-1.15-1.57c-.23-.8-.45-1.59-.68-2.38-.38-1.3-2.12-1.86-3.4-1.58a3.33,3.33,0,0,0-1.92-1.36c-1-.94-2.08-1.86-3.17-2.74A3.57,3.57,0,0,0,126,58.43l-.52-.5a3.37,3.37,0,0,0-5.11.37,33.71,33.71,0,0,0-3.75-2.79c-4.45-2.76-9.37-2.39-13.77.15a3.52,3.52,0,0,0-1.26,4.79l.56.84-2.67-1.6c-3.62-2.18-6.63,2.56-4.24,5.49.31.38.63.73,1,1.1a20.93,20.93,0,0,0-2.85.53,3.27,3.27,0,0,0-1.59.9,21,21,0,0,0-2.93.16c-1.76.22-1.3,2.3-.29,3.6a1.49,1.49,0,0,0-.1.78v.57c0,1.15.51,2.66,1.74,3a19.44,19.44,0,0,0,2.71.55c0,.18,0,.36,0,.55-.24.55-.48,1.11-.66,1.67a23.74,23.74,0,0,0-3.56,4.67l-.07.07h0c-.09.15-.18.29-.26.44-.76,1.39.8,3.53,2.31,3.66a4,4,0,0,0,1.81,2.16,2.89,2.89,0,0,0,.75,1l.08.14c1.57,2.7,4.73.71,3.17-2,0-.17-.09-.34-.13-.52A2.37,2.37,0,0,0,95.68,87c0-.06-.16-.11-.17-.16s-.13-.19-.13-.29v-.58a2.15,2.15,0,0,0,0-.62,4.87,4.87,0,0,1,0-.54h0c1,1,4.55.63,4.74-.91,0-.27.11-.56.16-.84a34,34,0,0,1,1.33-3.42A6.63,6.63,0,0,1,103,78a3.11,3.11,0,0,0,1.34.63c9.06.15,19.74-6,28.44-2.11a4.21,4.21,0,0,1,1.15,2,3.79,3.79,0,0,0,.44,1,38.74,38.74,0,0,0,.45,8.7c0,.38.54.75.54,1.07v.66c0,2.39,5,3.18,5,.5V85.38s0,0,0,0c0-.4-.14-.8-.15-1.2,1.18.13,2.17-.34,2.17-1.66V80.72a14.1,14.1,0,0,1,1.87-6.27,19.58,19.58,0,0,0,2.12-2.5C147.32,70.5,145.62,68.83,144.13,68.83Z"/><path class="cls-2" d="M150.32,268c0-.78,0-1.55,0-2.32,2.12-5.49,2.54-11.25-1.39-15,1.14-.45.63-3-.22-3.86l-2.3-2.3c-1.08-1.08-2.59-.86-3,.48a29.22,29.22,0,0,0-7.2-1.19,1.45,1.45,0,0,0-1.23.4l-.7-.08a2.73,2.73,0,0,0-2.59-1.42,8.09,8.09,0,0,0-2.24.56l-4.66,1.17c-1.34.33-1.25,1.67-.64,2.79H123a2.55,2.55,0,0,0-1.77-1.11c-1.67,0-3.25,0-4.78.06a1.84,1.84,0,0,0-.4-.06,15.28,15.28,0,0,0-9.08,2.42c-3.34.46-6.67,1-10,1.58-4,.69-7.93,1.49-11.88,2.31l-.6.06a1.31,1.31,0,0,0-.52.23,8.87,8.87,0,0,1-1.73.41H78.72c-.87,0-1.3.34-1.45.9l-.82.16a1.33,1.33,0,0,0-1.54.25l-.22.24a12.55,12.55,0,0,0-2.53,1.14c-4.27,2.62-3.36,12.11,1.46,13.72,4,1.32,8.24,2,12.29,3.22l1.25.35a2,2,0,0,0,.76.45A59.25,59.25,0,0,0,100,275.88a81.75,81.75,0,0,0,9.83,1.95,2.11,2.11,0,0,0,1,.41c8.69.61,17.08,1.78,25.33-1.37,5-.69,9.81-1.86,14.12-4.64,1.19-.77.68-2.24-.25-3.24A2,2,0,0,0,150.32,268Zm-29.86-1a11.58,11.58,0,0,1,.51-3,21.15,21.15,0,0,0-.07,3.37c-.1.38-.22.75-.35,1.13A10.94,10.94,0,0,1,120.46,267Z"/><path class="cls-5" d="M92.13,259.58a3.62,3.62,0,0,0-.9-2.24c-.75-1.58-2.72-2.93-3.37-1.41l-.56-.11c-.74-1-1.86-1.62-2.79-.63a1.77,1.77,0,0,0-1.11-.46,5.21,5.21,0,0,0-1.6.18c-.75-.84-1.73-1.29-2.47-.28-.5.67-1,1.25-1.36,1.82a1.12,1.12,0,0,0-.93,0,1.53,1.53,0,0,0-2.31-.06,12.13,12.13,0,0,0-3.07,5.6,3.38,3.38,0,0,0,1.06,3c.17,1.3,1.34,2.93,2.42,2.94a62.11,62.11,0,0,0,8.07,0,1,1,0,0,0,.82-.12,9.06,9.06,0,0,0,3.1-1.12l.71-.25c1,1.34,2.75,2.41,3.07.57a17.57,17.57,0,0,0,.23-3.22A8,8,0,0,0,92.13,259.58Z"/><path class="cls-5" d="M128.74,266.39c3-3.79,4.37-8.69,2.28-13.1-2-4.1-6.92-8.78-11.81-7.49a9.21,9.21,0,0,0-2.69,1.21,13.32,13.32,0,0,0-3.39-.68c-6-.29-9.46,3.15-10.95,7.8a13.92,13.92,0,0,0-2.16,5.25,8.64,8.64,0,0,0-.92,3c-.4,4.47,2.62,8.53,6.55,10.42.22.25.45.5.69.73a7.77,7.77,0,0,0,4.73,2.25c4.42,2.85,10.86.07,14.3-3.16a10.38,10.38,0,0,0,3-5.75C128.53,266.74,128.64,266.56,128.74,266.39Zm-15.85-16.22a14.93,14.93,0,0,0-1.81,1.25,5.72,5.72,0,0,0-1.23-.94A4.53,4.53,0,0,1,112.89,250.17Zm-4.42-.7c-.35.25-.69.51-1,.79a6.84,6.84,0,0,0-.72.25A3,3,0,0,1,108.47,249.47Z"/><path class="cls-5" d="M149.08,251.69c-.77-1.55-3.45-2.54-4.14-.35a.69.69,0,0,1-.05.13,2.46,2.46,0,0,0-1.17-.36h-.21c-.24,0-.49-.48-.74-.48-.59,0-1,.48-1.21.48h-2.44a1.75,1.75,0,0,0-1.14.4,8,8,0,0,0-1.54-.81.25.25,0,0,0-.34.18c-1.07,4.49-1.26,10,.74,14.29a3,3,0,0,0,.69,1.29,11.68,11.68,0,0,0,3.29,3.55c.24.17.44.26.61,0a19,19,0,0,0,1.22-2.21h0c.2.15.38.16.48-.08l0-.09.38-.16c.47.74,1,1.29,1.31.82.13-.17.23-.36.35-.54a2.66,2.66,0,0,0,.66.18,1.88,1.88,0,0,0,2.22-1.24C150,261.74,151.59,256.68,149.08,251.69Z"/><path class="cls-6" d="M133,74.14a16.9,16.9,0,0,0-13.32-.52c-10.3,3.61-20.85,5.44-30.36-1.19L88.22,73.5h13.22c.49,0,2.09-.9,1-1.14-2.48-.51-5-.72-7.48-1.15l-1,1.14h5.75c.52,0,2.06-.75,1-1.14a17.62,17.62,0,0,0-11.07-.37c-.6.18-1.32,1.27-.23,1.27h3.45c.36,0,2-.75,1.13-1.24a7.11,7.11,0,0,0-6.65-.69c.18.32.36.6.53.92,3.38-1.3,6.4-3.32,9.77-4.62,1.26-.49.12-1.24-.78-.89-3.38,1.3-6.4,3.3-9.77,4.6-1.06.41-.36,1.27.53,1,1.62.18,3.23.11,4.85.29.37-.36.75-.33,1.13-1.33H90.1a5.37,5.37,0,0,1-.23,1.36c3.24-1,6.49-.37,9.62.73.32-.38.64-.7,1-1.08l-5.74,0c-.51,0-2.09,1-1,1.16,2.48.42,5,.64,7.47,1.15l1-1.13H89c-.41,0-1.93.52-1.13,1.08,5.61,3.91,11.68,5.16,18.44,4.67,8.78-.63,16.58-6.64,25.25-3,.61.27,2.37-.61,1.52-1Z"/><path class="cls-6" d="M96.68,61.61c2.34.22,5.79-.57,8.38-1,.16,0,1.61-.51,1-.71a19.72,19.72,0,0,0-3.61-1c-1.19-.46-1.4-1.1-.63-1.91a9.69,9.69,0,0,1,7.45-2.74,40.18,40.18,0,0,1,7.85,1.21l1.42-.76a20.8,20.8,0,0,1-5.58-1.13c-.43-.14-2.15.56-1.59.74,6.75,2.2,13.16,4.16,18.85,8.57.42.32,2.09-.44,1.82-.65-5.79-4.49-12.22-6.42-19.08-8.66l-1.59.74a22.6,22.6,0,0,0,5.91,1.16c.31,0,2-.62,1.43-.75-6.13-1.34-17.09-3.43-19.57,4.57-.06.2.19.2.32.22,7.87.77-1.28,1.26-3,1.65a4.53,4.53,0,0,0-2.16.83c-.26.21.06.29.24.3l1,.09c.4,0,2.22-.68,1.26-.77Z"/><path class="cls-6" d="M131.5,62.3a58.17,58.17,0,0,0-4.66-7l-1.51.8c4.67.91,8.36,3.83,12.35,6.22.33.19,2.11,0,1.87-.61-.38-1-.76-1.92-1.15-2.88l-1.87.61c3.45,2.74,4.54,6.77,5.69,10.83.16.55,1.65,0,1.85-.29.74-1.17,1.56-2.27,2.3-3.45l-1.85.29c1.82,4.46-2.84,7.93-5.09,11.27-.31.47.47.43.73.41a9.73,9.73,0,0,0,2.56-.63l-1.06-.24a76,76,0,0,1-2.87,9.78c-.18.51,1.73.26,1.92-.3a77,77,0,0,0,2.87-9.77c.09-.47-.85-.3-1.06-.24-1.91.61.2-1.1.54-1.51a37.48,37.48,0,0,0,2.87-3.89,5.51,5.51,0,0,0,.52-5.4c-.22-.52-1.63,0-1.85.29-.74,1.18-1.56,2.28-2.3,3.45l1.85-.29c-1.18-4.17-2.29-8.22-5.81-11-.33-.26-2.09.07-1.87.61l1.15,2.88,1.87-.61c-4.22-2.53-8-5.47-12.94-6.42-.31-.06-1.91.27-1.52.8a59.15,59.15,0,0,1,4.54,6.8c.31.57,2.16-.11,1.93-.51Z"/><path class="cls-6" d="M92.8,77.1c-1.17,1.71-4.62,5.52-1.67,7.08.4.21,1.87,0,1.87-.6v-2.3c0-.51-1.67.12-1.85.31a10.59,10.59,0,0,0-3,7.11c0,.38,1.19,0,1.31,0a16,16,0,0,0,5.13-3.76l-1.83.21c-1.07,1.71-1.67,3.33,0,4.78.42.36,2.16-.38,1.81-.68-1.62-1.36-.9-2.89,0-4.42.24-.4-1.58,0-1.84.21a13.08,13.08,0,0,1-4.06,3.14h1.31a9.82,9.82,0,0,1,2.79-6.69l-1.85.31v2.3l1.87-.6c-2.7-1.44.71-5.18,1.77-6.72.19-.26-1.57-.17-1.91.32Z"/><path class="cls-6" d="M96.25,93.53c-.17-.27-.62-.86-.69-1s-.23-.14-.34-.15c-3.16-.28-6.56,1.5-5,5.2.68,1.61,1.12,2,.56,3.89a5.69,5.69,0,0,0-.08,2.84c.42,2.08,2.44,2.93,4.33,3.07.43,0,2.22-.74,1.24-.82a3.77,3.77,0,0,1-3.64-2.77c-.51-1.41.29-2.69.45-4.06s-.73-2.21-1.2-3.33c-.68-1.62,1.18-4.23,2.45-2.32.33.5,2.11-.25,1.93-.51Z"/><path class="cls-6" d="M136.75,93.87c1.55,0,2.79.08,3,1.8.2,1.53-.16,3.11,0,4.66.15,1.94.49,3.27-1.22,4.65-.89.72-3.23,1.21-3.4,2.5a.22.22,0,0,0,.18.26,2.89,2.89,0,0,1,.74.28c.47.21,2.25-.53,1.57-.82-1.08-.48,1-1.21,1.52-1.48a8.15,8.15,0,0,0,2-1.59c1.23-1.29.6-3.47.48-5s.7-3.84-.26-5.13c-.84-1.13-2.54-1-3.79-1-.6,0-2.1.88-.81.9Z"/><path class="cls-6" d="M97.79,104.42c1.6,6.06,2.39,12.43,6.38,17.5,3.07,3.9,8.49,5.85,13.3,5.94,12.92.24,16.64-16.82,17.9-26.55.13-1-1.84-.74-2,.14-1.29,9.92-4.73,26.22-17.85,24.85-11.62-1.22-13.46-13.37-15.84-22.4-.24-.9-2.17-.38-1.93.52Z"/><path class="cls-6" d="M107.47,110.14c-.39,1.86,4,1.85,5.06,1.91a43.16,43.16,0,0,0,15.1-1.78c1.17-.33.86-1.5-.31-1.17a38.21,38.21,0,0,1-10.9,1.68c-.32,0-7.2.11-7-.83s-1.79-.59-2,.19Z"/><path class="cls-6" d="M106.85,111.11c2.72,2.41,7.41,5.36,11.24,4.91,4.44-.51,7.42-3.52,9.94-7,.51-.71-1.44-.54-1.8,0-2.36,3.26-5.4,7.07-10.27,5.5a21.08,21.08,0,0,1-7.31-4.12c-.51-.45-2.32.29-1.8.75Z"/><path class="cls-6" d="M112.38,105.91a2.21,2.21,0,0,0,1.56.35c.25-.34.51-.15.77-1.15h-.34a2.08,2.08,0,0,0-1.16.52c-.21.17-.3.49,0,.63a4.7,4.7,0,0,0,2.12.44,1.67,1.67,0,0,0,1.28-.49c.28-.36-.24-.49-.5-.49a3,3,0,0,1-1.35-.42c-.38.32-.77.81-1.16.81h.35c.42,0,1,0,1.28-.37s-.24-.43-.51-.43a.63.63,0,0,1-.52-.17c-.48-.42-2.28.36-1.81.77Z"/><path class="cls-6" d="M120.46,106.11h1c.06,0,.12-1,.18-1H120c-.37,0-.57,0-.57.51V106c0,.51,0,.15.39.15h1.73c.42,0,1-.08,1.07-.54s-.52-.5-.89-.5c-.58,0-1.38.06-2,.06.3.21.66.47.66.68v-.35a.68.68,0,0,1-.61.65h1.73c.42,0,1-.12,1.07-.57s-.52-.43-.89-.43h-1c-.42,0-1,.12-1.07.58s.52.42.89.42Z"/><path class="cls-6" d="M123.25,95.41c.14-1.55,5.7-.26,6.76,0,.74.18,2.29-.92,1.14-1.2-2-.5-9.54-2.21-9.84,1.39-.08.92,1.88.59,1.94-.19Z"/><path class="cls-6" d="M122.7,95.07c.71,1.51,2.4,1.66,3.87,1.28.23,0,1.18-.51.76-.89-1.73-1.51-3.87-.95-5.26.7a.33.33,0,0,0,.14.51c1.6,1,3.49,1,4.78-.44a.34.34,0,0,0-.14-.52,3.55,3.55,0,0,0-3.79.18c-.17.12-.57.45-.29.69a3.74,3.74,0,0,0,5.13-.21c.21-.18.29-.52,0-.66a8.15,8.15,0,0,0-2.82-.76c-.25.38-.49,1.16-.74,1.16h2.08c.49,0,2.08-.82,1-1.13A12,12,0,0,0,124,94.6c-.16.37-.33.74-.49,1.12.81-.06,1.6-.29,2.42-.35.49,0,1.71-.82.71-1.1A13.35,13.35,0,0,0,123,93.9c-.07.36-.15.71-.23,1.07,2.26-.78,4.43-.32,6.76-.29.75,0,2-1.12.74-1.13-2.69,0-5.16-.5-7.77.41-.56.19-1.35,1.07-.24,1.07a12.25,12.25,0,0,1,3.25.32l.71-1.1c-.82.06-1.61.29-2.42.35s-1.7,1.12-.5,1.13a10.57,10.57,0,0,1,2.9.4c.32-.37.64-1,1-1h-2.08c-.72,0-2.08,1-.74,1a5.74,5.74,0,0,1,2,.56c0-.22,0-.46,0-.68a1.23,1.23,0,0,1-1.78-.22c-.1.23-.2.46-.29.69a1.37,1.37,0,0,1,1,.17c0-.18-.09-.35-.14-.52-.28.33-1.2-.3-1.44-.44,0,.17.09.34.13.51.66-.56,1.22-.56,1.67,0l.76-.89a1.39,1.39,0,0,1-1.67-.79c-.33-.69-2.22-.09-1.93.52Z"/><path class="cls-6" d="M122.79,92a55.4,55.4,0,0,1,7-1.34c1-.15,1.51-1.54.19-1.35a60.21,60.21,0,0,0-7.53,1.43c-1.18.33-.85,1.59.34,1.26Z"/><path class="cls-6" d="M106,90.89c2.22,1.63,5.27,1.87,7.93,1.89,1.13,0,1.47-1.46.16-1.47-2.2,0-4.78-.22-6.61-1.56-.72-.53-2.39.47-1.48,1.14Z"/><path class="cls-6" d="M104.94,95.35c2.24,0,5.63-.33,7.44,1.22l1.28-.9a12.6,12.6,0,0,1-3.24-.32c-.42-.12-2.18.51-1.37,1a6.76,6.76,0,0,0,3.51.76c.22,0,1.82-.43,1.27-.9-1.27-1.09-3.61-1.74-5.15-.84-1.33.79-1,2.72.62,2.66a4,4,0,0,0,3.28-2.26c.79-1.78-2.57-1.19-3.23-1-.22,0-1,.36-.84.72.77,1.82,2.56,1.3,3.81.23.2-.17.31-.47,0-.6-2.46-1-5.08-.47-7.65-.41-.69,0-2.08,1.06-.77,1h7.27c.45,0,2.07-.74,1-1a12.46,12.46,0,0,0-3.33-.36c-.26.35-.51.7-.76,1.06h4.15c.7,0,2.06-1.06.76-1.06h-4.15c-.7,0-2.07,1-.76,1.06a10.94,10.94,0,0,1,2.9.32l1-1h-7.26c-.26.35-.71.7-1,1,2.28,0,4.68-.65,6.68.27v-.6c0,.35.05.2-.14-.46-.28.24-.46.48-.74.72,1.62-.39,1.17.71.24,1.31.36-.23-.54-1.05.41-.88a4.18,4.18,0,0,1,1.87.87l1.29-.9a5.24,5.24,0,0,1-2.72-.62l-1.37,1a14.25,14.25,0,0,0,3.68.37c.23,0,1.83-.43,1.28-.9-2.12-1.82-5.87-1.54-8.48-1.54-.69,0-2.06,1.06-.76,1.06Z"/><path class="cls-6" d="M99.53,113.33c-.84,1.46-.08,3.69,0,5.28.13,3,.59,6.24-1,8.91-.15.25,1.62.14,1.91-.34,1.28-2.12,1.23-4.46,1.13-6.86-.09-1.9-1.06-5.67-.1-7.33.15-.26-1.63-.15-1.91.34Z"/><path class="cls-6" d="M131.37,112.63c-2.31,9-.85,18.26,1.38,27.07.1.38,2-.13,1.93-.52-2.21-8.74-3.7-18-1.41-26.91.09-.34-1.78-.09-1.9.36Z"/><path class="cls-6" d="M132.81,121.76a36.38,36.38,0,0,1,13.51,10.49c2.18,2.85,3.59,6.52,5.47,9.59,3.32,5.39,7.83,10.08,14.47,10.41l.15-1.39c-9.7,2.37-19.51-1.47-29.26,1.32-5.43,1.56-12.31,7.11-13.05,12.94-.13,1,1.84.75,2-.14,1.07-8.44,12-12.28,19.1-12.69,7.37-.43,14.28,1.71,21.61-.08.74-.18,1.21-1.33.15-1.39-8.54-.42-12.86-8.67-16.53-15.32-3.9-7.09-9.19-11.53-16.47-15.06-.82-.39-2.23.79-1.11,1.32Z"/><path class="cls-6" d="M131.77,124.58c3.45,3.37,8.89,7.07,5.73,12.4-1.9,3.2-6.06,6-8.64,8.78-4.59,4.88-10.37,12.12-7.52,19.2.24.6,2.14,0,1.93-.51-3.63-9,6.39-18,12.24-23.6,2-1.86,5.3-4.32,5.08-7.39-.3-4.16-4.26-6.9-7-9.6-.43-.43-2.24.29-1.8.72Z"/><path class="cls-6" d="M97.26,123.43c-5.07,1.37-9.8,2.27-13.8,5.86-6.27,5.63-10,12.19-19.15,13.48-.24,0-1.69.64-.91,1,4.67,1.91,9.74,0,14.32,2,4,1.78,6.55,5.6,10.59,7.32,9.23,3.94,18.91,1.25,26.52,9.25.45.47,2.28-.24,1.8-.74-6.67-7-15.23-6.59-24-8.59-5.21-1.19-7.81-5-12.17-7.48-5.1-2.94-10.16-.51-15.47-2.67l-.91.95a24.13,24.13,0,0,0,13.09-6.07c2.12-1.86,4-4.05,5.91-6.1,4.17-4.47,8.81-5.74,14.47-7.27,1.15-.31.91-1.22-.24-.91Z"/><path class="cls-6" d="M97,126.17c-7.41,5.66-4.12,12.78,1.32,18.6,7,7.46,18.22,11.89,21.34,22.27.2.65,2.12.11,1.94-.52-2.66-8.82-10.91-13.1-17.5-18.74-6.26-5.35-14.62-14.42-5.56-21.33.87-.66-1.07-.63-1.54-.28Z"/><path class="cls-6" d="M113.44,160.89a24.6,24.6,0,0,1,5.48,5.81c.36.49,2.11-.27,1.93-.52a25.34,25.34,0,0,0-5.59-6c-.46-.33-2.14.44-1.82.67Z"/><path class="cls-6" d="M123.84,164.93c-.41,0-1.45.35-1.51.91a.23.23,0,0,0,.06.22c.67.41,1.57-.07,2.06-.55s-.17-.63-.61-.58a4.4,4.4,0,0,0-2,1.12l1.66.1a.23.23,0,0,1,.07-.07c.33-.34-.29-.48-.5-.48a1.91,1.91,0,0,0-1.29.5l-.06.07c-.23.25,0,.44.28.47a2,2,0,0,0,1.37-.37,2.35,2.35,0,0,0,.29-.26l.29-.22c.2-.15.16,0-.39.08l-.61-.58c-.29.27-.42.21.27,0l1,.06h0l.06.22c0,.09-.85.33-.72.31.35,0,1-.22,1.11-.61s-.62-.36-.81-.33Z"/><path class="cls-6" d="M119.61,166c1.21,6,2.55,11.09,2.16,17.25-.29,4.55-.55,9.1.63,13.55.22.85,2.15.34,1.93-.52-1.39-5.29-.74-10.76-.43-16.14.3-5.18-1.34-9.65-2.35-14.65-.18-.86-2.11-.36-1.94.51Z"/><path class="cls-6" d="M68.75,171.22c.51,11.68,3.53,23.34,2.67,35.06-.72,9.79-4.71,17.76-7.89,26.78-1.08,3.07-1.54,6.31-.27,9.37a6.4,6.4,0,0,0,2.64,2.81c3.13,1.73,2.57,3.46,3.22,6.39.95,4.28,10.83,2.58,13.46,1.67,1.28-.44.09-1-.74-.68-3.61,1.25-11,1.67-11-3.62,0-3.52-3-4-5.09-6.25-4.37-4.85,1.56-14.4,3.58-19.11,7.43-17.31,2.16-35,1.38-52.94,0-.54-2-.17-1.93.52Z"/><path class="cls-6" d="M96.57,251.55c4.53-.88,8.92.28,13.26-1.71,3-1.38,4.5-3.27,8-3.79,2.85-.42,5.54,1.47,8.22,1a6.15,6.15,0,0,0,2.87-.92c3.33-2.31,6.26-1.49,9.79-.48,2.71.77,4.58-2.57,5.88-4.22l-1.56.27c2.29,2.09,3.92,3.79,6.4,1.11l-1.69.14a30.67,30.67,0,0,1,3.11,4.84c.44.77,2.28,0,1.77-.86a30,30,0,0,0-3.12-4.84,1.19,1.19,0,0,0-1.69.14c-.78.84-2.67-1.09-3.29-1.66a1.25,1.25,0,0,0-1.55.27c-2,2.55-3.37,3.17-6.69,1.87a5,5,0,0,0-3-.52,10.26,10.26,0,0,0-3.85,1.69c-2.67,1.87-5.32,1.07-8.19.71a15.23,15.23,0,0,0-9.89,2.4,16.76,16.76,0,0,1-8.65,2.84,37.59,37.59,0,0,0-6.54.34c-1.22.24-.83,1.58.36,1.35Z"/><path class="cls-6" d="M95.06,249.28c-2.35-1.7-4-4.82-5.58-7.2a54,54,0,0,1-6.09-11.6c-.2-.59-1.22-3.29-.17-1.93A25.4,25.4,0,0,1,86,233.92a28.48,28.48,0,0,0,9.34,11.63c.7.5,2.39-.47,1.49-1.11-5.82-4.16-8-10.15-11.37-16.07-1.07-1.86-4-3.29-4.45-.2-.57,3.58,3,8.63,4.73,11.51,2,3.52,4.49,8.26,7.87,10.72.69.5,2.39-.47,1.49-1.12Z"/><path class="cls-6" d="M99.22,239.55c0,2.31.2,5.9,2.65,7a1.36,1.36,0,0,0,1.67-.45c.59-1.11.78-2.35,1.38-3.46l-1.88.19a8.5,8.5,0,0,0,1.46,3.95c.41.49,1.31.18,1.69-.17,1.44-1.37,2.15-5.67,4.28-5.83,1-.08,1.54-1.37.21-1.27-4,.29-3.73,4.41-6.08,6.63l1.68-.17a7.92,7.92,0,0,1-1.31-3.66c-.17-.78-1.63-.28-1.88.19-.6,1.1-.78,2.35-1.38,3.46l1.67-.45c-2-.92-2.19-4.21-2.21-6.15,0-.93-2-.58-2,.19Z"/><path class="cls-6" d="M129,244.77c2.79-2.67,4-6.07,5-9.72,1.53-5.31,3.89-10.6,4.15-16.15,0-.76-1.9-.35-1.93.25-.21,4.41-1.9,8.08-3.11,12.25-1.33,4.59-2.06,9.64-5.68,13.1-.81.76,1.1.69,1.54.27Z"/><path class="cls-6" d="M134.18,219.18c-2,3.7-1.2,7.39-1.73,11.42A28.83,28.83,0,0,1,125.62,245c-.44.51,1.44.28,1.76-.1a32.27,32.27,0,0,0,6.2-11.37c1.56-4.83,0-10.22,2.51-14.69.19-.34-1.63-.2-1.91.31Z"/><path class="cls-6" d="M124.19,243.14a7,7,0,0,0-.75,2.26l2-.14c0-1.4.29-2.77.34-4.16a.56.56,0,0,0-.42-.58c-3.32-1.13-4.12,2.25-5.86,4.18l1.79.21c0-1.2-.32-3.38-1.7-3.87s-2.57.56-3.32,1.76l1.48-.54-.71-.47c-.63-.61-2.46.19-1.77.85a3.11,3.11,0,0,0,1.37.92,1.3,1.3,0,0,0,1.48-.54c.84-1.34,1.19,1.51,1.21,2,0,.92,1.35.7,1.79.21.74-.82,1.84-3.88,3.13-3.44l-.42-.58c-.05,1.39-.3,2.76-.35,4.15,0,1,1.86.72,2-.14a6.08,6.08,0,0,1,.63-1.9c.49-1-1.47-1-1.84-.22Z"/><path class="cls-6" d="M111.84,246.79c-2-.52-4.12-1.36-6.22-1.26-2.44.11-2.52,1.74-1.12,3.33l1.46-1a11.49,11.49,0,0,0-4.72-.73c-.87,0-2,1.32-.69,1.32a10.51,10.51,0,0,1,4.27.65c.48.2,2-.36,1.46-1a10.9,10.9,0,0,1-.74-.94c-.25-.38-.48-.25-.1-.24a10.16,10.16,0,0,1,2,.31c1.09.24,2.14.58,3.22.86.77.2,2.29-.93,1.13-1.24Z"/><path class="cls-6" d="M137.14,243.27c5.12-.44,7.85-6.73,10-10.64.53-1-1.43-1-1.85-.23-1.86,3.33-4,6.67-4.2,10.57,0,.75.95.68,1.41.5,2.78-1.11,4-4.05,6.44-5.67l-1.61-.18c.4,2.78-1.9,5.12-2.43,7.77-.1.48.54.68.89.64,2.53-.3,4.62-1.9,6.61-3.38,1-.79-.52-1.47-1.29-.89-1.51,1.13-3.21,2.62-5.15,2.85.3.21.6.42.89.64.58-2.9,2.86-5.06,2.41-8.15-.1-.71-1.25-.42-1.61-.19-2.24,1.5-3.49,4.41-6,5.41l1.41.51c.2-3.77,2.29-7,4.09-10.2l-1.85-.23c-1.62,2.95-4.11,9.11-8,9.44-1.09.1-1.49,1.54-.17,1.43Z"/><path class="cls-6" d="M71.39,175.9c-2.1-10.66-8.1-19.06-14.69-27.45-.53-.69-2.37.07-1.77.84,6.5,8.28,12.46,16.6,14.53,27.12.18.89,2.11.39,1.93-.51Z"/><path class="cls-6" d="M62.12,145.81a5.49,5.49,0,0,0-5.81,1c-.39.38-.07.71.4.7a18.41,18.41,0,0,0,3.22-.4c.56-.1,2-.24,2-1,0-.16-.26-.24-.37-.27s-.2,0-.3,0a1.55,1.55,0,0,0-1.27.53c-.27.38.22.55.52.57-.05,0,.09,0,0,0s-.19-.17-.19-.26h0a1,1,0,0,1,.18-.55c.56-.34.07-.09-.22,0s-.58.11-.84.15a13.77,13.77,0,0,1-2,.24l.38.7c1-.92,1.88-.65,3.08-.27.6.2,2.26-.7,1.17-1Z"/><path class="cls-6" d="M51.83,151.11c-7.66,8.92-8.86,21-9.24,32.3-.46,14-.71,27.93-1.17,41.9-.28,8.66-1.11,16.4-3.86,24.68-2.09,6.32-5,12.43-6,19.07-1.29,8.84,1.92,17.06,11.27,18.9,1,.19,1.94-1.19.65-1.45-12.76-2.52-11-16.82-7.71-26.15,2.17-6.21,4.55-12.32,6.12-18.73,1.73-7.1,1.41-14.72,1.64-22,.38-11.66.75-23.27,1-34.92.21-11.42,1.19-24,8.94-33,.8-.93-1-1.29-1.63-.6Z"/><path class="cls-6" d="M43.2,287.64c4.47.06,9.58.34,13.79,1.87.44.16,2.18-.54,1.59-.76-4.3-1.56-9.59-1.85-14.13-1.92-.42,0-2.21.79-1.25.81Z"/><path class="cls-6" d="M42.85,287.32v10.79c0,.49.48.58.88.57,4.58-.09,9.12-1.16,13.71-.64.47,0,1.23-.21,1.32-.74.4-2.22-.74-5.59.58-7.45.57-.82-1.4-.79-1.84-.16-1.47,2.09-.26,5.4-.69,7.78.45-.24.89-.49,1.33-.74-4.76-.53-9.46.55-14.21.64l.87.57V287.15c0-1-1.95-.62-1.95.17Z"/><path class="cls-6" d="M59,289.21a9.82,9.82,0,0,0,4.32-.78c.35-.16.75-.61.46-1a1.1,1.1,0,0,0-1.31-.15,7.55,7.55,0,0,1-3.3.5c-1.1,0-1.48,1.42-.17,1.42Z"/><path class="cls-6" d="M70.77,257.53a39,39,0,0,0-1.9,12.18c0,.22.46.22.57.23,9.54.21,18.09,3.79,27.24,5.88a105.25,105.25,0,0,0,25,2.86,70.82,70.82,0,0,0,19.26-3.33c4-1.2,9-2.84,11.1-6.71.24-.43-1.62-.26-1.92.28-3,5.54-13.32,6.93-19,8-8.67,1.59-17.68.82-26.3-.61C97.17,275,90,272.37,82.5,270.56A50.89,50.89,0,0,0,71.88,269c-2.51-.06.4-10.58.81-11.76.2-.54-1.71-.29-1.92.28Z"/><path class="cls-6" d="M150.25,249.43c-1.82,1.77-1.33,5.33-1.21,7.58.21,3.74,1,7.46,1.05,11.2,0,1.06,2,.79,2-.13-.06-2.65-.49-5.3-.77-7.94-.26-2.4-1.44-8.1.59-10.09.88-.85-1-1.25-1.63-.62Z"/><path class="cls-6" d="M153.23,139.56c.89,2.67,4.28,4.92,6.32,6.63,2.31,1.93,5,4.44,7.82,5.57.46.18,2.22-.55,1.57-.8-2.58-1-5-3.33-7.09-5.05s-5.78-4.15-6.69-6.86c-.18-.51-2.09,0-1.93.51Z"/><path class="cls-6" d="M174.19,159.76a205.49,205.49,0,0,0-7.43,24c-1.92,8.1-1.94,16.24-2.3,24.52-.4,9.17-1.28,18.28-4.23,27a25.75,25.75,0,0,1-3.7,6.77c-.75,1.06-1.53,2.11-2.32,3.14-.34.43-.7.86-1.07,1.28-.68.5-.63.65.16.45-.09-.49-2,0-1.93.52.44,2.46,4.38-2.06,4.6-2.33,4.92-6.09,7.26-12.27,8.74-20,1.95-10.25,1.72-20.86,2.29-31.24.65-11.69,5.06-23.53,9.1-34.42.17-.46-1.71-.23-1.91.31Z"/><path class="cls-6" d="M169.73,152.89c.15.9,1.45,1.83,2,2.43a26,26,0,0,1,3.12,3.43c.46.67,2.32-.05,1.78-.82a24.2,24.2,0,0,0-2.92-3.23c-.49-.49-1-1-1.44-1.48-.21-.22-.6-.54-.65-.85-.13-.83-2.07-.35-1.93.52Z"/><path class="cls-6" d="M175.45,159.23c5.69,10.83,7.05,23,5.82,35.07s-5,23.59-4.09,36c.82,11.83,7.29,22.42,10,33.82A18,18,0,0,1,183,280.24c-2.55,2.88-6.39,5.53-6.87,9.63-.07.58,1.85.2,1.91-.31.5-4.29,4.87-7.31,7.56-10.36,3-3.38,4-8,3.93-12.35-.07-5.87-3-12.12-5.08-17.52-2.2-5.77-4.26-11.5-5.16-17.63-2-13.36,2.7-26.22,4-39.34,1.18-11.49-.57-23.39-6-33.65-.28-.53-2.13.14-1.93.52Z"/><path class="cls-6" d="M165.43,286c-1.07,1.31,3.21,1.07,3.67,1,2.45-.11,5.34-.38,7.48-1.66l-1.71.19v5.08c.46-.23.92-.46,1.37-.7h-5.71c-.27,0-1.48.23-1.37.69a4,4,0,0,0,1.33,2c.38.39,2.18-.31,1.81-.69a3.86,3.86,0,0,1-1.21-1.82l-1.37.7h5.71c.36,0,1.37-.21,1.37-.7V285c0-.52-1.55.1-1.72.19-1.19.72-3.06.76-4.4.88a19.27,19.27,0,0,1-3.48-.21c.44-.54-1.45-.3-1.77.09Z"/><path class="cls-6" d="M110.75,279.67a58.45,58.45,0,0,0,1.63,12c.5,2.19,1.3,6.61,4.1,7,.93.14,2-1.19.67-1.38-2.22-.32-3-6.92-3.34-8.55a51.25,51.25,0,0,1-1.1-9.24c0-1-2-.69-2,.16Z"/><path class="cls-6" d="M101.44,251c-6.5,4.75-6,15.79-1.39,21.78,4.86,6.37,18.8,6.77,25.52,3.29,7.49-3.88,8.86-12.39,7.93-20.15-.61-5.09-3.29-13.27-9.67-9.49-1.11.66.63.71,1.15.4,4.89-2.9,6.55,8.8,6.77,11.35.5,5.89-.59,12.67-5.49,16.45-4.07,3.13-10.81,2.57-15.61,1.89s-8.21-2.77-10.28-7.15c-2.67-5.63-2.89-14.2,2.58-18.2.83-.61-1.11-.46-1.51-.17Z"/><path class="cls-6" d="M148.94,249.33c-4.17.12-8.31,1.11-12.48.64-.36,0-1.6.16-1.59.67.08,6.61,1.15,13.13,1.91,19.68,0,.19.45.15.55.15A20.41,20.41,0,0,0,148,266.92c.81-.55-1.13-.33-1.49-.09-2.1,1.43-7.58,4.8-8.09.59-.21-1.73-.45-3.46-.67-5.19a106.63,106.63,0,0,1-1-12.11l-1.59.67c4.32.49,8.59-.51,12.9-.64.54,0,2.11-.85.83-.82Z"/><path class="cls-6" d="M88.27,254.69c.93.14,1.84.36,2.76.54,1.71.33.7,4.84.58,5.78a33.58,33.58,0,0,1-2.43,8.57l1.74-.57C85.64,265.94,80,265.79,74,265.78c-.65,0-2.08,1-.78,1,5.69,0,11.08.18,16.12,3.11a1.58,1.58,0,0,0,1.74-.57,30.58,30.58,0,0,0,2.53-14.72c0-.15-.25-.22-.36-.23-1.29-.12-2.53-.44-3.81-.63-.54-.08-2.26.81-1.2,1Z"/><path class="cls-6" d="M113.36,259.34c-3.18,0-3.38-7.74-2.33-7.74s3.2,9,.94,9.79l1.35.31A37.65,37.65,0,0,1,117.45,251c1.1-1.88,2.87-2,3.77,0,.59,1.36-.3,3.29-.86,4.45a13.74,13.74,0,0,1-5.86,6l1.17.61a49.34,49.34,0,0,1,6.69-5.56c1.55-1.07,6.56-2.83,4.85.78-.79,1.67-2.59,3-4,4a13.73,13.73,0,0,1-2.37,1.25c-1.8,1.13-3.24.85-4.3-.85,1.76-1.82,5.42-2,7.74-1.73,5.49.76.34,5.22-3.47,4.71-2.28-.31-4.62-1.47-5.53-3.68l-1.34.84c2,.24,3.76,1.66,5.21,3a11,11,0,0,1,1.35,1.61q2.25,2.79-2.35,3.89c-1.57-1.69-1.57-5.26-1.6-7.42,0-.64-1.92-.27-1.94.37a29.19,29.19,0,0,1-1,6.49c-.24.93-1.22,4.86-2.89,4.18-2.33-.94-1.85-3.77-1.32-5.57a10.68,10.68,0,0,1,3.93-5.32c2,.59,2.46,1.58,1.46,3-1,2-4.25,2.95-6.25,3a3,3,0,0,1-3-2.51c-.81-2.38,2.39-3.3,4.14-3.51a9,9,0,0,1,5.85,1.29l.63-1a33,33,0,0,1-9.24.8c-1.46,0-5.35-.05-5.11-2.36s9.09-2.2,9.07.92c0,.84,1.93.44,1.94-.23,0-4.73-12.5-4.67-13,.05s14.37,2.47,16.61,1.84c.38-.1,1.23-.59.63-1-3.87-2.58-16.94-1.78-12.66,5.38,3.43,5.75,16.71-3.53,11.94-6.59-5.23-3.34-11.92,8.29-7.88,12.26,5.52,5.45,8.09-8.62,8.17-11.32l-1.94.38c0,3.21,1.21,11.52,6.39,8.23,6-3.76-1.72-10.43-6.32-11-.32,0-1.57.28-1.34.83,2,4.83,15.51,7.16,15.43.08-.06-5.87-12.82-2-14.73.9a.33.33,0,0,0,0,.42c4.58,3.72,15.18-1.59,15.55-7.32.15-2.38-3.49-2.07-4.8-1.57-4.07,1.56-7.57,4.66-10.64,7.69-.74.73.73.82,1.17.6,3.39-1.65,13.31-13.16,5-14.53-5.35-.88-8.09,10.75-8.85,14.22-.15.67,1.08.41,1.35.31,4.73-1.65,1.38-8.48-.06-11.47a.62.62,0,0,0-.6-.31c-5.48,0-4.38,10.07.54,10,.75,0,2-1.16.74-1.15Z"/><path class="cls-6" d="M110.28,261.16c-2.76.92-3.84-1.34-3.93-3.64,0-.5-.45-.41-.89-.41h-.64c.12,0,.23.63.34,1.05,4.36-2,6.91,1.1,9.48,4.19.56.67,2.4-.15,1.77-.9-1.49-1.79-3.06-3.95-5.22-5-2.32-1.1-4.62-.68-6.88.36-.9.42-.54,1.27.34,1.27h.64c-.3,0-.6-.43-.9-.64.14,3.66,2.46,6.28,6.24,5,1.16-.38.83-1.71-.35-1.32Z"/><path class="cls-6" d="M142.54,254.22c-.86-.13-1.66-.5-2.53-.63-.47-.07-1.91.58-1.13,1.1a65.75,65.75,0,0,0,6.35,3.8c.59.3,2.39-.45,1.52-1a26.5,26.5,0,0,0-5.89-2.61c-.45-.15-2,.28-1.47,1a27.44,27.44,0,0,0,3.81,3.81l1.65-.89a15.55,15.55,0,0,0-3.17-1.27c-.44-.19-2,0-1.73.76a9.13,9.13,0,0,0,4.65,5.95c.58.31,2.38-.43,1.52-1a28.66,28.66,0,0,0-5.89-3.24c-.46-.17-1.95.29-1.48,1a21.23,21.23,0,0,0,5.22,5.18l1.52-1c-1.25-.51-2.57-.75-3.81-1.27-.64-.26-2.39.64-1.52,1,1.24.52,2.56.76,3.81,1.27.55.23,2.41-.37,1.52-1a20,20,0,0,1-5-5l-1.47,1a27.09,27.09,0,0,1,5.53,3.1l1.52-1a8.27,8.27,0,0,1-4.24-5.47l-1.72.76a16.76,16.76,0,0,1,3.17,1.26c.48.34,2.25-.33,1.65-.89a28.58,28.58,0,0,1-3.81-3.81l-1.47,1a25.15,25.15,0,0,1,5.53,2.46l1.52-1a67.09,67.09,0,0,1-6.35-3.81c-.37.37-.74.74-1.12,1.1.87.13,1.67.51,2.54.64s2-1,.72-1.21Z"/><path class="cls-6" d="M75.85,262c-.39,3.33,5.62,4.39,7.81,5.41.4.19,2.25-.32,1.67-.84-2.1-1.87-4.89-2.57-7-4.44l-1.67.84c2.1.68,4.24,1.23,6.35,1.9.47.16,2.41-.42,1.54-.93a14.41,14.41,0,0,1-3-2.44l-1.28.92c2.09.15,4,1.13,6,1.82.39.14,1.94,0,1.74-.72A11.66,11.66,0,0,0,84.06,257c-.45-.34-2.3.07-1.8.76a19.62,19.62,0,0,0,5.21,4.52c.36.24,2-.1,1.73-.72-.49-1.25-.77-2.55-1.27-3.81l-1.73.73c1,.64,2.2.62,3.17,1.27.52.34,2.31-.43,1.54-.93-1-.65-2.2-.63-3.17-1.27-.36-.24-2,.1-1.74.72.5,1.25.78,2.56,1.27,3.81l1.74-.73a18.42,18.42,0,0,1-5-4.35l-1.8.76A11.16,11.16,0,0,1,86,264l1.74-.72c-2.23-.79-4.35-1.8-6.74-2-.28,0-1.79.41-1.28.92A16,16,0,0,0,83,264.83l1.54-.93c-2.11-.67-4.25-1.22-6.35-1.9-.34-.11-2.3.28-1.67.85,2.1,1.86,4.89,2.57,7,4.43l1.67-.84c-1.82-.85-7.74-2.05-7.42-4.73.09-.77-1.86-.4-1.93.25Z"/><path class="cls-6" d="M67.6,270.84c-3.75,9-2.15,19.29-1.9,28.76.34,13,3.64,25.67,3.84,38.66,0,.62,1.94.24,1.93-.52-.19-12.6-3.64-24.85-3.83-37.44-.14-9.8-2-20.38,1.89-29.7.26-.62-1.66-.4-1.93.24Z"/><path class="cls-6" d="M114,310.83c-2.16,9.3-5,19.05-3.8,28.68.06.53,2,.11,1.93-.52-1.18-9.54,1.64-19.23,3.79-28.45.14-.59-1.79-.28-1.92.29Z"/><path class="cls-6" d="M116.27,308.72c-9.27,0-18-.43-26.82-3.75l-.64,1.35c6.12-.54,12.26-.06,18.4,0,.06-.46.12-.93.17-1.4a26.84,26.84,0,0,1-9-1.21c-.22.45-.44.9-.65,1.35A130.25,130.25,0,0,1,112,306.31c.94.12,2-1.23.67-1.4a134.37,134.37,0,0,0-14.85-1.26c-.66,0-1.63,1-.64,1.35a30.93,30.93,0,0,0,10,1.31c1.1,0,1.48-1.39.17-1.4-6.14-.05-12.27-.54-18.4,0-.64.06-1.66,1-.65,1.35,9,3.41,18.22,3.85,27.77,3.85,1.1,0,1.48-1.4.17-1.4Z"/><path class="cls-6" d="M119,308c8.09-.45,12-9.21,17.65-13.7.81-.64-1.12-.44-1.5-.14a45.3,45.3,0,0,0-5.83,5.92c-2.43,2.76-5.51,6.82-9.51,7-.57,0-2.09.95-.81.88Z"/><path class="cls-6" d="M119.66,309c-.28,2.16,7.3,6.51,8.71,7.52,3,2.17,7.43,6.17,11.31,6.57.42,0,2.23-.69,1.26-.79-3.57-.37-8-4.46-10.75-6.44-1.38-1-8.87-5.33-8.6-7.38,0-.24-1.85-.07-1.93.52Z"/><path class="cls-6" d="M151.43,271c4.24,4.51,6.93,9.94,10.11,15.16,2.41,3.95,5.79,7.56,8.73,11.13,7,8.47,13.95,16.95,18.17,27.18,5.9,14.33-.93,25.82-13.88,32.62-12.52,6.58-27.17,9-41,11.1-20,3-40.29,4.37-60.31,7.52-.78.12-1.72.93-.36.72,21-3.3,42.14-4.69,63.09-7.95,13.78-2.15,28.37-4.91,40.73-11.67,11.18-6.12,18.47-15.78,15-28.92-2.74-10.44-9.93-19.39-16.61-27.59-3.93-4.84-8-9.6-11.63-14.66s-5.9-10.7-10.22-15.29c-.33-.36-2.12.34-1.82.65Z"/><path class="cls-6" d="M143.77,326.61c0,12.74,20.29,11.19,28.36,14.56l1.11-1.36c-8.85-3.58-17.06-9.78-26.89-10.2-.13.5-.27,1-.4,1.48a101.09,101.09,0,0,1,18.15,1.25c.14-.49.27-1,.41-1.47A44.69,44.69,0,0,1,152.29,329l-.63,1.41c6.36-.1,12.51-.87,18.79.62,1,.23,1.93-1.16.65-1.47-6.46-1.53-12.73-.74-19.29-.63-.67,0-1.64,1.11-.62,1.42a48.47,48.47,0,0,0,13.16,2c.93,0,1.55-1.27.41-1.47a103.14,103.14,0,0,0-18.66-1.27c-.9,0-1.57,1.42-.4,1.47,9.65.4,17.74,6.57,26.43,10.09.86.34,2.26-.88,1.11-1.36-7.55-3.14-27.55-1.78-27.51-13.33,0-1.05-1.95-.79-2,.13Z"/><path class="cls-6" d="M141.34,329.23c-7.69-.25-13.49,4.83-20.14,7.9-9.8,4.52-20.55,5.26-31.17,4.86-7.31-.27-14.45-1.65-21.73-2-4.27-.21-9.59.38-12,4.38-.06.09-.16.26,0,.34a3.27,3.27,0,0,0,2.2.75c.52,0,2.26-.86,1.21-.95-4.55-.37,4.12-3.47,3.59-3.38a25.62,25.62,0,0,1,6.37,0c2.51.19,5,.61,7.49,1a125.77,125.77,0,0,0,20.25,1,67.22,67.22,0,0,0,19.49-3.3c7.78-2.53,15.36-9.82,23.68-9.54.64,0,2.09-.92.79-1Z"/><path class="cls-6" d="M71.64,375.9C60.76,384.57,56.82,349.34,59.41,343c.27-.66-1.67-.43-1.93.23-3.4,8.34,1.18,44.64,15.72,33.06.88-.7-1-.76-1.56-.36Z"/><path class="cls-6" d="M57.56,342c-2.32-.16-6.12-1.09-7.36,1.74A26.19,26.19,0,0,0,48.77,350c-.56,3.34-4.08,7.33-5.81,10.21-.1.17-.11.35.12.43a26.69,26.69,0,0,0,7.16,1.95c.54,0,2.25-.89,1.2-1-2.52-.19-7.22-.54-5.27-3.8l4.28-7.15c.71-1.18.62-3.38.86-4.73.53-2.93,2.94-3.19,5.48-3,.67,0,2.07-.92.77-1Z"/><path class="cls-6" d="M53.86,351.79c-2.64,2.63-3.91,5.95-5.08,9.42a49.9,49.9,0,0,1-2.93,7.47c-1.84,3.43-5.61,4.07-9,5.11-9,2.75-12.24,14.53-14.79,22.37-1.36,4.18-1.29,8,2.74,10.42,2.82,1.65,7.17,1,9.9-.47,4.56-2.5,7.62-6.5,10.51-10.71,5-7.29,11.25-10.72,19.35-13.81,1.26-.48.12-1.2-.78-.86a71.85,71.85,0,0,0-12.69,6.09c-3.3,2.06-5.51,5.36-7.68,8.5-3.64,5.28-11.94,16.23-19.2,8.66-3.15-3.28.66-10.69,1.91-14.12,2-5.44,4.36-10.56,9.13-14.14,3-2.28,7.32-1.92,10.39-4.39,5.66-4.56,4.61-14,9.78-19.18.81-.81-1.08-.84-1.56-.36Z"/><path class="cls-6" d="M41.64,388.94c-.22,2.44,1.23,4,2.59,5.9.28.39,2-.08,1.87-.6-.58-3-1.14-5.83,0-8.78l-1.86.5c1.41,1.18,3,2,4.44,3.17.41.34,1.84,0,1.88-.61.11-2.13.51-4.22.63-6.34l-1.87.6A14.18,14.18,0,0,0,53.87,386c.42.17,1.59-.07,1.74-.56.43-1.35.79-3.89,2.62-3.82a33.8,33.8,0,0,0,4.27,0c.58-.05,2.09-1,.81-.9-5.37.45-7.76-.84-9.61,5.05l1.74-.57a13.09,13.09,0,0,1-4.32-3.1c-.38-.38-1.84.05-1.87.6-.12,2.13-.52,4.22-.64,6.35l1.87-.61c-1.4-1.18-3-2-4.44-3.17a1.62,1.62,0,0,0-1.86.5c-1.16,3-.62,5.9,0,9l1.87-.6c-1.23-1.73-2.69-3.21-2.48-5.52,0-.62-1.87-.22-1.92.31Z"/><path class="cls-6" d="M65,376.88c-4.55,1.66-3.3,12.82-.48,15.47a1.28,1.28,0,0,0,1.5-.05c3.92-2.92,3.41-7.84,1.2-11.74-1.89-3.35-6.31-4.54-9.91-4.25-2.89.23-5.71,3.95-2.7,6.32s6.89-1.69,8.53-3.95l-1.82-.12c-1.92,2.72-11,19.1-3.88,19.72.82.07,2-1.11.71-1.23-4.59-.39,3.51-16.28,5-18.37.56-.79-1.41-.68-1.82-.12a15.19,15.19,0,0,1-1.72,1.95c-1.65,1.62-4.23.84-4.12-1.62.12-2.68,5.42-1.08,6.62-.4,4.1,2.32,7.52,9.51,2.69,13.11l1.51-.05c-2-1.9-3.9-12.49-.5-13.73,1.26-.46.13-1.27-.8-.94Z"/><path class="cls-6" d="M23.14,404.11c-1.16.58-.9-1-1.36-2a10.74,10.74,0,0,0-2.07-3c-2.46-2.58-.4-7.85.77-10.46,3.52-7.84,12.4-12.93,20.75-13.21,1.09,0,1.5-1.42.18-1.38a27.45,27.45,0,0,0-20.56,10.79,20.14,20.14,0,0,0-4.16,11.41c0,.59-.14,2.8.41,3.17,2.3,1.53,3,3.95,4.31,6.22.23.4,1,.29,1.31.13l1.27-.64c1.18-.59.12-1.58-.85-1.1Z"/><path class="cls-6" d="M72.72,379.33c-1,3.92,1,8.6,1.91,12.37,1.58,6.61.62,13.68.19,20.37-.94,14.73,2.29,29.22,5,43.6C82,467.43,83.53,479,82.15,491c-.51,4.48-1,8.95-1.29,13.45-.13,2.28-.61,5.94.89,7.92.52.69,2.36-.06,1.77-.85-1.67-2.2-.75-6.8-.58-9.34.31-4.49.9-8.95,1.41-13.41,1.29-11.26-.57-22.5-2.61-33.57-2.64-14.34-5.75-28.55-5-43.23.33-6.14,1-12.28.24-18.42-.58-4.52-3.57-9.75-2.35-14.33.24-.91-1.73-.67-2,.16Z"/><path class="cls-6" d="M83.58,514.56c-.16.86.24,1.19,1.12,1.07a5.72,5.72,0,0,0,1.4-.45,6.88,6.88,0,0,1,4.12-.71c3.67.38,7.84,1.37,11-1.19.84-.68-1.1-.61-1.54-.25-2.48,2-7.21.5-10.12.28a4.86,4.86,0,0,0-2,.2c-.56.2-2.09,1-2,.79.13-.68-1.81-.35-1.92.26Z"/><path class="cls-6" d="M80.4,511.52c.27,3.74,6.32,4.61,9,3.43,1.22-.54.12-1.45-.83-1-2,.88-6.06-.43-6.24-2.92,0-.8-2-.35-1.93.52Z"/><path class="cls-6" d="M105.72,375.5c-1.47,6.25-1,12.56-.7,18.91.29,6.76.28,13.51.74,20.27.5,7.17,1.29,14.37,1.33,21.56,0,7.39-1.39,14.76-1.91,22.11-1,14.17,1.78,28.62,1.86,42.82,0,2.65.1,5.3,0,7.95a21.18,21.18,0,0,1-.85,5.31c-1.1,3.55-4,.53-5.5-1.06-.6-.64-2.43.14-1.77.85,4.14,4.44,8.42,4.65,9.71-1.91.69-3.53.46-7.25.4-10.83-.13-7.71-.51-15.37-1.06-23.05-.67-9.33-1.14-18.29-.13-27.6a134.11,134.11,0,0,0,.8-23.95c-.62-9.14-1.4-18.25-1.55-27.41-.13-8-1.24-16.24.61-24.12.22-.93-1.75-.7-2,.15Z"/><path class="cls-6" d="M83.57,515.15c.46,10.66-2.67,21-.72,31.64,1.23,6.74,5,13.42,12.53,13.59,6.09.14,9.87-6.26,11.47-11.25,3.19-9.9-2.58-19.26-2.92-29.07,0-1-2-.67-2,.16.27,7.49,3.62,14.37,3.88,21.84.23,6.41-2.91,17.12-10.9,16.94-7.72-.17-10-10.3-10.7-16.27-1.08-9.29,1.67-18.44,1.27-27.74,0-1-2-.66-2,.16Z"/><path class="cls-6" d="M84.27,549.23c-1.64,4.56,4.92,6.83,8.21,7.45,5.1,1,10.54-.88,12.1-6.15.27-.92-1.71-.7-2,.14-1.4,4.72-6.32,5.36-10.52,4.39-2.25-.53-7.11-2.48-6-5.61.38-1.05-1.56-1-1.85-.22Z"/><path class="cls-6" d="M89.51,548c3.61-.15,8.13-.64,11.06-2.93a.41.41,0,0,0,.11-.57,11.54,11.54,0,0,0-5.49-3.15c-.93-.29-4.32-.27-1.15-1.34a43.78,43.78,0,0,1,4.61-1c.3-.06,1.13-.49.76-.9-2.28-2.56-5.35-3.73-8.38-5.17l-.63,1c2.28-.6,4.49-.91,6.6-2,.25-.12.81-.46.5-.81-1.63-1.88-4.08-2.58-5.71-4.44l-1,1c2.45-.17,4.3-.83,5.47-3.07.45-.85-1.49-.67-1.81-.08l-3.41,2c-.32,0-1.46.46-1,1,1.63,1.87,4.09,2.58,5.72,4.44l.5-.82c-2,1-4,1.26-6.09,1.82-.31.08-1.31.68-.63,1,2.93,1.39,5.91,2.49,8.12,5,.25-.3.51-.6.76-.91-3,.65-5.8.92-8.26,2.88a.4.4,0,0,0,.2.74c1.24.24,2.47.51,3.7.81,1.8.44,5.54,2.59,1.62,3.59a29.12,29.12,0,0,1-5.88.82c-1,0-1.58,1.2-.25,1.14Z"/><path class="cls-6" d="M92.49,545.35c1.14-3.57,4-5.94,6.9-8.16.17-.13.08-.23-.08-.28a19.4,19.4,0,0,0-4.92-1.12c-1-.07-7.24.71-3.14.52A10.78,10.78,0,0,0,97.48,534c.09-.06.14-.17,0-.24a6.4,6.4,0,0,0-2.37-1.4L90.81,531a13,13,0,0,0,5.48-4.73c.11-.18-.24-.2-.32-.2-1.8,0-2.1.46.45.08.1,0,1.46-.45,1.1-.66-3.64-2.12-10.29.05-13.1-3.33-1.65-2,2.52-3.81,3.33-3.81a9.81,9.81,0,0,1,4.13,1.13c2.3,1.11,3.23,3.17,1.32,5.14l1.82-.25c1.22-3.95,9.47-7.08,12.74-4.93,3.51,2.29-4.16,5.32-5.36,5.55a12.92,12.92,0,0,1-6.27-.18l-1.59.73c6,1.07,10.33,5.9,16.67,5.72.39,0,2.19-.78,1.26-.76-6.15.17-10.49-4.65-16.34-5.69-.37-.06-2.17.55-1.59.73,3.1,1,7,.51,10-.46,1.6-.5,7.82-3.09,5.39-5.86-3.5-4-15.5,1.15-16.84,5.5-.14.45,1.61,0,1.82-.26,5.18-5.33-6.08-7.46-9.72-6.29-1.56.5-4.44,3.48-2.34,5,3.69,2.65,9,.76,12.82,3l1.09-.67c-1.08.16-2.09.48-3.17.64-.26,0-1.74.72-.82.72,0,.62,0,1.24,0,1.86a18.38,18.38,0,0,1-4.38,2.73c-.14.07-.68.38-.24.47,1.34.28,2.69.52,4,.79,5.89,1.19-.77,2.9-2.61,2.91-.39,0-2.2.76-1.26.76,1.81,0,10.67-.23,7.2,2.61a14.49,14.49,0,0,0-5,6.7c-.11.35,1.75.13,1.9-.35Z"/><path class="cls-6" d="M97.31,525.83c2.81,1.17,6.5.74,9.44.48s6.61-.65,8.89-2.61c1-.85-.57-1.39-1.26-.79-2.1,1.8-5.62,1.92-8.24,2.15-2.4.21-5.41.49-7.7-.46-.75-.31-2.25.77-1.13,1.23Z"/><path class="cls-6" d="M115.41,521.58c-.29,0-2,.32-1.57.92s1.42.61,2,.62l.8-.91h-1.92c-.37,0-1.38.2-1.38.71v1.9c0,.44,2,.12,2-.52v-1.9c0,.24-.93.48-1.39.71h1.9a1.83,1.83,0,0,0,1.28-.49c.31-.34-.27-.41-.49-.42a2,2,0,0,1-.76-.16l-.17-.11c0-.05,0,0,0,0a2.2,2.2,0,0,0-.2.23l-.93.31a1.86,1.86,0,0,0,1.28-.49c.3-.34-.25-.43-.48-.42Z"/><path class="cls-6" d="M109,533.72c.11,1.12,2,1.4,2.88,1.42a2.44,2.44,0,0,0,1.37-.37c.3-.2.26-.44-.12-.45-.67,0-2.11-.24-2.2-1.12,0-.39-2,0-1.93.52Z"/><path class="cls-6" d="M74.7,331.11H73.43c-.29,0-1.5.27-1.36.77A16.86,16.86,0,0,0,76.58,339c.42.43,2.23-.27,1.81-.7A16.42,16.42,0,0,1,74,331.38c-.45.24-.9.73-1.36.73h1.27c.64,0,2.09-1,.79-1Z"/><path class="cls-6" d="M75.24,333.18a11.77,11.77,0,0,0,4,5.94c.56.39,2.33-.41,1.52-1a10.86,10.86,0,0,1-3.6-5.48c-.26-.73-2.18-.18-1.94.52Z"/><path class="cls-6" d="M78.41,331.1c.09,2.29,1.39,4.18,2.63,6,.45.67,2.3,0,1.77-.83-1.08-1.61-2.37-3.37-2.45-5.38,0-1-2-.62-2,.17Z"/><path class="cls-6" d="M79.75,422.78C78,416,84.32,407,89.68,403.39c.79-.54-1.15-.28-1.48-.05-5.61,3.78-12.26,12.82-10.38,20,.11.42,2.05-.09,1.93-.52Z"/><path class="cls-6" d="M82.92,424.16c1.22-3.64,2.48-7.37,5.5-9.93.8-.67-1.13-.47-1.5-.16-3.22,2.73-4.61,6.49-5.91,10.39-.17.49,1.73.24,1.91-.3Z"/><path class="cls-6" d="M86.11,428a27.16,27.16,0,0,1,.63-6.35c.2-.84-1.76-.56-1.94.19a27.16,27.16,0,0,0-.63,6.35c0,.93,1.94.56,1.94-.19Z"/><path class="cls-6" d="M85.47,433.57a3.43,3.43,0,0,1,.55-2.31c.31-.34-.26-.43-.48-.42a1.91,1.91,0,0,0-1.29.48,4,4,0,0,0-.71,2.77c0,.43,1.93.12,1.93-.52Z"/><path class="cls-6" d="M84.8,438.34c0,.55.07,1.05.73,1.14s1.23-.43,1.7-.9a.6.6,0,0,0-.27-1,1.29,1.29,0,0,0-1.36.36l-.16.16c-.17.14-.09.11.23-.07l.74,0h0l.33.24c.12.17.05.11.05-.09,0-1-2-.79-2,.13Z"/><path class="cls-6" d="M75.93,280.64c1.89,1.56,4.74,1.93,7.07,2.39,3.5.7,7.06,1.12,10.6,1.62.82.11,2-1,.72-1.22-2.81-.39-5.62-.76-8.42-1.23-2.48-.42-6.18-.69-8.19-2.36-.57-.47-2.38.3-1.78.8Z"/><path class="cls-6" d="M76.68,281.33a45.67,45.67,0,0,1,8.89,3.8c.51.33,2.3-.43,1.55-.91a45.67,45.67,0,0,0-8.89-3.8c-.56-.21-2.32.63-1.55.91Z"/><path class="cls-6" d="M96.18,84.35a8.35,8.35,0,0,1,1.15-3.45c.15-.3-.43-.37-.58-.37a1.75,1.75,0,0,0-1.28.51,2.15,2.15,0,0,0-.64,1.28c0,.73,1.9.31,1.92-.27a1.62,1.62,0,0,1,.51-1l-1.86.14a8.5,8.5,0,0,0-1.15,3.45c0,.73,1.91.31,1.93-.27Z"/><path class="cls-6" d="M132.8,76.88c-.61,1.11.19,3.33.4,4.46a50.42,50.42,0,0,1,1.28,7.79c0,1,2,.73,2-.14a36.29,36.29,0,0,0-.87-6c-.24-1.24-.49-2.47-.7-3.71-.09-.51-.48-1.73-.21-2.22.53-.95-1.43-1-1.85-.22Z"/><path class="cls-6" d="M105.25,96.93a4,4,0,0,0,2.82,1.33c.37,0,1.49-.25,1.34-.82s-.28-1.53-.84-2a6.07,6.07,0,0,0-1.84-.63c-.49-.15-1.58.16-1.55.8.15,3.82,5.06,3.35,7.31,1.76,1.07-.75-.58-1-1.2-.6-1.75,1.24-4.08.7-4.18-1.68l-1.56.79a4.81,4.81,0,0,1,1.32.39c.41.31.49,1.19.61,1.64.44-.28.89-.55,1.34-.82a2.65,2.65,0,0,1-1.78-1c-.5-.5-2.32.23-1.79.76Z"/><path class="cls-6" d="M96.54,93.74c0,5,.17,9.94,2.32,14.57.42.89,2.33.34,1.93-.52-2.09-4.51-2.28-9.28-2.29-14.17,0-1.07-2-.81-2,.12Z"/><path class="cls-6" d="M44.35,299.63c-.4,5.71-16.84,23.8-8.29,27.11a48.11,48.11,0,0,0,8.73,1.94c3.26.58,6.54,2.25,9.87,2.15,5.23-.15,5.83-6.73,8.21-10.11.45-.63-1.47-.38-1.77,0A28.93,28.93,0,0,0,58.94,325c-.45.93-.91,1.86-1.39,2.78-1.63,3.12-4.63,1.77-7.28.94A43.52,43.52,0,0,0,45,327.58c-2.36-.43-7.93-.58-9.33-2.94-2-3.33,3.16-10.25,4.71-12.9,2.16-3.68,5.59-8,5.89-12.4.05-.66-1.88-.24-1.91.29Z"/><path class="cls-6" d="M56.39,298.39c-1.84,7.28,12.73,14.46,3.79,21.3-1,.8.5,1.58,1.3,1,3.6-2.75,4-6.23,2.38-10.31-1.38-3.37-6.47-8.28-5.5-12.07.25-1-1.74-.78-2,.12Z"/><path class="cls-6" d="M50.14,315.5c-.81,1.71-1.48,3.48-2.29,5.18a.43.43,0,0,0,.16.59,24.21,24.21,0,0,0,7.65,3.53,1.31,1.31,0,0,0,1.55-.7c.53-1.74,1.55-3.15,3.52-3.29,1-.07,1.53-1.37.21-1.28a6.19,6.19,0,0,0-5.68,4.76l1.55-.69a22.21,22.21,0,0,1-6.79-3c-.39-.24,1.66-4.29,1.95-4.91.45-.94-1.5-.83-1.83-.15Z"/><path class="cls-6" d="M48.9,320.81c-1.09.07-2.08.54-3.19.56-.45,0-1.33.2-1.33.79v.58c0,.39.89.26,1.07.2,1.51-.48,3.08-.67,4.59-1.15-.16-.28-.33-.56-.5-.84A8.43,8.43,0,0,0,45,324.19c-.47.68,1,.52,1.27.39a11.37,11.37,0,0,0,3.26-2c.41-.38.07-.66-.39-.67-1.37,0-2.66-.53-4-.58-.25.36-.51.71-.76,1.06a9.66,9.66,0,0,0,5-2c1.09-.72-.6-.93-1.19-.54a6.56,6.56,0,0,1-3.05,1.46,1.69,1.69,0,0,0-1.28.52c-.27.38.23.53.52.54,1.35.05,2.65.55,4,.58l-.39-.68a8.31,8.31,0,0,1-2.47,1.49l1.27.39a6.36,6.36,0,0,1,3.5-2.51c1.08-.36.37-1.11-.5-.84-1.51.48-3,.68-4.55,1.16a5.89,5.89,0,0,1,1.14.2v-.58c-1,.27-1,.53-1.4.79a10.65,10.65,0,0,0,2.11-.23,12,12,0,0,1,1.55-.36c.94-.06,1.6-1.11.26-1Z"/><path class="cls-6" d="M50.29,317.71a5.42,5.42,0,0,0,0-4.11c-.21-.43-1.93,0-1.93.51v.58c0,.12.28.13.33.13a2.94,2.94,0,0,1,2,.51c.39.34,2.1-.41,1.82-.65A3.8,3.8,0,0,0,50,314c.11,0,.38.09.38.13v-.57a15.06,15.06,0,0,0-2,.51,5.13,5.13,0,0,1,0,3.94c-.12.38,1.73.15,1.89-.34Z"/><path class="cls-6" d="M52.48,313.71c1.43,1.87,3.74,3.74,2.83,6.34-.38,1.08,1.55,1.11,1.85.25,1.11-3.15-1.14-5.14-2.92-7.46-.57-.73-2.4.05-1.76.87Z"/><path class="cls-6" d="M174.82,289.34c.9,6.46,7.13,11.47,6.32,18.21-.12,1,1.85.69,2-.16.84-6.95-5.42-12-6.34-18.57-.12-.86-2.06-.38-1.93.52Z"/></svg>