<svg id="layer1" xmlns="http://www.w3.org/2000/svg" viewBox="0 0 193.34 256.23"><defs><style>.cls-1{fill:#966033;}.cls-2{fill:#492d0c;}</style></defs><path class="cls-1" d="M155.35,91.16a4.69,4.69,0,0,0-4.41-3.49c-2.58-.15-4.87-.5-7.44.06a5.06,5.06,0,0,0-1.42.54c-1.72-.28-3.45-.51-5.18-.65a51.91,51.91,0,0,0-4.43-11.94,35.33,35.33,0,0,0-8-10.15,4,4,0,0,0-2-2.42c-5.74-3.21-11.89-5.6-17.67-8.74a111.65,111.65,0,0,0,1.88-13.49c.31-4.8,4.42-10.14-.6-11.87-2.06-.72-5.68.92-15.86-.2-2.72-.3-9.35-1.44-12-.92a36,36,0,0,1-5.85.89,4.68,4.68,0,0,0-4.47,3.38,5.53,5.53,0,0,0-1,2.54,69.62,69.62,0,0,0,1,19.85c-14.09,4.68-28.8,18.22-31.61,30a149.66,149.66,0,0,0-15-.54,4.69,4.69,0,0,0-4.56,3.36c-2.33,9.39-1.87,19.2-1.2,28.76a4.76,4.76,0,0,0,4.55,4.73,44.47,44.47,0,0,0,13-1.36,17.5,17.5,0,0,0,3,8c.46,5.73,3.33,10.76,7.38,15a4.34,4.34,0,0,0,3,1.33,4.42,4.42,0,0,0,2,2.21c.55.31,1.12.6,1.7.88A71.4,71.4,0,0,0,62,152.25a4.13,4.13,0,0,0,2,.15c1.39.45,2.78.89,4.18,1.31a4.74,4.74,0,0,0,1.67.2c-2.62,20.59-8.59,40.72-9.83,61.47a4.4,4.4,0,0,0-.88,2.67c-.08,4.24-.77,9,.22,13.1.1,1.57.23,3.13.42,4.7.23,1.93,2.55,3.57,4.4,3.49a11.35,11.35,0,0,0,1.43-.14c6.54,3.63,14.32,1.63,21.68,1.83a31.42,31.42,0,0,0,8.75-.62,19.43,19.43,0,0,0,5.93-.77,4.72,4.72,0,0,0,3.35-5.64c-.29-1.45-.58-2.91-.82-4.38,1.33-6,.69-12.07-.17-18.19l.08-5.86c0-1.24,0-2.26-.9-3l.16-13.53a4.68,4.68,0,0,0-.87-2.46,266.92,266.92,0,0,0-.62-28.29l0-1.47a30.29,30.29,0,0,0,13.38-4.86c5.5-2,10-6.49,13.35-11.56l.53-.58a30.82,30.82,0,0,0,9.08-13.13c.56-1.11,1.06-2.25,1.51-3.39,3.68.44,7.34,1.16,11.05,1.27a4.68,4.68,0,0,0,4.73-4.55C156,110.37,157.43,100.67,155.35,91.16Zm-114.88,17-3,.83a5,5,0,0,0,.53-2.11c.9.23,1.81.45,2.72.65Q40.57,107.88,40.47,108.19ZM65.36,73.6c2-.56,4-1.07,6-1.63,0,.19.07.38.1.57a3.8,3.8,0,0,0,.13.51c.36,5,1,10,1.39,15-6.77-.28-13.51-1-20.25-1.77A32.64,32.64,0,0,1,65.36,73.6Zm-7.3,55C57,127.45,56,126.25,55,125.1a25.65,25.65,0,0,0-1.46-4.52,27.1,27.1,0,0,1-.35-3.37c7.2-.84,14.4-2,21.62-2.35-.73,6.69-3.07,13.19-2.9,20C66.83,133.37,62.05,131.82,58.06,128.59Zm42.32,5.4a137,137,0,0,1-.07-13.75,97.7,97.7,0,0,0,17.82,2.37C114.07,128.61,107.65,132.44,100.38,134ZM119.87,90.5l-.18,1c-3-.26-6-.32-8.94-.52a38.67,38.67,0,0,1-7.71-1.2c-2-.56-2.82-1.17-3.23-2.61a11.7,11.7,0,0,1-.27-1.31c.17-1.85,0-3.7.1-5.55,1.13-.7,1.65-1.93,1.67-3.72l0-4a20.16,20.16,0,0,1,6.43,2.21,87.06,87.06,0,0,0,6.66,6,4.68,4.68,0,0,0,.74,1.75c1.43,2.27,2.64,4.68,4.08,7,0,0,0,0,0,0,.17.27.36.53.56.79A2.81,2.81,0,0,1,119.87,90.5Z"/><path class="cls-2" d="M70.37,30.12c-6.77-2.81-4.7,9.78-4.32,12.66,2.08,15.68,5.89,31,6.51,46.89,0,.38,1.92,0,1.93-.51,0-.39,0-.78,0-1.17s-1.93-.07-1.93.52c0,.39,0,.77,0,1.16l1.93-.51C74,75.47,71.3,62,69,48.57c-.33-2-2.58-18.66-.21-17.68.44.19,2.19-.51,1.58-.77Z"/><path class="cls-2" d="M69.79,29.83c9.84,0,19.64-.52,29.49-.16a41.34,41.34,0,0,1,4.3.37c2.29.34,1.54,2,1.48,3.92-.19,5.49-.77,11-1.42,16.43-1,8.09-2.41,16.1-3.29,24.21-.39,3.6-.7,7.21-1,10.82-.12,1.34.2,3.93-.42,5.16-.22.45,1.64.27,1.92-.29.62-1.22.31-3.82.42-5.16q.49-6.07,1.15-12.16c1.06-9.85,2.88-19.6,3.86-29.47.39-3.85,1.67-9.59.74-13.42-.29-1.21-3.89-1.17-4.62-1.23-10.59-.88-21.23,0-31.82,0-.63,0-2.09.95-.79,1Z"/><path class="cls-2" d="M73,88.92c-14.8-1-29.54-2.7-44.33-3.72-3.21-.22-7-.52-10,.81-2.53,1.11-1.85,7-2,9.19-.32,4.82-.41,9.65-.49,14.48,0,2.33-.9,10.86,2,12,1.68.66,4.62-.46,6.33-.72,4.22-.62,8.45-1.14,12.68-1.65,9.1-1.09,18.24-2.08,27.4-2.6a35.89,35.89,0,0,1,7.4,0c.88.14.58,2.27.57,2.89-.11,13.85-2.36,27.88-3.95,41.61-1.69,14.65-3.51,29.29-5.34,43.93-.5,4-1,7.94-1.48,11.92-.4,3.35-5.15,20.05-.36,21.74.53.19,2.29-.61,1.56-.87-3.32-1.17-.68-12-.33-14.41.46-3.19,1-6.37,1.4-9.57q1.07-8.66,2.16-17.3c2.12-17,4.21-34.09,6-51.16.74-6.87,1.46-13.75,2-20.64.11-1.51,1.29-7.43,0-8.69-.73-.71-2.35-.55-3.27-.58a100.45,100.45,0,0,0-10.11.46c-8.87.65-17.73,1.64-26.56,2.73-2.24.27-14,3.25-15.11,1.07-1.49-3-1-7.41-1-10.66.06-4.3.18-8.59.4-12.88.13-2.63-.57-9.55,2.68-10.08,5.54-.89,11.37.62,16.9,1,11.26.73,22.47,1.95,33.73,2.7.53,0,2.25-.89,1.21-1Z"/><path class="cls-2" d="M99.55,91.11c3.57.65,7.48.24,11.08.11,6.4-.24,12.79-.67,19.17-1.11,5.93-.41,11.85-.86,17.78-1.31l5.4-.39c2.23-.15,1.57,5.88,1.57,7.34,0,7.12-1.24,14.28-.79,21.39.28,4.44.51,6-4.55,5.77-7.82-.42-15.67-1.74-23.41-2.84-8.9-1.25-18.23-3.54-27.21-3.64-.52,0-1.42.24-1.31.93,1.56,9.88,1.8,20.09,2.48,30q1.76,25.57,3.06,51.16c.63,12.25,1.47,24.58,1.23,36.84a19.23,19.23,0,0,1-.22,3.13c.07-.36,1.21-.34-.64-.36l-5.33-.07-28.13-.34-7.28-.09c-.89,0-2,1.33-.68,1.35l25.75.31,12.24.15c1.36,0,4.3.66,5.51-.21s.75-4.82.76-6.16c0-5.49-.21-11-.42-16.48q-1.76-45.63-5.52-91.2c-.24-2.86-.43-5.75-.88-8.58l-1.3.93c17.89.21,35.61,7.07,53.57,6.53,2.57-.07,4.37-1.2,4.43-3.87.16-6.75.16-13.45.47-20.24.1-2.12,1.74-13.42-2.5-13.19-5.09.28-10.17.75-15.25,1.12-7.63.57-15.26,1.1-22.89,1.51-5,.26-10.55,1-15.51.12-.91-.16-2,1.12-.68,1.35Z"/><path class="cls-2" d="M34.91,85.8l0,.43c0,.26,1.78-.06,1.91-.44,2.88-8.31,6.18-15,13-20.8,4.59-3.92,11.42-8.16,17.66-8.49.36,0,2.17-.79,1.26-.74-5.75.3-11.47,3.18-16.25,6.18C43.2,67.79,38.39,76.05,34.89,86.15l1.92-.44,0-.42c0-.21-1.89,0-1.93.51Z"/><path class="cls-2" d="M53.46,86.8h0a1.65,1.65,0,0,0,1.86-.5c3.25-7.11,8.52-11.68,16.52-12.92.83-.13,1.67-1.06.32-.85C63.4,73.9,57.06,78.63,53.42,86.61l1.86-.5h0c-.52-.3-2.16.49-1.81.69Z"/><path class="cls-2" d="M52.67,117.37c-.56,10.21,9.64,18.33,19.52,18,1.08,0,1.5-1.42.18-1.37-9.06.33-18.25-7.57-17.75-16.75.06-1-1.9-.69-1.95.16Z"/><path class="cls-2" d="M32.43,120.38a39.09,39.09,0,0,0,37.33,34.08c.67,0,2.08-.94.78-1a38.3,38.3,0,0,1-36.18-33.6c-.07-.57-2-.14-1.93.52Z"/><path class="cls-2" d="M100.66,135.46c7.44-.22,18.58-5.62,18-14.57,0-.49-2-.12-1.93.52.51,7.69-8.76,12.92-15.25,13.12-.61,0-2.09,1-.8.93Z"/><path class="cls-2" d="M101.5,73.43c8.2,2.7,13.64,9.13,17.39,16.66.42.82,2.24.07,1.77-.88-3.88-7.77-9.61-14.37-18.06-17.14-.89-.29-2.28,1-1.1,1.36Z"/><path class="cls-2" d="M103.5,55.39c17.33,4.32,29.39,15,33.15,33,.14.68,2.08.2,1.93-.52-3.83-18.39-16.27-29.18-33.9-33.58-.63-.16-2.28.79-1.18,1.07Z"/><path class="cls-2" d="M103.49,155.32s0-.07,0-.1l-.78.94c4.63-1.72,9.49-2.06,14.08-4.2a47.94,47.94,0,0,0,13.57-9.85c4.18-4.21,10.42-11.92,10.22-18.36,0-1-2-.76-2,.13.18,5.6-4.92,11.94-8.26,15.86a46,46,0,0,1-13.09,10.36c-4.82,2.63-10,2.84-14.92,4.69-.42.16-.86.43-.78.94,0,0,0,.07,0,.1.15.93,2.08.44,1.93-.51Z"/><path class="cls-2" d="M22.91,89.4c-1.38,2.59-.3,5.64-.15,8.4.32,6.16-.12,12.35-.23,18.51,0,1,1.94.73,2-.15.08-4.93.3-9.86.31-14.8,0-3.28-1.58-8.84,0-11.74.51-1-1.45-1-1.85-.22Z"/><path class="cls-2" d="M23.14,117.16c7.66,0,15.42-1.43,23-2.29,10.11-1.14,20.28-2.3,30.4-3.24,1-.09,1.58-1.27.24-1.15-9.72.9-19.47,2-29.18,3.1-7.83.87-15.86,2.37-23.75,2.41-.77,0-2,1.18-.73,1.17Z"/><path class="cls-2" d="M24.11,89.93c4.17-.16,8.3.68,12.46.84,4.34.18,8.67.31,13,.68s8.67,1,13,1.7,8.67.52,12.83,1.84c.46.15,2.19-.58,1.58-.78-3.36-1.07-6.81-1.23-10.31-1.53-4.67-.4-9.32-1.38-14-1.89-4.94-.53-9.91-.76-14.88-.85-4.32-.08-8.55-1-12.88-.84-.54,0-2.1.88-.82.83Z"/><path class="cls-2" d="M78.19,94.36c-1.31-2.48-.51-6.34-.33-9a72.71,72.71,0,0,0-.62-12.76C75.89,60.35,73.73,48,73.77,35.71c0-.27-1.93,0-1.93.52,0,12.32,2.06,24.65,3.47,36.87a70.94,70.94,0,0,1,.62,12.77c-.18,2.66-1,6.53.33,9,.24.45,2.07-.27,1.93-.52Z"/><path class="cls-2" d="M73.42,36.39c9.29-.4,18.47.49,27.75.68,1.14,0,1.44-1.48.14-1.51-9.29-.19-18.45-1.08-27.75-.68-1.13,0-1.45,1.57-.14,1.51Z"/><path class="cls-2" d="M100.27,36.44a291.13,291.13,0,0,1-3.91,37.84C95.68,78.52,95,82.77,94.47,87c-.24,1.84-1.41,6-.39,7.71.37.63,2.22,0,1.93-.52-1.07-1.82.27-6.49.52-8.48.5-3.92,1.14-7.82,1.76-11.72a294.84,294.84,0,0,0,3.91-37.84c0-.78-1.91-.36-1.93.25Z"/><path class="cls-2" d="M94.41,94.85c14.81.11,29.71-1.46,44.45-2.68l7.64-.64c1.16-.09,1.42-.45,1.43.44,0,1.86.12,3.71.2,5.57.16,3.88.34,7.76.42,11.64.06,2.48.68,6.5-.56,8.78-.1.19,1.65.1,1.9-.36,1.58-2.91.62-8.1.54-11.23-.15-5.2-.51-10.39-.58-15.59,0-.16-.48-.1-.54-.09-17.84,1.21-35.72,3.57-53.63,3.44-.36,0-2.19.72-1.27.72Z"/><path class="cls-2" d="M94.21,112.71c9.13.73,18.17,2.26,27.25,3.42,5,.64,10,1.18,15,1.43,3.79.18,8-.35,11.69.6.46.12,2.16-.61,1.58-.76-2.83-.73-5.91-.46-8.8-.53-5.54-.15-11-.68-16.53-1.33-9.66-1.15-19.24-2.86-28.95-3.64-.42,0-2.22.73-1.24.81Z"/><path class="cls-2" d="M76.73,111.48c-.19,6.27-1.23,12.44-1.83,18.67-.65,6.82-.6,13.71-1.17,20.54-1.12,13.51-3,26.93-3.92,40.47-.61,8.59-1.41,17.12-2.25,25.68-.27,2.68-2.39,12.31.41,14.26.7.49,2.39-.48,1.49-1.11-1.28-.9-.5-5.66-.44-7,.17-3.47.54-6.94.92-10.4,1-9.12,1.57-18.25,2.24-27.41.9-12.21,2.65-24.33,3.66-36.52.52-6.22.56-12.46,1-18.67s1.64-12.4,1.82-18.67c0-1-1.93-.73-2,.14Z"/><path class="cls-2" d="M68.12,230.7c4.59,1.15,9.31.83,14,.87,5.47,0,12.37-1.5,17.67.16.56.17,2.31-.67,1.55-.91-3.66-1.14-7.64-.64-11.4-.41-6.55.39-14.27.89-20.63-.71-.58-.15-2.28.73-1.2,1Z"/><path class="cls-2" d="M93.87,112.44c-.93,3.26.4,7.66.56,11,.27,5.77.49,11.54.93,17.31.87,11.54,1.35,22.94,1.34,34.52a275.16,275.16,0,0,0,2.06,33.83,96.66,96.66,0,0,1,.58,13.72c-.06,2.71-.47,6.6,1.36,8.84.37.46,2.23-.2,1.8-.72-1.73-2.14-1.25-6.09-1.23-8.64a136.72,136.72,0,0,0-.57-13.72c-1-10.72-2-21.14-2.07-31.94s-.13-21.67-1-32.53c-.48-5.83-.76-11.65-1.08-17.49-.14-2.46-.21-4.92-.37-7.38-.14-2.15-1-4.91-.36-7.06.17-.6-1.75-.32-1.92.27Z"/><path class="cls-2" d="M97.49,40.33a1.56,1.56,0,0,0-1.43-1.12,188.86,188.86,0,0,0-19.18-.58,1.53,1.53,0,0,0-1.51,1.48A46.93,46.93,0,0,0,76,44.92c.17,1.9,3.16,1.95,3,0-.09-1.09-.37-2.25-.52-3.37,5.48-.12,10.94.19,16.4.55.62,4.48-6.64,5.69-7.59,10.06-.41,1.88,2.46,2.72,2.87.83.52-2.41,3.73-3.74,5.45-5.25A6.46,6.46,0,0,0,97.49,40.33Z"/><path class="cls-2" d="M89.59,86.83A38.39,38.39,0,0,1,87.69,93c-.66,1.68-1.85,5-3.72,5.7a1.66,1.66,0,0,0-.74,2.45,17.25,17.25,0,0,0-9.81-3.66c-1.93-.08-2,2.91,0,3a13.75,13.75,0,0,1,9.18,4.13c1.3,1.42,3.43-.67,2.14-2.09a11.43,11.43,0,0,0-.93-.91,1.23,1.23,0,0,0,1,0c2.36-.93,3.69-3.17,4.77-5.35a35.45,35.45,0,0,0,3-8.62C92.84,85.78,90,84.94,89.59,86.83Z"/><path class="cls-2" d="M85.22,91.37c-3.37-2.46-3.69-8-3.71-11.78,0-4,.51-8.8,2.82-12.23,1.08-1.6-1.49-3.13-2.56-1.54C79,70,78.44,75.72,78.53,80.58S79.61,91,83.68,93.93C85.24,95.07,86.76,92.49,85.22,91.37Z"/><path class="cls-2" d="M93.7,57.4c-1-1.61-3.65-.14-2.6,1.47,2.76,4.21,2.41,9.89.92,14.49s-6.39,7.36-7.9,12c-.59,1.84,2.28,2.66,2.87.83.86-2.66,3.43-4.69,5.1-6.85a18.38,18.38,0,0,0,3.29-6.82C96.66,67.67,96.54,61.72,93.7,57.4Z"/><path class="cls-2" d="M88.15,72.45c-.33-.35-.62-.73-.92-1.1l0-.06,0,0-.26-.37,0-.07s0-.08,0-.12A1.52,1.52,0,0,0,85,69.63a1.54,1.54,0,0,0-1.09,1.94,3.45,3.45,0,0,0,.59,1.08A17,17,0,0,0,86,74.54a1.5,1.5,0,0,0,2.14-2.09Z"/><path class="cls-2" d="M90.66,64.9c-1.92-.71-3.41-3-4.47-4.61-.72-1.08-2.88-4.24-2-5.61a1.49,1.49,0,0,0-2.56-1.54c-1.46,2.4.28,5.66,1.49,7.79,1.51,2.67,3.78,5.74,6.76,6.84C91.65,68.44,92.46,65.56,90.66,64.9Z"/><path class="cls-2" d="M86.68,45.32C80.5,46.46,76,51.11,76.53,57.6c.15,1.91,3.14,2,3,0-.43-5.26,3-8.51,7.92-9.43C89.34,47.86,88.57,45,86.68,45.32Z"/><path class="cls-2" d="M102.49,106.85c-1.91-.78-3.86-1.43-5.78-2.16-1.36-.52-4.27-1.29-4.92-2.77-.77-1.77-3.36-.28-2.6,1.48s3,2.63,4.65,3.33c2.56,1.1,5.23,1.94,7.82,3C103.45,110.44,104.25,107.56,102.49,106.85Z"/><path class="cls-2" d="M84.9,105.62c-1.61,5.38-5.15,9.91-5,15.75,0,1.93,3,2,3,0-.11-5.48,3.41-9.89,4.92-15A1.49,1.49,0,0,0,84.9,105.62Z"/><path class="cls-2" d="M92.24,122.54c-.46-2.69-1.32-5.47-1.08-8.22.16-1.93-2.83-1.95-3,0-.22,2.59.46,5.23.94,7.76a24.56,24.56,0,0,1,.25,8.8c-.83,5.25-3.17,10.6-3,16,.08,1.92,3.07,2,3,0-.21-5.42,2.25-10.87,3-16.21A25.6,25.6,0,0,0,92.24,122.54Z"/><path class="cls-2" d="M85.73,123.09c-5.51,2-7.36,9.41-8.11,14.52s-1.18,13.09,3.61,16.6c1.56,1.14,3.08-1.44,1.54-2.57-3.46-2.53-2.72-9.54-2.29-13.14a28.46,28.46,0,0,1,2.1-7.83c.78-1.75,2-4,3.91-4.69S87.55,122.44,85.73,123.09Z"/><path class="cls-2" d="M87,139.22c-.33-1.65-1.2-3.47-1.25-5.1-.06-1.92-3-2-3,0s1,3.94,1.35,5.89S87.41,141.11,87,139.22Z"/><path class="cls-2" d="M90.44,156.73a97.11,97.11,0,0,1-5.36-10c-.84-1.73-3.44-.25-2.6,1.48a95.94,95.94,0,0,0,5.36,10C88.87,159.82,91.48,158.36,90.44,156.73Z"/><path class="cls-2" d="M92.94,148.53c-1.07-1.58-3.68-.12-2.6,1.48,3.64,5.42.17,14.42-6.16,15.89-1.87.44-1.12,3.33.76,2.89C93.06,166.91,97.65,155.53,92.94,148.53Z"/><path class="cls-2" d="M83.22,158.15c1.14-1.57-1.43-3.09-2.56-1.54-3.52,4.83-4.79,11.91-5.46,17.7-.6,5.18-.65,13.16,5.27,15.33,1.81.67,2.62-2.21.83-2.87-4.65-1.71-3.46-10.24-2.92-13.88C79.09,168.05,80.28,162.19,83.22,158.15Z"/><path class="cls-2" d="M93.91,169.52c-.07-1.92-3.06-2-3,0a40.51,40.51,0,0,1-.08,7.63,13.26,13.26,0,0,1-3.77,7c-1.31,1.4.77,3.55,2.09,2.14a17.32,17.32,0,0,0,4.35-7.36C94.32,175.89,94,172.61,93.91,169.52Z"/><path class="cls-2" d="M88.34,190.28c-2.38.94-3.75-6.12-4-7.49a37.35,37.35,0,0,1-1-7.06A30,30,0,0,0,87.09,179c1.56,1.14,3.08-1.43,1.54-2.57a15.7,15.7,0,0,1-4.77-4.76.56.56,0,0,1,0-.12,1.24,1.24,0,0,0-.74-1.69,1.5,1.5,0,0,0-2.82,1c.09.35.2.7.32,1-1,4,.12,9.26,1,13,.73,3,2.9,10.11,7.4,8.33C90.87,192.47,90.13,189.57,88.34,190.28Z"/><path class="cls-2" d="M98,227.42c-.34-2.74-.46-5.51-.93-8.24-.32-1.9-3.21-1.12-2.89.76.36,2.14.52,4.3.73,6.46a181.47,181.47,0,0,1-20.33-.29c.85-7.36,1.13-14.88,5.72-21.06,1.15-1.55-1.42-3.07-2.56-1.54-.41.56-.79,1.13-1.14,1.7-1-4.29.76-10.05,4.69-12.28a1.5,1.5,0,0,0-1.48-2.6c-5.2,2.95-7.5,10.39-6,16a1.38,1.38,0,0,0,1.64,1c-2.94,6.2-3.13,13.28-4,20.11-.11.84.74,1.47,1.48,1.51a177.48,177.48,0,0,0,23.63.29A1.54,1.54,0,0,0,98,227.42Z"/><path class="cls-2" d="M88.6,206c-3.53-.88-5.63-6-6-9.3-.24-1.91-3.13-1.13-2.89.76.54,4.32,3.54,10.28,8.1,11.42C89.64,209.39,90.47,206.51,88.6,206Z"/><path class="cls-2" d="M93.53,185.22c-1.31,5.48-3.34,9.58-7.66,13.29-1.47,1.26.63,3.4,2.09,2.14,4.68-4,7-8.66,8.44-14.6C96.84,184.18,94,183.34,93.53,185.22Z"/><path class="cls-2" d="M94,201.38c-.09,3.6-.9,7.12-3.63,9.64s-6.9,2.88-10.45,2.75c-1.92-.08-1.95,2.91,0,3,4.39.17,8.71-.55,12.24-3.31s4.75-7.66,4.86-12A1.5,1.5,0,0,0,94,201.38Z"/><path class="cls-2" d="M71,103.07c-4.14-3.55-8.32-7.48-14-8.14-1.92-.22-1.94,2.77,0,3,3.55.41,6.52,2.63,9.25,5-1.07.12-2.14.26-3.2.4-1.91.25-1.13,3.14.76,2.89a52.12,52.12,0,0,1,6.12-.56A1.5,1.5,0,0,0,71,103.07Z"/><path class="cls-2" d="M58.26,99.26a15.74,15.74,0,0,0-2.16,1.55l-.61.45-.24.18a1.47,1.47,0,0,0-.76.41,1.89,1.89,0,0,0-.68,1.76,1.46,1.46,0,0,0,1,1.06c1.13.22,2-.71,2.84-1.34l.3-.23.16-.12.64-.47a6.14,6.14,0,0,1,.95-.65C61.44,101,60,98.38,58.26,99.26Z"/><path class="cls-2" d="M53.57,97.72a11.94,11.94,0,0,0-9.23-3.63c-1.9.19-2,3.18,0,3a9,9,0,0,1,7.14,2.73C52.81,101.16,55,99.07,53.57,97.72Z"/><path class="cls-2" d="M48.44,101.06A1.5,1.5,0,0,0,46.61,100a21.82,21.82,0,0,0-4.85,2.83,1.53,1.53,0,0,0-.56,2,1.51,1.51,0,0,0,2,.56,19.52,19.52,0,0,1,4.13-2.54A1.55,1.55,0,0,0,48.44,101.06Z"/><path class="cls-2" d="M47.2,107.54c-2.37.48-4.9.85-7.05-.51a10.35,10.35,0,0,1-3.2-3.92,15.18,15.18,0,0,0-1-1.87,1.49,1.49,0,0,0-2.6,1.47c.29.54.58,1.07.88,1.6.68,1.49,1,3.11-.27,4.45a6.27,6.27,0,0,1-4.45,1.59c0-4.8-.34-9.6-.22-14.41,2.7,1.4,5.71,2.14,8.4,3.59,1.7.92,3.24-1.64,1.54-2.56-3.43-1.86-7.4-2.55-10.56-4.92-1-.73-2.2.24-2.27,1.26-.37,6.17.17,12.33.12,18.5A1.52,1.52,0,0,0,28,113.33c3.05.14,6.59-.47,8.57-3a5.94,5.94,0,0,0,.89-1.63,10.3,10.3,0,0,0,1.47,1.14c2.67,1.68,6.11,1.23,9,.63C49.85,110.05,49.09,107.16,47.2,107.54Z"/><path class="cls-2" d="M75.32,105c-8,4.46-16.63,1.07-24.88-.79-1.88-.43-2.71,2.44-.83,2.87,9.13,2.07,18.33,5.44,27.18.52A1.49,1.49,0,0,0,75.32,105Z"/><path class="cls-2" d="M113.72,109c-3,0-5-2-7.08-3.83a19.29,19.29,0,0,0,2.38-.48,1.5,1.5,0,0,0-.76-2.9,45.73,45.73,0,0,1-6.52,1c-1.51.21-1.38,2.53,0,2.89,2.35.62,3.79,2.48,5.56,4a9.29,9.29,0,0,0,6.41,2.35C115.6,112,115.64,109,113.72,109Z"/><path class="cls-2" d="M118,102.94a1.5,1.5,0,0,0-1.83-1.07A22.12,22.12,0,0,0,112,104c-1.64,1-.17,3.6,1.48,2.6q.7-.43,1.44-.84c.4-.23.8-.45,1.21-.66l.57-.28.13-.06.08,0A1.51,1.51,0,0,0,118,102.94Z"/><path class="cls-2" d="M130.79,109.59c-3.6.76-7.14-1.13-10.49-2.19-1.84-.58-2.66,2.3-.83,2.88,4,1.25,7.83,3.1,12.07,2.2C133.43,112.08,132.67,109.19,130.79,109.59Z"/><path class="cls-2" d="M130.54,100.83a24.31,24.31,0,0,1-2.75,1.6l-1.31.64-.52.23c.27-.12-.62.1.16,0a1.53,1.53,0,0,0-1.51,1.48,1.49,1.49,0,0,0,1.47,1.51,8.81,8.81,0,0,0,2.73-1,23,23,0,0,0,3.2-1.83C133.57,102.32,132.11,99.71,130.54,100.83Z"/><path class="cls-2" d="M146.2,96.14c.12-.88-.74-1.41-1.47-1.51a7.62,7.62,0,0,0-7.62,3.78,12,12,0,0,0-14.39-2.82c-1.73.85-.25,3.45,1.48,2.6,4.15-2,10.09-.51,11.8,4,.45,1.2,2.62,1.67,2.88,0a5.16,5.16,0,0,1,4.18-4.65,87.37,87.37,0,0,0,.18,12.84c-2.84-1.11-5.57-2.74-8.61-2.93-1.92-.13-1.95,2.86,0,3,3.39.23,6.56,2.65,9.84,3.5a1.51,1.51,0,0,0,1.91-1.42C146.05,107.1,145.52,101.62,146.2,96.14Z"/><path class="cls-2" d="M123.5,99.37c-8.57-4.56-18-2.6-26.85-.14a1.5,1.5,0,0,0,.75,2.9c8-2.23,16.77-4.35,24.56-.2C123.65,102.84,125.2,100.28,123.5,99.37Z"/></svg>